<?xml version="1.0" encoding="UTF-8" standalone="no"?> <svg version="1.1" id="I216800e531434056b437f12f8260e09a20251110130509" width="100" height="100" viewBox="0 0 100 100" xmlns="http://www.w3.org/2000/svg" xmlns:svg="http://www.w3.org/2000/svg"> <defs id="I102b8fb3ec114854b7883174dcb884af20251110130509" /> <g id="Iffaa75de85f34effa6e86066dc3f8c7820251110130509"> <path id="Ie1ec165ddfa54845a6510ab1f5b7cfa520251110130509" d="m 61.719,6.25 c 3.883,0 7.031,3.148 7.031,7.031 v 17.071 c 0,2.691 -1.07,5.273 -2.973,7.179 l -1.312,1.313 c -1.801,-3.578 -5.504,-6.032 -9.777,-6.032 -6.043,0 -10.938,4.899 -10.938,10.938 v 0.156 c -3.566,0.723 -6.25,3.875 -6.25,7.656 v 13.915 c -3.93,2.515 -9.211,2.058 -12.652,-1.372 L 10.902,50.184 C 6.934,46.223 6.93,39.793 10.891,35.824 L 37.453,9.23 c 1.906,-1.91 4.488,-2.98 7.188,-2.98 z m -8.594,10.945 c -2.59,0 -4.687,2.098 -4.687,4.688 0,2.586 2.097,4.687 4.687,4.687 2.59,0 4.687,-2.101 4.687,-4.687 0,-2.59 -2.097,-4.688 -4.687,-4.688 z m -6.25,29.68 h -1.563 c -2.589,0 -4.687,2.098 -4.687,4.687 v 15.626 c 0,2.589 2.098,4.687 4.687,4.687 h 18.75 c 2.59,0 4.688,-2.098 4.688,-4.687 V 51.562 c 0,-2.589 -2.098,-4.687 -4.688,-4.687 H 62.5 V 43.75 c 0,-4.316 -3.496,-7.812 -7.812,-7.812 -4.317,0 -7.813,3.496 -7.813,7.812 z m 4.687,-3.125 c 0,-1.727 1.399,-3.125 3.126,-3.125 1.726,0 3.124,1.398 3.124,3.125 v 3.125 h -6.25 z m 6.25,15.625 c 0,1.727 -1.398,3.125 -3.124,3.125 -1.727,0 -3.126,-1.398 -3.126,-3.125 0,-1.727 1.399,-3.125 3.126,-3.125 1.726,0 3.124,1.398 3.124,3.125 z" style="fill:currentColor;fill-opacity:1;fill-rule:nonzero;stroke:none" transform="scale(1.3333333)" /> </g>
</svg>

