<?xml version="1.0" encoding="UTF-8" standalone="no"?> <svg version="1.1" id="I6cbbfe16b8114e739cf421b68b99023c20251106170956" width="100" height="100" viewBox="0 0 100 100" xmlns="http://www.w3.org/2000/svg" xmlns:svg="http://www.w3.org/2000/svg"> <defs id="I45452be5f23f4fcd956bc58c05cc77ad20251106170956" /> <g id="I8002dbada2514134bf724e956c4a8b7a20251106170956"> <path id="Iaab35dbef0c641f78eb232440d580fcb20251106170956" d="m 54.375,41.25 c 4.988,0 9.559,-1.77 13.125,-4.715 v 17.84 c 0,5.176 -4.195,9.375 -9.375,9.375 H 16.875 C 11.699,63.75 7.5,59.551 7.5,54.375 V 27.648 l 29.051,17.094 c 0.586,0.344 1.312,0.344 1.898,0 l 8.363,-4.922 c 2.344,0.922 4.895,1.43 7.563,1.43 z M 16.875,15 h 17.652 c -0.507,1.789 -0.777,3.676 -0.777,5.625 0,7.145 3.633,13.445 9.156,17.145 L 37.5,40.949 7.559,23.336 C 8.074,18.648 12.047,15 16.875,15 Z m 37.5,22.5 c 9.32,0 16.875,-7.555 16.875,-16.875 0,-9.32 -7.555,-16.875 -16.875,-16.875 -9.32,0 -16.875,7.555 -16.875,16.875 0,9.32 7.555,16.875 16.875,16.875 z M 45.551,21.949 c -0.735,-0.73 -0.735,-1.918 0,-2.648 0.73,-0.735 1.918,-0.735 2.648,0 L 52.5,23.598 V 13.125 c 0,-1.035 0.84,-1.875 1.875,-1.875 1.035,0 1.875,0.84 1.875,1.875 v 10.473 l 4.301,-4.297 c 0.73,-0.735 1.918,-0.735 2.648,0 0.735,0.73 0.735,1.918 0,2.648 l -7.5,7.5 c -0.179,0.18 -0.387,0.317 -0.605,0.41 C 54.875,29.949 54.637,30 54.387,30 h -0.024 c -0.25,0 -0.488,-0.051 -0.707,-0.141 -0.218,-0.093 -0.422,-0.226 -0.597,-0.402 l -0.012,-0.008 z" style="fill:currentColor;fill-opacity:1;fill-rule:nonzero;stroke:none" transform="scale(1.3333333)" /> </g>
</svg>

