<?xml version="1.0" encoding="UTF-8" standalone="no"?> <svg version="1.1" id="Ic6b43a9bfa69414497186abe638b63fa20251106143238" width="100" height="100" viewBox="0 0 100 100" xmlns="http://www.w3.org/2000/svg" xmlns:svg="http://www.w3.org/2000/svg"> <defs id="I903aafae29314030b44f298774e2d66420251106143238"> <linearGradient x1="9.4285698" y1="6.5" x2="14.1366" y2="20.9321" gradientUnits="userSpaceOnUse" gradientTransform="scale(3.125)" spreadMethod="pad" id="Ia0a8913a78c44927a17ed64596f9781320251106143238"> <stop style="stop-opacity:1;stop-color:#b3e0ff" offset="0" id="I8b497e23f1264f74b2a8c1880e5f717a20251106143238" /> <stop style="stop-opacity:1;stop-color:#8cd0ff" offset="1" id="I44fb4511a3c747ec902aec369bea230720251106143238" /> </linearGradient> <linearGradient x1="13.9286" y1="12.4318" x2="16.625" y2="24.267" gradientUnits="userSpaceOnUse" gradientTransform="scale(3.125)" spreadMethod="pad" id="I4d2fddb1828f42cbbae054069665418a20251106143238"> <stop style="stop-opacity:0;stop-color:#dcf8ff" offset="0" id="I25a633ff3b1c44f7be402d85e8a92c2c20251106143238" /> <stop style="stop-opacity:0.70000763;stop-color:#ff6ce8" offset="1" id="I2c824cbb95b14ea284c7ca63be1928a120251106143238" /> </linearGradient> <radialGradient fx="0" fy="0" cx="0" cy="0" r="1" gradientUnits="userSpaceOnUse" gradientTransform="matrix(0,26.775563,-26.116063,0,55.580312,59.445938)" spreadMethod="pad" id="I99314bd01f1c40bdb9f0ef0d27c449e220251106143238"> <stop style="stop-opacity:0.29999237;stop-color:#4a43cb" offset="0" id="I3b5e06ce09e449f6a52064e223f371bd20251106143238" /> <stop style="stop-opacity:0.29999237;stop-color:#4a43cb" offset="0.535" id="I0bbe570983d44c7ab6e767d4374b778a20251106143238" /> <stop style="stop-opacity:0;stop-color:#4a43cb" offset="1" id="I9ad8732ccf094ce4b749a2392eaaf33120251106143238" /> </radialGradient> <linearGradient x1="3.7232101" y1="3" x2="5.3563099" y2="11.5369" gradientUnits="userSpaceOnUse" gradientTransform="scale(3.125)" spreadMethod="pad" id="I142ec16e5b5a48f583f14e6ca8db1b3d20251106143238"> <stop style="stop-opacity:1;stop-color:#0094f0" offset="0" id="Icf64c2c5a4284f74814ca90ad8ceeba320251106143238" /> <stop style="stop-opacity:1;stop-color:#2764e7" offset="1" id="Id3c7f10c106e425d9763912d8f3466e420251106143238" /> </linearGradient> <linearGradient x1="13.8333" y1="11.3889" x2="19.3333" y2="23.611099" gradientUnits="userSpaceOnUse" gradientTransform="scale(3.125)" spreadMethod="pad" id="If5dd174030a74dedb7b00bc9fd80f56d20251106143238"> <stop style="stop-opacity:1;stop-color:#1ec8b0" offset="0" id="I0b9f7d57adab44b99572e92faa59cefd20251106143238" /> <stop style="stop-opacity:1;stop-color:#2764e7" offset="1" id="I39e41c63584c4bf68d1706231a21d7f120251106143238" /> </linearGradient> <linearGradient x1="17.306299" y1="14.6122" x2="16.3983" y2="17.879801" gradientUnits="userSpaceOnUse" gradientTransform="scale(3.125)" spreadMethod="pad" id="I6c412844ed5644faa762d5589c9525dc20251106143238"> <stop style="stop-opacity:1;stop-color:#fdfdfd" offset="0" id="I75864e7c1dc84fad83c05c76130d4cc020251106143238" /> <stop style="stop-opacity:1;stop-color:#d1d1ff" offset="1" id="Ifa26279196824e2c9979f251a44c68ed20251106143238" /> </linearGradient> </defs> <g id="I05402eb3a16944da81af8087b7ffc94f20251106143238"> <path id="I26987e8bab644442b92a7210444d027020251106143238" d="m 65.625,23.438 v 32.031 c 0,5.609 -4.547,10.156 -10.156,10.156 H 19.531 C 13.922,65.625 9.375,61.078 9.375,55.469 V 23.438 L 37.5,20.312 Z" transform="scale(1.3333333)" style="fill:url(#Ia0a8913a78c44927a17ed64596f9781320251106143238);stroke:none" /> <path d="m 65.625,23.438 v 32.031 c 0,5.609 -4.547,10.156 -10.156,10.156 H 19.531 C 13.922,65.625 9.375,61.078 9.375,55.469 V 23.438 L 37.5,20.312 Z" transform="scale(1.3333333)" style="fill:url(#I4d2fddb1828f42cbbae054069665418a20251106143238);stroke:none" opacity="1" id="Ic4f5c38ed63348c58c316062de75f36620251106143238" /> <path d="m 65.625,23.438 v 32.031 c 0,5.609 -4.547,10.156 -10.156,10.156 H 19.531 C 13.922,65.625 9.375,61.078 9.375,55.469 V 23.438 L 37.5,20.312 Z" transform="scale(1.3333333)" style="fill:url(#I99314bd01f1c40bdb9f0ef0d27c449e220251106143238);stroke:none" opacity="1" id="Ie87dc32e936a4668bb6eb146fe05076920251106143238" /> <path id="I52d0bb9a231b42849718fed2594d992920251106143238" d="m 55.469,9.375 c 5.609,0 10.156,4.547 10.156,10.156 V 25 H 9.375 v -5.469 c 0,-5.609 4.547,-10.156 10.156,-10.156 z" transform="scale(1.3333333)" style="fill:url(#I142ec16e5b5a48f583f14e6ca8db1b3d20251106143238);stroke:none" /> <path id="Ic63b292bd3724c6facdfa1c30996913120251106143238" d="m 54.688,37.5 c 9.492,0 17.187,7.695 17.187,17.188 0,9.492 -7.695,17.187 -17.187,17.187 C 45.195,71.875 37.5,64.18 37.5,54.688 37.5,45.195 45.195,37.5 54.688,37.5 Z" transform="scale(1.3333333)" style="fill:url(#If5dd174030a74dedb7b00bc9fd80f56d20251106143238);stroke:none" /> <path id="Ice0ccde06fb24682a5d4862449d4f69120251106143238" d="m 54.688,43.75 c 0.863,0 1.562,0.699 1.562,1.562 v 7.813 h 6.25 c 0.863,0 1.562,0.699 1.562,1.563 0,0.863 -0.699,1.562 -1.562,1.562 h -7.812 c -0.864,0 -1.563,-0.699 -1.563,-1.562 v -9.376 c 0,-0.863 0.699,-1.562 1.563,-1.562 z" transform="scale(1.3333333)" style="fill:url(#I6c412844ed5644faa762d5589c9525dc20251106143238);fill-rule:evenodd;stroke:none" /> </g>
</svg>

