<?xml version="1.0" encoding="UTF-8" standalone="no"?> <svg version="1.1" id="I9072107b1f4f47be90da27e4a6065a9220251106170411" width="100" height="100" viewBox="0 0 100 100" xmlns="http://www.w3.org/2000/svg" xmlns:svg="http://www.w3.org/2000/svg"> <defs id="I4f8b63e1ab2942d1b47af79d73a1792f20251106170411" /> <g id="If0d8f384c7934b83a58bc5feff884ac220251106170411"> <path id="I28c5c7ce709245bf8318ada26760737f20251106170411" d="M 41.164,22.5 H 56.25 c 2.07,0 3.75,1.68 3.75,3.75 V 45 c 0,2.07 -1.68,3.75 -3.75,3.75 H 18.75 C 16.68,48.75 15,47.07 15,45 V 40.473 C 13.691,40.105 12.438,39.609 11.25,39 v 6 c 0,4.141 3.359,7.5 7.5,7.5 h 37.5 c 4.141,0 7.5,-3.359 7.5,-7.5 V 26.25 c 0,-4.141 -3.359,-7.5 -7.5,-7.5 H 41.164 c 0.059,0.617 0.086,1.242 0.086,1.875 0,0.633 -0.027,1.258 -0.086,1.875 z M 9.375,56.25 C 8.34,56.25 7.5,57.09 7.5,58.125 7.5,59.16 8.34,60 9.375,60 h 56.25 C 66.66,60 67.5,59.16 67.5,58.125 67.5,57.09 66.66,56.25 65.625,56.25 Z M 20.625,37.5 C 29.945,37.5 37.5,29.945 37.5,20.625 37.5,11.305 29.945,3.75 20.625,3.75 11.305,3.75 3.75,11.305 3.75,20.625 c 0,9.32 7.555,16.875 16.875,16.875 z m 6.949,-23.824 c 0.735,0.73 0.735,1.918 0,2.648 l -4.297,4.301 4.297,4.301 c 0.735,0.73 0.735,1.918 0,2.648 -0.73,0.735 -1.918,0.735 -2.648,0 l -4.301,-4.297 -4.301,4.297 c -0.73,0.735 -1.918,0.735 -2.648,0 -0.735,-0.73 -0.735,-1.918 0,-2.648 l 4.297,-4.301 -4.297,-4.301 c -0.735,-0.73 -0.735,-1.918 0,-2.648 0.73,-0.735 1.918,-0.735 2.648,0 l 4.301,4.297 4.301,-4.297 c 0.73,-0.735 1.918,-0.735 2.648,0 z" style="fill:currentColor;fill-opacity:1;fill-rule:nonzero;stroke:none" transform="scale(1.3333333)" /> </g>
</svg>

