<?xml version="1.0" encoding="UTF-8" standalone="no"?> <svg version="1.1" id="Ic09c7e43a0244b078a43c129e680660020251110124419" width="100" height="100" viewBox="0 0 100 100" xmlns="http://www.w3.org/2000/svg" xmlns:svg="http://www.w3.org/2000/svg"> <defs id="I6c99605fe892407282bafbbee909179220251110124419" /> <g id="I89aa48cfa1fc48a7a1e1695c70f8e92b20251110124419"> <path id="I4ecbe180875143dcafb41116a90e2d8220251110124419" d="M 28.125,31.441 6.938,10.25 C 6.02,9.336 6.02,7.852 6.938,6.938 7.852,6.02 9.336,6.02 10.25,6.938 L 68.062,64.75 c 0.915,0.914 0.915,2.398 0,3.312 -0.914,0.918 -2.398,0.918 -3.312,0 l -1.012,-1.007 c -1.433,1.066 -3.211,1.699 -5.136,1.699 -4.75,0 -8.602,-3.848 -8.602,-8.598 v -6.84 l -4.676,-4.675 v 11.515 c 0,4.75 -3.851,8.598 -8.597,8.598 -4.75,0 -8.602,-3.848 -8.602,-8.598 z m 12.512,12.512 -7.825,-7.824 v 24.027 c 0,2.16 1.75,3.91 3.915,3.91 2.16,0 3.91,-1.75 3.91,-3.91 z m 14.051,14.051 v 2.152 c 0,2.16 1.75,3.91 3.914,3.91 0.625,0 1.218,-0.144 1.742,-0.406 z M 40.637,14.848 v 15.847 l 4.687,4.688 V 14.848 c 0,-4.75 -3.851,-8.598 -8.597,-8.598 -4.75,0 -8.602,3.848 -8.602,8.598 v 3.332 l 4.687,4.687 v -8.019 c 0,-2.16 1.75,-3.91 3.915,-3.91 2.16,0 3.91,1.75 3.91,3.91 z M 50,40.059 54.688,44.746 V 30.473 c 0,-2.161 1.75,-3.911 3.914,-3.911 2.16,0 3.91,1.75 3.91,3.911 V 52.57 l 4.687,4.688 V 30.473 c 0,-4.75 -3.851,-8.598 -8.597,-8.598 -4.75,0 -8.602,3.848 -8.602,8.598 z M 14.848,37.5 c 4.75,0 8.601,3.848 8.601,8.598 v 14.058 c 0,4.75 -3.851,8.598 -8.601,8.598 -4.746,0 -8.598,-3.848 -8.598,-8.598 V 46.098 c 0,-4.75 3.852,-8.598 8.598,-8.598 z m 0,4.688 c -2.16,0 -3.91,1.75 -3.91,3.91 v 14.058 c 0,2.16 1.75,3.91 3.91,3.91 2.164,0 3.914,-1.75 3.914,-3.91 V 46.098 c 0,-2.16 -1.75,-3.91 -3.914,-3.91 z" style="fill:currentColor;fill-opacity:1;fill-rule:nonzero;stroke:none" transform="scale(1.3333333)" /> </g>
</svg>

