<?xml version="1.0" encoding="UTF-8" standalone="no"?> <svg version="1.1" id="Ied8980ba555a4b859dab9a05d220f96520251110130508" width="100" height="100" viewBox="0 0 100 100" xmlns="http://www.w3.org/2000/svg" xmlns:svg="http://www.w3.org/2000/svg"> <defs id="I30cafe39c3b2487abf83179782ea787d20251110130508" /> <g id="I95b72ddd7d8843a29cf0e36deeec9eb120251110130508"> <path id="Ic98e927e747d47ef95023dd82408292920251110130508" d="m 54.688,37.5 c 9.492,0 17.187,7.695 17.187,17.188 0,9.492 -7.695,17.187 -17.187,17.187 C 45.195,71.875 37.5,64.18 37.5,54.688 37.5,45.195 45.195,37.5 54.688,37.5 Z m 0,6.246 -0.282,0.027 c -0.636,0.114 -1.14,0.618 -1.258,1.258 l -0.023,0.278 v 7.812 l -7.82,0.004 -0.282,0.023 c -0.636,0.118 -1.14,0.622 -1.253,1.258 l -0.028,0.282 0.028,0.281 c 0.113,0.636 0.617,1.14 1.253,1.258 l 0.282,0.023 7.824,-0.004 v 7.828 l 0.023,0.281 c 0.118,0.637 0.621,1.141 1.258,1.254 l 0.281,0.028 0.282,-0.028 c 0.636,-0.113 1.14,-0.617 1.254,-1.254 l 0.027,-0.281 v -7.828 l 7.824,0.004 0.281,-0.023 c 0.637,-0.118 1.141,-0.622 1.254,-1.258 l 0.028,-0.281 -0.028,-0.282 C 65.5,53.77 64.996,53.266 64.359,53.148 L 64.078,53.125 56.25,53.121 v -7.812 l -0.023,-0.278 c -0.118,-0.64 -0.622,-1.144 -1.258,-1.258 z M 55.469,9.375 c 5.609,0 10.156,4.547 10.156,10.156 l 0.004,18.039 c -3.156,-2.023 -6.914,-3.195 -10.941,-3.195 -8.434,0 -15.665,5.137 -18.739,12.453 -2.644,-0.238 -5.058,-1.121 -7.273,-2.656 -1.063,-0.734 -2.524,-0.469 -3.262,0.598 -0.734,1.062 -0.469,2.523 0.598,3.257 2.633,1.825 5.519,2.95 8.629,3.375 -0.176,1.067 -0.266,2.168 -0.266,3.286 0,4.027 1.172,7.785 3.195,10.941 L 19.531,65.625 C 13.922,65.625 9.375,61.078 9.375,55.469 V 19.531 c 0,-5.609 4.547,-10.156 10.156,-10.156 z M 28.125,24.223 c -2.156,0 -3.902,1.746 -3.902,3.902 0,2.156 1.746,3.906 3.902,3.906 2.156,0 3.906,-1.75 3.906,-3.906 0,-2.156 -1.75,-3.902 -3.906,-3.902 z m 18.75,0 c -2.156,0 -3.902,1.746 -3.902,3.902 0,2.156 1.746,3.906 3.902,3.906 2.156,0 3.906,-1.75 3.906,-3.906 0,-2.156 -1.75,-3.902 -3.906,-3.902 z" style="fill:currentColor;fill-opacity:1;fill-rule:nonzero;stroke:none" transform="scale(1.3333333)" /> </g>
</svg>

