<?xml version="1.0" encoding="UTF-8" standalone="no"?> <svg version="1.1" id="Id575627a0f7245c5b5da47d1ef1c586020251106142134" width="100" height="100" viewBox="0 0 100 100" xmlns="http://www.w3.org/2000/svg" xmlns:svg="http://www.w3.org/2000/svg"> <defs id="Ie886bc7e4f9e4fe29bc417f4cf10d0e720251106142134" /> <g id="I2bf3e7a683284e0da0f2f576f7135ff720251106142134"> <path id="I9d686bee70b54a2184f2b5320ce128b020251106142134" d="m 10.938,17.969 c 0,-0.43 0.351,-0.781 0.781,-0.781 H 31.25 c 2.156,0 3.906,1.75 3.906,3.906 V 49.09 c 0.895,-3.133 2.524,-5.953 4.688,-8.27 V 21.094 c 0,-2.156 1.75,-3.906 3.906,-3.906 h 19.531 c 0.43,0 0.781,0.351 0.781,0.781 v 18.695 c 1.723,0.898 3.301,2.035 4.688,3.367 V 17.969 c 0,-3.02 -2.449,-5.469 -5.469,-5.469 H 43.75 c -2.461,0 -4.684,1.035 -6.25,2.695 C 35.934,13.535 33.711,12.5 31.25,12.5 H 11.719 c -3.02,0 -5.469,2.449 -5.469,5.469 v 39.062 c 0,3.02 2.449,5.469 5.469,5.469 H 31.25 c 1.547,0 3,-0.41 4.25,-1.125 -0.57,-1.645 -0.941,-3.391 -1.07,-5.199 -0.711,0.992 -1.871,1.636 -3.18,1.636 H 11.719 c -0.43,0 -0.781,-0.351 -0.781,-0.781 z" style="fill:currentColor;fill-opacity:1;fill-rule:nonzero;stroke:none" transform="scale(1.3333333)" /> <path id="I94abd8d6bd734f7da45ecea6cd335c4a20251106142134" d="m 50.023,53.125 c 0.125,-4.422 0.774,-8.34 1.727,-11.203 0.535,-1.606 1.137,-2.789 1.73,-3.543 0.61,-0.77 1.028,-0.879 1.208,-0.879 0.179,0 0.597,0.109 1.207,0.879 0.593,0.754 1.195,1.937 1.73,3.543 0.953,2.863 1.602,6.781 1.727,11.203 z" style="fill:currentColor;fill-opacity:1;fill-rule:nonzero;stroke:none" transform="scale(1.3333333)" /> <path id="I1dc3769acbd943ed9f57a0384311f74020251106142134" d="m 48.785,40.934 c 0.336,-1.004 0.719,-1.942 1.149,-2.77 -6.696,1.926 -11.719,7.813 -12.364,14.961 h 9.325 c 0.125,-4.687 0.812,-8.953 1.89,-12.191 z" style="fill:currentColor;fill-opacity:1;fill-rule:nonzero;stroke:none" transform="scale(1.3333333)" /> <path id="I8a9996363d4c44369b7f0ed73519ffd620251106142134" d="m 60.59,40.934 c -0.336,-1.004 -0.719,-1.942 -1.149,-2.77 6.7,1.926 11.719,7.813 12.364,14.961 H 62.48 C 62.355,48.438 61.668,44.172 60.59,40.934 Z" style="fill:currentColor;fill-opacity:1;fill-rule:nonzero;stroke:none" transform="scale(1.3333333)" /> <path id="I921ac0e5865c489aa0635da62def339b20251106142134" d="m 62.48,56.25 h 9.325 c -0.645,7.148 -5.664,13.035 -12.364,14.961 0.43,-0.828 0.813,-1.766 1.149,-2.77 1.078,-3.238 1.765,-7.503 1.89,-12.191 z" style="fill:currentColor;fill-opacity:1;fill-rule:nonzero;stroke:none" transform="scale(1.3333333)" /> <path id="I22d5e7afbb3748cca755db17ace6fcdd20251106142134" d="m 55.895,70.996 c -0.61,0.77 -1.028,0.879 -1.207,0.879 -0.18,0 -0.598,-0.109 -1.208,-0.879 C 52.887,70.242 52.285,69.059 51.75,67.453 50.797,64.59 50.148,60.672 50.023,56.25 h 9.329 c -0.125,4.422 -0.774,8.34 -1.727,11.203 -0.535,1.606 -1.137,2.789 -1.73,3.543 z" style="fill:currentColor;fill-opacity:1;fill-rule:nonzero;stroke:none" transform="scale(1.3333333)" /> <path id="Ied8434bf7420410aac84b18f2fa7100920251106142134" d="m 37.57,56.25 c 0.645,7.148 5.668,13.035 12.364,14.961 -0.43,-0.828 -0.813,-1.766 -1.149,-2.77 -1.078,-3.238 -1.765,-7.503 -1.89,-12.191 z" style="fill:currentColor;fill-opacity:1;fill-rule:nonzero;stroke:none" transform="scale(1.3333333)" /> </g>
</svg>

