<?xml version="1.0" encoding="UTF-8" standalone="no"?> <svg version="1.1" id="I297bc6fc362845b7867ae2266c8381ea20251110123030" width="100" height="100" viewBox="0 0 100 100" xmlns="http://www.w3.org/2000/svg" xmlns:svg="http://www.w3.org/2000/svg"> <defs id="I249adf64f4de4fccbeabb1ac9657ac2d20251110123030" /> <g id="I14294af436004985978b00d2fb50c0ae20251110123030"> <path id="If7458292353644d69140526a033e6eb720251110123030" d="m 37.5,21.562 c 0,6.731 -5.457,12.188 -12.188,12.188 -6.73,0 -12.187,-5.457 -12.187,-12.188 0,-6.73 5.457,-12.187 12.187,-12.187 6.731,0 12.188,5.457 12.188,12.187 z M 54.375,33.75 c 5.176,0 9.375,-4.199 9.375,-9.375 C 63.75,19.199 59.551,15 54.375,15 49.199,15 45,19.199 45,24.375 c 0,5.176 4.199,9.375 9.375,9.375 z m -41.25,3.75 c -4.141,0 -7.5,3.359 -7.5,7.5 0,0 0,15 19.687,15 3.793,0 6.86,-0.559 9.333,-1.457 -0.575,-1.406 -0.895,-2.82 -0.895,-4.168 0,-1.937 0.68,-3.934 1.625,-5.695 0.977,-1.817 2.371,-3.641 4.117,-5.27 1.156,-1.078 2.485,-2.09 3.973,-2.957 C 42.094,38.656 39.934,37.5 37.5,37.5 Z m 41.25,3.75 c -10.363,0 -16.875,8.691 -16.875,13.125 0,4.5 6.52,13.125 16.875,13.125 10.355,0 16.875,-8.691 16.875,-13.125 0,-4.5 -6.52,-13.125 -16.875,-13.125 z m 0,22.5 c -1.855,0 -3.668,-0.551 -5.207,-1.578 -1.543,-1.031 -2.746,-2.496 -3.453,-4.211 -0.711,-1.711 -0.895,-3.598 -0.535,-5.414 0.363,-1.82 1.254,-3.488 2.566,-4.801 1.313,-1.312 2.981,-2.203 4.801,-2.566 1.816,-0.36 3.703,-0.176 5.414,0.535 1.715,0.707 3.18,1.91 4.211,3.453 1.027,1.539 1.578,3.352 1.578,5.207 0,2.484 -0.988,4.871 -2.746,6.629 -1.758,1.758 -4.145,2.746 -6.629,2.746 z M 60,54.375 c 0,1.113 -0.328,2.199 -0.949,3.125 -0.617,0.926 -1.496,1.645 -2.524,2.07 -1.027,0.426 -2.16,0.539 -3.25,0.321 -1.089,-0.215 -2.093,-0.75 -2.879,-1.539 -0.789,-0.786 -1.324,-1.79 -1.539,-2.879 -0.218,-1.09 -0.105,-2.223 0.321,-3.25 0.425,-1.028 1.144,-1.907 2.07,-2.524 0.926,-0.621 2.012,-0.949 3.125,-0.949 1.492,0 2.922,0.594 3.977,1.648 1.054,1.055 1.648,2.485 1.648,3.977 z" style="fill:currentColor;fill-opacity:1;fill-rule:nonzero;stroke:none" transform="scale(1.3333333)" /> </g>
</svg>

