<?xml version="1.0" encoding="UTF-8" standalone="no"?> <svg version="1.1" id="I37ebd8edb0fb4ec490d65a9e020882d620251110130509" width="100" height="100" viewBox="0 0 100 100" xmlns="http://www.w3.org/2000/svg" xmlns:svg="http://www.w3.org/2000/svg"> <defs id="I1c81df0403f9482481821e85879825a420251110130509" /> <g id="I7770dc4e595544f6b5e4160bb0ca247020251110130509"> <path id="Ib94d383ad3054616b0251b1aed77dc8c20251110130509" d="m 20.961,7.164 c -1.223,-1.219 -3.199,-1.219 -4.422,0 L 12.5,11.207 11.586,10.289 c -1.223,-1.219 -3.199,-1.219 -4.422,0 -1.219,1.223 -1.219,3.199 0,4.422 l 3.125,3.125 c 1.223,1.219 3.199,1.219 4.422,0 l 6.25,-6.25 c 1.219,-1.223 1.219,-3.199 0,-4.422 z m 13.414,47.524 c 0,0.519 0.02,1.031 0.059,1.542 H 31.25 c -1.727,0 -3.125,-1.402 -3.125,-3.125 0,-1.605 1.207,-2.925 2.762,-3.105 l 0.363,-0.02 h 3.672 c -0.356,1.508 -0.547,3.086 -0.547,4.708 z M 54.688,34.375 c 3.98,0 7.695,1.145 10.828,3.125 h 0.121 L 66,37.48 c 1.555,-0.183 2.762,-1.503 2.762,-3.105 0,-1.727 -1.399,-3.125 -3.125,-3.125 H 31.25 l -0.363,0.02 c -1.555,0.183 -2.762,1.503 -2.762,3.105 0,1.727 1.398,3.125 3.125,3.125 h 12.609 c 3.133,-1.98 6.848,-3.125 10.829,-3.125 z M 65.637,12.5 H 31.25 l -0.363,0.02 c -1.555,0.183 -2.762,1.503 -2.762,3.105 0,1.727 1.398,3.125 3.125,3.125 H 65.637 L 66,18.73 c 1.555,-0.183 2.762,-1.503 2.762,-3.105 0,-1.727 -1.399,-3.125 -3.125,-3.125 z M 20.961,47.789 c -1.223,-1.219 -3.199,-1.219 -4.422,0 L 12.5,51.832 11.586,50.914 c -1.223,-1.219 -3.199,-1.219 -4.422,0 -1.219,1.223 -1.219,3.199 0,4.422 l 3.125,3.125 c 1.223,1.219 3.199,1.219 4.422,0 l 6.25,-6.25 c 1.219,-1.223 1.219,-3.199 0,-4.422 z M 16.539,27.477 c 1.223,-1.219 3.199,-1.219 4.422,0 1.219,1.222 1.219,3.199 0,4.421 l -6.25,6.25 c -1.223,1.219 -3.199,1.219 -4.422,0 L 7.164,35.023 c -1.219,-1.222 -1.219,-3.199 0,-4.421 1.223,-1.219 3.199,-1.219 4.422,0 L 12.5,31.52 Z M 71.875,54.688 C 71.875,45.195 64.18,37.5 54.688,37.5 45.195,37.5 37.5,45.195 37.5,54.688 c 0,9.492 7.695,17.187 17.188,17.187 9.492,0 17.187,-7.695 17.187,-17.187 z m -15.625,1.562 0.004,7.824 c 0,0.864 -0.699,1.563 -1.563,1.563 -0.863,0 -1.562,-0.699 -1.562,-1.563 L 53.125,56.25 h -7.828 c -0.859,0 -1.559,-0.699 -1.559,-1.562 0,-0.864 0.7,-1.563 1.559,-1.563 h 7.828 v -7.816 c 0,-0.864 0.699,-1.563 1.563,-1.563 0.863,0 1.562,0.699 1.562,1.563 v 7.816 h 7.801 c 0.863,0 1.562,0.699 1.562,1.563 0,0.863 -0.699,1.562 -1.562,1.562 z" style="fill:currentColor;fill-opacity:1;fill-rule:nonzero;stroke:none" transform="scale(1.3333333)" /> </g>
</svg>

