<?xml version="1.0" encoding="UTF-8" standalone="no"?> <svg version="1.1" id="Iff2886ea3eba45848af32f6861447e5e20251110133655" width="100" height="100" viewBox="0 0 100 100" xmlns="http://www.w3.org/2000/svg" xmlns:svg="http://www.w3.org/2000/svg"> <defs id="I34ce577f87c14ad697d6cb248632d0ad20251110133655" /> <g id="I490d4ad3c73e4898b88a81f62c993ebb20251110133655"> <path id="If72d459d0ba44712821dbc427c6be39420251110133655" d="m 33.598,62.543 c 1.293,0 2.343,1.047 2.343,2.344 0,1.293 -1.05,2.343 -2.343,2.343 -1.293,0 -2.344,-1.05 -2.344,-2.343 0,-1.297 1.051,-2.344 2.344,-2.344 z m 14.062,0 c 1.293,0 2.344,1.047 2.344,2.344 0,1.293 -1.051,2.343 -2.344,2.343 -1.293,0 -2.344,-1.05 -2.344,-2.343 0,-1.297 1.051,-2.344 2.344,-2.344 z M 26.566,59.418 c 1.293,0 2.344,1.047 2.344,2.344 0,1.293 -1.051,2.343 -2.344,2.343 -1.293,0 -2.343,-1.05 -2.343,-2.343 0,-1.297 1.05,-2.344 2.343,-2.344 z m 14.063,0 c 1.293,0 2.344,1.047 2.344,2.344 0,1.293 -1.051,2.343 -2.344,2.343 -1.293,0 -2.344,-1.05 -2.344,-2.343 0,-1.297 1.051,-2.344 2.344,-2.344 z m 14.062,0 c 1.293,0 2.344,1.047 2.344,2.344 0,1.293 -1.051,2.343 -2.344,2.343 -1.293,0 -2.343,-1.05 -2.343,-2.343 0,-1.297 1.05,-2.344 2.343,-2.344 z M 40.625,18.766 c 9.898,0 15.516,6.554 16.336,14.468 h 0.25 c 6.371,0 11.535,5.153 11.535,11.508 0,6.356 -5.164,11.508 -11.535,11.508 H 24.039 C 17.664,56.25 12.5,51.098 12.5,44.742 c 0,-6.355 5.164,-11.508 11.539,-11.508 h 0.25 c 0.82,-7.968 6.434,-14.468 16.336,-14.468 z m 0,3.898 c -6.66,0 -12.461,5.387 -12.461,12.828 0,1.18 -1.027,2.106 -2.199,2.106 h -2.223 c -4.051,0 -7.336,3.3 -7.336,7.375 0,4.074 3.285,7.379 7.336,7.379 h 33.762 c 4.051,0 7.34,-3.305 7.34,-7.379 0,-4.075 -3.289,-7.375 -7.34,-7.375 h -2.219 c -1.176,0 -2.199,-0.926 -2.199,-2.106 0,-7.535 -5.805,-12.828 -12.461,-12.828 z m -27.02,9.059 c 0.387,0.929 -0.003,1.988 -0.871,2.453 l -0.179,0.086 -3.61,1.504 C 7.953,36.176 6.816,35.707 6.406,34.715 6.02,33.785 6.41,32.727 7.277,32.262 l 0.18,-0.086 3.613,-1.504 c 0.989,-0.41 2.125,0.062 2.535,1.051 z M 33.918,16.66 33.824,16.691 c -1.445,0.469 -2.789,1.094 -4.015,1.86 -2.047,-0.867 -4.422,-0.942 -6.637,-0.028 -4.383,1.817 -6.465,6.844 -4.649,11.231 0.176,0.43 0.383,0.832 0.618,1.215 -1.184,0.426 -2.301,1 -3.321,1.699 -0.277,-0.473 -0.523,-0.969 -0.738,-1.488 -2.605,-6.285 0.383,-13.492 6.664,-16.094 4.195,-1.738 8.801,-0.988 12.172,1.574 z m -25.199,0.281 0.199,0.071 3.621,1.547 c 0.984,0.414 1.457,1.554 1.055,2.543 -0.375,0.925 -1.379,1.39 -2.309,1.113 L 11.086,22.141 7.461,20.598 C 6.48,20.18 6.008,19.043 6.41,18.051 6.785,17.129 7.789,16.66 8.719,16.941 Z m 11.515,-9.648 0.082,0.184 1.504,3.601 c 0.41,0.996 -0.062,2.141 -1.058,2.551 -0.934,0.387 -1.996,-0.004 -2.465,-0.875 l -0.086,-0.18 -1.5,-3.605 C 16.297,7.973 16.77,6.832 17.766,6.418 18.699,6.031 19.762,6.422 20.234,7.293 Z M 34.371,6.418 c 0.941,0.391 1.418,1.422 1.141,2.379 L 35.438,9 33.891,12.555 c -0.418,1.007 -1.575,1.484 -2.582,1.066 -0.938,-0.387 -1.418,-1.418 -1.137,-2.375 l 0.07,-0.203 1.547,-3.555 C 32.207,6.48 33.363,6 34.371,6.418 Z" style="fill:currentColor;fill-opacity:1;fill-rule:nonzero;stroke:none" transform="scale(1.3333333)" /> </g>
</svg>

