<?xml version="1.0" encoding="UTF-8" standalone="no"?> <svg version="1.1" id="I68879035cd5549aaa8077c183f1924ab20251106164749" width="100" height="100" viewBox="0 0 100 100" xmlns="http://www.w3.org/2000/svg" xmlns:svg="http://www.w3.org/2000/svg"> <defs id="If8309c816c80457ca505bfe612bf8e1b20251106164749" /> <g id="I8ebc3b38335f48c99e85f00412840d8820251106164749"> <path id="If942bc82fd774d759ea71e04b6c4f02220251106164749" d="m 22.5,56.25 v -37.5 c 0,-1.988 -0.789,-3.898 -2.195,-5.305 C 18.898,12.039 16.988,11.25 15,11.25 H 9.375 c -0.496,0 -0.973,0.199 -1.324,0.551 -0.352,0.351 -0.551,0.828 -0.551,1.324 0,0.496 0.199,0.973 0.551,1.324 C 8.402,14.801 8.879,15 9.375,15 H 15 c 0.996,0 1.949,0.395 2.652,1.098 0.703,0.703 1.098,1.656 1.098,2.652 v 7.5 H 9.375 c -0.496,0 -0.973,0.199 -1.324,0.551 -0.352,0.351 -0.551,0.828 -0.551,1.324 0,0.496 0.199,0.973 0.551,1.324 C 8.402,29.801 8.879,30 9.375,30 H 18.75 V 45 H 9.375 C 8.879,45 8.402,45.199 8.051,45.551 7.699,45.902 7.5,46.379 7.5,46.875 c 0,0.496 0.199,0.973 0.551,1.324 0.351,0.352 0.828,0.551 1.324,0.551 h 9.375 v 7.5 c 0,0.996 -0.395,1.949 -1.098,2.652 C 16.949,59.605 15.996,60 15,60 H 9.375 C 8.879,60 8.402,60.199 8.051,60.551 7.699,60.902 7.5,61.379 7.5,61.875 c 0,0.496 0.199,0.973 0.551,1.324 0.351,0.352 0.828,0.551 1.324,0.551 H 15 c 1.988,0 3.898,-0.789 5.305,-2.195 C 21.711,60.148 22.5,58.238 22.5,56.25 Z M 66.949,40.699 c -0.351,0.352 -0.828,0.551 -1.324,0.551 H 56.25 v 7.5 c 0,0.996 0.395,1.949 1.098,2.652 0.703,0.703 1.656,1.098 2.652,1.098 h 5.625 c 0.496,0 0.973,0.199 1.324,0.551 0.352,0.351 0.551,0.828 0.551,1.324 0,0.496 -0.199,0.973 -0.551,1.324 -0.351,0.352 -0.828,0.551 -1.324,0.551 H 60 c -1.988,0 -3.898,-0.789 -5.305,-2.195 C 53.289,52.648 52.5,50.738 52.5,48.75 V 30 c 0,-1.988 0.789,-3.898 2.195,-5.305 C 56.102,23.289 58.012,22.5 60,22.5 h 5.625 c 0.496,0 0.973,0.199 1.324,0.551 0.352,0.351 0.551,0.828 0.551,1.324 0,0.496 -0.199,0.973 -0.551,1.324 -0.351,0.352 -0.828,0.551 -1.324,0.551 H 60 c -0.996,0 -1.949,0.395 -2.652,1.098 C 56.645,28.051 56.25,29.004 56.25,30 v 7.5 h 9.375 c 0.496,0 0.973,0.199 1.324,0.551 0.352,0.351 0.551,0.828 0.551,1.324 0,0.496 -0.199,0.973 -0.551,1.324 z m -29.453,2.426 c 0,-0.496 0.199,-0.977 0.551,-1.328 l 2.426,-2.422 H 30 c -0.496,0 -0.973,-0.199 -1.324,-0.551 -0.352,-0.351 -0.551,-0.828 -0.551,-1.324 0,-0.496 0.199,-0.973 0.551,-1.324 0.351,-0.352 0.828,-0.551 1.324,-0.551 h 10.473 l -2.426,-2.422 c -0.352,-0.351 -0.551,-0.832 -0.551,-1.328 0,-0.496 0.199,-0.977 0.551,-1.328 0.351,-0.352 0.832,-0.551 1.328,-0.551 0.496,0 0.977,0.199 1.328,0.551 l 5.625,5.625 c 0.176,0.176 0.313,0.383 0.406,0.609 0.094,0.227 0.145,0.473 0.145,0.719 0,0.246 -0.051,0.492 -0.145,0.719 -0.093,0.226 -0.23,0.433 -0.406,0.609 l -5.625,5.625 c -0.351,0.352 -0.832,0.551 -1.328,0.551 -0.496,0 -0.977,-0.199 -1.328,-0.551 -0.352,-0.351 -0.551,-0.832 -0.551,-1.328 z" style="fill:currentColor;fill-opacity:1;fill-rule:nonzero;stroke:none" transform="scale(1.3333333)" /> </g>
</svg>

