<?xml version="1.0" encoding="UTF-8" standalone="no"?> <svg version="1.1" id="I0f80d7c62d2246d39aa9a917dd865f7d20251106170411" width="100" height="100" viewBox="0 0 100 100" xmlns="http://www.w3.org/2000/svg" xmlns:svg="http://www.w3.org/2000/svg"> <defs id="Idb16ff9cac094f31a539b889a1520fca20251106170411" /> <g id="I9af38d83432d4a45bfa94d233ad8572c20251106170411"> <path id="I5a5c912e6c87428a884dfd77e68f17e920251106170411" d="m 50.277,23.164 c -0.226,-0.293 -0.472,-0.57 -0.734,-0.832 -0.977,-0.98 -2.168,-1.719 -3.477,-2.156 l -4.304,-1.395 c -0.332,-0.117 -0.621,-0.336 -0.824,-0.621 -0.204,-0.289 -0.313,-0.633 -0.313,-0.984 0,-0.352 0.109,-0.696 0.313,-0.981 0.203,-0.289 0.492,-0.504 0.824,-0.621 l 4.304,-1.398 c 1.293,-0.446 2.465,-1.184 3.426,-2.16 0.934,-0.946 1.641,-2.09 2.07,-3.348 l 0.036,-0.106 1.398,-4.304 c 0.117,-0.332 0.336,-0.617 0.621,-0.82 0.289,-0.204 0.633,-0.313 0.985,-0.313 0.351,0 0.695,0.109 0.98,0.313 0.289,0.203 0.508,0.488 0.625,0.82 l 1.398,4.304 c 0.434,1.309 1.168,2.497 2.145,3.469 0.977,0.977 2.164,1.711 3.473,2.145 l 4.304,1.398 0.086,0.02 c 0.332,0.117 0.621,0.336 0.825,0.621 0.203,0.289 0.312,0.633 0.312,0.984 0,0.352 -0.109,0.696 -0.312,0.981 -0.204,0.289 -0.493,0.504 -0.825,0.621 l -4.304,1.398 c -1.309,0.434 -2.497,1.168 -3.473,2.145 -0.977,0.972 -1.711,2.16 -2.145,3.468 l -1.398,4.305 c -0.016,0.035 -0.027,0.071 -0.043,0.106 -0.125,0.285 -0.324,0.535 -0.578,0.715 -0.289,0.203 -0.633,0.312 -0.984,0.312 -0.352,0 -0.696,-0.109 -0.985,-0.312 -0.285,-0.204 -0.504,-0.489 -0.621,-0.821 L 51.684,25.812 C 51.367,24.855 50.891,23.957 50.277,23.164 Z M 74.32,35.043 71.93,34.266 C 71.203,34.023 70.543,33.613 70,33.074 69.457,32.531 69.051,31.871 68.809,31.145 l -0.778,-2.391 c -0.066,-0.184 -0.187,-0.344 -0.347,-0.457 -0.157,-0.109 -0.348,-0.172 -0.543,-0.172 -0.196,0 -0.387,0.063 -0.547,0.172 -0.16,0.113 -0.282,0.273 -0.344,0.457 l -0.777,2.391 c -0.239,0.722 -0.641,1.378 -1.172,1.921 -0.535,0.539 -1.184,0.95 -1.903,1.2 l -2.394,0.777 c -0.184,0.062 -0.344,0.184 -0.457,0.344 -0.109,0.16 -0.172,0.347 -0.172,0.543 0,0.195 0.063,0.386 0.172,0.547 0.113,0.16 0.273,0.281 0.457,0.343 l 2.394,0.778 c 0.727,0.242 1.391,0.652 1.93,1.195 0.543,0.547 0.949,1.207 1.192,1.937 l 0.777,2.391 c 0.066,0.184 0.183,0.344 0.344,0.457 0.16,0.11 0.351,0.172 0.547,0.172 0.195,0 0.386,-0.062 0.546,-0.172 0.161,-0.113 0.278,-0.273 0.344,-0.457 l 0.777,-2.391 c 0.243,-0.726 0.649,-1.386 1.192,-1.929 0.543,-0.539 1.203,-0.949 1.93,-1.192 l 2.394,-0.777 C 74.555,36.77 74.715,36.648 74.828,36.488 74.938,36.328 75,36.141 75,35.945 75,35.75 74.938,35.559 74.828,35.398 74.715,35.238 74.555,35.117 74.371,35.055 Z M 34.328,6.676 c 4.027,-1.457 8.254,0.988 9.219,4.914 l -2.766,0.906 c -1.625,0.582 -2.812,1.93 -3.168,3.566 l -14.258,5.157 c -4.64,1.679 -7.73,6.086 -7.73,11.019 V 49.594 C 11.055,51.211 6.25,47.824 6.25,42.965 V 23.961 c 0,-4.277 2.68,-8.094 6.699,-9.551 z M 24.418,24.16 38,19.246 c 0.539,1.149 1.477,2.129 2.625,2.625 L 45,23.309 c 1.387,0.472 2.727,1.437 3.43,2.738 l -13.606,4.922 c -4.019,1.453 -6.699,5.273 -6.699,9.551 V 58.969 C 23.555,60.586 18.75,57.199 18.75,52.34 V 32.238 c 0,-3.617 2.266,-6.847 5.668,-8.078 z m 42.644,22.871 c 0.661,0 1.215,-0.129 1.688,-0.355 v 6.558 c 0,2.961 -1.855,5.606 -4.641,6.614 l -23.437,8.48 C 36.09,69.988 31.25,66.59 31.25,61.715 V 40.52 c 0,-2.961 1.855,-5.606 4.641,-6.614 L 49.371,29.027 50,31.246 c 0.664,1.945 2.504,3.277 4.562,3.281 0.739,0.012 1.469,-0.16 2.126,-0.5 -0.372,0.625 -0.567,1.336 -0.563,2.063 -0.016,1.687 1.133,3.277 2.719,3.844 0.23,0.074 0.488,0.14 0.761,0.207 1.125,0.285 2.469,0.625 2.833,1.73 l 0.042,0.145 c 0.739,2.336 1.582,5.015 4.582,5.015 z" style="fill:currentColor;fill-opacity:1;fill-rule:nonzero;stroke:none" transform="scale(1.3333333)" /> </g>
</svg>

