<?xml version="1.0" encoding="UTF-8" standalone="no"?> <svg version="1.1" id="I6e278dc375a5409697be4652dba9ce8d20251106170412" width="100" height="100" viewBox="0 0 100 100" xmlns="http://www.w3.org/2000/svg" xmlns:svg="http://www.w3.org/2000/svg"> <defs id="I9d17afae6887413899a763805f9f21e720251106170412" /> <g id="I58f1e90f79ad4b458d60aaa6e61205e120251106170412"> <path id="I1592eadaf95d458ca680af727c53d44020251106170412" d="m 18.082,8.035 c -5.551,0 -10.047,4.496 -10.047,10.047 v 38.836 c 0,5.551 4.496,10.047 10.047,10.047 h 38.836 c 5.551,0 10.047,-4.496 10.047,-10.047 V 18.082 c 0,-5.551 -4.496,-10.047 -10.047,-10.047 z m -6.027,10.047 c 0,-3.332 2.695,-6.027 6.027,-6.027 h 38.836 c 3.328,0 6.027,2.695 6.027,6.027 v 17.41 h -50.89 z m 0,21.426 h 50.89 v 17.41 c 0,3.328 -2.699,6.027 -6.027,6.027 H 18.082 c -3.332,0 -6.027,-2.699 -6.027,-6.027 z" style="fill:currentColor;fill-opacity:1;fill-rule:nonzero;stroke:none" transform="scale(1.3333333)" /> </g>
</svg>

