<?xml version="1.0" encoding="UTF-8" standalone="no"?> <svg version="1.1" id="Ib2b7e3b8296a461892ed67f11bc0b84720251106171633" width="100" height="100" viewBox="0 0 100 100" xmlns="http://www.w3.org/2000/svg" xmlns:svg="http://www.w3.org/2000/svg"> <defs id="I2d6c13282e5c4645b418644c97650f5720251106171633" /> <g id="Ibeccd0157d11421698d26ccaa1b5b30820251106171633"> <path id="Icbeed620b4e141608023f9bfc8f4fc3120251106171633" d="m 28.125,4.688 c -1.293,0 -2.344,1.05 -2.344,2.343 v 2.344 h -4.687 c -1.293,0 -2.344,1.051 -2.344,2.344 v 28.125 c 0,1.293 1.051,2.344 2.344,2.344 h 2.344 v 2.343 c 0,3.883 3.148,7.031 7.031,7.031 3.883,0 7.031,-3.148 7.031,-7.031 v -2.343 h 2.344 c 1.293,0 2.344,-1.051 2.344,-2.344 V 21.125 c 11.753,0.609 21.093,10.332 21.093,22.234 0,12.297 -9.969,22.266 -22.265,22.266 H 9.375 c -1.293,0 -2.344,1.051 -2.344,2.344 0,1.293 1.051,2.343 2.344,2.343 h 56.25 c 1.293,0 2.344,-1.05 2.344,-2.343 0,-1.293 -1.051,-2.344 -2.344,-2.344 H 56.211 C 63.309,60.77 67.969,52.609 67.969,43.359 67.969,28.867 56.531,17.043 42.188,16.43 v -4.711 c 0,-1.293 -1.051,-2.344 -2.344,-2.344 H 35.156 V 7.031 c 0,-1.293 -1.051,-2.343 -2.344,-2.343 z m 4.687,37.5 v 2.343 c 0,1.293 -1.05,2.344 -2.343,2.344 -1.293,0 -2.344,-1.051 -2.344,-2.344 V 42.188 Z M 37.5,37.5 H 23.438 V 14.062 H 37.5 Z M 18.75,56.25 c -1.293,0 -2.344,1.051 -2.344,2.344 0,1.293 1.051,2.344 2.344,2.344 h 23.438 c 1.292,0 2.343,-1.051 2.343,-2.344 0,-1.293 -1.051,-2.344 -2.343,-2.344 z" style="fill:currentColor;fill-opacity:1;fill-rule:nonzero;stroke:none" transform="scale(1.3333333)" /> </g>
</svg>

