<?xml version="1.0" encoding="UTF-8" standalone="no"?> <svg version="1.1" id="Ic49df69a0a9a4d59bdf090b952ef8f9420251106155157" width="100" height="100" viewBox="0 0 100 100" xmlns="http://www.w3.org/2000/svg" xmlns:svg="http://www.w3.org/2000/svg"> <defs id="I498d8dc1cfab408687d66ebefe636f5c20251106155157" /> <g id="I92c4fec24ba548bdaf45db79a08e04f220251106155157"> <path id="Ib7d9217255504b909056672fa2e3bc7120251106155157" d="m 39.844,4.688 v 16.406 c 0,3.883 3.148,7.031 7.031,7.031 h 16.406 v 35.156 c 0,3.883 -3.148,7.031 -7.031,7.031 H 39.805 c 2.136,-1.347 3.554,-3.73 3.554,-6.445 V 52.148 c 0,-3.836 -2.461,-7.101 -5.886,-8.296 -0.348,-4.215 -3.875,-7.524 -8.176,-7.524 H 15.234 c -1.257,0 -2.449,0.281 -3.515,0.789 V 11.719 c 0,-3.883 3.148,-7.031 7.031,-7.031 z m 4.687,0.273 v 16.133 c 0,1.293 1.051,2.344 2.344,2.344 H 63.008 C 62.684,22.301 62.07,21.258 61.223,20.406 L 47.562,6.746 C 46.711,5.898 45.668,5.285 44.531,4.961 Z M 15.234,39.844 c -2.589,0 -4.687,2.097 -4.687,4.687 v 2.344 H 9.961 c -2.914,0 -5.273,2.359 -5.273,5.273 v 11.719 c 0,2.266 1.835,4.102 4.101,4.102 h 1.758 c 0,2.59 2.098,4.687 4.687,4.687 h 14.063 c 2.59,0 4.687,-2.097 4.687,-4.687 h 1.758 c 2.266,0 4.102,-1.836 4.102,-4.102 V 52.148 c 0,-2.914 -2.36,-5.273 -5.274,-5.273 h -0.586 v -2.344 c 0,-2.59 -2.097,-4.687 -4.687,-4.687 z m -1.172,7.031 v -2.344 c 0,-0.648 0.524,-1.172 1.172,-1.172 h 14.063 c 0.648,0 1.172,0.524 1.172,1.172 v 2.344 z m 0,15.234 c 0,-0.648 0.524,-1.171 1.172,-1.171 h 14.063 c 0.648,0 1.172,0.523 1.172,1.171 v 5.86 c 0,0.648 -0.524,1.172 -1.172,1.172 H 15.234 c -0.648,0 -1.172,-0.524 -1.172,-1.172 z" style="fill:currentColor;fill-opacity:1;fill-rule:nonzero;stroke:none" transform="scale(1.3333333)" /> </g>
</svg>

