<?xml version="1.0" encoding="UTF-8" standalone="no"?> <svg version="1.1" id="I5a77944302364217af40289f2a2de38520251105122542" width="100" height="100" viewBox="0 0 100 100" xmlns="http://www.w3.org/2000/svg" xmlns:svg="http://www.w3.org/2000/svg"> <defs id="I28e5ef5c093440d59392a86fc5245a6920251105122542" /> <g id="Ief13dd55d45e4b22b91d6cb00d9d7e6420251105122542"> <path id="I93db1372ffe3453798db707970946f5b20251105122542" d="m 32.812,25.781 c -6.472,0 -11.718,5.246 -11.718,11.719 0,6.473 5.246,11.719 11.718,11.719 3.34,0 6.348,-1.391 8.485,-3.633 1.34,-1.406 3.566,-1.457 4.973,-0.117 1.402,1.34 1.457,3.562 0.117,4.969 -3.41,3.578 -8.235,5.812 -13.575,5.812 -10.355,0 -18.75,-8.395 -18.75,-18.75 0,-10.355 8.395,-18.75 18.75,-18.75 5.317,0 10.122,2.219 13.532,5.77 1.344,1.398 1.297,3.625 -0.102,4.968 -1.402,1.348 -3.629,1.301 -4.972,-0.101 -2.137,-2.227 -5.133,-3.606 -8.458,-3.606 z" style="fill:currentColor;fill-opacity:1;fill-rule:nonzero;stroke:none" transform="scale(1.3333333)" /> <path id="I4312701d14174ed18383e5b7b943bdeb20251105122542" d="m 30.875,0.48 c 1.094,-0.64 2.445,-0.64 3.543,0 l 22.098,12.891 c 1.675,0.977 2.242,3.129 1.265,4.805 -0.98,1.679 -3.133,2.246 -4.808,1.265 L 32.645,7.586 7.031,22.527 V 52.473 L 32.645,67.414 52.973,55.559 c 1.675,-0.981 3.828,-0.414 4.808,1.265 0.977,1.676 0.41,3.828 -1.265,4.805 L 34.418,74.52 c -1.098,0.64 -2.449,0.64 -3.543,0 L 1.746,57.527 C 0.664,56.898 0,55.742 0,54.492 V 20.508 c 0,-1.25 0.664,-2.406 1.746,-3.035 z" style="fill:currentColor;fill-opacity:1;fill-rule:nonzero;stroke:none" transform="scale(1.3333333)" /> <path id="Ic02faa7167d341f484d1944c3ba6787c20251105122542" d="m 57.094,24.609 c 1.293,0 2.344,1.051 2.344,2.344 v 21.094 c 0,1.293 -1.051,2.344 -2.344,2.344 -1.293,0 -2.344,-1.051 -2.344,-2.344 V 26.953 c 0,-1.293 1.051,-2.344 2.344,-2.344 z" style="fill:currentColor;fill-opacity:1;fill-rule:nonzero;stroke:none" transform="scale(1.3333333)" /> <path id="I39764507704648a997fa9fec70a8605320251105122542" d="m 67.125,24.609 c 1.293,0 2.344,1.051 2.344,2.344 v 21.094 c 0,1.293 -1.051,2.344 -2.344,2.344 -1.293,0 -2.344,-1.051 -2.344,-2.344 V 26.953 c 0,-1.293 1.051,-2.344 2.344,-2.344 z" style="fill:currentColor;fill-opacity:1;fill-rule:nonzero;stroke:none" transform="scale(1.3333333)" /> <path id="If48bc5902cee4ebe9c7f45e05dd11ce020251105122542" d="m 49.219,32.484 c 0,-1.293 1.051,-2.343 2.343,-2.343 h 21.094 c 1.293,0 2.344,1.05 2.344,2.343 0,1.293 -1.051,2.344 -2.344,2.344 H 51.562 c -1.292,0 -2.343,-1.051 -2.343,-2.344 z" style="fill:currentColor;fill-opacity:1;fill-rule:nonzero;stroke:none" transform="scale(1.3333333)" /> <path id="Iebc12fd422304009a65828e227fe486120251105122542" d="m 49.219,42.516 c 0,-1.293 1.051,-2.344 2.343,-2.344 h 21.094 c 1.293,0 2.344,1.051 2.344,2.344 0,1.293 -1.051,2.343 -2.344,2.343 H 51.562 c -1.292,0 -2.343,-1.05 -2.343,-2.343 z" style="fill:currentColor;fill-opacity:1;fill-rule:nonzero;stroke:none" transform="scale(1.3333333)" /> </g>
</svg>

