<?xml version="1.0" encoding="UTF-8" standalone="no"?> <svg version="1.1" id="I732d06b20a2c4cba8794e11a4b203ee120251110124420" width="100" height="100" viewBox="0 0 100 100" xmlns="http://www.w3.org/2000/svg" xmlns:svg="http://www.w3.org/2000/svg"> <defs id="Id14c4779371b41f79853eb359051fea620251110124420" /> <g id="I928957a9b2b248249f28d6688da51cdf20251110124420"> <path id="I49b5a5683ff74127b620425ca7f7534420251110124420" d="m 55.574,6.27 c 3.883,0 6.926,3.128 6.926,7.011 v 12.485 c -0.996,-1.836 -2.559,-3.5 -4.688,-4.989 v -7.476 c 0,-1.293 -0.945,-2.344 -2.238,-2.344 H 19.555 c -1.297,0 -2.344,1.051 -2.344,2.344 l -0.023,48.441 c 0,1.293 1.07,2.328 2.367,2.32 h 4.238 c 2.352,0.008 4.746,0.024 7.434,0.016 l 4.343,-0.019 c 0.504,0 0.801,0.007 1.282,0.007 l 4.75,-0.007 c 1.691,0.824 3.351,1.218 3.71,1.351 -0.062,1.512 0.122,2.625 0.543,3.34 h -11.21 l -4.969,0.023 c -3.621,0 -6.77,-0.023 -10.121,-0.023 -3.883,0 -7.055,-3.125 -7.055,-7.008 l 0.023,-48.441 c 0,-3.883 3.149,-7.031 7.032,-7.031 z m 10.832,34.355 c 1.188,0 2.168,0.883 2.324,2.027 l 0.02,0.317 v 2.343 c 0,9.129 -6.809,16.407 -15.625,17.512 v 3.582 c 0,1.297 -1.051,2.344 -2.344,2.344 -1.187,0 -2.168,-0.883 -2.324,-2.023 L 48.438,66.406 V 62.824 C 39.859,61.75 33.184,54.832 32.828,46.051 l -0.016,-0.739 v -2.343 c 0,-1.293 1.051,-2.344 2.344,-2.344 1.188,0 2.168,0.883 2.324,2.027 l 0.02,0.317 v 2.343 c 0,7.336 5.945,12.969 13.281,12.969 7.114,0 12.918,-5.297 13.266,-12.304 l 0.015,-0.665 v -2.343 c 0,-1.293 1.051,-2.344 2.344,-2.344 z M 50.781,21.875 c 5.61,0 10.157,4.547 10.157,10.156 v 12.5 c 0,5.61 -4.547,10.157 -10.157,10.157 -5.609,0 -10.156,-4.547 -10.156,-10.157 v -12.5 c 0,-5.609 4.547,-10.156 10.156,-10.156 z m 0,4.687 c -3.019,0 -5.469,2.45 -5.469,5.469 v 12.5 c 0,3.02 2.45,5.469 5.469,5.469 3.02,0 5.469,-2.449 5.469,-5.469 v -12.5 c 0,-3.019 -2.449,-5.469 -5.469,-5.469 z M 30.203,40.625 c -0.113,0.113 -0.234,0.375 -0.359,0.781 -0.102,0.328 -0.153,0.793 -0.16,1.399 v 2.507 h -3.903 c -1.293,0 -2.343,-1.046 -2.343,-2.343 0,-1.188 0.882,-2.168 2.027,-2.321 l 0.316,-0.023 z M 25.781,31.25 h 11.731 l -0.024,4.688 H 25.781 c -1.293,0 -2.343,-1.047 -2.343,-2.344 0,-1.188 0.882,-2.168 2.027,-2.321 z m 16.407,-9.375 c -0.965,0.824 -1.645,1.504 -2.032,2.031 -0.277,0.379 -0.621,0.938 -1.035,1.68 l -0.527,0.976 H 25.781 c -1.293,0 -2.343,-1.046 -2.343,-2.343 0,-1.188 0.882,-2.168 2.027,-2.321 l 0.316,-0.023 z" style="fill:currentColor;fill-opacity:1;fill-rule:nonzero;stroke:none" transform="scale(1.3333333)" /> </g>
</svg>

