<?xml version="1.0" encoding="UTF-8" standalone="no"?> <svg version="1.1" id="Ibb72ea5ff9d64bdda4c2625a06685ec020251106164749" width="100" height="100" viewBox="0 0 100 100" xmlns="http://www.w3.org/2000/svg" xmlns:svg="http://www.w3.org/2000/svg"> <defs id="I060faf14f9b544ea8e5501f0a826de1420251106164749" /> <g id="I540adc19e05b4797b5a4ffcabf67251e20251106164749"> <path id="I5d3ac793701b4ec7a4b5d1219c19ee7120251106164749" d="m 24.375,20.625 c -1.035,0 -1.875,0.84 -1.875,1.875 0,1.035 0.84,1.875 1.875,1.875 h 11.25 c 1.035,0 1.875,-0.84 1.875,-1.875 0,-1.035 -0.84,-1.875 -1.875,-1.875 z M 22.5,30 c 0,-1.035 0.84,-1.875 1.875,-1.875 h 7.5 c 1.035,0 1.875,0.84 1.875,1.875 0,1.035 -0.84,1.875 -1.875,1.875 h -7.5 C 23.34,31.875 22.5,31.035 22.5,30 Z M 7.5,26.25 C 7.5,13.824 17.574,3.75 30,3.75 c 12.426,0 22.5,10.074 22.5,22.5 0,3.02 -0.594,5.898 -1.672,8.531 -0.183,0.094 -0.359,0.192 -0.535,0.297 l -0.469,0.281 c -0.293,0.172 -0.625,0.266 -0.965,0.266 H 46.242 C 47.836,32.867 48.75,29.664 48.75,26.25 48.75,15.895 40.355,7.5 30,7.5 c -10.355,0 -18.75,8.395 -18.75,18.75 0,3.5 0.957,6.77 2.621,9.57 0.266,0.442 0.332,0.977 0.191,1.473 l -1.906,6.68 6.215,-2.075 c 0.535,-0.175 1.121,-0.105 1.598,0.196 1.324,0.84 2.761,1.519 4.285,2.008 l -1.621,3.414 C 21.27,47.043 19.965,46.445 18.734,45.73 L 9.969,48.652 C 9.309,48.875 8.582,48.711 8.078,48.23 7.574,47.75 7.383,47.027 7.57,46.359 L 10.242,37.02 C 8.492,33.82 7.5,30.148 7.5,26.25 Z m 42.188,23.438 c 0,1.554 -1.258,2.812 -2.813,2.812 -1.555,0 -2.813,-1.258 -2.813,-2.812 0,-1.555 1.258,-2.813 2.813,-2.813 1.555,0 2.813,1.258 2.813,2.813 z m 2.531,-11.395 c 1.156,-0.691 2.519,-0.945 3.847,-0.719 l 2.899,0.5 c 2.402,0.414 4.457,1.973 5.504,4.176 l 4.496,9.477 c 2.101,4.461 2.578,8.195 2.133,11.257 -0.45,3.055 -1.793,5.282 -3.075,6.762 -1.023,1.184 -2.437,1.637 -3.789,1.488 -1.308,-0.14 -2.523,-0.832 -3.382,-1.851 L 57.785,65.746 C 56.715,64.48 55.141,63.75 53.484,63.75 H 40.266 c -1.657,0 -3.231,0.73 -4.301,1.996 l -3.067,3.637 c -0.859,1.019 -2.074,1.711 -3.382,1.851 -1.352,0.149 -2.766,-0.304 -3.789,-1.488 -1.282,-1.48 -2.625,-3.707 -3.075,-6.762 -0.445,-3.062 0.032,-6.796 2.133,-11.257 l 4.496,-9.477 c 1.047,-2.203 3.102,-3.762 5.504,-4.176 l 2.899,-0.5 c 1.328,-0.226 2.691,0.028 3.847,0.719 L 42,38.574 c 0.871,0.524 1.871,0.801 2.891,0.801 h 3.968 c 1.02,0 2.02,-0.277 2.891,-0.801 z m 3.211,2.977 c -0.442,-0.075 -0.899,0.011 -1.282,0.242 l -0.468,0.281 c -1.457,0.871 -3.121,1.332 -4.821,1.332 h -3.968 c -1.7,0 -3.364,-0.461 -4.821,-1.332 L 39.602,41.512 C 39.219,41.281 38.762,41.195 38.32,41.27 l -2.898,0.5 c -1.203,0.207 -2.227,0.988 -2.75,2.089 l -4.492,9.469 c -1.848,3.91 -2.137,6.902 -1.817,9.113 0.325,2.211 1.289,3.797 2.203,4.856 0.153,0.176 0.321,0.234 0.543,0.211 0.27,-0.028 0.629,-0.192 0.926,-0.543 l 3.063,-3.637 C 34.879,61.219 37.504,60 40.266,60 h 13.218 c 2.762,0 5.387,1.219 7.168,3.328 l 3.063,3.637 c 0.297,0.351 0.656,0.515 0.926,0.543 0.226,0.023 0.39,-0.035 0.543,-0.211 0.914,-1.059 1.878,-2.645 2.203,-4.856 0.32,-2.211 0.031,-5.199 -1.813,-9.109 l -4.496,-9.473 c -0.523,-1.101 -1.547,-1.882 -2.75,-2.089 z" style="fill:currentColor;fill-opacity:1;fill-rule:nonzero;stroke:none" transform="scale(1.3333333)" /> </g>
</svg>

