<?xml version="1.0" encoding="UTF-8" standalone="no"?> <svg version="1.1" id="If1c4afbc994842a2a2f6ae0a3b57e30c20251106151526" width="100" height="100" viewBox="0 0 100 100" xmlns="http://www.w3.org/2000/svg" xmlns:svg="http://www.w3.org/2000/svg"> <defs id="I6a1fae9c8d26461097fe628972692ed320251106151526" /> <g id="Iffaed2ed58f74472aa13328ea15e666020251106151526"> <path id="I9408643579f04f85bd6527f7f5e9ee7a20251106151526" d="m 26.004,14.73 h -5.246 c -1.848,0 -3.348,1.5 -3.348,3.352 v 44.195 c 0,1.848 1.5,3.348 3.348,3.348 h 16.336 c -0.735,0.441 -1.36,1.09 -1.774,1.914 -0.34,0.676 -0.5,1.395 -0.5,2.106 H 20.758 c -4.067,0 -7.363,-3.301 -7.363,-7.368 V 18.082 c 0,-4.07 3.296,-7.367 7.363,-7.367 h 4.824 c 0.617,-3.059 3.32,-5.36 6.563,-5.36 h 10.71 c 3.243,0 5.946,2.301 6.563,5.36 h 4.824 c 4.067,0 7.363,3.297 7.363,7.367 v 21.805 c -0.101,-1.61 -1.031,-3.121 -2.574,-3.895 L 58.848,35.898 C 58.434,35.691 58.012,35.516 57.59,35.367 V 18.082 c 0,-1.852 -1.5,-3.352 -3.348,-3.352 h -5.246 c -1.031,2.368 -3.394,4.02 -6.141,4.02 h -10.71 c -2.747,0 -5.11,-1.652 -6.141,-4.02 z m 3.461,-2.675 c 0,1.476 1.199,2.675 2.68,2.675 h 10.71 c 1.481,0 2.68,-1.199 2.68,-2.675 0,-1.481 -1.199,-2.68 -2.68,-2.68 h -10.71 c -1.481,0 -2.68,1.199 -2.68,2.68 z m 29.64,42.164 c -1.289,-2.071 -4.062,-2.617 -6.039,-1.192 -0.898,0.649 -1.105,1.907 -0.453,2.805 0.649,0.898 1.903,1.106 2.801,0.453 0.094,-0.062 0.219,-0.039 0.277,0.055 l 2.68,4.308 -5.551,5.551 c -0.785,0.785 -0.785,2.055 0,2.84 0.785,0.785 2.059,0.785 2.84,0 l 4.891,-4.887 2.183,3.512 c 1.309,2.102 4.145,2.621 6.11,1.117 0.883,-0.676 1.051,-1.937 0.379,-2.816 -0.676,-0.883 -1.938,-1.051 -2.817,-0.379 -0.086,0.066 -0.203,0.043 -0.258,-0.047 l -2.679,-4.305 5.57,-5.574 c 0.785,-0.781 0.785,-2.055 0,-2.84 -0.785,-0.785 -2.055,-0.785 -2.84,0 l -4.91,4.91 z M 46.996,44.328 c 0.391,-5.23 5.965,-8.387 10.649,-6.035 l 0.183,0.094 c 0.992,0.496 1.395,1.703 0.895,2.695 -0.496,0.992 -1.703,1.391 -2.696,0.895 L 55.844,41.883 C 53.711,40.816 51.18,42.25 51,44.625 l -0.066,0.91 h 3.308 c 1.11,0 2.008,0.899 2.008,2.008 0,1.109 -0.898,2.012 -2.008,2.012 h -3.609 l -1.192,15.941 c -0.39,5.231 -5.964,8.387 -10.648,6.035 l -0.184,-0.093 c -0.992,-0.497 -1.394,-1.704 -0.894,-2.696 0.496,-0.992 1.703,-1.39 2.695,-0.894 l 0.184,0.093 c 2.133,1.067 4.664,-0.367 4.844,-2.746 l 1.167,-15.64 h -3.078 c -1.109,0 -2.007,-0.903 -2.007,-2.012 0,-1.109 0.898,-2.008 2.007,-2.008 h 3.379 z" style="fill:currentColor;fill-opacity:1;fill-rule:nonzero;stroke:none" transform="scale(1.3333333)" /> </g>
</svg>

