<?xml version="1.0" encoding="UTF-8" standalone="no"?> <svg version="1.1" id="I56f4232f32134a1ba643f9833c1d6c1120251106171633" width="100" height="100" viewBox="0 0 100 100" xmlns="http://www.w3.org/2000/svg" xmlns:svg="http://www.w3.org/2000/svg"> <defs id="I09e34da300ee41fd9c2e901538b7894620251106171633"> <linearGradient x1="18.5" y1="0.50113899" x2="27.0522" y2="20.789101" gradientUnits="userSpaceOnUse" gradientTransform="scale(3.125)" spreadMethod="pad" id="Ifaaf7217218d452a8e68f291202202ae20251106171633"> <stop style="stop-opacity:1;stop-color:#d373fc" offset="0" id="Iee68751bc9fb4f60bf2f3afd90668a9720251106171633" /> <stop style="stop-opacity:1;stop-color:#2052cb" offset="1" id="I5a0a30ab94974b9389b695b80d1abeb720251106171633" /> </linearGradient> <linearGradient x1="2.12515" y1="2" x2="1.00599" y2="24.3815" gradientUnits="userSpaceOnUse" gradientTransform="scale(3.125)" spreadMethod="pad" id="Ie45689481b664bb497d9869f8e47b19d20251106171633"> <stop style="stop-opacity:1;stop-color:#e587f2" offset="0" id="Ic768e726b3d04dcc852014f9a39bfbac20251106171633" /> <stop style="stop-opacity:1;stop-color:#816cde" offset="1" id="Ic5c12348e678411592d2acb4fa80d9aa20251106171633" /> </linearGradient> <radialGradient fx="0" fy="0" cx="0" cy="0" r="1" gradientUnits="userSpaceOnUse" gradientTransform="matrix(18.064888,69.247125,-306.38951,79.929559,33.982813,2.34375)" spreadMethod="pad" id="Ibed614df9fe24e65aa3086e068b68e2a20251106171633"> <stop style="stop-opacity:0;stop-color:#dd3ce2" offset="0" id="Id0fa104c6607458d9dcbfcb5abdce74820251106171633" /> <stop style="stop-opacity:0;stop-color:#dd3ce2" offset="0.5" id="If8a323185010414c90cf6a40f2ef7e5120251106171633" /> <stop style="stop-opacity:0.50000763;stop-color:#dd3ce2" offset="1" id="I2ab6753026e74690ad181da02bf1c15e20251106171633" /> </radialGradient> <linearGradient x1="8.6872797" y1="5" x2="17.133801" y2="10.1278" gradientUnits="userSpaceOnUse" gradientTransform="scale(3.125)" spreadMethod="pad" id="Ieac21ac623d0459aa0904944a4dd918920251106171633"> <stop style="stop-opacity:1;stop-color:#fdd3ff" offset="0" id="Ieb1e62582b28460fb2f4bb6a8effe7b720251106171633" /> <stop style="stop-opacity:1;stop-color:#f3d8ff" offset="1" id="Ie51e7771aa50441a81a3630f102ac8e720251106171633" /> </linearGradient> </defs> <g id="I2a8f1f867fc7404cbc86930c71d9d59c20251106171633"> <path id="I0bd27cbe6b624c70b8c483e46e4f832720251106171633" d="m 57.812,46.875 h 5.469 c 1.188,0 2.168,0.883 2.324,2.027 l 0.02,0.317 v 4.679 c 0,1.188 -0.883,2.168 -2.027,2.325 l -0.317,0.019 h -5.469 v -9.367 h 5.469 z m 0,-12.5 h 5.469 c 1.188,0 2.168,0.883 2.324,2.027 l 0.02,0.317 v 4.679 c 0,1.188 -0.883,2.168 -2.027,2.325 l -0.317,0.019 h -5.469 v -9.367 h 5.469 z m 0,-12.5 h 5.469 c 1.188,0 2.168,0.883 2.324,2.027 l 0.02,0.317 v 4.679 c 0,1.188 -0.883,2.168 -2.027,2.325 l -0.317,0.019 h -5.469 v -9.367 h 5.469 z" transform="scale(1.3333333)" style="fill:url(#Ifaaf7217218d452a8e68f291202202ae20251106171633);stroke:none" /> <path id="Ib8a53ffbf455467f9341b6fe673d723f20251106171633" d="m 52.34,6.25 c 3.883,0 7.031,3.148 7.031,7.031 v 48.438 c 0,3.883 -3.148,7.031 -7.031,7.031 H 19.531 C 15.648,68.75 12.5,65.602 12.5,61.719 V 13.281 c 0,-3.883 3.148,-7.031 7.031,-7.031 z" transform="scale(1.3333333)" style="fill:url(#Ie45689481b664bb497d9869f8e47b19d20251106171633);stroke:none" /> <path d="m 52.34,6.25 c 3.883,0 7.031,3.148 7.031,7.031 v 48.438 c 0,3.883 -3.148,7.031 -7.031,7.031 H 19.531 C 15.648,68.75 12.5,65.602 12.5,61.719 V 13.281 c 0,-3.883 3.148,-7.031 7.031,-7.031 z" transform="scale(1.3333333)" style="fill:url(#Ibed614df9fe24e65aa3086e068b68e2a20251106171633);stroke:none" opacity="1" id="Iee2e1ef0fc6445bbae8653b9128fe74b20251106171633" /> <path id="I54b673cda2d94e2b82db30760cfbb29020251106171633" d="m 47.652,15.625 c 1.293,0 2.344,1.051 2.344,2.344 v 7.808 c 0,1.293 -1.051,2.344 -2.344,2.344 H 24.219 c -1.293,0 -2.344,-1.051 -2.344,-2.344 v -7.808 c 0,-1.293 1.051,-2.344 2.344,-2.344 z" transform="scale(1.3333333)" style="fill:url(#Ieac21ac623d0459aa0904944a4dd918920251106171633);stroke:none" /> </g>
</svg>

