<?xml version="1.0" encoding="UTF-8" standalone="no"?> <svg version="1.1" id="I4721ef0bd9a84a02a4e5edacc028cdbc20251110133655" width="100" height="100" viewBox="0 0 100 100" xmlns="http://www.w3.org/2000/svg" xmlns:svg="http://www.w3.org/2000/svg"> <defs id="I09db48f240724e8c83008bed872b2c0b20251110133655" /> <g id="Id5b22b90d27b46feb8d033e60aa678c620251110133655"> <path id="I528d0edfaa3b45d8afe747a2063a81a520251110133655" d="m 48.75,30 c 2.785,0 5.215,1.516 6.508,3.77 4.64,0.195 8.887,1.925 12.242,4.695 V 22.5 C 67.5,18.359 64.141,15 60,15 H 15 c -4.141,0 -7.5,3.359 -7.5,7.5 v 30 c 0,4.141 3.359,7.5 7.5,7.5 H 34.527 C 34.02,58.211 33.75,56.324 33.75,54.375 c 0,-6.43 2.941,-12.176 7.555,-15.957 C 41.27,38.117 41.25,37.812 41.25,37.5 c 0,-1.367 0.367,-2.648 1.004,-3.75 h -9.508 c 0.641,1.102 1.004,2.383 1.004,3.75 0,4.141 -3.359,7.5 -7.5,7.5 -4.141,0 -7.5,-3.359 -7.5,-7.5 0,-4.141 3.359,-7.5 7.5,-7.5 z M 22.5,37.5 c 0,-2.07 1.68,-3.75 3.75,-3.75 2.07,0 3.75,1.68 3.75,3.75 0,2.07 -1.68,3.75 -3.75,3.75 -2.07,0 -3.75,-1.68 -3.75,-3.75 z m 48.75,16.875 c 0,9.32 -7.555,16.875 -16.875,16.875 -9.32,0 -16.875,-7.555 -16.875,-16.875 0,-9.32 7.555,-16.875 16.875,-16.875 9.32,0 16.875,7.555 16.875,16.875 z m -26.25,0 c 0,1.035 0.84,1.875 1.875,1.875 h 15 c 1.035,0 1.875,-0.84 1.875,-1.875 0,-1.035 -0.84,-1.875 -1.875,-1.875 h -15 C 45.84,52.5 45,53.34 45,54.375 Z" style="fill:currentColor;fill-opacity:1;fill-rule:nonzero;stroke:none" transform="scale(1.3333333)" /> </g>
</svg>

