<?xml version="1.0" encoding="UTF-8" standalone="no"?> <svg version="1.1" id="If76a7d8877fa4a76a9c6176bff62d79920251106105802" width="100" height="100" viewBox="0 0 100 100" xmlns="http://www.w3.org/2000/svg" xmlns:svg="http://www.w3.org/2000/svg"> <defs id="If35b8764c105432380a894785fa9e18f20251106105802" /> <g id="I40b35d8c28f34d04b0022efe219498d920251106105802"> <path id="Iea492ea70c9f43cfb5bf6365643d705c20251106105802" d="M 68.305,4.02 H 6.695 C 5.215,4.02 4.02,5.215 4.02,6.695 v 61.61 c 0,1.48 1.195,2.675 2.675,2.675 h 61.61 c 1.48,0 2.675,-1.195 2.675,-2.675 V 6.695 C 70.98,5.215 69.785,4.02 68.305,4.02 Z M 64.957,64.957 H 10.043 V 10.043 H 64.957 Z M 20.156,38.504 h 4.242 c 0.313,0 0.571,-0.25 0.571,-0.57 v -6.602 c 0,-1.648 1.332,-2.98 2.972,-2.98 H 45.16 v 4.468 c 0,0.477 0.543,0.739 0.91,0.446 l 9.133,-7.176 c 0.293,-0.227 0.293,-0.668 0,-0.895 L 46.07,18.023 c -0.367,-0.293 -0.91,-0.027 -0.91,0.442 v 4.469 H 27.934 c -4.614,0 -8.348,3.75 -8.348,8.378 v 6.606 c 0,0.336 0.254,0.586 0.57,0.586 z m -0.351,11.293 9.133,7.172 c 0.367,0.293 0.91,0.027 0.91,-0.442 v -4.472 h 17.218 c 4.614,0 8.348,-3.75 8.348,-8.379 v -6.602 c 0,-0.312 -0.254,-0.57 -0.57,-0.57 h -4.242 c -0.313,0 -0.571,0.25 -0.571,0.57 v 6.602 c 0,1.652 -1.332,2.98 -2.972,2.98 H 29.848 v -4.468 c 0,-0.477 -0.543,-0.739 -0.91,-0.446 l -9.133,7.176 c -0.293,0.207 -0.293,0.652 0,0.879 z" style="fill:currentColor;fill-opacity:1;fill-rule:nonzero;stroke:none" transform="scale(1.3333333)" /> </g>
</svg>

