<?xml version="1.0" encoding="UTF-8" standalone="no"?> <svg version="1.1" id="Iedb762a446cb40fc82f273e8dd4acdad20251110124421" width="100" height="100" viewBox="0 0 100 100" xmlns="http://www.w3.org/2000/svg" xmlns:svg="http://www.w3.org/2000/svg"> <defs id="I3d8b3b08353c4d3391b164f681edc55c20251110124421" /> <g id="I7a8260c48aa144299291fa2d6b81730220251110124421"> <path id="I5b56d1d686784bd98b5fe8d2e7a2b2d620251110124421" d="m 36.32,5.738 c 0.703,-0.508 1.653,-0.508 2.352,0 1.723,1.242 5.594,3.512 10.441,5.465 4.848,1.957 10.504,3.527 15.836,3.527 1.11,0 2.008,0.903 2.008,2.012 v 20.762 c 0,0.863 -0.051,1.719 -0.148,2.566 -0.942,-1.578 -2.274,-2.898 -3.868,-3.82 V 18.688 C 57.547,18.355 52.141,16.758 47.609,14.93 43.352,13.215 39.75,11.246 37.496,9.793 c -2.25,1.453 -5.855,3.422 -10.109,5.137 -4.532,1.828 -9.938,3.425 -15.332,3.758 v 18.816 c 0,6.621 3.769,13.187 9.082,18.437 5.191,5.129 11.523,8.661 16.359,9.614 0.852,-0.168 1.75,-0.414 2.684,-0.739 v 2.149 c 0,0.687 0.086,1.355 0.25,1.992 -0.887,0.266 -1.75,0.473 -2.59,0.621 l -0.344,0.059 -0.344,-0.059 C 31.246,68.547 24.027,64.445 18.312,58.801 12.598,53.152 8.035,45.613 8.035,37.504 V 16.742 c 0,-1.109 0.899,-2.012 2.008,-2.012 5.336,0 10.992,-1.57 15.84,-3.527 C 30.73,9.25 34.598,6.98 36.32,5.738 Z m 13.235,42.477 v -2.68 c 0,-4.437 3.597,-8.035 8.035,-8.035 4.437,0 8.035,3.598 8.035,8.035 v 2.68 h 1.34 c 2.957,0 5.355,2.398 5.355,5.355 v 13.395 c 0,2.957 -2.398,5.355 -5.355,5.355 h -18.75 c -2.961,0 -5.36,-2.398 -5.36,-5.355 V 53.57 c 0,-2.957 2.399,-5.355 5.36,-5.355 z m 4.015,-2.68 v 2.68 h 8.035 v -2.68 c 0,-2.219 -1.796,-4.015 -4.015,-4.015 -2.219,0 -4.02,1.796 -4.02,4.015 z m 8.035,14.735 c 0,-2.219 -1.796,-4.02 -4.015,-4.02 -2.219,0 -4.02,1.801 -4.02,4.02 0,2.218 1.801,4.015 4.02,4.015 2.219,0 4.015,-1.797 4.015,-4.015 z" style="fill:currentColor;fill-opacity:1;fill-rule:nonzero;stroke:none" transform="scale(1.3333333)" /> </g>
</svg>

