<?xml version="1.0" encoding="UTF-8" standalone="no"?> <svg version="1.1" id="I5b8639d488044091ab089ca4a1cd36ed20251106161453" width="100" height="100" viewBox="0 0 100 100" xmlns="http://www.w3.org/2000/svg" xmlns:svg="http://www.w3.org/2000/svg"> <defs id="I492e5aaff39b441abee0c64cc90056d420251106161453"> <linearGradient x1="18" y1="2" x2="19.388201" y2="20.597799" gradientUnits="userSpaceOnUse" gradientTransform="scale(2.678571)" spreadMethod="pad" id="Ifb8dad798bfe4c09b6a5407ffe81ac7920251106161453"> <stop style="stop-opacity:1;stop-color:#6ce0ff" offset="0" id="I906c566e898542feb59249e1837be7a920251106161453" /> <stop style="stop-opacity:1;stop-color:#4894fe" offset="1" id="I7f530a1b4962446ba8085218daf65a2220251106161453" /> </linearGradient> <radialGradient fx="0" fy="0" cx="0" cy="0" r="1" gradientUnits="userSpaceOnUse" gradientTransform="matrix(-30.357127,31.473079,-18.603626,-17.943991,66.517768,7.366071)" spreadMethod="pad" id="Idd498da0dd0f46d29a98123edf5dc7a720251106161453"> <stop style="stop-opacity:0.50000763;stop-color:#4a43cb" offset="0" id="I671624cd48ac462e966defe43fe2536a20251106161453" /> <stop style="stop-opacity:0.50000763;stop-color:#4a43cb" offset="0.362364" id="Ieb451292c58a44d1b102852dcefc0ec120251106161453" /> <stop style="stop-opacity:0;stop-color:#4a43cb" offset="1" id="Iffbcd651627a4c96b8aa45f0c28a804c20251106161453" /> </radialGradient> <radialGradient fx="0" fy="0" cx="0" cy="0" r="1" gradientUnits="userSpaceOnUse" gradientTransform="matrix(-30.357127,31.473079,-18.603626,-17.943991,66.517768,7.366071)" spreadMethod="pad" id="I5cc8f9fed5244f25b76ca460a7bc3e4c20251106161453"> <stop style="stop-opacity:0.29999237;stop-color:#4a43cb" offset="0" id="I23b057c037e34fd9ac65f9a6fbab41ad20251106161453" /> <stop style="stop-opacity:0.29999237;stop-color:#4a43cb" offset="0.362364" id="I082c0b61223c4553b9f77a4cbaba41d920251106161453" /> <stop style="stop-opacity:0;stop-color:#4a43cb" offset="1" id="I6a2771f191d64ead95d728fddf0ffbf920251106161453" /> </radialGradient> <linearGradient x1="19.485001" y1="5.75" x2="17.235001" y2="9.5" gradientUnits="userSpaceOnUse" gradientTransform="scale(2.678571)" spreadMethod="pad" id="I4a17da5973614b788520f711944d7a0a20251106161453"> <stop style="stop-opacity:1;stop-color:#9ff0f9" offset="0" id="Ib309495c1d4940bd8f9e1ca8e558b30820251106161453" /> <stop style="stop-opacity:1;stop-color:#b3e0ff" offset="1" id="I701ec8ae3cc943c2bc61edad0b0a522d20251106161453" /> </linearGradient> <linearGradient x1="19.5" y1="25" x2="12.2004" y2="9.7309704" gradientUnits="userSpaceOnUse" gradientTransform="scale(2.678571)" spreadMethod="pad" id="I69bcca37ddbf452a95f96f6bcbcfa66020251106161453"> <stop style="stop-opacity:0.90000763;stop-color:#9deaff" offset="0" id="Ia57e12ba9f7a49129e455234c22bdc6820251106161453" /> <stop style="stop-opacity:0.90000763;stop-color:#ffffff" offset="1" id="Icdfc72ba5541488a91c8c9345536bd5e20251106161453" /> </linearGradient> </defs> <g id="I479a3b326abd431c8970d11ca05a862220251106161453"> <path id="Ibcd4fe184fb741999f1f2e7b2afd2add20251106161453" d="M 40.18,5.355 H 17.41 c -3.699,0 -6.695,3 -6.695,6.7 v 50.89 c 0,3.7 2.996,6.7 6.695,6.7 h 40.18 c 3.699,0 6.695,-3 6.695,-6.7 v -33.48 l -18.75,-5.36 z" transform="scale(1.3333333)" style="fill:url(#Ifb8dad798bfe4c09b6a5407ffe81ac7920251106161453);stroke:none" /> <path d="M 40.18,5.355 H 17.41 c -3.699,0 -6.695,3 -6.695,6.7 v 50.89 c 0,3.7 2.996,6.7 6.695,6.7 h 40.18 c 3.699,0 6.695,-3 6.695,-6.7 v -33.48 l -18.75,-5.36 z" transform="scale(1.3333333)" style="fill:url(#Idd498da0dd0f46d29a98123edf5dc7a720251106161453);stroke:none" opacity="1" id="I33bad7fb5eb342b18f7661fd26d0a9eb20251106161453" /> <path d="M 40.18,5.355 H 17.41 c -3.699,0 -6.695,3 -6.695,6.7 v 50.89 c 0,3.7 2.996,6.7 6.695,6.7 h 40.18 c 3.699,0 6.695,-3 6.695,-6.7 v -33.48 l -18.75,-5.36 z" transform="scale(1.3333333)" style="fill:url(#I5cc8f9fed5244f25b76ca460a7bc3e4c20251106161453);stroke:none" opacity="1" id="I4de045ada54047229cf3d71b74598c4920251106161453" /> <path id="I00dcab2a0a514d368d2ca3ab473914d320251106161453" d="M 40.18,25.445 V 5.355 l 24.105,24.11 h -20.09 c -2.218,0 -4.015,-1.801 -4.015,-4.02 z" transform="scale(1.3333333)" style="fill:url(#I4a17da5973614b788520f711944d7a0a20251106161453);stroke:none" /> <path d="m 24.777,38.84 c -1.109,0 -2.007,0.898 -2.007,2.008 0,1.109 0.898,2.007 2.007,2.007 h 25.446 c 1.109,0 2.007,-0.898 2.007,-2.007 0,-1.11 -0.898,-2.008 -2.007,-2.008 z M 22.77,48.883 c 0,-1.11 0.898,-2.008 2.007,-2.008 h 25.446 c 1.109,0 2.007,0.898 2.007,2.008 0,1.109 -0.898,2.012 -2.007,2.012 H 24.777 c -1.109,0 -2.007,-0.903 -2.007,-2.012 z m 2.007,6.027 c -1.109,0 -2.007,0.899 -2.007,2.008 0,1.109 0.898,2.012 2.007,2.012 h 25.446 c 1.109,0 2.007,-0.903 2.007,-2.012 0,-1.109 -0.898,-2.008 -2.007,-2.008 z" transform="scale(1.3333333)" style="fill:url(#I69bcca37ddbf452a95f96f6bcbcfa66020251106161453);stroke:none" opacity="1" id="I0b41ef76aa5243e7bda0615d3ce4c1bb20251106161453" /> </g>
</svg>

