<?xml version="1.0" encoding="UTF-8" standalone="no"?> <svg version="1.1" id="I1296df99632f47d9b69c2de43a54e23220251106143239" width="100" height="100" viewBox="0 0 100 100" xmlns="http://www.w3.org/2000/svg" xmlns:svg="http://www.w3.org/2000/svg"> <defs id="I15ceae752d394786b5fbc8f1882a5aab20251106143239" /> <g id="I5f0a8549eddc41259b6762f431f4745620251106143239"> <path id="Ib59896bb9e74484487628d1bbe84e27c20251106143239" d="m 45.156,35.789 1.887,9.449 c 0.488,2.442 2.426,4.332 4.879,4.758 l 7.691,1.336 c 3.856,0.672 7.563,-1.789 8.442,-5.598 l 1.011,-4.382 C 70.363,35.723 68.039,29.551 62.27,27.289 56.629,25.078 48.129,22.734 37.492,22.77 26.918,22.805 18.457,25.117 12.82,27.301 7.008,29.547 4.645,35.75 5.949,41.414 l 1,4.32 c 0.879,3.809 4.582,6.27 8.438,5.598 l 7.691,-1.336 c 2.453,-0.426 4.391,-2.316 4.879,-4.758 l 1.891,-9.449 c 0.433,-0.101 0.972,-0.215 1.582,-0.332 1.691,-0.324 3.902,-0.637 6.07,-0.637 2.172,0 4.379,0.313 6.07,0.637 0.614,0.117 1.149,0.231 1.586,0.332 z" style="fill:currentColor;fill-opacity:1;fill-rule:nonzero;stroke:none" transform="scale(1.3333333)" /> </g>
</svg>

