<?xml version="1.0" encoding="UTF-8" standalone="no"?> <svg version="1.1" id="I61b30a93edf64d329a9183a19c6a7f3020251106170412" width="100" height="100" viewBox="0 0 100 100" xmlns="http://www.w3.org/2000/svg" xmlns:svg="http://www.w3.org/2000/svg"> <defs id="Ib45bd22a5aab48f596979a0abf7ede6620251106170412" /> <g id="I4cc652b927114120baa5159f3d2ff16820251106170412"> <path id="Ia432426401cc4ace938dbb2403885e4420251106170412" d="m 17.578,7.031 c -5.824,0 -10.547,4.723 -10.547,10.547 v 39.844 c 0,5.824 4.723,10.547 10.547,10.547 h 20.801 c -1.102,-1.43 -2.027,-3 -2.738,-4.688 H 17.578 c -3.234,0 -5.859,-2.625 -5.859,-5.859 V 37.5 h 31.695 c 3.34,-2.223 7.352,-3.516 11.664,-3.516 4.856,0 9.324,1.641 12.891,4.395 V 17.578 c 0,-5.824 -4.723,-10.547 -10.547,-10.547 z m 26.586,38.758 c 0.609,1.977 -0.594,4.055 -2.621,4.516 l -3.598,0.824 c -0.293,1.269 -0.445,2.59 -0.445,3.949 0,1.207 0.121,2.387 0.352,3.524 l 3.98,0.992 c 1.961,0.488 3.125,2.5 2.566,4.437 l -1.16,4.039 c 1.832,1.672 4.024,2.961 6.446,3.742 l 2.953,-3.046 c 1.402,-1.45 3.734,-1.45 5.136,0 l 2.899,2.98 c 2.414,-0.808 4.598,-2.129 6.414,-3.832 l -1.094,-3.547 c -0.609,-1.976 0.594,-4.055 2.621,-4.515 l 3.598,-0.825 c 0.293,-1.269 0.445,-2.589 0.445,-3.949 0,-1.207 -0.121,-2.387 -0.351,-3.523 l -3.981,-0.993 c -1.961,-0.492 -3.125,-2.5 -2.566,-4.437 l 1.16,-4.039 c -1.832,-1.672 -4.023,-2.961 -6.441,-3.742 l -2.957,3.047 c -1.403,1.445 -3.735,1.449 -5.137,0 L 49.484,38.41 c -2.414,0.809 -4.597,2.129 -6.414,3.832 z m 15.602,9.289 c 0,2.59 -2.098,4.688 -4.688,4.688 -2.59,0 -4.687,-2.098 -4.687,-4.688 0,-2.59 2.097,-4.687 4.687,-4.687 2.59,0 4.688,2.097 4.688,4.687 z" style="fill:currentColor;fill-opacity:1;fill-rule:nonzero;stroke:none" transform="scale(1.3333333)" /> </g>
</svg>

