<?xml version="1.0" encoding="UTF-8" standalone="no"?> <svg version="1.1" id="I824b913bc3de449a8caa21e6cbd15a3f20251106161453" width="100" height="100" viewBox="0 0 100 100" xmlns="http://www.w3.org/2000/svg" xmlns:svg="http://www.w3.org/2000/svg"> <defs id="Ic9681aa12c0b46979ebe6a876ddb128d20251106161453" /> <g id="I1b553827cd57420699521e56d0314cd320251106161453"> <path id="Ieac66f2bffbe4d66938b07210aff166f20251106161453" d="M 65.477,9.523 C 61.105,5.156 54.027,5.16 49.66,9.527 L 12.316,46.875 c -1.269,1.27 -2.164,2.867 -2.578,4.613 L 6.312,65.867 c -0.187,0.793 0.047,1.625 0.626,2.199 0.574,0.579 1.406,0.813 2.199,0.625 l 14.379,-3.425 c 1.746,-0.414 3.343,-1.309 4.617,-2.578 L 44.539,46.277 c -0.508,-1.265 -0.789,-2.644 -0.789,-4.089 0,-0.653 0.059,-1.297 0.168,-1.918 L 24.816,59.375 c -0.656,0.656 -1.484,1.117 -2.386,1.332 L 11.758,63.25 14.297,52.574 c 0.215,-0.902 0.676,-1.73 1.332,-2.386 l 31.246,-31.247 9.187,9.184 -3.292,3.293 c 0.621,-0.109 1.261,-0.168 1.918,-0.168 1.445,0 2.824,0.281 4.089,0.789 l 6.7,-6.699 c 4.363,-4.367 4.363,-11.449 0,-15.817 z M 52.973,12.84 c 2.539,-2.535 6.652,-2.535 9.187,0 2.535,2.535 2.535,6.648 0,9.183 l -2.785,2.789 -9.187,-9.187 z M 62.5,42.188 c 0,4.316 -3.496,7.812 -7.812,7.812 -4.317,0 -7.813,-3.496 -7.813,-7.812 0,-4.317 3.496,-7.813 7.813,-7.813 4.316,0 7.812,3.496 7.812,7.813 z m 6.25,16.796 c 0,4.864 -4.02,9.766 -14.062,9.766 -10.043,0 -14.063,-4.883 -14.063,-9.766 v -0.32 c 0,-3.062 2.48,-5.539 5.539,-5.539 h 17.047 c 3.059,0 5.539,2.477 5.539,5.539 z" style="fill:currentColor;fill-opacity:1;fill-rule:nonzero;stroke:none" transform="scale(1.3333333)" /> </g>
</svg>

