<?xml version="1.0" encoding="UTF-8" standalone="no"?> <svg version="1.1" id="Ide3b2a28d917450d8f6834d4a8cb8c7820251106151526" width="100" height="100" viewBox="0 0 100 100" xmlns="http://www.w3.org/2000/svg" xmlns:svg="http://www.w3.org/2000/svg"> <defs id="Icbedffe1967148029b7eb93b80c2002e20251106151526" /> <g id="I507529358b71453d8da350d5a9b7f37620251106151526"> <path id="I65741a7da69e4922a7de2ff2d20f2ef720251106151526" d="M 49.957,12.5 C 49.566,8.984 46.586,6.25 42.969,6.25 H 32.031 c -3.617,0 -6.597,2.734 -6.988,6.25 h -5.512 c -3.883,0 -7.031,3.148 -7.031,7.031 v 12.031 c 1.453,-0.746 3.031,-1.285 4.688,-1.589 V 19.531 c 0,-1.293 1.05,-2.343 2.343,-2.343 h 6.653 c 1.261,1.882 3.41,3.124 5.847,3.124 h 10.938 c 2.437,0 4.586,-1.242 5.847,-3.124 h 6.653 c 1.293,0 2.343,1.05 2.343,2.343 v 42.188 c 0,1.293 -1.05,2.343 -2.343,2.343 H 43.223 c 0.703,1.481 0.703,3.208 0,4.688 h 12.246 c 3.883,0 7.031,-3.148 7.031,-7.031 V 19.531 C 62.5,15.648 59.352,12.5 55.469,12.5 Z m 0.027,0.301 0.016,0.48 c 0,-0.16 -0.004,-0.324 -0.016,-0.48 z M 32.031,10.938 h 10.938 c 1.293,0 2.343,1.05 2.343,2.343 0,1.293 -1.05,2.344 -2.343,2.344 H 32.031 c -1.293,0 -2.343,-1.051 -2.343,-2.344 0,-1.293 1.05,-2.343 2.343,-2.343 z m -0.937,44.968 c 2.047,-2.445 3.281,-5.594 3.281,-9.031 0,-7.766 -6.297,-14.063 -14.063,-14.063 -7.765,0 -14.062,6.297 -14.062,14.063 0,7.766 6.297,14.063 14.062,14.063 2.633,0 5.098,-0.723 7.204,-1.985 l 9.109,9.109 c 0.914,0.918 2.398,0.918 3.313,0 0.917,-0.914 0.917,-2.398 0,-3.312 z M 20.312,56.25 c -5.175,0 -9.374,-4.195 -9.374,-9.375 0,-5.18 4.199,-9.375 9.374,-9.375 5.176,0 9.376,4.195 9.376,9.375 0,5.18 -4.2,9.375 -9.376,9.375 z" style="fill:currentColor;fill-opacity:1;fill-rule:nonzero;stroke:none" transform="scale(1.3333333)" /> </g>
</svg>

