<?xml version="1.0" encoding="UTF-8" standalone="no"?> <svg version="1.1" id="I5d1aefd783524ee9a7e77703dd68f86120251106163937" width="100" height="100" viewBox="0 0 100 100" xmlns="http://www.w3.org/2000/svg" xmlns:svg="http://www.w3.org/2000/svg"> <defs id="Ibaa56c5efc5747b880e6ee18c4c1320f20251106163937" /> <g id="I3fea3c9919da4f79b0727810995a500c20251106163937"> <path id="I7e0659502d0b421d882c861d273c659e20251106163937" d="m 39.844,8.594 c 0,-1.293 -1.051,-2.344 -2.344,-2.344 -1.293,0 -2.344,1.051 -2.344,2.344 v 57.812 c 0,1.293 1.051,2.344 2.344,2.344 1.293,0 2.344,-1.051 2.344,-2.344 z M 6.25,22.656 C 6.25,17.047 10.797,12.5 16.406,12.5 h 15.625 v 50 H 16.406 C 10.797,62.5 6.25,57.953 6.25,52.344 Z m 8.594,-0.781 c -1.293,0 -2.344,1.051 -2.344,2.344 v 1.562 c 0,1.293 1.051,2.344 2.344,2.344 1.293,0 2.344,-1.051 2.344,-2.344 v -1.562 c 0,-1.293 -1.051,-2.344 -2.344,-2.344 z M 12.5,49.219 v 1.562 c 0,1.293 1.051,2.344 2.344,2.344 1.293,0 2.344,-1.051 2.344,-2.344 v -1.562 c 0,-1.293 -1.051,-2.344 -2.344,-2.344 -1.293,0 -2.344,1.051 -2.344,2.344 z m 2.344,-14.844 c -1.293,0 -2.344,1.051 -2.344,2.344 v 1.562 c 0,1.293 1.051,2.344 2.344,2.344 1.293,0 2.344,-1.051 2.344,-2.344 v -1.562 c 0,-1.293 -1.051,-2.344 -2.344,-2.344 z M 42.969,62.5 v -50 h 15.625 c 5.609,0 10.156,4.547 10.156,10.156 V 52.344 C 68.75,57.953 64.203,62.5 58.594,62.5 Z M 57.812,24.219 v 1.562 c 0,1.293 1.051,2.344 2.344,2.344 1.293,0 2.344,-1.051 2.344,-2.344 v -1.562 c 0,-1.293 -1.051,-2.344 -2.344,-2.344 -1.293,0 -2.344,1.051 -2.344,2.344 z m 2.344,22.656 c -1.293,0 -2.344,1.051 -2.344,2.344 v 1.562 c 0,1.293 1.051,2.344 2.344,2.344 1.293,0 2.344,-1.051 2.344,-2.344 v -1.562 c 0,-1.293 -1.051,-2.344 -2.344,-2.344 z M 57.812,36.719 v 1.562 c 0,1.293 1.051,2.344 2.344,2.344 1.293,0 2.344,-1.051 2.344,-2.344 v -1.562 c 0,-1.293 -1.051,-2.344 -2.344,-2.344 -1.293,0 -2.344,1.051 -2.344,2.344 z" style="fill:currentColor;fill-opacity:1;fill-rule:nonzero;stroke:none" transform="scale(1.3333333)" /> </g>
</svg>

