<?xml version="1.0" encoding="UTF-8" standalone="no"?> <svg version="1.1" id="I985d4ce50b864117a2a52a23e6fc4c8620251110123031" width="100" height="100" viewBox="0 0 100 100" xmlns="http://www.w3.org/2000/svg" xmlns:svg="http://www.w3.org/2000/svg"> <defs id="I63be146e55604ce398306a5c73cc7fc320251110123031" /> <g id="I131fcba1cb8344619893f5c2b6f3c8d220251110123031"> <path id="I3d1d6272cd374d7d9f90e2ad4336537f20251110123031" d="M 40.484,68.891 C 36.977,65.273 34.82,60.344 34.82,54.91 c 0,-4.523 1.496,-8.695 4.02,-12.055 H 13.395 c -4.442,0 -8.04,3.598 -8.04,8.04 v 1.914 c 0,9.961 11.282,16.836 26.79,16.836 2.949,0 5.742,-0.266 8.339,-0.754 z M 48.215,21.43 c 0,-8.879 -7.195,-16.075 -16.07,-16.075 -8.879,0 -16.075,7.196 -16.075,16.075 0,8.875 7.196,16.07 16.075,16.07 8.875,0 16.07,-7.195 16.07,-16.07 z M 72.32,54.91 c 0,9.617 -7.793,17.41 -17.41,17.41 -9.617,0 -17.41,-7.793 -17.41,-17.41 0,-9.617 7.793,-17.41 17.41,-17.41 9.617,0 17.41,7.793 17.41,17.41 z m -4.015,0 c 0,-2.972 -0.969,-5.719 -2.61,-7.941 L 46.969,65.695 c 2.222,1.641 4.969,2.61 7.941,2.61 7.399,0 13.395,-5.996 13.395,-13.395 z m -24.18,7.945 18.73,-18.73 C 60.633,42.488 57.883,41.52 54.91,41.52 c -7.394,0 -13.39,5.996 -13.39,13.39 0,2.973 0.968,5.723 2.605,7.945 z" style="fill:currentColor;fill-opacity:1;fill-rule:nonzero;stroke:none" transform="scale(1.3333333)" /> </g>
</svg>

