<?xml version="1.0" encoding="UTF-8" standalone="no"?> <svg version="1.1" id="Ibe5bcc73d6bb4df3b2f684748347f88f20251106125938" width="100" height="100" viewBox="0 0 100 100" xmlns="http://www.w3.org/2000/svg" xmlns:svg="http://www.w3.org/2000/svg"> <defs id="I56d27cee99f146c0b02190dde7aab33d20251106125938" /> <g id="Ifef7da9fc6d0488db8ba52830f5bfbd420251106125938"> <path id="I8efd7fc7ede14200a6e9e3a40887514d20251106125938" d="m 27.535,16.824 c 0.785,-0.785 0.785,-2.058 0,-2.844 -0.781,-0.785 -2.055,-0.785 -2.84,0 L 8.625,30.055 c -0.785,0.781 -0.785,2.054 0,2.84 l 16.07,16.07 c 0.785,0.785 2.059,0.785 2.84,0 0.785,-0.785 0.785,-2.055 0,-2.84 L 14.895,33.48 h 24.613 c 12.945,0 23.437,10.497 23.437,23.438 0,1.109 0.903,2.012 2.012,2.012 1.109,0 2.008,-0.903 2.008,-2.012 0,-15.16 -12.293,-27.453 -27.457,-27.453 H 14.895 Z" style="fill:currentColor;fill-opacity:1;fill-rule:nonzero;stroke:none" transform="scale(1.3333333)" /> </g>
</svg>

