<?xml version="1.0" encoding="UTF-8" standalone="no"?> <svg version="1.1" id="I6d0123bb7e7c4c2aa349eb8ef200dfd820251106170412" width="100" height="100" viewBox="0 0 100 100" xmlns="http://www.w3.org/2000/svg" xmlns:svg="http://www.w3.org/2000/svg"> <defs id="I85a09dbe52c14a32a8c7ca1ef9f8708b20251106170412" /> <g id="I52441a40fda1452dbe7b45a3f10264b820251106170412"> <path id="I9e485f77efd94e1493c543660bca778420251106170412" d="m 19.531,9.375 c -5.609,0 -10.156,4.547 -10.156,10.156 v 35.938 c 0,5.609 4.547,10.156 10.156,10.156 h 35.938 c 5.609,0 10.156,-4.547 10.156,-10.156 V 19.531 c 0,-5.609 -4.547,-10.156 -10.156,-10.156 z m -5.469,30.469 h 46.876 v 15.625 c 0,3.019 -2.45,5.469 -5.469,5.469 H 19.531 c -3.019,0 -5.469,-2.45 -5.469,-5.469 z M 60.938,35.156 H 37.5 V 14.062 h 17.969 c 3.019,0 5.469,2.45 5.469,5.469 z" style="fill:currentColor;fill-opacity:1;fill-rule:nonzero;stroke:none" transform="scale(1.3333333)" /> </g>
</svg>

