<?xml version="1.0" encoding="UTF-8" standalone="no"?> <svg version="1.1" id="I163d702b63cb498596f096d8fbd6457c20251110130508" width="100" height="100" viewBox="0 0 100 100" xmlns="http://www.w3.org/2000/svg" xmlns:svg="http://www.w3.org/2000/svg"> <defs id="I6f2a9c153874474e972300d4c387b88120251110130508" /> <g id="Ie65ea60daa144798b24b9a59f7b134b420251110130508"> <path id="Ib8e930c270ec47708b9a8bceb8d0bcbc20251110130508" d="m 33.711,9.695 c 1.547,-3.136 6.019,-3.136 7.566,0 l 5.274,10.703 c -3.36,0.532 -5.926,3.438 -5.926,6.946 0,2.718 1.547,5.078 3.809,6.25 -2.262,1.168 -3.809,3.527 -3.809,6.25 0,2.718 1.547,5.078 3.809,6.25 -2.262,1.168 -3.809,3.527 -3.809,6.25 0,1.586 0.523,3.047 1.41,4.222 L 22.758,66.695 C 19.664,68.32 16.047,65.691 16.637,62.246 L 19.453,45.836 7.527,34.215 C 5.023,31.773 6.406,27.523 9.867,27.02 L 26.344,24.625 Z M 45.312,52.344 C 45.312,51.047 46.363,50 47.656,50 h 18.75 c 1.293,0 2.344,1.047 2.344,2.344 0,1.293 -1.051,2.344 -2.344,2.344 h -18.75 c -0.48,0 -0.926,-0.145 -1.297,-0.391 -0.632,-0.422 -1.047,-1.141 -1.047,-1.953 z m 0,-12.5 c 0,-1.297 1.051,-2.344 2.344,-2.344 h 18.75 c 1.293,0 2.344,1.047 2.344,2.344 0,1.293 -1.051,2.344 -2.344,2.344 h -18.75 c -1.293,0 -2.344,-1.051 -2.344,-2.344 z m 0,-12.5 C 45.312,26.047 46.363,25 47.656,25 h 18.75 c 1.293,0 2.344,1.047 2.344,2.344 0,1.293 -1.051,2.344 -2.344,2.344 h -18.75 c -1.293,0 -2.344,-1.051 -2.344,-2.344 z" style="fill:currentColor;fill-opacity:1;fill-rule:nonzero;stroke:none" transform="scale(1.3333333)" /> </g>
</svg>

