<?xml version="1.0" encoding="UTF-8" standalone="no"?> <svg version="1.1" id="Ie387067c2a774faf9af7d217ca08350b20251106113050" width="100" height="100" viewBox="0 0 100 100" xmlns="http://www.w3.org/2000/svg" xmlns:svg="http://www.w3.org/2000/svg"> <defs id="I35bdc98c665646eaa9f1b21ffb396a7220251106113050" /> <g id="I0f390bc431d6428c8f07de03cd12b7dd20251106113050"> <path id="Iaa2efc038846426382448294472d5e1420251106113050" d="m 63.266,37.5 8.57,-10.289 c 0.363,-0.434 0.055,-1.094 -0.512,-1.102 h -4.578 c -0.199,0 -0.383,0.09 -0.512,0.243 l -6.132,7.355 -6.122,-7.348 c -0.125,-0.152 -0.312,-0.242 -0.507,-0.242 h -4.59 c -0.156,0 -0.309,0.059 -0.426,0.156 -0.285,0.239 -0.324,0.665 -0.082,0.95 L 56.938,37.5 48.363,47.789 c -0.359,0.434 -0.054,1.094 0.512,1.102 h 4.578 c 0.203,0 0.387,-0.09 0.512,-0.243 l 6.117,-7.347 6.121,7.347 c 0.125,0.153 0.313,0.243 0.512,0.243 h 4.601 c 0.161,0 0.309,-0.059 0.426,-0.157 0.285,-0.234 0.328,-0.664 0.086,-0.945 z M 39.508,33.48 H 4.688 c -0.368,0 -0.668,0.305 -0.668,0.672 v 6.696 c 0,0.367 0.3,0.672 0.668,0.672 h 34.82 c 0.371,0 0.672,-0.305 0.672,-0.672 v -6.696 c 0,-0.367 -0.301,-0.672 -0.672,-0.672 z m -7.031,17.079 h -5.02 c -0.277,0 -0.504,0.226 -0.504,0.5 V 64.957 H 6.027 c -0.277,0 -0.504,0.223 -0.504,0.5 v 5.023 c 0,0.278 0.227,0.5 0.504,0.5 h 24.442 c 1.39,0 2.511,-1.121 2.511,-2.507 V 51.059 c 0,-0.274 -0.226,-0.5 -0.503,-0.5 z M 6.027,10.043 h 20.926 v 13.898 c 0,0.274 0.227,0.5 0.504,0.5 h 5.02 c 0.277,0 0.503,-0.226 0.503,-0.5 V 6.527 C 32.98,5.141 31.859,4.02 30.469,4.02 H 6.027 c -0.277,0 -0.504,0.222 -0.504,0.5 v 5.023 c 0,0.277 0.227,0.5 0.504,0.5 z" style="fill:currentColor;fill-opacity:1;fill-rule:nonzero;stroke:none" transform="scale(1.3333333)" /> </g>
</svg>

