<?xml version="1.0" encoding="UTF-8" standalone="no"?> <svg version="1.1" id="I00e5e958bf22429286d29c93af59c38f20251106132945" width="100" height="100" viewBox="0 0 100 100" xmlns="http://www.w3.org/2000/svg" xmlns:svg="http://www.w3.org/2000/svg"> <defs id="Ifde2acfdd5b043ae8d08826184cfa9b120251106132945" /> <g id="Ia2004cc2f0c843f3af5c28ca77a751f020251106132945"> <path id="I11395b9fc4d14da0aae85a0f5ea63b8a20251106132945" d="m 54.387,7.16 c 0.574,0.91 0.301,2.117 -0.61,2.695 l -38.824,24.52 h 15.516 v -4.297 c 0,-1.941 1.574,-3.516 3.515,-3.516 h 12.11 v -4.296 c 0,-1.942 1.574,-3.516 3.515,-3.516 h 12.5 c 1.942,0 3.516,1.574 3.516,3.516 v 12.129 c 1.758,0.195 3.125,1.687 3.125,3.496 v 21.093 c 0,5.395 -4.371,9.766 -9.766,9.766 H 16.016 C 10.621,68.75 6.25,64.379 6.25,58.984 V 36.328 c 0,-0.672 0.344,-1.293 0.91,-1.652 L 51.691,6.551 C 52.602,5.977 53.809,6.25 54.387,7.16 Z m 7.332,27.215 V 22.656 H 50 v 11.719 z m -15.625,0 V 30.469 H 34.375 v 3.906 z m -35.938,3.906 v 20.703 c 0,3.235 2.625,5.86 5.86,5.86 h 42.968 c 3.235,0 5.86,-2.625 5.86,-5.86 V 38.281 Z" style="fill:currentColor;fill-opacity:1;fill-rule:nonzero;stroke:none" transform="scale(1.3333333)" /> </g>
</svg>

