<?xml version="1.0" encoding="UTF-8" standalone="no"?> <svg version="1.1" id="I003976dff202466ea935eb30632bb7d420251110130510" width="100" height="100" viewBox="0 0 100 100" xmlns="http://www.w3.org/2000/svg" xmlns:svg="http://www.w3.org/2000/svg"> <defs id="I00210068931746e7b3448020511fd2ae20251110130510" /> <g id="I92a6e315f3d245a28bf6bf4e934ecf5220251110130510"> <path id="Ibfe251145c994040b2a1dbd9e58f2ca820251110130510" d="m 18.082,8.035 c -5.551,0 -10.047,4.496 -10.047,10.047 v 38.836 c 0,5.551 4.496,10.047 10.047,10.047 H 38.84 c -0.93,-1.238 -1.719,-2.586 -2.348,-4.02 h -18.41 c -3.332,0 -6.027,-2.699 -6.027,-6.027 V 18.082 c 0,-3.332 2.695,-6.027 6.027,-6.027 h 38.836 c 3.328,0 6.027,2.695 6.027,6.027 v 18.41 c 1.434,0.629 2.782,1.418 4.02,2.348 V 18.082 C 66.965,12.531 62.469,8.035 56.918,8.035 Z M 35,52.23 c 0.184,-1.386 0.512,-2.73 0.965,-4.015 H 23.438 c -1.11,0 -2.008,0.898 -2.008,2.008 0,1.109 0.898,2.007 2.008,2.007 z M 23.438,34.82 c -1.11,0 -2.008,0.903 -2.008,2.012 0,1.109 0.898,2.008 2.008,2.008 h 17.41 c 1.109,0 2.007,-0.899 2.007,-2.008 0,-1.109 -0.898,-2.012 -2.007,-2.012 z M 21.43,23.438 c 0,-1.11 0.898,-2.008 2.008,-2.008 h 28.124 c 1.11,0 2.008,0.898 2.008,2.008 0,1.109 -0.898,2.007 -2.008,2.007 H 23.438 c -1.11,0 -2.008,-0.898 -2.008,-2.007 z M 72.32,54.91 c 0,9.617 -7.793,17.41 -17.41,17.41 -9.617,0 -17.41,-7.793 -17.41,-17.41 0,-9.617 7.793,-17.41 17.41,-17.41 9.617,0 17.41,7.793 17.41,17.41 z m -8.98,-7.644 -12.445,12.449 -4.411,-4.41 c -0.523,-0.524 -1.371,-0.524 -1.894,0 -0.524,0.519 -0.524,1.371 0,1.89 l 5.355,5.36 c 0.524,0.523 1.371,0.523 1.895,0 L 65.234,49.16 c 0.52,-0.523 0.52,-1.371 0,-1.894 -0.523,-0.52 -1.371,-0.52 -1.894,0 z" style="fill:currentColor;fill-opacity:1;fill-rule:nonzero;stroke:none" transform="scale(1.3333333)" /> </g>
</svg>

