<?xml version="1.0" encoding="UTF-8" standalone="no"?> <svg version="1.1" id="If4b1c59acfd4440d9f249967cac8217a20251110135155" width="100" height="100" viewBox="0 0 100 100" xmlns="http://www.w3.org/2000/svg" xmlns:svg="http://www.w3.org/2000/svg"> <defs id="I84493a836e114e2ab19120f53d49352520251110135155" /> <g id="Ic6095481035a436d976a11e3656e618520251110135155"> <path id="I053fb8a190cf4b4891856daa5331592120251110135155" d="m 9.375,18.75 c 0,-1.727 1.398,-3.125 3.125,-3.125 h 9.375 c 1.727,0 3.125,1.398 3.125,3.125 0,1.727 -1.398,3.125 -3.125,3.125 H 12.5 c -1.727,0 -3.125,-1.398 -3.125,-3.125 z m 20.563,0 c 0,-1.727 1.398,-3.125 3.124,-3.125 h 9.376 c 1.726,0 3.124,1.398 3.124,3.125 0,1.727 -1.398,3.125 -3.124,3.125 h -9.376 c -1.726,0 -3.124,-1.398 -3.124,-3.125 z m 20.062,0 c 0,-1.727 1.398,-3.125 3.125,-3.125 H 62.5 c 1.727,0 3.125,1.398 3.125,3.125 0,1.727 -1.398,3.125 -3.125,3.125 H 53.125 C 51.398,21.875 50,20.477 50,18.75 Z M 9.375,31.25 c 0,-1.727 1.398,-3.125 3.125,-3.125 h 9.375 c 1.727,0 3.125,1.398 3.125,3.125 0,1.727 -1.398,3.125 -3.125,3.125 H 12.5 c -1.727,0 -3.125,-1.398 -3.125,-3.125 z m 20.563,0 c 0,-1.727 1.398,-3.125 3.124,-3.125 h 9.376 c 1.726,0 3.124,1.398 3.124,3.125 0,1.727 -1.398,3.125 -3.124,3.125 h -9.376 c -1.726,0 -3.124,-1.398 -3.124,-3.125 z m 20.062,0 c 0,-1.727 1.398,-3.125 3.125,-3.125 H 62.5 c 1.727,0 3.125,1.398 3.125,3.125 0,1.727 -1.398,3.125 -3.125,3.125 H 53.125 C 51.398,34.375 50,32.977 50,31.25 Z M 9.375,43.75 c 0,-1.727 1.398,-3.125 3.125,-3.125 h 9.375 c 1.727,0 3.125,1.398 3.125,3.125 0,1.727 -1.398,3.125 -3.125,3.125 H 12.5 c -1.727,0 -3.125,-1.398 -3.125,-3.125 z m 20.563,0 c 0,-1.727 1.398,-3.125 3.124,-3.125 h 9.376 c 1.726,0 3.124,1.398 3.124,3.125 0,1.727 -1.398,3.125 -3.124,3.125 h -9.376 c -1.726,0 -3.124,-1.398 -3.124,-3.125 z m 20.062,0 c 0,-1.727 1.398,-3.125 3.125,-3.125 H 62.5 c 1.727,0 3.125,1.398 3.125,3.125 0,1.727 -1.398,3.125 -3.125,3.125 H 53.125 C 51.398,46.875 50,45.477 50,43.75 Z M 9.375,56.25 c 0,-1.727 1.398,-3.125 3.125,-3.125 h 9.375 c 1.727,0 3.125,1.398 3.125,3.125 0,1.727 -1.398,3.125 -3.125,3.125 H 12.5 c -1.727,0 -3.125,-1.398 -3.125,-3.125 z m 20.563,0 c 0,-1.727 1.398,-3.125 3.124,-3.125 h 9.376 c 1.726,0 3.124,1.398 3.124,3.125 0,1.727 -1.398,3.125 -3.124,3.125 h -9.376 c -1.726,0 -3.124,-1.398 -3.124,-3.125 z m 20.062,0 c 0,-1.727 1.398,-3.125 3.125,-3.125 H 62.5 c 1.727,0 3.125,1.398 3.125,3.125 0,1.727 -1.398,3.125 -3.125,3.125 H 53.125 C 51.398,59.375 50,57.977 50,56.25 Z" style="fill:currentColor;fill-opacity:1;fill-rule:nonzero;stroke:none" transform="scale(1.3333333)" /> </g>
</svg>

