<?xml version="1.0" encoding="UTF-8" standalone="no"?> <svg version="1.1" id="I7834a107d77e4030b768673942546f4720251106165301" width="100" height="100" viewBox="0 0 100 100" xmlns="http://www.w3.org/2000/svg" xmlns:svg="http://www.w3.org/2000/svg"> <defs id="I77380e547d954c7a881a74ce6355be6720251106165301" /> <g id="I4807616f997d4d6d98145fbad31e3ab620251106165301"> <path id="Ia2bda815f29e49318858587a11f49c1e20251106165301" d="m 47.676,34.152 c 0.445,-0.898 1.031,-1.652 1.707,-2.257 l -1.098,-1.254 c -0.39,-0.446 -0.969,-0.684 -1.558,-0.633 -0.594,0.047 -1.125,0.371 -1.442,0.875 L 37.836,42.801 29.855,23.652 C 29.566,22.957 28.887,22.504 28.133,22.5 27.379,22.496 26.695,22.945 26.398,23.641 L 20.508,37.5 H 9.375 C 8.34,37.5 7.5,38.34 7.5,39.375 7.5,40.41 8.34,41.25 9.375,41.25 H 21.75 c 0.754,0 1.43,-0.449 1.727,-1.141 l 4.632,-10.902 7.661,18.391 c 0.269,0.644 0.878,1.09 1.578,1.144 0.699,0.059 1.371,-0.277 1.742,-0.875 l 8.035,-12.855 0.078,0.086 z M 17.996,45 34.172,61.34 c 0.109,-0.32 0.242,-0.637 0.398,-0.949 L 35.891,57.746 23.109,44.832 C 22.668,44.941 22.215,45 21.75,45 Z M 66.383,33.801 C 68.668,27.91 67.445,20.949 62.715,16.172 56.48,9.875 46.484,9.711 40.117,15.715 c -0.137,0.129 -0.273,0.262 -0.406,0.398 l -2.238,2.262 -2.266,-2.289 C 35.082,15.961 34.957,15.836 34.828,15.719 28.449,9.664 18.438,9.758 12.23,16.027 7.484,20.82 6.312,27.859 8.703,33.789 8.922,33.762 9.148,33.75 9.375,33.75 h 3.449 c -2.648,-4.836 -1.953,-11.023 2.071,-15.086 4.851,-4.898 12.742,-4.894 17.648,0.059 l 3.598,3.64 c 0.734,0.739 1.933,0.739 2.668,-0.004 l 3.566,-3.609 c 4.863,-4.906 12.758,-4.906 17.676,0.059 4.019,4.062 4.758,10.148 2.242,14.941 h 3.332 c 0.258,0 0.512,0.016 0.758,0.051 z M 51.012,35.824 37.902,62.07 c -1.25,2.496 0.567,5.43 3.356,5.43 h 26.234 c 2.789,0 4.606,-2.938 3.356,-5.43 L 57.727,35.824 c -1.383,-2.765 -5.332,-2.765 -6.715,0 z m 5.23,7.281 v 11.262 c 0,1.035 -0.84,1.875 -1.875,1.875 -1.035,0 -1.875,-0.84 -1.875,-1.875 V 43.105 c 0,-1.035 0.84,-1.875 1.875,-1.875 1.035,0 1.875,0.84 1.875,1.875 z m -1.875,20.641 c -1.035,0 -1.875,-0.84 -1.875,-1.875 0,-1.035 0.84,-1.875 1.875,-1.875 1.035,0 1.875,0.84 1.875,1.875 0,1.035 -0.84,1.875 -1.875,1.875 z" style="fill:currentColor;fill-opacity:1;fill-rule:nonzero;stroke:none" transform="scale(1.3333333)" /> </g>
</svg>

