<?xml version="1.0" encoding="UTF-8" standalone="no"?> <svg version="1.1" id="I941a6d0d2b9749e1baed05e437da5a5620251110133655" width="100" height="100" viewBox="0 0 100 100" xmlns="http://www.w3.org/2000/svg" xmlns:svg="http://www.w3.org/2000/svg"> <defs id="I4504035764824ae88c7a2f4ac9a5c1a720251110133655" /> <g id="I06739de423b3444aa3f5bc0164f05e5820251110133655"> <path id="Idf6f082077a646f78586aa92e584512920251110133655" d="m 31.473,44.195 c -1.11,0 -2.008,0.903 -2.008,2.012 0,1.109 0.898,2.008 2.008,2.008 h 12.054 c 1.11,0 2.008,-0.899 2.008,-2.008 0,-1.109 -0.898,-2.012 -2.008,-2.012 z M 27.457,18.75 c -1.109,0 -2.012,0.898 -2.012,2.008 v 14.734 c 0,1.11 0.903,2.008 2.012,2.008 h 20.086 c 1.109,0 2.012,-0.898 2.012,-2.008 V 20.758 c 0,-1.11 -0.903,-2.008 -2.012,-2.008 z m 2.008,14.734 V 22.77 h 16.07 V 33.484 Z M 27.457,2.68 c 1.109,0 2.008,0.898 2.008,2.008 v 4.687 h 23.437 c 3.328,0 6.028,2.699 6.028,6.027 v 27.453 c 0,0.493 -0.184,0.969 -0.508,1.336 l -4.852,5.457 v 12.629 c 0,3.328 -2.699,6.028 -6.027,6.028 H 27.457 c -3.332,0 -6.027,-2.7 -6.027,-6.028 V 49.648 L 16.578,44.191 C 16.254,43.824 16.07,43.348 16.07,42.855 V 15.402 c 0,-3.328 2.7,-6.027 6.028,-6.027 h 3.347 V 4.688 c 0,-1.11 0.903,-2.008 2.012,-2.008 z M 20.09,15.402 v 26.692 l 4.848,5.457 c 0.328,0.367 0.507,0.84 0.507,1.332 v 13.394 c 0,1.11 0.903,2.008 2.012,2.008 h 20.086 c 1.109,0 2.012,-0.898 2.012,-2.008 V 48.883 c 0,-0.492 0.179,-0.965 0.507,-1.332 L 54.91,42.094 V 15.402 c 0,-1.109 -0.898,-2.007 -2.008,-2.007 H 22.098 c -1.11,0 -2.008,0.898 -2.008,2.007 z" style="fill:currentColor;fill-opacity:1;fill-rule:nonzero;stroke:none" transform="scale(1.3333333)" /> </g>
</svg>

