<?xml version="1.0" encoding="UTF-8" standalone="no"?> <svg version="1.1" id="I5da00dc525794613aecb7251c869007320251106102215" width="100" height="100" viewBox="0 0 100 100" xmlns="http://www.w3.org/2000/svg" xmlns:svg="http://www.w3.org/2000/svg"> <defs id="I5a2de09dfae746e382a8f1d5a2d9fe3220251106102215" /> <g id="Ic788f4729d074f6fa1eea012f9e3417020251106102215"> <path id="I17f27b58c47345c088c9c49497a999ac20251106102215" d="m 37.5,34.152 c 0,4.465 6.695,4.465 6.695,0 0,-4.464 -6.695,-4.464 -6.695,0 z M 68.219,63.691 52.926,24.105 V 9.543 H 58.93 V 3.852 H 16.07 v 5.691 h 6.004 V 24.105 L 6.781,63.691 c -0.234,0.621 -0.359,1.274 -0.359,1.934 0,2.953 2.402,5.355 5.355,5.355 h 51.446 c 0.66,0 1.312,-0.125 1.933,-0.359 2.762,-1.062 4.137,-4.168 3.063,-6.93 z M 27.766,25.172 V 9.711 h 19.468 v 15.461 l 7.61,19.695 c -1.735,-0.445 -3.524,-0.672 -5.348,-0.672 -5.125,0 -9.98,1.801 -13.836,5.024 -2.851,2.379 -6.445,3.679 -10.156,3.676 -2.734,0 -5.363,-0.696 -7.684,-1.985 z m -15.504,40.117 3.492,-9.023 c 2.988,1.515 6.312,2.328 9.758,2.328 5.125,0 9.98,-1.801 13.84,-5.024 2.836,-2.359 6.386,-3.672 10.152,-3.672 2.93,0 5.726,0.793 8.168,2.266 l 5.066,13.125 z" style="fill:currentColor;fill-opacity:1;fill-rule:nonzero;stroke:none" transform="scale(1.3333333)" /> </g>
</svg>

