<?xml version="1.0" encoding="UTF-8" standalone="no"?> <svg version="1.1" id="Ibbf435f8fe2640ed8610e356ac24a79220251106132945" width="100" height="100" viewBox="0 0 100 100" xmlns="http://www.w3.org/2000/svg" xmlns:svg="http://www.w3.org/2000/svg"> <defs id="I7270ab688f334c4aae8ef6f553aa60f020251106132945" /> <g id="I567e5ade2069412bbc82d6674d9da1a120251106132945"> <path id="I6d089b7f44444e139b40994297b1e8d220251106132945" d="m 22.656,10.938 c 7.121,0 12.93,5.601 13.266,12.636 l 0.016,0.645 v 33.593 c 0,4.317 -3.497,7.813 -7.813,7.813 -4.141,0 -7.531,-3.223 -7.797,-7.297 L 20.312,57.812 V 28.125 c 0,-1.293 1.051,-2.344 2.344,-2.344 1.188,0 2.168,0.883 2.324,2.028 L 25,28.125 v 29.687 c 0,1.727 1.398,3.126 3.125,3.126 1.602,0 2.922,-1.208 3.105,-2.762 l 0.02,-0.364 V 24.219 c 0,-4.746 -3.848,-8.594 -8.594,-8.594 -4.57,0 -8.308,3.566 -8.578,8.07 l -0.016,0.524 v 28.906 c 0,1.293 -1.05,2.344 -2.343,2.344 -1.188,0 -2.168,-0.883 -2.324,-2.028 L 9.375,53.125 V 24.219 c 0,-7.336 5.945,-13.281 13.281,-13.281 z M 50.781,50 c 1.293,0 2.344,1.051 2.344,2.344 0,1.187 -0.883,2.168 -2.027,2.324 l -0.317,0.02 h -7.812 c -1.293,0 -2.344,-1.051 -2.344,-2.344 0,-1.188 0.883,-2.168 2.027,-2.324 L 42.969,50 Z m 12.5,-9.375 c 1.293,0 2.344,1.051 2.344,2.344 0,1.187 -0.883,2.168 -2.027,2.324 l -0.317,0.019 H 42.969 c -1.293,0 -2.344,-1.05 -2.344,-2.343 0,-1.188 0.883,-2.168 2.027,-2.324 l 0.317,-0.02 z m 0,-9.375 c 1.293,0 2.344,1.051 2.344,2.344 0,1.187 -0.883,2.168 -2.027,2.324 l -0.317,0.02 H 42.969 c -1.293,0 -2.344,-1.051 -2.344,-2.344 0,-1.188 0.883,-2.168 2.027,-2.324 l 0.317,-0.02 z m 0,-9.375 c 1.293,0 2.344,1.051 2.344,2.344 0,1.187 -0.883,2.168 -2.027,2.324 l -0.317,0.019 H 42.969 c -1.293,0 -2.344,-1.05 -2.344,-2.343 0,-1.188 0.883,-2.168 2.027,-2.324 l 0.317,-0.02 z" style="fill:currentColor;fill-opacity:1;fill-rule:nonzero;stroke:none" transform="scale(1.3333333)" /> </g>
</svg>

