<?xml version="1.0" encoding="UTF-8" standalone="no"?> <svg version="1.1" id="I1967964b9dee47ef8d4cf2038d434f1420251106161452" width="100" height="100" viewBox="0 0 100 100" xmlns="http://www.w3.org/2000/svg" xmlns:svg="http://www.w3.org/2000/svg"> <defs id="If944f1c188fd4291874d7dd726bda06b20251106161452" /> <g id="Id5fe14af519647c78cf3ba3bc914b3fe20251106161452"> <path id="I3e3fc579f19f41ff95ef6ae8c17de4ad20251106161452" d="M 37.5,26.785 V 5.355 H 17.145 c -3.551,0 -6.43,2.879 -6.43,6.43 v 51.43 c 0,3.551 2.879,6.43 6.43,6.43 h 40.71 c 3.551,0 6.43,-2.879 6.43,-6.43 V 44.598 L 48.582,60.297 c -1.262,1.265 -2.848,2.164 -4.586,2.598 l -4.902,1.226 c -2.535,0.633 -4.926,-0.547 -6.133,-2.516 H 20.758 c -1.11,0 -2.008,-0.898 -2.008,-2.007 0,-1.11 0.898,-2.008 2.008,-2.008 h 11.5 c 0.019,-0.082 0.035,-0.164 0.058,-0.25 l 1.223,-4.902 c 0.438,-1.735 1.332,-3.321 2.598,-4.586 L 51.848,32.145 h -8.993 c -2.957,0 -5.355,-2.399 -5.355,-5.36 z m 22.379,-1.89 c -0.934,0.425 -1.809,1.023 -2.574,1.789 l -1.442,1.441 H 42.855 c -0.738,0 -1.335,-0.602 -1.335,-1.34 V 6.629 c 0.246,0.187 0.484,0.391 0.703,0.609 z m -0.684,3.683 -21.168,21.168 c -0.922,0.922 -1.574,2.078 -1.89,3.34 l -1.227,4.906 c -0.531,2.133 1.399,4.063 3.531,3.531 l 4.907,-1.226 c 1.261,-0.317 2.418,-0.969 3.34,-1.891 L 67.855,37.238 c 2.391,-2.39 2.391,-6.269 0,-8.66 -2.39,-2.39 -6.269,-2.39 -8.66,0 z" style="fill:currentColor;fill-opacity:1;fill-rule:nonzero;stroke:none" transform="scale(1.3333333)" /> </g>
</svg>

