<?xml version="1.0" encoding="UTF-8" standalone="no"?> <svg version="1.1" id="Ie72590fdd02f45909c1038db9f40865e20251105191527" width="100" height="100" viewBox="0 0 100 100" xmlns="http://www.w3.org/2000/svg" xmlns:svg="http://www.w3.org/2000/svg"> <defs id="I0a397841329148539a93595025c20dbd20251105191527" /> <g id="I1e8bc3e9bf094fa4a8e81fcc24d1e48d20251105191527"> <path id="Ia90ba924e79c40789aba5ae33d637f6520251105191527" d="M 74.332,34.32 H 64.102 C 62.652,22.066 52.934,12.348 40.68,10.898 V 0.668 C 40.68,0.301 40.379,0 40.012,0 H 34.988 C 34.621,0 34.32,0.301 34.32,0.668 v 10.23 C 22.066,12.348 12.348,22.066 10.898,34.32 H 0.668 C 0.301,34.32 0,34.621 0,34.988 v 5.024 c 0,0.367 0.301,0.668 0.668,0.668 h 10.23 c 1.45,12.254 11.168,21.972 23.422,23.422 v 10.23 c 0,0.367 0.301,0.668 0.668,0.668 h 5.024 c 0.367,0 0.668,-0.301 0.668,-0.668 V 64.102 C 52.934,62.652 62.652,52.934 64.102,40.68 h 10.23 C 74.699,40.68 75,40.379 75,40.012 V 34.988 C 75,34.621 74.699,34.32 74.332,34.32 Z M 37.5,57.926 c -11.285,0 -20.426,-9.141 -20.426,-20.426 0,-11.285 9.141,-20.426 20.426,-20.426 11.285,0 20.426,9.141 20.426,20.426 0,11.285 -9.141,20.426 -20.426,20.426 z" style="fill:currentColor;fill-opacity:1;fill-rule:nonzero;stroke:none" transform="scale(1.3333333)" /> <path id="I2f593229b13e4f13a56cbb6996bfe7e520251105191527" d="m 37.5,27.457 c -2.688,0 -5.199,1.035 -7.098,2.945 -1.902,1.899 -2.945,4.41 -2.945,7.098 0,2.688 1.043,5.199 2.945,7.098 1.899,1.89 4.418,2.945 7.098,2.945 2.68,0 5.199,-1.043 7.098,-2.945 1.89,-1.899 2.945,-4.418 2.945,-7.098 0,-2.68 -1.043,-5.199 -2.945,-7.098 -1.875,-1.894 -4.434,-2.957 -7.098,-2.945 z" style="fill:currentColor;fill-opacity:1;fill-rule:nonzero;stroke:none" transform="scale(1.3333333)" /> </g>
</svg>

