<?xml version="1.0" encoding="UTF-8" standalone="no"?> <svg version="1.1" id="I435f3ba1b83d43108ebe6dcf16f7958c20251106143238" width="100" height="100" viewBox="0 0 100 100" xmlns="http://www.w3.org/2000/svg" xmlns:svg="http://www.w3.org/2000/svg"> <defs id="I985c3ef13dc6425baf483a3c44de568420251106143238" /> <g id="Icee26de377fe4439a226885b6ffbb0bc20251106143238"> <path id="I05928632835d425687d497b3afaf23b920251106143238" d="m 16.742,8.035 c -4.808,0 -8.707,3.899 -8.707,8.707 v 36.16 c 0,4.809 3.899,8.703 8.707,8.703 h 36.16 c 4.809,0 8.703,-3.894 8.703,-8.703 v -36.16 c 0,-4.808 -3.894,-8.707 -8.703,-8.707 z m -4.687,8.707 c 0,-2.59 2.097,-4.687 4.687,-4.687 h 36.16 c 2.59,0 4.688,2.097 4.688,4.687 V 18.75 H 12.055 Z m 0,6.028 H 57.59 v 30.132 c 0,2.59 -2.098,4.688 -4.688,4.688 h -36.16 c -2.59,0 -4.687,-2.098 -4.687,-4.688 z M 23.43,68.305 c -3.082,0 -5.789,-1.602 -7.336,-4.02 h 38.14 c 5.547,0 10.043,-4.496 10.043,-10.043 v -2.875 c 0.004,-0.156 0.008,-0.316 0.008,-0.472 v -34.79 c 2.41,1.547 4.012,4.254 4.012,7.333 v 30.804 c 0,7.766 -6.297,14.063 -14.063,14.063 z" style="fill:currentColor;fill-opacity:1;fill-rule:nonzero;stroke:none" transform="scale(1.3333333)" /> </g>
</svg>

