<?xml version="1.0" encoding="UTF-8" standalone="no"?> <svg version="1.1" id="Ibc9cc73489ea416d9fb7f1c29bef41e920251106125938" width="100" height="100" viewBox="0 0 100 100" xmlns="http://www.w3.org/2000/svg" xmlns:svg="http://www.w3.org/2000/svg"> <defs id="I87a78601bfee4e53b70cbcb20fde841e20251106125938" /> <g id="I17fdbcae6fe14e9b8bfb05c48810db4020251106125938"> <path id="I10eba955284c49ef988503788a1d3ab020251106125938" d="m 37.07,14.062 c -4.062,0.075 -8.101,1.196 -11.687,3.364 L 21.312,13.352 C 25.488,10.547 30.234,8.941 35.055,8.535 L 32.859,6.34 c -1.097,-1.098 -1.097,-2.879 0,-3.977 1.098,-1.101 2.879,-1.101 3.977,0 l 7.957,7.953 c 1.098,1.098 1.098,2.879 0,3.977 l -7.957,7.957 c -1.098,1.098 -2.879,1.098 -3.977,0 -1.097,-1.098 -1.097,-2.879 0,-3.977 z m -21.406,4.25 C 5.617,29.73 6.047,47.141 16.949,58.047 c 0.996,0.996 2.047,1.902 3.141,2.726 1.242,0.93 3.008,0.68 3.937,-0.566 0.934,-1.242 0.68,-3.004 -0.562,-3.937 -0.883,-0.661 -1.731,-1.395 -2.539,-2.2 -8.707,-8.707 -9.129,-22.558 -1.274,-31.769 l 33.043,33.043 c -4.254,3.629 -9.492,5.488 -14.765,5.586 l 4.211,-4.211 c 1.097,-1.098 1.097,-2.879 0,-3.977 -1.098,-1.097 -2.879,-1.097 -3.977,0 l -7.957,7.957 c -1.098,1.098 -1.098,2.879 0,3.977 l 7.957,7.953 c 1.098,1.101 2.879,1.101 3.977,0 1.097,-1.098 1.097,-2.879 0,-3.977 l -2.196,-2.195 c 6.016,-0.508 11.914,-2.883 16.739,-7.125 l 7.617,7.613 c 0.73,0.735 1.918,0.735 2.648,0 0.735,-0.73 0.735,-1.918 0,-2.648 L 10.699,8.047 c -0.73,-0.735 -1.918,-0.735 -2.648,0 -0.735,0.73 -0.735,1.918 0,2.648 z m 41.906,31.297 4.075,4.075 c 7.593,-11.297 6.394,-26.75 -3.594,-36.739 -0.996,-0.996 -2.047,-1.902 -3.141,-2.726 -1.242,-0.93 -3.008,-0.68 -3.937,0.566 -0.934,1.242 -0.68,3.004 0.562,3.938 0.883,0.66 1.731,1.394 2.539,2.199 7.781,7.785 8.946,19.676 3.496,28.687 z" style="fill:currentColor;fill-opacity:1;fill-rule:nonzero;stroke:none" transform="scale(1.3333333)" /> </g>
</svg>

