<?xml version="1.0" encoding="UTF-8" standalone="no"?> <svg version="1.1" id="Icaf4a62bc31b4e21b369b85204eeb8d420251106170412" width="100" height="100" viewBox="0 0 100 100" xmlns="http://www.w3.org/2000/svg" xmlns:svg="http://www.w3.org/2000/svg"> <defs id="I36af8cd30db440e19159807984eeee3620251106170412" /> <g id="Ief9f4d7a689a4b059e0267da86adb44720251106170412"> <path id="I0b6583645b3b46e1a3e6b8f746997d6120251106170412" d="m 9.375,19.531 c 0,-5.609 4.547,-10.156 10.156,-10.156 h 35.938 c 5.609,0 10.156,4.547 10.156,10.156 v 35.938 c 0,5.609 -4.547,10.156 -10.156,10.156 H 19.531 c -5.609,0 -10.156,-4.547 -10.156,-10.156 z m 10.156,-5.469 c -3.019,0 -5.469,2.45 -5.469,5.469 v 35.938 c 0,3.019 2.45,5.469 5.469,5.469 H 35.156 V 14.062 Z m 35.938,46.876 c 3.019,0 5.469,-2.45 5.469,-5.469 V 39.844 H 39.844 V 60.938 Z M 60.938,35.156 V 19.531 c 0,-3.019 -2.45,-5.469 -5.469,-5.469 H 39.844 v 21.094 z" style="fill:currentColor;fill-opacity:1;fill-rule:nonzero;stroke:none" transform="scale(1.3333333)" /> </g>
</svg>

