<?xml version="1.0" encoding="UTF-8" standalone="no"?> <svg version="1.1" id="I6658d355c9784739a249244651d5663f20251110124422" width="100" height="100" viewBox="0 0 100 100" xmlns="http://www.w3.org/2000/svg" xmlns:svg="http://www.w3.org/2000/svg"> <defs id="I04fa9cb85947435a8bafc245fd515f3e20251110124422" /> <g id="I45401da66acd4a4d92a4acf43d76a5ba20251110124422"> <path id="I0b54e9edcf8e40c293cfd64f52193eda20251110124422" d="m 21.875,21.875 v -6.25 c 0,-5.176 4.199,-9.375 9.375,-9.375 2.402,0 4.59,0.902 6.25,2.387 1.66,-1.485 3.848,-2.387 6.25,-2.387 5.18,0 9.375,4.199 9.375,9.375 v 6.25 h 4.687 c 2.59,0 4.688,2.098 4.688,4.687 v 9.372 C 61.02,35.312 59.449,34.867 57.812,34.613 V 26.562 H 45.344 V 36.648 C 43.621,37.539 42.047,38.672 40.656,40 V 26.562 H 17.188 V 56.25 c 0,4.316 3.496,7.812 7.812,7.812 h 11.664 c 0.898,1.723 2.035,3.301 3.367,4.688 H 25 c -6.902,0 -12.5,-5.598 -12.5,-12.5 V 26.562 c 0,-2.589 2.098,-4.687 4.688,-4.687 z m 14.063,0 v -6.25 c 0,-2.59 -2.098,-4.687 -4.688,-4.687 -2.59,0 -4.688,2.097 -4.688,4.687 v 6.25 z m 4.687,0 h 7.813 v -6.25 c 0,-2.59 -2.098,-4.687 -4.688,-4.687 -1.453,0 -2.75,0.66 -3.609,1.699 0.312,0.937 0.484,1.945 0.484,2.988 z m 31.25,32.813 c 0,9.492 -7.695,17.187 -17.187,17.187 C 45.195,71.875 37.5,64.18 37.5,54.688 37.5,45.195 45.195,37.5 54.688,37.5 c 9.492,0 17.187,7.695 17.187,17.188 z M 49.543,47.332 c -0.609,-0.609 -1.602,-0.609 -2.211,0 -0.609,0.609 -0.609,1.602 0,2.211 l 5.145,5.145 -5.145,5.144 c -0.609,0.609 -0.609,1.602 0,2.211 0.609,0.609 1.602,0.609 2.211,0 l 5.145,-5.145 5.144,5.145 c 0.609,0.609 1.602,0.609 2.211,0 0.609,-0.609 0.609,-1.602 0,-2.211 l -5.145,-5.144 5.145,-5.145 c 0.609,-0.609 0.609,-1.602 0,-2.211 -0.609,-0.609 -1.602,-0.609 -2.211,0 l -5.144,5.145 z" style="fill:currentColor;fill-opacity:1;fill-rule:nonzero;stroke:none" transform="scale(1.3333333)" /> </g>
</svg>

