<?xml version="1.0" encoding="UTF-8" standalone="no"?> <svg version="1.1" id="I07dc7a338858460ba37c4eaaae80ad5120251106143239" width="100" height="100" viewBox="0 0 100 100" xmlns="http://www.w3.org/2000/svg" xmlns:svg="http://www.w3.org/2000/svg"> <defs id="Icaa0130a9e464d01b79370b74a2cff8520251106143239" /> <g id="Ic432e960aabd48da8621058241a92ef120251106143239"> <path id="Iceae9684c0f54fd2b737eb3e0955cb5b20251106143239" d="m 29.77,11.164 2.816,6.266 c 1.508,3.355 0.715,7.3 -1.977,9.808 l -4.671,4.356 c -0.137,0.129 -0.223,0.301 -0.243,0.484 -0.136,1.242 0.703,3.66 2.641,7.016 1.41,2.441 2.687,4.152 3.773,5.117 0.754,0.672 1.172,0.816 1.348,0.762 l 6.285,-1.918 c 3.516,-1.078 7.328,0.203 9.481,3.187 l 4,5.547 c 2.519,3.492 2.066,8.309 -1.059,11.27 L 49.395,65.68 C 46.406,68.512 42.152,69.566 38.188,68.461 29.578,66.059 21.863,58.793 14.949,46.82 8.027,34.832 5.602,24.508 7.84,15.844 8.863,11.883 11.883,8.738 15.805,7.559 L 19.449,6.457 C 23.582,5.211 28,7.227 29.77,11.164 Z m -8.969,-0.219 -3.645,1.102 c -2.351,0.707 -4.164,2.594 -4.777,4.973 -1.883,7.285 0.269,16.437 6.633,27.457 6.351,11.007 13.195,17.445 20.433,19.468 2.379,0.664 4.934,0.032 6.727,-1.668 l 2.769,-2.625 c 1.422,-1.343 1.625,-3.535 0.481,-5.121 l -4,-5.547 c -0.981,-1.355 -2.711,-1.937 -4.313,-1.449 l -6.297,1.926 c -3.656,1.09 -6.972,-1.852 -10.535,-8.023 -2.402,-4.161 -3.519,-7.376 -3.242,-9.879 0.149,-1.297 0.75,-2.504 1.707,-3.395 l 4.668,-4.352 c 1.227,-1.14 1.586,-2.933 0.899,-4.46 L 25.492,13.086 C 24.688,11.297 22.68,10.379 20.801,10.945 Z M 53.59,6.262 53.906,6.242 c 1.188,0 2.168,0.883 2.324,2.028 l 0.02,0.316 v 10.168 l 10.164,0.004 c 1.188,0 2.168,0.879 2.32,2.023 l 0.024,0.321 c 0,1.183 -0.883,2.164 -2.028,2.32 L 66.414,23.445 56.25,23.441 v 10.153 c 0,1.187 -0.879,2.168 -2.023,2.324 l -0.321,0.02 c -1.183,0 -2.164,-0.879 -2.32,-2.024 l -0.024,-0.32 V 23.441 l -10.16,0.004 c -1.187,0 -2.168,-0.883 -2.32,-2.027 l -0.023,-0.316 c 0,-1.188 0.882,-2.168 2.027,-2.325 l 0.316,-0.019 10.16,-0.004 V 8.586 c 0,-1.188 0.883,-2.168 2.028,-2.324 l 0.316,-0.02 z" style="fill:currentColor;fill-opacity:1;fill-rule:nonzero;stroke:none" transform="scale(1.3333333)" /> </g>
</svg>

