<?xml version="1.0" encoding="UTF-8" standalone="no"?> <svg version="1.1" id="I90f6d030b9324bdaa2b9b498f3b551e220251106165302" width="100" height="100" viewBox="0 0 100 100" xmlns="http://www.w3.org/2000/svg" xmlns:svg="http://www.w3.org/2000/svg"> <defs id="I34330dab3ac84101a29b6939ee09d71920251106165302" /> <g id="I15fe11fcd0d54fa8b03b78c3126b510c20251106165302"> <path id="Idadc1d6c8cd640a49647ed86f17d1b7d20251106165302" d="m 30.805,10.715 c 2.621,0 4.992,1.078 6.695,2.812 1.703,-1.734 4.074,-2.812 6.695,-2.812 h 20.09 c 2.961,0 5.36,2.398 5.36,5.355 v 25.5 C 69.523,41.461 69.41,41.359 69.297,41.266 67.848,40.059 65.887,39.871 64.285,40.629 V 16.07 h -20.09 c -2.218,0 -4.015,1.801 -4.015,4.02 v 25.445 h -0.672 c -2.586,0 -4.688,2.098 -4.688,4.688 V 20.09 c 0,-2.219 -1.797,-4.02 -4.015,-4.02 h -20.09 v 42.86 h 20.09 c 2.218,0 4.015,-1.801 4.015,-4.02 v 4.688 c 0,1.195 0.45,2.285 1.184,3.113 -1.488,0.996 -3.277,1.574 -5.199,1.574 h -20.09 c -2.961,0 -5.36,-2.398 -5.36,-5.355 V 16.07 c 0,-2.957 2.399,-5.355 5.36,-5.355 z M 56.25,64.219 c 0.023,0.023 0.043,0.047 0.066,0.066 H 56.25 Z M 52.27,42.984 c 0.781,0.297 1.3,1.043 1.3,1.883 v 20.09 c 0,0.836 -0.519,1.586 -1.3,1.879 -0.786,0.293 -1.668,0.074 -2.219,-0.559 l -4.086,-4.672 h -6.457 c -1.11,0 -2.008,-0.898 -2.008,-2.007 v -9.375 c 0,-1.11 0.898,-2.008 2.008,-2.008 h 6.457 l 4.086,-4.672 c 0.551,-0.629 1.433,-0.852 2.219,-0.559 z m 17.757,3.36 c -0.879,-1.465 -1.781,-2.469 -2.445,-3.02 -0.855,-0.711 -2.121,-0.597 -2.832,0.258 -0.707,0.852 -0.594,2.117 0.258,2.828 0.34,0.281 0.945,0.953 1.574,2 1.074,1.793 1.723,3.949 1.723,6.5 0,2.551 -0.649,4.707 -1.723,6.5 -0.629,1.047 -1.234,1.719 -1.574,2.004 -0.852,0.707 -0.965,1.977 -0.258,2.828 0.711,0.852 1.977,0.969 2.832,0.258 0.664,-0.555 1.566,-1.559 2.445,-3.023 1.434,-2.391 2.293,-5.258 2.293,-8.567 0,-3.308 -0.859,-6.172 -2.293,-8.566 z m -7.418,2.933 c -0.64,-0.961 -1.3,-1.621 -1.804,-2 -0.887,-0.668 -2.149,-0.484 -2.813,0.403 -0.668,0.886 -0.488,2.144 0.403,2.812 0.164,0.121 0.507,0.469 0.871,1.012 0.629,0.941 1.004,2.066 1.004,3.406 0,1.34 -0.375,2.465 -1.004,3.406 -0.364,0.547 -0.707,0.891 -0.871,1.016 l -0.227,0.195 c -0.688,0.696 -0.781,1.809 -0.176,2.618 0.664,0.886 1.926,1.066 2.813,0.398 0.504,-0.375 1.164,-1.035 1.804,-1.996 1.047,-1.574 1.676,-3.461 1.676,-5.637 0,-2.176 -0.629,-4.062 -1.676,-5.633 z" style="fill:currentColor;fill-opacity:1;fill-rule:nonzero;stroke:none" transform="scale(1.3333333)" /> </g>
</svg>

