<?xml version="1.0" encoding="UTF-8" standalone="no"?> <svg version="1.1" id="Ia07db6e8f0984c08945f2da2c11de6b520251110130510" width="100" height="100" viewBox="0 0 100 100" xmlns="http://www.w3.org/2000/svg" xmlns:svg="http://www.w3.org/2000/svg"> <defs id="I373270ad7f3a4ed8b9b03ac52edd4d6820251110130510" /> <g id="I8bf8e783af68473d833fb1b2da08b06420251110130510"> <path id="Id108f35fa9724a68a5c09ff36cd55ad520251110130510" d="m 9.375,19.531 c 0,-5.609 4.547,-10.156 10.156,-10.156 h 35.938 c 5.609,0 10.156,4.547 10.156,10.156 v 14.883 c -1.582,-0.137 -3.191,0.094 -4.687,0.688 V 19.531 c 0,-3.019 -2.45,-5.469 -5.469,-5.469 H 19.531 c -3.019,0 -5.469,2.45 -5.469,5.469 v 35.938 c 0,3.019 2.45,5.469 5.469,5.469 h 16.535 c -0.023,0.078 -0.043,0.16 -0.062,0.238 l -1.113,4.449 h -15.36 c -5.609,0 -10.156,-4.547 -10.156,-10.156 z m 38.609,27.344 -4.687,4.687 h -8.141 c -1.293,0 -2.344,-1.05 -2.344,-2.343 0,-1.293 1.051,-2.344 2.344,-2.344 z M 24.219,28.906 c 1.726,0 3.125,-1.398 3.125,-3.125 0,-1.726 -1.399,-3.125 -3.125,-3.125 -1.727,0 -3.125,1.399 -3.125,3.125 0,1.727 1.398,3.125 3.125,3.125 z m 10.937,-5.468 c -1.293,0 -2.344,1.05 -2.344,2.343 0,1.293 1.051,2.344 2.344,2.344 h 17.188 c 1.293,0 2.344,-1.051 2.344,-2.344 0,-1.293 -1.051,-2.343 -2.344,-2.343 z M 32.812,37.5 c 0,-1.293 1.051,-2.344 2.344,-2.344 h 17.188 c 1.293,0 2.344,1.051 2.344,2.344 0,1.293 -1.051,2.344 -2.344,2.344 H 35.156 c -1.293,0 -2.344,-1.051 -2.344,-2.344 z m -8.593,3.125 c 1.726,0 3.125,-1.398 3.125,-3.125 0,-1.727 -1.399,-3.125 -3.125,-3.125 -1.727,0 -3.125,1.398 -3.125,3.125 0,1.727 1.398,3.125 3.125,3.125 z m 0,11.719 c 1.726,0 3.125,-1.399 3.125,-3.125 0,-1.727 -1.399,-3.125 -3.125,-3.125 -1.727,0 -3.125,1.398 -3.125,3.125 0,1.726 1.398,3.125 3.125,3.125 z M 59.688,39.594 41.242,58.039 c -1.074,1.074 -1.84,2.422 -2.207,3.899 l -1.43,5.718 c -0.621,2.489 1.629,4.742 4.118,4.121 l 5.722,-1.433 c 1.477,-0.367 2.825,-1.129 3.899,-2.207 L 69.789,49.695 c 2.789,-2.793 2.789,-7.312 0,-10.101 -2.789,-2.793 -7.312,-2.793 -10.101,0 z" style="fill:currentColor;fill-opacity:1;fill-rule:nonzero;stroke:none" transform="scale(1.3333333)" /> </g>
</svg>

