<?xml version="1.0" encoding="UTF-8" standalone="no"?> <svg version="1.1" id="I22dfb0e954c04f959e52b8b364e330c420251106144520" width="100" height="100" viewBox="0 0 100 100" xmlns="http://www.w3.org/2000/svg" xmlns:svg="http://www.w3.org/2000/svg"> <defs id="Ia4b8d9d8b6424573ba63a587f461b35320251106144520" /> <g id="Ibb9244108c9640178011e502d827c58820251106144520"> <path id="Ia5d010262d8c4a94a3956f54f11feaaf20251106144520" d="M 62.5,29.547 V 29.383 C 62.453,16.598 52.078,6.25 39.285,6.25 c -0.113,0 -0.226,0 -0.34,0.004 C 38.129,6.266 37.5,6.949 37.5,7.766 v 21.922 c 0,0.863 0.699,1.562 1.562,1.562 h 21.922 c 0.817,0 1.5,-0.629 1.512,-1.445 C 62.5,29.719 62.5,29.633 62.5,29.547 Z M 32.812,14.062 c 0,-0.863 -0.703,-1.566 -1.562,-1.511 C 19.035,13.355 9.375,23.52 9.375,35.938 c 0,12.945 10.492,23.437 23.437,23.437 0.583,0 1.161,-0.02 1.731,-0.063 0.75,-3.535 3.887,-6.187 7.645,-6.187 1.757,0 3.382,0.582 4.687,1.563 v -3.126 c 0,-4.316 3.496,-7.812 7.813,-7.812 0.078,0 0.152,0 0.226,0.004 0.699,-1.977 1.141,-4.074 1.285,-6.254 0.055,-0.859 -0.648,-1.562 -1.511,-1.562 h -18.75 c -1.727,0 -3.126,-1.399 -3.126,-3.126 z M 62.5,42.188 c 0,-2.59 2.098,-4.688 4.688,-4.688 2.589,0 4.687,2.098 4.687,4.688 v 25 c 0,2.589 -2.098,4.687 -4.687,4.687 -2.59,0 -4.688,-2.098 -4.688,-4.687 z m -7.812,4.687 c -2.59,0 -4.688,2.098 -4.688,4.687 v 15.626 c 0,2.589 2.098,4.687 4.688,4.687 2.589,0 4.687,-2.098 4.687,-4.687 V 51.562 c 0,-2.589 -2.098,-4.687 -4.687,-4.687 z m -12.5,9.375 c -2.59,0 -4.688,2.098 -4.688,4.688 v 6.25 c 0,2.589 2.098,4.687 4.688,4.687 2.589,0 4.687,-2.098 4.687,-4.687 v -6.25 c 0,-2.59 -2.098,-4.688 -4.687,-4.688 z" style="fill:currentColor;fill-opacity:1;fill-rule:nonzero;stroke:none" transform="scale(1.3333333)" /> </g>
</svg>

