<?xml version="1.0" encoding="UTF-8" standalone="no"?> <svg version="1.1" id="I27aa0392d58a41b889c606f55155226320251106171633" width="100" height="100" viewBox="0 0 100 100" xmlns="http://www.w3.org/2000/svg" xmlns:svg="http://www.w3.org/2000/svg"> <defs id="I5590543649ac43328d3e3b506de5b53720251106171633" /> <g id="Ic6c8373302544549afc252e4d9481c9620251106171633"> <path id="I7691dc770a1742ce89e05ff0f131992320251106171633" d="m 14.062,4.688 c 1.293,0 2.344,1.05 2.344,2.343 v 7.031 c 0,1.293 -1.051,2.344 -2.344,2.344 H 7.031 c -1.293,0 -2.343,-1.051 -2.343,-2.344 0,-1.292 1.05,-2.343 2.343,-2.343 h 4.688 V 7.031 c 0,-1.293 1.051,-2.343 2.343,-2.343 z m 46.876,0 c 1.292,0 2.343,1.05 2.343,2.343 v 4.688 h 4.688 c 1.293,0 2.343,1.051 2.343,2.343 0,1.293 -1.05,2.344 -2.343,2.344 h -7.031 c -1.293,0 -2.344,-1.051 -2.344,-2.344 V 7.031 c 0,-1.293 1.051,-2.343 2.344,-2.343 z M 25.781,16.406 c -2.59,0 -4.687,2.098 -4.687,4.688 v 32.812 c 0,2.59 2.097,4.688 4.687,4.688 h 23.438 c 2.59,0 4.687,-2.098 4.687,-4.688 V 21.094 c 0,-2.59 -2.097,-4.688 -4.687,-4.688 z m 0,4.688 H 49.219 V 53.906 H 25.781 Z m 5.86,7.031 c -1.293,0 -2.344,1.051 -2.344,2.344 0,1.293 1.051,2.343 2.344,2.343 h 11.718 c 1.293,0 2.344,-1.05 2.344,-2.343 0,-1.293 -1.051,-2.344 -2.344,-2.344 z m 0,9.375 c -1.293,0 -2.344,1.051 -2.344,2.344 0,1.293 1.051,2.344 2.344,2.344 h 7.031 c 1.293,0 2.344,-1.051 2.344,-2.344 0,-1.293 -1.051,-2.344 -2.344,-2.344 z M 16.406,67.969 c 0,1.293 -1.051,2.343 -2.344,2.343 -1.292,0 -2.343,-1.05 -2.343,-2.343 V 63.281 H 7.031 c -1.293,0 -2.343,-1.051 -2.343,-2.343 0,-1.293 1.05,-2.344 2.343,-2.344 h 7.031 c 1.293,0 2.344,1.051 2.344,2.344 z m 46.875,0 c 0,1.293 -1.051,2.343 -2.343,2.343 -1.293,0 -2.344,-1.05 -2.344,-2.343 v -7.031 c 0,-1.293 1.051,-2.344 2.344,-2.344 h 7.031 c 1.293,0 2.343,1.051 2.343,2.344 0,1.292 -1.05,2.343 -2.343,2.343 h -4.688 z" style="fill:currentColor;fill-opacity:1;fill-rule:nonzero;stroke:none" transform="scale(1.3333333)" /> </g>
</svg>

