<?xml version="1.0" encoding="UTF-8" standalone="no"?> <svg version="1.1" id="Ib1c98d563d3d425da71ab60ebd348c8f20251106152729" width="100" height="100" viewBox="0 0 100 100" xmlns="http://www.w3.org/2000/svg" xmlns:svg="http://www.w3.org/2000/svg"> <defs id="I388f86c1814f4b5b9a76504b94062b6220251106152729" /> <g id="I6ec556836a23468eb2678a8ff46a7f7f20251106152729"> <path id="I746216cc658e4b3c9fbc4da846f1ce7920251106152729" d="m 19.531,9.375 c -3.883,0 -7.031,3.148 -7.031,7.031 v 7.813 c 0,3.883 3.148,7.031 7.031,7.031 h 29.688 c 3.883,0 7.031,-3.148 7.031,-7.031 v -7.813 c 0,-3.883 -3.148,-7.031 -7.031,-7.031 z M 54.227,51.391 54,51.656 c -0.832,0.832 -2.133,0.906 -3.051,0.227 l -0.261,-0.227 -6.25,-6.25 C 43.605,44.574 43.527,43.27 44.211,42.352 l 0.227,-0.262 6.25,-6.25 c 0.914,-0.914 2.398,-0.914 3.312,0 0.832,0.832 0.91,2.133 0.227,3.051 L 54,39.156 l -2.246,2.25 h 4.687 c 2.02,0 3.684,-1.539 3.883,-3.508 L 60.348,37.5 v -7.031 c 0,-1.297 1.047,-2.344 2.343,-2.344 1.184,0 2.164,0.883 2.321,2.023 l 0.023,0.321 V 37.5 c 0,4.57 -3.57,8.309 -8.07,8.578 l -0.524,0.016 H 51.758 L 54,48.34 c 0.832,0.832 0.91,2.133 0.227,3.051 z M 44.605,37.5 l -2.46,2.461 -0.375,0.437 -0.071,0.094 c -1.59,2.141 -1.418,5.18 0.528,7.121 l 6.332,6.332 0.437,0.375 0.09,0.071 c 2.144,1.589 5.18,1.418 7.125,-0.528 l 0.039,-0.039 v 6.332 c 0,3.883 -3.148,7.032 -7.031,7.032 H 19.531 c -3.883,0 -7.031,-3.149 -7.031,-7.032 V 44.531 c 0,-3.883 3.148,-7.031 7.031,-7.031 z M 25,52.344 c 0,1.293 0.98,2.344 2.188,2.344 h 14.374 c 1.208,0 2.188,-1.051 2.188,-2.344 C 43.75,51.051 42.77,50 41.562,50 H 27.188 C 25.98,50 25,51.051 25,52.344 Z" style="fill:currentColor;fill-opacity:1;fill-rule:nonzero;stroke:none" transform="scale(1.3333333)" /> </g>
</svg>

