<?xml version="1.0" encoding="UTF-8" standalone="no"?> <svg version="1.1" id="I01c3f3d5260849d3974c47561467b20420251106132946" width="100" height="100" viewBox="0 0 100 100" xmlns="http://www.w3.org/2000/svg" xmlns:svg="http://www.w3.org/2000/svg"> <defs id="I710d92e8a5ba4174974261ee860d211c20251106132946" /> <g id="I8a1a7817230a4b9f8e7e7a11fa44f3f320251106132946"> <path id="I8609ab7cb10b4d9696302aadf6baed4f20251106132946" d="m 34.375,31.25 c 0,-2.156 1.75,-3.906 3.906,-3.906 2.157,0 3.907,1.75 3.907,3.906 0,2.156 -1.75,3.906 -3.907,3.906 -2.156,0 -3.906,-1.75 -3.906,-3.906 z M 12.5,14.062 C 12.5,9.746 15.996,6.25 20.312,6.25 H 56.25 c 4.316,0 7.812,3.496 7.812,7.812 v 44.532 c 0,1.293 -1.05,2.344 -2.343,2.344 H 17.188 c 0,1.726 1.398,3.124 3.124,3.124 h 41.407 c 1.293,0 2.343,1.051 2.343,2.344 0,1.293 -1.05,2.344 -2.343,2.344 H 20.312 c -4.316,0 -7.812,-3.496 -7.812,-7.812 z m 28.125,3.907 c 0,-1.293 -1.051,-2.344 -2.344,-2.344 -1.293,0 -2.343,1.051 -2.343,2.344 v 5.011 c -3.606,1.02 -6.25,4.336 -6.25,8.27 0,2.441 1.015,4.641 2.648,6.207 l -4.043,10.109 c -0.481,1.204 0.105,2.567 1.305,3.047 1.203,0.481 2.566,-0.105 3.047,-1.304 l 3.859,-9.649 c 0.574,0.121 1.168,0.184 1.777,0.184 0.61,0 1.203,-0.063 1.778,-0.184 l 3.859,9.649 c 0.48,1.199 1.844,1.785 3.047,1.304 1.199,-0.48 1.785,-1.843 1.305,-3.047 L 44.227,37.457 c 1.632,-1.566 2.648,-3.766 2.648,-6.207 0,-3.934 -2.645,-7.25 -6.25,-8.27 z" style="fill:currentColor;fill-opacity:1;fill-rule:nonzero;stroke:none" transform="scale(1.3333333)" /> </g>
</svg>

