<?xml version="1.0" encoding="UTF-8" standalone="no"?> <svg version="1.1" id="Ia17b0d98f3db4703b2a9c4f0e570cf4b20251110130507" width="100" height="100" viewBox="0 0 100 100" xmlns="http://www.w3.org/2000/svg" xmlns:svg="http://www.w3.org/2000/svg"> <defs id="I69752dab403f4e40b4643bed5a6d297c20251110130507" /> <g id="I548c9e15b50e48dd80b2d946fa7d639320251110130507"> <path id="I7ffe6732efbd45efbd5ad7396962ef3220251110130507" d="M 37.5,9.375 C 21.969,9.375 9.375,21.969 9.375,37.5 9.375,53.031 21.969,65.625 37.5,65.625 53.031,65.625 65.625,53.031 65.625,37.5 65.625,21.969 53.031,9.375 37.5,9.375 Z M 5.355,37.5 C 5.355,19.746 19.746,5.355 37.5,5.355 55.254,5.355 69.645,19.746 69.645,37.5 69.645,55.254 55.254,69.645 37.5,69.645 19.746,69.645 5.355,55.254 5.355,37.5 Z M 32.812,24.105 c 1.11,0 2.008,0.903 2.008,2.012 v 22.766 c 0,1.109 -0.898,2.012 -2.008,2.012 -1.109,0 -2.007,-0.903 -2.007,-2.012 V 26.117 c 0,-1.109 0.898,-2.012 2.007,-2.012 z m -7.367,8.707 c 0,-1.109 -0.898,-2.007 -2.007,-2.007 -1.11,0 -2.008,0.898 -2.008,2.007 v 9.376 c 0,1.109 0.898,2.007 2.008,2.007 1.109,0 2.007,-0.898 2.007,-2.007 z m 16.743,-3.347 c 1.109,0 2.007,0.898 2.007,2.008 v 12.054 c 0,1.11 -0.898,2.008 -2.007,2.008 -1.11,0 -2.008,-0.898 -2.008,-2.008 V 31.473 c 0,-1.11 0.898,-2.008 2.008,-2.008 z M 53.57,26.117 c 0,-1.109 -0.898,-2.012 -2.008,-2.012 -1.109,0 -2.007,0.903 -2.007,2.012 v 22.766 c 0,1.109 0.898,2.012 2.007,2.012 1.11,0 2.008,-0.903 2.008,-2.012 z" style="fill:currentColor;fill-opacity:1;fill-rule:nonzero;stroke:none" transform="scale(1.3333333)" /> </g>
</svg>

