<?xml version="1.0" encoding="UTF-8" standalone="no"?> <svg version="1.1" id="I9ac3c3a216d349f7b19efad574ab2fbb20251106102216" width="100" height="100" viewBox="0 0 100 100" xmlns="http://www.w3.org/2000/svg" xmlns:svg="http://www.w3.org/2000/svg"> <defs id="Ice1324c6f09046baa9741a88e5d2574c20251106102216" /> <g id="I88ae6cd5edcc428cac7f5d281b71128d20251106102216"> <path id="I0781913e14fe4fd2a97ed379666a104b20251106102216" d="M 64.957,10.715 H 60.27 V 4.688 C 60.27,3.574 59.371,2.68 58.258,2.68 H 8.707 c -1.113,0 -2.012,0.894 -2.012,2.008 v 22.769 c 0,1.113 0.899,2.008 2.012,2.008 h 49.551 c 1.113,0 2.012,-0.895 2.012,-2.008 V 16.07 h 2.675 V 32.812 H 33.566 c -1.851,0 -3.347,1.5 -3.347,3.348 v 11.383 h -3.684 c -0.367,0 -0.672,0.305 -0.672,0.672 v 19.086 c 0,0.047 0.012,0.105 0.02,0.156 -0.145,1.949 0.531,3.871 1.863,5.301 1.332,1.43 3.195,2.242 5.149,2.242 3.886,0 7.031,-3.148 7.031,-7.031 0,-0.176 -0.008,-0.344 -0.016,-0.512 0.008,-0.051 0.016,-0.098 0.016,-0.156 V 48.215 c 0,-0.367 -0.301,-0.672 -0.668,-0.672 h -3.684 v -9.375 h 29.383 c 1.848,0 3.348,-1.496 3.348,-3.348 V 14.062 c 0,-1.851 -1.5,-3.347 -3.348,-3.347 z M 54.91,24.105 H 12.055 V 8.035 H 54.91 Z M 34.57,67.969 c 0,0.922 -0.754,1.676 -1.675,1.676 -0.918,0 -1.672,-0.754 -1.672,-1.676 V 52.902 h 3.347 z" style="fill:currentColor;fill-opacity:1;fill-rule:nonzero;stroke:none" transform="scale(1.3333333)" /> </g>
</svg>

