<?xml version="1.0" encoding="UTF-8" standalone="no"?> <svg version="1.1" id="I077163eae6b24238b2aaa9259b08f61920251110123030" width="100" height="100" viewBox="0 0 100 100" xmlns="http://www.w3.org/2000/svg" xmlns:svg="http://www.w3.org/2000/svg"> <defs id="If44d2af087814b5891a22b1246d4549320251110123030" /> <g id="I237f1c6b997b424da78d5bd83c26962f20251110123030"> <path id="Ia3e67c1062bd482f91d46e8520554e6220251110123030" d="m 37.695,65.273 c 0.793,1.309 1.727,2.524 2.789,3.618 -2.597,0.488 -5.39,0.754 -8.339,0.754 -15.508,0 -26.79,-6.875 -26.79,-16.836 v -1.914 c 0,-4.442 3.598,-8.04 8.04,-8.04 H 38.84 c -0.93,1.239 -1.719,2.586 -2.348,4.02 H 13.395 c -2.09,0 -3.805,1.594 -4,3.629 l -0.02,0.391 v 1.914 c 0,7.16 9.078,12.816 22.77,12.816 1.941,0 3.796,-0.121 5.55,-0.352 z M 32.145,5.355 c 8.875,0 16.07,7.196 16.07,16.075 0,8.875 -7.195,16.07 -16.07,16.07 -8.879,0 -16.075,-7.195 -16.075,-16.07 0,-8.879 7.196,-16.075 16.075,-16.075 z m 0,4.02 c -6.661,0 -12.055,5.398 -12.055,12.055 0,6.656 5.394,12.05 12.055,12.05 6.656,0 12.05,-5.394 12.05,-12.05 0,-6.657 -5.394,-12.055 -12.05,-12.055 z M 72.32,54.91 c 0,9.617 -7.793,17.41 -17.41,17.41 -9.617,0 -17.41,-7.793 -17.41,-17.41 0,-9.617 7.793,-17.41 17.41,-17.41 9.617,0 17.41,7.793 17.41,17.41 z M 47.43,50.895 50.5,47.82 c 0.523,-0.519 0.523,-1.371 0,-1.89 -0.523,-0.524 -1.371,-0.524 -1.895,0 l -5.355,5.355 c -0.523,0.524 -0.523,1.371 0,1.895 l 5.355,5.355 c 0.524,0.524 1.372,0.524 1.895,0 0.523,-0.523 0.523,-1.371 0,-1.894 L 47.43,53.57 h 6.812 c 4.067,0 7.363,3.301 7.363,7.368 v 0.667 c 0,0.743 0.602,1.34 1.34,1.34 0.743,0 1.34,-0.597 1.34,-1.34 v -0.667 c 0,-5.547 -4.496,-10.043 -10.043,-10.043 z" style="fill:currentColor;fill-opacity:1;fill-rule:nonzero;stroke:none" transform="scale(1.3333333)" /> </g>
</svg>

