<?xml version="1.0" encoding="UTF-8" standalone="no"?> <svg version="1.1" id="Ib89696e01a56424a805bf53fc978064720251106132945" width="100" height="100" viewBox="0 0 100 100" xmlns="http://www.w3.org/2000/svg" xmlns:svg="http://www.w3.org/2000/svg"> <defs id="Ia060208d4d6e495099417a45ecf1296e20251106132945" /> <g id="I6273d8dddc4b4588b5bf91ba69fddc0d20251106132945"> <path id="Ic8b40c8d0fed4da7820679410179704220251106132945" d="m 54,10.062 c -0.914,-0.917 -2.398,-0.917 -3.312,0 -0.918,0.915 -0.918,2.399 0,3.313 L 60.75,23.438 H 36.719 c -7.336,0 -13.281,5.945 -13.281,13.281 V 60.746 L 13.375,50.688 c -0.914,-0.918 -2.398,-0.918 -3.313,0 -0.917,0.914 -0.917,2.398 0,3.312 l 14.063,14.062 c 0.914,0.918 2.398,0.918 3.316,0 L 41.5,54 c 0.918,-0.914 0.918,-2.398 0,-3.312 -0.914,-0.915 -2.398,-0.915 -3.312,0 L 28.125,60.75 V 36.719 c 0,-4.746 3.848,-8.594 8.594,-8.594 H 60.746 L 50.688,38.188 c -0.918,0.914 -0.918,2.398 0,3.312 0.914,0.918 2.398,0.918 3.312,0 L 68.062,27.438 c 0.442,-0.442 0.688,-1.036 0.688,-1.657 0,-0.625 -0.246,-1.219 -0.688,-1.66 z" style="fill:currentColor;fill-opacity:1;fill-rule:nonzero;stroke:none" transform="scale(1.3333333)" /> </g>
</svg>

