<?xml version="1.0" encoding="UTF-8" standalone="no"?> <svg version="1.1" id="Ib0dd2cf81b0c4ae8963b85a8e356102120251106142135" width="100" height="100" viewBox="0 0 100 100" xmlns="http://www.w3.org/2000/svg" xmlns:svg="http://www.w3.org/2000/svg"> <defs id="I93b4b2097bb9421ebdb7bfa8d428ba5820251106142135" /> <g id="I8b54a8dd079c4036b7cc907e3765b63120251106142135"> <path id="I60174aa55191447eb613b8d831703d9c20251106142135" d="m 28.895,43.754 c 3.019,0 5.468,2.449 5.468,5.469 V 60.16 c 0,3.02 -2.449,5.469 -5.468,5.469 H 11.719 C 8.699,65.629 6.25,63.18 6.25,60.16 V 49.223 c 0,-3.02 2.449,-5.469 5.469,-5.469 z m 34.386,0 c 3.02,0 5.469,2.449 5.469,5.469 V 60.16 c 0,3.02 -2.449,5.469 -5.469,5.469 H 46.105 c -3.019,0 -5.468,-2.449 -5.468,-5.469 V 49.223 c 0,-3.02 2.449,-5.469 5.468,-5.469 z m 0,-34.391 c 3.02,0 5.469,2.449 5.469,5.469 v 17.199 c 0,3.02 -2.449,5.469 -5.469,5.469 H 11.719 C 8.699,37.5 6.25,35.051 6.25,32.031 V 14.832 c 0,-2.871 2.211,-5.223 5.02,-5.449 l 0.449,-0.02 z" style="fill:currentColor;fill-opacity:1;fill-rule:nonzero;stroke:none" transform="scale(1.3333333)" /> </g>
</svg>

