<?xml version="1.0" encoding="UTF-8" standalone="no"?> <svg version="1.1" id="I3b8ada1855094befadc007308a3ce01d20251110124420" width="100" height="100" viewBox="0 0 100 100" xmlns="http://www.w3.org/2000/svg" xmlns:svg="http://www.w3.org/2000/svg"> <defs id="Ie1f64ea7540b46b8932bd59f1acf844920251110124420" /> <g id="I4b95401da08e48d8b7ed7d2ec38350aa20251110124420"> <path id="Icc6623ce25eb44f0ada4dc07e6a3daf420251110124420" d="m 23.441,19.531 c 0,-3.019 2.446,-5.469 5.469,-5.469 h 3.125 c 1.293,0 2.344,-1.05 2.344,-2.343 0,-1.293 -1.051,-2.344 -2.344,-2.344 H 28.91 c -5.609,0 -10.156,4.547 -10.156,10.156 v 1.531 c 0,1.293 1.047,2.344 2.344,2.344 1.293,0 2.343,-1.051 2.343,-2.344 z m -4.687,9.375 c 0,-1.293 1.047,-2.344 2.344,-2.344 1.293,0 2.343,1.051 2.343,2.344 v 4.688 c 0,1.293 -1.05,2.344 -2.343,2.344 -1.297,0 -2.344,-1.051 -2.344,-2.344 z m 45.312,0 c 0,-1.293 1.047,-2.344 2.344,-2.344 1.293,0 2.344,1.051 2.344,2.344 v 4.688 c 0,1.293 -1.051,2.344 -2.344,2.344 -1.297,0 -2.344,-1.051 -2.344,-2.344 z M 58.598,14.062 c 3.019,0 5.468,2.45 5.468,5.469 v 1.531 c 0,1.293 1.047,2.344 2.344,2.344 1.293,0 2.344,-1.051 2.344,-2.344 v -1.531 c 0,-5.609 -4.547,-10.156 -10.156,-10.156 h -3.125 c -1.297,0 -2.344,1.051 -2.344,2.344 0,1.293 1.047,2.343 2.344,2.343 z M 39.848,9.375 c -1.297,0 -2.344,1.051 -2.344,2.344 0,1.293 1.047,2.343 2.344,2.343 h 7.812 c 1.293,0 2.344,-1.05 2.344,-2.343 0,-1.293 -1.051,-2.344 -2.344,-2.344 z M 28.91,48.438 c -3.023,0 -5.469,-2.45 -5.469,-5.469 v -1.563 c 0,-1.293 -1.05,-2.344 -2.343,-2.344 -1.297,0 -2.344,1.051 -2.344,2.344 v 1.563 c 0,5.609 4.547,10.156 10.156,10.156 h 3.125 c 1.293,0 2.344,-1.051 2.344,-2.344 0,-1.293 -1.051,-2.343 -2.344,-2.343 z m 35.156,-5.469 c 0,3.019 -2.449,5.469 -5.468,5.469 h -3.125 c -1.297,0 -2.344,1.05 -2.344,2.343 0,1.293 1.047,2.344 2.344,2.344 h 3.125 c 5.609,0 10.156,-4.547 10.156,-10.156 v -1.563 c 0,-1.293 -1.051,-2.344 -2.344,-2.344 -1.297,0 -2.344,1.051 -2.344,2.344 z m -26.562,7.812 c 0,1.293 1.047,2.344 2.344,2.344 h 7.812 c 1.293,0 2.344,-1.051 2.344,-2.344 0,-1.293 -1.051,-2.343 -2.344,-2.343 h -7.812 c -1.297,0 -2.344,1.05 -2.344,2.343 z M 6.25,30 c 0,-4.41 1.793,-8.402 4.688,-11.289 v 24.258 c 0,9.922 8.042,17.969 17.968,17.969 H 62.539 C 59.652,63.832 55.66,65.625 51.25,65.625 H 28.906 C 16.395,65.625 6.25,55.48 6.25,42.969 Z" style="fill:currentColor;fill-opacity:1;fill-rule:nonzero;stroke:none" transform="scale(1.3333333)" /> </g>
</svg>

