<?xml version="1.0" encoding="UTF-8" standalone="no"?> <svg version="1.1" id="I62889541e8164455a7f1feef3f4749f020251106105802" width="100" height="100" viewBox="0 0 100 100" xmlns="http://www.w3.org/2000/svg" xmlns:svg="http://www.w3.org/2000/svg"> <defs id="Iaa04ba442b974cd885a091707575dcc220251106105802" /> <g id="I946d66e4340c4d5696537329e3d810a320251106105802"> <path id="Id008d7dad89e48f3b24e35b88bb83fbe20251106105802" d="M 65.602,4.02 H 9.398 C 6.43,4.02 4.02,6.43 4.02,9.398 v 56.204 c 0,2.968 2.41,5.378 5.378,5.378 h 56.204 c 2.968,0 5.378,-2.41 5.378,-5.378 V 9.398 C 70.98,6.43 68.57,4.02 65.602,4.02 Z m 0,61.605 C 28.117,65.617 9.375,65.609 9.375,65.602 9.383,28.117 9.391,9.375 9.398,9.375 46.883,9.383 65.625,9.391 65.625,9.398 65.617,46.883 65.609,65.625 65.602,65.625 Z M 13.945,29.121 h 9.938 v 31.957 h -9.938 z m 4.973,-4.371 c 3.172,0 5.758,-2.578 5.758,-5.758 0,-3.18 -2.578,-5.758 -5.758,-5.758 -3.18,0 -5.758,2.578 -5.758,5.758 -0.012,3.18 2.567,5.758 5.758,5.758 z m 21.117,20.52 c 0,-4.172 0.797,-8.204 5.961,-8.204 5.09,0 5.164,4.762 5.164,8.469 v 15.543 h 9.93 V 43.551 c 0,-8.606 -1.86,-15.227 -11.914,-15.227 -4.828,0 -8.067,2.656 -9.399,5.168 h -0.132 v -4.371 h -9.536 v 31.957 h 9.926 z" style="fill:currentColor;fill-opacity:1;fill-rule:nonzero;stroke:none" transform="scale(1.3333333)" /> </g>
</svg>

