<?xml version="1.0" encoding="UTF-8" standalone="no"?> <svg version="1.1" id="I3e2d6f52319e42a695cadb10370aa14220251106170956" width="100" height="100" viewBox="0 0 100 100" xmlns="http://www.w3.org/2000/svg" xmlns:svg="http://www.w3.org/2000/svg"> <defs id="Iacaba201d8534f6b8836b4ea19182f6a20251106170956" /> <g id="I5b2111b0bb744f64b23d9f89f7a9e85f20251106170956"> <path id="I9ec5b92aec7042a2ae2f3f8f1e16be0220251106170956" d="M 71.875,2.344 C 71.875,1.051 70.824,0 69.531,0 68.238,0 67.188,1.051 67.188,2.344 v 1.957 c -3.079,-2.215 -6.86,-3.52 -10.938,-3.52 -10.355,0 -18.75,8.395 -18.75,18.75 0,10.356 8.395,18.75 18.75,18.75 10.355,0 18.75,-8.394 18.75,-18.75 0,-1.293 -1.051,-2.343 -2.344,-2.343 -1.293,0 -2.344,1.05 -2.344,2.343 0,7.766 -6.296,14.063 -14.062,14.063 -7.766,0 -14.062,-6.297 -14.062,-14.063 0,-7.765 6.296,-14.062 14.062,-14.062 3.328,0 6.379,1.152 8.789,3.082 0.008,0.008 0.016,0.015 0.023,0.019 0.008,0.008 0.02,0.016 0.028,0.024 h -4.152 c -1.293,0 -2.344,1.051 -2.344,2.344 0,1.292 1.051,2.343 2.344,2.343 h 8.593 c 1.293,0 2.344,-1.051 2.344,-2.343 z m -3.125,50 v -14.86 c -1.445,1.008 -3.016,1.848 -4.688,2.485 v 12.375 l -0.019,0.449 c -0.227,2.809 -2.578,5.019 -5.449,5.019 H 16.406 L 15.957,57.793 C 13.148,57.566 10.938,55.215 10.938,52.344 V 29.293 l 25.472,13.406 0.297,0.133 c 0.613,0.219 1.301,0.176 1.883,-0.133 l 7.351,-3.871 C 44.383,37.996 42.934,36.977 41.629,35.805 L 37.5,37.977 10.938,23.996 v -1.34 l 0.019,-0.449 c 0.227,-2.809 2.578,-5.019 5.449,-5.019 H 34.5 c 0.172,-1.622 0.523,-3.192 1.031,-4.688 H 16.406 l -0.578,0.016 c -5.34,0.3 -9.578,4.726 -9.578,10.14 v 29.688 l 0.016,0.578 c 0.3,5.34 4.726,9.578 10.14,9.578 h 42.188 l 0.578,-0.016 c 5.34,-0.3 9.578,-4.726 9.578,-10.14 z" style="fill:currentColor;fill-opacity:1;fill-rule:nonzero;stroke:none" transform="scale(1.3333333)" /> </g>
</svg>

