<?xml version="1.0" encoding="UTF-8" standalone="no"?> <svg version="1.1" id="Ib5f0975b4d534bb8ba1ff3f64872dc5e20251106161453" width="100" height="100" viewBox="0 0 100 100" xmlns="http://www.w3.org/2000/svg" xmlns:svg="http://www.w3.org/2000/svg"> <defs id="If57eb543a53744cd982d538905f5086f20251106161453" /> <g id="If14b0cf9d0e1472b899cab52758ef52620251106161453"> <path id="I01abc367fa334e42b400a13b79c9e07520251106161453" d="m 48.938,45.918 -6.516,-6.395 -0.399,-0.367 c -2.601,-2.191 -6.418,-2.195 -9.027,-0.015 l -0.422,0.382 -19.48,19.141 C 11.711,60.023 9.375,59.043 9.375,57.102 V 19.531 c 0,-5.609 4.547,-10.156 10.156,-10.156 h 35.938 c 5.609,0 10.156,4.547 10.156,10.156 v 14.883 c -2.918,-0.254 -5.918,0.738 -8.148,2.969 z m -6.75,-20.129 c 0,3.887 3.148,7.035 7.035,7.035 3.886,0 7.039,-3.148 7.039,-7.035 0,-3.887 -3.153,-7.039 -7.039,-7.039 -3.887,0 -7.035,3.152 -7.035,7.039 z m 7.035,-2.351 c 1.3,0 2.351,1.05 2.351,2.351 0,1.297 -1.051,2.348 -2.351,2.348 -1.297,0 -2.348,-1.051 -2.348,-2.348 0,-1.301 1.051,-2.351 2.348,-2.351 z m -13.368,19.429 0.262,-0.219 c 0.813,-0.593 1.914,-0.601 2.731,-0.023 l 0.293,0.242 6.484,6.367 -6.594,6.594 c -1.367,1.367 -2.367,3.055 -2.91,4.906 -1.078,-1.675 -2.719,-2.859 -4.414,-3.539 -2.156,-0.871 -4.328,-0.5 -6.047,0.11 l -0.351,0.125 c -1.5,0.523 -2.7,-1.278 -1.657,-2.477 l 0.657,-0.75 z M 59.684,39.594 41.242,58.039 c -1.078,1.074 -1.84,2.422 -2.211,3.899 l -1.336,5.347 c -1.109,0.531 -2.218,0.629 -3.539,0.324 -0.394,-0.089 -0.562,-0.543 -0.394,-0.91 1.34,-3.008 -0.598,-5.551 -3.219,-6.605 -2.988,-1.203 -6.961,1.609 -10.289,3.965 -1.852,1.308 -3.504,2.476 -4.676,2.738 -1.64,0.359 -3.633,-0.391 -5.098,-1.188 -0.652,-0.355 -1.519,0.223 -1.21,0.899 0.753,1.652 2.285,3.539 5.343,3.918 3.063,0.383 5.516,-1.082 7.965,-2.543 1.824,-1.09 3.645,-2.176 5.711,-2.496 0.266,-0.043 0.449,0.273 0.328,0.515 -0.758,1.512 -1.117,4.282 0.68,5.684 2.648,2.066 10.113,0.91 11.961,0.273 0.152,-0.015 0.308,-0.043 0.465,-0.082 l 5.718,-1.433 c 1.477,-0.367 2.825,-1.129 3.899,-2.207 L 69.785,49.695 c 2.789,-2.793 2.789,-7.312 0,-10.101 -2.789,-2.793 -7.308,-2.793 -10.101,0 z" style="fill:currentColor;fill-opacity:1;fill-rule:nonzero;stroke:none" transform="scale(1.3333333)" /> </g>
</svg>

