<?xml version="1.0" encoding="UTF-8" standalone="no"?> <svg version="1.1" id="I250b16a8731647c7b0e6cb062191a1df20251106165302" width="100" height="100" viewBox="0 0 100 100" xmlns="http://www.w3.org/2000/svg" xmlns:svg="http://www.w3.org/2000/svg"> <defs id="I65399ec7167c47e9a4fc4032e69c30d720251106165302" /> <g id="I8fd3cae5ae2148e4a300c89f575f8cb620251106165302"> <path id="I5709a042802941fea14a04acf52a33a920251106165302" d="M 53.914,37.5 H 21.102 l -0.321,0.02 c -1.14,0.156 -2.023,1.136 -2.023,2.324 0,1.293 1.047,2.344 2.344,2.344 h 32.812 l 0.316,-0.02 c 1.145,-0.156 2.028,-1.137 2.028,-2.324 0,-1.293 -1.051,-2.344 -2.344,-2.344 z m 0.781,-7.812 c 0,-1.727 -1.398,-3.126 -3.125,-3.126 -1.726,0 -3.125,1.399 -3.125,3.126 0,1.726 1.399,3.124 3.125,3.124 1.727,0 3.125,-1.398 3.125,-3.124 z m -18.734,0 c 0,-1.727 -1.399,-3.126 -3.125,-3.126 -1.727,0 -3.125,1.399 -3.125,3.126 0,1.726 1.398,3.124 3.125,3.124 1.726,0 3.125,-1.398 3.125,-3.124 z m -9.375,0 c 0,-1.727 -1.398,-3.126 -3.125,-3.126 -1.727,0 -3.125,1.399 -3.125,3.126 0,1.726 1.398,3.124 3.125,3.124 1.727,0 3.125,-1.398 3.125,-3.124 z m 18.75,0 c 0,-1.727 -1.398,-3.126 -3.125,-3.126 -1.727,0 -3.125,1.399 -3.125,3.126 0,1.726 1.398,3.124 3.125,3.124 1.727,0 3.125,-1.398 3.125,-3.124 z M 21.883,20.312 c 0,-1.726 -1.399,-3.124 -3.125,-3.124 -1.727,0 -3.125,1.398 -3.125,3.124 0,1.727 1.398,3.126 3.125,3.126 1.726,0 3.125,-1.399 3.125,-3.126 z m 9.359,0 c 0,-1.726 -1.398,-3.124 -3.125,-3.124 -1.726,0 -3.125,1.398 -3.125,3.124 0,1.727 1.399,3.126 3.125,3.126 1.727,0 3.125,-1.399 3.125,-3.126 z m 9.375,0 c 0,-1.726 -1.398,-3.124 -3.125,-3.124 -1.726,0 -3.125,1.398 -3.125,3.124 0,1.727 1.399,3.126 3.125,3.126 1.727,0 3.125,-1.399 3.125,-3.126 z m 9.375,0 c 0,-1.726 -1.398,-3.124 -3.125,-3.124 -1.726,0 -3.125,1.398 -3.125,3.124 0,1.727 1.399,3.126 3.125,3.126 1.727,0 3.125,-1.399 3.125,-3.126 z m 9.375,0 c 0,-1.726 -1.398,-3.124 -3.125,-3.124 -1.726,0 -3.125,1.398 -3.125,3.124 0,1.727 1.399,3.126 3.125,3.126 1.727,0 3.125,-1.399 3.125,-3.126 z m 9.375,-5.468 c 0,-3.883 -3.148,-7.032 -7.031,-7.032 H 13.289 c -3.883,0 -7.031,3.149 -7.031,7.032 v 29.703 c 0,3.883 3.148,7.031 7.031,7.031 h 21.867 v 4.672 h 0.008 v 4.496 l -2.629,-2.625 -0.262,-0.226 c -0.918,-0.684 -2.218,-0.606 -3.05,0.226 -0.918,0.914 -0.918,2.399 0,3.313 l 6.629,6.628 0.261,0.227 c 0.367,0.273 0.797,0.426 1.231,0.457 h 0.328 l 0.324,-0.047 c 0.426,-0.09 0.836,-0.304 1.168,-0.637 l 6.629,-6.628 0.227,-0.262 c 0.683,-0.918 0.605,-2.219 -0.227,-3.051 l -0.262,-0.226 c -0.918,-0.684 -2.219,-0.606 -3.051,0.226 l -2.628,2.625 v -9.168 h 21.859 c 3.883,0 7.031,-3.148 7.031,-7.031 z M 39.844,46.891 v -0.016 h -4.688 v 0.016 H 13.289 c -1.297,0 -2.344,-1.051 -2.344,-2.344 V 14.844 c 0,-1.293 1.047,-2.344 2.344,-2.344 h 48.422 c 1.297,0 2.344,1.051 2.344,2.344 v 29.703 c 0,1.293 -1.047,2.344 -2.344,2.344 z" style="fill:currentColor;fill-opacity:1;fill-rule:nonzero;stroke:none" transform="scale(1.3333333)" /> </g>
</svg>

