<?xml version="1.0" encoding="UTF-8" standalone="no"?> <svg version="1.1" id="Ia12ea26d763d494d941f8d41cd9cb08a20251106142135" width="100" height="100" viewBox="0 0 100 100" xmlns="http://www.w3.org/2000/svg" xmlns:svg="http://www.w3.org/2000/svg"> <defs id="Ia47461b8a79e47ad98e5beb89174145e20251106142135" /> <g id="I4f7a983377294bfab3386963700461e220251106142135"> <path id="Ib361c0cab1e44a4fbe7ec176430c406320251106142135" d="m 43.527,6.695 c 3.328,0 6.028,2.7 6.028,6.028 v 6.027 h 10.047 c 5.546,0 10.043,4.496 10.043,10.043 v 28.125 c 0,5.547 -4.497,10.047 -10.043,10.047 H 15.414 C 9.863,66.965 5.367,62.469 5.367,56.918 V 28.793 c 0,-5.547 4.496,-10.043 10.047,-10.043 h 10.031 v -6.027 c 0,-3.328 2.7,-6.028 6.028,-6.028 z m 22.102,34.149 c -1.68,1.261 -3.766,2.011 -6.027,2.011 H 44.195 v 1.34 c 0,2.219 -1.797,4.02 -4.015,4.02 h -5.36 c -2.218,0 -4.015,-1.801 -4.015,-4.02 v -1.34 H 15.414 c -2.262,0 -4.352,-0.746 -6.027,-2.007 v 16.07 c 0,3.328 2.695,6.027 6.027,6.027 h 44.188 c 3.328,0 6.027,-2.699 6.027,-6.027 z M 15.414,22.77 c -3.332,0 -6.027,2.695 -6.027,6.023 v 4.019 c 0,3.329 2.695,6.028 6.027,6.028 h 15.391 c 0,-2.219 1.797,-4.02 4.015,-4.02 h 5.36 c 2.218,0 4.015,1.801 4.015,4.02 h 15.407 c 3.328,0 6.027,-2.699 6.027,-6.028 v -4.019 c 0,-3.328 -2.699,-6.023 -6.027,-6.023 z M 31.473,10.715 c -1.11,0 -2.008,0.898 -2.008,2.008 v 6.027 h 16.07 v -6.027 c 0,-1.11 -0.898,-2.008 -2.008,-2.008 z" style="fill:currentColor;fill-opacity:1;fill-rule:nonzero;stroke:none" transform="scale(1.3333333)" /> </g>
</svg>

