<?xml version="1.0" encoding="UTF-8" standalone="no"?> <svg version="1.1" id="Ie5fa684cd97f4398b69bab2fec1fc96420251110130509" width="100" height="100" viewBox="0 0 100 100" xmlns="http://www.w3.org/2000/svg" xmlns:svg="http://www.w3.org/2000/svg"> <defs id="I865f422eec1344d687d166a30a9bf81c20251110130509" /> <g id="Iea14dba7eda2411d84fb8c1817c4509020251110130509"> <path id="I0148ebb7fe614ddc95c224d41ea0eba120251110130509" d="m 9.375,19.531 c 0,-5.609 4.547,-10.156 10.156,-10.156 h 35.938 c 5.609,0 10.156,4.547 10.156,10.156 V 44.789 C 64.164,44.211 62.586,43.855 60.938,43.77 V 31.25 h -12.5 v 12.52 c -1.223,0.062 -2.411,0.277 -3.54,0.617 -0.39,0.121 -0.773,0.254 -1.148,0.402 -2.047,0.813 -3.875,2.07 -5.355,3.649 H 31.25 v 12.5 h 3.309 c 0.265,1.671 0.808,3.25 1.586,4.687 H 19.531 C 13.922,65.625 9.375,61.078 9.375,55.469 Z M 43.75,31.25 h -12.5 v 12.5 h 12.5 z M 19.531,14.062 c -3.019,0 -5.469,2.45 -5.469,5.469 v 7.031 h 12.5 v -12.5 z M 14.062,31.25 v 12.5 h 12.5 v -12.5 z m 34.376,-4.688 h 12.5 v -7.031 c 0,-3.019 -2.45,-5.469 -5.469,-5.469 h -7.031 z m -4.688,-12.5 h -12.5 v 12.5 h 12.5 z M 14.062,48.438 v 7.031 c 0,3.019 2.45,5.469 5.469,5.469 h 7.031 v -12.5 z m 46.094,-1.563 c 6.473,0 11.719,5.246 11.719,11.719 0,6.261 -4.914,11.379 -11.086,11.703 l -0.621,0.015 v 0.016 c -1.297,0.004 -2.348,-1.039 -2.356,-2.336 -0.003,-1.183 0.872,-2.168 2.016,-2.328 l 0.317,-0.023 0.011,-0.016 c 3.883,0 7.032,-3.148 7.032,-7.031 0,-3.723 -2.891,-6.766 -6.551,-7.016 l -0.481,-0.016 c -1.293,0 -2.344,-1.05 -2.344,-2.343 0,-1.188 0.883,-2.168 2.028,-2.324 z m -10.937,0 c 1.293,0 2.343,1.051 2.343,2.344 0,1.187 -0.882,2.168 -2.027,2.324 l -0.316,0.019 c -3.883,0 -7.031,3.149 -7.031,7.032 0,3.722 2.89,6.765 6.55,7.015 l 0.481,0.016 c 1.293,0 2.343,1.051 2.343,2.344 0,1.187 -0.882,2.168 -2.027,2.324 l -0.316,0.019 c -6.473,0 -11.719,-5.246 -11.719,-11.718 0,-6.262 4.914,-11.379 11.098,-11.703 z m 10.937,9.375 c 1.293,0 2.344,1.051 2.344,2.344 0,1.187 -0.883,2.168 -2.027,2.324 l -0.317,0.02 H 49.219 c -1.293,0 -2.344,-1.051 -2.344,-2.344 0,-1.188 0.883,-2.168 2.027,-2.324 l 0.317,-0.02 z" style="fill:currentColor;fill-opacity:1;fill-rule:nonzero;stroke:none" transform="scale(1.3333333)" /> </g>
</svg>

