<?xml version="1.0" encoding="UTF-8" standalone="no"?> <svg version="1.1" id="If1f6629b0aa94c30a41ef23faea4332020251110123029" width="100" height="100" viewBox="0 0 100 100" xmlns="http://www.w3.org/2000/svg" xmlns:svg="http://www.w3.org/2000/svg"> <defs id="I62670e9f80ff426fa05512295339d8b920251110123029" /> <g id="Ib4b285b3f04846a98d92a61842bf2e0e20251110123029"> <path id="I566c4780894e482bb4e727fc03fb033220251110123029" d="m 11.25,7.5 c -4.141,0 -7.5,3.359 -7.5,7.5 v 15 c 0,4.141 3.359,7.5 7.5,7.5 h 30 c 4.141,0 7.5,-3.359 7.5,-7.5 V 15 c 0,-4.141 -3.359,-7.5 -7.5,-7.5 z m 0,45 V 41.25 H 15 V 52.5 c 0,2.07 1.68,3.75 3.75,3.75 h 45 c 2.07,0 3.75,-1.68 3.75,-3.75 v -30 c 0,-2.07 -1.68,-3.75 -3.75,-3.75 H 52.5 V 15 h 11.25 c 4.141,0 7.5,3.359 7.5,7.5 v 30 c 0,4.141 -3.359,7.5 -7.5,7.5 h -45 c -4.141,0 -7.5,-3.359 -7.5,-7.5 z" style="fill:currentColor;fill-opacity:1;fill-rule:nonzero;stroke:none" transform="scale(1.3333333)" /> </g>
</svg>

