<?xml version="1.0" encoding="UTF-8" standalone="no"?> <svg version="1.1" id="Id7668d11c0414b91aedeaa39528aca5d20251106165301" width="100" height="100" viewBox="0 0 100 100" xmlns="http://www.w3.org/2000/svg" xmlns:svg="http://www.w3.org/2000/svg"> <defs id="I658d70de077543b692437a6e22fd1a0c20251106165301" /> <g id="I796b2966ba3c480e917818c92ec0cd6e20251106165301"> <path id="I492afcf9557341dba14d1f766a61e58420251106165301" d="M 10.254,14.035 C 17.281,7.34 28.371,7.473 35.234,14.34 l 2.266,2.265 2.016,-2.015 c 6.988,-6.988 18.3,-7.051 25.367,-0.137 5.34,5.231 6.746,12.977 4.156,19.527 H 63.848 C 66.809,28.828 66.035,22.145 61.602,17.805 56.375,12.688 48,12.73 42.828,17.906 l -3.672,3.672 c -0.914,0.914 -2.398,0.914 -3.312,0 L 31.918,17.652 C 26.855,12.59 18.672,12.488 13.484,17.43 8.867,21.824 8.129,28.773 11.395,33.98 H 6.121 C 3.289,27.316 4.707,19.316 10.254,14.035 Z m 42.969,31.664 h 6.468 L 39.199,67.238 c -0.445,0.469 -1.062,0.731 -1.707,0.727 -0.644,0 -1.262,-0.27 -1.703,-0.738 L 15.613,45.699 h 5.817 c 0.195,0 0.39,-0.008 0.582,-0.027 l 15.5,16.539 z m -23,-18.625 c -0.383,-0.765 -1.153,-1.262 -2.008,-1.293 -0.856,-0.035 -1.66,0.403 -2.098,1.137 L 19.766,37.496 H 6.25 c -1.293,0 -2.344,1.051 -2.344,2.344 0,1.297 1.051,2.344 2.344,2.344 h 14.844 c 0.824,0 1.586,-0.43 2.008,-1.137 l 4.836,-8.059 7.468,14.934 c 0.364,0.73 1.086,1.219 1.903,1.285 0.816,0.07 1.605,-0.293 2.086,-0.957 l 7.902,-10.863 5.109,4.254 c 0.422,0.351 0.953,0.543 1.5,0.543 h 14.063 c 1.293,0 2.343,-1.047 2.343,-2.344 0,-1.293 -1.05,-2.344 -2.343,-2.344 H 54.754 L 48.375,32.18 c -0.496,-0.414 -1.145,-0.602 -1.789,-0.524 -0.645,0.078 -1.227,0.422 -1.606,0.949 l -7.109,9.77 z" style="fill:currentColor;fill-opacity:1;fill-rule:nonzero;stroke:none" transform="scale(1.3333333)" /> </g>
</svg>

