<?xml version="1.0" encoding="UTF-8" standalone="no"?> <svg version="1.1" id="Iaff14ca97a1f490193881d30f75bad0020251106161453" width="100" height="100" viewBox="0 0 100 100" xmlns="http://www.w3.org/2000/svg" xmlns:svg="http://www.w3.org/2000/svg"> <defs id="Ief6fac2b4edb4272a48824c3762a64db20251106161453" /> <g id="I26c3930b973142998285f578283227df20251106161453"> <path id="I304115c02e5d492882a5e8356a84eadb20251106161453" d="m 54.184,11.012 c -2.989,-2.989 -7.832,-2.989 -10.821,0 -0.273,0.273 -0.523,0.562 -0.746,0.867 -2.883,-0.512 -5.965,0.344 -8.195,2.574 -3.625,3.629 -3.625,9.508 0,13.133 l 3.898,3.898 -3.527,3.528 5.266,5.265 3.527,-3.527 3.898,3.898 c 3.625,3.625 9.504,3.625 13.129,0 2.231,-2.234 3.086,-5.312 2.575,-8.195 0.304,-0.226 0.597,-0.473 0.871,-0.75 2.984,-2.984 2.984,-7.828 0,-10.816 l -2.305,-2.305 2.019,-2.02 c 1.454,-1.453 1.454,-3.812 0,-5.265 -1.457,-1.453 -3.812,-1.453 -5.265,0 l -2.02,2.019 z m 1.336,16.687 c -0.915,0.914 -2.399,0.914 -3.317,0 l -4.902,-4.906 c -0.918,-0.914 -0.918,-2.398 0,-3.313 0.914,-0.918 2.398,-0.918 3.312,0 l 4.907,4.903 c 0.914,0.918 0.914,2.402 0,3.316 z M 14.449,34.43 c 3.625,-3.629 9.504,-3.629 13.129,0 l 13.063,13.058 c 3.625,3.629 3.625,9.508 0,13.133 -2.231,2.231 -5.313,3.086 -8.196,2.574 -0.222,0.305 -0.472,0.594 -0.746,0.867 -2.988,2.989 -7.832,2.989 -10.82,0 l -2.305,-2.304 -2.086,2.086 c -1.453,1.453 -3.812,1.453 -5.265,0 -1.453,-1.453 -1.453,-3.809 0,-5.262 l 2.086,-2.09 -2.305,-2.304 c -2.984,-2.985 -2.984,-7.829 0,-10.817 0.273,-0.273 0.566,-0.523 0.871,-0.75 -0.512,-2.883 0.344,-5.961 2.574,-8.191 z m 11.637,22.703 c 0.918,-0.914 0.918,-2.399 0,-3.317 L 21.18,48.914 c -0.914,-0.918 -2.399,-0.918 -3.313,0 -0.914,0.914 -0.914,2.398 0,3.313 l 4.906,4.906 c 0.915,0.914 2.399,0.914 3.313,0 z" style="fill:currentColor;fill-opacity:1;fill-rule:nonzero;stroke:none" transform="scale(1.3333333)" /> </g>
</svg>

