<?xml version="1.0" encoding="UTF-8" standalone="no"?> <svg version="1.1" id="Ie05465a710f34e02a70e305058d9f18620251106151526" width="100" height="100" viewBox="0 0 100 100" xmlns="http://www.w3.org/2000/svg" xmlns:svg="http://www.w3.org/2000/svg"> <defs id="Ifccd4a4537a0461fb69d2757b441be3e20251106151526"> <linearGradient x1="4" y1="5.8000002" x2="18.146299" y2="23.482901" gradientUnits="userSpaceOnUse" gradientTransform="scale(3.125)" spreadMethod="pad" id="Ieace9c813eb043be9412c8c3b7e14c6020251106151526"> <stop style="stop-opacity:1;stop-color:#36dff1" offset="0" id="Ia46f91cfc32f4481a27f0c5a7c0ef8e720251106151526" /> <stop style="stop-opacity:1;stop-color:#0094f0" offset="1" id="I4166e057692440fea190029323fdb65720251106151526" /> </linearGradient> <radialGradient fx="0" fy="0" cx="0" cy="0" r="1" gradientUnits="userSpaceOnUse" gradientTransform="matrix(0,19.277875,-21.09375,0,37.5,9.375)" spreadMethod="pad" id="I147139633be94466a259d0c8c665bfb820251106151526"> <stop style="stop-opacity:0.70000763;stop-color:#0a1852" offset="0" id="I4d0066412b8f4c0d83d7f2019f762a0520251106151526" /> <stop style="stop-opacity:0;stop-color:#0a1852" offset="0.9" id="Ie645e9af83a640e4acefa60b6efb732520251106151526" /> <stop style="stop-opacity:0;stop-color:#0a1852" offset="1" id="I1d3d5580456448b28ef3859def8d46bf20251106151526" /> </radialGradient> <radialGradient fx="0" fy="0" cx="0" cy="0" r="1" gradientUnits="userSpaceOnUse" gradientTransform="matrix(0,8.728906,-15.478063,0,37.5,14.430594)" spreadMethod="pad" id="I9fca2134d6a44f75b611b8258551413220251106151526"> <stop style="stop-opacity:0.4;stop-color:#0a1852" offset="0" id="I329f9d59b5e94f9487cfe1c43672ec8f20251106151526" /> <stop style="stop-opacity:0;stop-color:#0a1852" offset="1" id="I9a8ca9ef769340d4a582fd2f66e9bfa420251106151526" /> </radialGradient> <linearGradient x1="12" y1="2" x2="12" y2="6.5" gradientUnits="userSpaceOnUse" gradientTransform="scale(3.125)" spreadMethod="pad" id="I6383d6565dd44e5a9014511da1931bc420251106151526"> <stop style="stop-opacity:1;stop-color:#ffe06b" offset="0" id="I7988a69c496e4c85a4fa033632b816aa20251106151526" /> <stop style="stop-opacity:1;stop-color:#fab500" offset="1" id="Ic70cb5954aac485890989cf770f877fd20251106151526" /> </linearGradient> <linearGradient x1="18" y1="18.5" x2="10.2655" y2="7.7318902" gradientUnits="userSpaceOnUse" gradientTransform="scale(3.125)" spreadMethod="pad" id="I0ba6dabb995d48ab9347a2749435346920251106151526"> <stop style="stop-opacity:0.90000763;stop-color:#9deaff" offset="0" id="I1531ced6ea6c45848219406746fd759a20251106151526" /> <stop style="stop-opacity:0.90000763;stop-color:#ffffff" offset="1" id="Iac1e2168a2234d5595b65950458a138020251106151526" /> </linearGradient> </defs> <g id="I6c91521cfabe4e90863b712f600d067f20251106151526"> <path id="I5c03f03512354e4f93751ae371f1444e20251106151526" d="m 12.5,19.531 c 0,-3.883 3.148,-7.031 7.031,-7.031 h 35.938 c 3.883,0 7.031,3.148 7.031,7.031 v 42.188 c 0,3.883 -3.148,7.031 -7.031,7.031 H 19.531 c -3.883,0 -7.031,-3.148 -7.031,-7.031 z" transform="scale(1.3333333)" style="fill:url(#Ieace9c813eb043be9412c8c3b7e14c6020251106151526);stroke:none" /> <path d="m 12.5,19.531 c 0,-3.883 3.148,-7.031 7.031,-7.031 h 35.938 c 3.883,0 7.031,3.148 7.031,7.031 v 42.188 c 0,3.883 -3.148,7.031 -7.031,7.031 H 19.531 c -3.883,0 -7.031,-3.148 -7.031,-7.031 z" transform="scale(1.3333333)" style="fill:url(#I147139633be94466a259d0c8c665bfb820251106151526);stroke:none" opacity="1" id="I31160cc10e1e41a08ef0fbc38f0249e620251106151526" /> <path d="m 12.5,19.531 c 0,-3.883 3.148,-7.031 7.031,-7.031 h 35.938 c 3.883,0 7.031,3.148 7.031,7.031 v 42.188 c 0,3.883 -3.148,7.031 -7.031,7.031 H 19.531 c -3.883,0 -7.031,-3.148 -7.031,-7.031 z" transform="scale(1.3333333)" style="fill:url(#I9fca2134d6a44f75b611b8258551413220251106151526);stroke:none" opacity="1" id="I3ad5ef51250847e48998ed0f15017efe20251106151526" /> <path id="I6dfc6764f492477396f73e5acc1f0df620251106151526" d="m 25,13.281 c 0,3.883 3.148,7.031 7.031,7.031 H 42.969 C 46.852,20.312 50,17.164 50,13.281 50,9.398 46.852,6.25 42.969,6.25 H 32.031 C 28.148,6.25 25,9.398 25,13.281 Z" transform="scale(1.3333333)" style="fill:url(#I6383d6565dd44e5a9014511da1931bc420251106151526);stroke:none" /> <path d="m 53.219,34.469 c 0.918,-0.914 0.918,-2.399 0,-3.313 -0.914,-0.918 -2.399,-0.918 -3.313,0 L 34.375,46.684 28.219,40.531 c -0.914,-0.918 -2.399,-0.918 -3.313,0 -0.918,0.914 -0.918,2.399 0,3.313 l 7.813,7.812 c 0.914,0.918 2.398,0.918 3.312,0 z" transform="scale(1.3333333)" style="fill:url(#I0ba6dabb995d48ab9347a2749435346920251106151526);stroke:none" opacity="1" id="I31eec63310fb43faacf5774b3e6f751020251106151526" /> </g>
</svg>

