<?xml version="1.0" encoding="UTF-8" standalone="no"?> <svg version="1.1" id="I38bf62be64ca45b6b01bcefbc206f75b20251106151526" width="100" height="100" viewBox="0 0 100 100" xmlns="http://www.w3.org/2000/svg" xmlns:svg="http://www.w3.org/2000/svg"> <defs id="I80dcc51c6f304855bd7f585175fb160520251106151526" /> <g id="I10eb6a2e40c340c0b05f170f35a3434420251106151526"> <path id="I1ec412ecd20446969e1f9b8f1a7302a620251106151526" d="m 20.758,14.73 h 5.25 c 1.019,2.36 3.375,4.02 6.137,4.02 h 10.71 c 2.735,0 5.09,-1.66 6.137,-4.02 h 5.25 c 1.848,0 3.348,1.5 3.348,3.352 v 28.125 c 1.312,-0.43 2.68,-0.645 4.015,-0.645 v -27.48 c 0,-4.074 -3.293,-7.367 -7.363,-7.367 H 49.418 C 48.805,7.66 46.098,5.355 42.855,5.355 h -10.71 c -3.243,0 -5.95,2.305 -6.563,5.36 h -4.824 c -4.07,0 -7.363,3.293 -7.363,7.367 v 44.195 c 0,4.071 3.293,7.368 7.363,7.368 h 5.144 c -0.297,-0.618 -0.457,-1.29 -0.457,-2.012 v -2.008 h -4.687 c -1.848,0 -3.348,-1.5 -3.348,-3.348 V 18.082 c 0,-1.852 1.5,-3.352 3.348,-3.352 z m 11.387,0 c -1.477,0 -2.68,-1.203 -2.68,-2.675 0,-1.473 1.203,-2.68 2.68,-2.68 h 10.71 c 1.477,0 2.68,1.207 2.68,2.68 0,1.472 -1.203,2.675 -2.68,2.675 z M 37.5,69.645 h 11.305 c 1.097,0 2.007,-0.911 2.007,-2.008 0,-1.102 -0.91,-2.012 -2.007,-2.012 h -8.41 c 0.96,-1.23 2.835,-2.918 6.507,-4.875 2.653,-1.391 4.071,-3.613 3.883,-6.078 -0.16,-2.574 -2.14,-4.984 -4.902,-5.973 -3.348,-1.207 -7.043,-0.137 -9.883,2.836 -0.75,0.805 -0.723,2.063 0.082,2.84 0.801,0.75 2.063,0.723 2.836,-0.078 1.742,-1.824 3.805,-2.492 5.625,-1.824 1.262,0.457 2.199,1.5 2.277,2.492 0.082,1.07 -0.91,1.797 -1.738,2.25 -9.699,5.117 -9.699,9.777 -9.59,10.66 0.133,0.992 0.988,1.77 2.008,1.77 z m 23.867,-0.004 c -2.277,0 -4.875,-0.883 -7.234,-3.293 -0.778,-0.805 -0.778,-2.063 0,-2.84 0.805,-0.778 2.062,-0.75 2.84,0 2.304,2.359 4.797,2.383 6.375,1.66 0.992,-0.48 1.66,-1.285 1.582,-1.926 -0.082,-0.699 -1.207,-1.742 -4.098,-2.359 -0.937,-0.188 -1.609,-1.016 -1.609,-1.953 0,-0.938 0.672,-1.77 1.609,-1.957 2.863,-0.59 3.988,-1.633 4.098,-2.356 0.078,-0.644 -0.59,-1.449 -1.555,-1.929 -1.555,-0.75 -4.043,-0.723 -6.375,1.632 -0.777,0.778 -2.062,0.805 -2.84,0 -0.805,-0.777 -0.805,-2.035 0,-2.84 3.805,-3.882 8.172,-3.8 10.985,-2.437 2.597,1.262 4.097,3.645 3.8,6.055 -0.133,1.019 -0.64,2.543 -2.41,3.832 1.77,1.312 2.277,2.812 2.41,3.828 0.297,2.41 -1.203,4.797 -3.828,6.054 -1.074,0.508 -2.359,0.829 -3.75,0.829 z m -31.246,0.004 h 0.012 -0.028 z m -1.996,-2.012 c 0,1.094 0.902,2.004 1.996,2.012 1.09,-0.008 1.996,-0.918 1.996,-2.012 V 50.867 c 0,-1.152 -0.777,-2.172 -1.902,-2.519 -1.153,-0.375 -2.383,0.027 -3.055,0.992 -0.883,1.285 -2.305,3 -4.098,4.07 -0.937,0.563 -1.257,1.797 -0.695,2.758 0.563,0.937 1.793,1.262 2.758,0.699 1.125,-0.672 2.145,-1.527 3,-2.387 z" style="fill:currentColor;fill-opacity:1;fill-rule:nonzero;stroke:none" transform="scale(1.3333333)" /> </g>
</svg>

