<?xml version="1.0" encoding="UTF-8" standalone="no"?> <svg version="1.1" id="I57489630ea2d4c5787ad12479491fad320251106170956" width="100" height="100" viewBox="0 0 100 100" xmlns="http://www.w3.org/2000/svg" xmlns:svg="http://www.w3.org/2000/svg"> <defs id="Id6b4f868d7074925830c86dad93327a420251106170956" /> <g id="If1a8b14d84ba4d64813b6e8545bb90f220251106170956"> <path id="Iae381a8082a94af2a30b0d69fe53823320251106170956" d="m 29.688,25 c 3.019,0 5.468,2.449 5.468,5.469 v 14.062 c 0,3.02 -2.449,5.469 -5.468,5.469 H 11.719 C 8.699,50 6.25,47.551 6.25,44.531 V 30.469 c 0,-2.871 2.211,-5.223 5.02,-5.449 L 11.719,25 Z m 33.593,0 c 3.02,0 5.469,2.449 5.469,5.469 V 44.531 C 68.75,47.551 66.301,50 63.281,50 H 45.312 c -3.019,0 -5.468,-2.449 -5.468,-5.469 V 30.469 c 0,-3.02 2.449,-5.469 5.468,-5.469 z" style="fill:currentColor;fill-opacity:1;fill-rule:nonzero;stroke:none" transform="scale(1.3333333)" /> </g>
</svg>

