<?xml version="1.0" encoding="UTF-8" standalone="no"?> <svg version="1.1" id="Id793246285944d65b1845e7a7c165a6720251106171633" width="100" height="100" viewBox="0 0 100 100" xmlns="http://www.w3.org/2000/svg" xmlns:svg="http://www.w3.org/2000/svg"> <defs id="I14750eb4288e45ccadb54c73a7d0427720251106171633" /> <g id="Ic830eacf7c5c41ca849313c67b949bc420251106171633"> <path id="I644377affc8c490e9b1c70652ef8991f20251106171633" d="M 5.355,37.5 C 5.355,19.746 19.746,5.355 37.5,5.355 55.254,5.355 69.645,19.746 69.645,37.5 69.645,55.254 55.254,69.645 37.5,69.645 19.746,69.645 5.355,55.254 5.355,37.5 Z m 24.11,0 c 0,-4.504 0.621,-8.305 1.973,-10.914 0.66,-1.277 1.468,-2.211 2.414,-2.832 0.937,-0.609 2.113,-0.984 3.648,-0.984 1.535,0 2.711,0.375 3.648,0.984 0.946,0.621 1.754,1.555 2.414,2.832 1.352,2.609 1.973,6.41 1.973,10.914 0,4.504 -0.621,8.305 -1.973,10.914 -0.66,1.277 -1.468,2.211 -2.414,2.832 -0.937,0.609 -2.113,0.984 -3.648,0.984 -1.535,0 -2.711,-0.375 -3.648,-0.984 C 32.906,50.625 32.098,49.691 31.438,48.414 30.086,45.805 29.465,42.004 29.465,37.5 Z M 37.5,18.75 c -2.234,0 -4.191,0.562 -5.848,1.645 -1.644,1.074 -2.875,2.589 -3.785,4.343 -1.785,3.453 -2.422,8.02 -2.422,12.762 0,4.742 0.637,9.309 2.422,12.762 0.91,1.754 2.141,3.269 3.785,4.343 1.657,1.083 3.614,1.645 5.848,1.645 2.234,0 4.191,-0.562 5.848,-1.645 1.644,-1.074 2.875,-2.589 3.785,-4.343 1.785,-3.453 2.422,-8.02 2.422,-12.762 0,-4.742 -0.637,-9.309 -2.422,-12.762 -0.91,-1.754 -2.141,-3.269 -3.785,-4.343 C 41.691,19.312 39.734,18.75 37.5,18.75 Z" style="fill:currentColor;fill-opacity:1;fill-rule:nonzero;stroke:none" transform="scale(1.3333333)" /> </g>
</svg>

