<?xml version="1.0" encoding="UTF-8" standalone="no"?> <svg version="1.1" id="I35a00045cd8f491abd3cd3acafa88bf320251110123031" width="100" height="100" viewBox="0 0 100 100" xmlns="http://www.w3.org/2000/svg" xmlns:svg="http://www.w3.org/2000/svg"> <defs id="Ia5ee1d1c029842c8ae1ffd3d0b3043cf20251110123031" /> <g id="I03d517359ad0407c86a524843e9e647d20251110123031"> <path id="I4ff1b9ecdb914834ac0a17e8f87870ca20251110123031" d="M 42.969,6.25 C 46.852,6.25 50,9.398 50,13.281 v 20.582 c -3.695,1.758 -6.25,5.524 -6.25,9.887 v 0.156 c -3.566,0.723 -6.25,3.875 -6.25,7.656 v 7.032 c 0,-1.293 -1.051,-2.344 -2.344,-2.344 h -7.812 c -1.293,0 -2.344,1.051 -2.344,2.344 0,1.293 1.051,2.344 2.344,2.344 h 7.812 c 1.293,0 2.344,-1.051 2.344,-2.344 v 8.594 c 0,0.535 0.055,1.058 0.156,1.562 H 19.531 C 15.648,68.75 12.5,65.602 12.5,61.719 V 13.281 c 0,-3.883 3.148,-7.031 7.031,-7.031 z m 3.906,37.5 v 3.125 h -1.563 c -2.589,0 -4.687,2.098 -4.687,4.687 v 15.626 c 0,0.546 0.094,1.074 0.266,1.562 0.644,1.82 2.382,3.125 4.421,3.125 h 18.75 c 2.59,0 4.688,-2.098 4.688,-4.687 V 51.562 c 0,-2.589 -2.098,-4.687 -4.688,-4.687 H 62.5 V 43.75 c 0,-4.316 -3.496,-7.812 -7.812,-7.812 -1.758,0 -3.383,0.582 -4.688,1.562 -1.898,1.426 -3.125,3.695 -3.125,6.25 z m 4.687,0 c 0,-1.727 1.399,-3.125 3.126,-3.125 1.726,0 3.124,1.398 3.124,3.125 v 3.125 h -6.25 z m 6.25,15.625 c 0,1.727 -1.398,3.125 -3.124,3.125 -1.727,0 -3.126,-1.398 -3.126,-3.125 0,-1.727 1.399,-3.125 3.126,-3.125 1.726,0 3.124,1.398 3.124,3.125 z" style="fill:currentColor;fill-opacity:1;fill-rule:nonzero;stroke:none" transform="scale(1.3333333)" /> </g>
</svg>

