<?xml version="1.0" encoding="UTF-8" standalone="no"?> <svg version="1.1" id="I7208060e87e34373ac6b8c423fa956ef20251106161453" width="100" height="100" viewBox="0 0 100 100" xmlns="http://www.w3.org/2000/svg" xmlns:svg="http://www.w3.org/2000/svg"> <defs id="Ia6b1424218b146d18b83a316b1e4fdf220251106161453" /> <g id="I632e1e75823844a8abe0163fecc906fb20251106161453"> <path id="I14b58bbf5d444b5faedd1f3213d3b4d620251106161453" d="m 17.188,9.375 c -4.317,0 -7.813,3.496 -7.813,7.813 v 9.374 c 0,4.317 3.496,7.813 7.813,7.813 4.316,0 7.812,-3.496 7.812,-7.813 V 25 h 7.086 c 0.695,1.199 1.773,2.145 3.07,2.672 V 47.328 C 33.859,47.855 32.781,48.801 32.086,50 H 25 v -1.562 c 0,-4.317 -3.496,-7.813 -7.812,-7.813 -4.317,0 -7.813,3.496 -7.813,7.813 v 9.374 c 0,4.317 3.496,7.813 7.813,7.813 4.316,0 7.812,-3.496 7.812,-7.813 v -3.124 h 6.445 c 0.696,2.695 3.141,4.687 6.055,4.687 2.914,0 5.359,-1.992 6.055,-4.687 H 50 v 3.124 c 0,4.317 3.496,7.813 7.812,7.813 4.317,0 7.813,-3.496 7.813,-7.813 v -9.374 c 0,-4.317 -3.496,-7.813 -7.813,-7.813 -4.316,0 -7.812,3.496 -7.812,7.813 V 50 h -7.086 c -0.695,-1.199 -1.773,-2.145 -3.07,-2.672 V 27.672 C 41.141,27.145 42.219,26.199 42.914,25 H 50 v 1.562 c 0,4.317 3.496,7.813 7.812,7.813 4.317,0 7.813,-3.496 7.813,-7.813 v -9.374 c 0,-4.317 -3.496,-7.813 -7.813,-7.813 -4.316,0 -7.812,3.496 -7.812,7.813 v 3.124 h -6.445 c -0.696,-2.695 -3.141,-4.687 -6.055,-4.687 -2.914,0 -5.359,1.992 -6.055,4.687 H 25 V 17.188 C 25,12.871 21.504,9.375 17.188,9.375 Z m -3.126,7.813 c 0,-1.727 1.399,-3.126 3.126,-3.126 1.726,0 3.124,1.399 3.124,3.126 v 9.374 c 0,1.727 -1.398,3.126 -3.124,3.126 -1.727,0 -3.126,-1.399 -3.126,-3.126 z m 3.126,28.124 c 1.726,0 3.124,1.399 3.124,3.126 v 9.374 c 0,1.727 -1.398,3.126 -3.124,3.126 -1.727,0 -3.126,-1.399 -3.126,-3.126 v -9.374 c 0,-1.727 1.399,-3.126 3.126,-3.126 z m 37.5,-28.124 c 0,-1.727 1.398,-3.126 3.124,-3.126 1.727,0 3.126,1.399 3.126,3.126 v 9.374 c 0,1.727 -1.399,3.126 -3.126,3.126 -1.726,0 -3.124,-1.399 -3.124,-3.126 z m 3.124,28.124 c 1.727,0 3.126,1.399 3.126,3.126 v 9.374 c 0,1.727 -1.399,3.126 -3.126,3.126 -1.726,0 -3.124,-1.399 -3.124,-3.126 v -9.374 c 0,-1.727 1.398,-3.126 3.124,-3.126 z" style="fill:currentColor;fill-opacity:1;fill-rule:nonzero;stroke:none" transform="scale(1.3333333)" /> </g>
</svg>

