<?xml version="1.0" encoding="UTF-8" standalone="no"?> <svg version="1.1" id="I73f30fdba7324a14a0722a220a6b8ffc20251110123030" width="100" height="100" viewBox="0 0 100 100" xmlns="http://www.w3.org/2000/svg" xmlns:svg="http://www.w3.org/2000/svg"> <defs id="I983529a48c334b54ad42e3cd6e13537420251110123030" /> <g id="I2e86ae0db57f4d989cab14b3577f7fdf20251110123030"> <path id="I1ff2cd2ed4694d57a4ab71c95f33c0c220251110123030" d="m 25.445,10.715 c -6.656,0 -12.05,5.394 -12.05,12.055 0,6.656 5.394,12.05 12.05,12.05 6.657,0 12.055,-5.394 12.055,-12.05 0,-6.661 -5.398,-12.055 -12.055,-12.055 z M 17.41,22.77 c 0,-4.442 3.598,-8.04 8.035,-8.04 4.438,0 8.035,3.598 8.035,8.04 0,4.437 -3.597,8.035 -8.035,8.035 -4.437,0 -8.035,-3.598 -8.035,-8.035 z m 36.16,-6.7 c -5.175,0 -9.375,4.2 -9.375,9.375 0,5.18 4.2,9.375 9.375,9.375 5.18,0 9.375,-4.195 9.375,-9.375 0,-5.175 -4.195,-9.375 -9.375,-9.375 z m -5.355,9.375 c 0,-2.957 2.398,-5.355 5.355,-5.355 2.961,0 5.36,2.398 5.36,5.355 0,2.961 -2.399,5.36 -5.36,5.36 -2.957,0 -5.355,-2.399 -5.355,-5.36 z M 5.355,46.207 c 0,-3.328 2.7,-6.027 6.028,-6.027 h 28.125 c 0.535,0 1.054,0.07 1.547,0.199 -1.192,1.137 -2.243,2.418 -3.125,3.816 H 11.383 c -1.11,0 -2.008,0.903 -2.008,2.012 v 1.371 c 0.004,0.055 0.012,0.145 0.023,0.27 0.028,0.25 0.082,0.629 0.2,1.093 0.23,0.93 0.699,2.176 1.636,3.426 1.801,2.403 5.661,5.223 14.211,5.223 4.141,0 7.18,-0.66 9.418,-1.617 0.075,1.398 0.293,2.761 0.637,4.07 -2.645,0.969 -5.945,1.562 -10.055,1.562 -9.527,0 -14.711,-3.207 -17.425,-6.828 C 6.695,53.012 6.031,51.246 5.699,49.914 5.531,49.25 5.449,48.688 5.402,48.277 5.383,48.07 5.371,47.902 5.363,47.781 5.359,47.719 5.359,47.668 5.359,47.629 L 5.355,47.578 Z m 66.981,8.703 c 0,9.617 -7.797,17.41 -17.414,17.41 -3.059,0 -5.934,-0.789 -8.43,-2.172 l -7.277,2.118 c -1.016,0.296 -1.957,-0.649 -1.66,-1.661 l 2.129,-7.269 c -1.383,-2.496 -2.172,-5.367 -2.172,-8.426 0,-9.617 7.797,-17.41 17.41,-17.41 9.617,0 17.414,7.793 17.414,17.41 z M 48.227,50.895 c -0.739,0 -1.34,0.597 -1.34,1.335 0,0.743 0.601,1.34 1.34,1.34 h 13.394 c 0.738,0 1.34,-0.597 1.34,-1.34 0,-0.738 -0.602,-1.335 -1.34,-1.335 z m -1.34,6.695 c 0,0.738 0.601,1.34 1.34,1.34 h 6.695 c 0.742,0 1.34,-0.602 1.34,-1.34 0,-0.738 -0.598,-1.34 -1.34,-1.34 h -6.695 c -0.739,0 -1.34,0.602 -1.34,1.34 z" style="fill:currentColor;fill-opacity:1;fill-rule:nonzero;stroke:none" transform="scale(1.3333333)" /> </g>
</svg>

