<?xml version="1.0" encoding="UTF-8" standalone="no"?> <svg version="1.1" id="I56a1681014074c7a84663fe468e2490c20251106152729" width="100" height="100" viewBox="0 0 100 100" xmlns="http://www.w3.org/2000/svg" xmlns:svg="http://www.w3.org/2000/svg"> <defs id="I9f234fd855e44986a1f0726e866e685820251106152729" /> <g id="Idd2d80d98a0746fc9e5a6e8f408eb57720251106152729"> <path id="Ie7e0e897f96e4378bf50ddfc2cc53d0720251106152729" d="m 55.473,9.375 0.574,0.016 c 5.152,0.289 9.277,4.414 9.566,9.562 l 0.016,0.578 V 37.57 C 64.18,36.641 62.605,35.895 60.938,35.355 V 25 H 14.066 l -0.004,30.469 c 0,2.871 2.211,5.222 5.02,5.449 l 0.449,0.02 h 15.824 c 0.54,1.667 1.29,3.238 2.215,4.687 H 19.531 c -5.414,0 -9.84,-4.238 -10.14,-9.578 L 9.375,55.469 V 19.531 c 0,-5.414 4.238,-9.84 9.578,-10.14 l 0.578,-0.016 z m 0,4.687 H 19.535 c -3.019,0 -5.469,2.45 -5.469,5.469 v 0.781 h 46.875 v -0.781 c 0,-3.019 -2.449,-5.469 -5.468,-5.469 z M 32.031,29.688 c 1.188,0 2.168,0.882 2.324,2.027 l 0.02,0.316 v 21.875 c 0,1.188 -0.883,2.168 -2.027,2.324 l -0.317,0.02 H 21.094 c -1.188,0 -2.168,-0.883 -2.324,-2.027 L 18.75,53.906 V 32.031 c 0,-1.187 0.883,-2.168 2.027,-2.324 l 0.317,-0.019 z m -2.343,4.687 h -6.25 v 17.187 h 6.25 z M 56.25,32.031 c 0,-1.293 -1.051,-2.343 -2.344,-2.343 H 39.859 l -0.32,0.019 c -1.144,0.156 -2.023,1.137 -2.023,2.324 0,1.293 1.046,2.344 2.343,2.344 h 14.047 l 0.317,-0.02 c 1.144,-0.156 2.027,-1.136 2.027,-2.324 z M 44.621,43.672 c 0.984,3.406 -1.059,6.949 -4.504,7.801 l -1.824,0.453 c -0.141,0.898 -0.215,1.82 -0.215,2.762 0,0.984 0.082,1.945 0.234,2.886 L 40,57.98 c 3.477,0.836 5.543,4.415 4.531,7.844 l -0.582,1.973 c 1.371,1.203 2.934,2.183 4.637,2.879 l 1.543,-1.621 c 2.461,-2.59 6.594,-2.59 9.059,0.004 l 1.558,1.636 c 1.699,-0.687 3.262,-1.656 4.633,-2.851 l -0.617,-2.145 c -0.985,-3.406 1.058,-6.949 4.504,-7.801 l 1.824,-0.449 c 0.137,-0.898 0.211,-1.824 0.211,-2.761 0,-0.985 -0.078,-1.95 -0.235,-2.887 L 69.383,51.395 C 65.906,50.559 63.84,46.98 64.852,43.551 l 0.582,-1.973 C 64.062,40.371 62.5,39.395 60.797,38.699 l -1.543,1.617 c -2.461,2.594 -6.594,2.594 -9.059,0 l -1.558,-1.64 c -1.699,0.687 -3.262,1.656 -4.633,2.851 z m 10.07,15.703 c -2.503,0 -4.531,-2.098 -4.531,-4.687 0,-2.59 2.028,-4.688 4.531,-4.688 2.5,0 4.532,2.098 4.532,4.688 0,2.589 -2.032,4.687 -4.532,4.687 z" style="fill:currentColor;fill-opacity:1;fill-rule:nonzero;stroke:none" transform="scale(1.3333333)" /> </g>
</svg>

