<?xml version="1.0" encoding="UTF-8" standalone="no"?> <svg version="1.1" id="I6319fbe93094456e83e8ba005367e4fd20251106171633" width="100" height="100" viewBox="0 0 100 100" xmlns="http://www.w3.org/2000/svg" xmlns:svg="http://www.w3.org/2000/svg"> <defs id="I3baa2ebb251b472192fce7fc832e797e20251106171633" /> <g id="Ic200b3737ef5433ebee8da9df5e85ce720251106171633"> <path id="I3d5b6bbcd8804105ba6b18bcf18549af20251106171633" d="m 52.34,6.25 c 3.883,0 7.031,3.148 7.031,7.031 v 48.438 c 0,3.883 -3.148,7.031 -7.031,7.031 H 24.922 l 4.105,-4.688 H 52.34 c 1.297,0 2.344,-1.05 2.344,-2.343 V 13.281 c 0,-1.293 -1.047,-2.343 -2.344,-2.343 H 19.531 c -1.293,0 -2.343,1.05 -2.343,2.343 v 21.094 h -0.571 c -1.722,0 -3.301,0.945 -4.117,2.445 V 13.281 C 12.5,9.398 15.648,6.25 19.531,6.25 Z M 62.5,46.883 h 2.344 c 1.187,0 2.168,0.879 2.324,2.023 l 0.02,0.321 v 4.679 c 0,1.188 -0.883,2.168 -2.024,2.324 l -0.32,0.02 H 62.5 Z m 0,-12.5 h 2.344 c 1.187,0 2.168,0.879 2.324,2.023 l 0.02,0.321 v 4.679 c 0,1.188 -0.883,2.168 -2.024,2.324 l -0.32,0.02 H 62.5 Z m 0,-12.5 h 2.344 c 1.187,0 2.168,0.879 2.324,2.023 l 0.02,0.321 v 4.679 c 0,1.188 -0.883,2.168 -2.024,2.324 l -0.32,0.02 H 62.5 Z M 47.652,15.625 c 1.297,0 2.344,1.051 2.344,2.344 v 7.808 c 0,1.293 -1.047,2.344 -2.344,2.344 H 24.219 c -1.293,0 -2.344,-1.051 -2.344,-2.344 v -7.808 c 0,-1.293 1.051,-2.344 2.344,-2.344 z m -2.343,4.687 H 26.562 v 3.122 H 45.309 Z M 16.617,37.5 h 15.086 c 1.195,0 1.949,1.285 1.363,2.328 L 27.344,50 h 4.676 c 2.015,0 3.089,2.371 1.761,3.887 L 18.707,71.102 c -1.574,1.796 -4.508,0.265 -3.93,-2.055 l 2.411,-9.672 H 7.805 c -1.145,0 -1.903,-1.191 -1.414,-2.227 l 8.812,-18.75 C 15.461,37.852 16.012,37.5 16.617,37.5 Z" style="fill:currentColor;fill-opacity:1;fill-rule:nonzero;stroke:none" transform="scale(1.3333333)" /> </g>
</svg>

