<?xml version="1.0" encoding="UTF-8" standalone="no"?> <svg version="1.1" id="Ib91ba5e4843f46b1a386f39646c2309c20251106104833" width="100" height="100" viewBox="0 0 100 100" xmlns="http://www.w3.org/2000/svg" xmlns:svg="http://www.w3.org/2000/svg"> <defs id="I859001a6627b481cbd4ee7386866a75a20251106104833" /> <g id="I4855b87cc58d4ac1b9d9fb2c28ec853a20251106104833"> <path id="I94f19ca1789d4ec0b31fb716ee8a082620251106104833" d="M 72.32,8.035 H 2.68 C 1.195,8.035 0,9.234 0,10.715 v 53.57 c 0,1.481 1.195,2.68 2.68,2.68 h 69.64 c 1.485,0 2.68,-1.199 2.68,-2.68 v -53.57 c 0,-1.481 -1.195,-2.68 -2.68,-2.68 z m -3.347,17.41 H 51.227 V 14.062 h 17.746 z m 0,18.75 H 51.227 V 30.805 H 68.973 Z M 29.129,30.805 h 16.742 v 13.39 H 29.129 Z m 16.742,-5.36 H 29.129 V 14.062 h 16.742 z m -39.844,5.36 h 17.746 v 13.39 H 6.027 Z m 0,-16.743 H 23.773 V 25.445 H 6.027 Z m 0,35.493 H 23.773 V 60.938 H 6.027 Z m 23.102,0 H 45.871 V 60.938 H 29.129 Z M 68.973,60.938 H 51.227 V 49.555 h 17.746 z" style="fill:currentColor;fill-opacity:1;fill-rule:nonzero;stroke:none" transform="scale(1.3333333)" /> </g>
</svg>

