<?xml version="1.0" encoding="UTF-8" standalone="no"?> <svg version="1.1" id="I568dc3f6d40d4d02bcc99a5276f0b0a620251106164750" width="100" height="100" viewBox="0 0 100 100" xmlns="http://www.w3.org/2000/svg" xmlns:svg="http://www.w3.org/2000/svg"> <defs id="I7e723e139ada485a94af345801280e1020251106164750" /> <g id="I0a0fd9c6c34f4d24ab2505b351900dbf20251106164750"> <path id="I081c13a21751433db6c6350a68c84bc720251106164750" d="m 15.625,21.875 c 3.453,0 6.25,-2.797 6.25,-6.25 0,-3.453 -2.797,-6.25 -6.25,-6.25 -3.453,0 -6.25,2.797 -6.25,6.25 0,3.453 2.797,6.25 6.25,6.25 z m 43.75,0 c 3.453,0 6.25,-2.797 6.25,-6.25 0,-3.453 -2.797,-6.25 -6.25,-6.25 -3.453,0 -6.25,2.797 -6.25,6.25 0,3.453 2.797,6.25 6.25,6.25 z m 6.25,37.5 c 0,3.453 -2.797,6.25 -6.25,6.25 -3.453,0 -6.25,-2.797 -6.25,-6.25 0,-3.453 2.797,-6.25 6.25,-6.25 3.453,0 6.25,2.797 6.25,6.25 z m -50,6.25 c 3.453,0 6.25,-2.797 6.25,-6.25 0,-3.453 -2.797,-6.25 -6.25,-6.25 -3.453,0 -6.25,2.797 -6.25,6.25 0,3.453 2.797,6.25 6.25,6.25 z M 24.465,18.75 C 24.812,17.773 25,16.723 25,15.625 25,14.527 24.812,13.477 24.465,12.5 h 14.597 c 4.317,0 7.813,3.496 7.813,7.812 v 7.813 h 7.813 c 4.316,0 7.812,3.496 7.812,7.813 V 50.535 C 61.523,50.188 60.469,50 59.375,50 58.281,50 57.227,50.188 56.25,50.535 V 35.938 c 0,-0.864 -0.699,-1.563 -1.562,-1.563 h -7.813 v 4.687 c 0,4.317 -3.496,7.813 -7.813,7.813 h -4.687 v 7.813 c 0,0.863 0.699,1.562 1.563,1.562 H 50.535 C 50.188,57.227 50,58.281 50,59.375 c 0,1.094 0.188,2.148 0.535,3.125 H 35.938 c -4.317,0 -7.813,-3.496 -7.813,-7.812 v -7.813 h -7.813 c -4.316,0 -7.812,-3.496 -7.812,-7.813 V 24.465 c 0.977,0.347 2.027,0.535 3.125,0.535 1.098,0 2.148,-0.188 3.125,-0.535 v 14.597 c 0,0.864 0.699,1.563 1.562,1.563 h 7.813 v -4.687 c 0,-4.317 3.496,-7.813 7.813,-7.813 h 4.687 v -7.813 c 0,-0.863 -0.699,-1.562 -1.563,-1.562 z m 16.16,20.312 v -4.687 h -4.687 c -0.864,0 -1.563,0.699 -1.563,1.563 v 4.687 h 4.687 c 0.864,0 1.563,-0.699 1.563,-1.563 z" style="fill:currentColor;fill-opacity:1;fill-rule:nonzero;stroke:none" transform="scale(1.3333333)" /> </g>
</svg>

