<?xml version="1.0" encoding="UTF-8" standalone="no"?> <svg version="1.1" id="I4d918518180f451a839b6153eb5ea83620251106125937" width="100" height="100" viewBox="0 0 100 100" xmlns="http://www.w3.org/2000/svg" xmlns:svg="http://www.w3.org/2000/svg"> <defs id="I29cc4a28b2de4808afc1a78c81d265fd20251106125937" /> <g id="I456355e8ab2347a7b93e4775be3922f820251106125937"> <path id="I557dd051b4324086b7c060a481601e2920251106125937" d="M 24.805,11.789 C 23.473,10.988 23.039,9.262 23.84,7.93 c 0.797,-1.332 2.523,-1.766 3.855,-0.965 5.055,3.031 8.778,6.691 11.176,11.754 2.359,4.988 3.317,11.086 3.317,18.781 V 57.898 L 52.387,47.699 c 1.097,-1.097 2.879,-1.097 3.976,0 1.098,1.098 1.098,2.879 0,3.977 l -15,15 c -1.097,1.097 -2.879,1.097 -3.976,0 l -15,-15 c -1.098,-1.098 -1.098,-2.879 0,-3.977 1.097,-1.097 2.879,-1.097 3.976,0 L 36.562,57.898 V 37.5 c 0,-7.301 -0.917,-12.453 -2.777,-16.375 -1.82,-3.844 -4.66,-6.742 -8.98,-9.336 z" style="fill:currentColor;fill-opacity:1;fill-rule:nonzero;stroke:none" transform="scale(1.3333333)" /> </g>
</svg>

