<?xml version="1.0" encoding="UTF-8" standalone="no"?> <svg version="1.1" id="I860f442dc32b4ae9b1806b9d3957a6ca20251106125938" width="100" height="100" viewBox="0 0 100 100" xmlns="http://www.w3.org/2000/svg" xmlns:svg="http://www.w3.org/2000/svg"> <defs id="I93ce4bad39d844fe96d1f107b753bd1a20251106125938" /> <g id="Ib6311f2790314aecb71a713828fc90bd20251106125938"> <path id="Ie69ae853f8a641609b0dfbe673ad893e20251106125938" d="m 66.406,14.062 c 1.188,0 2.168,0.883 2.324,2.028 l 0.02,0.316 v 42.188 c 0,1.293 -1.051,2.344 -2.344,2.344 -1.187,0 -2.168,-0.883 -2.32,-2.028 L 64.062,58.594 V 16.406 c 0,-1.293 1.051,-2.344 2.344,-2.344 z m -28.25,5.899 0.258,-0.297 c 1.129,-1.125 2.902,-1.211 4.125,-0.258 l 0.297,0.258 15.613,15.617 c 1.125,1.129 1.215,2.899 0.262,4.125 l -0.262,0.293 -15.613,15.637 c -1.219,1.223 -3.199,1.223 -4.418,0.004 -1.129,-1.125 -1.215,-2.899 -0.266,-4.125 L 38.414,50.922 48.691,40.625 H 9.375 c -1.602,0 -2.922,-1.207 -3.105,-2.762 L 6.25,37.5 c 0,-1.602 1.207,-2.922 2.762,-3.105 l 0.363,-0.02 H 48.699 L 38.414,24.086 c -1.125,-1.129 -1.211,-2.902 -0.258,-4.125 l 0.258,-0.297 z" style="fill:currentColor;fill-opacity:1;fill-rule:nonzero;stroke:none" transform="scale(1.3333333)" /> </g>
</svg>

