<?xml version="1.0" encoding="UTF-8" standalone="no"?> <svg version="1.1" id="I632926df11fc4002ae50a18be6ec7c0820251106171633" width="100" height="100" viewBox="0 0 100 100" xmlns="http://www.w3.org/2000/svg" xmlns:svg="http://www.w3.org/2000/svg"> <defs id="Iaf26b47578d7484e8a80170d5cbfeb7c20251106171633" /> <g id="Ic2acc566214c44fda17706247af2bee520251106171633"> <path id="Ia56dc4e98bf6487781a69f83b35e515720251106171633" d="m 37.5,5.355 c 1.109,0 2.008,0.903 2.008,2.012 v 3.211 c -0.121,0.047 -0.25,0.094 -0.375,0.133 l -4.074,1.34 c -0.856,0.285 -1.598,0.844 -2.118,1.582 -0.242,0.34 -0.429,0.711 -0.566,1.097 H 20.758 c -1.848,0 -3.348,1.5 -3.348,3.352 v 41.516 c 0,1.851 1.5,3.347 3.348,3.347 h 22.097 v -7.363 c 0,-4.07 3.301,-7.367 7.368,-7.367 h 7.367 v -9.57 l 0.558,1.718 c 0.239,0.735 0.711,1.375 1.34,1.821 0.617,0.437 1.36,0.671 2.117,0.671 v 7.207 c 0,1.063 -0.421,2.086 -1.175,2.84 L 47.543,65.785 c -0.75,0.754 -1.773,1.18 -2.84,1.18 H 20.758 c -4.067,0 -7.363,-3.297 -7.363,-7.367 V 18.082 c 0,-4.07 3.296,-7.367 7.363,-7.367 H 21.43 V 7.367 c 0,-1.109 0.898,-2.012 2.008,-2.012 1.109,0 2.007,0.903 2.007,2.012 v 3.348 H 35.492 V 7.367 c 0,-1.109 0.899,-2.012 2.008,-2.012 z M 50.223,52.23 c -1.848,0 -3.348,1.5 -3.348,3.352 v 5.195 L 55.418,52.23 Z M 35.699,48.227 c 1.012,0.101 1.801,0.957 1.801,1.996 0,1.039 -0.789,1.894 -1.801,2 l -0.207,0.007 h -9.375 c -1.109,0 -2.012,-0.898 -2.012,-2.007 0,-1.11 0.903,-2.008 2.012,-2.008 h 9.375 z M 49.09,36.172 c 1.012,0.101 1.805,0.957 1.805,1.996 0,1.043 -0.793,1.898 -1.805,2 L 48.883,40.18 H 26.117 c -1.109,0 -2.012,-0.903 -2.012,-2.012 0,-1.109 0.903,-2.008 2.012,-2.008 H 48.883 Z M 61.559,24.105 c 0.199,0 0.398,0.063 0.562,0.18 0.164,0.117 0.289,0.281 0.356,0.473 l 0.796,2.457 c 0.25,0.746 0.668,1.426 1.227,1.984 0.559,0.555 1.238,0.973 1.984,1.223 l 2.461,0.801 0.047,0.011 c 0.192,0.067 0.356,0.192 0.473,0.356 0.117,0.164 0.18,0.359 0.18,0.558 0,0.2 -0.063,0.399 -0.18,0.563 -0.117,0.164 -0.281,0.285 -0.473,0.351 l -2.461,0.801 c -0.746,0.25 -1.426,0.668 -1.98,1.227 -0.559,0.555 -0.981,1.234 -1.227,1.98 l -0.801,2.461 c -0.066,0.188 -0.191,0.352 -0.355,0.469 -0.164,0.117 -0.359,0.18 -0.563,0.18 -0.199,0 -0.398,-0.063 -0.562,-0.18 -0.164,-0.117 -0.285,-0.281 -0.352,-0.469 l -0.8,-2.461 c -0.246,-0.75 -0.668,-1.429 -1.223,-1.988 -0.559,-0.559 -1.238,-0.98 -1.988,-1.23 l -2.461,-0.797 c -0.188,-0.067 -0.352,-0.192 -0.469,-0.356 -0.117,-0.164 -0.18,-0.359 -0.18,-0.562 0,-0.199 0.063,-0.399 0.18,-0.563 0.117,-0.164 0.281,-0.285 0.469,-0.351 l 2.461,-0.801 c 0.738,-0.254 1.41,-0.68 1.957,-1.234 0.551,-0.555 0.961,-1.231 1.203,-1.973 l 0.801,-2.457 c 0.066,-0.192 0.191,-0.356 0.355,-0.473 0.164,-0.117 0.359,-0.18 0.563,-0.18 z M 48.133,2.68 c 0.336,0 0.66,0.105 0.933,0.297 0.274,0.195 0.485,0.464 0.594,0.781 l 1.332,4.097 c 0.414,1.247 1.113,2.379 2.043,3.305 0.93,0.93 2.063,1.629 3.309,2.043 l 4.097,1.332 0.086,0.02 c 0.317,0.109 0.59,0.32 0.782,0.593 0.195,0.274 0.296,0.598 0.296,0.934 0,0.336 -0.101,0.66 -0.296,0.934 -0.192,0.273 -0.465,0.48 -0.782,0.589 l -4.101,1.333 c -1.246,0.414 -2.379,1.117 -3.309,2.042 -0.929,0.93 -1.629,2.063 -2.043,3.309 l -1.332,4.094 c -0.012,0.035 -0.023,0.07 -0.039,0.101 -0.117,0.274 -0.308,0.508 -0.551,0.684 -0.273,0.191 -0.601,0.297 -0.937,0.297 -0.336,0 -0.664,-0.106 -0.938,-0.297 -0.273,-0.195 -0.48,-0.469 -0.589,-0.785 L 45.355,24.289 C 45.055,23.375 44.598,22.52 44.012,21.762 43.797,21.484 43.566,21.219 43.316,20.969 42.387,20.035 41.25,19.336 40.004,18.922 L 35.902,17.59 c -0.316,-0.113 -0.59,-0.32 -0.781,-0.594 -0.195,-0.273 -0.301,-0.601 -0.301,-0.934 0,-0.335 0.106,-0.66 0.301,-0.933 0.191,-0.274 0.465,-0.481 0.781,-0.594 l 4.102,-1.332 c 1.23,-0.422 2.348,-1.129 3.262,-2.058 0.886,-0.903 1.562,-1.993 1.972,-3.188 L 45.273,7.855 46.605,3.758 C 46.719,3.441 46.922,3.172 47.195,2.977 47.469,2.785 47.797,2.68 48.133,2.68 Z M 42.32,24.105 c 0.196,0.34 0.364,0.696 0.481,1.071 l 0.965,2.949 H 26.117 c -1.109,0 -2.012,-0.898 -2.012,-2.008 0,-1.109 0.903,-2.012 2.012,-2.012 z" style="fill:currentColor;fill-opacity:1;fill-rule:nonzero;stroke:none" transform="scale(1.3333333)" /> </g>
</svg>

