<?xml version="1.0" encoding="UTF-8" standalone="no"?> <svg version="1.1" id="Id44ca38b88944c0d956163498b432d5420251106113050" width="100" height="100" viewBox="0 0 100 100" xmlns="http://www.w3.org/2000/svg" xmlns:svg="http://www.w3.org/2000/svg"> <defs id="I191a09e959364e458444d775e799cafe20251106113050" /> <g id="I09b8950b40a4445e899436f3b410c27a20251106113050"> <path id="I7de82b405e4b4554929ac0c815c23ea120251106113050" d="M 64.285,0 H 10.715 C 9.234,0 8.035,1.195 8.035,2.68 v 69.64 c 0,1.485 1.199,2.68 2.68,2.68 h 53.57 c 1.481,0 2.68,-1.195 2.68,-2.68 V 2.68 C 66.965,1.195 65.766,0 64.285,0 Z M 60.938,68.973 H 14.062 V 52.148 h 8.196 c 0.969,2.747 2.68,5.215 4.945,7.09 2.891,2.387 6.547,3.707 10.297,3.707 3.75,0 7.406,-1.312 10.297,-3.707 2.265,-1.875 3.976,-4.343 4.945,-7.09 h 8.196 V 46.875 H 48.516 l -0.434,2.066 c -1.008,5.008 -5.461,8.649 -10.582,8.649 -5.121,0 -9.574,-3.641 -10.59,-8.649 L 26.477,46.875 H 14.062 V 6.027 H 60.938 Z M 21.43,23.188 h 32.14 c 0.371,0 0.672,-0.301 0.672,-0.672 V 18.5 c 0,-0.371 -0.301,-0.672 -0.672,-0.672 H 21.43 c -0.371,0 -0.672,0.301 -0.672,0.672 v 4.016 c 0,0.371 0.301,0.672 0.672,0.672 z m 0,13.39 h 32.14 c 0.371,0 0.672,-0.301 0.672,-0.668 v -4.019 c 0,-0.368 -0.301,-0.668 -0.672,-0.668 H 21.43 c -0.371,0 -0.672,0.3 -0.672,0.668 v 4.019 c 0,0.367 0.301,0.668 0.672,0.668 z" style="fill:currentColor;fill-opacity:1;fill-rule:nonzero;stroke:none" transform="scale(1.3333333)" /> </g>
</svg>

