<?xml version="1.0" encoding="UTF-8" standalone="no"?> <svg version="1.1" id="I34c7277ccd2a42c986415877f47c73d620251110124421" width="100" height="100" viewBox="0 0 100 100" xmlns="http://www.w3.org/2000/svg" xmlns:svg="http://www.w3.org/2000/svg"> <defs id="I0d5a02315d004c7a8bdbeb17e21fd8fa20251110124421" /> <g id="I1ec0d421369a49ffa5861702ab16cd0920251110124421"> <path id="Ie87c8795430a4145832660c71208c14a20251110124421" d="m 38.539,7.816 c -0.629,-0.421 -1.449,-0.421 -2.078,0 -7.27,4.844 -15.129,7.868 -23.602,9.079 -0.921,0.132 -1.609,0.921 -1.609,1.855 v 16.875 c 0,14.594 8.652,25.238 25.578,31.75 0.434,0.168 0.91,0.168 1.344,0 1.293,-0.496 2.535,-1.016 3.73,-1.563 -0.976,-1.351 -1.793,-2.808 -2.445,-4.363 -1.199,-2.863 -1.824,-6.011 -1.937,-9.387 L 37.516,52.031 37.5,50.973 v -9.496 l -7.387,7.386 c -1.097,1.098 -2.879,1.098 -3.976,0 -1.098,-1.097 -1.098,-2.879 0,-3.976 L 33.523,37.5 26.137,30.113 c -1.098,-1.097 -1.098,-2.879 0,-3.976 1.097,-1.098 2.879,-1.098 3.976,0 l 7.387,7.386 7.387,-7.386 c 1.097,-1.098 2.879,-1.098 3.976,0 1.098,1.097 1.098,2.879 0,3.976 l -6.136,6.137 h 0.023 c 3.398,0 6.59,-1.363 9.738,-4.641 2.063,-2.148 5.473,-2.144 7.532,0.004 0.75,0.782 1.496,1.449 2.242,2.012 0.496,0.375 0.992,0.707 1.488,0.992 V 18.75 c 0,-0.934 -0.688,-1.723 -1.609,-1.855 C 53.668,15.684 45.809,12.66 38.539,7.816 Z M 63.75,38.801 c -1.293,-0.543 -2.539,-1.27 -3.75,-2.184 -0.918,-0.695 -1.812,-1.496 -2.688,-2.41 -0.585,-0.609 -1.535,-0.609 -2.121,0 C 51.461,38.09 47.336,40 42.75,40 c -0.828,0 -1.5,0.699 -1.5,1.562 v 9.379 l 0.016,0.997 c 0.101,2.988 0.652,5.675 1.652,8.062 0.562,1.348 1.273,2.598 2.121,3.75 1.027,1.398 2.266,2.648 3.711,3.75 1.961,1.5 4.305,2.727 7.027,3.668 0.305,0.109 0.641,0.109 0.946,0 C 66.328,67.836 71.25,61 71.25,50.941 V 41.562 L 71.219,41.246 C 71.078,40.535 70.477,40 69.75,40 68.988,40 68.238,39.945 67.5,39.844 66.211,39.656 64.961,39.312 63.75,38.801 Z" style="fill:currentColor;fill-opacity:1;fill-rule:nonzero;stroke:none" transform="scale(1.3333333)" /> </g>
</svg>

