<?xml version="1.0" encoding="UTF-8" standalone="no"?> <svg version="1.1" id="I9c50166fb10848d39540e123d54188cb20251110135155" width="100" height="100" viewBox="0 0 100 100" xmlns="http://www.w3.org/2000/svg" xmlns:svg="http://www.w3.org/2000/svg"> <defs id="Id2b93293f7a14dcf8dfddc97d2801fe720251110135155" /> <g id="If7bcdca226ae421092135c17607bdfb620251110135155"> <path id="Ie47fb947629746139f3683d9e84c253020251110135155" d="m 23.438,51.562 c 2.585,0 4.683,2.102 4.683,4.688 0,2.586 -2.098,4.688 -4.683,4.688 -2.59,0 -4.688,-2.102 -4.688,-4.688 0,-2.586 2.098,-4.688 4.688,-4.688 z m 12.5,1.563 h 29.699 c 1.726,0 3.125,1.398 3.125,3.125 0,1.602 -1.207,2.922 -2.762,3.105 l -0.363,0.02 H 35.938 c -1.727,0 -3.126,-1.398 -3.126,-3.125 0,-1.602 1.208,-2.922 2.762,-3.105 l 0.364,-0.02 h 29.699 z m -25,-20.313 c 2.585,0 4.683,2.102 4.683,4.688 0,2.586 -2.098,4.688 -4.683,4.688 -2.59,0 -4.688,-2.102 -4.688,-4.688 0,-2.586 2.098,-4.688 4.688,-4.688 z m 12.5,1.563 h 42.199 c 1.726,0 3.125,1.398 3.125,3.125 0,1.602 -1.207,2.922 -2.762,3.105 l -0.363,0.02 H 23.438 c -1.727,0 -3.126,-1.398 -3.126,-3.125 0,-1.602 1.208,-2.922 2.762,-3.105 l 0.364,-0.02 h 42.199 z m -12.5,-20.289 c 2.585,0 4.683,2.098 4.683,4.687 0,2.586 -2.098,4.684 -4.683,4.684 -2.59,0 -4.688,-2.098 -4.688,-4.684 0,-2.589 2.098,-4.687 4.688,-4.687 z m 12.5,1.543 h 42.199 c 1.726,0 3.125,1.398 3.125,3.125 0,1.601 -1.207,2.922 -2.762,3.101 l -0.363,0.024 H 23.438 c -1.727,0 -3.126,-1.402 -3.126,-3.125 0,-1.606 1.208,-2.926 2.762,-3.106 l 0.364,-0.019 h 42.199 z" style="fill:currentColor;fill-opacity:1;fill-rule:nonzero;stroke:none" transform="scale(1.3333333)" /> </g>
</svg>

