<?xml version="1.0" encoding="UTF-8" standalone="no"?> <svg version="1.1" id="If040e2f9b30842c68d5dd6a40c0b231920251106123559" width="100" height="100" viewBox="0 0 100 100" xmlns="http://www.w3.org/2000/svg" xmlns:svg="http://www.w3.org/2000/svg"> <defs id="Ie018edd4505d43478887db0a8721382b20251106123559" /> <g id="I78d152548382436cb853491698246a9320251106123559"> <path id="I9ec3faaf430040f08de9cae93e120a4120251106123559" d="m 56.25,5.355 c 1.48,0 2.68,1.2 2.68,2.68 v 8.035 h 8.035 c 1.48,0 2.68,1.2 2.68,2.68 0,1.48 -1.2,2.68 -2.68,2.68 H 58.93 v 8.035 c 0,1.48 -1.2,2.68 -2.68,2.68 -1.48,0 -2.68,-1.2 -2.68,-2.68 V 21.43 h -8.035 c -1.48,0 -2.68,-1.2 -2.68,-2.68 0,-1.48 1.2,-2.68 2.68,-2.68 H 53.57 V 8.035 c 0,-1.48 1.2,-2.68 2.68,-2.68 z m -40.18,2.68 c -4.437,0 -8.035,3.598 -8.035,8.035 v 42.86 c 0,4.437 3.598,8.035 8.035,8.035 h 42.86 c 4.437,0 8.035,-3.598 8.035,-8.035 V 42.855 c 0,-4.437 -3.598,-8.035 -8.035,-8.035 H 40.18 V 16.07 c 0,-4.437 -3.598,-8.035 -8.035,-8.035 z M 34.82,34.82 H 13.395 V 16.07 c 0,-1.476 1.199,-2.675 2.675,-2.675 h 16.075 c 1.476,0 2.675,1.199 2.675,2.675 z m 5.36,26.785 V 40.18 h 18.75 c 1.476,0 2.675,1.199 2.675,2.675 V 58.93 c 0,1.476 -1.199,2.675 -2.675,2.675 z m -5.36,0 H 16.07 c -1.476,0 -2.675,-1.199 -2.675,-2.675 V 40.18 H 34.82 Z" style="fill:currentColor;fill-opacity:1;fill-rule:nonzero;stroke:none" transform="scale(1.3333333)" /> </g>
</svg>

