<?xml version="1.0" encoding="UTF-8" standalone="no"?> <svg version="1.1" id="I22fbffff6ccc4eb08565c06eae3e3b4b20251106123600" width="100" height="100" viewBox="0 0 100 100" xmlns="http://www.w3.org/2000/svg" xmlns:svg="http://www.w3.org/2000/svg"> <defs id="Ib859bb8444eb4c1ca55891484c1e9edb20251106123600" /> <g id="Ie16a2935543642dda91f99e0dbc9885f20251106123600"> <path id="I9dea7e0b589442d88b49b42202d4583c20251106123600" d="m 4.688,18.75 c 0,-3.883 3.148,-7.031 7.031,-7.031 h 7.031 c 3.883,0 7.031,3.148 7.031,7.031 v 7.031 c 0,3.883 -3.148,7.031 -7.031,7.031 h -7.031 c -3.883,0 -7.031,-3.148 -7.031,-7.031 z m 7.031,-2.344 c -1.293,0 -2.344,1.051 -2.344,2.344 v 7.031 c 0,1.293 1.051,2.344 2.344,2.344 h 7.031 c 1.293,0 2.344,-1.051 2.344,-2.344 V 18.75 c 0,-1.293 -1.051,-2.344 -2.344,-2.344 z m 23.437,-2.344 c -1.293,0 -2.344,1.051 -2.344,2.344 0,1.293 1.051,2.344 2.344,2.344 h 32.813 c 1.293,0 2.343,-1.051 2.343,-2.344 0,-1.293 -1.05,-2.344 -2.343,-2.344 z m 0,30.469 c -1.293,0 -2.344,1.051 -2.344,2.344 0,1.293 1.051,2.344 2.344,2.344 h 32.813 c 1.293,0 2.343,-1.051 2.343,-2.344 0,-1.293 -1.05,-2.344 -2.343,-2.344 z m -2.344,-18.75 c 0,-1.293 1.051,-2.343 2.344,-2.343 H 56.25 c 1.293,0 2.344,1.05 2.344,2.343 0,1.293 -1.051,2.344 -2.344,2.344 H 35.156 c -1.293,0 -2.344,-1.051 -2.344,-2.344 z m 2.344,28.125 c -1.293,0 -2.344,1.051 -2.344,2.344 0,1.293 1.051,2.344 2.344,2.344 H 56.25 c 1.293,0 2.344,-1.051 2.344,-2.344 0,-1.293 -1.051,-2.344 -2.344,-2.344 z M 11.719,42.188 c -3.883,0 -7.031,3.148 -7.031,7.031 v 7.031 c 0,3.883 3.148,7.031 7.031,7.031 h 7.031 c 3.883,0 7.031,-3.148 7.031,-7.031 v -7.031 c 0,-3.883 -3.148,-7.031 -7.031,-7.031 z m -2.344,7.031 c 0,-1.293 1.051,-2.344 2.344,-2.344 h 7.031 c 1.293,0 2.344,1.051 2.344,2.344 v 7.031 c 0,1.293 -1.051,2.344 -2.344,2.344 h -7.031 c -1.293,0 -2.344,-1.051 -2.344,-2.344 z" style="fill:currentColor;fill-opacity:1;fill-rule:nonzero;stroke:none" transform="scale(1.3333333)" /> </g>
</svg>

