<?xml version="1.0" encoding="UTF-8" standalone="no"?> <svg version="1.1" id="I63cdf06db4314c1d8f7158020b227ddd20251110123031" width="100" height="100" viewBox="0 0 100 100" xmlns="http://www.w3.org/2000/svg" xmlns:svg="http://www.w3.org/2000/svg"> <defs id="I45bb7b3454154dd89a6103b94172c4fb20251110123031" /> <g id="Iefdfe199531b4318a0f7ae0923681ef020251110123031"> <path id="I236437d743be4f05bd874547e8411d2f20251110123031" d="m 53.309,38.113 c 0.851,-0.82 2.355,-0.82 3.207,0 2.136,2.063 6.242,5.34 11.293,6.012 1.003,0.137 1.832,0.902 1.836,1.863 v 8.989 c -0.004,12.078 -11.719,16.461 -14.254,17.269 -0.317,0.102 -0.641,0.102 -0.957,0 C 51.898,71.438 40.18,67.055 40.18,54.977 v -8.989 c 0,-0.961 0.828,-1.726 1.836,-1.863 5.046,-0.672 9.156,-3.949 11.293,-6.012 z M 38.82,42.855 c -0.785,0.77 -1.32,1.829 -1.32,3.137 v 8.985 l 0.043,1.293 c 0.328,5.289 2.652,9.23 5.418,12.066 -3.262,0.844 -6.906,1.309 -10.816,1.309 -15.508,0 -26.786,-6.875 -26.79,-16.836 v -1.914 c 0,-4.442 3.598,-8.04 8.04,-8.04 z m -6.675,-37.5 c 8.875,0 16.07,7.196 16.07,16.075 0,8.875 -7.195,16.07 -16.07,16.07 -8.879,0 -16.075,-7.195 -16.075,-16.07 0,-8.879 7.196,-16.075 16.075,-16.075 z" style="fill:currentColor;fill-opacity:1;fill-rule:nonzero;stroke:none" transform="scale(1.3333333)" /> </g>
</svg>

