<?xml version="1.0" encoding="UTF-8" standalone="no"?> <svg version="1.1" id="Ifbb39193326741d68b46a34ab5a5d91220251106170411" width="100" height="100" viewBox="0 0 100 100" xmlns="http://www.w3.org/2000/svg" xmlns:svg="http://www.w3.org/2000/svg"> <defs id="I1740d659f6fe4badb008b9476802972420251106170411" /> <g id="I6368b0b581f344958487a2456b69d16b20251106170411"> <path id="I1ccb17ce5f80470f82e9d51577b6d11c20251106170411" d="m 34.328,6.676 c 4.582,-1.66 9.422,1.738 9.422,6.613 v 0.551 l -20.395,7.379 c -4.64,1.679 -7.73,6.086 -7.73,11.019 V 49.594 C 11.055,51.211 6.25,47.824 6.25,42.965 V 23.961 c 0,-4.277 2.68,-8.094 6.699,-9.551 z m 12.5,9.375 c 4.582,-1.66 9.422,1.738 9.422,6.613 v 0.551 l -21.426,7.754 c -4.019,1.453 -6.699,5.273 -6.699,9.551 V 58.969 C 23.555,60.586 18.75,57.199 18.75,52.34 V 32.238 c 0,-3.617 2.266,-6.847 5.668,-8.078 z m 12.5,9.375 c 4.582,-1.66 9.422,1.738 9.422,6.613 v 21.195 c 0,2.961 -1.855,5.606 -4.641,6.614 l -23.437,8.48 C 36.09,69.984 31.25,66.59 31.25,61.715 V 40.52 c 0,-2.961 1.855,-5.606 4.641,-6.614 z" style="fill:currentColor;fill-opacity:1;fill-rule:nonzero;stroke:none" transform="scale(1.3333333)" /> </g>
</svg>

