<?xml version="1.0" encoding="UTF-8" standalone="no"?> <svg version="1.1" id="I1b9ebc3cb8b74460a855dfa1bb0fcb9120251106164749" width="100" height="100" viewBox="0 0 100 100" xmlns="http://www.w3.org/2000/svg" xmlns:svg="http://www.w3.org/2000/svg"> <defs id="Idc9a8f72bd3d411da043701454b0788e20251106164749" /> <g id="I85952150d84749dcb86b765b5f286ece20251106164749"> <path id="Id0bc160e4b654de0becdd2811cf72ec120251106164749" d="m 17.098,10.684 c -0.254,4.332 1.218,8.757 4.429,12.132 -5.867,1.688 -10.535,6.68 -11.437,13.176 -1.028,7.36 0.484,14.852 4.289,21.238 l 1.094,1.84 c 0.043,0.071 0.086,0.137 0.132,0.2 l 4.426,5.96 c 3.989,5.372 11.848,5.872 16.485,1.047 0.539,-0.558 1.429,-0.558 1.968,0 4.637,4.825 12.496,4.325 16.485,-1.047 l 4.426,-5.96 c 0.046,-0.063 0.089,-0.129 0.132,-0.2 l 1.094,-1.84 C 64.426,50.844 65.938,43.352 64.91,35.992 63.633,26.832 54.879,20.66 45.82,22.535 l -5.941,1.235 h -0.012 c 0.094,-2.438 0.477,-5.067 1.223,-7.309 0.906,-2.711 2.164,-4.344 3.562,-4.926 1.196,-0.496 1.758,-1.867 1.262,-3.062 -0.5,-1.196 -1.871,-1.762 -3.066,-1.262 -3.289,1.371 -5.157,4.621 -6.203,7.769 -0.051,0.145 -0.098,0.293 -0.145,0.442 C 35.75,13.973 34.77,12.609 33.551,11.395 30.137,7.98 25.578,6.406 21.113,6.668 18.949,6.797 17.227,8.52 17.098,10.684 Z m 9.144,24.425 c -1.086,0.215 -2.078,0.977 -2.703,2.434 -0.633,1.48 -0.859,3.676 -0.172,6.418 0.313,1.254 -0.449,2.527 -1.707,2.84 -1.254,0.316 -2.527,-0.449 -2.84,-1.703 -0.879,-3.508 -0.711,-6.786 0.41,-9.403 1.137,-2.648 3.266,-4.621 6.09,-5.183 1.27,-0.254 2.504,0.57 2.758,1.84 0.254,1.265 -0.57,2.503 -1.836,2.757 z" style="fill:currentColor;fill-opacity:1;fill-rule:nonzero;stroke:none" transform="scale(1.3333333)" /> </g>
</svg>

