<?xml version="1.0" encoding="UTF-8" standalone="no"?> <svg version="1.1" id="Ia091fd62ff6e4d669e5fbae18d444ecb20251110130509" width="100" height="100" viewBox="0 0 100 100" xmlns="http://www.w3.org/2000/svg" xmlns:svg="http://www.w3.org/2000/svg"> <defs id="I147bd732ea214d6e97fca16a77ca77f520251110130509" /> <g id="I41c55ebd166f464488569bbe1d48380b20251110130509"> <path id="If57255e068ee4efc986e18d846bbed6720251110130509" d="m 52.23,26.785 c 2.219,0 4.02,-1.797 4.02,-4.015 0,-2.219 -1.801,-4.02 -4.02,-4.02 -2.218,0 -4.015,1.801 -4.015,4.02 0,2.218 1.797,4.015 4.015,4.015 z M 40.941,8.035 c -2.308,0 -4.523,0.918 -6.156,2.551 L 10.012,35.363 c -3.403,3.399 -3.403,8.91 0,12.309 l 17.312,17.316 c 2.969,2.965 7.539,3.344 10.914,1.137 -0.75,-1.113 -1.39,-2.309 -1.91,-3.566 -1.836,1.406 -4.48,1.269 -6.16,-0.411 L 12.852,44.832 C 11.02,43 11.02,40.035 12.852,38.203 L 37.629,13.426 c 0.879,-0.879 2.07,-1.371 3.312,-1.371 h 18.657 c 1.847,0 3.347,1.496 3.347,3.347 v 18.657 c 0,0.773 -0.191,1.531 -0.55,2.203 1.253,0.504 2.445,1.129 3.558,1.863 0.656,-1.242 1.012,-2.637 1.012,-4.066 V 15.402 c 0,-4.07 -3.301,-7.367 -7.367,-7.367 z M 54.91,72.32 c 9.617,0 17.41,-7.793 17.41,-17.41 0,-9.617 -7.793,-17.41 -17.41,-17.41 -9.617,0 -17.41,7.793 -17.41,17.41 0,9.617 7.793,17.41 17.41,17.41 z m 8.985,-26.39 c 0.523,0.519 0.523,1.371 0,1.89 L 47.82,63.895 c -0.519,0.523 -1.371,0.523 -1.89,0 -0.524,-0.524 -0.524,-1.372 0,-1.895 L 62,45.93 c 0.523,-0.524 1.371,-0.524 1.895,0 z m -18.36,4.293 c 0,-1.11 0.899,-2.008 2.008,-2.008 1.109,0 2.012,0.898 2.012,2.008 0,1.109 -0.903,2.007 -2.012,2.007 -1.109,0 -2.008,-0.898 -2.008,-2.007 z m 2.008,-4.688 c 2.59,0 4.687,2.098 4.687,4.688 0,2.589 -2.097,4.687 -4.687,4.687 -2.586,0 -4.688,-2.098 -4.688,-4.687 0,-2.59 2.102,-4.688 4.688,-4.688 z M 62.277,57.59 c -1.109,0 -2.007,0.898 -2.007,2.008 0,1.109 0.898,2.007 2.007,2.007 1.11,0 2.008,-0.898 2.008,-2.007 0,-1.11 -0.898,-2.008 -2.008,-2.008 z m -4.687,2.008 c 0,-2.59 2.098,-4.688 4.687,-4.688 2.59,0 4.688,2.098 4.688,4.688 0,2.59 -2.098,4.687 -4.688,4.687 -2.589,0 -4.687,-2.097 -4.687,-4.687 z" style="fill:currentColor;fill-opacity:1;fill-rule:nonzero;stroke:none" transform="scale(1.3333333)" /> </g>
</svg>

