<?xml version="1.0" encoding="UTF-8" standalone="no"?> <svg version="1.1" id="I23fdee5d8ac9404d8f80347b5b551b4920251106123600" width="100" height="100" viewBox="0 0 100 100" xmlns="http://www.w3.org/2000/svg" xmlns:svg="http://www.w3.org/2000/svg"> <defs id="Iffe244cd85c849d781648d078514dc4220251106123600" /> <g id="Ife59ee13483747f89d9611e559bcc1f120251106123600"> <path id="I82c2e46a27174065a4dd0b48cd9c148e20251106123600" d="M 32.844,29.688 H 47.656 C 48.949,29.688 50,28.637 50,27.344 50,26.051 48.949,25 47.656,25 H 27.344 C 26.051,25 25,26.051 25,27.344 v 20.312 c 0,1.293 1.051,2.344 2.344,2.344 1.293,0 2.344,-1.051 2.344,-2.344 V 33.16 l 16.32,16.16 c 0.918,0.914 2.402,0.907 3.312,-0.015 0.91,-0.918 0.907,-2.403 -0.015,-3.313 z M 68.75,37.5 C 68.75,54.758 54.758,68.75 37.5,68.75 20.242,68.75 6.25,54.758 6.25,37.5 6.25,20.242 20.242,6.25 37.5,6.25 54.758,6.25 68.75,20.242 68.75,37.5 Z M 37.5,64.062 c 14.672,0 26.562,-11.89 26.562,-26.562 0,-14.672 -11.89,-26.562 -26.562,-26.562 -14.672,0 -26.562,11.89 -26.562,26.562 0,14.672 11.89,26.562 26.562,26.562 z" style="fill:currentColor;fill-opacity:1;fill-rule:nonzero;stroke:none" transform="scale(1.3333333)" /> </g>
</svg>

