<?xml version="1.0" encoding="UTF-8" standalone="no"?> <svg version="1.1" id="I5955de352ebc47daa878f0d1349daf2a20251110123029" width="100" height="100" viewBox="0 0 100 100" xmlns="http://www.w3.org/2000/svg" xmlns:svg="http://www.w3.org/2000/svg"> <defs id="Ic3c8f5cd15c745b7a725e635b91e857f20251110123029" /> <g id="I9461e32c4698472f846a2f1f3b0007e220251110123029"> <path id="I56c6427257e146268c2972e3a682154f20251110123029" d="M 57.09,65.629 H 36.66 c -1.078,1.867 -3.098,3.121 -5.41,3.121 -3.453,0 -6.25,-2.797 -6.25,-6.25 0,-2.316 1.258,-4.336 3.129,-5.414 V 46.875 L 17.91,46.879 c -1.008,1.738 -2.828,2.949 -4.945,3.105 L 12.5,50 c -3.453,0 -6.25,-2.797 -6.25,-6.25 0,-2.312 1.258,-4.332 3.125,-5.414 V 17.914 C 7.508,16.832 6.25,14.812 6.25,12.5 c 0,-3.453 2.797,-6.25 6.25,-6.25 2.312,0 4.332,1.258 5.414,3.125 H 38.336 C 39.418,7.508 41.438,6.25 43.75,6.25 c 3.453,0 6.25,2.797 6.25,6.25 0,2.312 -1.254,4.332 -3.121,5.41 l -0.004,10.215 h 10.211 c 1.008,-1.742 2.832,-2.953 4.949,-3.109 L 62.5,25 c 3.453,0 6.25,2.797 6.25,6.25 0,2.312 -1.254,4.328 -3.117,5.41 v 20.43 c 1.863,1.082 3.117,3.098 3.117,5.41 0,3.453 -2.797,6.25 -6.25,6.25 -2.312,0 -4.332,-1.254 -5.41,-3.121 H 36.66 Z m 0,-31.25 -10.215,-0.004 0.004,3.965 c 1.738,1.008 2.949,2.828 3.105,4.945 L 50,43.75 C 50,47.203 47.203,50 43.75,50 41.438,50 39.418,48.746 38.34,46.879 l -3.961,-0.004 0.004,10.215 c 0.945,0.547 1.734,1.34 2.281,2.285 h 20.422 c 0.551,-0.949 1.344,-1.742 2.293,-2.289 V 36.664 C 58.586,36.207 57.906,35.582 57.383,34.84 Z M 40.625,34.375 36.66,34.379 c -0.547,0.945 -1.332,1.734 -2.277,2.281 l -0.004,3.965 h 3.957 c 0.551,-0.949 1.34,-1.738 2.289,-2.289 z M 38.34,15.629 H 17.91 c -0.547,0.945 -1.336,1.734 -2.281,2.281 v 20.43 c 0.945,0.547 1.738,1.336 2.285,2.285 H 28.129 V 36.664 C 26.387,35.66 25.172,33.836 25.016,31.715 L 25,31.25 C 25,27.797 27.797,25 31.25,25 c 2.312,0 4.332,1.258 5.414,3.125 h 3.961 V 17.914 C 39.836,17.457 39.156,16.832 38.633,16.09 Z" style="fill:currentColor;fill-opacity:1;fill-rule:nonzero;stroke:none" transform="scale(1.3333333)" /> </g>
</svg>

