<?xml version="1.0" encoding="UTF-8" standalone="no"?> <svg version="1.1" id="I7fd54bb3b75d4703939e018fb1140b5b20251110130507" width="100" height="100" viewBox="0 0 100 100" xmlns="http://www.w3.org/2000/svg" xmlns:svg="http://www.w3.org/2000/svg"> <defs id="Id9a01a75e0f8403492a3cea5bd6deb4c20251110130507" /> <g id="I96d6c5e0916e468c9fd4d61ec977122b20251110130507"> <path id="Ifb3a0ab613ef46c1964d45c6ee1347df20251110130507" d="m 40.441,68.613 c 6.993,-0.656 13.801,-3.664 19.157,-9.015 12.203,-12.203 12.203,-31.993 0,-44.196 -12.203,-12.203 -31.993,-12.203 -44.196,0 -12.203,12.203 -12.203,31.993 0,44.196 6.594,6.59 15.395,9.621 24.024,9.093 0.332,0.047 0.676,0.024 1.015,-0.078 z M 11.18,33.918 c 0.652,-4.832 2.636,-9.52 5.953,-13.473 L 34.184,37.5 30.785,40.902 c -3.289,-2.66 -6.953,-4.09 -10.441,-5.027 -2.032,-0.543 -4.051,-0.934 -5.895,-1.293 L 14.395,34.574 C 13.25,34.352 12.18,34.145 11.18,33.918 Z m -0.215,4.75 c 0.828,0.176 1.668,0.34 2.5,0.5 l 0.039,0.008 c 1.887,0.363 3.758,0.726 5.621,1.226 2.98,0.801 5.82,1.926 8.32,3.836 L 17.133,54.555 C 13.27,49.949 11.211,44.34 10.965,38.668 Z m 19.805,8.875 c 2.109,2.695 3.25,5.645 4.054,8.668 0.391,1.465 0.692,2.898 0.996,4.348 0.086,0.41 0.172,0.82 0.262,1.234 0.16,0.75 0.328,1.504 0.516,2.254 -5.762,-0.195 -11.473,-2.254 -16.153,-6.18 z m 10.605,16.238 c -0.254,-0.906 -0.48,-1.894 -0.711,-2.969 -0.078,-0.371 -0.16,-0.753 -0.242,-1.144 -0.309,-1.469 -0.641,-3.066 -1.067,-4.664 -0.941,-3.527 -2.378,-7.305 -5.25,-10.793 L 37.5,40.816 54.555,57.867 c -3.871,3.25 -8.45,5.219 -13.18,5.914 z M 40.812,37.5 44.598,33.715 c 3.48,2.945 7.129,4.562 10.519,5.707 1.399,0.473 2.801,0.883 4.098,1.258 0.492,0.144 0.973,0.285 1.433,0.422 1.098,0.328 2.098,0.648 3.016,1 -0.785,4.472 -2.715,8.781 -5.797,12.453 z M 61.988,36.609 C 61.465,36.453 60.941,36.301 60.422,36.148 59.164,35.785 57.914,35.422 56.617,34.98 53.668,33.984 50.719,32.668 47.926,30.387 l 9.941,-9.942 c 4.078,4.86 6.141,10.832 6.195,16.821 -0.687,-0.235 -1.382,-0.45 -2.074,-0.657 z M 54.555,17.133 44.613,27.074 C 42.332,24.281 41.016,21.332 40.016,18.379 39.578,17.086 39.215,15.836 38.848,14.574 V 14.57 c -0.153,-0.515 -0.301,-1.035 -0.461,-1.562 -0.203,-0.688 -0.418,-1.383 -0.653,-2.07 5.989,0.054 11.961,2.117 16.821,6.195 z m -18.981,2.75 c 1.149,3.387 2.766,7.035 5.711,10.519 L 37.5,34.188 20.445,17.133 c 3.672,-3.082 7.981,-5.012 12.45,-5.797 0.355,0.918 0.675,1.918 1.003,3.016 0.137,0.457 0.278,0.937 0.422,1.433 0.375,1.297 0.782,2.699 1.254,4.098 z" style="fill:currentColor;fill-opacity:1;fill-rule:nonzero;stroke:none" transform="scale(1.3333333)" /> </g>
</svg>

