<?xml version="1.0" encoding="UTF-8" standalone="no"?> <svg version="1.1" id="Ifb8bfe5e12764f588f8d25d32aae607120251106163938" width="100" height="100" viewBox="0 0 100 100" xmlns="http://www.w3.org/2000/svg" xmlns:svg="http://www.w3.org/2000/svg"> <defs id="Id2bc8285083546fda7bea9ee063ba04a20251106163938" /> <g id="Ib880f14af9cd49dab6067a3aa07f0f2820251106163938"> <path id="Iab91b0564c654fd69e81dceab1c7a83220251106163938" d="m 27.051,7.5 c -1.781,0 -3.344,1.18 -3.832,2.891 l -8.438,29.523 c -0.726,2.547 1.184,5.078 3.832,5.078 h 4.75 L 18.98,62.539 c -0.992,3.961 3.903,6.668 6.731,3.734 l 8.32,-8.492 c -0.183,-1.109 -0.281,-2.246 -0.281,-3.406 0,-11.391 9.234,-20.625 20.625,-20.625 1.012,0 2.008,0.074 2.984,0.215 l 0.887,-0.91 0.016,-0.012 c 2.402,-2.504 0.676,-6.793 -2.875,-6.793 h -9.614 l 4.731,-13.477 0.008,-0.031 C 51.371,10.164 49.453,7.5 46.734,7.5 Z M 63.75,68.406 c -2.773,1.856 -6.039,2.844 -9.375,2.844 -4.477,0 -8.77,-1.777 -11.934,-4.941 C 39.277,63.145 37.5,58.852 37.5,54.375 c 0,-3.336 0.988,-6.602 2.844,-9.375 1.855,-2.773 4.488,-4.938 7.574,-6.215 3.082,-1.277 6.477,-1.613 9.75,-0.961 3.273,0.653 6.277,2.258 8.641,4.617 2.359,2.364 3.964,5.368 4.617,8.641 0.652,3.273 0.316,6.668 -0.961,9.75 -1.277,3.086 -3.442,5.719 -6.215,7.574 z M 55.699,45.551 C 55.348,45.199 54.871,45 54.375,45 53.879,45 53.402,45.199 53.051,45.551 52.699,45.902 52.5,46.379 52.5,46.875 V 52.5 h -5.625 c -0.496,0 -0.973,0.199 -1.324,0.551 C 45.199,53.402 45,53.879 45,54.375 c 0,0.496 0.199,0.973 0.551,1.324 0.351,0.352 0.828,0.551 1.324,0.551 H 52.5 v 5.625 c 0,0.496 0.199,0.973 0.551,1.324 0.351,0.352 0.828,0.551 1.324,0.551 0.496,0 0.973,-0.199 1.324,-0.551 0.352,-0.351 0.551,-0.828 0.551,-1.324 V 56.25 h 5.625 c 0.496,0 0.973,-0.199 1.324,-0.551 0.352,-0.351 0.551,-0.828 0.551,-1.324 0,-0.496 -0.199,-0.973 -0.551,-1.324 C 62.848,52.699 62.371,52.5 61.875,52.5 H 56.25 v -5.625 c 0,-0.496 -0.199,-0.973 -0.551,-1.324 z" style="fill:currentColor;fill-opacity:1;fill-rule:nonzero;stroke:none" transform="scale(1.3333333)" /> </g>
</svg>

