<?xml version="1.0" encoding="UTF-8" standalone="no"?> <svg version="1.1" id="Ia6f0007ef27445bd9df5db9060bba7e820251110123030" width="100" height="100" viewBox="0 0 100 100" xmlns="http://www.w3.org/2000/svg" xmlns:svg="http://www.w3.org/2000/svg"> <defs id="I1fa8cc34e0b5406eab2b5894f6da2c4e20251110123030" /> <g id="I28a26fc7298b43219a9a9102d50abcfb20251110123030"> <path id="Ia93f0ce2318045f098d350cf8f232b2420251110123030" d="m 54.688,37.5 c 9.492,0 17.187,7.695 17.187,17.188 0,9.492 -7.695,17.187 -17.187,17.187 C 45.195,71.875 37.5,64.18 37.5,54.688 37.5,45.195 45.195,37.5 54.688,37.5 Z M 37.57,43.75 c -0.925,1.449 -1.675,3.02 -2.211,4.688 H 13.293 c -1.293,0 -2.344,1.05 -2.344,2.343 v 2.836 c 0,2.047 0.895,3.996 2.449,5.332 3.93,3.379 9.856,5.117 17.852,5.117 1.871,0 3.629,-0.093 5.277,-0.285 0.778,1.563 1.758,3.016 2.903,4.317 -2.508,0.437 -5.239,0.656 -8.18,0.656 -9.027,0 -16.023,-2.051 -20.906,-6.25 -2.59,-2.227 -4.082,-5.473 -4.082,-8.887 v -2.836 c 0,-3.883 3.148,-7.031 7.031,-7.031 z m 17.118,18.359 c -1.079,0 -1.954,0.875 -1.954,1.953 0,1.079 0.875,1.954 1.954,1.954 1.078,0 1.953,-0.875 1.953,-1.954 0,-1.078 -0.875,-1.953 -1.953,-1.953 z m 0,-18.359 c -0.864,0 -1.563,0.699 -1.563,1.562 v 12.5 c 0,0.864 0.699,1.563 1.563,1.563 0.863,0 1.562,-0.699 1.562,-1.563 v -12.5 c 0,-0.863 -0.699,-1.562 -1.562,-1.562 z M 31.25,6.266 c 8.629,0 15.625,6.996 15.625,15.625 0,8.629 -6.996,15.625 -15.625,15.625 -8.629,0 -15.625,-6.996 -15.625,-15.625 0,-8.629 6.996,-15.625 15.625,-15.625 z m 0,4.687 c -6.039,0 -10.938,4.899 -10.938,10.938 0,6.039 4.899,10.937 10.938,10.937 6.039,0 10.938,-4.898 10.938,-10.937 0,-6.039 -4.899,-10.938 -10.938,-10.938 z" style="fill:currentColor;fill-opacity:1;fill-rule:nonzero;stroke:none" transform="scale(1.3333333)" /> </g>
</svg>

