<?xml version="1.0" encoding="UTF-8" standalone="no"?> <svg version="1.1" id="I2d72fad9fd644a51a0855a205d332d6920251106123559" width="100" height="100" viewBox="0 0 100 100" xmlns="http://www.w3.org/2000/svg" xmlns:svg="http://www.w3.org/2000/svg"> <defs id="I8d472ba15fed4568b9a03482d3f3033620251106123559" /> <g id="Ib02ac1efef70412fa570af118425732720251106123559"> <path id="Ia2023bd643294ad3b0b18ba2d380e8fe20251106123559" d="m 31.25,15.746 v 2.43 l 9.457,3.758 h 6.621 L 43.426,13.16 C 40.633,6.883 31.25,8.875 31.25,15.746 Z m 8.504,9.172 -13.192,-5.238 v -4.817 c 0,-5.429 -7.058,-7.539 -10.039,-3 l -5.968,9.086 c -2.473,3.77 -0.914,8.86 3.246,10.594 l 10.945,4.574 -6.391,5.934 c -5.085,4.722 -0.011,13.015 6.508,10.64 l 21.129,-7.699 10.82,4.52 c 4.192,1.75 8.813,-1.328 8.813,-5.871 v -3.844 c 0,-8.141 -6.598,-14.738 -14.734,-14.738 H 40.496 c -0.254,0 -0.508,-0.047 -0.742,-0.141 z M 9.375,63.281 c 0,-1.293 1.051,-2.343 2.344,-2.343 h 51.562 c 1.293,0 2.344,1.05 2.344,2.343 0,1.293 -1.051,2.344 -2.344,2.344 H 11.719 c -1.293,0 -2.344,-1.051 -2.344,-2.344 z" style="fill:currentColor;fill-opacity:1;fill-rule:nonzero;stroke:none" transform="scale(1.3333333)" /> </g>
</svg>

