<?xml version="1.0" encoding="UTF-8" standalone="no"?> <svg version="1.1" id="I182566534cfe47d2bb0103420aba958520251110130510" width="100" height="100" viewBox="0 0 100 100" xmlns="http://www.w3.org/2000/svg" xmlns:svg="http://www.w3.org/2000/svg"> <defs id="If0c4655122294d22abf69355132142fe20251110130510" /> <g id="I6da8821b2db147ad90ea3c028b81dee620251110130510"> <path id="Ib006dd11d82a459b8072e96d9243755920251110130510" d="M 35.062,6.938 C 35.953,6.043 37.395,6.02 38.316,6.879 l 5.489,5.125 c 3.996,3.726 8.441,6.934 13.238,9.551 1.348,0.734 2.269,2.066 2.488,3.586 l 4.219,29.547 h 2.656 c 1.293,0 2.344,1.05 2.344,2.343 0,1.293 -1.051,2.344 -2.344,2.344 H 8.594 c -1.293,0 -2.344,-1.051 -2.344,-2.344 0,-1.293 1.051,-2.343 2.344,-2.343 h 2.656 l 4.234,-29.657 c 0.204,-1.422 1.036,-2.676 2.27,-3.414 4.367,-2.621 8.394,-5.769 11.996,-9.371 z m -19.078,47.75 h 6.661 c 4.91,-6.77 8.621,-14.34 10.964,-22.376 l 1.641,-5.624 c 0.293,-1 1.207,-1.688 2.25,-1.688 1.043,0 1.957,0.688 2.25,1.688 l 1.641,5.624 c 2.343,8.036 6.054,15.606 10.964,22.376 h 6.661 L 54.891,25.805 C 54.883,25.746 54.848,25.695 54.797,25.668 49.656,22.867 44.891,19.426 40.609,15.43 l -3.836,-3.578 -3.707,3.71 c -3.875,3.872 -8.207,7.254 -12.902,10.075 -0.019,0.011 -0.035,0.031 -0.039,0.054 z m 30.668,0 C 42.746,48.781 39.668,42.363 37.5,35.613 c -2.168,6.75 -5.246,13.168 -9.152,19.075 z" style="fill:currentColor;fill-opacity:1;fill-rule:nonzero;stroke:none" transform="scale(1.3333333)" /> </g>
</svg>

