<?xml version="1.0" encoding="UTF-8" standalone="no"?> <svg version="1.1" id="I0caa58aa7a0b4feb983e53bf1e54b57920251110124421" width="100" height="100" viewBox="0 0 100 100" xmlns="http://www.w3.org/2000/svg" xmlns:svg="http://www.w3.org/2000/svg"> <defs id="I923e82ce079f45399fb6badf9151a7bc20251110124421" /> <g id="I825adc9740864dc8a86e35d2b14dca9f20251110124421"> <path id="Ia67bf8a077fc474ab85b3eb0385dc9c920251110124421" d="M 44.711,6.191 C 42.355,5.664 39.949,5.387 37.535,5.355 35.059,5.387 32.652,5.664 30.293,6.191 29.262,6.422 28.492,7.281 28.375,8.332 l -0.559,5.027 c -0.16,1.442 -0.996,2.719 -2.246,3.446 -1.258,0.738 -2.781,0.824 -4.105,0.242 l -4.61,-2.027 c -0.957,-0.422 -2.078,-0.192 -2.793,0.574 -3.332,3.562 -5.812,7.836 -7.253,12.5 -0.313,1.004 0.046,2.097 0.894,2.722 l 4.086,3.016 c 1.168,0.859 1.856,2.223 1.856,3.668 0,1.449 -0.688,2.812 -1.852,3.672 l -4.094,3.019 c -0.844,0.621 -1.203,1.715 -0.89,2.719 1.437,4.668 3.918,8.949 7.25,12.516 0.714,0.765 1.832,0.996 2.793,0.578 l 4.625,-2.031 c 1.32,-0.578 2.839,-0.496 4.089,0.226 1.25,0.723 2.082,1.996 2.246,3.434 l 0.555,5.023 c 0.117,1.039 0.867,1.895 1.883,2.133 4.766,1.137 9.73,1.137 14.496,0 1.016,-0.238 1.766,-1.094 1.883,-2.133 l 0.555,-5.031 c 0.16,-1.441 0.992,-2.719 2.242,-3.441 1.254,-0.723 2.773,-0.809 4.097,-0.231 l 4.625,2.031 c 0.961,0.422 2.079,0.192 2.793,-0.574 3.329,-3.562 5.809,-7.84 7.25,-12.5 0.313,-1.008 -0.046,-2.098 -0.89,-2.722 l -4.09,-3.02 c -1.168,-0.859 -1.856,-2.223 -1.856,-3.668 0,-1.449 0.688,-2.812 1.852,-3.672 l 4.086,-3.016 c 0.848,-0.624 1.203,-1.718 0.895,-2.722 -1.446,-4.664 -3.926,-8.938 -7.258,-12.5 -0.715,-0.766 -1.832,-0.996 -2.793,-0.574 l -4.606,2.027 c -0.578,0.258 -1.195,0.387 -1.82,0.387 -2.32,-0.004 -4.27,-1.754 -4.523,-4.067 L 46.629,8.332 C 46.512,7.281 45.742,6.422 44.711,6.191 Z M 37.5,48.215 c -5.918,0 -10.715,-4.797 -10.715,-10.715 0,-5.918 4.797,-10.715 10.715,-10.715 5.918,0 10.715,4.797 10.715,10.715 0,5.918 -4.797,10.715 -10.715,10.715 z" style="fill:currentColor;fill-opacity:1;fill-rule:nonzero;stroke:none" transform="scale(1.3333333)" /> </g>
</svg>

