<?xml version="1.0" encoding="UTF-8" standalone="no"?> <svg version="1.1" id="I94dbfc728b3f4cc18a4cb8f37af73f6f20251106142135" width="100" height="100" viewBox="0 0 100 100" xmlns="http://www.w3.org/2000/svg" xmlns:svg="http://www.w3.org/2000/svg"> <defs id="Id68f879620f044ec8a180cf112e9ef6520251106142135" /> <g id="I8035d40e24804ad6b2da2f9159fe3b8720251106142135"> <path id="Id9bd708d6f534ccbb2ddc813d73109a820251106142135" d="m 45.551,57.574 c 0.117,0.121 0.246,0.219 0.383,0.297 l -6.559,10.938 c -0.297,0.492 -0.809,0.824 -1.379,0.894 -0.574,0.07 -1.144,-0.125 -1.555,-0.535 L 17.336,50.066 c 0.152,-0.265 0.293,-0.535 0.394,-0.824 l 0.032,-0.09 0.922,-2.84 c 0.105,-0.32 0.285,-0.609 0.523,-0.847 l 0.188,-0.168 c 0.132,-0.106 0.277,-0.192 0.429,-0.266 l 0.231,-0.09 2.847,-0.921 0.043,-0.016 0.047,-0.02 0.352,-0.136 c 0.801,-0.356 1.5,-0.926 2.008,-1.645 0.586,-0.824 0.898,-1.812 0.898,-2.82 0,-0.434 -0.059,-0.863 -0.172,-1.278 z M 25.832,29.395 c 6.59,-6.59 17.277,-6.59 23.867,0 6.59,6.589 6.59,17.273 0,23.863 L 48.117,54.84 24.254,30.973 Z M 13.066,30 c 0.235,0 0.465,0.074 0.657,0.207 0.191,0.137 0.336,0.328 0.414,0.547 l 0.933,2.871 c 0.289,0.871 0.782,1.664 1.43,2.316 0.012,0.008 0.023,0.016 0.031,0.024 l 0.485,0.43 c 0.382,0.3 0.8,0.554 1.246,0.753 0.183,0.082 0.367,0.157 0.554,0.219 l 2.872,0.93 0.054,0.015 c 0.219,0.079 0.414,0.223 0.551,0.415 0.133,0.191 0.207,0.421 0.207,0.656 l -0.055,0.344 c -0.035,0.109 -0.086,0.214 -0.152,0.312 l -0.242,0.246 c -0.094,0.07 -0.199,0.129 -0.309,0.168 l -2.867,0.93 c -0.871,0.289 -1.668,0.777 -2.32,1.426 l -0.457,0.519 c -0.297,0.379 -0.551,0.793 -0.75,1.231 -0.082,0.187 -0.157,0.375 -0.219,0.566 l -0.934,2.871 c -0.078,0.219 -0.222,0.41 -0.414,0.547 -0.191,0.133 -0.422,0.207 -0.656,0.207 -0.234,0 -0.465,-0.074 -0.656,-0.207 -0.192,-0.137 -0.336,-0.328 -0.414,-0.547 L 11.121,45.125 C 10.832,44.25 10.348,43.453 9.699,42.805 9.047,42.148 8.25,41.66 7.375,41.367 L 4.508,40.438 C 4.289,40.359 4.094,40.215 3.957,40.023 3.824,39.832 3.75,39.602 3.75,39.367 c 0,-0.234 0.074,-0.465 0.207,-0.656 0.137,-0.188 0.332,-0.336 0.551,-0.414 l 2.867,-0.93 C 8.238,37.07 9.02,36.578 9.66,35.93 c 0.641,-0.649 1.121,-1.438 1.406,-2.305 l 0.93,-2.871 c 0.078,-0.219 0.223,-0.41 0.414,-0.547 C 12.602,30.074 12.832,30 13.066,30 Z M 68.258,8.18 c 0.734,-0.731 1.922,-0.731 2.656,0 0.731,0.734 0.731,1.922 0,2.652 L 53.617,28.129 c -0.398,-0.477 -0.82,-0.938 -1.265,-1.383 -0.45,-0.449 -0.911,-0.871 -1.387,-1.269 z M 20.543,0 c 0.328,0 0.648,0.105 0.918,0.293 0.266,0.191 0.473,0.457 0.582,0.766 l 1.305,4.015 c 0.406,1.223 1.09,2.328 2,3.238 0.91,0.911 2.023,1.594 3.242,2 l 4.019,1.309 0.082,0.016 c 0.309,0.109 0.575,0.316 0.766,0.582 0.191,0.269 0.293,0.59 0.293,0.918 0,0.328 -0.102,0.648 -0.293,0.914 C 33.266,14.32 33,14.52 32.691,14.629 l -4.019,1.309 c -1.223,0.406 -2.332,1.089 -3.242,2 -0.91,0.91 -1.598,2.015 -2.004,3.238 l -1.305,4.015 c -0.109,0.309 -0.312,0.575 -0.582,0.766 -0.266,0.191 -0.586,0.293 -0.914,0.293 -0.328,0 -0.648,-0.102 -0.914,-0.293 -0.027,-0.019 -0.055,-0.035 -0.078,-0.055 -0.231,-0.183 -0.406,-0.433 -0.504,-0.711 L 17.824,21.176 C 17.754,20.961 17.672,20.754 17.586,20.547 17.172,19.57 16.574,18.68 15.824,17.926 15.68,17.781 15.531,17.645 15.379,17.512 14.562,16.805 13.609,16.258 12.578,15.914 L 8.559,14.613 C 8.25,14.504 7.984,14.297 7.793,14.031 7.602,13.762 7.5,13.441 7.5,13.113 7.5,12.785 7.602,12.465 7.793,12.199 7.984,11.93 8.25,11.73 8.559,11.621 l 4.019,-1.309 C 13.785,9.895 14.883,9.207 15.777,8.297 16.672,7.391 17.344,6.285 17.742,5.074 L 19.047,1.059 C 19.156,0.75 19.359,0.484 19.629,0.293 19.898,0.102 20.215,0 20.543,0 Z" style="fill:currentColor;fill-opacity:1;fill-rule:nonzero;stroke:none" transform="scale(1.3333333)" /> </g>
</svg>

