<?xml version="1.0" encoding="UTF-8" standalone="no"?> <svg version="1.1" id="I45dc0593a838453cb2506cb7d82ecadf20251106132945" width="100" height="100" viewBox="0 0 100 100" xmlns="http://www.w3.org/2000/svg" xmlns:svg="http://www.w3.org/2000/svg"> <defs id="I2817c4aad19a42fcb535e46d52bdfd7620251106132945" /> <g id="Ibb9d2d22ab4c4738b531a076780d90ea20251106132945"> <path id="Ie21ee0416379415792493cfdddb2e31e20251106132945" d="M 59.344,7.977 C 49.48,2.281 36.871,5.66 31.18,15.523 l -0.778,1.344 c -0.265,0.461 -0.336,1.008 -0.199,1.524 0.137,0.515 0.473,0.953 0.934,1.218 l 14.629,8.446 -8.754,15.32 h -0.18 c -8.461,0 -15.785,4.906 -20.152,11.844 0.5,-0.176 1.027,-0.281 1.574,-0.305 2.387,-0.094 4.547,1.402 5.301,3.668 1.593,4.82 7.414,4.559 8.879,0.289 0.742,-2.164 2.777,-3.613 5.066,-3.613 2.289,0 4.324,1.449 5.066,3.613 1.465,4.27 7.286,4.531 8.879,-0.289 0.731,-2.199 2.797,-3.684 5.114,-3.672 0.078,0 0.152,0.004 0.23,0.008 -3.57,-5.512 -9.023,-9.695 -15.422,-11.063 l 7.879,-13.789 14.125,8.153 c 0.461,0.265 1.008,0.34 1.524,0.203 0.515,-0.141 0.953,-0.477 1.218,-0.938 l 0.778,-1.343 c 5.691,-9.86 2.312,-22.473 -7.547,-28.164 z m -38.969,51.66 c -0.281,-0.852 -1.094,-1.41 -1.988,-1.375 -0.895,0.035 -1.657,0.66 -1.871,1.531 -0.68,2.789 -1.973,4.32 -3.45,5.211 -1.543,0.93 -3.504,1.293 -5.699,1.293 -1.109,0 -2.012,0.898 -2.012,2.008 0,1.109 0.903,2.007 2.012,2.007 2.563,0 5.356,-0.406 7.778,-1.871 1.398,-0.843 2.605,-1.996 3.554,-3.503 4.793,6.113 14.149,6.082 18.801,-0.067 4.727,6.246 14.305,6.18 19.023,-0.226 2.61,3.585 6.864,5.667 11.11,5.667 1.109,0 2.012,-0.898 2.012,-2.007 0,-1.11 -0.903,-2.008 -2.012,-2.008 -3.949,0 -7.887,-2.574 -9.188,-6.641 -0.265,-0.828 -1.031,-1.39 -1.902,-1.398 -0.871,-0.004 -1.645,0.554 -1.918,1.379 -2.582,7.789 -12.691,7.691 -15.227,0.324 -0.277,-0.813 -1.039,-1.356 -1.898,-1.356 -0.859,0 -1.621,0.543 -1.898,1.356 -2.536,7.367 -12.645,7.465 -15.227,-0.324 z" style="fill:currentColor;fill-opacity:1;fill-rule:nonzero;stroke:none" transform="scale(1.3333333)" /> </g>
</svg>

