<?xml version="1.0" encoding="UTF-8" standalone="no"?> <svg version="1.1" id="I57b9f2e497974f1faf8edebcec98058e20251106144521" width="100" height="100" viewBox="0 0 100 100" xmlns="http://www.w3.org/2000/svg" xmlns:svg="http://www.w3.org/2000/svg"> <defs id="I551c76d891c84e35ab830473d6a2580120251106144521" /> <g id="I8071d39bb44b46f6a30a8e91219610b620251106144521"> <path id="I242fb4bc662245ddb4498c27d610f88d20251106144521" d="M 29.082,7.398 C 27.598,7.812 26.156,8.332 24.766,8.953 L 36.812,21 c 0.918,0.914 0.918,2.398 0,3.312 -0.914,0.918 -2.398,0.918 -3.312,0 L 20.477,11.289 c -1.176,0.766 -2.297,1.606 -3.356,2.52 L 29,25.688 c 0.918,0.914 0.918,2.398 0,3.312 -0.914,0.918 -2.398,0.918 -3.312,0 L 13.809,17.121 c -0.914,1.059 -1.754,2.18 -2.52,3.356 L 24.312,33.5 c 0.918,0.914 0.918,2.398 0,3.312 -0.914,0.918 -2.398,0.918 -3.312,0 L 8.953,24.766 c -0.621,1.39 -1.141,2.832 -1.555,4.316 l 13.79,13.793 c 0.917,0.914 0.917,2.398 0,3.313 -0.915,0.917 -2.399,0.917 -3.313,0 l -11.5,-11.5 C 6.293,35.613 6.25,36.551 6.25,37.5 c 0,1.043 0.051,2.07 0.152,3.086 l 14.004,14.008 c 0.918,0.914 0.918,2.398 0,3.312 -0.914,0.918 -2.398,0.918 -3.312,0 L 8.602,49.418 C 13.289,60.766 24.461,68.75 37.5,68.75 54.758,68.75 68.75,54.758 68.75,37.5 68.75,24.461 60.766,13.289 49.418,8.602 l 8.488,8.492 c 0.918,0.914 0.918,2.398 0,3.312 -0.914,0.918 -2.398,0.918 -3.312,0 L 40.586,6.402 C 39.57,6.301 38.543,6.25 37.5,6.25 c -0.949,0 -1.887,0.043 -2.812,0.125 l 11.5,11.5 c 0.917,0.914 0.917,2.398 0,3.313 -0.915,0.917 -2.399,0.917 -3.313,0 z" style="fill:currentColor;fill-opacity:1;fill-rule:nonzero;stroke:none" transform="scale(1.3333333)" /> </g>
</svg>

