<?xml version="1.0" encoding="UTF-8" standalone="no"?> <svg version="1.1" id="I884ba946c5cb404c897333a958ba2f4920251106144521" width="100" height="100" viewBox="0 0 100 100" xmlns="http://www.w3.org/2000/svg" xmlns:svg="http://www.w3.org/2000/svg"> <defs id="Ie3dc1aaf03384e01a6023a197f9c0e9d20251106144521" /> <g id="Ibe318ab0af0a4d55be43ae57616d206220251106144521"> <path id="I5a7823e9ba574fd58c13e9adb4e87bcc20251106144521" d="m 68.062,18.062 c 0.918,-0.914 0.918,-2.398 0,-3.312 -0.914,-0.918 -2.398,-0.918 -3.312,0 L 41.312,38.188 c -0.917,0.914 -0.917,2.398 0,3.312 0.915,0.918 2.399,0.918 3.313,0 z m 0.52,3.903 c 0.109,0.523 0.168,1.07 0.168,1.629 v 21.562 c 0,4.403 -3.566,7.969 -7.969,7.969 H 14.219 C 9.816,53.125 6.25,49.559 6.25,45.156 V 23.594 c 0,-4.403 3.566,-7.969 7.969,-7.969 h 45.234 l -4.687,4.687 H 14.219 c -1.813,0 -3.281,1.469 -3.281,3.282 v 21.562 c 0,1.813 1.468,3.282 3.281,3.282 h 46.562 c 1.813,0 3.281,-1.469 3.281,-3.282 V 26.484 Z m -54.52,6.941 c 0,-1.293 1.051,-2.344 2.344,-2.344 h 6.25 c 1.293,0 2.344,1.051 2.344,2.344 0,1.293 -1.051,2.344 -2.344,2.344 h -6.25 c -1.293,0 -2.344,-1.051 -2.344,-2.344 z m 0,10.938 c 0,-1.293 1.051,-2.344 2.344,-2.344 h 15.625 c 1.293,0 2.344,1.051 2.344,2.344 0,1.293 -1.051,2.344 -2.344,2.344 H 16.406 c -1.293,0 -2.344,-1.051 -2.344,-2.344 z" style="fill:currentColor;fill-opacity:1;fill-rule:nonzero;stroke:none" transform="scale(1.3333333)" /> </g>
</svg>

