<?xml version="1.0" encoding="UTF-8" standalone="no"?> <svg version="1.1" id="Ie544713a0962461ea23214aade97fc0920251106103256" width="100" height="100" viewBox="0 0 100 100" xmlns="http://www.w3.org/2000/svg" xmlns:svg="http://www.w3.org/2000/svg"> <defs id="Id0dbbf83192540e38cacc06bcbad51e620251106103256" /> <g id="I0abbd657eb1b485f88da1107bfba977e20251106103256"> <path id="Iae36f962dceb467bacefd0613e489b0e20251106103256" d="m 57.59,50.223 c -2.387,0 -4.586,0.836 -6.313,2.234 L 33.934,39.91 c 0.289,-1.594 0.289,-3.226 0,-4.82 L 51.277,22.543 c 1.727,1.398 3.926,2.234 6.313,2.234 5.539,0 10.043,-4.504 10.043,-10.047 0,-5.539 -4.504,-10.042 -10.043,-10.042 -5.543,0 -10.047,4.503 -10.047,10.042 0,0.973 0.137,1.903 0.395,2.79 L 31.465,29.449 c -2.445,-3.242 -6.328,-5.344 -10.707,-5.344 -7.399,0 -13.391,5.997 -13.391,13.395 0,7.398 5.992,13.395 13.391,13.395 4.379,0 8.262,-2.102 10.707,-5.344 L 47.938,57.48 c -0.258,0.887 -0.395,1.825 -0.395,2.79 0,5.539 4.504,10.042 10.047,10.042 5.539,0 10.043,-4.503 10.043,-10.042 0,-5.543 -4.504,-10.047 -10.043,-10.047 z m 0,-39.844 c 2.402,0 4.351,1.949 4.351,4.351 0,2.403 -1.949,4.356 -4.351,4.356 -2.402,0 -4.352,-1.953 -4.352,-4.356 0,-2.402 1.95,-4.351 4.352,-4.351 z M 20.758,44.867 c -4.059,0 -7.363,-3.308 -7.363,-7.367 0,-4.059 3.304,-7.367 7.363,-7.367 4.062,0 7.367,3.308 7.367,7.367 0,4.059 -3.305,7.367 -7.367,7.367 z M 57.59,64.621 c -2.402,0 -4.352,-1.949 -4.352,-4.351 0,-2.403 1.95,-4.356 4.352,-4.356 2.402,0 4.351,1.953 4.351,4.356 0,2.402 -1.949,4.351 -4.351,4.351 z" style="fill:currentColor;fill-opacity:1;fill-rule:nonzero;stroke:none" transform="scale(1.3333333)" /> </g>
</svg>

