<?xml version="1.0" encoding="UTF-8" standalone="no"?> <svg version="1.1" id="Ia35ccf8a78e64c2498a8c72d503414da20251106165302" width="100" height="100" viewBox="0 0 100 100" xmlns="http://www.w3.org/2000/svg" xmlns:svg="http://www.w3.org/2000/svg"> <defs id="Ib1b1d58bcc824d029f431e67ac6776cb20251106165302" /> <g id="I568b2a724d654187843ca34dff1e989220251106165302"> <path id="I7493f62f49254a29b9a7f8a291c5049d20251106165302" d="m 59.375,14.035 c 0,4.317 -3.496,7.813 -7.813,7.813 -0.546,0 -1.082,-0.055 -1.601,-0.164 l -3.996,6.617 c 1.012,0.933 1.871,2.031 2.531,3.25 -1.594,0.316 -3.101,0.879 -4.48,1.64 -1.399,-2.113 -3.793,-3.503 -6.516,-3.503 -4.316,0 -7.812,3.496 -7.812,7.812 0,3.812 2.73,6.988 6.343,7.676 -0.058,0.558 -0.09,1.125 -0.09,1.699 v 3.027 c -3.484,-0.433 -6.523,-2.297 -8.507,-4.988 l -5.606,2.648 c 0.031,0.29 0.047,0.579 0.047,0.876 0,4.316 -3.496,7.812 -7.813,7.812 -4.316,0 -7.812,-3.496 -7.812,-7.812 0,-4.317 3.496,-7.813 7.812,-7.813 2.336,0 4.434,1.027 5.864,2.652 L 25.41,40.688 C 25.141,39.668 25,38.602 25,37.5 c 0,-3.023 1.074,-5.797 2.859,-7.957 l -3.097,-3.531 c -0.895,0.355 -1.867,0.55 -2.887,0.55 -4.316,0 -7.813,-3.496 -7.813,-7.812 0,-4.316 3.497,-7.812 7.813,-7.812 4.316,0 7.813,3.496 7.813,7.812 0,1.59 -0.473,3.066 -1.29,4.301 l 3.071,3.496 C 33.258,25.562 35.312,25 37.5,25 c 1.578,0 3.09,0.293 4.48,0.828 l 3.891,-6.437 c -1.316,-1.399 -2.121,-3.282 -2.121,-5.356 0,-4.312 3.496,-7.812 7.812,-7.812 4.317,0 7.813,3.5 7.813,7.812 z m -4.687,0 c 0,-1.726 -1.399,-3.125 -3.126,-3.125 -1.726,0 -3.124,1.399 -3.124,3.125 0,1.727 1.398,3.125 3.124,3.125 1.727,0 3.126,-1.398 3.126,-3.125 z m -32.813,7.84 c 1.727,0 3.125,-1.398 3.125,-3.125 0,-1.727 -1.398,-3.125 -3.125,-3.125 -1.727,0 -3.125,1.398 -3.125,3.125 0,1.727 1.398,3.125 3.125,3.125 z m -4.687,26.563 c 0,-1.727 -1.399,-3.126 -3.126,-3.126 -1.726,0 -3.124,1.399 -3.124,3.126 0,1.726 1.398,3.124 3.124,3.124 1.727,0 3.126,-1.398 3.126,-3.124 z M 51.57,34.375 c -6.902,0 -12.5,5.598 -12.5,12.5 v 9.375 l -2.965,2.5 c -0.96,0.812 -1.441,1.219 -1.585,1.535 -0.36,0.781 -0.024,1.703 0.753,2.067 0.317,0.148 0.946,0.148 2.204,0.148 h 28.187 c 1.258,0 1.887,0 2.203,-0.148 0.774,-0.364 1.113,-1.286 0.754,-2.067 -0.144,-0.316 -0.625,-0.723 -1.586,-1.535 l -2.965,-2.5 v -9.375 c 0,-6.902 -5.597,-12.5 -12.5,-12.5 z m 4.688,31.25 c -0.684,1.82 -2.524,3.125 -4.688,3.125 -2.164,0 -4.004,-1.305 -4.687,-3.125 z" style="fill:currentColor;fill-opacity:1;fill-rule:nonzero;stroke:none" transform="scale(1.3333333)" /> </g>
</svg>

