<?xml version="1.0" encoding="UTF-8" standalone="no"?> <svg version="1.1" id="I27c09b45c06d4b57a31b89039c5e035920251110130509" width="100" height="100" viewBox="0 0 100 100" xmlns="http://www.w3.org/2000/svg" xmlns:svg="http://www.w3.org/2000/svg"> <defs id="Ibebbe7ade77a417eb16ed722f10fbf6320251110130509" /> <g id="I2f892a5171744ee684ba49ed409e322f20251110130509"> <path id="I6309924cf19f4e2fbe87401d44c6904f20251110130509" d="m 37.5,11.719 c -7.766,0 -14.062,6.297 -14.062,14.062 0,3.051 0.972,5.879 2.624,8.184 -1.718,-0.035 -3.41,0.277 -4.976,0.89 -1.488,-2.687 -2.336,-5.781 -2.336,-9.074 0,-10.355 8.395,-18.75 18.75,-18.75 10.355,0 18.75,8.395 18.75,18.75 0,2.098 -0.344,4.114 -0.98,5.996 -0.407,-0.121 -0.825,-0.222 -1.25,-0.304 l -3.387,-0.657 c 0.601,-1.562 0.929,-3.261 0.929,-5.035 0,-7.765 -6.296,-14.062 -14.062,-14.062 z m 0.004,7.031 c -3.883,0 -7.031,3.148 -7.031,7.031 V 38.66 L 29.422,38.219 C 24.191,36.02 18.227,38.934 16.742,44.41 l -0.211,0.778 c -0.496,1.828 0.543,3.66 2.258,4.257 11.106,3.875 14.594,9.2 15.938,12.899 0.703,1.929 2.617,3.465 4.953,3.277 l 11.156,-0.91 c 2.945,-0.238 5.426,-2.293 6.207,-5.145 l 3.562,-12.949 c 1.45,-5.265 -1.894,-10.652 -7.257,-11.691 l -8.813,-1.703 v -7.442 c 0,-3.883 -3.148,-7.031 -7.031,-7.031 z" style="fill:currentColor;fill-opacity:1;fill-rule:nonzero;stroke:none" transform="scale(1.3333333)" /> </g>
</svg>

