<?xml version="1.0" encoding="UTF-8" standalone="no"?> <svg version="1.1" id="If26dfb016ac543c3a975ba0d9949c99a20251106164749" width="100" height="100" viewBox="0 0 100 100" xmlns="http://www.w3.org/2000/svg" xmlns:svg="http://www.w3.org/2000/svg"> <defs id="I444d71a699594ebc80e8d14625b3436520251106164749" /> <g id="I3368f8758a7e434b83dec92cc647946a20251106164749"> <path id="If34227e755f849d7a103efa39291300b20251106164749" d="M 39.023,63.707 C 52.812,62.918 63.75,51.484 63.75,37.5 63.75,23.004 51.996,11.25 37.5,11.25 23.516,11.25 12.082,22.188 11.293,35.977 9.941,36.664 8.676,37.496 7.516,38.453 7.504,38.137 7.5,37.82 7.5,37.5 c 0,-16.57 13.43,-30 30,-30 16.57,0 30,13.43 30,30 0,16.57 -13.43,30 -30,30 -0.32,0 -0.637,-0.004 -0.953,-0.016 0.957,-1.16 1.789,-2.425 2.476,-3.777 z m 7.723,-44.746 c -0.375,0.965 -1.461,1.445 -2.426,1.066 -6.726,-2.617 -14.652,-1.211 -20.078,4.215 -2.715,2.715 -4.426,6.059 -5.125,9.563 -1.344,0.097 -2.652,0.324 -3.914,0.664 0.637,-4.711 2.766,-9.258 6.387,-12.879 6.515,-6.516 16.031,-8.195 24.09,-5.055 0.965,0.375 1.441,1.461 1.066,2.426 z M 32.516,37.52 c 2.687,1.902 4.902,4.429 6.429,7.371 1.188,-0.239 2.309,-0.864 3.16,-1.86 0.27,-0.316 0.637,-0.871 1.012,-1.461 0.403,-0.636 0.895,-1.445 1.442,-2.359 1.097,-1.824 2.425,-4.109 3.711,-6.332 1.281,-2.231 2.523,-4.406 3.445,-6.024 0.461,-0.812 0.84,-1.484 1.105,-1.953 l 0.414,-0.734 C 53.676,23.387 53.5,22.406 52.82,21.82 52.137,21.238 51.141,21.223 50.438,21.777 l -0.665,0.528 c -0.418,0.336 -1.023,0.816 -1.75,1.398 -1.457,1.16 -3.41,2.727 -5.41,4.344 -1.996,1.617 -4.043,3.289 -5.675,4.656 -0.817,0.684 -1.54,1.297 -2.102,1.793 -0.527,0.465 -1.016,0.914 -1.289,1.231 -0.465,0.546 -0.809,1.156 -1.031,1.793 z m 23.523,-9.266 c 0.965,-0.375 2.051,0.101 2.426,1.066 3.14,8.063 1.461,17.575 -5.055,24.09 -0.73,0.731 -1.918,0.731 -2.652,0 -0.731,-0.73 -0.731,-1.918 0,-2.652 5.426,-5.426 6.836,-13.352 4.215,-20.078 -0.379,-0.965 0.101,-2.051 1.066,-2.426 z M 30,68.406 c -2.773,1.856 -6.039,2.844 -9.375,2.844 -4.477,0 -8.77,-1.777 -11.934,-4.941 C 5.527,63.145 3.75,58.852 3.75,54.375 3.75,51.039 4.738,47.773 6.594,45 c 1.855,-2.773 4.488,-4.938 7.574,-6.215 3.082,-1.277 6.477,-1.613 9.75,-0.961 3.273,0.653 6.281,2.258 8.641,4.617 2.359,2.364 3.964,5.368 4.617,8.641 0.652,3.273 0.316,6.668 -0.961,9.75 -1.277,3.086 -3.442,5.719 -6.215,7.574 z M 21.949,45.551 C 21.598,45.199 21.121,45 20.625,45 c -0.496,0 -0.973,0.199 -1.324,0.551 -0.352,0.351 -0.551,0.828 -0.551,1.324 V 52.5 h -5.625 c -0.496,0 -0.973,0.199 -1.324,0.551 -0.352,0.351 -0.551,0.828 -0.551,1.324 0,0.496 0.199,0.973 0.551,1.324 0.351,0.352 0.828,0.551 1.324,0.551 h 5.625 v 5.625 c 0,0.496 0.199,0.973 0.551,1.324 0.351,0.352 0.828,0.551 1.324,0.551 0.496,0 0.973,-0.199 1.324,-0.551 0.352,-0.351 0.551,-0.828 0.551,-1.324 V 56.25 h 5.625 c 0.496,0 0.973,-0.199 1.324,-0.551 C 29.801,55.348 30,54.871 30,54.375 30,53.879 29.801,53.402 29.449,53.051 29.098,52.699 28.621,52.5 28.125,52.5 H 22.5 v -5.625 c 0,-0.496 -0.199,-0.973 -0.551,-1.324 z" style="fill:currentColor;fill-opacity:1;fill-rule:nonzero;stroke:none" transform="scale(1.3333333)" /> </g>
</svg>

