<?xml version="1.0" encoding="UTF-8" standalone="no"?> <svg version="1.1" id="Ie9a80d6b4a504055872f95dec70f3f1f20251106161453" width="100" height="100" viewBox="0 0 100 100" xmlns="http://www.w3.org/2000/svg" xmlns:svg="http://www.w3.org/2000/svg"> <defs id="Ieb4fee694e00403ca9e38f21c200c58820251106161453" /> <g id="I9e0b2d86ec974f38b90da3ca8abef6d620251106161453"> <path id="Id243162bd02a495b9af7ff0346d298d520251106161453" d="m 18.75,6.25 c -3.453,0 -6.25,2.797 -6.25,6.25 v 28.652 c 0.746,-0.429 1.527,-0.8 2.344,-1.105 v -0.203 c 0,-1.86 0.926,-3.5 2.344,-4.489 V 12.5 c 0,-0.863 0.699,-1.562 1.562,-1.562 H 37.5 V 25 c 0,3.453 2.797,6.25 6.25,6.25 H 57.812 V 62.5 c 0,0.863 -0.699,1.562 -1.562,1.562 H 32.812 c -1.484,1.981 -3.433,3.594 -5.679,4.688 H 56.25 c 3.453,0 6.25,-2.797 6.25,-6.25 V 30.711 c 0,-1.656 -0.66,-3.246 -1.832,-4.418 L 42.457,8.082 C 41.285,6.91 39.695,6.25 38.039,6.25 Z M 54.309,26.562 H 43.75 c -0.863,0 -1.562,-0.699 -1.562,-1.562 V 14.441 Z M 22.656,39.844 c 0,-1.293 -1.051,-2.344 -2.344,-2.344 -1.292,0 -2.343,1.051 -2.343,2.344 v 1.769 C 12.512,42.586 8.207,46.887 7.238,52.344 H 5.469 c -1.293,0 -2.344,1.051 -2.344,2.344 0,1.292 1.051,2.343 2.344,2.343 h 1.769 c 0.969,5.457 5.274,9.758 10.731,10.731 v 1.769 c 0,1.293 1.051,2.344 2.343,2.344 1.293,0 2.344,-1.051 2.344,-2.344 v -1.769 c 5.457,-0.973 9.758,-5.274 10.731,-10.731 h 1.769 c 1.293,0 2.344,-1.051 2.344,-2.343 0,-1.293 -1.051,-2.344 -2.344,-2.344 H 33.387 C 32.414,46.887 28.113,42.586 22.656,41.613 Z M 11.719,54.688 c 0,-4.747 3.847,-8.594 8.593,-8.594 4.747,0 8.594,3.847 8.594,8.594 0,4.746 -3.847,8.593 -8.594,8.593 -4.746,0 -8.593,-3.847 -8.593,-8.593 z m 12.5,0 c 0,2.156 -1.75,3.906 -3.907,3.906 -2.156,0 -3.906,-1.75 -3.906,-3.906 0,-2.157 1.75,-3.907 3.906,-3.907 2.157,0 3.907,1.75 3.907,3.907 z" style="fill:currentColor;fill-opacity:1;fill-rule:nonzero;stroke:none" transform="scale(1.3333333)" /> </g>
</svg>

