<?xml version="1.0" encoding="UTF-8" standalone="no"?> <svg version="1.1" id="Ic1131bb66013475398cde623af09462120251106142135" width="100" height="100" viewBox="0 0 100 100" xmlns="http://www.w3.org/2000/svg" xmlns:svg="http://www.w3.org/2000/svg"> <defs id="Icd96268bf60e489cbff97823739a1d2820251106142135" /> <g id="I965e744a2d1043c1bc469e7cfc1a8dba20251106142135"> <path id="I30037af9536f4461b2fba34083d68cf020251106142135" d="m 41.902,7.852 c -2.824,-1.145 -5.98,-1.145 -8.804,0 L 26.25,10.629 56.227,22.285 66.773,18.211 C 66.348,17.859 65.867,17.566 65.336,17.352 Z M 68.75,22.473 39.844,33.641 V 55.02 L 57.477,37.387 c 3.046,-3.051 7.535,-3.782 11.273,-2.196 z M 35.156,33.641 V 64.57 l -0.582,2.332 c -0.058,0.235 -0.105,0.469 -0.136,0.703 -0.454,-0.125 -0.903,-0.273 -1.34,-0.453 L 9.664,57.652 C 7.602,56.816 6.25,54.812 6.25,52.586 V 22.473 Z M 8.227,18.211 37.5,29.52 49.738,24.793 19.918,13.195 9.664,17.352 C 9.133,17.566 8.652,17.859 8.227,18.211 Z M 59.688,39.594 41.242,58.039 c -1.074,1.078 -1.84,2.426 -2.207,3.899 l -1.43,5.722 c -0.621,2.488 1.629,4.742 4.118,4.117 l 5.722,-1.429 c 1.477,-0.368 2.825,-1.129 3.899,-2.207 L 69.789,49.695 c 2.789,-2.789 2.789,-7.312 0,-10.101 -2.789,-2.789 -7.312,-2.789 -10.101,0 z" style="fill:currentColor;fill-opacity:1;fill-rule:nonzero;stroke:none" transform="scale(1.3333333)" /> </g>
</svg>

