<?xml version="1.0" encoding="UTF-8" standalone="no"?> <svg version="1.1" id="I32790fea742342a2b05321ea9d9aa4d920251106155156" width="100" height="100" viewBox="0 0 100 100" xmlns="http://www.w3.org/2000/svg" xmlns:svg="http://www.w3.org/2000/svg"> <defs id="I8d5963ddb9f24ee881432a8a3d965e8820251106155156" /> <g id="I0812ac0c0a1e4eb79c05aff69562dc7820251106155156"> <path id="Ida7118d9562146cf8b7756d5d40b880f20251106155156" d="m 57.812,62.5 c 0,0.859 -0.699,1.562 -1.562,1.562 H 38.336 c -0.898,1.723 -2.035,3.301 -3.367,4.688 H 56.25 c 3.449,0 6.25,-2.801 6.25,-6.25 V 30.711 c 0,-1.656 -0.66,-3.246 -1.832,-4.418 L 42.453,8.082 C 42.406,8.035 42.352,7.992 42.301,7.953 42.262,7.926 42.223,7.895 42.188,7.863 41.965,7.664 41.746,7.465 41.504,7.301 41.426,7.246 41.336,7.203 41.25,7.164 41.203,7.137 41.152,7.113 41.102,7.086 41.051,7.059 41,7.027 40.945,6.996 40.777,6.898 40.609,6.801 40.43,6.727 39.812,6.469 39.148,6.34 38.477,6.293 38.418,6.289 38.355,6.281 38.293,6.273 38.211,6.262 38.125,6.25 38.039,6.25 H 18.75 c -3.449,0 -6.25,2.801 -6.25,6.25 v 23.434 c 1.48,-0.622 3.051,-1.067 4.688,-1.321 V 12.5 c 0,-0.859 0.699,-1.562 1.562,-1.562 H 37.5 V 25 c 0,3.449 2.801,6.25 6.25,6.25 H 57.812 Z M 42.188,14.441 54.305,26.562 H 43.75 c -0.863,0 -1.562,-0.703 -1.562,-1.562 z M 20.312,71.875 C 10.82,71.875 3.125,64.18 3.125,54.688 3.125,45.195 10.82,37.5 20.312,37.5 c 9.493,0 17.188,7.695 17.188,17.188 0,9.492 -7.695,17.187 -17.188,17.187 z M 16.73,47.98 c 0.61,-0.609 0.61,-1.601 0,-2.21 -0.609,-0.61 -1.601,-0.61 -2.21,0 l -7.813,7.812 c -0.609,0.609 -0.609,1.602 0,2.211 l 7.813,7.812 c 0.609,0.61 1.601,0.61 2.21,0 0.61,-0.609 0.61,-1.601 0,-2.21 l -6.707,-6.707 z m 7.165,-2.21 c -0.61,0.609 -0.61,1.601 0,2.21 l 6.707,6.708 -6.707,6.707 c -0.61,0.609 -0.61,1.601 0,2.21 0.609,0.61 1.601,0.61 2.21,0 l 7.813,-7.812 c 0.609,-0.609 0.609,-1.602 0,-2.211 L 26.105,45.77 c -0.609,-0.61 -1.601,-0.61 -2.21,0 z" style="fill:currentColor;fill-opacity:1;fill-rule:nonzero;stroke:none" transform="scale(1.3333333)" /> </g>
</svg>

