<?xml version="1.0" encoding="UTF-8" standalone="no"?> <svg version="1.1" id="I2b397ed713384945ad5dbd5f2e8f1d7020251106165302" width="100" height="100" viewBox="0 0 100 100" xmlns="http://www.w3.org/2000/svg" xmlns:svg="http://www.w3.org/2000/svg"> <defs id="I1c6e3443dca3446abe1ed1619425ea4b20251106165302" /> <g id="Ifb795afeaa9c4dabb6bba58d60cbb90820251106165302"> <path id="I37e0d3685e674388b2b1889e2edf7a7820251106165302" d="m 36.562,41.895 c 0.524,-0.508 1.352,-0.508 1.876,0 l 23.976,23.433 c -1.578,1.035 -3.465,1.637 -5.496,1.637 H 18.082 c -2.031,0 -3.918,-0.602 -5.496,-1.637 z M 56.918,8.035 c 5.551,0 10.047,4.496 10.047,10.047 v 38.836 c 0,2.066 -0.625,3.988 -1.692,5.582 L 41.242,39.02 c -2.082,-2.036 -5.402,-2.036 -7.484,0 L 9.727,62.5 C 8.66,60.906 8.035,58.984 8.035,56.918 V 36.156 c 3.36,2.524 7.531,4.024 12.055,4.024 11.094,0 20.09,-8.996 20.09,-20.09 0,-4.524 -1.496,-8.695 -4.02,-12.055 z m -7.363,12.723 c -3.328,0 -6.028,2.699 -6.028,6.027 0,3.328 2.7,6.027 6.028,6.027 3.328,0 6.027,-2.699 6.027,-6.027 0,-3.328 -2.699,-6.027 -6.027,-6.027 z M 20.09,2.68 c 9.617,0 17.41,7.793 17.41,17.41 0,9.617 -7.793,17.41 -17.41,17.41 -9.617,0 -17.41,-7.793 -17.41,-17.41 0,-9.617 7.793,-17.41 17.41,-17.41 z m -7.945,28.195 c 2.222,1.641 4.972,2.605 7.945,2.605 7.394,0 13.39,-5.996 13.39,-13.39 0,-2.973 -0.964,-5.723 -2.605,-7.945 z M 20.09,6.695 c -7.399,0 -13.395,5.996 -13.395,13.395 0,2.972 0.969,5.722 2.61,7.945 L 28.035,9.305 C 25.812,7.664 23.062,6.695 20.09,6.695 Z" style="fill:currentColor;fill-opacity:1;fill-rule:nonzero;stroke:none" transform="scale(1.3333333)" /> </g>
</svg>

