<?xml version="1.0" encoding="UTF-8" standalone="no"?> <svg version="1.1" id="Ib163ec7a00ac435b8146f7820589dcbf20251106170412" width="100" height="100" viewBox="0 0 100 100" xmlns="http://www.w3.org/2000/svg" xmlns:svg="http://www.w3.org/2000/svg"> <defs id="I180f736948804638a0abb4ed7c8eac9520251106170412" /> <g id="I4018e580b6344962b59e0c97b1d223ab20251106170412"> <path id="I87e562ce0ea549c9a0500d3d9f3517c820251106170412" d="m 19.531,9.375 c -5.609,0 -10.156,4.547 -10.156,10.156 v 35.938 c 0,5.609 4.547,10.156 10.156,10.156 h 35.938 c 5.609,0 10.156,-4.547 10.156,-10.156 V 19.531 c 0,-5.609 -4.547,-10.156 -10.156,-10.156 z m -5.469,10.156 c 0,-3.019 2.45,-5.469 5.469,-5.469 H 37.5 V 35.156 H 14.062 Z m 0,20.313 h 46.876 v 15.625 c 0,3.019 -2.45,5.469 -5.469,5.469 H 19.531 c -3.019,0 -5.469,-2.45 -5.469,-5.469 z" style="fill:currentColor;fill-opacity:1;fill-rule:nonzero;stroke:none" transform="scale(1.3333333)" /> </g>
</svg>

