<?xml version="1.0" encoding="UTF-8" standalone="no"?> <svg version="1.1" id="Ide95c1a7d78d4eedafce6f5319c025e920251110124422" width="100" height="100" viewBox="0 0 100 100" xmlns="http://www.w3.org/2000/svg" xmlns:svg="http://www.w3.org/2000/svg"> <defs id="I8f5d5f90275e47fb89642bc06791826c20251110124422" /> <g id="I888d7cb059444cd6852d839985bf835820251110124422"> <path id="Iab23c1d14e704688a4c72a3103be20fd20251110124422" d="m 44.145,56.254 0.722,-0.004 c 3.27,0 4.985,1.355 7.106,4.562 l 1.054,1.633 c 0.821,1.215 1.336,1.727 1.981,1.993 1.16,0.476 2.121,0.242 5.648,-1.458 l 1.078,-0.523 c 2.207,-1.086 3.711,-1.703 5.414,-2.129 1.075,-0.269 2.168,0.383 2.438,1.461 0.266,1.078 -0.387,2.168 -1.465,2.438 -1.055,0.261 -2.07,0.64 -3.394,1.253 l -3.102,1.493 c -4.203,1.984 -5.625,2.218 -8.148,1.179 -1.672,-0.691 -2.625,-1.687 -4.02,-3.82 L 48.938,63.52 c -1.614,-2.54 -2.426,-3.25 -4.071,-3.25 l -0.426,0.007 c -1.16,0.071 -1.91,0.602 -6.914,4.317 -4.668,3.461 -8.226,5.117 -12.754,5.117 -5.515,0 -10.714,-1.016 -15.582,-3.039 l 7.723,-1.785 c 2.527,0.539 5.148,0.804 7.859,0.804 3.457,0 6.325,-1.332 10.36,-4.324 l 3.105,-2.293 c 3.407,-2.476 4.164,-2.781 5.907,-2.82 z M 61.012,8.629 c 4.484,4.484 4.484,11.754 0,16.234 l -2.774,2.774 c 3.086,3.754 2.973,7.734 0.106,10.613 l -8.039,8.035 c -0.785,0.785 -2.055,0.785 -2.84,0 -0.785,-0.785 -0.785,-2.055 0,-2.84 L 55.5,35.41 c 1.297,-1.301 1.449,-2.918 -0.109,-4.922 L 27.012,58.863 c -0.797,0.801 -1.805,1.36 -2.907,1.614 L 7.82,64.234 C 6.371,64.566 5.078,63.27 5.41,61.824 L 9.168,45.535 C 9.422,44.438 9.98,43.43 10.781,42.629 l 33.996,-34 c 4.485,-4.481 11.75,-4.481 16.235,0 z" style="fill:currentColor;fill-opacity:1;fill-rule:nonzero;stroke:none" transform="scale(1.3333333)" /> </g>
</svg>

