<?xml version="1.0" encoding="UTF-8" standalone="no"?> <svg version="1.1" id="I0173ac5fedec4cad8c1c2f158634da8920251106170411" width="100" height="100" viewBox="0 0 100 100" xmlns="http://www.w3.org/2000/svg" xmlns:svg="http://www.w3.org/2000/svg"> <defs id="I457f352d2c3247c5943a719599e6d75920251106170411" /> <g id="I1a19d8459688438a9d19c5f612a76bd820251106170411"> <path id="Ia51e7a923a7942a69a7f6dcec349c81120251106170411" d="m 16.875,18.75 c -3.105,0 -5.625,2.52 -5.625,5.625 v 22.5 c 0,3.105 2.52,5.625 5.625,5.625 h 24.559 c -0.082,-0.742 -0.137,-1.496 -0.161,-2.262 v -0.031 l -0.015,-0.953 v -8.473 c 0,-2.601 2.027,-5.156 5.062,-5.156 2.785,0 5.45,-1.137 8.145,-4.023 0.961,-1.028 2.281,-1.594 3.644,-1.602 h 0.036 c 1.367,0.008 2.687,0.574 3.648,1.602 0.652,0.699 1.305,1.296 1.957,1.8 v -9.027 c 0,-3.105 -2.52,-5.625 -5.625,-5.625 z m -7.5,37.5 h 32.766 c 0.351,1.305 0.816,2.559 1.39,3.75 H 9.375 C 8.34,60 7.5,59.16 7.5,58.125 7.5,57.09 8.34,56.25 9.375,56.25 Z M 58.129,67.5 c -0.141,0 -0.277,-0.023 -0.41,-0.07 -2.594,-0.93 -4.801,-2.157 -6.606,-3.676 L 51.105,63.75 c -1.3,-1.098 -2.398,-2.348 -3.285,-3.746 L 47.816,60 c -1.734,-2.73 -2.671,-6.031 -2.793,-9.883 l -0.015,-0.894 v -8.442 c 0,-0.777 0.586,-1.406 1.312,-1.406 4.016,0 7.625,-1.719 10.887,-5.215 0.254,-0.269 0.586,-0.41 0.922,-0.41 0.332,0 0.668,0.141 0.922,0.41 3.261,3.496 6.871,5.215 10.887,5.215 0.726,0 1.312,0.629 1.312,1.406 v 8.442 l -0.016,0.894 C 71.109,53.969 70.172,57.27 68.441,60 l -0.003,0.004 c -0.887,1.398 -1.985,2.648 -3.29,3.746 l -0.003,0.004 c -1.809,1.519 -4.012,2.746 -6.606,3.676 -0.133,0.047 -0.273,0.07 -0.41,0.07 z" style="fill:currentColor;fill-opacity:1;fill-rule:nonzero;stroke:none" transform="scale(1.3333333)" /> </g>
</svg>

