<?xml version="1.0" encoding="UTF-8" standalone="no"?> <svg version="1.1" id="I9c3a11b6115c4b819784d62cb0f95eff20251106123600" width="100" height="100" viewBox="0 0 100 100" xmlns="http://www.w3.org/2000/svg" xmlns:svg="http://www.w3.org/2000/svg"> <defs id="I737657621af74ce6be3308fa32deca4520251106123600" /> <g id="I442bcbce1c5c4689b50ddd0ce39b693420251106123600"> <path id="I900484aca1724a3c898a77e147ee2efa20251106123600" d="m 35.156,42.969 -0.265,-0.227 c -0.914,-0.68 -2.219,-0.605 -3.051,0.227 l -2.152,2.152 -0.004,-20.902 -0.02,-0.321 C 29.508,22.754 28.527,21.875 27.34,21.875 l -0.317,0.02 c -1.144,0.156 -2.027,1.136 -2.027,2.324 L 25,45.129 22.844,42.969 22.578,42.742 c -0.914,-0.68 -2.219,-0.605 -3.051,0.227 -0.914,0.914 -0.914,2.398 0,3.312 l 6.153,6.16 0.265,0.227 c 0.918,0.68 2.219,0.605 3.051,-0.227 l 6.16,-6.16 0.227,-0.261 c 0.679,-0.918 0.605,-2.219 -0.227,-3.051 z M 6.246,37.5 c 0,17.258 13.992,31.25 31.25,31.25 17.262,0 31.25,-13.992 31.25,-31.25 0,-17.258 -13.988,-31.25 -31.25,-31.25 -17.258,0 -31.25,13.992 -31.25,31.25 z m 57.813,0 c 0,14.672 -11.891,26.562 -26.563,26.562 -14.668,0 -26.562,-11.89 -26.562,-26.562 0,-14.672 11.894,-26.562 26.562,-26.562 14.672,0 26.563,11.89 26.563,26.562 z m -8.59,5.469 -0.266,-0.227 c -0.918,-0.68 -2.219,-0.605 -3.051,0.227 L 50,45.121 49.996,24.219 49.977,23.898 C 49.82,22.754 48.84,21.875 47.652,21.875 l -0.316,0.02 c -1.145,0.156 -2.027,1.136 -2.027,2.324 l 0.003,20.91 -2.156,-2.16 -0.265,-0.227 c -0.914,-0.68 -2.219,-0.605 -3.051,0.227 -0.914,0.914 -0.914,2.398 0,3.312 l 6.152,6.16 0.266,0.227 c 0.918,0.68 2.219,0.605 3.051,-0.227 l 6.16,-6.16 0.226,-0.261 c 0.68,-0.918 0.606,-2.219 -0.226,-3.051 z" style="fill:currentColor;fill-opacity:1;fill-rule:nonzero;stroke:none" transform="scale(1.3333333)" /> </g>
</svg>

