<?xml version="1.0" encoding="UTF-8" standalone="no"?> <svg version="1.1" id="Iaf27f97df441490cb804678ffe33a3da20251110124421" width="100" height="100" viewBox="0 0 100 100" xmlns="http://www.w3.org/2000/svg" xmlns:svg="http://www.w3.org/2000/svg"> <defs id="I87a1e6f160d14ec9a620f2b0a823429720251110124421" /> <g id="I3d4106987688443a95fd6e9b2b01dd8420251110124421"> <path id="I50924e9d4bfd4fc2a6560fa7ffb409d220251110124421" d="m 46.879,32.812 h 2.344 c 0.621,0 1.215,0.247 1.656,0.688 0.437,0.438 0.687,1.035 0.687,1.656 0,0.621 -0.25,1.219 -0.687,1.656 -0.441,0.442 -1.035,0.688 -1.656,0.688 h -2.344 z m 4,-18.062 c 0.437,0.438 0.687,1.035 0.687,1.656 0,0.621 -0.25,1.219 -0.687,1.656 -0.441,0.442 -1.035,0.688 -1.656,0.688 h -4.758 c -0.653,-0.859 -1.418,-1.621 -2.274,-2.273 v -0.071 c 0,-0.621 0.247,-1.218 0.684,-1.656 0.441,-0.441 1.035,-0.688 1.66,-0.688 h 4.688 c 0.621,0 1.215,0.247 1.656,0.688 z m 14.633,24.352 4.687,14.062 c 0.117,0.356 0.149,0.731 0.09,1.098 -0.055,0.367 -0.199,0.715 -0.414,1.015 -0.219,0.301 -0.504,0.547 -0.836,0.715 -0.332,0.172 -0.695,0.258 -1.066,0.258 H 52.707 L 51.184,51.676 C 51.18,51.66 51.168,51.645 51.16,51.633 51.145,51.609 51.129,51.59 51.129,51.562 h 13.594 l -3.125,-9.374 h -1.09 c -0.485,1.367 -1.375,2.55 -2.559,3.39 -1.179,0.836 -2.59,1.289 -4.039,1.297 h -7.031 v -4.687 h 7.031 c 0.621,0 1.215,-0.247 1.656,-0.688 0.438,-0.438 0.688,-1.035 0.688,-1.656 V 11.719 c 0,-0.621 -0.25,-1.219 -0.688,-1.657 C 55.125,9.621 54.531,9.375 53.91,9.375 H 39.848 c -0.625,0 -1.219,0.246 -1.66,0.687 -0.438,0.438 -0.684,1.036 -0.684,1.657 v 2.582 C 36.73,14.145 35.945,14.062 35.16,14.062 h -2.344 v -2.343 c 0,-1.864 0.739,-3.653 2.059,-4.973 C 36.191,5.43 37.98,4.688 39.848,4.688 H 53.91 c 1.863,0 3.652,0.742 4.969,2.058 1.32,1.32 2.062,3.109 2.062,4.973 V 37.5 h 2.344 c 0.492,0 0.973,0.152 1.371,0.441 0.399,0.289 0.699,0.696 0.856,1.161 z M 24.125,28.812 c -0.437,0.438 -0.684,1.036 -0.684,1.657 0,0.621 0.247,1.219 0.684,1.656 0.441,0.441 1.039,0.687 1.66,0.687 h 4.688 c 0.621,0 1.215,-0.246 1.656,-0.687 0.441,-0.437 0.687,-1.035 0.687,-1.656 0,-0.621 -0.246,-1.219 -0.687,-1.657 -0.441,-0.441 -1.035,-0.687 -1.656,-0.687 h -4.688 c -0.621,0 -1.219,0.246 -1.66,0.687 z m 6.348,22.75 h -4.688 c -0.621,0 -1.219,-0.246 -1.66,-0.687 -0.437,-0.437 -0.684,-1.035 -0.684,-1.656 0,-0.621 0.247,-1.219 0.684,-1.657 0.441,-0.441 1.039,-0.687 1.66,-0.687 h 4.688 c 0.621,0 1.215,0.246 1.656,0.687 0.441,0.438 0.687,1.036 0.687,1.657 0,0.621 -0.246,1.219 -0.687,1.656 -0.441,0.441 -1.035,0.687 -1.656,0.687 z m 19.8,18.485 c 0.329,-0.168 0.61,-0.41 0.825,-0.711 h 0.023 c 0.219,-0.301 0.359,-0.648 0.418,-1.016 0.055,-0.363 0.023,-0.738 -0.09,-1.093 L 46.762,53.164 c -0.157,-0.465 -0.457,-0.871 -0.856,-1.16 -0.398,-0.289 -0.879,-0.442 -1.371,-0.442 H 42.191 V 25.781 c 0,-1.863 -0.742,-3.652 -2.058,-4.972 C 38.812,19.492 37.023,18.75 35.16,18.75 H 21.098 c -1.868,0 -3.653,0.742 -4.973,2.059 -1.32,1.32 -2.059,3.109 -2.059,4.972 v 25.781 h -2.343 c -0.493,0 -0.973,0.153 -1.375,0.442 -0.399,0.289 -0.696,0.695 -0.852,1.16 L 4.809,67.227 c -0.118,0.355 -0.149,0.73 -0.094,1.097 0.055,0.367 0.199,0.715 0.418,1.016 0.215,0.301 0.5,0.547 0.832,0.715 0.332,0.172 0.699,0.257 1.07,0.257 h 42.188 c 0.367,-0.003 0.726,-0.093 1.05,-0.265 z M 19.438,55.562 C 19,55.125 18.754,54.527 18.754,53.906 V 25.781 c 0,-0.621 0.246,-1.219 0.684,-1.656 0.441,-0.441 1.039,-0.687 1.66,-0.687 H 35.16 c 0.621,0 1.215,0.246 1.656,0.687 0.442,0.437 0.688,1.035 0.688,1.656 v 28.125 c 0,0.621 -0.246,1.219 -0.688,1.656 -0.441,0.442 -1.035,0.688 -1.656,0.688 H 21.098 c -0.621,0 -1.219,-0.246 -1.66,-0.688 z m 22.32,0.688 h 1.09 l 3.125,9.375 H 10.281 L 13.41,56.25 h 1.086 c 0.484,1.367 1.375,2.551 2.559,3.391 1.179,0.836 2.593,1.289 4.043,1.297 H 35.16 c 1.449,-0.008 2.86,-0.461 4.043,-1.297 1.18,-0.84 2.074,-2.024 2.555,-3.391 z" style="fill:currentColor;fill-opacity:1;fill-rule:nonzero;stroke:none" transform="scale(1.3333333)" /> </g>
</svg>

