<?xml version="1.0" encoding="UTF-8" standalone="no"?> <svg version="1.1" id="I3bc345eaca9742bbb92987302ef2d1e920251106123559" width="100" height="100" viewBox="0 0 100 100" xmlns="http://www.w3.org/2000/svg" xmlns:svg="http://www.w3.org/2000/svg"> <defs id="I793e79c42aa64a7dab9c1f241169658720251106123559" /> <g id="I1c7074313f024de0aa612292129794f520251106123559"> <path id="I68c38107412b427bb1381f27f188c5bc20251106123559" d="M 28.254,59.383 H 46.746 C 46,63.816 42.145,67.191 37.5,67.191 c -4.645,0 -8.5,-3.375 -9.246,-7.808 z M 37.5,6.262 c 12.945,0 23.438,10.492 23.438,23.437 v 12.496 l 4.433,9.875 c 0.172,0.383 0.258,0.797 0.258,1.215 0,1.641 -1.328,2.969 -2.969,2.969 H 12.352 c -0.418,0 -0.832,-0.086 -1.215,-0.258 C 9.641,55.324 8.973,53.57 9.641,52.074 l 4.421,-9.879 V 29.66 l 0.016,-0.781 C 14.512,16.281 24.863,6.262 37.5,6.262 Z m 34.375,19.519 c 1.293,0 2.344,1.051 2.344,2.344 0,1.187 -0.883,2.168 -2.028,2.324 l -0.316,0.02 h -6.25 c -1.293,0 -2.344,-1.051 -2.344,-2.344 0,-1.187 0.883,-2.168 2.028,-2.324 l 0.316,-0.02 z m -62.5,0 c 1.293,0 2.344,1.051 2.344,2.344 0,1.187 -0.883,2.168 -2.028,2.324 l -0.316,0.02 h -6.25 c -1.293,0 -2.344,-1.051 -2.344,-2.344 0,-1.187 0.883,-2.168 2.028,-2.324 l 0.316,-0.02 z M 70.625,7.969 c 0.707,0.941 0.598,2.242 -0.207,3.054 l -0.262,0.227 -6.25,4.688 c -1.035,0.777 -2.504,0.566 -3.281,-0.469 -0.707,-0.942 -0.598,-2.242 0.207,-3.055 l 0.262,-0.226 6.25,-4.688 c 1.035,-0.777 2.504,-0.566 3.281,0.469 z M 7.656,7.5 l 6.25,4.688 c 1.035,0.777 1.246,2.246 0.469,3.281 -0.777,1.035 -2.246,1.246 -3.281,0.469 L 4.844,11.25 C 3.809,10.473 3.598,9.004 4.375,7.969 5.152,6.934 6.621,6.723 7.656,7.5 Z" style="fill:currentColor;fill-opacity:1;fill-rule:nonzero;stroke:none" transform="scale(1.3333333)" /> </g>
</svg>

