<?xml version="1.0" encoding="UTF-8" standalone="no"?> <svg version="1.1" id="If95ae008711e46ef8ccae6d121a0622e20251110130508" width="100" height="100" viewBox="0 0 100 100" xmlns="http://www.w3.org/2000/svg" xmlns:svg="http://www.w3.org/2000/svg"> <defs id="Ia56ef99b74ec41999b303d90185ecd4a20251110130508" /> <g id="I01e9476bdd0146319a1ce2536a009d8520251110130508"> <path id="I7bb88c3fec4d4881b3972bfd54907c1020251110130508" d="m 8.035,18.082 c 0,-5.551 4.496,-10.047 10.047,-10.047 h 38.836 c 5.551,0 10.047,4.496 10.047,10.047 v 38.836 c 0,5.551 -4.496,10.047 -10.047,10.047 H 18.082 c -5.551,0 -10.047,-4.496 -10.047,-10.047 z m 10.047,-6.027 c -3.332,0 -6.027,2.695 -6.027,6.027 v 38.836 c 0,3.328 2.695,6.027 6.027,6.027 h 38.836 c 3.328,0 6.027,-2.699 6.027,-6.027 V 18.082 c 0,-3.332 -2.699,-6.027 -6.027,-6.027 z" style="fill:currentColor;fill-opacity:1;fill-rule:nonzero;stroke:none" transform="scale(1.3333333)" /> </g>
</svg>

