<?xml version="1.0" encoding="UTF-8" standalone="no"?> <svg version="1.1" id="I06ba707f4e944a768fa226a0c78610ea20251110124420" width="100" height="100" viewBox="0 0 100 100" xmlns="http://www.w3.org/2000/svg" xmlns:svg="http://www.w3.org/2000/svg"> <defs id="I7beb4f76123d438f83a27113f5961dda20251110124420" /> <g id="If982c2efe2d4486ba5329d88eeb1558e20251110124420"> <path id="I477c721c39624db5bd2cc3f3b37d981c20251110124420" d="m 55.57,6.25 c 4.551,0.176 6.93,3.781 6.93,6.805 l 0.016,12.761 C 60.285,21.609 55.867,18.75 50.781,18.75 c -3.261,0 -6.25,1.176 -8.558,3.125 H 25.781 c -1.293,0 -2.343,1.051 -2.343,2.344 0,1.293 1.05,2.343 2.343,2.343 H 38.672 C 38.02,28.02 37.617,29.594 37.523,31.25 H 25.781 c -1.293,0 -2.343,1.051 -2.343,2.344 0,1.293 1.05,2.344 2.343,2.344 H 37.5 v 2.089 C 36.93,37.758 36.309,37.582 35.652,37.523 L 35.156,37.5 c -2.183,0 -4.066,1.277 -4.941,3.125 h -4.434 c -1.293,0 -2.343,1.051 -2.343,2.344 0,1.293 1.05,2.343 2.343,2.343 h 3.907 c 0,9.387 6.175,17.282 14.874,19.879 l 0.75,0.207 v 1.008 c 0,0.836 0.188,1.629 0.524,2.34 l -26.297,0.008 c -3.289,0 -6.727,-2.629 -7.019,-6.332 L 12.5,61.91 V 13.082 c 0,-2.891 2.551,-6.531 6.492,-6.816 L 19.539,6.25 Z m 10.836,34.375 c 1.188,0 2.168,0.883 2.324,2.027 l 0.02,0.317 v 2.343 c 0,9.129 -6.809,16.403 -15.625,17.512 v 3.582 c 0,1.293 -1.051,2.344 -2.344,2.344 -1.187,0 -2.168,-0.883 -2.324,-2.027 L 48.438,66.406 V 62.824 C 39.859,61.746 33.184,54.832 32.828,46.047 l -0.016,-0.735 v -2.343 c 0,-1.293 1.051,-2.344 2.344,-2.344 1.188,0 2.168,0.883 2.324,2.027 l 0.02,0.317 v 2.343 c 0,7.336 5.945,12.969 13.281,12.969 7.114,0 12.918,-5.297 13.266,-12.308 l 0.015,-0.661 v -2.343 c 0,-1.293 1.051,-2.344 2.344,-2.344 z M 50.781,21.875 c 5.61,0 10.157,4.547 10.157,10.156 v 12.5 c 0,5.61 -4.547,10.157 -10.157,10.157 -5.609,0 -10.156,-4.547 -10.156,-10.157 v -12.5 c 0,-5.609 4.547,-10.156 10.156,-10.156 z" style="fill:currentColor;fill-opacity:1;fill-rule:nonzero;stroke:none" transform="scale(1.3333333)" /> </g>
</svg>

