<?xml version="1.0" encoding="UTF-8" standalone="no"?> <svg version="1.1" id="I4ca9fec93e1a4e1ab57924336421b61a20251106170412" width="100" height="100" viewBox="0 0 100 100" xmlns="http://www.w3.org/2000/svg" xmlns:svg="http://www.w3.org/2000/svg"> <defs id="I5d2c80fe154c488e98436b4f3845ff7420251106170412" /> <g id="Ie099955890f64fdd8ca7c44d44fb81e120251106170412"> <path id="I2d65ce1ecc6245edacec29fb21a5d7d420251106170412" d="m 37.5,6.25 c 17.258,0 31.25,13.992 31.25,31.25 0,17.258 -13.992,31.25 -31.25,31.25 C 20.242,68.75 6.25,54.758 6.25,37.5 6.25,20.242 20.242,6.25 37.5,6.25 Z m 0,4.688 c -14.672,0 -26.562,11.89 -26.562,26.562 0,14.672 11.89,26.562 26.562,26.562 14.672,0 26.562,-11.89 26.562,-26.562 0,-14.672 -11.89,-26.562 -26.562,-26.562 z m 0,5.32 c 8.629,0 15.625,6.992 15.625,15.625 0,4.801 -2.184,9.246 -5.906,12.234 l 0.101,-0.09 -2.39,10.524 c -0.481,2.086 -2.141,3.672 -4.313,4.097 l -0.472,0.071 -0.485,0.023 h -4.32 c -2.293,0 -4.332,-1.445 -5.137,-3.722 L 30.07,54.543 27.676,44.023 27.191,43.621 C 24.277,41.066 22.395,37.496 21.965,33.527 L 21.898,32.73 21.875,31.883 c 0,-8.633 6.996,-15.625 15.625,-15.625 z M 41.156,50 h -7.32 l 0.769,3.367 0.055,0.211 c 0.102,0.285 0.375,0.477 0.68,0.477 l 4.183,0.004 0.219,-0.008 c 0.301,-0.035 0.551,-0.254 0.617,-0.547 z M 37.5,20.945 c -6.039,0 -10.938,4.895 -10.938,10.867 l 0.02,0.715 c 0.191,3.325 1.883,6.336 4.559,8.25 0.464,0.336 0.793,0.828 0.918,1.387 l 0.714,3.156 0.129,-0.008 h 9.196 l 0.121,0.008 0.719,-3.152 c 0.097,-0.43 0.312,-0.824 0.621,-1.133 l 0.25,-0.215 0.527,-0.402 c 2.578,-2.066 4.102,-5.172 4.102,-8.535 0,-6.043 -4.899,-10.938 -10.938,-10.938 z" style="fill:currentColor;fill-opacity:1;fill-rule:nonzero;stroke:none" transform="scale(1.3333333)" /> </g>
</svg>

