<?xml version="1.0" encoding="UTF-8" standalone="no"?> <svg version="1.1" id="I73eb353e1a7f43bea3187b38a2d8096420251106161453" width="100" height="100" viewBox="0 0 100 100" xmlns="http://www.w3.org/2000/svg" xmlns:svg="http://www.w3.org/2000/svg"> <defs id="Ib59845267b9244e39cfb0ba1d918beb320251106161453" /> <g id="I10d2dd6191a54624b79a65bf7fb66a6620251106161453"> <path id="I5ba665dd6440465cba17887fae60663820251106161453" d="M 37.5,25 V 6.25 H 18.75 c -3.453,0 -6.25,2.797 -6.25,6.25 v 31.434 c 0.762,-0.122 1.547,-0.184 2.344,-0.184 h 10.937 c 1.668,0 3.27,0.273 4.766,0.781 h 18.672 c 1.293,0 2.343,1.051 2.343,2.344 0,1.293 -1.05,2.344 -2.343,2.344 h -11.93 c 0.953,1.168 1.731,2.484 2.297,3.906 h 9.633 c 1.293,0 2.343,1.051 2.343,2.344 0,1.293 -1.05,2.343 -2.343,2.343 h -8.614 c 0.012,0.258 0.02,0.52 0.02,0.782 0,3.929 -1.527,7.5 -4.02,10.156 H 56.25 c 3.453,0 6.25,-2.797 6.25,-6.25 V 31.25 H 43.75 C 40.297,31.25 37.5,28.453 37.5,25 Z M 25.781,35.938 h 23.438 c 1.293,0 2.343,1.05 2.343,2.343 0,1.293 -1.05,2.344 -2.343,2.344 H 25.781 c -1.293,0 -2.343,-1.051 -2.343,-2.344 0,-1.293 1.05,-2.343 2.343,-2.343 z M 42.188,25 V 7.812 l 18.75,18.75 H 43.75 c -0.863,0 -1.562,-0.699 -1.562,-1.562 z M 37.5,58.594 c 0,-6.473 -5.246,-11.719 -11.719,-11.719 l -0.316,0.02 c -1.145,0.156 -2.027,1.136 -2.027,2.324 0,1.293 1.05,2.343 2.343,2.343 l 0.481,0.016 c 3.66,0.25 6.55,3.293 6.55,7.016 0,3.883 -3.148,7.031 -7.031,7.031 l -0.011,0.016 -0.317,0.023 c -1.144,0.16 -2.019,1.145 -2.015,2.328 0.007,1.297 1.058,2.34 2.355,2.336 v -0.016 l 0.621,-0.015 C 32.586,69.973 37.5,64.855 37.5,58.594 Z M 17.188,49.219 c 0,-1.293 -1.051,-2.344 -2.344,-2.344 l -0.621,0.016 C 8.039,47.215 3.125,52.332 3.125,58.594 c 0,6.472 5.246,11.718 11.719,11.718 l 0.316,-0.019 c 1.145,-0.156 2.028,-1.137 2.028,-2.324 0,-1.293 -1.051,-2.344 -2.344,-2.344 l -0.481,-0.016 c -3.66,-0.25 -6.551,-3.293 -6.551,-7.015 0,-3.883 3.149,-7.032 7.032,-7.032 l 0.316,-0.019 c 1.145,-0.156 2.028,-1.137 2.028,-2.324 z m 10.937,9.375 c 0,-1.293 -1.051,-2.344 -2.344,-2.344 H 14.844 l -0.317,0.02 c -1.144,0.156 -2.027,1.136 -2.027,2.324 0,1.293 1.051,2.344 2.344,2.344 h 10.937 l 0.317,-0.02 c 1.144,-0.156 2.027,-1.137 2.027,-2.324 z" style="fill:currentColor;fill-opacity:1;fill-rule:nonzero;stroke:none" transform="scale(1.3333333)" /> </g>
</svg>

