<?xml version="1.0" encoding="UTF-8" standalone="no"?> <svg version="1.1" id="I07e3e08e13c84aef95f13f4a0d12cf1c20251110135155" width="100" height="100" viewBox="0 0 100 100" xmlns="http://www.w3.org/2000/svg" xmlns:svg="http://www.w3.org/2000/svg"> <defs id="Ibf677443c66e48c0ab624c22edf3075b20251110135155" /> <g id="I5e7e97dbcb4e4e5d95987736b3cc61b920251110135155"> <path id="I2eee1d40f61b48b6abf3b2c2f933d72c20251110135155" d="m 9.375,15.625 c -1.727,0 -3.125,1.398 -3.125,3.125 0,1.727 1.398,3.125 3.125,3.125 h 56.25 c 1.727,0 3.125,-1.398 3.125,-3.125 0,-1.727 -1.398,-3.125 -3.125,-3.125 z m 21.875,37.5 c -1.727,0 -3.125,1.398 -3.125,3.125 0,1.727 1.398,3.125 3.125,3.125 h 34.375 c 1.727,0 3.125,-1.398 3.125,-3.125 0,-1.727 -1.398,-3.125 -3.125,-3.125 z M 28.125,37.5 c 0,-1.727 1.398,-3.125 3.125,-3.125 h 34.375 c 1.727,0 3.125,1.398 3.125,3.125 0,1.727 -1.398,3.125 -3.125,3.125 H 31.25 c -1.727,0 -3.125,-1.398 -3.125,-3.125 z m -13.414,4.039 c -1.223,-1.219 -3.199,-1.219 -4.422,0 -1.219,1.223 -1.219,3.199 0,4.422 L 14.332,50 10.289,54.039 c -1.219,1.223 -1.219,3.199 0,4.422 1.223,1.219 3.199,1.219 4.422,0 l 6.25,-6.25 c 1.219,-1.223 1.219,-3.199 0,-4.422 z" style="fill:currentColor;fill-opacity:1;fill-rule:nonzero;stroke:none" transform="scale(1.3333333)" /> </g>
</svg>

