<?xml version="1.0" encoding="UTF-8" standalone="no"?> <svg version="1.1" id="I7f1e9ec91a9d464997658d78a0d9ec4420251106163938" width="100" height="100" viewBox="0 0 100 100" xmlns="http://www.w3.org/2000/svg" xmlns:svg="http://www.w3.org/2000/svg"> <defs id="I2b881f4d94264f41bdf1fdb32117cb4e20251106163938" /> <g id="I7453fd6809ba47fd9ba01b69c8508e5520251106163938"> <path id="I696fa2c3b14f477fbf5919287d4d344f20251106163938" d="m 59.297,43.75 c 0.312,0 0.621,0.098 0.875,0.277 0.254,0.18 0.449,0.434 0.551,0.731 l 1.246,3.824 c 0.386,1.16 1.039,2.223 1.906,3.086 0.867,0.867 1.922,1.52 3.086,1.906 l 3.828,1.242 0.074,0.02 c 0.297,0.102 0.555,0.297 0.735,0.551 0.179,0.254 0.277,0.558 0.277,0.871 0,0.312 -0.098,0.617 -0.277,0.875 -0.18,0.254 -0.438,0.449 -0.735,0.551 l -3.824,1.242 c -1.164,0.386 -2.219,1.039 -3.086,1.906 -0.867,0.863 -1.519,1.926 -1.906,3.086 l -1.246,3.824 c -0.012,0.031 -0.024,0.063 -0.039,0.094 -0.11,0.254 -0.285,0.476 -0.516,0.637 -0.254,0.179 -0.558,0.277 -0.871,0.277 -0.313,0 -0.617,-0.098 -0.871,-0.277 -0.258,-0.18 -0.449,-0.434 -0.555,-0.731 L 56.703,63.918 C 56.422,63.066 56,62.27 55.453,61.562 55.254,61.305 55.035,61.055 54.805,60.82 53.938,59.953 52.879,59.297 51.711,58.906 l -3.824,-1.242 c -0.297,-0.102 -0.555,-0.297 -0.735,-0.551 -0.179,-0.254 -0.277,-0.558 -0.277,-0.871 0,-0.312 0.098,-0.617 0.277,-0.875 0.059,-0.082 0.129,-0.16 0.203,-0.226 0.02,-0.024 0.043,-0.039 0.067,-0.059 0.137,-0.113 0.293,-0.207 0.465,-0.266 l 3.824,-1.242 c 0.012,-0.004 0.019,-0.008 0.031,-0.012 0.344,-0.121 0.676,-0.273 1,-0.437 h 0.012 c 0.738,-0.383 1.414,-0.875 2,-1.473 0.832,-0.84 1.461,-1.859 1.844,-2.976 l 0.031,-0.094 1.246,-3.824 c 0.102,-0.297 0.297,-0.551 0.551,-0.731 0.254,-0.179 0.558,-0.277 0.871,-0.277 z M 53.125,12.5 c 6.902,0 12.5,5.598 12.5,12.5 0,6.902 -5.598,12.5 -12.5,12.5 h -31.25 c -4.316,0 -7.813,3.496 -7.813,7.812 0,4.317 3.497,7.813 7.813,7.813 h 23.094 c -0.047,0.051 -0.102,0.098 -0.149,0.152 l -0.218,0.285 c -0.485,0.684 -0.774,1.485 -0.836,2.317 l -0.016,0.363 0.016,0.356 c 0.031,0.418 0.117,0.824 0.257,1.214 H 21.875 c -6.902,0 -12.5,-5.597 -12.5,-12.5 0,-6.902 5.598,-12.5 12.5,-12.5 h 31.25 c 4.316,0 7.813,-3.496 7.813,-7.812 0,-4.316 -3.497,-7.812 -7.813,-7.812 H 39.844 c -1.293,0 -2.344,-1.051 -2.344,-2.344 0,-1.293 1.051,-2.344 2.344,-2.344 z m -36.719,0 c 1.293,0 2.344,1.051 2.344,2.344 0,1.293 -1.051,2.344 -2.344,2.344 h -4.687 c -1.293,0 -2.344,-1.051 -2.344,-2.344 0,-1.293 1.051,-2.344 2.344,-2.344 z m 14.063,0 c 1.293,0 2.343,1.051 2.343,2.344 0,1.293 -1.05,2.344 -2.343,2.344 h -4.688 c -1.293,0 -2.343,-1.051 -2.343,-2.344 0,-1.293 1.05,-2.344 2.343,-2.344 z" style="fill:currentColor;fill-opacity:1;fill-rule:nonzero;stroke:none" transform="scale(1.3333333)" /> </g>
</svg>

