<?xml version="1.0" encoding="UTF-8" standalone="no"?> <svg version="1.1" id="Ibe196e6e25de41e8a9feff0374a7f94920251106161453" width="100" height="100" viewBox="0 0 100 100" xmlns="http://www.w3.org/2000/svg" xmlns:svg="http://www.w3.org/2000/svg"> <defs id="I48ac134e866e4e88894ce9835a84e34820251106161453" /> <g id="I3242b49b720d45d48c5ee4340c8de09920251106161453"> <path id="I80d293b3f9a24b369329e3edb8ee380a20251106161453" d="m 20.02,12.156 c 1.16,-1.738 3.109,-2.781 5.199,-2.781 h 24.562 c 2.09,0 4.039,1.043 5.199,2.781 l 6.469,9.707 c 0.684,1.028 1.051,2.235 1.051,3.465 v 9.047 c 0,1.727 -1.398,3.125 -3.125,3.125 h -1.117 l 2.68,6.25 c 2.589,0 4.687,2.098 4.687,4.688 v 12.5 c 0,2.589 -2.098,4.687 -4.687,4.687 H 14.062 c -2.589,0 -4.687,-2.098 -4.687,-4.687 v -12.5 c 0,-2.59 2.098,-4.688 4.687,-4.688 l 2.68,-6.25 H 15.625 C 13.898,37.5 12.5,36.102 12.5,34.375 v -9.047 c 0,-1.23 0.367,-2.437 1.051,-3.465 z m -1.27,20.656 2.68,-6.25 h -4.242 v 6.25 z m 29.723,-6.25 H 26.527 l -7.3,17.036 0.078,0.152 h 36.39 l 0.078,-0.152 z m 5.097,0 2.68,6.25 h 1.562 v -6.25 z M 32.031,52.344 c -1.293,0 -2.343,1.051 -2.343,2.344 0,1.292 1.05,2.343 2.343,2.343 h 10.938 c 1.293,0 2.343,-1.051 2.343,-2.343 0,-1.293 -1.05,-2.344 -2.343,-2.344 z" style="fill:currentColor;fill-opacity:1;fill-rule:nonzero;stroke:none" transform="scale(1.3333333)" /> </g>
</svg>

