<?xml version="1.0" encoding="UTF-8" standalone="no"?> <svg version="1.1" id="Ib1134fc75466486f94af4901ca208fc720251106112458" width="100" height="100" viewBox="0 0 100 100" xmlns="http://www.w3.org/2000/svg" xmlns:svg="http://www.w3.org/2000/svg"> <defs id="Ic5521d973cbd44f1b1da8298fa7359e120251106112458" /> <g id="Ie46a1058ef764705a31be2416f361e6720251106112458"> <path id="I88f6caaaab3146a2a5e2a0239bf8848d20251106112458" d="M 47.965,31.723 H 38.086 V 20.508 c 0,-0.367 -0.301,-0.668 -0.668,-0.668 h -5.023 c -0.368,0 -0.672,0.301 -0.672,0.668 v 11.215 h -9.875 c -0.368,0 -0.672,0.304 -0.672,0.672 v 5.023 c 0,0.367 0.304,0.668 0.672,0.668 h 9.875 v 11.215 c 0,0.371 0.304,0.672 0.672,0.672 h 5.023 c 0.367,0 0.668,-0.301 0.668,-0.672 V 38.086 h 9.879 c 0.367,0 0.668,-0.301 0.668,-0.668 v -5.023 c 0,-0.368 -0.301,-0.672 -0.668,-0.672 z M 71.734,67.215 59.516,54.996 c 10.218,-12.465 9.507,-30.93 -2.176,-42.609 -12.391,-12.395 -32.512,-12.395 -44.953,0 -12.395,12.441 -12.395,32.562 0,44.953 11.679,11.683 30.144,12.394 42.609,2.176 l 12.219,12.218 c 0.269,0.235 0.695,0.235 0.922,0 l 3.597,-3.597 c 0.235,-0.227 0.235,-0.653 0,-0.922 z M 52.902,52.902 c -9.945,9.934 -26.05,9.934 -35.992,0 -9.937,-9.945 -9.937,-26.05 0,-35.992 9.942,-9.937 26.047,-9.937 35.992,0 9.934,9.942 9.934,26.047 0,35.992 z" style="fill:currentColor;fill-opacity:1;fill-rule:nonzero;stroke:none" transform="scale(1.3333333)" /> </g>
</svg>

