<?xml version="1.0" encoding="UTF-8" standalone="no"?> <svg version="1.1" id="Ia6b0faac40144b138e5dfc55c9c7a33b20251110124420" width="100" height="100" viewBox="0 0 100 100" xmlns="http://www.w3.org/2000/svg" xmlns:svg="http://www.w3.org/2000/svg"> <defs id="I5ecbf909762b4b208d51fe04f10f92d320251110124420" /> <g id="I205355ef083e487998a3e96280950ca220251110124420"> <path id="I73dfd88b724d46a6a847eb6e8f790d1020251110124420" d="m 45.602,6.504 c 0.722,-1.566 2.578,-2.25 4.144,-1.527 0.824,0.418 0.004,0 0.004,0 l 0.004,0.003 0.008,0.004 0.023,0.008 0.067,0.031 c 0.054,0.028 0.125,0.063 0.218,0.11 0.18,0.09 0.43,0.219 0.742,0.39 0.618,0.34 1.481,0.848 2.493,1.528 2.019,1.355 4.675,3.426 7.234,6.304 5.164,5.809 9.891,14.887 8.184,27.684 -0.227,1.711 -1.801,2.91 -3.512,2.684 C 63.5,43.492 62.301,41.922 62.527,40.211 63.945,29.57 60.082,22.246 55.867,17.508 53.738,15.109 51.512,13.375 49.82,12.238 48.98,11.672 48.277,11.262 47.801,11 47.559,10.867 47.379,10.773 47.262,10.715 47.203,10.688 47.164,10.668 47.141,10.656 l -0.02,-0.008 C 45.559,9.922 44.879,8.066 45.602,6.504 Z m -14.567,7.98 C 30.566,13.285 29.41,12.5 28.125,12.5 c -1.285,0 -2.437,0.785 -2.906,1.984 L 8.031,58.23 c -0.633,1.606 0.157,3.422 1.766,4.051 1.605,0.633 3.418,-0.156 4.051,-1.765 l 5.359,-13.641 h 17.84 l 5.359,13.641 c 0.629,1.609 2.446,2.398 4.051,1.765 1.605,-0.629 2.395,-2.445 1.766,-4.051 z M 34.59,40.625 H 21.66 L 28.125,24.172 Z M 48.273,17.52 c -1.543,-0.774 -3.421,-0.149 -4.191,1.394 -0.773,1.543 -0.148,3.422 1.395,4.195 0.91,0.453 2.476,1.797 3.835,3.946 1.321,2.09 2.25,4.644 2.25,7.32 0,1.727 1.399,3.125 3.126,3.125 1.726,0 3.124,-1.398 3.124,-3.125 0,-4.105 -1.414,-7.801 -3.218,-10.656 -1.766,-2.797 -4.106,-5.094 -6.321,-6.199 z" style="fill:currentColor;fill-opacity:1;fill-rule:nonzero;stroke:none" transform="scale(1.3333333)" /> </g>
</svg>

