<?xml version="1.0" encoding="UTF-8" standalone="no"?>
<!-- Created with Inkscape (http://www.inkscape.org/) -->

<svg
   version="1.1"
   id="Ica1d09e36c1542d0b3071c64b332407b20251030195519"
   width="100"
   height="100"
   viewBox="0 0 100 100"
   sodipodi:docname="output.ai"
   xmlns:inkscape="http://www.inkscape.org/namespaces/inkscape"
   xmlns:sodipodi="http://sodipodi.sourceforge.net/DTD/sodipodi-0.dtd"
   xmlns="http://www.w3.org/2000/svg"
   xmlns:svg="http://www.w3.org/2000/svg">
  <defs
     id="If1dbe4d97ad04375bb3b4d94f6ca438c20251030195519" />
  <sodipodi:namedview
     id="Id6c4c877a6804056bfe0933c896362be20251030195519"
     pagecolor="#ffffff"
     bordercolor="#000000"
     borderopacity="0.25"
     inkscape:showpageshadow="2"
     inkscape:pageopacity="0.0"
     inkscape:pagecheckerboard="0"
     inkscape:deskcolor="#d1d1d1">
    <inkscape:page
       x="0"
       y="0"
       inkscape:label="1"
       id="I564134b43fa14e2285a218b8bfba811d20251030195519"
       width="100"
       height="100"
       margin="0"
       bleed="0" />
  </sodipodi:namedview>
  <g
     id="Ia0e5c39ea8a44681b172fbc56a3efe9920251030195519"
     inkscape:groupmode="layer"
     inkscape:label="1">
    <path
       id="I7cf7804cb0bf4c32be486f01facd479f20251030195519"
       d="m 31.25,16.406 v 0.782 h 12.5 v -0.782 c 0,-3.453 -2.797,-6.25 -6.25,-6.25 -3.453,0 -6.25,2.797 -6.25,6.25 z m -3.906,0.782 v -0.782 c 0,-5.609 4.547,-10.156 10.156,-10.156 5.609,0 10.156,4.547 10.156,10.156 v 0.782 h 17.578 c 1.078,0 1.954,0.874 1.954,1.953 0,1.078 -0.876,1.953 -1.954,1.953 H 60.676 L 57.551,58.367 C 57.059,64.238 52.152,68.75 46.262,68.75 H 28.738 c -5.89,0 -10.797,-4.512 -11.289,-10.383 L 14.324,21.094 H 9.766 c -1.078,0 -1.954,-0.875 -1.954,-1.953 0,-1.079 0.876,-1.953 1.954,-1.953 z m -6,40.855 c 0.32,3.844 3.535,6.801 7.394,6.801 h 17.524 c 3.859,0 7.074,-2.957 7.398,-6.801 L 56.758,21.094 H 18.246 Z m 12.25,-26.402 c 0,-1.079 -0.875,-1.953 -1.953,-1.953 -1.079,0 -1.953,0.874 -1.953,1.953 v 22.656 c 0,1.078 0.874,1.953 1.953,1.953 1.078,0 1.953,-0.875 1.953,-1.953 z m 9.765,-1.953 c 1.079,0 1.953,0.874 1.953,1.953 v 22.656 c 0,1.078 -0.874,1.953 -1.953,1.953 -1.078,0 -1.953,-0.875 -1.953,-1.953 V 31.641 c 0,-1.079 0.875,-1.953 1.953,-1.953 z"
       style="fill:#212121;fill-opacity:1;fill-rule:nonzero;stroke:none"
       transform="scale(1.3333333)" />
  </g>
</svg>

