<?xml version="1.0" encoding="UTF-8" standalone="no"?> <svg version="1.1" id="I988608135f2041609b0e1c189158079c20251110135155" width="100" height="100" viewBox="0 0 100 100" xmlns="http://www.w3.org/2000/svg" xmlns:svg="http://www.w3.org/2000/svg"> <defs id="Ib803a3eca59941d0941843a9535f4d5320251110135155" /> <g id="Idbc89b7310694419acb7528a26ba319620251110135155"> <path id="I4d26f475a79f462682bafe651abaaf7320251110135155" d="m 9.375,17.969 c 0,-1.293 1.051,-2.344 2.344,-2.344 h 10.937 c 1.293,0 2.344,1.051 2.344,2.344 0,1.293 -1.051,2.343 -2.344,2.343 H 11.719 c -1.293,0 -2.344,-1.05 -2.344,-2.343 z m 20.313,0 c 0,-1.293 1.05,-2.344 2.343,-2.344 h 10.938 c 1.293,0 2.343,1.051 2.343,2.344 0,1.293 -1.05,2.343 -2.343,2.343 H 32.031 c -1.293,0 -2.343,-1.05 -2.343,-2.343 z m 20.312,0 c 0,-1.293 1.051,-2.344 2.344,-2.344 h 10.937 c 1.293,0 2.344,1.051 2.344,2.344 0,1.293 -1.051,2.343 -2.344,2.343 H 52.344 C 51.051,20.312 50,19.262 50,17.969 Z m -40.625,12.5 c 0,-1.293 1.051,-2.344 2.344,-2.344 h 10.937 c 1.293,0 2.344,1.051 2.344,2.344 0,1.293 -1.051,2.343 -2.344,2.343 H 11.719 c -1.293,0 -2.344,-1.05 -2.344,-2.343 z m 20.313,0 c 0,-1.293 1.05,-2.344 2.343,-2.344 h 10.938 c 1.293,0 2.343,1.051 2.343,2.344 0,1.293 -1.05,2.343 -2.343,2.343 H 32.031 c -1.293,0 -2.343,-1.05 -2.343,-2.343 z m 20.312,0 c 0,-1.293 1.051,-2.344 2.344,-2.344 h 10.937 c 1.293,0 2.344,1.051 2.344,2.344 0,1.293 -1.051,2.343 -2.344,2.343 H 52.344 C 51.051,32.812 50,31.762 50,30.469 Z m -40.625,12.5 c 0,-1.293 1.051,-2.344 2.344,-2.344 h 10.937 c 1.293,0 2.344,1.051 2.344,2.344 0,1.293 -1.051,2.343 -2.344,2.343 H 11.719 c -1.293,0 -2.344,-1.05 -2.344,-2.343 z m 20.313,0 c 0,-1.293 1.05,-2.344 2.343,-2.344 h 10.938 c 1.293,0 2.343,1.051 2.343,2.344 0,1.293 -1.05,2.343 -2.343,2.343 H 32.031 c -1.293,0 -2.343,-1.05 -2.343,-2.343 z m 20.312,0 c 0,-1.293 1.051,-2.344 2.344,-2.344 h 10.937 c 1.293,0 2.344,1.051 2.344,2.344 0,1.293 -1.051,2.343 -2.344,2.343 H 52.344 C 51.051,45.312 50,44.262 50,42.969 Z m -40.625,12.5 c 0,-1.293 1.051,-2.344 2.344,-2.344 h 10.937 c 1.293,0 2.344,1.051 2.344,2.344 0,1.293 -1.051,2.343 -2.344,2.343 H 11.719 c -1.293,0 -2.344,-1.05 -2.344,-2.343 z m 20.313,0 c 0,-1.293 1.05,-2.344 2.343,-2.344 h 10.938 c 1.293,0 2.343,1.051 2.343,2.344 0,1.293 -1.05,2.343 -2.343,2.343 H 32.031 c -1.293,0 -2.343,-1.05 -2.343,-2.343 z m 20.312,0 c 0,-1.293 1.051,-2.344 2.344,-2.344 h 10.937 c 1.293,0 2.344,1.051 2.344,2.344 0,1.293 -1.051,2.343 -2.344,2.343 H 52.344 C 51.051,57.812 50,56.762 50,55.469 Z" style="fill:currentColor;fill-opacity:1;fill-rule:nonzero;stroke:none" transform="scale(1.3333333)" /> </g>
</svg>

