<?xml version="1.0" encoding="UTF-8" standalone="no"?> <svg version="1.1" id="Ib28004f8258748978fe8da78aa5c0aba20251110124421" width="100" height="100" viewBox="0 0 100 100" xmlns="http://www.w3.org/2000/svg" xmlns:svg="http://www.w3.org/2000/svg"> <defs id="I50fa3a081ddf407787112f33893dab5320251110124421" /> <g id="I43b78f75fc2d4c47a2551e66f7d66f3720251110124421"> <path id="If69436d12e254211a7349eaf5206f81420251110124421" d="M 38.672,5.738 C 37.973,5.23 37.023,5.23 36.32,5.738 34.598,6.98 30.73,9.25 25.883,11.203 21.035,13.16 15.379,14.73 10.043,14.73 c -1.109,0 -2.008,0.903 -2.008,2.012 v 20.762 c 0,8.109 4.563,15.648 10.277,21.297 5.715,5.644 12.934,9.746 18.84,10.777 l 0.344,0.059 0.344,-0.059 C 43.75,68.547 50.965,64.445 56.68,58.801 62.398,53.152 66.957,45.613 66.957,37.504 V 16.742 c 0,-1.109 -0.898,-2.012 -2.008,-2.012 -5.332,0 -10.988,-1.57 -15.836,-3.527 C 44.266,9.25 40.395,6.98 38.672,5.738 Z M 12.055,37.504 V 18.688 c 5.394,-0.333 10.8,-1.93 15.332,-3.758 4.254,-1.715 7.859,-3.684 10.109,-5.137 2.254,1.453 5.856,3.422 10.113,5.137 4.532,1.828 9.938,3.425 15.332,3.758 v 18.816 c 0,6.621 -3.773,13.187 -9.086,18.437 C 48.664,61.07 42.336,64.602 37.496,65.555 32.66,64.602 26.328,61.07 21.137,55.941 15.824,50.691 12.055,44.125 12.055,37.504 Z m 40.906,-9.945 c 0.797,-0.77 0.816,-2.043 0.047,-2.84 -0.774,-0.797 -2.047,-0.817 -2.844,-0.047 l -19.402,18.781 -5.973,-5.43 c -0.82,-0.746 -2.09,-0.687 -2.84,0.133 -0.746,0.824 -0.683,2.094 0.137,2.84 l 7.367,6.695 c 0.781,0.715 1.985,0.696 2.746,-0.043 z" style="fill:currentColor;fill-opacity:1;fill-rule:nonzero;stroke:none" transform="scale(1.3333333)" /> </g>
</svg>

