<?xml version="1.0" encoding="UTF-8" standalone="no"?> <svg version="1.1" id="I1b174065af424a368624f884cbb794ec20251110130507" width="100" height="100" viewBox="0 0 100 100" xmlns="http://www.w3.org/2000/svg" xmlns:svg="http://www.w3.org/2000/svg"> <defs id="Ie16f6993828949a987509cf096557be220251110130507" /> <g id="Idf0ee3d9ad194f8f88964fc50ca88c1520251110130507"> <path id="I08a47c46a1124b6aabc45cde993fd76620251110130507" d="M 8.785,5.945 C 8.004,5.16 6.73,5.16 5.945,5.945 5.16,6.73 5.16,8.004 5.945,8.785 l 15.336,15.336 h -7.219 c -4.808,0 -8.707,3.899 -8.707,8.707 v 9.352 c 0,4.808 3.899,8.707 8.707,8.707 h 8.067 c 1.191,0 2.336,0.453 3.207,1.265 l 13.223,12.391 c 2.14,2.004 5.636,0.488 5.636,-2.441 V 47.039 l 22.016,22.016 c 0.785,0.785 2.059,0.785 2.844,0 0.785,-0.785 0.785,-2.055 0,-2.84 z M 28.453,19.93 44.195,35.672 V 12.895 c 0,-2.93 -3.5,-4.446 -5.636,-2.442 z m 25.582,25.582 3.043,3.043 c 1.613,-3.344 2.52,-7.094 2.52,-11.055 0,-5.723 -1.891,-11.008 -5.082,-15.262 -0.664,-0.886 -1.926,-1.066 -2.813,-0.398 -0.887,0.664 -1.066,1.922 -0.398,2.812 2.683,3.578 4.277,8.024 4.277,12.848 0,2.832 -0.551,5.535 -1.547,8.012 z m 7.504,7.508 2.934,2.933 c 3.281,-5.379 5.172,-11.695 5.172,-18.453 0,-8.98 -3.34,-17.184 -8.836,-23.434 -0.731,-0.832 -2,-0.914 -2.836,-0.179 -0.832,0.734 -0.914,2 -0.18,2.836 4.875,5.543 7.832,12.812 7.832,20.777 0,5.645 -1.484,10.938 -4.086,15.52 z" style="fill:currentColor;fill-opacity:1;fill-rule:nonzero;stroke:none" transform="scale(1.3333333)" /> </g>
</svg>

