<?xml version="1.0" encoding="UTF-8" standalone="no"?> <svg version="1.1" id="Iedf6817c70b9442d8d21a8d21310669020251106125937" width="100" height="100" viewBox="0 0 100 100" xmlns="http://www.w3.org/2000/svg" xmlns:svg="http://www.w3.org/2000/svg"> <defs id="I475b4117d9eb42d684a7521bbe0e0dbd20251106125937" /> <g id="Iec0800bf1eb14e42816b545cb7049f1120251106125937"> <path id="Id6f4b3d18a0647aa9c147099beae9f8420251106125937" d="m 21.43,18.082 c 0,-1.109 0.898,-2.012 2.008,-2.012 h 18.75 c 6.257,0 11.414,2.094 14.73,5.403 3.301,3.285 4.687,7.66 4.687,12.007 0,4.352 -1.386,8.723 -4.687,12.012 -3.316,3.309 -8.473,5.403 -14.73,5.403 H 20.25 l 8.625,8.621 c 0.785,0.785 0.785,2.058 0,2.843 -0.785,0.782 -2.055,0.782 -2.84,0 L 13.98,50.305 c -0.375,-0.375 -0.585,-0.887 -0.585,-1.422 0,-0.531 0.21,-1.043 0.585,-1.418 L 26.035,35.41 c 0.785,-0.785 2.055,-0.785 2.84,0 0.785,0.785 0.785,2.055 0,2.84 l -8.625,8.625 h 21.938 c 5.328,0 9.175,-1.758 11.652,-4.227 2.492,-2.488 3.75,-5.816 3.75,-9.168 0,-3.351 -1.258,-6.675 -3.75,-9.164 C 51.363,21.848 47.516,20.09 42.188,20.09 h -18.75 c -1.11,0 -2.008,-0.899 -2.008,-2.008 z" style="fill:currentColor;fill-opacity:1;fill-rule:nonzero;stroke:none" transform="scale(1.3333333)" /> </g>
</svg>

