<?xml version="1.0" encoding="UTF-8" standalone="no"?> <svg version="1.1" id="I09da3a7567d64190b6d180f1b6a7243120251106161453" width="100" height="100" viewBox="0 0 100 100" xmlns="http://www.w3.org/2000/svg" xmlns:svg="http://www.w3.org/2000/svg"> <defs id="I4700012d7fe34106a6ad5de2305d7f3220251106161453" /> <g id="I8cc078edaebb4c9e8938c4e2b388ca2520251106161453"> <path id="Id3c64ae516724d1ca9e4f7e78fee056b20251106161453" d="m 47.25,36 c 2.898,0 5.25,2.352 5.25,5.25 v 12 c 0,2.898 -2.352,5.25 -5.25,5.25 H 32.926 L 32.777,58.352 C 33.879,56.137 34.5,53.641 34.5,51 c 0,-3.531 -1.109,-6.805 -3,-9.488 V 40.5 H 30.73 C 29.348,38.828 27.645,37.434 25.711,36.41 26.34,36.145 27.027,36 27.75,36 Z M 36,49.5 V 54 H 47.25 C 47.664,54 48,53.664 48,53.25 V 49.5 Z M 48,45 V 41.25 C 48,40.836 47.664,40.5 47.25,40.5 H 36 V 45 Z m 7.5,18 H 37.426 l 1.535,1.539 c 0.836,0.832 1.328,1.879 1.484,2.961 H 55.5 c 3.312,0 6,-2.688 6,-6 V 30.984 c 0,-1.589 -0.633,-3.117 -1.758,-4.242 L 42.254,9.258 C 42.211,9.215 42.16,9.176 42.109,9.137 42.07,9.105 42.035,9.078 42,9.047 41.785,8.855 41.578,8.668 41.344,8.508 41.266,8.457 41.184,8.418 41.102,8.375 41.055,8.352 41.004,8.328 40.961,8.305 40.91,8.277 40.859,8.246 40.809,8.219 40.645,8.125 40.484,8.031 40.312,7.957 39.719,7.711 39.086,7.586 38.438,7.543 38.379,7.539 38.32,7.531 38.262,7.523 38.18,7.512 38.102,7.5 38.016,7.5 H 19.5 c -3.312,0 -6,2.688 -6,6 V 35.121 C 14.93,34.715 16.441,34.5 18,34.5 v -21 C 18,12.676 18.672,12 19.5,12 h 18 v 13.5 c 0,3.312 2.688,6 6,6 H 57 v 30 C 57,62.324 56.328,63 55.5,63 Z M 53.633,27 H 43.5 C 42.672,27 42,26.324 42,25.5 V 15.363 Z M 18,64.5 c 2.914,0 5.617,-0.926 7.82,-2.496 l 7.84,7.836 c 0.879,0.879 2.301,0.879 3.18,0 0.879,-0.879 0.879,-2.301 0,-3.18 L 29.004,58.82 C 30.574,56.617 31.5,53.914 31.5,51 31.5,43.543 25.457,37.5 18,37.5 10.543,37.5 4.5,43.543 4.5,51 4.5,58.457 10.543,64.5 18,64.5 Z M 18,60 c -4.969,0 -9,-4.031 -9,-9 0,-4.969 4.031,-9 9,-9 4.969,0 9,4.031 9,9 0,4.969 -4.031,9 -9,9 z" style="fill:currentColor;fill-opacity:1;fill-rule:nonzero;stroke:none" transform="scale(1.3333333)" /> </g>
</svg>

