<?xml version="1.0" encoding="UTF-8" standalone="no"?> <svg version="1.1" id="I24d872aa3d9a4f9faf63002efc2a0d4020251106151526" width="100" height="100" viewBox="0 0 100 100" xmlns="http://www.w3.org/2000/svg" xmlns:svg="http://www.w3.org/2000/svg"> <defs id="Ia0faa1b7b84246ac9c0f3efdf774e9ac20251106151526" /> <g id="Id79f818386b945c1a2fce6f54ce00f7920251106151526"> <path id="I8929cce580384c078e9775f5475e4bc420251106151526" d="m 9.375,19.531 c 0,-5.609 4.547,-10.156 10.156,-10.156 h 35.938 c 5.609,0 10.156,4.547 10.156,10.156 v 14.895 c -2.961,-0.297 -6.031,0.687 -8.301,2.957 l -1.613,1.609 c 0.766,-0.918 0.715,-2.285 -0.149,-3.148 L 45.406,25.688 c -0.914,-0.918 -2.398,-0.918 -3.312,0 -0.918,0.914 -0.918,2.398 0,3.312 l 8.496,8.5 -8.496,8.5 c -0.918,0.914 -0.918,2.398 0,3.312 0.863,0.864 2.23,0.915 3.148,0.149 l -6.363,6.367 c -1.477,1.477 -2.524,3.324 -3.027,5.348 l -1.114,4.449 H 19.531 C 13.922,65.625 9.375,61.078 9.375,55.469 Z M 24.41,37.5 32.906,29 c 0.918,-0.914 0.918,-2.398 0,-3.312 -0.914,-0.918 -2.398,-0.918 -3.312,0 L 19.438,35.844 c -0.918,0.914 -0.918,2.398 0,3.312 l 10.156,10.156 c 0.914,0.918 2.398,0.918 3.312,0 0.918,-0.914 0.918,-2.398 0,-3.312 z m 35.278,2.094 -18.446,18.445 c -1.074,1.074 -1.84,2.422 -2.207,3.899 l -1.43,5.718 c -0.621,2.489 1.629,4.742 4.118,4.121 l 5.722,-1.433 c 1.477,-0.367 2.825,-1.129 3.899,-2.207 L 69.789,49.695 c 2.789,-2.793 2.789,-7.312 0,-10.101 -2.789,-2.793 -7.312,-2.793 -10.101,0 z" style="fill:currentColor;fill-opacity:1;fill-rule:nonzero;stroke:none" transform="scale(1.3333333)" /> </g>
</svg>

