<?xml version="1.0" encoding="UTF-8" standalone="no"?> <svg version="1.1" id="I5f5cc6c1ebb642dc96f746aaf12b430020251106165301" width="100" height="100" viewBox="0 0 100 100" xmlns="http://www.w3.org/2000/svg" xmlns:svg="http://www.w3.org/2000/svg"> <defs id="I0fefa74c8cf44ed692c673e4f015921b20251106165301" /> <g id="I5bfc9eaf444e44a18378b6b75bb9a06f20251106165301"> <path id="Icf5cc0e1359642629b3aee9b9ce8417220251106165301" d="m 37.496,17.98 2.566,-2.57 c 6.571,-6.574 17.211,-6.574 23.782,0 6.562,6.559 6.551,17.164 0.008,23.746 L 39.156,63.832 c -0.914,0.918 -2.398,0.918 -3.312,0 L 11.172,39.16 c -6.563,-6.558 -6.563,-17.195 0,-23.754 6.558,-6.558 17.195,-6.558 23.754,0 z M 37.5,58.863 60.527,35.852 C 65.254,31.098 65.262,23.453 60.531,18.723 56,14.191 48.789,13.992 44.02,18.125 44.008,18.133 44,18.145 43.988,18.156 l -3.148,3.121 -1.633,1.645 c -0.086,0.09 -0.18,0.172 -0.273,0.246 l -3.864,3.828 8.735,8.348 c 0.457,0.437 0.718,1.039 0.726,1.668 0.008,0.633 -0.242,1.238 -0.687,1.683 l -7.813,7.813 c -0.914,0.914 -2.398,0.914 -3.312,0 -0.918,-0.914 -0.918,-2.399 0,-3.313 l 6.117,-6.117 -8.746,-8.355 c -0.457,-0.438 -0.719,-1.039 -0.723,-1.672 -0.008,-0.633 0.242,-1.242 0.692,-1.688 l 4.117,-4.078 -2.567,-2.566 c -4.726,-4.727 -12.394,-4.727 -17.125,0 -4.726,4.73 -4.726,12.398 0,17.129 z" style="fill:currentColor;fill-opacity:1;fill-rule:nonzero;stroke:none" transform="scale(1.3333333)" /> </g>
</svg>

