<?xml version="1.0" encoding="UTF-8" standalone="no"?> <svg version="1.1" id="I35ccf3b1b2654ef89eedade127bdafd520251106125937" width="100" height="100" viewBox="0 0 100 100" xmlns="http://www.w3.org/2000/svg" xmlns:svg="http://www.w3.org/2000/svg"> <defs id="I552696e2e9b44395b5a3667d57e86ea020251106125937" /> <g id="Ib44e7bd71799426f92f9bd48e8b4e59020251106125937"> <path id="Ifd8d4a9e7af946ac8155e05316cf595b20251106125937" d="m 39.508,10.043 c 0,-1.109 -0.899,-2.008 -2.008,-2.008 -1.109,0 -2.008,0.899 -2.008,2.008 V 49.391 L 22.18,36.078 c -0.785,-0.781 -2.059,-0.781 -2.84,0 -0.785,0.785 -0.785,2.059 0,2.844 L 36.078,55.66 c 0.785,0.785 2.059,0.785 2.844,0 L 55.66,38.922 c 0.785,-0.785 0.785,-2.059 0,-2.844 -0.781,-0.781 -2.055,-0.781 -2.84,0 L 39.508,49.391 Z M 15.402,62.945 c -1.109,0 -2.007,0.899 -2.007,2.008 0,1.109 0.898,2.012 2.007,2.012 h 44.196 c 1.109,0 2.007,-0.903 2.007,-2.012 0,-1.109 -0.898,-2.008 -2.007,-2.008 z" style="fill:currentColor;fill-opacity:1;fill-rule:nonzero;stroke:none" transform="scale(1.3333333)" /> </g>
</svg>

