<?xml version="1.0" encoding="UTF-8" standalone="no"?> <svg version="1.1" id="Ic405df915ad94b94a0ec67a9c4ff0ec520251110133655" width="100" height="100" viewBox="0 0 100 100" xmlns="http://www.w3.org/2000/svg" xmlns:svg="http://www.w3.org/2000/svg"> <defs id="Ibd4fc8803a09423ab44921645a5580d120251110133655" /> <g id="Id34e0c9cac614fd2a1b5f21229cd8a6f20251110133655"> <path id="I297f91c18f5240b4b0ce27cd4fb825d920251110133655" d="M 48.75,24.375 C 48.75,19.199 44.551,15 39.375,15 h -22.5 C 11.699,15 7.5,19.199 7.5,24.375 v 14.09 c 3.566,-2.945 8.141,-4.715 13.125,-4.715 11.391,0 20.625,9.234 20.625,20.625 0,1.926 -0.266,3.789 -0.758,5.559 4.653,-0.551 8.258,-4.508 8.258,-9.309 z m 3.75,5.367 v 15.563 l 10.367,8.816 c 1.824,1.551 4.633,0.254 4.633,-2.144 V 23.223 c 0,-2.383 -2.785,-3.688 -4.617,-2.157 z M 3.75,54.375 c 0,9.32 7.555,16.875 16.875,16.875 9.32,0 16.875,-7.555 16.875,-16.875 C 37.5,45.055 29.945,37.5 20.625,37.5 11.305,37.5 3.75,45.055 3.75,54.375 Z M 28.125,43.125 C 29.16,43.125 30,43.965 30,45 v 5.625 C 30,51.66 29.16,52.5 28.125,52.5 H 22.5 c -1.035,0 -1.875,-0.84 -1.875,-1.875 0,-1.035 0.84,-1.875 1.875,-1.875 h 1.754 c -0.188,-0.105 -0.379,-0.199 -0.578,-0.289 -0.918,-0.41 -1.914,-0.629 -2.918,-0.649 -1.008,-0.015 -2.008,0.168 -2.942,0.547 -0.933,0.375 -1.781,0.938 -2.496,1.649 -0.73,0.734 -1.918,0.734 -2.652,0 -0.73,-0.731 -0.73,-1.918 0,-2.649 1.07,-1.07 2.344,-1.91 3.742,-2.476 1.402,-0.567 2.902,-0.844 4.41,-0.821 1.512,0.028 3,0.36 4.383,0.973 0.359,0.16 0.707,0.34 1.047,0.535 V 45 c 0,-1.035 0.84,-1.875 1.875,-1.875 z M 24.84,63.867 c -1.402,0.567 -2.902,0.844 -4.41,0.821 -1.512,-0.028 -3,-0.36 -4.383,-0.973 C 15.688,63.555 15.34,63.375 15,63.18 v 0.57 c 0,1.035 -0.84,1.875 -1.875,1.875 -1.035,0 -1.875,-0.84 -1.875,-1.875 v -5.625 c 0,-1.035 0.84,-1.875 1.875,-1.875 h 5.625 c 1.035,0 1.875,0.84 1.875,1.875 0,1.035 -0.84,1.875 -1.875,1.875 h -1.754 c 0.188,0.105 0.379,0.199 0.578,0.289 0.918,0.41 1.914,0.629 2.918,0.649 1.008,0.015 2.008,-0.168 2.942,-0.547 0.933,-0.375 1.781,-0.938 2.496,-1.649 0.73,-0.734 1.918,-0.734 2.652,0 0.73,0.731 0.73,1.918 0,2.649 -1.07,1.07 -2.344,1.91 -3.742,2.476 z" style="fill:currentColor;fill-opacity:1;fill-rule:nonzero;stroke:none" transform="scale(1.3333333)" /> </g>
</svg>

