<?xml version="1.0" encoding="UTF-8" standalone="no"?> <svg version="1.1" id="I57513870daba4bfc95a941fae198cd5520251106164749" width="100" height="100" viewBox="0 0 100 100" xmlns="http://www.w3.org/2000/svg" xmlns:svg="http://www.w3.org/2000/svg"> <defs id="Iccc19f13516549258fa7e05cd80a88e320251106164749" /> <g id="Ie9ae4a913d1b41d49d88c8760b4c59c520251106164749"> <path id="Ib1b885d8ebf7450d9ff53cf49c2a3e9320251106164749" d="m 37.5,59.375 c 0,5.176 4.199,9.375 9.375,9.375 h 12.5 c 5.176,0 9.375,-4.199 9.375,-9.375 v -18.75 c 0,-5.176 -4.199,-9.375 -9.375,-9.375 h -12.5 c -5.176,0 -9.375,4.199 -9.375,9.375 z m -31.25,-25 c 0,5.176 4.199,9.375 9.375,9.375 h 6.25 c 5.176,0 9.375,-4.199 9.375,-9.375 v -18.75 c 0,-5.176 -4.199,-9.375 -9.375,-9.375 h -6.25 c -5.176,0 -9.375,4.199 -9.375,9.375 z M 46.875,25 C 41.699,25 37.5,20.801 37.5,15.625 37.5,10.449 41.699,6.25 46.875,6.25 h 12.5 c 5.176,0 9.375,4.199 9.375,9.375 0,5.176 -4.199,9.375 -9.375,9.375 z M 6.25,59.375 c 0,5.176 4.199,9.375 9.375,9.375 h 6.25 c 5.176,0 9.375,-4.199 9.375,-9.375 C 31.25,54.199 27.051,50 21.875,50 h -6.25 C 10.449,50 6.25,54.199 6.25,59.375 Z" style="fill:currentColor;fill-opacity:1;fill-rule:nonzero;stroke:none" transform="scale(1.3333333)" /> </g>
</svg>

