<?xml version="1.0" encoding="UTF-8" standalone="no"?> <svg version="1.1" id="I385b2a69081c4fa6be4c3c2442d08ca620251106152729" width="100" height="100" viewBox="0 0 100 100" xmlns="http://www.w3.org/2000/svg" xmlns:svg="http://www.w3.org/2000/svg"> <defs id="Idaaf97f2a4354b308bac44a904bbf03e20251106152729" /> <g id="Ia609cb79469f49299e1f4d601f01d49d20251106152729"> <path id="I091701a4fc72407da6efe0b01fe74eeb20251106152729" d="m 15.414,13.395 c -5.551,0 -10.047,4.496 -10.047,10.043 v 2.007 h 64.278 v -2.007 c 0,-5.547 -4.497,-10.043 -10.047,-10.043 z M 5.367,51.562 V 29.465 H 69.645 V 41.254 C 65.977,37.297 60.73,34.82 54.91,34.82 c -11.094,0 -20.09,8.996 -20.09,20.09 0,2.348 0.403,4.602 1.145,6.695 H 15.414 C 9.863,61.605 5.367,57.109 5.367,51.562 Z M 72.32,54.91 c 0,9.617 -7.793,17.41 -17.41,17.41 -9.617,0 -17.41,-7.793 -17.41,-17.41 0,-9.617 7.793,-17.41 17.41,-17.41 9.617,0 17.41,7.793 17.41,17.41 z M 54.91,44.195 c -0.738,0 -1.34,0.602 -1.34,1.34 v 9.375 c 0,0.738 0.602,1.34 1.34,1.34 h 8.035 c 0.743,0 1.34,-0.602 1.34,-1.34 0,-0.738 -0.597,-1.34 -1.34,-1.34 H 56.25 v -8.035 c 0,-0.738 -0.602,-1.34 -1.34,-1.34 z" style="fill:currentColor;fill-opacity:1;fill-rule:nonzero;stroke:none" transform="scale(1.3333333)" /> </g>
</svg>

