<?xml version="1.0" encoding="UTF-8" standalone="no"?> <svg version="1.1" id="Icaef514c37ca4431a1d4303a6f00cc3220251106132945" width="100" height="100" viewBox="0 0 100 100" xmlns="http://www.w3.org/2000/svg" xmlns:svg="http://www.w3.org/2000/svg"> <defs id="I328f0fdfedb84b87bc03de6f3bcf68fc20251106132945" /> <g id="I73ad0be6706949089c2d91eed5f75c1620251106132945"> <path id="I51b6bb4087f4454cba4fd1dac037793820251106132945" d="m 25.762,35 c 0.722,0.414 1.324,1.016 1.738,1.738 l 12.527,21.871 c 1.289,2.246 0.512,5.11 -1.734,6.395 -0.711,0.406 -1.516,0.621 -2.332,0.621 H 10.902 c -2.59,0 -4.687,-2.098 -4.687,-4.687 0,-0.817 0.215,-1.622 0.621,-2.329 L 19.363,36.738 C 20.652,34.492 23.516,33.715 25.762,35 Z m -2.324,21.25 c -0.864,0 -1.563,0.699 -1.563,1.562 0,0.864 0.699,1.563 1.563,1.563 0.863,0 1.562,-0.699 1.562,-1.563 0,-0.863 -0.699,-1.562 -1.562,-1.562 z m 29.687,-37.5 c 5.18,0 9.375,4.199 9.375,9.375 v 3.125 h 3.125 c 0.57,0 1.105,0.152 1.563,0.418 0.933,0.539 1.562,1.551 1.562,2.707 v 6.25 c 0,1.156 -0.629,2.168 -1.562,2.707 -0.458,0.266 -0.993,0.418 -1.563,0.418 H 62.5 v 3.125 c 0,5.18 -4.195,9.375 -9.375,9.375 H 42.277 L 30.211,35.184 C 29.52,33.98 28.52,32.98 27.316,32.289 23.57,30.145 18.797,31.441 16.652,35.184 L 7.387,51.359 C 6.66,50.027 6.25,48.5 6.25,46.875 v -18.75 c 0,-5.176 4.195,-9.375 9.375,-9.375 z M 23.434,40.625 c -0.864,0 -1.563,0.699 -1.563,1.563 v 9.374 l 0.024,0.282 c 0.132,0.726 0.769,1.281 1.539,1.281 0.863,0 1.562,-0.699 1.562,-1.563 v -9.374 l -0.027,-0.282 c -0.133,-0.726 -0.77,-1.281 -1.535,-1.281 z" style="fill:currentColor;fill-opacity:1;fill-rule:nonzero;stroke:none" transform="scale(1.3333333)" /> </g>
</svg>

