<?xml version="1.0" encoding="UTF-8" standalone="no"?> <svg version="1.1" id="I981927ca38e54deb864a8390fd64774220251106103256" width="100" height="100" viewBox="0 0 100 100" xmlns="http://www.w3.org/2000/svg" xmlns:svg="http://www.w3.org/2000/svg"> <defs id="I9b729aa4a71f4823a76a82c81e08be5520251106103256" /> <g id="Id79cebf2385646a9bdb003c36706254b20251106103256"> <path id="I4c9a98a189e5415c9b0b0c005ff0d35820251106103256" d="m 34.988,7.367 h 5.024 c 0.445,0 0.668,0.223 0.668,0.668 v 58.93 c 0,0.445 -0.223,0.668 -0.668,0.668 h -5.024 c -0.445,0 -0.668,-0.223 -0.668,-0.668 V 8.035 c 0,-0.445 0.223,-0.668 0.668,-0.668 z" style="fill:currentColor;fill-opacity:1;fill-rule:nonzero;stroke:none" transform="scale(1.3333333)" /> <path id="I20deed0fcfe54791b16bbb327ace6e1320251106103256" d="m 10.715,34.32 h 56.25 c 0.445,0 0.668,0.223 0.668,0.668 v 5.024 c 0,0.445 -0.223,0.668 -0.668,0.668 H 8.035 c -0.445,0 -0.668,-0.223 -0.668,-0.668 v -5.024 c 0,-0.445 0.223,-0.668 0.668,-0.668 z" style="fill:currentColor;fill-opacity:1;fill-rule:nonzero;stroke:none" transform="scale(1.3333333)" /> </g>
</svg>

