<?xml version="1.0" encoding="UTF-8" standalone="no"?> <svg version="1.1" id="I64b05f50fb54427cbe7a9ca4f230476520251106152728" width="100" height="100" viewBox="0 0 100 100" xmlns="http://www.w3.org/2000/svg" xmlns:svg="http://www.w3.org/2000/svg"> <defs id="Ibe92a6181eca493f8ac6b57542f7948120251106152728" /> <g id="I4ec6253a4c634bd2915f4d29bba4fd1e20251106152728"> <path id="I646b44fe142f449482e097f05fe253c020251106152728" d="m 51.543,35.625 c -0.086,1.281 -0.52,2.52 -1.262,3.57 1.09,0.938 1.867,2.184 2.227,3.575 0.359,1.39 0.285,2.855 -0.211,4.203 -0.5,1.347 -1.399,2.507 -2.578,3.328 -1.18,0.82 -2.578,1.261 -4.016,1.261 h -5.859 c -0.621,0 -1.219,-0.246 -1.656,-0.687 C 37.746,50.438 37.5,49.84 37.5,49.219 v -18.75 c 0,-0.621 0.246,-1.219 0.688,-1.657 0.437,-0.441 1.035,-0.687 1.656,-0.687 h 4.687 c 1.285,0 2.551,0.355 3.649,1.023 1.101,0.668 1.996,1.625 2.59,2.766 0.593,1.145 0.859,2.426 0.773,3.711 z M 44.531,32.812 H 42.188 V 37.5 h 2.343 c 0.621,0 1.219,-0.246 1.657,-0.688 0.441,-0.437 0.687,-1.035 0.687,-1.656 0,-0.621 -0.246,-1.218 -0.687,-1.656 -0.438,-0.441 -1.036,-0.688 -1.657,-0.688 z m -2.343,14.063 h 3.515 c 0.621,0 1.219,-0.246 1.656,-0.687 0.442,-0.438 0.688,-1.036 0.688,-1.657 0,-0.621 -0.246,-1.219 -0.688,-1.656 -0.437,-0.441 -1.035,-0.687 -1.656,-0.687 H 42.188 Z M 30.57,40.258 c 1.114,1.84 1.907,3.855 2.344,5.961 0.031,0.125 0.063,0.242 0.09,0.359 0.086,0.36 0.164,0.68 0.254,0.938 0.34,0.324 0.574,0.742 0.676,1.199 0.101,0.457 0.062,0.933 -0.11,1.371 -0.172,0.434 -0.472,0.809 -0.859,1.07 -0.387,0.266 -0.848,0.406 -1.317,0.406 -2.226,0 -2.761,-2.148 -3.277,-4.21 L 28.367,47.344 28.355,47.293 C 27.93,45.609 27.062,42.188 25.781,42.188 h -2.343 v 7.031 c 0,0.621 -0.247,1.219 -0.688,1.656 -0.438,0.441 -1.035,0.687 -1.656,0.687 -0.621,0 -1.219,-0.246 -1.656,-0.687 C 18.996,50.438 18.75,49.84 18.75,49.219 v -18.75 c 0,-0.621 0.246,-1.219 0.688,-1.657 0.437,-0.441 1.035,-0.687 1.656,-0.687 h 4.687 c 1.403,0.012 2.77,0.437 3.926,1.23 1.156,0.793 2.051,1.915 2.566,3.219 0.512,1.305 0.625,2.731 0.325,4.102 -0.305,1.367 -1.008,2.617 -2.028,3.582 z M 25.781,32.812 H 23.438 V 37.5 h 2.343 c 0.621,0 1.219,-0.246 1.657,-0.688 0.441,-0.437 0.687,-1.035 0.687,-1.656 0,-0.621 -0.246,-1.218 -0.687,-1.656 C 27,33.059 26.402,32.812 25.781,32.812 Z m -12.89,-18.75 c -4.532,0 -8.203,3.672 -8.203,8.204 v 35.156 c 0,4.531 3.671,8.203 8.203,8.203 h 44.531 c 4.531,0 8.203,-3.672 8.203,-8.203 V 22.266 c 0,-4.532 -3.672,-8.204 -8.203,-8.204 z m -3.516,8.204 c 0,-1.942 1.574,-3.516 3.516,-3.516 h 44.531 c 1.941,0 3.516,1.574 3.516,3.516 v 35.156 c 0,1.941 -1.575,3.516 -3.516,3.516 H 12.891 c -1.942,0 -3.516,-1.575 -3.516,-3.516 z" style="fill:currentColor;fill-opacity:1;fill-rule:nonzero;stroke:none" transform="scale(1.3333333)" /> </g>
</svg>

