<?xml version="1.0" encoding="UTF-8" standalone="no"?> <svg version="1.1" id="I851158ada9414c4cb536b59cbd9a643f20251106142135" width="100" height="100" viewBox="0 0 100 100" xmlns="http://www.w3.org/2000/svg" xmlns:svg="http://www.w3.org/2000/svg"> <defs id="Ia617281b7c0b46799464768165f7701720251106142135" /> <g id="I084d9b655b3b49d080bd8b39e8c7b48620251106142135"> <path id="I846a4170c7f04a32a5f38b30fe7006e320251106142135" d="m 11.25,18.75 c 0,-4.141 3.359,-7.5 7.5,-7.5 4.141,0 7.5,3.359 7.5,7.5 0,4.141 -3.359,7.5 -7.5,7.5 -4.141,0 -7.5,-3.359 -7.5,-7.5 z m 9.375,11.094 C 25.945,28.953 30,24.324 30,18.75 30,12.535 24.965,7.5 18.75,7.5 12.535,7.5 7.5,12.535 7.5,18.75 c 0,5.574 4.055,10.203 9.375,11.094 V 45.156 C 11.555,46.047 7.5,50.676 7.5,56.25 7.5,62.465 12.535,67.5 18.75,67.5 24.965,67.5 30,62.465 30,56.25 30,50.676 25.945,46.047 20.625,45.156 Z M 18.75,48.75 c 4.141,0 7.5,3.359 7.5,7.5 0,4.141 -3.359,7.5 -7.5,7.5 -4.141,0 -7.5,-3.359 -7.5,-7.5 0,-4.141 3.359,-7.5 7.5,-7.5 z m 37.5,0 c -4.141,0 -7.5,3.359 -7.5,7.5 0,4.141 3.359,7.5 7.5,7.5 4.141,0 7.5,-3.359 7.5,-7.5 0,-4.141 -3.359,-7.5 -7.5,-7.5 z M 45,56.25 c 0,-5.574 4.055,-10.203 9.375,-11.094 V 31.875 c 0,-1.035 0.84,-1.875 1.875,-1.875 1.035,0 1.875,0.84 1.875,1.875 v 13.281 c 5.32,0.891 9.375,5.52 9.375,11.094 0,6.215 -5.035,11.25 -11.25,11.25 C 50.035,67.5 45,62.465 45,56.25 Z M 50.074,9.926 c -0.73,-0.735 -1.918,-0.735 -2.648,0 -0.735,0.73 -0.735,1.918 0,2.648 l 6.172,6.176 -6.172,6.176 c -0.735,0.73 -0.735,1.918 0,2.648 0.73,0.735 1.918,0.735 2.648,0 l 6.176,-6.172 6.176,6.172 c 0.73,0.735 1.918,0.735 2.648,0 0.735,-0.73 0.735,-1.918 0,-2.648 l -6.172,-6.176 6.172,-6.176 c 0.735,-0.73 0.735,-1.918 0,-2.648 -0.73,-0.735 -1.918,-0.735 -2.648,0 l -6.176,6.172 z" style="fill:currentColor;fill-opacity:1;fill-rule:nonzero;stroke:none" transform="scale(1.3333333)" /> </g>
</svg>

