<?xml version="1.0" encoding="UTF-8" standalone="no"?> <svg version="1.1" id="I3022257e6bfe4ab4a89a0b6d2e9fbb8a20251106132945" width="100" height="100" viewBox="0 0 100 100" xmlns="http://www.w3.org/2000/svg" xmlns:svg="http://www.w3.org/2000/svg"> <defs id="I79231c2d78984c7c86ab87d59d0a4bc820251106132945" /> <g id="I58161f13db8745b6a6e488d12f30585420251106132945"> <path id="I39b0ce5dd51c4261a960cbfe17f029d920251106132945" d="m 11.328,19.531 c -1.078,0 -1.953,-0.875 -1.953,-1.953 0,-1.078 0.875,-1.953 1.953,-1.953 h 28.906 c 6.258,0 11.328,5.07 11.328,11.328 V 55.34 l 10.711,-11 c 0.75,-0.774 1.989,-0.789 2.762,-0.035 0.774,0.75 0.789,1.988 0.035,2.761 L 50.617,61.91 c -0.367,0.375 -0.871,0.59 -1.398,0.59 -0.528,0 -1.031,-0.215 -1.399,-0.59 L 33.367,47.066 c -0.754,-0.773 -0.738,-2.011 0.035,-2.761 0.774,-0.754 2.012,-0.739 2.762,0.035 L 47.656,56.141 V 26.953 c 0,-4.098 -3.324,-7.422 -7.422,-7.422 z" style="fill:currentColor;fill-opacity:1;fill-rule:nonzero;stroke:none" transform="scale(1.3333333)" /> </g>
</svg>

