<?xml version="1.0" encoding="UTF-8" standalone="no"?> <svg version="1.1" id="I9cb0bd179f864ac9b928188f98490a4520251110130508" width="100" height="100" viewBox="0 0 100 100" xmlns="http://www.w3.org/2000/svg" xmlns:svg="http://www.w3.org/2000/svg"> <defs id="I3573c8279be545fd8f164f869f5e6af220251110130508" /> <g id="Ib435545e8f8d4e2aa00a152e61e6740e20251110130508"> <path id="I598ebb6fb1a6490da5f8349afe15ed7320251110130508" d="m 26.25,33.75 c 0,-12.426 10.074,-22.5 22.5,-22.5 h 1.875 C 51.66,11.25 52.5,10.41 52.5,9.375 52.5,8.34 51.66,7.5 50.625,7.5 H 48.75 C 34.254,7.5 22.5,19.254 22.5,33.75 v 3.75 c 0,2.07 -1.68,3.75 -3.75,3.75 h -3.375 l 3.738,3.742 C 23.086,44.801 26.25,41.52 26.25,37.5 Z M 1.875,52.5 C 0.84,52.5 0,53.34 0,54.375 0,55.41 0.84,56.25 1.875,56.25 h 13.813 l -8.047,8.051 c -0.735,0.73 -0.735,1.918 0,2.648 0.73,0.735 1.918,0.735 2.648,0 L 21.5,55.742 c 0.363,-0.34 0.59,-0.828 0.59,-1.367 0,-0.539 -0.227,-1.027 -0.59,-1.367 L 10.289,41.801 c -0.73,-0.735 -1.918,-0.735 -2.648,0 -0.735,0.73 -0.735,1.918 0,2.648 L 15.688,52.5 Z M 37.5,39.375 c 0,7.555 -4.961,13.949 -11.805,16.102 0.2,-1.282 0.047,-2.633 -0.461,-3.809 C 30.211,49.801 33.75,45 33.75,39.375 v -3.75 c 0,-9.32 7.555,-16.875 16.875,-16.875 h 15 c 1.035,0 1.875,0.84 1.875,1.875 0,1.035 -0.84,1.875 -1.875,1.875 h -15 C 43.375,22.5 37.5,28.375 37.5,35.625 Z m 15,-5.625 c -2.07,0 -3.75,1.68 -3.75,3.75 v 3.75 C 48.75,55.746 36.996,67.5 22.5,67.5 h -1.875 c -1.035,0 -1.875,-0.84 -1.875,-1.875 0,-1.035 0.84,-1.875 1.875,-1.875 H 22.5 C 34.926,63.75 45,53.676 45,41.25 V 37.5 C 45,33.359 48.359,30 52.5,30 h 13.125 c 1.035,0 1.875,0.84 1.875,1.875 0,1.035 -0.84,1.875 -1.875,1.875 z" style="fill:currentColor;fill-opacity:1;fill-rule:nonzero;stroke:none" transform="scale(1.3333333)" /> </g>
</svg>

