<?xml version="1.0" encoding="UTF-8" standalone="no"?> <svg version="1.1" id="I750157ef08114a86a637fc4d2a23e05920251106143239" width="100" height="100" viewBox="0 0 100 100" xmlns="http://www.w3.org/2000/svg" xmlns:svg="http://www.w3.org/2000/svg"> <defs id="I9e6af1d6d82a4165a6e76c64b637dc3820251106143239" /> <g id="Iaca267a33b6448feb4a6bf800623398d20251106143239"> <path id="I5606ae73227e48348312d1d81f04b7a120251106143239" d="m 23.438,8.594 c 0,-1.293 -1.051,-2.344 -2.344,-2.344 -1.293,0 -2.344,1.051 -2.344,2.344 v 9.375 c 0,2.801 2.105,5.109 4.82,5.429 l -3.172,7.829 c -1.273,3.144 -1.136,6.82 0.368,9.82 l 12.468,24.848 c 0.887,1.769 2.512,2.855 4.266,2.855 1.754,0 3.379,-1.086 4.266,-2.855 L 54.234,41.047 c 1.504,-3 1.641,-6.676 0.368,-9.82 L 51.43,23.398 c 2.715,-0.32 4.82,-2.628 4.82,-5.429 V 8.594 c 0,-1.293 -1.051,-2.344 -2.344,-2.344 -1.293,0 -2.344,1.051 -2.344,2.344 v 9.375 c 0,0.429 -0.351,0.781 -0.781,0.781 H 24.219 c -0.43,0 -0.781,-0.352 -0.781,-0.781 z m 22.949,14.844 3.871,9.55 c 0.773,1.91 0.68,4.176 -0.215,5.957 L 39.844,59.273 V 38.434 c 1.402,-0.809 2.344,-2.325 2.344,-4.059 0,-2.59 -2.098,-4.687 -4.688,-4.687 -2.59,0 -4.688,2.097 -4.688,4.687 0,1.734 0.942,3.25 2.344,4.059 V 59.273 L 24.957,38.945 c -0.895,-1.781 -0.988,-4.047 -0.215,-5.957 l 3.871,-9.55 z" style="fill:currentColor;fill-opacity:1;fill-rule:nonzero;stroke:none" transform="scale(1.3333333)" /> </g>
</svg>

