<?xml version="1.0" encoding="UTF-8" standalone="no"?> <svg version="1.1" id="I0c05424815c140a482fb4897333b1c4120251110130508" width="100" height="100" viewBox="0 0 100 100" xmlns="http://www.w3.org/2000/svg" xmlns:svg="http://www.w3.org/2000/svg"> <defs id="I4160796a51c84e39b2efa9464986363120251110130508" /> <g id="I84f266da93ba4e388e7b044acae48bd320251110130508"> <path id="If281e0769ba04c2abf60c0b055a9a35b20251110130508" d="m 33.594,9.375 c -3.883,0 -7.032,3.148 -7.032,7.031 V 26.562 H 16.406 c -3.883,0 -7.031,3.149 -7.031,7.032 v 7.812 c 0,3.883 3.148,7.032 7.031,7.032 h 10.156 v 10.156 c 0,3.883 3.149,7.031 7.032,7.031 h 3.972 c -0.925,-1.449 -1.671,-3.02 -2.211,-4.687 h -1.761 c -1.293,0 -2.344,-1.051 -2.344,-2.344 V 48.438 h 4.105 c 0.54,-1.668 1.286,-3.239 2.211,-4.688 H 31.25 v -12.5 h 12.5 v 6.316 c 1.449,-0.925 3.02,-1.671 4.688,-2.211 V 31.25 h 10.156 c 1.293,0 2.344,1.051 2.344,2.344 v 1.761 c 1.667,0.54 3.238,1.286 4.687,2.211 v -3.972 c 0,-3.883 -3.148,-7.032 -7.031,-7.032 H 48.438 V 16.406 c 0,-3.883 -3.149,-7.031 -7.032,-7.031 z M 43.75,26.562 H 31.25 V 16.406 c 0,-1.293 1.051,-2.344 2.344,-2.344 h 7.812 c 1.293,0 2.344,1.051 2.344,2.344 z M 26.562,31.25 v 12.5 H 16.406 c -1.293,0 -2.344,-1.051 -2.344,-2.344 v -7.812 c 0,-1.293 1.051,-2.344 2.344,-2.344 z M 71.875,54.688 C 71.875,45.195 64.18,37.5 54.688,37.5 45.195,37.5 37.5,45.195 37.5,54.688 c 0,9.492 7.695,17.187 17.188,17.187 9.492,0 17.187,-7.695 17.187,-17.187 z m -15.625,1.562 0.004,7.824 c 0,0.864 -0.699,1.563 -1.563,1.563 -0.863,0 -1.562,-0.699 -1.562,-1.563 L 53.125,56.25 h -7.828 c -0.859,0 -1.559,-0.699 -1.559,-1.562 0,-0.864 0.7,-1.563 1.559,-1.563 h 7.828 v -7.816 c 0,-0.864 0.699,-1.563 1.563,-1.563 0.863,0 1.562,0.699 1.562,1.563 v 7.816 h 7.801 c 0.863,0 1.562,0.699 1.562,1.563 0,0.863 -0.699,1.562 -1.562,1.562 z" style="fill:currentColor;fill-opacity:1;fill-rule:nonzero;stroke:none" transform="scale(1.3333333)" /> </g>
</svg>

