<?xml version="1.0" encoding="UTF-8" standalone="no"?> <svg version="1.1" id="I7ee2b0f42e014642a8051207b4dd6aa420251106102216" width="100" height="100" viewBox="0 0 100 100" xmlns="http://www.w3.org/2000/svg" xmlns:svg="http://www.w3.org/2000/svg"> <defs id="I24012c240d62420793d982039473b93f20251106102216" /> <g id="Ic75e29def44240988657dcdf2dedebc820251106102216"> <path id="I4b2b616c91f849088c4ae9b5197b08c620251106102216" d="m 72.32,27.457 c 0.739,0 1.34,-0.605 1.34,-1.34 V 10.715 c 0,-0.738 -0.601,-1.34 -1.34,-1.34 H 56.918 c -0.734,0 -1.336,0.602 -1.336,1.34 v 4.687 H 19.418 v -4.687 c 0,-0.738 -0.602,-1.34 -1.336,-1.34 H 2.68 c -0.739,0 -1.34,0.602 -1.34,1.34 v 15.402 c 0,0.735 0.601,1.34 1.34,1.34 H 7.367 V 47.543 H 2.68 c -0.739,0 -1.34,0.605 -1.34,1.34 v 15.402 c 0,0.738 0.601,1.34 1.34,1.34 h 15.402 c 0.734,0 1.336,-0.602 1.336,-1.34 v -4.687 h 36.164 v 4.687 c 0,0.738 0.602,1.34 1.336,1.34 H 72.32 c 0.739,0 1.34,-0.602 1.34,-1.34 V 48.883 c 0,-0.735 -0.601,-1.34 -1.34,-1.34 H 67.633 V 27.457 Z M 60.938,14.73 h 7.367 v 7.368 H 60.938 Z M 6.695,22.098 V 14.73 h 7.367 v 7.368 z M 14.062,60.27 H 6.695 v -7.368 h 7.367 z m 54.243,-7.368 v 7.368 h -7.367 v -7.368 z m -6.7,-5.359 h -4.687 c -0.734,0 -1.336,0.605 -1.336,1.34 V 53.57 H 19.418 v -4.687 c 0,-0.735 -0.602,-1.34 -1.336,-1.34 H 13.395 V 27.457 h 4.687 c 0.734,0 1.336,-0.605 1.336,-1.34 V 21.43 h 36.164 v 4.687 c 0,0.735 0.602,1.34 1.336,1.34 h 4.687 z" style="fill:currentColor;fill-opacity:1;fill-rule:nonzero;stroke:none" transform="scale(1.3333333)" /> </g>
</svg>

