<?xml version="1.0" encoding="UTF-8" standalone="no"?> <svg version="1.1" id="I55c7def52c5249a1b70bf32b0f17304320251106142135" width="100" height="100" viewBox="0 0 100 100" xmlns="http://www.w3.org/2000/svg" xmlns:svg="http://www.w3.org/2000/svg"> <defs id="I1b42ed9586314361a4178b78bb4f520720251106142135" /> <g id="I53a80e67b0834e25b7754561f7f9131420251106142135"> <path id="I7fc9a569999748958af38a290748afdd20251106142135" d="m 37.496,6.25 c -7.32,0 -13.57,4.578 -16.047,11.027 -1.371,-0.394 -2.699,-0.695 -3.941,-0.922 -2.52,-0.46 -4.754,-0.636 -6.36,-0.699 C 10.344,15.625 9.691,15.621 9.234,15.629 9.008,15.633 8.828,15.637 8.699,15.641 L 8.551,15.648 C 7.348,15.707 6.34,16.641 6.273,17.863 L 6.27,17.926 6.266,18.078 c -0.004,0.125 -0.012,0.305 -0.012,0.535 -0.008,0.457 -0.004,1.11 0.027,1.91 0.059,1.61 0.235,3.84 0.696,6.36 0.421,2.297 1.089,4.89 2.156,7.492 H 8.594 c -1.293,0 -2.344,1.051 -2.344,2.344 V 37.5 c 0,17.258 13.992,31.25 31.25,31.25 17.258,0 31.25,-13.992 31.25,-31.25 v -0.781 c 0,-1.293 -1.051,-2.344 -2.344,-2.344 h -0.789 c 0,-0.129 0.004,-0.262 0.004,-0.391 0,-7.109 -4.871,-13.082 -11.457,-14.761 C 52.285,11.77 45.535,6.25 37.496,6.25 Z M 25.855,18.875 c 1.825,-4.648 6.348,-7.937 11.641,-7.937 5.27,0 9.774,3.257 11.613,7.863 -5.589,0.465 -10.324,3.949 -12.566,8.816 -0.828,-1.219 -1.777,-2.394 -2.867,-3.484 -2.34,-2.34 -5.063,-4.031 -7.821,-5.258 z m 35.079,15.109 c 0,0.129 -0.004,0.262 -0.008,0.391 H 39.898 L 39.84,34.219 c 0,-0.078 0,-0.157 0,-0.235 0,-5.824 4.722,-10.546 10.547,-10.546 5.824,0 10.547,4.722 10.547,10.546 z M 30.359,27.449 c 2.008,2.008 3.465,4.422 4.516,6.926 h -6.563 l -5.566,-5.563 c -0.914,-0.917 -2.398,-0.917 -3.316,0 -0.914,0.915 -0.914,2.399 0.004,3.313 l 2.25,2.25 H 14.277 C 12.906,31.637 12.078,28.711 11.59,26.039 11.176,23.785 11.02,21.781 10.965,20.348 V 20.34 h 0.004 c 1.437,0.055 3.441,0.215 5.695,0.625 4.559,0.836 9.871,2.656 13.695,6.484 z M 14.961,51.562 h 45.078 c -4.695,7.508 -13.031,12.5 -22.539,12.5 -9.504,0 -17.844,-4.992 -22.539,-12.5 z m -3.977,-12.5 h 53.032 c -0.157,2.735 -0.731,5.36 -1.657,7.813 H 12.641 c -0.926,-2.453 -1.5,-5.078 -1.657,-7.813 z M 8.492,15.648 h 0.059 z" style="fill:currentColor;fill-opacity:1;fill-rule:nonzero;stroke:none" transform="scale(1.3333333)" /> </g>
</svg>

