<?xml version="1.0" encoding="UTF-8" standalone="no"?> <svg version="1.1" id="I67e8eb767e6d466cae89c96cefbafba620251106170956" width="100" height="100" viewBox="0 0 100 100" xmlns="http://www.w3.org/2000/svg" xmlns:svg="http://www.w3.org/2000/svg"> <defs id="I26082e9f0d2749309ad200157af1b35020251106170956" /> <g id="I88b395d48c6e4cfb8023493349dca71d20251106170956"> <path id="I0ef7e3c16e15475db0c7b3b741f4782f20251106170956" d="m 51.562,9.375 c -2.218,0 -4.019,1.801 -4.019,4.02 0,2.218 1.801,4.015 4.019,4.015 2.219,0 4.02,-1.797 4.02,-4.015 0,-2.219 -1.801,-4.02 -4.02,-4.02 z m 8.036,4.02 c 0,3.742 -2.559,6.89 -6.028,7.781 v 7.617 c 0,4.07 3.301,7.367 7.368,7.367 4.066,0 7.367,-3.297 7.367,-7.367 v -0.668 h -4.688 c -0.812,0 -1.547,-0.488 -1.855,-1.238 -0.313,-0.754 -0.141,-1.617 0.433,-2.192 L 68.891,18 c 0.574,-0.574 1.441,-0.746 2.191,-0.438 0.75,0.313 1.238,1.043 1.238,1.856 v 9.375 c 0,6.289 -5.093,11.387 -11.382,11.387 -6.29,0 -11.383,-5.098 -11.383,-11.387 v -7.617 c -3.469,-0.891 -6.028,-4.039 -6.028,-7.781 0,-4.442 3.598,-8.04 8.035,-8.04 4.438,0 8.036,3.598 8.036,8.04 z m -18.41,-2.68 c -0.223,0.855 -0.34,1.754 -0.34,2.68 0,4.234 2.461,7.898 6.027,9.636 v 5.762 c 0,1.187 0.148,2.34 0.422,3.441 L 37.5,37.254 5.367,20.797 v -0.039 c 0,-5.547 4.496,-10.043 10.047,-10.043 z m 7.648,25.246 -10.422,5.336 c -0.574,0.293 -1.254,0.293 -1.832,0 L 5.367,25.309 v 26.253 c 0,5.547 4.496,10.043 10.047,10.043 h 44.184 c 5.55,0 10.047,-4.496 10.047,-10.043 V 39.84 c -2.395,1.89 -5.418,3.015 -8.707,3.015 -5.149,0 -9.653,-2.765 -12.102,-6.894 z" style="fill:currentColor;fill-opacity:1;fill-rule:nonzero;stroke:none" transform="scale(1.3333333)" /> </g>
</svg>

