<?xml version="1.0" encoding="UTF-8" standalone="no"?> <svg version="1.1" id="I0f2baa240a6540b39b9bf93ca324f83e20251110124422" width="100" height="100" viewBox="0 0 100 100" xmlns="http://www.w3.org/2000/svg" xmlns:svg="http://www.w3.org/2000/svg"> <defs id="I2115228f115d420c8561ba7f4d6feb0420251110124422" /> <g id="I6c7c02ec62154b47be730f9ff121ae5920251110124422"> <path id="I5ce482bf7c364da899324a22575be3e920251110124422" d="m 11.25,20.625 c 0,-5.176 4.199,-9.375 9.375,-9.375 h 33.75 c 5.176,0 9.375,4.199 9.375,9.375 v 33.75 c 0,5.176 -4.199,9.375 -9.375,9.375 H 44.68 c -0.27,-0.77 -0.715,-1.488 -1.328,-2.102 l -7.497,-7.5 C 36.91,51.945 37.5,49.477 37.5,46.875 37.5,37.555 29.945,30 20.625,30 17.156,30 13.93,31.047 11.25,32.84 Z m 37.5,3.75 v 26.25 c 0,1.035 0.84,1.875 1.875,1.875 1.035,0 1.875,-0.84 1.875,-1.875 v -26.25 c 0,-1.035 -0.84,-1.875 -1.875,-1.875 -1.035,0 -1.875,0.84 -1.875,1.875 z m -15,22.5 c 0,2.949 -0.973,5.668 -2.613,7.859 l 9.562,9.563 c 0.735,0.734 0.735,1.922 0,2.652 -0.73,0.735 -1.918,0.735 -2.648,0 L 28.484,57.387 C 26.293,59.027 23.574,60 20.625,60 13.375,60 7.5,54.125 7.5,46.875 c 0,-7.25 5.875,-13.125 13.125,-13.125 7.25,0 13.125,5.875 13.125,13.125 z m -3.75,0 c 0,-5.18 -4.199,-9.375 -9.375,-9.375 -5.176,0 -9.375,4.195 -9.375,9.375 0,5.176 4.199,9.375 9.375,9.375 5.176,0 9.375,-4.199 9.375,-9.375 z" style="fill:currentColor;fill-opacity:1;fill-rule:nonzero;stroke:none" transform="scale(1.3333333)" /> </g>
</svg>

