<?xml version="1.0" encoding="UTF-8" standalone="no"?> <svg version="1.1" id="I4f9c90fe676f4d06aedb90f29a19c07220251106152728" width="100" height="100" viewBox="0 0 100 100" xmlns="http://www.w3.org/2000/svg" xmlns:svg="http://www.w3.org/2000/svg"> <defs id="I27dc35b5f8d04ae78efc1bd5710410e420251106152728" /> <g id="I419b2f7bcb8e44b1af3f86c714f02ef520251106152728"> <path id="I53d2e965ba03413c9c48da9714b1d6ad20251106152728" d="m 44.375,38.566 c -1.973,1.301 -4.336,2.059 -6.875,2.059 -6.902,0 -12.5,-5.598 -12.5,-12.5 0,-6.902 5.598,-12.5 12.5,-12.5 6.34,0 11.578,4.723 12.391,10.84 1.14,5.601 1.586,12.336 -0.649,18.43 -2.39,6.531 -7.699,11.89 -17.199,14.378 -1.672,0.438 -3.379,-0.562 -3.816,-2.23 -0.438,-1.672 0.562,-3.379 2.23,-3.816 7.688,-2.012 11.285,-6.028 12.918,-10.481 0.484,-1.328 0.809,-2.73 1,-4.18 z" style="fill:currentColor;fill-opacity:1;fill-rule:nonzero;stroke:none" transform="scale(1.3333333)" /> </g>
</svg>

