<?xml version="1.0" encoding="UTF-8" standalone="no"?> <svg version="1.1" id="Ifac61c7a20ab43408628b1b7e8b0c5a520251106171633" width="100" height="100" viewBox="0 0 100 100" xmlns="http://www.w3.org/2000/svg" xmlns:svg="http://www.w3.org/2000/svg"> <defs id="If8a76d8b8d8a4b44860cdc69a8d12bea20251106171633"> <radialGradient fx="0" fy="0" cx="0" cy="0" r="1" gradientUnits="userSpaceOnUse" gradientTransform="matrix(-17.500144,22.343647,-33.058891,-25.892611,75.3125,27.96875)" spreadMethod="pad" id="I307876fcebe440c1baf851a18924cb3920251106171633"> <stop style="stop-opacity:1;stop-color:#068beb" offset="0" id="I43c916286fef46febc2b2f029467824420251106171633" /> <stop style="stop-opacity:1;stop-color:#0056cf" offset="0.616664" id="Iecf393e267ec4984b64fd657d1d31f8320251106171633" /> <stop style="stop-opacity:1;stop-color:#0027a7" offset="0.974342" id="I5c7956fca76748569d8c92fce9ffdc5e20251106171633" /> <stop style="stop-opacity:1;stop-color:#0027a7" offset="1" id="I700dc99de5da4fdab679986727b5def920251106171633" /> </radialGradient> <linearGradient x1="6.8571401" y1="1.53846" x2="19.923401" y2="18.6674" gradientUnits="userSpaceOnUse" gradientTransform="scale(3.125)" spreadMethod="pad" id="I89dc6a2e7e354ebdbe7a79f393ba664120251106171633"> <stop style="stop-opacity:1;stop-color:#3bd5ff" offset="0" id="I272e6b4ff9294b7081e319a1a277cc3e20251106171633" /> <stop style="stop-opacity:1;stop-color:#367af2" offset="1" id="I13ac0f235c954ea7bfd60d4450fb671620251106171633" /> </linearGradient> <linearGradient x1="11.7143" y1="16.9231" x2="11.7143" y2="20" gradientUnits="userSpaceOnUse" gradientTransform="scale(3.125)" spreadMethod="pad" id="I39209025a398413694060b4800bd7b9b20251106171633"> <stop style="stop-opacity:0;stop-color:#2764e7" offset="0" id="Ic17384c788dd4cdd9f2c91f3557b17f520251106171633" /> <stop style="stop-opacity:0;stop-color:#2764e7" offset="0.18125" id="I7f1cc2b9ef0b47e884fd8bfc8b2eed6a20251106171633" /> <stop style="stop-opacity:1;stop-color:#2764e7" offset="1" id="I99edc877a8634f5fb8232fe0d5f716bd20251106171633" /> </linearGradient> <linearGradient x1="11.1071" y1="8.9230804" x2="17.197201" y2="24.439199" gradientUnits="userSpaceOnUse" gradientTransform="scale(3.125)" spreadMethod="pad" id="Iac63556def7940108470a4ce95e1f60a20251106171633"> <stop style="stop-opacity:0;stop-color:#dcf8ff" offset="0" id="I47b972bf410b437d8820e9f98c16260520251106171633" /> <stop style="stop-opacity:0.70000763;stop-color:#ff6ce8" offset="1" id="I21d1407cd0c449a4b918010759ccd00520251106171633" /> </linearGradient> <linearGradient x1="5.47435" y1="10.7602" x2="7.97259" y2="15.7616" gradientUnits="userSpaceOnUse" gradientTransform="scale(3.125)" spreadMethod="pad" id="Ib245a131ccb941c3ae3cedf248a0654220251106171633"> <stop style="stop-opacity:1;stop-color:#defcff" offset="0" id="Ibb43df9dbaec4b869c8369003e7f1a4f20251106171633" /> <stop style="stop-opacity:1;stop-color:#9ff0f9" offset="1" id="I311d003e0cc1418eb1b22fd7c3eecee320251106171633" /> </linearGradient> <linearGradient x1="5.9606299" y1="7.6516399" x2="7.0620499" y2="16.846399" gradientUnits="userSpaceOnUse" gradientTransform="scale(3.125)" spreadMethod="pad" id="I463a267710264c98973e286d8cbab95120251106171633"> <stop style="stop-opacity:1;stop-color:#fdfdfd" offset="0" id="I7dd93d2b78434e13afe53125409172f620251106171633" /> <stop style="stop-opacity:1;stop-color:#cceaff" offset="1" id="Iaabfd7c6b14d48d598d63a5d99b2215e20251106171633" /> </linearGradient> </defs> <g id="I6075b5ad13c44637967b4413f845ee9e20251106171633"> <path id="Ib0214151e76149ad9f9455f3c727dd1920251106171633" d="m 61.719,21.875 c 3.722,0 6.765,2.891 7.015,6.551 l 0.016,0.48 v 23.438 c 0,5.414 -4.238,9.84 -9.578,10.14 L 58.594,62.5 H 57.812 V 21.875 Z" transform="scale(1.3333333)" style="fill:url(#I307876fcebe440c1baf851a18924cb3920251106171633);stroke:none" /> <path id="Ic30eb1cd0f354cdc8b710b5420f9d9ed20251106171633" d="M 58.594,62.5 H 16.406 c -5.414,0 -9.84,-4.238 -10.14,-9.578 L 6.25,52.344 V 19.531 c 0,-3.722 2.891,-6.769 6.551,-7.015 l 0.48,-0.016 h 39.063 c 3.722,0 6.765,2.891 7.015,6.551 l 0.016,43.418 c -0.066,0.008 -0.137,0.011 -0.203,0.015 z" transform="scale(1.3333333)" style="fill:url(#I89dc6a2e7e354ebdbe7a79f393ba664120251106171633);stroke:none" /> <path d="M 58.594,62.5 H 16.406 c -5.414,0 -9.84,-4.238 -10.14,-9.578 L 6.25,52.344 V 19.531 c 0,-3.722 2.891,-6.769 6.551,-7.015 l 0.48,-0.016 h 39.063 c 3.722,0 6.765,2.891 7.015,6.551 l 0.016,43.418 c -0.066,0.008 -0.137,0.011 -0.203,0.015 z" transform="scale(1.3333333)" style="fill:url(#I39209025a398413694060b4800bd7b9b20251106171633);stroke:none" opacity="1" id="I9de1f0b0cb70465aa865f62096a4ce8d20251106171633" /> <path d="M 58.594,62.5 H 16.406 c -5.414,0 -9.84,-4.238 -10.14,-9.578 L 6.25,52.344 V 19.531 c 0,-3.722 2.891,-6.769 6.551,-7.015 l 0.48,-0.016 h 39.063 c 3.722,0 6.765,2.891 7.015,6.551 l 0.016,43.418 c -0.066,0.008 -0.137,0.011 -0.203,0.015 z" transform="scale(1.3333333)" style="fill:url(#Iac63556def7940108470a4ce95e1f60a20251106171633);stroke:none" opacity="1" id="I143bbaa5cde644bdbbcb810f910e8ebf20251106171633" /> <path id="Iaaf15d8fa31a4825a75b1b800b8ac3c320251106171633" d="m 28.883,34.391 c 1.297,0 2.344,1.047 2.344,2.343 V 47.656 C 31.227,48.949 30.18,50 28.883,50 H 17.961 c -1.293,0 -2.344,-1.051 -2.344,-2.344 V 36.734 c 0,-1.296 1.051,-2.343 2.344,-2.343 z" transform="scale(1.3333333)" style="fill:url(#Ib245a131ccb941c3ae3cedf248a0654220251106171633);stroke:none" /> <path id="I10ae7ff2c3644f979e835317658dec2c20251106171633" d="m 38.27,45.312 h 9.394 c 1.293,0 2.344,1.051 2.344,2.344 0,1.188 -0.883,2.168 -2.028,2.321 L 47.664,50 H 38.27 c -1.293,0 -2.344,-1.051 -2.344,-2.344 0,-1.187 0.883,-2.168 2.027,-2.324 l 0.317,-0.02 h 9.394 z m 0,-10.921 h 9.394 c 1.293,0 2.344,1.047 2.344,2.343 0,1.184 -0.883,2.164 -2.028,2.321 l -0.316,0.023 H 38.27 c -1.293,0 -2.344,-1.051 -2.344,-2.344 0,-1.187 0.883,-2.168 2.027,-2.324 l 0.317,-0.019 h 9.394 z M 17.961,23.445 h 29.703 c 1.293,0 2.344,1.051 2.344,2.344 0,1.188 -0.883,2.168 -2.028,2.32 l -0.316,0.024 H 17.961 c -1.293,0 -2.344,-1.051 -2.344,-2.344 0,-1.187 0.883,-2.168 2.028,-2.324 l 0.316,-0.02 h 29.703 z" transform="scale(1.3333333)" style="fill:url(#I463a267710264c98973e286d8cbab95120251106171633);stroke:none" /> </g>
</svg>

