<?xml version="1.0" encoding="UTF-8" standalone="no"?> <svg version="1.1" id="Icdb72688aad446518e963c5e4f40a26620251106125938" width="100" height="100" viewBox="0 0 100 100" xmlns="http://www.w3.org/2000/svg" xmlns:svg="http://www.w3.org/2000/svg"> <defs id="I4aa01317d93b4da0a231cd097abc3cb720251106125938" /> <g id="I5491c6f713a74f1789236a59c56a37a420251106125938"> <path id="Id3ce2cd173c542bfa0522dc87a8bb69f20251106125938" d="m 62.945,9.375 c 1.481,0 2.68,1.199 2.68,2.68 V 33.48 c 0,1.481 -1.199,2.68 -2.68,2.68 -1.476,0 -2.675,-1.199 -2.675,-2.68 V 18.52 L 18.52,60.27 h 14.96 c 1.481,0 2.68,1.199 2.68,2.675 0,1.481 -1.199,2.68 -2.68,2.68 H 12.055 c -1.481,0 -2.68,-1.199 -2.68,-2.68 V 41.52 c 0,-1.481 1.199,-2.68 2.68,-2.68 1.476,0 2.675,1.199 2.675,2.68 V 56.48 L 56.48,14.73 H 41.52 c -1.481,0 -2.68,-1.199 -2.68,-2.675 0,-1.481 1.199,-2.68 2.68,-2.68 z" style="fill:currentColor;fill-opacity:1;fill-rule:nonzero;stroke:none" transform="scale(1.3333333)" /> </g>
</svg>

