<?xml version="1.0" encoding="UTF-8" standalone="no"?> <svg version="1.1" id="I944fe6ee049040acae7b4cc198968f8d20251106154012" width="100" height="100" viewBox="0 0 100 100" xmlns="http://www.w3.org/2000/svg" xmlns:svg="http://www.w3.org/2000/svg"> <defs id="I0b300ecd274040b0abb9b4dafeb0d22d20251106154012" /> <g id="Iaae4a86e3943472ea6b9019c8f08607f20251106154012"> <path id="Ica9e24041184468192150b18bde34aef20251106154012" d="m 57.035,9.375 c -3.883,0 -7.027,3.148 -7.027,7.027 v 18.516 c 1.5,-0.356 3.07,-0.543 4.68,-0.543 3.382,0 6.57,0.828 9.374,2.289 V 16.402 c 0,-3.879 -3.144,-7.027 -7.027,-7.027 z M 43.75,28.902 v 8.664 c -5.637,3.61 -9.375,9.93 -9.375,17.122 0,4.007 1.16,7.742 3.164,10.89 -0.269,0.031 -0.539,0.047 -0.816,0.047 -3.883,0 -7.028,-3.148 -7.028,-7.027 V 28.902 c 0,-3.879 3.145,-7.027 7.028,-7.027 3.882,0 7.027,3.148 7.027,7.027 z m -34.367,12.5 c 0,-3.879 3.144,-7.027 7.027,-7.027 3.883,0 7.028,3.148 7.028,7.027 v 17.196 c 0,3.879 -3.145,7.027 -7.028,7.027 -3.883,0 -7.027,-3.148 -7.027,-7.027 z m 62.492,13.286 c 0,9.492 -7.695,17.187 -17.187,17.187 C 45.195,71.875 37.5,64.18 37.5,54.688 37.5,45.195 45.195,37.5 54.688,37.5 c 9.492,0 17.187,7.695 17.187,17.188 z M 56.422,45.062 c -0.547,-1.75 -2.922,-1.75 -3.469,0 l -1.742,5.586 h -5.633 c -1.766,0 -2.504,2.36 -1.074,3.442 l 4.558,3.453 -1.742,5.582 c -0.543,1.754 1.379,3.211 2.809,2.129 l 4.559,-3.453 4.558,3.453 c 1.43,1.082 3.352,-0.375 2.809,-2.129 l -1.743,-5.582 4.559,-3.453 c 1.43,-1.082 0.691,-3.442 -1.074,-3.442 h -5.633 z" style="fill:currentColor;fill-opacity:1;fill-rule:nonzero;stroke:none" transform="scale(1.3333333)" /> </g>
</svg>

