<?xml version="1.0" encoding="UTF-8" standalone="no"?> <svg version="1.1" id="I5cff7581ad2e41959c3039a663147be520251110124420" width="100" height="100" viewBox="0 0 100 100" xmlns="http://www.w3.org/2000/svg" xmlns:svg="http://www.w3.org/2000/svg"> <defs id="I08b6b7a32dc3468d88d4d2b91be97bc520251110124420" /> <g id="Iaf9f746bacc846d9b3b8a0c30b5164fe20251110124420"> <path id="I2badc5d45ea74c96a5d394905910498620251110124420" d="m 17.043,20.359 c -0.914,2.414 -1.418,5.032 -1.418,7.766 0,12.082 9.793,21.875 21.875,21.875 2.734,0 5.352,-0.5 7.766,-1.418 l 2.394,2.395 c -3.105,1.378 -6.543,2.148 -10.16,2.148 -5.91,0 -11.344,-2.051 -15.621,-5.48 l 0.004,18.746 c 0,1.898 2.14,3.011 3.691,1.918 l 11.93,-8.403 11.93,8.403 c 1.554,1.093 3.695,-0.02 3.695,-1.918 V 56.445 L 64.75,68.062 c 0.914,0.918 2.398,0.918 3.312,0 0.915,-0.914 0.915,-2.398 0,-3.312 L 10.25,6.938 C 9.336,6.02 7.852,6.02 6.938,6.938 6.02,7.852 6.02,9.336 6.938,10.25 Z m 5.277,-7.984 30.93,30.93 C 57.043,39.371 59.375,34.02 59.375,28.125 59.375,16.043 49.582,6.25 37.5,6.25 c -5.895,0 -11.246,2.332 -15.18,6.125 z" style="fill:currentColor;fill-opacity:1;fill-rule:nonzero;stroke:none" transform="scale(1.3333333)" /> </g>
</svg>

