<?xml version="1.0" encoding="UTF-8" standalone="no"?> <svg version="1.1" id="Iec6d3a424cd74b4d81f773e0607649f320251106142135" width="100" height="100" viewBox="0 0 100 100" xmlns="http://www.w3.org/2000/svg" xmlns:svg="http://www.w3.org/2000/svg"> <defs id="I10cb715882994deab5926ea31be2aacd20251106142135" /> <g id="I9fe61944b8094ba1b13f3865477e9b2520251106142135"> <path id="I363aa75a46634a178b9828739b12260a20251106142135" d="m 40.625,15.625 c 1.727,0 3.125,-1.398 3.125,-3.125 0,-1.727 -1.398,-3.125 -3.125,-3.125 h -6.25 c -1.727,0 -3.125,1.398 -3.125,3.125 0,1.727 1.398,3.125 3.125,3.125 z m -25,18.75 c 0,-1.727 -1.398,-3.125 -3.125,-3.125 -1.727,0 -3.125,1.398 -3.125,3.125 v 6.25 c 0,1.727 1.398,3.125 3.125,3.125 1.727,0 3.125,-1.398 3.125,-3.125 z M 9.375,56.25 c 0,-1.727 1.398,-3.125 3.125,-3.125 1.727,0 3.125,1.398 3.125,3.125 0,1.727 1.398,3.125 3.125,3.125 h 37.5 c 1.727,0 3.125,-1.398 3.125,-3.125 0,-1.727 1.398,-3.125 3.125,-3.125 1.727,0 3.125,1.398 3.125,3.125 0,5.18 -4.195,9.375 -9.375,9.375 h -37.5 c -5.176,0 -9.375,-4.195 -9.375,-9.375 z m 53.125,-25 c -1.727,0 -3.125,1.398 -3.125,3.125 v 6.25 c 0,1.727 1.398,3.125 3.125,3.125 1.727,0 3.125,-1.398 3.125,-3.125 v -6.25 c 0,-1.727 -1.398,-3.125 -3.125,-3.125 z M 21.875,12.5 c 0,-1.727 -1.398,-3.125 -3.125,-3.125 -5.176,0 -9.375,4.199 -9.375,9.375 0,1.727 1.398,3.125 3.125,3.125 1.727,0 3.125,-1.398 3.125,-3.125 0,-1.727 1.398,-3.125 3.125,-3.125 1.727,0 3.125,-1.398 3.125,-3.125 z M 56.25,9.375 c -1.727,0 -3.125,1.398 -3.125,3.125 0,1.727 1.398,3.125 3.125,3.125 1.727,0 3.125,1.398 3.125,3.125 0,1.727 1.398,3.125 3.125,3.125 1.727,0 3.125,-1.398 3.125,-3.125 0,-5.176 -4.195,-9.375 -9.375,-9.375 z" style="fill:currentColor;fill-opacity:1;fill-rule:nonzero;stroke:none" transform="scale(1.3333333)" /> </g>
</svg>

