<?xml version="1.0" encoding="UTF-8" standalone="no"?> <svg version="1.1" id="If7de3475603e48f183d65afdfef632c620251106164749" width="100" height="100" viewBox="0 0 100 100" xmlns="http://www.w3.org/2000/svg" xmlns:svg="http://www.w3.org/2000/svg"> <defs id="I686ac6c6d6b247839480f77139c2eb6a20251106164749" /> <g id="I4f399360644e479d94bedfb1170ee9b420251106164749"> <path id="I12130da471b54507bc63a675139933b220251106164749" d="m 37.504,6.246 c 17.262,0 31.254,13.992 31.254,31.254 0,0.824 -0.031,1.641 -0.094,2.449 C 67.297,38.652 65.746,37.539 64.059,36.66 64,34.801 63.754,32.992 63.332,31.246 L 52.836,31.25 c 0.102,1.047 0.18,2.109 0.226,3.188 -1.609,0.128 -3.167,0.445 -4.652,0.925 -0.051,-1.406 -0.148,-2.781 -0.289,-4.113 h -21.23 c -0.215,2 -0.329,4.094 -0.329,6.25 0,3.312 0.27,6.469 0.75,9.379 h 8.618 c -0.618,1.48 -1.063,3.051 -1.317,4.683 H 28.32 c 1.871,6.922 5.004,11.672 8.293,12.407 0.887,1.722 2.012,3.301 3.332,4.695 -0.804,0.063 -1.617,0.094 -2.441,0.094 C 20.242,68.758 6.25,54.762 6.25,37.5 6.25,20.238 20.242,6.246 37.504,6.246 Z m -14.035,45.32 h -8.508 c 2.996,4.789 7.473,8.559 12.793,10.657 -1.633,-2.563 -2.977,-5.77 -3.969,-9.422 z M 22.172,31.25 H 11.68 l -0.016,0.055 c -0.476,1.988 -0.726,4.062 -0.726,6.195 0,3.301 0.601,6.461 1.703,9.379 l 9.914,-0.004 c -0.446,-2.965 -0.68,-6.113 -0.68,-9.375 0,-2.137 0.102,-4.227 0.297,-6.25 z m 5.586,-18.469 -0.07,0.028 c -6.399,2.546 -11.575,7.503 -14.403,13.753 l 9.527,0.004 C 23.793,21.086 25.5,16.32 27.758,12.781 Z m 9.746,-1.847 -0.359,0.015 c -3.957,0.363 -7.778,6.621 -9.551,15.613 h 19.82 C 45.645,17.594 41.844,11.348 37.898,10.953 Z m 9.75,1.847 0.336,0.543 c 2.09,3.477 3.68,8.039 4.609,13.242 l 9.524,-0.004 C 59.02,20.59 54.176,15.797 48.164,13.16 Z m 24.621,41.907 c 0,9.492 -7.695,17.187 -17.187,17.187 C 45.195,71.875 37.5,64.18 37.5,54.688 37.5,45.195 45.195,37.5 54.688,37.5 c 9.492,0 17.187,7.695 17.187,17.188 z M 54.688,43.75 c -0.864,0 -1.563,0.699 -1.563,1.562 v 12.5 c 0,0.864 0.699,1.563 1.563,1.563 0.863,0 1.562,-0.699 1.562,-1.563 v -12.5 c 0,-0.863 -0.699,-1.562 -1.562,-1.562 z m 0,22.266 c 1.078,0 1.953,-0.875 1.953,-1.954 0,-1.078 -0.875,-1.953 -1.953,-1.953 -1.079,0 -1.954,0.875 -1.954,1.953 0,1.079 0.875,1.954 1.954,1.954 z" style="fill:currentColor;fill-opacity:1;fill-rule:nonzero;stroke:none" transform="scale(1.3333333)" /> </g>
</svg>

