<svg version="1.2" xmlns="http://www.w3.org/2000/svg" viewBox="0 0 100 100" width="100" height="100">
	<title>New Project</title>
	<style>
		.Cd3f00f8b251a49afa875468690091b0a20250904151152 { fill: currentcolor } 
	</style>
	<path id="Ic02eefbb5cf149cda1a30981a8b6650720250904151152" class="Cd3f00f8b251a49afa875468690091b0a20250904151152" d=""/>
	<path id="I4fe4ab9cf5a14b9f8cd56b8fa538b51420250904151152" fill-rule="evenodd" class="Cd3f00f8b251a49afa875468690091b0a20250904151152" d="m50 60c-5.53 0-10-4.47-10-10 0-5.53 4.47-10 10-10 5.53 0 10 4.47 10 10 0 5.53-4.47 10-10 10z"/>
	<path id="Id28eeab35d2d40bdad0153650584dde320250904151152" fill-rule="evenodd" class="Cd3f00f8b251a49afa875468690091b0a20250904151152" d="m50 95c-5.53 0-10-4.47-10-10 0-5.53 4.47-10 10-10 5.53 0 10 4.47 10 10 0 5.53-4.47 10-10 10z"/>
	<path id="Ie09dcce112e44703b8be7436a8b594a120250904151152" fill-rule="evenodd" class="Cd3f00f8b251a49afa875468690091b0a20250904151152" d="m50 25c-5.53 0-10-4.47-10-10 0-5.53 4.47-10 10-10 5.53 0 10 4.47 10 10 0 5.53-4.47 10-10 10z"/>
</svg>
