<svg version="1.2" xmlns="http://www.w3.org/2000/svg" viewBox="0 0 100 100" width="100" height="100">
	<title>New Project</title>
	<style>
		.C2600eabb041348a49d4c296abbd7d01220251030155105 { fill: currentcolor } 
	</style>
	<path id="Ibcbee0f67a5d478da8d3af494593770620251030155105" class="C2600eabb041348a49d4c296abbd7d01220251030155105" d=""/>
	<path id="I888393d0ab6f4eac8f217c5cef08bb6820251030155105" fill-rule="evenodd" class="C2600eabb041348a49d4c296abbd7d01220251030155105" d="m50 60c-5.53 0-10-4.47-10-10 0-5.53 4.47-10 10-10 5.53 0 10 4.47 10 10 0 5.53-4.47 10-10 10z"/>
	<path id="If31a4215bc064ef4a2c003eee0180c8f20251030155105" fill-rule="evenodd" class="C2600eabb041348a49d4c296abbd7d01220251030155105" d="m50 95c-5.53 0-10-4.47-10-10 0-5.53 4.47-10 10-10 5.53 0 10 4.47 10 10 0 5.53-4.47 10-10 10z"/>
	<path id="I30e7dbec93f544fe9f063a0aa08697f720251030155105" fill-rule="evenodd" class="C2600eabb041348a49d4c296abbd7d01220251030155105" d="m50 25c-5.53 0-10-4.47-10-10 0-5.53 4.47-10 10-10 5.53 0 10 4.47 10 10 0 5.53-4.47 10-10 10z"/>
</svg>






