<svg version="1.2" xmlns="http://www.w3.org/2000/svg" viewBox="0 0 100 100" width="100" height="100">
	<title>New Project</title>
	<style>
		.C27d2ee2e48324746b05d1d35ff85acfc20250904154434 { fill: currentcolor } 
	</style>
	<path id="Id7ff980aacee49d4b18fa5d48faa39c720250904154434" class="C27d2ee2e48324746b05d1d35ff85acfc20250904154434" d=""/>
	<path id="I70a86774718b4c939bf25309bf1c3edb20250904154434" fill-rule="evenodd" class="C27d2ee2e48324746b05d1d35ff85acfc20250904154434" d="m50 60c-5.53 0-10-4.47-10-10 0-5.53 4.47-10 10-10 5.53 0 10 4.47 10 10 0 5.53-4.47 10-10 10z"/>
	<path id="I133d08ef359441e4b2787ad31808bf1920250904154434" fill-rule="evenodd" class="C27d2ee2e48324746b05d1d35ff85acfc20250904154434" d="m50 95c-5.53 0-10-4.47-10-10 0-5.53 4.47-10 10-10 5.53 0 10 4.47 10 10 0 5.53-4.47 10-10 10z"/>
	<path id="I530d4cb4adc94f92a99318c22cd7701220250904154434" fill-rule="evenodd" class="C27d2ee2e48324746b05d1d35ff85acfc20250904154434" d="m50 25c-5.53 0-10-4.47-10-10 0-5.53 4.47-10 10-10 5.53 0 10 4.47 10 10 0 5.53-4.47 10-10 10z"/>
</svg>

