<svg version="1.2" xmlns="http://www.w3.org/2000/svg" viewBox="0 0 100 100" width="100" height="100">
	<title>New Project</title>
	<style>
		.Caec5b7eaf7754c2facb7ae56d222aa7b20251030124107 { fill: currentcolor } 
	</style>
	<path id="Ia932201ede8a40f58b71c3224affc3ef20251030124107" class="Caec5b7eaf7754c2facb7ae56d222aa7b20251030124107" d=""/>
	<path id="Ib7646abab2e94b969662e55330a7688c20251030124107" fill-rule="evenodd" class="Caec5b7eaf7754c2facb7ae56d222aa7b20251030124107" d="m50 60c-5.53 0-10-4.47-10-10 0-5.53 4.47-10 10-10 5.53 0 10 4.47 10 10 0 5.53-4.47 10-10 10z"/>
	<path id="Ieeac002da80440f4b073c65cc87345e720251030124107" fill-rule="evenodd" class="Caec5b7eaf7754c2facb7ae56d222aa7b20251030124107" d="m50 95c-5.53 0-10-4.47-10-10 0-5.53 4.47-10 10-10 5.53 0 10 4.47 10 10 0 5.53-4.47 10-10 10z"/>
	<path id="I3bb179d1b7d8402198442479cbe09fc320251030124107" fill-rule="evenodd" class="Caec5b7eaf7754c2facb7ae56d222aa7b20251030124107" d="m50 25c-5.53 0-10-4.47-10-10 0-5.53 4.47-10 10-10 5.53 0 10 4.47 10 10 0 5.53-4.47 10-10 10z"/>
</svg>



