<svg version="1.2" xmlns="http://www.w3.org/2000/svg" viewBox="0 0 100 100" width="100" height="100">
	<title>New Project</title>
	<style>
		.C135c0b2297194d9a8b288b07f88bf82020251030195520 { fill: currentcolor } 
	</style>
	<path id="I4c1f0b95530f4f6ea4af1fae9766274320251030195520" class="C135c0b2297194d9a8b288b07f88bf82020251030195520" d=""/>
	<path id="I70b91be82b1c4e5e81111d20a867278c20251030195520" fill-rule="evenodd" class="C135c0b2297194d9a8b288b07f88bf82020251030195520" d="m50 60c-5.53 0-10-4.47-10-10 0-5.53 4.47-10 10-10 5.53 0 10 4.47 10 10 0 5.53-4.47 10-10 10z"/>
	<path id="I2da475766cb7476e9cd6fbeda62552a920251030195520" fill-rule="evenodd" class="C135c0b2297194d9a8b288b07f88bf82020251030195520" d="m50 95c-5.53 0-10-4.47-10-10 0-5.53 4.47-10 10-10 5.53 0 10 4.47 10 10 0 5.53-4.47 10-10 10z"/>
	<path id="Idb39278133aa42d3bad656ec5d8f8fef20251030195520" fill-rule="evenodd" class="C135c0b2297194d9a8b288b07f88bf82020251030195520" d="m50 25c-5.53 0-10-4.47-10-10 0-5.53 4.47-10 10-10 5.53 0 10 4.47 10 10 0 5.53-4.47 10-10 10z"/>
</svg>







