<?xml version="1.0" encoding="UTF-8" standalone="no"?> <svg version="1.1" id="I4ceb2a8b954c4ae5b240757b06db57aa20251106132945" width="100" height="100" viewBox="0 0 100 100" xmlns="http://www.w3.org/2000/svg" xmlns:svg="http://www.w3.org/2000/svg"> <defs id="I1388d858ee994e18a433ea99d2f9ccc320251106132945" /> <g id="I0bbb4e65a40941c28de7f0e01c443cc620251106132945"> <path id="I0feaf9ee379845648dc5e6135c13921f20251106132945" d="m 50.625,11.25 c -4.141,0 -7.5,3.359 -7.5,7.5 0,0.516 0.055,1.02 0.152,1.504 0.114,0.558 -0.035,1.137 -0.398,1.574 -0.363,0.438 -0.906,0.684 -1.477,0.672 -0.05,0 -0.101,0 -0.152,0 -1.238,0 -2.406,0.301 -3.438,0.832 -0.562,-1.133 -1.265,-2.187 -2.085,-3.137 1.113,-0.625 2.343,-1.07 3.652,-1.289 L 39.375,18.75 c 0,-6.215 5.039,-11.25 11.25,-11.25 6.215,0 11.25,5.035 11.25,11.25 v 0.156 c 5.32,0.891 9.375,5.52 9.375,11.094 0,6.215 -5.035,11.25 -11.25,11.25 -0.82,0 -1.621,-0.09 -2.395,-0.254 l 0.825,3.395 c 1,4.132 -2.129,8.109 -6.379,8.109 h -2.86 c -4.25,0 -7.379,-3.98 -6.375,-8.113 l 1.688,-6.946 c 0.246,-1.007 1.258,-1.625 2.266,-1.379 1.007,0.243 1.625,1.258 1.378,2.266 l -1.687,6.945 c -0.434,1.77 0.91,3.477 2.73,3.477 h 2.86 c 1.82,0 3.164,-1.703 2.734,-3.477 l -1.683,-6.949 c -0.18,-0.746 0.109,-1.527 0.734,-1.972 0.625,-0.442 1.461,-0.461 2.105,-0.047 1.168,0.757 2.559,1.195 4.059,1.195 4.145,0 7.5,-3.359 7.5,-7.5 0,-4.141 -3.355,-7.5 -7.5,-7.5 -0.051,0 -0.102,0 -0.148,0 -0.571,0.012 -1.114,-0.234 -1.481,-0.672 -0.363,-0.437 -0.508,-1.016 -0.394,-1.574 0.097,-0.484 0.148,-0.988 0.148,-1.504 0,-4.141 -3.355,-7.5 -7.5,-7.5 z M 16.875,30 c 0,-4.141 3.359,-7.5 7.5,-7.5 4.141,0 7.5,3.359 7.5,7.5 0,1.691 -0.559,3.246 -1.5,4.5 -0.426,0.566 -0.492,1.328 -0.176,1.965 0.317,0.633 0.965,1.035 1.676,1.035 h 1.875 c 1.035,0 1.875,0.84 1.875,1.875 0,1.035 -0.84,1.875 -1.875,1.875 h -4.152 c -0.536,0 -1.047,0.23 -1.403,0.633 -0.355,0.402 -0.523,0.937 -0.457,1.469 1.133,9.261 6.032,14.578 8.778,16.875 0.652,0.546 0.984,1.234 0.984,1.832 0,0.933 -0.758,1.691 -1.691,1.691 H 12.941 c -0.933,0 -1.691,-0.758 -1.691,-1.691 0,-0.598 0.332,-1.286 0.984,-1.832 C 14.98,57.93 19.879,52.613 21.012,43.352 21.078,42.82 20.91,42.285 20.555,41.883 20.199,41.48 19.688,41.25 19.152,41.25 H 15 c -1.035,0 -1.875,-0.84 -1.875,-1.875 0,-1.035 0.84,-1.875 1.875,-1.875 h 1.875 c 0.711,0 1.359,-0.402 1.676,-1.035 0.32,-0.637 0.25,-1.399 -0.176,-1.965 -0.941,-1.254 -1.5,-2.809 -1.5,-4.5 z m 7.5,-11.25 c -6.215,0 -11.25,5.035 -11.25,11.25 0,1.359 0.242,2.668 0.687,3.875 -2.535,0.547 -4.437,2.801 -4.437,5.5 C 9.375,42.48 11.895,45 15,45 h 1.945 c -1.39,6.742 -5.066,10.633 -7.117,12.348 -1.301,1.09 -2.328,2.761 -2.328,4.711 0,3.003 2.438,5.441 5.441,5.441 h 22.868 c 3.003,0 5.441,-2.438 5.441,-5.441 0,-1.95 -1.027,-3.621 -2.328,-4.711 C 36.871,55.633 33.195,51.742 31.805,45 h 1.945 c 3.105,0 5.625,-2.52 5.625,-5.625 0,-2.699 -1.902,-4.953 -4.437,-5.5 0.445,-1.207 0.687,-2.516 0.687,-3.875 0,-6.215 -5.035,-11.25 -11.25,-11.25 z" style="fill:currentColor;fill-opacity:1;fill-rule:nonzero;stroke:none" transform="scale(1.3333333)" /> </g>
</svg>

