<?xml version="1.0" encoding="UTF-8" standalone="no"?> <svg version="1.1" id="I6e8144da8f8f4ae2b6a510b2947c988b20251110130508" width="100" height="100" viewBox="0 0 100 100" xmlns="http://www.w3.org/2000/svg" xmlns:svg="http://www.w3.org/2000/svg"> <defs id="I4a9b50aee7a3481e9301ef0e97fc4a1620251110130508" /> <g id="Ie11205bf4c094a149f650a7e0df4d27a20251110130508"> <path id="I6e03d1b183c54ddba4f3afc16b8034b120251110130508" d="m 33.711,9.695 c 1.547,-3.133 6.019,-3.133 7.566,0 l 7.371,14.934 16.477,2.394 c 3.457,0.5 4.84,4.754 2.336,7.196 l -2.828,2.754 C 63.156,36.145 61.566,35.492 59.891,35.051 L 63.508,31.523 47.73,29.23 C 46.355,29.031 45.168,28.168 44.551,26.922 L 37.496,12.625 30.438,26.922 c -0.614,1.246 -1.801,2.109 -3.176,2.308 L 11.48,31.523 22.898,42.656 c 0.997,0.969 1.45,2.364 1.215,3.735 l -2.695,15.714 12.965,-6.816 c 0.051,1.695 0.308,3.336 0.746,4.902 l -12.371,6.504 c -3.094,1.629 -6.711,-1 -6.121,-4.445 L 19.453,45.84 7.527,34.219 C 5.023,31.777 6.406,27.523 9.867,27.023 l 16.477,-2.394 z m 38.164,44.993 c 0,9.492 -7.695,17.187 -17.187,17.187 C 45.195,71.875 37.5,64.18 37.5,54.688 37.5,45.195 45.195,37.5 54.688,37.5 c 9.492,0 17.187,7.695 17.187,17.188 z M 49.543,47.336 c -0.609,-0.613 -1.602,-0.613 -2.211,0 -0.609,0.609 -0.609,1.598 0,2.207 l 5.145,5.145 -5.145,5.148 c -0.609,0.609 -0.609,1.598 0,2.207 0.609,0.609 1.602,0.609 2.211,0 l 5.145,-5.145 5.144,5.145 c 0.609,0.609 1.602,0.609 2.211,0 0.609,-0.609 0.609,-1.598 0,-2.207 l -5.145,-5.148 5.145,-5.145 c 0.609,-0.609 0.609,-1.598 0,-2.207 -0.609,-0.613 -1.602,-0.613 -2.211,0 l -5.144,5.144 z" style="fill:currentColor;fill-opacity:1;fill-rule:nonzero;stroke:none" transform="scale(1.3333333)" /> </g>
</svg>

