<?xml version="1.0" encoding="UTF-8" standalone="no"?> <svg version="1.1" id="Ibfd0d3ea95cf4825b2e4507a60038d6920251110123030" width="100" height="100" viewBox="0 0 100 100" xmlns="http://www.w3.org/2000/svg" xmlns:svg="http://www.w3.org/2000/svg"> <defs id="I8ff8bf414190407c825610749c582e3320251110123030" /> <g id="Icbec4d84e8644f42905476e3c3fd66c220251110123030"> <path id="I3372fe82bd5642b88e5400a8e7c675bc20251110123030" d="m 51.668,8.438 c 4.113,-4.114 10.781,-4.114 14.894,0 4.114,4.113 4.114,10.781 0,14.894 L 54.898,34.996 C 54.023,34.883 53.137,34.82 52.23,34.82 c -1.042,0 -2.07,0.082 -3.074,0.235 L 63.719,20.492 c 2.547,-2.547 2.547,-6.672 0,-9.215 -2.543,-2.543 -6.668,-2.543 -9.211,0 l -39.606,39.61 c -0.691,0.691 -1.195,1.551 -1.457,2.492 l -3.183,11.355 11.359,-3.179 c 0.941,-0.262 1.801,-0.766 2.492,-1.457 l 8.262,-8.262 c -0.152,1.004 -0.23,2.027 -0.23,3.074 0,0.906 0.058,1.793 0.171,2.664 l -5.359,5.367 c -1.184,1.18 -2.645,2.036 -4.254,2.485 l -14.797,4.14 c -0.699,0.2 -1.449,0 -1.961,-0.511 C 5.434,68.539 5.234,67.789 5.43,67.094 L 9.574,52.293 c 0.449,-1.605 1.305,-3.07 2.485,-4.25 z M 52.23,72.32 c 9.618,0 17.415,-7.793 17.415,-17.41 0,-9.617 -7.797,-17.41 -17.415,-17.41 -9.613,0 -17.41,7.793 -17.41,17.41 0,9.617 7.797,17.41 17.41,17.41 z m 0,-4.015 c -2.972,0 -5.718,-0.969 -7.941,-2.61 L 63.016,46.969 c 1.64,2.222 2.609,4.969 2.609,7.941 0,7.399 -5.996,13.395 -13.395,13.395 z m 7.946,-24.18 -18.727,18.73 c -1.64,-2.222 -2.609,-4.972 -2.609,-7.945 0,-7.394 5.996,-13.39 13.39,-13.39 2.977,0 5.723,0.968 7.946,2.605 z" style="fill:currentColor;fill-opacity:1;fill-rule:nonzero;stroke:none" transform="scale(1.3333333)" /> </g>
</svg>

