<?xml version="1.0" encoding="UTF-8" standalone="no"?> <svg version="1.1" id="I005133f5da9f419d9455b1e438fff1c320251106171633" width="100" height="100" viewBox="0 0 100 100" xmlns="http://www.w3.org/2000/svg" xmlns:svg="http://www.w3.org/2000/svg"> <defs id="Idaec7a0a3a2043ed9263b5a15963337020251106171633" /> <g id="Iedc165754a1b45a892d1c7081202da4b20251106171633"> <path id="I0776646924a041f0af7b25581bb589d720251106171633" d="m 34.82,5.355 c -6.656,0 -12.05,5.399 -12.05,12.055 v 21.43 c 0,6.656 5.394,12.055 12.05,12.055 1.485,0 2.907,-0.27 4.223,-0.762 1.141,-1.028 2.469,-1.848 3.926,-2.41 2.402,-2.203 3.906,-5.368 3.906,-8.883 V 17.41 C 46.875,10.754 41.477,5.355 34.82,5.355 Z m 0,50.895 c 0.153,0 0.301,-0.004 0.45,-0.008 -0.293,1.07 -0.45,2.196 -0.45,3.356 0,2.527 0.739,4.886 2.012,6.863 v 1.172 c 0,1.109 -0.902,2.012 -2.012,2.012 -1.109,0 -2.008,-0.903 -2.008,-2.012 V 60.176 C 21.918,59.16 13.395,49.996 13.395,38.84 v -2.008 c 0,-1.109 0.898,-2.008 2.007,-2.008 1.11,0 2.008,0.899 2.008,2.008 v 2.008 c 0,9.613 7.797,17.41 17.41,17.41 z M 56.25,38.84 c 0,2.84 -0.555,5.555 -1.559,8.035 H 50.27 c 1.253,-2.402 1.96,-5.137 1.96,-8.035 v -2.008 c 0,-1.109 0.903,-2.008 2.012,-2.008 1.11,0 2.008,0.899 2.008,2.008 z M 26.785,17.41 c 0,-4.437 3.598,-8.035 8.035,-8.035 4.438,0 8.035,3.598 8.035,8.035 v 21.43 c 0,4.437 -3.597,8.035 -8.035,8.035 -4.437,0 -8.035,-3.598 -8.035,-8.035 z m 20.758,36.16 c -3.328,0 -6.023,2.7 -6.023,6.028 0,3.328 2.695,6.027 6.023,6.027 h 1.34 c 1.109,0 2.012,0.898 2.012,2.008 0,1.109 -0.903,2.012 -2.012,2.012 h -1.34 c -5.547,0 -10.043,-4.5 -10.043,-10.047 0,-5.547 4.496,-10.043 10.043,-10.043 h 1.34 c 1.109,0 2.012,0.898 2.012,2.007 0,1.11 -0.903,2.008 -2.012,2.008 z m -2.008,6.028 c 0,-1.11 0.899,-2.008 2.008,-2.008 h 14.734 c 1.11,0 2.008,0.898 2.008,2.008 0,1.109 -0.898,2.007 -2.008,2.007 H 47.543 c -1.109,0 -2.008,-0.898 -2.008,-2.007 z m 16.742,6.027 c 3.328,0 6.028,-2.699 6.028,-6.027 0,-3.328 -2.7,-6.028 -6.028,-6.028 h -1.339 c -1.11,0 -2.008,-0.898 -2.008,-2.008 0,-1.109 0.898,-2.007 2.008,-2.007 h 1.339 c 5.547,0 10.043,4.496 10.043,10.043 0,5.547 -4.496,10.047 -10.043,10.047 h -1.339 c -1.11,0 -2.008,-0.903 -2.008,-2.012 0,-1.11 0.898,-2.008 2.008,-2.008 z" style="fill:currentColor;fill-opacity:1;fill-rule:nonzero;stroke:none" transform="scale(1.3333333)" /> </g>
</svg>

