<?xml version="1.0" encoding="UTF-8" standalone="no"?> <svg version="1.1" id="I8300d5e902344476807a1c0c46debbfb20251106155157" width="100" height="100" viewBox="0 0 100 100" xmlns="http://www.w3.org/2000/svg" xmlns:svg="http://www.w3.org/2000/svg"> <defs id="I9a69ef63ef014e479d5d33108c576d7320251106155157" /> <g id="I14457643894e4b9fbd0f13135d970d3920251106155157"> <path id="Ida63a47b229a473c9a42264547313a8420251106155157" d="m 17.145,5.355 c -3.551,0 -6.43,2.879 -6.43,6.43 v 24.754 c 1.269,-0.648 2.613,-1.172 4.015,-1.547 V 11.785 c 0,-1.332 1.082,-2.41 2.415,-2.41 H 37.5 v 17.41 c 0,2.961 2.398,5.36 5.355,5.36 H 60.27 v 31.07 c 0,1.332 -1.082,2.41 -2.415,2.41 h -22.66 c -1.445,0.918 -3.125,1.48 -4.98,1.551 0.047,0.097 0.086,0.199 0.125,0.304 0.262,0.715 0.359,1.45 0.312,2.165 h 27.203 c 3.551,0 6.43,-2.879 6.43,-6.43 V 31.012 c 0,-1.953 -0.777,-3.824 -2.156,-5.207 L 43.562,7.238 C 42.359,6.035 40.723,5.355 39.016,5.355 Z m 41.621,22.77 H 42.855 c -0.738,0 -1.335,-0.602 -1.335,-1.34 V 10.875 Z M 37.5,54.91 c 0,-9.617 -7.793,-17.41 -17.41,-17.41 -9.617,0 -17.41,7.793 -17.41,17.41 0,9.617 7.793,17.41 17.41,17.41 1.805,0 3.578,-0.273 5.269,-0.812 l 0.715,-0.242 0.262,-0.118 c 0.91,-0.48 1.348,-1.57 0.984,-2.562 C 26.922,67.5 25.723,66.945 24.637,67.34 l -0.539,0.187 -0.778,0.219 c -1.047,0.262 -2.129,0.399 -3.23,0.399 -7.309,0 -13.235,-5.926 -13.235,-13.235 0,-7.308 5.926,-13.23 13.235,-13.23 7.308,0 13.23,5.922 13.23,13.23 0,2.86 -1.726,4.875 -3.48,4.875 -1.305,0 -2.09,-1.41 -2.09,-4.875 v -6.965 l -0.02,-0.281 c -0.136,-1.019 -1.011,-1.809 -2.07,-1.809 -0.777,0 -1.457,0.43 -1.816,1.059 -1.071,-0.672 -2.332,-1.059 -3.754,-1.059 -4.711,0 -7.66,4.227 -7.66,9.055 0,4.828 2.949,9.055 7.66,9.055 2.121,0 3.883,-0.856 5.176,-2.238 1.031,1.429 2.546,2.238 4.574,2.238 4.215,0 7.66,-4.02 7.66,-9.055 z m -20.895,0 c 0,-2.773 1.469,-4.875 3.485,-4.875 2.015,0 3.48,2.102 3.48,4.875 0,2.774 -1.465,4.875 -3.48,4.875 -2.016,0 -3.485,-2.101 -3.485,-4.875 z" style="fill:currentColor;fill-opacity:1;fill-rule:nonzero;stroke:none" transform="scale(1.3333333)" /> </g>
</svg>

