<?xml version="1.0" encoding="UTF-8" standalone="no"?> <svg version="1.1" id="Ib94f1e947c7c46b6a8e6f33dee67ba1e20251106154012" width="100" height="100" viewBox="0 0 100 100" xmlns="http://www.w3.org/2000/svg" xmlns:svg="http://www.w3.org/2000/svg"> <defs id="Id64398f9e59843a592ef740518f8929120251106154012" /> <g id="I796d7319a98746e4ad44ee460496949520251106154012"> <path id="I414d727632164d89b1be7bc8d60a291720251106154012" d="M 8.215,11.531 6.938,10.25 C 6.02,9.336 6.02,7.852 6.938,6.938 7.852,6.02 9.336,6.02 10.25,6.938 L 68.062,64.75 c 0.915,0.914 0.915,2.398 0,3.312 -0.914,0.918 -2.398,0.918 -3.312,0 L 52.941,56.258 h -4.507 v 7.804 h 5.472 c 1.293,0 2.344,1.051 2.344,2.344 0,1.188 -0.883,2.168 -2.027,2.324 l -0.317,0.02 H 21.094 c -1.293,0 -2.344,-1.047 -2.344,-2.344 0,-1.183 0.883,-2.164 2.027,-2.32 l 0.317,-0.024 h 5.465 V 56.258 H 13.281 c -3.722,0 -6.769,-2.891 -7.015,-6.551 L 6.25,49.227 V 16.406 C 6.25,14.512 7,12.793 8.215,11.531 Z M 48.254,51.57 11.531,14.848 c -0.301,0.34 -0.508,0.765 -0.574,1.242 l -0.019,0.316 v 32.821 c 0,1.187 0.882,2.168 2.027,2.32 l 0.316,0.023 z M 65.25,55.305 61.512,51.57 h 0.203 c 1.187,0 2.168,-0.882 2.324,-2.027 l 0.02,-0.316 V 34.32 c 1.48,0.211 3.046,-0.179 4.285,-1.211 0.133,-0.109 0.265,-0.23 0.402,-0.355 v 16.473 c 0,2.593 -1.406,4.863 -3.496,6.078 z M 19.316,9.375 24.004,14.062 H 34.375 V 12.5 c 0,-1.703 1.363,-3.09 3.059,-3.125 z M 69.199,7.191 C 68.172,5.484 67.121,4.316 66.344,3.668 65.352,2.84 63.871,2.973 63.043,3.969 c -0.828,0.992 -0.695,2.472 0.301,3.301 0.394,0.332 1.101,1.113 1.836,2.335 1.254,2.09 2.008,4.606 2.008,7.583 0,2.976 -0.754,5.492 -2.008,7.582 -0.735,1.222 -1.442,2.007 -1.836,2.335 -0.996,0.829 -1.129,2.309 -0.301,3.301 0.828,0.996 2.309,1.129 3.301,0.301 0.777,-0.645 1.828,-1.816 2.855,-3.523 1.672,-2.793 2.676,-6.137 2.676,-9.996 0,-3.86 -1.004,-7.204 -2.676,-9.997 z m -7.094,3.422 C 61.359,9.492 60.59,8.723 60,8.281 58.965,7.504 57.496,7.715 56.719,8.75 c -0.778,1.035 -0.567,2.504 0.469,3.281 0.191,0.145 0.593,0.547 1.019,1.184 0.731,1.097 1.168,2.41 1.168,3.973 0,1.562 -0.437,2.874 -1.168,3.972 -0.426,0.637 -0.828,1.039 -1.019,1.184 l -0.262,0.226 c -0.805,0.813 -0.914,2.114 -0.207,3.055 0.777,1.035 2.246,1.246 3.281,0.469 0.59,-0.442 1.359,-1.211 2.105,-2.332 1.223,-1.832 1.957,-4.035 1.957,-6.574 0,-2.54 -0.734,-4.743 -1.957,-6.575 z M 53.125,8.594 C 53.125,7.617 52.52,6.742 51.605,6.398 50.691,6.055 49.66,6.316 49.016,7.051 L 44.25,12.5 h -4.406 c -1.293,0 -2.344,1.051 -2.344,2.344 v 4.687 c 0,1.293 1.051,2.344 2.344,2.344 h 4.406 l 4.766,5.449 c 0.644,0.735 1.675,0.996 2.589,0.653 0.915,-0.344 1.52,-1.219 1.52,-2.196 z m -9.383,47.664 h -12.5 l 0.004,7.804 h 12.5 z" style="fill:currentColor;fill-opacity:1;fill-rule:nonzero;stroke:none" transform="scale(1.3333333)" /> </g>
</svg>

