<?xml version="1.0" encoding="UTF-8" standalone="no"?> <svg version="1.1" id="I16515a94bf3f489f96e5c69d4b4e8df720251110133655" width="100" height="100" viewBox="0 0 100 100" xmlns="http://www.w3.org/2000/svg" xmlns:svg="http://www.w3.org/2000/svg"> <defs id="I95d90d4b570a4f8b85090e7ff074031620251110133655" /> <g id="Ibcc3f0f81a524ec1b6e602a30400215020251110133655"> <path id="I8a923c9b36b1463f86df6256ac6b358f20251110133655" d="M 64.055,48.438 H 10.938 v 15.624 h 53.117 z m 4.523,-3.211 0.067,0.191 0.07,0.316 0.027,0.305 v 20.367 c 0,1.188 -0.879,2.168 -2.023,2.324 l -0.321,0.02 H 8.594 C 7.406,68.75 6.426,67.867 6.27,66.723 L 6.25,66.406 V 46.094 L 6.254,45.93 6.289,45.664 c 0.031,-0.168 0.082,-0.328 0.145,-0.48 l 8.625,-18.809 c 0.332,-0.73 1.011,-1.23 1.789,-1.344 l 0.34,-0.023 7.937,-0.004 -2.465,4.285 -0.215,0.402 -3.754,0.004 -6.449,14.055 h 50.477 l -6.336,-13.582 2.695,-4.68 c 0.207,0.16 0.391,0.356 0.539,0.578 l 0.164,0.293 z M 41.766,6.426 l 0.285,0.14 16.215,9.383 c 1.023,0.594 1.433,1.848 0.996,2.918 l -0.141,0.285 -8.769,15.227 h 3.554 c 1.293,0 2.344,1.051 2.344,2.344 0,1.187 -0.883,2.168 -2.027,2.324 l -0.317,0.019 h -6.258 v 0.008 H 34.902 L 34.895,39.066 H 21.094 c -1.293,0 -2.344,-1.046 -2.344,-2.343 0,-1.184 0.883,-2.168 2.027,-2.321 l 0.317,-0.023 h 5.695 l -0.566,-0.328 c -1.024,-0.594 -1.434,-1.848 -0.996,-2.918 l 0.14,-0.285 13.488,-23.426 c 0.594,-1.027 1.844,-1.438 2.911,-0.996 z m -0.028,5.371 -11.152,19.363 5.559,3.219 h 8.8 L 53.898,18.84 Z" style="fill:currentColor;fill-opacity:1;fill-rule:nonzero;stroke:none" transform="scale(1.3333333)" /> </g>
</svg>

