<?xml version="1.0" encoding="UTF-8" standalone="no"?> <svg version="1.1" id="I6cba1ba0e1f242b19fb45ea2036ee67620251106144520" width="100" height="100" viewBox="0 0 100 100" xmlns="http://www.w3.org/2000/svg" xmlns:svg="http://www.w3.org/2000/svg"> <defs id="Id6f6c54536cb445ca87c2120866eeb0f20251106144520" /> <g id="I8bcd2e6e41304c1daaea6e1b0d573fd420251106144520"> <path id="Ibe1dbe721d6a4fb4b546f02f8202e56a20251106144520" d="m 8.039,19.199 c -1.586,0.754 -2.684,2.367 -2.684,4.239 0,1.871 1.098,3.484 2.68,4.238 0.61,0.289 1.289,0.449 2.008,0.449 2.59,0 4.687,-2.098 4.687,-4.687 0,-2.59 -2.097,-4.688 -4.687,-4.688 -0.715,0 -1.398,0.16 -2.004,0.449 z m 0.449,-2.961 c 0.5,-0.109 1.024,-0.168 1.555,-0.168 4.07,0 7.367,3.301 7.367,7.368 0,4.066 -3.297,7.367 -7.367,7.367 -0.695,0 -1.367,-0.098 -2.008,-0.278 v 25.055 c 0,6.285 5.098,11.383 11.383,11.383 h 36.164 c 6.285,0 11.383,-5.098 11.383,-11.383 V 19.418 C 66.965,13.133 61.867,8.035 55.582,8.035 H 19.418 c -5.18,0 -9.555,3.465 -10.93,8.203 z m 17.629,13.227 h 22.766 c 1.109,0 2.012,0.898 2.012,2.008 0,1.109 -0.903,2.007 -2.012,2.007 H 26.117 c -1.109,0 -2.012,-0.898 -2.012,-2.007 0,-1.11 0.903,-2.008 2.012,-2.008 z m -2.012,12.723 c 0,-1.11 0.903,-2.008 2.012,-2.008 H 41.52 c 1.109,0 2.007,0.898 2.007,2.008 0,1.109 -0.898,2.007 -2.007,2.007 H 26.117 c -1.109,0 -2.012,-0.898 -2.012,-2.007 z" style="fill:currentColor;fill-opacity:1;fill-rule:nonzero;stroke:none" transform="scale(1.3333333)" /> </g>
</svg>

