<?xml version="1.0" encoding="UTF-8" standalone="no"?> <svg version="1.1" id="Ie7752ee950fe4e8e9eba050f2a14ba4b20251110124419" width="100" height="100" viewBox="0 0 100 100" xmlns="http://www.w3.org/2000/svg" xmlns:svg="http://www.w3.org/2000/svg"> <defs id="If966d7287b5947fdb2629bdd76b9dc3920251110124419" /> <g id="Icd838050dfb8481ea1f1238163f2467420251110124419"> <path id="Id06058d3822d4cf295b893d0c6cd0db620251110124419" d="m 67.5,37.5 c 0,0.215 -0.004,0.426 -0.008,0.637 -1.168,-0.41 -2.43,-0.637 -3.742,-0.637 0,-6.574 -2.418,-12.582 -6.41,-17.188 L 20.312,57.34 c 3.711,3.219 8.34,5.414 13.438,6.144 v 0.266 c 0,1.254 0.203,2.457 0.582,3.586 C 19.254,65.754 7.5,53 7.5,37.5 c 0,-16.57 13.43,-30 30,-30 16.57,0 30,13.43 30,30 z M 17.66,54.688 54.688,17.66 C 50.082,13.668 44.074,11.25 37.5,11.25 c -14.496,0 -26.25,11.754 -26.25,26.25 0,6.574 2.418,12.582 6.41,17.188 z M 45,41.25 c -4.141,0 -7.5,3.359 -7.5,7.5 v 15 c 0,4.141 3.359,7.5 7.5,7.5 h 18.75 c 4.141,0 7.5,-3.359 7.5,-7.5 v -15 c 0,-4.141 -3.359,-7.5 -7.5,-7.5 z M 46.875,60 h 15 c 1.035,0 1.875,0.84 1.875,1.875 0,1.035 -0.84,1.875 -1.875,1.875 h -15 C 45.84,63.75 45,62.91 45,61.875 45,60.84 45.84,60 46.875,60 Z M 45,50.625 c 0,-1.035 0.84,-1.875 1.875,-1.875 h 15 c 1.035,0 1.875,0.84 1.875,1.875 0,1.035 -0.84,1.875 -1.875,1.875 h -15 C 45.84,52.5 45,51.66 45,50.625 Z" style="fill:currentColor;fill-opacity:1;fill-rule:nonzero;stroke:none" transform="scale(1.3333333)" /> </g>
</svg>

