<?xml version="1.0" encoding="UTF-8" standalone="no"?> <svg version="1.1" id="If5da3246de9b48f29e57698d0ac32bf520251110130508" width="100" height="100" viewBox="0 0 100 100" xmlns="http://www.w3.org/2000/svg" xmlns:svg="http://www.w3.org/2000/svg"> <defs id="I1e9f7af30ff944a59640c1a0d937771d20251110130508" /> <g id="Idae7eba02e8949f7989c9868c76d1a0a20251110130508"> <path id="Ie9ea9166d4f94cd59ddbf49ed1edd1a920251110130508" d="m 34.02,10.469 c 1.425,-2.887 5.542,-2.887 6.968,0 l 7.207,14.605 16.117,2.34 c 3.188,0.465 4.458,4.379 2.153,6.625 l -2.836,2.766 C 60.992,35.531 58.035,34.82 54.91,34.82 c -11.094,0 -20.09,8.996 -20.09,20.09 0,1.453 0.157,2.875 0.45,4.238 l -12.18,6.407 c -2.852,1.496 -6.18,-0.922 -5.637,-4.094 L 20.207,45.406 8.543,34.039 c -2.305,-2.246 -1.031,-6.16 2.152,-6.625 l 16.117,-2.34 z m 38.3,44.441 c 0,9.613 -7.793,17.41 -17.41,17.41 -9.617,0 -17.41,-7.797 -17.41,-17.41 0,-9.617 7.793,-17.41 17.41,-17.41 9.617,0 17.41,7.793 17.41,17.41 z M 56.25,44.195 c 0,-0.738 -0.602,-1.34 -1.34,-1.34 -0.738,0 -1.34,0.602 -1.34,1.34 v 9.375 h -9.375 c -0.738,0 -1.34,0.598 -1.34,1.34 0,0.738 0.602,1.34 1.34,1.34 h 9.375 v 9.375 c 0,0.738 0.602,1.34 1.34,1.34 0.738,0 1.34,-0.602 1.34,-1.34 V 56.25 h 9.375 c 0.738,0 1.34,-0.602 1.34,-1.34 0,-0.742 -0.602,-1.34 -1.34,-1.34 H 56.25 Z" style="fill:currentColor;fill-opacity:1;fill-rule:nonzero;stroke:none" transform="scale(1.3333333)" /> </g>
</svg>

