<?xml version="1.0" encoding="UTF-8" standalone="no"?> <svg version="1.1" id="I35409497bfdc404b850e4bafeab0a9ae20251110130508" width="100" height="100" viewBox="0 0 100 100" xmlns="http://www.w3.org/2000/svg" xmlns:svg="http://www.w3.org/2000/svg"> <defs id="I8b98d8e580de4057b285e3ac738c813020251110130508" /> <g id="I94d6588011694e8abf28bd19f6fa66dc20251110130508"> <path id="Ia1c07aa00f1a4531963137172ebb011020251110130508" d="m 52.266,6.938 c 0.914,-0.918 2.398,-0.918 3.312,0 l 12.5,12.5 c 0.914,0.914 0.914,2.398 0,3.312 -0.914,0.918 -2.398,0.918 -3.312,0 l -1.473,-1.469 -5.289,5.281 7.715,7.719 c 0.918,0.914 0.918,2.399 0,3.313 -0.914,0.918 -2.399,0.918 -3.313,0 l -4.594,-4.59 -21.378,21.375 c -2.196,2.199 -5.176,3.433 -8.286,3.433 H 20.504 L 10.25,68.062 c -0.914,0.918 -2.398,0.918 -3.312,0 -0.918,-0.914 -0.918,-2.398 0,-3.312 l 10.25,-10.254 v -7.644 c 0,-3.11 1.234,-6.09 3.433,-8.286 l 1.063,-1.066 4.785,4.781 c 0.914,0.918 2.398,0.918 3.312,0 0.918,-0.914 0.918,-2.398 0,-3.312 L 25,34.184 l 2.934,-2.934 4.785,4.781 c 0.914,0.918 2.398,0.918 3.312,0 0.918,-0.914 0.918,-2.398 0,-3.312 L 31.25,27.934 34.184,25 l 4.785,4.781 c 0.914,0.918 2.398,0.918 3.312,0 0.918,-0.914 0.918,-2.398 0,-3.312 l -4.781,-4.785 4.496,-4.496 -4.59,-4.594 c -0.918,-0.914 -0.918,-2.399 0,-3.313 0.914,-0.918 2.399,-0.918 3.313,0 l 7.719,7.715 5.292,-5.277 -1.464,-1.469 c -0.918,-0.914 -0.918,-2.398 0,-3.312 z m 7.714,11.031 -2.937,-2.938 -5.289,5.281 2.934,2.934 z" style="fill:currentColor;fill-opacity:1;fill-rule:nonzero;stroke:none" transform="scale(1.3333333)" /> </g>
</svg>

