<?xml version="1.0" encoding="UTF-8" standalone="no"?> <svg version="1.1" id="Id8a31b806c3d477286ae8aec98a004f020251110133655" width="100" height="100" viewBox="0 0 100 100" xmlns="http://www.w3.org/2000/svg" xmlns:svg="http://www.w3.org/2000/svg"> <defs id="I40f50bb04c2246769214a854a40b609620251110133655" /> <g id="I56e2c90116eb4034bad19044bda2924920251110133655"> <path id="I51860b7e956b409f88e3b40c4ebb301620251110133655" d="m 33.254,49.922 7.055,-8.578 c 0.687,-0.832 1.918,-0.949 2.75,-0.266 0.777,0.641 0.933,1.754 0.394,2.578 l -0.125,0.172 -4.43,5.383 h 7.59 c 1.578,0 2.477,1.754 1.633,3.023 l -0.113,0.157 -10.137,12.507 c -0.676,0.84 -1.906,0.969 -2.746,0.29 -0.781,-0.633 -0.945,-1.747 -0.414,-2.575 l 0.125,-0.172 7.555,-9.324 h -7.629 c -1.586,0 -2.485,-1.769 -1.625,-3.039 l 0.117,-0.156 7.055,-8.578 z m 7.371,-34.27 c 9.902,0 15.52,6.555 16.336,14.469 h 0.25 c 6.375,0 11.539,5.152 11.539,11.508 0,6.355 -5.164,11.508 -11.539,11.508 l -6.441,0.004 c 0.496,-0.657 0.792,-1.473 0.792,-2.36 0,-0.547 -0.113,-1.07 -0.316,-1.543 h 6.262 c 4.051,0 7.336,-3.3 7.336,-7.375 0,-4.074 -3.285,-7.379 -7.336,-7.379 h -2.223 c -1.172,0 -2.199,-0.925 -2.199,-2.105 0,-7.535 -5.801,-12.828 -12.461,-12.828 -6.656,0 -12.461,5.387 -12.461,12.828 0,1.18 -1.023,2.105 -2.199,2.105 h -2.219 c -4.051,0 -7.34,3.305 -7.34,7.379 0,4.075 3.289,7.375 7.34,7.375 h 6.258 c -0.203,0.473 -0.316,0.996 -0.316,1.543 0,0.887 0.292,1.703 0.792,2.36 l -6.441,-0.004 c -6.371,0 -11.535,-5.153 -11.535,-11.508 0,-6.227 4.961,-11.301 11.156,-11.5 l 0.629,-0.008 C 25.113,22.156 30.727,15.652 40.625,15.652 Z M 31.246,6.25 c 5.039,0 9.504,2.535 12.168,6.414 -0.902,-0.109 -1.836,-0.164 -2.793,-0.164 -0.883,0 -1.742,0.047 -2.578,0.137 -1.848,-1.59 -4.227,-2.539 -6.797,-2.539 -5.133,0 -9.504,3.785 -10.379,8.898 l -0.492,2.859 c -0.129,0.75 -0.777,1.301 -1.539,1.301 h -3.043 c -3.223,0 -5.836,2.672 -5.836,5.969 0,1.727 0.719,3.285 1.863,4.375 -0.672,1.008 -1.222,2.102 -1.629,3.27 C 7.789,34.895 6.246,31.969 6.246,28.688 6.246,23.02 10.84,18.43 16.504,18.43 h 0.223 C 17.941,11.488 24,6.25 31.246,6.25 Z" style="fill:currentColor;fill-opacity:1;fill-rule:nonzero;stroke:none" transform="scale(1.3333333)" /> </g>
</svg>

