<?xml version="1.0" encoding="UTF-8" standalone="no"?> <svg version="1.1" id="Idb535444f1b14376ab1f21ef13f61a5320251106161453" width="100" height="100" viewBox="0 0 100 100" xmlns="http://www.w3.org/2000/svg" xmlns:svg="http://www.w3.org/2000/svg"> <defs id="I58ff7d6817a64b72b19fcf44a2a7d11520251106161453" /> <g id="Icc6eaa5939fd42648dc9fbb987f6ead920251106161453"> <path id="I1fe05c30bba546309ca29337f03910e520251106161453" d="M 37.5,6.25 V 25 c 0,3.453 2.797,6.25 6.25,6.25 H 62.5 v 32.812 c 0,2.59 -2.098,4.688 -4.688,4.688 H 40.625 V 53.121 c 0,-3.453 -2.797,-6.246 -6.25,-6.246 H 31.25 V 43.75 C 31.25,40.297 28.453,37.5 25,37.5 h -9.375 c -1.137,0 -2.207,0.305 -3.125,0.836 V 10.938 c 0,-2.59 2.098,-4.688 4.688,-4.688 z m 4.688,1.562 V 25 c 0,0.863 0.699,1.562 1.562,1.562 H 60.938 Z M 12.5,50 v -4.688 c 0,-2.589 2.098,-4.687 4.688,-4.687 h 6.25 c 2.589,0 4.687,2.098 4.687,4.687 V 50 h 4.687 c 2.59,0 4.688,2.098 4.688,4.688 v 4.687 h -9.375 v -1.563 c 0,-0.863 -0.699,-1.562 -1.563,-1.562 -0.863,0 -1.562,0.699 -1.562,1.562 v 1.563 h -9.375 v -1.563 c 0,-0.863 -0.699,-1.562 -1.563,-1.562 -0.863,0 -1.562,0.699 -1.562,1.562 v 1.563 H 3.125 V 54.688 C 3.125,52.098 5.223,50 7.812,50 Z m 3.125,-4.688 V 50 H 25 V 45.312 C 25,44.449 24.301,43.75 23.438,43.75 h -6.25 c -0.864,0 -1.563,0.699 -1.563,1.562 z M 28.125,62.5 H 37.5 v 4.688 c 0,2.589 -2.098,4.687 -4.688,4.687 h -25 c -2.589,0 -4.687,-2.098 -4.687,-4.687 V 62.5 H 12.5 v 1.562 c 0,0.864 0.699,1.563 1.562,1.563 0.864,0 1.563,-0.699 1.563,-1.563 V 62.5 H 25 v 1.562 c 0,0.864 0.699,1.563 1.562,1.563 0.864,0 1.563,-0.699 1.563,-1.563 z" style="fill:currentColor;fill-opacity:1;fill-rule:nonzero;stroke:none" transform="scale(1.3333333)" /> </g>
</svg>

