<?xml version="1.0" encoding="UTF-8" standalone="no"?> <svg version="1.1" id="Id3e6ac17c6f74c20afdae5b40d2a6cf620251106161453" width="100" height="100" viewBox="0 0 100 100" xmlns="http://www.w3.org/2000/svg" xmlns:svg="http://www.w3.org/2000/svg"> <defs id="I641a9b3fdc8e4a8b951be71ba48ca66420251106161453" /> <g id="Id9898deca1904fa9801a63e36d5691ff20251106161453"> <path id="Ia2ef388a2b3b42d386227614d212e2a420251106161453" d="m 21.094,18.75 c 1.187,0 2.168,0.883 2.324,2.027 l 0.02,0.317 v 39.652 l 6.937,-6.934 c 0.832,-0.832 2.133,-0.91 3.051,-0.226 l 0.262,0.226 c 0.832,0.833 0.91,2.133 0.226,3.051 L 33.688,57.125 22.75,68.062 c -0.832,0.833 -2.133,0.911 -3.051,0.227 L 19.438,68.062 8.5,57.125 c -0.918,-0.914 -0.918,-2.398 0,-3.313 0.832,-0.832 2.133,-0.91 3.051,-0.226 l 0.261,0.226 6.938,6.934 V 21.094 c 0,-1.293 1.051,-2.344 2.344,-2.344 z m 32.804,0 c 1.188,0 2.168,0.883 2.325,2.027 l 0.019,0.317 v 39.652 l 6.938,-6.934 c 0.832,-0.832 2.132,-0.91 3.05,-0.226 l 0.262,0.226 c 0.832,0.833 0.91,2.133 0.227,3.051 l -0.227,0.262 -10.937,10.937 c -0.832,0.833 -2.133,0.911 -3.051,0.227 L 52.242,68.062 41.305,57.125 c -0.914,-0.914 -0.914,-2.398 0,-3.313 0.832,-0.832 2.133,-0.91 3.05,-0.226 l 0.262,0.226 6.938,6.934 V 21.094 c 0,-1.293 1.05,-2.344 2.343,-2.344 z M 21.094,6.25 c 8.199,0 14.844,6.645 14.844,14.844 0,6.265 -3.883,11.625 -9.372,13.801 v -5.247 c 2.817,-1.804 4.684,-4.96 4.684,-8.554 0,-5.61 -4.547,-10.156 -10.156,-10.156 -5.61,0 -10.156,4.546 -10.156,10.156 0,3.594 1.867,6.754 4.687,8.558 v 5.246 C 10.133,32.719 6.25,27.359 6.25,21.094 6.25,12.895 12.895,6.25 21.094,6.25 Z m 32.804,0 c 8.2,0 14.844,6.645 14.844,14.844 0,6.265 -3.883,11.625 -9.371,13.801 v -5.247 c 2.817,-1.804 4.684,-4.96 4.684,-8.554 0,-5.61 -4.547,-10.156 -10.157,-10.156 -5.609,0 -10.156,4.546 -10.156,10.156 0,3.594 1.867,6.754 4.688,8.558 v 5.246 C 42.938,32.719 39.055,27.359 39.055,21.094 39.055,12.895 45.699,6.25 53.898,6.25 Z" style="fill:currentColor;fill-opacity:1;fill-rule:nonzero;stroke:none" transform="scale(1.3333333)" /> </g>
</svg>

