<?xml version="1.0" encoding="UTF-8" standalone="no"?> <svg version="1.1" id="I8dafac861f8149eb822f5decfea9df8320251110123030" width="100" height="100" viewBox="0 0 100 100" xmlns="http://www.w3.org/2000/svg" xmlns:svg="http://www.w3.org/2000/svg"> <defs id="Ideda347ae7054c07bfc0d5357ce7e95c20251110123030"> <linearGradient x1="5.5675201" y1="19.063499" x2="8.2906904" y2="27.2176" gradientUnits="userSpaceOnUse" gradientTransform="scale(2.678571)" spreadMethod="pad" id="Ifd4205ebc5834959898d949fcf91e9c020251110123030"> <stop style="stop-opacity:1;stop-color:#9c6cfe" offset="0" id="If935a7333b504124afd184023155692820251110123030" /> <stop style="stop-opacity:1;stop-color:#9c6cfe" offset="0.125321" id="I11f3c7b925934cd88e73bff92f31758020251110123030" /> <stop style="stop-opacity:1;stop-color:#7a41dc" offset="1" id="I9d0cd599b9734a7da2786010b58c769e20251110123030" /> </linearGradient> <linearGradient x1="9.5009604" y1="17.0476" x2="13.3256" y2="30.448299" gradientUnits="userSpaceOnUse" gradientTransform="scale(2.678571)" spreadMethod="pad" id="Ie85a3e225c4f41c7ad88975c4bd74d3120251110123030"> <stop style="stop-opacity:0;stop-color:#885edb" offset="0" id="I1fafeb05ae6a4943ae302d411a7eec2820251110123030" /> <stop style="stop-opacity:1;stop-color:#e362f8" offset="1" id="I569b2b6543844468bf5d702d7e15f91a20251110123030" /> </linearGradient> <linearGradient x1="7.2713299" y1="9.1299496" x2="11.6032" y2="16.047001" gradientUnits="userSpaceOnUse" gradientTransform="scale(2.678571)" spreadMethod="pad" id="I4c16b1aa1ba447c9a1ff21197887006620251110123030"> <stop style="stop-opacity:1;stop-color:#9c6cfe" offset="0" id="I5d7f3f29fa034c01a18a314492e6682320251110123030" /> <stop style="stop-opacity:1;stop-color:#9c6cfe" offset="0.125321" id="I99a722ce3b1a469a8aaa3861b76c4ccd20251110123030" /> <stop style="stop-opacity:1;stop-color:#7a41dc" offset="1" id="Ia9593ce4216a44f2a10aa173ef95380e20251110123030" /> </linearGradient> <radialGradient fx="0" fy="0" cx="0" cy="0" r="1" gradientUnits="userSpaceOnUse" gradientTransform="matrix(38.555924,45.247188,-81.505612,69.452364,30.0825,-4.532973)" spreadMethod="pad" id="I513b27fbdeae4d3b881d20456d96694420251110123030"> <stop style="stop-opacity:1;stop-color:#fab500" offset="0" id="Icfa7fb8f45504388ab395b8cd01cce8720251110123030" /> <stop style="stop-opacity:1;stop-color:#fe8401" offset="0.535356" id="I1d95a3f655ce4a39b1595cf1f1e5fe3120251110123030" /> <stop style="stop-opacity:1;stop-color:#fb5937" offset="1" id="I2f51abb9bc1d401e9175dfa783f4d6b920251110123030" /> </radialGradient> </defs> <g id="Ic919d1780c6f42098604089e026713a720251110123030"> <path id="I764ec49c587a4f8cb771a6bb7e82c0ae20251110123030" d="m 9.297,64.07 c 3.508,3.7 8.945,5.575 16.152,5.575 7.207,0 12.645,-1.875 16.153,-5.575 4.074,-4.312 3.945,-9.515 3.937,-9.867 0,-0.008 0,-0.015 0,-0.015 0,-3.293 -2.68,-5.973 -5.973,-5.973 H 11.332 c -3.293,0 -5.973,2.68 -5.973,5.867 0,0.004 0,0.016 0,0.031 -0.011,0.508 -0.113,5.672 3.938,9.957 z" transform="scale(1.3333333)" style="fill:url(#Ifd4205ebc5834959898d949fcf91e9c020251110123030);stroke:none" /> <path d="m 9.297,64.07 c 3.508,3.7 8.945,5.575 16.152,5.575 7.207,0 12.645,-1.875 16.153,-5.575 4.074,-4.312 3.945,-9.515 3.937,-9.867 0,-0.008 0,-0.015 0,-0.015 0,-3.293 -2.68,-5.973 -5.973,-5.973 H 11.332 c -3.293,0 -5.973,2.68 -5.973,5.867 0,0.004 0,0.016 0,0.031 -0.011,0.508 -0.113,5.672 3.938,9.957 z" transform="scale(1.3333333)" style="fill:url(#Ie85a3e225c4f41c7ad88975c4bd74d3120251110123030);stroke:none" opacity="1" id="I5a9b1cce8d3f4cd08ba6317e8c21011b20251110123030" /> <path id="If09f5ab68a974e2f93e68bcee57c47ca20251110123030" d="m 25.445,44.195 c -6.265,0 -11.383,-5.113 -11.383,-11.383 0,-6.269 5.118,-11.382 11.383,-11.382 6.27,0 11.387,5.113 11.387,11.382 0,6.27 -5.117,11.383 -11.387,11.383 z" transform="scale(1.3333333)" style="fill:url(#I4c16b1aa1ba447c9a1ff21197887006620251110123030);stroke:none" /> <path id="I5971ca05cf7b4c778170e255eec5646120251110123030" d="m 47.543,37.5 c -0.348,0 -0.723,-0.055 -1.07,-0.16 -1.368,-0.457 -2.278,-1.742 -2.278,-3.188 V 29.438 C 40.445,29.09 37.5,25.93 37.5,22.098 v -9.375 c 0,-4.071 3.293,-7.368 7.367,-7.368 h 17.41 c 4.071,0 7.368,3.297 7.368,7.368 v 9.375 c 0,4.07 -3.297,7.367 -7.368,7.367 h -7.019 l -5.035,6.695 c -0.641,0.86 -1.633,1.34 -2.68,1.34 z" transform="scale(1.3333333)" style="fill:url(#I513b27fbdeae4d3b881d20456d96694420251110123030);stroke:none" /> </g>
</svg>

