<?xml version="1.0" encoding="UTF-8" standalone="no"?> <svg version="1.1" id="Ie2ab3a6c8239403b910a4c093b364b9020251110135155" width="100" height="100" viewBox="0 0 100 100" xmlns="http://www.w3.org/2000/svg" xmlns:svg="http://www.w3.org/2000/svg"> <defs id="Idf669e4efe894a1f963b252c3440ae1b20251110135155" /> <g id="I11bec7304b8642bcaf7dec4e37d31b1620251110135155"> <path id="I7108871d65ae4fbd80da45ebee1b416420251110135155" d="m 65.625,18.75 c 0,-1.727 -1.398,-3.125 -3.125,-3.125 H 34.375 c -1.727,0 -3.125,1.398 -3.125,3.125 0,1.727 1.398,3.125 3.125,3.125 H 62.5 c 1.727,0 3.125,-1.398 3.125,-3.125 z M 25,18.75 c 0,-1.727 -1.398,-3.125 -3.125,-3.125 H 12.5 c -1.727,0 -3.125,1.398 -3.125,3.125 0,1.727 1.398,3.125 3.125,3.125 h 9.375 C 23.602,21.875 25,20.477 25,18.75 Z m 40.625,12.5 c 0,-1.727 -1.398,-3.125 -3.125,-3.125 H 34.375 c -1.727,0 -3.125,1.398 -3.125,3.125 0,1.727 1.398,3.125 3.125,3.125 H 62.5 c 1.727,0 3.125,-1.398 3.125,-3.125 z M 25,31.25 c 0,-1.727 -1.398,-3.125 -3.125,-3.125 H 12.5 c -1.727,0 -3.125,1.398 -3.125,3.125 0,1.727 1.398,3.125 3.125,3.125 h 9.375 C 23.602,34.375 25,32.977 25,31.25 Z m 40.625,12.5 c 0,-1.727 -1.398,-3.125 -3.125,-3.125 H 34.375 c -1.727,0 -3.125,1.398 -3.125,3.125 0,1.727 1.398,3.125 3.125,3.125 H 62.5 c 1.727,0 3.125,-1.398 3.125,-3.125 z M 25,43.75 c 0,-1.727 -1.398,-3.125 -3.125,-3.125 H 12.5 c -1.727,0 -3.125,1.398 -3.125,3.125 0,1.727 1.398,3.125 3.125,3.125 h 9.375 C 23.602,46.875 25,45.477 25,43.75 Z m 40.625,12.5 c 0,-1.727 -1.398,-3.125 -3.125,-3.125 H 34.375 c -1.727,0 -3.125,1.398 -3.125,3.125 0,1.727 1.398,3.125 3.125,3.125 H 62.5 c 1.727,0 3.125,-1.398 3.125,-3.125 z M 25,56.25 c 0,-1.727 -1.398,-3.125 -3.125,-3.125 H 12.5 c -1.727,0 -3.125,1.398 -3.125,3.125 0,1.727 1.398,3.125 3.125,3.125 h 9.375 C 23.602,59.375 25,57.977 25,56.25 Z" style="fill:currentColor;fill-opacity:1;fill-rule:nonzero;stroke:none" transform="scale(1.3333333)" /> </g>
</svg>

