<?xml version="1.0" encoding="UTF-8" standalone="no"?> <svg version="1.1" id="I0df45d900b604222a128e42bd2553f7420251110123031" width="100" height="100" viewBox="0 0 100 100" xmlns="http://www.w3.org/2000/svg" xmlns:svg="http://www.w3.org/2000/svg"> <defs id="Ibb451f7f6fbb481f886fbe94c8e1750420251110123031"> <linearGradient x1="5.8081598" y1="15.0636" x2="8.3935499" y2="23.3188" gradientUnits="userSpaceOnUse" gradientTransform="scale(3.125)" spreadMethod="pad" id="I1d5af3a0a81245bb99dde07a5a7342d020251110123031"> <stop style="stop-opacity:1;stop-color:#9c6cfe" offset="0" id="I1d14a372a3074bd09f120a22c4e0844420251110123031" /> <stop style="stop-opacity:1;stop-color:#9c6cfe" offset="0.125321" id="Id2b8da8b52214b32b4502e59dc8e37fc20251110123031" /> <stop style="stop-opacity:1;stop-color:#7a41dc" offset="1" id="I6cb1cfa5e47c4c5591e930ef8817fc0120251110123031" /> </linearGradient> <linearGradient x1="10.0032" y1="13.0475" x2="13.6233" y2="26.572901" gradientUnits="userSpaceOnUse" gradientTransform="scale(3.125)" spreadMethod="pad" id="Iaefd13986d7d411fb8ff0919422e567220251110123031"> <stop style="stop-opacity:0;stop-color:#885edb" offset="0" id="I0b2112fc47044b61aabf29a991877e3320251110123031" /> <stop style="stop-opacity:1;stop-color:#e362f8" offset="1" id="I5f76c056c1494d3d8e9f0294ab9deb7e20251110123031" /> </linearGradient> <radialGradient fx="0" fy="0" cx="0" cy="0" r="1" gradientUnits="userSpaceOnUse" gradientTransform="matrix(0,20.3125,-19.238281,0,53.125,56.25)" spreadMethod="pad" id="Ibdd88df0b6b6403390d3ddbcfb0a831f20251110123031"> <stop style="stop-opacity:0.50000763;stop-color:#30116e" offset="0" id="I86fb5ca65c174d85a44f0ce7c7689cd820251110123031" /> <stop style="stop-opacity:0.50000763;stop-color:#30116e" offset="0.423077" id="Ibeaa89598175450d999ee0d2f38faa0c20251110123031" /> <stop style="stop-opacity:0;stop-color:#30116e" offset="1" id="Iae9461e8decd4305a2a4fb95e75e0a0820251110123031" /> </radialGradient> <linearGradient x1="7.37853" y1="3.33424" x2="12.4749" y2="11.472" gradientUnits="userSpaceOnUse" gradientTransform="scale(3.125)" spreadMethod="pad" id="I7f94ff09e59049dcad7ddae90d787c8020251110123031"> <stop style="stop-opacity:1;stop-color:#9c6cfe" offset="0" id="If9cd4ec3a9834948a685182f07b937ec20251110123031" /> <stop style="stop-opacity:1;stop-color:#9c6cfe" offset="0.125321" id="Ib475db4238b945fc8c610996176762d120251110123031" /> <stop style="stop-opacity:1;stop-color:#7a41dc" offset="1" id="I177284ed7cce4079a9736cfe3e61734720251110123031" /> </linearGradient> <linearGradient x1="12" y1="12.3434" x2="23.915899" y2="24.030199" gradientUnits="userSpaceOnUse" gradientTransform="scale(3.125)" spreadMethod="pad" id="I3acae827525d49bebd6b655008fc19dc20251110123031"> <stop style="stop-opacity:1;stop-color:#29c3ff" offset="0" id="I12dc0dbea3794b81b37f3c693d52e3a020251110123031" /> <stop style="stop-opacity:1;stop-color:#0078d4" offset="1" id="I21e633e518d54ee6a5d6dd16483e3aec20251110123031" /> </linearGradient> </defs> <g id="I8b6a8a3bc59b431abd77e769aa1f9f0120251110123031"> <path id="I0c52a42aa6514e4f85d1d754f89e4eb020251110123031" d="M 41.43,43.75 H 13.289 c -3.883,0 -7.027,3.148 -7.027,7.027 v 2.875 c 0,1.789 0.554,3.532 1.593,4.989 4.821,6.761 12.704,10.113 23.395,10.113 4.316,0 8.176,-0.547 11.562,-1.645 C 39.539,63.98 37.5,59.574 37.5,54.688 c 0,-4.157 1.473,-7.965 3.93,-10.938 z" transform="scale(1.3333333)" style="fill:url(#I1d5af3a0a81245bb99dde07a5a7342d020251110123031);stroke:none" /> <path d="M 41.43,43.75 H 13.289 c -3.883,0 -7.027,3.148 -7.027,7.027 v 2.875 c 0,1.789 0.554,3.532 1.593,4.989 4.821,6.761 12.704,10.113 23.395,10.113 4.316,0 8.176,-0.547 11.562,-1.645 C 39.539,63.98 37.5,59.574 37.5,54.688 c 0,-4.157 1.473,-7.965 3.93,-10.938 z" transform="scale(1.3333333)" style="fill:url(#Iaefd13986d7d411fb8ff0919422e567220251110123031);stroke:none" opacity="1" id="I5bfd46f8c95e45cd9429fabcad60982020251110123031" /> <path d="M 41.43,43.75 H 13.289 c -3.883,0 -7.027,3.148 -7.027,7.027 v 2.875 c 0,1.789 0.554,3.532 1.593,4.989 4.821,6.761 12.704,10.113 23.395,10.113 4.316,0 8.176,-0.547 11.562,-1.645 C 39.539,63.98 37.5,59.574 37.5,54.688 c 0,-4.157 1.473,-7.965 3.93,-10.938 z" transform="scale(1.3333333)" style="fill:url(#Ibdd88df0b6b6403390d3ddbcfb0a831f20251110123031);stroke:none" opacity="1" id="I23a0252a27274e17814d702409ae4dbf20251110123031" /> <path id="Ia915ad045a7349f782df69dfb777d15520251110123031" d="m 31.25,6.266 c 8.633,0 15.625,6.996 15.625,15.625 0,8.629 -6.992,15.625 -15.625,15.625 -8.629,0 -15.625,-6.996 -15.625,-15.625 0,-8.629 6.996,-15.625 15.625,-15.625 z" transform="scale(1.3333333)" style="fill:url(#I7f94ff09e59049dcad7ddae90d787c8020251110123031);stroke:none" /> <path id="I5ca1974872354cd98798bc0fafe6973e20251110123031" d="M 54.496,37.5 C 45.156,37.602 37.602,45.152 37.5,54.496 Z M 40.988,65.07 C 39.887,63.613 39.008,61.98 38.41,60.215 L 60.219,38.406 c 1.761,0.602 3.398,1.477 4.851,2.582 z m 3.317,3.313 c 1.453,1.105 3.09,1.98 4.851,2.582 L 70.965,49.156 C 70.367,47.391 69.488,45.758 68.383,44.301 Z M 71.871,54.875 C 71.77,64.219 64.219,71.77 54.879,71.871 Z" transform="scale(1.3333333)" style="fill:url(#I3acae827525d49bebd6b655008fc19dc20251110123031);stroke:none" /> </g>
</svg>

