<?xml version="1.0" encoding="UTF-8" standalone="no"?> <svg version="1.1" id="I71f61daaa0fd4a14832aafe29c35a33320251106154012" width="100" height="100" viewBox="0 0 100 100" xmlns="http://www.w3.org/2000/svg" xmlns:svg="http://www.w3.org/2000/svg"> <defs id="I944e5347f0bd4fc180580aed634834b820251106154012" /> <g id="I13fd497c87eb452bb30f96f3ad8d6b7120251106154012"> <path id="I18eee84ee7794e07829610379d2dfd4a20251106154012" d="m 17.965,9.375 c 3.883,0 7.031,3.148 7.031,7.027 v 42.196 c 0,3.879 -3.148,7.027 -7.031,7.027 -3.879,0 -7.027,-3.148 -7.027,-7.027 V 16.402 c 0,-3.879 3.148,-7.027 7.027,-7.027 z m 20.312,12.5 c 3.883,0 7.032,3.148 7.032,7.027 v 29.696 c 0,3.879 -3.149,7.027 -7.032,7.027 -3.879,0 -7.027,-3.148 -7.027,-7.027 V 28.902 c 0,-3.879 3.148,-7.027 7.027,-7.027 z m 20.313,12.5 c 3.883,0 7.031,3.148 7.031,7.027 v 17.196 c 0,3.879 -3.148,7.027 -7.031,7.027 -3.879,0 -7.028,-3.148 -7.028,-7.027 V 41.402 c 0,-3.879 3.149,-7.027 7.028,-7.027 z M 17.965,14.062 c -1.293,0 -2.34,1.047 -2.34,2.34 v 42.196 c 0,1.293 1.047,2.34 2.34,2.34 1.293,0 2.344,-1.047 2.344,-2.34 V 16.402 c 0,-1.293 -1.051,-2.34 -2.344,-2.34 z m 20.312,12.5 c -1.293,0 -2.339,1.047 -2.339,2.34 v 29.696 c 0,1.293 1.046,2.34 2.339,2.34 1.293,0 2.344,-1.047 2.344,-2.34 V 28.902 c 0,-1.293 -1.051,-2.34 -2.344,-2.34 z m 20.313,12.5 c -1.293,0 -2.34,1.047 -2.34,2.34 v 17.196 c 0,1.293 1.047,2.34 2.34,2.34 1.293,0 2.344,-1.047 2.344,-2.34 V 41.402 c 0,-1.293 -1.051,-2.34 -2.344,-2.34 z" style="fill:currentColor;fill-opacity:1;fill-rule:nonzero;stroke:none" transform="scale(1.3333333)" /> </g>
</svg>

