<?xml version="1.0" encoding="UTF-8" standalone="no"?> <svg version="1.1" id="I1114fb06ba49459d8fb34a996716fe4320251106155157" width="100" height="100" viewBox="0 0 100 100" xmlns="http://www.w3.org/2000/svg" xmlns:svg="http://www.w3.org/2000/svg"> <defs id="I658f5f9e5a104aadb89be2c65aabbb1320251106155157" /> <g id="Icd9185433fb440ffa8a89fb5c66d4ae520251106155157"> <path id="I0e525d0d17d84c0ba2f6af5e7aaa8f7420251106155157" d="m 55.469,6.25 c 3.722,0 6.765,2.891 7.015,6.551 l 0.016,0.48 v 48.438 c 0,3.722 -2.891,6.765 -6.551,7.015 l -0.48,0.016 H 19.531 c -3.722,0 -6.769,-2.891 -7.015,-6.551 L 12.5,61.719 V 13.281 c 0,-3.722 2.891,-6.769 6.551,-7.015 L 19.531,6.25 Z M 21.891,20.328 c 0,2.586 2.097,4.688 4.687,4.688 h 21.875 c 2.59,0 4.688,-2.102 4.688,-4.688 0,-2.59 -2.098,-4.687 -4.688,-4.687 H 26.578 c -2.59,0 -4.687,2.097 -4.687,4.687 z m 0,34.375 c 0,2.59 2.097,4.692 4.687,4.692 h 21.875 c 2.59,0 4.688,-2.102 4.688,-4.692 0,-2.586 -2.098,-4.687 -4.688,-4.687 H 26.578 c -2.59,0 -4.687,2.101 -4.687,4.687 z" style="fill:currentColor;fill-opacity:1;fill-rule:nonzero;stroke:none" transform="scale(1.3333333)" /> </g>
</svg>

