<?xml version="1.0" encoding="UTF-8" standalone="no"?> <svg version="1.1" id="I7d5e070bc4eb498b828d4a71364b126d20251106143238" width="100" height="100" viewBox="0 0 100 100" xmlns="http://www.w3.org/2000/svg" xmlns:svg="http://www.w3.org/2000/svg"> <defs id="I95d2e1cf2c7a4dabae76aa7b0bb2964220251106143238" /> <g id="Idaa6f4bccd54449fa6318ecb34c1c03a20251106143238"> <path id="I0ca93243ef0649689b2299f085223f7a20251106143238" d="m 58.258,8.035 c 4.808,0 8.707,3.899 8.707,8.707 V 38.84 c -1.238,-0.93 -2.586,-1.719 -4.02,-2.348 V 25.453 h -50.89 v 32.805 c 0,2.59 2.097,4.687 4.687,4.687 h 19.75 c 0.629,1.434 1.418,2.782 2.348,4.02 H 16.742 c -4.808,0 -8.707,-3.899 -8.707,-8.707 V 16.742 c 0,-4.808 3.899,-8.707 8.707,-8.707 z m 0,4.02 H 16.742 c -2.59,0 -4.687,2.097 -4.687,4.687 v 4.696 h 50.89 v -4.696 c 0,-2.59 -2.097,-4.687 -4.687,-4.687 z M 72.32,54.91 c 0,9.617 -7.793,17.41 -17.41,17.41 -9.617,0 -17.41,-7.793 -17.41,-17.41 0,-9.617 7.793,-17.41 17.41,-17.41 9.617,0 17.41,7.793 17.41,17.41 z m -7.086,-7.644 c -0.523,-0.52 -1.371,-0.52 -1.894,0 l -12.445,12.449 -4.411,-4.41 c -0.523,-0.524 -1.371,-0.524 -1.894,0 -0.524,0.519 -0.524,1.371 0,1.89 l 5.355,5.36 c 0.524,0.523 1.371,0.523 1.895,0 L 65.234,49.16 c 0.52,-0.523 0.52,-1.371 0,-1.894 z" style="fill:currentColor;fill-opacity:1;fill-rule:nonzero;stroke:none" transform="scale(1.3333333)" /> </g>
</svg>

