<?xml version="1.0" encoding="UTF-8" standalone="no"?> <svg version="1.1" id="Ie035313599364633b980a6cd9f91fa9320251110123030" width="100" height="100" viewBox="0 0 100 100" xmlns="http://www.w3.org/2000/svg" xmlns:svg="http://www.w3.org/2000/svg"> <defs id="I9dbd3ee07dac4a9d90d7064f972e403220251110123030"> <linearGradient x1="16.8493" y1="16.7976" x2="18.7871" y2="22.988701" gradientUnits="userSpaceOnUse" gradientTransform="scale(2.678571)" spreadMethod="pad" id="I370b7ceb0c964e4eb0a0da5ac45353a120251110123030"> <stop style="stop-opacity:1;stop-color:#9c6cfe" offset="0" id="I0cb2ebb23a30448793d9f2bbf218106b20251110123030" /> <stop style="stop-opacity:1;stop-color:#9c6cfe" offset="0.125321" id="Iaa565e2da9ef41d69349f6bd58423a0420251110123030" /> <stop style="stop-opacity:1;stop-color:#7a41dc" offset="1" id="I5455747e002949b3ad3428f70ced5baa20251110123030" /> </linearGradient> <radialGradient fx="0" fy="0" cx="0" cy="0" r="1" gradientUnits="userSpaceOnUse" gradientTransform="matrix(21.162305,-2.34375,2.089175,18.863681,33.405804,50.892857)" spreadMethod="pad" id="I397ee25cffb0470f8dc85faf5513165920251110123030"> <stop style="stop-opacity:0.50000763;stop-color:#3b148a" offset="0" id="I72c42fc5b659405bb3231c1f49b1d9b220251110123030" /> <stop style="stop-opacity:0.50000763;stop-color:#3b148a" offset="0.392122" id="I1833a280e2c3479d81c5bb65fb9e4d6b20251110123030" /> <stop style="stop-opacity:0;stop-color:#3b148a" offset="1" id="Idbc821c954214506a27f83de1f46ff5320251110123030" /> </radialGradient> <linearGradient x1="5.56706" y1="17.063499" x2="8.2905102" y2="25.2174" gradientUnits="userSpaceOnUse" gradientTransform="scale(2.678571)" spreadMethod="pad" id="I970a9dd78e6e42b5bb38c01b2eeed01a20251110123030"> <stop style="stop-opacity:1;stop-color:#bd96ff" offset="0" id="I62ab481fe4a04bbb9252c5306a8633f620251110123030" /> <stop style="stop-opacity:1;stop-color:#bd96ff" offset="0.125321" id="Ic5be9b0cfa09456cbf75e38932f0906c20251110123030" /> <stop style="stop-opacity:1;stop-color:#9c6cfe" offset="1" id="Ie6decc85d34f49178e79eb7adabd859020251110123030" /> </linearGradient> <linearGradient x1="9.5" y1="15.0476" x2="13.3251" y2="28.448" gradientUnits="userSpaceOnUse" gradientTransform="scale(2.678571)" spreadMethod="pad" id="I63ad0fdceb0543eb9d0a25fd5cfd1a4e20251110123030"> <stop style="stop-opacity:0;stop-color:#885edb" offset="0" id="I3a6bf5d00f194b1689aaed5824b69c8320251110123030" /> <stop style="stop-opacity:1;stop-color:#e362f8" offset="1" id="I63f7cac9d2fe406c9c26e1d3d995791e20251110123030" /> </linearGradient> <linearGradient x1="18.1646" y1="7.9305501" x2="21.7321" y2="13.627" gradientUnits="userSpaceOnUse" gradientTransform="scale(2.678571)" spreadMethod="pad" id="I8fa368ef5ddd4153a6b15ffaf0e27e0620251110123030"> <stop style="stop-opacity:1;stop-color:#9c6cfe" offset="0" id="If76e46139aa14a45a367fbd9e766e2b620251110123030" /> <stop style="stop-opacity:1;stop-color:#9c6cfe" offset="0.125321" id="I23ad6583876e4fef9bb94bb7eabaf1ab20251110123030" /> <stop style="stop-opacity:1;stop-color:#7a41dc" offset="1" id="I5d501f5a78174446a38224841d69d37120251110123030" /> </linearGradient> <linearGradient x1="7.1402302" y1="6.1964202" x2="11.727" y2="13.5204" gradientUnits="userSpaceOnUse" gradientTransform="scale(2.678571)" spreadMethod="pad" id="I3ddaa78c96764816b2374402da354a3320251110123030"> <stop style="stop-opacity:1;stop-color:#bd96ff" offset="0" id="I0f323d3de41649d4be0e73839a811db720251110123030" /> <stop style="stop-opacity:1;stop-color:#bd96ff" offset="0.125321" id="I21a359ca1ed54e2387b951b1b0dec06120251110123030" /> <stop style="stop-opacity:1;stop-color:#9c6cfe" offset="1" id="Ic0661c86d9994e59bbc8d517b052794720251110123030" /> </linearGradient> </defs> <g id="I7011e72da42a457abd2bbeb66605603a20251110123030"> <path id="I587513fca7be4a888f75d8587c55824620251110123030" d="m 53.57,58.93 c 16.071,0 16.071,-10.047 16.071,-10.047 0,-3.328 -2.696,-6.028 -6.028,-6.028 H 43.512 c -3.328,0 -6.028,2.7 -6.028,6.028 0,0 0,10.047 16.071,10.047 z" transform="scale(1.3333333)" style="fill:url(#I370b7ceb0c964e4eb0a0da5ac45353a120251110123030);stroke:none" /> <path d="m 53.57,58.93 c 16.071,0 16.071,-10.047 16.071,-10.047 0,-3.328 -2.696,-6.028 -6.028,-6.028 H 43.512 c -3.328,0 -6.028,2.7 -6.028,6.028 0,0 0,10.047 16.071,10.047 z" transform="scale(1.3333333)" style="fill:url(#I397ee25cffb0470f8dc85faf5513165920251110123030);stroke:none" opacity="1" id="Ibb86d016ccb3484c99d1c51437471d0320251110123030" /> <path id="Ic3c4dae728da487181cb8591f7cca38220251110123030" d="m 5.355,48.883 c 0,-3.328 2.7,-6.028 6.028,-6.028 h 28.125 c 3.328,0 6.027,2.7 6.027,6.028 v 1.34 c 0,0 0,14.062 -20.09,14.062 -20.09,0 -20.09,-14.062 -20.09,-14.062 z" transform="scale(1.3333333)" style="fill:url(#I970a9dd78e6e42b5bb38c01b2eeed01a20251110123030);stroke:none" /> <path d="m 5.355,48.883 c 0,-3.328 2.7,-6.028 6.028,-6.028 h 28.125 c 3.328,0 6.027,2.7 6.027,6.028 v 1.34 c 0,0 0,14.062 -20.09,14.062 -20.09,0 -20.09,-14.062 -20.09,-14.062 z" transform="scale(1.3333333)" style="fill:url(#I63ad0fdceb0543eb9d0a25fd5cfd1a4e20251110123030);stroke:none" opacity="1" id="Id9b241125ff14b8c9bc412b2f57afd7720251110123030" /> <path id="I4cf6a0ed4dfc4c85aea9673401aeed4020251110123030" d="m 62.945,28.125 c 0,5.176 -4.195,9.375 -9.375,9.375 -5.175,0 -9.375,-4.199 -9.375,-9.375 0,-5.176 4.2,-9.375 9.375,-9.375 5.18,0 9.375,4.199 9.375,9.375 z" transform="scale(1.3333333)" style="fill:url(#I8fa368ef5ddd4153a6b15ffaf0e27e0620251110123030);stroke:none" /> <path id="Ic965b82a68b7438d803b199fdfd5fb1420251110123030" d="m 25.445,37.5 c 6.657,0 12.055,-5.398 12.055,-12.055 0,-6.656 -5.398,-12.05 -12.055,-12.05 -6.656,0 -12.05,5.394 -12.05,12.05 0,6.657 5.394,12.055 12.05,12.055 z" transform="scale(1.3333333)" style="fill:url(#I3ddaa78c96764816b2374402da354a3320251110123030);stroke:none" /> </g>
</svg>

