<?xml version="1.0" encoding="UTF-8" standalone="no"?> <svg version="1.1" id="Iae55303fc8c74d0c99ae446b2b0c6f5220251106161453" width="100" height="100" viewBox="0 0 100 100" xmlns="http://www.w3.org/2000/svg" xmlns:svg="http://www.w3.org/2000/svg"> <defs id="I9401a58bcc1b41aabb4d0d2403d63a8a20251106161453" /> <g id="I390406779ab54edbbfee71521b78ad1e20251106161453"> <path id="Id7159dbb22c04a96b3c9071bae579b0620251106161453" d="m 33.789,40.625 c -0.812,-2.078 -2.406,-3.762 -4.422,-4.687 h 18.289 c 1.293,0 2.344,1.05 2.344,2.343 0,1.293 -1.051,2.344 -2.344,2.344 z m 2.434,3.906 c 1.918,0.934 3.398,2.625 4.043,4.688 h 7.39 c 1.293,0 2.344,-1.051 2.344,-2.344 0,-1.293 -1.051,-2.344 -2.344,-2.344 z m 11.433,8.594 h -7.031 v 4.687 h 7.031 c 1.293,0 2.344,-1.05 2.344,-2.343 0,-1.293 -1.051,-2.344 -2.344,-2.344 z M 17.188,12.5 v 22.656 h -2.344 c -0.813,0 -1.598,0.114 -2.344,0.324 V 12.5 c 0,-3.449 2.801,-6.25 6.25,-6.25 h 19.289 c 0.086,0 0.172,0.012 0.254,0.023 0.062,0.008 0.125,0.016 0.184,0.02 0.671,0.047 1.335,0.176 1.953,0.434 0.179,0.074 0.347,0.171 0.515,0.269 0.055,0.031 0.106,0.063 0.157,0.09 0.05,0.027 0.101,0.051 0.148,0.078 0.086,0.039 0.176,0.082 0.254,0.137 0.242,0.164 0.461,0.363 0.684,0.562 0.035,0.032 0.074,0.063 0.113,0.09 0.051,0.039 0.105,0.082 0.152,0.129 l 18.215,18.211 c 1.172,1.172 1.832,2.762 1.832,4.418 V 62.5 c 0,3.449 -2.801,6.25 -6.25,6.25 H 40.469 c 0.101,-0.504 0.156,-1.027 0.156,-1.562 V 64.062 H 56.25 c 0.863,0 1.562,-0.703 1.562,-1.562 V 31.25 H 43.75 C 40.301,31.25 37.5,28.449 37.5,25 V 10.938 H 18.75 c -0.863,0 -1.562,0.703 -1.562,1.562 z M 54.305,26.562 42.188,14.441 V 25 c 0,0.859 0.699,1.562 1.562,1.562 z M 9.375,46.875 H 7.812 c -2.589,0 -4.687,2.098 -4.687,4.687 v 4.688 h 7.813 v -0.781 c 0,-1.293 1.05,-2.344 2.343,-2.344 1.293,0 2.344,1.051 2.344,2.344 V 56.25 H 25 v -0.781 c 0,-1.293 1.051,-2.344 2.344,-2.344 1.293,0 2.344,1.051 2.344,2.344 V 56.25 H 37.5 v -4.688 c 0,-2.589 -2.098,-4.687 -4.688,-4.687 H 31.25 V 43.75 c 0,-3.02 -2.449,-5.469 -5.469,-5.469 H 14.844 c -3.02,0 -5.469,2.449 -5.469,5.469 z m 4.687,-3.125 c 0,-0.43 0.352,-0.781 0.782,-0.781 h 10.937 c 0.43,0 0.781,0.351 0.781,0.781 v 3.125 h -12.5 z M 3.125,67.188 v -6.25 h 7.813 v 2.343 c 0,1.293 1.05,2.344 2.343,2.344 1.293,0 2.344,-1.051 2.344,-2.344 V 60.938 H 25 v 2.343 c 0,1.293 1.051,2.344 2.344,2.344 1.293,0 2.344,-1.051 2.344,-2.344 V 60.938 H 37.5 v 6.25 c 0,2.589 -2.098,4.687 -4.688,4.687 h -25 c -2.589,0 -4.687,-2.098 -4.687,-4.687 z" style="fill:currentColor;fill-opacity:1;fill-rule:nonzero;stroke:none" transform="scale(1.3333333)" /> </g>
</svg>

