<?xml version="1.0" encoding="UTF-8" standalone="no"?> <svg version="1.1" id="I53bb3952900944c096d90da9c68e72d120251110135155" width="100" height="100" viewBox="0 0 100 100" xmlns="http://www.w3.org/2000/svg" xmlns:svg="http://www.w3.org/2000/svg"> <defs id="I796175b19972416d8f445ee1c2795f5020251110135155" /> <g id="Ia7067cea9e6946e490cd4f94ccdf040320251110135155"> <path id="Iaabc4da8cacd4abb873b5f2daf37ff1520251110135155" d="M 63.703,47.895 35.578,36.176 c -1.594,-0.664 -3.426,0.09 -4.086,1.683 -0.664,1.594 0.086,3.422 1.68,4.086 l 7.453,3.106 v 11.457 l -7.453,3.105 c -1.594,0.664 -2.344,2.496 -1.68,4.09 0.66,1.59 2.492,2.344 4.086,1.68 L 63.703,53.664 c 1.164,-0.484 1.922,-1.621 1.922,-2.883 0,-1.261 -0.758,-2.398 -1.922,-2.886 z m -16.828,-0.239 7.5,3.125 -7.5,3.125 z M 25,62.5 c 0,1.727 -1.398,3.125 -3.125,3.125 -1.727,0 -3.125,-1.398 -3.125,-3.125 V 20.043 l -0.914,0.918 c -1.223,1.219 -3.199,1.219 -4.422,0 -1.219,-1.223 -1.219,-3.199 0,-4.422 l 6.25,-6.25 c 1.223,-1.219 3.199,-1.219 4.422,0 l 6.25,6.25 c 1.219,1.223 1.219,3.199 0,4.422 -1.223,1.219 -3.199,1.219 -4.422,0 L 25,20.043 Z M 50,34.375 c -1.727,0 -3.125,-1.398 -3.125,-3.125 V 20.043 l -0.914,0.918 c -1.223,1.219 -3.199,1.219 -4.422,0 -1.219,-1.223 -1.219,-3.199 0,-4.422 l 6.25,-6.25 c 1.223,-1.219 3.199,-1.219 4.422,0 l 6.25,6.25 c 1.219,1.223 1.219,3.199 0,4.422 -1.223,1.219 -3.199,1.219 -4.422,0 L 53.125,20.043 V 31.25 c 0,1.727 -1.398,3.125 -3.125,3.125 z" style="fill:currentColor;fill-opacity:1;fill-rule:nonzero;stroke:none" transform="scale(1.3333333)" /> </g>
</svg>

