<?xml version="1.0" encoding="UTF-8" standalone="no"?> <svg version="1.1" id="I2644f75200d440f8855a645c25ca619920251106163937" width="100" height="100" viewBox="0 0 100 100" xmlns="http://www.w3.org/2000/svg" xmlns:svg="http://www.w3.org/2000/svg"> <defs id="I2a03f2c53ff0405b95bbf861d6d38b9020251106163937" /> <g id="I3fde524a29b847f892f86910940b29fe20251106163937"> <path id="I95aacaf99c0b4f058a0bf1263b0a3e5720251106163937" d="m 19.531,34.367 c 3.02,0 5.469,2.449 5.469,5.469 v 7.812 c 0,3.02 -2.449,5.469 -5.469,5.469 h -7.812 c -3.02,0 -5.469,-2.449 -5.469,-5.469 v -7.812 c 0,-3.02 2.449,-5.469 5.469,-5.469 z m 21.875,0 c 3.02,0 5.469,2.449 5.469,5.469 v 7.812 c 0,3.02 -2.449,5.469 -5.469,5.469 h -7.812 c -3.02,0 -5.469,-2.449 -5.469,-5.469 v -7.812 c 0,-3.02 2.449,-5.469 5.469,-5.469 z m 21.875,0 c 3.02,0 5.469,2.449 5.469,5.469 v 7.812 c 0,3.02 -2.449,5.469 -5.469,5.469 H 55.469 C 52.449,53.117 50,50.668 50,47.648 v -7.812 c 0,-3.02 2.449,-5.469 5.469,-5.469 z M 24.906,24.125 35.844,13.188 c 0.824,-0.825 2.109,-0.911 3.027,-0.247 l 0.262,0.223 11.258,10.938 c 0.929,0.902 0.949,2.382 0.05,3.312 -0.82,0.844 -2.121,0.938 -3.05,0.27 l -0.266,-0.223 -9.602,-9.328 -9.304,9.305 c -0.914,0.917 -2.399,0.917 -3.313,0 -0.832,-0.833 -0.91,-2.133 -0.226,-3.051 l 0.226,-0.262 10.938,-10.937 z" style="fill:currentColor;fill-opacity:1;fill-rule:nonzero;stroke:none" transform="scale(1.3333333)" /> </g>
</svg>

