<?xml version="1.0" encoding="UTF-8" standalone="no"?> <svg version="1.1" id="I4761d437de184d73bd85cf208bd707d020251110133656" width="100" height="100" viewBox="0 0 100 100" xmlns="http://www.w3.org/2000/svg" xmlns:svg="http://www.w3.org/2000/svg"> <defs id="Ifcbd0ad1ed574e59b0ef29e20375c0a820251110133656"> <linearGradient x1="25.8333" y1="0.52252197" x2="21.7619" y2="26.082399" gradientUnits="userSpaceOnUse" gradientTransform="scale(2.34375)" spreadMethod="pad" id="I4ad7bd7f4d65487ab25053eac24bda1520251110133656"> <stop style="stop-opacity:1;stop-color:#2bdabe" offset="0" id="I4de604228b684387a1d98b8ffb8c3a9120251110133656" /> <stop style="stop-opacity:1;stop-color:#0067bf" offset="0.853157" id="Icee6ed52d1c540f69fe06490699a86ce20251110133656" /> <stop style="stop-opacity:1;stop-color:#0067bf" offset="1" id="Id7d0b8ff74ca494eb971ec25f5ed39a720251110133656" /> </linearGradient> <linearGradient x1="28.998501" y1="29.2118" x2="18.788601" y2="18.5341" gradientUnits="userSpaceOnUse" gradientTransform="scale(2.34375)" spreadMethod="pad" id="Ib70d70e20af34b47ac89d48b2d5a8b9320251110133656"> <stop style="stop-opacity:1;stop-color:#ff6f47" offset="0" id="I397522307c134069a3a04525f50f13a020251110133656" /> <stop style="stop-opacity:1;stop-color:#ffcd0f" offset="1" id="I2b35642e23014d0ab80bd56d454a187e20251110133656" /> </linearGradient> <linearGradient x1="21.028" y1="16.968201" x2="22.268999" y2="20.384501" gradientUnits="userSpaceOnUse" gradientTransform="scale(2.34375)" spreadMethod="pad" id="Id839813080994042989b4fdcd385365a20251110133656"> <stop style="stop-opacity:1;stop-color:#ffa43d" offset="0" id="I3d20579d9cf14b1490066ce0cda688ee20251110133656" /> <stop style="stop-opacity:1;stop-color:#fb5937" offset="1" id="If6f83ac9d1aa49619b84ed7119e31c7020251110133656" /> </linearGradient> <linearGradient x1="14.6667" y1="-1.54846" x2="6.0620899" y2="29.633499" gradientUnits="userSpaceOnUse" gradientTransform="scale(2.34375)" spreadMethod="pad" id="I9ad4b0993c3b4c7a96b74cbe175d86da20251110133656"> <stop style="stop-opacity:1;stop-color:#2bdabe" offset="0" id="If026f9deb14b4a14829b017a4193130120251110133656" /> <stop style="stop-opacity:1;stop-color:#0067bf" offset="1" id="Id0729ee2d2eb4c30807c73e0665c5fe520251110133656" /> </linearGradient> </defs> <g id="Ia41baa370df54e2aba23756ada45e64920251110133656"> <path id="I117163f594a14e7eaa1d6dec68bfc13120251110133656" d="m 51.562,7.031 c -0.957,0 -1.82,0.582 -2.175,1.473 l -2.344,5.859 c -0.223,0.559 -0.223,1.184 0,1.742 l 2.176,5.442 V 37.5 H 60.938 V 21.547 l 2.175,-5.442 c 0.223,-0.558 0.223,-1.183 0,-1.742 L 60.77,8.504 C 60.414,7.613 59.551,7.031 58.594,7.031 Z" transform="scale(1.3333333)" style="fill:url(#I4ad7bd7f4d65487ab25053eac24bda1520251110133656);stroke:none" /> <path id="I3e90bedbbc1b4bf2b5c1e2a2abbd6eb220251110133656" d="m 42.188,45.703 v 9.375 c 0,7.121 5.769,12.891 12.89,12.891 7.121,0 12.891,-5.77 12.891,-12.891 v -9.375 z" transform="scale(1.3333333)" style="fill:url(#Ib70d70e20af34b47ac89d48b2d5a8b9320251110133656);stroke:none" /> <path id="Ia67c373155374cc08276addb9651a5ca20251110133656" d="m 65.625,37.5 c 1.293,0 2.344,1.051 2.344,2.344 v 7.031 H 42.188 v -7.031 c 0,-1.293 1.05,-2.344 2.343,-2.344 z" transform="scale(1.3333333)" style="fill:url(#Id839813080994042989b4fdcd385365a20251110133656);stroke:none" /> <path id="I270a6320187f4613a4fe2af1b706068c20251110133656" d="m 20.102,8.262 c 0.621,0.437 0.992,1.152 0.992,1.914 v 10.918 c 0,1.293 1.051,2.344 2.344,2.344 1.292,0 2.343,-1.051 2.343,-2.344 V 10.176 c 0,-0.762 0.371,-1.477 0.992,-1.914 0.622,-0.438 1.415,-0.551 2.133,-0.297 6.367,2.25 10.938,8.324 10.938,15.473 0,6.546 -3.836,12.195 -9.375,14.828 v 22.672 c 0,3.882 -3.149,7.031 -7.031,7.031 -3.883,0 -7.032,-3.149 -7.032,-7.031 V 38.266 C 10.867,35.633 7.031,29.984 7.031,23.438 c 0,-7.149 4.571,-13.223 10.938,-15.473 0.719,-0.254 1.511,-0.141 2.133,0.297 z" transform="scale(1.3333333)" style="fill:url(#I9ad4b0993c3b4c7a96b74cbe175d86da20251110133656);stroke:none" /> </g>
</svg>

