<?xml version="1.0" encoding="UTF-8" standalone="no"?> <svg version="1.1" id="I172d42878e7e447299785a7791b41b5a20251106151526" width="100" height="100" viewBox="0 0 100 100" xmlns="http://www.w3.org/2000/svg" xmlns:svg="http://www.w3.org/2000/svg"> <defs id="I036f303894db482284a134075c7e5e0320251106151526"> <linearGradient x1="2.8571401" y1="8.1875" x2="13.7861" y2="24.217699" gradientUnits="userSpaceOnUse" gradientTransform="scale(2.678571)" spreadMethod="pad" id="I2b07fba75aad4a699c42d25d0793d68e20251106151526"> <stop style="stop-opacity:1;stop-color:#0fafff" offset="0" id="I466cd972e3ca48a4843037c81e513b9320251106151526" /> <stop style="stop-opacity:1;stop-color:#367af2" offset="1" id="Ia1df64d53332439eb5db1041382ba8d020251106151526" /> </linearGradient> <linearGradient x1="2" y1="12.8843" x2="9.4154301" y2="19.4475" gradientUnits="userSpaceOnUse" gradientTransform="scale(2.678571)" spreadMethod="pad" id="I22708accf7914383ad5bdd6ac0fbc87820251106151526"> <stop style="stop-opacity:0.29999237;stop-color:#ffffff" offset="0" id="I2171f68a786d49d28c0209ee8225b9c320251106151526" /> <stop style="stop-opacity:0;stop-color:#fcfcfc" offset="1" id="I43feab88ec07413f80b1fe097c65fcaa20251106151526" /> </linearGradient> <linearGradient x1="9.4836397" y1="5.7874999" x2="11.3384" y2="15.4386" gradientUnits="userSpaceOnUse" gradientTransform="scale(2.678571)" spreadMethod="pad" id="I590343f3f0e64938ae4ce394e284933520251106151526"> <stop style="stop-opacity:0.29999237;stop-color:#ffffff" offset="0" id="I0596a965ce8141cdb9873e9d9d59ba1e20251106151526" /> <stop style="stop-opacity:0;stop-color:#fcfcfc" offset="1" id="Ifd0b85cb2243428f9203ff6efe09e11920251106151526" /> </linearGradient> <radialGradient fx="0" fy="0" cx="0" cy="0" r="1" gradientUnits="userSpaceOnUse" gradientTransform="matrix(21.033478,-8.906268,7.967895,18.817372,20.394643,44.095982)" spreadMethod="pad" id="If75e3fc3f5c84006a4906de0520bc97020251106151526"> <stop style="stop-opacity:1;stop-color:#2c87f5" offset="0" id="Ia719cba263584fdba00293df688dc75f20251106151526" /> <stop style="stop-opacity:1;stop-color:#2c87f5" offset="0.412409" id="I14f1f0af626f44968e164add49782af520251106151526" /> <stop style="stop-opacity:0;stop-color:#2c87f5" offset="1" id="I3d0c8a818cc04ebfbfecd174e580c50620251106151526" /> </radialGradient> <radialGradient fx="0" fy="0" cx="0" cy="0" r="1" gradientUnits="userSpaceOnUse" gradientTransform="matrix(24.776694,50.451545,-361.61188,177.58716,34.821429,10.546875)" spreadMethod="pad" id="Id5bd99752ce54b4886c512f415ff21e020251106151526"> <stop style="stop-opacity:0;stop-color:#dd3ce2" offset="0" id="I9af774f898b447d1b83dd3c7fd0864c420251106151526" /> <stop style="stop-opacity:0;stop-color:#dd3ce2" offset="0.5" id="I3d588c274df94f199e39381284c3b91620251106151526" /> <stop style="stop-opacity:0.50000763;stop-color:#dd3ce2" offset="1" id="Ib23d401b02ec4bb88f116d1e4d0ef9e120251106151526" /> </radialGradient> <linearGradient x1="27.3333" y1="21.6667" x2="18.6849" y2="0.58973801" gradientUnits="userSpaceOnUse" gradientTransform="scale(2.678571)" spreadMethod="pad" id="I71abbad7fc9f4f63b6b26e36fdcc647820251106151526"> <stop style="stop-opacity:0.95001144;stop-color:#b3e0ff" offset="0" id="I4a46bb3ec59c4ec9b3dd002164ad0a9220251106151526" /> <stop style="stop-opacity:0.95001144;stop-color:#ffffff" offset="1" id="I7b0b3a612ab4401c87504196e0aaa93920251106151526" /> </linearGradient> </defs> <g id="I4e66ab5d15f34b4094a164ffd0eb3b6520251106151526"> <path id="I490d94ed450a4daaa151ef50d950886c20251106151526" d="m 37.5,13.395 c -9.461,0 -17.285,7.003 -18.566,16.113 -7.598,0.59 -13.579,6.941 -13.579,14.687 0,8.137 6.598,14.735 14.735,14.735 h 34.82 c 8.137,0 14.735,-6.598 14.735,-14.735 0,-7.746 -5.981,-14.097 -13.579,-14.687 C 54.785,20.398 46.961,13.395 37.5,13.395 Z" transform="scale(1.3333333)" style="fill:url(#I2b07fba75aad4a699c42d25d0793d68e20251106151526);stroke:none" /> <path d="m 34.82,44.195 c 0,8.137 -6.593,14.735 -14.73,14.735 -8.137,0 -14.735,-6.598 -14.735,-14.735 0,-8.136 6.598,-14.73 14.735,-14.73 8.137,0 14.73,6.594 14.73,14.73 z" transform="scale(1.3333333)" style="fill:url(#I22708accf7914383ad5bdd6ac0fbc87820251106151526);stroke:none" opacity="1" id="I876c8f012bda4f21ae730459d6a1773b20251106151526" /> <path d="m 37.5,50.895 c 10.355,0 18.75,-8.395 18.75,-18.75 0,-10.356 -8.395,-18.75 -18.75,-18.75 -9.461,0 -17.285,7.007 -18.566,16.113 0.382,-0.028 0.765,-0.043 1.156,-0.043 8.137,0 14.73,6.594 14.73,14.73 0,2.239 -0.496,4.356 -1.386,6.254 1.308,0.289 2.668,0.446 4.066,0.446 z" transform="scale(1.3333333)" style="fill:url(#I590343f3f0e64938ae4ce394e284933520251106151526);stroke:none" opacity="1" id="I5104376df528492bbcd4dedb9060562f20251106151526" /> <path d="m 37.5,50.895 c 10.355,0 18.75,-8.395 18.75,-18.75 0,-10.356 -8.395,-18.75 -18.75,-18.75 -9.461,0 -17.285,7.007 -18.566,16.113 0.382,-0.028 0.765,-0.043 1.156,-0.043 8.137,0 14.73,6.594 14.73,14.73 0,2.239 -0.496,4.356 -1.386,6.254 1.308,0.289 2.668,0.446 4.066,0.446 z" transform="scale(1.3333333)" style="fill:url(#If75e3fc3f5c84006a4906de0520bc97020251106151526);stroke:none" opacity="1" id="I31cdf2e727cf4b508569a1a081ebcb2d20251106151526" /> <path d="m 37.5,13.395 c -9.461,0 -17.285,7.003 -18.566,16.113 -7.598,0.59 -13.579,6.941 -13.579,14.687 0,8.137 6.598,14.735 14.735,14.735 h 34.82 c 8.137,0 14.735,-6.598 14.735,-14.735 0,-7.746 -5.981,-14.097 -13.579,-14.687 C 54.785,20.398 46.961,13.395 37.5,13.395 Z" transform="scale(1.3333333)" style="fill:url(#Id5bd99752ce54b4886c512f415ff21e020251106151526);stroke:none" opacity="1" id="I94b6b6a834e846f28483499a42b3052420251106151526" /> <path d="m 31.473,26.785 c -1.11,0 -2.008,0.899 -2.008,2.008 0,1.109 0.898,2.012 2.008,2.012 h 12.054 c 1.11,0 2.008,-0.903 2.008,-2.012 0,-1.109 -0.898,-2.008 -2.008,-2.008 z M 16.07,43.527 c 0,-1.109 0.903,-2.007 2.012,-2.007 h 14.73 c 1.11,0 2.008,0.898 2.008,2.007 0,1.11 -0.898,2.008 -2.008,2.008 h -14.73 c -1.109,0 -2.012,-0.898 -2.012,-2.008 z M 42.188,41.52 c -1.11,0 -2.008,0.898 -2.008,2.007 0,1.11 0.898,2.008 2.008,2.008 h 14.73 c 1.109,0 2.012,-0.898 2.012,-2.008 0,-1.109 -0.903,-2.007 -2.012,-2.007 z" transform="scale(1.3333333)" style="fill:url(#I2b07fba75aad4a699c42d25d0793d68e202511061515266);stroke:none" opacity="1" id="I575fe9a3bc28481db73131e1ea0ca4c920251106151526" /> </g>
</svg>

