<?xml version="1.0" encoding="UTF-8" standalone="no"?> <svg version="1.1" id="I5d34360ed4024e2fafb91c04b9a7c30f20251110135156" width="100" height="100" viewBox="0 0 100 100" xmlns="http://www.w3.org/2000/svg" xmlns:svg="http://www.w3.org/2000/svg"> <defs id="I497409ddcd254f939cd2af5a76ecb26120251110135156" /> <g id="Iafebc1c19a1042beb786c03ff649298420251110135156"> <path id="I8a27cfa52aee4cb6a1a69022bea93df120251110135156" d="M 45.922,17.812 C 45.922,16.258 44.664,15 43.109,15 c -1.55,0 -2.812,1.258 -2.812,2.812 v 6.965 l -6.613,-2.148 c -1.481,-0.481 -3.067,0.328 -3.547,1.805 -0.477,1.48 0.332,3.066 1.808,3.546 l 6.629,2.153 -4.097,5.644 c -0.915,1.254 -0.637,3.016 0.621,3.926 1.257,0.914 3.015,0.637 3.929,-0.621 l 4.09,-5.633 4.09,5.633 c 0.914,1.258 2.672,1.535 3.93,0.621 1.258,-0.91 1.535,-2.672 0.621,-3.926 l -4.094,-5.64 6.641,-2.157 c 1.476,-0.48 2.285,-2.066 1.804,-3.546 -0.476,-1.477 -2.066,-2.286 -3.543,-1.805 l -6.644,2.16 z M 24.375,60 C 27.48,60 30,57.48 30,54.375 30,51.27 27.48,48.75 24.375,48.75 c -3.105,0 -5.625,2.52 -5.625,5.625 0,3.105 2.52,5.625 5.625,5.625 z" style="fill:currentColor;fill-opacity:1;fill-rule:nonzero;stroke:none" transform="scale(1.3333333)" /> </g>
</svg>

