<?xml version="1.0" encoding="UTF-8" standalone="no"?> <svg version="1.1" id="I7794ad7cffd641eca931356ff076172c20251106123559" width="100" height="100" viewBox="0 0 100 100" xmlns="http://www.w3.org/2000/svg" xmlns:svg="http://www.w3.org/2000/svg"> <defs id="I2276992984f94dfc84abcce4d68d3c2320251106123559" /> <g id="Id4a43746ba3b49fcbd880dc1c688923820251106123559"> <path id="I10b7d8f17f0441f28ef4d2f180ddeb7220251106123559" d="m 6.25,18.75 c 0,-3.453 2.797,-6.25 6.25,-6.25 h 3.125 V 34.918 C 12.039,35.766 8.82,37.562 6.25,40.031 Z M 50,26.562 H 37.5 c -0.863,0 -1.562,0.7 -1.562,1.563 v 3.125 c 0,0.863 0.699,1.562 1.562,1.562 H 50 c 0.863,0 1.562,-0.699 1.562,-1.562 v -3.125 c 0,-0.863 -0.699,-1.563 -1.562,-1.563 z M 39.066,62.5 H 62.5 c 3.453,0 6.25,-2.797 6.25,-6.25 v -37.5 c 0,-3.453 -2.797,-6.25 -6.25,-6.25 H 20.312 v 21.875 c 11.219,0 20.313,9.094 20.313,20.313 0,2.769 -0.555,5.406 -1.559,7.812 z M 31.25,28.125 c 0,-3.453 2.797,-6.25 6.25,-6.25 H 50 c 3.453,0 6.25,2.797 6.25,6.25 v 3.125 c 0,3.453 -2.797,6.25 -6.25,6.25 H 37.5 c -3.453,0 -6.25,-2.797 -6.25,-6.25 z M 20.312,37.5 c 9.493,0 17.188,7.695 17.188,17.188 0,9.492 -7.695,17.187 -17.188,17.187 C 10.82,71.875 3.125,64.18 3.125,54.688 3.125,45.195 10.82,37.5 20.312,37.5 Z m 1.567,26.574 V 56.25 h 7.797 c 0.863,0 1.562,-0.699 1.562,-1.562 0,-0.864 -0.699,-1.563 -1.562,-1.563 h -7.801 v -7.816 c 0,-0.864 -0.699,-1.563 -1.563,-1.563 -0.863,0 -1.562,0.699 -1.562,1.563 v 7.816 h -7.828 c -0.86,0 -1.559,0.699 -1.559,1.563 0,0.863 0.699,1.562 1.559,1.562 h 7.832 v 7.824 c 0,0.864 0.699,1.563 1.562,1.563 0.864,0 1.563,-0.699 1.563,-1.563 z" style="fill:currentColor;fill-opacity:1;fill-rule:nonzero;stroke:none" transform="scale(1.3333333)" /> </g>
</svg>

