<?xml version="1.0" encoding="UTF-8" standalone="no"?> <svg version="1.1" id="Ib54084e30e9648389d0dd30b8593020520251106112235" width="100" height="100" viewBox="0 0 100 100" xmlns="http://www.w3.org/2000/svg" xmlns:svg="http://www.w3.org/2000/svg"> <defs id="If9a7dc0cb8a74f1fa4cc6fa52d874cf220251106112235" /> <g id="I6a7570ff65ce465aa0e2bd00b926dfd020251106112235"> <path id="Ia227bbe0416a48429d6389c4c4ecf81f20251106112235" d="M 74.332,34.32 H 42.348 c -0.84,-0.168 -1.719,-0.336 -2.645,-0.504 -1.332,-0.242 -1.859,-0.343 -2.578,-0.484 -4.297,-0.836 -6.883,-1.676 -8.941,-2.863 -2.938,-1.715 -4.372,-4.043 -4.372,-7.125 0,-3.094 1.274,-5.664 3.684,-7.449 2.379,-1.758 5.762,-2.688 9.777,-2.688 4.586,0 8.129,1.207 10.532,3.586 1.222,1.203 2.117,2.684 2.66,4.402 0.109,0.344 0.234,0.836 0.359,1.489 0.078,0.402 0.438,0.687 0.832,0.687 h 6.094 c 0.469,0 0.844,-0.387 0.844,-0.848 V 22.441 C 58.535,21.871 58.484,21.43 58.426,21.102 57.816,17.461 56.082,14.262 53.43,11.871 49.711,8.48 44.246,6.695 37.633,6.695 c -6.051,0 -11.5,1.516 -15.344,4.262 -2.141,1.539 -3.797,3.449 -4.902,5.668 -1.133,2.266 -1.699,4.887 -1.699,7.773 0,2.473 0.476,4.563 1.445,6.407 0.695,1.312 1.64,2.468 2.855,3.515 H 0.668 C 0.301,34.32 0,34.621 0,34.988 v 5.024 c 0,0.367 0.301,0.668 0.668,0.668 H 36.93 c 0.175,0.035 0.328,0.066 0.496,0.101 2.586,0.52 4.14,0.871 5.574,1.274 1.926,0.543 3.398,1.113 4.621,1.797 2.996,1.691 4.461,4.121 4.461,7.453 0,2.953 -1.297,5.59 -3.648,7.429 -2.555,2.004 -6.329,3.047 -10.926,3.047 -3.656,0 -6.754,-0.711 -9.223,-2.09 -2.437,-1.367 -4.109,-3.332 -5,-5.82 -0.066,-0.183 -0.14,-0.433 -0.223,-0.75 -0.101,-0.371 -0.445,-0.629 -0.812,-0.629 h -6.672 c -0.469,0 -0.848,0.383 -0.848,0.844 v 0.086 c 0.02,0.191 0.036,0.351 0.051,0.476 0.547,4.086 2.539,7.434 5.918,9.946 3.946,2.91 9.492,4.453 16.055,4.453 7.051,0 12.957,-1.66 17.094,-4.797 2.093,-1.582 3.699,-3.535 4.781,-5.777 1.086,-2.27 1.648,-4.848 1.648,-7.661 0,-2.66 -0.488,-4.886 -1.492,-6.812 -0.484,-0.938 -1.094,-1.801 -1.824,-2.578 H 74.332 C 74.699,40.672 75,40.371 75,40.004 V 34.98 c -0.004,-0.367 -0.305,-0.66 -0.668,-0.66 z" style="fill:currentColor;fill-opacity:1;fill-rule:nonzero;stroke:none" transform="scale(1.3333333)" /> </g>
</svg>

