<?xml version="1.0" encoding="UTF-8" standalone="no"?> <svg version="1.1" id="I28cc68c34d874bb3b5b890047d4ecac320251106155156" width="100" height="100" viewBox="0 0 100 100" xmlns="http://www.w3.org/2000/svg" xmlns:svg="http://www.w3.org/2000/svg"> <defs id="I2770e4454c0e4a54bc59ad16a9be290520251106155156" /> <g id="Id47c2f3706424822a0e96ab2b9440fd220251106155156"> <path id="I6a88757435ba406b9b475e1999daa2ab20251106155156" d="M 37.5,6.25 H 18.75 c -3.453,0 -6.25,2.797 -6.25,6.25 v 25 h 1.879 l 4.047,-9.227 c 1.82,-4.152 7.465,-4.339 9.687,-0.636 l 0.09,0.148 0.266,0.547 5.398,13.48 1.082,-1.589 c 0.832,-1.43 2.262,-2.403 3.879,-2.657 L 38.992,37.539 39.57,37.5 h 6.36 c 3.019,0 5.468,2.449 5.468,5.469 0,2.742 -2.015,5.008 -4.648,5.406 l -0.16,0.023 -0.559,0.04 h -3.25 l -5.199,8.132 c -2.074,3.715 -7.348,3.68 -9.461,0.137 l -0.086,-0.145 -0.258,-0.539 -4.57,-11.414 -0.246,0.555 c -0.703,1.606 -2.117,2.75 -3.781,3.133 -0.11,0.027 -0.223,0.047 -0.336,0.066 l -0.172,0.032 -0.602,0.043 H 12.5 V 62.5 c 0,3.453 2.797,6.25 6.25,6.25 h 37.5 c 3.453,0 6.25,-2.797 6.25,-6.25 V 31.25 H 43.75 c -3.449,0 -6.242,-2.793 -6.25,-6.238 z m 6.25,20.312 c -0.863,0 -1.562,-0.699 -1.562,-1.562 V 7.812 l 18.75,18.75 z M 16.422,40.625 H 8.594 L 8.273,40.648 8.242,40.652 C 7.113,40.82 6.25,41.797 6.25,42.969 c 0,1.293 1.051,2.343 2.344,2.343 h 9.359 l 0.348,-0.027 0.035,-0.004 c 0.047,-0.008 0.098,-0.015 0.144,-0.027 0.711,-0.164 1.321,-0.656 1.622,-1.344 l 3.234,-7.379 7.301,18.231 0.152,0.316 0.02,0.031 c 0.91,1.528 3.218,1.516 4.078,-0.129 l 6.183,-9.668 h 4.86 l 0.32,-0.023 0.031,-0.004 c 1.129,-0.168 1.992,-1.144 1.992,-2.316 0,-1.293 -1.05,-2.344 -2.343,-2.344 h -6.25 l -0.332,0.023 -0.036,0.004 c -0.722,0.114 -1.355,0.563 -1.703,1.215 L 33.148,48.43 25.609,29.598 25.453,29.273 25.434,29.242 c -0.95,-1.578 -3.372,-1.488 -4.149,0.285 z m 1.531,4.687 H 12.5 Z" style="fill:currentColor;fill-opacity:1;fill-rule:nonzero;stroke:none" transform="scale(1.3333333)" /> </g>
</svg>

