<?xml version="1.0" encoding="UTF-8" standalone="no"?> <svg version="1.1" id="I605c4aa6b19f4637a7083ac8d5af258720251110130507" width="100" height="100" viewBox="0 0 100 100" xmlns="http://www.w3.org/2000/svg" xmlns:svg="http://www.w3.org/2000/svg"> <defs id="Ida60a006d53b42e5a451992f46ccf00720251110130507" /> <g id="Id9747ba7593f4634a4af0c67c8ca101820251110130507"> <path id="I1e351b1b2e2544db8907928ba80b623f20251110130507" d="m 55.078,37.5 c 9.707,0 17.578,7.871 17.578,17.578 0,9.707 -7.871,17.578 -17.578,17.578 C 45.371,72.656 37.5,64.785 37.5,55.078 37.5,45.371 45.371,37.5 55.078,37.5 Z m 0.586,4.688 c -0.973,0 -1.758,0.785 -1.758,1.757 v 8.789 h -8.789 c -0.972,0 -1.758,0.786 -1.758,1.758 0,0.973 0.786,1.758 1.758,1.758 h 8.789 v 8.789 c 0,0.973 0.785,1.758 1.758,1.758 0.973,0 1.758,-0.785 1.758,-1.758 V 56.25 h 8.789 c 0.973,0 1.758,-0.785 1.758,-1.758 0,-0.972 -0.785,-1.758 -1.758,-1.758 h -8.789 v -8.789 c 0,-0.972 -0.785,-1.757 -1.758,-1.757 z m 4.102,-18.75 c 5.824,0 10.546,4.722 10.546,10.546 v 6.508 c -3.839,-4.008 -9.246,-6.508 -15.234,-6.508 -11.648,0 -21.094,9.446 -21.094,21.094 0,4.856 1.645,9.324 4.403,12.891 H 15.234 C 9.41,67.969 4.688,63.246 4.688,57.422 V 33.984 c 0,-5.824 4.722,-10.546 10.546,-10.546 z m -43.36,23.437 c -1.293,0 -2.344,1.051 -2.344,2.344 0,1.293 1.051,2.343 2.344,2.343 h 14.063 c 1.293,0 2.343,-1.05 2.343,-2.343 0,-1.293 -1.05,-2.344 -2.343,-2.344 z m 0,-11.719 c -1.293,0 -2.344,1.051 -2.344,2.344 0,1.293 1.051,2.344 2.344,2.344 H 37.5 c 1.293,0 2.344,-1.051 2.344,-2.344 0,-1.293 -1.051,-2.344 -2.344,-2.344 z M 64.453,7.031 c 3.235,0 5.859,2.625 5.859,5.86 0,3.234 -2.624,5.859 -5.859,5.859 H 10.547 c -3.235,0 -5.859,-2.625 -5.859,-5.859 0,-3.235 2.624,-5.86 5.859,-5.86 z" style="fill:currentColor;fill-opacity:1;fill-rule:nonzero;stroke:none" transform="scale(1.3333333)" /> </g>
</svg>

