<?xml version="1.0" encoding="UTF-8" standalone="no"?> <svg version="1.1" id="I566d824deb164cbf9985fd543f898d1f20251106163937" width="100" height="100" viewBox="0 0 100 100" xmlns="http://www.w3.org/2000/svg" xmlns:svg="http://www.w3.org/2000/svg"> <defs id="Ie664247aabc3476fbd6eb26969deed2620251106163937" /> <g id="I5c86cb4e4a4a4659adb96f95d217ff3a20251106163937"> <path id="I754f7346f7274698875aaf8bfca31b0520251106163937" d="m 18.75,16.875 c 0,-3.105 2.52,-5.625 5.625,-5.625 h 26.25 c 3.105,0 5.625,2.52 5.625,5.625 V 26.25 H 52.5 V 16.875 C 52.5,15.84 51.66,15 50.625,15 H 24.375 C 23.34,15 22.5,15.84 22.5,16.875 V 30 h 20.625 c -1.176,1.566 -1.875,3.516 -1.875,5.625 v 22.5 c 0,2.109 0.699,4.059 1.875,5.625 h -26.25 c -3.105,0 -5.625,-2.52 -5.625,-5.625 V 37.5 c 0,-4.141 3.359,-7.5 7.5,-7.5 z m 4.688,22.969 c 0,-1.293 -1.051,-2.344 -2.344,-2.344 -1.293,0 -2.344,1.051 -2.344,2.344 0,1.293 1.051,2.344 2.344,2.344 1.293,0 2.344,-1.051 2.344,-2.344 z m 0,8.437 c 0,-1.293 -1.051,-2.343 -2.344,-2.343 -1.293,0 -2.344,1.05 -2.344,2.343 0,1.293 1.051,2.344 2.344,2.344 1.293,0 2.344,-1.051 2.344,-2.344 z m 6.093,-1.875 c -1.293,0 -2.343,1.051 -2.343,2.344 0,1.293 1.05,2.344 2.343,2.344 1.293,0 2.344,-1.051 2.344,-2.344 0,-1.293 -1.051,-2.344 -2.344,-2.344 z m 2.344,-6.562 c 0,-1.293 -1.051,-2.344 -2.344,-2.344 -1.293,0 -2.343,1.051 -2.343,2.344 0,1.293 1.05,2.344 2.343,2.344 1.293,0 2.344,-1.051 2.344,-2.344 z M 50.625,30 C 47.52,30 45,32.52 45,35.625 v 22.5 c 0,3.105 2.52,5.625 5.625,5.625 h 7.5 c 3.105,0 5.625,-2.52 5.625,-5.625 v -22.5 C 63.75,32.52 61.23,30 58.125,30 Z" style="fill:currentColor;fill-opacity:1;fill-rule:nonzero;stroke:none" transform="scale(1.3333333)" /> </g>
</svg>

