<?xml version="1.0" encoding="UTF-8" standalone="no"?> <svg version="1.1" id="I40147cd367f74579b36d8f10950c630b20251106104833" width="100" height="100" viewBox="0 0 100 100" xmlns="http://www.w3.org/2000/svg" xmlns:svg="http://www.w3.org/2000/svg"> <defs id="I60252f62266449dc8dfaaf186153a74520251106104833" /> <g id="I2d3ae5889c5f41ee9811b36d045bbf4d20251106104833"> <path id="I90cd6ca8c7ae4cc39e8959aab73dc68220251106104833" d="M 57.59,14.73 H 6.695 c -1.48,0 -2.675,1.2 -2.675,2.68 v 50.895 c 0,1.48 1.195,2.675 2.675,2.675 H 57.59 c 1.48,0 2.68,-1.195 2.68,-2.675 V 17.41 c 0,-1.48 -1.2,-2.68 -2.68,-2.68 z M 54.242,64.957 H 10.043 V 20.758 H 54.242 Z M 68.305,4.02 H 16.742 c -0.371,0 -0.672,0.3 -0.672,0.668 v 4.687 c 0,0.367 0.301,0.668 0.672,0.668 h 48.215 v 48.215 c 0,0.371 0.301,0.672 0.668,0.672 h 4.687 c 0.368,0 0.668,-0.301 0.668,-0.672 V 6.695 C 70.98,5.215 69.785,4.02 68.305,4.02 Z M 19.754,40.68 h 24.777 v 5.359 H 19.754 Z" style="fill:currentColor;fill-opacity:1;fill-rule:nonzero;stroke:none" transform="scale(1.3333333)" /> </g>
</svg>

