<?xml version="1.0" encoding="UTF-8" standalone="no"?> <svg version="1.1" id="I7d3036be0d9f4275a49109572ede7f7a20251110123031" width="100" height="100" viewBox="0 0 100 100" xmlns="http://www.w3.org/2000/svg" xmlns:svg="http://www.w3.org/2000/svg"> <defs id="If14bcedd6702400091471df21d79140f20251110123031" /> <g id="I4ab46f94c2ff40f4a2048b767e41518b20251110123031"> <path id="I463c60d2491b4424861995642cfcc4ad20251110123031" d="M 42.969,6.25 C 46.852,6.25 50,9.398 50,13.281 l 0.004,18.028 C 39.512,32.105 31.25,40.871 31.25,51.562 c 0,1.614 0.188,3.184 0.543,4.692 L 27.344,56.25 c -1.293,0 -2.344,1.051 -2.344,2.344 0,1.187 0.883,2.168 2.027,2.324 l 0.317,0.02 6.195,0.003 c 1.668,3.2 4.16,5.895 7.199,7.813 L 19.531,68.75 C 15.648,68.75 12.5,65.602 12.5,61.719 V 13.281 c 0,-3.883 3.148,-7.031 7.031,-7.031 z m 8.593,28.125 c 9.493,0 17.188,7.695 17.188,17.187 0,9.493 -7.695,17.188 -17.188,17.188 -9.492,0 -17.187,-7.695 -17.187,-17.188 0,-9.492 7.695,-17.187 17.187,-17.187 z m 0.676,8.09 -0.218,0.18 -0.18,0.218 c -0.371,0.532 -0.371,1.242 0,1.774 l 0.18,0.218 5.14,5.141 L 42.168,50 41.887,50.023 c -0.637,0.118 -1.141,0.622 -1.258,1.258 l -0.024,0.281 0.024,0.282 c 0.117,0.636 0.621,1.14 1.258,1.258 l 0.281,0.023 15,-0.004 -5.148,5.149 -0.18,0.218 c -0.422,0.606 -0.363,1.45 0.18,1.992 0.542,0.543 1.386,0.602 1.992,0.18 l 0.218,-0.18 7.907,-7.914 0.113,-0.156 0.133,-0.25 0.082,-0.258 0.027,-0.199 V 51.426 L 62.465,51.227 62.383,50.969 62.25,50.715 62.137,50.559 54.23,42.645 54.012,42.465 c -0.453,-0.317 -1.043,-0.363 -1.535,-0.137 z" style="fill:currentColor;fill-opacity:1;fill-rule:nonzero;stroke:none" transform="scale(1.3333333)" /> </g>
</svg>

