<?xml version="1.0" encoding="UTF-8" standalone="no"?> <svg version="1.1" id="I8d16ff057e53417a9f4bd6fb3499281120251106171634" width="100" height="100" viewBox="0 0 100 100" xmlns="http://www.w3.org/2000/svg" xmlns:svg="http://www.w3.org/2000/svg"> <defs id="I2ad90b42fb934164986cdfbfd4ef7c9a20251106171634"> <linearGradient x1="27.5" y1="21.799999" x2="17.0474" y2="-2.5353501" gradientUnits="userSpaceOnUse" gradientTransform="scale(2.678571)" spreadMethod="pad" id="Iee44a06a61dc43fc8205f6df3925730420251106171634"> <stop style="stop-opacity:1;stop-color:#8c959b" offset="0" id="I5a5d90bbc1524e5497405592138ed8db20251106171634" /> <stop style="stop-opacity:1;stop-color:#a3acb5" offset="1" id="I378f69d9b6694c2e9f5854736738a9a420251106171634" /> </linearGradient> <radialGradient fx="0" fy="0" cx="0" cy="0" r="1" gradientUnits="userSpaceOnUse" gradientTransform="matrix(14.732141,-0.837049,0.528802,9.306954,48.214286,22.265625)" spreadMethod="pad" id="Ic261329c22f74f88b50882a3febc84aa20251106171634"> <stop style="stop-opacity:1;stop-color:#70777d" offset="0" id="I921a48259fdc49b5aa5c0a2c280cc70120251106171634" /> <stop style="stop-opacity:1;stop-color:#70777d" offset="0.548597" id="I5b097c29cccf49538ca071f79a086d6320251106171634" /> <stop style="stop-opacity:0;stop-color:#70777d" offset="1" id="Id543bb464a2e4fc4b611e8b0f7e8309320251106171634" /> </radialGradient> <radialGradient fx="0" fy="0" cx="0" cy="0" r="1" gradientUnits="userSpaceOnUse" gradientTransform="matrix(14.732143,0,0,9.306938,26.785714,53.571429)" spreadMethod="pad" id="I57503071f69f45f9a595b399b52d75b520251106171634"> <stop style="stop-opacity:1;stop-color:#70777d" offset="0" id="I7d1542e302ea4bdcb2417b8f9444433c20251106171634" /> <stop style="stop-opacity:1;stop-color:#70777d" offset="0.548597" id="I9f5a846d108d426a945108c6e721ae9520251106171634" /> <stop style="stop-opacity:0;stop-color:#70777d" offset="1" id="I4a496bf2c6744e6594a748253df78acb20251106171634" /> </radialGradient> <linearGradient x1="27.5" y1="21.799999" x2="17.0474" y2="-2.5353501" gradientUnits="userSpaceOnUse" gradientTransform="scale(2.678571)" spreadMethod="pad" id="I22d012c90a72421a966543e02871686b20251106171634"> <stop style="stop-opacity:1;stop-color:#8c959b" offset="0" id="I6a8150a605ad40899c7587efcca5d64720251106171634" /> <stop style="stop-opacity:1;stop-color:#a3acb5" offset="1" id="I4ef133d0fbc0474ea81c4e8dc563454f20251106171634" /> </linearGradient> <radialGradient fx="0" fy="0" cx="0" cy="0" r="1" gradientUnits="userSpaceOnUse" gradientTransform="matrix(14.732141,-0.837049,0.528802,9.306954,48.214286,22.265625)" spreadMethod="pad" id="If870b957d63f4a26a79d853f9c0fb57a20251106171634"> <stop style="stop-opacity:1;stop-color:#70777d" offset="0" id="I516e430c0f66494db9426533a561d3f220251106171634" /> <stop style="stop-opacity:1;stop-color:#70777d" offset="0.548597" id="I69afe49eb0de4e04a8f0bcd07ba3414520251106171634" /> <stop style="stop-opacity:0;stop-color:#70777d" offset="1" id="Ic1573747654542029a2c78a55d3d3e8020251106171634" /> </radialGradient> <radialGradient fx="0" fy="0" cx="0" cy="0" r="1" gradientUnits="userSpaceOnUse" gradientTransform="matrix(14.732143,0,0,9.306938,26.785714,53.571429)" spreadMethod="pad" id="Ia50e3adb6c0f4c8494d9994cfca7837420251106171634"> <stop style="stop-opacity:1;stop-color:#70777d" offset="0" id="If42ff55e550e47ae995b55412fc23fc320251106171634" /> <stop style="stop-opacity:1;stop-color:#70777d" offset="0.548597" id="I5d859b80f0234e5e8354aca9df707aad20251106171634" /> <stop style="stop-opacity:0;stop-color:#70777d" offset="1" id="Ifb5275e737064fa0b45af3e83c2dad7d20251106171634" /> </radialGradient> <linearGradient x1="7.25" y1="16" x2="13.25" y2="23.5" gradientUnits="userSpaceOnUse" gradientTransform="scale(2.678571)" spreadMethod="pad" id="Id4cf9eb54774442baf6e7e21abff3bf420251106171634"> <stop style="stop-opacity:1;stop-color:#29b4fb" offset="0" id="I35f7a232866149faaa808fa5e4d0744e20251106171634" /> <stop style="stop-opacity:1;stop-color:#2764e7" offset="1" id="Ia83a74b3f19343bd851f202991aa89bc20251106171634" /> </linearGradient> <linearGradient x1="14.75" y1="4.5" x2="20.75" y2="12" gradientUnits="userSpaceOnUse" gradientTransform="scale(2.678571)" spreadMethod="pad" id="Ia0e2f974d215476ca3f37f7016b0621820251106171634"> <stop style="stop-opacity:1;stop-color:#29b4fb" offset="0" id="Ie9d97b9c160745f5a31fca5d3819497220251106171634" /> <stop style="stop-opacity:1;stop-color:#2764e7" offset="1" id="Ic540036e360748d291d6e3383e3cec6c20251106171634" /> </linearGradient> </defs> <g id="Ica151c1ad49547c79e6752dca467cbec20251106171634"> <path id="Ib55a999b932c4370b807c2ccde3e28f820251106171634" d="m 69.645,22.098 c 0,1.109 -0.903,2.007 -2.012,2.007 H 7.367 c -1.109,0 -2.012,-0.898 -2.012,-2.007 0,-1.11 0.903,-2.008 2.012,-2.008 h 60.266 c 1.109,0 2.012,0.898 2.012,2.008 z" transform="scale(1.3333333)" style="fill:url(#Iee44a06a61dc43fc8205f6df3925730420251106171634);stroke:none" /> <path d="m 69.645,22.098 c 0,1.109 -0.903,2.007 -2.012,2.007 H 7.367 c -1.109,0 -2.012,-0.898 -2.012,-2.007 0,-1.11 0.903,-2.008 2.012,-2.008 h 60.266 c 1.109,0 2.012,0.898 2.012,2.008 z" transform="scale(1.3333333)" style="fill:url(#Ic261329c22f74f88b50882a3febc84aa20251106171634);stroke:none" opacity="1" id="Ice0c29f1eda64c0ebf657f019fad0fac20251106171634" /> <path d="m 69.645,22.098 c 0,1.109 -0.903,2.007 -2.012,2.007 H 7.367 c -1.109,0 -2.012,-0.898 -2.012,-2.007 0,-1.11 0.903,-2.008 2.012,-2.008 h 60.266 c 1.109,0 2.012,0.898 2.012,2.008 z" transform="scale(1.3333333)" style="fill:url(#I57503071f69f45f9a595b399b52d75b520251106171634);stroke:none" opacity="1" id="Ibe28b62113c64f0d84dade44d7cc8bb020251106171634" /> <path id="Iaa6fe0dd29f64d7487cc23995d64321020251106171634" d="m 5.355,52.902 c 0,1.11 0.903,2.008 2.012,2.008 h 60.266 c 1.109,0 2.012,-0.898 2.012,-2.008 0,-1.109 -0.903,-2.007 -2.012,-2.007 H 7.367 c -1.109,0 -2.012,0.898 -2.012,2.007 z" transform="scale(1.3333333)" style="fill:url(#I22d012c90a72421a966543e02871686b20251106171634);stroke:none" /> <path d="m 5.355,52.902 c 0,1.11 0.903,2.008 2.012,2.008 h 60.266 c 1.109,0 2.012,-0.898 2.012,-2.008 0,-1.109 -0.903,-2.007 -2.012,-2.007 H 7.367 c -1.109,0 -2.012,0.898 -2.012,2.007 z" transform="scale(1.3333333)" style="fill:url(#If870b957d63f4a26a79d853f9c0fb57a20251106171634);stroke:none" opacity="1" id="I921761f87bba4384abc3dbb687a0cbe120251106171634" /> <path d="m 5.355,52.902 c 0,1.11 0.903,2.008 2.012,2.008 h 60.266 c 1.109,0 2.012,-0.898 2.012,-2.008 0,-1.109 -0.903,-2.007 -2.012,-2.007 H 7.367 c -1.109,0 -2.012,0.898 -2.012,2.007 z" transform="scale(1.3333333)" style="fill:url(#Ia50e3adb6c0f4c8494d9994cfca7837420251106171634);stroke:none" opacity="1" id="Ia64dcdb122314d898d97e46192d0450020251106171634" /> <path id="I7cc8792937884873be55d16b63d7ef1b20251106171634" d="m 37.5,52.902 c 0,5.547 -4.496,10.043 -10.043,10.043 -5.551,0 -10.047,-4.496 -10.047,-10.043 0,-5.547 4.496,-10.047 10.047,-10.047 5.547,0 10.043,4.5 10.043,10.047 z" transform="scale(1.3333333)" style="fill:url(#Id4cf9eb54774442baf6e7e21abff3bf420251106171634);stroke:none" /> <path id="I9685f7aeba604aef9fb18ac02cab236520251106171634" d="m 57.59,22.098 c 0,5.547 -4.496,10.047 -10.047,10.047 -5.547,0 -10.043,-4.5 -10.043,-10.047 0,-5.547 4.496,-10.043 10.043,-10.043 5.551,0 10.047,4.496 10.047,10.043 z" transform="scale(1.3333333)" style="fill:url(#Ia0e2f974d215476ca3f37f7016b0621820251106171634);stroke:none" /> </g>
</svg>

