<?xml version="1.0" encoding="UTF-8" standalone="no"?> <svg version="1.1" id="I39502816b3ac4b9695ee64957b47170020251110123031" width="100" height="100" viewBox="0 0 100 100" xmlns="http://www.w3.org/2000/svg" xmlns:svg="http://www.w3.org/2000/svg"> <defs id="I7be790f798e84d118a18ebb055b3ef9320251110123031" /> <g id="I9e83d30ace1d42d4ac656a90938985b220251110123031"> <path id="If7ab6f0f242d4064918517cd3d2ae53920251110123031" d="m 58.363,7.477 c 0.621,-1.137 2.047,-1.555 3.184,-0.934 0.996,0.547 2.355,1.594 3.699,3.223 1.348,1.636 2.387,3.57 2.988,5.808 0.871,3.258 0.606,6.36 -0.363,9.117 -0.34,0.961 -0.691,1.684 -0.957,2.121 -0.672,1.106 -2.117,1.458 -3.223,0.786 -1.011,-0.618 -1.39,-1.879 -0.929,-2.938 l 0.148,-0.285 c 0.106,-0.176 0.317,-0.605 0.539,-1.238 0.676,-1.926 0.863,-4.086 0.254,-6.352 C 63.285,15.227 62.566,13.887 61.625,12.742 60.707,11.629 59.809,10.938 59.297,10.656 58.164,10.035 57.746,8.613 58.363,7.477 Z M 45.902,47.746 c -0.336,-1.25 -1.621,-1.992 -2.871,-1.656 l -6.035,1.617 -0.305,0.105 c -1.062,0.446 -1.66,1.622 -1.355,2.766 0.336,1.25 1.621,1.992 2.871,1.656 l 6.039,-1.617 0.301,-0.101 c 1.062,-0.446 1.664,-1.621 1.355,-2.77 z m 1.27,-30.055 c -1.004,-3.753 -4.863,-5.98 -8.613,-4.972 L 24.207,16.57 c -3.75,1.008 -5.973,4.864 -4.969,8.61 l 8.606,32.144 c 1.008,3.754 4.859,5.981 8.613,4.977 l 14.359,-3.844 c 3.754,-1.004 5.981,-4.863 4.973,-8.613 z m -7.399,-0.445 c 1.25,-0.336 2.536,0.406 2.872,1.656 l 8.617,32.153 c 0.336,1.254 -0.407,2.539 -1.657,2.871 L 35.242,57.77 c -1.25,0.335 -2.535,-0.407 -2.867,-1.657 L 23.766,23.969 c -0.336,-1.25 0.406,-2.535 1.656,-2.871 z m 18.196,-3.805 c -1.028,-0.781 -2.5,-0.586 -3.285,0.446 -0.782,1.031 -0.586,2.5 0.445,3.285 l 0.101,0.086 c 0.125,0.117 0.309,0.308 0.497,0.551 0.246,0.328 0.421,0.66 0.507,0.98 0.125,0.473 0.094,1.059 -0.05,1.633 -0.016,0.058 -0.032,0.113 -0.047,0.156 l -0.157,0.465 c -0.296,1.113 0.266,2.305 1.364,2.766 1.191,0.5 2.566,-0.063 3.066,-1.258 0.047,-0.11 0.098,-0.246 0.149,-0.41 l 0.164,-0.555 c 0.328,-1.285 0.406,-2.648 0.039,-4.012 -0.254,-0.953 -0.711,-1.816 -1.301,-2.597 -0.535,-0.704 -1.074,-1.215 -1.492,-1.536 z M 7.93,48.16 c 0.648,-1.121 2.082,-1.504 3.203,-0.859 1.027,0.594 1.437,1.847 1,2.918 l -0.301,0.601 c -0.094,0.215 -0.211,0.512 -0.336,0.883 -0.641,1.93 -0.805,4.117 -0.187,6.418 0.418,1.563 1.136,2.922 2.066,4.086 0.805,1.008 1.594,1.688 2.125,2.039 l 0.211,0.133 c 1.117,0.644 1.504,2.078 0.855,3.199 -0.648,1.121 -2.082,1.504 -3.203,0.86 C 12.383,67.867 11.039,66.789 9.715,65.137 8.395,63.484 7.375,61.551 6.781,59.332 5.906,56.07 6.137,52.969 7.047,50.227 7.359,49.289 7.684,48.59 7.93,48.16 Z m 9.734,2.938 c -1.195,-0.496 -2.566,0.07 -3.062,1.265 -0.043,0.11 -0.094,0.246 -0.149,0.407 l -0.156,0.55 c -0.328,1.285 -0.399,2.645 -0.035,4.008 0.258,0.949 0.707,1.813 1.289,2.586 0.535,0.711 1.07,1.223 1.484,1.543 1.027,0.789 2.5,0.598 3.289,-0.426 0.789,-1.027 0.598,-2.5 -0.429,-3.289 l -0.102,-0.086 c -0.125,-0.117 -0.309,-0.308 -0.492,-0.558 -0.246,-0.325 -0.422,-0.664 -0.512,-0.985 -0.125,-0.476 -0.094,-1.066 0.051,-1.636 0.015,-0.063 0.031,-0.114 0.043,-0.157 l 0.152,-0.465 c 0.297,-1.113 -0.273,-2.304 -1.371,-2.757 z" style="fill:currentColor;fill-opacity:1;fill-rule:nonzero;stroke:none" transform="scale(1.3333333)" /> </g>
</svg>

