<?xml version="1.0" encoding="UTF-8" standalone="no"?> <svg version="1.1" id="I3bfe0eeb668e4b87bc98ed377376341420251110135155" width="100" height="100" viewBox="0 0 100 100" xmlns="http://www.w3.org/2000/svg" xmlns:svg="http://www.w3.org/2000/svg"> <defs id="I38a74a130f844539bc688c92fc206b9020251110135155" /> <g id="Ibd28567c0b5443958b92a54b8fd5643620251110135155"> <path id="I4c9647d61a444638b5e7c380e5df126e20251110135155" d="m 6.91,43.188 c 0.461,0.374 1.031,0.562 1.719,0.562 1.129,0 1.902,-0.586 2.328,-1.758 l 3.355,-9.129 H 29.41 l 3.383,9.129 c 0.426,1.172 1.199,1.758 2.328,1.758 0.688,0 1.25,-0.188 1.691,-0.562 0.458,-0.391 0.688,-0.876 0.688,-1.454 0,-0.339 -0.098,-0.761 -0.289,-1.273 L 24.914,8.441 C 24.352,6.98 23.355,6.25 21.93,6.25 c -1.52,0 -2.559,0.738 -3.121,2.219 L 6.539,40.461 c -0.191,0.512 -0.289,0.934 -0.289,1.273 0,0.578 0.219,1.063 0.66,1.454 z M 28.062,28.965 H 15.688 l 6.109,-16.774 h 0.156 z m 12.563,11.988 5.465,-5.465 c -0.719,-1.504 -1.078,-3.3 -1.078,-5.379 0,-2.906 0.711,-5.257 2.129,-7.05 1.437,-1.809 3.281,-2.711 5.527,-2.711 2.332,0 4.176,0.879 5.527,2.636 1.114,1.45 1.77,3.317 1.965,5.602 1.328,0.437 2.574,1.184 3.629,2.238 l 0.895,0.891 c 0.035,-0.52 0.054,-1.055 0.054,-1.606 0,-4.125 -1.023,-7.429 -3.07,-9.914 -2.043,-2.484 -4.73,-3.726 -8.063,-3.726 -1.839,0 -3.507,0.429 -4.992,1.293 -1.472,0.863 -2.629,2.054 -3.476,3.574 H 45.035 V 8.609 c 0,-0.695 -0.211,-1.261 -0.633,-1.699 -0.406,-0.441 -0.929,-0.66 -1.57,-0.66 -0.644,0 -1.176,0.219 -1.598,0.66 -0.406,0.438 -0.609,1.004 -0.609,1.699 z m 12.441,26.235 h 9.442 c 1.293,0 2.344,1.05 2.344,2.343 0,1.293 -1.051,2.344 -2.344,2.344 H 45.312 L 45.32,71.852 C 43.945,71.734 42.602,71.145 41.547,70.094 L 33.035,61.578 C 30.656,59.199 30.656,55.34 33.039,52.957 L 52.961,33.039 c 2.383,-2.383 6.242,-2.387 8.621,-0.008 l 8.512,8.516 c 2.379,2.379 2.375,6.238 -0.004,8.621 z m 3.207,-30.836 -12.988,12.992 10.5,10.5 12.988,-12.992 c 0.555,-0.555 0.551,-1.446 0.004,-1.993 l -8.511,-8.511 c -0.543,-0.543 -1.438,-0.551 -1.993,0.004 z m -16.304,16.304 -3.614,3.617 c -0.558,0.555 -0.55,1.446 -0.007,1.993 l 8.511,8.511 c 0.547,0.547 1.438,0.551 1.993,-0.004 l 3.617,-3.617 z" style="fill:currentColor;fill-opacity:1;fill-rule:nonzero;stroke:none" transform="scale(1.3333333)" /> </g>
</svg>

