<?xml version="1.0" encoding="UTF-8" standalone="no"?> <svg version="1.1" id="I2775631347a8496f9d6011a8c2910d0720251110135155" width="100" height="100" viewBox="0 0 100 100" xmlns="http://www.w3.org/2000/svg" xmlns:svg="http://www.w3.org/2000/svg"> <defs id="I6528ad7564124383abc24d8a2621adbd20251110135155" /> <g id="I17ef896395f24dbcbe0d1ccf00a0cee220251110135155"> <path id="I30410cbf280b4075b8dc11cb097503f120251110135155" d="m 51.605,8.594 c 1.309,0.019 2.465,0.847 2.903,2.078 l 17.187,48.437 c 0.578,1.629 -0.273,3.414 -1.898,3.993 -1.629,0.578 -3.414,-0.274 -3.992,-1.899 L 61.832,50 H 40.094 l -4.367,11.285 c -0.622,1.61 -2.434,2.41 -4.043,1.785 -1.61,-0.621 -2.411,-2.433 -1.786,-4.043 L 48.648,10.59 C 49.121,9.371 50.301,8.574 51.605,8.594 Z M 51.434,20.703 42.516,43.75 H 59.613 Z M 25.781,63.312 c -1.406,0 -2.597,-0.929 -2.988,-2.21 -2.785,1.449 -5.43,2.21 -7.949,2.21 -6.156,0 -10.938,-4.374 -10.938,-10.937 0,-2.879 0.996,-5.426 2.844,-7.352 1.844,-1.918 4.492,-3.171 7.719,-3.562 2.676,-0.324 5.383,-0.18 8.113,0.422 -0.144,-1.055 -0.508,-1.805 -1.055,-2.336 -0.718,-0.699 -1.886,-1.145 -3.715,-1.238 -2.957,-0.145 -4.851,0.285 -5.871,1 -1.41,0.992 -3.359,0.648 -4.351,-0.762 -0.992,-1.414 -0.649,-3.363 0.765,-4.356 2.243,-1.57 5.227,-2.222 8.848,-2.156 h 0.012 l 0.91,0.031 c 3.203,0.161 5.84,1.168 7.715,2.957 1.879,1.793 2.918,4.297 3.051,7.305 v 0.016 L 28.906,43 v 17.188 c 0,1.582 -1.176,2.89 -2.703,3.097 l -0.023,0.004 -0.371,0.023 z M 15.219,47.781 c -1.813,0.219 -3.067,0.797 -3.864,1.582 -0.785,0.774 -1.199,1.817 -1.199,3.125 0,1.543 0.496,2.696 1.282,3.461 0.792,0.774 1.949,1.227 3.406,1.227 1.902,0 4.363,-0.887 7.383,-2.879 l 0.425,-0.289 V 48.469 L 22.273,48.355 C 19.844,47.688 17.5,47.504 15.219,47.781 Z" style="fill:currentColor;fill-opacity:1;fill-rule:nonzero;stroke:none" transform="scale(1.3333333)" /> </g>
</svg>

