<?xml version="1.0" encoding="UTF-8" standalone="no"?> <svg version="1.1" id="Idd2e1d88f88d4a39bcf7f4c21efe9f2420251106151526" width="100" height="100" viewBox="0 0 100 100" xmlns="http://www.w3.org/2000/svg" xmlns:svg="http://www.w3.org/2000/svg"> <defs id="Ib92110ed5f0e4cbda7e29da07180fcef20251106151526" /> <g id="I6e02627245af44d98ee302cd866f0ab820251106151526"> <path id="Ifaed3a207a234234a1b263d9c3fca50c20251106151526" d="M 26.57,11.25 C 27.344,9.066 29.426,7.5 31.875,7.5 h 11.25 c 2.449,0 4.531,1.566 5.305,3.75 h 5.945 C 57.48,11.25 60,13.77 60,16.875 V 37.5 H 45 c -6.215,0 -11.25,5.035 -11.25,11.25 v 15 c 0,1.316 0.227,2.578 0.641,3.75 H 20.625 C 17.52,67.5 15,64.98 15,61.875 v -45 c 0,-3.105 2.52,-5.625 5.625,-5.625 z m 5.305,0 C 30.84,11.25 30,12.09 30,13.125 30,14.16 30.84,15 31.875,15 h 11.25 C 44.16,15 45,14.16 45,13.125 45,12.09 44.16,11.25 43.125,11.25 Z M 45,41.25 c -4.141,0 -7.5,3.359 -7.5,7.5 v 15 c 0,4.141 3.359,7.5 7.5,7.5 h 18.75 c 4.141,0 7.5,-3.359 7.5,-7.5 v -15 c 0,-4.141 -3.359,-7.5 -7.5,-7.5 z m 0,20.625 C 45,60.84 45.84,60 46.875,60 h 15 c 1.035,0 1.875,0.84 1.875,1.875 0,1.035 -0.84,1.875 -1.875,1.875 h -15 C 45.84,63.75 45,62.91 45,61.875 Z m 0,-11.25 c 0,-1.035 0.84,-1.875 1.875,-1.875 h 15 c 1.035,0 1.875,0.84 1.875,1.875 0,1.035 -0.84,1.875 -1.875,1.875 h -15 C 45.84,52.5 45,51.66 45,50.625 Z" style="fill:currentColor;fill-opacity:1;fill-rule:nonzero;stroke:none" transform="scale(1.3333333)" /> </g>
</svg>

