<?xml version="1.0" encoding="UTF-8" standalone="no"?> <svg version="1.1" id="I54bb8da4dc4643a19f253cb18022156e20251110130509" width="100" height="100" viewBox="0 0 100 100" xmlns="http://www.w3.org/2000/svg" xmlns:svg="http://www.w3.org/2000/svg"> <defs id="Ia8ed0af7df584d958d1e5bbfbc7b368420251110130509" /> <g id="If61ac28ee8254db29319f3cfe74e615e20251110130509"> <path id="I75501542b71d46dcaa55baf3912e6d9a20251110130509" d="m 22.656,43.75 c -1.293,0 -2.344,1.051 -2.344,2.344 0,1.293 1.051,2.344 2.344,2.344 h 10.938 c 1.293,0 2.344,-1.051 2.344,-2.344 0,-1.293 -1.051,-2.344 -2.344,-2.344 z M 20.312,28.906 c 0,-1.293 1.051,-2.344 2.344,-2.344 h 10.938 c 1.293,0 2.344,1.051 2.344,2.344 0,1.293 -1.051,2.344 -2.344,2.344 H 22.656 c -1.293,0 -2.344,-1.051 -2.344,-2.344 z m 35.25,-1.468 c 0.918,-0.915 0.918,-2.399 0,-3.313 -0.914,-0.918 -2.398,-0.918 -3.312,0 l -4.594,4.59 -1.468,-1.465 c -0.915,-0.918 -2.399,-0.918 -3.313,0 -0.918,0.914 -0.918,2.398 0,3.312 L 46,33.688 c 0.914,0.917 2.398,0.917 3.312,0 z m 0,13.874 c 0.918,0.915 0.918,2.399 0,3.313 l -6.25,6.25 c -0.914,0.918 -2.398,0.918 -3.312,0 L 42.875,47.75 c -0.918,-0.914 -0.918,-2.398 0,-3.312 0.914,-0.918 2.398,-0.918 3.313,0 l 1.468,1.464 4.594,-4.59 c 0.914,-0.917 2.398,-0.917 3.312,0 z M 19.531,9.375 c -5.609,0 -10.156,4.547 -10.156,10.156 v 35.938 c 0,5.609 4.547,10.156 10.156,10.156 h 35.938 c 5.609,0 10.156,-4.547 10.156,-10.156 V 19.531 c 0,-5.609 -4.547,-10.156 -10.156,-10.156 z m -5.469,10.156 c 0,-3.019 2.45,-5.469 5.469,-5.469 h 35.938 c 3.019,0 5.469,2.45 5.469,5.469 v 35.938 c 0,3.019 -2.45,5.469 -5.469,5.469 H 19.531 c -3.019,0 -5.469,-2.45 -5.469,-5.469 z" style="fill:currentColor;fill-opacity:1;fill-rule:nonzero;stroke:none" transform="scale(1.3333333)" /> </g>
</svg>

