<?xml version="1.0" encoding="UTF-8" standalone="no"?> <svg version="1.1" id="I44408e71fa27454c92550a37e408428d20251106165302" width="100" height="100" viewBox="0 0 100 100" xmlns="http://www.w3.org/2000/svg" xmlns:svg="http://www.w3.org/2000/svg"> <defs id="I78199ae9e60443479bcbed96d494fe7b20251106165302" /> <g id="Iaeb1db6eb63e43b59c2e3b88df175cfb20251106165302"> <path id="I5bcc2809eb9c473a90b8c88780e57f5d20251106165302" d="m 50.781,24.219 c 0,2.156 -1.75,3.906 -3.906,3.906 -2.156,0 -3.906,-1.75 -3.906,-3.906 0,-2.157 1.75,-3.907 3.906,-3.907 2.156,0 3.906,1.75 3.906,3.907 z m 2.086,28.883 c -0.172,0.015 -0.347,0.023 -0.523,0.023 h -3.125 c -1.293,0 -2.344,1.051 -2.344,2.344 0,1.293 1.051,2.343 2.344,2.343 h 3.125 c 3.019,0 5.468,2.45 5.468,5.469 v 2.344 c 0,1.293 1.051,2.344 2.344,2.344 1.293,0 2.344,-1.051 2.344,-2.344 v -2.344 c 0,-3.14 -1.426,-5.949 -3.668,-7.812 2.242,-1.864 3.668,-4.672 3.668,-7.813 V 19.531 C 62.5,13.922 57.953,9.375 52.344,9.375 H 22.656 C 17.047,9.375 12.5,13.922 12.5,19.531 v 28.125 c 0,3.141 1.426,5.949 3.668,7.813 -2.242,1.863 -3.668,4.672 -3.668,7.812 v 2.344 c 0,1.293 1.051,2.344 2.344,2.344 1.293,0 2.344,-1.051 2.344,-2.344 v -2.344 c 0,-3.019 2.449,-5.469 5.468,-5.469 h 3.125 c 1.293,0 2.344,-1.05 2.344,-2.343 0,-1.293 -1.051,-2.344 -2.344,-2.344 h -3.125 c -0.176,0 -0.351,-0.008 -0.527,-0.023 L 35.863,39.711 c 0.91,-0.887 2.364,-0.887 3.274,0 z M 22.656,14.062 h 29.688 c 3.019,0 5.468,2.45 5.468,5.469 v 28.125 c 0,1.067 -0.304,2.063 -0.835,2.906 L 42.406,36.355 c -2.73,-2.66 -7.086,-2.66 -9.816,0 L 18.02,50.559 c -0.528,-0.84 -0.832,-1.836 -0.832,-2.903 V 19.531 c 0,-3.019 2.449,-5.469 5.468,-5.469 z m 12.5,39.063 c -1.293,0 -2.344,1.051 -2.344,2.344 0,1.293 1.051,2.343 2.344,2.343 h 4.688 c 1.293,0 2.344,-1.05 2.344,-2.343 0,-1.293 -1.051,-2.344 -2.344,-2.344 z" style="fill:currentColor;fill-opacity:1;fill-rule:nonzero;stroke:none" transform="scale(1.3333333)" /> </g>
</svg>

