<?xml version="1.0" encoding="UTF-8" standalone="no"?> <svg version="1.1" id="Id43dc2e3cdd44ee39a8bf59c3f2fb6cf20251106123559" width="100" height="100" viewBox="0 0 100 100" xmlns="http://www.w3.org/2000/svg" xmlns:svg="http://www.w3.org/2000/svg"> <defs id="Id1c3de192c3d42e7a25d2ebfc4d84e1b20251106123559" /> <g id="I274664ef4943450cb5693c40e880fbc720251106123559"> <path id="I80fe4b3ca94a4f838aa1d7bc1d17700b20251106123559" d="m 21.094,30.469 c -2.59,0 -4.688,2.097 -4.688,4.687 v 18.75 c 0,2.59 2.098,4.688 4.688,4.688 h 7.031 c 2.59,0 4.687,-2.098 4.687,-4.688 v -18.75 c 0,-2.59 -2.097,-4.687 -4.687,-4.687 z m 0,4.687 h 7.031 v 18.75 H 21.094 Z M 37.5,32.812 c 0,-1.292 1.051,-2.343 2.344,-2.343 H 56.25 c 1.293,0 2.344,1.051 2.344,2.343 0,1.293 -1.051,2.344 -2.344,2.344 H 39.844 c -1.293,0 -2.344,-1.051 -2.344,-2.344 z m 2.344,7.032 c -1.293,0 -2.344,1.051 -2.344,2.344 0,1.292 1.051,2.343 2.344,2.343 h 11.718 c 1.293,0 2.344,-1.051 2.344,-2.343 0,-1.293 -1.051,-2.344 -2.344,-2.344 z M 17.578,7.031 c -5.824,0 -10.547,4.723 -10.547,10.547 v 39.844 c 0,5.824 4.723,10.547 10.547,10.547 h 39.844 c 5.824,0 10.547,-4.723 10.547,-10.547 V 17.578 c 0,-5.824 -4.723,-10.547 -10.547,-10.547 z m 0,56.25 c -3.234,0 -5.859,-2.625 -5.859,-5.859 V 25.781 h 51.562 v 31.641 c 0,3.234 -2.625,5.859 -5.859,5.859 z" style="fill:currentColor;fill-opacity:1;fill-rule:nonzero;stroke:none" transform="scale(1.3333333)" /> </g>
</svg>

