<?xml version="1.0" encoding="UTF-8" standalone="no"?> <svg version="1.1" id="I2f6b63bff7c648b3aa56269f1ff24efd20251106171633" width="100" height="100" viewBox="0 0 100 100" xmlns="http://www.w3.org/2000/svg" xmlns:svg="http://www.w3.org/2000/svg"> <defs id="Ie7a31de03de342c28c579df4e36596ea20251106171633" /> <g id="I30c24b1fc89f4d14b678fd7f0fb76bd520251106171633"> <path id="I6daaebd781ba46f5981c82fea91d322c20251106171633" d="m 23.578,9.234 c 1.375,1.371 1.375,3.598 0,4.969 l -9.375,9.375 c -1.371,1.375 -3.598,1.375 -4.969,0 L 4.547,18.891 c -1.375,-1.371 -1.375,-3.598 0,-4.969 1.371,-1.375 3.598,-1.375 4.969,0 l 2.203,2.199 6.89,-6.887 c 1.371,-1.375 3.598,-1.375 4.969,0 z m 4.547,8.344 c 0,-1.941 1.574,-3.516 3.516,-3.516 h 35.156 c 1.941,0 3.515,1.575 3.515,3.516 0,1.942 -1.574,3.516 -3.515,3.516 H 31.641 c -1.942,0 -3.516,-1.574 -3.516,-3.516 z m 0,19.922 c 0,-1.941 1.574,-3.516 3.516,-3.516 h 35.156 c 1.941,0 3.515,1.575 3.515,3.516 0,1.941 -1.574,3.516 -3.515,3.516 H 31.641 c -1.942,0 -3.516,-1.575 -3.516,-3.516 z m -4.547,13.922 c 1.375,1.371 1.375,3.598 0,4.969 l -9.375,9.375 c -1.371,1.375 -3.598,1.375 -4.969,0 L 4.547,61.078 c -1.375,-1.371 -1.375,-3.598 0,-4.969 1.371,-1.375 3.598,-1.375 4.969,0 l 2.203,2.2 6.89,-6.887 c 1.371,-1.375 3.598,-1.375 4.969,0 z m 4.547,6 c 0,-1.942 1.574,-3.516 3.516,-3.516 h 35.156 c 1.941,0 3.515,1.574 3.515,3.516 0,1.941 -1.574,3.516 -3.515,3.516 H 31.641 c -1.942,0 -3.516,-1.575 -3.516,-3.516 z" style="fill:currentColor;fill-opacity:1;fill-rule:nonzero;stroke:none" transform="scale(1.3333333)" /> </g>
</svg>

