<?xml version="1.0" encoding="UTF-8" standalone="no"?> <svg version="1.1" id="Ic7b53b1a17014f7b8366ea7d6008df9020251106132945" width="100" height="100" viewBox="0 0 100 100" xmlns="http://www.w3.org/2000/svg" xmlns:svg="http://www.w3.org/2000/svg"> <defs id="I615055bc78bf485285fd0a743432af5920251106132945" /> <g id="I3d5e25300e6a4b6e9a17c4ed0bf7343620251106132945"> <path id="I3499a88ae4ac45669b8710d62c3d137220251106132945" d="m 28.125,14.062 v 19.497 c 0,1.171 -0.293,2.324 -0.852,3.351 l -3.714,6.84 h 14.007 c 2.289,-3.574 5.668,-6.387 9.668,-7.965 -0.238,-0.715 -0.359,-1.469 -0.359,-2.226 V 14.062 H 50 c 1.293,0 2.344,-1.05 2.344,-2.343 0,-1.293 -1.051,-2.344 -2.344,-2.344 H 25 c -1.297,0 -2.344,1.051 -2.344,2.344 0,1.293 1.047,2.343 2.344,2.343 z m -7.109,34.376 h 14.336 c -0.633,1.968 -0.977,4.07 -0.977,6.25 0,4.027 1.172,7.781 3.191,10.937 H 20.875 c -4.145,0 -6.785,-4.434 -4.805,-8.078 z m 50.859,6.25 C 71.875,45.195 64.18,37.5 54.688,37.5 45.195,37.5 37.5,45.195 37.5,54.688 c 0,9.492 7.695,17.187 17.188,17.187 9.492,0 17.187,-7.695 17.187,-17.187 z m -24.926,-7.739 0.215,-0.179 0.238,-0.137 c 0.496,-0.227 1.082,-0.18 1.539,0.137 l 0.215,0.179 5.532,5.531 5.535,-5.531 0.218,-0.179 c 0.532,-0.368 1.243,-0.368 1.778,0 l 0.215,0.179 0.179,0.219 c 0.371,0.531 0.371,1.242 0,1.777 l -0.179,0.215 -5.536,5.531 5.528,5.528 0.179,0.215 c 0.372,0.535 0.372,1.246 0,1.777 l -0.179,0.215 -0.219,0.183 c -0.531,0.368 -1.242,0.368 -1.773,0 l -0.219,-0.183 -5.527,-5.528 -5.524,5.524 -0.215,0.18 c -0.531,0.367 -1.242,0.367 -1.777,0 l -0.215,-0.18 -0.184,-0.219 c -0.367,-0.531 -0.367,-1.242 0,-1.777 l 0.184,-0.215 5.52,-5.52 -5.528,-5.531 -0.183,-0.215 c -0.368,-0.535 -0.368,-1.246 0,-1.777 z" style="fill:currentColor;fill-opacity:1;fill-rule:nonzero;stroke:none" transform="scale(1.3333333)" /> </g>
</svg>

