<?xml version="1.0" encoding="UTF-8" standalone="no"?> <svg version="1.1" id="I655e923b065940cba7328ca2eba950ed20251110133655" width="100" height="100" viewBox="0 0 100 100" xmlns="http://www.w3.org/2000/svg" xmlns:svg="http://www.w3.org/2000/svg"> <defs id="I463fab9c32914e28b9ea919bf057ed3720251110133655" /> <g id="Ic28215ad42cf4150855078800c90f5f920251110133655"> <path id="If37a6d504b6643fe89fb258bc4f1f53820251110133655" d="m 30.469,56.25 c 1.293,0 2.343,1.051 2.343,2.344 0,1.293 -1.05,2.344 -2.343,2.344 -1.293,0 -2.344,-1.051 -2.344,-2.344 0,-1.293 1.051,-2.344 2.344,-2.344 z m 14.062,0 c 1.293,0 2.344,1.051 2.344,2.344 0,1.293 -1.051,2.344 -2.344,2.344 -1.293,0 -2.343,-1.051 -2.343,-2.344 0,-1.293 1.05,-2.344 2.343,-2.344 z M 23.438,53.125 c 1.292,0 2.343,1.051 2.343,2.344 0,1.293 -1.051,2.343 -2.343,2.343 -1.293,0 -2.344,-1.05 -2.344,-2.343 0,-1.293 1.051,-2.344 2.344,-2.344 z m 14.062,0 c 1.293,0 2.344,1.051 2.344,2.344 0,1.293 -1.051,2.343 -2.344,2.343 -1.293,0 -2.344,-1.05 -2.344,-2.343 0,-1.293 1.051,-2.344 2.344,-2.344 z m 14.062,0 c 1.293,0 2.344,1.051 2.344,2.344 0,1.293 -1.051,2.343 -2.344,2.343 -1.292,0 -2.343,-1.05 -2.343,-2.343 0,-1.293 1.051,-2.344 2.343,-2.344 z M 37.504,12.5 c 9.898,0 15.516,6.555 16.332,14.469 h 0.25 c 6.375,0 11.539,5.152 11.539,11.508 0,6.355 -5.164,11.507 -11.539,11.507 H 20.918 c -6.375,0 -11.539,-5.152 -11.539,-11.507 0,-6.356 5.164,-11.508 11.539,-11.508 h 0.25 C 21.988,19.004 27.602,12.5 37.504,12.5 Z m 0,3.898 c -6.66,0 -12.461,5.387 -12.461,12.829 0,1.179 -1.027,2.105 -2.199,2.105 h -2.223 c -4.051,0 -7.336,3.305 -7.336,7.379 0,4.074 3.285,7.375 7.336,7.375 h 33.762 c 4.051,0 7.34,-3.301 7.34,-7.375 0,-4.074 -3.289,-7.379 -7.34,-7.379 h -2.219 c -1.176,0 -2.199,-0.926 -2.199,-2.105 0,-7.536 -5.805,-12.829 -12.461,-12.829 z" style="fill:currentColor;fill-opacity:1;fill-rule:nonzero;stroke:none" transform="scale(1.3333333)" /> </g>
</svg>

