<?xml version="1.0" encoding="UTF-8" standalone="no"?> <svg version="1.1" id="Ic47ab654b04d4a4b9c33683af1df11db20251110124421" width="100" height="100" viewBox="0 0 100 100" xmlns="http://www.w3.org/2000/svg" xmlns:svg="http://www.w3.org/2000/svg"> <defs id="I50dba1a766e844ec875bcc776c9a856820251110124421" /> <g id="I1f12067283874de39b9edc59178650f120251110124421"> <path id="Ic657f9fa0e064c6a8b77597fdc7c3a0820251110124421" d="M 6.25,22.656 C 6.25,17.047 10.797,12.5 16.406,12.5 h 42.188 c 5.609,0 10.156,4.547 10.156,10.156 v 22.656 c 0,-3.718 -1.855,-7 -4.688,-8.976 v -13.68 c 0,-3.019 -2.449,-5.468 -5.468,-5.468 H 16.406 c -3.019,0 -5.468,2.449 -5.468,5.468 v 29.688 c 0,3.019 2.449,5.468 5.468,5.468 H 41.59 c -0.617,1.192 -0.965,2.543 -0.965,3.977 v 0.32 c 0,0.129 0.004,0.262 0.008,0.391 H 16.406 C 10.797,62.5 6.25,57.953 6.25,52.344 Z m 51.562,30.469 c 4.317,0 7.813,-3.496 7.813,-7.813 0,-4.316 -3.496,-7.812 -7.813,-7.812 -4.316,0 -7.812,3.496 -7.812,7.812 0,4.317 3.496,7.813 7.812,7.813 z m 0,18.75 c 10.043,0 14.063,-4.902 14.063,-9.766 v -0.32 c 0,-3.062 -2.48,-5.539 -5.539,-5.539 H 49.289 c -3.059,0 -5.539,2.477 -5.539,5.539 v 0.32 c 0,4.883 4.02,9.766 14.062,9.766 z M 24.219,25 c -1.293,0 -2.344,1.051 -2.344,2.344 v 20.312 c 0,1.293 1.051,2.344 2.344,2.344 1.293,0 2.343,-1.051 2.343,-2.344 v -5.468 h 3.907 c 4.746,0 8.593,-3.848 8.593,-8.594 C 39.062,28.848 35.215,25 30.469,25 Z m 6.25,12.5 h -3.907 v -7.812 h 3.907 c 2.156,0 3.906,1.75 3.906,3.906 0,2.156 -1.75,3.906 -3.906,3.906 z" style="fill:currentColor;fill-opacity:1;fill-rule:nonzero;stroke:none" transform="scale(1.3333333)" /> </g>
</svg>

