<?xml version="1.0" encoding="UTF-8" standalone="no"?> <svg version="1.1" id="Id480bd741f4d4955916cd1eafb83178b20251110133655" width="100" height="100" viewBox="0 0 100 100" xmlns="http://www.w3.org/2000/svg" xmlns:svg="http://www.w3.org/2000/svg"> <defs id="Ia32876e4604e4210b41a94c8f4a0bfe020251110133655" /> <g id="If6d42d7fc15a44c6a5e47222cfa3b14020251110133655"> <path id="Ibcb95ec9598840d0b37a93d781850f0d20251110133655" d="m 15.625,59.004 c -0.082,0.043 -0.164,0.086 -0.246,0.133 -0.078,0.043 -0.16,0.082 -0.242,0.113 -0.899,0.34 -1.934,-0.027 -2.407,-0.895 -0.515,-0.945 -0.168,-2.132 0.782,-2.648 4.66,-2.543 8.847,-3.137 12.996,-2.367 4.039,0.746 7.91,2.762 11.965,5.125 7.425,4.332 16.082,3.176 20.929,-0.289 0.879,-0.625 2.098,-0.422 2.727,0.453 0.625,0.879 0.422,2.098 -0.453,2.726 -6.09,4.348 -16.403,5.602 -25.172,0.485 -4.039,-2.356 -7.395,-4.051 -10.703,-4.66 -3.137,-0.578 -6.352,-0.207 -10.176,1.824 z M 56.25,54.66 c 0.309,-0.098 0.617,-0.203 0.918,-0.316 1.664,-0.621 3.187,-1.418 4.512,-2.364 0.875,-0.628 1.078,-1.847 0.453,-2.726 -0.629,-0.875 -1.848,-1.078 -2.727,-0.453 -4.847,3.465 -13.504,4.621 -20.929,0.289 -4.055,-2.363 -7.926,-4.379 -11.965,-5.125 -4.149,-0.77 -8.336,-0.176 -12.996,2.367 -0.95,0.516 -1.297,1.703 -0.782,2.648 0.516,0.95 1.704,1.297 2.649,0.782 3.933,-2.145 7.219,-2.547 10.422,-1.957 3.308,0.609 6.664,2.304 10.703,4.66 6.519,3.801 13.887,4.086 19.742,2.195 z M 20.465,38.457 c 1.347,-0.273 2.637,-0.332 3.898,-0.223 0.485,0.039 0.965,0.106 1.446,0.196 3.308,0.609 6.664,2.304 10.707,4.66 8.765,5.117 19.078,3.863 25.168,-0.485 0.875,-0.628 1.078,-1.847 0.453,-2.726 -0.629,-0.875 -1.848,-1.078 -2.727,-0.453 -4.848,3.465 -13.504,4.621 -20.93,0.289 -4.054,-2.363 -7.921,-4.379 -11.964,-5.125 -4.149,-0.77 -8.336,-0.176 -12.996,2.367 -0.95,0.516 -1.297,1.703 -0.782,2.648 0.516,0.95 1.703,1.297 2.649,0.782 1.812,-0.989 3.488,-1.606 5.078,-1.93 z M 50.656,37.5 c 0,0.344 -0.015,0.688 -0.039,1.027 1.422,-0.148 2.758,-0.468 3.945,-0.922 V 37.5 c 0,-9.422 -7.64,-17.062 -17.062,-17.062 -6.891,0 -12.828,4.085 -15.52,9.964 1.446,-0.082 2.883,-0.011 4.321,0.192 2.316,-3.75 6.465,-6.25 11.199,-6.25 7.266,0 13.156,5.89 13.156,13.156 z M 37.617,68.75 c -0.043,0.004 -0.086,0.004 -0.129,0.004 -0.043,0 -0.086,0 -0.129,-0.004 z M 18.137,15.461 17.977,15.32 c -0.766,-0.617 -1.891,-0.57 -2.602,0.141 -0.766,0.762 -0.766,2 0,2.762 l 3.355,3.355 0.157,0.145 c 0.769,0.617 1.894,0.57 2.605,-0.145 0.762,-0.762 0.762,-2 0,-2.762 z m 41.605,2.605 c 0.617,-0.769 0.57,-1.894 -0.14,-2.605 -0.766,-0.762 -2,-0.762 -2.766,0 l -3.356,3.355 -0.14,0.161 c -0.617,0.765 -0.57,1.89 0.14,2.601 0.766,0.766 2,0.766 2.762,0 l 3.36,-3.355 z M 39.445,8 C 39.344,7.016 38.512,6.246 37.5,6.246 c -1.078,0 -1.953,0.875 -1.953,1.953 v 4.746 l 0.012,0.2 c 0.097,0.984 0.929,1.753 1.941,1.753 1.078,0 1.953,-0.875 1.953,-1.953 V 8.199 Z" style="fill:currentColor;fill-opacity:1;fill-rule:nonzero;stroke:none" transform="scale(1.3333333)" /> </g>
</svg>

