<?xml version="1.0" encoding="UTF-8" standalone="no"?> <svg version="1.1" id="Ic782ae9eff074beb91b5de1b6e4eb4ce20251110130508" width="100" height="100" viewBox="0 0 100 100" xmlns="http://www.w3.org/2000/svg" xmlns:svg="http://www.w3.org/2000/svg"> <defs id="I4869e09b1d804805bb62e0557981557720251110130508" /> <g id="I301bf22b41e24de2a24ca895fc49322720251110130508"> <path id="I99028d45cc9840c0a90d70c160dda8db20251110130508" d="m 9.375,19.531 c 0,-5.609 4.547,-10.156 10.156,-10.156 h 35.938 c 5.609,0 10.156,4.547 10.156,10.156 v 35.938 c 0,5.609 -4.547,10.156 -10.156,10.156 H 19.531 C 13.922,65.625 9.375,61.078 9.375,55.469 Z M 50.781,35.156 H 24.219 c -1.293,0 -2.344,1.051 -2.344,2.344 0,1.293 1.051,2.344 2.344,2.344 h 26.562 c 1.293,0 2.344,-1.051 2.344,-2.344 0,-1.293 -1.051,-2.344 -2.344,-2.344 z" style="fill:currentColor;fill-opacity:1;fill-rule:nonzero;stroke:none" transform="scale(1.3333333)" /> </g>
</svg>

