<?xml version="1.0" encoding="UTF-8" standalone="no"?> <svg version="1.1" id="I657db972f4204f84be212a4b05ad677620251106163937" width="100" height="100" viewBox="0 0 100 100" xmlns="http://www.w3.org/2000/svg" xmlns:svg="http://www.w3.org/2000/svg"> <defs id="I853fecf53173417db8781aaa6ef4897420251106163937" /> <g id="I527379bb397c42599f77b84b80d4074920251106163937"> <path id="Idd4db8ad8d2a4558b3504a76eb62b48720251106163937" d="m 67.652,42.855 h 0.016 -0.027 z m -1.886,-1.39 c 0.265,0.851 1.035,1.387 1.886,1.39 0.184,0 0.395,-0.054 0.606,-0.105 1.043,-0.32 1.633,-1.473 1.285,-2.52 C 69.461,39.992 61.426,16.07 37.5,16.07 13.574,16.07 5.539,39.992 5.457,40.23 c -0.348,1.047 0.242,2.172 1.285,2.52 1.074,0.348 2.199,-0.242 2.547,-1.285 L 9.293,41.449 C 9.652,40.406 16.625,20.09 37.527,20.09 c 21.004,0 27.942,20.492 28.239,21.375 z m -41.661,1.39 c 0,-7.394 5.997,-13.39 13.395,-13.39 7.398,0 13.395,5.996 13.395,13.39 0,7.399 -5.997,13.395 -13.395,13.395 -7.398,0 -13.395,-5.996 -13.395,-13.395 z" style="fill:currentColor;fill-opacity:1;fill-rule:nonzero;stroke:none" transform="scale(1.3333333)" /> </g>
</svg>

