<?xml version="1.0" encoding="UTF-8" standalone="no"?> <svg version="1.1" id="I2563aac1778e40d8bd192c29c28d4aa820251106125938" width="100" height="100" viewBox="0 0 100 100" xmlns="http://www.w3.org/2000/svg" xmlns:svg="http://www.w3.org/2000/svg"> <defs id="Ie5f1f560f3e64ecb986ffb5bc1c3420320251106125938" /> <g id="I4b24a0c6cd2740f79c2813b1874b084620251106125938"> <path id="Ic39f203dc7f04fcc875dcc1b11c3770120251106125938" d="m 36.402,12.52 0.321,-0.02 c 1.183,0 2.168,0.883 2.32,2.027 l 0.023,0.317 -0.004,39.676 10.063,-10.067 c 0.828,-0.832 2.133,-0.91 3.051,-0.23 l 0.262,0.23 c 0.832,0.828 0.91,2.133 0.226,3.051 l -0.226,0.262 -14.051,14.062 c -0.828,0.832 -2.133,0.91 -3.051,0.227 L 35.074,61.828 21,47.766 c -0.914,-0.914 -0.918,-2.399 0,-3.313 0.828,-0.832 2.133,-0.91 3.051,-0.23 l 0.261,0.23 10.063,10.055 0.004,-39.664 c 0,-1.188 0.879,-2.168 2.023,-2.324 l 0.321,-0.02 z" style="fill:currentColor;fill-opacity:1;fill-rule:nonzero;stroke:none" transform="scale(1.3333333)" /> </g>
</svg>

