<?xml version="1.0" encoding="UTF-8" standalone="no"?> <svg version="1.1" id="I2a71163609aa40f6a5caaf04f4432efa20251110130509" width="100" height="100" viewBox="0 0 100 100" xmlns="http://www.w3.org/2000/svg" xmlns:svg="http://www.w3.org/2000/svg"> <defs id="I8e41c42ca2d04fcea1f6376d6456310c20251110130509" /> <g id="I6c8d06dc4cad4b5d9c1ff1312e45183220251110130509"> <path id="I0fe176f2cdd44c2ab73db49f35b531ee20251110130509" d="m 9.375,21.094 c 0,-6.473 5.246,-11.719 11.719,-11.719 h 32.812 c 6.473,0 11.719,5.246 11.719,11.719 v 32.812 c 0,6.473 -5.246,11.719 -11.719,11.719 H 21.094 c -6.473,0 -11.719,-5.246 -11.719,-11.719 z m 10.547,28.125 c 0,1.293 1.051,2.343 2.344,2.343 h 10.546 c 1.293,0 2.344,-1.05 2.344,-2.343 0,-1.293 -1.051,-2.344 -2.344,-2.344 H 22.266 c -1.293,0 -2.344,1.051 -2.344,2.344 z m 2.344,-21.094 c -1.293,0 -2.344,1.051 -2.344,2.344 0,1.293 1.051,2.343 2.344,2.343 h 10.546 c 1.293,0 2.344,-1.05 2.344,-2.343 0,-1.293 -1.051,-2.344 -2.344,-2.344 z m 32.117,14.75 c -0.914,-0.918 -2.399,-0.918 -3.317,0 l -5.371,5.371 -1.851,-1.848 c -0.914,-0.914 -2.399,-0.914 -3.313,0 -0.918,0.914 -0.918,2.399 0,3.317 l 3.504,3.504 c 0.918,0.918 2.403,0.918 3.317,0 l 7.031,-7.031 c 0.914,-0.915 0.914,-2.399 0,-3.313 z m 0,-15.437 c 0.914,-0.915 0.914,-2.399 0,-3.313 -0.914,-0.918 -2.399,-0.918 -3.317,0 l -5.371,5.371 -1.851,-1.848 c -0.914,-0.914 -2.399,-0.914 -3.313,0 -0.918,0.914 -0.918,2.399 0,3.317 l 3.504,3.504 c 0.918,0.918 2.403,0.918 3.317,0 z" style="fill:currentColor;fill-opacity:1;fill-rule:nonzero;stroke:none" transform="scale(1.3333333)" /> </g>
</svg>

