<?xml version="1.0" encoding="UTF-8" standalone="no"?> <svg version="1.1" id="Ia5ee8a95a13249dc89e5d78f6dfcb4bb20251110130510" width="100" height="100" viewBox="0 0 100 100" xmlns="http://www.w3.org/2000/svg" xmlns:svg="http://www.w3.org/2000/svg"> <defs id="Ie2add0a4b35f49ceadb4eecaa903ccaa20251110130510" /> <g id="Ic918c543d3094a24a4052f4428b2909f20251110130510"> <path id="Ie5cbc1be08174e9a9e68cc1954499b3b20251110130510" d="m 16.5,22.562 -2.246,-2.25 h 52.152 c 1.293,0 2.344,-1.05 2.344,-2.343 0,-1.293 -1.051,-2.344 -2.344,-2.344 H 14.254 l 2.246,-2.25 c 0.918,-0.914 0.918,-2.398 0,-3.313 -0.914,-0.917 -2.398,-0.917 -3.312,0 l -6.25,6.25 c -0.918,0.915 -0.918,2.399 0,3.313 l 6.25,6.25 c 0.914,0.918 2.398,0.918 3.312,0 0.918,-0.914 0.918,-2.398 0,-3.313 z M 8.594,35.938 c -1.293,0 -2.344,1.05 -2.344,2.343 0,1.293 1.051,2.344 2.344,2.344 h 57.812 c 1.293,0 2.344,-1.051 2.344,-2.344 0,-1.293 -1.051,-2.343 -2.344,-2.343 z m 0,25 h 52.152 l -2.246,2.25 c -0.918,0.914 -0.918,2.398 0,3.312 0.914,0.918 2.398,0.918 3.312,0 l 6.25,-6.25 c 0.918,-0.914 0.918,-2.398 0,-3.312 l -6.25,-6.25 c -0.914,-0.918 -2.398,-0.918 -3.312,0 -0.918,0.914 -0.918,2.398 0,3.312 l 2.246,2.25 H 8.594 c -1.293,0 -2.344,1.051 -2.344,2.344 0,1.293 1.051,2.344 2.344,2.344 z" style="fill:currentColor;fill-opacity:1;fill-rule:nonzero;stroke:none" transform="scale(1.3333333)" /> </g>
</svg>

