<?xml version="1.0" encoding="UTF-8" standalone="no"?> <svg version="1.1" id="Id8e677dbabca40a8a504c075b9996fbb20251106105458" width="100" height="100" viewBox="0 0 100 100" xmlns="http://www.w3.org/2000/svg" xmlns:svg="http://www.w3.org/2000/svg"> <defs id="I7d0a14778e554c9f9c3dcf0cd91e7e5720251106105458" /> <g id="I9fb5634e824f4bc085a44788f22b230b20251106105458"> <path id="I2cc8fc5b65b4441681961e88997d381820251106105458" d="m 20.09,18.082 h 4.687 c 0.368,0 0.668,-0.305 0.668,-0.672 0,-2.367 0.496,-4.453 1.434,-6.152 0.887,-1.625 2.176,-2.914 3.801,-3.801 1.707,-0.93 3.781,-1.43 6.152,-1.43 h 1.336 c 2.371,0 4.453,0.493 6.152,1.43 1.625,0.887 2.914,2.176 3.801,3.801 0.93,1.707 1.434,3.785 1.434,6.152 0,0.367 0.3,0.672 0.668,0.672 h 4.687 c 0.367,0 0.672,-0.305 0.672,-0.672 0,-3.348 -0.738,-6.418 -2.168,-9.047 C 51.988,5.742 49.84,3.59 47.219,2.168 44.59,0.738 41.52,0 38.168,0 H 36.832 C 33.48,0 30.41,0.738 27.781,2.168 25.16,3.59 23.012,5.742 21.586,8.363 c -1.43,2.629 -2.168,5.699 -2.168,9.047 0,0.367 0.305,0.672 0.672,0.672 z" style="fill:currentColor;fill-opacity:1;fill-rule:nonzero;stroke:none" transform="scale(1.3333333)" /> <path id="Iaa9397789b5b45f5b9a70aae91a88e2f20251106105458" d="M 73.324,37.5 H 60.938 v -8.371 c 6.429,0 11.636,-5.207 11.636,-11.633 0,-0.371 -0.304,-0.672 -0.672,-0.672 h -5.023 c -0.367,0 -0.668,0.301 -0.668,0.672 0,2.91 -2.359,5.274 -5.273,5.274 H 14.062 c -2.914,0 -5.273,-2.364 -5.273,-5.274 0,-0.371 -0.301,-0.672 -0.668,-0.672 H 3.098 c -0.368,0 -0.672,0.301 -0.672,0.672 0,6.426 5.207,11.633 11.636,11.633 V 37.5 H 1.676 c -0.371,0 -0.672,0.301 -0.672,0.668 v 4.687 c 0,0.372 0.301,0.672 0.672,0.672 h 12.386 v 8.035 c 0,0.543 0.016,1.09 0.059,1.618 -5.742,2.449 -9.769,8.152 -9.769,14.789 0,0.367 0.3,0.668 0.671,0.668 h 4.688 c 0.367,0 0.668,-0.301 0.668,-0.668 0,-3.699 2,-6.938 4.988,-8.68 0.496,1.426 1.133,2.801 1.903,4.102 2.031,3.472 4.937,6.379 8.41,8.41 3.476,2.035 7.508,3.199 11.82,3.199 4.312,0 8.355,-1.164 11.828,-3.199 4.809,-2.817 8.465,-7.25 10.313,-12.512 3.086,1.801 4.98,5.106 4.98,8.68 0,0.367 0.301,0.668 0.668,0.668 h 4.688 c 0.371,0 0.671,-0.301 0.671,-0.668 0,-6.637 -4.027,-12.34 -9.769,-14.789 0.035,-0.539 0.059,-1.075 0.059,-1.618 v -8.035 h 12.386 c 0.371,0 0.672,-0.3 0.672,-0.672 v -4.687 c 0,-0.367 -0.301,-0.668 -0.672,-0.668 z m -18.75,14.062 c 0,3.083 -0.808,6.028 -2.324,8.614 -1.484,2.535 -3.602,4.652 -6.137,6.136 -2.586,1.516 -5.531,2.325 -8.613,2.325 -3.082,0 -6.027,-0.809 -8.613,-2.325 C 26.352,64.828 24.234,62.711 22.75,60.176 21.223,57.562 20.418,54.59 20.426,51.562 V 29.129 h 34.148 z" style="fill:currentColor;fill-opacity:1;fill-rule:nonzero;stroke:none" transform="scale(1.3333333)" /> </g>
</svg>

