<?xml version="1.0" encoding="UTF-8" standalone="no"?> <svg version="1.1" id="Iaf7f1f872d664bc69bd50f9e44d9564520251106170956" width="100" height="100" viewBox="0 0 100 100" xmlns="http://www.w3.org/2000/svg" xmlns:svg="http://www.w3.org/2000/svg"> <defs id="I49b6c1fa69d3430e8bfc7f7372eef1f120251106170956" /> <g id="Ibb85807147744c4ea8217b0ba6ed559020251106170956"> <path id="I95773d94ce984be39c50caf0a87e57ff20251106170956" d="m 58.258,8.035 c 4.808,0 8.707,3.899 8.707,8.707 v 41.516 c 0,4.808 -3.899,8.707 -8.707,8.707 H 16.742 c -4.808,0 -8.707,-3.899 -8.707,-8.707 V 16.742 c 0,-4.808 3.899,-8.707 8.707,-8.707 z m 0,4.02 H 16.742 c -2.59,0 -4.687,2.097 -4.687,4.687 V 40.18 h 16.07 c 1.016,0 1.859,0.754 1.992,1.734 l 0.016,0.274 c 0,4.066 3.301,7.367 7.367,7.367 4.066,0 7.367,-3.301 7.367,-7.367 0,-1.016 0.754,-1.86 1.735,-1.993 l 0.273,-0.015 h 16.07 V 16.742 c 0,-2.59 -2.097,-4.687 -4.687,-4.687 z" style="fill:currentColor;fill-opacity:1;fill-rule:nonzero;stroke:none" transform="scale(1.3333333)" /> </g>
</svg>

