<?xml version="1.0" encoding="UTF-8" standalone="no"?> <svg version="1.1" id="I5d3fbc8f61fa44aea6e2387265a2923320251106125937" width="100" height="100" viewBox="0 0 100 100" xmlns="http://www.w3.org/2000/svg" xmlns:svg="http://www.w3.org/2000/svg"> <defs id="I6552373fdeb14f62a708a612b2a1788520251106125937" /> <g id="I70c2d91e0e9c422ab9c07b2c319624d920251106125937"> <path id="I77c4e9cf940b42abab7dcd78728ccb3220251106125937" d="m 56.25,8.594 c 0,-1.293 -1.051,-2.344 -2.344,-2.344 -1.293,0 -2.344,1.051 -2.344,2.344 v 52.152 l -6.937,-6.934 c -0.914,-0.917 -2.398,-0.917 -3.313,0 -0.917,0.915 -0.917,2.399 0,3.313 L 52.25,68.062 c 0.914,0.918 2.398,0.918 3.312,0 L 66.5,57.125 c 0.918,-0.914 0.918,-2.398 0,-3.313 -0.914,-0.917 -2.398,-0.917 -3.312,0 L 56.25,60.746 Z M 9.766,18.367 c 0,-6.687 5.422,-12.109 12.109,-12.109 6.691,0 12.113,5.422 12.113,12.109 0,9.219 -3.769,20.512 -5.66,25.637 -1.012,2.738 -3.621,4.434 -6.445,4.434 -2.828,0 -5.445,-1.708 -6.453,-4.45 C 13.539,38.84 9.766,27.488 9.766,18.367 Z m 12.109,-7.422 c -4.098,0 -7.422,3.321 -7.422,7.422 0,8.195 3.481,18.844 5.379,24.004 0.297,0.813 1.09,1.379 2.051,1.379 0.957,0 1.75,-0.562 2.047,-1.371 1.894,-5.129 5.371,-15.719 5.371,-24.012 0,-4.101 -3.324,-7.422 -7.426,-7.422 z m -7.813,50 c 0,-4.316 3.5,-7.816 7.817,-7.816 4.316,0 7.816,3.5 7.816,7.816 0,4.317 -3.5,7.817 -7.816,7.817 -4.317,0 -7.817,-3.5 -7.817,-7.817 z m 7.817,-3.129 c -1.727,0 -3.129,1.399 -3.129,3.129 0,1.727 1.402,3.129 3.129,3.129 1.726,0 3.129,-1.402 3.129,-3.129 0,-1.73 -1.403,-3.129 -3.129,-3.129 z" style="fill:currentColor;fill-opacity:1;fill-rule:nonzero;stroke:none" transform="scale(1.3333333)" /> </g>
</svg>

