<?xml version="1.0" encoding="UTF-8" standalone="no"?> <svg version="1.1" id="I6bebfec2951d47409d76c9e5ea0a699e20251110124422" width="100" height="100" viewBox="0 0 100 100" xmlns="http://www.w3.org/2000/svg" xmlns:svg="http://www.w3.org/2000/svg"> <defs id="I23b7b9ca66a14ee6b6d9a54ecc89a98d20251110124422" /> <g id="Id6c8e8176a484773bce5a8a1fbe546a320251110124422"> <path id="I586891d696c744bfa5a01dec79667f1020251110124422" d="M 18.75,27.344 C 18.75,26.051 19.801,25 21.094,25 h 14.062 c 1.293,0 2.344,1.051 2.344,2.344 0,1.293 -1.051,2.344 -2.344,2.344 H 21.094 c -1.293,0 -2.344,-1.051 -2.344,-2.344 z m 2.344,7.031 c -1.293,0 -2.344,1.051 -2.344,2.344 0,1.293 1.051,2.343 2.344,2.343 h 26.562 c 1.293,0 2.344,-1.05 2.344,-2.343 0,-1.293 -1.051,-2.344 -2.344,-2.344 z M 18.75,46.094 c 0,-1.293 1.051,-2.344 2.344,-2.344 h 20.312 c 1.293,0 2.344,1.051 2.344,2.344 0,1.293 -1.051,2.344 -2.344,2.344 H 21.094 c -1.293,0 -2.344,-1.051 -2.344,-2.344 z m -12.5,-25 c 0,-4.746 3.848,-8.594 8.594,-8.594 h 45.312 c 4.746,0 8.594,3.848 8.594,8.594 v 14.094 c -1.488,-0.629 -3.098,-0.895 -4.688,-0.79 V 21.094 c 0,-2.156 -1.75,-3.906 -3.906,-3.906 H 14.844 c -2.156,0 -3.906,1.75 -3.906,3.906 v 32.812 c 0,2.156 1.75,3.906 3.906,3.906 h 22.601 c -0.656,1.032 -1.144,2.168 -1.441,3.364 L 35.672,62.5 H 14.844 C 10.098,62.5 6.25,58.652 6.25,53.906 Z m 53.438,18.5 -18.446,18.445 c -1.074,1.074 -1.84,2.422 -2.207,3.899 l -1.43,5.718 c -0.621,2.489 1.629,4.742 4.118,4.121 l 5.722,-1.433 c 1.477,-0.367 2.825,-1.129 3.899,-2.207 L 69.789,49.695 c 2.789,-2.793 2.789,-7.312 0,-10.101 -2.789,-2.793 -7.312,-2.793 -10.101,0 z" style="fill:currentColor;fill-opacity:1;fill-rule:nonzero;stroke:none" transform="scale(1.3333333)" /> </g>
</svg>

