<?xml version="1.0" encoding="UTF-8" standalone="no"?> <svg version="1.1" id="If608f83863ae4ea4bf9501a0df321f0b20251110135155" width="100" height="100" viewBox="0 0 100 100" xmlns="http://www.w3.org/2000/svg" xmlns:svg="http://www.w3.org/2000/svg"> <defs id="Ic5436e927cca4b968a4397ea1fd6a3c720251110135155" /> <g id="I74ac9772329646d2af293fddaf36792520251110135155"> <path id="I32b4433107d34ed8bdf7987c1656b44b20251110135155" d="m 45.312,8.594 c 0,-1.086 -0.746,-2.032 -1.804,-2.282 -1.059,-0.25 -2.149,0.262 -2.637,1.235 -0.84,1.676 -2.129,2.988 -3.273,3.902 -0.563,0.453 -1.067,0.789 -1.422,1.008 -0.18,0.109 -0.317,0.188 -0.406,0.238 -0.043,0.024 -0.075,0.039 -0.094,0.047 l -0.012,0.008 c -1.152,0.582 -1.621,1.988 -1.043,3.141 0.582,1.16 1.988,1.629 3.145,1.05 l 0.031,-0.015 0.058,-0.031 c 0.043,-0.024 0.106,-0.055 0.18,-0.098 0.149,-0.082 0.352,-0.195 0.594,-0.348 0.492,-0.301 1.16,-0.746 1.898,-1.336 l 0.098,-0.082 v 17 c 0,1.293 1.051,2.344 2.344,2.344 1.293,0 2.343,-1.051 2.343,-2.344 z M 8.594,6.25 c 1.293,0 2.344,1.051 2.344,2.344 v 8.594 h 12.5 v -8.59 c 0,-1.293 1.05,-2.344 2.343,-2.344 1.293,0 2.344,1.051 2.344,2.344 v 23.418 c 0,1.293 -1.051,2.343 -2.344,2.343 -1.293,0 -2.343,-1.05 -2.343,-2.343 V 21.875 h -12.5 v 10.156 c 0,1.293 -1.051,2.344 -2.344,2.344 -1.293,0 -2.344,-1.051 -2.344,-2.344 V 8.594 C 6.25,7.301 7.301,6.25 8.594,6.25 Z m 0,53.125 c -1.293,0 -2.344,1.051 -2.344,2.344 0,1.293 1.051,2.343 2.344,2.343 h 57.812 c 1.293,0 2.344,-1.05 2.344,-2.343 0,-1.293 -1.051,-2.344 -2.344,-2.344 z M 6.25,46.094 c 0,-1.293 1.051,-2.344 2.344,-2.344 h 57.812 c 1.293,0 2.344,1.051 2.344,2.344 0,1.293 -1.051,2.344 -2.344,2.344 H 8.594 c -1.293,0 -2.344,-1.051 -2.344,-2.344 z" style="fill:currentColor;fill-opacity:1;fill-rule:nonzero;stroke:none" transform="scale(1.3333333)" /> </g>
</svg>

