<?xml version="1.0" encoding="UTF-8" standalone="no"?> <svg version="1.1" id="If528e96efb3b40f789915d5c17440e1920251106125938" width="100" height="100" viewBox="0 0 100 100" xmlns="http://www.w3.org/2000/svg" xmlns:svg="http://www.w3.org/2000/svg"> <defs id="I57951dc9bbef4de59d3f3f88698814b920251106125938" /> <g id="I6d572d25296e4710a519ded97687992d20251106125938"> <path id="I993d1470abc649518ff64fe86abb449120251106125938" d="m 36.719,6.25 c 1.293,0 2.343,1.051 2.343,2.344 v 13.09 l 3.813,-3.809 c 0.914,-0.918 2.398,-0.918 3.313,0 0.917,0.914 0.917,2.398 0,3.313 L 38.375,29 c -0.914,0.918 -2.398,0.918 -3.313,0 L 27.25,21.188 c -0.918,-0.915 -0.918,-2.399 0,-3.313 0.914,-0.918 2.398,-0.918 3.312,0 l 3.813,3.809 V 8.594 c 0,-1.293 1.051,-2.344 2.344,-2.344 z" style="fill:currentColor;fill-opacity:1;fill-rule:nonzero;stroke:none" transform="scale(1.3333333)" /> <path id="I0ba8242a78ed45d8aee1e42a19152bab20251106125938" d="m 12.5,36.719 c 0,-1.293 1.051,-2.344 2.344,-2.344 h 45.312 c 1.293,0 2.344,1.051 2.344,2.344 0,1.293 -1.051,2.343 -2.344,2.343 H 14.844 c -1.293,0 -2.344,-1.05 -2.344,-2.343 z" style="fill:currentColor;fill-opacity:1;fill-rule:nonzero;stroke:none" transform="scale(1.3333333)" /> <path id="I8099fd0bb18e4c9d9a69948a1f6c065b20251106125938" d="m 42.875,55.562 c 0.914,0.918 2.398,0.918 3.313,0 0.917,-0.914 0.917,-2.398 0,-3.312 l -7.813,-7.812 c -0.914,-0.918 -2.398,-0.918 -3.313,0 L 27.25,52.25 c -0.918,0.914 -0.918,2.398 0,3.312 0.914,0.918 2.398,0.918 3.312,0 l 3.813,-3.808 v 14.652 c 0,1.293 1.051,2.344 2.344,2.344 1.293,0 2.343,-1.051 2.343,-2.344 V 51.754 Z" style="fill:currentColor;fill-opacity:1;fill-rule:nonzero;stroke:none" transform="scale(1.3333333)" /> </g>
</svg>

