<?xml version="1.0" encoding="UTF-8" standalone="no"?> <svg version="1.1" id="Ib4ed299fbc8f49d8860089d5ac4469e620251106151526" width="100" height="100" viewBox="0 0 100 100" xmlns="http://www.w3.org/2000/svg" xmlns:svg="http://www.w3.org/2000/svg"> <defs id="I0e649e0aa7c24fb6b9968e47996b8c2020251106151526" /> <g id="I1c9693f554594942ba831db87585165520251106151526"> <path id="I493d1f15ce1847b2b00f043a531a022020251106151526" d="m 45.918,67.602 c 1.484,-0.414 2.926,-0.934 4.316,-1.555 L 38.188,54 c -0.918,-0.914 -0.918,-2.398 0,-3.312 0.914,-0.918 2.398,-0.918 3.312,0 l 13.023,13.023 c 1.176,-0.766 2.297,-1.606 3.356,-2.52 L 46,49.312 C 45.082,48.398 45.082,46.914 46,46 c 0.914,-0.918 2.398,-0.918 3.312,0 l 11.879,11.879 c 0.914,-1.059 1.754,-2.18 2.52,-3.356 L 50.688,41.5 c -0.918,-0.914 -0.918,-2.398 0,-3.312 0.914,-0.918 2.398,-0.918 3.312,0 l 12.047,12.046 c 0.621,-1.39 1.141,-2.832 1.555,-4.316 L 53.812,32.125 c -0.917,-0.914 -0.917,-2.398 0,-3.313 0.915,-0.917 2.399,-0.917 3.313,0 l 11.5,11.5 c 0.082,-0.925 0.125,-1.863 0.125,-2.812 0,-1.043 -0.051,-2.07 -0.148,-3.086 L 54.594,20.406 c -0.918,-0.914 -0.918,-2.398 0,-3.312 0.914,-0.918 2.398,-0.918 3.312,0 l 8.492,8.488 C 61.711,14.234 50.539,6.25 37.5,6.25 20.242,6.25 6.25,20.242 6.25,37.5 c 0,13.039 7.984,24.211 19.332,28.898 l -8.488,-8.492 c -0.918,-0.914 -0.918,-2.398 0,-3.312 0.914,-0.918 2.398,-0.918 3.312,0 l 14.008,14.008 c 1.016,0.097 2.043,0.148 3.086,0.148 0.949,0 1.887,-0.043 2.812,-0.125 l -11.5,-11.5 c -0.917,-0.914 -0.917,-2.398 0,-3.313 0.915,-0.917 2.399,-0.917 3.313,0 z" style="fill:currentColor;fill-opacity:1;fill-rule:nonzero;stroke:none" transform="scale(1.3333333)" /> </g>
</svg>

