<?xml version="1.0" encoding="UTF-8" standalone="no"?> <svg version="1.1" id="I823e94a87428483c8644e2a00947053620251110135155" width="100" height="100" viewBox="0 0 100 100" xmlns="http://www.w3.org/2000/svg" xmlns:svg="http://www.w3.org/2000/svg"> <defs id="If98299f4b5ac459197ed3bb098a38d0720251110135155" /> <g id="I77e08705f82940ada047e9be83d7059c20251110135155"> <path id="I0978e0b5ba094909a848d320afcb336220251110135155" d="m 9.375,6.25 c 1.727,0 3.125,1.398 3.125,3.125 v 7.813 h 9.375 V 9.379 c 0,-1.727 1.398,-3.125 3.125,-3.125 1.727,0 3.125,1.398 3.125,3.125 v 21.855 c 0,1.727 -1.398,3.125 -3.125,3.125 -1.727,0 -3.125,-1.398 -3.125,-3.125 V 23.438 H 12.5 v 7.812 c 0,1.727 -1.398,3.125 -3.125,3.125 -1.727,0 -3.125,-1.398 -3.125,-3.125 V 9.375 C 6.25,7.648 7.648,6.25 9.375,6.25 Z m 0,53.125 c -1.727,0 -3.125,1.398 -3.125,3.125 0,1.727 1.398,3.125 3.125,3.125 h 56.25 c 1.727,0 3.125,-1.398 3.125,-3.125 0,-1.727 -1.398,-3.125 -3.125,-3.125 z M 6.25,46.875 c 0,-1.727 1.398,-3.125 3.125,-3.125 h 56.25 c 1.727,0 3.125,1.398 3.125,3.125 0,1.727 -1.398,3.125 -3.125,3.125 H 9.375 C 7.648,50 6.25,48.602 6.25,46.875 Z M 40.625,31.25 c 0,1.719 1.406,3.125 3.125,3.125 1.719,0 3.125,-1.406 3.125,-3.125 V 9.375 c 0,-1.437 -1,-2.687 -2.406,-3.031 -1.407,-0.344 -2.875,0.344 -3.5,1.594 -1.563,3.124 -4.781,4.843 -4.875,4.874 -1.532,0.782 -2.156,2.657 -1.375,4.188 0.75,1.562 2.656,2.188 4.187,1.406 0.032,-0.019 0.09,-0.051 0.168,-0.094 0.289,-0.156 0.864,-0.468 1.551,-0.937 z" style="fill:currentColor;fill-opacity:1;fill-rule:nonzero;stroke:none" transform="scale(1.3333333)" /> </g>
</svg>

