<?xml version="1.0" encoding="UTF-8" standalone="no"?> <svg version="1.1" id="Ib340a24422864bdaba6b6d3e86a8a7c220251110130508" width="100" height="100" viewBox="0 0 100 100" xmlns="http://www.w3.org/2000/svg" xmlns:svg="http://www.w3.org/2000/svg"> <defs id="I5580efa27dbd4786849d74c028dbfad520251110130508" /> <g id="I5b2acdf19d1e4b7abe1a82c6f611b79e20251110130508"> <path id="Ie9a99ce4e32f40309f029bf75ed852d020251110130508" d="M 37.5,23.438 C 37.5,13.945 29.805,6.25 20.312,6.25 10.82,6.25 3.125,13.945 3.125,23.438 c 0,9.492 7.695,17.187 17.187,17.187 9.493,0 17.188,-7.695 17.188,-17.187 z M 21.879,25 v 7.824 c 0,0.864 -0.699,1.563 -1.563,1.563 -0.863,0 -1.562,-0.699 -1.562,-1.563 V 25 h -7.832 c -0.86,0 -1.559,-0.699 -1.559,-1.562 0,-0.864 0.699,-1.563 1.559,-1.563 h 7.828 v -7.816 c 0,-0.86 0.699,-1.563 1.562,-1.563 0.864,0 1.563,0.703 1.563,1.563 v 7.816 h 7.801 c 0.863,0 1.562,0.699 1.562,1.563 0,0.863 -0.699,1.562 -1.562,1.562 z m -1.567,18.75 c 11.219,0 20.313,-9.094 20.313,-20.312 0,-2.77 -0.555,-5.407 -1.559,-7.813 h 7.809 c 3.453,0 6.25,2.797 6.25,6.25 V 43.75 c 0,3.453 -2.797,6.25 -6.25,6.25 H 12.5 C 9.047,50 6.25,47.203 6.25,43.75 v -5.656 c 3.648,3.504 8.605,5.656 14.062,5.656 z m 0,14.062 c -2.914,0 -5.359,-1.992 -6.054,-4.687 h 34.18 c 4.316,0 7.812,-3.496 7.812,-7.813 V 23.633 c 2.695,0.695 4.688,3.14 4.688,6.055 v 15.624 c 0,6.903 -5.598,12.5 -12.5,12.5 z m 7.813,7.813 c -2.914,0 -5.359,-1.992 -6.055,-4.687 h 28.711 c 7.336,0 13.281,-5.946 13.281,-13.282 V 31.445 c 2.696,0.696 4.688,3.141 4.688,6.055 v 10.156 c 0,9.922 -8.047,17.969 -17.969,17.969 z" style="fill:currentColor;fill-opacity:1;fill-rule:nonzero;stroke:none" transform="scale(1.3333333)" /> </g>
</svg>

