<?xml version="1.0" encoding="UTF-8" standalone="no"?> <svg version="1.1" id="I1fd36c147c8f4fa1a9ef9842993f522020251106105458" width="100" height="100" viewBox="0 0 100 100" xmlns="http://www.w3.org/2000/svg" xmlns:svg="http://www.w3.org/2000/svg"> <defs id="I76bb39dd27284f92816c40b08cdbd42e20251106105458" /> <g id="Iec4e1cbd0862421c8859884f5d5fe66320251106105458"> <path id="Ief0c48cbfe7f4755824efbbef71aefcc20251106105458" d="M 68.305,4.02 H 6.695 C 5.215,4.02 4.02,5.215 4.02,6.695 v 61.61 c 0,1.48 1.195,2.675 2.675,2.675 h 61.61 c 1.48,0 2.675,-1.195 2.675,-2.675 V 6.695 C 70.98,5.215 69.785,4.02 68.305,4.02 Z M 44.742,24.016 h 11.582 v 2.82 H 44.742 Z M 37.5,47.277 c -0.543,1.028 -1.316,1.918 -2.262,2.594 -0.984,0.688 -2.082,1.188 -3.246,1.481 -1.219,0.328 -2.472,0.488 -3.734,0.48 H 14.398 V 23.277 h 13.477 c 1.363,0 2.602,0.125 3.73,0.36 1.125,0.234 2.079,0.636 2.883,1.183 0.793,0.543 1.422,1.27 1.864,2.176 0.437,0.895 0.664,2.016 0.664,3.348 0,1.437 -0.328,2.629 -0.981,3.59 -0.66,0.964 -1.617,1.742 -2.914,2.351 1.766,0.504 3.067,1.399 3.918,2.656 0.871,1.27 1.297,2.793 1.297,4.586 0,1.457 -0.274,2.703 -0.836,3.75 z M 60.836,42.855 H 45.902 c 0,1.625 0.563,3.184 1.407,4.02 0.855,0.828 2.078,1.246 3.675,1.246 1.157,0 2.137,-0.293 2.973,-0.871 0.828,-0.574 1.332,-1.188 1.516,-1.824 h 5.004 c -0.805,2.488 -2.024,4.262 -3.684,5.332 -1.641,1.074 -3.648,1.609 -5.984,1.609 -1.633,0 -3.098,-0.269 -4.411,-0.781 -1.265,-0.492 -2.402,-1.246 -3.339,-2.215 -0.926,-1 -1.641,-2.172 -2.102,-3.449 -0.512,-1.414 -0.762,-2.906 -0.746,-4.402 0,-1.551 0.262,-2.989 0.762,-4.329 0.965,-2.605 2.965,-4.687 5.515,-5.769 1.367,-0.567 2.832,-0.852 4.313,-0.836 1.758,0 3.281,0.336 4.605,1.019 1.274,0.657 2.379,1.598 3.231,2.747 0.843,1.148 1.437,2.453 1.816,3.925 0.359,1.45 0.485,2.973 0.383,4.578 z m -10.211,-8 c -0.902,0 -1.664,0.161 -2.25,0.469 -0.586,0.309 -1.074,0.696 -1.441,1.137 -0.352,0.43 -0.61,0.926 -0.762,1.457 -0.133,0.445 -0.227,0.894 -0.258,1.355 H 55.16 C 55.027,37.828 54.527,36.754 53.855,36 53.152,35.258 52.023,34.855 50.625,34.855 Z M 29.824,34.008 c 0.727,-0.528 1.078,-1.395 1.078,-2.594 0.028,-0.57 -0.09,-1.129 -0.34,-1.641 C 30.336,29.363 30,29.02 29.59,28.777 29.164,28.52 28.691,28.348 28.199,28.277 27.664,28.176 27.121,28.125 26.586,28.133 h -5.887 v 6.672 h 6.371 c 1.098,0.007 2.028,-0.258 2.754,-0.797 z m 0.988,6.027 c -0.82,-0.625 -1.917,-0.937 -3.281,-0.937 h -6.847 v 7.871 h 6.714 c 0.625,0 1.204,-0.059 1.766,-0.176 0.559,-0.117 1.063,-0.32 1.488,-0.605 0.426,-0.274 0.77,-0.653 1.032,-1.137 0.25,-0.485 0.375,-1.106 0.375,-1.852 0,-1.48 -0.418,-2.527 -1.247,-3.164 z" style="fill:currentColor;fill-opacity:1;fill-rule:nonzero;stroke:none" transform="scale(1.3333333)" /> </g>
</svg>

