<?xml version="1.0" encoding="UTF-8" standalone="no"?> <svg version="1.1" id="I9664dbff5c344477b29ae3e1c7e0c2c320251110123029" width="100" height="100" viewBox="0 0 100 100" xmlns="http://www.w3.org/2000/svg" xmlns:svg="http://www.w3.org/2000/svg"> <defs id="Ib8f7183027934766992b277a4dcc671620251110123029" /> <g id="I2a5e888ed55140f58effcd572d20563f20251110123029"> <path id="I155e5abd077e4de38de7adfc9484126d20251110123029" d="M 18.75,11.25 C 12.535,11.25 7.5,16.285 7.5,22.5 V 48.75 C 7.5,54.965 12.535,60 18.75,60 h 37.5 C 62.465,60 67.5,54.965 67.5,48.75 V 22.5 c 0,-6.215 -5.035,-11.25 -11.25,-11.25 z m -7.5,11.25 c 0,-4.141 3.359,-7.5 7.5,-7.5 h 37.5 c 4.141,0 7.5,3.359 7.5,7.5 v 18.75 h -52.5 z m 0,22.5 h 52.5 v 3.75 c 0,4.141 -3.359,7.5 -7.5,7.5 h -37.5 c -4.141,0 -7.5,-3.359 -7.5,-7.5 z" style="fill:currentColor;fill-opacity:1;fill-rule:nonzero;stroke:none" transform="scale(1.3333333)" /> </g>
</svg>

