<?xml version="1.0" encoding="UTF-8" standalone="no"?> <svg version="1.1" id="Ia16945bba77643f2a063cf5b443c740320251106113050" width="100" height="100" viewBox="0 0 100 100" xmlns="http://www.w3.org/2000/svg" xmlns:svg="http://www.w3.org/2000/svg"> <defs id="Id0d79b65b8cc4ef8bdb4a0ce914bb95a20251106113050" /> <g id="I5549cac374364c6a98b437a1c54ef05b20251106113050"> <path id="Ifc15ae6eb50b4beead722f7db1ba2d8120251106113050" d="m 49.145,48.375 c -0.122,-0.105 -0.27,-0.16 -0.43,-0.16 h -4.578 c -0.199,0 -0.383,0.09 -0.508,0.242 L 37.5,55.805 31.383,48.457 c -0.129,-0.152 -0.317,-0.238 -0.512,-0.242 h -4.586 c -0.16,0 -0.312,0.058 -0.43,0.16 -0.285,0.234 -0.324,0.66 -0.082,0.945 l 8.563,10.278 -8.57,10.289 c -0.364,0.433 -0.059,1.097 0.507,1.105 h 4.582 c 0.2,0 0.383,-0.094 0.508,-0.246 l 6.121,-7.348 6.118,7.348 c 0.128,0.152 0.312,0.242 0.511,0.246 h 4.602 c 0.16,0 0.312,-0.058 0.43,-0.16 0.285,-0.234 0.324,-0.66 0.082,-0.945 l -8.563,-10.289 8.57,-10.286 c 0.235,-0.285 0.196,-0.703 -0.089,-0.937 z M 34.152,40.18 h 6.696 c 0.367,0 0.672,-0.301 0.672,-0.672 V 4.688 C 41.52,4.32 41.215,4.02 40.848,4.02 h -6.696 c -0.367,0 -0.672,0.3 -0.672,0.668 v 34.82 c 0,0.371 0.305,0.672 0.672,0.672 z M 23.941,26.953 H 10.043 V 6.027 C 10.043,5.75 9.82,5.523 9.543,5.523 H 4.52 c -0.278,0 -0.5,0.227 -0.5,0.504 v 24.442 c 0,1.39 1.121,2.511 2.507,2.511 h 17.414 c 0.274,0 0.5,-0.226 0.5,-0.503 v -5.02 c 0,-0.277 -0.226,-0.504 -0.5,-0.504 z M 70.48,5.523 h -5.023 c -0.277,0 -0.5,0.227 -0.5,0.504 V 26.953 H 51.059 c -0.274,0 -0.5,0.227 -0.5,0.504 v 5.02 c 0,0.277 0.226,0.503 0.5,0.503 h 17.414 c 1.386,0 2.507,-1.121 2.507,-2.511 V 6.027 c 0,-0.277 -0.222,-0.504 -0.5,-0.504 z" style="fill:currentColor;fill-opacity:1;fill-rule:nonzero;stroke:none" transform="scale(1.3333333)" /> </g>
</svg>

