<?xml version="1.0" encoding="UTF-8" standalone="no"?> <svg version="1.1" id="Icf47fa2694e241ff8137843ea0d686f420251106164749" width="100" height="100" viewBox="0 0 100 100" xmlns="http://www.w3.org/2000/svg" xmlns:svg="http://www.w3.org/2000/svg"> <defs id="I09368d839a664544a2604d173259088520251106164749" /> <g id="I2d834f7ab44a433a9b574faa98d3d31b20251106164749"> <path id="I3ab2371f53a44de7ba7a4811b06669fd20251106164749" d="m 9.375,56.25 c 1.727,0 3.125,1.398 3.125,3.125 0,1.727 -1.398,3.125 -3.125,3.125 -1.727,0 -3.125,-1.398 -3.125,-3.125 0,-1.727 1.398,-3.125 3.125,-3.125 z m 12.5,-43.75 h 31.25 c 1.727,0 3.125,1.398 3.125,3.125 0,1.602 -1.207,2.922 -2.762,3.105 l -0.363,0.02 H 38.598 l 25.031,9.695 c 2.406,0.93 2.672,4.157 0.609,5.512 l -0.347,0.199 -43.75,21.766 c -1.543,0.769 -3.418,0.14 -4.188,-1.406 -0.715,-1.434 -0.223,-3.153 1.09,-4.008 L 17.359,50.328 54.77,31.715 20.746,18.539 C 17.641,17.336 18.355,12.852 21.5,12.52 l 0.375,-0.02 h 31.25 z m 40.625,0 c 1.727,0 3.125,1.398 3.125,3.125 0,1.727 -1.398,3.125 -3.125,3.125 -1.727,0 -3.125,-1.398 -3.125,-3.125 0,-1.727 1.398,-3.125 3.125,-3.125 z" style="fill:currentColor;fill-opacity:1;fill-rule:nonzero;stroke:none" transform="scale(1.3333333)" /> </g>
</svg>

