<?xml version="1.0" encoding="UTF-8" standalone="no"?> <svg version="1.1" id="I985b2a3f042a4ce89180bf0047f5fdf220251106161453" width="100" height="100" viewBox="0 0 100 100" xmlns="http://www.w3.org/2000/svg" xmlns:svg="http://www.w3.org/2000/svg"> <defs id="I016107c603484af091dd2bf3aab2112820251106161453" /> <g id="Ied8bd4e0fb704aaab36be6fdf897daa920251106161453"> <path id="I92cf9ca707ef41b3979ec7dbd271138a20251106161453" d="m 44.195,8.035 c -7.976,0 -14.699,5.367 -16.761,12.688 -1.485,-0.414 -3.051,-0.633 -4.664,-0.633 -9.618,0 -17.415,7.793 -17.415,17.41 0,9.617 7.797,17.41 17.415,17.41 1.613,0 3.179,-0.219 4.664,-0.633 2.062,7.321 8.785,12.688 16.761,12.688 9.617,0 17.41,-7.797 17.41,-17.41 0,-4.68 -1.843,-8.93 -4.843,-12.055 3,-3.125 4.843,-7.375 4.843,-12.055 0,-9.613 -7.793,-17.41 -17.41,-17.41 z M 30.922,23.648 c 0.879,-6.546 6.488,-11.593 13.273,-11.593 7.399,0 13.395,5.996 13.395,13.39 0,4.246 -1.973,8.028 -5.055,10.485 -0.48,0.379 -0.758,0.957 -0.758,1.57 0,0.613 0.278,1.191 0.758,1.57 3.082,2.457 5.055,6.239 5.055,10.485 0,7.394 -5.996,13.39 -13.395,13.39 -6.785,0 -12.394,-5.047 -13.273,-11.593 -0.082,-0.625 -0.453,-1.176 -1.004,-1.485 -0.551,-0.308 -1.215,-0.34 -1.789,-0.09 -1.641,0.719 -3.453,1.118 -5.359,1.118 -7.399,0 -13.395,-5.997 -13.395,-13.395 0,-7.398 5.996,-13.395 13.395,-13.395 1.906,0 3.718,0.399 5.359,1.118 0.574,0.25 1.238,0.218 1.789,-0.09 0.551,-0.309 0.922,-0.86 1.004,-1.485 z M 24.105,10.715 c 0,1.48 -1.199,2.68 -2.675,2.68 -1.481,0 -2.68,-1.2 -2.68,-2.68 0,-1.481 1.199,-2.68 2.68,-2.68 1.476,0 2.675,1.199 2.675,2.68 z m 42.86,29.465 c 1.48,0 2.68,-1.2 2.68,-2.68 0,-1.48 -1.2,-2.68 -2.68,-2.68 -1.481,0 -2.68,1.2 -2.68,2.68 0,1.48 1.199,2.68 2.68,2.68 z M 21.43,66.965 c 1.476,0 2.675,-1.199 2.675,-2.68 0,-1.48 -1.199,-2.68 -2.675,-2.68 -1.481,0 -2.68,1.2 -2.68,2.68 0,1.481 1.199,2.68 2.68,2.68 z" style="fill:currentColor;fill-opacity:1;fill-rule:nonzero;stroke:none" transform="scale(1.3333333)" /> </g>
</svg>

