<?xml version="1.0" encoding="UTF-8" standalone="no"?> <svg version="1.1" id="If2365072f69b4ea9a5e46666e2eda1f320251106132945" width="100" height="100" viewBox="0 0 100 100" xmlns="http://www.w3.org/2000/svg" xmlns:svg="http://www.w3.org/2000/svg"> <defs id="Ia6b586a1a2e8468682c2a1331b40681f20251106132945" /> <g id="I373e27287fb54eac90ba05be373e8fa220251106132945"> <path id="I5c3a5b4d90504e328e7b7dd65f0fae8220251106132945" d="m 59.809,20.625 c 0.058,0 0.125,0 0.187,0 1.238,0 2.418,0.238 3.5,0.676 3.442,1.387 5.875,4.758 5.875,8.699 0,5.176 -4.199,9.375 -9.375,9.375 -0.293,0 -0.582,-0.012 -0.867,-0.039 -1.543,-0.141 -2.977,-0.656 -4.211,-1.453 l 1.684,6.949 c 0.714,2.953 -1.52,5.793 -4.559,5.793 h -2.855 c -3.04,0 -5.274,-2.844 -4.555,-5.797 l 1.687,-6.945 c -1.234,0.797 -2.668,1.312 -4.211,1.453 -0.285,0.027 -0.574,0.039 -0.863,0.039 -0.082,0 -0.16,0 -0.238,-0.004 -0.414,-1.609 -1.356,-3.012 -2.625,-4.016 0.637,-1.66 0.988,-3.468 0.988,-5.355 0,-3.066 -0.922,-5.918 -2.5,-8.293 0.281,-0.148 0.574,-0.285 0.871,-0.406 1.082,-0.438 2.266,-0.676 3.504,-0.676 0.063,0 0.125,0 0.188,0 -0.125,-0.605 -0.188,-1.23 -0.188,-1.875 0,-0.641 0.063,-1.27 0.188,-1.875 0.867,-4.277 4.648,-7.5 9.187,-7.5 4.535,0 8.32,3.223 9.188,7.5 0.121,0.605 0.187,1.234 0.187,1.875 0,0.645 -0.066,1.27 -0.187,1.875 z M 24.375,18.75 c -6.215,0 -11.25,5.035 -11.25,11.25 0,2.883 1.082,5.508 2.863,7.5 H 15 c -2.07,0 -3.75,1.68 -3.75,3.75 0,2.07 1.68,3.75 3.75,3.75 h 1.945 c -1.39,6.742 -5.066,10.633 -7.117,12.348 -1.301,1.09 -2.328,2.761 -2.328,4.711 0,3.003 2.438,5.441 5.441,5.441 h 22.868 c 3.003,0 5.441,-2.438 5.441,-5.441 0,-1.95 -1.027,-3.621 -2.328,-4.711 C 36.871,55.633 33.195,51.742 31.805,45 h 1.945 c 2.07,0 3.75,-1.68 3.75,-3.75 0,-2.07 -1.68,-3.75 -3.75,-3.75 h -0.988 c 1.781,-1.992 2.863,-4.617 2.863,-7.5 0,-6.215 -5.035,-11.25 -11.25,-11.25 z" style="fill:currentColor;fill-opacity:1;fill-rule:nonzero;stroke:none" transform="scale(1.3333333)" /> </g>
</svg>

