<?xml version="1.0" encoding="UTF-8" standalone="no"?> <svg version="1.1" id="Ib90f3b6ab3fd48b8b7c0c1e619a8812a20251106125937" width="100" height="100" viewBox="0 0 100 100" xmlns="http://www.w3.org/2000/svg" xmlns:svg="http://www.w3.org/2000/svg"> <defs id="If415030c7b954470aed8a9043117a6a120251106125937" /> <g id="I3db8737199a34394a617c13154bd2cb420251106125937"> <path id="I8df48ed5c2944261af029a0956cc18af20251106125937" d="m 21.43,56.918 c 0,1.109 0.898,2.012 2.008,2.012 h 18.75 c 6.257,0 11.414,-2.094 14.73,-5.403 3.301,-3.285 4.687,-7.66 4.687,-12.007 0,-4.352 -1.386,-8.723 -4.687,-12.012 -3.316,-3.309 -8.473,-5.403 -14.73,-5.403 H 20.25 l 8.625,-8.621 c 0.785,-0.785 0.785,-2.058 0,-2.843 -0.785,-0.782 -2.055,-0.782 -2.84,0 L 13.98,24.695 c -0.375,0.379 -0.585,0.887 -0.585,1.422 0,0.531 0.21,1.043 0.585,1.418 L 26.035,39.59 c 0.785,0.785 2.055,0.785 2.84,0 0.785,-0.785 0.785,-2.055 0,-2.84 L 20.25,28.125 h 21.938 c 5.328,0 9.175,1.758 11.652,4.227 2.492,2.488 3.75,5.816 3.75,9.168 0,3.351 -1.258,6.675 -3.75,9.164 -2.477,2.468 -6.324,4.226 -11.652,4.226 h -18.75 c -1.11,0 -2.008,0.899 -2.008,2.008 z" style="fill:currentColor;fill-opacity:1;fill-rule:nonzero;stroke:none" transform="scale(1.3333333)" /> </g>
</svg>

