<?xml version="1.0" encoding="UTF-8" standalone="no"?> <svg version="1.1" id="I28afb10b84994fa18905006ec4243a4420251106143238" width="100" height="100" viewBox="0 0 100 100" xmlns="http://www.w3.org/2000/svg" xmlns:svg="http://www.w3.org/2000/svg"> <defs id="I70a674216b67418982734d9febd8826120251106143238" /> <g id="I3dabe722413643c6ada3605df4ee7c4520251106143238"> <path id="Iff9cc3c29dde4eddab94211e0444a6b720251106143238" d="m 16.094,64.285 c 1.547,2.418 4.254,4.02 7.336,4.02 h 30.804 c 7.766,0 14.063,-6.297 14.063,-14.063 V 23.438 c 0,-3.079 -1.598,-5.786 -4.012,-7.333 v 34.79 c 0,0.156 0,0.316 -0.008,0.472 v 2.875 c 0,5.547 -4.496,10.043 -10.043,10.043 h -3.316 c -0.008,0 -0.016,0 -0.023,0 z M 8.035,16.742 c 0,-4.808 3.899,-8.707 8.707,-8.707 h 36.16 c 4.809,0 8.703,3.899 8.703,8.707 V 18.75 H 8.035 Z m 0,6.028 v 30.132 c 0,4.809 3.899,8.703 8.707,8.703 h 36.16 c 4.809,0 8.703,-3.894 8.703,-8.703 V 22.77 Z" style="fill:currentColor;fill-opacity:1;fill-rule:nonzero;stroke:none" transform="scale(1.3333333)" /> </g>
</svg>

