<?xml version="1.0" encoding="UTF-8" standalone="no"?> <svg version="1.1" id="Ifa34544214554a35a2f2487bf69b986a20251106144521" width="100" height="100" viewBox="0 0 100 100" xmlns="http://www.w3.org/2000/svg" xmlns:svg="http://www.w3.org/2000/svg"> <defs id="I22d8b95c2b3049cb8ea3af0a6cc1a31420251106144521" /> <g id="Icbcfb94badfb49ebabd5a72385a8c17d20251106144521"> <path id="I7f70ab8cae994c82825810b3ffa580d620251106144521" d="m 19.531,9.375 c -5.609,0 -10.156,4.547 -10.156,10.156 v 35.938 c 0,5.609 4.547,10.156 10.156,10.156 h 35.938 c 2.011,0 3.89,-0.586 5.469,-1.598 v -5.179 c -0.508,0.242 -1.047,0.402 -1.59,0.476 -0.993,0.996 -2.364,1.614 -3.879,1.614 H 19.531 c -3.019,0 -5.469,-2.45 -5.469,-5.469 V 19.531 c 0,-3.019 2.45,-5.469 5.469,-5.469 h 35.938 c 3.019,0 5.469,2.45 5.469,5.469 v 25.496 l 2.054,-1.64 c 0.485,-0.391 1.024,-0.688 1.59,-0.887 0.34,-0.121 0.688,-0.207 1.043,-0.258 V 19.531 C 65.625,13.922 61.078,9.375 55.469,9.375 Z M 54,29.004 c 0.914,-0.918 0.918,-2.402 0,-3.316 -0.914,-0.915 -2.398,-0.918 -3.312,-0.004 l -19.45,19.425 -6.922,-6.921 c -0.918,-0.918 -2.402,-0.918 -3.316,0 -0.914,0.914 -0.914,2.398 0,3.312 l 8.582,8.582 c 0.914,0.914 2.398,0.914 3.313,0 z m 11.625,16.441 c -0.242,0.086 -0.473,0.215 -0.684,0.379 l -7.812,6.254 c -1.012,0.805 -1.176,2.281 -0.363,3.293 0.804,1.012 2.281,1.176 3.293,0.367 l 4.003,-3.207 v 13.875 c 0,1.293 1.051,2.344 2.344,2.344 1.293,0 2.344,-1.051 2.344,-2.344 v -18.75 c 0,-0.902 -0.516,-1.722 -1.328,-2.113 -0.57,-0.273 -1.219,-0.301 -1.797,-0.098 z" style="fill:currentColor;fill-opacity:1;fill-rule:nonzero;stroke:none" transform="scale(1.3333333)" /> </g>
</svg>

