<?xml version="1.0" encoding="UTF-8" standalone="no"?> <svg version="1.1" id="I5d268d94c0cd4c6286b613a4493340a820251106123559" width="100" height="100" viewBox="0 0 100 100" xmlns="http://www.w3.org/2000/svg" xmlns:svg="http://www.w3.org/2000/svg"> <defs id="Ieee81fbae8734497bafb4e3f04e6179c20251106123559" /> <g id="I91723e7018744a88b9fae5f236760ff420251106123559"> <path id="Id0676564414a4e34959d5a65541d5f7920251106123559" d="m 22.5,3.75 c -4.141,0 -7.5,3.359 -7.5,7.5 v 16.875 c 0,4.141 3.359,7.5 7.5,7.5 h 30 c 4.141,0 7.5,-3.359 7.5,-7.5 V 11.25 c 0,-4.141 -3.359,-7.5 -7.5,-7.5 z m -3.75,7.5 c 0,-2.07 1.68,-3.75 3.75,-3.75 h 30 c 2.07,0 3.75,1.68 3.75,3.75 v 16.875 c 0,2.07 -1.68,3.75 -3.75,3.75 h -30 c -2.07,0 -3.75,-1.68 -3.75,-3.75 z" style="fill:currentColor;fill-opacity:1;fill-rule:nonzero;stroke:none" transform="scale(1.3333333)" /> <path id="Ic2d5185458514c989bf7f449b8bb6df220251106123559" d="m 22.5,39.375 c -4.141,0 -7.5,3.359 -7.5,7.5 V 63.75 c 0,4.141 3.359,7.5 7.5,7.5 h 30 c 4.141,0 7.5,-3.359 7.5,-7.5 V 46.875 c 0,-4.141 -3.359,-7.5 -7.5,-7.5 z m -3.75,7.5 c 0,-2.07 1.68,-3.75 3.75,-3.75 h 30 c 2.07,0 3.75,1.68 3.75,3.75 V 63.75 c 0,2.07 -1.68,3.75 -3.75,3.75 h -30 c -2.07,0 -3.75,-1.68 -3.75,-3.75 z" style="fill:currentColor;fill-opacity:1;fill-rule:nonzero;stroke:none" transform="scale(1.3333333)" /> </g>
</svg>

