<?xml version="1.0" encoding="UTF-8" standalone="no"?> <svg version="1.1" id="I68a39cbe78474b47ab14a2533dfd04ce20251106170411" width="100" height="100" viewBox="0 0 100 100" xmlns="http://www.w3.org/2000/svg" xmlns:svg="http://www.w3.org/2000/svg"> <defs id="Iab34b9bd1c70403e855a260eee48f7e420251106170411" /> <g id="Id04e4ca3cfc04a579442259e95e25e8120251106170411"> <path id="I3b4da81ce503402296f8c8e584da58c320251106170411" d="m 33.367,8.137 c 2.18,-2.516 6.082,-2.516 8.262,0 l 25.766,29.699 c 3.074,3.539 0.558,9.051 -4.129,9.051 H 53.125 v 16.398 c 0,3.02 -2.449,5.469 -5.469,5.469 H 27.344 c -3.02,0 -5.469,-2.449 -5.469,-5.469 V 46.887 H 11.73 c -4.687,0 -7.203,-5.512 -4.128,-9.051 z m 4.719,3.07 c -0.309,-0.359 -0.867,-0.359 -1.18,0 L 11.141,40.906 c -0.438,0.504 -0.079,1.293 0.589,1.293 h 12.489 c 1.293,0 2.343,1.051 2.343,2.344 v 18.742 c 0,0.43 0.348,0.781 0.782,0.781 h 20.312 c 0.43,0 0.782,-0.351 0.782,-0.781 V 44.543 c 0,-1.293 1.05,-2.344 2.343,-2.344 h 12.485 c 0.668,0 1.027,-0.789 0.589,-1.293 z" style="fill:currentColor;fill-opacity:1;fill-rule:nonzero;stroke:none" transform="scale(1.3333333)" /> </g>
</svg>

