<?xml version="1.0" encoding="UTF-8" standalone="no"?> <svg version="1.1" id="If18de07206024475b2d9134322a4219720251106132945" width="100" height="100" viewBox="0 0 100 100" xmlns="http://www.w3.org/2000/svg" xmlns:svg="http://www.w3.org/2000/svg"> <defs id="I75fd86d29c954358bb72f5458cce41b420251106132945" /> <g id="Iab898ea25fa94d739bc470467bff368b20251106132945"> <path id="Id953525a56fe4ac19b9215579c5c542c20251106132945" d="m 25,14.062 h 3.125 v 19.497 c 0,1.171 -0.293,2.324 -0.852,3.351 L 16.07,57.547 c -1.98,3.644 0.66,8.078 4.805,8.078 h 16.691 c -0.925,-1.449 -1.675,-3.02 -2.214,-4.687 H 20.875 c -0.59,0 -0.969,-0.633 -0.687,-1.153 l 6.16,-11.347 h 9.004 c 0.539,-1.668 1.289,-3.239 2.214,-4.688 h -8.671 l 2.496,-4.602 c 0.933,-1.718 1.421,-3.64 1.421,-5.589 V 14.062 h 9.376 v 19.497 c 0,1.535 0.3,3.05 0.882,4.464 1.289,-0.898 2.684,-1.652 4.164,-2.238 -0.238,-0.715 -0.359,-1.469 -0.359,-2.226 V 14.062 H 50 c 1.293,0 2.344,-1.05 2.344,-2.343 0,-1.293 -1.051,-2.344 -2.344,-2.344 H 25 c -1.297,0 -2.344,1.051 -2.344,2.344 0,1.293 1.047,2.343 2.344,2.343 z M 54.688,37.5 c 9.492,0 17.187,7.695 17.187,17.188 0,9.492 -7.695,17.187 -17.187,17.187 C 45.195,71.875 37.5,64.18 37.5,54.688 37.5,45.195 45.195,37.5 54.688,37.5 Z M 56.25,64.074 V 56.25 h 7.82 c 0.864,0 1.563,-0.699 1.563,-1.562 0,-0.864 -0.699,-1.563 -1.563,-1.563 h -7.82 v -7.816 c 0,-0.864 -0.699,-1.563 -1.562,-1.563 -0.864,0 -1.563,0.699 -1.563,1.563 v 7.816 h -7.828 c -0.859,0 -1.563,0.699 -1.563,1.563 0,0.863 0.704,1.562 1.563,1.562 h 7.828 v 7.824 c 0,0.864 0.703,1.563 1.563,1.563 0.863,0 1.562,-0.699 1.562,-1.563 z" style="fill:currentColor;fill-opacity:1;fill-rule:nonzero;stroke:none" transform="scale(1.3333333)" /> </g>
</svg>

