<?xml version="1.0" encoding="UTF-8" standalone="no"?> <svg version="1.1" id="I6749e68f38ba475a9ac238bca92e042820251106170956" width="100" height="100" viewBox="0 0 100 100" xmlns="http://www.w3.org/2000/svg" xmlns:svg="http://www.w3.org/2000/svg"> <defs id="I329b08bda7054b68868198664081af2320251106170956" /> <g id="I3b4950de0074468a895d1e41a189ecc220251106170956"> <path id="I561eba329f624ac8b641937245e1600420251106170956" d="m 57.008,28.492 v -6.504 l 10.023,8.762 c 1.942,1.695 4.977,0.32 4.977,-2.258 V 7.508 c 0,-2.578 -3.035,-3.957 -4.977,-2.262 L 57.008,14.008 V 7.504 c 0,-2.574 -3.035,-3.953 -4.977,-2.258 L 40.027,15.738 c -1.371,1.196 -1.371,3.324 0,4.52 L 52.031,30.75 c 1.942,1.695 4.977,0.32 4.977,-2.258 z M 36,37.957 48.301,31.48 l 1.758,1.536 c 0.765,0.668 1.613,1.097 2.484,1.316 l -15.496,8.16 c -0.563,0.293 -1.219,0.336 -1.805,0.125 L 34.953,42.492 10.5,29.621 V 51.75 c 0,2.754 2.121,5.012 4.82,5.234 L 15.75,57 h 40.5 c 2.754,0 5.012,-2.121 5.234,-4.82 L 61.5,51.75 V 29.906 l 3.559,3.11 c 0.3,0.265 0.617,0.492 0.941,0.683 V 51.75 c 0,5.199 -4.07,9.449 -9.195,9.734 L 56.25,61.5 h -40.5 c -5.199,0 -9.449,-4.07 -9.734,-9.195 L 6,51.75 v -28.5 c 0,-5.199 4.07,-9.449 9.195,-9.734 L 15.75,13.5 H 38.035 C 36.68,14.691 36,16.348 36,18 H 15.75 c -2.754,0 -5.012,2.121 -5.234,4.82 L 10.5,23.25 v 1.285 z" style="fill:currentColor;fill-opacity:1;fill-rule:nonzero;stroke:none" transform="scale(1.3333333)" /> </g>
</svg>

