<?xml version="1.0" encoding="UTF-8" standalone="no"?> <svg version="1.1" id="I26474c98ba4a494fae33802ecd11b86920251106123559" width="100" height="100" viewBox="0 0 100 100" xmlns="http://www.w3.org/2000/svg" xmlns:svg="http://www.w3.org/2000/svg"> <defs id="Icb2f2848444b4a618d38c4c0bf0c8f6120251106123559" /> <g id="Id59fff7f0e5f40dd9fb8e44aa536befb20251106123559"> <path id="If9b669ab47c64f5c943714750ae8a2c820251106123559" d="m 22.5,3.75 c -4.141,0 -7.5,3.359 -7.5,7.5 V 15 c 0,4.141 3.359,7.5 7.5,7.5 h 30 c 4.141,0 7.5,-3.359 7.5,-7.5 v -3.75 c 0,-4.141 -3.359,-7.5 -7.5,-7.5 z m -3.75,7.5 c 0,-2.07 1.68,-3.75 3.75,-3.75 h 30 c 2.07,0 3.75,1.68 3.75,3.75 V 15 c 0,2.07 -1.68,3.75 -3.75,3.75 h -30 c -2.07,0 -3.75,-1.68 -3.75,-3.75 z M 22.5,52.5 C 18.359,52.5 15,55.859 15,60 v 3.75 c 0,4.141 3.359,7.5 7.5,7.5 h 30 c 4.141,0 7.5,-3.359 7.5,-7.5 V 60 c 0,-4.141 -3.359,-7.5 -7.5,-7.5 z M 18.75,60 c 0,-2.07 1.68,-3.75 3.75,-3.75 h 30 c 2.07,0 3.75,1.68 3.75,3.75 v 3.75 c 0,2.07 -1.68,3.75 -3.75,3.75 h -30 c -2.07,0 -3.75,-1.68 -3.75,-3.75 z" style="fill:currentColor;fill-opacity:1;fill-rule:nonzero;stroke:none" transform="scale(1.3333333)" /> </g>
</svg>

