<?xml version="1.0" encoding="UTF-8" standalone="no"?> <svg version="1.1" id="I59849f7207a5422ea74f38a1b4347cb120251106151526" width="100" height="100" viewBox="0 0 100 100" xmlns="http://www.w3.org/2000/svg" xmlns:svg="http://www.w3.org/2000/svg"> <defs id="I8068584c4fee405ab477b66a88a2a2bb20251106151526" /> <g id="Id57484a507504b98870a5996af49cefd20251106151526"> <path id="I19dc45008dff4d0ca5e69a35e2c48bdd20251106151526" d="M 49.938,12.328 C 49.469,8.895 46.527,6.25 42.969,6.25 H 32.031 c -3.558,0 -6.5,2.645 -6.969,6.078 L 25.02,12.75 25.043,12.5 h -5.512 c -3.883,0 -7.031,3.148 -7.031,7.031 v 42.188 c 0,3.883 3.148,7.031 7.031,7.031 h 35.938 c 3.883,0 7.031,-3.148 7.031,-7.031 V 19.531 C 62.5,15.648 59.352,12.5 55.469,12.5 h -5.512 l 0.02,0.25 z m -17.907,-1.39 h 10.938 c 1.293,0 2.343,1.05 2.343,2.343 0,1.293 -1.05,2.344 -2.343,2.344 H 32.031 c -1.293,0 -2.343,-1.051 -2.343,-2.344 0,-1.293 1.05,-2.343 2.343,-2.343 z M 25,28.125 h 25 c 1.293,0 2.344,1.051 2.344,2.344 0,1.293 -1.051,2.343 -2.344,2.343 H 25 c -1.293,0 -2.344,-1.05 -2.344,-2.343 0,-1.293 1.051,-2.344 2.344,-2.344 z m 10.156,14.844 c 0,-1.293 1.051,-2.344 2.344,-2.344 H 50 c 1.293,0 2.344,1.051 2.344,2.344 0,1.293 -1.051,2.343 -2.344,2.343 H 37.5 c -1.293,0 -2.344,-1.05 -2.344,-2.343 z M 31.25,53.125 H 50 c 1.293,0 2.344,1.051 2.344,2.344 0,1.293 -1.051,2.343 -2.344,2.343 H 31.25 c -1.293,0 -2.344,-1.05 -2.344,-2.343 0,-1.293 1.051,-2.344 2.344,-2.344 z" style="fill:currentColor;fill-opacity:1;fill-rule:nonzero;stroke:none" transform="scale(1.3333333)" /> </g>
</svg>

