<?xml version="1.0" encoding="UTF-8" standalone="no"?> <svg version="1.1" id="I6735bb628594437dbd40b4e134bcc95720251106170412" width="100" height="100" viewBox="0 0 100 100" xmlns="http://www.w3.org/2000/svg" xmlns:svg="http://www.w3.org/2000/svg"> <defs id="I2fd1765c031f4c2dba60a3788e0dfa7720251106170412" /> <g id="I796b100909da44fcaa5ed8ec53b4e25520251106170412"> <path id="Icdef53f613ce44d296971e9251aaa89920251106170412" d="m 55.078,2.344 c 9.707,0 17.578,7.871 17.578,17.578 0,9.707 -7.871,17.578 -17.578,17.578 C 45.371,37.5 37.5,29.629 37.5,19.922 37.5,10.215 45.371,2.344 55.078,2.344 Z m 10.617,11.062 c -0.687,-0.687 -1.797,-0.687 -2.484,0 L 52.148,24.469 47.531,19.852 c -0.687,-0.688 -1.797,-0.688 -2.484,0 -0.688,0.687 -0.688,1.796 0,2.484 l 5.859,5.859 c 0.688,0.688 1.797,0.688 2.485,0 L 65.695,15.891 c 0.688,-0.688 0.688,-1.797 0,-2.485 z M 37.5,4.688 c 0.953,0 1.895,0.058 2.816,0.167 -3.906,3.829 -6.332,9.165 -6.332,15.067 0,11.648 9.446,21.094 21.094,21.094 0.695,0 1.387,-0.036 2.063,-0.098 -1.149,1.758 -2.524,3.355 -4.09,4.742 -0.805,0.715 -1.317,1.512 -1.5,2.313 l -1.91,8.277 H 25.359 l -1.91,-8.277 C 23.266,47.172 22.754,46.375 21.949,45.66 17.113,41.371 14.062,35.102 14.062,28.125 14.062,15.18 24.555,4.688 37.5,4.688 Z m -11.059,56.25 0.696,3.015 c 0.859,3.723 4.172,6.359 7.992,6.359 h 4.742 c 3.82,0 7.133,-2.636 7.992,-6.359 l 0.696,-3.015 z" style="fill:currentColor;fill-opacity:1;fill-rule:nonzero;stroke:none" transform="scale(1.3333333)" /> </g>
</svg>

