<?xml version="1.0" encoding="UTF-8" standalone="no"?> <svg version="1.1" id="I2813f5e8e33b4dc89676737f7ffc124a20251110130507" width="100" height="100" viewBox="0 0 100 100" xmlns="http://www.w3.org/2000/svg" xmlns:svg="http://www.w3.org/2000/svg"> <defs id="I0e154999141e45bf991e2b9c275ed99720251110130507" /> <g id="If636f3266e794b599bc14a93b6423a2420251110130507"> <path id="I64f50de8dfee46349b9343f8cbeba09d20251110130507" d="M 66.809,35.938 C 62.34,50.812 50.562,62.523 35.645,66.895 L 8.105,39.355 C 12.477,24.438 24.188,12.66 39.062,8.191 Z M 42.875,28.812 28.812,42.875 c -0.917,0.914 -0.917,2.398 0,3.313 0.915,0.917 2.399,0.917 3.313,0 L 46.188,32.125 c 0.917,-0.914 0.917,-2.398 0,-3.313 -0.915,-0.917 -2.399,-0.917 -3.313,0 z M 6.871,44.75 30.25,68.129 c -2.473,0.406 -5.008,0.621 -7.594,0.621 H 19.531 C 12.195,68.75 6.25,62.805 6.25,55.469 v -3.125 c 0,-2.586 0.215,-5.121 0.621,-7.594 z M 44.43,6.926 68.074,30.574 C 68.52,28 68.75,25.355 68.75,22.656 V 19.531 C 68.75,12.195 62.805,6.25 55.469,6.25 H 52.344 C 49.645,6.25 47,6.48 44.43,6.926 Z" style="fill:currentColor;fill-opacity:1;fill-rule:nonzero;stroke:none" transform="scale(1.3333333)" /> </g>
</svg>

