<?xml version="1.0" encoding="UTF-8" standalone="no"?> <svg version="1.1" id="I0e71c1652d3a4d8aa2fe1026a5c43ce520251110130510" width="100" height="100" viewBox="0 0 100 100" xmlns="http://www.w3.org/2000/svg" xmlns:svg="http://www.w3.org/2000/svg"> <defs id="I4546623c88284f859a62c64d0dcb3a5a20251110130510" /> <g id="I06e8e9526a1a4763926c8fd79552744820251110130510"> <path id="If8c8965f999d4b2ba4817df299c0f19820251110130510" d="m 29.594,19.625 c -0.918,-0.914 -0.918,-2.398 0,-3.313 0.914,-0.917 2.398,-0.917 3.312,0 l 4.594,4.59 4.594,-4.59 c 0.914,-0.917 2.398,-0.917 3.312,0 0.918,0.915 0.918,2.399 0,3.313 l -6.25,6.25 c -0.914,0.918 -2.398,0.918 -3.312,0 z M 9.375,36.719 c 0,-1.293 1.051,-2.344 2.344,-2.344 h 51.562 c 1.293,0 2.344,1.051 2.344,2.344 0,1.293 -1.051,2.343 -2.344,2.343 H 11.719 c -1.293,0 -2.344,-1.05 -2.344,-2.343 z m 0,18.75 c 0,-1.293 1.051,-2.344 2.344,-2.344 h 51.562 c 1.293,0 2.344,1.051 2.344,2.344 0,1.293 -1.051,2.343 -2.344,2.343 H 11.719 c -1.293,0 -2.344,-1.05 -2.344,-2.343 z" style="fill:currentColor;fill-opacity:1;fill-rule:nonzero;stroke:none" transform="scale(1.3333333)" /> </g>
</svg>

