<?xml version="1.0" encoding="UTF-8" standalone="no"?> <svg version="1.1" id="I9b1895df2af14ba6a88aec5e3feeea6120251110124421" width="100" height="100" viewBox="0 0 100 100" xmlns="http://www.w3.org/2000/svg" xmlns:svg="http://www.w3.org/2000/svg"> <defs id="I8ba79fe1c68f417fa4abfcb665238c6120251110124421" /> <g id="Icb80f5fc003e45ca9de0eccefdea8c7120251110124421"> <path id="Ic6c6eeb8b5bb47d5a81ddf220900bc2920251110124421" d="m 54.91,37.5 c 9.613,0 17.41,7.797 17.41,17.41 0,9.617 -7.797,17.414 -17.41,17.414 C 45.293,72.32 37.5,64.527 37.5,54.91 37.5,45.297 45.293,37.5 54.91,37.5 Z M 5.477,10.918 C 4.738,8.16 7.574,5.801 10.152,7.031 L 67.73,34.484 c 2.278,1.082 2.512,4.09 0.715,5.582 -3.57,-3.257 -8.324,-5.242 -13.535,-5.242 -11.094,0 -20.09,8.992 -20.09,20.086 0,0.434 0.02,0.863 0.043,1.285 L 10.152,67.98 C 7.574,69.207 4.738,66.852 5.477,64.094 l 5.398,-20.188 c 0.277,-1.039 1.148,-1.808 2.211,-1.961 l 26.469,-3.781 c 0.765,-0.109 0.765,-1.219 0,-1.328 L 13.082,33.055 C 12.02,32.902 11.148,32.129 10.871,31.094 Z M 54.91,44.199 c -0.738,0 -1.34,0.598 -1.34,1.336 v 9.375 c 0,0.742 0.602,1.34 1.34,1.34 h 8.035 c 0.739,0 1.34,-0.598 1.34,-1.34 0,-0.738 -0.601,-1.336 -1.34,-1.336 H 56.25 v -8.039 c 0,-0.738 -0.602,-1.336 -1.34,-1.336 z" style="fill:currentColor;fill-opacity:1;fill-rule:nonzero;stroke:none" transform="scale(1.3333333)" /> </g>
</svg>

