<?xml version="1.0" encoding="UTF-8" standalone="no"?> <svg version="1.1" id="Ia5fde1519e7f470aaef32fedd4de67eb20251106161453" width="100" height="100" viewBox="0 0 100 100" xmlns="http://www.w3.org/2000/svg" xmlns:svg="http://www.w3.org/2000/svg"> <defs id="Iffa98e82463e40298c476f83401c211f20251106161453" /> <g id="Ic49c131718fd4d6ab1018f8cd62d6e2f20251106161453"> <path id="I807f40e27e7546c690bb2eaaaea68d8420251106161453" d="M 37.5,6.25 V 25 c 0,3.453 2.797,6.25 6.25,6.25 H 62.5 V 62.5 c 0,3.453 -2.797,6.25 -6.25,6.25 H 27.133 c 3.59,-1.746 6.414,-4.824 7.82,-8.594 h 0.203 c 3.02,0 5.469,-2.449 5.469,-5.468 0,-3.02 -2.449,-5.469 -5.469,-5.469 h -0.203 c -1.578,-4.231 -4.941,-7.594 -9.172,-9.172 v -0.203 c 0,-3.02 -2.449,-5.469 -5.469,-5.469 -3.019,0 -5.468,2.449 -5.468,5.469 v 0.203 c -0.817,0.305 -1.598,0.676 -2.344,1.105 V 12.5 c 0,-3.453 2.797,-6.25 6.25,-6.25 z m 4.688,1.562 V 25 c 0,0.863 0.699,1.562 1.562,1.562 H 60.938 Z M 22.656,39.844 c 0,-1.293 -1.051,-2.344 -2.344,-2.344 -1.292,0 -2.343,1.051 -2.343,2.344 v 1.769 C 12.512,42.586 8.207,46.887 7.238,52.344 H 5.469 c -1.293,0 -2.344,1.051 -2.344,2.344 0,1.292 1.051,2.343 2.344,2.343 h 1.769 c 0.969,5.457 5.274,9.758 10.731,10.731 v 1.769 c 0,1.293 1.051,2.344 2.343,2.344 1.293,0 2.344,-1.051 2.344,-2.344 v -1.769 c 5.457,-0.973 9.758,-5.274 10.731,-10.731 h 1.769 c 1.293,0 2.344,-1.051 2.344,-2.343 0,-1.293 -1.051,-2.344 -2.344,-2.344 H 33.387 C 32.414,46.887 28.113,42.586 22.656,41.613 Z M 11.719,54.688 c 0,-4.747 3.847,-8.594 8.593,-8.594 4.747,0 8.594,3.847 8.594,8.594 0,4.746 -3.847,8.593 -8.594,8.593 -4.746,0 -8.593,-3.847 -8.593,-8.593 z m 12.5,0 c 0,2.156 -1.75,3.906 -3.907,3.906 -2.156,0 -3.906,-1.75 -3.906,-3.906 0,-2.157 1.75,-3.907 3.906,-3.907 2.157,0 3.907,1.75 3.907,3.907 z" style="fill:currentColor;fill-opacity:1;fill-rule:nonzero;stroke:none" transform="scale(1.3333333)" /> </g>
</svg>

