<?xml version="1.0" encoding="UTF-8" standalone="no"?> <svg version="1.1" id="I594aabc731b44aef8b203652c2c3f25f20251106164750" width="100" height="100" viewBox="0 0 100 100" xmlns="http://www.w3.org/2000/svg" xmlns:svg="http://www.w3.org/2000/svg"> <defs id="I9002cb721a124abaa1944e1c91213ef520251106164750" /> <g id="Iefbd7710f2914eb38078ffe88e10613120251106164750"> <path id="I75f2ed16afc641e491ab7595630e9d8020251106164750" d="m 21.875,15.625 c 0,3.453 -2.797,6.25 -6.25,6.25 -3.453,0 -6.25,-2.797 -6.25,-6.25 0,-3.453 2.797,-6.25 6.25,-6.25 3.453,0 6.25,2.797 6.25,6.25 z m 43.75,0 c 0,3.453 -2.797,6.25 -6.25,6.25 -3.453,0 -6.25,-2.797 -6.25,-6.25 0,-3.453 2.797,-6.25 6.25,-6.25 3.453,0 6.25,2.797 6.25,6.25 z m -43.75,43.75 c 0,3.453 -2.797,6.25 -6.25,6.25 -3.453,0 -6.25,-2.797 -6.25,-6.25 0,-3.453 2.797,-6.25 6.25,-6.25 3.453,0 6.25,2.797 6.25,6.25 z M 25,15.625 c 0,1.098 -0.188,2.148 -0.535,3.125 h 14.597 c 0.864,0 1.563,0.699 1.563,1.562 v 7.813 h -4.687 c -4.317,0 -7.813,3.496 -7.813,7.813 v 4.687 h -7.813 c -0.863,0 -1.562,-0.699 -1.562,-1.563 V 24.465 C 17.773,24.812 16.723,25 15.625,25 14.527,25 13.477,24.812 12.5,24.465 v 14.597 c 0,4.317 3.496,7.813 7.812,7.813 h 7.813 v 7.813 c 0,4.312 3.496,7.808 7.809,7.812 -1.004,-2.406 -1.559,-5.043 -1.559,-7.812 v -18.75 c 0,-0.864 0.699,-1.563 1.563,-1.563 h 18.75 c 2.769,0 5.406,0.555 7.812,1.559 -0.004,-4.313 -3.5,-7.809 -7.812,-7.809 h -7.813 v -7.813 c 0,-4.316 -3.496,-7.812 -7.813,-7.812 H 24.465 C 24.812,13.477 25,14.527 25,15.625 Z m 46.875,39.063 c 0,9.492 -7.695,17.187 -17.187,17.187 C 45.195,71.875 37.5,64.18 37.5,54.688 37.5,45.195 45.195,37.5 54.688,37.5 c 9.492,0 17.187,7.695 17.187,17.188 z M 49.543,47.332 c -0.609,-0.609 -1.602,-0.609 -2.211,0 -0.609,0.609 -0.609,1.602 0,2.211 l 5.145,5.145 -5.145,5.144 c -0.609,0.609 -0.609,1.602 0,2.211 0.609,0.609 1.602,0.609 2.211,0 l 5.145,-5.145 5.144,5.145 c 0.609,0.609 1.602,0.609 2.211,0 0.609,-0.609 0.609,-1.602 0,-2.211 l -5.145,-5.144 5.145,-5.145 c 0.609,-0.609 0.609,-1.602 0,-2.211 -0.609,-0.609 -1.602,-0.609 -2.211,0 l -5.144,5.145 z" style="fill:currentColor;fill-opacity:1;fill-rule:nonzero;stroke:none" transform="scale(1.3333333)" /> </g>
</svg>

