<?xml version="1.0" encoding="UTF-8" standalone="no"?> <svg version="1.1" id="Ia17d5f61385c4e469d33f397ac615ba920251106164749" width="100" height="100" viewBox="0 0 100 100" xmlns="http://www.w3.org/2000/svg" xmlns:svg="http://www.w3.org/2000/svg"> <defs id="Ic92e618f8a39428d9c0cc41c60c8966d20251106164749" /> <g id="I27e1e859931143ddaacec9c1c7455bcd20251106164749"> <path id="Iafaef9f73f8d4851ad1c5c886d164ba220251106164749" d="m 18.738,11.719 c 0,-1.02 -0.66,-1.922 -1.629,-2.231 -0.972,-0.312 -2.031,0.039 -2.625,0.871 l -0.004,0.008 -0.027,0.039 c -0.027,0.032 -0.066,0.086 -0.117,0.156 -0.106,0.145 -0.262,0.352 -0.465,0.61 -0.402,0.523 -0.98,1.238 -1.672,2.027 -1.422,1.613 -3.179,3.344 -4.812,4.324 -1.11,0.665 -1.469,2.106 -0.801,3.215 0.664,1.11 2.105,1.469 3.215,0.805 1.527,-0.918 2.996,-2.203 4.25,-3.461 v 20.199 c 0,1.293 1.051,2.344 2.344,2.344 1.293,0 2.343,-1.051 2.343,-2.344 z m 10.91,5.113 c -0.23,1.254 -1.425,2.098 -2.691,1.887 -1.273,-0.215 -2.137,-1.422 -1.926,-2.699 l 0.004,-0.004 v -0.024 l 0.008,-0.031 c 0.004,-0.027 0.012,-0.059 0.019,-0.09 0.012,-0.07 0.036,-0.156 0.059,-0.262 0.055,-0.203 0.137,-0.472 0.258,-0.785 0.242,-0.621 0.652,-1.441 1.336,-2.262 1.433,-1.722 3.859,-3.187 7.66,-3.187 5.18,0 9.375,4.199 9.375,9.375 0,3.191 -1.129,5.551 -2.812,7.387 -1.485,1.621 -3.399,2.82 -5.016,3.832 l -0.301,0.187 c -1.793,1.125 -3.242,2.082 -4.293,3.317 -0.574,0.679 -1.047,1.468 -1.336,2.465 h 11.414 c 1.293,0 2.344,1.05 2.344,2.343 0,1.293 -1.051,2.344 -2.344,2.344 H 27.344 C 26.051,40.625 25,39.574 25,38.281 c 0,-3.359 1.082,-5.871 2.754,-7.84 1.586,-1.871 3.656,-3.175 5.375,-4.257 l 0.09,-0.055 c 1.797,-1.129 3.219,-2.02 4.261,-3.156 0.954,-1.043 1.582,-2.289 1.582,-4.223 0,-2.59 -2.097,-4.688 -4.687,-4.688 -2.449,0 -3.539,0.879 -4.059,1.5 -0.293,0.352 -0.468,0.704 -0.566,0.961 -0.051,0.125 -0.078,0.223 -0.094,0.274 z M 56.23,9.379 c -5.168,0 -9.355,4.191 -9.355,9.359 V 31.27 c 0,5.168 4.187,9.355 9.355,9.355 h 0.04 c 5.168,0 9.355,-4.187 9.355,-9.355 V 18.738 c 0,-5.168 -4.187,-9.359 -9.355,-9.359 z m -4.668,9.359 c 0,-2.578 2.09,-4.672 4.668,-4.672 h 0.04 c 2.578,0 4.668,2.094 4.668,4.672 V 31.27 c 0,2.578 -2.09,4.668 -4.668,4.668 h -0.04 c -2.578,0 -4.668,-2.09 -4.668,-4.668 z M 12.5,49.219 c 0,-1.293 1.051,-2.344 2.344,-2.344 h 9.375 c 1.293,0 2.343,1.051 2.343,2.344 0,1.293 -1.05,2.343 -2.343,2.343 h -7.031 v 4.696 h 5.468 c 1.293,0 2.344,1.051 2.344,2.344 0,1.296 -1.051,2.343 -2.344,2.343 h -5.468 v 5.403 c 0,1.293 -1.051,2.343 -2.344,2.343 -1.293,0 -2.344,-1.05 -2.344,-2.343 z m 19.531,-2.344 c -1.293,0 -2.343,1.051 -2.343,2.344 v 17.187 c 0,1.293 1.05,2.344 2.343,2.344 1.293,0 2.344,-1.051 2.344,-2.344 v -5.468 h 2.344 c 3.883,0 7.031,-3.149 7.031,-7.032 0,-3.883 -3.148,-7.031 -7.031,-7.031 z m 4.688,9.375 h -2.344 v -4.688 h 2.344 c 1.293,0 2.343,1.051 2.343,2.344 0,1.293 -1.05,2.344 -2.343,2.344 z m 10.937,-2.734 c 0,-3.668 2.973,-6.641 6.641,-6.641 h 1.953 c 3.453,0 6.25,2.797 6.25,6.25 0,1.293 -1.051,2.344 -2.344,2.344 -1.293,0 -2.344,-1.051 -2.344,-2.344 0,-0.863 -0.699,-1.563 -1.562,-1.563 h -1.953 c -1.078,0 -1.953,0.876 -1.953,1.954 0,1.078 0.875,1.953 1.953,1.953 h 1.562 c 3.668,0 6.641,2.972 6.641,6.64 0,3.668 -2.973,6.641 -6.641,6.641 h -1.953 c -3.453,0 -6.25,-2.797 -6.25,-6.25 0,-1.293 1.051,-2.344 2.344,-2.344 1.293,0 2.344,1.051 2.344,2.344 0,0.863 0.699,1.562 1.562,1.562 h 1.953 c 1.079,0 1.953,-0.874 1.953,-1.953 0,-1.078 -0.874,-1.953 -1.953,-1.953 h -1.562 c -3.668,0 -6.641,-2.972 -6.641,-6.64 z" style="fill:currentColor;fill-opacity:1;fill-rule:nonzero;stroke:none" transform="scale(1.3333333)" /> </g>
</svg>

