<?xml version="1.0" encoding="UTF-8" standalone="no"?> <svg version="1.1" id="Id42d75b0ea544edcacf8d33991c9c71220251110124422" width="100" height="100" viewBox="0 0 100 100" xmlns="http://www.w3.org/2000/svg" xmlns:svg="http://www.w3.org/2000/svg"> <defs id="I313d9c4601584f86a2e86abae7a9b45820251110124422" /> <g id="I06f040155ac3419ca578cd774944e63620251110124422"> <path id="I20e7967b8428438ea2564c9da3a61e1c20251110124422" d="m 20.699,24.105 c -1.078,0 -1.949,0.875 -1.949,1.954 v 0.117 c 0,1.078 0.871,1.949 1.949,1.949 h 14.852 c 1.074,0 1.949,-0.871 1.949,-1.949 v -0.117 c 0,-1.079 -0.875,-1.954 -1.949,-1.954 z m 0,10.715 c -1.078,0 -1.949,0.875 -1.949,1.95 v 0.121 c 0,1.074 0.871,1.949 1.949,1.949 h 28.242 c 1.079,0 1.95,-0.875 1.95,-1.949 V 36.77 c 0,-1.075 -0.871,-1.95 -1.95,-1.95 z M 18.75,47.484 c 0,-1.074 0.871,-1.949 1.949,-1.949 h 20.207 c 1.078,0 1.949,0.875 1.949,1.949 v 0.121 c 0,1.075 -0.871,1.95 -1.949,1.95 H 20.699 c -1.078,0 -1.949,-0.875 -1.949,-1.95 z M 15.414,10.715 c -5.551,0 -10.047,4.496 -10.047,10.043 v 33.484 c 0,5.547 4.496,10.043 10.047,10.043 h 44.184 c 5.55,0 10.047,-4.496 10.047,-10.043 V 20.758 c 0,-5.547 -4.497,-10.043 -10.047,-10.043 z M 9.387,20.758 c 0,-3.328 2.695,-6.028 6.027,-6.028 h 44.184 c 3.332,0 6.027,2.7 6.027,6.028 v 33.484 c 0,3.328 -2.695,6.028 -6.027,6.028 H 15.414 c -3.332,0 -6.027,-2.7 -6.027,-6.028 z" style="fill:currentColor;fill-opacity:1;fill-rule:nonzero;stroke:none" transform="scale(1.3333333)" /> </g>
</svg>

