<?xml version="1.0" encoding="UTF-8" standalone="no"?> <svg version="1.1" id="Ia13d440d1eb94fa88066a5c2585a352e20251110130509" width="100" height="100" viewBox="0 0 100 100" xmlns="http://www.w3.org/2000/svg" xmlns:svg="http://www.w3.org/2000/svg"> <defs id="I9541ed9efe9b4870b6f891c7c52530fb20251110130509" /> <g id="I1368ddbed4c04d418d6232032deb956a20251110130509"> <path id="I1055db3b914348d1b12681bffdb46a0420251110130509" d="m 9.375,17.969 c 0,-4.746 3.848,-8.594 8.594,-8.594 h 39.062 c 4.746,0 8.594,3.848 8.594,8.594 v 39.062 c 0,4.746 -3.848,8.594 -8.594,8.594 H 17.969 c -4.746,0 -8.594,-3.848 -8.594,-8.594 z m 8.594,-3.907 c -2.157,0 -3.907,1.75 -3.907,3.907 v 39.062 c 0,2.157 1.75,3.907 3.907,3.907 h 39.062 c 2.157,0 3.907,-1.75 3.907,-3.907 V 17.969 c 0,-2.157 -1.75,-3.907 -3.907,-3.907 z" style="fill:currentColor;fill-opacity:1;fill-rule:nonzero;stroke:none" transform="scale(1.3333333)" /> </g>
</svg>

