<?xml version="1.0" encoding="UTF-8" standalone="no"?> <svg version="1.1" id="I3c355cde914a425591f64d6d7a378f4d20251106164749" width="100" height="100" viewBox="0 0 100 100" xmlns="http://www.w3.org/2000/svg" xmlns:svg="http://www.w3.org/2000/svg"> <defs id="Ia70c67cd7d1f4933b52a5d7d8094a73620251106164749" /> <g id="I8e4e0dad7758463980ca32867a447bba20251106164749"> <path id="Ide7742e45e704565bb8fd03148387a8a20251106164749" d="m 55.793,1.059 1.305,4.015 c 0.406,1.219 1.09,2.328 2.004,3.238 0.906,0.911 2.019,1.598 3.242,2 l 4.015,1.309 0.082,0.02 c 0.309,0.109 0.579,0.308 0.766,0.578 0.191,0.269 0.293,0.59 0.293,0.918 0,0.328 -0.102,0.648 -0.293,0.914 -0.187,0.269 -0.457,0.472 -0.766,0.578 l -4.019,1.309 c -1.223,0.402 -2.332,1.089 -3.242,2 -0.91,0.91 -1.594,2.019 -2,3.238 l -1.309,4.015 c -0.109,0.309 -0.312,0.579 -0.578,0.766 -0.27,0.191 -0.59,0.293 -0.918,0.293 -0.328,0 -0.648,-0.102 -0.918,-0.293 -0.027,-0.016 -0.051,-0.035 -0.074,-0.059 -0.231,-0.183 -0.406,-0.429 -0.504,-0.707 L 51.57,21.176 C 51.5,20.965 51.422,20.754 51.336,20.547 50.922,19.57 50.324,18.68 49.574,17.926 49.43,17.781 49.281,17.645 49.129,17.512 48.312,16.801 47.359,16.258 46.328,15.914 L 42.309,14.609 C 42,14.5 41.73,14.301 41.543,14.031 41.352,13.762 41.25,13.441 41.25,13.113 c 0,-0.328 0.102,-0.648 0.293,-0.914 C 41.73,11.93 42,11.727 42.309,11.621 l 4.019,-1.309 c 1.207,-0.414 2.301,-1.105 3.195,-2.011 0.899,-0.91 1.571,-2.016 1.969,-3.227 L 52.797,1.059 C 52.906,0.75 53.109,0.48 53.379,0.293 53.645,0.102 53.965,0 54.293,0 c 0.332,0 0.652,0.102 0.918,0.293 0.269,0.187 0.473,0.457 0.582,0.766 z M 74.188,30.801 71.316,29.867 C 70.441,29.578 69.648,29.09 69,28.438 68.348,27.789 67.859,26.996 67.57,26.125 L 66.637,23.258 C 66.559,23.035 66.414,22.844 66.223,22.707 66.031,22.574 65.801,22.5 65.566,22.5 c -0.234,0 -0.461,0.074 -0.652,0.207 -0.191,0.137 -0.336,0.328 -0.414,0.551 l -0.934,2.867 c -0.285,0.863 -0.765,1.652 -1.406,2.305 -0.64,0.648 -1.422,1.14 -2.281,1.437 l -2.871,0.934 c -0.223,0.078 -0.414,0.222 -0.551,0.414 -0.133,0.191 -0.207,0.418 -0.207,0.652 0,0.235 0.074,0.465 0.207,0.656 0.137,0.192 0.328,0.336 0.551,0.415 l 2.871,0.929 c 0.871,0.293 1.668,0.785 2.316,1.438 0.653,0.652 1.141,1.445 1.426,2.32 l 0.934,2.867 c 0.078,0.223 0.222,0.414 0.414,0.551 0.191,0.133 0.422,0.207 0.656,0.207 0.234,0 0.465,-0.074 0.656,-0.207 0.192,-0.137 0.336,-0.328 0.414,-0.551 l 0.934,-2.867 c 0.289,-0.871 0.777,-1.664 1.43,-2.313 0.648,-0.652 1.441,-1.14 2.312,-1.429 l 2.871,-0.934 c 0.223,-0.078 0.414,-0.222 0.551,-0.414 C 74.926,32.344 75,32.117 75,31.883 75,31.648 74.926,31.418 74.793,31.227 74.656,31.035 74.465,30.891 74.242,30.812 Z M 22.5,11.25 h 15.391 c -0.239,0.594 -0.371,1.227 -0.391,1.875 0.008,0.645 0.133,1.281 0.363,1.875 H 22.5 C 18.359,15 15,18.359 15,22.5 v 30 c 0,4.141 3.359,7.5 7.5,7.5 h 30 C 56.641,60 60,56.641 60,52.5 V 38.617 c 0.027,0.063 0.055,0.129 0.074,0.195 l 0.903,2.852 c 0.343,0.981 0.988,1.832 1.835,2.438 0.293,0.207 0.61,0.382 0.938,0.523 V 52.5 c 0,6.215 -5.035,11.25 -11.25,11.25 h -30 c -6.215,0 -11.25,-5.035 -11.25,-11.25 v -30 c 0,-6.215 5.035,-11.25 11.25,-11.25 z m -1.875,7.5 h 22.457 l 2.293,0.75 c 0.559,0.168 1.074,0.461 1.5,0.863 l 0.227,0.223 c 0.418,0.402 0.75,0.891 0.972,1.426 v 0.34 L 48.121,22.5 H 20.625 c -1.035,0 -1.875,-0.84 -1.875,-1.875 0,-1.035 0.84,-1.875 1.875,-1.875 z m 15,15 h 17.246 c 0.141,0.328 0.317,0.645 0.527,0.938 0.586,0.828 1.411,1.457 2.364,1.8 L 56,36.562 C 55.676,37.121 55.07,37.5 54.375,37.5 h -18.75 c -1.035,0 -1.875,-0.84 -1.875,-1.875 0,-1.035 0.84,-1.875 1.875,-1.875 z m -11.25,7.5 C 27.48,41.25 30,38.73 30,35.625 30,32.52 27.48,30 24.375,30 c -3.105,0 -5.625,2.52 -5.625,5.625 0,3.105 2.52,5.625 5.625,5.625 z m 0,-3.75 c -1.035,0 -1.875,-0.84 -1.875,-1.875 0,-1.035 0.84,-1.875 1.875,-1.875 1.035,0 1.875,0.84 1.875,1.875 0,1.035 -0.84,1.875 -1.875,1.875 z M 30,50.625 C 30,53.73 27.48,56.25 24.375,56.25 21.27,56.25 18.75,53.73 18.75,50.625 18.75,47.52 21.27,45 24.375,45 27.48,45 30,47.52 30,50.625 Z m -3.75,0 c 0,-1.035 -0.84,-1.875 -1.875,-1.875 -1.035,0 -1.875,0.84 -1.875,1.875 0,1.035 0.84,1.875 1.875,1.875 1.035,0 1.875,-0.84 1.875,-1.875 z m 9.375,-1.875 c -1.035,0 -1.875,0.84 -1.875,1.875 0,1.035 0.84,1.875 1.875,1.875 h 18.75 c 1.035,0 1.875,-0.84 1.875,-1.875 0,-1.035 -0.84,-1.875 -1.875,-1.875 z" style="fill:currentColor;fill-opacity:1;fill-rule:nonzero;stroke:none" transform="scale(1.3333333)" /> </g>
</svg>

