<?xml version="1.0" encoding="UTF-8" standalone="no"?> <svg version="1.1" id="I60abd8a6d7b046c49e050fabebad6a4e20251106152729" width="100" height="100" viewBox="0 0 100 100" xmlns="http://www.w3.org/2000/svg" xmlns:svg="http://www.w3.org/2000/svg"> <defs id="Idba0578596de454a81496b235ac5e8a020251106152729" /> <g id="Icd44e602a9c14bd89a16a913e2c0855420251106152729"> <path id="I8d06958a6ecf4382adf8268d9037790a20251106152729" d="m 40.18,31.473 c 0,-1.11 0.898,-2.008 2.008,-2.008 h 14.73 c 1.109,0 2.012,0.898 2.012,2.008 0,1.109 -0.903,2.007 -2.012,2.007 h -14.73 c -1.11,0 -2.008,-0.898 -2.008,-2.007 z m 2.008,8.707 c -1.11,0 -2.008,0.898 -2.008,2.008 0,1.109 0.898,2.007 2.008,2.007 h 4.351 c 0.574,-1.468 1.375,-2.82 2.363,-4.015 z M 12.734,60.27 h 35.481 v 4.015 H 12.734 c -4.07,0 -7.367,-3.297 -7.367,-7.367 V 18.082 c 0,-4.07 3.297,-7.367 7.367,-7.367 h 49.543 c 4.071,0 7.368,3.297 7.368,7.367 v 20.109 c -1.196,-0.988 -2.551,-1.793 -4.02,-2.367 V 18.082 c 0,-1.852 -1.496,-3.352 -3.348,-3.352 H 12.734 c -1.851,0 -3.347,1.5 -3.347,3.352 v 38.836 c 0,1.852 1.496,3.352 3.347,3.352 z m 47.536,1.335 c 3.785,0 7.16,-1.742 9.371,-4.472 1.675,-2.071 2.679,-4.707 2.679,-7.578 0,-2.871 -1,-5.508 -2.675,-7.575 -1.086,-1.343 -2.457,-2.449 -4.02,-3.226 C 64.012,37.949 62.191,37.5 60.27,37.5 c -2.872,0 -5.508,1.004 -7.579,2.68 -1.343,1.086 -2.449,2.457 -3.222,4.015 -0.805,1.614 -1.254,3.434 -1.254,5.36 0,4.664 2.648,8.711 6.527,10.715 1.653,0.855 3.535,1.335 5.528,1.335 z m 6.429,1.207 c -1.691,0.821 -3.562,1.329 -5.539,1.45 -0.254,0.011 -0.508,0.023 -0.762,0.023 -0.043,0 -0.086,0 -0.128,0 -0.043,0 -0.09,0 -0.133,0 -0.254,0 -0.508,-0.012 -0.762,-0.023 -2.078,-0.125 -4.043,-0.684 -5.805,-1.582 -0.957,-0.489 -1.855,-1.082 -2.675,-1.762 v 9.535 c 0,1.563 1.796,2.442 3.027,1.477 l 6.348,-4.965 6.343,4.965 c 1.231,0.965 3.032,0.086 3.032,-1.477 v -9.535 c -0.899,0.742 -1.887,1.379 -2.946,1.894 z M 30.133,31.473 c 0,2.589 -2.098,4.687 -4.688,4.687 -2.586,0 -4.687,-2.098 -4.687,-4.687 0,-2.59 2.101,-4.688 4.687,-4.688 2.59,0 4.688,2.098 4.688,4.688 z M 18.75,38.84 h 13.395 c 1.476,0 2.675,1.199 2.675,2.68 v 1.335 c 0,0 -1.34,6.7 -9.375,6.7 -8.035,0 -9.375,-6.7 -9.375,-6.7 V 41.52 c 0,-1.481 1.2,-2.68 2.68,-2.68 z" style="fill:currentColor;fill-opacity:1;fill-rule:nonzero;stroke:none" transform="scale(1.3333333)" /> </g>
</svg>

