<?xml version="1.0" encoding="UTF-8" standalone="no"?> <svg version="1.1" id="Ief8517bbad764282a47656a734af890f20251110123031" width="100" height="100" viewBox="0 0 100 100" xmlns="http://www.w3.org/2000/svg" xmlns:svg="http://www.w3.org/2000/svg"> <defs id="Iae98c4c726214a9ab9d29838a7e9731a20251110123031" /> <g id="I1ab46a0e448b4e6a9f388088695bf7fa20251110123031"> <path id="I4a26c5b9d3f84ca4a15be203d06a94c820251110123031" d="m 22.5,22.5 c 0,-8.285 6.715,-15 15,-15 8.285,0 15,6.715 15,15 0,4.508 -1.988,8.551 -5.137,11.301 -0.136,0.113 -0.277,0.23 -0.414,0.347 -2.578,2.098 -5.867,3.352 -9.449,3.352 -8.285,0 -15,-6.715 -15,-15 z M 42.098,41.25 H 18.781 c -4.144,0 -7.531,3.324 -7.531,7.5 0,6.344 3.121,11.125 8.008,14.238 3.039,1.938 6.754,3.231 10.832,3.918 -0.395,-2.82 0.496,-5.789 2.664,-7.957 l 8.691,-8.691 c -0.593,-2.988 -0.379,-6.11 0.653,-9.008 z m 17.496,-7.41 c 1.375,0.16 1.769,1.805 0.789,2.781 l -3.656,3.656 c -2.207,2.211 -2.207,5.789 0,7.996 2.207,2.207 5.785,2.207 7.996,0 l 3.656,-3.656 c 0.976,-0.98 2.621,-0.586 2.781,0.789 0.453,3.867 -0.808,7.895 -3.773,10.864 -3.723,3.718 -9.114,4.753 -13.762,3.097 L 43.402,69.594 c -2.211,2.207 -5.789,2.207 -7.996,0 -2.207,-2.207 -2.207,-5.785 0,-7.996 L 45.633,51.375 C 43.977,46.727 45.012,41.336 48.73,37.613 51.699,34.648 55.727,33.391 59.594,33.84 Z" style="fill:currentColor;fill-opacity:1;fill-rule:nonzero;stroke:none" transform="scale(1.3333333)" /> </g>
</svg>

