<?xml version="1.0" encoding="UTF-8" standalone="no"?> <svg version="1.1" id="Ie944258cd051475ea171965bddae097020251106144521" width="100" height="100" viewBox="0 0 100 100" xmlns="http://www.w3.org/2000/svg" xmlns:svg="http://www.w3.org/2000/svg"> <defs id="I422d7ae651b54686a2ede9d8646ed6de20251106144521" /> <g id="I8e27f8acc41e4449afcb4fa1d312660c20251106144521"> <path id="I48bf4aa49e6e4a65b36ef8a2bfb554ba20251106144521" d="m 19.531,9.375 c -5.609,0 -10.156,4.547 -10.156,10.156 v 35.938 c 0,5.609 4.547,10.156 10.156,10.156 H 41.16 C 40.801,64.48 40.625,63.293 40.625,62.109 v -0.32 c 0,-4.789 3.883,-8.664 8.664,-8.664 h 0.867 c -2.023,-1.984 -3.281,-4.754 -3.281,-7.813 0,-6.039 4.898,-10.937 10.937,-10.937 3.059,0 5.829,1.258 7.813,3.281 V 19.531 C 65.625,13.922 61.078,9.375 55.469,9.375 Z M 54,29.004 32.895,50.082 c -0.915,0.914 -2.399,0.914 -3.313,0 L 21,41.5 c -0.914,-0.914 -0.914,-2.398 0,-3.312 0.914,-0.918 2.398,-0.918 3.316,0 l 6.922,6.921 19.45,-19.425 c 0.914,-0.914 2.398,-0.911 3.312,0.004 0.918,0.914 0.914,2.398 0,3.316 z m 11.625,16.308 c 0,4.317 -3.496,7.813 -7.813,7.813 -4.316,0 -7.812,-3.496 -7.812,-7.813 0,-4.316 3.496,-7.812 7.812,-7.812 4.317,0 7.813,3.496 7.813,7.812 z m 6.25,16.797 c 0,4.864 -4.02,9.766 -14.063,9.766 -10.042,0 -14.062,-4.883 -14.062,-9.766 v -0.32 c 0,-3.062 2.48,-5.539 5.539,-5.539 h 17.047 c 3.059,0 5.539,2.477 5.539,5.539 z" style="fill:currentColor;fill-opacity:1;fill-rule:nonzero;stroke:none" transform="scale(1.3333333)" /> </g>
</svg>

