<?xml version="1.0" encoding="UTF-8" standalone="no"?> <svg version="1.1" id="Ia504de9d7b794705b7563250bb45034b20251110130509" width="100" height="100" viewBox="0 0 100 100" xmlns="http://www.w3.org/2000/svg" xmlns:svg="http://www.w3.org/2000/svg"> <defs id="I6bba039629bb4fd2acdd2967bd41437320251110130509" /> <g id="I69b4bdd45dbf47bebf7ab1fd89f6554d20251110130509"> <path id="I4cc5ba03ca334f7390054b953ff429bb20251110130509" d="m 68.75,11.719 c 0,-1.293 -1.051,-2.344 -2.344,-2.344 h -3.125 c -5.609,0 -10.156,4.547 -10.156,10.156 v 35.938 c 0,5.609 4.547,10.156 10.156,10.156 h 3.125 c 1.293,0 2.344,-1.051 2.344,-2.344 0,-1.293 -1.051,-2.343 -2.344,-2.343 h -3.125 c -3.019,0 -5.469,-2.45 -5.469,-5.469 v -7.031 h 8.594 c 1.293,0 2.344,-1.051 2.344,-2.344 0,-1.293 -1.051,-2.344 -2.344,-2.344 h -8.594 v -12.5 h 8.594 c 1.293,0 2.344,-1.051 2.344,-2.344 0,-1.293 -1.051,-2.344 -2.344,-2.344 h -8.594 v -7.031 c 0,-3.019 2.45,-5.469 5.469,-5.469 h 3.125 c 1.293,0 2.344,-1.05 2.344,-2.343 z m -62.5,0 c 0,-1.293 1.051,-2.344 2.344,-2.344 h 3.125 c 5.609,0 10.156,4.547 10.156,10.156 v 35.938 c 0,5.609 -4.547,10.156 -10.156,10.156 H 8.594 c -1.293,0 -2.344,-1.051 -2.344,-2.344 0,-1.293 1.051,-2.343 2.344,-2.343 h 3.125 c 3.019,0 5.469,-2.45 5.469,-5.469 V 48.438 H 8.594 c -1.293,0 -2.344,-1.051 -2.344,-2.344 0,-1.293 1.051,-2.344 2.344,-2.344 h 8.594 V 31.25 H 8.594 c -1.293,0 -2.344,-1.051 -2.344,-2.344 0,-1.293 1.051,-2.344 2.344,-2.344 h 8.594 v -7.031 c 0,-3.019 -2.45,-5.469 -5.469,-5.469 H 8.594 c -1.293,0 -2.344,-1.05 -2.344,-2.343 z m 27.934,25.781 -4.59,4.594 c -0.918,0.914 -0.918,2.398 0,3.312 0.914,0.918 2.398,0.918 3.312,0 l 4.594,-4.59 4.594,4.59 c 0.914,0.918 2.398,0.918 3.312,0 0.918,-0.914 0.918,-2.398 0,-3.312 l -4.59,-4.594 4.59,-4.594 c 0.918,-0.914 0.918,-2.398 0,-3.312 -0.914,-0.918 -2.398,-0.918 -3.312,0 l -4.594,4.59 -4.594,-4.59 c -0.914,-0.918 -2.398,-0.918 -3.312,0 -0.918,0.914 -0.918,2.398 0,3.312 z m 0.972,-10.227 c 0.082,0.071 0.16,0.149 0.239,0.223 l 2.105,2.109 2.105,-2.109 c 0.079,-0.074 0.157,-0.152 0.239,-0.223 V 8.594 c 0,-1.293 -1.051,-2.344 -2.344,-2.344 -1.293,0 -2.344,1.051 -2.344,2.344 z m 0,21.235 v 17.898 c 0,1.293 1.051,2.344 2.344,2.344 1.293,0 2.344,-1.051 2.344,-2.344 V 48.508 c -0.082,-0.07 -0.16,-0.149 -0.239,-0.223 L 37.5,46.176 35.395,48.285 c -0.079,0.074 -0.157,0.153 -0.239,0.223 z" style="fill:currentColor;fill-opacity:1;fill-rule:nonzero;stroke:none" transform="scale(1.3333333)" /> </g>
</svg>

