<?xml version="1.0" encoding="UTF-8" standalone="no"?> <svg version="1.1" id="I0a1a81f1999c45dd8d682fb2ef6d2bbd20251110123030" width="100" height="100" viewBox="0 0 100 100" xmlns="http://www.w3.org/2000/svg" xmlns:svg="http://www.w3.org/2000/svg"> <defs id="I7e53fd4d83a246da9669136c08b0458520251110123030" /> <g id="Ibdf1b73f1c32482c9d212e9fdaacfb1e20251110123030"> <path id="I43bf7ebf400c492fa2d30a2ad21ab32e20251110123030" d="m 32.812,25.781 c 0,-1.293 -1.05,-2.343 -2.343,-2.343 -1.293,0 -2.344,1.05 -2.344,2.343 v 23.438 c 0,1.293 1.051,2.343 2.344,2.343 1.293,0 2.343,-1.05 2.343,-2.343 z m 14.063,0 c 0,-1.293 -1.051,-2.343 -2.344,-2.343 -1.293,0 -2.343,1.05 -2.343,2.343 v 23.438 c 0,1.293 1.05,2.343 2.343,2.343 1.293,0 2.344,-1.05 2.344,-2.343 z M 37.5,6.25 C 20.242,6.25 6.25,20.242 6.25,37.5 6.25,54.758 20.242,68.75 37.5,68.75 54.758,68.75 68.75,54.758 68.75,37.5 68.75,20.242 54.758,6.25 37.5,6.25 Z M 10.938,37.5 c 0,-14.672 11.89,-26.562 26.562,-26.562 14.672,0 26.562,11.89 26.562,26.562 0,14.672 -11.89,26.562 -26.562,26.562 -14.672,0 -26.562,-11.89 -26.562,-26.562 z" style="fill:currentColor;fill-opacity:1;fill-rule:nonzero;stroke:none" transform="scale(1.3333333)" /> </g>
</svg>

