<?xml version="1.0" encoding="UTF-8" standalone="no"?> <svg version="1.1" id="If2f3ce83265f47a696675d144ae9086820251110123030" width="100" height="100" viewBox="0 0 100 100" xmlns="http://www.w3.org/2000/svg" xmlns:svg="http://www.w3.org/2000/svg"> <defs id="I69a0c89f270241c2830385ba8f0fea4c20251110123030" /> <g id="Ie91e7ff626324e6a87f8956f5771119020251110123030"> <path id="I03e390e9bf9b4328b385f2facd5eb1d620251110123030" d="m 54.688,37.5 c 9.492,0 17.187,7.695 17.187,17.188 0,9.492 -7.695,17.187 -17.187,17.187 C 45.195,71.875 37.5,64.18 37.5,54.688 37.5,45.195 45.195,37.5 54.688,37.5 Z m 0,6.246 -0.282,0.027 c -0.636,0.114 -1.14,0.618 -1.258,1.258 l -0.023,0.278 v 7.812 l -7.82,0.004 -0.282,0.023 c -0.636,0.118 -1.14,0.622 -1.253,1.258 l -0.028,0.282 0.028,0.281 c 0.113,0.636 0.617,1.14 1.253,1.258 l 0.282,0.023 7.824,-0.004 v 7.828 l 0.023,0.281 c 0.118,0.637 0.621,1.141 1.258,1.254 l 0.281,0.028 0.282,-0.028 c 0.636,-0.113 1.14,-0.617 1.254,-1.254 l 0.027,-0.281 v -7.828 l 7.824,0.004 0.281,-0.023 c 0.637,-0.118 1.141,-0.622 1.254,-1.258 l 0.028,-0.281 -0.028,-0.282 C 65.5,53.77 64.996,53.266 64.359,53.148 L 64.078,53.125 56.25,53.121 v -7.812 l -0.023,-0.278 c -0.118,-0.64 -0.622,-1.144 -1.258,-1.258 z M 44.543,31.25 c 2.609,0 4.887,1.422 6.098,3.527 -9.282,1.879 -16.266,10.078 -16.266,19.911 0,4.027 1.172,7.785 3.195,10.941 l -0.062,-0.004 c -7.766,0 -14.063,-6.297 -14.063,-14.066 V 38.281 c 0,-3.883 3.145,-7.031 7.032,-7.031 z m -21.398,0 c -1.606,1.672 -2.641,3.895 -2.805,6.355 l -0.02,0.676 v 13.278 c 0,2.644 0.598,5.152 1.664,7.39 -1.027,0.278 -2.113,0.426 -3.23,0.426 -6.906,0 -12.504,-5.598 -12.504,-12.504 v -8.59 c 0,-3.722 2.891,-6.765 6.551,-7.015 l 0.48,-0.016 z m 38.574,0 c 3.883,0 7.031,3.148 7.031,7.031 l 0.004,1.75 C 65.102,36.527 60.148,34.375 54.688,34.375 l -0.762,0.016 C 53.441,33.219 52.742,32.156 51.875,31.25 Z M 57.812,12.5 c 4.317,0 7.813,3.496 7.813,7.812 0,4.317 -3.496,7.813 -7.813,7.813 C 53.496,28.125 50,24.629 50,20.312 50,15.996 53.496,12.5 57.812,12.5 Z M 37.5,9.375 c 5.18,0 9.375,4.199 9.375,9.375 0,5.176 -4.195,9.375 -9.375,9.375 -5.18,0 -9.375,-4.199 -9.375,-9.375 0,-5.176 4.195,-9.375 9.375,-9.375 z M 17.188,12.5 c 4.316,0 7.812,3.496 7.812,7.812 0,4.317 -3.496,7.813 -7.812,7.813 -4.317,0 -7.813,-3.496 -7.813,-7.813 0,-4.316 3.496,-7.812 7.813,-7.812 z" style="fill:currentColor;fill-opacity:1;fill-rule:nonzero;stroke:none" transform="scale(1.3333333)" /> </g>
</svg>

