<?xml version="1.0" encoding="UTF-8" standalone="no"?> <svg version="1.1" id="I770ed33b88cb45a9b7055f1e4542984120251106171633" width="100" height="100" viewBox="0 0 100 100" xmlns="http://www.w3.org/2000/svg" xmlns:svg="http://www.w3.org/2000/svg"> <defs id="I9f5668a6b7e54525a37c37b9dc9d313420251106171633" /> <g id="I887087089c4c48a2800f72ff94e2208420251106171633"> <path id="I99158d3b529a4769adfa80c1419d7a4620251106171633" d="m 16.895,21.297 c 1.121,0.441 1.855,1.523 1.855,2.726 v 26.954 c 0,1.617 -1.312,2.929 -2.93,2.929 -1.617,0 -2.929,-1.312 -2.929,-2.929 V 31.035 c -1.012,0.781 -2.231,1.61 -3.766,2.531 -1.387,0.832 -3.187,0.383 -4.02,-1.004 -0.832,-1.386 -0.382,-3.187 1.004,-4.019 2.395,-1.438 3.746,-2.516 4.723,-3.438 0.672,-0.64 1.121,-1.152 1.66,-1.765 0.336,-0.379 0.707,-0.801 1.188,-1.317 0.82,-0.878 2.093,-1.168 3.215,-0.726 z m 16.503,-0.203 c -1.507,0 -2.765,1.14 -2.918,2.636 l -1.171,11.719 c -0.086,0.895 0.238,1.781 0.886,2.406 0.649,0.622 1.547,0.915 2.438,0.79 l 6.805,-0.957 c 3.308,-0.465 6.265,2.105 6.265,5.445 0,3.039 -2.465,5.5 -5.5,5.5 H 39.18 c -1.645,0 -3.231,-0.621 -4.438,-1.742 l -1.695,-1.575 c -1.184,-1.101 -3.039,-1.035 -4.141,0.153 -1.101,1.183 -1.031,3.039 0.153,4.136 l 1.695,1.579 c 2.289,2.125 5.301,3.308 8.426,3.308 h 1.023 c 6.274,0 11.359,-5.086 11.359,-11.359 0,-6.903 -6.105,-12.207 -12.941,-11.246 l -3.109,0.433 0.535,-5.367 h 11.414 c 1.617,0 2.93,-1.312 2.93,-2.93 0,-1.617 -1.313,-2.929 -2.93,-2.929 z m 25.508,17.265 c -1.144,-1.144 -2.996,-1.144 -4.14,0 -1.145,1.145 -1.145,2.996 0,4.141 l 3.199,3.203 -3.199,3.203 c -1.145,1.145 -1.145,2.996 0,4.141 1.144,1.144 2.996,1.144 4.14,0 l 3.203,-3.199 3.203,3.199 c 1.145,1.144 2.997,1.144 4.141,0 1.145,-1.145 1.145,-2.996 0,-4.141 L 66.254,45.703 69.453,42.5 c 1.145,-1.145 1.145,-2.996 0,-4.141 -1.144,-1.144 -2.996,-1.144 -4.141,0 l -3.203,3.2 z M 25.781,51.562 c 0,1.293 -1.051,2.344 -2.343,2.344 -1.293,0 -2.344,-1.051 -2.344,-2.344 0,-1.292 1.051,-2.343 2.344,-2.343 1.292,0 2.343,1.051 2.343,2.343 z" style="fill:currentColor;fill-opacity:1;fill-rule:nonzero;stroke:none" transform="scale(1.3333333)" /> </g>
</svg>

