<?xml version="1.0" encoding="UTF-8" standalone="no"?> <svg version="1.1" id="Ice295567854f44c887fd73b461e68c0320251106151526" width="100" height="100" viewBox="0 0 100 100" xmlns="http://www.w3.org/2000/svg" xmlns:svg="http://www.w3.org/2000/svg"> <defs id="I236c0682306e415082e4a5ee2601424420251106151526" /> <g id="Ie3f6dac3e79443be8e589642f786d77520251106151526"> <path id="Ie289561019ae46e88965073cd4ccff1220251106151526" d="m 32.031,6.25 h 10.938 c 3.617,0 6.597,2.734 6.988,6.25 h 5.512 c 3.883,0 7.031,3.148 7.031,7.031 v 16.403 c -2.406,-1.004 -5.043,-1.559 -7.812,-1.559 -11.219,0 -20.313,9.094 -20.313,20.313 0,5.457 2.152,10.414 5.656,14.062 h -20.5 C 15.648,68.75 12.5,65.602 12.5,61.719 V 19.531 c 0,-3.883 3.148,-7.031 7.031,-7.031 h 5.512 c 0.391,-3.516 3.371,-6.25 6.988,-6.25 z m 10.938,4.688 H 32.031 c -1.293,0 -2.343,1.05 -2.343,2.343 0,1.293 1.05,2.344 2.343,2.344 h 10.938 c 1.293,0 2.343,-1.051 2.343,-2.344 0,-1.293 -1.05,-2.343 -2.343,-2.343 z m 1.652,32.734 c 0.981,3.41 -1.062,6.949 -4.504,7.801 l -1.828,0.453 c -0.141,0.898 -0.211,1.82 -0.211,2.762 0,0.984 0.078,1.949 0.231,2.886 l 1.687,0.406 c 3.477,0.836 5.543,4.415 4.531,7.844 l -0.582,1.973 c 1.371,1.207 2.938,2.183 4.637,2.879 l 1.543,-1.621 c 2.465,-2.59 6.594,-2.59 9.059,0.004 l 1.558,1.64 c 1.699,-0.691 3.262,-1.66 4.633,-2.855 l -0.617,-2.141 c -0.985,-3.41 1.062,-6.949 4.504,-7.805 l 1.824,-0.449 c 0.141,-0.898 0.211,-1.82 0.211,-2.761 0,-0.985 -0.078,-1.95 -0.231,-2.887 L 69.383,51.395 C 65.906,50.559 63.836,46.98 64.852,43.551 l 0.578,-1.973 c -1.371,-1.203 -2.934,-2.183 -4.637,-2.879 l -1.539,1.621 c -2.465,2.59 -6.598,2.59 -9.063,-0.004 l -1.558,-1.64 c -1.699,0.691 -3.262,1.66 -4.633,2.855 z m 10.067,15.703 c -2.5,0 -4.532,-2.098 -4.532,-4.687 0,-2.59 2.032,-4.688 4.532,-4.688 2.5,0 4.531,2.098 4.531,4.688 0,2.589 -2.031,4.687 -4.531,4.687 z" style="fill:currentColor;fill-opacity:1;fill-rule:nonzero;stroke:none" transform="scale(1.3333333)" /> </g>
</svg>

