<?xml version="1.0" encoding="UTF-8" standalone="no"?> <svg version="1.1" id="Ic377924a285d4a779d9b76fcb312b76420251106123559" width="100" height="100" viewBox="0 0 100 100" xmlns="http://www.w3.org/2000/svg" xmlns:svg="http://www.w3.org/2000/svg"> <defs id="I04b23c6a296749cdab978ad03943df2820251106123559" /> <g id="I2a423a3ce1bc49d4bec780fd325cf2a220251106123559"> <path id="Ifeebd40971c64d36a66bcb4ed319520120251106123559" d="m 37.5,8.707 c 1.109,0 2.008,0.898 2.008,2.008 v 24.777 h 24.777 c 1.11,0 2.008,0.899 2.008,2.008 0,1.109 -0.898,2.008 -2.008,2.008 H 39.508 v 24.777 c 0,1.11 -0.899,2.008 -2.008,2.008 -1.109,0 -2.008,-0.898 -2.008,-2.008 V 39.508 H 10.715 c -1.11,0 -2.008,-0.899 -2.008,-2.008 0,-1.109 0.898,-2.008 2.008,-2.008 H 35.492 V 10.715 c 0,-1.11 0.899,-2.008 2.008,-2.008 z" style="fill:currentColor;fill-opacity:1;fill-rule:nonzero;stroke:none" transform="scale(1.3333333)" /> </g>
</svg>

