<?xml version="1.0" encoding="UTF-8" standalone="no"?> <svg version="1.1" id="I791205a4925a442eae32996bb69c6c5520251106165301" width="100" height="100" viewBox="0 0 100 100" xmlns="http://www.w3.org/2000/svg" xmlns:svg="http://www.w3.org/2000/svg"> <defs id="I7481a91aad2d40b480664f28b9bf8e2020251106165301" /> <g id="I9a02f96e79534df9b250b7f3dc83eefc20251106165301"> <path id="If1cc65fa40074e369759bfdfc9b9643820251106165301" d="m 32.969,7.914 c 2.617,-2.211 6.445,-2.211 9.062,0 l 21.094,17.785 c 1.586,1.336 2.5,3.305 2.5,5.375 v 6.492 c -1.449,-0.925 -3.02,-1.671 -4.687,-2.211 v -4.281 c 0,-0.691 -0.305,-1.344 -0.833,-1.789 L 39.012,11.496 c -0.875,-0.738 -2.149,-0.738 -3.024,0 L 14.895,29.285 c -0.528,0.445 -0.833,1.098 -0.833,1.789 v 29.094 c 0,0.434 0.352,0.781 0.782,0.781 h 20.515 c 0.539,1.668 1.289,3.242 2.215,4.688 h -22.73 c -3.02,0 -5.469,-2.449 -5.469,-5.469 V 31.074 c 0,-2.07 0.914,-4.039 2.5,-5.375 z M 71.875,54.688 C 71.875,45.195 64.18,37.5 54.688,37.5 45.195,37.5 37.5,45.195 37.5,54.688 c 0,9.492 7.695,17.187 17.188,17.187 9.492,0 17.187,-7.695 17.187,-17.187 z m -15.625,1.562 0.004,7.824 c 0,0.864 -0.699,1.563 -1.563,1.563 -0.863,0 -1.562,-0.699 -1.562,-1.563 L 53.125,56.25 h -7.828 c -0.859,0 -1.559,-0.699 -1.559,-1.562 0,-0.864 0.7,-1.563 1.559,-1.563 h 7.828 v -7.816 c 0,-0.864 0.699,-1.563 1.563,-1.563 0.863,0 1.562,0.699 1.562,1.563 v 7.816 h 7.801 c 0.863,0 1.562,0.699 1.562,1.563 0,0.863 -0.699,1.562 -1.562,1.562 z" style="fill:currentColor;fill-opacity:1;fill-rule:nonzero;stroke:none" transform="scale(1.3333333)" /> </g>
</svg>

