<?xml version="1.0" encoding="UTF-8" standalone="no"?> <svg version="1.1" id="I427d829b4b5448f2b2e6635937bccce720251110123031" width="100" height="100" viewBox="0 0 100 100" xmlns="http://www.w3.org/2000/svg" xmlns:svg="http://www.w3.org/2000/svg"> <defs id="I4dd0aa57c5ec4dec872dbf7114fe962520251110123031" /> <g id="I4cb81d673b3e4f2587ed80c49ef6132020251110123031"> <path id="I7ab015e611df4749939273f2656d316d20251110123031" d="m 49.219,6.25 c 3.722,0 6.765,2.891 7.015,6.551 l 0.016,0.48 v 10.992 c -1.648,-0.238 -3.383,0.278 -4.652,1.543 -1.442,1.446 -1.922,3.512 -1.332,5.446 l 0.172,0.48 0.132,0.285 h -4.769 c -2.645,0 -4.699,2.032 -5.106,4.559 l -0.05,0.453 -0.02,0.457 c 0,2.496 1.605,4.731 4.168,5.344 l 0.488,0.098 0.52,0.027 h 4.734 L 50.48,43.07 c -0.648,1.465 -0.621,3.18 0.149,4.727 l 0.281,0.508 0.305,0.445 0.383,0.434 c 1.25,1.246 2.961,1.773 4.652,1.511 v 11.024 c 0,3.722 -2.891,6.765 -6.551,7.015 l -0.48,0.016 H 25.781 c -3.722,0 -6.769,-2.891 -7.015,-6.551 L 18.75,61.719 18.746,50.691 c 1.692,0.262 3.406,-0.265 4.656,-1.511 l 0.383,-0.43 0.305,-0.449 c 1.035,-1.668 1.152,-3.606 0.43,-5.235 l -0.055,-0.105 4.734,0.004 0.52,-0.031 c 2.843,-0.434 4.656,-2.786 4.656,-5.438 l -0.02,-0.461 C 34.141,34.301 32,32.027 29.199,32.027 l -4.769,-0.004 0.132,-0.285 c 0.833,-2.062 0.403,-4.359 -1.16,-5.922 -1.269,-1.269 -3.007,-1.785 -4.656,-1.546 L 18.75,13.281 c 0,-3.722 2.891,-6.769 6.551,-7.015 L 25.781,6.25 Z M 21.191,28.023 c 0.832,0.832 0.907,2.137 0.227,3.055 l -0.227,0.262 -3.816,3.812 h 11.824 c 1.133,0 2.051,1.047 2.051,2.344 0,1.184 -0.77,2.164 -1.773,2.32 L 29.199,39.84 H 17.375 l 3.816,3.816 c 0.832,0.832 0.907,2.133 0.227,3.051 l -0.227,0.262 c -0.832,0.832 -2.132,0.91 -3.05,0.226 L 17.875,46.969 10.473,39.57 C 9.82,39.18 9.375,38.398 9.375,37.496 c 0,-0.898 0.445,-1.68 1.094,-2.074 l 7.406,-7.399 c 0.918,-0.914 2.402,-0.914 3.316,0 z m 32.618,-0.007 c 0.832,-0.832 2.132,-0.907 3.05,-0.227 l 0.266,0.227 7.406,7.398 c 0.649,0.395 1.094,1.176 1.094,2.074 0,0.789 -0.34,1.485 -0.863,1.91 l -0.235,0.164 -7.402,7.399 -0.266,0.227 c -0.812,0.605 -1.933,0.613 -2.757,0.023 l -0.293,-0.25 -0.227,-0.262 c -0.605,-0.816 -0.613,-1.937 -0.023,-2.758 l 0.25,-0.296 3.816,-3.817 H 45.801 L 45.523,39.809 C 44.52,39.652 43.75,38.672 43.75,37.484 c 0,-1.183 0.773,-2.164 1.773,-2.32 l 0.278,-0.023 h 11.824 l -3.816,-3.809 -0.227,-0.266 c -0.68,-0.918 -0.605,-2.218 0.227,-3.05 z" style="fill:currentColor;fill-opacity:1;fill-rule:nonzero;stroke:none" transform="scale(1.3333333)" /> </g>
</svg>

