<?xml version="1.0" encoding="UTF-8" standalone="no"?> <svg version="1.1" id="Ifa62be7d899f45639d298bb686294bee20251106143238" width="100" height="100" viewBox="0 0 100 100" xmlns="http://www.w3.org/2000/svg" xmlns:svg="http://www.w3.org/2000/svg"> <defs id="Ifd33588a8c2c4a36bc795cf5aa904b5b20251106143238" /> <g id="I55a5c412f2974a669bf4c813074e71e720251106143238"> <path id="I5296b0549ed44df8bf1468852e831ee420251106143238" d="m 58.258,8.035 c 4.808,0 8.707,3.899 8.707,8.707 v 41.516 c 0,4.808 -3.899,8.707 -8.707,8.707 H 16.742 c -4.808,0 -8.707,-3.899 -8.707,-8.707 V 16.742 c 0,-4.808 3.899,-8.707 8.707,-8.707 z M 12.055,58.258 c 0,2.59 2.097,4.687 4.687,4.687 h 41.516 c 2.59,0 4.687,-2.097 4.687,-4.687 V 25.453 H 12.055 Z M 48.133,34.07 c 0.785,-0.785 2.058,-0.785 2.84,0 0.785,0.785 0.785,2.059 0,2.84 L 34.902,52.984 c -0.785,0.782 -2.054,0.782 -2.84,0 l -8.035,-8.039 c -0.785,-0.781 -0.785,-2.054 0,-2.84 0.735,-0.734 1.899,-0.781 2.688,-0.136 l 0.152,0.136 6.613,6.618 z M 16.742,12.055 c -2.59,0 -4.687,2.097 -4.687,4.687 v 4.696 h 50.89 v -4.696 c 0,-2.59 -2.097,-4.687 -4.687,-4.687 z" style="fill:currentColor;fill-opacity:1;fill-rule:nonzero;stroke:none" transform="scale(1.3333333)" /> </g>
</svg>

