<?xml version="1.0" encoding="UTF-8" standalone="no"?> <svg version="1.1" id="I77166113d1cc46d48114984777088f3c20251110124421" width="100" height="100" viewBox="0 0 100 100" xmlns="http://www.w3.org/2000/svg" xmlns:svg="http://www.w3.org/2000/svg"> <defs id="I4481d946e52742bc9b7bdc447d43927520251110124421" /> <g id="I2d7a18c970c241ffb44fd0b4430e37ae20251110124421"> <path id="Ieeccc055d3c74eb2b05f31ab6f95080e20251110124421" d="m 14.062,19.531 c 0,-3.019 2.45,-5.469 5.469,-5.469 h 35.938 c 3.019,0 5.469,2.45 5.469,5.469 v 35.938 c 0,3.019 -2.45,5.469 -5.469,5.469 H 39.645 c -0.54,1.667 -1.286,3.238 -2.211,4.687 h 18.035 c 5.609,0 10.156,-4.547 10.156,-10.156 V 19.531 C 65.625,13.922 61.078,9.375 55.469,9.375 H 19.531 c -5.609,0 -10.156,4.547 -10.156,10.156 v 18.035 c 1.449,-0.925 3.02,-1.671 4.687,-2.211 z m 25,1.563 c 0,-1.293 -1.05,-2.344 -2.343,-2.344 -1.293,0 -2.344,1.051 -2.344,2.344 v 18.75 c 0,1.293 1.051,2.344 2.344,2.344 h 14.062 c 1.293,0 2.344,-1.051 2.344,-2.344 0,-1.293 -1.051,-2.344 -2.344,-2.344 H 39.062 Z M 37.5,54.688 C 37.5,64.18 29.805,71.875 20.312,71.875 10.82,71.875 3.125,64.18 3.125,54.688 3.125,45.195 10.82,37.5 20.312,37.5 29.805,37.5 37.5,45.195 37.5,54.688 Z m -9.832,-5.793 c -0.609,-0.61 -1.602,-0.61 -2.211,0 l -8.269,8.269 -2.801,-2.801 c -0.61,-0.609 -1.602,-0.609 -2.211,0 -0.61,0.61 -0.61,1.602 0,2.211 l 3.906,3.906 c 0.609,0.61 1.602,0.61 2.211,0 l 9.375,-9.375 c 0.609,-0.609 0.609,-1.601 0,-2.21 z" style="fill:currentColor;fill-opacity:1;fill-rule:nonzero;stroke:none" transform="scale(1.3333333)" /> </g>
</svg>

