<?xml version="1.0" encoding="UTF-8" standalone="no"?> <svg version="1.1" id="Id452aab227be4ec0a80e409356b4582320251106163938" width="100" height="100" viewBox="0 0 100 100" xmlns="http://www.w3.org/2000/svg" xmlns:svg="http://www.w3.org/2000/svg"> <defs id="I4bce0be45e5a4d6ba167d17444df5f1420251106163938" /> <g id="Iffef04ca89c64a8db30473ea8cb2535320251106163938"> <path id="I85d25da77223443492921b9ad5379a5320251106163938" d="m 5.355,18.082 c 0,-5.551 4.5,-10.047 10.047,-10.047 h 9.836 c 1.953,0 3.824,0.777 5.207,2.156 l 5.047,5.047 -7.887,7.887 c -0.628,0.629 -1.48,0.98 -2.367,0.98 H 5.355 Z m 0.012,10.043 v 26.117 c 0,5.547 4.496,10.043 10.047,10.043 H 38.84 C 36.316,60.93 34.82,56.754 34.82,52.23 c 0,-11.093 8.996,-20.085 20.09,-20.085 5.82,0 11.067,2.472 14.735,6.429 V 26.117 C 69.645,20.57 65.148,16.07 59.598,16.07 H 40.34 l -9.895,9.899 c -1.383,1.379 -3.254,2.156 -5.207,2.156 z M 72.32,52.23 c 0,9.618 -7.793,17.415 -17.41,17.415 -9.617,0 -17.41,-7.797 -17.41,-17.415 0,-9.613 7.793,-17.41 17.41,-17.41 9.617,0 17.41,7.797 17.41,17.41 z M 53.57,62.945 c 0,0.743 0.602,1.34 1.34,1.34 0.738,0 1.34,-0.597 1.34,-1.34 V 44.75 L 62,50.5 c 0.523,0.523 1.371,0.523 1.895,0 0.523,-0.523 0.523,-1.371 0,-1.895 L 55.859,40.57 c -0.261,-0.258 -0.601,-0.39 -0.941,-0.39 h -0.016 c -0.179,0 -0.347,0.035 -0.504,0.101 -0.16,0.063 -0.304,0.16 -0.433,0.289 l -8.035,8.035 c -0.524,0.524 -0.524,1.372 0,1.895 0.519,0.523 1.371,0.523 1.89,0 l 5.75,-5.75 z" style="fill:currentColor;fill-opacity:1;fill-rule:nonzero;stroke:none" transform="scale(1.3333333)" /> </g>
</svg>

