<?xml version="1.0" encoding="UTF-8" standalone="no"?> <svg version="1.1" id="Ic61c937084384ce49fe535b2a8b52b6020251110124422" width="100" height="100" viewBox="0 0 100 100" xmlns="http://www.w3.org/2000/svg" xmlns:svg="http://www.w3.org/2000/svg"> <defs id="I6b54f8bc4eba4b9785f35065b7eccbe520251110124422" /> <g id="Ia06717d5668544afad03458bdbb72c0420251110124422"> <path id="I140d67866d4b4fc38a9e03e0b9ad783e20251110124422" d="M 21.094,9.375 C 12.895,9.375 6.25,16.02 6.25,24.219 v 21.875 c 0,3.883 3.148,7.031 7.031,7.031 h 0.781 v -4.687 h -0.781 c -1.293,0 -2.343,-1.051 -2.343,-2.344 V 24.219 c 0,-5.61 4.546,-10.157 10.156,-10.157 h 31.25 c 1.293,0 2.344,1.051 2.344,2.344 v 0.782 h 4.687 v -0.782 c 0,-3.883 -3.148,-7.031 -7.031,-7.031 z m 3.125,10.937 c -3.883,0 -7.031,3.149 -7.031,7.032 v 29.687 c 0,3.883 3.148,7.031 7.031,7.031 h 37.5 c 3.883,0 7.031,-3.148 7.031,-7.031 V 27.344 c 0,-3.883 -3.148,-7.032 -7.031,-7.032 z m -2.344,7.032 C 21.875,26.051 22.926,25 24.219,25 h 37.5 c 1.293,0 2.343,1.051 2.343,2.344 v 29.687 c 0,1.293 -1.05,2.344 -2.343,2.344 h -37.5 c -1.293,0 -2.344,-1.051 -2.344,-2.344 z" style="fill:currentColor;fill-opacity:1;fill-rule:nonzero;stroke:none" transform="scale(1.3333333)" /> </g>
</svg>

