<?xml version="1.0" encoding="UTF-8" standalone="no"?> <svg version="1.1" id="I959c4a940bf942d7801bc94461534bdd20251106171633" width="100" height="100" viewBox="0 0 100 100" xmlns="http://www.w3.org/2000/svg" xmlns:svg="http://www.w3.org/2000/svg"> <defs id="I90343563ac8c417fb6bd8db4645d0f2b20251106171633" /> <g id="I819e5bb264184a7e83e385cb5711ef3120251106171633"> <path id="I00b2a023129646ba9a435a04ed4f7dee20251106171633" d="M 34.336,9.031 C 34.574,7.758 33.738,6.531 32.469,6.293 31.195,6.051 29.969,6.887 29.727,8.16 L 26.543,24.996 11.719,25 c -1.297,0 -2.344,1.051 -2.344,2.348 0,1.293 1.051,2.34 2.344,2.34 L 25.656,29.684 22.703,45.305 8.594,45.312 C 7.297,45.312 6.25,46.363 6.25,47.656 6.25,48.953 7.301,50 8.594,50 L 21.816,49.992 18.789,65.98 c -0.238,1.274 0.598,2.497 1.867,2.739 1.274,0.242 2.5,-0.594 2.742,-1.867 l 3.188,-16.86 8.336,-0.004 c 0.39,-1.648 0.98,-3.222 1.75,-4.687 l -9.199,0.004 2.957,-15.625 17.105,-0.008 -1.23,6.508 c 1.586,-0.719 3.285,-1.242 5.058,-1.535 l 0.942,-4.977 14.101,-0.004 c 1.297,0 2.344,-1.051 2.344,-2.348 0,-1.293 -1.051,-2.339 -2.344,-2.339 L 53.191,24.98 56.211,9.031 C 56.449,7.758 55.613,6.531 54.344,6.293 53.07,6.051 51.844,6.887 51.602,8.16 l -3.18,16.824 -17.106,0.008 z m 37.539,45.657 c 0,9.492 -7.695,17.187 -17.187,17.187 C 45.195,71.875 37.5,64.18 37.5,54.688 37.5,45.195 45.195,37.5 54.688,37.5 c 9.492,0 17.187,7.695 17.187,17.188 z M 49.543,47.332 c -0.609,-0.609 -1.602,-0.609 -2.211,0 -0.609,0.609 -0.609,1.602 0,2.211 l 5.145,5.145 -5.145,5.144 c -0.609,0.609 -0.609,1.602 0,2.211 0.609,0.609 1.602,0.609 2.211,0 l 5.145,-5.145 5.144,5.145 c 0.609,0.609 1.602,0.609 2.211,0 0.609,-0.609 0.609,-1.602 0,-2.211 l -5.145,-5.144 5.145,-5.145 c 0.609,-0.609 0.609,-1.602 0,-2.211 -0.609,-0.609 -1.602,-0.609 -2.211,0 l -5.144,5.145 z" style="fill:currentColor;fill-opacity:1;fill-rule:nonzero;stroke:none" transform="scale(1.3333333)" /> </g>
</svg>

