<?xml version="1.0" encoding="UTF-8" standalone="no"?> <svg version="1.1" id="Ic9e2978909e3435994bcace0e093137920251106125938" width="100" height="100" viewBox="0 0 100 100" xmlns="http://www.w3.org/2000/svg" xmlns:svg="http://www.w3.org/2000/svg"> <defs id="I4d6575e1d3954a169a3a50e77efc1e4020251106125938" /> <g id="I4544e8ffc9dc42bfa6ccdda38c1b44c620251106125938"> <path id="I382f47f0908e47da83f84e808ae7119220251106125938" d="m 38.281,12.5 c 1.293,0 2.344,1.051 2.344,2.344 0,1.293 -1.051,2.344 -2.344,2.344 H 20.5 L 57.812,54.5 V 36.719 c 0,-1.293 1.051,-2.344 2.344,-2.344 1.293,0 2.344,1.051 2.344,2.344 v 23.437 c 0,1.293 -1.051,2.344 -2.344,2.344 H 36.719 c -1.293,0 -2.344,-1.051 -2.344,-2.344 0,-1.293 1.051,-2.344 2.344,-2.344 H 54.5 L 17.188,20.5 v 17.781 c 0,1.293 -1.051,2.344 -2.344,2.344 -1.293,0 -2.344,-1.051 -2.344,-2.344 V 14.844 c 0,-1.293 1.051,-2.344 2.344,-2.344 z" style="fill:currentColor;fill-opacity:1;fill-rule:nonzero;stroke:none" transform="scale(1.3333333)" /> </g>
</svg>

