<?xml version="1.0" encoding="UTF-8" standalone="no"?> <svg version="1.1" id="Iaca5c6c276c844128df8cd4da781fe5920251106151526" width="100" height="100" viewBox="0 0 100 100" xmlns="http://www.w3.org/2000/svg" xmlns:svg="http://www.w3.org/2000/svg"> <defs id="I58570e8a62f547ffbc38bf879672b90320251106151526" /> <g id="I93f971fa7e164c53976e03af72cfbbfe20251106151526"> <path id="I683002905e8d44a0b66076246a32952220251106151526" d="m 37.5,6.238 c 1.293,0 2.344,1.051 2.344,2.344 V 12.5 h 6.25 c 3.019,0 5.468,2.445 5.468,5.469 v 16.406 h 7.032 c 3.019,0 5.468,2.445 5.468,5.469 v 23.437 c 0,3.02 -2.449,5.469 -5.468,5.469 H 16.406 c -3.019,0 -5.468,-2.449 -5.468,-5.469 V 36.938 c 0,-1.934 1.023,-3.723 2.687,-4.708 l 9.813,-5.8 v -8.461 c 0,-3.024 2.449,-5.469 5.468,-5.469 h 6.25 V 8.582 c 0,-1.293 1.051,-2.344 2.344,-2.344 z m -9.375,18.817 c 2.531,0.375 4.687,2.523 4.687,5.418 v 33.589 h 9.376 V 39.844 c 0,-2.758 2.039,-5.035 4.687,-5.414 V 17.969 c 0,-0.434 -0.352,-0.781 -0.781,-0.781 H 28.906 c -0.429,0 -0.781,0.347 -0.781,0.781 z m 19.531,14.007 c -0.429,0 -0.781,0.348 -0.781,0.782 v 24.218 h 11.719 c 0.429,0 0.781,-0.351 0.781,-0.781 V 39.844 c 0,-0.434 -0.352,-0.782 -0.781,-0.782 z M 26.945,29.801 16.008,36.266 c -0.238,0.14 -0.383,0.394 -0.383,0.672 v 26.343 c 0,0.43 0.352,0.781 0.781,0.781 H 28.125 V 30.473 c 0,-0.602 -0.656,-0.981 -1.18,-0.672 z" style="fill:currentColor;fill-opacity:1;fill-rule:nonzero;stroke:none" transform="scale(1.3333333)" /> </g>
</svg>

