<?xml version="1.0" encoding="UTF-8" standalone="no"?> <svg version="1.1" id="I05e798c13aaa4e2895eade1c2ca9909820251110135155" width="100" height="100" viewBox="0 0 100 100" xmlns="http://www.w3.org/2000/svg" xmlns:svg="http://www.w3.org/2000/svg"> <defs id="I6eb24a0ff59b41299e4428e2dcac708620251110135155" /> <g id="Ic72fc5d087564680a4f09c4dbe668d9820251110135155"> <path id="I4305e5a38caf46ca8194bb8f3eab282c20251110135155" d="M 47.152,20.039 C 46.926,19.746 46.68,19.469 46.418,19.207 45.441,18.227 44.25,17.488 42.941,17.051 L 38.637,15.656 C 38.305,15.539 38.016,15.32 37.812,15.035 37.609,14.746 37.5,14.402 37.5,14.051 c 0,-0.352 0.109,-0.696 0.312,-0.981 0.204,-0.289 0.493,-0.504 0.825,-0.621 l 4.304,-1.398 c 1.293,-0.446 2.465,-1.184 3.426,-2.16 0.934,-0.946 1.641,-2.09 2.071,-3.348 L 48.473,5.438 49.871,1.133 C 49.988,0.801 50.207,0.516 50.492,0.312 50.781,0.109 51.125,0 51.477,0 c 0.351,0 0.695,0.109 0.98,0.312 0.289,0.204 0.508,0.489 0.625,0.821 l 1.398,4.305 c 0.434,1.308 1.168,2.496 2.145,3.468 0.977,0.977 2.164,1.711 3.473,2.145 l 4.304,1.398 0.086,0.02 c 0.332,0.117 0.621,0.336 0.824,0.621 0.204,0.289 0.313,0.633 0.313,0.984 0,0.352 -0.109,0.696 -0.313,0.981 -0.203,0.289 -0.492,0.504 -0.824,0.621 l -4.304,1.398 c -1.309,0.434 -2.496,1.168 -3.473,2.145 -0.977,0.972 -1.711,2.16 -2.145,3.469 l -1.398,4.304 c -0.016,0.035 -0.027,0.07 -0.043,0.106 -0.125,0.285 -0.324,0.535 -0.578,0.714 -0.289,0.204 -0.633,0.313 -0.985,0.313 -0.351,0 -0.695,-0.109 -0.984,-0.313 -0.285,-0.203 -0.504,-0.488 -0.621,-0.82 L 48.559,22.688 C 48.242,21.73 47.766,20.832 47.152,20.039 Z m 24.043,11.879 -2.39,-0.777 C 68.078,30.898 67.418,30.488 66.875,29.949 66.332,29.406 65.926,28.746 65.684,28.02 L 64.906,25.629 C 64.84,25.445 64.719,25.285 64.559,25.172 64.402,25.062 64.211,25 64.016,25 c -0.196,0 -0.387,0.062 -0.547,0.172 -0.16,0.113 -0.281,0.273 -0.344,0.457 l -0.777,2.391 c -0.239,0.722 -0.641,1.378 -1.172,1.921 -0.535,0.539 -1.184,0.95 -1.903,1.2 l -2.394,0.777 c -0.184,0.062 -0.344,0.184 -0.457,0.344 -0.11,0.16 -0.172,0.347 -0.172,0.543 0,0.195 0.062,0.386 0.172,0.547 0.113,0.16 0.273,0.281 0.457,0.343 l 2.394,0.778 c 0.727,0.242 1.391,0.652 1.93,1.195 0.543,0.547 0.949,1.207 1.192,1.937 l 0.777,2.391 c 0.066,0.184 0.183,0.344 0.344,0.457 0.16,0.109 0.351,0.172 0.546,0.172 0.196,0 0.387,-0.063 0.547,-0.172 0.161,-0.113 0.278,-0.273 0.344,-0.457 l 0.777,-2.391 c 0.243,-0.726 0.649,-1.386 1.192,-1.929 0.543,-0.539 1.203,-0.949 1.93,-1.192 l 2.394,-0.777 c 0.184,-0.062 0.344,-0.184 0.457,-0.344 0.109,-0.16 0.172,-0.347 0.172,-0.543 0,-0.195 -0.063,-0.386 -0.172,-0.547 C 71.59,32.113 71.43,31.992 71.246,31.93 Z M 42.531,7.715 C 41.059,6.777 39.324,6.25 37.504,6.25 c -3.754,0 -7.141,2.234 -8.617,5.684 L 15.574,42.992 c -0.058,0.129 -0.113,0.258 -0.168,0.391 l -5.269,12.301 c -2.039,4.757 0.164,10.269 4.922,12.308 4.761,2.039 10.269,-0.164 12.312,-4.926 l 2.922,-6.816 h 14.422 l 2.922,6.816 c 2.039,4.762 7.551,6.965 12.308,4.926 4.758,-2.039 6.965,-7.551 4.926,-12.308 L 59.598,43.379 C 59.543,43.25 59.488,43.121 59.43,42.992 L 56.918,37.129 C 56.77,37.09 56.625,37.055 56.48,37.016 56.207,36.949 55.949,36.883 55.719,36.809 54.133,36.242 52.984,34.652 53,32.965 c -0.004,-0.727 0.191,-1.438 0.562,-2.063 -0.656,0.34 -1.386,0.512 -2.124,0.5 -0.747,0 -1.461,-0.175 -2.102,-0.492 -0.93,-0.344 -1.789,-0.914 -2.586,-1.644 l 6.992,16.316 c 0.016,0.043 0.035,0.086 0.055,0.129 l 5.328,12.434 c 0.68,1.585 -0.055,3.421 -1.641,4.101 -1.586,0.68 -3.425,-0.055 -4.105,-1.641 L 48.836,50 H 26.172 l -4.547,10.605 c -0.68,1.586 -2.516,2.321 -4.105,1.641 -1.586,-0.68 -2.321,-2.516 -1.641,-4.101 l 5.328,-12.434 c 0.02,-0.043 0.039,-0.086 0.059,-0.129 L 34.453,14.809 c -0.051,-0.282 -0.078,-0.563 -0.078,-0.844 0.004,-2.082 1.328,-3.895 3.281,-4.594 L 41.844,7.996 C 42.078,7.918 42.309,7.824 42.531,7.715 Z M 28.848,43.75 H 46.156 L 37.504,23.559 Z" style="fill:currentColor;fill-opacity:1;fill-rule:nonzero;stroke:none" transform="scale(1.3333333)" /> </g>
</svg>

