<?xml version="1.0" encoding="UTF-8" standalone="no"?> <svg version="1.1" id="I6fabb89981b84bb9a18e6d1355d6ffd820251110124421" width="100" height="100" viewBox="0 0 100 100" xmlns="http://www.w3.org/2000/svg" xmlns:svg="http://www.w3.org/2000/svg"> <defs id="I435871d47a9346d8812eedcf76f6c28320251110124421" /> <g id="I30bcf534eea448de9f179e4598d8a6e820251110124421"> <path id="I7a503a6722c4444288db946b9c2de4b720251110124421" d="M 50,52.84 C 45.555,56.637 39.785,58.93 33.48,58.93 19.43,58.93 8.035,47.535 8.035,33.48 8.035,19.43 19.43,8.035 33.48,8.035 c 14.055,0 25.45,11.395 25.45,25.445 0,6.305 -2.293,12.075 -6.09,16.52 l 16.215,16.215 c 0.785,0.781 0.785,2.055 0,2.84 -0.785,0.785 -2.059,0.785 -2.84,0 z m 4.91,-19.36 c 0,-11.832 -9.594,-21.425 -21.43,-21.425 -11.832,0 -21.425,9.593 -21.425,21.425 0,11.836 9.593,21.43 21.425,21.43 11.836,0 21.43,-9.594 21.43,-21.43 z" style="fill:currentColor;fill-opacity:1;fill-rule:nonzero;stroke:none" transform="scale(1.3333333)" /> </g>
</svg>

