<?xml version="1.0" encoding="UTF-8" standalone="no"?> <svg version="1.1" id="I5ba6a3088c6449cebce7e55d0244919920251110123030" width="100" height="100" viewBox="0 0 100 100" xmlns="http://www.w3.org/2000/svg" xmlns:svg="http://www.w3.org/2000/svg"> <defs id="I3c91b8d26c4945f4b5b232e17262833720251110123030" /> <g id="If24665b8abf543aeafae3f49857f557b20251110123030"> <path id="I9f0398de62a54b899b5c78a18d9ece5920251110123030" d="m 58.594,32.812 c 3.883,0 7.031,3.149 7.031,7.032 v 2.344 h 2.344 c 3.883,0 7.031,3.148 7.031,7.031 v 18.75 C 75,71.852 71.852,75 67.969,75 H 39.844 c -3.883,0 -7.032,-3.148 -7.032,-7.031 v -18.75 c 0,-3.883 3.149,-7.031 7.032,-7.031 h 2.344 v -2.344 c 0,-3.883 3.148,-7.032 7.031,-7.032 z M 49.219,37.5 c -1.293,0 -2.344,1.051 -2.344,2.344 v 2.344 h 14.063 v -2.344 c 0,-1.293 -1.051,-2.344 -2.344,-2.344 z m -11.524,0.195 c -5.445,1.012 -9.57,5.785 -9.57,11.524 V 65.277 C 16.262,63.504 9.375,55.086 9.375,46.875 v -2.344 c 0,-3.883 3.148,-7.031 7.031,-7.031 h 21.336 c -0.012,0.066 -0.031,0.129 -0.047,0.195 z M 32.812,7.031 c 7.122,0 12.891,5.77 12.891,12.891 0,7.121 -5.769,12.89 -12.891,12.89 -7.121,0 -12.89,-5.769 -12.89,-12.89 0,-7.121 5.769,-12.891 12.89,-12.891 z" style="fill:currentColor;fill-opacity:1;fill-rule:nonzero;stroke:none" transform="scale(1.3333333)" /> </g>
</svg>

