<?xml version="1.0" encoding="UTF-8" standalone="no"?> <svg version="1.1" id="Id9322ef61aa548fd8133c4319b32402420251106170956" width="100" height="100" viewBox="0 0 100 100" xmlns="http://www.w3.org/2000/svg" xmlns:svg="http://www.w3.org/2000/svg"> <defs id="Id9713b96bff34f8ca53ba11cb3ff2a4620251106170956" /> <g id="I6bb453530b2e41479c7da294eb3b29cb20251106170956"> <path id="I7da5476e1e024a089910953798d2d92220251106170956" d="m 35.754,7.191 c -0.582,-0.304 -1.281,-0.304 -1.867,0 L 11.246,19.066 C 10.211,19.609 9.379,20.43 8.82,21.41 l 26,13.813 26.004,-13.813 c -0.558,-0.98 -1.39,-1.801 -2.429,-2.344 z M 8.035,47.543 v -22 l 25.844,13.73 c 0.59,0.313 1.297,0.313 1.887,0 l 25.839,-13.73 v 22 c 0,4.809 -3.894,8.707 -8.703,8.707 h -36.16 c -4.808,0 -8.707,-3.898 -8.707,-8.707 z m 8.067,11.383 c 1.546,2.418 4.257,4.019 7.339,4.019 h 30.801 c 7.766,0 14.063,-6.297 14.063,-14.062 v -20.09 c 0,-3.082 -1.602,-5.789 -4.016,-7.336 v 27.426 c 0,5.547 -4.5,10.043 -10.047,10.043 z" style="fill:currentColor;fill-opacity:1;fill-rule:nonzero;stroke:none" transform="scale(1.3333333)" /> </g>
</svg>

