<?xml version="1.0" encoding="UTF-8" standalone="no"?> <svg version="1.1" id="I4d331bacb5964cfeaa1207cc8109a7cb20251110135155" width="100" height="100" viewBox="0 0 100 100" xmlns="http://www.w3.org/2000/svg" xmlns:svg="http://www.w3.org/2000/svg"> <defs id="I5ec28dcebdb241b0a42dbe80cd253af520251110135155" /> <g id="I2bb51ef356c247c1b7b34d4578b8564a20251110135155"> <path id="I556cd81dba60469eb959ff1abea8280620251110135155" d="m 63.066,15.676 c 0.282,0.051 0.543,0.14 0.793,0.262 1.125,0.539 1.805,1.695 1.766,2.914 V 56.25 c 0,1.727 -1.398,3.125 -3.125,3.125 -1.727,0 -3.125,-1.398 -3.125,-3.125 V 30.035 c -1.988,1.942 -4.281,3.332 -6.824,4.18 -1.637,0.547 -3.406,-0.34 -3.953,-1.977 -0.543,-1.636 0.34,-3.406 1.976,-3.953 3.528,-1.176 6.821,-4.164 8.93,-10.43 0.109,-0.359 0.277,-0.691 0.5,-0.984 0.109,-0.148 0.234,-0.285 0.371,-0.41 0.707,-0.656 1.703,-0.969 2.691,-0.785 z M 9.375,15.625 c 1.727,0 3.125,1.398 3.125,3.125 V 34.375 H 31.25 V 18.75 c 0,-1.727 1.398,-3.125 3.125,-3.125 1.727,0 3.125,1.398 3.125,3.125 v 37.5 c 0,1.727 -1.398,3.125 -3.125,3.125 -1.727,0 -3.125,-1.398 -3.125,-3.125 V 40.625 H 12.5 V 56.25 c 0,1.727 -1.398,3.125 -3.125,3.125 -1.727,0 -3.125,-1.398 -3.125,-3.125 v -37.5 c 0,-1.727 1.398,-3.125 3.125,-3.125 z" style="fill:currentColor;fill-opacity:1;fill-rule:nonzero;stroke:none" transform="scale(1.3333333)" /> </g>
</svg>

