<?xml version="1.0" encoding="UTF-8" standalone="no"?> <svg version="1.1" id="I7f28b1e8937b425eb9db678005c2504c20251106142134" width="100" height="100" viewBox="0 0 100 100" xmlns="http://www.w3.org/2000/svg" xmlns:svg="http://www.w3.org/2000/svg"> <defs id="I6df7916e273e4dab9da06a3d444f2c1b20251106142134"> <linearGradient x1="7.1754098" y1="8.49053" x2="11.8426" y2="34.012798" gradientUnits="userSpaceOnUse" gradientTransform="scale(2.34375)" spreadMethod="pad" id="I9d759520a9f445cf8c03cc89c68e9be820251106142134"> <stop style="stop-opacity:1;stop-color:#20ac9d" offset="0" id="Ib2ee03b2f0704c82bc3d18ec614273b720251106142134" /> <stop style="stop-opacity:1;stop-color:#2052cb" offset="1" id="If500b5224a48440b85b20dc4cd46a25c20251106142134" /> </linearGradient> <linearGradient x1="24.8246" y1="8.49053" x2="20.1574" y2="34.012798" gradientUnits="userSpaceOnUse" gradientTransform="scale(2.34375)" spreadMethod="pad" id="I3547de3aba8847238e3002a99710a88720251106142134"> <stop style="stop-opacity:1;stop-color:#20ac9d" offset="0" id="I88369f2b5eae41abbf21f4e3c7b6799a20251106142134" /> <stop style="stop-opacity:1;stop-color:#2052cb" offset="1" id="I5d015e59ec9e47c79f192305db29065c20251106142134" /> </linearGradient> <linearGradient x1="2.2857101" y1="3.1538501" x2="38.977901" y2="18.9921" gradientUnits="userSpaceOnUse" gradientTransform="scale(2.34375)" spreadMethod="pad" id="I7b272481b5984a24b945098e997344a720251106142134"> <stop style="stop-opacity:1;stop-color:#b6efff" offset="0" id="I63abee4050cd4ec3945584981a8b4eb620251106142134" /> <stop style="stop-opacity:1;stop-color:#58aafe" offset="0.851323" id="I5a54fcad58ee4072b4b4881addb5825220251106142134" /> <stop style="stop-opacity:1;stop-color:#58aafe" offset="1" id="I6ef69a1251734bed9b5dfc948750113e20251106142134" /> </linearGradient> <linearGradient x1="27.25" y1="5.375" x2="-0.775123" y2="10.8849" gradientUnits="userSpaceOnUse" gradientTransform="scale(2.34375)" spreadMethod="pad" id="Ied8f6937fc6f40c7a2f9d6646d8d7fec20251106142134"> <stop style="stop-opacity:1;stop-color:#9deaff" offset="0" id="I00a74589d704426097bfd000d494064120251106142134" /> <stop style="stop-opacity:1;stop-color:#9deaff" offset="0.12337" id="I3ddf3e8c779842b0a67f5bab46eccb4d20251106142134" /> <stop style="stop-opacity:1;stop-color:#4894fe" offset="0.61551" id="Ic1de9fb3ca5d438884c82466eba9555720251106142134" /> <stop style="stop-opacity:1;stop-color:#4894fe" offset="1" id="I6c979e7c7bf24fd3affae8c70feb81c620251106142134" /> </linearGradient> <radialGradient fx="0" fy="0" cx="0" cy="0" r="1" gradientUnits="userSpaceOnUse" gradientTransform="matrix(-28.125275,-32.004189,31.790636,-27.937605,62.316094,60.9375)" spreadMethod="pad" id="I3a29fb3c281a4072a9f94d999e4773c420251106142134"> <stop style="stop-opacity:1;stop-color:#2063c3" offset="0" id="Ibf837af18cda4e08a848a13a8d192bfe20251106142134" /> <stop style="stop-opacity:1;stop-color:#2063c3" offset="0.251056" id="I11e24c407e394f45b8b846a358e682b920251106142134" /> <stop style="stop-opacity:0;stop-color:#8ad6ff" offset="0.714294" id="I30aee873c1434e02b0ac0ec91c0a0b4520251106142134" /> <stop style="stop-opacity:0;stop-color:#8ad6ff" offset="1" id="I8bab70d8fadd4cc0ac292fc9a928314920251106142134" /> </radialGradient> <radialGradient fx="0" fy="0" cx="0" cy="0" r="1" gradientUnits="userSpaceOnUse" gradientTransform="matrix(7.243605,32.213446,-39.576468,8.899275,52.420078,38.838281)" spreadMethod="pad" id="I19efa45665514fb2918c6cb2664bc3ca20251106142134"> <stop style="stop-opacity:1;stop-color:#ffe06b" offset="0" id="I622e8b17e0314f5790c02116a49ecd4f20251106142134" /> <stop style="stop-opacity:1;stop-color:#ffa43d" offset="0.376456" id="Ic8e7878dfbee4e4ba866ea0b1b0d713620251106142134" /> <stop style="stop-opacity:1;stop-color:#e67505" offset="1" id="I179bfb008bbe4a5f81fed645d2ff23dc20251106142134" /> </radialGradient> <linearGradient x1="25.499599" y1="27.5" x2="25.5" y2="31" gradientUnits="userSpaceOnUse" gradientTransform="scale(2.34375)" spreadMethod="pad" id="I12dbebf530674a83bdd39355292796a120251106142134"> <stop style="stop-opacity:1;stop-color:#d34719" offset="0" id="I3aab098b5a814ed8a67ccb0b7b5d9a0420251106142134" /> <stop style="stop-opacity:0;stop-color:#d34719" offset="1" id="Ib070f0538df24e95867928a196b19c8520251106142134" /> </linearGradient> <radialGradient fx="0" fy="0" cx="0" cy="0" r="1" gradientUnits="userSpaceOnUse" gradientTransform="matrix(8.476244,27.893528,-44.53981,13.534691,51.170625,40.687734)" spreadMethod="pad" id="I0f5a42b565834baa8dd2b29f663f799c20251106142134"> <stop style="stop-opacity:1;stop-color:#ffe06b" offset="0" id="Icb28392f308d4ecf8753545ed2e79b0520251106142134" /> <stop style="stop-opacity:1;stop-color:#ffa43d" offset="0.376456" id="I7cc56d8c4e254fed843e1dcb4ccfcb1120251106142134" /> <stop style="stop-opacity:1;stop-color:#e67505" offset="1" id="Ibb0456957d3f42509482cf9bef2fcbb520251106142134" /> </radialGradient> <linearGradient x1="25.059999" y1="27.5958" x2="26.643499" y2="29.9613" gradientUnits="userSpaceOnUse" gradientTransform="scale(2.34375)" spreadMethod="pad" id="I7a352e03290747f5acc4052dd6870aab20251106142134"> <stop style="stop-opacity:1;stop-color:#ffc7a3" offset="0" id="Ia3acd84c0b134b41923e0384f528beae20251106142134" /> <stop style="stop-opacity:1;stop-color:#ff9c70" offset="1" id="Ibf22a49dea4d4fe5b592394a41c3574420251106142134" /> </linearGradient> </defs> <g id="Ibfcfd3ade8494a75a0027e921ec9e69620251106142134"> <path id="I0efc93b7559e49e383872194ba21489e20251106142134" d="m 4.688,14.648 c 0,-2.914 2.359,-5.273 5.273,-5.273 h 18.75 c 3.574,0 6.75,1.684 8.789,4.301 L 39.844,37.5 37.5,61.324 c -2.039,2.617 -5.215,4.301 -8.789,4.301 H 9.961 c -2.914,0 -5.273,-2.359 -5.273,-5.273 z" transform="scale(1.3333333)" style="fill:url(#I9d759520a9f445cf8c03cc89c68e9be820251106142134);stroke:none" /> <path id="I160689ef190b410dae8ea345941bd29c20251106142134" d="m 65.039,9.375 c 2.914,0 5.273,2.359 5.273,5.273 V 56.25 H 58.594 v 9.375 H 46.289 c -3.574,0 -6.75,-1.684 -8.789,-4.297 L 35.156,37.5 37.5,13.672 c 2.039,-2.613 5.215,-4.297 8.789,-4.297 z" transform="scale(1.3333333)" style="fill:url(#I3547de3aba8847238e3002a99710a88720251106142134);stroke:none" /> <path id="I05e826cedd1542cf91d71bd1a472d75420251106142134" d="m 9.375,11.719 c 0,-1.293 1.051,-2.344 2.344,-2.344 h 22.265 c 1.942,0 3.516,1.574 3.516,3.516 L 38.672,32.812 37.5,52.734 c 0,4.532 -3.672,8.204 -8.203,8.204 H 11.719 c -1.293,0 -2.344,-1.051 -2.344,-2.344 z" transform="scale(1.3333333)" style="fill:url(#I7b272481b5984a24b945098e997344a720251106142134);stroke:none" /> <path id="I3aafd8a038014d949ef71b2a1a86f66d20251106142134" d="m 65.625,11.719 c 0,-1.293 -1.051,-2.344 -2.344,-2.344 H 41.016 c -1.942,0 -3.516,1.574 -3.516,3.516 v 39.843 c 0,4.532 3.672,8.204 8.203,8.204 h 17.578 c 1.293,0 2.344,-1.051 2.344,-2.344 z" transform="scale(1.3333333)" style="fill:url(#Ied8f6937fc6f40c7a2f9d6646d8d7fec20251106142134);stroke:none" /> <path d="m 65.625,11.719 c 0,-1.293 -1.051,-2.344 -2.344,-2.344 H 41.016 c -1.942,0 -3.516,1.574 -3.516,3.516 v 39.843 c 0,4.532 3.672,8.204 8.203,8.204 h 17.578 c 1.293,0 2.344,-1.051 2.344,-2.344 z" transform="scale(1.3333333)" style="fill:url(#I3a29fb3c281a4072a9f94d999e4773c420251106142134);stroke:none" opacity="1" id="Ib761712da1a6443ba9c17997679bd34920251106142134" /> <path id="I2d55d109ef9541b3b045ef1aa040c24620251106142134" d="m 65.207,68.891 c -0.437,2.187 -2.363,3.765 -4.598,3.765 h -1.687 c -2.234,0 -4.16,-1.578 -4.598,-3.765 l -0.418,-2.094 5.86,-2.344 5.859,2.344 z" transform="scale(1.3333333)" style="fill:url(#I19efa45665514fb2918c6cb2664bc3ca20251106142134);stroke:none" /> <path d="m 65.207,68.891 c -0.437,2.187 -2.363,3.765 -4.598,3.765 h -1.687 c -2.234,0 -4.16,-1.578 -4.598,-3.765 l -0.418,-2.094 5.86,-2.344 5.859,2.344 z" transform="scale(1.3333333)" style="fill:url(#I9d759520a9f445cf8c03cc89c68e9be8202511061421346);stroke:none" opacity="1" id="I942fa981c9614421b6dd0584d99b0ba420251106142134" /> <path id="I980e76f70c0049bb8370a1918756cd7b20251106142134" d="m 59.766,37.5 c 7.121,0 12.89,5.77 12.89,12.891 0,4.55 -2.359,8.543 -5.918,10.836 l -0.41,2.054 -6.562,1.172 -6.563,-1.172 -0.41,-2.054 C 49.234,58.934 46.875,54.938 46.875,50.391 46.875,43.27 52.645,37.5 59.766,37.5 Z" transform="scale(1.3333333)" style="fill:url(#I0f5a42b565834baa8dd2b29f663f799c20251106142134);stroke:none" /> <path id="Ieea64a7a45ef4edc8d8ebd8404b1508520251106142134" d="M 65.633,66.797 H 53.914 l -0.703,-3.516 h 13.125 z" transform="scale(1.3333333)" style="fill:url(#I7a352e03290747f5acc4052dd6870aab20251106142134);stroke:none" /> </g>
</svg>

