<?xml version="1.0" encoding="UTF-8" standalone="no"?> <svg version="1.1" id="Ic7b8afcecf7242dbbb9e8bb59b3a455820251110123029" width="100" height="100" viewBox="0 0 100 100" xmlns="http://www.w3.org/2000/svg" xmlns:svg="http://www.w3.org/2000/svg"> <defs id="Id8c62ab12d594616bc0119b1b4ece15820251110123029" /> <g id="I92f05dbce40346bfb650b57f27c2e7d320251110123029"> <path id="I4bc7d45da50d4ea8b0d206887bed7af520251110123029" d="m 37.5,39.844 c 1.293,0 2.344,-1.051 2.344,-2.344 0,-1.297 -1.051,-2.344 -2.344,-2.344 -1.297,0 -2.344,1.047 -2.344,2.344 0,1.293 1.047,2.344 2.344,2.344 z M 32.031,37.5 c 0,1.293 -1.051,2.344 -2.343,2.344 -1.297,0 -2.344,-1.051 -2.344,-2.344 0,-1.297 1.047,-2.344 2.344,-2.344 1.292,0 2.343,1.047 2.343,2.344 z m 13.281,2.344 c 1.293,0 2.344,-1.051 2.344,-2.344 0,-1.297 -1.051,-2.344 -2.344,-2.344 -1.296,0 -2.343,1.047 -2.343,2.344 0,1.293 1.047,2.344 2.343,2.344 z m -5.468,5.468 c 0,1.293 -1.051,2.344 -2.344,2.344 -1.297,0 -2.344,-1.051 -2.344,-2.344 0,-1.296 1.047,-2.343 2.344,-2.343 1.293,0 2.344,1.047 2.344,2.343 z M 37.5,32.031 c 1.293,0 2.344,-1.051 2.344,-2.343 0,-1.297 -1.051,-2.344 -2.344,-2.344 -1.297,0 -2.344,1.047 -2.344,2.344 0,1.292 1.047,2.343 2.344,2.343 z M 10.117,57.18 c -3.969,-3.965 -3.969,-10.395 0,-14.364 L 42.816,10.117 c 3.969,-3.969 10.399,-3.969 14.364,0 l 7.703,7.699 c 3.965,3.969 3.965,10.399 0,14.364 L 32.18,64.883 c -3.965,3.965 -10.395,3.965 -14.364,0 z M 13.43,46.133 c -2.133,2.133 -2.133,5.597 0,7.734 l 7.703,7.699 c 2.137,2.137 5.597,2.137 7.734,0 L 34.184,56.25 18.75,40.812 Z M 52.934,37.5 37.5,22.062 22.062,37.5 37.5,52.934 Z m 3.316,-3.316 5.316,-5.317 c 2.137,-2.137 2.137,-5.601 0,-7.734 L 53.867,13.43 c -2.137,-2.137 -5.597,-2.137 -7.734,0 l -5.321,5.32 z M 31.977,16.539 28.867,13.43 c -2.137,-2.133 -5.601,-2.133 -7.734,0 l -7.703,7.703 c -2.137,2.137 -2.137,5.597 0,7.734 l 3.109,3.11 -3.312,3.312 -3.11,-3.109 c -3.969,-3.965 -3.969,-10.395 0,-14.364 l 7.699,-7.699 c 3.969,-3.969 10.399,-3.969 14.364,0 l 3.109,3.11 z m 7.73,45.234 3.109,3.11 c 3.969,3.965 10.399,3.965 14.364,0 l 7.703,-7.703 c 3.965,-3.965 3.965,-10.395 0,-14.364 l -3.11,-3.105 -3.316,3.312 3.109,3.11 c 2.137,2.137 2.137,5.597 0,7.734 l -7.699,7.699 c -2.137,2.137 -5.601,2.137 -7.734,0 l -3.11,-3.105 z" style="fill:currentColor;fill-opacity:1;fill-rule:nonzero;stroke:none" transform="scale(1.3333333)" /> </g>
</svg>

