<?xml version="1.0" encoding="UTF-8" standalone="no"?> <svg version="1.1" id="Iaa763c092dcf4919bbd51777300221a320251106163938" width="100" height="100" viewBox="0 0 100 100" xmlns="http://www.w3.org/2000/svg" xmlns:svg="http://www.w3.org/2000/svg"> <defs id="Ie29e97aec15349d6b0964ee1e329186920251106163938" /> <g id="I07271bf331c54bafa59e6ce7b8895bec20251106163938"> <path id="Ieaee8710317f47b9a99ed60fc1a34fe020251106163938" d="m 9.367,16.395 c 0,-3.883 3.149,-7.032 7.031,-7.032 h 7.836 c 3.883,0 7.032,3.149 7.032,7.032 v 7.835 c 0,3.883 -3.149,7.032 -7.032,7.032 h -1.578 v 11.582 c 0.145,0.109 0.285,0.23 0.418,0.363 l 8.723,8.723 c 0.133,0.132 0.254,0.269 0.363,0.418 h 11.606 v -1.567 c 0,-3.883 3.148,-7.031 7.031,-7.031 h 7.793 c 3.883,0 7.031,3.148 7.031,7.031 v 7.828 c 0,3.883 -3.148,7.032 -7.031,7.032 h -7.793 c -3.883,0 -7.031,-3.149 -7.031,-7.032 v -1.574 h -11.61 c -0.109,0.145 -0.23,0.285 -0.359,0.418 l -8.723,8.723 c -1.523,1.527 -4,1.527 -5.523,0 L 8.824,57.453 c -1.527,-1.527 -1.527,-4 0,-5.527 l 8.727,-8.723 c 0.133,-0.133 0.273,-0.254 0.418,-0.363 V 31.262 h -1.571 c -3.882,0 -7.031,-3.149 -7.031,-7.032 z" style="fill:currentColor;fill-opacity:1;fill-rule:nonzero;stroke:none" transform="scale(1.3333333)" /> </g>
</svg>

