<?xml version="1.0" encoding="UTF-8" standalone="no"?> <svg version="1.1" id="I1dad45b52cb24e5b8fff00b1e475367a20251110124419" width="100" height="100" viewBox="0 0 100 100" xmlns="http://www.w3.org/2000/svg" xmlns:svg="http://www.w3.org/2000/svg"> <defs id="Id7224faeebea44fcac49f68fc2efe04c20251110124419" /> <g id="Ib0c611045e7d40698931d4b191ea7e7d20251110124419"> <path id="Ie7ddbb80a6264b92a362d48b3f56b97d20251110124419" d="m 64.582,32.566 c 3.887,2.137 3.887,7.723 0,9.86 L 44.965,53.207 C 44.359,42.359 35.371,33.75 24.371,33.75 c -1.949,0 -3.836,0.27 -5.625,0.777 V 16.883 c 0,-4.278 4.586,-6.988 8.336,-4.93 z m -49.34,10.34 c 1.137,4.055 -1.285,8.25 -5.363,9.293 l -1.731,0.442 c -0.054,0.57 -0.086,1.148 -0.086,1.734 0,0.703 0.043,1.398 0.126,2.078 l 1.308,0.309 c 4.199,0.992 6.695,5.312 5.461,9.445 l -0.473,1.586 c 0.965,0.762 2.012,1.418 3.129,1.945 l 1.219,-1.293 c 2.961,-3.136 7.953,-3.133 10.91,0.008 l 1.266,1.34 c 1.097,-0.504 2.129,-1.133 3.082,-1.863 l -0.586,-2.09 c -1.137,-4.055 1.285,-8.25 5.367,-9.293 l 1.727,-0.442 c 0.054,-0.566 0.082,-1.144 0.082,-1.73 0,-0.703 -0.039,-1.398 -0.121,-2.082 L 39.25,51.984 c -4.199,-0.992 -6.695,-5.312 -5.461,-9.445 l 0.473,-1.582 C 33.297,40.191 32.25,39.539 31.133,39.012 l -1.219,1.289 c -2.961,3.137 -7.953,3.133 -10.91,-0.004 l -1.266,-1.344 c -1.093,0.508 -2.129,1.133 -3.082,1.867 z m 9.129,15.219 c -2.07,0 -3.75,-1.68 -3.75,-3.75 0,-2.07 1.68,-3.75 3.75,-3.75 2.074,0 3.75,1.68 3.75,3.75 0,2.07 -1.676,3.75 -3.75,3.75 z" style="fill:currentColor;fill-opacity:1;fill-rule:nonzero;stroke:none" transform="scale(1.3333333)" /> </g>
</svg>

