<?xml version="1.0" encoding="UTF-8" standalone="no"?> <svg version="1.1" id="Ia9dd061ae070419d97da3749251488ba20251106144520" width="100" height="100" viewBox="0 0 100 100" xmlns="http://www.w3.org/2000/svg" xmlns:svg="http://www.w3.org/2000/svg"> <defs id="Ibd3245e13f0145cba31218cf9bc3cff220251106144520" /> <g id="Ifcba143ff80540d3b476c2fca3246fc620251106144520"> <path id="Ia4329620a1074c40801a98c4a4803f4820251106144520" d="M 18.75,7.5 C 12.535,7.5 7.5,12.535 7.5,18.75 v 30 C 7.5,54.965 12.535,60 18.75,60 H 34.527 C 34.184,58.793 33.949,57.539 33.836,56.25 H 18.75 c -4.141,0 -7.5,-3.359 -7.5,-7.5 v -30 c 0,-4.141 3.359,-7.5 7.5,-7.5 h 30 c 4.141,0 7.5,3.359 7.5,7.5 v 15.086 c 1.289,0.113 2.543,0.348 3.75,0.691 V 18.75 C 60,12.535 54.965,7.5 48.75,7.5 Z m 29.449,18.199 c 0.735,-0.73 0.735,-1.918 0,-2.648 -0.73,-0.735 -1.918,-0.735 -2.648,0 L 28.125,40.473 21.949,34.301 c -0.73,-0.735 -1.918,-0.735 -2.648,0 -0.735,0.73 -0.735,1.918 0,2.648 l 7.5,7.5 c 0.73,0.735 1.918,0.735 2.648,0 z M 37.5,54.375 c 0,9.32 7.555,16.875 16.875,16.875 9.32,0 16.875,-7.555 16.875,-16.875 C 71.25,45.055 63.695,37.5 54.375,37.5 45.055,37.5 37.5,45.055 37.5,54.375 Z m 24.375,-11.25 c 1.035,0 1.875,0.84 1.875,1.875 v 5.625 c 0,1.035 -0.84,1.875 -1.875,1.875 H 56.25 c -1.035,0 -1.875,-0.84 -1.875,-1.875 0,-1.035 0.84,-1.875 1.875,-1.875 h 1.754 c -0.188,-0.105 -0.379,-0.199 -0.578,-0.289 -0.922,-0.41 -1.914,-0.629 -2.918,-0.649 -1.008,-0.015 -2.008,0.168 -2.942,0.547 -0.933,0.375 -1.781,0.938 -2.496,1.649 -0.73,0.734 -1.918,0.734 -2.652,0 -0.73,-0.731 -0.73,-1.918 0,-2.649 1.07,-1.07 2.344,-1.91 3.742,-2.476 1.402,-0.567 2.902,-0.844 4.41,-0.821 1.512,0.028 3,0.36 4.379,0.973 0.363,0.16 0.711,0.34 1.051,0.535 L 60,45 c 0,-1.035 0.84,-1.875 1.875,-1.875 z M 58.59,63.867 c -1.402,0.567 -2.902,0.844 -4.41,0.821 -1.512,-0.028 -3,-0.36 -4.379,-0.973 -0.363,-0.16 -0.711,-0.34 -1.051,-0.535 v 0.57 c 0,1.035 -0.84,1.875 -1.875,1.875 C 45.84,65.625 45,64.785 45,63.75 V 58.125 C 45,57.09 45.84,56.25 46.875,56.25 H 52.5 c 1.035,0 1.875,0.84 1.875,1.875 0,1.035 -0.84,1.875 -1.875,1.875 h -1.754 c 0.188,0.105 0.379,0.199 0.578,0.289 0.922,0.41 1.914,0.629 2.918,0.649 1.008,0.015 2.008,-0.168 2.942,-0.547 0.933,-0.375 1.781,-0.938 2.496,-1.649 0.73,-0.734 1.918,-0.734 2.652,0 0.73,0.731 0.73,1.918 0,2.649 -1.07,1.07 -2.344,1.91 -3.742,2.476 z" style="fill:currentColor;fill-opacity:1;fill-rule:nonzero;stroke:none" transform="scale(1.3333333)" /> </g>
</svg>

