<?xml version="1.0" encoding="UTF-8" standalone="no"?> <svg version="1.1" id="Ice2f197d6367469d86d8837a405db9f520251110124421" width="100" height="100" viewBox="0 0 100 100" xmlns="http://www.w3.org/2000/svg" xmlns:svg="http://www.w3.org/2000/svg"> <defs id="I17f79d3c4ecf4f27a0a723eb91d8b26120251110124421" /> <g id="I55557c73258448e1a8456f1841ee502020251110124421"> <path id="Iffa73244dca64f968e2851ccf46b0b8620251110124421" d="m 59.004,20.809 c 1,0.671 2.203,1.066 3.496,1.066 0.223,0 0.445,-0.012 0.664,-0.035 3.141,-0.332 5.586,-2.988 5.586,-6.215 0,-3.453 -2.797,-6.25 -6.25,-6.25 -2.621,0 -4.867,1.617 -5.797,3.906 -0.023,0.063 -0.051,0.129 -0.074,0.196 -0.246,0.668 -0.379,1.394 -0.379,2.148 0,0.828 0.16,1.621 0.453,2.344 0.414,1.023 1.094,1.914 1.953,2.582 0.114,0.09 0.231,0.176 0.348,0.258 z M 6.25,59.375 c 0,3.453 2.797,6.25 6.25,6.25 2.621,0 4.867,-1.617 5.797,-3.906 0.293,-0.723 0.453,-1.516 0.453,-2.344 0,-0.754 -0.133,-1.48 -0.379,-2.148 -0.023,-0.067 -0.051,-0.133 -0.074,-0.196 -0.414,-1.023 -1.094,-1.914 -1.949,-2.582 -1.063,-0.832 -2.399,-1.324 -3.848,-1.324 -0.215,0 -0.43,0.012 -0.641,0.031 C 8.711,53.477 6.25,56.141 6.25,59.375 Z M 21.504,20.809 c 1,0.671 2.203,1.066 3.496,1.066 0.223,0 0.445,-0.012 0.664,-0.035 2.332,-0.246 4.285,-1.778 5.133,-3.871 0.023,-0.063 0.051,-0.129 0.074,-0.196 0.246,-0.668 0.379,-1.394 0.379,-2.148 0,-0.828 -0.16,-1.621 -0.453,-2.344 C 29.867,10.992 27.621,9.375 25,9.375 c -3.453,0 -6.25,2.797 -6.25,6.25 0,2 0.941,3.785 2.406,4.926 0.114,0.09 0.231,0.176 0.348,0.258 z m -8.762,29.195 7.512,-26.293 c 1.328,0.781 2.863,1.246 4.508,1.285 L 17.25,51.289 C 15.922,50.508 14.383,50.043 12.742,50.004 Z M 53.422,17.969 H 34.078 c 0.195,-0.75 0.297,-1.535 0.297,-2.344 0,-0.809 -0.102,-1.594 -0.297,-2.344 h 19.344 c -0.195,0.75 -0.297,1.535 -0.297,2.344 0,0.809 0.102,1.594 0.297,2.344 z M 36.004,61.176 c 0.375,-1.504 1.051,-2.914 1.98,-4.145 H 21.578 c 0.195,0.75 0.297,1.535 0.297,2.344 0,0.809 -0.102,1.594 -0.297,2.344 h 14.289 z m 26.258,-36.18 -3.16,11.063 c -0.575,0.379 -1.122,0.82 -1.625,1.324 l -5.082,5.082 5.359,-18.754 c 1.328,0.781 2.863,1.246 4.508,1.285 z M 59.688,39.594 41.242,58.039 c -1.074,1.074 -1.84,2.422 -2.207,3.899 l -1.43,5.718 c -0.621,2.489 1.629,4.742 4.118,4.121 l 5.722,-1.433 c 1.477,-0.367 2.825,-1.129 3.899,-2.207 L 69.789,49.695 c 2.789,-2.793 2.789,-7.312 0,-10.101 -2.789,-2.793 -7.312,-2.793 -10.101,0 z" style="fill:currentColor;fill-opacity:1;fill-rule:nonzero;stroke:none" transform="scale(1.3333333)" /> </g>
</svg>

