<?xml version="1.0" encoding="UTF-8" standalone="no"?> <svg version="1.1" id="I8559c785f9274438bec5f8271c8084ae20251106154011" width="100" height="100" viewBox="0 0 100 100" xmlns="http://www.w3.org/2000/svg" xmlns:svg="http://www.w3.org/2000/svg"> <defs id="I0353f4a749fb428b9f2a084f54b3028720251106154011" /> <g id="I2ca9b891066449bd8735c25243fc72da20251106154011"> <path id="Ifff579ffefcf40ce9b92c147c0bf63b220251106154011" d="m 12.891,9.961 c 0,-1.617 -1.313,-2.93 -2.93,-2.93 -1.617,0 -2.93,1.313 -2.93,2.93 v 48.047 c 0,5.5 4.461,9.961 9.961,9.961 h 48.047 c 1.617,0 2.93,-1.313 2.93,-2.93 0,-1.617 -1.313,-2.93 -2.93,-2.93 H 16.992 c -2.265,0 -4.101,-1.836 -4.101,-4.101 z m 4.101,48.633 h 43.946 v -37.5 c 0,-0.887 -0.5,-1.699 -1.297,-2.098 -0.793,-0.394 -1.743,-0.308 -2.453,0.223 l -17.59,13.195 -12.77,-6.387 c -0.617,-0.308 -1.336,-0.328 -1.969,-0.054 l -8.453,3.621 v 28.414 c 0,0.324 0.262,0.586 0.586,0.586 z" style="fill:currentColor;fill-opacity:1;fill-rule:nonzero;stroke:none" transform="scale(1.3333333)" /> </g>
</svg>

