<?xml version="1.0" encoding="UTF-8" standalone="no"?> <svg version="1.1" id="I3d5924efe8914151a6c9e8d51e3d864d20251106170956" width="100" height="100" viewBox="0 0 100 100" xmlns="http://www.w3.org/2000/svg" xmlns:svg="http://www.w3.org/2000/svg"> <defs id="I9f2cf3b9be8f479ba37da30a3c74f7af20251106170956"> <linearGradient x1="17.5" y1="10.5" x2="23.167999" y2="23.700899" gradientUnits="userSpaceOnUse" gradientTransform="scale(2.678571)" spreadMethod="pad" id="I93ef63db14334c8694d98c291fb2877120251106170956"> <stop style="stop-opacity:0;stop-color:#0094f0" offset="0" id="I97732b335c114efca53188d4c827ce1920251106170956" /> <stop style="stop-opacity:0;stop-color:#0094f0" offset="0.19865" id="I816cc5acefe3444bb739a73240f0927d20251106170956" /> <stop style="stop-opacity:1;stop-color:#0094f0" offset="0.430619" id="Ifd340d5fedc54159a829ea84ebcff1a420251106170956" /> <stop style="stop-opacity:1;stop-color:#0094f0" offset="1" id="Ifc21f9abf5cf448d97192cb6d2edb13820251106170956" /> </linearGradient> <linearGradient x1="10.5741" y1="10.0263" x2="4.5497599" y2="24.153999" gradientUnits="userSpaceOnUse" gradientTransform="scale(2.678571)" spreadMethod="pad" id="Ifd84a8a093a94589aa862f6a2976c3c220251106170956"> <stop style="stop-opacity:0;stop-color:#0094f0" offset="0" id="I342675d80ed74d4daa5472da5e4e695120251106170956" /> <stop style="stop-opacity:0;stop-color:#0094f0" offset="0.191319" id="Ia6d959faa1fd4d4a8d1921d16181236220251106170956" /> <stop style="stop-opacity:1;stop-color:#0094f0" offset="0.430619" id="I97b029ff23cd4dbfbd057b55f56e155620251106170956" /> <stop style="stop-opacity:1;stop-color:#0094f0" offset="1" id="If01db90898b34ca8980f8066ecc78b5220251106170956" /> </linearGradient> <linearGradient x1="20.329399" y1="17.150499" x2="21.3055" y2="24.3447" gradientUnits="userSpaceOnUse" gradientTransform="scale(2.678571)" spreadMethod="pad" id="Idd5c06878afe4582b9f8d00eb6ca6a1e20251106170956"> <stop style="stop-opacity:0;stop-color:#2764e7" offset="0" id="I5870585129844d979ef347c2ba31601020251106170956" /> <stop style="stop-opacity:0.75001144;stop-color:#2764e7" offset="1" id="I568cf33c26854ae697f6ab21fd378cf520251106170956" /> </linearGradient> <linearGradient x1="17.716" y1="10.2807" x2="19.496401" y2="24.921301" gradientUnits="userSpaceOnUse" gradientTransform="scale(2.678571)" spreadMethod="pad" id="I1a71d976c61d452f9f674a1928dfdb9a20251106170956"> <stop style="stop-opacity:0;stop-color:#ff6ce8" offset="0" id="I19a2c737a7ae466081289b103018948020251106170956" /> <stop style="stop-opacity:0;stop-color:#ff6ce8" offset="0.53288" id="I3729af183cd84e55ad824f246c57b36820251106170956" /> <stop style="stop-opacity:0.70000763;stop-color:#ff6ce8" offset="1" id="I5a4c49b20e494fa08b388261e2965f1c20251106170956" /> </linearGradient> <linearGradient x1="9.1328297" y1="0.55464703" x2="16.476601" y2="19.789101" gradientUnits="userSpaceOnUse" gradientTransform="scale(2.678571)" spreadMethod="pad" id="Ib53228b5304a4f46b2361bb944245d1920251106170956"> <stop style="stop-opacity:1;stop-color:#6ce0ff" offset="0" id="I3bdf6a3ea0d54405926cf6759362741e20251106170956" /> <stop style="stop-opacity:1;stop-color:#29c3ff" offset="0.461792" id="Icf843ac512bb4a94bf6af3823579916220251106170956" /> <stop style="stop-opacity:1;stop-color:#4894fe" offset="1" id="Ia5a1e75c5a1e4e0e9e57c858187377de20251106170956" /> </linearGradient> <radialGradient fx="0" fy="0" cx="0" cy="0" r="1" gradientUnits="userSpaceOnUse" gradientTransform="matrix(0,8.035714,-9.458705,0,54.910714,32.142857)" spreadMethod="pad" id="I1aecf2ec8e9a45b88ccf17157c75f97120251106170956"> <stop style="stop-opacity:0.29999237;stop-color:#4a43cb" offset="0" id="Ieb673a0b7bf1423184c3f42d5953471d20251106170956" /> <stop style="stop-opacity:0.29999237;stop-color:#4a43cb" offset="0.535" id="I2cc2e43a7e6d41b38f49289f5e2f022d20251106170956" /> <stop style="stop-opacity:0;stop-color:#4a43cb" offset="1" id="I3f8b18ddcc3c4463a2ab9371140397df20251106170956" /> </radialGradient> <radialGradient fx="0" fy="0" cx="0" cy="0" r="1" gradientUnits="userSpaceOnUse" gradientTransform="matrix(0,5.357143,-19.963714,0,54.910714,28.125)" spreadMethod="pad" id="Ib414c71be98a4657b30cf1a72e0ad5ad20251106170956"> <stop style="stop-opacity:0.29999237;stop-color:#4a43cb" offset="0" id="I62c22259310d4c75bc206e58a18c37d020251106170956" /> <stop style="stop-opacity:0.29999237;stop-color:#4a43cb" offset="0.5" id="I79281581abf74053bc1ed5c013470fa920251106170956" /> <stop style="stop-opacity:0;stop-color:#4a43cb" offset="1" id="I0948c1e4fb8a485497773dc4e72165e720251106170956" /> </radialGradient> <radialGradient fx="0" fy="0" cx="0" cy="0" r="1" gradientUnits="userSpaceOnUse" gradientTransform="matrix(2.678565,2.678565,-4.017856,4.017856,41.517857,25.446429)" spreadMethod="pad" id="I711c49ad0da14874a70ea3e506067f7c20251106170956"> <stop style="stop-opacity:0.29999237;stop-color:#4a43cb" offset="0" id="I7ee800185e54429a9d08793988a3b7a320251106170956" /> <stop style="stop-opacity:0;stop-color:#4a43cb" offset="1" id="I0be7e12bcf5e4ef6949957b90c51009720251106170956" /> </radialGradient> <radialGradient fx="0" fy="0" cx="0" cy="0" r="1" gradientUnits="userSpaceOnUse" gradientTransform="matrix(0,21.428571,-16.908482,0,54.910714,14.732143)" spreadMethod="pad" id="I1b28c3e1c10a4d5ba982b534c5cbbc2620251106170956"> <stop style="stop-opacity:0.29999237;stop-color:#4a43cb" offset="0" id="I1acc3e2361044ba4bb59bab4cc64f9ad20251106170956" /> <stop style="stop-opacity:0.29999237;stop-color:#4a43cb" offset="0.535" id="Ida34ae5918ad4734a21b2c95a19db40220251106170956" /> <stop style="stop-opacity:0;stop-color:#4a43cb" offset="1" id="I588d82bd939a42e084ee5d6cc6552f2820251106170956" /> </radialGradient> <linearGradient x1="20.5194" y1="10.4994" x2="20.5194" y2="13.9994" gradientUnits="userSpaceOnUse" gradientTransform="scale(2.678571)" spreadMethod="pad" id="I38587723dd054b0398422a694354dc6220251106170956"> <stop style="stop-opacity:1;stop-color:#eb4824" offset="0" id="Iafbb1a2a374c4ea581a5529e53950e3520251106170956" /> <stop style="stop-opacity:0.98823529;stop-color:#ffcd0f" offset="1" id="I23c0d06846a343d9895bef714566a07020251106170956" /> </linearGradient> <linearGradient x1="27.014601" y1="10.9961" x2="17.3424" y2="0.71337098" gradientUnits="userSpaceOnUse" gradientTransform="scale(2.678571)" spreadMethod="pad" id="I04f5af56378249fdadd05a3e5cae045520251106170956"> <stop style="stop-opacity:1;stop-color:#ff6f47" offset="0" id="Ia913aa5c76d642da97d7355410aad91220251106170956" /> <stop style="stop-opacity:1;stop-color:#ffcd0f" offset="1" id="I0344b55b1bfc48d7986600996c8661fa20251106170956" /> </linearGradient> </defs> <g id="I9d0eeab8f4d14b61b3858cce3bbf749320251106170956"> <path id="I688fb53858da4ae09212042b56365b6820251106170956" d="M 65.625,24.828 38.414,38.762 c -0.574,0.297 -1.254,0.297 -1.832,0 L 5.367,22.777 v 28.785 c 0,5.547 4.496,10.043 10.047,10.043 h 44.184 c 5.55,0 10.047,-4.496 10.047,-10.043 V 25.445 h -4.02 z" style="fill:#367af2;fill-opacity:1;fill-rule:nonzero;stroke:none" transform="scale(1.3333333)" /> <path d="M 65.625,24.828 38.414,38.762 c -0.574,0.297 -1.254,0.297 -1.832,0 L 5.367,22.777 v 28.785 c 0,5.547 4.496,10.043 10.047,10.043 h 44.184 c 5.55,0 10.047,-4.496 10.047,-10.043 V 25.445 h -4.02 z" transform="scale(1.3333333)" style="fill:url(#I93ef63db14334c8694d98c291fb2877120251106170956);stroke:none" opacity="1" id="Iccac28372df2433eafd146c2088f509520251106170956" /> <path d="M 65.625,24.828 38.414,38.762 c -0.574,0.297 -1.254,0.297 -1.832,0 L 5.367,22.777 v 28.785 c 0,5.547 4.496,10.043 10.047,10.043 h 44.184 c 5.55,0 10.047,-4.496 10.047,-10.043 V 25.445 h -4.02 z" transform="scale(1.3333333)" style="fill:url(#Ifd84a8a093a94589aa862f6a2976c3c220251106170956);stroke:none" opacity="1" id="I4cbdc67239114a39bc536ccfe4b3b1c820251106170956" /> <path d="M 65.625,24.828 38.414,38.762 c -0.574,0.297 -1.254,0.297 -1.832,0 L 5.367,22.777 v 28.785 c 0,5.547 4.496,10.043 10.047,10.043 h 44.184 c 5.55,0 10.047,-4.496 10.047,-10.043 V 25.445 h -4.02 z" transform="scale(1.3333333)" style="fill:url(#Idd5c06878afe4582b9f8d00eb6ca6a1e20251106170956);stroke:none" opacity="1" id="I73cf6357e1e848418c8742576d68e97e20251106170956" /> <path d="M 65.625,24.828 38.414,38.762 c -0.574,0.297 -1.254,0.297 -1.832,0 L 5.367,22.777 v 28.785 c 0,5.547 4.496,10.043 10.047,10.043 h 44.184 c 5.55,0 10.047,-4.496 10.047,-10.043 V 25.445 h -4.02 z" transform="scale(1.3333333)" style="fill:url(#I1a71d976c61d452f9f674a1928dfdb9a20251106170956);stroke:none" opacity="1" id="Ifa16b9a987314bf7a3e40f0fabe799cd20251106170956" /> <path id="I0b92e3ab99e8495585efeaa7b1656f5220251106170956" d="m 65.625,12.723 c -1.68,-1.262 -3.766,-2.008 -6.027,-2.008 H 15.414 c -5.551,0 -10.047,4.496 -10.047,10.043 v 3.222 l 31.215,15.989 c 0.578,0.293 1.258,0.293 1.832,0 L 66.77,25.445 h -1.145 z" transform="scale(1.3333333)" style="fill:url(#Ib53228b5304a4f46b2361bb944245d1920251106170956);stroke:none" /> <path d="m 65.625,12.723 c -1.68,-1.262 -3.766,-2.008 -6.027,-2.008 H 15.414 c -5.551,0 -10.047,4.496 -10.047,10.043 v 30.804 c 0,5.547 4.496,10.043 10.047,10.043 h 44.184 c 5.55,0 10.047,-4.496 10.047,-10.043 V 25.445 h -4.02 z" transform="scale(1.3333333)" style="fill:url(#I1aecf2ec8e9a45b88ccf17157c75f97120251106170956);stroke:none" opacity="1" id="I82cfc2d7c5ee4ee2ad543de5c60f6d8720251106170956" /> <path d="m 65.625,12.723 c -1.68,-1.262 -3.766,-2.008 -6.027,-2.008 H 15.414 c -5.551,0 -10.047,4.496 -10.047,10.043 v 30.804 c 0,5.547 4.496,10.043 10.047,10.043 h 44.184 c 5.55,0 10.047,-4.496 10.047,-10.043 V 25.445 h -4.02 z" transform="scale(1.3333333)" style="fill:url(#Ib414c71be98a4657b30cf1a72e0ad5ad20251106170956);stroke:none" opacity="1" id="I032bae5bb2a540b1bdfd27801c76a70920251106170956" /> <path d="m 65.625,12.723 c -1.68,-1.262 -3.766,-2.008 -6.027,-2.008 H 15.414 c -5.551,0 -10.047,4.496 -10.047,10.043 v 30.804 c 0,5.547 4.496,10.043 10.047,10.043 h 44.184 c 5.55,0 10.047,-4.496 10.047,-10.043 V 25.445 h -4.02 z" transform="scale(1.3333333)" style="fill:url(#I711c49ad0da14874a70ea3e506067f7c20251106170956);stroke:none" opacity="1" id="Id9e4f1d4a6df43cca68c291c887873a220251106170956" /> <path d="m 65.625,12.723 c -1.68,-1.262 -3.766,-2.008 -6.027,-2.008 H 15.414 c -5.551,0 -10.047,4.496 -10.047,10.043 v 30.804 c 0,5.547 4.496,10.043 10.047,10.043 h 44.184 c 5.55,0 10.047,-4.496 10.047,-10.043 V 25.445 h -4.02 z" transform="scale(1.3333333)" style="fill:url(#I1b28c3e1c10a4d5ba982b534c5cbbc2620251106170956);stroke:none" opacity="1" id="Icf23fb7d9324416b81702ceef824d5a220251106170956" /> <path d="m 62.945,29.465 c 0,4.437 -3.597,8.035 -8.035,8.035 -4.437,0 -8.035,-3.598 -8.035,-8.035 0,-4.438 3.598,-8.035 8.035,-8.035 4.438,0 8.035,3.597 8.035,8.035 z" transform="scale(1.3333333)" style="fill:url(#I38587723dd054b0398422a694354dc6220251106170956);stroke:none" opacity="1" id="I4c9167e716bc42f7ac68b85a081ffa4520251106170956" /> <path id="Id14b91cecef94f38b39677ada7bb71de20251106170956" d="m 54.906,2.68 c -6.656,0 -12.054,5.394 -12.054,12.05 v 6.7 l -4.336,5.023 c -0.582,0.672 -0.871,1.008 -0.957,1.274 -0.2,0.652 0.121,1.351 0.746,1.625 0.254,0.113 0.699,0.113 1.59,0.113 h 30.023 c 0.887,0 1.332,0 1.59,-0.113 0.625,-0.274 0.945,-0.973 0.742,-1.625 -0.082,-0.266 -0.371,-0.602 -0.953,-1.274 L 66.961,21.43 v -6.7 C 66.961,8.074 61.562,2.68 54.906,2.68 Z" transform="scale(1.3333333)" style="fill:url(#I04f5af56378249fdadd05a3e5cae045520251106170956);stroke:none" /> </g>
</svg>

