<?xml version="1.0" encoding="UTF-8" standalone="no"?> <svg version="1.1" id="Ib18e9188b7734d65a2b9eaacedc9bea620251106170411" width="100" height="100" viewBox="0 0 100 100" xmlns="http://www.w3.org/2000/svg" xmlns:svg="http://www.w3.org/2000/svg"> <defs id="Ia02f4303ad324b0184e33da2a24deb0620251106170411" /> <g id="I289bcdc7ac7843bda0034efa059d0ef520251106170411"> <path id="I4ef615267fcc4832af6eb5175b4ff19d20251106170411" d="m 41.629,8.137 c -2.184,-2.516 -6.082,-2.516 -8.262,0 L 7.598,37.836 c -3.071,3.539 -0.555,9.051 4.132,9.051 h 10.145 v 7.023 c 0,3.02 2.445,5.469 5.469,5.469 h 20.312 c 3.02,0 5.469,-2.449 5.469,-5.469 v -7.023 h 10.137 c 4.687,0 7.203,-5.512 4.133,-9.051 z m -17.41,55.925 c -1.293,0 -2.344,1.051 -2.344,2.344 0,1.293 1.051,2.344 2.344,2.344 h 26.562 c 1.293,0 2.344,-1.051 2.344,-2.344 0,-1.293 -1.051,-2.344 -2.344,-2.344 z" style="fill:currentColor;fill-opacity:1;fill-rule:nonzero;stroke:none" transform="scale(1.3333333)" /> </g>
</svg>

