<?xml version="1.0" encoding="UTF-8" standalone="no"?> <svg version="1.1" id="I2662a708142d4ee88ac43188f4d4b2d220251110124420" width="100" height="100" viewBox="0 0 100 100" xmlns="http://www.w3.org/2000/svg" xmlns:svg="http://www.w3.org/2000/svg"> <defs id="Iec19fa263a3e43a6a03a1eb92d46ac5720251110124420" /> <g id="Ifdfe567e294543a18444dda6aa790c8520251110124420"> <path id="Ic3deec45be1040acb28b78ffc0c3da9d20251110124420" d="m 19.531,9.375 c -5.609,0 -10.156,4.547 -10.156,10.156 v 35.938 c 0,5.609 4.547,10.156 10.156,10.156 h 35.938 c 5.609,0 10.156,-4.547 10.156,-10.156 V 19.531 c 0,-5.609 -4.547,-10.156 -10.156,-10.156 z m 1.563,14.063 c -1.266,0 -2.344,-0.993 -2.344,-2.258 v -0.168 c 0,-1.231 0.953,-2.254 2.184,-2.262 h 0.16 c 19.418,0 35.156,15.738 35.156,35.156 v 0.16 c -0.008,1.231 -1.031,2.184 -2.262,2.184 H 53.82 c -1.265,0 -2.258,-1.078 -2.258,-2.344 0,-16.828 -13.64,-30.468 -30.468,-30.468 z M 41.543,56.25 h -0.281 c -1.246,0 -2.2,-1.098 -2.2,-2.344 0,-9.922 -8.042,-17.968 -17.968,-17.968 -1.246,0 -2.344,-0.954 -2.344,-2.2 v -0.281 c 0,-1.187 0.898,-2.191 2.082,-2.207 0.086,0 0.176,0 0.262,0 12.511,0 22.656,10.145 22.656,22.656 0,0.086 0,0.176 0,0.262 -0.016,1.184 -1.02,2.082 -2.207,2.082 z m -18.105,0 c -2.59,0 -4.688,-2.098 -4.688,-4.688 0,-2.589 2.098,-4.687 4.688,-4.687 2.589,0 4.687,2.098 4.687,4.687 0,2.59 -2.098,4.688 -4.687,4.688 z" style="fill:currentColor;fill-opacity:1;fill-rule:nonzero;stroke:none" transform="scale(1.3333333)" /> </g>
</svg>

