<?xml version="1.0" encoding="UTF-8" standalone="no"?> <svg version="1.1" id="Ic8df845bb5ca4e8b87aa52e1c1143f9b20251106163938" width="100" height="100" viewBox="0 0 100 100" xmlns="http://www.w3.org/2000/svg" xmlns:svg="http://www.w3.org/2000/svg"> <defs id="I3af535041654401bab874845884c59cf20251106163938" /> <g id="I1249a266269e44ec805cd71f611845c620251106163938"> <path id="I9254875dbbb04a76b331184d230ef87920251106163938" d="m 9.379,17.902 c 0.004,0.059 0.008,0.118 0.008,0.18 v 6.023 h 15.851 c 0.887,0 1.739,-0.351 2.367,-0.98 l 5.043,-5.043 -5.043,-5.047 c -0.628,-0.629 -1.48,-0.98 -2.367,-0.98 h -9.836 c -3.269,0 -5.929,2.601 -6.023,5.847 z M 5.367,26.32 C 5.359,26.254 5.355,26.184 5.355,26.117 v -8.035 c 0,-5.551 4.5,-10.047 10.047,-10.047 h 9.836 c 1.953,0 3.824,0.777 5.207,2.156 l 5.879,5.879 h 23.274 c 5.55,0 10.047,4.5 10.047,10.047 v 28.125 c 0,5.547 -4.497,10.043 -10.047,10.043 H 15.414 C 9.863,64.285 5.367,59.789 5.367,54.242 Z m 4.02,1.805 v 26.117 c 0,3.328 2.695,6.028 6.027,6.028 h 44.184 c 3.332,0 6.027,-2.7 6.027,-6.028 V 26.117 c 0,-3.328 -2.695,-6.027 -6.027,-6.027 H 36.324 l -5.879,5.879 c -1.383,1.379 -3.254,2.156 -5.207,2.156 z" style="fill:currentColor;fill-opacity:1;fill-rule:nonzero;stroke:none" transform="scale(1.3333333)" /> </g>
</svg>

