<?xml version="1.0" encoding="UTF-8" standalone="no"?>
<!-- Created with Inkscape (http://www.inkscape.org/) -->

<svg
   version="1.1"
   id="Id142565e19f34201a00d38529789fd1920251103104211"
   width="100"
   height="100"
   viewBox="0 0 100 100"
   sodipodi:docname="output.ai"
   xmlns:inkscape="http://www.inkscape.org/namespaces/inkscape"
   xmlns:sodipodi="http://sodipodi.sourceforge.net/DTD/sodipodi-0.dtd"
   xmlns="http://www.w3.org/2000/svg"
   xmlns:svg="http://www.w3.org/2000/svg">
  <defs
     id="Ide18a4a83091447f93f4a00614ab479f20251103104211" />
  <sodipodi:namedview
     id="Id28540df91cc466896f819a1e37ac99d20251103104211"
     pagecolor="#ffffff"
     bordercolor="#000000"
     borderopacity="0.25"
     inkscape:showpageshadow="2"
     inkscape:pageopacity="0.0"
     inkscape:pagecheckerboard="0"
     inkscape:deskcolor="#d1d1d1">
    <inkscape:page
       x="0"
       y="0"
       inkscape:label="1"
       id="Iaffad18f1eec4770aedc90491dc9c9c020251103104211"
       width="100"
       height="100"
       margin="0"
       bleed="0" />
  </sodipodi:namedview>
  <g
     id="Iacb32d8993c04947b808979be5e523cf20251103104211"
     inkscape:groupmode="layer"
     inkscape:label="1">
    <path
       id="I527e4d8f6deb49208a8b1439fa403e3d20251103104211"
       d="m 7.367,35.492 h 20.699 c 0.059,0.067 0.125,0.137 0.192,0.203 l 1.804,1.805 -1.804,1.805 c -0.067,0.066 -0.133,0.136 -0.192,0.203 H 7.367 c -1.109,0 -2.012,-0.899 -2.012,-2.008 0,-1.109 0.903,-2.008 2.012,-2.008 z m 38.707,0.203 c 0.067,-0.066 0.129,-0.136 0.192,-0.203 h 21.367 c 1.109,0 2.012,0.899 2.012,2.008 0,1.109 -0.903,2.008 -2.012,2.008 H 46.266 C 46.203,39.441 46.141,39.371 46.074,39.305 L 44.27,37.5 Z M 33.562,30.723 c -0.785,-0.785 -2.054,-0.785 -2.839,0 -0.785,0.785 -0.785,2.054 0,2.839 l 3.937,3.938 -3.937,3.938 c -0.785,0.785 -0.785,2.054 0,2.839 0.785,0.785 2.054,0.785 2.839,0 l 3.938,-3.937 3.938,3.937 c 0.785,0.785 2.054,0.785 2.839,0 0.785,-0.785 0.785,-2.054 0,-2.839 L 40.34,37.5 44.277,33.562 c 0.785,-0.785 0.785,-2.054 0,-2.839 -0.785,-0.785 -2.054,-0.785 -2.839,0 L 37.5,34.66 Z m 33.403,-20.68 c 0,-1.109 -0.899,-2.008 -2.008,-2.008 -1.109,0 -2.012,0.899 -2.012,2.008 v 4.019 c 0,3.329 -2.699,6.028 -6.027,6.028 H 49.555 V 10.043 c 0,-1.109 -0.903,-2.008 -2.012,-2.008 -1.109,0 -2.008,0.899 -2.008,2.008 V 20.09 H 29.465 V 10.043 c 0,-1.109 -0.899,-2.008 -2.008,-2.008 -1.109,0 -2.012,0.899 -2.012,2.008 V 20.09 h -7.363 c -3.332,0 -6.027,-2.699 -6.027,-6.028 v -4.019 c 0,-1.109 -0.903,-2.008 -2.012,-2.008 -1.109,0 -2.008,0.899 -2.008,2.008 v 4.019 c 0,5.547 4.496,10.043 10.047,10.043 h 38.836 c 5.551,0 10.047,-4.496 10.047,-10.043 z m 0,50.895 c 0,-5.547 -4.496,-10.043 -10.047,-10.043 H 18.082 c -5.551,0 -10.047,4.496 -10.047,10.043 v 6.695 c 0,1.109 0.899,2.012 2.008,2.012 1.109,0 2.012,-0.903 2.012,-2.012 v -6.695 c 0,-3.329 2.695,-6.028 6.027,-6.028 h 7.363 v 12.723 c 0,1.109 0.903,2.012 2.012,2.012 1.109,0 2.008,-0.903 2.008,-2.012 V 54.91 h 16.07 v 12.723 c 0,1.109 0.899,2.012 2.008,2.012 1.109,0 2.012,-0.903 2.012,-2.012 V 54.91 h 7.363 c 3.328,0 6.027,2.699 6.027,6.028 v 6.695 c 0,1.109 0.903,2.012 2.012,2.012 1.109,0 2.008,-0.903 2.008,-2.012 z"
       style="fill:#212121;fill-opacity:1;fill-rule:nonzero;stroke:none"
       transform="scale(1.3333333)" />
  </g>
</svg>





