<?xml version="1.0" encoding="UTF-8" standalone="no"?> <svg version="1.1" id="I2405d35fe224493b92fdf44e00392c2120251106154012" width="100" height="100" viewBox="0 0 100 100" xmlns="http://www.w3.org/2000/svg" xmlns:svg="http://www.w3.org/2000/svg"> <defs id="Ic8c5e734d76a44d1b6939b795f13289d20251106154012" /> <g id="I5684bc71a63f4e64859ddcd86a64a94520251106154012"> <path id="Ia58353f846854bbfb5d818926662c07720251106154012" d="M 8.301,44.602 C 4.375,40.68 4.375,34.32 8.301,30.398 L 30.398,8.301 c 3.922,-3.926 10.282,-3.926 14.204,0 l 22.097,22.097 c 3.922,3.922 3.922,10.282 0,14.204 L 44.602,66.699 c -3.922,3.922 -10.282,3.922 -14.204,0 z m 2.84,-11.364 c -2.356,2.352 -2.356,6.168 0,8.524 l 22.097,22.097 c 2.352,2.352 6.168,2.352 8.524,0 L 63.859,41.762 c 2.352,-2.356 2.352,-6.172 0,-8.524 L 41.762,11.141 c -2.356,-2.356 -6.172,-2.356 -8.524,0 z" style="fill:currentColor;fill-opacity:1;fill-rule:nonzero;stroke:none" transform="scale(1.3333333)" /> </g>
</svg>

