<?xml version="1.0" encoding="UTF-8" standalone="no"?> <svg version="1.1" id="I2f098561d83a43a7af55b9bc68ed9b6e20251106165301" width="100" height="100" viewBox="0 0 100 100" xmlns="http://www.w3.org/2000/svg" xmlns:svg="http://www.w3.org/2000/svg"> <defs id="I828b5e11280e4835bbcfe9c51affab5920251106165301" /> <g id="I868a2a305c534c788cd5b5320126d37a20251106165301"> <path id="I03fad94cd42c43688b6d478caabb9a5d20251106165301" d="M 22.656,25 C 23.949,25 25,26.051 25,27.344 v 8.594 h 6.25 v -8.594 c 0,-1.293 1.051,-2.344 2.344,-2.344 1.293,0 2.344,1.051 2.344,2.344 V 47.656 C 35.938,48.949 34.887,50 33.594,50 32.301,50 31.25,48.949 31.25,47.656 V 40.625 H 25 v 7.031 C 25,48.949 23.949,50 22.656,50 21.363,50 20.312,48.949 20.312,47.656 V 27.344 C 20.312,26.051 21.363,25 22.656,25 Z m 20.313,0 c -1.293,0 -2.344,1.051 -2.344,2.344 v 20.312 c 0,1.293 1.051,2.344 2.344,2.344 h 3.125 C 51.703,50 56.25,45.453 56.25,39.844 V 35.156 C 56.25,29.547 51.703,25 46.094,25 Z m 2.343,20.312 V 29.688 h 0.782 c 3.019,0 5.468,2.449 5.468,5.468 v 4.688 c 0,3.019 -2.449,5.468 -5.468,5.468 z M 9.375,19.531 c 0,-5.609 4.547,-10.156 10.156,-10.156 h 35.938 c 5.609,0 10.156,4.547 10.156,10.156 v 35.938 c 0,5.609 -4.547,10.156 -10.156,10.156 H 19.531 c -5.609,0 -10.156,-4.547 -10.156,-10.156 z m 10.156,-5.469 c -3.019,0 -5.469,2.45 -5.469,5.469 v 35.938 c 0,3.019 2.45,5.469 5.469,5.469 h 35.938 c 3.019,0 5.469,-2.45 5.469,-5.469 V 19.531 c 0,-3.019 -2.45,-5.469 -5.469,-5.469 z" style="fill:currentColor;fill-opacity:1;fill-rule:nonzero;stroke:none" transform="scale(1.3333333)" /> </g>
</svg>

