<?xml version="1.0" encoding="UTF-8" standalone="no"?> <svg version="1.1" id="I152086acfe1d412695c231bf4020fa4820251106161453" width="100" height="100" viewBox="0 0 100 100" xmlns="http://www.w3.org/2000/svg" xmlns:svg="http://www.w3.org/2000/svg"> <defs id="I2c37e0986e394fa984fc4aefbfd3d9ed20251106161453" /> <g id="I49a685fa08574e4ea8fe1abbb71c193120251106161453"> <path id="Iab76fec78fb3448d9cf8e070ed6c985620251106161453" d="m 21.094,56.25 c 1.187,0 2.168,-0.883 2.324,-2.027 l 0.02,-0.317 V 14.254 l 6.937,6.934 c 0.832,0.832 2.133,0.91 3.051,0.226 l 0.262,-0.226 c 0.832,-0.833 0.91,-2.133 0.226,-3.051 L 33.688,17.875 22.75,6.938 C 21.918,6.105 20.617,6.027 19.699,6.711 L 19.438,6.938 8.5,17.875 c -0.918,0.914 -0.918,2.398 0,3.313 0.832,0.832 2.133,0.91 3.051,0.226 l 0.261,-0.226 6.938,-6.934 v 39.652 c 0,1.293 1.051,2.344 2.344,2.344 z m 32.804,0 c 1.188,0 2.168,-0.883 2.325,-2.027 l 0.019,-0.317 V 14.254 l 6.938,6.934 c 0.832,0.832 2.132,0.91 3.05,0.226 l 0.262,-0.226 c 0.832,-0.833 0.91,-2.133 0.227,-3.051 L 66.492,17.875 55.555,6.938 C 54.723,6.105 53.422,6.027 52.504,6.711 L 52.242,6.938 41.305,17.875 c -0.914,0.914 -0.914,2.398 0,3.313 0.832,0.832 2.133,0.91 3.05,0.226 l 0.262,-0.226 6.938,-6.934 v 39.652 c 0,1.293 1.05,2.344 2.343,2.344 z m -32.804,12.5 c 8.199,0 14.844,-6.645 14.844,-14.844 0,-6.265 -3.883,-11.625 -9.372,-13.801 v 5.247 c 2.817,1.804 4.684,4.96 4.684,8.554 0,5.61 -4.547,10.156 -10.156,10.156 -5.61,0 -10.156,-4.546 -10.156,-10.156 0,-3.594 1.867,-6.754 4.687,-8.558 v -5.246 c -5.492,2.179 -9.375,7.539 -9.375,13.804 0,8.199 6.645,14.844 14.844,14.844 z m 32.804,0 c 8.2,0 14.844,-6.645 14.844,-14.844 0,-6.265 -3.883,-11.625 -9.371,-13.801 v 5.247 c 2.817,1.804 4.684,4.96 4.684,8.554 0,5.61 -4.547,10.156 -10.157,10.156 -5.609,0 -10.156,-4.546 -10.156,-10.156 0,-3.594 1.867,-6.754 4.688,-8.558 v -5.246 c -5.492,2.179 -9.375,7.539 -9.375,13.804 0,8.199 6.644,14.844 14.843,14.844 z" style="fill:currentColor;fill-opacity:1;fill-rule:nonzero;stroke:none" transform="scale(1.3333333)" /> </g>
</svg>

