<?xml version="1.0" encoding="UTF-8" standalone="no"?> <svg version="1.1" id="Ib088b22592cc42d4a74de77cc5e5717d20251106143238" width="100" height="100" viewBox="0 0 100 100" xmlns="http://www.w3.org/2000/svg" xmlns:svg="http://www.w3.org/2000/svg"> <defs id="I2ba566e19db1473284a0f14f1fda7a1820251106143238" /> <g id="If11ae2b348624ffcbe91f664e93d2ad220251106143238"> <path id="I2c71d847e1e045949fd8b43a47316a3820251106143238" d="M 7.5,16.875 C 7.5,11.699 11.699,7.5 16.875,7.5 h 26.25 c 5.176,0 9.375,4.199 9.375,9.375 V 30 h -3.75 v -7.5 h -37.5 v 20.625 c 0,3.105 2.52,5.625 5.625,5.625 H 18.75 V 52.5 H 16.875 C 11.699,52.5 7.5,48.301 7.5,43.125 Z m 41.25,0 c 0,-3.105 -2.52,-5.625 -5.625,-5.625 h -26.25 c -3.105,0 -5.625,2.52 -5.625,5.625 v 1.875 h 37.5 z M 30,33.75 c -4.141,0 -7.5,3.359 -7.5,7.5 V 60 c 0,4.141 3.359,7.5 7.5,7.5 h 30 c 4.141,0 7.5,-3.359 7.5,-7.5 V 41.25 c 0,-4.141 -3.359,-7.5 -7.5,-7.5 z m -3.75,7.5 c 0,-2.07 1.68,-3.75 3.75,-3.75 h 30 c 2.07,0 3.75,1.68 3.75,3.75 v 0.082 L 45,52.355 26.25,41.336 Z m 0,4.434 17.324,10.183 c 0.879,0.516 1.973,0.516 2.852,0 L 63.75,45.684 V 60 c 0,2.07 -1.68,3.75 -3.75,3.75 H 30 c -2.07,0 -3.75,-1.68 -3.75,-3.75 z" style="fill:currentColor;fill-opacity:1;fill-rule:nonzero;stroke:none" transform="scale(1.3333333)" /> </g>
</svg>

