<?xml version="1.0" encoding="UTF-8" standalone="no"?> <svg version="1.1" id="I6c5ba1eb341142e4a2a8d3105254d6ae20251106170956" width="100" height="100" viewBox="0 0 100 100" xmlns="http://www.w3.org/2000/svg" xmlns:svg="http://www.w3.org/2000/svg"> <defs id="If5615a8afdb544b5855b5e8c96442ef820251106170956"> <linearGradient x1="14.5391" y1="9.9502802" x2="20.004601" y2="20.514999" gradientUnits="userSpaceOnUse" gradientTransform="scale(3.125)" spreadMethod="pad" id="I29243d35e9104a58aa27d867ca33536020251106170956"> <stop style="stop-opacity:0;stop-color:#0094f0" offset="0" id="Id21db13837e249bfa72b06d702341c1f20251106170956" /> <stop style="stop-opacity:0;stop-color:#0094f0" offset="0.19865" id="Ib7103f5bbf474a09a0b6bc367efe207d20251106170956" /> <stop style="stop-opacity:1;stop-color:#0094f0" offset="0.430619" id="Ib3f76d6368c242de8e50827655b8c20620251106170956" /> <stop style="stop-opacity:1;stop-color:#0094f0" offset="1" id="Idefbe6d30471403aabf9180f43f9428720251106170956" /> </linearGradient> <linearGradient x1="9.1429005" y1="8.8157902" x2="3.82831" y2="20.865299" gradientUnits="userSpaceOnUse" gradientTransform="scale(3.125)" spreadMethod="pad" id="Ibe0864f2dc4d4b73aecd75341f6ad12420251106170956"> <stop style="stop-opacity:0;stop-color:#0094f0" offset="0" id="If0f16685ab664bfcaccf034bc40b619720251106170956" /> <stop style="stop-opacity:0;stop-color:#0094f0" offset="0.191319" id="I4001f9aa63aa4c84853493e6ec4991f520251106170956" /> <stop style="stop-opacity:1;stop-color:#0094f0" offset="0.430619" id="I813f44f1625f4665a5df7fe57ce6afa520251106170956" /> <stop style="stop-opacity:1;stop-color:#0094f0" offset="1" id="I739376e4ea9142609555a14eaeb9eb6320251106170956" /> </linearGradient> <linearGradient x1="17.2735" y1="14.9574" x2="18.142799" y2="21.1514" gradientUnits="userSpaceOnUse" gradientTransform="scale(3.125)" spreadMethod="pad" id="I1c09db5b02c54357ab69966a5d97d7cf20251106170956"> <stop style="stop-opacity:0;stop-color:#2764e7" offset="0" id="Ibd454ee56b00430d80fa337a66b9a95420251106170956" /> <stop style="stop-opacity:0.75001144;stop-color:#2764e7" offset="1" id="I18c1637a414044269198258338ecb2b020251106170956" /> </linearGradient> <linearGradient x1="15.0953" y1="9.03508" x2="16.6812" y2="21.6434" gradientUnits="userSpaceOnUse" gradientTransform="scale(3.125)" spreadMethod="pad" id="Iba522513bf854cc0abbfcc78badef12520251106170956"> <stop style="stop-opacity:0;stop-color:#ff6ce8" offset="0" id="I40542cf6c19d43a4b7366280805452b920251106170956" /> <stop style="stop-opacity:0;stop-color:#ff6ce8" offset="0.53288" id="I2c27c0e01d9c498dafc5479eea414df020251106170956" /> <stop style="stop-opacity:0.70000763;stop-color:#ff6ce8" offset="1" id="Iae92e8290edd488a992cd106aca086fb20251106170956" /> </linearGradient> <linearGradient x1="7.9416099" y1="1.15063" x2="13.98" y2="17.089001" gradientUnits="userSpaceOnUse" gradientTransform="scale(3.125)" spreadMethod="pad" id="Ia373c734c772458888629f7509dccec120251106170956"> <stop style="stop-opacity:1;stop-color:#6ce0ff" offset="0" id="I57ce78492560486c81448bf72f3dc0bd20251106170956" /> <stop style="stop-opacity:1;stop-color:#29c3ff" offset="0.461792" id="I024fd5054acd44148daefe060055187d20251106170956" /> <stop style="stop-opacity:1;stop-color:#4894fe" offset="1" id="I23c79b81d1d24ea5a58b9ebf71128d8920251106170956" /> </linearGradient> <radialGradient fx="0" fy="0" cx="0" cy="0" r="1" gradientUnits="userSpaceOnUse" gradientTransform="matrix(0,22.355719,-29.541188,0,55.3225,18.509594)" spreadMethod="pad" id="I120ad71cabef4b4bad54e9d055a6f01220251106170956"> <stop style="stop-opacity:1;stop-color:#3bd5ff" offset="0" id="Ib726ad9ba3f44b5aa42638930740f0ac20251106170956" /> <stop style="stop-opacity:1;stop-color:#3bd5ff" offset="0.430108" id="I817360dbeab94da3a101cc6248b86c3520251106170956" /> <stop style="stop-opacity:0;stop-color:#3bd5ff" offset="1" id="Ie3edb95f5c34445ca7d445d141cad8c920251106170956" /> </radialGradient> <radialGradient fx="0" fy="0" cx="0" cy="0" r="1" gradientUnits="userSpaceOnUse" gradientTransform="matrix(0,21.153813,-21.05725,0,55.078438,22.115375)" spreadMethod="pad" id="I671de57f60784a77bff841ecfae2fc0420251106170956"> <stop style="stop-opacity:0.29999237;stop-color:#4a43cb" offset="0" id="I8572a89b8d7640faaa937c0b6770c02120251106170956" /> <stop style="stop-opacity:0.29999237;stop-color:#4a43cb" offset="0.535" id="I2f95ca027f164ac8bdca9b4a3c46b8f520251106170956" /> <stop style="stop-opacity:0;stop-color:#4a43cb" offset="1" id="I82118611e4cf429db0abbc853a195a6420251106170956" /> </radialGradient> <linearGradient x1="13.5278" y1="-0.52777803" x2="19.256901" y2="12" gradientUnits="userSpaceOnUse" gradientTransform="scale(3.125)" spreadMethod="pad" id="If4f61b096e104c6ba8235b732ba168e820251106170956"> <stop style="stop-opacity:1;stop-color:#1ec8b0" offset="0" id="I24e2121a89e946919ab0fe0358444afa20251106170956" /> <stop style="stop-opacity:1;stop-color:#1b44b1" offset="1" id="I91c91c9d9dd241b6ad1a41df87dddac420251106170956" /> </linearGradient> <linearGradient x1="17.306299" y1="3.6122401" x2="16.3983" y2="6.8798399" gradientUnits="userSpaceOnUse" gradientTransform="scale(3.125)" spreadMethod="pad" id="Idab2748a18f74bce80321435f383ede120251106170956"> <stop style="stop-opacity:1;stop-color:#fdfdfd" offset="0" id="Ic1f51c7d3819414f9d89b9ba6a743f9320251106170956" /> <stop style="stop-opacity:1;stop-color:#d1d1ff" offset="1" id="I75a4cc863c40496c812976631714a7ce20251106170956" /> </linearGradient> </defs> <g id="I5c4ee336025e4905a488c5f9effe246720251106170956"> <path id="Iaed4747ebde34493b8f444cfb2d38ebe20251106170956" d="m 68.75,23.438 v 28.906 c 0,5.414 -4.238,9.84 -9.578,10.14 L 58.594,62.5 H 16.406 c -5.414,0 -9.84,-4.238 -10.14,-9.578 L 6.25,52.344 V 23.438 l 30.164,15.8 c 0.68,0.356 1.492,0.356 2.172,0 z" style="fill:#367af2;fill-opacity:1;fill-rule:nonzero;stroke:none" transform="scale(1.3333333)" /> <path d="m 68.75,23.438 v 28.906 c 0,5.414 -4.238,9.84 -9.578,10.14 L 58.594,62.5 H 16.406 c -5.414,0 -9.84,-4.238 -10.14,-9.578 L 6.25,52.344 V 23.438 l 30.164,15.8 c 0.68,0.356 1.492,0.356 2.172,0 z" transform="scale(1.3333333)" style="fill:url(#I29243d35e9104a58aa27d867ca33536020251106170956);stroke:none" opacity="1" id="I31ef57c3f5fa43edb3b07095c9e442f220251106170956" /> <path d="m 68.75,23.438 v 28.906 c 0,5.414 -4.238,9.84 -9.578,10.14 L 58.594,62.5 H 16.406 c -5.414,0 -9.84,-4.238 -10.14,-9.578 L 6.25,52.344 V 23.438 l 30.164,15.8 c 0.68,0.356 1.492,0.356 2.172,0 z" transform="scale(1.3333333)" style="fill:url(#Ibe0864f2dc4d4b73aecd75341f6ad12420251106170956);stroke:none" opacity="1" id="Id3cbd69c9a064a1a8af601a159a9dfd520251106170956" /> <path d="m 68.75,23.438 v 28.906 c 0,5.414 -4.238,9.84 -9.578,10.14 L 58.594,62.5 H 16.406 c -5.414,0 -9.84,-4.238 -10.14,-9.578 L 6.25,52.344 V 23.438 l 30.164,15.8 c 0.68,0.356 1.492,0.356 2.172,0 z" transform="scale(1.3333333)" style="fill:url(#I1c09db5b02c54357ab69966a5d97d7cf20251106170956);stroke:none" opacity="1" id="Id11395c063bc4a4a99fbf1ed4f8229c220251106170956" /> <path d="m 68.75,23.438 v 28.906 c 0,5.414 -4.238,9.84 -9.578,10.14 L 58.594,62.5 H 16.406 c -5.414,0 -9.84,-4.238 -10.14,-9.578 L 6.25,52.344 V 23.438 l 30.164,15.8 c 0.68,0.356 1.492,0.356 2.172,0 z" transform="scale(1.3333333)" style="fill:url(#Iba522513bf854cc0abbfcc78badef12520251106170956);stroke:none" opacity="1" id="I1bcf6aee3cfb4d128ae7b200d56df85720251106170956" /> <path id="I16d3a74fdba3426ab5a6dbbeb7d9e3e420251106170956" d="m 6.25,24.562 30.164,15.801 c 0.68,0.356 1.492,0.356 2.172,0 L 68.75,24.562 V 22.656 C 68.75,17.047 64.203,12.5 58.594,12.5 H 16.406 C 10.797,12.5 6.25,17.047 6.25,22.656 Z" transform="scale(1.3333333)" style="fill:url(#Ia373c734c772458888629f7509dccec120251106170956);stroke:none" /> <path d="m 68.75,22.656 v 29.688 c 0,5.414 -4.238,9.84 -9.578,10.14 L 58.594,62.5 H 16.406 c -5.414,0 -9.84,-4.238 -10.14,-9.578 L 6.25,52.344 V 22.656 C 6.25,17.047 10.797,12.5 16.406,12.5 h 42.188 c 5.609,0 10.156,4.547 10.156,10.156 z" transform="scale(1.3333333)" style="fill:url(#I120ad71cabef4b4bad54e9d055a6f01220251106170956);stroke:none" opacity="1" id="I4e3f4cab89594fbfbf90ac56f3cf5cbc20251106170956" /> <path d="m 68.75,22.656 v 29.688 c 0,5.414 -4.238,9.84 -9.578,10.14 L 58.594,62.5 H 16.406 c -5.414,0 -9.84,-4.238 -10.14,-9.578 L 6.25,52.344 V 22.656 C 6.25,17.047 10.797,12.5 16.406,12.5 h 42.188 c 5.609,0 10.156,4.547 10.156,10.156 z" transform="scale(1.3333333)" style="fill:url(#I671de57f60784a77bff841ecfae2fc0420251106170956);stroke:none" opacity="1" id="I695d9de9e32742c9aa6b70a2add7724d20251106170956" /> <path id="I394155c34b924aa2b08fcc72d7df2ec320251106170956" d="m 54.688,3.125 c 9.492,0 17.187,7.695 17.187,17.187 C 71.875,29.805 64.18,37.5 54.688,37.5 45.195,37.5 37.5,29.805 37.5,20.312 37.5,10.82 45.195,3.125 54.688,3.125 Z" transform="scale(1.3333333)" style="fill:url(#If4f61b096e104c6ba8235b732ba168e820251106170956);stroke:none" /> <path id="Ie352d79e7fed4698b45537b1330c006420251106170956" d="m 54.688,9.375 c 0.863,0 1.562,0.699 1.562,1.563 v 7.812 h 6.25 c 0.863,0 1.562,0.699 1.562,1.562 0,0.864 -0.699,1.563 -1.562,1.563 h -7.812 c -0.864,0 -1.563,-0.699 -1.563,-1.563 v -9.374 c 0,-0.864 0.699,-1.563 1.563,-1.563 z" transform="scale(1.3333333)" style="fill:url(#Idab2748a18f74bce80321435f383ede120251106170956);fill-rule:evenodd;stroke:none" /> </g>
</svg>

