<?xml version="1.0" encoding="UTF-8" standalone="no"?>
<!-- Created with Inkscape (http://www.inkscape.org/) -->

<svg
   version="1.1"
   id="Ie9998a1ef8a846488b8c419067a9807c20251030195519"
   width="100"
   height="100"
   viewBox="0 0 100 100"
   sodipodi:docname="output.ai"
   xmlns:inkscape="http://www.inkscape.org/namespaces/inkscape"
   xmlns:sodipodi="http://sodipodi.sourceforge.net/DTD/sodipodi-0.dtd"
   xmlns="http://www.w3.org/2000/svg"
   xmlns:svg="http://www.w3.org/2000/svg">
  <defs
     id="I3f6ed4798d4e45caa426e61eab3ddef220251030195519" />
  <sodipodi:namedview
     id="I490280a86f4f441b8f0ad50f3e82622620251030195519"
     pagecolor="#ffffff"
     bordercolor="#000000"
     borderopacity="0.25"
     inkscape:showpageshadow="2"
     inkscape:pageopacity="0.0"
     inkscape:pagecheckerboard="0"
     inkscape:deskcolor="#d1d1d1">
    <inkscape:page
       x="0"
       y="0"
       inkscape:label="1"
       id="I2c6c288a7a93413a9791f185579d6dc320251030195519"
       width="100"
       height="100"
       margin="0"
       bleed="0" />
  </sodipodi:namedview>
  <g
     id="Idba34a36c3b54910aa0dc438b6d92bea20251030195519"
     inkscape:groupmode="layer"
     inkscape:label="1">
    <path
       id="Ib88444c3027e4a40a6a304b957a7e36120251030195519"
       d="m 6.25,17.969 c 0,-4.746 3.848,-8.594 8.594,-8.594 h 4.687 c 1.293,0 2.344,1.051 2.344,2.344 0,1.293 -1.051,2.343 -2.344,2.343 h -4.687 c -2.156,0 -3.906,1.75 -3.906,3.907 v 4.687 C 10.938,23.949 9.887,25 8.594,25 7.301,25 6.25,23.949 6.25,22.656 Z m 46.875,-6.25 c 0,-1.293 1.051,-2.344 2.344,-2.344 h 4.687 c 4.746,0 8.594,3.848 8.594,8.594 v 4.687 c 0,1.293 -1.051,2.344 -2.344,2.344 -1.293,0 -2.344,-1.051 -2.344,-2.344 v -4.687 c 0,-2.157 -1.75,-3.907 -3.906,-3.907 h -4.687 c -1.293,0 -2.344,-1.05 -2.344,-2.343 z M 8.594,50 c 1.293,0 2.344,1.051 2.344,2.344 v 4.687 c 0,2.157 1.75,3.907 3.906,3.907 h 4.687 c 1.293,0 2.344,1.05 2.344,2.343 0,1.293 -1.051,2.344 -2.344,2.344 h -4.687 c -4.746,0 -8.594,-3.848 -8.594,-8.594 V 52.344 C 6.25,51.051 7.301,50 8.594,50 Z m 57.812,0 c 1.293,0 2.344,1.051 2.344,2.344 v 4.687 c 0,4.746 -3.848,8.594 -8.594,8.594 h -4.687 c -1.293,0 -2.344,-1.051 -2.344,-2.344 0,-1.293 1.051,-2.343 2.344,-2.343 h 4.687 c 2.156,0 3.906,-1.75 3.906,-3.907 V 52.344 C 64.062,51.051 65.113,50 66.406,50 Z M 17.969,21.875 c 1.293,0 2.343,1.051 2.343,2.344 v 26.562 c 0,1.293 -1.05,2.344 -2.343,2.344 -1.293,0 -2.344,-1.051 -2.344,-2.344 V 24.219 c 0,-1.293 1.051,-2.344 2.344,-2.344 z m 14.843,2.344 c 0,-1.293 -1.05,-2.344 -2.343,-2.344 -1.293,0 -2.344,1.051 -2.344,2.344 v 26.562 c 0,1.293 1.051,2.344 2.344,2.344 1.293,0 2.343,-1.051 2.343,-2.344 z m 10.157,-2.344 c 1.293,0 2.343,1.051 2.343,2.344 v 26.562 c 0,1.293 -1.05,2.344 -2.343,2.344 -1.293,0 -2.344,-1.051 -2.344,-2.344 V 24.219 c 0,-1.293 1.051,-2.344 2.344,-2.344 z m 14.843,2.344 c 0,-1.293 -1.05,-2.344 -2.343,-2.344 -1.293,0 -2.344,1.051 -2.344,2.344 v 26.562 c 0,1.293 1.051,2.344 2.344,2.344 1.293,0 2.343,-1.051 2.343,-2.344 z"
       style="fill:#212121;fill-opacity:1;fill-rule:nonzero;stroke:none"
       transform="scale(1.3333333)" />
  </g>
</svg>

