<?xml version="1.0" encoding="UTF-8" standalone="no"?> <svg version="1.1" id="I723fa4fa9b964bca9432efecaaf9226b20251110123031" width="100" height="100" viewBox="0 0 100 100" xmlns="http://www.w3.org/2000/svg" xmlns:svg="http://www.w3.org/2000/svg"> <defs id="I349b498bc7b447a3834fa7184b8b09f920251110123031" /> <g id="I52be0ebbb4904971b7d090aa9eea5fb320251110123031"> <path id="I38b6148ecb864a8f88972c699311183420251110123031" d="M 43.75,48.438 V 43.75 H 13.289 c -3.879,0 -7.027,3.145 -7.027,7.027 v 1.805 c 0,2.789 0.996,5.488 2.808,7.609 4.895,5.735 12.352,8.563 22.18,8.563 4.723,0 8.895,-0.652 12.5,-1.965 v -5.062 c -3.379,1.554 -7.531,2.339 -12.5,2.339 -8.555,0 -14.699,-2.332 -18.617,-6.918 -1.086,-1.273 -1.684,-2.89 -1.684,-4.566 v -1.805 c 0,-1.293 1.047,-2.339 2.34,-2.339 z M 31.25,6.266 c 8.629,0 15.625,6.996 15.625,15.625 0,8.629 -6.996,15.625 -15.625,15.625 -8.629,0 -15.625,-6.996 -15.625,-15.625 0,-8.629 6.996,-15.625 15.625,-15.625 z m 0,4.687 c -6.039,0 -10.938,4.895 -10.938,10.938 0,6.039 4.899,10.937 10.938,10.937 6.043,0 10.938,-4.898 10.938,-10.937 0,-6.043 -4.895,-10.938 -10.938,-10.938 z M 66.422,31.25 c 3.019,0 5.469,2.449 5.469,5.469 v 29.687 c 0,3.02 -2.45,5.469 -5.469,5.469 H 52.344 c -3.02,0 -5.469,-2.449 -5.469,-5.469 V 36.719 c 0,-3.02 2.449,-5.469 5.469,-5.469 z m -6.258,28.117 h -1.562 l -0.317,0.02 c -1.144,0.156 -2.027,1.136 -2.027,2.324 0,1.293 1.051,2.344 2.344,2.344 h 1.562 l 0.32,-0.024 c 1.141,-0.156 2.024,-1.136 2.024,-2.32 0,-1.297 -1.047,-2.344 -2.344,-2.344 z" style="fill:currentColor;fill-opacity:1;fill-rule:nonzero;stroke:none" transform="scale(1.3333333)" /> </g>
</svg>

