<?xml version="1.0" encoding="UTF-8" standalone="no"?> <svg version="1.1" id="I4f25df4fe2d34a1cbd17e46b2ceea37d20251110124421" width="100" height="100" viewBox="0 0 100 100" xmlns="http://www.w3.org/2000/svg" xmlns:svg="http://www.w3.org/2000/svg"> <defs id="Ibfdb91f863e445028495a73400a95b1620251110124421" /> <g id="Ibe17fc5e5b48402c9c1797b60755dc7e20251110124421"> <path id="Iee448e5f178047e59b400c89dcef3fb220251110124421" d="M 5.477,8.91 C 4.738,6.148 7.574,3.793 10.152,5.023 l 57.582,27.45 c 2.086,0.996 2.461,3.613 1.125,5.187 -0.39,-0.105 -0.804,-0.16 -1.226,-0.16 H 60.535 L 64.738,35.496 9.734,9.273 16.211,33.488 h 29.996 c 1.109,0 2.008,0.899 2.008,2.008 0,1.109 -0.899,2.008 -2.008,2.008 H 16.211 L 9.734,61.719 44.078,45.344 c 0.86,0.941 2.094,1.531 3.465,1.531 h 0.672 v 0.949 L 10.152,65.973 C 7.574,67.199 4.738,64.844 5.477,62.082 L 12.59,35.496 Z m 40.054,33.278 c 0,-1.11 0.899,-2.008 2.008,-2.008 h 20.09 c 1.109,0 2.008,0.898 2.008,2.008 0,1.109 -0.899,2.007 -2.008,2.007 h -3.348 v 10.188 c 0,0.929 0.242,1.84 0.699,2.648 l 1.844,3.239 H 48.355 l 1.833,-3.215 c 0.457,-0.809 0.699,-1.719 0.699,-2.649 V 44.195 h -3.348 c -1.109,0 -2.008,-0.898 -2.008,-2.007 z m 0.539,22.097 -2.679,4.711 C 41.863,71.672 43.801,75 46.883,75 h 21.418 c 3.082,0 5.015,-3.328 3.492,-6.004 l -2.68,-4.711 z" style="fill:currentColor;fill-opacity:1;fill-rule:nonzero;stroke:none" transform="scale(1.3333333)" /> </g>
</svg>

