<?xml version="1.0" encoding="UTF-8" standalone="no"?> <svg version="1.1" id="I80bafaa651c744b08fef2024491e56c720251106165301" width="100" height="100" viewBox="0 0 100 100" xmlns="http://www.w3.org/2000/svg" xmlns:svg="http://www.w3.org/2000/svg"> <defs id="Ia57299b082a34f08b990277d496ff55320251106165301" /> <g id="I380cf16d27594f63b4463d38ec96e01e20251106165301"> <path id="Ic425ecf3bd944f21bc46a30d2075bc6620251106165301" d="M 14.074,7.973 C 14.91,6.52 16.457,5.625 18.133,5.625 H 30.02 c 1.675,0 3.226,0.895 4.062,2.348 l 5.945,10.312 c 0.836,1.449 0.836,3.231 0,4.68 l -5.945,10.312 c -0.836,1.453 -2.387,2.348 -4.062,2.348 H 18.133 c -1.676,0 -3.223,-0.895 -4.059,-2.348 L 8.125,22.965 c -0.832,-1.449 -0.832,-3.231 0,-4.68 z M 47.238,22.5 c -1.676,0 -3.226,0.895 -4.062,2.348 L 37.23,35.16 c -0.835,1.449 -0.835,3.231 0,4.68 l 5.946,10.312 c 0.836,1.453 2.386,2.348 4.062,2.348 h 11.887 c 1.676,0 3.223,-0.895 4.059,-2.348 L 69.133,39.84 c 0.832,-1.449 0.832,-3.231 0,-4.68 L 63.184,24.848 C 62.348,23.395 60.801,22.5 59.125,22.5 Z M 14.074,41.723 c 0.836,-1.453 2.383,-2.348 4.059,-2.348 H 30.02 c 1.675,0 3.226,0.895 4.062,2.348 l 5.945,10.312 c 0.836,1.449 0.836,3.231 0,4.68 l -5.945,10.312 c -0.836,1.453 -2.387,2.348 -4.062,2.348 H 18.133 c -1.676,0 -3.223,-0.895 -4.059,-2.348 L 8.125,56.715 c -0.832,-1.449 -0.832,-3.231 0,-4.68 z" style="fill:currentColor;fill-opacity:1;fill-rule:nonzero;stroke:none" transform="scale(1.3333333)" /> </g>
</svg>

