<?xml version="1.0" encoding="UTF-8" standalone="no"?> <svg version="1.1" id="I2c24beea57a84af1b17f6201217a3e5520251106152729" width="100" height="100" viewBox="0 0 100 100" xmlns="http://www.w3.org/2000/svg" xmlns:svg="http://www.w3.org/2000/svg"> <defs id="I6c0f6c6e179c4ba0942783f00adc8d7720251106152729"> <linearGradient x1="10.5741" y1="4" x2="17.247601" y2="23.772499" gradientUnits="userSpaceOnUse" gradientTransform="scale(2.678571)" spreadMethod="pad" id="Id759b16144664d55869baa1353f05f0520251106152729"> <stop style="stop-opacity:1;stop-color:#b3e0ff" offset="0" id="I2f2a9d629d4449058e0742b04411f1ec20251106152729" /> <stop style="stop-opacity:1;stop-color:#8cd0ff" offset="1" id="I93ba7b74c74d4c3db85fc630e15fa55f20251106152729" /> </linearGradient> <linearGradient x1="17.716" y1="6.4561501" x2="23.4133" y2="34.901001" gradientUnits="userSpaceOnUse" gradientTransform="scale(2.678571)" spreadMethod="pad" id="I9f3c71be125b46f4a16c578bba1669b620251106152729"> <stop style="stop-opacity:0;stop-color:#ff6ce8" offset="0" id="Ib9b7be3de7304501b2c5b3022508aa9020251106152729" /> <stop style="stop-opacity:0;stop-color:#ff6ce8" offset="0.446512" id="I786faff5010f4363b6f75602221037c820251106152729" /> <stop style="stop-opacity:0.70000763;stop-color:#ff6ce8" offset="1" id="I8195fd19d13543d2b4e945b1a6883f8c20251106152729" /> </linearGradient> <linearGradient x1="17.8636" y1="10.3654" x2="20.097601" y2="21.166599" gradientUnits="userSpaceOnUse" gradientTransform="scale(2.678571)" spreadMethod="pad" id="I49d8a11bbe104936a0848dca6e9417f720251106152729"> <stop style="stop-opacity:1;stop-color:#0078d4" offset="0" id="Ic1145345620149399d8d217cc1406e5220251106152729" /> <stop style="stop-opacity:1;stop-color:#0067bf" offset="1" id="I58a20dd6763043279e7b43ffbf367afe20251106152729" /> </linearGradient> <linearGradient x1="6" y1="12.0721" x2="7.5204401" y2="19.0909" gradientUnits="userSpaceOnUse" gradientTransform="scale(2.678571)" spreadMethod="pad" id="Ia430bed43ec94867ab6108053820938420251106152729"> <stop style="stop-opacity:1;stop-color:#9c6cfe" offset="0" id="If5b2194e8b9044a6a07165b08fb4261620251106152729" /> <stop style="stop-opacity:1;stop-color:#9c6cfe" offset="0.125321" id="I355385ca1a884c98a44ee618cca8715b20251106152729" /> <stop style="stop-opacity:1;stop-color:#7a41dc" offset="1" id="If76d059589bf4311aee3278617ccf38d20251106152729" /> </linearGradient> <linearGradient x1="7.75" y1="8.8333302" x2="10.366" y2="13.3135" gradientUnits="userSpaceOnUse" gradientTransform="scale(2.678571)" spreadMethod="pad" id="I61db924a3ca1469fb6d63658b992632f20251106152729"> <stop style="stop-opacity:1;stop-color:#9c6cfe" offset="0" id="Ibb7ccb144b2148f5bc7882e70e803ede20251106152729" /> <stop style="stop-opacity:1;stop-color:#9c6cfe" offset="0.125321" id="I88d5a72ef57c456c9dabe77df3687d8320251106152729" /> <stop style="stop-opacity:1;stop-color:#7a41dc" offset="1" id="Id648da47812b48458e6423fffe4ce54320251106152729" /> </linearGradient> </defs> <g id="Ia376b7af149341d4a8d1a01992dfd31f20251106152729"> <path id="I8bdc51a54617430791e40ac9e0ed943620251106152729" d="m 5.367,18.082 c 0,-4.07 3.297,-7.367 7.367,-7.367 h 49.543 c 4.071,0 7.368,3.297 7.368,7.367 v 38.836 c 0,4.07 -3.297,7.367 -7.368,7.367 H 12.734 c -4.07,0 -7.367,-3.297 -7.367,-7.367 z" transform="scale(1.3333333)" style="fill:url(#Id759b16144664d55869baa1353f05f0520251106152729);stroke:none" /> <path d="m 5.367,18.082 c 0,-4.07 3.297,-7.367 7.367,-7.367 h 49.543 c 4.071,0 7.368,3.297 7.368,7.367 v 38.836 c 0,4.07 -3.297,7.367 -7.368,7.367 H 12.734 c -4.07,0 -7.367,-3.297 -7.367,-7.367 z" transform="scale(1.3333333)" style="fill:url(#I9f3c71be125b46f4a16c578bba1669b620251106152729);stroke:none" opacity="1" id="I5f12c6599465472f98535d7f644df14c20251106152729" /> <path id="I63332d04508742ac895190456372bdc620251106152729" d="m 40.18,31.473 c 0,-1.11 0.898,-2.008 2.008,-2.008 h 14.73 c 1.109,0 2.012,0.898 2.012,2.008 0,1.109 -0.903,2.007 -2.012,2.007 h -14.73 c -1.11,0 -2.008,-0.898 -2.008,-2.007 z m 2.008,8.707 c -1.11,0 -2.008,0.898 -2.008,2.008 0,1.109 0.898,2.007 2.008,2.007 h 14.73 c 1.109,0 2.012,-0.898 2.012,-2.007 0,-1.11 -0.903,-2.008 -2.012,-2.008 z" transform="scale(1.3333333)" style="fill:url(#I49d8a11bbe104936a0848dca6e9417f720251106152729);stroke:none" /> <path id="Iebb6728b63f04e1d9360f1da3d99edb320251106152729" d="m 18.75,38.84 h 13.395 c 1.476,0 2.675,1.199 2.675,2.68 v 1.335 c 0,0 -1.34,6.7 -9.375,6.7 -8.035,0 -9.375,-6.7 -9.375,-6.7 V 41.52 c 0,-1.481 1.2,-2.68 2.68,-2.68 z" transform="scale(1.3333333)" style="fill:url(#Ia430bed43ec94867ab6108053820938420251106152729);stroke:none" /> <path id="I721e6e11700a4a5086e1dabe18908b9e20251106152729" d="m 30.133,31.473 c 0,2.589 -2.098,4.687 -4.688,4.687 -2.586,0 -4.687,-2.098 -4.687,-4.687 0,-2.59 2.101,-4.688 4.687,-4.688 2.59,0 4.688,2.098 4.688,4.688 z" transform="scale(1.3333333)" style="fill:url(#I61db924a3ca1469fb6d63658b992632f20251106152729);stroke:none" /> </g>
</svg>

