<?xml version="1.0" encoding="UTF-8" standalone="no"?> <svg version="1.1" id="I374dea4b855d4f4a96a3e7d4b4ccee8620251106171633" width="100" height="100" viewBox="0 0 100 100" xmlns="http://www.w3.org/2000/svg" xmlns:svg="http://www.w3.org/2000/svg"> <defs id="Iadd9848b0cd643a4baaa6857b56de7cd20251106171633" /> <g id="Ic2843558102a4fcfbae6717419b6b9fe20251106171633"> <path id="Ie01752ab1dcf4c5287ffa3f32eb0f4d020251106171633" d="m 37.5,5.355 c -6.656,0 -12.055,5.399 -12.055,12.055 v 21.43 c 0,6.656 5.399,12.055 12.055,12.055 6.656,0 12.055,-5.399 12.055,-12.055 V 17.41 C 49.555,10.754 44.156,5.355 37.5,5.355 Z M 29.465,17.41 c 0,-4.437 3.597,-8.035 8.035,-8.035 4.438,0 8.035,3.598 8.035,8.035 v 21.43 c 0,4.437 -3.597,8.035 -8.035,8.035 -4.438,0 -8.035,-3.598 -8.035,-8.035 z M 20.09,36.832 c 0,-1.109 -0.899,-2.008 -2.008,-2.008 -1.109,0 -2.012,0.899 -2.012,2.008 v 2.008 c 0,11.156 8.528,20.32 19.422,21.336 v 7.457 c 0,1.109 0.899,2.012 2.008,2.012 1.109,0 2.008,-0.903 2.008,-2.012 V 60.176 C 50.402,59.16 58.93,49.996 58.93,38.84 v -2.008 c 0,-1.109 -0.903,-2.008 -2.012,-2.008 -1.109,0 -2.008,0.899 -2.008,2.008 v 2.008 c 0,9.613 -7.793,17.41 -17.41,17.41 -9.617,0 -17.41,-7.797 -17.41,-17.41 z" style="fill:currentColor;fill-opacity:1;fill-rule:nonzero;stroke:none" transform="scale(1.3333333)" /> </g>
</svg>

