<?xml version="1.0" encoding="UTF-8" standalone="no"?> <svg version="1.1" id="I205d0d8875dc4e0890eddcb6600ac7b020251106163938" width="100" height="100" viewBox="0 0 100 100" xmlns="http://www.w3.org/2000/svg" xmlns:svg="http://www.w3.org/2000/svg"> <defs id="Ibbc0e7a66fa94c1fa791a50c355e056920251106163938"> <linearGradient x1="5.5" y1="27.7321" x2="4.7638302" y2="16.8195" gradientUnits="userSpaceOnUse" gradientTransform="scale(2.678571)" spreadMethod="pad" id="Ied8e9ec03f8e4f6bac34d79bacd7a29220251106163938"> <stop style="stop-opacity:1;stop-color:#889096" offset="0" id="I027fc7531fd24412bec7b17eb7a61d2820251106163938" /> <stop style="stop-opacity:1;stop-color:#63686e" offset="1" id="I4486460b61f94bc4b9963c82fdb9f5d320251106163938" /> </linearGradient> <linearGradient x1="-0.37526399" y1="-1.28571" x2="7.90628" y2="18.981899" gradientUnits="userSpaceOnUse" gradientTransform="scale(2.678571)" spreadMethod="pad" id="I8def63aeeeb741b9b9d64bb9b59dc05920251106163938"> <stop style="stop-opacity:1;stop-color:#f97dbd" offset="0" id="Ieb1b569f03134045baf3d4ba388f259d20251106163938" /> <stop style="stop-opacity:1;stop-color:#d7257d" offset="1" id="I60793fe6ff1e40aab299b2c56b56000120251106163938" /> </linearGradient> </defs> <g id="I070fb9e2bb994531afe31f09c929af5020251106163938"> <path id="Ia461b4d3b8f74b67bb7bd110d40d4f9120251106163938" d="m 12.723,66.965 c -1.11,0 -2.008,-0.899 -2.008,-2.008 V 44.195 h 4.015 v 20.762 c 0,1.109 -0.898,2.008 -2.007,2.008 z" transform="scale(1.3333333)" style="fill:url(#Ied8e9ec03f8e4f6bac34d79bacd7a29220251106163938);stroke:none" /> <path id="I8a51a09dab6f41f5b551f565c30fc7be20251106163938" d="M 62.277,48.215 H 12.055 c -0.743,0 -1.34,-0.602 -1.34,-1.34 V 10.043 c 0,-1.109 0.898,-2.008 2.008,-2.008 h 49.554 c 1.582,0 2.543,1.742 1.7,3.078 L 53.266,28.125 63.977,45.137 c 0.843,1.336 -0.118,3.078 -1.7,3.078 z" transform="scale(1.3333333)" style="fill:url(#I8def63aeeeb741b9b9d64bb9b59dc05920251106163938);stroke:none" /> </g>
</svg>

