<?xml version="1.0" encoding="UTF-8" standalone="no"?> <svg version="1.1" id="I52b179376829404ab72583b5dc44342c20251106151526" width="100" height="100" viewBox="0 0 100 100" xmlns="http://www.w3.org/2000/svg" xmlns:svg="http://www.w3.org/2000/svg"> <defs id="I9a889530bbbb48008540f8e096eae48a20251106151526" /> <g id="Id437a5f646c049f28988304042305cd220251106151526"> <path id="I1c2754d9a2114274a9014d9329eb60f020251106151526" d="m 59.121,5.355 c 5.809,0 10.524,4.715 10.524,10.524 0,3.738 -1.985,7.191 -5.204,9.082 l -13.675,8.012 7.91,7.906 c 3.922,3.922 3.922,10.285 0,14.207 l -8.238,8.238 c -1.309,1.305 -3.43,1.305 -4.739,0 l -1.652,-1.656 -5.82,5.824 c -2.875,2.879 -7.543,2.879 -10.418,0 L 7.512,47.195 c -2.875,-2.875 -2.875,-7.539 0,-10.414 l 5.824,-5.824 -1.641,-1.641 c -1.308,-1.308 -1.308,-3.429 0,-4.734 l 8.239,-8.238 c 3.921,-3.922 10.281,-3.922 14.203,0 l 7.886,7.886 8.016,-13.671 C 51.93,7.34 55.387,5.355 59.121,5.355 Z M 10.352,39.621 c -1.305,1.309 -1.305,3.426 0,4.734 l 20.296,20.297 c 1.309,1.309 3.43,1.309 4.739,0 L 41.207,58.828 16.176,33.797 Z M 31.297,19.184 c -2.356,-2.352 -6.172,-2.352 -8.524,0 l -7.765,7.765 33.058,33.059 7.77,-7.762 c 2.352,-2.355 2.352,-6.172 0,-8.527 z M 59.121,9.375 c -2.309,0 -4.449,1.223 -5.613,3.215 l -8.547,14.574 2.871,2.875 14.578,-8.547 c 1.992,-1.164 3.215,-3.304 3.215,-5.613 0,-3.59 -2.914,-6.504 -6.504,-6.504 z" style="fill:currentColor;fill-opacity:1;fill-rule:nonzero;stroke:none" transform="scale(1.3333333)" /> </g>
</svg>

