<?xml version="1.0" encoding="UTF-8" standalone="no"?> <svg version="1.1" id="Idf5f9d1f181c48ddb37cae0d22909f4520251110124419" width="100" height="100" viewBox="0 0 100 100" xmlns="http://www.w3.org/2000/svg" xmlns:svg="http://www.w3.org/2000/svg"> <defs id="Ia9f185e58fa6421cbb2b3be1b7bdaac020251110124419" /> <g id="Ie1d31ac5f18b4dc9bf0dd63ebde54f9820251110124419"> <path id="If1b4c955f61442b082a9949d0f7c3bc620251110124419" d="m 28.125,15.625 c 0,-5.176 4.195,-9.375 9.375,-9.375 5.18,0 9.375,4.199 9.375,9.375 v 12.5 c 0,4.367 -2.988,8.039 -7.031,9.078 v 8.699 l 10.844,-10.84 c 0.914,-0.917 2.398,-0.917 3.312,0 0.918,0.915 0.918,2.399 0,3.313 l -14.156,14.16 v 4.496 c 0,1.293 -1.051,2.344 -2.344,2.344 -1.293,0 -2.344,-1.051 -2.344,-2.344 V 52.535 L 21,38.375 c -0.918,-0.914 -0.918,-2.398 0,-3.313 0.914,-0.917 2.398,-0.917 3.312,0 l 10.844,10.84 v -8.699 c -4.043,-1.039 -7.031,-4.711 -7.031,-9.078 z m -4.617,29.68 c -1.844,0.441 -3.555,0.976 -5.098,1.582 -2.492,0.984 -4.672,2.211 -6.262,3.695 -1.597,1.484 -2.773,3.398 -2.773,5.668 0,2.27 1.176,4.18 2.773,5.668 1.59,1.484 3.77,2.711 6.262,3.695 5.004,1.969 11.754,3.137 19.09,3.137 7.336,0 14.086,-1.168 19.09,-3.137 2.492,-0.984 4.672,-2.211 6.262,-3.695 1.597,-1.488 2.773,-3.398 2.773,-5.668 0,-2.27 -1.176,-4.184 -2.773,-5.668 -1.59,-1.484 -3.77,-2.711 -6.262,-3.695 -1.543,-0.606 -3.254,-1.141 -5.098,-1.582 l -3.965,3.965 c 2.785,0.484 5.274,1.164 7.344,1.98 2.172,0.855 3.77,1.816 4.785,2.762 1.016,0.941 1.282,1.703 1.282,2.238 0,0.535 -0.266,1.293 -1.282,2.238 -1.015,0.946 -2.613,1.907 -4.785,2.762 -4.328,1.707 -10.469,2.812 -17.371,2.812 -6.902,0 -13.043,-1.105 -17.371,-2.812 -2.172,-0.855 -3.77,-1.816 -4.785,-2.762 -1.016,-0.945 -1.282,-1.703 -1.282,-2.238 0,-0.535 0.266,-1.297 1.282,-2.238 1.015,-0.946 2.613,-1.907 4.785,-2.762 2.07,-0.816 4.559,-1.496 7.344,-1.98 z" style="fill:currentColor;fill-opacity:1;fill-rule:nonzero;stroke:none" transform="scale(1.3333333)" /> </g>
</svg>

