<?xml version="1.0" encoding="UTF-8" standalone="no"?> <svg version="1.1" id="Ie32d9a5ea2cb49dabd370e56d4bad93c20251106161453" width="100" height="100" viewBox="0 0 100 100" xmlns="http://www.w3.org/2000/svg" xmlns:svg="http://www.w3.org/2000/svg"> <defs id="I25841883bd5f43e99f82bc69870ed80820251106161453" /> <g id="I8d90d85a814246c5972c6300cdd77ca120251106161453"> <path id="I56cd1a00085343c39be9957dca0c53e620251106161453" d="m 13.395,13.395 c 0,-4.442 3.597,-8.04 8.035,-8.04 h 32.14 c 4.438,0 8.035,3.598 8.035,8.04 v 22.57 C 60.324,35.512 58.977,35.184 57.59,35 V 13.395 c 0,-2.219 -1.801,-4.02 -4.02,-4.02 H 21.43 c -2.219,0 -4.02,1.801 -4.02,4.02 v 48.21 c 0,2.219 1.801,4.02 4.02,4.02 h 16.484 c 0.938,1.48 2.059,2.832 3.34,4.02 H 21.43 c -4.438,0 -8.035,-3.598 -8.035,-8.04 z m 12.05,26.785 c 2.219,0 4.02,-1.801 4.02,-4.02 0,-2.219 -1.801,-4.015 -4.02,-4.015 -2.218,0 -4.015,1.796 -4.015,4.015 0,2.219 1.797,4.02 4.015,4.02 z M 72.32,54.91 c 0,9.617 -7.793,17.41 -17.41,17.41 -9.617,0 -17.41,-7.793 -17.41,-17.41 0,-9.617 7.793,-17.41 17.41,-17.41 9.617,0 17.41,7.793 17.41,17.41 z M 44.195,53.57 c -0.738,0 -1.34,0.602 -1.34,1.34 0,0.738 0.602,1.34 1.34,1.34 H 62.391 L 56.641,62 c -0.52,0.523 -0.52,1.371 0,1.895 0.523,0.523 1.371,0.523 1.894,0 l 8.035,-8.036 c 0.129,-0.129 0.227,-0.277 0.293,-0.437 0.063,-0.152 0.102,-0.324 0.102,-0.504 V 54.902 C 66.961,54.562 66.832,54.223 66.57,53.965 L 58.535,45.93 c -0.523,-0.524 -1.371,-0.524 -1.894,0 -0.52,0.519 -0.52,1.371 0,1.89 l 5.75,5.75 z" style="fill:currentColor;fill-opacity:1;fill-rule:nonzero;stroke:none" transform="scale(1.3333333)" /> </g>
</svg>

