<?xml version="1.0" encoding="UTF-8" standalone="no"?> <svg version="1.1" id="I16890d09f2fd4e80ada3689de89a411d20251110124419" width="100" height="100" viewBox="0 0 100 100" xmlns="http://www.w3.org/2000/svg" xmlns:svg="http://www.w3.org/2000/svg"> <defs id="Ia1e975f422e145b5b74d6ac0eedcc30a20251110124419" /> <g id="Ib05d064e586b4de6baac41b9b00f45e120251110124419"> <path id="I3cfa2f556df64c4d970b317bb0db10b820251110124419" d="m 26.848,8.035 c 0.922,0.031 1.703,0.68 1.898,1.578 L 39.207,57.266 50.32,22.82 c 0.274,-0.843 1.071,-1.41 1.957,-1.39 0.891,0.019 1.661,0.621 1.895,1.48 l 3.613,13.25 h 9.848 c 1.109,0 2.012,0.899 2.012,2.008 0,1.109 -0.903,2.012 -2.012,2.012 H 56.25 c -0.906,0 -1.699,-0.61 -1.938,-1.481 L 52.07,30.48 40.75,65.57 c -0.277,0.868 -1.102,1.434 -2.008,1.391 -0.906,-0.043 -1.672,-0.688 -1.863,-1.574 L 26.531,18.25 20.68,38.723 c -0.246,0.859 -1.032,1.457 -1.93,1.457 H 7.367 c -1.109,0 -2.012,-0.903 -2.012,-2.012 0,-1.109 0.903,-2.008 2.012,-2.008 h 9.867 L 24.855,9.492 c 0.25,-0.883 1.075,-1.484 1.993,-1.457 z" style="fill:currentColor;fill-opacity:1;fill-rule:nonzero;stroke:none" transform="scale(1.3333333)" /> </g>
</svg>

