<?xml version="1.0" encoding="UTF-8" standalone="no"?> <svg version="1.1" id="Ie4807f4c506a49b2a8e53d19f900d04220251106171634" width="100" height="100" viewBox="0 0 100 100" xmlns="http://www.w3.org/2000/svg" xmlns:svg="http://www.w3.org/2000/svg"> <defs id="Id8d915d42b8142ed8bda7a028257778a20251106171634" /> <g id="Icf1d3465dd834bc5ad235fb7def2af1f20251106171634"> <path id="Iaed0d5d3a97244a9acf57d3306b0aab720251106171634" d="m 14.062,8.594 c 0,1.293 1.051,2.344 2.344,2.344 h 40.625 c 1.293,0 2.344,-1.051 2.344,-2.344 0,-1.293 -1.051,-2.344 -2.344,-2.344 H 16.406 c -1.293,0 -2.344,1.051 -2.344,2.344 z m 0,57.812 c 0,1.293 1.051,2.344 2.344,2.344 h 2.707 c 1.297,0 2.344,-1.051 2.344,-2.344 0,-1.293 -1.047,-2.344 -2.344,-2.344 h -2.707 c -1.293,0 -2.344,1.051 -2.344,2.344 z m 10.833,0 c 0,1.293 1.05,2.344 2.343,2.344 h 5.418 c 1.293,0 2.344,-1.051 2.344,-2.344 0,-1.293 -1.051,-2.344 -2.344,-2.344 h -5.418 c -1.293,0 -2.343,1.051 -2.343,2.344 z m 13.543,0 c 0,1.293 1.05,2.344 2.343,2.344 h 5.418 c 1.293,0 2.344,-1.051 2.344,-2.344 0,-1.293 -1.051,-2.344 -2.344,-2.344 h -5.418 c -1.293,0 -2.343,1.051 -2.343,2.344 z m 13.542,0 c 0,1.293 1.047,2.344 2.344,2.344 h 2.707 c 1.293,0 2.344,-1.051 2.344,-2.344 0,-1.293 -1.051,-2.344 -2.344,-2.344 h -2.707 c -1.297,0 -2.344,1.051 -2.344,2.344 z M 38.375,58.688 c -0.914,0.917 -2.398,0.917 -3.313,0 L 19.438,43.062 c -0.918,-0.914 -0.918,-2.398 0,-3.312 0.914,-0.918 2.398,-0.918 3.312,0 L 34.375,51.371 V 17.969 c 0,-1.293 1.051,-2.344 2.344,-2.344 1.293,0 2.343,1.051 2.343,2.344 V 51.371 L 50.688,39.75 c 0.914,-0.918 2.398,-0.918 3.312,0 0.918,0.914 0.918,2.398 0,3.312 z" style="fill:currentColor;fill-opacity:1;fill-rule:nonzero;stroke:none" transform="scale(1.3333333)" /> </g>
</svg>

