<?xml version="1.0" encoding="UTF-8" standalone="no"?> <svg version="1.1" id="Ieb0692b9a6124dc0ab6615e196f67b8e20251106171633" width="100" height="100" viewBox="0 0 100 100" xmlns="http://www.w3.org/2000/svg" xmlns:svg="http://www.w3.org/2000/svg"> <defs id="Ibb83d299d5f7479d9a67ab2432a280df20251106171633" /> <g id="I421575f79600416b906e7a63f6e7b1e320251106171633"> <path id="I362b4621c34741ae9d8405ef8c3b974720251106171633" d="m 70.453,14.203 c 1.375,-1.371 1.375,-3.598 0,-4.969 -1.371,-1.375 -3.598,-1.375 -4.969,0 l -6.89,6.887 -2.203,-2.199 c -1.371,-1.375 -3.598,-1.375 -4.969,0 -1.375,1.371 -1.375,3.598 0,4.969 l 4.687,4.687 c 1.371,1.375 3.598,1.375 4.969,0 z m -9.375,51.563 9.375,-9.375 c 1.375,-1.371 1.375,-3.598 0,-4.969 -1.371,-1.375 -3.598,-1.375 -4.969,0 l -6.89,6.887 -2.203,-2.2 c -1.371,-1.375 -3.598,-1.375 -4.969,0 -1.375,1.371 -1.375,3.598 0,4.969 l 4.687,4.688 c 1.371,1.375 3.598,1.375 4.969,0 z M 8.203,14.062 c -1.941,0 -3.515,1.575 -3.515,3.516 0,1.942 1.574,3.516 3.515,3.516 h 35.156 c 1.942,0 3.516,-1.574 3.516,-3.516 0,-1.941 -1.574,-3.516 -3.516,-3.516 z m 0,19.922 c -1.941,0 -3.515,1.575 -3.515,3.516 0,1.941 1.574,3.516 3.515,3.516 h 35.156 c 1.942,0 3.516,-1.575 3.516,-3.516 0,-1.941 -1.574,-3.516 -3.516,-3.516 z m 0,19.922 c -1.941,0 -3.515,1.574 -3.515,3.516 0,1.941 1.574,3.516 3.515,3.516 h 35.156 c 1.942,0 3.516,-1.575 3.516,-3.516 0,-1.942 -1.574,-3.516 -3.516,-3.516 z" style="fill:currentColor;fill-opacity:1;fill-rule:nonzero;stroke:none" transform="scale(1.3333333)" /> </g>
</svg>

