<?xml version="1.0" encoding="UTF-8" standalone="no"?> <svg version="1.1" id="I95b228c5a35d4087a79b0b56067671e520251106154012" width="100" height="100" viewBox="0 0 100 100" xmlns="http://www.w3.org/2000/svg" xmlns:svg="http://www.w3.org/2000/svg"> <defs id="I420dbc12b2924a098f5eac6525cc50b320251106154012" /> <g id="Ib3f904f36a3143c89e372e9b51a1e85520251106154012"> <path id="I2fdfe163cac3445ab78ea32a02436e5720251106154012" d="m 9.375,19.531 c 0,-5.609 4.547,-10.156 10.156,-10.156 h 35.938 c 5.609,0 10.156,4.547 10.156,10.156 v 35.938 c 0,5.609 -4.547,10.156 -10.156,10.156 H 19.531 c -5.609,0 -10.156,-4.547 -10.156,-10.156 z m 10.156,-5.469 c -3.019,0 -5.469,2.45 -5.469,5.469 v 35.938 c 0,3.019 2.45,5.469 5.469,5.469 h 8.594 V 14.062 Z m 13.281,0 V 43.75 H 60.938 V 19.531 c 0,-3.019 -2.45,-5.469 -5.469,-5.469 z M 60.938,48.438 H 32.812 v 12.5 h 22.657 c 3.019,0 5.469,-2.45 5.469,-5.469 z" style="fill:currentColor;fill-opacity:1;fill-rule:nonzero;stroke:none" transform="scale(1.3333333)" /> </g>
</svg>

