<?xml version="1.0" encoding="UTF-8" standalone="no"?> <svg version="1.1" id="I1bb0d9b6027d43bbbf19091d0d1a0f8a20251106142135" width="100" height="100" viewBox="0 0 100 100" xmlns="http://www.w3.org/2000/svg" xmlns:svg="http://www.w3.org/2000/svg"> <defs id="I405aad9dae2f4ad492312b0589e8e0fb20251106142135" /> <g id="I8873497079dd464d81ab20262ad64c8820251106142135"> <path id="Ib68f6ccc54d642c5bd75efb9a80e104420251106142135" d="m 35.117,6.141 c 1.418,-1.043 3.352,-1.043 4.77,0 l 25.441,18.765 c 3.012,2.219 1.602,6.906 -1.98,7.235 H 11.66 C 8.074,31.812 6.668,27.125 9.676,24.906 Z m 2.387,17.961 c 2.219,0 4.016,-1.797 4.016,-4.016 0,-2.219 -1.797,-4.02 -4.016,-4.02 -2.219,0 -4.02,1.801 -4.02,4.02 0,2.219 1.801,4.016 4.02,4.016 z m 14.73,10.718 h 6.696 v 13.391 h -6.696 z m -17.41,26.118 c 0,-2.747 0.871,-5.29 2.348,-7.368 H 16.746 c -4.808,0 -8.707,3.899 -8.707,8.707 v 1.34 c 0,1.11 0.902,2.008 2.012,2.008 H 35.715 C 35.141,64.172 34.824,62.594 34.824,60.938 Z M 40.18,50.559 c 1.91,-1.356 4.211,-2.2 6.699,-2.329 V 34.82 H 40.18 Z m -5.356,0.332 V 34.82 H 28.129 V 50.891 Z M 22.773,34.82 V 50.891 H 16.074 V 34.82 Z m 24.774,20.09 c -3.328,0 -6.027,2.699 -6.027,6.028 0,3.328 2.699,6.027 6.027,6.027 h 1.34 c 1.109,0 2.008,0.898 2.008,2.008 0,1.109 -0.899,2.007 -2.008,2.007 h -1.34 C 42,70.98 37.504,66.484 37.504,60.938 37.504,55.391 42,50.891 47.547,50.891 h 1.34 c 1.109,0 2.008,0.898 2.008,2.011 0,1.11 -0.899,2.008 -2.008,2.008 z m -2.008,6.028 c 0,-1.11 0.899,-2.012 2.008,-2.012 h 14.73 c 1.11,0 2.008,0.902 2.008,2.012 0,1.109 -0.898,2.007 -2.008,2.007 h -14.73 c -1.109,0 -2.008,-0.898 -2.008,-2.007 z m 16.738,6.027 c 3.328,0 6.028,-2.699 6.028,-6.027 0,-3.329 -2.7,-6.028 -6.028,-6.028 h -1.339 c -1.11,0 -2.008,-0.898 -2.008,-2.008 0,-1.113 0.898,-2.011 2.008,-2.011 h 1.339 c 5.547,0 10.043,4.5 10.043,10.047 0,5.546 -4.496,10.042 -10.043,10.042 h -1.339 c -1.11,0 -2.008,-0.898 -2.008,-2.007 0,-1.11 0.898,-2.008 2.008,-2.008 z" style="fill:currentColor;fill-opacity:1;fill-rule:nonzero;stroke:none" transform="scale(1.3333333)" /> </g>
</svg>

