<?xml version="1.0" encoding="UTF-8" standalone="no"?> <svg version="1.1" id="I40944f3c856844bfa2206d5a76de51a120251106123559" width="100" height="100" viewBox="0 0 100 100" xmlns="http://www.w3.org/2000/svg" xmlns:svg="http://www.w3.org/2000/svg"> <defs id="I3ae2c632502644d488124c650edcbf5420251106123559" /> <g id="I0cc8bcc9b87d4e73b87f79283bf0b8d720251106123559"> <path id="I9940c13b49f149fc97afea7e457daddd20251106123559" d="m 32.926,6.141 c 1.047,-1.043 2.742,-1.047 3.789,0 l 8.047,8.043 c 0.504,0.5 0.785,1.183 0.785,1.894 0,0.711 -0.281,1.395 -0.785,1.895 l -8.047,8.031 C 35.664,27.047 33.969,27.047 32.926,26 31.879,24.953 31.883,23.254 32.93,22.211 l 3.441,-3.434 C 24.32,19.367 14.73,29.32 14.73,41.52 c 0,12.574 10.196,22.765 22.77,22.765 12.168,0 22.109,-9.547 22.734,-21.558 0.078,-1.477 1.34,-2.614 2.817,-2.536 1.476,0.079 2.613,1.34 2.535,2.817 C 64.812,57.848 52.535,69.645 37.5,69.645 21.969,69.645 9.375,57.051 9.375,41.52 9.375,26.348 21.383,13.984 36.414,13.414 L 32.93,9.93 C 31.883,8.887 31.883,7.188 32.926,6.141 Z M 48.77,32.926 c 1.046,1.047 1.046,2.742 0,3.789 L 35.375,50.109 c -0.5,0.5 -1.184,0.786 -1.895,0.786 -0.707,0 -1.39,-0.286 -1.89,-0.786 L 26.23,44.75 c -1.046,-1.043 -1.046,-2.742 0,-3.785 1.047,-1.047 2.743,-1.047 3.79,0 l 3.46,3.461 11.5,-11.5 c 1.047,-1.043 2.743,-1.043 3.79,0 z" style="fill:currentColor;fill-opacity:1;fill-rule:nonzero;stroke:none" transform="scale(1.3333333)" /> </g>
</svg>

