<?xml version="1.0" encoding="UTF-8" standalone="no"?> <svg version="1.1" id="I11193f2f7095429db05c37bac24335b220251110130509" width="100" height="100" viewBox="0 0 100 100" xmlns="http://www.w3.org/2000/svg" xmlns:svg="http://www.w3.org/2000/svg"> <defs id="I5a5080c6d33847849854c63321b14da120251110130509" /> <g id="I7f568e72210b46a696cd1de0c23ac6ca20251110130509"> <path id="Ib3402653bdd64735b6dca10fdc2bd36720251110130509" d="m 18.082,8.035 c -5.551,0 -10.047,4.496 -10.047,10.047 v 19.477 c 1.242,-0.793 2.59,-1.438 4.02,-1.899 v -6.195 h 13.39 v 7.316 c 1.477,0.77 2.828,1.746 4.02,2.887 V 29.465 h 16.07 v 16.07 H 33.488 c 0.86,2.063 1.332,4.324 1.332,6.695 0,3.106 -0.812,6.024 -2.234,8.547 l 6.187,6.188 h 18.145 c 5.551,0 10.047,-4.496 10.047,-10.047 V 18.082 c 0,-5.551 -4.496,-10.047 -10.047,-10.047 z m 31.473,54.91 v -13.39 h 13.39 v 7.363 c 0,3.328 -2.699,6.027 -6.027,6.027 z m 13.39,-33.48 v 16.07 h -13.39 v -16.07 z m -6.027,-17.41 c 3.328,0 6.027,2.695 6.027,6.027 v 7.363 h -13.39 v -13.39 z m -38.836,0 h 7.363 v 13.39 h -13.39 v -7.363 c 0,-3.332 2.695,-6.027 6.027,-6.027 z m -0.672,54.91 c 3.344,0 6.43,-1.113 8.902,-2.992 l 7.758,7.761 c 0.785,0.782 2.059,0.782 2.84,0 0.785,-0.785 0.785,-2.058 0,-2.843 l -7.758,-7.758 c 1.875,-2.473 2.993,-5.559 2.993,-8.903 0,-8.132 -6.598,-14.73 -14.735,-14.73 -8.137,0 -14.73,6.598 -14.73,14.73 0,8.137 6.593,14.735 14.73,14.735 z m 0,-4.02 c -5.918,0 -10.715,-4.797 -10.715,-10.715 0,-5.914 4.797,-10.71 10.715,-10.71 5.918,0 10.715,4.796 10.715,10.71 0,5.918 -4.797,10.715 -10.715,10.715 z" style="fill:currentColor;fill-opacity:1;fill-rule:nonzero;stroke:none" transform="scale(1.3333333)" /> </g>
</svg>

