<?xml version="1.0" encoding="UTF-8" standalone="no"?> <svg version="1.1" id="I5edaa6098cd94a9da9670080bdb0efe620251106144520" width="100" height="100" viewBox="0 0 100 100" xmlns="http://www.w3.org/2000/svg" xmlns:svg="http://www.w3.org/2000/svg"> <defs id="Ifcd8342d0556438ead9e365392ada52920251106144520" /> <g id="I8897a85b9fa14e6a9e2d0342383ec38420251106144520"> <path id="I5b4057f3f1124782b3374f7e55a300e720251106144520" d="m 37.5,6.25 c 17.258,0 31.25,13.992 31.25,31.25 0,0.82 -0.031,1.637 -0.094,2.441 -3.64,-3.449 -8.558,-5.566 -13.968,-5.566 -11.219,0 -20.313,9.094 -20.313,20.313 0,5.41 2.117,10.328 5.566,13.968 -0.804,0.063 -1.621,0.094 -2.441,0.094 -5.125,0 -10.078,-1.238 -14.512,-3.566 L 9.578,68.672 C 8.16,69.043 6.711,68.191 6.34,66.773 6.227,66.332 6.227,65.871 6.34,65.434 L 9.828,52.031 C 7.492,47.594 6.25,42.633 6.25,37.5 6.25,20.242 20.242,6.25 37.5,6.25 Z m 7.121,37.422 c 0.981,3.41 -1.062,6.949 -4.504,7.801 l -1.828,0.453 c -0.141,0.898 -0.211,1.82 -0.211,2.762 0,0.984 0.078,1.949 0.231,2.886 l 1.687,0.406 c 3.477,0.836 5.543,4.415 4.531,7.844 l -0.582,1.973 c 1.371,1.207 2.938,2.183 4.637,2.879 l 1.543,-1.621 c 2.465,-2.59 6.594,-2.59 9.059,0.004 l 1.558,1.64 c 1.699,-0.691 3.262,-1.66 4.633,-2.855 l -0.617,-2.141 c -0.985,-3.41 1.062,-6.949 4.504,-7.805 l 1.824,-0.449 c 0.141,-0.898 0.211,-1.82 0.211,-2.761 0,-0.985 -0.078,-1.95 -0.231,-2.887 L 69.383,51.395 C 65.906,50.559 63.836,46.98 64.852,43.551 l 0.578,-1.973 c -1.371,-1.203 -2.934,-2.183 -4.637,-2.879 l -1.539,1.621 c -2.465,2.59 -6.598,2.59 -9.063,-0.004 l -1.558,-1.64 C 46.934,39.367 45.375,40.336 44,41.531 Z M 54.688,50 c 2.503,0 4.531,2.098 4.531,4.688 0,2.589 -2.028,4.687 -4.531,4.687 -2.5,0 -4.532,-2.098 -4.532,-4.687 0,-2.59 2.032,-4.688 4.532,-4.688 z" style="fill:currentColor;fill-opacity:1;fill-rule:nonzero;stroke:none" transform="scale(1.3333333)" /> </g>
</svg>

