<?xml version="1.0" encoding="UTF-8" standalone="no"?> <svg version="1.1" id="If04f34440e7a44e2ba14a3377ddf5dcb20251106132945" width="100" height="100" viewBox="0 0 100 100" xmlns="http://www.w3.org/2000/svg" xmlns:svg="http://www.w3.org/2000/svg"> <defs id="Ia41aba0f2449414aad4c1e58885139db20251106132945" /> <g id="Iac64bb1260974292bed2c6d83c15bd1520251106132945"> <path id="Id2543f8519c4431c8bd855d3a9f9d5f420251106132945" d="m 54.91,34.82 c 9.617,0 17.41,7.797 17.41,17.41 0,9.618 -7.793,17.415 -17.41,17.415 -9.617,0 -17.41,-7.797 -17.41,-17.415 0,-9.613 7.793,-17.41 17.41,-17.41 z M 8.035,50.895 c 1.481,0 2.68,1.199 2.68,2.675 v 2.68 c 0,2.957 2.398,5.355 5.355,5.355 h 2.68 c 1.48,0 2.68,1.2 2.68,2.68 0,1.481 -1.2,2.68 -2.68,2.68 H 16.07 C 10.152,66.965 5.355,62.168 5.355,56.25 v -2.68 c 0,-1.476 1.2,-2.675 2.68,-2.675 z m 55.86,-7.645 c -0.524,-0.523 -1.372,-0.523 -1.895,0 l -7.09,7.09 -7.09,-7.09 c -0.519,-0.523 -1.371,-0.523 -1.89,0 -0.524,0.523 -0.524,1.371 0,1.895 l 7.086,7.085 -7.086,7.09 c -0.524,0.524 -0.524,1.371 0,1.895 0.519,0.523 1.371,0.523 1.89,0 l 7.09,-7.09 7.09,7.09 c 0.523,0.523 1.371,0.523 1.895,0 0.523,-0.524 0.523,-1.371 0,-1.895 l -7.09,-7.09 7.09,-7.085 c 0.523,-0.524 0.523,-1.372 0,-1.895 z M 18.75,21.43 c 1.48,0 2.68,1.199 2.68,2.675 v 26.79 c 0,1.476 -1.2,2.675 -2.68,2.675 -1.48,0 -2.68,-1.199 -2.68,-2.675 v -26.79 c 0,-1.476 1.2,-2.675 2.68,-2.675 z m 12.723,0 c 1.48,0 2.679,1.199 2.679,2.675 v 26.79 c 0,1.476 -1.199,2.675 -2.679,2.675 -1.481,0 -2.68,-1.199 -2.68,-2.675 v -26.79 c 0,-1.476 1.199,-2.675 2.68,-2.675 z m 12.054,0 c 1.481,0 2.68,1.199 2.68,2.675 v 10.016 c -1.992,0.957 -3.801,2.238 -5.359,3.766 V 24.105 c 0,-1.476 1.199,-2.675 2.679,-2.675 z m 12.723,0 c 1.48,0 2.68,1.199 2.68,2.675 v 8.438 c -1.301,-0.262 -2.645,-0.398 -4.02,-0.398 -0.449,0 -0.894,0.019 -1.34,0.046 v -8.086 c 0,-1.476 1.2,-2.675 2.68,-2.675 z M 18.75,8.035 c 1.48,0 2.68,1.199 2.68,2.68 0,1.48 -1.2,2.68 -2.68,2.68 h -2.68 c -2.957,0 -5.355,2.398 -5.355,5.355 v 2.68 c 0,1.476 -1.199,2.675 -2.68,2.675 -1.48,0 -2.68,-1.199 -2.68,-2.675 v -2.68 c 0,-5.918 4.797,-10.715 10.715,-10.715 z m 40.18,0 c 5.918,0 10.715,4.797 10.715,10.715 v 2.68 c 0,1.476 -1.2,2.675 -2.68,2.675 -1.481,0 -2.68,-1.199 -2.68,-2.675 v -2.68 c 0,-2.957 -2.398,-5.355 -5.355,-5.355 h -2.68 c -1.48,0 -2.68,-1.2 -2.68,-2.68 0,-1.481 1.2,-2.68 2.68,-2.68 z" style="fill:currentColor;fill-opacity:1;fill-rule:nonzero;stroke:none" transform="scale(1.3333333)" /> </g>
</svg>

