<?xml version="1.0" encoding="UTF-8" standalone="no"?> <svg version="1.1" id="Ibce227aa91f449bfae038d94885e630420251106123559" width="100" height="100" viewBox="0 0 100 100" xmlns="http://www.w3.org/2000/svg" xmlns:svg="http://www.w3.org/2000/svg"> <defs id="I62f4d70924f64a9684cb6c23b396ba6e20251106123559" /> <g id="I86d05ef0ba9c4639b78b54714ef30dfc20251106123559"> <path id="Ife667c99c7df469a8735e377774128a220251106123559" d="m 4.688,67.969 c 0,1.293 1.05,2.343 2.343,2.343 1.293,0 2.344,-1.05 2.344,-2.343 V 7.031 c 0,-1.293 -1.051,-2.343 -2.344,-2.343 -1.293,0 -2.343,1.05 -2.343,2.343 z m 32.812,0 c 0,1.293 1.051,2.343 2.344,2.343 1.293,0 2.344,-1.05 2.344,-2.343 V 7.031 c 0,-1.293 -1.051,-2.343 -2.344,-2.343 -1.293,0 -2.344,1.05 -2.344,2.343 z M 21.094,60.938 c -3.883,0 -7.032,-3.149 -7.032,-7.032 V 21.094 c 0,-3.883 3.149,-7.032 7.032,-7.032 h 4.687 c 3.883,0 7.031,3.149 7.031,7.032 v 32.812 c 0,3.883 -3.148,7.032 -7.031,7.032 z M 18.75,53.906 c 0,1.293 1.051,2.344 2.344,2.344 h 4.687 c 1.293,0 2.344,-1.051 2.344,-2.344 V 21.094 c 0,-1.293 -1.051,-2.344 -2.344,-2.344 h -4.687 c -1.293,0 -2.344,1.051 -2.344,2.344 z m 28.125,-9.375 c 0,3.883 3.148,7.031 7.031,7.031 h 4.688 c 3.883,0 7.031,-3.148 7.031,-7.031 V 30.469 c 0,-3.883 -3.148,-7.031 -7.031,-7.031 h -4.688 c -3.883,0 -7.031,3.148 -7.031,7.031 z m 7.031,2.344 c -1.293,0 -2.344,-1.051 -2.344,-2.344 V 30.469 c 0,-1.293 1.051,-2.344 2.344,-2.344 h 4.688 c 1.293,0 2.344,1.051 2.344,2.344 v 14.062 c 0,1.293 -1.051,2.344 -2.344,2.344 z" style="fill:currentColor;fill-opacity:1;fill-rule:nonzero;stroke:none" transform="scale(1.3333333)" /> </g>
</svg>

