<?xml version="1.0" encoding="UTF-8" standalone="no"?> <svg version="1.1" id="Id5f4cc64434845f1895676248c939fbf20251106151526" width="100" height="100" viewBox="0 0 100 100" xmlns="http://www.w3.org/2000/svg" xmlns:svg="http://www.w3.org/2000/svg"> <defs id="Ice1a005b5c26469580c1522077d0d60220251106151526" /> <g id="I3201926d9fbc435da850d4fa4db86ecd20251106151526"> <path id="Id7c7fed6602a40b68194fc193ff3bb9520251106151526" d="m 50.781,39.062 h -12.5 c -1.293,0 -2.343,-1.05 -2.343,-2.343 v -18.75 c 0,-1.293 1.05,-2.344 2.343,-2.344 1.293,0 2.344,1.051 2.344,2.344 v 16.406 h 10.156 c 1.293,0 2.344,1.051 2.344,2.344 0,1.293 -1.051,2.343 -2.344,2.343 z M 40.625,3.125 c -17.258,0 -31.25,13.992 -31.25,31.25 0,1.047 0.051,2.078 0.152,3.098 3.125,-1.965 6.825,-3.098 10.785,-3.098 11.219,0 20.313,9.094 20.313,20.313 0,3.96 -1.133,7.66 -3.098,10.785 1.02,0.101 2.051,0.152 3.098,0.152 17.258,0 31.25,-13.992 31.25,-31.25 0,-17.258 -13.992,-31.25 -31.25,-31.25 z M 37.5,54.688 C 37.5,64.18 29.805,71.875 20.312,71.875 10.82,71.875 3.125,64.18 3.125,54.688 3.125,45.195 10.82,37.5 20.312,37.5 29.805,37.5 37.5,45.195 37.5,54.688 Z M 15.168,47.332 c -0.609,-0.609 -1.602,-0.609 -2.211,0 -0.609,0.609 -0.609,1.602 0,2.211 l 5.145,5.145 -5.145,5.144 c -0.609,0.609 -0.609,1.602 0,2.211 0.609,0.609 1.602,0.609 2.211,0 l 5.144,-5.145 5.145,5.145 c 0.609,0.609 1.602,0.609 2.211,0 0.609,-0.609 0.609,-1.602 0,-2.211 l -5.145,-5.144 5.145,-5.145 c 0.609,-0.609 0.609,-1.602 0,-2.211 -0.609,-0.609 -1.602,-0.609 -2.211,0 l -5.145,5.145 z" style="fill:currentColor;fill-opacity:1;fill-rule:nonzero;stroke:none" transform="scale(1.3333333)" /> </g>
</svg>

