<?xml version="1.0" encoding="UTF-8" standalone="no"?> <svg version="1.1" id="I3038c57429f74b208f2b8ab4ce3bc91b20251110133654" width="100" height="100" viewBox="0 0 100 100" xmlns="http://www.w3.org/2000/svg" xmlns:svg="http://www.w3.org/2000/svg"> <defs id="I55fbf22f99684365bef72c5b96ce579a20251110133654" /> <g id="I7b4c415dc4b2465b83b2e679f6ce422920251110133654"> <path id="Ib8f1b5a7a6e541edb3a690f39534914c20251110133654" d="m 15.414,10.715 c -5.551,0 -10.047,4.496 -10.047,10.043 v 33.484 c 0,5.547 4.496,10.043 10.047,10.043 h 44.184 c 5.55,0 10.047,-4.496 10.047,-10.043 V 20.758 c 0,-5.547 -4.497,-10.043 -10.047,-10.043 z M 9.387,20.758 c 0,-3.328 2.695,-6.028 6.027,-6.028 h 44.184 c 3.332,0 6.027,2.7 6.027,6.028 v 33.484 c 0,3.328 -2.695,6.028 -6.027,6.028 H 15.414 c -3.332,0 -6.027,-2.7 -6.027,-6.028 z m 17.398,6.699 v 20.09 c 0,2.023 2.16,3.316 3.945,2.359 L 49.477,39.863 c 1.886,-1.008 1.886,-3.711 0,-4.722 L 30.73,25.098 c -1.785,-0.957 -3.945,0.336 -3.945,2.359 z" style="fill:currentColor;fill-opacity:1;fill-rule:nonzero;stroke:none" transform="scale(1.3333333)" /> </g>
</svg>

