<?xml version="1.0" encoding="UTF-8" standalone="no"?> <svg version="1.1" id="Ia64629967a0342f09b5a8c36de26c45720251106152729" width="100" height="100" viewBox="0 0 100 100" xmlns="http://www.w3.org/2000/svg" xmlns:svg="http://www.w3.org/2000/svg"> <defs id="I684801acbe5449c5982e0abb2cddf01720251106152729" /> <g id="Iecf7df1eabca4cd2a3540e92d8d9659720251106152729"> <path id="I751b3b620d9e45639fa9afbc972324d520251106152729" d="m 31.859,5.395 30.805,6.027 c 0.941,0.183 1.621,1.012 1.621,1.973 v 48.214 c 0,0.961 -0.68,1.786 -1.621,1.969 l -30.805,6.027 c -1.242,0.243 -2.394,-0.707 -2.394,-1.972 V 7.367 c 0,-1.265 1.152,-2.215 2.394,-1.972 z M 40.18,34.82 c -1.481,0 -2.68,1.2 -2.68,2.68 0,1.48 1.199,2.68 2.68,2.68 1.476,0 2.675,-1.2 2.675,-2.68 0,-1.48 -1.199,-2.68 -2.675,-2.68 z M 26.785,12.055 v 50.89 H 12.723 c -1.016,0 -1.856,-0.754 -1.989,-1.734 L 10.715,60.938 V 14.062 c 0,-1.015 0.754,-1.855 1.734,-1.988 l 0.274,-0.019 z" style="fill:currentColor;fill-opacity:1;fill-rule:nonzero;stroke:none" transform="scale(1.3333333)" /> </g>
</svg>

