<?xml version="1.0" encoding="UTF-8" standalone="no"?> <svg version="1.1" id="I4bb8cd552d20426a8d09c41a5cd5d90720251110133655" width="100" height="100" viewBox="0 0 100 100" xmlns="http://www.w3.org/2000/svg" xmlns:svg="http://www.w3.org/2000/svg"> <defs id="I51e96daf51644462a7cc581c3011337320251110133655" /> <g id="I8002d826032a482a8c9fdbf88485006c20251110133655"> <path id="Ifc5d6a162ead4683b31e993730dce79c20251110133655" d="m 20.918,34.164 c -0.199,0.461 -0.297,0.957 -0.293,1.461 0.012,0.512 0.109,1.02 0.293,1.5 0.172,0.441 0.441,0.844 0.789,1.164 0.352,0.332 0.758,0.602 1.203,0.793 0.461,0.199 0.961,0.297 1.465,0.293 0.504,0.023 1.008,-0.078 1.465,-0.293 0.449,-0.199 0.855,-0.477 1.203,-0.82 0.332,-0.336 0.602,-0.735 0.789,-1.172 0.199,-0.461 0.297,-0.961 0.293,-1.465 0,-0.504 -0.098,-1 -0.293,-1.461 -0.184,-0.457 -0.465,-0.867 -0.82,-1.207 -0.352,-0.328 -0.758,-0.598 -1.2,-0.789 -0.453,-0.195 -0.945,-0.297 -1.437,-0.293 -0.504,-0.016 -1.008,0.09 -1.465,0.305 -0.445,0.199 -0.851,0.48 -1.203,0.82 -0.332,0.336 -0.602,0.73 -0.789,1.164 z m 0,15 c -0.199,0.461 -0.297,0.957 -0.293,1.461 0.012,0.512 0.109,1.016 0.293,1.496 0.172,0.445 0.441,0.844 0.789,1.168 0.352,0.332 0.758,0.602 1.203,0.793 0.461,0.199 0.961,0.297 1.465,0.293 0.504,0.023 1.008,-0.078 1.465,-0.293 0.445,-0.199 0.851,-0.477 1.203,-0.816 0.332,-0.34 0.602,-0.739 0.789,-1.176 0.199,-0.461 0.297,-0.961 0.293,-1.465 0,-0.504 -0.098,-1 -0.293,-1.461 -0.184,-0.457 -0.465,-0.867 -0.82,-1.207 -0.352,-0.328 -0.758,-0.594 -1.2,-0.785 -0.453,-0.199 -0.941,-0.301 -1.437,-0.297 -0.504,-0.02 -1.008,0.082 -1.465,0.297 -0.445,0.199 -0.851,0.476 -1.203,0.816 -0.332,0.34 -0.602,0.739 -0.789,1.176 z M 35.809,37.5 c -0.536,0.008 -1.055,-0.191 -1.45,-0.555 V 36.93 c -0.187,-0.16 -0.339,-0.364 -0.445,-0.59 -0.102,-0.227 -0.156,-0.473 -0.156,-0.723 0,-0.25 0.054,-0.496 0.156,-0.722 0.106,-0.227 0.258,-0.426 0.445,-0.59 0.395,-0.364 0.914,-0.563 1.45,-0.555 h 16.5 c 0.539,-0.004 1.062,0.199 1.453,0.57 0.187,0.164 0.34,0.364 0.445,0.59 0.102,0.227 0.156,0.473 0.156,0.723 0,0.25 -0.054,0.496 -0.156,0.722 -0.105,0.227 -0.258,0.426 -0.445,0.59 -0.395,0.364 -0.914,0.563 -1.453,0.555 z m -1.45,14.445 c 0.395,0.364 0.914,0.563 1.45,0.555 h 16.5 c 0.539,0.008 1.058,-0.191 1.453,-0.555 0.187,-0.164 0.34,-0.363 0.445,-0.59 0.102,-0.226 0.156,-0.472 0.156,-0.722 0,-0.25 -0.054,-0.496 -0.156,-0.723 -0.105,-0.226 -0.258,-0.426 -0.445,-0.59 -0.395,-0.367 -0.914,-0.574 -1.453,-0.57 h -16.5 c -0.536,-0.008 -1.055,0.191 -1.45,0.555 -0.187,0.164 -0.339,0.363 -0.445,0.59 -0.102,0.226 -0.156,0.472 -0.156,0.722 0,0.25 0.054,0.496 0.156,0.723 0.106,0.226 0.258,0.43 0.445,0.59 z M 22.5,11.25 c -6.215,0 -11.25,5.035 -11.25,11.25 v 30 c 0,6.215 5.035,11.25 11.25,11.25 h 30 c 6.215,0 11.25,-5.035 11.25,-11.25 v -30 C 63.75,16.285 58.715,11.25 52.5,11.25 Z M 15,52.5 V 26.25 H 60 V 52.5 c 0,4.141 -3.359,7.5 -7.5,7.5 h -30 C 18.359,60 15,56.641 15,52.5 Z" style="fill:currentColor;fill-opacity:1;fill-rule:nonzero;stroke:none" transform="scale(1.3333333)" /> </g>
</svg>

