<?xml version="1.0" encoding="UTF-8" standalone="no"?> <svg version="1.1" id="I47a936cb5e9e46ae89785bb7f03dcd0c20251110123031" width="100" height="100" viewBox="0 0 100 100" xmlns="http://www.w3.org/2000/svg" xmlns:svg="http://www.w3.org/2000/svg"> <defs id="Ib43305aae9a14a0496420ebf510b811220251110123031" /> <g id="I0bb9be18530844cb812550366db0049120251110123031"> <path id="I09c3659a52164ac7b1562ba2e53fa92820251110123031" d="M 42.969,6.25 C 46.852,6.25 50,9.398 50,13.281 v 22.145 c -3.695,1.758 -6.25,5.523 -6.25,9.886 0,3.059 1.258,5.829 3.281,7.813 H 46.164 C 41.383,53.125 37.5,57 37.5,61.789 v 0.32 c 0,2.313 0.668,4.625 2.078,6.641 H 19.531 C 15.648,68.75 12.5,65.602 12.5,61.719 V 13.281 c 0,-3.883 3.148,-7.031 7.031,-7.031 z m -7.813,50 h -7.812 c -1.293,0 -2.344,1.051 -2.344,2.344 0,1.293 1.051,2.344 2.344,2.344 h 7.812 c 1.293,0 2.344,-1.051 2.344,-2.344 0,-1.293 -1.051,-2.344 -2.344,-2.344 z M 62.5,45.312 c 0,4.317 -3.496,7.813 -7.812,7.813 -4.317,0 -7.813,-3.496 -7.813,-7.813 0,-4.316 3.496,-7.812 7.813,-7.812 4.316,0 7.812,3.496 7.812,7.812 z m 6.25,16.797 c 0,4.864 -4.02,9.766 -14.062,9.766 -10.043,0 -14.063,-4.883 -14.063,-9.766 v -0.32 c 0,-3.062 2.48,-5.539 5.539,-5.539 h 17.047 c 3.059,0 5.539,2.477 5.539,5.539 z" style="fill:currentColor;fill-opacity:1;fill-rule:nonzero;stroke:none" transform="scale(1.3333333)" /> </g>
</svg>

