<?xml version="1.0" encoding="UTF-8" standalone="no"?> <svg version="1.1" id="I13d530865a444e7682ca7e57a07034a420251106102216" width="100" height="100" viewBox="0 0 100 100" xmlns="http://www.w3.org/2000/svg" xmlns:svg="http://www.w3.org/2000/svg"> <defs id="I1c043ec5a5fb4458bf9af887a6b782c920251106102216" /> <g id="I6b283f33a4274f579901cb282c49f41120251106102216"> <path id="I9aacb37582ea49569820551d7b5cb7fc20251106102216" d="m 20.766,44.156 c 0.261,0.258 0.687,0.258 0.949,0 l 8.519,-8.523 7.207,7.215 c 0.258,0.261 0.688,0.261 0.946,0 L 57.328,23.891 c 0.262,-0.262 0.262,-0.688 0,-0.946 L 54.25,19.863 c -0.262,-0.258 -0.684,-0.258 -0.945,0 L 37.918,35.266 30.711,28.051 c -0.262,-0.262 -0.684,-0.262 -0.945,0 L 17.688,40.129 c -0.262,0.262 -0.262,0.683 0,0.945 z" style="fill:currentColor;fill-opacity:1;fill-rule:nonzero;stroke:none" transform="scale(1.3333333)" /> <path id="I504b7b8c20884d0280f1c08953ecdfc920251106102216" d="m 70.312,8.035 h -29.8 V 2.68 c 0,-0.371 -0.301,-0.672 -0.668,-0.672 h -4.688 c -0.367,0 -0.668,0.301 -0.668,0.672 v 5.355 h -29.8 c -1.481,0 -2.68,1.199 -2.68,2.68 v 43.527 c 0,1.481 1.199,2.676 2.68,2.676 H 34.52 v 2.68 l -13.793,9.05 c -0.309,0.2 -0.395,0.614 -0.196,0.918 l 2.539,3.954 v 0.007 c 0.2,0.309 0.618,0.395 0.93,0.192 L 37.5,64.863 51,73.719 c 0.312,0.203 0.73,0.117 0.93,-0.192 V 73.52 l 2.539,-3.954 c 0.195,-0.308 0.109,-0.718 -0.196,-0.918 L 40.512,59.625 v -2.707 h 29.8 c 1.481,0 2.68,-1.195 2.68,-2.676 V 10.715 c 0,-1.481 -1.199,-2.68 -2.68,-2.68 z m -3.347,42.86 H 8.035 V 14.062 h 58.93 z" style="fill:currentColor;fill-opacity:1;fill-rule:nonzero;stroke:none" transform="scale(1.3333333)" /> </g>
</svg>

