<?xml version="1.0" encoding="UTF-8" standalone="no"?> <svg version="1.1" id="If53989426b9c4228a2baad62ec4ff83020251106163937" width="100" height="100" viewBox="0 0 100 100" xmlns="http://www.w3.org/2000/svg" xmlns:svg="http://www.w3.org/2000/svg"> <defs id="I7f214bcb04004366b54994cbea006f9720251106163937" /> <g id="I6207f96711b8425f98bfbee7f82d7f2a20251106163937"> <path id="Id2c7f6daac184021a79559d93cfd23ff20251106163937" d="M 4.688,19.922 C 4.688,14.098 9.41,9.375 15.234,9.375 h 44.532 c 5.824,0 10.546,4.723 10.546,10.547 v 35.156 c 0,5.824 -4.722,10.547 -10.546,10.547 H 15.234 C 9.41,65.625 4.688,60.902 4.688,55.078 Z m 10.546,-5.86 c -3.234,0 -5.859,2.626 -5.859,5.86 v 35.156 c 0,3.234 2.625,5.86 5.859,5.86 h 44.532 c 3.234,0 5.859,-2.626 5.859,-5.86 V 19.922 c 0,-3.234 -2.625,-5.86 -5.859,-5.86 z m 41.016,7.032 c 0,-1.293 1.051,-2.344 2.344,-2.344 1.293,0 2.344,1.051 2.344,2.344 v 4.687 c 0,1.293 -1.051,2.344 -2.344,2.344 -1.293,0 -2.344,-1.051 -2.344,-2.344 z m 2.344,11.718 c -1.293,0 -2.344,1.051 -2.344,2.344 v 4.688 c 0,1.293 1.051,2.344 2.344,2.344 1.293,0 2.344,-1.051 2.344,-2.344 v -4.688 c 0,-1.293 -1.051,-2.344 -2.344,-2.344 z M 56.25,49.219 c 0,-1.293 1.051,-2.344 2.344,-2.344 1.293,0 2.344,1.051 2.344,2.344 v 4.687 c 0,1.293 -1.051,2.344 -2.344,2.344 -1.293,0 -2.344,-1.051 -2.344,-2.344 z M 16.406,18.75 c -1.293,0 -2.344,1.051 -2.344,2.344 v 4.687 c 0,1.293 1.051,2.344 2.344,2.344 1.293,0 2.344,-1.051 2.344,-2.344 v -4.687 c 0,-1.293 -1.051,-2.344 -2.344,-2.344 z m -2.344,16.406 c 0,-1.293 1.051,-2.344 2.344,-2.344 1.293,0 2.344,1.051 2.344,2.344 v 4.688 c 0,1.293 -1.051,2.344 -2.344,2.344 -1.293,0 -2.344,-1.051 -2.344,-2.344 z m 2.344,11.719 c -1.293,0 -2.344,1.051 -2.344,2.344 v 4.687 c 0,1.293 1.051,2.344 2.344,2.344 1.293,0 2.344,-1.051 2.344,-2.344 v -4.687 c 0,-1.293 -1.051,-2.344 -2.344,-2.344 z" style="fill:currentColor;fill-opacity:1;fill-rule:nonzero;stroke:none" transform="scale(1.3333333)" /> </g>
</svg>

