<?xml version="1.0" encoding="UTF-8" standalone="no"?> <svg version="1.1" id="I1f884f5a496a4d01bca19200ad43ee6d20251106152729" width="100" height="100" viewBox="0 0 100 100" xmlns="http://www.w3.org/2000/svg" xmlns:svg="http://www.w3.org/2000/svg"> <defs id="I92eee608ede64894b723a6852a3a1a9320251106152729" /> <g id="I2ed226ed91ea4740b248169632afbd6520251106152729"> <path id="I16f6bd0a5f044a948232176a0a34065d20251106152729" d="m 37.5,70.312 c -10.449,0 -28.125,-1.972 -28.125,-9.374 0,-0.188 0.02,-0.372 0.066,-0.551 L 9.66,59.449 C 9.699,59.289 9.758,59.133 9.828,58.98 L 35.391,6.012 c 0.214,-0.367 0.523,-0.676 0.89,-0.887 0.371,-0.215 0.793,-0.328 1.219,-0.328 0.426,0 0.848,0.113 1.219,0.328 0.367,0.211 0.676,0.52 0.89,0.887 L 65.172,58.98 c 0.07,0.153 0.129,0.309 0.168,0.469 l 0.219,0.938 c 0.046,0.179 0.066,0.363 0.066,0.551 0,7.402 -17.676,9.374 -28.125,9.374 z M 14.109,61.027 c 0.922,1.598 9.493,4.598 23.391,4.598 13.781,0 22.328,-2.949 23.383,-4.645 L 60.84,60.801 37.5,12.426 Z" style="fill:currentColor;fill-opacity:1;fill-rule:nonzero;stroke:none" transform="scale(1.3333333)" /> </g>
</svg>

