<?xml version="1.0" encoding="UTF-8" standalone="no"?> <svg version="1.1" id="I0e9f43ccb820488a9bd2b4d24fd3f79620251110124419" width="100" height="100" viewBox="0 0 100 100" xmlns="http://www.w3.org/2000/svg" xmlns:svg="http://www.w3.org/2000/svg"> <defs id="If41c4af72cf3491b88ac5185d020d96f20251110124419" /> <g id="Idc6a5fe0bb9f4d51b19039c56831987220251110124419"> <path id="Iba697ad10155490c97d8429fc925bc8c20251110124419" d="m 19.004,48.785 c -1.066,4 1.312,8.117 5.312,9.195 l 20.477,5.512 c 4,1.074 8.105,-1.297 9.176,-5.301 L 63.496,22.484 C 64.562,18.48 62.184,14.363 58.184,13.289 L 37.707,7.777 c -4,-1.078 -8.105,1.293 -9.176,5.297 z M 18.75,15.008 V 35.191 L 25.395,10.289 C 25.664,9.27 26.094,8.336 26.648,7.508 H 26.25 c -4.141,0 -7.5,3.355 -7.5,7.5 z M 10.012,20.648 15,39.262 V 15.008 c 0,-1.27 0.211,-2.485 0.594,-3.621 l -0.278,0.074 c -4,1.074 -6.375,5.184 -5.304,9.187 z M 48.75,22.5 c 0,2.07 -1.68,3.75 -3.75,3.75 -2.07,0 -3.75,-1.68 -3.75,-3.75 0,-2.07 1.68,-3.75 3.75,-3.75 2.07,0 3.75,1.68 3.75,3.75 z m -11.25,30 c -2.07,0 -3.75,-1.68 -3.75,-3.75 0,-2.07 1.68,-3.75 3.75,-3.75 2.07,0 3.75,1.68 3.75,3.75 0,2.07 -1.68,3.75 -3.75,3.75 z" style="fill:currentColor;fill-opacity:1;fill-rule:nonzero;stroke:none" transform="scale(1.3333333)" /> </g>
</svg>

