<?xml version="1.0" encoding="UTF-8" standalone="no"?> <svg version="1.1" id="I93742a46fd2e4e99a8018766e6abe00620251106144520" width="100" height="100" viewBox="0 0 100 100" xmlns="http://www.w3.org/2000/svg" xmlns:svg="http://www.w3.org/2000/svg"> <defs id="If20fcf51143c4beaa417b07e55ae67dd20251106144520"> <clipPath clipPathUnits="userSpaceOnUse" id="Ia1b7fa00e5f945c7ab0d37e31a029e1820251106144520"> <path d="M 0,0 H 76 V 76 H 0 Z" id="Ic130d963835247fd9aa6ef7ea6da159820251106144520" /> </clipPath> </defs> <g id="I7c84ca01dccb4267bd149a1647fd8e2c20251106144520"> <g opacity="0.99" id="I03063e7c08ad48999457dc0e96113b7e20251106144520"> <path d="m 37.5,7.5 c 16.57,0 30,13.43 30,30 0,0.32 -0.004,0.637 -0.016,0.953 -1.16,-0.957 -2.425,-1.789 -3.777,-2.476 C 62.918,22.188 51.484,11.25 37.5,11.25 c -14.496,0 -26.25,11.754 -26.25,26.25 0,4.562 1.164,8.953 3.352,12.844 0.175,0.312 0.257,0.668 0.238,1.019 l -0.055,0.356 -2.832,11.328 11.34,-2.828 c 0.23,-0.059 0.469,-0.071 0.703,-0.039 l 0.344,0.078 0.324,0.144 c 3.453,1.942 7.301,3.075 11.313,3.305 0.687,1.352 1.519,2.617 2.476,3.777 C 38.137,67.496 37.82,67.5 37.5,67.5 32.727,67.5 28.109,66.383 23.949,64.273 L 23.496,64.031 9.828,67.445 C 8.668,67.734 7.598,66.887 7.504,65.789 V 65.484 L 7.555,65.172 10.969,51.508 10.73,51.059 C 9.023,47.695 7.965,44.035 7.621,40.23 L 7.527,38.797 7.5,37.5 c 0,-16.57 13.43,-30 30,-30 z m 33.75,46.875 c 0,9.32 -7.555,16.875 -16.875,16.875 -9.32,0 -16.875,-7.555 -16.875,-16.875 0,-9.32 7.555,-16.875 16.875,-16.875 9.32,0 16.875,7.555 16.875,16.875 z M 50.074,50.074 c 0.735,-0.73 0.735,-1.918 0,-2.648 -0.73,-0.735 -1.918,-0.735 -2.648,0 l -5.625,5.625 c -0.735,0.73 -0.735,1.918 0,2.648 l 5.625,5.625 c 0.73,0.735 1.918,0.735 2.648,0 0.735,-0.73 0.735,-1.918 0,-2.648 l -4.297,-4.301 z m 6.953,2.426 2.422,-2.426 c 0.735,-0.73 0.735,-1.918 0,-2.648 -0.73,-0.735 -1.918,-0.735 -2.648,0 l -5.625,5.625 c -0.735,0.73 -0.735,1.918 0,2.648 l 5.625,5.625 c 0.73,0.735 1.918,0.735 2.648,0 0.735,-0.73 0.735,-1.918 0,-2.648 L 57.027,56.25 h 6.723 v 1.875 C 63.75,59.16 64.59,60 65.625,60 66.66,60 67.5,59.16 67.5,58.125 V 56.25 c 0,-2.07 -1.68,-3.75 -3.75,-3.75 z" style="fill:currentColor;fill-opacity:1;fill-rule:nonzero;stroke:none" transform="scale(1.3333333)" clip-path="url(#Ia1b7fa00e5f945c7ab0d37e31a029e1820251106144520)" id="I987e50063d844cf089a5e49881275be420251106144520" /> </g> </g>
</svg>

