<?xml version="1.0" encoding="UTF-8" standalone="no"?> <svg version="1.1" id="I188b9d2118ee4d1a9be13f0aa4114c0620251106105802" width="100" height="100" viewBox="0 0 100 100" xmlns="http://www.w3.org/2000/svg" xmlns:svg="http://www.w3.org/2000/svg"> <defs id="Iad2a0e33d7184417b049702deba01fd920251106105802" /> <g id="Ib8ad9360364b4d0a830944befa22d6d420251106105802"> <path id="I68a7921b07894e09827d379927c7b23a20251106105802" d="m 68.797,39.316 c 1.406,-1.859 2.183,-4.136 2.183,-6.504 0,-3.757 -2.097,-7.316 -5.48,-9.3 -0.871,-0.508 -1.863,-0.778 -2.871,-0.778 H 42.555 L 43.059,12.445 C 43.176,9.961 42.297,7.602 40.59,5.801 38.895,4.008 36.535,2.996 34.066,3.004 c -4.351,0 -8.203,2.93 -9.355,7.125 L 17.52,36.16 H 6.695 c -1.48,0 -2.675,1.199 -2.675,2.68 v 30.469 c 0,1.48 1.195,2.679 2.675,2.679 h 50.332 c 0.77,0 1.524,-0.152 2.219,-0.453 3.984,-1.699 6.555,-5.594 6.555,-9.91 0,-1.055 -0.153,-2.094 -0.453,-3.098 1.406,-1.859 2.187,-4.136 2.187,-6.504 0,-1.054 -0.152,-2.093 -0.453,-3.097 1.406,-1.86 2.184,-4.137 2.184,-6.504 C 69.25,41.367 69.098,40.32 68.797,39.316 Z M 10.043,65.961 V 42.188 h 6.781 v 23.773 z m 53.273,-29.551 -1.836,1.594 1.165,2.125 c 0.382,0.699 0.582,1.484 0.578,2.285 0,1.379 -0.602,2.695 -1.641,3.598 l -1.832,1.59 1.164,2.128 c 0.383,0.7 0.582,1.485 0.574,2.286 0,1.379 -0.601,2.695 -1.64,3.597 l -1.832,1.59 1.164,2.129 c 0.382,0.699 0.582,1.484 0.578,2.285 0,1.875 -1.106,3.563 -2.813,4.336 H 22.184 V 41.918 l 8.328,-30.176 c 0.441,-1.586 1.883,-2.691 3.531,-2.703 0.637,0 1.266,0.184 1.766,0.563 0.828,0.617 1.273,1.554 1.222,2.55 l -0.804,16.61 h 26.316 c 1.492,0.91 2.414,2.453 2.414,4.05 0,1.383 -0.605,2.688 -1.641,3.598 z" style="fill:currentColor;fill-opacity:1;fill-rule:nonzero;stroke:none" transform="scale(1.3333333)" /> </g>
</svg>

