<?xml version="1.0" encoding="UTF-8" standalone="no"?> <svg version="1.1" id="I0e06382cc0f1452fb741325ccf96c7a720251110130509" width="100" height="100" viewBox="0 0 100 100" xmlns="http://www.w3.org/2000/svg" xmlns:svg="http://www.w3.org/2000/svg"> <defs id="Ib93e0ddff0b44a5b83767448005112f520251110130509" /> <g id="Ifecf1f60012848819a7c012c593dd17320251110130509"> <path id="I4a5a18500ffb4d718d0ab6a2630c56c920251110130509" d="m 19.531,9.375 c -5.609,0 -10.156,4.547 -10.156,10.156 v 35.938 c 0,5.609 4.547,10.156 10.156,10.156 h 35.938 c 5.609,0 10.156,-4.547 10.156,-10.156 V 19.531 c 0,-5.609 -4.547,-10.156 -10.156,-10.156 z m -5.469,10.156 c 0,-3.019 2.45,-5.469 5.469,-5.469 h 35.938 c 3.019,0 5.469,2.45 5.469,5.469 v 7.031 H 14.062 Z M 31.25,31.25 h 12.5 v 12.5 h -12.5 z m -4.688,0 v 12.5 h -12.5 v -12.5 z m 0,17.188 v 12.5 h -7.031 c -3.019,0 -5.469,-2.45 -5.469,-5.469 v -7.031 z m 4.688,12.5 v -12.5 h 12.5 v 12.5 z M 48.438,43.75 v -12.5 h 12.5 v 12.5 z m 0,4.688 h 12.5 v 7.031 c 0,3.019 -2.45,5.469 -5.469,5.469 h -7.031 z" style="fill:currentColor;fill-opacity:1;fill-rule:nonzero;stroke:none" transform="scale(1.3333333)" /> </g>
</svg>

