<?xml version="1.0" encoding="UTF-8" standalone="no"?> <svg version="1.1" id="I7db9729908db4598b137b0412450747420251106155156" width="100" height="100" viewBox="0 0 100 100" xmlns="http://www.w3.org/2000/svg" xmlns:svg="http://www.w3.org/2000/svg"> <defs id="I2f48d382b3674b95b65273a623cc0e8820251106155156" /> <g id="I6e9ba4ed87a241b5bb85ff2863013dbc20251106155156"> <path id="I3d6f764309af48db935a37cf8e84df6e20251106155156" d="m 19.531,9.375 c -5.609,0 -10.156,4.547 -10.156,10.156 v 35.938 c 0,5.609 4.547,10.156 10.156,10.156 h 35.938 c 5.609,0 10.156,-4.547 10.156,-10.156 V 19.531 c 0,-5.609 -4.547,-10.156 -10.156,-10.156 z m 6.157,16.313 c 0.914,-0.918 2.398,-0.918 3.312,0 l 8.5,8.496 8.5,-8.496 c 0.914,-0.918 2.398,-0.918 3.312,0 0.918,0.914 0.918,2.398 0,3.312 l -8.496,8.5 8.496,8.5 c 0.918,0.914 0.918,2.398 0,3.312 -0.914,0.918 -2.398,0.918 -3.312,0 L 37.5,40.816 29,49.312 c -0.914,0.918 -2.398,0.918 -3.312,0 -0.918,-0.914 -0.918,-2.398 0,-3.312 L 34.184,37.5 25.688,29 c -0.918,-0.914 -0.918,-2.398 0,-3.312 z" style="fill:currentColor;fill-opacity:1;fill-rule:nonzero;stroke:none" transform="scale(1.3333333)" /> </g>
</svg>

