<?xml version="1.0" encoding="UTF-8" standalone="no"?> <svg version="1.1" id="I2c92ac1935e1459db150f59b94e9c67f20251110135155" width="100" height="100" viewBox="0 0 100 100" xmlns="http://www.w3.org/2000/svg" xmlns:svg="http://www.w3.org/2000/svg"> <defs id="I32ef2826b4cb4a898ed75fc528962a9020251110135155" /> <g id="I09e5e9c6344445f59ce7d5d309c4890c20251110135155"> <path id="I183495be5e9849adb4c8c07534b1925520251110135155" d="M 66.406,53.125 H 27.344 c -1.293,0 -2.344,1.051 -2.344,2.344 0,1.187 0.883,2.168 2.027,2.324 l 0.317,0.019 h 39.062 c 1.293,0 2.344,-1.05 2.344,-2.343 0,-1.188 -0.883,-2.168 -2.027,-2.324 l -0.317,-0.02 H 27.344 Z m 0,-12.5 H 8.594 c -1.293,0 -2.344,1.051 -2.344,2.344 0,1.187 0.883,2.168 2.027,2.324 l 0.317,0.019 h 57.812 c 1.293,0 2.344,-1.05 2.344,-2.343 0,-1.188 -0.883,-2.168 -2.027,-2.324 l -0.317,-0.02 H 8.594 Z m 0,-12.5 H 8.594 c -1.293,0 -2.344,1.051 -2.344,2.344 0,1.187 0.883,2.168 2.027,2.324 l 0.317,0.019 h 57.812 c 1.293,0 2.344,-1.05 2.344,-2.343 0,-1.188 -0.883,-2.168 -2.027,-2.324 l -0.317,-0.02 H 8.594 Z m 0,-12.5 H 8.594 c -1.293,0 -2.344,1.051 -2.344,2.344 0,1.187 0.883,2.168 2.027,2.324 l 0.317,0.019 h 57.812 c 1.293,0 2.344,-1.05 2.344,-2.343 0,-1.188 -0.883,-2.168 -2.027,-2.324 l -0.317,-0.02 H 8.594 Z" style="fill:currentColor;fill-opacity:1;fill-rule:nonzero;stroke:none" transform="scale(1.3333333)" /> </g>
</svg>

