<?xml version="1.0" encoding="UTF-8" standalone="no"?> <svg version="1.1" id="I4819bac1bfb14faba108fdc7812c07db20251110130509" width="100" height="100" viewBox="0 0 100 100" xmlns="http://www.w3.org/2000/svg" xmlns:svg="http://www.w3.org/2000/svg"> <defs id="I1cad8c57b57944028a6021349c2164f420251110130509" /> <g id="Ide6ab7102f66402ea49e8e130b16618820251110130509"> <path id="I263787e4aad64bb2adc0554e568d956d20251110130509" d="m 9.375,19.531 c 0,-5.609 4.547,-10.156 10.156,-10.156 h 35.934 c 5.609,0 10.156,4.547 10.156,10.156 V 34.41 c -1.582,-0.137 -3.191,0.094 -4.687,0.688 V 31.25 h -12.5 v 12.496 h 2.671 l -7.359,7.359 V 48.434 H 31.25 v 12.5 h 4.812 C 36.043,61.012 36.02,61.094 36,61.172 l -1.109,4.449 h -15.36 c -5.609,0 -10.156,-4.547 -10.156,-10.156 z m 10.156,-5.469 c -3.019,0 -5.469,2.45 -5.469,5.469 v 7.031 h 12.5 v -12.5 z M 14.062,31.25 v 12.496 h 12.5 V 31.25 Z m 17.188,0 V 43.746 H 43.746 V 31.25 Z m 17.184,-4.688 h 12.5 v -7.031 c 0,-3.019 -2.45,-5.469 -5.469,-5.469 h -7.031 z m -4.688,-12.5 H 31.25 v 12.5 H 43.746 Z M 14.062,48.434 v 7.031 c 0,3.019 2.45,5.469 5.469,5.469 h 7.031 v -12.5 z M 61.766,38.141 c -0.286,0.129 -0.563,0.281 -0.832,0.449 -0.446,0.281 -0.864,0.613 -1.25,1 L 41.238,58.031 c -0.828,0.828 -1.468,1.817 -1.89,2.903 -0.125,0.324 -0.231,0.656 -0.317,0.996 l -1.429,5.722 c -0.622,2.489 1.632,4.739 4.121,4.118 l 5.718,-1.43 c 1.477,-0.367 2.825,-1.133 3.899,-2.207 L 69.781,49.691 c 2.789,-2.789 2.789,-7.312 0,-10.101 -2.035,-2.035 -4.996,-2.586 -7.531,-1.649 -0.039,0.016 -0.082,0.032 -0.121,0.047 -0.121,0.047 -0.242,0.098 -0.363,0.153 z" style="fill:currentColor;fill-opacity:1;fill-rule:nonzero;stroke:none" transform="scale(1.3333333)" /> </g>
</svg>

