<?xml version="1.0" encoding="UTF-8" standalone="no"?> <svg version="1.1" id="I1c848404376e4e1c967263c12c10b0db20251106154012" width="100" height="100" viewBox="0 0 100 100" xmlns="http://www.w3.org/2000/svg" xmlns:svg="http://www.w3.org/2000/svg"> <defs id="I5011071d7da141ac80e0371c8c6dce4120251106154012" /> <g id="Ib12441146a2749e09d2ec85d1e28527320251106154012"> <path id="I56a4ed05533e4dad8b644957b14b4b4720251106154012" d="m 8.301,30.398 c -3.926,3.922 -3.926,10.282 0,14.204 l 22.097,22.097 c 3.922,3.922 10.282,3.922 14.204,0 L 66.699,44.602 c 3.922,-3.922 3.922,-10.282 0,-14.204 L 44.602,8.301 C 40.68,4.375 34.32,4.375 30.398,8.301 Z m 2.84,11.364 c -2.356,-2.356 -2.356,-6.172 0,-8.524 L 33.238,11.141 c 2.352,-2.356 6.168,-2.356 8.524,0 l 22.097,22.097 c 2.352,2.352 2.352,6.168 0,8.524 L 41.762,63.859 c -2.356,2.352 -6.172,2.352 -8.524,0 z M 28.875,26.035 c -0.785,-0.785 -2.055,-0.785 -2.84,0 -0.785,0.785 -0.785,2.055 0,2.84 l 8.625,8.625 -8.625,8.625 c -0.785,0.785 -0.785,2.055 0,2.84 0.785,0.785 2.055,0.785 2.84,0 l 8.625,-8.625 8.625,8.625 c 0.785,0.785 2.055,0.785 2.84,0 0.785,-0.785 0.785,-2.055 0,-2.84 L 40.34,37.5 48.965,28.875 c 0.785,-0.785 0.785,-2.055 0,-2.84 -0.785,-0.785 -2.055,-0.785 -2.84,0 L 37.5,34.66 Z" style="fill:currentColor;fill-opacity:1;fill-rule:nonzero;stroke:none" transform="scale(1.3333333)" /> </g>
</svg>

