<?xml version="1.0" encoding="UTF-8" standalone="no"?> <svg version="1.1" id="I05c4d9e37d194e60abe7e45e05fa56c820251106151526" width="100" height="100" viewBox="0 0 100 100" xmlns="http://www.w3.org/2000/svg" xmlns:svg="http://www.w3.org/2000/svg"> <defs id="I35dbab0eb50d4ecc9956be0be3911ec020251106151526" /> <g id="I4a89af18729b4c8a80c89ac50ed5648520251106151526"> <path id="I84f82ebb3ea54d7f9c739e3519816e6e20251106151526" d="M 70.312,37.5 C 70.312,19.379 55.621,4.688 37.5,4.688 19.379,4.688 4.688,19.379 4.688,37.5 c 0,18.121 14.691,32.812 32.812,32.812 18.121,0 32.812,-14.691 32.812,-32.812 z M 46.684,22.02 32.621,54.832 c -0.512,1.188 -1.887,1.738 -3.078,1.23 -1.188,-0.511 -1.742,-1.89 -1.231,-3.078 L 42.375,20.172 c 0.512,-1.192 1.887,-1.742 3.078,-1.231 1.188,0.508 1.738,1.887 1.231,3.079 z m -19.36,9.042 -7.359,6.438 7.359,6.441 c 0.973,0.852 1.074,2.332 0.223,3.305 -0.856,0.977 -2.336,1.074 -3.309,0.223 l -9.375,-8.203 c -0.508,-0.446 -0.801,-1.09 -0.801,-1.766 0,-0.676 0.293,-1.32 0.801,-1.762 l 9.375,-8.203 c 0.973,-0.855 2.453,-0.754 3.309,0.219 0.851,0.973 0.75,2.453 -0.223,3.308 z m 20.129,16.184 c -0.851,-0.973 -0.75,-2.453 0.223,-3.305 L 55.035,37.5 47.676,31.062 c -0.973,-0.855 -1.074,-2.335 -0.223,-3.308 0.856,-0.973 2.336,-1.074 3.309,-0.219 l 9.375,8.203 c 0.508,0.446 0.801,1.086 0.801,1.762 0,0.676 -0.293,1.32 -0.801,1.766 l -9.375,8.203 c -0.973,0.851 -2.453,0.754 -3.309,-0.223 z" style="fill:currentColor;fill-opacity:1;fill-rule:nonzero;stroke:none" transform="scale(1.3333333)" /> </g>
</svg>

