<?xml version="1.0" encoding="UTF-8" standalone="no"?> <svg version="1.1" id="I7f6b088f65aa44d4bb0abe8a3370049120251110130508" width="100" height="100" viewBox="0 0 100 100" xmlns="http://www.w3.org/2000/svg" xmlns:svg="http://www.w3.org/2000/svg"> <defs id="I62960b290b1f4c3b92f1785abd3a97d220251110130508" /> <g id="Icca192e2b25c46779999ee2ae93df6f520251110130508"> <path id="If7791897b5fd415b9295133d339c64bb20251110130508" d="m 18.082,8.035 c -5.551,0 -10.047,4.496 -10.047,10.047 v 38.836 c 0,5.551 4.496,10.047 10.047,10.047 h 18.254 c -0.965,-1.793 -1.516,-3.848 -1.516,-6.027 0,-7.028 5.7,-12.723 12.723,-12.723 h 14.734 c 1.657,0 3.235,0.316 4.688,0.89 V 18.082 c 0,-5.551 -4.496,-10.047 -10.047,-10.047 z m -6.027,48.883 v -7.363 h 13.39 v 13.39 h -7.363 c -3.332,0 -6.027,-2.699 -6.027,-6.027 z m 13.39,-27.453 v 16.07 h -13.39 v -16.07 z m 20.09,0 v 16.07 h -16.07 v -16.07 z m 17.41,0 v 16.07 h -13.39 v -16.07 z m -6.027,-17.41 c 3.328,0 6.027,2.695 6.027,6.027 v 7.363 h -13.39 v -13.39 z m -38.836,0 h 7.363 v 13.39 h -13.39 v -7.363 c 0,-3.332 2.695,-6.027 6.027,-6.027 z M 47.543,54.91 c -3.328,0 -6.023,2.699 -6.023,6.028 0,3.328 2.695,6.027 6.023,6.027 h 1.34 c 1.109,0 2.012,0.898 2.012,2.008 0,1.109 -0.903,2.007 -2.012,2.007 h -1.34 C 41.996,70.98 37.5,66.484 37.5,60.938 c 0,-5.547 4.496,-10.043 10.043,-10.043 h 1.34 c 1.109,0 2.012,0.898 2.012,2.007 0,1.11 -0.903,2.008 -2.012,2.008 z m -2.008,6.028 c 0,-1.11 0.899,-2.008 2.008,-2.008 h 14.734 c 1.11,0 2.008,0.898 2.008,2.008 0,1.109 -0.898,2.007 -2.008,2.007 H 47.543 c -1.109,0 -2.008,-0.898 -2.008,-2.007 z m 16.742,6.027 c 3.328,0 6.028,-2.699 6.028,-6.027 0,-3.329 -2.7,-6.028 -6.028,-6.028 h -1.339 c -1.11,0 -2.008,-0.898 -2.008,-2.008 0,-1.109 0.898,-2.007 2.008,-2.007 h 1.339 c 5.547,0 10.043,4.496 10.043,10.043 0,5.546 -4.496,10.042 -10.043,10.042 h -1.339 c -1.11,0 -2.008,-0.898 -2.008,-2.007 0,-1.11 0.898,-2.008 2.008,-2.008 z" style="fill:currentColor;fill-opacity:1;fill-rule:nonzero;stroke:none" transform="scale(1.3333333)" /> </g>
</svg>

