<?xml version="1.0" encoding="UTF-8" standalone="no"?> <svg version="1.1" id="Ib8a4984423944aeaa86b4178fe20e9a120251106155157" width="100" height="100" viewBox="0 0 100 100" xmlns="http://www.w3.org/2000/svg" xmlns:svg="http://www.w3.org/2000/svg"> <defs id="I5434455a1010497aa50dd3a68db9cacb20251106155157" /> <g id="Ice95fe8fc0e34a839adfa561bd23b1da20251106155157"> <path id="I4d0bbe69d3de41568c0f439c1f3ba13620251106155157" d="m 17.188,13.281 c 0,-1.293 1.05,-2.343 2.343,-2.343 H 37.5 V 25 c 0,3.453 2.797,6.25 6.25,6.25 h 14.062 v 30.469 c 0,1.293 -1.05,2.343 -2.343,2.343 H 35.094 l -4.688,4.688 h 25.063 c 3.883,0 7.031,-3.148 7.031,-7.031 v -31.52 c 0,-1.449 -0.578,-2.84 -1.602,-3.867 L 42.418,7.852 C 41.391,6.824 40,6.25 38.551,6.25 H 19.531 C 15.648,6.25 12.5,9.398 12.5,13.281 V 35 c 1.559,-0.207 3.141,-0.156 4.688,0.145 z M 54.496,26.562 H 43.75 c -0.863,0 -1.562,-0.699 -1.562,-1.562 V 14.254 Z M 9.758,44.613 c 2.566,-2.566 6.73,-2.566 9.301,0 l 1.257,1.262 c 0.918,0.914 2.399,0.914 3.317,0 l 1.144,-1.148 c 2.571,-2.571 6.735,-2.571 9.301,0 1.445,1.441 2.078,3.39 1.899,5.273 h 4.699 C 40.848,46.914 39.754,43.77 37.395,41.41 33.164,37.18 26.406,37.02 21.98,40.926 17.559,36.902 10.715,37.027 6.441,41.301 4.055,43.688 2.965,46.879 3.168,50 H 7.871 C 7.656,48.082 8.285,46.086 9.758,44.613 Z m 7.019,16.325 h -6.629 l 10.168,10.167 c 0.489,0.489 1.137,0.715 1.778,0.684 0.558,-0.027 1.113,-0.258 1.539,-0.684 L 33.801,60.938 h -6.629 l -5.195,5.195 z m 0.797,-13.02 c -0.461,-0.695 -1.262,-1.09 -2.094,-1.039 -0.835,0.051 -1.578,0.543 -1.953,1.293 l -2.476,4.953 H 5.469 c -1.293,0 -2.344,1.051 -2.344,2.344 0,1.293 1.051,2.343 2.344,2.343 H 12.5 c 0.887,0 1.699,-0.5 2.098,-1.296 l 1.316,-2.637 4.012,6.016 c 0.402,0.605 1.062,0.988 1.785,1.039 0.727,0.046 1.434,-0.239 1.914,-0.782 l 4.57,-5.14 2.149,2.226 c 0.457,0.473 1.086,0.731 1.742,0.715 l 6.25,-0.141 c 1.293,-0.031 2.316,-1.101 2.289,-2.398 -0.031,-1.293 -1.102,-2.316 -2.398,-2.289 l -5.223,0.121 -3.192,-3.312 c -0.453,-0.469 -1.082,-0.727 -1.734,-0.715 -0.652,0.015 -1.269,0.297 -1.703,0.785 l -4.234,4.762 z" style="fill:currentColor;fill-opacity:1;fill-rule:nonzero;stroke:none" transform="scale(1.3333333)" /> </g>
</svg>

