<?xml version="1.0" encoding="UTF-8" standalone="no"?> <svg version="1.1" id="I657de7187f9f41dcbf88581b00764a9f20251110123031" width="100" height="100" viewBox="0 0 100 100" xmlns="http://www.w3.org/2000/svg" xmlns:svg="http://www.w3.org/2000/svg"> <defs id="I216bdd855fe64f08b5e17ca1b02449f220251110123031" /> <g id="Ia7bd029d091841b388a1f58e6950535420251110123031"> <path id="Ic2ec8d222d3a48eeabaa20f092f3c6e520251110123031" d="m 49.219,6.25 c 3.883,0 7.031,3.148 7.031,7.031 v 48.438 c 0,3.883 -3.148,7.031 -7.031,7.031 H 25.781 c -3.883,0 -7.031,-3.148 -7.031,-7.031 V 13.281 c 0,-3.883 3.148,-7.031 7.031,-7.031 z m 0,4.688 H 25.781 c -1.293,0 -2.343,1.05 -2.343,2.343 v 48.438 c 0,1.293 1.05,2.343 2.343,2.343 h 23.438 c 1.293,0 2.343,-1.05 2.343,-2.343 V 13.281 c 0,-1.293 -1.05,-2.343 -2.343,-2.343 z m -3.125,3.124 c 1.293,0 2.344,1.051 2.344,2.344 0,1.293 -1.051,2.344 -2.344,2.344 H 28.906 c -1.293,0 -2.344,-1.051 -2.344,-2.344 0,-1.293 1.051,-2.344 2.344,-2.344 z" style="fill:currentColor;fill-opacity:1;fill-rule:nonzero;stroke:none" transform="scale(1.3333333)" /> </g>
</svg>

