<?xml version="1.0" encoding="UTF-8" standalone="no"?> <svg version="1.1" id="I809e963112884e2482f43c7fe0596a4820251110123030" width="100" height="100" viewBox="0 0 100 100" xmlns="http://www.w3.org/2000/svg" xmlns:svg="http://www.w3.org/2000/svg"> <defs id="I07b6f5360ba44efbb3e43d48a6ea129a20251110123030" /> <g id="I6c8839f407944276b7f704522bedb43420251110123030"> <path id="I415e05577823420a998b9cd3ea66f62520251110123030" d="m 64.062,37.5 c 4.317,0 7.813,3.496 7.813,7.812 v 18.75 c 0,4.317 -3.496,7.813 -7.813,7.813 h -12.5 c -4.316,0 -7.812,-3.496 -7.812,-7.813 v -18.75 c 0,-4.316 3.496,-7.812 7.812,-7.812 z m -23.324,6.25 c -0.074,0.512 -0.113,1.031 -0.113,1.562 v 18.75 c 0,1.227 0.203,2.407 0.578,3.508 -2.988,0.782 -6.305,1.184 -9.953,1.184 -10.691,0 -18.574,-3.352 -23.391,-10.113 -1.039,-1.457 -1.597,-3.2 -1.597,-4.989 v -2.875 c 0,-3.879 3.148,-7.027 7.027,-7.027 z m 12.387,0 c -0.863,0 -1.563,0.699 -1.563,1.562 0,0.864 0.7,1.563 1.563,1.563 H 62.5 c 0.863,0 1.562,-0.699 1.562,-1.563 0,-0.863 -0.699,-1.562 -1.562,-1.562 z M 31.25,6.266 c 8.629,0 15.625,6.996 15.625,15.625 0,8.629 -6.996,15.625 -15.625,15.625 -8.629,0 -15.625,-6.996 -15.625,-15.625 0,-8.629 6.996,-15.625 15.625,-15.625 z" style="fill:currentColor;fill-opacity:1;fill-rule:nonzero;stroke:none" transform="scale(1.3333333)" /> </g>
</svg>

