<?xml version="1.0" encoding="UTF-8" standalone="no"?> <svg version="1.1" id="I43ba6be681d04ebea7868c9dbf1d5a7020251110123031" width="100" height="100" viewBox="0 0 100 100" xmlns="http://www.w3.org/2000/svg" xmlns:svg="http://www.w3.org/2000/svg"> <defs id="Ic6e50b1c867744c4b339b5762a91b9d220251110123031" /> <g id="I88c36afeb2604eb9851ac8e094aab74a20251110123031"> <path id="Ib9b3858b95dd4bf89b25da7821fe231a20251110123031" d="M 71.25,20.625 C 71.25,29.945 63.695,37.5 54.375,37.5 45.055,37.5 37.5,29.945 37.5,20.625 37.5,11.305 45.055,3.75 54.375,3.75 c 9.32,0 16.875,7.555 16.875,16.875 z m -15,-7.5 c 0,-1.035 -0.84,-1.875 -1.875,-1.875 -1.035,0 -1.875,0.84 -1.875,1.875 V 18.75 H 46.875 C 45.84,18.75 45,19.59 45,20.625 45,21.66 45.84,22.5 46.875,22.5 H 52.5 v 5.625 C 52.5,29.16 53.34,30 54.375,30 55.41,30 56.25,29.16 56.25,28.125 V 22.5 h 5.625 c 1.035,0 1.875,-0.84 1.875,-1.875 0,-1.035 -0.84,-1.875 -1.875,-1.875 H 56.25 Z M 54.375,41.25 c 4.984,0 9.559,-1.77 13.125,-4.715 v 4.715 c 0,4.141 -3.359,7.5 -7.5,7.5 H 48.75 v 7.5 h 5.625 c 1.035,0 1.875,0.84 1.875,1.875 C 56.25,59.16 55.41,60 54.375,60 H 33.75 V 56.25 H 45 v -7.5 H 33.75 V 35.625 c 0,-5.176 -4.199,-9.375 -9.375,-9.375 H 15 V 15 c 0,-4.141 3.359,-7.5 7.5,-7.5 h 15.965 c -2.945,3.566 -4.715,8.141 -4.715,13.125 0,11.391 9.234,20.625 20.625,20.625 z M 13.125,30 C 10.02,30 7.5,32.52 7.5,35.625 v 26.25 c 0,3.105 2.52,5.625 5.625,5.625 h 11.25 C 27.48,67.5 30,64.98 30,61.875 V 35.625 C 30,32.52 27.48,30 24.375,30 Z M 15,58.125 c 0,-1.035 0.84,-1.875 1.875,-1.875 h 3.75 c 1.035,0 1.875,0.84 1.875,1.875 C 22.5,59.16 21.66,60 20.625,60 h -3.75 C 15.84,60 15,59.16 15,58.125 Z" style="fill:currentColor;fill-opacity:1;fill-rule:nonzero;stroke:none" transform="scale(1.3333333)" /> </g>
</svg>

