<?xml version="1.0" encoding="UTF-8" standalone="no"?> <svg version="1.1" id="Ib1302215843d426685bd85efb105508f20251106123559" width="100" height="100" viewBox="0 0 100 100" xmlns="http://www.w3.org/2000/svg" xmlns:svg="http://www.w3.org/2000/svg"> <defs id="I85611e8320cf4817ae61bb0855b30f7020251106123559" /> <g id="I111a34f64304498bac9a988999be12a320251106123559"> <path id="Ia5f387211e514ec796f4dc89ab2f7d5f20251106123559" d="M 9.617,28.25 C 8.402,22.773 11.859,17.352 17.336,16.137 L 46.754,9.613 c 5.473,-1.211 10.898,2.242 12.113,7.719 l 3.258,14.699 H 57.324 L 54.289,18.348 c -0.652,-2.95 -3.574,-4.809 -6.523,-4.157 l -29.414,6.52 c -2.95,0.656 -4.813,3.574 -4.157,6.523 l 1.063,4.797 H 10.457 Z M 59.75,42.969 h 4.801 l 0.836,3.781 c 1.215,5.477 -2.242,10.898 -7.715,12.113 l -29.418,6.52 C 22.777,66.598 17.355,63.145 16.141,57.668 L 12.883,42.969 h 4.801 l 3.031,13.683 c 0.656,2.95 3.574,4.809 6.523,4.157 l 29.418,-6.524 c 2.949,-0.652 4.809,-3.574 4.156,-6.519 z M 3.125,37.5 c 0,-1.293 1.051,-2.344 2.344,-2.344 h 7.812 c 1.293,0 2.344,1.051 2.344,2.344 0,1.293 -1.051,2.344 -2.344,2.344 H 5.469 c -1.293,0 -2.344,-1.051 -2.344,-2.344 z m 18.75,0 c 0,-1.293 1.051,-2.344 2.344,-2.344 h 7.812 c 1.293,0 2.344,1.051 2.344,2.344 0,1.293 -1.051,2.344 -2.344,2.344 h -7.812 c -1.293,0 -2.344,-1.051 -2.344,-2.344 z m 21.094,-2.344 c -1.293,0 -2.344,1.051 -2.344,2.344 0,1.293 1.051,2.344 2.344,2.344 h 7.812 c 1.293,0 2.344,-1.051 2.344,-2.344 0,-1.293 -1.051,-2.344 -2.344,-2.344 z M 59.375,37.5 c 0,-1.293 1.051,-2.344 2.344,-2.344 h 7.812 c 1.293,0 2.344,1.051 2.344,2.344 0,1.293 -1.051,2.344 -2.344,2.344 h -7.812 c -1.293,0 -2.344,-1.051 -2.344,-2.344 z" style="fill:currentColor;fill-opacity:1;fill-rule:nonzero;stroke:none" transform="scale(1.3333333)" /> </g>
</svg>

