<?xml version="1.0" encoding="UTF-8" standalone="no"?> <svg version="1.1" id="Ie0f710d6dbd742f180f9f02133bac6cc20251110133655" width="100" height="100" viewBox="0 0 100 100" xmlns="http://www.w3.org/2000/svg" xmlns:svg="http://www.w3.org/2000/svg"> <defs id="Iba119cfca1264352b6424b52d20a522520251110133655" /> <g id="Icd155b5fa4b94bb7828cb8e92d90701f20251110133655"> <path id="I02b809df1f6b4793a9d2534a373eee3a20251110133655" d="m 22.5,11.25 c -6.215,0 -11.25,5.035 -11.25,11.25 v 30 c 0,6.215 5.035,11.25 11.25,11.25 h 15.832 l 0.789,-3.168 C 39.172,60.387 39.227,60.191 39.285,60 H 22.5 C 18.359,60 15,56.641 15,52.5 V 26.25 h 45 v 11.039 l 0.387,-0.387 c 0.996,-0.996 2.14,-1.757 3.363,-2.281 V 22.5 c 0,-6.215 -5.035,-11.25 -11.25,-11.25 z m 11.637,19.301 c 0.734,0.73 0.734,1.918 0,2.648 l -8.047,8.051 8.047,8.051 c 0.734,0.73 0.734,1.918 0,2.648 -0.731,0.735 -1.918,0.735 -2.649,0 l -9.375,-9.375 c -0.734,-0.73 -0.734,-1.918 0,-2.648 l 9.375,-9.375 c 0.731,-0.735 1.918,-0.735 2.649,0 z m 9.375,0 c -0.731,-0.735 -1.918,-0.735 -2.649,0 -0.734,0.73 -0.734,1.918 0,2.648 l 8.047,8.051 -8.047,8.051 c -0.734,0.73 -0.734,1.918 0,2.648 0.731,0.735 1.918,0.735 2.649,0 l 9.375,-9.375 c 0.734,-0.73 0.734,-1.918 0,-2.648 z m 1.414,27.113 18.109,-18.109 c 2.738,-2.739 7.18,-2.739 9.918,0 2.738,2.738 2.738,7.179 0,9.918 L 54.844,67.582 c -1.059,1.055 -2.379,1.805 -3.828,2.168 l -5.618,1.402 c -2.445,0.614 -4.656,-1.601 -4.046,-4.043 l 1.406,-5.617 c 0.359,-1.449 1.109,-2.773 2.168,-3.828 z" style="fill:currentColor;fill-opacity:1;fill-rule:nonzero;stroke:none" transform="scale(1.3333333)" /> </g>
</svg>

