<?xml version="1.0" encoding="UTF-8" standalone="no"?> <svg version="1.1" id="I04d4ca29504d4fa18fd6e9b1877a6c3b20251106171633" width="100" height="100" viewBox="0 0 100 100" xmlns="http://www.w3.org/2000/svg" xmlns:svg="http://www.w3.org/2000/svg"> <defs id="I0b05c07a943644bb96a8a9af4802fd6120251106171633" /> <g id="I0ac24d0ff4a841498359bb5b0f218f7620251106171633"> <path id="If8ea8b4813624d6db889c3101e83705720251106171633" d="m 60.156,26.562 c 4.746,0 8.594,-3.847 8.594,-8.593 0,-4.746 -3.848,-8.594 -8.594,-8.594 -4.746,0 -8.594,3.848 -8.594,8.594 0,4.746 3.848,8.593 8.594,8.593 z m -11.48,-6.238 c -0.156,-0.762 -0.238,-1.551 -0.238,-2.355 0,-0.801 0.078,-1.578 0.234,-2.332 H 8.602 l -0.321,0.019 c -1.144,0.156 -2.023,1.137 -2.023,2.324 0,1.293 1.047,2.344 2.344,2.344 z M 66.414,56.25 H 8.602 l -0.317,0.023 c -1.144,0.153 -2.027,1.133 -2.027,2.321 0,1.293 1.051,2.344 2.344,2.344 h 57.812 l 0.32,-0.02 c 1.145,-0.156 2.024,-1.137 2.024,-2.324 0,-1.293 -1.047,-2.344 -2.344,-2.344 z M 8.602,35.945 h 57.812 c 1.297,0 2.344,1.051 2.344,2.344 0,1.188 -0.879,2.168 -2.024,2.324 l -0.32,0.02 H 8.602 c -1.293,0 -2.344,-1.047 -2.344,-2.344 0,-1.184 0.883,-2.164 2.027,-2.32 z" style="fill:currentColor;fill-opacity:1;fill-rule:nonzero;stroke:none" transform="scale(1.3333333)" /> </g>
</svg>

