<?xml version="1.0" encoding="UTF-8" standalone="no"?> <svg version="1.1" id="I9154c8981e8743df8d694d4ed876161f20251106143238" width="100" height="100" viewBox="0 0 100 100" xmlns="http://www.w3.org/2000/svg" xmlns:svg="http://www.w3.org/2000/svg"> <defs id="I953dbe11ce364538854a7ac25805c3a020251106143238" /> <g id="I9b2e63b74b594fda9565cdf5cff41d0720251106143238"> <path id="Ica0aafa7997e4ac3af3bd1f18ea84eca20251106143238" d="m 66.965,58.258 c 0,4.808 -3.899,8.707 -8.707,8.707 H 16.742 c -4.808,0 -8.707,-3.899 -8.707,-8.707 V 16.742 c 0,-4.808 3.899,-8.707 8.707,-8.707 h 41.516 c 4.808,0 8.707,3.899 8.707,8.707 z M 52.902,37.5 c 0,-1.016 -0.757,-1.859 -1.738,-1.992 l -0.269,-0.016 h -26.79 l -0.269,0.016 c -0.981,0.133 -1.738,0.976 -1.738,1.992 0,1.016 0.757,1.859 1.738,1.992 l 0.269,0.016 h 26.79 l 0.269,-0.016 c 0.981,-0.133 1.738,-0.976 1.738,-1.992 z m 0,14.062 c 0,-1.015 -0.757,-1.859 -1.738,-1.992 l -0.269,-0.015 h -26.79 l -0.269,0.015 c -0.981,0.133 -1.738,0.977 -1.738,1.992 0,1.016 0.757,1.86 1.738,1.993 l 0.269,0.015 h 26.79 l 0.269,-0.015 c 0.981,-0.133 1.738,-0.977 1.738,-1.993 z m 0,-28.124 c 0,-1.016 -0.757,-1.86 -1.738,-1.993 L 50.895,21.43 h -26.79 l -0.269,0.015 c -0.981,0.133 -1.738,0.977 -1.738,1.993 0,1.015 0.757,1.859 1.738,1.992 l 0.269,0.015 h 26.79 l 0.269,-0.015 c 0.981,-0.133 1.738,-0.977 1.738,-1.992 z" style="fill:currentColor;fill-opacity:1;fill-rule:nonzero;stroke:none" transform="scale(1.3333333)" /> </g>
</svg>

