<?xml version="1.0" encoding="UTF-8" standalone="no"?> <svg version="1.1" id="I3223ae0bd8944bc68ffe5f10da591f2120251106152729" width="100" height="100" viewBox="0 0 100 100" xmlns="http://www.w3.org/2000/svg" xmlns:svg="http://www.w3.org/2000/svg"> <defs id="I80f73090adfd43daa351466c40470e7f20251106152729" /> <g id="I67134cdf2e51470eb92ee5230b68c73120251106152729"> <path id="Id7eaf90757f6462eaa00136058ced2f020251106152729" d="m 21.43,8.035 c 0,-1.48 -1.2,-2.68 -2.68,-2.68 -1.48,0 -2.68,1.2 -2.68,2.68 V 16.07 H 8.035 c -1.48,0 -2.68,1.2 -2.68,2.68 0,1.48 1.2,2.68 2.68,2.68 h 8.035 v 26.113 c 0,6.289 5.098,11.387 11.387,11.387 H 53.57 v 8.035 c 0,1.48 1.2,2.68 2.68,2.68 1.48,0 2.68,-1.2 2.68,-2.68 V 58.93 h 8.035 c 1.48,0 2.68,-1.2 2.68,-2.68 0,-1.48 -1.2,-2.68 -2.68,-2.68 H 27.457 c -3.332,0 -6.027,-2.699 -6.027,-6.027 z m 32.14,19.422 v 23.438 h 5.36 V 27.457 C 58.93,21.168 53.832,16.07 47.543,16.07 H 24.105 v 5.36 h 23.438 c 3.328,0 6.027,2.695 6.027,6.027 z" style="fill:currentColor;fill-opacity:1;fill-rule:nonzero;stroke:none" transform="scale(1.3333333)" /> </g>
</svg>

