<?xml version="1.0" encoding="UTF-8" standalone="no"?> <svg version="1.1" id="I3e7049f73fd64e63931bd535d987f68120251106161453" width="100" height="100" viewBox="0 0 100 100" xmlns="http://www.w3.org/2000/svg" xmlns:svg="http://www.w3.org/2000/svg"> <defs id="I0505f5325f074574a7e67597076a2eb920251106161453" /> <g id="Ib2a2fcbac8244b14ae58241912ad0c9620251106161453"> <path id="I40c3364e62c348a695f081c04c57585820251106161453" d="m 26.562,41.406 c 0,-0.429 0.352,-0.781 0.782,-0.781 h 3.906 v 4.687 h -4.688 z m 0,8.594 h 4.688 v 4.688 h -3.906 c -0.43,0 -0.782,-0.352 -0.782,-0.782 z m 21.876,3.906 V 50 h -12.5 v 4.688 h 11.718 c 0.43,0 0.782,-0.352 0.782,-0.782 z m -12.5,-13.281 v 4.687 h 12.5 v -3.906 c 0,-0.429 -0.352,-0.781 -0.782,-0.781 z M 37.5,25 V 6.25 H 18.75 c -3.453,0 -6.25,2.797 -6.25,6.25 v 50 c 0,3.453 2.797,6.25 6.25,6.25 h 37.5 c 3.453,0 6.25,-2.797 6.25,-6.25 V 31.25 H 43.75 C 40.297,31.25 37.5,28.453 37.5,25 Z M 27.344,35.938 h 20.312 c 3.02,0 5.469,2.449 5.469,5.468 v 12.5 c 0,3.02 -2.449,5.469 -5.469,5.469 H 27.344 c -3.02,0 -5.469,-2.449 -5.469,-5.469 v -12.5 c 0,-3.019 2.449,-5.468 5.469,-5.468 z M 42.188,25 V 7.812 l 18.75,18.75 H 43.75 c -0.863,0 -1.562,-0.699 -1.562,-1.562 z" style="fill:currentColor;fill-opacity:1;fill-rule:nonzero;stroke:none" transform="scale(1.3333333)" /> </g>
</svg>

