<?xml version="1.0" encoding="UTF-8" standalone="no"?> <svg version="1.1" id="I2bbf0232c1c14cea8505b49cafa4e22220251106161453" width="100" height="100" viewBox="0 0 100 100" xmlns="http://www.w3.org/2000/svg" xmlns:svg="http://www.w3.org/2000/svg"> <defs id="Ibddc71eea8cf4228bd9d952e6699fdbd20251106161453" /> <g id="Ia7253e9e8747498d9202e94e3e61c95420251106161453"> <path id="I23a17ff8aa394d7496c29f5d1e75f76820251106161453" d="M 48.438,53.906 V 50 h -8.356 c 0.356,1.504 0.543,3.074 0.543,4.688 h 7.031 c 0.43,0 0.782,-0.352 0.782,-0.782 z m 0,-8.594 H 38.336 c -0.672,-1.289 -1.477,-2.496 -2.398,-3.605 v -1.082 h 11.718 c 0.43,0 0.782,0.352 0.782,0.781 z M 20.312,34.375 c 2.774,0 5.418,0.555 7.829,1.563 h 19.515 c 3.02,0 5.469,2.449 5.469,5.468 v 12.5 c 0,3.02 -2.449,5.469 -5.469,5.469 h -7.574 c -0.848,3.586 -2.644,6.805 -5.113,9.375 H 56.25 c 3.453,0 6.25,-2.797 6.25,-6.25 V 31.25 H 43.75 C 40.297,31.25 37.5,28.453 37.5,25 V 6.25 H 18.75 c -3.453,0 -6.25,2.797 -6.25,6.25 v 23.434 c 2.406,-1.004 5.043,-1.559 7.812,-1.559 z M 42.188,25 V 7.812 l 18.75,18.75 H 43.75 c -0.863,0 -1.562,-0.699 -1.562,-1.562 z M 37.5,54.688 C 37.5,64.18 29.805,71.875 20.312,71.875 10.82,71.875 3.125,64.18 3.125,54.688 3.125,45.195 10.82,37.5 20.312,37.5 29.805,37.5 37.5,45.195 37.5,54.688 Z M 10.938,53.125 c -0.864,0 -1.563,0.699 -1.563,1.563 0,0.863 0.699,1.562 1.563,1.562 h 14.976 l -5.144,5.145 c -0.61,0.609 -0.61,1.601 0,2.21 0.609,0.61 1.601,0.61 2.21,0 l 7.813,-7.812 c 0.609,-0.609 0.609,-1.602 0,-2.211 L 22.98,45.77 c -0.609,-0.61 -1.601,-0.61 -2.21,0 -0.61,0.609 -0.61,1.601 0,2.21 l 5.144,5.145 z" style="fill:currentColor;fill-opacity:1;fill-rule:nonzero;stroke:none" transform="scale(1.3333333)" /> </g>
</svg>

