<?xml version="1.0" encoding="UTF-8" standalone="no"?> <svg version="1.1" id="I69bf2e07d2ad4efe9044bfe91963922020251110123030" width="100" height="100" viewBox="0 0 100 100" xmlns="http://www.w3.org/2000/svg" xmlns:svg="http://www.w3.org/2000/svg"> <defs id="I84cbe1c44213419a88128e7b43ac70f520251110123030" /> <g id="I2464214a0ca24667af5fdeba91702cd720251110123030"> <path id="Iec98b67809ae442ea08006d277172dba20251110123030" d="m 25.445,13.395 c -6.656,0 -12.05,5.394 -12.05,12.05 0,6.657 5.394,12.055 12.05,12.055 6.657,0 12.055,-5.398 12.055,-12.055 0,-6.656 -5.398,-12.05 -12.055,-12.05 z m -8.035,12.05 c 0,-4.437 3.598,-8.035 8.035,-8.035 4.438,0 8.035,3.598 8.035,8.035 0,4.438 -3.597,8.035 -8.035,8.035 -4.437,0 -8.035,-3.597 -8.035,-8.035 z M 53.57,18.75 c -5.175,0 -9.375,4.199 -9.375,9.375 0,5.176 4.2,9.375 9.375,9.375 5.18,0 9.375,-4.199 9.375,-9.375 0,-5.176 -4.195,-9.375 -9.375,-9.375 z m -5.355,9.375 c 0,-2.957 2.398,-5.355 5.355,-5.355 2.961,0 5.36,2.398 5.36,5.355 0,2.957 -2.399,5.355 -5.36,5.355 -2.957,0 -5.355,-2.398 -5.355,-5.355 z M 5.355,48.883 c 0,-3.328 2.7,-6.028 6.028,-6.028 h 27.012 c -1.391,1.086 -2.555,2.454 -3.399,4.02 H 11.383 c -1.11,0 -2.008,0.898 -2.008,2.008 v 1.375 c 0.004,0.054 0.012,0.144 0.023,0.269 0.028,0.25 0.082,0.629 0.2,1.094 0.23,0.93 0.699,2.176 1.636,3.422 1.801,2.406 5.661,5.227 14.211,5.227 4.133,0 7.172,-0.661 9.41,-1.614 0.625,1.235 1.446,2.352 2.422,3.313 -2.894,1.402 -6.742,2.316 -11.832,2.316 -9.527,0 -14.711,-3.207 -17.425,-6.828 C 6.695,55.691 6.031,53.926 5.699,52.594 5.531,51.926 5.449,51.363 5.402,50.957 5.383,50.75 5.371,50.582 5.363,50.457 5.359,50.398 5.359,50.348 5.359,50.305 L 5.355,50.258 Z m 40.852,-2.008 c -3.328,0 -6.027,2.699 -6.027,6.027 0,3.328 2.699,6.028 6.027,6.028 h 1.336 c 1.109,0 2.012,0.898 2.012,2.008 0,1.109 -0.903,2.007 -2.012,2.007 h -1.336 c -5.551,0 -10.047,-4.496 -10.047,-10.043 0,-5.547 4.496,-10.047 10.047,-10.047 h 1.336 c 1.109,0 2.012,0.903 2.012,2.012 0,1.11 -0.903,2.008 -2.012,2.008 z m -2.012,6.027 c 0,-1.109 0.903,-2.007 2.012,-2.007 h 14.731 c 1.109,0 2.007,0.898 2.007,2.007 0,1.11 -0.898,2.008 -2.007,2.008 H 46.207 c -1.109,0 -2.012,-0.898 -2.012,-2.008 z m 16.743,6.028 c 3.328,0 6.027,-2.7 6.027,-6.028 0,-3.328 -2.699,-6.027 -6.027,-6.027 h -1.34 c -1.11,0 -2.008,-0.898 -2.008,-2.008 0,-1.109 0.898,-2.012 2.008,-2.012 h 1.34 c 5.546,0 10.042,4.5 10.042,10.047 0,5.547 -4.496,10.043 -10.042,10.043 h -1.34 c -1.11,0 -2.008,-0.898 -2.008,-2.007 0,-1.11 0.898,-2.008 2.008,-2.008 z" style="fill:currentColor;fill-opacity:1;fill-rule:nonzero;stroke:none" transform="scale(1.3333333)" /> </g>
</svg>

