<?xml version="1.0" encoding="UTF-8" standalone="no"?> <svg version="1.1" id="Ifcc8cb7da94f43aeb950ac8bed2c811a20251106152729" width="100" height="100" viewBox="0 0 100 100" xmlns="http://www.w3.org/2000/svg" xmlns:svg="http://www.w3.org/2000/svg"> <defs id="I79cbe75adc1e4a0ba8dd227786c1ecdf20251106152729" /> <g id="I261a18aa5bec44d7ac620dfcdb46a90120251106152729"> <path id="I833ade13a85e44b1a3ec541af229304a20251106152729" d="m 18.082,8.035 c -5.551,0 -10.047,4.496 -10.047,10.047 v 38.836 c 0,5.551 4.496,10.047 10.047,10.047 h 38.836 c 5.551,0 10.047,-4.496 10.047,-10.047 V 18.082 c 0,-5.551 -4.496,-10.047 -10.047,-10.047 z m -6.027,10.047 c 0,-3.332 2.695,-6.027 6.027,-6.027 h 38.836 c 3.328,0 6.027,2.695 6.027,6.027 v 38.836 c 0,3.328 -2.699,6.027 -6.027,6.027 H 18.082 c -3.332,0 -6.027,-2.699 -6.027,-6.027 z m 4.015,6.023 c 0,-2.957 2.399,-5.355 5.36,-5.355 h 32.14 c 2.961,0 5.36,2.398 5.36,5.355 v 5.36 c 0,2.957 -2.399,5.355 -5.36,5.355 H 21.43 c -2.961,0 -5.36,-2.398 -5.36,-5.355 z m 5.36,-1.335 c -0.742,0 -1.34,0.597 -1.34,1.335 v 5.36 c 0,0.738 0.598,1.34 1.34,1.34 h 32.14 c 0.742,0 1.34,-0.602 1.34,-1.34 v -5.36 c 0,-0.738 -0.598,-1.335 -1.34,-1.335 z m -5.36,19.418 c 0,-1.11 0.903,-2.008 2.012,-2.008 h 14.73 c 1.11,0 2.008,0.898 2.008,2.008 0,1.109 -0.898,2.007 -2.008,2.007 h -14.73 c -1.109,0 -2.012,-0.898 -2.012,-2.007 z m 2.012,8.035 c -1.109,0 -2.012,0.898 -2.012,2.007 0,1.11 0.903,2.012 2.012,2.012 h 14.73 c 1.11,0 2.008,-0.902 2.008,-2.012 0,-1.109 -0.898,-2.007 -2.008,-2.007 z M 41.52,43.527 c 0,-2.589 2.097,-4.687 4.687,-4.687 h 8.035 c 2.586,0 4.688,2.098 4.688,4.687 v 8.035 c 0,2.59 -2.102,4.688 -4.688,4.688 h -8.035 c -2.59,0 -4.687,-2.098 -4.687,-4.688 z m 4.687,-0.672 c -0.371,0 -0.672,0.301 -0.672,0.672 v 8.035 c 0,0.372 0.301,0.668 0.672,0.668 h 8.035 c 0.367,0 0.668,-0.296 0.668,-0.668 v -8.035 c 0,-0.371 -0.301,-0.672 -0.668,-0.672 z" style="fill:currentColor;fill-opacity:1;fill-rule:nonzero;stroke:none" transform="scale(1.3333333)" /> </g>
</svg>

