<?xml version="1.0" encoding="UTF-8" standalone="no"?> <svg version="1.1" id="I50622cfff4da4561a9119f0b0f9748a820251106103256" width="100" height="100" viewBox="0 0 100 100" xmlns="http://www.w3.org/2000/svg" xmlns:svg="http://www.w3.org/2000/svg"> <defs id="I7643a832f5ab4bb587fe211cb7f0653b20251106103256" /> <g id="Ie7d4b1e524344211ae9a435143daa57a20251106103256"> <path id="I5b124b01ce6e4c119ad44467b686dab020251106103256" d="M 72.055,47.016 66.57,42.328 c 0.262,-1.59 0.395,-3.211 0.395,-4.836 0,-1.625 -0.133,-3.25 -0.395,-4.84 l 5.485,-4.687 c 0.843,-0.723 1.156,-1.899 0.777,-2.945 l -0.074,-0.219 c -1.512,-4.219 -3.77,-8.129 -6.672,-11.543 l -0.152,-0.176 c -0.719,-0.848 -1.887,-1.164 -2.938,-0.793 l -6.805,2.418 C 53.68,12.648 50.875,11.023 47.848,9.887 L 46.531,2.77 C 46.328,1.676 45.469,0.816 44.371,0.621 L 44.145,0.578 c -4.36,-0.789 -8.946,-0.789 -13.309,0 L 30.609,0.621 C 29.516,0.816 28.656,1.676 28.453,2.77 l -1.324,7.148 c -3.008,1.141 -5.805,2.762 -8.285,4.805 L 11.988,12.289 C 10.938,11.918 9.766,12.234 9.047,13.082 L 8.898,13.258 C 6,16.676 3.738,20.586 2.227,24.801 L 2.152,25.02 c -0.379,1.046 -0.066,2.218 0.778,2.945 l 5.55,4.738 c -0.261,1.574 -0.386,3.18 -0.386,4.781 0,1.606 0.125,3.215 0.386,4.778 L 2.93,47 c -0.848,0.727 -1.157,1.898 -0.778,2.945 l 0.075,0.219 c 1.515,4.219 3.757,8.113 6.671,11.543 l 0.149,0.176 c 0.723,0.847 1.891,1.164 2.941,0.797 l 6.856,-2.438 c 2.492,2.051 5.281,3.676 8.285,4.805 l 1.324,7.148 c 0.203,1.098 1.063,1.953 2.156,2.153 l 0.227,0.043 c 4.402,0.789 8.91,0.789 13.309,0 l 0.226,-0.043 c 1.098,-0.2 1.957,-1.055 2.16,-2.153 l 1.317,-7.113 c 3.027,-1.137 5.847,-2.766 8.343,-4.824 l 6.805,2.422 c 1.051,0.371 2.219,0.054 2.938,-0.797 l 0.152,-0.176 C 69,58.266 71.242,54.383 72.758,50.164 l 0.074,-0.219 c 0.375,-1.027 0.066,-2.199 -0.777,-2.929 z M 60.629,33.641 c 0.207,1.265 0.316,2.562 0.316,3.859 0,1.297 -0.109,2.594 -0.316,3.859 l -0.555,3.356 6.254,5.347 c -0.949,2.184 -2.144,4.254 -3.566,6.165 l -7.766,-2.754 -2.629,2.156 c -2,1.641 -4.226,2.93 -6.64,3.836 l -3.188,1.195 -1.5,8.121 c -2.363,0.266 -4.75,0.266 -7.113,0 l -1.5,-8.136 -3.164,-1.215 C 26.879,58.527 24.66,57.238 22.676,55.605 L 20.047,53.438 12.23,56.215 C 10.805,54.301 9.617,52.23 8.664,50.055 l 6.32,-5.399 -0.546,-3.347 c -0.2,-1.247 -0.309,-2.536 -0.309,-3.809 0,-1.281 0.101,-2.562 0.309,-3.809 l 0.546,-3.347 -6.32,-5.399 c 0.945,-2.187 2.141,-4.246 3.566,-6.16 l 7.817,2.777 2.629,-2.167 c 1.984,-1.633 4.203,-2.922 6.586,-3.825 l 3.176,-1.199 1.496,-8.137 c 2.351,-0.265 4.754,-0.265 7.117,0 l 1.496,8.121 3.191,1.196 c 2.403,0.906 4.637,2.195 6.637,3.836 l 2.629,2.16 7.766,-2.754 c 1.425,1.914 2.613,3.984 3.566,6.16 l -6.254,5.348 z M 37.5,21.93 c -8.137,0 -14.73,6.597 -14.73,14.734 0,8.137 6.593,14.731 14.73,14.731 8.137,0 14.73,-6.594 14.73,-14.731 0,-8.137 -6.593,-14.734 -14.73,-14.734 z m 6.629,21.363 c -1.754,1.762 -4.141,2.75 -6.629,2.746 -2.504,0 -4.855,-0.98 -6.629,-2.746 -1.762,-1.758 -2.75,-4.145 -2.746,-6.629 0,-2.504 0.98,-4.855 2.746,-6.629 1.774,-1.777 4.125,-2.746 6.629,-2.746 2.504,0 4.855,0.969 6.629,2.746 1.762,1.754 2.75,4.141 2.746,6.629 0,2.5 -0.98,4.856 -2.746,6.629 z" style="fill:currentColor;fill-opacity:1;fill-rule:nonzero;stroke:none" transform="scale(1.3333333)" /> </g>
</svg>

