<?xml version="1.0" encoding="UTF-8" standalone="no"?> <svg version="1.1" id="If38b2108427a4b2abd099f6daa13b40b20251106171633" width="100" height="100" viewBox="0 0 100 100" xmlns="http://www.w3.org/2000/svg" xmlns:svg="http://www.w3.org/2000/svg"> <defs id="Ie07c5df0b2c547af9838a5a3f9011b4e20251106171633" /> <g id="Id2cfc09a85054bd6bd78bba3643cf56f20251106171633"> <path id="I510a8dfcc8d44aacb4fc97449994445a20251106171633" d="m 19.531,6.25 c -3.883,0 -7.031,3.148 -7.031,7.031 v 48.438 c 0,3.883 3.148,7.031 7.031,7.031 h 23.438 c 3.863,0 6.996,-3.113 7.031,-6.965 v -4.754 c 0,-1.293 -1.047,-2.343 -2.344,-2.343 -1.418,0 -2.308,-0.383 -2.926,-0.879 -0.648,-0.52 -1.187,-1.329 -1.597,-2.465 -0.852,-2.36 -0.942,-5.469 -0.945,-8.375 0,-0.594 -0.223,-1.164 -0.629,-1.598 -0.239,-0.258 -0.399,-0.43 -0.512,-0.555 -0.285,-0.304 -0.297,-0.32 -0.535,-0.543 -0.231,-0.214 -0.934,-0.89 -3.696,-3.648 -1.464,-1.465 -2.277,-2.703 -2.543,-3.648 -0.121,-0.434 -0.113,-0.758 -0.046,-1.016 0.066,-0.262 0.226,-0.598 0.636,-1.012 0.414,-0.41 0.75,-0.57 1.008,-0.637 0.258,-0.066 0.582,-0.074 1.012,0.051 0.945,0.266 2.183,1.078 3.648,2.543 1.688,1.688 3.289,3.274 4.723,4.692 2.375,2.347 4.293,4.246 5.379,5.41 0.883,0.945 2.367,0.996 3.312,0.113 0.946,-0.883 0.996,-2.367 0.114,-3.312 C 53.172,38.855 51.742,37.426 50,35.699 V 25.188 l 8.879,8.878 c 1.32,1.321 2.059,3.11 2.059,4.973 v 27.367 c 0,1.293 1.05,2.344 2.343,2.344 1.297,0 2.344,-1.051 2.344,-2.344 V 39.039 c 0,-3.109 -1.234,-6.09 -3.43,-8.285 L 50,18.559 V 13.281 C 50,9.398 46.852,6.25 42.969,6.25 Z m 22.262,51.215 c 1.004,0.805 2.18,1.367 3.519,1.664 v 0.246 h -2.343 c -1.293,0 -2.344,1.051 -2.344,2.344 v 2.343 h -4.687 v -2.343 c 0,-2.793 1.628,-5.203 3.984,-6.34 0.504,0.766 1.117,1.476 1.871,2.086 z m -4.289,-13.57 c 0.008,0.789 0.023,1.644 0.07,2.531 -1.785,1.265 -3.965,2.012 -6.324,2.012 -6.039,0 -10.938,-4.899 -10.938,-10.938 0,-6.039 4.899,-10.938 10.938,-10.938 0.504,0 0.996,0.036 1.48,0.098 -0.418,0.278 -0.808,0.606 -1.179,0.977 -0.914,0.914 -1.563,1.968 -1.867,3.156 -0.301,1.187 -0.231,2.359 0.078,3.449 0.59,2.106 2.078,4.035 3.738,5.696 2.762,2.761 3.512,3.48 3.801,3.75 0.019,0.019 0.031,0.031 0.043,0.039 0.008,0.011 0.015,0.015 0.023,0.023 l 0.012,0.012 c 0.016,0.011 0.031,0.031 0.113,0.117 z M 21.875,10.938 h 4.687 v 2.343 c 0,3.883 -3.144,7.031 -7.031,7.031 h -2.343 v -4.687 h 2.343 c 1.297,0 2.344,-1.051 2.344,-2.344 z m 14.063,0 h 4.687 v 2.343 c 0,1.293 1.051,2.344 2.344,2.344 h 2.343 v 4.687 h -2.343 c -3.883,0 -7.031,-3.148 -7.031,-7.031 z m -9.376,53.124 h -4.687 v -2.343 c 0,-1.293 -1.047,-2.344 -2.344,-2.344 h -2.343 v -4.687 h 2.343 c 3.887,0 7.031,3.148 7.031,7.031 z" style="fill:currentColor;fill-opacity:1;fill-rule:nonzero;stroke:none" transform="scale(1.3333333)" /> </g>
</svg>

