<?xml version="1.0" encoding="UTF-8" standalone="no"?> <svg version="1.1" id="I93392b8f7ac84f54803cfb1225748bfa20251106103256" width="100" height="100" viewBox="0 0 100 100" xmlns="http://www.w3.org/2000/svg" xmlns:svg="http://www.w3.org/2000/svg"> <defs id="Iec99d027cfeb440b97ea4da87689ed2d20251106103256" /> <g id="I87c49f4ab0a74cccaa771f84cf451ad020251106103256"> <path id="I4bfae4fa2d244c11bac0841e0315e9a320251106103256" d="m 18.75,42.188 c 0,6.25 9.375,6.25 9.375,0 0,-6.25 -9.375,-6.25 -9.375,0 z m 28.352,10.019 c -1.934,1.523 -5.77,3.164 -9.602,3.164 -3.832,0 -7.668,-1.641 -9.602,-3.164 -1.203,-0.945 -2.953,-0.746 -3.91,0.461 -0.953,1.203 -0.742,2.953 0.461,3.91 3.367,2.652 8.489,4.36 13.051,4.36 4.562,0 9.684,-1.708 13.051,-4.36 1.207,-0.953 1.41,-2.703 0.461,-3.91 -0.953,-1.207 -2.703,-1.414 -3.91,-0.461 z M 75,32.812 c 0,-5.179 -4.195,-9.374 -9.375,-9.374 -3.523,0 -6.586,1.941 -8.195,4.82 -4.821,-2.637 -10.688,-4.336 -17.082,-4.727 l 5.597,-12.566 10.707,3.09 c 0.961,2.726 3.567,4.695 6.629,4.695 3.883,0 7.031,-3.148 7.031,-7.031 0,-3.883 -3.148,-7.031 -7.031,-7.031 -2.679,0 -5.004,1.5 -6.195,3.699 L 45.16,4.938 C 43.824,4.551 42.41,5.207 41.844,6.48 L 34.242,23.547 C 28.008,23.98 22.281,25.672 17.57,28.25 15.914,25.277 12.777,23.434 9.375,23.438 4.195,23.438 0,27.633 0,32.812 c 0,3.833 2.301,7.126 5.59,8.579 -0.594,1.757 -0.902,3.601 -0.902,5.484 0,12.941 14.691,23.437 32.812,23.437 18.121,0 32.812,-10.496 32.812,-23.437 0,-1.891 -0.316,-3.727 -0.902,-5.484 C 72.699,39.938 75,36.645 75,32.812 Z M 63.281,9.082 c 3.516,0 3.516,5.273 0,5.273 -3.515,0 -3.515,-5.273 0,-5.273 z M 4.688,32.812 c 0,-2.585 2.101,-4.687 4.687,-4.687 1.813,0 3.461,1.047 4.234,2.687 -2.453,1.86 -4.476,4 -5.984,6.352 C 5.852,36.445 4.691,34.727 4.688,32.812 Z M 37.5,64.746 c -15.051,0 -27.246,-8.004 -27.246,-17.871 0,-9.867 12.195,-17.871 27.246,-17.871 15.051,0 27.246,8.004 27.246,17.871 0,9.867 -12.195,17.871 -27.246,17.871 z M 67.367,37.164 c -1.5,-2.352 -3.535,-4.492 -5.984,-6.352 0.75,-1.582 2.367,-2.687 4.234,-2.687 2.586,0 4.688,2.102 4.688,4.687 0.007,1.969 -1.215,3.657 -2.938,4.352 z m -20.492,5.024 c 0,6.25 9.375,6.25 9.375,0 0,-6.25 -9.375,-6.25 -9.375,0 z" style="fill:currentColor;fill-opacity:1;fill-rule:nonzero;stroke:none" transform="scale(1.3333333)" /> </g>
</svg>

