<?xml version="1.0" encoding="UTF-8" standalone="no"?> <svg version="1.1" id="Iba1b469f28ae4989a20bfc1ba8f24ffb20251106171633" width="100" height="100" viewBox="0 0 100 100" xmlns="http://www.w3.org/2000/svg" xmlns:svg="http://www.w3.org/2000/svg"> <defs id="Ied74940e56b5477b886ede4336c193b520251106171633" /> <g id="I46ab002578764df8a8e44d832a1da73420251106171633"> <path id="I83b171953cc74a5186dca16e347a63f020251106171633" d="M 58.594,62.5 H 16.406 c -5.414,0 -9.84,-4.238 -10.14,-9.578 L 6.25,52.344 V 19.531 c 0,-3.722 2.891,-6.769 6.551,-7.015 l 0.48,-0.016 h 39.063 c 3.722,0 6.765,2.891 7.015,6.551 l 0.016,0.48 v 2.344 h 2.344 c 3.722,0 6.765,2.891 7.015,6.551 l 0.016,0.48 v 23.438 c 0,5.414 -4.238,9.84 -9.578,10.14 L 58.594,62.5 H 16.406 Z M 16.406,57.812 h 42.188 c 2.871,0 5.222,-2.21 5.449,-5.019 l 0.019,-0.449 V 28.906 c 0,-1.187 -0.882,-2.168 -2.027,-2.324 l -0.316,-0.02 h -2.344 v 24.219 c 0,1.188 -0.883,2.168 -2.027,2.324 l -0.317,0.02 c -1.187,0 -2.168,-0.883 -2.324,-2.027 l -0.019,-0.317 v -31.25 c 0,-1.187 -0.883,-2.168 -2.028,-2.324 L 52.344,17.188 H 13.281 c -1.187,0 -2.168,0.882 -2.324,2.027 l -0.019,0.316 v 32.813 c 0,2.871 2.21,5.222 5.019,5.449 l 0.449,0.019 h 42.188 z m 21.864,-12.5 h 9.394 c 1.293,0 2.344,1.051 2.344,2.344 0,1.188 -0.883,2.168 -2.028,2.324 L 47.664,50 H 38.27 c -1.297,0 -2.344,-1.051 -2.344,-2.344 0,-1.187 0.883,-2.168 2.023,-2.324 l 0.321,-0.02 h 9.394 z M 28.887,34.391 c 1.293,0 2.343,1.047 2.343,2.343 V 47.656 C 31.23,48.949 30.18,50 28.887,50 H 17.961 c -1.293,0 -2.344,-1.051 -2.344,-2.344 V 36.734 c 0,-1.296 1.051,-2.343 2.344,-2.343 z m -2.344,4.687 h -6.238 v 6.234 h 6.238 z M 38.27,34.391 h 9.394 c 1.293,0 2.344,1.047 2.344,2.343 0,1.184 -0.883,2.164 -2.028,2.321 l -0.316,0.023 H 38.27 c -1.297,0 -2.344,-1.051 -2.344,-2.344 0,-1.187 0.883,-2.168 2.023,-2.324 l 0.321,-0.019 h 9.394 z M 17.961,23.445 h 29.703 c 1.293,0 2.344,1.051 2.344,2.344 0,1.188 -0.883,2.168 -2.028,2.324 l -0.316,0.02 H 17.961 c -1.293,0 -2.344,-1.051 -2.344,-2.344 0,-1.187 0.883,-2.168 2.028,-2.324 l 0.316,-0.02 h 29.703 z" style="fill:currentColor;fill-opacity:1;fill-rule:nonzero;stroke:none" transform="scale(1.3333333)" /> </g>
</svg>

