<?xml version="1.0" encoding="UTF-8" standalone="no"?> <svg version="1.1" id="Id6bdc1aab1874d40a6e8aa89f64bb6ff20251110130507" width="100" height="100" viewBox="0 0 100 100" xmlns="http://www.w3.org/2000/svg" xmlns:svg="http://www.w3.org/2000/svg"> <defs id="If8769df73fc344699fc62f9f8e7bddb820251110130507" /> <g id="Ie727117047404fec9fef05c27ca4e8f920251110130507"> <path id="Ic2ee73e7efbe4f97a0c7586bbde5401e20251110130507" d="m 38.559,10.453 c 2.136,-2.008 5.636,-0.488 5.636,2.442 v 49.207 c 0,2.929 -3.496,4.445 -5.636,2.441 L 25.336,52.152 C 24.465,51.34 23.32,50.887 22.129,50.887 h -8.067 c -4.808,0 -8.707,-3.899 -8.707,-8.707 v -9.356 c 0,-4.804 3.899,-8.703 8.707,-8.703 h 8.067 c 1.191,0 2.336,-0.453 3.207,-1.269 z m 1.621,3.988 -12.098,11.344 c -1.613,1.512 -3.742,2.352 -5.953,2.352 h -8.067 c -2.589,0 -4.687,2.101 -4.687,4.687 v 9.356 c 0,2.59 2.098,4.687 4.687,4.687 h 8.067 c 2.211,0 4.34,0.84 5.953,2.352 L 40.18,60.555 Z m 12.808,14.278 c -0.781,-0.789 -2.054,-0.793 -2.84,-0.012 -0.789,0.781 -0.793,2.055 -0.011,2.84 l 5.941,5.988 -5.933,5.906 c -0.786,0.786 -0.79,2.055 -0.004,2.84 0.781,0.789 2.054,0.789 2.839,0.008 l 5.938,-5.914 5.961,5.918 c 0.789,0.781 2.059,0.773 2.844,-0.012 0.781,-0.789 0.773,-2.058 -0.012,-2.84 l -5.949,-5.906 5.957,-5.984 c 0.781,-0.785 0.781,-2.059 -0.008,-2.84 -0.785,-0.785 -2.059,-0.781 -2.84,0.004 l -5.953,5.976 z" style="fill:currentColor;fill-opacity:1;fill-rule:nonzero;stroke:none" transform="scale(1.3333333)" /> </g>
</svg>

