<?xml version="1.0" encoding="UTF-8" standalone="no"?> <svg version="1.1" id="I572087af611d4000a17962f24c0cdd2020251106123600" width="100" height="100" viewBox="0 0 100 100" xmlns="http://www.w3.org/2000/svg" xmlns:svg="http://www.w3.org/2000/svg"> <defs id="I83420db373ae46079277e18c20294bfd20251106123600" /> <g id="I302200f646454afc867ce03373224f3720251106123600"> <path id="Ie18ad9cda6e9484bbdcf3f7d29e3efe520251106123600" d="m 34.383,21.094 c 0,-1.293 -1.051,-2.344 -2.344,-2.344 H 8.602 c -1.297,0 -2.344,1.051 -2.344,2.344 v 23.437 c 0,1.293 1.047,2.344 2.344,2.344 1.293,0 2.343,-1.051 2.343,-2.344 V 26.754 L 38.188,54 c 0.437,0.441 1.035,0.688 1.656,0.688 0.621,0 1.218,-0.247 1.656,-0.688 L 68.062,27.438 c 0.918,-0.915 0.918,-2.399 0,-3.313 -0.914,-0.918 -2.398,-0.918 -3.312,0 L 39.844,49.027 14.258,23.438 h 17.781 c 1.293,0 2.344,-1.051 2.344,-2.344 z" style="fill:currentColor;fill-opacity:1;fill-rule:nonzero;stroke:none" transform="scale(1.3333333)" /> </g>
</svg>

