<?xml version="1.0" encoding="UTF-8" standalone="no"?> <svg version="1.1" id="I7b6573ae2067466bb032b7f1b8c6cdae20251110133655" width="100" height="100" viewBox="0 0 100 100" xmlns="http://www.w3.org/2000/svg" xmlns:svg="http://www.w3.org/2000/svg"> <defs id="I1056940036b04685935e74c6de11d89720251110133655" /> <g id="I7aba6bfb7d0b43eea305172c01193afc20251110133655"> <path id="I677d8906e7714abb92784d8a0754d4a320251110133655" d="m 55.453,33.594 c 1.844,1.847 3.442,4.086 4.66,6.468 0.59,1.153 0.133,2.563 -1.019,3.153 -1.153,0.59 -2.563,0.133 -3.153,-1.02 -1.003,-1.957 -2.316,-3.797 -3.804,-5.285 -6.453,-6.453 -16.133,-7.707 -23.84,-3.762 -1.203,-1.281 -2.707,-2.273 -4.402,-2.859 9.769,-6.371 22.984,-5.266 31.558,3.305 z m -6.57,9.594 c 1.398,1.398 2.551,3.113 3.351,4.941 0.52,1.187 -0.019,2.57 -1.207,3.09 -1.183,0.519 -2.566,-0.024 -3.086,-1.207 C 47.367,48.707 46.543,47.477 45.57,46.5 42.871,43.801 39.141,42.766 35.648,43.387 34.539,42.074 33,41.137 31.25,40.781 v -0.156 c 0,-0.254 -0.008,-0.508 -0.027,-0.758 5.832,-2.562 12.886,-1.457 17.66,3.321 z M 63.898,25.871 c 1.59,1.59 3.094,3.406 4.403,5.301 0.734,1.066 0.465,2.527 -0.598,3.262 -1.066,0.734 -2.527,0.468 -3.262,-0.598 -1.148,-1.664 -2.472,-3.266 -3.855,-4.652 -12.75,-12.75 -33.426,-12.75 -46.176,0 -1.316,1.32 -2.625,2.918 -3.816,4.636 -0.739,1.067 -2.199,1.328 -3.262,0.59 -1.062,-0.734 -1.328,-2.195 -0.59,-3.262 1.344,-1.937 2.824,-3.75 4.356,-5.277 14.582,-14.582 38.218,-14.582 52.8,0 z m -23.086,25.5 c 1.833,1.832 1.833,4.801 0,6.633 -0.914,0.914 -2.113,1.371 -3.312,1.371 L 37.5,50 c 1.199,0 2.398,0.457 3.312,1.371 z M 12.5,43.75 v -3.125 c 0,-4.316 3.496,-7.813 7.812,-7.813 4.317,0 7.813,3.497 7.813,7.813 v 3.125 h 1.563 c 2.589,0 4.687,2.098 4.687,4.688 v 15.624 c 0,2.59 -2.098,4.688 -4.687,4.688 H 10.938 C 8.348,68.75 6.25,66.652 6.25,64.062 V 48.438 c 0,-2.59 2.098,-4.688 4.688,-4.688 z m 4.688,-3.125 v 3.125 h 6.25 v -3.125 c 0,-1.727 -1.399,-3.125 -3.126,-3.125 -1.726,0 -3.124,1.398 -3.124,3.125 z m 6.25,15.625 c 0,-1.727 -1.399,-3.125 -3.126,-3.125 -1.726,0 -3.124,1.398 -3.124,3.125 0,1.727 1.398,3.125 3.124,3.125 1.727,0 3.126,-1.398 3.126,-3.125 z" style="fill:currentColor;fill-opacity:1;fill-rule:nonzero;stroke:none" transform="scale(1.3333333)" /> </g>
</svg>

