<?xml version="1.0" encoding="UTF-8" standalone="no"?> <svg version="1.1" id="I0963f9e4edf9419095d96aba763f3c6d20251106125938" width="100" height="100" viewBox="0 0 100 100" xmlns="http://www.w3.org/2000/svg" xmlns:svg="http://www.w3.org/2000/svg"> <defs id="I752f12e61bc143188d8fd3a043789d3620251106125938" /> <g id="Ibc973dc656884e7692c876a948edba0920251106125938"> <path id="Ia26a0c435d8342baa09c78f2163ab64320251106125938" d="m 42.805,13.633 c 0.73,-0.735 0.73,-1.922 0,-2.653 L 34.848,3.023 c -0.731,-0.73 -1.918,-0.73 -2.653,0 -0.73,0.735 -0.73,1.922 0,2.653 l 3.739,3.738 c -4.883,0.27 -9.711,1.809 -13.946,4.617 l 2.715,2.711 c 3.981,-2.457 8.516,-3.664 13.047,-3.621 0.094,0.004 0.188,-0.004 0.277,-0.016 l -5.832,5.829 c -0.73,0.734 -0.73,1.921 0,2.652 0.735,0.734 1.922,0.734 2.653,0 z m -26.473,5.344 c -9.684,11.05 -9.258,27.871 1.281,38.406 0.961,0.965 1.981,1.844 3.039,2.64 0.828,0.622 2.004,0.454 2.625,-0.378 0.621,-0.829 0.453,-2.004 -0.375,-2.625 -0.918,-0.688 -1.8,-1.45 -2.636,-2.29 -9.075,-9.07 -9.5,-23.515 -1.278,-33.093 l 34.371,34.371 c -4.617,3.965 -10.371,5.922 -16.109,5.863 -0.094,-0.004 -0.188,0.004 -0.277,0.016 l 5.832,-5.828 c 0.73,-0.735 0.73,-1.922 0,-2.653 -0.735,-0.73 -1.922,-0.73 -2.653,0 l -7.957,7.953 c -0.73,0.735 -0.73,1.922 0,2.653 l 7.957,7.957 c 0.731,0.73 1.918,0.73 2.653,0 0.73,-0.735 0.73,-1.922 0,-2.653 l -3.739,-3.738 c 6.082,-0.336 12.079,-2.64 16.954,-6.914 l 8.281,8.281 c 0.73,0.735 1.918,0.735 2.648,0 0.735,-0.73 0.735,-1.918 0,-2.648 L 10.699,8.047 c -0.73,-0.735 -1.918,-0.735 -2.648,0 -0.735,0.73 -0.735,1.918 0,2.648 z m 41.055,-1.368 c 9.621,9.621 10.816,24.481 3.582,35.399 l -2.715,-2.715 c 5.805,-9.398 4.633,-21.883 -3.52,-30.031 -0.836,-0.84 -1.718,-1.602 -2.636,-2.289 -0.828,-0.621 -0.996,-1.797 -0.375,-2.625 0.621,-0.828 1.797,-1 2.625,-0.375 1.058,0.793 2.078,1.672 3.039,2.636 z" style="fill:currentColor;fill-opacity:1;fill-rule:nonzero;stroke:none" transform="scale(1.3333333)" /> </g>
</svg>

