<?xml version="1.0" encoding="UTF-8" standalone="no"?> <svg version="1.1" id="I9e081e258c604972b60219d4b8bb595120251106155156" width="100" height="100" viewBox="0 0 100 100" xmlns="http://www.w3.org/2000/svg" xmlns:svg="http://www.w3.org/2000/svg"> <defs id="Ib31e2750513d4ef8aafa2fd122c9b74f20251106155156" /> <g id="I6b4e638752f8432195401ee62050c24a20251106155156"> <path id="I77679dcdca9a400a9d9dacf0017f85fd20251106155156" d="M 37.5,6.25 V 25 c 0,3.453 2.797,6.25 6.25,6.25 H 62.5 V 62.5 c 0,3.453 -2.797,6.25 -6.25,6.25 H 37.344 C 37.445,68.246 37.5,67.723 37.5,67.188 V 51.562 c 0,-3.781 -2.684,-6.933 -6.25,-7.656 V 43.75 c 0,-6.039 -4.898,-10.938 -10.938,-10.938 -3.058,0 -5.828,1.258 -7.812,3.282 V 12.5 c 0,-3.453 2.797,-6.25 6.25,-6.25 z m 4.688,1.562 V 25 c 0,0.863 0.699,1.562 1.562,1.562 h 17.188 z m 3.124,41.407 c 0,-1.293 -1.05,-2.344 -2.343,-2.344 -1.293,0 -2.344,1.051 -2.344,2.344 v 7.812 c 0,1.293 1.051,2.344 2.344,2.344 1.293,0 2.343,-1.051 2.343,-2.344 z m 7.032,-8.594 C 51.051,40.625 50,41.676 50,42.969 v 14.062 c 0,1.293 1.051,2.344 2.344,2.344 1.293,0 2.344,-1.051 2.344,-2.344 V 42.969 c 0,-1.293 -1.051,-2.344 -2.344,-2.344 z M 12.5,46.875 V 43.75 c 0,-4.316 3.496,-7.812 7.812,-7.812 4.317,0 7.813,3.496 7.813,7.812 v 3.125 h 1.563 c 2.589,0 4.687,2.098 4.687,4.687 v 15.626 c 0,2.589 -2.098,4.687 -4.687,4.687 h -18.75 c -2.59,0 -4.688,-2.098 -4.688,-4.687 V 51.562 c 0,-2.589 2.098,-4.687 4.688,-4.687 z m 4.688,-3.125 v 3.125 h 6.25 V 43.75 c 0,-1.727 -1.399,-3.125 -3.126,-3.125 -1.726,0 -3.124,1.398 -3.124,3.125 z m 6.25,15.625 c 0,-1.727 -1.399,-3.125 -3.126,-3.125 -1.726,0 -3.124,1.398 -3.124,3.125 0,1.727 1.398,3.125 3.124,3.125 1.727,0 3.126,-1.398 3.126,-3.125 z" style="fill:currentColor;fill-opacity:1;fill-rule:nonzero;stroke:none" transform="scale(1.3333333)" /> </g>
</svg>

