<?xml version="1.0" encoding="UTF-8" standalone="no"?> <svg version="1.1" id="Ib9a153a56ed044f7b163be3e81de044120251106103256" width="100" height="100" viewBox="0 0 100 100" xmlns="http://www.w3.org/2000/svg" xmlns:svg="http://www.w3.org/2000/svg"> <defs id="Ifd9550c17f2f4e41827bc1899bbfea1920251106103256" /> <g id="I2e4d4dcd121c473ea07ecfb597aa9f3420251106103256"> <path id="I67fbe64764cd4036903dc2d2635f8bdd20251106103256" d="M 66.27,12.289 62.719,8.738 C 62.457,8.48 62.035,8.48 61.773,8.738 L 8.73,61.766 c -0.257,0.261 -0.257,0.683 0,0.945 l 3.551,3.551 c 0.258,0.258 0.684,0.258 0.946,0 L 66.262,13.227 c 0.265,-0.254 0.265,-0.68 0.008,-0.938 z M 20.09,32.145 c 6.644,0 12.055,-5.411 12.055,-12.055 0,-6.649 -5.411,-12.055 -12.055,-12.055 -6.649,0 -12.055,5.406 -12.055,12.055 0,6.644 5.406,12.055 12.055,12.055 z m 0,-18.083 c 3.324,0 6.027,2.704 6.027,6.028 0,3.324 -2.703,6.027 -6.027,6.027 -3.324,0 -6.028,-2.703 -6.028,-6.027 0,-3.324 2.704,-6.028 6.028,-6.028 z m 34.82,28.793 c -6.644,0 -12.055,5.411 -12.055,12.055 0,6.649 5.411,12.055 12.055,12.055 6.649,0 12.055,-5.406 12.055,-12.055 0,-6.644 -5.406,-12.055 -12.055,-12.055 z m 0,18.083 c -3.324,0 -6.027,-2.704 -6.027,-6.028 0,-3.324 2.703,-6.027 6.027,-6.027 3.324,0 6.028,2.703 6.028,6.027 0,3.324 -2.704,6.028 -6.028,6.028 z" style="fill:currentColor;fill-opacity:1;fill-rule:nonzero;stroke:none" transform="scale(1.3333333)" /> </g>
</svg>

