<?xml version="1.0" encoding="UTF-8" standalone="no"?> <svg version="1.1" id="I68b6a9cdfe9f4ba6b033c74c6228bb7c20251110124419" width="100" height="100" viewBox="0 0 100 100" xmlns="http://www.w3.org/2000/svg" xmlns:svg="http://www.w3.org/2000/svg"> <defs id="I4a702e6ddf2243bfa8ecc3af905b51e620251110124419" /> <g id="Ia7d0258da95846819fc652b32836d9c520251110124419"> <path id="I6106c1abb3914fe19ae17715ca502cfc20251110124419" d="m 34.195,24.852 c -2.679,-1.59 -6.07,0.339 -6.07,3.453 v 18.39 c 0,3.114 3.391,5.043 6.07,3.453 L 51.617,39.805 c 1.75,-1.039 1.75,-3.571 0,-4.61 z M 5.355,37.5 C 5.355,19.746 19.746,5.355 37.5,5.355 55.254,5.355 69.645,19.746 69.645,37.5 69.645,55.254 55.254,69.645 37.5,69.645 19.746,69.645 5.355,55.254 5.355,37.5 Z M 37.5,9.375 C 21.969,9.375 9.375,21.969 9.375,37.5 9.375,53.031 21.969,65.625 37.5,65.625 53.031,65.625 65.625,53.031 65.625,37.5 65.625,21.969 53.031,9.375 37.5,9.375 Z" style="fill:currentColor;fill-opacity:1;fill-rule:nonzero;stroke:none" transform="scale(1.3333333)" /> </g>
</svg>

