<?xml version="1.0" encoding="UTF-8" standalone="no"?> <svg version="1.1" id="I444ffc0020714e0097a8f017e302549c20251106143239" width="100" height="100" viewBox="0 0 100 100" xmlns="http://www.w3.org/2000/svg" xmlns:svg="http://www.w3.org/2000/svg"> <defs id="Ifb8143b5c18e4758935c30fe341de93a20251106143239" /> <g id="Ibb2f2c58fe004c0aa1ad95aad4fdfe2120251106143239"> <path id="I1a35be6c2d444dd19e1b0ddc813a7e8520251106143239" d="m 69.527,23.945 c -0.136,3.09 -1.449,6.18 -3.472,8.703 l -0.391,0.489 c -1.559,1.949 -4,2.972 -6.48,2.722 l -6.75,-0.671 C 49.34,34.879 46.773,32.66 46.02,29.645 l -1.18,-4.731 c -0.25,-0.996 -0.832,-1.609 -1.449,-1.801 -3.524,-1.093 -8.297,-1.074 -11.782,0.004 -0.617,0.192 -1.199,0.801 -1.449,1.797 l -1.18,4.731 c -0.753,3.015 -3.32,5.234 -6.414,5.543 l -6.75,0.671 c -2.48,0.25 -4.918,-0.773 -6.48,-2.722 L 8.945,32.648 C 6.922,30.125 5.609,27.035 5.473,23.945 5.336,20.805 6.426,17.676 9.164,15.371 14.328,11.035 23.117,6.695 37.5,6.695 c 14.383,0 23.176,4.34 28.336,8.676 2.738,2.305 3.832,5.434 3.691,8.574 z m -4.015,-0.179 c 0.093,-2.047 -0.59,-3.914 -2.262,-5.317 -4.383,-3.687 -12.242,-7.734 -25.75,-7.734 -13.508,0 -21.363,4.047 -25.75,7.734 -1.672,1.403 -2.352,3.27 -2.262,5.317 0.094,2.101 1.012,4.398 2.594,6.371 l 0.391,0.488 c 0.707,0.887 1.816,1.352 2.945,1.238 l 6.75,-0.675 c 1.406,-0.141 2.57,-1.149 2.914,-2.52 l 1.184,-4.73 c 0.488,-1.965 1.851,-3.946 4.156,-4.657 4.246,-1.316 9.851,-1.343 14.16,-0.004 2.301,0.715 3.664,2.696 4.156,4.661 l 1.18,4.73 c 0.344,1.371 1.512,2.379 2.918,2.52 l 6.746,0.675 c 1.129,0.114 2.238,-0.351 2.945,-1.238 l 0.395,-0.488 c 1.578,-1.973 2.5,-4.27 2.59,-6.371 z M 37.5,69.645 c -9.617,0 -17.41,-7.797 -17.41,-17.415 0,-9.613 7.793,-17.41 17.41,-17.41 9.617,0 17.41,7.797 17.41,17.41 0,9.618 -7.793,17.415 -17.41,17.415 z m 0,-4.02 c 7.398,0 13.395,-5.996 13.395,-13.395 0,-2.972 -0.969,-5.718 -2.61,-7.941 L 29.559,63.016 c 2.222,1.64 4.968,2.609 7.941,2.609 z M 45.445,41.449 C 43.223,39.809 40.473,38.84 37.5,38.84 c -7.398,0 -13.395,5.996 -13.395,13.39 0,2.977 0.973,5.723 2.61,7.946 z" style="fill:currentColor;fill-opacity:1;fill-rule:nonzero;stroke:none" transform="scale(1.3333333)" /> </g>
</svg>

