<?xml version="1.0" encoding="UTF-8" standalone="no"?> <svg version="1.1" id="I84a0aa7aa9de4aaf8d2697cb3c019aa120251110123031" width="100" height="100" viewBox="0 0 100 100" xmlns="http://www.w3.org/2000/svg" xmlns:svg="http://www.w3.org/2000/svg"> <defs id="Ic65d15ebe3dc4a18a23cbdae6918bb8f20251110123031" /> <g id="Ie8760ef8a90144f593e606b9b5e22e4920251110123031"> <path id="I0be6db4018b442feaa9e59ca424d93d720251110123031" d="m 41.176,22.5 c -0.117,1.289 -0.352,2.543 -0.696,3.75 h 15.762 v 22.5 H 18.727 v -7.586 c -1.289,-0.117 -2.543,-0.355 -3.754,-0.695 v 13.906 c 0,1.035 -0.84,1.875 -1.875,1.875 -1.036,0 -1.875,-0.84 -1.875,-1.875 V 38.988 C 9.879,38.301 8.621,37.473 7.469,36.516 v 17.859 c 0,3.105 2.519,5.625 5.629,5.625 3.109,0 5.629,-2.52 5.629,-5.625 V 52.5 h 37.515 v 1.875 C 56.242,57.48 58.766,60 61.871,60 64.98,60 67.5,57.48 67.5,54.375 V 20.625 C 67.5,17.52 64.98,15 61.871,15 c -3.105,0 -5.629,2.52 -5.629,5.625 V 22.5 Z m 20.695,-3.75 c 1.035,0 1.879,0.84 1.879,1.875 v 33.75 c 0,1.035 -0.844,1.875 -1.879,1.875 -1.035,0 -1.875,-0.84 -1.875,-1.875 v -33.75 c 0,-1.035 0.84,-1.875 1.875,-1.875 z m -41.238,-15 c -9.324,0 -16.883,7.555 -16.883,16.875 0,9.32 7.559,16.875 16.883,16.875 9.324,0 16.883,-7.555 16.883,-16.875 0,-9.32 -7.559,-16.875 -16.883,-16.875 z m 9.769,20.238 c 0.731,0.731 0.731,1.918 0,2.649 l -6.566,6.562 c -0.18,0.18 -0.387,0.317 -0.609,0.41 -0.219,0.09 -0.461,0.141 -0.719,0.141 -0.254,0 -0.496,-0.051 -0.715,-0.141 -0.219,-0.093 -0.422,-0.226 -0.602,-0.402 l -6.574,-6.57 c -0.734,-0.731 -0.734,-1.918 0,-2.649 0.735,-0.734 1.922,-0.734 2.653,0 l 3.363,3.36 V 21.562 C 20.633,17.938 17.695,15 14.066,15 h -0.937 c -1.035,0 -1.875,-0.84 -1.875,-1.875 0,-1.035 0.84,-1.875 1.875,-1.875 h 0.937 c 5.7,0 10.321,4.617 10.321,10.312 v 5.786 l 3.363,-3.36 c 0.73,-0.734 1.918,-0.734 2.652,0 z" style="fill:currentColor;fill-opacity:1;fill-rule:nonzero;stroke:none" transform="scale(1.3333333)" /> </g>
</svg>

