<?xml version="1.0" encoding="UTF-8" standalone="no"?> <svg version="1.1" id="I17a4305b43fe4e05a643e76540027d3720251110124421" width="100" height="100" viewBox="0 0 100 100" xmlns="http://www.w3.org/2000/svg" xmlns:svg="http://www.w3.org/2000/svg"> <defs id="I6de4071d351c4453b633b00a31daa16420251110124421" /> <g id="I5eb4fe15155142119d293c047c5286d220251110124421"> <path id="I266f8b6f521f48c7967aa641b5e4325a20251110124421" d="M 6.973,32.457 C 5.688,27.055 9.781,21.871 15.332,21.871 H 59.66 c 5.551,0 9.649,5.188 8.36,10.59 l -3.36,14.066 c -0.922,3.868 -4.379,6.598 -8.359,6.598 H 18.68 c -3.977,0 -7.438,-2.73 -8.36,-6.602 z m 14.902,3.481 c 1.293,0 2.344,-1.051 2.344,-2.344 0,-1.297 -1.051,-2.344 -2.344,-2.344 -1.297,0 -2.344,1.047 -2.344,2.344 0,1.293 1.047,2.344 2.344,2.344 z m 10.156,-2.344 c 0,-1.297 -1.051,-2.344 -2.343,-2.344 -1.297,0 -2.344,1.047 -2.344,2.344 0,1.293 1.047,2.344 2.344,2.344 1.292,0 2.343,-1.051 2.343,-2.344 z m -6.25,10.156 c 1.293,0 2.344,-1.051 2.344,-2.344 0,-1.297 -1.051,-2.344 -2.344,-2.344 -1.297,0 -2.343,1.047 -2.343,2.344 0,1.293 1.046,2.344 2.343,2.344 z m 10.157,-2.344 c 0,-1.297 -1.051,-2.344 -2.344,-2.344 -1.297,0 -2.344,1.047 -2.344,2.344 0,1.293 1.047,2.344 2.344,2.344 1.293,0 2.344,-1.051 2.344,-2.344 z m 5.468,2.344 c 1.293,0 2.344,-1.051 2.344,-2.344 0,-1.297 -1.051,-2.344 -2.344,-2.344 -1.297,0 -2.344,1.047 -2.344,2.344 0,1.293 1.047,2.344 2.344,2.344 z m 10.156,-2.344 c 0,-1.297 -1.05,-2.344 -2.343,-2.344 -1.297,0 -2.344,1.047 -2.344,2.344 0,1.293 1.047,2.344 2.344,2.344 1.293,0 2.343,-1.051 2.343,-2.344 z M 37.5,35.938 c 1.293,0 2.344,-1.051 2.344,-2.344 0,-1.297 -1.051,-2.344 -2.344,-2.344 -1.297,0 -2.344,1.047 -2.344,2.344 0,1.293 1.047,2.344 2.344,2.344 z m 10.156,-2.344 c 0,-1.297 -1.051,-2.344 -2.344,-2.344 -1.296,0 -2.343,1.047 -2.343,2.344 0,1.293 1.047,2.344 2.343,2.344 1.293,0 2.344,-1.051 2.344,-2.344 z m 5.469,2.344 c 1.293,0 2.344,-1.051 2.344,-2.344 0,-1.297 -1.051,-2.344 -2.344,-2.344 -1.297,0 -2.344,1.047 -2.344,2.344 0,1.293 1.047,2.344 2.344,2.344 z" style="fill:currentColor;fill-opacity:1;fill-rule:nonzero;stroke:none" transform="scale(1.3333333)" /> </g>
</svg>

