<?xml version="1.0" encoding="UTF-8" standalone="no"?> <svg version="1.1" id="Ib8dc190ccb4b454da9e573963793fd4f20251106142135" width="100" height="100" viewBox="0 0 100 100" xmlns="http://www.w3.org/2000/svg" xmlns:svg="http://www.w3.org/2000/svg"> <defs id="I7f300e58e4994ddda52f5898ae08d58520251106142135" /> <g id="I3e6ee8ebee284aa3a59aba5c0cdab5fa20251106142135"> <path id="I9d5ab75673cb4d1984d27830c8ca63a320251106142135" d="m 37.5,4.02 c 1.109,0 2.008,0.898 2.008,2.007 v 2.008 h 12.054 c 4.067,0 7.368,3.297 7.368,7.367 v 14.731 c 0,1.84 -0.676,3.519 -1.789,4.812 -0.731,-0.082 -1.477,-0.125 -2.231,-0.125 -3.652,0 -7.078,0.977 -10.027,2.68 H 23.438 c -4.067,0 -7.368,-3.297 -7.368,-7.367 V 15.402 c 0,-4.07 3.301,-7.367 7.368,-7.367 H 35.492 V 6.027 c 0,-1.109 0.899,-2.007 2.008,-2.007 z m -2.68,50.89 c 0,-4.523 1.496,-8.695 4.02,-12.055 H 18.082 c -4.07,0 -7.367,3.301 -7.367,7.368 v 2.007 c 0,5.297 2.574,9.758 7.277,12.805 4.625,2.996 11.25,4.61 19.508,4.61 1.25,0 2.461,-0.04 3.637,-0.114 C 37.246,65.871 34.82,60.672 34.82,54.91 Z M 29.465,26.785 c 2.219,0 4.015,-1.797 4.015,-4.015 0,-2.219 -1.796,-4.02 -4.015,-4.02 -2.219,0 -4.02,1.801 -4.02,4.02 0,2.218 1.801,4.015 4.02,4.015 z m 20.09,-4.015 c 0,-2.219 -1.801,-4.02 -4.02,-4.02 -2.219,0 -4.015,1.801 -4.015,4.02 0,2.218 1.796,4.015 4.015,4.015 2.219,0 4.02,-1.797 4.02,-4.015 z M 72.32,54.91 c 0,9.617 -7.793,17.41 -17.41,17.41 -9.617,0 -17.41,-7.793 -17.41,-17.41 0,-9.617 7.793,-17.41 17.41,-17.41 9.617,0 17.41,7.793 17.41,17.41 z M 56.25,44.195 c 0,-0.738 -0.602,-1.34 -1.34,-1.34 -0.738,0 -1.34,0.602 -1.34,1.34 v 9.375 h -9.375 c -0.738,0 -1.34,0.602 -1.34,1.34 0,0.738 0.602,1.34 1.34,1.34 h 9.375 v 9.375 c 0,0.738 0.602,1.34 1.34,1.34 0.738,0 1.34,-0.602 1.34,-1.34 V 56.25 h 9.375 c 0.738,0 1.34,-0.602 1.34,-1.34 0,-0.738 -0.602,-1.34 -1.34,-1.34 H 56.25 Z" style="fill:currentColor;fill-opacity:1;fill-rule:nonzero;stroke:none" transform="scale(1.3333333)" /> </g>
</svg>

