<?xml version="1.0" encoding="UTF-8" standalone="no"?> <svg version="1.1" id="I98ef5714940a438ab5c1ee72380ff22f20251110130508" width="100" height="100" viewBox="0 0 100 100" xmlns="http://www.w3.org/2000/svg" xmlns:svg="http://www.w3.org/2000/svg"> <defs id="I08a0b09d56fc4c35bbaa782c8d361ff620251110130508" /> <g id="I24c75d37eed44cd0aed8ec3f97bf142120251110130508"> <path id="If4d3cd842cca48488c02d88c867aa76420251110130508" d="m 51.965,9.777 c 3.66,-3.66 9.597,-3.66 13.258,0 3.66,3.661 3.66,9.598 0,13.258 -1.703,1.703 -5.606,4.422 -8.969,6.653 -1.707,1.132 -3.309,2.16 -4.488,2.906 -0.246,0.156 -0.473,0.301 -0.676,0.429 l 7.562,7.567 c 4.118,4.117 4.118,10.797 0,14.914 l -8.121,8.121 c -1.371,1.371 -3.597,1.371 -4.969,0 l -2.203,-2.203 -6.89,6.89 c -1.371,1.372 -3.598,1.372 -4.969,0 L 6.688,43.5 c -1.372,-1.371 -1.372,-3.598 0,-4.969 l 6.89,-6.89 -2.203,-2.203 c -1.371,-1.372 -1.371,-3.598 0,-4.969 l 8.121,-8.121 c 4.117,-4.118 10.797,-4.118 14.914,0 l 7.567,7.562 c 0.128,-0.203 0.273,-0.43 0.429,-0.676 0.746,-1.179 1.774,-2.781 2.906,-4.488 2.231,-3.363 4.95,-7.266 6.653,-8.969 z m -2.578,21.547 c 0.304,-0.187 0.683,-0.429 1.125,-0.707 1.168,-0.742 2.758,-1.762 4.445,-2.883 3.422,-2.269 7.105,-4.855 8.609,-6.355 2.746,-2.746 2.746,-7.199 0,-9.945 -2.746,-2.746 -7.199,-2.746 -9.945,0 -1.5,1.504 -4.086,5.187 -6.355,8.609 -1.121,1.687 -2.141,3.277 -2.883,4.445 -0.278,0.442 -0.52,0.821 -0.707,1.125 z M 32.754,18.004 c -3.203,-3.203 -8.399,-3.203 -11.602,0 l -8.121,8.121 c -0.457,0.457 -0.457,1.199 0,1.656 l 34.188,34.188 c 0.457,0.457 1.199,0.457 1.656,0 l 8.121,-8.121 c 3.203,-3.203 3.203,-8.399 0,-11.602 z M 8.344,40.188 c -0.457,0.457 -0.457,1.199 0,1.656 l 24.812,24.812 c 0.457,0.457 1.199,0.457 1.656,0 l 6.891,-6.89 -26.469,-26.469 z" style="fill:currentColor;fill-opacity:1;fill-rule:nonzero;stroke:none" transform="scale(1.3333333)" /> </g>
</svg>

