<?xml version="1.0" encoding="UTF-8" standalone="no"?> <svg version="1.1" id="I79d090f2a8e6462ab4df18f6e45c35a620251106143239" width="100" height="100" viewBox="0 0 100 100" xmlns="http://www.w3.org/2000/svg" xmlns:svg="http://www.w3.org/2000/svg"> <defs id="Ie62731d05a9f4653a2e01dbe4fb929da20251106143239" /> <g id="Iaeedaff04eb0425b8547d0c23e1afb3820251106143239"> <path id="I1e31d04345834e14b7a31a4531c0cdbd20251106143239" d="m 69.055,8.785 c 0.785,-0.781 0.785,-2.055 0,-2.84 -0.785,-0.785 -2.059,-0.785 -2.84,0 L 44.195,27.961 V 11.383 c 0,-1.11 -0.898,-2.008 -2.007,-2.008 -1.11,0 -2.008,0.898 -2.008,2.008 v 21.429 c 0,1.11 0.898,2.008 2.008,2.008 h 21.429 c 1.11,0 2.008,-0.898 2.008,-2.008 0,-1.109 -0.898,-2.007 -2.008,-2.007 H 47.039 Z M 10.957,7.723 c 3,-1.926 6.84,-2.668 10.629,-2.149 l 0.66,0.09 c 2.41,0.328 4.504,1.828 5.594,4.004 l 3.457,6.914 c 1.961,3.926 0.695,8.703 -2.957,11.137 l -4.574,3.051 c -1.067,0.707 -1.364,1.691 -1.129,2.406 1.422,4.324 5.199,10.187 8.492,13.543 0.617,0.633 1.73,0.816 2.879,0.183 L 37.5,44.984 c 4.875,-2.679 10.996,-0.89 13.66,3.993 l 2.793,5.117 c 1.188,2.176 1.199,4.801 0.035,6.988 C 50.105,68.383 41.246,72.434 33.73,67.516 27.32,63.32 19.438,56.367 12.992,45.199 6.449,33.871 5.141,24.051 5.543,16.941 5.777,12.84 7.918,9.676 10.957,7.723 Z" style="fill:currentColor;fill-opacity:1;fill-rule:nonzero;stroke:none" transform="scale(1.3333333)" /> </g>
</svg>

