<?xml version="1.0" encoding="UTF-8" standalone="no"?> <svg version="1.1" id="I434656f7c59f4019a7f8dd89fc0948f520251106171633" width="100" height="100" viewBox="0 0 100 100" xmlns="http://www.w3.org/2000/svg" xmlns:svg="http://www.w3.org/2000/svg"> <defs id="I46d480595d3141f4bfa4a6700446198220251106171633" /> <g id="I5c6f8bb8411f41048ec2e62aaf5bf86c20251106171633"> <path id="I0c54c6ffe09a41d9b6b783843a04e2d720251106171633" d="M 37.5,5.355 C 19.746,5.355 5.355,19.746 5.355,37.5 5.355,55.254 19.746,69.645 37.5,69.645 55.254,69.645 69.645,55.254 69.645,37.5 69.645,19.746 55.254,5.355 37.5,5.355 Z M 25.445,37.5 c 0,2.219 -1.797,4.02 -4.015,4.02 -2.219,0 -4.02,-1.801 -4.02,-4.02 0,-2.219 1.801,-4.02 4.02,-4.02 2.218,0 4.015,1.801 4.015,4.02 z m 16.075,0 c 0,2.219 -1.801,4.02 -4.02,4.02 -2.219,0 -4.02,-1.801 -4.02,-4.02 0,-2.219 1.801,-4.02 4.02,-4.02 2.219,0 4.02,1.801 4.02,4.02 z m 16.07,0 c 0,2.219 -1.801,4.02 -4.02,4.02 -2.218,0 -4.015,-1.801 -4.015,-4.02 0,-2.219 1.797,-4.02 4.015,-4.02 2.219,0 4.02,1.801 4.02,4.02 z" style="fill:currentColor;fill-opacity:1;fill-rule:nonzero;stroke:none" transform="scale(1.3333333)" /> </g>
</svg>

