<?xml version="1.0" encoding="UTF-8" standalone="no"?> <svg version="1.1" id="Ie1d6283a691c4955904195422964902020251110124421" width="100" height="100" viewBox="0 0 100 100" xmlns="http://www.w3.org/2000/svg" xmlns:svg="http://www.w3.org/2000/svg"> <defs id="I4e62d447733b412098779e260536a09920251110124421" /> <g id="If4eeb5c202f44e578a097976def0b3ed20251110124421"> <path id="I10f0a9ee9770493f8d76a6489239b80f20251110124421" d="M 65.625,19.531 C 65.625,13.922 61.078,9.375 55.469,9.375 H 19.531 c -5.609,0 -10.156,4.547 -10.156,10.156 v 35.938 c 0,5.609 4.547,10.156 10.156,10.156 h 35.938 c 5.609,0 10.156,-4.547 10.156,-10.156 z M 23.438,27.324 C 24.523,26.129 26.297,25 28.906,25 c 3.602,0 5.918,2.477 6.735,5.191 0.789,2.645 0.308,5.922 -1.938,8.18 -0.773,0.777 -1.683,1.481 -2.476,2.094 l -0.129,0.097 c -0.871,0.676 -1.653,1.286 -2.34,1.973 -0.797,0.797 -1.449,1.668 -1.832,2.777 h 6.668 c 1.293,0 2.344,1.051 2.344,2.344 0,1.293 -1.051,2.344 -2.344,2.344 H 24.219 C 23.598,50 23,49.754 22.562,49.312 c -0.441,-0.437 -0.687,-1.035 -0.687,-1.656 0,-3.898 1.637,-6.508 3.574,-8.441 0.926,-0.922 1.93,-1.703 2.781,-2.36 l 0.012,-0.007 c 0.891,-0.692 1.586,-1.227 2.137,-1.782 0.851,-0.855 1.148,-2.265 0.769,-3.531 -0.355,-1.191 -1.156,-1.847 -2.242,-1.847 -1.101,0 -1.672,0.425 -2,0.789 -0.187,0.207 -0.312,0.414 -0.39,0.566 -0.039,0.07 -0.063,0.125 -0.071,0.152 l -0.004,0.008 c -0.402,1.207 -1.703,1.875 -2.921,1.492 -1.239,-0.386 -1.926,-1.699 -1.54,-2.937 l 0.11,-0.297 c 0.058,-0.149 0.14,-0.336 0.254,-0.555 0.218,-0.433 0.57,-1.004 1.094,-1.582 z M 41.406,25 c 1.293,0 2.344,1.051 2.344,2.344 v 8.59 h 4.688 v -8.59 c 0,-1.293 1.05,-2.344 2.343,-2.344 1.293,0 2.344,1.051 2.344,2.344 v 20.218 c 0,1.297 -1.051,2.344 -2.344,2.344 -1.293,0 -2.343,-1.047 -2.343,-2.344 v -6.941 h -7.032 c -1.293,0 -2.344,-1.047 -2.344,-2.344 V 27.344 C 39.062,26.051 40.113,25 41.406,25 Z" style="fill:currentColor;fill-opacity:1;fill-rule:nonzero;stroke:none" transform="scale(1.3333333)" /> </g>
</svg>

