<?xml version="1.0" encoding="UTF-8" standalone="no"?> <svg version="1.1" id="I51c98a3d6a4945fe924419b749f8048f20251106163938" width="100" height="100" viewBox="0 0 100 100" xmlns="http://www.w3.org/2000/svg" xmlns:svg="http://www.w3.org/2000/svg"> <defs id="Ib0c29d5fa6c3471fbd057244da973d4020251106163938" /> <g id="Ic9bbcc2ba20844f88c54ee1a91ed131e20251106163938"> <path id="Icf2b7a788b254d48a444ef3c17728ff720251106163938" d="m 59.297,43.75 c 0.312,0 0.621,0.098 0.875,0.277 0.254,0.18 0.449,0.434 0.551,0.731 l 1.246,3.824 c 0.386,1.16 1.039,2.223 1.906,3.086 0.867,0.867 1.922,1.52 3.086,1.906 l 3.828,1.242 0.074,0.02 c 0.297,0.102 0.555,0.297 0.735,0.551 0.179,0.254 0.277,0.558 0.277,0.871 0,0.312 -0.098,0.617 -0.277,0.875 -0.18,0.254 -0.438,0.449 -0.735,0.551 l -3.824,1.242 c -1.164,0.386 -2.219,1.039 -3.086,1.906 -0.867,0.863 -1.519,1.926 -1.906,3.086 l -1.246,3.824 c -0.012,0.031 -0.024,0.063 -0.039,0.094 -0.11,0.254 -0.285,0.476 -0.516,0.637 -0.254,0.179 -0.558,0.277 -0.871,0.277 -0.313,0 -0.617,-0.098 -0.871,-0.277 -0.258,-0.18 -0.449,-0.434 -0.555,-0.731 L 56.703,63.918 C 56.422,63.066 56,62.27 55.453,61.562 55.254,61.305 55.035,61.055 54.805,60.82 c -0.586,-0.586 -1.258,-1.07 -1.993,-1.445 -0.351,-0.18 -0.718,-0.34 -1.101,-0.469 l -3.824,-1.242 c -0.297,-0.102 -0.555,-0.297 -0.735,-0.551 -0.179,-0.254 -0.277,-0.558 -0.277,-0.871 0,-0.203 0.043,-0.398 0.121,-0.586 0.043,-0.097 0.094,-0.199 0.156,-0.289 0.059,-0.082 0.129,-0.16 0.203,-0.226 0.02,-0.024 0.043,-0.039 0.067,-0.059 0.137,-0.113 0.293,-0.207 0.465,-0.266 l 3.824,-1.242 c 0.012,-0.004 0.019,-0.008 0.031,-0.012 0.344,-0.121 0.676,-0.273 1,-0.437 h 0.012 c 0.738,-0.383 1.414,-0.875 2,-1.473 0.832,-0.84 1.461,-1.859 1.844,-2.976 l 0.031,-0.094 1.246,-3.824 c 0.102,-0.297 0.297,-0.551 0.551,-0.731 0.254,-0.179 0.558,-0.277 0.871,-0.277 z M 52.344,12.5 c 7.336,0 13.281,5.945 13.281,13.281 0,7.336 -5.945,13.281 -13.281,13.281 H 22.656 c -3.883,0 -7.031,3.149 -7.031,7.032 0,3.883 3.148,7.031 7.031,7.031 h 22.313 c -0.047,0.051 -0.102,0.098 -0.149,0.152 l -0.218,0.285 c -0.485,0.684 -0.774,1.485 -0.836,2.317 l -0.016,0.363 0.016,0.356 c 0.062,0.832 0.351,1.636 0.836,2.324 0.113,0.16 0.238,0.308 0.371,0.453 H 22.656 c -7.336,0 -13.281,-5.945 -13.281,-13.281 0,-7.336 5.945,-13.282 13.281,-13.282 h 29.688 c 3.883,0 7.031,-3.148 7.031,-7.031 0,-3.883 -3.148,-7.031 -7.031,-7.031 H 43.75 c -1.727,0 -3.125,-1.398 -3.125,-3.125 0,-1.727 1.398,-3.125 3.125,-3.125 z m -35.156,0 c 1.726,0 3.124,1.398 3.124,3.125 0,1.727 -1.398,3.125 -3.124,3.125 H 12.5 c -1.727,0 -3.125,-1.398 -3.125,-3.125 0,-1.727 1.398,-3.125 3.125,-3.125 z m 15.624,0 c 1.727,0 3.126,1.398 3.126,3.125 0,1.727 -1.399,3.125 -3.126,3.125 H 28.125 C 26.398,18.75 25,17.352 25,15.625 25,13.898 26.398,12.5 28.125,12.5 Z" style="fill:currentColor;fill-opacity:1;fill-rule:nonzero;stroke:none" transform="scale(1.3333333)" /> </g>
</svg>

