<?xml version="1.0" encoding="UTF-8" standalone="no"?> <svg version="1.1" id="Ic8e2208036554036bb224596c5246b4020251106155156" width="100" height="100" viewBox="0 0 100 100" xmlns="http://www.w3.org/2000/svg" xmlns:svg="http://www.w3.org/2000/svg"> <defs id="Ia1757bdfd9be413ca89151a1a8795d5f20251106155156" /> <g id="I3cdf82a5d28f49e3bb739c57c6a3478720251106155156"> <path id="I1300eedf61db437cbaf6d461871b405c20251106155156" d="m 48.965,26.035 c 0.785,0.785 0.785,2.055 0,2.84 l -8.625,8.625 8.625,8.625 c 0.785,0.785 0.785,2.055 0,2.84 -0.785,0.785 -2.055,0.785 -2.84,0 L 37.5,40.34 28.875,48.965 c -0.785,0.785 -2.055,0.785 -2.84,0 -0.785,-0.785 -0.785,-2.055 0,-2.84 L 34.66,37.5 26.035,28.875 c -0.785,-0.785 -0.785,-2.055 0,-2.84 0.785,-0.785 2.055,-0.785 2.84,0 l 8.625,8.625 8.625,-8.625 c 0.785,-0.785 2.055,-0.785 2.84,0 z M 69.645,37.5 C 69.645,19.746 55.254,5.355 37.5,5.355 19.746,5.355 5.355,19.746 5.355,37.5 c 0,17.754 14.391,32.145 32.145,32.145 17.754,0 32.145,-14.391 32.145,-32.145 z m -60.27,0 C 9.375,21.969 21.969,9.375 37.5,9.375 53.031,9.375 65.625,21.969 65.625,37.5 65.625,53.031 53.031,65.625 37.5,65.625 21.969,65.625 9.375,53.031 9.375,37.5 Z" style="fill:currentColor;fill-opacity:1;fill-rule:nonzero;stroke:none" transform="scale(1.3333333)" /> </g>
</svg>

