<?xml version="1.0" encoding="UTF-8" standalone="no"?> <svg version="1.1" id="Ie097a82270e34515817ac49db7c9032d20251106151526" width="100" height="100" viewBox="0 0 100 100" xmlns="http://www.w3.org/2000/svg" xmlns:svg="http://www.w3.org/2000/svg"> <defs id="Id8d0df5bd1d142f3a8fa3308959c1be020251106151526" /> <g id="I3b7d76bd7f6849d49e3c73e5f3ac78e220251106151526"> <path id="I82237b149edd4669bd2e645c2b4bf4f020251106151526" d="m 54.688,37.5 c 9.492,0 17.187,7.695 17.187,17.188 0,9.492 -7.695,17.187 -17.187,17.187 C 45.195,71.875 37.5,64.18 37.5,54.688 37.5,45.195 45.195,37.5 54.688,37.5 Z M 9.375,59.375 34.918,59.379 c 0.535,2.25 1.441,4.355 2.652,6.25 L 9.375,65.625 c -1.727,0 -3.125,-1.398 -3.125,-3.125 0,-1.602 1.207,-2.922 2.762,-3.105 z M 47.164,46.77 46.949,46.949 46.77,47.168 c -0.372,0.531 -0.372,1.242 0,1.777 l 0.179,0.215 5.531,5.531 -5.523,5.52 -0.18,0.215 c -0.371,0.535 -0.371,1.246 0,1.777 l 0.18,0.219 0.215,0.18 c 0.535,0.367 1.246,0.367 1.777,0 l 0.219,-0.18 5.52,-5.524 5.531,5.528 0.215,0.183 c 0.531,0.368 1.242,0.368 1.777,0 l 0.215,-0.183 0.183,-0.215 c 0.368,-0.531 0.368,-1.242 0,-1.777 l -0.183,-0.215 -5.528,-5.528 5.536,-5.531 0.183,-0.215 c 0.367,-0.535 0.367,-1.246 0,-1.777 L 62.434,46.949 62.219,46.77 c -0.531,-0.368 -1.242,-0.368 -1.778,0 L 60.227,46.949 54.688,52.48 49.16,46.949 48.941,46.77 c -0.457,-0.317 -1.043,-0.364 -1.539,-0.137 z m 2.84,-37.395 c 1.805,0 3.207,1.52 3.121,3.273 l -0.039,0.356 -0.766,4.687 c -0.277,1.704 -1.886,2.86 -3.59,2.582 -1.582,-0.261 -2.687,-1.664 -2.617,-3.226 l 0.039,-0.363 0.172,-1.059 H 35.727 L 30.227,50 h 1.023 c 1.602,0 2.922,1.207 3.105,2.762 l 0.02,0.363 c 0,1.602 -1.207,2.922 -2.762,3.105 l -0.363,0.02 h -9.375 c -1.727,0 -3.125,-1.398 -3.125,-3.125 0,-1.602 1.207,-2.922 2.762,-3.105 L 21.875,50 h 2.023 l 5.5,-34.375 H 18.27 l -0.348,2.078 c -0.285,1.703 -1.895,2.852 -3.598,2.567 -1.578,-0.266 -2.683,-1.672 -2.605,-3.235 l 0.039,-0.363 0.785,-4.688 c 0.23,-1.379 1.344,-2.422 2.703,-2.586 l 0.379,-0.023 z" style="fill:currentColor;fill-opacity:1;fill-rule:nonzero;stroke:none" transform="scale(1.3333333)" /> </g>
</svg>

