<?xml version="1.0" encoding="UTF-8" standalone="no"?> <svg version="1.1" id="Ia360683358064ddfaf558b33b03b81e520251110130510" width="100" height="100" viewBox="0 0 100 100" xmlns="http://www.w3.org/2000/svg" xmlns:svg="http://www.w3.org/2000/svg"> <defs id="Ie4afd74a4cc54def94901b82fcadb94620251110130510" /> <g id="Id5ce5ada2ac948a6bf2c439c8daaa25f20251110130510"> <path id="Id7375b58ef04435e8b74d92bd78ec65f20251110130510" d="m 12.5,18.75 c 0,-1.727 1.398,-3.125 3.125,-3.125 h 43.75 c 1.727,0 3.125,1.398 3.125,3.125 0,1.727 -1.398,3.125 -3.125,3.125 h -43.75 c -1.727,0 -3.125,-1.398 -3.125,-3.125 z m 6.25,37.5 c 0,-1.727 1.398,-3.125 3.125,-3.125 h 31.25 c 1.727,0 3.125,1.398 3.125,3.125 0,1.727 -1.398,3.125 -3.125,3.125 h -31.25 c -1.727,0 -3.125,-1.398 -3.125,-3.125 z M 9.375,34.375 c -1.727,0 -3.125,1.398 -3.125,3.125 0,1.727 1.398,3.125 3.125,3.125 h 56.25 c 1.727,0 3.125,-1.398 3.125,-3.125 0,-1.727 -1.398,-3.125 -3.125,-3.125 z" style="fill:currentColor;fill-opacity:1;fill-rule:nonzero;stroke:none" transform="scale(1.3333333)" /> </g>
</svg>

