<?xml version="1.0" encoding="UTF-8" standalone="no"?> <svg version="1.1" id="I140ebb78b7fa407e8d3e1fb9b9a916ef20251110130508" width="100" height="100" viewBox="0 0 100 100" xmlns="http://www.w3.org/2000/svg" xmlns:svg="http://www.w3.org/2000/svg"> <defs id="If130d7fc7150449bb69f07357bb855ca20251110130508" /> <g id="I2294d088d1e74de0ba15305036e2488720251110130508"> <path id="Ic76b211b3cb444079a67309683a1351120251110130508" d="M 7.5,16.875 C 7.5,11.699 11.699,7.5 16.875,7.5 H 22.5 v 9.375 c 0,3.105 2.52,5.625 5.625,5.625 H 56.25 v 24.375 c 0,5.176 -4.199,9.375 -9.375,9.375 h -5.711 c 0.059,-0.617 0.086,-1.242 0.086,-1.875 0,-11.391 -9.234,-20.625 -20.625,-20.625 -4.984,0 -9.559,1.77 -13.125,4.715 z M 40.473,60 c -0.785,2.785 -2.145,5.328 -3.938,7.5 H 52.5 c 8.285,0 15,-6.715 15,-15 V 28.125 c 0,-4.535 -3.223,-8.32 -7.5,-9.187 V 46.875 C 60,54.125 54.121,60 46.875,60 Z M 26.25,16.875 V 7.5 h 20.625 c 5.176,0 9.375,4.199 9.375,9.375 V 18.75 H 28.125 c -1.035,0 -1.875,-0.84 -1.875,-1.875 z m 11.25,37.5 c 0,9.32 -7.555,16.875 -16.875,16.875 -9.32,0 -16.875,-7.555 -16.875,-16.875 0,-9.32 7.555,-16.875 16.875,-16.875 9.32,0 16.875,7.555 16.875,16.875 z m -15,-7.5 C 22.5,45.84 21.66,45 20.625,45 19.59,45 18.75,45.84 18.75,46.875 V 52.5 h -5.625 c -1.035,0 -1.875,0.84 -1.875,1.875 0,1.035 0.84,1.875 1.875,1.875 h 5.625 v 5.625 c 0,1.035 0.84,1.875 1.875,1.875 1.035,0 1.875,-0.84 1.875,-1.875 V 56.25 h 5.625 C 29.16,56.25 30,55.41 30,54.375 30,53.34 29.16,52.5 28.125,52.5 H 22.5 Z" style="fill:currentColor;fill-opacity:1;fill-rule:nonzero;stroke:none" transform="scale(1.3333333)" /> </g>
</svg>

