<?xml version="1.0" encoding="UTF-8" standalone="no"?> <svg version="1.1" id="I534f010caca047aa8602cc29069a4d6420251106155156" width="100" height="100" viewBox="0 0 100 100" xmlns="http://www.w3.org/2000/svg" xmlns:svg="http://www.w3.org/2000/svg"> <defs id="I0d5f1269b0e0461c804a606be269dd4020251106155156" /> <g id="I16f4b5785977448e916c49fc32bdb8e220251106155156"> <path id="I44e2e1e972dc4d3c8b1c2879455c8caf20251106155156" d="m 33.785,49.219 3.031,-3.028 c 0.442,-0.441 0.688,-1.039 0.688,-1.66 0,-0.621 -0.246,-1.219 -0.688,-1.66 -0.441,-0.437 -1.035,-0.687 -1.66,-0.687 -0.621,0 -1.218,0.25 -1.66,0.687 l -3.027,3.035 -3.028,-3.035 C 27,42.434 26.406,42.184 25.781,42.184 c -0.621,0 -1.219,0.25 -1.66,0.687 -0.437,0.441 -0.687,1.039 -0.687,1.66 0,0.621 0.25,1.219 0.687,1.66 l 3.035,3.028 -3.035,3.027 c -0.215,0.219 -0.391,0.477 -0.508,0.762 -0.117,0.285 -0.179,0.59 -0.179,0.898 0,0.309 0.062,0.614 0.179,0.899 0.117,0.285 0.293,0.543 0.508,0.761 0.219,0.219 0.477,0.391 0.762,0.508 0.285,0.117 0.59,0.18 0.898,0.18 0.309,0 0.614,-0.063 0.899,-0.18 0.285,-0.117 0.543,-0.289 0.761,-0.508 l 3.028,-3.035 3.027,3.035 c 0.219,0.219 0.477,0.391 0.762,0.508 0.285,0.117 0.59,0.18 0.898,0.18 0.309,0 0.614,-0.063 0.899,-0.18 0.285,-0.117 0.543,-0.289 0.761,-0.508 0.219,-0.218 0.391,-0.476 0.508,-0.761 0.117,-0.285 0.18,-0.59 0.18,-0.899 0,-0.308 -0.063,-0.613 -0.18,-0.898 -0.117,-0.285 -0.289,-0.543 -0.508,-0.762 z M 16.809,7.434 c 1.757,-1.758 4.14,-2.746 6.629,-2.746 h 16.808 c 1.863,0 3.652,0.742 4.969,2.058 L 58.879,20.41 c 1.316,1.317 2.059,3.106 2.059,4.969 v 28.473 c 0,0.015 0,0.035 0,0.054 0,0.02 0,0.039 0,0.055 v 6.977 c 0,2.484 -0.989,4.871 -2.747,6.628 -1.757,1.758 -4.144,2.746 -6.629,2.746 H 23.438 c -2.489,0 -4.872,-0.988 -6.629,-2.746 -1.758,-1.757 -2.747,-4.144 -2.747,-6.628 V 14.062 c 0,-2.488 0.989,-4.871 2.747,-6.628 z M 56.25,51.562 V 28.125 H 44.531 c -1.863,0 -3.652,-0.742 -4.972,-2.059 C 38.242,24.746 37.5,22.957 37.5,21.094 V 9.375 H 23.438 c -1.243,0 -2.434,0.492 -3.317,1.371 -0.879,0.883 -1.371,2.074 -1.371,3.316 v 46.876 c 0,1.242 0.492,2.437 1.371,3.316 0.883,0.879 2.074,1.371 3.317,1.371 h 28.124 c 1.243,0 2.438,-0.492 3.317,-1.371 0.879,-0.879 1.371,-2.074 1.371,-3.316 V 56.25 H 44.531 c -0.621,0 -1.219,-0.246 -1.656,-0.688 -0.441,-0.437 -0.687,-1.035 -0.687,-1.656 0,-0.621 0.246,-1.218 0.687,-1.656 0.437,-0.441 1.035,-0.688 1.656,-0.688 z M 44.531,23.438 h 10.75 L 42.188,10.344 v 10.75 c 0,0.621 0.246,1.218 0.687,1.656 0.437,0.441 1.035,0.688 1.656,0.688 z" style="fill:currentColor;fill-opacity:1;fill-rule:nonzero;stroke:none" transform="scale(1.3333333)" /> </g>
</svg>

