<?xml version="1.0" encoding="UTF-8" standalone="no"?> <svg version="1.1" id="I2fa98448aaba4616ae3377b2acd5b98e20251106142136" width="100" height="100" viewBox="0 0 100 100" xmlns="http://www.w3.org/2000/svg" xmlns:svg="http://www.w3.org/2000/svg"> <defs id="I54b9b38ac14b431e9b94071fa5c1aa7c20251106142136"> <linearGradient x1="12" y1="6" x2="12" y2="13.5" gradientUnits="userSpaceOnUse" gradientTransform="scale(3.125)" spreadMethod="pad" id="Id56efd7d2e894f80be03d6316846d54820251106142136"> <stop style="stop-opacity:1;stop-color:#ffc205" offset="0" id="I0d43009404ae44ca8bd47c5cfb4de51a20251106142136" /> <stop style="stop-opacity:1;stop-color:#ffa43d" offset="0.735" id="I15cd1ce4ba9e4f0fa72064e20d7a329d20251106142136" /> <stop style="stop-opacity:1;stop-color:#e67505" offset="1" id="I31b657a2d96e4705aee6f7489453ea0620251106142136" /> </linearGradient> <radialGradient fx="0" fy="0" cx="0" cy="0" r="1" gradientUnits="userSpaceOnUse" gradientTransform="matrix(0,12.620188,-23.348188,0,52.8125,22.355781)" spreadMethod="pad" id="I97785d18c6e8452c846f6aed614c878120251106142136"> <stop style="stop-opacity:1;stop-color:#ffd638" offset="0" id="I5adf18dcec534f149621b88bedc2032520251106142136" /> <stop style="stop-opacity:0;stop-color:#ffd638" offset="1" id="I24287170e33b4bf18f3d4ab64182076d20251106142136" /> </radialGradient> <radialGradient fx="0" fy="0" cx="0" cy="0" r="1" gradientUnits="userSpaceOnUse" gradientTransform="matrix(15.625003,-20.312498,19.938553,15.337353,17.1875,53.125)" spreadMethod="pad" id="I7aa7a16bdb454f9b9c886ed3ab0788a920251106142136"> <stop style="stop-opacity:1;stop-color:#e67505" offset="0" id="Icaf9a8f8512f43f6858653eb3252e0c620251106142136" /> <stop style="stop-opacity:1;stop-color:#e67505" offset="0.494756" id="I57dc5336a1cb40a598a60433e8c22b0720251106142136" /> <stop style="stop-opacity:0;stop-color:#e67505" offset="0.837274" id="I280b9b751f6f4fedb37ee53e9efc096820251106142136" /> <stop style="stop-opacity:0;stop-color:#e67505" offset="1" id="I05d45e4a1658456aac51183a2860a88e20251106142136" /> </radialGradient> <linearGradient x1="9.8125" y1="13" x2="19.143499" y2="22.541" gradientUnits="userSpaceOnUse" gradientTransform="scale(3.125)" spreadMethod="pad" id="I8d2368c884a7444680fe55432a7c2b8b20251106142136"> <stop style="stop-opacity:1;stop-color:#aab3bd" offset="0" id="I7dec734ac98d4965a36bbb1163be388e20251106142136" /> <stop style="stop-opacity:1;stop-color:#889096" offset="1" id="Id02ec4ef17e943e3a8e316f3d8884fd820251106142136" /> </linearGradient> <linearGradient x1="8.875" y1="21.3571" x2="14.1593" y2="15.6474" gradientUnits="userSpaceOnUse" gradientTransform="scale(3.125)" spreadMethod="pad" id="I1e1d51fde6714832b6acdf7dea53eb8220251106142136"> <stop style="stop-opacity:0.34460975;stop-color:#000000" offset="0" id="If768df07d67847b4b1b2737968885bb320251106142136" /> <stop style="stop-opacity:0.34460975;stop-color:#000000" offset="0.136092" id="Iaa4ac64c82c046b7b63b9935f4d91dd920251106142136" /> <stop style="stop-opacity:0;stop-color:#000000" offset="0.622433" id="Ic6011d8ec9e141248af81b959911739920251106142136" /> <stop style="stop-opacity:0;stop-color:#000000" offset="1" id="If87cdb1870924ef7bc088d9383e7aabc20251106142136" /> </linearGradient> <radialGradient fx="0" fy="0" cx="0" cy="0" r="1" gradientUnits="userSpaceOnUse" gradientTransform="matrix(15.625005,-15.625005,15.618796,15.618796,17.1875,51.5625)" spreadMethod="pad" id="Ic4beb4d957fb4058aae090bf21bd980020251106142136"> <stop style="stop-opacity:0.6;stop-color:#000000" offset="0" id="I3fe9370dcf2249509b4ad68354e2ca6520251106142136" /> <stop style="stop-opacity:0.6;stop-color:#000000" offset="0.121875" id="I781ab4f63e1d46828b881a265995d59520251106142136" /> <stop style="stop-opacity:0;stop-color:#000000" offset="0.884375" id="If9e0566f43e7481eb3af003a878388e220251106142136" /> <stop style="stop-opacity:0;stop-color:#000000" offset="1" id="Iac15b9e710234dbaae6351c05638921d20251106142136" /> </radialGradient> <radialGradient fx="0" fy="0" cx="0" cy="0" r="1" gradientUnits="userSpaceOnUse" gradientTransform="matrix(-1.953113,16.071445,-35.128424,-4.269048,64.84375,40.625)" spreadMethod="pad" id="Idd036ee2cf5448de9b37489ebe3de26820251106142136"> <stop style="stop-opacity:0.6;stop-color:#ffb357" offset="0" id="Ifd41ff7b19734048b021888652f4006a20251106142136" /> <stop style="stop-opacity:0;stop-color:#ffb357" offset="1" id="If86f12cb265f4e8483ffe2a728aa25e820251106142136" /> </radialGradient> <linearGradient x1="7.25" y1="14.1667" x2="2" y2="20" gradientUnits="userSpaceOnUse" gradientTransform="scale(3.125)" spreadMethod="pad" id="I3bcd8b4eb92b4244b675ce6853292bb120251106142136"> <stop style="stop-opacity:1;stop-color:#fdfdfd" offset="0" id="I63faf2644cbe447598c99e03849e34ef20251106142136" /> <stop style="stop-opacity:1;stop-color:#b3e0ff" offset="1" id="I91314567ce954dc69dac1ce60edd98c520251106142136" /> </linearGradient> <linearGradient x1="1.57895" y1="21.8421" x2="10.8421" y2="14.3158" gradientUnits="userSpaceOnUse" gradientTransform="scale(3.125)" spreadMethod="pad" id="Id0cd7e94c7f44495a6a7be9c8f1189d420251106142136"> <stop style="stop-opacity:1;stop-color:#0094f0" offset="0" id="I80fdcefda0ac4c46adec5623a4efdf0a20251106142136" /> <stop style="stop-opacity:1;stop-color:#29c3ff" offset="1" id="I660ea451fb5e489bbc784800e15088b620251106142136" /> </linearGradient> </defs> <g id="I0ceb0592a47444549236b69ccaf325dc20251106142136"> <path id="I9f183f0892334fa08311d15031beac1820251106142136" d="m 34.375,14.062 h 4.688 v 6.25 h -4.688 z" style="fill:#70777d;fill-opacity:1;fill-rule:nonzero;stroke:none" transform="scale(1.3333333)" /> <path id="Idb0be29b82f241f486c4d681eabe316d20251106142136" d="m 15.625,40.625 c 0,-12.082 9.793,-21.875 21.875,-21.875 12.082,0 21.875,9.793 21.875,21.875 v 1.563 h -43.75 z" transform="scale(1.3333333)" style="fill:url(#Id56efd7d2e894f80be03d6316846d54820251106142136);stroke:none" /> <path d="m 15.625,40.625 c 0,-12.082 9.793,-21.875 21.875,-21.875 12.082,0 21.875,9.793 21.875,21.875 v 1.563 h -43.75 z" transform="scale(1.3333333)" style="fill:url(#I97785d18c6e8452c846f6aed614c878120251106142136);stroke:none" opacity="1" id="Idd5926ba44874b13b33af5505ebfe9c320251106142136" /> <path d="m 15.625,40.625 c 0,-12.082 9.793,-21.875 21.875,-21.875 12.082,0 21.875,9.793 21.875,21.875 v 1.563 h -43.75 z" transform="scale(1.3333333)" style="fill:url(#I7aa7a16bdb454f9b9c886ed3ab0788a920251106142136);stroke:none" opacity="1" id="I3bbf23bff31a41c3b3b77945636ddbbf20251106142136" /> <path id="I1ee194f3aa444648b52594e25fa6593b20251106142136" d="m 14.062,40.625 c -4.316,0 -7.812,3.496 -7.812,7.813 v 7.812 h 1.051 c 1.758,3.695 5.523,6.25 9.887,6.25 3.101,0 5.902,-1.289 7.89,-3.363 l 9.375,9.613 h 31.953 c 1.293,0 2.344,-1.051 2.344,-2.344 V 48.438 c 0,-4.317 -3.496,-7.813 -7.812,-7.813 z" transform="scale(1.3333333)" style="fill:url(#I8d2368c884a7444680fe55432a7c2b8b20251106142136);stroke:none" /> <path d="m 14.062,40.625 c -4.316,0 -7.812,3.496 -7.812,7.813 v 7.812 h 1.051 c 1.758,3.695 5.523,6.25 9.887,6.25 3.101,0 5.902,-1.289 7.89,-3.363 l 9.375,9.613 h 31.953 c 1.293,0 2.344,-1.051 2.344,-2.344 V 48.438 c 0,-4.317 -3.496,-7.813 -7.812,-7.813 z" transform="scale(1.3333333)" style="fill:url(#I1e1d51fde6714832b6acdf7dea53eb8220251106142136);stroke:none" opacity="1" id="I41ee4bc2c09e4382a6de657b155fa92b20251106142136" /> <path d="m 14.062,40.625 c -4.316,0 -7.812,3.496 -7.812,7.813 v 7.812 h 1.051 c 1.758,3.695 5.523,6.25 9.887,6.25 3.101,0 5.902,-1.289 7.89,-3.363 l 9.375,9.613 h 31.953 c 1.293,0 2.344,-1.051 2.344,-2.344 V 48.438 c 0,-4.317 -3.496,-7.813 -7.812,-7.813 z" transform="scale(1.3333333)" style="fill:url(#Ic4beb4d957fb4058aae090bf21bd980020251106142136);stroke:none" opacity="1" id="I897386fa707a45a092cde8e2369d1ad320251106142136" /> <path d="m 14.062,40.625 c -4.316,0 -7.812,3.496 -7.812,7.813 v 7.812 h 1.051 c 1.758,3.695 5.523,6.25 9.887,6.25 3.101,0 5.902,-1.289 7.89,-3.363 l 9.375,9.613 h 31.953 c 1.293,0 2.344,-1.051 2.344,-2.344 V 48.438 c 0,-4.317 -3.496,-7.813 -7.812,-7.813 z" transform="scale(1.3333333)" style="fill:url(#Idd036ee2cf5448de9b37489ebe3de26820251106142136);stroke:none" opacity="1" id="Id0e352f59b4a4362affa114f1d035d2c20251106142136" /> <path id="I573e04a8f3e1463cb089f1b519ea178120251106142136" d="m 59.375,50.781 c 0,-1.293 -1.051,-2.343 -2.344,-2.343 -1.293,0 -2.343,1.05 -2.343,2.343 v 7.813 c 0,1.293 1.05,2.344 2.343,2.344 1.293,0 2.344,-1.051 2.344,-2.344 z" style="fill:#63686e;fill-opacity:1;fill-rule:nonzero;stroke:none" transform="scale(1.3333333)" /> <path id="Ic11a3246d6984cfbb2840e0818237c3320251106142136" d="m 50,30.469 c 0,-1.293 -1.051,-2.344 -2.344,-2.344 -1.293,0 -2.344,1.051 -2.344,2.344 v 4.687 c 0,1.293 1.051,2.344 2.344,2.344 C 48.949,37.5 50,36.449 50,35.156 Z M 37.5,28.125 c 1.293,0 2.344,1.051 2.344,2.344 v 4.687 c 0,1.293 -1.051,2.344 -2.344,2.344 -1.293,0 -2.344,-1.051 -2.344,-2.344 v -4.687 c 0,-1.293 1.051,-2.344 2.344,-2.344 z m -7.812,2.344 c 0,-1.293 -1.051,-2.344 -2.344,-2.344 -1.293,0 -2.344,1.051 -2.344,2.344 v 4.687 c 0,1.293 1.051,2.344 2.344,2.344 1.293,0 2.344,-1.051 2.344,-2.344 z" style="fill:#ca6407;fill-opacity:1;fill-rule:nonzero;stroke:none" transform="scale(1.3333333)" /> <path id="I7f3eadecffa44e38af8042b9d959a1e220251106142136" d="m 28.125,51.562 c 0,6.04 -4.898,10.938 -10.937,10.938 -6.04,0 -10.938,-4.898 -10.938,-10.938 0,-6.039 4.898,-10.937 10.938,-10.937 6.039,0 10.937,4.898 10.937,10.937 z" transform="scale(1.3333333)" style="fill:url(#I3bcd8b4eb92b4244b675ce6853292bb120251106142136);stroke:none" /> <path id="I37e5b1a39cb64320a140b091ea5ce42020251106142136" d="m 17.188,65.625 c 3.035,0 5.847,-0.961 8.148,-2.602 l 8.164,8.165 c 0.914,0.917 2.398,0.917 3.312,0 0.918,-0.915 0.918,-2.399 0,-3.313 L 28.648,59.711 C 30.289,57.41 31.25,54.602 31.25,51.562 31.25,43.797 24.953,37.5 17.188,37.5 9.422,37.5 3.125,43.797 3.125,51.562 c 0,7.766 6.297,14.063 14.063,14.063 z m 0,-4.687 c -5.176,0 -9.376,-4.196 -9.376,-9.376 0,-5.179 4.2,-9.374 9.376,-9.374 5.175,0 9.374,4.195 9.374,9.374 0,5.18 -4.199,9.376 -9.374,9.376 z" transform="scale(1.3333333)" style="fill:url(#Id0cd7e94c7f44495a6a7be9c8f1189d420251106142136);stroke:none" /> </g>
</svg>

