<?xml version="1.0" encoding="UTF-8" standalone="no"?> <svg version="1.1" id="I7b9b12de92e24e3bb72a95c1dd8a7c7a20251110130508" width="100" height="100" viewBox="0 0 100 100" xmlns="http://www.w3.org/2000/svg" xmlns:svg="http://www.w3.org/2000/svg"> <defs id="I7d913ee32ad64f638fb87a728cb17f2720251110130508" /> <g id="I092fdf684ed145b7a1cf6acca19eb4df20251110130508"> <path id="I791d4abb6ed342c397db99b7860cc23d20251110130508" d="M 54.688,37.5 C 45.195,37.5 37.5,29.805 37.5,20.312 37.5,10.82 45.195,3.125 54.688,3.125 c 9.492,0 17.187,7.695 17.187,17.187 0,9.493 -7.695,17.188 -17.187,17.188 z M 60.48,11.395 c -0.609,-0.61 -1.601,-0.61 -2.21,0 -0.61,0.609 -0.61,1.601 0,2.21 l 2.019,2.02 h -6.383 c -5.609,0 -10.156,4.547 -10.156,10.156 v 0.781 c 0,0.864 0.699,1.563 1.562,1.563 0.864,0 1.563,-0.699 1.563,-1.563 v -0.781 c 0,-3.883 3.148,-7.031 7.031,-7.031 h 6.383 l -2.019,2.02 c -0.61,0.609 -0.61,1.601 0,2.21 0.609,0.61 1.601,0.61 2.21,0 l 4.688,-4.687 c 0.609,-0.609 0.609,-1.602 0,-2.211 z m -7.355,29.23 V 40.566 C 51.5,40.441 49.934,40.129 48.438,39.645 v 0.98 c 0,0.863 -0.7,1.563 -1.563,1.563 H 12.5 c -0.863,0 -1.562,-0.7 -1.562,-1.563 V 18.75 c 0,-0.863 0.699,-1.562 1.562,-1.562 H 34.613 C 34.867,15.551 35.312,13.98 35.934,12.5 H 12.5 c -3.453,0 -6.25,2.797 -6.25,6.25 v 21.875 c 0,3.453 2.797,6.25 6.25,6.25 h 34.375 c 3.453,0 6.25,-2.797 6.25,-6.25 z m 3.125,-0.059 c 1.625,-0.125 3.195,-0.437 4.688,-0.921 v 2.543 c 0,6.902 -5.598,12.5 -12.5,12.5 H 20.312 c -2.914,0 -5.359,-1.993 -6.054,-4.688 h 34.18 c 4.316,0 7.812,-3.496 7.812,-7.812 z m 12.5,-5.597 c -1.387,1.332 -2.965,2.469 -4.688,3.367 v 6.195 c 0,7.336 -5.945,13.281 -13.281,13.281 H 22.07 c 0.696,2.696 3.141,4.688 6.055,4.688 h 22.656 c 9.922,0 17.969,-8.047 17.969,-17.969 z" style="fill:currentColor;fill-opacity:1;fill-rule:nonzero;stroke:none" transform="scale(1.3333333)" /> </g>
</svg>

