<?xml version="1.0" encoding="UTF-8" standalone="no"?> <svg version="1.1" id="I63e93f65b589463ca63f7781b520c6c320251110130508" width="100" height="100" viewBox="0 0 100 100" xmlns="http://www.w3.org/2000/svg" xmlns:svg="http://www.w3.org/2000/svg"> <defs id="Id2b049835c6d44f7a0bc8990ea0ad51e20251110130508" /> <g id="I2b5b54f2b41446208f1d3a84c805c34820251110130508"> <path id="I6b7317d488084fde95a81255e56ac23620251110130508" d="m 18.082,8.035 c -5.551,0 -10.047,4.496 -10.047,10.047 v 38.836 c 0,5.551 4.496,10.047 10.047,10.047 h 38.836 c 5.551,0 10.047,-4.496 10.047,-10.047 V 18.082 c 0,-5.551 -4.496,-10.047 -10.047,-10.047 z m -6.027,48.883 v -7.363 h 13.39 v 13.39 h -7.363 c -3.332,0 -6.027,-2.699 -6.027,-6.027 z m 17.41,6.027 v -13.39 h 16.07 v 13.39 z M 12.055,45.535 V 18.082 c 0,-3.332 2.695,-6.027 6.027,-6.027 h 38.836 c 3.328,0 6.027,2.695 6.027,6.027 v 27.453 z m 37.5,17.41 v -13.39 h 13.39 v 7.363 c 0,3.328 -2.699,6.027 -6.027,6.027 z" style="fill:currentColor;fill-opacity:1;fill-rule:nonzero;stroke:none" transform="scale(1.3333333)" /> </g>
</svg>

