<?xml version="1.0" encoding="UTF-8" standalone="no"?> <svg version="1.1" id="I43b663bfe7f249e3a3ee03780beb2f1e20251106143238" width="100" height="100" viewBox="0 0 100 100" xmlns="http://www.w3.org/2000/svg" xmlns:svg="http://www.w3.org/2000/svg"> <defs id="I633e1a4c57b849a5a8916299b941701820251106143238" /> <g id="Ib28b1ec23a654743886f506b5f337f4c20251106143238"> <path id="I6f76a3cd4f9c45fba5ceb42e0a0bc1bd20251106143238" d="M 4.688,15.234 C 4.688,9.41 9.41,4.688 15.234,4.688 h 35.157 c 5.824,0 10.547,4.722 10.547,10.546 V 26.953 H 38.672 c -1.832,0 -3.57,0.422 -5.113,1.172 H 18.75 c -1.293,0 -2.344,1.051 -2.344,2.344 0,1.293 1.051,2.343 2.344,2.343 h 9.77 c -0.997,1.723 -1.567,3.727 -1.567,5.86 V 60.938 H 15.234 C 9.41,60.938 4.688,56.215 4.688,50.391 Z m 11.718,5.86 c 0,1.293 1.051,2.344 2.344,2.344 h 28.125 c 1.293,0 2.344,-1.051 2.344,-2.344 0,-1.293 -1.051,-2.344 -2.344,-2.344 H 18.75 c -1.293,0 -2.344,1.051 -2.344,2.344 z m 14.063,17.578 c 0,-4.531 3.672,-8.203 8.203,-8.203 h 23.437 c 4.532,0 8.203,3.672 8.203,8.203 v 3.516 H 30.469 Z m 0,23.437 V 46.875 h 39.843 v 15.234 c 0,4.532 -3.671,8.203 -8.203,8.203 H 38.672 c -4.531,0 -8.203,-3.671 -8.203,-8.203 z" style="fill:currentColor;fill-opacity:1;fill-rule:nonzero;stroke:none" transform="scale(1.3333333)" /> </g>
</svg>

