<?xml version="1.0" encoding="UTF-8" standalone="no"?> <svg version="1.1" id="I21717abfa2c147098298e18b7dea228620251106163938" width="100" height="100" viewBox="0 0 100 100" xmlns="http://www.w3.org/2000/svg" xmlns:svg="http://www.w3.org/2000/svg"> <defs id="I97aaedceea584a46a58ae2f2f8b541a520251106163938" /> <g id="I070629dad26141a8b1c17d91fa968bca20251106163938"> <path id="I51e9dfc64ccb4ef385394b1518c992b020251106163938" d="m 18.75,13.125 c 0,-1.035 0.84,-1.875 1.875,-1.875 h 37.5 c 1.035,0 1.875,0.84 1.875,1.875 v 37.5 C 60,51.66 59.16,52.5 58.125,52.5 H 22.5 v 13.125 c 0,1.035 -0.84,1.875 -1.875,1.875 -1.035,0 -1.875,-0.84 -1.875,-1.875 z M 22.5,48.75 H 33.75 V 37.5 H 45 V 48.75 H 56.25 V 37.5 H 45 V 26.25 H 56.25 V 15 H 45 V 26.25 H 33.75 V 15 H 22.5 V 26.25 H 33.75 V 37.5 H 22.5 Z" style="fill:currentColor;fill-opacity:1;fill-rule:nonzero;stroke:none" transform="scale(1.3333333)" /> </g>
</svg>

