<?xml version="1.0" encoding="UTF-8" standalone="no"?> <svg version="1.1" id="I0e96510b594c4b9483031873bd62af6720251106163937" width="100" height="100" viewBox="0 0 100 100" xmlns="http://www.w3.org/2000/svg" xmlns:svg="http://www.w3.org/2000/svg"> <defs id="I8ecf7b9977674cc29af7a11800be96f520251106163937" /> <g id="Ia94db1f74beb41bcb81caa4ac4a4f94b20251106163937"> <path id="I6ad9104352ba4f5f9f3c14d8666d974020251106163937" d="m 32.031,31.25 c 0,-2.156 -1.75,-3.906 -3.906,-3.906 -2.156,0 -3.902,1.75 -3.902,3.906 0,2.156 1.746,3.902 3.902,3.902 2.156,0 3.906,-1.746 3.906,-3.902 z m 18.75,0 c 0,-2.156 -1.75,-3.906 -3.906,-3.906 -2.156,0 -3.902,1.75 -3.902,3.906 0,2.156 1.746,3.902 3.902,3.902 2.156,0 3.906,-1.746 3.906,-3.902 z m -1.562,12.496 c -2.657,0 -5.489,0.672 -7.942,1.625 -2.425,0.945 -4.73,2.266 -6.215,3.75 -0.914,0.914 -0.914,2.399 0,3.317 0.915,0.914 2.399,0.914 3.313,0 0.859,-0.86 2.512,-1.883 4.602,-2.7 2.062,-0.8 4.308,-1.304 6.242,-1.304 h 1.875 c 1.293,0 2.344,-1.047 2.344,-2.344 0,-1.293 -1.051,-2.344 -2.344,-2.344 z M 68.754,37.5 C 68.754,20.238 54.762,6.242 37.5,6.242 20.238,6.242 6.246,20.238 6.246,37.5 c 0,17.262 13.992,31.254 31.254,31.254 17.262,0 31.254,-13.992 31.254,-31.254 z m -57.82,0 c 0,-14.676 11.894,-26.57 26.566,-26.57 14.672,0 26.566,11.894 26.566,26.57 0,14.672 -11.894,26.566 -26.566,26.566 -14.672,0 -26.566,-11.894 -26.566,-26.566 z" style="fill:currentColor;fill-opacity:1;fill-rule:nonzero;stroke:none" transform="scale(1.3333333)" /> </g>
</svg>

