<?xml version="1.0" encoding="UTF-8" standalone="no"?> <svg version="1.1" id="Ice22187c96874e5280eb205d5c971d4220251110133655" width="100" height="100" viewBox="0 0 100 100" xmlns="http://www.w3.org/2000/svg" xmlns:svg="http://www.w3.org/2000/svg"> <defs id="I10aa7f2d6b294786a8731a06cf82ab2e20251110133655" /> <g id="I493b10b0eb1d4722b6cfccf6ad505a4120251110133655"> <path id="Ic90f941437f845ffa760945fbea390cb20251110133655" d="m 14.066,17.578 c 0,-5.824 4.719,-10.547 10.547,-10.547 H 59.77 c 5.824,0 10.546,4.723 10.546,10.547 v 23.438 c 0,5.824 -4.722,10.546 -10.546,10.546 H 44.98 C 43.574,48.477 40.586,46.477 37.5,45.887 v -3.699 c 0,-3.883 3.148,-7.032 7.031,-7.032 H 56.25 c 3.883,0 7.031,3.149 7.031,7.032 v 3.519 c 1.426,-1.07 2.348,-2.773 2.348,-4.691 V 17.578 c 0,-3.234 -2.625,-5.859 -5.859,-5.859 H 24.613 c -3.238,0 -5.859,2.625 -5.859,5.859 v 0.734 c -1.719,0.555 -3.301,1.407 -4.688,2.493 z m 21.536,31.641 c 1.964,0 3.925,0.863 5.214,2.343 h -0.004 c 0.993,1.137 1.586,2.641 1.469,4.391 -0.312,4.859 -2.148,8.625 -5.629,11.082 -3.359,2.367 -7.918,3.277 -13.214,3.277 -5.274,0 -9.743,-0.898 -13.047,-3.25 C 6.973,64.633 5.168,60.926 4.727,56.168 4.344,52.07 7.848,49.219 11.418,49.219 Z M 50.391,32.812 c 4.531,0 8.203,-3.671 8.203,-8.203 0,-4.531 -3.672,-8.203 -8.203,-8.203 -4.532,0 -8.203,3.672 -8.203,8.203 0,4.532 3.671,8.203 8.203,8.203 z m -15.235,0 c 0,6.473 -5.246,11.719 -11.718,11.719 -6.473,0 -11.719,-5.246 -11.719,-11.719 0,-6.472 5.246,-11.718 11.719,-11.718 6.472,0 11.718,5.246 11.718,11.718 z" style="fill:currentColor;fill-opacity:1;fill-rule:nonzero;stroke:none" transform="scale(1.3333333)" /> </g>
</svg>

