<?xml version="1.0" encoding="UTF-8" standalone="no"?> <svg version="1.1" id="I8aa9a92dcf3f4c4e89322f3c49be01b620251106151526" width="100" height="100" viewBox="0 0 100 100" xmlns="http://www.w3.org/2000/svg" xmlns:svg="http://www.w3.org/2000/svg"> <defs id="I6b5950ee67a94fa1879a85cabb65302520251106151526" /> <g id="I558367c3793a41f0af46a6c63dc3117320251106151526"> <path id="Iaf8859e7355b4d5ebd5ac662c9039b1a20251106151526" d="m 37.5,13.395 c -9.461,0 -17.285,7.003 -18.566,16.113 -7.598,0.59 -13.579,6.941 -13.579,14.687 0,8.137 6.598,14.735 14.735,14.735 h 20.222 l 4.872,-8.559 c 0.23,-0.402 0.351,-0.859 0.351,-1.324 V 41.52 h -0.668 c -2.59,0 -4.687,-2.102 -4.687,-4.688 0,-2.59 2.097,-4.687 4.687,-4.687 H 56.25 c 0,-5.344 -2.234,-10.165 -5.82,-13.579 -3.352,-3.195 -7.891,-5.16 -12.887,-5.171 -0.012,0 -0.027,0 -0.043,0 z m 7.367,21.425 c -1.109,0 -2.012,0.903 -2.012,2.012 0,1.109 0.903,2.008 2.012,2.008 h 3.348 v 10.207 c 0,0.93 -0.242,1.844 -0.703,2.652 L 45.684,54.91 H 64.152 L 62.309,51.676 C 61.848,50.867 61.605,49.953 61.605,49.023 V 38.84 h 3.352 c 1.109,0 2.008,-0.899 2.008,-2.008 0,-1.109 -0.899,-2.012 -2.008,-2.012 z m -4.152,28.817 2.683,-4.707 h 23.04 l 2.679,4.707 c 1.528,2.679 -0.406,6.008 -3.492,6.008 H 44.207 c -3.082,0 -5.016,-3.329 -3.492,-6.008 z" style="fill:currentColor;fill-opacity:1;fill-rule:nonzero;stroke:none" transform="scale(1.3333333)" /> </g>
</svg>

