<?xml version="1.0" encoding="UTF-8" standalone="no"?> <svg version="1.1" id="I1d6442fd569a479da76a31d70a63d63320251106164749" width="100" height="100" viewBox="0 0 100 100" xmlns="http://www.w3.org/2000/svg" xmlns:svg="http://www.w3.org/2000/svg"> <defs id="Ie9ec5f8605df40c69fad60d51d9d17f020251106164749" /> <g id="I80b5e7f6cf4042c9a36eb1c10269bffc20251106164749"> <path id="If02fba4caa1e46f7b816670cb41e047620251106164749" d="m 25,6.25 h -9.375 c -5.176,0 -9.375,4.199 -9.375,9.375 V 25 h 8.461 c -0.418,-0.957 -0.649,-2.016 -0.649,-3.125 0,-4.316 3.497,-7.813 7.813,-7.813 1.109,0 2.168,0.231 3.125,0.649 z M 6.25,29.688 V 43.75 c 0,5.18 4.199,9.375 9.375,9.375 H 25 V 33.004 l -5.375,5.371 c -0.914,0.918 -2.398,0.918 -3.313,0 -0.917,-0.914 -0.917,-2.398 0,-3.313 l 5.372,-5.374 z m 23.438,23.437 h 4.746 c 0.796,-10.488 9.562,-18.75 20.254,-18.75 5.457,0 10.414,2.152 14.062,5.656 V 29.688 H 33.004 l 5.371,5.374 c 0.918,0.915 0.918,2.399 0,3.313 -0.914,0.918 -2.398,0.918 -3.313,0 L 29.688,33 Z M 68.75,25 H 39.977 c 0.418,-0.957 0.648,-2.016 0.648,-3.125 0,-4.316 -3.496,-7.813 -7.813,-7.813 -1.109,0 -2.167,0.231 -3.124,0.649 V 6.25 h 29.687 c 5.18,0 9.375,4.199 9.375,9.375 z m -35.938,0 h -3.124 v -3.125 c 0,-1.727 1.398,-3.125 3.124,-3.125 1.727,0 3.126,1.398 3.126,3.125 0,1.727 -1.399,3.125 -3.126,3.125 z M 25,25 h -3.125 c -1.727,0 -3.125,-1.398 -3.125,-3.125 0,-1.727 1.398,-3.125 3.125,-3.125 1.719,0 3.113,1.387 3.125,3.102 z M 71.875,54.688 C 71.875,45.195 64.18,37.5 54.688,37.5 45.195,37.5 37.5,45.195 37.5,54.688 c 0,9.492 7.695,17.187 17.188,17.187 9.492,0 17.187,-7.695 17.187,-17.187 z m -15.625,1.562 0.004,7.824 c 0,0.864 -0.699,1.563 -1.563,1.563 -0.863,0 -1.562,-0.699 -1.562,-1.563 L 53.125,56.25 h -7.828 c -0.859,0 -1.559,-0.699 -1.559,-1.562 0,-0.864 0.7,-1.563 1.559,-1.563 h 7.828 v -7.816 c 0,-0.864 0.699,-1.563 1.563,-1.563 0.863,0 1.562,0.699 1.562,1.563 v 7.816 h 7.801 c 0.863,0 1.562,0.699 1.562,1.563 0,0.863 -0.699,1.562 -1.562,1.562 z" style="fill:currentColor;fill-opacity:1;fill-rule:nonzero;stroke:none" transform="scale(1.3333333)" /> </g>
</svg>

