<?xml version="1.0" encoding="UTF-8" standalone="no"?> <svg version="1.1" id="Icea6b08a5d1947f0814facaece86856620251106142135" width="100" height="100" viewBox="0 0 100 100" xmlns="http://www.w3.org/2000/svg" xmlns:svg="http://www.w3.org/2000/svg"> <defs id="I16276e16ac5645b883bd4adc717ecf2f20251106142135" /> <g id="I8aca9ef623f64c16a2c20434466ab8af20251106142135"> <path id="I90dbf6684f644f5b8ae19a3575e8e20220251106142135" d="m 12.5,17.188 c 0,-6.04 4.898,-10.938 10.938,-10.938 6.039,0 10.937,4.898 10.937,10.938 0,4.968 -3.313,9.16 -7.848,10.496 2.149,7.039 8.7,12.16 16.442,12.16 H 44 c 1.074,-4.914 5.453,-8.594 10.688,-8.594 6.039,0 10.937,4.898 10.937,10.938 0,6.039 -4.898,10.937 -10.937,10.937 -5.235,0 -9.614,-3.68 -10.688,-8.594 h -1.031 c -6.973,0 -13.184,-3.261 -17.188,-8.343 v 10.937 c 4.914,1.074 8.594,5.453 8.594,10.687 0,6.04 -4.898,10.938 -10.937,10.938 -6.04,0 -10.938,-4.898 -10.938,-10.938 0,-5.234 3.68,-9.613 8.594,-10.687 V 27.875 C 16.18,26.801 12.5,22.422 12.5,17.188 Z" style="fill:currentColor;fill-opacity:1;fill-rule:nonzero;stroke:none" transform="scale(1.3333333)" /> </g>
</svg>

