<?xml version="1.0" encoding="UTF-8" standalone="no"?> <svg version="1.1" id="Ibff6b4a3955949c690dc0682525027a520251106125937" width="100" height="100" viewBox="0 0 100 100" xmlns="http://www.w3.org/2000/svg" xmlns:svg="http://www.w3.org/2000/svg"> <defs id="I941d14082ef9481d9a848ef9b40bf7f120251106125937" /> <g id="I277726c66d154e3a8e99164135ac115a20251106125937"> <path id="I0634a6ffa9074c259b49e12dfcbf582d20251106125937" d="m 66.406,12.5 c 1.297,0 2.344,1.051 2.344,2.344 v 20.312 c 0,6.473 -5.246,11.719 -11.719,11.719 H 14.332 L 25.957,58.5 c 0.832,0.832 0.906,2.133 0.227,3.051 l -0.227,0.261 c -0.832,0.833 -2.137,0.911 -3.055,0.227 L 22.641,61.812 7.016,46.188 C 6.184,45.355 6.109,44.055 6.789,43.137 L 7.016,42.875 22.641,27.25 c 0.914,-0.918 2.398,-0.918 3.316,0 0.832,0.832 0.906,2.133 0.227,3.051 l -0.227,0.261 -11.625,11.626 h 42.699 c 3.723,0 6.77,-2.891 7.016,-6.551 l 0.015,-0.481 V 14.844 c 0,-1.293 1.051,-2.344 2.344,-2.344 z" style="fill:currentColor;fill-opacity:1;fill-rule:nonzero;stroke:none" transform="scale(1.3333333)" /> </g>
</svg>

