<?xml version="1.0" encoding="UTF-8" standalone="no"?> <svg version="1.1" id="I634cdfe60fdb4dee957b35df1c0aef1d20251106154012" width="100" height="100" viewBox="0 0 100 100" xmlns="http://www.w3.org/2000/svg" xmlns:svg="http://www.w3.org/2000/svg"> <defs id="I6a3c9e51a16c4af59c60373a39f29a9a20251106154012" /> <g id="Ibac7b6f00d094c7c8fe011f7dbd7aa1520251106154012"> <path id="Ib4320587782f4ecd9e1d98e2efad78bb20251106154012" d="m 53.906,6.238 c 4.746,0 8.594,3.848 8.594,8.594 V 35.477 C 61.754,35.266 60.969,35.156 60.156,35.156 H 50 V 21.027 c 0,-1.257 -1.051,-2.277 -2.344,-2.277 -1.293,0 -2.344,1.02 -2.344,2.277 V 36.09 c -2.781,1.426 -4.687,4.32 -4.687,7.66 v 0.156 C 39.113,44.211 37.758,44.953 36.703,46 l -0.094,-9.391 c -0.015,-1.254 -1.047,-2.257 -2.312,-2.246 -1.262,0.012 -2.277,1.039 -2.266,2.293 l 0.11,11.086 c 0.015,1.25 1.047,2.258 2.312,2.246 0.027,0 0.055,0 0.082,-0.004 -0.105,0.512 -0.16,1.036 -0.16,1.578 V 62.488 H 14.844 c -4.746,0 -8.594,-3.847 -8.594,-8.593 V 14.832 c 0,-4.746 3.848,-8.594 8.594,-8.594 z M 21.094,25 c -1.293,0 -2.344,1.043 -2.344,2.332 v 20.332 c 0,1.289 1.051,2.336 2.344,2.336 1.293,0 2.344,-1.047 2.344,-2.336 V 27.332 C 23.438,26.043 22.387,25 21.094,25 Z M 43.75,46.875 h -1.562 c -2.59,0 -4.688,2.098 -4.688,4.687 v 4.688 h 7.812 v -0.781 c 0,-1.297 1.051,-2.344 2.344,-2.344 1.293,0 2.344,1.047 2.344,2.344 v 0.781 h 9.375 v -0.781 c 0,-1.297 1.051,-2.344 2.344,-2.344 1.293,0 2.343,1.047 2.343,2.344 v 0.781 h 7.813 v -4.688 c 0,-2.589 -2.098,-4.687 -4.687,-4.687 H 65.625 V 43.75 c 0,-3.023 -2.449,-5.469 -5.469,-5.469 H 49.219 c -3.02,0 -5.469,2.446 -5.469,5.469 z m 4.688,-3.125 c 0,-0.434 0.351,-0.781 0.781,-0.781 h 10.937 c 0.43,0 0.782,0.347 0.782,0.781 v 3.125 h -12.5 z M 37.5,67.188 v -6.25 h 7.812 v 2.343 c 0,1.293 1.051,2.344 2.344,2.344 1.293,0 2.344,-1.051 2.344,-2.344 v -2.343 h 9.375 v 2.343 c 0,1.293 1.051,2.344 2.344,2.344 1.293,0 2.343,-1.051 2.343,-2.344 v -2.343 h 7.813 v 6.25 c 0,2.585 -2.098,4.687 -4.687,4.687 h -25 c -2.59,0 -4.688,-2.102 -4.688,-4.687 z" style="fill:currentColor;fill-opacity:1;fill-rule:nonzero;stroke:none" transform="scale(1.3333333)" /> </g>
</svg>

