<?xml version="1.0" encoding="UTF-8" standalone="no"?> <svg version="1.1" id="I1ee203632dab4e779b88ed35a72d726b20251106161453" width="100" height="100" viewBox="0 0 100 100" xmlns="http://www.w3.org/2000/svg" xmlns:svg="http://www.w3.org/2000/svg"> <defs id="I3434ced5499b44bba38d8ee9c528544020251106161453" /> <g id="I95faafddd3344219ba17d0fb1d53616520251106161453"> <path id="Ic07bae3c97f54a15977ce64abbbb70bf20251106161453" d="M 56.25,64.062 H 38.336 c -0.898,1.723 -2.035,3.301 -3.367,4.688 H 56.25 c 3.449,0 6.25,-2.801 6.25,-6.25 V 30.711 c 0,-1.656 -0.66,-3.246 -1.832,-4.418 L 42.453,8.082 C 42.406,8.035 42.352,7.992 42.301,7.953 42.262,7.926 42.223,7.895 42.188,7.863 41.965,7.664 41.746,7.465 41.504,7.301 41.426,7.246 41.336,7.203 41.25,7.164 41.203,7.137 41.152,7.113 41.102,7.086 41.051,7.059 41,7.027 40.945,6.996 40.777,6.898 40.609,6.801 40.43,6.727 39.812,6.469 39.148,6.34 38.477,6.293 38.418,6.289 38.355,6.281 38.293,6.273 38.211,6.262 38.125,6.25 38.039,6.25 H 18.75 c -3.449,0 -6.25,2.801 -6.25,6.25 v 23.434 c 1.48,-0.622 3.051,-1.067 4.688,-1.321 V 12.5 c 0,-0.859 0.699,-1.562 1.562,-1.562 H 37.5 V 25 c 0,3.449 2.801,6.25 6.25,6.25 H 57.812 V 62.5 c 0,0.859 -0.699,1.562 -1.562,1.562 z m -1.945,-37.5 H 43.75 c -0.863,0 -1.562,-0.703 -1.562,-1.562 V 14.441 Z m -13.68,28.126 c 0,1.613 -0.187,3.183 -0.543,4.687 h 7.574 c 3.02,0 5.469,-2.449 5.469,-5.469 v -12.5 c 0,-3.019 -2.449,-5.468 -5.469,-5.468 H 28.141 c 3.047,1.273 5.714,3.269 7.797,5.769 v -1.082 h 11.718 c 0.43,0 0.782,0.352 0.782,0.781 v 3.906 H 38.336 c 0.766,1.465 1.355,3.04 1.746,4.688 h 8.356 v 3.906 c 0,0.43 -0.352,0.782 -0.782,0.782 z m -3.125,0 C 37.5,64.18 29.805,71.875 20.312,71.875 10.82,71.875 3.125,64.18 3.125,54.688 3.125,45.195 10.82,37.5 20.312,37.5 29.805,37.5 37.5,45.195 37.5,54.688 Z m -6.707,-7.356 c -0.609,-0.609 -1.602,-0.609 -2.211,0 L 17.188,58.727 12.043,53.582 c -0.609,-0.609 -1.602,-0.609 -2.211,0 -0.609,0.609 -0.609,1.602 0,2.211 l 6.25,6.25 c 0.609,0.609 1.602,0.609 2.211,0 l 12.5,-12.5 c 0.609,-0.609 0.609,-1.602 0,-2.211 z" style="fill:currentColor;fill-opacity:1;fill-rule:nonzero;stroke:none" transform="scale(1.3333333)" /> </g>
</svg>

