<?xml version="1.0" encoding="UTF-8" standalone="no"?> <svg version="1.1" id="I08eccb3882184d4f90bdec2bfa0e0dcb20251106165302" width="100" height="100" viewBox="0 0 100 100" xmlns="http://www.w3.org/2000/svg" xmlns:svg="http://www.w3.org/2000/svg"> <defs id="Ie2fe4b5f3b8c44b78602dc04edbb11b820251106165302" /> <g id="Ibcbd050cf68b42f29a6f5a864c647e6520251106165302"> <path id="I531d2e5e65774008878c888c7f04d42020251106165302" d="m 9.375,19.531 v 35.938 c 0,5.609 4.547,10.156 10.156,10.156 h 35.938 c 5.609,0 10.156,-4.547 10.156,-10.156 V 19.531 C 65.625,13.922 61.078,9.375 55.469,9.375 H 19.531 c -5.609,0 -10.156,4.547 -10.156,10.156 z M 37.5,29.688 c 1.293,0 2.344,1.05 2.344,2.343 v 18.75 c 0,3.02 -2.449,5.469 -5.469,5.469 h -3.906 c -1.293,0 -2.344,-1.051 -2.344,-2.344 0,-1.293 1.051,-2.344 2.344,-2.344 h 3.906 c 0.43,0 0.781,-0.351 0.781,-0.781 v -18.75 c 0,-1.293 1.051,-2.343 2.344,-2.343 z m 6.25,5.468 c 0,-3.019 2.449,-5.468 5.469,-5.468 h 4.687 c 1.293,0 2.344,1.05 2.344,2.343 0,1.293 -1.051,2.344 -2.344,2.344 h -4.687 c -0.43,0 -0.781,0.352 -0.781,0.781 v 4.688 c 0,0.429 0.351,0.781 0.781,0.781 h 1.562 c 3.02,0 5.469,2.449 5.469,5.469 v 4.687 c 0,3.02 -2.449,5.469 -5.469,5.469 h -4.687 c -1.293,0 -2.344,-1.051 -2.344,-2.344 0,-1.293 1.051,-2.344 2.344,-2.344 h 4.687 c 0.43,0 0.781,-0.351 0.781,-0.781 v -4.687 c 0,-0.43 -0.351,-0.782 -0.781,-0.782 h -1.562 c -3.02,0 -5.469,-2.449 -5.469,-5.468 z" style="fill:currentColor;fill-opacity:1;fill-rule:nonzero;stroke:none" transform="scale(1.3333333)" /> </g>
</svg>

