<?xml version="1.0" encoding="UTF-8" standalone="no"?> <svg version="1.1" id="I124d8b3276234689a0aefccf7ddbd0fb20251106161452" width="100" height="100" viewBox="0 0 100 100" xmlns="http://www.w3.org/2000/svg" xmlns:svg="http://www.w3.org/2000/svg"> <defs id="I21c92f05cf9042f2ae0ab9295f35ee9920251106161452" /> <g id="I76a72614229a4a0fb295ce558d7f8bb620251106161452"> <path id="Ic0539648dc82476c8e77ecd7eea0c98320251106161452" d="m 57.812,62.5 c 0,0.859 -0.699,1.562 -1.562,1.562 H 38.336 c -0.898,1.723 -2.035,3.301 -3.367,4.688 H 56.25 c 3.449,0 6.25,-2.801 6.25,-6.25 V 30.711 c 0,-1.656 -0.66,-3.246 -1.832,-4.418 L 42.453,8.082 C 42.406,8.035 42.352,7.992 42.301,7.953 42.262,7.926 42.223,7.895 42.188,7.863 41.965,7.664 41.746,7.465 41.504,7.301 41.426,7.246 41.336,7.203 41.25,7.164 41.203,7.137 41.152,7.113 41.102,7.086 41.051,7.059 41,7.027 40.945,6.996 40.777,6.898 40.609,6.801 40.43,6.727 39.812,6.469 39.148,6.34 38.477,6.293 38.418,6.289 38.355,6.281 38.293,6.273 38.211,6.262 38.125,6.25 38.039,6.25 H 18.75 c -3.449,0 -6.25,2.801 -6.25,6.25 v 23.434 c 1.48,-0.622 3.051,-1.067 4.688,-1.321 V 12.5 c 0,-0.859 0.699,-1.562 1.562,-1.562 H 37.5 V 25 c 0,3.449 2.801,6.25 6.25,6.25 H 57.812 Z M 42.188,14.441 54.305,26.562 H 43.75 c -0.863,0 -1.562,-0.703 -1.562,-1.562 z M 37.5,54.688 C 37.5,64.18 29.805,71.875 20.312,71.875 10.82,71.875 3.125,64.18 3.125,54.688 3.125,45.195 10.82,37.5 20.312,37.5 29.805,37.5 37.5,45.195 37.5,54.688 Z m -29.688,0 c 0,2.605 0.797,5.023 2.161,7.027 L 27.34,44.348 c -2.004,-1.364 -4.422,-2.16 -7.028,-2.16 -6.902,0 -12.5,5.597 -12.5,12.5 z m 12.5,12.5 c 6.903,0 12.5,-5.598 12.5,-12.5 0,-2.606 -0.796,-5.024 -2.16,-7.028 L 13.285,65.027 c 2.004,1.364 4.422,2.161 7.027,2.161 z" style="fill:currentColor;fill-opacity:1;fill-rule:nonzero;stroke:none" transform="scale(1.3333333)" /> </g>
</svg>

