<?xml version="1.0" encoding="UTF-8" standalone="no"?> <svg version="1.1" id="I2e098e2e4a7143739701d382dfd6a40020251106142135" width="100" height="100" viewBox="0 0 100 100" xmlns="http://www.w3.org/2000/svg" xmlns:svg="http://www.w3.org/2000/svg"> <defs id="I9ccbb53fb0954b19b0578eebf279dced20251106142135" /> <g id="Ie62cfe109e234e7f853f4523e36c6de420251106142135"> <path id="Ia58e5455811040199ffc13e88d950c0320251106142135" d="m 9.375,19.531 c 0,1.293 1.051,2.344 2.344,2.344 1.293,0 2.343,-1.051 2.343,-2.344 v -1.562 c 0,-2.157 1.75,-3.907 3.907,-3.907 h 39.062 c 2.157,0 3.907,1.75 3.907,3.907 v 1.562 c 0,1.293 1.05,2.344 2.343,2.344 1.293,0 2.344,-1.051 2.344,-2.344 v -1.562 c 0,-4.746 -3.848,-8.594 -8.594,-8.594 H 17.969 c -4.746,0 -8.594,3.848 -8.594,8.594 z m 2.344,11.719 c 1.293,0 2.343,1.051 2.343,2.344 v 7.812 c 0,1.293 -1.05,2.344 -2.343,2.344 -1.293,0 -2.344,-1.051 -2.344,-2.344 v -7.812 c 0,-1.293 1.051,-2.344 2.344,-2.344 z m 51.562,0 c -1.293,0 -2.343,1.051 -2.343,2.344 v 7.812 c 0,1.293 1.05,2.344 2.343,2.344 1.293,0 2.344,-1.051 2.344,-2.344 v -7.812 c 0,-1.293 -1.051,-2.344 -2.344,-2.344 z M 9.375,63.281 c 0,1.293 1.051,2.344 2.344,2.344 h 51.562 c 1.293,0 2.344,-1.051 2.344,-2.344 0,-1.293 -1.051,-2.343 -2.344,-2.343 H 11.719 c -1.293,0 -2.344,1.05 -2.344,2.343 z m 2.344,-5.469 c -1.293,0 -2.344,-1.05 -2.344,-2.343 0,-1.293 1.051,-2.344 2.344,-2.344 h 51.562 c 1.293,0 2.344,1.051 2.344,2.344 0,1.293 -1.051,2.343 -2.344,2.343 z" style="fill:currentColor;fill-opacity:1;fill-rule:nonzero;stroke:none" transform="scale(1.3333333)" /> </g>
</svg>

