<?xml version="1.0" encoding="UTF-8" standalone="no"?> <svg version="1.1" id="I93243105b3c84d7a92c79998b948101520251110135156" width="100" height="100" viewBox="0 0 100 100" xmlns="http://www.w3.org/2000/svg" xmlns:svg="http://www.w3.org/2000/svg"> <defs id="If0f796e08af244698bc68a0fbfc1c14e20251110135156" /> <g id="I88cbffd7a50b40f68d2f4f1c0390cfc520251110135156"> <path id="I59121611a3f34686909c95b55ba8a07220251110135156" d="m 8.594,12.5 c -1.106,0 -2.063,0.773 -2.293,1.855 -0.231,1.083 0.328,2.176 1.332,2.625 l 0.012,0.008 c 0.015,0.004 0.039,0.016 0.074,0.035 0.074,0.036 0.191,0.094 0.34,0.172 0.296,0.164 0.722,0.41 1.199,0.743 0.976,0.683 2.07,1.64 2.816,2.835 0.688,1.098 2.133,1.43 3.231,0.747 1.097,-0.688 1.429,-2.133 0.746,-3.231 -0.242,-0.391 -0.504,-0.758 -0.778,-1.101 h 7.383 C 23.949,17.188 25,16.137 25,14.844 25,13.551 23.949,12.5 22.656,12.5 Z M 56.25,34.375 v 26.563 l 0.02,0.363 c 0.183,1.554 1.503,2.761 3.105,2.761 1.727,0 3.125,-1.398 3.125,-3.124 V 34.375 l -0.02,-0.363 c -0.183,-1.555 -1.503,-2.762 -3.105,-2.762 -1.727,0 -3.125,1.398 -3.125,3.125 z m -20.312,0 v 26.563 l 0.019,0.363 c 0.184,1.554 1.504,2.761 3.105,2.761 1.727,0 3.126,-1.398 3.126,-3.124 V 34.375 l -0.02,-0.363 c -0.184,-1.555 -1.504,-2.762 -3.106,-2.762 -1.726,0 -3.124,1.398 -3.124,3.125 z M 18.75,31.25 c -1.727,0 -3.125,1.398 -3.125,3.125 v 26.563 l 0.02,0.363 c 0.183,1.554 1.503,2.761 3.105,2.761 1.727,0 3.125,-1.398 3.125,-3.124 V 34.375 l -0.02,-0.363 C 21.672,32.457 20.352,31.25 18.75,31.25 Z M 32.875,15.152 c -0.168,0.942 0.207,2.114 0.813,2.723 0.917,0.914 0.917,2.398 0,3.313 -0.915,0.917 -2.399,0.917 -3.313,0 -1.738,-1.735 -2.535,-4.469 -2.117,-6.848 0.219,-1.242 0.797,-2.52 1.894,-3.488 1.118,-0.985 2.575,-1.477 4.223,-1.477 1.937,0 3.375,0.848 4.437,1.895 0.883,0.867 1.598,1.968 2.153,2.828 l 0.16,0.25 c 0.398,0.609 0.742,1.109 1.063,1.507 v -4.136 c 0,-1.293 1.05,-2.344 2.343,-2.344 1.293,0 2.344,1.051 2.344,2.344 v 7.812 c 0,1.293 -1.051,2.344 -2.344,2.344 -4.105,0 -6.101,-3.074 -7.304,-4.922 l -0.122,-0.187 c -0.644,-0.993 -1.082,-1.668 -1.578,-2.157 -0.425,-0.418 -0.742,-0.547 -1.152,-0.547 -0.695,0 -0.992,0.192 -1.121,0.305 -0.149,0.129 -0.305,0.367 -0.379,0.785 z M 66.5,21.969 c 0,0 0.262,-0.289 0.016,-0.012 l 0.015,-0.019 0.039,-0.04 c 0.032,-0.031 0.067,-0.07 0.106,-0.117 0.078,-0.09 0.176,-0.207 0.289,-0.355 0.219,-0.293 0.492,-0.707 0.758,-1.238 0.531,-1.067 1.027,-2.594 1.027,-4.563 0,-1.996 -0.566,-3.738 -1.688,-5.004 C 65.938,9.348 64.387,8.715 62.816,8.766 61.516,8.805 60.328,9.285 59.375,10.094 58.422,9.285 57.234,8.805 55.934,8.766 54.367,8.715 52.812,9.348 51.688,10.621 50.566,11.887 50,13.629 50,15.625 c 0,1.969 0.496,3.496 1.027,4.563 0.266,0.531 0.539,0.945 0.762,1.238 0.109,0.148 0.207,0.265 0.285,0.355 0.039,0.047 0.074,0.086 0.106,0.117 l 0.039,0.04 0.015,0.019 0.008,0.004 0.008,0.008 c 0.914,0.918 2.398,0.918 3.312,0 0.903,-0.903 0.918,-2.36 0.04,-3.278 -0.012,-0.007 -0.032,-0.035 -0.063,-0.078 -0.074,-0.097 -0.191,-0.269 -0.316,-0.519 -0.25,-0.496 -0.535,-1.313 -0.535,-2.469 0,-1.129 0.312,-1.676 0.511,-1.898 0.192,-0.219 0.399,-0.286 0.586,-0.278 0.199,0.008 0.473,0.102 0.723,0.387 0.238,0.273 0.523,0.82 0.523,1.789 0,1.293 1.051,2.344 2.344,2.344 1.293,0 2.344,-1.051 2.344,-2.344 0,-0.969 0.285,-1.516 0.527,-1.789 0.246,-0.285 0.52,-0.379 0.719,-0.387 0.191,-0.008 0.394,0.059 0.586,0.278 0.199,0.222 0.511,0.769 0.511,1.898 0,1.156 -0.285,1.973 -0.535,2.469 -0.125,0.25 -0.242,0.422 -0.312,0.519 -0.035,0.043 -0.055,0.071 -0.067,0.078 -0.875,0.918 -0.863,2.375 0.04,3.278 0.914,0.918 2.398,0.918 3.312,0 z m -14.258,-0.008 0.004,0.004 c -0.019,-0.02 -0.523,-0.625 -0.004,-0.004 z" style="fill:currentColor;fill-opacity:1;fill-rule:nonzero;stroke:none" transform="scale(1.3333333)" /> </g>
</svg>

