<?xml version="1.0" encoding="UTF-8" standalone="no"?> <svg version="1.1" id="I8aa98083dab943788bcc6a88866a963120251106142135" width="100" height="100" viewBox="0 0 100 100" xmlns="http://www.w3.org/2000/svg" xmlns:svg="http://www.w3.org/2000/svg"> <defs id="I1b94adcaef02467894526a7424e8a5d620251106142135" /> <g id="I9827640f0fc94f7ebb7ef5e8cf34eea520251106142135"> <path id="I106f8aeb8201442792f4616eff0caed320251106142135" d="m 33.098,7.852 c 2.824,-1.145 5.98,-1.145 8.804,0 l 23.434,9.5 c 2.062,0.839 3.414,2.843 3.414,5.07 V 40.031 C 67.363,38.699 65.785,37.562 64.062,36.668 V 24.293 l -24.218,9.348 v 7.183 c -2.164,2.313 -3.789,5.133 -4.688,8.266 V 33.637 L 10.938,24.219 v 28.367 c 0,0.316 0.191,0.605 0.488,0.723 l 23.433,9.5 c 0.098,0.043 0.2,0.078 0.297,0.113 v -0.004 l 0.59,0.242 c 0.184,0.074 0.371,0.137 0.559,0.188 0.777,1.644 1.769,3.168 2.937,4.535 -2.062,0.308 -4.183,0.066 -6.144,-0.731 L 9.664,57.652 C 7.602,56.816 6.25,54.812 6.25,52.586 V 22.422 c 0,-2.227 1.352,-4.231 3.414,-5.07 z m 7.043,4.343 c -1.692,-0.683 -3.59,-0.683 -5.282,0 l -5.98,2.426 23.523,9.149 8.34,-3.223 z m -25.797,8.321 23.16,9.004 8.406,-3.247 -23.363,-9.085 z m 40.344,16.988 c -9.493,0 -17.188,7.695 -17.188,17.187 0,9.493 7.695,17.188 17.188,17.188 9.492,0 17.187,-7.695 17.187,-17.188 0,-9.492 -7.695,-17.187 -17.187,-17.187 z m -10.934,17.055 0.047,-0.27 0.066,-0.195 0.11,-0.211 0.097,-0.149 7.946,-7.961 0.218,-0.179 c 0.606,-0.422 1.45,-0.364 1.992,0.179 0.543,0.543 0.602,1.383 0.18,1.993 l -0.18,0.218 -5.148,5.149 16.543,-0.004 0.281,0.023 c 0.637,0.118 1.141,0.621 1.258,1.258 l 0.024,0.281 -0.024,0.282 c -0.117,0.636 -0.621,1.14 -1.258,1.254 l -0.281,0.027 -16.539,0.004 5.144,5.14 0.18,0.215 c 0.371,0.535 0.371,1.246 0,1.778 l -0.18,0.218 -0.218,0.18 c -0.532,0.367 -1.242,0.367 -1.774,0 L 52.02,63.609 44.172,55.758 44.027,55.578 43.895,55.352 43.801,55.09 43.766,54.902 43.75,54.727 Z" style="fill:currentColor;fill-opacity:1;fill-rule:nonzero;stroke:none" transform="scale(1.3333333)" /> </g>
</svg>

