<?xml version="1.0" encoding="UTF-8" standalone="no"?> <svg version="1.1" id="I47f575c98bd54b4aa6d95e50f8b6469820251110124422" width="100" height="100" viewBox="0 0 100 100" xmlns="http://www.w3.org/2000/svg" xmlns:svg="http://www.w3.org/2000/svg"> <defs id="I16bc36302de14d7c8d29b10f28bd64b320251110124422" /> <g id="I81f86c90849344298284bee6bf3f4b0220251110124422"> <path id="Ic7d39f8ae7764912befba29c42660eb020251110124422" d="m 48.066,16.57 c -8.234,-4.156 -18.402,-3.148 -25.691,3.024 -2.738,-1.352 -6.145,-0.891 -8.426,1.386 -2.855,2.86 -2.855,7.493 0,10.352 l 29.778,29.773 c 2.855,2.86 7.488,2.856 10.347,0 2.301,-2.3 2.75,-5.75 1.348,-8.5 6.16,-7.293 7.16,-17.464 2.996,-25.687 l 7.391,-7.395 c 2.859,-2.855 2.859,-7.492 0,-10.347 -2.856,-2.86 -7.489,-2.86 -10.348,0 z m -22.062,6.114 c 7.355,-5.723 17.992,-5.204 24.754,1.558 6.762,6.758 7.281,17.399 1.558,24.754 z m -8.738,1.613 c 0.996,-1 2.593,-1.027 3.629,-0.09 l 29.953,29.957 c 0.937,1.031 0.91,2.629 -0.086,3.625 -1.028,1.027 -2.696,1.027 -3.723,0 L 17.266,28.016 c -1.028,-1.028 -1.028,-2.692 0,-3.719 z m 34.836,-5.133 6.675,-6.676 c 1.024,-1.027 2.692,-1.027 3.719,0 1.027,1.028 1.027,2.696 0,3.723 l -6.672,6.672 c -0.543,-0.676 -1.125,-1.328 -1.75,-1.957 -0.633,-0.629 -1.293,-1.219 -1.972,-1.762 z m -34.04,27.024 c 0.918,-0.915 0.918,-2.399 0,-3.313 -0.914,-0.918 -2.398,-0.918 -3.312,0 l -7.031,7.031 c -0.918,0.914 -0.918,2.399 0,3.313 0.914,0.918 2.398,0.918 3.312,0 z m 7.032,3.718 c 0.918,0.914 0.918,2.399 0,3.313 l -7.032,7.031 c -0.914,0.918 -2.398,0.918 -3.312,0 -0.918,-0.914 -0.918,-2.398 0,-3.312 l 7.031,-7.032 c 0.914,-0.918 2.399,-0.918 3.313,0 z m 7.031,10.344 c 0.918,-0.914 0.918,-2.398 0,-3.312 -0.914,-0.918 -2.398,-0.918 -3.313,0 l -7.031,7.031 c -0.918,0.914 -0.918,2.398 0,3.312 0.914,0.918 2.399,0.918 3.313,0 z" style="fill:currentColor;fill-opacity:1;fill-rule:nonzero;stroke:none" transform="scale(1.3333333)" /> </g>
</svg>

