<?xml version="1.0" encoding="UTF-8" standalone="no"?> <svg version="1.1" id="Idf75fe72c7324e9796d6178337dfcd4620251110123031" width="100" height="100" viewBox="0 0 100 100" xmlns="http://www.w3.org/2000/svg" xmlns:svg="http://www.w3.org/2000/svg"> <defs id="Iea758e60b4fd4a92b9e75f5c85ed4a5220251110123031" /> <g id="I06afb5dc19a34704a6d90707d6709e7420251110123031"> <path id="Ia5efc28ad8e240b79d4ca9505d8de7ba20251110123031" d="m 26.117,5.355 c -4.07,0 -7.367,3.301 -7.367,7.368 v 49.554 c 0,4.067 3.297,7.364 7.367,7.364 h 22.766 c 4.07,0 7.367,-3.297 7.367,-7.364 V 12.723 c 0,-4.067 -3.297,-7.368 -7.367,-7.368 z m -3.347,7.368 c 0,-1.848 1.496,-3.348 3.347,-3.348 h 22.766 c 1.851,0 3.347,1.5 3.347,3.348 v 49.554 c 0,1.848 -1.496,3.348 -3.347,3.348 H 26.117 c -1.851,0 -3.347,-1.5 -3.347,-3.348 z M 32.812,56.25 c -1.109,0 -2.007,0.898 -2.007,2.008 0,1.109 0.898,2.012 2.007,2.012 h 9.376 c 1.109,0 2.007,-0.903 2.007,-2.012 0,-1.11 -0.898,-2.008 -2.007,-2.008 z" style="fill:currentColor;fill-opacity:1;fill-rule:nonzero;stroke:none" transform="scale(1.3333333)" /> </g>
</svg>

