<?xml version="1.0" encoding="UTF-8" standalone="no"?> <svg version="1.1" id="I13336a6dca814bb08fca500d4a27881920251106165301" width="100" height="100" viewBox="0 0 100 100" xmlns="http://www.w3.org/2000/svg" xmlns:svg="http://www.w3.org/2000/svg"> <defs id="I760883fa29a14008b84074159c5956f920251106165301" /> <g id="I757055c190a44f2b82f5d0a714ac96e020251106165301"> <path id="I94305b6f12a34aec966ea5e9e5bed91020251106165301" d="m 58.594,10.938 c 5.609,0 10.156,4.546 10.156,10.156 v 32.82 c 0,5.609 -4.547,10.156 -10.156,10.156 H 16.406 C 10.797,64.07 6.25,59.523 6.25,53.914 v -32.82 c 0,-5.61 4.547,-10.156 10.156,-10.156 z m -32.41,17.164 c -0.981,0 -1.793,0.722 -1.934,1.664 l -0.02,0.289 -0.003,5.523 h -4.629 v -5.469 l -0.02,-0.289 c -0.14,-0.941 -0.949,-1.664 -1.933,-1.664 -0.981,0 -1.79,0.723 -1.93,1.664 l -0.024,0.289 v 14.848 l 0.024,0.289 c 0.14,0.942 0.949,1.664 1.93,1.664 0.984,0 1.793,-0.722 1.933,-1.664 l 0.02,-0.289 v -5.473 h 4.629 l 0.003,5.422 0.02,0.285 c 0.141,0.946 0.953,1.668 1.934,1.668 0.98,0 1.793,-0.722 1.929,-1.668 l 0.024,-0.285 V 30.055 l -0.024,-0.289 c -0.136,-0.942 -0.949,-1.664 -1.929,-1.664 z m 27.57,0.07 H 48.84 l -0.289,0.023 c -0.84,0.121 -1.504,0.778 -1.637,1.614 l -0.027,0.32 0.015,14.793 0.024,0.34 0.074,0.32 c 0.57,1.82 3.48,1.715 3.785,-0.305 l 0.024,-0.355 v -5.473 l 2.316,-0.004 2.504,6.207 0.141,0.286 c 0.488,0.8 1.5,1.156 2.398,0.796 0.902,-0.363 1.383,-1.324 1.176,-2.238 l -0.094,-0.305 -2.309,-5.73 c 1.481,-1.016 2.45,-2.719 2.45,-4.649 0,-2.96 -2.278,-5.386 -5.176,-5.621 z M 35.547,28.141 h -2.344 l -0.289,0.023 c -0.84,0.125 -1.504,0.777 -1.641,1.609 l -0.023,0.321 v 14.82 l 0.02,0.289 c 0.125,0.836 0.781,1.5 1.613,1.637 l 0.32,0.027 h 2.344 l 0.519,-0.015 c 4.118,-0.258 7.411,-3.555 7.668,-7.672 l 0.016,-0.516 v -2.32 l -0.016,-0.516 c -0.257,-4.117 -3.55,-7.414 -7.668,-7.668 z m 0,3.906 c 2.234,0 4.07,1.707 4.277,3.883 l 0.02,0.414 v 2.32 l -0.02,0.414 c -0.195,2.043 -1.82,3.668 -3.863,3.863 l -0.414,0.02 -0.395,-0.004 v -10.91 z m 15.25,0.031 h 2.957 l 0.281,0.024 c 0.824,0.132 1.449,0.847 1.449,1.71 0,0.86 -0.625,1.575 -1.449,1.708 l -0.281,0.023 h -2.957 z" style="fill:currentColor;fill-opacity:1;fill-rule:nonzero;stroke:none" transform="scale(1.3333333)" /> </g>
</svg>

