<?xml version="1.0" encoding="UTF-8" standalone="no"?> <svg version="1.1" id="I1838f99060344011a2463d7bff030f9320251106144521" width="100" height="100" viewBox="0 0 100 100" xmlns="http://www.w3.org/2000/svg" xmlns:svg="http://www.w3.org/2000/svg"> <defs id="I532ce553e31a48bc818bdbae0d4d65c920251106144521" /> <g id="Iaa58f7a0127543658061ba8761dafb2220251106144521"> <path id="I79dd938f446b4581841a1f0bea5dc28420251106144521" d="m 32.422,15.551 c 0.73,-0.735 1.918,-0.735 2.652,-0.004 l 20.567,20.492 c 0.808,0.809 0.808,2.117 0,2.922 L 35.074,59.457 c -0.734,0.731 -1.922,0.727 -2.652,-0.004 -0.731,-0.734 -0.731,-1.922 0.004,-2.652 L 51.793,37.5 32.426,18.203 c -0.735,-0.73 -0.735,-1.918 -0.004,-2.652 z m -15,0 c 0.73,-0.735 1.918,-0.735 2.652,-0.004 l 20.567,20.492 c 0.808,0.809 0.808,2.117 0,2.922 L 20.074,59.457 c -0.734,0.731 -1.922,0.727 -2.652,-0.004 -0.731,-0.734 -0.731,-1.922 0.004,-2.652 L 36.793,37.5 17.426,18.203 c -0.735,-0.73 -0.735,-1.918 -0.004,-2.652 z" style="fill:currentColor;fill-opacity:1;fill-rule:nonzero;stroke:none" transform="scale(1.3333333)" /> </g>
</svg>

