<?xml version="1.0" encoding="UTF-8" standalone="no"?> <svg version="1.1" id="Id1f7b4f4557648b58670686b244e14f720251106143238" width="100" height="100" viewBox="0 0 100 100" xmlns="http://www.w3.org/2000/svg" xmlns:svg="http://www.w3.org/2000/svg"> <defs id="Ia792ed57d3e6437a9fe356c549704cf620251106143238" /> <g id="I5e18ea1e35594cc3b1757ad6f36656f520251106143238"> <path id="I21e23f4ab4e14876a53409ac0f6b0cfa20251106143238" d="M 65.625,19.531 C 65.625,13.922 61.078,9.375 55.469,9.375 H 19.531 c -5.609,0 -10.156,4.547 -10.156,10.156 v 35.938 c 0,5.609 4.547,10.156 10.156,10.156 H 41.16 C 40.801,64.48 40.625,63.293 40.625,62.109 v -0.32 c 0,-0.289 0.016,-0.57 0.043,-0.851 H 19.531 c -3.019,0 -5.469,-2.45 -5.469,-5.469 V 26.562 h 46.876 v 8.266 c 1.8,0.535 3.406,1.524 4.687,2.828 z M 19.531,14.062 h 35.938 c 3.019,0 5.469,2.45 5.469,5.469 v 2.344 H 14.062 v -2.344 c 0,-3.019 2.45,-5.469 5.469,-5.469 z m 46.094,31.25 c 0,4.317 -3.496,7.813 -7.813,7.813 -4.316,0 -7.812,-3.496 -7.812,-7.813 0,-4.316 3.496,-7.812 7.812,-7.812 4.317,0 7.813,3.496 7.813,7.812 z m 6.25,16.797 c 0,4.864 -4.02,9.766 -14.063,9.766 -10.042,0 -14.062,-4.883 -14.062,-9.766 v -0.32 c 0,-3.062 2.48,-5.539 5.539,-5.539 h 17.047 c 3.059,0 5.539,2.477 5.539,5.539 z" style="fill:currentColor;fill-opacity:1;fill-rule:nonzero;stroke:none" transform="scale(1.3333333)" /> </g>
</svg>

