<svg version="1.2" xmlns="http://www.w3.org/2000/svg" viewBox="0 0 100 100" width="100" height="100">
	<style>
		.Cbc7cb9e7960e4e239027493cd03b447720251031115230 { fill: none;stroke: #0026a9;stroke-linecap: round;stroke-width: 10 } 
		.Cc3d7b32f702d49c8b0750d45bb99c89e20251031115230 { fill: none;stroke: #00145a;stroke-linecap: round;stroke-linejoin: round;stroke-width: 10 } 
	</style>
	<g id="Ibe41ce76d65b4954bb416956e8cbc9d520251031115230">
		<g id="Ia817d6e74d6c4c48bd503d03c81ae4ff20251031115230">
			<path id="I1cb0d339006347b4992cfed992a2a4f720251031115230" fill-rule="evenodd" class="Cbc7cb9e7960e4e239027493cd03b447720251031115230" d="m36.62 27.89c0.05-9.49 0.47-14.62 3.82-17.97 3.84-3.84 10-3.84 22.34-3.84h4.36c12.34 0 18.5 0 22.34 3.84 3.83 3.83 3.83 9.99 3.83 22.33v34.89c0 12.33 0 18.5-3.83 22.33-3.84 3.84-10 3.84-22.34 3.84h-4.36c-12.34 0-18.5 0-22.34-3.84-3.35-3.35-3.77-8.48-3.82-17.97"/>
		</g>
		<path id="Ia5fa16f58a3c42a48248d1d9587ae47120251031115230" fill-rule="evenodd" class="Cc3d7b32f702d49c8b0750d45bb99c89e20251031115230" d="m62.78 49.69h-56.7m0 0l15.27-13.08m-15.27 13.08l15.27 13.09"/>
	</g>
</svg>





