<svg version="1.2" xmlns="http://www.w3.org/2000/svg" viewBox="0 0 100 100" width="100" height="100">
	<style>
		.Cd1ae80fd94e34a998ea60be9def5410a20251103104212 { fill: none;stroke: #0026a9;stroke-linecap: round;stroke-width: 10 } 
		.Cd157dc8b55aa458fbd962a00c917fbfd20251103104212 { fill: none;stroke: #00145a;stroke-linecap: round;stroke-linejoin: round;stroke-width: 10 } 
	</style>
	<g id="I5c973191e08d49fea30c62abf53122e720251103104212">
		<g id="I3c207592d44c4c22b8257a8d9989db4520251103104212">
			<path id="If121b649096b468a9e6932293c4de32a20251103104212" fill-rule="evenodd" class="Cd1ae80fd94e34a998ea60be9def5410a20251103104212" d="m36.62 27.89c0.05-9.49 0.47-14.62 3.82-17.97 3.84-3.84 10-3.84 22.34-3.84h4.36c12.34 0 18.5 0 22.34 3.84 3.83 3.83 3.83 9.99 3.83 22.33v34.89c0 12.33 0 18.5-3.83 22.33-3.84 3.84-10 3.84-22.34 3.84h-4.36c-12.34 0-18.5 0-22.34-3.84-3.35-3.35-3.77-8.48-3.82-17.97"/>
		</g>
		<path id="I673d0c2cb27145e4985471901ea318c120251103104212" fill-rule="evenodd" class="Cd157dc8b55aa458fbd962a00c917fbfd20251103104212" d="m62.78 49.69h-56.7m0 0l15.27-13.08m-15.27 13.08l15.27 13.09"/>
	</g>
</svg>







