<?xml version="1.0" encoding="UTF-8" standalone="no"?> <svg version="1.1" id="Ia838fa8e0dba4753b2698f5967fa091d20251110130509" width="100" height="100" viewBox="0 0 100 100" xmlns="http://www.w3.org/2000/svg" xmlns:svg="http://www.w3.org/2000/svg"> <defs id="Iccc411cf13ea4186a54b9d93e98588a520251110130509" /> <g id="Ia9df5ab76c63499fad5c298474ddba9820251110130509"> <path id="I352d622566d546f6b2385819290a087120251110130509" d="m 61.875,33.75 c 0.637,0 1.262,0.047 1.875,0.133 V 30 h -15 v 3.75 z M 33.75,61.875 V 48.75 H 30 v 15 h 3.883 C 33.797,63.137 33.75,62.512 33.75,61.875 Z M 33.883,45 C 34.707,39.254 39.254,34.707 45,33.883 V 30 H 30 V 45 Z M 26.25,45 V 30 h -15 v 15 z m -15,3.75 h 15 v 15 h -5.625 c -5.176,0 -9.375,-4.199 -9.375,-9.375 z m 37.5,-22.5 h 15 v -5.625 c 0,-5.176 -4.199,-9.375 -9.375,-9.375 H 48.75 Z M 45,11.25 v 15 H 30 v -15 z m -18.75,0 v 15 h -15 v -5.625 c 0,-5.176 4.199,-9.375 9.375,-9.375 z M 37.5,46.875 c 0,-5.176 4.199,-9.375 9.375,-9.375 h 15 c 5.176,0 9.375,4.199 9.375,9.375 v 15 c 0,1.91 -0.57,3.687 -1.555,5.172 L 58.352,55.699 c -2.196,-2.195 -5.758,-2.195 -7.954,0 L 39.055,67.047 C 38.07,65.562 37.5,63.785 37.5,61.875 Z m 26.25,0.937 C 63.75,46.258 62.492,45 60.938,45 c -1.555,0 -2.813,1.258 -2.813,2.812 0,1.555 1.258,2.813 2.813,2.813 1.554,0 2.812,-1.258 2.812,-2.813 z M 41.703,69.695 c 1.485,0.985 3.262,1.555 5.172,1.555 h 15 c 1.91,0 3.687,-0.57 5.172,-1.555 L 55.699,58.352 c -0.73,-0.731 -1.918,-0.731 -2.648,0 z" style="fill:currentColor;fill-opacity:1;fill-rule:nonzero;stroke:none" transform="scale(1.3333333)" /> </g>
</svg>

