<?xml version="1.0" encoding="UTF-8" standalone="no"?> <svg version="1.1" id="Ia087e57bdda04ee3b5e9192a6079889e20251106170412" width="100" height="100" viewBox="0 0 100 100" xmlns="http://www.w3.org/2000/svg" xmlns:svg="http://www.w3.org/2000/svg"> <defs id="I1103e552dbe8402cb55fbd25719203cb20251106170412" /> <g id="I573f5ce3b6e841fb835d1fef630b5b2b20251106170412"> <path id="Ibaeae6d09d594927951163f35d2b994420251106170412" d="m 55.469,65.625 c 5.609,0 10.156,-4.547 10.156,-10.156 V 19.531 C 65.625,13.922 61.078,9.375 55.469,9.375 H 19.531 c -5.609,0 -10.156,4.547 -10.156,10.156 v 35.938 c 0,5.609 4.547,10.156 10.156,10.156 z m 5.469,-10.156 c 0,3.019 -2.45,5.469 -5.469,5.469 H 19.531 c -3.019,0 -5.469,-2.45 -5.469,-5.469 v -3.907 h 46.876 z m 0,-17.969 H 14.062 V 28.125 H 60.938 Z M 14.062,19.531 c 0,-3.019 2.45,-5.469 5.469,-5.469 h 35.938 c 3.019,0 5.469,2.45 5.469,5.469 v 3.907 H 14.062 Z" style="fill:currentColor;fill-opacity:1;fill-rule:nonzero;stroke:none" transform="scale(1.3333333)" /> </g>
</svg>

