<?xml version="1.0" encoding="UTF-8" standalone="no"?> <svg version="1.1" id="I48c3f8f9eef948b7a10bca47a1a9020220251106164749" width="100" height="100" viewBox="0 0 100 100" xmlns="http://www.w3.org/2000/svg" xmlns:svg="http://www.w3.org/2000/svg"> <defs id="I4cfc60aaba1d46aba83ad6b2894a967c20251106164749" /> <g id="I0a78528428a14012ba1f182985bc77c720251106164749"> <path id="I1cb6773d72e4422684d0aecff0ad6edf20251106164749" d="m 61.59,16.094 c 2.426,1.539 4.035,4.254 4.035,7.344 v 28.124 c 0,7.766 -6.297,14.063 -14.063,14.063 H 23.438 c -3.09,0 -5.805,-1.609 -7.352,-4.039 l 0.328,0.016 0.328,0.003 h 34.82 c 5.547,0 10.043,-4.496 10.043,-10.043 v -34.82 c 0,-0.219 -0.003,-0.433 -0.015,-0.648 z" style="fill:currentColor;fill-opacity:1;fill-rule:nonzero;stroke:none" transform="scale(1.3333333)" /> <path id="Iee82e35e0fc84ef891ed4e58ce8da9bb20251106164749" d="m 22.77,36.16 c -1.481,0 -2.68,1.199 -2.68,2.68 0,1.48 1.199,2.68 2.68,2.68 1.476,0 2.675,-1.2 2.675,-2.68 0,-1.481 -1.199,-2.68 -2.675,-2.68 z" style="fill:currentColor;fill-opacity:1;fill-rule:nonzero;stroke:none" transform="scale(1.3333333)" /> <path id="If9fe7ad1c78443f29b0c4175d63411b420251106164749" d="M 50.223,8.035 H 16.742 c -4.808,0 -8.707,3.899 -8.707,8.707 v 33.481 c 0,4.808 3.899,8.707 8.707,8.707 h 33.481 c 4.808,0 8.707,-3.899 8.707,-8.707 V 16.742 c 0,-4.808 -3.899,-8.707 -8.707,-8.707 z M 16.07,38.84 c 0,-3.699 3,-6.695 6.7,-6.695 3.695,0 6.695,2.996 6.695,6.695 0,3.699 -3,6.695 -6.695,6.695 -3.7,0 -6.7,-2.996 -6.7,-6.695 z m 18.75,-0.672 c 0,-1.109 0.903,-2.008 2.012,-2.008 h 13.391 c 1.109,0 2.007,0.899 2.007,2.008 0,1.109 -0.898,2.012 -2.007,2.012 H 36.832 c -1.109,0 -2.012,-0.903 -2.012,-2.012 z M 16.07,24.777 c 0,-1.109 0.903,-2.007 2.012,-2.007 h 32.141 c 1.109,0 2.007,0.898 2.007,2.007 0,1.11 -0.898,2.008 -2.007,2.008 H 18.082 c -1.109,0 -2.012,-0.898 -2.012,-2.008 z" style="fill:currentColor;fill-opacity:1;fill-rule:nonzero;stroke:none" transform="scale(1.3333333)" /> </g>
</svg>

