<?xml version="1.0" encoding="UTF-8" standalone="no"?> <svg version="1.1" id="I9c51c44581c8438fa84e00fa484e20d320251106125938" width="100" height="100" viewBox="0 0 100 100" xmlns="http://www.w3.org/2000/svg" xmlns:svg="http://www.w3.org/2000/svg"> <defs id="I6930f2170917420591e00ea7dd6a59d120251106125938" /> <g id="I7e75e75d3f0d4147acdc1c76f9a9a2fe20251106125938"> <path id="I910f21ce205142cda5eb4719c4deddbb20251106125938" d="M 37.5,9.375 C 21.969,9.375 9.375,21.969 9.375,37.5 c 0,10.738 6.066,20.277 15.23,25.004 L 18.75,62.5 c -1.727,0 -3.125,1.398 -3.125,3.125 0,1.602 1.207,2.922 2.762,3.105 l 0.363,0.02 h 12.5 c 1.602,0 2.922,-1.207 3.105,-2.762 l 0.02,-0.363 v -12.5 C 34.375,51.398 32.977,50 31.25,50 c -1.602,0 -2.922,1.207 -3.105,2.762 l -0.02,0.363 -0.004,4.145 C 20.637,53.719 15.625,46.102 15.625,37.5 c 0,-12.082 9.793,-21.875 21.875,-21.875 12.082,0 21.875,9.793 21.875,21.875 0,1.727 1.398,3.125 3.125,3.125 1.727,0 3.125,-1.398 3.125,-3.125 C 65.625,21.969 53.031,9.375 37.5,9.375 Z m 0,18.75 c -5.18,0 -9.375,4.195 -9.375,9.375 0,5.18 4.195,9.375 9.375,9.375 5.18,0 9.375,-4.195 9.375,-9.375 0,-5.18 -4.195,-9.375 -9.375,-9.375 z m 0,6.25 c 1.727,0 3.125,1.398 3.125,3.125 0,1.727 -1.398,3.125 -3.125,3.125 -1.727,0 -3.125,-1.398 -3.125,-3.125 0,-1.727 1.398,-3.125 3.125,-3.125 z" style="fill:currentColor;fill-opacity:1;fill-rule:nonzero;stroke:none" transform="scale(1.3333333)" /> </g>
</svg>

