<?xml version="1.0" encoding="UTF-8" standalone="no"?> <svg version="1.1" id="I78715942454a4b38943d5833b912985320251110124420" width="100" height="100" viewBox="0 0 100 100" xmlns="http://www.w3.org/2000/svg" xmlns:svg="http://www.w3.org/2000/svg"> <defs id="I7ffc8484e4ce4c47be54a33cd29b6ba820251110124420"> <linearGradient x1="22" y1="2.8580501" x2="14.9662" y2="10.3091" gradientUnits="userSpaceOnUse" gradientTransform="scale(3.125)" spreadMethod="pad" id="I7284090eee7c4e4ea44681473772593620251110124420"> <stop style="stop-opacity:1;stop-color:#52d17c" offset="0" id="I1624e22e7afd42a18b042347b933369620251110124420" /> <stop style="stop-opacity:1;stop-color:#1a7f7c" offset="1" id="Iffae1bbd7ac24b0399c6c77513982a7020251110124420" /> </linearGradient> <linearGradient x1="2" y1="4.5991302" x2="9.0636196" y2="9.2744598" gradientUnits="userSpaceOnUse" gradientTransform="scale(3.125)" spreadMethod="pad" id="Ia08bd5108b3e41789026ddcdbec6ec1d20251110124420"> <stop style="stop-opacity:1;stop-color:#52d17c" offset="0" id="I4450b17623d94b2aabcce72996ef2a6420251110124420" /> <stop style="stop-opacity:1;stop-color:#1a7f7c" offset="1" id="I9efbab1d2bff45c4a59494120adef43c20251110124420" /> </linearGradient> <linearGradient x1="12" y1="0.55877298" x2="15.6396" y2="12.4053" gradientUnits="userSpaceOnUse" gradientTransform="scale(3.125)" spreadMethod="pad" id="I9ca822930e284c04bf9d6ef4205ae7d720251110124420"> <stop style="stop-opacity:1;stop-color:#76eb95" offset="0" id="I39e759c55f42414ebb2213b38b9f872720251110124420" /> <stop style="stop-opacity:1;stop-color:#1ec8b0" offset="1" id="I29a873c256dd417c9d4a5092d0d2dade20251110124420" /> </linearGradient> <radialGradient fx="0" fy="0" cx="0" cy="0" r="1" gradientUnits="userSpaceOnUse" gradientTransform="matrix(95.982056,145.64738,-124.74023,82.20418,-45.647188,-71.875)" spreadMethod="pad" id="I5a432c2650234508bc791c3938e2db6220251110124420"> <stop style="stop-opacity:1;stop-color:#ffcd0f" offset="0" id="I70eb3101ecd3436daa8256a2f2eec77120251110124420" /> <stop style="stop-opacity:1;stop-color:#ffcd0f" offset="0.771547" id="I339e24bde9754737b75da9632ff1832220251110124420" /> <stop style="stop-opacity:1;stop-color:#e67505" offset="0.990707" id="I3eb6fea4c94a400e8e2102759e3a9f4c20251110124420" /> <stop style="stop-opacity:1;stop-color:#e67505" offset="1" id="I49883117c24a4d69800aa95b5293bc7020251110124420" /> </radialGradient> </defs> <g id="Icdc63be1c16c42ccb4540c4af90b9e1420251110124420"> <path id="I4497b449e9f747c09dbc375546ee168220251110124420" d="m 50,36.406 14.57,-7.648 c 2.571,-1.352 4.18,-4.016 4.18,-6.918 V 11.719 C 68.75,8.699 66.301,6.25 63.281,6.25 H 50 l -3.125,15.625 z" transform="scale(1.3333333)" style="fill:url(#I7284090eee7c4e4ea44681473772593620251110124420);stroke:none" /> <path id="Ia4d8da4dc2c64b5aab0a97a24b34ea4820251110124420" d="M 25,6.25 H 11.719 C 8.699,6.25 6.25,8.699 6.25,11.719 V 21.84 c 0,2.902 1.609,5.566 4.18,6.918 L 25,36.406 28.125,21.84 Z" transform="scale(1.3333333)" style="fill:url(#Ia08bd5108b3e41789026ddcdbec6ec1d20251110124420);stroke:none" /> <path id="I96d877897cda44a793ebc8bc6b90983920251110124420" d="M 25,36.406 V 6.25 h 25 v 30.156 l -9.957,5.227 c -1.594,0.836 -3.492,0.836 -5.086,0 z" transform="scale(1.3333333)" style="fill:url(#I9ca822930e284c04bf9d6ef4205ae7d720251110124420);stroke:none" /> <path id="Ib934d0d7229f490096efa2afd8c1e69d20251110124420" d="m 53.125,53.125 c 0,8.629 -6.996,15.625 -15.625,15.625 -8.629,0 -15.625,-6.996 -15.625,-15.625 0,-8.629 6.996,-15.625 15.625,-15.625 8.629,0 15.625,6.996 15.625,15.625 z" transform="scale(1.3333333)" style="fill:url(#I5a432c2650234508bc791c3938e2db6220251110124420);stroke:none" /> </g>
</svg>

