<?xml version="1.0" encoding="UTF-8" standalone="no"?> <svg version="1.1" id="Ie39b3a347eb341509ad1c0325060974720251106151526" width="100" height="100" viewBox="0 0 100 100" xmlns="http://www.w3.org/2000/svg" xmlns:svg="http://www.w3.org/2000/svg"> <defs id="I10ef0967c0c745e484fdcf41a7feb8fa20251106151526" /> <g id="I0a370a5ed3fd4b898c9870506d8dc3c820251106151526"> <path id="I37128f88d3ff4b54902746be15717b9820251106151526" d="M 42.969,6.25 H 32.031 c -3.617,0 -6.597,2.734 -6.988,6.25 h -5.512 c -3.883,0 -7.031,3.148 -7.031,7.031 v 42.188 c 0,3.883 3.148,7.031 7.031,7.031 h 35.938 c 3.883,0 7.031,-3.148 7.031,-7.031 V 19.531 C 62.5,15.648 59.352,12.5 55.469,12.5 H 49.957 C 49.566,8.984 46.586,6.25 42.969,6.25 Z m -10.938,4.688 h 10.938 c 1.293,0 2.343,1.05 2.343,2.343 0,1.293 -1.05,2.344 -2.343,2.344 H 32.031 c -1.293,0 -2.343,-1.051 -2.343,-2.344 0,-1.293 1.05,-2.343 2.343,-2.343 z M 54,27.25 c 0.918,0.914 0.918,2.398 0,3.312 l -6.25,6.25 c -0.914,0.918 -2.398,0.918 -3.312,0 l -3.126,-3.124 c -0.917,-0.915 -0.917,-2.399 0,-3.313 0.915,-0.918 2.399,-0.918 3.313,0 l 1.469,1.465 4.594,-4.59 c 0.914,-0.918 2.398,-0.918 3.312,0 z m 0,20.5 -6.25,6.25 c -0.914,0.918 -2.398,0.918 -3.312,0 l -3.126,-3.125 c -0.917,-0.914 -0.917,-2.398 0,-3.313 0.915,-0.917 2.399,-0.917 3.313,0 l 1.469,1.465 4.594,-4.589 c 0.914,-0.918 2.398,-0.918 3.312,0 0.918,0.914 0.918,2.398 0,3.312 z M 21.875,32.031 c 0,-1.293 1.051,-2.343 2.344,-2.343 h 10.937 c 1.293,0 2.344,1.05 2.344,2.343 0,1.293 -1.051,2.344 -2.344,2.344 H 24.219 c -1.293,0 -2.344,-1.051 -2.344,-2.344 z m 2.344,14.844 h 10.937 c 1.293,0 2.344,1.051 2.344,2.344 0,1.293 -1.051,2.343 -2.344,2.343 H 24.219 c -1.293,0 -2.344,-1.05 -2.344,-2.343 0,-1.293 1.051,-2.344 2.344,-2.344 z" style="fill:currentColor;fill-opacity:1;fill-rule:nonzero;stroke:none" transform="scale(1.3333333)" /> </g>
</svg>

