<?xml version="1.0" encoding="UTF-8" standalone="no"?>
<!-- Created with Inkscape (http://www.inkscape.org/) -->

<svg
   version="1.1"
   id="I83abb3164c654a7bafc28f31e9927fb720251030195519"
   width="100"
   height="100"
   viewBox="0 0 100 100"
   sodipodi:docname="output.ai"
   xmlns:inkscape="http://www.inkscape.org/namespaces/inkscape"
   xmlns:sodipodi="http://sodipodi.sourceforge.net/DTD/sodipodi-0.dtd"
   xmlns="http://www.w3.org/2000/svg"
   xmlns:svg="http://www.w3.org/2000/svg">
  <defs
     id="I81d78a93e0a3479387a6b8b2b299a9c120251030195519" />
  <sodipodi:namedview
     id="If904a84b2aec42cb9eefc7a1a241c73520251030195519"
     pagecolor="#ffffff"
     bordercolor="#000000"
     borderopacity="0.25"
     inkscape:showpageshadow="2"
     inkscape:pageopacity="0.0"
     inkscape:pagecheckerboard="0"
     inkscape:deskcolor="#d1d1d1">
    <inkscape:page
       x="0"
       y="0"
       inkscape:label="1"
       id="I731c9da8ba044ec08d71c2fb6194facf20251030195519"
       width="100"
       height="100"
       margin="0"
       bleed="0" />
  </sodipodi:namedview>
  <g
     id="I7e98693a2a9445f5aeb5dda46299afcb20251030195519"
     inkscape:groupmode="layer"
     inkscape:label="1">
    <path
       id="Ide532b7eb60d48aab84f3f0baa782f5a20251030195519"
       d="m 10.938,19.531 c 0,-3.019 2.449,-5.469 5.468,-5.469 h 8.996 c 0.621,0 1.219,0.247 1.657,0.688 l 6.441,6.438 c 0.438,0.441 1.035,0.687 1.656,0.687 h 17.188 c 3.019,0 5.468,2.449 5.468,5.469 0,0.269 0.047,0.527 0.129,0.765 H 27.246 c -4.187,0 -8.055,2.235 -10.148,5.86 l -6.16,10.672 z M 6.25,55.59 c 0.066,5.551 4.586,10.035 10.156,10.035 h 17.969 c 0.09,0 0.18,-0.004 0.27,-0.016 h 16.234 c 4.187,0 8.055,-2.234 10.148,-5.859 L 70.5,43.344 C 74.297,36.77 69.793,28.594 62.363,28.133 62.453,27.887 62.5,27.621 62.5,27.344 62.5,21.734 57.953,17.188 52.344,17.188 H 36.129 L 30.375,11.434 C 29.055,10.117 27.266,9.375 25.402,9.375 H 16.406 C 10.797,9.375 6.25,13.922 6.25,19.531 v 35.813 c 0,0.082 0,0.164 0,0.246 z M 27.246,32.797 h 34.457 c 4.211,0 6.84,4.558 4.735,8.203 l -9.469,16.406 c -1.258,2.176 -3.578,3.516 -6.09,3.516 H 16.422 c -4.211,0 -6.84,-4.559 -4.738,-8.203 l 9.472,-16.407 c 1.258,-2.171 3.578,-3.515 6.09,-3.515 z"
       style="fill:#212121;fill-opacity:1;fill-rule:nonzero;stroke:none"
       transform="scale(1.3333333)" />
  </g>
</svg>

