<?xml version="1.0" encoding="UTF-8" standalone="no"?> <svg version="1.1" id="I04dadb96468d41cc8c9a76e0c80b927620251106103256" width="100" height="100" viewBox="0 0 100 100" xmlns="http://www.w3.org/2000/svg" xmlns:svg="http://www.w3.org/2000/svg"> <defs id="I74ef0095ac714fba8542e8e4557fa8a520251106103256" /> <g id="I2444c867d53546f5a2c6b8deba86838720251106103256"> <path id="I1fd6f22e6aab440bac11b6446d70e5c320251106103256" d="M 72.32,8.035 H 2.68 C 1.195,8.035 0,9.234 0,10.715 v 53.57 c 0,1.481 1.195,2.68 2.68,2.68 h 69.64 c 1.485,0 2.68,-1.199 2.68,-2.68 V 10.715 C 75,9.234 73.805,8.035 72.32,8.035 Z M 68.973,60.938 H 6.027 v -3.34 L 17.621,43.844 30.184,58.746 49.73,35.574 68.973,58.395 Z m 0,-10.864 -18.735,-22.219 c -0.265,-0.316 -0.75,-0.316 -1.019,0 L 30.184,50.426 18.129,36.137 c -0.266,-0.321 -0.75,-0.321 -1.02,0 L 6.027,49.277 V 14.062 H 68.973 Z M 20.09,32.812 c 4.066,0 7.367,-3.296 7.367,-7.367 0,-4.066 -3.301,-7.363 -7.367,-7.363 -4.07,0 -7.367,3.297 -7.367,7.363 0,4.071 3.297,7.367 7.367,7.367 z m 0,-9.71 c 1.297,0 2.344,1.046 2.344,2.343 0,1.297 -1.047,2.344 -2.344,2.344 -1.297,0 -2.344,-1.047 -2.344,-2.344 0,-1.297 1.047,-2.343 2.344,-2.343 z" style="fill:currentColor;fill-opacity:1;fill-rule:nonzero;stroke:none" transform="scale(1.3333333)" /> </g>
</svg>

