<?xml version="1.0" encoding="UTF-8" standalone="no"?> <svg version="1.1" id="Ie82b82f219c34b858cc9923ea087204020251110124421" width="100" height="100" viewBox="0 0 100 100" xmlns="http://www.w3.org/2000/svg" xmlns:svg="http://www.w3.org/2000/svg"> <defs id="I1b3b6312c087482a971bdf1d70de2af220251110124421" /> <g id="I354690f071074135ae1e8a8fa6ae9d3f20251110124421"> <path id="I7e3f60d9d594415ead55e0863abc11f820251110124421" d="M 16.406,6.25 C 10.797,6.25 6.25,10.797 6.25,16.406 v 25 c 0,0.313 0.016,0.625 0.043,0.93 0.145,1.605 0.664,3.102 1.469,4.402 0.07,0.117 0.144,0.231 0.222,0.348 0.809,1.195 1.864,2.207 3.09,2.965 1.301,0.804 2.801,1.324 4.403,1.469 l 0.019,0.003 c 0.301,0.024 0.602,0.039 0.91,0.039 h 7.032 v 7.032 c 0,1.222 0.214,2.398 0.613,3.484 0.496,1.36 1.277,2.586 2.265,3.602 0.032,0.031 0.063,0.062 0.098,0.093 1.102,1.106 2.461,1.957 3.977,2.461 1.007,0.336 2.086,0.516 3.203,0.516 h 25 c 5.609,0 10.156,-4.547 10.156,-10.156 v -25 c 0,-1.117 -0.18,-2.196 -0.516,-3.203 -0.031,-0.098 -0.066,-0.192 -0.101,-0.289 -0.528,-1.442 -1.375,-2.731 -2.453,-3.786 -1.016,-0.988 -2.242,-1.769 -3.602,-2.265 -0.074,-0.028 -0.152,-0.055 -0.226,-0.078 -1.024,-0.348 -2.118,-0.535 -3.258,-0.535 h -7.032 v -7.032 c 0,-0.312 -0.015,-0.621 -0.042,-0.929 C 51.375,13.875 50.855,12.375 50.051,11.074 49.98,10.957 49.906,10.844 49.828,10.727 49.02,9.531 47.965,8.52 46.738,7.762 45.438,6.957 43.941,6.438 42.336,6.293 42.328,6.293 42.324,6.289 42.316,6.289 42.016,6.262 41.715,6.25 41.406,6.25 Z m 2.156,4.688 -7.624,7.624 v -2.156 c 0,-3.019 2.449,-5.468 5.468,-5.468 z M 10.938,25.191 25.191,10.938 h 5.871 L 10.938,31.062 Z M 37.691,10.938 h 3.715 c 0.645,0 1.262,0.113 1.84,0.316 L 11.254,43.246 c -0.203,-0.578 -0.316,-1.195 -0.316,-1.84 v -3.715 z m 8.868,3.632 c 0.203,0.575 0.316,1.192 0.316,1.836 v 3.719 l -26.75,26.75 h -3.719 c -0.644,0 -1.261,-0.113 -1.836,-0.316 z m 0.328,12.172 c 0.086,0.778 0.75,1.383 1.551,1.383 h 2.937 l -23.25,23.25 v -2.937 c 0,-0.801 -0.605,-1.465 -1.383,-1.551 z m 11.117,1.383 h 0.59 c 1.461,0 2.789,0.574 3.769,1.508 l -32.73,32.73 c -0.934,-0.98 -1.508,-2.308 -1.508,-3.769 v -0.59 z m 6.058,6.441 v 5.872 L 40.438,64.062 h -5.872 z m 0,12.5 v 5.872 L 52.938,64.062 h -5.872 z m -0.105,12.606 c -0.43,2.156 -2.129,3.855 -4.285,4.285 z" style="fill:currentColor;fill-opacity:1;fill-rule:nonzero;stroke:none" transform="scale(1.3333333)" /> </g>
</svg>

