<?xml version="1.0" encoding="UTF-8" standalone="no"?> <svg version="1.1" id="I138952eb1b1b415bbeb1b3817a32cc5320251110123029" width="100" height="100" viewBox="0 0 100 100" xmlns="http://www.w3.org/2000/svg" xmlns:svg="http://www.w3.org/2000/svg"> <defs id="I896c4fb62684483495c06241a27a25b620251110123029" /> <g id="I6c2ac519ec7c4f029fc0e959ff94d00520251110123029"> <path id="I17f56abb220d42fd952c08937e8b30a020251110123029" d="M 16.406,12.5 C 10.797,12.5 6.25,17.047 6.25,22.656 v 29.688 c 0,5.609 4.547,10.156 10.156,10.156 h 18.59 c 0.254,-0.488 0.586,-0.938 0.981,-1.332 l 3.355,-3.356 h -9.644 v -25 h 34.374 v 1.911 c 1.7,0.386 3.282,1.082 4.688,2.019 V 22.656 C 68.75,17.047 64.203,12.5 58.594,12.5 Z M 64.062,28.125 H 29.688 V 17.188 h 28.906 c 3.019,0 5.468,2.449 5.468,5.468 z M 25,17.188 v 40.624 h -8.594 c -3.019,0 -5.468,-2.449 -5.468,-5.468 V 22.656 c 0,-3.019 2.449,-5.468 5.468,-5.468 z m 35.938,42.187 c 6.039,0 10.937,-4.898 10.937,-10.937 C 71.875,42.398 66.977,37.5 60.938,37.5 54.898,37.5 50,42.398 50,48.438 c 0,0.988 0.133,1.945 0.375,2.855 -0.168,0.098 -0.324,0.219 -0.469,0.363 L 38.188,63.375 C 37.746,63.816 37.5,64.41 37.5,65.035 v 4.496 c 0,1.293 1.051,2.344 2.344,2.344 h 5.468 c 0.864,0 1.563,-0.699 1.563,-1.563 V 68.75 H 50 c 0.863,0 1.562,-0.699 1.562,-1.562 v -3.126 h 3.126 c 0.863,0 1.562,-0.699 1.562,-1.562 v -3.125 z m 4.687,-12.5 c 0,1.727 -1.398,3.125 -3.125,3.125 -1.727,0 -3.125,-1.398 -3.125,-3.125 0,-1.727 1.398,-3.125 3.125,-3.125 1.727,0 3.125,1.398 3.125,3.125 z" style="fill:currentColor;fill-opacity:1;fill-rule:nonzero;stroke:none" transform="scale(1.3333333)" /> </g>
</svg>

