<?xml version="1.0" encoding="UTF-8" standalone="no"?> <svg version="1.1" id="I77678bf996ac41dd81910823adfb664f20251106142135" width="100" height="100" viewBox="0 0 100 100" xmlns="http://www.w3.org/2000/svg" xmlns:svg="http://www.w3.org/2000/svg"> <defs id="I3564f6d2447140a9b470ab4247772fa920251106142135" /> <g id="Ib3ed9599cb3c4a62a707e337abf690a620251106142135"> <path id="Ia65a8ce03d0d4f739e180f93c0cc375020251106142135" d="m 39.508,12.723 c 0,-1.11 -0.903,-2.008 -2.012,-2.008 -1.109,0 -2.008,0.898 -2.008,2.008 v 4.007 c 0,1.11 0.899,2.008 2.008,2.008 1.109,0 2.012,-0.898 2.012,-2.008 z M 53.57,37.5 c 0,8.875 -7.195,16.07 -16.074,16.07 -8.875,0 -16.07,-7.195 -16.07,-16.07 0,-8.875 7.195,-16.07 16.07,-16.07 8.879,0 16.074,7.195 16.074,16.07 z m -4.019,0 c 0,-6.656 -5.395,-12.055 -12.055,-12.055 v 24.11 c 6.66,0 12.055,-5.399 12.055,-12.055 z m 14.734,0 c 0,1.109 -0.902,2.008 -2.012,2.008 h -4.007 c -1.11,0 -2.008,-0.899 -2.008,-2.008 0,-1.109 0.898,-2.008 2.008,-2.008 h 4.007 c 1.11,0 2.012,0.899 2.012,2.008 z M 39.508,58.27 c 0,-1.11 -0.903,-2.008 -2.012,-2.008 -1.109,0 -2.008,0.898 -2.008,2.008 v 4.007 c 0,1.11 0.899,2.008 2.008,2.008 1.109,0 2.012,-0.898 2.012,-2.008 z M 18.746,37.5 c 0,1.109 -0.898,2.008 -2.008,2.008 h -4.015 c -1.11,0 -2.008,-0.899 -2.008,-2.008 0,-1.109 0.898,-2.008 2.008,-2.008 h 4.015 c 1.11,0 2.008,0.899 2.008,2.008 z M 20.836,18 c -0.781,-0.785 -2.055,-0.785 -2.84,0 -0.785,0.785 -0.785,2.055 0,2.84 l 2.68,2.68 c 0.785,0.785 2.054,0.785 2.84,0 0.785,-0.786 0.785,-2.059 0,-2.844 z m -2.84,39 c 0.785,0.785 2.059,0.785 2.84,0 l 2.68,-2.68 c 0.785,-0.781 0.785,-2.054 0,-2.84 -0.786,-0.785 -2.055,-0.785 -2.84,0 l -2.68,2.68 c -0.785,0.785 -0.785,2.055 0,2.84 z m 36.16,-39 c 0.785,-0.785 2.059,-0.785 2.844,0 0.781,0.785 0.781,2.055 0,2.84 l -2.68,2.68 c -0.785,0.785 -2.058,0.785 -2.84,0 -0.785,-0.786 -0.785,-2.059 0,-2.844 z M 57,57 c -0.785,0.785 -2.059,0.785 -2.844,0 l -2.648,-2.648 c -0.781,-0.782 -0.781,-2.055 0,-2.84 0.785,-0.785 2.058,-0.785 2.844,0 L 57,54.16 c 0.781,0.785 0.781,2.055 0,2.84 z" style="fill:currentColor;fill-opacity:1;fill-rule:nonzero;stroke:none" transform="scale(1.3333333)" /> </g>
</svg>

