<?xml version="1.0" encoding="UTF-8" standalone="no"?> <svg version="1.1" id="I99b2d810971540bbb3e33018e685070120251106165302" width="100" height="100" viewBox="0 0 100 100" xmlns="http://www.w3.org/2000/svg" xmlns:svg="http://www.w3.org/2000/svg"> <defs id="I6287384e9ecf4f9cb1d9222373f138e520251106165302" /> <g id="Ic73d9ffd175f4873b39e419138092ccc20251106165302"> <path id="I4fc96c6926ea4d7cac7417ba52b056df20251106165302" d="m 37.5,8.035 c 1.109,0 2.008,0.899 2.008,2.008 v 54.914 c 0,1.109 -0.899,2.008 -2.008,2.008 -1.109,0 -2.008,-0.899 -2.008,-2.008 V 10.043 c 0,-1.109 0.899,-2.008 2.008,-2.008 z m -15.402,16.07 c 4.07,0 7.367,3.301 7.367,7.368 v 12.054 c 0,4.067 -3.297,7.368 -7.367,7.368 H 10.043 C 5.977,50.895 2.68,47.594 2.68,43.527 V 31.473 c 0,-4.067 3.297,-7.368 7.363,-7.368 z m 42.859,0 c 4.066,0 7.363,3.301 7.363,7.368 v 12.054 c 0,4.067 -3.297,7.368 -7.363,7.368 H 52.902 c -4.07,0 -7.367,-3.301 -7.367,-7.368 V 31.473 c 0,-4.067 3.297,-7.368 7.367,-7.368 z" style="fill:currentColor;fill-opacity:1;fill-rule:nonzero;stroke:none" transform="scale(1.3333333)" /> </g>
</svg>

