<?xml version="1.0" encoding="UTF-8" standalone="no"?> <svg version="1.1" id="I50d194d9a54348438b358a1fab5a273220251110123030" width="100" height="100" viewBox="0 0 100 100" xmlns="http://www.w3.org/2000/svg" xmlns:svg="http://www.w3.org/2000/svg"> <defs id="I159c2371e6b54f66b5736f612ac4f27b20251110123030" /> <g id="Ia1eaf967766447a7b6fa4334459a54b520251110123030"> <path id="Ic151e7e6d33b42b984952f2c115876de20251110123030" d="M 28.633,31.473 5.945,8.785 C 5.16,8.004 5.16,6.73 5.945,5.945 6.73,5.16 8.004,5.16 8.785,5.945 l 60.27,60.27 c 0.785,0.785 0.785,2.055 0,2.84 -0.785,0.785 -2.059,0.785 -2.844,0 L 43.527,46.367 26.957,62.941 c -1.184,1.18 -2.645,2.036 -4.254,2.485 l -14.797,4.14 c -0.699,0.2 -1.449,0 -1.961,-0.511 C 5.434,68.539 5.234,67.789 5.43,67.094 L 9.574,52.293 c 0.449,-1.605 1.305,-3.07 2.485,-4.25 z M 40.684,43.527 31.473,34.312 14.902,50.887 c -0.691,0.691 -1.195,1.551 -1.457,2.492 l -3.183,11.355 11.359,-3.179 c 0.941,-0.262 1.801,-0.766 2.492,-1.457 z m -6.368,-17.738 2.84,2.84 17.352,-17.352 c 2.543,-2.543 6.668,-2.543 9.211,0 2.547,2.543 2.547,6.668 0,9.215 l -17.352,17.352 2.844,2.84 10.383,-10.387 c 1.707,1.84 1.664,4.711 -0.125,6.5 l -5.309,5.308 c -0.785,0.786 -0.785,2.059 0,2.84 0.785,0.785 2.055,0.785 2.84,0 l 5.309,-5.308 c 3.359,-3.356 3.402,-8.774 0.129,-12.18 l 4.124,-4.125 c 4.114,-4.113 4.114,-10.781 0,-14.894 -4.113,-4.114 -10.781,-4.114 -14.894,0 z" style="fill:currentColor;fill-opacity:1;fill-rule:nonzero;stroke:none" transform="scale(1.3333333)" /> </g>
</svg>

