<?xml version="1.0" encoding="UTF-8" standalone="no"?> <svg version="1.1" id="I6f3e5aee0f7f4f24bd48c458c05afdf020251106170956" width="100" height="100" viewBox="0 0 100 100" xmlns="http://www.w3.org/2000/svg" xmlns:svg="http://www.w3.org/2000/svg"> <defs id="I81c805f4c8fc4005820f4e7ecec86a9920251106170956"> <linearGradient x1="15.5391" y1="10.9503" x2="20.822599" y2="21.000601" gradientUnits="userSpaceOnUse" gradientTransform="scale(2.678571)" spreadMethod="pad" id="I55cbaff42922448b9456d75f257aee1d20251106170956"> <stop style="stop-opacity:0;stop-color:#0094f0" offset="0" id="Ia696ce601e3749869d778c6b7c51b7f520251106170956" /> <stop style="stop-opacity:0;stop-color:#0094f0" offset="0.22807" id="I916d0ec8147348f48888b05e0be79bb220251106170956" /> <stop style="stop-opacity:1;stop-color:#0094f0" offset="0.430619" id="I896550ef63d34353b263d1a4c6be19ab20251106170956" /> <stop style="stop-opacity:1;stop-color:#0094f0" offset="1" id="Ib3abde7652594308938dd6f9521f3c7720251106170956" /> </linearGradient> <linearGradient x1="10.1429" y1="9.8157797" x2="4.2877402" y2="21.6217" gradientUnits="userSpaceOnUse" gradientTransform="scale(2.678571)" spreadMethod="pad" id="I360bd9e8b3c8409e98484a45fd546cdf20251106170956"> <stop style="stop-opacity:0;stop-color:#0094f0" offset="0" id="I646bb3dec95d4f6b8e3db19174405c0620251106170956" /> <stop style="stop-opacity:0;stop-color:#0094f0" offset="0.22807" id="I1d993ad8321645d5a85e5df0529ed3e020251106170956" /> <stop style="stop-opacity:1;stop-color:#0094f0" offset="0.430619" id="I02d9b4f923df4b84aef09c319a8bd12920251106170956" /> <stop style="stop-opacity:1;stop-color:#0094f0" offset="1" id="I6591018bbf3a4647a850184ac41c685020251106170956" /> </linearGradient> <linearGradient x1="17.8438" y1="14.75" x2="19.083" y2="22.1642" gradientUnits="userSpaceOnUse" gradientTransform="scale(2.678571)" spreadMethod="pad" id="Ib042595fdeb6430b9bda8643d02e452b20251106170956"> <stop style="stop-opacity:0;stop-color:#2764e7" offset="0" id="I70dfed4d63834d5db13bba16df83506820251106170956" /> <stop style="stop-opacity:0.75001144;stop-color:#2764e7" offset="1" id="Ib72348c371f646e4a239e345b6e4a7ca20251106170956" /> </linearGradient> <linearGradient x1="16.0952" y1="10.0351" x2="17.681101" y2="22.6434" gradientUnits="userSpaceOnUse" gradientTransform="scale(2.678571)" spreadMethod="pad" id="Ia98b2197102847ae811b2c564b09fbc020251106170956"> <stop style="stop-opacity:0;stop-color:#dd3ce2" offset="0" id="I4a5cb81fde27490c8c9b0d2b950c228520251106170956" /> <stop style="stop-opacity:0;stop-color:#dd3ce2" offset="0.53288" id="Ifb2898ad9b7344118f016c17582c9b9020251106170956" /> <stop style="stop-opacity:0.70000763;stop-color:#dd3ce2" offset="1" id="I096e2ab094f3400aa4da45ad6ad85d0b20251106170956" /> </linearGradient> <linearGradient x1="8.9416103" y1="2.15063" x2="14.98" y2="18.0891" gradientUnits="userSpaceOnUse" gradientTransform="scale(2.678571)" spreadMethod="pad" id="Iccaaab7c2a3342fbb49dbe46b8bcba2320251106170956"> <stop style="stop-opacity:1;stop-color:#6ce0ff" offset="0" id="I10973f591ac24051993fd7e53888f66d20251106170956" /> <stop style="stop-opacity:1;stop-color:#29c3ff" offset="0.461792" id="I02fd6d2c35de4e8eb03fec28cb265fb420251106170956" /> <stop style="stop-opacity:1;stop-color:#4894fe" offset="1" id="Ibe0e7eaf12984f70a0164142988ced5020251106170956" /> </linearGradient> </defs> <g id="Iee23e5fb268245b6b19bc89067daeed620251106170956"> <path id="I0f0ad305d9714730a04e844ac266980920251106170956" d="m 14.73,20.09 h 44.868 c 4.808,0 8.707,3.898 8.707,8.703 v 20.09 c 0,7.769 -6.297,14.062 -14.063,14.062 H 23.438 c -4.809,0 -8.708,-3.894 -8.708,-8.703 z" style="fill:#1b44b1;fill-opacity:1;fill-rule:nonzero;stroke:none" transform="scale(1.3333333)" /> <path id="Ic53e7cba23aa4af98315dcd5755c26cc20251106170956" d="m 61.605,22.77 v 24.773 c 0,4.645 -3.632,8.437 -8.21,8.691 l -0.493,0.016 h -36.16 c -4.644,0 -8.437,-3.633 -8.691,-8.211 L 8.035,47.543 V 22.77 l 25.856,13.542 c 0.582,0.305 1.277,0.305 1.863,0 z" style="fill:#367af2;fill-opacity:1;fill-rule:nonzero;stroke:none" transform="scale(1.3333333)" /> <path d="m 61.605,22.77 v 24.773 c 0,4.645 -3.632,8.437 -8.21,8.691 l -0.493,0.016 h -36.16 c -4.644,0 -8.437,-3.633 -8.691,-8.211 L 8.035,47.543 V 22.77 l 25.856,13.542 c 0.582,0.305 1.277,0.305 1.863,0 z" transform="scale(1.3333333)" style="fill:url(#I55cbaff42922448b9456d75f257aee1d20251106170956);stroke:none" opacity="1" id="I226261939db24ea995f34f4f70f3c9c620251106170956" /> <path d="m 61.605,22.77 v 24.773 c 0,4.645 -3.632,8.437 -8.21,8.691 l -0.493,0.016 h -36.16 c -4.644,0 -8.437,-3.633 -8.691,-8.211 L 8.035,47.543 V 22.77 l 25.856,13.542 c 0.582,0.305 1.277,0.305 1.863,0 z" transform="scale(1.3333333)" style="fill:url(#I360bd9e8b3c8409e98484a45fd546cdf20251106170956);stroke:none" opacity="1" id="Id710488946f64c6c83e0b8092dc2fb5420251106170956" /> <path d="m 61.605,22.77 v 24.773 c 0,4.645 -3.632,8.437 -8.21,8.691 l -0.493,0.016 h -36.16 c -4.644,0 -8.437,-3.633 -8.691,-8.211 L 8.035,47.543 V 22.77 l 25.856,13.542 c 0.582,0.305 1.277,0.305 1.863,0 z" transform="scale(1.3333333)" style="fill:url(#Ib042595fdeb6430b9bda8643d02e452b20251106170956);stroke:none" opacity="1" id="I6b58fb02a22645158f0996a623073f0b20251106170956" /> <path d="m 61.605,22.77 v 24.773 c 0,4.645 -3.632,8.437 -8.21,8.691 l -0.493,0.016 h -36.16 c -4.644,0 -8.437,-3.633 -8.691,-8.211 L 8.035,47.543 V 22.77 l 25.856,13.542 c 0.582,0.305 1.277,0.305 1.863,0 z" transform="scale(1.3333333)" style="fill:url(#Ia98b2197102847ae811b2c564b09fbc020251106170956);stroke:none" opacity="1" id="Ia516541b70ef486182453a54c779ef1220251106170956" /> <path id="I252900dd5bab44069ee0f2e3647a9b7920251106170956" d="m 52.902,13.395 c 4.352,0 7.957,3.191 8.602,7.363 0.023,0.152 0.043,0.308 0.058,0.465 0.016,0.129 0.024,0.254 0.032,0.382 l 0.011,0.493 V 23.73 L 35.754,37.277 c -0.586,0.305 -1.281,0.305 -1.863,0 L 8.035,23.73 v -1.632 c 0,-0.293 0.016,-0.586 0.043,-0.875 0.418,-4.18 3.797,-7.493 8.008,-7.805 0.055,-0.004 0.109,-0.008 0.16,-0.012 l 0.496,-0.011 z" transform="scale(1.3333333)" style="fill:url(#Iccaaab7c2a3342fbb49dbe46b8bcba2320251106170956);stroke:none" /> </g>
</svg>

