<?xml version="1.0" encoding="UTF-8" standalone="no"?> <svg version="1.1" id="I911ef9d96d844146a7a668430d76154520251106103256" width="100" height="100" viewBox="0 0 100 100" xmlns="http://www.w3.org/2000/svg" xmlns:svg="http://www.w3.org/2000/svg"> <defs id="Ic9c356bba64d4eb28b3f3ad933b5402520251106103256" /> <g id="Iaa58f91bc4774aeeb5cd3b88a02be6cb20251106103256"> <path id="I7d5930c43151428893b487240e7a715120251106103256" d="M 61.02,14.898 H 25.277 V 8.707 c 0,-0.562 -0.644,-0.871 -1.078,-0.527 l -11.887,9.375 c -0.343,0.265 -0.343,0.785 0,1.054 l 11.887,9.375 c 0.434,0.34 1.078,0.032 1.078,-0.527 v -6.195 h 34.739 v 39.34 H 9.293 c -0.371,0 -0.672,0.3 -0.672,0.671 v 5.02 c 0,0.371 0.301,0.672 0.672,0.672 H 61.02 c 2.957,0 5.359,-2.403 5.359,-5.36 V 20.258 c 0,-2.957 -2.402,-5.36 -5.359,-5.36 z" style="fill:currentColor;fill-opacity:1;fill-rule:nonzero;stroke:none" transform="scale(1.3333333)" /> </g>
</svg>

