<?xml version="1.0" encoding="UTF-8" standalone="no"?> <svg version="1.1" id="I3ca32a39da7343dc8c9e14db151eee3a20251110124419" width="100" height="100" viewBox="0 0 100 100" xmlns="http://www.w3.org/2000/svg" xmlns:svg="http://www.w3.org/2000/svg"> <defs id="I775cefeb21fb44d1b0afef4fbe3346b720251110124419" /> <g id="I181e5a0cade9423690a2ead4607af8e720251110124419"> <path id="I3f2f850cbf3e4e01810b6fede64a44ce20251110124419" d="m 14.137,19.531 c 0,-1.293 1.051,-2.343 2.343,-2.343 h 42.051 c 1.293,0 2.344,1.05 2.344,2.343 v 10.938 c 0,1.293 -1.051,2.343 -2.344,2.343 H 16.48 c -1.292,0 -2.343,-1.05 -2.343,-2.343 z m 4.687,2.344 v 6.25 h 37.364 v -6.25 z m 25.645,15.559 c -1.297,0 -2.344,1.05 -2.344,2.343 V 53.84 c 0,1.297 1.047,2.344 2.344,2.344 h 14.062 c 1.293,0 2.344,-1.047 2.344,-2.344 V 39.777 c 0,-1.293 -1.051,-2.343 -2.344,-2.343 z m 2.343,14.062 v -9.375 h 9.376 v 9.375 z M 14.137,41.406 c 0,-1.293 1.051,-2.344 2.343,-2.344 h 18.676 c 1.293,0 2.344,1.051 2.344,2.344 0,1.293 -1.051,2.344 -2.344,2.344 H 16.48 c -1.292,0 -2.343,-1.051 -2.343,-2.344 z M 16.48,50 c -1.292,0 -2.343,1.051 -2.343,2.344 0,1.293 1.051,2.344 2.343,2.344 h 18.676 c 1.293,0 2.344,-1.051 2.344,-2.344 C 37.5,51.051 36.449,50 35.156,50 Z M 6.25,17.969 c 0,-4.746 3.848,-8.594 8.594,-8.594 h 45.312 c 4.746,0 8.594,3.848 8.594,8.594 v 39.062 c 0,4.746 -3.848,8.594 -8.594,8.594 H 14.844 c -4.746,0 -8.594,-3.848 -8.594,-8.594 z m 8.594,-3.907 c -2.156,0 -3.906,1.75 -3.906,3.907 v 39.062 c 0,2.157 1.75,3.907 3.906,3.907 h 45.312 c 2.156,0 3.906,-1.75 3.906,-3.907 V 17.969 c 0,-2.157 -1.75,-3.907 -3.906,-3.907 z" style="fill:currentColor;fill-opacity:1;fill-rule:nonzero;stroke:none" transform="scale(1.3333333)" /> </g>
</svg>

