<?xml version="1.0" encoding="UTF-8" standalone="no"?> <svg version="1.1" id="I6a3d8a1a49c74dd189889aee8a0b830b20251110123031" width="100" height="100" viewBox="0 0 100 100" xmlns="http://www.w3.org/2000/svg" xmlns:svg="http://www.w3.org/2000/svg"> <defs id="I5ca82927c9af47f2bf9e9f074835c13820251110123031" /> <g id="Icbc0cedafbd14a61bc0e68d5643f916120251110123031"> <path id="Ia147bf0c122f4694bccc0d53eac1162820251110123031" d="m 54.688,37.5 c 0.914,0 1.812,0.078 2.691,0.223 l 0.539,2.238 c 0.809,3.355 4.187,5.422 7.543,4.609 l 0.305,-0.078 1.879,-0.562 c 1.132,1.461 2.039,3.117 2.667,4.91 l -1.398,1.344 c -2.355,2.269 -2.547,5.937 -0.527,8.433 l 0.441,0.488 1.484,1.43 c -0.628,1.793 -1.535,3.445 -2.664,4.906 L 65.766,64.883 C 62.457,63.906 58.98,65.797 58,69.109 l -0.082,0.305 -0.539,2.238 c -0.879,0.145 -1.777,0.223 -2.691,0.223 -0.918,0 -1.817,-0.078 -2.692,-0.227 L 51.457,69.414 C 50.648,66.059 47.27,63.992 43.914,64.805 l -0.305,0.078 -1.882,0.558 C 40.598,63.98 39.691,62.328 39.062,60.535 l 1.399,-1.344 c 2.355,-2.269 2.547,-5.937 0.527,-8.433 L 40.547,50.27 39.062,48.84 c 0.629,-1.793 1.536,-3.445 2.665,-4.906 l 1.882,0.558 c 3.309,0.977 6.786,-0.914 7.766,-4.226 l 0.082,-0.305 0.539,-2.234 C 52.871,37.578 53.77,37.5 54.688,37.5 Z M 42.969,6.25 C 46.852,6.25 50,9.398 50,13.281 v 21.637 c -8.957,2.117 -15.625,10.164 -15.625,19.77 0,0.527 0.02,1.046 0.059,1.562 h -7.09 c -1.293,0 -2.344,1.051 -2.344,2.344 0,1.187 0.883,2.168 2.027,2.324 l 0.317,0.02 h 7.812 l 0.196,-0.012 c 0.957,2.965 2.574,5.633 4.679,7.828 L 19.531,68.75 C 15.648,68.75 12.5,65.602 12.5,61.719 V 13.281 C 12.5,9.398 15.648,6.25 19.531,6.25 Z M 54.688,50 c -2.5,0 -4.532,2.098 -4.532,4.688 0,2.589 2.032,4.687 4.532,4.687 2.5,0 4.531,-2.098 4.531,-4.687 0,-2.59 -2.031,-4.688 -4.531,-4.688 z" style="fill:currentColor;fill-opacity:1;fill-rule:nonzero;stroke:none" transform="scale(1.3333333)" /> </g>
</svg>

