<?xml version="1.0" encoding="UTF-8" standalone="no"?> <svg version="1.1" id="I105811112f724ebfb4f33e879ad9e36820251106155157" width="100" height="100" viewBox="0 0 100 100" xmlns="http://www.w3.org/2000/svg" xmlns:svg="http://www.w3.org/2000/svg"> <defs id="I4a97e36a5f1241fdbba1d002519ae81d20251106155157" /> <g id="I70312cdf565f4014b2aa131ef52f44e720251106155157"> <path id="I684e6d4faf91487ca1ad7fdd648b5bb520251106155157" d="m 14.062,14.062 c 0,-5.175 4.2,-9.374 9.376,-9.374 h 16.808 c 1.863,0 3.652,0.742 4.973,2.058 l 13.66,13.66 c 1.316,1.321 2.059,3.11 2.059,4.973 v 35.559 c 0,5.179 -4.196,9.374 -9.376,9.374 H 37.102 C 37.359,69.578 37.5,68.789 37.5,67.969 v -2.344 h 14.062 c 2.59,0 4.688,-2.098 4.688,-4.687 V 28.125 H 44.531 c -3.883,0 -7.031,-3.148 -7.031,-7.031 V 9.375 H 23.438 c -2.59,0 -4.688,2.098 -4.688,4.687 v 30.469 c -1.363,-1.023 -2.957,-1.758 -4.688,-2.109 z m 30.469,9.376 H 55.277 L 42.188,10.348 v 10.746 c 0,1.293 1.05,2.344 2.343,2.344 z m -12.648,24.39 c 0.469,0.442 0.929,1.16 0.929,2.113 v 18.028 c 0,1.293 -1.05,2.343 -2.343,2.343 -1.293,0 -2.344,-1.05 -2.344,-2.343 V 53.711 c -1.023,0.851 -2.254,1.664 -3.715,2.328 -1.18,0.535 -2.57,0.016 -3.105,-1.16 -0.535,-1.18 -0.016,-2.57 1.16,-3.106 2.191,-0.996 3.656,-2.453 4.582,-3.675 1.047,-1.383 2.687,-1.246 3.398,-1.055 0.461,0.125 0.985,0.363 1.438,0.785 z M 11.719,46.875 c -3.883,0 -7.031,3.148 -7.031,7.031 v 9.375 c 0,3.883 3.148,7.031 7.031,7.031 3.883,0 7.031,-3.148 7.031,-7.031 v -9.375 c 0,-3.883 -3.148,-7.031 -7.031,-7.031 z m -2.344,7.031 c 0,-1.293 1.051,-2.344 2.344,-2.344 1.293,0 2.343,1.051 2.343,2.344 v 9.375 c 0,1.293 -1.05,2.344 -2.343,2.344 -1.293,0 -2.344,-1.051 -2.344,-2.344 z" style="fill:currentColor;fill-opacity:1;fill-rule:nonzero;stroke:none" transform="scale(1.3333333)" /> </g>
</svg>

