<?xml version="1.0" encoding="UTF-8" standalone="no"?> <svg version="1.1" id="I5eba29c5817a4ab295a83baf1f7f051d20251106171634" width="100" height="100" viewBox="0 0 100 100" xmlns="http://www.w3.org/2000/svg" xmlns:svg="http://www.w3.org/2000/svg"> <defs id="I18958c2aee1a4e109344f1b2d1dde43e20251106171634" /> <g id="I810cffc1f31d4d7b9c1d7d601c7b119120251106171634"> <path id="I5d6cdd4314834c4f971bdd59dc4332d420251106171634" d="m 27.344,3.125 c 1.293,0 2.344,1.051 2.344,2.344 v 4.324 c 0.949,0.336 1.835,0.887 2.597,1.645 l 12.824,12.828 c 2.746,2.746 2.746,7.199 0,9.945 L 28.258,51.062 c -2.742,2.747 -7.196,2.747 -9.942,0 L 5.488,38.234 c -2.746,-2.746 -2.746,-7.199 0,-9.945 L 22.34,11.438 C 23.117,10.664 24.027,10.105 25,9.77 V 5.469 C 25,4.176 26.051,3.125 27.344,3.125 Z M 25,21.094 V 15.41 L 9.16,31.25 h 32.281 l 0.356,-0.355 c 0.914,-0.915 0.914,-2.399 0,-3.313 L 29.688,15.473 v 5.621 c 0,1.293 -1.051,2.344 -2.344,2.344 C 26.051,23.438 25,22.387 25,21.094 Z M 36.754,35.938 H 9.82 l 11.809,11.808 c 0.918,0.914 2.402,0.914 3.316,0 z m 7.019,17.355 c 0.067,0.457 0.313,1.078 1.086,1.852 0.774,0.773 1.395,1.019 1.852,1.085 0.473,0.071 1.027,-0.011 1.715,-0.324 1.484,-0.676 2.949,-2.101 4.441,-3.594 4.578,-4.578 8.27,-9.203 10.504,-12.894 1.129,-1.863 1.817,-3.379 2.109,-4.461 0.059,-0.227 0.098,-0.41 0.122,-0.555 -0.145,0.024 -0.329,0.063 -0.555,0.121 -1.086,0.293 -2.598,0.981 -4.461,2.11 -3.691,2.234 -8.316,5.926 -12.895,10.504 -1.492,1.492 -2.918,2.957 -3.593,4.445 -0.313,0.684 -0.395,1.238 -0.325,1.711 z m 0.489,-9.355 0.113,-0.114 c 4.77,-4.769 9.687,-8.722 13.785,-11.203 2.031,-1.23 3.977,-2.168 5.672,-2.625 1.496,-0.402 3.73,-0.668 5.285,0.891 1.559,1.554 1.293,3.789 0.891,5.285 -0.457,1.695 -1.395,3.64 -2.625,5.672 -2.481,4.097 -6.43,9.015 -11.203,13.785 l -0.114,0.113 c -1.343,1.344 -3.363,3.367 -5.703,4.43 -1.043,0.476 -2.238,0.805 -3.527,0.766 0.172,2.359 -0.645,4.773 -2.445,6.574 -2.5,2.5 -5.625,3.863 -9.039,3.648 -3.368,-0.215 -6.676,-1.937 -9.664,-4.93 -0.586,-0.582 -0.821,-1.433 -0.618,-2.234 0.207,-0.801 0.817,-1.434 1.61,-1.668 1.601,-0.476 2.441,-0.93 2.89,-1.273 0.391,-0.297 0.535,-0.547 0.649,-0.825 0.07,-0.175 0.129,-0.378 0.211,-0.683 l 0.039,-0.149 c 0.07,-0.257 0.16,-0.601 0.265,-0.933 0.289,-0.887 0.758,-1.895 1.735,-2.871 1.808,-1.809 4.234,-2.621 6.597,-2.446 -0.035,-1.281 0.293,-2.468 0.766,-3.507 1.063,-2.336 3.086,-4.36 4.43,-5.703 z m -8.477,14.968 c -0.312,0.313 -0.461,0.606 -0.594,1.008 -0.062,0.195 -0.109,0.379 -0.175,0.633 l -0.059,0.211 c -0.09,0.336 -0.207,0.765 -0.387,1.211 -0.39,0.976 -1.019,1.945 -2.152,2.812 -0.184,0.141 -0.379,0.274 -0.582,0.407 1.371,0.828 2.656,1.218 3.812,1.292 1.879,0.118 3.735,-0.589 5.426,-2.281 1.461,-1.461 1.461,-3.832 0,-5.293 -1.461,-1.461 -3.828,-1.461 -5.289,0 z" style="fill:currentColor;fill-opacity:1;fill-rule:nonzero;stroke:none" transform="scale(1.3333333)" /> </g>
</svg>

