<?xml version="1.0" encoding="UTF-8" standalone="no"?> <svg version="1.1" id="Ic5f9a7c611c64b64bb45920be8291e0020251106171633" width="100" height="100" viewBox="0 0 100 100" xmlns="http://www.w3.org/2000/svg" xmlns:svg="http://www.w3.org/2000/svg"> <defs id="Id1bc0303aaac4746bbaab3e4704c54be20251106171633" /> <g id="I03391c8fabbd4b8796555fd3d26e6f2a20251106171633"> <path id="I0e5df220513247bcb17e3a30300136b120251106171633" d="m 37.5,23.438 c -4.066,0 -7.367,-3.297 -7.367,-7.368 0,-4.066 3.301,-7.363 7.367,-7.363 4.066,0 7.367,3.297 7.367,7.363 0,4.071 -3.301,7.368 -7.367,7.368 z m 0,21.429 c -4.066,0 -7.367,-3.301 -7.367,-7.367 0,-4.066 3.301,-7.367 7.367,-7.367 4.066,0 7.367,3.301 7.367,7.367 0,4.066 -3.301,7.367 -7.367,7.367 z M 30.133,58.93 c 0,4.066 3.301,7.363 7.367,7.363 4.066,0 7.367,-3.297 7.367,-7.363 0,-4.071 -3.301,-7.368 -7.367,-7.368 -4.066,0 -7.367,3.297 -7.367,7.368 z" style="fill:currentColor;fill-opacity:1;fill-rule:nonzero;stroke:none" transform="scale(1.3333333)" /> </g>
</svg>

