<?xml version="1.0" encoding="UTF-8" standalone="no"?> <svg version="1.1" id="I0e51e28fa62045029491685b27182d3920251110135155" width="100" height="100" viewBox="0 0 100 100" xmlns="http://www.w3.org/2000/svg" xmlns:svg="http://www.w3.org/2000/svg"> <defs id="I1650d74f5ae74395b34be6efab37db9e20251110135155" /> <g id="Ie31569b30ef84f638eb4ce674a0d31ef20251110135155"> <path id="Ieeae61758f424ee5956aff5e51c062b720251110135155" d="m 46.875,12.5 c 0,-1.727 -1.398,-3.125 -3.125,-3.125 -1.727,0 -3.125,1.398 -3.125,3.125 v 47.656 c 0,1.727 1.398,3.125 3.125,3.125 1.629,0 2.969,-1.246 3.113,-2.84 1.93,1.309 4.192,2.059 6.61,2.059 7.093,0 12.847,-6.473 12.847,-14.453 0,-7.981 -5.754,-14.453 -12.847,-14.453 -2.414,0 -4.668,0.746 -6.598,2.047 z m 6.598,43.75 c -2.973,0 -6.598,-2.961 -6.598,-8.203 0,-5.242 3.625,-8.203 6.598,-8.203 2.972,0 6.597,2.961 6.597,8.203 0,5.242 -3.625,8.203 -6.597,8.203 z M 34.375,60.188 V 43 l -0.016,-0.656 v -0.016 c -0.132,-3.008 -1.171,-5.512 -3.05,-7.305 -1.875,-1.789 -4.512,-2.796 -7.715,-2.957 l -0.91,-0.031 h -0.012 c -3.621,-0.066 -6.606,0.586 -8.848,2.156 -1.414,0.993 -1.758,2.942 -0.765,4.356 0.992,1.41 2.941,1.754 4.351,0.762 1.02,-0.715 2.914,-1.145 5.871,-1 1.828,0.093 2.996,0.539 3.715,1.238 0.547,0.531 0.91,1.281 1.055,2.336 -2.731,-0.602 -5.438,-0.746 -8.113,-0.422 -3.227,0.391 -5.876,1.644 -7.719,3.562 -1.848,1.926 -2.844,4.473 -2.844,7.352 0,6.563 4.781,10.937 10.937,10.937 2.52,0 5.165,-0.761 7.95,-2.21 0.39,1.281 1.582,2.21 2.988,2.21 h 0.027 l 0.371,-0.023 0.024,-0.004 c 1.527,-0.207 2.703,-1.515 2.703,-3.097 z m -18.75,-7.7 c 0,-1.308 0.414,-2.351 1.199,-3.125 0.797,-0.785 2.051,-1.363 3.864,-1.582 2.281,-0.277 4.624,-0.093 7.054,0.574 l 0.379,0.114 v 5.539 l -0.426,0.289 c -3.019,1.992 -5.48,2.879 -7.383,2.879 -1.457,0 -2.613,-0.453 -3.406,-1.227 -0.785,-0.765 -1.281,-1.918 -1.281,-3.461 z" style="fill:currentColor;fill-opacity:1;fill-rule:nonzero;stroke:none" transform="scale(1.3333333)" /> </g>
</svg>

