<?xml version="1.0" encoding="UTF-8" standalone="no"?> <svg version="1.1" id="I5d0237d7fe4e425d967a9b800b3e4ee820251106123559" width="100" height="100" viewBox="0 0 100 100" xmlns="http://www.w3.org/2000/svg" xmlns:svg="http://www.w3.org/2000/svg"> <defs id="Ic503c4b32928450b85c415b83dd5b3fc20251106123559"> <linearGradient x1="10.45" y1="1.8571399" x2="29.466299" y2="26.0846" gradientUnits="userSpaceOnUse" gradientTransform="scale(2.34375)" spreadMethod="pad" id="I688a898c831b4afd9c0b6adc025d92bb20251106123559"> <stop style="stop-opacity:1;stop-color:#36dff1" offset="0" id="Iac77382ce8564f0699f044bae695d84c20251106123559" /> <stop style="stop-opacity:1;stop-color:#0094f0" offset="1" id="Ic55f346121d841f0916851403a7f222f20251106123559" /> </linearGradient> <linearGradient x1="10.45" y1="1.8571399" x2="29.466299" y2="26.0846" gradientUnits="userSpaceOnUse" gradientTransform="scale(2.34375)" spreadMethod="pad" id="I3767b04ea2aa4ac48499ecbc58ea764d20251106123559"> <stop style="stop-opacity:1;stop-color:#36dff1" offset="0" id="I79a77d3d21724441a5a2e1d6f57ff76e20251106123559" /> <stop style="stop-opacity:1;stop-color:#0094f0" offset="1" id="Icb663e4a205244eaae8ab28d6228f62a20251106123559" /> </linearGradient> <linearGradient x1="10.45" y1="1.8571399" x2="29.466299" y2="26.0846" gradientUnits="userSpaceOnUse" gradientTransform="scale(2.34375)" spreadMethod="pad" id="I61891b91b7de4fb1b021d636026c922c20251106123559"> <stop style="stop-opacity:1;stop-color:#36dff1" offset="0" id="Ib067b654bdd547019a7604f61e03eb8320251106123559" /> <stop style="stop-opacity:1;stop-color:#0094f0" offset="1" id="I3e378dfd8e424516b287dcfda57614a520251106123559" /> </linearGradient> <linearGradient x1="3.9024301" y1="5.7221999" x2="8.3787298" y2="28.429199" gradientUnits="userSpaceOnUse" gradientTransform="scale(2.34375)" spreadMethod="pad" id="Iee160600817a4d138703d8d5a7e8204220251106123559"> <stop style="stop-opacity:1;stop-color:#9c6cfe" offset="0" id="Ia9d9fe605b3e42758a52a54d62aeb22f20251106123559" /> <stop style="stop-opacity:1;stop-color:#9c6cfe" offset="0.125321" id="I5c405b52ae31456b8bc76248d065e11c20251106123559" /> <stop style="stop-opacity:1;stop-color:#7a41dc" offset="1" id="I0316cd7244474fd587c9016cee492e4920251106123559" /> </linearGradient> <linearGradient x1="3.9024301" y1="5.7221999" x2="8.3787298" y2="28.429199" gradientUnits="userSpaceOnUse" gradientTransform="scale(2.34375)" spreadMethod="pad" id="Ifde30d1797004d66a5f4e4ba085989e120251106123559"> <stop style="stop-opacity:1;stop-color:#9c6cfe" offset="0" id="Ibab6a4e114974f8a825c1c4b1ea8543020251106123559" /> <stop style="stop-opacity:1;stop-color:#9c6cfe" offset="0.125321" id="I66e1d29ed3ea40fd8464397c68c1052520251106123559" /> <stop style="stop-opacity:1;stop-color:#7a41dc" offset="1" id="I8d9f22f1e1714a1c9c31298586c61eb620251106123559" /> </linearGradient> <linearGradient x1="3.9024301" y1="5.7221999" x2="8.3787298" y2="28.429199" gradientUnits="userSpaceOnUse" gradientTransform="scale(2.34375)" spreadMethod="pad" id="I69a6e1e43e4a42b99fe575edaa2ce01020251106123559"> <stop style="stop-opacity:1;stop-color:#9c6cfe" offset="0" id="I57fae321b49d4548a2f4fec4ffbf97b020251106123559" /> <stop style="stop-opacity:1;stop-color:#9c6cfe" offset="0.125321" id="I7c7ef494fd4243139b9384f3a78c132120251106123559" /> <stop style="stop-opacity:1;stop-color:#7a41dc" offset="1" id="I2d7fc859f96042658a84cb6ec223bd1320251106123559" /> </linearGradient> </defs> <g id="I535cd919eb6e44509bcdedca9feb5c1f20251106123559"> <path id="Id785f98653f54109ab07fb91739689c120251106123559" d="m 32.812,11.719 c -1.292,0 -2.343,1.051 -2.343,2.343 0,1.293 1.051,2.344 2.343,2.344 h 35.157 c 1.293,0 2.343,-1.051 2.343,-2.344 0,-1.292 -1.05,-2.343 -2.343,-2.343 z" transform="scale(1.3333333)" style="fill:url(#I688a898c831b4afd9c0b6adc025d92bb20251106123559);stroke:none" /> <path id="Icbad12f99fb240599b83dbc79a002a1120251106123559" d="m 30.469,37.5 c 0,-1.293 1.051,-2.344 2.343,-2.344 h 35.157 c 1.293,0 2.343,1.051 2.343,2.344 0,1.293 -1.05,2.344 -2.343,2.344 H 32.812 c -1.292,0 -2.343,-1.051 -2.343,-2.344 z" transform="scale(1.3333333)" style="fill:url(#I3767b04ea2aa4ac48499ecbc58ea764d20251106123559);stroke:none" /> <path id="I82911c3c960b4d898ed1d415bd29aaf720251106123559" d="m 30.469,60.938 c 0,-1.293 1.051,-2.344 2.343,-2.344 h 35.157 c 1.293,0 2.343,1.051 2.343,2.344 0,1.292 -1.05,2.343 -2.343,2.343 H 32.812 c -1.292,0 -2.343,-1.051 -2.343,-2.343 z" transform="scale(1.3333333)" style="fill:url(#I61891b91b7de4fb1b021d636026c922c20251106123559);stroke:none" /> <path id="I214048b0482147b28d006a84fedfd61e20251106123559" d="m 11.719,4.688 c -3.883,0 -7.031,3.148 -7.031,7.031 v 4.687 c 0,3.883 3.148,7.032 7.031,7.032 h 4.687 c 3.883,0 7.032,-3.149 7.032,-7.032 v -4.687 c 0,-3.883 -3.149,-7.031 -7.032,-7.031 z" transform="scale(1.3333333)" style="fill:url(#Iee160600817a4d138703d8d5a7e8204220251106123559);stroke:none" /> <path id="I26b91f3ba26c4de88cbad8370f091b8720251106123559" d="m 4.688,35.156 c 0,-3.883 3.148,-7.031 7.031,-7.031 h 4.687 c 3.883,0 7.032,3.148 7.032,7.031 v 4.688 c 0,3.883 -3.149,7.031 -7.032,7.031 h -4.687 c -3.883,0 -7.031,-3.148 -7.031,-7.031 z" transform="scale(1.3333333)" style="fill:url(#Ifde30d1797004d66a5f4e4ba085989e120251106123559);stroke:none" /> <path id="I45e5e8f7ec9747ce84edf7dfa1af49f720251106123559" d="m 11.719,51.562 c -3.883,0 -7.031,3.149 -7.031,7.032 v 4.687 c 0,3.883 3.148,7.031 7.031,7.031 h 4.687 c 3.883,0 7.032,-3.148 7.032,-7.031 v -4.687 c 0,-3.883 -3.149,-7.032 -7.032,-7.032 z" transform="scale(1.3333333)" style="fill:url(#I69a6e1e43e4a42b99fe575edaa2ce01020251106123559);stroke:none" /> </g>
</svg>

