<?xml version="1.0" encoding="UTF-8" standalone="no"?> <svg version="1.1" id="I261df40ea4ef4a8ab9d2b86f12ac242220251110124419" width="100" height="100" viewBox="0 0 100 100" xmlns="http://www.w3.org/2000/svg" xmlns:svg="http://www.w3.org/2000/svg"> <defs id="I7b5f21a0145f42849faf75923b83e6f120251110124419" /> <g id="I388b7c30abb845d7bbcdba3d14807ef320251110124419"> <path id="I70cd6849eb9e489687137a9af359c03320251110124419" d="M 37.484,0 C 16.781,0 0,16.781 0,37.484 c 0,20.7 16.781,37.481 37.484,37.481 20.7,0 37.481,-16.781 37.481,-37.481 C 74.965,16.781 58.184,0 37.484,0 Z M 7.5,37.484 C 7.5,20.922 20.922,7.5 37.484,7.5 c 16.559,0 29.981,13.422 29.981,29.984 0,16.559 -13.422,29.981 -29.981,29.981 C 20.922,67.465 7.5,54.043 7.5,37.484 Z M 53.277,25.473 c 1.465,1.465 1.465,3.839 0,5.304 L 36.402,47.652 c -1.464,1.465 -3.84,1.465 -5.304,0 l -7.5,-7.5 c -1.465,-1.464 -1.465,-3.84 0,-5.304 1.464,-1.465 3.84,-1.465 5.304,0 l 4.848,4.847 14.223,-14.222 c 1.465,-1.465 3.839,-1.465 5.304,0 z" style="fill:currentColor;fill-opacity:1;fill-rule:nonzero;stroke:none" transform="scale(1.3333333)" /> </g>
</svg>

