<?xml version="1.0" encoding="UTF-8" standalone="no"?> <svg version="1.1" id="Iba46e205dbd74942a10bbb429a66a63a20251110124421" width="100" height="100" viewBox="0 0 100 100" xmlns="http://www.w3.org/2000/svg" xmlns:svg="http://www.w3.org/2000/svg"> <defs id="If897e11fb5ea4dba8b29e87b02a53c4920251110124421" /> <g id="I186d224038f24b50be4d3da27a6fe03a20251110124421"> <path id="I423e5c7a77614a87a01a0edef9a25e1920251110124421" d="m 62.516,35.938 c 1.601,0 2.922,1.207 3.101,2.761 l 0.024,0.363 v 14.063 c 0,9.262 -7.329,16.813 -16.5,17.172 l -0.688,0.015 H 25.781 c -3.793,0 -6.953,-2.703 -7.664,-6.289 l 7.336,0.004 0.16,0.028 0.168,0.007 h 22.672 c 5.824,0 10.586,-4.554 10.918,-10.3 l 0.02,-0.598 V 39.062 c 0,-1.726 1.398,-3.124 3.125,-3.124 z m -9.395,-6.293 c 1.602,0 2.922,1.207 3.102,2.761 l 0.023,0.364 v 20.316 c 0,4.141 -3.223,7.531 -7.301,7.797 l -0.511,0.015 H 17.18 c -4.141,0 -7.532,-3.222 -7.793,-7.296 L 9.367,53.086 V 32.809 c 0,-1.727 1.403,-3.125 3.125,-3.125 1.606,0 2.926,1.207 3.106,2.757 l 0.019,0.368 v 20.277 c 0,0.766 0.555,1.406 1.285,1.539 l 0.278,0.023 h 31.254 c 0.765,0 1.402,-0.55 1.535,-1.281 l 0.027,-0.281 V 32.77 c 0,-1.727 1.399,-3.125 3.125,-3.125 z M 19.664,18.105 30.594,7.168 c 1.125,-1.129 2.898,-1.215 4.125,-0.262 l 0.293,0.258 10.945,10.938 c 1.223,1.218 1.223,3.199 0.004,4.418 -1.129,1.128 -2.899,1.214 -4.125,0.261 l -0.297,-0.258 -5.605,-5.601 0.004,27.625 c 0,1.601 -1.208,2.922 -2.762,3.105 l -0.364,0.02 c -1.605,0 -2.925,-1.207 -3.105,-2.762 L 29.688,44.547 29.684,16.914 24.086,22.52 c -1.129,1.128 -2.898,1.214 -4.125,0.261 l -0.297,-0.258 c -1.125,-1.125 -1.215,-2.898 -0.262,-4.125 l 0.262,-0.293 10.93,-10.937 z" style="fill:currentColor;fill-opacity:1;fill-rule:nonzero;stroke:none" transform="scale(1.3333333)" /> </g>
</svg>

