<?xml version="1.0" encoding="UTF-8" standalone="no"?> <svg version="1.1" id="I1933971a1e1f418ebf180555b9eaed2a20251106125938" width="100" height="100" viewBox="0 0 100 100" xmlns="http://www.w3.org/2000/svg" xmlns:svg="http://www.w3.org/2000/svg"> <defs id="I9a86f52f9f4f45cb8359daf92efc2dbc20251106125938" /> <g id="Ifaf6fe17db6f40838cc13cfaccf2e09b20251106125938"> <path id="I7ccc8da3f03142b38a3285185cc442c820251106125938" d="M 21,27.234 35.047,13.188 c 0.828,-0.833 2.129,-0.911 3.047,-0.231 l 0.265,0.227 14.079,14.046 c 0.914,0.915 0.914,2.399 0,3.317 -0.829,0.832 -2.133,0.91 -3.051,0.23 L 49.125,30.551 39.055,20.496 v 39.676 c 0,1.187 -0.883,2.168 -2.024,2.32 l -0.32,0.024 c -1.188,0 -2.168,-0.883 -2.32,-2.028 L 34.367,60.172 V 20.492 L 24.312,30.547 c -0.832,0.832 -2.132,0.91 -3.05,0.226 L 21,30.547 C 20.168,29.715 20.09,28.414 20.773,27.496 L 21,27.234 35.047,13.188 Z" style="fill:currentColor;fill-opacity:1;fill-rule:nonzero;stroke:none" transform="scale(1.3333333)" /> </g>
</svg>

