<?xml version="1.0" encoding="UTF-8" standalone="no"?> <svg version="1.1" id="I95cef0a5fb6a45758455475e0844305a20251106165302" width="100" height="100" viewBox="0 0 100 100" xmlns="http://www.w3.org/2000/svg" xmlns:svg="http://www.w3.org/2000/svg"> <defs id="I1c3b1fc8a9514dc3ad33e9787ba17da220251106165302" /> <g id="I31914e07eb274838a52a78b8666fa36d20251106165302"> <path id="Id0940f4562cf4243ae0cbd258e03c42320251106165302" d="m 61.703,15.625 c 3.883,0 7.031,3.148 7.031,7.031 v 29.703 c 0,3.883 -3.148,7.032 -7.031,7.032 H 13.281 C 9.398,59.391 6.25,56.242 6.25,52.359 V 22.656 c 0,-3.883 3.148,-7.031 7.031,-7.031 z M 20.312,50 H 31.25 c 1.293,0 2.344,-1.051 2.344,-2.344 0,-1.293 -1.051,-2.344 -2.344,-2.344 H 20.312 c -1.292,0 -2.343,1.051 -2.343,2.344 0,1.293 1.051,2.344 2.343,2.344 z m 23.438,0 h 10.938 c 1.292,0 2.343,-1.051 2.343,-2.344 0,-1.293 -1.051,-2.344 -2.343,-2.344 H 43.75 c -1.293,0 -2.344,1.051 -2.344,2.344 0,1.293 1.051,2.344 2.344,2.344 z M 54.688,34.375 c -1.727,0 -3.126,1.398 -3.126,3.125 0,1.727 1.399,3.125 3.126,3.125 1.726,0 3.124,-1.398 3.124,-3.125 0,-1.727 -1.398,-3.125 -3.124,-3.125 z m -9.36,0 c -1.726,0 -3.125,1.398 -3.125,3.125 0,1.727 1.399,3.125 3.125,3.125 1.727,0 3.125,-1.398 3.125,-3.125 0,-1.727 -1.398,-3.125 -3.125,-3.125 z m -15.625,0 c -1.726,0 -3.125,1.398 -3.125,3.125 0,1.727 1.399,3.125 3.125,3.125 1.727,0 3.125,-1.398 3.125,-3.125 0,-1.727 -1.398,-3.125 -3.125,-3.125 z m -9.375,0 c -1.726,0 -3.125,1.398 -3.125,3.125 0,1.727 1.399,3.125 3.125,3.125 1.727,0 3.125,-1.398 3.125,-3.125 0,-1.727 -1.398,-3.125 -3.125,-3.125 z M 18.75,25 c -1.727,0 -3.125,1.398 -3.125,3.125 0,1.727 1.398,3.125 3.125,3.125 1.727,0 3.125,-1.398 3.125,-3.125 C 21.875,26.398 20.477,25 18.75,25 Z m 9.359,0 c -1.726,0 -3.125,1.398 -3.125,3.125 0,1.727 1.399,3.125 3.125,3.125 1.727,0 3.125,-1.398 3.125,-3.125 C 31.234,26.398 29.836,25 28.109,25 Z m 18.75,0 c -1.726,0 -3.125,1.398 -3.125,3.125 0,1.727 1.399,3.125 3.125,3.125 1.727,0 3.125,-1.398 3.125,-3.125 C 49.984,26.398 48.586,25 46.859,25 Z m 9.375,0 c -1.726,0 -3.125,1.398 -3.125,3.125 0,1.727 1.399,3.125 3.125,3.125 1.727,0 3.125,-1.398 3.125,-3.125 C 59.359,26.398 57.961,25 56.234,25 Z" style="fill:currentColor;fill-opacity:1;fill-rule:nonzero;stroke:none" transform="scale(1.3333333)" /> </g>
</svg>

