<?xml version="1.0" encoding="UTF-8" standalone="no"?> <svg version="1.1" id="Ic31c2748197f4905b21141be2978313620251106171633" width="100" height="100" viewBox="0 0 100 100" xmlns="http://www.w3.org/2000/svg" xmlns:svg="http://www.w3.org/2000/svg"> <defs id="I35854545a2214deb955e72d2df67fa1720251106171633" /> <g id="I620ca6530e2a4150a6cb4dcb72071f9c20251106171633"> <path id="If46cad4285c540b69c7c4bf65a35973220251106171633" d="m 57.031,12.5 c 1.293,0 2.344,1.051 2.344,2.344 v 26.562 c 0,1.293 -1.051,2.344 -2.344,2.344 -1.293,0 -2.343,-1.051 -2.343,-2.344 V 14.844 c 0,-1.293 1.05,-2.344 2.343,-2.344 z M 12.5,57.031 c 0,-1.293 1.051,-2.343 2.344,-2.343 h 26.562 c 1.293,0 2.344,1.05 2.344,2.343 0,1.293 -1.051,2.344 -2.344,2.344 H 14.844 c -1.293,0 -2.344,-1.051 -2.344,-2.344 z M 25.875,22.562 c -0.914,-0.917 -2.398,-0.917 -3.313,0 -0.917,0.915 -0.917,2.399 0,3.313 l 20.313,20.313 c 0.914,0.917 2.398,0.917 3.313,0 0.917,-0.915 0.917,-2.399 0,-3.313 z" style="fill:currentColor;fill-opacity:1;fill-rule:nonzero;stroke:none" transform="scale(1.3333333)" /> </g>
</svg>

