<?xml version="1.0" encoding="UTF-8" standalone="no"?> <svg version="1.1" id="I692d611f71c141e292fdc537ea79b10f20251106113050" width="100" height="100" viewBox="0 0 100 100" xmlns="http://www.w3.org/2000/svg" xmlns:svg="http://www.w3.org/2000/svg"> <defs id="Ib5983b0160b44def8de586a1bb3d6f2d20251106113050" /> <g id="I4645c3cfddd14217b53a47a7cbcdbfd020251106113050"> <path id="I5a0ce400f2b847fd8ef4f185cfdfd2bd20251106113050" d="m 47.543,53.094 11.879,-9.375 c 0.344,-0.266 0.344,-0.785 0,-1.055 L 47.543,33.289 c -0.441,-0.351 -1.086,-0.031 -1.086,0.527 V 40.18 H 19.336 c -0.367,0 -0.668,0.3 -0.668,0.668 v 4.687 c 0,0.367 0.301,0.672 0.668,0.672 h 27.121 v 6.359 c 0,0.563 0.652,0.872 1.086,0.528 z M 69.418,19.195 55.805,5.582 C 55.18,4.957 54.41,4.496 53.57,4.242 V 4.02 H 6.695 C 5.215,4.02 4.02,5.215 4.02,6.695 v 23.27 c 0,0.371 0.3,0.672 0.668,0.672 h 4.687 c 0.367,0 0.668,-0.301 0.668,-0.672 V 10.043 H 21.43 V 21.43 c 0,1.48 1.195,2.675 2.675,2.675 h 26.79 c 1.48,0 2.675,-1.195 2.675,-2.675 v -9.559 l 11.387,11.383 v 6.711 c 0,0.371 0.301,0.672 0.668,0.672 h 4.687 c 0.368,0 0.668,-0.301 0.668,-0.672 v -6.988 c 0,-1.422 -0.558,-2.778 -1.562,-3.782 z M 48.215,18.75 h -21.43 v -8.707 h 21.43 z m 22.097,36.496 h -4.687 c -0.367,0 -0.668,0.301 -0.668,0.668 v 9.043 H 10.043 v -9.043 c 0,-0.367 -0.301,-0.668 -0.668,-0.668 H 4.688 c -0.368,0 -0.668,0.301 -0.668,0.668 v 12.391 c 0,1.48 1.195,2.675 2.675,2.675 h 61.61 c 1.48,0 2.675,-1.195 2.675,-2.675 V 55.914 c 0,-0.367 -0.3,-0.668 -0.668,-0.668 z" style="fill:currentColor;fill-opacity:1;fill-rule:nonzero;stroke:none" transform="scale(1.3333333)" /> </g>
</svg>

