<?xml version="1.0" encoding="UTF-8" standalone="no"?> <svg version="1.1" id="Iee84d54820da4b9bb814cc04a6eb872220251110135155" width="100" height="100" viewBox="0 0 100 100" xmlns="http://www.w3.org/2000/svg" xmlns:svg="http://www.w3.org/2000/svg"> <defs id="I11161c7b51154758bf20d351c0ddc86520251110135155" /> <g id="Ice0cb87caadb4fbab847d8f968cb292220251110135155"> <path id="I0beb2e12642a4184b7333d6558ebb4bc20251110135155" d="M 50,46.875 V 20.312 c 0,-1.726 1.398,-3.124 3.125,-3.124 1.602,0 2.922,1.207 3.105,2.761 l 0.02,0.363 V 46.875 C 56.25,48.602 54.852,50 53.125,50 51.523,50 50.203,48.793 50.02,47.238 Z m -14.711,20.961 -6.25,-6.25 c -1.219,-1.223 -1.219,-3.199 0,-4.422 1.129,-1.125 2.899,-1.211 4.125,-0.258 l 0.297,0.258 4.039,4.043 4.039,-4.043 c 1.223,-1.219 3.199,-1.219 4.422,0 1.125,1.129 1.211,2.898 0.258,4.125 l -0.258,0.297 -6.25,6.25 c -1.129,1.125 -2.899,1.211 -4.125,0.258 z M 34.375,46.875 34.371,10.938 c 0,-1.727 1.399,-3.126 3.125,-3.126 1.602,0 2.926,1.208 3.106,2.762 l 0.019,0.364 0.004,35.937 C 40.625,48.602 39.227,50 37.5,50 35.898,50 34.578,48.793 34.395,47.238 Z m -15.625,0 V 20.312 c 0,-1.726 1.398,-3.124 3.125,-3.124 1.602,0 2.922,1.207 3.105,2.761 L 25,20.312 V 46.875 C 25,48.602 23.602,50 21.875,50 20.273,50 18.953,48.793 18.77,47.238 Z" style="fill:currentColor;fill-opacity:1;fill-rule:nonzero;stroke:none" transform="scale(1.3333333)" /> </g>
</svg>

