<?xml version="1.0" encoding="UTF-8" standalone="no"?> <svg version="1.1" id="I54c9305237bf429c8f03e8df8a9c5da020251106161452" width="100" height="100" viewBox="0 0 100 100" xmlns="http://www.w3.org/2000/svg" xmlns:svg="http://www.w3.org/2000/svg"> <defs id="Id62e3892877d4f1d872ac2123097905120251106161452" /> <g id="I0ebfa95c3fde4b9aad8058e017233bea20251106161452"> <path id="I9802e3c0cbec4c43bae0d625c1ddcc2120251106161452" d="m 27.344,15.625 c -1.293,0 -2.344,1.051 -2.344,2.344 0,1.293 1.051,2.343 2.344,2.343 h 4.687 c 1.293,0 2.344,-1.05 2.344,-2.343 0,-1.293 -1.051,-2.344 -2.344,-2.344 z M 25,27.344 C 25,26.051 26.051,25 27.344,25 h 4.687 c 1.293,0 2.344,1.051 2.344,2.344 0,1.293 -1.051,2.344 -2.344,2.344 H 27.344 C 26.051,29.688 25,28.637 25,27.344 Z m 2.344,7.031 c -1.293,0 -2.344,1.051 -2.344,2.344 0,1.293 1.051,2.343 2.344,2.343 h 4.687 c 1.293,0 2.344,-1.05 2.344,-2.343 0,-1.293 -1.051,-2.344 -2.344,-2.344 z M 15.625,12.5 c 0,-3.453 2.797,-6.25 6.25,-6.25 h 19.477 c 1.656,0 3.246,0.66 4.418,1.832 l 11.773,11.773 c 1.172,1.172 1.832,2.762 1.832,4.418 v 28.852 c 0,3.453 -2.797,6.25 -6.25,6.25 h -31.25 c -3.453,0 -6.25,-2.797 -6.25,-6.25 z m 6.25,-1.562 c -0.863,0 -1.563,0.699 -1.563,1.562 v 40.625 c 0,0.863 0.7,1.563 1.563,1.563 h 31.25 c 0.863,0 1.563,-0.7 1.563,-1.563 V 26.562 H 44.531 c -3.019,0 -5.469,-2.449 -5.469,-5.468 V 10.938 Z m 21.875,1.753 v 8.403 c 0,0.429 0.352,0.781 0.781,0.781 h 8.403 z M 10.938,49.219 c 0,-1.293 -1.051,-2.344 -2.344,-2.344 -1.293,0 -2.344,1.051 -2.344,2.344 v 5.469 c 0,7.765 6.297,14.062 14.062,14.062 h 34.376 c 7.765,0 14.062,-6.297 14.062,-14.062 v -5.469 c 0,-1.293 -1.051,-2.344 -2.344,-2.344 -1.293,0 -2.344,1.051 -2.344,2.344 v 5.469 c 0,5.179 -4.195,9.374 -9.374,9.374 H 20.312 c -5.175,0 -9.374,-4.195 -9.374,-9.374 z" style="fill:currentColor;fill-opacity:1;fill-rule:nonzero;stroke:none" transform="scale(1.3333333)" /> </g>
</svg>

