<?xml version="1.0" encoding="UTF-8" standalone="no"?> <svg version="1.1" id="I3cd85d94bd274e708eb17c7e48cc0dca20251110133656" width="100" height="100" viewBox="0 0 100 100" xmlns="http://www.w3.org/2000/svg" xmlns:svg="http://www.w3.org/2000/svg"> <defs id="Iea47e9547a95471eb00a415028a7fa8320251110133656" /> <g id="I75cc911064a94b009c560c6960e07e6720251110133656"> <path id="I0bb775f7470e4ae2bfab6ddd3d0f541420251110133656" d="m 63.75,20.625 c 0,-5.176 -4.199,-9.375 -9.375,-9.375 h -33.75 c -5.176,0 -9.375,4.199 -9.375,9.375 V 22.5 h 52.5 z m 0,15.375 v -9.75 h -52.5 v 28.125 c 0,5.176 4.199,9.375 9.375,9.375 H 36 c -1.438,-2.812 -2.25,-6 -2.25,-9.375 0,-11.391 9.234,-20.625 20.625,-20.625 3.375,0 6.563,0.812 9.375,2.25 z m 7.5,18.375 c 0,9.32 -7.555,16.875 -16.875,16.875 -9.32,0 -16.875,-7.555 -16.875,-16.875 0,-9.32 7.555,-16.875 16.875,-16.875 9.32,0 16.875,7.555 16.875,16.875 z M 62.676,52.734 51.535,46.547 c -1.25,-0.695 -2.785,0.211 -2.785,1.641 v 12.374 c 0,1.43 1.535,2.336 2.785,1.641 l 11.141,-6.187 c 1.285,-0.715 1.285,-2.567 0,-3.282 z" style="fill:currentColor;fill-opacity:1;fill-rule:nonzero;stroke:none" transform="scale(1.3333333)" /> </g>
</svg>

