<?xml version="1.0" encoding="UTF-8" standalone="no"?> <svg version="1.1" id="Ibf265e670bda41eaa6fb7262e1e3946320251106152728" width="100" height="100" viewBox="0 0 100 100" xmlns="http://www.w3.org/2000/svg" xmlns:svg="http://www.w3.org/2000/svg"> <defs id="I1b871fc6eedc4b44856c2b67633b1b6720251106152728" /> <g id="I3915ace28b7a43a19f0d1ac25a1d59b920251106152728"> <path id="Ib27310aad89f4ec3bbbd66c1c7096f5120251106152728" d="m 10.156,9.375 c -1.293,0 -2.344,1.051 -2.344,2.344 0,1.293 1.051,2.343 2.344,2.343 h 1.563 c 2.156,0 3.906,1.75 3.906,3.907 v 39.062 c 0,2.157 -1.75,3.907 -3.906,3.907 h -1.563 c -1.293,0 -2.344,1.05 -2.344,2.343 0,1.293 1.051,2.344 2.344,2.344 h 1.563 c 4.746,0 8.593,-3.848 8.593,-8.594 V 17.969 c 0,-4.746 -3.847,-8.594 -8.593,-8.594 z m 23.438,0 C 28.848,9.375 25,13.223 25,17.969 v 39.062 c 0,4.746 3.848,8.594 8.594,8.594 h 1.297 l 1.113,-4.449 c 0.019,-0.078 0.039,-0.16 0.062,-0.238 h -2.472 c -2.156,0 -3.906,-1.75 -3.906,-3.907 V 17.969 c 0,-2.157 1.75,-3.907 3.906,-3.907 h 7.812 c 2.156,0 3.906,1.75 3.906,3.907 V 49.547 L 50,44.859 V 17.969 C 50,13.223 46.152,9.375 41.406,9.375 Z m 25.781,26.508 c -0.676,0.414 -1.313,0.914 -1.898,1.5 l -2.789,2.789 V 17.969 c 0,-4.746 3.847,-8.594 8.593,-8.594 h 1.563 c 1.293,0 2.344,1.051 2.344,2.344 0,1.293 -1.051,2.343 -2.344,2.343 h -1.563 c -2.156,0 -3.906,1.75 -3.906,3.907 z m 0.313,3.711 -18.446,18.445 c -1.074,1.074 -1.84,2.422 -2.207,3.899 l -1.43,5.718 c -0.621,2.489 1.629,4.742 4.118,4.121 l 5.722,-1.433 c 1.477,-0.367 2.825,-1.129 3.899,-2.207 L 69.789,49.695 c 2.789,-2.793 2.789,-7.312 0,-10.101 -2.789,-2.793 -7.312,-2.793 -10.101,0 z" style="fill:currentColor;fill-opacity:1;fill-rule:nonzero;stroke:none" transform="scale(1.3333333)" /> </g>
</svg>

