<?xml version="1.0" encoding="UTF-8" standalone="no"?> <svg version="1.1" id="I7c01cb46473f42948ff7aa974f53fa4d20251106151526" width="100" height="100" viewBox="0 0 100 100" xmlns="http://www.w3.org/2000/svg" xmlns:svg="http://www.w3.org/2000/svg"> <defs id="I4871310f2f9940a5acd813436459e7ca20251106151526" /> <g id="Ie8143d54681d4339ac15055da2d992c320251106151526"> <path id="I3209c8923d144caba7a2cbd64f40aafa20251106151526" d="m 37.5,11.25 c 10.562,0 16.555,7.211 17.426,15.922 h 0.265 c 5.754,0 10.586,4.062 11.934,9.555 -0.637,-0.395 -1.309,-0.735 -1.992,-1.028 -2.945,-1.261 -6.75,-1.949 -10.758,-1.949 -4.008,0 -7.813,0.688 -10.758,1.949 -1.465,0.629 -2.89,1.473 -4.004,2.602 -1.129,1.144 -2.113,2.781 -2.113,4.824 V 52.5 H 19.809 C 13.012,52.5 7.5,46.832 7.5,39.836 7.5,32.844 13.012,27.172 19.809,27.172 h 0.265 C 20.949,18.406 26.938,11.25 37.5,11.25 Z m 28.016,42.309 c -3.039,1.738 -6.985,2.691 -11.141,2.691 -4.156,0 -8.102,-0.953 -11.141,-2.691 -0.679,-0.387 -1.351,-0.84 -1.984,-1.36 V 63.75 c 0,4.141 5.875,7.5 13.125,7.5 7.25,0 13.125,-3.359 13.125,-7.5 V 52.199 c -0.633,0.52 -1.305,0.973 -1.984,1.36 z M 54.375,37.5 c -7.25,0 -13.125,3.359 -13.125,7.5 0,4.141 5.875,7.5 13.125,7.5 7.25,0 13.125,-3.359 13.125,-7.5 0,-4.141 -5.875,-7.5 -13.125,-7.5 z" style="fill:currentColor;fill-opacity:1;fill-rule:nonzero;stroke:none" transform="scale(1.3333333)" /> </g>
</svg>

