<?xml version="1.0" encoding="UTF-8" standalone="no"?> <svg version="1.1" id="Ic7b1140c3994433a8ec6cfb130c7d5f120251106170956" width="100" height="100" viewBox="0 0 100 100" xmlns="http://www.w3.org/2000/svg" xmlns:svg="http://www.w3.org/2000/svg"> <defs id="I505ff78b15af4566b8897d7f45a1725320251106170956" /> <g id="I76751f86ce124ad68913806f06c3b22920251106170956"> <path id="I180e2c8bfac64115be9a3fef6fcbe78220251106170956" d="M 36.418,44.266 6.25,28.523 v 23.821 l 0.016,0.578 c 0.3,5.34 4.726,9.578 10.14,9.578 h 24.227 c -0.004,-0.129 -0.008,-0.262 -0.008,-0.391 v -0.32 c 0,-4.789 3.883,-8.664 8.664,-8.664 h 0.867 c -2.023,-1.984 -3.281,-4.754 -3.281,-7.813 0,-2.425 0.789,-4.667 2.129,-6.484 l -10.418,5.438 c -0.68,0.355 -1.492,0.355 -2.168,0 z M 36.301,6.578 9.688,22.402 9.156,22.754 C 8.645,23.125 8.188,23.562 7.797,24.047 L 37.5,39.543 67.203,24.047 C 66.684,23.398 66.047,22.84 65.312,22.402 L 38.699,6.578 38.371,6.418 c -0.668,-0.27 -1.437,-0.215 -2.07,0.16 z m 29.324,38.734 c 0,4.317 -3.496,7.813 -7.813,7.813 -4.316,0 -7.812,-3.496 -7.812,-7.813 0,-4.316 3.496,-7.812 7.812,-7.812 4.317,0 7.813,3.496 7.813,7.812 z m 6.25,16.797 c 0,4.864 -4.02,9.766 -14.063,9.766 -10.042,0 -14.062,-4.883 -14.062,-9.766 v -0.32 c 0,-3.062 2.48,-5.539 5.539,-5.539 h 17.047 c 3.059,0 5.539,2.477 5.539,5.539 z" style="fill:currentColor;fill-opacity:1;fill-rule:nonzero;stroke:none" transform="scale(1.3333333)" /> </g>
</svg>

