<?xml version="1.0" encoding="UTF-8" standalone="no"?> <svg version="1.1" id="Ida3a882efc6941e8804793969656cb9e20251106161453" width="100" height="100" viewBox="0 0 100 100" xmlns="http://www.w3.org/2000/svg" xmlns:svg="http://www.w3.org/2000/svg"> <defs id="I4f0839ac48634949bc6bf90f796d8e2b20251106161453" /> <g id="I5b2b636fe99e45db9169376be248cb3520251106161453"> <path id="I4c106554c0c34f939d4b7f972cbf448720251106161453" d="m 68.75,20.312 c 0,9.493 -7.695,17.188 -17.188,17.188 -9.492,0 -17.187,-7.695 -17.187,-17.188 0,-9.492 7.695,-17.187 17.187,-17.187 9.493,0 17.188,7.695 17.188,17.187 z m -21.875,6.61 c 0,1.215 1.324,1.965 2.367,1.34 l 11.024,-6.617 c 1.011,-0.606 1.011,-2.071 0,-2.68 L 49.242,12.352 c -1.043,-0.625 -2.367,0.125 -2.367,1.339 z M 19.531,12.5 h 13.278 c -0.621,1.48 -1.067,3.051 -1.321,4.688 H 19.531 c -3.019,0 -5.469,2.449 -5.469,5.468 V 25 h 17.731 c 0.391,1.648 0.98,3.223 1.746,4.688 H 14.062 V 43.75 h 14.243 c 1.195,0 2.164,0.969 2.164,2.164 v 0.18 c 0,3.883 3.148,7.031 7.031,7.031 3.883,0 7.031,-3.148 7.031,-7.031 v -0.18 c 0,-1.195 0.969,-2.164 2.164,-2.164 h 14.243 v -5.414 c 1.722,-0.898 3.3,-2.035 4.687,-3.367 v 23.625 c 0,5.609 -4.547,10.156 -10.156,10.156 H 19.531 C 13.922,68.75 9.375,64.203 9.375,58.594 V 22.656 C 9.375,17.047 13.922,12.5 19.531,12.5 Z" style="fill:currentColor;fill-opacity:1;fill-rule:nonzero;stroke:none" transform="scale(1.3333333)" /> </g>
</svg>

