<?xml version="1.0" encoding="UTF-8" standalone="no"?> <svg version="1.1" id="Idb1f3fafcfed406ba9aaa6c57b75914c20251106105802" width="100" height="100" viewBox="0 0 100 100" xmlns="http://www.w3.org/2000/svg" xmlns:svg="http://www.w3.org/2000/svg"> <defs id="Ib94e4061077a4fe7a828b62cf9ae4ade20251106105802" /> <g id="I2d8251a324c4452ba8d5408dac9d174c20251106105802"> <path id="I287b53d8316941f480ae929df0c5714520251106105802" d="M 15.402,4.02 H 8.707 c -0.371,0 -0.672,0.3 -0.672,0.668 v 65.624 c 0,0.368 0.301,0.668 0.672,0.668 h 6.695 c 0.368,0 0.668,-0.3 0.668,-0.668 V 4.688 C 16.07,4.32 15.77,4.02 15.402,4.02 Z m 48.883,0 h -38.84 c -1.48,0 -2.675,1.246 -2.675,2.785 v 61.383 c 0,1.539 1.195,2.785 2.675,2.785 h 38.84 c 1.481,0 2.68,-1.246 2.68,-2.785 V 6.805 c 0,-1.539 -1.199,-2.785 -2.68,-2.785 z M 42.188,64.957 H 28.793 V 50.223 h 13.395 z m 0,-20.09 H 28.793 V 30.133 h 13.395 z m 0,-20.09 H 28.793 V 10.043 h 13.395 z m 18.75,40.18 H 47.543 V 50.223 h 13.395 z m 0,-20.09 H 47.543 V 30.133 h 13.395 z m 0,-20.09 H 47.543 V 10.043 h 13.395 z" style="fill:currentColor;fill-opacity:1;fill-rule:nonzero;stroke:none" transform="scale(1.3333333)" /> </g>
</svg>

