<?xml version="1.0" encoding="UTF-8" standalone="no"?> <svg version="1.1" id="I847815c83de14dc398262821bbb9429120251106143238" width="100" height="100" viewBox="0 0 100 100" xmlns="http://www.w3.org/2000/svg" xmlns:svg="http://www.w3.org/2000/svg"> <defs id="Ib3a1ad797d3344a5b68f254be951886120251106143238" /> <g id="I7f933a2a109740d8a7655675b42217de20251106143238"> <path id="I209b749bb60f4dfbbad053f653eab89120251106143238" d="m 23.438,35.938 v -6.25 h 28.124 v 5.468 h -2.343 c -1.281,0 -2.492,0.282 -3.586,0.782 z M 56.25,27.344 v 7.812 h 3.906 c 2.078,0 3.985,0.739 5.469,1.965 V 21.039 c 1.867,-1.082 3.125,-3.101 3.125,-5.414 0,-3.453 -2.797,-6.25 -6.25,-6.25 h -50 c -3.453,0 -6.25,2.797 -6.25,6.25 0,2.313 1.258,4.332 3.125,5.414 v 42.242 c 0,1.293 1.051,2.344 2.344,2.344 H 18.75 V 49.219 c 0,-1.293 1.051,-2.344 2.344,-2.344 h 12.5 c 0.718,0 1.363,0.324 1.793,0.836 1.097,-1.93 2.992,-3.348 5.238,-3.805 V 43.75 c 0,-1.102 0.207,-2.156 0.586,-3.125 H 21.094 c -1.293,0 -2.344,-1.051 -2.344,-2.344 V 27.344 C 18.75,26.051 19.801,25 21.094,25 h 32.812 c 1.293,0 2.344,1.051 2.344,2.344 z M 10.938,15.625 c 0,-0.863 0.699,-1.563 1.562,-1.563 h 50 c 0.863,0 1.562,0.7 1.562,1.563 0,0.863 -0.699,1.563 -1.562,1.563 h -50 c -0.863,0 -1.562,-0.7 -1.562,-1.563 z M 31.25,51.562 V 65.625 H 23.438 V 51.562 Z m 12.5,-4.687 h -1.562 c -2.59,0 -4.688,2.098 -4.688,4.687 v 4.688 h 7.812 v -0.781 c 0,-1.293 1.051,-2.344 2.344,-2.344 1.293,0 2.344,1.051 2.344,2.344 v 0.781 h 9.375 v -0.781 c 0,-1.293 1.051,-2.344 2.344,-2.344 1.293,0 2.343,1.051 2.343,2.344 v 0.781 h 7.813 v -4.688 c 0,-2.589 -2.098,-4.687 -4.687,-4.687 H 65.625 V 43.75 c 0,-3.02 -2.449,-5.469 -5.469,-5.469 H 49.219 c -3.02,0 -5.469,2.449 -5.469,5.469 z m 4.688,-3.125 c 0,-0.43 0.351,-0.781 0.781,-0.781 h 10.937 c 0.43,0 0.782,0.351 0.782,0.781 v 3.125 h -12.5 z M 37.5,67.188 v -6.25 h 7.812 v 2.343 c 0,1.293 1.051,2.344 2.344,2.344 1.293,0 2.344,-1.051 2.344,-2.344 v -2.343 h 9.375 v 2.343 c 0,1.293 1.051,2.344 2.344,2.344 1.293,0 2.343,-1.051 2.343,-2.344 v -2.343 h 7.813 v 6.25 c 0,2.589 -2.098,4.687 -4.687,4.687 h -25 c -2.59,0 -4.688,-2.098 -4.688,-4.687 z" style="fill:currentColor;fill-opacity:1;fill-rule:nonzero;stroke:none" transform="scale(1.3333333)" /> </g>
</svg>

