<?xml version="1.0" encoding="UTF-8" standalone="no"?> <svg version="1.1" id="Idc0aa2a640e3448da12ef3a8d4f3ad9320251106152729" width="100" height="100" viewBox="0 0 100 100" xmlns="http://www.w3.org/2000/svg" xmlns:svg="http://www.w3.org/2000/svg"> <defs id="Iae4f9724807a42fb9e53f171dfecee8820251106152729" /> <g id="I1db616f97ebf4e34a6b771c36af770cd20251106152729"> <path id="Ifcc879c5543844da85f6bcd0d9356b2420251106152729" d="m 31.25,25.906 v 4.953 c -6.402,2.5 -10.938,8.727 -10.938,16.016 0,9.492 7.696,17.187 17.188,17.187 9.492,0 17.188,-7.695 17.188,-17.187 0,-7.035 -4.227,-13.082 -10.282,-15.742 l -0.652,-0.274 v -4.953 c 9.035,2.692 15.621,11.063 15.621,20.969 0,12.082 -9.793,21.875 -21.875,21.875 -12.082,0 -21.875,-9.793 -21.875,-21.875 0,-9.625 6.219,-17.801 14.855,-20.727 z m 0,8.367 v 5.614 c -1.918,1.715 -3.125,4.211 -3.125,6.988 0,5.18 4.195,9.375 9.375,9.375 5.18,0 9.375,-4.195 9.375,-9.375 0,-2.563 -1.027,-4.883 -2.691,-6.574 l -0.43,-0.41 v -5.614 c 4.629,2.301 7.808,7.078 7.808,12.598 0,7.766 -6.296,14.063 -14.062,14.063 -7.766,0 -14.062,-6.297 -14.062,-14.063 0,-5.281 2.91,-9.883 7.214,-12.285 z M 35.586,6.906 c 1.121,-0.875 2.707,-0.875 3.828,0 l 0.297,0.258 9.375,9.375 0.258,0.297 c 0.875,1.121 0.875,2.707 0,3.828 l -0.258,0.297 -0.297,0.258 c -1.121,0.875 -2.707,0.875 -3.828,0 L 44.664,20.961 40.625,16.922 V 46.875 C 40.625,48.602 39.227,50 37.5,50 35.898,50 34.578,48.793 34.395,47.238 l -0.02,-0.363 V 16.922 l -4.039,4.039 -0.297,0.258 c -1.227,0.953 -2.996,0.867 -4.125,-0.258 -1.125,-1.129 -1.211,-2.899 -0.258,-4.125 l 0.258,-0.297 9.375,-9.375 z" style="fill:currentColor;fill-opacity:1;fill-rule:nonzero;stroke:none" transform="scale(1.3333333)" /> </g>
</svg>

