<?xml version="1.0" encoding="UTF-8" standalone="no"?> <svg version="1.1" id="I9e45f36b23ba4ee9bd0dc7410e273cf220251106132945" width="100" height="100" viewBox="0 0 100 100" xmlns="http://www.w3.org/2000/svg" xmlns:svg="http://www.w3.org/2000/svg"> <defs id="Ie3b99430851c42afa68d85883ed6efc420251106132945" /> <g id="Idad9ec53d0664256aa9d1382a352e17920251106132945"> <path id="Idb0ba8c16b554e44badb658395ad86ef20251106132945" d="m 50.004,6.25 c 10.355,0 18.75,8.395 18.75,18.75 0,4.41 -1.535,8.582 -4.258,11.895 -1.976,-1.09 -4.156,-1.864 -6.465,-2.247 l 0.719,-0.718 0.496,-0.516 c 2.078,-2.281 3.258,-5.25 3.258,-8.414 0,-6.902 -5.598,-12.5 -12.5,-12.5 -3.32,0 -6.422,1.297 -8.734,3.559 l -0.485,0.5 -0.058,0.039 -29.141,29.152 c -1.223,1.223 -3.199,1.223 -4.422,0 -1.219,-1.219 -1.219,-3.195 0,-4.418 L 36.254,12.23 36.402,12.094 C 39.914,8.395 44.789,6.25 50.004,6.25 Z M 34.652,58.023 c 0.387,2.344 1.172,4.551 2.289,6.551 l -1.066,1.067 -0.164,0.156 -0.176,0.141 c -2.09,1.8 -4.762,2.812 -7.586,2.812 -6.422,0 -11.629,-5.207 -11.629,-11.629 0,-2.816 1.012,-5.48 2.801,-7.566 l 0.461,-0.508 0.047,-0.039 22.785,-22.824 c 1.219,-1.223 3.199,-1.223 4.422,-0.004 1.219,1.218 1.223,3.199 0.004,4.418 L 24.055,53.422 24.02,53.449 c -0.926,0.992 -1.45,2.285 -1.45,3.672 0,2.973 2.41,5.379 5.379,5.379 1.184,0 2.305,-0.383 3.223,-1.07 l 0.383,-0.317 v 0.004 z m 37.227,-3.335 c 0,9.492 -7.695,17.187 -17.188,17.187 -9.492,0 -17.187,-7.695 -17.187,-17.187 0,-9.493 7.695,-17.188 17.187,-17.188 9.493,0 17.188,7.695 17.188,17.188 z M 45.316,53.125 c -0.863,0 -1.562,0.699 -1.562,1.563 0,0.863 0.699,1.562 1.562,1.562 h 14.977 l -5.145,5.145 c -0.609,0.609 -0.609,1.601 0,2.21 0.61,0.61 1.598,0.61 2.211,0 l 7.813,-7.812 c 0.609,-0.609 0.609,-1.602 0,-2.211 L 57.359,45.77 c -0.613,-0.61 -1.601,-0.61 -2.211,0 -0.609,0.609 -0.609,1.601 0,2.21 l 5.145,5.145 z" style="fill:currentColor;fill-opacity:1;fill-rule:nonzero;stroke:none" transform="scale(1.3333333)" /> </g>
</svg>

