<?xml version="1.0" encoding="UTF-8" standalone="no"?> <svg version="1.1" id="I32ca1c3fc0d64d1f8bd7ccd8a2f376e220251106163937" width="100" height="100" viewBox="0 0 100 100" xmlns="http://www.w3.org/2000/svg" xmlns:svg="http://www.w3.org/2000/svg"> <defs id="Id29ca0ffa56e494f84a7c1b2d328872620251106163937" /> <g id="I4aab3df674c9427eb073f973573346fd20251106163937"> <path id="I60d1f8bcd889419ab35e694e75a9869d20251106163937" d="m 37.5,23.438 c 0,9.492 7.695,17.187 17.188,17.187 9.492,0 17.187,-7.695 17.187,-17.187 C 71.875,13.945 64.18,6.25 54.688,6.25 45.195,6.25 37.5,13.945 37.5,23.438 Z M 64.062,12.5 c 0.864,0 1.563,0.699 1.563,1.562 v 6.25 c 0,0.864 -0.699,1.563 -1.563,1.563 h -6.25 c -0.863,0 -1.562,-0.699 -1.562,-1.563 0,-0.863 0.699,-1.562 1.562,-1.562 h 3.126 c -1.426,-1.898 -3.696,-3.125 -6.25,-3.125 -2.606,0 -4.911,1.273 -6.333,3.238 -0.507,0.699 -1.484,0.856 -2.183,0.348 -0.699,-0.504 -0.856,-1.481 -0.348,-2.18 1.985,-2.742 5.215,-4.531 8.864,-4.531 3.062,0 5.828,1.258 7.812,3.281 v -1.719 c 0,-0.863 0.699,-1.562 1.562,-1.562 z M 46.875,31.094 v 1.718 c 0,0.864 -0.699,1.563 -1.563,1.563 -0.863,0 -1.562,-0.699 -1.562,-1.563 v -6.25 C 43.75,25.699 44.449,25 45.312,25 h 6.25 c 0.864,0 1.563,0.699 1.563,1.562 0,0.864 -0.699,1.563 -1.563,1.563 h -3.124 c 1.425,1.898 3.695,3.125 6.25,3.125 2.394,0 4.535,-1.074 5.972,-2.777 0.555,-0.657 1.543,-0.743 2.203,-0.184 0.657,0.555 0.742,1.543 0.184,2.203 -2.004,2.371 -5.004,3.883 -8.359,3.883 -3.063,0 -5.829,-1.258 -7.813,-3.281 z M 25,40.625 H 43.855 C 41.328,39.031 39.18,36.891 37.566,34.375 H 25 l -0.363,0.02 c -1.555,0.183 -2.762,1.503 -2.762,3.105 0,1.727 1.398,3.125 3.125,3.125 z M 15.625,18.75 h 19.293 c -0.356,1.504 -0.543,3.074 -0.543,4.688 0,0.527 0.02,1.046 0.059,1.562 H 15.625 C 13.898,25 12.5,23.602 12.5,21.875 c 0,-1.602 1.207,-2.922 2.762,-3.105 z M 30.887,50.02 31.25,50 h 12.5 c 1.727,0 3.125,1.398 3.125,3.125 0,1.602 -1.207,2.922 -2.762,3.105 l -0.363,0.02 h -12.5 c -1.727,0 -3.125,-1.398 -3.125,-3.125 0,-1.602 1.207,-2.922 2.762,-3.105 z" style="fill:currentColor;fill-opacity:1;fill-rule:nonzero;stroke:none" transform="scale(1.3333333)" /> </g>
</svg>

