<?xml version="1.0" encoding="UTF-8" standalone="no"?> <svg version="1.1" id="Ic719a2d1a10b40e59e2a6b5da74a6b1b20251106155157" width="100" height="100" viewBox="0 0 100 100" xmlns="http://www.w3.org/2000/svg" xmlns:svg="http://www.w3.org/2000/svg"> <defs id="I1ff72f6893d0407caf2ec8b5a8057be220251106155157" /> <g id="Id6b2efa1c3a54a48890c2352ac5492f320251106155157"> <path id="I58f7146e030045a2bed5d0ad781c2dc620251106155157" d="m 17.195,14.461 -0.007,6.633 v 13.519 c -1.637,0.254 -3.208,0.699 -4.688,1.321 v -14.84 c 0,-3.067 1.961,-5.672 4.695,-6.633 z M 55.457,60.949 H 39.641 c 0.484,-1.492 0.8,-3.062 0.925,-4.687 h 14.891 c 1.297,0 2.344,-1.047 2.344,-2.344 V 28.133 l -10.145,0.004 c -3.722,0 -6.765,-2.891 -7.015,-6.551 L 40.625,21.105 V 10.938 H 27.352 c -1.293,0 -2.344,1.05 -2.344,2.343 V 34.922 C 23.504,34.562 21.934,34.375 20.32,34.375 V 13.281 c 0,-3.883 3.149,-7.031 7.032,-7.031 h 13.675 c 1.864,0 3.653,0.742 4.973,2.062 L 60.434,22.75 c 1.316,1.32 2.054,3.109 2.054,4.973 v 26.195 c 0,3.883 -3.144,7.031 -7.031,7.031 z M 45.312,14.254 v 6.851 c 0,1.188 0.883,2.168 2.028,2.325 l 0.316,0.019 6.844,-0.004 z M 34.957,68.762 c 1.336,-1.387 2.473,-2.965 3.371,-4.688 l 15.942,0.004 c -0.965,2.731 -3.571,4.684 -6.629,4.684 z M 37.5,54.688 C 37.5,64.18 29.805,71.875 20.312,71.875 10.82,71.875 3.125,64.18 3.125,54.688 3.125,45.195 10.82,37.5 20.312,37.5 29.805,37.5 37.5,45.195 37.5,54.688 Z m -29.688,0 c 0,2.605 0.797,5.023 2.161,7.027 L 27.34,44.348 c -2.004,-1.364 -4.422,-2.16 -7.028,-2.16 -6.902,0 -12.5,5.597 -12.5,12.5 z m 12.5,12.5 c 6.903,0 12.5,-5.598 12.5,-12.5 0,-2.606 -0.796,-5.024 -2.16,-7.028 L 13.285,65.027 c 2.004,1.364 4.422,2.161 7.027,2.161 z" style="fill:currentColor;fill-opacity:1;fill-rule:nonzero;stroke:none" transform="scale(1.3333333)" /> </g>
</svg>

