<?xml version="1.0" encoding="UTF-8" standalone="no"?> <svg version="1.1" id="I0df1d69e3e9e47d2b3a270834827b7bc20251106102216" width="100" height="100" viewBox="0 0 100 100" xmlns="http://www.w3.org/2000/svg" xmlns:svg="http://www.w3.org/2000/svg"> <defs id="I17f6348853124de88297db39202614dc20251106102216" /> <g id="I170a53418b3649c197684056576b82c520251106102216"> <path id="I2cff84094daf4259b2ad47be94178c5a20251106102216" d="m 20.516,41.039 c -0.454,0.969 -0.454,2.082 0,3.047 3.699,7.812 9.418,11.828 17.027,11.828 7.609,0 13.324,-4.023 17.023,-11.828 0.454,-0.961 0.454,-2.074 0.008,-3.035 L 54.566,41.039 54.559,41.031 C 50.867,33.23 45.152,29.215 37.543,29.215 c -7.609,0 -13.328,4.023 -17.027,11.824 z M 37.543,34.57 c 5.195,0 8.988,2.512 11.809,7.992 -2.813,5.485 -6.614,7.997 -11.809,7.997 -5.199,0 -8.992,-2.512 -11.813,-7.997 2.821,-5.48 6.614,-7.992 11.813,-7.992 z" style="fill:currentColor;fill-opacity:1;fill-rule:nonzero;stroke:none" transform="scale(1.3333333)" /> <path id="Ic4070a944251438588d83fb1ef21363120251106102216" d="m 32.895,42.605 c 0,6.25 9.375,6.25 9.375,0 0,-6.25 -9.375,-6.25 -9.375,0 z" style="fill:currentColor;fill-opacity:1;fill-rule:nonzero;stroke:none" transform="scale(1.3333333)" /> <path id="Ic2882b41b861438ea79b0a882429ade720251106102216" d="M 68.305,19.621 H 38.254 L 28.434,10.23 C 28.309,10.113 28.145,10.047 27.973,10.043 H 6.695 c -1.48,0 -2.675,1.199 -2.675,2.68 v 49.554 c 0,1.481 1.195,2.68 2.675,2.68 h 61.61 c 1.48,0 2.675,-1.199 2.675,-2.68 V 22.301 c 0,-1.485 -1.195,-2.68 -2.675,-2.68 z M 64.957,58.93 H 10.043 V 16.07 h 15.781 l 10.012,9.578 h 29.121 z" style="fill:currentColor;fill-opacity:1;fill-rule:nonzero;stroke:none" transform="scale(1.3333333)" /> </g>
</svg>

