<?xml version="1.0" encoding="UTF-8" standalone="no"?>
<!-- Created with Inkscape (http://www.inkscape.org/) -->

<svg
   version="1.1"
   id="I6a55f233429045259a551849d2c3287d20251031115229"
   width="100"
   height="100"
   viewBox="0 0 100 100"
   sodipodi:docname="output.ai"
   xmlns:inkscape="http://www.inkscape.org/namespaces/inkscape"
   xmlns:sodipodi="http://sodipodi.sourceforge.net/DTD/sodipodi-0.dtd"
   xmlns="http://www.w3.org/2000/svg"
   xmlns:svg="http://www.w3.org/2000/svg">
  <defs
     id="Ibb7d0162e12245ba806357cdf8601dee20251031115229" />
  <sodipodi:namedview
     id="Ifc45352869734226b8897ee5bc59b76420251031115229"
     pagecolor="#ffffff"
     bordercolor="#000000"
     borderopacity="0.25"
     inkscape:showpageshadow="2"
     inkscape:pageopacity="0.0"
     inkscape:pagecheckerboard="0"
     inkscape:deskcolor="#d1d1d1">
    <inkscape:page
       x="0"
       y="0"
       inkscape:label="1"
       id="I16be2076c40b4ae1b71552afdec776a520251031115229"
       width="100"
       height="100"
       margin="0"
       bleed="0" />
  </sodipodi:namedview>
  <g
     id="I394d3cccc4504cf1933ae84e7bed394c20251031115229"
     inkscape:groupmode="layer"
     inkscape:label="1">
    <path
       id="I067dde1228c04c6bb52f8565b8bfe3cc20251031115229"
       d="M 65.586,9.414 C 61.371,5.199 54.535,5.199 50.32,9.414 l -37.761,37.77 c -1.192,1.187 -2.039,2.675 -2.457,4.308 l -3.79,14.82 c -0.171,0.668 0.024,1.376 0.508,1.864 0.489,0.488 1.2,0.683 1.868,0.512 l 14.82,-3.79 c 1.633,-0.414 3.125,-1.265 4.312,-2.457 L 65.586,24.676 c 4.215,-4.215 4.215,-11.047 0,-15.262 z m -12.5,2.762 c 2.687,-2.688 7.047,-2.688 9.738,0 2.688,2.687 2.688,7.047 0,9.738 l -3.449,3.449 -9.738,-9.738 z m -6.211,6.211 9.738,9.738 -31.554,31.555 c -0.696,0.695 -1.563,1.191 -2.516,1.437 L 10.914,64.09 13.887,52.461 c 0.246,-0.953 0.738,-1.82 1.433,-2.516 z"
       style="fill:#212121;fill-opacity:1;fill-rule:nonzero;stroke:none"
       transform="scale(1.3333333)" />
  </g>
</svg>



