<?xml version="1.0" encoding="UTF-8" standalone="no"?> <svg version="1.1" id="I51c8f341451449fd9b39581b61a9e78e20251110130509" width="100" height="100" viewBox="0 0 100 100" xmlns="http://www.w3.org/2000/svg" xmlns:svg="http://www.w3.org/2000/svg"> <defs id="I3f817139e4ca4344965f6761c5ea95b320251110130509" /> <g id="I356762cc16a0467d8a787f72f1e7162720251110130509"> <path id="I5065ffbf03274ac0a09f72ccbd0a336f20251110130509" d="m 9.375,21.094 c 0,-6.473 5.246,-11.719 11.719,-11.719 h 32.812 c 6.473,0 11.719,5.246 11.719,11.719 v 32.812 c 0,6.473 -5.246,11.719 -11.719,11.719 H 21.094 c -6.473,0 -11.719,-5.246 -11.719,-11.719 z m 30.469,28.125 c 0,1.293 1.051,2.343 2.344,2.343 h 10.546 c 1.293,0 2.344,-1.05 2.344,-2.343 0,-1.293 -1.051,-2.344 -2.344,-2.344 H 42.188 c -1.293,0 -2.344,1.051 -2.344,2.344 z m 2.344,-21.094 c -1.293,0 -2.344,1.051 -2.344,2.344 0,1.293 1.051,2.343 2.344,2.343 h 10.546 c 1.293,0 2.344,-1.05 2.344,-2.343 0,-1.293 -1.051,-2.344 -2.344,-2.344 z m -7.719,14.75 c -0.914,-0.918 -2.399,-0.918 -3.313,0 l -5.375,5.371 -1.847,-1.848 c -0.918,-0.914 -2.403,-0.914 -3.317,0 -0.914,0.914 -0.914,2.399 0,3.317 l 3.508,3.504 c 0.914,0.918 2.398,0.918 3.313,0 l 7.031,-7.031 c 0.918,-0.915 0.918,-2.399 0,-3.313 z m 0,-15.437 c 0.918,-0.915 0.918,-2.399 0,-3.313 -0.914,-0.918 -2.399,-0.918 -3.313,0 l -5.375,5.371 -1.847,-1.848 c -0.918,-0.914 -2.403,-0.914 -3.317,0 -0.914,0.914 -0.914,2.399 0,3.317 l 3.508,3.504 c 0.914,0.918 2.398,0.918 3.313,0 z" style="fill:currentColor;fill-opacity:1;fill-rule:nonzero;stroke:none" transform="scale(1.3333333)" /> </g>
</svg>

