<?xml version="1.0" encoding="UTF-8" standalone="no"?> <svg version="1.1" id="I129ef370a357472db81a089c8c0c973220251110130509" width="100" height="100" viewBox="0 0 100 100" xmlns="http://www.w3.org/2000/svg" xmlns:svg="http://www.w3.org/2000/svg"> <defs id="Ifdb2a68ba15d48789c1ab3a7c4c21a9a20251110130509" /> <g id="I73add8ddc5834b6c8dc2fff41c94b8c620251110130509"> <path id="I7fea2c185c424241b7cc7dfdc88bc72d20251110130509" d="m 54.688,37.5 c 9.492,0 17.187,7.695 17.187,17.188 0,9.492 -7.695,17.187 -17.187,17.187 C 45.195,71.875 37.5,64.18 37.5,54.688 37.5,45.195 45.195,37.5 54.688,37.5 Z M 25,65.625 H 19.531 C 13.922,65.625 9.375,61.078 9.375,55.469 V 50 H 25 Z M 34.926,50 c -0.356,1.504 -0.551,3.074 -0.551,4.688 0,4.027 1.18,7.781 3.203,10.937 h -7.89 V 50 Z m 27.117,-2.668 c -0.609,-0.609 -1.602,-0.609 -2.211,0 l -5.144,5.145 -5.145,-5.145 c -0.609,-0.609 -1.602,-0.609 -2.211,0 -0.609,0.609 -0.609,1.602 0,2.211 l 5.145,5.145 -5.145,5.144 c -0.609,0.609 -0.609,1.602 0,2.211 0.609,0.609 1.602,0.609 2.211,0 l 5.145,-5.145 5.144,5.145 c 0.609,0.609 1.602,0.609 2.211,0 0.609,-0.609 0.609,-1.602 0,-2.211 l -5.145,-5.144 5.145,-5.145 c 0.609,-0.609 0.609,-1.602 0,-2.211 z M 55.469,9.375 c 5.609,0 10.156,4.547 10.156,10.156 v 18.047 c -3.156,-2.023 -6.91,-3.203 -10.937,-3.203 -1.614,0 -3.184,0.195 -4.688,0.551 V 29.688 H 60.938 V 19.531 c 0,-3.019 -2.45,-5.469 -5.469,-5.469 H 19.531 c -3.019,0 -5.469,2.45 -5.469,5.469 V 29.688 H 25 V 45.312 H 9.375 V 19.531 c 0,-5.609 4.547,-10.156 10.156,-10.156 z M 45.312,36.668 c -3.695,1.926 -6.718,4.949 -8.644,8.644 h -6.98 V 29.688 h 15.624 z" style="fill:currentColor;fill-opacity:1;fill-rule:nonzero;stroke:none" transform="scale(1.3333333)" /> </g>
</svg>

