<?xml version="1.0" encoding="UTF-8" standalone="no"?> <svg version="1.1" id="If164d6f6d4ea4b73b389d34bb503bedb20251110124421" width="100" height="100" viewBox="0 0 100 100" xmlns="http://www.w3.org/2000/svg" xmlns:svg="http://www.w3.org/2000/svg"> <defs id="I852ba0a380ed46528544dd6e542cc64e20251110124421" /> <g id="Ic7e9021f7d4c4676aef8176df2dd9d5a20251110124421"> <path id="Ib3975f781854423291aacc223de6377d20251110124421" d="m 26.785,44.195 c -9.613,0 -17.41,-7.793 -17.41,-17.41 0,-9.613 7.797,-17.41 17.41,-17.41 9.617,0 17.41,7.797 17.41,17.41 h 4.02 c 0,-11.836 -9.594,-21.43 -21.43,-21.43 -11.836,0 -21.43,9.594 -21.43,21.43 0,11.836 9.594,21.43 21.43,21.43 z m 12.723,-14.73 c -5.547,0 -10.043,4.496 -10.043,10.043 v 20.09 c 0,5.547 4.496,10.047 10.043,10.047 h 20.09 c 5.547,0 10.047,-4.5 10.047,-10.047 v -20.09 c 0,-5.547 -4.5,-10.043 -10.047,-10.043 z M 33.48,39.508 c 0,-3.328 2.7,-6.028 6.028,-6.028 h 20.09 c 3.328,0 6.027,2.7 6.027,6.028 v 20.09 c 0,3.328 -2.699,6.027 -6.027,6.027 h -20.09 c -3.328,0 -6.028,-2.699 -6.028,-6.027 z" style="fill:currentColor;fill-opacity:1;fill-rule:nonzero;stroke:none" transform="scale(1.3333333)" /> </g>
</svg>

