<?xml version="1.0" encoding="UTF-8" standalone="no"?> <svg version="1.1" id="I9cf614c51c9f4706beaf3e2119a1ac2320251110124421" width="100" height="100" viewBox="0 0 100 100" xmlns="http://www.w3.org/2000/svg" xmlns:svg="http://www.w3.org/2000/svg"> <defs id="I48089ca7b0cf488dbd549637e4b04d1b20251110124421" /> <g id="Ieb7d18df6a1a476db3d28bd1c849d5f320251110124421"> <path id="Ie9f80ee370b04907acb7e5e41367440d20251110124421" d="m 59.004,20.809 c 1,0.671 2.203,1.066 3.496,1.066 0.223,0 0.445,-0.012 0.664,-0.035 3.141,-0.332 5.586,-2.988 5.586,-6.215 0,-3.453 -2.797,-6.25 -6.25,-6.25 -2.621,0 -4.867,1.617 -5.797,3.906 -0.023,0.063 -0.051,0.129 -0.074,0.196 -0.246,0.668 -0.379,1.394 -0.379,2.148 0,0.828 0.16,1.621 0.453,2.344 0.414,1.023 1.094,1.914 1.953,2.582 0.114,0.09 0.231,0.176 0.348,0.258 z M 43.75,59.375 c 0,3.453 2.797,6.25 6.25,6.25 3.453,0 6.25,-2.797 6.25,-6.25 0,-3.453 -2.797,-6.25 -6.25,-6.25 -3.453,0 -6.25,2.797 -6.25,6.25 z m -31.25,6.25 c -3.453,0 -6.25,-2.797 -6.25,-6.25 0,-3.234 2.461,-5.898 5.609,-6.219 0.211,-0.019 0.426,-0.031 0.641,-0.031 1.449,0 2.785,0.492 3.848,1.324 0.855,0.668 1.535,1.559 1.949,2.582 0.023,0.063 0.051,0.129 0.074,0.196 0.246,0.668 0.379,1.394 0.379,2.148 0,0.828 -0.16,1.621 -0.453,2.344 -0.93,2.289 -3.176,3.906 -5.797,3.906 z m 9.004,-44.816 c 1,0.671 2.203,1.066 3.496,1.066 0.223,0 0.445,-0.012 0.664,-0.035 2.332,-0.246 4.285,-1.778 5.133,-3.871 0.023,-0.063 0.051,-0.129 0.074,-0.196 0.246,-0.668 0.379,-1.394 0.379,-2.148 0,-0.828 -0.16,-1.621 -0.453,-2.344 C 29.867,10.992 27.621,9.375 25,9.375 c -3.453,0 -6.25,2.797 -6.25,6.25 0,2 0.941,3.785 2.406,4.926 0.114,0.09 0.231,0.176 0.348,0.258 z m -1.25,2.902 -7.512,26.293 c 1.641,0.039 3.18,0.504 4.508,1.285 l 7.512,-26.293 c -1.645,-0.039 -3.18,-0.504 -4.508,-1.285 z M 53.422,17.969 H 34.078 c 0.195,-0.75 0.297,-1.535 0.297,-2.344 0,-0.809 -0.102,-1.594 -0.297,-2.344 h 19.344 c -0.195,0.75 -0.297,1.535 -0.297,2.344 0,0.809 0.102,1.594 0.297,2.344 z m -12.5,43.75 c -0.195,-0.75 -0.297,-1.535 -0.297,-2.344 0,-0.809 0.102,-1.594 0.297,-2.344 H 21.578 c 0.195,0.75 0.297,1.535 0.297,2.344 0,0.809 -0.102,1.594 -0.297,2.344 z m 9.32,-11.715 7.512,-26.293 c 1.328,0.781 2.863,1.246 4.508,1.285 L 54.75,51.289 c -1.328,-0.781 -2.867,-1.246 -4.508,-1.285 z" style="fill:currentColor;fill-opacity:1;fill-rule:nonzero;stroke:none" transform="scale(1.3333333)" /> </g>
</svg>

