<?xml version="1.0" encoding="UTF-8" standalone="no"?> <svg version="1.1" id="Iec208f4c3e154d47acb56e3bca70909620251110130508" width="100" height="100" viewBox="0 0 100 100" xmlns="http://www.w3.org/2000/svg" xmlns:svg="http://www.w3.org/2000/svg"> <defs id="I6e78d1be7e9943c39e454f2756bbaf8b20251110130508" /> <g id="Ia9a53360ffda4cfb80ff0f861785ba6f20251110130508"> <path id="Idc21448242044540813763059324dc2020251110130508" d="M 26.25,45 C 28.32,45 30,43.32 30,41.25 30,39.18 28.32,37.5 26.25,37.5 c -2.07,0 -3.75,1.68 -3.75,3.75 0,2.07 1.68,3.75 3.75,3.75 z m 15,-3.75 c 0,2.07 -1.68,3.75 -3.75,3.75 -2.07,0 -3.75,-1.68 -3.75,-3.75 0,-2.07 1.68,-3.75 3.75,-3.75 2.07,0 3.75,1.68 3.75,3.75 z m 7.5,3.75 c 2.07,0 3.75,-1.68 3.75,-3.75 0,-2.07 -1.68,-3.75 -3.75,-3.75 -2.07,0 -3.75,1.68 -3.75,3.75 0,2.07 1.68,3.75 3.75,3.75 z M 11.25,20.625 c 0,-5.176 4.199,-9.375 9.375,-9.375 h 33.75 c 5.176,0 9.375,4.199 9.375,9.375 v 33.75 c 0,5.176 -4.199,9.375 -9.375,9.375 h -33.75 c -5.176,0 -9.375,-4.199 -9.375,-9.375 z M 20.625,15 C 17.52,15 15,17.52 15,20.625 v 33.75 C 15,57.48 17.52,60 20.625,60 h 33.75 C 57.48,60 60,57.48 60,54.375 V 26.25 H 35.625 C 32.52,26.25 30,23.73 30,20.625 V 15 Z M 60,20.625 C 60,17.52 57.48,15 54.375,15 H 33.75 v 5.625 c 0,1.035 0.84,1.875 1.875,1.875 H 60 Z" style="fill:currentColor;fill-opacity:1;fill-rule:nonzero;stroke:none" transform="scale(1.3333333)" /> </g>
</svg>

