<?xml version="1.0" encoding="UTF-8" standalone="no"?> <svg version="1.1" id="I6b48356a3e6c4924a990148c9d99677420251110123030" width="100" height="100" viewBox="0 0 100 100" xmlns="http://www.w3.org/2000/svg" xmlns:svg="http://www.w3.org/2000/svg"> <defs id="I07af2c3d9d004106a7e60cd2e007ecac20251110123030" /> <g id="Ib3b78a85f5a148f3984fc6b5eb21922d20251110123030"> <path id="I23db0c9f28934d7bb73b6a5b67e20b0a20251110123030" d="M 5.355,37.5 C 5.355,19.746 19.746,5.355 37.5,5.355 55.254,5.355 69.645,19.746 69.645,37.5 69.645,55.254 55.254,69.645 37.5,69.645 19.746,69.645 5.355,55.254 5.355,37.5 Z M 46.246,19.344 c -0.777,-0.793 -2.031,-0.793 -2.808,0 -0.774,0.797 -0.774,2.082 0,2.879 8.234,8.437 8.234,22.121 0,30.558 -0.774,0.793 -0.774,2.082 0,2.875 0.777,0.797 2.031,0.797 2.808,0 9.781,-10.027 9.781,-26.285 0,-36.312 z m -12.848,5.347 c -0.781,0.786 -0.781,2.059 0,2.848 5.489,5.5 5.489,14.418 0,19.918 -0.781,0.785 -0.781,2.059 0,2.844 0.786,0.785 2.055,0.785 2.84,0 7.051,-7.071 7.051,-18.535 0,-25.61 -0.785,-0.785 -2.054,-0.785 -2.84,0 z m -7.14,5.356 c -0.797,-0.77 -2.094,-0.77 -2.891,0 -0.801,0.769 -0.801,2.019 0,2.789 2.672,2.574 2.672,6.754 0,9.328 -0.801,0.774 -0.801,2.02 0,2.789 0.797,0.774 2.094,0.774 2.891,0 4.269,-4.117 4.269,-10.789 0,-14.906 z" style="fill:currentColor;fill-opacity:1;fill-rule:nonzero;stroke:none" transform="scale(1.3333333)" /> </g>
</svg>

