<?xml version="1.0" encoding="UTF-8" standalone="no"?> <svg version="1.1" id="I766d687dd14d45dcabfe467bc357873820251106165302" width="100" height="100" viewBox="0 0 100 100" xmlns="http://www.w3.org/2000/svg" xmlns:svg="http://www.w3.org/2000/svg"> <defs id="I02e5836100f045b2b463b31a681f8b6620251106165302" /> <g id="I57a189e3cd9a495aa5c64b71d6a210a120251106165302"> <path id="Ie3e8ce019c264c59945d4edc068775b620251106165302" d="M 10.168,9.156 C 10.285,7.867 11.43,6.922 12.719,7.043 l 11.703,1.094 c 8.289,0.82 16.226,1.808 22.742,2.933 6.398,1.102 11.766,2.383 14.652,3.907 0.739,0.39 1.496,0.886 2.067,1.535 0.601,0.687 1.133,1.726 0.91,2.992 -0.207,1.164 -0.961,1.976 -1.629,2.5 -0.691,0.543 -1.574,1.004 -2.555,1.41 -3.855,1.598 -11.234,3.141 -22.898,4.668 -7.438,0.973 -12.176,1.922 -14.871,2.777 0.078,0.024 0.16,0.051 0.242,0.075 1.281,0.378 2.918,0.75 4.836,1.105 3.832,0.703 8.652,1.305 13.762,1.762 3.875,0.347 8.023,0.894 11.554,1.594 1.762,0.347 3.407,0.742 4.805,1.175 1.348,0.418 2.652,0.93 3.602,1.59 0.472,0.328 1.047,0.817 1.418,1.531 0.429,0.825 0.511,1.813 0.093,2.75 -0.363,0.809 -0.992,1.356 -1.531,1.719 -0.562,0.379 -1.238,0.703 -1.98,0.988 -2.895,1.118 -8.137,2.161 -16.368,3.145 -8.179,0.977 -13.175,2.219 -15.968,3.488 -1.399,0.633 -2.032,1.18 -2.282,1.508 -0.152,0.203 -0.132,0.262 -0.121,0.305 l 0.004,0.011 c 0.051,0.188 0.258,0.606 0.903,1.223 0.617,0.594 1.496,1.231 2.597,1.883 2.196,1.297 5.004,2.488 7.703,3.414 l 10.149,3.27 c 1.23,0.394 1.906,1.718 1.512,2.949 -0.399,1.23 -1.719,1.91 -2.954,1.511 L 34.613,64.566 c -2.886,-0.988 -6.023,-2.304 -8.59,-3.82 -1.285,-0.758 -2.488,-1.605 -3.457,-2.531 -0.945,-0.906 -1.836,-2.051 -2.195,-3.426 -0.394,-1.519 -0.07,-3.035 0.926,-4.344 0.918,-1.203 2.34,-2.148 4.07,-2.933 3.473,-1.578 9.063,-2.887 17.352,-3.875 7.144,-0.852 11.636,-1.715 14.195,-2.504 C 56.828,41.102 56.738,41.074 56.648,41.047 55.461,40.676 53.992,40.32 52.324,39.992 48.992,39.336 45.016,38.805 41.262,38.469 36.066,38.004 31.094,37.387 27.07,36.648 25.062,36.277 23.25,35.871 21.75,35.426 20.309,35 18.938,34.477 17.965,33.785 c -0.485,-0.34 -1.098,-0.883 -1.442,-1.691 -0.406,-0.957 -0.3,-1.973 0.188,-2.817 0.422,-0.722 1.059,-1.218 1.613,-1.562 0.586,-0.363 1.285,-0.68 2.063,-0.969 3.054,-1.133 8.453,-2.23 16.715,-3.312 11.71,-1.532 18.503,-3.02 21.714,-4.348 0.141,-0.059 0.274,-0.117 0.395,-0.172 -2.289,-1.062 -6.75,-2.176 -12.84,-3.226 -6.363,-1.094 -14.18,-2.071 -22.406,-2.887 L 12.281,11.707 C 10.992,11.59 10.047,10.445 10.168,9.156 Z" style="fill:currentColor;fill-opacity:1;fill-rule:nonzero;stroke:none" transform="scale(1.3333333)" /> </g>
</svg>

