<?xml version="1.0" encoding="UTF-8" standalone="no"?> <svg version="1.1" id="Iea52f4460879490f9c50904c9f867c1620251106152728" width="100" height="100" viewBox="0 0 100 100" xmlns="http://www.w3.org/2000/svg" xmlns:svg="http://www.w3.org/2000/svg"> <defs id="If2703ada3f694959b9b8c67ab760a86d20251106152728" /> <g id="Idcd6e7f7a59e4a8d80fcce1538e69cdf20251106152728"> <path id="Id0340f09681740bfa6f26517a45bbf9d20251106152728" d="M 8.785,5.945 C 8.004,5.16 6.73,5.16 5.945,5.945 5.16,6.73 5.16,8.004 5.945,8.785 l 2.274,2.274 c -1.77,1.812 -2.864,4.289 -2.864,7.023 v 28.125 c 0,5.547 4.5,10.043 10.047,10.043 h 3.348 v 8.828 c 0,3.82 4.328,6.039 7.43,3.801 L 43.684,56.25 h 9.726 l 12.801,12.805 c 0.785,0.785 2.059,0.785 2.844,0 0.785,-0.785 0.785,-2.055 0,-2.84 z M 49.391,52.23 H 42.387 L 23.828,65.621 c -0.441,0.32 -1.058,0.004 -1.058,-0.543 V 52.23 h -7.368 c -3.328,0 -6.027,-2.695 -6.027,-6.023 V 18.082 c 0,-1.625 0.641,-3.098 1.684,-4.18 z M 16.559,8.035 l 4.019,4.02 h 39.02 c 3.328,0 6.027,2.695 6.027,6.027 v 28.125 c 0,2.965 -2.141,5.43 -4.965,5.93 l 3.176,3.179 c 3.43,-1.601 5.809,-5.078 5.809,-9.109 V 18.082 c 0,-5.551 -4.5,-10.047 -10.047,-10.047 z" style="fill:currentColor;fill-opacity:1;fill-rule:nonzero;stroke:none" transform="scale(1.3333333)" /> </g>
</svg>

