<?xml version="1.0" encoding="UTF-8" standalone="no"?> <svg version="1.1" id="Idbc107e185b6417f967daf75e69403e520251106171633" width="100" height="100" viewBox="0 0 100 100" xmlns="http://www.w3.org/2000/svg" xmlns:svg="http://www.w3.org/2000/svg"> <defs id="Idd914e5a4fad43b4b049ba0b03e23a3d20251106171633" /> <g id="I1025f3bdb536493492e19dce1ca5624b20251106171633"> <path id="I4d38dcb76e074a80be06b986e71fed4f20251106171633" d="m 5.355,15.402 c 0,-1.109 0.903,-2.007 2.012,-2.007 h 60.266 c 1.109,0 2.012,0.898 2.012,2.007 0,1.11 -0.903,2.008 -2.012,2.008 H 7.367 c -1.109,0 -2.012,-0.898 -2.012,-2.008 z m 0,42.856 c 0,-1.11 0.903,-2.008 2.012,-2.008 H 37.5 v 4.02 H 7.367 c -1.109,0 -2.012,-0.903 -2.012,-2.012 z M 62.277,37.5 c 1.578,0 3.039,0.496 4.235,1.34 h 1.121 c 1.109,0 2.012,-0.899 2.012,-2.008 0,-1.109 -0.903,-2.012 -2.012,-2.012 H 7.367 c -1.109,0 -2.012,0.903 -2.012,2.012 0,1.109 0.903,2.008 2.012,2.008 h 41.297 c 1.199,-0.844 2.66,-1.34 4.238,-1.34 z m -14.062,7.367 c 0,-2.59 2.097,-4.687 4.687,-4.687 h 9.375 c 2.59,0 4.688,2.097 4.688,4.687 v 3.348 h 3.347 c 2.59,0 4.688,2.097 4.688,4.687 v 17.41 C 75,72.902 72.902,75 70.312,75 H 44.867 c -2.59,0 -4.687,-2.098 -4.687,-4.688 v -17.41 c 0,-2.59 2.097,-4.687 4.687,-4.687 h 3.348 z m 4.687,-0.672 c -0.371,0 -0.672,0.301 -0.672,0.672 v 3.348 h 10.715 v -3.348 c 0,-0.371 -0.297,-0.672 -0.668,-0.672 z" style="fill:currentColor;fill-opacity:1;fill-rule:nonzero;stroke:none" transform="scale(1.3333333)" /> </g>
</svg>

