<?xml version="1.0" encoding="UTF-8" standalone="no"?> <svg version="1.1" id="Ifd4dd945f1a0499b8d744c6c08bd50b420251110124420" width="100" height="100" viewBox="0 0 100 100" xmlns="http://www.w3.org/2000/svg" xmlns:svg="http://www.w3.org/2000/svg"> <defs id="Ia848ed0f181342c193112e0d84676d1d20251110124420" /> <g id="I7159e03a254a4a6683464aaddfa08ea220251110124420"> <path id="I389450f944af4ebabe38f1db6e09219b20251110124420" d="M 6.25,22.656 C 6.25,17.047 10.797,12.5 16.406,12.5 h 42.188 c 5.609,0 10.156,4.547 10.156,10.156 v 29.688 c 0,5.609 -4.547,10.156 -10.156,10.156 h -19.61 l -4.687,-4.688 h 24.297 c 3.019,0 5.468,-2.449 5.468,-5.468 V 22.656 c 0,-3.019 -2.449,-5.468 -5.468,-5.468 H 16.406 c -3.019,0 -5.468,2.449 -5.468,5.468 v 9.766 C 9.223,33.09 7.645,34.027 6.25,35.18 Z M 17.188,62.5 c 3.035,0 5.847,-0.961 8.148,-2.602 l 8.164,8.164 c 0.914,0.918 2.398,0.918 3.312,0 0.918,-0.914 0.918,-2.398 0,-3.312 l -8.164,-8.164 c 1.641,-2.301 2.602,-5.109 2.602,-8.148 0,-7.766 -6.297,-14.063 -14.062,-14.063 -7.766,0 -14.063,6.297 -14.063,14.063 0,7.765 6.297,14.062 14.063,14.062 z m 0,-4.688 c -5.176,0 -9.376,-4.195 -9.376,-9.374 0,-5.18 4.2,-9.376 9.376,-9.376 5.175,0 9.374,4.196 9.374,9.376 0,5.179 -4.199,9.374 -9.374,9.374 z" style="fill:currentColor;fill-opacity:1;fill-rule:nonzero;stroke:none" transform="scale(1.3333333)" /> </g>
</svg>

