<?xml version="1.0" encoding="UTF-8" standalone="no"?> <svg version="1.1" id="Ib39da81677af462681c3116c141342d520251106154012" width="100" height="100" viewBox="0 0 100 100" xmlns="http://www.w3.org/2000/svg" xmlns:svg="http://www.w3.org/2000/svg"> <defs id="Ica6ffc8cbbb7407eb0e31111792fcabf20251106154012" /> <g id="Ic8c5ba129888466aa82d1082d0496cfb20251106154012"> <path id="Ib534840203a94dc4bd81865c4d783a7620251106154012" d="m 60.148,23.449 c 4.75,0 8.602,-3.851 8.602,-8.601 0,-4.746 -3.852,-8.598 -8.602,-8.598 H 14.844 c -4.75,0 -8.602,3.852 -8.602,8.598 0,4.75 3.852,8.601 8.602,8.601 z m -6.25,21.875 c 4.75,0 8.602,-3.851 8.602,-8.597 0,-4.75 -3.852,-8.602 -8.602,-8.602 H 21.094 c -4.75,0 -8.602,3.852 -8.602,8.602 0,4.746 3.852,8.597 8.602,8.597 z M 53.125,58.602 C 53.125,53.852 49.273,50 44.523,50 H 30.469 c -4.75,0 -8.602,3.852 -8.602,8.602 0,4.746 3.852,8.597 8.602,8.597 h 14.054 c 4.75,0 8.602,-3.851 8.602,-8.597 z" style="fill:currentColor;fill-opacity:1;fill-rule:nonzero;stroke:none" transform="scale(1.3333333)" /> </g>
</svg>

