<?xml version="1.0" encoding="UTF-8" standalone="no"?> <svg version="1.1" id="I6e39892d00be40e09c65a2e90936a03c20251110124419" width="100" height="100" viewBox="0 0 100 100" xmlns="http://www.w3.org/2000/svg" xmlns:svg="http://www.w3.org/2000/svg"> <defs id="I012889743c6948109e8e11abfadaaf6c20251110124419" /> <g id="I0e14c4acdd9c4e259a5eb262a0395b7820251110124419"> <path id="Icf03a4004bd64a079112a940e0297e8e20251110124419" d="m 32.031,6.25 c 1.188,0 2.168,0.883 2.324,2.027 l 0.02,0.317 0.004,14.98 c 8.91,1.067 15.98,8.137 17.047,17.051 h 14.98 c 1.293,0 2.344,1.051 2.344,2.344 0,1.187 -0.883,2.168 -2.027,2.324 l -0.317,0.019 -14.98,0.004 c -1.071,8.911 -8.137,15.977 -17.047,17.043 l -0.004,4.047 c 0,1.293 -1.047,2.344 -2.344,2.344 -1.187,0 -2.168,-0.883 -2.32,-2.027 L 29.688,66.406 V 62.359 C 20.777,61.293 13.707,54.227 12.641,45.316 L 8.594,45.312 c -1.293,0 -2.344,-1.05 -2.344,-2.343 0,-1.188 0.883,-2.168 2.027,-2.321 l 0.317,-0.023 h 4.047 C 13.703,31.711 20.773,24.641 29.688,23.574 V 8.594 c 0,-1.293 1.05,-2.344 2.343,-2.344 z m 0,17.188 c -0.793,0 -1.574,0.046 -2.343,0.136 V 40.625 H 12.641 c -0.094,0.77 -0.141,1.551 -0.141,2.344 0,0.793 0.047,1.578 0.141,2.347 l 17.047,-0.004 v 17.047 c 0.769,0.094 1.55,0.141 2.343,0.141 0.793,0 1.578,-0.047 2.348,-0.141 l -0.004,-17.047 17.051,0.004 c 0.09,-0.769 0.136,-1.554 0.136,-2.347 0,-0.793 -0.046,-1.574 -0.136,-2.344 H 34.375 l 0.004,-17.051 c -0.77,-0.09 -1.555,-0.136 -2.348,-0.136 z" style="fill:currentColor;fill-opacity:1;fill-rule:nonzero;stroke:none" transform="scale(1.3333333)" /> </g>
</svg>

