<?xml version="1.0" encoding="UTF-8" standalone="no"?> <svg version="1.1" id="Ibc94ba8f05c74d389872cfbe0b47c57420251106123559" width="100" height="100" viewBox="0 0 100 100" xmlns="http://www.w3.org/2000/svg" xmlns:svg="http://www.w3.org/2000/svg"> <defs id="I8844a9be31384383b1b347ecf9c9287c20251106123559" /> <g id="I217be8d6ae9344aa94c6c72ad26f8b9f20251106123559"> <path id="I991e52ce2bb6415bba5c37ca1c79c1b420251106123559" d="m 16.406,9.375 c -3.883,0 -7.031,3.148 -7.031,7.031 v 34.375 c 0,3.883 3.148,7.031 7.031,7.031 h 34.375 c 3.883,0 7.031,-3.148 7.031,-7.031 V 16.406 c 0,-3.883 -3.148,-7.031 -7.031,-7.031 z m -2.344,7.031 c 0,-1.293 1.051,-2.344 2.344,-2.344 h 34.375 c 1.293,0 2.344,1.051 2.344,2.344 v 34.375 c 0,1.293 -1.051,2.344 -2.344,2.344 H 16.406 c -1.293,0 -2.344,-1.051 -2.344,-2.344 z m 10.157,49.219 c -3.063,0 -5.664,-1.957 -6.633,-4.687 h 33.195 c 5.61,0 10.157,-4.547 10.157,-10.157 V 17.586 c 2.73,0.965 4.687,3.57 4.687,6.633 v 26.562 c 0,8.199 -6.645,14.844 -14.844,14.844 z m 9.375,-45.313 c 1.293,0 2.344,1.051 2.344,2.344 v 8.594 h 8.593 c 1.293,0 2.344,1.051 2.344,2.344 0,1.293 -1.051,2.344 -2.344,2.344 h -8.593 v 8.593 c 0,1.293 -1.051,2.344 -2.344,2.344 -1.293,0 -2.344,-1.051 -2.344,-2.344 v -8.593 h -8.594 c -1.293,0 -2.344,-1.051 -2.344,-2.344 0,-1.293 1.051,-2.344 2.344,-2.344 h 8.594 v -8.594 c 0,-1.293 1.051,-2.344 2.344,-2.344 z" style="fill:currentColor;fill-opacity:1;fill-rule:nonzero;stroke:none" transform="scale(1.3333333)" /> </g>
</svg>

