<?xml version="1.0" encoding="UTF-8" standalone="no"?> <svg version="1.1" id="I344d0abf77d54454861cdcfef85ea91220251110123031" width="100" height="100" viewBox="0 0 100 100" xmlns="http://www.w3.org/2000/svg" xmlns:svg="http://www.w3.org/2000/svg"> <defs id="If633993097c544f9b2b3b471e415b1d620251110123031" /> <g id="Iecb977c287f54e948cec90dad43d931420251110123031"> <path id="Ia09b54117f67433a8026fd8351591d1420251110123031" d="M 42.969,6.25 C 46.852,6.25 50,9.398 50,13.281 v 21.094 h -0.781 c -1.407,0 -2.735,0.336 -3.907,0.937 V 13.281 c 0,-1.293 -1.05,-2.343 -2.343,-2.343 H 19.531 c -1.293,0 -2.343,1.05 -2.343,2.343 v 48.438 c 0,1.293 1.05,2.343 2.343,2.343 h 14.844 v 3.126 c 0,0.535 0.055,1.058 0.156,1.562 h -15 C 15.648,68.75 12.5,65.602 12.5,61.719 V 13.281 C 12.5,9.398 15.648,6.25 19.531,6.25 Z M 27.34,54.699 34.375,54.688 v 4.687 l -7.027,0.012 C 26.055,59.391 25,58.34 25,57.047 c 0,-1.293 1.047,-2.344 2.34,-2.348 z m 16.41,-11.73 v 3.906 h -1.562 c -2.59,0 -4.688,2.098 -4.688,4.687 v 15.626 c 0,2.589 2.098,4.687 4.688,4.687 h 25 c 2.589,0 4.687,-2.098 4.687,-4.687 V 51.562 c 0,-2.589 -2.098,-4.687 -4.687,-4.687 h -1.563 v -3.906 c 0,-3.02 -2.449,-5.469 -5.469,-5.469 H 49.219 c -3.02,0 -5.469,2.449 -5.469,5.469 z m 4.688,0 c 0,-0.43 0.351,-0.781 0.781,-0.781 h 10.937 c 0.43,0 0.782,0.351 0.782,0.781 v 3.906 h -12.5 z" style="fill:currentColor;fill-opacity:1;fill-rule:nonzero;stroke:none" transform="scale(1.3333333)" /> </g>
</svg>

