<?xml version="1.0" encoding="UTF-8" standalone="no"?> <svg version="1.1" id="Id24ae2a8fedd45459df5d9f3b9efc4b520251106171633" width="100" height="100" viewBox="0 0 100 100" xmlns="http://www.w3.org/2000/svg" xmlns:svg="http://www.w3.org/2000/svg"> <defs id="Ia08522ac242d4c8dbf491e229048cacd20251106171633" /> <g id="Idbea52d6f4b94395ae29f810c51f3fba20251106171633"> <path id="Ib2252cd8def34b898499a34fc9d21e2620251106171633" d="m 61.652,12.109 0.16,0.5 1.723,6.008 c 0.328,1.141 -0.25,2.324 -1.308,2.789 l -0.297,0.11 -33.524,9.609 34.871,0.004 c 1.188,0 2.168,0.879 2.325,2.023 l 0.019,0.321 v 26.554 c 0,4.571 -3.566,8.309 -8.07,8.578 l -0.524,0.016 H 17.969 c -4.571,0 -8.305,-3.566 -8.578,-8.07 L 9.375,60.027 V 33.805 L 7.746,28.113 C 6.484,23.719 8.883,19.145 13.137,17.641 l 0.5,-0.157 37.547,-10.769 c 4.394,-1.258 8.968,1.14 10.468,5.394 z m -42.05,8.539 -4.672,1.34 c -1.946,0.559 -3.121,2.492 -2.77,4.442 l 0.09,0.39 1.078,3.754 0.922,-0.265 z m 14.863,-4.261 -8.492,2.433 -5.352,9.66 8.492,-2.433 z m 14.867,-4.262 -8.492,2.434 -5.352,9.66 8.489,-2.434 z m 5.773,-0.73 -4.753,8.558 8.027,-2.301 -1.074,-3.75 c -0.332,-1.168 -1.164,-2.058 -2.2,-2.507 z" style="fill:currentColor;fill-opacity:1;fill-rule:nonzero;stroke:none" transform="scale(1.3333333)" /> </g>
</svg>

