<?xml version="1.0" encoding="UTF-8" standalone="no"?> <svg version="1.1" id="I23d22b9f55284366bcfa53a624c0480320251110135155" width="100" height="100" viewBox="0 0 100 100" xmlns="http://www.w3.org/2000/svg" xmlns:svg="http://www.w3.org/2000/svg"> <defs id="Ie32b237c6c404c02a92f4857bfabb44420251110135155" /> <g id="Ib2965c61b07f49e79f03887a361d6da220251110135155"> <path id="I11f9f04e291e4d3baa20edeeed21623020251110135155" d="m 12.5,15.625 c -1.727,0 -3.125,1.398 -3.125,3.125 0,1.727 1.398,3.125 3.125,3.125 h 50 c 1.727,0 3.125,-1.398 3.125,-3.125 0,-1.727 -1.398,-3.125 -3.125,-3.125 z m 0,12.5 c -1.727,0 -3.125,1.398 -3.125,3.125 0,1.727 1.398,3.125 3.125,3.125 h 50 c 1.727,0 3.125,-1.398 3.125,-3.125 0,-1.727 -1.398,-3.125 -3.125,-3.125 z M 9.375,43.75 c 0,-1.727 1.398,-3.125 3.125,-3.125 h 50 c 1.727,0 3.125,1.398 3.125,3.125 0,1.727 -1.398,3.125 -3.125,3.125 h -50 c -1.727,0 -3.125,-1.398 -3.125,-3.125 z m 3.125,9.375 c -1.727,0 -3.125,1.398 -3.125,3.125 0,1.727 1.398,3.125 3.125,3.125 h 50 c 1.727,0 3.125,-1.398 3.125,-3.125 0,-1.727 -1.398,-3.125 -3.125,-3.125 z" style="fill:currentColor;fill-opacity:1;fill-rule:nonzero;stroke:none" transform="scale(1.3333333)" /> </g>
</svg>

