<?xml version="1.0" encoding="UTF-8" standalone="no"?> <svg version="1.1" id="Ic4dd379e99a044e58a2298282b4182a820251106132945" width="100" height="100" viewBox="0 0 100 100" xmlns="http://www.w3.org/2000/svg" xmlns:svg="http://www.w3.org/2000/svg"> <defs id="I2678af5a2b664b7383814d1531cad35d20251106132945" /> <g id="Iac2f384ca09343ce95b8872956cf897820251106132945"> <path id="Ie1e82d0111ff4c3387f0bab71b33d06520251106132945" d="M 23.602,17.277 C 24.633,10.527 30.461,5.355 37.5,5.355 c 7.039,0 12.867,5.172 13.902,11.922 6.879,4.188 11.727,11.387 12.703,19.766 -2.757,-1.418 -5.882,-2.223 -9.195,-2.223 -1.652,0 -3.258,0.2 -4.793,0.578 0.488,-0.742 0.778,-1.628 0.778,-2.586 0,-4.808 -3.899,-8.707 -8.707,-8.707 h -9.376 c -4.808,0 -8.707,3.899 -8.707,8.707 0,2.59 2.102,4.688 4.688,4.688 h 16.09 c -2.36,1.363 -4.418,3.188 -6.043,5.355 H 10.715 V 40.18 c 0,-9.703 5.16,-18.203 12.887,-22.903 z M 44.566,14.336 C 42.984,12.141 40.41,10.715 37.5,10.715 c -2.91,0 -5.484,1.426 -7.066,3.621 2.25,-0.613 4.621,-0.941 7.066,-0.941 2.445,0 4.816,0.328 7.066,0.941 z M 34.82,54.91 c 0,-2.855 0.598,-5.574 1.672,-8.035 h -8.367 v 4.687 c 0,1.11 -0.898,2.008 -2.008,2.008 -1.109,0 -2.012,-0.898 -2.012,-2.008 V 46.875 H 10.715 V 58.93 c 0,5.918 4.797,10.715 10.715,10.715 H 41.254 C 37.297,65.973 34.82,60.73 34.82,54.91 Z M 32.812,28.125 c -2.589,0 -4.687,2.098 -4.687,4.687 0,0.372 0.301,0.668 0.668,0.668 h 17.414 c 0.367,0 0.668,-0.296 0.668,-0.668 0,-2.589 -2.098,-4.687 -4.687,-4.687 z M 72.32,54.91 c 0,9.617 -7.793,17.41 -17.41,17.41 -9.617,0 -17.41,-7.793 -17.41,-17.41 0,-9.617 7.793,-17.41 17.41,-17.41 9.617,0 17.41,7.793 17.41,17.41 z M 56.25,44.195 c 0,-0.738 -0.602,-1.34 -1.34,-1.34 -0.738,0 -1.34,0.602 -1.34,1.34 v 9.375 h -9.375 c -0.738,0 -1.34,0.602 -1.34,1.34 0,0.738 0.602,1.34 1.34,1.34 h 9.375 v 9.375 c 0,0.738 0.602,1.34 1.34,1.34 0.738,0 1.34,-0.602 1.34,-1.34 V 56.25 h 9.375 c 0.738,0 1.34,-0.602 1.34,-1.34 0,-0.738 -0.602,-1.34 -1.34,-1.34 H 56.25 Z" style="fill:currentColor;fill-opacity:1;fill-rule:nonzero;stroke:none" transform="scale(1.3333333)" /> </g>
</svg>

