<?xml version="1.0" encoding="UTF-8" standalone="no"?> <svg version="1.1" id="If3d5278b624b443098401676b086907120251110123030" width="100" height="100" viewBox="0 0 100 100" xmlns="http://www.w3.org/2000/svg" xmlns:svg="http://www.w3.org/2000/svg"> <defs id="Ifd0775f92caa425eb71226f4f673e1a620251110123030" /> <g id="I41d2e70b92b24eb0b6c5e860864be9d620251110123030"> <path id="I01e6441a8c3e4baa90b6e24d6e3c481820251110123030" d="m 46.875,23.438 c 0,5.175 -4.199,9.374 -9.375,9.374 -5.176,0 -9.375,-4.199 -9.375,-9.374 0,-5.176 4.199,-9.376 9.375,-9.376 5.176,0 9.375,4.2 9.375,9.376 z M 23.438,56.25 c -1.293,0 -2.344,1.051 -2.344,2.344 0,1.293 1.051,2.344 2.344,2.344 h 28.124 c 1.293,0 2.344,-1.051 2.344,-2.344 0,-1.293 -1.051,-2.344 -2.344,-2.344 z M 11.719,12.891 c 0,-4.532 3.672,-8.203 8.203,-8.203 h 35.156 c 4.531,0 8.203,3.671 8.203,8.203 v 49.218 c 0,4.532 -3.672,8.203 -8.203,8.203 H 19.922 c -4.531,0 -8.203,-3.671 -8.203,-8.203 z m 8.203,-3.516 c -1.942,0 -3.516,1.574 -3.516,3.516 v 33.984 h 7.032 v -7.031 c 0,-2.59 2.097,-4.688 4.687,-4.688 h 18.75 c 2.59,0 4.687,2.098 4.687,4.688 v 7.031 h 7.032 V 12.891 c 0,-1.942 -1.574,-3.516 -3.516,-3.516 z m -3.516,52.734 c 0,1.942 1.574,3.516 3.516,3.516 h 35.156 c 1.942,0 3.516,-1.574 3.516,-3.516 V 51.562 H 16.406 Z" style="fill:currentColor;fill-opacity:1;fill-rule:nonzero;stroke:none" transform="scale(1.3333333)" /> </g>
</svg>

