<?xml version="1.0" encoding="UTF-8" standalone="no"?> <svg version="1.1" id="I4f76337de17844b3a15efbdc1eb9b23820251106154012" width="100" height="100" viewBox="0 0 100 100" xmlns="http://www.w3.org/2000/svg" xmlns:svg="http://www.w3.org/2000/svg"> <defs id="I65d1559472054ac59e367c53083891e720251106154012" /> <g id="I4b251c5735584243bcb518360c4dd34820251106154012"> <path id="I30c6bdb3725d49ffa11cae6f6905f2f120251106154012" d="m 37.5,8.594 c 2.59,0 4.688,2.097 4.688,4.687 0,2.59 -2.098,4.688 -4.688,4.688 -2.59,0 -4.688,-2.098 -4.688,-4.688 0,-2.59 2.098,-4.687 4.688,-4.687 z m 4.688,20.312 c 0,-2.59 -2.098,-4.687 -4.688,-4.687 -2.59,0 -4.688,2.097 -4.688,4.687 0,2.59 2.098,4.688 4.688,4.688 2.59,0 4.688,-2.098 4.688,-4.688 z M 21.887,39.844 c 2.59,0 4.687,2.097 4.687,4.687 0,2.59 -2.097,4.688 -4.687,4.688 -2.59,0 -4.688,-2.098 -4.688,-4.688 0,-2.59 2.098,-4.687 4.688,-4.687 z m 15.613,0 c 0.941,0 1.82,0.277 2.555,0.758 -2.168,2.25 -3.825,5 -4.774,8.062 -1.469,-0.793 -2.469,-2.344 -2.469,-4.133 0,-2.59 2.098,-4.687 4.688,-4.687 z M 53.113,24.219 c 2.586,0 4.688,2.097 4.688,4.687 0,2.59 -2.102,4.688 -4.688,4.688 -2.59,0 -4.687,-2.098 -4.687,-4.688 0,-2.59 2.097,-4.687 4.687,-4.687 z m -26.539,4.687 c 0,-2.59 -2.097,-4.687 -4.687,-4.687 -2.59,0 -4.688,2.097 -4.688,4.687 0,2.59 2.098,4.688 4.688,4.688 2.59,0 4.687,-2.098 4.687,-4.688 z M 57.801,13.281 c 0,-2.59 -2.102,-4.687 -4.688,-4.687 -2.59,0 -4.687,2.097 -4.687,4.687 0,2.59 2.097,4.688 4.687,4.688 2.586,0 4.688,-2.098 4.688,-4.688 z M 21.887,8.594 c 2.59,0 4.687,2.097 4.687,4.687 0,2.59 -2.097,4.688 -4.687,4.688 -2.59,0 -4.688,-2.098 -4.688,-4.688 0,-2.59 2.098,-4.687 4.688,-4.687 z M 71.875,54.688 C 71.875,45.195 64.18,37.5 54.688,37.5 45.195,37.5 37.5,45.195 37.5,54.688 c 0,9.492 7.695,17.187 17.188,17.187 9.492,0 17.187,-7.695 17.187,-17.187 z m -19.141,8.984 c 0,-1.078 0.875,-1.949 1.954,-1.949 1.078,0 1.953,0.871 1.953,1.949 0,1.078 -0.875,1.953 -1.953,1.953 -1.079,0 -1.954,-0.875 -1.954,-1.953 z M 48.895,49.465 c -0.036,-3.555 2.519,-6.11 5.793,-6.11 3.222,0 5.792,2.645 5.792,6.094 0,1.59 -0.468,2.629 -1.652,4.039 l -0.422,0.485 -0.828,0.906 -0.316,0.363 -0.266,0.324 c -0.562,0.723 -0.746,1.211 -0.746,1.844 0,0.863 -0.699,1.563 -1.562,1.563 -0.864,0 -1.563,-0.7 -1.563,-1.563 0,-1.617 0.473,-2.664 1.672,-4.094 l 0.426,-0.492 0.828,-0.906 0.308,-0.352 0.297,-0.363 c 0.524,-0.683 0.699,-1.152 0.699,-1.754 0,-1.742 -1.191,-2.969 -2.667,-2.969 -1.543,0 -2.684,1.145 -2.668,2.954 0.007,0.863 -0.684,1.57 -1.547,1.578 -0.864,0.008 -1.571,-0.684 -1.578,-1.547 z" style="fill:currentColor;fill-opacity:1;fill-rule:nonzero;stroke:none" transform="scale(1.3333333)" /> </g>
</svg>

