<?xml version="1.0" encoding="UTF-8" standalone="no"?> <svg version="1.1" id="I8a729f4b7bda42d8a2175667d9138daa20251106113050" width="100" height="100" viewBox="0 0 100 100" xmlns="http://www.w3.org/2000/svg" xmlns:svg="http://www.w3.org/2000/svg"> <defs id="Ief9e9ea7d0a44deeb3c6d45a4a02e98920251106113050" /> <g id="I1621e0cb31734d73820375ee506410b920251106113050"> <path id="Ic11202acfd654f13870d2696a57ba0bb20251106113050" d="M 42.664,15.777 C 30.008,11.168 11.492,2.738 11.492,2.738 10.18,2.395 9.996,3.668 9.996,3.668 c -0.422,5.113 2.813,13.434 4.484,15.301 1.668,1.867 26.711,9.515 26.711,9.515 0,0 -19.261,-3.882 -23.906,-5.222 -4.652,-1.34 -3.172,1.488 -3.172,1.488 0.953,5.168 5.434,11.035 8.973,11.586 3.531,0.555 18.422,0.336 18.422,0.336 0,0 -2.969,0.344 -7.801,0.996 -3.574,0.484 -8.117,1.047 -9.297,1.488 -2.773,1.047 2.008,5.242 2.008,5.242 7.09,6.426 10.855,4.227 10.855,4.227 2.789,-0.895 5.141,-1.551 7.133,-2.027 L 41.938,56.844 H 49.02 L 45.117,72.32 62.301,49.562 h -8.996 l 1.867,-3.238 c 0.023,0.039 0.031,0.067 0.031,0.067 0,0 6.387,-10.223 8.832,-15.438 l 0.051,-0.082 h -0.008 c 0.418,-0.906 0.719,-1.648 0.836,-2.16 1.422,-5.969 -9.586,-8.32 -22.25,-12.934 z" style="fill:currentColor;fill-opacity:1;fill-rule:nonzero;stroke:none" transform="scale(1.3333333)" /> </g>
</svg>

