<?xml version="1.0" encoding="UTF-8" standalone="no"?> <svg version="1.1" id="Ia10bb416d2cf4113a22a016c40cef76c20251110124419" width="100" height="100" viewBox="0 0 100 100" xmlns="http://www.w3.org/2000/svg" xmlns:svg="http://www.w3.org/2000/svg"> <defs id="I62aef9e162054cdc8164a6d2a61b2ea220251110124419" /> <g id="I13b2077378e74a438a409c44fd2d402f20251110124419"> <path id="Ief90c3a5ad6b45ebb1b283a1d8be612a20251110124419" d="m 6.25,14.062 c 0,-2.589 2.098,-4.687 4.688,-4.687 h 53.124 c 2.59,0 4.688,2.098 4.688,4.687 0,2.04 -1.305,3.778 -3.125,4.422 v 22.922 c 0,6.473 -5.246,11.719 -11.719,11.719 H 39.844 v 7.813 h 10.937 c 1.293,0 2.344,1.05 2.344,2.343 0,1.293 -1.051,2.344 -2.344,2.344 H 24.219 c -1.293,0 -2.344,-1.051 -2.344,-2.344 0,-1.293 1.051,-2.343 2.344,-2.343 H 35.156 V 53.125 H 21.094 C 14.621,53.125 9.375,47.879 9.375,41.406 V 18.484 C 7.555,17.84 6.25,16.102 6.25,14.062 Z m 21.875,10.157 c 0,1.293 1.051,2.343 2.344,2.343 h 12.5 c 1.293,0 2.343,-1.05 2.343,-2.343 0,-1.293 -1.05,-2.344 -2.343,-2.344 h -12.5 c -1.293,0 -2.344,1.051 -2.344,2.344 z m 2.344,16.406 c -1.293,0 -2.344,1.051 -2.344,2.344 0,1.293 1.051,2.343 2.344,2.343 h 12.5 c 1.293,0 2.343,-1.05 2.343,-2.343 0,-1.293 -1.05,-2.344 -2.343,-2.344 z M 27.344,31.25 c -1.293,0 -2.344,1.051 -2.344,2.344 0,1.293 1.051,2.344 2.344,2.344 H 47.656 C 48.949,35.938 50,34.887 50,33.594 50,32.301 48.949,31.25 47.656,31.25 Z" style="fill:currentColor;fill-opacity:1;fill-rule:nonzero;stroke:none" transform="scale(1.3333333)" /> </g>
</svg>

