<?xml version="1.0" encoding="UTF-8" standalone="no"?> <svg version="1.1" id="I8cac1b38eebd473b8af0148650b708ef20251106154012" width="100" height="100" viewBox="0 0 100 100" xmlns="http://www.w3.org/2000/svg" xmlns:svg="http://www.w3.org/2000/svg"> <defs id="Ia02cf0585ac24fa0aebbaec301e2443d20251106154012" /> <g id="Id0065045eb52496cb0acd67ba54bfabe20251106154012"> <path id="I93147f8ce6464c1ca16fe6811699d47820251106154012" d="m 6.25,11.719 c 0,-1.293 1.051,-2.344 2.344,-2.344 h 20.312 c 3.883,0 7.032,3.148 7.032,7.031 v 17.969 h 19.531 c 3.883,0 7.031,3.148 7.031,7.031 v 19.532 h 3.906 c 1.293,0 2.344,1.05 2.344,2.343 0,1.293 -1.051,2.344 -2.344,2.344 H 46.094 c -3.883,0 -7.032,-3.148 -7.032,-7.031 V 39.062 H 19.531 c -3.883,0 -7.031,-3.148 -7.031,-7.031 V 14.062 H 8.594 c -1.293,0 -2.344,-1.05 -2.344,-2.343 z M 57.812,60.938 V 41.406 c 0,-1.293 -1.05,-2.344 -2.343,-2.344 H 43.75 v 19.532 c 0,1.293 1.051,2.344 2.344,2.344 z M 31.25,16.406 c 0,-1.293 -1.051,-2.344 -2.344,-2.344 H 17.188 v 17.969 c 0,1.293 1.05,2.344 2.343,2.344 H 31.25 Z" style="fill:currentColor;fill-opacity:1;fill-rule:nonzero;stroke:none" transform="scale(1.3333333)" /> </g>
</svg>

