<?xml version="1.0" encoding="UTF-8" standalone="no"?> <svg version="1.1" id="Iaed491bb57a7425aaedfa42199bf4deb20251110123031" width="100" height="100" viewBox="0 0 100 100" xmlns="http://www.w3.org/2000/svg" xmlns:svg="http://www.w3.org/2000/svg"> <defs id="Id0ef987cc6fd4e00aff4c993ff54fb7620251110123031" /> <g id="I978c04f0ebc842f9962ecd0d2f283f0120251110123031"> <path id="I4ed82360a6f24c52a8504292614c497c20251110123031" d="m 49.219,6.25 c 3.883,0 7.031,3.148 7.031,7.031 v 48.438 c 0,3.883 -3.148,7.031 -7.031,7.031 H 25.781 c -3.883,0 -7.031,-3.148 -7.031,-7.031 V 13.281 c 0,-3.883 3.148,-7.031 7.031,-7.031 z m -3.125,7.812 H 28.906 c -1.293,0 -2.344,1.051 -2.344,2.344 0,1.188 0.883,2.168 2.028,2.324 l 0.316,0.02 h 17.188 c 1.293,0 2.344,-1.051 2.344,-2.344 0,-1.187 -0.883,-2.168 -2.028,-2.324 z m -6.25,18.86 3.984,3.906 c 0.922,0.906 2.406,0.895 3.313,-0.031 0.906,-0.922 0.894,-2.406 -0.032,-3.313 L 39.145,25.672 C 38.699,25.234 38.102,24.992 37.48,25 c -0.621,0.008 -1.214,0.258 -1.652,0.703 l -7.656,7.813 c -0.906,0.925 -0.891,2.41 0.035,3.316 0.922,0.902 2.406,0.891 3.313,-0.035 l 3.636,-3.711 v 11.445 c 0,1.293 1.051,2.344 2.344,2.344 1.293,0 2.344,-1.051 2.344,-2.344 z" style="fill:currentColor;fill-opacity:1;fill-rule:nonzero;stroke:none" transform="scale(1.3333333)" /> </g>
</svg>

