<?xml version="1.0" encoding="UTF-8" standalone="no"?> <svg version="1.1" id="I4557f31745ce4182b90a9172a40eaf6320251110124422" width="100" height="100" viewBox="0 0 100 100" xmlns="http://www.w3.org/2000/svg" xmlns:svg="http://www.w3.org/2000/svg"> <defs id="Icbd2f5d19a2648458e1a255a28d23ce820251110124422" /> <g id="Iacf7e73d475b4bf6aad5b91eb9cdd92f20251110124422"> <path id="I8c702885e841483c9cb47ab70f89353320251110124422" d="m 20.699,24.105 c -1.078,0 -1.949,0.875 -1.949,1.954 v 0.117 c 0,1.078 0.871,1.949 1.949,1.949 h 14.852 c 1.074,0 1.949,-0.871 1.949,-1.949 v -0.117 c 0,-1.079 -0.875,-1.954 -1.949,-1.954 z m 0,10.715 c -1.078,0 -1.949,0.875 -1.949,1.95 v 0.121 c 0,1.074 0.871,1.949 1.949,1.949 h 28.242 c 1.079,0 1.95,-0.875 1.95,-1.949 V 36.77 c 0,-1.075 -0.871,-1.95 -1.95,-1.95 z M 18.75,47.484 c 0,-1.074 0.871,-1.949 1.949,-1.949 h 20.207 c 1.078,0 1.949,0.875 1.949,1.949 v 0.121 c 0,1.075 -0.871,1.95 -1.949,1.95 H 20.699 c -1.078,0 -1.949,-0.875 -1.949,-1.95 z M 15.414,10.715 c -5.551,0 -10.047,4.496 -10.047,10.043 v 33.484 c 0,5.547 4.496,10.043 10.047,10.043 H 45 C 44.371,63.043 44.105,61.645 44.223,60.27 H 15.414 c -3.332,0 -6.027,-2.7 -6.027,-6.028 V 20.758 c 0,-3.328 2.695,-6.028 6.027,-6.028 h 44.184 c 3.332,0 6.027,2.7 6.027,6.028 v 8.722 c 0.855,0.059 1.719,0.27 2.555,0.657 l 1.191,0.551 c 0.09,0.042 0.184,0.085 0.274,0.132 V 20.758 c 0,-5.547 -4.497,-10.043 -10.047,-10.043 z m 44.301,27.726 1.105,-3.199 c 0.895,-2.578 3.774,-3.812 6.235,-2.676 l 1.191,0.555 c 1.942,0.899 3.57,2.508 3.887,4.649 1.551,10.48 -6.668,24.972 -16.36,28.847 -1.976,0.789 -4.16,0.16 -5.898,-1.105 l -1.066,-0.774 c -2.196,-1.601 -2.586,-4.758 -0.84,-6.832 l 2.168,-2.574 c 0.851,-1.012 2.199,-1.441 3.476,-1.105 l 4.676,1.23 c 3.535,-2.32 5.402,-5.613 5.609,-9.891 L 60.512,42.059 C 59.59,41.102 59.281,39.695 59.715,38.441 Z" style="fill:currentColor;fill-opacity:1;fill-rule:nonzero;stroke:none" transform="scale(1.3333333)" /> </g>
</svg>

