<?xml version="1.0" encoding="UTF-8" standalone="no"?> <svg version="1.1" id="I517fba8994814a8491a92c09e460d96220251106152728" width="100" height="100" viewBox="0 0 100 100" xmlns="http://www.w3.org/2000/svg" xmlns:svg="http://www.w3.org/2000/svg"> <defs id="I535868e85bf54c8794e644ba0fcfae0320251106152728" /> <g id="Ic324555b7f894acba38e608813d9b05f20251106152728"> <path id="I5b3930d6ccc649c88befaafdae6f405a20251106152728" d="m 37.5,10.938 c -14.672,0 -26.562,11.89 -26.562,26.562 0,7.328 2.964,13.957 7.761,18.766 0.918,0.918 0.914,2.402 0,3.316 -0.918,0.914 -2.402,0.91 -3.316,-0.004 C 9.742,53.926 6.25,46.117 6.25,37.5 6.25,20.242 20.242,6.25 37.5,6.25 c 17.258,0 31.25,13.992 31.25,31.25 0,1.012 -0.047,2.016 -0.141,3.004 -1.718,-0.563 -3.273,-1.484 -4.554,-2.43 0.004,-0.191 0.007,-0.383 0.007,-0.574 0,-14.672 -11.89,-26.562 -26.562,-26.562 z m 3.301,33.644 c 0.508,-1.824 2.047,-3.055 3.64,-3.496 0.559,-1.074 0.871,-2.293 0.871,-3.586 0,-4.316 -3.496,-7.812 -7.812,-7.812 -4.316,0 -7.812,3.496 -7.812,7.812 0,4.316 3.496,7.812 7.812,7.812 1.18,0 2.297,-0.261 3.301,-0.73 z m 13.261,-8.684 c 0.961,-0.96 2.227,-1.464 3.512,-1.519 -1.5,-9.734 -9.918,-17.191 -20.074,-17.191 -11.219,0 -20.312,9.093 -20.312,20.312 0,5.613 2.277,10.695 5.957,14.371 0.914,0.914 2.398,0.914 3.312,-0.004 0.918,-0.914 0.914,-2.398 0,-3.312 -2.832,-2.832 -4.582,-6.739 -4.582,-11.055 0,-8.629 6.996,-15.625 15.625,-15.625 8.395,0 15.242,6.617 15.609,14.922 0.36,-0.32 0.68,-0.625 0.953,-0.899 z M 34.375,37.5 c 0,-1.727 1.398,-3.125 3.125,-3.125 1.727,0 3.125,1.398 3.125,3.125 0,1.727 -1.398,3.125 -3.125,3.125 -1.727,0 -3.125,-1.398 -3.125,-3.125 z m 24.969,0.609 c 2.039,2.032 5.957,5.266 10.777,5.93 0.961,0.133 1.754,0.891 1.754,1.84 v 8.871 c 0,11.926 -11.187,16.254 -13.605,17.051 -0.301,0.097 -0.61,0.097 -0.915,0 C 54.938,71.004 43.75,66.676 43.75,54.75 v -8.871 c 0,-0.949 0.793,-1.707 1.754,-1.84 4.82,-0.664 8.738,-3.898 10.777,-5.93 0.813,-0.812 2.25,-0.812 3.063,0 z" style="fill:currentColor;fill-opacity:1;fill-rule:nonzero;stroke:none" transform="scale(1.3333333)" /> </g>
</svg>

