<?xml version="1.0" encoding="UTF-8" standalone="no"?> <svg version="1.1" id="Iaff657fd14bc48a79679fa84d9ebe59120251106170956" width="100" height="100" viewBox="0 0 100 100" xmlns="http://www.w3.org/2000/svg" xmlns:svg="http://www.w3.org/2000/svg"> <defs id="I92c59fcf8b2e44eebff45fb8300faae520251106170956" /> <g id="I0bdaee81079f4dff978dcc793894f48120251106170956"> <path id="I74f9c32dea8a4c36ad62c5efb669b80820251106170956" d="m 22.77,6.695 c 0,-1.476 -1.2,-2.675 -2.68,-2.675 -1.477,0 -2.676,1.199 -2.676,2.675 V 16.07 H 8.035 c -1.48,0 -2.68,1.2 -2.68,2.68 0,1.48 1.2,2.68 2.68,2.68 h 9.379 v 9.375 c 0,1.476 1.199,2.675 2.676,2.675 1.48,0 2.68,-1.199 2.68,-2.675 V 21.43 h 9.375 c 1.476,0 2.675,-1.2 2.675,-2.68 0,-1.48 -1.199,-2.68 -2.675,-2.68 H 22.77 Z m 20.085,9.375 c -1.476,0 -2.675,1.2 -2.675,2.68 0,1.48 1.199,2.68 2.675,2.68 h 24.11 c 1.48,0 2.68,-1.2 2.68,-2.68 0,-1.48 -1.2,-2.68 -2.68,-2.68 z m 0,34.825 c -1.476,0 -2.675,1.199 -2.675,2.675 0,1.481 1.199,2.68 2.675,2.68 h 24.11 c 1.48,0 2.68,-1.199 2.68,-2.68 0,-1.476 -1.2,-2.675 -2.68,-2.675 z m 12.727,-2.68 c 2.219,0 4.016,-1.801 4.016,-4.02 0,-2.218 -1.797,-4.015 -4.016,-4.015 -2.219,0 -4.02,1.797 -4.02,4.015 0,2.219 1.801,4.02 4.02,4.02 z m 4.016,14.73 c 0,2.219 -1.797,4.02 -4.016,4.02 -2.219,0 -4.02,-1.801 -4.02,-4.02 0,-2.218 1.801,-4.015 4.02,-4.015 2.219,0 4.016,1.797 4.016,4.015 z M 6.141,40.965 c 1.047,-1.047 2.742,-1.047 3.789,0 L 20.09,51.121 30.25,40.965 c 1.043,-1.047 2.742,-1.047 3.785,0 1.047,1.043 1.047,2.742 0,3.785 L 23.879,54.91 34.035,65.07 c 1.047,1.047 1.047,2.742 0,3.789 -1.043,1.047 -2.742,1.047 -3.785,0 L 20.09,58.699 9.93,68.859 c -1.047,1.047 -2.742,1.047 -3.789,0 -1.047,-1.047 -1.047,-2.742 0,-3.789 L 16.301,54.91 6.141,44.75 c -1.047,-1.043 -1.047,-2.742 0,-3.785 z" style="fill:currentColor;fill-opacity:1;fill-rule:nonzero;stroke:none" transform="scale(1.3333333)" /> </g>
</svg>

