<?xml version="1.0" encoding="UTF-8" standalone="no"?> <svg version="1.1" id="Ie78971771c694dcf9ea0ce72d3ccd62920251106112458" width="100" height="100" viewBox="0 0 100 100" xmlns="http://www.w3.org/2000/svg" xmlns:svg="http://www.w3.org/2000/svg"> <defs id="I36b062071c9549ad8adfea422b33994720251106112458" /> <g id="Ifaf63c7a9a684550ba402762b180e2df20251106112458"> <path id="I6c3d9a55b585493396a2c13152ec30db20251106112458" d="m 69.309,59.262 h -6.696 v -6.696 c 0,-0.367 -0.304,-0.668 -0.672,-0.668 h -4.015 c -0.371,0 -0.672,0.301 -0.672,0.668 v 6.696 h -6.695 c -0.368,0 -0.672,0.304 -0.672,0.672 v 4.015 c 0,0.371 0.304,0.672 0.672,0.672 h 6.695 v 6.695 c 0,0.368 0.301,0.672 0.672,0.672 h 4.015 c 0.368,0 0.672,-0.304 0.672,-0.672 v -6.695 h 6.696 c 0.367,0 0.668,-0.301 0.668,-0.672 v -4.015 c 0,-0.368 -0.301,-0.672 -0.668,-0.672 z M 25.906,36.363 c -0.074,-0.73 -0.117,-1.465 -0.117,-2.211 0,-1.332 0.125,-2.629 0.359,-3.894 0.059,-0.301 -0.097,-0.61 -0.375,-0.735 -1.14,-0.511 -2.183,-1.214 -3.089,-2.101 -2.153,-2.09 -3.329,-4.988 -3.239,-7.984 0.075,-2.688 1.157,-5.243 3.039,-7.168 2.067,-2.118 4.844,-3.27 7.801,-3.239 2.668,0.028 5.246,1.055 7.199,2.879 0.661,0.621 1.231,1.309 1.707,2.043 0.168,0.262 0.493,0.367 0.778,0.27 1.472,-0.512 3.031,-0.871 4.629,-1.039 0.468,-0.051 0.738,-0.551 0.527,-0.973 C 42.406,6.832 36.848,3.113 30.418,3.012 21.145,2.871 13.41,10.48 13.41,19.754 c 0,5.258 2.418,9.945 6.211,13.016 -2.664,1.23 -5.113,2.929 -7.242,5.058 -4.586,4.578 -7.18,10.621 -7.348,17.074 -0.011,0.375 0.293,0.688 0.668,0.688 h 4.696 c 0.363,0 0.664,-0.285 0.671,-0.645 0.161,-4.855 2.125,-9.402 5.582,-12.851 2.461,-2.461 5.477,-4.168 8.766,-4.996 0.316,-0.09 0.535,-0.403 0.492,-0.735 z m 37.711,-2.211 c 0,-9.156 -7.359,-16.597 -16.484,-16.742 -9.274,-0.14 -17,7.469 -17,16.742 0,5.258 2.429,9.946 6.211,13.016 -2.688,1.246 -5.137,2.957 -7.231,5.055 -4.586,4.578 -7.183,10.625 -7.351,17.07 -0.008,0.375 0.293,0.684 0.672,0.684 h 4.687 c 0.359,0 0.66,-0.286 0.668,-0.645 0.16,-4.855 2.129,-9.398 5.586,-12.848 3.605,-3.609 8.395,-5.589 13.5,-5.589 9.242,0 16.742,-7.493 16.742,-16.743 z m -9.168,7.575 c -2.023,2.027 -4.711,3.14 -7.574,3.14 -2.863,0 -5.551,-1.113 -7.574,-3.14 -2.043,-2.032 -3.176,-4.805 -3.141,-7.684 0.028,-2.746 1.121,-5.398 3.039,-7.367 2.008,-2.059 4.696,-3.203 7.567,-3.238 2.839,-0.024 5.593,1.078 7.617,3.062 2.078,2.035 3.215,4.754 3.215,7.652 -0.008,2.864 -1.121,5.551 -3.149,7.575 z" style="fill:currentColor;fill-opacity:1;fill-rule:nonzero;stroke:none" transform="scale(1.3333333)" /> </g>
</svg>

