<?xml version="1.0" encoding="UTF-8" standalone="no"?> <svg version="1.1" id="Ia39b5ad975cb4e828e5d5afced5007e720251110130510" width="100" height="100" viewBox="0 0 100 100" xmlns="http://www.w3.org/2000/svg" xmlns:svg="http://www.w3.org/2000/svg"> <defs id="If080d7507e4241019017a313f8bde9e520251110130510" /> <g id="Ia5908eb06ea741328a0a44fcd704718520251110130510"> <path id="I3c2c270b71054dc88d01f909d2e179b320251110130510" d="m 27.457,5.355 c -3.332,0 -6.027,2.7 -6.027,6.028 v 8.035 c 0,1.109 -0.903,2.012 -2.012,2.012 h -8.035 c -3.328,0 -6.028,2.695 -6.028,6.027 v 8.035 c 0,3.328 2.7,6.028 6.028,6.028 h 24.109 c 3.328,0 6.028,-2.7 6.028,-6.028 v -8.035 c 0,-1.109 0.898,-2.012 2.007,-2.012 h 8.035 c 3.329,0 6.028,-2.695 6.028,-6.027 v -8.035 c 0,-3.328 -2.699,-6.028 -6.028,-6.028 z M 51.562,21.43 H 41.52 V 9.375 h 10.042 c 1.11,0 2.008,0.898 2.008,2.008 v 8.035 c 0,1.109 -0.898,2.012 -2.008,2.012 z m -14.062,0 H 25.445 V 11.383 c 0,-1.11 0.903,-2.008 2.012,-2.008 H 37.5 Z M 21.43,25.445 V 37.5 H 11.383 c -1.11,0 -2.008,-0.898 -2.008,-2.008 v -8.035 c 0,-1.109 0.898,-2.012 2.008,-2.012 z m 4.015,0 H 37.5 v 10.047 c 0,1.11 -0.898,2.008 -2.008,2.008 H 25.445 Z m 30.137,8.035 h 8.035 c 3.328,0 6.028,2.7 6.028,6.028 v 24.109 c 0,3.328 -2.7,6.028 -6.028,6.028 H 20.758 c -3.328,0 -6.028,-2.7 -6.028,-6.028 v -8.035 c 0,-3.328 2.7,-6.027 6.028,-6.027 h 26.785 c 1.109,0 2.012,-0.903 2.012,-2.012 v -8.035 c 0,-3.328 2.699,-6.028 6.027,-6.028 z M 49.555,65.625 V 53.57 H 36.16 V 65.625 Z M 65.625,53.57 H 53.57 v 12.055 h 10.047 c 1.11,0 2.008,-0.898 2.008,-2.008 z M 53.57,49.555 H 65.625 V 39.508 c 0,-1.11 -0.898,-2.008 -2.008,-2.008 h -8.035 c -1.109,0 -2.012,0.898 -2.012,2.008 z M 32.145,53.57 H 20.758 c -1.11,0 -2.008,0.903 -2.008,2.012 v 8.035 c 0,1.11 0.898,2.008 2.008,2.008 h 11.387 z" style="fill:currentColor;fill-opacity:1;fill-rule:nonzero;stroke:none" transform="scale(1.3333333)" /> </g>
</svg>

