<?xml version="1.0" encoding="UTF-8" standalone="no"?> <svg version="1.1" id="I5b8a0a76192a458dbfc2ab5c1b36c71320251106170412" width="100" height="100" viewBox="0 0 100 100" xmlns="http://www.w3.org/2000/svg" xmlns:svg="http://www.w3.org/2000/svg"> <defs id="I4913fa1662644ae9aa80c987952ae2f720251106170412" /> <g id="I5baa38edc49843f2a2fcaca884781bc720251106170412"> <path id="I57cd4b2f617a42d99b5e100c2e7af18620251106170412" d="m 30,15 c 1.035,0 1.875,0.84 1.875,1.875 0,0.922 -0.664,1.687 -1.539,1.844 L 30,18.75 h -7.5 c -6.215,0 -11.25,5.035 -11.25,11.25 0,5.965 4.641,10.844 10.512,11.227 L 22.5,41.25 H 30 c 1.035,0 1.875,0.84 1.875,1.875 0,0.922 -0.664,1.687 -1.539,1.844 L 30,45 h -7.5 c -8.285,0 -15,-6.715 -15,-15 0,-8.008 6.277,-14.551 14.176,-14.977 L 22.5,15 Z m 22.5,0 c 8.285,0 15,6.715 15,15 0,2.691 -0.707,5.219 -1.949,7.402 -0.789,-1.023 -1.785,-1.875 -2.922,-2.5 C 63.348,33.418 63.75,31.758 63.75,30 63.75,24.035 59.109,19.156 53.238,18.773 L 52.5,18.75 H 45 c -1.035,0 -1.875,-0.84 -1.875,-1.875 0,-0.922 0.664,-1.687 1.539,-1.844 L 45,15 Z m -30,13.125 h 30 c 1.035,0 1.875,0.84 1.875,1.875 0,0.922 -0.664,1.688 -1.539,1.844 L 52.5,31.875 h -30 c -1.035,0 -1.875,-0.84 -1.875,-1.875 0,-0.922 0.664,-1.688 1.539,-1.844 z M 45,45 V 43.125 C 45,40.02 47.52,37.5 50.625,37.5 h 7.5 c 3.105,0 5.625,2.52 5.625,5.625 V 45 h 1.875 c 3.105,0 5.625,2.52 5.625,5.625 v 5.625 h -7.5 V 54.375 C 63.75,53.34 62.91,52.5 61.875,52.5 60.84,52.5 60,53.34 60,54.375 V 56.25 H 48.75 V 54.375 C 48.75,53.34 47.91,52.5 46.875,52.5 45.84,52.5 45,53.34 45,54.375 V 56.25 H 37.5 V 50.625 C 37.5,47.52 40.02,45 43.125,45 Z m 3.75,-1.875 V 45 H 60 V 43.125 C 60,42.09 59.16,41.25 58.125,41.25 h -7.5 c -1.035,0 -1.875,0.84 -1.875,1.875 z m 15,18.75 V 60 h 7.5 v 5.625 c 0,3.105 -2.52,5.625 -5.625,5.625 h -22.5 C 40.02,71.25 37.5,68.73 37.5,65.625 V 60 H 45 v 1.875 c 0,1.035 0.84,1.875 1.875,1.875 1.035,0 1.875,-0.84 1.875,-1.875 V 60 H 60 v 1.875 c 0,1.035 0.84,1.875 1.875,1.875 1.035,0 1.875,-0.84 1.875,-1.875 z" style="fill:currentColor;fill-opacity:1;fill-rule:nonzero;stroke:none" transform="scale(1.3333333)" /> </g>
</svg>

