<?xml version="1.0" encoding="UTF-8" standalone="no"?> <svg version="1.1" id="Ibd01147019d246c9be88c82d9cca222720251110124419" width="100" height="100" viewBox="0 0 100 100" xmlns="http://www.w3.org/2000/svg" xmlns:svg="http://www.w3.org/2000/svg"> <defs id="I13f6a8b64f3249ad9a584cdfe6ead18520251110124419" /> <g id="I47ddf163b112495a881de1cb8de1f32520251110124419"> <path id="I4bc71c0c5efa466f9decf74b63e68e7220251110124419" d="m 40.18,9.375 c -2.961,0 -5.36,2.398 -5.36,5.355 v 5.36 H 24.777 c -1.109,0 -2.007,0.898 -2.007,2.008 v 10.047 h -5.36 c -2.957,0 -5.355,2.398 -5.355,5.355 0,2.957 2.398,5.355 5.355,5.355 h 5.36 v 10.047 c 0,1.11 0.898,2.008 2.007,2.008 H 34.82 v 5.36 c 0,2.957 2.399,5.355 5.36,5.355 2.957,0 5.355,-2.398 5.355,-5.355 v -5.36 h 10.047 c 1.109,0 2.008,-0.898 2.008,-2.008 v -7.367 h -1.34 c -4.438,0 -8.035,-3.597 -8.035,-8.035 0,-4.438 3.597,-8.035 8.035,-8.035 h 1.34 v -7.367 c 0,-1.11 -0.899,-2.008 -2.008,-2.008 H 45.535 v -5.36 c 0,-2.957 -2.398,-5.355 -5.355,-5.355 z m -9.375,5.355 c 0,-5.175 4.195,-9.375 9.375,-9.375 5.175,0 9.375,4.2 9.375,9.375 v 1.34 h 6.027 c 3.328,0 6.023,2.7 6.023,6.028 V 33.48 H 56.25 c -2.219,0 -4.02,1.801 -4.02,4.02 0,2.219 1.801,4.02 4.02,4.02 h 5.355 v 11.382 c 0,3.328 -2.695,6.028 -6.023,6.028 h -6.027 v 1.34 c 0,5.175 -4.2,9.375 -9.375,9.375 -5.18,0 -9.375,-4.2 -9.375,-9.375 v -1.34 h -6.028 c -3.328,0 -6.027,-2.7 -6.027,-6.028 v -6.027 h -1.34 c -5.176,0 -9.375,-4.199 -9.375,-9.375 0,-5.176 4.199,-9.375 9.375,-9.375 h 1.34 v -6.027 c 0,-3.328 2.699,-6.028 6.027,-6.028 h 6.028 z" style="fill:currentColor;fill-opacity:1;fill-rule:nonzero;stroke:none" transform="scale(1.3333333)" /> </g>
</svg>

