<?xml version="1.0" encoding="UTF-8" standalone="no"?> <svg version="1.1" id="Icca89735ec8044d88d32b3515715766c20251106125937" width="100" height="100" viewBox="0 0 100 100" xmlns="http://www.w3.org/2000/svg" xmlns:svg="http://www.w3.org/2000/svg"> <defs id="I3ad682d5154646da84bedb179a2efbe720251106125937" /> <g id="I922486d71fbf45b28b42352a4a51095720251106125937"> <path id="I4cad2586ab04402089596f1f1851e3fc20251106125937" d="m 18.32,21.473 c 3.317,-3.309 8.235,-5.403 14.492,-5.403 h 18.75 c 1.11,0 2.008,0.903 2.008,2.012 0,1.109 -0.898,2.008 -2.008,2.008 h -18.75 c -5.328,0 -9.175,1.758 -11.652,4.226 -2.492,2.489 -3.75,5.813 -3.75,9.164 0,3.352 1.258,6.68 3.75,9.168 2.477,2.469 6.324,4.227 11.652,4.227 H 54.75 L 46.125,38.25 c -0.785,-0.785 -0.785,-2.055 0,-2.84 0.785,-0.785 2.055,-0.785 2.84,0 L 61.02,47.465 c 0.375,0.375 0.585,0.887 0.585,1.418 0,0.535 -0.21,1.047 -0.585,1.422 L 48.965,62.359 c -0.785,0.782 -2.055,0.782 -2.84,0 -0.785,-0.785 -0.785,-2.058 0,-2.843 L 54.75,50.895 H 32.812 c -6.257,0 -11.175,-2.094 -14.492,-5.403 -3.297,-3.289 -4.925,-7.66 -4.925,-12.012 0,-4.347 1.628,-8.722 4.925,-12.007 z" style="fill:currentColor;fill-opacity:1;fill-rule:nonzero;stroke:none" transform="scale(1.3333333)" /> </g>
</svg>

