<?xml version="1.0" encoding="UTF-8" standalone="no"?> <svg version="1.1" id="I686f43703f854c6f95760617249b1fc920251110135155" width="100" height="100" viewBox="0 0 100 100" xmlns="http://www.w3.org/2000/svg" xmlns:svg="http://www.w3.org/2000/svg"> <defs id="I27dde3af04e64d61af8b124c4a6dbd9720251110135155" /> <g id="If659bd2362e6495b9d43f3bef119646820251110135155"> <path id="If662a545b91d4606b2a4e8c4a1f20f4120251110135155" d="m 50,19.531 c 0,-1.293 1.051,-2.343 2.344,-2.343 1.293,0 2.344,1.05 2.344,2.343 V 47.656 C 54.688,48.949 53.637,50 52.344,50 51.051,50 50,48.949 50,47.656 Z M 35.062,66.5 28.812,60.25 c -0.917,-0.914 -0.917,-2.398 0,-3.312 0.833,-0.833 2.133,-0.911 3.051,-0.227 l 0.262,0.227 4.594,4.589 4.593,-4.589 c 0.915,-0.918 2.399,-0.918 3.313,0 0.832,0.832 0.91,2.132 0.227,3.05 l -0.227,0.262 -6.25,6.25 c -0.832,0.832 -2.133,0.91 -3.051,0.227 z M 34.375,10.156 c 0,-1.293 1.051,-2.344 2.344,-2.344 1.293,0 2.343,1.051 2.343,2.344 v 37.5 c 0,1.293 -1.05,2.344 -2.343,2.344 -1.293,0 -2.344,-1.051 -2.344,-2.344 z M 18.75,19.531 c 0,-1.293 1.051,-2.343 2.344,-2.343 1.293,0 2.344,1.05 2.344,2.343 V 47.656 C 23.438,48.949 22.387,50 21.094,50 19.801,50 18.75,48.949 18.75,47.656 Z" style="fill:currentColor;fill-opacity:1;fill-rule:nonzero;stroke:none" transform="scale(1.3333333)" /> </g>
</svg>

