<?xml version="1.0" encoding="UTF-8" standalone="no"?>
<!-- Created with Inkscape (http://www.inkscape.org/) -->

<svg
   version="1.1"
   id="Idaf9b9f16bdd4309a05ff4e000724b5f20251103104212"
   width="100"
   height="100"
   viewBox="0 0 100 100"
   sodipodi:docname="output.ai"
   xmlns:inkscape="http://www.inkscape.org/namespaces/inkscape"
   xmlns:sodipodi="http://sodipodi.sourceforge.net/DTD/sodipodi-0.dtd"
   xmlns="http://www.w3.org/2000/svg"
   xmlns:svg="http://www.w3.org/2000/svg">
  <defs
     id="I49a0a0ec3b4848c09eabcb056f9f82a620251103104212" />
  <sodipodi:namedview
     id="Id57175de3c574579bbfdee2d13b4708a20251103104212"
     pagecolor="#ffffff"
     bordercolor="#000000"
     borderopacity="0.25"
     inkscape:showpageshadow="2"
     inkscape:pageopacity="0.0"
     inkscape:pagecheckerboard="0"
     inkscape:deskcolor="#d1d1d1">
    <inkscape:page
       x="0"
       y="0"
       inkscape:label="1"
       id="I32e5449ec3894f0385a3419e300e845120251103104212"
       width="100"
       height="100"
       margin="0"
       bleed="0" />
  </sodipodi:namedview>
  <g
     id="Iadfac7ca7be9422eb45e27e3daad11cd20251103104212"
     inkscape:groupmode="layer"
     inkscape:label="1">
    <path
       id="I3f9c351c407840478ec855ca10785d0820251103104212"
       d="m 65.645,68.227 c 7.914,-6.879 8.449,-17.43 1.3,-25.653 L 42.281,14.203 c -0.433,-0.504 -4.066,2.656 -3.625,3.16 l 24.66,28.371 c 4.473,5.145 5.954,12.977 -0.824,18.868 -4.523,3.929 -11.719,5.418 -18.347,-2.204 L 12.406,25.887 C 8.66,21.582 5.531,14.004 11.086,9.172 c 6.019,-5.234 12.617,1.043 15.172,3.984 l 19.035,21.906 c 2.457,2.825 4.828,8.786 2.797,10.817 -2.035,2.035 -6.188,3.863 -12.399,-2.344 L 24.035,30.289 c -0.387,-0.441 -4.094,2.625 -3.609,3.176 l 11.656,13.246 c 3.633,4.121 10.781,10.101 17.852,3.957 5.375,-4.672 4.988,-11.859 -1.008,-18.758 L 29.891,10.004 C 22.695,1.734 14.281,0.023 7.93,5.543 1.359,11.25 1.406,20.574 8.047,28.207 l 32.465,37.348 c 7.261,8.355 17.363,9.429 25.133,2.672 z"
       style="fill:#82aec0;fill-opacity:1;fill-rule:nonzero;stroke:none"
       transform="scale(1.3333333)" />
    <path
       id="If0f13a95a3f7433c95f6b5b5a8e133d920251103104212"
       d="m 49.695,41.297 c 0,-3.035 -1.875,-5.906 -3.359,-7.609 L 27.293,11.785 C 25.203,9.387 22.238,6.832 18.434,6.609 13.391,6.316 10.828,9.293 11.387,8.871 c 6.168,-4.656 12.316,1.344 14.871,4.285 l 19.035,21.906 c 3.055,3.856 4.098,8.028 3.117,10.407 0,-0.004 1.285,-0.977 1.285,-4.172 z"
       style="fill:#2f7889;fill-opacity:1;fill-rule:nonzero;stroke:none"
       transform="scale(1.3333333)" />
    <path
       id="I84d67f0ced1845e6a95d3d125efad70120251103104212"
       d="m 65.484,61.074 c 4.219,-5.519 2.786,-12.211 -1.136,-16.719 0,0 -24.75,-28.394 -24.75,-28.445 -0.516,0.543 -1.137,1.223 -0.985,1.395 l 24.692,28.429 c 3.312,3.801 5.445,10.059 2.179,15.34 z"
       style="fill:#2f7889;fill-opacity:1;fill-rule:nonzero;stroke:none"
       transform="scale(1.3333333)" />
    <path
       id="I37d0653761c74db39add82d568728a0320251103104212"
       d="m 7.906,28.043 32.606,37.512 c 8.027,8.914 17.66,9.129 25.429,2.375 1.512,-1.313 0.082,-0.125 -0.39,0.222 -7.555,5.489 -17.168,3.891 -24,-3.972 L 9.082,26.832 C 3.617,20.543 2.625,13.109 6.125,7.488 1.508,13.004 2.074,21.34 7.906,28.043 Z"
       style="fill:#2f7889;fill-opacity:1;fill-rule:nonzero;stroke:none"
       transform="scale(1.3333333)" />
    <path
       id="I2f23084fc4c14a208d259323236ea12920251103104212"
       d="m 50.234,50.367 c 0.965,-0.871 1.641,-1.785 2.239,-2.793 -0.469,0.602 -0.879,1.172 -1.5,1.715 -7.075,6.152 -14.223,0.164 -17.856,-3.953 L 21.336,32.016 c 0,0 -1.262,1.113 -0.879,1.488 L 33.512,48.23 c 3.883,3.883 10.277,7.969 16.722,2.137 z"
       style="fill:#2f7889;fill-opacity:1;fill-rule:nonzero;stroke:none"
       transform="scale(1.3333333)" />
    <path
       id="I18d7addcbc294f25b081a38bdaaf393520251103104212"
       d="M 6.102,19.078 C 4.965,17.188 4.922,14.539 5.258,12.832 5.797,10.113 6.969,7.789 9.117,6.055 11.832,3.875 15.973,2.711 19.73,3.664 c 0,0 1.43,0.332 1.208,1.289 -0.223,0.953 -2.485,0.586 -2.485,0.586 -2.199,-0.477 -5.914,0.082 -8.199,1.922 -1.5,1.207 -2.66,2.887 -3.199,4.75 -1.465,5.082 0.515,9.324 -0.953,6.867 z"
       style="fill:#b9e4ea;fill-opacity:1;fill-rule:nonzero;stroke:none"
       transform="scale(1.3333333)" />
    <path
       id="I7a9ffc31659d4d9d80905aca8e4771ff20251103104212"
       d="m 66.617,65.297 c -1.262,1.242 -2.668,2.105 -3.465,1.617 -0.398,-0.238 -0.281,-0.965 0.36,-1.582 1.535,-1.465 2.754,-3.027 3.047,-3.48 3.132,-4.786 3.039,-7.832 2.015,-12.168 -0.277,-1.18 0.281,-1.286 0.707,-0.746 0.633,0.796 0.996,2.648 1.133,3.488 1.277,8.133 -3.223,12.308 -3.797,12.871 z"
       style="fill:#b9e4ea;fill-opacity:1;fill-rule:nonzero;stroke:none"
       transform="scale(1.3333333)" />
    <path
       id="Idadc6e3ed7264f84af53645879b95d6b20251103104212"
       d="m 49.859,48.277 c -2.132,1.782 -3.421,0.094 -2.293,-1.113 1.461,-1.555 4.231,-3.469 2.403,-9.008 -0.305,-0.918 0.101,-1.84 0.945,-0.316 2.793,5.051 1.078,8.656 -1.055,10.437 z"
       style="fill:#b9e4ea;fill-opacity:1;fill-rule:nonzero;stroke:none"
       transform="scale(1.3333333)" />
  </g>
</svg>




