<?xml version="1.0" encoding="UTF-8" standalone="no"?> <svg version="1.1" id="I6730a5bfbd04461183bb8fd6aa82d7b020251106152728" width="100" height="100" viewBox="0 0 100 100" xmlns="http://www.w3.org/2000/svg" xmlns:svg="http://www.w3.org/2000/svg"> <defs id="I6a4999bfd00848bdb6b97db233fbde1c20251106152728" /> <g id="I9a42bfc5980144fdbd685e0c12d116d820251106152728"> <path id="I02a0e5cdf5654701b98dc25ef23f54bc20251106152728" d="M 25.203,59.199 45.516,13.887 c 0.531,-1.184 1.918,-1.711 3.097,-1.18 1.086,0.484 1.617,1.691 1.293,2.797 l -0.109,0.301 -20.313,45.312 c -0.531,1.18 -1.918,1.707 -3.097,1.18 -1.086,-0.488 -1.617,-1.692 -1.293,-2.801 L 25.203,59.199 45.516,13.887 Z M 6.938,35.844 20.219,22.562 c 0.914,-0.914 2.398,-0.914 3.312,0 0.832,0.833 0.91,2.133 0.227,3.051 L 23.531,25.875 11.91,37.5 23.531,49.125 c 0.918,0.914 0.918,2.398 0,3.313 -0.832,0.832 -2.133,0.91 -3.051,0.226 L 20.219,52.438 6.938,39.156 C 6.105,38.324 6.027,37.023 6.711,36.105 L 6.938,35.844 20.219,22.562 Z M 51.469,22.562 c 0.832,-0.832 2.133,-0.906 3.051,-0.226 l 0.261,0.226 13.281,13.282 c 0.833,0.832 0.911,2.133 0.227,3.051 l -0.227,0.261 -13.281,13.282 c -0.914,0.917 -2.398,0.917 -3.312,0 -0.832,-0.833 -0.91,-2.133 -0.227,-3.051 L 51.469,49.125 63.09,37.5 51.469,25.875 c -0.918,-0.914 -0.918,-2.398 0,-3.313 z" style="fill:currentColor;fill-opacity:1;fill-rule:nonzero;stroke:none" transform="scale(1.3333333)" /> </g>
</svg>

