<?xml version="1.0" encoding="UTF-8" standalone="no"?> <svg version="1.1" id="I0b6ecaec894745a7828387678d55211a20251110123031" width="100" height="100" viewBox="0 0 100 100" xmlns="http://www.w3.org/2000/svg" xmlns:svg="http://www.w3.org/2000/svg"> <defs id="I96147b69faf446bb828a2259e158a96c20251110123031" /> <g id="Ia3a0c310fece420ba36fbf07a340463720251110123031"> <path id="Ia59dc4e76cfb43489d0af9366c032f3c20251110123031" d="m 22.5,22.5 c 0,-8.285 6.715,-15 15,-15 8.285,0 15,6.715 15,15 0,8.242 -6.809,15 -15,15 -8.285,0 -15,-6.715 -15,-15 z M 42.098,41.25 H 18.781 c -4.144,0 -7.531,3.324 -7.531,7.5 0,6.344 3.121,11.125 8.008,14.238 3.039,1.938 6.754,3.231 10.832,3.918 -0.176,-1.254 -0.098,-2.535 0.234,-3.765 -3.512,-0.633 -6.597,-1.75 -9.051,-3.317 C 17.332,57.312 15,53.656 15,48.75 15,46.676 16.68,45 18.781,45 H 41.23 c 0.145,-1.273 0.434,-2.531 0.868,-3.75 z m -4.598,-30 c -6.215,0 -11.25,5.035 -11.25,11.25 0,6.215 5.035,11.25 11.25,11.25 6.215,0 11.25,-5.035 11.25,-11.25 0,-6.215 -5.035,-11.25 -11.25,-11.25 z m 22.094,22.59 c 1.375,0.16 1.769,1.805 0.789,2.781 l -3.656,3.656 c -2.207,2.211 -2.207,5.789 0,7.996 2.207,2.207 5.785,2.207 7.996,0 l 3.656,-3.656 c 0.976,-0.98 2.621,-0.586 2.781,0.789 0.453,3.867 -0.808,7.895 -3.773,10.864 -3.723,3.718 -9.114,4.753 -13.762,3.097 L 43.402,69.594 c -2.211,2.207 -5.789,2.207 -7.996,0 -2.207,-2.207 -2.207,-5.785 0,-7.996 L 45.633,51.375 C 43.977,46.727 45.012,41.336 48.73,37.613 51.699,34.648 55.727,33.391 59.594,33.84 Z" style="fill:currentColor;fill-opacity:1;fill-rule:nonzero;stroke:none" transform="scale(1.3333333)" /> </g>
</svg>

