<?xml version="1.0" encoding="UTF-8" standalone="no"?> <svg version="1.1" id="I5abf16a1020b4166b2f91615727297f320251106142135" width="100" height="100" viewBox="0 0 100 100" xmlns="http://www.w3.org/2000/svg" xmlns:svg="http://www.w3.org/2000/svg"> <defs id="Ibe0f0316aae44c0687bd4daa83980d0320251106142135" /> <g id="Ib1f88b1384194535a7f84104abcdb58220251106142135"> <path id="I776d6ea7345348eab2b4921205ce369320251106142135" d="m 41.902,7.852 c -2.824,-1.145 -5.98,-1.145 -8.804,0 L 26.25,10.629 56.227,22.285 66.773,18.211 C 66.348,17.859 65.867,17.566 65.336,17.352 Z M 68.75,22.473 39.844,33.641 v 10.468 c 0.254,-0.078 0.515,-0.144 0.781,-0.199 v -0.156 c 0,-4.746 3.848,-8.594 8.594,-8.594 h 10.937 c 4.735,0 8.574,3.828 8.594,8.555 z M 35.156,33.641 v 14.515 c -0.5,1.032 -0.781,2.188 -0.781,3.41 v 15.625 c 0,0.133 0.004,0.266 0.012,0.399 -0.438,-0.117 -0.867,-0.266 -1.289,-0.438 L 9.664,57.652 C 7.602,56.816 6.25,54.812 6.25,52.586 V 22.473 Z M 8.227,18.211 37.5,29.52 49.738,24.793 19.918,13.195 9.664,17.352 C 9.133,17.566 8.652,17.859 8.227,18.211 Z M 43.75,46.879 h -1.562 c -2.59,0 -4.688,2.098 -4.688,4.687 v 4.688 h 7.812 v -0.781 c 0,-1.297 1.051,-2.344 2.344,-2.344 1.293,0 2.344,1.047 2.344,2.344 v 0.781 h 9.375 v -0.781 c 0,-1.297 1.051,-2.344 2.344,-2.344 1.293,0 2.343,1.047 2.343,2.344 v 0.781 h 7.813 v -4.688 c 0,-2.589 -2.098,-4.687 -4.687,-4.687 h -1.563 v -3.125 c 0,-3.02 -2.449,-5.469 -5.469,-5.469 H 49.219 c -3.02,0 -5.469,2.449 -5.469,5.469 z m 4.688,-3.125 c 0,-0.434 0.351,-0.781 0.781,-0.781 h 10.937 c 0.43,0 0.782,0.347 0.782,0.781 v 3.125 h -12.5 z M 37.5,67.191 v -6.25 h 7.812 v 2.344 c 0,1.293 1.051,2.344 2.344,2.344 1.293,0 2.344,-1.051 2.344,-2.344 v -2.344 h 9.375 v 2.344 c 0,1.293 1.051,2.344 2.344,2.344 1.293,0 2.343,-1.051 2.343,-2.344 v -2.344 h 7.813 v 6.25 c 0,2.59 -2.098,4.688 -4.687,4.688 h -25 c -2.59,0 -4.688,-2.098 -4.688,-4.688 z" style="fill:currentColor;fill-opacity:1;fill-rule:nonzero;stroke:none" transform="scale(1.3333333)" /> </g>
</svg>

