<?xml version="1.0" encoding="UTF-8" standalone="no"?> <svg version="1.1" id="I99853c804f8f4c8db1731bf102a895f920251106144520" width="100" height="100" viewBox="0 0 100 100" xmlns="http://www.w3.org/2000/svg" xmlns:svg="http://www.w3.org/2000/svg"> <defs id="I571c84d4e3db44c0afa53787d4242c2b20251106144520"> <linearGradient x1="3.6428599" y1="6.375" x2="16.065001" y2="19.2812" gradientUnits="userSpaceOnUse" gradientTransform="scale(3.125)" spreadMethod="pad" id="I0c6e3e94fe184e4f881aa9379d58b9a520251106144520"> <stop style="stop-opacity:1;stop-color:#36dff1" offset="0" id="If1cede4fe3d9482a9a9cbf39fe48972520251106144520" /> <stop style="stop-opacity:1;stop-color:#2764e7" offset="1" id="Ib4520367f6fb43948c88a99de58b96d120251106144520" /> </linearGradient> <linearGradient x1="8.6157799" y1="8.6343002" x2="13.4669" y2="24.312599" gradientUnits="userSpaceOnUse" gradientTransform="scale(3.125)" spreadMethod="pad" id="I28b81a7ab7f54fc4bdea66388040b4d620251106144520"> <stop style="stop-opacity:1;stop-color:#ffffff" offset="0" id="Iadd0332b75ae433395d270a6316b946c20251106144520" /> <stop style="stop-opacity:1;stop-color:#b3e0ff" offset="1" id="I8ad03f97a44645698a7f26922c51c63620251106144520" /> </linearGradient> </defs> <g id="I4c8f6474c8594ee79d3767df288df4ba20251106144520"> <path id="I591d57fb844b44aa8cf02e541742806320251106144520" d="m 19.531,9.375 c -5.609,0 -10.156,4.547 -10.156,10.156 v 35.938 c 0,5.609 4.547,10.156 10.156,10.156 h 35.938 c 5.609,0 10.156,-4.547 10.156,-10.156 V 19.531 c 0,-5.609 -4.547,-10.156 -10.156,-10.156 z" transform="scale(1.3333333)" style="fill:url(#I0c6e3e94fe184e4f881aa9379d58b9a520251106144520);stroke:none" /> <path id="Iab96ffcfa0d6404bacc43c8abc30bec820251106144520" d="M 54,29.004 32.895,50.082 c -0.915,0.914 -2.399,0.914 -3.313,0 L 21,41.5 c -0.914,-0.914 -0.914,-2.398 0,-3.312 0.914,-0.918 2.398,-0.918 3.316,0 l 6.922,6.921 19.45,-19.425 c 0.914,-0.914 2.398,-0.911 3.312,0.004 0.918,0.914 0.914,2.398 0,3.316 z" transform="scale(1.3333333)" style="fill:url(#I28b81a7ab7f54fc4bdea66388040b4d620251106144520);stroke:none" /> </g>
</svg>

