<?xml version="1.0" encoding="UTF-8" standalone="no"?> <svg version="1.1" id="Id5f19758f9194b4c903dfadfbe9e829220251106164750" width="100" height="100" viewBox="0 0 100 100" xmlns="http://www.w3.org/2000/svg" xmlns:svg="http://www.w3.org/2000/svg"> <defs id="I58f003fe5e1e44ffaacbfbb5d30c7eee20251106164750" /> <g id="I101bdf73cf174088a566109b4c68526620251106164750"> <path id="I9811dfe6d74747849092e91afad4a17b20251106164750" d="m 21.875,15.625 c 0,3.453 -2.797,6.25 -6.25,6.25 -3.453,0 -6.25,-2.797 -6.25,-6.25 0,-3.453 2.797,-6.25 6.25,-6.25 3.453,0 6.25,2.797 6.25,6.25 z m 43.75,0 c 0,3.453 -2.797,6.25 -6.25,6.25 -3.453,0 -6.25,-2.797 -6.25,-6.25 0,-3.453 2.797,-6.25 6.25,-6.25 3.453,0 6.25,2.797 6.25,6.25 z m -43.75,43.75 c 0,3.453 -2.797,6.25 -6.25,6.25 -3.453,0 -6.25,-2.797 -6.25,-6.25 0,-3.453 2.797,-6.25 6.25,-6.25 3.453,0 6.25,2.797 6.25,6.25 z M 25,15.625 c 0,0.531 -0.043,1.055 -0.129,1.563 h 14.191 c 1.727,0 3.126,1.398 3.126,3.124 v 7.813 h -6.25 c -4.317,0 -7.813,3.496 -7.813,7.813 v 6.25 h -7.813 c -1.726,0 -3.124,-1.399 -3.124,-3.126 V 24.871 C 16.68,24.957 16.156,25 15.625,25 14.527,25 13.477,24.812 12.5,24.465 v 14.597 c 0,4.317 3.496,7.813 7.812,7.813 h 7.813 v 7.813 c 0,4.312 3.496,7.808 7.809,7.812 -0.661,-1.578 -1.125,-3.254 -1.368,-5.004 -1.039,-0.508 -1.754,-1.574 -1.754,-2.808 v -18.75 c 0,-1.727 1.399,-3.126 3.126,-3.126 h 18.75 c 1.234,0 2.3,0.715 2.808,1.754 1.75,0.243 3.426,0.707 5.004,1.368 -0.004,-4.313 -3.5,-7.809 -7.812,-7.809 h -7.813 v -7.813 c 0,-4.316 -3.496,-7.812 -7.813,-7.812 H 24.465 C 24.812,13.477 25,14.527 25,15.625 Z m 46.875,39.063 c 0,9.492 -7.695,17.187 -17.187,17.187 C 45.195,71.875 37.5,64.18 37.5,54.688 37.5,45.195 45.195,37.5 54.688,37.5 c 9.492,0 17.187,7.695 17.187,17.188 z M 54.688,52.477 49.543,47.332 c -0.609,-0.609 -1.602,-0.609 -2.211,0 -0.609,0.609 -0.609,1.602 0,2.211 l 5.145,5.145 -5.145,5.144 c -0.609,0.609 -0.609,1.602 0,2.211 0.609,0.609 1.602,0.609 2.211,0 l 5.145,-5.145 5.144,5.145 c 0.609,0.609 1.602,0.609 2.211,0 0.609,-0.609 0.609,-1.602 0,-2.211 l -5.145,-5.144 5.145,-5.145 c 0.609,-0.609 0.609,-1.602 0,-2.211 -0.609,-0.609 -1.602,-0.609 -2.211,0 z" style="fill:currentColor;fill-opacity:1;fill-rule:nonzero;stroke:none" transform="scale(1.3333333)" /> </g>
</svg>

