<?xml version="1.0" encoding="UTF-8" standalone="no"?> <svg version="1.1" id="Id59c11eeee2442029f1a91844452e83f20251106143238" width="100" height="100" viewBox="0 0 100 100" xmlns="http://www.w3.org/2000/svg" xmlns:svg="http://www.w3.org/2000/svg"> <defs id="Ic5a8c4629521404c9819cb336fb9838120251106143238" /> <g id="I0cc2e12c5e044bdf8ec502de338cfaff20251106143238"> <path id="Id5a0a85b3d8544d4a7dcd348daef7c6b20251106143238" d="M 63.75,54.375 V 26.25 h -52.5 v 9.254 c 2.258,-1.121 4.805,-1.754 7.5,-1.754 9.32,0 16.875,7.555 16.875,16.875 0,2.605 -0.59,5.074 -1.645,7.273 l 5.848,5.852 h 14.547 c 5.176,0 9.375,-4.199 9.375,-9.375 z m 0,-33.75 c 0,-5.176 -4.199,-9.375 -9.375,-9.375 h -33.75 c -5.176,0 -9.375,4.199 -9.375,9.375 V 22.5 h 52.5 z M 26.609,61.137 C 24.418,62.777 21.699,63.75 18.75,63.75 11.5,63.75 5.625,57.875 5.625,50.625 5.625,43.375 11.5,37.5 18.75,37.5 c 7.25,0 13.125,5.875 13.125,13.125 0,2.949 -0.973,5.668 -2.613,7.859 l 9.562,9.567 c 0.735,0.73 0.735,1.918 0,2.648 -0.73,0.735 -1.918,0.735 -2.648,0 z m 1.516,-10.512 c 0,-5.176 -4.199,-9.375 -9.375,-9.375 -5.176,0 -9.375,4.199 -9.375,9.375 0,5.176 4.199,9.375 9.375,9.375 5.176,0 9.375,-4.199 9.375,-9.375 z" style="fill:currentColor;fill-opacity:1;fill-rule:nonzero;stroke:none" transform="scale(1.3333333)" /> </g>
</svg>

