<?xml version="1.0" encoding="UTF-8" standalone="no"?> <svg version="1.1" id="Ib0e8e03442f942e09b3cad9c968db24d20251110123029" width="100" height="100" viewBox="0 0 100 100" xmlns="http://www.w3.org/2000/svg" xmlns:svg="http://www.w3.org/2000/svg"> <defs id="Ice279b21510e426b872790ebce9e025620251110123029" /> <g id="Ic1883e720397465d84b8f1b9d937d98520251110123029"> <path id="I27fb5c685c6a4150bde7dbb6e569af2920251110123029" d="m 28.727,28.902 c 0.867,-0.964 2.347,-1.043 3.308,-0.175 l 7.813,7.031 c 0.496,0.445 0.777,1.078 0.777,1.742 0,0.664 -0.281,1.297 -0.777,1.742 l -7.813,7.031 c -0.961,0.868 -2.441,0.789 -3.308,-0.175 -0.868,-0.961 -0.789,-2.442 0.175,-3.309 l 3.27,-2.945 H 21.094 c -1.293,0 -2.344,-1.051 -2.344,-2.344 0,-1.293 1.051,-2.344 2.344,-2.344 h 11.078 l -3.27,-2.945 C 27.938,31.344 27.859,29.863 28.727,28.902 Z M 68.75,53.906 c 0,4.746 -3.848,8.594 -8.594,8.594 H 14.844 C 10.098,62.5 6.25,58.652 6.25,53.906 V 21.094 c 0,-4.746 3.848,-8.594 8.594,-8.594 h 45.312 c 4.746,0 8.594,3.848 8.594,8.594 z M 46.879,57.812 V 17.188 H 14.844 c -2.156,0 -3.906,1.75 -3.906,3.906 v 32.812 c 0,2.156 1.75,3.906 3.906,3.906 z" style="fill:currentColor;fill-opacity:1;fill-rule:nonzero;stroke:none" transform="scale(1.3333333)" /> </g>
</svg>

