<?xml version="1.0" encoding="UTF-8" standalone="no"?> <svg version="1.1" id="I9b9089a71e3d480883b9c9c0f5746e2420251110123031" width="100" height="100" viewBox="0 0 100 100" xmlns="http://www.w3.org/2000/svg" xmlns:svg="http://www.w3.org/2000/svg"> <defs id="I1eb73bcefc7249c1b7381036379b1c5a20251110123031" /> <g id="I0ce48542dc6d41ada64307e919ebee1820251110123031"> <path id="I60105b50a50c42f68111555b33087b9220251110123031" d="m 51.559,49.137 0.039,0.047 c 1.25,1.246 2.961,1.773 4.652,1.511 v 11.024 c 0,3.722 -2.891,6.765 -6.551,7.015 l -0.48,0.016 H 25.781 c -3.722,0 -6.769,-2.891 -7.015,-6.551 L 18.75,61.719 18.746,50.691 c 1.524,0.239 3.063,-0.168 4.266,-1.16 l 0.422,-0.39 0.004,12.578 c 0,1.187 0.882,2.168 2.027,2.324 l 0.316,0.019 h 23.438 c 1.187,0 2.168,-0.882 2.324,-2.027 l 0.019,-0.316 z M 21.191,28.023 c 0.832,0.832 0.907,2.137 0.227,3.055 l -0.227,0.262 -3.816,3.812 h 11.824 c 1.133,0 2.051,1.047 2.051,2.344 0,1.184 -0.77,2.164 -1.773,2.32 L 29.199,39.84 H 17.375 l 3.816,3.816 c 0.832,0.832 0.907,2.133 0.227,3.051 l -0.227,0.262 c -0.832,0.832 -2.132,0.91 -3.05,0.226 L 17.875,46.969 10.473,39.57 C 9.82,39.18 9.375,38.398 9.375,37.496 c 0,-0.898 0.445,-1.68 1.094,-2.074 l 7.406,-7.399 c 0.918,-0.914 2.402,-0.914 3.316,0 z m 32.618,-0.007 c 0.832,-0.832 2.132,-0.907 3.05,-0.227 l 0.266,0.227 7.406,7.398 c 0.649,0.395 1.094,1.176 1.094,2.074 0,0.789 -0.34,1.485 -0.863,1.91 l -0.235,0.164 -7.402,7.399 -0.266,0.227 c -0.812,0.605 -1.933,0.613 -2.757,0.023 l -0.293,-0.25 -0.227,-0.262 c -0.605,-0.816 -0.613,-1.937 -0.023,-2.758 l 0.25,-0.296 3.816,-3.817 H 45.801 L 45.523,39.809 C 44.52,39.652 43.75,38.672 43.75,37.484 c 0,-1.183 0.773,-2.164 1.773,-2.32 l 0.278,-0.023 h 11.824 l -3.816,-3.809 -0.227,-0.266 c -0.68,-0.918 -0.605,-2.218 0.227,-3.05 z M 49.219,6.25 c 3.722,0 6.765,2.891 7.015,6.551 l 0.016,0.48 v 10.992 c -1.484,-0.214 -3.039,0.18 -4.258,1.188 l -0.433,0.394 0.003,-12.574 c 0,-1.187 -0.882,-2.168 -2.027,-2.324 L 49.219,10.938 H 25.781 c -1.187,0 -2.168,0.882 -2.324,2.027 l -0.019,0.316 V 25.852 L 23.402,25.816 C 22.133,24.547 20.395,24.031 18.746,24.27 L 18.75,13.281 c 0,-3.722 2.891,-6.769 6.551,-7.015 l 0.48,-0.016 z" style="fill:currentColor;fill-opacity:1;fill-rule:nonzero;stroke:none" transform="scale(1.3333333)" /> </g>
</svg>

