<?xml version="1.0" encoding="UTF-8" standalone="no"?> <svg version="1.1" id="Ic590502b52c641689990459a6864931220251110123029" width="100" height="100" viewBox="0 0 100 100" xmlns="http://www.w3.org/2000/svg" xmlns:svg="http://www.w3.org/2000/svg"> <defs id="I1166791e9e3b4a36bbf311dda81f131520251110123029" /> <g id="Ib629e915475a4faa8ef229123a0773e720251110123029"> <path id="I1298ab0665bb48b19a162270f9dc658520251110123029" d="m 16.016,10.938 c -5.395,0 -9.766,4.371 -9.766,9.765 v 24.219 c 0,5.394 4.371,9.766 9.766,9.766 h 25.242 l -5.395,-5.395 c -1.984,-1.981 -1.984,-5.199 0,-7.18 l 4.867,-4.871 -1.668,-1.668 -2.914,2.918 c -0.765,0.762 -2,0.762 -2.765,0 -0.762,-0.765 -0.762,-2 0,-2.765 l 2.918,-2.915 -2.918,-2.914 c -0.762,-0.765 -0.762,-2 0,-2.765 0.765,-0.762 2,-0.762 2.765,0 l 2.914,2.918 2.915,-2.918 c 0.765,-0.762 2,-0.762 2.765,0 0.762,0.765 0.762,2 0,2.765 l -2.918,2.914 1.946,1.946 c 1.835,-0.758 4.031,-0.391 5.523,1.105 0.285,0.285 0.531,0.594 0.734,0.922 0.153,-0.922 0.957,-1.629 1.926,-1.629 h 7.031 c 1.078,0 1.954,0.875 1.954,1.953 0,1.079 -0.876,1.953 -1.954,1.953 h -7.031 c -0.473,0 -0.902,-0.167 -1.242,-0.445 0.113,0.668 0.09,1.348 -0.066,2.008 h 7.167 c 4.157,0 7.965,1.473 10.938,3.93 V 20.703 c 0,-5.394 -4.371,-9.765 -9.766,-9.765 z m 0.179,16.195 c 0.766,-0.762 2,-0.762 2.766,0 l 2.914,2.918 2.914,-2.918 c 0.766,-0.762 2,-0.762 2.766,0 0.761,0.765 0.761,2 0,2.765 l -2.918,2.914 2.918,2.915 c 0.761,0.765 0.761,2 0,2.765 -0.766,0.762 -2,0.762 -2.766,0 l -2.914,-2.918 -2.914,2.918 c -0.766,0.762 -2,0.762 -2.766,0 -0.761,-0.765 -0.761,-2 0,-2.765 l 2.918,-2.915 -2.918,-2.914 c -0.761,-0.765 -0.761,-2 0,-2.765 z m 30.891,13.703 c 0.762,-0.766 0.762,-2 0,-2.766 -0.766,-0.761 -2,-0.761 -2.766,0 l -6.25,6.25 c -0.761,0.766 -0.761,2 0,2.766 l 6.25,6.25 c 0.766,0.762 2,0.762 2.766,0 0.762,-0.766 0.762,-2 0,-2.766 l -2.918,-2.914 h 13.644 c 5.61,0 10.157,4.547 10.157,10.156 0,5.61 -4.547,10.157 -10.157,10.157 -5.046,0 -9.238,-3.684 -10.023,-8.512 -0.172,-1.062 -1.176,-1.785 -2.242,-1.613 -1.063,0.172 -1.785,1.176 -1.613,2.242 1.086,6.684 6.886,11.789 13.878,11.789 7.766,0 14.063,-6.297 14.063,-14.063 0,-7.765 -6.297,-14.062 -14.063,-14.062 H 44.168 Z" style="fill:currentColor;fill-opacity:1;fill-rule:nonzero;stroke:none" transform="scale(1.3333333)" /> </g>
</svg>

