<?xml version="1.0" encoding="UTF-8" standalone="no"?> <svg version="1.1" id="I01ac8eaef9854699ae8efd7dc0e09c3e20251106105802" width="100" height="100" viewBox="0 0 100 100" xmlns="http://www.w3.org/2000/svg" xmlns:svg="http://www.w3.org/2000/svg"> <defs id="I5c8568d2dd86432e9377ff6403a0d5ba20251106105802" /> <g id="Iaed95c5503074a4c8044d525467b1e8720251106105802"> <path id="I8895790b8179482383bfde257bef6ac420251106105802" d="m 15.402,16.742 h 6.027 V 57.59 h -6.027 z" style="fill:currentColor;fill-opacity:1;fill-rule:evenodd;stroke:none" transform="scale(1.3333333)" /> <path id="Ica9df377bd344c9dba1135a8bee0ad9720251106105802" d="m 56.586,66.879 c 5.176,0 9.375,-4.195 9.375,-9.375 0,-4.043 -2.563,-7.488 -6.152,-8.805 V 39.238 C 59.805,37.402 58.625,35.773 56.883,35.203 L 20.477,23.281 18.602,29.012 53.781,40.527 v 8.032 c -3.808,1.191 -6.57,4.746 -6.57,8.945 0,5.18 4.195,9.375 9.375,9.375 m -38.172,5.109 c 5.18,0 9.375,-4.199 9.375,-9.375 0,-5.179 -4.195,-9.375 -9.375,-9.375 -5.176,0 -9.375,4.196 -9.375,9.375 0,5.176 4.199,9.375 9.375,9.375 M 56.586,61.523 c -5.359,0 -5.359,-8.035 0,-8.035 5.355,0 5.355,8.035 0,8.035 m -38.172,5.106 c -5.355,0 -5.355,-8.035 0,-8.035 5.359,0 5.359,8.035 0,8.035 m 0,-44.867 c 5.18,0 9.375,-4.196 9.375,-9.375 0,-5.176 -4.195,-9.375 -9.375,-9.375 -5.176,0 -9.375,4.199 -9.375,9.375 0,5.179 4.199,9.375 9.375,9.375 m 0,-5.356 c -5.355,0 -5.355,-8.035 0,-8.035 5.359,0 5.359,8.035 0,8.035" style="fill:currentColor;fill-opacity:1;fill-rule:evenodd;stroke:none" transform="scale(1.3333333)" /> </g>
</svg>

