<?xml version="1.0" encoding="UTF-8" standalone="no"?> <svg version="1.1" id="Ie44a909e915943feb53d0432d547c80720251110130510" width="100" height="100" viewBox="0 0 100 100" xmlns="http://www.w3.org/2000/svg" xmlns:svg="http://www.w3.org/2000/svg"> <defs id="I9c7f19ac6a4d498cbbc25ab1d90fd24e20251110130510" /> <g id="I0028e34e5a0e4449b1e60f1963cbd6ac20251110130510"> <path id="I21523edcfd814975a9b75da036fcd5eb20251110130510" d="m 17.969,9.375 c -4.746,0 -8.594,3.848 -8.594,8.594 v 39.062 c 0,4.746 3.848,8.594 8.594,8.594 h 39.062 c 4.746,0 8.594,-3.848 8.594,-8.594 V 17.969 c 0,-4.746 -3.848,-8.594 -8.594,-8.594 z m 4.687,26.563 h 29.688 c 1.293,0 2.344,1.05 2.344,2.343 0,1.293 -1.051,2.344 -2.344,2.344 H 22.656 c -1.293,0 -2.344,-1.051 -2.344,-2.344 0,-1.293 1.051,-2.343 2.344,-2.343 z m 0,12.5 h 20.313 c 1.293,0 2.343,1.05 2.343,2.343 0,1.293 -1.05,2.344 -2.343,2.344 H 22.656 c -1.293,0 -2.344,-1.051 -2.344,-2.344 0,-1.293 1.051,-2.343 2.344,-2.343 z" style="fill:currentColor;fill-opacity:1;fill-rule:nonzero;stroke:none" transform="scale(1.3333333)" /> </g>
</svg>

