<?xml version="1.0" encoding="UTF-8" standalone="no"?> <svg version="1.1" id="Id79acb80e9e746489e37f2b94e0c0af820251106142135" width="100" height="100" viewBox="0 0 100 100" xmlns="http://www.w3.org/2000/svg" xmlns:svg="http://www.w3.org/2000/svg"> <defs id="I55502f6391dc4f758173ebba58f53fb120251106142135" /> <g id="Ic5bac65c678f485d871707076395489320251106142135"> <path id="I817ef30a576d4a198cdbed59d56ce9da20251106142135" d="m 18.75,65.625 c 1.727,0 3.125,-1.398 3.125,-3.125 0,-1.727 -1.398,-3.125 -3.125,-3.125 -1.727,0 -3.125,-1.398 -3.125,-3.125 v -37.5 c 0,-1.727 1.398,-3.125 3.125,-3.125 1.727,0 3.125,-1.398 3.125,-3.125 0,-1.727 -1.398,-3.125 -3.125,-3.125 -5.176,0 -9.375,4.199 -9.375,9.375 v 37.5 c 0,5.18 4.199,9.375 9.375,9.375 z m 21.875,-50 c 1.727,0 3.125,-1.398 3.125,-3.125 0,-1.727 -1.398,-3.125 -3.125,-3.125 h -6.25 c -1.727,0 -3.125,1.398 -3.125,3.125 0,1.727 1.398,3.125 3.125,3.125 z m 18.75,18.75 c 0,-1.727 1.398,-3.125 3.125,-3.125 1.727,0 3.125,1.398 3.125,3.125 v 6.25 c 0,1.727 -1.398,3.125 -3.125,3.125 -1.727,0 -3.125,-1.398 -3.125,-3.125 z M 43.75,62.5 c 0,1.727 -1.398,3.125 -3.125,3.125 h -6.25 c -1.727,0 -3.125,-1.398 -3.125,-3.125 0,-1.727 1.398,-3.125 3.125,-3.125 h 6.25 c 1.727,0 3.125,1.398 3.125,3.125 z M 56.25,9.375 c -1.727,0 -3.125,1.398 -3.125,3.125 0,1.727 1.398,3.125 3.125,3.125 1.727,0 3.125,1.398 3.125,3.125 0,1.727 1.398,3.125 3.125,3.125 1.727,0 3.125,-1.398 3.125,-3.125 0,-5.176 -4.195,-9.375 -9.375,-9.375 z M 53.125,62.5 c 0,1.727 1.398,3.125 3.125,3.125 5.18,0 9.375,-4.195 9.375,-9.375 0,-1.727 -1.398,-3.125 -3.125,-3.125 -1.727,0 -3.125,1.398 -3.125,3.125 0,1.727 -1.398,3.125 -3.125,3.125 -1.727,0 -3.125,1.398 -3.125,3.125 z" style="fill:currentColor;fill-opacity:1;fill-rule:nonzero;stroke:none" transform="scale(1.3333333)" /> </g>
</svg>

