<?xml version="1.0" encoding="UTF-8" standalone="no"?> <svg version="1.1" id="I4c5f4c7ff37c420780555bbcf0f3d6a720251106155156" width="100" height="100" viewBox="0 0 100 100" xmlns="http://www.w3.org/2000/svg" xmlns:svg="http://www.w3.org/2000/svg"> <defs id="I8b88aed2f66341aaab78419029f9bf1b20251106155156"> <linearGradient x1="9.1805696" y1="9.7834902" x2="22.884701" y2="23.8009" gradientUnits="userSpaceOnUse" gradientTransform="scale(2.678571)" spreadMethod="pad" id="I9e298f034b77417e8edc002ee843515920251106155156"> <stop style="stop-opacity:1;stop-color:#52d17c" offset="0" id="Ibbd7318386da41f7b674e182521d98c320251106155156" /> <stop style="stop-opacity:1;stop-color:#22918b" offset="1" id="Ib0a2a6e86e6d423e9e3e46cc0f46966f20251106155156" /> </linearGradient> <linearGradient x1="3" y1="15" x2="13" y2="25" gradientUnits="userSpaceOnUse" gradientTransform="scale(2.678571)" spreadMethod="pad" id="I8eeaad667551402b8e0b9bbc656d763c20251106155156"> <stop style="stop-opacity:1;stop-color:#0fafff" offset="0" id="I15b3541b23844be38dc933ee0ea791a520251106155156" /> <stop style="stop-opacity:1;stop-color:#2764e7" offset="1" id="I7388b7dcd3a54d3e8dca06d81abb012020251106155156" /> </linearGradient> <linearGradient x1="10.8333" y1="-2" x2="23.125" y2="13.9375" gradientUnits="userSpaceOnUse" gradientTransform="scale(2.678571)" spreadMethod="pad" id="I7998d742c18c4bcb8e6071f95f56d7bf20251106155156"> <stop style="stop-opacity:1;stop-color:#ffcd0f" offset="0" id="I64f6cb4d25744665a1fb4da2f03ff97820251106155156" /> <stop style="stop-opacity:1;stop-color:#fe8401" offset="1" id="I9eb452c5b7e0415bb8047edcdf265ae820251106155156" /> </linearGradient> <linearGradient x1="3.3571401" y1="4.875" x2="10.2584" y2="12.0451" gradientUnits="userSpaceOnUse" gradientTransform="scale(2.678571)" spreadMethod="pad" id="I2877be9f8fc441e4b4d092ba95c536ad20251106155156"> <stop style="stop-opacity:1;stop-color:#f24a9d" offset="0" id="Iccf7d0831f404174971ba775fb51862f20251106155156" /> <stop style="stop-opacity:1;stop-color:#d7257d" offset="1" id="I3d6657ed761a4cd7aad49ff4814f9f8520251106155156" /> </linearGradient> </defs> <g id="I199cbdea85d34cc88bd5fbb59f6110b220251106155156"> <path id="Ie44951f17e4a4c36b1a27aff0987518420251106155156" d="m 55.246,39.094 c -1.035,-0.598 -2.312,-0.598 -3.348,0 l -10.027,5.789 c -1.039,0.597 -1.676,1.703 -1.676,2.898 v 11.578 c 0,1.2 0.637,2.305 1.676,2.903 l 10.027,5.789 c 1.036,0.597 2.313,0.597 3.348,0 l 10.027,-5.789 c 1.036,-0.598 1.672,-1.703 1.672,-2.903 V 47.781 c 0,-1.195 -0.636,-2.301 -1.672,-2.898 z" transform="scale(1.3333333)" style="fill:url(#I9e298f034b77417e8edc002ee843515920251106155156);stroke:none" /> <path id="I470b5b3e469b44cd9949574cf0c4a01d20251106155156" d="m 21.43,40.18 c -7.399,0 -13.395,5.996 -13.395,13.39 0,7.399 5.996,13.395 13.395,13.395 7.394,0 13.39,-5.996 13.39,-13.395 0,-7.394 -5.996,-13.39 -13.39,-13.39 z" transform="scale(1.3333333)" style="fill:url(#I8eeaad667551402b8e0b9bbc656d763c20251106155156);stroke:none" /> <path id="I104277cae8a24ed4b73596c88a2eef5220251106155156" d="m 47.543,8.035 c -4.066,0 -7.363,3.297 -7.363,7.367 v 12.055 c 0,4.066 3.297,7.363 7.363,7.363 h 12.055 c 4.07,0 7.367,-3.297 7.367,-7.363 V 15.402 c 0,-4.07 -3.297,-7.367 -7.367,-7.367 z" transform="scale(1.3333333)" style="fill:url(#I7998d742c18c4bcb8e6071f95f56d7bf20251106155156);stroke:none" /> <path id="I65fe9aee22c24e31852f53c969c819f320251106155156" d="m 26.281,11.043 c -2.015,-4.012 -7.687,-4.012 -9.707,0 L 8.633,26.832 c -1.84,3.66 0.793,7.988 4.855,7.988 h 15.883 c 4.063,0 6.691,-4.328 4.852,-7.988 z" transform="scale(1.3333333)" style="fill:url(#I2877be9f8fc441e4b4d092ba95c536ad20251106155156);stroke:none" /> </g>
</svg>

