<?xml version="1.0" encoding="UTF-8" standalone="no"?> <svg version="1.1" id="I358923ae131a4f6d8c7987d4b531c3a620251106165301" width="100" height="100" viewBox="0 0 100 100" xmlns="http://www.w3.org/2000/svg" xmlns:svg="http://www.w3.org/2000/svg"> <defs id="I2478b89deae74a9f943905e3d9b4579620251106165301" /> <g id="I704060029ea5416bbdefea570478171e20251106165301"> <path id="I1c0af517ab84432c874c709c2443b15d20251106165301" d="m 42.035,7.918 c -2.621,-2.211 -6.449,-2.211 -9.07,0 L 11.871,25.711 c -1.582,1.336 -2.496,3.305 -2.496,5.375 v 29.078 c 0,3.02 2.449,5.469 5.469,5.469 h 45.312 c 3.02,0 5.469,-2.449 5.469,-5.469 V 31.086 c 0,-2.07 -0.914,-4.039 -2.496,-5.375 z M 49.324,35.25 35.25,49.324 c -0.438,0.442 -1.035,0.688 -1.656,0.688 -0.621,0 -1.219,-0.246 -1.656,-0.688 l -6.25,-6.25 c -0.918,-0.914 -0.918,-2.398 0,-3.316 0.914,-0.914 2.398,-0.914 3.312,0 l 4.594,4.594 12.414,-12.414 c 0.918,-0.918 2.402,-0.918 3.316,0 0.914,0.914 0.914,2.398 0,3.312 z" style="fill:currentColor;fill-opacity:1;fill-rule:nonzero;stroke:none" transform="scale(1.3333333)" /> </g>
</svg>

