<?xml version="1.0" encoding="UTF-8" standalone="no"?> <svg version="1.1" id="I7af19a8ab20049db91f6391fddda85ac20251110123031" width="100" height="100" viewBox="0 0 100 100" xmlns="http://www.w3.org/2000/svg" xmlns:svg="http://www.w3.org/2000/svg"> <defs id="I543435c7315d4574af2b56de1690fc1920251110123031" /> <g id="Ifb14674f53ec42c3b4eebf02fe06785720251110123031"> <path id="Ib519ce6468c34d559aca6fdf899d8b2320251110123031" d="m 43.125,16.875 c 0,-4.141 3.359,-7.5 7.5,-7.5 4.141,0 7.5,3.359 7.5,7.5 0,3.344 -2.187,6.172 -5.207,7.145 L 58.902,30 h 6.723 c 3.105,0 5.625,2.52 5.625,5.625 0,3.105 -2.52,5.625 -5.625,5.625 H 53.539 c -2.363,0 -4.629,-0.938 -6.301,-2.609 l -0.363,-0.364 -3.91,3.911 5.234,5.238 c 0.352,0.351 0.551,0.828 0.551,1.324 v 13.125 c 0,3.105 -2.52,5.625 -5.625,5.625 -3.105,0 -5.625,-2.52 -5.625,-5.625 v -6.723 l -5.801,-5.8 -3.758,2.816 c -1.91,1.434 -4.23,2.207 -6.617,2.207 H 9.375 c -3.105,0 -5.625,-2.52 -5.625,-5.625 0,-3.105 2.52,-5.625 5.625,-5.625 h 15.937 c 4.661,0 8.438,-3.777 8.438,-8.437 V 30 h 3.75 c 1.035,0 1.875,-0.84 1.875,-1.875 0,-1.035 -0.84,-1.875 -1.875,-1.875 H 31.875 C 30.84,26.25 30,27.09 30,28.125 v 6.563 c 0,2.589 -2.098,4.687 -4.688,4.687 -2.589,0 -4.687,-2.098 -4.687,-4.687 V 26.25 c 0,-5.176 4.199,-9.375 9.375,-9.375 z" style="fill:currentColor;fill-opacity:1;fill-rule:nonzero;stroke:none" transform="scale(1.3333333)" /> </g>
</svg>

