<?xml version="1.0" encoding="UTF-8" standalone="no"?> <svg version="1.1" id="If49f57d5ab274790b76df60d3f457cec20251110130510" width="100" height="100" viewBox="0 0 100 100" xmlns="http://www.w3.org/2000/svg" xmlns:svg="http://www.w3.org/2000/svg"> <defs id="Ifa5b2f7dfc334f41ae6d327354dba3bc20251110130510" /> <g id="Ie5f841977ce34ba6882e61b236278d9920251110130510"> <path id="I7ffbe84ea1974c5387ff2cfe56a2210120251110130510" d="m 54.688,64.848 c 0,-2.157 1.746,-3.907 3.902,-3.907 2.156,0 3.906,1.75 3.906,3.907 0,2.156 -1.75,3.902 -3.906,3.902 -2.156,0 -3.902,-1.746 -3.902,-3.902 z M 56.25,53.906 V 8.594 c 0,-1.293 1.051,-2.344 2.344,-2.344 1.187,0 2.168,0.883 2.324,2.027 l 0.02,0.317 v 45.312 c 0,1.293 -1.051,2.344 -2.344,2.344 -1.188,0 -2.168,-0.883 -2.324,-2.027 z M 34.375,64.848 c 0,-2.157 1.746,-3.907 3.902,-3.907 2.157,0 3.907,1.75 3.907,3.907 0,2.156 -1.75,3.902 -3.907,3.902 -2.156,0 -3.902,-1.746 -3.902,-3.902 z M 35.938,53.906 V 8.594 c 0,-1.293 1.05,-2.344 2.343,-2.344 1.188,0 2.168,0.883 2.324,2.027 l 0.02,0.317 v 45.312 c 0,1.293 -1.051,2.344 -2.344,2.344 -1.187,0 -2.168,-0.883 -2.324,-2.027 z M 14.062,64.848 c 0,-2.157 1.747,-3.907 3.903,-3.907 2.156,0 3.906,1.75 3.906,3.907 0,2.156 -1.75,3.902 -3.906,3.902 -2.156,0 -3.903,-1.746 -3.903,-3.902 z M 15.625,53.906 V 8.594 c 0,-1.293 1.051,-2.344 2.344,-2.344 1.187,0 2.168,0.883 2.324,2.027 l 0.019,0.317 v 45.312 c 0,1.293 -1.05,2.344 -2.343,2.344 -1.188,0 -2.168,-0.883 -2.324,-2.027 z" style="fill:currentColor;fill-opacity:1;fill-rule:nonzero;stroke:none" transform="scale(1.3333333)" /> </g>
</svg>

