<?xml version="1.0" encoding="UTF-8" standalone="no"?> <svg version="1.1" id="I35d53613ec24427c96ee467a3cd79a8420251110123030" width="100" height="100" viewBox="0 0 100 100" xmlns="http://www.w3.org/2000/svg" xmlns:svg="http://www.w3.org/2000/svg"> <defs id="Iabfd38b4f3364b738b2520792e3bc34320251110123030"> <linearGradient x1="9.7072897" y1="19.5952" x2="13.5843" y2="31.976601" gradientUnits="userSpaceOnUse" gradientTransform="scale(2.34375)" spreadMethod="pad" id="I331d07496e9b4a96a23a6b288d2b0afc20251110123030"> <stop style="stop-opacity:1;stop-color:#9c6cfe" offset="0" id="Ic5f3723a2b3c4f3b8ded03506e1a1d5e20251110123030" /> <stop style="stop-opacity:1;stop-color:#9c6cfe" offset="0.125321" id="Ifce4bceaa4414d64bf0022e0dc38f84620251110123030" /> <stop style="stop-opacity:1;stop-color:#7a41dc" offset="1" id="Id139a8db596740cc858567565eab56c620251110123030" /> </linearGradient> <linearGradient x1="16" y1="16.5714" x2="21.4286" y2="36.857201" gradientUnits="userSpaceOnUse" gradientTransform="scale(2.34375)" spreadMethod="pad" id="I6ccb334b6971479da07ce759978ba74020251110123030"> <stop style="stop-opacity:0;stop-color:#885edb" offset="0" id="Idb30b48d12df4e35ace1506b04efb18820251110123030" /> <stop style="stop-opacity:1;stop-color:#e362f8" offset="1" id="I529d8d13386d403c929a4031763e7d8a20251110123030" /> </linearGradient> <radialGradient fx="0" fy="0" cx="0" cy="0" r="1" gradientUnits="userSpaceOnUse" gradientTransform="matrix(26.953072,18.749971,-9.257913,13.308244,57.421875,60.9375)" spreadMethod="pad" id="I3381ab03defc4f688006be86c4470d4820251110123030"> <stop style="stop-opacity:0.25000381;stop-color:#30116e" offset="0" id="I483ea59df41b444fabec3b43e232f1cc20251110123030" /> <stop style="stop-opacity:0.25000381;stop-color:#30116e" offset="0.436086" id="Ie7440b8c99d2425794e917581c7de7b820251110123030" /> <stop style="stop-opacity:0.20289921;stop-color:#30116e" offset="0.715498" id="I664fe962d5b74e659ee0753560c72c5020251110123030" /> <stop style="stop-opacity:0;stop-color:#30116e" offset="1" id="Ic4c3b021b00b43919d8e05158affa42f20251110123030" /> </radialGradient> <linearGradient x1="12.3293" y1="3.8611" x2="19.4641" y2="15.2539" gradientUnits="userSpaceOnUse" gradientTransform="scale(2.34375)" spreadMethod="pad" id="I734584d664bd46628bedf855b98e364220251110123030"> <stop style="stop-opacity:1;stop-color:#9c6cfe" offset="0" id="Ic1803d0bf57e4c91bbf5657da89152b520251110123030" /> <stop style="stop-opacity:1;stop-color:#9c6cfe" offset="0.125321" id="I83c0a5b3aa2442bba06eb303180207ad20251110123030" /> <stop style="stop-opacity:1;stop-color:#7a41dc" offset="1" id="I8887fd1a4fff4edf9191fea567491e9f20251110123030" /> </linearGradient> <linearGradient x1="16.778" y1="17.874701" x2="25.8062" y2="33.030602" gradientUnits="userSpaceOnUse" gradientTransform="scale(2.34375)" spreadMethod="pad" id="Ic0ec992d8b3a465990363203ef76f93b20251110123030"> <stop style="stop-opacity:1;stop-color:#fc92cb" offset="0" id="I34d02985c90b4ea9a4280c53e5e6baac20251110123030" /> <stop style="stop-opacity:1;stop-color:#d7257d" offset="1" id="I1ad11874460e4120be92bdf0c51c858320251110123030" /> </linearGradient> </defs> <g id="I12d490192795412a84f92525b348ff0d20251110123030"> <path id="Ia72bbaee53074128ac5af1a752c310ef20251110123030" d="m 46.875,42.188 6.203,6.203 c 0.457,0.457 1.199,0.457 1.656,0 l 5.653,-5.653 c 3.066,1.188 5.238,4.168 5.238,7.653 v 1.171 c 0,5.61 -3.57,10.356 -8.637,13.579 -5.097,3.242 -11.992,5.171 -19.488,5.171 -7.496,0 -14.395,-1.929 -19.488,-5.171 C 12.945,61.914 9.375,57.172 9.375,51.562 v -1.171 c 0,-4.532 3.672,-8.203 8.203,-8.203 z" transform="scale(1.3333333)" style="fill:url(#I331d07496e9b4a96a23a6b288d2b0afc20251110123030);stroke:none" /> <path d="m 46.875,42.188 6.203,6.203 c 0.457,0.457 1.199,0.457 1.656,0 l 5.653,-5.653 c 3.066,1.188 5.238,4.168 5.238,7.653 v 1.171 c 0,5.61 -3.57,10.356 -8.637,13.579 -5.097,3.242 -11.992,5.171 -19.488,5.171 -7.496,0 -14.395,-1.929 -19.488,-5.171 C 12.945,61.914 9.375,57.172 9.375,51.562 v -1.171 c 0,-4.532 3.672,-8.203 8.203,-8.203 z" transform="scale(1.3333333)" style="fill:url(#I6ccb334b6971479da07ce759978ba74020251110123030);stroke:none" opacity="1" id="Ib10e362e686341b2b083dd20dddce82720251110123030" /> <path d="m 46.875,42.188 6.203,6.203 c 0.457,0.457 1.199,0.457 1.656,0 l 5.653,-5.653 c 3.066,1.188 5.238,4.168 5.238,7.653 v 1.171 c 0,5.61 -3.57,10.356 -8.637,13.579 -5.097,3.242 -11.992,5.171 -19.488,5.171 -7.496,0 -14.395,-1.929 -19.488,-5.171 C 12.945,61.914 9.375,57.172 9.375,51.562 v -1.171 c 0,-4.532 3.672,-8.203 8.203,-8.203 z" transform="scale(1.3333333)" style="fill:url(#I3381ab03defc4f688006be86c4470d4820251110123030);stroke:none" opacity="1" id="I45ce38640ea24f32b04c98d85193cacc20251110123030" /> <path id="I848c7af6f61a44b59c09be9a5b1a13d620251110123030" d="m 37.5,37.5 c 9.062,0 16.406,-7.344 16.406,-16.406 0,-9.063 -7.344,-16.406 -16.406,-16.406 -9.062,0 -16.406,7.343 -16.406,16.406 0,9.062 7.344,16.406 16.406,16.406 z" transform="scale(1.3333333)" style="fill:url(#I734584d664bd46628bedf855b98e364220251110123030);stroke:none" /> <path id="I0ba118b72cab4972a14ac7362af6e1ae20251110123030" d="M 53.898,45.32 52.477,43.527 C 48.906,39.039 42.344,38.59 38.219,42.555 34.281,46.34 34.117,52.668 37.855,56.656 l 14.247,15.215 c 0.98,1.047 2.617,1.047 3.597,0 L 69.953,56.672 c 3.742,-3.996 3.578,-10.34 -0.367,-14.125 -4.133,-3.961 -10.691,-3.512 -14.262,0.98 z" transform="scale(1.3333333)" style="fill:url(#Ic0ec992d8b3a465990363203ef76f93b20251110123030);stroke:none" /> </g>
</svg>

