<?xml version="1.0" encoding="UTF-8" standalone="no"?> <svg version="1.1" id="I7d57d0d844014672bfe3ee91f595d98620251110124421" width="100" height="100" viewBox="0 0 100 100" xmlns="http://www.w3.org/2000/svg" xmlns:svg="http://www.w3.org/2000/svg"> <defs id="I01e9e9a2aa534c38ad45bbd24ddef3a620251110124421" /> <g id="I80772f0d82f7430e920048ded782077220251110124421"> <path id="Ibd411c2d6ffd481dbad7ec7d9bc7411020251110124421" d="M 6.25,22.656 C 6.25,17.047 10.797,12.5 16.406,12.5 h 42.188 c 5.609,0 10.156,4.547 10.156,10.156 V 52.344 C 68.75,57.953 64.203,62.5 58.594,62.5 H 16.406 C 10.797,62.5 6.25,57.953 6.25,52.344 Z M 50,37.5 c 3.453,0 6.25,-2.797 6.25,-6.25 C 56.25,27.797 53.453,25 50,25 c -3.453,0 -6.25,2.797 -6.25,6.25 0,3.453 2.797,6.25 6.25,6.25 z M 15.625,25 v 12.5 c 0,1.727 1.398,3.125 3.125,3.125 h 15.625 c 1.727,0 3.125,-1.398 3.125,-3.125 V 25 c 0,-1.727 -1.398,-3.125 -3.125,-3.125 H 18.75 c -1.727,0 -3.125,1.398 -3.125,3.125 z M 43.75,40.625 c -1.727,0 -3.125,1.398 -3.125,3.125 v 0.781 c 0,4.746 3.848,8.594 8.594,8.594 h 1.562 c 4.746,0 8.594,-3.848 8.594,-8.594 V 43.75 c 0,-1.727 -1.398,-3.125 -3.125,-3.125 z" style="fill:currentColor;fill-opacity:1;fill-rule:nonzero;stroke:none" transform="scale(1.3333333)" /> </g>
</svg>

