<?xml version="1.0" encoding="UTF-8" standalone="no"?> <svg version="1.1" id="I8a00cf07a3b14372a3adfd0abc09285e20251106152729" width="100" height="100" viewBox="0 0 100 100" xmlns="http://www.w3.org/2000/svg" xmlns:svg="http://www.w3.org/2000/svg"> <defs id="I3f27a5dcf4d146479220ea58b6edc7e020251106152729" /> <g id="Ic43c2e9656b64850af5e717475d0816220251106152729"> <path id="I99afb0c247c04c1a9eeb2e7ce5db31aa20251106152729" d="m 37.5,50.051 c 1.188,0 2.168,-0.879 2.324,-2.024 l 0.02,-0.32 V 14.254 l 6.937,6.934 c 0.832,0.832 2.133,0.91 3.051,0.226 l 0.262,-0.226 c 0.832,-0.833 0.91,-2.133 0.226,-3.051 L 50.094,17.875 39.156,6.938 C 38.324,6.105 37.023,6.027 36.105,6.711 L 35.844,6.938 24.906,17.875 c -0.918,0.914 -0.918,2.398 0,3.313 0.832,0.832 2.133,0.91 3.051,0.226 l 0.262,-0.226 6.937,-6.934 v 33.453 c 0,1.297 1.051,2.344 2.344,2.344 z m 0,18.75 c 12.082,0 21.875,-9.793 21.875,-21.875 0,-10.192 -6.969,-18.754 -16.402,-21.184 v 4.887 c 6.808,2.285 11.715,8.719 11.715,16.297 0,9.496 -7.696,17.187 -17.188,17.187 -9.492,0 -17.188,-7.691 -17.188,-17.187 0,-7.578 4.907,-14.012 11.719,-16.297 v -4.887 c -9.433,2.43 -16.406,10.992 -16.406,21.184 0,12.082 9.793,21.875 21.875,21.875 z m 0,-7.813 c 7.766,0 14.062,-6.293 14.062,-14.062 0,-5.824 -3.542,-10.821 -8.589,-12.957 l -0.004,5.343 c 2.367,1.704 3.906,4.477 3.906,7.614 0,5.179 -4.195,9.375 -9.375,9.375 -5.18,0 -9.375,-4.196 -9.375,-9.375 0,-3.137 1.543,-5.914 3.91,-7.617 l -0.004,-5.34 c -5.051,2.133 -8.593,7.133 -8.593,12.957 0,7.769 6.296,14.062 14.062,14.062 z" style="fill:currentColor;fill-opacity:1;fill-rule:nonzero;stroke:none" transform="scale(1.3333333)" /> </g>
</svg>

