<?xml version="1.0" encoding="UTF-8" standalone="no"?> <svg version="1.1" id="Idce5f8148b9b49c0a47085bd0f8117a020251106164749" width="100" height="100" viewBox="0 0 100 100" xmlns="http://www.w3.org/2000/svg" xmlns:svg="http://www.w3.org/2000/svg"> <defs id="If1afbaa189f64ef4bfd456d70982737a20251106164749" /> <g id="Icb055434fa1d42609e5d3e341ea466b520251106164749"> <path id="Ice15f28f7b6d40eb80a28beaf92888da20251106164749" d="m 37.5,6.25 c 4.121,0 8.266,7.941 10.043,19.324 l 0.145,0.985 H 27.309 C 28.996,14.652 33.258,6.25 37.5,6.25 Z m 9.199,1.797 -0.336,-0.531 c 9.43,2.785 17.008,9.898 20.422,19.043 H 52.438 C 51.453,19.004 49.449,12.52 46.699,8.047 Z M 22.09,31.246 H 6.867 c -0.406,2.02 -0.625,4.109 -0.625,6.25 0,3.266 0.504,6.414 1.434,9.375 h 14.695 l -0.18,-1.812 c -0.211,-2.442 -0.324,-4.973 -0.324,-7.563 0,-2.129 0.078,-4.219 0.223,-6.25 z m 46.57,8.699 c -3.64,-3.453 -8.562,-5.57 -13.972,-5.57 -0.543,0 -1.079,0.02 -1.61,0.063 -0.016,-0.383 -0.031,-0.762 -0.047,-1.141 L 52.91,31.246 h 15.219 c 0.41,2.02 0.625,4.109 0.625,6.25 0,0.824 -0.031,1.641 -0.094,2.449 z m -41.555,6.926 h 8.829 c 2.265,-5.437 6.832,-9.676 12.48,-11.508 -0.039,-1.402 -0.109,-2.777 -0.215,-4.117 H 26.797 l -0.106,1.524 c -0.089,1.542 -0.136,3.117 -0.136,4.726 0,3.27 0.195,6.422 0.55,9.375 z m 0.719,4.688 h 6.789 c -0.156,1.019 -0.238,2.066 -0.238,3.129 0,5.164 1.926,9.874 5.098,13.46 -0.653,0.387 -1.313,0.594 -1.973,0.594 -3.742,0 -7.504,-6.543 -9.492,-16.262 z m -18.246,0 h 13.457 c 1.141,6.507 3.07,12.043 5.602,15.918 C 20.625,65.109 13.957,59.625 10.035,52.43 Z M 28.637,7.516 28.254,7.629 C 19,10.492 11.582,17.539 8.211,26.559 h 14.348 l 0.191,-1.375 c 1.086,-7.266 3.133,-13.45 5.887,-17.668 z M 37.5,54.688 c 0,9.492 7.695,17.187 17.188,17.187 9.492,0 17.187,-7.695 17.187,-17.187 C 71.875,45.195 64.18,37.5 54.688,37.5 45.195,37.5 37.5,45.195 37.5,54.688 Z M 58.27,47.98 c -0.61,-0.609 -0.61,-1.601 0,-2.21 0.609,-0.61 1.597,-0.61 2.207,0 l 4.687,4.687 c 0.613,0.609 0.613,1.602 0,2.211 l -4.687,4.687 c -0.61,0.61 -1.598,0.61 -2.207,0 -0.61,-0.609 -0.61,-1.601 0,-2.21 l 2.019,-2.02 h -6.383 c -3.883,0 -7.031,3.148 -7.031,7.031 v 0.782 c 0,0.863 -0.699,1.562 -1.563,1.562 -0.863,0 -1.562,-0.699 -1.562,-1.562 V 60.156 C 43.75,54.547 48.297,50 53.906,50 h 6.383 z" style="fill:currentColor;fill-opacity:1;fill-rule:nonzero;stroke:none" transform="scale(1.3333333)" /> </g>
</svg>

