<?xml version="1.0" encoding="UTF-8" standalone="no"?> <svg version="1.1" id="I7639307a61f449c595b546787ab301af20251106144521" width="100" height="100" viewBox="0 0 100 100" xmlns="http://www.w3.org/2000/svg" xmlns:svg="http://www.w3.org/2000/svg"> <defs id="I30e6db02d33f403d8d03fe7a64193bb620251106144521" /> <g id="I738b26f305f5433c9bf76604ce989b2820251106144521"> <path id="Ifc8f162e43a1421bb52055b6cf4a51d920251106144521" d="M 39.188,6.969 C 38.746,6.508 38.137,6.25 37.5,6.25 c -0.637,0 -1.246,0.258 -1.688,0.719 L 16.281,27.281 c -0.898,0.934 -0.871,2.418 0.063,3.313 0.933,0.898 2.418,0.871 3.316,-0.063 L 37.5,11.977 55.344,30.531 c 0.894,0.934 2.379,0.961 3.312,0.063 0.934,-0.895 0.961,-2.379 0.063,-3.313 z m 0,61.062 c -0.442,0.461 -1.051,0.719 -1.688,0.719 -0.637,0 -1.246,-0.258 -1.688,-0.719 L 16.281,47.719 c -0.898,-0.934 -0.871,-2.418 0.063,-3.313 0.933,-0.898 2.418,-0.871 3.316,0.063 L 37.5,63.023 55.344,44.469 c 0.894,-0.934 2.379,-0.961 3.312,-0.063 0.934,0.895 0.961,2.379 0.063,3.313 z" style="fill:currentColor;fill-opacity:1;fill-rule:nonzero;stroke:none" transform="scale(1.3333333)" /> </g>
</svg>

