<?xml version="1.0" encoding="UTF-8" standalone="no"?> <svg version="1.1" id="I9f09cba404e046639812bec045831da820251110130507" width="100" height="100" viewBox="0 0 100 100" xmlns="http://www.w3.org/2000/svg" xmlns:svg="http://www.w3.org/2000/svg"> <defs id="Id2e7f576e7ed4bf49ab829e5dd75454020251110130507" /> <g id="I5187365ff3d34a43b4ac5a8e62d06ff620251110130507"> <path id="Ia1b78ec707084376ad2be2f9d25594c020251110130507" d="m 19.531,9.375 c 1.293,0 2.344,1.051 2.344,2.344 0,1.293 -1.051,2.343 -2.344,2.343 -3.019,0 -5.469,2.45 -5.469,5.469 0,1.293 -1.05,2.344 -2.343,2.344 -1.293,0 -2.344,-1.051 -2.344,-2.344 0,-5.609 4.547,-10.156 10.156,-10.156 z m 10.938,0 c -1.293,0 -2.344,1.051 -2.344,2.344 0,1.293 1.051,2.343 2.344,2.343 h 14.062 c 1.293,0 2.344,-1.05 2.344,-2.343 0,-1.293 -1.051,-2.344 -2.344,-2.344 z m 22.656,2.344 c 0,1.293 1.051,2.343 2.344,2.343 3.019,0 5.469,2.45 5.469,5.469 v 3.125 c 0,1.293 1.05,2.344 2.343,2.344 1.293,0 2.344,-1.051 2.344,-2.344 v -3.125 c 0,-5.609 -4.547,-10.156 -10.156,-10.156 -1.293,0 -2.344,1.051 -2.344,2.344 z m -43.75,43.75 c 0,-1.293 1.051,-2.344 2.344,-2.344 1.293,0 2.343,1.051 2.343,2.344 0,3.019 2.45,5.469 5.469,5.469 h 3.125 c 1.293,0 2.344,1.05 2.344,2.343 0,1.293 -1.051,2.344 -2.344,2.344 h -3.125 c -5.609,0 -10.156,-4.547 -10.156,-10.156 z m 0,-10.938 c 0,1.293 1.051,2.344 2.344,2.344 1.293,0 2.343,-1.051 2.343,-2.344 V 30.469 c 0,-1.293 -1.05,-2.344 -2.343,-2.344 -1.293,0 -2.344,1.051 -2.344,2.344 z m 12.5,-27.343 c -2.59,0 -4.687,2.097 -4.687,4.687 v 31.25 c 0,2.59 2.097,4.687 4.687,4.687 h 6.25 v -2.343 c 0,-5.61 4.547,-10.157 10.156,-10.157 h 7.031 v -7.031 c 0,-5.609 4.547,-10.156 10.157,-10.156 h 2.343 v -6.25 c 0,-2.59 -2.097,-4.687 -4.687,-4.687 z m 16.406,31.25 H 48.438 V 38.281 c 0,-3.883 3.148,-7.031 7.031,-7.031 h 9.375 c 3.883,0 7.031,3.148 7.031,7.031 v 23.438 c 0,5.609 -4.547,10.156 -10.156,10.156 H 38.281 c -3.883,0 -7.031,-3.148 -7.031,-7.031 v -9.375 c 0,-3.883 3.148,-7.031 7.031,-7.031 z M 53.125,38.281 V 48.438 H 67.188 V 38.281 c 0,-1.293 -1.051,-2.343 -2.344,-2.343 h -9.375 c -1.293,0 -2.344,1.05 -2.344,2.343 z M 48.438,67.188 V 53.125 H 38.281 c -1.293,0 -2.343,1.051 -2.343,2.344 v 9.375 c 0,1.293 1.05,2.344 2.343,2.344 z m 4.687,-14.063 v 14.063 h 8.594 c 3.019,0 5.469,-2.45 5.469,-5.469 v -8.594 z" style="fill:currentColor;fill-opacity:1;fill-rule:nonzero;stroke:none" transform="scale(1.3333333)" /> </g>
</svg>

