<?xml version="1.0" encoding="UTF-8" standalone="no"?> <svg version="1.1" id="Id7cc5f603420427e8c06c625c75d1c8e20251106105458" width="100" height="100" viewBox="0 0 100 100" xmlns="http://www.w3.org/2000/svg" xmlns:svg="http://www.w3.org/2000/svg"> <defs id="I2e6900f39a4b494aaf756584ad6694df20251106105458" /> <g id="If3fa57ce0bf846a0b24af6d8bb6f544b20251106105458"> <path id="I0d927d50283e43589fa94833816b9f2d20251106105458" d="m 26.449,53.57 h 22.102 c 0.367,0 0.668,-0.3 0.668,-0.668 v -7.031 c 0,-0.367 -0.301,-0.672 -0.668,-0.672 h -3.352 c -0.367,0 -0.668,0.305 -0.668,0.672 v 3.012 H 30.469 v -3.012 c 0,-0.367 -0.301,-0.672 -0.668,-0.672 h -3.352 c -0.367,0 -0.668,0.305 -0.668,0.672 v 7.031 c 0,0.368 0.301,0.668 0.668,0.668 z M 54.91,43.277 c 0,4.461 6.695,4.461 6.695,0 0,-4.465 -6.695,-4.465 -6.695,0 z M 74.918,29.246 72.934,25.781 C 72.746,25.465 72.34,25.355 72.02,25.539 L 67.777,28.016 61.223,9.918 C 60.512,7.703 58.449,6.199 56.125,6.203 h -36.27 c -2.906,0 -5.484,1.875 -6.378,4.645 L 7.23,28.023 2.98,25.547 C 2.66,25.363 2.254,25.473 2.066,25.789 l -1.984,3.457 c -0.184,0.32 -0.074,0.719 0.246,0.906 l 5.055,2.946 -1.215,3.347 C 4.066,36.715 4.02,36.996 4.02,37.281 V 66.43 c 0,1.312 0.984,2.375 2.199,2.375 h 5.66 c 1.027,0 1.926,-0.778 2.141,-1.867 l 0.644,-3.153 h 45.672 l 0.644,3.153 c 0.227,1.089 1.114,1.867 2.141,1.867 h 5.66 c 1.215,0 2.199,-1.063 2.199,-2.375 V 37.281 c 0,-0.285 -0.046,-0.566 -0.148,-0.836 l -1.215,-3.347 5.047,-2.946 c 0.316,-0.183 0.43,-0.586 0.254,-0.906 z m -9.961,8.672 v 19.84 H 10.043 v -19.84 l 1.309,-3.598 h 52.296 z m -45.812,-25.02 0.039,-0.109 0.035,-0.109 c 0.093,-0.274 0.343,-0.457 0.636,-0.457 h 35.793 l 6.309,17.41 H 13.059 Z m -5.75,30.379 c 0,4.461 6.695,4.461 6.695,0 0,-4.465 -6.695,-4.465 -6.695,0 z" style="fill:currentColor;fill-opacity:1;fill-rule:nonzero;stroke:none" transform="scale(1.3333333)" /> </g>
</svg>

