<?xml version="1.0" encoding="UTF-8" standalone="no"?> <svg version="1.1" id="Ieedc41664f0f42b4bfe56746dabc274f20251106103256" width="100" height="100" viewBox="0 0 100 100" xmlns="http://www.w3.org/2000/svg" xmlns:svg="http://www.w3.org/2000/svg"> <defs id="I669b2eb5a44543fba3278fec3f5024c420251106103256" /> <g id="Ib3f68aac888a4e439a5c9afed03bb95020251106103256"> <path id="I21445e6f37c74fe0952309710750e30320251106103256" d="M 68.16,27.465 47.535,6.84 C 46.992,6.293 46.281,6.027 45.57,6.027 c -0.711,0 -1.425,0.266 -1.968,0.813 L 30.117,20.332 c -1.019,-0.117 -2.051,-0.168 -3.082,-0.168 -6.125,0 -12.254,2.02 -17.285,6.051 -1.289,1.039 -1.395,2.965 -0.223,4.137 L 24.734,45.562 6.703,63.574 C 6.484,63.793 6.348,64.086 6.32,64.395 l -0.285,3.113 c -0.074,0.789 0.551,1.457 1.332,1.457 0.039,0 0.082,0 0.125,-0.008 l 3.113,-0.285 c 0.309,-0.024 0.602,-0.168 0.821,-0.387 L 29.457,50.258 44.664,65.465 c 0.547,0.547 1.258,0.812 1.969,0.812 0.812,0 1.613,-0.351 2.168,-1.039 4.711,-5.883 6.672,-13.25 5.875,-20.371 L 68.16,31.383 c 1.082,-1.074 1.082,-2.832 0,-3.918 z m -17.754,13.156 -2.051,2.051 0.321,2.879 c 0.496,4.457 -0.391,8.953 -2.547,12.883 L 16.574,28.863 c 1.078,-0.597 2.199,-1.097 3.371,-1.5 2.278,-0.785 4.664,-1.179 7.09,-1.179 0.805,0 1.617,0.043 2.422,0.132 l 2.879,0.321 13.242,-13.242 16.027,16.027 z" style="fill:currentColor;fill-opacity:1;fill-rule:nonzero;stroke:none" transform="scale(1.3333333)" /> </g>
</svg>

