<?xml version="1.0" encoding="UTF-8" standalone="no"?> <svg version="1.1" id="Ib6ff78702e7a46fa9c69830972c20eb020251106152729" width="100" height="100" viewBox="0 0 100 100" xmlns="http://www.w3.org/2000/svg" xmlns:svg="http://www.w3.org/2000/svg"> <defs id="I69d31edb12fc487a88a9a80cb3d3530b20251106152729" /> <g id="I4b749741c896432dbd3ff65aef45bee620251106152729"> <path id="I029313bdbbb043ff9053c9b629ad911b20251106152729" d="m 66.965,56.918 c 0,5.551 -4.496,10.047 -10.047,10.047 H 18.082 C 12.531,66.965 8.035,62.469 8.035,56.918 V 18.082 c 0,-5.551 4.496,-10.047 10.047,-10.047 h 12.051 c 1.109,0 2.012,0.899 2.012,2.008 0,1.109 -0.903,2.012 -2.012,2.012 H 18.082 c -3.332,0 -6.027,2.695 -6.027,6.027 V 37.5 h 18.078 c 4.07,0 7.367,3.297 7.367,7.367 v 18.078 h 19.418 c 3.328,0 6.027,-2.699 6.027,-6.027 V 44.867 c 0,-1.109 0.903,-2.012 2.012,-2.012 1.109,0 2.008,0.903 2.008,2.012 z M 64.957,30.805 c 1.109,0 2.008,0.898 2.008,2.007 0,1.11 -0.899,2.008 -2.008,2.008 H 42.188 c -1.11,0 -2.008,-0.898 -2.008,-2.008 V 10.043 c 0,-1.109 0.898,-2.008 2.008,-2.008 1.109,0 2.007,0.899 2.007,2.008 V 27.961 L 63.535,8.625 c 0.785,-0.785 2.055,-0.785 2.84,0 0.785,0.785 0.785,2.055 0,2.84 l -19.336,19.34 z" style="fill:currentColor;fill-opacity:1;fill-rule:nonzero;stroke:none" transform="scale(1.3333333)" /> </g>
</svg>

