<?xml version="1.0" encoding="UTF-8" standalone="no"?> <svg version="1.1" id="I8f5070cd66ce4d3fa3451550c98d108b20251106164749" width="100" height="100" viewBox="0 0 100 100" xmlns="http://www.w3.org/2000/svg" xmlns:svg="http://www.w3.org/2000/svg"> <defs id="I730fbb4e7577411ab12fa89647cefad420251106164749"> <linearGradient x1="14.6923" y1="3.5" x2="35.325199" y2="10.4498" gradientUnits="userSpaceOnUse" gradientTransform="scale(2.678571)" spreadMethod="pad" id="I2ef52d8c841845548ba899a3640b7e5820251106164749"> <stop style="stop-opacity:1;stop-color:#6ce0ff" offset="0" id="Ib1786804d8fb44e0b3b06685ed9ccdee20251106164749" /> <stop style="stop-opacity:1;stop-color:#0067bf" offset="1" id="Ie9e4775883354d3cb343ec74b6b7385220251106164749" /> </linearGradient> <linearGradient x1="3.61538" y1="3.5" x2="25.1957" y2="11.1965" gradientUnits="userSpaceOnUse" gradientTransform="scale(2.678571)" spreadMethod="pad" id="I0d37aaf6873f483da86e19912a2476f420251106164749"> <stop style="stop-opacity:1;stop-color:#6ce0ff" offset="0" id="Ibae326da087646469e25093636f430da20251106164749" /> <stop style="stop-opacity:1;stop-color:#0067bf" offset="1" id="I39e2ea59014e45b8b12d6f72314aa77020251106164749" /> </linearGradient> </defs> <g id="Ia71347dacb634c928dc9a240b9c5b7f720251106164749"> <path id="I7ff6c23040ef4783aef8642b8dc432ff20251106164749" d="M 50.688,38.988 50.773,37.5 h -3.23 c -2.586,0 -4.688,-2.098 -4.688,-4.688 v -9.374 c 0,-9.985 8.098,-18.083 18.083,-18.083 h 1.339 c 1.11,0 2.008,0.903 2.008,2.012 v 28.125 c 0,0.801 0.25,5.168 0.543,10.254 l 0.008,0.18 c 0.367,6.375 0.789,13.75 0.789,15.679 0,4.442 -3.598,8.04 -8.035,8.04 -4.438,0 -8.035,-3.598 -8.035,-8.04 0,-1.734 0.34,-8.343 0.672,-14.414 0.168,-3.058 0.335,-6.011 0.461,-8.203 z" transform="scale(1.3333333)" style="fill:url(#I2ef52d8c841845548ba899a3640b7e5820251106164749);stroke:none" /> <path id="Iafd950d57d964889aa6141f7c8a11c1c20251106164749" d="m 14.711,7.473 c 0.125,-1.207 1.141,-2.118 2.348,-2.118 1.304,0 2.359,1.059 2.359,2.364 v 15.715 c 0,1.109 0.902,2.011 2.012,2.011 1.109,0 2.008,-0.902 2.008,-2.011 V 7.367 c 0,-1.109 0.898,-2.012 2.007,-2.012 1.11,0 2.012,0.903 2.012,2.012 v 16.067 c 0,1.109 0.898,2.011 2.008,2.011 1.109,0 2.008,-0.902 2.008,-2.011 V 7.719 c 0,-1.305 1.058,-2.364 2.363,-2.364 1.203,0 2.223,0.911 2.348,2.118 0.203,1.933 1.316,12.816 1.316,17.972 0,3.586 -1.566,6.805 -4.047,9.012 -0.894,0.793 -1.308,1.609 -1.308,2.297 v 1.945 c 0,0.055 0,0.086 0.003,0.129 0.11,1.602 1.332,19.516 1.332,22.777 0,4.442 -3.597,8.04 -8.035,8.04 -4.437,0 -8.035,-3.598 -8.035,-8.04 0,-3.261 1.227,-21.175 1.336,-22.777 0.004,-0.043 0.004,-0.074 0.004,-0.129 v -1.945 c 0,-0.688 -0.418,-1.504 -1.309,-2.297 -2.48,-2.207 -4.046,-5.426 -4.046,-9.012 0,-5.156 1.113,-16.039 1.316,-17.972 z" transform="scale(1.3333333)" style="fill:url(#I0d37aaf6873f483da86e19912a2476f420251106164749);stroke:none" /> </g>
</svg>

