<?xml version="1.0" encoding="UTF-8" standalone="no"?> <svg version="1.1" id="I0ea55ab516144b21b86f6d806ca74fa220251106164749" width="100" height="100" viewBox="0 0 100 100" xmlns="http://www.w3.org/2000/svg" xmlns:svg="http://www.w3.org/2000/svg"> <defs id="I4f58336a75c14825a728fc45befb357720251106164749" /> <g id="I0d0e02d47c7f4f4e80dffbff708e278920251106164749"> <path id="I3e3ac94481ca41eca74a70ab57848ea920251106164749" d="m 58.594,10.938 c 5.609,0 10.156,4.546 10.156,10.156 v 32.82 c 0,5.609 -4.547,10.156 -10.156,10.156 H 16.406 C 10.797,64.07 6.25,59.523 6.25,53.914 v -32.82 c 0,-5.61 4.547,-10.156 10.156,-10.156 z m 0,4.687 H 16.406 c -3.019,0 -5.468,2.449 -5.468,5.469 v 32.82 c 0,3.02 2.449,5.469 5.468,5.469 h 42.188 c 3.019,0 5.468,-2.449 5.468,-5.469 v -32.82 c 0,-3.02 -2.449,-5.469 -5.468,-5.469 z M 25.047,27.723 c 1.863,0 3.183,0.254 4.691,0.98 0.973,0.465 1.383,1.633 0.918,2.606 -0.468,0.972 -1.636,1.382 -2.605,0.914 -0.938,-0.45 -1.688,-0.594 -3.004,-0.594 -2.711,0 -4.699,2.488 -4.699,5.851 0,3.368 1.992,5.864 4.699,5.864 1.34,0 2.473,-0.563 3.062,-1.567 l 0.02,-0.047 v -2.292 l -1.176,0.003 c -0.98,0 -1.793,-0.722 -1.93,-1.668 L 25,37.488 c 0,-0.98 0.723,-1.793 1.664,-1.933 l 0.289,-0.02 h 3.129 c 0.98,0 1.793,0.723 1.934,1.664 l 0.019,0.289 -0.004,4.836 -0.019,0.172 -0.067,0.281 -0.062,0.172 c -1.176,2.781 -3.879,4.301 -6.836,4.301 -5.082,0 -8.606,-4.414 -8.606,-9.77 0,-5.351 3.524,-9.757 8.606,-9.757 z m 14.418,0.382 c 0.98,0 1.793,0.723 1.933,1.665 l 0.02,0.289 v 14.879 c 0,1.082 -0.875,1.953 -1.953,1.953 -0.981,0 -1.793,-0.723 -1.93,-1.664 L 37.512,44.938 V 30.059 c 0,-1.079 0.875,-1.954 1.953,-1.954 z m 9.363,0 6.242,0.02 c 1.078,0.004 1.95,0.883 1.946,1.961 -0.004,0.98 -0.731,1.789 -1.672,1.926 l -0.289,0.019 -4.282,-0.015 v 5.48 l 3.508,0.004 c 0.981,0 1.793,0.723 1.934,1.664 l 0.019,0.289 c 0,0.981 -0.722,1.793 -1.664,1.93 l -0.289,0.023 -3.508,-0.004 v 3.489 c 0,0.98 -0.722,1.789 -1.664,1.929 l -0.289,0.024 c -0.98,0 -1.793,-0.723 -1.929,-1.668 l -0.024,-0.285 v -14.84 c 0.004,-0.981 0.731,-1.789 1.672,-1.926 z" style="fill:currentColor;fill-opacity:1;fill-rule:nonzero;stroke:none" transform="scale(1.3333333)" /> </g>
</svg>

