<?xml version="1.0" encoding="UTF-8" standalone="no"?> <svg version="1.1" id="I14fe237976b74cebaa219cfce28351e920251106143238" width="100" height="100" viewBox="0 0 100 100" xmlns="http://www.w3.org/2000/svg" xmlns:svg="http://www.w3.org/2000/svg"> <defs id="If282dac070a046aebbe78032368b7b5f20251106143238" /> <g id="I22b8fbaf7c794f2ab53d63924839905a20251106143238"> <path id="Ia0553e0451f549abaf699afbd3404e3e20251106143238" d="m 53.16,34.98 c 0.813,-0.808 2.242,-0.808 3.055,0 2.043,2.036 5.965,5.27 10.785,5.934 0.957,0.133 1.75,0.891 1.75,1.84 v 8.871 c 0,11.926 -11.188,16.254 -13.605,17.047 -0.301,0.101 -0.614,0.101 -0.915,0 C 51.809,67.875 40.625,63.547 40.625,51.625 v -8.871 c 0,-0.949 0.793,-1.707 1.75,-1.84 4.82,-0.664 8.742,-3.898 10.785,-5.934 z M 62.5,9.375 c 3.453,0 6.25,2.797 6.25,6.25 0,2.313 -1.258,4.332 -3.125,5.414 V 37.418 C 63.852,36.859 62.25,35.922 60.938,34.953 V 21.875 H 14.062 V 60.938 H 18.75 V 46.094 c 0,-1.293 1.051,-2.344 2.344,-2.344 h 12.5 c 1.293,0 2.344,1.051 2.344,2.344 v 14.844 h 3.855 c 0.906,1.687 2.082,3.257 3.512,4.687 H 11.719 c -1.293,0 -2.344,-1.051 -2.344,-2.344 V 21.039 C 7.508,19.957 6.25,17.938 6.25,15.625 c 0,-3.453 2.797,-6.25 6.25,-6.25 z M 23.438,60.938 h 7.812 v -12.5 H 23.438 Z M 53.906,25 c 1.293,0 2.344,1.051 2.344,2.344 v 4.14 c -1.566,-0.476 -3.324,-0.218 -4.688,0.762 V 29.688 H 23.438 v 6.25 h 23.5 c -1.469,0.89 -3.172,1.636 -5,1.894 -1.543,0.223 -3.145,1.219 -3.934,2.793 h -16.91 c -1.293,0 -2.344,-1.051 -2.344,-2.344 V 27.344 C 18.75,26.051 19.801,25 21.094,25 Z M 12.5,14.062 c -0.863,0 -1.562,0.7 -1.562,1.563 0,0.863 0.699,1.563 1.562,1.563 h 50 c 0.863,0 1.562,-0.7 1.562,-1.563 0,-0.863 -0.699,-1.563 -1.562,-1.563 z" style="fill:currentColor;fill-opacity:1;fill-rule:nonzero;stroke:none" transform="scale(1.3333333)" /> </g>
</svg>

