<?xml version="1.0" encoding="UTF-8" standalone="no"?> <svg version="1.1" id="Ibb16f82ddd074efd859a717c7cbf7f4b20251106164750" width="100" height="100" viewBox="0 0 100 100" xmlns="http://www.w3.org/2000/svg" xmlns:svg="http://www.w3.org/2000/svg"> <defs id="If999bd687d1340f89f6ba199b0c24b2a20251106164750" /> <g id="Iacae265ae8ac4699a1fc9191cd34332520251106164750"> <path id="I3bd55b571fde4dd9b7d906757c06e7a020251106164750" d="M 57.785,10.723 61.488,7.02 c 1.223,-1.223 3.2,-1.223 4.422,0 l 2.207,2.21 c 1.223,1.219 1.223,3.196 0,4.418 l -3.703,3.704 z m -3.312,3.312 -11.942,11.942 -0.496,-0.5 c -4.148,-4.149 -11.14,-3.012 -13.762,2.234 l -1.3,2.601 c -0.387,0.766 -1.235,1.184 -2.075,1.016 L 24.672,31.281 C 19.117,30.172 13.418,32.348 10.016,36.883 4.395,44.379 5.141,54.871 11.766,61.5 l 1.871,1.871 c 6.629,6.625 17.121,7.371 24.621,1.75 4.531,-3.402 6.707,-9.101 5.597,-14.656 l -0.046,-0.227 c -0.168,-0.84 0.25,-1.687 1.015,-2.074 l 2.602,-1.301 C 52.672,44.242 53.809,37.25 49.66,33.102 L 49.164,32.605 61.102,20.664 Z M 29.496,45.5 c -1.828,-1.828 -1.828,-4.797 0,-6.629 1.832,-1.832 4.801,-1.832 6.633,0 1.828,1.832 1.828,4.801 0,6.629 -1.832,1.832 -4.801,1.832 -6.633,0 z" style="fill:currentColor;fill-opacity:1;fill-rule:nonzero;stroke:none" transform="scale(1.3333333)" /> </g>
</svg>

