<?xml version="1.0" encoding="UTF-8" standalone="no"?> <svg version="1.1" id="I46bc3a8a1ef74d918507ff91e9a4816720251106142135" width="100" height="100" viewBox="0 0 100 100" xmlns="http://www.w3.org/2000/svg" xmlns:svg="http://www.w3.org/2000/svg"> <defs id="I2815fe8781db412982aa3e45128b72cd20251106142135" /> <g id="Ic54d475c14724f5490ad2b1583e9f87120251106142135"> <path id="I89ccda2c6d814f45b54f20060057fe4e20251106142135" d="m 9.375,19.531 c 0,1.293 1.051,2.344 2.344,2.344 1.293,0 2.343,-1.051 2.343,-2.344 v -1.562 c 0,-2.157 1.75,-3.907 3.907,-3.907 h 39.062 c 2.157,0 3.907,1.75 3.907,3.907 v 1.562 c 0,1.293 1.05,2.344 2.343,2.344 1.293,0 2.344,-1.051 2.344,-2.344 v -1.562 c 0,-4.746 -3.848,-8.594 -8.594,-8.594 H 17.969 c -4.746,0 -8.594,3.848 -8.594,8.594 z m 4.687,14.063 c 0,-1.293 -1.05,-2.344 -2.343,-2.344 -1.293,0 -2.344,1.051 -2.344,2.344 v 7.812 c 0,1.293 1.051,2.344 2.344,2.344 1.293,0 2.343,-1.051 2.343,-2.344 z m 46.876,0 c 0,-1.293 1.05,-2.344 2.343,-2.344 1.293,0 2.344,1.051 2.344,2.344 v 7.812 c 0,1.293 -1.051,2.344 -2.344,2.344 -1.293,0 -2.343,-1.051 -2.343,-2.344 z M 12.5,53.125 c -1.727,0 -3.125,1.398 -3.125,3.125 0,5.18 4.199,9.375 9.375,9.375 h 37.5 c 5.18,0 9.375,-4.195 9.375,-9.375 0,-1.727 -1.398,-3.125 -3.125,-3.125 -1.727,0 -3.125,1.398 -3.125,3.125 0,1.727 -1.398,3.125 -3.125,3.125 h -37.5 c -1.727,0 -3.125,-1.398 -3.125,-3.125 0,-1.727 -1.398,-3.125 -3.125,-3.125 z" style="fill:currentColor;fill-opacity:1;fill-rule:nonzero;stroke:none" transform="scale(1.3333333)" /> </g>
</svg>

