<?xml version="1.0" encoding="UTF-8" standalone="no"?> <svg version="1.1" id="I338ed9d26c7146b89007356d4bbd099420251106125937" width="100" height="100" viewBox="0 0 100 100" xmlns="http://www.w3.org/2000/svg" xmlns:svg="http://www.w3.org/2000/svg"> <defs id="I6ea455a5b864450983d4397ae341b79520251106125937" /> <g id="I83867f5a53144b10958fc5dd7fddb0e320251106125937"> <path id="Ic189ac1c34d04690bcdc01dd41963f7820251106125937" d="M 51.254,10.555 C 50.613,9.434 49.18,9.043 48.055,9.684 c -7.09,4.05 -10.598,9.23 -12.25,14.718 -1.465,4.852 -1.45,9.891 -1.434,14.196 0.004,0.422 0.004,0.84 0.004,1.246 V 57.625 L 22.75,46 c -0.914,-0.918 -2.398,-0.918 -3.312,0 -0.918,0.914 -0.918,2.398 0,3.312 l 15.624,15.626 c 0.915,0.917 2.399,0.917 3.313,0 L 54,49.312 C 54.918,48.398 54.918,46.914 54,46 53.086,45.082 51.602,45.082 50.688,46 L 39.062,57.625 V 39.844 c 0,-0.395 0,-0.793 0,-1.188 -0.011,-4.41 -0.023,-8.758 1.227,-12.902 1.316,-4.356 4.059,-8.551 10.094,-12 1.121,-0.641 1.512,-2.074 0.871,-3.199 z" style="fill:currentColor;fill-opacity:1;fill-rule:nonzero;stroke:none" transform="scale(1.3333333)" /> </g>
</svg>

