<?xml version="1.0" encoding="UTF-8" standalone="no"?> <svg version="1.1" id="Id92ef90df91440f7985a63de1967900820251106171633" width="100" height="100" viewBox="0 0 100 100" xmlns="http://www.w3.org/2000/svg" xmlns:svg="http://www.w3.org/2000/svg"> <defs id="I22ea029dd9804944b84f6d0f251fdc9320251106171633" /> <g id="Ie808613378064c86b279651adcb41c4e20251106171633"> <path id="I7b4a404e4a49492b861216320d69574e20251106171633" d="M 51.723,48.883 8.785,5.945 C 8.004,5.16 6.73,5.16 5.945,5.945 5.16,6.73 5.16,8.004 5.945,8.785 l 19.5,19.504 V 38.84 c 0,6.656 5.399,12.055 12.055,12.055 2.945,0 5.645,-1.059 7.738,-2.813 l 3.797,3.797 c -3.07,2.719 -7.109,4.371 -11.535,4.371 -9.617,0 -17.41,-7.797 -17.41,-17.41 v -2.008 c 0,-1.109 -0.899,-2.008 -2.008,-2.008 -1.109,0 -2.012,0.899 -2.012,2.008 v 2.008 c 0,11.156 8.528,20.32 19.422,21.336 v 7.457 c 0,1.109 0.899,2.012 2.008,2.012 1.109,0 2.008,-0.903 2.008,-2.012 v -7.457 c 4.742,-0.442 9.039,-2.43 12.375,-5.453 l 14.328,14.332 c 0.785,0.785 2.059,0.785 2.844,0 0.328,-0.328 0.519,-0.743 0.574,-1.172 0.008,-0.082 0.012,-0.164 0.012,-0.25 0,-0.512 -0.196,-1.028 -0.586,-1.418 z" style="fill:currentColor;fill-opacity:1;fill-rule:nonzero;stroke:none" transform="scale(1.3333333)" /> <path id="I57ce677b5e0e4c12b4035447c25508e220251106171633" d="m 56.762,48.238 c 1.386,-2.836 2.168,-6.027 2.168,-9.398 v -2.008 c 0,-1.109 -0.903,-2.008 -2.012,-2.008 -1.109,0 -2.008,0.899 -2.008,2.008 v 2.008 c 0,2.242 -0.422,4.383 -1.195,6.351 z" style="fill:currentColor;fill-opacity:1;fill-rule:nonzero;stroke:none" transform="scale(1.3333333)" /> <path id="Ie60d199a56a04eeca72a33b2b99a1ce920251106171633" d="m 49.383,40.863 c 0.113,-0.66 0.172,-1.336 0.172,-2.023 V 17.41 c 0,-6.656 -5.399,-12.055 -12.055,-12.055 -6.496,0 -11.793,5.141 -12.043,11.579 z" style="fill:currentColor;fill-opacity:1;fill-rule:nonzero;stroke:none" transform="scale(1.3333333)" /> </g>
</svg>

