<?xml version="1.0" encoding="UTF-8" standalone="no"?> <svg version="1.1" id="I1a39434ca49d4e9ba1824da63827c45920251106102216" width="100" height="100" viewBox="0 0 100 100" xmlns="http://www.w3.org/2000/svg" xmlns:svg="http://www.w3.org/2000/svg"> <defs id="Ic15e546685c8496f9a3d852418f0c88c20251106102216" /> <g id="Icb458f86d21c4db6a0c31479e3ca927020251106102216"> <path id="I06936990afb5482e8e34d16fd54ca63920251106102216" d="M 73.66,19.672 H 52.566 c -0.367,0 -0.668,0.301 -0.668,0.668 v 33.984 c 0,0.367 0.301,0.672 0.668,0.672 h 4.957 c 0.368,0 0.668,-0.305 0.668,-0.672 V 40.672 H 72.27 c 0.371,0 0.671,-0.301 0.671,-0.668 v -3.926 c 0,-0.371 -0.3,-0.672 -0.671,-0.672 H 58.191 V 25.129 H 73.66 c 0.367,0 0.672,-0.301 0.672,-0.672 V 20.34 c 0,-0.367 -0.305,-0.668 -0.672,-0.668 z m -29.797,0.082 h -4.687 c -0.371,0 -0.672,0.301 -0.672,0.672 V 54.41 c 0,0.367 0.301,0.668 0.672,0.668 h 4.687 c 0.367,0 0.668,-0.301 0.668,-0.668 V 20.426 c 0,-0.371 -0.301,-0.672 -0.668,-0.672 z M 32.477,36.57 H 18.961 c -0.371,0 -0.672,0.301 -0.672,0.672 v 3.656 c 0,0.368 0.301,0.668 0.672,0.668 h 7.941 l -0.023,0.746 c -0.102,4.922 -3.817,8.247 -9.285,8.247 -6.379,0 -10.371,-4.997 -10.371,-13.118 0,-8.019 3.918,-12.992 10.172,-12.992 4.585,0 7.793,2.254 9.082,6.313 h 6.378 C 31.715,23.461 25.656,18.758 17.395,18.758 7.199,18.75 0.668,26.051 0.668,37.492 c 0,11.574 6.457,18.758 16.828,18.758 9.551,0 15.652,-5.918 15.652,-15.199 v -3.809 c 0,-0.371 -0.3,-0.672 -0.671,-0.672 z" style="fill:currentColor;fill-opacity:1;fill-rule:nonzero;stroke:none" transform="scale(1.3333333)" /> </g>
</svg>

