<?xml version="1.0" encoding="utf-8"?>
<!-- Generator: Adobe Illustrator 29.7.1, SVG Export Plug-In . SVG Version: 9.03 Build 0)  -->
<svg version="1.1" id="4c7a69ddf81d4127bd6a1596cf03deef20250812104317" xmlns="http://www.w3.org/2000/svg" xmlns:xlink="http://www.w3.org/1999/xlink" x="0px" y="0px"
	 width="100px" height="100px" viewBox="0 0 100 100" enable-background="new 0 0 100 100" xml:space="preserve">
<linearGradient id="f4b4e6a4c1c944b6bc9e70c6a6ef884820250812104317" gradientUnits="userSpaceOnUse" x1="52.2222" y1="-10.2921" x2="52.1779" y2="88.2745" gradientTransform="matrix(0.7071 0.7071 -0.7071 0.7071 47.0373 -20.8534)">
	<stop  offset="0" style="stop-color:#34B4E8"/>
	<stop  offset="1" style="stop-color:#32AAE1"/>
</linearGradient>
<path fill="url(#f4b4e6a4c1c944b6bc9e70c6a6ef884820250812104317)" d="M35.9,94.8L5.2,64.1c-3.5-3.5-3.5-9.2,0-12.7L51,5.5L94.5,49L48.6,94.8
	C45.1,98.3,39.4,98.3,35.9,94.8z"/>
<linearGradient id="c82f809b87124e929dd5bcc17b68f16720250812104317" gradientUnits="userSpaceOnUse" x1="52.2602" y1="4.6711" x2="51.9066" y2="66.1228" gradientTransform="matrix(0.7071 0.7071 -0.7071 0.7071 47.0373 -20.8534)">
	<stop  offset="0" style="stop-color:#34B4E8"/>
	<stop  offset="1" style="stop-color:#32AAE1"/>
</linearGradient>
<path fill="url(#c82f809b87124e929dd5bcc17b68f16720250812104317)" d="M94.5,16.9L83,5.5H51L94.5,49L94.5,16.9z
	 M75.6,24.3c-5.5-5.5,3-14,8.5-8.5C89.6,21.3,81.1,29.8,75.6,24.3z"/>
<linearGradient id="fe6c5076ded7476fb7575169da26d30320250812104317" gradientUnits="userSpaceOnUse" x1="52.1587" y1="1.6728" x2="52.3655" y2="45.4777" gradientTransform="matrix(0.7071 0.7071 -0.7071 0.7071 47.0373 -20.8534)">
	<stop  offset="0" style="stop-color:#34B4E8"/>
	<stop  offset="1" style="stop-color:#32AAE1"/>
</linearGradient>
<path fill="url(#fe6c5076ded7476fb7575169da26d30320250812104317)" d="M94.5,33.9l0-22.1c0-3.5-2.8-6.2-6.2-6.2l-22.1,0
	c-5.6,0-8.4,6.7-4.4,10.7l22.1,22.1C87.7,42.3,94.5,39.5,94.5,33.9z M75.6,24.3c-5.5-5.5,3-14,8.5-8.5
	C89.6,21.3,81.1,29.8,75.6,24.3z"/>
</svg>




