<?xml version="1.0" encoding="UTF-8" standalone="no"?> <svg version="1.1" id="I0a721061710843838622703a4f56befe20251110130509" width="100" height="100" viewBox="0 0 100 100" xmlns="http://www.w3.org/2000/svg" xmlns:svg="http://www.w3.org/2000/svg"> <defs id="I48bb6cd566124972aac1ec89ce99604920251110130509" /> <g id="I26171e8253994d27b321ae0a67132fc420251110130509"> <path id="Ic65e60c8d5d044009a0aa1c0178ffaf420251110130509" d="m 14.062,11.719 v 51.562 c 0,1.293 -1.05,2.344 -2.343,2.344 -1.293,0 -2.344,-1.051 -2.344,-2.344 V 11.719 c 0,-1.293 1.051,-2.344 2.344,-2.344 1.293,0 2.343,1.051 2.343,2.344 z M 50,16.406 C 50,12.523 47.203,9.375 43.75,9.375 H 31.25 C 27.797,9.375 25,12.523 25,16.406 V 25 H 50 Z M 25,45.312 V 29.688 H 50 V 45.312 Z M 25,50 v 8.594 c 0,3.883 2.797,7.031 6.25,7.031 h 12.5 c 3.453,0 6.25,-3.148 6.25,-7.031 V 50 Z M 65.625,63.281 V 11.719 c 0,-1.293 -1.051,-2.344 -2.344,-2.344 -1.293,0 -2.343,1.051 -2.343,2.344 v 51.562 c 0,1.293 1.05,2.344 2.343,2.344 1.293,0 2.344,-1.051 2.344,-2.344 z" style="fill:currentColor;fill-opacity:1;fill-rule:nonzero;stroke:none" transform="scale(1.3333333)" /> </g>
</svg>

