<?xml version="1.0" encoding="UTF-8" standalone="no"?> <svg version="1.1" id="I616f0d76214d42adb2bfae17eadd4cf320251110130509" width="100" height="100" viewBox="0 0 100 100" xmlns="http://www.w3.org/2000/svg" xmlns:svg="http://www.w3.org/2000/svg"> <defs id="I7edd9b26e62149afb0a8c01920cbda0b20251110130509" /> <g id="I4702570ff8c8415c826909db3e737f6e20251110130509"> <path id="I842e1b00cca3440f9b5a8b5c6d2c098d20251110130509" d="m 9.375,19.531 c 0,-5.609 4.547,-10.156 10.156,-10.156 h 35.938 c 5.609,0 10.156,4.547 10.156,10.156 v 35.938 c 0,5.609 -4.547,10.156 -10.156,10.156 H 19.531 c -5.609,0 -10.156,-4.547 -10.156,-10.156 z m 10.156,-5.469 c -3.019,0 -5.469,2.45 -5.469,5.469 v 35.938 c 0,3.019 2.45,5.469 5.469,5.469 h 7.031 V 14.062 Z M 43.75,60.938 v -12.5 h -12.5 v 12.5 z m 4.688,0 h 7.031 c 3.019,0 5.469,-2.45 5.469,-5.469 v -7.031 h -12.5 z m 0,-17.188 h 12.5 v -12.5 h -12.5 z M 43.75,31.25 h -12.5 v 12.5 h 12.5 z m 0,-4.688 v -12.5 h -12.5 v 12.5 z m 4.688,0 h 12.5 v -7.031 c 0,-3.019 -2.45,-5.469 -5.469,-5.469 h -7.031 z" style="fill:currentColor;fill-opacity:1;fill-rule:nonzero;stroke:none" transform="scale(1.3333333)" /> </g>
</svg>

