<?xml version="1.0" encoding="UTF-8" standalone="no"?> <svg version="1.1" id="I45bef1f4ba8b4787a11137520248fb3020251106155157" width="100" height="100" viewBox="0 0 100 100" xmlns="http://www.w3.org/2000/svg" xmlns:svg="http://www.w3.org/2000/svg"> <defs id="I2ae44f2c1bfc40f38fb7f5c71dba45a920251106155157" /> <g id="I721d9439710946a38bb8564bbc82040820251106155157"> <path id="I166220c5997841daa7d9623887e5f70220251106155157" d="m 12.5,13.281 c 0,-3.883 3.148,-7.031 7.031,-7.031 h 35.938 c 3.883,0 7.031,3.148 7.031,7.031 v 29.946 c -1.461,-0.579 -3.039,-0.934 -4.688,-1.02 V 13.281 c 0,-1.293 -1.05,-2.343 -2.343,-2.343 H 19.531 c -1.293,0 -2.343,1.05 -2.343,2.343 v 48.438 c 0,1.293 1.05,2.343 2.343,2.343 H 33.02 c 0.98,1.825 2.335,3.422 3.96,4.688 H 19.531 c -3.883,0 -7.031,-3.148 -7.031,-7.031 z m 11.719,7.031 c -1.293,0 -2.344,1.051 -2.344,2.344 0,1.293 1.051,2.344 2.344,2.344 h 26.562 c 1.293,0 2.344,-1.051 2.344,-2.344 0,-1.293 -1.051,-2.344 -2.344,-2.344 z m -2.344,16.407 c 0,-1.293 1.051,-2.344 2.344,-2.344 h 26.562 c 1.293,0 2.344,1.051 2.344,2.344 0,1.293 -1.051,2.343 -2.344,2.343 H 24.219 c -1.293,0 -2.344,-1.05 -2.344,-2.343 z M 68.75,57.031 c 0,-6.472 -5.246,-11.719 -11.719,-11.719 l -0.316,0.02 c -1.145,0.156 -2.027,1.137 -2.027,2.324 0,1.293 1.05,2.344 2.343,2.344 l 0.481,0.016 c 3.66,0.25 6.55,3.293 6.55,7.015 0,3.883 -3.148,7.031 -7.031,7.031 l -0.011,0.016 -0.317,0.024 c -1.144,0.16 -2.019,1.144 -2.015,2.328 0.007,1.297 1.058,2.34 2.355,2.336 V 68.75 l 0.621,-0.016 C 63.836,68.41 68.75,63.293 68.75,57.031 Z M 48.438,47.656 c 0,-1.293 -1.051,-2.344 -2.344,-2.344 l -0.621,0.016 c -6.184,0.324 -11.098,5.442 -11.098,11.703 0,6.473 5.246,11.719 11.719,11.719 l 0.316,-0.02 c 1.145,-0.156 2.028,-1.136 2.028,-2.324 0,-1.293 -1.051,-2.344 -2.344,-2.344 l -0.481,-0.015 c -3.66,-0.25 -6.551,-3.293 -6.551,-7.016 0,-3.883 3.149,-7.031 7.032,-7.031 l 0.316,-0.02 c 1.145,-0.156 2.028,-1.136 2.028,-2.324 z m 10.937,9.375 c 0,-1.293 -1.051,-2.343 -2.344,-2.343 H 46.094 l -0.317,0.019 c -1.144,0.156 -2.027,1.137 -2.027,2.324 0,1.293 1.051,2.344 2.344,2.344 h 10.937 l 0.317,-0.02 c 1.144,-0.156 2.027,-1.136 2.027,-2.324 z" style="fill:currentColor;fill-opacity:1;fill-rule:nonzero;stroke:none" transform="scale(1.3333333)" /> </g>
</svg>

