<?xml version="1.0" encoding="UTF-8" standalone="no"?> <svg version="1.1" id="I7c791b7c2bda45ce88b50852c5db2b5420251110133655" width="100" height="100" viewBox="0 0 100 100" xmlns="http://www.w3.org/2000/svg" xmlns:svg="http://www.w3.org/2000/svg"> <defs id="I3083eb4304874ae1a1fab1e358c4b73020251110133655" /> <g id="I4a5666f683ec4422adf5c6f4f1fc57e820251110133655"> <path id="I3e20c458b48841aa94174e05a7dbbcdd20251110133655" d="m 60.27,10.043 c 0,-1.109 -0.903,-2.008 -2.012,-2.008 -1.11,0 -2.008,0.899 -2.008,2.008 v 3.352 h -3.348 c -1.109,0 -2.007,0.898 -2.007,2.007 0,1.11 0.898,2.008 2.007,2.008 h 3.348 v 3.348 c 0,1.109 0.898,2.012 2.008,2.012 1.109,0 2.012,-0.903 2.012,-2.012 V 17.41 h 3.347 c 1.11,0 2.008,-0.898 2.008,-2.008 0,-1.109 -0.898,-2.007 -2.008,-2.007 H 60.27 Z M 20.758,14.73 c 1.109,0 2.012,0.903 2.012,2.012 v 3.348 h 3.347 c 1.11,0 2.008,0.898 2.008,2.008 0,1.109 -0.898,2.007 -2.008,2.007 H 22.77 v 3.352 c 0,1.109 -0.903,2.008 -2.012,2.008 -1.11,0 -2.008,-0.899 -2.008,-2.008 v -3.352 h -3.348 c -1.109,0 -2.007,-0.898 -2.007,-2.007 0,-1.11 0.898,-2.008 2.007,-2.008 h 3.348 v -3.348 c 0,-1.109 0.898,-2.012 2.008,-2.012 z m 32.144,30.805 c 1.11,0 2.008,0.899 2.008,2.008 v 3.352 h 3.348 c 1.109,0 2.012,0.898 2.012,2.007 0,1.11 -0.903,2.008 -2.012,2.008 H 54.91 v 3.348 c 0,1.109 -0.898,2.012 -2.008,2.012 -1.109,0 -2.007,-0.903 -2.007,-2.012 V 54.91 h -3.352 c -1.109,0 -2.008,-0.898 -2.008,-2.008 0,-1.109 0.899,-2.007 2.008,-2.007 h 3.352 v -3.352 c 0,-1.109 0.898,-2.008 2.007,-2.008 z M 52.59,25.387 C 50.105,20.926 44.047,20.078 40.43,23.684 l -2.27,2.261 10.891,10.891 2.254,-2.246 c 2.437,-2.438 2.965,-6.195 1.285,-9.203 z M 46.207,39.676 35.316,28.781 7.52,56.488 c -3.012,3 -3.028,7.871 -0.036,10.891 3.004,3.035 7.907,3.051 10.93,0.031 z" style="fill:currentColor;fill-opacity:1;fill-rule:nonzero;stroke:none" transform="scale(1.3333333)" /> </g>
</svg>

