<?xml version="1.0" encoding="UTF-8" standalone="no"?> <svg version="1.1" id="Ic409423c77964ccd88ca045a8a24fecd20251106155157" width="100" height="100" viewBox="0 0 100 100" xmlns="http://www.w3.org/2000/svg" xmlns:svg="http://www.w3.org/2000/svg"> <defs id="I90135926712e44a8be23701c97e5e14f20251106155157" /> <g id="Icb2dfedcb0f84379bf98f8c290bdbc9220251106155157"> <path id="Ibac8ca2660364cf9ac5612e998d17e5320251106155157" d="m 12.5,17.188 c -0.859,0 -1.562,0.699 -1.562,1.562 v 37.5 c 0,0.863 0.703,1.562 1.562,1.562 h 50 c 0.859,0 1.562,-0.699 1.562,-1.562 V 37.5 H 50 c -3.449,0 -6.25,-2.801 -6.25,-6.25 V 17.188 Z M 60.559,32.812 48.438,20.695 V 31.25 c 0,0.863 0.703,1.562 1.562,1.562 z M 48.707,14.332 66.918,32.547 c 0.082,0.082 0.144,0.18 0.219,0.265 0.199,0.223 0.398,0.442 0.562,0.684 0.086,0.125 0.141,0.27 0.215,0.402 0.125,0.219 0.262,0.438 0.359,0.672 0.258,0.618 0.387,1.282 0.434,1.953 0.008,0.145 0.043,0.289 0.043,0.438 V 56.25 c 0,3.449 -2.801,6.25 -6.25,6.25 h -50 c -3.449,0 -6.25,-2.801 -6.25,-6.25 v -37.5 c 0,-3.449 2.801,-6.25 6.25,-6.25 h 31.789 c 1.656,0 3.246,0.66 4.418,1.832 z" style="fill:currentColor;fill-opacity:1;fill-rule:nonzero;stroke:none" transform="scale(1.3333333)" /> </g>
</svg>

