<?xml version="1.0" encoding="UTF-8" standalone="no"?> <svg version="1.1" id="I3058c2c9816645c4be7993b9fa66ec3320251106143238" width="100" height="100" viewBox="0 0 100 100" xmlns="http://www.w3.org/2000/svg" xmlns:svg="http://www.w3.org/2000/svg"> <defs id="If37a889ca2ca4cf68ca79a9d76592e1a20251106143238" /> <g id="I2be53c4c7dd4491f8e15772accf3075220251106143238"> <path id="I62812db4c41640d291524f17e6742fa320251106143238" d="m 55.469,9.375 c 5.609,0 10.156,4.547 10.156,10.156 v 18.035 c -1.449,-0.925 -3.02,-1.671 -4.687,-2.211 V 26.562 H 14.062 v 28.907 c 0,3.019 2.45,5.469 5.469,5.469 h 15.824 c 0.54,1.667 1.286,3.238 2.211,4.687 H 19.531 C 13.922,65.625 9.375,61.078 9.375,55.469 V 19.531 c 0,-5.609 4.547,-10.156 10.156,-10.156 z m 0,4.687 H 19.531 c -3.019,0 -5.469,2.45 -5.469,5.469 v 2.344 h 46.876 v -2.344 c 0,-3.019 -2.45,-5.469 -5.469,-5.469 z M 71.875,54.688 C 71.875,45.195 64.18,37.5 54.688,37.5 45.195,37.5 37.5,45.195 37.5,54.688 c 0,9.492 7.695,17.187 17.188,17.187 9.492,0 17.187,-7.695 17.187,-17.187 z M 54.688,43.75 c 0.863,0 1.562,0.699 1.562,1.562 v 7.813 h 6.25 c 0.863,0 1.562,0.699 1.562,1.563 0,0.863 -0.699,1.562 -1.562,1.562 h -7.812 c -0.864,0 -1.563,-0.699 -1.563,-1.562 v -9.376 c 0,-0.863 0.699,-1.562 1.563,-1.562 z" style="fill:currentColor;fill-opacity:1;fill-rule:nonzero;stroke:none" transform="scale(1.3333333)" /> </g>
</svg>

