<?xml version="1.0" encoding="UTF-8" standalone="no"?> <svg version="1.1" id="I094fa1c6bd8247dc8b70c77d14fef4bc20251106155156" width="100" height="100" viewBox="0 0 100 100" xmlns="http://www.w3.org/2000/svg" xmlns:svg="http://www.w3.org/2000/svg"> <defs id="I93253f776e2a49229c7004f014dbf75d20251106155156" /> <g id="I082c3e7e3d77470b9a039e78aa3cbb1720251106155156"> <path id="I1cf52db56d9f4a78b4348d1ccdcc074f20251106155156" d="M 37.5,25 V 6.25 H 18.75 c -3.453,0 -6.25,2.797 -6.25,6.25 v 50 c 0,3.453 2.797,6.25 6.25,6.25 h 21.281 c -2.469,-2.57 -4.265,-5.789 -5.113,-9.375 h -1.324 c -1.293,0 -2.344,-1.051 -2.344,-2.344 0,-1.293 1.051,-2.343 2.344,-2.343 h 0.781 c 0,-1.614 0.187,-3.184 0.543,-4.688 h -1.324 c -1.293,0 -2.344,-1.051 -2.344,-2.344 0,-1.293 1.051,-2.344 2.344,-2.344 h 3.07 c 0.898,-1.722 2.035,-3.3 3.367,-4.687 h -6.437 c -1.293,0 -2.344,-1.051 -2.344,-2.344 0,-1.293 1.051,-2.343 2.344,-2.343 h 13.265 c 2.411,-1.008 5.055,-1.563 7.829,-1.563 2.769,0 5.406,0.555 7.812,1.559 V 31.25 H 43.75 C 40.297,31.25 37.5,28.453 37.5,25 Z M 21.875,38.281 c 0,-1.293 1.051,-2.343 2.344,-2.343 1.293,0 2.343,1.05 2.343,2.343 0,1.293 -1.05,2.344 -2.343,2.344 -1.293,0 -2.344,-1.051 -2.344,-2.344 z m 0,9.375 c 0,-1.293 1.051,-2.344 2.344,-2.344 1.293,0 2.343,1.051 2.343,2.344 0,1.293 -1.05,2.344 -2.343,2.344 -1.293,0 -2.344,-1.051 -2.344,-2.344 z m 0,9.375 c 0,-1.293 1.051,-2.343 2.344,-2.343 1.293,0 2.343,1.05 2.343,2.343 0,1.293 -1.05,2.344 -2.343,2.344 -1.293,0 -2.344,-1.051 -2.344,-2.344 z M 42.188,25 V 7.812 l 18.75,18.75 H 43.75 c -0.863,0 -1.562,-0.699 -1.562,-1.562 z M 71.875,54.688 C 71.875,45.195 64.18,37.5 54.688,37.5 45.195,37.5 37.5,45.195 37.5,54.688 c 0,9.492 7.695,17.187 17.188,17.187 9.492,0 17.187,-7.695 17.187,-17.187 z m -18.063,1.304 c -0.421,-0.281 -0.699,-0.758 -0.699,-1.304 0,-0.075 0.004,-0.149 0.016,-0.223 L 53.125,42.184 c 0,-0.864 0.699,-1.563 1.563,-1.563 0.863,0 1.562,0.699 1.562,1.563 l 0.004,10.941 h 7.797 c 0.863,0 1.562,0.699 1.562,1.563 0,0.863 -0.699,1.562 -1.562,1.562 h -9.176 c -0.059,0.008 -0.121,0.012 -0.184,0.012 -0.324,0 -0.629,-0.102 -0.879,-0.27 z" style="fill:currentColor;fill-opacity:1;fill-rule:nonzero;stroke:none" transform="scale(1.3333333)" /> </g>
</svg>

