<?xml version="1.0" encoding="UTF-8" standalone="no"?> <svg version="1.1" id="Ic9577ac726c94293a78742e6b3460ace20251106154012" width="100" height="100" viewBox="0 0 100 100" xmlns="http://www.w3.org/2000/svg" xmlns:svg="http://www.w3.org/2000/svg"> <defs id="Iba95ed2378c042fb8c97a3073cffe33320251106154012" /> <g id="I902759fe2f2e4ce2b840d0f4aae8432920251106154012"> <path id="I5ad1876e89f6438aba3840d5d088c40e20251106154012" d="m 12.5,18.75 v 37.5 c 0,2.156 0.984,4.043 2.418,5.562 1.426,1.508 3.371,2.758 5.602,3.758 4.468,2 10.472,3.18 16.98,3.18 1.598,0 3.164,-0.07 4.684,-0.207 -2.016,-1.086 -3.75,-2.625 -5.071,-4.481 -5.847,-0.046 -11.019,-1.132 -14.675,-2.769 -1.868,-0.84 -3.239,-1.777 -4.11,-2.699 -0.859,-0.91 -1.14,-1.696 -1.14,-2.344 V 26.227 c 1.003,0.687 2.128,1.304 3.332,1.843 4.468,2 10.472,3.18 16.98,3.18 6.508,0 12.512,-1.18 16.98,-3.18 1.208,-0.539 2.329,-1.156 3.332,-1.843 v 14.398 h 2.344 c 0.797,0 1.582,0.063 2.344,0.184 V 18.75 c 0,-2.156 -0.984,-4.043 -2.418,-5.562 C 58.656,11.68 56.711,10.43 54.48,9.43 50.012,7.43 44.008,6.25 37.5,6.25 c -6.508,0 -12.512,1.18 -16.98,3.18 -2.231,1 -4.176,2.25 -5.602,3.758 -1.434,1.519 -2.418,3.406 -2.418,5.562 z m 4.688,0 c 0,-0.648 0.281,-1.434 1.14,-2.344 0.871,-0.922 2.242,-1.859 4.11,-2.699 3.734,-1.672 9.058,-2.769 15.062,-2.769 6.004,0 11.328,1.097 15.062,2.769 1.868,0.84 3.239,1.777 4.11,2.699 0.859,0.91 1.14,1.696 1.14,2.344 0,0.648 -0.281,1.434 -1.14,2.344 -0.871,0.922 -2.242,1.859 -4.11,2.699 -3.734,1.672 -9.058,2.769 -15.062,2.769 -6.004,0 -11.328,-1.097 -15.062,-2.769 -1.868,-0.84 -3.239,-1.777 -4.11,-2.699 -0.859,-0.91 -1.14,-1.696 -1.14,-2.344 z m 54.687,36.719 c 0,-6.473 -5.246,-11.719 -11.719,-11.719 l -0.316,0.02 c -1.145,0.156 -2.028,1.136 -2.028,2.324 0,1.293 1.051,2.344 2.344,2.344 l 0.481,0.015 c 3.66,0.25 6.551,3.293 6.551,7.016 0,3.883 -3.149,7.031 -7.032,7.031 l -0.011,0.016 -0.317,0.023 c -1.144,0.16 -2.019,1.145 -2.016,2.328 0.008,1.297 1.059,2.34 2.356,2.336 v -0.015 l 0.621,-0.016 C 66.961,66.848 71.875,61.73 71.875,55.469 Z M 51.562,46.094 c 0,-1.293 -1.05,-2.344 -2.343,-2.344 l -0.621,0.016 C 42.414,44.09 37.5,49.207 37.5,55.469 c 0,6.472 5.246,11.719 11.719,11.719 l 0.316,-0.02 c 1.145,-0.156 2.027,-1.137 2.027,-2.324 0,-1.293 -1.05,-2.344 -2.343,-2.344 l -0.481,-0.016 c -3.66,-0.25 -6.55,-3.293 -6.55,-7.015 0,-3.883 3.148,-7.031 7.031,-7.031 l 0.316,-0.02 c 1.145,-0.156 2.027,-1.137 2.027,-2.324 z M 62.5,55.469 c 0,-1.293 -1.051,-2.344 -2.344,-2.344 H 49.219 l -0.317,0.02 c -1.144,0.156 -2.027,1.136 -2.027,2.324 0,1.293 1.051,2.343 2.344,2.343 h 10.937 l 0.317,-0.019 C 61.617,57.637 62.5,56.656 62.5,55.469 Z" style="fill:currentColor;fill-opacity:1;fill-rule:nonzero;stroke:none" transform="scale(1.3333333)" /> </g>
</svg>

