<?xml version="1.0" encoding="UTF-8" standalone="no"?> <svg version="1.1" id="Ib58f71249a7c4238ae7f9452a3c4ed5920251106151526" width="100" height="100" viewBox="0 0 100 100" xmlns="http://www.w3.org/2000/svg" xmlns:svg="http://www.w3.org/2000/svg"> <defs id="I5d1da02f9c944096b66834cc4840232e20251106151526"> <linearGradient x1="5" y1="6.1999998" x2="22.549299" y2="26.391701" gradientUnits="userSpaceOnUse" gradientTransform="scale(2.678571)" spreadMethod="pad" id="I745d0a22368443b188383e622c10583620251106151526"> <stop style="stop-opacity:1;stop-color:#36dff1" offset="0" id="I8cd42724dd9a497bbe8c289c20ff49d320251106151526" /> <stop style="stop-opacity:1;stop-color:#0094f0" offset="1" id="I60ee7bde275a4f9b9b81f34ef59cced320251106151526" /> </linearGradient> <radialGradient fx="0" fy="0" cx="0" cy="0" r="1" gradientUnits="userSpaceOnUse" gradientTransform="matrix(0,20.195866,-18.645375,0,37.5,7.440482)" spreadMethod="pad" id="I49049ced3cad476bb334a098e3b72aed20251106151526"> <stop style="stop-opacity:0.70000763;stop-color:#0a1852" offset="0" id="I97dabdab2ce048ecb448b83df225010520251106151526" /> <stop style="stop-opacity:0;stop-color:#0a1852" offset="0.970427" id="Ied47e2ee1f174609b57362195fd3340620251106151526" /> <stop style="stop-opacity:0;stop-color:#0a1852" offset="1" id="Ibfb4f422912d44578573f577fb19d64120251106151526" /> </radialGradient> <radialGradient fx="0" fy="0" cx="0" cy="0" r="1" gradientUnits="userSpaceOnUse" gradientTransform="matrix(0,9.058286,-14.784455,0,37.5,13.600982)" spreadMethod="pad" id="Ic5e595766dcb4196a9d26e89ac95b21420251106151526"> <stop style="stop-opacity:0.4;stop-color:#0a1852" offset="0" id="Id8abf3c710e94bf6a1bb8fbf3975756c20251106151526" /> <stop style="stop-opacity:0;stop-color:#0a1852" offset="1" id="If0a8b0356788462982f35de31bdeb8b220251106151526" /> </radialGradient> <linearGradient x1="14" y1="2" x2="14" y2="7" gradientUnits="userSpaceOnUse" gradientTransform="scale(2.678571)" spreadMethod="pad" id="Ic3e38949ddec4ca09323740fe92f970220251106151526"> <stop style="stop-opacity:1;stop-color:#ffe06b" offset="0" id="Ie53528c2e2d043e8b855f45a9786db0d20251106151526" /> <stop style="stop-opacity:1;stop-color:#fab500" offset="1" id="Id4ed847bb55f46faa92e80d287822afb20251106151526" /> </linearGradient> </defs> <g id="Ief00dd94be7249a28670b396cca41ca220251106151526"> <path id="Id14a0b60197f48cf8cba71c2ef26a62020251106151526" d="m 13.395,18.082 c 0,-4.07 3.296,-7.367 7.363,-7.367 h 33.484 c 4.067,0 7.363,3.297 7.363,7.367 v 44.195 c 0,4.067 -3.296,7.368 -7.363,7.368 H 20.758 c -4.067,0 -7.363,-3.301 -7.363,-7.368 z" transform="scale(1.3333333)" style="fill:url(#I745d0a22368443b188383e622c10583620251106151526);stroke:none" /> <path d="m 13.395,18.082 c 0,-4.07 3.296,-7.367 7.363,-7.367 h 33.484 c 4.067,0 7.363,3.297 7.363,7.367 v 44.195 c 0,4.067 -3.296,7.368 -7.363,7.368 H 20.758 c -4.067,0 -7.363,-3.301 -7.363,-7.368 z" transform="scale(1.3333333)" style="fill:url(#I49049ced3cad476bb334a098e3b72aed20251106151526);stroke:none" opacity="1" id="I1c57a803a11442709c15fcae13dc206a20251106151526" /> <path d="m 13.395,18.082 c 0,-4.07 3.296,-7.367 7.363,-7.367 h 33.484 c 4.067,0 7.363,3.297 7.363,7.367 v 44.195 c 0,4.067 -3.296,7.368 -7.363,7.368 H 20.758 c -4.067,0 -7.363,-3.301 -7.363,-7.368 z" transform="scale(1.3333333)" style="fill:url(#Ic5e595766dcb4196a9d26e89ac95b21420251106151526);stroke:none" opacity="1" id="I212d8f3bd49546f1b26013c9a7f8d80a20251106151526" /> <path id="Id580198786b14fc1b2e4614fa1b2020e20251106151526" d="m 25.445,12.055 c 0,-3.7 3,-6.7 6.7,-6.7 h 10.71 c 3.7,0 6.7,3 6.7,6.7 0,3.695 -3,6.695 -6.7,6.695 h -10.71 c -3.7,0 -6.7,-3 -6.7,-6.695 z" transform="scale(1.3333333)" style="fill:url(#Ic3e38949ddec4ca09323740fe92f970220251106151526);stroke:none" /> </g>
</svg>

