<?xml version="1.0" encoding="UTF-8" standalone="no"?> <svg version="1.1" id="I546cc9cf765042f2b3bc43c467226e0120251110133655" width="100" height="100" viewBox="0 0 100 100" xmlns="http://www.w3.org/2000/svg" xmlns:svg="http://www.w3.org/2000/svg"> <defs id="I656c6638247540ef919c0f6317c1371f20251110133655" /> <g id="Ic68c1c12892a4b9991aa9bfdcbf332f120251110133655"> <path id="I5e474139e5f34431978181ae4f44782120251110133655" d="m 67.367,30.676 c -1.265,-1.828 -2.715,-3.582 -4.25,-5.117 -14.078,-14.079 -36.898,-14.079 -50.972,0 -1.477,1.472 -2.907,3.222 -4.207,5.097 -0.59,0.852 -0.379,2.02 0.472,2.61 0.852,0.589 2.02,0.379 2.61,-0.473 1.175,-1.699 2.468,-3.277 3.773,-4.586 12.613,-12.609 33.059,-12.609 45.672,0 1.371,1.371 2.676,2.953 3.812,4.602 0.59,0.851 1.758,1.066 2.61,0.476 0.851,-0.586 1.066,-1.754 0.48,-2.609 z M 26.934,42.32 c 3.914,-3.914 9.441,-5.234 14.441,-3.961 -1.195,0.977 -2.281,2.079 -3.234,3.293 -3.079,-0.136 -6.203,0.969 -8.555,3.321 -0.984,0.984 -1.781,2.183 -2.367,3.515 -0.414,0.95 -1.52,1.383 -2.469,0.965 -0.949,-0.414 -1.379,-1.519 -0.965,-2.469 0.766,-1.75 1.824,-3.336 3.149,-4.664 z m 27.8,-9.363 c 0.266,0.266 0.528,0.543 0.782,0.824 -0.379,-0.019 -0.758,-0.031 -1.141,-0.031 -1.348,0 -2.668,0.129 -3.945,0.375 -8.024,-6.461 -19.801,-5.969 -27.25,1.484 -1.551,1.551 -2.813,3.293 -3.782,5.211 -0.468,0.926 -1.593,1.293 -2.519,0.828 -0.922,-0.468 -1.293,-1.597 -0.828,-2.519 1.148,-2.274 2.644,-4.34 4.476,-6.172 9.446,-9.445 24.758,-9.445 34.207,0 z M 45.25,42.91 c 1.137,4.051 -1.285,8.25 -5.363,9.289 l -1.731,0.442 c -0.054,0.57 -0.086,1.148 -0.086,1.734 0,0.703 0.043,1.398 0.125,2.078 l 1.309,0.313 c 4.199,0.992 6.695,5.312 5.461,9.445 l -0.473,1.586 c 0.965,0.762 2.012,1.414 3.129,1.941 l 1.219,-1.293 c 2.961,-3.133 7.953,-3.133 10.91,0.008 l 1.266,1.344 c 1.097,-0.508 2.129,-1.137 3.082,-1.867 l -0.586,-2.09 c -1.137,-4.051 1.285,-8.25 5.367,-9.289 l 1.726,-0.442 c 0.055,-0.57 0.083,-1.148 0.083,-1.734 0,-0.703 -0.04,-1.398 -0.122,-2.078 l -1.308,-0.313 c -4.199,-0.992 -6.696,-5.312 -5.461,-9.445 l 0.473,-1.582 c -0.965,-0.762 -2.012,-1.418 -3.129,-1.945 l -1.219,1.293 c -2.961,3.133 -7.953,3.133 -10.91,-0.008 l -1.266,-1.344 c -1.098,0.508 -2.129,1.133 -3.082,1.867 z m 9.129,15.215 c -2.07,0 -3.75,-1.68 -3.75,-3.75 0,-2.07 1.68,-3.75 3.75,-3.75 2.07,0 3.75,1.68 3.75,3.75 0,2.07 -1.68,3.75 -3.75,3.75 z" style="fill:currentColor;fill-opacity:1;fill-rule:nonzero;stroke:none" transform="scale(1.3333333)" /> </g>
</svg>

