<?xml version="1.0" encoding="UTF-8" standalone="no"?> <svg version="1.1" id="I8c9c388e4615426fa6fc66fbebcd969220251110130507" width="100" height="100" viewBox="0 0 100 100" xmlns="http://www.w3.org/2000/svg" xmlns:svg="http://www.w3.org/2000/svg"> <defs id="I2291e5b680a44843b955c3a328e386d920251110130507" /> <g id="Icb08d658b4e74c1490670d1c19b2425a20251110130507"> <path id="I2a99215e1bf747b0b22e91c6272b8f8820251110130507" d="m 14.844,12.5 c -4.746,0 -8.594,3.848 -8.594,8.594 v 32.812 c 0,4.746 3.848,8.594 8.594,8.594 h 45.312 c 4.746,0 8.594,-3.848 8.594,-8.594 V 21.094 C 68.75,16.348 64.902,12.5 60.156,12.5 Z M 23.438,25 h 28.124 c 2.59,0 4.688,2.098 4.688,4.688 0,2.589 -2.098,4.687 -4.688,4.687 H 23.438 c -2.59,0 -4.688,-2.098 -4.688,-4.687 0,-2.59 2.098,-4.688 4.688,-4.688 z" style="fill:currentColor;fill-opacity:1;fill-rule:nonzero;stroke:none" transform="scale(1.3333333)" /> </g>
</svg>

