<?xml version="1.0" encoding="UTF-8" standalone="no"?> <svg version="1.1" id="I766c8c4f9ff644e7a52adf2dbfcdc3aa20251106152729" width="100" height="100" viewBox="0 0 100 100" xmlns="http://www.w3.org/2000/svg" xmlns:svg="http://www.w3.org/2000/svg"> <defs id="I4e7d816b97bb4793b0cdb8dcb47c3d1720251106152729" /> <g id="I2597be74bdb249b6a3677d91cbeee3f620251106152729"> <path id="I19ba25cfd8114ca9b587e3f1a9bec2fb20251106152729" d="m 21.43,7.367 c 0,-1.109 -0.903,-2.012 -2.012,-2.012 -1.109,0 -2.008,0.903 -2.008,2.012 V 17.41 H 7.367 c -1.109,0 -2.012,0.899 -2.012,2.008 0,1.109 0.903,2.012 2.012,2.012 H 17.41 v 26.113 c 0,5.551 4.496,10.047 10.047,10.047 H 53.57 v 10.043 c 0,1.109 0.903,2.012 2.012,2.012 1.109,0 2.008,-0.903 2.008,-2.012 V 57.59 h 10.043 c 1.109,0 2.012,-0.899 2.012,-2.008 0,-1.109 -0.903,-2.012 -2.012,-2.012 H 27.457 c -3.332,0 -6.027,-2.699 -6.027,-6.027 z m 32.14,20.09 v 23.438 h 4.02 V 27.457 C 57.59,21.906 53.094,17.41 47.543,17.41 H 24.105 v 4.02 h 23.438 c 3.328,0 6.027,2.695 6.027,6.027 z" style="fill:currentColor;fill-opacity:1;fill-rule:nonzero;stroke:none" transform="scale(1.3333333)" /> </g>
</svg>

