<?xml version="1.0" encoding="UTF-8" standalone="no"?> <svg version="1.1" id="Ib9f39e12dd19468585eb3c47ec923bcb20251106112458" width="100" height="100" viewBox="0 0 100 100" xmlns="http://www.w3.org/2000/svg" xmlns:svg="http://www.w3.org/2000/svg"> <defs id="Ice29ca85380340408ef140d7c520639120251106112458" /> <g id="Ied70790a6fab4145bde737207f982e1520251106112458"> <path id="I2f2e7d7fd949421d8fa1986c307c863820251106112458" d="m 54.309,40.582 c 4.484,-4.488 6.964,-10.465 6.964,-16.809 0,-6.355 -2.468,-12.324 -6.964,-16.808 C 49.82,2.477 43.844,0 37.5,0 31.156,0 25.18,2.469 20.691,6.965 c -4.484,4.496 -6.964,10.453 -6.964,16.808 0,5.34 1.75,10.411 4.972,14.555 0.613,0.789 1.274,1.531 1.985,2.254 0.711,0.711 1.464,1.371 2.242,1.98 3.316,2.579 7.226,4.219 11.394,4.774 v 8.914 h -9.543 c -0.367,0 -0.672,0.301 -0.672,0.668 v 5.023 c 0,0.368 0.305,0.672 0.672,0.672 h 9.543 v 11.719 c 0,0.367 0.301,0.668 0.668,0.668 h 5.024 c 0.367,0 0.668,-0.301 0.668,-0.668 V 62.613 h 9.543 c 0.367,0 0.672,-0.304 0.672,-0.672 v -5.023 c 0,-0.367 -0.305,-0.668 -0.672,-0.668 H 40.68 v -8.914 c 5.148,-0.688 9.894,-3.024 13.629,-6.754 z M 37.5,41.184 c -4.652,0 -9.016,-1.809 -12.312,-5.098 -3.29,-3.289 -5.098,-7.66 -5.098,-12.313 0,-4.656 1.808,-9.015 5.098,-12.312 3.289,-3.301 7.66,-5.098 12.312,-5.098 4.652,0 9.016,1.805 12.312,5.098 3.29,3.289 5.098,7.656 5.098,12.312 0,4.653 -1.808,9.016 -5.098,12.313 -3.296,3.289 -7.66,5.098 -12.312,5.098 z" style="fill:currentColor;fill-opacity:1;fill-rule:nonzero;stroke:none" transform="scale(1.3333333)" /> </g>
</svg>

