<?xml version="1.0" encoding="UTF-8" standalone="no"?> <svg version="1.1" id="Id8602fa6bae04ea396ec9cbe96eb1e8020251106161453" width="100" height="100" viewBox="0 0 100 100" xmlns="http://www.w3.org/2000/svg" xmlns:svg="http://www.w3.org/2000/svg"> <defs id="I2fbcc2fdfcab48c5a444513329b3361f20251106161453" /> <g id="Ie319bee732d84418b5b97374a98c06dd20251106161453"> <path id="Ia3b58b5f97054d24a5029c288fd6083520251106161453" d="m 18.75,6.25 c -3.453,0 -6.25,2.797 -6.25,6.25 v 23.434 c 1.48,-0.622 3.051,-1.067 4.688,-1.321 V 12.5 c 0,-0.863 0.699,-1.562 1.562,-1.562 H 37.5 V 25 c 0,3.453 2.797,6.25 6.25,6.25 H 57.812 V 62.5 c 0,0.863 -0.699,1.562 -1.562,1.562 H 38.336 c -0.898,1.723 -2.035,3.301 -3.367,4.688 H 56.25 c 3.453,0 6.25,-2.797 6.25,-6.25 V 30.711 c 0,-1.656 -0.66,-3.246 -1.832,-4.418 L 42.457,8.082 C 41.285,6.91 39.695,6.25 38.039,6.25 Z M 54.309,26.562 H 43.75 c -0.863,0 -1.562,-0.699 -1.562,-1.562 V 14.441 Z M 34.969,40.625 C 33.055,38.629 30.73,37.02 28.141,35.938 h 19.515 c 1.293,0 2.344,1.05 2.344,2.343 0,1.293 -1.051,2.344 -2.344,2.344 z m 2.937,3.906 c 0.844,1.457 1.512,3.031 1.973,4.688 h 7.777 c 1.293,0 2.344,-1.051 2.344,-2.344 0,-1.293 -1.051,-2.344 -2.344,-2.344 z m 2.719,10.157 c 0,1.062 -0.082,2.105 -0.238,3.124 h 7.269 c 1.293,0 2.344,-1.05 2.344,-2.343 0,-1.293 -1.051,-2.344 -2.344,-2.344 h -7.09 c 0.039,0.516 0.059,1.035 0.059,1.563 z M 20.312,37.5 c 9.493,0 17.188,7.695 17.188,17.188 0,9.492 -7.695,17.187 -17.188,17.187 C 10.82,71.875 3.125,64.18 3.125,54.688 3.125,45.195 10.82,37.5 20.312,37.5 Z m 1.563,7.812 c 0,-0.863 -0.699,-1.562 -1.563,-1.562 -0.863,0 -1.562,0.699 -1.562,1.562 v 9.376 c 0,0.863 0.699,1.562 1.562,1.562 h 7.813 c 0.863,0 1.563,-0.699 1.563,-1.562 0,-0.864 -0.7,-1.563 -1.563,-1.563 h -6.25 z" style="fill:currentColor;fill-opacity:1;fill-rule:nonzero;stroke:none" transform="scale(1.3333333)" /> </g>
</svg>

