<?xml version="1.0" encoding="UTF-8" standalone="no"?> <svg version="1.1" id="Ie9020571bfcc450e8c57745a554af48c20251110130509" width="100" height="100" viewBox="0 0 100 100" xmlns="http://www.w3.org/2000/svg" xmlns:svg="http://www.w3.org/2000/svg"> <defs id="Ib0878febec5d4fddb7b25de7406a5e0520251110130509" /> <g id="I2df8a81fef884a1d9570838e5066648e20251110130509"> <path id="I95813a9380734ef791308eb46528cdfb20251110130509" d="m 66.406,51.562 c 1.293,0 2.344,1.047 2.344,2.344 0,1.188 -0.883,2.168 -2.027,2.321 L 66.406,56.25 H 51.562 V 51.562 Z M 12.5,31.25 h 4.684 l 0.004,-10.156 c 0,-0.43 0.351,-0.782 0.781,-0.782 h 39.062 c 0.43,0 0.781,0.352 0.781,0.782 v 23.437 c 0,0.434 -0.351,0.781 -0.781,0.781 H 51.562 V 50 h 5.469 c 3.02,0 5.469,-2.445 5.469,-5.469 V 21.094 c 0,-3.02 -2.449,-5.469 -5.469,-5.469 H 17.969 c -3.02,0 -5.469,2.449 -5.469,5.469 z m 11.719,21.875 c -1.293,0 -2.344,1.051 -2.344,2.344 0,1.293 1.051,2.343 2.344,2.343 h 7.812 c 1.293,0 2.344,-1.05 2.344,-2.343 0,-1.293 -1.051,-2.344 -2.344,-2.344 z M 13.281,34.375 c -3.883,0 -7.031,3.148 -7.031,7.031 v 17.188 c 0,3.883 3.148,7.031 7.031,7.031 h 28.125 c 3.883,0 7.032,-3.148 7.032,-7.031 V 41.406 c 0,-3.883 -3.149,-7.031 -7.032,-7.031 z m -2.343,7.031 c 0,-1.293 1.05,-2.344 2.343,-2.344 h 28.125 c 1.293,0 2.344,1.051 2.344,2.344 v 17.188 c 0,1.293 -1.051,2.344 -2.344,2.344 H 13.281 c -1.293,0 -2.343,-1.051 -2.343,-2.344 z" style="fill:currentColor;fill-opacity:1;fill-rule:nonzero;stroke:none" transform="scale(1.3333333)" /> </g>
</svg>

