<?xml version="1.0" encoding="UTF-8" standalone="no"?> <svg version="1.1" id="I9116162e86b24a3a96b4e87eb6b7f2b120251105122542" width="100" height="100" viewBox="0 0 100 100" xmlns="http://www.w3.org/2000/svg" xmlns:svg="http://www.w3.org/2000/svg"> <defs id="I01e8270229d74fccbeabec9247c428ce20251105122542" /> <g id="I209e23c7c5dd4c4cb841cb7aea28279720251105122542"> <path id="I030b635a84224e17a1b3b2c7cfe3366120251105122542" d="m 58.449,14.137 -3.59,-0.953 3.59,-1.024 0.949,-3.515 0.954,3.515 3.515,1.024 -3.515,0.953 -0.954,3.515 z m 3.442,3.808 -1.391,-0.293 1.391,-0.293 0.367,-1.39 0.293,1.39 1.39,0.293 -1.39,0.293 -0.293,1.391 z" style="fill:#fdcd60;fill-opacity:1;fill-rule:nonzero;stroke:none" transform="scale(1.3333333)" /> <path id="Ic81040b0ff194bd7af357b3e78b7214b20251105122542" d="m 12.523,13.988 c 0,0.879 1.321,0.879 1.321,0 0,-0.879 -1.321,-0.879 -1.321,0 z" style="fill:#5546cb;fill-opacity:1;fill-rule:nonzero;stroke:none" transform="scale(1.3333333)" /> <path id="I568882b5d96b4b9280512a7d956c032a20251105122542" d="m 14.43,61.156 -2.344,-0.586 2.344,-0.511 0.586,-2.418 0.511,2.418 2.418,0.511 -2.418,0.586 -0.511,2.344 z M 7.18,48.707 6.152,48.488 7.18,48.266 l 0.293,-1.098 0.218,1.098 1.098,0.222 -1.098,0.219 -0.218,1.098 z" style="fill:#fdcd60;fill-opacity:1;fill-rule:nonzero;stroke:none" transform="scale(1.3333333)" /> <path id="I4bec9c4de48544d186dc356ff5bf7cb520251105122542" d="m 60.938,62.695 c -1.633,0 -2.45,-1.972 -1.293,-3.125 1.152,-1.156 3.125,-0.336 3.125,1.293 0,1.012 -0.821,1.832 -1.832,1.832 z m 0,-2.636 c -0.653,0 -0.981,0.789 -0.52,1.25 0.465,0.461 1.254,0.136 1.254,-0.516 -0.039,-0.379 -0.356,-0.664 -0.734,-0.66 z" style="fill:#5546cb;fill-opacity:1;fill-rule:nonzero;stroke:none" transform="scale(1.3333333)" /> <path id="I8f558e227aa041b0a4f32fe3a7fb3a2120251105122542" d="m 33.84,35.891 c 0,5.078 7.617,5.078 7.617,0 0,-5.079 -7.617,-5.079 -7.617,0 z" style="fill:#afbcf3;fill-opacity:1;fill-rule:nonzero;stroke:none" transform="scale(1.3333333)" /> <path id="I88044b25212142e7b87372db235bbefd20251105122542" d="m 56.469,39.039 c 0,-0.406 0.328,-0.734 0.734,-0.734 h 5.711 C 62.836,24.332 51.547,13.012 37.574,12.891 c 0.317,0.097 0.528,0.398 0.512,0.734 v 5.93 c 0,0.976 -1.465,0.976 -1.465,0 v -5.93 c -0.016,-0.336 0.195,-0.637 0.512,-0.734 -14,0.121 -25.301,11.484 -25.34,25.488 h 6.152 c 0.977,0 0.977,1.465 0,1.465 h -6.152 c 0.293,6.301 2.93,12.23 7.469,16.699 4.625,4.602 10.84,7.25 17.359,7.398 v -5.492 c 0,-0.976 1.465,-0.976 1.465,0 v 5.492 c 6.531,-0.168 12.746,-2.843 17.359,-7.472 4.539,-4.465 7.106,-10.399 7.469,-16.699 h -5.711 c -0.406,0 -0.734,-0.329 -0.734,-0.731 z M 37.574,55.59 c -9.23,0 -16.625,-7.469 -16.625,-16.625 0,-9.156 7.395,-16.699 16.625,-16.699 9.227,0 16.625,7.472 16.625,16.699 0,9.23 -7.469,16.625 -16.625,16.625 z" style="fill:#ff8859;fill-opacity:1;fill-rule:nonzero;stroke:none" transform="scale(1.3333333)" /> <path id="If6e9d4db5dba429c8899c980073f155b20251105122542" d="M 62.258,27.906 C 56.859,15.109 42.645,8.488 29.379,12.586 16.109,16.684 8.105,30.168 10.867,43.777 c 2.758,13.61 15.383,22.914 29.199,21.52 13.817,-1.395 24.329,-13.031 24.313,-26.918 0,-3.598 -0.723,-7.16 -2.121,-10.473 z m -6.813,28.563 c -4.613,4.629 -10.828,7.304 -17.359,7.472 v -5.492 c 0,-0.976 -1.465,-0.976 -1.465,0 v 5.567 C 30.078,63.828 23.863,61.125 19.262,56.469 14.723,51.93 12.16,46.07 11.793,39.77 h 6.078 c 0.977,0 0.977,-1.465 0,-1.465 h -6.078 c 0.078,-13.973 11.367,-25.293 25.34,-25.414 -0.317,0.097 -0.528,0.398 -0.512,0.734 v 5.93 c 0,0.976 1.465,0.976 1.465,0 v -5.93 c 0.016,-0.336 -0.195,-0.637 -0.512,-0.734 13.973,0.121 25.262,11.441 25.34,25.414 h -5.711 c -0.976,0 -0.976,1.465 0,1.465 h 5.641 c -0.293,6.3 -2.93,12.234 -7.399,16.699 z" style="fill:#5546cb;fill-opacity:1;fill-rule:nonzero;stroke:none" transform="scale(1.3333333)" /> <path id="If03f9467d07e4499ab11603bfac2ebb020251105122542" d="m 37.574,22.266 c -9.23,0 -16.625,7.472 -16.625,16.625 0,9.156 7.395,16.699 16.625,16.699 9.227,0 16.625,-7.395 16.625,-16.625 0,-9.227 -7.469,-16.699 -16.625,-16.699 z m 9.227,25.929 c -0.133,0.137 -0.321,0.215 -0.512,0.219 H 45.922 L 33.984,41.75 H 33.91 c -0.187,-0.059 -0.348,-0.191 -0.437,-0.367 l -5.274,-10.84 c -0.312,-0.648 0.403,-1.313 1.024,-0.953 l 10.621,5.859 0.441,0.442 6.664,11.351 c 0.196,0.309 0.133,0.715 -0.148,0.953 z" style="fill:#ffffff;fill-opacity:1;fill-rule:nonzero;stroke:none" transform="scale(1.3333333)" /> <path id="I4098259ba9d0414189d080feac8b6aa420251105122542" d="m 30.543,32.008 3.809,7.762 3.808,-3.516 z" style="fill:#fdcd60;fill-opacity:1;fill-rule:nonzero;stroke:none" transform="scale(1.3333333)" /> <path id="I8b01856d79c84722bec7226d7ba118fe20251105122542" d="m 35.598,40.941 8.714,4.836 -4.906,-8.351 z" style="fill:#afbcf3;fill-opacity:1;fill-rule:nonzero;stroke:none" transform="scale(1.3333333)" /> <path id="I9afbcceee55d4dce94e8cd46303de23020251105122542" d="M 40.285,35.891 39.844,35.449 29.223,29.59 c -0.621,-0.36 -1.336,0.305 -1.024,0.953 l 5.274,10.766 c 0.089,0.175 0.25,0.308 0.437,0.367 h 0.074 l 11.938,6.59 h 0.367 c 0.574,0.019 0.945,-0.602 0.66,-1.098 z m -9.742,-3.883 7.691,4.246 -3.808,3.516 z m 5.055,8.933 3.879,-3.515 4.835,8.277 z" style="fill:#5546cb;fill-opacity:1;fill-rule:nonzero;stroke:none" transform="scale(1.3333333)" /> </g>
</svg>

