<?xml version="1.0" encoding="UTF-8" standalone="no"?> <svg version="1.1" id="I6b06d9d6770848f79b9e4e986ec0313620251106142136" width="100" height="100" viewBox="0 0 100 100" xmlns="http://www.w3.org/2000/svg" xmlns:svg="http://www.w3.org/2000/svg"> <defs id="Iafdc639831c741b7a2416dbd367987ac20251106142136" /> <g id="Ib1b2ce9f62d44b69a5e55052c21dee9f20251106142136"> <path id="I98143723c1b543c3b7853ef268e1783320251106142136" d="m 9.375,11.719 c 0,-3.883 3.148,-7.031 7.031,-7.031 h 27.539 c 4.207,0 7.617,3.41 7.617,7.617 v 18.164 h 6.446 c 4.207,0 7.617,3.41 7.617,7.617 v 29.883 c 0,1.293 -1.051,2.343 -2.344,2.343 H 53.906 V 59.766 c 0,-1.942 -1.574,-3.516 -3.515,-3.516 H 24.609 c -1.941,0 -3.515,1.574 -3.515,3.516 v 10.546 h -9.375 c -1.293,0 -2.344,-1.05 -2.344,-2.343 z m 39.844,49.219 v 9.374 h -9.375 v -9.374 z m -14.063,0 v 9.374 H 25.781 V 60.938 Z M 28.125,19.922 c 0,-1.942 -1.574,-3.516 -3.516,-3.516 -1.941,0 -3.515,1.574 -3.515,3.516 0,1.941 1.574,3.516 3.515,3.516 1.942,0 3.516,-1.575 3.516,-3.516 z m 0,11.719 c 0,-1.942 -1.574,-3.516 -3.516,-3.516 -1.941,0 -3.515,1.574 -3.515,3.516 0,1.941 1.574,3.515 3.515,3.515 1.942,0 3.516,-1.574 3.516,-3.515 z m -3.516,15.234 c 1.942,0 3.516,-1.574 3.516,-3.516 0,-1.941 -1.574,-3.515 -3.516,-3.515 -1.941,0 -3.515,1.574 -3.515,3.515 0,1.942 1.574,3.516 3.515,3.516 z M 39.844,19.922 c 0,-1.942 -1.574,-3.516 -3.516,-3.516 -1.941,0 -3.516,1.574 -3.516,3.516 0,1.941 1.575,3.516 3.516,3.516 1.942,0 3.516,-1.575 3.516,-3.516 z m -3.516,15.234 c 1.942,0 3.516,-1.574 3.516,-3.515 0,-1.942 -1.574,-3.516 -3.516,-3.516 -1.941,0 -3.516,1.574 -3.516,3.516 0,1.941 1.575,3.515 3.516,3.515 z m 3.516,8.203 c 0,-1.941 -1.574,-3.515 -3.516,-3.515 -1.941,0 -3.516,1.574 -3.516,3.515 0,1.942 1.575,3.516 3.516,3.516 1.942,0 3.516,-1.574 3.516,-3.516 z m 8.203,3.516 c 1.941,0 3.515,-1.574 3.515,-3.516 0,-1.941 -1.574,-3.515 -3.515,-3.515 -1.942,0 -3.516,1.574 -3.516,3.515 0,1.942 1.574,3.516 3.516,3.516 z" style="fill:currentColor;fill-opacity:1;fill-rule:nonzero;stroke:none" transform="scale(1.3333333)" /> </g>
</svg>

