<?xml version="1.0" encoding="UTF-8" standalone="no"?> <svg version="1.1" id="Iefa81b4ff4dd44c4b5e9325d35ed2a8b20251106154012" width="100" height="100" viewBox="0 0 100 100" xmlns="http://www.w3.org/2000/svg" xmlns:svg="http://www.w3.org/2000/svg"> <defs id="I8c79ce778e2144a9b896ac226950f74a20251106154012" /> <g id="I15fdd53c865e43f5b7936ca5979ed48220251106154012"> <path id="Ie0e79f1494d3495aa434b4b4883a1d4520251106154012" d="M 10.25,6.938 C 9.336,6.02 7.852,6.02 6.938,6.938 6.02,7.852 6.02,9.336 6.938,10.25 l 1.277,1.281 C 7,12.793 6.25,14.512 6.25,16.406 v 32.817 l 0.016,0.484 c 0.246,3.656 3.293,6.547 7.015,6.547 h 13.278 v 7.808 h -5.465 l -0.317,0.024 c -1.144,0.152 -2.027,1.133 -2.027,2.32 0,1.293 1.051,2.344 2.344,2.344 h 32.812 l 0.317,-0.02 c 1.144,-0.156 2.027,-1.136 2.027,-2.324 0,-1.293 -1.051,-2.344 -2.344,-2.344 h -5.472 v -7.808 h 4.507 L 64.75,68.062 c 0.914,0.918 2.398,0.918 3.312,0 0.915,-0.914 0.915,-2.398 0,-3.312 z m 58.496,42.285 c 0,2.597 -1.406,4.863 -3.5,6.082 L 19.316,9.375 h 42.399 c 3.723,0 6.769,2.891 7.015,6.547 l 0.016,0.484 z m -25.004,7.031 0.004,7.808 h -12.5 l -0.004,-7.808 z" style="fill:currentColor;fill-opacity:1;fill-rule:nonzero;stroke:none" transform="scale(1.3333333)" /> </g>
</svg>

