<?xml version="1.0" encoding="UTF-8" standalone="no"?> <svg version="1.1" id="I6b68ba1180b0440991b3aae9581b31a420251110130509" width="100" height="100" viewBox="0 0 100 100" xmlns="http://www.w3.org/2000/svg" xmlns:svg="http://www.w3.org/2000/svg"> <defs id="I39c4ef2c38c541b890240819aea1fcef20251110130509" /> <g id="I6f2e1b3874514ae4b4dfb6a3def07efd20251110130509"> <path id="Ia656f593a6a44ed8a4ba0573b0a59beb20251110130509" d="m 63.281,14.062 c 1.293,0 2.344,-1.05 2.344,-2.343 0,-1.293 -1.051,-2.344 -2.344,-2.344 H 11.719 c -1.293,0 -2.344,1.051 -2.344,2.344 0,1.293 1.051,2.343 2.344,2.343 z m 0,12.5 c 1.293,0 2.344,1.051 2.344,2.344 v 26.563 c 0,5.609 -4.547,10.156 -10.156,10.156 H 19.531 C 13.922,65.625 9.375,61.078 9.375,55.469 V 28.906 c 0,-1.293 1.051,-2.344 2.344,-2.344 z M 43.75,31.25 h -12.5 v 12.5 h 12.5 z m -17.188,0 h -12.5 v 12.5 h 12.5 z m 0,17.188 h -12.5 v 7.031 c 0,3.019 2.45,5.469 5.469,5.469 h 7.031 z m 17.188,0 h -12.5 v 12.5 h 12.5 z m 4.688,12.5 h 7.031 c 3.019,0 5.469,-2.45 5.469,-5.469 v -7.031 h -12.5 z m 12.5,-29.688 h -12.5 v 12.5 h 12.5 z" style="fill:currentColor;fill-opacity:1;fill-rule:nonzero;stroke:none" transform="scale(1.3333333)" /> </g>
</svg>

