<?xml version="1.0" encoding="UTF-8" standalone="no"?> <svg version="1.1" id="I826cba0dbb39439499884e22c0a2a3bd20251110135156" width="100" height="100" viewBox="0 0 100 100" xmlns="http://www.w3.org/2000/svg" xmlns:svg="http://www.w3.org/2000/svg"> <defs id="I31fbdc72925f4207b7e472da5120ebe220251110135156" /> <g id="I2ac651c53b9849988a3c217466a7181d20251110135156"> <path id="Id9d63818ba824b94a4724e2c8020916620251110135156" d="M 25,26.562 C 25,17.07 32.695,9.375 42.188,9.375 h 20.453 c 1.648,0 2.984,1.051 2.984,2.344 0,1.187 -1.121,2.168 -2.578,2.324 l -0.406,0.019 h -1.703 v 52.211 c 0,1.368 -1.051,2.477 -2.344,2.477 -1.293,0 -2.344,-1.109 -2.344,-2.477 V 14.062 h -4.688 v 52.211 c 0,1.368 -1.05,2.477 -2.343,2.477 -1.293,0 -2.344,-1.109 -2.344,-2.477 V 43.75 H 42.188 C 32.695,43.75 25,36.055 25,26.562 Z M 16.879,46.43 c 0.797,0.629 1.957,0.593 2.719,-0.125 0.84,-0.789 0.875,-2.11 0.086,-2.946 l -5.356,-5.859 5.356,-5.859 0.195,-0.239 c 0.582,-0.832 0.48,-1.988 -0.281,-2.707 -0.836,-0.793 -2.157,-0.754 -2.95,0.082 L 9.945,36.066 9.738,36.32 c -0.547,0.797 -0.476,1.887 0.207,2.614 l 6.703,7.289 z" style="fill:currentColor;fill-opacity:1;fill-rule:nonzero;stroke:none" transform="scale(1.3333333)" /> </g>
</svg>

