<?xml version="1.0" encoding="UTF-8" standalone="no"?> <svg version="1.1" id="I4bc2d27e9d1f4554b0733801e8152c4220251106123559" width="100" height="100" viewBox="0 0 100 100" xmlns="http://www.w3.org/2000/svg" xmlns:svg="http://www.w3.org/2000/svg"> <defs id="I92abd303f0f54e9eb7ea88ab36664d4b20251106123559" /> <g id="Id86afa9d6bef4143adc52a6d994998d120251106123559"> <path id="Iaaac966f5e2342aca8285d479cc2b0aa20251106123559" d="m 37.492,7.5 c 3.344,0 6.52,0.703 9.375,1.965 0.047,3.066 2.547,5.535 5.625,5.535 0.336,0 2.367,0 2.352,0 L 50.02,21.848 C 49.133,20.07 47.328,18.75 44.996,18.75 h -9.543 l -0.672,0.059 -0.168,0.031 c -2.625,0.476 -4.617,2.769 -4.617,5.535 0,2.309 1.391,4.293 3.379,5.16 l -2.168,2.602 -0.352,0.492 -0.074,0.129 c -2.168,3.637 0.364,8.492 4.84,8.492 h 9.543 l 0.672,-0.059 0.168,-0.031 c 2.625,-0.476 4.617,-2.769 4.617,-5.535 0,-0.859 -0.191,-1.672 -0.539,-2.402 0.715,0.336 1.527,0.527 2.41,0.527 H 60 l -0.004,9.031 3.578,9.699 0.094,0.317 0.059,0.328 0.019,0.328 c 0,1.184 -0.734,2.215 -1.957,2.652 l -0.426,0.125 -0.429,0.036 H 14.066 c -0.328,0 -0.66,-0.059 -0.968,-0.172 -1.078,-0.399 -1.786,-1.395 -1.813,-2.684 l 0.02,-0.441 0.125,-0.489 3.566,-9.687 0.004,-13.57 0.016,-0.84 C 15.477,16.691 25.391,7.5 37.492,7.5 Z m 9.196,52.508 C 45.816,64.281 42.035,67.5 37.5,67.5 c -4.531,0 -8.316,-3.219 -9.188,-7.492 z M 52.492,7.5 h 13.125 c 1.41,0 2.278,1.473 1.695,2.676 l -0.16,0.273 -11.058,15.801 h 9.523 c 1.035,0 1.875,0.84 1.875,1.875 0,0.922 -0.664,1.687 -1.539,1.844 L 65.617,30 H 52.492 c -1.41,0 -2.277,-1.473 -1.695,-2.676 l 0.16,-0.273 11.059,-15.801 h -9.524 c -1.035,0 -1.875,-0.84 -1.875,-1.875 0,-0.922 0.664,-1.687 1.539,-1.844 z m -16.871,15 h 9.375 c 1.484,0 2.34,1.613 1.621,2.824 l -0.179,0.25 -6.813,8.176 h 5.371 c 1.035,0 1.875,0.84 1.875,1.875 0,0.922 -0.664,1.687 -1.539,1.844 L 44.996,37.5 h -9.375 c -1.484,0 -2.34,-1.613 -1.617,-2.824 l 0.176,-0.25 6.812,-8.176 h -5.371 c -1.035,0 -1.875,-0.84 -1.875,-1.875 0,-0.922 0.664,-1.687 1.539,-1.844 z" style="fill:currentColor;fill-opacity:1;fill-rule:nonzero;stroke:none" transform="scale(1.3333333)" /> </g>
</svg>

