<?xml version="1.0" encoding="UTF-8" standalone="no"?> <svg version="1.1" id="I584ee4ff5d1443a1a6b435daa19cdd3a20251110130508" width="100" height="100" viewBox="0 0 100 100" xmlns="http://www.w3.org/2000/svg" xmlns:svg="http://www.w3.org/2000/svg"> <defs id="I4a5e62829b064a3bac0de1641110ed3420251110130508" /> <g id="If11e05bbf1504bcb891869f14f80330720251110130508"> <path id="I10395950a4e04159b3476a296b46005320251110130508" d="m 50.211,8.691 c 4.445,-4.445 11.652,-4.445 16.098,0 4.445,4.446 4.445,11.653 0,16.098 L 46.512,44.59 c -0.926,0.926 -2.082,1.586 -3.348,1.918 l -16.539,4.32 c -0.691,0.18 -1.426,-0.019 -1.93,-0.523 -0.504,-0.504 -0.703,-1.239 -0.523,-1.93 l 4.32,-16.539 c 0.332,-1.266 0.992,-2.422 1.918,-3.348 z M 37.5,12.055 c 1.73,0 3.422,0.172 5.055,0.5 L 45.871,9.242 C 43.219,8.457 40.406,8.035 37.5,8.035 21.227,8.035 8.035,21.227 8.035,37.5 c 0,16.273 13.192,29.465 29.465,29.465 16.273,0 29.465,-13.192 29.465,-29.465 0,-2.906 -0.422,-5.719 -1.207,-8.371 l -3.313,3.316 c 0.328,1.633 0.5,3.325 0.5,5.055 0,14.055 -11.39,25.445 -25.445,25.445 -14.055,0 -25.445,-11.39 -25.445,-25.445 0,-14.055 11.39,-25.445 25.445,-25.445 z" style="fill:currentColor;fill-opacity:1;fill-rule:nonzero;stroke:none" transform="scale(1.3333333)" /> </g>
</svg>

