<?xml version="1.0" encoding="UTF-8" standalone="no"?> <svg version="1.1" id="I76d446737c9b4106901666fa3f27d76320251110124420" width="100" height="100" viewBox="0 0 100 100" xmlns="http://www.w3.org/2000/svg" xmlns:svg="http://www.w3.org/2000/svg"> <defs id="Ia480b7f3c2db4efaad0971492c59c2a620251110124420" /> <g id="I698e14b739d44ecf9ef25d6735a49cc620251110124420"> <path id="I083eed19f8a54c9a84a339a8acb43af520251110124420" d="m 17.969,9.375 c -4.746,0 -8.594,3.848 -8.594,8.594 v 39.062 c 0,4.746 3.848,8.594 8.594,8.594 h 13.277 c -0.023,-0.602 0.039,-1.223 0.195,-1.852 l 0.711,-2.835 H 23.438 V 44.531 c 0,-1.293 1.05,-2.343 2.343,-2.343 h 20.633 l 4.488,-4.485 C 50.363,37.57 49.797,37.5 49.219,37.5 H 25.781 c -3.883,0 -7.031,3.148 -7.031,7.031 v 16.407 h -0.781 c -2.157,0 -3.907,-1.75 -3.907,-3.907 V 17.969 c 0,-2.157 1.75,-3.907 3.907,-3.907 h 3.906 v 8.594 c 0,3.883 3.148,7.032 7.031,7.032 h 14.063 c 3.883,0 7.031,-3.149 7.031,-7.032 v -8.519 c 1.121,0.183 2.16,0.715 2.977,1.527 l 6.359,6.359 c 1.023,1.028 1.602,2.418 1.602,3.868 v 5.382 c 0.222,-0.015 0.445,-0.023 0.664,-0.023 h 0.007 c 1.368,0 2.735,0.273 4.016,0.816 v -6.175 c 0,-2.692 -1.07,-5.274 -2.977,-7.18 L 56.289,12.352 C 54.383,10.445 51.801,9.375 49.109,9.375 Z m 8.593,13.281 v -8.594 h 18.75 v 8.594 c 0,1.293 -1.05,2.344 -2.343,2.344 H 28.906 c -1.293,0 -2.344,-1.051 -2.344,-2.344 z m 35.047,11.719 h -0.007 c -1.825,0 -3.653,0.699 -5.047,2.094 L 38.109,54.914 c -1.074,1.074 -1.836,2.422 -2.207,3.898 l -1.429,5.719 c -0.621,2.489 1.632,4.742 4.121,4.121 l 5.718,-1.433 c 1.477,-0.367 2.825,-1.129 3.899,-2.207 L 66.656,46.57 c 2.789,-2.793 2.789,-7.312 0,-10.101 -1.394,-1.395 -3.218,-2.094 -5.047,-2.094 z" style="fill:currentColor;fill-opacity:1;fill-rule:nonzero;stroke:none" transform="scale(1.3333333)" /> </g>
</svg>

