<?xml version="1.0" encoding="UTF-8" standalone="no"?> <svg version="1.1" id="Id678a0a9d2ae4ed7991b9dbe0da550ff20251106144520" width="100" height="100" viewBox="0 0 100 100" xmlns="http://www.w3.org/2000/svg" xmlns:svg="http://www.w3.org/2000/svg"> <defs id="I1e05a8a8d816472883816e11f6b132de20251106144520" /> <g id="Ic18e352b2cd24afcb4517583db9eaa7820251106144520"> <path id="Ic7550cb7e2f34681aa5ed1f13e4e80c920251106144520" d="m 22.5,22.5 c 0,-1.035 0.84,-1.875 1.875,-1.875 h 11.25 c 1.035,0 1.875,0.84 1.875,1.875 0,1.035 -0.84,1.875 -1.875,1.875 H 24.375 C 23.34,24.375 22.5,23.535 22.5,22.5 Z m 1.875,5.625 c -1.035,0 -1.875,0.84 -1.875,1.875 0,1.035 0.84,1.875 1.875,1.875 h 7.5 c 1.035,0 1.875,-0.84 1.875,-1.875 0,-1.035 -0.84,-1.875 -1.875,-1.875 z M 30,3.75 c -12.426,0 -22.5,10.074 -22.5,22.5 0,3.898 0.992,7.57 2.742,10.77 L 7.57,46.359 c -0.187,0.668 0.004,1.391 0.508,1.871 0.504,0.481 1.231,0.645 1.891,0.422 l 8.765,-2.922 c 3.317,1.922 7.164,3.02 11.266,3.02 12.426,0 22.5,-10.074 22.5,-22.5 C 52.5,13.824 42.426,3.75 30,3.75 Z M 11.25,26.25 C 11.25,15.895 19.645,7.5 30,7.5 40.355,7.5 48.75,15.895 48.75,26.25 48.75,36.605 40.355,45 30,45 26.309,45 22.871,43.934 19.969,42.094 19.492,41.793 18.906,41.723 18.371,41.898 l -6.215,2.075 1.906,-6.68 c 0.141,-0.496 0.075,-1.031 -0.191,-1.473 -1.664,-2.8 -2.621,-6.07 -2.621,-9.57 z m 34.785,29.801 -9.008,-4.504 c 1.653,-0.457 3.235,-1.07 4.739,-1.824 L 46.875,52.277 63.75,43.84 V 41.25 C 63.75,39.18 62.07,37.5 60,37.5 h -6.277 c 0.574,-1.203 1.054,-2.457 1.441,-3.75 H 60 c 4.141,0 7.5,3.359 7.5,7.5 V 60 c 0,4.141 -3.359,7.5 -7.5,7.5 H 33.75 c -4.141,0 -7.5,-3.359 -7.5,-7.5 V 52.234 C 27.477,52.41 28.727,52.5 30,52.5 V 60 c 0,2.07 1.68,3.75 3.75,3.75 H 60 c 2.07,0 3.75,-1.68 3.75,-3.75 V 48.035 l -16.035,8.016 c -0.531,0.265 -1.153,0.265 -1.68,0 z" style="fill:currentColor;fill-opacity:1;fill-rule:nonzero;stroke:none" transform="scale(1.3333333)" /> </g>
</svg>

