<?xml version="1.0" encoding="UTF-8" standalone="no"?> <svg version="1.1" id="Idd84935e3e4642f8879cf91d380fee3920251110135155" width="100" height="100" viewBox="0 0 100 100" xmlns="http://www.w3.org/2000/svg" xmlns:svg="http://www.w3.org/2000/svg"> <defs id="I4481f1029c044ee981c02eecfad8cb5f20251110135155" /> <g id="I9c9318ac262849dcbfae35968acbacc020251110135155"> <path id="Ife8cfac732fd4b1695e367190da1064120251110135155" d="M 47.152,20.039 C 46.926,19.746 46.68,19.469 46.418,19.207 45.441,18.227 44.25,17.488 42.941,17.051 L 38.637,15.656 C 38.305,15.539 38.016,15.32 37.812,15.035 37.609,14.746 37.5,14.402 37.5,14.051 c 0,-0.352 0.109,-0.696 0.312,-0.981 0.204,-0.289 0.493,-0.504 0.825,-0.621 l 4.304,-1.398 c 1.293,-0.446 2.465,-1.184 3.426,-2.16 0.934,-0.946 1.641,-2.09 2.071,-3.348 L 48.473,5.438 49.871,1.133 C 49.988,0.801 50.207,0.516 50.492,0.312 50.781,0.109 51.125,0 51.477,0 c 0.351,0 0.695,0.109 0.98,0.312 0.289,0.204 0.508,0.489 0.625,0.821 l 1.398,4.305 c 0.434,1.308 1.168,2.496 2.145,3.468 0.977,0.977 2.164,1.711 3.473,2.145 l 4.304,1.398 0.086,0.02 c 0.332,0.117 0.621,0.336 0.824,0.621 0.204,0.289 0.313,0.633 0.313,0.984 0,0.352 -0.109,0.696 -0.313,0.981 -0.203,0.289 -0.492,0.504 -0.824,0.621 l -4.304,1.398 c -1.309,0.434 -2.496,1.168 -3.473,2.145 -0.977,0.972 -1.711,2.16 -2.145,3.469 l -1.398,4.304 c -0.016,0.035 -0.027,0.07 -0.043,0.106 -0.125,0.285 -0.324,0.535 -0.578,0.714 -0.289,0.204 -0.633,0.313 -0.985,0.313 -0.351,0 -0.695,-0.109 -0.984,-0.313 -0.285,-0.203 -0.504,-0.488 -0.621,-0.82 L 48.559,22.688 C 48.242,21.73 47.766,20.832 47.152,20.039 Z m 24.043,11.879 -2.39,-0.777 C 68.078,30.898 67.418,30.488 66.875,29.949 66.332,29.406 65.926,28.746 65.684,28.02 L 64.906,25.629 C 64.84,25.445 64.719,25.285 64.559,25.172 64.402,25.062 64.211,25 64.016,25 c -0.196,0 -0.387,0.062 -0.547,0.172 -0.16,0.113 -0.281,0.273 -0.344,0.457 l -0.777,2.391 c -0.239,0.722 -0.641,1.378 -1.172,1.921 -0.535,0.539 -1.184,0.95 -1.903,1.2 l -2.394,0.777 c -0.184,0.062 -0.344,0.184 -0.457,0.344 -0.11,0.16 -0.172,0.347 -0.172,0.543 0,0.195 0.062,0.386 0.172,0.547 0.113,0.16 0.273,0.281 0.457,0.343 l 2.394,0.778 c 0.727,0.242 1.391,0.652 1.93,1.195 0.543,0.547 0.949,1.207 1.192,1.937 l 0.777,2.391 c 0.066,0.184 0.183,0.344 0.344,0.457 0.16,0.109 0.351,0.172 0.546,0.172 0.196,0 0.387,-0.063 0.547,-0.172 0.161,-0.113 0.278,-0.273 0.344,-0.457 l 0.777,-2.391 c 0.243,-0.726 0.649,-1.386 1.192,-1.929 0.543,-0.539 1.203,-0.949 1.93,-1.192 l 2.394,-0.777 c 0.184,-0.062 0.344,-0.184 0.457,-0.344 0.109,-0.16 0.172,-0.347 0.172,-0.543 0,-0.195 -0.063,-0.386 -0.172,-0.547 C 71.59,32.113 71.43,31.992 71.246,31.93 Z M 37.648,9.375 H 19.531 c -5.609,0 -10.156,4.547 -10.156,10.156 v 35.938 c 0,5.609 4.547,10.156 10.156,10.156 h 35.938 c 5.609,0 10.156,-4.547 10.156,-10.156 V 43.535 c -0.527,0.242 -1.102,0.371 -1.687,0.371 -0.84,0 -1.661,-0.265 -2.344,-0.754 -0.707,-0.504 -1.242,-1.211 -1.532,-2.031 l -0.75,-2.375 C 59.223,38.477 59.074,38.23 58.875,38.027 58.672,37.844 58.441,37.695 58.188,37.59 L 55.719,36.809 C 54.922,36.523 54.234,36 53.75,35.309 c -0.492,-0.68 -0.758,-1.5 -0.75,-2.344 -0.004,-0.727 0.191,-1.438 0.562,-2.063 -0.656,0.34 -1.386,0.512 -2.124,0.5 C 50.441,31.398 49.473,31.094 48.656,30.527 47.828,29.93 47.207,29.09 46.875,28.125 H 35.156 c -1.293,0 -2.344,-1.051 -2.344,-2.344 0,-1.293 1.051,-2.343 2.344,-2.343 h 10.383 c -0.203,-0.563 -0.492,-1.09 -0.851,-1.567 l -0.563,-0.312 c -0.641,-0.618 -1.406,-1.09 -2.25,-1.375 L 37.5,18.746 c -0.945,-0.406 -1.734,-1.109 -2.25,-2 -0.566,-0.816 -0.871,-1.785 -0.875,-2.781 0.004,-1.004 0.309,-1.985 0.875,-2.813 0.605,-0.816 1.441,-1.433 2.398,-1.777 z M 27.344,25.781 c 0,1.727 -1.399,3.125 -3.125,3.125 -1.727,0 -3.125,-1.398 -3.125,-3.125 0,-1.726 1.398,-3.125 3.125,-3.125 1.726,0 3.125,1.399 3.125,3.125 z M 32.812,37.5 c 0,-1.293 1.051,-2.344 2.344,-2.344 h 17.188 c 1.293,0 2.344,1.051 2.344,2.344 0,1.293 -1.051,2.344 -2.344,2.344 H 35.156 c -1.293,0 -2.344,-1.051 -2.344,-2.344 z m 2.344,14.062 c -1.293,0 -2.344,-1.05 -2.344,-2.343 0,-1.293 1.051,-2.344 2.344,-2.344 h 17.188 c 1.293,0 2.344,1.051 2.344,2.344 0,1.293 -1.051,2.343 -2.344,2.343 z M 24.219,34.375 c 1.726,0 3.125,1.398 3.125,3.125 0,1.727 -1.399,3.125 -3.125,3.125 -1.727,0 -3.125,-1.398 -3.125,-3.125 0,-1.727 1.398,-3.125 3.125,-3.125 z m 3.125,14.844 c 0,1.726 -1.399,3.125 -3.125,3.125 -1.727,0 -3.125,-1.399 -3.125,-3.125 0,-1.727 1.398,-3.125 3.125,-3.125 1.726,0 3.125,1.398 3.125,3.125 z" style="fill:currentColor;fill-opacity:1;fill-rule:nonzero;stroke:none" transform="scale(1.3333333)" /> </g>
</svg>

