<?xml version="1.0" encoding="UTF-8" standalone="no"?> <svg version="1.1" id="Id1a43e012d644649885b465a00b3b37c20251110123031" width="100" height="100" viewBox="0 0 100 100" xmlns="http://www.w3.org/2000/svg" xmlns:svg="http://www.w3.org/2000/svg"> <defs id="Ia0e9e0f5372c4843801b0d08c62278bd20251110123031" /> <g id="I9269253c513a44a183e882d55184191d20251110123031"> <path id="Ib68d26cb06204c4ca7780fd24a3f4e4520251110123031" d="m 29.688,6.25 c 10.574,0 19.515,7.004 22.433,16.629 C 61.746,25.797 68.75,34.738 68.75,45.312 68.75,58.258 58.258,68.75 45.312,68.75 34.738,68.75 25.797,61.746 22.879,52.121 13.254,49.203 6.25,40.262 6.25,29.688 6.25,16.742 16.742,6.25 29.688,6.25 Z m 23.394,21.992 0.031,0.688 0.012,0.758 c 0,12.945 -10.492,23.437 -23.437,23.437 -0.485,0 -0.965,-0.016 -1.442,-0.043 2.949,6.477 9.481,10.98 17.066,10.98 10.356,0 18.75,-8.394 18.75,-18.75 0,-7.585 -4.503,-14.117 -10.98,-17.07 z M 29.688,10.938 c -10.356,0 -18.75,8.394 -18.75,18.75 0,7.585 4.503,14.117 10.98,17.07 L 21.887,46.07 21.875,45.312 c 0,-12.945 10.492,-23.437 23.437,-23.437 0.485,0 0.965,0.016 1.442,0.043 -2.949,-6.477 -9.481,-10.98 -17.066,-10.98 z" style="fill:currentColor;fill-opacity:1;fill-rule:nonzero;stroke:none" transform="scale(1.3333333)" /> </g>
</svg>

