<?xml version="1.0" encoding="UTF-8" standalone="no"?> <svg version="1.1" id="I1bf5eee0a1094e56964705f41bed162620251110133655" width="100" height="100" viewBox="0 0 100 100" xmlns="http://www.w3.org/2000/svg" xmlns:svg="http://www.w3.org/2000/svg"> <defs id="I7292b1cf5bd2423dbd8d5b34face01e520251110133655" /> <g id="I7cb8bf9560464c35940178cf4dfbd02b20251110133655"> <path id="I1d70f14dad0544318d45424a571784e320251110133655" d="m 61.703,12.5 c 3.883,0 7.031,3.148 7.031,7.031 V 40.016 C 67.348,38.688 65.77,37.551 64.047,36.656 V 19.531 c 0,-1.293 -1.047,-2.343 -2.344,-2.343 H 13.281 c -1.293,0 -2.343,1.05 -2.343,2.343 v 35.953 c 0,1.293 1.05,2.344 2.343,2.344 l 8.59,-0.004 0.004,-8.605 c 0,-2.871 2.211,-5.223 5.02,-5.449 l 0.449,-0.02 h 10.222 c -2.019,3.156 -3.191,6.91 -3.191,10.938 0,2.773 0.555,5.417 1.563,7.828 H 13.281 C 9.398,62.516 6.25,59.367 6.25,55.484 V 19.531 C 6.25,15.648 9.398,12.5 13.281,12.5 Z M 37.5,21.875 c 5.18,0 9.375,4.199 9.375,9.375 0,5.18 -4.195,9.375 -9.375,9.375 -5.18,0 -9.375,-4.195 -9.375,-9.375 0,-5.176 4.195,-9.375 9.375,-9.375 z m 34.375,32.813 c 0,9.492 -7.695,17.187 -17.187,17.187 C 45.195,71.875 37.5,64.18 37.5,54.688 37.5,45.195 45.195,37.5 54.688,37.5 c 9.492,0 17.187,7.695 17.187,17.188 z M 56.422,45.062 c -0.547,-1.75 -2.922,-1.75 -3.469,0 l -1.742,5.586 h -5.633 c -1.766,0 -2.504,2.36 -1.074,3.442 l 4.558,3.453 -1.742,5.582 c -0.543,1.754 1.379,3.211 2.809,2.129 l 4.559,-3.453 4.558,3.453 c 1.43,1.082 3.352,-0.375 2.809,-2.129 l -1.743,-5.582 4.559,-3.453 c 1.43,-1.082 0.691,-3.442 -1.074,-3.442 h -5.633 z" style="fill:currentColor;fill-opacity:1;fill-rule:nonzero;stroke:none" transform="scale(1.3333333)" /> </g>
</svg>

