<?xml version="1.0" encoding="UTF-8" standalone="no"?> <svg version="1.1" id="I4efd74895fa1472daa94f235367fb48920251106164749" width="100" height="100" viewBox="0 0 100 100" xmlns="http://www.w3.org/2000/svg" xmlns:svg="http://www.w3.org/2000/svg"> <defs id="Id6264ae2eb4a444087863d57f05e0f5b20251106164749" /> <g id="I045e46fb3fdf498985f6b91120b01e6b20251106164749"> <path id="I8a15e768bd7b4bc38ce85e91db701d4820251106164749" d="m 27.832,51.566 h 6.781 c -0.156,1.016 -0.238,2.059 -0.238,3.122 0,5.164 1.93,9.882 5.105,13.464 -0.652,0.391 -1.316,0.594 -1.976,0.594 -3.738,0 -7.5,-6.543 -9.492,-16.262 z M 27.109,46.879 H 35.93 C 38.199,41.438 42.766,37.191 48.418,35.359 48.383,33.961 48.312,32.59 48.207,31.25 H 26.805 l -0.106,1.527 c -0.09,1.539 -0.137,3.118 -0.137,4.723 0,3.273 0.196,6.422 0.547,9.379 z M 54.688,34.375 c 5.414,0 10.335,2.121 13.976,5.574 0.063,-0.808 0.094,-1.625 0.094,-2.449 0,-2.141 -0.215,-4.23 -0.625,-6.25 l -15.219,0.004 0.121,2.047 c 0.02,0.379 0.035,0.758 0.047,1.137 0.531,-0.043 1.066,-0.063 1.606,-0.063 z M 9.586,51.566 H 23.039 C 24.18,58.07 26.113,63.609 28.641,67.48 20.633,65.117 13.965,59.633 10.043,52.438 Z M 6.875,31.25 22.094,31.254 c -0.145,2.031 -0.219,4.117 -0.219,6.246 0,2.594 0.109,5.125 0.324,7.566 l 0.176,1.813 H 7.68 C 6.75,43.918 6.25,40.77 6.25,37.5 c 0,-2.141 0.215,-4.23 0.625,-6.25 z M 46.707,8.055 46.367,7.52 c 9.434,2.785 17.008,9.902 20.426,19.042 H 52.445 C 51.461,19.012 49.457,12.523 46.707,8.055 Z M 28.262,7.637 28.641,7.523 c -2.754,4.215 -4.797,10.403 -5.883,17.665 l -0.196,1.374 H 8.219 C 11.586,17.543 19.004,10.496 28.262,7.637 Z m 9.242,-1.379 c 4.121,0 8.269,7.941 10.043,19.32 l 0.148,0.984 H 27.316 C 29,14.66 33.266,6.258 37.504,6.258 Z m 34.371,48.43 c 0,9.492 -7.695,17.187 -17.187,17.187 C 45.195,71.875 37.5,64.18 37.5,54.688 37.5,45.195 45.195,37.5 54.688,37.5 c 9.492,0 17.187,7.695 17.187,17.188 z m -29.687,0 c 0,2.605 0.796,5.023 2.16,7.027 L 61.715,44.348 c -2.004,-1.364 -4.422,-2.16 -7.027,-2.16 -6.903,0 -12.5,5.597 -12.5,12.5 z m 12.5,12.5 c 6.902,0 12.5,-5.598 12.5,-12.5 0,-2.606 -0.797,-5.024 -2.161,-7.028 L 47.66,65.027 c 2.004,1.364 4.422,2.161 7.028,2.161 z" style="fill:currentColor;fill-opacity:1;fill-rule:nonzero;stroke:none" transform="scale(1.3333333)" /> </g>
</svg>

