<?xml version="1.0" encoding="UTF-8" standalone="no"?> <svg version="1.1" id="I3bc9f3079cd546f4ab3894853d6f818520251106163937" width="100" height="100" viewBox="0 0 100 100" xmlns="http://www.w3.org/2000/svg" xmlns:svg="http://www.w3.org/2000/svg"> <defs id="I1eb3d678b9db48adac9027f24966e94620251106163937" /> <g id="I94a892ac505b41519c7f710c1ce61ddc20251106163937"> <path id="Iea7ec531801d47d29f6a228d31ed03be20251106163937" d="m 39.535,8.242 c 2.77,-2.742 7.242,-2.711 9.969,0.074 l 15.344,15.653 c 2.691,2.742 2.679,7.136 -0.024,9.867 l -2.148,2.168 c -2.449,-1.051 -5.153,-1.629 -7.988,-1.629 -10.774,0 -19.586,8.383 -20.27,18.98 l -16.801,-16.8 -4.777,4.734 c -0.93,0.918 -0.926,2.422 0.008,3.336 l 15.933,15.648 c 0.922,0.907 2.399,0.895 3.309,-0.023 l 2.508,-2.535 c 0.269,1.805 0.781,3.535 1.492,5.156 l -0.668,0.676 c -2.727,2.754 -7.164,2.785 -9.926,0.07 L 9.562,47.969 C 6.766,45.223 6.754,40.719 9.539,37.957 Z M 54.688,37.5 c 1.957,0 3.839,0.324 5.589,0.93 6.75,2.32 11.598,8.722 11.598,16.258 0,9.492 -7.695,17.187 -17.187,17.187 -7.473,0 -13.833,-4.77 -16.2,-11.43 C 37.848,58.645 37.5,56.707 37.5,54.688 37.5,45.195 45.195,37.5 54.688,37.5 Z" style="fill:currentColor;fill-opacity:1;fill-rule:nonzero;stroke:none" transform="scale(1.3333333)" /> </g>
</svg>

