<?xml version="1.0" encoding="UTF-8" standalone="no"?> <svg version="1.1" id="Ia54439ef0d224c9597c3c1cb79f6a8de20251106144520" width="100" height="100" viewBox="0 0 100 100" xmlns="http://www.w3.org/2000/svg" xmlns:svg="http://www.w3.org/2000/svg"> <defs id="Ibb3d0d54bb504488b255248d2f80c70e20251106144520" /> <g id="I63fd79aa48204242864fb4af418851d120251106144520"> <path id="I231b580683e54317ac0742d01647ea3720251106144520" d="M 68.75,37.5 C 68.75,20.242 54.758,6.25 37.5,6.25 20.242,6.25 6.25,20.242 6.25,37.5 c 0,5.133 1.242,10.094 3.578,14.531 L 6.34,65.434 c -0.113,0.437 -0.113,0.898 0,1.339 0.371,1.418 1.82,2.27 3.238,1.899 l 13.41,-3.488 c 4.434,2.328 9.387,3.566 14.512,3.566 1.098,0 2.18,-0.055 3.25,-0.168 -0.082,-0.453 -0.125,-0.918 -0.125,-1.394 V 51.562 c 0,-3.781 2.684,-6.933 6.25,-7.656 V 43.75 c 0,-6.039 4.898,-10.938 10.937,-10.938 5.247,0 9.629,3.696 10.692,8.622 0.164,-1.289 0.246,-2.602 0.246,-3.934 z M 50,46.875 h -1.562 c -2.59,0 -4.688,2.098 -4.688,4.687 v 15.626 c 0,2.589 2.098,4.687 4.688,4.687 h 18.75 c 2.589,0 4.687,-2.098 4.687,-4.687 V 51.562 c 0,-2.589 -2.098,-4.687 -4.687,-4.687 H 65.625 V 43.75 c 0,-4.316 -3.496,-7.812 -7.813,-7.812 -4.316,0 -7.812,3.496 -7.812,7.812 z m 4.688,-3.125 c 0,-1.727 1.398,-3.125 3.124,-3.125 1.727,0 3.126,1.398 3.126,3.125 v 3.125 h -6.25 z m 6.25,15.625 c 0,1.727 -1.399,3.125 -3.126,3.125 -1.726,0 -3.124,-1.398 -3.124,-3.125 0,-1.727 1.398,-3.125 3.124,-3.125 1.727,0 3.126,1.398 3.126,3.125 z" style="fill:currentColor;fill-opacity:1;fill-rule:nonzero;stroke:none" transform="scale(1.3333333)" /> </g>
</svg>

