<?xml version="1.0" encoding="UTF-8" standalone="no"?> <svg version="1.1" id="I18b93e9d415345168be30ad814193a6920251106171633" width="100" height="100" viewBox="0 0 100 100" xmlns="http://www.w3.org/2000/svg" xmlns:svg="http://www.w3.org/2000/svg"> <defs id="I9c88988a1add4507b6452e121240a00a20251106171633" /> <g id="I78ed3acddb9a46c5ae33e0b50bb7326a20251106171633"> <path id="I9aff36ecb4c34b798df881a42c6894d220251106171633" d="m 48.902,6.27 0.317,-0.02 c 1.187,0 2.168,0.883 2.324,2.027 l 0.019,0.317 v 57.812 c 0,1.297 -1.05,2.344 -2.343,2.344 -1.188,0 -2.168,-0.883 -2.324,-2.023 l -0.02,-0.321 V 62.488 H 28.906 c -3.883,0 -7.031,-3.148 -7.031,-7.031 V 19.531 c 0,-3.883 3.148,-7.031 7.031,-7.031 L 46.875,12.496 V 8.594 c 0,-1.188 0.883,-2.168 2.027,-2.324 L 49.219,6.25 Z M 46.875,17.188 H 28.906 c -1.293,0 -2.344,1.05 -2.344,2.343 v 35.926 c 0,1.293 1.051,2.344 2.344,2.344 h 17.969 z" style="fill:currentColor;fill-opacity:1;fill-rule:nonzero;stroke:none" transform="scale(1.3333333)" /> </g>
</svg>

