<?xml version="1.0" encoding="UTF-8" standalone="no"?> <svg version="1.1" id="Iee66aac0407742b8b9d18b03ecf15d7c20251105191527" width="100" height="100" viewBox="0 0 100 100" xmlns="http://www.w3.org/2000/svg" xmlns:svg="http://www.w3.org/2000/svg"> <defs id="Ic2ddba0f28c3405aa03a87af89d659b720251105191527" /> <g id="Ibafb1125e7864127aa8ee7d2e780186120251105191527"> <path id="I63b0f2929a6740a6a72843a5f5e65b5920251105191527" d="m 10.797,61.273 c 0,1.481 1.199,2.676 2.68,2.676 h 48.046 c 1.481,0 2.68,-1.195 2.68,-2.676 V 41.77 C 64.203,27.02 52.25,15.066 37.5,15.066 22.75,15.066 10.797,27.02 10.797,41.77 Z M 16.824,41.77 c 0,-11.418 9.258,-20.676 20.676,-20.676 11.418,0 20.676,9.258 20.676,20.676 V 57.926 H 28.461 V 43.609 c 0,-0.461 -0.379,-0.836 -0.84,-0.836 h -3.68 c -0.461,0 -0.839,0.375 -0.839,0.836 V 57.926 H 16.824 Z M 12.797,20.633 16.113,17.32 c 0.258,-0.261 0.258,-0.687 0,-0.949 L 10.43,10.688 c -0.262,-0.258 -0.684,-0.258 -0.946,0 l -3.316,3.316 c -0.258,0.262 -0.258,0.684 0,0.945 l 5.684,5.684 c 0.261,0.262 0.679,0.262 0.945,0 z m 56.051,-6.629 -3.317,-3.316 c -0.261,-0.258 -0.683,-0.258 -0.945,0 l -5.684,5.683 c -0.257,0.262 -0.257,0.688 0,0.949 l 3.317,3.313 c 0.258,0.262 0.687,0.262 0.945,0 l 5.684,-5.684 c 0.257,-0.265 0.257,-0.687 0,-0.945 z m -4.563,55.305 h -53.57 c -1.481,0 -2.68,1.195 -2.68,2.679 v 2.008 c 0,0.367 0.301,0.668 0.672,0.668 h 57.586 c 0.371,0 0.672,-0.301 0.672,-0.668 v -2.008 c 0,-1.484 -1.199,-2.679 -2.68,-2.679 z M 35.156,9.711 h 4.688 c 0.367,0 0.668,-0.301 0.668,-0.672 V 1.004 c 0,-0.367 -0.301,-0.668 -0.668,-0.668 h -4.688 c -0.367,0 -0.668,0.301 -0.668,0.668 v 8.035 c 0,0.371 0.301,0.672 0.668,0.672 z" style="fill:currentColor;fill-opacity:1;fill-rule:nonzero;stroke:none" transform="scale(1.3333333)" /> </g>
</svg>

