<?xml version="1.0" encoding="UTF-8" standalone="no"?> <svg version="1.1" id="I678da6f27507415d82fa7bf027fc8c3920251106161453" width="100" height="100" viewBox="0 0 100 100" xmlns="http://www.w3.org/2000/svg" xmlns:svg="http://www.w3.org/2000/svg"> <defs id="I19c9b9177f22427ca3bc338258f0b2f720251106161453" /> <g id="I4dbd45a9303449a9a0155728d05d8b9020251106161453"> <path id="I46fbf3c0b27642679613eec1c9c7a13320251106161453" d="M 37.5,24.375 V 7.5 H 20.625 C 17.52,7.5 15,10.02 15,13.125 v 32.043 l 0.945,-1.414 c 1.723,-2.586 5.215,-3.285 7.801,-1.563 0.223,0.149 0.434,0.313 0.629,0.489 0.684,-0.61 1.52,-1.059 2.457,-1.282 2.539,-0.601 5.16,0.625 6.324,2.957 l 4.344,8.688 4.344,-8.688 c 1.168,-2.332 3.785,-3.558 6.324,-2.957 0.937,0.223 1.777,0.672 2.457,1.282 0.996,-0.891 2.313,-1.434 3.75,-1.434 3.07,0 5.563,2.457 5.625,5.508 L 60,30 H 43.125 C 40.02,30 37.5,27.48 37.5,24.375 Z m 3.75,0 V 8.438 L 59.062,26.25 H 43.125 c -1.035,0 -1.875,-0.84 -1.875,-1.875 z M 13.125,67.5 C 14.16,67.5 15,66.66 15,65.625 v -6.934 l 7.184,-10.777 c 0.574,-0.863 0.343,-2.027 -0.52,-2.602 -0.859,-0.574 -2.023,-0.339 -2.598,0.52 L 13.125,54.746 7.184,45.832 C 6.609,44.973 5.445,44.738 4.586,45.312 3.723,45.887 3.492,47.051 4.066,47.914 l 7.184,10.777 v 6.934 c 0,1.035 0.84,1.875 1.875,1.875 z M 29.801,46.035 c -0.387,-0.777 -1.262,-1.187 -2.106,-0.988 -0.847,0.203 -1.445,0.957 -1.445,1.828 v 18.75 c 0,1.035 0.84,1.875 1.875,1.875 C 29.16,67.5 30,66.66 30,65.625 V 54.816 l 5.824,11.645 c 0.317,0.637 0.965,1.039 1.676,1.039 0.711,0 1.359,-0.402 1.676,-1.039 L 45,54.816 v 10.809 c 0,1.035 0.84,1.875 1.875,1.875 1.035,0 1.875,-0.84 1.875,-1.875 v -18.75 c 0,-0.871 -0.598,-1.625 -1.445,-1.828 -0.844,-0.199 -1.719,0.211 -2.106,0.988 L 37.5,61.43 Z m 26.449,0.84 C 56.25,45.84 55.41,45 54.375,45 53.34,45 52.5,45.84 52.5,46.875 v 18.75 c 0,1.035 0.84,1.875 1.875,1.875 h 11.25 c 1.035,0 1.875,-0.84 1.875,-1.875 0,-1.035 -0.84,-1.875 -1.875,-1.875 H 56.25 Z" style="fill:currentColor;fill-opacity:1;fill-rule:nonzero;stroke:none" transform="scale(1.3333333)" /> </g>
</svg>

