<?xml version="1.0" encoding="UTF-8" standalone="no"?> <svg version="1.1" id="I2b6034b655ce4eaea9f62ed4ff73d37c20251106103256" width="100" height="100" viewBox="0 0 100 100" xmlns="http://www.w3.org/2000/svg" xmlns:svg="http://www.w3.org/2000/svg"> <defs id="I86dcf81bde2148ed998916e6f659cb7520251106103256" /> <g id="I00ff078ba55d4d0ead1626e861dc1b1620251106103256"> <path id="Ib6f67254ce424362841c410e96a1df7f20251106103256" d="M 63.684,45.973 C 62.344,41.668 60.805,38.051 58.434,32.133 58.805,16.59 52.34,4.02 37.457,4.02 22.406,4.02 16.09,16.84 16.488,32.133 c -2.375,5.929 -3.906,9.519 -5.246,13.84 -2.847,9.164 -1.926,12.957 -1.222,13.039 1.507,0.183 5.867,-6.899 5.867,-6.899 0,4.102 2.109,9.453 6.679,13.313 -2.211,0.676 -7.171,2.5 -5.992,4.5 0.953,1.617 16.422,1.031 20.883,0.527 4.461,0.504 19.93,1.09 20.887,-0.527 1.179,-1.992 -3.793,-3.824 -5.996,-4.5 4.57,-3.867 6.679,-9.219 6.679,-13.313 0,0 4.364,7.082 5.871,6.899 0.711,-0.09 1.629,-3.883 -1.214,-13.039 z" style="fill:currentColor;fill-opacity:1;fill-rule:nonzero;stroke:none" transform="scale(1.3333333)" /> </g>
</svg>

