<?xml version="1.0" encoding="UTF-8" standalone="no"?> <svg version="1.1" id="Ifb5c5c91f06c4600b258ede4ac4c1c8c20251106154012" width="100" height="100" viewBox="0 0 100 100" xmlns="http://www.w3.org/2000/svg" xmlns:svg="http://www.w3.org/2000/svg"> <defs id="Ic8516fe2d96b474799d1a34e3f7d7ea420251106154012" /> <g id="Ib97bb3a61071447e80fab5d2434115fe20251106154012"> <path id="I190d2306510f467fb9f3040a4eb642e320251106154012" d="M 12.309,15.625 6.938,10.25 C 6.02,9.336 6.02,7.852 6.938,6.938 7.852,6.02 9.336,6.02 10.25,6.938 L 68.062,64.75 c 0.915,0.914 0.915,2.398 0,3.312 -0.914,0.918 -2.398,0.918 -3.312,0 L 57.902,61.219 C 56.207,65.656 51.914,68.75 46.957,68.75 H 28.043 c -6.035,0 -11.082,-4.582 -11.664,-10.59 L 12.715,20.312 H 8.594 c -1.293,0 -2.344,-1.05 -2.344,-2.343 0,-1.293 1.051,-2.344 2.344,-2.344 z m 34.566,34.566 -4.687,-4.687 v 8.402 c 0,1.293 1.05,2.344 2.343,2.344 1.293,0 2.344,-1.051 2.344,-2.344 z M 32.812,36.129 28.125,31.441 v 22.465 c 0,1.293 1.051,2.344 2.344,2.344 1.293,0 2.343,-1.051 2.343,-2.344 z m 14.063,-5.66 v 6.465 l 12.582,12.582 2.828,-29.204 h 4.121 c 1.293,0 2.344,-1.05 2.344,-2.343 0,-1.293 -1.051,-2.344 -2.344,-2.344 H 48.438 C 48.438,9.586 43.539,4.688 37.5,4.688 c -6.039,0 -10.938,4.898 -10.938,10.937 h -0.996 l 16.622,16.621 v -1.777 c 0,-1.293 1.05,-2.344 2.343,-2.344 1.293,0 2.344,1.051 2.344,2.344 z M 43.75,15.625 h -12.5 c 0,-3.453 2.797,-6.25 6.25,-6.25 3.453,0 6.25,2.797 6.25,6.25 z" style="fill:currentColor;fill-opacity:1;fill-rule:nonzero;stroke:none" transform="scale(1.3333333)" /> </g>
</svg>

