<?xml version="1.0" encoding="UTF-8" standalone="no"?> <svg version="1.1" id="Ic08e678876f442de83366067e112122220251106170412" width="100" height="100" viewBox="0 0 100 100" xmlns="http://www.w3.org/2000/svg" xmlns:svg="http://www.w3.org/2000/svg"> <defs id="I78571be8d339462594f6e5d06aaf82cd20251106170412" /> <g id="Ib861b04b5a3543138fcb8019cad6fc5720251106170412"> <path id="I5b4a05c80997416faeadb194980391ca20251106170412" d="m 46.875,37.5 c 3.645,0 7.02,-1.156 9.777,-3.121 l 13.547,13.547 c 1.098,1.097 2.879,1.097 3.977,0 1.097,-1.098 1.097,-2.879 0,-3.977 L 60.629,30.402 c 1.965,-2.757 3.121,-6.132 3.121,-9.777 0,-9.32 -7.555,-16.875 -16.875,-16.875 -5.852,0 -11.008,2.977 -14.035,7.5 -0.137,0.207 -0.27,0.414 -0.399,0.625 -0.925,1.523 -1.617,3.207 -2.023,5 -0.273,1.207 -0.418,2.461 -0.418,3.75 0,2.039 0.363,3.992 1.023,5.801 0.743,2.027 1.864,3.871 3.274,5.449 3.09,3.453 7.582,5.625 12.578,5.625 z m 0,-28.125 c 6.215,0 11.25,5.035 11.25,11.25 0,6.215 -5.035,11.25 -11.25,11.25 -6.215,0 -11.25,-5.035 -11.25,-11.25 0,-6.215 5.035,-11.25 11.25,-11.25 z m 11.344,31.875 5.625,5.625 H 10.312 C 8.758,46.875 7.5,45.617 7.5,44.062 7.5,42.508 8.758,41.25 10.312,41.25 Z m -47.907,-30 H 28.5 c -0.895,1.746 -1.543,3.637 -1.91,5.625 H 10.312 C 8.758,16.875 7.5,15.617 7.5,14.062 7.5,12.508 8.758,11.25 10.312,11.25 Z m 0,15 h 16.715 c 0.571,2.02 1.442,3.91 2.559,5.625 H 10.312 C 8.758,31.875 7.5,30.617 7.5,29.062 7.5,27.508 8.758,26.25 10.312,26.25 Z M 7.5,59.062 c 0,-1.554 1.258,-2.812 2.812,-2.812 h 54.376 c 1.554,0 2.812,1.258 2.812,2.812 0,1.555 -1.258,2.813 -2.812,2.813 H 10.312 C 8.758,61.875 7.5,60.617 7.5,59.062 Z" style="fill:currentColor;fill-opacity:1;fill-rule:nonzero;stroke:none" transform="scale(1.3333333)" /> </g>
</svg>

