<?xml version="1.0" encoding="UTF-8" standalone="no"?> <svg version="1.1" id="I032a1a4e8781463496507c26719d96b320251106155157" width="100" height="100" viewBox="0 0 100 100" xmlns="http://www.w3.org/2000/svg" xmlns:svg="http://www.w3.org/2000/svg"> <defs id="Ie64562b303054a5db87fb8b3d1673b4520251106155157" /> <g id="Ia7a381948fdf4261a2fba920f821821c20251106155157"> <path id="I9c34377380c24bcd8e96c4511e9adcae20251106155157" d="m 28.926,28.121 0.742,-4.687 h 4.629 l -0.742,4.687 z M 55.469,6.25 c 3.722,0 6.765,2.891 7.015,6.551 l 0.016,0.48 v 48.43 c 0,3.723 -2.891,6.769 -6.551,7.016 l -0.48,0.015 H 19.531 c -3.722,0 -6.769,-2.89 -7.015,-6.547 L 12.5,61.711 v -48.43 c 0,-3.722 2.891,-6.769 6.551,-7.015 L 19.531,6.25 Z M 32.484,34.875 c -0.203,1.277 0.672,2.477 1.95,2.68 1.277,0.203 2.48,-0.668 2.683,-1.946 l 0.442,-2.8 h 2.285 c 1.293,0 2.344,-1.047 2.344,-2.344 0,-1.293 -1.051,-2.344 -2.344,-2.344 h -1.543 l 0.742,-4.687 h 2.363 c 1.293,0 2.344,-1.047 2.344,-2.344 0,-1.293 -1.051,-2.344 -2.344,-2.344 h -1.621 l 0.508,-3.199 c 0.203,-1.281 -0.672,-2.481 -1.949,-2.684 -1.278,-0.203 -2.481,0.672 -2.68,1.949 l -0.625,3.934 H 30.41 l 0.508,-3.199 c 0.203,-1.281 -0.672,-2.481 -1.949,-2.684 -1.278,-0.203 -2.481,0.672 -2.68,1.949 l -0.625,3.934 h -3.008 c -1.293,0 -2.344,1.051 -2.344,2.344 0,1.297 1.051,2.344 2.344,2.344 h 2.266 l -0.742,4.687 h -3.086 c -1.293,0 -2.344,1.051 -2.344,2.344 0,1.297 1.051,2.344 2.344,2.344 h 2.344 l -0.329,2.066 c -0.203,1.277 0.672,2.477 1.95,2.68 1.277,0.203 2.48,-0.668 2.683,-1.946 l 0.442,-2.8 h 4.628 z" style="fill:currentColor;fill-opacity:1;fill-rule:nonzero;stroke:none" transform="scale(1.3333333)" /> </g>
</svg>

