<?xml version="1.0" encoding="UTF-8" standalone="no"?> <svg version="1.1" id="I221d7de3b32448e982a2ad7deec22ca820251110123030" width="100" height="100" viewBox="0 0 100 100" xmlns="http://www.w3.org/2000/svg" xmlns:svg="http://www.w3.org/2000/svg"> <defs id="Iddf18b27aa2e459a917a331fa295af7420251110123030" /> <g id="I3c99efbadda1456dbf513cadc2df66e020251110123030"> <path id="I72d95cf4737347ce8d52c2c2b866ce9520251110123030" d="m 25,34.375 c 6.902,0 12.5,-5.598 12.5,-12.5 0,-6.902 -5.598,-12.5 -12.5,-12.5 -6.902,0 -12.5,5.598 -12.5,12.5 0,6.902 5.598,12.5 12.5,12.5 z m 28.125,0 c 5.18,0 9.375,-4.199 9.375,-9.375 0,-5.176 -4.195,-9.375 -9.375,-9.375 -5.18,0 -9.375,4.199 -9.375,9.375 0,5.176 4.195,9.375 9.375,9.375 z m -39.844,6.25 c -3.883,0 -7.031,3.148 -7.031,7.031 v 0.782 c 0,0 0,14.062 18.75,14.062 18.75,0 18.75,-14.062 18.75,-14.062 v -0.782 c 0,-3.883 -3.148,-7.031 -7.031,-7.031 z m 43.571,3.109 1.484,-3.765 c 0.758,-1.918 2.879,-2.918 4.84,-2.274 l 1.347,0.442 c 2.262,0.738 4.141,2.515 4.219,4.902 0.309,9.719 -7.738,23.695 -16.293,28.297 -2.101,1.129 -4.586,0.383 -6.359,-1.223 L 45.035,69.16 c -1.527,-1.387 -1.719,-3.719 -0.441,-5.332 l 2.5,-3.156 C 48,59.527 49.488,59.016 50.91,59.359 l 4.035,0.977 c 3.446,-2.281 5.293,-5.488 5.543,-9.621 l -2.863,-3.012 c -1.008,-1.058 -1.313,-2.609 -0.773,-3.969 z" style="fill:currentColor;fill-opacity:1;fill-rule:nonzero;stroke:none" transform="scale(1.3333333)" /> </g>
</svg>

