<?xml version="1.0" encoding="UTF-8" standalone="no"?> <svg version="1.1" id="I7d8781e3c0aa44729e0d2b0614d745ff20251106125937" width="100" height="100" viewBox="0 0 100 100" xmlns="http://www.w3.org/2000/svg" xmlns:svg="http://www.w3.org/2000/svg"> <defs id="Ib5e60c5d9acd4da3a64215f5f9b73cc620251106125937" /> <g id="Ib28b983c42b94838811db4c578f4381a20251106125937"> <path id="I27c2b881623246f8b36cea975cf7f98a20251106125937" d="m 53.051,25.699 c 0.73,0.735 1.918,0.735 2.648,0 0.735,-0.73 0.735,-1.918 0,-2.648 l -15,-15 c -0.73,-0.735 -1.918,-0.735 -2.648,0 l -15,15 c -0.735,0.73 -0.735,1.918 0,2.648 0.73,0.735 1.918,0.735 2.648,0 L 37.5,13.902 V 37.5 c 0,7.367 -0.926,12.68 -2.867,16.773 -1.918,4.051 -4.903,7.079 -9.348,9.743 -0.887,0.535 -1.176,1.687 -0.644,2.574 0.535,0.887 1.687,1.176 2.574,0.644 4.93,-2.961 8.508,-6.496 10.808,-11.355 C 40.301,51.07 41.25,45.133 41.25,37.5 V 13.902 Z" style="fill:currentColor;fill-opacity:1;fill-rule:nonzero;stroke:none" transform="scale(1.3333333)" /> </g>
</svg>

