<?xml version="1.0" encoding="UTF-8" standalone="no"?> <svg version="1.1" id="Ibc474d9f56604b3d911ff2d71f7790c020251106123559" width="100" height="100" viewBox="0 0 100 100" xmlns="http://www.w3.org/2000/svg" xmlns:svg="http://www.w3.org/2000/svg"> <defs id="Idae8eae36296422e933827a6cc3ffb5a20251106123559" /> <g id="Icda6cd20185c46b3b5c1d3e13703693720251106123559"> <path id="I9a30ba1bb94840b589c3badb7490704020251106123559" d="M 8.969,11.809 5.945,8.785 C 5.16,8.004 5.16,6.73 5.945,5.945 6.73,5.16 8.004,5.16 8.785,5.945 l 60.27,60.27 c 0.785,0.785 0.785,2.055 0,2.84 -0.785,0.785 -2.059,0.785 -2.844,0 l -3.023,-3.024 c -1.063,0.594 -2.286,0.934 -3.59,0.934 H 15.402 c -4.07,0 -7.367,-3.297 -7.367,-7.367 V 15.402 c 0,-1.304 0.34,-2.531 0.934,-3.593 z M 60.07,62.914 39.508,42.352 v 20.593 h 20.09 c 0.16,0 0.32,-0.011 0.472,-0.031 z M 32.648,35.492 12.086,14.93 c -0.02,0.152 -0.031,0.312 -0.031,0.472 v 20.09 z M 16.562,8.035 l 4.016,4.02 h 11.567 c 1.847,0 3.347,1.496 3.347,3.347 v 11.563 l 4.016,4.019 V 15.402 c 0,-4.07 -3.297,-7.367 -7.363,-7.367 z m 31.473,31.473 -4.019,-4.016 h 15.582 c 4.07,0 7.367,3.297 7.367,7.363 v 15.583 l -4.02,-4.016 V 42.855 c 0,-1.847 -1.496,-3.347 -3.347,-3.347 z M 56.918,5.355 c 1.109,0 2.012,0.903 2.012,2.012 v 8.703 h 8.703 c 1.109,0 2.012,0.903 2.012,2.012 0,1.109 -0.903,2.008 -2.012,2.008 H 58.93 v 8.703 c 0,1.109 -0.903,2.012 -2.012,2.012 -1.109,0 -2.008,-0.903 -2.008,-2.012 V 20.09 h -8.703 c -1.109,0 -2.012,-0.899 -2.012,-2.008 0,-1.109 0.903,-2.012 2.012,-2.012 H 54.91 V 7.367 c 0,-1.109 0.899,-2.012 2.008,-2.012 z M 35.492,62.945 V 39.508 H 12.055 v 20.09 c 0,1.851 1.496,3.347 3.347,3.347 z" style="fill:currentColor;fill-opacity:1;fill-rule:nonzero;stroke:none" transform="scale(1.3333333)" /> </g>
</svg>

