<?xml version="1.0" encoding="UTF-8" standalone="no"?> <svg version="1.1" id="Ifde0174fd29c4ba7b88d828509796bfb20251106125938" width="100" height="100" viewBox="0 0 100 100" xmlns="http://www.w3.org/2000/svg" xmlns:svg="http://www.w3.org/2000/svg"> <defs id="I4b33013b80e74895a4ec0b8c68dd079820251106125938" /> <g id="I775e414d026e41c5869ce70b9c71460a20251106125938"> <path id="I359ab90c7403420d8c42ee228754f40c20251106125938" d="m 47.523,7.156 12.5,12.489 c 1.125,1.125 1.215,2.898 0.262,4.125 l -0.258,0.292 -12.5,12.52 c -1.222,1.219 -3.199,1.223 -4.422,0 -1.125,-1.125 -1.214,-2.898 -0.261,-4.125 l 0.258,-0.293 7.16,-7.168 H 17.188 c -1.602,0 -2.922,-1.207 -3.106,-2.758 l -0.02,-0.367 c 0,-1.601 1.208,-2.922 2.762,-3.101 l 0.364,-0.024 h 33.097 l -7.18,-7.168 C 41.98,10.453 41.891,8.68 42.844,7.453 L 43.105,7.16 C 44.23,6.035 46.004,5.945 47.23,6.898 l 0.293,0.258 12.5,12.489 z m 13.387,45.602 0.02,0.363 c 0,1.606 -1.207,2.926 -2.762,3.106 l -0.363,0.019 H 24.73 l 7.168,7.164 c 1.125,1.129 1.215,2.899 0.262,4.125 l -0.262,0.297 C 30.773,68.957 29,69.047 27.777,68.094 L 27.48,67.832 14.98,55.344 c -1.125,-1.125 -1.214,-2.899 -0.261,-4.125 l 0.261,-0.293 12.5,-12.512 c 1.219,-1.223 3.196,-1.223 4.418,-0.004 1.125,1.129 1.215,2.899 0.262,4.125 l -0.262,0.297 -7.156,7.164 h 33.063 c 1.601,0 2.922,1.207 3.105,2.762 l 0.02,0.363 z" style="fill:currentColor;fill-opacity:1;fill-rule:nonzero;stroke:none" transform="scale(1.3333333)" /> </g>
</svg>

