<?xml version="1.0" encoding="UTF-8" standalone="no"?> <svg version="1.1" id="I3c6f180c9d4a4fbc8ee3089a10b8162220251106161453" width="100" height="100" viewBox="0 0 100 100" xmlns="http://www.w3.org/2000/svg" xmlns:svg="http://www.w3.org/2000/svg"> <defs id="I150d569b631e4745a34bb817b882b40c20251106161453" /> <g id="I549e9c99b3bd42559bab50d4f9c89f7220251106161453"> <path id="I7c4580c7adc942ac87f84a3f8d8b799b20251106161453" d="m 17.188,8.594 c 0,-1.293 -1.051,-2.344 -2.344,-2.344 -1.293,0 -2.344,1.051 -2.344,2.344 0,3.972 2.898,5.992 4.707,7.25 l 0.199,0.14 c 2.125,1.485 2.906,2.2 2.906,3.547 0,1.293 1.051,2.344 2.344,2.344 1.293,0 2.344,-1.051 2.344,-2.344 0,-3.972 -2.898,-5.992 -4.707,-7.25 l -0.199,-0.14 C 17.969,10.656 17.188,9.941 17.188,8.594 Z M 15.066,25 c -3.144,0 -5.691,2.547 -5.691,5.691 V 43.75 c 0,13.809 11.191,25 25,25 10.492,0 19.473,-6.465 23.184,-15.625 h 4.16 c 5.609,0 10.156,-4.547 10.156,-10.156 0,-5.61 -4.547,-10.157 -10.156,-10.157 H 59.375 V 30.691 C 59.375,27.547 56.828,25 53.684,25 Z m 46.653,23.438 h -2.781 c 0.285,-1.52 0.437,-3.086 0.437,-4.688 V 37.5 h 2.344 c 3.019,0 5.469,2.449 5.469,5.469 0,3.019 -2.45,5.469 -5.469,5.469 z M 27.344,6.25 c 1.293,0 2.344,1.051 2.344,2.344 0,1.347 0.781,2.062 2.906,3.547 l 0.199,0.14 c 1.809,1.258 4.707,3.278 4.707,7.25 0,1.293 -1.051,2.344 -2.344,2.344 -1.293,0 -2.344,-1.051 -2.344,-2.344 0,-1.347 -0.781,-2.062 -2.906,-3.547 l -0.199,-0.14 C 27.898,14.586 25,12.566 25,8.594 25,7.301 26.051,6.25 27.344,6.25 Z m 14.844,2.344 c 0,-1.293 -1.051,-2.344 -2.344,-2.344 -1.293,0 -2.344,1.051 -2.344,2.344 0,3.972 2.898,5.992 4.707,7.25 l 0.199,0.14 c 2.125,1.485 2.906,2.2 2.906,3.547 0,1.293 1.051,2.344 2.344,2.344 1.293,0 2.344,-1.051 2.344,-2.344 0,-3.972 -2.898,-5.992 -4.707,-7.25 l -0.199,-0.14 c -2.125,-1.485 -2.906,-2.2 -2.906,-3.547 z" style="fill:currentColor;fill-opacity:1;fill-rule:nonzero;stroke:none" transform="scale(1.3333333)" /> </g>
</svg>

