<?xml version="1.0" encoding="UTF-8" standalone="no"?> <svg version="1.1" id="I29ce641e0c1447188e1e3c652d41114020251106165302" width="100" height="100" viewBox="0 0 100 100" xmlns="http://www.w3.org/2000/svg" xmlns:svg="http://www.w3.org/2000/svg"> <defs id="Icda82c87113d4248b5711e763b9fb13320251106165302" /> <g id="I724e8633d0c7460ba1c9cc0fe0dc5c3220251106165302"> <path id="I202e3e7ce6b9475f80d6404c848b151920251106165302" d="m 39.062,8.594 c 0,-1.293 -1.05,-2.344 -2.343,-2.344 -1.293,0 -2.344,1.051 -2.344,2.344 v 57.812 c 0,1.293 1.051,2.344 2.344,2.344 1.293,0 2.343,-1.051 2.343,-2.344 z m -22.656,5.468 c -3.019,0 -5.468,2.45 -5.468,5.469 v 1.563 c 0,1.293 -1.051,2.344 -2.344,2.344 -1.293,0 -2.344,-1.051 -2.344,-2.344 v -1.563 c 0,-5.609 4.547,-10.156 10.156,-10.156 h 1.563 c 1.293,0 2.343,1.051 2.343,2.344 0,1.293 -1.05,2.343 -2.343,2.343 z m 0,46.876 c -3.019,0 -5.468,-2.45 -5.468,-5.469 v -1.563 c 0,-1.293 -1.051,-2.344 -2.344,-2.344 -1.293,0 -2.344,1.051 -2.344,2.344 v 1.563 c 0,5.609 4.547,10.156 10.156,10.156 h 1.563 c 1.293,0 2.343,-1.051 2.343,-2.344 0,-1.293 -1.05,-2.343 -2.343,-2.343 z m 7.032,-49.219 c 0,-1.293 1.05,-2.344 2.343,-2.344 h 3.125 c 1.293,0 2.344,1.051 2.344,2.344 0,1.293 -1.051,2.343 -2.344,2.343 h -3.125 c -1.293,0 -2.343,-1.05 -2.343,-2.343 z m 2.343,49.219 c -1.293,0 -2.343,1.05 -2.343,2.343 0,1.293 1.05,2.344 2.343,2.344 h 3.125 c 1.293,0 2.344,-1.051 2.344,-2.344 0,-1.293 -1.051,-2.343 -2.344,-2.343 z M 8.594,26.562 c 1.293,0 2.344,1.051 2.344,2.344 v 17.188 c 0,1.293 -1.051,2.344 -2.344,2.344 -1.293,0 -2.344,-1.051 -2.344,-2.344 V 28.906 c 0,-1.293 1.051,-2.344 2.344,-2.344 z m 33.594,39.063 h 16.406 c 1.953,0 3.773,-0.551 5.32,-1.504 L 42.266,42.867 42.188,42.801 Z m 0,-27.941 c 1.062,0.242 2.082,0.734 2.96,1.472 l 0.403,0.367 21.683,21.286 c 0.961,-1.551 1.516,-3.379 1.516,-5.34 V 19.531 C 68.75,13.922 64.203,9.375 58.594,9.375 H 42.188 Z m 19.531,-10.34 c 0,3.453 -2.797,6.25 -6.25,6.25 -3.453,0 -6.25,-2.797 -6.25,-6.25 0,-3.453 2.797,-6.25 6.25,-6.25 3.453,0 6.25,2.797 6.25,6.25 z" style="fill:currentColor;fill-opacity:1;fill-rule:nonzero;stroke:none" transform="scale(1.3333333)" /> </g>
</svg>

