<?xml version="1.0" encoding="UTF-8" standalone="no"?> <svg version="1.1" id="I5f310cf9a8ef4cd0938bf2526dee0c4620251110130507" width="100" height="100" viewBox="0 0 100 100" xmlns="http://www.w3.org/2000/svg" xmlns:svg="http://www.w3.org/2000/svg"> <defs id="I7d0a93267a734f7aabfb9db5ad26696b20251110130507" /> <g id="I68e2ed80fde24e3185da9650a904864620251110130507"> <path id="I0eca6582ffd5429f93163aba716a914720251110130507" d="m 22.5,11.25 c -6.215,0 -11.25,5.035 -11.25,11.25 v 30 c 0,6.215 5.035,11.25 11.25,11.25 H 36 C 35.391,62.562 34.895,61.309 34.527,60 H 22.5 C 18.359,60 15,56.641 15,52.5 v -30 C 15,18.359 18.359,15 22.5,15 h 30 c 4.141,0 7.5,3.359 7.5,7.5 v 12.027 c 1.309,0.368 2.562,0.864 3.75,1.473 V 22.5 c 0,-6.215 -5.035,-11.25 -11.25,-11.25 z m 31.875,60 c 9.32,0 16.875,-7.555 16.875,-16.875 0,-9.32 -7.555,-16.875 -16.875,-16.875 -9.32,0 -16.875,7.555 -16.875,16.875 0,9.32 7.555,16.875 16.875,16.875 z m 6.949,-23.824 c 0.735,0.73 0.735,1.918 0,2.648 l -4.297,4.301 4.297,4.301 c 0.735,0.73 0.735,1.918 0,2.648 -0.73,0.735 -1.918,0.735 -2.648,0 l -4.301,-4.297 -4.301,4.297 c -0.73,0.735 -1.918,0.735 -2.648,0 -0.735,-0.73 -0.735,-1.918 0,-2.648 l 4.297,-4.301 -4.297,-4.301 c -0.735,-0.73 -0.735,-1.918 0,-2.648 0.73,-0.735 1.918,-0.735 2.648,0 l 4.301,4.297 4.301,-4.297 c 0.73,-0.735 1.918,-0.735 2.648,0 z" style="fill:currentColor;fill-opacity:1;fill-rule:nonzero;stroke:none" transform="scale(1.3333333)" /> </g>
</svg>

