<?xml version="1.0" encoding="UTF-8" standalone="no"?> <svg version="1.1" id="Ia602fcecad5c46a59e3801294468c9d520251106125937" width="100" height="100" viewBox="0 0 100 100" xmlns="http://www.w3.org/2000/svg" xmlns:svg="http://www.w3.org/2000/svg"> <defs id="I70c2bc3066f640fa86a16fa820f4753120251106125937" /> <g id="I6c4ec969a60743b683f1455a7bf13e1120251106125937"> <path id="Iff17ceae70744bf1a94eda846965c85920251106125937" d="m 22.348,18.75 c 4.14,-3.352 9.41,-5.355 15.152,-5.355 13.312,0 24.105,10.793 24.105,24.105 0,13.312 -10.793,24.105 -24.105,24.105 -13.312,0 -24.105,-10.793 -24.105,-24.105 0,-0.816 0.039,-1.621 0.117,-2.414 0.144,-1.473 -0.93,-2.785 -2.403,-2.93 -1.468,-0.148 -2.781,0.93 -2.929,2.403 -0.094,0.968 -0.145,1.949 -0.145,2.941 0,16.273 13.192,29.465 29.465,29.465 16.273,0 29.465,-13.192 29.465,-29.465 0,-16.273 -13.192,-29.465 -29.465,-29.465 -7.125,0 -13.656,2.531 -18.75,6.735 v -4.055 c 0,-1.481 -1.199,-2.68 -2.68,-2.68 -1.476,0 -2.675,1.199 -2.675,2.68 v 10.68 c -0.004,0.039 0,0.074 0,0.113 0.039,1.441 1.222,2.597 2.675,2.597 h 10.715 c 1.481,0 2.68,-1.199 2.68,-2.675 0,-1.481 -1.199,-2.68 -2.68,-2.68 z" style="fill:currentColor;fill-opacity:1;fill-rule:nonzero;stroke:none" transform="scale(1.3333333)" /> </g>
</svg>

