<?xml version="1.0" encoding="UTF-8" standalone="no"?> <svg version="1.1" id="Id298064987164559b2b474b05fe8a65320251106171634" width="100" height="100" viewBox="0 0 100 100" xmlns="http://www.w3.org/2000/svg" xmlns:svg="http://www.w3.org/2000/svg"> <defs id="I41b8df20bdb44c998f310499e14e784a20251106171634" /> <g id="I24bf9f2017c849418b19b648d10661c920251106171634"> <path id="Iac1ae21ea4a14e4f8e0ef762d63f279520251106171634" d="m 9.375,12.5 c 1.727,0 3.125,1.398 3.125,3.125 v 43.75 C 12.5,61.102 11.102,62.5 9.375,62.5 7.648,62.5 6.25,61.102 6.25,59.375 V 15.625 C 6.25,13.898 7.648,12.5 9.375,12.5 Z m 56.25,0 c 1.727,0 3.125,1.398 3.125,3.125 v 5.469 c 0,1.726 -1.398,3.125 -3.125,3.125 -1.727,0 -3.125,-1.399 -3.125,-3.125 v -5.469 c 0,-1.727 1.398,-3.125 3.125,-3.125 z m 0,16.406 c 1.727,0 3.125,1.399 3.125,3.125 v 10.938 c 0,1.726 -1.398,3.125 -3.125,3.125 -1.727,0 -3.125,-1.399 -3.125,-3.125 V 32.031 c 0,-1.726 1.398,-3.125 3.125,-3.125 z m 0,21.875 c 1.727,0 3.125,1.399 3.125,3.125 v 5.469 c 0,1.727 -1.398,3.125 -3.125,3.125 -1.727,0 -3.125,-1.398 -3.125,-3.125 v -5.469 c 0,-1.726 1.398,-3.125 3.125,-3.125 z m -7.164,-11.07 c 1.219,-1.223 1.219,-3.199 0,-4.422 L 42.836,19.664 c -1.223,-1.219 -3.199,-1.219 -4.422,0 -1.219,1.223 -1.219,3.199 0,4.422 L 48.707,34.375 H 18.75 c -1.727,0 -3.125,1.398 -3.125,3.125 0,1.727 1.398,3.125 3.125,3.125 H 48.707 L 38.414,50.914 c -1.219,1.223 -1.219,3.199 0,4.422 1.223,1.219 3.199,1.219 4.422,0 z" style="fill:currentColor;fill-opacity:1;fill-rule:nonzero;stroke:none" transform="scale(1.3333333)" /> </g>
</svg>

