<?xml version="1.0" encoding="UTF-8" standalone="no"?> <svg version="1.1" id="I3f5d04b287e544dc8db83893487b166a20251106161453" width="100" height="100" viewBox="0 0 100 100" xmlns="http://www.w3.org/2000/svg" xmlns:svg="http://www.w3.org/2000/svg"> <defs id="Ie1fe0fda24334d0b8603fdb1caad17dd20251106161453" /> <g id="Ia9d10cf224e9446494f0a0e47b955fb720251106161453"> <path id="I255d7084306d43f9839b82a8efefc52a20251106161453" d="m 26.562,31.25 c 0,-1.293 -1.05,-2.344 -2.343,-2.344 -1.293,0 -2.344,1.051 -2.344,2.344 v 21.875 c 0,1.293 1.051,2.344 2.344,2.344 1.293,0 2.343,-1.051 2.343,-2.344 z m 9.376,0 c 0,-1.293 -1.051,-2.344 -2.344,-2.344 -1.293,0 -2.344,1.051 -2.344,2.344 v 21.875 c 0,1.293 1.051,2.344 2.344,2.344 1.293,0 2.344,-1.051 2.344,-2.344 z m 9.374,0 c 0,-1.293 -1.05,-2.344 -2.343,-2.344 -1.293,0 -2.344,1.051 -2.344,2.344 v 21.875 c 0,1.293 1.051,2.344 2.344,2.344 1.293,0 2.343,-1.051 2.343,-2.344 z M 12.5,16.406 C 12.5,10.797 17.047,6.25 22.656,6.25 h 21.875 c 5.61,0 10.157,4.547 10.157,10.156 v 2.344 h 3.906 c 5.609,0 10.156,4.547 10.156,10.156 v 17.188 c 0,5.609 -4.547,10.156 -10.156,10.156 h -3.906 v 5.469 c 0,3.883 -3.149,7.031 -7.032,7.031 H 19.531 C 15.648,68.75 12.5,65.602 12.5,61.719 Z M 50,23.438 H 17.188 v 38.281 c 0,1.293 1.05,2.343 2.343,2.343 h 28.125 c 1.293,0 2.344,-1.05 2.344,-2.343 z m 4.688,28.124 h 3.906 c 3.019,0 5.468,-2.449 5.468,-5.468 V 28.906 c 0,-3.019 -2.449,-5.468 -5.468,-5.468 H 54.688 Z M 50,16.406 c 0,-3.019 -2.449,-5.468 -5.469,-5.468 H 22.656 c -3.019,0 -5.468,2.449 -5.468,5.468 V 18.75 H 50 Z" style="fill:currentColor;fill-opacity:1;fill-rule:nonzero;stroke:none" transform="scale(1.3333333)" /> </g>
</svg>

