<?xml version="1.0" encoding="UTF-8" standalone="no"?> <svg version="1.1" id="I8578035d4e1c4916b02d403804ec819420251106132945" width="100" height="100" viewBox="0 0 100 100" xmlns="http://www.w3.org/2000/svg" xmlns:svg="http://www.w3.org/2000/svg"> <defs id="Ib645541e75b249b09dc46a0b11638a5e20251106132945" /> <g id="I78a615abeda64b09956caf3388d7c59920251106132945"> <path id="Ife6f8ca87ba349acbfe7bee95c554f9e20251106132945" d="m 15.402,18.75 c -5.547,0 -10.047,4.496 -10.047,10.043 v 17.414 c 0,5.547 4.5,10.043 10.047,10.043 h 38.84 c 5.547,0 10.043,-4.496 10.043,-10.043 v -3.352 h 2.68 c 1.48,0 2.68,-1.199 2.68,-2.675 v -5.36 c 0,-1.476 -1.2,-2.675 -2.68,-2.675 h -2.68 V 28.793 C 64.285,23.246 59.789,18.75 54.242,18.75 Z M 9.375,28.793 c 0,-3.328 2.699,-6.023 6.027,-6.023 h 38.84 c 3.328,0 6.028,2.695 6.028,6.023 v 17.414 c 0,3.328 -2.7,6.023 -6.028,6.023 h -38.84 c -3.328,0 -6.027,-2.695 -6.027,-6.023 z" style="fill:currentColor;fill-opacity:1;fill-rule:nonzero;stroke:none" transform="scale(1.3333333)" /> </g>
</svg>

