<?xml version="1.0" encoding="UTF-8" standalone="no"?> <svg version="1.1" id="I61d09330c713495a98cb4c8c2000afdc20251106165302" width="100" height="100" viewBox="0 0 100 100" xmlns="http://www.w3.org/2000/svg" xmlns:svg="http://www.w3.org/2000/svg"> <defs id="Icb72dada55c6401dbbadfb6f5e9e616420251106165302" /> <g id="Icd109e5969a044b984af5777780c2d1220251106165302"> <path id="Iba2a20087c3f4c89b1fed74993adde1520251106165302" d="M 39.375,29.844 C 44.695,28.953 48.75,24.324 48.75,18.75 48.75,12.535 43.715,7.5 37.5,7.5 c -6.215,0 -11.25,5.035 -11.25,11.25 0,5.574 4.055,10.203 9.375,11.094 V 41.25 h -7.5 c -3.105,0 -5.625,2.52 -5.625,5.625 v 1.875 h 30 v -1.875 c 0,-3.105 -2.52,-5.625 -5.625,-5.625 h -7.5 z M 11.25,60 c 0,-4.141 3.359,-7.5 7.5,-7.5 h 37.5 c 4.141,0 7.5,3.359 7.5,7.5 v 5.625 c 0,1.035 -0.84,1.875 -1.875,1.875 h -48.75 c -1.035,0 -1.875,-0.84 -1.875,-1.875 z" style="fill:currentColor;fill-opacity:1;fill-rule:nonzero;stroke:none" transform="scale(1.3333333)" /> </g>
</svg>

