<?xml version="1.0" encoding="UTF-8" standalone="no"?> <svg version="1.1" id="I7bf3fa02b27245a88a6a9c72c46e10bd20251110124419" width="100" height="100" viewBox="0 0 100 100" xmlns="http://www.w3.org/2000/svg" xmlns:svg="http://www.w3.org/2000/svg"> <defs id="Ib32276ff98994866a88ba8f051b68bd920251110124419" /> <g id="I9809f429e58144acb4eae4c886adf96020251110124419"> <path id="I6ecb4e440683410488f5c8dcff66b5a220251110124419" d="m 58.59,9.375 c 3.883,0 7.031,3.148 7.031,7.031 v 42.196 c 0,3.882 -3.148,7.031 -7.031,7.031 H 16.406 c -3.883,0 -7.031,-3.149 -7.031,-7.031 V 16.406 c 0,-3.883 3.148,-7.031 7.031,-7.031 z m 0,4.687 H 16.406 c -1.293,0 -2.344,1.051 -2.344,2.344 v 42.196 c 0,1.293 1.051,2.343 2.344,2.343 H 58.59 c 1.293,0 2.344,-1.05 2.344,-2.343 V 16.406 c 0,-1.293 -1.051,-2.344 -2.344,-2.344 z M 25.797,35.938 30.66,24.84 c 0.785,-1.789 3.238,-1.856 4.168,-0.25 l 0.156,0.32 7.442,18.586 3.136,-6.262 c 0.348,-0.695 1.012,-1.164 1.766,-1.273 l 0.328,-0.023 h 6.25 c 1.293,0 2.344,1.05 2.344,2.343 0,1.188 -0.883,2.168 -2.027,2.324 l -0.317,0.02 h -4.801 l -4.824,9.629 c -0.851,1.703 -3.215,1.707 -4.117,0.137 l -0.152,-0.313 -7.301,-18.234 -3.234,7.379 c -0.329,0.746 -1.016,1.261 -1.805,1.379 l -0.344,0.023 h -6.234 c -1.293,0 -2.344,-1.047 -2.344,-2.344 0,-1.183 0.883,-2.164 2.027,-2.32 l 0.317,-0.023 h 4.703 L 30.66,24.84 Z" style="fill:currentColor;fill-opacity:1;fill-rule:nonzero;stroke:none" transform="scale(1.3333333)" /> </g>
</svg>

