<?xml version="1.0" encoding="UTF-8" standalone="no"?> <svg version="1.1" id="I53e7921b285a420cb91b238b7d7869d320251106163937" width="100" height="100" viewBox="0 0 100 100" xmlns="http://www.w3.org/2000/svg" xmlns:svg="http://www.w3.org/2000/svg"> <defs id="I6757be47ccc244febd019561fe6ba3f720251106163937" /> <g id="I69906bfc938041ff9d8c1a486c19fcdf20251106163937"> <path id="Icfaed06ee6ba4263a6e713739ae4146620251106163937" d="M 20.219,14.062 C 24.746,11.277 30.441,9.375 37.5,9.375 h 0.004 c 12.582,0 20.828,6.047 25.855,12.348 2.5,3.129 4.211,6.328 5.305,8.898 0.547,1.289 0.945,2.434 1.215,3.359 0.238,0.829 0.437,1.708 0.437,2.348 0,0.641 -0.199,1.52 -0.437,2.348 -0.27,0.926 -0.668,2.07 -1.215,3.359 -1.094,2.57 -2.805,5.77 -5.305,8.899 -5.027,6.3 -13.273,12.347 -25.855,12.347 H 37.5 c -7.059,0 -12.754,-1.902 -17.281,-4.687 h 17.285 c 10.855,0 17.844,-5.137 22.191,-10.586 2.188,-2.738 3.7,-5.555 4.657,-7.809 0.476,-1.125 0.812,-2.094 1.019,-2.82 0.168,-0.582 0.227,-0.91 0.25,-1.02 l 0.004,-0.031 -0.004,-0.031 c -0.023,-0.109 -0.082,-0.438 -0.25,-1.02 -0.207,-0.726 -0.543,-1.695 -1.019,-2.82 -0.957,-2.254 -2.469,-5.07 -4.657,-7.809 C 55.348,19.199 48.359,14.062 37.504,14.062 Z m -4.684,3.516 H 37.5 v 4.688 H 11.219 c 0.14,-0.18 0.281,-0.364 0.426,-0.543 1.128,-1.418 2.421,-2.821 3.89,-4.145 z M 37.5,50.391 c 7.766,0 14.062,-6.297 14.062,-14.063 0,-7.766 -6.296,-14.062 -14.062,-14.062 v 3.515 H 8.82 c -1.008,1.672 -1.804,3.27 -2.414,4.688 H 30.18 c 1.718,-2.145 4.359,-3.516 7.32,-3.516 5.176,0 9.375,4.199 9.375,9.375 0,5.176 -4.199,9.375 -9.375,9.375 -2.961,0 -5.602,-1.371 -7.32,-3.515 H 6.406 c 0.61,1.417 1.406,3.019 2.414,4.687 H 37.5 Z m 0,0 v 4.687 H 15.535 C 14.066,53.754 12.773,52.352 11.645,50.934 11.5,50.754 11.359,50.57 11.219,50.391 Z M 28.422,33.984 H 5.125 c -0.238,0.828 -0.437,1.704 -0.437,2.344 0,0.641 0.199,1.516 0.437,2.344 h 23.297 c -0.195,-0.75 -0.297,-1.535 -0.297,-2.344 0,-0.808 0.102,-1.594 0.297,-2.344 z" style="fill:currentColor;fill-opacity:1;fill-rule:nonzero;stroke:none" transform="scale(1.3333333)" /> </g>
</svg>

