<?xml version="1.0" encoding="UTF-8" standalone="no"?> <svg version="1.1" id="I8292450033094035abe8501c0ce9379f20251106163937" width="100" height="100" viewBox="0 0 100 100" xmlns="http://www.w3.org/2000/svg" xmlns:svg="http://www.w3.org/2000/svg"> <defs id="Ib2a49ef29cb1482282a962d90d7589f020251106163937" /> <g id="I938d6334dff44e53b53d8dc4fb81ac9c20251106163937"> <path id="I0714c2e3bbe2431bb69e96e6ef8818fa20251106163937" d="M 37.5,6.25 C 20.242,6.25 6.25,20.242 6.25,37.5 6.25,54.758 20.242,68.75 37.5,68.75 54.758,68.75 68.75,54.758 68.75,37.5 68.75,20.242 54.758,6.25 37.5,6.25 Z m 7.789,23 c -0.191,1.281 -1.383,2.164 -2.664,1.977 -1.281,-0.192 -2.164,-1.383 -1.973,-2.665 0.504,-3.406 3.508,-5.906 7.004,-5.906 3.496,0 6.5,2.5 7.008,5.906 0.188,1.282 -0.695,2.473 -1.976,2.665 -1.282,0.187 -2.473,-0.696 -2.661,-1.977 -0.152,-1.008 -1.093,-1.906 -2.371,-1.906 -1.277,0 -2.218,0.898 -2.367,1.906 z m -7.789,27 c -9.82,0 -16.367,-7.383 -17.188,-16.406 H 54.688 C 53.867,48.867 47.32,56.25 37.5,56.25 Z M 27.344,27.344 c -1.278,0 -2.219,0.898 -2.367,1.906 -0.192,1.281 -1.383,2.164 -2.665,1.977 -1.281,-0.192 -2.164,-1.383 -1.972,-2.665 0.504,-3.406 3.508,-5.906 7.004,-5.906 3.496,0 6.5,2.5 7.008,5.906 0.187,1.282 -0.696,2.473 -1.977,2.665 -1.281,0.187 -2.473,-0.696 -2.66,-1.977 -0.153,-1.008 -1.094,-1.906 -2.371,-1.906 z" style="fill:currentColor;fill-opacity:1;fill-rule:nonzero;stroke:none" transform="scale(1.3333333)" /> </g>
</svg>

