<?xml version="1.0" encoding="UTF-8" standalone="no"?> <svg version="1.1" id="I7876bbd00cc74d98bf76c4aa6ff9057b20251110133655" width="100" height="100" viewBox="0 0 100 100" xmlns="http://www.w3.org/2000/svg" xmlns:svg="http://www.w3.org/2000/svg"> <defs id="I94c5dfe59d20411b8e60bddd32fe23fb20251110133655" /> <g id="Ic3e8bbc1f83747f5a688d9911505a6a820251110133655"> <path id="Ib2e86cdc9e7e43659b32eba426bf79d920251110133655" d="m 34.375,54.688 c 0,-9.606 6.668,-17.653 15.625,-19.77 V 25.781 C 50,20.172 45.453,15.625 39.844,15.625 H 16.406 c -5.609,0 -10.156,4.547 -10.156,10.156 v 26.563 c 0,5.609 4.547,10.156 10.156,10.156 H 35.934 C 34.93,60.094 34.375,57.457 34.375,54.688 Z M 54.688,34.375 c 5.457,0 10.414,2.152 14.062,5.656 V 22.004 c 0,-0.742 -0.266,-1.461 -0.742,-2.024 -1.121,-1.316 -3.09,-1.476 -4.406,-0.359 l -10.477,8.902 v 5.911 c 0.516,-0.039 1.035,-0.059 1.563,-0.059 z m 17.187,20.313 c 0,9.492 -7.695,17.187 -17.187,17.187 C 45.195,71.875 37.5,64.18 37.5,54.688 37.5,45.195 45.195,37.5 54.688,37.5 c 9.492,0 17.187,7.695 17.187,17.188 z m -29.687,0 c 0,2.605 0.796,5.023 2.16,7.027 L 61.715,44.348 c -2.004,-1.364 -4.422,-2.16 -7.027,-2.16 -6.903,0 -12.5,5.597 -12.5,12.5 z m 12.5,12.5 c 6.902,0 12.5,-5.598 12.5,-12.5 0,-2.606 -0.797,-5.024 -2.161,-7.028 L 47.66,65.027 c 2.004,1.364 4.422,2.161 7.028,2.161 z" style="fill:currentColor;fill-opacity:1;fill-rule:nonzero;stroke:none" transform="scale(1.3333333)" /> </g>
</svg>

