<?xml version="1.0" encoding="UTF-8" standalone="no"?> <svg version="1.1" id="I2ff0ee80684a4da990e309039bd0e2b220251106132945" width="100" height="100" viewBox="0 0 100 100" xmlns="http://www.w3.org/2000/svg" xmlns:svg="http://www.w3.org/2000/svg"> <defs id="I48341c01ccc342c6b4b4bed5e99e45d220251106132945" /> <g id="I5c94d8a57a0141efaea22f27248d2b7f20251106132945"> <path id="I1148513c4f58412d9cec303fba36a04a20251106132945" d="m 61.68,14.699 c 0.996,-0.41 1.472,-1.551 1.066,-2.547 -0.41,-1 -1.551,-1.476 -2.547,-1.07 L 11.273,31.121 c -2.91,1.191 -2.91,5.317 0,6.508 l 47.204,19.332 -13.618,6.512 c -0.972,0.465 -1.382,1.632 -0.918,2.605 0.465,0.973 1.633,1.383 2.606,0.918 l 17.969,-8.594 c 0.937,-0.449 1.359,-1.55 0.961,-2.511 l -7.813,-18.75 c -0.418,-0.996 -1.559,-1.469 -2.555,-1.051 -0.996,0.414 -1.468,1.558 -1.054,2.551 L 60.23,53.461 13.637,34.375 Z" style="fill:currentColor;fill-opacity:1;fill-rule:nonzero;stroke:none" transform="scale(1.3333333)" /> </g>
</svg>

