<?xml version="1.0" encoding="UTF-8" standalone="no"?> <svg version="1.1" id="I94de4899c5ea4e1ba9a093fe7b11de7120251106170412" width="100" height="100" viewBox="0 0 100 100" xmlns="http://www.w3.org/2000/svg" xmlns:svg="http://www.w3.org/2000/svg"> <defs id="I5a1f0100cc394d1c8c31d62e9833bc7c20251106170412" /> <g id="I3fe66e597dab46749f6495b549a57cbd20251106170412"> <path id="I4c41aac3ce5542a59622a8270c52efc820251106170412" d="m 9.375,19.531 c 0,-5.609 4.547,-10.156 10.156,-10.156 h 35.938 c 5.609,0 10.156,4.547 10.156,10.156 v 35.938 c 0,5.609 -4.547,10.156 -10.156,10.156 H 19.531 c -5.609,0 -10.156,-4.547 -10.156,-10.156 z m 10.156,-5.469 c -3.019,0 -5.469,2.45 -5.469,5.469 v 35.938 c 0,3.019 2.45,5.469 5.469,5.469 H 35.156 V 14.062 Z M 39.844,37.5 H 60.938 V 19.531 c 0,-3.019 -2.45,-5.469 -5.469,-5.469 H 39.844 Z" style="fill:currentColor;fill-opacity:1;fill-rule:nonzero;stroke:none" transform="scale(1.3333333)" /> </g>
</svg>

