<?xml version="1.0" encoding="UTF-8" standalone="no"?> <svg version="1.1" id="I836b995216334a709b557320a4077a4920251110124419" width="100" height="100" viewBox="0 0 100 100" xmlns="http://www.w3.org/2000/svg" xmlns:svg="http://www.w3.org/2000/svg"> <defs id="Ied5ae49ecabc43a7af76f9e194ee2fd720251110124419" /> <g id="I80c63d8a6d5f4b3bbba67e691931718420251110124419"> <path id="Idca53c871ca440fe929234d4906702d520251110124419" d="m 41.406,51.562 c 5.61,0 10.156,-4.546 10.156,-10.156 v -25 C 51.562,10.797 47.016,6.25 41.406,6.25 h -25 C 10.797,6.25 6.25,10.797 6.25,16.406 v 25 c 0,5.61 4.547,10.156 10.156,10.156 z m -17.968,3.126 h 4.687 v 3.906 c 0,3.019 2.449,5.468 5.469,5.468 h 25 c 3.019,0 5.468,-2.449 5.468,-5.468 v -25 c 0,-3.02 -2.449,-5.469 -5.468,-5.469 h -3.906 v -4.687 h 3.906 c 5.609,0 10.156,4.546 10.156,10.156 v 25 c 0,5.609 -4.547,10.156 -10.156,10.156 h -25 c -5.61,0 -10.156,-4.547 -10.156,-10.156 z" style="fill:currentColor;fill-opacity:1;fill-rule:nonzero;stroke:none" transform="scale(1.3333333)" /> </g>
</svg>

