<?xml version="1.0" encoding="UTF-8" standalone="no"?> <svg version="1.1" id="I7a028b3cdec84994aff43afaafc8e91020251110130509" width="100" height="100" viewBox="0 0 100 100" xmlns="http://www.w3.org/2000/svg" xmlns:svg="http://www.w3.org/2000/svg"> <defs id="I95f0c87768904e679dc62037176ef1c520251110130509" /> <g id="I184a708fce4040989ce10ff4b8cd33ac20251110130509"> <path id="Ia636f8a797ea42d3921398596b32ea7820251110130509" d="M 49.219,59.375 H 35.938 V 35.938 h 23.437 v 13.281 c 0,5.609 -4.547,10.156 -10.156,10.156 z M 59.375,31.25 H 35.938 v -25 h 13.281 c 5.609,0 10.156,4.547 10.156,10.156 z m -28.125,0 v -25 H 16.406 C 10.797,6.25 6.25,10.797 6.25,16.406 V 31.25 Z m 0,28.125 V 35.938 h -25 v 13.281 c 0,5.609 4.547,10.156 10.156,10.156 z m -5.465,9.375 c -4.226,0 -7.847,-2.578 -9.379,-6.25 h 32.821 c 7.332,0 13.281,-5.945 13.281,-13.281 V 16.406 c 3.668,1.532 6.246,5.153 6.246,9.375 v 25.781 c 0,9.493 -7.695,17.188 -17.188,17.188 z" style="fill:currentColor;fill-opacity:1;fill-rule:nonzero;stroke:none" transform="scale(1.3333333)" /> </g>
</svg>

