<?xml version="1.0" encoding="UTF-8" standalone="no"?> <svg version="1.1" id="Ide38d0e250f94ddeb8a9347455cd6bb220251110133655" width="100" height="100" viewBox="0 0 100 100" xmlns="http://www.w3.org/2000/svg" xmlns:svg="http://www.w3.org/2000/svg"> <defs id="Ie4e6b884d5dd491a893c5453bad1b22920251110133655" /> <g id="If3bc142e29cb4331904021fbfc434b4d20251110133655"> <path id="Ic2448f82f6e94ada8937d5c2126e600b20251110133655" d="m 7.031,17.578 c 0,-5.824 4.723,-10.547 10.547,-10.547 h 39.844 c 5.824,0 10.547,4.723 10.547,10.547 v 15.594 c -1.418,-0.66 -3.004,-1.195 -4.688,-1.613 V 25.781 H 11.719 v 31.641 c 0,3.234 2.625,5.859 5.859,5.859 h 15.234 v 2.344 c 0,0.715 0.102,1.508 0.364,2.344 H 17.578 c -5.824,0 -10.547,-4.723 -10.547,-10.547 z m 59.766,28.961 c -1.289,0.699 -2.879,1.289 -4.688,1.738 -2.414,0.598 -5.214,0.942 -8.203,0.942 -9.062,0 -16.406,-3.149 -16.406,-7.031 0,-3.883 7.344,-7.032 16.406,-7.032 2.989,0 5.789,0.344 8.203,0.942 1.809,0.449 3.399,1.039 4.688,1.738 2.203,1.199 3.515,2.711 3.515,4.352 0,1.64 -1.312,3.152 -3.515,4.351 z M 39.695,69.141 C 38.301,68.105 37.5,66.906 37.5,65.625 V 48.453 c 1.023,0.774 2.195,1.414 3.422,1.938 3.5,1.5 8.094,2.343 12.984,2.343 2.895,0 5.684,-0.293 8.203,-0.847 1.703,-0.371 3.282,-0.86 4.688,-1.457 l 0.094,-0.039 c 1.226,-0.524 2.398,-1.164 3.421,-1.938 v 17.172 c 0,3.883 -7.343,7.031 -16.406,7.031 -6.074,0 -11.375,-1.414 -14.211,-3.515 z" style="fill:currentColor;fill-opacity:1;fill-rule:nonzero;stroke:none" transform="scale(1.3333333)" /> </g>
</svg>

