<?xml version="1.0" encoding="utf-8"?>
<!-- Generator: Adobe Illustrator 29.7.1, SVG Export Plug-In . SVG Version: 9.03 Build 0)  -->
<svg version="1.1" id="I978f56ee74d94a2ea980522f7da6b49c20251030124107" xmlns="http://www.w3.org/2000/svg" xmlns:xlink="http://www.w3.org/1999/xlink" x="0px" y="0px"
	 width="100px" height="100px" viewBox="0 0 100 100" enable-background="new 0 0 100 100" xml:space="preserve">
<path fill="#6D7882" d="M100,86.7H0v-64c0-2.8,2.2-5,5-5h90c2.8,0,5,2.2,5,5V86.7z"/>
<path fill="#46494E" d="M100,86.7H0l0,1c0,2.2,1.8,4,4,4h92c2.2,0,4-1.8,4-4V86.7z"/>
<path fill="#3174BA" d="M26.2,17.7H9.5v-2.7c0-1.1,0.9-2,2-2h12.7c1.1,0,2,0.9,2,2V17.7z"/>
<circle fill="#FFFFFF" cx="50" cy="53.2" r="27.3"/>
<linearGradient id="Ia4098afe88c4469a95b21ee0b93d664120251030124107" gradientUnits="userSpaceOnUse" x1="30.9298" y1="53.2474" x2="69.075" y2="53.2474">
	<stop  offset="0" style="stop-color:#A68CC1"/>
	<stop  offset="1" style="stop-color:#48A9DF"/>
</linearGradient>
<circle fill="url(#Ia4098afe88c4469a95b21ee0b93d664120251030124107)" cx="50" cy="53.2" r="19.1"/>
<circle fill="#FFFFFF" cx="85.8" cy="31.9" r="5"/>
<polyline fill="#6D7882" points="39.3,8.3 60.5,8.3 69.1,17.7 30.9,17.7 "/>
</svg>













