<?xml version="1.0" encoding="UTF-8" standalone="no"?> <svg version="1.1" id="Ie6ef32b96298439d8e54823e67641cab20251106151526" width="100" height="100" viewBox="0 0 100 100" xmlns="http://www.w3.org/2000/svg" xmlns:svg="http://www.w3.org/2000/svg"> <defs id="I715efdf58f62416ca6d5e91148bba8ee20251106151526" /> <g id="I60d205673b504829a699fba6efac914d20251106151526"> <path id="Ia8a34073351b4112be06eae3b443497920251106151526" d="m 26.004,14.73 h -5.246 c -1.848,0 -3.348,1.5 -3.348,3.352 v 44.195 c 0,1.848 1.5,3.348 3.348,3.348 h 7.367 c 0,1.48 0.699,2.887 1.91,3.777 0.11,0.082 0.223,0.16 0.332,0.243 h -9.609 c -4.067,0 -7.363,-3.301 -7.363,-7.368 V 18.082 c 0,-4.07 3.296,-7.367 7.363,-7.367 h 4.824 c 0.617,-3.059 3.32,-5.36 6.563,-5.36 h 10.71 c 3.243,0 5.946,2.301 6.563,5.36 h 4.824 c 4.067,0 7.363,3.297 7.363,7.367 V 38.84 c -0.25,0.187 -0.488,0.394 -0.714,0.621 l -3.301,3.301 v -24.68 c 0,-1.852 -1.5,-3.352 -3.348,-3.352 h -5.246 c -1.031,2.368 -3.394,4.02 -6.141,4.02 h -10.71 c -2.747,0 -5.11,-1.652 -6.141,-4.02 z m 3.461,-2.675 c 0,1.476 1.199,2.675 2.68,2.675 h 10.71 c 1.481,0 2.68,-1.199 2.68,-2.675 0,-1.481 -1.199,-2.68 -2.68,-2.68 h -10.71 c -1.481,0 -2.68,1.199 -2.68,2.68 z m 39,29.3 c 1.57,1.571 1.57,4.114 0,5.684 L 58.238,57.266 c 1.414,3.605 0.664,7.859 -2.25,10.773 -2.133,2.133 -5.414,4.047 -9.644,4.332 -4.25,0.285 -9.227,-1.086 -14.723,-5.129 -0.586,-0.43 -0.891,-1.144 -0.801,-1.867 0.09,-0.719 0.563,-1.336 1.235,-1.609 4.23,-1.723 5.656,-3.293 6.453,-4.582 0.324,-0.524 0.539,-0.985 0.801,-1.532 0.125,-0.265 0.261,-0.547 0.418,-0.867 0.464,-0.926 1.054,-1.949 2.054,-2.949 2.914,-2.914 7.168,-3.664 10.774,-2.254 l 10.23,-10.227 c 1.567,-1.57 4.113,-1.57 5.68,0 z M 36.898,65.898 c 3.622,2.055 6.7,2.629 9.176,2.465 3.129,-0.211 5.531,-1.621 7.074,-3.164 2.352,-2.355 2.352,-6.172 0,-8.523 -2.355,-2.356 -6.171,-2.356 -8.523,0 -0.57,0.566 -0.934,1.164 -1.301,1.906 -0.09,0.172 -0.183,0.371 -0.285,0.59 -0.301,0.629 -0.668,1.402 -1.113,2.125 -0.992,1.601 -2.438,3.129 -5.028,4.601 z" style="fill:currentColor;fill-opacity:1;fill-rule:nonzero;stroke:none" transform="scale(1.3333333)" /> </g>
</svg>

