<?xml version="1.0" encoding="UTF-8" standalone="no"?> <svg version="1.1" id="I8498e022ec1e42408e402a911a23847020251106170411" width="100" height="100" viewBox="0 0 100 100" xmlns="http://www.w3.org/2000/svg" xmlns:svg="http://www.w3.org/2000/svg"> <defs id="I0874e55c9870446a85dfb8e9a4bcff5620251106170411" /> <g id="Ia7b1afbc07e841a193cbd7035188205c20251106170411"> <path id="Id0c6bf3caaca45cbb67cfbbfa56c5a9420251106170411" d="m 20.711,15.625 c 0.965,-2.73 3.566,-4.687 6.629,-4.687 h 26.562 c 7.336,0 13.282,5.945 13.282,13.281 v 14.062 c 0,3.059 -1.954,5.664 -4.684,6.629 V 25.781 c 0,-0.078 0,-0.16 -0.004,-0.238 v -1.324 c 0,-4.746 -3.848,-8.594 -8.594,-8.594 z M 12.5,25.781 c 0,-3.883 3.148,-7.031 7.031,-7.031 h 32.813 c 3.883,0 7.031,3.148 7.031,7.031 v 20.313 c 0,3.883 -3.148,7.031 -7.031,7.031 H 19.531 c -3.883,0 -7.031,-3.148 -7.031,-7.031 z m 7.031,-2.343 c -1.293,0 -2.343,1.05 -2.343,2.343 v 20.313 c 0,1.293 1.05,2.344 2.343,2.344 h 32.813 c 1.293,0 2.344,-1.051 2.344,-2.344 V 25.781 c 0,-1.293 -1.051,-2.343 -2.344,-2.343 z M 8.594,57.812 c -1.293,0 -2.344,1.051 -2.344,2.344 0,1.293 1.051,2.344 2.344,2.344 h 54.687 c 1.293,0 2.344,-1.051 2.344,-2.344 0,-1.293 -1.051,-2.344 -2.344,-2.344 z" style="fill:currentColor;fill-opacity:1;fill-rule:nonzero;stroke:none" transform="scale(1.3333333)" /> </g>
</svg>

