<?xml version="1.0" encoding="UTF-8" standalone="no"?> <svg version="1.1" id="I38503d6e21194e539c1f1f081398645620251110133654" width="100" height="100" viewBox="0 0 100 100" xmlns="http://www.w3.org/2000/svg" xmlns:svg="http://www.w3.org/2000/svg"> <defs id="I3ca5034a44064c558384a53652add05e20251110133654" /> <g id="I082b4dfc4b224048ab26f5cf5511d20f20251110133654"> <path id="I73264ff47d604f3cbe588e71da419cf520251110133654" d="m 23.449,16.07 c -5.547,0 -10.047,4.5 -10.047,10.047 v 17.41 c 0,5.547 4.5,10.043 10.047,10.043 h 17.41 c 5.547,0 10.043,-4.496 10.043,-10.043 V 26.117 C 50.902,20.57 46.406,16.07 40.859,16.07 Z m -12.722,8.7 c -2.45,1.832 -4.032,4.75 -4.032,8.042 v 10.715 c 0,9.246 7.496,16.739 16.743,16.739 h 10.714 c 3.321,0 6.262,-1.61 8.09,-4.09 -0.453,0.047 -0.914,0.074 -1.383,0.074 H 23.438 C 16.41,56.25 10.715,50.555 10.715,43.527 V 32.812 c 0,-0.121 0.004,-0.242 0.012,-0.359 z m 58.929,-0.653 c 0,-4.265 -4.742,-6.82 -8.304,-4.476 L 53.57,24.762 V 44.883 L 61.352,50 c 3.562,2.344 8.304,-0.211 8.304,-4.473 z" style="fill:currentColor;fill-opacity:1;fill-rule:nonzero;stroke:none" transform="scale(1.3333333)" /> </g>
</svg>

