<?xml version="1.0" encoding="UTF-8" standalone="no"?> <svg version="1.1" id="Ie7938463535044da8ca78b39a65ffdc320251110123030" width="100" height="100" viewBox="0 0 100 100" xmlns="http://www.w3.org/2000/svg" xmlns:svg="http://www.w3.org/2000/svg"> <defs id="I9f6517063ea941659add60ec6321dcba20251110123030" /> <g id="I8c062686dc33437ca88e183748e7ea8620251110123030"> <path id="Id39267ac8e3a4b35a09524f9b4ee8d4120251110123030" d="m 41.258,42.602 c 6.801,-6.801 17.824,-6.801 24.625,0 6.797,6.796 6.797,17.824 0,24.621 -0.785,0.785 -2.059,0.785 -2.844,0 -0.781,-0.785 -0.781,-2.055 0,-2.84 5.231,-5.231 5.231,-13.711 0,-18.942 -5.23,-5.23 -13.711,-5.23 -18.937,0 -5.231,5.231 -5.231,13.711 0,18.942 0.781,0.785 0.781,2.055 0,2.84 -0.786,0.785 -2.059,0.785 -2.844,0 -6.797,-6.797 -6.797,-17.825 0,-24.621 z m 4.734,4.734 c 4.184,-4.184 10.969,-4.184 15.153,0 4.183,4.184 4.183,10.969 0,15.152 -0.786,0.782 -2.059,0.785 -2.84,0 -0.785,-0.785 -0.785,-2.058 0,-2.843 2.613,-2.614 2.613,-6.852 0,-9.469 -2.617,-2.614 -6.856,-2.614 -9.469,0 -2.617,2.617 -2.617,6.855 0,9.469 0.781,0.785 0.781,2.058 0,2.843 -0.785,0.785 -2.059,0.785 -2.844,0 -4.183,-4.183 -4.183,-10.968 0,-15.152 z m -6.097,-7.141 c -3.942,3.668 -6.415,8.903 -6.415,14.715 0,1.922 0.278,3.781 0.782,5.543 -2.395,0.711 -5.297,1.152 -8.817,1.152 -20.09,0 -20.09,-14.062 -20.09,-14.062 v -1.336 c 0,-3.328 2.7,-6.027 6.028,-6.027 h 28.125 c 0.133,0 0.262,0.008 0.387,0.015 z m -14.45,-29.48 c 6.657,0 12.055,5.394 12.055,12.055 0,6.656 -5.398,12.05 -12.055,12.05 -6.656,0 -12.05,-5.394 -12.05,-12.05 0,-6.661 5.394,-12.055 12.05,-12.055 z M 53.57,16.07 c 5.18,0 9.375,4.2 9.375,9.375 0,5.18 -4.195,9.375 -9.375,9.375 -5.175,0 -9.375,-4.195 -9.375,-9.375 0,-5.175 4.2,-9.375 9.375,-9.375 z" style="fill:currentColor;fill-opacity:1;fill-rule:nonzero;stroke:none" transform="scale(1.3333333)" /> </g>
</svg>

