<?xml version="1.0" encoding="UTF-8" standalone="no"?> <svg version="1.1" id="I09b1716682a9422f84081afceb7fc9b620251106125938" width="100" height="100" viewBox="0 0 100 100" xmlns="http://www.w3.org/2000/svg" xmlns:svg="http://www.w3.org/2000/svg"> <defs id="I3082063312d04ac3ae8c29a9674d7ce520251106125938" /> <g id="I422cccf041274f149fb1bc89a29eb5b920251106125938"> <path id="Ia46686165f6d467eb7061860d0eb570e20251106125938" d="m 37.07,14.062 c -5.859,0.106 -11.675,2.395 -16.144,6.86 -9.153,9.156 -9.153,23.992 0,33.148 0.808,0.805 1.656,1.539 2.539,2.2 1.242,0.933 1.496,2.695 0.562,3.937 -0.929,1.246 -2.695,1.496 -3.937,0.566 -1.094,-0.824 -2.145,-1.73 -3.141,-2.726 C 5.602,46.695 5.602,28.297 16.949,16.945 22,11.895 28.457,9.09 35.055,8.535 L 32.859,6.34 c -1.097,-1.098 -1.097,-2.879 0,-3.977 1.098,-1.101 2.879,-1.101 3.977,0 l 7.957,7.953 c 1.098,1.098 1.098,2.879 0,3.977 l -7.957,7.957 c -1.098,1.098 -2.879,1.098 -3.977,0 -1.097,-1.098 -1.097,-2.879 0,-3.977 z m 0.86,46.868 c 5.859,-0.106 11.675,-2.395 16.144,-6.86 9.153,-9.156 9.153,-23.996 0,-33.148 -0.808,-0.805 -1.656,-1.539 -2.539,-2.199 -1.242,-0.934 -1.496,-2.696 -0.562,-3.938 0.929,-1.246 2.695,-1.496 3.937,-0.566 1.094,0.824 2.145,1.73 3.141,2.726 11.347,11.352 11.347,29.75 0,41.102 -5.055,5.051 -11.508,7.855 -18.106,8.41 l 2.196,2.195 c 1.097,1.098 1.097,2.879 0,3.977 -1.098,1.101 -2.879,1.101 -3.977,0 l -7.957,-7.953 c -1.098,-1.098 -1.098,-2.879 0,-3.977 l 7.957,-7.957 c 1.098,-1.097 2.879,-1.097 3.977,0 1.097,1.098 1.097,2.879 0,3.977 z" style="fill:currentColor;fill-opacity:1;fill-rule:nonzero;stroke:none" transform="scale(1.3333333)" /> </g>
</svg>

