<?xml version="1.0" encoding="UTF-8" standalone="no"?> <svg version="1.1" id="I591c09e842b84ec891f59fa493eb199020251106170956" width="100" height="100" viewBox="0 0 100 100" xmlns="http://www.w3.org/2000/svg" xmlns:svg="http://www.w3.org/2000/svg"> <defs id="Id00fc4604c7a4afdb2c4b58ae80eef5020251106170956" /> <g id="I0202ab05b3a04325bd5b132e98cf9fcb20251106170956"> <path id="I480a219d360c49fe8384e61f5f4248d920251106170956" d="M 37.5,20.625 C 37.5,29.945 29.945,37.5 20.625,37.5 11.305,37.5 3.75,29.945 3.75,20.625 3.75,11.305 11.305,3.75 20.625,3.75 c 9.32,0 16.875,7.555 16.875,16.875 z m -18.203,8.824 0.012,0.008 c 0.175,0.176 0.379,0.309 0.597,0.402 0.219,0.09 0.457,0.141 0.707,0.141 h 0.024 c 0.25,0 0.488,-0.051 0.707,-0.141 0.218,-0.093 0.426,-0.23 0.605,-0.41 l 7.5,-7.5 c 0.735,-0.73 0.735,-1.918 0,-2.648 -0.73,-0.735 -1.918,-0.735 -2.648,0 L 22.5,23.598 V 13.125 c 0,-1.035 -0.84,-1.875 -1.875,-1.875 -1.035,0 -1.875,0.84 -1.875,1.875 v 10.473 l -4.301,-4.297 c -0.73,-0.735 -1.918,-0.735 -2.648,0 -0.735,0.73 -0.735,1.918 0,2.648 z m 28.527,-1.422 c -1.937,-1.5 -4.332,-2.437 -7.121,-2.66 -0.469,1.996 -1.23,3.883 -2.234,5.61 0.293,-0.028 0.597,-0.039 0.906,-0.039 5.336,0 8.437,3.925 8.437,10.312 0,6.262 -3.253,10.312 -8.437,10.312 -5.184,0 -8.437,-4.05 -8.437,-10.312 0,-1.031 0.082,-2.004 0.238,-2.898 -1.793,1.07 -3.766,1.875 -5.856,2.363 -0.004,0.176 -0.008,0.355 -0.008,0.535 0,9.129 5.465,15.938 14.063,15.938 4.508,0 8.152,-1.872 10.598,-4.965 2.058,4.293 5.511,6.839 10.027,6.839 7.598,0 12.188,-7.21 12.188,-17.812 0,-17.086 -13.852,-30.938 -30.938,-30.938 -0.906,0 -1.805,0.04 -2.691,0.118 0.968,1.699 1.703,3.554 2.156,5.511 0.18,-0.003 0.355,-0.003 0.535,-0.003 13.98,0 25.312,11.332 25.312,25.312 0,7.883 -2.742,12.188 -6.562,12.188 -3.82,0 -6.562,-4.305 -6.562,-12.188 V 28.125 L 53.41,27.742 c -0.183,-1.371 -1.359,-2.43 -2.785,-2.43 -1.52,0 -2.758,1.208 -2.801,2.715 z M 10.43,38.559 c 1.699,0.968 3.554,1.703 5.511,2.156 -0.003,0.18 -0.003,0.355 -0.003,0.535 0,13.98 11.332,25.312 25.312,25.312 2.977,0 5.879,-0.511 8.617,-1.503 1.461,-0.528 3.074,0.226 3.602,1.687 0.531,1.461 -0.227,3.074 -1.688,3.602 -3.347,1.211 -6.898,1.84 -10.531,1.84 -17.086,0 -30.938,-13.852 -30.938,-30.938 0,-0.906 0.04,-1.805 0.118,-2.691 z" style="fill:currentColor;fill-opacity:1;fill-rule:nonzero;stroke:none" transform="scale(1.3333333)" /> </g>
</svg>

