<?xml version="1.0" encoding="UTF-8" standalone="no"?> <svg version="1.1" id="Ib4f358c0d03641e4ad4c4ca71c3bbf8220251106125938" width="100" height="100" viewBox="0 0 100 100" xmlns="http://www.w3.org/2000/svg" xmlns:svg="http://www.w3.org/2000/svg"> <defs id="I0cc4da32acbb4f008701e81f025a4cf920251106125938" /> <g id="I03002b0466d64fd49ee4d78a5071796020251106125938"> <path id="I2b69c014411b4cbd8068aa8462494b4d20251106125938" d="m 22.789,25.918 12.488,-12.5 c 1.125,-1.129 2.899,-1.215 4.125,-0.266 l 0.293,0.262 12.516,12.5 c 1.223,1.219 1.223,3.199 0.004,4.418 -1.125,1.129 -2.899,1.215 -4.125,0.266 L 47.797,30.336 40.629,23.18 v 36.199 c 0,1.601 -1.207,2.922 -2.762,3.101 l -0.363,0.024 c -1.602,0 -2.926,-1.207 -3.106,-2.762 L 34.379,59.379 V 23.156 l -7.168,7.176 c -1.125,1.129 -2.899,1.215 -4.125,0.262 l -0.293,-0.258 c -1.129,-1.125 -1.215,-2.898 -0.262,-4.125 l 0.258,-0.293 12.488,-12.5 z" style="fill:currentColor;fill-opacity:1;fill-rule:nonzero;stroke:none" transform="scale(1.3333333)" /> </g>
</svg>

