<?xml version="1.0" encoding="UTF-8" standalone="no"?> <svg version="1.1" id="I990f54910c344a2c980ffbb82c1b636320251106155156" width="100" height="100" viewBox="0 0 100 100" xmlns="http://www.w3.org/2000/svg" xmlns:svg="http://www.w3.org/2000/svg"> <defs id="I99da455a6f7646b9a00bdbc2b05f166e20251106155156" /> <g id="I0c20cad93fb94665b82ef7791782f17120251106155156"> <path id="Iad37b406380b40c6823534ef922c72fb20251106155156" d="M 37.5,6.25 V 25 c 0,3.453 2.797,6.25 6.25,6.25 H 62.5 V 62.5 c 0,3.453 -2.797,6.25 -6.25,6.25 H 34.969 c 3.504,-3.648 5.656,-8.605 5.656,-14.062 0,-11.219 -9.094,-20.313 -20.313,-20.313 -2.769,0 -5.406,0.555 -7.812,1.559 V 12.5 c 0,-3.453 2.797,-6.25 6.25,-6.25 z m 4.688,1.562 V 25 c 0,0.863 0.699,1.562 1.562,1.562 H 60.938 Z M 37.5,54.688 C 37.5,64.18 29.805,71.875 20.312,71.875 10.82,71.875 3.125,64.18 3.125,54.688 3.125,45.195 10.82,37.5 20.312,37.5 29.805,37.5 37.5,45.195 37.5,54.688 Z M 20.312,43.75 c -0.863,0 -1.562,0.699 -1.562,1.562 v 12.5 c 0,0.864 0.699,1.563 1.562,1.563 0.864,0 1.563,-0.699 1.563,-1.563 v -12.5 c 0,-0.863 -0.699,-1.562 -1.563,-1.562 z m 0,22.266 c 1.079,0 1.954,-0.875 1.954,-1.954 0,-1.078 -0.875,-1.953 -1.954,-1.953 -1.078,0 -1.953,0.875 -1.953,1.953 0,1.079 0.875,1.954 1.953,1.954 z" style="fill:currentColor;fill-opacity:1;fill-rule:nonzero;stroke:none" transform="scale(1.3333333)" /> </g>
</svg>

