<?xml version="1.0" encoding="UTF-8" standalone="no"?> <svg version="1.1" id="Ied11881a4e324c6eab03d538f04245dd20251106105132" width="100" height="100" viewBox="0 0 100 100" xmlns="http://www.w3.org/2000/svg" xmlns:svg="http://www.w3.org/2000/svg"> <defs id="I8eba184b351d4824957d787bd6338ae320251106105132" /> <g id="I1acd5c9adc744b6c8b2e786b21967f5b20251106105132"> <path id="I075b3064aa5e4502a1c5b67e540c771620251106105132" d="m 36.379,30.805 c -3.414,-6.071 -7.09,-11.168 -7.633,-11.914 -5.762,2.722 -10.07,8.027 -11.402,14.414 0.922,0.019 9.41,0.058 19.035,-2.5 z m 5.566,1.824 c 0.477,0.98 0.938,1.976 1.364,2.98 0.152,0.352 0.3,0.703 0.445,1.063 6.848,-0.863 13.66,0.519 14.336,0.66 -0.039,-4.863 -1.781,-9.324 -4.645,-12.832 -0.441,0.594 -3.89,5.023 -11.5,8.129 z M 68.305,4.02 H 6.695 C 5.215,4.02 4.02,5.215 4.02,6.695 v 61.61 c 0,1.48 1.195,2.675 2.675,2.675 h 61.61 c 1.48,0 2.675,-1.195 2.675,-2.675 V 6.695 C 70.98,5.215 69.785,4.02 68.305,4.02 Z M 37.5,61.605 c -13.293,0 -24.105,-10.812 -24.105,-24.105 0,-13.293 10.812,-24.105 24.105,-24.105 13.293,0 24.105,10.812 24.105,24.105 0,13.293 -10.812,24.105 -24.105,24.105 z m 7.508,-21.687 c 2.695,7.402 3.793,13.426 4,14.684 4.621,-3.122 7.91,-8.071 8.824,-13.805 -0.703,-0.215 -6.371,-1.906 -12.824,-0.879 z m -6.067,-2.207 c 0.266,-0.086 0.536,-0.168 0.809,-0.246 -0.516,-1.172 -1.078,-2.344 -1.664,-3.488 -10.277,3.078 -20.266,2.945 -21.16,2.929 -0.008,0.207 -0.008,0.418 -0.008,0.629 0,5.289 2,10.117 5.289,13.77 C 22.668,50.5 28.316,41.141 38.941,37.711 Z M 51.152,22.125 c -5.031,-4.477 -11.937,-6.203 -18.48,-4.613 0.566,0.761 4.308,5.851 7.683,12.054 7.325,-2.746 10.422,-6.914 10.797,-7.441 z M 41.016,40.914 C 29.406,44.957 25.23,53.02 24.859,53.773 c 3.493,2.719 7.879,4.344 12.641,4.344 2.855,0 5.574,-0.578 8.043,-1.633 -0.309,-1.808 -1.496,-8.101 -4.395,-15.621 z" style="fill:currentColor;fill-opacity:1;fill-rule:nonzero;stroke:none" transform="scale(1.3333333)" /> </g>
</svg>

