<?xml version="1.0" encoding="UTF-8" standalone="no"?> <svg version="1.1" id="I0a0b433117b74b868a2f9248aa18381420251106163937" width="100" height="100" viewBox="0 0 100 100" xmlns="http://www.w3.org/2000/svg" xmlns:svg="http://www.w3.org/2000/svg"> <defs id="I7552c3400a324c74b1f5c5e42cfab64e20251106163937" /> <g id="I5fc4c46cc70b4f59a73aa361fb55cc9120251106163937"> <path id="Ieb9c783d74934c2fbf98ae864117444c20251106163937" d="m 37.5,6.262 c 17.258,0 31.25,13.992 31.25,31.25 0,17.258 -13.992,31.25 -31.25,31.25 C 20.242,68.762 6.25,54.77 6.25,37.512 6.25,20.254 20.242,6.262 37.5,6.262 Z m 0,35.918 c -5.109,0 -9.898,2.054 -13.402,5.632 -0.903,0.926 -0.887,2.411 0.035,3.317 0.926,0.902 2.41,0.887 3.316,-0.035 2.629,-2.688 6.215,-4.227 10.051,-4.227 3.828,0 7.406,1.531 10.035,4.207 0.906,0.926 2.391,0.938 3.313,0.031 0.925,-0.91 0.937,-2.39 0.031,-3.316 C 47.375,44.227 42.598,42.18 37.5,42.18 Z M 25.684,20.824 25.398,20.629 c -0.988,-0.578 -2.273,-0.359 -3.011,0.562 -0.735,0.918 -0.664,2.219 0.113,3.055 l 0.254,0.238 3.926,3.137 c -1.438,0.574 -2.457,1.984 -2.457,3.629 0,2.156 1.746,3.902 3.902,3.902 2.156,0 3.906,-1.746 3.906,-3.906 0.688,0 1.367,-0.301 1.832,-0.879 0.735,-0.918 0.664,-2.219 -0.113,-3.058 l -0.254,-0.235 -7.812,-6.25 -0.286,-0.195 z m 26.925,0.367 C 51.875,20.27 50.59,20.051 49.602,20.629 l -0.286,0.195 -7.808,6.25 -0.254,0.235 c -0.777,0.839 -0.848,2.14 -0.113,3.058 0.386,0.485 0.925,0.774 1.492,0.852 l 0.34,0.023 c 0,2.164 1.746,3.91 3.902,3.91 2.156,0 3.906,-1.746 3.906,-3.902 0,-1.508 -0.855,-2.816 -2.109,-3.469 l -0.348,-0.16 3.922,-3.137 0.254,-0.238 c 0.777,-0.836 0.848,-2.137 0.109,-3.055 z" style="fill:currentColor;fill-opacity:1;fill-rule:nonzero;stroke:none" transform="scale(1.3333333)" /> </g>
</svg>

