<?xml version="1.0" encoding="UTF-8" standalone="no"?> <svg version="1.1" id="Ic5c5edd9ee294e8794d33f5aaac6c2fc20251110135155" width="100" height="100" viewBox="0 0 100 100" xmlns="http://www.w3.org/2000/svg" xmlns:svg="http://www.w3.org/2000/svg"> <defs id="Id0e09aa191a14ff3aa34bb83a02392aa20251110135155" /> <g id="I2884f617b8de464bb8d90032ffff256120251110135155"> <path id="Ia181bb5a2e6c41ddba8f4e520d5c50c320251110135155" d="m 8.594,53.125 h 39.062 c 1.293,0 2.344,1.051 2.344,2.344 0,1.187 -0.883,2.168 -2.027,2.324 l -0.317,0.019 H 8.594 c -1.293,0 -2.344,-1.05 -2.344,-2.343 0,-1.188 0.883,-2.168 2.027,-2.324 l 0.317,-0.02 h 39.062 z m 0,-12.5 h 57.812 c 1.293,0 2.344,1.051 2.344,2.344 0,1.187 -0.883,2.168 -2.027,2.324 l -0.317,0.019 H 8.594 c -1.293,0 -2.344,-1.05 -2.344,-2.343 0,-1.188 0.883,-2.168 2.027,-2.324 l 0.317,-0.02 h 57.812 z m 0,-12.5 h 57.812 c 1.293,0 2.344,1.051 2.344,2.344 0,1.187 -0.883,2.168 -2.027,2.324 l -0.317,0.019 H 8.594 c -1.293,0 -2.344,-1.05 -2.344,-2.343 0,-1.188 0.883,-2.168 2.027,-2.324 l 0.317,-0.02 h 57.812 z m 0,-12.5 h 57.812 c 1.293,0 2.344,1.051 2.344,2.344 0,1.187 -0.883,2.168 -2.027,2.324 l -0.317,0.019 H 8.594 c -1.293,0 -2.344,-1.05 -2.344,-2.343 0,-1.188 0.883,-2.168 2.027,-2.324 l 0.317,-0.02 h 57.812 z" style="fill:currentColor;fill-opacity:1;fill-rule:nonzero;stroke:none" transform="scale(1.3333333)" /> </g>
</svg>

