<?xml version="1.0" encoding="UTF-8" standalone="no"?> <svg version="1.1" id="Ib737c3d153f5406c88c75c937c770f2a20251110130507" width="100" height="100" viewBox="0 0 100 100" xmlns="http://www.w3.org/2000/svg" xmlns:svg="http://www.w3.org/2000/svg"> <defs id="Id08f2c9564e34f759585a0c925a558ee20251110130507" /> <g id="I68c211acd00142d69632ad0a151b1a9920251110130507"> <path id="Ibfcc698906b24f57b872765a98a121a720251110130507" d="M 12.5,16.406 C 12.5,10.797 17.047,6.25 22.656,6.25 h 29.688 c 5.609,0 10.156,4.547 10.156,10.156 v 42.188 c 0,5.609 -4.547,10.156 -10.156,10.156 H 22.656 C 17.047,68.75 12.5,64.203 12.5,58.594 Z m 10.156,-5.468 c -3.019,0 -5.468,2.449 -5.468,5.468 v 42.188 c 0,3.019 2.449,5.468 5.468,5.468 h 29.688 c 3.019,0 5.468,-2.449 5.468,-5.468 V 16.406 c 0,-3.019 -2.449,-5.468 -5.468,-5.468 z M 37.5,39.062 c -3.453,0 -6.25,2.797 -6.25,6.25 0,3.454 2.797,6.25 6.25,6.25 3.453,0 6.25,-2.796 6.25,-6.25 0,-3.453 -2.797,-6.25 -6.25,-6.25 z m -10.938,6.25 c 0,-6.039 4.899,-10.937 10.938,-10.937 6.039,0 10.938,4.898 10.938,10.937 0,6.04 -4.899,10.938 -10.938,10.938 -6.039,0 -10.938,-4.898 -10.938,-10.938 z M 37.5,28.125 c 2.59,0 4.688,-2.098 4.688,-4.687 0,-2.59 -2.098,-4.688 -4.688,-4.688 -2.59,0 -4.688,2.098 -4.688,4.688 0,2.589 2.098,4.687 4.688,4.687 z" style="fill:currentColor;fill-opacity:1;fill-rule:nonzero;stroke:none" transform="scale(1.3333333)" /> </g>
</svg>

