<?xml version="1.0" encoding="UTF-8" standalone="no"?> <svg version="1.1" id="If56b5d0559a6488389ef42b40c669e7120251110135155" width="100" height="100" viewBox="0 0 100 100" xmlns="http://www.w3.org/2000/svg" xmlns:svg="http://www.w3.org/2000/svg"> <defs id="I6292df732e734cea916c7101bf21a02620251110135155" /> <g id="I956e20d9e9284979aeeb0d0ef9e82c1d20251110135155"> <path id="I798bc66a3159423687ae7338eaab1a7220251110135155" d="m 9.375,6.25 c 1.727,0 3.125,1.398 3.125,3.125 v 7.813 h 9.375 V 9.379 c 0,-1.727 1.398,-3.125 3.125,-3.125 1.727,0 3.125,1.398 3.125,3.125 v 21.855 c 0,1.727 -1.398,3.125 -3.125,3.125 -1.727,0 -3.125,-1.398 -3.125,-3.125 V 23.438 H 12.5 v 7.812 c 0,1.727 -1.398,3.125 -3.125,3.125 -1.727,0 -3.125,-1.398 -3.125,-3.125 V 9.375 C 6.25,7.648 7.648,6.25 9.375,6.25 Z m 45.492,10.82 c 0.363,-0.879 1.219,-1.449 2.164,-1.449 h 9.379 c 0.949,0 1.805,0.57 2.168,1.449 0.363,0.875 0.16,1.883 -0.508,2.555 l -4.691,4.687 c -0.914,0.918 -2.399,0.918 -3.317,0 L 55.375,19.625 C 54.703,18.953 54.504,17.945 54.867,17.07 Z M 9.375,59.375 c -1.727,0 -3.125,1.398 -3.125,3.125 0,1.727 1.398,3.125 3.125,3.125 h 56.25 c 1.727,0 3.125,-1.398 3.125,-3.125 0,-1.727 -1.398,-3.125 -3.125,-3.125 z M 6.25,46.875 c 0,-1.727 1.398,-3.125 3.125,-3.125 h 56.25 c 1.727,0 3.125,1.398 3.125,3.125 0,1.727 -1.398,3.125 -3.125,3.125 H 9.375 C 7.648,50 6.25,48.602 6.25,46.875 Z M 40.625,31.25 c 0,1.719 1.406,3.125 3.125,3.125 1.719,0 3.125,-1.406 3.125,-3.125 V 9.375 c 0,-1.437 -1,-2.687 -2.406,-3.031 -1.407,-0.344 -2.875,0.344 -3.5,1.594 -1.563,3.124 -4.781,4.843 -4.875,4.874 -1.532,0.782 -2.156,2.657 -1.375,4.188 0.75,1.562 2.656,2.188 4.187,1.406 0.032,-0.019 0.09,-0.051 0.168,-0.094 0.289,-0.156 0.864,-0.468 1.551,-0.937 z" style="fill:currentColor;fill-opacity:1;fill-rule:nonzero;stroke:none" transform="scale(1.3333333)" /> </g>
</svg>

