<?xml version="1.0" encoding="UTF-8" standalone="no"?> <svg version="1.1" id="I5997fbf19f7e44b899c171e6ae579e4820251106152728" width="100" height="100" viewBox="0 0 100 100" xmlns="http://www.w3.org/2000/svg" xmlns:svg="http://www.w3.org/2000/svg"> <defs id="I6828a05509854457b263ab4ea04ca45720251106152728" /> <g id="I246b9bb9c3fa479a802197b3dacd5cd620251106152728"> <path id="I361712f703134b2c9eb60edbc9df7e1220251106152728" d="M 14.062,65.625 C 9.746,65.625 6.25,62.129 6.25,57.812 V 17.188 c 0,-4.317 3.496,-7.813 7.812,-7.813 h 3.126 c 4.316,0 7.812,3.496 7.812,7.813 v 40.624 c 0,4.317 -3.496,7.813 -7.812,7.813 z m -3.124,-7.813 c 0,1.727 1.398,3.126 3.124,3.126 h 3.126 c 1.726,0 3.124,-1.399 3.124,-3.126 V 17.188 c 0,-1.727 -1.398,-3.126 -3.124,-3.126 h -3.126 c -1.726,0 -3.124,1.399 -3.124,3.126 z m 25,7.813 c -4.317,0 -7.813,-3.496 -7.813,-7.813 V 17.188 c 0,-4.317 3.496,-7.813 7.813,-7.813 h 3.124 c 4.317,0 7.813,3.496 7.813,7.813 v 40.624 c 0,4.317 -3.496,7.813 -7.813,7.813 z m -3.126,-7.813 c 0,1.727 1.399,3.126 3.126,3.126 h 3.124 c 1.727,0 3.126,-1.399 3.126,-3.126 V 17.188 c 0,-1.727 -1.399,-3.126 -3.126,-3.126 h -3.124 c -1.727,0 -3.126,1.399 -3.126,3.126 z m 17.188,0 c 0,4.317 3.496,7.813 7.812,7.813 h 3.126 c 4.316,0 7.812,-3.496 7.812,-7.813 V 17.188 c 0,-4.317 -3.496,-7.813 -7.812,-7.813 H 57.812 C 53.496,9.375 50,12.871 50,17.188 Z m 7.812,3.126 c -1.726,0 -3.124,-1.399 -3.124,-3.126 V 17.188 c 0,-1.727 1.398,-3.126 3.124,-3.126 h 3.126 c 1.726,0 3.124,1.399 3.124,3.126 v 40.624 c 0,1.727 -1.398,3.126 -3.124,3.126 z" style="fill:currentColor;fill-opacity:1;fill-rule:nonzero;stroke:none" transform="scale(1.3333333)" /> </g>
</svg>

