<?xml version="1.0" encoding="UTF-8" standalone="no"?> <svg version="1.1" id="I2db2e27d7ab443fbbd3d0f84d3a2eaed20251106170411" width="100" height="100" viewBox="0 0 100 100" xmlns="http://www.w3.org/2000/svg" xmlns:svg="http://www.w3.org/2000/svg"> <defs id="Ic23c9121060f40f6a0243b9d0b29f97020251106170411" /> <g id="Ie7d56864965247339b085e3a78d3869e20251106170411"> <path id="I146a927d61a0436aacc6643cf737092920251106170411" d="m 20.312,15.625 c 2.59,0 4.688,2.098 4.688,4.687 V 25 h -4.688 c -2.589,0 -4.687,-2.098 -4.687,-4.688 0,-2.589 2.098,-4.687 4.687,-4.687 z M 31.25,25 v -4.688 c 0,-6.039 -4.898,-10.937 -10.938,-10.937 -6.039,0 -10.937,4.898 -10.937,10.937 0,6.04 4.898,10.938 10.937,10.938 H 25 v 12.5 h -4.688 c -6.039,0 -10.937,4.898 -10.937,10.938 0,6.039 4.898,10.937 10.937,10.937 6.04,0 10.938,-4.898 10.938,-10.937 V 50 h 12.5 v 4.688 c 0,6.039 4.898,10.937 10.938,10.937 6.039,0 10.937,-4.898 10.937,-10.937 0,-6.04 -4.898,-10.938 -10.937,-10.938 H 50 v -12.5 h 4.688 c 6.039,0 10.937,-4.898 10.937,-10.938 0,-6.039 -4.898,-10.937 -10.937,-10.937 -6.04,0 -10.938,4.898 -10.938,10.937 V 25 Z m 0,6.25 h 12.5 v 12.5 H 31.25 Z M 50,25 v -4.688 c 0,-2.589 2.098,-4.687 4.688,-4.687 2.589,0 4.687,2.098 4.687,4.687 0,2.59 -2.098,4.688 -4.687,4.688 z m 0,25 h 4.688 c 2.589,0 4.687,2.098 4.687,4.688 0,2.589 -2.098,4.687 -4.687,4.687 -2.59,0 -4.688,-2.098 -4.688,-4.687 z m -25,0 v 4.688 c 0,2.589 -2.098,4.687 -4.688,4.687 -2.589,0 -4.687,-2.098 -4.687,-4.687 0,-2.59 2.098,-4.688 4.687,-4.688 z" style="fill:currentColor;fill-opacity:1;fill-rule:nonzero;stroke:none" transform="scale(1.3333333)" /> </g>
</svg>

