<?xml version="1.0" encoding="UTF-8" standalone="no"?> <svg version="1.1" id="Ib798a9f29cb942138748a2b490fbf49920251106142135" width="100" height="100" viewBox="0 0 100 100" xmlns="http://www.w3.org/2000/svg" xmlns:svg="http://www.w3.org/2000/svg"> <defs id="I3b8c7169cc1e4273bd5e6c41ee369dac20251106142135" /> <g id="If53249349b6141b7b725a251f2911eb120251106142135"> <path id="Ib833b44f12514cbeacbecccdb88a951620251106142135" d="M 20.625,29.844 C 25.945,28.953 30,24.324 30,18.75 30,12.535 24.965,7.5 18.75,7.5 12.535,7.5 7.5,12.535 7.5,18.75 c 0,5.574 4.055,10.203 9.375,11.094 V 45.156 C 11.555,46.047 7.5,50.676 7.5,56.25 7.5,62.465 12.535,67.5 18.75,67.5 24.965,67.5 30,62.465 30,56.25 30,50.676 25.945,46.047 20.625,45.156 Z M 67.5,56.25 C 67.5,62.465 62.465,67.5 56.25,67.5 50.035,67.5 45,62.465 45,56.25 45,50.676 49.055,46.047 54.375,45.156 V 31.875 c 0,-1.035 0.84,-1.875 1.875,-1.875 1.035,0 1.875,0.84 1.875,1.875 v 13.281 c 5.32,0.891 9.375,5.52 9.375,11.094 z M 50.074,9.926 c -0.73,-0.735 -1.918,-0.735 -2.648,0 -0.735,0.73 -0.735,1.918 0,2.648 l 6.172,6.176 -6.172,6.176 c -0.735,0.73 -0.735,1.918 0,2.648 0.73,0.735 1.918,0.735 2.648,0 l 6.176,-6.172 6.176,6.172 c 0.73,0.735 1.918,0.735 2.648,0 0.735,-0.73 0.735,-1.918 0,-2.648 l -6.172,-6.176 6.172,-6.176 c 0.735,-0.73 0.735,-1.918 0,-2.648 -0.73,-0.735 -1.918,-0.735 -2.648,0 l -6.176,6.172 z" style="fill:currentColor;fill-opacity:1;fill-rule:nonzero;stroke:none" transform="scale(1.3333333)" /> </g>
</svg>

