<?xml version="1.0" encoding="UTF-8" standalone="no"?> <svg version="1.1" id="Ib605997647e246a7998a3d9077241d5120251110124421" width="100" height="100" viewBox="0 0 100 100" xmlns="http://www.w3.org/2000/svg" xmlns:svg="http://www.w3.org/2000/svg"> <defs id="I58833852401f4eb8bf6ed7f74324ef6320251110124421" /> <g id="Ib09555db4f944756972888bb00d6dd3720251110124421"> <path id="Id95e57b19e6f4692a274442f56cf406320251110124421" d="M 6.25,16.406 C 6.25,10.797 10.797,6.25 16.406,6.25 h 25 c 5.61,0 10.156,4.547 10.156,10.156 v 7.032 h 7.032 c 5.609,0 10.156,4.546 10.156,10.156 v 25 c 0,5.609 -4.547,10.156 -10.156,10.156 h -25 c -5.61,0 -10.156,-4.547 -10.156,-10.156 V 51.562 H 16.406 C 10.797,51.562 6.25,47.016 6.25,41.406 Z m 40.625,0 c 0,-3.019 -2.449,-5.468 -5.469,-5.468 h -25 c -3.019,0 -5.468,2.449 -5.468,5.468 v 25 c 0,3.02 2.449,5.469 5.468,5.469 h 7.032 V 33.594 c 0,-0.965 0.132,-1.899 0.386,-2.782 0.016,-0.066 0.035,-0.128 0.055,-0.195 0.984,-3.215 3.523,-5.754 6.738,-6.738 0.942,-0.285 1.942,-0.441 2.977,-0.441 h 13.281 z m -18.75,29.098 v 1.371 h 4.5 l 14.25,-14.25 v -4.5 h -1.371 z m 10.75,-17.379 h -5.281 c -0.211,0 -0.422,0.012 -0.625,0.035 l -4.809,4.809 c -0.023,0.203 -0.035,0.414 -0.035,0.625 v 5.281 z m 12.687,0 v 13.281 c 0,5.61 -4.546,10.156 -10.156,10.156 H 28.125 v 7.032 c 0,3.019 2.449,5.468 5.469,5.468 h 25 c 3.019,0 5.468,-2.449 5.468,-5.468 v -25 c 0,-3.02 -2.449,-5.469 -5.468,-5.469 z m -12.308,18.75 h 2.152 c 3.02,0 5.469,-2.449 5.469,-5.469 v -2.152 z" style="fill:currentColor;fill-opacity:1;fill-rule:nonzero;stroke:none" transform="scale(1.3333333)" /> </g>
</svg>

