<?xml version="1.0" encoding="UTF-8" standalone="no"?> <svg version="1.1" id="Ib79ac7e556ff448885e27098773a170920251106170956" width="100" height="100" viewBox="0 0 100 100" xmlns="http://www.w3.org/2000/svg" xmlns:svg="http://www.w3.org/2000/svg"> <defs id="I182f4ec6fda24e5b80c29cc563eec15a20251106170956" /> <g id="I4e07e1e061c54e2e9b4b807e4f3c203720251106170956"> <path id="I5a2369484fc54f608fba6a06dc5ffbf920251106170956" d="m 9.344,15.172 c 1.105,-0.406 2.347,-0.078 3.113,0.82 L 26.25,32.219 40.043,15.992 c 0.766,-0.898 2.008,-1.226 3.113,-0.82 1.11,0.406 1.844,1.461 1.844,2.64 v 35.626 c 0,1.554 -1.258,2.812 -2.812,2.812 -1.555,0 -2.813,-1.258 -2.813,-2.812 V 25.465 l -10.98,12.918 c -0.536,0.629 -1.321,0.992 -2.145,0.992 -0.824,0 -1.609,-0.363 -2.145,-0.992 L 13.125,25.465 v 27.973 c 0,1.554 -1.258,2.812 -2.813,2.812 C 8.758,56.25 7.5,54.992 7.5,53.438 V 17.812 c 0,-1.179 0.734,-2.234 1.844,-2.64 z m 40.23,28.777 c 1.098,-1.097 2.879,-1.097 3.977,0 l 2.699,2.699 V 17.812 c 0,-1.554 1.258,-2.812 2.812,-2.812 1.555,0 2.813,1.258 2.813,2.812 v 28.836 l 2.699,-2.699 c 1.098,-1.097 2.879,-1.097 3.977,0 1.097,1.098 1.097,2.879 0,3.977 l -7.5,7.5 c -1.098,1.097 -2.879,1.097 -3.977,0 l -7.5,-7.5 c -1.097,-1.098 -1.097,-2.879 0,-3.977 z" style="fill:currentColor;fill-opacity:1;fill-rule:nonzero;stroke:none" transform="scale(1.3333333)" /> </g>
</svg>

