<?xml version="1.0" encoding="UTF-8" standalone="no"?> <svg version="1.1" id="Ibfe8e6d346c848749c5a4633685c8c0c20251110130509" width="100" height="100" viewBox="0 0 100 100" xmlns="http://www.w3.org/2000/svg" xmlns:svg="http://www.w3.org/2000/svg"> <defs id="Ie0d1dd62e1b54ab994e3a1b21afde95620251110130509" /> <g id="Id587b5e86c1f4c46b588e97b6385219b20251110130509"> <path id="Ia5d64be11cfe4ac9ace475e25ce7fc6620251110130509" d="m 8.035,18.082 c 0,-5.551 4.496,-10.047 10.047,-10.047 h 7.363 v 17.41 H 8.035 Z m 0,11.383 v 8.094 c 2.707,-1.735 5.926,-2.739 9.375,-2.739 2.899,0 5.633,0.711 8.035,1.961 v -7.316 z m 37.5,37.5 h -6.762 l -6.187,-6.188 c 1.422,-2.523 2.234,-5.441 2.234,-8.547 0,-0.91 -0.07,-1.804 -0.203,-2.675 h 10.918 z m 0,-21.43 H 33.488 C 32.559,43.309 31.18,41.312 29.465,39.668 V 29.465 h 16.07 z m 4.02,21.43 h 7.363 c 5.551,0 10.047,-4.496 10.047,-10.047 v -7.363 h -17.41 z m 17.41,-21.43 v -16.07 h -17.41 v 16.07 z m 0,-20.09 v -7.363 c 0,-5.551 -4.496,-10.047 -10.047,-10.047 h -7.363 v 17.41 z M 45.535,8.035 h -16.07 v 17.41 h 16.07 z M 17.41,66.965 c 3.344,0 6.43,-1.113 8.902,-2.992 l 7.758,7.761 c 0.785,0.782 2.059,0.782 2.84,0 0.785,-0.785 0.785,-2.058 0,-2.843 l -7.758,-7.758 c 1.875,-2.473 2.993,-5.559 2.993,-8.903 0,-8.132 -6.598,-14.73 -14.735,-14.73 -8.137,0 -14.73,6.598 -14.73,14.73 0,8.137 6.593,14.735 14.73,14.735 z m 0,-4.02 c -5.918,0 -10.715,-4.797 -10.715,-10.715 0,-5.914 4.797,-10.71 10.715,-10.71 5.918,0 10.715,4.796 10.715,10.71 0,5.918 -4.797,10.715 -10.715,10.715 z" style="fill:currentColor;fill-opacity:1;fill-rule:nonzero;stroke:none" transform="scale(1.3333333)" /> </g>
</svg>

