<?xml version="1.0" encoding="UTF-8" standalone="no"?> <svg version="1.1" id="Ia926734a02fe4498a81951de2184314720251110133654" width="100" height="100" viewBox="0 0 100 100" xmlns="http://www.w3.org/2000/svg" xmlns:svg="http://www.w3.org/2000/svg"> <defs id="Iaf1727d5d9b64e068fe20df2b90b905620251110133654" /> <g id="Icbbb9290a53e4ac6b528353c4dc4edfb20251110133654"> <path id="Ib94c20b9a71f42ba9afc772c32e0f38a20251110133654" d="m 18.082,13.395 c -5.551,0 -10.047,4.496 -10.047,10.043 v 24.328 c 1.449,-0.575 3.031,-0.891 4.688,-0.891 h 14.734 c 5.867,0 10.805,3.973 12.277,9.375 h 1.114 c 0.64,0 1.269,-0.059 1.879,-0.176 4.648,-0.879 8.168,-4.965 8.168,-9.867 V 23.438 c 0,-5.547 -4.5,-10.043 -10.047,-10.043 z m 35.488,31.464 11.391,7.864 c 3.109,2.144 7.351,-0.078 7.351,-3.86 V 20.766 c 0,-3.778 -4.242,-6.004 -7.351,-3.856 L 53.57,24.773 Z M 12.723,53.57 c -3.328,0 -6.028,2.7 -6.028,6.028 0,3.328 2.7,6.027 6.028,6.027 h 1.339 c 1.11,0 2.008,0.898 2.008,2.008 0,1.109 -0.898,2.012 -2.008,2.012 h -1.339 c -5.547,0 -10.043,-4.5 -10.043,-10.047 0,-5.547 4.496,-10.043 10.043,-10.043 h 1.339 c 1.11,0 2.008,0.898 2.008,2.007 0,1.11 -0.898,2.008 -2.008,2.008 z m -2.008,6.028 c 0,-1.11 0.898,-2.008 2.008,-2.008 h 14.734 c 1.109,0 2.008,0.898 2.008,2.008 0,1.109 -0.899,2.007 -2.008,2.007 H 12.723 c -1.11,0 -2.008,-0.898 -2.008,-2.007 z m 16.742,6.027 c 3.328,0 6.023,-2.699 6.023,-6.027 0,-3.328 -2.695,-6.028 -6.023,-6.028 h -1.34 c -1.109,0 -2.012,-0.898 -2.012,-2.008 0,-1.109 0.903,-2.007 2.012,-2.007 h 1.34 c 5.547,0 10.043,4.496 10.043,10.043 0,5.547 -4.496,10.047 -10.043,10.047 h -1.34 c -1.109,0 -2.012,-0.903 -2.012,-2.012 0,-1.11 0.903,-2.008 2.012,-2.008 z" style="fill:currentColor;fill-opacity:1;fill-rule:nonzero;stroke:none" transform="scale(1.3333333)" /> </g>
</svg>

