<?xml version="1.0" encoding="UTF-8" standalone="no"?> <svg version="1.1" id="Ia22afc1f0366427db346c6a91612b35220251106170956" width="100" height="100" viewBox="0 0 100 100" xmlns="http://www.w3.org/2000/svg" xmlns:svg="http://www.w3.org/2000/svg"> <defs id="I8e2cf6c3ba164cb4bdb61f9a6707f22b20251106170956" /> <g id="I88894e92698241759976b2dfc7bd0f7f20251106170956"> <path id="I0e0afe32b4744007aea644ee6c0b303820251106170956" d="m 71.875,21.094 c 0,-6.473 -5.246,-11.719 -11.719,-11.719 l -0.316,0.02 c -1.145,0.156 -2.028,1.136 -2.028,2.324 0,1.293 1.051,2.343 2.344,2.343 l 0.481,0.016 c 3.66,0.246 6.551,3.293 6.551,7.016 0,3.883 -3.149,7.031 -7.032,7.031 l -0.011,0.016 -0.317,0.023 c -1.144,0.16 -2.019,1.145 -2.016,2.328 0.008,1.297 1.059,2.34 2.356,2.336 v -0.016 l 0.621,-0.015 C 66.961,32.473 71.875,27.355 71.875,21.094 Z M 51.562,11.719 c 0,-1.293 -1.05,-2.344 -2.343,-2.344 L 48.598,9.391 C 42.414,9.715 37.5,14.832 37.5,21.094 c 0,6.472 5.246,11.718 11.719,11.718 l 0.316,-0.019 c 1.145,-0.156 2.027,-1.137 2.027,-2.324 0,-1.293 -1.05,-2.344 -2.343,-2.344 l -0.481,-0.016 c -3.66,-0.246 -6.55,-3.293 -6.55,-7.015 0,-3.883 3.148,-7.032 7.031,-7.032 l 0.316,-0.019 c 1.145,-0.156 2.027,-1.137 2.027,-2.324 z M 62.5,21.094 c 0,-1.293 -1.051,-2.344 -2.344,-2.344 H 49.219 l -0.317,0.02 c -1.144,0.156 -2.027,1.136 -2.027,2.324 0,1.293 1.051,2.344 2.344,2.344 h 10.937 l 0.317,-0.02 C 61.617,23.262 62.5,22.281 62.5,21.094 Z M 16.406,12.5 h 20.707 c -0.996,1.402 -1.754,2.984 -2.218,4.688 H 16.406 c -2.871,0 -5.222,2.21 -5.449,5.019 l -0.019,0.449 v 1.34 L 37.5,37.977 43.523,34.805 c 1.754,0.73 3.676,1.133 5.696,1.133 h 2.219 L 38.59,42.699 c -0.582,0.309 -1.27,0.352 -1.883,0.133 L 36.41,42.699 10.938,29.293 v 23.051 c 0,2.871 2.21,5.222 5.019,5.449 l 0.449,0.019 h 42.188 c 2.871,0 5.222,-2.21 5.449,-5.019 l 0.019,-0.449 V 35.418 c 1.704,-0.465 3.286,-1.223 4.688,-2.219 v 19.145 c 0,5.414 -4.238,9.84 -9.578,10.14 L 58.594,62.5 H 16.406 c -5.414,0 -9.84,-4.238 -10.14,-9.578 L 6.25,52.344 V 22.656 c 0,-5.414 4.238,-9.84 9.578,-10.14 z" style="fill:currentColor;fill-opacity:1;fill-rule:nonzero;stroke:none" transform="scale(1.3333333)" /> </g>
</svg>

