<?xml version="1.0" encoding="UTF-8" standalone="no"?> <svg version="1.1" id="I633f7b1ce902446cb619362997cd46db20251106170411" width="100" height="100" viewBox="0 0 100 100" xmlns="http://www.w3.org/2000/svg" xmlns:svg="http://www.w3.org/2000/svg"> <defs id="Ia07eb20e8c2341929e9226e9dfac072e20251106170411" /> <g id="I9e7c88b8c9d0499586cf1e204d2e1b6120251106170411"> <path id="Ie54f4b96f1744121808bd38310e67e5a20251106170411" d="m 59.688,39.594 c 2.789,-2.789 7.312,-2.789 10.101,0 2.789,2.789 2.789,7.312 0,10.101 L 51.344,68.141 c -1.078,1.074 -2.422,1.836 -3.899,2.207 l -5.722,1.429 c -2.489,0.621 -4.739,-1.632 -4.118,-4.121 l 1.43,-5.722 c 0.367,-1.473 1.133,-2.821 2.207,-3.895 z m -24.532,24.98 -0.261,1.051 H 19.531 C 13.922,65.625 9.375,61.078 9.375,55.469 V 19.531 c 0,-5.609 4.547,-10.156 10.156,-10.156 H 35.156 Z M 55.469,9.375 c 5.609,0 10.156,4.547 10.156,10.156 V 34.41 c -2.914,-0.25 -5.914,0.742 -8.145,2.973 L 39.844,55.016 V 9.375 Z" style="fill:currentColor;fill-opacity:1;fill-rule:nonzero;stroke:none" transform="scale(1.3333333)" /> </g>
</svg>

