<?xml version="1.0" encoding="UTF-8" standalone="no"?> <svg version="1.1" id="I4d7adc366dae47f08f66a69243fadcb020251110135155" width="100" height="100" viewBox="0 0 100 100" xmlns="http://www.w3.org/2000/svg" xmlns:svg="http://www.w3.org/2000/svg"> <defs id="I8ad6850de3f94e96809c5fd35e102c3c20251110135155" /> <g id="Ia7e1115fa25a4cea98851aab1f3b8d7820251110135155"> <path id="I5ce9cc23c15540138553d529e28b835220251110135155" d="M 34.434,53.125 H 8.594 l -0.317,0.02 c -1.144,0.156 -2.027,1.136 -2.027,2.324 0,1.293 1.051,2.343 2.344,2.343 h 26.019 c -0.156,-1.019 -0.238,-2.062 -0.238,-3.124 0,-0.528 0.02,-1.047 0.059,-1.563 z m -25.84,-12.5 h 31.437 c -1.332,1.387 -2.469,2.965 -3.367,4.687 H 8.594 c -1.293,0 -2.344,-1.05 -2.344,-2.343 0,-1.188 0.883,-2.168 2.027,-2.324 z m 57.812,-12.5 H 8.594 l -0.317,0.02 c -1.144,0.156 -2.027,1.136 -2.027,2.324 0,1.293 1.051,2.343 2.344,2.343 h 57.812 l 0.317,-0.019 c 1.144,-0.156 2.027,-1.137 2.027,-2.324 0,-1.293 -1.051,-2.344 -2.344,-2.344 z m 0,-12.5 H 8.594 l -0.317,0.02 c -1.144,0.156 -2.027,1.136 -2.027,2.324 0,1.293 1.051,2.343 2.344,2.343 h 57.812 l 0.317,-0.019 c 1.144,-0.156 2.027,-1.137 2.027,-2.324 0,-1.293 -1.051,-2.344 -2.344,-2.344 z M 44.621,43.672 c 0.981,3.406 -1.062,6.949 -4.504,7.801 l -1.828,0.453 c -0.141,0.898 -0.211,1.82 -0.211,2.762 0,0.984 0.078,1.945 0.231,2.886 l 1.687,0.406 c 3.477,0.836 5.543,4.415 4.531,7.844 l -0.582,1.973 c 1.371,1.203 2.938,2.183 4.637,2.879 l 1.543,-1.621 c 2.465,-2.59 6.594,-2.59 9.059,0.004 l 1.558,1.636 c 1.699,-0.687 3.262,-1.656 4.633,-2.851 l -0.617,-2.145 c -0.985,-3.406 1.062,-6.949 4.504,-7.801 l 1.824,-0.449 c 0.141,-0.898 0.211,-1.824 0.211,-2.761 0,-0.985 -0.078,-1.95 -0.231,-2.887 L 69.383,51.395 C 65.906,50.559 63.836,46.98 64.852,43.551 l 0.578,-1.973 c -1.371,-1.207 -2.934,-2.183 -4.637,-2.879 l -1.539,1.617 c -2.465,2.594 -6.598,2.594 -9.063,0 l -1.558,-1.64 C 46.934,39.363 45.375,40.332 44,41.527 Z m 10.067,15.703 c -2.5,0 -4.532,-2.098 -4.532,-4.687 0,-2.59 2.032,-4.688 4.532,-4.688 2.503,0 4.531,2.098 4.531,4.688 0,2.589 -2.028,4.687 -4.531,4.687 z" style="fill:currentColor;fill-opacity:1;fill-rule:nonzero;stroke:none" transform="scale(1.3333333)" /> </g>
</svg>

