<?xml version="1.0" encoding="UTF-8" standalone="no"?> <svg version="1.1" id="I6890ab9903034e05ac93b0af3927fb6820251106144520" width="100" height="100" viewBox="0 0 100 100" xmlns="http://www.w3.org/2000/svg" xmlns:svg="http://www.w3.org/2000/svg"> <defs id="I567158b1996840ea89c77984ad125b4520251106144520" /> <g id="Id501cf2807db4f47a01c6621901e3e6120251106144520"> <path id="Icdbb1584029f4704be20c705c703ad8920251106144520" d="M 5.355,37.5 C 5.355,19.746 19.75,5.355 37.5,5.355 c 17.754,0 32.145,14.391 32.145,32.145 0,1.199 -0.067,2.383 -0.196,3.547 -3.66,-3.836 -8.82,-6.227 -14.539,-6.227 -11.094,0 -20.09,8.996 -20.09,20.09 0,5.719 2.391,10.879 6.227,14.539 -1.164,0.129 -2.348,0.196 -3.547,0.196 -5.453,0 -10.594,-1.36 -15.098,-3.762 L 9.625,69.516 C 7.102,70.234 4.77,67.902 5.488,65.379 L 9.121,52.605 C 6.719,48.102 5.355,42.957 5.355,37.5 Z M 72.32,54.91 c 0,-9.617 -7.793,-17.41 -17.41,-17.41 -9.617,0 -17.41,7.793 -17.41,17.41 0,9.617 7.793,17.41 17.41,17.41 9.617,0 17.41,-7.793 17.41,-17.41 z M 50.5,62 c 0.523,0.523 0.523,1.371 0,1.895 -0.523,0.523 -1.371,0.523 -1.895,0 l -5.355,-5.36 c -0.523,-0.523 -0.523,-1.371 0,-1.894 l 5.355,-5.356 c 0.524,-0.523 1.372,-0.523 1.895,0 0.523,0.524 0.523,1.371 0,1.895 l -3.07,3.07 h 6.812 c 4.067,0 7.363,-3.297 7.363,-7.367 v -0.668 c 0,-0.738 0.602,-1.34 1.34,-1.34 0.743,0 1.34,0.602 1.34,1.34 v 0.668 c 0,5.547 -4.496,10.047 -10.043,10.047 H 47.43 Z" style="fill:currentColor;fill-opacity:1;fill-rule:nonzero;stroke:none" transform="scale(1.3333333)" /> </g>
</svg>

