<?xml version="1.0" encoding="UTF-8" standalone="no"?> <svg version="1.1" id="Iac1783a43b5149749df47365fc76ef7420251110135155" width="100" height="100" viewBox="0 0 100 100" xmlns="http://www.w3.org/2000/svg" xmlns:svg="http://www.w3.org/2000/svg"> <defs id="I5b61e7e4cbc149c5a2dd71fd54f1f3b420251110135155" /> <g id="Ib73c5adfe0a84b5094767121e6af8e8b20251110135155"> <path id="Idfa9ab4dcfe142ab9d4b14bb8160626f20251110135155" d="m 42.969,9.375 c 1.293,0 2.343,1.051 2.343,2.344 v 25.742 c 2.141,-1.93 4.856,-3.086 7.813,-3.086 6.902,0 12.5,6.297 12.5,14.063 0,7.765 -5.598,14.062 -12.5,14.062 -2.957,0 -5.672,-1.156 -7.813,-3.086 v 0.742 c 0,1.293 -1.05,2.344 -2.343,2.344 -1.293,0 -2.344,-1.051 -2.344,-2.344 V 11.719 c 0,-1.293 1.051,-2.344 2.344,-2.344 z m 2.343,39.063 c 0,5.71 4,9.374 7.813,9.374 3.813,0 7.813,-3.664 7.813,-9.374 0,-5.711 -4,-9.376 -7.813,-9.376 -3.813,0 -7.813,3.665 -7.813,9.376 z m -21.874,-15.622 0.898,0.032 c 6.125,0.304 9.773,3.832 10.023,9.511 L 34.375,43 v 17.188 c 0,1.187 -0.883,2.167 -2.027,2.324 l -0.317,0.019 c -1.187,0 -2.168,-0.879 -2.324,-2.023 l -0.019,-0.32 -0.004,-0.325 c -3.086,1.766 -5.942,2.668 -8.59,2.668 -5.746,0 -10.156,-4.043 -10.156,-10.156 0,-5.387 3.714,-9.391 9.874,-10.137 2.915,-0.355 5.876,-0.133 8.872,0.653 -0.032,-3.457 -1.739,-5.172 -5.582,-5.36 -3.008,-0.152 -5.122,0.27 -6.356,1.141 -1.062,0.742 -2.523,0.484 -3.266,-0.574 -0.742,-1.063 -0.488,-2.524 0.575,-3.266 2.054,-1.441 4.855,-2.078 8.383,-2.016 z m 6.246,15.071 -0.946,-0.282 c -2.523,-0.695 -4.972,-0.89 -7.363,-0.601 -3.852,0.469 -5.75,2.516 -5.75,5.484 0,3.43 2.227,5.469 5.469,5.469 2.125,0 4.746,-0.98 7.816,-3.012 l 0.774,-0.527 z" style="fill:currentColor;fill-opacity:1;fill-rule:nonzero;stroke:none" transform="scale(1.3333333)" /> </g>
</svg>

