<?xml version="1.0" encoding="UTF-8" standalone="no"?> <svg version="1.1" id="I44f3b401adbe49c1a11436eb5851498920251110124421" width="100" height="100" viewBox="0 0 100 100" xmlns="http://www.w3.org/2000/svg" xmlns:svg="http://www.w3.org/2000/svg"> <defs id="I967c45067b4d4376a257270074553a9420251110124421" /> <g id="Ia487ec82400f4daf891df4c1c2f86c7620251110124421"> <path id="Ibeab6c6555024829aa54f19c7ac5cb5620251110124421" d="M 6.25,22.656 C 6.25,17.047 10.797,12.5 16.406,12.5 h 42.188 c 5.609,0 10.156,4.547 10.156,10.156 v 22.656 c 0,-6.039 -4.898,-10.937 -10.938,-10.937 -6.039,0 -10.937,4.898 -10.937,10.937 0,3.059 1.258,5.829 3.281,7.813 h -0.867 c -4.781,0 -8.664,3.875 -8.664,8.664 v 0.32 c 0,0.129 0.004,0.262 0.008,0.391 H 16.406 C 10.797,62.5 6.25,57.953 6.25,52.344 Z M 15.625,25 v 12.5 c 0,1.727 1.398,3.125 3.125,3.125 h 15.625 c 1.727,0 3.125,-1.398 3.125,-3.125 V 25 c 0,-1.727 -1.398,-3.125 -3.125,-3.125 H 18.75 c -1.727,0 -3.125,1.398 -3.125,3.125 z m 50,20.312 c 0,4.317 -3.496,7.813 -7.813,7.813 -4.316,0 -7.812,-3.496 -7.812,-7.813 0,-4.316 3.496,-7.812 7.812,-7.812 4.317,0 7.813,3.496 7.813,7.812 z m 6.25,16.797 c 0,4.864 -4.02,9.766 -14.063,9.766 -10.042,0 -14.062,-4.883 -14.062,-9.766 v -0.32 c 0,-3.062 2.48,-5.539 5.539,-5.539 h 17.047 c 3.059,0 5.539,2.477 5.539,5.539 z" style="fill:currentColor;fill-opacity:1;fill-rule:nonzero;stroke:none" transform="scale(1.3333333)" /> </g>
</svg>

