<?xml version="1.0" encoding="UTF-8" standalone="no"?> <svg version="1.1" id="Ib6d97c40818449b589a3866d80567a1d20251110130508" width="100" height="100" viewBox="0 0 100 100" xmlns="http://www.w3.org/2000/svg" xmlns:svg="http://www.w3.org/2000/svg"> <defs id="I51c1aefcf3ca4ee18677a0e05ffc9ab620251110130508" /> <g id="I122d172df2704e3a9cf46519e32487f020251110130508"> <path id="I761f6ec3dbae4b3d823b98c6e9e762a420251110130508" d="m 54.383,14.758 8.492,31.695 c 1.227,4.582 -1.492,9.297 -6.078,10.524 L 37.176,62.234 C 32.594,63.465 27.879,60.742 26.652,56.156 L 18.16,24.465 c -1.23,-4.586 1.492,-9.297 6.074,-10.527 L 43.855,8.68 c 4.586,-1.227 9.297,1.492 10.528,6.078 z m -20.121,9.433 c -0.446,-1.664 -2.16,-2.656 -3.824,-2.207 -1.668,0.446 -2.657,2.161 -2.211,3.825 0.445,1.668 2.16,2.656 3.828,2.211 1.664,-0.446 2.656,-2.161 2.207,-3.829 z m -16.133,12.243 5.504,20.535 c 0.566,2.109 1.672,3.929 3.133,5.351 L 25.383,62.246 C 20.641,61.996 17,57.953 17.25,53.215 Z m -2.891,-4.622 -1.109,21.239 c -0.117,2.183 0.375,4.258 1.324,6.062 L 14.16,58.609 C 9.727,56.91 7.516,51.938 9.215,47.508 Z" style="fill:currentColor;fill-opacity:1;fill-rule:nonzero;stroke:none" transform="scale(1.3333333)" /> </g>
</svg>

