<?xml version="1.0" encoding="UTF-8" standalone="no"?> <svg version="1.1" id="I3728b8e00b6c47e693902fe8a0b3df5020251106154012" width="100" height="100" viewBox="0 0 100 100" xmlns="http://www.w3.org/2000/svg" xmlns:svg="http://www.w3.org/2000/svg"> <defs id="I7212d9b1b6e4428595ee87f1ec05cc7020251106154012" /> <g id="I3d9e884f03f2490bb4adaae50090fbdc20251106154012"> <path id="I6e21110f5f53471d86a7a65973b63bb620251106154012" d="M 69.199,7.191 C 68.172,5.484 67.121,4.316 66.344,3.668 65.352,2.84 63.871,2.973 63.043,3.969 c -0.828,0.992 -0.695,2.472 0.301,3.301 0.394,0.332 1.101,1.113 1.836,2.335 1.254,2.09 2.008,4.606 2.008,7.583 0,2.976 -0.754,5.492 -2.008,7.582 -0.735,1.222 -1.442,2.007 -1.836,2.335 -0.996,0.829 -1.129,2.309 -0.301,3.301 0.828,0.996 2.309,1.129 3.301,0.301 0.777,-0.645 1.828,-1.816 2.855,-3.523 1.672,-2.793 2.676,-6.137 2.676,-9.996 0,-3.86 -1.004,-7.204 -2.676,-9.997 z m -7.094,3.422 C 61.359,9.492 60.59,8.723 60,8.281 58.965,7.504 57.496,7.715 56.719,8.75 c -0.778,1.035 -0.567,2.504 0.469,3.281 0.191,0.145 0.593,0.547 1.019,1.184 0.731,1.097 1.168,2.41 1.168,3.973 0,1.562 -0.437,2.874 -1.168,3.972 -0.426,0.637 -0.828,1.039 -1.019,1.184 l -0.262,0.226 c -0.805,0.813 -0.914,2.114 -0.207,3.055 0.777,1.035 2.246,1.246 3.281,0.469 0.59,-0.442 1.359,-1.211 2.105,-2.332 1.223,-1.832 1.957,-4.035 1.957,-6.574 0,-2.54 -0.734,-4.743 -1.957,-6.575 z M 53.125,8.594 C 53.125,7.617 52.52,6.742 51.605,6.398 50.691,6.055 49.66,6.316 49.016,7.051 L 44.25,12.5 h -4.406 c -1.293,0 -2.344,1.051 -2.344,2.344 v 4.687 c 0,1.293 1.051,2.344 2.344,2.344 h 4.406 l 4.766,5.449 c 0.644,0.735 1.675,0.996 2.589,0.653 0.915,-0.344 1.52,-1.219 1.52,-2.196 z M 34.375,12.5 c 0,-1.703 1.363,-3.09 3.059,-3.125 H 13.281 l -0.48,0.016 C 9.141,9.637 6.25,12.684 6.25,16.406 v 32.821 l 0.016,0.48 c 0.246,3.66 3.293,6.551 7.015,6.551 h 13.278 v 7.804 h -5.465 l -0.317,0.024 c -1.144,0.156 -2.027,1.137 -2.027,2.32 0,1.297 1.051,2.344 2.344,2.344 h 32.812 l 0.317,-0.02 c 1.144,-0.156 2.027,-1.136 2.027,-2.324 0,-1.293 -1.051,-2.344 -2.344,-2.344 h -5.472 v -7.804 h 13.281 l 0.48,-0.016 c 3.66,-0.25 6.551,-3.297 6.551,-7.015 V 32.754 c -0.137,0.125 -0.269,0.246 -0.402,0.355 -2.321,1.934 -5.766,1.618 -7.703,-0.703 -0.684,-0.824 -1.09,-1.789 -1.219,-2.781 -1.34,0.203 -2.727,-0.094 -3.867,-0.859 -1.692,2.984 -6.071,3.906 -8.762,1.035 L 42.293,25 H 37.5 c -1.727,0 -3.125,-1.398 -3.125,-3.125 z m 9.367,43.758 0.004,7.804 h -12.5 l -0.004,-7.804 z" style="fill:currentColor;fill-opacity:1;fill-rule:nonzero;stroke:none" transform="scale(1.3333333)" /> </g>
</svg>

