<?xml version="1.0" encoding="UTF-8" standalone="no"?> <svg version="1.1" id="I0b3bc0e5b0d64c71889eb2900342949020251106144521" width="100" height="100" viewBox="0 0 100 100" xmlns="http://www.w3.org/2000/svg" xmlns:svg="http://www.w3.org/2000/svg"> <defs id="I56db69754fa7455cb742446ef31f9e5c20251106144521" /> <g id="I4b408295859a4db0a58c3355fc7dc89220251106144521"> <path id="I252e3c9d05fc4c919fba7d77104767ba20251106144521" d="m 37.5,5.355 c 17.754,0 32.145,14.391 32.145,32.145 0,17.754 -14.391,32.145 -32.145,32.145 C 19.746,69.645 5.355,55.254 5.355,37.5 5.355,19.746 19.746,5.355 37.5,5.355 Z m 7.445,18.833 c 0.785,-0.786 0.785,-2.055 0,-2.84 -0.781,-0.786 -2.054,-0.786 -2.84,0 l -14.73,14.73 c -0.785,0.785 -0.785,2.059 0,2.844 l 14.73,14.73 c 0.786,0.786 2.059,0.786 2.84,0 0.785,-0.785 0.785,-2.054 0,-2.84 L 31.637,37.5 Z" style="fill:currentColor;fill-opacity:1;fill-rule:nonzero;stroke:none" transform="scale(1.3333333)" /> </g>
</svg>

