<?xml version="1.0" encoding="UTF-8" standalone="no"?> <svg version="1.1" id="I896dc449a93d409999b909e65c83a46720251106154012" width="100" height="100" viewBox="0 0 100 100" xmlns="http://www.w3.org/2000/svg" xmlns:svg="http://www.w3.org/2000/svg"> <defs id="If3c8e173f1bd43c1a7d03334c5e6971220251106154012" /> <g id="Ic3e15cce055443b898f7766d4e359f6e20251106154012"> <path id="I37bbfb1fb7a043289e730a95efb5445520251106154012" d="m 17.668,5.582 c 0.664,0.348 1.082,1.035 1.082,1.785 0,3.133 1.078,4.949 2.32,6.746 0.121,0.172 0.242,0.348 0.371,0.528 1.188,1.679 2.664,3.769 2.664,6.789 0,5.175 -4.195,9.375 -9.375,9.375 -5.175,0 -9.375,-4.2 -9.375,-9.375 0,-2.207 0.227,-4.61 1.739,-7.285 1.48,-2.618 4.09,-5.321 8.492,-8.422 C 16.199,5.293 17,5.238 17.668,5.582 Z m 7.035,9.082 c 2.524,-1.652 5.539,-2.609 8.781,-2.609 8.426,0 15.336,6.48 16.016,14.73 h -7.309 c -5.546,0 -10.046,4.496 -10.046,10.047 v 7.309 c -1.911,-0.157 -3.727,-0.649 -5.387,-1.414 -0.043,1.304 -0.133,2.738 -0.266,4.238 1.778,0.66 3.676,1.074 5.653,1.207 v 6.07 c 0,5.547 4.5,10.043 10.046,10.043 h 17.411 c 5.546,0 10.043,-4.496 10.043,-10.043 v -17.41 c 0,-5.551 -4.497,-10.047 -10.043,-10.047 H 53.531 C 52.84,16.316 44.129,8.035 33.484,8.035 c -4.07,0 -7.855,1.211 -11.019,3.293 0.238,0.414 0.512,0.824 0.812,1.262 0.106,0.152 0.223,0.316 0.348,0.492 0.32,0.445 0.695,0.973 1.078,1.582 z m 34.899,16.141 c 3.328,0 6.027,2.699 6.027,6.027 v 17.41 c 0,3.328 -2.699,6.028 -6.027,6.028 H 42.191 c -3.328,0 -6.027,-2.7 -6.027,-6.028 V 48.039 C 45.117,46.844 52.203,39.758 53.398,30.805 Z M 36.164,43.973 v -7.141 c 0,-3.328 2.699,-6.027 6.027,-6.027 h 7.145 c -1.129,6.73 -6.441,12.039 -13.172,13.168 z M 5.355,40.949 c 0,-2.687 0.219,-6.023 1.383,-8.773 2.235,1.664 5,2.644 7.992,2.644 3,0 5.766,-0.984 8,-2.648 1.165,2.75 1.375,6.09 1.375,8.777 0,4.453 -0.703,11.274 -2,17.008 -0.644,2.859 -1.464,5.566 -2.472,7.609 -0.504,1.016 -1.106,1.973 -1.84,2.7 -0.742,0.738 -1.77,1.379 -3.055,1.379 -1.281,0 -2.308,-0.641 -3.05,-1.379 -0.739,-0.727 -1.34,-1.684 -1.844,-2.7 C 8.832,63.527 8.016,60.816 7.367,57.961 6.066,52.223 5.355,45.402 5.355,40.949 Z" style="fill:currentColor;fill-opacity:1;fill-rule:nonzero;stroke:none" transform="scale(1.3333333)" /> </g>
</svg>

