<?xml version="1.0" encoding="UTF-8" standalone="no"?> <svg version="1.1" id="Ic45c5776358d4a958f292890374f6b2920251106163938" width="100" height="100" viewBox="0 0 100 100" xmlns="http://www.w3.org/2000/svg" xmlns:svg="http://www.w3.org/2000/svg"> <defs id="I74f1cf506c564231be2d93fa8fd248aa20251106163938" /> <g id="I889e292d92df4614af0f8b7caf3c418f20251106163938"> <path id="I3c073747f676445eb73a978668c7492820251106163938" d="m 29.781,45.219 c 0.918,0.914 0.918,2.398 0,3.312 l -4.687,4.688 c -0.914,0.918 -2.399,0.918 -3.313,0 -0.918,-0.914 -0.918,-2.399 0,-3.313 l 4.688,-4.687 c 0.914,-0.918 2.398,-0.918 3.312,0 z M 10.25,6.938 C 9.336,6.02 7.852,6.02 6.938,6.938 6.02,7.852 6.02,9.336 6.938,10.25 l 18.843,18.844 v 4.308 L 9.469,49.715 c -2.746,2.746 -2.746,7.199 0,9.945 l 5.871,5.871 c 2.746,2.746 7.199,2.746 9.945,0 L 41.594,49.219 h 4.308 L 64.75,68.062 c 0.914,0.918 2.398,0.918 3.312,0 0.915,-0.914 0.915,-2.398 0,-3.312 z m 17.875,30.75 9.184,9.187 -15.34,15.34 c -0.914,0.918 -2.399,0.918 -3.313,0 l -5.871,-5.871 c -0.918,-0.914 -0.918,-2.399 0,-3.313 z m 27.637,6.359 4.89,-4.891 c 0.914,-0.914 0.914,-2.398 0,-3.312 L 39.156,14.348 c -0.914,-0.918 -2.398,-0.918 -3.312,0 l -4.891,4.886 -3.312,-3.312 4.886,-4.891 c 2.746,-2.746 7.2,-2.746 9.946,0 l 21.496,21.496 c 2.742,2.746 2.742,7.2 0,9.946 l -4.891,4.886 z" style="fill:currentColor;fill-opacity:1;fill-rule:nonzero;stroke:none" transform="scale(1.3333333)" /> </g>
</svg>

