<?xml version="1.0" encoding="UTF-8" standalone="no"?> <svg version="1.1" id="Iffb0b051a2c24711a91f5b1be14ff37a20251110124420" width="100" height="100" viewBox="0 0 100 100" xmlns="http://www.w3.org/2000/svg" xmlns:svg="http://www.w3.org/2000/svg"> <defs id="Ia5e7dd5414214a6fa3ed4fe1d997692620251110124420" /> <g id="I141d2a1aa5b947d9a406038747d638ca20251110124420"> <path id="Ie3b9eb8ef2e4457a98580b5fbd87a59b20251110124420" d="m 10.938,13.281 v 50.781 h 4.687 v -43.75 h 46.023 c 1.332,0 2.414,-1.082 2.414,-2.414 0,-1.332 -1.082,-2.414 -2.414,-2.414 H 15.625 v -2.343 c 0,-1.215 -0.988,-2.203 -2.203,-2.203 h -0.141 c -1.293,0 -2.343,1.05 -2.343,2.343 z m 57.812,4.617 c 0,2.45 -1.238,4.61 -3.125,5.883 v 23.875 c 0,6.473 -5.246,11.719 -11.719,11.719 H 27.344 c -2.637,0 -5.074,-0.871 -7.032,-2.344 v 7.813 c 0,2.156 -1.75,3.906 -3.906,3.906 h -6.25 C 8,68.75 6.25,67 6.25,64.844 V 13.281 C 6.25,9.398 9.398,6.25 13.281,6.25 h 0.141 c 2.984,0 5.523,1.895 6.48,4.547 h 41.746 c 3.922,0 7.102,3.18 7.102,7.101 z M 20.312,25 v 22.656 c 0,3.883 3.149,7.032 7.032,7.032 h 26.562 c 3.883,0 7.032,-3.149 7.032,-7.032 V 25 Z m 9.376,13.938 c 0,-0.911 0.398,-1.778 1.089,-2.372 l 8.832,-7.57 c 0.582,-0.5 1.45,-0.5 2.032,0 l 8.832,7.57 c 0.691,0.594 1.089,1.461 1.089,2.372 v 9.5 C 51.562,49.301 50.863,50 50,50 H 44.531 C 44.102,50 43.75,49.652 43.75,49.219 v -3.907 c 0,-0.863 -0.699,-1.562 -1.562,-1.562 h -3.126 c -0.863,0 -1.562,0.699 -1.562,1.562 v 3.907 C 37.5,49.652 37.148,50 36.719,50 H 31.25 c -0.863,0 -1.562,-0.699 -1.562,-1.562 z" style="fill:currentColor;fill-opacity:1;fill-rule:nonzero;stroke:none" transform="scale(1.3333333)" /> </g>
</svg>

