<?xml version="1.0" encoding="UTF-8" standalone="no"?> <svg version="1.1" id="Iefdc6ce03b184ecf9a61569127348bf120251106161453" width="100" height="100" viewBox="0 0 100 100" xmlns="http://www.w3.org/2000/svg" xmlns:svg="http://www.w3.org/2000/svg"> <defs id="Ib878c5c18ad2409cb674f6c7f428dba520251106161453" /> <g id="I02b9cd828e3043e5a8b211d985f92b8a20251106161453"> <path id="I3f9f0647b6f841cba140664aa5c3227920251106161453" d="m 68.75,20.312 c 0,-9.492 -7.695,-17.187 -17.188,-17.187 -9.492,0 -17.187,7.695 -17.187,17.187 0,9.493 7.695,17.188 17.187,17.188 9.493,0 17.188,-7.695 17.188,-17.188 z m -15.625,1.563 0.004,7.824 c 0,0.863 -0.699,1.563 -1.563,1.563 -0.863,0 -1.562,-0.7 -1.562,-1.563 L 50,21.875 h -7.828 c -0.86,0 -1.559,-0.699 -1.559,-1.563 0,-0.863 0.699,-1.562 1.559,-1.562 H 50 v -7.816 c 0,-0.86 0.699,-1.563 1.562,-1.563 0.864,0 1.563,0.703 1.563,1.563 v 7.816 h 7.801 c 0.863,0 1.562,0.699 1.562,1.562 0,0.864 -0.699,1.563 -1.562,1.563 z M 19.531,12.5 h 13.278 c -0.621,1.48 -1.067,3.051 -1.321,4.688 H 19.531 c -3.019,0 -5.469,2.449 -5.469,5.468 V 25 h 17.731 c 0.391,1.648 0.98,3.223 1.746,4.688 H 14.062 V 43.75 h 14.243 c 1.195,0 2.164,0.969 2.164,2.164 v 0.18 c 0,3.883 3.148,7.031 7.031,7.031 3.883,0 7.031,-3.148 7.031,-7.031 v -0.18 c 0,-1.195 0.969,-2.164 2.164,-2.164 h 14.243 v -5.414 c 1.722,-0.898 3.3,-2.035 4.687,-3.367 v 23.625 c 0,5.609 -4.547,10.156 -10.156,10.156 H 19.531 C 13.922,68.75 9.375,64.203 9.375,58.594 V 22.656 C 9.375,17.047 13.922,12.5 19.531,12.5 Z" style="fill:currentColor;fill-opacity:1;fill-rule:nonzero;stroke:none" transform="scale(1.3333333)" /> </g>
</svg>

