<?xml version="1.0" encoding="UTF-8" standalone="no"?> <svg version="1.1" id="Ie2c7a98d099d49f0af19a7017504e1c420251110130508" width="100" height="100" viewBox="0 0 100 100" xmlns="http://www.w3.org/2000/svg" xmlns:svg="http://www.w3.org/2000/svg"> <defs id="I16bb627ca130493095a0a79d787ac33920251110130508" /> <g id="I680c08c339dd43a88fe20840677113d520251110130508"> <path id="Ia5d16b086cfb40cc8ee0e15b5512d64420251110130508" d="m 49.688,13.125 c -11.911,0 -21.563,9.652 -21.563,21.563 v 3.75 c 0,4.66 -3.777,8.437 -8.437,8.437 H 10.312 C 8.758,46.875 7.5,45.617 7.5,44.062 7.5,42.508 8.758,41.25 10.312,41.25 h 9.376 c 1.554,0 2.812,-1.258 2.812,-2.812 v -3.75 C 22.5,19.672 34.672,7.5 49.688,7.5 h 1.874 c 1.555,0 2.813,1.258 2.813,2.812 0,1.555 -1.258,2.813 -2.813,2.813 z m -10.313,22.5 c 0,-6.73 5.457,-12.187 12.187,-12.187 h 13.126 c 1.554,0 2.812,-1.258 2.812,-2.813 0,-1.555 -1.258,-2.813 -2.812,-2.813 H 51.562 c -9.835,0 -17.812,7.977 -17.812,17.813 v 3.75 c 0,6.73 -5.457,12.187 -12.188,12.187 h -11.25 c -1.554,0 -2.812,1.258 -2.812,2.813 0,1.555 1.258,2.813 2.812,2.813 h 11.25 c 9.836,0 17.813,-7.977 17.813,-17.813 z M 53.438,33.75 c -1.555,0 -2.813,1.258 -2.813,2.812 v 3.75 c 0,2.473 -0.328,4.868 -0.945,7.141 -0.903,-0.387 -1.856,-0.578 -2.805,-0.578 -1.07,0 -2.141,0.242 -3.141,0.734 C 44.555,45.328 45,42.871 45,40.312 v -3.75 c 0,-4.66 3.777,-8.437 8.438,-8.437 h 11.25 c 1.554,0 2.812,1.258 2.812,2.813 0,1.554 -1.258,2.812 -2.812,2.812 z m -5.239,34.359 c 0.735,0.731 0.735,1.918 0,2.649 -0.73,0.734 -1.918,0.734 -2.648,0 l -7.5,-7.5 c -0.735,-0.731 -0.735,-1.918 0,-2.649 l 7.5,-7.5 c 0.73,-0.734 1.918,-0.734 2.648,0 0.735,0.731 0.735,1.918 0,2.649 l -4.297,4.301 h 20.946 l -4.297,-4.301 c -0.735,-0.731 -0.735,-1.918 0,-2.649 0.73,-0.734 1.918,-0.734 2.648,0 l 7.5,7.5 c 0.735,0.731 0.735,1.918 0,2.649 l -7.5,7.5 c -0.73,0.734 -1.918,0.734 -2.648,0 -0.735,-0.731 -0.735,-1.918 0,-2.649 l 4.297,-4.3 H 43.902 Z" style="fill:currentColor;fill-opacity:1;fill-rule:nonzero;stroke:none" transform="scale(1.3333333)" /> </g>
</svg>

