<?xml version="1.0" encoding="UTF-8" standalone="no"?> <svg version="1.1" id="I47e55802217342d487f3483d743a5ba620251106170956" width="100" height="100" viewBox="0 0 100 100" xmlns="http://www.w3.org/2000/svg" xmlns:svg="http://www.w3.org/2000/svg"> <defs id="Icf56c905325242ccabcc961f4b1e618d20251106170956" /> <g id="I4d831e9c17a24ccd84927b9286671be420251106170956"> <path id="Ib926865f5d304e769a1a8589e8d3a0d420251106170956" d="M 60,16.875 C 60,15.84 59.16,15 58.125,15 57.09,15 56.25,15.84 56.25,16.875 v 32.973 l -4.301,-4.297 c -0.73,-0.735 -1.918,-0.735 -2.648,0 -0.735,0.73 -0.735,1.918 0,2.648 l 7.5,7.5 c 0.73,0.735 1.918,0.735 2.648,0 l 7.5,-7.5 c 0.735,-0.73 0.735,-1.918 0,-2.648 -0.73,-0.735 -1.918,-0.735 -2.648,0 L 60,49.848 Z M 8.703,15.125 C 9.43,14.848 10.25,15.043 10.77,15.621 L 26.25,32.82 41.73,15.621 c 0.52,-0.578 1.34,-0.773 2.067,-0.496 0.726,0.277 1.203,0.973 1.203,1.75 v 37.5 c 0,1.035 -0.84,1.875 -1.875,1.875 -1.035,0 -1.875,-0.84 -1.875,-1.875 V 21.762 L 27.645,36.879 c -0.356,0.394 -0.864,0.621 -1.395,0.621 -0.531,0 -1.039,-0.227 -1.395,-0.621 L 11.25,21.762 v 32.613 c 0,1.035 -0.84,1.875 -1.875,1.875 C 8.34,56.25 7.5,55.41 7.5,54.375 v -37.5 c 0,-0.777 0.477,-1.473 1.203,-1.75 z" style="fill:currentColor;fill-opacity:1;fill-rule:nonzero;stroke:none" transform="scale(1.3333333)" /> </g>
</svg>

