<?xml version="1.0" encoding="UTF-8" standalone="no"?> <svg version="1.1" id="I9f435f8a609f4c6cb70cafe27f62a1e920251106163937" width="100" height="100" viewBox="0 0 100 100" xmlns="http://www.w3.org/2000/svg" xmlns:svg="http://www.w3.org/2000/svg"> <defs id="Ibbb625b87d76434cbf800d856d82c73920251106163937"> <linearGradient x1="5.125" y1="-1.125" x2="18.25" y2="23.875" gradientUnits="userSpaceOnUse" gradientTransform="scale(3.125)" spreadMethod="pad" id="I61f620cf80904968871454f096eace4520251106163937"> <stop style="stop-opacity:1;stop-color:#ffcd0f" offset="0" id="I485959f4109446ab94785d1783478c8420251106163937" /> <stop style="stop-opacity:1;stop-color:#fe8401" offset="1" id="I03890c8491054df58e783bf8c1e7532420251106163937" /> </linearGradient> <linearGradient x1="9.33183" y1="7" x2="14.1337" y2="17.252199" gradientUnits="userSpaceOnUse" gradientTransform="scale(3.125)" spreadMethod="pad" id="I2a81f2db65694e0ea82161cd1cacc48120251106163937"> <stop style="stop-opacity:1;stop-color:#4a4a4a" offset="0" id="Ic09eb4b242e54bdda2eb824031dfb56720251106163937" /> <stop style="stop-opacity:1;stop-color:#212121" offset="1" id="Iba3f68e75a004ab1b722c68dd748f42620251106163937" /> </linearGradient> </defs> <g id="I37a516ae028f42b98bb1c04f33dca4d220251106163937"> <path id="I96fd0325dfc44aa6bee0f55579a3704020251106163937" d="m 37.5,6.25 c 17.258,0 31.25,13.992 31.25,31.25 0,17.258 -13.992,31.25 -31.25,31.25 C 20.242,68.75 6.25,54.758 6.25,37.5 6.25,20.242 20.242,6.25 37.5,6.25 Z" transform="scale(1.3333333)" style="fill:url(#I61f620cf80904968871454f096eace4520251106163937);stroke:none" /> <path id="I83672e705860493dbd9467a86945705020251106163937" d="m 37.504,46.887 c -1.723,0 -3.121,1.398 -3.121,3.121 0,1.722 1.398,3.121 3.121,3.121 1.726,0 3.121,-1.399 3.121,-3.121 0,-1.723 -1.395,-3.121 -3.121,-3.121 z M 37.5,21.875 c -1.605,0 -2.926,1.207 -3.105,2.762 l -0.02,0.363 0.004,15.629 0.023,0.363 c 0.18,1.555 1.5,2.762 3.106,2.762 1.601,0 2.922,-1.207 3.101,-2.762 L 40.629,40.625 40.625,25 40.605,24.633 C 40.422,23.082 39.102,21.875 37.5,21.875 Z" transform="scale(1.3333333)" style="fill:url(#I2a81f2db65694e0ea82161cd1cacc48120251106163937);stroke:none" /> </g>
</svg>

