<?xml version="1.0" encoding="UTF-8" standalone="no"?> <svg version="1.1" id="I6171e9540f2844dc84b65c22dc1322a920251106164749" width="100" height="100" viewBox="0 0 100 100" xmlns="http://www.w3.org/2000/svg" xmlns:svg="http://www.w3.org/2000/svg"> <defs id="I533622964d2f412f8b2da3447323440b20251106164749" /> <g id="Ibe9f2ba3b0f44cef82eb2b2416ff3dc320251106164749"> <path id="I0d52c1fcfc9f461cb05df11488535d5220251106164749" d="M 54.688,8.594 C 54.688,7.301 53.637,6.25 52.344,6.25 51.051,6.25 50,7.301 50,8.594 V 21.141 C 43.668,16.898 34.789,18.387 30.332,24.938 L 7.352,58.707 c -1.739,2.555 -1.403,5.969 0.8,8.148 2.231,2.207 5.746,2.512 8.332,0.723 L 50.203,44.234 C 56.629,39.785 58.051,31.18 53.879,25 h 12.527 c 1.293,0 2.344,-1.051 2.344,-2.344 0,-1.293 -1.051,-2.344 -2.344,-2.344 L 58,20.312 68.062,10.25 C 68.98,9.336 68.98,7.852 68.066,6.938 67.148,6.02 65.664,6.02 64.75,6.938 L 54.688,16.996 Z" style="fill:currentColor;fill-opacity:1;fill-rule:nonzero;stroke:none" transform="scale(1.3333333)" /> </g>
</svg>

