<?xml version="1.0" encoding="UTF-8" standalone="no"?> <svg version="1.1" id="I683df6cb8ab84943ad787606e2101bf020251106170411" width="100" height="100" viewBox="0 0 100 100" xmlns="http://www.w3.org/2000/svg" xmlns:svg="http://www.w3.org/2000/svg"> <defs id="I06ee334d3e4b4825a0b32bb1aa72db6b20251106170411" /> <g id="I9bf0d65e5b7845fbbd481854fa8ea3eb20251106170411"> <path id="I168f3b3dd14940138039dc726e9cd02a20251106170411" d="m 37.535,7.031 c 2.297,0.028 4.578,0.293 6.82,0.789 0.977,0.219 1.707,1.035 1.817,2.032 l 0.531,4.769 c 0.242,2.191 2.094,3.852 4.297,3.852 0.594,0.004 1.18,-0.121 1.727,-0.364 l 4.378,-1.921 c 0.911,-0.403 1.973,-0.184 2.653,0.542 3.164,3.379 5.519,7.43 6.89,11.848 0.297,0.953 -0.046,1.992 -0.847,2.582 l -3.879,2.86 c -1.11,0.812 -1.762,2.105 -1.762,3.48 0,1.371 0.652,2.664 1.762,3.477 l 3.883,2.863 c 0.804,0.59 1.144,1.625 0.847,2.578 -1.367,4.422 -3.722,8.473 -6.882,11.852 -0.68,0.726 -1.743,0.945 -2.653,0.542 l -4.394,-1.921 c -1.258,-0.551 -2.703,-0.473 -3.891,0.214 -1.187,0.688 -1.98,1.899 -2.129,3.262 l -0.531,4.774 c -0.11,0.98 -0.824,1.793 -1.785,2.019 -4.528,1.078 -9.242,1.078 -13.77,0 -0.961,-0.226 -1.679,-1.039 -1.785,-2.019 l -0.527,-4.766 c -0.157,-1.363 -0.95,-2.57 -2.137,-3.254 -1.188,-0.683 -2.629,-0.766 -3.883,-0.215 l -4.394,1.922 C 16.98,59.23 15.918,59.012 15.238,58.285 12.074,54.902 9.723,50.844 8.352,46.422 8.059,45.469 8.398,44.434 9.203,43.84 l 3.883,-2.86 c 1.109,-0.816 1.762,-2.105 1.762,-3.48 0,-1.371 -0.653,-2.664 -1.762,-3.477 L 9.203,31.164 c -0.805,-0.59 -1.144,-1.629 -0.851,-2.582 1.371,-4.418 3.726,-8.469 6.89,-11.848 0.68,-0.726 1.742,-0.945 2.653,-0.546 l 4.378,1.925 c 1.258,0.551 2.707,0.469 3.899,-0.23 1.191,-0.688 1.98,-1.903 2.133,-3.266 L 28.836,9.852 C 28.949,8.855 29.68,8.039 30.656,7.82 32.898,7.324 35.188,7.059 37.535,7.031 Z m 0.004,4.688 c -1.422,0.015 -2.836,0.14 -4.234,0.367 l -0.34,3.051 c -0.32,2.843 -1.965,5.367 -4.434,6.797 -2.484,1.453 -5.508,1.625 -8.144,0.468 l -2.805,-1.23 c -1.789,2.168 -3.211,4.613 -4.215,7.238 l 2.496,1.836 c 2.309,1.695 3.672,4.391 3.672,7.254 0,2.867 -1.363,5.559 -3.672,7.254 l -2.496,1.84 c 1,2.633 2.426,5.082 4.211,7.254 l 2.832,-1.239 c 2.617,-1.144 5.625,-0.976 8.098,0.453 2.476,1.426 4.129,3.942 4.453,6.79 l 0.34,3.074 c 2.781,0.472 5.621,0.472 8.402,0 l 0.34,-3.074 c 0.316,-2.844 1.965,-5.372 4.441,-6.805 2.481,-1.434 5.493,-1.602 8.118,-0.453 l 2.824,1.238 c 1.789,-2.168 3.211,-4.613 4.211,-7.242 l -2.492,-1.836 c -2.309,-1.695 -3.672,-4.391 -3.672,-7.254 0,-2.867 1.363,-5.562 3.668,-7.254 l 2.492,-1.836 c -1.004,-2.629 -2.426,-5.074 -4.215,-7.242 l -2.801,1.23 c -1.14,0.504 -2.375,0.766 -3.621,0.762 -4.594,-0.004 -8.449,-3.461 -8.949,-8.023 l -0.34,-3.055 C 40.312,11.855 38.914,11.734 37.539,11.719 Z M 42.422,25 c 0.219,0 0.426,0.074 0.59,0.211 l 0.152,0.152 8.68,11.18 c 0.375,0.48 0.429,1.129 0.16,1.66 l -0.16,0.254 -8.68,11.18 c -0.133,0.172 -0.32,0.289 -0.527,0.34 L 42.422,50 h -8.449 c -0.211,0 -0.418,-0.07 -0.582,-0.203 -0.348,-0.274 -0.45,-0.746 -0.27,-1.133 L 33.234,48.48 41.898,37.5 32.195,25 Z m -12.184,2.512 5.282,6.879 -2.442,3.109 1.996,2.543 c 0.266,0.34 0.266,0.82 -0.004,1.16 l -4.175,5.25 c -0.325,0.406 -0.915,0.473 -1.317,0.152 l -0.156,-0.156 -6.254,-7.984 c -0.445,-0.567 -0.445,-1.363 0,-1.93 z" style="fill:currentColor;fill-opacity:1;fill-rule:nonzero;stroke:none" transform="scale(1.3333333)" /> </g>
</svg>

