<?xml version="1.0" encoding="UTF-8" standalone="no"?> <svg version="1.1" id="Ia6b8ed82154b4bb8ae670f6dfcd0cb3620251106112235" width="100" height="100" viewBox="0 0 100 100" xmlns="http://www.w3.org/2000/svg" xmlns:svg="http://www.w3.org/2000/svg"> <defs id="I21e8b5c36ced4177a4527ae3ed43157120251106112235" /> <g id="I7c922d2810fa408bb2c59934870a5d9d20251106112235"> <path id="Idc545cceabb04b97be00259f77ce472420251106112235" d="M 64.922,30.953 57.34,7.242 C 57.238,6.914 56.934,6.695 56.594,6.695 h -6.481 c -0.343,0 -0.636,0.219 -0.742,0.547 l -7.644,23.711 c -0.024,0.078 -0.043,0.16 -0.043,0.242 0,0.43 0.351,0.782 0.781,0.782 h 4.719 c 0.351,0 0.652,-0.235 0.754,-0.571 l 1.464,-5.156 h 7.45 l 1.449,5.148 c 0.094,0.336 0.402,0.571 0.754,0.571 h 5.121 c 0.086,0 0.16,-0.012 0.234,-0.035 0.203,-0.067 0.36,-0.2 0.461,-0.387 0.094,-0.184 0.109,-0.391 0.051,-0.594 z M 50.164,21.891 52.91,12.105 h 0.528 l 2.687,9.786 z M 62.176,63.148 H 51.328 V 63.113 L 62.426,47.301 c 0.094,-0.133 0.144,-0.285 0.144,-0.449 v -3.047 c 0,-0.43 -0.351,-0.782 -0.777,-0.782 H 44.715 c -0.426,0 -0.777,0.352 -0.777,0.782 v 3.597 c 0,0.426 0.351,0.778 0.777,0.778 h 10.262 v 0.035 L 43.836,64.027 c -0.094,0.133 -0.141,0.289 -0.141,0.45 v 3.046 c 0,0.43 0.352,0.782 0.778,0.782 h 17.695 c 0.426,0 0.777,-0.352 0.777,-0.782 v -3.597 c 0.004,-0.43 -0.34,-0.778 -0.769,-0.778 z M 20.617,8.629 c -0.269,-0.34 -0.789,-0.34 -1.055,0 l -9.374,11.879 c -0.352,0.445 -0.036,1.09 0.527,1.09 h 6.359 v 44.363 c 0,0.367 0.305,0.668 0.672,0.668 h 4.688 c 0.367,0 0.668,-0.301 0.668,-0.668 V 21.598 h 6.363 c 0.558,0 0.879,-0.657 0.527,-1.09 z" style="fill:currentColor;fill-opacity:1;fill-rule:nonzero;stroke:none" transform="scale(1.3333333)" /> </g>
</svg>

