<?xml version="1.0" encoding="UTF-8" standalone="no"?> <svg version="1.1" id="I3d31f485880247ecbadfebcc11f4109620251106142135" width="100" height="100" viewBox="0 0 100 100" xmlns="http://www.w3.org/2000/svg" xmlns:svg="http://www.w3.org/2000/svg"> <defs id="Ib30e8f69111d4f93a262fa9e8dd7311f20251106142135" /> <g id="I86281393fc5940fe9e54d7a5053021d620251106142135"> <path id="I32fdef5792dc4170a864acca082b678820251106142135" d="m 58.125,7.5 c -5.176,0 -9.375,4.199 -9.375,9.375 0,5.176 4.199,9.375 9.375,9.375 5.176,0 9.375,-4.199 9.375,-9.375 C 67.5,11.699 63.301,7.5 58.125,7.5 Z M 45,16.875 C 45,9.625 50.875,3.75 58.125,3.75 65.375,3.75 71.25,9.625 71.25,16.875 71.25,24.125 65.375,30 58.125,30 50.875,30 45,24.125 45,16.875 Z M 11.25,37.5 c 0,-8.285 6.715,-15 15,-15 8.285,0 15,6.715 15,15 0,8.285 -6.715,15 -15,15 -8.285,0 -15,-6.715 -15,-15 z m 15,-18.75 C 15.895,18.75 7.5,27.145 7.5,37.5 7.5,47.855 15.895,56.25 26.25,56.25 36.605,56.25 45,47.855 45,37.5 45,27.145 36.605,18.75 26.25,18.75 Z m 20.621,48.746 c -5.816,0 -10.746,-3.781 -12.469,-9.019 1.188,-0.461 2.332,-1.024 3.414,-1.672 1.071,3.996 4.719,6.941 9.055,6.941 5.176,0 9.375,-4.199 9.375,-9.375 0,-4.98 -3.879,-9.051 -8.781,-9.355 0.418,-1.184 0.742,-2.414 0.961,-3.68 6.515,0.769 11.57,6.312 11.57,13.035 0,7.25 -5.875,13.125 -13.125,13.125 z M 28.75,27 c -0.977,-0.344 -2.047,0.168 -2.395,1.145 -0.343,0.976 0.168,2.046 1.145,2.394 2.66,0.938 4.773,3.051 5.715,5.711 0.347,0.977 1.418,1.488 2.394,1.145 0.977,-0.348 1.489,-1.418 1.141,-2.395 -1.316,-3.727 -4.27,-6.68 -8,-8 z" style="fill:currentColor;fill-opacity:1;fill-rule:nonzero;stroke:none" transform="scale(1.3333333)" /> </g>
</svg>

