<?xml version="1.0" encoding="UTF-8" standalone="no"?> <svg version="1.1" id="Idb4c7504534f43228b5e7cbad15cbf2920251106142135" width="100" height="100" viewBox="0 0 100 100" xmlns="http://www.w3.org/2000/svg" xmlns:svg="http://www.w3.org/2000/svg"> <defs id="If1f9ebb25be24d7dae5535e33b54f8c720251106142135" /> <g id="I4057de8921c94937867c76f8121b889d20251106142135"> <path id="I3f80009c541146e5894d64f143ffe04020251106142135" d="m 35.117,6.141 c 1.418,-1.043 3.352,-1.043 4.766,0 l 25.441,18.765 c 3.008,2.219 1.602,6.906 -1.984,7.235 H 11.66 C 8.074,31.812 6.668,27.125 9.676,24.906 Z M 37.5,24.105 c 2.219,0 4.02,-1.8 4.02,-4.019 0,-2.219 -1.801,-4.02 -4.02,-4.02 -2.219,0 -4.016,1.801 -4.016,4.02 0,2.219 1.797,4.019 4.016,4.019 z M 52.23,34.82 h 6.696 V 50.891 H 52.23 Z M 46.875,50.891 V 34.82 H 40.18 v 16.071 z m -12.055,0 V 34.82 h -6.695 v 16.071 z m -12.05,0 V 34.82 h -6.696 v 16.071 z m -6.024,2.679 c -4.808,0 -8.707,3.899 -8.707,8.707 v 1.34 c 0,1.11 0.902,2.008 2.012,2.008 h 54.898 c 1.11,0 2.012,-0.898 2.012,-2.008 v -1.34 c 0,-4.808 -3.899,-8.707 -8.707,-8.707 z" style="fill:currentColor;fill-opacity:1;fill-rule:nonzero;stroke:none" transform="scale(1.3333333)" /> </g>
</svg>

