<?xml version="1.0" encoding="UTF-8" standalone="no"?> <svg version="1.1" id="I4a09314711ec45d5846e72604c4df03120251106170412" width="100" height="100" viewBox="0 0 100 100" xmlns="http://www.w3.org/2000/svg" xmlns:svg="http://www.w3.org/2000/svg"> <defs id="Idacf6741ba2e4923acba45cd02bb7cd720251106170412" /> <g id="I13bdec42992e451f86a605b8b5a357b820251106170412"> <path id="Ib31dccc4abd9452abb46f42bc352bd5d20251106170412" d="m 16.875,11.25 c -3.105,0 -5.625,2.52 -5.625,5.625 v 22.5 C 11.25,42.48 13.77,45 16.875,45 H 22.5 v 3.75 H 16.875 C 11.699,48.75 7.5,44.551 7.5,39.375 v -22.5 C 7.5,11.699 11.699,7.5 16.875,7.5 h 22.5 c 5.176,0 9.375,4.199 9.375,9.375 v 22.5 c 0,5.176 -4.199,9.375 -9.375,9.375 H 33.75 V 45 h 5.625 C 42.48,45 45,42.48 45,39.375 v -22.5 C 45,13.77 42.48,11.25 39.375,11.25 Z m 18.75,15 H 41.25 V 30 H 35.625 C 32.52,30 30,32.52 30,35.625 v 22.5 c 0,3.105 2.52,5.625 5.625,5.625 h 22.5 c 3.105,0 5.625,-2.52 5.625,-5.625 v -22.5 C 63.75,32.52 61.23,30 58.125,30 H 52.5 v -3.75 h 5.625 c 5.176,0 9.375,4.199 9.375,9.375 v 22.5 c 0,5.176 -4.199,9.375 -9.375,9.375 h -22.5 c -5.176,0 -9.375,-4.199 -9.375,-9.375 v -22.5 c 0,-5.176 4.199,-9.375 9.375,-9.375 z" style="fill:currentColor;fill-opacity:1;fill-rule:nonzero;stroke:none" transform="scale(1.3333333)" /> </g>
</svg>

