<?xml version="1.0" encoding="UTF-8" standalone="no"?> <svg version="1.1" id="I2a78c9af8c8445be9b2b8097d8bb747b20251110124422" width="100" height="100" viewBox="0 0 100 100" xmlns="http://www.w3.org/2000/svg" xmlns:svg="http://www.w3.org/2000/svg"> <defs id="I9858498ce3cd4474823ecd50b1c5a86420251110124422" /> <g id="I45d692c68e3c49ab8a6344dde5bd9e1f20251110124422"> <path id="If9712b05a0a14bb4af3450a8054dbf7520251110124422" d="m 18.75,26.059 c 0,-1.079 0.871,-1.954 1.949,-1.954 h 14.852 c 1.074,0 1.949,0.875 1.949,1.954 v 0.117 c 0,1.078 -0.875,1.949 -1.949,1.949 H 20.699 c -1.078,0 -1.949,-0.871 -1.949,-1.949 z m 0,10.711 c 0,-1.075 0.871,-1.95 1.949,-1.95 h 28.242 c 1.079,0 1.95,0.875 1.95,1.95 v 0.121 c 0,0.101 -0.008,0.203 -0.024,0.3 -0.597,0.481 -1.14,1.028 -1.625,1.625 -0.097,0.016 -0.199,0.024 -0.301,0.024 H 20.699 c -1.078,0 -1.949,-0.875 -1.949,-1.949 z m 21.559,23.5 H 15.414 c -3.332,0 -6.027,-2.7 -6.027,-6.028 V 20.758 c 0,-3.328 2.695,-6.028 6.027,-6.028 h 44.184 c 3.332,0 6.027,2.7 6.027,6.028 v 17.691 c 1.668,1.891 2.68,4.371 2.68,7.086 h 1.34 V 20.758 c 0,-5.547 -4.497,-10.043 -10.047,-10.043 H 15.414 c -5.551,0 -10.047,4.496 -10.047,10.043 v 33.484 c 0,5.547 4.496,10.043 10.047,10.043 H 40.355 C 40.238,63.621 40.18,62.949 40.18,62.277 v -0.55 c 0,-0.497 0.043,-0.985 0.129,-1.457 z M 20.699,45.535 c -1.078,0 -1.949,0.875 -1.949,1.949 v 0.121 c 0,1.075 0.871,1.95 1.949,1.95 h 20.207 c 1.078,0 1.949,-0.875 1.949,-1.95 v -0.121 c 0,-1.074 -0.871,-1.949 -1.949,-1.949 z m 44.926,0 c 0,4.438 -3.598,8.035 -8.035,8.035 -4.438,0 -8.035,-3.597 -8.035,-8.035 0,-4.437 3.597,-8.035 8.035,-8.035 4.437,0 8.035,3.598 8.035,8.035 z m 6.695,16.742 c 0,5.004 -4.207,10.043 -14.73,10.043 -10.524,0 -14.735,-5.019 -14.735,-10.043 v -0.55 c 0,-3.028 2.454,-5.477 5.481,-5.477 h 18.508 c 3.023,0 5.476,2.449 5.476,5.477 z" style="fill:currentColor;fill-opacity:1;fill-rule:nonzero;stroke:none" transform="scale(1.3333333)" /> </g>
</svg>

