<?xml version="1.0" encoding="UTF-8" standalone="no"?> <svg version="1.1" id="I083dac8d62684e638dc7d98993acd06a20251106155157" width="100" height="100" viewBox="0 0 100 100" xmlns="http://www.w3.org/2000/svg" xmlns:svg="http://www.w3.org/2000/svg"> <defs id="I1261e9a58d8744c6aa4e1286b71c503a20251106155157" /> <g id="Ia5ac1932dad54351a285acffd6ab1e9420251106155157"> <path id="I24eabe20ba1b44fe99c2d1cb20cff0f120251106155157" d="m 12.5,13.281 c 0,-3.883 3.148,-7.031 7.031,-7.031 h 13.293 v 14.836 c 0,3.883 3.149,7.031 7.031,7.031 h 14.833 v 25.789 c 0,3.883 -3.149,7.032 -7.032,7.032 H 19.531 c -3.883,0 -7.031,-3.149 -7.031,-7.032 z" style="fill:currentColor;fill-opacity:1;fill-rule:nonzero;stroke:none" transform="scale(1.3333333)" /> <path id="I43a9ee2bbc7545ebaf79b9b5f4e661ef20251106155157" d="M 37.512,21.086 V 7.711 c 0.238,0.184 0.468,0.383 0.683,0.598 l 14.434,14.433 c 0.215,0.219 0.418,0.446 0.601,0.688 H 39.855 c -1.293,0 -2.343,-1.051 -2.343,-2.344 z" style="fill:currentColor;fill-opacity:1;fill-rule:nonzero;stroke:none" transform="scale(1.3333333)" /> <path id="Ia0bb1be9e67749f1b14c7e2051b2505d20251106155157" d="m 27.348,68.75 c -3.063,0 -5.668,-1.957 -6.633,-4.688 H 47.66 c 5.61,0 10.156,-4.546 10.156,-10.156 V 27.93 l 2.629,2.625 c 1.317,1.32 2.059,3.109 2.059,4.972 v 18.379 c 0,8.199 -6.649,14.844 -14.844,14.844 z" style="fill:currentColor;fill-opacity:1;fill-rule:nonzero;stroke:none" transform="scale(1.3333333)" /> </g>
</svg>

