<?xml version="1.0" encoding="UTF-8" standalone="no"?> <svg version="1.1" id="Ib44b19c1da7f41778543772a9becb98320251106171634" width="100" height="100" viewBox="0 0 100 100" xmlns="http://www.w3.org/2000/svg" xmlns:svg="http://www.w3.org/2000/svg"> <defs id="Ib9ad9523e598483b83a165a16e00660020251106171634" /> <g id="I5f368861350d46f78bbe35038c2afb5220251106171634"> <path id="I5489e254ca0e4b4a893142de8571861420251106171634" d="m 7.367,24.105 h 30.332 c 0.934,4.586 4.985,8.04 9.844,8.04 4.859,0 8.914,-3.454 9.844,-8.04 h 10.246 c 1.109,0 2.012,-0.898 2.012,-2.007 0,-1.11 -0.903,-2.008 -2.012,-2.008 H 57.387 c -0.93,-4.586 -4.985,-8.035 -9.844,-8.035 -4.859,0 -8.91,3.449 -9.844,8.035 H 7.367 c -1.109,0 -2.012,0.898 -2.012,2.008 0,1.109 0.903,2.007 2.012,2.007 z m 20.09,38.84 c -4.859,0 -8.914,-3.449 -9.844,-8.035 H 7.367 c -1.109,0 -2.012,-0.898 -2.012,-2.008 0,-1.109 0.903,-2.007 2.012,-2.007 h 10.246 c 0.93,-4.586 4.985,-8.04 9.844,-8.04 4.859,0 8.91,3.454 9.844,8.04 h 30.332 c 1.109,0 2.012,0.898 2.012,2.007 0,1.11 -0.903,2.008 -2.012,2.008 H 37.301 c -0.934,4.586 -4.985,8.035 -9.844,8.035 z" style="fill:currentColor;fill-opacity:1;fill-rule:nonzero;stroke:none" transform="scale(1.3333333)" /> </g>
</svg>

