<?xml version="1.0" encoding="UTF-8" standalone="no"?> <svg version="1.1" id="Iba25305405554ec4baeddca21d55637920251106152729" width="100" height="100" viewBox="0 0 100 100" xmlns="http://www.w3.org/2000/svg" xmlns:svg="http://www.w3.org/2000/svg"> <defs id="I35c934f1e0044ecc96a343a3eeaba34d20251106152729" /> <g id="I3e239970ef294c32a57bc3dede2edd7520251106152729"> <path id="I796bbe78d84249cfb0ed73e99e31098b20251106152729" d="m 17.195,14.461 -0.007,6.633 v 32.824 c 0,5.609 4.546,10.156 10.156,10.156 h 6.203 c 0.898,1.723 2.035,3.301 3.371,4.688 H 27.344 C 19.145,68.762 12.5,62.117 12.5,53.918 V 21.094 c 0,-3.067 1.961,-5.672 4.695,-6.633 z m 34.367,19.914 c 4.028,0 7.782,1.172 10.938,3.191 V 13.281 C 62.5,9.398 59.352,6.25 55.469,6.25 H 27.344 c -3.883,0 -7.032,3.148 -7.032,7.031 v 40.625 c 0,3.883 3.149,7.032 7.032,7.032 h 4.886 c -0.636,-1.969 -0.98,-4.071 -0.98,-6.25 0,-11.219 9.094,-20.313 20.312,-20.313 z M 68.75,54.688 C 68.75,45.195 61.055,37.5 51.562,37.5 c -9.492,0 -17.187,7.695 -17.187,17.188 0,9.492 7.695,17.187 17.187,17.187 9.493,0 17.188,-7.695 17.188,-17.187 z m -15.625,1.562 0.004,7.824 c 0,0.864 -0.699,1.563 -1.563,1.563 -0.863,0 -1.562,-0.699 -1.562,-1.563 L 50,56.25 h -7.828 c -0.86,0 -1.559,-0.699 -1.559,-1.562 0,-0.864 0.699,-1.563 1.559,-1.563 H 50 v -7.816 c 0,-0.864 0.699,-1.563 1.562,-1.563 0.864,0 1.563,0.699 1.563,1.563 v 7.816 h 7.801 c 0.863,0 1.562,0.699 1.562,1.563 0,0.863 -0.699,1.562 -1.562,1.562 z" style="fill:currentColor;fill-opacity:1;fill-rule:nonzero;stroke:none" transform="scale(1.3333333)" /> </g>
</svg>

