<?xml version="1.0" encoding="UTF-8" standalone="no"?> <svg version="1.1" id="Ibe8306a147564d7bb8bd4223c00fca6620251106132945" width="100" height="100" viewBox="0 0 100 100" xmlns="http://www.w3.org/2000/svg" xmlns:svg="http://www.w3.org/2000/svg"> <defs id="Ie30b576dd4024137a6aef09cc4be60f020251106132945" /> <g id="I111a169e06cc4cc1947713e5268d197120251106132945"> <path id="Id38bd85241b14f26a3efd2221ba94b0e20251106132945" d="m 24.105,32.812 c 0,-4.808 3.899,-8.707 8.707,-8.707 h 9.376 c 4.808,0 8.707,3.899 8.707,8.707 0,2.59 -2.102,4.688 -4.688,4.688 H 28.793 c -2.586,0 -4.688,-2.098 -4.688,-4.688 z m 8.707,-4.687 c -2.589,0 -4.687,2.098 -4.687,4.687 0,0.372 0.301,0.668 0.668,0.668 h 17.414 c 0.367,0 0.668,-0.296 0.668,-0.668 0,-2.589 -2.098,-4.687 -4.687,-4.687 z M 37.5,5.355 c -6.664,0 -12.191,4.872 -13.223,11.247 -8.082,4.437 -13.562,13.031 -13.562,22.906 v 20.09 c 0,5.547 4.496,10.047 10.043,10.047 h 33.484 c 5.547,0 10.043,-4.5 10.043,-10.047 v -20.09 c 0,-9.875 -5.48,-18.469 -13.562,-22.906 C 49.695,10.227 44.164,5.355 37.5,5.355 Z m -0.668,8.04 c -2.687,0 -5.277,0.402 -7.715,1.156 1.539,-3.071 4.715,-5.176 8.383,-5.176 3.668,0 6.844,2.105 8.383,5.176 -2.438,-0.754 -5.028,-1.156 -7.715,-1.156 z m 0,4.015 h 1.336 c 12.207,0 22.102,9.895 22.102,22.098 v 3.347 H 14.73 V 39.508 C 14.73,27.305 24.625,17.41 36.832,17.41 Z M 24.105,46.875 v 4.687 c 0,1.11 0.903,2.008 2.012,2.008 1.11,0 2.008,-0.898 2.008,-2.008 V 46.875 H 60.27 v 12.723 c 0,3.328 -2.7,6.027 -6.028,6.027 H 20.758 c -3.328,0 -6.028,-2.699 -6.028,-6.027 V 46.875 Z" style="fill:currentColor;fill-opacity:1;fill-rule:nonzero;stroke:none" transform="scale(1.3333333)" /> </g>
</svg>

