<?xml version="1.0" encoding="UTF-8" standalone="no"?> <svg version="1.1" id="Ib04e69f87f394d83869ab5b3e354102e20251106142135" width="100" height="100" viewBox="0 0 100 100" xmlns="http://www.w3.org/2000/svg" xmlns:svg="http://www.w3.org/2000/svg"> <defs id="Ie96e87f00f384701af90e0b30261012020251106142135" /> <g id="I6f04989d5ebb4b5da09956f96e1a0f0020251106142135"> <path id="Ibb19f85dd79a41e396f662fac48cc2ff20251106142135" d="m 37.496,10.715 c 1.109,0 2.012,0.898 2.012,2.008 v 4.007 c 0,1.11 -0.903,2.008 -2.012,2.008 -1.109,0 -2.008,-0.898 -2.008,-2.008 v -4.007 c 0,-1.11 0.899,-2.008 2.008,-2.008 z m 0,42.855 c 8.879,0 16.074,-7.195 16.074,-16.07 0,-8.875 -7.195,-16.07 -16.074,-16.07 -8.875,0 -16.07,7.195 -16.07,16.07 0,8.875 7.195,16.07 16.07,16.07 z m 0,-4.015 c -6.656,0 -12.051,-5.399 -12.051,-12.055 0,-6.656 5.395,-12.055 12.051,-12.055 6.66,0 12.055,5.399 12.055,12.055 0,6.656 -5.395,12.055 -12.055,12.055 z M 62.273,39.508 c 1.11,0 2.012,-0.899 2.012,-2.008 0,-1.109 -0.902,-2.008 -2.012,-2.008 h -4.007 c -1.11,0 -2.008,0.899 -2.008,2.008 0,1.109 0.898,2.008 2.008,2.008 z M 37.496,56.262 c 1.109,0 2.012,0.898 2.012,2.008 v 4.007 c 0,1.11 -0.903,2.008 -2.012,2.008 -1.109,0 -2.008,-0.898 -2.008,-2.008 V 58.27 c 0,-1.11 0.899,-2.008 2.008,-2.008 z M 16.738,39.508 c 1.11,0 2.008,-0.899 2.008,-2.008 0,-1.109 -0.898,-2.008 -2.008,-2.008 h -4.015 c -1.11,0 -2.008,0.899 -2.008,2.008 0,1.109 0.898,2.008 2.008,2.008 z M 17.996,18 c 0.785,-0.785 2.059,-0.785 2.84,0 l 2.68,2.676 c 0.785,0.785 0.785,2.058 0,2.844 -0.786,0.785 -2.055,0.785 -2.84,0 l -2.68,-2.68 c -0.785,-0.785 -0.785,-2.055 0,-2.84 z m 2.84,39 c -0.781,0.785 -2.055,0.785 -2.84,0 -0.785,-0.785 -0.785,-2.055 0,-2.84 l 2.68,-2.68 c 0.785,-0.785 2.054,-0.785 2.84,0 0.785,0.786 0.785,2.059 0,2.84 z M 57,18 c -0.785,-0.785 -2.059,-0.785 -2.844,0 l -2.676,2.676 c -0.785,0.785 -0.785,2.058 0,2.844 0.782,0.785 2.055,0.785 2.84,0 L 57,20.84 c 0.781,-0.785 0.781,-2.055 0,-2.84 z m -2.844,39 c 0.785,0.785 2.059,0.785 2.844,0 0.781,-0.785 0.781,-2.055 0,-2.84 l -2.648,-2.648 c -0.786,-0.785 -2.059,-0.785 -2.844,0 -0.781,0.785 -0.781,2.058 0,2.84 z" style="fill:currentColor;fill-opacity:1;fill-rule:nonzero;stroke:none" transform="scale(1.3333333)" /> </g>
</svg>

