<?xml version="1.0" encoding="UTF-8" standalone="no"?> <svg version="1.1" id="Ib17be45b7a4746308522d0879f1d8c0a20251110124422" width="100" height="100" viewBox="0 0 100 100" xmlns="http://www.w3.org/2000/svg" xmlns:svg="http://www.w3.org/2000/svg"> <defs id="I42ad9bc975fc46dbbae0f65ca1da1b7220251110124422" /> <g id="Ifcf666b1f2a4424c850fdabc71db468620251110124422"> <path id="I62903d3fdb16429fae3f2e53414b93e920251110124422" d="M 15.234,9.375 C 9.41,9.375 4.688,14.098 4.688,19.922 v 35.156 c 0,5.824 4.722,10.547 10.546,10.547 h 28.723 c -0.59,-0.734 -1.125,-1.52 -1.602,-2.34 -1.597,-2.762 -2.511,-5.973 -2.511,-9.379 0,-3.558 2.886,-6.445 6.445,-6.445 0.199,0 0.395,0.008 0.586,0.027 v -2.957 c 0,-6.472 5.246,-11.719 11.719,-11.719 6.472,0 11.718,5.247 11.718,11.719 V 19.922 C 70.312,14.098 65.59,9.375 59.766,9.375 Z m 3.516,14.063 c 0,-1.293 1.051,-2.344 2.344,-2.344 h 14.062 c 1.293,0 2.344,1.051 2.344,2.344 0,1.292 -1.051,2.343 -2.344,2.343 H 21.094 c -1.293,0 -2.344,-1.051 -2.344,-2.343 z m 2.344,21.093 h 14.062 c 1.293,0 2.344,1.051 2.344,2.344 0,1.293 -1.051,2.344 -2.344,2.344 H 21.094 c -1.293,0 -2.344,-1.051 -2.344,-2.344 0,-1.293 1.051,-2.344 2.344,-2.344 z M 18.75,35.156 c 0,-1.293 1.051,-2.344 2.344,-2.344 h 21.094 c 1.292,0 2.343,1.051 2.343,2.344 0,1.293 -1.051,2.344 -2.343,2.344 H 21.094 c -1.293,0 -2.344,-1.051 -2.344,-2.344 z m 29.363,28.125 c -0.644,-0.719 -1.215,-1.504 -1.699,-2.343 -1.199,-2.067 -1.883,-4.469 -1.883,-7.032 0,-0.972 0.785,-1.758 1.758,-1.758 0.973,0 1.758,0.786 1.758,1.758 0,2.703 1.015,5.164 2.683,7.032 0.602,0.667 1.286,1.261 2.036,1.757 1.425,0.95 3.101,1.563 4.906,1.719 l 0.039,0.004 c 0.293,0.023 0.586,0.035 0.883,0.035 0.601,0 1.187,-0.051 1.761,-0.144 l 0.043,-0.008 c 1.504,-0.262 2.899,-0.84 4.114,-1.664 1.105,-0.75 2.062,-1.707 2.812,-2.813 0.762,-1.117 1.309,-2.39 1.594,-3.758 0.148,-0.699 0.223,-1.418 0.223,-2.16 0,-0.765 0.488,-1.418 1.171,-1.656 0.184,-0.066 0.379,-0.102 0.586,-0.102 0.973,0 1.758,0.786 1.758,1.758 0,2.926 -0.894,5.645 -2.422,7.895 -1,1.472 -2.273,2.746 -3.746,3.746 -1.636,1.109 -3.519,1.887 -5.55,2.226 v 3.125 c 0,0.973 -0.786,1.758 -1.758,1.758 -0.973,0 -1.758,-0.785 -1.758,-1.758 v -2.976 c -2.43,-0.203 -4.684,-1.02 -6.606,-2.297 -0.996,-0.664 -1.906,-1.453 -2.703,-2.344 z m 3.449,-18.75 c 0,-3.883 3.149,-7.031 7.032,-7.031 3.883,0 7.031,3.148 7.031,7.031 v 9.375 c 0,3.883 -3.148,7.032 -7.031,7.032 -3.883,0 -7.032,-3.149 -7.032,-7.032 z" style="fill:currentColor;fill-opacity:1;fill-rule:nonzero;stroke:none" transform="scale(1.3333333)" /> </g>
</svg>

