<?xml version="1.0" encoding="UTF-8" standalone="no"?> <svg version="1.1" id="I9766a6634bdf454b89eb7385a9076b3c20251106161453" width="100" height="100" viewBox="0 0 100 100" xmlns="http://www.w3.org/2000/svg" xmlns:svg="http://www.w3.org/2000/svg"> <defs id="I5f425a7896ff42d0ada020c407e6843820251106161453" /> <g id="I27e002273d4d49a4aae1453ca46eaf5a20251106161453"> <path id="I6643758db41b42e78e25d55904f7b1b320251106161453" d="m 37.5,51.562 c 1.188,0 2.168,0.883 2.324,2.024 l 0.02,0.32 v 6.836 l 2.25,-2.242 c 0.832,-0.832 2.136,-0.91 3.051,-0.227 L 45.41,58.5 c 0.832,0.832 0.906,2.133 0.227,3.051 l -0.227,0.261 -6.25,6.25 -0.121,0.114 -0.227,0.172 -0.292,0.172 -0.274,0.109 -0.316,0.082 -0.266,0.031 H 37.34 l -0.375,-0.054 -0.211,-0.059 -0.184,-0.07 -0.222,-0.114 -0.16,-0.097 -0.098,-0.071 c -0.086,-0.066 -0.168,-0.136 -0.246,-0.215 l -6.25,-6.25 c -0.914,-0.914 -0.914,-2.398 0,-3.312 0.832,-0.832 2.136,-0.91 3.051,-0.227 l 0.265,0.227 2.246,2.246 v -6.84 c 0,-1.187 0.883,-2.168 2.028,-2.324 z m 0,-23.437 c 5.18,0 9.375,4.195 9.375,9.375 0,5.176 -4.195,9.375 -9.375,9.375 -5.176,0 -9.375,-4.199 -9.375,-9.375 0,-5.18 4.199,-9.375 9.375,-9.375 z m 21,1.469 c 0.832,-0.832 2.137,-0.91 3.051,-0.231 l 0.265,0.231 6.25,6.25 0.11,0.117 0.176,0.227 0.168,0.296 0.109,0.27 0.086,0.32 0.031,0.266 v 0.32 l -0.055,0.375 -0.062,0.211 -0.07,0.184 -0.11,0.222 -0.101,0.16 -0.086,0.118 -0.196,0.226 -6.25,6.25 c -0.918,0.914 -2.402,0.914 -3.316,0 -0.832,-0.832 -0.906,-2.133 -0.227,-3.051 l 0.227,-0.261 2.246,-2.25 h -6.84 c -1.183,0 -2.164,-0.883 -2.32,-2.028 L 51.562,37.5 c 0,-1.188 0.883,-2.168 2.028,-2.324 l 0.316,-0.02 h 6.844 l -2.25,-2.25 c -0.832,-0.832 -0.906,-2.133 -0.227,-3.051 z m -45.312,0 c 0.917,-0.918 2.398,-0.918 3.316,0 0.832,0.832 0.906,2.133 0.226,3.051 l -0.226,0.261 -2.254,2.25 h 6.844 c 1.187,0 2.168,0.883 2.324,2.024 l 0.02,0.32 c 0,1.188 -0.879,2.168 -2.024,2.32 l -0.32,0.024 h -6.84 l 2.25,2.25 c 0.832,0.832 0.906,2.133 0.226,3.051 l -0.226,0.261 c -0.832,0.832 -2.137,0.906 -3.055,0.227 L 13.188,45.406 6.938,39.156 6.652,38.812 6.484,38.516 6.375,38.246 6.289,37.926 6.258,37.641 v -0.289 l 0.054,-0.387 0.063,-0.215 0.07,-0.184 0.11,-0.218 0.097,-0.16 0.071,-0.098 C 6.789,36 6.863,35.918 6.938,35.844 Z M 37.5,32.812 c -2.586,0 -4.688,2.098 -4.688,4.688 0,2.59 2.102,4.688 4.688,4.688 2.59,0 4.688,-2.098 4.688,-4.688 0,-2.59 -2.098,-4.688 -4.688,-4.688 z m -0.426,-26.523 0.211,-0.031 0.27,-0.008 0.187,0.012 0.297,0.05 0.211,0.059 0.184,0.07 0.222,0.11 0.16,0.101 0.118,0.086 0.226,0.2 6.25,6.25 c 0.914,0.914 0.914,2.398 0,3.312 -0.832,0.832 -2.137,0.906 -3.051,0.227 L 42.094,16.5 39.844,14.254 v 6.84 c 0,1.187 -0.879,2.168 -2.024,2.32 l -0.32,0.024 c -1.184,0 -2.164,-0.883 -2.32,-2.028 L 35.156,21.094 V 14.25 L 32.91,16.5 c -0.832,0.832 -2.137,0.906 -3.055,0.227 L 29.594,16.5 c -0.832,-0.832 -0.906,-2.133 -0.227,-3.051 l 0.227,-0.261 6.25,-6.25 0.344,-0.286 0.296,-0.172 0.274,-0.109 z" style="fill:currentColor;fill-opacity:1;fill-rule:nonzero;stroke:none" transform="scale(1.3333333)" /> </g>
</svg>

