<?xml version="1.0" encoding="UTF-8" standalone="no"?> <svg version="1.1" id="Ib784c43bebfa42099619e49d6268baee20251106163937" width="100" height="100" viewBox="0 0 100 100" xmlns="http://www.w3.org/2000/svg" xmlns:svg="http://www.w3.org/2000/svg"> <defs id="Iff3c74ec319c4dc8a5322f5466847c5120251106163937" /> <g id="Id8b5f12cd2024f3d8c5fad26628cb55620251106163937"> <path id="I69d2105481844b20bef4497c6bb6a35d20251106163937" d="M 6.25,16.406 C 6.25,10.797 10.797,6.25 16.406,6.25 h 29.688 c 5.609,0 10.156,4.547 10.156,10.156 V 25 h -4.688 v -8.594 c 0,-3.019 -2.449,-5.468 -5.468,-5.468 H 16.406 c -3.019,0 -5.468,2.449 -5.468,5.468 v 23.438 c 0,3.019 2.449,5.468 5.468,5.468 H 25 V 50 H 16.406 C 10.797,50 6.25,45.453 6.25,39.844 Z m 53.125,25 c 0,2.156 -1.75,3.906 -3.906,3.906 -2.157,0 -3.907,-1.75 -3.907,-3.906 0,-2.156 1.75,-3.906 3.907,-3.906 2.156,0 3.906,1.75 3.906,3.906 z m -31.25,-3.125 c 0,-5.609 4.547,-10.156 10.156,-10.156 h 20.313 c 5.609,0 10.156,4.547 10.156,10.156 v 20.313 c 0,5.609 -4.547,10.156 -10.156,10.156 H 38.281 c -5.609,0 -10.156,-4.547 -10.156,-10.156 z m 10.156,-5.469 c -3.019,0 -5.469,2.45 -5.469,5.469 v 20.313 c 0,0.59 0.094,1.16 0.266,1.695 l 10.61,-9.953 c 2.703,-2.531 6.902,-2.531 9.605,0 l 10.535,9.852 c 0.152,-0.504 0.234,-1.04 0.234,-1.594 V 38.281 c 0,-3.019 -2.449,-5.469 -5.468,-5.469 z m 0,31.25 h 20.313 c 0.734,0 1.437,-0.144 2.078,-0.41 L 50.094,53.758 c -0.903,-0.844 -2.305,-0.844 -3.203,0 l -10.59,9.937 c 0.613,0.239 1.281,0.367 1.98,0.367 z M 17.969,15.625 c 1.293,0 2.343,1.051 2.343,2.344 v 1.562 c 0,1.293 -1.05,2.344 -2.343,2.344 -1.293,0 -2.344,-1.051 -2.344,-2.344 v -1.562 c 0,-1.293 1.051,-2.344 2.344,-2.344 z m 2.343,11.719 c 0,-1.293 -1.05,-2.344 -2.343,-2.344 -1.293,0 -2.344,1.051 -2.344,2.344 v 1.562 c 0,1.293 1.051,2.344 2.344,2.344 1.293,0 2.343,-1.051 2.343,-2.344 z M 44.531,15.625 c 1.293,0 2.344,1.051 2.344,2.344 v 1.562 c 0,1.293 -1.051,2.344 -2.344,2.344 -1.293,0 -2.343,-1.051 -2.343,-2.344 v -1.562 c 0,-1.293 1.05,-2.344 2.343,-2.344 z M 20.312,36.719 c 0,-1.293 -1.05,-2.344 -2.343,-2.344 -1.293,0 -2.344,1.051 -2.344,2.344 v 1.562 c 0,1.293 1.051,2.344 2.344,2.344 1.293,0 2.343,-1.051 2.343,-2.344 z" style="fill:currentColor;fill-opacity:1;fill-rule:nonzero;stroke:none" transform="scale(1.3333333)" /> </g>
</svg>

