<?xml version="1.0" encoding="UTF-8" standalone="no"?> <svg version="1.1" id="I7e40de0adf67466784ddefe4dd6ae8fb20251106144520" width="100" height="100" viewBox="0 0 100 100" xmlns="http://www.w3.org/2000/svg" xmlns:svg="http://www.w3.org/2000/svg"> <defs id="I11ef1215f70c4a2b8d3aae621613cf6a20251106144520" /> <g id="Idbbaa6a1fa524a2eb636e9252a0b65d320251106144520"> <path id="I80ab01e360af41a892add2b9713cc5f220251106144520" d="m 37.5,7.5 c 16.57,0 30,13.43 30,30 0,0.32 -0.004,0.637 -0.016,0.953 -1.16,-0.957 -2.425,-1.789 -3.777,-2.476 C 62.918,22.188 51.484,11.25 37.5,11.25 c -14.496,0 -26.25,11.754 -26.25,26.25 0,4.562 1.164,8.953 3.352,12.844 0.175,0.312 0.257,0.668 0.238,1.019 l -0.055,0.356 -2.832,11.328 11.34,-2.828 c 0.23,-0.059 0.469,-0.071 0.703,-0.039 l 0.344,0.078 0.324,0.144 c 3.453,1.942 7.301,3.075 11.313,3.305 0.687,1.352 1.519,2.617 2.476,3.777 C 38.137,67.496 37.82,67.5 37.5,67.5 32.727,67.5 28.109,66.383 23.949,64.273 L 23.496,64.031 9.828,67.445 C 8.668,67.734 7.598,66.887 7.504,65.789 V 65.484 L 7.555,65.172 10.969,51.508 10.73,51.059 C 9.023,47.695 7.965,44.035 7.621,40.23 L 7.527,38.797 7.5,37.5 c 0,-16.57 13.43,-30 30,-30 z m 16.875,63.75 c 9.32,0 16.875,-7.555 16.875,-16.875 0,-9.32 -7.555,-16.875 -16.875,-16.875 -9.32,0 -16.875,7.555 -16.875,16.875 0,9.32 7.555,16.875 16.875,16.875 z m -3.363,-23.988 -3.36,3.363 h 5.786 c 5.695,0 10.312,4.617 10.312,10.313 v 0.937 c 0,1.035 -0.84,1.875 -1.875,1.875 C 60.84,63.75 60,62.91 60,61.875 v -0.937 c 0,-3.626 -2.938,-6.563 -6.562,-6.563 h -5.786 l 3.36,3.363 c 0.734,0.731 0.734,1.918 0,2.649 -0.731,0.734 -1.918,0.734 -2.649,0 l -6.57,-6.571 C 41.617,53.641 41.484,53.438 41.391,53.219 41.301,52.996 41.25,52.754 41.25,52.5 c 0,-0.254 0.051,-0.496 0.141,-0.719 0.093,-0.219 0.23,-0.426 0.41,-0.605 l 6.562,-6.563 c 0.731,-0.734 1.918,-0.734 2.649,0 0.734,0.731 0.734,1.918 0,2.649 z" style="fill:currentColor;fill-opacity:1;fill-rule:nonzero;stroke:none" transform="scale(1.3333333)" /> </g>
</svg>

