<?xml version="1.0" encoding="UTF-8" standalone="no"?> <svg version="1.1" id="I34293c70c0a24d76a00ee0cfcfa76dbc20251106165302" width="100" height="100" viewBox="0 0 100 100" xmlns="http://www.w3.org/2000/svg" xmlns:svg="http://www.w3.org/2000/svg"> <defs id="I7a5a4662915649bcbc197b950f23b23020251106165302" /> <g id="I306770ba71cd470d9609dc554f6ad0bb20251106165302"> <path id="I653a876c9df5433aab52a77e86d7c6f720251106165302" d="m 10.699,8.051 c -0.73,-0.735 -1.918,-0.735 -2.648,0 -0.735,0.73 -0.735,1.918 0,2.648 l 5.277,5.281 C 12.02,17.82 11.25,20.07 11.25,22.5 V 45 c 0,2.43 0.77,4.68 2.078,6.52 L 28.445,36.402 c 0.969,-0.964 2.133,-1.613 3.364,-1.941 L 54.734,57.387 C 52.543,59.027 49.824,60 46.875,60 H 21.613 c 2.063,2.301 5.055,3.75 8.387,3.75 h 16.875 c 3.984,0 7.645,-1.379 10.535,-3.691 l 6.891,6.89 c 0.73,0.735 1.918,0.735 2.648,0 0.735,-0.73 0.735,-1.918 0,-2.648 z m 48.543,43.234 2.863,2.863 C 63.16,51.949 63.75,49.48 63.75,46.875 V 30 c 0,-3.332 -1.449,-6.324 -3.75,-8.387 v 25.262 c 0,0.453 -0.023,0.902 -0.066,1.344 -0.11,1.062 -0.344,2.093 -0.692,3.066 z M 19.586,11.633 55.867,47.914 C 56.117,46.984 56.25,46.008 56.25,45 V 22.5 C 56.25,16.285 51.215,11.25 45,11.25 H 22.5 c -1.008,0 -1.984,0.133 -2.914,0.383 z m 27.289,12.742 c 0,2.07 -1.68,3.75 -3.75,3.75 -2.07,0 -3.75,-1.68 -3.75,-3.75 0,-2.07 1.68,-3.75 3.75,-3.75 2.07,0 3.75,1.68 3.75,3.75 z M 51.52,54.172 36.402,39.055 c -1.464,-1.465 -3.84,-1.465 -5.304,0 L 15.98,54.172 c 1.84,1.308 4.09,2.078 6.52,2.078 H 45 c 2.43,0 4.68,-0.77 6.52,-2.078 z" style="fill:currentColor;fill-opacity:1;fill-rule:nonzero;stroke:none" transform="scale(1.3333333)" /> </g>
</svg>

