<?xml version="1.0" encoding="UTF-8" standalone="no"?> <svg version="1.1" id="I8287449447a8465e806a24ddf4e6c8e120251106152728" width="100" height="100" viewBox="0 0 100 100" xmlns="http://www.w3.org/2000/svg" xmlns:svg="http://www.w3.org/2000/svg"> <defs id="I997661fbc72a4694983674db823a6d3020251106152728" /> <g id="Ia8ccbaa7d8a84fabbe465f507974348a20251106152728"> <path id="I621221c5e4f04b34b71b1aedacee8ee820251106152728" d="m 37.5,12.5 c -13.809,0 -25,11.191 -25,25 0,6.895 2.789,13.137 7.305,17.66 1.218,1.223 1.218,3.203 -0.004,4.422 -1.219,1.219 -3.199,1.215 -4.418,-0.004 C 9.742,53.926 6.25,46.117 6.25,37.5 6.25,20.242 20.242,6.25 37.5,6.25 c 17.258,0 31.25,13.992 31.25,31.25 0,1.012 -0.047,2.016 -0.145,3.004 C 66.109,39.688 63.957,38.105 62.492,36.801 62.121,23.316 51.074,12.5 37.5,12.5 Z m 16.562,23.398 c 0.571,-0.57 1.25,-0.98 1.977,-1.23 C 54.672,25.656 46.891,18.75 37.5,18.75 c -10.355,0 -18.75,8.395 -18.75,18.75 0,5.176 2.102,9.867 5.492,13.258 1.219,1.222 3.199,1.222 4.418,0 1.223,-1.219 1.223,-3.199 0,-4.418 C 26.395,44.074 25,40.953 25,37.5 25,30.598 30.598,25 37.5,25 44.402,25 50,30.598 50,37.5 c 0,0.566 -0.039,1.125 -0.109,1.668 1.793,-1.059 3.25,-2.348 4.171,-3.27 z M 37.5,31.25 c -3.453,0 -6.25,2.797 -6.25,6.25 0,3.453 2.797,6.25 6.25,6.25 3.453,0 6.25,-2.797 6.25,-6.25 0,-3.453 -2.797,-6.25 -6.25,-6.25 z m 21.844,6.859 c 2.039,2.032 5.957,5.266 10.777,5.93 0.961,0.133 1.754,0.891 1.754,1.84 v 8.871 c 0,11.926 -11.187,16.254 -13.605,17.051 -0.301,0.097 -0.61,0.097 -0.915,0 C 54.938,71.004 43.75,66.676 43.75,54.75 v -8.871 c 0,-0.949 0.793,-1.707 1.754,-1.84 4.82,-0.664 8.738,-3.898 10.777,-5.93 0.813,-0.812 2.25,-0.812 3.063,0 z" style="fill:currentColor;fill-opacity:1;fill-rule:nonzero;stroke:none" transform="scale(1.3333333)" /> </g>
</svg>

