<?xml version="1.0" encoding="UTF-8" standalone="no"?> <svg version="1.1" id="I91035b8c33b24f6da5eca2f47b526fcf20251106125938" width="100" height="100" viewBox="0 0 100 100" xmlns="http://www.w3.org/2000/svg" xmlns:svg="http://www.w3.org/2000/svg"> <defs id="I7632185a38cc4038a97b13c6504d12a820251106125938" /> <g id="I646aa5fe63b148549b0c7fd805e6dc5020251106125938"> <path id="I2894731b7b074d8c802af410f5cb2c4020251106125938" d="m 27.203,50.73 c -0.887,0.942 -0.848,2.426 0.09,3.317 0.941,0.887 2.426,0.848 3.316,-0.09 L 44.672,39.113 c 0.855,-0.906 0.855,-2.32 0,-3.226 L 30.609,21.043 c -0.89,-0.938 -2.375,-0.977 -3.316,-0.09 -0.938,0.891 -0.977,2.375 -0.09,3.317 L 37.52,35.156 H 8.594 c -1.293,0 -2.344,1.051 -2.344,2.344 0,1.293 1.051,2.344 2.344,2.344 H 37.52 Z M 68.75,37.5 c 0,-5.18 -4.195,-9.375 -9.375,-9.375 -5.18,0 -9.375,4.195 -9.375,9.375 0,5.18 4.195,9.375 9.375,9.375 5.18,0 9.375,-4.195 9.375,-9.375 z" style="fill:currentColor;fill-opacity:1;fill-rule:nonzero;stroke:none" transform="scale(1.3333333)" /> </g>
</svg>

