<?xml version="1.0" encoding="UTF-8" standalone="no"?> <svg version="1.1" id="I3e28b2d462a64f788aba7d6b7d62d58720251110123030" width="100" height="100" viewBox="0 0 100 100" xmlns="http://www.w3.org/2000/svg" xmlns:svg="http://www.w3.org/2000/svg"> <defs id="Ic1a7a40b6b7b4202ad0d91fa9ecd80e620251110123030" /> <g id="I6a5e504326d54f21affc3bf1ecd0484e20251110123030"> <path id="Ief2e0907ea6f40d2ac691408b0368bf320251110123030" d="m 34.82,54.91 c 0,5.434 2.157,10.363 5.664,13.981 -2.597,0.488 -5.39,0.754 -8.339,0.754 -15.508,0 -26.79,-6.875 -26.79,-16.836 v -1.914 c 0,-4.442 3.598,-8.04 8.04,-8.04 H 38.84 c -2.524,3.36 -4.02,7.532 -4.02,12.055 z M 32.145,5.355 c 8.875,0 16.07,7.196 16.07,16.075 0,8.875 -7.195,16.07 -16.07,16.07 -8.879,0 -16.075,-7.195 -16.075,-16.07 0,-8.879 7.196,-16.075 16.075,-16.075 z M 72.32,54.91 c 0,9.617 -7.793,17.41 -17.41,17.41 -9.617,0 -17.41,-7.793 -17.41,-17.41 0,-9.617 7.793,-17.41 17.41,-17.41 9.617,0 17.41,7.793 17.41,17.41 z M 50.5,47.82 c 0.523,-0.519 0.523,-1.371 0,-1.89 -0.523,-0.524 -1.371,-0.524 -1.895,0 l -5.355,5.355 c -0.523,0.524 -0.523,1.371 0,1.895 l 5.355,5.355 c 0.524,0.524 1.372,0.524 1.895,0 0.523,-0.523 0.523,-1.371 0,-1.894 L 47.43,53.57 h 6.812 c 4.067,0 7.363,3.301 7.363,7.368 v 0.667 c 0,0.743 0.602,1.34 1.34,1.34 0.743,0 1.34,-0.597 1.34,-1.34 v -0.667 c 0,-5.547 -4.496,-10.043 -10.043,-10.043 H 47.43 Z" style="fill:currentColor;fill-opacity:1;fill-rule:nonzero;stroke:none" transform="scale(1.3333333)" /> </g>
</svg>

