<?xml version="1.0" encoding="UTF-8" standalone="no"?> <svg version="1.1" id="Icfcff0f0b16043e5858d8ea16d09ef8520251106142135" width="100" height="100" viewBox="0 0 100 100" xmlns="http://www.w3.org/2000/svg" xmlns:svg="http://www.w3.org/2000/svg"> <defs id="I0f792ff21f67409abd10a9fd4573caf520251106142135" /> <g id="I8b60fe380844430981ad00795285e91a20251106142135"> <path id="I15ee7a9ad5a843de9d8e595db51dc4a620251106142135" d="m 19.531,9.375 c 1.293,0 2.344,1.051 2.344,2.344 0,1.293 -1.051,2.343 -2.344,2.343 h -1.562 c -2.157,0 -3.907,1.75 -3.907,3.907 v 1.562 c 0,1.293 -1.05,2.344 -2.343,2.344 -1.293,0 -2.344,-1.051 -2.344,-2.344 v -1.562 c 0,-4.746 3.848,-8.594 8.594,-8.594 z m 35.938,0 c -1.293,0 -2.344,1.051 -2.344,2.344 0,1.293 1.051,2.343 2.344,2.343 h 1.562 c 2.157,0 3.907,1.75 3.907,3.907 v 1.562 c 0,1.293 1.05,2.344 2.343,2.344 1.293,0 2.344,-1.051 2.344,-2.344 v -1.562 c 0,-4.746 -3.848,-8.594 -8.594,-8.594 z M 11.719,31.25 c 1.293,0 2.343,1.051 2.343,2.344 v 7.812 c 0,1.293 -1.05,2.344 -2.343,2.344 -1.293,0 -2.344,-1.051 -2.344,-2.344 v -7.812 c 0,-1.293 1.051,-2.344 2.344,-2.344 z m 49.219,2.344 c 0,-1.293 1.05,-2.344 2.343,-2.344 1.293,0 2.344,1.051 2.344,2.344 v 7.812 c 0,1.293 -1.051,2.344 -2.344,2.344 -1.293,0 -2.343,-1.051 -2.343,-2.344 z M 43.75,11.719 c 0,1.293 -1.051,2.343 -2.344,2.343 h -7.812 c -1.293,0 -2.344,-1.05 -2.344,-2.343 0,-1.293 1.051,-2.344 2.344,-2.344 h 7.812 c 1.293,0 2.344,1.051 2.344,2.344 z M 9.375,55.469 c 0,-1.293 1.051,-2.344 2.344,-2.344 1.293,0 2.343,1.051 2.343,2.344 v 1.562 c 0,2.157 1.75,3.907 3.907,3.907 h 39.062 c 2.157,0 3.907,-1.75 3.907,-3.907 v -1.562 c 0,-1.293 1.05,-2.344 2.343,-2.344 1.293,0 2.344,1.051 2.344,2.344 v 1.562 c 0,4.746 -3.848,8.594 -8.594,8.594 H 17.969 c -4.746,0 -8.594,-3.848 -8.594,-8.594 z" style="fill:currentColor;fill-opacity:1;fill-rule:nonzero;stroke:none" transform="scale(1.3333333)" /> </g>
</svg>

