<?xml version="1.0" encoding="UTF-8" standalone="no"?> <svg version="1.1" id="Ib2871ae8b00a4e15971588ffcbbfade020251106170956" width="100" height="100" viewBox="0 0 100 100" xmlns="http://www.w3.org/2000/svg" xmlns:svg="http://www.w3.org/2000/svg"> <defs id="I9775da4355eb47809486cd935b1b00d920251106170956" /> <g id="Ibad1bb596af849b680688126d7573cf820251106170956"> <path id="Id0bf3e2652a947e09fda9ea3a5f7a26220251106170956" d="m 68.75,20.312 c 0,-9.492 -7.695,-17.187 -17.188,-17.187 -9.492,0 -17.187,7.695 -17.187,17.187 0,9.493 7.695,17.188 17.187,17.188 9.493,0 17.188,-7.695 17.188,-17.188 z m -15.625,1.563 0.004,7.824 c 0,0.863 -0.699,1.563 -1.563,1.563 -0.863,0 -1.562,-0.7 -1.562,-1.563 L 50,21.875 h -7.824 c -0.864,0 -1.563,-0.699 -1.563,-1.563 0,-0.863 0.699,-1.562 1.563,-1.562 H 50 v -7.816 c 0,-0.86 0.699,-1.563 1.562,-1.563 0.864,0 1.563,0.703 1.563,1.563 v 7.816 h 7.82 c 0.864,0 1.563,0.699 1.563,1.562 0,0.864 -0.699,1.563 -1.563,1.563 z m 7.813,21.875 v -5.414 c 1.722,-0.898 3.3,-2.035 4.687,-3.367 v 23.625 c 0,5.609 -4.547,10.156 -10.156,10.156 H 19.531 C 13.922,68.75 9.375,64.203 9.375,58.594 V 22.656 C 9.375,17.047 13.922,12.5 19.531,12.5 h 13.278 c -0.621,1.48 -1.067,3.051 -1.321,4.688 H 19.531 c -3.019,0 -5.469,2.449 -5.469,5.468 V 43.75 h 14.063 c 1.187,0 2.168,0.883 2.324,2.027 l 0.02,0.317 c 0,3.883 3.148,7.031 7.031,7.031 3.883,0 7.031,-3.148 7.031,-7.031 0,-1.293 1.051,-2.344 2.344,-2.344 z" style="fill:currentColor;fill-opacity:1;fill-rule:nonzero;stroke:none" transform="scale(1.3333333)" /> </g>
</svg>

