<?xml version="1.0" encoding="UTF-8" standalone="no"?> <svg version="1.1" id="If8975b076f6a4a53b3771400124e113b20251106163938" width="100" height="100" viewBox="0 0 100 100" xmlns="http://www.w3.org/2000/svg" xmlns:svg="http://www.w3.org/2000/svg"> <defs id="Id628c998ea8f4a00b2454178d5a7b40d20251106163938" /> <g id="I07bd15a163374a72a53775c62386938520251106163938"> <path id="I3cd2772e86cb4980afe4ce8e9cb4245720251106163938" d="m 13.395,10.715 h 48.211 v 7.367 H 13.395 Z" style="fill:#e62c46;fill-opacity:1;fill-rule:nonzero;stroke:none" transform="scale(1.3333333)" /> <path id="I6505dc5ae87e4abc8b7a22cb769d49fa20251106163938" d="m 13.395,17.41 h 48.211 v 6.027 H 13.395 Z" style="fill:#f36d38;fill-opacity:1;fill-rule:nonzero;stroke:none" transform="scale(1.3333333)" /> <path id="Ic40dfb8c722e4d7085da6a856ad4f4cd20251106163938" d="m 13.395,22.77 h 48.211 v 6.023 H 13.395 Z" style="fill:#ffd23e;fill-opacity:1;fill-rule:nonzero;stroke:none" transform="scale(1.3333333)" /> <path id="If91b24541a1f4fd194acef68b8cee5ee20251106163938" d="m 13.395,28.125 h 48.211 v 6.027 H 13.395 Z" style="fill:#61bc51;fill-opacity:1;fill-rule:nonzero;stroke:none" transform="scale(1.3333333)" /> <path id="I658228c8a952461592c0bef7fb1d0da620251106163938" d="m 13.395,33.48 h 48.211 v 6.027 H 13.395 Z" style="fill:#1793e8;fill-opacity:1;fill-rule:nonzero;stroke:none" transform="scale(1.3333333)" /> <path id="I23051538c8444f0e8416704ec80a61d120251106163938" d="M 48.215,28.125 30.805,10.715 H 22.77 v 34.82 h 8.035 z" style="fill:#5b3b1c;fill-opacity:1;fill-rule:nonzero;stroke:none" transform="scale(1.3333333)" /> <path id="I87c3885bd9c841fcbd4cef7e98dc0d2720251106163938" d="M 42.855,28.125 25.445,10.715 H 18.75 v 34.82 h 6.695 z" style="fill:#8ed4ea;fill-opacity:1;fill-rule:nonzero;stroke:none" transform="scale(1.3333333)" /> <path id="I7f274bb6e48e49d9bf7928ccd53ea64d20251106163938" d="M 38.84,28.125 21.43,10.715 h -6.7 v 34.82 h 6.7 z" style="fill:#f3b2c7;fill-opacity:1;fill-rule:nonzero;stroke:none" transform="scale(1.3333333)" /> <path id="Ib38cd8b1b87144b4b66ff411032e78ff20251106163938" d="M 34.82,28.125 17.41,10.715 h -4.015 v 34.82 h 4.015 z" style="fill:#ffffff;fill-opacity:1;fill-rule:nonzero;stroke:none" transform="scale(1.3333333)" /> <path id="I810222c0882c4072a6d50c047907fe8420251106163938" d="m 30.805,28.125 -17.41,-17.41 v 34.82 z" style="fill:#ffd23e;fill-opacity:1;fill-rule:nonzero;stroke:none" transform="scale(1.3333333)" /> <path id="I8eba3f6f07d2412fb0cacc04e4c698e920251106163938" d="m 10.715,10.043 c 0,-1.109 0.898,-2.008 2.008,-2.008 h 49.554 c 1.11,0 2.008,0.899 2.008,2.008 v 36.164 c 0,1.109 -0.898,2.008 -2.008,2.008 H 14.73 v 16.742 c 0,1.109 -0.898,2.008 -2.007,2.008 -1.11,0 -2.008,-0.899 -2.008,-2.008 z m 21.43,2.012 H 14.73 v 32.14 H 32.145 L 32.062,44.117 48.051,28.125 32.062,12.137 Z m 5.519,0 14.648,14.648 c 0.786,0.785 0.786,2.059 0,2.844 L 37.664,44.195 H 60.27 v -32.14 z" style="fill:#212121;fill-opacity:1;fill-rule:nonzero;stroke:none" transform="scale(1.3333333)" /> <path id="I8d1b4247b90c44dc91f2ebbf43c0c68920251106163938" d="m 26.785,28.125 c 0,-2.957 -2.398,-5.355 -5.355,-5.355 -2.961,0 -5.36,2.398 -5.36,5.355 0,2.957 2.399,5.355 5.36,5.355 2.957,0 5.355,-2.398 5.355,-5.355 z m -8.035,0 c 0,-1.48 1.199,-2.68 2.68,-2.68 1.476,0 2.675,1.2 2.675,2.68 0,1.48 -1.199,2.68 -2.675,2.68 -1.481,0 -2.68,-1.2 -2.68,-2.68 z" style="fill:#5f3383;fill-opacity:1;fill-rule:nonzero;stroke:none" transform="scale(1.3333333)" /> </g>
</svg>

