<?xml version="1.0" encoding="UTF-8" standalone="no"?> <svg version="1.1" id="I0b78ed73e46d4c0b8e5407691540c44f20251106143238" width="100" height="100" viewBox="0 0 100 100" xmlns="http://www.w3.org/2000/svg" xmlns:svg="http://www.w3.org/2000/svg"> <defs id="I602fc0e63c274760b995b8cd45975dfa20251106143238"> <linearGradient x1="9.4285698" y1="6.5" x2="14.1366" y2="20.9321" gradientUnits="userSpaceOnUse" gradientTransform="scale(3.125)" spreadMethod="pad" id="Ib81b84979bd0424f9517aa485be3385120251106143238"> <stop style="stop-opacity:1;stop-color:#b3e0ff" offset="0" id="Ibbf9d4e8011448028a2ffd186f0f0bdf20251106143238" /> <stop style="stop-opacity:1;stop-color:#8cd0ff" offset="1" id="I364b3b05431e4ebeb735320ef659b33d20251106143238" /> </linearGradient> <linearGradient x1="13.9286" y1="12.4318" x2="16.625" y2="24.267" gradientUnits="userSpaceOnUse" gradientTransform="scale(3.125)" spreadMethod="pad" id="I3b22999a2a3c40d6848eab3a9e7ca91c20251106143238"> <stop style="stop-opacity:0;stop-color:#dcf8ff" offset="0" id="I71c0cf4913244f58b8dfe928810baba120251106143238" /> <stop style="stop-opacity:0.70000763;stop-color:#ff6ce8" offset="1" id="Ie703852bac0a47d8ae39a2e8c1bcf6c720251106143238" /> </linearGradient> <radialGradient fx="0" fy="0" cx="0" cy="0" r="1" gradientUnits="userSpaceOnUse" gradientTransform="matrix(0,26.775563,-26.116063,0,55.580312,59.445938)" spreadMethod="pad" id="I587a96c5d6cc467087fe1499a95559dd20251106143238"> <stop style="stop-opacity:0.29999237;stop-color:#4a43cb" offset="0" id="Idbaacde5030e40fb8e7ad2466bacc31720251106143238" /> <stop style="stop-opacity:0.29999237;stop-color:#4a43cb" offset="0.535" id="I1758e86fbeb64df6b8d2c9515767605720251106143238" /> <stop style="stop-opacity:0;stop-color:#4a43cb" offset="1" id="Ic600e16ff82f4dbfa07f62d787c263fe20251106143238" /> </radialGradient> <linearGradient x1="3.7232101" y1="3" x2="5.3563099" y2="11.5369" gradientUnits="userSpaceOnUse" gradientTransform="scale(3.125)" spreadMethod="pad" id="I3ea6b0fa90eb46a1a401ff61d1da3d8e20251106143238"> <stop style="stop-opacity:1;stop-color:#0094f0" offset="0" id="I5392f87158c34cd7aaa795783bc00abc20251106143238" /> <stop style="stop-opacity:1;stop-color:#2764e7" offset="1" id="Idfae1a41ff2342b69d66dda5abdf366620251106143238" /> </linearGradient> <linearGradient x1="12.3929" y1="14.0625" x2="19.9842" y2="21.9496" gradientUnits="userSpaceOnUse" gradientTransform="scale(3.125)" spreadMethod="pad" id="I6b6a353694364b7bac9da2550ce9c9b920251106143238"> <stop style="stop-opacity:1;stop-color:#52d17c" offset="0" id="Id0831d370ce7495b874f38bf0c18cf1a20251106143238" /> <stop style="stop-opacity:1;stop-color:#22918b" offset="1" id="I31c09a4df3e3461cb5f62acacf385af320251106143238" /> </linearGradient> <linearGradient x1="15.3125" y1="15.51" x2="16.449699" y2="21.130301" gradientUnits="userSpaceOnUse" gradientTransform="scale(3.125)" spreadMethod="pad" id="I82301ea689554b59ac6053ca521a913c20251106143238"> <stop style="stop-opacity:1;stop-color:#ffffff" offset="0" id="I7fda96784cb2429384fc34b7fbeecff620251106143238" /> <stop style="stop-opacity:1;stop-color:#e3ffd9" offset="1" id="Ia4e69534a3634deeb46634cb00963cc520251106143238" /> </linearGradient> </defs> <g id="If494c02eae52412da47103db80f28d7c20251106143238"> <path id="I39fad26dc54c424da543d0009b6c68ca20251106143238" d="m 65.625,23.438 v 32.031 c 0,5.609 -4.547,10.156 -10.156,10.156 H 19.531 C 13.922,65.625 9.375,61.078 9.375,55.469 V 23.438 L 37.5,20.312 Z" transform="scale(1.3333333)" style="fill:url(#Ib81b84979bd0424f9517aa485be3385120251106143238);stroke:none" /> <path d="m 65.625,23.438 v 32.031 c 0,5.609 -4.547,10.156 -10.156,10.156 H 19.531 C 13.922,65.625 9.375,61.078 9.375,55.469 V 23.438 L 37.5,20.312 Z" transform="scale(1.3333333)" style="fill:url(#I3b22999a2a3c40d6848eab3a9e7ca91c20251106143238);stroke:none" opacity="1" id="I4ec1707918ef4f7fb33a91905b83d1de20251106143238" /> <path d="m 65.625,23.438 v 32.031 c 0,5.609 -4.547,10.156 -10.156,10.156 H 19.531 C 13.922,65.625 9.375,61.078 9.375,55.469 V 23.438 L 37.5,20.312 Z" transform="scale(1.3333333)" style="fill:url(#I587a96c5d6cc467087fe1499a95559dd20251106143238);stroke:none" opacity="1" id="Iddf4384870484d21ae421d96f7ed371f20251106143238" /> <path id="I60e925839235493cb56c6924a1d4217120251106143238" d="m 55.469,9.375 c 5.609,0 10.156,4.547 10.156,10.156 V 25 H 9.375 v -5.469 c 0,-5.609 4.547,-10.156 10.156,-10.156 z" transform="scale(1.3333333)" style="fill:url(#I3ea6b0fa90eb46a1a401ff61d1da3d8e20251106143238);stroke:none" /> <path id="Ieadb7a0ab5e54717abb82874670b67a220251106143238" d="m 54.688,37.5 c 9.492,0 17.187,7.695 17.187,17.188 0,9.492 -7.695,17.187 -17.187,17.187 C 45.195,71.875 37.5,64.18 37.5,54.688 37.5,45.195 45.195,37.5 54.688,37.5 Z" transform="scale(1.3333333)" style="fill:url(#I6b6a353694364b7bac9da2550ce9c9b920251106143238);stroke:none" /> <path id="I8feaa0fcefe14276aaec8a72bfd9776620251106143238" d="m 65.168,47.332 c 0.609,0.609 0.609,1.602 0,2.211 l -12.5,12.5 c -0.609,0.609 -1.602,0.609 -2.211,0 l -6.25,-6.25 c -0.609,-0.609 -0.609,-1.602 0,-2.211 0.609,-0.609 1.602,-0.609 2.211,0 l 5.144,5.145 11.395,-11.395 c 0.609,-0.609 1.602,-0.609 2.211,0 z" transform="scale(1.3333333)" style="fill:url(#I82301ea689554b59ac6053ca521a913c20251106143238);fill-rule:evenodd;stroke:none" /> </g>
</svg>

