<?xml version="1.0" encoding="UTF-8" standalone="no"?> <svg version="1.1" id="I874f9987bbe44ea4be1fa3a1c62287c120251106165302" width="100" height="100" viewBox="0 0 100 100" xmlns="http://www.w3.org/2000/svg" xmlns:svg="http://www.w3.org/2000/svg"> <defs id="I88d7804092d6447094be423b3fa50af920251106165302" /> <g id="I2b19337e6df4458aa578c84a370eb18720251106165302"> <path id="Ied427775fbe34fccbe3e0e295ef076d920251106165302" d="M 16.406,6.25 C 10.797,6.25 6.25,10.797 6.25,16.406 v 28.125 c 0,2.004 0.582,3.871 1.582,5.446 L 25.648,33.195 c 2.707,-2.55 6.934,-2.55 9.641,0 l 17.816,16.782 c 1,-1.575 1.583,-3.442 1.583,-5.446 V 16.406 C 54.688,10.797 50.141,6.25 44.531,6.25 Z M 39.844,25 c -2.156,0 -3.906,-1.75 -3.906,-3.906 0,-2.156 1.75,-3.906 3.906,-3.906 2.156,0 3.906,1.75 3.906,3.906 C 43.75,23.25 42,25 39.844,25 Z M 16.406,54.688 c -1.906,0 -3.687,-0.524 -5.211,-1.438 L 28.863,36.609 c 0.903,-0.851 2.309,-0.851 3.211,0 L 49.742,53.25 c -1.523,0.914 -3.304,1.438 -5.211,1.438 z m 3.903,3.906 v -0.782 h 25.003 c 0.25,0 0.5,-0.007 0.747,-0.023 6.558,-0.383 11.757,-5.82 11.757,-12.477 v -25 h 0.774 c 5.609,0 10.156,4.547 10.156,10.157 v 21.875 c 0,9.062 -7.344,16.406 -16.406,16.406 H 30.465 c -5.61,0 -10.156,-4.547 -10.156,-10.156 z" style="fill:currentColor;fill-opacity:1;fill-rule:nonzero;stroke:none" transform="scale(1.3333333)" /> </g>
</svg>

