<?xml version="1.0" encoding="UTF-8" standalone="no"?> <svg version="1.1" id="I87a50464821046079363ae47da39917d20251106154012" width="100" height="100" viewBox="0 0 100 100" xmlns="http://www.w3.org/2000/svg" xmlns:svg="http://www.w3.org/2000/svg"> <defs id="I5f1a506752334bf095fd1800ba555da820251106154012" /> <g id="I7aea0c5d469d4494ba44ff57fb1b90cf20251106154012"> <path id="I46b1e3ae8f794205894811b361130a0b20251106154012" d="m 15,18.75 c 0,-3.777 3.281,-6.582 7.125,-8.336 C 26.992,8.391 32.23,7.398 37.5,7.5 42.77,7.398 48.008,8.391 52.875,10.414 56.719,12.168 60,14.973 60,18.75 v 19.156 c -1.164,0.094 -2.312,0.367 -3.395,0.817 -0.117,0.047 -0.238,0.101 -0.355,0.152 v -13.75 c -1.051,0.773 -2.184,1.434 -3.375,1.969 C 48.004,29.113 42.77,30.102 37.5,30 32.23,30.102 26.992,29.109 22.125,27.086 20.934,26.555 19.801,25.895 18.75,25.125 V 56.25 c 0,1.402 1.336,3.281 4.941,4.922 4.379,1.797 9.079,2.676 13.809,2.578 h 0.078 c 0.043,0.203 0.094,0.402 0.149,0.605 l -2.852,2.864 c -0.074,0.074 -0.148,0.152 -0.219,0.23 C 30.355,67.211 26.117,66.246 22.125,64.586 18.281,62.832 15,60.027 15,56.25 Z m 3.75,0 c 0,1.402 1.336,3.281 4.941,4.922 4.379,1.797 9.079,2.676 13.809,2.578 4.73,0.098 9.43,-0.781 13.809,-2.578 3.605,-1.641 4.941,-3.52 4.941,-4.922 0,-1.402 -1.336,-3.281 -4.941,-4.926 C 46.93,12.031 42.23,11.152 37.5,11.25 32.77,11.152 28.07,12.031 23.691,13.824 20.086,15.469 18.75,17.348 18.75,18.75 Z m 53.242,21.953 c 0.352,-0.351 0.551,-0.828 0.551,-1.328 0,-0.496 -0.195,-0.973 -0.551,-1.324 -0.347,-0.356 -0.828,-0.551 -1.324,-0.551 -0.496,0 -0.977,0.195 -1.328,0.547 l -4.445,4.449 c -0.047,0.063 -0.094,0.129 -0.133,0.199 -1.43,-0.855 -3.106,-1.207 -4.762,-1.004 -1.652,0.204 -3.191,0.954 -4.371,2.129 l -2.25,2.25 c -0.691,0.688 -1.078,1.621 -1.078,2.598 0,0.973 0.387,1.91 1.078,2.598 l 5.406,5.398 c 0.692,0.688 1.625,1.074 2.602,1.074 0.972,0 1.91,-0.386 2.597,-1.074 l 2.25,-2.25 c 1.18,-1.184 1.93,-2.723 2.133,-4.379 0.203,-1.652 -0.152,-3.328 -1.008,-4.762 0.071,-0.039 0.137,-0.082 0.2,-0.132 z M 50.727,53.906 c -0.344,-0.34 -0.75,-0.613 -1.196,-0.797 -0.445,-0.183 -0.922,-0.281 -1.406,-0.281 -0.48,0 -0.961,0.098 -1.406,0.281 -0.446,0.184 -0.852,0.457 -1.192,0.797 l -2.25,2.25 c -1.175,1.18 -1.925,2.723 -2.129,4.375 -0.203,1.657 0.149,3.332 1.004,4.766 -0.07,0.035 -0.136,0.082 -0.199,0.129 l -4.433,4.445 c -0.34,0.352 -0.528,0.824 -0.524,1.317 0.004,0.492 0.199,0.964 0.547,1.312 0.348,0.348 0.82,0.543 1.309,0.547 0.492,0.004 0.968,-0.184 1.32,-0.527 l 4.445,-4.446 c 0.047,-0.062 0.094,-0.129 0.133,-0.199 1.434,0.855 3.105,1.207 4.762,1.004 1.652,-0.203 3.191,-0.953 4.375,-2.129 l 2.25,-2.25 c 0.687,-0.691 1.074,-1.625 1.074,-2.602 0,-0.972 -0.387,-1.91 -1.074,-2.601 z" style="fill:currentColor;fill-opacity:1;fill-rule:nonzero;stroke:none" transform="scale(1.3333333)" /> </g>
</svg>

