<?xml version="1.0" encoding="UTF-8" standalone="no"?> <svg version="1.1" id="I733dee5e92de410089b7e14cf0e7c8ff20251106112458" width="100" height="100" viewBox="0 0 100 100" xmlns="http://www.w3.org/2000/svg" xmlns:svg="http://www.w3.org/2000/svg"> <defs id="I4895b805b9ce47e49d8f8b09e593168420251106112458" /> <g id="I7bb3d582e5204be3a17f2fd1ec4aa28520251106112458"> <path id="I3f0b6d93ed25471c8104824ae189410920251106112458" d="M 58.426,8.371 H 53.07 c -0.371,0 -0.672,0.301 -0.672,0.668 v 57.59 c 0,0.367 0.301,0.672 0.672,0.672 h 5.356 c 0.367,0 0.672,-0.305 0.672,-0.672 V 9.039 c 0,-0.367 -0.305,-0.668 -0.672,-0.668 z m -42.524,0 v 6.059 c 0,0.797 0.352,1.543 0.957,2.05 L 41.902,37.5 16.859,58.52 c -0.605,0.507 -0.957,1.253 -0.957,2.05 v 6.059 c 0,0.57 0.664,0.879 1.098,0.512 L 52.316,37.5 17,7.859 C 16.566,7.492 15.902,7.801 15.902,8.371 Z" style="fill:currentColor;fill-opacity:1;fill-rule:nonzero;stroke:none" transform="scale(1.3333333)" /> </g>
</svg>

