<?xml version="1.0" encoding="UTF-8" standalone="no"?> <svg version="1.1" id="I573f565ab651468cb38073ffd3f3514320251106151526" width="100" height="100" viewBox="0 0 100 100" xmlns="http://www.w3.org/2000/svg" xmlns:svg="http://www.w3.org/2000/svg"> <defs id="I26e57c6b932a48769c7f7f8775e8b20d20251106151526"> <linearGradient x1="30.106001" y1="12.8261" x2="20.769501" y2="5.1883898" gradientUnits="userSpaceOnUse" gradientTransform="scale(2.34375)" spreadMethod="pad" id="I03472bfa4c3f4f2b9a8634571fbe280b20251106151526"> <stop style="stop-opacity:1;stop-color:#ff6f47" offset="0" id="I566eafe5575f48fb8a102b957863bab020251106151526" /> <stop style="stop-opacity:1;stop-color:#ffcd0f" offset="1" id="I4b7a9ba1d2ea4168b556a6af770952cc20251106151526" /> </linearGradient> <radialGradient fx="0" fy="0" cx="0" cy="0" r="1" gradientUnits="userSpaceOnUse" gradientTransform="matrix(24.374965,-24.374965,24.374965,24.374965,40.527891,37.03125)" spreadMethod="pad" id="I669ac8b286aa4efdb1f48f3a41e2920d20251106151526"> <stop style="stop-opacity:1;stop-color:#ff6f47" offset="0" id="Ie485858302af45168b5644494f4d119020251106151526" /> <stop style="stop-opacity:1;stop-color:#ff6f47" offset="0.644231" id="I1aebf73f9b8543b98d039a37917f187920251106151526" /> <stop style="stop-opacity:0;stop-color:#ff6f47" offset="0.942308" id="Iafa17d40f1f44df992cce0efaecc5f7220251106151526" /> <stop style="stop-opacity:0;stop-color:#ff6f47" offset="1" id="Ie97e2f98187c4068ba4245899146edac20251106151526" /> </radialGradient> <linearGradient x1="13.8439" y1="13.8261" x2="4.5074301" y2="6.1883898" gradientUnits="userSpaceOnUse" gradientTransform="scale(2.34375)" spreadMethod="pad" id="I2537f5d1012f4483983018ff4ab1bab220251106151526"> <stop style="stop-opacity:1;stop-color:#ff6f47" offset="0" id="Ie35418a1bdd34349ae6c427e451f8a7820251106151526" /> <stop style="stop-opacity:1;stop-color:#ffcd0f" offset="1" id="I5ca00704dce54d53aacb1c6cbc3a7ab720251106151526" /> </linearGradient> <radialGradient fx="0" fy="0" cx="0" cy="0" r="1" gradientUnits="userSpaceOnUse" gradientTransform="matrix(-24.374965,-24.374965,24.374965,-24.374965,39.375,39.375)" spreadMethod="pad" id="I1aafed0656ff4b739eb0380693fdca7820251106151526"> <stop style="stop-opacity:1;stop-color:#ff6f47" offset="0" id="I3963e17855f44119a24e63822e8d4c9f20251106151526" /> <stop style="stop-opacity:1;stop-color:#ff6f47" offset="0.658654" id="I9045f691f6a7475b9fa2c1256686800d20251106151526" /> <stop style="stop-opacity:0;stop-color:#ff6f47" offset="0.948918" id="I063cc49bd4734fd590052f52fc10829820251106151526" /> <stop style="stop-opacity:0;stop-color:#ff6f47" offset="1" id="I31fc922645304513acb648e12c78d17020251106151526" /> </radialGradient> <linearGradient x1="5" y1="21.2721" x2="5.9462199" y2="29.5508" gradientUnits="userSpaceOnUse" gradientTransform="scale(2.34375)" spreadMethod="pad" id="I5b31c259d6014bf492c7b36d033082a420251106151526"> <stop style="stop-opacity:1;stop-color:#cad2d9" offset="0" id="I6feaa27b19f44b68958ce0766649533d20251106151526" /> <stop style="stop-opacity:1;stop-color:#70777d" offset="1" id="I09d451dc535348ee9194565ae513732f20251106151526" /> </linearGradient> <linearGradient x1="5" y1="21.2721" x2="5.9462199" y2="29.5508" gradientUnits="userSpaceOnUse" gradientTransform="scale(2.34375)" spreadMethod="pad" id="I6d9d78407b51444bb9d3d0f56deb8adc20251106151526"> <stop style="stop-opacity:1;stop-color:#cad2d9" offset="0" id="I3c924d18d3ec4c7ca6152b990753d78020251106151526" /> <stop style="stop-opacity:1;stop-color:#70777d" offset="1" id="Ib34b1fc5f58d460e94d4f0d5aee1444820251106151526" /> </linearGradient> <linearGradient x1="8" y1="2.6666701" x2="20" y2="29.3333" gradientUnits="userSpaceOnUse" gradientTransform="scale(2.34375)" spreadMethod="pad" id="I30c00eae516f4b829873e964432b301e20251106151526"> <stop style="stop-opacity:1;stop-color:#1ec8b0" offset="0" id="I17f05b2a808643edb19d8eafb55ea77020251106151526" /> <stop style="stop-opacity:1;stop-color:#2764e7" offset="1" id="I2794d6cef7054b42ba7748c07486a0cb20251106151526" /> </linearGradient> <linearGradient x1="9.0434799" y1="3.8260901" x2="22.087" y2="31.652201" gradientUnits="userSpaceOnUse" gradientTransform="scale(2.34375)" spreadMethod="pad" id="I97e40e2d69b6427a8c535cfab8c818b720251106151526"> <stop style="stop-opacity:1;stop-color:#fdfdfd" offset="0" id="I4f4ce9caf48b44d8b7093e9a8bf1063d20251106151526" /> <stop style="stop-opacity:1;stop-color:#dedeff" offset="1" id="I41ac41dd9103431db98159929c71b84d20251106151526" /> </linearGradient> <linearGradient x1="16.799999" y1="10.8445" x2="20.5725" y2="17.132" gradientUnits="userSpaceOnUse" gradientTransform="scale(2.34375)" spreadMethod="pad" id="I105e8a09c6e34a2591771655f1bb1a8420251106151526"> <stop style="stop-opacity:1;stop-color:#1ec8b0" offset="0" id="Icbd8f690b87440208a07a1cf5975980d20251106151526" /> <stop style="stop-opacity:1;stop-color:#2764e7" offset="1" id="Ia9ed1ae6809141eebb082de2abc32c3b20251106151526" /> </linearGradient> </defs> <g id="I44fcdc9d3e0e4252a6e76205a923f70b20251106151526"> <path id="Iff20eb385530447c95a5bf4e6d7eb56c20251106151526" d="m 61.859,29.039 c 3.641,-1.988 6.11,-5.851 6.11,-10.289 0,-6.473 -5.246,-11.719 -11.719,-11.719 -4.438,0 -8.301,2.469 -10.289,6.11 7.434,2.578 13.32,8.464 15.898,15.898 z" transform="scale(1.3333333)" style="fill:url(#I03472bfa4c3f4f2b9a8634571fbe280b20251106151526);stroke:none" /> <path d="m 61.859,29.039 c 3.641,-1.988 6.11,-5.851 6.11,-10.289 0,-6.473 -5.246,-11.719 -11.719,-11.719 -4.438,0 -8.301,2.469 -10.289,6.11 7.434,2.578 13.32,8.464 15.898,15.898 z" transform="scale(1.3333333)" style="fill:url(#I669ac8b286aa4efdb1f48f3a41e2920d20251106151526);stroke:none" opacity="1" id="Ief05365db9d64409ac4a68729a0aae9b20251106151526" /> <path id="I04e48a94d1b8483faaf1079aa050b6d120251106151526" d="M 29.039,13.141 C 21.605,15.719 15.719,21.605 13.141,29.039 9.5,27.051 7.031,23.188 7.031,18.75 c 0,-6.473 5.246,-11.719 11.719,-11.719 4.438,0 8.301,2.469 10.289,6.11 z" transform="scale(1.3333333)" style="fill:url(#I2537f5d1012f4483983018ff4ab1bab220251106151526);stroke:none" /> <path d="M 29.039,13.141 C 21.605,15.719 15.719,21.605 13.141,29.039 9.5,27.051 7.031,23.188 7.031,18.75 c 0,-6.473 5.246,-11.719 11.719,-11.719 4.438,0 8.301,2.469 10.289,6.11 z" transform="scale(1.3333333)" style="fill:url(#I1aafed0656ff4b739eb0380693fdca7820251106151526);stroke:none" opacity="1" id="I3c0164e016a540f2af2a42174038a05320251106151526" /> <path id="Ia507ee6f5df746a4ba4df43ed333f7c020251106151526" d="m 13.375,64.938 7.031,-7.032 -3.312,-3.312 -7.032,7.031 c -0.917,0.914 -0.917,2.398 0,3.313 0.915,0.917 2.399,0.917 3.313,0 z" transform="scale(1.3333333)" style="fill:url(#I5b31c259d6014bf492c7b36d033082a420251106151526);stroke:none" /> <path id="I49a40f27984348d0bcf0319aac8ca58420251106151526" d="m 64.938,61.625 -7.032,-7.031 -3.312,3.312 7.031,7.032 c 0.914,0.917 2.398,0.917 3.313,0 0.917,-0.915 0.917,-2.399 0,-3.313 z" transform="scale(1.3333333)" style="fill:url(#I6d9d78407b51444bb9d3d0f56deb8adc20251106151526);stroke:none" /> <path id="Ia3036f8c91be46e5892dbebb1f8ec19420251106151526" d="M 65.625,37.5 C 65.625,53.031 53.031,65.625 37.5,65.625 21.969,65.625 9.375,53.031 9.375,37.5 9.375,21.969 21.969,9.375 37.5,9.375 c 15.531,0 28.125,12.594 28.125,28.125 z" transform="scale(1.3333333)" style="fill:url(#I03472bfa4c3f4f2b9a8634571fbe280b202511061515266);stroke:none" /> <path id="If294dbdbc56340448f64825bd0b3f5d320251106151526" d="m 60.938,37.5 c 0,12.945 -10.493,23.438 -23.438,23.438 -12.945,0 -23.438,-10.493 -23.438,-23.438 0,-12.945 10.493,-23.438 23.438,-23.438 12.945,0 23.438,10.493 23.438,23.438 z" transform="scale(1.3333333)" style="fill:url(#I03472bfa4c3f4f2b9a8634571fbe280b202511061515268);stroke:none" /> <path id="Ic8f6169895d84342bf28bdce6b64c27120251106151526" d="m 35.156,21.094 c 1.293,0 2.344,1.051 2.344,2.344 V 37.5 h 9.375 c 1.293,0 2.344,1.051 2.344,2.344 0,1.293 -1.051,2.344 -2.344,2.344 H 35.156 c -1.293,0 -2.344,-1.051 -2.344,-2.344 V 23.438 c 0,-1.293 1.051,-2.344 2.344,-2.344 z" transform="scale(1.3333333)" style="fill:url(#I105e8a09c6e34a2591771655f1bb1a8420251106151526);fill-rule:evenodd;stroke:none" /> </g>
</svg>

