<?xml version="1.0" encoding="UTF-8" standalone="no"?> <svg version="1.1" id="I795146c6797f481db57c6cd8b598915920251106165302" width="100" height="100" viewBox="0 0 100 100" xmlns="http://www.w3.org/2000/svg" xmlns:svg="http://www.w3.org/2000/svg"> <defs id="Id946898f9a4748e49338d07b1248092d20251106165302" /> <g id="I085a1e7025ed40dda33687ffb8d936ac20251106165302"> <path id="Ib0f78821178d4b2186b9940d62cb059b20251106165302" d="m 59.375,14.039 c 0,4.313 -3.496,7.813 -7.813,7.813 -0.546,0 -1.082,-0.059 -1.597,-0.164 l -4,6.617 C 48.445,30.59 50,33.863 50,37.504 v 0.18 l 4.051,0.816 c 1.316,-2.453 3.906,-4.121 6.887,-4.121 4.316,0 7.812,3.496 7.812,7.812 0,4.313 -3.496,7.813 -7.812,7.813 -4.004,0 -7.305,-3.016 -7.758,-6.899 l -4.125,-0.828 c -1.075,2.606 -3.008,4.766 -5.446,6.133 l 1.547,4.727 0.067,-0.004 h 0.089 c 4.317,0 7.813,3.5 7.813,7.812 0,4.317 -3.496,7.813 -7.813,7.813 -4.316,0 -7.812,-3.496 -7.812,-7.813 0,-2.593 1.266,-4.894 3.211,-6.312 L 39.16,49.895 c -0.543,0.07 -1.098,0.109 -1.66,0.109 -4.129,0 -7.789,-2.004 -10.066,-5.086 l -5.606,2.648 c 0.031,0.286 0.047,0.579 0.047,0.875 0,4.313 -3.496,7.813 -7.813,7.813 -4.316,0 -7.812,-3.5 -7.812,-7.813 0,-4.316 3.496,-7.812 7.812,-7.812 2.336,0 4.434,1.023 5.864,2.648 L 25.41,40.688 C 25.141,39.672 25,38.602 25,37.504 c 0,-3.027 1.074,-5.801 2.859,-7.961 l -3.097,-3.527 c -0.895,0.355 -1.867,0.55 -2.887,0.55 -4.316,0 -7.813,-3.5 -7.813,-7.812 0,-4.316 3.497,-7.813 7.813,-7.813 4.316,0 7.813,3.497 7.813,7.813 0,1.586 -0.473,3.066 -1.29,4.297 l 3.071,3.5 c 1.789,-0.989 3.843,-1.547 6.031,-1.547 1.578,0 3.09,0.293 4.48,0.824 l 3.895,-6.437 c -1.32,-1.399 -2.125,-3.282 -2.125,-5.352 0,-4.316 3.496,-7.812 7.812,-7.812 4.317,0 7.813,3.496 7.813,7.812 z" style="fill:currentColor;fill-opacity:1;fill-rule:nonzero;stroke:none" transform="scale(1.3333333)" /> </g>
</svg>

