<?xml version="1.0" encoding="UTF-8" standalone="no"?> <svg version="1.1" id="I8834a9d3a7454400b9a421515afa53f120251106164750" width="100" height="100" viewBox="0 0 100 100" xmlns="http://www.w3.org/2000/svg" xmlns:svg="http://www.w3.org/2000/svg"> <defs id="I73c5e3e437554bf588d2d32995bd901420251106164750" /> <g id="I76eac51f34ee4a2694af10c8d72b8f2e20251106164750"> <path id="I4e5cbd1706d544dbbbc57102625f615320251106164750" d="m 37.492,12.488 v 19.539 c 0,1.297 1.051,2.344 2.344,2.344 1.297,0 2.344,-1.047 2.344,-2.344 V 16.32 c 0,-0.75 0.64,-1.488 1.558,-1.492 0.821,-0.004 1.574,0.766 1.574,1.574 V 39.84 c 0,0.961 0.586,1.828 1.481,2.18 0.891,0.351 1.91,0.128 2.566,-0.571 h 0.004 l 0.008,-0.011 c 0.012,-0.012 0.035,-0.036 0.07,-0.067 0.067,-0.066 0.172,-0.172 0.317,-0.301 0.289,-0.261 0.719,-0.621 1.254,-1.004 1.101,-0.777 2.531,-1.546 4.07,-1.816 1.68,-0.297 3.273,-0.117 4.332,0.43 0.652,0.34 1.16,0.828 1.391,1.652 l -5.184,3.895 c -0.086,0.066 -0.168,0.14 -0.246,0.218 l -6.797,6.789 c -2.922,2.918 -5.351,6.289 -7.195,9.981 -0.875,1.746 -2.66,2.847 -4.61,2.847 H 28.25 c -1.789,0 -3.344,-0.851 -4.145,-2.226 C 21.805,57.898 18.75,51.562 18.75,46.102 V 21.871 c 0,-0.84 0.672,-1.562 1.566,-1.562 0.903,0 1.571,0.722 1.571,1.562 v 10.938 c 0,1.296 1.051,2.343 2.343,2.343 1.297,0 2.344,-1.047 2.344,-2.343 V 16.402 c 0,-0.867 0.672,-1.574 1.551,-1.574 0.898,0 1.563,0.703 1.563,1.574 v 15.625 c 0,1.297 1.05,2.344 2.343,2.344 1.293,0 2.344,-1.047 2.344,-2.344 V 12.488 c 0,-0.851 0.664,-1.562 1.559,-1.562 0.906,0 1.558,0.695 1.558,1.562 z m 6.215,-2.347 c -0.66,0.004 -1.285,0.105 -1.871,0.289 z M 41.836,10.43 C 41.016,8.062 38.805,6.234 35.93,6.238 c -2.864,0 -5.071,1.832 -5.891,4.192 -0.598,-0.188 -1.238,-0.289 -1.914,-0.289 -3.465,0 -5.926,2.671 -6.211,5.679 -0.504,-0.129 -1.039,-0.199 -1.598,-0.199 -3.656,0 -6.254,2.996 -6.254,6.25 v 24.231 c 0,6.816 3.661,14.101 5.997,18.097 1.738,2.977 4.933,4.551 8.191,4.551 h 8.523 c 3.727,0 7.133,-2.105 8.801,-5.441 1.621,-3.239 3.754,-6.2 6.317,-8.758 l 6.679,-6.676 6.121,-4.598 c 0.586,-0.445 0.934,-1.136 0.934,-1.875 0,-3.316 -1.66,-5.644 -4.059,-6.886 C 59.328,33.359 56.621,33.223 54.273,33.633 52.652,33.918 51.203,34.52 50,35.18 V 16.402 c 0,-3.312 -2.777,-6.281 -6.293,-6.261" style="fill:currentColor;fill-opacity:1;fill-rule:nonzero;stroke:none" transform="scale(1.3333333)" /> </g>
</svg>

