<?xml version="1.0" encoding="UTF-8" standalone="no"?> <svg version="1.1" id="I85c1564d3b0c4e25bbd0a471af1e2fa220251106171633" width="100" height="100" viewBox="0 0 100 100" xmlns="http://www.w3.org/2000/svg" xmlns:svg="http://www.w3.org/2000/svg"> <defs id="Iba9700d1702647d582557114653783dd20251106171633" /> <g id="Id2e19987734348119d3ef28d5e5f7f9020251106171633"> <path id="I6d7153cfd6394befa3daca7e572e76cc20251106171633" d="m 52.34,6.25 c 3.883,0 7.031,3.148 7.031,7.031 v 48.438 c 0,3.883 -3.148,7.031 -7.031,7.031 H 19.531 C 15.648,68.75 12.5,65.602 12.5,61.719 V 13.281 c 0,-3.883 3.148,-7.031 7.031,-7.031 z m 0,4.688 H 19.531 c -1.293,0 -2.343,1.05 -2.343,2.343 v 48.438 c 0,1.293 1.05,2.343 2.343,2.343 H 52.34 c 1.293,0 2.344,-1.05 2.344,-2.343 V 13.281 c 0,-1.293 -1.051,-2.343 -2.344,-2.343 z M 62.5,46.883 h 2.344 c 1.187,0 2.168,0.879 2.324,2.023 l 0.02,0.321 v 4.679 c 0,1.188 -0.883,2.168 -2.028,2.324 l -0.316,0.02 H 62.5 v -9.367 h 2.344 z m 0,-12.5 h 2.344 c 1.187,0 2.168,0.879 2.324,2.023 l 0.02,0.321 v 4.679 c 0,1.188 -0.883,2.168 -2.028,2.324 l -0.316,0.02 H 62.5 v -9.367 h 2.344 z m 0,-12.5 h 2.344 c 1.187,0 2.168,0.879 2.324,2.023 l 0.02,0.321 v 4.679 c 0,1.188 -0.883,2.168 -2.028,2.324 l -0.316,0.02 H 62.5 v -9.367 h 2.344 z M 47.652,15.625 c 1.293,0 2.344,1.051 2.344,2.344 v 7.808 c 0,1.293 -1.051,2.344 -2.344,2.344 H 24.219 c -1.293,0 -2.344,-1.051 -2.344,-2.344 v -7.808 c 0,-1.293 1.051,-2.344 2.344,-2.344 z m -2.343,4.687 H 26.562 v 3.122 h 18.747 z" style="fill:currentColor;fill-opacity:1;fill-rule:nonzero;stroke:none" transform="scale(1.3333333)" /> </g>
</svg>

