<?xml version="1.0" encoding="UTF-8" standalone="no"?> <svg version="1.1" id="Ib1a98522375b4ea086cbe8144a53803020251110135155" width="100" height="100" viewBox="0 0 100 100" xmlns="http://www.w3.org/2000/svg" xmlns:svg="http://www.w3.org/2000/svg"> <defs id="Ib370174e45de4c44aec0a413ef4f642b20251110135155" /> <g id="I10535b724c234eaabcd009534a25753320251110135155"> <path id="Icb0d9c74690f4c54945e1d33e91991a620251110135155" d="m 11.25,21.562 c 0,-5.695 4.617,-10.312 10.312,-10.312 h 31.876 c 5.695,0 10.312,4.617 10.312,10.312 V 36 c -2.812,-1.438 -6,-2.25 -9.375,-2.25 -4.414,0 -8.508,1.387 -11.863,3.75 h -6.887 c -1.035,0 -1.875,0.84 -1.875,1.875 0,1.035 0.84,1.875 1.875,1.875 h 2.84 c -2.945,3.566 -4.715,8.141 -4.715,13.125 0,3.375 0.812,6.563 2.25,9.375 H 21.562 C 15.867,63.75 11.25,59.133 11.25,53.438 Z M 25.312,30 c 1.555,0 2.813,-1.258 2.813,-2.812 0,-1.555 -1.258,-2.813 -2.813,-2.813 -1.554,0 -2.812,1.258 -2.812,2.813 0,1.554 1.258,2.812 2.812,2.812 z m 2.813,8.438 c 0,-1.555 -1.258,-2.813 -2.813,-2.813 -1.554,0 -2.812,1.258 -2.812,2.813 0,1.554 1.258,2.812 2.812,2.812 1.555,0 2.813,-1.258 2.813,-2.812 z M 25.312,52.5 c 1.555,0 2.813,-1.258 2.813,-2.812 0,-1.555 -1.258,-2.813 -2.813,-2.813 -1.554,0 -2.812,1.258 -2.812,2.813 0,1.554 1.258,2.812 2.812,2.812 z M 33.75,28.125 c 0,1.035 0.84,1.875 1.875,1.875 h 15 C 51.66,30 52.5,29.16 52.5,28.125 52.5,27.09 51.66,26.25 50.625,26.25 h -15 c -1.035,0 -1.875,0.84 -1.875,1.875 z m 11.496,14.781 c 1.137,4.055 -1.285,8.25 -5.363,9.293 l -1.731,0.442 c -0.054,0.57 -0.086,1.148 -0.086,1.734 0,0.703 0.043,1.398 0.125,2.078 l 1.309,0.309 c 4.199,0.996 6.695,5.316 5.461,9.449 l -0.473,1.582 c 0.965,0.766 2.012,1.418 3.129,1.945 l 1.219,-1.293 c 2.961,-3.136 7.953,-3.133 10.91,0.008 l 1.266,1.34 c 1.097,-0.504 2.129,-1.133 3.082,-1.863 l -0.586,-2.09 c -1.137,-4.055 1.285,-8.25 5.367,-9.289 l 1.727,-0.442 c 0.054,-0.57 0.082,-1.148 0.082,-1.734 0,-0.703 -0.039,-1.398 -0.122,-2.078 l -1.308,-0.313 c -4.199,-0.992 -6.695,-5.312 -5.461,-9.445 l 0.473,-1.582 c -0.965,-0.762 -2.012,-1.418 -3.129,-1.945 l -1.219,1.289 c -2.961,3.137 -7.953,3.137 -10.91,-0.004 l -1.266,-1.344 c -1.097,0.508 -2.129,1.133 -3.082,1.867 z m 9.129,15.219 c -2.07,0 -3.75,-1.68 -3.75,-3.75 0,-2.07 1.68,-3.75 3.75,-3.75 2.074,0 3.75,1.68 3.75,3.75 0,2.07 -1.676,3.75 -3.75,3.75 z" style="fill:currentColor;fill-opacity:1;fill-rule:nonzero;stroke:none" transform="scale(1.3333333)" /> </g>
</svg>

