<?xml version="1.0" encoding="UTF-8" standalone="no"?> <svg version="1.1" id="I7706f56cde6c450692ec2f8ca286cf5620251106171633" width="100" height="100" viewBox="0 0 100 100" xmlns="http://www.w3.org/2000/svg" xmlns:svg="http://www.w3.org/2000/svg"> <defs id="If7299e1306b145f89cd20c57b37545a020251106171633" /> <g id="I9dd5d5cd5a1a444ea2c0737f70b6939f20251106171633"> <path id="I00cde4c151824b6a9a39054ddf68d72b20251106171633" d="m 40.18,20.09 c 0,11.094 -8.996,20.09 -20.09,20.09 -4.524,0 -8.695,-1.496 -12.055,-4.02 v 20.758 c 0,5.551 4.496,10.047 10.047,10.047 H 40.18 V 50.223 c 0,-5.547 4.496,-10.043 10.043,-10.043 H 66.965 V 18.082 C 66.965,12.531 62.469,8.035 56.918,8.035 H 36.16 c 2.524,3.36 4.02,7.531 4.02,12.055 z m 4.179,46.875 H 44.195 V 50.223 c 0,-3.328 2.7,-6.028 6.028,-6.028 h 16.742 v 0.164 z M 20.09,37.5 c 9.617,0 17.41,-7.793 17.41,-17.41 0,-9.617 -7.793,-17.41 -17.41,-17.41 -9.617,0 -17.41,7.793 -17.41,17.41 0,9.617 7.793,17.41 17.41,17.41 z m 0,-29.465 c 0.738,0 1.34,0.602 1.34,1.34 v 9.375 h 9.375 c 0.738,0 1.34,0.602 1.34,1.34 0,0.738 -0.602,1.34 -1.34,1.34 H 21.43 v 9.375 c 0,0.738 -0.602,1.34 -1.34,1.34 -0.738,0 -1.34,-0.602 -1.34,-1.34 V 21.43 H 9.375 c -0.738,0 -1.34,-0.602 -1.34,-1.34 0,-0.738 0.602,-1.34 1.34,-1.34 H 18.75 V 9.375 c 0,-0.738 0.602,-1.34 1.34,-1.34 z" style="fill:currentColor;fill-opacity:1;fill-rule:nonzero;stroke:none" transform="scale(1.3333333)" /> </g>
</svg>

