<?xml version="1.0" encoding="UTF-8" standalone="no"?> <svg version="1.1" id="I372b50f291424fd0a58abcd4918f0b3e20251110124421" width="100" height="100" viewBox="0 0 100 100" xmlns="http://www.w3.org/2000/svg" xmlns:svg="http://www.w3.org/2000/svg"> <defs id="I8a80b86c6ab04dab9d86875fa8ce33dc20251110124421" /> <g id="I667b084b30b345ab831b64ae59dd177020251110124421"> <path id="Ia2aa7088266a4469b9af2177fb2ff6af20251110124421" d="m 9.375,20.312 c 0,-6.039 4.898,-10.937 10.937,-10.937 h 7.813 c 1.727,0 3.125,1.398 3.125,3.125 0,1.727 -1.398,3.125 -3.125,3.125 h -7.813 c -2.589,0 -4.687,2.098 -4.687,4.687 v 7.813 c 0,1.727 -1.398,3.125 -3.125,3.125 -1.727,0 -3.125,-1.398 -3.125,-3.125 z m 56.25,34.376 c 0,6.039 -4.898,10.937 -10.937,10.937 h -7.813 c -1.727,0 -3.125,-1.398 -3.125,-3.125 0,-1.727 1.398,-3.125 3.125,-3.125 h 7.813 c 2.589,0 4.687,-2.098 4.687,-4.687 v -7.813 c 0,-1.727 1.398,-3.125 3.125,-3.125 1.727,0 3.125,1.398 3.125,3.125 z m 0,-34.376 c 0,-6.039 -4.898,-10.937 -10.937,-10.937 h -7.813 c -1.727,0 -3.125,1.398 -3.125,3.125 0,1.727 1.398,3.125 3.125,3.125 h 7.813 c 2.589,0 4.687,2.098 4.687,4.687 v 7.813 c 0,1.727 1.398,3.125 3.125,3.125 1.727,0 3.125,-1.398 3.125,-3.125 z M 20.312,65.625 c -6.039,0 -10.937,-4.898 -10.937,-10.937 v -7.813 c 0,-1.727 1.398,-3.125 3.125,-3.125 1.727,0 3.125,1.398 3.125,3.125 v 7.813 c 0,2.589 2.098,4.687 4.687,4.687 h 7.813 c 1.727,0 3.125,1.398 3.125,3.125 0,1.727 -1.398,3.125 -3.125,3.125 z M 37.5,46.875 c 5.18,0 9.375,-4.195 9.375,-9.375 0,-5.18 -4.195,-9.375 -9.375,-9.375 -5.18,0 -9.375,4.195 -9.375,9.375 0,5.18 4.195,9.375 9.375,9.375 z M 23.438,27.344 c 2.156,0 3.906,-1.75 3.906,-3.906 0,-2.157 -1.75,-3.907 -3.906,-3.907 -2.157,0 -3.907,1.75 -3.907,3.907 0,2.156 1.75,3.906 3.907,3.906 z" style="fill:currentColor;fill-opacity:1;fill-rule:nonzero;stroke:none" transform="scale(1.3333333)" /> </g>
</svg>

