<?xml version="1.0" encoding="UTF-8" standalone="no"?> <svg version="1.1" id="I961144ee2d4e4cf7a68ed92f60aca12820251110123031" width="100" height="100" viewBox="0 0 100 100" xmlns="http://www.w3.org/2000/svg" xmlns:svg="http://www.w3.org/2000/svg"> <defs id="Iac87c37080aa40b28c9a2ba7a7f29fb920251110123031" /> <g id="Ifa80a734171e41f8aa035dc32b8d4adc20251110123031"> <path id="I8d95c55486f644ec833f017e69d5162020251110123031" d="M 8.785,5.945 C 8.004,5.16 6.73,5.16 5.945,5.945 5.16,6.73 5.16,8.004 5.945,8.785 L 26.23,29.07 16.52,32.805 c -3.168,1.218 -4.032,5.293 -1.633,7.691 l 8.386,8.387 -15.238,15.238 v 2.844 h 2.84 l 15.242,-15.242 8.387,8.39 c 2.398,2.399 6.473,1.535 7.691,-1.633 l 3.735,-9.71 20.281,20.285 c 0.785,0.785 2.059,0.785 2.844,0 0.785,-0.785 0.785,-2.055 0,-2.84 z m 34.039,39.723 c -0.043,0.102 -0.086,0.203 -0.125,0.309 l -4.254,11.062 c -0.175,0.453 -0.757,0.574 -1.101,0.234 L 17.727,37.652 c -0.34,-0.34 -0.219,-0.922 0.234,-1.097 l 11.062,-4.254 c 0.106,-0.039 0.207,-0.082 0.309,-0.125 z m -11.219,-22.586 3.016,3.016 5.984,-12.633 c 1.387,-2.93 5.258,-3.602 7.551,-1.309 l 14.688,14.688 c 2.289,2.293 1.621,6.164 -1.309,7.551 l -12.633,5.984 3.016,3.016 11.336,-5.368 c 5.441,-2.578 6.687,-9.769 2.43,-14.023 L 50.996,9.316 C 46.738,5.059 39.551,6.305 36.973,11.746 Z" style="fill:currentColor;fill-opacity:1;fill-rule:nonzero;stroke:none" transform="scale(1.3333333)" /> </g>
</svg>

