<?xml version="1.0" encoding="UTF-8" standalone="no"?> <svg version="1.1" id="I828d11892c654b6c9909eb7157afa1c720251106170955" width="100" height="100" viewBox="0 0 100 100" xmlns="http://www.w3.org/2000/svg" xmlns:svg="http://www.w3.org/2000/svg"> <defs id="I497de246adf141b2beab02d537c1b19a20251106170955" /> <g id="I6093f224baa74280a61d016617abceb020251106170955"> <path id="Ib156d58238ec46598af8abd2befa846c20251106170955" d="m 18.262,14.277 c 10.625,-10.625 27.851,-10.625 38.476,0 10.625,10.629 10.629,27.856 0,38.481 l -3.707,3.668 c -2.734,2.683 -6.281,6.133 -10.644,10.351 -2.727,2.633 -7.051,2.633 -9.774,0 L 21.703,56.164 C 20.332,54.816 19.184,53.684 18.262,52.758 7.633,42.133 7.633,24.906 18.262,14.277 Z M 37.5,25.004 c -5.18,0 -9.375,4.195 -9.375,9.375 0,5.176 4.195,9.371 9.375,9.375 5.176,0 9.371,-4.199 9.375,-9.375 0,-5.18 -4.199,-9.375 -9.375,-9.375 z" style="fill:currentColor;fill-opacity:1;fill-rule:nonzero;stroke:none" transform="scale(1.3333333)" /> </g>
</svg>

