<?xml version="1.0" encoding="UTF-8" standalone="no"?>
<!-- Created with Inkscape (http://www.inkscape.org/) -->

<svg
   version="1.1"
   id="I6bf4a03855924063bf0011e8af7ba3ed20251031115230"
   width="100"
   height="100"
   viewBox="0 0 100 100"
   sodipodi:docname="output.ai"
   xmlns:inkscape="http://www.inkscape.org/namespaces/inkscape"
   xmlns:sodipodi="http://sodipodi.sourceforge.net/DTD/sodipodi-0.dtd"
   xmlns="http://www.w3.org/2000/svg"
   xmlns:svg="http://www.w3.org/2000/svg">
  <defs
     id="I1829f254c6c64919a77485cd5e9cc4cd20251031115230" />
  <sodipodi:namedview
     id="I9377be0353b44e7ea8a1d14f1db83d0b20251031115230"
     pagecolor="#ffffff"
     bordercolor="#000000"
     borderopacity="0.25"
     inkscape:showpageshadow="2"
     inkscape:pageopacity="0.0"
     inkscape:pagecheckerboard="0"
     inkscape:deskcolor="#d1d1d1">
    <inkscape:page
       x="0"
       y="0"
       inkscape:label="1"
       id="Ic9cc2bec3fcc479e97f02884873ceb2920251031115230"
       width="100"
       height="100"
       margin="0"
       bleed="0" />
  </sodipodi:namedview>
  <g
     id="I61bd84bba4f74e73b3eed3a6df43c9d420251031115230"
     inkscape:groupmode="layer"
     inkscape:label="1">
    <path
       id="I2e0eba085896437dac897fc5f079dc9a20251031115230"
       d="m 37.5,0 v 53.789 c 6.793,0 12.938,-4.289 15.289,-10.672 l 5.688,2.098 C 55.25,53.965 46.816,59.848 37.5,59.848 V 75 C 58.211,75 75,58.211 75,37.5 75,16.789 58.211,0 37.5,0 Z m 11.516,36.59 c -3.34,0 -6.059,-2.719 -6.059,-6.063 0,-3.339 2.719,-6.058 6.059,-6.058 3.343,0 6.062,2.719 6.062,6.058 0,3.344 -2.719,6.063 -6.062,6.063 z"
       style="fill:#ffa733;fill-opacity:1;fill-rule:nonzero;stroke:none"
       transform="scale(1.3333333)" />
    <path
       id="I0974706bb5d84c23bb3fbf74cef31cca20251031115230"
       d="m 16.523,45.215 5.688,-2.098 C 24.562,49.5 30.707,53.789 37.5,53.789 V 0 C 16.789,0 0,16.789 0,37.5 0,58.211 16.789,75 37.5,75 V 59.848 c -9.316,0 -17.75,-5.883 -20.977,-14.633 z m 9.461,-20.746 c 3.34,0 6.059,2.719 6.059,6.058 0,3.344 -2.719,6.063 -6.059,6.063 -3.343,0 -6.062,-2.719 -6.062,-6.063 0,-3.339 2.719,-6.058 6.062,-6.058 z"
       style="fill:#ffcd00;fill-opacity:1;fill-rule:nonzero;stroke:none"
       transform="scale(1.3333333)" />
    <path
       id="Ie2d3684ae4a94723a22fbe5d2eff7a6920251031115230"
       d="m 49.016,24.469 c -3.34,0 -6.059,2.719 -6.059,6.058 0,3.344 2.719,6.063 6.059,6.063 3.343,0 6.062,-2.719 6.062,-6.063 0,-3.339 -2.719,-6.058 -6.062,-6.058 z"
       style="fill:#554431;fill-opacity:1;fill-rule:nonzero;stroke:none"
       transform="scale(1.3333333)" />
    <path
       id="I74185732aaf7431780d4c22a92ddf10020251031115230"
       d="m 25.984,36.59 c 3.34,0 6.059,-2.719 6.059,-6.063 0,-3.339 -2.719,-6.058 -6.059,-6.058 -3.343,0 -6.062,2.719 -6.062,6.058 0,3.344 2.719,6.063 6.062,6.063 z"
       style="fill:#6a563d;fill-opacity:1;fill-rule:nonzero;stroke:none"
       transform="scale(1.3333333)" />
    <path
       id="I4d788704428c4045811288e641584c9020251031115230"
       d="M 58.477,45.215 52.789,43.117 C 50.438,49.5 44.293,53.789 37.5,53.789 v 6.059 c 9.316,0 17.75,-5.883 20.977,-14.633 z"
       style="fill:#ff5023;fill-opacity:1;fill-rule:nonzero;stroke:none"
       transform="scale(1.3333333)" />
    <path
       id="I61e644955c904c65a8dc1a9373866b9d20251031115230"
       d="m 22.211,43.117 -5.688,2.098 c 3.227,8.75 11.661,14.633 20.977,14.633 v -6.059 c -6.793,0 -12.938,-4.289 -15.289,-10.672 z"
       style="fill:#ff7956;fill-opacity:1;fill-rule:nonzero;stroke:none"
       transform="scale(1.3333333)" />
  </g>
</svg>


