<?xml version="1.0" encoding="UTF-8" standalone="no"?> <svg version="1.1" id="I99eb9f7ac3f048549c55c47bb0a3f3bb20251106112235" width="100" height="100" viewBox="0 0 100 100" xmlns="http://www.w3.org/2000/svg" xmlns:svg="http://www.w3.org/2000/svg"> <defs id="I9209968774154e759d535b0321ff052f20251106112235" /> <g id="I5d093825fda84673b7700c82ca9f7fad20251106112235"> <path id="I353f333a00834b978af0a13b9f03662420251106112235" d="m 18.75,29.883 c 0,5.355 8.035,5.355 8.035,0 0,-5.356 -8.035,-5.356 -8.035,0 z m 29.465,0 c 0,5.355 8.035,5.355 8.035,0 0,-5.356 -8.035,-5.356 -8.035,0 z M 37.5,0 C 16.793,0 0,16.793 0,37.5 0,58.207 16.793,75 37.5,75 58.207,75 75,58.207 75,37.5 75,16.793 58.207,0 37.5,0 Z m 22.016,59.516 c -2.864,2.863 -6.196,5.105 -9.903,6.679 -3.828,1.621 -7.902,2.442 -12.113,2.442 -4.211,0 -8.285,-0.821 -12.121,-2.442 C 21.676,64.629 18.312,62.363 15.477,59.516 12.613,56.652 10.371,53.32 8.797,49.613 7.184,45.785 6.363,41.711 6.363,37.5 c 0,-4.211 0.821,-8.285 2.442,-12.121 1.566,-3.703 3.832,-7.067 6.679,-9.902 2.864,-2.864 6.196,-5.106 9.903,-6.68 3.828,-1.613 7.902,-2.434 12.113,-2.434 4.211,0 8.285,0.821 12.121,2.442 3.703,1.566 7.067,3.832 9.902,6.679 2.864,2.864 5.106,6.196 6.68,9.903 1.613,3.828 2.434,7.902 2.434,12.113 0,4.211 -0.821,8.285 -2.442,12.121 -1.562,3.699 -3.832,7.063 -6.679,9.895 z M 50.223,39.258 h -4.028 c -0.351,0 -0.652,0.269 -0.675,0.621 -0.321,4.141 -3.793,7.414 -8.02,7.414 -4.227,0 -7.711,-3.273 -8.02,-7.414 -0.023,-0.352 -0.324,-0.621 -0.675,-0.621 h -4.028 c -0.382,0 -0.687,0.32 -0.672,0.703 0.372,7.055 6.239,12.691 13.395,12.691 7.156,0 13.023,-5.636 13.395,-12.691 0.015,-0.383 -0.29,-0.703 -0.672,-0.703 z" style="fill:currentColor;fill-opacity:1;fill-rule:nonzero;stroke:none" transform="scale(1.3333333)" /> </g>
</svg>

