<?xml version="1.0" encoding="UTF-8" standalone="no"?> <svg version="1.1" id="I8e749bedc7d34b4aba39321a148dab7320251106170411" width="100" height="100" viewBox="0 0 100 100" xmlns="http://www.w3.org/2000/svg" xmlns:svg="http://www.w3.org/2000/svg"> <defs id="I466e197b4b784d6f8ce35244d8f026b820251106170411" /> <g id="Ia9271439fe554f7cb943cce73c00133d20251106170411"> <path id="I2aea76edb57e441fbc1a4bd38028551020251106170411" d="m 9.375,19.531 c 0,-5.609 4.547,-10.156 10.156,-10.156 h 35.938 c 5.609,0 10.156,4.547 10.156,10.156 v 35.938 c 0,5.609 -4.547,10.156 -10.156,10.156 H 19.531 c -5.609,0 -10.156,-4.547 -10.156,-10.156 z m 10.156,-5.469 c -3.019,0 -5.469,2.45 -5.469,5.469 v 35.938 c 0,3.019 2.45,5.469 5.469,5.469 h 7.031 V 14.062 Z m 11.719,0 v 46.876 h 12.5 V 14.062 Z m 24.219,46.876 c 3.019,0 5.469,-2.45 5.469,-5.469 V 19.531 c 0,-3.019 -2.45,-5.469 -5.469,-5.469 h -7.031 v 46.876 z" style="fill:currentColor;fill-opacity:1;fill-rule:nonzero;stroke:none" transform="scale(1.3333333)" /> </g>
</svg>

