<?xml version="1.0" encoding="UTF-8" standalone="no"?> <svg version="1.1" id="I0b8dd23069f24f839f042f502eaebb9e20251106161453" width="100" height="100" viewBox="0 0 100 100" xmlns="http://www.w3.org/2000/svg" xmlns:svg="http://www.w3.org/2000/svg"> <defs id="Ic849d8f9148c41bb80560d2e49ba524820251106161453" /> <g id="I08457514b0be431eaf7166d0f56186c520251106161453"> <path id="I191724aa8d20490d886dcc4555326ba920251106161453" d="m 49.125,6.938 c 0.918,-0.918 2.398,-0.918 3.316,0 0.914,0.914 0.914,2.398 0,3.312 l -3.816,3.812 h 6.844 c 0.992,0 1.875,0.622 2.211,1.555 l 3.906,10.938 c 0.543,1.527 -0.59,3.133 -2.211,3.133 H 56.113 L 51.152,61.09 c -0.656,4.582 -4.558,7.66 -9.281,7.66 h -8.738 c -4.723,0 -8.625,-3.078 -9.278,-7.625 L 18.891,29.688 h -3.262 c -1.621,0 -2.754,-1.606 -2.211,-3.133 l 3.906,-10.938 c 0.336,-0.933 1.219,-1.555 2.211,-1.555 H 41.996 Z M 53.82,18.75 H 21.184 L 18.953,25 h 37.098 z" style="fill:currentColor;fill-opacity:1;fill-rule:nonzero;stroke:none" transform="scale(1.3333333)" /> </g>
</svg>

