<?xml version="1.0" encoding="UTF-8" standalone="no"?> <svg version="1.1" id="I430a549281ee4ae39407a0a66eb55e0220251105180650" width="100" height="100" viewBox="0 0 100 100" xmlns="http://www.w3.org/2000/svg" xmlns:svg="http://www.w3.org/2000/svg"> <defs id="I2944090c08b646c8b60998961ca055fa20251105180650" /> <g id="Ie8b7cbe1c5b044eebca5877efa205dd920251105180650"> <path id="I4a7d8d5491914e9cbed5cf9a73ac221020251105180650" d="M 57.773,5.039 C 57.375,4.641 56.789,4.477 56.227,4.57 56.016,4.617 53.062,5.156 48.961,6.492 36.211,-0.352 28.289,4.383 25.758,6.398 21.797,5.133 18.961,4.594 18.75,4.57 18.188,4.477 17.602,4.641 17.203,5.039 16.805,5.438 16.617,6.023 16.711,6.586 l 4.383,26.039 0.633,4.172 -0.118,33.515 c 0,0.469 0.188,0.915 0.516,1.243 0.328,0.328 0.773,0.515 1.242,0.515 h 29.672 c 0.961,0 1.758,-0.797 1.758,-1.758 V 36.703 c 0,-1.5 -0.141,-2.906 -0.399,-4.312 L 58.242,6.586 C 58.336,6.023 58.125,5.461 57.727,5.062 Z M 40.992,13.57 c 5.297,-2.695 10.5,-4.242 13.453,-4.992 L 51.984,25.125 C 49.688,20.766 46.031,16.898 40.992,13.547 Z m 3.352,-5.39 c -2.18,0.89 -4.524,1.968 -6.821,3.258 -2.578,-1.43 -5.156,-2.602 -7.546,-3.54 2.671,-1.359 7.476,-2.531 14.39,0.282 z M 20.648,8.602 c 3.422,0.867 9.891,2.812 16.008,6.375 8.227,4.757 13.032,10.711 14.321,17.718 0.14,0.727 0.234,1.477 0.304,2.227 H 25.008 L 20.625,8.602 Z m 4.524,59.953 0.07,-20.438 h 13.992 c 0.961,0 1.758,-0.797 1.758,-1.758 0,-0.961 -0.797,-1.757 -1.758,-1.757 H 25.242 v -6.188 h 26.086 v 6.188 H 46.57 c -0.961,0 -1.758,0.796 -1.758,1.757 0,0.961 0.797,1.758 1.758,1.758 h 4.758 v 20.438 h -26.18 z" style="fill:currentColor;fill-opacity:1;fill-rule:nonzero;stroke:none" transform="scale(1.3333333)" /> </g>
</svg>

