<?xml version="1.0" encoding="UTF-8" standalone="no"?> <svg version="1.1" id="I40a6b6f208d148efbf92939c5592b63720251110130510" width="100" height="100" viewBox="0 0 100 100" xmlns="http://www.w3.org/2000/svg" xmlns:svg="http://www.w3.org/2000/svg"> <defs id="I949b3833956140b1b24f70ab5d91c19d20251110130510" /> <g id="Ia33829b6eeb34c9c8a3590b6cd54bb9520251110130510"> <path id="I0c19ac9fb2a34bb193ad6765dcc2291420251110130510" d="m 10.938,51.562 c 2.585,0 4.683,2.102 4.683,4.688 0,2.586 -2.098,4.688 -4.683,4.688 -2.59,0 -4.688,-2.102 -4.688,-4.688 0,-2.586 2.098,-4.688 4.688,-4.688 z m 12.5,1.563 h 42.199 c 1.726,0 3.125,1.398 3.125,3.125 0,1.602 -1.207,2.922 -2.762,3.105 l -0.363,0.02 H 23.438 c -1.727,0 -3.126,-1.398 -3.126,-3.125 0,-1.602 1.208,-2.922 2.762,-3.105 l 0.364,-0.02 h 42.199 z m -12.5,-20.313 c 2.585,0 4.683,2.102 4.683,4.688 0,2.586 -2.098,4.688 -4.683,4.688 -2.59,0 -4.688,-2.102 -4.688,-4.688 0,-2.586 2.098,-4.688 4.688,-4.688 z m 12.5,1.563 h 42.199 c 1.726,0 3.125,1.398 3.125,3.125 0,1.602 -1.207,2.922 -2.762,3.105 l -0.363,0.02 H 23.438 c -1.727,0 -3.126,-1.398 -3.126,-3.125 0,-1.602 1.208,-2.922 2.762,-3.105 l 0.364,-0.02 h 42.199 z m -12.5,-20.289 c 2.585,0 4.683,2.098 4.683,4.687 0,2.586 -2.098,4.684 -4.683,4.684 -2.59,0 -4.688,-2.098 -4.688,-4.684 0,-2.589 2.098,-4.687 4.688,-4.687 z m 12.5,1.543 h 42.199 c 1.726,0 3.125,1.398 3.125,3.125 0,1.601 -1.207,2.922 -2.762,3.101 l -0.363,0.024 H 23.438 c -1.727,0 -3.126,-1.402 -3.126,-3.125 0,-1.606 1.208,-2.926 2.762,-3.106 l 0.364,-0.019 h 42.199 z" style="fill:currentColor;fill-opacity:1;fill-rule:nonzero;stroke:none" transform="scale(1.3333333)" /> </g>
</svg>

