<?xml version="1.0" encoding="UTF-8" standalone="no"?> <svg version="1.1" id="Id71387420d5c45f9afed162c737925c320251106171633" width="100" height="100" viewBox="0 0 100 100" xmlns="http://www.w3.org/2000/svg" xmlns:svg="http://www.w3.org/2000/svg"> <defs id="I6ffd7c6785174060919563b8104801aa20251106171633" /> <g id="Ifec2d2947a7e46309e32eb9b853a6c0c20251106171633"> <path id="I39e28708a59b414db9d6e2c95f3daa6620251106171633" d="m 52.34,6.25 c 3.883,0 7.031,3.148 7.031,7.031 v 48.438 c 0,3.883 -3.148,7.031 -7.031,7.031 H 34.969 c 3.504,-3.648 5.656,-8.605 5.656,-14.062 0,-11.219 -9.094,-20.313 -20.313,-20.313 -2.769,0 -5.406,0.555 -7.812,1.559 V 13.281 c 0,-3.883 3.148,-7.031 7.031,-7.031 z m -6.235,10.93 h -20.32 c -1.187,0 -2.168,0.882 -2.32,2.023 l -0.024,0.32 v 4.7 c 0,1.187 0.883,2.168 2.028,2.32 l 0.316,0.023 h 20.32 c 1.188,0 2.168,-0.882 2.321,-2.027 l 0.023,-0.316 v -4.7 c 0,-1.293 -1.051,-2.343 -2.344,-2.343 z M 62.5,46.883 h 2.344 c 1.187,0 2.168,0.879 2.324,2.023 l 0.02,0.321 v 4.679 c 0,1.188 -0.883,2.168 -2.028,2.324 l -0.316,0.02 H 62.5 Z m 0,-12.5 h 2.344 c 1.187,0 2.168,0.879 2.324,2.023 l 0.02,0.321 v 4.679 c 0,1.188 -0.883,2.168 -2.028,2.324 l -0.316,0.02 H 62.5 Z m 0,-12.5 h 2.344 c 1.187,0 2.168,0.879 2.324,2.023 l 0.02,0.321 v 4.679 c 0,1.188 -0.883,2.168 -2.028,2.324 l -0.316,0.02 H 62.5 Z M 3.125,54.688 c 0,9.492 7.695,17.187 17.187,17.187 C 29.805,71.875 37.5,64.18 37.5,54.688 37.5,45.195 29.805,37.5 20.312,37.5 10.82,37.5 3.125,45.195 3.125,54.688 Z M 29.688,43.75 c 0.863,0 1.562,0.699 1.562,1.562 v 6.25 c 0,0.864 -0.699,1.563 -1.562,1.563 h -6.25 c -0.864,0 -1.563,-0.699 -1.563,-1.563 0,-0.863 0.699,-1.562 1.563,-1.562 h 3.124 c -1.425,-1.898 -3.695,-3.125 -6.25,-3.125 -2.605,0 -4.91,1.273 -6.332,3.238 -0.507,0.699 -1.484,0.856 -2.183,0.348 -0.699,-0.504 -0.856,-1.481 -0.348,-2.18 1.985,-2.742 5.215,-4.531 8.863,-4.531 3.063,0 5.829,1.258 7.813,3.281 v -1.719 c 0,-0.863 0.699,-1.562 1.563,-1.562 z M 12.5,62.344 v 1.718 c 0,0.864 -0.699,1.563 -1.562,1.563 -0.864,0 -1.563,-0.699 -1.563,-1.563 v -6.25 c 0,-0.863 0.699,-1.562 1.563,-1.562 h 6.25 c 0.863,0 1.562,0.699 1.562,1.562 0,0.864 -0.699,1.563 -1.562,1.563 h -3.126 c 1.426,1.898 3.696,3.125 6.25,3.125 2.395,0 4.536,-1.074 5.973,-2.777 0.555,-0.657 1.543,-0.743 2.203,-0.184 0.657,0.555 0.742,1.543 0.184,2.203 -2.004,2.371 -5.004,3.883 -8.36,3.883 -3.062,0 -5.828,-1.258 -7.812,-3.281 z" style="fill:currentColor;fill-opacity:1;fill-rule:nonzero;stroke:none" transform="scale(1.3333333)" /> </g>
</svg>

