<?xml version="1.0" encoding="UTF-8" standalone="no"?> <svg version="1.1" id="Ida5e413e26094f6b9e563aec754d4aab20251106102216" width="100" height="100" viewBox="0 0 100 100" xmlns="http://www.w3.org/2000/svg" xmlns:svg="http://www.w3.org/2000/svg"> <defs id="Ib436317e47fc4e3d992fb60b383a1cb720251106102216" /> <g id="Ia231f3440d584da89dc453686b2b68d820251106102216"> <path id="I576587005d7e4629a718472102743b3120251106102216" d="m 23.27,34.152 h 28.628 c 0.032,0 0.075,0 0.11,-0.007 0.367,-0.059 0.609,-0.403 0.551,-0.77 L 49.195,12.613 c -0.05,-0.324 -0.336,-0.558 -0.664,-0.558 H 26.637 c -0.328,0 -0.614,0.234 -0.664,0.558 l -3.364,20.762 c -0.007,0.031 -0.007,0.074 -0.007,0.105 0,0.372 0.3,0.672 0.668,0.672 z m 7.632,-16.406 h 13.352 l 1.734,10.715 H 29.164 Z m 0.211,23.664 c -0.051,-0.328 -0.336,-0.562 -0.66,-0.562 H 8.555 c -0.328,0 -0.61,0.234 -0.66,0.562 L 4.527,62.168 C 4.52,62.203 4.52,62.242 4.52,62.277 c 0,0.368 0.3,0.668 0.671,0.668 h 28.625 c 0.036,0 0.075,0 0.11,-0.007 0.367,-0.059 0.609,-0.403 0.551,-0.77 z M 11.09,57.254 12.824,46.539 h 13.352 l 1.73,10.715 z M 70.473,62.168 67.105,41.41 c -0.05,-0.328 -0.332,-0.562 -0.66,-0.562 H 44.547 c -0.324,0 -0.609,0.234 -0.66,0.562 l -3.364,20.758 c -0.011,0.035 -0.011,0.074 -0.011,0.109 0,0.368 0.304,0.668 0.672,0.668 h 28.625 c 0.035,0 0.078,0 0.109,-0.007 0.359,-0.059 0.613,-0.403 0.555,-0.77 z m -23.387,-4.914 1.73,-10.715 h 13.352 l 1.734,10.715 z" style="fill:currentColor;fill-opacity:1;fill-rule:nonzero;stroke:none" transform="scale(1.3333333)" /> </g>
</svg>

