<?xml version="1.0" encoding="UTF-8" standalone="no"?> <svg version="1.1" id="I3a0c48ffe1ff40c299fa20a0602cf96620251106164750" width="100" height="100" viewBox="0 0 100 100" xmlns="http://www.w3.org/2000/svg" xmlns:svg="http://www.w3.org/2000/svg"> <defs id="I84adea8420eb4c7ebfb4b6feb4c541fa20251106164750" /> <g id="I22b68d460ab24f3e8bf339958474e83720251106164750"> <path id="Id92bfeadf6b2433e8ab54e1c9f21851720251106164750" d="m 34.82,21.43 c 0,-7.399 -5.996,-13.395 -13.39,-13.395 -7.399,0 -13.395,5.996 -13.395,13.395 0,7.394 5.996,13.39 13.395,13.39 7.394,0 13.39,-5.996 13.39,-13.39 z m -5.019,0 c 0,4.621 -3.75,8.371 -8.371,8.371 -4.625,0 -8.371,-3.75 -8.371,-8.371 0,-4.625 3.746,-8.371 8.371,-8.371 4.621,0 8.371,3.746 8.371,8.371 z m 37.164,0 c 0,-7.399 -5.996,-13.395 -13.395,-13.395 -7.394,0 -13.39,5.996 -13.39,13.395 0,7.394 5.996,13.39 13.39,13.39 7.399,0 13.395,-5.996 13.395,-13.39 z m -5.024,0 c 0,4.621 -3.746,8.371 -8.371,8.371 -4.621,0 -8.371,-3.75 -8.371,-8.371 0,-4.625 3.75,-8.371 8.371,-8.371 4.625,0 8.371,3.746 8.371,8.371 z M 21.43,66.965 c -7.399,0 -13.395,-5.996 -13.395,-13.395 0,-7.394 5.996,-13.39 13.395,-13.39 7.394,0 13.39,5.996 13.39,13.39 0,7.399 -5.996,13.395 -13.39,13.395 z m 0,-5.024 c 4.621,0 8.371,-3.746 8.371,-8.371 0,-4.621 -3.75,-8.371 -8.371,-8.371 -4.625,0 -8.371,3.75 -8.371,8.371 0,4.625 3.746,8.371 8.371,8.371 z M 66.965,53.57 c 0,-7.394 -5.996,-13.39 -13.395,-13.39 -7.394,0 -13.39,5.996 -13.39,13.39 0,7.399 5.996,13.395 13.39,13.395 7.399,0 13.395,-5.996 13.395,-13.395 z m -5.024,0 c 0,4.625 -3.746,8.371 -8.371,8.371 -4.621,0 -8.371,-3.746 -8.371,-8.371 0,-4.621 3.75,-8.371 8.371,-8.371 4.625,0 8.371,3.75 8.371,8.371 z" style="fill:currentColor;fill-opacity:1;fill-rule:nonzero;stroke:none" transform="scale(1.3333333)" /> </g>
</svg>

