<?xml version="1.0" encoding="UTF-8" standalone="no"?> <svg version="1.1" id="Ie5284fc2e7624d1c95c23a8c1c62696420251106155156" width="100" height="100" viewBox="0 0 100 100" xmlns="http://www.w3.org/2000/svg" xmlns:svg="http://www.w3.org/2000/svg"> <defs id="I68c1206d79294b218d1b5f9cc2ffbc0320251106155156" /> <g id="Ia9335ca99afe4e7fa020168543b59ec120251106155156"> <path id="I6ab1ba0c5e944208841f76b0afb8d13d20251106155156" d="M 37.5,6.25 V 25 c 0,3.453 2.797,6.25 6.25,6.25 H 62.5 V 62.5 c 0,3.453 -2.797,6.25 -6.25,6.25 H 34.969 c 3.504,-3.648 5.656,-8.605 5.656,-14.062 0,-11.219 -9.094,-20.313 -20.313,-20.313 -2.769,0 -5.406,0.555 -7.812,1.559 V 12.5 c 0,-3.453 2.797,-6.25 6.25,-6.25 z m 4.688,1.562 V 25 c 0,0.863 0.699,1.562 1.562,1.562 H 60.938 Z M 37.5,54.688 C 37.5,64.18 29.805,71.875 20.312,71.875 10.82,71.875 3.125,64.18 3.125,54.688 3.125,45.195 10.82,37.5 20.312,37.5 29.805,37.5 37.5,45.195 37.5,54.688 Z M 21.875,45.312 c 0,-0.863 -0.699,-1.562 -1.563,-1.562 -0.863,0 -1.562,0.699 -1.562,1.562 v 14.977 l -5.145,-5.144 c -0.609,-0.61 -1.601,-0.61 -2.21,0 -0.61,0.609 -0.61,1.601 0,2.21 l 7.812,7.813 c 0.609,0.609 1.602,0.609 2.211,0 l 7.812,-7.813 c 0.61,-0.609 0.61,-1.601 0,-2.21 -0.609,-0.61 -1.601,-0.61 -2.21,0 l -5.145,5.144 z" style="fill:currentColor;fill-opacity:1;fill-rule:nonzero;stroke:none" transform="scale(1.3333333)" /> </g>
</svg>

