<?xml version="1.0" encoding="UTF-8" standalone="no"?> <svg version="1.1" id="Iefa321c2dcf64afaa1c353a3d1e726e220251110124419" width="100" height="100" viewBox="0 0 100 100" xmlns="http://www.w3.org/2000/svg" xmlns:svg="http://www.w3.org/2000/svg"> <defs id="I0523cf66a4934d1c90a978ada1e7f61720251110124419" /> <g id="I189505e0946049d98302c9cb5b7542ab20251110124419"> <path id="I6f3230782abb4481a0a97a4f6163ecb720251110124419" d="m 56.25,25 h -37.5 c -1.656,0.004 -3.242,0.664 -4.414,1.836 -1.172,1.172 -1.832,2.758 -1.836,4.414 v 12.5 c 0.004,1.656 0.664,3.242 1.836,4.414 1.172,1.172 2.758,1.832 4.414,1.836 h 37.5 c 1.656,-0.004 3.242,-0.664 4.414,-1.836 1.172,-1.172 1.832,-2.758 1.836,-4.414 V 31.25 C 62.496,29.594 61.836,28.008 60.664,26.836 59.492,25.664 57.906,25.004 56.25,25 Z m -37.5,6.25 h 37.5 v 6.25 h -37.5 z" style="fill:currentColor;fill-opacity:1;fill-rule:nonzero;stroke:none" transform="scale(1.3333333)" /> </g>
</svg>

