<?xml version="1.0" encoding="UTF-8" standalone="no"?> <svg version="1.1" id="I1a2434f6b26b41709d8e3b00431adf1520251106171634" width="100" height="100" viewBox="0 0 100 100" xmlns="http://www.w3.org/2000/svg" xmlns:svg="http://www.w3.org/2000/svg"> <defs id="If20329592c4e42c1b67579dc02998e1c20251106171634" /> <g id="I68acfa20148143cab9d7d642864d428b20251106171634"> <path id="I623c5da7379446d9ab08ee92b9910b9120251106171634" d="m 43.293,47.332 c 0.262,0.262 0.508,0.539 0.734,0.832 0.614,0.793 1.09,1.691 1.407,2.648 l 1.398,4.305 c 0.117,0.332 0.336,0.617 0.621,0.821 0.289,0.203 0.633,0.312 0.985,0.312 0.351,0 0.695,-0.109 0.984,-0.312 0.254,-0.18 0.453,-0.43 0.578,-0.715 0.016,-0.035 0.027,-0.071 0.043,-0.106 l 1.398,-4.305 c 0.434,-1.308 1.168,-2.496 2.145,-3.468 0.976,-0.977 2.164,-1.711 3.473,-2.145 l 4.304,-1.398 c 0.332,-0.117 0.621,-0.332 0.825,-0.621 0.203,-0.285 0.312,-0.629 0.312,-0.981 0,-0.351 -0.109,-0.695 -0.312,-0.984 -0.204,-0.285 -0.493,-0.504 -0.825,-0.621 l -0.086,-0.02 -4.304,-1.398 C 55.664,38.742 54.477,38.008 53.5,37.031 52.523,36.059 51.789,34.871 51.355,33.562 l -1.398,-4.304 c -0.117,-0.332 -0.336,-0.617 -0.625,-0.82 -0.285,-0.204 -0.629,-0.313 -0.98,-0.313 -0.352,0 -0.696,0.109 -0.985,0.313 -0.285,0.203 -0.504,0.488 -0.621,0.82 l -1.398,4.304 -0.036,0.106 c -0.429,1.258 -1.136,2.402 -2.07,3.348 -0.961,0.976 -2.133,1.714 -3.426,2.16 l -4.304,1.398 c -0.332,0.117 -0.621,0.332 -0.824,0.621 -0.204,0.285 -0.313,0.629 -0.313,0.981 0,0.351 0.109,0.695 0.313,0.984 0.203,0.285 0.492,0.504 0.824,0.621 l 4.304,1.395 c 1.309,0.437 2.5,1.176 3.477,2.156 z m 25.512,11.934 2.39,0.777 0.051,0.012 c 0.184,0.062 0.344,0.183 0.457,0.343 0.109,0.161 0.172,0.352 0.172,0.547 0,0.196 -0.063,0.383 -0.172,0.543 -0.113,0.16 -0.273,0.282 -0.457,0.344 l -2.394,0.777 c -0.727,0.243 -1.387,0.653 -1.93,1.192 -0.543,0.543 -0.949,1.203 -1.192,1.929 l -0.777,2.391 c -0.066,0.184 -0.183,0.344 -0.344,0.457 -0.16,0.11 -0.351,0.172 -0.547,0.172 -0.195,0 -0.386,-0.062 -0.546,-0.172 -0.161,-0.113 -0.278,-0.273 -0.344,-0.457 L 62.395,65.73 C 62.152,65 61.746,64.34 61.203,63.793 60.664,63.25 60,62.84 59.273,62.598 L 56.879,61.82 c -0.184,-0.062 -0.344,-0.183 -0.457,-0.343 -0.11,-0.161 -0.172,-0.352 -0.172,-0.547 0,-0.196 0.062,-0.383 0.172,-0.543 0.113,-0.16 0.273,-0.282 0.457,-0.344 l 2.394,-0.777 c 0.719,-0.25 1.368,-0.661 1.903,-1.2 0.531,-0.543 0.933,-1.199 1.172,-1.921 l 0.777,-2.391 c 0.063,-0.184 0.184,-0.344 0.344,-0.457 0.16,-0.109 0.351,-0.172 0.547,-0.172 0.195,0 0.386,0.063 0.543,0.172 0.16,0.113 0.281,0.273 0.347,0.457 l 0.778,2.391 c 0.242,0.726 0.648,1.386 1.191,1.929 0.543,0.539 1.203,0.949 1.93,1.192 z M 15.625,8.594 c 0,-1.293 1.051,-2.344 2.344,-2.344 h 39.062 c 1.293,0 2.344,1.051 2.344,2.344 v 28.078 l -1.426,-0.465 c -0.844,-0.281 -1.613,-0.758 -2.242,-1.387 -0.406,-0.406 -0.75,-0.875 -1.019,-1.382 v -22.5 h -3.126 v 8.597 c 0,1.293 -1.05,2.344 -2.343,2.344 -1.297,0 -2.344,-1.051 -2.344,-2.344 V 10.938 H 43.75 v 5.472 c 0,1.297 -1.051,2.344 -2.344,2.344 -1.297,0 -2.344,-1.047 -2.344,-2.344 V 10.938 H 20.312 V 34.375 H 41.41 c -0.121,0.156 -0.254,0.305 -0.394,0.449 -0.618,0.625 -1.368,1.098 -2.196,1.391 l -4.312,1.398 -0.035,0.012 c -0.813,0.289 -1.532,0.785 -2.082,1.437 H 20.312 v 5.469 c 0,1.297 1.051,2.344 2.344,2.344 h 9.375 c 1.293,0 2.344,1.051 2.344,2.344 v 11.719 c 0,1.726 1.398,3.124 3.125,3.124 1.727,0 3.125,-1.398 3.125,-3.124 V 49.219 c 0,-0.031 0,-0.063 0,-0.09 0.16,0.125 0.313,0.262 0.457,0.406 0.168,0.172 0.324,0.352 0.473,0.539 0.398,0.516 0.707,1.094 0.91,1.711 v 0.008 l 1.41,4.328 0.012,0.035 c 0.285,0.805 0.777,1.52 1.425,2.071 v 2.711 c 0,4.316 -3.5,7.812 -7.812,7.812 -4.316,0 -7.812,-3.496 -7.812,-7.812 v -9.376 h -7.032 c -3.883,0 -7.031,-3.144 -7.031,-7.031 z" style="fill:currentColor;fill-opacity:1;fill-rule:nonzero;stroke:none" transform="scale(1.3333333)" /> </g>
</svg>

