<?xml version="1.0" encoding="UTF-8" standalone="no"?> <svg version="1.1" id="Ic243732ada394186a0387b7eca437f4020251106164749" width="100" height="100" viewBox="0 0 100 100" xmlns="http://www.w3.org/2000/svg" xmlns:svg="http://www.w3.org/2000/svg"> <defs id="I6fc8c17795c8479c9b64661e0259bbff20251106164749" /> <g id="I261b21c4fdb64be8a843e1044154a70c20251106164749"> <path id="Id20ee64f86884246a741894c87046b1320251106164749" d="m 48.215,44.195 c 0,2.219 -1.801,4.02 -4.02,4.02 -2.218,0 -4.015,-1.801 -4.015,-4.02 0,-2.218 1.797,-4.015 4.015,-4.015 2.219,0 4.02,1.797 4.02,4.015 z M 52.23,37.5 c 2.219,0 4.02,-1.801 4.02,-4.02 0,-2.218 -1.801,-4.015 -4.02,-4.015 -2.218,0 -4.015,1.797 -4.015,4.015 0,2.219 1.797,4.02 4.015,4.02 z m -37.5,-0.672 c 0,-1.109 0.903,-2.008 2.012,-2.008 h 4.688 v -4.683 c 0,-1.11 0.898,-2.012 2.008,-2.012 1.109,0 2.007,0.902 2.007,2.012 v 4.683 h 4.688 c 1.109,0 2.012,0.899 2.012,2.008 0,1.11 -0.903,2.008 -2.012,2.008 h -4.688 v 4.695 c 0,1.11 -0.898,2.008 -2.007,2.008 -1.11,0 -2.008,-0.898 -2.008,-2.008 v -4.695 h -4.688 c -1.109,0 -2.012,-0.898 -2.012,-2.008 z M 5.355,37.5 c 0,-12.574 10.196,-22.77 22.77,-22.77 h 18.75 c 12.574,0 22.77,10.196 22.77,22.77 0,12.574 -10.196,22.77 -22.77,22.77 H 28.125 C 15.551,60.27 5.355,50.074 5.355,37.5 Z m 22.77,-18.75 c -10.355,0 -18.75,8.395 -18.75,18.75 0,10.355 8.395,18.75 18.75,18.75 h 18.75 c 10.355,0 18.75,-8.395 18.75,-18.75 0,-10.355 -8.395,-18.75 -18.75,-18.75 z" style="fill:currentColor;fill-opacity:1;fill-rule:nonzero;stroke:none" transform="scale(1.3333333)" /> </g>
</svg>

