<?xml version="1.0" encoding="UTF-8" standalone="no"?> <svg version="1.1" id="I859b235e77534335a0a8719132d1771420251110123031" width="100" height="100" viewBox="0 0 100 100" xmlns="http://www.w3.org/2000/svg" xmlns:svg="http://www.w3.org/2000/svg"> <defs id="Ic2016b6dc84c46beb49bd9d8c20418de20251110123031" /> <g id="I7b3c39325b3e4c889769d832aa59b35720251110123031"> <path id="Ic8d0bcc25b354eedbd87cd7b1ea719e320251110123031" d="m 53.57,42.855 c 3.985,0 7.289,2.899 7.926,6.7 h -4.137 c -0.507,-1.446 -1.82,-2.512 -3.402,-2.66 l -0.387,-0.02 h -37.5 c -2.086,0 -3.804,1.594 -4,3.629 l -0.015,0.391 v 1.914 c 0,7.16 9.074,12.816 22.765,12.816 0.149,0 0.297,0 0.446,-0.004 0.39,1.441 1.027,2.777 1.867,3.969 -0.762,0.035 -1.531,0.055 -2.313,0.055 -15.508,0 -26.785,-6.875 -26.785,-16.836 v -1.914 c 0,-4.442 3.598,-8.04 8.035,-8.04 z M 34.82,5.355 c 8.879,0 16.075,7.196 16.075,16.075 0,8.875 -7.196,16.07 -16.075,16.07 -8.875,0 -16.07,-7.195 -16.07,-16.07 0,-8.879 7.195,-16.075 16.07,-16.075 z m 0,4.02 c -6.656,0 -12.05,5.398 -12.05,12.055 0,6.656 5.394,12.05 12.05,12.05 6.657,0 12.055,-5.394 12.055,-12.05 0,-6.657 -5.398,-12.055 -12.055,-12.055 z M 47.543,56.25 c -3.328,0 -6.023,2.699 -6.023,6.027 0,3.328 2.695,6.028 6.023,6.028 h 1.34 c 1.109,0 2.012,0.898 2.012,2.007 0,1.11 -0.903,2.008 -2.012,2.008 h -1.34 C 41.996,72.32 37.5,67.824 37.5,62.277 37.5,56.73 41.996,52.23 47.543,52.23 h 1.34 c 1.109,0 2.012,0.903 2.012,2.012 0,1.11 -0.903,2.008 -2.012,2.008 z m -2.008,6.027 c 0,-1.109 0.899,-2.007 2.008,-2.007 h 14.734 c 1.11,0 2.008,0.898 2.008,2.007 0,1.11 -0.898,2.008 -2.008,2.008 H 47.543 c -1.109,0 -2.008,-0.898 -2.008,-2.008 z m 16.742,6.028 c 3.328,0 6.028,-2.7 6.028,-6.028 0,-3.328 -2.7,-6.027 -6.028,-6.027 h -1.339 c -1.11,0 -2.008,-0.898 -2.008,-2.008 0,-1.109 0.898,-2.012 2.008,-2.012 h 1.339 c 5.547,0 10.043,4.5 10.043,10.047 0,5.547 -4.496,10.043 -10.043,10.043 h -1.339 c -1.11,0 -2.008,-0.898 -2.008,-2.008 0,-1.109 0.898,-2.007 2.008,-2.007 z" style="fill:currentColor;fill-opacity:1;fill-rule:nonzero;stroke:none" transform="scale(1.3333333)" /> </g>
</svg>

