<?xml version="1.0" encoding="UTF-8" standalone="no"?> <svg version="1.1" id="I05de305f545149a3a68ae6a72b9534c520251106163937" width="100" height="100" viewBox="0 0 100 100" xmlns="http://www.w3.org/2000/svg" xmlns:svg="http://www.w3.org/2000/svg"> <defs id="I32980eb9d002497a9f811bd33e0e0f0820251106163937" /> <g id="I17e966a4931d4f4bbb9dade5b467b9aa20251106163937"> <path id="I0dd816128f5f4a7f9b9dc4e2222d9bf320251106163937" d="M 49.504,8.316 C 46.773,5.531 42.301,5.5 39.535,8.242 L 9.539,37.957 c -2.785,2.762 -2.777,7.266 0.02,10.012 l 15.937,15.648 c 2.762,2.715 7.199,2.684 9.922,-0.07 l 0.672,-0.68 C 35.375,61.25 34.867,59.52 34.598,57.711 l -2.512,2.539 c -0.906,0.918 -2.387,0.93 -3.309,0.023 L 12.844,44.625 C 11.91,43.711 11.91,42.207 12.836,41.289 l 4.781,-4.734 16.801,16.8 c 0.121,-1.917 0.512,-3.761 1.133,-5.496 L 20.945,33.254 42.832,11.574 c 0.922,-0.914 2.414,-0.902 3.324,0.024 L 61.5,27.25 c 0.895,0.914 0.891,2.379 -0.008,3.289 l -3.988,4.027 c 1.812,0.254 3.547,0.743 5.172,1.438 l 2.148,-2.168 c 2.703,-2.731 2.711,-7.125 0.024,-9.867 z" style="fill:currentColor;fill-opacity:1;fill-rule:nonzero;stroke:none" transform="scale(1.3333333)" /> <path id="Ia4c4ffba3c8749ff85a57bb032e16a1220251106163937" d="m 60.277,38.43 c 6.746,2.32 11.598,8.722 11.598,16.258 0,9.492 -7.695,17.187 -17.187,17.187 -7.473,0 -13.833,-4.77 -16.2,-11.43 -0.64,-1.8 -0.988,-3.738 -0.988,-5.757 0,-1.497 0.191,-2.946 0.547,-4.329 1.914,-7.371 8.594,-12.824 16.555,-12.859" style="fill:currentColor;fill-opacity:1;fill-rule:nonzero;stroke:none" transform="scale(1.3333333)" /> <path id="I29dbb6ea5cff4eae9e7fb358fa7000cc20251106163937" d="m 54.688,37.5 c 1.957,0 3.835,0.324 5.589,0.93 z" style="fill:currentColor;fill-opacity:1;fill-rule:nonzero;stroke:none" transform="scale(1.3333333)" /> </g>
</svg>

