<?xml version="1.0" encoding="UTF-8" standalone="no"?> <svg version="1.1" id="I2a366dc801ed4122903afe7342f8712920251110133655" width="100" height="100" viewBox="0 0 100 100" xmlns="http://www.w3.org/2000/svg" xmlns:svg="http://www.w3.org/2000/svg"> <defs id="I9d7b4cca27f4485aa2675395db625e3d20251110133655"> <linearGradient x1="5.75319" y1="-0.72767901" x2="19.714199" y2="27.957199" gradientUnits="userSpaceOnUse" gradientTransform="scale(2.678571)" spreadMethod="pad" id="I6edd2a0e151c4006a2fe79c868e4d6ce20251110133655"> <stop style="stop-opacity:1;stop-color:#ffcd0f" offset="0" id="Ife87af36c9d74f9db3e6859e1f44631f20251110133655" /> <stop style="stop-opacity:1;stop-color:#fe8401" offset="1" id="I3c4f933a029f487a922f91d947ef4adc20251110133655" /> </linearGradient> <linearGradient x1="11.3333" y1="9.5" x2="17.337601" y2="20.6383" gradientUnits="userSpaceOnUse" gradientTransform="scale(2.678571)" spreadMethod="pad" id="Ic5aef04acdae48128ccd41287c91c5bb20251110133655"> <stop style="stop-opacity:1;stop-color:#4a4a4a" offset="0" id="I8e93da6acab4418aad0c3cc6b3c04d4820251110133655" /> <stop style="stop-opacity:1;stop-color:#242424" offset="1" id="I6879897893bf488d8dffd374409753b920251110133655" /> </linearGradient> </defs> <g id="I50833a65c0ed400db49a75c5abd350e820251110133655"> <path id="I6d43d3e64a7b42769c5afae8235b616820251110133655" d="M 31.051,11.172 C 33.852,6.094 41.148,6.094 43.949,11.168 l 24.778,44.867 c 2.711,4.91 -0.84,10.93 -6.45,10.93 H 12.742 c -5.609,0 -9.16,-6.016 -6.449,-10.926 z" style="fill:#212121;fill-opacity:1;fill-rule:nonzero;stroke:none" transform="scale(1.3333333)" /> <path id="I78cd24585aad4a46b8e402ff330bf03e20251110133655" d="M 31.051,11.172 C 33.852,6.094 41.148,6.094 43.949,11.168 l 24.778,44.867 c 2.711,4.91 -0.84,10.93 -6.45,10.93 H 12.742 c -5.609,0 -9.16,-6.016 -6.449,-10.926 z" transform="scale(1.3333333)" style="fill:url(#I6edd2a0e151c4006a2fe79c868e4d6ce20251110133655);stroke:none" /> <path id="Ice306c93c7f74f83a3d478043686ef9120251110133655" d="m 40.18,53.57 c 0,1.481 -1.2,2.68 -2.68,2.68 -1.48,0 -2.68,-1.199 -2.68,-2.68 0,-1.476 1.2,-2.675 2.68,-2.675 1.48,0 2.68,1.199 2.68,2.675 z m -4.688,-8.703 c 0,1.11 0.899,2.008 2.008,2.008 1.109,0 2.008,-0.898 2.008,-2.008 v -17.41 c 0,-1.109 -0.899,-2.012 -2.008,-2.012 -1.109,0 -2.008,0.903 -2.008,2.012 z" transform="scale(1.3333333)" style="fill:url(#Ic5aef04acdae48128ccd41287c91c5bb20251110133655);stroke:none" /> </g>
</svg>

