<?xml version="1.0" encoding="UTF-8" standalone="no"?> <svg version="1.1" id="If79cbe8b2d6847459bcc9ee42433989d20251106161452" width="100" height="100" viewBox="0 0 100 100" xmlns="http://www.w3.org/2000/svg" xmlns:svg="http://www.w3.org/2000/svg"> <defs id="I3a882f2160e6447e97b3384f22bdcbf320251106161452" /> <g id="I8c8f198b8c4146f8b25d63f1afd295fa20251106161452"> <path id="I6bda427c384d4644b9967bca88b9239d20251106161452" d="m 21.875,6.25 c -3.453,0 -6.25,2.797 -6.25,6.25 v 40.625 c 0,3.453 2.797,6.25 6.25,6.25 h 13.043 c -0.356,-1.504 -0.543,-3.074 -0.543,-4.687 h -12.5 c -0.863,0 -1.563,-0.7 -1.563,-1.563 V 12.5 c 0,-0.863 0.7,-1.562 1.563,-1.562 h 17.187 v 10.156 c 0,3.019 2.45,5.468 5.469,5.468 h 10.157 v 7.813 c 1.613,0 3.183,0.187 4.687,0.543 V 24.273 c 0,-1.656 -0.66,-3.246 -1.832,-4.418 L 45.77,8.082 C 44.598,6.91 43.008,6.25 41.352,6.25 Z M 43.75,21.094 v -8.403 l 9.184,9.184 h -8.403 c -0.429,0 -0.781,-0.352 -0.781,-0.781 z M 20.312,64.062 h 16.352 c 0.898,1.723 2.035,3.301 3.367,4.688 H 20.312 C 12.547,68.75 6.25,62.453 6.25,54.688 v -5.469 c 0,-1.293 1.051,-2.344 2.344,-2.344 1.293,0 2.344,1.051 2.344,2.344 v 5.469 c 0,5.179 4.199,9.374 9.374,9.374 z M 25,17.969 c 0,-1.293 1.051,-2.344 2.344,-2.344 h 4.687 c 1.293,0 2.344,1.051 2.344,2.344 0,1.293 -1.051,2.343 -2.344,2.343 H 27.344 C 26.051,20.312 25,19.262 25,17.969 Z M 27.344,25 C 26.051,25 25,26.051 25,27.344 c 0,1.293 1.051,2.344 2.344,2.344 h 4.687 c 1.293,0 2.344,-1.051 2.344,-2.344 C 34.375,26.051 33.324,25 32.031,25 Z m 0,9.375 c -1.293,0 -2.344,1.051 -2.344,2.344 0,1.293 1.051,2.343 2.344,2.343 h 4.687 c 1.293,0 2.344,-1.05 2.344,-2.343 0,-1.293 -1.051,-2.344 -2.344,-2.344 z M 71.875,54.688 C 71.875,45.195 64.18,37.5 54.688,37.5 45.195,37.5 37.5,45.195 37.5,54.688 c 0,9.492 7.695,17.187 17.188,17.187 9.492,0 17.187,-7.695 17.187,-17.187 z m -15.625,1.562 0.004,7.824 c 0,0.864 -0.699,1.563 -1.563,1.563 -0.863,0 -1.562,-0.699 -1.562,-1.563 L 53.125,56.25 h -7.828 c -0.859,0 -1.559,-0.699 -1.559,-1.562 0,-0.864 0.7,-1.563 1.559,-1.563 h 7.828 v -7.816 c 0,-0.864 0.699,-1.563 1.563,-1.563 0.863,0 1.562,0.699 1.562,1.563 v 7.816 h 7.801 c 0.863,0 1.562,0.699 1.562,1.563 0,0.863 -0.699,1.562 -1.562,1.562 z" style="fill:currentColor;fill-opacity:1;fill-rule:nonzero;stroke:none" transform="scale(1.3333333)" /> </g>
</svg>

