<?xml version="1.0" encoding="UTF-8" standalone="no"?> <svg version="1.1" id="I2ec6a7672dc14bab85b05fad5db1168f20251106161453" width="100" height="100" viewBox="0 0 100 100" xmlns="http://www.w3.org/2000/svg" xmlns:svg="http://www.w3.org/2000/svg"> <defs id="Ib5229dae37d3470cbec3654fa544c0d620251106161453" /> <g id="I360128f3da26433f91dc153bd0a2738e20251106161453"> <path id="I23d1554795bf4bd292f66b9e96a0a69a20251106161453" d="m 51.668,8.438 c 4.113,-4.114 10.781,-4.114 14.894,0 4.114,4.113 4.114,10.781 0,14.894 L 62.438,27.457 47.543,12.562 Z m -6.969,6.964 -32.64,32.641 c -1.18,1.18 -2.036,2.645 -2.485,4.25 L 5.43,67.094 c -0.196,0.695 0.004,1.445 0.515,1.961 0.512,0.511 1.262,0.711 1.961,0.511 l 14.797,-4.14 c 1.609,-0.449 3.07,-1.305 4.254,-2.485 l 5.359,-5.367 c -0.113,-0.871 -0.171,-1.758 -0.171,-2.664 0,-11.094 8.992,-20.09 20.085,-20.09 0.907,0 1.793,0.063 2.668,0.176 l 4.7,-4.699 z M 52.23,72.32 c 9.618,0 17.415,-7.793 17.415,-17.41 0,-9.617 -7.797,-17.41 -17.415,-17.41 -9.613,0 -17.41,7.793 -17.41,17.41 0,9.617 7.797,17.41 17.41,17.41 z m 0,-4.015 c -2.972,0 -5.718,-0.969 -7.941,-2.61 L 63.016,46.969 c 1.64,2.222 2.609,4.969 2.609,7.941 0,7.399 -5.996,13.395 -13.395,13.395 z m 7.946,-24.18 -18.727,18.73 c -1.64,-2.222 -2.609,-4.972 -2.609,-7.945 0,-7.394 5.996,-13.39 13.39,-13.39 2.977,0 5.723,0.968 7.946,2.605 z" style="fill:currentColor;fill-opacity:1;fill-rule:nonzero;stroke:none" transform="scale(1.3333333)" /> </g>
</svg>

