<?xml version="1.0" encoding="UTF-8" standalone="no"?> <svg version="1.1" id="Ie52cc910ab504db5bca3ec7af14c779120251110130508" width="100" height="100" viewBox="0 0 100 100" xmlns="http://www.w3.org/2000/svg" xmlns:svg="http://www.w3.org/2000/svg"> <defs id="I0a0590f8d81948a79a6e144ea99ab1e520251110130508" /> <g id="Ia09367c3d42d469d928259c460fb604120251110130508"> <path id="Ie8a958b4e5174d4c939cb0cebee730a520251110130508" d="M 45.312,10.156 C 45.312,8 47.062,6.25 49.219,6.25 H 64.844 C 67,6.25 68.75,8 68.75,10.156 v 48.438 c 0,5.609 -4.547,10.156 -10.156,10.156 H 10.156 C 8,68.75 6.25,67 6.25,64.844 V 49.219 c 0,-2.157 1.75,-3.907 3.906,-3.907 H 25 V 28.906 C 25,26.75 26.75,25 28.906,25 H 45.312 Z M 50,10.938 v 14.843 c 0,2.157 -1.75,3.907 -3.906,3.907 H 29.688 V 46.094 C 29.688,48.25 27.938,50 25.781,50 H 10.938 v 14.062 h 47.656 c 3.019,0 5.468,-2.449 5.468,-5.468 V 10.938 Z" style="fill:currentColor;fill-opacity:1;fill-rule:nonzero;stroke:none" transform="scale(1.3333333)" /> </g>
</svg>

