<?xml version="1.0" encoding="UTF-8" standalone="no"?> <svg version="1.1" id="I62b4c8b485f243b6acfec5ff4c09d72720251106155156" width="100" height="100" viewBox="0 0 100 100" xmlns="http://www.w3.org/2000/svg" xmlns:svg="http://www.w3.org/2000/svg"> <defs id="I0f21196ebef742bba377576caba6075220251106155156" /> <g id="Ic043f3ddef8f42a39bb5901f6efd48ab20251106155156"> <path id="I342246043e4d4f8e8cbe19d37110432220251106155156" d="m 26.566,50 c -2.589,0 -4.687,2.098 -4.687,4.688 0,2.589 2.098,4.687 4.687,4.687 h 21.875 c 2.59,0 4.688,-2.098 4.688,-4.687 C 53.129,52.098 51.031,50 48.441,50 Z M 62.473,12.789 C 62.223,9.129 59.176,6.238 55.457,6.238 H 19.52 L 19.039,6.254 C 15.379,6.5 12.488,9.547 12.488,13.27 v 48.429 l 0.016,0.485 c 0.246,3.656 3.293,6.546 7.016,6.546 h 35.937 l 0.481,-0.015 c 3.66,-0.246 6.55,-3.293 6.55,-7.016 V 13.27 Z M 19.52,10.926 h 35.937 l 0.316,0.019 c 1.145,0.157 2.028,1.137 2.028,2.325 v 48.429 l -0.024,0.321 c -0.152,1.144 -1.132,2.023 -2.32,2.023 H 19.52 l -0.321,-0.02 c -1.14,-0.156 -2.023,-1.136 -2.023,-2.324 V 13.27 l 0.019,-0.321 c 0.157,-1.14 1.137,-2.023 2.325,-2.023 z" style="fill:currentColor;fill-opacity:1;fill-rule:nonzero;stroke:none" transform="scale(1.3333333)" /> </g>
</svg>

