<?xml version="1.0" encoding="UTF-8" standalone="no"?> <svg version="1.1" id="I2852a2ac0af640a79e39b7d35cdfd2ed20251110130508" width="100" height="100" viewBox="0 0 100 100" xmlns="http://www.w3.org/2000/svg" xmlns:svg="http://www.w3.org/2000/svg"> <defs id="I5ac7a6cfaa9f4734bbd313d1eddb0bf120251110130508" /> <g id="I2b45c213269241dbb203cf6c7df9276820251110130508"> <path id="I4d32e1f383c54270a46546297b7fbb8d20251110130508" d="m 9.375,19.531 c 0,-5.609 4.547,-10.156 10.156,-10.156 h 35.938 c 5.609,0 10.156,4.547 10.156,10.156 v 0.781 H 9.375 Z m 0,5.469 v 25 h 56.25 V 25 Z m 39.313,10.156 -2.782,-3.129 c -0.863,-0.968 -0.773,-2.449 0.192,-3.308 0.968,-0.864 2.449,-0.774 3.308,0.191 l 6.246,7.024 c 0.352,0.394 0.575,0.91 0.598,1.476 0,0.063 0,0.125 0,0.188 -0.023,0.543 -0.23,1.035 -0.559,1.422 l -0.035,0.039 -6.25,7.031 c -0.859,0.965 -2.34,1.055 -3.308,0.191 -0.965,-0.859 -1.055,-2.34 -0.192,-3.308 l 2.782,-3.129 H 26.312 l 2.782,3.129 c 0.863,0.968 0.773,2.449 -0.192,3.308 -0.968,0.864 -2.449,0.774 -3.308,-0.191 l -6.25,-7.031 c -0.793,-0.891 -0.793,-2.227 0,-3.118 l 6.25,-7.031 c 0.859,-0.965 2.34,-1.055 3.308,-0.191 0.965,0.859 1.055,2.34 0.192,3.308 l -2.782,3.129 z M 9.375,55.469 v -0.781 h 56.25 v 0.781 c 0,5.609 -4.547,10.156 -10.156,10.156 H 19.531 c -5.609,0 -10.156,-4.547 -10.156,-10.156 z" style="fill:currentColor;fill-opacity:1;fill-rule:nonzero;stroke:none" transform="scale(1.3333333)" /> </g>
</svg>

