<?xml version="1.0" encoding="UTF-8" standalone="no"?> <svg version="1.1" id="I220aead64fed411f820d82c7d0c25f5520251110130508" width="100" height="100" viewBox="0 0 100 100" xmlns="http://www.w3.org/2000/svg" xmlns:svg="http://www.w3.org/2000/svg"> <defs id="Iae54225034c8468faf0a7e8e244f513b20251110130508" /> <g id="I6da195f31159454b9e335cadba7bccf220251110130508"> <path id="I3ed2736301db42afbde17a55da45713320251110130508" d="m 20.625,15 c 0.887,-0.668 1.063,-1.926 0.398,-2.812 C 20.355,11.301 19.098,11.121 18.211,11.785 10.41,17.648 5.355,26.984 5.355,37.5 c 0,10.516 5.055,19.852 12.856,25.715 0.887,0.664 2.144,0.484 2.812,-0.403 C 21.688,61.926 21.512,60.668 20.625,60 13.789,54.867 9.375,46.699 9.375,37.5 c 0,-9.199 4.414,-17.367 11.25,-22.5 z m 36.164,-3.215 c -0.887,-0.664 -2.144,-0.484 -2.812,0.403 -0.665,0.886 -0.489,2.144 0.398,2.812 6.836,5.133 11.25,13.301 11.25,22.5 0,8.918 -4.148,16.863 -10.625,22.02 -0.867,0.691 -1.012,1.953 -0.32,2.824 0.687,0.867 1.953,1.011 2.82,0.32 C 64.895,56.777 69.645,47.691 69.645,37.5 69.645,26.984 64.59,17.648 56.789,11.785 Z M 23.438,35.492 c -1.11,0 -2.008,0.899 -2.008,2.008 0,1.109 0.898,2.008 2.008,2.008 h 28.124 c 1.11,0 2.008,-0.899 2.008,-2.008 0,-1.109 -0.898,-2.008 -2.008,-2.008 z" style="fill:currentColor;fill-opacity:1;fill-rule:nonzero;stroke:none" transform="scale(1.3333333)" /> </g>
</svg>

