<?xml version="1.0" encoding="UTF-8" standalone="no"?> <svg version="1.1" id="I7da91921864341aa9fb91c0f5119fc3f20251106163937" width="100" height="100" viewBox="0 0 100 100" xmlns="http://www.w3.org/2000/svg" xmlns:svg="http://www.w3.org/2000/svg"> <defs id="I3a1ad3f4ab1f4eb6899437e9b4a4f9d020251106163937" /> <g id="I80a4579125c842068ba5979b53e77f5520251106163937"> <path id="I5b71bdfaa7b145b4ad9db1a94eb21ad620251106163937" d="m 31.25,50 h 12.5 c 1.727,0 3.125,1.398 3.125,3.125 0,1.602 -1.207,2.922 -2.762,3.105 l -0.363,0.02 h -12.5 c -1.727,0 -3.125,-1.398 -3.125,-3.125 0,-1.602 1.207,-2.922 2.762,-3.105 L 31.25,50 h 12.5 z M 25,34.375 h 25 c 1.727,0 3.125,1.398 3.125,3.125 0,1.602 -1.207,2.922 -2.762,3.105 L 50,40.625 H 25 c -1.727,0 -3.125,-1.398 -3.125,-3.125 0,-1.602 1.207,-2.922 2.762,-3.105 L 25,34.375 H 50 Z M 15.625,18.75 h 43.75 c 1.727,0 3.125,1.398 3.125,3.125 0,1.602 -1.207,2.922 -2.762,3.105 L 59.375,25 H 15.625 C 13.898,25 12.5,23.602 12.5,21.875 c 0,-1.602 1.207,-2.922 2.762,-3.105 l 0.363,-0.02 h 43.75 z" style="fill:currentColor;fill-opacity:1;fill-rule:nonzero;stroke:none" transform="scale(1.3333333)" /> </g>
</svg>

