<?xml version="1.0" encoding="UTF-8" standalone="no"?> <svg version="1.1" id="I9c3f3910b0be42abace36227e3a977b320251106155156" width="100" height="100" viewBox="0 0 100 100" xmlns="http://www.w3.org/2000/svg" xmlns:svg="http://www.w3.org/2000/svg"> <defs id="I9e5d0459222c46dbb8a407c4a80b0d8a20251106155156" /> <g id="I1310a75942084f11bec282fd45f6c8d220251106155156"> <path id="Ia42898b20a074b66ba76851b0311611320251106155156" d="m 63.281,37.477 c 3.02,0 5.469,2.449 5.469,5.468 v 7.813 c 0,3.019 -2.449,5.469 -5.469,5.469 H 55.469 C 52.449,56.227 50,53.777 50,50.758 v -7.813 c 0,-3.019 2.449,-5.468 5.469,-5.468 z m -43.75,0 c 3.02,0 5.469,2.449 5.469,5.468 v 7.813 c 0,3.019 -2.449,5.469 -5.469,5.469 h -7.812 c -3.02,0 -5.469,-2.45 -5.469,-5.469 v -7.813 c 0,-3.019 2.449,-5.468 5.469,-5.468 z m 21.875,0 c 3.02,0 5.469,2.449 5.469,5.468 v 7.813 c 0,3.019 -2.449,5.469 -5.469,5.469 h -7.812 c -3.02,0 -5.469,-2.45 -5.469,-5.469 v -7.813 c 0,-3.019 2.449,-5.468 5.469,-5.468 z m 21.875,4.687 h -7.812 c -0.43,0 -0.781,0.348 -0.781,0.781 v 7.813 c 0,0.43 0.351,0.781 0.781,0.781 h 7.812 c 0.43,0 0.781,-0.351 0.781,-0.781 v -7.813 c 0,-0.433 -0.351,-0.781 -0.781,-0.781 z m -43.75,0 h -7.812 c -0.43,0 -0.781,0.348 -0.781,0.781 v 7.813 c 0,0.43 0.351,0.781 0.781,0.781 h 7.812 c 0.43,0 0.781,-0.351 0.781,-0.781 v -7.813 c 0,-0.433 -0.351,-0.781 -0.781,-0.781 z m 21.875,0 h -7.812 c -0.43,0 -0.782,0.348 -0.782,0.781 v 7.813 c 0,0.43 0.352,0.781 0.782,0.781 h 7.812 c 0.43,0 0.782,-0.351 0.782,-0.781 v -7.813 c 0,-0.433 -0.352,-0.781 -0.782,-0.781 z m 0,-26.562 c 3.02,0 5.469,2.449 5.469,5.468 v 7.813 c 0,3.019 -2.449,5.469 -5.469,5.469 h -7.812 c -3.02,0 -5.469,-2.45 -5.469,-5.469 V 21.07 c 0,-3.019 2.449,-5.468 5.469,-5.468 z m 21.875,0 c 3.02,0 5.469,2.449 5.469,5.468 v 7.813 c 0,3.019 -2.449,5.469 -5.469,5.469 H 55.469 C 52.449,34.352 50,31.902 50,28.883 V 21.07 c 0,-3.019 2.449,-5.468 5.469,-5.468 z m -43.75,0 c 3.02,0 5.469,2.449 5.469,5.468 v 7.813 c 0,3.019 -2.449,5.469 -5.469,5.469 h -7.812 c -3.02,0 -5.469,-2.45 -5.469,-5.469 V 21.07 c 0,-2.871 2.211,-5.222 5.02,-5.453 l 0.449,-0.015 z m 21.875,4.687 h -7.812 c -0.43,0 -0.782,0.348 -0.782,0.781 v 7.813 c 0,0.429 0.352,0.781 0.782,0.781 h 7.812 c 0.43,0 0.782,-0.352 0.782,-0.781 V 21.07 c 0,-0.433 -0.352,-0.781 -0.782,-0.781 z m 21.875,0 h -7.812 c -0.43,0 -0.781,0.348 -0.781,0.781 v 7.813 c 0,0.429 0.351,0.781 0.781,0.781 h 7.812 c 0.43,0 0.781,-0.352 0.781,-0.781 V 21.07 c 0,-0.433 -0.351,-0.781 -0.781,-0.781 z m -43.75,0 h -7.812 l -0.18,0.02 c -0.344,0.082 -0.601,0.39 -0.601,0.761 v 7.813 c 0,0.429 0.351,0.781 0.781,0.781 h 7.812 c 0.43,0 0.781,-0.352 0.781,-0.781 V 21.07 c 0,-0.433 -0.351,-0.781 -0.781,-0.781 z" style="fill:currentColor;fill-opacity:1;fill-rule:nonzero;stroke:none" transform="scale(1.3333333)" /> </g>
</svg>

