<?xml version="1.0" encoding="UTF-8" standalone="no"?>
<!-- Created with Inkscape (http://www.inkscape.org/) -->

<svg
   version="1.1"
   id="I21cf69ac165e4e3082a7217f5d9b5e3520251103104211"
   width="100"
   height="100"
   viewBox="0 0 100 100"
   sodipodi:docname="output.ai"
   xmlns:inkscape="http://www.inkscape.org/namespaces/inkscape"
   xmlns:sodipodi="http://sodipodi.sourceforge.net/DTD/sodipodi-0.dtd"
   xmlns="http://www.w3.org/2000/svg"
   xmlns:svg="http://www.w3.org/2000/svg">
  <defs
     id="Ice01d1ad855343b28bb86cb08559370620251103104211" />
  <sodipodi:namedview
     id="I54947c1cadbb48029c400cfb94f0c5b920251103104211"
     pagecolor="#ffffff"
     bordercolor="#000000"
     borderopacity="0.25"
     inkscape:showpageshadow="2"
     inkscape:pageopacity="0.0"
     inkscape:pagecheckerboard="0"
     inkscape:deskcolor="#d1d1d1">
    <inkscape:page
       x="0"
       y="0"
       inkscape:label="1"
       id="If34662f99d154fe88104ca58cc7db63a20251103104211"
       width="100"
       height="100"
       margin="0"
       bleed="0" />
  </sodipodi:namedview>
  <g
     id="I3fae5798a9984635b9588ad0ca1fe70520251103104211"
     inkscape:groupmode="layer"
     inkscape:label="1">
    <path
       id="I45eaf31778df44f0994d0070f32c96d420251103104211"
       d="m 43.125,15 c 0,-3.105 -2.52,-5.625 -5.625,-5.625 -3.105,0 -5.625,2.52 -5.625,5.625 z m -15,0 c 0,-5.176 4.199,-9.375 9.375,-9.375 5.176,0 9.375,4.199 9.375,9.375 h 18.75 c 1.035,0 1.875,0.84 1.875,1.875 0,1.035 -0.84,1.875 -1.875,1.875 H 61.672 L 58.641,45 h -3.774 l 3.028,-26.25 h -40.79 l 4.426,38.359 c 0.434,3.786 3.641,6.641 7.449,6.641 h 8.84 c -0.207,0.586 -0.32,1.219 -0.32,1.875 0,0.656 0.113,1.289 0.32,1.875 h -8.84 c -5.714,0 -10.519,-4.285 -11.175,-9.961 L 13.328,18.75 H 9.375 C 8.34,18.75 7.5,17.91 7.5,16.875 7.5,15.84 8.34,15 9.375,15 Z m 15,33.75 c -1.035,0 -1.875,0.84 -1.875,1.875 0,1.035 0.84,1.875 1.875,1.875 h 22.5 c 1.035,0 1.875,-0.84 1.875,-1.875 0,-1.035 -0.84,-1.875 -1.875,-1.875 z m 0,7.5 c -1.035,0 -1.875,0.84 -1.875,1.875 0,1.035 0.84,1.875 1.875,1.875 h 22.5 C 66.66,60 67.5,59.16 67.5,58.125 67.5,57.09 66.66,56.25 65.625,56.25 Z m 0,7.5 c -1.035,0 -1.875,0.84 -1.875,1.875 0,1.035 0.84,1.875 1.875,1.875 h 22.5 c 1.035,0 1.875,-0.84 1.875,-1.875 0,-1.035 -0.84,-1.875 -1.875,-1.875 z"
       style="fill:#212121;fill-opacity:1;fill-rule:nonzero;stroke:none"
       transform="scale(1.3333333)" />
  </g>
</svg>





