<?xml version="1.0" encoding="UTF-8" standalone="no"?> <svg version="1.1" id="Ib47728f68c2b480b9a962c42692c28d920251110135155" width="100" height="100" viewBox="0 0 100 100" xmlns="http://www.w3.org/2000/svg" xmlns:svg="http://www.w3.org/2000/svg"> <defs id="I6ff7f209d9bd4387b20f5f1c2c7caed020251110135155"> <linearGradient x1="3" y1="2.6463001" x2="5.9585299" y2="14.6758" gradientUnits="userSpaceOnUse" gradientTransform="scale(3.125)" spreadMethod="pad" id="I87aa812bb1404c03a38635ecedbcfbd320251110135155"> <stop style="stop-opacity:1;stop-color:#0fafff" offset="0" id="I8781aba73e9a4ef682d0005ec190f58020251110135155" /> <stop style="stop-opacity:1;stop-color:#0078d4" offset="0.676761" id="I5f1a24ac5ec5487b9214fbf25c2b6a2420251110135155" /> <stop style="stop-opacity:1;stop-color:#0057aa" offset="0.84" id="I370d0743f2964d28a6f1dab043a8c4a120251110135155" /> <stop style="stop-opacity:1;stop-color:#0057aa" offset="1" id="I2423e97ab25644db8e19d781016836a820251110135155" /> </linearGradient> <linearGradient x1="14.5516" y1="11.6841" x2="15.9685" y2="17.2381" gradientUnits="userSpaceOnUse" gradientTransform="scale(3.125)" spreadMethod="pad" id="Iaac1994891714d0e970188a8364b160720251110135155"> <stop style="stop-opacity:1;stop-color:#ffa43d" offset="0" id="Ic709de4232c44e8b8fc6e4ebbe05676c20251110135155" /> <stop style="stop-opacity:1;stop-color:#fb5937" offset="1" id="Iac83f60eb7a24da9b8d9366dcfefd0cb20251110135155" /> </linearGradient> <linearGradient x1="5.4636102" y1="17.351" x2="10.1116" y2="22.0408" gradientUnits="userSpaceOnUse" gradientTransform="scale(3.125)" spreadMethod="pad" id="I5788cc53498843d58be4a7916388a71520251110135155"> <stop style="stop-opacity:1;stop-color:#ffd394" offset="0" id="Ibbe4ca91443c453eafc5fa07e337a17a20251110135155" /> <stop style="stop-opacity:1;stop-color:#ffd394" offset="0.255" id="I4144667822104f0999f63bde131b7ddc20251110135155" /> <stop style="stop-opacity:1;stop-color:#ff921f" offset="1" id="Iace85d5fcb0e4962ad598cbf3e34863320251110135155" /> </linearGradient> <linearGradient x1="19.4006" y1="9.0911903" x2="16.580799" y2="11.7507" gradientUnits="userSpaceOnUse" gradientTransform="scale(3.125)" spreadMethod="pad" id="Ia26b52c7443f4a9699ed90f2efa1da3020251110135155"> <stop style="stop-opacity:1;stop-color:#f97dbd" offset="0" id="I47bad55cedb14c7e8778a0d33e21b28020251110135155" /> <stop style="stop-opacity:1;stop-color:#dd3ce2" offset="1" id="I81a2ec7af6574923bdc9e613f9b9c34d20251110135155" /> </linearGradient> <linearGradient x1="16.107201" y1="13.7384" x2="11.3592" y2="11.6557" gradientUnits="userSpaceOnUse" gradientTransform="scale(3.125)" spreadMethod="pad" id="I8a0a1109caa24afa99df85adf1c6a1f020251110135155"> <stop style="stop-opacity:1;stop-color:#ff921f" offset="0" id="Ib1fbe9d55c774be3a2419ff04d9c6ef820251110135155" /> <stop style="stop-opacity:1;stop-color:#ffe994" offset="1" id="Ice70ae9b8f774319a86b146ed9d4d67420251110135155" /> </linearGradient> </defs> <g id="I107c80380369430a8cdee72dbe24f8d120251110135155"> <path id="Icf1ce430fbe6411cb5f87ef9fda479f320251110135155" d="M 25.629,7.734 25.473,7.402 C 25.059,6.684 24.344,6.301 23.609,6.254 23.453,6.242 23.297,6.25 23.145,6.27 22.453,6.348 21.793,6.727 21.402,7.402 l -0.156,0.332 -10.164,25.778 -1.543,3.89 -0.098,0.305 c -0.273,1.121 0.313,2.301 1.418,2.738 l 0.301,0.098 c 1.121,0.273 2.301,-0.313 2.738,-1.418 l 0.797,-2.004 2.313,-5.871 h 12.855 l 2.317,5.871 0.797,2.004 c 0.437,1.105 1.617,1.691 2.738,1.418 l 0.301,-0.098 c 1.105,-0.437 1.691,-1.617 1.418,-2.738 l -0.098,-0.305 -1.543,-3.89 z m 2.383,18.828 -4.574,-11.566 -4.575,11.566 z" transform="scale(1.3333333)" style="fill:url(#I87aa812bb1404c03a38635ecedbcfbd320251110135155);fill-rule:evenodd;stroke:none" /> <path id="Ie36024ade6254b049e1714f04bbbd09d20251110135155" d="m 40.461,62.805 22.23,-22.196 -14.226,-14.23 -22.262,22.23 0.5,13.727 z" transform="scale(1.3333333)" style="fill:url(#Iaac1994891714d0e970188a8364b160720251110135155);stroke:none" /> <path id="Ia1c48928006d4119884118cf8eaf267620251110135155" d="m 40.461,62.805 c -0.848,0.847 -1.902,1.465 -3.055,1.789 L 22.988,68.668 C 21.203,69.172 19.57,67.5 20.109,65.727 l 4.336,-14.196 c 0.34,-1.105 0.942,-2.109 1.758,-2.922 0,0 0.891,5.278 4.918,9.305 4.031,4.031 9.34,4.891 9.34,4.891 z" transform="scale(1.3333333)" style="fill:url(#I5788cc53498843d58be4a7916388a71520251110135155);stroke:none" /> <path id="Iacc263257aa04245ad1aea717d6ab34c20251110135155" d="M 62.691,40.609 C 66.621,36.684 66.625,30.316 62.695,26.387 58.77,22.457 52.398,22.453 48.469,26.379 L 41.672,33.141 55.93,47.336 Z" transform="scale(1.3333333)" style="fill:url(#Ia26b52c7443f4a9699ed90f2efa1da3020251110135155);stroke:none" /> <path id="Iee108e83f0044561a44d9c0b270173c520251110135155" d="m 53.719,49.547 6.765,-6.727 c 0,0 -5.312,-0.894 -9.324,-4.906 -4.012,-4.008 -4.902,-9.324 -4.902,-9.324 l -6.797,6.758 c 0,0 0.891,5.281 4.918,9.308 4.031,4.032 9.34,4.891 9.34,4.891 z" transform="scale(1.3333333)" style="fill:url(#I8a0a1109caa24afa99df85adf1c6a1f020251110135155);stroke:none" /> </g>
</svg>

