<?xml version="1.0" encoding="UTF-8" standalone="no"?> <svg version="1.1" id="Id507b8d4208c4e36958bbd580a14280f20251110124422" width="100" height="100" viewBox="0 0 100 100" xmlns="http://www.w3.org/2000/svg" xmlns:svg="http://www.w3.org/2000/svg"> <defs id="I3e8cecc7148749448cfd2d7de9f33ccd20251110124422" /> <g id="I098610e2e7a544b0b3e5a6458cbaa39620251110124422"> <path id="I37d17feaf3224c92b748f9b2559e4dbc20251110124422" d="m 21.094,21.875 c -3.02,0 -5.469,2.449 -5.469,5.469 v 20.312 c 0,3.02 2.449,5.469 5.469,5.469 h 32.812 c 3.02,0 5.469,-2.449 5.469,-5.469 V 27.344 c 0,-3.02 -2.449,-5.469 -5.469,-5.469 z m -0.782,5.469 c 0,-0.43 0.352,-0.782 0.782,-0.782 h 32.812 c 0.43,0 0.782,0.352 0.782,0.782 v 5.468 H 20.312 Z m 12.5,10.156 h 21.876 v 10.156 c 0,0.43 -0.352,0.782 -0.782,0.782 H 32.812 Z m -4.687,0 v 10.938 h -7.031 c -0.43,0 -0.782,-0.352 -0.782,-0.782 V 37.5 Z m -13.281,-25 c -4.746,0 -8.594,3.848 -8.594,8.594 v 32.812 c 0,4.746 3.848,8.594 8.594,8.594 h 45.312 c 4.746,0 8.594,-3.848 8.594,-8.594 V 21.094 c 0,-4.746 -3.848,-8.594 -8.594,-8.594 z m -3.906,8.594 c 0,-2.156 1.75,-3.906 3.906,-3.906 h 45.312 c 2.156,0 3.906,1.75 3.906,3.906 v 32.812 c 0,2.156 -1.75,3.906 -3.906,3.906 H 14.844 c -2.156,0 -3.906,-1.75 -3.906,-3.906 z" style="fill:currentColor;fill-opacity:1;fill-rule:nonzero;stroke:none" transform="scale(1.3333333)" /> </g>
</svg>

