<?xml version="1.0" encoding="UTF-8" standalone="no"?> <svg version="1.1" id="I0625aca01b6b4d059b4bffdcee41b43e20251106125938" width="100" height="100" viewBox="0 0 100 100" xmlns="http://www.w3.org/2000/svg" xmlns:svg="http://www.w3.org/2000/svg"> <defs id="Ia1c9cdcfc9d94f79b94b0590c93f197f20251106125938" /> <g id="I3b6cca96d25b4fc794c13e448b756ce720251106125938"> <path id="I563273cf35a04b50a3782381e83ed57420251106125938" d="m 56.25,65.625 c 0,1.727 -1.398,3.125 -3.125,3.125 C 51.398,68.75 50,67.352 50,65.625 V 16.918 l -5.602,5.605 c -1.222,1.219 -3.199,1.219 -4.421,0 -1.219,-1.222 -1.219,-3.199 0,-4.421 L 50.914,7.164 c 1.223,-1.219 3.199,-1.219 4.422,0 l 10.937,10.938 c 1.219,1.222 1.219,3.199 0,4.421 -1.222,1.219 -3.199,1.219 -4.421,0 L 56.25,16.918 Z M 9.375,62.5 C 7.648,62.5 6.25,61.102 6.25,59.375 6.25,57.648 7.648,56.25 9.375,56.25 h 31.25 c 1.727,0 3.125,1.398 3.125,3.125 0,1.727 -1.398,3.125 -3.125,3.125 z M 18.75,46.875 c 0,1.727 1.398,3.125 3.125,3.125 h 18.75 c 1.727,0 3.125,-1.398 3.125,-3.125 0,-1.727 -1.398,-3.125 -3.125,-3.125 h -18.75 c -1.727,0 -3.125,1.398 -3.125,3.125 z M 34.375,37.5 c -1.727,0 -3.125,-1.398 -3.125,-3.125 0,-1.727 1.398,-3.125 3.125,-3.125 h 6.25 c 1.727,0 3.125,1.398 3.125,3.125 0,1.727 -1.398,3.125 -3.125,3.125 z" style="fill:currentColor;fill-opacity:1;fill-rule:nonzero;stroke:none" transform="scale(1.3333333)" /> </g>
</svg>

