<?xml version="1.0" encoding="UTF-8" standalone="no"?> <svg version="1.1" id="I37f716b82119410aaaed7a7b962792f620251106132945" width="100" height="100" viewBox="0 0 100 100" xmlns="http://www.w3.org/2000/svg" xmlns:svg="http://www.w3.org/2000/svg"> <defs id="I86c72ddee5e748358a53a54426b8e85e20251106132945" /> <g id="I71a11a5f389148c4ab6c8338d7eed69120251106132945"> <path id="Ib42fd4e3d65b4d46b7e58048071b18f720251106132945" d="m 66.406,15.625 c 1.293,0 2.344,-1.051 2.344,-2.344 V 4.688 C 68.75,3.395 67.699,2.344 66.406,2.344 65.664,2.344 65,2.691 64.57,3.23 64.254,3.629 64.062,4.137 64.062,4.688 V 6.645 C 60.984,4.43 57.203,3.125 53.125,3.125 c -10.355,0 -18.75,8.395 -18.75,18.75 0,10.355 8.395,18.75 18.75,18.75 10.355,0 18.75,-8.395 18.75,-18.75 0,-1.293 -1.051,-2.344 -2.344,-2.344 -1.293,0 -2.343,1.051 -2.343,2.344 0,7.766 -6.297,14.063 -14.063,14.063 -7.766,0 -14.063,-6.297 -14.063,-14.063 0,-7.766 6.297,-14.063 14.063,-14.063 3.328,0 6.379,1.153 8.789,3.083 0.016,0.015 0.035,0.031 0.051,0.043 h -4.153 c -1.292,0 -2.343,1.05 -2.343,2.343 0,1.293 1.051,2.344 2.343,2.344 z M 20.312,6.25 h 17.504 c -1.414,1.387 -2.64,2.961 -3.64,4.688 H 20.312 c -1.726,0 -3.124,1.398 -3.124,3.124 V 56.25 H 59.375 V 42.844 c 1.652,-0.492 3.223,-1.172 4.687,-2.02 v 17.77 c 0,1.293 -1.05,2.344 -2.343,2.344 H 17.188 c 0,1.726 1.398,3.124 3.124,3.124 h 41.407 c 1.293,0 2.343,1.051 2.343,2.344 0,1.293 -1.05,2.344 -2.343,2.344 H 20.312 C 15.996,68.75 12.5,65.254 12.5,60.938 V 14.062 c 0,-4.316 3.496,-7.812 7.812,-7.812 z" style="fill:currentColor;fill-opacity:1;fill-rule:nonzero;stroke:none" transform="scale(1.3333333)" /> </g>
</svg>

