<?xml version="1.0" encoding="UTF-8" standalone="no"?> <svg version="1.1" id="I4424a8720ab441dab1bdb080cf1dfd6f20251106170412" width="100" height="100" viewBox="0 0 100 100" xmlns="http://www.w3.org/2000/svg" xmlns:svg="http://www.w3.org/2000/svg"> <defs id="I0622c17942b7405dbf153e90d6c9644f20251106170412" /> <g id="Icbe551d95c544775a161e9f300c801cc20251106170412"> <path id="I4f00f07e4252433c86e33f6a1a437aa920251106170412" d="m 28.125,15.625 c 1.727,0 3.125,1.398 3.125,3.125 0,1.602 -1.207,2.922 -2.762,3.105 l -0.363,0.02 h -6.25 c -5.176,0 -9.375,4.199 -9.375,9.375 0,4.992 3.902,9.074 8.824,9.359 l 0.551,0.016 h 6.25 c 1.727,0 3.125,1.398 3.125,3.125 0,1.602 -1.207,2.922 -2.762,3.105 l -0.363,0.02 h -6.25 C 13.246,46.875 6.25,39.879 6.25,31.25 c 0,-8.402 6.633,-15.254 14.945,-15.609 l 0.68,-0.016 z m 25,0 c 8.629,0 15.625,6.996 15.625,15.625 0,2.617 -0.645,5.086 -1.781,7.254 -1.657,-1.254 -3.508,-2.266 -5.504,-2.969 0.664,-1.285 1.035,-2.742 1.035,-4.285 0,-4.992 -3.902,-9.074 -8.824,-9.359 l -0.551,-0.016 h -6.25 c -1.727,0 -3.125,-1.398 -3.125,-3.125 0,-1.602 1.207,-2.922 2.762,-3.105 l 0.363,-0.02 z m -31.25,12.5 h 31.25 c 1.727,0 3.125,1.398 3.125,3.125 0,1.602 -1.207,2.922 -2.762,3.105 l -0.363,0.02 h -31.25 c -1.727,0 -3.125,-1.398 -3.125,-3.125 0,-1.602 1.207,-2.922 2.762,-3.105 z m 50,26.563 C 71.875,45.195 64.18,37.5 54.688,37.5 45.195,37.5 37.5,45.195 37.5,54.688 c 0,9.492 7.695,17.187 17.188,17.187 9.492,0 17.187,-7.695 17.187,-17.187 z m -15.625,1.562 0.004,7.824 c 0,0.864 -0.699,1.563 -1.563,1.563 -0.863,0 -1.562,-0.699 -1.562,-1.563 L 53.125,56.25 h -7.828 c -0.859,0 -1.559,-0.699 -1.559,-1.562 0,-0.864 0.7,-1.563 1.559,-1.563 h 7.828 v -7.816 c 0,-0.864 0.699,-1.563 1.563,-1.563 0.863,0 1.562,0.699 1.562,1.563 v 7.816 h 7.801 c 0.863,0 1.562,0.699 1.562,1.563 0,0.863 -0.699,1.562 -1.562,1.562 z" style="fill:currentColor;fill-opacity:1;fill-rule:nonzero;stroke:none" transform="scale(1.3333333)" /> </g>
</svg>

