<?xml version="1.0" encoding="UTF-8" standalone="no"?> <svg version="1.1" id="Id231b85779204bff9e74bc711d0f573020251106123559" width="100" height="100" viewBox="0 0 100 100" xmlns="http://www.w3.org/2000/svg" xmlns:svg="http://www.w3.org/2000/svg"> <defs id="I6f370c9e3f21490295491dca0eb586b520251106123559" /> <g id="I8d9c773ac8be4c878a2af257a8e9a39020251106123559"> <path id="Iae726bff299d4ff5a389009c88d8ec1520251106123559" d="M 61.875,67.5 C 60.84,67.5 60,66.66 60,65.625 V 9.375 C 60,8.34 60.84,7.5 61.875,7.5 c 1.035,0 1.875,0.84 1.875,1.875 v 56.25 c 0,1.035 -0.84,1.875 -1.875,1.875 z" style="fill:currentColor;fill-opacity:1;fill-rule:nonzero;stroke:none" transform="scale(1.3333333)" /> <path id="I104d33475f2447fe8a6fbfe4f31e4e0120251106123559" d="M 37.5,15 C 33.359,15 30,18.359 30,22.5 v 30 c 0,4.141 3.359,7.5 7.5,7.5 H 45 c 4.141,0 7.5,-3.359 7.5,-7.5 v -30 C 52.5,18.359 49.141,15 45,15 Z m -3.75,7.5 c 0,-2.07 1.68,-3.75 3.75,-3.75 H 45 c 2.07,0 3.75,1.68 3.75,3.75 v 30 c 0,2.07 -1.68,3.75 -3.75,3.75 h -7.5 c -2.07,0 -3.75,-1.68 -3.75,-3.75 z" style="fill:currentColor;fill-opacity:1;fill-rule:nonzero;stroke:none" transform="scale(1.3333333)" /> </g>
</svg>

