<?xml version="1.0" encoding="UTF-8" standalone="no"?> <svg version="1.1" id="I3e666f6613ce4c69840c436fbc99a75120251106143238" width="100" height="100" viewBox="0 0 100 100" xmlns="http://www.w3.org/2000/svg" xmlns:svg="http://www.w3.org/2000/svg"> <defs id="I686692bd98404f71899a70fd519f09b520251106143238" /> <g id="Id498b9c7f01d43a6b7b48a04fd5449f320251106143238"> <path id="I163c412084e24cebaaf262a5d61d06ab20251106143238" d="m 58.258,8.035 c 4.808,0 8.707,3.899 8.707,8.707 v 26.25 c -0.434,-0.09 -0.883,-0.137 -1.34,-0.137 -0.953,0 -1.859,0.2 -2.68,0.559 V 25.453 h -50.89 v 32.805 c 0,2.59 2.097,4.687 4.687,4.687 H 37.5 v 4.02 H 16.742 c -4.808,0 -8.707,-3.899 -8.707,-8.707 V 16.742 c 0,-4.808 3.899,-8.707 8.707,-8.707 z m 0,4.02 H 16.742 c -2.59,0 -4.687,2.097 -4.687,4.687 v 4.696 h 50.89 v -4.696 c 0,-2.59 -2.097,-4.687 -4.687,-4.687 z M 54.91,37.5 c -2.219,0 -4.015,1.801 -4.015,4.02 v 26.785 c 0,2.218 1.796,4.015 4.015,4.015 2.219,0 4.02,-1.797 4.02,-4.015 V 41.52 c 0,-2.219 -1.801,-4.02 -4.02,-4.02 z M 44.195,53.57 c -2.218,0 -4.015,1.801 -4.015,4.02 v 10.715 c 0,2.218 1.797,4.015 4.015,4.015 2.219,0 4.02,-1.797 4.02,-4.015 V 57.59 c 0,-2.219 -1.801,-4.02 -4.02,-4.02 z m 17.41,-4.015 c 0,-2.219 1.801,-4.02 4.02,-4.02 2.219,0 4.02,1.801 4.02,4.02 v 18.75 c 0,2.218 -1.801,4.015 -4.02,4.015 -2.219,0 -4.02,-1.797 -4.02,-4.015 z" style="fill:currentColor;fill-opacity:1;fill-rule:nonzero;stroke:none" transform="scale(1.3333333)" /> </g>
</svg>

