<?xml version="1.0" encoding="UTF-8" standalone="no"?> <svg version="1.1" id="Ie5b34d24eb69416eaf19e26277493f3120251106154012" width="100" height="100" viewBox="0 0 100 100" xmlns="http://www.w3.org/2000/svg" xmlns:svg="http://www.w3.org/2000/svg"> <defs id="I082b33d91b374c2da2d80b0c24c2f1b620251106154012" /> <g id="I1171c2c6f07b49cab5017fdf7d9e354520251106154012"> <path id="I2f4f853c075840dd85acf7682f537d6a20251106154012" d="m 44.195,16.07 c 0,-3.695 -2.996,-6.695 -6.695,-6.695 -3.699,0 -6.695,3 -6.695,6.695 z m -17.41,0 c 0,-5.918 4.797,-10.715 10.715,-10.715 5.918,0 10.715,4.797 10.715,10.715 h 16.742 c 1.109,0 2.008,0.903 2.008,2.012 0,1.109 -0.899,2.008 -2.008,2.008 h -3.512 l -1.359,16.324 c -1.25,-0.531 -2.566,-0.941 -3.93,-1.211 L 57.414,20.09 H 17.586 l 3.23,38.781 c 0.321,3.817 3.512,6.754 7.34,6.754 h 7.078 c 0.938,1.48 2.063,2.832 3.34,4.02 H 28.156 c -5.918,0 -10.851,-4.54 -11.344,-10.442 L 13.555,20.09 h -3.512 c -1.109,0 -2.008,-0.899 -2.008,-2.008 0,-1.109 0.899,-2.012 2.008,-2.012 z m 42.86,38.84 c 0,9.617 -7.797,17.41 -17.415,17.41 -9.613,0 -17.41,-7.793 -17.41,-17.41 0,-9.617 7.797,-17.41 17.41,-17.41 9.618,0 17.415,7.793 17.415,17.41 z M 52.23,53.016 45.145,45.93 c -0.524,-0.524 -1.372,-0.524 -1.895,0 -0.523,0.519 -0.523,1.371 0,1.89 l 7.09,7.09 -7.09,7.09 c -0.523,0.523 -0.523,1.371 0,1.895 0.523,0.523 1.371,0.523 1.895,0 l 7.085,-7.09 7.09,7.09 c 0.524,0.523 1.371,0.523 1.895,0 0.523,-0.524 0.523,-1.372 0,-1.895 l -7.09,-7.09 7.09,-7.09 c 0.523,-0.519 0.523,-1.371 0,-1.89 -0.524,-0.524 -1.371,-0.524 -1.895,0 z" style="fill:currentColor;fill-opacity:1;fill-rule:nonzero;stroke:none" transform="scale(1.3333333)" /> </g>
</svg>

