<?xml version="1.0" encoding="UTF-8" standalone="no"?> <svg version="1.1" id="I5d562c8076af4b0482a2d683cab1d41220251110130507" width="100" height="100" viewBox="0 0 100 100" xmlns="http://www.w3.org/2000/svg" xmlns:svg="http://www.w3.org/2000/svg"> <defs id="I570dad787ae44b848e96f7e400b0e09c20251110130507" /> <g id="Ib2266065a0d9404a98d05474bd2e861220251110130507"> <path id="Ia2410d4e5bcf41ffb3fef3f38ec246f320251110130507" d="m 37.5,13.125 c -13.461,0 -24.375,10.914 -24.375,24.375 0,1.555 -1.258,2.812 -2.813,2.812 -1.554,0 -2.812,-1.257 -2.812,-2.812 0,-16.57 13.43,-30 30,-30 16.57,0 30,13.43 30,30 0,16.57 -13.43,30 -30,30 -1.555,0 -2.812,-1.258 -2.812,-2.812 0,-1.555 1.257,-2.813 2.812,-2.813 13.461,0 24.375,-10.914 24.375,-24.375 0,-13.461 -10.914,-24.375 -24.375,-24.375 z" style="fill:currentColor;fill-opacity:1;fill-rule:nonzero;stroke:none" transform="scale(1.3333333)" /> </g>
</svg>

