<?xml version="1.0" encoding="UTF-8" standalone="no"?> <svg version="1.1" id="I341609c6dcc5497eada760fd69eb38eb20251110124422" width="100" height="100" viewBox="0 0 100 100" xmlns="http://www.w3.org/2000/svg" xmlns:svg="http://www.w3.org/2000/svg"> <defs id="Ia497c17dc85949609a94587262bfb80320251110124422" /> <g id="I978efdfef6774c03b05595bf3b724c7a20251110124422"> <path id="I722875b8dc7c459c8b836b800100a33220251110124422" d="M 6.25,22.656 C 6.25,17.047 10.797,12.5 16.406,12.5 h 42.188 c 5.609,0 10.156,4.547 10.156,10.156 V 40.031 C 67.363,38.699 65.785,37.562 64.062,36.664 V 22.656 c 0,-3.019 -2.449,-5.468 -5.468,-5.468 H 16.406 c -3.019,0 -5.468,2.449 -5.468,5.468 v 29.688 c 0,3.019 2.449,5.468 5.468,5.468 h 18.207 c 0.254,1.637 0.699,3.208 1.321,4.688 H 16.406 C 10.797,62.5 6.25,57.953 6.25,52.344 Z m 38.371,21.016 c 0.981,3.41 -1.062,6.949 -4.504,7.801 l -1.828,0.453 c -0.141,0.898 -0.211,1.82 -0.211,2.762 0,0.984 0.078,1.949 0.231,2.886 l 1.687,0.406 c 3.477,0.836 5.543,4.415 4.531,7.844 l -0.582,1.973 c 1.371,1.207 2.938,2.183 4.637,2.879 l 1.543,-1.621 c 2.465,-2.59 6.594,-2.59 9.059,0.004 l 1.558,1.64 c 1.699,-0.691 3.262,-1.66 4.633,-2.855 l -0.617,-2.141 c -0.985,-3.41 1.062,-6.949 4.504,-7.801 l 1.824,-0.453 c 0.141,-0.898 0.211,-1.82 0.211,-2.761 0,-0.985 -0.078,-1.95 -0.231,-2.887 L 69.383,51.395 C 65.906,50.559 63.836,46.98 64.852,43.551 l 0.578,-1.973 c -1.371,-1.203 -2.934,-2.183 -4.637,-2.879 l -1.539,1.621 c -2.465,2.59 -6.598,2.59 -9.063,-0.004 l -1.558,-1.64 c -1.699,0.691 -3.258,1.66 -4.633,2.855 z m 10.067,15.703 c -2.5,0 -4.532,-2.098 -4.532,-4.687 0,-2.59 2.032,-4.688 4.532,-4.688 2.503,0 4.531,2.098 4.531,4.688 0,2.589 -2.028,4.687 -4.531,4.687 z" style="fill:currentColor;fill-opacity:1;fill-rule:nonzero;stroke:none" transform="scale(1.3333333)" /> </g>
</svg>

