<?xml version="1.0" encoding="UTF-8" standalone="no"?> <svg version="1.1" id="I3dacf103b3284805be983659f2f5818920251110130509" width="100" height="100" viewBox="0 0 100 100" xmlns="http://www.w3.org/2000/svg" xmlns:svg="http://www.w3.org/2000/svg"> <defs id="I3d253836799c49699d7639c3adfed80420251110130509" /> <g id="Ib116ccf2e8014039867e6d0d4fbdffb920251110130509"> <path id="Icddd6671de9f4b63a102c9d59e38b03c20251110130509" d="m 10.926,37.5 c 0,14.395 11.445,26.113 25.734,26.555 0.879,1.687 1.988,3.238 3.285,4.605 -0.808,0.063 -1.625,0.098 -2.449,0.098 C 20.23,68.758 6.238,54.762 6.238,37.5 6.238,20.238 20.23,6.242 37.496,6.242 c 17.262,0 31.254,13.996 31.254,31.258 0,0.82 -0.031,1.637 -0.094,2.441 C 67.289,38.645 65.738,37.535 64.051,36.656 63.605,22.375 51.887,10.93 37.496,10.93 22.82,10.93 10.926,22.824 10.926,37.5 Z M 34.66,51.277 C 28.254,49.965 23.434,44.297 23.434,37.5 c 0,-7.766 6.293,-14.062 14.062,-14.062 6.793,0 12.461,4.816 13.774,11.222 1.113,-0.187 2.253,-0.285 3.418,-0.285 0.437,0 0.874,0.016 1.304,0.043 C 54.52,25.527 46.801,18.75 37.496,18.75 c -10.355,0 -18.75,8.395 -18.75,18.75 0,9.309 6.781,17.031 15.672,18.5 -0.027,-0.434 -0.043,-0.871 -0.043,-1.312 0,-1.165 0.098,-2.301 0.285,-3.411 z m 2.91,-7.527 h -0.074 c -3.453,0 -6.25,-2.797 -6.25,-6.25 0,-3.453 2.797,-6.25 6.25,-6.25 3.449,0 6.25,2.797 6.25,6.25 l -0.004,0.07 c -2.476,1.59 -4.586,3.7 -6.172,6.18 z M 54.688,37.5 c 9.492,0 17.187,7.695 17.187,17.188 0,9.492 -7.695,17.187 -17.187,17.187 C 45.195,71.875 37.5,64.18 37.5,54.688 37.5,45.195 45.195,37.5 54.688,37.5 Z M 56.254,64.074 56.25,56.25 h 7.82 c 0.864,0 1.563,-0.699 1.563,-1.562 0,-0.864 -0.699,-1.563 -1.563,-1.563 h -7.82 v -7.816 c 0,-0.864 -0.699,-1.563 -1.562,-1.563 -0.864,0 -1.563,0.699 -1.563,1.563 v 7.816 h -7.824 c -0.863,0 -1.563,0.699 -1.563,1.563 0,0.863 0.7,1.562 1.563,1.562 h 7.824 l 0.004,7.824 c 0,0.864 0.699,1.563 1.562,1.563 0.864,0 1.563,-0.699 1.563,-1.563 z" style="fill:currentColor;fill-opacity:1;fill-rule:nonzero;stroke:none" transform="scale(1.3333333)" /> </g>
</svg>

