<?xml version="1.0" encoding="UTF-8" standalone="no"?> <svg version="1.1" id="Ifdc33666b5364225a019341b4c370ac520251106125938" width="100" height="100" viewBox="0 0 100 100" xmlns="http://www.w3.org/2000/svg" xmlns:svg="http://www.w3.org/2000/svg"> <defs id="I9d249a8644f64fbca935dca5907bf00620251106125938" /> <g id="I01edcfc7f1a246719d6df9b6b99f177f20251106125938"> <path id="Ie756c09e287e43b28f658ce9e34b0b0f20251106125938" d="M 18.781,14.562 C 24.777,9.164 33.922,9.297 39.762,14.867 L 55.051,29.465 H 37.5 c -1.477,0 -2.676,1.199 -2.676,2.68 0,1.476 1.199,2.675 2.676,2.675 h 24.109 c 1.481,0 2.68,-1.199 2.68,-2.675 V 8.035 c 0,-1.48 -1.199,-2.68 -2.68,-2.68 -1.48,0 -2.679,1.2 -2.679,2.68 V 25.762 L 43.461,10.992 C 35.598,3.488 23.277,3.305 15.195,10.578 6.293,18.594 5.984,32.453 14.523,40.855 l 28.481,28.02 c 1.055,1.035 2.754,1.023 3.789,-0.031 1.039,-1.055 1.023,-2.75 -0.031,-3.789 L 18.281,37.035 c -6.34,-6.234 -6.113,-16.523 0.5,-22.473 z" style="fill:currentColor;fill-opacity:1;fill-rule:nonzero;stroke:none" transform="scale(1.3333333)" /> </g>
</svg>

