<?xml version="1.0" encoding="UTF-8" standalone="no"?> <svg version="1.1" id="I849f2234ffe6410e95987516a6abc2ca20251106123559" width="100" height="100" viewBox="0 0 100 100" xmlns="http://www.w3.org/2000/svg" xmlns:svg="http://www.w3.org/2000/svg"> <defs id="I0ff1670e963d47798090335b0ad593c720251106123559" /> <g id="I35dee9f44354451e98bb8fdff77076b020251106123559"> <path id="Ie479d220e5894c6bbdaee5516baf6cf520251106123559" d="m 37.5,21.094 c 4.531,0 8.203,-3.672 8.203,-8.203 0,-4.532 -3.672,-8.203 -8.203,-8.203 -4.531,0 -8.203,3.671 -8.203,8.203 0,4.531 3.672,8.203 8.203,8.203 z M 16.578,14.457 C 12.82,13.16 8.719,15.16 7.426,18.922 c -1.297,3.762 0.703,7.859 4.465,9.152 l 13.101,4.512 c 0.473,0.164 0.789,0.609 0.789,1.109 v 8.243 c 0,0.179 -0.039,0.355 -0.117,0.515 l -8.539,17.5 c -1.742,3.574 -0.258,7.887 3.316,9.629 3.575,1.742 7.887,0.258 9.629,-3.316 l 3.426,-7.016 c -0.445,-1.707 -0.684,-3.496 -0.684,-5.344 0,-10.058 7.043,-18.476 16.469,-20.586 0.114,-0.336 0.379,-0.613 0.727,-0.734 l 13.101,-4.512 c 3.762,-1.293 5.762,-5.39 4.465,-9.152 C 66.281,15.16 62.18,13.16 58.422,14.457 l -6.973,2.398 c -1.215,0.422 -2.121,1.293 -2.668,2.282 -2.203,3.968 -6.429,6.644 -11.281,6.644 -4.852,0 -9.078,-2.676 -11.281,-6.644 -0.547,-0.989 -1.453,-1.86 -2.668,-2.282 z m 37.328,21.871 c 9.707,0 17.578,7.871 17.578,17.578 0,9.707 -7.871,17.578 -17.578,17.578 -9.707,0 -17.578,-7.871 -17.578,-17.578 0,-9.707 7.871,-17.578 17.578,-17.578 z m 10.617,11.063 c -0.687,-0.688 -1.796,-0.688 -2.484,0 L 50.977,58.453 46.359,53.836 c -0.687,-0.688 -1.797,-0.688 -2.484,0 -0.687,0.687 -0.687,1.797 0,2.484 l 5.859,5.86 c 0.688,0.687 1.797,0.687 2.485,0 L 64.523,49.875 c 0.688,-0.687 0.688,-1.797 0,-2.484 z" style="fill:currentColor;fill-opacity:1;fill-rule:nonzero;stroke:none" transform="scale(1.3333333)" /> </g>
</svg>

