<?xml version="1.0" encoding="UTF-8" standalone="no"?> <svg version="1.1" id="I8d9641c6d0cf43ca94f1c089019551f120251110123030" width="100" height="100" viewBox="0 0 100 100" xmlns="http://www.w3.org/2000/svg" xmlns:svg="http://www.w3.org/2000/svg"> <defs id="I87dd379476d444e4877943c87122665920251110123030" /> <g id="I2f096608f57842369ab3a69c53ada12620251110123030"> <path id="Ie0234d1005f6411a92bab16eca9d343b20251110123030" d="m 61.105,39.492 c 2.692,-2.715 7.098,-2.652 9.711,0.133 2.504,2.668 2.43,6.84 -0.164,9.414 L 50.473,69.062 c -0.825,0.817 -1.852,1.403 -2.977,1.692 l -7.074,1.82 C 38.691,73.02 37.121,71.449 37.57,69.719 l 1.852,-7.153 C 39.695,61.5 40.25,60.523 41.027,59.742 Z M 38.543,57.266 c -1.215,1.226 -2.082,2.75 -2.516,4.422 l -1.851,7.148 C 34.062,69.285 34,69.73 33.988,70.164 27.863,69.664 22.301,67.867 18.012,65.141 12.945,61.914 9.375,57.172 9.375,51.562 v -1.171 c 0,-4.532 3.672,-8.203 8.203,-8.203 H 53.492 Z M 37.5,4.688 c 9.062,0 16.406,7.343 16.406,16.406 0,9.062 -7.344,16.406 -16.406,16.406 -9.062,0 -16.406,-7.344 -16.406,-16.406 0,-9.063 7.344,-16.406 16.406,-16.406 z" style="fill:currentColor;fill-opacity:1;fill-rule:nonzero;stroke:none" transform="scale(1.3333333)" /> </g>
</svg>

