<?xml version="1.0" encoding="UTF-8" standalone="no"?> <svg version="1.1" id="I804b45e808c54844a77b33bb15b5919320251106132946" width="100" height="100" viewBox="0 0 100 100" xmlns="http://www.w3.org/2000/svg" xmlns:svg="http://www.w3.org/2000/svg"> <defs id="I1326450b78064b2ea8d8a524fb3ce98420251106132946" /> <g id="Idc5e690738464d63a9dd9764400ce1de20251106132946"> <path id="I7a30d4e0a2f24559986676f7364c2db620251106132946" d="m 39.062,27.32 3.5,8.618 h -7 z M 12.5,14.062 v 46.876 c 0,4.316 3.496,7.812 7.812,7.812 h 41.407 c 1.293,0 2.343,-1.051 2.343,-2.344 0,-1.293 -1.05,-2.344 -2.343,-2.344 H 20.312 c -1.726,0 -3.124,-1.398 -3.124,-3.124 h 44.531 c 1.293,0 2.343,-1.051 2.343,-2.344 V 14.062 C 64.062,9.746 60.566,6.25 56.25,6.25 H 20.312 c -4.316,0 -7.812,3.496 -7.812,7.812 z m 26.562,4.688 c 0.954,0 1.813,0.578 2.172,1.461 l 10.157,25 c 0.488,1.199 -0.09,2.566 -1.289,3.055 -1.2,0.488 -2.567,-0.09 -3.055,-1.289 L 44.469,40.625 H 33.656 l -2.578,6.352 c -0.488,1.199 -1.855,1.777 -3.055,1.289 -1.199,-0.489 -1.777,-1.856 -1.289,-3.055 l 10.157,-25 c 0.359,-0.883 1.218,-1.461 2.171,-1.461 z" style="fill:currentColor;fill-opacity:1;fill-rule:nonzero;stroke:none" transform="scale(1.3333333)" /> </g>
</svg>

