<?xml version="1.0" encoding="UTF-8" standalone="no"?> <svg version="1.1" id="I87f1562ad9884dbdb58f6fd7f440f63120251105191527" width="100" height="100" viewBox="0 0 100 100" xmlns="http://www.w3.org/2000/svg" xmlns:svg="http://www.w3.org/2000/svg"> <defs id="Ide85f0b3a61c4f84a3dd314af98c146520251105191527" /> <g id="Ic099a91a2b284906aafccdd4717e5ef420251105191527"> <path id="I7ea03ebdb79c4a4c981c2ad6c2edbe6620251105191527" d="m 57.203,39.484 c -0.031,-5.711 2.555,-10.011 7.777,-13.183 -2.921,-4.188 -7.339,-6.489 -13.168,-6.93 -5.515,-0.437 -11.55,3.211 -13.761,3.211 -2.332,0 -7.676,-3.062 -11.875,-3.062 -8.672,0.132 -17.891,6.914 -17.891,20.71 0,4.075 0.746,8.286 2.238,12.622 1.993,5.707 9.172,19.695 16.665,19.468 3.917,-0.09 6.687,-2.777 11.785,-2.777 4.949,0 7.507,2.777 11.879,2.777 C 58.41,72.211 64.906,59.496 66.797,53.773 56.66,48.992 57.203,39.777 57.203,39.484 Z m -0.887,22.348 c -1.195,1.668 -2.402,2.98 -3.507,3.828 -0.879,0.668 -1.555,0.953 -2.008,0.969 -0.754,-0.008 -1.481,-0.191 -2.906,-0.734 -0.098,-0.043 -0.207,-0.086 -0.352,-0.137 l -0.367,-0.141 c -1.457,-0.562 -2.328,-0.863 -3.442,-1.156 -1.554,-0.402 -3.105,-0.617 -4.761,-0.617 -1.692,0 -3.282,0.207 -4.864,0.601 -1.164,0.293 -2.14,0.617 -3.574,1.157 -0.058,0.023 -0.676,0.257 -0.851,0.324 -0.293,0.109 -0.52,0.191 -0.731,0.269 -0.871,0.301 -1.422,0.426 -1.918,0.434 -0.058,0 -0.105,-0.008 -0.148,-0.016 -0.094,-0.015 -0.211,-0.051 -0.344,-0.109 -0.375,-0.152 -0.828,-0.426 -1.34,-0.82 C 24.031,64.77 22.742,63.34 21.43,61.508 19.125,58.277 16.949,53.988 15.902,50.984 14.613,47.234 13.98,43.645 13.98,40.219 c 0,-5.039 1.489,-8.871 4.051,-11.473 2.199,-2.226 5.164,-3.476 8.184,-3.543 0.496,0.008 1.215,0.125 2.129,0.379 0.718,0.191 1.504,0.449 2.57,0.828 0.316,0.117 1.414,0.508 1.547,0.559 0.644,0.234 1.129,0.402 1.605,0.554 1.524,0.485 2.707,0.754 3.985,0.754 1.301,0 2.414,-0.277 3.996,-0.82 0.594,-0.203 2.754,-1.008 3.137,-1.141 2.144,-0.761 3.726,-1.171 5.089,-1.273 0.403,-0.031 0.762,-0.031 1.106,-0.008 1.898,0.153 3.523,0.527 4.906,1.156 -3.148,3.633 -4.773,8.079 -4.765,13.258 -0.024,1.231 0.078,2.656 0.429,4.336 0.535,2.555 1.555,5.082 3.172,7.449 1.231,1.801 2.754,3.426 4.578,4.84 -0.965,1.985 -2.144,4.035 -3.383,5.758 z m -7.91,-47.879 c 4.246,-5.039 3.86,-9.625 3.735,-11.273 -3.75,0.215 -8.086,2.55 -10.555,5.422 -2.723,3.082 -4.32,6.89 -3.977,11.183 4.051,0.309 7.75,-1.773 10.797,-5.332 z" style="fill:currentColor;fill-opacity:1;fill-rule:nonzero;stroke:none" transform="scale(1.3333333)" /> </g>
</svg>

