<?xml version="1.0" encoding="UTF-8" standalone="no"?> <svg version="1.1" id="Ic9afb1f60e824ec69533e52e06c66dbe20251106144521" width="100" height="100" viewBox="0 0 100 100" xmlns="http://www.w3.org/2000/svg" xmlns:svg="http://www.w3.org/2000/svg"> <defs id="I0e157d077fc9405896299fff55a2885b20251106144521" /> <g id="Ic3278532f2024237bc17dc0e4d0a837120251106144521"> <path id="Iad96fe6b27364fa0ad358eeb4ff7519320251106144521" d="m 12.5,37.5 c 0,-13.809 11.191,-25 25,-25 13.809,0 25,11.191 25,25 0,13.809 -11.191,25 -25,25 -13.809,0 -25,-11.191 -25,-25 z M 37.5,6.25 C 20.242,6.25 6.25,20.242 6.25,37.5 6.25,54.758 20.242,68.75 37.5,68.75 54.758,68.75 68.75,54.758 68.75,37.5 68.75,20.242 54.758,6.25 37.5,6.25 Z M 25,37.5 C 25,30.598 30.598,25 37.5,25 44.402,25 50,30.598 50,37.5 50,44.402 44.402,50 37.5,50 30.598,50 25,44.402 25,37.5 Z M 37.5,18.75 c -10.355,0 -18.75,8.395 -18.75,18.75 0,10.355 8.395,18.75 18.75,18.75 10.355,0 18.75,-8.395 18.75,-18.75 0,-10.355 -8.395,-18.75 -18.75,-18.75 z" style="fill:currentColor;fill-opacity:1;fill-rule:nonzero;stroke:none" transform="scale(1.3333333)" /> </g>
</svg>

