<?xml version="1.0" encoding="UTF-8" standalone="no"?> <svg version="1.1" id="I41cdc1de0e434fd9838e00103ac396b020251106165302" width="100" height="100" viewBox="0 0 100 100" xmlns="http://www.w3.org/2000/svg" xmlns:svg="http://www.w3.org/2000/svg"> <defs id="I3e8c6135676d4865b7e556dbcf5e8f6920251106165302" /> <g id="I15318eabd63245d9a3723b604412bef220251106165302"> <path id="I85eb16fbe7754fbb8936134375e6312320251106165302" d="M 3.125,20.312 C 3.125,29.805 10.82,37.5 20.312,37.5 29.805,37.5 37.5,29.805 37.5,20.312 37.5,10.82 29.805,3.125 20.312,3.125 10.82,3.125 3.125,10.82 3.125,20.312 Z m 20.77,-6.707 c -0.61,-0.609 -0.61,-1.601 0,-2.21 0.609,-0.61 1.601,-0.61 2.21,0 l 4.688,4.687 c 0.609,0.609 0.609,1.602 0,2.211 l -4.688,4.687 c -0.609,0.61 -1.601,0.61 -2.21,0 -0.61,-0.609 -0.61,-1.601 0,-2.21 l 2.019,-2.02 h -6.383 c -3.883,0 -7.031,3.148 -7.031,7.031 v 0.781 c 0,0.864 -0.699,1.563 -1.562,1.563 -0.864,0 -1.563,-0.699 -1.563,-1.563 v -0.781 c 0,-5.609 4.547,-10.156 10.156,-10.156 h 6.383 z m 25.332,9.833 c 1.296,0 2.347,1.05 2.347,2.351 0,1.297 -1.051,2.348 -2.347,2.348 -1.301,0 -2.352,-1.051 -2.352,-2.348 0,-1.301 1.051,-2.351 2.352,-2.351 z m -8.602,-3.126 c 0,11.219 -9.094,20.313 -20.313,20.313 -4.027,0 -7.781,-1.172 -10.937,-3.191 v 18.035 c 0,1.961 0.555,3.789 1.516,5.34 l 21.683,-21.286 0.422,-0.382 c 2.609,-2.18 6.426,-2.176 9.027,0.015 l 0.403,0.367 21.683,21.286 c 0.961,-1.551 1.516,-3.379 1.516,-5.34 V 19.531 C 65.625,13.922 61.078,9.375 55.469,9.375 H 37.434 c 2.019,3.156 3.191,6.91 3.191,10.937 z m 8.602,-1.562 c 3.886,0 7.035,3.152 7.035,7.039 0,3.887 -3.149,7.035 -7.035,7.035 -3.887,0 -7.039,-3.148 -7.039,-7.035 0,-3.887 3.152,-7.039 7.039,-7.039 z m -13.368,24.117 0.262,-0.219 c 0.809,-0.593 1.91,-0.601 2.731,-0.023 l 0.289,0.242 21.648,21.254 c -1.547,0.953 -3.367,1.504 -5.32,1.504 H 19.531 c -1.953,0 -3.773,-0.551 -5.32,-1.504 z" style="fill:currentColor;fill-opacity:1;fill-rule:nonzero;stroke:none" transform="scale(1.3333333)" /> </g>
</svg>

