<?xml version="1.0" encoding="UTF-8" standalone="no"?> <svg version="1.1" id="I2a19cd5af81f4bbbb97f247264b63be420251110130508" width="100" height="100" viewBox="0 0 100 100" xmlns="http://www.w3.org/2000/svg" xmlns:svg="http://www.w3.org/2000/svg"> <defs id="Ic14596c45c0a446f8a9c8888675193ef20251110130508" /> <g id="Ie79b0c28df834bf88dcf85f452f2daeb20251110130508"> <path id="Ide99f088dfea401ea4454dc9f1d943bf20251110130508" d="m 48.75,11.25 c -12.426,0 -22.5,10.074 -22.5,22.5 v 3.75 c 0,4.141 -3.359,7.5 -7.5,7.5 H 9.375 C 8.34,45 7.5,44.16 7.5,43.125 7.5,42.09 8.34,41.25 9.375,41.25 h 9.375 c 2.07,0 3.75,-1.68 3.75,-3.75 V 33.75 C 22.5,19.254 34.254,7.5 48.75,7.5 h 1.875 c 1.035,0 1.875,0.84 1.875,1.875 0,1.035 -0.84,1.875 -1.875,1.875 z M 37.5,35.625 C 37.5,28.375 43.375,22.5 50.625,22.5 h 15 c 1.035,0 1.875,-0.84 1.875,-1.875 0,-1.035 -0.84,-1.875 -1.875,-1.875 h -15 c -9.32,0 -16.875,7.555 -16.875,16.875 v 3.75 c 0,7.25 -5.875,13.125 -13.125,13.125 H 9.375 C 8.34,52.5 7.5,53.34 7.5,54.375 c 0,1.035 0.84,1.875 1.875,1.875 h 11.25 c 9.32,0 16.875,-7.555 16.875,-16.875 z M 48.75,37.5 c 0,-2.25 1.5,-3.75 3.75,-3.75 H 65.625 C 66.75,33.75 67.5,33 67.5,31.875 67.5,30.75 66.75,30 65.625,30 H 52.5 C 48.375,30 45,33.375 45,37.5 v 3.75 c 0,3.375 -0.75,6.375 -1.875,9 1.125,-0.75 2.25,-1.5 3.75,-1.5 h 0.75 c 0.75,-2.25 1.125,-4.875 1.125,-7.5 z m -0.551,30.609 c 0.735,0.731 0.735,1.918 0,2.649 -0.73,0.734 -1.918,0.734 -2.648,0 l -7.5,-7.5 c -0.735,-0.731 -0.735,-1.918 0,-2.649 l 7.5,-7.5 c 0.73,-0.734 1.918,-0.734 2.648,0 0.735,0.731 0.735,1.918 0,2.649 l -4.297,4.301 h 20.946 l -4.297,-4.301 c -0.735,-0.731 -0.735,-1.918 0,-2.649 0.73,-0.734 1.918,-0.734 2.648,0 l 7.5,7.5 c 0.735,0.731 0.735,1.918 0,2.649 l -7.5,7.5 c -0.73,0.734 -1.918,0.734 -2.648,0 -0.735,-0.731 -0.735,-1.918 0,-2.649 l 4.297,-4.3 H 43.902 Z" style="fill:currentColor;fill-opacity:1;fill-rule:nonzero;stroke:none" transform="scale(1.3333333)" /> </g>
</svg>

