<?xml version="1.0" encoding="UTF-8" standalone="no"?> <svg version="1.1" id="Ib025e23966af449ba0dda51dc70f444520251106170411" width="100" height="100" viewBox="0 0 100 100" xmlns="http://www.w3.org/2000/svg" xmlns:svg="http://www.w3.org/2000/svg"> <defs id="I3dd3ff758e044f8091d85e3ddfbaeff120251106170411" /> <g id="I91def9b5eeef4889be728280637f680b20251106170411"> <path id="I5b93623e8031449388db9f0db18a2ae920251106170411" d="m 14.098,21.898 c -0.571,0.852 -1.66,1.219 -2.598,0.817 -1.105,-0.477 -1.562,-1.805 -0.902,-2.813 2.382,-3.636 5.488,-6.761 9.105,-9.172 1,-0.668 2.336,-0.222 2.817,0.879 0.41,0.938 0.05,2.028 -0.797,2.606 -3.012,2.043 -5.606,4.656 -7.625,7.683 z m -5.243,6.969 c 0.942,0.403 1.426,1.445 1.204,2.445 -0.45,1.993 -0.684,4.063 -0.684,6.188 0,2.125 0.234,4.195 0.684,6.188 0.222,1 -0.262,2.042 -1.204,2.445 C 7.754,46.605 6.477,46.02 6.203,44.848 5.648,42.488 5.355,40.027 5.355,37.5 c 0,-2.527 0.293,-4.988 0.848,-7.348 0.274,-1.172 1.551,-1.757 2.652,-1.285 z M 11.5,52.285 c 0.941,-0.402 2.027,-0.035 2.598,0.817 2.047,3.066 4.679,5.707 7.738,7.761 0.922,0.617 1.262,1.84 0.711,2.801 -0.551,0.965 -1.785,1.305 -2.711,0.695 C 16.16,61.938 13.012,58.777 10.598,55.098 9.938,54.09 10.395,52.762 11.5,52.285 Z M 43.617,69.02 c -2.437,0.429 -5.375,0.57 -8.015,0.046 -1.829,-0.363 -3.692,-1.082 -5.125,-2.418 -1.489,-1.39 -2.352,-3.312 -2.352,-5.71 0,-3.04 2.215,-5.797 5.508,-7.344 3.351,-1.578 8.031,-2.059 13.73,-0.633 3.746,0.934 6.789,2.949 9.192,5.227 1.64,-1.512 3.105,-3.219 4.347,-5.086 0.571,-0.852 1.657,-1.219 2.598,-0.817 1.105,0.477 1.562,1.805 0.902,2.813 -1.461,2.226 -3.191,4.261 -5.144,6.062 0.344,0.434 0.668,0.863 0.969,1.285 1.335,1.867 2.312,3.641 2.953,4.95 0.324,0.656 0.562,1.199 0.726,1.582 0.082,0.195 0.141,0.347 0.184,0.457 0.023,0.05 0.039,0.093 0.051,0.125 l 0.015,0.039 0.004,0.011 v 0.008 c 0.387,1.039 -0.148,2.195 -1.187,2.578 -1.043,0.383 -2.196,-0.148 -2.582,-1.187 l -0.004,-0.02 -0.035,-0.086 c -0.032,-0.078 -0.079,-0.199 -0.149,-0.363 -0.137,-0.32 -0.344,-0.793 -0.629,-1.371 -0.57,-1.164 -1.437,-2.738 -2.613,-4.387 -0.262,-0.363 -0.535,-0.726 -0.82,-1.09 -3.567,2.543 -7.676,4.375 -12.118,5.289 -0.136,0.028 -0.273,0.04 -0.406,0.04 z m 9.758,-8.301 c -1.934,-1.739 -4.258,-3.18 -6.988,-3.86 -5.016,-1.254 -8.707,-0.73 -11.043,0.371 -2.403,1.129 -3.199,2.727 -3.199,3.708 0,1.347 0.445,2.187 1.078,2.777 0.687,0.644 1.754,1.129 3.16,1.41 2.836,0.563 6.347,0.137 8.57,-0.539 0.141,-0.043 0.285,-0.07 0.43,-0.078 2.883,-0.844 5.574,-2.129 7.992,-3.789 z m 12.77,-14.586 c -0.942,-0.403 -1.426,-1.445 -1.204,-2.445 0.45,-1.993 0.684,-4.063 0.684,-6.188 0,-2.125 -0.234,-4.195 -0.684,-6.188 -0.222,-1 0.262,-2.042 1.204,-2.445 1.101,-0.472 2.378,0.113 2.656,1.285 0.551,2.36 0.844,4.821 0.844,7.348 0,2.527 -0.293,4.988 -0.844,7.348 -0.278,1.172 -1.555,1.757 -2.656,1.285 z M 63.504,22.715 c -0.945,0.402 -2.031,0.035 -2.602,-0.817 -2.019,-3.027 -4.613,-5.64 -7.625,-7.683 -0.847,-0.578 -1.207,-1.668 -0.797,-2.606 0.481,-1.101 1.817,-1.547 2.817,-0.879 3.617,2.411 6.723,5.536 9.105,9.172 0.66,1.008 0.203,2.336 -0.898,2.813 z M 46.348,8.922 c -0.41,0.937 -1.457,1.414 -2.453,1.183 -2.055,-0.476 -4.196,-0.73 -6.395,-0.73 -2.199,0 -4.34,0.254 -6.391,0.73 -1,0.231 -2.047,-0.246 -2.457,-1.183 -0.48,-1.102 0.098,-2.383 1.266,-2.664 2.43,-0.59 4.969,-0.903 7.582,-0.903 2.613,0 5.152,0.313 7.582,0.903 1.168,0.281 1.746,1.562 1.266,2.664 z" style="fill:currentColor;fill-opacity:1;fill-rule:nonzero;stroke:none" transform="scale(1.3333333)" /> </g>
</svg>

