<?xml version="1.0" encoding="UTF-8" standalone="no"?> <svg version="1.1" id="Iee0ec3fd58b64d3fb9c3efacc10d0a2b20251106123559" width="100" height="100" viewBox="0 0 100 100" xmlns="http://www.w3.org/2000/svg" xmlns:svg="http://www.w3.org/2000/svg"> <defs id="Icb6a59aaf0d94e0da2d3a7636bcbf8f020251106123559"> <linearGradient x1="11.4375" y1="18.1875" x2="12.7559" y2="21" gradientUnits="userSpaceOnUse" gradientTransform="scale(3.125)" spreadMethod="pad" id="I441603b587b3433f9232c6144eded51620251106123559"> <stop style="stop-opacity:1;stop-color:#eb4824" offset="0" id="I8454b17eddab4bd798e8f60b450f416020251106123559" /> <stop style="stop-opacity:0.98823529;stop-color:#ffcd0f" offset="1" id="I57fb332b78b643e39441ee96c215e2c720251106123559" /> </linearGradient> <linearGradient x1="17.259501" y1="16.639601" x2="4.8222699" y2="8.2516003" gradientUnits="userSpaceOnUse" gradientTransform="scale(3.125)" spreadMethod="pad" id="I0a48be7fde3e4d55a854b46450a8f01d20251106123559"> <stop style="stop-opacity:1;stop-color:#ff6f47" offset="0" id="I61b40a0b85ba486eafc2f1b01518a0fa20251106123559" /> <stop style="stop-opacity:1;stop-color:#ffcd0f" offset="1" id="Ia6ebf5c1d8ec4cfc99d7d40a29dd8a0320251106123559" /> </linearGradient> <linearGradient x1="16.296" y1="3.52492" x2="20.981001" y2="14.3563" gradientUnits="userSpaceOnUse" gradientTransform="scale(3.125)" spreadMethod="pad" id="I7b25b0ea67ff442ba8b61e92972db54e20251106123559"> <stop style="stop-opacity:1;stop-color:#9c6cfe" offset="0" id="I3f702471736d4228bbba31349be18ed320251106123559" /> <stop style="stop-opacity:1;stop-color:#9c6cfe" offset="0.125321" id="Ib35c1c0ae019467fbe62bc04fc49324020251106123559" /> <stop style="stop-opacity:1;stop-color:#5b2ab5" offset="1" id="Ib5169f950774419394336c80bca70a7020251106123559" /> </linearGradient> </defs> <g id="I26050115402e49cb8d85cd0e5959cd3c20251106123559"> <path d="m 44.531,58.594 c 0,3.883 -3.148,7.031 -7.031,7.031 -3.883,0 -7.031,-3.148 -7.031,-7.031 0,-3.883 3.148,-7.032 7.031,-7.032 3.883,0 7.031,3.149 7.031,7.032 z" transform="scale(1.3333333)" style="fill:url(#I441603b587b3433f9232c6144eded51620251106123559);stroke:none" opacity="1" id="Iddfd6b03fc904739afa013f65e758d8e20251106123559" /> <path id="I56848828b60d45a1b918b69810ea130420251106123559" d="m 20.973,20.359 c 8.945,-3.98 19.386,-0.214 23.75,8.579 l 0.304,0.656 4.024,9.039 5.308,4.59 c 0.289,0.254 0.539,0.543 0.832,1.015 l 0.184,0.36 c 0.871,1.972 -0.02,4.277 -1.992,5.152 l -32.27,14.281 c -0.5,0.219 -1.039,0.332 -1.582,0.332 -2.156,0 -3.906,-1.746 -3.906,-3.902 L 15.621,53.137 11.738,44.414 C 7.633,35.195 11.77,24.457 20.973,20.359 Z" transform="scale(1.3333333)" style="fill:url(#I0a48be7fde3e4d55a854b46450a8f01d20251106123559);stroke:none" /> <path id="I4c9a03ab98a34e03aacaf73b36ed978420251106123559" d="m 49.566,6.543 c 6.52,3.559 11.411,8.133 14.629,13.707 3.223,5.578 4.735,12.102 4.559,19.527 -0.031,1.293 -1.106,2.317 -2.399,2.289 C 65.062,42.035 64.039,40.961 64.07,39.668 64.223,33.07 62.906,27.395 60.137,22.594 57.367,17.797 53.109,13.82 47.32,10.656 46.184,10.035 45.766,8.609 46.387,7.477 47.008,6.34 48.43,5.922 49.566,6.543 Z m -0.742,11.25 c 3.024,1.648 5.446,4.047 7.238,7.156 1.793,3.11 2.661,6.403 2.579,9.844 -0.036,1.297 -1.11,2.32 -2.403,2.285 -1.293,-0.031 -2.316,-1.105 -2.285,-2.398 0.063,-2.567 -0.582,-5.016 -1.949,-7.387 -1.371,-2.371 -3.168,-4.152 -5.426,-5.383 -1.133,-0.621 -1.555,-2.043 -0.933,-3.18 0.621,-1.136 2.043,-1.554 3.179,-0.937 z" transform="scale(1.3333333)" style="fill:url(#I7b25b0ea67ff442ba8b61e92972db54e20251106123559);stroke:none" /> </g>
</svg>

