<?xml version="1.0" encoding="UTF-8" standalone="no"?> <svg version="1.1" id="If784fd5dde4d4230bb963166a792b77920251106132946" width="100" height="100" viewBox="0 0 100 100" xmlns="http://www.w3.org/2000/svg" xmlns:svg="http://www.w3.org/2000/svg"> <defs id="I5ffcabf381e54ba883d0a7e894094d3f20251106132946" /> <g id="I46f7496caa0849c8b1f52f465765093f20251106132946"> <path id="Ic9d5221f963348cfa7506c5a0bf529bf20251106132946" d="m 13.395,15.402 c 0,-5.547 4.496,-10.047 10.043,-10.047 h 28.124 c 5.547,0 10.043,4.5 10.043,10.047 V 56.25 c 0,2.219 -1.796,4.02 -4.015,4.02 H 17.449 c 0.332,3.011 2.887,5.355 5.989,5.355 h 36.16 c 1.109,0 2.007,0.898 2.007,2.008 0,1.109 -0.898,2.008 -2.007,2.008 h -36.16 c -5.547,0 -10.043,-4.496 -10.043,-10.043 z m 30.8,10.043 c 0,-3.695 -2.996,-6.695 -6.695,-6.695 -3.699,0 -6.695,3 -6.695,6.695 0,3.7 2.996,6.7 6.695,6.7 3.699,0 6.695,-3 6.695,-6.7 z m 5.36,14.399 v -0.278 c 0,-2.621 -2.129,-4.746 -4.75,-4.746 h -14.61 c -2.621,0 -4.75,2.125 -4.75,4.746 v 0.278 c 0,4.183 3.446,8.371 12.055,8.371 8.609,0 12.055,-4.203 12.055,-8.371 z" style="fill:currentColor;fill-opacity:1;fill-rule:nonzero;stroke:none" transform="scale(1.3333333)" /> </g>
</svg>

