<?xml version="1.0" encoding="UTF-8" standalone="no"?> <svg version="1.1" id="I6be20ed46e824caba6c93760ff798af420251106164749" width="100" height="100" viewBox="0 0 100 100" xmlns="http://www.w3.org/2000/svg" xmlns:svg="http://www.w3.org/2000/svg"> <defs id="I12f3f6594d3c4fd3b05ab7b94b8a151020251106164749" /> <g id="I517ed34670fd4d8082f4761bbd34e71120251106164749"> <path id="I1a359027179048038218852fbabf58cd20251106164749" d="M 13.395,16.234 C 10.699,19.293 8.57,22.863 7.188,26.785 h 14.929 c 0.071,-0.539 0.149,-1.07 0.231,-1.597 l 5.613,5.617 h -2.238 c -0.18,2.156 -0.278,4.394 -0.278,6.695 0,4.273 0.332,8.336 0.926,12.055 h 20.34 l 5.031,5.031 c -0.66,2.863 -1.48,5.496 -2.441,7.828 -0.953,2.316 -2.067,4.387 -3.324,6.098 4.804,-1.309 9.16,-3.703 12.785,-6.907 l 7.449,7.45 c 0.785,0.785 2.059,0.785 2.844,0 0.785,-0.785 0.785,-2.055 0,-2.84 L 8.785,5.945 C 8.004,5.16 6.73,5.16 5.945,5.945 5.16,6.73 5.16,8.004 5.945,8.785 Z m 6.039,-5.324 5.043,5.043 c 0.375,-1.18 0.785,-2.305 1.222,-3.367 0.953,-2.316 2.067,-4.387 3.324,-6.098 -3.464,0.942 -6.695,2.453 -9.589,4.422 z m 8.273,8.274 7.602,7.601 H 48.828 C 48.148,21.922 47.02,17.602 45.586,14.117 44.371,11.168 42.98,8.918 41.535,7.434 40.094,5.957 38.734,5.355 37.5,5.355 c -1.234,0 -2.594,0.602 -4.035,2.079 -1.445,1.484 -2.836,3.734 -4.051,6.683 -0.633,1.535 -1.203,3.235 -1.707,5.067 z M 39.328,30.805 49.48,40.957 c 0.047,-1.133 0.075,-2.289 0.075,-3.457 0,-2.301 -0.098,-4.539 -0.278,-6.695 z m 13.934,13.933 4.816,4.817 h 9.227 c 1.507,-3.723 2.34,-7.793 2.34,-12.055 0,-2.297 -0.243,-4.535 -0.7,-6.695 H 53.309 c 0.171,2.172 0.261,4.41 0.261,6.695 0,2.477 -0.105,4.898 -0.308,7.238 z m 8.832,8.832 1.996,1.996 c 0.441,-0.648 0.859,-1.312 1.254,-1.996 z M 22.305,49.555 C 21.734,45.777 21.43,41.719 21.43,37.5 c 0,-2.285 0.09,-4.523 0.261,-6.695 H 6.055 c -0.457,2.16 -0.7,4.398 -0.7,6.695 0,4.262 0.833,8.332 2.34,12.055 z M 9.656,53.57 h 13.379 c 0.692,3.262 1.59,6.239 2.664,8.844 0.953,2.316 2.067,4.387 3.324,6.098 C 20.773,66.266 13.844,60.809 9.656,53.57 Z m 38.196,0 c -0.618,2.711 -1.383,5.172 -2.266,7.313 -1.215,2.949 -2.606,5.199 -4.051,6.683 -1.441,1.477 -2.801,2.079 -4.035,2.079 -1.234,0 -2.594,-0.602 -4.035,-2.079 C 32.02,66.082 30.629,63.832 29.414,60.883 28.531,58.742 27.766,56.281 27.148,53.57 Z M 52.883,26.785 H 67.812 C 64.324,16.918 56.156,9.262 45.977,6.488 c 1.257,1.711 2.371,3.782 3.324,6.098 1.637,3.973 2.871,8.824 3.582,14.199 z" style="fill:currentColor;fill-opacity:1;fill-rule:nonzero;stroke:none" transform="scale(1.3333333)" /> </g>
</svg>

