<?xml version="1.0" encoding="UTF-8" standalone="no"?> <svg version="1.1" id="Ib2e0f22cee6e45a2a071b70571b7073120251106144520" width="100" height="100" viewBox="0 0 100 100" xmlns="http://www.w3.org/2000/svg" xmlns:svg="http://www.w3.org/2000/svg"> <defs id="Ib9497629453249b08c54032eade1483020251106144520" /> <g id="I25f24669c95d4723b84ec8e62210053320251106144520"> <path id="I49ef8b67690a436d81ccec13316bd05420251106144520" d="m 8.039,19.199 c -1.586,0.754 -2.684,2.367 -2.684,4.239 0,1.871 1.098,3.484 2.68,4.238 0.61,0.289 1.289,0.449 2.008,0.449 2.59,0 4.687,-2.098 4.687,-4.687 0,-2.59 -2.097,-4.688 -4.687,-4.688 -0.715,0 -1.398,0.16 -2.004,0.449 z m 0.449,-2.961 c 0.5,-0.109 1.024,-0.168 1.555,-0.168 4.07,0 7.367,3.301 7.367,7.368 0,4.066 -3.297,7.367 -7.367,7.367 -0.695,0 -1.367,-0.098 -2.008,-0.278 v 25.055 c 0,6.285 5.098,11.383 11.383,11.383 H 38.84 c -2.524,-3.36 -4.02,-7.531 -4.02,-12.055 0,-3.937 1.133,-7.613 3.094,-10.715 H 26.117 c -1.109,0 -2.012,-0.898 -2.012,-2.007 0,-1.11 0.903,-2.008 2.012,-2.008 h 15.137 c 3.582,-3.325 8.383,-5.36 13.656,-5.36 4.524,0 8.695,1.496 12.055,4.02 V 19.418 C 66.965,13.133 61.867,8.035 55.582,8.035 H 19.418 c -5.18,0 -9.555,3.465 -10.93,8.203 z m 17.629,13.227 h 22.766 c 1.109,0 2.012,0.898 2.012,2.008 0,1.109 -0.903,2.007 -2.012,2.007 H 26.117 c -1.109,0 -2.012,-0.898 -2.012,-2.007 0,-1.11 0.903,-2.008 2.012,-2.008 z M 72.32,54.91 c 0,9.617 -7.793,17.41 -17.41,17.41 -9.617,0 -17.41,-7.793 -17.41,-17.41 0,-9.617 7.793,-17.41 17.41,-17.41 9.617,0 17.41,7.793 17.41,17.41 z m -24.5,-8.98 c -0.519,-0.524 -1.371,-0.524 -1.89,0 -0.524,0.519 -0.524,1.371 0,1.89 L 53.016,54.91 45.93,62 c -0.524,0.523 -0.524,1.371 0,1.895 0.519,0.523 1.371,0.523 1.89,0 l 7.09,-7.09 7.09,7.09 c 0.523,0.523 1.371,0.523 1.895,0 0.523,-0.524 0.523,-1.372 0,-1.895 l -7.09,-7.09 7.09,-7.09 c 0.523,-0.519 0.523,-1.371 0,-1.89 -0.524,-0.524 -1.372,-0.524 -1.895,0 l -7.09,7.086 z" style="fill:currentColor;fill-opacity:1;fill-rule:nonzero;stroke:none" transform="scale(1.3333333)" /> </g>
</svg>

