<?xml version="1.0" encoding="UTF-8" standalone="no"?> <svg version="1.1" id="Ie45f734803eb4c2fab62874e37e101a620251110130509" width="100" height="100" viewBox="0 0 100 100" xmlns="http://www.w3.org/2000/svg" xmlns:svg="http://www.w3.org/2000/svg"> <defs id="Ie63941236c274febb2ac3c7bbbee5bf720251110130509" /> <g id="I355adb2a95874782a636d11f44fbdf5820251110130509"> <path id="Id2af7d34af5a4c009a87226955bbc60c20251110130509" d="m 14.062,11.719 c 0,-1.293 -1.05,-2.344 -2.343,-2.344 -1.293,0 -2.344,1.051 -2.344,2.344 v 51.562 c 0,1.293 1.051,2.344 2.344,2.344 1.293,0 2.343,-1.051 2.343,-2.344 z m 12.5,0 c 0,-1.293 1.051,-2.344 2.344,-2.344 h 26.563 c 5.609,0 10.156,4.547 10.156,10.156 v 35.938 c 0,5.609 -4.547,10.156 -10.156,10.156 H 28.906 c -1.293,0 -2.344,-1.051 -2.344,-2.344 V 49.945 c 1.54,0.219 3.161,-0.211 4.415,-1.328 1.425,-1.265 2.031,-3.109 1.781,-4.867 H 43.75 V 31.25 H 32.758 c 0.25,-1.758 -0.356,-3.602 -1.781,-4.867 -1.254,-1.117 -2.875,-1.547 -4.415,-1.328 z m 4.688,49.219 h 12.5 v -12.5 h -12.5 z m 17.188,-12.5 v 12.5 h 7.031 c 3.019,0 5.469,-2.45 5.469,-5.469 v -7.031 z m 12.5,-17.188 h -12.5 v 12.5 h 12.5 z m 0,-4.688 v -7.031 c 0,-3.019 -2.45,-5.469 -5.469,-5.469 h -7.031 v 12.5 z M 31.25,14.062 v 12.5 h 12.5 v -12.5 z m -2.348,14.657 c 0.965,0.859 1.055,2.34 0.192,3.308 l -2.782,3.129 h 8.844 c 1.293,0 2.344,1.051 2.344,2.344 0,1.293 -1.051,2.344 -2.344,2.344 h -8.844 l 2.782,3.129 c 0.863,0.968 0.773,2.449 -0.192,3.308 -0.968,0.864 -2.449,0.774 -3.308,-0.191 l -6.25,-7.031 c -0.793,-0.891 -0.793,-2.227 0,-3.118 l 6.25,-7.031 c 0.859,-0.965 2.34,-1.055 3.308,-0.191 z" style="fill:currentColor;fill-opacity:1;fill-rule:nonzero;stroke:none" transform="scale(1.3333333)" /> </g>
</svg>

