<?xml version="1.0" encoding="UTF-8" standalone="no"?> <svg version="1.1" id="Iaf576b598bec4b8e868791b97beab27a20251106152729" width="100" height="100" viewBox="0 0 100 100" xmlns="http://www.w3.org/2000/svg" xmlns:svg="http://www.w3.org/2000/svg"> <defs id="I2f254a1dd5424534adfdb5b2e95c64de20251106152729" /> <g id="Ia16722e7dc4f4e119b07172838948afd20251106152729"> <path id="I60337fdc09ad45b1aee03da67462d61d20251106152729" d="m 16.406,15.625 c -5.609,0 -10.156,4.547 -10.156,10.156 v 23.438 c 0,5.609 4.547,10.156 10.156,10.156 h 24.559 c 0.555,-1.922 1.762,-3.566 3.359,-4.687 H 16.406 c -3.019,0 -5.468,-2.45 -5.468,-5.469 V 34.375 H 68.75 v -8.594 c 0,-5.609 -4.547,-10.156 -10.156,-10.156 z m 47.656,10.156 v 3.907 H 10.938 v -3.907 c 0,-3.019 2.449,-5.469 5.468,-5.469 h 42.188 c 3.019,0 5.468,2.45 5.468,5.469 z m 1.563,19.531 c 0,4.317 -3.496,7.813 -7.813,7.813 -4.316,0 -7.812,-3.496 -7.812,-7.813 0,-4.316 3.496,-7.812 7.812,-7.812 4.317,0 7.813,3.496 7.813,7.812 z m 6.25,16.797 c 0,4.864 -4.02,9.766 -14.063,9.766 -10.042,0 -14.062,-4.883 -14.062,-9.766 v -0.32 c 0,-3.062 2.48,-5.539 5.539,-5.539 h 17.047 c 3.059,0 5.539,2.477 5.539,5.539 z" style="fill:currentColor;fill-opacity:1;fill-rule:nonzero;stroke:none" transform="scale(1.3333333)" /> </g>
</svg>

