<?xml version="1.0" encoding="UTF-8" standalone="no"?> <svg version="1.1" id="I61d55a58e3134cea8188f1204f83faa420251106170956" width="100" height="100" viewBox="0 0 100 100" xmlns="http://www.w3.org/2000/svg" xmlns:svg="http://www.w3.org/2000/svg"> <defs id="I1e6bb42d668848a3a882a5c4721c0c2420251106170956" /> <g id="Ia7fa660b16604f7fb1e0c83204405bdb20251106170956"> <path id="I078a5318d07248cca8df4ae41d72669220251106170956" d="M 71.875,20.312 C 71.875,29.805 64.18,37.5 54.688,37.5 45.195,37.5 37.5,29.805 37.5,20.312 37.5,10.82 45.195,3.125 54.688,3.125 c 9.492,0 17.187,7.695 17.187,17.187 z M 54.688,9.375 c -0.864,0 -1.563,0.699 -1.563,1.563 v 12.5 c 0,0.863 0.699,1.562 1.563,1.562 0.863,0 1.562,-0.699 1.562,-1.562 v -12.5 c 0,-0.864 -0.699,-1.563 -1.562,-1.563 z m 0,22.266 c 1.078,0 1.953,-0.875 1.953,-1.953 0,-1.079 -0.875,-1.954 -1.953,-1.954 -1.079,0 -1.954,0.875 -1.954,1.954 0,1.078 0.875,1.953 1.954,1.953 z m 0,8.984 c 5.457,0 10.414,-2.152 14.062,-5.656 v 17.375 c 0,5.414 -4.238,9.84 -9.578,10.14 L 58.594,62.5 H 16.406 c -5.414,0 -9.84,-4.238 -10.14,-9.578 L 6.25,52.344 V 26.898 l 30.164,15.805 c 0.68,0.356 1.492,0.356 2.172,0 l 7.555,-3.957 c 2.597,1.207 5.492,1.879 8.547,1.879 z M 16.406,12.5 h 19.528 c -1.004,2.406 -1.559,5.043 -1.559,7.812 0,6.227 2.801,11.801 7.215,15.524 L 37.5,37.98 6.301,21.637 c 0.492,-4.942 4.523,-8.84 9.523,-9.121 z" style="fill:currentColor;fill-opacity:1;fill-rule:nonzero;stroke:none" transform="scale(1.3333333)" /> </g>
</svg>

