<?xml version="1.0" encoding="UTF-8" standalone="no"?> <svg version="1.1" id="I3f9201e56dbf4b9b908f2e9ac9ef134220251110130507" width="100" height="100" viewBox="0 0 100 100" xmlns="http://www.w3.org/2000/svg" xmlns:svg="http://www.w3.org/2000/svg"> <defs id="I0a84c0e5d80b43009d142f9af2d802b520251110130507" /> <g id="I05a46d1730df4cf38e9398f67621eab620251110130507"> <path id="I85b365bd98124eb18d123f3ab0e40c0620251110130507" d="m 22.5,11.25 c -6.215,0 -11.25,5.035 -11.25,11.25 v 30 c 0,6.215 5.035,11.25 11.25,11.25 H 36 c -1.438,-2.812 -2.25,-6 -2.25,-9.375 0,-11.391 9.234,-20.625 20.625,-20.625 3.375,0 6.563,0.812 9.375,2.25 V 22.5 c 0,-6.215 -5.035,-11.25 -11.25,-11.25 z m 31.875,60 c 9.32,0 16.875,-7.555 16.875,-16.875 0,-9.32 -7.555,-16.875 -16.875,-16.875 -9.32,0 -16.875,7.555 -16.875,16.875 0,9.32 7.555,16.875 16.875,16.875 z m 6.949,-23.824 c 0.735,0.73 0.735,1.918 0,2.648 l -4.297,4.301 4.297,4.301 c 0.735,0.73 0.735,1.918 0,2.648 -0.73,0.735 -1.918,0.735 -2.648,0 l -4.301,-4.297 -4.301,4.297 c -0.73,0.735 -1.918,0.735 -2.648,0 -0.735,-0.73 -0.735,-1.918 0,-2.648 l 4.297,-4.301 -4.297,-4.301 c -0.735,-0.73 -0.735,-1.918 0,-2.648 0.73,-0.735 1.918,-0.735 2.648,0 l 4.301,4.297 4.301,-4.297 c 0.73,-0.735 1.918,-0.735 2.648,0 z" style="fill:currentColor;fill-opacity:1;fill-rule:nonzero;stroke:none" transform="scale(1.3333333)" /> </g>
</svg>

