<?xml version="1.0" encoding="UTF-8" standalone="no"?> <svg version="1.1" id="I2a882d7ccf884de49cd669eaeaf7078e20251106170955" width="100" height="100" viewBox="0 0 100 100" xmlns="http://www.w3.org/2000/svg" xmlns:svg="http://www.w3.org/2000/svg"> <defs id="Ice3d042a8f484edeb3b939f74d55857c20251106170955" /> <g id="I1466a7eca8ec415abdc5ccd8979b288b20251106170955"> <path id="Ibcdcd29873924713bcf21d0d0613dfa020251106170955" d="M 10.25,6.938 C 9.336,6.02 7.852,6.02 6.938,6.938 6.02,7.852 6.02,9.336 6.938,10.25 l 6.871,6.871 C 3.223,29.398 3.758,47.949 15.402,59.598 c 0.914,0.914 2.399,0.914 3.317,0 0.914,-0.914 0.914,-2.399 0,-3.317 C 8.902,46.469 8.375,30.883 17.133,20.445 L 22.688,26 c -5.727,7.359 -5.208,17.996 1.554,24.758 0.914,0.914 2.399,0.914 3.313,0 0.918,-0.914 0.918,-2.399 0,-3.313 -4.926,-4.929 -5.434,-12.601 -1.52,-18.093 l 6.938,6.933 c -0.106,0.387 -0.161,0.797 -0.161,1.215 0,2.59 2.098,4.688 4.688,4.688 0.418,0 0.828,-0.055 1.215,-0.161 L 64.75,68.062 c 0.914,0.918 2.398,0.918 3.312,0 0.915,-0.914 0.915,-2.398 0,-3.312 z m 50.34,43.707 3.418,3.417 C 71.562,42 70.09,25.898 59.598,15.402 c -0.914,-0.914 -2.399,-0.914 -3.317,0 -0.914,0.914 -0.914,2.399 0,3.317 8.653,8.652 10.09,21.789 4.309,31.926 z m -9.504,-9.504 3.68,3.683 c 2.894,-6.828 1.558,-15.019 -4.008,-20.582 -0.914,-0.914 -2.399,-0.914 -3.313,0 -0.918,0.914 -0.918,2.399 0,3.313 3.68,3.683 4.895,8.894 3.641,13.586 z" style="fill:currentColor;fill-opacity:1;fill-rule:nonzero;stroke:none" transform="scale(1.3333333)" /> </g>
</svg>

