<?xml version="1.0" encoding="UTF-8" standalone="no"?> <svg version="1.1" id="I45397fef53b44bb899c66d2048021f5820251106144521" width="100" height="100" viewBox="0 0 100 100" xmlns="http://www.w3.org/2000/svg" xmlns:svg="http://www.w3.org/2000/svg"> <defs id="I898d44a86f9743b69790ec2f39457c1720251106144521" /> <g id="Ife674f40f60d4d258bc9c1f196f04f2a20251106144521"> <path id="I19b651e418774df7b98ad2e3c7e596b020251106144521" d="m 23.438,18.75 c 6.039,0 10.937,4.898 10.937,10.938 0,3.062 -1.258,5.828 -3.285,7.812 h 1.722 c 2.59,0 4.688,2.098 4.688,4.688 0,2.589 -2.098,4.687 -4.688,4.687 H 31.66 c 1.184,5.598 4.676,9.363 6.676,11.117 1.305,1.149 2.289,2.867 2.289,4.852 0,3.261 -2.645,5.906 -5.906,5.906 H 12.156 c -3.261,0 -5.906,-2.645 -5.906,-5.906 0,-1.985 0.984,-3.703 2.289,-4.852 2,-1.754 5.492,-5.519 6.676,-11.117 h -1.153 c -2.589,0 -4.687,-2.098 -4.687,-4.687 0,-2.59 2.098,-4.688 4.687,-4.688 h 1.723 C 13.758,35.516 12.5,32.75 12.5,29.688 12.5,23.648 17.398,18.75 23.438,18.75 Z M 40.625,6.25 c 1.727,0 3.125,1.398 3.125,3.125 v 3.906 c 0,1.293 1.051,2.344 2.344,2.344 1.293,0 2.344,-1.051 2.344,-2.344 V 9.375 c 0,-1.727 1.398,-3.125 3.124,-3.125 1.727,0 3.126,1.398 3.126,3.125 v 3.906 c 0,1.293 1.05,2.344 2.343,2.344 1.293,0 2.344,-1.051 2.344,-2.344 V 9.375 c 0,-1.727 1.398,-3.125 3.125,-3.125 h 0.781 c 1.293,0 2.344,1.051 2.344,2.344 v 13.281 c 0,3.453 -2.797,6.25 -6.25,6.25 h -0.687 c 0.812,17.043 6.757,27.27 8.832,30.352 0.738,1.093 1.23,2.433 1.23,3.894 0,3.524 -2.855,6.379 -6.379,6.379 H 41.539 c 1.375,-1.582 2.211,-3.645 2.211,-5.906 0,-3.039 -1.5,-5.571 -3.355,-7.199 -0.583,-0.512 -1.293,-1.207 -2.02,-2.079 2.492,-5.16 5.5,-13.675 6.063,-25.441 H 43.75 c -3.453,0 -6.25,-2.797 -6.25,-6.25 V 8.594 c 0,-1.293 1.051,-2.344 2.344,-2.344 z" style="fill:currentColor;fill-opacity:1;fill-rule:nonzero;stroke:none" transform="scale(1.3333333)" /> </g>
</svg>

