<?xml version="1.0" encoding="UTF-8" standalone="no"?> <svg version="1.1" id="I7f3f6d0e80044f4d8c3bd70ea73f609620251106152728" width="100" height="100" viewBox="0 0 100 100" xmlns="http://www.w3.org/2000/svg" xmlns:svg="http://www.w3.org/2000/svg"> <defs id="I3eecead2c2124f30abfa192e131f4e1e20251106152728" /> <g id="Ifae059dd45034b9ea3ed527c6bbc07a620251106152728"> <path id="Idb8078b227a24cab82630893e3fe96b120251106152728" d="m 6.25,46.094 c 0,5.609 4.547,10.156 10.156,10.156 h 2.34 l 0.004,8.594 c 0,0.844 0.273,1.664 0.777,2.34 1.293,1.726 3.743,2.078 5.469,0.789 l 6.641,-4.969 1.238,-4.953 c 0.223,-0.891 0.551,-1.75 0.977,-2.559 L 23.438,63.281 23.434,51.562 h -7.028 c -3.019,0 -5.468,-2.449 -5.468,-5.468 V 19.531 c 0,-3.019 2.449,-5.469 5.468,-5.469 h 42.188 c 3.019,0 5.468,2.45 5.468,5.469 v 12.016 c 1.711,0.418 3.336,1.281 4.688,2.594 V 19.531 C 68.75,13.922 64.203,9.375 58.594,9.375 H 16.406 C 10.797,9.375 6.25,13.922 6.25,19.531 Z M 56.555,36.469 38.109,54.914 c -1.074,1.074 -1.836,2.422 -2.207,3.898 l -1.429,5.719 c -0.621,2.489 1.632,4.742 4.121,4.121 l 5.718,-1.433 c 1.477,-0.367 2.825,-1.129 3.899,-2.207 L 66.656,46.57 c 2.789,-2.793 2.789,-7.312 0,-10.101 -2.789,-2.793 -7.312,-2.793 -10.101,0 z" style="fill:currentColor;fill-opacity:1;fill-rule:nonzero;stroke:none" transform="scale(1.3333333)" /> </g>
</svg>

