<?xml version="1.0" encoding="UTF-8" standalone="no"?> <svg version="1.1" id="I401c2b5b1d0c4c1c9471c43d2059bb1420251106143239" width="100" height="100" viewBox="0 0 100 100" xmlns="http://www.w3.org/2000/svg" xmlns:svg="http://www.w3.org/2000/svg"> <defs id="Iee46b03b79bd46dcb3907171069b45cf20251106143239" /> <g id="I73208916da5a4320987ec077737aaefd20251106143239"> <path id="Idd655d757c344bc696d2865098e528a320251106143239" d="m 65.375,32.426 c 2.211,-2.395 3.598,-5.457 3.664,-8.488 0.066,-3.11 -1.266,-6.122 -4.312,-8.067 C 59.465,12.516 50.934,9.375 37.5,9.375 c -13.434,0 -21.961,3.141 -27.227,6.496 -3.043,1.945 -4.378,4.957 -4.308,8.067 0.066,3.031 1.449,6.093 3.664,8.488 1.457,1.574 3.582,2.351 5.711,2.086 l 4.707,-0.59 c 3.015,-0.379 5.492,-2.57 6.23,-5.524 l 1.207,-4.824 c 0.246,-0.988 0.817,-1.547 1.395,-1.699 2.207,-0.586 5.359,-0.91 8.609,-0.914 3.246,-0.004 6.407,0.312 8.633,0.91 0.578,0.152 1.149,0.711 1.399,1.703 l 1.203,4.824 c 0.738,2.954 3.215,5.145 6.234,5.524 l 4.703,0.59 C 61.789,34.777 63.918,34 65.375,32.426 Z M 54.91,52.23 c 0,9.618 -7.793,17.415 -17.41,17.415 -9.613,0 -17.41,-7.797 -17.41,-17.415 0,-9.613 7.797,-17.41 17.41,-17.41 9.617,0 17.41,7.797 17.41,17.41 z m -4.015,0 c 0,-2.972 -0.969,-5.718 -2.61,-7.941 L 29.559,63.016 c 2.222,1.64 4.968,2.609 7.941,2.609 7.398,0 13.395,-5.996 13.395,-13.395 z M 45.445,41.449 C 43.223,39.809 40.473,38.84 37.5,38.84 c -7.395,0 -13.391,5.996 -13.391,13.39 0,2.977 0.969,5.723 2.606,7.946 z M 26.277,28.398 24.328,27.91 Z" style="fill:currentColor;fill-opacity:1;fill-rule:nonzero;stroke:none" transform="scale(1.3333333)" /> </g>
</svg>

