<?xml version="1.0" encoding="UTF-8" standalone="no"?> <svg version="1.1" id="I16ad44c1ac3745ddad5ed9d4348e29a320251106163938" width="100" height="100" viewBox="0 0 100 100" xmlns="http://www.w3.org/2000/svg" xmlns:svg="http://www.w3.org/2000/svg"> <defs id="I0ae715ba1e924da8bedafd063e0b120220251106163938" /> <g id="I1b59f104b2d34788a5d85f07c3b17d2820251106163938"> <path id="I759bd3e580c24f3bac241e48e8d7ed7720251106163938" d="m 16.875,11.25 c -5.176,0 -9.375,4.199 -9.375,9.375 v 33.75 c 0,5.176 4.199,9.375 9.375,9.375 H 41.57 c 0.246,-0.699 0.629,-1.332 1.114,-1.875 C 42.199,61.332 41.816,60.699 41.57,60 H 16.875 C 13.77,60 11.25,57.48 11.25,54.375 V 30 h 15.32 c 1.492,0 2.926,-0.594 3.981,-1.648 L 36.402,22.5 h 21.723 c 3.105,0 5.625,2.52 5.625,5.625 V 45 H 67.5 V 28.125 c 0,-5.176 -4.199,-9.375 -9.375,-9.375 H 36.402 L 30.824,13.172 C 29.594,11.941 27.926,11.25 26.184,11.25 Z M 11.25,20.625 C 11.25,17.52 13.77,15 16.875,15 h 9.309 c 0.746,0 1.461,0.297 1.988,0.824 l 4.801,4.801 -5.075,5.074 C 27.547,26.051 27.07,26.25 26.57,26.25 H 11.25 Z M 46.875,48.75 C 45.84,48.75 45,49.59 45,50.625 45,51.66 45.84,52.5 46.875,52.5 h 22.5 c 1.035,0 1.875,-0.84 1.875,-1.875 0,-1.035 -0.84,-1.875 -1.875,-1.875 z m 0,7.5 C 45.84,56.25 45,57.09 45,58.125 45,59.16 45.84,60 46.875,60 h 22.5 c 1.035,0 1.875,-0.84 1.875,-1.875 0,-1.035 -0.84,-1.875 -1.875,-1.875 z M 45,65.625 c 0,-1.035 0.84,-1.875 1.875,-1.875 h 22.5 c 1.035,0 1.875,0.84 1.875,1.875 0,1.035 -0.84,1.875 -1.875,1.875 h -22.5 C 45.84,67.5 45,66.66 45,65.625 Z" style="fill:currentColor;fill-opacity:1;fill-rule:nonzero;stroke:none" transform="scale(1.3333333)" /> </g>
</svg>

