<?xml version="1.0" encoding="UTF-8" standalone="no"?> <svg version="1.1" id="If534d7e79ce44dbfb2b06a13f4b57c2620251110133655" width="100" height="100" viewBox="0 0 100 100" xmlns="http://www.w3.org/2000/svg" xmlns:svg="http://www.w3.org/2000/svg"> <defs id="I389052e24eea4aa0b11102c55ee58e3c20251110133655" /> <g id="I73260a29981b4f0681055ba5ee363fc520251110133655"> <path id="I055ed30abd2b49eabb3f5af907d4f73220251110133655" d="m 14.066,17.578 c 0,-5.824 4.719,-10.547 10.547,-10.547 H 59.77 c 5.824,0 10.546,4.723 10.546,10.547 v 23.438 c 0,5.824 -4.722,10.546 -10.546,10.546 H 44.98 C 43.574,48.477 40.586,46.477 37.5,45.887 v -3.699 c 0,-3.883 3.148,-7.032 7.031,-7.032 H 56.25 c 3.883,0 7.031,3.149 7.031,7.032 v 3.519 c 1.426,-1.07 2.348,-2.773 2.348,-4.691 V 17.578 c 0,-3.234 -2.625,-5.859 -5.859,-5.859 H 24.613 c -3.238,0 -5.859,2.625 -5.859,5.859 v 0.734 c -1.719,0.555 -3.301,1.407 -4.688,2.493 z M 56.25,39.844 H 44.531 c -1.293,0 -2.343,1.051 -2.343,2.344 v 4.687 h 16.406 v -4.687 c 0,-1.293 -1.051,-2.344 -2.344,-2.344 z M 40.816,51.562 c 0.993,1.137 1.582,2.641 1.469,4.391 -0.316,4.859 -2.148,8.625 -5.633,11.082 -3.355,2.367 -7.914,3.277 -13.214,3.277 -5.27,0 -9.743,-0.898 -13.047,-3.25 C 6.973,64.633 5.172,60.926 4.727,56.168 4.344,52.07 7.852,49.219 11.422,49.219 h 24.18 c 0.246,0 0.492,0.011 0.734,0.039 1.711,0.187 3.352,1.012 4.48,2.304 z m -29.394,2.344 c -1.371,0 -2.102,1.008 -2.027,1.828 0.351,3.758 1.671,6.059 3.71,7.508 2.153,1.531 5.473,2.383 10.333,2.383 4.886,0 8.304,-0.863 10.515,-2.422 2.082,-1.469 3.41,-3.789 3.656,-7.555 0.051,-0.781 -0.664,-1.742 -2.007,-1.742 z M 58.594,24.609 c 0,4.532 -3.672,8.203 -8.203,8.203 -4.532,0 -8.203,-3.671 -8.203,-8.203 0,-4.531 3.671,-8.203 8.203,-8.203 4.531,0 8.203,3.672 8.203,8.203 z m -4.688,0 c 0,-1.941 -1.574,-3.515 -3.515,-3.515 -1.942,0 -3.516,1.574 -3.516,3.515 0,1.942 1.574,3.516 3.516,3.516 1.941,0 3.515,-1.574 3.515,-3.516 z m -18.75,8.203 c 0,6.473 -5.246,11.719 -11.718,11.719 -6.473,0 -11.719,-5.246 -11.719,-11.719 0,-6.472 5.246,-11.718 11.719,-11.718 6.472,0 11.718,5.246 11.718,11.718 z m -4.687,0 c 0,-3.882 -3.149,-7.031 -7.031,-7.031 -3.883,0 -7.032,3.149 -7.032,7.031 0,3.883 3.149,7.032 7.032,7.032 3.882,0 7.031,-3.149 7.031,-7.032 z" style="fill:currentColor;fill-opacity:1;fill-rule:nonzero;stroke:none" transform="scale(1.3333333)" /> </g>
</svg>

