<?xml version="1.0" encoding="UTF-8" standalone="no"?> <svg version="1.1" id="I623543d0899d4182b8c23aa5bc3149de20251106165301" width="100" height="100" viewBox="0 0 100 100" xmlns="http://www.w3.org/2000/svg" xmlns:svg="http://www.w3.org/2000/svg"> <defs id="I816c7bb6823c4cf78c8b4438a93f820f20251106165301" /> <g id="I6b850003f0d145e78069db9a397ca8ee20251106165301"> <path id="I1635359b7d5642cea60aec853e7a307e20251106165301" d="m 41.27,9.371 c -2.204,-1.769 -5.336,-1.769 -7.54,0 L 12.969,26.02 c -1.426,1.144 -2.254,2.875 -2.254,4.703 v 30.215 c 0,3.328 2.699,6.027 6.027,6.027 h 6.696 c 3.328,0 6.027,-2.699 6.027,-6.027 V 46.207 c 0,-1.852 1.5,-3.352 3.347,-3.352 h 9.376 c 1.847,0 3.347,1.5 3.347,3.352 v 14.731 c 0,3.328 2.699,6.027 6.027,6.027 h 6.696 c 3.328,0 6.027,-2.699 6.027,-6.027 V 30.723 c 0,-1.828 -0.828,-3.559 -2.254,-4.703 z" style="fill:currentColor;fill-opacity:1;fill-rule:nonzero;stroke:none" transform="scale(1.3333333)" /> </g>
</svg>

