<?xml version="1.0" encoding="UTF-8" standalone="no"?> <svg version="1.1" id="Ife34d324236142c3969fa52a36db9e6c20251106164749" width="100" height="100" viewBox="0 0 100 100" xmlns="http://www.w3.org/2000/svg" xmlns:svg="http://www.w3.org/2000/svg"> <defs id="I78e650655bb54d4a9f77be6ad32db66220251106164749" /> <g id="I2f17b9b892a1427f82ac22500c4563a120251106164749"> <path id="I415aaf9181d142e8b238bcb49dfa1efa20251106164749" d="m 27.824,51.566 h 11.309 c -0.047,0.512 -0.071,1.032 -0.071,1.559 0,3.754 1.426,7.379 3.977,10.898 -1.691,2.997 -3.617,4.723 -5.539,4.723 -3.742,0 -7.5,-6.543 -9.492,-16.262 z m -0.719,-4.687 h 13.129 c 1.536,-3.934 4.477,-7.164 8.207,-9.07 V 37.5 c 0,-2.141 -0.082,-4.23 -0.238,-6.25 H 26.797 l -0.102,1.527 c -0.09,1.539 -0.136,3.118 -0.136,4.723 0,3.273 0.195,6.422 0.546,9.379 z M 56.25,35.938 c 4.82,0 9.176,1.984 12.297,5.179 0.137,-1.187 0.207,-2.39 0.207,-3.617 0,-2.141 -0.215,-4.23 -0.625,-6.25 l -15.219,0.004 0.121,2.047 c 0.047,0.965 0.074,1.937 0.09,2.922 1.016,-0.188 2.059,-0.285 3.129,-0.285 z M 9.582,51.566 H 23.035 C 24.176,58.07 26.109,63.609 28.637,67.48 20.629,65.117 13.961,59.633 10.039,52.438 Z M 6.871,31.25 22.09,31.254 c -0.145,2.031 -0.219,4.117 -0.219,6.246 0,2.594 0.109,5.125 0.324,7.566 l 0.176,1.813 H 7.676 C 6.746,43.918 6.246,40.77 6.246,37.5 c 0,-2.141 0.215,-4.23 0.625,-6.25 z M 46.703,8.055 46.363,7.52 c 9.434,2.785 17.008,9.902 20.426,19.042 H 52.441 C 51.453,19.012 49.453,12.523 46.703,8.055 Z M 28.254,7.637 28.637,7.523 C 25.883,11.738 23.84,17.926 22.75,25.188 l -0.191,1.374 H 8.215 C 11.582,17.543 19,10.496 28.254,7.637 Z M 37.5,6.258 c 4.121,0 8.27,7.941 10.043,19.32 l 0.148,0.984 H 27.309 C 28.996,14.66 33.262,6.258 37.5,6.258 Z m 32.812,46.867 c 0,-7.766 -6.296,-14.063 -14.062,-14.063 -7.766,0 -14.062,6.297 -14.062,14.063 0,5.82 4.437,11.922 13.124,18.437 0.555,0.418 1.321,0.418 1.876,0 8.687,-6.515 13.124,-12.617 13.124,-18.437 z m -18.75,0 c 0,-2.59 2.098,-4.687 4.688,-4.687 2.59,0 4.688,2.097 4.688,4.687 0,2.59 -2.098,4.687 -4.688,4.687 -2.59,0 -4.688,-2.097 -4.688,-4.687 z" style="fill:currentColor;fill-opacity:1;fill-rule:nonzero;stroke:none" transform="scale(1.3333333)" /> </g>
</svg>

