<?xml version="1.0" encoding="UTF-8" standalone="no"?> <svg version="1.1" id="Iab145c9c19134f8f9f2dc48c6263b54e20251106113050" width="100" height="100" viewBox="0 0 100 100" xmlns="http://www.w3.org/2000/svg" xmlns:svg="http://www.w3.org/2000/svg"> <defs id="Id82f295659704373aafaccecd970e3b820251106113050" /> <g id="I25aa3d6dbb0c4c62b77a44efe7395c7a20251106113050"> <path id="I4db5c47b5f1e4d7d94566dca82d917b620251106113050" d="m 24.777,10.043 h -0.672 c 0.372,0 0.672,-0.301 0.672,-0.668 v 0.668 H 50.223 V 9.375 c 0,0.367 0.3,0.668 0.672,0.668 H 50.223 V 16.07 H 56.25 V 9.375 C 56.25,6.422 53.848,4.02 50.895,4.02 h -26.79 c -2.953,0 -5.355,2.402 -5.355,5.355 v 6.695 h 6.027 z M 66.965,16.07 H 8.035 c -1.48,0 -2.68,1.2 -2.68,2.68 v 2.68 c 0,0.367 0.305,0.668 0.672,0.668 h 5.055 l 2.066,43.777 c 0.137,2.855 2.497,5.105 5.352,5.105 h 38 c 2.863,0 5.215,-2.242 5.352,-5.105 l 2.066,-43.777 h 5.055 c 0.367,0 0.672,-0.301 0.672,-0.668 v -2.68 c 0,-1.48 -1.2,-2.68 -2.68,-2.68 z M 55.855,64.957 H 19.145 L 17.117,22.098 h 40.766 z" style="fill:currentColor;fill-opacity:1;fill-rule:nonzero;stroke:none" transform="scale(1.3333333)" /> </g>
</svg>

