<?xml version="1.0" encoding="UTF-8" standalone="no"?> <svg version="1.1" id="I4e5f068539c64751abd386964f711e4420251106123600" width="100" height="100" viewBox="0 0 100 100" xmlns="http://www.w3.org/2000/svg" xmlns:svg="http://www.w3.org/2000/svg"> <defs id="Ie43d492a7f454e0a97e02bcb9f8c135420251106123600" /> <g id="I386280c51eec4c38969124ab2163e5b020251106123600"> <path id="I47653e178c5947b29a3efee937c2d4d020251106123600" d="m 55.824,7.113 c -2.355,-2.355 -6.168,-2.355 -8.523,0 L 36.16,18.254 V 16.75 c 0,-3.328 -2.699,-6.023 -6.027,-6.023 h -18.75 c -3.328,0 -6.028,2.695 -6.028,6.023 v 48.215 c 0,2.59 2.102,4.687 4.688,4.687 h 48.215 c 3.328,0 6.027,-2.695 6.027,-6.027 V 44.867 c 0,-3.328 -2.699,-6.027 -6.027,-6.027 H 56.77 L 67.898,27.711 c 2.356,-2.356 2.356,-6.172 0,-8.523 z M 46.355,38.84 H 36.16 V 28.645 Z M 50.141,9.953 c 0.785,-0.785 2.058,-0.785 2.843,0 l 12.075,12.074 c 0.785,0.785 0.785,2.059 0,2.84 L 52.984,36.945 c -0.785,0.782 -2.058,0.782 -2.843,0 L 38.066,24.867 c -0.785,-0.781 -0.785,-2.055 0,-2.84 z M 32.145,16.75 V 38.84 H 9.375 V 16.75 c 0,-1.109 0.898,-2.008 2.008,-2.008 h 18.75 c 1.109,0 2.012,0.899 2.012,2.008 z M 9.375,63.625 v -20.77 h 22.77 V 65.637 H 11.383 c -1.11,0 -2.008,-0.903 -2.008,-2.012 z M 36.16,42.855 h 22.098 c 1.109,0 2.012,0.903 2.012,2.012 v 18.758 c 0,1.109 -0.903,2.012 -2.012,2.012 H 36.16 Z" style="fill:currentColor;fill-opacity:1;fill-rule:nonzero;stroke:none" transform="scale(1.3333333)" /> </g>
</svg>

