<?xml version="1.0" encoding="UTF-8" standalone="no"?> <svg version="1.1" id="I57937f1a223e4a8ca5f9cb368b5253da20251106105802" width="100" height="100" viewBox="0 0 100 100" xmlns="http://www.w3.org/2000/svg" xmlns:svg="http://www.w3.org/2000/svg"> <defs id="I957374d73c9e4a198996b1e0f28603b620251106105802" /> <g id="I211c52f102a9472bbe165dfba917e26320251106105802"> <path id="I850d8d819cfd4704a7a54e134ae34f7320251106105802" d="M 64.887,17.922 C 64.531,16.82 63.504,16.074 62.344,16.07 H 56.25 V 6.695 C 56.25,5.215 55.055,4.02 53.57,4.02 H 21.43 c -1.485,0 -2.68,1.195 -2.68,2.675 v 9.375 h -6.094 c -1.16,0 -2.187,0.746 -2.543,1.852 L 4.02,36.664 v 31.641 c 0,1.48 1.195,2.675 2.675,2.675 h 61.61 c 1.48,0 2.675,-1.195 2.675,-2.675 V 36.664 Z M 24.777,10.043 H 50.223 V 16.07 H 24.777 Z m 40.18,54.914 H 10.043 v -27.34 l 5.051,-15.519 h 44.812 l 5.051,15.519 z M 49.219,42.523 H 40.18 V 33.48 c 0,-0.367 -0.301,-0.668 -0.672,-0.668 h -4.016 c -0.371,0 -0.672,0.301 -0.672,0.668 v 9.043 h -9.039 c -0.367,0 -0.668,0.301 -0.668,0.668 v 4.02 c 0,0.367 0.301,0.668 0.668,0.668 h 9.039 v 9.039 c 0,0.371 0.301,0.672 0.672,0.672 h 4.016 c 0.371,0 0.672,-0.301 0.672,-0.672 v -9.039 h 9.039 c 0.367,0 0.668,-0.301 0.668,-0.668 v -4.02 c 0,-0.367 -0.301,-0.668 -0.668,-0.668 z" style="fill:currentColor;fill-opacity:1;fill-rule:nonzero;stroke:none" transform="scale(1.3333333)" /> </g>
</svg>

