<?xml version="1.0" encoding="UTF-8" standalone="no"?> <svg version="1.1" id="I77eedebcb2f74b0ebcee52e09b63cfd020251110133655" width="100" height="100" viewBox="0 0 100 100" xmlns="http://www.w3.org/2000/svg" xmlns:svg="http://www.w3.org/2000/svg"> <defs id="Ia1df97d3b3e1473da5bcf0d6a4f0f20620251110133655" /> <g id="I9ff2e5be4c5e4e4eb357477c38df593420251110133655"> <path id="I8d129819ae414725b848263dd6e4773020251110133655" d="m 10.699,8.051 56.25,56.25 c 0.735,0.73 0.735,1.918 0,2.648 -0.73,0.735 -1.918,0.735 -2.648,0 l -4.762,-4.758 c -1.48,0.985 -3.262,1.559 -5.176,1.559 h -33.75 c -5.175,0 -9.375,-4.199 -9.375,-9.375 v -33.75 c 0,-1.914 0.574,-3.691 1.559,-5.176 l -4.746,-4.75 c -0.735,-0.73 -0.735,-1.918 0,-2.648 0.73,-0.735 1.918,-0.735 2.648,0 z M 56.797,59.449 37.5,40.152 v 6.723 c 0,1.035 -0.84,1.875 -1.875,1.875 h -15 c -1.035,0 -1.875,-0.84 -1.875,-1.875 v -15 C 18.75,30.84 19.59,30 20.625,30 h 6.723 l -3.75,-3.75 h -8.61 v 28.125 c 0,3.105 2.52,5.625 5.625,5.625 h 33.75 c 0.871,0 1.696,-0.199 2.434,-0.551 z M 19.848,22.5 15.539,18.191 c -0.351,0.739 -0.551,1.563 -0.551,2.434 V 22.5 Z m 11.25,11.25 H 22.5 V 45 H 33.75 V 36.402 Z M 59.988,22.5 H 30.453 l 3.75,3.75 h 25.785 v 25.785 l 3.66,3.656 c 0.059,-0.429 0.09,-0.871 0.09,-1.316 V 26.25 H 63.75 V 22.5 h -0.012 v -1.875 c 0,-5.176 -4.195,-9.375 -9.375,-9.375 h -33.75 c -0.445,0 -0.886,0.031 -1.316,0.094 L 22.953,15 h 31.41 c 3.106,0 5.625,2.52 5.625,5.625 z" style="fill:currentColor;fill-opacity:1;fill-rule:nonzero;stroke:none" transform="scale(1.3333333)" /> </g>
</svg>

