<?xml version="1.0" encoding="UTF-8" standalone="no"?> <svg version="1.1" id="Ifb9aeca05f6e4e8ba47bbd3fe7bb9f1f20251110130508" width="100" height="100" viewBox="0 0 100 100" xmlns="http://www.w3.org/2000/svg" xmlns:svg="http://www.w3.org/2000/svg"> <defs id="I9caceb217f9b4d658d7a3d7b030aa58820251110130508" /> <g id="If464c961274943298048850cf2158edc20251110130508"> <path id="I18a151b4be9c4eecab0e87cd98b1d4dd20251110130508" d="m 22.5,11.25 c -6.215,0 -11.25,5.035 -11.25,11.25 v 30 c 0,6.215 5.035,11.25 11.25,11.25 h 30 c 6.215,0 11.25,-5.035 11.25,-11.25 v -30 C 63.75,16.285 58.715,11.25 52.5,11.25 Z M 60,29.113 C 58.008,27.332 55.383,26.25 52.5,26.25 h -15 c -6.215,0 -11.25,5.035 -11.25,11.25 v 15 c 0,2.883 1.082,5.508 2.863,7.5 H 22.5 C 18.359,60 15,56.641 15,52.5 v -30 C 15,18.359 18.359,15 22.5,15 h 30 c 4.141,0 7.5,3.359 7.5,7.5 z M 37.5,60 C 33.359,60 30,56.641 30,52.5 v -15 C 30,33.359 33.359,30 37.5,30 h 15 c 4.141,0 7.5,3.359 7.5,7.5 v 15 c 0,4.141 -3.359,7.5 -7.5,7.5 z" style="fill:currentColor;fill-opacity:1;fill-rule:nonzero;stroke:none" transform="scale(1.3333333)" /> </g>
</svg>

