<?xml version="1.0" encoding="UTF-8" standalone="no"?> <svg version="1.1" id="I514a16783c0745dea71bdb47b5c257e020251110133656" width="100" height="100" viewBox="0 0 100 100" xmlns="http://www.w3.org/2000/svg" xmlns:svg="http://www.w3.org/2000/svg"> <defs id="I041cfcf357894096afb1c458d4c8772520251110133656" /> <g id="Ib5c4f1e1112149c1bbcf13c7b946659c20251110133656"> <path id="I835a59f6700b4a5ab873c1654060c6d220251110133656" d="m 18.082,8.035 c -5.551,0 -10.047,4.496 -10.047,10.047 v 38.836 c 0,5.551 4.496,10.047 10.047,10.047 H 34.82 c 0,-1.391 0.36,-2.781 1.075,-4.02 H 18.082 c -3.332,0 -6.027,-2.699 -6.027,-6.027 V 25.445 h 50.89 v 9.649 c 0.043,0.011 0.082,0.023 0.121,0.039 1.18,0.301 3.2,1.957 3.754,3.707 h 0.145 V 18.082 C 66.965,12.531 62.469,8.035 56.918,8.035 Z M 62.945,21.43 h -50.89 v -3.348 c 0,-3.332 2.695,-6.027 6.027,-6.027 h 38.836 c 3.328,0 6.027,2.695 6.027,6.027 z M 39.07,63.172 c -1.047,1.047 -1.57,2.422 -1.57,3.793 0,1.371 0.523,2.738 1.57,3.785 2.09,2.094 5.485,2.094 7.575,0 l 9.773,-9.77 c 1.207,0.407 2.504,0.625 3.852,0.625 6.656,0 12.05,-5.394 12.05,-12.05 0,-0.598 -0.043,-1.18 -0.125,-1.754 -0.144,-0.985 -1.324,-1.274 -2.027,-0.571 l -4.773,4.774 c -2.09,2.09 -5.485,2.09 -7.575,0 -2.093,-2.094 -2.093,-5.484 0,-7.578 l 4.77,-4.77 C 63.293,38.953 63.004,37.77 62.02,37.625 61.449,37.543 60.863,37.5 60.27,37.5 c -6.661,0 -12.055,5.398 -12.055,12.055 0,1.343 0.219,2.64 0.629,3.847 z" style="fill:currentColor;fill-opacity:1;fill-rule:nonzero;stroke:none" transform="scale(1.3333333)" /> </g>
</svg>

