<?xml version="1.0" encoding="UTF-8" standalone="no"?> <svg version="1.1" id="I13dc5eae6b154a67a9fe2fd708cc8eef20251106161453" width="100" height="100" viewBox="0 0 100 100" xmlns="http://www.w3.org/2000/svg" xmlns:svg="http://www.w3.org/2000/svg"> <defs id="I9917efff4d4b4c8b8eab065922bc4f0020251106161453" /> <g id="Ie387bb5ae239464baedcf669ca94e91120251106161453"> <path id="Ib7cc07193c094a75ad154667bc15c5e920251106161453" d="m 19.531,8.594 c -2.59,0 -4.687,2.097 -4.687,4.687 v 48.438 c 0,2.59 2.097,4.687 4.687,4.687 h 18.563 c -2.344,-3.312 -3.719,-7.355 -3.719,-11.718 0,-11.219 9.094,-20.313 20.313,-20.313 1.894,0 3.73,0.258 5.468,0.746 v -21.84 c 0,-2.59 -2.097,-4.687 -4.687,-4.687 z m 7.031,32.812 c -2.589,0 -4.687,-2.097 -4.687,-4.687 0,-2.59 2.098,-4.688 4.687,-4.688 2.59,0 4.688,2.098 4.688,4.688 0,2.59 -2.098,4.687 -4.688,4.687 z m 28.126,30.469 c 9.492,0 17.187,-7.695 17.187,-17.187 C 71.875,45.195 64.18,37.5 54.688,37.5 45.195,37.5 37.5,45.195 37.5,54.688 c 0,9.492 7.695,17.187 17.188,17.187 z M 65.625,54.688 c 0,0.863 -0.699,1.562 -1.563,1.562 H 49.086 l 5.144,5.145 c 0.61,0.609 0.61,1.601 0,2.21 -0.609,0.61 -1.601,0.61 -2.21,0 l -7.813,-7.812 c -0.609,-0.609 -0.609,-1.602 0,-2.211 L 52.02,45.77 c 0.609,-0.61 1.601,-0.61 2.21,0 0.61,0.609 0.61,1.601 0,2.21 l -5.144,5.145 h 14.976 c 0.864,0 1.563,0.699 1.563,1.563 z" style="fill:currentColor;fill-opacity:1;fill-rule:nonzero;stroke:none" transform="scale(1.3333333)" /> </g>
</svg>

