<?xml version="1.0" encoding="UTF-8" standalone="no"?> <svg version="1.1" id="I06e3b9f30cb7418aaf4393872b42925420251106132945" width="100" height="100" viewBox="0 0 100 100" xmlns="http://www.w3.org/2000/svg" xmlns:svg="http://www.w3.org/2000/svg"> <defs id="I2a5bc167671c4d62a8e172111d1318b720251106132945" /> <g id="I93c95edabefa414bb25c4c06d41248ea20251106132945"> <path id="Iddde3ae347194322ba981cabbb1d2ae920251106132945" d="m 25,14.062 h 3.125 v 19.497 c 0,1.171 -0.293,2.324 -0.852,3.351 L 16.07,57.547 c -1.976,3.644 0.66,8.078 4.809,8.078 h 33.242 c 4.149,0 6.785,-4.434 4.809,-8.078 L 47.727,36.91 C 47.168,35.883 46.875,34.73 46.875,33.559 V 14.062 H 50 c 1.293,0 2.344,-1.05 2.344,-2.343 0,-1.293 -1.051,-2.344 -2.344,-2.344 H 25 c -1.293,0 -2.344,1.051 -2.344,2.344 0,1.293 1.051,2.343 2.344,2.343 z m 7.812,19.497 V 14.062 h 9.376 v 19.497 c 0,1.949 0.488,3.871 1.417,5.589 l 2.5,4.602 h -17.21 l 2.5,-4.602 c 0.929,-1.718 1.417,-3.64 1.417,-5.589 z m -6.46,14.879 h 22.296 l 6.161,11.347 c 0.285,0.52 -0.094,1.153 -0.688,1.153 H 20.879 c -0.594,0 -0.973,-0.633 -0.688,-1.153 z" style="fill:currentColor;fill-opacity:1;fill-rule:nonzero;stroke:none" transform="scale(1.3333333)" /> </g>
</svg>

