<?xml version="1.0" encoding="UTF-8" standalone="no"?> <svg version="1.1" id="Ib69648af85cb40b881bba7f356956abd20251110123030" width="100" height="100" viewBox="0 0 100 100" xmlns="http://www.w3.org/2000/svg" xmlns:svg="http://www.w3.org/2000/svg"> <defs id="I1dc09bdf6e3a41c59821bf0c8d44c8fb20251110123030" /> <g id="I2b982829e7694f10bdaf38d3ed781e0220251110123030"> <path id="Ie2bf627e8f864c93958e0b5b27e845d020251110123030" d="m 17.188,21.875 c 0,-4.316 3.496,-7.813 7.812,-7.813 4.316,0 7.812,3.497 7.812,7.813 0,4.316 -3.496,7.813 -7.812,7.813 -4.316,0 -7.812,-3.497 -7.812,-7.813 z M 25,9.375 c -6.902,0 -12.5,5.598 -12.5,12.5 0,6.902 5.598,12.5 12.5,12.5 6.902,0 12.5,-5.598 12.5,-12.5 0,-6.902 -5.598,-12.5 -12.5,-12.5 z M 48.438,25 c 0,-2.59 2.097,-4.688 4.687,-4.688 2.59,0 4.687,2.098 4.687,4.688 0,2.59 -2.097,4.688 -4.687,4.688 -2.59,0 -4.687,-2.098 -4.687,-4.688 z m 4.687,-9.375 c -5.18,0 -9.375,4.199 -9.375,9.375 0,5.176 4.195,9.375 9.375,9.375 5.18,0 9.375,-4.199 9.375,-9.375 0,-5.176 -4.195,-9.375 -9.375,-9.375 z m -16.406,25 c 0.941,0 1.84,0.184 2.66,0.52 -1.949,0.753 -3.52,2.261 -4.356,4.167 H 13.281 c -1.293,0 -2.343,1.051 -2.343,2.344 v 0.805 c 0.003,0.047 0.007,0.129 0.019,0.246 0.023,0.234 0.074,0.59 0.176,1.027 0.207,0.883 0.617,2.055 1.433,3.219 1.539,2.203 4.868,4.859 12.434,4.859 4.395,0 7.359,-0.894 9.375,-2.078 v 5.192 C 31.902,61.902 28.82,62.5 25,62.5 16.16,62.5 11.285,59.297 8.723,55.641 7.488,53.875 6.875,52.117 6.566,50.801 6.414,50.141 6.336,49.582 6.293,49.176 6.273,48.969 6.262,48.805 6.258,48.68 6.254,48.617 6.254,48.562 6.25,48.523 v -0.867 c 0,-3.883 3.148,-7.031 7.031,-7.031 z m 0.781,7.813 c 0,-2.59 2.098,-4.688 4.688,-4.688 h 25 c 2.589,0 4.687,2.098 4.687,4.688 v 12.5 c 0,2.589 -2.098,4.687 -4.687,4.687 h -25 c -2.59,0 -4.688,-2.098 -4.688,-4.687 z M 40.625,50 v 3.125 c 3.453,0 6.25,-2.797 6.25,-6.25 H 43.75 C 43.75,48.602 42.352,50 40.625,50 Z M 68.75,53.125 V 50 c -1.727,0 -3.125,-1.398 -3.125,-3.125 H 62.5 c 0,3.453 2.797,6.25 6.25,6.25 z M 62.5,62.5 h 3.125 c 0,-1.727 1.398,-3.125 3.125,-3.125 V 56.25 c -3.453,0 -6.25,2.797 -6.25,6.25 z M 40.625,56.25 v 3.125 c 1.727,0 3.125,1.398 3.125,3.125 h 3.125 c 0,-3.453 -2.797,-6.25 -6.25,-6.25 z m 14.063,3.906 c 3.019,0 5.468,-2.449 5.468,-5.468 0,-3.02 -2.449,-5.469 -5.468,-5.469 -3.02,0 -5.469,2.449 -5.469,5.469 0,3.019 2.449,5.468 5.469,5.468 z" style="fill:currentColor;fill-opacity:1;fill-rule:nonzero;stroke:none" transform="scale(1.3333333)" /> </g>
</svg>

