<?xml version="1.0" encoding="UTF-8" standalone="no"?> <svg version="1.1" id="I3ffb2155f214480795614e9c645d7e1420251106125937" width="100" height="100" viewBox="0 0 100 100" xmlns="http://www.w3.org/2000/svg" xmlns:svg="http://www.w3.org/2000/svg"> <defs id="I8e6532de958642f7b7cd309425f4f75020251106125937" /> <g id="I73850c3e6c1d4c81ba1c498f92e85def20251106125937"> <path id="I10b0dceb30594449ac893204114cd0a420251106125937" d="m 54.781,10.062 c -0.914,-0.917 -2.398,-0.917 -3.312,0 -0.918,0.915 -0.918,2.399 0,3.313 l 9.277,9.281 H 45.312 c -5.609,0 -10.156,4.547 -10.156,10.156 v 9.376 c 0,2.566 -1.769,4.722 -4.156,5.308 C 29.84,41.793 24.797,37.5 18.75,37.5 c -6.902,0 -12.5,5.598 -12.5,12.5 0,6.902 5.598,12.5 12.5,12.5 6.133,0 11.238,-4.418 12.297,-10.246 4.965,-0.664 8.797,-4.918 8.797,-10.066 v -9.376 c 0,-3.019 2.449,-5.468 5.468,-5.468 h 15.434 l -9.277,9.281 c -0.918,0.914 -0.918,2.398 0,3.313 0.914,0.917 2.398,0.917 3.312,0 L 68.062,26.656 c 0.918,-0.914 0.918,-2.398 0,-3.312 z" style="fill:currentColor;fill-opacity:1;fill-rule:nonzero;stroke:none" transform="scale(1.3333333)" /> </g>
</svg>

