<?xml version="1.0" encoding="UTF-8" standalone="no"?> <svg version="1.1" id="I1dc42c336d9c42ae873de244954a793920251106154012" width="100" height="100" viewBox="0 0 100 100" xmlns="http://www.w3.org/2000/svg" xmlns:svg="http://www.w3.org/2000/svg"> <defs id="I91d3d70df9f84c408c0c883696d8858820251106154012" /> <g id="I05daaf2c84a241e394771af29077702520251106154012"> <path id="If189a24266ec4a509e7476943c071c5a20251106154012" d="m 15.402,5.355 c -5.547,0 -10.047,4.5 -10.047,10.047 v 38.84 c 0,5.547 4.5,10.043 10.047,10.043 H 37.137 C 35.66,61.488 34.82,58.297 34.82,54.91 c 0,-1.39 0.141,-2.746 0.41,-4.058 -0.132,0.027 -0.269,0.043 -0.41,0.043 -1.109,0 -2.008,-0.903 -2.008,-2.012 V 36.832 c 0,-1.109 0.899,-2.012 2.008,-2.012 1.11,0 2.012,0.903 2.012,2.012 v 9.313 c 2.086,-4.297 5.656,-7.735 10.043,-9.653 V 20.758 c 0,-1.11 0.898,-2.008 2.008,-2.008 1.109,0 2.012,0.898 2.012,2.008 v 14.465 c 1.296,-0.262 2.64,-0.403 4.015,-0.403 3.387,0 6.578,0.84 9.375,2.317 V 15.402 C 64.285,9.855 59.789,5.355 54.242,5.355 Z m 7.368,23.438 v 20.09 c 0,1.109 -0.903,2.012 -2.012,2.012 -1.11,0 -2.008,-0.903 -2.008,-2.012 v -20.09 c 0,-1.109 0.898,-2.008 2.008,-2.008 1.109,0 2.012,0.899 2.012,2.008 z M 72.32,54.91 c 0,9.617 -7.793,17.41 -17.41,17.41 -9.617,0 -17.41,-7.793 -17.41,-17.41 0,-9.617 7.793,-17.41 17.41,-17.41 9.617,0 17.41,7.793 17.41,17.41 z m -7.086,-7.644 c -0.523,-0.52 -1.371,-0.52 -1.894,0 l -12.445,12.449 -4.411,-4.41 c -0.523,-0.524 -1.371,-0.524 -1.894,0 -0.524,0.519 -0.524,1.371 0,1.89 l 5.355,5.36 c 0.524,0.523 1.371,0.523 1.895,0 L 65.234,49.16 c 0.52,-0.523 0.52,-1.371 0,-1.894 z" style="fill:currentColor;fill-opacity:1;fill-rule:nonzero;stroke:none" transform="scale(1.3333333)" /> </g>
</svg>

