<?xml version="1.0" encoding="UTF-8" standalone="no"?> <svg version="1.1" id="I622afcbf1dda4745920e4f590db8de7820251106142135" width="100" height="100" viewBox="0 0 100 100" xmlns="http://www.w3.org/2000/svg" xmlns:svg="http://www.w3.org/2000/svg"> <defs id="Ic7b80d0baa1745ccbd94f616756b08e020251106142135" /> <g id="If821f42fb73847b3a51a690fbd565ad220251106142135"> <path id="Ib5e00241e71743eebd1ca4df8de481ca20251106142135" d="m 50.938,7.281 c -2.622,-0.969 -5.504,-0.969 -8.126,0 l -13.457,4.973 c -2.148,0.797 -3.574,2.844 -3.574,5.133 v 8.726 c 2.504,-0.398 5.082,-0.156 7.489,0.735 l 13.46,4.972 c 1.606,0.594 2.954,1.637 3.93,2.953 1.301,-0.265 2.649,-0.402 4.028,-0.402 5.078,0 9.718,1.863 13.281,4.945 V 17.387 c 0,-2.289 -1.426,-4.336 -3.574,-5.133 z M 36.777,22.523 c -1.222,-0.421 -1.871,-1.753 -1.449,-2.98 0.426,-1.223 1.758,-1.871 2.981,-1.449 l 8.308,2.871 c 0.168,0.058 0.348,0.058 0.512,0 l 8.281,-2.867 c 1.227,-0.426 2.559,0.222 2.985,1.445 0.421,1.223 -0.227,2.559 -1.45,2.984 l -8.281,2.868 c -1.16,0.402 -2.418,0.402 -3.578,0.003 z m 8.868,12.231 c 0.628,0.23 1.195,0.57 1.683,0.992 -3.297,1.281 -6.176,3.399 -8.375,6.094 -0.613,-0.524 -1.476,-0.715 -2.293,-0.434 l -8.535,2.957 -8.566,-2.957 c -1.223,-0.426 -2.555,0.223 -2.981,1.449 -0.422,1.223 0.227,2.555 1.449,2.981 l 7.754,2.68 v 8.433 c 0,1.293 1.051,2.344 2.344,2.344 1.293,0 2.344,-1.051 2.344,-2.344 v -8.437 l 5.59,-1.938 c -1.082,2.485 -1.684,5.227 -1.684,8.11 0,4.058 1.191,7.839 3.242,11.015 l -5.429,2.004 c -2.622,0.969 -5.504,0.969 -8.126,0 L 10.605,62.73 C 8.457,61.938 7.031,59.891 7.031,57.602 V 39.883 c 0,-2.289 1.426,-4.336 3.574,-5.129 l 13.457,-4.973 c 2.622,-0.972 5.504,-0.972 8.126,0 z m 26.23,19.93 c 0,9.492 -7.695,17.187 -17.187,17.187 -9.493,0 -17.188,-7.695 -17.188,-17.187 0,-9.493 7.695,-17.188 17.188,-17.188 9.492,0 17.187,7.695 17.187,17.188 z m -6.707,-7.356 c -0.609,-0.609 -1.602,-0.609 -2.211,0 L 51.562,58.727 46.418,53.578 c -0.609,-0.609 -1.602,-0.609 -2.211,0 -0.609,0.613 -0.609,1.602 0,2.211 l 6.25,6.25 c 0.609,0.609 1.602,0.609 2.211,0 l 12.5,-12.5 c 0.609,-0.609 0.609,-1.598 0,-2.211 z" style="fill:currentColor;fill-opacity:1;fill-rule:nonzero;stroke:none" transform="scale(1.3333333)" /> </g>
</svg>

