<?xml version="1.0" encoding="UTF-8" standalone="no"?> <svg version="1.1" id="I11dbe109242645068be87c8c1f58285720251110123031" width="100" height="100" viewBox="0 0 100 100" xmlns="http://www.w3.org/2000/svg" xmlns:svg="http://www.w3.org/2000/svg"> <defs id="Ib10509de2142434cabacad435f0f47a320251110123031" /> <g id="Icfe8cae68f5e47f2ad6a8805c9feafd220251110123031"> <path id="Icb9caa2bbe684c93bea879a5be38482f20251110123031" d="m 9.375,19.531 v 35.938 c 0,5.609 4.547,10.156 10.156,10.156 H 37.566 C 35.773,62.82 34.648,59.547 34.418,56.031 26.48,54.863 21.875,49.234 21.875,43.75 v -1.562 c 0,-2.59 2.098,-4.688 4.687,-4.688 h 17.293 c 3.137,-1.98 6.852,-3.125 10.833,-3.125 4.027,0 7.781,1.172 10.937,3.191 V 19.531 C 65.625,13.922 61.078,9.375 55.469,9.375 H 19.531 c -5.609,0 -10.156,4.547 -10.156,10.156 z M 37.5,17.188 c 4.746,0 8.594,3.847 8.594,8.593 0,4.746 -3.848,8.594 -8.594,8.594 -4.746,0 -8.594,-3.848 -8.594,-8.594 0,-4.746 3.848,-8.593 8.594,-8.593 z m 34.375,37.5 C 71.875,45.195 64.18,37.5 54.688,37.5 45.195,37.5 37.5,45.195 37.5,54.688 c 0,9.492 7.695,17.187 17.188,17.187 9.492,0 17.187,-7.695 17.187,-17.187 z m -15.625,1.562 0.004,7.824 c 0,0.864 -0.699,1.563 -1.563,1.563 -0.863,0 -1.562,-0.699 -1.562,-1.563 L 53.125,56.25 h -7.828 c -0.859,0 -1.559,-0.699 -1.559,-1.562 0,-0.864 0.7,-1.563 1.559,-1.563 h 7.828 v -7.816 c 0,-0.864 0.699,-1.563 1.563,-1.563 0.863,0 1.562,0.699 1.562,1.563 v 7.816 h 7.801 c 0.863,0 1.562,0.699 1.562,1.563 0,0.863 -0.699,1.562 -1.562,1.562 z" style="fill:currentColor;fill-opacity:1;fill-rule:nonzero;stroke:none" transform="scale(1.3333333)" /> </g>
</svg>

