<?xml version="1.0" encoding="UTF-8" standalone="no"?> <svg version="1.1" id="Iab2e461716624963af729adb01f2769320251106154012" width="100" height="100" viewBox="0 0 100 100" xmlns="http://www.w3.org/2000/svg" xmlns:svg="http://www.w3.org/2000/svg"> <defs id="Ie0e7ead6f7d94377a849a7fa5a75e69720251106154012" /> <g id="Ic58a1a6e74d2415b8bb93f57043e44c320251106154012"> <path id="Ife5715789628402cbc1ffe068cf6698420251106154012" d="m 43.125,15 c 0,-3.105 -2.52,-5.625 -5.625,-5.625 -3.105,0 -5.625,2.52 -5.625,5.625 z m -15,0 c 0,-5.176 4.199,-9.375 9.375,-9.375 5.176,0 9.375,4.199 9.375,9.375 h 18.75 c 1.035,0 1.875,0.84 1.875,1.875 0,1.035 -0.84,1.875 -1.875,1.875 h -3.953 l -1.817,15.734 c -1.746,-0.476 -3.582,-0.734 -5.48,-0.734 -11.391,0 -20.625,9.234 -20.625,20.625 0,4.984 1.77,9.559 4.715,13.125 H 28.98 c -5.714,0 -10.519,-4.285 -11.175,-9.961 L 13.328,18.75 H 9.375 C 8.34,18.75 7.5,17.91 7.5,16.875 7.5,15.84 8.34,15 9.375,15 Z m 26.25,56.25 c 9.32,0 16.875,-7.555 16.875,-16.875 0,-9.32 -7.555,-16.875 -16.875,-16.875 -9.32,0 -16.875,7.555 -16.875,16.875 0,9.32 7.555,16.875 16.875,16.875 z m -3.363,-23.988 -3.36,3.363 h 5.786 c 5.695,0 10.312,4.617 10.312,10.313 v 0.937 c 0,1.035 -0.84,1.875 -1.875,1.875 C 60.84,63.75 60,62.91 60,61.875 v -0.937 c 0,-3.626 -2.938,-6.563 -6.562,-6.563 h -5.786 l 3.36,3.363 c 0.734,0.731 0.734,1.918 0,2.649 -0.731,0.734 -1.918,0.734 -2.649,0 l -6.57,-6.571 C 41.617,53.641 41.484,53.438 41.391,53.219 41.301,52.996 41.25,52.754 41.25,52.5 c 0,-0.254 0.051,-0.496 0.141,-0.719 0.093,-0.219 0.23,-0.426 0.41,-0.605 l 6.562,-6.563 c 0.731,-0.734 1.918,-0.734 2.649,0 0.734,0.731 0.734,1.918 0,2.649 z" style="fill:currentColor;fill-opacity:1;fill-rule:nonzero;stroke:none" transform="scale(1.3333333)" /> </g>
</svg>

