<?xml version="1.0" encoding="UTF-8" standalone="no"?> <svg version="1.1" id="Ia92e483904e948d99d3840aa0be5d70320251110123031" width="100" height="100" viewBox="0 0 100 100" xmlns="http://www.w3.org/2000/svg" xmlns:svg="http://www.w3.org/2000/svg"> <defs id="If333bf90259c438680a02609b4b8f50f20251110123031" /> <g id="Ib8c4197b4bff4f3e9fb5352740495f5820251110123031"> <path id="I48c1297477354ea0a5821c0a527fadcd20251110123031" d="m 49.219,6.25 c 3.883,0 7.031,3.148 7.031,7.031 v 48.438 c 0,3.883 -3.148,7.031 -7.031,7.031 H 25.781 c -3.883,0 -7.031,-3.148 -7.031,-7.031 V 13.281 c 0,-3.883 3.148,-7.031 7.031,-7.031 z m 0,4.688 H 25.781 c -1.293,0 -2.343,1.05 -2.343,2.343 v 48.438 c 0,1.293 1.05,2.343 2.343,2.343 h 23.438 c 1.293,0 2.343,-1.05 2.343,-2.343 V 13.281 c 0,-1.293 -1.05,-2.343 -2.343,-2.343 z M 29.684,55.484 c 1.293,0 2.343,1.047 2.343,2.344 0,1.293 -1.05,2.344 -2.343,2.344 -1.293,0 -2.344,-1.051 -2.344,-2.344 0,-1.297 1.051,-2.344 2.344,-2.344 z m 7.812,0 c 1.293,0 2.344,1.047 2.344,2.344 0,1.293 -1.051,2.344 -2.344,2.344 -1.293,0 -2.344,-1.051 -2.344,-2.344 0,-1.297 1.051,-2.344 2.344,-2.344 z m 7.813,0 c 1.293,0 2.343,1.047 2.343,2.344 0,1.293 -1.05,2.344 -2.343,2.344 -1.293,0 -2.344,-1.051 -2.344,-2.344 0,-1.297 1.051,-2.344 2.344,-2.344 z" style="fill:currentColor;fill-opacity:1;fill-rule:nonzero;stroke:none" transform="scale(1.3333333)" /> </g>
</svg>

