<?xml version="1.0" encoding="UTF-8" standalone="no"?> <svg version="1.1" id="I21afc486a8e34f78a9da99cb86a81ada20251110133655" width="100" height="100" viewBox="0 0 100 100" xmlns="http://www.w3.org/2000/svg" xmlns:svg="http://www.w3.org/2000/svg"> <defs id="Iccd0c5b5585840ec9daad8d6c043893a20251110133655" /> <g id="I813c27fe80ee426891aa6a99739d560820251110133655"> <path id="I2931210062a44cdf8833f2262feb403420251110133655" d="M 10.25,6.938 C 9.336,6.02 7.852,6.02 6.938,6.938 6.02,7.852 6.02,9.336 6.938,10.25 l 3.906,3.906 c -2.766,1.817 -4.594,4.946 -4.594,8.5 v 29.703 c 0,5.61 4.547,10.157 10.156,10.157 h 42.188 c 0.199,0 0.394,-0.008 0.59,-0.02 l 5.566,5.566 c 0.914,0.918 2.398,0.918 3.312,0 0.915,-0.914 0.915,-2.398 0,-3.312 z m 44.262,50.89 H 16.406 c -3.019,0 -5.468,-2.449 -5.468,-5.469 V 35.195 L 21.59,28.5 21.895,28.336 c 1.046,-0.457 2.3,-0.094 2.925,0.902 0.446,0.707 0.481,1.602 0.09,2.34 l -3.777,7.145 -0.219,0.449 c -1.476,3.348 -0.133,7.316 3.152,9.051 2.114,1.117 4.649,1.082 6.735,-0.09 l 5.515,-3.113 0.266,-0.176 c 0.918,-0.699 1.199,-1.989 0.613,-3.02 -0.64,-1.125 -2.074,-1.519 -3.199,-0.879 l -5.496,3.106 -0.305,0.144 c -0.629,0.239 -1.336,0.203 -1.937,-0.117 -1.145,-0.605 -1.582,-2.023 -0.981,-3.168 l 3.778,-7.14 0.246,-0.52 c 0.066,-0.152 0.125,-0.305 0.176,-0.457 z M 20.527,23.84 c -0.492,0.172 -0.972,0.402 -1.433,0.691 l -8.156,5.125 v -7 c 0,-2.273 1.386,-4.218 3.359,-5.047 z m 19.957,6.703 6.911,6.91 2.859,-0.859 c 1.113,-0.332 2.125,-0.938 2.945,-1.758 L 66.578,21.48 c 2.637,-2.636 2.766,-6.832 0.379,-9.617 l -0.375,-0.41 -0.41,-0.375 C 63.387,8.691 59.188,8.812 56.551,11.449 l -13.41,13.387 c -0.789,0.789 -1.383,1.758 -1.727,2.82 z m 26.903,26.902 -3.543,-3.547 c 0.14,-0.488 0.218,-1.003 0.218,-1.539 V 29.508 l 4.688,-4.676 v 27.527 c 0,1.852 -0.496,3.59 -1.363,5.086 z M 22.445,12.5 27.133,17.188 H 45.27 L 49.965,12.5 Z m 37.414,2.266 c 0.942,-0.938 2.465,-0.938 3.407,0.004 0.851,0.851 0.929,2.187 0.23,3.128 l -0.234,0.27 -13.375,13.352 c -0.274,0.273 -0.61,0.472 -0.981,0.585 l -4.426,1.329 1.399,-4.34 c 0.113,-0.356 0.309,-0.68 0.574,-0.942 z" style="fill:currentColor;fill-opacity:1;fill-rule:nonzero;stroke:none" transform="scale(1.3333333)" /> </g>
</svg>

