<?xml version="1.0" encoding="UTF-8" standalone="no"?> <svg version="1.1" id="Iaa53a3bd261d4bb78d85eefe7f79ea2720251106171634" width="100" height="100" viewBox="0 0 100 100" xmlns="http://www.w3.org/2000/svg" xmlns:svg="http://www.w3.org/2000/svg"> <defs id="I9af9a9e35b514dd5954f60eab88608fb20251106171634" /> <g id="I39c341eaaa7541e3bdb0508ac2e6e55920251106171634"> <path id="If199022a403742a8ba42210fdcc0fc0520251106171634" d="m 8.785,5.945 60.27,60.27 c 0.785,0.785 0.785,2.055 0,2.84 -0.785,0.785 -2.059,0.785 -2.844,0 l -4.129,-4.129 c -1.844,1.285 -4.086,2.039 -6.5,2.039 H 19.418 C 13.133,66.965 8.035,61.867 8.035,55.582 V 19.418 c 0,-2.418 0.754,-4.656 2.039,-6.5 L 5.945,8.785 C 5.16,8.004 5.16,6.73 5.945,5.945 6.73,5.16 8.004,5.16 8.785,5.945 Z M 59.172,62.012 12.988,15.828 c -0.597,1.063 -0.933,2.289 -0.933,3.59 v 36.164 c 0,4.066 3.297,7.363 7.363,7.363 h 36.164 c 1.301,0 2.527,-0.336 3.59,-0.933 z m -42.32,-53.684 3.726,3.727 h 10.895 c 1.109,0 2.007,-0.903 2.007,-2.012 0,-1.109 -0.898,-2.008 -2.007,-2.008 H 19.418 c -0.883,0 -1.742,0.102 -2.566,0.293 z m 49.82,49.824 -3.727,-3.726 V 43.527 c 0,-1.109 0.899,-2.007 2.012,-2.007 1.109,0 2.008,0.898 2.008,2.007 v 12.055 c 0,0.883 -0.102,1.742 -0.293,2.57 z M 41.52,10.043 c 0,-1.109 0.898,-2.008 2.007,-2.008 h 21.43 c 1.109,0 2.008,0.899 2.008,2.008 v 21.43 c 0,1.109 -0.899,2.007 -2.008,2.007 -1.109,0 -2.012,-0.898 -2.012,-2.007 V 14.895 l -16.66,16.66 c -0.781,0.785 -2.055,0.785 -2.84,0 -0.785,-0.785 -0.785,-2.059 0,-2.84 l 16.66,-16.66 H 43.527 c -1.109,0 -2.007,-0.903 -2.007,-2.012 z" style="fill:currentColor;fill-opacity:1;fill-rule:nonzero;stroke:none" transform="scale(1.3333333)" /> </g>
</svg>

