<?xml version="1.0" encoding="UTF-8" standalone="no"?> <svg version="1.1" id="I475c27a558b94576aae5ee3142de9bde20251110133655" width="100" height="100" viewBox="0 0 100 100" xmlns="http://www.w3.org/2000/svg" xmlns:svg="http://www.w3.org/2000/svg"> <defs id="Id7f8ecd61a7f4e96b23a9aff881ab96420251110133655" /> <g id="Ifae02411ced74614bf4283a86ae6e22120251110133655"> <path id="I06ab4b8e895341cfac8542f9567019db20251110133655" d="m 43.949,11.172 c -2.801,-5.074 -10.097,-5.074 -12.898,0 L 6.293,56.039 c -2.707,4.906 0.844,10.922 6.453,10.922 h 49.508 c 5.605,0 9.156,-6.012 6.449,-10.922 z M 40.18,53.57 c 0,1.481 -1.2,2.68 -2.68,2.68 -1.48,0 -2.68,-1.199 -2.68,-2.68 0,-1.476 1.2,-2.675 2.68,-2.675 1.48,0 2.68,1.199 2.68,2.675 z m -4.688,-8.703 v -17.41 c 0,-1.109 0.899,-2.012 2.008,-2.012 1.109,0 2.008,0.903 2.008,2.012 v 17.41 c 0,1.11 -0.899,2.008 -2.008,2.008 -1.109,0 -2.008,-0.898 -2.008,-2.008 z" style="fill:currentColor;fill-opacity:1;fill-rule:nonzero;stroke:none" transform="scale(1.3333333)" /> </g>
</svg>

