<?xml version="1.0" encoding="UTF-8" standalone="no"?> <svg version="1.1" id="I3b69b7304155412c9651770b3d08a81a20251106132945" width="100" height="100" viewBox="0 0 100 100" xmlns="http://www.w3.org/2000/svg" xmlns:svg="http://www.w3.org/2000/svg"> <defs id="I8109cc542bcd4ccf976e1db4a170778220251106132945" /> <g id="I789b2e680ab44a2995f24a08e3dacb9a20251106132945"> <path id="Iee50df5a5be54ef5926fef6a1cf6445120251106132945" d="m 21.094,12.5 h 32.812 c 4.571,0 8.309,3.566 8.578,8.07 l 0.016,0.524 v 10.48 c 3.426,0.969 5.984,4.012 6.23,7.684 l 0.02,0.586 v 23.437 c 0,1.293 -1.051,2.344 -2.344,2.344 -1.187,0 -2.168,-0.883 -2.324,-2.027 l -0.02,-0.317 V 56.25 H 10.938 v 7.031 c 0,1.188 -0.883,2.168 -2.028,2.324 l -0.316,0.02 c -1.188,0 -2.168,-0.883 -2.324,-2.027 L 6.25,63.281 V 39.844 c 0,-3.934 2.645,-7.25 6.25,-8.27 v -10.48 c 0,-4.571 3.566,-8.309 8.07,-8.578 z M 60.156,35.938 H 14.844 c -2.024,0 -3.688,1.539 -3.887,3.507 l -0.019,0.399 V 51.562 H 64.062 V 39.844 c 0,-2.024 -1.539,-3.688 -3.507,-3.887 z m -6.25,-18.75 H 21.094 c -2.024,0 -3.688,1.535 -3.887,3.507 l -0.019,0.399 V 31.25 h 4.687 c 0,-1.727 1.398,-3.125 3.125,-3.125 h 6.25 c 1.602,0 2.922,1.207 3.105,2.762 l 0.02,0.363 h 6.25 c 0,-1.727 1.398,-3.125 3.125,-3.125 H 50 c 1.602,0 2.922,1.207 3.105,2.762 l 0.02,0.363 h 4.687 V 21.094 c 0,-2.024 -1.539,-3.688 -3.507,-3.887 z" style="fill:currentColor;fill-opacity:1;fill-rule:nonzero;stroke:none" transform="scale(1.3333333)" /> </g>
</svg>

