<?xml version="1.0" encoding="UTF-8" standalone="no"?> <svg version="1.1" id="I3926d8d1fb7f454eb9b3da48199fda7d20251106164749" width="100" height="100" viewBox="0 0 100 100" xmlns="http://www.w3.org/2000/svg" xmlns:svg="http://www.w3.org/2000/svg"> <defs id="If2919f616c984bf6beb5c22aa459d98120251106164749" /> <g id="I9c7f99fb1721420c9a9624d45002c3da20251106164749"> <path id="Iadc70727605540a6bf96d1ec6805dbdf20251106164749" d="m 37.5,9.375 c 2.641,0 5.652,2.371 8.125,7.668 1.113,2.387 2.043,5.23 2.715,8.402 H 26.66 c 0.672,-3.172 1.602,-6.015 2.715,-8.402 2.473,-5.297 5.484,-7.668 8.125,-7.668 z m -11.766,5.969 c -1.355,2.902 -2.433,6.328 -3.175,10.101 H 12.082 c 3.219,-6.777 9.07,-12.062 16.234,-14.535 -0.968,1.328 -1.832,2.828 -2.582,4.434 z m -3.816,14.121 c -0.32,2.574 -0.488,5.265 -0.488,8.035 0,2.77 0.168,5.461 0.488,8.035 H 10.539 C 9.781,42.988 9.375,40.293 9.375,37.5 c 0,-2.793 0.406,-5.488 1.164,-8.035 z m 0.641,20.09 c 0.742,3.773 1.82,7.199 3.175,10.101 0.75,1.606 1.614,3.106 2.582,4.434 C 21.152,61.617 15.301,56.332 12.082,49.555 Z m 4.101,0 h 21.68 c -0.672,3.172 -1.602,6.015 -2.715,8.402 -2.473,5.297 -5.484,7.668 -8.125,7.668 -2.641,0 -5.652,-2.371 -8.125,-7.668 -1.113,-2.387 -2.043,-5.23 -2.715,-8.402 z m 22.371,-4.02 H 25.969 c -0.34,-2.539 -0.524,-5.234 -0.524,-8.035 0,-2.801 0.184,-5.496 0.524,-8.035 h 23.062 c 0.34,2.539 0.524,5.234 0.524,8.035 0,2.801 -0.184,5.496 -0.524,8.035 z m 3.41,4.02 h 10.477 c -3.219,6.777 -9.07,12.062 -16.234,14.535 0.968,-1.328 1.832,-2.828 2.582,-4.434 1.355,-2.902 2.433,-6.328 3.175,-10.101 z m 12.02,-4.02 H 53.082 c 0.32,-2.574 0.488,-5.265 0.488,-8.035 0,-2.77 -0.168,-5.461 -0.488,-8.035 h 11.379 c 0.758,2.547 1.164,5.242 1.164,8.035 0,2.793 -0.406,5.488 -1.164,8.035 z M 46.684,10.91 c 7.164,2.473 13.015,7.758 16.234,14.535 H 52.441 C 51.699,21.672 50.621,18.246 49.266,15.344 48.516,13.738 47.652,12.238 46.684,10.91 Z M 37.5,69.645 C 55.254,69.645 69.645,55.254 69.645,37.5 69.645,19.746 55.254,5.355 37.5,5.355 19.746,5.355 5.355,19.746 5.355,37.5 c 0,17.754 14.391,32.145 32.145,32.145 z" style="fill:currentColor;fill-opacity:1;fill-rule:nonzero;stroke:none" transform="scale(1.3333333)" /> </g>
</svg>

