<?xml version="1.0" encoding="UTF-8" standalone="no"?> <svg version="1.1" id="I4c433189cfb54ed381387ca14ea007ce20251106102215" width="100" height="100" viewBox="0 0 100 100" xmlns="http://www.w3.org/2000/svg" xmlns:svg="http://www.w3.org/2000/svg"> <defs id="Idbdf57efe75a4a0a97b4f2664fd0b76220251106102215" /> <g id="I88184e693c3a4c7b9ce7688be184ea2f20251106102215"> <path id="I9c0c8d0e9e404899b8d7a35bcb38dfde20251106102215" d="m 16.215,57.59 c 0.168,0 0.332,-0.016 0.5,-0.043 l 14.082,-2.469 c 0.164,-0.035 0.324,-0.109 0.441,-0.234 L 66.723,19.359 c 0.324,-0.324 0.324,-0.851 0,-1.179 L 52.809,4.262 C 52.652,4.102 52.441,4.02 52.215,4.02 c -0.227,0 -0.434,0.082 -0.594,0.242 l -35.484,35.48 c -0.125,0.125 -0.199,0.278 -0.235,0.446 l -2.468,14.078 c -0.164,0.91 0.128,1.843 0.789,2.496 0.55,0.535 1.246,0.828 1.992,0.828 z m 5.64,-14.598 30.36,-30.351 6.137,6.132 -30.36,30.352 -7.441,1.316 z m 46.45,21.629 H 6.695 c -1.48,0 -2.675,1.195 -2.675,2.68 v 3.011 c 0,0.368 0.3,0.668 0.668,0.668 h 65.624 c 0.368,0 0.668,-0.3 0.668,-0.668 v -3.011 c 0,-1.485 -1.195,-2.68 -2.675,-2.68 z" style="fill:currentColor;fill-opacity:1;fill-rule:nonzero;stroke:none" transform="scale(1.3333333)" /> </g>
</svg>

