<?xml version="1.0" encoding="UTF-8" standalone="no"?> <svg version="1.1" id="Ib9683fd55e234a35862225ed4a1b079e20251106151526" width="100" height="100" viewBox="0 0 100 100" xmlns="http://www.w3.org/2000/svg" xmlns:svg="http://www.w3.org/2000/svg"> <defs id="If769e00468f24a2eadd55d79aa4ccda620251106151526" /> <g id="Ica79ce0c32294a76a72a7f33c8f4ee1b20251106151526"> <path id="I85806af7b26349afa0dfa74c70fd726d20251106151526" d="m 20.758,5.355 c -8.504,0 -15.403,6.899 -15.403,15.403 0,8.508 6.899,15.402 15.403,15.402 h 13.394 c 1.11,0 2.008,-0.898 2.008,-2.008 V 20.758 C 36.16,12.254 29.266,5.355 20.758,5.355 Z M 9.375,20.758 c 0,-6.285 5.098,-11.383 11.383,-11.383 6.289,0 11.387,5.098 11.387,11.383 V 32.145 H 20.758 c -6.285,0 -11.383,-5.098 -11.383,-11.387 z m 11.383,48.887 c -8.504,0 -15.403,-6.899 -15.403,-15.403 0,-8.508 6.899,-15.402 15.403,-15.402 h 13.394 c 1.11,0 2.008,0.898 2.008,2.008 v 13.394 c 0,8.504 -6.894,15.403 -15.402,15.403 z M 9.375,54.242 c 0,6.285 5.098,11.383 11.383,11.383 6.289,0 11.387,-5.098 11.387,-11.383 V 42.855 H 20.758 c -6.285,0 -11.383,5.098 -11.383,11.387 z m 60.27,-33.484 c 0,-8.504 -6.899,-15.403 -15.403,-15.403 -8.508,0 -15.402,6.899 -15.402,15.403 v 13.394 c 0,1.11 0.898,2.008 2.008,2.008 h 13.394 c 8.504,0 15.403,-6.894 15.403,-15.402 z M 54.242,9.375 c 6.285,0 11.383,5.098 11.383,11.383 0,6.289 -5.098,11.387 -11.383,11.387 H 42.855 V 20.758 c 0,-6.285 5.098,-11.383 11.387,-11.383 z m 0,60.27 c 8.504,0 15.403,-6.899 15.403,-15.403 0,-8.508 -6.899,-15.402 -15.403,-15.402 H 40.848 c -1.11,0 -2.008,0.898 -2.008,2.008 v 13.394 c 0,8.504 6.894,15.403 15.402,15.403 z M 65.625,54.242 c 0,6.285 -5.098,11.383 -11.383,11.383 -6.289,0 -11.387,-5.098 -11.387,-11.383 V 42.855 h 11.387 c 6.285,0 11.383,5.098 11.383,11.387 z" style="fill:currentColor;fill-opacity:1;fill-rule:nonzero;stroke:none" transform="scale(1.3333333)" /> </g>
</svg>

