<?xml version="1.0" encoding="UTF-8" standalone="no"?> <svg version="1.1" id="I5908faa9e4604ffb8e88bb5ca5cbd86720251106171634" width="100" height="100" viewBox="0 0 100 100" xmlns="http://www.w3.org/2000/svg" xmlns:svg="http://www.w3.org/2000/svg"> <defs id="I2450ba19bdce4645bce63a306776232c20251106171634" /> <g id="Icdbc67dee0cb43f7ab70cea26e932b7620251106171634"> <path id="I6ec72001c59a406c83517f4eec4b6b3020251106171634" d="m 37.5,5.352 c -6.289,0 -11.383,5.097 -11.383,11.382 0,5.602 4.043,10.258 9.375,11.207 V 36.16 H 23.438 c -3.329,0 -6.028,2.699 -6.028,6.028 v 4.863 C 12.082,48 8.035,52.656 8.035,58.258 c 0,6.289 5.098,11.387 11.383,11.387 6.289,0 11.387,-5.098 11.387,-11.387 0,-5.602 -4.047,-10.258 -9.375,-11.207 v -4.863 c 0,-1.11 0.898,-2.008 2.008,-2.008 h 28.124 c 1.11,0 2.008,0.898 2.008,2.008 v 4.863 c -5.328,0.949 -9.375,5.605 -9.375,11.207 0,6.289 5.098,11.387 11.387,11.387 6.285,0 11.383,-5.098 11.383,-11.387 0,-5.602 -4.047,-10.258 -9.375,-11.207 v -4.863 c 0,-3.329 -2.699,-6.028 -6.028,-6.028 H 39.508 V 27.941 C 44.84,26.996 48.883,22.336 48.883,16.734 48.883,10.449 43.789,5.352 37.5,5.352 Z m -7.367,11.382 c 0,-4.066 3.301,-7.363 7.367,-7.363 4.066,0 7.367,3.297 7.367,7.363 0,4.071 -3.301,7.368 -7.367,7.368 -4.066,0 -7.367,-3.297 -7.367,-7.368 z M 12.055,58.258 c 0,-4.067 3.297,-7.363 7.363,-7.363 4.07,0 7.367,3.296 7.367,7.363 0,4.07 -3.297,7.367 -7.367,7.367 -4.066,0 -7.363,-3.297 -7.363,-7.367 z m 43.527,-7.363 c 4.066,0 7.363,3.296 7.363,7.363 0,4.07 -3.297,7.367 -7.363,7.367 -4.07,0 -7.367,-3.297 -7.367,-7.367 0,-4.067 3.297,-7.363 7.367,-7.363 z" style="fill:currentColor;fill-opacity:1;fill-rule:nonzero;stroke:none" transform="scale(1.3333333)" /> </g>
</svg>

