<?xml version="1.0" encoding="UTF-8" standalone="no"?> <svg version="1.1" id="I79cfc21b676146dbb1a628517caef00020251106123559" width="100" height="100" viewBox="0 0 100 100" xmlns="http://www.w3.org/2000/svg" xmlns:svg="http://www.w3.org/2000/svg"> <defs id="I6450fac0e0d04aab900a1e0dce5c4e7620251106123559" /> <g id="I243c1fbf53d04f09b424fc698f979a5e20251106123559"> <path id="I2602cb6cd7204f6cb13dd99858b4662a20251106123559" d="m 32.883,13.781 5.847,4.735 c -0.597,0.64 -1.121,1.242 -1.558,1.769 -0.387,0.469 -0.746,0.621 -0.918,0.66 L 25.43,23.199 24.238,21.07 c -2.148,-3.84 0.625,-8.57 5.024,-8.57 1.316,0 2.597,0.453 3.621,1.281 z m 19.281,0.289 c 6.992,-0.539 12.215,3.887 15.172,7.27 1.527,1.75 1.832,3.965 1.18,5.887 -0.641,1.878 -2.168,3.425 -4.196,4.125 L 47.539,37.137 37.426,50.621 c -1.184,1.578 -3.039,2.504 -5.012,2.504 -4.457,0 -7.488,-4.523 -5.789,-8.648 l 1.586,-3.856 -10.313,1.984 C 13.477,43.457 9.375,40.07 9.375,35.566 V 24.035 c 0,-2.918 2.367,-5.285 5.285,-5.285 1.934,0 3.715,1.059 4.641,2.754 l 3.019,5.535 14.571,-3.035 c 0.98,-0.203 1.929,-0.809 2.687,-1.719 1.156,-1.398 2.902,-3.297 4.996,-4.91 2.059,-1.59 4.688,-3.082 7.59,-3.305 z M 11.719,60.938 c -1.293,0 -2.344,1.05 -2.344,2.343 0,1.293 1.051,2.344 2.344,2.344 h 51.562 c 1.293,0 2.344,-1.051 2.344,-2.344 0,-1.293 -1.051,-2.343 -2.344,-2.343 z" style="fill:currentColor;fill-opacity:1;fill-rule:nonzero;stroke:none" transform="scale(1.3333333)" /> </g>
</svg>

