<?xml version="1.0" encoding="UTF-8" standalone="no"?> <svg version="1.1" id="Ie4c2f7ea4ecf4ead8a89dd335f9e1d7b20251106152729" width="100" height="100" viewBox="0 0 100 100" xmlns="http://www.w3.org/2000/svg" xmlns:svg="http://www.w3.org/2000/svg"> <defs id="Ie3cb056b496649b794616d91e73ae97b20251106152729" /> <g id="I51c6d772e9cd46f5a92eb7d8a288f58b20251106152729"> <path id="I65cb964d86114256a4645b86b3d821b220251106152729" d="m 18.082,8.035 c -5.551,0 -10.047,4.496 -10.047,10.047 v 12.051 c 0,1.109 0.899,2.012 2.008,2.012 1.109,0 2.012,-0.903 2.012,-2.012 V 18.082 c 0,-3.332 2.695,-6.027 6.027,-6.027 H 37.5 v 18.078 c 0,4.07 3.297,7.367 7.367,7.367 h 18.078 v 19.418 c 0,3.328 -2.699,6.027 -6.027,6.027 H 44.867 c -1.109,0 -2.012,0.903 -2.012,2.012 0,1.109 0.903,2.008 2.012,2.008 h 12.051 c 5.551,0 10.047,-4.496 10.047,-10.047 V 18.082 C 66.965,12.531 62.469,8.035 56.918,8.035 Z M 41.52,30.133 V 12.055 h 15.398 c 3.328,0 6.027,2.695 6.027,6.027 V 33.48 H 44.867 c -1.851,0 -3.347,-1.496 -3.347,-3.347 z M 8.035,42.188 c 0,1.109 0.899,2.007 2.008,2.007 H 27.961 L 8.625,63.535 c -0.785,0.785 -0.785,2.055 0,2.84 0.785,0.785 2.055,0.785 2.84,0 l 19.34,-19.336 v 17.918 c 0,1.109 0.898,2.008 2.007,2.008 1.11,0 2.008,-0.899 2.008,-2.008 V 42.188 c 0,-1.11 -0.898,-2.008 -2.008,-2.008 H 10.043 c -1.109,0 -2.008,0.898 -2.008,2.008 z" style="fill:currentColor;fill-opacity:1;fill-rule:nonzero;stroke:none" transform="scale(1.3333333)" /> </g>
</svg>

