<?xml version="1.0" encoding="UTF-8" standalone="no"?> <svg version="1.1" id="I9ee11aeffd9f4399be13d88e6619c6c820251106165301" width="100" height="100" viewBox="0 0 100 100" xmlns="http://www.w3.org/2000/svg" xmlns:svg="http://www.w3.org/2000/svg"> <defs id="Id74018ee19af49589aec876711ce5e1420251106165301" /> <g id="I9f061309fc5e4060a5391cb6fc00d69b20251106165301"> <path id="Ia1dfe70d7ecc45e488d3900ae4e491aa20251106165301" d="M 35.234,14.34 C 28.367,7.473 17.281,7.34 10.25,14.035 4.703,19.316 3.289,27.316 6.121,33.98 h 11.906 l 5.008,-8.765 c 1.074,-1.875 3.09,-3.008 5.25,-2.949 2.16,0.058 4.113,1.304 5.078,3.238 l 5.067,10.129 3.707,-5.098 c 0.953,-1.308 2.406,-2.168 4.015,-2.367 1.61,-0.199 3.227,0.273 4.473,1.312 l 5.402,4.5 H 69.039 C 71.629,27.43 70.223,19.684 64.883,14.453 57.816,7.539 46.504,7.602 39.516,14.59 L 37.5,16.605 Z M 35.789,67.227 15.613,45.699 h 5.817 c 2.101,0 4.043,-1.125 5.086,-2.949 l 1.265,-2.215 4.477,8.957 c 0.918,1.832 2.719,3.051 4.758,3.219 2.039,0.172 4.019,-0.738 5.222,-2.391 l 5.696,-7.828 2.222,1.852 c 1.051,0.875 2.379,1.355 3.75,1.355 h 5.785 L 39.199,67.238 c -0.445,0.469 -1.062,0.731 -1.707,0.727 -0.644,0 -1.262,-0.27 -1.703,-0.738 z M 30.223,27.074 c -0.383,-0.765 -1.153,-1.262 -2.008,-1.293 -0.856,-0.035 -1.66,0.403 -2.098,1.137 L 19.766,37.496 H 6.25 c -1.293,0 -2.344,1.051 -2.344,2.344 0,1.297 1.051,2.344 2.344,2.344 h 14.844 c 0.824,0 1.586,-0.43 2.008,-1.137 l 4.836,-8.059 7.468,14.934 c 0.364,0.73 1.086,1.219 1.903,1.285 0.816,0.07 1.605,-0.293 2.086,-0.957 l 7.902,-10.863 5.109,4.254 c 0.422,0.351 0.953,0.543 1.5,0.543 h 14.063 c 1.293,0 2.343,-1.047 2.343,-2.344 0,-1.293 -1.05,-2.344 -2.343,-2.344 H 54.754 L 48.375,32.18 c -0.496,-0.414 -1.145,-0.602 -1.789,-0.524 -0.645,0.078 -1.227,0.422 -1.606,0.949 l -7.109,9.77 z" style="fill:currentColor;fill-opacity:1;fill-rule:nonzero;stroke:none" transform="scale(1.3333333)" /> </g>
</svg>

