<?xml version="1.0" encoding="UTF-8" standalone="no"?> <svg version="1.1" id="I515f5c4971844649acfbf94145cd909420251106142135" width="100" height="100" viewBox="0 0 100 100" xmlns="http://www.w3.org/2000/svg" xmlns:svg="http://www.w3.org/2000/svg"> <defs id="Id66a95ec501c41f098ee3f2379081a9920251106142135" /> <g id="If05f1ffdb9cf49258134062a8a664aa620251106142135"> <path id="Ie9fc129051ad42059e27389fa1d5b69020251106142135" d="m 36.25,29.773 c -0.309,0.625 -0.906,1.059 -1.594,1.161 l -4.543,0.66 3.285,3.203 c 0.5,0.488 0.727,1.187 0.61,1.875 l -0.778,4.523 4.067,-2.136 c 0.617,-0.325 1.351,-0.325 1.969,0 l 4.066,2.136 -0.777,-4.523 c -0.117,-0.688 0.109,-1.387 0.609,-1.875 l 3.285,-3.203 -4.539,-0.66 C 41.219,30.832 40.621,30.398 40.312,29.773 L 38.281,25.656 Z M 12.5,14.062 C 12.5,9.746 15.996,6.25 20.312,6.25 H 56.25 c 4.316,0 7.812,3.496 7.812,7.812 v 44.532 c 0,1.293 -1.05,2.344 -2.343,2.344 H 17.188 c 0,1.726 1.398,3.124 3.124,3.124 h 41.407 c 1.293,0 2.343,1.051 2.343,2.344 0,1.293 -1.05,2.344 -2.343,2.344 H 20.312 c -4.316,0 -7.812,-3.496 -7.812,-7.812 z m 20.441,12.836 -7.687,1.118 c -1.738,0.254 -2.434,2.39 -1.176,3.613 l 5.567,5.426 -1.317,7.656 c -0.297,1.73 1.52,3.051 3.074,2.234 l 6.879,-3.617 6.879,3.617 c 1.555,0.817 3.371,-0.504 3.074,-2.234 l -1.316,-7.656 5.566,-5.426 c 1.258,-1.223 0.563,-3.359 -1.175,-3.613 L 43.621,26.898 40.18,19.93 c -0.774,-1.575 -3.02,-1.575 -3.797,0 z" style="fill:currentColor;fill-opacity:1;fill-rule:nonzero;stroke:none" transform="scale(1.3333333)" /> </g>
</svg>

