<?xml version="1.0" encoding="UTF-8" standalone="no"?> <svg version="1.1" id="I421cbbd53ec84a098a941ae67dc6e2a920251110124419" width="100" height="100" viewBox="0 0 100 100" xmlns="http://www.w3.org/2000/svg" xmlns:svg="http://www.w3.org/2000/svg"> <defs id="I70d067dc6cf04919945481738968964b20251110124419" /> <g id="Id83bc7385f124a9ab6d76f6677b9cfe320251110124419"> <path id="I014d5ec912e64cef94570a9edeeddf2320251110124419" d="m 35.812,23.098 c -1.304,-1.309 -1.304,-3.43 0,-4.735 l 1.997,-1.996 c 5.75,-5.754 15.078,-5.754 20.832,0 5.754,5.754 5.754,15.082 0,20.836 l -1.993,1.992 c -1.308,1.309 -3.429,1.309 -4.734,0 z M 32.973,15.52 c -2.879,2.878 -2.879,7.542 0,10.418 L 49.07,42.039 c 2.879,2.875 7.543,2.875 10.418,0 l 1.992,-1.996 c 6.844,-6.844 7.293,-17.656 1.348,-25.02 L 69.055,8.785 C 69.84,8 69.84,6.73 69.055,5.945 68.27,5.16 66.996,5.16 66.211,5.945 L 59.984,12.18 C 52.621,6.238 41.809,6.684 34.965,13.527 Z m 6.222,36.382 c 1.309,1.309 1.309,3.426 0,4.735 l -1.992,1.992 c -5.754,5.754 -15.082,5.754 -20.832,0 -5.754,-5.754 -5.754,-15.082 0,-20.832 l 1.992,-1.996 c 1.309,-1.305 3.426,-1.305 4.735,0 z m 2.844,7.575 c 2.875,-2.875 2.875,-7.539 0,-10.418 L 25.938,32.961 c -2.876,-2.875 -7.54,-2.875 -10.415,0 l -1.996,1.992 c -6.843,6.844 -7.289,17.66 -1.343,25.024 l -6.227,6.234 c -0.785,0.785 -0.785,2.059 0,2.844 0.785,0.781 2.059,0.781 2.84,-0.004 l 6.226,-6.235 c 7.364,5.946 18.18,5.496 25.02,-1.343 z" style="fill:currentColor;fill-opacity:1;fill-rule:nonzero;stroke:none" transform="scale(1.3333333)" /> </g>
</svg>

