<?xml version="1.0" encoding="UTF-8" standalone="no"?> <svg version="1.1" id="Iedbf1e406f1f47f88267b74ff3f8037a20251110124420" width="100" height="100" viewBox="0 0 100 100" xmlns="http://www.w3.org/2000/svg" xmlns:svg="http://www.w3.org/2000/svg"> <defs id="I613ed9698a85477cba58dd505cca8fba20251110124420" /> <g id="Id9ab8c4a79434ba8952eee31b3ace02320251110124420"> <path id="I8f1efad8e89b4c51b54421c8e3ac0d6520251110124420" d="m 11.25,22.484 c 0,-2.07 1.68,-3.75 3.75,-3.75 h 1.875 c 1.035,0 1.875,-0.839 1.875,-1.875 0,-1.035 -0.84,-1.875 -1.875,-1.875 H 15 c -4.141,0 -7.5,3.36 -7.5,7.5 v 1.875 c 0,1.036 0.84,1.875 1.875,1.875 1.035,0 1.875,-0.839 1.875,-1.875 z" style="fill:currentColor;fill-opacity:1;fill-rule:nonzero;stroke:none" transform="scale(1.3333333)" /> <path id="Idb609ba8cec24cc1bb2d902d2cc534d320251110124420" d="m 15,52.512 c -2.07,0 -3.75,-1.676 -3.75,-3.75 v -1.875 c 0,-1.035 -0.84,-1.875 -1.875,-1.875 -1.035,0 -1.875,0.84 -1.875,1.875 v 1.875 c 0,4.144 3.359,7.5 7.5,7.5 h 0.938 c 1.035,0 1.874,-0.836 1.874,-1.875 0,-1.035 -0.839,-1.875 -1.874,-1.875 z" style="fill:currentColor;fill-opacity:1;fill-rule:nonzero;stroke:none" transform="scale(1.3333333)" /> <path id="Ic47cf38a3f7d4699b56313e697a47c9b20251110124420" d="m 9.375,30 c 1.035,0 1.875,0.84 1.875,1.875 v 7.5 c 0,1.035 -0.84,1.875 -1.875,1.875 C 8.34,41.25 7.5,40.41 7.5,39.375 v -7.5 C 7.5,30.84 8.34,30 9.375,30 Z" style="fill:currentColor;fill-opacity:1;fill-rule:nonzero;stroke:none" transform="scale(1.3333333)" /> <path id="Icb4e2c87fa6a4500b354175c91e4e51620251110124420" d="m 63.75,22.484 c 0,-2.07 -1.68,-3.75 -3.75,-3.75 h -1.875 c -1.035,0 -1.875,-0.839 -1.875,-1.875 0,-1.035 0.84,-1.875 1.875,-1.875 H 60 c 4.141,0 7.5,3.36 7.5,7.5 v 1.875 c 0,1.036 -0.84,1.875 -1.875,1.875 -1.035,0 -1.875,-0.839 -1.875,-1.875 z" style="fill:currentColor;fill-opacity:1;fill-rule:nonzero;stroke:none" transform="scale(1.3333333)" /> <path id="I9fa9ab88915b48c2961438506910411720251110124420" d="m 63.75,48.762 c 0,2.074 -1.68,3.75 -3.75,3.75 h -0.945 c -1.035,0 -1.875,0.84 -1.875,1.875 0,1.039 0.84,1.875 1.875,1.875 H 60 c 4.141,0 7.5,-3.356 7.5,-7.5 v -1.875 c 0,-1.035 -0.84,-1.875 -1.875,-1.875 -1.035,0 -1.875,0.84 -1.875,1.875 z" style="fill:currentColor;fill-opacity:1;fill-rule:nonzero;stroke:none" transform="scale(1.3333333)" /> <path id="I88595841612d41eeb1f5fa139270f27b20251110124420" d="M 63.75,31.875 C 63.75,30.84 64.59,30 65.625,30 66.66,30 67.5,30.84 67.5,31.875 v 7.5 c 0,1.035 -0.84,1.875 -1.875,1.875 -1.035,0 -1.875,-0.84 -1.875,-1.875 z" style="fill:currentColor;fill-opacity:1;fill-rule:nonzero;stroke:none" transform="scale(1.3333333)" /> <path id="I87caf68f47a44b92aee4baa6c27c8a8420251110124420" d="m 22.5,16.859 c 0,-1.035 0.84,-1.875 1.875,-1.875 h 9.375 c 1.035,0 1.875,0.84 1.875,1.875 0,1.036 -0.84,1.875 -1.875,1.875 h -9.375 c -1.035,0 -1.875,-0.839 -1.875,-1.875 z" style="fill:currentColor;fill-opacity:1;fill-rule:nonzero;stroke:none" transform="scale(1.3333333)" /> <path id="I08e17069c2d543c89054cc4bc8865e9d20251110124420" d="m 41.25,14.984 c -1.035,0 -1.875,0.84 -1.875,1.875 0,1.036 0.84,1.875 1.875,1.875 h 9.375 c 1.035,0 1.875,-0.839 1.875,-1.875 0,-1.035 -0.84,-1.875 -1.875,-1.875 z" style="fill:currentColor;fill-opacity:1;fill-rule:nonzero;stroke:none" transform="scale(1.3333333)" /> <path id="I6761f55263eb4ba0a0161c6516a8345820251110124420" d="M 18.75,22.5 C 16.68,22.5 15,24.18 15,26.25 V 45 c 0,2.07 1.68,3.75 3.75,3.75 H 28.867 L 30.723,45.965 23.414,35 c -1.726,-2.59 -1.019,-6.086 1.578,-7.801 2.586,-1.711 6.074,-1.004 7.793,1.574 l 4.699,7.051 4.7,-7.051 c 1.722,-2.578 5.207,-3.285 7.793,-1.574 2.597,1.715 3.304,5.211 1.578,7.801 l -7.309,10.965 1.856,2.785 H 56.25 C 58.32,48.75 60,47.07 60,45 V 26.25 C 60,24.18 58.32,22.5 56.25,22.5 Z" style="fill:currentColor;fill-opacity:1;fill-rule:nonzero;stroke:none" transform="scale(1.3333333)" /> <path id="I6d89537bb0154cbf9215e5d39bfb5a1920251110124420" d="m 27.059,30.328 c -0.864,0.57 -1.098,1.731 -0.524,2.594 l 8.695,13.043 -4.64,6.965 c -1.656,-0.578 -3.52,-0.578 -5.27,0.129 -3.843,1.554 -5.699,5.925 -4.148,9.765 1.555,3.84 5.926,5.696 9.769,4.145 3.84,-1.551 5.7,-5.922 4.145,-9.766 C 34.75,56.371 34.281,55.633 33.715,55 l 3.769,-5.656 3.786,5.676 c -0.563,0.628 -1.024,1.359 -1.36,2.183 -1.551,3.844 0.305,8.215 4.149,9.766 3.839,1.551 8.214,-0.305 9.765,-4.145 1.555,-3.84 -0.304,-8.211 -4.144,-9.765 -1.762,-0.711 -3.633,-0.707 -5.293,-0.121 l -4.649,-6.973 0.008,-0.012 -2.254,-3.379 -0.008,0.012 -7.82,-11.731 C 29.09,29.992 27.922,29.758 27.059,30.328 Z M 46.875,63.75 c -2.074,0 -3.75,-1.68 -3.75,-3.75 0,-2.07 1.676,-3.75 3.75,-3.75 2.07,0 3.75,1.68 3.75,3.75 0,2.07 -1.68,3.75 -3.75,3.75 z m -18.75,0 c -2.07,0 -3.75,-1.68 -3.75,-3.75 0,-2.07 1.68,-3.75 3.75,-3.75 2.07,0 3.75,1.68 3.75,3.75 0,2.07 -1.68,3.75 -3.75,3.75 z" style="fill:currentColor;fill-opacity:1;fill-rule:nonzero;stroke:none" transform="scale(1.3333333)" /> <path id="I578705bd8d484d22b59cf1f08883b8c420251110124420" d="M 39.746,39.191 42,42.574 48.434,32.922 c 0.574,-0.863 0.339,-2.024 -0.524,-2.594 -0.863,-0.57 -2.031,-0.336 -2.605,0.527 z" style="fill:currentColor;fill-opacity:1;fill-rule:nonzero;stroke:none" transform="scale(1.3333333)" /> </g>
</svg>

