<?xml version="1.0" encoding="UTF-8" standalone="no"?> <svg version="1.1" id="I3a96e60e4c6445b6ad2fe74d8e699c2e20251105191527" width="100" height="100" viewBox="0 0 100 100" xmlns="http://www.w3.org/2000/svg" xmlns:svg="http://www.w3.org/2000/svg"> <defs id="I6a6df9acc372405c8b634d8306c6f68320251105191527" /> <g id="Ic82143ff75a047b29d51503f3e63e0ce20251105191527"> <path id="I5d7573991c464c0a878de365a6fa5df520251105191527" d="m 65.121,32.645 c 0,-0.368 -0.301,-0.668 -0.668,-0.668 H 59.43 c -0.368,0 -0.668,0.3 -0.668,0.668 0,11.746 -9.52,21.261 -21.262,21.261 -11.742,0 -21.262,-9.515 -21.262,-21.261 0,-0.368 -0.3,-0.668 -0.668,-0.668 h -5.023 c -0.367,0 -0.668,0.3 -0.668,0.668 0,14.121 10.594,25.773 24.273,27.421 v 8.571 H 21.988 c -1.144,0 -2.066,1.199 -2.066,2.679 v 3.016 c 0,0.367 0.234,0.668 0.519,0.668 h 34.118 c 0.285,0 0.519,-0.301 0.519,-0.668 v -3.016 c 0,-1.48 -0.922,-2.679 -2.066,-2.679 h -12.5 V 60.109 C 54.352,58.602 65.121,46.883 65.121,32.645 Z M 37.5,46.875 c 7.859,0 14.23,-6.293 14.23,-14.063 V 14.062 C 51.73,6.293 45.359,0 37.5,0 29.641,0 23.27,6.293 23.27,14.062 v 18.75 c 0,7.77 6.371,14.063 14.23,14.063 z M 29.633,14.062 c 0,-4.234 3.508,-7.699 7.867,-7.699 4.359,0 7.867,3.465 7.867,7.699 v 18.75 c 0,4.235 -3.508,7.7 -7.867,7.7 -4.359,0 -7.867,-3.465 -7.867,-7.7 z" style="fill:currentColor;fill-opacity:1;fill-rule:nonzero;stroke:none" transform="scale(1.3333333)" /> </g>
</svg>

