<?xml version="1.0" encoding="UTF-8" standalone="no"?> <svg version="1.1" id="Ifb021610602d4d95b87b7bc75349b49620251110130508" width="100" height="100" viewBox="0 0 100 100" xmlns="http://www.w3.org/2000/svg" xmlns:svg="http://www.w3.org/2000/svg"> <defs id="Id434eb1ca9dd4ff0a3d5ae948fae09a320251110130508" /> <g id="I332a7b4f6baa4485a4ce10d0ef79553c20251110130508"> <path id="I06c3618e18ad4a15b6afb52e7c00eec620251110130508" d="m 47.816,26.602 c -0.765,-0.11 -1.425,-0.594 -1.765,-1.286 L 38.555,10.031 c -0.43,-0.875 -1.676,-0.875 -2.106,0 l -7.496,15.285 c -0.34,0.692 -1,1.176 -1.765,1.286 l -16.805,2.457 c -0.961,0.14 -1.344,1.32 -0.653,1.996 l 2.942,2.886 c -0.723,0.371 -1.422,0.782 -2.094,1.231 L 8.09,32.73 C 6.012,30.695 7.164,27.16 10.043,26.742 L 26.852,24.285 34.348,9 c 1.285,-2.625 5.023,-2.625 6.312,0 l 7.496,15.285 16.809,2.457 c 2.875,0.418 4.027,3.953 1.953,5.988 l -12.18,11.942 2.871,16.84 c 0.493,2.875 -2.531,5.058 -5.109,3.695 L 42.168,59.742 c 0.262,-0.75 0.484,-1.515 0.664,-2.301 l 10.766,5.696 c 0.859,0.453 1.863,-0.274 1.703,-1.235 L 52.43,45.066 C 52.301,44.309 52.551,43.539 53.098,43 L 65.277,31.055 c 0.692,-0.676 0.305,-1.856 -0.652,-1.996 z m -7.972,26.132 c 0,-9.707 -7.871,-17.578 -17.578,-17.578 -9.707,0 -17.578,7.871 -17.578,17.578 0,9.707 7.871,17.578 17.578,17.578 9.707,0 17.578,-7.871 17.578,-17.578 z M 11.133,50.391 h 18.023 l -6.375,-6.375 c -0.687,-0.688 -0.687,-1.797 0,-2.485 0.688,-0.687 1.797,-0.687 2.485,0 l 9.375,9.375 c 0.687,0.688 0.687,1.797 0,2.485 l -9.375,9.375 c -0.688,0.687 -1.797,0.687 -2.485,0 -0.687,-0.688 -0.687,-1.797 0,-2.485 l 6.375,-6.375 H 11.133 c -0.973,0 -1.758,-0.785 -1.758,-1.758 0,-0.972 0.785,-1.757 1.758,-1.757 z" style="fill:currentColor;fill-opacity:1;fill-rule:nonzero;stroke:none" transform="scale(1.3333333)" /> </g>
</svg>

