<?xml version="1.0" encoding="UTF-8" standalone="no"?> <svg version="1.1" id="I841ce73b77ae4709afa3cd298a8e1d2120251110130508" width="100" height="100" viewBox="0 0 100 100" xmlns="http://www.w3.org/2000/svg" xmlns:svg="http://www.w3.org/2000/svg"> <defs id="I94c8c0f2a8a946869be8eed7f881f67920251110130508" /> <g id="Ifd2538b9dcaa48388a8ef2f0ac34dc6020251110130508"> <path id="Id65b5913f97a428aa7ef1fc7588cae3920251110130508" d="m 20.457,16.836 c 1.141,-0.941 1.301,-2.633 0.359,-3.774 -0.941,-1.14 -2.632,-1.3 -3.773,-0.359 C 9.91,18.598 5.355,27.516 5.355,37.5 c 0,9.98 4.555,18.902 11.688,24.793 1.141,0.941 2.832,0.781 3.773,-0.359 0.942,-1.141 0.782,-2.829 -0.359,-3.77 C 14.5,53.246 10.715,45.816 10.715,37.5 c 0,-8.316 3.785,-15.746 9.742,-20.664 z m 37.5,-4.133 c -1.141,-0.941 -2.832,-0.781 -3.773,0.359 -0.942,1.141 -0.782,2.833 0.359,3.774 5.957,4.918 9.742,12.348 9.742,20.664 0,8.316 -3.785,15.746 -9.742,20.664 -1.141,0.941 -1.301,2.629 -0.359,3.77 0.941,1.14 2.632,1.3 3.773,0.359 C 65.09,56.402 69.645,47.48 69.645,37.5 69.645,27.516 65.09,18.598 57.957,12.703 Z M 24.102,34.82 c -1.481,0 -2.68,1.2 -2.68,2.68 0,1.48 1.199,2.68 2.68,2.68 h 26.785 c 1.48,0 2.679,-1.2 2.679,-2.68 0,-1.48 -1.199,-2.68 -2.679,-2.68 z" style="fill:currentColor;fill-opacity:1;fill-rule:nonzero;stroke:none" transform="scale(1.3333333)" /> </g>
</svg>

