<?xml version="1.0" encoding="UTF-8" standalone="no"?> <svg version="1.1" id="I4d5f4a7b71cf4f5e969e2c4996e7274d20251106123559" width="100" height="100" viewBox="0 0 100 100" xmlns="http://www.w3.org/2000/svg" xmlns:svg="http://www.w3.org/2000/svg"> <defs id="I2d3313a5fe634fcf80f103f0f7d0f25f20251106123559" /> <g id="Iafb1d659c5a14af298e26bb13f4a73ec20251106123559"> <path id="I313c4cd25c0c4b35a1814d3a663b98e320251106123559" d="m 48.707,14.867 17.559,17.559 c 4.504,4.504 4.504,11.804 0,16.304 -2.934,2.938 -7.055,3.958 -10.817,3.071 v 0.66 c 0,3.574 -2.894,6.469 -6.469,6.469 h -7.46 v -2.211 c 0,-4.676 -3.786,-8.504 -8.481,-8.504 h -4.254 c -1.109,0 -2.012,0.902 -2.012,2.012 0,1.109 0.903,2.007 2.012,2.007 h 4.254 c 2.457,0 4.465,2.012 4.465,4.485 V 58.93 H 19.82 c -3.574,0 -6.425,-2.895 -6.425,-6.469 v -8.438 c 0,-0.625 0.039,-1.242 0.113,-1.847 -0.149,0.008 -0.297,0.012 -0.449,0.012 -4.254,0 -7.704,-3.446 -7.704,-7.7 0,-4.254 3.45,-7.699 7.704,-7.699 3.253,0 6.039,2.02 7.164,4.875 2.226,-1.394 4.859,-2.199 7.683,-2.199 h 12.989 c 1.949,0 3.812,0.387 5.515,1.082 0.528,-0.891 1.176,-1.649 1.93,-2.426 L 41.895,21.68 c -1.879,-1.883 -1.879,-4.934 0,-6.813 1.882,-1.883 4.933,-1.883 6.812,0 z" style="fill:currentColor;fill-opacity:1;fill-rule:nonzero;stroke:none" transform="scale(1.3333333)" /> </g>
</svg>

