<?xml version="1.0" encoding="UTF-8" standalone="no"?> <svg version="1.1" id="Ifbfd8f098f02471ca2bea4a99ddaf64e20251110124420" width="100" height="100" viewBox="0 0 100 100" xmlns="http://www.w3.org/2000/svg" xmlns:svg="http://www.w3.org/2000/svg"> <defs id="I692e151408b641b6b84dc29ccb68806320251110124420" /> <g id="Iba19ea67aa6248b4b83d2715437bf88220251110124420"> <path id="I3f1358b1c8964801a62df7e94b9facd620251110124420" d="m 21.094,9.375 h -3.125 c -4.746,0 -8.594,3.848 -8.594,8.594 v 39.062 c 0,4.746 3.848,8.594 8.594,8.594 h 0.781 v -18.75 c 0,-3.883 3.148,-7.031 7.031,-7.031 H 40.82 c 3.633,-3.391 8.508,-5.469 13.868,-5.469 4.027,0 7.781,1.172 10.937,3.191 V 25.891 c 0,-2.692 -1.07,-5.274 -2.977,-7.18 L 56.289,12.352 C 54.41,10.473 51.871,9.406 49.219,9.375 v 14.063 c 0,3.882 -3.149,7.031 -7.031,7.031 H 28.125 c -3.883,0 -7.031,-3.149 -7.031,-7.031 z m 4.687,35.156 h 11.313 c -1.731,2.989 -2.719,6.457 -2.719,10.157 0,4.027 1.172,7.781 3.191,10.937 H 23.438 v -18.75 c 0,-1.293 1.05,-2.344 2.343,-2.344 z M 44.531,9.375 v 14.063 c 0,1.292 -1.051,2.343 -2.343,2.343 H 28.125 c -1.293,0 -2.344,-1.051 -2.344,-2.343 V 9.375 Z m 27.344,45.313 c 0,9.492 -7.695,17.187 -17.187,17.187 C 45.195,71.875 37.5,64.18 37.5,54.688 37.5,45.195 45.195,37.5 54.688,37.5 c 9.492,0 17.187,7.695 17.187,17.188 z M 45.312,53.125 c -0.863,0 -1.562,0.699 -1.562,1.563 0,0.863 0.699,1.562 1.562,1.562 h 14.977 l -5.144,5.145 c -0.61,0.609 -0.61,1.601 0,2.21 0.609,0.61 1.601,0.61 2.21,0 l 7.813,-7.812 c 0.609,-0.609 0.609,-1.602 0,-2.211 L 57.355,45.77 c -0.609,-0.61 -1.601,-0.61 -2.21,0 -0.61,0.609 -0.61,1.601 0,2.21 l 5.144,5.145 z" style="fill:currentColor;fill-opacity:1;fill-rule:nonzero;stroke:none" transform="scale(1.3333333)" /> </g>
</svg>

