<?xml version="1.0" encoding="UTF-8" standalone="no"?> <svg version="1.1" id="I1ed30448d3424fd59ca51450a402794820251110124420" width="100" height="100" viewBox="0 0 100 100" xmlns="http://www.w3.org/2000/svg" xmlns:svg="http://www.w3.org/2000/svg"> <defs id="Ifa675614d96d47d9a6a759409e5fbac220251110124420" /> <g id="Ic45c91cfbccc42e6ba9d17ae8c1a806020251110124420"> <path id="I83753f109f5540a4b0a261edebd8f03a20251110124420" d="m 37.5,9.375 c -8.957,0 -16.938,4.187 -22.09,10.715 h 6.688 c 1.109,0 2.007,0.898 2.007,2.008 0,1.109 -0.898,2.007 -2.007,2.007 H 11.383 c -1.11,0 -2.008,-0.898 -2.008,-2.007 V 11.383 c 0,-1.11 0.898,-2.008 2.008,-2.008 1.109,0 2.012,0.898 2.012,2.008 v 4.855 C 19.281,9.566 27.898,5.355 37.5,5.355 55.254,5.355 69.645,19.746 69.645,37.5 69.645,55.254 55.254,69.645 37.5,69.645 19.746,69.645 5.355,55.254 5.355,37.5 c 0,-1.25 0.075,-2.48 0.211,-3.695 0.11,-0.961 0.946,-1.66 1.914,-1.66 1.247,0 2.18,1.136 2.051,2.375 C 9.43,35.5 9.375,36.492 9.375,37.5 9.375,53.031 21.969,65.625 37.5,65.625 53.031,65.625 65.625,53.031 65.625,37.5 65.625,21.969 53.031,9.375 37.5,9.375 Z m -8.035,18.758 c 0,-3.102 3.359,-5.031 6.039,-3.473 l 16.074,9.363 c 2.66,1.551 2.66,5.395 0,6.946 l -16.074,9.363 c -2.68,1.559 -6.039,-0.371 -6.039,-3.473 z" style="fill:currentColor;fill-opacity:1;fill-rule:nonzero;stroke:none" transform="scale(1.3333333)" /> </g>
</svg>

