<?xml version="1.0" encoding="UTF-8" standalone="no"?> <svg version="1.1" id="I328d43c574c64feb99a14720fadfea8620251106123600" width="100" height="100" viewBox="0 0 100 100" xmlns="http://www.w3.org/2000/svg" xmlns:svg="http://www.w3.org/2000/svg"> <defs id="I3d907aa91a27412e93e37b576324940120251106123600" /> <g id="I4e4c14b6c13c44e1bd1f0f9dcbbd556b20251106123600"> <path id="I4d9926062cf3458e8391373cc7643ab220251106123600" d="m 18.75,68.438 c 0,1.554 -1.258,2.812 -2.812,2.812 -1.555,0 -2.813,-1.258 -2.813,-2.812 V 66.562 C 13.125,62.938 16.062,60 19.688,60 h 33.75 C 57.062,60 60,62.938 60,66.562 v 1.876 c 0,1.554 -1.258,2.812 -2.812,2.812 -1.555,0 -2.813,-1.258 -2.813,-2.812 v -1.876 c 0,-0.519 -0.418,-0.937 -0.937,-0.937 h -33.75 c -0.52,0 -0.938,0.418 -0.938,0.937 z M 36.562,56.25 c 1.555,0 2.813,-1.258 2.813,-2.812 V 28.352 l 11.137,11.136 c 1.097,1.098 2.879,1.098 3.976,0 1.098,-1.097 1.098,-2.879 0,-3.976 L 38.551,19.574 c -1.098,-1.097 -2.879,-1.097 -3.977,0 L 18.637,35.512 c -1.098,1.097 -1.098,2.879 0,3.976 1.097,1.098 2.879,1.098 3.976,0 L 33.75,28.352 v 25.086 c 0,1.554 1.258,2.812 2.812,2.812 z M 13.125,8.438 c 0,3.624 2.937,6.562 6.563,6.562 h 33.75 C 57.062,15 60,12.062 60,8.438 V 6.562 C 60,5.008 58.742,3.75 57.188,3.75 c -1.555,0 -2.813,1.258 -2.813,2.812 v 1.876 c 0,0.519 -0.418,0.937 -0.937,0.937 h -33.75 c -0.52,0 -0.938,-0.418 -0.938,-0.937 V 6.562 c 0,-1.554 -1.258,-2.812 -2.812,-2.812 -1.555,0 -2.813,1.258 -2.813,2.812 z" style="fill:currentColor;fill-opacity:1;fill-rule:nonzero;stroke:none" transform="scale(1.3333333)" /> </g>
</svg>

