<?xml version="1.0" encoding="UTF-8" standalone="no"?> <svg version="1.1" id="Iac7a5bd797fc461c9072cb1c4928f9f120251110135155" width="100" height="100" viewBox="0 0 100 100" xmlns="http://www.w3.org/2000/svg" xmlns:svg="http://www.w3.org/2000/svg"> <defs id="Ib202237e48ac4ef487dca0ab99b1206f20251110135155" /> <g id="I580ffc0cf4104539a09240e65d80ec4220251110135155"> <path id="Ie87b531b98b74b6e869b1bfc4669f0fb20251110135155" d="m 9.375,17.969 c 0,-1.293 1.051,-2.344 2.344,-2.344 h 29.687 c 1.293,0 2.344,1.051 2.344,2.344 0,1.293 -1.051,2.343 -2.344,2.343 H 11.719 c -1.293,0 -2.344,-1.05 -2.344,-2.343 z m 40.625,0 c 0,-1.293 1.051,-2.344 2.344,-2.344 h 10.937 c 1.293,0 2.344,1.051 2.344,2.344 0,1.293 -1.051,2.343 -2.344,2.343 H 52.344 C 51.051,20.312 50,19.262 50,17.969 Z m -40.625,12.5 c 0,-1.293 1.051,-2.344 2.344,-2.344 h 29.687 c 1.293,0 2.344,1.051 2.344,2.344 0,1.293 -1.051,2.343 -2.344,2.343 H 11.719 c -1.293,0 -2.344,-1.05 -2.344,-2.343 z m 40.625,0 c 0,-1.293 1.051,-2.344 2.344,-2.344 h 10.937 c 1.293,0 2.344,1.051 2.344,2.344 0,1.293 -1.051,2.343 -2.344,2.343 H 52.344 C 51.051,32.812 50,31.762 50,30.469 Z m -40.625,12.5 c 0,-1.293 1.051,-2.344 2.344,-2.344 h 29.687 c 1.293,0 2.344,1.051 2.344,2.344 0,1.293 -1.051,2.343 -2.344,2.343 H 11.719 c -1.293,0 -2.344,-1.05 -2.344,-2.343 z m 40.625,0 c 0,-1.293 1.051,-2.344 2.344,-2.344 h 10.937 c 1.293,0 2.344,1.051 2.344,2.344 0,1.293 -1.051,2.343 -2.344,2.343 H 52.344 C 51.051,45.312 50,44.262 50,42.969 Z m -40.625,12.5 c 0,-1.293 1.051,-2.344 2.344,-2.344 h 29.687 c 1.293,0 2.344,1.051 2.344,2.344 0,1.293 -1.051,2.343 -2.344,2.343 H 11.719 c -1.293,0 -2.344,-1.05 -2.344,-2.343 z m 40.625,0 c 0,-1.293 1.051,-2.344 2.344,-2.344 h 10.937 c 1.293,0 2.344,1.051 2.344,2.344 0,1.293 -1.051,2.343 -2.344,2.343 H 52.344 C 51.051,57.812 50,56.762 50,55.469 Z" style="fill:currentColor;fill-opacity:1;fill-rule:nonzero;stroke:none" transform="scale(1.3333333)" /> </g>
</svg>

