<?xml version="1.0" encoding="UTF-8" standalone="no"?> <svg version="1.1" id="Ia4caaf4ec712471c94eb8953303d0c4c20251110124422" width="100" height="100" viewBox="0 0 100 100" xmlns="http://www.w3.org/2000/svg" xmlns:svg="http://www.w3.org/2000/svg"> <defs id="Ib70dc9b15ea2409c9be7161787d4caba20251110124422" /> <g id="I5ecd6ea980ed4a4490939d809e8c0fa320251110124422"> <path id="Iaea69c48693e434aa3fbaaa77bf5597120251110124422" d="m 15.414,10.715 c -5.551,0 -10.047,4.496 -10.047,10.043 v 33.484 c 0,5.547 4.496,10.043 10.047,10.043 H 37.137 C 35.66,61.488 34.82,58.297 34.82,54.91 c 0,-11.094 8.996,-20.09 20.09,-20.09 5.82,0 11.067,2.477 14.735,6.434 V 20.758 c 0,-5.547 -4.497,-10.043 -10.047,-10.043 z M 72.32,54.91 c 0,9.617 -7.793,17.41 -17.41,17.41 -9.617,0 -17.41,-7.793 -17.41,-17.41 0,-9.617 7.793,-17.41 17.41,-17.41 9.617,0 17.41,7.793 17.41,17.41 z M 56.25,44.195 c 0,-0.738 -0.602,-1.34 -1.34,-1.34 -0.738,0 -1.34,0.602 -1.34,1.34 v 9.375 h -9.375 c -0.738,0 -1.34,0.602 -1.34,1.34 0,0.738 0.602,1.34 1.34,1.34 h 9.375 v 9.375 c 0,0.738 0.602,1.34 1.34,1.34 0.738,0 1.34,-0.602 1.34,-1.34 V 56.25 h 9.375 c 0.738,0 1.34,-0.602 1.34,-1.34 0,-0.738 -0.602,-1.34 -1.34,-1.34 H 56.25 Z" style="fill:currentColor;fill-opacity:1;fill-rule:nonzero;stroke:none" transform="scale(1.3333333)" /> </g>
</svg>

