<?xml version="1.0" encoding="UTF-8" standalone="no"?> <svg version="1.1" id="Ia96d2cf161854302ba3474381783ad1220251106143238" width="100" height="100" viewBox="0 0 100 100" xmlns="http://www.w3.org/2000/svg" xmlns:svg="http://www.w3.org/2000/svg"> <defs id="I2085430f33824c40a1385dea9f4c304920251106143238" /> <g id="Ica2e42b5df6c41e3be5e704cc34cd52620251106143238"> <path id="I3bfb35077ccd4f89a54ce2a0d84c62db20251106143238" d="M 66.965,58.258 V 25.445 H 20.043 c 0.199,1.414 -0.242,2.899 -1.328,3.985 l -5.356,5.359 c -1.441,1.438 -3.582,1.746 -5.324,0.922 v 22.547 c 0,4.808 3.899,8.707 8.707,8.707 h 41.516 c 4.808,0 8.707,-3.899 8.707,-8.707 z M 20.066,50.227 c 0,-1.848 1.5,-3.348 3.348,-3.348 1.848,0 3.348,1.5 3.348,3.348 0,1.851 -1.5,3.347 -3.348,3.347 -1.848,0 -3.348,-1.496 -3.348,-3.347 z m 14.075,0 c 0,-1.848 1.5,-3.348 3.347,-3.348 1.848,0 3.348,1.5 3.348,3.348 0,1.851 -1.5,3.347 -3.348,3.347 -1.847,0 -3.347,-1.496 -3.347,-3.347 z M 20.066,36.836 c 0,-1.852 1.5,-3.352 3.348,-3.352 1.848,0 3.348,1.5 3.348,3.352 0,1.848 -1.5,3.348 -3.348,3.348 -1.848,0 -3.348,-1.5 -3.348,-3.348 z m 14.075,0 c 0,-1.852 1.5,-3.352 3.347,-3.352 1.848,0 3.348,1.5 3.348,3.352 0,1.848 -1.5,3.348 -3.348,3.348 -1.847,0 -3.347,-1.5 -3.347,-3.348 z m 14.074,0 c 0,-1.852 1.5,-3.352 3.347,-3.352 1.852,0 3.348,1.5 3.348,3.352 0,1.848 -1.496,3.348 -3.348,3.348 -1.847,0 -3.347,-1.5 -3.347,-3.348 z m 18.75,-20.094 c 0,-4.808 -3.899,-8.707 -8.707,-8.707 H 16.742 c -4.808,0 -8.707,3.899 -8.707,8.707 v 9.883 l -1.926,-1.93 c -0.785,-0.785 -2.058,-0.785 -2.843,0 -0.782,0.785 -0.782,2.059 0,2.84 l 5.359,5.36 c 0.785,0.785 2.055,0.785 2.84,0 l 5.359,-5.36 c 0.781,-0.781 0.781,-2.055 0,-2.84 -0.785,-0.785 -2.058,-0.785 -2.844,0 l -1.925,1.93 V 21.43 h 54.91 z" style="fill:currentColor;fill-opacity:1;fill-rule:nonzero;stroke:none" transform="scale(1.3333333)" /> </g>
</svg>

