<?xml version="1.0" encoding="UTF-8" standalone="no"?> <svg version="1.1" id="I08d5fb8dfc1e426499fed9243d0bf1ab20251106164749" width="100" height="100" viewBox="0 0 100 100" xmlns="http://www.w3.org/2000/svg" xmlns:svg="http://www.w3.org/2000/svg"> <defs id="Id6739f77168b418d9508eeaad039400420251106164749" /> <g id="If5fe8351433849c080ea6b157bbce76920251106164749"> <path id="I708018f4fa544b3082caed372078fac420251106164749" d="m 37.488,7.473 c -2.886,0 -4.797,2.027 -5.883,3.847 -1.101,1.852 -1.691,4.012 -1.769,5.41 -0.152,2.778 0.269,5.204 1.648,6.958 1.442,1.832 3.606,2.535 6.004,2.535 2.43,0 4.586,-0.785 6.016,-2.618 1.383,-1.769 1.832,-4.179 1.652,-6.894 C 45.07,15.391 44.473,13.234 43.379,11.379 42.301,9.562 40.395,7.473 37.488,7.473 Z M 11.289,36.715 23.305,47.738 c 1.543,1.414 3.949,1.293 5.34,-0.273 l 3.246,-3.66 c 2.984,-3.36 8.234,-3.36 11.218,0 l 3.246,3.66 c 1.391,1.566 3.797,1.687 5.34,0.273 L 63.711,36.715 C 63.316,32.941 60.125,30 56.25,30 h -37.5 c -3.875,0 -7.066,2.941 -7.461,6.715 z M 63.75,41.766 54.23,50.5 c -3.085,2.832 -7.898,2.586 -10.679,-0.547 l -3.246,-3.656 c -1.493,-1.68 -4.117,-1.68 -5.61,0 l -3.246,3.656 C 28.668,53.086 23.855,53.332 20.77,50.5 L 11.25,41.766 V 60 H 9.375 C 8.34,60 7.5,60.84 7.5,61.875 c 0,1.035 0.84,1.875 1.875,1.875 h 56.25 C 66.66,63.75 67.5,62.91 67.5,61.875 67.5,60.84 66.66,60 65.625,60 H 63.75 Z" style="fill:currentColor;fill-opacity:1;fill-rule:nonzero;stroke:none" transform="scale(1.3333333)" /> </g>
</svg>

