<?xml version="1.0" encoding="UTF-8" standalone="no"?> <svg version="1.1" id="I851f3e80b84544ffb948d87010a169e620251110130510" width="100" height="100" viewBox="0 0 100 100" xmlns="http://www.w3.org/2000/svg" xmlns:svg="http://www.w3.org/2000/svg"> <defs id="Ie2f5b4ca9d7c4b679120290b244cedb720251110130510" /> <g id="I53b1d3b45eaa4633bebd3e8717e91dd920251110130510"> <path id="I7d2d3bc664c742498c5b3bf72cd9e2f220251110130510" d="m 6.25,17.969 c 0,-1.293 1.051,-2.344 2.344,-2.344 h 57.812 c 1.293,0 2.344,1.051 2.344,2.344 0,1.293 -1.051,2.343 -2.344,2.343 H 8.594 c -1.293,0 -2.344,-1.05 -2.344,-2.343 z m 0,40.625 c 0,-1.293 1.051,-2.344 2.344,-2.344 h 57.812 c 1.293,0 2.344,1.051 2.344,2.344 0,1.293 -1.051,2.344 -2.344,2.344 H 8.594 C 7.301,60.938 6.25,59.887 6.25,58.594 Z M 8.594,35.938 c -1.293,0 -2.344,1.05 -2.344,2.343 0,1.293 1.051,2.344 2.344,2.344 h 57.812 c 1.293,0 2.344,-1.051 2.344,-2.344 0,-1.293 -1.051,-2.343 -2.344,-2.343 z" style="fill:currentColor;fill-opacity:1;fill-rule:nonzero;stroke:none" transform="scale(1.3333333)" /> </g>
</svg>

