<?xml version="1.0" encoding="UTF-8" standalone="no"?> <svg version="1.1" id="I8e0aa70cc63341239d04989f6c9782ac20251110130508" width="100" height="100" viewBox="0 0 100 100" xmlns="http://www.w3.org/2000/svg" xmlns:svg="http://www.w3.org/2000/svg"> <defs id="I4a3e5dac641a429dbe192f3045ebe83320251110130508" /> <g id="Ia6d1254359b744baade339d9590d928520251110130508"> <path id="I983fc781afd147979fd106d3e3dc00e320251110130508" d="m 33.719,9.695 c 1.547,-3.136 6.019,-3.136 7.566,0 l 7.367,14.93 16.477,2.395 c 3.461,0.503 4.844,4.753 2.34,7.195 l -11.922,11.621 2.812,16.41 c 0.59,3.445 -3.027,6.074 -6.121,4.449 L 39.871,60.191 c 0.492,-1.75 0.754,-3.597 0.754,-5.503 0,-11.219 -9.094,-20.313 -20.313,-20.313 -3.613,0 -7.007,0.941 -9.949,2.598 L 7.535,34.215 C 5.031,31.773 6.414,27.523 9.871,27.02 L 26.348,24.625 Z M 37.5,54.688 C 37.5,64.18 29.805,71.875 20.312,71.875 10.82,71.875 3.125,64.18 3.125,54.688 3.125,45.195 10.82,37.5 20.312,37.5 29.805,37.5 37.5,45.195 37.5,54.688 Z M 10.938,53.125 c -0.864,0 -1.563,0.699 -1.563,1.563 0,0.863 0.699,1.562 1.563,1.562 h 14.976 l -5.144,5.145 c -0.61,0.609 -0.61,1.597 0,2.207 0.609,0.613 1.601,0.613 2.21,0 l 7.813,-7.813 c 0.609,-0.609 0.609,-1.598 0,-2.207 L 22.98,45.77 c -0.609,-0.61 -1.601,-0.61 -2.21,0 -0.61,0.609 -0.61,1.597 0,2.207 l 5.144,5.148 z" style="fill:currentColor;fill-opacity:1;fill-rule:nonzero;stroke:none" transform="scale(1.3333333)" /> </g>
</svg>

