<?xml version="1.0" encoding="UTF-8" standalone="no"?> <svg version="1.1" id="I7f5ad28716e74e208f0a89038818dc7620251110124421" width="100" height="100" viewBox="0 0 100 100" xmlns="http://www.w3.org/2000/svg" xmlns:svg="http://www.w3.org/2000/svg"> <defs id="Icd114facb69944699df121a3825fa87720251110124421" /> <g id="If51a10f1f5a14144b5248b20f914ae1f20251110124421"> <path id="Id0b32ac071834dd183f45a7f5fb90b1120251110124421" d="m 28.906,18.75 c -1.293,0 -2.344,1.051 -2.344,2.344 0,1.293 1.051,2.344 2.344,2.344 h 17.188 c 1.293,0 2.344,-1.051 2.344,-2.344 0,-1.293 -1.051,-2.344 -2.344,-2.344 z m -2.344,36.719 c 0,-1.293 1.051,-2.344 2.344,-2.344 h 6.508 c -0.578,1.461 -0.934,3.039 -1.019,4.687 h -5.489 c -1.293,0 -2.344,-1.05 -2.344,-2.343 z m 11.833,-7.031 c 2.222,-2.368 5.214,-4.008 8.574,-4.52 -0.27,-0.109 -0.567,-0.168 -0.875,-0.168 H 28.906 c -1.293,0 -2.344,1.051 -2.344,2.344 0,1.293 1.051,2.344 2.344,2.344 z M 51.562,15.625 V 43.75 H 56.25 V 15.625 c 0,-5.176 -4.195,-9.375 -9.375,-9.375 h -18.75 c -5.176,0 -9.375,4.199 -9.375,9.375 v 43.75 c 0,5.18 4.199,9.375 9.375,9.375 h 10.27 c -1.27,-1.352 -2.286,-2.938 -2.981,-4.688 h -7.289 c -2.59,0 -4.687,-2.097 -4.687,-4.687 v -43.75 c 0,-2.59 2.097,-4.687 4.687,-4.687 h 18.75 c 2.59,0 4.687,2.097 4.687,4.687 z m 20.313,42.969 c 0,-6.473 -5.246,-11.719 -11.719,-11.719 l -0.316,0.02 c -1.145,0.156 -2.028,1.136 -2.028,2.324 0,1.293 1.051,2.343 2.344,2.343 l 0.481,0.016 c 3.66,0.25 6.551,3.293 6.551,7.016 0,3.883 -3.149,7.031 -7.032,7.031 l -0.011,0.016 -0.317,0.023 c -1.144,0.16 -2.019,1.145 -2.016,2.328 0.008,1.297 1.059,2.34 2.356,2.336 v -0.016 l 0.621,-0.015 C 66.961,69.973 71.875,64.855 71.875,58.594 Z M 51.562,49.219 c 0,-1.293 -1.05,-2.344 -2.343,-2.344 l -0.621,0.016 C 42.414,47.215 37.5,52.332 37.5,58.594 c 0,6.472 5.246,11.718 11.719,11.718 l 0.316,-0.019 c 1.145,-0.156 2.027,-1.137 2.027,-2.324 0,-1.293 -1.05,-2.344 -2.343,-2.344 l -0.481,-0.016 c -3.66,-0.25 -6.55,-3.293 -6.55,-7.015 0,-3.883 3.148,-7.032 7.031,-7.032 l 0.316,-0.019 c 1.145,-0.156 2.027,-1.137 2.027,-2.324 z M 62.5,58.594 c 0,-1.293 -1.051,-2.344 -2.344,-2.344 H 49.219 l -0.317,0.02 c -1.144,0.156 -2.027,1.136 -2.027,2.324 0,1.293 1.051,2.344 2.344,2.344 h 10.937 l 0.317,-0.02 C 61.617,60.762 62.5,59.781 62.5,58.594 Z" style="fill:currentColor;fill-opacity:1;fill-rule:nonzero;stroke:none" transform="scale(1.3333333)" /> </g>
</svg>

