<?xml version="1.0" encoding="UTF-8" standalone="no"?> <svg version="1.1" id="Ie44f402f47104449a4005af8d20e81ca20251106161453" width="100" height="100" viewBox="0 0 100 100" xmlns="http://www.w3.org/2000/svg" xmlns:svg="http://www.w3.org/2000/svg"> <defs id="Ib99742cc7ba34970ba616a7f6f6b4bdc20251106161453" /> <g id="Iab92a4d7734e4963a47c89e57b8c38cf20251106161453"> <path id="I589b0c5cf497426e9bd9047b2a369bd420251106161453" d="m 41.309,8.035 c 1.953,0 3.828,0.777 5.207,2.16 l 18.289,18.289 c 1.383,1.379 2.16,3.254 2.16,5.207 v 25.907 c 0,4.07 -3.297,7.367 -7.367,7.367 H 15.402 c -4.07,0 -7.367,-3.297 -7.367,-7.367 V 15.402 c 0,-4.07 3.297,-7.367 7.367,-7.367 z m -25.907,4.02 c -1.851,0 -3.347,1.496 -3.347,3.347 v 44.196 c 0,1.851 1.496,3.347 3.347,3.347 h 44.196 c 1.851,0 3.347,-1.496 3.347,-3.347 V 34.82 H 47.543 c -4.066,0 -7.363,-3.297 -7.363,-7.363 V 12.055 Z m 28.793,15.402 c 0,1.848 1.5,3.348 3.348,3.348 h 13.902 l -17.25,-17.25 z" style="fill:currentColor;fill-opacity:1;fill-rule:nonzero;stroke:none" transform="scale(1.3333333)" /> </g>
</svg>

