<?xml version="1.0" encoding="UTF-8" standalone="no"?> <svg version="1.1" id="I81477dff8cde40248bf7de6c1ff11bef20251110124419" width="100" height="100" viewBox="0 0 100 100" xmlns="http://www.w3.org/2000/svg" xmlns:svg="http://www.w3.org/2000/svg"> <defs id="Idd63a28f83f74432bdb0c1d2c351ec7020251110124419" /> <g id="Ibdf4d096ff6840af8646f2110e401bf720251110124419"> <path id="I8e82c08ddac24c7cbce1e6f9936903fb20251110124419" d="m 56.246,9.375 c 0.754,0 1.453,0.359 1.891,0.957 l 0.172,0.27 10.199,18.839 0.117,0.289 0.039,0.125 0.063,0.321 0.015,0.293 c 0,0.215 -0.027,0.426 -0.082,0.625 l -0.148,0.39 -0.117,0.215 c -0.016,0.028 -0.032,0.051 -0.051,0.078 -0.024,0.035 -0.047,0.071 -0.074,0.102 v 0.004 c -0.036,0.047 -0.075,0.09 -0.11,0.137 l 0.059,-0.079 -3.981,4.52 C 62.914,35.5 61.367,34.828 59.691,34.535 l 1.52,-1.723 h -9.297 l -12.23,31.321 c -0.364,0.926 -1.246,1.492 -2.184,1.492 h -0.008 c -0.097,0 -0.195,-0.008 -0.293,-0.02 h -0.015 l -0.012,-0.003 c -0.11,-0.016 -0.219,-0.04 -0.324,-0.071 l -0.032,-0.004 c -0.187,-0.054 -0.371,-0.136 -0.543,-0.238 l -0.027,-0.023 c -0.148,-0.09 -0.285,-0.2 -0.41,-0.325 L 6.805,31.984 6.723,31.883 6.598,31.699 C 6.426,31.422 6.309,31.102 6.27,30.758 L 6.25,30.469 6.258,30.262 6.301,29.984 C 6.32,29.891 6.344,29.801 6.375,29.715 l 0.07,-0.184 0.086,-0.179 10.157,-18.75 C 17.043,9.941 17.695,9.496 18.43,9.398 L 18.746,9.375 Z M 46.883,32.812 H 28.117 l 9.379,24.024 0.004,-0.012 v 0.012 z m -23.793,0 H 13.777 L 30.5,51.793 Z m 4.945,-18.75 h -7.894 l -7.618,14.063 h 11.012 z m 14,0 h -9.078 l -4.504,14.063 h 18.078 z m 12.817,0 h -7.895 l 4.5,14.063 h 11.004 z m 10.773,31.25 c 0,4.317 -3.496,7.813 -7.813,7.813 -4.316,0 -7.812,-3.496 -7.812,-7.813 0,-4.316 3.496,-7.812 7.812,-7.812 4.317,0 7.813,3.496 7.813,7.812 z m 6.25,16.797 c 0,4.864 -4.02,9.766 -14.063,9.766 -10.042,0 -14.062,-4.883 -14.062,-9.766 v -0.32 c 0,-3.062 2.48,-5.539 5.539,-5.539 h 17.047 c 3.059,0 5.539,2.477 5.539,5.539 z" style="fill:currentColor;fill-opacity:1;fill-rule:nonzero;stroke:none" transform="scale(1.3333333)" /> </g>
</svg>

