<?xml version="1.0" encoding="UTF-8" standalone="no"?> <svg version="1.1" id="I9e036d3586ff4c979b67047191ccec9e20251106170412" width="100" height="100" viewBox="0 0 100 100" xmlns="http://www.w3.org/2000/svg" xmlns:svg="http://www.w3.org/2000/svg"> <defs id="I7ad9d1b8ba9448f889c7cd10f45064ab20251106170412" /> <g id="I76e11a35d41143ff8ee25a0cdf7575cc20251106170412"> <path id="Iabf100b3cda541599575c82d00e6f91c20251106170412" d="m 9.375,9.375 c -1.727,0 -3.125,1.398 -3.125,3.125 0,1.727 1.398,3.125 3.125,3.125 h 56.25 c 1.727,0 3.125,-1.398 3.125,-3.125 0,-1.727 -1.398,-3.125 -3.125,-3.125 z M 6.25,32.812 c 0,-2.589 2.098,-4.687 4.688,-4.687 h 53.124 c 2.59,0 4.688,2.098 4.688,4.687 0,2.59 -2.098,4.688 -4.688,4.688 H 10.938 C 8.348,37.5 6.25,35.402 6.25,32.812 Z m 0,23.438 C 6.25,52.797 9.047,50 12.5,50 h 50 c 3.453,0 6.25,2.797 6.25,6.25 0,3.453 -2.797,6.25 -6.25,6.25 h -50 c -3.453,0 -6.25,-2.797 -6.25,-6.25 z" style="fill:currentColor;fill-opacity:1;fill-rule:nonzero;stroke:none" transform="scale(1.3333333)" /> </g>
</svg>

