<?xml version="1.0" encoding="UTF-8" standalone="no"?> <svg version="1.1" id="I4efe4505f2b64f8aa3727c34d55aa3c720251105191527" width="100" height="100" viewBox="0 0 100 100" xmlns="http://www.w3.org/2000/svg" xmlns:svg="http://www.w3.org/2000/svg"> <defs id="I70ede10ba55f4fa2aeefe35473bf18b220251105191527" /> <g id="Ife80eb3a65ae4b7b9b3e193ecd79352220251105191527"> <path id="Idca03b2e00ab49dbb0f6b490d47fa78020251105191527" d="M 67.316,26.234 C 65.734,22.457 63.441,19.066 60.52,16.137 57.629,13.242 54.203,10.934 50.434,9.34 46.527,7.688 42.328,6.836 38.086,6.848 34.578,6.848 31.148,7.406 27.883,8.52 20.258,4.965 11.449,4.688 8.922,4.688 c -0.184,0 -0.617,0 -0.785,0.015 C 7.141,4.738 6.227,5.25 5.691,6.078 5.148,6.906 5.047,7.953 5.406,8.883 l 5.383,13.523 c -2.898,4.899 -4.426,10.485 -4.418,16.172 0,4.305 0.836,8.457 2.492,12.356 1.582,3.769 3.867,7.168 6.797,10.086 2.906,2.914 6.313,5.199 10.086,6.796 3.91,1.661 8.063,2.496 12.34,2.496 4.293,0 8.445,-0.843 12.363,-2.496 3.758,-1.582 7.156,-3.875 10.078,-6.796 2.907,-2.911 5.2,-6.309 6.797,-10.094 1.656,-3.906 2.504,-8.11 2.496,-12.356 -0.019,-4.285 -0.847,-8.437 -2.504,-12.336 z m -5.558,22.305 c -1.289,3.066 -3.164,5.852 -5.516,8.203 -2.379,2.387 -5.133,4.246 -8.18,5.52 H 48.055 C 44.875,63.598 41.5,64.285 38.02,64.285 31.188,64.293 24.633,61.574 19.812,56.734 17.438,54.352 15.578,51.598 14.305,48.551 v -0.012 c -1.34,-3.164 -2.016,-6.543 -2.016,-10.035 0,-4.637 1.238,-9.184 3.582,-13.141 l 1.106,-1.851 -0.797,-2 -4.293,-10.797 c 1.246,0.051 3.004,0.176 4.996,0.469 3.668,0.543 6.906,1.464 9.617,2.726 l 1.59,0.746 1.668,-0.57 c 2.637,-0.902 5.422,-1.356 8.277,-1.356 6.832,-0.007 13.387,2.711 18.207,7.551 2.375,2.387 4.235,5.141 5.508,8.188 l 0.016,0.015 c 1.339,3.149 2.019,6.532 2.027,10.028 -0.008,3.492 -0.695,6.863 -2.035,10.027 z M 51.656,25.129 c -1.711,0 -3.105,1.398 -3.105,3.105 v 4.614 c 0,1.707 1.387,3.105 3.105,3.105 1.715,0 3.106,-1.398 3.106,-3.105 v -4.614 c 0,-1.714 -1.399,-3.105 -3.106,-3.105 z m -14.668,0 c -1.715,0 -3.105,1.398 -3.105,3.105 v 4.614 c 0,1.707 1.398,3.105 3.105,3.105 1.719,0 3.106,-1.398 3.106,-3.105 v -4.614 c 0,-1.714 -1.399,-3.105 -3.106,-3.105 z" style="fill:currentColor;fill-opacity:1;fill-rule:nonzero;stroke:none" transform="scale(1.3333333)" /> </g>
</svg>

