<?xml version="1.0" encoding="UTF-8" standalone="no"?> <svg version="1.1" id="I17696e1592a94c099a3f858853b8674420251106170411" width="100" height="100" viewBox="0 0 100 100" xmlns="http://www.w3.org/2000/svg" xmlns:svg="http://www.w3.org/2000/svg"> <defs id="Idb7c50188afc44aeba5d759bb5c0e71c20251106170411" /> <g id="I133b86c8d36d43038abbf2c8e1e336aa20251106170411"> <path id="Ic7269b95e72f4ab7819a749a787b89ca20251106170411" d="m 37.5,6.25 c 0.969,0 1.918,0.09 2.836,0.258 -1.895,1.258 -3.566,2.828 -4.941,4.633 -5.036,0.98 -8.833,5.414 -8.833,10.734 0,0.988 0.129,1.941 0.376,2.844 0.214,0.808 -0.016,1.676 -0.61,2.265 l -15.39,15.395 v 9.183 h 6.25 v -5.468 c 0,-1.293 1.05,-2.344 2.343,-2.344 h 7.031 v -3.906 c 0,-0.621 0.247,-1.219 0.688,-1.656 l 5.984,-5.985 c 0.696,1.457 1.563,2.817 2.571,4.055 l -4.555,4.558 v 5.278 c 0,1.293 -1.051,2.344 -2.344,2.344 h -7.031 v 5.468 c 0,1.293 -1.051,2.344 -2.344,2.344 H 8.594 C 7.301,56.25 6.25,55.199 6.25,53.906 v -12.5 c 0,-0.621 0.246,-1.218 0.688,-1.656 L 22.109,24.578 C 21.953,23.699 21.875,22.797 21.875,21.875 21.875,13.246 28.871,6.25 37.5,6.25 Z m 14.062,4.688 c -6.902,0 -12.5,5.597 -12.5,12.5 0,4.757 2.657,8.898 6.583,11.011 0.757,0.41 1.23,1.203 1.23,2.063 v 24.172 l 6.305,5.73 6.632,-5.621 -2.878,-2.887 c -0.911,-0.918 -0.911,-2.394 0,-3.312 l 3.023,-3.032 -3.023,-3.031 C 56.496,48.09 56.25,47.496 56.25,46.875 V 36.512 c 0,-0.86 0.473,-1.653 1.23,-2.063 3.926,-2.113 6.582,-6.254 6.582,-11.011 0,-6.903 -5.597,-12.5 -12.5,-12.5 z m -17.187,12.5 c 0,-9.493 7.695,-17.188 17.187,-17.188 9.493,0 17.188,7.695 17.188,17.188 0,6.035 -3.113,11.343 -7.812,14.406 v 8.062 l 3.988,4 c 0.914,0.918 0.914,2.395 0,3.313 l -3.024,3.031 3.024,3.031 c 0.461,0.465 0.711,1.102 0.683,1.754 -0.027,0.656 -0.328,1.266 -0.828,1.692 l -10.14,8.593 c -0.899,0.762 -2.223,0.739 -3.094,-0.054 L 42.953,63.453 C 42.465,63.008 42.188,62.379 42.188,61.719 V 37.844 c -4.7,-3.063 -7.813,-8.371 -7.813,-14.406 z m 20.313,-3.126 c 0,1.727 -1.399,3.126 -3.126,3.126 -1.726,0 -3.124,-1.399 -3.124,-3.126 0,-1.726 1.398,-3.124 3.124,-3.124 1.727,0 3.126,1.398 3.126,3.124 z" style="fill:currentColor;fill-opacity:1;fill-rule:nonzero;stroke:none" transform="scale(1.3333333)" /> </g>
</svg>

