<?xml version="1.0" encoding="UTF-8" standalone="no"?> <svg version="1.1" id="If2ba779044fc48299caaf7afa006120820251110123030" width="100" height="100" viewBox="0 0 100 100" xmlns="http://www.w3.org/2000/svg" xmlns:svg="http://www.w3.org/2000/svg"> <defs id="Ic00ec92748db4b0583d3388377d807b620251110123030" /> <g id="I5ab33afdc14f4b0bbd1e31049777522920251110123030"> <path id="Ic8f0639afab04cc896fe17207b4ef96120251110123030" d="m 30.805,18.75 c 0,-3.699 2.996,-6.695 6.695,-6.695 3.699,0 6.695,2.996 6.695,6.695 0,3.699 -2.996,6.695 -6.695,6.695 -3.699,0 -6.695,-2.996 -6.695,-6.695 z M 37.5,8.035 c -5.918,0 -10.715,4.797 -10.715,10.715 0,5.918 4.797,10.715 10.715,10.715 5.918,0 10.715,-4.797 10.715,-10.715 C 48.215,12.832 43.418,8.035 37.5,8.035 Z M 14.73,20.09 c -2.957,0 -5.355,2.398 -5.355,5.355 0,2.961 2.398,5.36 5.355,5.36 2.961,0 5.36,-2.399 5.36,-5.36 0,-2.957 -2.399,-5.355 -5.36,-5.355 z m -9.375,5.355 c 0,-5.175 4.2,-9.375 9.375,-9.375 5.18,0 9.375,4.2 9.375,9.375 0,5.18 -4.195,9.375 -9.375,9.375 -5.175,0 -9.375,-4.195 -9.375,-9.375 z M 60.27,20.09 c -2.961,0 -5.36,2.398 -5.36,5.355 0,2.961 2.399,5.36 5.36,5.36 2.957,0 5.355,-2.399 5.355,-5.36 0,-2.957 -2.398,-5.355 -5.355,-5.355 z m -9.375,5.355 c 0,-5.175 4.195,-9.375 9.375,-9.375 5.175,0 9.375,4.2 9.375,9.375 0,5.18 -4.2,9.375 -9.375,9.375 -5.18,0 -9.375,-4.195 -9.375,-9.375 z m -26.79,14.063 c 0,-2.586 2.102,-4.688 4.688,-4.688 h 17.414 c 1.027,0 1.981,0.332 2.754,0.899 -2.227,0.687 -4.285,1.754 -6.106,3.121 H 28.793 c -0.367,0 -0.668,0.301 -0.668,0.668 V 53.57 c 0,4.832 3.652,8.809 8.344,9.321 0.621,1.429 1.402,2.777 2.324,4.011 -0.426,0.043 -0.855,0.063 -1.293,0.063 -7.398,0 -13.395,-5.996 -13.395,-13.395 z M 21.43,39.516 8.832,42.891 c -2.5,0.668 -3.984,3.238 -3.312,5.742 l 2.25,8.406 c 1.918,7.145 9.261,11.387 16.406,9.473 0.91,-0.246 1.773,-0.578 2.582,-0.989 -1.043,-0.933 -1.961,-2.003 -2.727,-3.183 -0.293,0.109 -0.59,0.207 -0.898,0.289 C 18.133,63.969 12.992,61 11.652,56 L 9.398,47.59 C 9.305,47.234 9.516,46.867 9.871,46.77 L 21.43,43.676 Z M 72.32,54.91 c 0,9.617 -7.793,17.41 -17.41,17.41 -9.617,0 -17.41,-7.793 -17.41,-17.41 0,-9.617 7.793,-17.41 17.41,-17.41 9.617,0 17.41,7.793 17.41,17.41 z M 56.25,44.195 c 0,-0.738 -0.602,-1.34 -1.34,-1.34 -0.738,0 -1.34,0.602 -1.34,1.34 v 9.375 h -9.375 c -0.738,0 -1.34,0.602 -1.34,1.34 0,0.738 0.602,1.34 1.34,1.34 h 9.375 v 9.375 c 0,0.738 0.602,1.34 1.34,1.34 0.738,0 1.34,-0.602 1.34,-1.34 V 56.25 h 9.375 c 0.738,0 1.34,-0.602 1.34,-1.34 0,-0.738 -0.602,-1.34 -1.34,-1.34 H 56.25 Z" style="fill:currentColor;fill-opacity:1;fill-rule:nonzero;stroke:none" transform="scale(1.3333333)" /> </g>
</svg>

