<?xml version="1.0" encoding="UTF-8" standalone="no"?> <svg version="1.1" id="Ia0825f33ef6f43cf8f679c7b2e22581520251110133655" width="100" height="100" viewBox="0 0 100 100" xmlns="http://www.w3.org/2000/svg" xmlns:svg="http://www.w3.org/2000/svg"> <defs id="Ic3aeb97231454915acd7d641e24da7e220251110133655" /> <g id="I9e28992d0717479ba3d7131c2d963ebd20251110133655"> <path id="I8e73872a30c6426dafee20fd9738bf4320251110133655" d="m 23.824,59.375 h 27.352 c 1.078,0 1.949,0.871 1.949,1.949 0,1.012 -0.766,1.84 -1.75,1.942 l -0.199,0.007 H 23.824 c -1.078,0 -1.949,-0.871 -1.949,-1.949 0,-1.008 0.766,-1.84 1.75,-1.937 z m -9.375,-7.813 h 46.102 c 1.078,0 1.949,0.872 1.949,1.95 0,1.011 -0.766,1.84 -1.75,1.941 l -0.199,0.008 H 14.449 c -1.078,0 -1.949,-0.871 -1.949,-1.949 0,-1.008 0.766,-1.84 1.75,-1.938 z M 37.5,10.938 c 9.898,0 15.516,6.554 16.332,14.468 h 0.25 c 6.375,0 11.539,5.153 11.539,11.508 0,6.356 -5.164,11.508 -11.539,11.508 H 20.914 c -6.375,0 -11.539,-5.152 -11.539,-11.508 0,-6.355 5.164,-11.508 11.539,-11.508 h 0.25 C 21.984,17.441 27.598,10.938 37.5,10.938 Z m 0,3.898 c -6.66,0 -12.461,5.387 -12.461,12.828 0,1.18 -1.027,2.106 -2.199,2.106 h -2.223 c -4.051,0 -7.336,3.304 -7.336,7.378 0,4.075 3.285,7.375 7.336,7.375 h 33.762 c 4.051,0 7.34,-3.3 7.34,-7.375 0,-4.074 -3.289,-7.378 -7.34,-7.378 H 52.16 c -1.176,0 -2.199,-0.926 -2.199,-2.106 0,-7.535 -5.805,-12.828 -12.461,-12.828 z" style="fill:currentColor;fill-opacity:1;fill-rule:nonzero;stroke:none" transform="scale(1.3333333)" /> </g>
</svg>

