<?xml version="1.0" encoding="UTF-8" standalone="no"?> <svg version="1.1" id="I53ebc77d9dde41048f5ea05fc18d629120251106163937" width="100" height="100" viewBox="0 0 100 100" xmlns="http://www.w3.org/2000/svg" xmlns:svg="http://www.w3.org/2000/svg"> <defs id="I0d35373145e445c7a415e09917ef14ba20251106163937"> <linearGradient x1="2.7142899" y1="5.75" x2="16.516701" y2="20.0902" gradientUnits="userSpaceOnUse" gradientTransform="scale(3.125)" spreadMethod="pad" id="I9eb7cb1287374a8d888816c571b7dd7620251106163937"> <stop style="stop-opacity:1;stop-color:#52d17c" offset="0" id="I0626c6cf600f4f188a07958ad93f56e420251106163937" /> <stop style="stop-opacity:1;stop-color:#22918b" offset="1" id="I87933568c4a546dab2d328049b4260c420251106163937" /> </linearGradient> <linearGradient x1="9.25" y1="8.8160496" x2="10.9569" y2="17.8542" gradientUnits="userSpaceOnUse" gradientTransform="scale(3.125)" spreadMethod="pad" id="I0966668e1a9846508d1ef3bf7e0b819220251106163937"> <stop style="stop-opacity:1;stop-color:#ffffff" offset="0" id="If8a92d73b9ef47e39c88a133a43d2ff420251106163937" /> <stop style="stop-opacity:1;stop-color:#e3ffd9" offset="1" id="I1af0505700d1413bb9256c189ded91bb20251106163937" /> </linearGradient> </defs> <g id="I5b946939bb104cc09d6f71b84439990b20251106163937"> <path id="I4050938c1d454e8a97a62031a620951720251106163937" d="m 37.5,6.25 c 17.258,0 31.25,13.992 31.25,31.25 0,17.258 -13.992,31.25 -31.25,31.25 C 20.242,68.75 6.25,54.758 6.25,37.5 6.25,20.242 20.242,6.25 37.5,6.25 Z" transform="scale(1.3333333)" style="fill:url(#I9eb7cb1287374a8d888816c571b7dd7620251106163937);stroke:none" /> <path id="If69a6e8c242845039a41de74b277035b20251106163937" d="m 39.168,27.762 c 0,-2.235 2.633,-3.539 4.543,-2.254 l 14.445,9.742 c 1.625,1.098 1.625,3.402 0,4.5 l -14.445,9.742 c -1.91,1.285 -4.543,-0.019 -4.543,-2.254 v -6.343 l -12.75,8.597 c -1.91,1.285 -4.543,-0.019 -4.543,-2.254 V 27.762 c 0,-2.235 2.633,-3.539 4.543,-2.254 l 12.75,8.597 z" style="fill:#212121;fill-opacity:1;fill-rule:nonzero;stroke:none" transform="scale(1.3333333)" /> <path id="I3b819b99d9354cc58338fef9ad7b29f220251106163937" d="m 39.168,27.762 c 0,-2.235 2.633,-3.539 4.543,-2.254 l 14.445,9.742 c 1.625,1.098 1.625,3.402 0,4.5 l -14.445,9.742 c -1.91,1.285 -4.543,-0.019 -4.543,-2.254 v -6.343 l -12.75,8.597 c -1.91,1.285 -4.543,-0.019 -4.543,-2.254 V 27.762 c 0,-2.235 2.633,-3.539 4.543,-2.254 l 12.75,8.597 z" transform="scale(1.3333333)" style="fill:url(#I0966668e1a9846508d1ef3bf7e0b819220251106163937);stroke:none" /> </g>
</svg>

