<?xml version="1.0" encoding="UTF-8" standalone="no"?> <svg version="1.1" id="I939e4b9e083a4e57b4152697c4b9dc9120251110124420" width="100" height="100" viewBox="0 0 100 100" xmlns="http://www.w3.org/2000/svg" xmlns:svg="http://www.w3.org/2000/svg"> <defs id="I2ce4768cc9384042b4682fba7b36e05020251110124420" /> <g id="I313190c2f2384b6f893f6ed2a66057bf20251110124420"> <path id="I031720515ee548d0a834144871ef846020251110124420" d="m 12.5,16.406 c 0,-3.883 3.148,-7.031 7.031,-7.031 h 29.688 c 3.883,0 7.031,3.148 7.031,7.031 V 43.75 h 12.5 v 11.719 c 0,5.609 -4.547,10.156 -10.156,10.156 h -21.16 c 2.019,-3.156 3.191,-6.91 3.191,-10.937 0,-6.282 -2.852,-11.899 -7.332,-15.626 h 9.676 c 1.293,0 2.343,-1.05 2.343,-2.343 0,-1.293 -1.05,-2.344 -2.343,-2.344 H 25.781 c -0.496,0 -0.961,0.156 -1.34,0.422 -1.332,-0.277 -2.714,-0.422 -4.129,-0.422 -2.769,0 -5.406,0.555 -7.812,1.559 z m 43.75,44.532 h 2.344 c 3.019,0 5.468,-2.45 5.468,-5.469 V 48.438 H 56.25 Z M 23.438,24.219 c 0,1.293 1.05,2.343 2.343,2.343 h 17.188 c 1.293,0 2.343,-1.05 2.343,-2.343 0,-1.293 -1.05,-2.344 -2.343,-2.344 H 25.781 c -1.293,0 -2.343,1.051 -2.343,2.344 z M 37.5,54.688 C 37.5,64.18 29.805,71.875 20.312,71.875 10.82,71.875 3.125,64.18 3.125,54.688 3.125,45.195 10.82,37.5 20.312,37.5 29.805,37.5 37.5,45.195 37.5,54.688 Z m -21.875,6.246 c 0,1.25 1.391,1.992 2.43,1.3 l 9.379,-6.246 c 0.929,-0.617 0.929,-1.984 0,-2.601 l -9.379,-6.246 c -1.039,-0.692 -2.43,0.05 -2.43,1.3 z" style="fill:currentColor;fill-opacity:1;fill-rule:nonzero;stroke:none" transform="scale(1.3333333)" /> </g>
</svg>

