<?xml version="1.0" encoding="UTF-8" standalone="no"?> <svg version="1.1" id="Icd5f995b407244329a4c5f5e8fb8303a20251106144521" width="100" height="100" viewBox="0 0 100 100" xmlns="http://www.w3.org/2000/svg" xmlns:svg="http://www.w3.org/2000/svg"> <defs id="I311e03eef46c4847bd6f0d8a0f9b24e320251106144521" /> <g id="I7f5780f35be14254803eb0bf355e265d20251106144521"> <path id="Ia7424ca0e11b4095905783352358536c20251106144521" d="m 19.531,9.375 c -5.609,0 -10.156,4.547 -10.156,10.156 v 35.938 c 0,5.609 4.547,10.156 10.156,10.156 h 15.012 c 0.137,-0.648 0.359,-1.301 0.676,-1.934 l 1.375,-2.753 H 19.531 c -3.019,0 -5.469,-2.45 -5.469,-5.469 V 19.531 c 0,-3.019 2.45,-5.469 5.469,-5.469 h 35.938 c 3.019,0 5.469,2.45 5.469,5.469 v 17.942 c 0.277,0.375 0.531,0.785 0.75,1.226 l 3.937,7.879 V 19.531 C 65.625,13.922 61.078,9.375 55.469,9.375 Z M 54,29.004 c 0.914,-0.918 0.918,-2.402 0,-3.316 -0.914,-0.915 -2.398,-0.918 -3.312,-0.004 l -19.45,19.425 -6.922,-6.921 c -0.918,-0.918 -2.402,-0.918 -3.316,0 -0.914,0.914 -0.914,2.398 0,3.312 l 8.582,8.582 c 0.914,0.914 2.398,0.914 3.313,0 z M 50.504,40.094 38.016,65.09 c -1.559,3.117 0.707,6.785 4.195,6.785 h 24.98 c 3.489,0 5.754,-3.668 4.196,-6.785 L 58.898,40.094 c -1.73,-3.457 -6.664,-3.457 -8.394,0 z m 5.762,8.328 v 9.383 c 0,0.863 -0.7,1.562 -1.563,1.562 -0.867,0 -1.566,-0.699 -1.566,-1.562 v -9.383 c 0,-0.863 0.699,-1.563 1.566,-1.563 0.863,0 1.563,0.7 1.563,1.563 z m -1.563,17.199 c -0.867,0 -1.566,-0.699 -1.566,-1.562 0,-0.864 0.699,-1.563 1.566,-1.563 0.863,0 1.563,0.699 1.563,1.563 0,0.863 -0.7,1.562 -1.563,1.562 z" style="fill:currentColor;fill-opacity:1;fill-rule:nonzero;stroke:none" transform="scale(1.3333333)" /> </g>
</svg>

