<?xml version="1.0" encoding="UTF-8" standalone="no"?> <svg version="1.1" id="I4799c68ebb18445c9528883167d9e49c20251110133655" width="100" height="100" viewBox="0 0 100 100" xmlns="http://www.w3.org/2000/svg" xmlns:svg="http://www.w3.org/2000/svg"> <defs id="I6d85c827b6ad45cd8c41de9ab11254ff20251110133655" /> <g id="Ic4a7b2f4a11f4579921148c70bc2932d20251110133655"> <path id="I079bcb7f13b649d68a59e415a114b95b20251110133655" d="m 37.5,10.938 c 9.898,0 15.516,6.554 16.332,14.468 h 0.25 c 6.375,0 11.539,5.153 11.539,11.508 0,6.356 -5.164,11.508 -11.539,11.508 h -2.691 c -0.016,0.051 -0.039,0.101 -0.059,0.148 l -0.105,0.2 -5.469,9.472 c -0.649,1.121 -2.078,1.508 -3.199,0.86 -1.059,-0.61 -1.461,-1.914 -0.965,-3 l 0.105,-0.204 4.317,-7.476 h -6.711 l -0.063,0.148 -0.101,0.2 -5.469,9.472 c -0.649,1.121 -2.082,1.508 -3.203,0.86 -1.055,-0.61 -1.457,-1.914 -0.961,-3 l 0.101,-0.204 4.317,-7.476 h -6.711 c -0.02,0.051 -0.039,0.101 -0.059,0.148 l -0.105,0.2 -5.469,9.472 c -0.648,1.121 -2.082,1.508 -3.203,0.86 -1.055,-0.61 -1.457,-1.914 -0.961,-3 l 0.105,-0.204 4.317,-7.476 h -0.926 c -6.375,0 -11.539,-5.152 -11.539,-11.508 0,-6.355 5.164,-11.508 11.539,-11.508 h 0.25 C 21.984,17.441 27.598,10.938 37.5,10.938 Z m 0,3.898 c -6.66,0 -12.461,5.387 -12.461,12.828 0,1.18 -1.027,2.106 -2.199,2.106 h -2.223 c -4.051,0 -7.336,3.304 -7.336,7.378 0,4.075 3.285,7.375 7.336,7.375 h 33.762 c 4.051,0 7.34,-3.3 7.34,-7.375 0,-4.074 -3.289,-7.378 -7.34,-7.378 H 52.16 c -1.176,0 -2.199,-0.926 -2.199,-2.106 0,-7.535 -5.805,-12.828 -12.461,-12.828 z" style="fill:currentColor;fill-opacity:1;fill-rule:nonzero;stroke:none" transform="scale(1.3333333)" /> </g>
</svg>

