<?xml version="1.0" encoding="UTF-8" standalone="no"?> <svg version="1.1" id="I48b0f44e7a804dec892834836f075f9720251106142136" width="100" height="100" viewBox="0 0 100 100" xmlns="http://www.w3.org/2000/svg" xmlns:svg="http://www.w3.org/2000/svg"> <defs id="Id26b9eb6623140819cb749f2dba432a920251106142136" /> <g id="I6bbb4f870a504cadba1bc928430efb9c20251106142136"> <path id="Ic9ac8e2a178c49f08fb20a557dfdb92b20251106142136" d="m 25,18.75 c 0,1.727 -1.398,3.125 -3.125,3.125 -1.727,0 -3.125,-1.398 -3.125,-3.125 0,-1.727 1.398,-3.125 3.125,-3.125 1.727,0 3.125,1.398 3.125,3.125 z m -3.125,12.5 C 23.602,31.25 25,29.852 25,28.125 25,26.398 23.602,25 21.875,25 c -1.727,0 -3.125,1.398 -3.125,3.125 0,1.727 1.398,3.125 3.125,3.125 z M 25,37.5 c 0,1.727 -1.398,3.125 -3.125,3.125 -1.727,0 -3.125,-1.398 -3.125,-3.125 0,-1.727 1.398,-3.125 3.125,-3.125 1.727,0 3.125,1.398 3.125,3.125 z m 0,9.375 C 25,48.602 23.602,50 21.875,50 20.148,50 18.75,48.602 18.75,46.875 c 0,-1.727 1.398,-3.125 3.125,-3.125 1.727,0 3.125,1.398 3.125,3.125 z m -3.125,12.5 c 1.727,0 3.125,-1.398 3.125,-3.125 0,-1.727 -1.398,-3.125 -3.125,-3.125 -1.727,0 -3.125,1.398 -3.125,3.125 0,1.727 1.398,3.125 3.125,3.125 z M 43.75,50 c 1.727,0 3.125,-1.398 3.125,-3.125 0,-1.727 -1.398,-3.125 -3.125,-3.125 -1.727,0 -3.125,1.398 -3.125,3.125 0,1.727 1.398,3.125 3.125,3.125 z m 9.375,0 c 1.727,0 3.125,-1.398 3.125,-3.125 0,-1.727 -1.398,-3.125 -3.125,-3.125 C 51.398,43.75 50,45.148 50,46.875 50,48.602 51.398,50 53.125,50 Z m 0,-9.375 c 1.727,0 3.125,-1.398 3.125,-3.125 0,-1.727 -1.398,-3.125 -3.125,-3.125 -1.727,0 -3.125,1.398 -3.125,3.125 0,1.727 1.398,3.125 3.125,3.125 z M 46.875,37.5 c 0,1.727 -1.398,3.125 -3.125,3.125 -1.727,0 -3.125,-1.398 -3.125,-3.125 0,-1.727 1.398,-3.125 3.125,-3.125 1.727,0 3.125,1.398 3.125,3.125 z m 6.25,-6.25 c 1.727,0 3.125,-1.398 3.125,-3.125 C 56.25,26.398 54.852,25 53.125,25 51.398,25 50,26.398 50,28.125 c 0,1.727 1.398,3.125 3.125,3.125 z m -6.25,-3.125 c 0,1.727 -1.398,3.125 -3.125,3.125 -1.727,0 -3.125,-1.398 -3.125,-3.125 0,-1.727 1.398,-3.125 3.125,-3.125 1.727,0 3.125,1.398 3.125,3.125 z M 43.75,15.625 V 13.281 C 43.75,9.398 40.602,6.25 36.719,6.25 H 16.406 c -3.883,0 -7.031,3.148 -7.031,7.031 v 51.563 c 0,1.293 1.051,2.344 2.344,2.344 h 51.562 c 1.293,0 2.344,-1.051 2.344,-2.344 V 22.656 c 0,-3.883 -3.148,-7.031 -7.031,-7.031 z M 14.062,13.281 c 0,-1.293 1.051,-2.343 2.344,-2.343 h 20.313 c 1.293,0 2.343,1.05 2.343,2.343 v 2.344 h -0.781 c -3.883,0 -7.031,3.148 -7.031,7.031 V 62.5 H 14.062 Z M 45.312,62.5 v -4.688 h 6.25 V 62.5 Z M 56.25,55.469 c 0,-1.293 -1.051,-2.344 -2.344,-2.344 H 42.969 c -1.293,0 -2.344,1.051 -2.344,2.344 V 62.5 H 35.938 V 22.656 c 0,-1.293 1.05,-2.344 2.343,-2.344 h 20.313 c 1.293,0 2.344,1.051 2.344,2.344 V 62.5 H 56.25 Z" style="fill:currentColor;fill-opacity:1;fill-rule:nonzero;stroke:none" transform="scale(1.3333333)" /> </g>
</svg>

