<?xml version="1.0" encoding="UTF-8" standalone="no"?> <svg version="1.1" id="Ib6331d5c10dc45139917f9a9c99a5af920251106143239" width="100" height="100" viewBox="0 0 100 100" xmlns="http://www.w3.org/2000/svg" xmlns:svg="http://www.w3.org/2000/svg"> <defs id="I9340c604b1684bc2963d3006949a028120251106143239" /> <g id="I3038593ac8ec4433bb34b4b84c38ed1520251106143239"> <path id="Ie3bd29abd68043f388c211ccbf4a8f7d20251106143239" d="m 21.027,7.242 5.188,-1.566 c 3.543,-1.067 7.328,0.66 8.844,4.035 l 3.636,8.09 c 1.293,2.875 0.614,6.254 -1.695,8.406 l -5.535,5.164 c -0.746,0.703 -0.184,3.449 2.531,8.149 2.711,4.695 4.809,6.554 5.777,6.269 l 7.254,-2.219 c 3.016,-0.922 6.282,0.176 8.125,2.735 l 5.168,7.164 c 2.16,2.992 1.774,7.121 -0.906,9.656 L 55.418,66.91 C 52.789,69.398 49.027,70.281 45.57,69.223 37.199,66.66 29.441,59.051 22.203,46.508 14.949,33.945 12.207,23.352 14.117,14.691 c 0.781,-3.55 3.426,-6.402 6.91,-7.449 z" style="fill:currentColor;fill-opacity:1;fill-rule:nonzero;stroke:none" transform="scale(1.3333333)" /> </g>
</svg>

