<?xml version="1.0" encoding="UTF-8" standalone="no"?> <svg version="1.1" id="Ifbcb1e2cd0924514ad97b25121f3c54a20251110123031" width="100" height="100" viewBox="0 0 100 100" xmlns="http://www.w3.org/2000/svg" xmlns:svg="http://www.w3.org/2000/svg"> <defs id="Ic48e0446f15b46888631c3eb43d31d9420251110123031"> <linearGradient x1="22" y1="18.912201" x2="20.765499" y2="12.2542" gradientUnits="userSpaceOnUse" gradientTransform="scale(3.125)" spreadMethod="pad" id="I2d7c71dc91024060b73010586b02129920251110123031"> <stop style="stop-opacity:1;stop-color:#63686e" offset="0" id="I6acce2718cc2466f81a8da4a9593d76820251110123031" /> <stop style="stop-opacity:1;stop-color:#889096" offset="1" id="I516fecefcc0849c78872ff4c7fde21b420251110123031" /> </linearGradient> <linearGradient x1="22" y1="18.8929" x2="21.7922" y2="16.1227" gradientUnits="userSpaceOnUse" gradientTransform="scale(3.125)" spreadMethod="pad" id="I9e08b3c657e949b18364be959d68829920251110123031"> <stop style="stop-opacity:1;stop-color:#889096" offset="0" id="I2bdb0205ffa046c0acb9435bc62341ae20251110123031" /> <stop style="stop-opacity:1;stop-color:#aab3bd" offset="1" id="I8657cf0e6e964194adab200257b51ea720251110123031" /> </linearGradient> <linearGradient x1="15.2" y1="4" x2="15.9497" y2="17.721701" gradientUnits="userSpaceOnUse" gradientTransform="scale(3.125)" spreadMethod="pad" id="I52625f179f8a48fca47685582f01bc3f20251110123031"> <stop style="stop-opacity:1;stop-color:#6ce0ff" offset="0" id="I22833ece67494b1585ffb7a4ffd1c85420251110123031" /> <stop style="stop-opacity:1;stop-color:#4894fe" offset="1" id="I1aa55bad933946cfae07345724d5205a20251110123031" /> </linearGradient> <radialGradient fx="0" fy="0" cx="0" cy="0" r="1" gradientUnits="userSpaceOnUse" gradientTransform="matrix(10.9375,0,0,25.439469,26.5625,48.4375)" spreadMethod="pad" id="Id1fa6a540e9349f39129c3f4c408a08c20251110123031"> <stop style="stop-opacity:0.29999237;stop-color:#4a43cb" offset="0" id="Ife8d25a0e5e84b39b09628767c51b9e520251110123031" /> <stop style="stop-opacity:0.29999237;stop-color:#4a43cb" offset="0.477679" id="Ibbc5bc9f603f4b7c96da85969aaeb27d20251110123031" /> <stop style="stop-opacity:0;stop-color:#4a43cb" offset="1" id="I1f46eb1b027749849fd2d7f87a55088320251110123031" /> </radialGradient> <radialGradient fx="0" fy="0" cx="0" cy="0" r="1" gradientUnits="userSpaceOnUse" gradientTransform="matrix(30.485584,58.65296,-113.58729,59.038364,-0.00346434,11.044844)" spreadMethod="pad" id="I4d92a5e4675541acad5feb7ac0e77ac520251110123031"> <stop style="stop-opacity:1;stop-color:#f08af4" offset="0" id="Ie05645e0898e4ad099352837bcc7c26420251110123031" /> <stop style="stop-opacity:1;stop-color:#9c6cfe" offset="0.535356" id="Ic470fb3ce7a9470582eafd489f930ee720251110123031" /> <stop style="stop-opacity:1;stop-color:#4e44db" offset="1" id="Ie2b536bbbf154644a2a8a271c9e5058120251110123031" /> </radialGradient> <radialGradient fx="0" fy="0" cx="0" cy="0" r="1" gradientUnits="userSpaceOnUse" gradientTransform="matrix(8.496108,11.406338,-13.072691,9.737306,12.597656,55.020938)" spreadMethod="pad" id="I58d6d3bd0743479f9d4c7065cdf2369120251110123031"> <stop style="stop-opacity:1;stop-color:#decbff" offset="0" id="I11a3e9b7d287474f864181e9f6abe67120251110123031" /> <stop style="stop-opacity:1;stop-color:#d6cfff" offset="1" id="Ic77d5bbd55d440e6b3db0f125b2f84b320251110123031" /> </radialGradient> </defs> <g id="I8173e333d55a408a92669f0e245d915820251110123031"> <path id="I4d3aca75d16244498b0e013e6266b37420251110123031" d="M 19.543,50 37.5,48.34 55.48,50 h 0.204 c 0.375,0 0.746,0.066 1.097,0.199 l 9.766,3.66 c 1.32,0.496 2.199,1.762 2.203,3.172 H 6.25 c 0,-1.41 0.875,-2.672 2.195,-3.168 l 9.774,-3.664 C 18.57,50.066 18.941,50 19.316,50 Z" transform="scale(1.3333333)" style="fill:url(#I2d7c71dc91024060b73010586b02129920251110123031);stroke:none" /> <path id="I0de29d7c30e743e9bd601c8bcf8a879920251110123031" d="m 8.594,54.688 c -1.293,0 -2.344,1.05 -2.344,2.343 0,1.293 1.051,2.344 2.344,2.344 h 57.812 c 1.293,0 2.344,-1.051 2.344,-2.344 0,-1.293 -1.051,-2.343 -2.344,-2.343 z" transform="scale(1.3333333)" style="fill:url(#I9e08b3c657e949b18364be959d68829920251110123031);stroke:none" /> <path id="I294b0be0d1684e419f6f1f0e2cd0e15020251110123031" d="m 12.5,19.531 c 0,-3.883 3.148,-7.031 7.031,-7.031 h 35.938 c 3.883,0 7.031,3.148 7.031,7.031 V 42.969 C 62.5,46.852 59.352,50 55.469,50 H 19.531 C 15.648,50 12.5,46.852 12.5,42.969 Z" transform="scale(1.3333333)" style="fill:url(#I52625f179f8a48fca47685582f01bc3f20251110123031);stroke:none" /> <path d="m 19.531,12.5 c -3.883,0 -7.031,3.148 -7.031,7.031 v 23.438 c 0,3.883 3.148,7.031 7.031,7.031 h -0.215 c -0.375,0 -0.746,0.066 -1.097,0.199 l -9.774,3.664 c -1.32,0.496 -2.195,1.758 -2.195,3.168 0,1.293 1.051,2.344 2.344,2.344 h 57.812 c 1.293,0 2.344,-1.051 2.344,-2.344 v -0.039 c -0.02,-1.394 -0.895,-2.64 -2.203,-3.133 l -9.766,-3.66 C 56.43,50.066 56.059,50 55.684,50 H 55.48 c 3.879,-0.008 7.02,-3.152 7.02,-7.031 V 19.531 C 62.5,15.648 59.352,12.5 55.469,12.5 Z" transform="scale(1.3333333)" style="fill:url(#Id1fa6a540e9349f39129c3f4c408a08c20251110123031);stroke:none" opacity="1" id="I6682fa4ca93349cb9c71d81b8d12250720251110123031" /> <path id="Ie7892fe0af5a4d019b05a6b6d48f4ac720251110123031" d="m 25.797,25.012 c 3.019,0 5.469,2.445 5.469,5.468 v 29.688 c 0,3.02 -2.45,5.469 -5.469,5.469 H 11.719 c -3.02,0 -5.469,-2.449 -5.469,-5.469 V 30.48 c 0,-3.023 2.449,-5.468 5.469,-5.468 z" transform="scale(1.3333333)" style="fill:url(#I4d92a5e4675541acad5feb7ac0e77ac520251110123031);stroke:none" /> <path id="I9c71ef609db3466d83ffe85bb8b38da720251110123031" d="m 21.094,54.707 c 1.293,0 2.344,1.051 2.344,2.344 0,1.187 -0.883,2.168 -2.028,2.324 l -0.316,0.02 h -4.688 c -1.293,0 -2.344,-1.047 -2.344,-2.344 0,-1.184 0.883,-2.164 2.028,-2.321 l 0.316,-0.023 z" transform="scale(1.3333333)" style="fill:url(#I58d6d3bd0743479f9d4c7065cdf2369120251110123031);stroke:none" /> </g>
</svg>

