<?xml version="1.0" encoding="UTF-8" standalone="no"?> <svg version="1.1" id="I624e8b14f5bd423ba5c655867696fd4f20251106142135" width="100" height="100" viewBox="0 0 100 100" xmlns="http://www.w3.org/2000/svg" xmlns:svg="http://www.w3.org/2000/svg"> <defs id="Iaf694e02b0384d0fbd462d83ed2ad8d420251106142135" /> <g id="I5331fb2b5944453f9d968332f3275aee20251106142135"> <path id="I82e87ec43ac84819b7105042877591e520251106142135" d="m 44.109,43.77 c 1.164,-1.598 2.082,-3.75 2.508,-6.27 H 31.508 c 0.426,2.52 1.344,4.672 2.508,6.27 1.621,2.234 3.464,3.105 5.046,3.105 1.583,0 3.426,-0.871 5.047,-3.105 z m 0,-18.79 c 1.399,1.918 2.442,4.641 2.703,7.832 h -15.5 c 0.262,-3.191 1.305,-5.914 2.704,-7.832 1.621,-2.234 3.464,-3.105 5.046,-3.105 1.583,0 3.426,0.871 5.047,3.105 z M 12.5,14.062 C 12.5,9.746 15.996,6.25 20.312,6.25 H 56.25 c 4.316,0 7.812,3.496 7.812,7.812 v 44.532 c 0,1.293 -1.05,2.344 -2.343,2.344 H 17.188 c 0,1.726 1.398,3.124 3.124,3.124 h 41.407 c 1.293,0 2.343,1.051 2.343,2.344 0,1.293 -1.05,2.344 -2.343,2.344 H 20.312 c -4.316,0 -7.812,-3.496 -7.812,-7.812 z m 26.562,37.5 c 6.903,0 12.5,-7.695 12.5,-17.187 0,-9.492 -5.597,-17.187 -12.5,-17.187 -6.902,0 -12.5,7.695 -12.5,17.187 0,9.492 5.598,17.187 12.5,17.187 z" style="fill:currentColor;fill-opacity:1;fill-rule:nonzero;stroke:none" transform="scale(1.3333333)" /> </g>
</svg>

