<?xml version="1.0" encoding="UTF-8" standalone="no"?> <svg version="1.1" id="Ibb7ea478ab774a05afa2ed7a3e7ca17e20251110123031" width="100" height="100" viewBox="0 0 100 100" xmlns="http://www.w3.org/2000/svg" xmlns:svg="http://www.w3.org/2000/svg"> <defs id="If1dd66349d834f109423ae11b79d57ae20251110123031" /> <g id="I87af39e97a654ffebf56aa9ffc21153420251110123031"> <path id="Ibfb672470ed047ba98be1ea6f643d8ab20251110123031" d="m 35.355,48.438 c 0.54,-1.668 1.29,-3.243 2.215,-4.692 L 13.293,43.75 c -3.883,0 -7.031,3.148 -7.031,7.031 v 2.836 c 0,3.414 1.488,6.66 4.078,8.887 4.887,4.199 11.883,6.25 20.91,6.25 2.945,0 5.672,-0.219 8.18,-0.66 -1.145,-1.301 -2.125,-2.75 -2.903,-4.313 -1.648,0.188 -3.406,0.285 -5.277,0.285 -7.996,0 -13.922,-1.738 -17.852,-5.117 -1.554,-1.336 -2.449,-3.285 -2.449,-5.332 v -2.836 c 0,-1.293 1.051,-2.343 2.344,-2.343 z m 11.52,-26.547 c 0,-8.629 -6.996,-15.625 -15.625,-15.625 -8.629,0 -15.625,6.996 -15.625,15.625 0,8.629 6.996,15.625 15.625,15.625 8.629,0 15.625,-6.996 15.625,-15.625 z m -26.563,0 c 0,-6.043 4.899,-10.938 10.938,-10.938 6.043,0 10.938,4.895 10.938,10.938 0,6.039 -4.895,10.937 -10.938,10.937 -6.039,0 -10.938,-4.898 -10.938,-10.937 z M 54.496,37.5 C 45.156,37.602 37.602,45.156 37.5,54.496 Z M 40.988,65.07 C 39.887,63.617 39.008,61.984 38.41,60.219 L 60.219,38.41 c 1.761,0.598 3.398,1.477 4.851,2.578 z m 3.317,3.317 c 1.453,1.101 3.09,1.98 4.851,2.578 L 70.965,49.156 C 70.367,47.395 69.488,45.758 68.383,44.305 Z M 71.871,54.879 c -0.101,9.34 -7.652,16.894 -16.992,16.996 z" style="fill:currentColor;fill-opacity:1;fill-rule:nonzero;stroke:none" transform="scale(1.3333333)" /> </g>
</svg>

