<?xml version="1.0" encoding="UTF-8" standalone="no"?> <svg version="1.1" id="I30f2fc6713cc412e8bad6b300423707320251110124421" width="100" height="100" viewBox="0 0 100 100" xmlns="http://www.w3.org/2000/svg" xmlns:svg="http://www.w3.org/2000/svg"> <defs id="Ia4890581372c451496850c3bd6d4d24e20251110124421"> <linearGradient x1="1.21032" y1="0.325396" x2="16.8929" y2="25.658701" gradientUnits="userSpaceOnUse" gradientTransform="scale(3.125)" spreadMethod="pad" id="Ic60b1b4d8c984830a06b571ecb5a440b20251110124421"> <stop style="stop-opacity:1;stop-color:#3dcbff" offset="0" id="I40a59e84728d49b38b49a42acbe5d25720251110124421" /> <stop style="stop-opacity:1;stop-color:#3dcbff" offset="0.0152387" id="Iff96beede42a445abccdb4102d2f41ca20251110124421" /> <stop style="stop-opacity:1;stop-color:#0094f0" offset="1" id="Ib10af2ce3f634c7a8fe2b0b138c6d35e20251110124421" /> </linearGradient> <radialGradient fx="0" fy="0" cx="0" cy="0" r="1" gradientUnits="userSpaceOnUse" gradientTransform="matrix(15.380854,17.089846,-14.636672,13.172999,28.076188,26.367188)" spreadMethod="pad" id="I394f2227d1374af9b271488a611c64ef20251110124421"> <stop style="stop-opacity:1;stop-color:#0fafff" offset="0" id="I614124e6fc4d499b9286337fd51cb23920251110124421" /> <stop style="stop-opacity:1;stop-color:#2052cb" offset="1" id="Ic3d199d6695b4570ab450cb48f5d604520251110124421" /> </radialGradient> </defs> <g id="Iace101ba59b9478aacd4eda8edc40aca20251110124421"> <path id="Ide9650d2a7764ca183783e3593aeceed20251110124421" d="m 14.062,12.5 c -0.863,0 -1.562,0.699 -1.562,1.562 V 25 c 0,1.727 -1.398,3.125 -3.125,3.125 C 7.648,28.125 6.25,26.727 6.25,25 V 14.062 C 6.25,9.746 9.746,6.25 14.062,6.25 H 25 c 1.727,0 3.125,1.398 3.125,3.125 0,1.727 -1.398,3.125 -3.125,3.125 z M 46.875,9.375 C 46.875,7.648 48.273,6.25 50,6.25 h 10.938 c 4.316,0 7.812,3.496 7.812,7.812 V 25 c 0,1.727 -1.398,3.125 -3.125,3.125 C 63.898,28.125 62.5,26.727 62.5,25 V 14.062 C 62.5,13.199 61.801,12.5 60.938,12.5 H 50 c -1.727,0 -3.125,-1.398 -3.125,-3.125 z m -37.5,37.5 c 1.727,0 3.125,1.398 3.125,3.125 v 10.938 c 0,0.863 0.699,1.562 1.562,1.562 H 25 c 1.727,0 3.125,1.398 3.125,3.125 0,1.727 -1.398,3.125 -3.125,3.125 H 14.062 C 9.746,68.75 6.25,65.254 6.25,60.938 V 50 c 0,-1.727 1.398,-3.125 3.125,-3.125 z m 56.25,0 c 1.727,0 3.125,1.398 3.125,3.125 v 10.938 c 0,4.316 -3.496,7.812 -7.812,7.812 H 50 c -1.727,0 -3.125,-1.398 -3.125,-3.125 0,-1.727 1.398,-3.125 3.125,-3.125 h 10.938 c 0.863,0 1.562,-0.699 1.562,-1.562 V 50 c 0,-1.727 1.398,-3.125 3.125,-3.125 z" transform="scale(1.3333333)" style="fill:url(#Ic60b1b4d8c984830a06b571ecb5a440b20251110124421);fill-rule:evenodd;stroke:none" /> <path id="I4bca4d3c83af48d9b261ac50a1f20dec20251110124421" d="m 37.5,46.875 c 5.18,0 9.375,-4.195 9.375,-9.375 0,-5.18 -4.195,-9.375 -9.375,-9.375 -5.18,0 -9.375,4.195 -9.375,9.375 0,5.18 4.195,9.375 9.375,9.375 z M 23.438,27.344 c 2.156,0 3.906,-1.75 3.906,-3.906 0,-2.157 -1.75,-3.907 -3.906,-3.907 -2.157,0 -3.907,1.75 -3.907,3.907 0,2.156 1.75,3.906 3.907,3.906 z" transform="scale(1.3333333)" style="fill:url(#I394f2227d1374af9b271488a611c64ef20251110124421);stroke:none" /> </g>
</svg>

