<?xml version="1.0" encoding="UTF-8" standalone="no"?> <svg version="1.1" id="Ice9182308563470391cb4c62e6d97ca820251106103256" width="100" height="100" viewBox="0 0 100 100" xmlns="http://www.w3.org/2000/svg" xmlns:svg="http://www.w3.org/2000/svg"> <defs id="Ic3dde4e476a24fe0bf988c7175caaab320251106103256" /> <g id="Id7034dcbb53d4ae68f7806d77dfd258320251106103256"> <path id="I3f31bf6797934c829541ffe221c3b4a720251106103256" d="m 42.113,37.5 26.66,-26.727 c 0.418,-0.418 0.125,-1.148 -0.468,-1.148 h -7.578 c -0.176,0 -0.352,0.066 -0.469,0.195 L 37.383,32.754 29.832,25.18 c 1.047,-1.852 1.648,-3.985 1.648,-6.262 0,-7.023 -5.699,-12.723 -12.722,-12.723 -7.024,0 -12.723,5.7 -12.723,12.723 0,7.023 5.699,12.723 12.723,12.723 2.32,0 4.488,-0.621 6.355,-1.7 l 7.532,7.559 -7.543,7.559 c -1.93,-1.118 -4.122,-1.704 -6.352,-1.7 -7.023,0 -12.723,5.7 -12.723,12.723 0,7.023 5.7,12.723 12.723,12.723 7.023,0 12.723,-5.7 12.723,-12.723 0,-2.277 -0.602,-4.41 -1.649,-6.262 L 37.375,42.246 60.25,65.18 c 0.125,0.129 0.293,0.195 0.469,0.195 h 7.586 c 0.593,0 0.894,-0.723 0.468,-1.148 z M 18.75,25.613 c -3.691,0 -6.695,-3.004 -6.695,-6.695 0,-3.691 3.004,-6.695 6.695,-6.695 3.691,0 6.695,3.004 6.695,6.695 0,3.691 -3.004,6.695 -6.695,6.695 z m 0,37.164 c -3.691,0 -6.695,-3.004 -6.695,-6.695 0,-3.691 3.004,-6.695 6.695,-6.695 3.691,0 6.695,3.004 6.695,6.695 0,3.691 -3.004,6.695 -6.695,6.695 z" style="fill:currentColor;fill-opacity:1;fill-rule:nonzero;stroke:none" transform="scale(1.3333333)" /> </g>
</svg>

