<?xml version="1.0" encoding="UTF-8" standalone="no"?> <svg version="1.1" id="Ie731d55ed8fa450da3f3fa8f1d48101920251106151527" width="100" height="100" viewBox="0 0 100 100" xmlns="http://www.w3.org/2000/svg" xmlns:svg="http://www.w3.org/2000/svg"> <defs id="Ieb1660f87c69441b975ddee8d941be0c20251106151527" /> <g id="Iea3d20f5a35e4d32ba1ffd2c49a96c2720251106151527"> <path id="I3122afc8ac6c4d749b967297e44c7a9a20251106151527" d="m 32.812,21.098 v 23.437 c 0,1.539 -0.304,3.063 -0.89,4.485 -0.59,1.421 -1.453,2.714 -2.543,3.8 -1.086,1.09 -2.379,1.953 -3.801,2.539 -1.422,0.59 -2.945,0.895 -4.484,0.895 -3.11,0 -6.09,-1.234 -8.285,-3.434 -2.2,-2.195 -3.434,-5.175 -3.434,-8.285 v -2.344 c 0,-0.621 0.246,-1.218 0.687,-1.656 0.438,-0.441 1.036,-0.687 1.657,-0.687 0.621,0 1.219,0.246 1.656,0.687 0.441,0.438 0.687,1.035 0.687,1.656 v 2.344 c 0,1.863 0.743,3.653 2.059,4.973 1.32,1.316 3.109,2.058 4.973,2.058 1.863,0 3.652,-0.742 4.972,-2.058 1.317,-1.32 2.059,-3.11 2.059,-4.973 V 21.098 c 0,-0.621 0.246,-1.219 0.687,-1.657 0.438,-0.441 1.036,-0.687 1.657,-0.687 0.621,0 1.219,0.246 1.656,0.687 0.441,0.438 0.687,1.036 0.687,1.657 z m 17.231,14.211 c -4.887,-1.832 -7.855,-3.153 -7.855,-6.008 0,-4.328 3.789,-5.86 7.031,-5.86 3.242,0 7.031,1.532 7.031,5.86 0,0.621 0.246,1.219 0.688,1.656 0.437,0.441 1.035,0.688 1.656,0.688 0.621,0 1.218,-0.247 1.656,-0.688 0.441,-0.437 0.688,-1.035 0.688,-1.656 C 60.926,27.816 60.602,26.355 59.992,25.004 59.383,23.652 58.5,22.441 57.398,21.449 56.297,20.457 55,19.707 53.594,19.242 c -2.617,-0.863 -6.133,-0.863 -8.75,0 -1.406,0.465 -2.703,1.215 -3.805,2.207 -1.101,0.992 -1.984,2.203 -2.594,3.555 -0.609,1.351 -0.933,2.812 -0.945,4.297 0,6.312 6.043,8.578 10.895,10.398 4.851,1.817 7.855,3.153 7.855,6.008 0,4.324 -3.789,5.859 -7.031,5.859 -3.242,0 -7.031,-1.535 -7.031,-5.859 0,-0.621 -0.247,-1.219 -0.688,-1.656 -0.438,-0.442 -1.035,-0.688 -1.656,-0.688 -0.621,0 -1.219,0.246 -1.656,0.688 -0.442,0.437 -0.688,1.035 -0.688,1.656 0.012,1.481 0.336,2.945 0.945,4.297 0.61,1.351 1.493,2.562 2.594,3.555 1.102,0.992 2.399,1.742 3.805,2.207 1.41,0.464 2.898,0.629 4.375,0.488 1.476,0.141 2.965,-0.024 4.375,-0.488 1.406,-0.465 2.703,-1.215 3.804,-2.207 1.102,-0.993 1.985,-2.204 2.594,-3.555 0.61,-1.352 0.934,-2.816 0.946,-4.297 0,-6.328 -6.043,-8.578 -10.895,-10.398 z" style="fill:currentColor;fill-opacity:1;fill-rule:nonzero;stroke:none" transform="scale(1.3333333)" /> </g>
</svg>

