<?xml version="1.0" encoding="UTF-8" standalone="no"?> <svg version="1.1" id="I677e677d875f46b7bdc98d5a2fdc543220251106112458" width="100" height="100" viewBox="0 0 100 100" xmlns="http://www.w3.org/2000/svg" xmlns:svg="http://www.w3.org/2000/svg"> <defs id="Idb9d01ba4fff4e45830a9d0911d192ec20251106112458" /> <g id="I667986518e5a44bebb862c181b60983420251106112458"> <path id="Icd14d8ed1aec4e9e96d9c1601f4e879120251106112458" d="M 70.98,10.715 H 22.098 c -0.368,0 -0.668,0.301 -0.668,0.668 v 4.687 c 0,0.371 0.3,0.672 0.668,0.672 H 70.98 c 0.372,0 0.672,-0.301 0.672,-0.672 v -4.687 c 0,-0.367 -0.3,-0.668 -0.672,-0.668 z m 0,23.773 H 22.098 c -0.368,0 -0.668,0.301 -0.668,0.668 v 4.688 c 0,0.367 0.3,0.668 0.668,0.668 H 70.98 c 0.372,0 0.672,-0.301 0.672,-0.668 v -4.688 c 0,-0.367 -0.3,-0.668 -0.672,-0.668 z m 0,23.77 H 22.098 c -0.368,0 -0.668,0.301 -0.668,0.672 v 4.687 c 0,0.367 0.3,0.668 0.668,0.668 H 70.98 c 0.372,0 0.672,-0.301 0.672,-0.668 V 58.93 c 0,-0.371 -0.3,-0.672 -0.672,-0.672 z M 3.348,13.727 c 0,6.25 9.375,6.25 9.375,0 0,-6.25 -9.375,-6.25 -9.375,0 z m 0,23.773 c 0,6.25 9.375,6.25 9.375,0 0,-6.25 -9.375,-6.25 -9.375,0 z m 0,23.773 c 0,6.25 9.375,6.25 9.375,0 0,-6.25 -9.375,-6.25 -9.375,0 z" style="fill:currentColor;fill-opacity:1;fill-rule:nonzero;stroke:none" transform="scale(1.3333333)" /> </g>
</svg>

