<?xml version="1.0" encoding="UTF-8" standalone="no"?> <svg version="1.1" id="Ifcecc5b5b1054b05bcc5e19c9927c2ba20251106170956" width="100" height="100" viewBox="0 0 100 100" xmlns="http://www.w3.org/2000/svg" xmlns:svg="http://www.w3.org/2000/svg"> <defs id="Ia9cf49a777794ba2980caf0eb6491a3d20251106170956" /> <g id="Ibe29be4656314ce7af307b017f0d52aa20251106170956"> <path id="I40a2a2405368432fa272699c3bdd220120251106170956" d="m 24.105,17.41 c 0,-6.656 5.399,-12.055 12.055,-12.055 6.656,0 12.055,5.399 12.055,12.055 v 4.02 h 3.347 c 5.547,0 10.043,4.496 10.043,10.043 v 7.336 c -1.3,-0.871 -2.402,-1.821 -3.234,-2.621 -1.887,-1.821 -5.035,-1.821 -6.922,0 -2.011,1.941 -5.601,4.726 -9.789,5.281 -0.68,0.09 -1.379,0.34 -2.008,0.734 -0.695,-1.207 -1.996,-2.023 -3.492,-2.023 -2.219,0 -4.015,1.797 -4.015,4.015 0,2.219 1.796,4.02 4.015,4.02 0.469,0 0.922,-0.082 1.34,-0.231 v 6.993 c 0,5.105 1.82,9.039 4.227,11.988 H 20.758 c -5.547,0 -10.043,-4.496 -10.043,-10.047 V 31.473 c 0,-5.547 4.496,-10.043 10.043,-10.043 h 3.347 z M 36.16,9.375 c -4.437,0 -8.035,3.598 -8.035,8.035 v 4.02 h 16.07 v -4.02 c 0,-4.437 -3.597,-8.035 -8.035,-8.035 z m 20.352,28.742 c 2.14,2.059 6.246,5.336 11.293,6.008 1.007,0.133 1.84,0.902 1.84,1.863 v 8.989 c 0,12.078 -11.719,16.461 -14.254,17.269 -0.317,0.102 -0.641,0.102 -0.957,0 C 51.898,71.438 40.18,67.055 40.18,54.977 v -8.989 c 0,-0.961 0.828,-1.73 1.836,-1.863 5.046,-0.672 9.156,-3.949 11.293,-6.008 0.851,-0.824 2.351,-0.824 3.203,0 z" style="fill:currentColor;fill-opacity:1;fill-rule:nonzero;stroke:none" transform="scale(1.3333333)" /> </g>
</svg>

