<?xml version="1.0" encoding="UTF-8" standalone="no"?> <svg version="1.1" id="I22974db1e2de475bac85621d271a90f220251106154012" width="100" height="100" viewBox="0 0 100 100" xmlns="http://www.w3.org/2000/svg" xmlns:svg="http://www.w3.org/2000/svg"> <defs id="I2147ecfb12a744bbb8693d6c89e581f520251106154012" /> <g id="I79b49b34f6414bf0851836c9b9d7aa4320251106154012"> <path id="I5bf8b5d5c941469f8382932bbe61fa2820251106154012" d="m 31.25,12.5 c -5.176,0 -9.375,4.199 -9.375,9.375 v 12.5 c 0,5.18 4.199,9.375 9.375,9.375 5.18,0 9.375,-4.195 9.375,-9.375 v -12.5 C 40.625,16.699 36.43,12.5 31.25,12.5 Z m 4.688,21.875 c 0,2.59 -2.098,4.687 -4.688,4.687 -2.59,0 -4.688,-2.097 -4.688,-4.687 v -12.5 c 0,-2.59 2.098,-4.687 4.688,-4.687 2.59,0 4.688,2.097 4.688,4.687 z m -20.313,4.687 c 0,2.59 -2.098,4.688 -4.687,4.688 -2.59,0 -4.688,-2.098 -4.688,-4.688 0,-2.589 2.098,-4.687 4.688,-4.687 2.589,0 4.687,2.098 4.687,4.687 z M 60.938,21.875 v 12.5 c 0,0.324 -0.032,0.641 -0.098,0.949 1.527,0.485 2.976,1.145 4.324,1.957 0.301,-0.914 0.461,-1.89 0.461,-2.906 v -12.5 c 0,-5.176 -4.195,-9.375 -9.375,-9.375 -5.18,0 -9.375,4.199 -9.375,9.375 v 12.5 c 0,0.512 0.043,1.016 0.121,1.508 1.449,-0.594 2.981,-1.024 4.574,-1.27 -0.008,-0.078 -0.008,-0.16 -0.008,-0.238 v -12.5 c 0,-2.59 2.098,-4.687 4.688,-4.687 2.59,0 4.688,2.097 4.688,4.687 z m 10.937,32.813 c 0,9.492 -7.695,17.187 -17.187,17.187 C 45.195,71.875 37.5,64.18 37.5,54.688 37.5,45.195 45.195,37.5 54.688,37.5 c 9.492,0 17.187,7.695 17.187,17.188 z M 45.312,53.125 c -0.863,0 -1.562,0.699 -1.562,1.563 0,0.863 0.699,1.562 1.562,1.562 h 14.977 l -5.144,5.145 c -0.61,0.609 -0.61,1.601 0,2.21 0.609,0.61 1.601,0.61 2.21,0 l 7.813,-7.812 c 0.609,-0.609 0.609,-1.602 0,-2.211 L 57.355,45.77 c -0.609,-0.61 -1.601,-0.61 -2.21,0 -0.61,0.609 -0.61,1.601 0,2.21 l 5.144,5.145 z" style="fill:currentColor;fill-opacity:1;fill-rule:nonzero;stroke:none" transform="scale(1.3333333)" /> </g>
</svg>

