<?xml version="1.0" encoding="UTF-8" standalone="no"?> <svg version="1.1" id="Ia98cb8425136444e8070c5afc4dec2ed20251110135155" width="100" height="100" viewBox="0 0 100 100" xmlns="http://www.w3.org/2000/svg" xmlns:svg="http://www.w3.org/2000/svg"> <defs id="I6ac8c45595a14e50853da811656182a520251110135155" /> <g id="I69bf300910914ec0943741612a9c7a5e20251110135155"> <path id="I80173fa37ec54b00b3d4db747ee96b2520251110135155" d="m 21.562,11.25 h 31.876 c 5.695,0 10.312,4.617 10.312,10.312 v 31.876 c 0,5.695 -4.617,10.312 -10.312,10.312 H 37.953 L 34.203,60 H 53.438 C 57.062,60 60,57.062 60,53.438 V 21.562 C 60,17.938 57.062,15 53.438,15 H 21.562 C 17.938,15 15,17.938 15,21.562 v 12.29 c -1.301,0.144 -2.555,0.437 -3.75,0.859 V 21.562 c 0,-5.695 4.617,-10.312 10.312,-10.312 z M 35.625,52.5 c -1.035,0 -1.875,-0.84 -1.875,-1.875 0,-1.035 0.84,-1.875 1.875,-1.875 h 15 c 1.035,0 1.875,0.84 1.875,1.875 0,1.035 -0.84,1.875 -1.875,1.875 z m -7.5,-25.312 C 28.125,28.742 26.867,30 25.312,30 23.758,30 22.5,28.742 22.5,27.188 c 0,-1.555 1.258,-2.813 2.812,-2.813 1.555,0 2.813,1.258 2.813,2.813 z m 7.5,-0.938 c -1.035,0 -1.875,0.84 -1.875,1.875 0,1.035 0.84,1.875 1.875,1.875 h 15 C 51.66,30 52.5,29.16 52.5,28.125 52.5,27.09 51.66,26.25 50.625,26.25 Z m 0,11.25 c -1.035,0 -1.875,0.84 -1.875,1.875 0,1.035 0.84,1.875 1.875,1.875 h 15 c 1.035,0 1.875,-0.84 1.875,-1.875 0,-1.035 -0.84,-1.875 -1.875,-1.875 z m -18.75,26.25 c 2.949,0 5.668,-0.973 7.859,-2.613 l 9.567,9.562 c 0.73,0.735 1.918,0.735 2.648,0 0.735,-0.73 0.735,-1.918 0,-2.648 L 27.387,58.484 C 29.027,56.293 30,53.574 30,50.625 30,43.375 24.125,37.5 16.875,37.5 9.625,37.5 3.75,43.375 3.75,50.625 c 0,7.25 5.875,13.125 13.125,13.125 z m 0,-3.75 C 11.699,60 7.5,55.801 7.5,50.625 c 0,-5.176 4.199,-9.375 9.375,-9.375 5.176,0 9.375,4.199 9.375,9.375 0,5.176 -4.199,9.375 -9.375,9.375 z" style="fill:currentColor;fill-opacity:1;fill-rule:nonzero;stroke:none" transform="scale(1.3333333)" /> </g>
</svg>

