<?xml version="1.0" encoding="UTF-8" standalone="no"?> <svg version="1.1" id="Id055f8305fd44fe9b17a27e265c71b0820251110123031" width="100" height="100" viewBox="0 0 100 100" xmlns="http://www.w3.org/2000/svg" xmlns:svg="http://www.w3.org/2000/svg"> <defs id="I1056cdd2478a485ead7272c6d78cd0f020251110123031" /> <g id="If63bf27ef5934cccbe1baa726780bbea20251110123031"> <path id="I549c1fdf15684ed7890f31359dac211f20251110123031" d="m 34.867,63.984 c 0.207,1.661 0.754,3.282 1.641,4.758 -9.34,-0.187 -16.461,-3.015 -21.188,-8.551 -1.812,-2.121 -2.808,-4.82 -2.808,-7.609 v -1.809 c 0,-3.878 3.148,-7.027 7.027,-7.027 H 48.52 l -4.688,4.688 H 19.539 c -1.293,0 -2.34,1.05 -2.34,2.339 v 1.809 c 0,1.672 0.598,3.293 1.684,4.566 3.504,4.102 8.789,6.399 15.984,6.836 z M 37.5,6.262 c 8.629,0 15.625,6.996 15.625,15.625 0,8.629 -6.996,15.625 -15.625,15.625 -8.629,0 -15.625,-6.996 -15.625,-15.625 0,-8.629 6.996,-15.625 15.625,-15.625 z m 0,4.687 c -6.039,0 -10.938,4.899 -10.938,10.938 0,6.043 4.899,10.937 10.938,10.937 6.043,0 10.938,-4.894 10.938,-10.937 0,-6.039 -4.895,-10.938 -10.938,-10.938 z m 31.344,29.582 c -3.504,-3.508 -9.184,-3.508 -12.688,0 L 40.531,56.156 c -3.504,3.504 -3.504,9.184 0,12.688 3.504,3.504 9.184,3.504 12.688,0 L 68.844,53.219 c 3.508,-3.504 3.508,-9.184 0,-12.688 z m -9.375,3.313 c 1.676,-1.672 4.39,-1.672 6.062,0 1.672,1.672 1.672,4.386 0,6.062 L 59.375,56.059 53.316,50 Z m -6.25,15.433 c 0.918,0.918 0.918,2.403 0,3.317 l -3.125,3.125 c -0.914,0.914 -2.399,0.914 -3.313,0 -0.914,-0.914 -0.914,-2.399 0,-3.317 l 3.125,-3.125 c 0.914,-0.914 2.399,-0.914 3.313,0 z" style="fill:currentColor;fill-opacity:1;fill-rule:nonzero;stroke:none" transform="scale(1.3333333)" /> </g>
</svg>

