<?xml version="1.0" encoding="UTF-8" standalone="no"?> <svg version="1.1" id="I04b55635f5214041b32b3f93cf93cb6420251106143238" width="100" height="100" viewBox="0 0 100 100" xmlns="http://www.w3.org/2000/svg" xmlns:svg="http://www.w3.org/2000/svg"> <defs id="I0dd20004df9b4bb48716eb4002ce755f20251106143238" /> <g id="I478167ab4aba463b857559316239acde20251106143238"> <path id="Id769464b6b884c56bb31526d5c8e7e2720251106143238" d="m 54.688,37.5 c 9.492,0 17.187,7.695 17.187,17.188 0,9.492 -7.695,17.187 -17.187,17.187 C 45.195,71.875 37.5,64.18 37.5,54.688 37.5,45.195 45.195,37.5 54.688,37.5 Z m -7.739,9.449 c -0.609,0.613 -0.609,1.602 0,2.211 l 5.528,5.531 -5.52,5.52 c -0.609,0.609 -0.609,1.598 0,2.211 0.609,0.609 1.602,0.609 2.211,0 l 5.52,-5.524 5.531,5.528 c 0.609,0.613 1.597,0.613 2.207,0 0.609,-0.61 0.609,-1.598 0,-2.207 l -5.528,-5.528 5.536,-5.531 c 0.613,-0.609 0.613,-1.598 0,-2.211 -0.61,-0.609 -1.598,-0.609 -2.207,0 L 54.691,52.48 49.16,46.949 c -0.613,-0.609 -1.601,-0.609 -2.211,0 z M 65.625,26.562 65.629,37.57 c -3.156,-2.023 -6.914,-3.195 -10.941,-3.195 -11.219,0 -20.313,9.094 -20.313,20.313 0,4.027 1.172,7.785 3.195,10.941 L 19.531,65.625 C 13.922,65.625 9.375,61.078 9.375,55.469 V 26.562 Z M 55.469,9.375 c 5.609,0 10.156,4.547 10.156,10.156 v 2.344 H 9.375 v -2.344 c 0,-5.609 4.547,-10.156 10.156,-10.156 z" style="fill:currentColor;fill-opacity:1;fill-rule:nonzero;stroke:none" transform="scale(1.3333333)" /> </g>
</svg>

