<?xml version="1.0" encoding="UTF-8" standalone="no"?> <svg version="1.1" id="I1ef433a2deec432db0bfefb44fb4b12920251106123600" width="100" height="100" viewBox="0 0 100 100" xmlns="http://www.w3.org/2000/svg" xmlns:svg="http://www.w3.org/2000/svg"> <defs id="I4aa7411ed8ff45b6a59f00bbe6fc031120251106123600" /> <g id="I89851cc8cbbf4cdb85e8b17e045c8ebe20251106123600"> <path id="Ia53b2d8d253f4edd97b493cf275b535720251106123600" d="m 54.688,12.477 c 4.316,0 7.812,3.496 7.812,7.812 v 12.5 c 0,1.727 -1.398,3.125 -3.125,3.125 -1.727,0 -3.125,-1.398 -3.125,-3.125 v -12.5 c 0,-0.863 -0.699,-1.562 -1.562,-1.562 H 20.312 c -0.863,0 -1.562,0.699 -1.562,1.562 v 12.5 c 0,1.727 -1.398,3.125 -3.125,3.125 -1.727,0 -3.125,-1.398 -3.125,-3.125 v -12.5 c 0,-4.316 3.496,-7.812 7.812,-7.812 z m 2.187,28.261 -0.309,-0.265 -0.019,-0.016 c -1.227,-0.906 -2.961,-0.809 -4.07,0.301 -1.11,1.109 -1.211,2.847 -0.305,4.07 l 0.019,0.024 0.262,0.308 2.504,2.496 h -9.969 l -0.336,0.028 -0.031,0.004 c -1.449,0.222 -2.433,1.593 -2.433,3.093 0,1.496 0.984,2.871 2.433,3.094 l 0.031,0.004 0.336,0.027 h 9.969 l -2.504,2.504 -0.289,0.344 -0.019,0.027 c -0.79,1.098 -0.778,2.59 0.027,3.676 l 0.019,0.023 0.286,0.332 0.363,0.309 0.027,0.02 c 1.098,0.789 2.59,0.777 3.68,-0.032 l 0.019,-0.015 0.309,-0.266 7.379,-7.371 0.199,-0.141 0.024,-0.015 c 0.711,-0.582 1.148,-1.508 1.148,-2.516 0,-1.113 -0.531,-2.129 -1.387,-2.691 z m -34.145,4.121 -0.265,0.309 -2.5,2.496 h 9.937 c 1.657,0 2.832,1.5 2.832,3.125 0,1.5 -0.984,2.871 -2.433,3.094 l -0.031,0.008 -0.34,0.023 h -9.969 l 2.484,2.484 c 1.11,1.11 1.211,2.844 0.301,4.071 l -0.016,0.023 -0.265,0.305 -0.02,0.019 c -1.109,1.11 -2.843,1.211 -4.07,0.305 L 18.352,61.102 18.047,60.836 10.684,53.48 C 9.828,52.922 9.297,51.906 9.297,50.793 c 0,-1.113 0.531,-2.129 1.383,-2.688 l 7.347,-7.335 c 1.219,-1.223 3.2,-1.223 4.418,0 1.11,1.109 1.211,2.843 0.301,4.066 z" style="fill:currentColor;fill-opacity:1;fill-rule:nonzero;stroke:none" transform="scale(1.3333333)" /> </g>
</svg>

