<?xml version="1.0" encoding="UTF-8" standalone="no"?> <svg version="1.1" id="I2e359d20c1e347398369b9b11526949a20251106155156" width="100" height="100" viewBox="0 0 100 100" xmlns="http://www.w3.org/2000/svg" xmlns:svg="http://www.w3.org/2000/svg"> <defs id="Ia64aa230c3934909a25088d7a38d796720251106155156" /> <g id="I0580b04feb5b4b85a1b0d51c3c33ea8120251106155156"> <path id="I0ab060f359d0456fa41f5606369ff5ef20251106155156" d="m 30.469,14.062 c -0.43,0 -0.781,0.352 -0.781,0.782 v 12.5 c 0,1.293 -1.051,2.344 -2.344,2.344 h -12.5 c -0.43,0 -0.782,0.351 -0.782,0.781 v 14.062 c 0,0.43 0.352,0.781 0.782,0.781 h 12.5 c 1.293,0 2.344,1.051 2.344,2.344 v 12.5 c 0,0.43 0.351,0.782 0.781,0.782 h 14.062 c 0.43,0 0.781,-0.352 0.781,-0.782 v -12.5 c 0,-1.293 1.051,-2.344 2.344,-2.344 h 12.5 c 0.43,0 0.782,-0.351 0.782,-0.781 V 30.469 c 0,-0.43 -0.352,-0.781 -0.782,-0.781 h -12.5 c -1.293,0 -2.344,-1.051 -2.344,-2.344 v -12.5 c 0,-0.43 -0.351,-0.782 -0.781,-0.782 z M 25,14.844 c 0,-3.02 2.449,-5.469 5.469,-5.469 h 14.062 c 3.02,0 5.469,2.449 5.469,5.469 V 25 h 10.156 c 3.02,0 5.469,2.449 5.469,5.469 v 14.062 c 0,3.02 -2.449,5.469 -5.469,5.469 H 50 v 10.156 c 0,3.02 -2.449,5.469 -5.469,5.469 H 30.469 C 27.449,65.625 25,63.176 25,60.156 V 50 H 14.844 C 11.824,50 9.375,47.551 9.375,44.531 V 30.469 C 9.375,27.449 11.824,25 14.844,25 H 25 Z" style="fill:currentColor;fill-opacity:1;fill-rule:nonzero;stroke:none" transform="scale(1.3333333)" /> </g>
</svg>

