<?xml version="1.0" encoding="UTF-8" standalone="no"?> <svg version="1.1" id="Ie4c06b4690474ab691caa824de72998320251110135155" width="100" height="100" viewBox="0 0 100 100" xmlns="http://www.w3.org/2000/svg" xmlns:svg="http://www.w3.org/2000/svg"> <defs id="I68f189047af44a0fa91aced22d22fa1620251110135155" /> <g id="I82b065bc856549e2938451a3cb6dced320251110135155"> <path id="Ibcbb63e7ccf9406e9a2ae30ea7a6617a20251110135155" d="m 61.586,16.539 c 1.219,1.223 1.219,3.199 0,4.422 -1.223,1.219 -3.199,1.219 -4.422,0 L 56.25,20.043 V 62.5 c 0,1.727 -1.398,3.125 -3.125,3.125 C 51.398,65.625 50,64.227 50,62.5 V 20.043 l -0.914,0.918 c -1.223,1.219 -3.199,1.219 -4.422,0 -1.219,-1.223 -1.219,-3.199 0,-4.422 l 6.25,-6.25 c 1.223,-1.219 3.199,-1.219 4.422,0 z M 11.297,53.668 39.422,65.387 c 1.594,0.664 3.426,-0.09 4.086,-1.684 0.664,-1.594 -0.086,-3.422 -1.68,-4.086 L 34.375,56.512 V 45.055 l 7.453,-3.106 c 1.594,-0.664 2.344,-2.496 1.68,-4.09 -0.66,-1.589 -2.492,-2.343 -4.086,-1.679 L 11.297,47.898 c -1.164,0.485 -1.922,1.622 -1.922,2.883 0,1.262 0.758,2.399 1.922,2.887 z m 16.828,0.238 -7.5,-3.125 7.5,-3.125 z m 5.336,-32.945 c 1.219,-1.223 1.219,-3.199 0,-4.422 l -6.25,-6.25 c -1.223,-1.219 -3.199,-1.219 -4.418,0 l -6.25,6.25 c -1.223,1.223 -1.223,3.199 0,4.422 1.219,1.219 3.195,1.219 4.418,0 l 0.914,-0.918 V 31.25 c 0,1.727 1.398,3.125 3.125,3.125 1.727,0 3.125,-1.398 3.125,-3.125 V 20.043 l 0.918,0.918 c 1.219,1.219 3.195,1.219 4.418,0 z" style="fill:currentColor;fill-opacity:1;fill-rule:nonzero;stroke:none" transform="scale(1.3333333)" /> </g>
</svg>

