<?xml version="1.0" encoding="UTF-8" standalone="no"?> <svg version="1.1" id="I16cfc8981f9544698e1f7797ff9932d420251110123031" width="100" height="100" viewBox="0 0 100 100" xmlns="http://www.w3.org/2000/svg" xmlns:svg="http://www.w3.org/2000/svg"> <defs id="Ie3e9bae9090a44e3a57585af1f33010420251110123031" /> <g id="If4e2537bd8f146e68f62115ed974395a20251110123031"> <path id="Ib0d6618d0a734e2a9687ef45afab91bf20251110123031" d="m 35.355,48.434 c 0.54,-1.664 1.29,-3.239 2.215,-4.688 H 16.414 c -3.879,0 -7.027,3.149 -7.027,7.027 v 1.809 c 0,2.789 0.996,5.488 2.808,7.609 4.895,5.731 12.352,8.559 22.18,8.559 1.875,0 3.664,-0.102 5.367,-0.309 -1.222,-1.328 -2.273,-2.816 -3.109,-4.433 -0.731,0.035 -1.485,0.054 -2.258,0.054 -8.555,0 -14.699,-2.328 -18.617,-6.914 -1.086,-1.273 -1.684,-2.894 -1.684,-4.566 v -1.809 c 0,-1.289 1.047,-2.339 2.34,-2.339 z M 34.375,6.262 c 8.629,0 15.625,6.996 15.625,15.625 0,8.629 -6.996,15.625 -15.625,15.625 -8.629,0 -15.625,-6.996 -15.625,-15.625 0,-8.629 6.996,-15.625 15.625,-15.625 z m 0,4.687 c -6.039,0 -10.937,4.899 -10.937,10.938 0,6.043 4.898,10.937 10.937,10.937 6.043,0 10.937,-4.894 10.937,-10.937 0,-6.039 -4.894,-10.938 -10.937,-10.938 z m 37.5,43.739 c 0,9.492 -7.695,17.187 -17.187,17.187 C 45.195,71.875 37.5,64.18 37.5,54.688 37.5,45.195 45.195,37.5 54.688,37.5 c 9.492,0 17.187,7.695 17.187,17.188 z m -28.125,0 c 0,0.863 0.699,1.562 1.562,1.562 h 18.75 c 0.864,0 1.563,-0.699 1.563,-1.562 0,-0.864 -0.699,-1.563 -1.563,-1.563 h -18.75 c -0.863,0 -1.562,0.699 -1.562,1.563 z" style="fill:currentColor;fill-opacity:1;fill-rule:nonzero;stroke:none" transform="scale(1.3333333)" /> </g>
</svg>

