<?xml version="1.0" encoding="UTF-8" standalone="no"?> <svg version="1.1" id="Ie1445554551045a08f555e2e8462fe8f20251105141019" width="100" height="100" viewBox="0 0 100 100" xmlns="http://www.w3.org/2000/svg" xmlns:svg="http://www.w3.org/2000/svg"> <defs id="Ia700286bac5d4ea5ae43341f2460dbe520251105141019" /> <g id="Id30b9b095e094a22a9bdfbc60b9c4d1d20251105141019"> <path id="I7fbeb6773a984a67901039ad5c6cb15f20251105141019" d="m 69.652,53.648 c -1.007,0 -1.515,-0.714 -1.882,-1.242 -0.372,-0.535 -0.563,-0.75 -0.93,-0.75 -0.363,0 -0.547,0.223 -0.93,0.75 -0.371,0.528 -0.879,1.242 -1.883,1.242 -1.007,0 -1.515,-0.714 -1.882,-1.242 -0.372,-0.535 -0.563,-0.75 -0.93,-0.75 -0.363,0 -0.547,0.223 -0.93,0.75 -0.371,0.528 -0.879,1.242 -1.883,1.242 -1.011,0 -1.515,-0.714 -1.882,-1.242 -0.372,-0.535 -0.563,-0.75 -0.93,-0.75 -0.32,0 -0.586,-0.261 -0.586,-0.586 0,-0.32 0.266,-0.586 0.586,-0.586 1.012,0 1.515,0.719 1.883,1.246 0.375,0.536 0.562,0.747 0.929,0.747 0.368,0 0.551,-0.219 0.93,-0.747 0.375,-0.527 0.879,-1.246 1.883,-1.246 1.004,0 1.515,0.719 1.883,1.246 0.375,0.536 0.566,0.747 0.929,0.747 0.368,0 0.551,-0.219 0.93,-0.747 0.375,-0.527 0.879,-1.246 1.883,-1.246 1.004,0 1.515,0.719 1.883,1.246 0.375,0.536 0.566,0.747 0.929,0.747 0.325,0 0.586,0.265 0.586,0.585 0,0.325 -0.261,0.586 -0.586,0.586 z m 0,-3.66 c -1.007,0 -1.515,-0.718 -1.882,-1.246 -0.372,-0.535 -0.563,-0.746 -0.93,-0.746 -0.363,0 -0.547,0.219 -0.93,0.746 -0.371,0.528 -0.879,1.246 -1.883,1.246 -1.007,0 -1.515,-0.718 -1.882,-1.246 -0.372,-0.535 -0.563,-0.746 -0.93,-0.746 -0.363,0 -0.547,0.219 -0.93,0.746 -0.371,0.528 -0.879,1.246 -1.883,1.246 -1.011,0 -1.515,-0.718 -1.882,-1.246 -0.372,-0.535 -0.563,-0.746 -0.93,-0.746 -0.32,0 -0.586,-0.266 -0.586,-0.586 0,-0.324 0.266,-0.586 0.586,-0.586 1.012,0 1.515,0.719 1.883,1.246 0.375,0.535 0.562,0.746 0.929,0.746 0.368,0 0.551,-0.218 0.93,-0.746 0.375,-0.527 0.879,-1.246 1.883,-1.246 1.004,0 1.515,0.719 1.883,1.246 0.375,0.535 0.566,0.746 0.929,0.746 0.368,0 0.551,-0.218 0.93,-0.746 0.375,-0.527 0.879,-1.246 1.883,-1.246 1.004,0 1.515,0.719 1.883,1.246 0.375,0.535 0.566,0.746 0.929,0.746 0.325,0 0.586,0.262 0.586,0.586 0,0.321 -0.261,0.586 -0.586,0.586 z M 19.191,20.758 c -1.011,0 -1.519,-0.719 -1.882,-1.246 -0.375,-0.535 -0.567,-0.746 -0.93,-0.746 -0.367,0 -0.551,0.218 -0.934,0.746 -0.371,0.527 -0.879,1.246 -1.879,1.246 -1.011,0 -1.519,-0.719 -1.882,-1.246 -0.375,-0.535 -0.567,-0.746 -0.93,-0.746 -0.367,0 -0.551,0.218 -0.934,0.746 -0.371,0.527 -0.879,1.246 -1.879,1.246 -1.011,0 -1.519,-0.719 -1.882,-1.246 -0.375,-0.535 -0.567,-0.746 -0.93,-0.746 -0.324,0 -0.586,-0.266 -0.586,-0.586 0,-0.325 0.262,-0.586 0.586,-0.586 1.008,0 1.516,0.718 1.879,1.246 0.375,0.531 0.566,0.746 0.933,0.746 0.364,0 0.547,-0.219 0.93,-0.746 0.371,-0.528 0.879,-1.246 1.883,-1.246 1,0 1.516,0.718 1.879,1.246 0.375,0.531 0.566,0.746 0.933,0.746 0.364,0 0.547,-0.219 0.93,-0.746 0.371,-0.528 0.879,-1.246 1.883,-1.246 1,0 1.516,0.718 1.879,1.246 0.375,0.531 0.566,0.746 0.933,0.746 0.321,0 0.586,0.262 0.586,0.586 0,0.32 -0.265,0.586 -0.586,0.586 z m 0,-3.664 c -1.011,0 -1.519,-0.715 -1.882,-1.242 -0.375,-0.536 -0.567,-0.75 -0.93,-0.75 -0.367,0 -0.551,0.222 -0.934,0.75 -0.371,0.527 -0.879,1.242 -1.879,1.242 -1.011,0 -1.519,-0.715 -1.882,-1.242 -0.375,-0.536 -0.567,-0.75 -0.93,-0.75 -0.367,0 -0.551,0.222 -0.934,0.75 -0.371,0.527 -0.879,1.242 -1.879,1.242 -1.011,0 -1.519,-0.715 -1.882,-1.242 -0.375,-0.536 -0.567,-0.75 -0.93,-0.75 -0.324,0 -0.586,-0.262 -0.586,-0.586 0,-0.321 0.262,-0.586 0.586,-0.586 1.008,0 1.516,0.718 1.879,1.246 0.375,0.535 0.566,0.746 0.933,0.746 0.364,0 0.547,-0.219 0.93,-0.746 0.371,-0.528 0.879,-1.246 1.883,-1.246 1,0 1.516,0.718 1.879,1.246 0.375,0.535 0.566,0.746 0.933,0.746 0.364,0 0.547,-0.219 0.93,-0.746 0.371,-0.528 0.879,-1.246 1.883,-1.246 1,0 1.516,0.718 1.879,1.246 0.375,0.535 0.566,0.746 0.933,0.746 0.321,0 0.586,0.266 0.586,0.586 0,0.324 -0.265,0.586 -0.586,0.586 z" style="fill:#9a2d2f;fill-opacity:1;fill-rule:nonzero;stroke:none" transform="scale(1.3333333)" /> <path id="I73bb4f0ac5f149b0b34626208eee654420251105141019" d="m 23.438,7.492 c 0,3.125 4.687,3.125 4.687,0 0,-3.125 -4.687,-3.125 -4.687,0 z" style="fill:#ffeb4d;fill-opacity:1;fill-rule:nonzero;stroke:none" transform="scale(1.3333333)" /> <path id="I591b59c32cc144ef85141541e059288620251105141019" d="m 25.781,10.422 c -1.617,0 -2.929,-1.309 -2.929,-2.93 0,-1.617 1.312,-2.93 2.929,-2.93 1.617,0 2.93,1.313 2.93,2.93 0,1.621 -1.313,2.93 -2.93,2.93 z m 0,-4.688 c -0.965,0 -1.758,0.793 -1.758,1.758 0,0.969 0.793,1.758 1.758,1.758 0.969,0 1.758,-0.789 1.758,-1.758 0,-0.965 -0.789,-1.758 -1.758,-1.758 z" style="fill:#9a2d2f;fill-opacity:1;fill-rule:nonzero;stroke:none" transform="scale(1.3333333)" /> <path id="I7e47d7a7465d45179e6ed2651cb5348120251105141019" d="m 43.359,20.309 c 0,4.289 3.477,7.765 7.766,7.765 4.285,0 7.762,-3.476 7.762,-7.765 0,-4.286 -3.477,-7.762 -7.762,-7.762 -4.289,0 -7.766,3.476 -7.766,7.762 z" style="fill:#c0fcd0;fill-opacity:1;fill-rule:nonzero;stroke:none" transform="scale(1.3333333)" /> <path id="I69126521dce44916b400c4a08f90885220251105141019" d="m 50.316,28.074 c 0,4.289 3.477,7.762 7.766,7.762 4.285,0 7.762,-3.473 7.762,-7.762 0,-4.289 -3.477,-7.765 -7.762,-7.765 -4.289,0 -7.766,3.476 -7.766,7.765 z" style="fill:#ffacc2;fill-opacity:1;fill-rule:nonzero;stroke:none" transform="scale(1.3333333)" /> <path id="Ic25c4ba948ff4c6b91bc9bb59fe7103420251105141019" d="m 58.102,20.875 c -2.856,0 -5.325,1.676 -6.481,4.094 0.293,0.101 1.02,-0.836 2.66,-0.696 1.114,0.086 1.34,-1.296 2.196,-1.625 0.644,-0.25 1.414,0.329 2.41,0.129 0.812,-0.16 1.801,-1.406 0.726,-1.726 -0.484,-0.117 -0.988,-0.176 -1.511,-0.176 z" style="fill:#ffffff;fill-opacity:1;fill-rule:nonzero;stroke:none" transform="scale(1.3333333)" /> <path id="I1de541596bab48c99f110ccb3af7178320251105141019" d="m 36.988,28.074 c 0,4.289 3.477,7.762 7.762,7.762 4.289,0 7.766,-3.473 7.766,-7.762 0,-4.289 -3.477,-7.765 -7.766,-7.765 -4.285,0 -7.762,3.476 -7.762,7.765 z" style="fill:#ffeb4d;fill-opacity:1;fill-rule:nonzero;stroke:none" transform="scale(1.3333333)" /> <path id="I630e67436aa747aa90f3e310f0607c1b20251105141019" d="m 44.27,18.207 c 0,0.5 1.222,-1.625 1.515,-1.441 0.293,0.183 0.153,1.699 0.82,1.757 0.731,0.067 1.297,-0.578 1.649,-1.281 0.422,-0.844 0.437,-1.965 1.426,-2.125 0.871,-0.144 1.164,0.719 1.941,0.953 0.914,0.278 2.016,-0.101 2.484,-0.601 0.211,-0.227 0.762,-0.746 0.11,-1.598 -0.938,-0.445 -1.985,-0.695 -3.09,-0.695 -3.219,-0.016 -5.941,2.109 -6.855,5.031 z m 0.503,2.668 c -2.711,0 -5.074,1.508 -6.3,3.734 -0.364,0.618 -0.063,1.09 0.39,0.911 1.246,-0.493 1.485,-1.813 3.024,-2.032 0.801,-0.117 4.101,1.957 5.64,-0.019 0.946,-1.219 2.981,0.121 2.067,-0.727 -1.27,-1.156 -2.961,-1.867 -4.821,-1.867 z" style="fill:#ffffff;fill-opacity:1;fill-rule:nonzero;stroke:none" transform="scale(1.3333333)" /> <path id="I4d909e586f784b02a81757ef0d8d342b20251105141019" d="m 35.961,28.266 c 0,8.371 6.789,15.152 15.164,15.152 8.371,0 15.16,-6.781 15.16,-15.152 V 28.258 H 35.961 Z" style="fill:#dae5ff;fill-opacity:1;fill-rule:nonzero;stroke:none" transform="scale(1.3333333)" /> <path id="I591320ee5717450bb81b5e7be5fae8c220251105141019" d="m 64.008,35.07 c -1.086,1.903 -1.781,1.485 -2.637,2.254 -2.133,1.926 -4.25,1.114 -6.512,1.625 -2.148,0.492 -2.836,3.856 -6.32,3.145 -2.043,-0.418 -3.758,-0.778 -3.73,-0.703 1.914,0.921 4.058,1.441 6.316,1.441 5.57,-0.008 10.43,-3.156 12.883,-7.762 z" style="fill:#ffffff;fill-opacity:1;fill-rule:nonzero;stroke:none" transform="scale(1.3333333)" /> <path id="Ia05bd1a44b8641b58aef1e114031369420251105141019" d="M 10.18,48.434 H 44.75 V 69.528 H 10.18 Z" style="fill:#ffe0b6;fill-opacity:1;fill-rule:nonzero;stroke:none" transform="scale(1.3333333)" /> <path id="Iced26ce7ec2a47ababb333d7c114dbbc20251105141019" d="M 44.75,48.434 H 10.18 l 24.582,-5.125 z" style="fill:#ffacc2;fill-opacity:1;fill-rule:nonzero;stroke:none" transform="scale(1.3333333)" /> <path id="I19e2a8d717f54a90b5f29a21de437f4c20251105141019" d="m 10.18,55.465 h 34.57 v 7.031 H 10.18 Z" style="fill:#ffd7f5;fill-opacity:1;fill-rule:nonzero;stroke:none" transform="scale(1.3333333)" /> <path id="I97b5e542d56f46688fa3c05bf38bba7320251105141019" d="m 28.293,40.004 c 0,0 1.598,-0.715 2.863,0.293 0.961,0.769 1.446,2.242 1.086,4.16 -0.39,2.102 -2.687,2.25 -3.422,1.957 -0.73,-0.293 -0.066,-0.5 -1.191,-0.051 -1.121,0.446 -4.043,-0.918 -3.563,-3.625 0.594,-3.273 3.641,-3.32 4.227,-2.734 z" style="fill:#ffacc2;fill-opacity:1;fill-rule:nonzero;stroke:none" transform="scale(1.3333333)" /> <path id="Ia8fd8603970a4f809a797cc36958419020251105141019" d="M 66.797,68.98 H 51.711 V 43.996 c 3.984,-0.144 7.711,-1.766 10.547,-4.598 2.972,-2.976 4.613,-6.921 4.613,-11.125 v -0.007 c 0,-0.282 -0.191,-0.508 -0.449,-0.575 -0.18,-3.961 -3.133,-7.211 -6.965,-7.851 -0.242,-4.387 -3.887,-7.879 -8.332,-7.879 -4.492,0 -8.16,3.559 -8.344,7.996 -3.531,0.859 -6.187,3.965 -6.371,7.715 h -0.449 c -0.32,0 -0.578,0.254 -0.586,0.578 v 0.016 c 0,4.203 1.641,8.156 4.617,11.125 2.832,2.832 6.563,4.453 10.547,4.597 V 68.98 H 45.336 V 48.434 c 0,-0.036 -0.008,-0.071 -0.012,-0.11 v -0.012 c 0,-0.015 -0.008,-0.023 -0.008,-0.039 0,-0.007 -0.007,-0.015 -0.007,-0.019 0,-0.008 -0.008,-0.024 -0.016,-0.031 0,-0.008 -0.008,-0.016 -0.008,-0.024 -0.008,-0.011 -0.008,-0.019 -0.015,-0.027 0,-0.008 -0.004,-0.008 -0.004,-0.016 -0.016,-0.027 -0.039,-0.058 -0.059,-0.086 0,0 0,-0.008 -0.008,-0.008 -0.008,-0.015 -0.023,-0.023 -0.031,-0.039 L 45.16,48.02 45.133,47.988 c -0.008,0 -0.008,-0.008 -0.016,-0.008 -0.008,-0.007 -0.023,-0.015 -0.031,-0.019 -0.004,0 -0.004,-0.008 -0.012,-0.008 -0.008,-0.008 -0.023,-0.015 -0.031,-0.015 -0.008,0 -0.012,-0.008 -0.02,-0.008 h -0.007 l -10,-5.125 C 34.898,42.746 34.762,42.723 34.629,42.75 l -1.676,0.352 c -0.039,-1.368 -0.527,-2.504 -1.43,-3.215 -0.914,-0.731 -1.957,-0.731 -2.652,-0.606 0.102,-2.469 0.453,-7.566 1.172,-9.004 1.078,-2.16 2.734,-1.597 2.918,-1.523 0.297,0.117 0.637,-0.02 0.758,-0.32 0.125,-0.301 -0.02,-0.645 -0.321,-0.762 -0.074,-0.031 -0.746,-0.293 -1.617,-0.16 -0.816,0.117 -1.965,0.605 -2.777,2.246 -0.902,1.808 -1.207,7.48 -1.289,9.457 -0.461,-0.067 -0.996,-0.024 -1.516,0.137 -0.828,0.265 -2.285,1.043 -2.695,3.336 -0.149,0.824 -0.024,1.624 0.336,2.32 l -13.77,2.871 c -0.035,0.008 -0.074,0.023 -0.109,0.027 -0.008,0.008 -0.023,0.008 -0.031,0.016 -0.004,0 -0.012,0.008 -0.02,0.008 -0.008,0.008 -0.015,0.008 -0.023,0.015 -0.008,0.008 -0.016,0.008 -0.02,0.016 C 9.859,47.965 9.852,47.965 9.844,47.973 9.836,47.98 9.828,47.988 9.82,47.988 9.812,47.996 9.809,48.004 9.801,48.004 L 9.777,48.023 9.754,48.047 C 9.75,48.055 9.742,48.062 9.742,48.07 l -0.023,0.02 c -0.008,0.008 -0.008,0.015 -0.016,0.023 -0.008,0.008 -0.012,0.016 -0.012,0.028 -0.007,0.007 -0.007,0.015 -0.015,0.023 -0.008,0.008 -0.008,0.024 -0.016,0.031 0,0.004 -0.008,0.012 -0.008,0.02 -0.007,0.008 -0.007,0.023 -0.015,0.031 0,0.008 -0.004,0.012 -0.004,0.02 0,0.007 -0.008,0.023 -0.008,0.031 0,0.008 -0.008,0.015 -0.008,0.019 0,0.008 -0.008,0.024 -0.008,0.032 0,0.007 0,0.015 -0.007,0.027 0,0.008 0,0.023 -0.008,0.031 L 9.594,69 H 7.18 c -0.325,0 -0.586,0.266 -0.586,0.586 0,0.324 0.261,0.586 0.586,0.586 h 59.617 c 0.324,0 0.586,-0.262 0.586,-0.586 0,-0.32 -0.262,-0.606 -0.586,-0.606 z M 24.652,42.875 c 0.274,-1.523 1.114,-2.137 1.766,-2.379 0.727,-0.269 1.34,-0.141 1.465,-0.043 0.176,0.168 0.433,0.219 0.652,0.117 0.016,-0.008 1.281,-0.566 2.262,0.219 0.644,0.512 0.992,1.43 0.984,2.543 0,0.336 -0.039,0.688 -0.105,1.055 -0.004,0.058 -0.02,0.117 -0.035,0.168 -0.133,0.504 -0.426,0.879 -0.864,1.125 -0.668,0.367 -1.465,0.324 -1.722,0.222 -0.133,-0.05 -0.16,-0.082 -0.176,-0.105 -0.16,-0.18 -0.328,-0.246 -0.504,-0.246 -0.207,0 -0.418,0.086 -0.66,0.183 -0.082,0.028 -0.176,0.071 -0.285,0.118 -0.211,0.086 -0.676,0.043 -1.172,-0.176 -0.235,-0.106 -0.477,-0.242 -0.703,-0.434 -0.168,-0.14 -0.344,-0.308 -0.493,-0.519 -0.328,-0.426 -0.554,-1.039 -0.41,-1.848 z m -0.011,3.145 c 0.05,0.05 0.109,0.093 0.16,0.136 0.953,0.778 2.234,1.106 3.054,0.785 0.118,-0.043 0.211,-0.089 0.293,-0.117 0.028,-0.015 0.059,-0.023 0.079,-0.035 0.097,0.063 0.222,0.129 0.382,0.195 0.25,0.102 0.586,0.157 0.957,0.157 0.559,0 1.204,-0.133 1.766,-0.442 0.809,-0.437 1.32,-1.172 1.496,-2.109 0.02,-0.102 0.035,-0.203 0.051,-0.301 l 1.793,-0.371 7.656,3.926 H 15.855 Z m -13.875,3 h 33.398 v 5.859 H 10.766 Z m 0,7.031 H 44.164 V 61.91 H 10.766 Z m 0,7.031 h 33.398 v 5.859 H 10.766 Z m 54.48,-35.41 H 50.918 c 0,-0.059 0.008,-0.125 0.016,-0.184 0.058,-0.726 0.226,-1.422 0.488,-2.074 0.183,-0.461 0.41,-0.891 0.683,-1.297 1.29,-1.933 3.485,-3.215 5.985,-3.215 h 0.195 c 0.399,0.008 0.785,0.051 1.164,0.125 3.172,0.618 5.613,3.332 5.797,6.645 z M 51.125,13.133 c 3.762,0 6.855,2.906 7.152,6.59 h -0.195 c -2.719,0 -5.141,1.304 -6.664,3.328 -1.523,-2.024 -3.949,-3.328 -6.668,-3.328 -0.262,0 -0.527,0.015 -0.781,0.039 0.277,-3.7 3.383,-6.629 7.156,-6.629 z m -8.309,8.027 c 0.375,-0.101 0.762,-0.183 1.161,-0.219 0.253,-0.031 0.511,-0.046 0.773,-0.046 2.5,0 4.695,1.285 5.984,3.218 -0.535,0.981 -0.871,2.078 -0.972,3.242 -0.008,0.102 -0.016,0.207 -0.024,0.317 H 37.582 c 0.176,-3.106 2.344,-5.699 5.234,-6.512 z m 7.969,21.672 c -7.687,-0.176 -13.93,-6.328 -14.23,-13.98 h 29.129 c -0.301,7.652 -6.539,13.812 -14.231,13.98 -0.09,-0.066 -0.57,-0.066 -0.668,0 z" style="fill:#9a2d2f;fill-opacity:1;fill-rule:nonzero;stroke:none" transform="scale(1.3333333)" /> <path id="Id264eb2e07164983a39879c3a5bddef720251105141019" d="m 26.273,41.457 c 0,0 0.313,-0.582 0.711,-0.492 0.387,0.086 0.313,0.351 0.227,0.668 -0.082,0.293 -0.391,0.922 -0.75,0.797 -0.305,-0.11 -0.379,-0.571 -0.188,-0.973 z" style="fill:#ffffff;fill-opacity:1;fill-rule:nonzero;stroke:none" transform="scale(1.3333333)" /> </g>
</svg>

