<?xml version="1.0" encoding="UTF-8" standalone="no"?> <svg version="1.1" id="I9f4c9f3a60ac436ca50f77ca67766dce20251110123029" width="100" height="100" viewBox="0 0 100 100" xmlns="http://www.w3.org/2000/svg" xmlns:svg="http://www.w3.org/2000/svg"> <defs id="Ife47f7df436c4f0097ebe9714c2673ab20251110123029" /> <g id="I8392e9d1e3424db2889ac27d434e579d20251110123029"> <path id="I9ad2c70e2325466eac8df23f6edf9b3a20251110123029" d="m 44.352,46.098 c 0.867,0.961 2.347,1.039 3.308,0.175 l 7.813,-7.031 c 0.496,-0.445 0.777,-1.078 0.777,-1.742 0,-0.664 -0.281,-1.297 -0.777,-1.742 L 47.66,28.73 c -0.961,-0.867 -2.441,-0.789 -3.308,0.172 -0.868,0.961 -0.79,2.446 0.175,3.309 l 3.27,2.945 H 36.719 c -1.293,0 -2.344,1.051 -2.344,2.344 0,1.293 1.051,2.344 2.344,2.344 h 11.078 l -3.27,2.945 c -0.965,0.863 -1.043,2.348 -0.175,3.309 z M 6.25,21.094 c 0,-4.746 3.848,-8.594 8.594,-8.594 h 45.312 c 4.746,0 8.594,3.848 8.594,8.594 v 32.812 c 0,4.746 -3.848,8.594 -8.594,8.594 H 14.844 C 10.098,62.5 6.25,58.652 6.25,53.906 Z m 21.875,-3.906 v 40.624 h 32.031 c 2.156,0 3.906,-1.75 3.906,-3.906 V 21.094 c 0,-2.156 -1.75,-3.906 -3.906,-3.906 z" style="fill:currentColor;fill-opacity:1;fill-rule:nonzero;stroke:none" transform="scale(1.3333333)" /> </g>
</svg>

