<?xml version="1.0" encoding="UTF-8" standalone="no"?> <svg version="1.1" id="I62f08226b6d24317800500c8aa68a77720251106161452" width="100" height="100" viewBox="0 0 100 100" xmlns="http://www.w3.org/2000/svg" xmlns:svg="http://www.w3.org/2000/svg"> <defs id="Ie16d55d15f424a70b318fd96dcc3272b20251106161452" /> <g id="I19e643cd1a07477e8af9a941ac4c818120251106161452"> <path id="Ibc46f1c0340d4f64b00f280e9001d29720251106161452" d="m 15,15 c 0,-4.141 3.359,-7.5 7.5,-7.5 h 17.195 c 1.493,0 2.922,0.594 3.981,1.648 L 58.352,23.824 C 59.406,24.879 60,26.312 60,27.805 v 13.633 c -0.605,-0.122 -1.234,-0.188 -1.875,-0.188 -0.641,0 -1.27,0.066 -1.875,0.188 V 30 H 43.125 C 40.02,30 37.5,27.48 37.5,24.375 V 11.25 h -15 c -2.07,0 -3.75,1.68 -3.75,3.75 V 50.25 H 18.742 C 18.629,47.336 17.184,44.766 15,43.125 Z M 43.125,26.25 H 55.473 L 41.25,12.027 v 12.348 c 0,1.035 0.84,1.875 1.875,1.875 z M 9.375,48.75 C 8.34,48.75 7.5,49.59 7.5,50.625 v 0.887 c 0,1.043 0.59,2 1.527,2.468 l 2.375,1.188 C 13.605,56.27 15,58.523 15,60.988 v 0.887 C 15,64.98 12.48,67.5 9.375,67.5 6.27,67.5 3.75,64.98 3.75,61.875 3.75,60.84 4.59,60 5.625,60 6.66,60 7.5,60.84 7.5,61.875 c 0,1.035 0.84,1.875 1.875,1.875 1.035,0 1.875,-0.84 1.875,-1.875 v -0.887 c 0,-1.043 -0.59,-2 -1.527,-2.468 L 7.348,57.332 C 5.145,56.23 3.75,53.977 3.75,51.512 V 50.625 C 3.75,47.52 6.27,45 9.375,45 12.48,45 15,47.52 15,50.625 15,51.66 14.16,52.5 13.125,52.5 12.09,52.5 11.25,51.66 11.25,50.625 11.25,49.59 10.41,48.75 9.375,48.75 Z M 28.02,46.254 C 27.758,45.504 27.047,45 26.25,45 c -0.797,0 -1.508,0.504 -1.77,1.254 l -6.562,18.75 c -0.344,0.98 0.172,2.047 1.148,2.391 0.981,0.343 2.047,-0.172 2.391,-1.149 l 0.875,-2.496 h 7.836 l 0.875,2.496 c 0.344,0.977 1.41,1.492 2.391,1.149 0.976,-0.344 1.492,-1.411 1.148,-2.391 z M 28.855,60 h -5.21 L 26.25,52.551 Z M 41.25,50.625 c 0,-1.035 0.84,-1.875 1.875,-1.875 1.035,0 1.875,0.84 1.875,1.875 0,1.035 0.84,1.875 1.875,1.875 1.035,0 1.875,-0.84 1.875,-1.875 C 48.75,47.52 46.23,45 43.125,45 40.02,45 37.5,47.52 37.5,50.625 v 0.887 c 0,2.465 1.395,4.718 3.598,5.82 l 2.375,1.188 C 44.41,58.988 45,59.945 45,60.988 v 0.887 C 45,62.91 44.16,63.75 43.125,63.75 42.09,63.75 41.25,62.91 41.25,61.875 41.25,60.84 40.41,60 39.375,60 38.34,60 37.5,60.84 37.5,61.875 c 0,3.105 2.52,5.625 5.625,5.625 3.105,0 5.625,-2.52 5.625,-5.625 v -0.887 c 0,-2.465 -1.395,-4.718 -3.598,-5.82 L 42.777,53.98 C 41.84,53.512 41.25,52.555 41.25,51.512 Z M 58.125,48.75 c -1.035,0 -1.875,0.84 -1.875,1.875 v 0.887 c 0,1.043 0.59,2 1.527,2.468 l 2.375,1.188 c 2.203,1.102 3.598,3.355 3.598,5.82 v 0.887 C 63.75,64.98 61.23,67.5 58.125,67.5 55.02,67.5 52.5,64.98 52.5,61.875 52.5,60.84 53.34,60 54.375,60 c 1.035,0 1.875,0.84 1.875,1.875 0,1.035 0.84,1.875 1.875,1.875 1.035,0 1.875,-0.84 1.875,-1.875 v -0.887 c 0,-1.043 -0.59,-2 -1.527,-2.468 L 56.098,57.332 C 53.895,56.23 52.5,53.977 52.5,51.512 V 50.625 C 52.5,47.52 55.02,45 58.125,45 c 3.105,0 5.625,2.52 5.625,5.625 0,1.035 -0.84,1.875 -1.875,1.875 C 60.84,52.5 60,51.66 60,50.625 60,49.59 59.16,48.75 58.125,48.75 Z" style="fill:currentColor;fill-opacity:1;fill-rule:nonzero;stroke:none" transform="scale(1.3333333)" /> </g>
</svg>

