<?xml version="1.0" encoding="UTF-8" standalone="no"?> <svg version="1.1" id="I6af883dcd9bc4fdcb05419ebf420a90220251106105802" width="100" height="100" viewBox="0 0 100 100" xmlns="http://www.w3.org/2000/svg" xmlns:svg="http://www.w3.org/2000/svg"> <defs id="I85b847d091c24294a814953821e9afac20251106105802" /> <g id="I1b524deef2aa46388cde7a5393d791f220251106105802"> <path id="I7d7796106d9a472790ef5702d6d8fd6c20251106105802" d="m 22.098,40.18 h 30.804 c 0.368,0 0.668,-0.301 0.668,-0.672 v -4.016 c 0,-0.371 -0.3,-0.672 -0.668,-0.672 H 22.098 c -0.368,0 -0.668,0.301 -0.668,0.672 v 4.016 c 0,0.371 0.3,0.672 0.668,0.672 z" style="fill:currentColor;fill-opacity:1;fill-rule:nonzero;stroke:none" transform="scale(1.3333333)" /> <path id="I1ecc5f472fb2441887cf1f51c63634b320251106105802" d="M 68.305,4.02 H 6.695 C 5.215,4.02 4.02,5.215 4.02,6.695 v 61.61 c 0,1.48 1.195,2.675 2.675,2.675 h 61.61 c 1.48,0 2.675,-1.195 2.675,-2.675 V 6.695 C 70.98,5.215 69.785,4.02 68.305,4.02 Z M 64.957,64.957 H 10.043 V 10.043 h 54.914 z" style="fill:currentColor;fill-opacity:1;fill-rule:nonzero;stroke:none" transform="scale(1.3333333)" /> </g>
</svg>

