<?xml version="1.0" encoding="UTF-8" standalone="no"?> <svg version="1.1" id="I7cff9b417c3c4c74a5775f54477492bb20251110130510" width="100" height="100" viewBox="0 0 100 100" xmlns="http://www.w3.org/2000/svg" xmlns:svg="http://www.w3.org/2000/svg"> <defs id="I21d6e2965a004819a64fc86d148ff22620251110130510" /> <g id="I83aa3910511542e1be7e27ef1127fc5f20251110130510"> <path id="I02f8fc7137ce4ac0b51a39f1f9c5924720251110130510" d="m 7.367,8.035 c -1.109,0 -2.012,0.899 -2.012,2.008 0,1.109 0.903,2.012 2.012,2.012 h 28.125 c 1.11,0 2.008,-0.903 2.008,-2.012 0,-1.109 -0.898,-2.008 -2.008,-2.008 z m 0,12.055 c -1.109,0 -2.012,0.898 -2.012,2.008 0,1.109 0.903,2.007 2.012,2.007 h 22.766 c 1.109,0 2.012,-0.898 2.012,-2.007 0,-1.11 -0.903,-2.008 -2.012,-2.008 z m 42.856,-6.695 c -4.067,0 -7.368,3.296 -7.368,7.363 v 41.519 c 0,4.067 3.301,7.368 7.368,7.368 h 9.375 c 4.07,0 7.367,-3.301 7.367,-7.368 V 20.758 c 0,-4.067 -3.297,-7.363 -7.367,-7.363 z m -3.348,7.363 c 0,-1.848 1.5,-3.348 3.348,-3.348 h 9.375 c 1.851,0 3.347,1.5 3.347,3.348 v 10.047 h -16.07 z m 0,14.062 h 16.07 v 13.395 h -16.07 z m 16.07,17.41 v 10.047 c 0,1.848 -1.496,3.348 -3.347,3.348 h -9.375 c -1.848,0 -3.348,-1.5 -3.348,-3.348 V 52.23 Z M 10.043,32.145 c 1.109,0 2.012,0.898 2.012,2.007 v 8.036 c 0,3.328 2.695,6.027 6.027,6.027 h 9.879 L 22.016,42.27 c -0.782,-0.786 -0.782,-2.059 0,-2.84 0.785,-0.785 2.058,-0.785 2.843,0 l 9.375,9.375 c 0.782,0.781 0.782,2.054 0,2.84 l -9.375,9.375 c -0.785,0.785 -2.058,0.785 -2.843,0 -0.782,-0.786 -0.782,-2.059 0,-2.84 l 5.945,-5.95 H 18.082 C 12.531,52.23 8.035,47.734 8.035,42.188 v -8.036 c 0,-1.109 0.899,-2.007 2.008,-2.007 z" style="fill:currentColor;fill-opacity:1;fill-rule:nonzero;stroke:none" transform="scale(1.3333333)" /> </g>
</svg>

