<?xml version="1.0" encoding="UTF-8" standalone="no"?> <svg version="1.1" id="I98b883ea6bb0451ba5a8ed687f50a06920251106155156" width="100" height="100" viewBox="0 0 100 100" xmlns="http://www.w3.org/2000/svg" xmlns:svg="http://www.w3.org/2000/svg"> <defs id="I6f7b559325864f05b3611c379c0c0c3620251106155156" /> <g id="I04f99ae0c3394b5ab6c4167e12a43df620251106155156"> <path id="I880ddd5e263c4a0eb2e03a9949ee089520251106155156" d="m 55.457,6.25 c 3.719,0 6.766,2.891 7.012,6.547 l 0.015,0.484 v 22.653 c -1.48,-0.618 -3.05,-1.063 -4.683,-1.317 V 13.281 c 0,-1.187 -0.883,-2.168 -2.028,-2.324 L 55.457,10.938 H 19.531 c -1.187,0 -2.168,0.878 -2.324,2.023 l -0.019,0.32 v 48.422 c 0,1.184 0.878,2.164 2.023,2.32 l 0.32,0.024 h 17.133 c 0.895,1.719 2.027,3.297 3.356,4.683 H 19.531 c -3.722,0 -6.769,-2.89 -7.015,-6.546 L 12.5,61.703 V 13.281 c 0,-3.722 2.891,-6.769 6.547,-7.015 L 19.531,6.25 Z m -28.883,9.387 c -2.586,0 -4.687,2.097 -4.687,4.687 0,2.586 2.101,4.684 4.687,4.684 h 21.871 c 2.586,0 4.684,-2.098 4.684,-4.684 0,-2.59 -2.098,-4.687 -4.684,-4.687 z m 45.301,39.051 c 0,9.492 -7.695,17.187 -17.187,17.187 C 45.195,71.875 37.5,64.18 37.5,54.688 37.5,45.195 45.195,37.5 54.688,37.5 c 9.492,0 17.187,7.695 17.187,17.188 z M 49.543,47.332 c -0.609,-0.609 -1.602,-0.609 -2.211,0 -0.609,0.609 -0.609,1.602 0,2.211 l 5.145,5.145 -5.145,5.144 c -0.609,0.609 -0.609,1.602 0,2.211 0.609,0.609 1.602,0.609 2.211,0 l 5.145,-5.145 5.144,5.145 c 0.609,0.609 1.602,0.609 2.211,0 0.609,-0.609 0.609,-1.602 0,-2.211 l -5.145,-5.144 5.145,-5.145 c 0.609,-0.609 0.609,-1.602 0,-2.211 -0.609,-0.609 -1.602,-0.609 -2.211,0 l -5.144,5.145 z" style="fill:currentColor;fill-opacity:1;fill-rule:nonzero;stroke:none" transform="scale(1.3333333)" /> </g>
</svg>

