<?xml version="1.0" encoding="UTF-8" standalone="no"?> <svg version="1.1" id="I369a6ac5f4a8422ca725e1d72d7e222520251110123029" width="100" height="100" viewBox="0 0 100 100" xmlns="http://www.w3.org/2000/svg" xmlns:svg="http://www.w3.org/2000/svg"> <defs id="Ie536a68c7ae140ad9d1f3de8c2fb3b1920251110123029" /> <g id="Ife2b825d17cf4ca987fa62d7e7bea66820251110123029"> <path id="If325e97f8f924f4c9d9177ef5995dc9b20251110123029" d="m 39.375,41.902 3.277,-3.742 c 0.68,-0.781 1.868,-0.859 2.645,-0.18 0.781,0.684 0.859,1.868 0.176,2.649 l -6.563,7.5 c -0.355,0.406 -0.871,0.641 -1.41,0.641 -0.539,0 -1.055,-0.235 -1.41,-0.641 l -6.563,-7.5 c -0.683,-0.781 -0.605,-1.965 0.176,-2.649 0.777,-0.679 1.965,-0.601 2.645,0.18 l 3.277,3.742 V 28.105 c 0,-1.035 0.84,-1.875 1.875,-1.875 1.035,0 1.875,0.84 1.875,1.875 z M 15,60 C 10.859,60 7.5,56.641 7.5,52.5 v -30 C 7.5,18.359 10.859,15 15,15 h 45 c 4.141,0 7.5,3.359 7.5,7.5 v 30 c 0,4.141 -3.359,7.5 -7.5,7.5 z m -3.75,-7.5 c 0,2.07 1.68,3.75 3.75,3.75 h 45 c 2.07,0 3.75,-1.68 3.75,-3.75 V 33.75 H 43.125 V 30 H 63.75 v -7.5 c 0,-2.07 -1.68,-3.75 -3.75,-3.75 H 15 c -2.07,0 -3.75,1.68 -3.75,3.75 V 30 h 20.625 v 3.75 H 11.25 Z" style="fill:currentColor;fill-opacity:1;fill-rule:nonzero;stroke:none" transform="scale(1.3333333)" /> </g>
</svg>

