<?xml version="1.0" encoding="UTF-8" standalone="no"?> <svg version="1.1" id="I60de3e085d244ec4a8a32841cd0aebaf20251106142135" width="100" height="100" viewBox="0 0 100 100" xmlns="http://www.w3.org/2000/svg" xmlns:svg="http://www.w3.org/2000/svg"> <defs id="Iecdcca39cae941faa94546caa328b38a20251106142135" /> <g id="I2bca8b089b2e4088a0528837be64411420251106142135"> <path id="I7f98fe4ec4cd4ba481f441ae3941bf7720251106142135" d="m 21.094,9.375 c -5.61,0 -10.156,4.547 -10.156,10.156 V 30.25 c 0,2.32 -1.54,4.359 -3.77,4.996 -1.242,0.356 -1.965,1.652 -1.609,2.899 0.234,0.82 0.875,1.41 1.644,1.617 2.211,0.648 3.735,2.679 3.735,4.988 v 10.719 c 0,5.605 4.546,10.156 10.156,10.156 1.297,0 2.344,-1.051 2.344,-2.344 0,-1.297 -1.047,-2.343 -2.344,-2.343 -3.02,0 -5.469,-2.45 -5.469,-5.469 V 44.75 c 0,-2.82 -1.195,-5.422 -3.164,-7.25 1.969,-1.828 3.164,-4.43 3.164,-7.25 V 19.531 c 0,-3.019 2.449,-5.469 5.469,-5.469 1.297,0 2.344,-1.05 2.344,-2.343 0,-1.293 -1.047,-2.344 -2.344,-2.344 z m 6.527,11.828 c -0.801,-1.015 -2.277,-1.187 -3.293,-0.387 -1.016,0.801 -1.187,2.278 -0.387,3.293 L 34.516,37.5 23.941,50.891 c -0.8,1.015 -0.629,2.492 0.387,3.293 1.016,0.8 2.492,0.628 3.293,-0.387 L 37.5,41.281 47.379,53.797 c 0.805,1.015 2.277,1.187 3.293,0.387 1.016,-0.801 1.187,-2.278 0.387,-3.293 L 40.488,37.5 51.059,24.109 c 0.8,-1.015 0.629,-2.492 -0.387,-3.293 -1.016,-0.8 -2.488,-0.628 -3.293,0.387 L 37.5,33.719 Z M 53.906,9.375 c 5.61,0 10.156,4.547 10.156,10.156 V 30.25 c 0,2.32 1.54,4.359 3.77,4.996 1.246,0.356 1.965,1.652 1.609,2.899 -0.234,0.82 -0.875,1.41 -1.64,1.617 -2.215,0.648 -3.739,2.679 -3.739,4.988 v 10.719 c 0,5.605 -4.546,10.156 -10.156,10.156 -1.293,0 -2.344,-1.051 -2.344,-2.344 0,-1.297 1.051,-2.343 2.344,-2.343 3.02,0 5.469,-2.45 5.469,-5.469 V 44.75 c 0,-2.82 1.195,-5.422 3.168,-7.25 -1.973,-1.828 -3.168,-4.43 -3.168,-7.25 V 19.531 c 0,-3.019 -2.449,-5.469 -5.469,-5.469 -1.293,0 -2.344,-1.05 -2.344,-2.343 0,-1.293 1.051,-2.344 2.344,-2.344 z" style="fill:currentColor;fill-opacity:1;fill-rule:nonzero;stroke:none" transform="scale(1.3333333)" /> </g>
</svg>

