<?xml version="1.0" encoding="UTF-8" standalone="no"?> <svg version="1.1" id="I81b4e9ac7fd941bc884dda5b29b549c020251110135155" width="100" height="100" viewBox="0 0 100 100" xmlns="http://www.w3.org/2000/svg" xmlns:svg="http://www.w3.org/2000/svg"> <defs id="Ia33bc43847064db192357597f7ba4e4e20251110135155" /> <g id="Ib12ee4bb334c47ac92226e8231fe223220251110135155"> <path id="I6d6f3ec7b4874c9ea4cb2ce2a0a5850020251110135155" d="m 9.375,17.969 c 0,-1.293 1.051,-2.344 2.344,-2.344 h 20.312 c 1.293,0 2.344,1.051 2.344,2.344 0,1.293 -1.051,2.343 -2.344,2.343 H 11.719 c -1.293,0 -2.344,-1.05 -2.344,-2.343 z m 0,12.5 c 0,-1.293 1.051,-2.344 2.344,-2.344 h 20.312 c 1.293,0 2.344,1.051 2.344,2.344 0,1.293 -1.051,2.343 -2.344,2.343 H 11.719 c -1.293,0 -2.344,-1.05 -2.344,-2.343 z m 0,12.5 c 0,-1.293 1.051,-2.344 2.344,-2.344 h 20.312 c 1.293,0 2.344,1.051 2.344,2.344 0,1.293 -1.051,2.343 -2.344,2.343 H 11.719 c -1.293,0 -2.344,-1.05 -2.344,-2.343 z m 0,12.5 c 0,-1.293 1.051,-2.344 2.344,-2.344 h 20.312 c 1.293,0 2.344,1.051 2.344,2.344 0,1.293 -1.051,2.343 -2.344,2.343 H 11.719 c -1.293,0 -2.344,-1.05 -2.344,-2.343 z m 31.25,-37.5 c 0,-1.293 1.051,-2.344 2.344,-2.344 h 20.312 c 1.293,0 2.344,1.051 2.344,2.344 0,1.293 -1.051,2.343 -2.344,2.343 H 42.969 c -1.293,0 -2.344,-1.05 -2.344,-2.343 z m 0,12.5 c 0,-1.293 1.051,-2.344 2.344,-2.344 h 20.312 c 1.293,0 2.344,1.051 2.344,2.344 0,1.293 -1.051,2.343 -2.344,2.343 H 42.969 c -1.293,0 -2.344,-1.05 -2.344,-2.343 z m 0,12.5 c 0,-1.293 1.051,-2.344 2.344,-2.344 h 20.312 c 1.293,0 2.344,1.051 2.344,2.344 0,1.293 -1.051,2.343 -2.344,2.343 H 42.969 c -1.293,0 -2.344,-1.05 -2.344,-2.343 z m 0,12.5 c 0,-1.293 1.051,-2.344 2.344,-2.344 h 20.312 c 1.293,0 2.344,1.051 2.344,2.344 0,1.293 -1.051,2.343 -2.344,2.343 H 42.969 c -1.293,0 -2.344,-1.05 -2.344,-2.343 z" style="fill:currentColor;fill-opacity:1;fill-rule:nonzero;stroke:none" transform="scale(1.3333333)" /> </g>
</svg>

