<?xml version="1.0" encoding="UTF-8" standalone="no"?> <svg version="1.1" id="Ib708de3a793d4021915e079d77c910e820251106154012" width="100" height="100" viewBox="0 0 100 100" xmlns="http://www.w3.org/2000/svg" xmlns:svg="http://www.w3.org/2000/svg"> <defs id="I3dad0af6ed4948658c1f09f5453a494520251106154012" /> <g id="I291b4267c0ab429da92fdd4068b0025120251106154012"> <path id="Iecb95854443141c281a8be9a5cd5ea8920251106154012" d="m 37.5,32.812 c 7.633,0 14.766,-1.394 20.168,-3.851 1.93,-0.879 3.91,-2.027 5.613,-3.469 v 33.102 c 0,6.472 -11.543,11.718 -25.781,11.718 -14.238,0 -25.781,-5.246 -25.781,-11.718 V 25.492 c 1.703,1.442 3.683,2.59 5.613,3.469 5.402,2.457 12.535,3.851 20.168,3.851 z M 11.719,16.406 c 0,-6.472 11.543,-11.718 25.781,-11.718 14.238,0 25.781,5.246 25.781,11.718 0,6.473 -11.543,11.719 -25.781,11.719 -14.238,0 -25.781,-5.246 -25.781,-11.719 z" style="fill:currentColor;fill-opacity:1;fill-rule:nonzero;stroke:none" transform="scale(1.3333333)" /> </g>
</svg>

