<?xml version="1.0" encoding="UTF-8" standalone="no"?> <svg version="1.1" id="I157705b411a24847a127eb70f64640d220251110123030" width="100" height="100" viewBox="0 0 100 100" xmlns="http://www.w3.org/2000/svg" xmlns:svg="http://www.w3.org/2000/svg"> <defs id="I19ccdda2a3884be3bc2687706c4dbb7120251110123030" /> <g id="I31d18d80bcd542bcbcdd272a7b3649fb20251110123030"> <path id="I6a6f1438d7094e78a10adafba3781e5e20251110123030" d="m 34.367,54.684 c 0,-4.028 1.172,-7.782 3.192,-10.942 H 19.527 c -3.879,0 -7.027,3.149 -7.027,7.031 v 2.875 c 0,1.79 0.559,3.532 1.594,4.989 4.386,6.152 11.304,9.48 20.562,10.035 l 1.633,-5.356 c -1.234,-2.621 -1.922,-5.55 -1.922,-8.632 z M 37.492,6.25 c 8.633,0 15.629,6.996 15.629,15.629 0,8.633 -6.996,15.629 -15.629,15.629 -8.629,0 -15.625,-6.996 -15.625,-15.629 0,-8.633 6.996,-15.629 15.625,-15.629 z m 34.383,48.434 c 0,9.496 -7.695,17.191 -17.191,17.191 -3.024,0 -5.864,-0.781 -8.332,-2.152 l -6.836,2.082 c -1.196,0.363 -2.317,-0.754 -1.95,-1.953 l 2.079,-6.832 c -1.372,-2.469 -2.153,-5.313 -2.153,-8.336 0,-9.496 7.699,-17.192 17.192,-17.192 9.496,0 17.191,7.696 17.191,17.192 z M 48.434,49.996 c -0.864,0 -1.563,0.699 -1.563,1.563 0,0.863 0.699,1.562 1.563,1.562 h 12.5 c 0.863,0 1.566,-0.699 1.566,-1.562 0,-0.864 -0.703,-1.563 -1.566,-1.563 z m -1.563,7.813 c 0,0.863 0.699,1.562 1.563,1.562 h 6.25 c 0.863,0 1.562,-0.699 1.562,-1.562 0,-0.864 -0.699,-1.563 -1.562,-1.563 h -6.25 c -0.864,0 -1.563,0.699 -1.563,1.563 z" style="fill:currentColor;fill-opacity:1;fill-rule:nonzero;stroke:none" transform="scale(1.3333333)" /> </g>
</svg>

