<?xml version="1.0" encoding="UTF-8" standalone="no"?> <svg version="1.1" id="I168f8b437db5449990b393a722c9dada20251106151526" width="100" height="100" viewBox="0 0 100 100" xmlns="http://www.w3.org/2000/svg" xmlns:svg="http://www.w3.org/2000/svg"> <defs id="Idece01f817be480e99258f118aeb7bd020251106151526" /> <g id="I527db419ec9041aab49c619efb7ebef320251106151526"> <path id="I5fb7e345f9f744238c4a9202d104c1d920251106151526" d="m 37.5,8.035 c -9.461,0 -17.285,7.008 -18.566,16.117 -7.598,0.59 -13.579,6.938 -13.579,14.688 0,8.137 6.598,14.73 14.735,14.73 h 12.098 c -0.032,-0.441 -0.043,-0.886 -0.043,-1.34 0,-11.093 8.992,-20.085 20.085,-20.085 7.247,0 13.594,3.832 17.129,9.582 0.188,-0.934 0.286,-1.899 0.286,-2.887 0,-7.75 -5.981,-14.098 -13.579,-14.688 C 54.785,15.043 46.961,8.035 37.5,8.035 Z M 34.82,52.23 c 0,9.618 7.797,17.415 17.41,17.415 9.618,0 17.415,-7.797 17.415,-17.415 0,-9.613 -7.797,-17.41 -17.415,-17.41 -9.613,0 -17.41,7.797 -17.41,17.41 z M 49.148,41.301 c 1.7,-0.508 3.493,-0.59 5.231,-0.235 1.734,0.356 3.355,1.133 4.715,2.27 1.023,0.852 1.875,1.883 2.511,3.039 v -2.18 c 0,-0.738 0.602,-1.34 1.34,-1.34 0.743,0 1.34,0.602 1.34,1.34 v 5.36 c 0,0.738 -0.597,1.34 -1.34,1.34 H 57.59 c -0.738,0 -1.34,-0.602 -1.34,-1.34 0,-0.743 0.602,-1.34 1.34,-1.34 h 1.945 c -0.496,-1.09 -1.234,-2.055 -2.156,-2.824 -1.02,-0.852 -2.234,-1.434 -3.539,-1.7 -1.301,-0.269 -2.649,-0.207 -3.922,0.176 -1.27,0.383 -2.43,1.074 -3.367,2.012 -0.524,0.523 -1.371,0.523 -1.895,0 -0.523,-0.524 -0.523,-1.371 0,-1.891 1.254,-1.254 2.797,-2.176 4.492,-2.687 z m 6.168,21.863 c -1.699,0.508 -3.496,0.59 -5.23,0.234 -1.734,-0.355 -3.356,-1.132 -4.715,-2.269 -1.023,-0.852 -1.875,-1.883 -2.516,-3.039 v 2.18 c 0,0.738 -0.597,1.335 -1.335,1.335 -0.743,0 -1.34,-0.597 -1.34,-1.335 v -5.36 c 0,-0.738 0.597,-1.34 1.34,-1.34 h 5.355 c 0.738,0 1.34,0.602 1.34,1.34 0,0.738 -0.602,1.34 -1.34,1.34 h -1.949 c 0.5,1.09 1.238,2.055 2.16,2.824 1.019,0.852 2.234,1.434 3.535,1.699 1.305,0.266 2.652,0.207 3.922,-0.175 1.273,-0.383 2.434,-1.075 3.371,-2.016 0.524,-0.52 1.371,-0.52 1.895,0 0.523,0.523 0.523,1.371 0,1.895 -1.254,1.253 -2.797,2.175 -4.493,2.687 z" style="fill:currentColor;fill-opacity:1;fill-rule:nonzero;stroke:none" transform="scale(1.3333333)" /> </g>
</svg>

