<?xml version="1.0" encoding="UTF-8" standalone="no"?> <svg version="1.1" id="Id50df3e44bcc46b8afd5d15f7527478320251110124421" width="100" height="100" viewBox="0 0 100 100" xmlns="http://www.w3.org/2000/svg" xmlns:svg="http://www.w3.org/2000/svg"> <defs id="I3d4b1e2f807047a88725ed2587e7cfe320251110124421" /> <g id="I26f6ded5e8d54b5b9e29528af7a34b8d20251110124421"> <path id="I89ca5e627dbc4a3fb59765dde60e0a3d20251110124421" d="m 36.32,5.738 c 0.703,-0.508 1.653,-0.508 2.352,0 1.723,1.242 5.594,3.512 10.441,5.465 4.848,1.957 10.504,3.527 15.836,3.527 1.11,0 2.008,0.903 2.008,2.012 v 20.762 c 0,0.437 -0.012,0.867 -0.039,1.301 C 63.57,36.301 59.414,34.82 54.91,34.82 c -11.094,0 -20.09,8.996 -20.09,20.09 0,5.453 2.176,10.399 5.7,14.02 -0.915,0.277 -1.809,0.496 -2.68,0.648 l -0.344,0.059 -0.344,-0.059 C 31.246,68.547 24.027,64.445 18.312,58.801 12.598,53.152 8.035,45.613 8.035,37.504 V 16.742 c 0,-1.109 0.899,-2.012 2.008,-2.012 5.336,0 10.992,-1.57 15.84,-3.527 C 30.73,9.25 34.598,6.98 36.32,5.738 Z m 36,49.172 c 0,9.617 -7.793,17.41 -17.41,17.41 -9.617,0 -17.41,-7.793 -17.41,-17.41 0,-9.617 7.793,-17.41 17.41,-17.41 9.617,0 17.41,7.793 17.41,17.41 z M 56.25,44.195 c 0,-0.738 -0.602,-1.34 -1.34,-1.34 -0.738,0 -1.34,0.602 -1.34,1.34 v 9.375 h -9.375 c -0.738,0 -1.34,0.602 -1.34,1.34 0,0.738 0.602,1.34 1.34,1.34 h 9.375 v 9.375 c 0,0.738 0.602,1.34 1.34,1.34 0.738,0 1.34,-0.602 1.34,-1.34 V 56.25 h 9.375 c 0.738,0 1.34,-0.602 1.34,-1.34 0,-0.738 -0.602,-1.34 -1.34,-1.34 H 56.25 Z" style="fill:currentColor;fill-opacity:1;fill-rule:nonzero;stroke:none" transform="scale(1.3333333)" /> </g>
</svg>

