<?xml version="1.0" encoding="UTF-8" standalone="no"?> <svg version="1.1" id="I3768a757d1024aed8e4560b47085c56d20251110124419" width="100" height="100" viewBox="0 0 100 100" xmlns="http://www.w3.org/2000/svg" xmlns:svg="http://www.w3.org/2000/svg"> <defs id="Ie35f981742a441578ede95a6bb1705be20251110124419" /> <g id="Ic142b4c5b4e84094b3e831718c51b6f320251110124419"> <path id="Ic349796619c14cb586b08f73ff3b726a20251110124419" d="m 66.949,10.699 c 0.735,-0.73 0.735,-1.918 0,-2.648 -0.73,-0.735 -1.918,-0.735 -2.648,0 L 54.293,18.055 C 48.355,13.422 39.758,13.84 34.297,19.301 l -1.125,1.125 c -2.18,2.179 -2.18,5.719 0,7.898 l 9.242,9.246 c 1.051,-0.75 2.176,-1.402 3.359,-1.945 l -9.949,-9.949 c -0.719,-0.719 -0.719,-1.883 0,-2.602 l 1.125,-1.125 c 4.446,-4.445 11.653,-4.445 16.098,0 3.203,3.203 4.098,7.84 2.687,11.844 1.286,0.086 2.539,0.285 3.75,0.594 1.391,-4.598 0.543,-9.727 -2.539,-13.68 z m -38.621,22.477 9.242,9.238 c -0.75,1.051 -1.402,2.176 -1.945,3.359 l -9.949,-9.949 c -0.719,-0.715 -1.883,-0.715 -2.598,0 l -1.125,1.125 c -4.445,4.446 -4.445,11.656 0,16.102 3.203,3.199 7.836,4.097 11.84,2.683 0.086,1.289 0.285,2.539 0.594,3.754 -4.598,1.387 -9.727,0.539 -13.68,-2.543 L 10.699,66.949 c -0.73,0.735 -1.918,0.735 -2.648,0 -0.735,-0.73 -0.735,-1.918 0,-2.648 L 18.055,54.293 C 13.426,48.355 13.84,39.758 19.301,34.301 l 1.125,-1.125 c 2.183,-2.184 5.719,-2.184 7.902,0 z M 71.25,54.375 c 0,9.32 -7.555,16.875 -16.875,16.875 -9.32,0 -16.875,-7.555 -16.875,-16.875 0,-9.32 7.555,-16.875 16.875,-16.875 9.32,0 16.875,7.555 16.875,16.875 z m -8.051,-6.949 c -0.73,-0.735 -1.918,-0.735 -2.648,0 l -9.926,9.922 -2.426,-2.422 c -0.73,-0.735 -1.918,-0.735 -2.648,0 -0.735,0.73 -0.735,1.918 0,2.648 l 3.75,3.75 c 0.73,0.735 1.918,0.735 2.648,0 l 11.25,-11.25 c 0.735,-0.73 0.735,-1.918 0,-2.648 z" style="fill:currentColor;fill-opacity:1;fill-rule:nonzero;stroke:none" transform="scale(1.3333333)" /> </g>
</svg>

