<?xml version="1.0" encoding="UTF-8" standalone="no"?> <svg version="1.1" id="Ic33aad7035284fa8acec3ff9ebb6dc7b20251110130509" width="100" height="100" viewBox="0 0 100 100" xmlns="http://www.w3.org/2000/svg" xmlns:svg="http://www.w3.org/2000/svg"> <defs id="Icd70b08f78444c1ea8bbb5cb67d94d5d20251110130509" /> <g id="I53dcc66087fe4c79a7c1a86781a03e9d20251110130509"> <path id="I825954b9ab834a8f9418e8a246458b9a20251110130509" d="m 19.531,9.375 c -5.609,0 -10.156,4.547 -10.156,10.156 v 35.938 c 0,5.609 4.547,10.156 10.156,10.156 h 18.035 c -0.925,-1.449 -1.671,-3.02 -2.211,-4.687 H 19.531 c -3.019,0 -5.469,-2.45 -5.469,-5.469 V 19.531 c 0,-3.019 2.45,-5.469 5.469,-5.469 h 35.938 c 3.019,0 5.469,2.45 5.469,5.469 v 15.824 c 1.667,0.54 3.238,1.286 4.687,2.211 V 19.531 c 0,-5.609 -4.547,-10.156 -10.156,-10.156 z m 19.531,19.531 c 0,-1.293 1.051,-2.344 2.344,-2.344 h 10.938 c 1.293,0 2.344,1.051 2.344,2.344 0,1.293 -1.051,2.344 -2.344,2.344 H 41.406 c -1.293,0 -2.344,-1.051 -2.344,-2.344 z m -5.374,-1.468 c 0.917,-0.915 0.917,-2.399 0,-3.313 -0.915,-0.918 -2.399,-0.918 -3.313,0 l -4.594,4.59 -1.469,-1.465 c -0.914,-0.918 -2.398,-0.918 -3.312,0 -0.918,0.914 -0.918,2.398 0,3.312 l 3.125,3.126 c 0.914,0.917 2.398,0.917 3.313,0 z m 0,13.874 c 0.917,0.915 0.917,2.399 0,3.313 l -6.25,6.25 c -0.915,0.918 -2.399,0.918 -3.313,0 L 21,47.75 c -0.918,-0.914 -0.918,-2.398 0,-3.312 0.914,-0.918 2.398,-0.918 3.312,0 l 1.469,1.464 4.594,-4.59 c 0.914,-0.917 2.398,-0.917 3.313,0 z M 71.875,54.688 C 71.875,45.195 64.18,37.5 54.688,37.5 45.195,37.5 37.5,45.195 37.5,54.688 c 0,9.492 7.695,17.187 17.188,17.187 9.492,0 17.187,-7.695 17.187,-17.187 z m -15.625,1.562 0.004,7.824 c 0,0.864 -0.699,1.563 -1.563,1.563 -0.863,0 -1.562,-0.699 -1.562,-1.563 L 53.125,56.25 h -7.828 c -0.859,0 -1.559,-0.699 -1.559,-1.562 0,-0.864 0.7,-1.563 1.559,-1.563 h 7.828 v -7.816 c 0,-0.864 0.699,-1.563 1.563,-1.563 0.863,0 1.562,0.699 1.562,1.563 v 7.816 h 7.801 c 0.863,0 1.562,0.699 1.562,1.563 0,0.863 -0.699,1.562 -1.562,1.562 z" style="fill:currentColor;fill-opacity:1;fill-rule:nonzero;stroke:none" transform="scale(1.3333333)" /> </g>
</svg>

