<?xml version="1.0" encoding="UTF-8" standalone="no"?> <svg version="1.1" id="Ifa35092cf61646d1bc3cc8068ba34a8d20251106163938" width="100" height="100" viewBox="0 0 100 100" xmlns="http://www.w3.org/2000/svg" xmlns:svg="http://www.w3.org/2000/svg"> <defs id="Ifa655059916e4d43ad9ed552765a2c1d20251106163938" /> <g id="Ibc598d54db6f471e9d23c3c2ba21e3b020251106163938"> <path id="I105add611cba48439d8e94863db7cc1220251106163938" d="M 6.25,37.5 C 6.25,20.242 20.242,6.25 37.5,6.25 54.758,6.25 68.75,20.242 68.75,37.5 68.75,54.758 54.758,68.75 37.5,68.75 20.242,68.75 6.25,54.758 6.25,37.5 Z M 20.312,22.656 v 7.813 c 0,1.293 1.051,2.343 2.344,2.343 h 1.563 v 8.403 l -5.563,5.566 c -0.918,0.914 -0.918,2.399 0,3.313 l 6.25,6.25 c 0.914,0.918 2.399,0.918 3.313,0 l 5.566,-5.563 h 8.403 v 1.563 c 0,1.293 1.05,2.344 2.343,2.344 h 7.813 c 1.293,0 2.344,-1.051 2.344,-2.344 v -7.813 c 0,-1.293 -1.051,-2.343 -2.344,-2.343 h -7.813 c -1.293,0 -2.343,1.05 -2.343,2.343 v 1.563 h -8.403 l -4.879,-4.879 v -8.403 h 1.563 c 1.293,0 2.343,-1.05 2.343,-2.343 v -7.813 c 0,-1.293 -1.05,-2.344 -2.343,-2.344 h -7.813 c -1.293,0 -2.344,1.051 -2.344,2.344 z" style="fill:currentColor;fill-opacity:1;fill-rule:nonzero;stroke:none" transform="scale(1.3333333)" /> </g>
</svg>

