<?xml version="1.0" encoding="UTF-8" standalone="no"?> <svg version="1.1" id="Id4488e0c19754b7aa8462add3dadf71420251106123600" width="100" height="100" viewBox="0 0 100 100" xmlns="http://www.w3.org/2000/svg" xmlns:svg="http://www.w3.org/2000/svg"> <defs id="I71eb21a49fa342cbaed9c3318f7e888220251106123600" /> <g id="I93991d4aa76742a6baf5b93e203aeae920251106123600"> <path id="If311e050990646468cb9645c981e180020251106123600" d="m 41.312,21.191 c -0.832,-0.832 -0.91,-2.132 -0.226,-3.05 l 0.226,-0.266 7.399,-7.406 c 0.391,-0.649 1.172,-1.094 2.074,-1.094 0.785,0 1.485,0.34 1.91,0.863 l 0.164,0.235 7.399,7.402 0.226,0.266 c 0.606,0.812 0.61,1.933 0.02,2.757 l -0.246,0.293 -0.266,0.227 c -0.812,0.605 -1.933,0.613 -2.758,0.023 l -0.293,-0.25 -3.816,-3.816 v 11.824 l -0.023,0.278 c -0.153,1.003 -1.133,1.773 -2.321,1.773 -1.187,0 -2.168,-0.773 -2.324,-1.773 L 48.438,29.199 V 17.375 l -3.813,3.816 -0.262,0.227 c -0.918,0.68 -2.218,0.605 -3.051,-0.227 z m 0.008,32.618 c 0.832,-0.832 2.133,-0.907 3.051,-0.227 l 0.266,0.227 3.808,3.816 V 45.801 c 0,-1.133 1.051,-2.051 2.344,-2.051 1.188,0 2.168,0.77 2.324,1.773 l 0.02,0.278 v 11.824 l 3.816,-3.816 c 0.832,-0.832 2.137,-0.907 3.055,-0.227 l 0.262,0.227 c 0.832,0.832 0.906,2.132 0.226,3.05 l -0.226,0.266 -7.399,7.402 c -0.39,0.653 -1.172,1.098 -2.074,1.098 -0.898,0 -1.68,-0.445 -2.074,-1.094 L 41.32,57.125 c -0.914,-0.918 -0.914,-2.402 0,-3.316 z M 19.531,12.477 c -3.883,0 -7.031,3.148 -7.031,7.031 v 35.937 c 0,3.883 3.148,7.032 7.031,7.032 h 12.5 c 1.293,0 2.344,-1.051 2.344,-2.344 0,-1.297 -1.051,-2.344 -2.344,-2.344 h -12.5 c -1.293,0 -2.343,-1.051 -2.343,-2.344 V 19.508 c 0,-1.297 1.05,-2.344 2.343,-2.344 h 12.5 c 1.293,0 2.344,-1.051 2.344,-2.344 0,-1.297 -1.051,-2.343 -2.344,-2.343 z" style="fill:currentColor;fill-opacity:1;fill-rule:nonzero;stroke:none" transform="scale(1.3333333)" /> </g>
</svg>

