<?xml version="1.0" encoding="UTF-8" standalone="no"?> <svg version="1.1" id="If79fbe0cb76a4df0a678deb12e708c4e20251106143239" width="100" height="100" viewBox="0 0 100 100" xmlns="http://www.w3.org/2000/svg" xmlns:svg="http://www.w3.org/2000/svg"> <defs id="Ifd7a4ca5584343b38c5d95bde1f0090520251106143239" /> <g id="If0bbb5b3982a4e948ce11c3a4d20cfd320251106143239"> <path id="Iccb31fd966e34b26883fcebe857562fc20251106143239" d="M 16.406,12.5 C 10.797,12.5 6.25,17.047 6.25,22.656 v 29.688 c 0,5.609 4.547,10.156 10.156,10.156 h 42.188 c 5.609,0 10.156,-4.547 10.156,-10.156 V 22.656 C 68.75,17.047 64.203,12.5 58.594,12.5 Z m -5.468,10.156 c 0,-3.019 2.449,-5.468 5.468,-5.468 h 42.188 c 3.019,0 5.468,2.449 5.468,5.468 v 29.688 c 0,3.019 -2.449,5.468 -5.468,5.468 H 16.406 c -3.019,0 -5.468,-2.449 -5.468,-5.468 z m 4.687,1.563 c 0,-1.293 1.051,-2.344 2.344,-2.344 h 17.187 c 1.293,0 2.344,1.051 2.344,2.344 0,1.293 -1.051,2.343 -2.344,2.343 H 17.969 c -1.293,0 -2.344,-1.05 -2.344,-2.343 z m 3.125,16.406 c -1.727,0 -3.125,1.398 -3.125,3.125 V 50 c 0,1.727 1.398,3.125 3.125,3.125 h 21.875 c 1.727,0 3.125,-1.398 3.125,-3.125 v -6.25 c 0,-1.727 -1.398,-3.125 -3.125,-3.125 z m -3.125,-8.594 c 0,-1.293 1.051,-2.343 2.344,-2.343 h 32.812 c 1.293,0 2.344,1.05 2.344,2.343 0,1.293 -1.051,2.344 -2.344,2.344 H 17.969 c -1.293,0 -2.344,-1.051 -2.344,-2.344 z" style="fill:currentColor;fill-opacity:1;fill-rule:nonzero;stroke:none" transform="scale(1.3333333)" /> </g>
</svg>

