<?xml version="1.0" encoding="UTF-8" standalone="no"?> <svg version="1.1" id="Ib440470d7d6149bea9dc8ed5195f625720251106132946" width="100" height="100" viewBox="0 0 100 100" xmlns="http://www.w3.org/2000/svg" xmlns:svg="http://www.w3.org/2000/svg"> <defs id="I2ed2b4a893fc4084a28d5fa3e48b4dfc20251106132946" /> <g id="I342cd99920664647909b0aececd37bd720251106132946"> <path id="I11b4a99d68e8411aa5f5118be708352520251106132946" d="m 16.07,18.082 c 0,-4.809 3.899,-8.707 8.707,-8.707 h 25.446 c 4.808,0 8.707,3.898 8.707,8.707 v 48.211 c 0,0.766 -0.434,1.461 -1.118,1.801 -0.683,0.34 -1.5,0.261 -2.105,-0.199 L 37.5,54.086 19.293,67.895 c -0.605,0.46 -1.422,0.539 -2.105,0.199 -0.684,-0.34 -1.118,-1.035 -1.118,-1.801 z m 8.707,-4.687 c -2.589,0 -4.687,2.097 -4.687,4.687 V 62.25 L 36.285,49.961 c 0.719,-0.543 1.711,-0.543 2.43,0 L 54.91,62.25 V 18.082 c 0,-2.59 -2.098,-4.687 -4.687,-4.687 z" style="fill:currentColor;fill-opacity:1;fill-rule:nonzero;stroke:none" transform="scale(1.3333333)" /> </g>
</svg>

