<?xml version="1.0" encoding="UTF-8" standalone="no"?> <svg version="1.1" id="I6969c0b15c634effbc174be730ed6f6920251106143239" width="100" height="100" viewBox="0 0 100 100" xmlns="http://www.w3.org/2000/svg" xmlns:svg="http://www.w3.org/2000/svg"> <defs id="I91913191f9774384aa9025a7d485cf4620251106143239" /> <g id="I8cf4f1f2c2124265be52490b13d7dd2a20251106143239"> <path id="I49a7aaba09984e9bb231d07b70f7c26720251106143239" d="m 12.5,14.844 c 0,-4.746 3.848,-8.594 8.594,-8.594 h 32.812 c 4.746,0 8.594,3.848 8.594,8.594 V 31.25 h -2.344 c -0.84,0 -1.633,0.188 -2.344,0.527 V 14.844 c 0,-2.156 -1.75,-3.906 -3.906,-3.906 H 21.094 c -2.156,0 -3.906,1.75 -3.906,3.906 V 31.777 C 16.477,31.438 15.684,31.25 14.844,31.25 H 12.5 Z m 45.312,37.558 c 1.704,-0.714 3.266,-1.5 4.688,-2.316 v 10.07 c 0,4.746 -3.848,8.594 -8.594,8.594 H 21.094 c -4.746,0 -8.594,-3.848 -8.594,-8.594 v -10.07 c 1.422,0.816 2.984,1.602 4.688,2.316 v 7.754 c 0,2.156 1.75,3.906 3.906,3.906 h 32.812 c 2.156,0 3.906,-1.75 3.906,-3.906 z M 5.469,34.375 c -1.293,0 -2.344,1.051 -2.344,2.344 v 9.375 c 0,1.293 1.051,2.344 2.344,2.344 1.293,0 2.343,-1.051 2.343,-2.344 v -3.223 c 0.993,0.899 2.172,1.852 3.547,2.805 5.45,3.773 13.918,7.449 26.141,7.449 12.223,0 20.691,-3.676 26.141,-7.449 1.375,-0.953 2.554,-1.906 3.547,-2.805 v 3.223 c 0,1.293 1.05,2.344 2.343,2.344 1.293,0 2.344,-1.051 2.344,-2.344 v -9.375 c 0,-1.293 -1.051,-2.344 -2.344,-2.344 h -9.375 c -1.293,0 -2.344,1.051 -2.344,2.344 0,1.293 1.051,2.343 2.344,2.343 h 4.25 c -0.922,0.864 -2.062,1.809 -3.437,2.762 -4.707,3.258 -12.254,6.614 -23.469,6.614 -11.215,0 -18.762,-3.356 -23.469,-6.614 -1.375,-0.953 -2.515,-1.898 -3.437,-2.762 h 4.25 c 1.293,0 2.344,-1.05 2.344,-2.343 0,-1.293 -1.051,-2.344 -2.344,-2.344 z M 25,21.094 c 0,-1.293 1.051,-2.344 2.344,-2.344 h 20.312 c 1.293,0 2.344,1.051 2.344,2.344 0,1.293 -1.051,2.344 -2.344,2.344 H 27.344 C 26.051,23.438 25,22.387 25,21.094 Z m 2.344,10.156 c -1.293,0 -2.344,1.051 -2.344,2.344 0,1.293 1.051,2.344 2.344,2.344 h 14.062 c 1.293,0 2.344,-1.051 2.344,-2.344 0,-1.293 -1.051,-2.344 -2.344,-2.344 z" style="fill:currentColor;fill-opacity:1;fill-rule:nonzero;stroke:none" transform="scale(1.3333333)" /> </g>
</svg>

