<?xml version="1.0" encoding="UTF-8" standalone="no"?> <svg version="1.1" id="I6a172ef24f5745ba8859dd256bce169620251106155156" width="100" height="100" viewBox="0 0 100 100" xmlns="http://www.w3.org/2000/svg" xmlns:svg="http://www.w3.org/2000/svg"> <defs id="I2b10acf824e84ea390bb5df85fb9bbfc20251106155156" /> <g id="Iedc12173b47e4c818cca708a7ee356b620251106155156"> <path id="I6de9d7b151124f7ca8e171df4e8d7c8420251106155156" d="M 37.5,7.5 V 24.375 C 37.5,27.48 40.02,30 43.125,30 H 60 V 61.875 C 60,64.98 57.48,67.5 54.375,67.5 H 36.535 C 39.48,63.934 41.25,59.359 41.25,54.375 41.25,42.984 32.016,33.75 20.625,33.75 18.676,33.75 16.789,34.02 15,34.527 V 13.125 C 15,10.02 17.52,7.5 20.625,7.5 Z m 3.75,0.938 v 15.937 c 0,1.035 0.84,1.875 1.875,1.875 H 59.062 Z M 20.625,71.25 C 29.945,71.25 37.5,63.695 37.5,54.375 37.5,45.055 29.945,37.5 20.625,37.5 11.305,37.5 3.75,45.055 3.75,54.375 c 0,9.32 7.555,16.875 16.875,16.875 z m 8.824,-18.199 c 0.735,0.73 0.735,1.918 0,2.648 -0.73,0.735 -1.918,0.735 -2.648,0 L 22.5,51.402 v 10.473 c 0,1.035 -0.84,1.875 -1.875,1.875 -1.035,0 -1.875,-0.84 -1.875,-1.875 V 51.402 l -4.301,4.297 c -0.73,0.735 -1.918,0.735 -2.648,0 -0.735,-0.73 -0.735,-1.918 0,-2.648 l 7.5,-7.5 c 0.179,-0.18 0.387,-0.317 0.605,-0.41 C 20.125,45.051 20.363,45 20.613,45 h 0.024 c 0.25,0 0.488,0.051 0.707,0.141 0.215,0.093 0.422,0.226 0.597,0.402 l 0.012,0.008 z" style="fill:currentColor;fill-opacity:1;fill-rule:nonzero;stroke:none" transform="scale(1.3333333)" /> </g>
</svg>

