<?xml version="1.0" encoding="UTF-8" standalone="no"?> <svg version="1.1" id="If9fef0138b054df79cfd18cffd51c94020251110123030" width="100" height="100" viewBox="0 0 100 100" xmlns="http://www.w3.org/2000/svg" xmlns:svg="http://www.w3.org/2000/svg"> <defs id="I0588ed91d7c0454c990f2f9f092fb55220251110123030" /> <g id="I1256e4a1b95c49458d6290e63dd8b58b20251110123030"> <path id="Iaba734c13a43418abcd6bb82e98bd77020251110123030" d="m 25,34.375 c 6.902,0 12.5,-5.598 12.5,-12.5 0,-6.902 -5.598,-12.5 -12.5,-12.5 -6.902,0 -12.5,5.598 -12.5,12.5 0,6.902 5.598,12.5 12.5,12.5 z m 28.125,0 c 5.18,0 9.375,-4.199 9.375,-9.375 0,-5.176 -4.195,-9.375 -9.375,-9.375 -5.18,0 -9.375,4.199 -9.375,9.375 0,5.176 4.195,9.375 9.375,9.375 z m -39.844,6.25 c -3.883,0 -7.031,3.148 -7.031,7.031 v 0.782 c 0,0 0,14.062 18.75,14.062 3.867,0 6.938,-0.598 9.375,-1.547 V 48.438 c 0,-3.325 2.078,-6.165 5.004,-7.293 -0.82,-0.336 -1.719,-0.52 -2.66,-0.52 z M 37.5,48.438 c 0,-2.59 2.098,-4.688 4.688,-4.688 h 25 c 2.589,0 4.687,2.098 4.687,4.688 v 12.5 c 0,2.589 -2.098,4.687 -4.687,4.687 h -25 c -2.59,0 -4.688,-2.098 -4.688,-4.687 z M 40.625,50 v 3.125 c 3.453,0 6.25,-2.797 6.25,-6.25 H 43.75 C 43.75,48.602 42.352,50 40.625,50 Z M 68.75,53.125 V 50 c -1.727,0 -3.125,-1.398 -3.125,-3.125 H 62.5 c 0,3.453 2.797,6.25 6.25,6.25 z M 62.5,62.5 h 3.125 c 0,-1.727 1.398,-3.125 3.125,-3.125 V 56.25 c -3.453,0 -6.25,2.797 -6.25,6.25 z M 40.625,56.25 v 3.125 c 1.727,0 3.125,1.398 3.125,3.125 h 3.125 c 0,-3.453 -2.797,-6.25 -6.25,-6.25 z m 14.063,3.906 c 3.019,0 5.468,-2.449 5.468,-5.468 0,-3.02 -2.449,-5.469 -5.468,-5.469 -3.02,0 -5.469,2.449 -5.469,5.469 0,3.019 2.449,5.468 5.469,5.468 z" style="fill:currentColor;fill-opacity:1;fill-rule:nonzero;stroke:none" transform="scale(1.3333333)" /> </g>
</svg>

