<?xml version="1.0" encoding="UTF-8" standalone="no"?> <svg version="1.1" id="Ia3527ec9ed564b2f9b98e5a05704fb6e20251106171633" width="100" height="100" viewBox="0 0 100 100" xmlns="http://www.w3.org/2000/svg" xmlns:svg="http://www.w3.org/2000/svg"> <defs id="I86c16fcbefed4ef293405d63a618a9ed20251106171633" /> <g id="I4bf3518e71d44c1fa1af52cb542a73fc20251106171633"> <path id="Ie34644ac809d48769c3ecc26ce60c3e120251106171633" d="m 32.812,21.875 c -5.175,0 -9.374,4.199 -9.374,9.375 0,5.18 4.199,9.375 9.374,9.375 5.18,0 9.376,-4.195 9.376,-9.375 0,-5.176 -4.196,-9.375 -9.376,-9.375 z m -4.687,9.375 c 0,-2.59 2.098,-4.688 4.687,-4.688 2.59,0 4.688,2.098 4.688,4.688 0,2.59 -2.098,4.688 -4.688,4.688 -2.589,0 -4.687,-2.098 -4.687,-4.688 z M 6.25,19.531 c 0,-3.883 3.148,-7.031 7.031,-7.031 h 39.063 c 3.883,0 7.031,3.148 7.031,7.031 v 14.844 h -4.687 v -7.813 h -2.344 c -3.883,0 -7.032,-3.148 -7.032,-7.031 v -2.343 h -25 v 2.343 c 0,3.883 -3.148,7.031 -7.031,7.031 h -2.343 v 9.376 h 2.343 c 3.883,0 7.031,3.148 7.031,7.031 v 2.343 H 43.75 V 50 H 13.281 C 9.398,50 6.25,46.852 6.25,42.969 Z m 7.031,-2.343 c -1.293,0 -2.343,1.05 -2.343,2.343 v 2.344 h 2.343 c 1.293,0 2.344,-1.051 2.344,-2.344 v -2.343 z m 41.407,4.687 v -2.344 c 0,-1.293 -1.051,-2.343 -2.344,-2.343 H 50 v 2.343 c 0,1.293 1.051,2.344 2.344,2.344 z m -43.75,21.094 c 0,1.293 1.05,2.343 2.343,2.343 h 2.344 v -2.343 c 0,-1.293 -1.051,-2.344 -2.344,-2.344 h -2.343 z m 2.816,11.719 H 43.75 v 4.687 H 21.875 c -3.469,0 -6.5,-1.887 -8.121,-4.687 z M 68.75,34.375 v -6.25 c 0,-3.469 -1.887,-6.5 -4.688,-8.121 V 34.375 Z M 51.562,37.5 c -2.589,0 -4.687,2.098 -4.687,4.688 v 25 c 0,2.589 2.098,4.687 4.687,4.687 h 15.626 c 2.589,0 4.687,-2.098 4.687,-4.687 v -25 c 0,-2.59 -2.098,-4.688 -4.687,-4.688 z m 1.563,14.062 h 3.125 c 0.863,0 1.562,0.7 1.562,1.563 0,0.863 -0.699,1.563 -1.562,1.563 h -3.125 c -0.863,0 -1.563,-0.7 -1.563,-1.563 0,-0.863 0.7,-1.563 1.563,-1.563 z m 9.375,0 h 3.125 c 0.863,0 1.563,0.7 1.563,1.563 0,0.863 -0.7,1.563 -1.563,1.563 H 62.5 c -0.863,0 -1.562,-0.7 -1.562,-1.563 0,-0.863 0.699,-1.563 1.562,-1.563 z m -9.375,6.25 h 3.125 c 0.863,0 1.562,0.7 1.562,1.563 0,0.863 -0.699,1.563 -1.562,1.563 h -3.125 c -0.863,0 -1.563,-0.7 -1.563,-1.563 0,-0.863 0.7,-1.563 1.563,-1.563 z m 9.375,0 h 3.125 c 0.863,0 1.563,0.7 1.563,1.563 0,0.863 -0.7,1.563 -1.563,1.563 H 62.5 c -0.863,0 -1.562,-0.7 -1.562,-1.563 0,-0.863 0.699,-1.563 1.562,-1.563 z m -9.375,6.25 h 3.125 c 0.863,0 1.562,0.7 1.562,1.563 0,0.863 -0.699,1.563 -1.562,1.563 h -3.125 c -0.863,0 -1.563,-0.7 -1.563,-1.563 0,-0.863 0.7,-1.563 1.563,-1.563 z m 9.375,0 h 3.125 c 0.863,0 1.563,0.7 1.563,1.563 0,0.863 -0.7,1.563 -1.563,1.563 H 62.5 c -0.863,0 -1.562,-0.7 -1.562,-1.563 0,-0.863 0.699,-1.563 1.562,-1.563 z M 51.562,43.75 c 0,-0.863 0.7,-1.562 1.563,-1.562 h 12.5 c 0.863,0 1.563,0.699 1.563,1.562 v 3.125 c 0,0.863 -0.7,1.563 -1.563,1.563 h -12.5 c -0.863,0 -1.563,-0.7 -1.563,-1.563 z" style="fill:currentColor;fill-opacity:1;fill-rule:nonzero;stroke:none" transform="scale(1.3333333)" /> </g>
</svg>

