<?xml version="1.0" encoding="UTF-8" standalone="no"?> <svg version="1.1" id="Id420672f34c0474c939967aa75aa831620251106165302" width="100" height="100" viewBox="0 0 100 100" xmlns="http://www.w3.org/2000/svg" xmlns:svg="http://www.w3.org/2000/svg"> <defs id="I553e4da9f1b24dfeb043c6ee1e49766020251106165302" /> <g id="I778eb75336d4459ba7aaef74cf4b6d3020251106165302"> <path id="I2c044b8e67df4fffa3e6e400b148028d20251106165302" d="m 43.738,21.09 c 0,2.152 -1.746,3.898 -3.898,3.898 -2.156,0 -3.902,-1.746 -3.902,-3.898 0,-2.156 1.746,-3.902 3.902,-3.902 2.152,0 3.898,1.746 3.898,3.902 z M 6.25,16.406 C 6.25,10.797 10.797,6.25 16.406,6.25 h 28.125 c 5.61,0 10.157,4.547 10.157,10.156 v 28.125 c 0,5.61 -4.547,10.157 -10.157,10.157 H 16.406 C 10.797,54.688 6.25,50.141 6.25,44.531 Z m 10.156,-5.468 c -3.019,0 -5.468,2.449 -5.468,5.468 v 28.125 c 0,0.723 0.14,1.41 0.394,2.043 l 14.332,-13.41 c 2.703,-2.527 6.902,-2.527 9.606,0 l 14.335,13.41 C 49.859,45.941 50,45.254 50,44.531 V 16.406 c 0,-3.019 -2.449,-5.468 -5.469,-5.468 z M 46.148,49.758 32.07,36.59 c -0.902,-0.844 -2.304,-0.844 -3.203,0 L 14.789,49.758 C 15.301,49.914 15.844,50 16.406,50 h 28.125 c 0.563,0 1.106,-0.086 1.617,-0.242 z m -25.839,8.836 v -0.782 h 25.003 c 0.25,0 0.5,-0.007 0.747,-0.023 6.558,-0.383 11.757,-5.82 11.757,-12.477 v -25 h 0.774 c 5.609,0 10.156,4.547 10.156,10.157 v 21.875 c 0,9.062 -7.344,16.406 -16.406,16.406 H 30.465 c -5.61,0 -10.156,-4.547 -10.156,-10.156 z" style="fill:currentColor;fill-opacity:1;fill-rule:nonzero;stroke:none" transform="scale(1.3333333)" /> </g>
</svg>

