<?xml version="1.0" encoding="UTF-8" standalone="no"?> <svg version="1.1" id="Iebd111c390c64972b49aac282192200320251106142135" width="100" height="100" viewBox="0 0 100 100" xmlns="http://www.w3.org/2000/svg" xmlns:svg="http://www.w3.org/2000/svg"> <defs id="Ia4b5e8f1525d41c48a6d302b94f3189720251106142135" /> <g id="I4132106d9d76463d8dfd7fe940db28ed20251106142135"> <path id="I85136a7f771944efb4bdf49113b4a1ac20251106142135" d="M 20,7.426 C 19.355,6.305 17.922,5.918 16.801,6.562 15.676,7.207 15.293,8.641 15.938,9.762 L 30.109,34.375 H 8.594 c -1.293,0 -2.344,1.051 -2.344,2.344 V 37.5 c 0,17.258 13.992,31.25 31.25,31.25 17.258,0 31.25,-13.992 31.25,-31.25 v -0.781 c 0,-1.293 -1.051,-2.344 -2.344,-2.344 H 48.016 L 32.5,7.426 C 31.855,6.305 30.422,5.918 29.301,6.562 c -1.125,0.645 -1.508,2.079 -0.863,3.2 l 14.171,24.613 h -7.093 z m -5.039,44.136 h 45.078 c -4.695,7.508 -13.031,12.5 -22.539,12.5 -9.504,0 -17.844,-4.992 -22.539,-12.5 z m -2.32,-4.687 c -0.926,-2.453 -1.5,-5.078 -1.657,-7.813 h 53.032 c -0.157,2.735 -0.731,5.36 -1.657,7.813 z" style="fill:currentColor;fill-opacity:1;fill-rule:nonzero;stroke:none" transform="scale(1.3333333)" /> </g>
</svg>

