<?xml version="1.0" encoding="UTF-8" standalone="no"?> <svg version="1.1" id="I5a790ae4a9934aa799633acb0b07cee620251106113050" width="100" height="100" viewBox="0 0 100 100" xmlns="http://www.w3.org/2000/svg" xmlns:svg="http://www.w3.org/2000/svg"> <defs id="Ie595709bbc3f429085790cfddf33229d20251106113050" /> <g id="I6387153f088d4a10a96d87a84b81b6bd20251106113050"> <path id="I12e3dc50f34f42a0a7772d1cc399ee5420251106113050" d="M 64.285,0 H 19.418 C 19.051,0 18.75,0.301 18.75,0.668 v 4.687 c 0,0.372 0.301,0.672 0.668,0.672 h 41.52 v 57.59 c 0,0.367 0.3,0.668 0.667,0.668 h 4.688 c 0.371,0 0.672,-0.301 0.672,-0.668 V 2.68 C 66.965,1.195 65.766,0 64.285,0 Z M 53.57,10.715 H 10.715 c -1.481,0 -2.68,1.195 -2.68,2.68 v 44.421 c 0,0.711 0.285,1.387 0.789,1.891 l 14.504,14.508 c 0.184,0.183 0.395,0.332 0.621,0.457 v 0.16 h 0.352 C 24.594,74.941 24.902,75 25.219,75 H 53.57 c 1.485,0 2.68,-1.195 2.68,-2.68 V 13.395 c 0,-1.485 -1.195,-2.68 -2.68,-2.68 z M 23.941,66.312 16.734,59.098 h 7.207 z m 26.282,2.661 H 29.297 V 57.086 c 0,-1.848 -1.5,-3.348 -3.348,-3.348 H 14.062 V 16.742 h 36.161 z" style="fill:currentColor;fill-opacity:1;fill-rule:nonzero;stroke:none" transform="scale(1.3333333)" /> </g>
</svg>

