<?xml version="1.0" encoding="UTF-8" standalone="no"?> <svg version="1.1" id="I03367ef4518946f1a65fde36625e2b8520251106152729" width="100" height="100" viewBox="0 0 100 100" xmlns="http://www.w3.org/2000/svg" xmlns:svg="http://www.w3.org/2000/svg"> <defs id="I7f2015b23ed34326b05f1b6a47bd05d620251106152729" /> <g id="Ifcc9bd01781a4cc6bf9478ae7e0fb8ff20251106152729"> <path id="Ib0323bb46eaf426fb146e0e283e64c0820251106152729" d="M 26.109,53.102 C 23.734,52.875 21.875,50.875 21.875,48.438 V 9.375 L 21.855,9.012 C 21.672,7.457 20.352,6.25 18.75,6.25 c -1.727,0 -3.125,1.398 -3.125,3.125 v 6.25 h -6.25 l -0.363,0.02 C 7.457,15.828 6.25,17.148 6.25,18.75 c 0,1.727 1.398,3.125 3.125,3.125 h 6.25 v 26.563 l 0.016,0.601 c 0.312,5.762 5.082,10.336 10.921,10.336 H 41.176 L 40.758,59.238 40.723,59.227 C 39.781,58.895 38.965,58.281 38.387,57.465 37.809,56.648 37.5,55.676 37.5,54.676 c 0,-0.531 0.086,-1.055 0.258,-1.551 H 26.562 Z m 33.266,-11.7 -0.211,-0.648 -0.012,-0.035 C 58.82,39.777 58.203,38.961 57.387,38.387 56.574,37.809 55.598,37.5 54.602,37.5 c -0.504,0 -1.004,0.078 -1.477,0.23 V 26.562 c 0,-2.437 -1.859,-4.437 -4.234,-4.667 l -0.453,-0.02 H 25 v -6.25 h 23.438 c 5.839,0 10.609,4.574 10.921,10.336 l 0.016,0.601 z m 13.168,-2.117 1.914,0.621 0.039,0.012 c 0.149,0.051 0.274,0.148 0.363,0.277 0.094,0.125 0.141,0.278 0.141,0.434 0,0.156 -0.047,0.309 -0.141,0.437 -0.089,0.129 -0.214,0.223 -0.363,0.278 l -1.914,0.621 c -0.582,0.191 -1.109,0.519 -1.543,0.949 -0.434,0.434 -0.762,0.965 -0.953,1.543 l -0.625,1.914 c -0.051,0.149 -0.149,0.274 -0.273,0.363 -0.129,0.094 -0.282,0.141 -0.438,0.141 -0.156,0 -0.309,-0.047 -0.438,-0.141 C 68.188,46.645 68.09,46.52 68.039,46.371 L 67.414,44.457 C 67.223,43.875 66.898,43.344 66.465,42.91 66.031,42.477 65.5,42.148 64.918,41.953 L 63.004,41.332 C 62.855,41.281 62.73,41.184 62.641,41.055 62.547,40.93 62.5,40.777 62.5,40.621 c 0,-0.156 0.047,-0.309 0.141,-0.437 0.089,-0.129 0.214,-0.223 0.363,-0.278 l 1.914,-0.621 c 0.574,-0.195 1.098,-0.527 1.523,-0.957 0.426,-0.433 0.747,-0.961 0.934,-1.535 L 68,34.879 c 0.051,-0.149 0.148,-0.274 0.273,-0.363 0.129,-0.094 0.282,-0.141 0.438,-0.141 0.156,0 0.309,0.047 0.437,0.141 0.129,0.089 0.223,0.214 0.278,0.363 l 0.621,1.914 c 0.191,0.578 0.519,1.109 0.953,1.543 0.434,0.43 0.961,0.758 1.543,0.949 z M 50.277,60.664 c -0.226,-0.293 -0.472,-0.57 -0.734,-0.832 -0.977,-0.98 -2.168,-1.719 -3.477,-2.156 l -4.304,-1.395 c -0.332,-0.117 -0.621,-0.336 -0.824,-0.621 -0.204,-0.289 -0.313,-0.633 -0.313,-0.984 0,-0.352 0.109,-0.696 0.313,-0.981 0.203,-0.289 0.492,-0.504 0.824,-0.621 l 4.304,-1.398 c 1.293,-0.446 2.465,-1.184 3.426,-2.16 0.934,-0.946 1.641,-2.09 2.07,-3.348 l 0.036,-0.106 1.398,-4.304 c 0.117,-0.332 0.336,-0.617 0.621,-0.82 0.289,-0.204 0.633,-0.313 0.985,-0.313 0.351,0 0.695,0.109 0.98,0.313 0.289,0.203 0.508,0.488 0.625,0.82 l 1.398,4.304 c 0.434,1.309 1.168,2.497 2.145,3.469 0.977,0.977 2.164,1.711 3.473,2.145 l 4.304,1.398 0.086,0.02 c 0.332,0.117 0.621,0.336 0.825,0.621 0.203,0.289 0.312,0.633 0.312,0.984 0,0.352 -0.109,0.696 -0.312,0.981 -0.204,0.289 -0.493,0.504 -0.825,0.621 l -4.304,1.398 c -1.309,0.434 -2.497,1.168 -3.473,2.145 -0.977,0.972 -1.711,2.16 -2.145,3.468 l -1.398,4.305 c -0.016,0.035 -0.027,0.071 -0.043,0.106 -0.125,0.285 -0.324,0.535 -0.578,0.715 -0.289,0.203 -0.633,0.312 -0.984,0.312 -0.352,0 -0.696,-0.109 -0.985,-0.312 -0.285,-0.204 -0.504,-0.489 -0.621,-0.821 l -1.398,-4.305 c -0.317,-0.957 -0.793,-1.855 -1.407,-2.648 z" style="fill:currentColor;fill-opacity:1;fill-rule:nonzero;stroke:none" transform="scale(1.3333333)" /> </g>
</svg>

