<?xml version="1.0" encoding="UTF-8" standalone="no"?> <svg version="1.1" id="Idf3c5a3aec4545c1b43da710e8bf539720251106113050" width="100" height="100" viewBox="0 0 100 100" xmlns="http://www.w3.org/2000/svg" xmlns:svg="http://www.w3.org/2000/svg"> <defs id="I7719cfa15cdf474798520ce5428b37b620251106113050" /> <g id="I6fe940a202ff468db696e3ea205a724b20251106113050"> <path id="I3ae92e32d9ab4003ae465b17b0bde07b20251106113050" d="M 37.5,0 C 16.793,0 0,16.793 0,37.5 0,58.207 16.793,75 37.5,75 58.207,75 75,58.207 75,37.5 75,16.793 58.207,0 37.5,0 Z m 0,68.637 C 20.309,68.637 6.363,54.691 6.363,37.5 6.363,20.309 20.309,6.363 37.5,6.363 c 17.191,0 31.137,13.946 31.137,31.137 0,17.191 -13.946,31.137 -31.137,31.137 z M 54.105,19.41 c -0.66,-0.258 -1.398,-0.242 -2.05,0.043 l -22.684,9.926 -9.918,22.687 c -0.301,0.684 -0.301,1.465 0,2.149 0.285,0.652 0.813,1.164 1.481,1.426 0.32,0.125 0.644,0.183 0.98,0.183 0.367,0 0.727,-0.078 1.07,-0.226 L 45.668,45.668 55.59,22.984 C 56.199,21.59 55.527,19.965 54.105,19.41 Z m -11.179,19.965 2.191,2.191 -3.551,3.551 -2.191,-2.191 -12.926,5.656 5.653,-12.922 -2.137,-2.144 3.551,-3.551 2.132,2.137 12.934,-5.653 z m -9.41,-9.41 -3.551,3.551 2.137,2.144 7.273,7.266 2.191,2.191 3.551,-3.551 -2.191,-2.191 -7.266,-7.273 z" style="fill:currentColor;fill-opacity:1;fill-rule:nonzero;stroke:none" transform="scale(1.3333333)" /> </g>
</svg>

