<?xml version="1.0" encoding="UTF-8" standalone="no"?> <svg version="1.1" id="Ie1411a30c8244d0f85b0d5b62b8f044120251106155157" width="100" height="100" viewBox="0 0 100 100" xmlns="http://www.w3.org/2000/svg" xmlns:svg="http://www.w3.org/2000/svg"> <defs id="I1224b3cf04254621a1da4cd9146bc5fc20251106155157" /> <g id="Ic03d15f6a9dd49ff8e5dac327c73262f20251106155157"> <path id="I0363a9eda0ad40bc9fe362bd9bce62fb20251106155157" d="M 40.625,21.094 V 6.25 H 27.344 c -3.883,0 -7.032,3.148 -7.032,7.031 v 21.094 c 11.219,0 20.313,9.094 20.313,20.313 0,2.179 -0.344,4.281 -0.98,6.25 h 15.824 c 3.883,0 7.031,-3.149 7.031,-7.032 V 28.125 H 47.656 c -3.883,0 -7.031,-3.148 -7.031,-7.031 z m -23.43,-6.633 -0.004,20.152 c -1.636,0.254 -3.207,0.699 -4.691,1.321 v -14.84 c 0,-3.067 1.961,-5.672 4.695,-6.633 z M 47.641,68.762 H 34.957 c 1.336,-1.387 2.473,-2.965 3.371,-4.688 l 15.942,0.004 c -0.965,2.731 -3.571,4.684 -6.629,4.684 z M 45.312,21.094 V 7.812 L 60.938,23.438 H 47.656 c -1.293,0 -2.344,-1.051 -2.344,-2.344 z M 37.5,54.688 C 37.5,64.18 29.805,71.875 20.312,71.875 10.82,71.875 3.125,64.18 3.125,54.688 3.125,45.195 10.82,37.5 20.312,37.5 29.805,37.5 37.5,45.195 37.5,54.688 Z m -29.688,0 c 0,2.605 0.797,5.023 2.161,7.027 L 27.34,44.348 c -2.004,-1.364 -4.422,-2.16 -7.028,-2.16 -6.902,0 -12.5,5.597 -12.5,12.5 z m 12.5,12.5 c 6.903,0 12.5,-5.598 12.5,-12.5 0,-2.606 -0.796,-5.024 -2.16,-7.028 L 13.285,65.027 c 2.004,1.364 4.422,2.161 7.027,2.161 z" style="fill:currentColor;fill-opacity:1;fill-rule:nonzero;stroke:none" transform="scale(1.3333333)" /> </g>
</svg>

