<?xml version="1.0" encoding="UTF-8" standalone="no"?> <svg version="1.1" id="I1e67731b071f439a8340c25180379a6520251110133655" width="100" height="100" viewBox="0 0 100 100" xmlns="http://www.w3.org/2000/svg" xmlns:svg="http://www.w3.org/2000/svg"> <defs id="Icaba6a54ca6f4df3acb84eb46b1a998120251110133655" /> <g id="I4a3231f0bcc84acf84119cab04b747d220251110133655"> <path id="I53db1df90b974e26995a214f3669dc2820251110133655" d="m 12.734,10.715 c -4.07,0 -7.367,3.297 -7.367,7.367 v 38.836 c 0,4.07 3.297,7.367 7.367,7.367 h 49.543 c 4.071,0 7.368,-3.297 7.368,-7.367 V 18.082 c 0,-4.07 -3.297,-7.367 -7.368,-7.367 z m -3.347,7.367 c 0,-1.852 1.496,-3.352 3.347,-3.352 h 49.543 c 1.852,0 3.348,1.5 3.348,3.352 v 38.836 c 0,1.852 -1.496,3.352 -3.348,3.352 H 53.57 V 49.555 c 0,-2.961 -2.398,-5.36 -5.355,-5.36 h -21.43 c -2.957,0 -5.355,2.399 -5.355,5.36 V 60.27 h -8.696 c -1.851,0 -3.347,-1.5 -3.347,-3.352 z m 37.488,12.723 c 0,5.175 -4.199,9.375 -9.375,9.375 -5.176,0 -9.375,-4.2 -9.375,-9.375 0,-5.18 4.199,-9.375 9.375,-9.375 5.176,0 9.375,4.195 9.375,9.375 z" style="fill:currentColor;fill-opacity:1;fill-rule:nonzero;stroke:none" transform="scale(1.3333333)" /> </g>
</svg>

