<?xml version="1.0" encoding="UTF-8" standalone="no"?> <svg version="1.1" id="I2510bc9efd204551963173bcbcda77fa20251110130508" width="100" height="100" viewBox="0 0 100 100" xmlns="http://www.w3.org/2000/svg" xmlns:svg="http://www.w3.org/2000/svg"> <defs id="I9bcdd1537dab4cf0bef495ab64c5bdcc20251110130508" /> <g id="Ic0a8ce50ee9a46c581e6c34d863e645720251110130508"> <path id="I76a954d8b7024059975cb9ee44ca7ccd20251110130508" d="m 37.5,18.75 c 1.727,0 3.125,1.398 3.125,3.125 v 36.203 l 4.039,-4.039 c 1.129,-1.125 2.898,-1.211 4.125,-0.258 l 0.297,0.258 c 1.125,1.129 1.211,2.899 0.258,4.125 l -0.258,0.297 -9.375,9.375 c -1.129,1.125 -2.899,1.211 -4.125,0.258 l -0.297,-0.258 -9.375,-9.375 c -1.219,-1.223 -1.219,-3.199 0,-4.422 1.129,-1.125 2.898,-1.211 4.125,-0.258 l 0.297,0.258 4.039,4.039 V 21.875 c 0,-1.727 1.398,-3.125 3.125,-3.125 z m 0,-12.5 c 8.629,0 15.625,6.996 15.625,15.625 0,6.406 -3.855,11.914 -9.375,14.324 l 0.004,-5.347 c 2.832,-1.977 4.684,-5.262 4.684,-8.977 0,-6.039 -4.899,-10.937 -10.938,-10.937 -6.039,0 -10.938,4.898 -10.938,10.937 0,3.719 1.856,7 4.688,8.977 v 5.347 C 25.73,33.789 21.875,28.281 21.875,21.875 21.875,13.246 28.871,6.25 37.5,6.25 Z" style="fill:currentColor;fill-opacity:1;fill-rule:nonzero;stroke:none" transform="scale(1.3333333)" /> </g>
</svg>

