<?xml version="1.0" encoding="UTF-8" standalone="no"?> <svg version="1.1" id="If8c48ff07a86470489140005230af28620251106144521" width="100" height="100" viewBox="0 0 100 100" xmlns="http://www.w3.org/2000/svg" xmlns:svg="http://www.w3.org/2000/svg"> <defs id="I25926c9fd72048d9bd9c4ee7bd45bfcb20251106144521" /> <g id="Ideedad6bfd3b49d0a7cc9f788b7f27ed20251106144521"> <path id="I6770c8c94804443f8fc64541e6838a4c20251106144521" d="m 19.531,9.375 c -5.609,0 -10.156,4.547 -10.156,10.156 v 35.938 c 0,5.609 4.547,10.156 10.156,10.156 h 35.938 c 5.609,0 10.156,-4.547 10.156,-10.156 V 19.531 C 65.625,13.922 61.078,9.375 55.469,9.375 Z M 50.875,30.562 35.25,46.188 c -0.914,0.914 -2.398,0.914 -3.312,0 l -6.262,-6.262 c -0.918,-0.914 -0.918,-2.399 0,-3.313 0.914,-0.918 2.398,-0.918 3.312,0 l 4.606,4.602 13.968,-13.965 c 0.915,-0.918 2.399,-0.918 3.313,0 0.914,0.914 0.914,2.398 0,3.312 z" style="fill:currentColor;fill-opacity:1;fill-rule:nonzero;stroke:none" transform="scale(1.3333333)" /> </g>
</svg>

