<?xml version="1.0" encoding="UTF-8" standalone="no"?> <svg version="1.1" id="I45c28c3ed9b847278d71e78dfd1fa58920251106155157" width="100" height="100" viewBox="0 0 100 100" xmlns="http://www.w3.org/2000/svg" xmlns:svg="http://www.w3.org/2000/svg"> <defs id="I3f96c495de18422c90c4800c028ab48620251106155157" /> <g id="I86497ca8453140e0bede5639b1d7e2ee20251106155157"> <path id="I5648cfd4841b4d3cb47846863588469c20251106155157" d="m 41.426,52.754 0.742,-4.688 h 4.629 l -0.742,4.688 z M 55.469,6.25 c 3.722,0 6.765,2.891 7.015,6.551 l 0.016,0.48 v 48.43 c 0,3.723 -2.891,6.769 -6.551,7.016 l -0.48,0.015 H 19.531 c -3.722,0 -6.769,-2.89 -7.015,-6.547 L 12.5,61.711 v -48.43 c 0,-3.722 2.891,-6.769 6.551,-7.015 L 19.531,6.25 Z M 44.984,59.508 c -0.203,1.277 0.672,2.48 1.95,2.68 1.277,0.203 2.48,-0.668 2.683,-1.946 l 0.442,-2.801 h 2.285 c 1.293,0 2.344,-1.046 2.344,-2.343 0,-1.293 -1.051,-2.344 -2.344,-2.344 h -1.543 l 0.742,-4.688 h 2.363 c 1.293,0 2.344,-1.046 2.344,-2.343 0,-1.293 -1.051,-2.344 -2.344,-2.344 h -1.621 l 0.508,-3.199 c 0.203,-1.282 -0.672,-2.481 -1.949,-2.684 -1.278,-0.203 -2.481,0.672 -2.68,1.949 l -0.625,3.934 H 42.91 l 0.508,-3.199 c 0.203,-1.282 -0.672,-2.481 -1.949,-2.684 -1.278,-0.203 -2.481,0.672 -2.68,1.949 l -0.625,3.934 h -3.008 c -1.293,0 -2.344,1.051 -2.344,2.344 0,1.297 1.051,2.343 2.344,2.343 h 2.266 l -0.742,4.688 h -3.086 c -1.293,0 -2.344,1.051 -2.344,2.344 0,1.297 1.051,2.343 2.344,2.343 h 2.344 l -0.329,2.067 c -0.203,1.277 0.672,2.48 1.95,2.68 1.277,0.203 2.48,-0.668 2.683,-1.946 l 0.442,-2.801 h 4.628 z" style="fill:currentColor;fill-opacity:1;fill-rule:nonzero;stroke:none" transform="scale(1.3333333)" /> </g>
</svg>

