<?xml version="1.0" encoding="UTF-8" standalone="no"?> <svg version="1.1" id="Id24fbd32b965443496db8a48081b8bdc20251106112235" width="100" height="100" viewBox="0 0 100 100" xmlns="http://www.w3.org/2000/svg" xmlns:svg="http://www.w3.org/2000/svg"> <defs id="Id3115a6ae17d43dbb91193f69c504a7720251106112235" /> <g id="If0ecd2ba87414bba93d161b1a06432bb20251106112235"> <path id="Ibe501eca491b4963bf6b7e2b81c74df020251106112235" d="M 64.285,20.758 H 52.902 v -1.34 C 52.902,10.914 46.004,4.02 37.5,4.02 c -8.504,0 -15.402,6.894 -15.402,15.398 v 1.34 H 10.715 c -1.481,0 -2.68,1.199 -2.68,2.68 v 44.867 c 0,1.48 1.199,2.675 2.68,2.675 h 53.57 c 1.481,0 2.68,-1.195 2.68,-2.675 V 23.438 c 0,-1.481 -1.199,-2.68 -2.68,-2.68 z m -36.16,-1.34 c 0,-5.18 4.195,-9.375 9.375,-9.375 5.18,0 9.375,4.195 9.375,9.375 v 1.34 H 28.125 Z M 60.938,64.957 H 14.062 V 26.785 h 8.036 v 7.367 c 0,0.368 0.3,0.668 0.672,0.668 h 4.687 c 0.367,0 0.668,-0.3 0.668,-0.668 v -7.367 h 18.75 v 7.367 c 0,0.368 0.301,0.668 0.668,0.668 h 4.687 c 0.372,0 0.672,-0.3 0.672,-0.668 v -7.367 h 8.036 z" style="fill:currentColor;fill-opacity:1;fill-rule:nonzero;stroke:none" transform="scale(1.3333333)" /> </g>
</svg>

