<?xml version="1.0" encoding="UTF-8" standalone="no"?> <svg version="1.1" id="I43c8a4a0393b4cc4bae6264aafd6925320251110130510" width="100" height="100" viewBox="0 0 100 100" xmlns="http://www.w3.org/2000/svg" xmlns:svg="http://www.w3.org/2000/svg"> <defs id="Idb82ac2fcd5445e7b808643d5cfd593f20251110130510" /> <g id="I5fef9515f9614651b59ed7f1c5d2ce2320251110130510"> <path id="I01e2c36060014ad48646be96baae894620251110130510" d="m 65.625,17.969 c 0,-4.746 -3.848,-8.594 -8.594,-8.594 H 17.969 c -4.746,0 -8.594,3.848 -8.594,8.594 v 39.062 c 0,4.746 3.848,8.594 8.594,8.594 h 19.597 c -2.019,-3.156 -3.191,-6.91 -3.191,-10.937 0,-0.528 0.02,-1.047 0.059,-1.563 h -13.34 c -1.293,0 -2.344,-1.051 -2.344,-2.344 0,-1.187 0.883,-2.168 2.027,-2.324 l 0.317,-0.019 h 14.261 c 0.957,-2.961 2.571,-5.622 4.676,-7.813 H 21.094 c -1.293,0 -2.344,-1.051 -2.344,-2.344 0,-1.187 0.883,-2.168 2.027,-2.324 l 0.317,-0.019 h 23.437 c 0.508,0 0.977,0.16 1.36,0.433 2.664,-1.277 5.644,-1.996 8.797,-1.996 4.027,0 7.781,1.172 10.937,3.191 z m -11.719,5.469 c 1.293,0 2.344,1.05 2.344,2.343 0,1.188 -0.883,2.168 -2.027,2.324 l -0.317,0.02 H 21.094 c -1.293,0 -2.344,-1.051 -2.344,-2.344 0,-1.187 0.883,-2.168 2.027,-2.324 l 0.317,-0.019 z m -14.844,25.402 1.399,1.344 c 2.555,2.457 2.555,6.55 0,9.007 l -1.399,1.344 c 0.629,1.793 1.536,3.445 2.665,4.906 l 1.882,-0.558 c 3.43,-1.012 7.008,1.055 7.848,4.531 l 0.539,2.234 c 0.875,0.149 1.774,0.227 2.692,0.227 0.917,0 1.816,-0.078 2.691,-0.227 l 0.539,-2.234 c 0.84,-3.476 4.418,-5.543 7.848,-4.531 l 1.882,0.558 c 1.129,-1.461 2.036,-3.113 2.664,-4.906 l -1.398,-1.344 c -2.555,-2.457 -2.555,-6.55 0,-9.007 l 1.398,-1.344 c -0.628,-1.793 -1.535,-3.445 -2.664,-4.906 l -1.882,0.558 c -3.43,1.012 -7.008,-1.054 -7.848,-4.531 L 57.379,37.727 C 56.504,37.578 55.605,37.5 54.688,37.5 c -0.918,0 -1.817,0.078 -2.692,0.227 l -0.539,2.234 c -0.84,3.477 -4.418,5.543 -7.848,4.531 l -1.882,-0.558 c -1.129,1.461 -2.036,3.113 -2.665,4.906 z m 15.626,10.535 c -2.5,0 -4.532,-2.098 -4.532,-4.687 0,-2.59 2.032,-4.688 4.532,-4.688 2.5,0 4.531,2.098 4.531,4.688 0,2.589 -2.031,4.687 -4.531,4.687 z" style="fill:currentColor;fill-opacity:1;fill-rule:nonzero;stroke:none" transform="scale(1.3333333)" /> </g>
</svg>

