<?xml version="1.0" encoding="UTF-8" standalone="no"?> <svg version="1.1" id="Ic1dbc329b109414f8fa33295c6e422e520251106151526" width="100" height="100" viewBox="0 0 100 100" xmlns="http://www.w3.org/2000/svg" xmlns:svg="http://www.w3.org/2000/svg"> <defs id="I69083531f63b4d6ba987c92cdae574ec20251106151526"> <linearGradient x1="6" y1="0.66666597" x2="18" y2="27.3333" gradientUnits="userSpaceOnUse" gradientTransform="scale(2.678571)" spreadMethod="pad" id="I415aadd2b6e24fa0a9dc5c03255cf93a20251106151526"> <stop style="stop-opacity:1;stop-color:#1ec8b0" offset="0" id="I59c175408b314dc499d709fb39a44d4720251106151526" /> <stop style="stop-opacity:1;stop-color:#2764e7" offset="1" id="Id4b35d26398d430ea37dac791ed88f0a20251106151526" /> </linearGradient> <linearGradient x1="13.0688" y1="8.3010197" x2="10.9089" y2="15.0941" gradientUnits="userSpaceOnUse" gradientTransform="scale(2.678571)" spreadMethod="pad" id="If6fd90dc069841a38058c0640d9da9a520251106151526"> <stop style="stop-opacity:1;stop-color:#fdfdfd" offset="0" id="I702dd73deb9b4e61bc128fae4d57686720251106151526" /> <stop style="stop-opacity:1;stop-color:#d1d1ff" offset="1" id="Ie85811cca52b4166928baf3528ab943120251106151526" /> </linearGradient> </defs> <g id="I6d1f7019d94143e39623a1720beab43e20251106151526"> <path id="Ia2855fe893f1479f9eb2e01cfc7ebc1b20251106151526" d="M 37.5,5.355 C 19.746,5.355 5.355,19.746 5.355,37.5 5.355,55.254 19.746,69.645 37.5,69.645 55.254,69.645 69.645,55.254 69.645,37.5 69.645,19.746 55.254,5.355 37.5,5.355 Z" transform="scale(1.3333333)" style="fill:url(#I415aadd2b6e24fa0a9dc5c03255cf93a20251106151526);stroke:none" /> <path id="Ic5920498eae74bc38a0fd32d903fd86320251106151526" d="m 37.48,20.488 c -0.132,-0.98 -0.972,-1.738 -1.988,-1.738 -1.109,0 -2.012,0.898 -2.012,2.008 v 18.75 l 0.02,0.273 c 0.133,0.981 0.973,1.739 1.992,1.739 h 13.391 l 0.273,-0.02 c 0.981,-0.133 1.739,-0.973 1.739,-1.992 0,-1.11 -0.903,-2.008 -2.012,-2.008 H 37.5 V 20.758 Z" transform="scale(1.3333333)" style="fill:url(#If6fd90dc069841a38058c0640d9da9a520251106151526);stroke:none" /> </g>
</svg>

