<?xml version="1.0" encoding="UTF-8" standalone="no"?> <svg version="1.1" id="If47a6faeb7fb4a2482e934190286217520251106152728" width="100" height="100" viewBox="0 0 100 100" xmlns="http://www.w3.org/2000/svg" xmlns:svg="http://www.w3.org/2000/svg"> <defs id="I32ad57235d55440d93bfd90d4573638a20251106152728" /> <g id="I96516a997c5f453ebed521ad4fbf607520251106152728"> <path id="Iac3a1e8551a3473cbacee750267954b420251106152728" d="m 72.32,20.09 c 0,9.617 -7.793,17.41 -17.41,17.41 -9.617,0 -17.41,-7.793 -17.41,-17.41 0,-9.617 7.793,-17.41 17.41,-17.41 9.617,0 17.41,7.793 17.41,17.41 z M 56.25,9.375 c 0,-0.738 -0.602,-1.34 -1.34,-1.34 -0.738,0 -1.34,0.602 -1.34,1.34 v 9.375 h -9.375 c -0.738,0 -1.34,0.602 -1.34,1.34 0,0.738 0.602,1.34 1.34,1.34 h 9.375 v 9.375 c 0,0.738 0.602,1.34 1.34,1.34 0.738,0 1.34,-0.602 1.34,-1.34 V 21.43 h 9.375 c 0.738,0 1.34,-0.602 1.34,-1.34 0,-0.738 -0.602,-1.34 -1.34,-1.34 H 56.25 Z M 54.91,40.18 c 5.82,0 11.063,-2.477 14.735,-6.434 v 12.461 c 0,5.547 -4.5,10.043 -10.047,10.043 H 43.684 L 26.18,68.879 c -3.102,2.238 -7.43,0.019 -7.43,-3.801 V 56.25 H 15.402 C 9.855,56.25 5.355,51.754 5.355,46.207 V 18.082 c 0,-5.551 4.5,-10.047 10.047,-10.047 H 38.84 c -2.524,3.36 -4.02,7.531 -4.02,12.055 0,11.094 8.996,20.09 20.09,20.09 z" style="fill:currentColor;fill-opacity:1;fill-rule:nonzero;stroke:none" transform="scale(1.3333333)" /> </g>
</svg>

