<?xml version="1.0" encoding="UTF-8" standalone="no"?> <svg version="1.1" id="I04834582f1ad4371a48db7b809f8f3bb20251110124419" width="100" height="100" viewBox="0 0 100 100" xmlns="http://www.w3.org/2000/svg" xmlns:svg="http://www.w3.org/2000/svg"> <defs id="Id1d9b4801f5e4c93984f6f6f1ff48cb820251110124419" /> <g id="Ib38471abe52d4bc294352a87854a55b920251110124419"> <path id="Idce7f3c90c8d403ead379800d398497120251110124419" d="m 37.5,10.938 c -0.281,0 -0.562,0.003 -0.84,0.011 -14.062,0.438 -25.367,11.805 -25.715,25.887 -0.004,0.219 -0.007,0.441 -0.007,0.664 0,0.277 0.003,0.555 0.011,0.828 0.203,6.543 2.766,12.488 6.871,17.012 0.758,0.836 1.571,1.629 2.434,2.363 4.484,3.832 10.258,6.195 16.582,6.352 0.219,0.004 0.441,0.007 0.664,0.007 1.777,0 3.512,-0.175 5.188,-0.503 1.269,-0.254 2.5,0.574 2.753,1.843 0.25,1.27 -0.574,2.5 -1.843,2.754 -1.977,0.391 -4.012,0.594 -6.098,0.594 -0.488,0 -0.977,-0.012 -1.457,-0.035 C 28.539,68.371 21.723,65.379 16.512,60.652 15.516,59.75 14.578,58.785 13.707,57.762 9.059,52.305 6.25,45.23 6.25,37.5 6.25,29.145 9.527,21.559 14.867,15.949 15.25,15.551 15.645,15.16 16.047,14.777 21.645,9.492 29.191,6.25 37.5,6.25 c 2.086,0 4.121,0.203 6.098,0.594 1.269,0.254 2.093,1.484 1.843,2.754 -0.253,1.269 -1.484,2.097 -2.753,1.843 -1.676,-0.328 -3.411,-0.503 -5.188,-0.503 z m 14.113,1.222 c 0.719,-1.078 2.176,-1.367 3.25,-0.644 3.41,2.281 6.34,5.214 8.621,8.621 0.719,1.074 0.434,2.531 -0.644,3.25 -1.074,0.718 -2.531,0.433 -3.25,-0.645 -1.942,-2.898 -4.434,-5.39 -7.332,-7.332 -1.078,-0.719 -1.363,-2.176 -0.645,-3.25 z m 13.789,17.399 c 1.27,-0.25 2.5,0.574 2.754,1.843 0.391,1.977 0.594,4.012 0.594,6.098 0,2.086 -0.203,4.121 -0.594,6.098 -0.254,1.269 -1.484,2.093 -2.754,1.843 -1.269,-0.253 -2.097,-1.484 -1.843,-2.753 0.328,-1.676 0.503,-3.411 0.503,-5.188 0,-1.777 -0.175,-3.512 -0.503,-5.188 -0.254,-1.269 0.574,-2.5 1.843,-2.753 z M 62.84,51.613 c 1.078,0.719 1.363,2.176 0.644,3.25 -2.281,3.41 -5.211,6.34 -8.621,8.621 -1.074,0.719 -2.531,0.434 -3.25,-0.644 -0.718,-1.074 -0.433,-2.531 0.645,-3.25 2.898,-1.942 5.39,-4.434 7.332,-7.332 0.719,-1.078 2.176,-1.363 3.25,-0.645 z M 33.922,25.484 c -2.602,-1.441 -5.797,0.442 -5.797,3.414 v 17.184 c 0,2.973 3.195,4.856 5.797,3.414 l 17.996,-9.957 c 0.746,-0.414 1.207,-1.199 1.207,-2.051 0,-0.851 -0.461,-1.633 -1.207,-2.047 z" style="fill:currentColor;fill-opacity:1;fill-rule:nonzero;stroke:none" transform="scale(1.3333333)" /> </g>
</svg>

