<?xml version="1.0" encoding="UTF-8" standalone="no"?> <svg version="1.1" id="I6855d2b69dff45dd8ebafb95e37e988d20251106154011" width="100" height="100" viewBox="0 0 100 100" xmlns="http://www.w3.org/2000/svg" xmlns:svg="http://www.w3.org/2000/svg"> <defs id="I63e66a5822a648b3828ec9b20f79ec9920251106154011" /> <g id="I042ab998b39449ea803725df7d687d6220251106154011"> <path id="Ic429d74821d54b91bc70ad58446bf2b320251106154011" d="M 57.027,9.375 C 53.148,9.375 50,12.523 50,16.402 v 18.516 c 1.504,-0.356 3.07,-0.543 4.684,-0.543 h 0.004 c 3.378,0 6.566,0.824 9.371,2.285 V 16.402 c 0,-3.879 -3.149,-7.027 -7.032,-7.027 z M 43.746,28.902 v 8.664 c -5.641,3.614 -9.375,9.93 -9.375,17.122 0,4.007 1.16,7.742 3.16,10.89 -0.265,0.031 -0.539,0.047 -0.816,0.047 -3.879,0 -7.027,-3.148 -7.027,-7.027 V 28.902 c 0,-3.879 3.148,-7.027 7.027,-7.027 3.883,0 7.031,3.148 7.031,7.027 z m -34.371,12.5 c 0,-3.879 3.148,-7.027 7.027,-7.027 3.883,0 7.032,3.148 7.032,7.027 v 17.196 c 0,3.879 -3.149,7.027 -7.032,7.027 -3.879,0 -7.027,-3.148 -7.027,-7.027 z m 62.5,13.286 C 71.875,45.195 64.18,37.5 54.688,37.5 45.195,37.5 37.5,45.195 37.5,54.688 c 0,9.492 7.695,17.187 17.188,17.187 9.492,0 17.187,-7.695 17.187,-17.187 z m -15.625,1.562 0.004,7.824 c 0,0.864 -0.699,1.563 -1.563,1.563 -0.863,0 -1.562,-0.699 -1.562,-1.563 L 53.125,56.25 h -7.828 c -0.859,0 -1.559,-0.699 -1.559,-1.562 0,-0.864 0.7,-1.563 1.559,-1.563 h 7.828 v -7.816 c 0,-0.864 0.699,-1.563 1.563,-1.563 0.863,0 1.562,0.699 1.562,1.563 v 7.816 h 7.801 c 0.863,0 1.562,0.699 1.562,1.563 0,0.863 -0.699,1.562 -1.562,1.562 z" style="fill:currentColor;fill-opacity:1;fill-rule:nonzero;stroke:none" transform="scale(1.3333333)" /> </g>
</svg>

