<?xml version="1.0" encoding="UTF-8" standalone="no"?> <svg version="1.1" id="I49021e5d554f49389662de6ce115553320251106152729" width="100" height="100" viewBox="0 0 100 100" xmlns="http://www.w3.org/2000/svg" xmlns:svg="http://www.w3.org/2000/svg"> <defs id="I2553d1a7634140b3ad2d8b9e0333609f20251106152729" /> <g id="Ifc1fadc1965948b5a47946087799f79920251106152729"> <path id="I47d7d87ee84b4011bd7ac6cf790308e720251106152729" d="m 21.094,14.062 c -5.176,0 -9.375,4.2 -9.375,9.376 v 2.945 c -4.098,1.445 -7.031,5.351 -7.031,9.945 v 10.547 c 0,4.367 2.988,8.039 7.031,9.078 v 4.985 c 0,1.292 1.051,2.343 2.343,2.343 1.293,0 2.344,-1.051 2.344,-2.343 V 56.25 h 42.188 v 4.688 c 0,1.292 1.051,2.343 2.344,2.343 1.292,0 2.343,-1.051 2.343,-2.343 v -4.985 c 4.043,-1.039 7.031,-4.711 7.031,-9.078 V 36.328 c 0,-4.594 -2.933,-8.5 -7.031,-9.945 v -2.945 c 0,-5.176 -4.199,-9.376 -9.375,-9.376 z m 39.844,37.5 H 14.062 c -2.589,0 -4.687,-2.097 -4.687,-4.687 V 36.328 c 0,-3.234 2.625,-5.859 5.859,-5.859 3.235,0 5.86,2.625 5.86,5.859 V 37.5 c 0,1.293 1.051,2.344 2.344,2.344 h 28.124 c 1.293,0 2.344,-1.051 2.344,-2.344 v -1.172 c 0,-3.234 2.625,-5.859 5.86,-5.859 3.234,0 5.859,2.625 5.859,5.859 v 10.547 c 0,2.59 -2.098,4.687 -4.687,4.687 z M 58.594,25.848 c -4.887,0.539 -8.77,4.422 -9.309,9.308 H 25.719 C 25.176,30.27 21.293,26.387 16.406,25.848 v -2.41 c 0,-2.59 2.098,-4.688 4.688,-4.688 h 32.812 c 2.59,0 4.688,2.098 4.688,4.688 z" style="fill:currentColor;fill-opacity:1;fill-rule:nonzero;stroke:none" transform="scale(1.3333333)" /> </g>
</svg>

