<?xml version="1.0" encoding="UTF-8" standalone="no"?> <svg version="1.1" id="I097b624fdac54b3bbd9788f3b03d8cca20251106165301" width="100" height="100" viewBox="0 0 100 100" xmlns="http://www.w3.org/2000/svg" xmlns:svg="http://www.w3.org/2000/svg"> <defs id="I71ddbcb18025478caa3fed571f2d5ab220251106165301" /> <g id="I85305547a0194b49b3d60c56a138909c20251106165301"> <path id="Ic49ec86602ca4573a4baa0f64771866320251106165301" d="m 39.117,16.586 c 6.969,-7.852 19.242,-7.824 26.176,0.059 6.062,6.89 5.754,17.296 -0.707,23.82 l -25.66,25.902 c -0.375,0.383 -0.891,0.598 -1.426,0.598 -0.535,0 -1.051,-0.215 -1.426,-0.598 L 10.414,40.461 C 3.953,33.941 3.645,23.535 9.707,16.645 16.641,8.762 28.914,8.734 35.883,16.59 l 1.617,1.82 z m 23.16,2.711 c -5.339,-6.07 -14.789,-6.09 -20.156,-0.043 l -3.117,3.516 c -0.383,0.429 -0.93,0.675 -1.504,0.675 -0.574,0 -1.121,-0.246 -1.504,-0.675 l -3.117,-3.516 c -5.367,-6.047 -14.817,-6.027 -20.156,0.043 -4.664,5.305 -4.43,13.32 0.543,18.34 L 37.5,62.102 61.734,37.637 c 4.973,-5.02 5.207,-13.035 0.543,-18.34 z" style="fill:currentColor;fill-opacity:1;fill-rule:nonzero;stroke:none" transform="scale(1.3333333)" /> </g>
</svg>

