<?xml version="1.0" encoding="UTF-8" standalone="no"?> <svg version="1.1" id="I65a8032e3ac644e795e96a6d88f475da20251106170411" width="100" height="100" viewBox="0 0 100 100" xmlns="http://www.w3.org/2000/svg" xmlns:svg="http://www.w3.org/2000/svg"> <defs id="I07654b8f58634a30a84c172c2561801620251106170411" /> <g id="I6680e586bdbe444288a8a3fba70f63fd20251106170411"> <path id="I934030d6598e46499548598b51bd605320251106170411" d="m 15.688,21.953 c -0.793,1.109 -2.239,1.598 -3.493,1.059 -1.476,-0.633 -2.086,-2.414 -1.175,-3.739 2.179,-3.16 4.914,-5.914 8.058,-8.117 1.317,-0.922 3.102,-0.324 3.746,1.149 0.547,1.25 0.071,2.699 -1.035,3.5 -2.351,1.703 -4.414,3.781 -6.101,6.148 z m -6.133,7.211 c 1.254,0.539 1.894,1.922 1.64,3.262 -0.316,1.644 -0.48,3.34 -0.48,5.074 0,1.734 0.164,3.43 0.48,5.074 0.254,1.34 -0.386,2.723 -1.64,3.262 C 8.078,46.469 6.367,45.684 6.039,44.109 5.59,41.977 5.355,39.766 5.355,37.5 c 0,-2.266 0.235,-4.477 0.684,-6.609 0.328,-1.575 2.039,-2.36 3.516,-1.727 z m 2.64,22.824 c 1.254,-0.539 2.7,-0.05 3.493,1.059 1.726,2.422 3.847,4.543 6.265,6.269 1.207,0.86 1.66,2.485 0.926,3.766 -0.734,1.289 -2.379,1.742 -3.598,0.902 -3.23,-2.226 -6.035,-5.027 -8.261,-8.257 -0.911,-1.325 -0.301,-3.106 1.175,-3.739 z m 37.617,15.211 c 0.36,-0.144 0.723,-0.301 1.086,-0.461 0.102,-0.043 0.196,-0.093 0.29,-0.148 1.675,-0.789 3.277,-1.723 4.781,-2.778 0.121,0.18 0.234,0.364 0.347,0.543 0.981,1.586 1.668,3.11 2.106,4.231 0.215,0.559 0.371,1.012 0.469,1.316 0.047,0.153 0.082,0.27 0.101,0.34 l 0.024,0.078 v 0.004 l 0.004,0.008 c 0.378,1.426 1.839,2.277 3.269,1.902 1.43,-0.379 2.285,-1.843 1.91,-3.273 L 64.195,68.957 V 68.953 L 64.191,68.938 64.18,68.895 c -0.012,-0.036 -0.024,-0.083 -0.039,-0.141 -0.036,-0.113 -0.082,-0.274 -0.145,-0.477 -0.129,-0.398 -0.32,-0.961 -0.582,-1.636 -0.527,-1.348 -1.348,-3.176 -2.543,-5.106 -0.238,-0.387 -0.496,-0.781 -0.769,-1.18 1.429,-1.414 2.73,-2.964 3.878,-4.628 0.911,-1.325 0.301,-3.106 -1.175,-3.739 -1.254,-0.539 -2.7,-0.05 -3.493,1.059 -0.816,1.148 -1.726,2.226 -2.71,3.23 -2.18,-2.023 -4.946,-3.765 -8.395,-4.632 -5.695,-1.465 -10.418,-0.864 -13.824,1.089 -3.371,1.934 -5.391,5.207 -5.301,8.606 0.09,3.547 2.457,6.57 6.438,7.715 3.371,0.972 7.785,0.609 13.152,-1.407 0.383,-0.14 0.766,-0.293 1.14,-0.449 z m -6.414,-3.508 c -2.906,0.7 -5.003,0.618 -6.394,0.219 -1.973,-0.57 -2.543,-1.734 -2.566,-2.707 -0.032,-1.121 0.656,-2.703 2.609,-3.82 1.922,-1.106 5.148,-1.754 9.828,-0.547 l 0.02,0.004 c 2.167,0.543 4,1.59 5.539,2.898 -2.559,1.723 -5.43,3.016 -8.512,3.774 -0.184,0.043 -0.356,0.105 -0.524,0.179 z M 65.445,45.836 c -1.254,-0.539 -1.894,-1.922 -1.64,-3.262 0.316,-1.644 0.48,-3.34 0.48,-5.074 0,-1.734 -0.164,-3.43 -0.48,-5.074 -0.254,-1.34 0.386,-2.723 1.64,-3.262 1.477,-0.633 3.188,0.152 3.516,1.727 0.449,2.132 0.684,4.343 0.684,6.609 0,2.266 -0.235,4.477 -0.684,6.609 -0.328,1.575 -2.039,2.36 -3.516,1.727 z m -2.64,-22.824 c -1.254,0.539 -2.7,0.05 -3.493,-1.059 -1.687,-2.367 -3.75,-4.445 -6.101,-6.148 -1.106,-0.801 -1.582,-2.25 -1.035,-3.5 0.644,-1.473 2.429,-2.071 3.746,-1.149 3.144,2.203 5.879,4.957 8.058,8.117 0.915,1.325 0.301,3.106 -1.175,3.739 z M 46.043,9.617 c -0.547,1.25 -1.934,1.883 -3.273,1.617 -1.704,-0.343 -3.465,-0.519 -5.27,-0.519 -1.805,0 -3.566,0.176 -5.27,0.519 C 30.895,11.5 29.504,10.867 28.957,9.617 28.312,8.145 29.086,6.43 30.656,6.086 32.863,5.609 35.152,5.355 37.5,5.355 c 2.348,0 4.641,0.254 6.844,0.731 1.57,0.344 2.344,2.059 1.699,3.531 z" style="fill:currentColor;fill-opacity:1;fill-rule:nonzero;stroke:none" transform="scale(1.3333333)" /> </g>
</svg>

