<?xml version="1.0" encoding="UTF-8" standalone="no"?> <svg version="1.1" id="I31bcd141636647eab4f14f5767548c2120251110124420" width="100" height="100" viewBox="0 0 100 100" xmlns="http://www.w3.org/2000/svg" xmlns:svg="http://www.w3.org/2000/svg"> <defs id="If09c7715529644c9955c1f5ab213d7dc20251110124420" /> <g id="I60eecabb9d5b4ee2941930281498d59320251110124420"> <path id="I1a1d9387eca64148824b75d84cb20c7420251110124420" d="m 54.688,37.5 c 9.492,0 17.187,7.695 17.187,17.188 0,9.492 -7.695,17.187 -17.187,17.187 C 45.195,71.875 37.5,64.18 37.5,54.688 37.5,45.195 45.195,37.5 54.688,37.5 Z m 0,6.246 -0.282,0.027 c -0.636,0.114 -1.14,0.618 -1.258,1.258 l -0.023,0.278 v 7.812 l -7.82,0.004 -0.282,0.023 c -0.636,0.118 -1.14,0.622 -1.253,1.258 l -0.028,0.282 0.028,0.281 c 0.113,0.636 0.617,1.14 1.253,1.258 l 0.282,0.023 7.824,-0.004 v 7.828 l 0.023,0.281 c 0.118,0.637 0.621,1.141 1.258,1.254 l 0.281,0.028 0.282,-0.028 c 0.636,-0.113 1.14,-0.617 1.254,-1.254 l 0.027,-0.281 v -7.828 l 7.824,0.004 0.281,-0.023 c 0.637,-0.118 1.141,-0.622 1.254,-1.258 l 0.028,-0.281 -0.028,-0.282 C 65.5,53.77 64.996,53.266 64.359,53.148 L 64.078,53.125 56.25,53.121 v -7.812 l -0.023,-0.278 c -0.118,-0.64 -0.622,-1.144 -1.258,-1.258 z m -20.254,12.5 c 0.125,1.625 0.437,3.195 0.921,4.692 h -13.48 c -1.293,0 -2.344,-1.051 -2.344,-2.344 0,-1.188 0.883,-2.168 2.028,-2.324 l 0.316,-0.02 z m 1.496,-9.371 c -0.618,1.484 -1.063,3.055 -1.317,4.687 H 12.5 c -1.293,0 -2.344,-1.05 -2.344,-2.343 0,-1.188 0.883,-2.168 2.028,-2.324 L 12.5,46.875 Z M 43.859,37.5 c -1.988,1.254 -3.742,2.844 -5.183,4.688 H 21.875 c -1.293,0 -2.344,-1.051 -2.344,-2.344 0,-1.188 0.883,-2.168 2.028,-2.324 L 21.875,37.5 Z M 18.75,15.625 c 3.531,0 6.66,2.148 7.965,5.363 0.488,1.2 -0.09,2.567 -1.289,3.055 -1.102,0.445 -2.34,-0.004 -2.914,-1.004 L 22.371,22.75 c -0.594,-1.461 -2.016,-2.438 -3.621,-2.438 -2.156,0 -3.906,1.75 -3.906,3.907 0,2.156 1.75,3.906 3.906,3.906 h 35.938 c 1.292,0 2.343,1.051 2.343,2.344 0,1.187 -0.883,2.168 -2.027,2.324 l -0.316,0.019 H 18.75 c -4.746,0 -8.594,-3.847 -8.594,-8.593 0,-4.746 3.848,-8.594 8.594,-8.594 z M 62.5,18.75 c 1.293,0 2.344,1.051 2.344,2.344 0,1.187 -0.883,2.168 -2.028,2.324 L 62.5,23.438 H 34.375 c -1.293,0 -2.344,-1.051 -2.344,-2.344 0,-1.188 0.883,-2.168 2.028,-2.324 l 0.316,-0.02 z" style="fill:currentColor;fill-opacity:1;fill-rule:nonzero;stroke:none" transform="scale(1.3333333)" /> </g>
</svg>

