<?xml version="1.0" encoding="UTF-8" standalone="no"?> <svg version="1.1" id="I890d794d7f3d4adbb49c16f02df75dbb20251110124420" width="100" height="100" viewBox="0 0 100 100" xmlns="http://www.w3.org/2000/svg" xmlns:svg="http://www.w3.org/2000/svg"> <defs id="I800df48fe2df438e95f4b28818c2bd1820251110124420" /> <g id="Iafe7b6cf98344ad28ed27496bfee5ddd20251110124420"> <path id="Ic699db393fe04b7cb4a506afa36e6bd820251110124420" d="m 14.062,19.531 c 0,-3.019 2.45,-5.469 5.469,-5.469 h 4.688 c 1.293,0 2.343,-1.05 2.343,-2.343 0,-1.293 -1.05,-2.344 -2.343,-2.344 h -4.688 c -5.609,0 -10.156,4.547 -10.156,10.156 v 4.688 c 0,1.293 1.051,2.343 2.344,2.343 1.293,0 2.343,-1.05 2.343,-2.343 z m 41.407,-5.469 c 3.019,0 5.469,2.45 5.469,5.469 v 4.688 c 0,1.293 1.05,2.343 2.343,2.343 1.293,0 2.344,-1.05 2.344,-2.343 v -4.688 c 0,-5.609 -4.547,-10.156 -10.156,-10.156 h -4.688 c -1.293,0 -2.343,1.051 -2.343,2.344 0,1.293 1.05,2.343 2.343,2.343 z m 0,46.876 c 3.019,0 5.469,-2.45 5.469,-5.469 v -4.688 c 0,-1.293 1.05,-2.343 2.343,-2.343 1.293,0 2.344,1.05 2.344,2.343 v 4.688 c 0,5.609 -4.547,10.156 -10.156,10.156 h -4.688 c -1.293,0 -2.343,-1.051 -2.343,-2.344 0,-1.293 1.05,-2.343 2.343,-2.343 z m -35.938,0 c -3.019,0 -5.469,-2.45 -5.469,-5.469 v -4.688 c 0,-1.293 -1.05,-2.343 -2.343,-2.343 -1.293,0 -2.344,1.05 -2.344,2.343 v 4.688 c 0,5.609 4.547,10.156 10.156,10.156 h 4.688 c 1.293,0 2.343,-1.051 2.343,-2.344 0,-1.293 -1.05,-2.343 -2.343,-2.343 z m 6.25,-42.188 c -3.883,0 -7.031,3.148 -7.031,7.031 v 23.438 c 0,3.883 3.148,7.031 7.031,7.031 h 23.438 c 3.883,0 7.031,-3.148 7.031,-7.031 V 25.781 c 0,-3.883 -3.148,-7.031 -7.031,-7.031 z" style="fill:currentColor;fill-opacity:1;fill-rule:nonzero;stroke:none" transform="scale(1.3333333)" /> </g>
</svg>

