<?xml version="1.0" encoding="UTF-8" standalone="no"?> <svg version="1.1" id="I3e59051bea9642848fc344d36cf2ce9d20251106165302" width="100" height="100" viewBox="0 0 100 100" xmlns="http://www.w3.org/2000/svg" xmlns:svg="http://www.w3.org/2000/svg"> <defs id="I700fb2e0a85b47c7bb55a069e7492f0220251106165302" /> <g id="If71914459b7f45a28da80790e99ee7a020251106165302"> <path id="I75d1cb4c309a45638293cea0aafd66f620251106165302" d="m 56.918,8.035 c 5.551,0 10.047,4.496 10.047,10.047 v 38.836 c 0,5.551 -4.496,10.047 -10.047,10.047 H 18.082 C 12.531,66.965 8.035,62.469 8.035,56.918 V 36.156 c 1.238,0.93 2.586,1.715 4.02,2.344 v 18.418 c 0,0.969 0.226,1.883 0.633,2.695 L 33.754,39.02 c 2.082,-2.036 5.406,-2.036 7.488,0 l 21.07,20.593 c 0.407,-0.812 0.633,-1.726 0.633,-2.695 V 18.082 c 0,-3.332 -2.699,-6.027 -6.027,-6.027 H 38.5 C 37.875,10.621 37.09,9.273 36.16,8.035 Z m -18.48,33.86 c -0.524,-0.508 -1.352,-0.508 -1.876,0 L 15.578,62.402 c 0.762,0.348 1.61,0.543 2.504,0.543 h 38.836 c 0.894,0 1.742,-0.195 2.504,-0.543 z M 20.09,2.68 c 9.617,0 17.41,7.793 17.41,17.41 0,9.617 -7.793,17.41 -17.41,17.41 -9.617,0 -17.41,-7.793 -17.41,-17.41 0,-9.617 7.793,-17.41 17.41,-17.41 z m -7.945,28.195 c 2.222,1.641 4.972,2.605 7.945,2.605 7.394,0 13.39,-5.996 13.39,-13.39 0,-2.973 -0.964,-5.723 -2.605,-7.945 z M 20.09,6.695 c -7.399,0 -13.395,5.996 -13.395,13.395 0,2.972 0.969,5.722 2.61,7.945 L 28.035,9.305 C 25.812,7.664 23.062,6.695 20.09,6.695 Z M 49.555,20.09 c 3.695,0 6.695,2.996 6.695,6.695 0,3.699 -3,6.695 -6.695,6.695 -3.7,0 -6.7,-2.996 -6.7,-6.695 0,-3.699 3,-6.695 6.7,-6.695 z m 0,4.015 c -1.481,0 -2.68,1.2 -2.68,2.68 0,1.481 1.199,2.68 2.68,2.68 1.476,0 2.675,-1.199 2.675,-2.68 0,-1.48 -1.199,-2.68 -2.675,-2.68 z" style="fill:currentColor;fill-opacity:1;fill-rule:nonzero;stroke:none" transform="scale(1.3333333)" /> </g>
</svg>

