<?xml version="1.0" encoding="UTF-8" standalone="no"?> <svg version="1.1" id="I58953fc6c03547a295762a9603751b1620251106170412" width="100" height="100" viewBox="0 0 100 100" xmlns="http://www.w3.org/2000/svg" xmlns:svg="http://www.w3.org/2000/svg"> <defs id="Ieb2559fb55934194a6621e5d86cdd53920251106170412"> <linearGradient x1="4.5090399" y1="3" x2="10.0513" y2="31.671499" gradientUnits="userSpaceOnUse" gradientTransform="scale(2.678571)" spreadMethod="pad" id="Id2939807a48f4ba48ae16c6c16664e4720251106170412"> <stop style="stop-opacity:1;stop-color:#43e5ca" offset="0" id="I7a588b9e119647bab2849c79d048518320251106170412" /> <stop style="stop-opacity:1;stop-color:#2764e7" offset="1" id="I6b1e75990a4d4acb9ef0a7b87f8ea6c620251106170412" /> </linearGradient> <linearGradient x1="4.5090399" y1="3" x2="10.0513" y2="31.671499" gradientUnits="userSpaceOnUse" gradientTransform="scale(2.678571)" spreadMethod="pad" id="I8b6a7a0a388748f4bf52a1aae769e34720251106170412"> <stop style="stop-opacity:1;stop-color:#43e5ca" offset="0" id="I4ab8b16f68204658a3d3c4bb2094a0c020251106170412" /> <stop style="stop-opacity:1;stop-color:#2764e7" offset="1" id="If80dc80af9a04404bdeb07e4e95f3a6420251106170412" /> </linearGradient> <linearGradient x1="4.5090399" y1="3" x2="10.0513" y2="31.671499" gradientUnits="userSpaceOnUse" gradientTransform="scale(2.678571)" spreadMethod="pad" id="I608e707afd6040188951004f55e779b220251106170412"> <stop style="stop-opacity:1;stop-color:#43e5ca" offset="0" id="Ie9ecc04fe2694cdbb0fddc3c833a9eb820251106170412" /> <stop style="stop-opacity:1;stop-color:#2764e7" offset="1" id="I8593b530cee24bebaaa9c50f87ce78a320251106170412" /> </linearGradient> <linearGradient x1="16.865999" y1="2.26967" x2="24.873501" y2="4.4314098" gradientUnits="userSpaceOnUse" gradientTransform="scale(2.678571)" spreadMethod="pad" id="I1cb9eb1933024adbade48e0f2801491320251106170412"> <stop style="stop-opacity:1;stop-color:#9ff0f9" offset="0" id="Ia0a927b31f7a485b95cb41f10b58aab720251106170412" /> <stop style="stop-opacity:1;stop-color:#6ce0ff" offset="1" id="I872fe382f398446ca924bb8bc29efc0420251106170412" /> </linearGradient> <linearGradient x1="16.865999" y1="2.26967" x2="24.873501" y2="4.4314098" gradientUnits="userSpaceOnUse" gradientTransform="scale(2.678571)" spreadMethod="pad" id="If775f90052fa4dc19118f78c8360547b20251106170412"> <stop style="stop-opacity:1;stop-color:#9ff0f9" offset="0" id="I1a3dc15dea40416ab9581571eaa028d620251106170412" /> <stop style="stop-opacity:1;stop-color:#6ce0ff" offset="1" id="Ia71b9eeddabe4658ba452ffd912bb73520251106170412" /> </linearGradient> <linearGradient x1="16.865999" y1="2.26967" x2="24.873501" y2="4.4314098" gradientUnits="userSpaceOnUse" gradientTransform="scale(2.678571)" spreadMethod="pad" id="Ic4e96fa26de74ff0bafe6568a3dac4ca20251106170412"> <stop style="stop-opacity:1;stop-color:#9ff0f9" offset="0" id="I652e6a636f9d4937bf8fab2f5c89efff20251106170412" /> <stop style="stop-opacity:1;stop-color:#6ce0ff" offset="1" id="I565c96325fae49959ff235b498cda47f20251106170412" /> </linearGradient> </defs> <g id="If5569ce0b648459490a63e49a791ff9b20251106170412"> <path id="Ib899c076fbe94456badf215bfcf9b2b420251106170412" d="m 21.402,13.395 c 0,-2.957 -2.402,-5.36 -5.359,-5.36 h -5.328 c -2.957,0 -5.356,2.403 -5.356,5.36 v 48.21 c 0,2.957 2.399,5.36 5.356,5.36 h 5.328 c 2.957,0 5.359,-2.403 5.359,-5.36 z" transform="scale(1.3333333)" style="fill:url(#Id2939807a48f4ba48ae16c6c16664e4720251106170412);stroke:none" /> <path id="If4d21caa45274e188279b8304e41d03220251106170412" d="M 59.117,17.527 69.457,59 c 0.715,2.867 -1.035,5.777 -3.902,6.492 l -5.258,1.313 C 57.426,67.52 54.516,65.773 53.801,62.902 L 43.465,21.43 c -0.719,-2.871 1.031,-5.778 3.898,-6.496 l 5.258,-1.309 c 2.867,-0.719 5.777,1.031 6.496,3.902 z" transform="scale(1.3333333)" style="fill:url(#I8b6a7a0a388748f4bf52a1aae769e34720251106170412);stroke:none" /> <path id="I847225c8194e493689b4c25156595bbc20251106170412" d="m 34.793,8.035 c 2.957,0 5.359,2.403 5.359,5.36 v 48.21 c 0,2.957 -2.402,5.36 -5.359,5.36 h -5.328 c -2.957,0 -5.356,-2.403 -5.356,-5.36 v -48.21 c 0,-2.957 2.399,-5.36 5.356,-5.36 z" transform="scale(1.3333333)" style="fill:url(#I608e707afd6040188951004f55e779b220251106170412);stroke:none" /> <path id="I11a007776d344f5f9c62844b01db5a7620251106170412" d="m 5.355,18.75 h 16.074 v 5.355 H 5.355 Z" transform="scale(1.3333333)" style="fill:url(#I1cb9eb1933024adbade48e0f2801491320251106170412);stroke:none" /> <path id="I3ee645295521435ca4bc661d76ed778820251106170412" d="m 24.105,18.75 h 16.074 v 5.355 H 24.105 Z" transform="scale(1.3333333)" style="fill:url(#If775f90052fa4dc19118f78c8360547b20251106170412);stroke:none" /> <path id="I6fbb5f52c24e4dadb0bb10985cfc42af20251106170412" d="m 45.176,28.305 15.574,-4.219 1.305,5.23 -15.582,4.192 z" transform="scale(1.3333333)" style="fill:url(#Ic4e96fa26de74ff0bafe6568a3dac4ca20251106170412);stroke:none" /> </g>
</svg>

