<?xml version="1.0" encoding="UTF-8" standalone="no"?> <svg version="1.1" id="Ifc44be2e1181441e86c1dd9f3b79e3c620251106165302" width="100" height="100" viewBox="0 0 100 100" xmlns="http://www.w3.org/2000/svg" xmlns:svg="http://www.w3.org/2000/svg"> <defs id="Id0bf5d62cf2448b68583deec329d4f1420251106165302" /> <g id="I2e82565d779541859ec7a96a6527da2720251106165302"> <path id="I628787beae744efdbd8393bccabc060120251106165302" d="m 12.07,16.094 c -2.425,1.539 -4.035,4.254 -4.035,7.344 v 28.124 c 0,7.766 6.297,14.063 14.063,14.063 h 28.125 c 3.089,0 5.804,-1.609 7.351,-4.039 l -0.328,0.016 -0.328,0.003 h -34.82 c -5.547,0 -10.043,-4.496 -10.043,-10.043 v -34.82 c 0,-0.219 0.004,-0.433 0.015,-0.648 z m 26.953,21.804 -0.25,0.207 -19.898,19.536 c 1.328,0.816 2.891,1.289 4.563,1.289 h 33.48 c 1.676,0 3.238,-0.473 4.562,-1.289 L 41.586,38.105 41.363,37.914 c -0.609,-0.441 -1.41,-0.504 -2.066,-0.18 z M 23.438,8.035 c -4.809,0 -8.708,3.899 -8.708,8.707 v 33.481 c 0,1.679 0.477,3.25 1.301,4.578 l 19.926,-19.563 0.344,-0.312 c 2.23,-1.879 5.5,-1.883 7.738,-0.016 l 0.363,0.328 19.922,19.563 c 0.824,-1.328 1.301,-2.899 1.301,-4.578 V 16.742 c 0,-4.808 -3.898,-8.707 -8.707,-8.707 z m 6.027,11.383 c 1.847,0 3.347,1.5 3.347,3.348 0,1.847 -1.5,3.347 -3.347,3.347 -1.848,0 -3.344,-1.5 -3.344,-3.347 0,-1.848 1.496,-3.348 3.344,-3.348 z" style="fill:currentColor;fill-opacity:1;fill-rule:nonzero;stroke:none" transform="scale(1.3333333)" /> </g>
</svg>

