<?xml version="1.0" encoding="UTF-8" standalone="no"?> <svg version="1.1" id="I291af81709e0413b9327ed006c520e2a20251106164749" width="100" height="100" viewBox="0 0 100 100" xmlns="http://www.w3.org/2000/svg" xmlns:svg="http://www.w3.org/2000/svg"> <defs id="I4ec7978c2ac841fe8f6e7655df4608f720251106164749" /> <g id="Iab3ddfa00fc44d3e8da54180be2e986620251106164749"> <path id="Ibe49a238a89343f8b353019eaa3d23ca20251106164749" d="m 26.242,35.109 c 1.27,-0.254 2.094,-1.488 1.84,-2.757 -0.254,-1.27 -1.488,-2.094 -2.758,-1.84 -2.824,0.566 -4.957,2.535 -6.09,5.183 -1.125,2.621 -1.289,5.895 -0.414,9.403 0.313,1.254 1.586,2.019 2.844,1.707 1.254,-0.317 2.02,-1.586 1.703,-2.844 -0.683,-2.742 -0.461,-4.938 0.176,-6.418 0.621,-1.453 1.617,-2.219 2.699,-2.434 z M 17.098,10.684 c -0.254,4.332 1.218,8.757 4.429,12.132 -5.867,1.688 -10.535,6.68 -11.437,13.176 -1.028,7.36 0.484,14.852 4.289,21.238 l 1.094,1.84 c 0.043,0.071 0.086,0.137 0.132,0.2 l 4.426,5.96 c 3.989,5.372 11.848,5.872 16.485,1.047 0.539,-0.558 1.429,-0.558 1.968,0 4.637,4.825 12.496,4.325 16.485,-1.047 l 4.426,-5.96 c 0.046,-0.063 0.089,-0.129 0.132,-0.2 l 1.094,-1.84 C 64.426,50.844 65.938,43.352 64.91,35.992 63.633,26.832 54.879,20.66 45.82,22.535 l -5.941,1.235 h -0.012 c 0.094,-2.438 0.477,-5.067 1.223,-7.309 0.906,-2.711 2.164,-4.344 3.562,-4.926 1.196,-0.496 1.758,-1.867 1.262,-3.062 -0.5,-1.196 -1.871,-1.762 -3.066,-1.262 -3.289,1.371 -5.157,4.621 -6.203,7.769 -0.051,0.145 -0.098,0.293 -0.145,0.442 C 35.75,13.973 34.77,12.609 33.551,11.395 30.137,7.98 25.578,6.406 21.113,6.668 18.949,6.797 17.227,8.52 17.098,10.684 Z m 4.664,0.648 c 3.062,-0.082 6.14,1.043 8.476,3.375 2.332,2.332 3.457,5.414 3.375,8.473 -0.566,0.015 -1.136,-0.008 -1.699,-0.075 l -1.926,-0.402 c -1.777,-0.527 -3.449,-1.496 -4.851,-2.898 -2.332,-2.332 -3.457,-5.41 -3.375,-8.473 z m 6.465,15.793 0.632,0.133 c 0.75,0.211 1.512,0.371 2.282,0.472 l 3.031,0.629 c 2.195,0.453 4.461,0.453 6.656,0 l 5.945,-1.234 c 6.403,-1.324 12.594,3.039 13.497,9.516 0.878,6.304 -0.418,12.722 -3.676,18.191 l -1.035,1.738 -4.352,5.864 c -2.262,3.043 -6.715,3.328 -9.344,0.593 -2.383,-2.476 -6.343,-2.476 -8.726,0 -2.629,2.735 -7.082,2.45 -9.344,-0.593 L 19.441,56.57 18.406,54.832 C 15.148,49.363 13.852,42.945 14.73,36.641 c 0.903,-6.477 7.094,-10.84 13.497,-9.516 z" style="fill:currentColor;fill-opacity:1;fill-rule:nonzero;stroke:none" transform="scale(1.3333333)" /> </g>
</svg>

