<?xml version="1.0" encoding="UTF-8" standalone="no"?> <svg version="1.1" id="Ibddd3c8613fa48dd80f69683fea61aa720251106152729" width="100" height="100" viewBox="0 0 100 100" xmlns="http://www.w3.org/2000/svg" xmlns:svg="http://www.w3.org/2000/svg"> <defs id="Ied6b4b70ab59448e8fd00cef66b02b7920251106152729" /> <g id="I4818f007dc914db9940c6219cead4e6d20251106152729"> <path id="Ia8834a3315464e989711f743230a5b4f20251106152729" d="m 48.742,19.422 c 1.774,-0.895 3.867,-0.895 5.641,0 l 10.937,5.527 c 2.102,1.067 3.43,3.223 3.43,5.578 V 44.48 c 0,2.36 -1.328,4.516 -3.43,5.579 l -10.937,5.527 c -1.774,0.898 -3.867,0.898 -5.641,0 L 37.805,50.059 C 35.703,48.996 34.375,46.84 34.375,44.48 V 30.527 c 0,-2.355 1.328,-4.511 3.43,-5.578 z m -6.301,13.094 c -0.586,1.152 -0.125,2.566 1.028,3.152 l 5.75,2.926 v 5.945 c 0,1.297 1.051,2.344 2.343,2.344 1.297,0 2.344,-1.047 2.344,-2.344 v -5.945 l 5.75,-2.926 c 1.156,-0.586 1.614,-2 1.028,-3.152 -0.586,-1.153 -2,-1.614 -3.153,-1.024 l -5.969,3.035 -5.968,-3.035 c -1.153,-0.59 -2.563,-0.129 -3.153,1.024 z M 14.844,21.859 c -1.293,0 -2.344,1.051 -2.344,2.344 0,1.293 1.051,2.344 2.344,2.344 h 14.062 c 1.293,0 2.344,-1.051 2.344,-2.344 0,-1.293 -1.051,-2.344 -2.344,-2.344 z m -6.25,12.5 c -1.293,0 -2.344,1.051 -2.344,2.344 0,1.293 1.051,2.344 2.344,2.344 H 22.656 C 23.949,39.047 25,37.996 25,36.703 25,35.41 23.949,34.359 22.656,34.359 Z M 12.5,49.203 c 0,-1.293 1.051,-2.344 2.344,-2.344 h 14.062 c 1.293,0 2.344,1.051 2.344,2.344 0,1.293 -1.051,2.344 -2.344,2.344 H 14.844 c -1.293,0 -2.344,-1.051 -2.344,-2.344 z" style="fill:currentColor;fill-opacity:1;fill-rule:nonzero;stroke:none" transform="scale(1.3333333)" /> </g>
</svg>

