<?xml version="1.0" encoding="UTF-8" standalone="no"?> <svg version="1.1" id="I052fcc65792343248deefce39b0c4ccd20251106143238" width="100" height="100" viewBox="0 0 100 100" xmlns="http://www.w3.org/2000/svg" xmlns:svg="http://www.w3.org/2000/svg"> <defs id="I432009c4cacb499c8c63f46ed1304efc20251106143238" /> <g id="I474db785a7144c6b9f2f3829795b751420251106143238"> <path id="I5fc13c5456ba40439dd80beeda7ed69f20251106143238" d="m 65.625,18.75 c 0,-5.176 -4.195,-9.375 -9.375,-9.375 h -37.5 c -5.176,0 -9.375,4.199 -9.375,9.375 v 37.5 c 0,5.18 4.199,9.375 9.375,9.375 h 18.816 c -0.925,-1.449 -1.671,-3.02 -2.211,-4.687 H 18.75 c -2.59,0 -4.688,-2.098 -4.688,-4.688 V 26.562 h 46.876 v 8.793 c 1.667,0.54 3.238,1.286 4.687,2.211 z M 18.75,14.062 h 37.5 c 2.59,0 4.688,2.098 4.688,4.688 v 3.125 H 14.062 V 18.75 c 0,-2.59 2.098,-4.688 4.688,-4.688 z M 71.875,54.688 C 71.875,45.195 64.18,37.5 54.688,37.5 45.195,37.5 37.5,45.195 37.5,54.688 c 0,9.492 7.695,17.187 17.188,17.187 9.492,0 17.187,-7.695 17.187,-17.187 z M 55.145,47.98 c -0.61,-0.609 -0.61,-1.601 0,-2.21 0.609,-0.61 1.601,-0.61 2.21,0 l 7.813,7.812 c 0.609,0.609 0.609,1.602 0,2.211 l -7.813,7.812 c -0.609,0.61 -1.601,0.61 -2.21,0 -0.61,-0.609 -0.61,-1.601 0,-2.21 L 60.289,56.25 H 45.312 c -0.863,0 -1.562,-0.699 -1.562,-1.562 0,-0.864 0.699,-1.563 1.562,-1.563 h 14.977 z" style="fill:currentColor;fill-opacity:1;fill-rule:nonzero;stroke:none" transform="scale(1.3333333)" /> </g>
</svg>

