<?xml version="1.0" encoding="UTF-8" standalone="no"?> <svg version="1.1" id="I736c4998c6ea41d48faa193d96ce21d520251110135155" width="100" height="100" viewBox="0 0 100 100" xmlns="http://www.w3.org/2000/svg" xmlns:svg="http://www.w3.org/2000/svg"> <defs id="Ia062b27e84fe4503bcbdf41e81ef64ba20251110135155" /> <g id="Ifce21b56262f448a97c79f3409a16d4620251110135155"> <path id="I1fd264129ac64639b8ccd5d7f2e044eb20251110135155" d="m 55.469,45.312 c 3.883,0 7.031,3.149 7.031,7.032 v 9.375 c 0,3.883 -3.148,7.031 -7.031,7.031 H 16.406 c -3.883,0 -7.031,-3.148 -7.031,-7.031 v -9.375 c 0,-3.883 3.148,-7.032 7.031,-7.032 z M 22.039,37.406 33.77,7.73 c 0.734,-1.859 3.257,-1.968 4.203,-0.324 l 0.156,0.328 11.707,29.688 c 0.476,1.207 -0.117,2.566 -1.32,3.043 -1.102,0.433 -2.34,-0.027 -2.903,-1.035 L 45.477,39.141 42.363,31.25 H 29.508 l -3.11,7.879 C 25.961,40.23 24.781,40.82 23.66,40.543 L 23.355,40.445 C 22.254,40.008 21.664,38.828 21.941,37.707 L 22.039,37.406 33.77,7.73 Z M 35.945,14.977 31.363,26.562 h 9.149 z" style="fill:currentColor;fill-opacity:1;fill-rule:nonzero;stroke:none" transform="scale(1.3333333)" /> </g>
</svg>

