<?xml version="1.0" encoding="UTF-8" standalone="no"?> <svg version="1.1" id="I0a7fea78333e4ca3af43ac99ec8dfec820251110124422" width="100" height="100" viewBox="0 0 100 100" xmlns="http://www.w3.org/2000/svg" xmlns:svg="http://www.w3.org/2000/svg"> <defs id="Ic700ac4e864340289d25eff722c9afb920251110124422" /> <g id="I9e72781dabcb4370b71a3e3d224054bd20251110124422"> <path id="Ia94bbb569da34544837d85a87def49d720251110124422" d="m 41.805,9.457 c 4.383,0.234 8.66,1.492 12.543,3.731 13.457,7.773 18.066,24.98 10.297,38.437 -7.77,13.457 -24.977,18.07 -38.434,10.301 -3.668,-2.117 -6.75,-4.981 -9.102,-8.391 -0.785,-1.14 -0.277,-2.719 1.028,-3.183 10.597,-3.793 16.273,-8.192 19.57,-14.477 3.465,-6.621 4.363,-13.871 1.938,-23.813 -0.336,-1.374 0.75,-2.683 2.16,-2.605 z m -7.45,1.957 0.02,0.309 v 16.402 c 0,3.449 -2.797,6.25 -6.25,6.25 -3.453,0 -6.25,-2.801 -6.25,-6.25 0,-3.453 2.797,-6.25 6.25,-6.25 0.539,0 1.066,0.066 1.566,0.195 L 29.688,14.887 18.75,18.215 V 31.25 c 0,3.449 -2.797,6.25 -6.25,6.25 -3.453,0 -6.25,-2.801 -6.25,-6.25 0,-3.453 2.797,-6.25 6.25,-6.25 0.539,0 1.066,0.066 1.566,0.195 l -0.004,-8.718 c 0,-0.918 0.532,-1.739 1.344,-2.122 L 15.723,14.234 31.348,9.48 c 1.406,-0.425 2.824,0.528 3.007,1.934 z" style="fill:currentColor;fill-opacity:1;fill-rule:nonzero;stroke:none" transform="scale(1.3333333)" /> </g>
</svg>

