<?xml version="1.0" encoding="UTF-8" standalone="no"?> <svg version="1.1" id="I84ee7416181b49dd86ab1ac387a3212b20251106143238" width="100" height="100" viewBox="0 0 100 100" xmlns="http://www.w3.org/2000/svg" xmlns:svg="http://www.w3.org/2000/svg"> <defs id="Ia9ce90f172c24ce1b8aef62238b04ef820251106143238" /> <g id="I69af5dd14b464e76a4b521565bc6eac720251106143238"> <path id="I0ce3e9ecc76c4111ab8dd402e683a42b20251106143238" d="m 41.805,8.035 -4.067,1.336 c -0.855,0.289 -1.597,0.844 -2.117,1.582 -0.242,0.34 -0.433,0.711 -0.57,1.102 H 16.742 c -2.59,0 -4.687,2.097 -4.687,4.687 v 4.696 h 32.957 c 0.195,0.335 0.351,0.691 0.468,1.062 l 0.965,2.953 h -34.39 v 32.805 c 0,2.59 2.097,4.687 4.687,4.687 h 41.516 c 2.59,0 4.687,-2.097 4.687,-4.687 V 39.926 c 0.426,0.168 0.879,0.254 1.336,0.254 0.758,0 1.5,-0.235 2.117,-0.672 0.207,-0.145 0.399,-0.309 0.567,-0.492 v 19.242 c 0,4.808 -3.899,8.707 -8.707,8.707 H 16.742 c -4.808,0 -8.707,-3.899 -8.707,-8.707 V 16.742 c 0,-4.808 3.899,-8.707 8.707,-8.707 z m 6.328,26.035 c 0.785,-0.785 2.058,-0.785 2.84,0 0.785,0.785 0.785,2.059 0,2.84 L 34.902,52.984 c -0.785,0.782 -2.054,0.782 -2.84,0 l -8.035,-8.039 c -0.785,-0.781 -0.785,-2.054 0,-2.84 0.735,-0.734 1.899,-0.781 2.688,-0.136 l 0.152,0.136 6.613,6.618 z M 64.234,21.43 c 0.204,0 0.399,0.062 0.563,0.175 0.164,0.118 0.289,0.282 0.355,0.473 l 0.801,2.457 c 0.246,0.75 0.668,1.426 1.227,1.985 0.554,0.554 1.238,0.976 1.984,1.222 l 2.461,0.801 0.047,0.012 c 0.191,0.066 0.355,0.191 0.473,0.355 0.113,0.164 0.175,0.36 0.175,0.559 0,0.203 -0.058,0.398 -0.175,0.562 -0.118,0.164 -0.282,0.285 -0.473,0.356 l -2.461,0.797 c -0.746,0.25 -1.426,0.668 -1.984,1.226 -0.555,0.555 -0.977,1.235 -1.227,1.981 l -0.797,2.461 c -0.07,0.187 -0.191,0.355 -0.355,0.468 -0.164,0.118 -0.36,0.18 -0.563,0.18 -0.199,0 -0.398,-0.062 -0.562,-0.18 -0.164,-0.113 -0.285,-0.281 -0.352,-0.468 L 62.57,34.391 c -0.246,-0.746 -0.668,-1.43 -1.226,-1.989 -0.555,-0.558 -1.235,-0.98 -1.985,-1.23 l -2.461,-0.797 c -0.187,-0.066 -0.355,-0.191 -0.468,-0.355 -0.118,-0.165 -0.18,-0.36 -0.18,-0.563 0,-0.199 0.062,-0.395 0.18,-0.559 0.113,-0.164 0.281,-0.289 0.468,-0.355 l 2.461,-0.801 c 0.739,-0.254 1.411,-0.676 1.957,-1.234 0.547,-0.555 0.961,-1.231 1.204,-1.973 l 0.8,-2.457 c 0.067,-0.191 0.192,-0.355 0.356,-0.473 0.164,-0.113 0.359,-0.175 0.558,-0.175 z M 50.812,0 c 0.336,0 0.661,0.105 0.934,0.297 0.274,0.195 0.481,0.469 0.594,0.785 l 1.332,4.094 c 0.414,1.246 1.113,2.379 2.043,3.308 0.93,0.926 2.062,1.629 3.308,2.043 l 4.098,1.328 0.086,0.02 c 0.313,0.113 0.586,0.32 0.781,0.594 0.192,0.273 0.297,0.601 0.297,0.933 0,0.336 -0.105,0.66 -0.297,0.934 -0.195,0.273 -0.468,0.48 -0.781,0.594 l -4.102,1.328 c -1.25,0.418 -2.382,1.117 -3.312,2.043 -0.926,0.929 -1.625,2.062 -2.039,3.308 l -1.332,4.098 c -0.012,0.031 -0.027,0.066 -0.039,0.102 -0.117,0.269 -0.309,0.507 -0.555,0.679 -0.273,0.192 -0.601,0.297 -0.933,0.297 -0.336,0 -0.665,-0.105 -0.938,-0.297 -0.273,-0.195 -0.48,-0.468 -0.59,-0.781 L 48.035,21.609 C 47.734,20.695 47.277,19.84 46.691,19.086 46.477,18.809 46.242,18.539 45.992,18.289 45.066,17.359 43.93,16.656 42.684,16.242 L 38.582,14.91 C 38.266,14.797 37.992,14.59 37.797,14.316 37.605,14.043 37.5,13.719 37.5,13.383 c 0,-0.336 0.105,-0.66 0.297,-0.934 0.195,-0.273 0.469,-0.48 0.785,-0.594 l 4.102,-1.328 c 1.23,-0.425 2.347,-1.132 3.261,-2.058 0.887,-0.903 1.563,-1.992 1.973,-3.192 l 0.031,-0.101 1.336,-4.094 c 0.11,-0.316 0.317,-0.59 0.59,-0.785 C 50.148,0.105 50.477,0 50.812,0 Z" style="fill:currentColor;fill-opacity:1;fill-rule:nonzero;stroke:none" transform="scale(1.3333333)" /> </g>
</svg>

