<?xml version="1.0" encoding="UTF-8" standalone="no"?> <svg version="1.1" id="I93cbf164a8594ba796c859c6bf9edce120251106105132" width="100" height="100" viewBox="0 0 100 100" xmlns="http://www.w3.org/2000/svg" xmlns:svg="http://www.w3.org/2000/svg"> <defs id="I3e495a4062954d9183bb992f2906649020251106105132" /> <g id="I139777d740ba43c1bb94553dd127f24c20251106105132"> <path id="I2bc3b25fc4e14186aa86dbbed5ed6fbd20251106105132" d="m 37.836,50.977 c 0,0.367 0.285,0.668 0.625,0.668 h 15.488 c 0.344,0 0.625,-0.301 0.625,-0.668 v -4.02 c 0,-0.367 -0.281,-0.668 -0.625,-0.668 H 38.461 c -0.34,0 -0.625,0.301 -0.625,0.668 z M 21.52,51.488 37.594,38.012 c 0.316,-0.27 0.316,-0.762 0,-1.032 L 21.52,23.512 c -0.434,-0.367 -1.098,-0.059 -1.094,0.511 v 5.25 c 0,0.2 0.082,0.383 0.242,0.508 l 9.191,7.719 -9.191,7.719 c -0.152,0.125 -0.242,0.312 -0.242,0.508 v 5.25 c 0,0.57 0.66,0.878 1.094,0.511 z M 68.305,4.02 H 6.695 C 5.215,4.02 4.02,5.215 4.02,6.695 v 61.61 c 0,1.48 1.195,2.675 2.675,2.675 h 61.61 c 1.48,0 2.675,-1.195 2.675,-2.675 V 6.695 C 70.98,5.215 69.785,4.02 68.305,4.02 Z M 64.957,64.957 H 10.043 V 10.043 h 54.914 z" style="fill:currentColor;fill-opacity:1;fill-rule:nonzero;stroke:none" transform="scale(1.3333333)" /> </g>
</svg>

