<?xml version="1.0" encoding="UTF-8" standalone="no"?> <svg version="1.1" id="I73892f2845c64d57b6ecdbe0628174a220251106170955" width="100" height="100" viewBox="0 0 100 100" xmlns="http://www.w3.org/2000/svg" xmlns:svg="http://www.w3.org/2000/svg"> <defs id="Icf35145bf9fa4e94a85e10511f7eaee120251106170955" /> <g id="Iac9aea209f164d968b18b5b056c3985820251106170955"> <path id="I6a2ffb56c9814d75b6a46f6b3f0ccdf520251106170955" d="m 56.062,15.191 c 10.25,10.258 10.25,26.883 0,37.141 l -4.23,4.176 -9.133,8.89 c -2.738,2.649 -6.992,2.793 -9.898,0.438 l -0.496,-0.441 -7.664,-7.442 -5.703,-5.621 c -10.25,-10.258 -10.25,-26.883 0,-37.141 10.253,-10.253 26.871,-10.253 37.124,0 z m -2.644,2.645 c -8.789,-8.797 -23.047,-8.797 -31.836,0 -8.566,8.57 -8.785,22.328 -0.66,31.164 l 0.66,0.688 2.141,2.124 11.179,10.899 0.348,0.297 c 1.328,1.004 3.172,1.004 4.5,0 l 0.348,-0.297 8.367,-8.133 4.953,-4.89 0.66,-0.688 c 8.125,-8.836 7.906,-22.594 -0.66,-31.164 z m -16.469,5.988 c 0.735,-0.73 0.735,-1.918 0,-2.648 -0.73,-0.735 -1.918,-0.735 -2.648,0 l -9.375,9.375 c -0.352,0.351 -0.551,0.828 -0.551,1.324 0,0.496 0.199,0.973 0.551,1.324 l 9.375,9.375 c 0.73,0.735 1.918,0.735 2.648,0 0.735,-0.73 0.735,-1.918 0,-2.648 L 30.777,33.75 H 48.75 c 1.035,0 1.875,-0.84 1.875,-1.875 C 50.625,30.84 49.785,30 48.75,30 H 30.777 Z" style="fill:currentColor;fill-opacity:1;fill-rule:nonzero;stroke:none" transform="scale(1.3333333)" /> </g>
</svg>

