<?xml version="1.0" encoding="UTF-8" standalone="no"?> <svg version="1.1" id="Id7dda0f7a50345f2971a9153f6e47cad20251110124420" width="100" height="100" viewBox="0 0 100 100" xmlns="http://www.w3.org/2000/svg" xmlns:svg="http://www.w3.org/2000/svg"> <defs id="Ia105875244364259b6ff04a01c7c915020251110124420" /> <g id="I3ee5c91cf38b4b648470b8ddbc74207220251110124420"> <path id="Id6e234c01be74411b842c3f4191dd69020251110124420" d="m 16.406,9.375 c -3.883,0 -7.031,3.148 -7.031,7.031 v 42.188 c 0,3.883 3.148,7.031 7.031,7.031 h 42.188 c 3.883,0 7.031,-3.148 7.031,-7.031 V 16.406 c 0,-3.883 -3.148,-7.031 -7.031,-7.031 z m 2.344,11.719 c 0,-1.293 1.051,-2.344 2.344,-2.344 h 7.812 c 1.293,0 2.344,1.051 2.344,2.344 0,1.293 -1.051,2.344 -2.344,2.344 h -2.152 l 5.371,5.374 c 0.918,0.915 0.918,2.399 0,3.313 -0.914,0.918 -2.398,0.918 -3.313,0 l -5.374,-5.371 v 2.156 c 0,1.293 -1.051,2.344 -2.344,2.344 -1.293,0 -2.344,-1.051 -2.344,-2.344 z m 36.816,34.472 c -0.441,0.442 -1.035,0.688 -1.66,0.688 h -7.812 c -1.293,0 -2.344,-1.051 -2.344,-2.344 0,-1.293 1.051,-2.344 2.344,-2.344 h 2.156 l -5.375,-5.378 c -0.918,-0.915 -0.918,-2.399 0,-3.313 0.914,-0.918 2.398,-0.918 3.313,0 l 5.374,5.375 v -2.156 c 0,-1.293 1.051,-2.344 2.344,-2.344 1.297,0 2.344,1.051 2.344,2.344 v 7.816 c 0,0.621 -0.246,1.219 -0.684,1.656 z M 56.25,21.094 v 7.812 c 0,1.297 -1.047,2.344 -2.344,2.344 -1.293,0 -2.344,-1.047 -2.344,-2.344 v -2.152 l -5.374,5.371 c -0.915,0.918 -2.399,0.918 -3.313,0 -0.918,-0.914 -0.918,-2.398 0,-3.313 l 5.371,-5.374 H 46.09 c -1.293,0 -2.344,-1.047 -2.344,-2.344 0,-1.293 1.051,-2.344 2.344,-2.344 h 7.816 c 0.625,0 1.219,0.25 1.66,0.688 0.438,0.441 0.684,1.035 0.684,1.656 z M 19.438,55.566 C 18.996,55.125 18.75,54.531 18.75,53.906 v -7.812 c 0,-1.293 1.051,-2.344 2.344,-2.344 1.293,0 2.344,1.051 2.344,2.344 v 2.156 l 5.374,-5.375 c 0.915,-0.918 2.399,-0.918 3.313,0 0.918,0.914 0.918,2.398 0,3.313 l -5.375,5.374 h 2.16 c 1.293,0 2.344,1.051 2.344,2.344 0,1.297 -1.051,2.344 -2.344,2.344 h -7.816 c -0.621,0 -1.219,-0.246 -1.656,-0.684 z" style="fill:currentColor;fill-opacity:1;fill-rule:nonzero;stroke:none" transform="scale(1.3333333)" /> </g>
</svg>

