<?xml version="1.0" encoding="UTF-8" standalone="no"?> <svg version="1.1" id="If42b1eaa645e454c9d85f51ea05a144520251110123030" width="100" height="100" viewBox="0 0 100 100" xmlns="http://www.w3.org/2000/svg" xmlns:svg="http://www.w3.org/2000/svg"> <defs id="I88a0d227cf014906aabf010d65630cab20251110123030" /> <g id="I7c4bbc39535e4445a59d866dd029b7ed20251110123030"> <path id="I623b973b2c614cdaa082786594b86b9920251110123030" d="m 33.598,6.738 c 2.328,-1.691 5.48,-1.691 7.808,0 L 66.02,24.641 c 2.324,1.691 3.296,4.683 2.41,7.418 l -9.403,28.968 c -0.89,2.739 -3.437,4.594 -6.316,4.594 H 22.293 c -2.875,0 -5.426,-1.855 -6.316,-4.594 L 6.574,32.059 C 5.688,29.324 6.66,26.332 8.984,24.641 Z m 5.511,3.16 c -0.957,-0.699 -2.257,-0.699 -3.214,0 L 11.281,27.797 c -0.957,0.699 -1.355,1.93 -0.992,3.058 l 9.402,28.969 c 0.368,1.125 1.418,1.891 2.602,1.891 h 30.418 c 1.184,0 2.234,-0.766 2.601,-1.891 l 9.403,-28.969 c 0.363,-1.128 -0.035,-2.359 -0.992,-3.058 z" style="fill:currentColor;fill-opacity:1;fill-rule:nonzero;stroke:none" transform="scale(1.3333333)" /> </g>
</svg>

