<?xml version="1.0" encoding="UTF-8" standalone="no"?> <svg version="1.1" id="I781b3b6183524a67818f931bc10bb5b420251106125938" width="100" height="100" viewBox="0 0 100 100" xmlns="http://www.w3.org/2000/svg" xmlns:svg="http://www.w3.org/2000/svg"> <defs id="Ia9a055d184be4d3e87d6be3032100fbe20251106125938" /> <g id="Ida3305455c544790947ac94abe4dd3cc20251106125938"> <path id="I8dc3a9d014f4491c9f69099544ac501920251106125938" d="M 43.523,5.867 C 42.699,5.129 41.426,5.199 40.688,6.027 39.949,6.852 40.02,8.125 40.844,8.863 l 8.07,7.219 C 48.68,16.074 48.441,16.07 48.207,16.07 H 26.785 c -11.836,0 -21.43,9.594 -21.43,21.43 h 0.012 c 0,4.934 1.668,9.48 4.473,13.105 v -0.003 c 0.367,0.453 0.933,0.746 1.566,0.746 1.11,0 2.008,-0.899 2.008,-2.008 0,-0.418 -0.129,-0.805 -0.344,-1.125 L 13.066,48.207 C 13.023,48.145 12.973,48.082 12.922,48.023 10.703,45.102 9.383,41.453 9.383,37.5 H 9.375 c 0,-9.617 7.797,-17.41 17.41,-17.41 h 21.422 c 0.695,0 1.383,0.039 2.059,0.121 l -9.422,8.426 c -0.824,0.738 -0.895,2.011 -0.156,2.836 0.738,0.828 2.011,0.898 2.835,0.16 L 56.246,20.246 c 0.426,-0.379 0.672,-0.926 0.672,-1.496 0,-0.57 -0.246,-1.117 -0.672,-1.496 z M 65.625,37.5 h -0.008 c 0,-3.953 -1.32,-7.602 -3.543,-10.523 -0.047,-0.059 -0.097,-0.122 -0.14,-0.184 L 61.93,26.785 c -0.219,-0.32 -0.344,-0.707 -0.344,-1.125 0,-1.109 0.898,-2.008 2.008,-2.008 0.633,0 1.199,0.293 1.566,0.746 v -0.003 c 2.805,3.625 4.473,8.171 4.473,13.105 h 0.012 c 0,11.836 -9.594,21.43 -21.43,21.43 H 26.793 c -0.223,0 -0.445,-0.004 -0.668,-0.012 l 8.07,7.219 c 0.825,0.738 0.895,2.011 0.157,2.836 -0.739,0.828 -2.012,0.898 -2.836,0.16 L 18.793,57.746 c -0.426,-0.379 -0.672,-0.926 -0.672,-1.496 0,-0.57 0.246,-1.117 0.672,-1.496 L 31.516,43.367 c 0.824,-0.738 2.097,-0.668 2.836,0.16 0.738,0.825 0.668,2.098 -0.157,2.836 l -9.425,8.43 c 0.664,0.078 1.339,0.117 2.023,0.117 h 21.422 c 9.613,0 17.41,-7.793 17.41,-17.41 z" style="fill:currentColor;fill-opacity:1;fill-rule:nonzero;stroke:none" transform="scale(1.3333333)" /> </g>
</svg>

