<?xml version="1.0" encoding="UTF-8" standalone="no"?> <svg version="1.1" id="I16a7771087dc48659e2c05c36509303420251106164749" width="100" height="100" viewBox="0 0 100 100" xmlns="http://www.w3.org/2000/svg" xmlns:svg="http://www.w3.org/2000/svg"> <defs id="I4e8d80c629154bc7850949ca10cf9a3f20251106164749" /> <g id="I53a58c0180d34dad9b0b522472df6fe520251106164749"> <path id="I03b4337b5bf247fe83611c87bd9c976520251106164749" d="m 25.402,9.375 c 1.864,0 3.653,0.742 4.973,2.059 l 5.75,5.754 h 22.469 c 5.609,0 10.156,4.546 10.156,10.156 v 28.125 c 0,5.347 -4.133,9.722 -9.375,10.121 v 4.363 l -0.039,0.387 c -0.156,0.75 -0.746,1.34 -1.496,1.496 l -0.387,0.039 H 42.547 c -0.93,0 -1.703,-0.66 -1.883,-1.535 L 40.625,69.953 V 65.625 H 16.406 C 10.797,65.625 6.25,61.078 6.25,55.469 V 19.531 C 6.25,13.922 10.797,9.375 16.406,9.375 Z M 50,51.562 c -2.59,0 -4.688,2.098 -4.688,4.688 v 10.938 h 9.376 V 56.25 C 54.688,53.66 52.59,51.562 50,51.562 Z M 30.375,27.629 c -1.32,1.316 -3.109,2.059 -4.973,2.059 H 10.938 v 25.781 c 0,3.019 2.449,5.469 5.468,5.469 H 40.625 V 56.25 c 0,-3.262 1.668,-6.133 4.195,-7.812 h -1.851 c -1.293,0 -2.344,-1.051 -2.344,-2.344 0,-1.293 1.051,-2.344 2.344,-2.344 H 50 v 3.125 c 5.18,0 9.375,4.195 9.375,9.375 v 4.625 c 2.648,-0.383 4.687,-2.652 4.687,-5.406 V 27.344 c 0,-3.02 -2.449,-5.469 -5.468,-5.469 H 36.125 Z m 26.656,11.433 c 1.293,0 2.344,1.051 2.344,2.344 0,1.293 -1.051,2.344 -2.344,2.344 H 50 v -4.688 z m -7.031,0 h -7.031 c -1.293,0 -2.344,-1.05 -2.344,-2.343 0,-1.293 1.051,-2.344 2.344,-2.344 H 50 Z m 7.031,-9.374 c 1.293,0 2.344,1.05 2.344,2.343 0,1.293 -1.051,2.344 -2.344,2.344 H 50 v -4.687 z m -7.031,0 h -7.031 c -1.293,0 -2.344,-1.051 -2.344,-2.344 0,-1.293 1.051,-2.344 2.344,-2.344 L 50,25 Z M 16.406,14.062 c -3.019,0 -5.468,2.45 -5.468,5.469 V 25 h 14.464 c 0.621,0 1.219,-0.246 1.657,-0.688 l 4.785,-4.781 -4.785,-4.781 c -0.438,-0.441 -1.036,-0.688 -1.657,-0.688 z" style="fill:currentColor;fill-opacity:1;fill-rule:nonzero;stroke:none" transform="scale(1.3333333)" /> </g>
</svg>

