<?xml version="1.0" encoding="UTF-8" standalone="no"?> <svg version="1.1" id="Ifda7cbb6c32648e08ab5a98df517827120251106143238" width="100" height="100" viewBox="0 0 100 100" xmlns="http://www.w3.org/2000/svg" xmlns:svg="http://www.w3.org/2000/svg"> <defs id="I919a46b2b69e4b27a18070bc0f328c5320251106143238" /> <g id="Ia70968a2ea1c46ef86988d19ff89347120251106143238"> <path id="Ib1f2142eee6f491480e1b0ec1569a70920251106143238" d="m 54.688,37.5 c 9.492,0 17.187,7.695 17.187,17.188 0,9.492 -7.695,17.187 -17.187,17.187 C 45.195,71.875 37.5,64.18 37.5,54.688 37.5,45.195 45.195,37.5 54.688,37.5 Z M 55.469,9.375 c 5.609,0 10.156,4.547 10.156,10.156 L 65.629,37.57 C 64.18,36.645 62.605,35.895 60.938,35.355 V 26.562 H 14.062 v 28.907 c 0,3.019 2.45,5.469 5.469,5.469 h 15.824 c 0.54,1.667 1.29,3.242 2.215,4.691 L 19.531,65.625 C 13.922,65.625 9.375,61.078 9.375,55.469 V 19.531 c 0,-5.609 4.547,-10.156 10.156,-10.156 z m -0.781,34.375 -0.282,0.023 c -0.636,0.118 -1.14,0.622 -1.258,1.258 l -0.023,0.281 v 7.813 h -7.813 l -0.281,0.023 c -0.636,0.118 -1.14,0.622 -1.258,1.258 l -0.023,0.282 0.023,0.281 c 0.118,0.636 0.622,1.14 1.258,1.258 l 0.281,0.023 h 7.813 v 7.812 l 0.023,0.282 c 0.118,0.636 0.622,1.14 1.258,1.258 l 0.282,0.023 0.281,-0.023 c 0.636,-0.118 1.14,-0.622 1.258,-1.258 L 56.25,64.062 V 56.25 h 7.812 l 0.282,-0.023 c 0.636,-0.118 1.14,-0.622 1.258,-1.258 l 0.023,-0.281 -0.023,-0.282 C 65.484,53.77 64.98,53.266 64.344,53.148 L 64.062,53.125 H 56.25 v -7.813 l -0.023,-0.281 c -0.118,-0.636 -0.622,-1.14 -1.258,-1.258 z M 55.469,14.062 H 19.531 c -3.019,0 -5.469,2.45 -5.469,5.469 v 2.344 h 46.876 v -2.344 c 0,-3.019 -2.45,-5.469 -5.469,-5.469 z" style="fill:currentColor;fill-opacity:1;fill-rule:nonzero;stroke:none" transform="scale(1.3333333)" /> </g>
</svg>

