<?xml version="1.0" encoding="UTF-8" standalone="no"?> <svg version="1.1" id="Ic49dd271b8034e3dbe401012edeac17220251110130510" width="100" height="100" viewBox="0 0 100 100" xmlns="http://www.w3.org/2000/svg" xmlns:svg="http://www.w3.org/2000/svg"> <defs id="Ia3e643333d87431594dce9822e6e67a220251110130510" /> <g id="Iedb28c6630244a93a67680af2db8ccac20251110130510"> <path id="Ic1c7d2c999c240cea8180f3c97eaa9aa20251110130510" d="m 59.375,16.918 v 48.707 c 0,1.727 -1.398,3.125 -3.125,3.125 -1.727,0 -3.125,-1.398 -3.125,-3.125 V 16.918 l -0.914,0.918 c -1.223,1.219 -3.199,1.219 -4.422,0 -1.219,-1.223 -1.219,-3.199 0,-4.422 l 6.25,-6.25 c 1.223,-1.219 3.199,-1.219 4.422,0 l 6.25,6.25 c 1.219,1.223 1.219,3.199 0,4.422 -1.223,1.219 -3.199,1.219 -4.422,0 z m -43.75,41.164 -0.914,-0.918 c -1.223,-1.219 -3.199,-1.219 -4.422,0 -1.219,1.223 -1.219,3.199 0,4.422 l 6.25,6.25 c 1.223,1.219 3.199,1.219 4.422,0 l 6.25,-6.25 c 1.219,-1.223 1.219,-3.199 0,-4.422 -1.223,-1.219 -3.199,-1.219 -4.422,0 l -0.914,0.918 V 9.375 c 0,-1.727 -1.398,-3.125 -3.125,-3.125 -1.727,0 -3.125,1.398 -3.125,3.125 z m 25,-48.707 c 0,-1.727 -1.398,-3.125 -3.125,-3.125 -1.727,0 -3.125,1.398 -3.125,3.125 v 56.25 c 0,1.727 1.398,3.125 3.125,3.125 1.727,0 3.125,-1.398 3.125,-3.125 z" style="fill:currentColor;fill-opacity:1;fill-rule:nonzero;stroke:none" transform="scale(1.3333333)" /> </g>
</svg>

