<?xml version="1.0" encoding="UTF-8" standalone="no"?> <svg version="1.1" id="Idacf077112624945bac1c376394c20a220251106112458" width="100" height="100" viewBox="0 0 100 100" xmlns="http://www.w3.org/2000/svg" xmlns:svg="http://www.w3.org/2000/svg"> <defs id="I56a5ec1c34924ae8b4700f220b63899320251106112458" /> <g id="I4a6feb57022c47eeab750c699f49ec3420251106112458"> <path id="I39b8a75aaf9648c8bc8cca53703251cd20251106112458" d="m 58.176,22.684 c 0,-11.469 -9.293,-20.758 -20.758,-20.758 -11.469,0 -20.762,9.289 -20.762,20.758 0,6.929 3.399,13.074 8.621,16.843 -0.031,0.016 -0.058,0.024 -0.074,0.032 -3.742,1.582 -7.098,3.851 -9.984,6.746 -2.871,2.867 -5.157,6.265 -6.731,10.004 -1.547,3.66 -2.383,7.586 -2.461,11.558 -0.011,0.379 0.293,0.688 0.668,0.688 h 5.016 c 0.359,0 0.66,-0.293 0.668,-0.653 0.168,-6.461 2.754,-12.515 7.332,-17.101 4.73,-4.746 11.008,-7.36 17.707,-7.36 11.465,0 20.758,-9.289 20.758,-20.757 z M 37.418,37.082 c -7.953,0 -14.398,-6.445 -14.398,-14.398 0,-7.954 6.445,-14.399 14.398,-14.399 7.949,0 14.394,6.445 14.394,14.399 0,7.953 -6.445,14.398 -14.394,14.398 z m 8.789,18.5 h 22.098 c 0.367,0 0.668,-0.305 0.668,-0.672 v -4.687 c 0,-0.368 -0.301,-0.668 -0.668,-0.668 H 53.531 l 3.949,-5.032 c 0.09,-0.117 0.141,-0.261 0.141,-0.41 0,-0.367 -0.301,-0.672 -0.668,-0.672 h -6.078 c -0.41,0 -0.793,0.196 -1.055,0.512 l -5.734,7.293 c -0.367,0.469 -0.566,1.055 -0.566,1.656 0.007,1.481 1.203,2.68 2.687,2.68 z m 20.086,5.356 H 44.195 c -0.367,0 -0.668,0.3 -0.668,0.667 v 4.688 c 0,0.371 0.301,0.672 0.668,0.672 h 14.774 l -3.949,5.031 c -0.09,0.117 -0.141,0.262 -0.141,0.41 0,0.367 0.301,0.668 0.668,0.668 h 6.078 c 0.41,0 0.793,-0.191 1.055,-0.512 l 5.734,-7.289 c 0.367,-0.468 0.566,-1.054 0.566,-1.656 -0.007,-1.484 -1.203,-2.679 -2.687,-2.679 z" style="fill:currentColor;fill-opacity:1;fill-rule:nonzero;stroke:none" transform="scale(1.3333333)" /> </g>
</svg>

