<?xml version="1.0" encoding="UTF-8" standalone="no"?> <svg version="1.1" id="I3cb5be37f9814f099b726c110984550820251110130508" width="100" height="100" viewBox="0 0 100 100" xmlns="http://www.w3.org/2000/svg" xmlns:svg="http://www.w3.org/2000/svg"> <defs id="I8c022df893394c4d8ef11c6652faca5420251110130508" /> <g id="Idd6f01f434be49b1bf2fb6c727cc80d320251110130508"> <path id="I2d4b7ddbb3db46edaa3adadac573943720251110130508" d="m 17.969,9.375 c -4.746,0 -8.594,3.848 -8.594,8.594 v 14.953 c 1.41,-0.817 2.996,-1.363 4.687,-1.574 V 17.969 c 0,-2.157 1.75,-3.907 3.907,-3.907 h 16.406 v 3.907 c 0,3.883 3.148,7.031 7.031,7.031 h 19.532 v 32.031 c 0,2.157 -1.75,3.907 -3.907,3.907 H 43.652 c -0.211,1.691 -0.757,3.277 -1.574,4.687 h 14.953 c 4.746,0 8.594,-3.848 8.594,-8.594 V 17.969 c 0,-4.746 -3.848,-8.594 -8.594,-8.594 z M 60.938,20.312 H 41.406 c -1.293,0 -2.344,-1.05 -2.344,-2.343 v -3.907 h 17.969 c 2.157,0 3.907,1.75 3.907,3.907 z M 15.625,34.375 c -5.176,0 -9.375,4.195 -9.375,9.375 v 15.625 c 0,1.738 0.473,3.367 1.297,4.762 L 18.465,53.219 c 2.746,-2.746 7.199,-2.746 9.945,0 l 10.918,10.918 c 0.824,-1.395 1.297,-3.024 1.297,-4.762 V 43.75 c 0,-5.18 -4.195,-9.375 -9.375,-9.375 z m 0,34.375 c -1.738,0 -3.367,-0.473 -4.762,-1.297 L 21.781,56.535 c 0.914,-0.918 2.399,-0.918 3.313,0 L 36.012,67.453 C 34.617,68.277 32.988,68.75 31.25,68.75 Z M 31.25,46.875 c -1.727,0 -3.125,-1.398 -3.125,-3.125 0,-1.727 1.398,-3.125 3.125,-3.125 1.727,0 3.125,1.398 3.125,3.125 0,1.727 -1.398,3.125 -3.125,3.125 z" style="fill:currentColor;fill-opacity:1;fill-rule:nonzero;stroke:none" transform="scale(1.3333333)" /> </g>
</svg>

