<?xml version="1.0" encoding="UTF-8" standalone="no"?> <svg version="1.1" id="Iacb878c95c934f8fa5b3b94c9d2e94d620251110130510" width="100" height="100" viewBox="0 0 100 100" xmlns="http://www.w3.org/2000/svg" xmlns:svg="http://www.w3.org/2000/svg"> <defs id="I94989ed6de594e1197205e2f557c8a1a20251110130510" /> <g id="I6386427174a441e48f70182cae70d9d420251110130510"> <path id="I4d2d7d1ef12e44e4bb3f78ac6b5b8c5d20251110130510" d="m 17.969,34.375 c -1.293,0 -2.344,-1.051 -2.344,-2.344 V 8.594 c 0,-1.293 1.051,-2.344 2.344,-2.344 1.293,0 2.343,1.051 2.343,2.344 v 23.437 c 0,1.293 -1.05,2.344 -2.343,2.344 z M 58.594,68.75 c -1.293,0 -2.344,-1.051 -2.344,-2.344 V 8.594 c 0,-1.293 1.051,-2.344 2.344,-2.344 1.293,0 2.344,1.051 2.344,2.344 v 57.812 c 0,1.293 -1.051,2.344 -2.344,2.344 z M 35.938,32.031 c 0,1.293 1.05,2.344 2.343,2.344 1.293,0 2.344,-1.051 2.344,-2.344 V 8.594 c 0,-1.293 -1.051,-2.344 -2.344,-2.344 -1.293,0 -2.343,1.051 -2.343,2.344 z" style="fill:currentColor;fill-opacity:1;fill-rule:nonzero;stroke:none" transform="scale(1.3333333)" /> </g>
</svg>

