<?xml version="1.0" encoding="UTF-8" standalone="no"?> <svg version="1.1" id="I10031a257437461da126a36d3f98c6d120251106163938" width="100" height="100" viewBox="0 0 100 100" xmlns="http://www.w3.org/2000/svg" xmlns:svg="http://www.w3.org/2000/svg"> <defs id="I79f07450aa834447a579f85b50c6a1f220251106163938" /> <g id="I179d487fdfbc4b97a3992603aeb08b8220251106163938"> <path id="Ibd60d1c7f11a48149b2e321290a507be20251106163938" d="m 55.469,10.938 c 3.019,0 5.469,2.449 5.469,5.468 v 8.996 c 0,0.621 -0.247,1.219 -0.688,1.657 L 53.812,33.5 c -0.441,0.438 -0.687,1.035 -0.687,1.656 v 17.188 c 0,3.019 -2.449,5.468 -5.469,5.468 -0.269,0 -0.527,0.047 -0.765,0.129 V 27.246 c 0,-4.187 -2.235,-8.055 -5.86,-10.148 L 30.363,10.938 Z M 19.41,6.25 C 13.859,6.316 9.375,10.836 9.375,16.406 v 17.969 c 0,0.09 0.004,0.18 0.016,0.27 v 16.234 c 0,4.187 2.234,8.055 5.859,10.148 L 31.656,70.5 c 6.574,3.797 14.75,-0.707 15.211,-8.137 0.246,0.09 0.512,0.137 0.789,0.137 5.61,0 10.156,-4.547 10.156,-10.156 V 36.129 l 5.754,-5.754 c 1.317,-1.32 2.059,-3.109 2.059,-4.973 V 16.406 C 65.625,10.797 61.078,6.25 55.469,6.25 H 19.656 c -0.082,0 -0.164,0 -0.246,0 z m 22.793,20.996 v 34.457 c 0,4.211 -4.558,6.84 -8.203,4.735 L 17.594,56.969 c -2.176,-1.258 -3.516,-3.578 -3.516,-6.09 V 16.422 c 0,-4.211 4.559,-6.84 8.203,-4.738 l 16.407,9.472 c 2.171,1.258 3.515,3.578 3.515,6.09 z" style="fill:currentColor;fill-opacity:1;fill-rule:nonzero;stroke:none" transform="scale(1.3333333)" /> </g>
</svg>

