<?xml version="1.0" encoding="UTF-8" standalone="no"?> <svg version="1.1" id="If67b1849916745a9a6422330dc74f82220251110130509" width="100" height="100" viewBox="0 0 100 100" xmlns="http://www.w3.org/2000/svg" xmlns:svg="http://www.w3.org/2000/svg"> <defs id="I6557479e33b9475897890a6b1a61876f20251110130509" /> <g id="I21501cdd0bb5426993e7d5b9729942b520251110130509"> <path id="I7d477a16267a4e10a6690eed59f7784820251110130509" d="m 63.281,14.062 c 1.293,0 2.344,-1.05 2.344,-2.343 0,-1.293 -1.051,-2.344 -2.344,-2.344 H 11.719 c -1.293,0 -2.344,1.051 -2.344,2.344 0,1.293 1.051,2.343 2.344,2.343 z m 0,12.5 c 1.293,0 2.344,1.051 2.344,2.344 v 26.563 c 0,5.609 -4.547,10.156 -10.156,10.156 H 19.531 C 13.922,65.625 9.375,61.078 9.375,55.469 V 28.906 c 0,-1.293 1.051,-2.344 2.344,-2.344 h 13.336 c -0.219,1.54 0.211,3.161 1.328,4.415 1.265,1.425 3.109,2.031 4.867,1.781 V 43.75 h 12.5 V 32.758 c 1.758,0.25 3.602,-0.356 4.867,-1.781 1.117,-1.254 1.547,-2.875 1.328,-4.415 z M 26.562,31.25 h -12.5 v 12.5 h 12.5 z m 0,17.188 h -12.5 v 7.031 c 0,3.019 2.45,5.469 5.469,5.469 h 7.031 z m 17.188,12.5 v -12.5 h -12.5 v 12.5 z m 4.688,0 h 7.031 c 3.019,0 5.469,-2.45 5.469,-5.469 v -7.031 h -12.5 z m 0,-29.688 v 12.5 h 12.5 v -12.5 z m -2.157,-2.348 c -0.859,0.965 -2.34,1.055 -3.308,0.192 l -3.129,-2.782 v 8.844 c 0,1.293 -1.051,2.344 -2.344,2.344 -1.293,0 -2.344,-1.051 -2.344,-2.344 v -8.844 l -3.129,2.782 c -0.968,0.863 -2.449,0.773 -3.308,-0.192 -0.864,-0.968 -0.774,-2.449 0.191,-3.308 l 7.031,-6.25 c 0.891,-0.793 2.227,-0.793 3.118,0 l 7.031,6.25 c 0.965,0.859 1.055,2.34 0.191,3.308 z" style="fill:currentColor;fill-opacity:1;fill-rule:nonzero;stroke:none" transform="scale(1.3333333)" /> </g>
</svg>

