<?xml version="1.0" encoding="UTF-8" standalone="no"?> <svg version="1.1" id="I0c4d4263b41444b1a6523047557332cb20251106103256" width="100" height="100" viewBox="0 0 100 100" xmlns="http://www.w3.org/2000/svg" xmlns:svg="http://www.w3.org/2000/svg"> <defs id="I841dd8cc689048db85ff47b986f0e69720251106103256" /> <g id="I2f24becd325943a4aac1ffac7237efd820251106103256"> <path id="Ife52c3a44d8047379446a8d301c942a820251106103256" d="m 19.754,22.098 c 0,6.695 10.047,6.695 10.047,0 0,-6.696 -10.047,-6.696 -10.047,0 z M 65.961,0 H 9.039 C 7.559,0 6.363,1.195 6.363,2.68 v 55.246 c 0,1.48 1.196,2.676 2.676,2.676 h 56.922 c 1.48,0 2.676,-1.196 2.676,-2.676 V 2.68 C 68.637,1.195 67.441,0 65.961,0 Z m -2.68,55.246 H 11.719 V 5.355 H 63.281 Z M 45.199,22.098 c 0,6.695 10.047,6.695 10.047,0 0,-6.696 -10.047,-6.696 -10.047,0 z M 66.145,68.637 H 8.855 c -1.378,0 -2.492,1.199 -2.492,2.679 v 3.016 C 6.363,74.699 6.637,75 6.98,75 h 61.032 c 0.343,0 0.617,-0.301 0.617,-0.668 v -3.016 c 0.008,-1.48 -1.106,-2.679 -2.484,-2.679 z M 50.223,37.164 H 24.777 c -0.367,0 -0.672,0.301 -0.672,0.672 v 5.019 c 0,0.372 0.305,0.672 0.672,0.672 h 25.446 c 0.367,0 0.672,-0.3 0.672,-0.672 v -5.019 c 0,-0.371 -0.305,-0.672 -0.672,-0.672 z" style="fill:currentColor;fill-opacity:1;fill-rule:nonzero;stroke:none" transform="scale(1.3333333)" /> </g>
</svg>

