<?xml version="1.0" encoding="UTF-8" standalone="no"?> <svg version="1.1" id="I7f33da2536e64453808f6c30eda6f74220251106125938" width="100" height="100" viewBox="0 0 100 100" xmlns="http://www.w3.org/2000/svg" xmlns:svg="http://www.w3.org/2000/svg"> <defs id="I7113d639ffae41e9a8259ebdd25e452020251106125938" /> <g id="I7fd7e9932b3c4bfba7fba55c44a228e920251106125938"> <path id="I4246019a10664c83b183b077475f5e4020251106125938" d="M 37.137,12.535 37.5,12.512 c 1.602,0 2.922,1.207 3.105,2.761 l 0.02,0.364 v 36.199 l 7.164,-7.168 c 1.125,-1.125 2.899,-1.215 4.125,-0.262 l 0.293,0.262 c 1.129,1.125 1.215,2.898 0.262,4.125 l -0.258,0.293 -12.488,12.5 c -1.125,1.125 -2.899,1.215 -4.125,0.262 l -0.293,-0.262 -12.512,-12.5 c -1.223,-1.219 -1.223,-3.195 -0.004,-4.418 1.125,-1.125 2.899,-1.215 4.125,-0.262 l 0.293,0.262 7.168,7.156 V 15.637 c 0,-1.602 1.207,-2.922 2.762,-3.102 L 37.5,12.512 Z" style="fill:currentColor;fill-opacity:1;fill-rule:nonzero;stroke:none" transform="scale(1.3333333)" /> </g>
</svg>

