<?xml version="1.0" encoding="UTF-8" standalone="no"?> <svg version="1.1" id="Idb35c12f7fc24837b43db2dfe9da741a20251106113050" width="100" height="100" viewBox="0 0 100 100" xmlns="http://www.w3.org/2000/svg" xmlns:svg="http://www.w3.org/2000/svg"> <defs id="I7e343de69d1b4017b89ff594a3fb7de320251106113050" /> <g id="Ib587cfdeb76c4600a68aaa393cd390f420251106113050"> <path id="Ia27e0f3489ec49e3a34ba842e6f7a7d920251106113050" d="M 21.93,50.223 H 3.348 c -0.735,0 -1.34,0.601 -1.34,1.339 v 4.02 c 0,0.734 0.605,1.336 1.34,1.336 h 14.566 v 14.734 c 0,0.735 0.602,1.34 1.34,1.34 h 4.016 c 0.738,0 1.339,-0.605 1.339,-1.34 v -18.75 c 0,-1.48 -1.195,-2.679 -2.679,-2.679 z M 23.27,2.008 h -4.016 c -0.738,0 -1.34,0.605 -1.34,1.34 V 18.082 H 3.348 c -0.735,0 -1.34,0.602 -1.34,1.336 v 4.02 c 0,0.738 0.605,1.339 1.34,1.339 H 21.93 c 1.484,0 2.679,-1.199 2.679,-2.679 V 3.348 c 0,-0.735 -0.601,-1.34 -1.339,-1.34 z M 71.652,50.223 H 53.07 c -1.484,0 -2.679,1.199 -2.679,2.679 v 18.75 c 0,0.735 0.601,1.34 1.339,1.34 h 4.016 c 0.738,0 1.34,-0.605 1.34,-1.34 V 56.918 h 14.566 c 0.735,0 1.34,-0.602 1.34,-1.336 v -4.02 c 0,-0.738 -0.605,-1.339 -1.34,-1.339 z m 0,-32.141 H 57.086 V 3.348 c 0,-0.735 -0.602,-1.34 -1.34,-1.34 H 51.73 c -0.738,0 -1.339,0.605 -1.339,1.34 v 18.75 c 0,1.48 1.195,2.679 2.679,2.679 h 18.582 c 0.735,0 1.34,-0.601 1.34,-1.339 v -4.02 c 0,-0.734 -0.605,-1.336 -1.34,-1.336 z" style="fill:currentColor;fill-opacity:1;fill-rule:nonzero;stroke:none" transform="scale(1.3333333)" /> </g>
</svg>

