<?xml version="1.0" encoding="UTF-8" standalone="no"?> <svg version="1.1" id="I30f44f3169cf48c5b53cfb1f7dca36e620251110124420" width="100" height="100" viewBox="0 0 100 100" xmlns="http://www.w3.org/2000/svg" xmlns:svg="http://www.w3.org/2000/svg"> <defs id="I1a545175e46e418ca7d8735b01ca7a4a20251110124420" /> <g id="I313c7228cb8e4944a255490d14e7e44f20251110124420"> <path id="Iecc55a616abb4a32af9dddb454e94b1d20251110124420" d="m 24.809,13.066 -10.176,10.18 c -1.832,1.832 -1.832,4.801 0,6.629 l 12.258,12.262 c -0.942,1.379 -1.579,3.011 -1.801,4.828 L 11.316,33.191 c -3.66,-3.664 -3.66,-9.597 0,-13.257 l 10.18,-10.18 c 3.66,-3.664 9.598,-3.664 13.258,0 L 45.52,20.52 c -0.235,0.183 -0.458,0.375 -0.668,0.578 -0.106,-0.004 -0.211,-0.004 -0.321,-0.004 -1.554,0 -2.918,0.367 -4.078,0.988 l -9.012,-9.016 c -1.832,-1.828 -4.8,-1.828 -6.632,0 z m 21.332,11.375 c -0.496,-0.144 -1.036,-0.222 -1.61,-0.222 -3.426,0 -5.453,2.812 -5.453,5.469 v 11.476 c -0.914,-0.316 -1.973,-0.539 -3.152,-0.539 -4.367,0 -7.801,3.223 -7.801,7.813 0,0.753 0.363,1.464 0.98,1.906 l 5.368,3.84 2.98,2.601 c 1.996,1.738 3.789,3.699 5.348,5.844 l 1.867,2.574 c 1.617,2.227 4.203,3.547 6.957,3.547 h 5.121 c 2.906,0 5.699,-1.48 7.203,-4.098 0.942,-1.644 2.11,-3.808 3.051,-5.945 0.895,-2.035 1.75,-4.414 1.75,-6.363 v -18.75 c 0,-2.672 -2.055,-5.469 -5.469,-5.469 -0.343,0 -0.672,0.027 -0.988,0.082 -0.602,-2.133 -2.477,-3.988 -5.262,-3.988 -0.57,0 -1.109,0.078 -1.609,0.226 -0.899,-1.476 -2.504,-2.57 -4.641,-2.57 -2.133,0 -3.738,1.094 -4.64,2.566 z m 5.207,2.34 c 0.132,0.145 0.214,0.356 0.214,0.555 v 2.082 c -0.003,0.102 -0.003,0.207 0,0.309 v 11.679 c 0,1.293 1.051,2.344 2.344,2.344 1.293,0 2.344,-1.051 2.344,-2.344 V 29.523 c 0.012,-0.113 0.066,-0.257 0.184,-0.382 0.117,-0.125 0.296,-0.235 0.597,-0.235 0.297,0 0.457,0.102 0.567,0.219 0.132,0.145 0.214,0.355 0.214,0.563 v 13.281 c 0,1.293 1.051,2.343 2.344,2.343 1.293,0 2.344,-1.05 2.344,-2.343 v -9.375 c 0,-0.203 0.082,-0.418 0.219,-0.563 0.105,-0.117 0.265,-0.219 0.562,-0.219 0.297,0 0.457,0.102 0.563,0.219 0.136,0.145 0.218,0.36 0.218,0.563 v 18.75 c 0,0.871 -0.464,2.453 -1.355,4.476 -0.844,1.922 -1.922,3.922 -2.824,5.496 -0.613,1.071 -1.797,1.746 -3.137,1.746 h -5.121 c -1.254,0 -2.43,-0.601 -3.164,-1.613 L 46.594,59.875 C 44.828,57.445 42.797,55.223 40.535,53.25 L 37.469,50.574 C 37.41,50.527 37.352,50.48 37.289,50.438 l -4.32,-3.094 c 0.386,-1.278 1.484,-2.032 2.957,-2.032 1.992,0 3.406,1.25 3.883,1.672 0.035,0.032 0.066,0.059 0.093,0.082 0.696,0.59 1.672,0.723 2.5,0.34 0.832,-0.383 1.364,-1.211 1.364,-2.125 V 29.688 c 0,-0.211 0.082,-0.426 0.214,-0.571 0.102,-0.113 0.258,-0.211 0.551,-0.211 0.297,0 0.461,0.102 0.567,0.219 0.132,0.141 0.214,0.352 0.214,0.563 v 11.718 c 0,1.293 1.051,2.344 2.344,2.344 1.293,0 2.344,-1.051 2.344,-2.344 v -14.07 c 0,-0.199 0.082,-0.41 0.215,-0.555 0.109,-0.117 0.269,-0.219 0.566,-0.219 0.297,0 0.457,0.102 0.567,0.219 z M 13.285,43.75 c 1.293,0 2.344,1.047 2.344,2.344 v 2.336 h 2.328 c 1.297,0 2.344,1.047 2.344,2.343 0,1.293 -1.047,2.344 -2.344,2.344 h -2.328 v 2.363 c 0,1.293 -1.047,2.344 -2.344,2.344 -1.293,0 -2.344,-1.051 -2.344,-2.344 V 53.117 H 8.594 c -1.293,0 -2.344,-1.051 -2.344,-2.344 0,-1.296 1.051,-2.343 2.344,-2.343 h 2.347 v -2.336 c 0,-1.297 1.051,-2.344 2.344,-2.344 z m 12.5,10.938 c 1.293,0 2.344,1.046 2.344,2.343 v 2.336 h 2.328 c 1.297,0 2.344,1.047 2.344,2.344 0,1.293 -1.047,2.344 -2.344,2.344 h -2.328 v 2.363 c 0,1.293 -1.047,2.344 -2.344,2.344 -1.293,0 -2.344,-1.051 -2.344,-2.344 v -2.363 h -2.347 c -1.293,0 -2.344,-1.051 -2.344,-2.344 0,-1.297 1.051,-2.344 2.344,-2.344 h 2.347 v -2.336 c 0,-1.297 1.051,-2.343 2.344,-2.343 z" style="fill:currentColor;fill-opacity:1;fill-rule:nonzero;stroke:none" transform="scale(1.3333333)" /> </g>
</svg>

