<?xml version="1.0" encoding="UTF-8" standalone="no"?> <svg version="1.1" id="I4d731224549e4fe0b13129f2e4d0d95a20251106105458" width="100" height="100" viewBox="0 0 100 100" xmlns="http://www.w3.org/2000/svg" xmlns:svg="http://www.w3.org/2000/svg"> <defs id="I45350472c8654b588d25c1353a67fa4c20251106105458" /> <g id="Ifd4c791b8cdd4c0f84c02e5b150fabc320251106105458"> <path id="I07702c05f0d043f1984c4f9840fe37a520251106105458" d="m 39.844,6.695 h -4.688 c -0.367,0 -0.668,0.301 -0.668,0.672 v 60.266 c 0,0.371 0.301,0.672 0.668,0.672 h 4.688 c 0.367,0 0.668,-0.301 0.668,-0.672 V 7.367 c 0,-0.371 -0.301,-0.672 -0.668,-0.672 z m -13.895,0 h -4.687 c -0.367,0 -0.672,0.301 -0.672,0.672 v 4.688 c 0,0.367 0.305,0.668 0.672,0.668 h 4.687 c 0.367,0 0.668,-0.301 0.668,-0.668 V 7.367 c 0,-0.371 -0.301,-0.672 -0.668,-0.672 z m 41.684,0 h -4.688 c -0.367,0 -0.668,0.301 -0.668,0.672 v 4.688 c 0,0.367 0.301,0.668 0.668,0.668 h 4.688 c 0.371,0 0.672,-0.301 0.672,-0.668 V 7.367 c 0,-0.371 -0.301,-0.672 -0.672,-0.672 z m -55.578,0 H 7.367 c -0.371,0 -0.672,0.301 -0.672,0.672 v 4.688 c 0,0.367 0.301,0.668 0.672,0.668 h 4.688 c 0.367,0 0.668,-0.301 0.668,-0.668 V 7.367 c 0,-0.371 -0.301,-0.672 -0.668,-0.672 z m 41.683,0 h -4.687 c -0.367,0 -0.668,0.301 -0.668,0.672 v 4.688 c 0,0.367 0.301,0.668 0.668,0.668 h 4.687 c 0.367,0 0.672,-0.301 0.672,-0.668 V 7.367 c 0,-0.371 -0.305,-0.672 -0.672,-0.672 z M 12.055,20.59 H 7.367 c -0.371,0 -0.672,0.305 -0.672,0.672 v 4.687 c 0,0.367 0.301,0.668 0.672,0.668 h 4.688 c 0.367,0 0.668,-0.301 0.668,-0.668 v -4.687 c 0,-0.367 -0.301,-0.672 -0.668,-0.672 z m 55.578,0 h -4.688 c -0.367,0 -0.668,0.305 -0.668,0.672 v 4.687 c 0,0.367 0.301,0.668 0.668,0.668 h 4.688 c 0.371,0 0.672,-0.301 0.672,-0.668 v -4.687 c 0,-0.367 -0.301,-0.672 -0.672,-0.672 z m 0,27.793 h -4.688 c -0.367,0 -0.668,0.301 -0.668,0.668 v 4.687 c 0,0.367 0.301,0.672 0.668,0.672 h 4.688 c 0.371,0 0.672,-0.305 0.672,-0.672 v -4.687 c 0,-0.367 -0.301,-0.668 -0.672,-0.668 z m -55.578,0 H 7.367 c -0.371,0 -0.672,0.301 -0.672,0.668 v 4.687 c 0,0.367 0.301,0.672 0.672,0.672 h 4.688 c 0.367,0 0.668,-0.305 0.668,-0.672 v -4.687 c 0,-0.367 -0.301,-0.668 -0.668,-0.668 z m 0,13.894 H 7.367 c -0.371,0 -0.672,0.301 -0.672,0.668 v 4.688 c 0,0.371 0.301,0.672 0.672,0.672 h 4.688 c 0.367,0 0.668,-0.301 0.668,-0.672 v -4.688 c 0,-0.367 -0.301,-0.668 -0.668,-0.668 z m 0,-27.789 H 7.367 c -0.371,0 -0.672,0.301 -0.672,0.668 v 4.688 c 0,0.367 0.301,0.668 0.672,0.668 h 4.688 c 0.367,0 0.668,-0.301 0.668,-0.668 v -4.688 c 0,-0.367 -0.301,-0.668 -0.668,-0.668 z m 55.578,27.789 h -4.688 c -0.367,0 -0.668,0.301 -0.668,0.668 v 4.688 c 0,0.371 0.301,0.672 0.668,0.672 h 4.688 c 0.371,0 0.672,-0.301 0.672,-0.672 v -4.688 c 0,-0.367 -0.301,-0.668 -0.672,-0.668 z m 0,-27.789 h -4.688 c -0.367,0 -0.668,0.301 -0.668,0.668 v 4.688 c 0,0.367 0.301,0.668 0.668,0.668 h 4.688 c 0.371,0 0.672,-0.301 0.672,-0.668 v -4.688 c 0,-0.367 -0.301,-0.668 -0.672,-0.668 z M 25.949,62.277 h -4.687 c -0.367,0 -0.672,0.301 -0.672,0.668 v 4.688 c 0,0.371 0.305,0.672 0.672,0.672 h 4.687 c 0.367,0 0.668,-0.301 0.668,-0.672 v -4.688 c 0,-0.367 -0.301,-0.668 -0.668,-0.668 z m 0,-27.789 h -4.687 c -0.367,0 -0.672,0.301 -0.672,0.668 v 4.688 c 0,0.367 0.305,0.668 0.672,0.668 h 4.687 c 0.367,0 0.668,-0.301 0.668,-0.668 v -4.688 c 0,-0.367 -0.301,-0.668 -0.668,-0.668 z m 27.789,27.789 h -4.687 c -0.367,0 -0.668,0.301 -0.668,0.668 v 4.688 c 0,0.371 0.301,0.672 0.668,0.672 h 4.687 c 0.367,0 0.672,-0.301 0.672,-0.672 v -4.688 c 0,-0.367 -0.305,-0.668 -0.672,-0.668 z m 0,-27.789 h -4.687 c -0.367,0 -0.668,0.301 -0.668,0.668 v 4.688 c 0,0.367 0.301,0.668 0.668,0.668 h 4.687 c 0.367,0 0.672,-0.301 0.672,-0.668 v -4.688 c 0,-0.367 -0.305,-0.668 -0.672,-0.668 z" style="fill:currentColor;fill-opacity:1;fill-rule:nonzero;stroke:none" transform="scale(1.3333333)" /> </g>
</svg>

