<?xml version="1.0" encoding="UTF-8" standalone="no"?> <svg version="1.1" id="Ia692bcd79e5846e8aef5ffe6123d159320251106143238" width="100" height="100" viewBox="0 0 100 100" xmlns="http://www.w3.org/2000/svg" xmlns:svg="http://www.w3.org/2000/svg"> <defs id="I985cdf898bfc4b2b8129639f61a2afdc20251106143238"> <linearGradient x1="8" y1="6" x2="11.5" y2="17" gradientUnits="userSpaceOnUse" gradientTransform="scale(3.75)" spreadMethod="pad" id="I09430de51d044bc19a77316266bbbab920251106143238"> <stop style="stop-opacity:1;stop-color:#b3e0ff" offset="0" id="I0d5b98dcc85e4985954c7f75c032d7bc20251106143238" /> <stop style="stop-opacity:1;stop-color:#8cd0ff" offset="1" id="I1cbd7dab81fa46acaecaa43668e112b620251106143238" /> </linearGradient> <linearGradient x1="11.5" y1="10.5" x2="13.5" y2="19.5" gradientUnits="userSpaceOnUse" gradientTransform="scale(3.75)" spreadMethod="pad" id="Ic56a305455074ef2a1ae88e0bd5d121120251106143238"> <stop style="stop-opacity:0;stop-color:#dcf8ff" offset="0" id="I4561a3983a2249c5b06299b9413db7dc20251106143238" /> <stop style="stop-opacity:0.70000763;stop-color:#ff6ce8" offset="1" id="I37a6ad06b4ee47d7ac89c63f184e042920251106143238" /> </linearGradient> <radialGradient fx="0" fy="0" cx="0" cy="0" r="1" gradientUnits="userSpaceOnUse" gradientTransform="matrix(16.875,0,0,11.30685,48.75,61.875)" spreadMethod="pad" id="I7a844eb2709d47268f4d943344a2bd5d20251106143238"> <stop style="stop-opacity:0.29999237;stop-color:#4a43cb" offset="0" id="Id77a12528148468b94b982e63379929e20251106143238" /> <stop style="stop-opacity:0;stop-color:#4a43cb" offset="0.914422" id="I32cbea8ff63b41f483e868bbb8edeee020251106143238" /> <stop style="stop-opacity:0;stop-color:#4a43cb" offset="1" id="I2e433d73b59f4931a8b8c42d545d7c9120251106143238" /> </radialGradient> <radialGradient fx="0" fy="0" cx="0" cy="0" r="1" gradientUnits="userSpaceOnUse" gradientTransform="matrix(0,9.375,-9.375,0,50.625,48.75)" spreadMethod="pad" id="I5bca5c3b4d7e427ebfacd3b8a34a88e720251106143238"> <stop style="stop-opacity:0.29999237;stop-color:#4a43cb" offset="0" id="I73bf2b57047d422cb87ab23d7507130220251106143238" /> <stop style="stop-opacity:0;stop-color:#4a43cb" offset="1" id="I13dfc847abcd449e85fbe73a1eb604e620251106143238" /> </radialGradient> <linearGradient x1="3.5625" y1="3" x2="4.9035602" y2="9.8156099" gradientUnits="userSpaceOnUse" gradientTransform="scale(3.75)" spreadMethod="pad" id="Id9796e68b5b64f0fbc1b61dd2ace838420251106143238"> <stop style="stop-opacity:1;stop-color:#0094f0" offset="0" id="If1d62bdb710c49cf890cc98e64b4e37820251106143238" /> <stop style="stop-opacity:1;stop-color:#2764e7" offset="1" id="I89353473a0ff4b1da96af3c0cdbf188e20251106143238" /> </linearGradient> <linearGradient x1="15.5701" y1="15.3988" x2="16.7785" y2="18.2931" gradientUnits="userSpaceOnUse" gradientTransform="scale(3.75)" spreadMethod="pad" id="I091d13c80f1b43159322af044552567e20251106143238"> <stop style="stop-opacity:1;stop-color:#9c6cfe" offset="0" id="Iec4838bd8cb34f54b3977725e976310b20251106143238" /> <stop style="stop-opacity:1;stop-color:#9c6cfe" offset="0.125321" id="I9ab06239d07440268a62f2ebfbe26a8f20251106143238" /> <stop style="stop-opacity:1;stop-color:#7a41dc" offset="1" id="I7539ed93881649dbbaa1cad48a238e7420251106143238" /> </linearGradient> <radialGradient fx="0" fy="0" cx="0" cy="0" r="1" gradientUnits="userSpaceOnUse" gradientTransform="matrix(11.105468,-1.640626,1.932481,13.081051,52.2345,61.875)" spreadMethod="pad" id="Ie0f303c7effe49178ab745e41b1af64020251106143238"> <stop style="stop-opacity:0.50000763;stop-color:#3b148a" offset="0" id="I6429765b49d74c66be907f1957cefe9c20251106143238" /> <stop style="stop-opacity:0.50000763;stop-color:#3b148a" offset="0.392122" id="Idecac60250d9413980804215084fcc0720251106143238" /> <stop style="stop-opacity:0;stop-color:#3b148a" offset="1" id="I93e745eadd6f475cbc2f322b2159566620251106143238" /> </radialGradient> <linearGradient x1="11.4268" y1="15.5317" x2="13.038" y2="19.3908" gradientUnits="userSpaceOnUse" gradientTransform="scale(3.75)" spreadMethod="pad" id="Ib071c3d45ada4aa5b4d29a2e878270e020251106143238"> <stop style="stop-opacity:1;stop-color:#bd96ff" offset="0" id="Id1065cc9cdc94f3586e6491dc0b8503020251106143238" /> <stop style="stop-opacity:1;stop-color:#bd96ff" offset="0.125321" id="I2862f5ad829c4652acef8e824b03fbb320251106143238" /> <stop style="stop-opacity:1;stop-color:#9c6cfe" offset="1" id="Ia059d58823624961a8930e035ebe96e820251106143238" /> </linearGradient> <linearGradient x1="13" y1="14.5238" x2="15.2935" y2="20.951599" gradientUnits="userSpaceOnUse" gradientTransform="scale(3.75)" spreadMethod="pad" id="Ic1711b6ec6914195a246cf905a419aa120251106143238"> <stop style="stop-opacity:0;stop-color:#885edb" offset="0" id="If7cd58cf099d4b29b0bf6c65050058df20251106143238" /> <stop style="stop-opacity:1;stop-color:#e362f8" offset="1" id="Ifd51fc53158a45e58ecf06d6b66d736420251106143238" /> </linearGradient> <linearGradient x1="16.0945" y1="11.8323" x2="17.368601" y2="13.8668" gradientUnits="userSpaceOnUse" gradientTransform="scale(3.75)" spreadMethod="pad" id="I34f4b9bae0d743ab8768a389b40017c220251106143238"> <stop style="stop-opacity:1;stop-color:#9c6cfe" offset="0" id="I92b49270de094e64b72763c63db281e720251106143238" /> <stop style="stop-opacity:1;stop-color:#9c6cfe" offset="0.125321" id="Ia6a82fd05eeb4dbf9f6159767cdd7a4720251106143238" /> <stop style="stop-opacity:1;stop-color:#7a41dc" offset="1" id="I4c1c500e21944d739b85144ea174737420251106143238" /> </linearGradient> <linearGradient x1="12.0823" y1="10.9653" x2="13.866" y2="13.8135" gradientUnits="userSpaceOnUse" gradientTransform="scale(3.75)" spreadMethod="pad" id="Ibaeebe043663412fa29ebfd6b3f19deb20251106143238"> <stop style="stop-opacity:1;stop-color:#bd96ff" offset="0" id="I337b6221554842baa4a15fa1adcfd68b20251106143238" /> <stop style="stop-opacity:1;stop-color:#bd96ff" offset="0.125321" id="Ic7fa6977f27c412894b673954b742d9820251106143238" /> <stop style="stop-opacity:1;stop-color:#9c6cfe" offset="1" id="I2d5461045a814932a7ca424db25741ad20251106143238" /> </linearGradient> </defs> <g id="I911f9e4429f643a09cfed429c831d40a20251106143238"> <path id="I16a1f312c9fa4881bffdf4b5d62667f020251106143238" d="m 63.75,22.5 h -52.5 v 31.875 c 0,5.176 4.199,9.375 9.375,9.375 h 33.75 c 5.176,0 9.375,-4.199 9.375,-9.375 z" transform="scale(1.3333333)" style="fill:url(#I09430de51d044bc19a77316266bbbab920251106143238);stroke:none" /> <path d="m 63.75,22.5 h -52.5 v 31.875 c 0,5.176 4.199,9.375 9.375,9.375 h 33.75 c 5.176,0 9.375,-4.199 9.375,-9.375 z" transform="scale(1.3333333)" style="fill:url(#Ic56a305455074ef2a1ae88e0bd5d121120251106143238);stroke:none" opacity="1" id="Ieaf52f3bd6fb4ee2806801c5dda980c120251106143238" /> <path d="m 63.75,22.5 h -52.5 v 31.875 c 0,5.176 4.199,9.375 9.375,9.375 h 33.75 c 5.176,0 9.375,-4.199 9.375,-9.375 z" transform="scale(1.3333333)" style="fill:url(#I7a844eb2709d47268f4d943344a2bd5d20251106143238);stroke:none" opacity="1" id="Ib860320a3bfb4526926b05316838775f20251106143238" /> <path d="m 63.75,22.5 h -52.5 v 31.875 c 0,5.176 4.199,9.375 9.375,9.375 h 33.75 c 5.176,0 9.375,-4.199 9.375,-9.375 z" transform="scale(1.3333333)" style="fill:url(#I5bca5c3b4d7e427ebfacd3b8a34a88e720251106143238);stroke:none" opacity="1" id="Idb959402cb514224b86d2ad0079a7a3320251106143238" /> <path id="I7d0832c9401148839bf2e355c79f3e1e20251106143238" d="m 63.75,20.625 c 0,-5.176 -4.199,-9.375 -9.375,-9.375 h -33.75 c -5.176,0 -9.375,4.199 -9.375,9.375 v 5.625 h 52.5 z" transform="scale(1.3333333)" style="fill:url(#Id9796e68b5b64f0fbc1b61dd2ace838420251106143238);stroke:none" /> <path id="I1a3309edd73542fa8c0f1c2111f9eaab20251106143238" d="m 62.812,67.5 c 6.188,0 8.438,-3.422 8.438,-6.75 0,-2.484 -2.016,-4.5 -4.5,-4.5 h -7.875 c -2.484,0 -4.5,2.016 -4.5,4.5 0,3.328 2.25,6.75 8.437,6.75 z" transform="scale(1.3333333)" style="fill:url(#I091d13c80f1b43159322af044552567e20251106143238);stroke:none" /> <path d="m 62.812,67.5 c 6.188,0 8.438,-3.422 8.438,-6.75 0,-2.484 -2.016,-4.5 -4.5,-4.5 h -7.875 c -2.484,0 -4.5,2.016 -4.5,4.5 0,3.328 2.25,6.75 8.437,6.75 z" transform="scale(1.3333333)" style="fill:url(#Ie0f303c7effe49178ab745e41b1af64020251106143238);stroke:none" opacity="1" id="I2b8cd93abfe342579960f23dcf56a13520251106143238" /> <path id="I5a0f5b01318848da9ce9ec43ffb9f36b20251106143238" d="m 48.75,71.25 c 8.25,0 11.25,-4.562 11.25,-9 0,-3.312 -2.688,-6 -6,-6 H 43.5 c -3.312,0 -6,2.688 -6,6 0,4.438 3,9 11.25,9 z" transform="scale(1.3333333)" style="fill:url(#Ib071c3d45ada4aa5b4d29a2e878270e020251106143238);stroke:none" /> <path d="m 48.75,71.25 c 8.25,0 11.25,-4.562 11.25,-9 0,-3.312 -2.688,-6 -6,-6 H 43.5 c -3.312,0 -6,2.688 -6,6 0,4.438 3,9 11.25,9 z" transform="scale(1.3333333)" style="fill:url(#Ic1711b6ec6914195a246cf905a419aa120251106143238);stroke:none" opacity="1" id="I74c3e9851d1d4aefa37ba7283d720b2020251106143238" /> <path id="I71fea802e4374598912b6d744a7d716420251106143238" d="m 48.75,71.25 c 8.25,0 11.25,-4.562 11.25,-9 0,-3.312 -2.688,-6 -6,-6 H 43.5 c -3.312,0 -6,2.688 -6,6 0,4.438 3,9 11.25,9 z" style="fill:#5750e2;fill-opacity:0.2;fill-rule:nonzero;stroke:none" transform="scale(1.3333333)" /> <path id="If43e1f6300ab4dbe825bc2f7a137ea1320251106143238" d="m 67.5,47.812 c 0,2.59 -2.098,4.688 -4.688,4.688 -2.589,0 -4.687,-2.098 -4.687,-4.688 0,-2.589 2.098,-4.687 4.687,-4.687 2.59,0 4.688,2.098 4.688,4.687 z" transform="scale(1.3333333)" style="fill:url(#I34f4b9bae0d743ab8768a389b40017c220251106143238);stroke:none" /> <path id="I762ad636a77e47cf88f94342e212e10420251106143238" d="m 55.312,45.938 c 0,3.624 -2.937,6.562 -6.562,6.562 -3.625,0 -6.562,-2.938 -6.562,-6.562 0,-3.626 2.937,-6.563 6.562,-6.563 3.625,0 6.562,2.937 6.562,6.563 z" transform="scale(1.3333333)" style="fill:url(#Ibaeebe043663412fa29ebfd6b3f19deb20251106143238);stroke:none" /> <path id="I49b46b0882ea47e6b47379962e7e230520251106143238" d="m 55.312,45.938 c 0,3.624 -2.937,6.562 -6.562,6.562 -3.625,0 -6.562,-2.938 -6.562,-6.562 0,-3.626 2.937,-6.563 6.562,-6.563 3.625,0 6.562,2.937 6.562,6.563 z" style="fill:#5750e2;fill-opacity:0.2;fill-rule:nonzero;stroke:none" transform="scale(1.3333333)" /> </g>
</svg>

