<?xml version="1.0" encoding="UTF-8" standalone="no"?> <svg version="1.1" id="Ic09feb6bfcc04f4da837fd965b034b3d20251106103256" width="100" height="100" viewBox="0 0 100 100" xmlns="http://www.w3.org/2000/svg" xmlns:svg="http://www.w3.org/2000/svg"> <defs id="I55fcd8459c2348cebc4d3b677214c62b20251106103256" /> <g id="Id4e442e721b14999beb880fc5e7204bc20251106103256"> <path id="I1cb14192da6e4e6c9b5a694f2d855f3b20251106103256" d="M 74.332,60.938 H 0.668 C 0.301,60.938 0,61.238 0,61.605 v 4.688 c 0,0.371 0.301,0.672 0.668,0.672 h 73.664 c 0.367,0 0.668,-0.301 0.668,-0.672 v -4.688 c 0,-0.367 -0.301,-0.667 -0.668,-0.667 z m 0,-52.903 H 0.668 C 0.301,8.035 0,8.336 0,8.707 v 4.688 c 0,0.367 0.301,0.667 0.668,0.667 h 73.664 c 0.367,0 0.668,-0.3 0.668,-0.667 L 75,8.707 C 75,8.336 74.699,8.035 74.332,8.035 Z M 72.32,49.887 c 0.739,0 1.34,-0.602 1.34,-1.336 V 26.449 c 0,-0.734 -0.601,-1.336 -1.34,-1.336 H 29.465 c -0.738,0 -1.34,0.602 -1.34,1.336 v 22.102 c 0,0.734 0.602,1.336 1.34,1.336 z M 34.152,31.137 H 67.633 V 43.863 H 34.152 Z M 1.34,48.715 c 0,0.371 0.301,0.672 0.668,0.672 h 18.75 c 0.371,0 0.672,-0.301 0.672,-0.672 v -4.688 c 0,-0.367 -0.301,-0.668 -0.672,-0.668 H 2.008 c -0.367,0 -0.668,0.301 -0.668,0.668 z M 2.008,31.641 h 18.75 c 0.371,0 0.672,-0.301 0.672,-0.668 v -4.688 c 0,-0.371 -0.301,-0.672 -0.672,-0.672 H 2.008 c -0.367,0 -0.668,0.301 -0.668,0.672 v 4.688 c 0,0.367 0.301,0.668 0.668,0.668 z" style="fill:currentColor;fill-opacity:1;fill-rule:nonzero;stroke:none" transform="scale(1.3333333)" /> </g>
</svg>

