<?xml version="1.0" encoding="UTF-8" standalone="no"?> <svg version="1.1" id="I032433ceecd34d80802c73b3d8d4723f20251110124420" width="100" height="100" viewBox="0 0 100 100" xmlns="http://www.w3.org/2000/svg" xmlns:svg="http://www.w3.org/2000/svg"> <defs id="I4e57d6e03e4e444ca9e157f478f866f220251110124420" /> <g id="Ia140dc6a4f6c4d309d5d4932ebde1b6520251110124420"> <path id="I080283a3946f447391678a367edba4a320251110124420" d="m 12.5,16.406 c 0,-3.883 3.148,-7.031 7.031,-7.031 h 29.688 c 3.883,0 7.031,3.148 7.031,7.031 V 43.75 h 12.5 v 11.719 c 0,5.609 -4.547,10.156 -10.156,10.156 h -21.16 c 0.925,-1.449 1.671,-3.02 2.211,-4.687 H 51.562 V 16.406 c 0,-1.293 -1.05,-2.344 -2.343,-2.344 H 19.531 c -1.293,0 -2.343,1.051 -2.343,2.344 v 18.207 c -1.637,0.254 -3.208,0.699 -4.688,1.321 z m 30.469,22.656 h -9.676 c -2.512,-2.089 -5.531,-3.582 -8.852,-4.265 0.379,-0.266 0.844,-0.422 1.34,-0.422 h 17.188 c 1.293,0 2.343,1.051 2.343,2.344 0,1.293 -1.05,2.343 -2.343,2.343 z M 56.25,60.938 h 2.344 c 3.019,0 5.468,-2.45 5.468,-5.469 V 48.438 H 56.25 Z M 25.781,21.875 c -1.293,0 -2.343,1.051 -2.343,2.344 0,1.293 1.05,2.343 2.343,2.343 h 17.188 c 1.293,0 2.343,-1.05 2.343,-2.343 0,-1.293 -1.05,-2.344 -2.343,-2.344 z M 37.5,54.688 C 37.5,45.195 29.805,37.5 20.312,37.5 10.82,37.5 3.125,45.195 3.125,54.688 c 0,9.492 7.695,17.187 17.187,17.187 9.493,0 17.188,-7.695 17.188,-17.187 z M 21.879,56.25 v 7.824 c 0,0.864 -0.699,1.563 -1.563,1.563 -0.863,0 -1.562,-0.699 -1.562,-1.563 V 56.25 h -7.832 c -0.86,0 -1.559,-0.699 -1.559,-1.562 0,-0.864 0.699,-1.563 1.559,-1.563 h 7.828 v -7.816 c 0,-0.864 0.699,-1.563 1.562,-1.563 0.864,0 1.563,0.699 1.563,1.563 v 7.816 h 7.801 c 0.863,0 1.562,0.699 1.562,1.563 0,0.863 -0.699,1.562 -1.562,1.562 z" style="fill:currentColor;fill-opacity:1;fill-rule:nonzero;stroke:none" transform="scale(1.3333333)" /> </g>
</svg>

