<?xml version="1.0" encoding="UTF-8" standalone="no"?> <svg version="1.1" id="I7da86d4cf7a844b480f7f11b44c2393b20251106154012" width="100" height="100" viewBox="0 0 100 100" xmlns="http://www.w3.org/2000/svg" xmlns:svg="http://www.w3.org/2000/svg"> <defs id="I1b957541ff80422c98f78bedd46da7e120251106154012" /> <g id="I63d68e18ac774f60b0a969b194f4edc320251106154012"> <path id="If3c9da0e773e4350a3e493636dedb14820251106154012" d="m 72.32,20.09 c 0,9.617 -7.793,17.41 -17.41,17.41 -9.617,0 -17.41,-7.793 -17.41,-17.41 0,-9.617 7.793,-17.41 17.41,-17.41 9.617,0 17.41,7.793 17.41,17.41 z M 56.25,9.375 c 0,-0.738 -0.602,-1.34 -1.34,-1.34 -0.738,0 -1.34,0.602 -1.34,1.34 V 27.57 l -5.75,-5.75 c -0.519,-0.523 -1.371,-0.523 -1.89,0 -0.524,0.524 -0.524,1.371 0,1.895 l 8.035,8.035 c 0.129,0.129 0.273,0.227 0.433,0.293 0.157,0.062 0.325,0.098 0.504,0.102 h 0.016 c 0.34,-0.004 0.68,-0.133 0.941,-0.395 l 8.036,-8.035 c 0.523,-0.524 0.523,-1.371 0,-1.895 -0.524,-0.523 -1.372,-0.523 -1.895,0 l -5.75,5.75 z m 9.371,40.852 V 37.09 c 1.481,-0.938 2.832,-2.063 4.02,-3.34 v 16.477 c 0,3.328 -2.7,6.027 -6.028,6.027 H 48.207 v 6.691 h 4.695 c 1.016,0 1.856,0.758 1.989,1.739 l 0.019,0.273 c 0,1.016 -0.754,1.855 -1.734,1.988 l -0.274,0.02 H 22.098 c -1.11,0 -2.008,-0.899 -2.008,-2.008 0,-1.019 0.754,-1.859 1.734,-1.992 l 0.274,-0.02 h 4.687 V 56.254 H 11.383 c -3.328,0 -6.028,-2.699 -6.028,-6.027 V 14.062 c 0,-3.328 2.7,-6.027 6.028,-6.027 H 38.84 c -0.93,1.235 -1.719,2.582 -2.348,4.016 H 11.383 c -1.11,0 -2.008,0.902 -2.008,2.011 v 36.165 c 0,1.109 0.898,2.011 2.008,2.011 l 34.82,-0.008 0.074,0.004 17.336,0.004 c 1.11,0 2.008,-0.902 2.008,-2.011 z m -21.43,6.027 H 30.805 v 6.691 h 13.386 z" style="fill:currentColor;fill-opacity:1;fill-rule:nonzero;stroke:none" transform="scale(1.3333333)" /> </g>
</svg>

