<?xml version="1.0" encoding="UTF-8" standalone="no"?> <svg version="1.1" id="I31f22bc539e048dfb446abe96cb0b6ab20251110124419" width="100" height="100" viewBox="0 0 100 100" xmlns="http://www.w3.org/2000/svg" xmlns:svg="http://www.w3.org/2000/svg"> <defs id="Ifd9b7c14d37a464192221f53cdadbf3920251110124419" /> <g id="I123813acaec4487b95dbd13a344d233720251110124419"> <path id="I362ae6ba3808442f8d248ee8cf7908c720251110124419" d="m 53.562,12.156 -4.097,4.098 c -9.293,-5.238 -21.289,-3.902 -29.199,4.012 -5.719,5.714 -8,13.562 -6.852,20.984 H 7.734 C 6.621,32.375 9.473,23.102 16.285,16.285 26.41,6.164 41.965,4.789 53.562,12.156 Z M 37.5,63.75 v -1.875 c 6.238,0 12.477,-2.379 17.234,-7.141 1.102,-1.097 2.879,-1.097 3.981,0 1.097,1.102 1.097,2.879 0,3.981 -6.024,6.019 -13.965,8.945 -21.852,8.777 0.41,-1.172 0.637,-2.43 0.637,-3.742 z m 0,-9.375 v 2.25 c 4.895,0 9.789,-1.867 13.523,-5.602 1.098,-1.097 1.098,-2.878 0,-3.976 -1.097,-1.098 -2.878,-1.098 -3.976,0 -2.934,2.93 -6.879,4.234 -10.711,3.902 0.73,0.949 1.164,2.137 1.164,3.426 z M 24.375,41.25 c 0.051,0 0.102,0 0.156,0.004 -1.32,-4.57 -0.176,-9.699 3.422,-13.301 3.59,-3.586 8.695,-4.734 13.25,-3.437 l 4.363,-4.364 C 38.488,16.863 29.816,18.137 23.977,23.977 19.285,28.668 17.539,35.195 18.746,41.25 Z M 59.176,15.824 c 1.097,1.098 1.097,2.879 0,3.977 L 42.934,36.043 c 0.125,0.465 0.191,0.953 0.191,1.457 0,3.105 -2.52,5.625 -5.625,5.625 -3.105,0 -5.625,-2.52 -5.625,-5.625 0,-3.105 2.52,-5.625 5.625,-5.625 0.504,0 0.992,0.066 1.457,0.191 L 55.199,15.824 c 1.098,-1.097 2.879,-1.097 3.977,0 z m 5.512,33.864 c 0,1.554 -1.258,2.812 -2.813,2.812 -1.555,0 -2.813,-1.258 -2.813,-2.812 0,-1.555 1.258,-2.813 2.813,-2.813 1.555,0 2.813,1.258 2.813,2.813 z M 61.875,28.125 c 1.555,0 2.813,-1.258 2.813,-2.813 0,-1.554 -1.258,-2.812 -2.813,-2.812 -1.555,0 -2.813,1.258 -2.813,2.812 0,1.555 1.258,2.813 2.813,2.813 z M 67.5,42.188 c 0,1.554 -1.258,2.812 -2.812,2.812 -1.555,0 -2.813,-1.258 -2.813,-2.812 0,-1.555 1.258,-2.813 2.813,-2.813 1.554,0 2.812,1.258 2.812,2.813 z m -2.812,-6.563 c 1.554,0 2.812,-1.258 2.812,-2.813 C 67.5,31.258 66.242,30 64.688,30 c -1.555,0 -2.813,1.258 -2.813,2.812 0,1.555 1.258,2.813 2.813,2.813 z m -8.438,6.563 c 0,1.554 -1.258,2.812 -2.812,2.812 -1.555,0 -2.813,-1.258 -2.813,-2.812 0,-1.555 1.258,-2.813 2.813,-2.813 1.554,0 2.812,1.258 2.812,2.813 z m -2.812,-6.563 c 1.554,0 2.812,-1.258 2.812,-2.813 0,-1.554 -1.258,-2.812 -2.812,-2.812 -1.555,0 -2.813,1.258 -2.813,2.812 0,1.555 1.258,2.813 2.813,2.813 z M 5.625,45 C 4.59,45 3.75,45.84 3.75,46.875 v 15 c 0,1.035 0.84,1.875 1.875,1.875 h 18.75 c 1.035,0 1.875,-0.84 1.875,-1.875 v -15 C 26.25,45.84 25.41,45 24.375,45 Z m 26.25,7.5 c 1.035,0 1.875,0.84 1.875,1.875 v 9.375 c 0,4.141 -3.359,7.5 -7.5,7.5 H 13.125 c -1.035,0 -1.875,-0.84 -1.875,-1.875 0,-1.035 0.84,-1.875 1.875,-1.875 H 26.25 C 28.32,67.5 30,65.82 30,63.75 V 54.375 C 30,53.34 30.84,52.5 31.875,52.5 Z" style="fill:currentColor;fill-opacity:1;fill-rule:nonzero;stroke:none" transform="scale(1.3333333)" /> </g>
</svg>

