<?xml version="1.0" encoding="UTF-8" standalone="no"?> <svg version="1.1" id="I1d6cf25d4e654f14897cb8bae8fdd35420251106123559" width="100" height="100" viewBox="0 0 100 100" xmlns="http://www.w3.org/2000/svg" xmlns:svg="http://www.w3.org/2000/svg"> <defs id="Ic51f3e0b0259459ebe37020c2499c18f20251106123559" /> <g id="Ifc527b49a3d2402788364f6b04c8ff5a20251106123559"> <path id="Ie302c87cd6d6436cbdfc69e4ee1cf35b20251106123559" d="m 37.5,6.238 c 12.656,0 22.988,9.985 23.426,22.653 l 0.012,0.785 v 12.801 l 4.312,9.863 c 0.215,0.496 0.328,1.027 0.328,1.566 0,2.156 -1.75,3.906 -3.906,3.906 l -14.797,0.004 c 0,5.18 -4.195,9.375 -9.375,9.375 -4.992,0 -9.074,-3.902 -9.359,-8.824 l -0.016,-0.558 -14.766,0.003 c -0.535,0 -1.066,-0.109 -1.558,-0.324 C 9.824,56.629 8.918,54.328 9.777,52.352 L 14.062,42.48 V 29.676 C 14.062,16.691 24.539,6.238 37.5,6.238 Z m 4.688,51.571 -9.376,0.007 c 0,2.59 2.098,4.688 4.688,4.688 2.438,0 4.438,-1.859 4.664,-4.234 z M 37.5,10.926 c -10.375,0 -18.75,8.355 -18.75,18.75 v 13.781 l -4.199,9.668 H 60.477 L 56.25,43.457 V 29.715 L 56.238,29.012 C 55.891,18.906 47.629,10.926 37.5,10.926 Z m 28.125,14.855 h 6.25 c 1.293,0 2.344,1.051 2.344,2.344 0,1.187 -0.883,2.168 -2.028,2.32 l -0.316,0.024 h -6.25 c -1.293,0 -2.344,-1.051 -2.344,-2.344 0,-1.187 0.883,-2.168 2.028,-2.324 z m -62.5,0 h 6.25 c 1.293,0 2.344,1.051 2.344,2.344 0,1.187 -0.883,2.168 -2.028,2.32 l -0.316,0.024 h -6.25 c -1.293,0 -2.344,-1.051 -2.344,-2.344 0,-1.187 0.883,-2.168 2.028,-2.324 z m 67.5,-17.812 c 0.707,0.941 0.598,2.242 -0.207,3.051 l -0.262,0.23 -6.25,4.688 c -1.035,0.777 -2.504,0.566 -3.281,-0.469 -0.707,-0.942 -0.598,-2.242 0.207,-3.055 l 0.262,-0.226 6.25,-4.688 c 1.035,-0.777 2.504,-0.566 3.281,0.469 z M 7.656,7.5 l 6.25,4.688 c 1.035,0.777 1.246,2.246 0.469,3.281 -0.777,1.035 -2.246,1.246 -3.281,0.469 L 4.844,11.25 C 3.809,10.473 3.598,9.004 4.375,7.969 5.152,6.934 6.621,6.723 7.656,7.5 Z" style="fill:currentColor;fill-opacity:1;fill-rule:nonzero;stroke:none" transform="scale(1.3333333)" /> </g>
</svg>

