<?xml version="1.0" encoding="UTF-8" standalone="no"?> <svg version="1.1" id="If47aa0a040d54330a00b5b66fbaf80f220251106165302" width="100" height="100" viewBox="0 0 100 100" xmlns="http://www.w3.org/2000/svg" xmlns:svg="http://www.w3.org/2000/svg"> <defs id="I18d2d0187e79405aa9619a70ff66ed7420251106165302" /> <g id="I7fc093d835ad43ac9c437438000a0f7c20251106165302"> <path id="I9c5dd08160b546b7aa29b03f2775a9b820251106165302" d="M 19.922,37.5 C 29.629,37.5 37.5,29.629 37.5,19.922 37.5,10.215 29.629,2.344 19.922,2.344 c -9.707,0 -17.578,7.871 -17.578,17.578 0,9.707 7.871,17.578 17.578,17.578 z M 22.266,8.789 v 8.789 h 8.789 c 0.972,0 1.757,0.785 1.757,1.758 0,0.973 -0.785,1.758 -1.757,1.758 h -8.789 v 8.789 c 0,0.972 -0.786,1.758 -1.758,1.758 -0.973,0 -1.758,-0.786 -1.758,-1.758 V 21.094 H 9.961 c -0.973,0 -1.758,-0.785 -1.758,-1.758 0,-0.973 0.785,-1.758 1.758,-1.758 H 18.75 V 8.789 c 0,-0.973 0.785,-1.758 1.758,-1.758 0.972,0 1.758,0.785 1.758,1.758 z M 7.031,36.621 c 1.43,1.102 3,2.027 4.688,2.738 v 18.063 c 0,0.676 0.113,1.328 0.328,1.933 L 33.355,38.043 c 2.29,-2.285 6,-2.285 8.29,0 l 21.308,21.312 c 0.215,-0.605 0.328,-1.257 0.328,-1.933 V 17.578 c 0,-3.234 -2.625,-5.859 -5.859,-5.859 H 39.359 C 38.648,10.031 37.723,8.461 36.621,7.031 h 20.801 c 5.824,0 10.547,4.723 10.547,10.547 v 39.844 c 0,5.824 -4.723,10.547 -10.547,10.547 H 17.578 C 11.754,67.969 7.031,63.246 7.031,57.422 Z M 59.766,62.793 38.328,41.359 c -0.457,-0.457 -1.199,-0.457 -1.656,0 L 15.234,62.793 c 0.719,0.316 1.512,0.488 2.344,0.488 h 39.844 c 0.832,0 1.625,-0.172 2.344,-0.488 z M 42.188,25.781 c 0,-4.531 3.671,-8.203 8.203,-8.203 4.531,0 8.203,3.672 8.203,8.203 0,4.531 -3.672,8.203 -8.203,8.203 -4.532,0 -8.203,-3.672 -8.203,-8.203 z m 8.203,-3.515 c -1.942,0 -3.516,1.574 -3.516,3.515 0,1.942 1.574,3.516 3.516,3.516 1.941,0 3.515,-1.574 3.515,-3.516 0,-1.941 -1.574,-3.515 -3.515,-3.515 z" style="fill:currentColor;fill-opacity:1;fill-rule:nonzero;stroke:none" transform="scale(1.3333333)" /> </g>
</svg>

