<?xml version="1.0" encoding="UTF-8" standalone="no"?> <svg version="1.1" id="I8993a997e2d84d8989052718b38cd37320251110130509" width="100" height="100" viewBox="0 0 100 100" xmlns="http://www.w3.org/2000/svg" xmlns:svg="http://www.w3.org/2000/svg"> <defs id="I4682bfcc9b014d3c968ea386bbeca09120251110130509" /> <g id="Iecd426e9a471471c9fe9c6d5a9db402f20251110130509"> <path id="I6d33a3daa4cf43768e50bcf1a339583820251110130509" d="M 15.004,22.5 V 45 c 0,8.285 6.715,15 15,15 h 22.5 c 0.305,0 0.605,-0.012 0.906,-0.027 -2.062,2.316 -5.062,3.777 -8.406,3.777 h -15 C 19.648,63.75 11.254,55.355 11.254,45 V 30 c 0,-3.344 1.461,-6.344 3.777,-8.406 -0.015,0.301 -0.027,0.601 -0.027,0.906 z M 30,45 V 56.25 C 23.785,56.25 18.75,51.215 18.75,45 Z m 18.75,0 v 11.25 h -15 V 45 Z m 15,0 c 0,6.215 -5.035,11.25 -11.25,11.25 V 45 Z M 30,26.25 v 15 H 18.75 v -15 z m 18.75,0 v 15 h -15 v -15 z m 15,0 v 15 H 52.5 v -15 z M 30,22.5 H 18.75 C 18.75,16.285 23.785,11.25 30,11.25 Z M 48.75,11.25 V 22.5 h -15 V 11.25 Z m 3.75,0 c 6.215,0 11.25,5.035 11.25,11.25 H 52.5 Z" style="fill:currentColor;fill-opacity:1;fill-rule:nonzero;stroke:none" transform="scale(1.3333333)" /> </g>
</svg>

