<?xml version="1.0" encoding="UTF-8" standalone="no"?> <svg version="1.1" id="I266e52c6238845249d92cd8bf1cdaf2b20251110124422" width="100" height="100" viewBox="0 0 100 100" xmlns="http://www.w3.org/2000/svg" xmlns:svg="http://www.w3.org/2000/svg"> <defs id="Ide6a1689791e49acbd894908350ea71020251110124422" /> <g id="I8ad56886630040fd943ee76dee69e8b720251110124422"> <path id="I3593222453914abe90696cae296e0c8420251110124422" d="m 21.875,21.875 v -6.25 c 0,-5.176 4.199,-9.375 9.375,-9.375 2.402,0 4.59,0.902 6.25,2.387 1.66,-1.485 3.848,-2.387 6.25,-2.387 5.18,0 9.375,4.199 9.375,9.375 v 6.25 h 4.687 c 2.59,0 4.688,2.098 4.688,4.687 v 9.372 c -2.406,-1.004 -5.043,-1.559 -7.812,-1.559 -3.383,0 -6.571,0.828 -9.376,2.289 V 21.875 h 3.126 v -6.25 c 0,-2.59 -2.098,-4.687 -4.688,-4.687 -1.453,0 -2.75,0.66 -3.613,1.699 0.316,0.937 0.488,1.945 0.488,2.988 v 24.406 c -3.852,3.696 -6.25,8.895 -6.25,14.657 0,5.457 2.152,10.414 5.656,14.062 H 25 c -6.902,0 -12.5,-5.598 -12.5,-12.5 V 26.562 c 0,-2.589 2.098,-4.687 4.688,-4.687 z m 4.687,-6.25 v 6.25 h 9.376 v -6.25 c 0,-2.59 -2.098,-4.687 -4.688,-4.687 -2.59,0 -4.688,2.097 -4.688,4.687 z m 45.313,39.063 c 0,9.492 -7.695,17.187 -17.187,17.187 C 45.195,71.875 37.5,64.18 37.5,54.688 37.5,45.195 45.195,37.5 54.688,37.5 c 9.492,0 17.187,7.695 17.187,17.188 z M 49.543,47.332 c -0.609,-0.609 -1.602,-0.609 -2.211,0 -0.609,0.609 -0.609,1.602 0,2.211 l 5.145,5.145 -5.145,5.144 c -0.609,0.609 -0.609,1.602 0,2.211 0.609,0.609 1.602,0.609 2.211,0 l 5.145,-5.145 5.144,5.145 c 0.609,0.609 1.602,0.609 2.211,0 0.609,-0.609 0.609,-1.602 0,-2.211 l -5.145,-5.144 5.145,-5.145 c 0.609,-0.609 0.609,-1.602 0,-2.211 -0.609,-0.609 -1.602,-0.609 -2.211,0 l -5.144,5.145 z" style="fill:currentColor;fill-opacity:1;fill-rule:nonzero;stroke:none" transform="scale(1.3333333)" /> </g>
</svg>

