<?xml version="1.0" encoding="UTF-8" standalone="no"?> <svg version="1.1" id="I6e0b6ee9473345b0b95e418275f5053f20251106113050" width="100" height="100" viewBox="0 0 100 100" xmlns="http://www.w3.org/2000/svg" xmlns:svg="http://www.w3.org/2000/svg"> <defs id="Ie0f6db8fcf4140f4af95380c415b7be820251106113050" /> <g id="I23b088442681409986740185b974f02120251106113050"> <path id="Ia324341049dc445da22d24051f7277d420251106113050" d="M 64.285,0 H 10.715 C 9.234,0 8.035,1.195 8.035,2.68 v 69.64 c 0,1.485 1.199,2.68 2.68,2.68 h 53.57 c 1.481,0 2.68,-1.195 2.68,-2.68 V 2.68 C 66.965,1.195 65.766,0 64.285,0 Z M 14.062,6.027 H 60.938 V 23.438 H 14.062 Z m 46.876,40.18 H 14.062 V 28.793 h 46.876 z m 0,22.766 H 14.062 V 51.562 H 60.938 Z M 20.09,14.73 c 0,4.465 6.695,4.465 6.695,0 0,-4.46 -6.695,-4.46 -6.695,0 z m 0,22.77 c 0,4.465 6.695,4.465 6.695,0 0,-4.465 -6.695,-4.465 -6.695,0 z m 0,22.77 c 0,4.46 6.695,4.46 6.695,0 0,-4.465 -6.695,-4.465 -6.695,0 z" style="fill:currentColor;fill-opacity:1;fill-rule:nonzero;stroke:none" transform="scale(1.3333333)" /> </g>
</svg>

