<?xml version="1.0" encoding="UTF-8" standalone="no"?> <svg version="1.1" id="Iffc39dd572734efd912aa24f4c3fd7b020251106171633" width="100" height="100" viewBox="0 0 100 100" xmlns="http://www.w3.org/2000/svg" xmlns:svg="http://www.w3.org/2000/svg"> <defs id="I0643e257a6d049579d43dacdc1888e3c20251106171633" /> <g id="I1f17109173c442a39c476c3f4b0f56c920251106171633"> <path id="I26f34a40106d468facbfa047a5f1d72020251106171633" d="m 5.355,15.402 c 0,-1.109 0.903,-2.007 2.012,-2.007 h 60.266 c 1.109,0 2.012,0.898 2.012,2.007 0,1.11 -0.903,2.008 -2.012,2.008 H 7.367 c -1.109,0 -2.012,-0.898 -2.012,-2.008 z m 0,42.856 c 0,-1.11 0.903,-2.008 2.012,-2.008 h 43.649 c -2.996,0 -5.614,1.613 -7.032,4.02 H 7.367 c -1.109,0 -2.012,-0.903 -2.012,-2.012 z M 67.633,38.84 H 65.457 C 63.922,37.984 62.152,37.5 60.27,37.5 c -1.887,0 -3.657,0.484 -5.192,1.34 H 7.367 c -1.109,0 -2.012,-0.899 -2.012,-2.008 0,-1.109 0.903,-2.012 2.012,-2.012 h 60.266 c 1.109,0 2.012,0.903 2.012,2.012 0,1.109 -0.903,2.008 -2.012,2.008 z m 0.672,9.375 c 0,4.437 -3.598,8.035 -8.035,8.035 -4.442,0 -8.04,-3.598 -8.04,-8.035 0,-4.438 3.598,-8.035 8.04,-8.035 4.437,0 8.035,3.597 8.035,8.035 z M 75,64.957 C 75,69.957 70.789,75 60.27,75 49.746,75 45.535,69.977 45.535,64.957 v -0.551 c 0,-3.027 2.453,-5.476 5.481,-5.476 H 69.52 c 3.027,0 5.48,2.449 5.48,5.476 z" style="fill:currentColor;fill-opacity:1;fill-rule:nonzero;stroke:none" transform="scale(1.3333333)" /> </g>
</svg>

