<?xml version="1.0" encoding="UTF-8" standalone="no"?> <svg version="1.1" id="I88d0c58b686449dab1e4f6580ee1c35720251106152728" width="100" height="100" viewBox="0 0 100 100" xmlns="http://www.w3.org/2000/svg" xmlns:svg="http://www.w3.org/2000/svg"> <defs id="I96a2f4a5b77a43f890aaf92421966a6b20251106152728" /> <g id="I05a212326b0a4fc1986f42aacc60259a20251106152728"> <path id="I356f53bd99d14f0cbcf26b725207af7320251106152728" d="m 47.543,9.375 c -3.328,0 -6.023,2.699 -6.023,6.027 0,3.328 2.695,6.028 6.023,6.028 h 1.34 c 1.109,0 2.012,0.898 2.012,2.008 0,1.109 -0.903,2.007 -2.012,2.007 h -1.34 C 41.996,25.445 37.5,20.949 37.5,15.402 37.5,9.855 41.996,5.355 47.543,5.355 h 1.34 c 1.109,0 2.012,0.903 2.012,2.012 0,1.11 -0.903,2.008 -2.012,2.008 z m -2.008,6.027 c 0,-1.109 0.899,-2.007 2.008,-2.007 h 14.734 c 1.11,0 2.008,0.898 2.008,2.007 0,1.11 -0.898,2.008 -2.008,2.008 H 47.543 c -1.109,0 -2.008,-0.898 -2.008,-2.008 z m 16.742,6.028 c 3.328,0 6.028,-2.7 6.028,-6.028 0,-3.328 -2.7,-6.027 -6.028,-6.027 h -1.339 c -1.11,0 -2.008,-0.898 -2.008,-2.008 0,-1.109 0.898,-2.012 2.008,-2.012 h 1.339 c 5.547,0 10.043,4.5 10.043,10.047 0,5.547 -4.496,10.043 -10.043,10.043 h -1.339 c -1.11,0 -2.008,-0.898 -2.008,-2.007 0,-1.11 0.898,-2.008 2.008,-2.008 z M 34.82,15.402 c 0,-2.746 0.871,-5.289 2.348,-7.367 H 15.402 c -5.547,0 -10.047,4.496 -10.047,10.047 v 28.125 c 0,5.547 4.5,10.043 10.047,10.043 h 3.348 v 8.828 c 0,3.82 4.328,6.039 7.43,3.801 L 43.684,56.25 h 15.914 c 5.547,0 10.047,-4.496 10.047,-10.043 v -20.43 c -2.083,1.477 -4.622,2.348 -7.368,2.348 H 47.543 C 40.52,28.125 34.82,22.43 34.82,15.402 Z" style="fill:currentColor;fill-opacity:1;fill-rule:nonzero;stroke:none" transform="scale(1.3333333)" /> </g>
</svg>

