<?xml version="1.0" encoding="UTF-8" standalone="no"?> <svg version="1.1" id="Id87df7de4fd942e0906576afa0ca7e8520251110124421" width="100" height="100" viewBox="0 0 100 100" xmlns="http://www.w3.org/2000/svg" xmlns:svg="http://www.w3.org/2000/svg"> <defs id="I2ca162872cbc4912bd6747c286bac51920251110124421" /> <g id="Ib487dc3b3d5b4bd2b70573cd6338014720251110124421"> <path id="I05162b5d1da04a89bbe5fecdd7cbcbaf20251110124421" d="m 26.27,11.035 -0.813,4.192 c -0.629,3.265 -4.008,5.214 -7.152,4.128 l -4.039,-1.394 c -0.739,1 -1.368,2.082 -1.871,3.227 l 3.23,2.808 c 2.512,2.18 2.512,6.078 0,8.258 l -3.23,2.808 c 0.503,1.145 1.132,2.227 1.867,3.227 l 4.043,-1.394 c 3.144,-1.086 6.523,0.863 7.152,4.128 l 0.813,4.192 c 1.226,0.129 2.511,0.129 3.734,-0.004 l 0.812,-4.188 c 0.633,-3.265 4.008,-5.214 7.153,-4.128 l 4.023,1.386 c 0.735,-1 1.367,-2.086 1.871,-3.234 l -3.215,-2.793 c -2.511,-2.18 -2.511,-6.078 0,-8.258 l 3.215,-2.793 c -0.508,-1.148 -1.136,-2.234 -1.871,-3.238 l -4.023,1.39 c -3.145,1.086 -6.52,-0.863 -7.153,-4.128 L 30.008,11.039 C 28.781,10.906 27.496,10.906 26.27,11.035 Z M 23.824,6.672 c 1.391,-0.277 2.832,-0.422 4.301,-0.422 1.48,0 2.93,0.148 4.332,0.43 0.93,0.187 1.656,0.918 1.84,1.851 l 1.121,5.801 c 0.09,0.469 0.574,0.746 1.023,0.59 L 42.016,13 c 0.898,-0.312 1.894,-0.047 2.523,0.664 1.902,2.156 3.387,4.695 4.324,7.484 0.305,0.899 0.032,1.895 -0.683,2.516 l -4.457,3.871 c -0.36,0.313 -0.36,0.867 0,1.18 l 4.457,3.867 c 0.718,0.625 0.988,1.617 0.683,2.52 -0.937,2.789 -2.422,5.324 -4.32,7.484 -0.629,0.711 -1.625,0.973 -2.523,0.664 l -5.579,-1.926 c -0.449,-0.156 -0.933,0.125 -1.023,0.59 l -1.125,5.805 c -0.18,0.933 -0.906,1.664 -1.836,1.851 C 31.055,49.852 29.605,50 28.125,50 26.656,50 25.219,49.855 23.824,49.578 22.891,49.391 22.164,48.66 21.98,47.723 l -1.125,-5.809 c -0.089,-0.465 -0.57,-0.746 -1.019,-0.59 l -5.598,1.934 C 13.34,43.566 12.344,43.305 11.715,42.59 9.816,40.438 8.332,37.906 7.391,35.121 7.09,34.219 7.359,33.223 8.078,32.602 l 4.477,-3.887 c 0.359,-0.313 0.359,-0.867 0,-1.18 L 8.078,23.648 C 7.359,23.023 7.09,22.031 7.395,21.129 c 0.937,-2.785 2.421,-5.317 4.324,-7.473 0.625,-0.711 1.621,-0.972 2.519,-0.664 l 5.598,1.93 c 0.449,0.156 0.93,-0.121 1.019,-0.59 L 21.98,8.527 C 22.164,7.59 22.891,6.859 23.824,6.672 Z M 43.562,45.73 c -0.597,-0.207 -1.265,-0.035 -1.648,0.469 -0.703,0.922 -1.289,1.938 -1.746,3.02 -0.25,0.582 -0.059,1.25 0.418,1.664 l 3.148,2.73 c 0.653,0.567 0.653,1.578 0,2.145 l -3.148,2.734 c -0.481,0.414 -0.668,1.082 -0.422,1.664 0.461,1.082 1.047,2.094 1.746,3.02 0.383,0.504 1.055,0.676 1.652,0.469 l 3.938,-1.36 c 0.816,-0.281 1.695,0.223 1.859,1.07 l 0.789,4.09 c 0.122,0.625 0.606,1.121 1.235,1.2 0.57,0.07 1.152,0.105 1.742,0.105 0.59,0 1.172,-0.035 1.742,-0.105 0.629,-0.079 1.113,-0.575 1.235,-1.2 l 0.789,-4.09 c 0.164,-0.847 1.043,-1.351 1.859,-1.07 l 3.938,1.36 c 0.597,0.207 1.269,0.035 1.652,-0.469 0.699,-0.926 1.285,-1.938 1.746,-3.02 0.246,-0.582 0.059,-1.25 -0.422,-1.664 l -3.148,-2.734 c -0.653,-0.567 -0.653,-1.578 0,-2.145 l 3.148,-2.73 c 0.477,-0.414 0.668,-1.082 0.418,-1.664 -0.457,-1.082 -1.043,-2.098 -1.746,-3.02 -0.383,-0.504 -1.051,-0.676 -1.648,-0.469 l -3.938,1.36 c -0.816,0.281 -1.695,-0.227 -1.859,-1.074 L 56.102,41.93 c -0.122,-0.625 -0.606,-1.121 -1.235,-1.2 -0.57,-0.07 -1.152,-0.105 -1.742,-0.105 -0.59,0 -1.172,0.035 -1.742,0.105 -0.629,0.079 -1.113,0.575 -1.235,1.2 l -0.789,4.086 c -0.164,0.847 -1.043,1.355 -1.859,1.074 z m 9.563,12.864 c -2.16,0 -3.91,-1.746 -3.91,-3.906 0,-2.157 1.75,-3.907 3.91,-3.907 2.156,0 3.906,1.75 3.906,3.907 0,2.16 -1.75,3.906 -3.906,3.906 z M 25,28.125 C 25,26.398 26.398,25 28.125,25 c 1.727,0 3.125,1.398 3.125,3.125 0,1.727 -1.398,3.125 -3.125,3.125 C 26.398,31.25 25,29.852 25,28.125 Z m 3.125,-7.813 c -4.316,0 -7.813,3.497 -7.813,7.813 0,4.313 3.497,7.813 7.813,7.813 4.316,0 7.813,-3.5 7.813,-7.813 0,-4.316 -3.497,-7.813 -7.813,-7.813 z" style="fill:currentColor;fill-opacity:1;fill-rule:nonzero;stroke:none" transform="scale(1.3333333)" /> </g>
</svg>

