<?xml version="1.0" encoding="UTF-8" standalone="no"?> <svg version="1.1" id="I5f16be93c6874c898f15e6b066e603b320251110123030" width="100" height="100" viewBox="0 0 100 100" xmlns="http://www.w3.org/2000/svg" xmlns:svg="http://www.w3.org/2000/svg"> <defs id="I9077982bb4ff45e18676ddd7d7986be020251110123030" /> <g id="Ie7909e5a9ff24effa11d6802d7393a2c20251110123030"> <path id="I51a8745b954044fd954def08a845391120251110123030" d="m 51.668,8.438 c 4.113,-4.114 10.781,-4.114 14.894,0 4.114,4.113 4.114,10.781 0,14.894 L 54.898,34.996 C 54.023,34.883 53.137,34.82 52.23,34.82 c -11.093,0 -20.085,8.996 -20.085,20.09 0,0.906 0.058,1.793 0.171,2.664 l -5.359,5.367 c -1.184,1.18 -2.645,2.036 -4.254,2.485 l -14.797,4.14 c -0.699,0.2 -1.449,0 -1.961,-0.511 C 5.434,68.539 5.234,67.789 5.43,67.094 L 9.574,52.293 c 0.449,-1.605 1.305,-3.07 2.485,-4.25 z M 69.645,54.91 c 0,9.617 -7.797,17.41 -17.415,17.41 -9.613,0 -17.41,-7.793 -17.41,-17.41 0,-9.617 7.797,-17.41 17.41,-17.41 9.618,0 17.415,7.793 17.415,17.41 z m -24.5,-8.98 c -0.524,-0.524 -1.372,-0.524 -1.895,0 -0.523,0.519 -0.523,1.371 0,1.89 l 7.09,7.09 -7.09,7.09 c -0.523,0.523 -0.523,1.371 0,1.895 0.523,0.523 1.371,0.523 1.895,0 l 7.085,-7.09 7.09,7.09 c 0.524,0.523 1.371,0.523 1.895,0 0.523,-0.524 0.523,-1.372 0,-1.895 l -7.09,-7.09 7.09,-7.09 c 0.523,-0.519 0.523,-1.371 0,-1.89 -0.524,-0.524 -1.371,-0.524 -1.895,0 l -7.09,7.086 z" style="fill:currentColor;fill-opacity:1;fill-rule:nonzero;stroke:none" transform="scale(1.3333333)" /> </g>
</svg>

