<?xml version="1.0" encoding="UTF-8" standalone="no"?> <svg version="1.1" id="I8c80c02f102f455cbe327fd94ef88b4f20251106155156" width="100" height="100" viewBox="0 0 100 100" xmlns="http://www.w3.org/2000/svg" xmlns:svg="http://www.w3.org/2000/svg"> <defs id="I16c33bb88750466db9b59f416b02fd2020251106155156" /> <g id="I28cb0ddf42114519a5b5769fcd84278a20251106155156"> <path id="I6591fe7bb72940ee9c8eb47e87a3050720251106155156" d="m 71.875,20.316 c 0,9.496 -7.691,17.196 -17.184,17.196 -9.488,0 -17.183,-7.7 -17.183,-17.196 0,-9.492 7.695,-17.191 17.183,-17.191 9.493,0 17.184,7.699 17.184,17.191 z M 49.547,12.961 c -0.609,-0.609 -1.598,-0.609 -2.207,0 -0.61,0.609 -0.61,1.598 0,2.211 l 5.144,5.144 -5.144,5.149 c -0.61,0.609 -0.61,1.597 0,2.211 0.609,0.609 1.598,0.609 2.207,0 l 5.144,-5.149 5.145,5.149 c 0.609,0.609 1.598,0.609 2.211,0 0.609,-0.614 0.609,-1.602 0,-2.211 l -5.145,-5.149 5.145,-5.144 c 0.609,-0.613 0.609,-1.602 0,-2.211 -0.613,-0.609 -1.602,-0.609 -2.211,0 l -5.145,5.144 z m 5.144,27.676 c 2.762,0 5.395,-0.551 7.797,-1.551 v 22.629 c 0,3.723 -2.89,6.769 -6.55,7.019 L 55.457,68.75 H 19.531 c -3.722,0 -6.769,-2.891 -7.015,-6.551 L 12.5,61.715 V 13.27 c 0,-3.723 2.891,-6.77 6.547,-7.016 l 0.484,-0.016 h 20.52 c -3.508,3.653 -5.664,8.614 -5.664,14.078 0,11.223 9.09,20.321 20.304,20.321 z m -28.117,9.379 c -2.586,0 -4.687,2.097 -4.687,4.687 0,2.59 2.101,4.688 4.687,4.688 h 21.871 c 2.586,0 4.684,-2.098 4.684,-4.688 0,-2.59 -2.098,-4.687 -4.684,-4.687 z" style="fill:currentColor;fill-opacity:1;fill-rule:nonzero;stroke:none" transform="scale(1.3333333)" /> </g>
</svg>

