<?xml version="1.0" encoding="UTF-8" standalone="no"?> <svg version="1.1" id="Ie8de2703e7614f76991a2c8cf7f9880a20251106171633" width="100" height="100" viewBox="0 0 100 100" xmlns="http://www.w3.org/2000/svg" xmlns:svg="http://www.w3.org/2000/svg"> <defs id="I3e25f4edcbcf4414b2e34dc7e599da9920251106171633" /> <g id="Ib47f8a32b09f42d0a7ee8144f8ad33f920251106171633"> <path id="I55abfe733ab34a148f3a3e5f117771fd20251106171633" d="m 28.125,6.25 c -7.766,0 -14.063,6.297 -14.063,14.062 v 29.376 c 0,3.062 1.958,5.664 4.688,6.632 V 20.312 c 0,-5.175 4.199,-9.374 9.375,-9.374 H 43.758 C 42.789,8.207 40.188,6.25 37.125,6.25 Z" style="fill:currentColor;fill-opacity:1;fill-rule:nonzero;stroke:none" transform="scale(1.3333333)" /> <path id="I1980db980e974ac6bd5b2c81d5a6c96320251106171633" d="m 21.875,21.094 c 0,-3.883 3.148,-7.032 7.031,-7.032 H 46.875 V 8.594 c 0,-1.293 1.051,-2.344 2.344,-2.344 1.293,0 2.343,1.051 2.343,2.344 v 57.812 c 0,1.293 -1.05,2.344 -2.343,2.344 -1.293,0 -2.344,-1.051 -2.344,-2.344 V 62.5 H 28.906 c -3.883,0 -7.031,-3.148 -7.031,-7.031 z" style="fill:currentColor;fill-opacity:1;fill-rule:nonzero;stroke:none" transform="scale(1.3333333)" /> </g>
</svg>

