<?xml version="1.0" encoding="UTF-8" standalone="no"?> <svg version="1.1" id="I7b906058151947a6abff7fde3f96d7f020251110123030" width="100" height="100" viewBox="0 0 100 100" xmlns="http://www.w3.org/2000/svg" xmlns:svg="http://www.w3.org/2000/svg"> <defs id="I0df7917ca0b34cad8415cfe67a77a99b20251110123030" /> <g id="I93bc957c9b2f4e26808e8de84535d07d20251110123030"> <path id="Ib07e52b014a6427aa74bd2748d699b1f20251110123030" d="m 32.812,18.75 c 0,-2.59 2.098,-4.688 4.688,-4.688 2.59,0 4.688,2.098 4.688,4.688 0,2.59 -2.098,4.688 -4.688,4.688 -2.59,0 -4.688,-2.098 -4.688,-4.688 z M 37.5,9.375 c -5.176,0 -9.375,4.199 -9.375,9.375 0,5.176 4.199,9.375 9.375,9.375 5.176,0 9.375,-4.199 9.375,-9.375 0,-5.176 -4.199,-9.375 -9.375,-9.375 z m -7.031,21.094 c -3.883,0 -7.031,3.148 -7.031,7.031 v 8.203 c 0,1.293 1.05,2.344 2.343,2.344 1.293,0 2.344,-1.051 2.344,-2.344 V 37.5 c 0,-1.293 1.051,-2.344 2.344,-2.344 h 14.062 c 1.293,0 2.344,1.051 2.344,2.344 v 8.203 c 0,1.293 1.051,2.344 2.344,2.344 1.293,0 2.343,-1.051 2.343,-2.344 V 37.5 c 0,-3.883 -3.148,-7.031 -7.031,-7.031 z M 10.547,51.562 c -1.942,0 -3.516,1.575 -3.516,3.516 0,5.824 4.723,10.547 10.547,10.547 h 39.844 c 5.824,0 10.547,-4.723 10.547,-10.547 0,-1.941 -1.574,-3.516 -3.516,-3.516 z m 7.031,9.376 c -2.836,0 -5.199,-2.012 -5.742,-4.688 h 51.328 c -0.543,2.676 -2.906,4.688 -5.742,4.688 z M 54.816,35.156 h 6.122 c 1.292,0 2.343,1.051 2.343,2.344 v 8.203 c 0,1.293 1.051,2.344 2.344,2.344 1.293,0 2.344,-1.051 2.344,-2.344 V 37.5 c 0,-3.883 -3.149,-7.031 -7.031,-7.031 h -8.543 c 1.171,1.308 2.019,2.914 2.421,4.687 z M 22.609,30.469 h -8.547 c -3.882,0 -7.031,3.148 -7.031,7.031 v 8.203 c 0,1.293 1.051,2.344 2.344,2.344 1.293,0 2.344,-1.051 2.344,-2.344 V 37.5 c 0,-1.293 1.051,-2.344 2.343,-2.344 h 6.122 c 0.402,-1.773 1.25,-3.379 2.425,-4.687 z M 17.578,16.406 c -1.941,0 -3.516,1.574 -3.516,3.516 0,1.941 1.575,3.516 3.516,3.516 1.942,0 3.516,-1.575 3.516,-3.516 0,-1.942 -1.574,-3.516 -3.516,-3.516 z m -8.203,3.516 c 0,-4.531 3.672,-8.203 8.203,-8.203 4.531,0 8.203,3.672 8.203,8.203 0,4.531 -3.672,8.203 -8.203,8.203 -4.531,0 -8.203,-3.672 -8.203,-8.203 z m 44.531,0 c 0,-1.942 1.574,-3.516 3.516,-3.516 1.941,0 3.516,1.574 3.516,3.516 0,1.941 -1.575,3.516 -3.516,3.516 -1.942,0 -3.516,-1.575 -3.516,-3.516 z m 3.516,-8.203 c -4.531,0 -8.203,3.672 -8.203,8.203 0,4.531 3.672,8.203 8.203,8.203 4.531,0 8.203,-3.672 8.203,-8.203 0,-4.531 -3.672,-8.203 -8.203,-8.203 z" style="fill:currentColor;fill-opacity:1;fill-rule:nonzero;stroke:none" transform="scale(1.3333333)" /> </g>
</svg>

