<?xml version="1.0" encoding="UTF-8" standalone="no"?> <svg version="1.1" id="Ibb0b5542af4b4e4fbea10c32cddf72ab20251110124421" width="100" height="100" viewBox="0 0 100 100" xmlns="http://www.w3.org/2000/svg" xmlns:svg="http://www.w3.org/2000/svg"> <defs id="I499345ca5ba94294956f655299b3de3f20251110124421"> <radialGradient fx="0" fy="0" cx="0" cy="0" r="1" gradientUnits="userSpaceOnUse" gradientTransform="matrix(68.026828,84.70908,-71.563304,57.469927,-0.0580134,-12.785227)" spreadMethod="pad" id="I9da814c979344a68bf473936ca7d382720251110124421"> <stop style="stop-opacity:1;stop-color:#0fafff" offset="0" id="If8551af5c8c344118d345a3261845fb120251110124421" /> <stop style="stop-opacity:1;stop-color:#0fafff" offset="0.282523" id="Iaf6a364cb1394805a7a0fec83b5cb89920251110124421" /> <stop style="stop-opacity:1;stop-color:#0078d4" offset="1" id="Ibed5d03d5d124a13983941a73e9872fd20251110124421" /> </radialGradient> </defs> <g id="I4ee0e8d554b14bbcbfff0f26ddff227c20251110124421"> <path id="Ieb4468ca786e425ba1ef3bee42f2512320251110124421" d="m 39.57,5.547 c -1.144,-1.145 -2.996,-1.145 -4.14,0 L 17.266,23.711 c -1.145,1.144 -1.145,2.996 0,4.141 1.144,1.144 2.996,1.144 4.14,0 L 34.57,14.691 v 33.942 c 0,1.617 1.313,2.929 2.93,2.929 1.617,0 2.93,-1.312 2.93,-2.929 V 14.691 l 13.164,13.161 c 1.144,1.144 2.996,1.144 4.14,0 1.145,-1.145 1.145,-2.997 0,-4.141 z M 12.891,38.086 c 0,-1.617 -1.313,-2.93 -2.93,-2.93 -1.617,0 -2.93,1.313 -2.93,2.93 v 19.336 c 0,5.824 4.723,10.547 10.547,10.547 h 39.844 c 5.824,0 10.547,-4.723 10.547,-10.547 V 38.086 c 0,-1.617 -1.313,-2.93 -2.93,-2.93 -1.617,0 -2.93,1.313 -2.93,2.93 v 19.336 c 0,2.59 -2.097,4.687 -4.687,4.687 H 17.578 c -2.59,0 -4.687,-2.097 -4.687,-4.687 z" transform="scale(1.3333333)" style="fill:url(#I9da814c979344a68bf473936ca7d382720251110124421);stroke:none" /> </g>
</svg>

