<?xml version="1.0" encoding="UTF-8" standalone="no"?> <svg version="1.1" id="I2df3b93865df457d8a7e134814b3d2a320251110130507" width="100" height="100" viewBox="0 0 100 100" xmlns="http://www.w3.org/2000/svg" xmlns:svg="http://www.w3.org/2000/svg"> <defs id="I7a0b5e4a27704999ac04a1657ac60d9920251110130507" /> <g id="Ib2141d2ae16a4585814328581e33435720251110130507"> <path id="I2ad652d109ac4995b7103e3ab1366f0420251110130507" d="m 26.949,50.094 c 0.735,0.519 1.613,0.801 2.516,0.801 0.847,0 1.676,-0.25 2.383,-0.711 0.711,-0.465 1.269,-1.125 1.609,-1.903 l 2.059,-6.265 c 0.504,-1.508 1.347,-2.879 2.472,-4.004 1.125,-1.125 2.492,-1.973 4,-2.473 l 5.996,-1.949 c 0.852,-0.297 1.586,-0.856 2.106,-1.594 0.398,-0.562 0.656,-1.207 0.758,-1.891 0.097,-0.679 0.035,-1.375 -0.188,-2.023 -0.222,-0.652 -0.598,-1.242 -1.09,-1.719 -0.496,-0.48 -1.097,-0.832 -1.754,-1.035 l -5.933,-1.926 c -1.508,-0.5 -2.879,-1.347 -4.004,-2.468 -1.125,-1.122 -1.973,-2.493 -2.477,-4 L 33.453,10.941 C 33.152,10.094 32.598,9.359 31.863,8.84 31.121,8.328 30.246,8.055 29.344,8.055 c -0.899,0 -1.774,0.273 -2.516,0.785 -0.746,0.527 -1.308,1.277 -1.605,2.144 l -1.977,6.067 c -0.5,1.469 -1.332,2.801 -2.426,3.902 -1.093,1.098 -2.425,1.934 -3.89,2.442 l -6,1.949 C 10.074,25.645 9.336,26.203 8.816,26.945 8.297,27.688 8.02,28.57 8.023,29.477 8.031,30.383 8.32,31.266 8.848,32 c 0.531,0.734 1.277,1.285 2.136,1.574 l 5.934,1.926 c 1.512,0.508 2.891,1.355 4.02,2.484 0.3,0.301 0.585,0.625 0.843,0.961 0.715,0.918 1.262,1.953 1.625,3.055 l 1.949,5.984 c 0.301,0.852 0.856,1.586 1.594,2.11 z M 18.18,31.684 12.23,29.75 c 0,0 -0.226,-0.098 -0.226,-0.285 0.008,-0.067 0.035,-0.129 0.074,-0.184 0.039,-0.054 0.09,-0.097 0.152,-0.125 l 5.985,-1.941 c 2.078,-0.723 3.961,-1.914 5.504,-3.481 1.535,-1.574 2.695,-3.472 3.39,-5.558 l 1.93,-5.946 c 0,0 0.113,-0.222 0.305,-0.222 0.191,0 0.304,0.222 0.304,0.222 l 1.934,5.958 c 0.703,2.105 1.887,4.015 3.457,5.585 1.57,1.567 3.484,2.747 5.59,3.446 l 6.078,1.969 c 0.059,0.023 0.109,0.066 0.145,0.117 0.039,0.05 0.058,0.109 0.066,0.172 -0.008,0.066 -0.031,0.128 -0.07,0.183 -0.039,0.055 -0.09,0.098 -0.153,0.125 l -5.961,1.934 c -2.105,0.699 -4.019,1.879 -5.586,3.449 -1.57,1.566 -2.75,3.48 -3.449,5.586 l -1.914,5.894 c -0.012,0.075 -0.051,0.137 -0.109,0.184 -0.055,0.047 -0.129,0.07 -0.199,0.066 -0.282,0 -0.317,-0.203 -0.317,-0.203 L 27.223,40.75 C 26.715,39.211 25.949,37.77 24.961,36.488 24.594,36.02 24.203,35.57 23.785,35.148 22.211,33.574 20.289,32.391 18.18,31.684 Z m 34.867,34.695 c 0.547,0.383 1.195,0.59 1.863,0.586 0.664,0.004 1.309,-0.199 1.856,-0.578 0.554,-0.395 0.972,-0.957 1.191,-1.606 l 1,-3.062 c 0.207,-0.637 0.566,-1.215 1.039,-1.688 0.473,-0.476 1.047,-0.832 1.684,-1.047 l 3.121,-1.011 c 0.633,-0.223 1.179,-0.637 1.566,-1.184 0.387,-0.543 0.598,-1.195 0.598,-1.867 0,-0.668 -0.211,-1.32 -0.598,-1.863 -0.414,-0.571 -0.996,-0.993 -1.664,-1.204 L 61.641,50.863 C 61.004,50.652 60.426,50.297 59.953,49.82 59.477,49.348 59.121,48.773 58.906,48.137 l -1.015,-3.114 c -0.219,-0.636 -0.633,-1.191 -1.18,-1.578 -0.551,-0.39 -1.207,-0.597 -1.883,-0.593 -0.672,0.007 -1.328,0.222 -1.871,0.621 -0.543,0.394 -0.949,0.953 -1.16,1.593 l -1,3.067 c -0.207,0.629 -0.551,1.203 -1.012,1.672 -0.465,0.472 -1.027,0.836 -1.648,1.054 l -3.125,1.012 c -0.629,0.223 -1.176,0.637 -1.563,1.184 -0.39,0.547 -0.597,1.199 -0.597,1.867 0,0.668 0.207,1.32 0.597,1.863 0.399,0.555 0.961,0.969 1.606,1.184 l 3.066,1 c 0.637,0.211 1.219,0.566 1.691,1.043 0.477,0.476 0.833,1.058 1.043,1.695 l 1.012,3.113 c 0.223,0.629 0.637,1.176 1.18,1.559 z M 49.375,55.148 48.652,54.91 49.41,54.656 c 1.215,-0.422 2.317,-1.117 3.219,-2.035 0.902,-0.918 1.582,-2.031 1.984,-3.254 l 0.235,-0.726 0.238,0.73 c 0.41,1.234 1.102,2.356 2.019,3.274 0.918,0.917 2.036,1.609 3.27,2.019 l 0.785,0.266 -0.726,0.234 c -1.231,0.41 -2.352,1.106 -3.27,2.024 -0.918,0.917 -1.609,2.039 -2.019,3.269 l -0.235,0.727 -0.234,-0.731 c -0.41,-1.238 -1.102,-2.359 -2.024,-3.281 -0.918,-0.922 -2.043,-1.613 -3.277,-2.024 z" style="fill:currentColor;fill-opacity:1;fill-rule:nonzero;stroke:none" transform="scale(1.3333333)" /> </g>
</svg>

