<?xml version="1.0" encoding="UTF-8" standalone="no"?> <svg version="1.1" id="I35b14744626346caaddcf14ef34c0acd20251106154011" width="100" height="100" viewBox="0 0 100 100" xmlns="http://www.w3.org/2000/svg" xmlns:svg="http://www.w3.org/2000/svg"> <defs id="If524c6530fb34708a7318ab9387e356520251106154011" /> <g id="I1a33876af2db40fcb5f9d43c2f2312fc20251106154011"> <path id="I76895701a8e64fdf801084aca43f24ec20251106154011" d="m 11.719,9.375 c 0,-1.293 -1.051,-2.344 -2.344,-2.344 -1.293,0 -2.344,1.051 -2.344,2.344 v 25.73 c 0,0.036 0,0.071 0,0.106 v 22.211 c 0,5.824 4.723,10.547 10.547,10.547 h 48.047 c 1.293,0 2.344,-1.051 2.344,-2.344 0,-1.293 -1.051,-2.344 -2.344,-2.344 H 60.938 V 21.094 c 0,-0.887 -0.5,-1.699 -1.297,-2.098 -0.793,-0.394 -1.743,-0.308 -2.453,0.223 l -17.59,13.195 -12.77,-6.387 c -0.617,-0.308 -1.336,-0.328 -1.969,-0.054 l -13.14,5.629 z m 0,27.328 13.988,-5.996 13.09,6.547 c 0.793,0.394 1.742,0.308 2.453,-0.223 l 15,-11.25 v 37.5 H 17.578 c -3.234,0 -5.859,-2.625 -5.859,-5.859 z" style="fill:currentColor;fill-opacity:1;fill-rule:nonzero;stroke:none" transform="scale(1.3333333)" /> </g>
</svg>

