<?xml version="1.0" encoding="UTF-8" standalone="no"?> <svg version="1.1" id="Idc2ebb2d70fe4f10adfb2d844715005420251110135156" width="100" height="100" viewBox="0 0 100 100" xmlns="http://www.w3.org/2000/svg" xmlns:svg="http://www.w3.org/2000/svg"> <defs id="Iecd21d576f014888ac6922a5a08339fd20251110135156" /> <g id="I50da129b51cc4f7c8523fa2930b2606e20251110135156"> <path id="I3bf964bac48842e692bdae8dd2b5071720251110135156" d="m 16.406,10.938 c 1.293,0 2.344,-1.051 2.344,-2.344 0,-1.293 -1.051,-2.344 -2.344,-2.344 -1.293,0 -2.344,1.051 -2.344,2.344 0,1.293 1.051,2.344 2.344,2.344 z m 2.344,3.906 c 0,-1.293 -1.051,-2.344 -2.344,-2.344 -1.293,0 -2.344,1.051 -2.344,2.344 v 7.812 c 0,1.293 1.051,2.344 2.344,2.344 1.293,0 2.344,-1.051 2.344,-2.344 z m -2.344,19.531 c 1.293,0 2.344,1.051 2.344,2.344 v 7.812 c 0,1.293 -1.051,2.344 -2.344,2.344 -1.293,0 -2.344,-1.051 -2.344,-2.344 v -7.812 c 0,-1.293 1.051,-2.344 2.344,-2.344 z m 0,21.875 c 1.293,0 2.344,1.051 2.344,2.344 v 7.812 c 0,1.293 -1.051,2.344 -2.344,2.344 -1.293,0 -2.344,-1.051 -2.344,-2.344 v -7.812 c 0,-1.293 1.051,-2.344 2.344,-2.344 z M 28.125,17.969 c 0,-1.293 1.051,-2.344 2.344,-2.344 h 29.687 c 1.293,0 2.344,1.051 2.344,2.344 0,1.293 -1.051,2.343 -2.344,2.343 H 30.469 c -1.293,0 -2.344,-1.05 -2.344,-2.343 z m 0,20.312 c 0,-1.293 1.051,-2.343 2.344,-2.343 h 29.687 c 1.293,0 2.344,1.05 2.344,2.343 0,1.293 -1.051,2.344 -2.344,2.344 H 30.469 c -1.293,0 -2.344,-1.051 -2.344,-2.344 z m 0,20.313 c 0,-1.293 1.051,-2.344 2.344,-2.344 h 29.687 c 1.293,0 2.344,1.051 2.344,2.344 0,1.293 -1.051,2.344 -2.344,2.344 H 30.469 c -1.293,0 -2.344,-1.051 -2.344,-2.344 z M 16.406,54.688 c 1.293,0 2.344,-1.051 2.344,-2.344 0,-1.293 -1.051,-2.344 -2.344,-2.344 -1.293,0 -2.344,1.051 -2.344,2.344 0,1.293 1.051,2.344 2.344,2.344 z M 18.75,30.469 c 0,1.293 -1.051,2.343 -2.344,2.343 -1.293,0 -2.344,-1.05 -2.344,-2.343 0,-1.293 1.051,-2.344 2.344,-2.344 1.293,0 2.344,1.051 2.344,2.344 z" style="fill:currentColor;fill-opacity:1;fill-rule:nonzero;stroke:none" transform="scale(1.3333333)" /> </g>
</svg>

