<?xml version="1.0" encoding="UTF-8" standalone="no"?> <svg version="1.1" id="I42a3ec972dfc46199a404097c7c9b5ea20251106170956" width="100" height="100" viewBox="0 0 100 100" xmlns="http://www.w3.org/2000/svg" xmlns:svg="http://www.w3.org/2000/svg"> <defs id="I37c091a73448468490b60f36366c4bea20251106170956" /> <g id="I609d25386ba1408a9bc49ff1db17ec3220251106170956"> <path id="I4f3ab18b2dcc489eaf3ae05e8b01f45020251106170956" d="m 37.5,5.355 c -6.656,0 -12.055,5.399 -12.055,12.055 v 21.43 c 0,6.656 5.399,12.055 12.055,12.055 6.656,0 12.055,-5.399 12.055,-12.055 V 17.41 C 49.555,10.754 44.156,5.355 37.5,5.355 Z M 20.09,36.832 c 0,-1.109 -0.899,-2.008 -2.008,-2.008 -1.109,0 -2.012,0.899 -2.012,2.008 v 2.008 c 0,11.156 8.528,20.32 19.422,21.336 v 7.457 c 0,1.109 0.899,2.012 2.008,2.012 1.109,0 2.008,-0.903 2.008,-2.012 V 60.176 C 50.402,59.16 58.93,49.996 58.93,38.84 v -2.008 c 0,-1.109 -0.903,-2.008 -2.012,-2.008 -1.109,0 -2.008,0.899 -2.008,2.008 v 2.008 c 0,9.613 -7.793,17.41 -17.41,17.41 -9.617,0 -17.41,-7.797 -17.41,-17.41 z" style="fill:currentColor;fill-opacity:1;fill-rule:nonzero;stroke:none" transform="scale(1.3333333)" /> </g>
</svg>

