<?xml version="1.0" encoding="UTF-8" standalone="no"?> <svg version="1.1" id="Ia7cd807ee40b4a23bd58c3d32512239020251106102216" width="100" height="100" viewBox="0 0 100 100" xmlns="http://www.w3.org/2000/svg" xmlns:svg="http://www.w3.org/2000/svg"> <defs id="I0406963f62384aa2ba0015f8a0a0a85620251106102216" /> <g id="Iba235902e1b74b50827dbae40922ac4020251106102216"> <path id="I9ade2e61f98d46738c92ca81f145083820251106102216" d="m 35.156,31.734 v 7.106 h -7.074 c -0.344,0 -0.625,0.258 -0.625,0.586 v 3.515 c 0,0.317 0.281,0.586 0.625,0.586 h 7.074 v 7.106 c 0,0.328 0.27,0.594 0.586,0.594 h 3.516 c 0.328,0 0.586,-0.266 0.586,-0.594 v -7.106 h 7.074 c 0.344,0 0.625,-0.269 0.625,-0.586 v -3.515 c 0,-0.328 -0.281,-0.586 -0.625,-0.586 h -7.074 v -7.106 c 0,-0.328 -0.258,-0.597 -0.586,-0.597 h -3.516 c -0.316,0 -0.586,0.269 -0.586,0.597 z M 68.305,19.621 H 38.254 L 28.434,10.23 C 28.309,10.113 28.145,10.047 27.973,10.043 H 6.695 c -1.48,0 -2.675,1.199 -2.675,2.68 v 49.554 c 0,1.481 1.195,2.68 2.675,2.68 h 61.61 c 1.48,0 2.675,-1.199 2.675,-2.68 V 22.301 c 0,-1.485 -1.195,-2.68 -2.675,-2.68 z M 64.957,58.93 H 10.043 V 16.07 h 15.781 l 10.012,9.578 h 29.121 z" style="fill:currentColor;fill-opacity:1;fill-rule:nonzero;stroke:none" transform="scale(1.3333333)" /> </g>
</svg>

