<?xml version="1.0" encoding="UTF-8" standalone="no"?> <svg version="1.1" id="I646b5ecdd06346a5ae2e9a39ea1cf20520251106164749" width="100" height="100" viewBox="0 0 100 100" xmlns="http://www.w3.org/2000/svg" xmlns:svg="http://www.w3.org/2000/svg"> <defs id="I0f2dd99790224829913964b41e5c21b720251106164749" /> <g id="I3cb0dd831fd94b5d83379caa76dfa45a20251106164749"> <path id="I3e2dfca2ad4248d79d39e31b4f5c3faa20251106164749" d="m 37.504,6.25 c 17.262,0 31.254,13.992 31.254,31.254 0,0.824 -0.031,1.637 -0.094,2.445 -1.371,-1.301 -2.922,-2.41 -4.609,-3.289 l 0.011,0.551 -0.023,-0.992 C 63.961,34.516 63.719,32.855 63.332,31.25 l -0.047,0.004 H 52.836 c 0.102,1.043 0.18,2.109 0.226,3.187 -1.613,0.125 -3.171,0.442 -4.656,0.922 -0.047,-1.406 -0.144,-2.777 -0.285,-4.109 h -21.23 c -0.215,2 -0.329,4.094 -0.329,6.25 0,3.312 0.27,6.469 0.75,9.375 h 8.618 c -0.618,1.48 -1.063,3.051 -1.317,4.687 H 28.32 c 1.871,6.922 5.008,11.672 8.297,12.407 0.887,1.722 2.012,3.3 3.332,4.691 -0.808,0.063 -1.621,0.094 -2.445,0.094 C 20.242,68.758 6.25,54.766 6.25,37.504 6.25,20.242 20.242,6.25 37.504,6.25 Z M 23.469,51.566 h -8.508 c 2.996,4.793 7.473,8.559 12.793,10.661 C 25.941,59.379 24.48,55.734 23.469,51.566 Z M 11.68,31.254 11.664,31.305 c -0.476,1.992 -0.726,4.066 -0.726,6.199 0,3.301 0.601,6.461 1.703,9.379 l 9.914,-0.004 c -0.446,-2.965 -0.68,-6.117 -0.68,-9.375 0,-2.137 0.102,-4.227 0.297,-6.25 z m 16.078,-18.469 -0.07,0.027 c -6.399,2.543 -11.575,7.504 -14.403,13.754 h 9.527 C 23.793,21.09 25.5,16.32 27.758,12.785 Z m 9.746,-1.847 -0.359,0.015 c -3.957,0.363 -7.778,6.617 -9.551,15.613 h 19.82 C 45.586,17.297 41.586,10.938 37.504,10.938 Z m 9.75,1.847 0.336,0.543 c 2.09,3.477 3.68,8.039 4.609,13.238 h 9.524 C 58.887,20.293 53.684,15.32 47.254,12.785 Z M 71.875,54.688 C 71.875,45.195 64.18,37.5 54.688,37.5 45.195,37.5 37.5,45.195 37.5,54.688 c 0,9.492 7.695,17.187 17.188,17.187 9.492,0 17.187,-7.695 17.187,-17.187 z M 54.688,43.75 c 0.863,0 1.562,0.699 1.562,1.562 v 7.813 h 6.25 c 0.863,0 1.562,0.699 1.562,1.563 0,0.863 -0.699,1.562 -1.562,1.562 h -7.812 c -0.864,0 -1.563,-0.699 -1.563,-1.562 v -9.376 c 0,-0.863 0.699,-1.562 1.563,-1.562 z" style="fill:currentColor;fill-opacity:1;fill-rule:nonzero;stroke:none" transform="scale(1.3333333)" /> </g>
</svg>

