<?xml version="1.0" encoding="UTF-8" standalone="no"?> <svg version="1.1" id="Ia1ae19542e834d8a9ac8fffb09a4b7ce20251110130507" width="100" height="100" viewBox="0 0 100 100" xmlns="http://www.w3.org/2000/svg" xmlns:svg="http://www.w3.org/2000/svg"> <defs id="Ia23c69d07d824bbe8cb06d4dbdc74a9520251110130507" /> <g id="I5fc03f6033c648df8bf410fc205aa06720251110130507"> <path id="I40182efb17f94673b75ac242601a075920251110130507" d="m 30.805,10.043 c 0,-1.109 0.898,-2.008 2.007,-2.008 h 9.376 c 1.109,0 2.007,0.899 2.007,2.008 0,1.109 -0.898,2.012 -2.007,2.012 h -9.376 c -1.109,0 -2.007,-0.903 -2.007,-2.012 z m 0,54.914 c 0,-1.109 0.898,-2.012 2.007,-2.012 h 9.376 c 1.109,0 2.007,0.903 2.007,2.012 0,1.109 -0.898,2.008 -2.007,2.008 h -9.376 c -1.109,0 -2.007,-0.899 -2.007,-2.008 z M 8.035,42.188 c 0,1.109 0.899,2.007 2.008,2.007 1.109,0 2.012,-0.898 2.012,-2.007 v -9.376 c 0,-1.109 -0.903,-2.007 -2.012,-2.007 -1.109,0 -2.008,0.898 -2.008,2.007 z m 56.922,2.007 c -1.109,0 -2.012,-0.898 -2.012,-2.007 v -9.376 c 0,-1.109 0.903,-2.007 2.012,-2.007 1.109,0 2.008,0.898 2.008,2.007 v 9.376 c 0,1.109 -0.899,2.007 -2.008,2.007 z M 55.582,8.035 c -1.109,0 -2.012,0.899 -2.012,2.008 0,1.109 0.903,2.012 2.012,2.012 h 1.336 c 3.328,0 6.027,2.695 6.027,6.027 v 1.336 c 0,1.109 0.903,2.012 2.012,2.012 1.109,0 2.008,-0.903 2.008,-2.012 V 18.082 C 66.965,12.531 62.469,8.035 56.918,8.035 Z M 53.57,64.957 c 0,1.109 0.903,2.008 2.012,2.008 h 1.336 c 5.551,0 10.047,-4.496 10.047,-10.047 v -1.336 c 0,-1.109 -0.899,-2.012 -2.008,-2.012 -1.109,0 -2.012,0.903 -2.012,2.012 v 1.336 c 0,3.328 -2.699,6.027 -6.027,6.027 h -1.336 c -1.109,0 -2.012,0.903 -2.012,2.012 z M 19.418,8.035 c 1.109,0 2.012,0.899 2.012,2.008 0,1.109 -0.903,2.012 -2.012,2.012 h -1.336 c -3.332,0 -6.027,2.695 -6.027,6.027 v 1.336 c 0,1.109 -0.903,2.012 -2.012,2.012 -1.109,0 -2.008,-0.903 -2.008,-2.012 v -1.336 c 0,-5.551 4.496,-10.047 10.047,-10.047 z m 2.012,56.922 c 0,1.109 -0.903,2.008 -2.012,2.008 h -1.336 c -5.551,0 -10.047,-4.496 -10.047,-10.047 v -1.336 c 0,-1.109 0.899,-2.012 2.008,-2.012 1.109,0 2.012,0.903 2.012,2.012 v 1.336 c 0,3.328 2.695,6.027 6.027,6.027 h 1.336 c 1.109,0 2.012,0.903 2.012,2.012 z m 9.5,-43.527 c -1.676,0 -3.223,0.894 -4.059,2.343 L 20.297,35.16 c -0.836,1.449 -0.836,3.238 0,4.688 l 6.574,11.386 c 0.836,1.454 2.383,2.348 4.059,2.348 h 13.144 c 1.676,0 3.223,-0.894 4.059,-2.348 l 6.574,-11.386 c 0.836,-1.45 0.836,-3.239 0,-4.688 L 48.133,23.773 C 47.297,22.324 45.75,21.43 44.074,21.43 Z m -0.578,4.351 c 0.117,-0.207 0.339,-0.336 0.578,-0.336 h 13.144 c 0.238,0 0.461,0.129 0.578,0.336 l 6.575,11.387 c 0.117,0.207 0.117,0.465 0,0.672 l -6.575,11.387 c -0.117,0.207 -0.34,0.335 -0.578,0.335 H 30.93 c -0.239,0 -0.461,-0.128 -0.578,-0.335 L 23.777,37.84 c -0.117,-0.207 -0.117,-0.465 0,-0.672 z" style="fill:currentColor;fill-opacity:1;fill-rule:nonzero;stroke:none" transform="scale(1.3333333)" /> </g>
</svg>

