<?xml version="1.0" encoding="UTF-8" standalone="no"?> <svg version="1.1" id="I1250361548f549b4ba1ec99ed4f87add20251106132945" width="100" height="100" viewBox="0 0 100 100" xmlns="http://www.w3.org/2000/svg" xmlns:svg="http://www.w3.org/2000/svg"> <defs id="Iacb65ccc48c541b9aad485eca73fede120251106132945" /> <g id="Ica0e947eacf6448c84107a83ac99494320251106132945"> <path id="I82a37ef707be45b0a56431733965156120251106132945" d="m 56.523,61.621 c 1.352,0.137 2.407,1.277 2.407,2.664 0,1.387 -1.055,2.527 -2.407,2.664 l -0.273,0.016 h -37.5 c -1.48,0 -2.68,-1.199 -2.68,-2.68 0,-1.48 1.2,-2.68 2.68,-2.68 h 37.5 z M 35.809,19.352 c 1.054,-0.86 2.605,-0.797 3.586,0.183 l 8.035,8.035 0.183,0.203 c 0.856,1.055 0.797,2.606 -0.183,3.586 -0.981,0.981 -2.532,1.039 -3.582,0.184 L 43.641,31.359 40.18,27.895 v 19.21 l 3.461,-3.464 c 1.047,-1.043 2.742,-1.043 3.789,0 1.047,1.047 1.047,2.742 0,3.789 l -8.035,8.035 c -0.981,0.98 -2.532,1.043 -3.586,0.183 L 35.605,55.465 27.57,47.43 27.387,47.227 c -0.86,-1.055 -0.797,-2.606 0.183,-3.586 0.981,-0.981 2.532,-1.039 3.582,-0.184 l 0.207,0.184 3.461,3.464 v -19.21 l -3.461,3.464 c -1.047,1.043 -2.742,1.043 -3.789,0 -1.047,-1.047 -1.047,-2.742 0,-3.789 l 8.035,-8.035 z M 56.523,8.047 c 1.352,0.141 2.407,1.281 2.407,2.668 0,1.387 -1.055,2.527 -2.407,2.664 l -0.273,0.016 h -37.5 c -1.48,0 -2.68,-1.2 -2.68,-2.68 0,-1.481 1.2,-2.68 2.68,-2.68 h 37.5 z" style="fill:currentColor;fill-opacity:1;fill-rule:nonzero;stroke:none" transform="scale(1.3333333)" /> </g>
</svg>

