<?xml version="1.0" encoding="UTF-8" standalone="no"?> <svg version="1.1" id="I6b8bc34fa9824718804ba6646f471a3420251110130509" width="100" height="100" viewBox="0 0 100 100" xmlns="http://www.w3.org/2000/svg" xmlns:svg="http://www.w3.org/2000/svg"> <defs id="I5c645ba3e23b4e89ae2098cf3c24d59a20251110130509" /> <g id="Ia4b0c6c0314f4aeb80c4ee4008e7c17a20251110130509"> <path id="I92afeb8c4f5149ef9c3a85c10e6c8e0820251110130509" d="M 47.152,20.039 C 46.926,19.746 46.68,19.469 46.418,19.207 45.441,18.227 44.25,17.488 42.941,17.051 L 38.637,15.656 C 38.305,15.539 38.016,15.32 37.812,15.035 37.609,14.746 37.5,14.402 37.5,14.051 c 0,-0.352 0.109,-0.696 0.312,-0.981 0.204,-0.289 0.493,-0.504 0.825,-0.621 l 4.304,-1.398 c 1.293,-0.446 2.465,-1.184 3.426,-2.16 0.934,-0.946 1.641,-2.09 2.071,-3.348 L 48.473,5.438 49.871,1.133 C 49.988,0.801 50.207,0.516 50.492,0.312 50.781,0.109 51.125,0 51.477,0 c 0.351,0 0.695,0.109 0.98,0.312 0.289,0.204 0.508,0.489 0.625,0.821 l 1.398,4.305 c 0.434,1.308 1.168,2.496 2.145,3.468 0.977,0.977 2.164,1.711 3.473,2.145 l 4.304,1.398 0.086,0.02 c 0.332,0.117 0.621,0.336 0.824,0.621 0.204,0.289 0.313,0.633 0.313,0.984 0,0.352 -0.109,0.696 -0.313,0.981 -0.203,0.289 -0.492,0.504 -0.824,0.621 l -4.304,1.398 c -1.309,0.434 -2.496,1.168 -3.473,2.145 -0.977,0.972 -1.711,2.16 -2.145,3.469 l -1.398,4.304 c -0.016,0.035 -0.027,0.07 -0.043,0.106 -0.125,0.285 -0.324,0.535 -0.578,0.714 -0.289,0.204 -0.633,0.313 -0.985,0.313 -0.351,0 -0.695,-0.109 -0.984,-0.313 -0.285,-0.203 -0.504,-0.488 -0.621,-0.82 L 48.559,22.688 C 48.242,21.73 47.766,20.832 47.152,20.039 Z m 24.043,11.879 -2.39,-0.777 C 68.078,30.898 67.418,30.488 66.875,29.949 66.332,29.406 65.926,28.746 65.684,28.02 L 64.906,25.629 C 64.84,25.445 64.719,25.285 64.559,25.172 64.402,25.062 64.211,25 64.016,25 c -0.196,0 -0.387,0.062 -0.547,0.172 -0.16,0.113 -0.281,0.273 -0.344,0.457 l -0.777,2.391 c -0.239,0.722 -0.641,1.378 -1.172,1.921 -0.535,0.539 -1.184,0.95 -1.903,1.2 l -2.394,0.777 c -0.184,0.062 -0.344,0.184 -0.457,0.344 -0.11,0.16 -0.172,0.347 -0.172,0.543 0,0.195 0.062,0.386 0.172,0.547 0.113,0.16 0.273,0.281 0.457,0.343 l 2.394,0.778 c 0.727,0.242 1.391,0.652 1.93,1.195 0.543,0.547 0.949,1.207 1.192,1.937 l 0.777,2.391 c 0.066,0.184 0.183,0.344 0.344,0.457 0.16,0.109 0.351,0.172 0.546,0.172 0.196,0 0.387,-0.063 0.547,-0.172 0.161,-0.113 0.278,-0.273 0.344,-0.457 l 0.777,-2.391 c 0.243,-0.726 0.649,-1.386 1.192,-1.929 0.543,-0.539 1.203,-0.949 1.93,-1.192 l 2.394,-0.777 c 0.184,-0.062 0.344,-0.184 0.457,-0.344 0.109,-0.16 0.172,-0.347 0.172,-0.543 0,-0.195 -0.063,-0.386 -0.172,-0.547 C 71.59,32.113 71.43,31.992 71.246,31.93 Z M 37.984,9.375 H 29.688 V 25 H 45.312 V 22.977 C 45.137,22.613 44.926,22.27 44.68,21.949 44.531,21.762 44.375,21.582 44.207,21.41 43.574,20.781 42.809,20.305 41.961,20.02 l -4.328,-1.407 -0.035,-0.011 c -0.942,-0.332 -1.758,-0.95 -2.336,-1.762 -0.578,-0.817 -0.887,-1.789 -0.887,-2.789 0,-0.996 0.309,-1.973 0.887,-2.785 C 35.84,10.449 36.656,9.832 37.598,9.5 L 37.633,9.488 Z M 50,30.988 c 0.5,0.172 1.027,0.262 1.562,0.262 0.735,0 1.458,-0.168 2.114,-0.488 -0.36,0.621 -0.551,1.324 -0.551,2.043 0,0.843 0.262,1.664 0.75,2.351 0.484,0.688 1.172,1.207 1.965,1.489 l 0.039,0.011 2.414,0.785 c 0.262,0.09 0.504,0.239 0.699,0.434 0.196,0.199 0.344,0.437 0.434,0.703 v 0.004 l 0.785,2.418 0.016,0.035 c 0.277,0.793 0.796,1.481 1.484,1.969 0.687,0.484 1.512,0.746 2.351,0.746 0.54,0 1.071,-0.105 1.563,-0.312 v 1.874 H 50 Z M 45.312,65.625 H 29.688 V 50 h 15.624 z m 10.157,0 H 50 V 50 h 15.625 v 5.469 c 0,5.609 -4.547,10.156 -10.156,10.156 z M 19.531,9.375 H 25 V 25 H 9.375 v -5.469 c 0,-5.609 4.547,-10.156 10.156,-10.156 z M 9.375,45.312 V 29.688 H 25 v 15.624 z m 0,10.157 V 50 H 25 V 65.625 H 19.531 C 13.922,65.625 9.375,61.078 9.375,55.469 Z M 45.312,45.312 V 29.688 H 29.688 v 15.624 z" style="fill:currentColor;fill-opacity:1;fill-rule:nonzero;stroke:none" transform="scale(1.3333333)" /> </g>
</svg>

