<?xml version="1.0" encoding="UTF-8" standalone="no"?> <svg version="1.1" id="I154c6cdce99f46908930c7134708f0dd20251106152729" width="100" height="100" viewBox="0 0 100 100" xmlns="http://www.w3.org/2000/svg" xmlns:svg="http://www.w3.org/2000/svg"> <defs id="Iabcf43beeb8b43d2869e3e8ebb59f3f220251106152729" /> <g id="Id720e1ca8be542bbba11f73109e9d52620251106152729"> <path id="Ifdc9563a4cf344bd932c701d02130d6220251106152729" d="m 43.527,10.715 c 1.11,0 2.008,0.898 2.008,2.008 0,1.109 -0.898,2.007 -2.008,2.007 H 18.082 c -3.332,0 -6.027,2.7 -6.027,6.028 v 36.16 c 0,3.328 2.695,6.027 6.027,6.027 h 36.16 c 3.328,0 6.028,-2.699 6.028,-6.027 V 31.473 c 0,-1.11 0.898,-2.008 2.007,-2.008 1.11,0 2.008,0.898 2.008,2.008 v 25.445 c 0,5.551 -4.496,10.047 -10.043,10.047 h -36.16 c -5.551,0 -10.047,-4.496 -10.047,-10.047 v -36.16 c 0,-5.547 4.496,-10.043 10.047,-10.043 z m 20.008,-2.09 c 0.785,-0.785 2.055,-0.785 2.84,0 0.785,0.785 0.785,2.055 0,2.84 l -32.648,32.652 -4.262,1.418 1.418,-4.262 z" style="fill:currentColor;fill-opacity:1;fill-rule:nonzero;stroke:none" transform="scale(1.3333333)" /> </g>
</svg>

