<?xml version="1.0" encoding="UTF-8" standalone="no"?> <svg version="1.1" id="I3e9644a25fb6462f8e35aa27a3ca769920251110133655" width="100" height="100" viewBox="0 0 100 100" xmlns="http://www.w3.org/2000/svg" xmlns:svg="http://www.w3.org/2000/svg"> <defs id="I0c811e915b404f27b2506ee810ab775e20251110133655" /> <g id="I621657365c834a0891f4eeba7f0c578b20251110133655"> <path id="I09d905b30fbd4e9280a594975724485e20251110133655" d="m 45.418,54.875 c 1.297,0 2.344,1.051 2.344,2.344 0,1.293 -1.047,2.343 -2.344,2.343 -1.293,0 -2.344,-1.05 -2.344,-2.343 0,-1.293 1.051,-2.344 2.344,-2.344 z M 37.504,10.938 c 9.898,0 15.516,6.554 16.332,14.468 h 0.25 c 6.375,0 11.539,5.153 11.539,11.508 0,6.356 -5.164,11.508 -11.539,11.508 H 49.93 c 0.113,0.277 0.175,0.578 0.175,0.894 0,1.293 -1.046,2.344 -2.343,2.344 -1.293,0 -2.344,-1.051 -2.344,-2.344 0,-0.316 0.062,-0.617 0.176,-0.894 H 27.219 l -0.059,0.148 -0.105,0.2 -5.469,9.472 c -0.648,1.121 -2.082,1.508 -3.203,0.86 -1.055,-0.61 -1.457,-1.914 -0.961,-3 l 0.105,-0.204 4.317,-7.476 h -0.926 c -6.375,0 -11.539,-5.152 -11.539,-11.508 0,-6.355 5.164,-11.508 11.539,-11.508 h 0.25 c 0.82,-7.965 6.434,-14.468 16.336,-14.468 z m -1.012,41.121 c 1.055,0.609 1.457,1.914 0.961,3 l -0.105,0.199 -1.692,2.957 c -0.648,1.117 -2.078,1.504 -3.199,0.855 -1.059,-0.609 -1.461,-1.914 -0.965,-3 l 0.106,-0.199 1.691,-2.957 c 0.649,-1.121 2.082,-1.504 3.203,-0.855 z m 16.738,0.472 c 1.293,0 2.344,1.051 2.344,2.344 0,1.293 -1.051,2.344 -2.344,2.344 -1.296,0 -2.343,-1.051 -2.343,-2.344 0,-1.293 1.047,-2.344 2.343,-2.344 z M 37.504,14.836 c -6.66,0 -12.461,5.387 -12.461,12.828 0,1.18 -1.027,2.106 -2.199,2.106 h -2.223 c -4.051,0 -7.336,3.304 -7.336,7.378 0,4.075 3.285,7.375 7.336,7.375 h 33.762 c 4.051,0 7.34,-3.3 7.34,-7.375 0,-4.074 -3.289,-7.378 -7.34,-7.378 h -2.219 c -1.176,0 -2.199,-0.926 -2.199,-2.106 0,-7.535 -5.805,-12.828 -12.461,-12.828 z" style="fill:currentColor;fill-opacity:1;fill-rule:nonzero;stroke:none" transform="scale(1.3333333)" /> </g>
</svg>

