<?xml version="1.0" encoding="UTF-8" standalone="no"?> <svg version="1.1" id="Ide9792e6e1ba40dbb84d3156aeb6712b20251106164750" width="100" height="100" viewBox="0 0 100 100" xmlns="http://www.w3.org/2000/svg" xmlns:svg="http://www.w3.org/2000/svg"> <defs id="I2658e0e23012472f9b369e086b3f6e2a20251106164750" /> <g id="Iac7a5e3209b345ce900d6cd348518dbf20251106164750"> <path id="I782d8f29d4e44a07a4f965126e1191d320251106164750" d="m 19.531,6.25 c -3.883,0 -7.031,3.148 -7.031,7.031 v 48.438 c 0,3.883 3.148,7.031 7.031,7.031 h 20.5 C 38.699,67.363 37.562,65.785 36.664,64.062 H 19.531 c -1.293,0 -2.343,-1.05 -2.343,-2.343 V 13.281 c 0,-1.293 1.05,-2.343 2.343,-2.343 h 35.938 c 1.293,0 2.343,1.05 2.343,2.343 v 21.332 c 1.637,0.254 3.208,0.699 4.688,1.321 V 13.281 C 62.5,9.398 59.352,6.25 55.469,6.25 Z m 10.938,34.375 h 9.562 c -1.332,1.387 -2.469,2.965 -3.367,4.687 h -6.195 c -0.43,0 -0.781,0.352 -0.781,0.782 0,1.625 0.648,2.894 1.828,3.812 0.765,0.594 1.808,1.086 3.144,1.375 -0.187,1.106 -0.285,2.246 -0.285,3.407 0,0.441 0.016,0.882 0.043,1.316 C 32.191,55.633 30.219,54.836 28.641,53.609 26.305,51.793 25,49.156 25,46.094 c 0,-3.02 2.449,-5.469 5.469,-5.469 z M 37.5,26.562 c -1.727,0 -3.125,1.399 -3.125,3.126 0,1.726 1.398,3.124 3.125,3.124 1.727,0 3.125,-1.398 3.125,-3.124 0,-1.727 -1.398,-3.126 -3.125,-3.126 z m -7.812,3.126 c 0,-4.317 3.496,-7.813 7.812,-7.813 4.316,0 7.812,3.496 7.812,7.813 0,4.316 -3.496,7.812 -7.812,7.812 -4.316,0 -7.812,-3.496 -7.812,-7.812 z m 2.343,-15.626 c -1.293,0 -2.343,1.051 -2.343,2.344 0,1.293 1.05,2.344 2.343,2.344 h 10.938 c 1.293,0 2.343,-1.051 2.343,-2.344 0,-1.293 -1.05,-2.344 -2.343,-2.344 z M 71.875,54.688 C 71.875,45.195 64.18,37.5 54.688,37.5 45.195,37.5 37.5,45.195 37.5,54.688 c 0,9.492 7.695,17.187 17.188,17.187 9.492,0 17.187,-7.695 17.187,-17.187 z m -15.625,1.562 0.004,7.824 c 0,0.864 -0.699,1.563 -1.563,1.563 -0.863,0 -1.562,-0.699 -1.562,-1.563 L 53.125,56.25 h -7.828 c -0.859,0 -1.559,-0.699 -1.559,-1.562 0,-0.864 0.7,-1.563 1.559,-1.563 h 7.828 v -7.816 c 0,-0.864 0.699,-1.563 1.563,-1.563 0.863,0 1.562,0.699 1.562,1.563 v 7.816 h 7.801 c 0.863,0 1.562,0.699 1.562,1.563 0,0.863 -0.699,1.562 -1.562,1.562 z" style="fill:currentColor;fill-opacity:1;fill-rule:nonzero;stroke:none" transform="scale(1.3333333)" /> </g>
</svg>

