<?xml version="1.0" encoding="UTF-8" standalone="no"?> <svg version="1.1" id="I3556730410cb49eaab22d81ade9bc33520251106155156" width="100" height="100" viewBox="0 0 100 100" xmlns="http://www.w3.org/2000/svg" xmlns:svg="http://www.w3.org/2000/svg"> <defs id="Id565861d0234412c92f6109b3228a36c20251106155156"> <linearGradient x1="18" y1="2" x2="19.388201" y2="20.597799" gradientUnits="userSpaceOnUse" gradientTransform="scale(2.678571)" spreadMethod="pad" id="I76bc206f25ee495cabe1b4de86273e4520251106155156"> <stop style="stop-opacity:1;stop-color:#6ce0ff" offset="0" id="I2366a1bd62084971be66d90776e65df020251106155156" /> <stop style="stop-opacity:1;stop-color:#4894fe" offset="1" id="Ic4ab3bd3b7c94c1d8e4edfcc230ce37620251106155156" /> </linearGradient> <radialGradient fx="0" fy="0" cx="0" cy="0" r="1" gradientUnits="userSpaceOnUse" gradientTransform="matrix(-30.357127,31.473079,-18.603626,-17.943991,66.517768,7.366071)" spreadMethod="pad" id="I75bb2b23311340518a0fd4aee131f4f420251106155156"> <stop style="stop-opacity:0.50000763;stop-color:#4a43cb" offset="0" id="I005b51b696584ccc9024679d8930607220251106155156" /> <stop style="stop-opacity:0.50000763;stop-color:#4a43cb" offset="0.362364" id="I75c22d92db2949488a2065d0079ae35420251106155156" /> <stop style="stop-opacity:0;stop-color:#4a43cb" offset="1" id="Id7d626fd187442b6b20a987dab14224b20251106155156" /> </radialGradient> <radialGradient fx="0" fy="0" cx="0" cy="0" r="1" gradientUnits="userSpaceOnUse" gradientTransform="matrix(-30.357127,31.473079,-18.603626,-17.943991,66.517768,7.366071)" spreadMethod="pad" id="If6a5e2c60ccc4d2fb8f1b9b114ef63b620251106155156"> <stop style="stop-opacity:0.29999237;stop-color:#4a43cb" offset="0" id="I4a4f4aa2f05f4bd48a78e7b977c684a520251106155156" /> <stop style="stop-opacity:0.29999237;stop-color:#4a43cb" offset="0.362364" id="I985ca43e0e7c43a990d4c968ea93aac220251106155156" /> <stop style="stop-opacity:0;stop-color:#4a43cb" offset="1" id="I7664fc41e67b46d3be1700b9f23c80ed20251106155156" /> </radialGradient> <linearGradient x1="19.5" y1="2" x2="19.5" y2="11" gradientUnits="userSpaceOnUse" gradientTransform="scale(2.678571)" spreadMethod="pad" id="I5e29995065d64d12a45ce727d5c23a7020251106155156"> <stop style="stop-opacity:1;stop-color:#d9d9d9" offset="0" id="I0dc8b696f2014ab9baaf415a10b7043f20251106155156" /> <stop style="stop-opacity:1;stop-color:#737373" offset="1" id="I72f61621cfc7414c8260e30d02af080520251106155156" /> </linearGradient> <linearGradient x1="19.485001" y1="5.75" x2="17.235001" y2="9.5" gradientUnits="userSpaceOnUse" gradientTransform="scale(2.678571)" spreadMethod="pad" id="Ia754033bca784bb0becd78fc477f873d20251106155156"> <stop style="stop-opacity:1;stop-color:#9ff0f9" offset="0" id="I079a3afbec844a1f8345be92572c289b20251106155156" /> <stop style="stop-opacity:1;stop-color:#b3e0ff" offset="1" id="I156dfd2e8d654194b78f4f07079104ac20251106155156" /> </linearGradient> </defs> <g id="I5fdbadf32d1244edae94f7e0780a78ee20251106155156"> <path id="I4309ad81c0a343509d3ac59a4c67228f20251106155156" d="M 40.18,5.355 H 17.41 c -3.699,0 -6.695,3 -6.695,6.7 v 50.89 c 0,3.7 2.996,6.7 6.695,6.7 h 40.18 c 3.699,0 6.695,-3 6.695,-6.7 v -33.48 l -18.75,-5.36 z" transform="scale(1.3333333)" style="fill:url(#I76bc206f25ee495cabe1b4de86273e4520251106155156);stroke:none" /> <path d="M 40.18,5.355 H 17.41 c -3.699,0 -6.695,3 -6.695,6.7 v 50.89 c 0,3.7 2.996,6.7 6.695,6.7 h 40.18 c 3.699,0 6.695,-3 6.695,-6.7 v -33.48 l -18.75,-5.36 z" transform="scale(1.3333333)" style="fill:url(#I75bb2b23311340518a0fd4aee131f4f420251106155156);stroke:none" opacity="1" id="Iec43f5613967401ca48b647517c9525320251106155156" /> <path d="M 40.18,5.355 H 17.41 c -3.699,0 -6.695,3 -6.695,6.7 v 50.89 c 0,3.7 2.996,6.7 6.695,6.7 h 40.18 c 3.699,0 6.695,-3 6.695,-6.7 v -33.48 l -18.75,-5.36 z" transform="scale(1.3333333)" style="fill:url(#If6a5e2c60ccc4d2fb8f1b9b114ef63b620251106155156);stroke:none" opacity="1" id="I3261ae29b7e44d1180c6e799c52939b720251106155156" /> <path id="If860fa4269444c448c55abcbbcaf05c420251106155156" d="M 40.18,25.445 V 5.355 l 24.105,24.11 h -20.09 c -2.218,0 -4.015,-1.801 -4.015,-4.02 z" transform="scale(1.3333333)" style="fill:url(#I5e29995065d64d12a45ce727d5c23a7020251106155156);stroke:none" /> <path id="Ia2efe7812a1443258c594b804af1f8c720251106155156" d="M 40.18,25.445 V 5.355 l 24.105,24.11 h -20.09 c -2.218,0 -4.015,-1.801 -4.015,-4.02 z" transform="scale(1.3333333)" style="fill:url(#Ia754033bca784bb0becd78fc477f873d20251106155156);stroke:none" /> </g>
</svg>

