<?xml version="1.0" encoding="UTF-8" standalone="no"?> <svg version="1.1" id="Ibf1f88c3fd214b74a970ca6751d97c4d20251106123600" width="100" height="100" viewBox="0 0 100 100" xmlns="http://www.w3.org/2000/svg" xmlns:svg="http://www.w3.org/2000/svg"> <defs id="I539b3f8d06984e019074b29a5f12e0dc20251106123600" /> <g id="Ib9a54a7be15d4b89b1789d44562c8c7f20251106123600"> <path id="I2f48635f49db4daa8df123396c4a5d9d20251106123600" d="m 52.438,10.062 c -0.915,-0.917 -2.399,-0.917 -3.313,0 l -7.813,7.813 c -0.917,0.914 -0.917,2.398 0,3.313 0.915,0.917 2.399,0.917 3.313,0 l 6.156,-6.153 6.157,6.153 c 0.914,0.917 2.398,0.917 3.312,0 0.918,-0.915 0.918,-2.399 0,-3.313 z M 12.5,19.508 c 0,-3.883 3.148,-7.031 7.031,-7.031 h 12.5 c 1.293,0 2.344,1.046 2.344,2.343 0,1.293 -1.051,2.344 -2.344,2.344 h -12.5 c -1.293,0 -2.343,1.047 -2.343,2.344 v 35.937 c 0,1.293 1.05,2.344 2.343,2.344 h 12.5 c 1.293,0 2.344,1.047 2.344,2.344 0,1.293 -1.051,2.344 -2.344,2.344 h -12.5 c -3.883,0 -7.031,-3.149 -7.031,-7.032 z m 39.938,45.43 7.812,-7.813 c 0.918,-0.914 0.918,-2.398 0,-3.313 -0.914,-0.917 -2.398,-0.917 -3.312,0 l -6.157,6.153 -6.156,-6.153 c -0.914,-0.917 -2.398,-0.917 -3.313,0 -0.917,0.915 -0.917,2.399 0,3.313 l 7.813,7.813 c 0.914,0.917 2.398,0.917 3.313,0 z M 50.781,34.375 c -1.293,0 -2.343,1.051 -2.343,2.344 v 1.562 c 0,1.293 1.05,2.344 2.343,2.344 1.293,0 2.344,-1.051 2.344,-2.344 v -1.562 c 0,-1.293 -1.051,-2.344 -2.344,-2.344 z m -2.343,13.281 c 0,-1.293 1.05,-2.344 2.343,-2.344 1.293,0 2.344,1.051 2.344,2.344 v 3.125 c 0,1.293 -1.051,2.344 -2.344,2.344 -1.293,0 -2.343,-1.051 -2.343,-2.344 z m 2.343,-25.781 c -1.293,0 -2.343,1.051 -2.343,2.344 v 3.125 c 0,1.293 1.05,2.344 2.343,2.344 1.293,0 2.344,-1.051 2.344,-2.344 v -3.125 c 0,-1.293 -1.051,-2.344 -2.344,-2.344 z" style="fill:currentColor;fill-opacity:1;fill-rule:nonzero;stroke:none" transform="scale(1.3333333)" /> </g>
</svg>

