<?xml version="1.0" encoding="UTF-8" standalone="no"?> <svg version="1.1" id="Ib9af1749f20c467dab9185766bc5795420251106165302" width="100" height="100" viewBox="0 0 100 100" xmlns="http://www.w3.org/2000/svg" xmlns:svg="http://www.w3.org/2000/svg"> <defs id="I17b80ccaad764b718f84333e5e679a4f20251106165302" /> <g id="Iad1b22bdfb41461a9a2ada892675a49720251106165302"> <path id="I65e966958dfa456e8e7256ccad6ee8df20251106165302" d="M 58.594,46.875 H 16.406 c -0.621,0 -1.218,0.246 -1.656,0.687 -0.441,0.438 -0.688,1.036 -0.688,1.657 0,0.621 0.247,1.219 0.688,1.656 0.438,0.441 1.035,0.687 1.656,0.687 h 42.188 c 0.621,0 1.218,-0.246 1.656,-0.687 0.441,-0.437 0.688,-1.035 0.688,-1.656 0,-0.621 -0.247,-1.219 -0.688,-1.657 -0.438,-0.441 -1.035,-0.687 -1.656,-0.687 z M 38.672,42.188 c 0.695,0 1.375,-0.208 1.953,-0.594 0.578,-0.387 1.027,-0.934 1.293,-1.578 0.27,-0.641 0.336,-1.348 0.203,-2.032 -0.137,-0.679 -0.473,-1.308 -0.965,-1.796 -0.488,-0.493 -1.117,-0.829 -1.797,-0.965 -0.683,-0.133 -1.39,-0.067 -2.031,0.203 -0.644,0.265 -1.191,0.715 -1.578,1.293 -0.387,0.578 -0.594,1.258 -0.594,1.953 0.008,0.93 0.379,1.82 1.035,2.48 0.661,0.657 1.551,1.028 2.481,1.036 z m -9.375,-9.376 c 0.695,0 1.375,-0.207 1.953,-0.593 0.578,-0.387 1.027,-0.934 1.293,-1.578 0.269,-0.641 0.336,-1.348 0.203,-2.032 -0.137,-0.679 -0.473,-1.308 -0.965,-1.797 -0.488,-0.492 -1.117,-0.828 -1.797,-0.964 -0.683,-0.133 -1.39,-0.067 -2.031,0.203 -0.644,0.265 -1.191,0.715 -1.578,1.293 -0.387,0.578 -0.594,1.258 -0.594,1.953 0.008,0.93 0.379,1.82 1.035,2.48 0.661,0.657 1.551,1.028 2.481,1.035 z m -4.688,9.376 c 0.696,0 1.375,-0.208 1.953,-0.594 0.579,-0.387 1.028,-0.934 1.293,-1.578 0.27,-0.641 0.336,-1.348 0.204,-2.032 -0.137,-0.679 -0.473,-1.308 -0.965,-1.796 -0.489,-0.493 -1.117,-0.829 -1.797,-0.965 -0.684,-0.133 -1.391,-0.067 -2.031,0.203 -0.645,0.265 -1.192,0.715 -1.578,1.293 -0.387,0.578 -0.594,1.258 -0.594,1.953 0.008,0.93 0.379,1.82 1.035,2.48 0.66,0.657 1.551,1.028 2.48,1.036 z M 18.75,29.297 c 0,-0.695 -0.207,-1.375 -0.594,-1.953 -0.386,-0.578 -0.933,-1.028 -1.578,-1.293 -0.64,-0.27 -1.348,-0.336 -2.031,-0.203 -0.68,0.136 -1.309,0.472 -1.797,0.964 -0.492,0.489 -0.828,1.118 -0.965,1.797 -0.133,0.684 -0.066,1.391 0.203,2.032 0.266,0.644 0.715,1.191 1.293,1.578 0.578,0.386 1.258,0.593 1.953,0.593 0.93,-0.007 1.821,-0.378 2.481,-1.035 0.656,-0.66 1.027,-1.55 1.035,-2.48 z m 46.875,11.25 v 12.187 c -0.008,0.93 -0.379,1.821 -1.035,2.481 -0.66,0.656 -1.551,1.027 -2.481,1.035 H 12.891 C 11.961,56.242 11.07,55.871 10.41,55.215 9.754,54.555 9.383,53.664 9.375,52.734 V 22.266 c 0.008,-0.93 0.379,-1.821 1.035,-2.481 0.66,-0.656 1.551,-1.027 2.481,-1.035 H 42.188 V 14.062 H 12.891 c -1.079,-0.003 -2.145,0.208 -3.141,0.622 -0.996,0.41 -1.902,1.015 -2.664,1.777 -0.762,0.762 -1.367,1.668 -1.777,2.664 -0.414,0.996 -0.625,2.063 -0.621,3.141 v 30.468 c -0.004,1.078 0.207,2.145 0.621,3.141 0.41,0.996 1.015,1.902 1.777,2.664 0.762,0.762 1.668,1.367 2.664,1.777 0.996,0.414 2.062,0.625 3.141,0.622 h 49.218 c 1.079,0.003 2.145,-0.208 3.141,-0.622 0.996,-0.41 1.902,-1.015 2.664,-1.777 0.762,-0.762 1.367,-1.668 1.777,-2.664 0.414,-0.996 0.625,-2.063 0.621,-3.141 V 37.219 c -1.324,1.41 -2.917,2.543 -4.687,3.328 z m -51.563,8.672 c 0,0.621 0.247,1.219 0.688,1.656 0.438,0.441 1.035,0.687 1.656,0.687 h 42.188 c 0.621,0 1.218,-0.246 1.656,-0.687 0.441,-0.437 0.688,-1.035 0.688,-1.656 0,-0.621 -0.247,-1.219 -0.688,-1.657 -0.438,-0.441 -1.035,-0.687 -1.656,-0.687 H 16.406 c -0.621,0 -1.218,0.246 -1.656,0.687 -0.441,0.438 -0.688,1.036 -0.688,1.657 z M 42.188,38.672 c 0,-0.695 -0.208,-1.375 -0.594,-1.953 -0.387,-0.578 -0.934,-1.028 -1.578,-1.293 -0.641,-0.27 -1.348,-0.336 -2.032,-0.203 -0.679,0.136 -1.308,0.472 -1.796,0.965 -0.493,0.488 -0.829,1.117 -0.965,1.796 -0.133,0.684 -0.067,1.391 0.203,2.032 0.265,0.644 0.715,1.191 1.293,1.578 0.578,0.386 1.258,0.594 1.953,0.594 0.93,-0.008 1.82,-0.379 2.48,-1.036 0.657,-0.66 1.028,-1.55 1.036,-2.48 z m -9.376,-9.375 c 0,-0.695 -0.207,-1.375 -0.593,-1.953 -0.387,-0.578 -0.934,-1.028 -1.578,-1.293 -0.641,-0.27 -1.348,-0.336 -2.032,-0.203 -0.679,0.136 -1.308,0.472 -1.797,0.964 -0.492,0.489 -0.828,1.118 -0.964,1.797 -0.133,0.684 -0.067,1.391 0.203,2.032 0.265,0.644 0.715,1.191 1.293,1.578 0.578,0.386 1.258,0.593 1.953,0.593 0.93,-0.007 1.82,-0.378 2.48,-1.035 0.657,-0.66 1.028,-1.55 1.035,-2.48 z m -11.718,9.375 c 0,0.695 0.207,1.375 0.594,1.953 0.386,0.578 0.933,1.027 1.578,1.293 0.64,0.27 1.347,0.336 2.031,0.203 0.68,-0.137 1.308,-0.473 1.797,-0.965 0.492,-0.488 0.828,-1.117 0.965,-1.797 0.132,-0.683 0.066,-1.39 -0.204,-2.031 -0.265,-0.644 -0.714,-1.191 -1.293,-1.578 -0.578,-0.387 -1.257,-0.594 -1.953,-0.594 -0.929,0.008 -1.82,0.379 -2.48,1.035 -0.656,0.661 -1.027,1.551 -1.035,2.481 z M 18.75,29.297 c 0,-0.695 -0.207,-1.375 -0.594,-1.953 -0.386,-0.578 -0.933,-1.028 -1.578,-1.293 -0.64,-0.27 -1.348,-0.336 -2.031,-0.203 -0.68,0.136 -1.309,0.472 -1.797,0.964 -0.492,0.489 -0.828,1.118 -0.965,1.797 -0.133,0.684 -0.066,1.391 0.203,2.032 0.266,0.644 0.715,1.191 1.293,1.578 0.578,0.386 1.258,0.593 1.953,0.593 0.93,-0.007 1.821,-0.378 2.481,-1.035 0.656,-0.66 1.027,-1.55 1.035,-2.48 z m 19.922,5.859 c -0.695,0 -1.375,0.207 -1.953,0.594 -0.578,0.387 -1.028,0.934 -1.293,1.578 -0.27,0.641 -0.336,1.348 -0.203,2.031 0.136,0.68 0.472,1.309 0.965,1.797 0.488,0.492 1.117,0.828 1.796,0.965 0.684,0.133 1.391,0.067 2.032,-0.203 0.644,-0.266 1.191,-0.715 1.578,-1.293 0.386,-0.578 0.594,-1.258 0.594,-1.953 -0.008,-0.93 -0.379,-1.82 -1.036,-2.481 -0.66,-0.656 -1.55,-1.027 -2.48,-1.035 z m -14.063,0 c -0.695,0 -1.375,0.207 -1.953,0.594 -0.578,0.387 -1.027,0.934 -1.293,1.578 -0.269,0.641 -0.336,1.348 -0.203,2.031 0.137,0.68 0.473,1.309 0.965,1.797 0.488,0.492 1.117,0.828 1.797,0.965 0.683,0.133 1.39,0.067 2.031,-0.203 0.645,-0.266 1.192,-0.715 1.578,-1.293 0.387,-0.578 0.594,-1.258 0.594,-1.953 -0.008,-0.93 -0.379,-1.82 -1.035,-2.481 -0.66,-0.656 -1.551,-1.027 -2.481,-1.035 z m 4.688,-9.375 c -0.695,0 -1.375,0.207 -1.953,0.594 -0.578,0.387 -1.028,0.934 -1.293,1.578 -0.27,0.641 -0.336,1.348 -0.203,2.031 0.136,0.68 0.472,1.309 0.964,1.797 0.489,0.492 1.118,0.828 1.797,0.965 0.684,0.133 1.391,0.066 2.032,-0.203 0.644,-0.266 1.191,-0.715 1.578,-1.293 0.386,-0.578 0.593,-1.258 0.593,-1.953 -0.007,-0.93 -0.378,-1.82 -1.035,-2.481 -0.66,-0.656 -1.55,-1.027 -2.48,-1.035 z m -14.063,0 c -0.695,0 -1.375,0.207 -1.953,0.594 -0.578,0.387 -1.027,0.934 -1.293,1.578 -0.269,0.641 -0.336,1.348 -0.203,2.031 0.137,0.68 0.473,1.309 0.965,1.797 0.488,0.492 1.117,0.828 1.797,0.965 0.683,0.133 1.391,0.066 2.031,-0.203 0.645,-0.266 1.192,-0.715 1.578,-1.293 0.387,-0.578 0.594,-1.258 0.594,-1.953 -0.008,-0.93 -0.379,-1.82 -1.035,-2.481 -0.66,-0.656 -1.551,-1.027 -2.481,-1.035 z m 43.36,21.094 H 16.406 c -0.621,0 -1.218,0.246 -1.656,0.687 -0.441,0.438 -0.688,1.036 -0.688,1.657 0,0.621 0.247,1.219 0.688,1.656 0.438,0.441 1.035,0.687 1.656,0.687 h 42.188 c 0.621,0 1.218,-0.246 1.656,-0.687 0.441,-0.437 0.688,-1.035 0.688,-1.656 0,-0.621 -0.247,-1.219 -0.688,-1.657 -0.438,-0.441 -1.035,-0.687 -1.656,-0.687 z M 63.281,4.688 h -9.375 c -1.863,0 -3.652,0.742 -4.972,2.058 -1.317,1.32 -2.059,3.109 -2.059,4.973 v 14.062 c 0,3.11 1.234,6.09 3.434,8.285 2.195,2.2 5.175,3.434 8.285,3.434 3.109,0 6.09,-1.234 8.285,-3.434 2.199,-2.195 3.433,-5.175 3.433,-8.285 V 11.719 C 70.312,9.855 69.57,8.066 68.254,6.746 66.934,5.43 65.145,4.688 63.281,4.688 Z m 2.344,21.093 c 0,1.864 -0.742,3.653 -2.059,4.973 -1.32,1.316 -3.109,2.058 -4.972,2.058 -1.864,0 -3.653,-0.742 -4.973,-2.058 -1.316,-1.32 -2.059,-3.109 -2.059,-4.973 V 11.719 c 0,-0.621 0.247,-1.219 0.688,-1.657 0.438,-0.441 1.035,-0.687 1.656,-0.687 h 2.344 v 7.031 c 0,0.621 0.246,1.219 0.688,1.656 0.437,0.442 1.035,0.688 1.656,0.688 0.621,0 1.218,-0.246 1.656,-0.688 0.441,-0.437 0.688,-1.035 0.688,-1.656 V 9.375 h 2.343 c 0.621,0 1.219,0.246 1.657,0.687 0.441,0.438 0.687,1.036 0.687,1.657 z" style="fill:currentColor;fill-opacity:1;fill-rule:nonzero;stroke:none" transform="scale(1.3333333)" /> </g>
</svg>

