<?xml version="1.0" encoding="UTF-8" standalone="no"?> <svg version="1.1" id="If7b7f85576c84100b0d9ba286ae07b7720251110130510" width="100" height="100" viewBox="0 0 100 100" xmlns="http://www.w3.org/2000/svg" xmlns:svg="http://www.w3.org/2000/svg"> <defs id="I628d96c9b6194b558c200d8e32b1567120251110130510" /> <g id="Ibc6c40852541490192c34187ae72591c20251110130510"> <path id="Id867b2c1d8524255aa7ad800bb317a0720251110130510" d="m 11.25,13.125 c 0,-1.035 0.84,-1.875 1.875,-1.875 h 37.5 c 1.035,0 1.875,0.84 1.875,1.875 v 7.5 c 0,1.035 -0.84,1.875 -1.875,1.875 -1.035,0 -1.875,-0.84 -1.875,-1.875 V 15 h -15 v 45 h 0.777 c 0.368,1.309 0.864,2.562 1.473,3.75 H 24.375 C 23.34,63.75 22.5,62.91 22.5,61.875 22.5,60.84 23.34,60 24.375,60 H 30 V 15 H 15 v 5.625 C 15,21.66 14.16,22.5 13.125,22.5 12.09,22.5 11.25,21.66 11.25,20.625 Z m 60,41.25 c 0,9.32 -7.555,16.875 -16.875,16.875 -9.32,0 -16.875,-7.555 -16.875,-16.875 0,-9.32 7.555,-16.875 16.875,-16.875 9.32,0 16.875,7.555 16.875,16.875 z m -15,-7.5 C 56.25,45.84 55.41,45 54.375,45 53.34,45 52.5,45.84 52.5,46.875 V 52.5 H 46.875 C 45.84,52.5 45,53.34 45,54.375 c 0,1.035 0.84,1.875 1.875,1.875 H 52.5 v 5.625 c 0,1.035 0.84,1.875 1.875,1.875 1.035,0 1.875,-0.84 1.875,-1.875 V 56.25 h 5.625 c 1.035,0 1.875,-0.84 1.875,-1.875 0,-1.035 -0.84,-1.875 -1.875,-1.875 H 56.25 Z" style="fill:currentColor;fill-opacity:1;fill-rule:nonzero;stroke:none" transform="scale(1.3333333)" /> </g>
</svg>

