<?xml version="1.0" encoding="UTF-8" standalone="no"?> <svg version="1.1" id="I55cdb3460a95462cabadcf6e57fc4b4620251106125937" width="100" height="100" viewBox="0 0 100 100" xmlns="http://www.w3.org/2000/svg" xmlns:svg="http://www.w3.org/2000/svg"> <defs id="Ie5d66bcde8b84237959cef497a56a09c20251106125937" /> <g id="If413a831ca8c4eda9db131a7764f297d20251106125937"> <path id="Id4091acf312845f99089b0f85437419b20251106125937" d="m 21.949,25.699 c -0.73,0.735 -1.918,0.735 -2.648,0 -0.735,-0.73 -0.735,-1.918 0,-2.648 l 15,-15 c 0.73,-0.735 1.918,-0.735 2.648,0 l 15,15 c 0.735,0.73 0.735,1.918 0,2.648 -0.73,0.735 -1.918,0.735 -2.648,0 L 37.5,13.902 V 37.5 c 0,7.367 0.926,12.68 2.867,16.773 1.918,4.051 4.903,7.079 9.348,9.743 0.887,0.535 1.176,1.687 0.644,2.574 -0.535,0.887 -1.687,1.176 -2.574,0.644 C 42.855,64.273 39.277,60.738 36.977,55.879 34.699,51.07 33.75,45.133 33.75,37.5 V 13.902 Z" style="fill:currentColor;fill-opacity:1;fill-rule:nonzero;stroke:none" transform="scale(1.3333333)" /> </g>
</svg>

