<?xml version="1.0" encoding="UTF-8" standalone="no"?>
<!-- Created with Inkscape (http://www.inkscape.org/) -->

<svg
   version="1.1"
   id="I56a637062a3d41d0925adca46fe8729720251031115229"
   width="100"
   height="100"
   viewBox="0 0 100 100"
   sodipodi:docname="output.ai"
   xmlns:inkscape="http://www.inkscape.org/namespaces/inkscape"
   xmlns:sodipodi="http://sodipodi.sourceforge.net/DTD/sodipodi-0.dtd"
   xmlns="http://www.w3.org/2000/svg"
   xmlns:svg="http://www.w3.org/2000/svg">
  <defs
     id="I828e10a272ab4c08986706e320579eaa20251031115229" />
  <sodipodi:namedview
     id="I8d233135adfb459a8f7138cdb4a8b37920251031115229"
     pagecolor="#ffffff"
     bordercolor="#000000"
     borderopacity="0.25"
     inkscape:showpageshadow="2"
     inkscape:pageopacity="0.0"
     inkscape:pagecheckerboard="0"
     inkscape:deskcolor="#d1d1d1">
    <inkscape:page
       x="0"
       y="0"
       inkscape:label="1"
       id="I3ba5f0f0fc4f42a5abb6ed921884a5cc20251031115229"
       width="100"
       height="100"
       margin="0"
       bleed="0" />
  </sodipodi:namedview>
  <g
     id="Ibc9cde5c4aca417fba9cb2d21e4b3a0820251031115229"
     inkscape:groupmode="layer"
     inkscape:label="1">
    <path
       id="Ie67defb2a5af4a14bca9a45baa1e37e620251031115229"
       d="M 26.25,45 C 28.32,45 30,43.32 30,41.25 30,39.18 28.32,37.5 26.25,37.5 c -2.07,0 -3.75,1.68 -3.75,3.75 0,2.07 1.68,3.75 3.75,3.75 z m 15,-3.75 c 0,2.07 -1.68,3.75 -3.75,3.75 -2.07,0 -3.75,-1.68 -3.75,-3.75 0,-2.07 1.68,-3.75 3.75,-3.75 2.07,0 3.75,1.68 3.75,3.75 z m 7.5,3.75 c 2.07,0 3.75,-1.68 3.75,-3.75 0,-2.07 -1.68,-3.75 -3.75,-3.75 -2.07,0 -3.75,1.68 -3.75,3.75 0,2.07 1.68,3.75 3.75,3.75 z M 11.25,20.625 c 0,-5.176 4.199,-9.375 9.375,-9.375 h 33.75 c 5.176,0 9.375,4.199 9.375,9.375 v 33.75 c 0,5.176 -4.199,9.375 -9.375,9.375 h -33.75 c -5.176,0 -9.375,-4.199 -9.375,-9.375 z M 20.625,15 C 17.52,15 15,17.52 15,20.625 v 33.75 C 15,57.48 17.52,60 20.625,60 h 33.75 C 57.48,60 60,57.48 60,54.375 V 26.25 H 35.625 C 32.52,26.25 30,23.73 30,20.625 V 15 Z M 60,20.625 C 60,17.52 57.48,15 54.375,15 H 33.75 v 5.625 c 0,1.035 0.84,1.875 1.875,1.875 H 60 Z"
       style="fill:#212121;fill-opacity:1;fill-rule:nonzero;stroke:none"
       transform="scale(1.3333333)" />
  </g>
</svg>



