<?xml version="1.0" encoding="UTF-8" standalone="no"?> <svg version="1.1" id="I68741d95d2dc4a1488159f9606c639d920251110130510" width="100" height="100" viewBox="0 0 100 100" xmlns="http://www.w3.org/2000/svg" xmlns:svg="http://www.w3.org/2000/svg"> <defs id="I37ba06ec33f549ebad7e9caa9b83bd5f20251110130510" /> <g id="I9bd09b23ba66435a8fef7090163ce2ef20251110130510"> <path id="I562366f00dba4f8993a54ffb06fe43d520251110130510" d="m 65.625,17.969 c 0,-4.746 -3.848,-8.594 -8.594,-8.594 H 17.969 c -4.746,0 -8.594,3.848 -8.594,8.594 v 39.062 c 0,4.746 3.848,8.594 8.594,8.594 h 39.062 c 4.746,0 8.594,-3.848 8.594,-8.594 z m -18.75,4.687 v 29.688 c 0,1.293 -1.051,2.344 -2.344,2.344 -1.293,0 -2.343,-1.051 -2.343,-2.344 V 22.656 c 0,-1.293 1.05,-2.344 2.343,-2.344 1.293,0 2.344,1.051 2.344,2.344 z m -12.5,0 v 29.688 c 0,1.293 -1.051,2.344 -2.344,2.344 -1.293,0 -2.343,-1.051 -2.343,-2.344 V 22.656 c 0,-1.293 1.05,-2.344 2.343,-2.344 1.293,0 2.344,1.051 2.344,2.344 z" style="fill:currentColor;fill-opacity:1;fill-rule:nonzero;stroke:none" transform="scale(1.3333333)" /> </g>
</svg>

