<?xml version="1.0" encoding="UTF-8" standalone="no"?> <svg version="1.1" id="I920964b813a442afb459cf70b39ef0a820251106170412" width="100" height="100" viewBox="0 0 100 100" xmlns="http://www.w3.org/2000/svg" xmlns:svg="http://www.w3.org/2000/svg"> <defs id="Idda64c26b6c94d8cb1b2d7e5ea131e2320251106170412" /> <g id="Ie7f1ac1ea08a4b09b2fd66d61f8a2cce20251106170412"> <path id="Iee2f24ea0250425e8c0f10048ebdecae20251106170412" d="m 20.312,12.5 c -9.492,0 -17.187,7.695 -17.187,17.188 0,7.3 4.551,13.535 10.969,16.027 0.125,-2.188 0.594,-4.281 1.355,-6.227 -3.601,-1.793 -6.074,-5.508 -6.074,-9.8 0,-6.04 4.898,-10.938 10.937,-10.938 h 18.75 C 45.102,18.75 50,23.648 50,29.688 50,35.727 45.102,40.625 39.062,40.625 H 37.5 c -1.727,0 -3.125,1.398 -3.125,3.125 0,1.727 1.398,3.125 3.125,3.125 h 1.562 C 48.555,46.875 56.25,39.18 56.25,29.688 56.25,20.195 48.555,12.5 39.062,12.5 Z M 59.73,38.168 c 3.454,1.379 5.895,4.758 5.895,8.707 0,5.18 -4.195,9.375 -9.375,9.375 H 34.375 C 29.199,56.25 25,52.055 25,46.875 25,41.695 29.199,37.5 34.375,37.5 H 37.5 c 1.727,0 3.125,-1.398 3.125,-3.125 0,-1.727 -1.398,-3.125 -3.125,-3.125 h -3.125 c -8.629,0 -15.625,6.996 -15.625,15.625 0,8.629 6.996,15.625 15.625,15.625 H 56.25 c 8.629,0 15.625,-6.996 15.625,-15.625 0,-7 -4.605,-12.926 -10.949,-14.914 -0.074,2.172 -0.492,4.258 -1.196,6.207 z" style="fill:currentColor;fill-opacity:1;fill-rule:nonzero;stroke:none" transform="scale(1.3333333)" /> </g>
</svg>

