<?xml version="1.0" encoding="UTF-8" standalone="no"?> <svg version="1.1" id="I49c39ac8728d4379b028ea9bcbe6681c20251110130507" width="100" height="100" viewBox="0 0 100 100" xmlns="http://www.w3.org/2000/svg" xmlns:svg="http://www.w3.org/2000/svg"> <defs id="Ie4ce4d1e01cd4238b5510115f68ce42e20251110130507" /> <g id="I639261dbc1834835b8d5981fcf71f2eb20251110130507"> <path id="I15a06ed3d7734d25b9c2845a18a6c69c20251110130507" d="m 25.762,40.637 c 1.808,0 2.894,1.933 2.07,3.449 l -0.18,0.281 -14.445,19.692 12.555,0.003 c 1.187,0 2.168,0.879 2.324,2.024 l 0.019,0.32 c 0,1.184 -0.878,2.164 -2.023,2.321 l -0.32,0.023 H 8.586 C 6.777,68.75 5.691,66.816 6.52,65.297 L 6.695,65.02 21.137,45.324 H 8.59 c -1.188,0 -2.168,-0.883 -2.324,-2.027 L 6.246,42.98 c 0,-1.187 0.879,-2.168 2.024,-2.324 L 8.59,40.637 Z M 66.41,6.254 c 1.875,0 2.949,2.058 1.996,3.574 L 68.219,10.09 41.684,42.18 H 66.41 c 1.188,0 2.168,0.882 2.324,2.023 l 0.02,0.32 c 0,1.188 -0.879,2.168 -2.024,2.321 l -0.32,0.023 H 36.711 c -1.871,0 -2.945,-2.058 -1.996,-3.578 l 0.191,-0.258 26.528,-32.093 -24.723,0.003 c -1.188,0 -2.168,-0.882 -2.324,-2.027 l -0.02,-0.316 c 0,-1.188 0.883,-2.168 2.028,-2.325 l 0.316,-0.019 z" style="fill:currentColor;fill-opacity:1;fill-rule:nonzero;stroke:none" transform="scale(1.3333333)" /> </g>
</svg>

