<?xml version="1.0" encoding="UTF-8" standalone="no"?> <svg version="1.1" id="Ib55cbd5484d84f089ec6c8080c1090ff20251110130508" width="100" height="100" viewBox="0 0 100 100" xmlns="http://www.w3.org/2000/svg" xmlns:svg="http://www.w3.org/2000/svg"> <defs id="I155f4afdb2fd4543801b1c228a4bbbc320251110130508" /> <g id="I4d8a6e30d3b4456aa125227a6e4b58ca20251110130508"> <path id="Ied0da8311e84423390aa8fe4c2785e6d20251110130508" d="m 35.156,9.375 c -3.883,0 -7.031,3.148 -7.031,7.031 v 7.032 h 18.75 v -7.032 c 0,-3.883 -3.148,-7.031 -7.031,-7.031 z m 11.719,18.75 h -18.75 v 18.75 h 7.809 c 2.054,-4.937 6.004,-8.887 10.941,-10.941 z m -18.75,23.437 h 6.488 c -0.156,1.02 -0.238,2.063 -0.238,3.126 0,4.027 1.172,7.781 3.191,10.937 h -2.41 c -3.883,0 -7.031,-3.148 -7.031,-7.031 z m 37.5,-16.406 v 2.41 c -3.156,-2.019 -6.91,-3.191 -10.937,-3.191 -1.063,0 -2.106,0.082 -3.126,0.238 v -6.488 h 7.032 c 3.883,0 7.031,3.148 7.031,7.031 z M 23.438,46.875 v -18.75 h -7.032 c -3.883,0 -7.031,3.148 -7.031,7.031 v 4.688 c 0,3.883 3.148,7.031 7.031,7.031 z m 48.437,7.813 C 71.875,45.195 64.18,37.5 54.688,37.5 45.195,37.5 37.5,45.195 37.5,54.688 c 0,9.492 7.695,17.187 17.188,17.187 9.492,0 17.187,-7.695 17.187,-17.187 z m -15.625,1.562 0.004,7.824 c 0,0.864 -0.699,1.563 -1.563,1.563 -0.863,0 -1.562,-0.699 -1.562,-1.563 L 53.125,56.25 h -7.828 c -0.859,0 -1.559,-0.699 -1.559,-1.562 0,-0.864 0.7,-1.563 1.559,-1.563 h 7.828 v -7.816 c 0,-0.864 0.699,-1.563 1.563,-1.563 0.863,0 1.562,0.699 1.562,1.563 v 7.816 h 7.801 c 0.863,0 1.562,0.699 1.562,1.563 0,0.863 -0.699,1.562 -1.562,1.562 z" style="fill:currentColor;fill-opacity:1;fill-rule:nonzero;stroke:none" transform="scale(1.3333333)" /> </g>
</svg>

