<?xml version="1.0" encoding="UTF-8" standalone="no"?> <svg version="1.1" id="Ic224292734dc446093861f27f686a82220251106165301" width="100" height="100" viewBox="0 0 100 100" xmlns="http://www.w3.org/2000/svg" xmlns:svg="http://www.w3.org/2000/svg"> <defs id="Iebc3b9ff0f7a4b438c74d12fa80b450920251106165301" /> <g id="I632a1741a41e4bb29f0b445088092b2320251106165301"> <path id="Idf7672948eb947dd93416a7a0b34dace20251106165301" d="m 40.625,28.125 c 0,1.727 -1.398,3.125 -3.125,3.125 -1.727,0 -3.125,-1.398 -3.125,-3.125 0,-1.727 1.398,-3.125 3.125,-3.125 1.727,0 3.125,1.398 3.125,3.125 z m -19.531,7.813 c -1.293,0 -2.344,1.05 -2.344,2.343 0,1.293 1.051,2.344 2.344,2.344 h 7.812 c 1.293,0 2.344,-1.051 2.344,-2.344 0,-1.293 -1.051,-2.343 -2.344,-2.343 z m 22.656,2.343 c 0,-1.293 1.051,-2.343 2.344,-2.343 h 7.812 c 1.293,0 2.344,1.05 2.344,2.343 0,1.293 -1.051,2.344 -2.344,2.344 h -7.812 c -1.293,0 -2.344,-1.051 -2.344,-2.344 z M 30.469,9.375 c -1.293,0 -2.344,1.051 -2.344,2.344 v 3.906 H 18.75 c -6.902,0 -12.5,5.598 -12.5,12.5 H 5.469 c -1.293,0 -2.344,1.051 -2.344,2.344 v 10.937 c 0,1.293 1.051,2.344 2.344,2.344 H 6.25 v 7.812 c 0,6.903 5.598,12.5 12.5,12.5 h 4.828 c 2.399,0 4.746,-0.687 6.762,-1.984 l 6.738,-4.332 c 0.258,-0.168 0.586,-0.168 0.844,0 l 6.738,4.332 c 2.016,1.297 4.363,1.984 6.762,1.984 h 4.828 c 6.902,0 12.5,-5.597 12.5,-12.5 V 43.75 h 0.781 c 1.293,0 2.344,-1.051 2.344,-2.344 V 30.469 c 0,-1.293 -1.051,-2.344 -2.344,-2.344 H 68.75 c 0,-6.902 -5.598,-12.5 -12.5,-12.5 h -9.375 v -3.906 c 0,-1.293 -1.051,-2.344 -2.344,-2.344 z M 18.75,20.312 h 37.5 c 4.316,0 7.812,3.497 7.812,7.813 v 23.437 c 0,4.317 -3.496,7.813 -7.812,7.813 h -4.828 c -1.5,0 -2.965,-0.43 -4.227,-1.242 l -6.738,-4.332 c -1.801,-1.156 -4.113,-1.156 -5.914,0 l -6.738,4.332 c -1.262,0.812 -2.727,1.242 -4.227,1.242 H 18.75 c -4.316,0 -7.812,-3.496 -7.812,-7.813 V 28.125 c 0,-4.316 3.496,-7.813 7.812,-7.813 z" style="fill:currentColor;fill-opacity:1;fill-rule:nonzero;stroke:none" transform="scale(1.3333333)" /> </g>
</svg>

