<?xml version="1.0" encoding="UTF-8" standalone="no"?>
<!-- Created with Inkscape (http://www.inkscape.org/) -->

<svg
   version="1.1"
   id="Ibfe536d34daa4a529324b408cbaef5b220251031115229"
   width="100"
   height="100"
   viewBox="0 0 100 100"
   sodipodi:docname="output.ai"
   xmlns:inkscape="http://www.inkscape.org/namespaces/inkscape"
   xmlns:sodipodi="http://sodipodi.sourceforge.net/DTD/sodipodi-0.dtd"
   xmlns="http://www.w3.org/2000/svg"
   xmlns:svg="http://www.w3.org/2000/svg">
  <defs
     id="I0307904a1ed543adada63544db6bbe3120251031115229" />
  <sodipodi:namedview
     id="I70ae7b127b7045f1a2ecc65c1b5e4bb920251031115229"
     pagecolor="#ffffff"
     bordercolor="#000000"
     borderopacity="0.25"
     inkscape:showpageshadow="2"
     inkscape:pageopacity="0.0"
     inkscape:pagecheckerboard="0"
     inkscape:deskcolor="#d1d1d1">
    <inkscape:page
       x="0"
       y="0"
       inkscape:label="1"
       id="I89ff917278674c469dee4502effc21cd20251031115229"
       width="100"
       height="100"
       margin="0"
       bleed="0" />
  </sodipodi:namedview>
  <g
     id="Ibd9996b69dc34733a9eb5de6a85417ab20251031115229"
     inkscape:groupmode="layer"
     inkscape:label="1">
    <path
       id="I8dd42627bfe447029250af11298240b820251031115229"
       d="m 35.223,22.656 c 0,-1.293 1.05,-2.344 2.343,-2.344 h 14.778 c 1.293,0 2.344,1.051 2.344,2.344 v 14.778 c 0,1.293 -1.051,2.343 -2.344,2.343 C 51.051,39.777 50,38.727 50,37.434 V 28.316 L 33.688,44.625 c -0.915,0.918 -2.399,0.918 -3.313,0 -0.918,-0.914 -0.918,-2.398 0,-3.313 L 46.684,25 h -9.118 c -1.293,0 -2.343,-1.051 -2.343,-2.344 z m -15.985,-6.25 c 1.321,-4.082 5.149,-7.031 9.668,-7.031 h 26.563 c 5.609,0 10.156,4.547 10.156,10.156 v 26.84 c 0,4.223 -2.578,7.848 -6.25,9.375 v 0.426 c 0,3.281 -1.656,5.766 -4.09,7.324 -2.344,1.504 -5.367,2.145 -8.418,2.129 H 46.863 L 34.121,65.609 H 21.875 c -3.613,0 -6.766,-1.132 -9.027,-3.265 C 10.57,60.199 9.375,57.219 9.375,53.906 V 26.562 c 0,-2.703 0.676,-5.257 2.293,-7.175 1.668,-1.977 4.094,-2.981 6.945,-2.981 z m -0.488,4.688 h -0.137 c -1.699,0 -2.722,0.558 -3.363,1.316 -0.691,0.817 -1.188,2.168 -1.188,4.152 v 27.344 c 0,2.156 0.758,3.856 1.997,5.024 1.253,1.179 3.179,1.992 5.816,1.992 h 12.246 l 12.758,0.016 h 0.008 c 2.465,0.011 4.515,-0.52 5.871,-1.387 1.16,-0.746 1.816,-1.719 1.918,-3.024 H 28.906 C 23.297,56.527 18.75,51.98 18.75,46.371 Z m 10.156,-7.032 c -3.019,0 -5.468,2.45 -5.468,5.469 v 26.84 c 0,3.02 2.449,5.469 5.468,5.469 h 26.563 c 3.019,0 5.469,-2.449 5.469,-5.469 v -26.84 c 0,-3.019 -2.45,-5.469 -5.469,-5.469 z"
       style="fill:#212121;fill-opacity:1;fill-rule:nonzero;stroke:none"
       transform="scale(1.3333333)" />
  </g>
</svg>



