<?xml version="1.0" encoding="UTF-8" standalone="no"?>
<!-- Created with Inkscape (http://www.inkscape.org/) -->

<svg
   version="1.1"
   id="I7dc0bbbb9dcf49d4816a4e930b6f5ed120251030155105"
   width="100"
   height="100"
   viewBox="0 0 100 100"
   sodipodi:docname="output.ai"
   xmlns:inkscape="http://www.inkscape.org/namespaces/inkscape"
   xmlns:sodipodi="http://sodipodi.sourceforge.net/DTD/sodipodi-0.dtd"
   xmlns="http://www.w3.org/2000/svg"
   xmlns:svg="http://www.w3.org/2000/svg">
  <defs
     id="I5f61dba0a56440a88e808d713817673c20251030155105" />
  <sodipodi:namedview
     id="I7ea513a46c7b4d229752bebeb9570e3f20251030155105"
     pagecolor="#ffffff"
     bordercolor="#000000"
     borderopacity="0.25"
     inkscape:showpageshadow="2"
     inkscape:pageopacity="0.0"
     inkscape:pagecheckerboard="0"
     inkscape:deskcolor="#d1d1d1">
    <inkscape:page
       x="0"
       y="0"
       inkscape:label="1"
       id="I118fc8ae5c5d4ac0bc5eab0a5b01858520251030155105"
       width="100"
       height="100"
       margin="0"
       bleed="0" />
  </sodipodi:namedview>
  <g
     id="I407b0523626f4d32804aafb544098aaf20251030155105"
     inkscape:groupmode="layer"
     inkscape:label="1">
    <path
       id="Ia252ce72531b40c4b01308fabcfb8ffa20251030155105"
       d="M 70.312,27.352 H 67.969 L 60.258,1.664 c 0,0 0,0 -0.117,-0.187 C 60.094,1.324 60.023,1.184 59.93,1.055 59.93,0.914 59.742,0.82 59.648,0.703 L 59.32,0.445 C 59.184,0.344 59.035,0.266 58.875,0.211 L 58.594,0 h -1.547 c -0.16,0.055 -0.309,0.133 -0.445,0.234 -0.114,0.075 -0.215,0.161 -0.305,0.258 l -0.305,0.352 c -0.086,0.133 -0.156,0.273 -0.211,0.422 0,0 0,0.117 -0.117,0.187 l -7.687,25.781 h -2.344 c -3.125,0 -3.125,4.688 0,4.688 h 8.273 c 3.125,0 3.125,-4.688 0,-4.688 h -0.961 l 2.11,-7.031 h 5.883 l 2.109,7.031 h -0.938 c -3.125,0 -3.125,4.688 0,4.688 h 8.203 c 3.126,0 3.126,-4.688 0,-4.688 z M 56.461,15.633 58.008,10.5 l 1.547,5.133 z"
       style="fill:#000000;fill-opacity:1;fill-rule:nonzero;stroke:none"
       transform="scale(1.3333333)" />
    <path
       id="If0142a34e59f461f8091916503cc678c20251030155105"
       d="M 16.992,0 C 15.699,0 14.648,1.051 14.648,2.344 V 67.195 L 6.305,59.227 c -0.918,-0.926 -2.41,-0.926 -3.328,0 -0.911,0.914 -0.911,2.39 0,3.304 L 15.281,74.25 c 0,0.117 0.235,0.141 0.352,0.234 0.117,0.09 0.242,0.172 0.375,0.235 0.566,0.25 1.215,0.25 1.781,0 0.137,-0.071 0.27,-0.149 0.399,-0.235 0,0 0.234,-0.14 0.328,-0.234 L 30.82,62.531 c 0.91,-0.914 0.91,-2.39 0,-3.304 -0.918,-0.926 -2.41,-0.926 -3.328,0 l -8.344,7.968 V 2.344 C 19.152,1.121 18.211,0.098 16.992,0 Z"
       style="fill:#000000;fill-opacity:1;fill-rule:nonzero;stroke:none"
       transform="scale(1.3333333)" />
    <path
       id="I2c438b6d566544b291f29cae00fc037920251030155105"
       d="m 70.312,66.398 c -1.292,0 -2.343,1.051 -2.343,2.344 v 1.57 H 50.977 L 72.07,46.875 c 0.614,-0.684 0.77,-1.668 0.399,-2.508 -0.371,-0.847 -1.207,-1.398 -2.133,-1.406 H 45.703 c -1.293,0 -2.344,1.051 -2.344,2.344 v 3.914 c 0,3.125 4.688,3.125 4.688,0 V 47.648 H 65.062 L 43.969,71.086 c -1.36,1.504 -0.293,3.91 1.734,3.914 h 24.609 c 1.293,0 2.344,-1.051 2.344,-2.344 v -3.914 c 0,-1.293 -1.051,-2.344 -2.344,-2.344 z"
       style="fill:#000000;fill-opacity:1;fill-rule:nonzero;stroke:none"
       transform="scale(1.3333333)" />
  </g>
</svg>


