<?xml version="1.0" encoding="UTF-8" standalone="no"?> <svg version="1.1" id="Ied0684fd107042bab590c384f9c6c0e620251106151526" width="100" height="100" viewBox="0 0 100 100" xmlns="http://www.w3.org/2000/svg" xmlns:svg="http://www.w3.org/2000/svg"> <defs id="Ie8a35533dd7642bc81b35da71db4abad20251106151526" /> <g id="I97a565f8bf8644eb85ef3e41b79b893720251106151526"> <path id="I844ca15fcade4e9884869c0fb2d3d7d120251106151526" d="m 32.031,6.25 h 10.938 c 3.617,0 6.597,2.734 6.988,6.25 h 5.512 c 3.883,0 7.031,3.148 7.031,7.031 v 21.094 h -7.059 l -3.097,-5.156 c -1.024,-1.711 -2.903,-2.731 -4.899,-2.653 -1.992,0.079 -3.789,1.235 -4.679,3.02 l -1.598,3.191 -3.891,-13.226 c -0.632,-2.156 -2.523,-3.703 -4.761,-3.903 -2.239,-0.203 -4.371,0.989 -5.375,3 L 19.277,40.625 H 12.5 V 19.531 c 0,-3.883 3.148,-7.031 7.031,-7.031 h 5.512 c 0.391,-3.516 3.371,-6.25 6.988,-6.25 z m 10.938,4.688 H 32.031 c -1.293,0 -2.343,1.05 -2.343,2.343 0,1.293 1.05,2.344 2.343,2.344 h 10.938 c 1.293,0 2.343,-1.051 2.343,-2.344 0,-1.293 -1.05,-2.343 -2.343,-2.343 z m 9.375,40.624 H 62.5 v 10.157 c 0,3.883 -3.148,7.031 -7.031,7.031 H 19.531 C 15.648,68.75 12.5,65.602 12.5,61.719 V 51.562 h 10.156 c 2.071,0 3.965,-1.171 4.891,-3.023 l 3.16,-6.316 3.891,13.226 c 0.632,2.156 2.523,3.703 4.761,3.903 2.239,0.203 4.371,-0.989 5.375,-3 l 3.391,-6.778 c 1.027,1.246 2.57,1.988 4.219,1.988 z M 34.281,26.684 c -0.273,-0.926 -1.082,-1.59 -2.043,-1.676 -0.957,-0.086 -1.871,0.426 -2.304,1.289 L 21.207,43.75 H 8.594 c -1.293,0 -2.344,1.051 -2.344,2.344 0,1.293 1.051,2.344 2.344,2.344 h 14.062 c 0.887,0 1.699,-0.5 2.098,-1.297 l 6.711,-13.422 6.129,20.847 c 0.273,0.926 1.082,1.59 2.043,1.676 0.957,0.082 1.871,-0.426 2.304,-1.289 l 5.903,-11.805 2.492,4.153 c 0.422,0.703 1.184,1.137 2.008,1.137 h 14.062 c 1.293,0 2.344,-1.051 2.344,-2.344 0,-1.293 -1.051,-2.344 -2.344,-2.344 H 53.672 l -4.008,-6.676 c -0.437,-0.73 -1.242,-1.168 -2.098,-1.136 -0.855,0.035 -1.625,0.531 -2.007,1.296 L 40.41,47.531 Z" style="fill:currentColor;fill-opacity:1;fill-rule:nonzero;stroke:none" transform="scale(1.3333333)" /> </g>
</svg>

