<?xml version="1.0" encoding="UTF-8" standalone="no"?> <svg version="1.1" id="If600707380454c1597fd3c3bc7ad011c20251106152728" width="100" height="100" viewBox="0 0 100 100" xmlns="http://www.w3.org/2000/svg" xmlns:svg="http://www.w3.org/2000/svg"> <defs id="I0317f51b6acf4ebaa2bc8b76ca7939ea20251106152728" /> <g id="Ib1bbdbe737c24ca68079f7723ba49f7d20251106152728"> <path id="I45aa9d3fac0f4af596f28f1cd4af4fb120251106152728" d="m 17.41,21.43 c 0,-2.961 1.887,-5.926 5.543,-8.25 3.629,-2.309 8.77,-3.805 14.547,-3.805 5.777,0 10.918,1.496 14.547,3.805 3.656,2.324 5.543,5.289 5.543,8.25 0,2.957 -1.887,5.922 -5.543,8.246 -3.629,2.312 -8.77,3.804 -14.547,3.804 -5.777,0 -10.918,-1.492 -14.547,-3.804 C 19.297,27.352 17.41,24.387 17.41,21.43 Z M 37.5,5.355 c -6.426,0 -12.336,1.657 -16.703,4.434 -4.344,2.766 -7.402,6.832 -7.402,11.641 0,4.808 3.058,8.875 7.402,11.636 4.367,2.782 10.277,4.434 16.703,4.434 6.426,0 12.336,-1.652 16.703,-4.434 4.344,-2.761 7.402,-6.828 7.402,-11.636 0,-4.809 -3.058,-8.875 -7.402,-11.641 C 49.836,7.012 43.926,5.355 37.5,5.355 Z M 17.41,37.5 c 0,-1.023 0.227,-2.047 0.672,-3.043 -1.121,-0.82 -2.168,-1.738 -3.105,-2.754 -1.008,1.762 -1.582,3.711 -1.582,5.797 0,4.809 3.058,8.875 7.402,11.641 4.367,2.777 10.277,4.429 16.703,4.429 6.426,0 12.336,-1.652 16.703,-4.429 4.344,-2.766 7.402,-6.832 7.402,-11.641 0,-2.086 -0.574,-4.035 -1.582,-5.797 -0.937,1.016 -1.984,1.934 -3.105,2.754 0.445,0.996 0.672,2.02 0.672,3.043 0,2.957 -1.887,5.926 -5.543,8.25 -3.629,2.309 -8.77,3.805 -14.547,3.805 -5.777,0 -10.918,-1.496 -14.547,-3.805 C 19.297,43.426 17.41,40.457 17.41,37.5 Z m 0,16.07 c 0,-1.019 0.227,-2.043 0.672,-3.043 -1.121,-0.82 -2.168,-1.738 -3.105,-2.754 -1.008,1.762 -1.582,3.711 -1.582,5.797 0,4.809 3.058,8.875 7.402,11.641 4.367,2.777 10.277,4.434 16.703,4.434 6.426,0 12.336,-1.657 16.703,-4.434 4.344,-2.766 7.402,-6.832 7.402,-11.641 0,-2.086 -0.574,-4.035 -1.582,-5.797 -0.937,1.016 -1.984,1.934 -3.105,2.754 0.445,1 0.672,2.024 0.672,3.043 0,2.961 -1.887,5.926 -5.543,8.25 -3.629,2.309 -8.77,3.805 -14.547,3.805 -5.777,0 -10.918,-1.496 -14.547,-3.805 -3.656,-2.324 -5.543,-5.289 -5.543,-8.25 z" style="fill:currentColor;fill-opacity:1;fill-rule:nonzero;stroke:none" transform="scale(1.3333333)" /> </g>
</svg>

