<?xml version="1.0" encoding="UTF-8" standalone="no"?> <svg version="1.1" id="Iec48a07745834b1bacfd773cb411ca0a20251106142135" width="100" height="100" viewBox="0 0 100 100" xmlns="http://www.w3.org/2000/svg" xmlns:svg="http://www.w3.org/2000/svg"> <defs id="I4003a58950b540dca1dbd16eab4c8cae20251106142135" /> <g id="I9cf431887018424aa74eefa92f04e65420251106142135"> <path id="Iee229200f481457a816efadeb3000f5520251106142135" d="m 21.094,63.281 c 0,1.293 -1.051,2.344 -2.344,2.344 -5.18,0 -9.375,-4.195 -9.375,-9.375 V 42.188 c 0,-1.293 -1.051,-2.344 -2.344,-2.344 -1.293,0 -2.343,-1.051 -2.343,-2.344 0,-1.293 1.05,-2.344 2.343,-2.344 1.293,0 2.344,-1.051 2.344,-2.344 V 18.75 c 0,-5.18 4.195,-9.375 9.375,-9.375 1.293,0 2.344,1.051 2.344,2.344 0,1.293 -1.051,2.343 -2.344,2.343 -2.586,0 -4.688,2.102 -4.688,4.688 v 14.062 c 0,1.801 -0.675,3.446 -1.789,4.688 1.114,1.242 1.789,2.887 1.789,4.688 V 56.25 c 0,2.586 2.102,4.688 4.688,4.688 1.293,0 2.344,1.05 2.344,2.343 z M 67.969,35.156 c -1.293,0 -2.344,-1.051 -2.344,-2.344 V 18.75 c 0,-5.18 -4.195,-9.375 -9.375,-9.375 -1.293,0 -2.344,1.051 -2.344,2.344 0,1.293 1.051,2.343 2.344,2.343 2.586,0 4.688,2.102 4.688,4.688 v 14.062 c 0,1.801 0.675,3.446 1.789,4.688 -1.11,1.242 -1.789,2.887 -1.789,4.688 V 56.25 c 0,2.586 -2.102,4.688 -4.688,4.688 -1.293,0 -2.344,1.05 -2.344,2.343 0,1.293 1.051,2.344 2.344,2.344 5.18,0 9.375,-4.195 9.375,-9.375 V 42.188 c 0,-1.293 1.051,-2.344 2.344,-2.344 1.293,0 2.343,-1.051 2.343,-2.344 0,-1.293 -1.05,-2.344 -2.343,-2.344 z M 56.25,37.5 c 0,10.355 -8.395,18.75 -18.75,18.75 -10.355,0 -18.75,-8.395 -18.75,-18.75 0,-10.355 8.395,-18.75 18.75,-18.75 10.355,0 18.75,8.395 18.75,18.75 z m -4.688,0 c 0,-7.754 -6.308,-14.062 -14.062,-14.062 -7.754,0 -14.062,6.308 -14.062,14.062 0,7.754 6.308,14.062 14.062,14.062 7.754,0 14.062,-6.308 14.062,-14.062 z m -7.031,-7.031 c -0.914,-0.914 -2.398,-0.914 -3.312,0 L 37.5,34.188 33.781,30.469 c -0.914,-0.914 -2.398,-0.914 -3.312,0 -0.914,0.914 -0.914,2.398 0,3.312 l 3.719,3.719 -3.719,3.719 c -0.914,0.914 -0.914,2.398 0,3.312 0.914,0.914 2.398,0.914 3.312,0 l 3.719,-3.719 3.719,3.719 c 0.914,0.914 2.398,0.914 3.312,0 0.914,-0.914 0.914,-2.398 0,-3.312 L 40.812,37.5 44.531,33.781 c 0.914,-0.914 0.914,-2.398 0,-3.312 z" style="fill:currentColor;fill-opacity:1;fill-rule:nonzero;stroke:none" transform="scale(1.3333333)" /> </g>
</svg>

