<?xml version="1.0" encoding="UTF-8" standalone="no"?> <svg version="1.1" id="Ia9cd208fa89e42668124172d8519eac020251106163937" width="100" height="100" viewBox="0 0 100 100" xmlns="http://www.w3.org/2000/svg" xmlns:svg="http://www.w3.org/2000/svg"> <defs id="Ibd1612c7cd9044b094812a90386867f320251106163937" /> <g id="I8ab66f8fc0084cd28df06265f7f790da20251106163937"> <path id="I7311a389157c468fb56130c21192cf4920251106163937" d="m 21.09,37.5 c -0.656,0 -1.285,0.277 -1.731,0.762 -0.441,0.488 -0.66,1.14 -0.601,1.793 0.875,9.605 7.969,17.757 18.742,17.757 10.773,0 17.867,-8.152 18.742,-17.757 0.059,-0.653 -0.16,-1.305 -0.601,-1.793 C 55.195,37.777 54.566,37.5 53.91,37.5 Z M 37.5,53.125 C 30.445,53.125 25.402,48.5 23.852,42.188 H 51.148 C 49.598,48.5 44.555,53.125 37.5,53.125 Z M 47.656,27.344 c -1.277,0 -2.218,0.898 -2.367,1.906 -0.191,1.281 -1.383,2.164 -2.664,1.977 -1.281,-0.192 -2.164,-1.383 -1.973,-2.665 0.504,-3.406 3.508,-5.906 7.004,-5.906 3.496,0 6.5,2.5 7.008,5.906 0.188,1.282 -0.695,2.473 -1.976,2.665 -1.282,0.187 -2.473,-0.696 -2.661,-1.977 -0.152,-1.008 -1.093,-1.906 -2.371,-1.906 z M 24.977,29.25 c 0.148,-1.008 1.089,-1.906 2.367,-1.906 1.277,0 2.218,0.898 2.371,1.906 0.187,1.281 1.379,2.164 2.66,1.977 1.281,-0.192 2.164,-1.383 1.977,-2.665 -0.508,-3.406 -3.512,-5.906 -7.008,-5.906 -3.496,0 -6.5,2.5 -7.004,5.906 -0.192,1.282 0.691,2.473 1.972,2.665 1.282,0.187 2.473,-0.696 2.665,-1.977 z M 37.5,6.25 C 20.242,6.25 6.25,20.242 6.25,37.5 6.25,54.758 20.242,68.75 37.5,68.75 54.758,68.75 68.75,54.758 68.75,37.5 68.75,20.242 54.758,6.25 37.5,6.25 Z M 10.938,37.5 c 0,-14.672 11.89,-26.562 26.562,-26.562 14.672,0 26.562,11.89 26.562,26.562 0,14.672 -11.89,26.562 -26.562,26.562 -14.672,0 -26.562,-11.89 -26.562,-26.562 z" style="fill:currentColor;fill-opacity:1;fill-rule:nonzero;stroke:none" transform="scale(1.3333333)" /> </g>
</svg>

