<?xml version="1.0" encoding="UTF-8" standalone="no"?> <svg version="1.1" id="I3cab11bacdcb40328bf12b6ae9e5d2f920251110133655" width="100" height="100" viewBox="0 0 100 100" xmlns="http://www.w3.org/2000/svg" xmlns:svg="http://www.w3.org/2000/svg"> <defs id="Ide77fdc632334cbf95ad6aa85d36656620251110133655" /> <g id="I53154f2ec1d940c88bb6afb00336d02720251110133655"> <path id="I53fdff336af142e2957870ee58c5511820251110133655" d="m 19.531,9.375 c -5.609,0 -10.156,4.547 -10.156,10.156 v 35.938 c 0,5.609 4.547,10.156 10.156,10.156 h 14.981 c 0.285,-1.504 1.011,-2.941 2.176,-4.105 L 37.27,60.938 H 19.531 c -3.019,0 -5.469,-2.45 -5.469,-5.469 V 26.562 h 46.876 v 7.915 c 0.535,0.058 1.07,0.148 1.597,0.261 1.473,0.324 2.547,1.289 3.09,2.477 V 19.531 C 65.625,13.922 61.078,9.375 55.469,9.375 Z M 49.98,37.289 44.625,31.938 c -0.914,-0.918 -2.398,-0.918 -3.313,0 -0.917,0.914 -0.917,2.398 0,3.312 l 5.286,5.289 c 0.41,-0.531 0.855,-1.039 1.34,-1.523 0.64,-0.641 1.324,-1.215 2.042,-1.727 z M 33.688,35.25 c 0.917,-0.914 0.917,-2.398 0,-3.312 -0.915,-0.918 -2.399,-0.918 -3.313,0 L 21,41.312 c -0.918,0.915 -0.918,2.399 0,3.313 L 30.375,54 c 0.914,0.918 2.398,0.918 3.313,0 0.917,-0.914 0.917,-2.398 0,-3.312 l -7.715,-7.719 z m 28.183,2.543 c 1.102,0.242 1.375,1.586 0.578,2.383 L 56.5,46.125 c -1.867,1.863 -1.867,4.887 0,6.75 1.863,1.863 4.883,1.863 6.746,0 l 5.953,-5.949 c 0.797,-0.797 2.141,-0.528 2.383,0.578 0.891,4.09 -0.254,8.539 -3.434,11.723 -3.777,3.777 -9.336,4.683 -13.972,2.718 l -8.528,8.532 c -1.863,1.863 -4.886,1.863 -6.75,0 -1.863,-1.864 -1.863,-4.887 0,-6.75 l 8.528,-8.528 c -1.965,-4.633 -1.059,-10.195 2.722,-13.972 3.18,-3.18 7.629,-4.325 11.723,-3.434 z" style="fill:currentColor;fill-opacity:1;fill-rule:nonzero;stroke:none" transform="scale(1.3333333)" /> </g>
</svg>

