<?xml version="1.0" encoding="UTF-8" standalone="no"?> <svg version="1.1" id="Ia99f6bcd46474daf968d632fe4662c5d20251106142136" width="100" height="100" viewBox="0 0 100 100" xmlns="http://www.w3.org/2000/svg" xmlns:svg="http://www.w3.org/2000/svg"> <defs id="Id7cef23215dd4825a1659cbd0662d84620251106142136" /> <g id="I4c00f14b66ee44ca90045fba3c6c3c3920251106142136"> <path id="I64f6fc8fed7f4c9995aaef14b35ad75720251106142136" d="m 10.938,11.719 c 0,-0.43 0.351,-0.781 0.781,-0.781 h 17.187 c 0.43,0 0.782,0.351 0.782,0.781 v 9.375 c 0,3.019 2.449,5.468 5.468,5.468 h 3.125 c 0.43,0 0.781,0.352 0.781,0.782 v 4.136 c 1.493,-0.425 3.063,-0.671 4.688,-0.707 v -3.429 c 0,-3.02 -2.449,-5.469 -5.469,-5.469 h -3.125 c -0.429,0 -0.781,-0.352 -0.781,-0.781 v -9.375 c 0,-3.02 -2.449,-5.469 -5.469,-5.469 H 11.719 c -3.02,0 -5.469,2.449 -5.469,5.469 v 39.062 c 0,3.02 2.449,5.469 5.469,5.469 h 4.711 c 0.09,-1.648 0.449,-3.227 1.035,-4.688 h -5.746 c -0.43,0 -0.781,-0.351 -0.781,-0.781 z m 5.468,8.593 c 1.293,0 2.344,-1.05 2.344,-2.343 0,-1.293 -1.051,-2.344 -2.344,-2.344 -1.293,0 -2.344,1.051 -2.344,2.344 0,1.293 1.051,2.343 2.344,2.343 z m 0,9.376 c 1.293,0 2.344,-1.051 2.344,-2.344 0,-1.293 -1.051,-2.344 -2.344,-2.344 -1.293,0 -2.344,1.051 -2.344,2.344 0,1.293 1.051,2.344 2.344,2.344 z m 0,9.374 c 1.293,0 2.344,-1.05 2.344,-2.343 0,-1.293 -1.051,-2.344 -2.344,-2.344 -1.293,0 -2.344,1.051 -2.344,2.344 0,1.293 1.051,2.343 2.344,2.343 z m 7.813,-18.75 c 1.293,0 2.343,-1.05 2.343,-2.343 0,-1.293 -1.05,-2.344 -2.343,-2.344 -1.293,0 -2.344,1.051 -2.344,2.344 0,1.293 1.051,2.343 2.344,2.343 z m 0,9.376 c 1.293,0 2.343,-1.051 2.343,-2.344 0,-1.293 -1.05,-2.344 -2.343,-2.344 -1.293,0 -2.344,1.051 -2.344,2.344 0,1.293 1.051,2.344 2.344,2.344 z m 0,9.374 c 1.293,0 2.343,-1.05 2.343,-2.343 0,-1.293 -1.05,-2.344 -2.343,-2.344 -1.293,0 -2.344,1.051 -2.344,2.344 0,1.293 1.051,2.343 2.344,2.343 z m 19.922,-5.167 c -7.188,0 -13.211,4.964 -14.84,11.648 -5.543,0.914 -9.77,5.727 -9.77,11.527 0,6.45 5.231,11.68 11.68,11.68 H 57.07 c 6.45,0 11.68,-5.23 11.68,-11.68 0,-5.8 -4.227,-10.613 -9.77,-11.527 C 57.352,38.859 51.328,33.895 44.141,33.895 Z m -10.52,14.093 c 0.586,-5.289 5.074,-9.406 10.52,-9.406 5.445,0 9.933,4.117 10.519,9.406 l 0.231,2.098 2.179,-0.012 h 0.004 c 3.86,0.004 6.988,3.133 6.988,6.996 0,3.86 -3.132,6.992 -6.992,6.992 H 31.211 c -3.859,0 -6.992,-3.132 -6.992,-6.992 0,-3.863 3.129,-6.992 6.988,-6.996 h 0.004 l 2.18,0.012 z" style="fill:currentColor;fill-opacity:1;fill-rule:nonzero;stroke:none" transform="scale(1.3333333)" /> </g>
</svg>

