<?xml version="1.0" encoding="UTF-8" standalone="no"?> <svg version="1.1" id="I6b2f1742982247acb05d79b85f9ff66420251106143238" width="100" height="100" viewBox="0 0 100 100" xmlns="http://www.w3.org/2000/svg" xmlns:svg="http://www.w3.org/2000/svg"> <defs id="I6a86b46fc962495b84f0c381f85f097c20251106143238"> <linearGradient x1="9.4285698" y1="6.5" x2="14.1366" y2="20.9321" gradientUnits="userSpaceOnUse" gradientTransform="scale(3.125)" spreadMethod="pad" id="I78e95a28a2724138a3f72d45f1b5b9c020251106143238"> <stop style="stop-opacity:1;stop-color:#b3e0ff" offset="0" id="Iceb51d6725d64a96975f1c94eb0fb2ae20251106143238" /> <stop style="stop-opacity:1;stop-color:#8cd0ff" offset="1" id="I2049287f999649e588f27bc08900204120251106143238" /> </linearGradient> <linearGradient x1="13.9286" y1="12.4318" x2="16.625" y2="24.267" gradientUnits="userSpaceOnUse" gradientTransform="scale(3.125)" spreadMethod="pad" id="I1ad81361413f46dd86934393672bee1220251106143238"> <stop style="stop-opacity:0;stop-color:#dcf8ff" offset="0" id="I42d806f4b37d43c2a6d39cff54049b1920251106143238" /> <stop style="stop-opacity:0.70000763;stop-color:#ff6ce8" offset="1" id="Iac75b3ea8feb4963a6857be14305210620251106143238" /> </linearGradient> <radialGradient fx="0" fy="0" cx="0" cy="0" r="1" gradientUnits="userSpaceOnUse" gradientTransform="matrix(0,26.775563,-26.116063,0,55.580312,59.445938)" spreadMethod="pad" id="I9424e6f89f5445109d5fba79fc198b1a20251106143238"> <stop style="stop-opacity:0.29999237;stop-color:#4a43cb" offset="0" id="I8f538245df72444881a11e6b3b02412a20251106143238" /> <stop style="stop-opacity:0.29999237;stop-color:#4a43cb" offset="0.535" id="I00ff20dbdcad470db0874c473c9854d820251106143238" /> <stop style="stop-opacity:0;stop-color:#4a43cb" offset="1" id="Idc9bc51bec5540f487f2e847d408548e20251106143238" /> </radialGradient> <linearGradient x1="3.7232101" y1="3" x2="5.3563099" y2="11.5369" gradientUnits="userSpaceOnUse" gradientTransform="scale(3.125)" spreadMethod="pad" id="Ie8d0d0f11df5478a8bd48ccf6723a8fd20251106143238"> <stop style="stop-opacity:1;stop-color:#0094f0" offset="0" id="If159c247e6544638ae8675daf35a47c920251106143238" /> <stop style="stop-opacity:1;stop-color:#2764e7" offset="1" id="I59eb5c311cc7430682584c989057e40820251106143238" /> </linearGradient> <linearGradient x1="13.7187" y1="12.6875" x2="20.9375" y2="23.3437" gradientUnits="userSpaceOnUse" gradientTransform="scale(3.125)" spreadMethod="pad" id="I0550609689c447939ad8e04998a12bb320251106143238"> <stop style="stop-opacity:1;stop-color:#f83f54" offset="0" id="Ica5bff2c223a4c94aa867daa60d6b50320251106143238" /> <stop style="stop-opacity:1;stop-color:#ca2134" offset="1" id="I353aeac6a40348df93d5d994040f803920251106143238" /> </linearGradient> <linearGradient x1="15.5033" y1="17.7005" x2="17.856501" y2="20.148701" gradientUnits="userSpaceOnUse" gradientTransform="scale(3.125)" spreadMethod="pad" id="Idd00f5e20a3141d18d5631d518310cf220251106143238"> <stop style="stop-opacity:1;stop-color:#fdfdfd" offset="0" id="I61c9f2e09df24d1180104713fab4cb8e20251106143238" /> <stop style="stop-opacity:1;stop-color:#fecbe6" offset="1" id="I74dc74edd98147949b1fd845437f012a20251106143238" /> </linearGradient> </defs> <g id="I93dfecf5c9a746bd874e916ef2b63cd720251106143238"> <path id="I96352dcfba9f4cbbb5eee6acb84eb48320251106143238" d="m 65.625,23.438 v 32.031 c 0,5.609 -4.547,10.156 -10.156,10.156 H 19.531 C 13.922,65.625 9.375,61.078 9.375,55.469 V 23.438 L 37.5,20.312 Z" transform="scale(1.3333333)" style="fill:url(#I78e95a28a2724138a3f72d45f1b5b9c020251106143238);stroke:none" /> <path d="m 65.625,23.438 v 32.031 c 0,5.609 -4.547,10.156 -10.156,10.156 H 19.531 C 13.922,65.625 9.375,61.078 9.375,55.469 V 23.438 L 37.5,20.312 Z" transform="scale(1.3333333)" style="fill:url(#I1ad81361413f46dd86934393672bee1220251106143238);stroke:none" opacity="1" id="Ie9bb16a037df4cc5a4ad209ee1b0ac9c20251106143238" /> <path d="m 65.625,23.438 v 32.031 c 0,5.609 -4.547,10.156 -10.156,10.156 H 19.531 C 13.922,65.625 9.375,61.078 9.375,55.469 V 23.438 L 37.5,20.312 Z" transform="scale(1.3333333)" style="fill:url(#I9424e6f89f5445109d5fba79fc198b1a20251106143238);stroke:none" opacity="1" id="Iaf29771ceb4145ce9a55fa64d94e904f20251106143238" /> <path id="I867e630f66b64fbb800a1f396118861120251106143238" d="m 55.469,9.375 c 5.609,0 10.156,4.547 10.156,10.156 V 25 H 9.375 v -5.469 c 0,-5.609 4.547,-10.156 10.156,-10.156 z" transform="scale(1.3333333)" style="fill:url(#Ie8d0d0f11df5478a8bd48ccf6723a8fd20251106143238);stroke:none" /> <path id="I849a7f4395144942aaee4f776e880abc20251106143238" d="m 54.688,37.5 c 9.492,0 17.187,7.695 17.187,17.188 0,9.492 -7.695,17.187 -17.187,17.187 C 45.195,71.875 37.5,64.18 37.5,54.688 37.5,45.195 45.195,37.5 54.688,37.5 Z" transform="scale(1.3333333)" style="fill:url(#I0550609689c447939ad8e04998a12bb320251106143238);stroke:none" /> <path id="I997badf8d9654e7d9334e0b3e3103a5c20251106143238" d="m 46.949,46.953 c -0.609,0.609 -0.609,1.598 0,2.207 l 5.528,5.531 -5.52,5.52 c -0.609,0.609 -0.609,1.601 0,2.211 0.609,0.609 1.602,0.609 2.211,0 l 5.52,-5.52 5.531,5.528 c 0.609,0.609 1.597,0.609 2.207,0 0.613,-0.614 0.613,-1.602 0,-2.211 l -5.528,-5.528 5.54,-5.531 c 0.609,-0.609 0.609,-1.598 0,-2.207 -0.614,-0.613 -1.602,-0.613 -2.211,0 L 54.691,52.48 49.16,46.953 c -0.609,-0.613 -1.601,-0.613 -2.211,0 z" transform="scale(1.3333333)" style="fill:url(#Idd00f5e20a3141d18d5631d518310cf220251106143238);stroke:none" /> </g>
</svg>

