<?xml version="1.0" encoding="UTF-8" standalone="no"?> <svg version="1.1" id="I5f46d3eaa9264fd4b412eccdf81f896720251110124419" width="100" height="100" viewBox="0 0 100 100" xmlns="http://www.w3.org/2000/svg" xmlns:svg="http://www.w3.org/2000/svg"> <defs id="I22c7ac27cb2b4a7e81141b2929ef358720251110124419" /> <g id="Ibce8dc0c1d284efaa949c33250978a4a20251110124419"> <path id="Ie5607b7aeaec4851b7c2da928888067b20251110124419" d="M 33.547,0.207 C 25.301,1.07 17.285,4.664 10.969,10.984 4.648,17.305 1.055,25.316 0.191,33.562 Z M 0.703,44.824 44.809,0.719 c 3.027,0.597 5.996,1.574 8.828,2.929 L 3.629,53.652 C 2.277,50.82 1.301,47.852 0.703,44.824 Z m 7.465,16.067 c 0.863,1.078 1.797,2.125 2.801,3.125 1.004,1.004 2.051,1.937 3.133,2.804 L 66.805,14.117 C 65.938,13.035 65.004,11.988 64,10.984 63,9.98 61.953,9.047 60.875,8.184 Z m 63.172,-39.536 -50,50 c 2.836,1.356 5.808,2.333 8.844,2.93 L 74.27,30.199 c -0.598,-3.035 -1.575,-6.008 -2.93,-8.844 z m 3.433,20.11 -33.324,33.328 C 49.688,73.922 57.688,70.328 64,64.016 70.312,57.703 73.902,49.703 74.773,41.465 Z" style="fill:currentColor;fill-opacity:1;fill-rule:nonzero;stroke:none" transform="scale(1.3333333)" /> </g>
</svg>

