<?xml version="1.0" encoding="UTF-8" standalone="no"?> <svg version="1.1" id="Ib8a811e8f58540a5a474fde5333b9c8020251106103256" width="100" height="100" viewBox="0 0 100 100" xmlns="http://www.w3.org/2000/svg" xmlns:svg="http://www.w3.org/2000/svg"> <defs id="Id5ef38509fb84965bdb3e6a3519a6f8320251106103256" /> <g id="I2500994b570a4971ad986bc2c0db3cb120251106103256"> <path id="I1fec38ad871a410989c4ce899278a13620251106103256" d="M 72.32,8.121 H 53.168 c -4.109,0 -8.125,1.18 -11.582,3.406 L 37.5,14.145 33.414,11.527 C 29.961,9.301 25.938,8.117 21.832,8.121 H 2.68 C 1.195,8.121 0,9.316 0,10.797 v 47.547 c 0,1.48 1.195,2.676 2.68,2.676 h 19.152 c 4.109,0 8.125,1.183 11.582,3.41 l 3.719,2.39 c 0.109,0.071 0.234,0.11 0.359,0.11 0.125,0 0.25,-0.032 0.36,-0.11 l 3.714,-2.39 c 3.469,-2.227 7.493,-3.41 11.602,-3.41 H 72.32 c 1.485,0 2.68,-1.196 2.68,-2.676 L 75,10.797 C 75,9.316 73.805,8.121 72.32,8.121 Z M 21.832,54.996 H 6.027 V 14.145 h 15.805 c 2.961,0 5.84,0.847 8.328,2.445 l 4.082,2.621 0.578,0.375 V 58.258 C 30.836,56.117 26.383,54.996 21.832,54.996 Z m 47.141,0 H 53.168 c -4.551,0 -9.004,1.121 -12.988,3.262 V 19.586 l 0.578,-0.375 4.082,-2.621 c 2.488,-1.598 5.367,-2.445 8.328,-2.445 H 68.973 Z M 27.867,24.859 H 12.312 c -0.324,0 -0.593,0.286 -0.593,0.629 v 3.766 c 0,0.344 0.269,0.629 0.593,0.629 h 15.543 c 0.329,0 0.598,-0.285 0.598,-0.629 v -3.766 c 0.008,-0.343 -0.262,-0.629 -0.586,-0.629 z m 18.672,0.629 v 3.766 c 0,0.344 0.27,0.629 0.594,0.629 H 62.68 c 0.324,0 0.593,-0.285 0.593,-0.629 v -3.766 c 0,-0.343 -0.269,-0.629 -0.593,-0.629 H 47.133 c -0.324,0 -0.594,0.286 -0.594,0.629 z M 27.867,36.578 H 12.312 c -0.324,0 -0.593,0.285 -0.593,0.629 v 3.766 c 0,0.343 0.269,0.629 0.593,0.629 h 15.543 c 0.329,0 0.598,-0.286 0.598,-0.629 v -3.766 c 0.008,-0.344 -0.262,-0.629 -0.586,-0.629 z m 34.821,0 H 47.133 c -0.324,0 -0.594,0.285 -0.594,0.629 v 3.766 c 0,0.343 0.27,0.629 0.594,0.629 H 62.68 c 0.324,0 0.593,-0.286 0.593,-0.629 v -3.766 c 0.008,-0.344 -0.261,-0.629 -0.585,-0.629 z" style="fill:currentColor;fill-opacity:1;fill-rule:nonzero;stroke:none" transform="scale(1.3333333)" /> </g>
</svg>

