<?xml version="1.0" encoding="UTF-8" standalone="no"?> <svg version="1.1" id="I69cc586c9ef844f5a920796de0de27da20251110124422" width="100" height="100" viewBox="0 0 100 100" xmlns="http://www.w3.org/2000/svg" xmlns:svg="http://www.w3.org/2000/svg"> <defs id="I9e9d2de9c4454273a68bdc0de270fa8520251110124422" /> <g id="Ibd4fd08f8ed340728c483ce97c8bb33d20251110124422"> <path id="If91f140bd9254f1192fe1669939447ed20251110124422" d="M 12.5,16.406 C 12.5,10.797 17.047,6.25 22.656,6.25 h 17.078 c 2.692,0 5.274,1.07 7.18,2.977 l 12.609,12.609 c 1.907,1.906 2.977,4.488 2.977,7.18 v 29.578 c 0,5.609 -4.547,10.156 -10.156,10.156 H 22.656 C 17.047,68.75 12.5,64.203 12.5,58.594 Z M 24.219,43.75 H 37.5 V 33.594 h -8.594 c -2.59,0 -4.687,2.097 -4.687,4.687 z m 0,4.688 v 3.906 c 0,2.59 2.097,4.687 4.687,4.687 H 37.5 v -8.593 z m 17.969,8.593 h 3.906 c 2.59,0 4.687,-2.097 4.687,-4.687 V 38.281 c 0,-2.59 -2.097,-4.687 -4.687,-4.687 h -3.906 z" style="fill:currentColor;fill-opacity:1;fill-rule:nonzero;stroke:none" transform="scale(1.3333333)" /> </g>
</svg>

