<?xml version="1.0" encoding="UTF-8" standalone="no"?> <svg version="1.1" id="I84282312ab374cc4aef98c586a14c58520251110133655" width="100" height="100" viewBox="0 0 100 100" xmlns="http://www.w3.org/2000/svg" xmlns:svg="http://www.w3.org/2000/svg"> <defs id="Ib4d3700771ca45b79406fc392a8267e920251110133655" /> <g id="Ia394a9a88d2048dd9fe0a0dc3d5bb5e820251110133655"> <path id="I6f5af2af5ab24f1bb80bdcfaa140cfd120251110133655" d="m 37.5,5.355 c 1.109,0 2.008,0.903 2.008,2.012 v 4.008 c 0,1.109 -0.899,2.008 -2.008,2.008 -1.109,0 -2.008,-0.899 -2.008,-2.008 V 7.367 c 0,-1.109 0.899,-2.012 2.008,-2.012 z M 53.57,37.5 c 0,8.875 -7.195,16.07 -16.07,16.07 -8.875,0 -16.07,-7.195 -16.07,-16.07 0,-8.875 7.195,-16.07 16.07,-16.07 8.875,0 16.07,7.195 16.07,16.07 z m 14.063,2.008 c 1.109,0 2.012,-0.899 2.012,-2.008 0,-1.109 -0.903,-2.008 -2.012,-2.008 h -4.008 c -1.109,0 -2.008,0.899 -2.008,2.008 0,1.109 0.899,2.008 2.008,2.008 z M 37.5,61.617 c 1.109,0 2.008,0.899 2.008,2.008 v 4.008 c 0,1.109 -0.899,2.012 -2.008,2.012 -1.109,0 -2.008,-0.903 -2.008,-2.012 v -4.008 c 0,-1.109 0.899,-2.008 2.008,-2.008 z M 11.383,39.508 c 1.109,0 2.012,-0.899 2.012,-2.008 0,-1.109 -0.903,-2.008 -2.012,-2.008 H 7.367 c -1.109,0 -2.008,0.899 -2.008,2.008 0,1.109 0.899,2.008 2.008,2.008 z M 13.98,13.98 c 0.786,-0.785 2.059,-0.785 2.844,0 l 4.016,4.016 c 0.785,0.785 0.785,2.059 0,2.844 -0.785,0.781 -2.055,0.781 -2.84,0 l -4.02,-4.02 c -0.785,-0.785 -0.785,-2.054 0,-2.84 z m 2.844,47.04 c -0.785,0.781 -2.058,0.781 -2.844,0 -0.785,-0.786 -0.785,-2.059 0,-2.844 L 18,54.16 c 0.785,-0.785 2.055,-0.785 2.84,0 0.785,0.785 0.785,2.055 0,2.84 z M 61.02,13.98 c -0.786,-0.785 -2.059,-0.785 -2.84,0 l -4.02,4.016 c -0.785,0.785 -0.785,2.059 0,2.844 0.785,0.781 2.055,0.781 2.84,0 l 4.02,-4.02 c 0.785,-0.785 0.785,-2.054 0,-2.84 z m -2.84,47.04 c 0.781,0.785 2.054,0.785 2.84,0 0.785,-0.786 0.785,-2.059 0,-2.84 L 57,54.16 c -0.785,-0.785 -2.055,-0.785 -2.84,0 -0.785,0.785 -0.785,2.055 0,2.84 z" style="fill:currentColor;fill-opacity:1;fill-rule:nonzero;stroke:none" transform="scale(1.3333333)" /> </g>
</svg>

