<?xml version="1.0" encoding="UTF-8" standalone="no"?> <svg version="1.1" id="Ia97d5b7e7d784099b76e9abed96ed9c020251106123600" width="100" height="100" viewBox="0 0 100 100" xmlns="http://www.w3.org/2000/svg" xmlns:svg="http://www.w3.org/2000/svg"> <defs id="I33abfa07330b452fa910a565de3aad9d20251106123600" /> <g id="If8c851f5d55c47c58aff3ab045261bb120251106123600"> <path id="I9eb199a557cd42f29f4975f9031e6ab220251106123600" d="m 29.465,35.492 c 0,-1.109 0.898,-2.012 2.008,-2.012 h 12.054 c 1.11,0 2.008,0.903 2.008,2.012 0,1.11 -0.898,2.008 -2.008,2.008 H 31.473 c -1.11,0 -2.008,-0.898 -2.008,-2.008 z M 14.062,8.035 c -3.328,0 -6.027,2.699 -6.027,6.027 v 5.356 c 0,2.09 1.063,3.934 2.68,5.012 v 29.812 c 0,7.028 5.695,12.723 12.723,12.723 H 38.84 c -0.93,-1.238 -1.719,-2.586 -2.348,-4.02 H 23.438 c -4.809,0 -8.708,-3.894 -8.708,-8.703 V 25.445 h 45.54 v 10.098 c 1.406,0.391 2.75,0.926 4.015,1.594 V 24.43 c 1.617,-1.078 2.68,-2.922 2.68,-5.012 v -5.356 c 0,-3.328 -2.699,-6.027 -6.027,-6.027 z m -2.007,6.027 c 0,-1.109 0.898,-2.007 2.007,-2.007 h 46.876 c 1.109,0 2.007,0.898 2.007,2.007 v 5.356 c 0,1.109 -0.898,2.012 -2.007,2.012 H 14.062 c -1.109,0 -2.007,-0.903 -2.007,-2.012 z m 29.074,37.352 c 2.953,-0.73 4.703,-3.766 3.859,-6.687 l -0.894,-3.106 c 1.386,-1.223 2.968,-2.215 4.691,-2.918 l 2.274,2.395 c 2.113,2.222 5.656,2.222 7.765,0 l 2.262,-2.375 c 1.723,0.711 3.309,1.715 4.695,2.945 l -0.867,2.945 c -0.871,2.938 0.902,6.008 3.883,6.723 l 2.617,0.633 c 0.156,0.957 0.238,1.937 0.238,2.941 0,0.961 -0.074,1.902 -0.218,2.82 l -2.746,0.68 c -2.95,0.731 -4.704,3.766 -3.86,6.688 l 0.899,3.105 c -1.391,1.223 -2.973,2.215 -4.696,2.918 l -2.273,-2.394 c -2.113,-2.223 -5.656,-2.223 -7.766,-0.004 l -2.258,2.375 c -1.726,-0.711 -3.308,-1.715 -4.695,-2.95 l 0.867,-2.937 C 45.773,62.27 44,59.203 41.023,58.484 L 38.41,57.855 c -0.16,-0.957 -0.242,-1.941 -0.242,-2.945 0,-0.961 0.078,-1.902 0.219,-2.816 z M 58.93,54.91 c 0,-2.219 -1.801,-4.015 -4.02,-4.015 -2.219,0 -4.015,1.796 -4.015,4.015 0,2.219 1.796,4.02 4.015,4.02 2.219,0 4.02,-1.801 4.02,-4.02 z" style="fill:currentColor;fill-opacity:1;fill-rule:nonzero;stroke:none" transform="scale(1.3333333)" /> </g>
</svg>

