<?xml version="1.0" encoding="UTF-8" standalone="no"?> <svg version="1.1" id="I5d822539141646fcb36ec153c30a771f20251106144520" width="100" height="100" viewBox="0 0 100 100" xmlns="http://www.w3.org/2000/svg" xmlns:svg="http://www.w3.org/2000/svg"> <defs id="I21f219d40da74b119b4b1ecfdff3c8d820251106144520" /> <g id="I69c07601cb584251a482232b08ebe06620251106144520"> <path id="Ie227654b21c4458b99bc799acc39701420251106144520" d="m 24.293,62.336 c 3.934,2.098 8.43,3.289 13.207,3.289 15.531,0 28.125,-12.594 28.125,-28.125 C 65.625,21.969 53.031,9.375 37.5,9.375 21.969,9.375 9.375,21.969 9.375,37.5 c 0,4.781 1.191,9.277 3.293,13.215 0.488,0.918 0.602,1.988 0.316,2.992 l -3.3,11.617 11.617,-3.304 c 1.004,-0.286 2.074,-0.172 2.992,0.316 z M 37.5,69.645 c -5.453,0 -10.594,-1.36 -15.098,-3.762 L 9.625,69.516 C 7.102,70.234 4.77,67.902 5.488,65.379 L 9.121,52.605 C 6.719,48.102 5.355,42.957 5.355,37.5 5.355,19.746 19.75,5.355 37.5,5.355 c 17.754,0 32.145,14.391 32.145,32.145 0,17.754 -14.391,32.145 -32.145,32.145 z M 25.445,31.473 c 0,-1.11 0.903,-2.008 2.012,-2.008 h 20.086 c 1.109,0 2.012,0.898 2.012,2.008 0,1.109 -0.903,2.007 -2.012,2.007 H 27.457 c -1.109,0 -2.012,-0.898 -2.012,-2.007 z m 0,12.054 c 0,-1.109 0.903,-2.007 2.012,-2.007 h 12.051 c 1.109,0 2.012,0.898 2.012,2.007 0,1.11 -0.903,2.008 -2.012,2.008 H 27.457 c -1.109,0 -2.012,-0.898 -2.012,-2.008 z" style="fill:currentColor;fill-opacity:1;fill-rule:nonzero;stroke:none" transform="scale(1.3333333)" /> </g>
</svg>

