<?xml version="1.0" encoding="UTF-8" standalone="no"?> <svg version="1.1" id="Ie30e26f1b4ef494ca615a4b8445f7cb420251106123600" width="100" height="100" viewBox="0 0 100 100" xmlns="http://www.w3.org/2000/svg" xmlns:svg="http://www.w3.org/2000/svg"> <defs id="Ib5f4626fa0cd4f198c573d6bcaa392e520251106123600" /> <g id="Id3109eda65cc48989304d017eb54a57320251106123600"> <path id="I93b68bef97cb47668f1dd1d929a0ac9520251106123600" d="m 14.844,64.062 h 45.312 c 1.293,0 2.344,1.051 2.344,2.344 0,1.188 -0.883,2.168 -2.027,2.324 l -0.317,0.02 H 14.844 c -1.293,0 -2.344,-1.051 -2.344,-2.344 0,-1.187 0.883,-2.168 2.027,-2.324 l 0.317,-0.02 H 60.156 Z M 50.781,9.375 c 6.473,0 11.719,5.246 11.719,11.719 v 26.562 c 0,6.473 -5.246,11.719 -11.719,11.719 H 24.219 C 17.746,59.375 12.5,54.129 12.5,47.656 V 21.094 c 0,-6.473 5.246,-11.719 11.719,-11.719 z" style="fill:currentColor;fill-opacity:1;fill-rule:nonzero;stroke:none" transform="scale(1.3333333)" /> </g>
</svg>

