<?xml version="1.0" encoding="UTF-8" standalone="no"?> <svg version="1.1" id="Ia83388637bc74a68b0fe72d850ac5d5820251106112235" width="100" height="100" viewBox="0 0 100 100" xmlns="http://www.w3.org/2000/svg" xmlns:svg="http://www.w3.org/2000/svg"> <defs id="I6ec53565d5f84b7eae0839e661df4a6220251106112235" /> <g id="I6d186f0999ff47dc9253144dc2a69e7a20251106112235"> <path id="I478e205df7184f4b9cad167836b525cd20251106112235" d="M 73.176,37.199 60.543,27.203 c -0.25,-0.199 -0.609,-0.015 -0.609,0.301 v 7.148 H 47.879 V 10.043 h 17.078 v 10.715 c 0,0.183 0.148,0.336 0.332,0.336 h 5.023 c 0.184,0 0.336,-0.153 0.336,-0.336 V 6.695 c 0,-1.297 -1.046,-2.343 -2.343,-2.343 H 44.531 c -1.297,0 -2.343,1.046 -2.343,2.343 v 61.61 c 0,1.297 1.046,2.343 2.343,2.343 h 23.774 c 1.297,0 2.343,-1.046 2.343,-2.343 V 54.242 c 0,-0.183 -0.152,-0.336 -0.336,-0.336 h -5.023 c -0.184,0 -0.332,0.153 -0.332,0.336 V 64.957 H 47.879 V 40.348 h 12.055 v 7.148 c 0,0.316 0.367,0.5 0.609,0.301 l 12.633,-9.996 c 0.199,-0.149 0.199,-0.453 0,-0.602 z M 30.469,4.352 H 6.695 c -1.297,0 -2.343,1.046 -2.343,2.343 v 14.063 c 0,0.183 0.152,0.336 0.336,0.336 h 5.023 c 0.184,0 0.332,-0.153 0.332,-0.336 V 10.043 H 27.121 V 34.652 H 15.066 v -7.148 c 0,-0.316 -0.359,-0.5 -0.609,-0.301 L 1.816,37.199 c -0.191,0.153 -0.191,0.442 0,0.594 l 12.641,10.004 c 0.242,0.191 0.609,0.015 0.609,-0.301 V 40.348 H 27.121 V 64.957 H 10.043 V 54.242 c 0,-0.183 -0.148,-0.336 -0.332,-0.336 H 4.688 c -0.184,0 -0.336,0.153 -0.336,0.336 v 14.063 c 0,1.297 1.046,2.343 2.343,2.343 h 23.774 c 1.297,0 2.343,-1.046 2.343,-2.343 V 6.695 c 0,-1.297 -1.046,-2.343 -2.343,-2.343 z" style="fill:currentColor;fill-opacity:1;fill-rule:nonzero;stroke:none" transform="scale(1.3333333)" /> </g>
</svg>

