<?xml version="1.0" encoding="UTF-8" standalone="no"?> <svg version="1.1" id="I297a5657df794e76a8376ec5d5f6b3f920251110124421" width="100" height="100" viewBox="0 0 100 100" xmlns="http://www.w3.org/2000/svg" xmlns:svg="http://www.w3.org/2000/svg"> <defs id="I71f9ec81457b4540aeaff54701d5552020251110124421" /> <g id="I40ff5ead280b42a1991025275aa1110820251110124421"> <path id="I48f80767115e4c5780aadacbd95e6c2520251110124421" d="m 36.32,5.738 c 0.703,-0.508 1.653,-0.508 2.352,0 1.723,1.242 5.594,3.512 10.441,5.465 4.848,1.957 10.504,3.527 15.836,3.527 1.11,0 2.008,0.903 2.008,2.012 v 20.762 c 0,8.109 -4.559,15.648 -10.277,21.297 -5.715,5.644 -12.93,9.746 -18.84,10.777 l -0.344,0.059 -0.344,-0.059 C 31.246,68.547 24.027,64.445 18.312,58.801 12.598,53.152 8.035,45.613 8.035,37.504 V 16.742 c 0,-1.109 0.899,-2.012 2.008,-2.012 5.336,0 10.992,-1.57 15.84,-3.527 C 30.73,9.25 34.598,6.98 36.32,5.738 Z m -24.265,12.95 v 18.816 c 0,6.621 3.769,13.187 9.082,18.437 5.191,5.129 11.523,8.661 16.359,9.614 4.84,-0.953 11.168,-4.485 16.359,-9.614 5.313,-5.25 9.086,-11.816 9.086,-18.437 V 18.688 C 57.547,18.355 52.141,16.758 47.609,14.93 43.352,13.215 39.75,11.246 37.496,9.793 c -2.25,1.453 -5.855,3.422 -10.109,5.137 -4.532,1.828 -9.938,3.425 -15.332,3.758 z" style="fill:currentColor;fill-opacity:1;fill-rule:nonzero;stroke:none" transform="scale(1.3333333)" /> </g>
</svg>

