<?xml version="1.0" encoding="UTF-8" standalone="no"?> <svg version="1.1" id="I7da87ad7e88e413db6341a3f97da8e3420251106170956" width="100" height="100" viewBox="0 0 100 100" xmlns="http://www.w3.org/2000/svg" xmlns:svg="http://www.w3.org/2000/svg"> <defs id="I57e543689f9d4fc099821a2c3f779b1e20251106170956" /> <g id="Ie969c3db27964260a686b1ad318bd08120251106170956"> <path id="Ic26aa0806727450bbab8e83cfd460d7020251106170956" d="M 50,21.875 V 18.75 C 50,11.848 44.402,6.25 37.5,6.25 30.598,6.25 25,11.848 25,18.75 v 3.125 h -2.344 c -5.609,0 -10.156,4.547 -10.156,10.156 v 23.438 c 0,5.609 4.547,10.156 10.156,10.156 h 11.719 v -0.27 c 0,-1.656 0.66,-3.246 1.832,-4.417 L 46.98,50.164 c -0.07,-0.566 -0.105,-1.144 -0.105,-1.726 0,-7.766 6.297,-14.063 14.063,-14.063 0.527,0 1.05,0.027 1.562,0.086 v -2.43 c 0,-5.609 -4.547,-10.156 -10.156,-10.156 z m -20.312,0 V 18.75 c 0,-4.316 3.496,-7.812 7.812,-7.812 4.316,0 7.812,3.496 7.812,7.812 v 3.125 z m 12.5,21.875 c 0,2.59 -2.098,4.688 -4.688,4.688 -2.59,0 -4.688,-2.098 -4.688,-4.688 0,-2.59 2.098,-4.688 4.688,-4.688 2.59,0 4.688,2.098 4.688,4.688 z m 18.75,15.625 c 6.039,0 10.937,-4.898 10.937,-10.937 C 71.875,42.398 66.977,37.5 60.938,37.5 54.898,37.5 50,42.398 50,48.438 c 0,0.957 0.125,1.886 0.355,2.769 L 38.414,63.148 C 37.828,63.734 37.5,64.527 37.5,65.355 v 4.957 c 0,0.864 0.699,1.563 1.562,1.563 h 6.25 c 0.864,0 1.563,-0.699 1.563,-1.563 V 68.75 H 50 c 0.863,0 1.562,-0.699 1.562,-1.562 v -3.126 h 3.126 c 0.863,0 1.562,-0.699 1.562,-1.562 V 59.375 Z M 62.5,43.75 c 1.727,0 3.125,1.398 3.125,3.125 0,1.727 -1.398,3.125 -3.125,3.125 -1.727,0 -3.125,-1.398 -3.125,-3.125 0,-1.727 1.398,-3.125 3.125,-3.125 z" style="fill:currentColor;fill-opacity:1;fill-rule:nonzero;stroke:none" transform="scale(1.3333333)" /> </g>
</svg>

