<?xml version="1.0" encoding="UTF-8" standalone="no"?> <svg version="1.1" id="I8ae9a52fc20147ffa07c9ea5db5e527320251106143238" width="100" height="100" viewBox="0 0 100 100" xmlns="http://www.w3.org/2000/svg" xmlns:svg="http://www.w3.org/2000/svg"> <defs id="Ib33e114d8a95491391583a0c9105f30520251106143238" /> <g id="If494c793c9a14ea69232f9c7db5a7bf720251106143238"> <path id="Ib70591fa557e4be0b8e6c62fe92fd68920251106143238" d="m 46.82,26.598 c 0.301,0.855 0.852,1.601 1.578,2.14 0.735,0.504 1.602,0.778 2.493,0.778 0.89,0 1.757,-0.274 2.488,-0.778 l 0.348,-0.293 c -0.102,0.328 -0.153,0.672 -0.157,1.016 0.008,0.758 0.239,1.492 0.668,2.117 0.434,0.617 1.055,1.078 1.77,1.313 l 2.515,0.832 c 0.344,0.113 0.657,0.304 0.915,0.562 0.265,0.262 0.468,0.582 0.585,0.938 l 0.805,2.465 c 0.238,0.734 0.707,1.371 1.34,1.82 0.617,0.433 1.355,0.672 2.113,0.672 0.758,0 1.5,-0.235 2.117,-0.672 0.207,-0.145 0.399,-0.309 0.567,-0.492 v 19.242 c 0,4.808 -3.899,8.707 -8.707,8.707 H 16.742 c -4.808,0 -8.707,-3.899 -8.707,-8.707 V 25.445 h 38.41 z m 4.153,8.812 c -0.782,-0.785 -2.055,-0.785 -2.84,0 L 33.48,50.062 26.867,43.445 26.715,43.309 c -0.789,-0.645 -1.953,-0.598 -2.688,0.136 -0.785,0.785 -0.785,2.059 0,2.84 l 8.035,8.035 c 0.786,0.785 2.055,0.785 2.84,0 L 50.973,38.25 c 0.785,-0.785 0.785,-2.055 0,-2.84 z M 64.234,21.43 c 0.204,0 0.399,0.062 0.563,0.175 0.164,0.118 0.289,0.282 0.355,0.473 l 0.801,2.457 c 0.246,0.75 0.668,1.426 1.227,1.985 0.554,0.554 1.238,0.976 1.984,1.222 l 2.461,0.801 0.047,0.012 c 0.191,0.066 0.355,0.191 0.473,0.355 0.113,0.164 0.175,0.36 0.175,0.559 0,0.203 -0.058,0.398 -0.175,0.562 -0.118,0.164 -0.282,0.285 -0.473,0.356 l -2.461,0.797 c -0.746,0.25 -1.426,0.668 -1.984,1.226 -0.555,0.555 -0.977,1.235 -1.227,1.981 l -0.797,2.461 c -0.07,0.187 -0.191,0.355 -0.355,0.468 -0.164,0.118 -0.36,0.18 -0.563,0.18 -0.199,0 -0.398,-0.062 -0.562,-0.18 -0.164,-0.113 -0.285,-0.281 -0.352,-0.468 L 62.57,34.391 c -0.246,-0.746 -0.668,-1.43 -1.226,-1.989 -0.555,-0.558 -1.235,-0.98 -1.985,-1.23 l -2.461,-0.797 c -0.187,-0.066 -0.355,-0.191 -0.468,-0.355 -0.118,-0.165 -0.18,-0.36 -0.18,-0.563 0,-0.199 0.062,-0.395 0.18,-0.559 0.113,-0.164 0.281,-0.289 0.468,-0.355 l 2.461,-0.801 c 0.739,-0.254 1.411,-0.676 1.957,-1.234 0.547,-0.555 0.961,-1.231 1.204,-1.973 l 0.8,-2.457 c 0.067,-0.191 0.192,-0.355 0.356,-0.473 0.164,-0.113 0.359,-0.175 0.558,-0.175 z M 50.812,0 c 0.336,0 0.661,0.105 0.934,0.297 0.274,0.195 0.481,0.469 0.594,0.785 l 1.332,4.094 c 0.414,1.246 1.113,2.379 2.043,3.308 0.93,0.926 2.062,1.629 3.308,2.043 l 4.098,1.328 0.086,0.02 c 0.313,0.113 0.586,0.32 0.781,0.594 0.192,0.273 0.297,0.601 0.297,0.933 0,0.336 -0.105,0.66 -0.297,0.934 -0.195,0.273 -0.468,0.48 -0.781,0.594 l -4.102,1.328 c -1.25,0.418 -2.382,1.117 -3.312,2.043 -0.926,0.929 -1.625,2.062 -2.039,3.308 l -1.332,4.098 c -0.012,0.031 -0.027,0.066 -0.039,0.102 -0.117,0.269 -0.309,0.507 -0.555,0.679 -0.273,0.192 -0.601,0.297 -0.933,0.297 -0.336,0 -0.665,-0.105 -0.938,-0.297 -0.273,-0.195 -0.48,-0.468 -0.59,-0.781 L 48.035,21.609 C 47.734,20.695 47.277,19.84 46.691,19.086 46.477,18.809 46.242,18.539 45.992,18.289 45.066,17.359 43.93,16.656 42.684,16.242 L 38.582,14.91 C 38.266,14.797 37.992,14.59 37.797,14.316 37.605,14.043 37.5,13.719 37.5,13.383 c 0,-0.336 0.105,-0.66 0.297,-0.934 0.195,-0.273 0.469,-0.48 0.785,-0.594 l 4.102,-1.328 c 1.23,-0.425 2.347,-1.132 3.261,-2.058 0.887,-0.903 1.563,-1.992 1.973,-3.192 l 0.031,-0.101 1.336,-4.094 c 0.11,-0.316 0.317,-0.59 0.59,-0.785 C 50.148,0.105 50.477,0 50.812,0 Z M 37.738,9.371 c -0.855,0.289 -1.597,0.844 -2.117,1.582 -0.519,0.723 -0.801,1.59 -0.801,2.481 0,0.886 0.282,1.754 0.801,2.476 0.5,0.735 1.227,1.285 2.067,1.578 l 4.175,1.34 c 0.836,0.297 1.594,0.774 2.223,1.395 0.176,0.175 0.336,0.363 0.48,0.562 0.164,0.203 0.313,0.418 0.442,0.645 H 8.035 v -4.688 c 0,-4.808 3.899,-8.707 8.707,-8.707 h 25.063 z" style="fill:currentColor;fill-opacity:1;fill-rule:nonzero;stroke:none" transform="scale(1.3333333)" /> </g>
</svg>

