<?xml version="1.0" encoding="UTF-8" standalone="no"?> <svg version="1.1" id="I57a5a4ca67284b27be0afccee06253d920251106125938" width="100" height="100" viewBox="0 0 100 100" xmlns="http://www.w3.org/2000/svg" xmlns:svg="http://www.w3.org/2000/svg"> <defs id="Ieb6ddc8d5cd34a869e73046b6c97cd1b20251106125938" /> <g id="Ie5691d7b271949d497ea8d7ce1d5b3d920251106125938"> <path id="I416bdf6be07f4a3d8f07a31e371ca2e120251106125938" d="m 66.406,14.062 c 1.188,0 2.168,0.883 2.321,2.028 l 0.023,0.316 v 40.637 c 0,1.297 -1.051,2.344 -2.344,2.344 -1.187,0 -2.168,-0.879 -2.324,-2.024 l -0.02,-0.32 V 16.406 c 0,-1.293 1.047,-2.344 2.344,-2.344 z m -26.883,5.637 0.227,-0.261 c 0.832,-0.833 2.133,-0.911 3.051,-0.227 l 0.261,0.227 15.614,15.617 c 0.832,0.832 0.91,2.133 0.23,3.05 L 58.68,38.367 43.062,54.004 c -0.914,0.914 -2.398,0.918 -3.312,0 -0.832,-0.828 -0.91,-2.133 -0.23,-3.051 l 0.226,-0.262 11.598,-11.617 -42.75,0.004 c -1.188,0 -2.168,-0.883 -2.324,-2.027 L 6.25,36.734 c 0,-1.187 0.883,-2.168 2.027,-2.324 L 8.594,34.391 51.383,34.387 39.75,22.75 c -0.832,-0.832 -0.91,-2.133 -0.227,-3.051 l 0.227,-0.261 z" style="fill:currentColor;fill-opacity:1;fill-rule:nonzero;stroke:none" transform="scale(1.3333333)" /> </g>
</svg>

