<?xml version="1.0" encoding="UTF-8" standalone="no"?> <svg version="1.1" id="I7cff840a09a14b1bb3175a507d7dd76e20251106143238" width="100" height="100" viewBox="0 0 100 100" xmlns="http://www.w3.org/2000/svg" xmlns:svg="http://www.w3.org/2000/svg"> <defs id="I222c92311a3840428e893ba16c3d6a4220251106143238" /> <g id="I82caee53bb6d44f2ab0405fd66fd83d620251106143238"> <path id="I904fc7f11d0240a3a6756af22097d0cb20251106143238" d="m 66.965,25.445 v 32.813 c 0,4.808 -3.899,8.707 -8.707,8.707 H 16.742 c -4.808,0 -8.707,-3.899 -8.707,-8.707 V 25.445 Z M 23.414,46.879 c -1.848,0 -3.348,1.5 -3.348,3.348 0,1.851 1.5,3.347 3.348,3.347 1.848,0 3.348,-1.496 3.348,-3.347 0,-1.848 -1.5,-3.348 -3.348,-3.348 z m 14.074,0 c -1.847,0 -3.347,1.5 -3.347,3.348 0,1.851 1.5,3.347 3.347,3.347 1.848,0 3.348,-1.496 3.348,-3.347 0,-1.848 -1.5,-3.348 -3.348,-3.348 z M 23.414,33.484 c -1.848,0 -3.348,1.5 -3.348,3.352 0,1.848 1.5,3.348 3.348,3.348 1.848,0 3.348,-1.5 3.348,-3.348 0,-1.852 -1.5,-3.352 -3.348,-3.352 z m 14.074,0 c -1.847,0 -3.347,1.5 -3.347,3.352 0,1.848 1.5,3.348 3.347,3.348 1.848,0 3.348,-1.5 3.348,-3.348 0,-1.852 -1.5,-3.352 -3.348,-3.352 z m 14.074,0 c -1.847,0 -3.347,1.5 -3.347,3.352 0,1.848 1.5,3.348 3.347,3.348 1.852,0 3.348,-1.5 3.348,-3.348 0,-1.852 -1.496,-3.352 -3.348,-3.352 z M 58.258,8.035 c 4.808,0 8.707,3.899 8.707,8.707 V 21.43 H 8.035 v -4.688 c 0,-4.808 3.899,-8.707 8.707,-8.707 z" style="fill:currentColor;fill-opacity:1;fill-rule:nonzero;stroke:none" transform="scale(1.3333333)" /> </g>
</svg>

