<?xml version="1.0" encoding="UTF-8" standalone="no"?> <svg version="1.1" id="Ie2c22860b2194565966a72783bf9f30720251106165301" width="100" height="100" viewBox="0 0 100 100" xmlns="http://www.w3.org/2000/svg" xmlns:svg="http://www.w3.org/2000/svg"> <defs id="I403c325238f94960b2bf990081ebc54e20251106165301" /> <g id="Iea7d366f2df0401eaf482d343f28fd3d20251106165301"> <path id="Ia125577ff58d4ba3979190779101621720251106165301" d="m 37.5,13.395 c -5.742,0 -11.012,2.003 -15.152,5.355 h 4.437 c 1.481,0 2.68,1.199 2.68,2.68 0,1.476 -1.199,2.675 -2.68,2.675 H 16.07 c -1.453,0 -2.636,-1.156 -2.675,-2.597 0,-0.039 -0.004,-0.074 0,-0.113 v -10.68 c 0,-1.481 1.199,-2.68 2.675,-2.68 1.481,0 2.68,1.199 2.68,2.68 V 14.77 C 23.844,10.566 30.375,8.035 37.5,8.035 53.773,8.035 66.965,21.227 66.965,37.5 66.965,53.773 53.773,66.965 37.5,66.965 21.227,66.965 8.035,53.773 8.035,37.5 c 0,-0.992 0.051,-1.973 0.145,-2.941 0.148,-1.473 1.461,-2.551 2.929,-2.403 1.473,0.145 2.547,1.457 2.403,2.93 -0.078,0.793 -0.117,1.598 -0.117,2.414 0,13.312 10.793,24.105 24.105,24.105 13.312,0 24.105,-10.793 24.105,-24.105 0,-13.312 -10.793,-24.105 -24.105,-24.105 z m 2.68,8.035 c 0,-1.481 -1.2,-2.68 -2.68,-2.68 -1.48,0 -2.68,1.199 -2.68,2.68 V 37.5 c 0,1.48 1.2,2.68 2.68,2.68 h 10.715 c 1.48,0 2.68,-1.2 2.68,-2.68 0,-1.48 -1.2,-2.68 -2.68,-2.68 H 40.18 Z" style="fill:currentColor;fill-opacity:1;fill-rule:nonzero;stroke:none" transform="scale(1.3333333)" /> </g>
</svg>

