<?xml version="1.0" encoding="UTF-8" standalone="no"?> <svg version="1.1" id="Ia79cefe64ac04228873dc9c147c2daa520251106164749" width="100" height="100" viewBox="0 0 100 100" xmlns="http://www.w3.org/2000/svg" xmlns:svg="http://www.w3.org/2000/svg"> <defs id="I8df691625d764acbab4121608d93b1c020251106164749" /> <g id="Ic74b451c8abe4ea5b9236b29d006480920251106164749"> <path id="Ib1f72a149e82477bb22c10e321e435c920251106164749" d="m 8.035,15.402 c 0,-4.07 3.297,-7.367 7.367,-7.367 h 17.41 c 4.067,0 7.368,3.297 7.368,7.367 v 12.055 c 0,4.066 -3.301,7.363 -7.368,7.363 h -17.41 c -4.07,0 -7.367,-3.297 -7.367,-7.363 z m 7.367,-3.347 c -1.851,0 -3.347,1.496 -3.347,3.347 v 12.055 c 0,1.848 1.496,3.348 3.347,3.348 h 17.41 c 1.848,0 3.348,-1.5 3.348,-3.348 V 15.402 c 0,-1.851 -1.5,-3.347 -3.348,-3.347 z m 32.813,3.347 c 0,-4.07 3.297,-7.367 7.367,-7.367 h 4.016 c 4.07,0 7.367,3.297 7.367,7.367 v 12.055 c 0,4.066 -3.297,7.363 -7.367,7.363 h -4.016 c -4.07,0 -7.367,-3.297 -7.367,-7.363 z m 7.367,-3.347 c -1.852,0 -3.352,1.496 -3.352,3.347 v 12.055 c 0,1.848 1.5,3.348 3.352,3.348 h 4.016 c 1.851,0 3.347,-1.5 3.347,-3.348 V 15.402 c 0,-1.851 -1.496,-3.347 -3.347,-3.347 z M 15.402,40.18 c -4.07,0 -7.367,3.297 -7.367,7.363 v 12.055 c 0,4.07 3.297,7.367 7.367,7.367 h 4.016 c 4.07,0 7.367,-3.297 7.367,-7.367 V 47.543 c 0,-4.066 -3.297,-7.363 -7.367,-7.363 z m -3.347,7.363 c 0,-1.848 1.496,-3.348 3.347,-3.348 h 4.016 c 1.852,0 3.352,1.5 3.352,3.348 v 12.055 c 0,1.851 -1.5,3.347 -3.352,3.347 h -4.016 c -1.851,0 -3.347,-1.496 -3.347,-3.347 z m 22.765,0 c 0,-4.066 3.301,-7.363 7.368,-7.363 h 17.41 c 4.07,0 7.367,3.297 7.367,7.363 v 12.055 c 0,4.07 -3.297,7.367 -7.367,7.367 h -17.41 c -4.067,0 -7.368,-3.297 -7.368,-7.367 z m 7.368,-3.348 c -1.848,0 -3.348,1.5 -3.348,3.348 v 12.055 c 0,1.851 1.5,3.347 3.348,3.347 h 17.41 c 1.851,0 3.347,-1.496 3.347,-3.347 V 47.543 c 0,-1.848 -1.496,-3.348 -3.347,-3.348 z" style="fill:currentColor;fill-opacity:1;fill-rule:nonzero;stroke:none" transform="scale(1.3333333)" /> </g>
</svg>

