<?xml version="1.0" encoding="UTF-8" standalone="no"?> <svg version="1.1" id="I0d70e3cd26cb4603ba2e53e6214f682020251110124421" width="100" height="100" viewBox="0 0 100 100" xmlns="http://www.w3.org/2000/svg" xmlns:svg="http://www.w3.org/2000/svg"> <defs id="I94ef4fa21d334d08b52c43068204a23720251110124421" /> <g id="I7e2b282d464d40d7a6dd0706386b5cca20251110124421"> <path id="I510d2b9c49e544a9ba7b22add91d2b4020251110124421" d="M 52.5,33.836 V 16.875 c 0,-3.105 -2.52,-5.625 -5.625,-5.625 h -18.75 c -3.105,0 -5.625,2.52 -5.625,5.625 v 41.25 c 0,3.105 2.52,5.625 5.625,5.625 H 36 c 0.684,1.34 1.512,2.598 2.465,3.75 h -10.34 c -5.176,0 -9.375,-4.199 -9.375,-9.375 v -41.25 c 0,-5.176 4.199,-9.375 9.375,-9.375 h 18.75 c 5.176,0 9.375,4.199 9.375,9.375 v 16.961 c -0.617,-0.059 -1.242,-0.086 -1.875,-0.086 -0.633,0 -1.258,0.027 -1.875,0.086 z M 28.125,18.75 c -1.035,0 -1.875,0.84 -1.875,1.875 0,1.035 0.84,1.875 1.875,1.875 h 18.75 c 1.035,0 1.875,-0.84 1.875,-1.875 0,-1.035 -0.84,-1.875 -1.875,-1.875 z M 26.25,46.875 C 26.25,45.84 27.09,45 28.125,45 H 36 c -0.609,1.188 -1.105,2.441 -1.473,3.75 h -6.402 c -1.035,0 -1.875,-0.84 -1.875,-1.875 z m 7.5,7.5 c 0,-0.633 0.027,-1.258 0.086,-1.875 h -5.711 c -1.035,0 -1.875,0.84 -1.875,1.875 0,1.035 0.84,1.875 1.875,1.875 h 5.711 C 33.777,55.633 33.75,55.008 33.75,54.375 Z m 37.5,0 c 0,9.32 -7.555,16.875 -16.875,16.875 -9.32,0 -16.875,-7.555 -16.875,-16.875 0,-9.32 7.555,-16.875 16.875,-16.875 9.32,0 16.875,7.555 16.875,16.875 z M 62.676,52.734 51.535,46.547 c -1.25,-0.695 -2.785,0.211 -2.785,1.641 v 12.374 c 0,1.43 1.535,2.336 2.785,1.641 l 11.141,-6.187 c 1.285,-0.715 1.285,-2.567 0,-3.282 z" style="fill:currentColor;fill-opacity:1;fill-rule:nonzero;stroke:none" transform="scale(1.3333333)" /> </g>
</svg>

