<?xml version="1.0" encoding="UTF-8" standalone="no"?> <svg version="1.1" id="Ie56a2ef8ce904e039063a7d8c5f1aad620251106144520" width="100" height="100" viewBox="0 0 100 100" xmlns="http://www.w3.org/2000/svg" xmlns:svg="http://www.w3.org/2000/svg"> <defs id="I26aa21d1e8da473b8563e4b563e99a5420251106144520" /> <g id="I360a46faa7a4448da06f3d413941baab20251106144520"> <path id="I3f535194b3bd41e498e7b3e7f1ebd2e120251106144520" d="m 28.992,25.492 c 0.266,-0.644 1.176,-0.648 1.446,-0.004 l 10.113,24.27 c 1.793,4.301 7.801,4.531 9.918,0.383 l 5,-9.801 c 0.402,-0.785 1.207,-1.278 2.09,-1.278 h 2.011 c 0.696,2.696 3.141,4.688 6.055,4.688 3.453,0 6.25,-2.801 6.25,-6.25 0,-3.453 -2.797,-6.25 -6.25,-6.25 -2.313,0 -4.332,1.258 -5.414,3.125 h -2.652 c -2.645,0 -5.063,1.48 -6.262,3.836 l -5,9.797 c -0.305,0.594 -1.164,0.562 -1.418,-0.055 L 34.766,23.684 C 32.887,19.18 26.5,19.203 24.652,23.719 l -3.757,9.199 c -0.36,0.879 -1.215,1.457 -2.168,1.457 H 14.789 C 13.707,32.508 11.688,31.25 9.375,31.25 c -3.453,0 -6.25,2.797 -6.25,6.25 0,3.449 2.797,6.25 6.25,6.25 2.914,0 5.359,-1.992 6.055,-4.688 h 3.297 c 2.855,0 5.429,-1.73 6.507,-4.371 z" style="fill:currentColor;fill-opacity:1;fill-rule:nonzero;stroke:none" transform="scale(1.3333333)" /> </g>
</svg>

