<?xml version="1.0" encoding="UTF-8" standalone="no"?> <svg version="1.1" id="Iebc0eaab929d44dbafd562bd34508e4d20251106123600" width="100" height="100" viewBox="0 0 100 100" xmlns="http://www.w3.org/2000/svg" xmlns:svg="http://www.w3.org/2000/svg"> <defs id="Icfdb81377e014dd98658c7692cfdbd8320251106123600" /> <g id="I2885d5574b214091b511311cf6e9e74120251106123600"> <path id="Ib62b45e1c7f846659137260ddd2c15fe20251106123600" d="m 72.32,54.91 c 0,9.617 -7.793,17.41 -17.41,17.41 -9.617,0 -17.41,-7.793 -17.41,-17.41 0,-9.617 7.793,-17.41 17.41,-17.41 9.617,0 17.41,7.793 17.41,17.41 z M 54.91,44.195 c -0.738,0 -1.34,0.602 -1.34,1.34 v 9.375 c 0,0.738 0.602,1.34 1.34,1.34 h 8.035 c 0.743,0 1.34,-0.602 1.34,-1.34 0,-0.738 -0.597,-1.34 -1.34,-1.34 H 56.25 v -8.035 c 0,-0.738 -0.602,-1.34 -1.34,-1.34 z" style="fill:#212121;fill-opacity:1;fill-rule:nonzero;stroke:none" transform="scale(1.3333333)" /> <path id="I1aebab1272584b06a2eb2a9cd9e0125f20251106123600" d="M 64.285,37.141 C 61.488,35.66 58.297,34.82 54.91,34.82 c -11.094,0 -20.09,8.996 -20.09,20.09 0,4.524 1.496,8.695 4.02,12.055 H 23.438 C 16.41,66.965 10.715,61.27 10.715,54.242 V 25.445 h 53.57 z M 31.473,33.48 c -1.11,0 -2.008,0.903 -2.008,2.012 0,1.11 0.898,2.008 2.008,2.008 h 12.054 c 1.11,0 2.008,-0.898 2.008,-2.008 0,-1.109 -0.898,-2.012 -2.008,-2.012 z" style="fill:#242424;fill-opacity:1;fill-rule:nonzero;stroke:none" transform="scale(1.3333333)" /> <path id="Iafbebebb300c423a8a2bb18e537ad6fb20251106123600" d="m 62.945,8.035 c 2.219,0 4.02,1.801 4.02,4.02 v 5.355 c 0,2.219 -1.801,4.02 -4.02,4.02 h -50.89 c -2.219,0 -4.02,-1.801 -4.02,-4.02 v -5.355 c 0,-2.219 1.801,-4.02 4.02,-4.02 z" style="fill:#242424;fill-opacity:1;fill-rule:nonzero;stroke:none" transform="scale(1.3333333)" /> </g>
</svg>

