<?xml version="1.0" encoding="UTF-8" standalone="no"?> <svg version="1.1" id="Ifefd21b055d649c4bd76e3c4a91cd91020251106143239" width="100" height="100" viewBox="0 0 100 100" xmlns="http://www.w3.org/2000/svg" xmlns:svg="http://www.w3.org/2000/svg"> <defs id="I3ee0a80a73d942398cba9795cb65cd3920251106143239" /> <g id="Ibaf3a93d8a66476199e9bc974019516020251106143239"> <path id="I191c0c599edf464cab84af2c8d74d18320251106143239" d="m 12.5,14.844 c 0,-4.746 3.848,-8.594 8.594,-8.594 h 32.812 c 4.746,0 8.594,3.848 8.594,8.594 V 31.25 h -2.344 c -3.019,0 -5.468,2.449 -5.468,5.469 0,1.656 0.738,3.14 1.902,4.144 -4.281,2.356 -10.481,4.449 -19.09,4.449 -8.609,0 -14.809,-2.093 -19.09,-4.449 1.164,-1.004 1.902,-2.488 1.902,-4.144 0,-3.02 -2.449,-5.469 -5.468,-5.469 H 12.5 Z m 25,41.406 c 10.941,0 19.137,-2.801 25,-6.164 v 10.07 c 0,4.746 -3.848,8.594 -8.594,8.594 H 21.094 c -4.746,0 -8.594,-3.848 -8.594,-8.594 v -10.07 c 5.863,3.363 14.059,6.164 25,6.164 z M 27.344,18.75 c -1.293,0 -2.344,1.051 -2.344,2.344 0,1.293 1.051,2.344 2.344,2.344 H 47.656 C 48.949,23.438 50,22.387 50,21.094 50,19.801 48.949,18.75 47.656,18.75 Z M 25,33.594 c 0,1.293 1.051,2.344 2.344,2.344 h 14.062 c 1.293,0 2.344,-1.051 2.344,-2.344 0,-1.293 -1.051,-2.344 -2.344,-2.344 H 27.344 C 26.051,31.25 25,32.301 25,33.594 Z M 5.469,34.375 c -1.293,0 -2.344,1.051 -2.344,2.344 v 9.375 c 0,1.293 1.051,2.344 2.344,2.344 1.293,0 2.343,-1.051 2.343,-2.344 v -3.223 c 0.993,0.899 2.172,1.852 3.547,2.805 5.45,3.773 13.918,7.449 26.141,7.449 12.223,0 20.691,-3.676 26.141,-7.449 1.375,-0.953 2.554,-1.906 3.547,-2.805 v 3.223 c 0,1.293 1.05,2.344 2.343,2.344 1.293,0 2.344,-1.051 2.344,-2.344 v -9.375 c 0,-1.293 -1.051,-2.344 -2.344,-2.344 h -9.375 c -1.293,0 -2.344,1.051 -2.344,2.344 0,1.293 1.051,2.343 2.344,2.343 h 4.25 c -0.922,0.864 -2.062,1.809 -3.437,2.762 -4.707,3.258 -12.254,6.614 -23.469,6.614 -11.215,0 -18.762,-3.356 -23.469,-6.614 -1.375,-0.953 -2.515,-1.898 -3.437,-2.762 h 4.25 c 1.293,0 2.344,-1.05 2.344,-2.343 0,-1.293 -1.051,-2.344 -2.344,-2.344 z" style="fill:currentColor;fill-opacity:1;fill-rule:nonzero;stroke:none" transform="scale(1.3333333)" /> </g>
</svg>

