<?xml version="1.0" encoding="UTF-8" standalone="no"?> <svg version="1.1" id="I647f2fdcceac4e11974517f9b15bf1f320251106170955" width="100" height="100" viewBox="0 0 100 100" xmlns="http://www.w3.org/2000/svg" xmlns:svg="http://www.w3.org/2000/svg"> <defs id="Icdb261bc29f94be8bbbd2c4b518bbf9520251106170955" /> <g id="I015bf4a9d1134d388c8d7eca831bd33520251106170955"> <path id="Ib4fafd09bb4449dd908c0371ef59438920251106170955" d="m 29.883,23.453 0.176,0.367 16.582,40.637 c 0.652,1.598 -0.114,3.422 -1.711,4.074 -1.485,0.606 -3.164,-0.011 -3.918,-1.383 L 40.855,66.82 36.539,56.246 H 16.895 l -4.657,10.645 c -0.644,1.468 -2.277,2.195 -3.773,1.738 L 8.121,68.5 C 6.652,67.859 5.926,66.223 6.383,64.727 l 0.129,-0.34 17.789,-40.641 c 1.054,-2.402 4.359,-2.48 5.582,-0.293 z M 59.375,6.25 c 1.602,0 2.922,1.207 3.102,2.762 L 62.5,9.375 v 12.5 h 3.125 c 1.602,0 2.922,1.207 3.102,2.762 L 68.75,25 c 0,1.602 -1.207,2.922 -2.762,3.105 l -0.363,0.02 H 62.5 V 50 c 0,1.602 -1.207,2.922 -2.762,3.105 l -0.363,0.02 c -1.602,0 -2.926,-1.207 -3.105,-2.762 L 56.25,50 V 9.375 c 0,-1.727 1.398,-3.125 3.125,-3.125 z M 27.062,33.023 19.629,49.996 H 33.988 Z M 34.375,6.25 H 50 c 1.602,0 2.922,1.207 3.102,2.762 l 0.023,0.363 v 9.297 c 0,6.902 -5.598,12.5 -12.5,12.5 -1.727,0 -3.125,-1.399 -3.125,-3.125 0,-1.727 1.398,-3.125 3.125,-3.125 3.293,0 5.992,-2.551 6.23,-5.785 l 0.02,-0.465 V 12.5 h -12.5 c -1.727,0 -3.125,-1.398 -3.125,-3.125 0,-1.602 1.207,-2.922 2.758,-3.105 L 34.375,6.25 H 50 Z" style="fill:currentColor;fill-opacity:1;fill-rule:nonzero;stroke:none" transform="scale(1.3333333)" /> </g>
</svg>

