<?xml version="1.0" encoding="UTF-8" standalone="no"?> <svg version="1.1" id="I41e30f91286c44018575800876a5105920251106170412" width="100" height="100" viewBox="0 0 100 100" xmlns="http://www.w3.org/2000/svg" xmlns:svg="http://www.w3.org/2000/svg"> <defs id="I96750725135f478f84dc1594835c538320251106170412" /> <g id="I1e8815732b7542a3988085cc4748a74b20251106170412"> <path id="Ic66dc0e3ae054c59bfe2a9b2a6b849ed20251106170412" d="m 9.375,19.531 c 0,-5.609 4.547,-10.156 10.156,-10.156 h 35.938 c 5.609,0 10.156,4.547 10.156,10.156 v 35.938 c 0,5.609 -4.547,10.156 -10.156,10.156 H 19.531 c -5.609,0 -10.156,-4.547 -10.156,-10.156 z m 10.156,-5.469 c -3.019,0 -5.469,2.45 -5.469,5.469 V 37.5 H 35.156 V 14.062 Z m 20.313,0 v 46.876 h 15.625 c 3.019,0 5.469,-2.45 5.469,-5.469 V 19.531 c 0,-3.019 -2.45,-5.469 -5.469,-5.469 z" style="fill:currentColor;fill-opacity:1;fill-rule:nonzero;stroke:none" transform="scale(1.3333333)" /> </g>
</svg>

