<?xml version="1.0" encoding="UTF-8" standalone="no"?> <svg version="1.1" id="I9f61db25d50445bcb244668c43a58bc220251106163938" width="100" height="100" viewBox="0 0 100 100" xmlns="http://www.w3.org/2000/svg" xmlns:svg="http://www.w3.org/2000/svg"> <defs id="Ieece402b7d9d4f8bac7f9ca5bed936b620251106163938" /> <g id="I1d134cb2bc3b42fc8c577ca6bbdf106820251106163938"> <path id="Ia8ad6b1787184f41a4b2a256bf2231d820251106163938" d="m 6.25,25 v -5.469 c 0,-5.609 4.547,-10.156 10.156,-10.156 h 8.996 c 1.864,0 3.653,0.742 4.973,2.059 l 4.781,4.781 -8.097,8.097 C 26.621,24.754 26.023,25 25.402,25 Z m 0,4.688 v 25.781 c 0,5.609 4.547,10.156 10.156,10.156 h 18.332 c -0.25,-1.043 -0.363,-2.102 -0.363,-3.125 0,-4.461 3.117,-8.195 7.289,-9.141 -1.609,-1.683 -2.602,-3.968 -2.602,-6.484 0,-5.18 4.196,-9.375 9.376,-9.375 4.277,0 7.882,2.863 9.011,6.777 1.383,-2.195 3.828,-3.652 6.613,-3.652 1.758,0 3.383,0.582 4.688,1.563 V 27.344 c 0,-5.61 -4.547,-10.156 -10.156,-10.156 H 40.816 L 30.375,27.629 c -1.32,1.316 -3.109,2.059 -4.973,2.059 z m 42.188,23.437 c 3.453,0 6.25,-2.797 6.25,-6.25 0,-3.453 -2.797,-6.25 -6.25,-6.25 -3.454,0 -6.25,2.797 -6.25,6.25 0,3.453 2.796,6.25 6.25,6.25 z m 0,18.75 c 8.019,0 10.937,-4.754 10.937,-9.375 0,-3.453 -2.797,-6.25 -6.25,-6.25 H 43.75 c -3.453,0 -6.25,2.797 -6.25,6.25 0,4.621 2.918,9.375 10.938,9.375 z M 60.957,68.68 c 0.488,0.047 1.004,0.07 1.543,0.07 6.875,0 9.375,-3.801 9.375,-7.5 0,-2.762 -2.238,-5 -5,-5 h -6.762 c 1.485,1.66 2.387,3.848 2.387,6.25 0,2.051 -0.453,4.219 -1.543,6.18 z M 68.75,48.438 c 0,2.589 -2.098,4.687 -4.688,4.687 -2.589,0 -4.687,-2.098 -4.687,-4.687 0,-2.59 2.098,-4.688 4.687,-4.688 2.59,0 4.688,2.098 4.688,4.688 z" style="fill:currentColor;fill-opacity:1;fill-rule:nonzero;stroke:none" transform="scale(1.3333333)" /> </g>
</svg>

