<?xml version="1.0" encoding="UTF-8" standalone="no"?> <svg version="1.1" id="If3c500f5dec64f73969715f75277b91820251110123030" width="100" height="100" viewBox="0 0 100 100" xmlns="http://www.w3.org/2000/svg" xmlns:svg="http://www.w3.org/2000/svg"> <defs id="Ic2d516bd73034447b00f7324a05e886c20251110123030" /> <g id="Ic30cb812fb0c4ee8bd380fc22642cf6320251110123030"> <path id="I8156b5287ac740dbaf0ce08083f0882b20251110123030" d="m 25.312,13.125 c -4.66,0 -8.437,3.777 -8.437,8.437 0,4.661 3.777,8.438 8.437,8.438 4.661,0 8.438,-3.777 8.438,-8.438 0,-4.66 -3.777,-8.437 -8.438,-8.437 z m -12.187,8.437 c 0,-6.73 5.457,-12.187 12.187,-12.187 6.731,0 12.188,5.457 12.188,12.187 0,6.731 -5.457,12.188 -12.188,12.188 -6.73,0 -12.187,-5.457 -12.187,-12.188 z M 54.375,33.75 C 49.199,33.75 45,29.551 45,24.375 45,19.199 49.199,15 54.375,15 c 5.176,0 9.375,4.199 9.375,9.375 0,5.176 -4.199,9.375 -9.375,9.375 z M 42.148,39.113 C 40.871,38.102 39.254,37.5 37.5,37.5 H 13.125 c -4.141,0 -7.5,3.359 -7.5,7.5 v 0.312 c 0,0.04 0.004,0.09 0.008,0.153 0.004,0.125 0.015,0.297 0.035,0.508 0.043,0.422 0.125,1.004 0.281,1.695 0.321,1.383 0.957,3.227 2.235,5.078 2.628,3.805 7.703,7.254 17.128,7.254 3.329,0 6.11,-0.43 8.438,-1.152 V 54.879 C 31.633,55.707 28.887,56.25 25.312,56.25 16.926,56.25 13.094,53.254 11.27,50.613 10.32,49.242 9.844,47.863 9.605,46.828 9.488,46.312 9.43,45.887 9.402,45.605 9.387,45.461 9.379,45.355 9.379,45.293 L 9.375,45.23 V 45 c 0,-2.07 1.68,-3.75 3.75,-3.75 H 37.5 c 0.797,0 1.531,0.246 2.141,0.668 0.562,-0.227 1.152,-0.398 1.765,-0.512 0.149,-0.804 0.403,-1.574 0.742,-2.293 z M 54.375,18.75 c -3.105,0 -5.625,2.52 -5.625,5.625 C 48.75,27.48 51.27,30 54.375,30 57.48,30 60,27.48 60,24.375 60,21.27 57.48,18.75 54.375,18.75 Z M 45,45 V 43.125 C 45,40.02 47.52,37.5 50.625,37.5 h 7.5 c 3.105,0 5.625,2.52 5.625,5.625 V 45 h 1.875 c 3.105,0 5.625,2.52 5.625,5.625 v 5.625 h -7.5 V 54.375 C 63.75,53.34 62.91,52.5 61.875,52.5 60.84,52.5 60,53.34 60,54.375 V 56.25 H 48.75 V 54.375 C 48.75,53.34 47.91,52.5 46.875,52.5 45.84,52.5 45,53.34 45,54.375 V 56.25 H 37.5 V 50.625 C 37.5,47.52 40.02,45 43.125,45 Z m 3.75,-1.875 V 45 H 60 V 43.125 C 60,42.09 59.16,41.25 58.125,41.25 h -7.5 c -1.035,0 -1.875,0.84 -1.875,1.875 z M 63.75,60 h 7.5 v 5.625 c 0,3.105 -2.52,5.625 -5.625,5.625 h -22.5 C 40.02,71.25 37.5,68.73 37.5,65.625 V 60 H 45 v 1.875 c 0,1.035 0.84,1.875 1.875,1.875 1.035,0 1.875,-0.84 1.875,-1.875 V 60 H 60 v 1.875 c 0,1.035 0.84,1.875 1.875,1.875 1.035,0 1.875,-0.84 1.875,-1.875 z" style="fill:currentColor;fill-opacity:1;fill-rule:nonzero;stroke:none" transform="scale(1.3333333)" /> </g>
</svg>

