<?xml version="1.0" encoding="UTF-8" standalone="no"?> <svg version="1.1" id="Ida26179259b44186a6a0ebbb2ea1c8da20251110135155" width="100" height="100" viewBox="0 0 100 100" xmlns="http://www.w3.org/2000/svg" xmlns:svg="http://www.w3.org/2000/svg"> <defs id="I5194d9f7049744b7be99a9818f156b7c20251110135155" /> <g id="I3468f2acd1aa4070856a51d993c6b2b420251110135155"> <path id="Ifaeb5604f5ec4870b58729877b17061320251110135155" d="m 54.688,37.5 c 9.492,0 17.187,7.695 17.187,17.188 0,9.492 -7.695,17.187 -17.187,17.187 C 45.195,71.875 37.5,64.18 37.5,54.688 37.5,45.195 45.195,37.5 54.688,37.5 Z m 8.269,9.832 -12.789,12.789 -3.606,-4.809 C 46.043,54.621 45.066,54.48 44.375,55 c -0.691,0.52 -0.832,1.496 -0.313,2.188 l 4.688,6.25 c 0.57,0.761 1.684,0.839 2.355,0.167 L 65.168,49.543 c 0.609,-0.609 0.609,-1.602 0,-2.211 -0.609,-0.609 -1.602,-0.609 -2.211,0 z M 34.434,53.125 H 8.594 l -0.317,0.02 c -1.144,0.156 -2.027,1.136 -2.027,2.324 0,1.293 1.051,2.343 2.344,2.343 h 26.019 c -0.156,-1.019 -0.238,-2.062 -0.238,-3.124 0,-0.528 0.02,-1.047 0.059,-1.563 z m 2.23,-7.813 H 8.594 c -1.293,0 -2.344,-1.05 -2.344,-2.343 0,-1.188 0.883,-2.168 2.027,-2.324 l 0.317,-0.02 h 31.437 c -1.332,1.387 -2.469,2.965 -3.367,4.687 z M 66.406,28.125 H 8.594 l -0.317,0.02 c -1.144,0.156 -2.027,1.136 -2.027,2.324 0,1.293 1.051,2.343 2.344,2.343 h 57.812 l 0.317,-0.019 c 1.144,-0.156 2.027,-1.137 2.027,-2.324 0,-1.293 -1.051,-2.344 -2.344,-2.344 z m 0,-12.5 H 8.594 l -0.317,0.02 c -1.144,0.156 -2.027,1.136 -2.027,2.324 0,1.293 1.051,2.343 2.344,2.343 h 57.812 l 0.317,-0.019 c 1.144,-0.156 2.027,-1.137 2.027,-2.324 0,-1.293 -1.051,-2.344 -2.344,-2.344 z" style="fill:currentColor;fill-opacity:1;fill-rule:nonzero;stroke:none" transform="scale(1.3333333)" /> </g>
</svg>

