<?xml version="1.0" encoding="UTF-8" standalone="no"?> <svg version="1.1" id="I980128f6d73848c38467257ec6bf467020251110123030" width="100" height="100" viewBox="0 0 100 100" xmlns="http://www.w3.org/2000/svg" xmlns:svg="http://www.w3.org/2000/svg"> <defs id="I20bc3e0cb4b7437f803d52cd3dde4bbc20251110123030" /> <g id="I74a87c420965449c8fcbb2c1dd8d7c1c20251110123030"> <path id="If987cf26d117416fbcef7ecae546629320251110123030" d="m 37.5,7.5 c -8.285,0 -15,6.715 -15,15 0,8.285 6.715,15 15,15 8.285,0 15,-6.715 15,-15 0,-8.285 -6.715,-15 -15,-15 z M 18.781,41.25 c -4.144,0 -7.531,3.324 -7.531,7.5 0,6.344 3.121,11.125 8.008,14.238 4.804,3.063 11.285,4.512 18.242,4.512 0.906,0 1.805,-0.023 2.691,-0.074 C 36.551,66.91 33.75,63.781 33.75,60 V 45 c 0,-1.367 0.363,-2.648 1.004,-3.75 z M 37.5,45 c 0,-2.07 1.68,-3.75 3.75,-3.75 H 67.5 c 2.07,0 3.75,1.68 3.75,3.75 v 15 c 0,2.07 -1.68,3.75 -3.75,3.75 H 60 v 3.75 h 1.875 c 1.035,0 1.875,0.84 1.875,1.875 0,1.035 -0.84,1.875 -1.875,1.875 h -15 C 45.84,71.25 45,70.41 45,69.375 45,68.34 45.84,67.5 46.875,67.5 h 1.875 v -3.75 h -7.5 C 39.18,63.75 37.5,62.07 37.5,60 Z" style="fill:currentColor;fill-opacity:1;fill-rule:nonzero;stroke:none" transform="scale(1.3333333)" /> </g>
</svg>

