<?xml version="1.0" encoding="UTF-8" standalone="no"?> <svg version="1.1" id="I8c66eb3904ec45d3af3766ac92e801cc20251106142135" width="100" height="100" viewBox="0 0 100 100" xmlns="http://www.w3.org/2000/svg" xmlns:svg="http://www.w3.org/2000/svg"> <defs id="If401002ead4a49a88d73f4a4ae4343eb20251106142135" /> <g id="Ie61c0dee5387404aaa495fc2a9d9c5d520251106142135"> <path id="I13d441b61aee4ef4ad8a9d03c6eac5fa20251106142135" d="M 5.945,5.945 C 6.73,5.16 8,5.16 8.785,5.945 l 60.27,60.27 c 0.781,0.781 0.781,2.055 0,2.84 -0.785,0.785 -2.059,0.781 -2.84,0 l -2.836,-2.832 c -1.168,0.472 -2.441,0.742 -3.781,0.742 H 15.402 C 9.855,66.965 5.355,62.469 5.355,56.918 V 38.629 c 2.555,2.609 6.11,4.226 10.047,4.226 h 15.403 v 1.34 c 0,2.219 1.797,4.02 4.015,4.02 h 5.36 c 1.41,0 2.648,-0.731 3.367,-1.828 L 32.629,35.469 c -1.098,0.719 -1.824,1.961 -1.824,3.371 H 15.402 c -5.547,0 -10.047,-4.496 -10.047,-10.047 0,-0.172 0.008,-0.344 0.016,-0.516 0.27,-5.308 4.656,-9.527 10.031,-9.527 H 15.91 L 5.945,8.785 C 5.16,8.004 5.16,6.73 5.945,5.945 Z m 63.7,50.973 c 0,1.25 -0.235,2.449 -0.653,3.551 L 51.383,42.855 h 8.215 c 3.937,0 7.492,-1.617 10.047,-4.226 z M 43.527,6.695 c 3.328,0 6.028,2.7 6.028,6.028 v 6.027 h 10.043 c 5.375,0 9.761,4.219 10.031,9.527 0.008,0.172 0.016,0.344 0.016,0.516 0,5.551 -4.5,10.047 -10.047,10.047 H 47.363 L 25.445,16.922 v -4.199 c 0,-3.328 2.7,-6.028 6.028,-6.028 z m -12.054,4.02 c -1.11,0 -2.008,0.898 -2.008,2.008 v 6.027 h 16.07 v -6.027 c 0,-1.11 -0.898,-2.008 -2.008,-2.008 z" style="fill:currentColor;fill-opacity:1;fill-rule:nonzero;stroke:none" transform="scale(1.3333333)" /> </g>
</svg>

