<?xml version="1.0" encoding="UTF-8" standalone="no"?> <svg version="1.1" id="I6739f7e8500a4bedafb160d14f031b9f20251106154012" width="100" height="100" viewBox="0 0 100 100" xmlns="http://www.w3.org/2000/svg" xmlns:svg="http://www.w3.org/2000/svg"> <defs id="I331342fab2c2431984b48c9dac369c6e20251106154012" /> <g id="Ia0958e880b9b463bb3df1a316a795f5e20251106154012"> <path id="Ida3d16cb2f1549cfbd8aa1b9f772145120251106154012" d="m 39.773,6.922 c 0.454,-0.442 1.071,-0.68 1.704,-0.66 14.855,0.441 26.82,12.406 27.261,27.261 0.02,0.633 -0.218,1.247 -0.66,1.704 -0.441,0.453 -1.051,0.711 -1.683,0.711 H 41.406 c -1.293,0 -2.344,-1.051 -2.344,-2.344 V 8.605 c 0,-0.632 0.258,-1.242 0.711,-1.683 z m 3.977,4.223 V 31.25 H 63.855 C 62.465,20.805 54.195,12.535 43.75,11.145 Z m -9.375,3.746 c 0,-0.661 -0.277,-1.289 -0.762,-1.731 -0.488,-0.445 -1.136,-0.664 -1.793,-0.605 -14.336,1.293 -25.57,13.34 -25.57,28.011 0,15.532 12.594,28.125 28.125,28.125 14.648,0 26.684,-11.199 28.004,-25.507 0.062,-0.657 -0.156,-1.309 -0.602,-1.793 -0.445,-0.489 -1.074,-0.766 -1.73,-0.766 H 41.406 c -3.883,0 -7.031,-3.148 -7.031,-7.031 z M 10.938,40.566 c 0,-11.339 8.054,-20.8 18.75,-22.968 v 15.996 c 0,6.472 5.246,11.718 11.718,11.718 H 57.332 C 55.137,55.98 45.691,64.004 34.375,64.004 21.43,64.004 10.938,53.512 10.938,40.566 Z" style="fill:currentColor;fill-opacity:1;fill-rule:nonzero;stroke:none" transform="scale(1.3333333)" /> </g>
</svg>

