<?xml version="1.0" encoding="UTF-8" standalone="no"?> <svg version="1.1" id="I8821dcae546e4dbba307b6bfccd51df720251106161452" width="100" height="100" viewBox="0 0 100 100" xmlns="http://www.w3.org/2000/svg" xmlns:svg="http://www.w3.org/2000/svg"> <defs id="I05e03904b8df475a8ccc762759a978af20251106161452" /> <g id="I14d74146acf746ac99f19277f76208ac20251106161452"> <path id="If008a403c55a4fa0beb7231e7de3818420251106161452" d="M 37.5,6.25 V 25 c 0,3.453 2.797,6.25 6.25,6.25 H 62.5 V 62.5 c 0,3.453 -2.797,6.25 -6.25,6.25 H 34.969 c 3.504,-3.648 5.656,-8.605 5.656,-14.062 0,-11.219 -9.094,-20.313 -20.313,-20.313 -2.769,0 -5.406,0.555 -7.812,1.559 V 12.5 c 0,-3.453 2.797,-6.25 6.25,-6.25 z m 4.688,1.562 V 25 c 0,0.863 0.699,1.562 1.562,1.562 H 60.938 Z M 3.125,54.688 c 0,9.492 7.695,17.187 17.187,17.187 C 29.805,71.875 37.5,64.18 37.5,54.688 37.5,45.195 29.805,37.5 20.312,37.5 10.82,37.5 3.125,45.195 3.125,54.688 Z m 14.844,10.156 c 0,-1.293 1.051,-2.344 2.343,-2.344 1.293,0 2.344,1.051 2.344,2.344 0,1.293 -1.051,2.344 -2.344,2.344 -1.292,0 -2.343,-1.051 -2.343,-2.344 z M 14.062,50 c 0,-3.453 2.797,-6.25 6.25,-6.25 3.454,0 6.25,2.797 6.25,6.25 0,2.281 -0.66,3.562 -2.355,5.336 l -0.824,0.844 -0.363,0.39 c -0.887,0.996 -1.145,1.649 -1.145,2.805 0,0.863 -0.699,1.563 -1.563,1.563 -0.863,0 -1.562,-0.7 -1.562,-1.563 0,-2.281 0.66,-3.563 2.355,-5.336 l 0.825,-0.844 0.363,-0.39 c 0.887,-0.996 1.145,-1.649 1.145,-2.805 0,-1.727 -1.399,-3.125 -3.126,-3.125 -1.726,0 -3.124,1.398 -3.124,3.125 0,0.863 -0.7,1.562 -1.563,1.562 -0.863,0 -1.563,-0.699 -1.563,-1.562 z" style="fill:currentColor;fill-opacity:1;fill-rule:nonzero;stroke:none" transform="scale(1.3333333)" /> </g>
</svg>

