<?xml version="1.0" encoding="UTF-8" standalone="no"?> <svg version="1.1" id="I24a28585b3eb44a8aec1648511ce1b8520251106171633" width="100" height="100" viewBox="0 0 100 100" xmlns="http://www.w3.org/2000/svg" xmlns:svg="http://www.w3.org/2000/svg"> <defs id="I20c5a850da814fb6bd1037de368d1e1920251106171633" /> <g id="I54f9bfd9e46144b5822a5b10a43f6cfd20251106171633"> <path id="I8e2096dc164c419a9252b99b056b733420251106171633" d="m 34.82,5.355 c -6.656,0 -12.05,5.399 -12.05,12.055 v 21.43 c 0,6.656 5.394,12.055 12.05,12.055 0.137,0 0.27,-0.004 0.403,-0.008 1.316,-6.473 5.746,-11.813 11.652,-14.395 V 17.41 C 46.875,10.754 41.477,5.355 34.82,5.355 Z m 0,50.895 h 0.047 c 0.172,2.648 0.86,5.156 1.965,7.43 v 3.953 c 0,1.109 -0.902,2.012 -2.012,2.012 -1.109,0 -2.008,-0.903 -2.008,-2.012 V 60.176 C 21.918,59.16 13.395,49.996 13.395,38.84 v -2.008 c 0,-1.109 0.898,-2.008 2.007,-2.008 1.11,0 2.008,0.899 2.008,2.008 v 2.008 c 0,9.613 7.797,17.41 17.41,17.41 z m 37.5,-1.34 c 0,-9.617 -7.793,-17.41 -17.41,-17.41 -9.617,0 -17.41,7.793 -17.41,17.41 0,9.617 7.793,17.41 17.41,17.41 9.617,0 17.41,-7.793 17.41,-17.41 z M 50.914,46.875 c 0.586,0.012 1.094,0.395 1.262,0.953 l 2.875,9.59 2.625,-6.996 c 0.187,-0.5 0.652,-0.84 1.183,-0.867 0.536,-0.028 1.032,0.265 1.27,0.742 l 2.309,4.66 h 3.187 c 0.738,0 1.34,0.598 1.34,1.34 0,0.738 -0.602,1.336 -1.34,1.336 h -4.02 c -0.507,0 -0.972,-0.285 -1.199,-0.742 l -1.308,-2.637 -2.934,7.824 c -0.203,0.539 -0.723,0.887 -1.297,0.867 -0.574,-0.019 -1.074,-0.402 -1.238,-0.953 l -2.813,-9.371 -1.382,4.102 c -0.188,0.547 -0.696,0.91 -1.27,0.91 h -3.969 c -0.738,0 -1.34,-0.598 -1.34,-1.336 0,-0.742 0.602,-1.34 1.34,-1.34 h 3.008 l 2.422,-7.172 c 0.187,-0.551 0.707,-0.922 1.289,-0.91 z" style="fill:currentColor;fill-opacity:1;fill-rule:nonzero;stroke:none" transform="scale(1.3333333)" /> </g>
</svg>

