<?xml version="1.0" encoding="UTF-8" standalone="no"?> <svg version="1.1" id="I07d91083e2414fd5852a8a6aca8a97c720251106170956" width="100" height="100" viewBox="0 0 100 100" xmlns="http://www.w3.org/2000/svg" xmlns:svg="http://www.w3.org/2000/svg"> <defs id="I7c5883859edd4f7fac7a3ac8fa4c9f5020251106170956" /> <g id="I205e665a8cd8440dbfec790493e7e82c20251106170956"> <path id="I56f7020729e54077b79613fd4f7b1fb320251106170956" d="m 71.875,21.094 c 0,-6.473 -5.246,-11.719 -11.719,-11.719 l -0.316,0.02 c -1.145,0.156 -2.028,1.136 -2.028,2.324 0,1.293 1.051,2.343 2.344,2.343 l 0.481,0.016 c 3.66,0.246 6.551,3.293 6.551,7.016 0,3.883 -3.149,7.031 -7.032,7.031 l -0.011,0.016 -0.317,0.023 c -1.144,0.16 -2.019,1.145 -2.016,2.328 0.008,1.297 1.059,2.34 2.356,2.336 v -0.016 l 0.621,-0.015 C 66.961,32.473 71.875,27.355 71.875,21.094 Z M 51.562,11.719 c 0,-1.293 -1.05,-2.344 -2.343,-2.344 L 48.598,9.391 C 42.414,9.715 37.5,14.832 37.5,21.094 c 0,6.472 5.246,11.718 11.719,11.718 l 0.316,-0.019 c 1.145,-0.156 2.027,-1.137 2.027,-2.324 0,-1.293 -1.05,-2.344 -2.343,-2.344 l -0.481,-0.016 c -3.66,-0.246 -6.55,-3.293 -6.55,-7.015 0,-3.883 3.148,-7.032 7.031,-7.032 l 0.316,-0.019 c 1.145,-0.156 2.027,-1.137 2.027,-2.324 z M 62.5,21.094 c 0,-1.293 -1.051,-2.344 -2.344,-2.344 H 49.219 l -0.317,0.02 c -1.144,0.156 -2.027,1.136 -2.027,2.324 0,1.293 1.051,2.344 2.344,2.344 h 10.937 l 0.317,-0.02 C 61.617,23.262 62.5,22.281 62.5,21.094 Z M 60.156,35.938 H 51.5 l -12.914,6.765 c -0.68,0.356 -1.492,0.356 -2.172,0 L 6.25,26.898 v 25.446 l 0.016,0.578 c 0.3,5.34 4.726,9.578 10.14,9.578 h 42.188 l 0.578,-0.016 c 5.34,-0.3 9.578,-4.726 9.578,-10.14 V 33.199 c -2.426,1.723 -5.391,2.739 -8.594,2.739 z M 16.406,12.5 h 20.707 c -1.722,2.426 -2.738,5.391 -2.738,8.594 0,6.187 3.785,11.492 9.168,13.718 L 37.5,37.98 6.301,21.637 c 0.492,-4.942 4.523,-8.84 9.523,-9.121 z" style="fill:currentColor;fill-opacity:1;fill-rule:nonzero;stroke:none" transform="scale(1.3333333)" /> </g>
</svg>

