<?xml version="1.0" encoding="UTF-8" standalone="no"?> <svg version="1.1" id="I3bd3bbc739364d65b181f4f12f5dcaff20251110124421" width="100" height="100" viewBox="0 0 100 100" xmlns="http://www.w3.org/2000/svg" xmlns:svg="http://www.w3.org/2000/svg"> <defs id="I608825d5b70c43ffb448d59c8f610b8c20251110124421" /> <g id="If96250f46a564cad85b6548a4a9e55f220251110124421"> <path id="Id0576cbed9a6497283c22a95e360c13920251110124421" d="m 55.469,9.375 c 5.609,0 10.156,4.547 10.156,10.156 v 35.938 c 0,5.609 -4.547,10.156 -10.156,10.156 H 39.875 c 0.516,-1.195 0.762,-2.461 0.762,-3.711 0,-2.875 -1.676,-5.41 -4.145,-6.566 1.586,-1.559 2.57,-3.727 2.57,-6.129 0,-4.746 -3.847,-8.594 -8.593,-8.594 -2.305,0 -4.403,0.91 -5.946,2.387 -1.304,-4.102 -5.144,-7.074 -9.679,-7.074 -2.012,0 -3.891,0.585 -5.469,1.597 V 19.531 c 0,-5.609 4.547,-10.156 10.156,-10.156 z m -18.75,9.375 c -1.293,0 -2.344,1.051 -2.344,2.344 v 18.75 c 0,1.293 1.051,2.344 2.344,2.344 h 14.058 c 1.293,0 2.344,-1.051 2.344,-2.344 0,-1.293 -1.051,-2.344 -2.344,-2.344 H 39.062 V 21.094 c 0,-1.293 -1.05,-2.344 -2.343,-2.344 z M 14.844,53.125 c 3.883,0 7.031,-3.148 7.031,-7.031 0,-3.883 -3.148,-7.032 -7.031,-7.032 -3.883,0 -7.032,3.149 -7.032,7.032 0,3.883 3.149,7.031 7.032,7.031 z m 0,18.75 c 8.371,0 11.718,-4.902 11.718,-9.766 0,-3.234 -2.25,-5.859 -5.023,-5.859 H 8.148 c -2.773,0 -5.023,2.625 -5.023,5.859 0,4.883 3.348,9.766 11.719,9.766 z M 35.938,49.219 c 0,3.019 -2.45,5.469 -5.469,5.469 -3.02,0 -5.469,-2.45 -5.469,-5.469 0,-3.02 2.449,-5.469 5.469,-5.469 3.019,0 5.469,2.449 5.469,5.469 z M 27.863,68.75 c 1.262,-2.062 1.821,-4.391 1.821,-6.641 0,-1.488 -0.352,-2.972 -1.004,-4.297 h 4.816 c 2.219,0 4.016,1.836 4.016,4.102 0,3.406 -2.676,6.836 -9.375,6.836 -0.09,0 -0.184,0 -0.274,0 z" style="fill:currentColor;fill-opacity:1;fill-rule:nonzero;stroke:none" transform="scale(1.3333333)" /> </g>
</svg>

