<?xml version="1.0" encoding="UTF-8" standalone="no"?> <svg version="1.1" id="I7bfc9ea00b9140e2b6eb02a14c05ebde20251106123559" width="100" height="100" viewBox="0 0 100 100" xmlns="http://www.w3.org/2000/svg" xmlns:svg="http://www.w3.org/2000/svg"> <defs id="If5696da53b154c0c9d7e4dcc2c1a1ef720251106123559" /> <g id="I7cbc798ecc554a8188cfbb76f5a56d9a20251106123559"> <path id="Ifdf516710e55439093831aae51704aa920251106123559" d="m 31.641,15.234 c 0,-3.234 2.625,-5.859 5.859,-5.859 3.234,0 5.859,2.625 5.859,5.859 0,3.235 -2.625,5.86 -5.859,5.86 -3.234,0 -5.859,-2.625 -5.859,-5.86 z M 37.5,4.688 c -5.824,0 -10.547,4.722 -10.547,10.546 0,1.02 0.145,2.004 0.414,2.938 L 16.578,14.457 c -3.758,-1.293 -7.859,0.703 -9.152,4.465 -1.297,3.762 0.703,7.859 4.465,9.152 l 13.89,4.785 v 8.809 c 0,0.355 -0.082,0.707 -0.238,1.027 l -8.418,17.258 c -1.742,3.574 -0.258,7.887 3.316,9.629 3.575,1.746 7.887,0.258 9.629,-3.316 l 3.426,-7.016 c -0.445,-1.707 -0.684,-3.496 -0.684,-5.344 0,-1.82 0.231,-3.59 0.665,-5.277 -0.067,0.117 -0.133,0.238 -0.196,0.363 l -7.422,15.219 c -0.609,1.25 -2.113,1.766 -3.363,1.16 C 21.25,64.762 20.73,63.254 21.34,62.008 L 29.758,44.75 c 0.469,-0.961 0.711,-2.016 0.711,-3.082 v -9.645 c 0,-1.5 -0.953,-2.835 -2.371,-3.324 l -14.68,-5.054 c -1.316,-0.454 -2.012,-1.883 -1.559,-3.196 0.45,-1.312 1.883,-2.011 3.196,-1.558 l 17.867,6.152 c 2.965,1.019 6.191,1.019 9.156,0 l 17.867,-6.152 c 1.317,-0.453 2.746,0.246 3.196,1.558 0.453,1.313 -0.243,2.742 -1.559,3.196 l -14.68,5.054 c -1.418,0.489 -2.371,1.824 -2.371,3.324 v 2.981 c 1.473,-0.731 3.043,-1.297 4.688,-1.668 v -0.477 l 13.89,-4.785 c 3.762,-1.293 5.762,-5.39 4.465,-9.152 -1.293,-3.762 -5.394,-5.758 -9.152,-4.465 l -10.789,3.715 c 0.269,-0.934 0.414,-1.918 0.414,-2.938 C 48.047,9.41 43.324,4.688 37.5,4.688 Z m 16.406,31.64 c 9.707,0 17.578,7.871 17.578,17.578 0,9.707 -7.871,17.578 -17.578,17.578 -9.707,0 -17.578,-7.871 -17.578,-17.578 0,-9.707 7.871,-17.578 17.578,-17.578 z m 10.617,11.063 c -0.687,-0.688 -1.796,-0.688 -2.484,0 L 50.977,58.453 46.359,53.836 c -0.687,-0.688 -1.797,-0.688 -2.484,0 -0.687,0.687 -0.687,1.797 0,2.484 l 5.859,5.86 c 0.688,0.687 1.797,0.687 2.485,0 L 64.523,49.875 c 0.688,-0.687 0.688,-1.797 0,-2.484 z" style="fill:currentColor;fill-opacity:1;fill-rule:nonzero;stroke:none" transform="scale(1.3333333)" /> </g>
</svg>

