<?xml version="1.0" encoding="UTF-8" standalone="no"?> <svg version="1.1" id="I41cc8f84129345e39b274558952910d320251106155156" width="100" height="100" viewBox="0 0 100 100" xmlns="http://www.w3.org/2000/svg" xmlns:svg="http://www.w3.org/2000/svg"> <defs id="I8592ea47623e4d25ac64a65ee6e4090420251106155156" /> <g id="I0a6929a25b1b48fb8861260f7829464f20251106155156"> <path id="I550d0ca9d505405290bcd899b9255c6520251106155156" d="M 69.645,37.5 C 69.645,19.746 55.254,5.355 37.5,5.355 19.746,5.355 5.355,19.746 5.355,37.5 c 0,17.754 14.391,32.145 32.145,32.145 17.754,0 32.145,-14.391 32.145,-32.145 z M 48.965,26.035 c 0.785,0.785 0.785,2.055 0,2.84 l -8.625,8.625 8.625,8.625 c 0.785,0.785 0.785,2.055 0,2.84 -0.785,0.785 -2.055,0.785 -2.84,0 L 37.5,40.34 28.875,48.965 c -0.785,0.785 -2.055,0.785 -2.84,0 -0.785,-0.785 -0.785,-2.055 0,-2.84 L 34.66,37.5 26.035,28.875 c -0.785,-0.785 -0.785,-2.055 0,-2.84 0.785,-0.785 2.055,-0.785 2.84,0 l 8.625,8.625 8.625,-8.625 c 0.785,-0.785 2.055,-0.785 2.84,0 z" style="fill:currentColor;fill-opacity:1;fill-rule:nonzero;stroke:none" transform="scale(1.3333333)" /> </g>
</svg>

