<?xml version="1.0" encoding="UTF-8" standalone="no"?> <svg version="1.1" id="Ib14fc514b2934c4db8fc3279ed9cf31e20251106152728" width="100" height="100" viewBox="0 0 100 100" xmlns="http://www.w3.org/2000/svg" xmlns:svg="http://www.w3.org/2000/svg"> <defs id="Iba2e0c48741c466499a0970462ccf31920251106152728" /> <g id="Iecce89b4c36a4bc7a3b964b77b72ce0a20251106152728"> <path id="I532e095b0ccd4c3c944b5ffd0cf9649d20251106152728" d="m 10.938,40.625 c 0,-14.672 11.89,-26.563 26.562,-26.563 13.121,0 24.016,9.512 26.176,22.016 2.586,1.645 4.433,4.344 4.937,7.496 0.09,-0.972 0.137,-1.953 0.137,-2.949 0,-17.258 -13.992,-31.25 -31.25,-31.25 -17.258,0 -31.25,13.992 -31.25,31.25 0,8.617 3.492,16.426 9.133,22.078 0.914,0.914 2.398,0.918 3.316,0.004 0.914,-0.914 0.918,-2.398 0,-3.316 -4.797,-4.809 -7.761,-11.438 -7.761,-18.766 z m 45.91,-6.207 C 54.223,26.234 46.555,20.312 37.5,20.312 c -11.219,0 -20.312,9.094 -20.312,20.313 0,5.613 2.277,10.695 5.957,14.371 0.914,0.914 2.398,0.914 3.312,-0.004 0.918,-0.914 0.914,-2.398 0,-3.312 C 23.625,48.848 21.875,44.941 21.875,40.625 21.875,31.996 28.871,25 37.5,25 c 6.953,0 12.848,4.543 14.871,10.82 1.34,-0.769 2.856,-1.261 4.477,-1.402 z m -27.16,6.207 c 0,-4.316 3.496,-7.813 7.812,-7.813 4.316,0 7.812,3.497 7.812,7.813 0,4.316 -3.496,7.813 -7.812,7.813 -4.316,0 -7.812,-3.497 -7.812,-7.813 z M 37.5,37.5 c -1.727,0 -3.125,1.398 -3.125,3.125 0,1.727 1.398,3.125 3.125,3.125 1.727,0 3.125,-1.398 3.125,-3.125 0,-1.727 -1.398,-3.125 -3.125,-3.125 z m 28.125,7.812 c 0,4.317 -3.496,7.813 -7.813,7.813 -4.316,0 -7.812,-3.496 -7.812,-7.813 0,-4.316 3.496,-7.812 7.812,-7.812 4.317,0 7.813,3.496 7.813,7.812 z m 6.25,16.797 c 0,4.864 -4.02,9.766 -14.063,9.766 -10.042,0 -14.062,-4.883 -14.062,-9.766 v -0.32 c 0,-3.062 2.48,-5.539 5.539,-5.539 h 17.047 c 3.059,0 5.539,2.477 5.539,5.539 z" style="fill:currentColor;fill-opacity:1;fill-rule:nonzero;stroke:none" transform="scale(1.3333333)" /> </g>
</svg>

