<?xml version="1.0" encoding="UTF-8" standalone="no"?> <svg version="1.1" id="I8729ca7108724a64852ad74c2e001b7220251110124420" width="100" height="100" viewBox="0 0 100 100" xmlns="http://www.w3.org/2000/svg" xmlns:svg="http://www.w3.org/2000/svg"> <defs id="I0570ec70d8ea46b8906ef0c2f193cc3120251110124420" /> <g id="Ifafb51fe8d7a45f78f8429a8b5ea62ca20251110124420"> <path id="If2c4944181f7421fb8c22898db67cf3820251110124420" d="M 37.5,9.375 C 21.969,9.375 9.375,21.969 9.375,37.5 9.375,53.031 21.969,65.625 37.5,65.625 53.031,65.625 65.625,53.031 65.625,37.5 65.625,21.969 53.031,9.375 37.5,9.375 Z M 5.355,37.5 C 5.355,19.746 19.746,5.355 37.5,5.355 55.254,5.355 69.645,19.746 69.645,37.5 69.645,55.254 55.254,69.645 37.5,69.645 19.746,69.645 5.355,55.254 5.355,37.5 Z m 18.75,-9.375 c 0,-2.219 1.801,-4.02 4.02,-4.02 h 18.75 c 2.219,0 4.02,1.801 4.02,4.02 v 18.75 c 0,2.219 -1.801,4.02 -4.02,4.02 h -18.75 c -2.219,0 -4.02,-1.801 -4.02,-4.02 z" style="fill:currentColor;fill-opacity:1;fill-rule:nonzero;stroke:none" transform="scale(1.3333333)" /> </g>
</svg>

