<?xml version="1.0" encoding="UTF-8" standalone="no"?> <svg version="1.1" id="I3662f2b43ba34164947a1c096a596e1d20251110130509" width="100" height="100" viewBox="0 0 100 100" xmlns="http://www.w3.org/2000/svg" xmlns:svg="http://www.w3.org/2000/svg"> <defs id="I9bb7f7bf645a4bedb98f5ed51b649a6320251110130509" /> <g id="I0fdc8b56dc184f31a75934a2ac050db520251110130509"> <path id="I4510bf2795c9496c8ef63ec0f186cd9f20251110130509" d="m 9.375,19.531 c 0,-5.609 4.547,-10.156 10.156,-10.156 h 35.938 c 5.609,0 10.156,4.547 10.156,10.156 v 18.035 c -1.449,-0.925 -3.02,-1.671 -4.687,-2.211 V 31.25 h -12.5 v 4.105 c -1.668,0.54 -3.239,1.286 -4.688,2.211 V 31.25 h -12.5 v 12.5 h 6.316 c -0.925,1.449 -1.671,3.02 -2.211,4.688 H 31.25 v 12.5 h 4.105 c 0.54,1.667 1.286,3.238 2.211,4.687 H 19.531 c -5.609,0 -10.156,-4.547 -10.156,-10.156 z m 10.156,-5.469 c -3.019,0 -5.469,2.45 -5.469,5.469 v 7.031 h 12.5 v -12.5 z M 14.062,31.25 v 12.5 h 12.5 v -12.5 z m 34.376,-4.688 h 12.5 v -7.031 c 0,-3.019 -2.45,-5.469 -5.469,-5.469 h -7.031 z m -4.688,-12.5 h -12.5 v 12.5 h 12.5 z M 14.062,48.438 v 7.031 c 0,3.019 2.45,5.469 5.469,5.469 h 7.031 v -12.5 z m 57.813,6.25 c 0,9.492 -7.695,17.187 -17.187,17.187 C 45.195,71.875 37.5,64.18 37.5,54.688 37.5,45.195 45.195,37.5 54.688,37.5 c 9.492,0 17.187,7.695 17.187,17.188 z M 54.688,52.477 49.543,47.332 c -0.609,-0.609 -1.602,-0.609 -2.211,0 -0.609,0.609 -0.609,1.602 0,2.211 l 5.145,5.145 -5.145,5.144 c -0.609,0.609 -0.609,1.602 0,2.211 0.609,0.609 1.602,0.609 2.211,0 l 5.145,-5.145 5.144,5.145 c 0.609,0.609 1.602,0.609 2.211,0 0.609,-0.609 0.609,-1.602 0,-2.211 l -5.145,-5.144 5.145,-5.145 c 0.609,-0.609 0.609,-1.602 0,-2.211 -0.609,-0.609 -1.602,-0.609 -2.211,0 z" style="fill:currentColor;fill-opacity:1;fill-rule:nonzero;stroke:none" transform="scale(1.3333333)" /> </g>
</svg>

