<?xml version="1.0" encoding="UTF-8" standalone="no"?> <svg version="1.1" id="I2d695fd3bbe5475294e508fb0a5c696c20251106112458" width="100" height="100" viewBox="0 0 100 100" xmlns="http://www.w3.org/2000/svg" xmlns:svg="http://www.w3.org/2000/svg"> <defs id="Ia764cb59bcd24cef9ef8f1dd1f042de620251106112458" /> <g id="Ia00bf08153d547d59f0a81a69b1158da20251106112458"> <path id="I236ad59555334519b058ed6d5b0cc72920251106112458" d="m 66.504,58.559 c -1.578,-3.739 -3.871,-7.137 -6.746,-10 -2.867,-2.875 -6.266,-5.164 -10.004,-6.747 -0.031,-0.019 -0.066,-0.027 -0.102,-0.042 5.215,-3.766 8.606,-9.903 8.606,-16.825 0,-11.468 -9.289,-20.761 -20.758,-20.761 -11.469,0 -20.758,9.293 -20.758,20.761 0,6.922 3.391,13.059 8.606,16.832 -0.036,0.016 -0.071,0.024 -0.102,0.043 -3.75,1.582 -7.117,3.848 -10.004,6.746 -2.871,2.868 -5.164,6.266 -6.746,10.004 -1.555,3.66 -2.391,7.582 -2.469,11.559 -0.011,0.375 0.293,0.687 0.668,0.687 h 5.024 c 0.367,0 0.66,-0.293 0.668,-0.656 0.168,-6.461 2.765,-12.512 7.351,-17.098 4.746,-4.746 11.047,-7.359 17.762,-7.359 6.715,0 13.016,2.613 17.762,7.359 4.586,4.586 7.183,10.637 7.351,17.098 0.008,0.371 0.301,0.656 0.668,0.656 h 5.024 c 0.375,0 0.679,-0.312 0.668,-0.687 -0.082,-4 -0.911,-7.895 -2.469,-11.57 z M 37.5,39.34 c -3.844,0 -7.457,-1.496 -10.18,-4.219 -2.718,-2.719 -4.218,-6.336 -4.218,-10.176 0,-3.843 1.5,-7.461 4.218,-10.179 2.723,-2.719 6.336,-4.219 10.18,-4.219 3.844,0 7.457,1.5 10.18,4.219 2.718,2.718 4.218,6.336 4.218,10.179 0,3.84 -1.5,7.457 -4.218,10.176 -2.723,2.723 -6.336,4.219 -10.18,4.219 z" style="fill:currentColor;fill-opacity:1;fill-rule:nonzero;stroke:none" transform="scale(1.3333333)" /> </g>
</svg>

