<?xml version="1.0" encoding="UTF-8" standalone="no"?> <svg version="1.1" id="Ifbec6f521a3b40e8b0a3b52b826c4d3920251106161453" width="100" height="100" viewBox="0 0 100 100" xmlns="http://www.w3.org/2000/svg" xmlns:svg="http://www.w3.org/2000/svg"> <defs id="I0b18cdb7e9ea44cb9f46d4b616f333b220251106161453" /> <g id="I3d97b1c4e9b54b6197e00562b833006120251106161453"> <path id="I21b1d051e0d24fcaaed4651d08f8febd20251106161453" d="m 41.5,9.301 c 0.984,3.406 -1.059,6.949 -4.504,7.801 l -1.824,0.449 c -0.141,0.898 -0.215,1.824 -0.215,2.761 0,0.985 0.082,1.95 0.234,2.887 l 1.684,0.406 c 3.48,0.836 5.547,4.415 4.535,7.844 l -0.582,1.973 c 1.371,1.207 2.934,2.183 4.637,2.883 l 1.543,-1.621 c 2.465,-2.594 6.597,-2.594 9.062,0 l 1.559,1.64 c 1.699,-0.687 3.262,-1.66 4.633,-2.855 l -0.617,-2.141 c -0.985,-3.406 1.058,-6.949 4.503,-7.801 l 1.825,-0.453 c 0.14,-0.898 0.215,-1.82 0.215,-2.762 0,-0.984 -0.083,-1.945 -0.235,-2.886 L 66.27,17.023 C 62.789,16.184 60.723,12.605 61.734,9.176 L 62.316,7.203 C 60.945,6 59.383,5.02 57.68,4.324 l -1.543,1.621 c -2.465,2.59 -6.598,2.59 -9.063,-0.004 L 45.516,4.305 c -1.7,0.687 -3.262,1.656 -4.633,2.851 z M 51.57,25 c -2.5,0 -4.531,-2.098 -4.531,-4.688 0,-2.589 2.031,-4.687 4.531,-4.687 2.504,0 4.532,2.098 4.532,4.687 0,2.59 -2.028,4.688 -4.532,4.688 z M 31.254,20.312 c 0,-0.523 0.019,-1.042 0.058,-1.558 H 11.719 c -3.02,0 -5.469,2.449 -5.469,5.469 V 63.27 c 0,3.019 2.449,5.468 5.469,5.468 h 23.433 l 0.004,0.008 h 28.121 c 3.02,0 5.469,-2.449 5.469,-5.469 L 68.75,31.164 c -1.254,1.981 -2.844,3.734 -4.688,5.172 l -0.003,26.941 c 0,0.434 -0.348,0.782 -0.782,0.782 H 39.844 V 36.902 c -1.805,-1.277 -3.391,-2.84 -4.692,-4.625 l 0.004,31.774 H 11.719 c -0.43,0 -0.781,-0.348 -0.781,-0.781 V 24.223 c 0,-0.43 0.351,-0.782 0.781,-0.782 l 19.777,0.004 c -0.16,-1.023 -0.242,-2.066 -0.242,-3.133 z m 21.844,36.719 c 0,-1.293 -1.047,-2.343 -2.344,-2.343 h -4.688 l -0.316,0.023 c -1.145,0.152 -2.027,1.133 -2.027,2.32 0,1.297 1.05,2.344 2.343,2.344 h 4.688 l 0.32,-0.02 c 1.145,-0.156 2.024,-1.136 2.024,-2.324 z m -21.864,0 c 0,-1.293 -1.05,-2.343 -2.347,-2.343 h -4.692 l -0.32,0.023 c -1.141,0.152 -2.023,1.133 -2.023,2.32 0,1.297 1.046,2.344 2.343,2.344 h 4.692 l 0.32,-0.02 c 1.145,-0.156 2.027,-1.136 2.027,-2.324 z" style="fill:currentColor;fill-opacity:1;fill-rule:nonzero;stroke:none" transform="scale(1.3333333)" /> </g>
</svg>

