<?xml version="1.0" encoding="UTF-8" standalone="no"?> <svg version="1.1" id="I478d5dda93764ab7967f63f9226b6a3620251110123031" width="100" height="100" viewBox="0 0 100 100" xmlns="http://www.w3.org/2000/svg" xmlns:svg="http://www.w3.org/2000/svg"> <defs id="Ib50cdc05772c41c9b67315f446abd85d20251110123031" /> <g id="I7360a543314141e7ac2189f87742289c20251110123031"> <path id="I2a34544e4d2b4c498862e0f8caa6714620251110123031" d="m 67.5,20.625 c 0,9.32 -7.555,16.875 -16.875,16.875 -9.32,0 -16.875,-7.555 -16.875,-16.875 0,-9.32 7.555,-16.875 16.875,-16.875 9.32,0 16.875,7.555 16.875,16.875 z m -8.051,-6.949 c -0.73,-0.735 -1.918,-0.735 -2.648,0 l -9.926,9.922 -2.426,-2.422 c -0.73,-0.735 -1.918,-0.735 -2.648,0 -0.735,0.73 -0.735,1.918 0,2.648 l 3.75,3.75 c 0.73,0.735 1.918,0.735 2.648,0 l 11.25,-11.25 c 0.735,-0.73 0.735,-1.918 0,-2.648 z M 24.375,7.5 h 10.34 C 31.77,11.066 30,15.641 30,20.625 c 0,11.391 9.234,20.625 20.625,20.625 1.949,0 3.836,-0.27 5.625,-0.777 v 21.402 c 0,3.105 -2.52,5.625 -5.625,5.625 H 24.375 C 21.27,67.5 18.75,64.98 18.75,61.875 V 13.125 C 18.75,10.02 21.27,7.5 24.375,7.5 Z M 30,54.375 c 0,1.035 0.84,1.875 1.875,1.875 h 11.25 C 44.16,56.25 45,55.41 45,54.375 45,53.34 44.16,52.5 43.125,52.5 H 31.875 C 30.84,52.5 30,53.34 30,54.375 Z" style="fill:currentColor;fill-opacity:1;fill-rule:nonzero;stroke:none" transform="scale(1.3333333)" /> </g>
</svg>

