<?xml version="1.0" encoding="UTF-8" standalone="no"?> <svg version="1.1" id="Ia80b653efc34453ab21cf4d059d5989220251106152728" width="100" height="100" viewBox="0 0 100 100" xmlns="http://www.w3.org/2000/svg" xmlns:svg="http://www.w3.org/2000/svg"> <defs id="I3fba764047aa41ba95befe58be67fa0120251106152728" /> <g id="I53ab72203b9d4ca2b01a815ea9eff7a620251106152728"> <path id="Icaf932ff3f034c59af1be2802a6b787120251106152728" d="m 53.961,15.426 c 5.633,1.476 9.789,6.601 9.789,12.699 v 6.906 c 1.309,0.461 2.562,1.043 3.75,1.731 V 28.125 C 67.5,18.805 59.945,11.25 50.625,11.25 h -26.25 c -3.066,0 -5.789,1.473 -7.5,3.75 h 33.75 c 0.453,0 0.898,0.023 1.34,0.066 0.683,0.071 1.347,0.192 1.996,0.36 z M 60,28.125 v 5.937 C 58.781,33.855 57.527,33.75 56.25,33.75 V 28.125 C 56.25,25.02 53.73,22.5 50.625,22.5 h -33.75 c -3.105,0 -5.625,2.52 -5.625,5.625 v 22.5 c 0,3.105 2.52,5.625 5.625,5.625 H 22.5 v 7.48 l 10.238,-7.48 h 1.012 c 0,1.277 0.105,2.531 0.312,3.75 h -0.097 l -9.254,6.762 C 22.234,68.57 18.75,66.801 18.75,63.73 V 60 H 16.875 C 11.699,60 7.5,55.801 7.5,50.625 v -22.5 c 0,-5.176 4.199,-9.375 9.375,-9.375 h 33.75 c 5.176,0 9.375,4.199 9.375,9.375 z M 56.25,41.25 c -8.285,0 -15,6.715 -15,15 0,8.285 6.715,15 15,15 1.758,0 3.438,-0.301 5,-0.852 0.977,-0.347 2.047,0.164 2.395,1.141 0.343,0.977 -0.168,2.047 -1.145,2.395 C 60.543,74.625 58.438,75 56.25,75 45.895,75 37.5,66.605 37.5,56.25 37.5,45.895 45.895,37.5 56.25,37.5 66.605,37.5 75,45.895 75,56.25 c 0,5.457 -3.379,9.141 -7.398,9.355 -1.989,0.106 -3.957,-0.683 -5.391,-2.355 -0.211,-0.242 -0.406,-0.5 -0.586,-0.777 -1.512,1.906 -3.723,3.152 -6.313,3.152 -4.886,0 -8.437,-4.441 -8.437,-9.375 0,-4.934 3.551,-9.375 8.437,-9.375 1.786,0 3.391,0.59 4.711,1.582 0.141,-0.895 0.915,-1.582 1.852,-1.582 1.035,0 1.875,0.84 1.875,1.875 v 7.5 c 0,2.324 0.617,3.754 1.305,4.559 0.675,0.785 1.519,1.093 2.343,1.05 1.606,-0.086 3.852,-1.691 3.852,-5.609 0,-8.285 -6.715,-15 -15,-15 z m -0.938,20.625 c 2.364,0 4.688,-2.277 4.688,-5.625 0,-3.348 -2.324,-5.625 -4.688,-5.625 -2.363,0 -4.687,2.277 -4.687,5.625 0,3.348 2.324,5.625 4.687,5.625 z" style="fill:currentColor;fill-opacity:1;fill-rule:nonzero;stroke:none" transform="scale(1.3333333)" /> </g>
</svg>

