<?xml version="1.0" encoding="UTF-8" standalone="no"?> <svg version="1.1" id="I2b501a976fc345478d5e2d1f1265946a20251106132945" width="100" height="100" viewBox="0 0 100 100" xmlns="http://www.w3.org/2000/svg" xmlns:svg="http://www.w3.org/2000/svg"> <defs id="Idfc84efa225142dab8841f60699740e020251106132945" /> <g id="Ifbc2a8577df84265a914faca57cbc85a20251106132945"> <path id="I1b3a78e788a548acbbb66a7508cb7d1420251106132945" d="m 14.887,14.699 c -1,-0.41 -1.477,-1.551 -1.071,-2.547 0.411,-1 1.551,-1.476 2.551,-1.07 l 48.922,20.039 c 2.91,1.191 2.91,5.317 0,6.508 L 18.09,56.961 31.703,63.473 c 0.973,0.465 1.383,1.632 0.918,2.605 -0.465,0.973 -1.633,1.383 -2.605,0.918 L 12.047,58.402 c -0.938,-0.449 -1.359,-1.55 -0.957,-2.511 l 7.812,-18.75 c 0.414,-0.996 1.559,-1.469 2.551,-1.051 0.996,0.414 1.469,1.558 1.055,2.551 l -6.176,14.82 46.594,-19.086 z" style="fill:currentColor;fill-opacity:1;fill-rule:nonzero;stroke:none" transform="scale(1.3333333)" /> </g>
</svg>

