<?xml version="1.0" encoding="UTF-8" standalone="no"?> <svg version="1.1" id="I4022865451874f8197c2be0a8827495120251110130509" width="100" height="100" viewBox="0 0 100 100" xmlns="http://www.w3.org/2000/svg" xmlns:svg="http://www.w3.org/2000/svg"> <defs id="Idada9b25e1e84cd59e86d7b41e1ee2b420251110130509" /> <g id="I32b5dc04ee344f5ebd6b3584d654ac8a20251110130509"> <path id="I33ee0b64c5dc4027a6a774a9b346fefc20251110130509" d="m 54.688,20.312 c 0,2.157 -1.75,3.907 -3.907,3.907 -2.156,0 -3.906,-1.75 -3.906,-3.907 0,-2.156 1.75,-3.906 3.906,-3.906 2.157,0 3.907,1.75 3.907,3.906 z M 32.836,9.059 C 34.727,7.254 37.234,6.25 39.848,6.25 h 17.183 c 4.746,0 8.594,3.848 8.594,8.594 V 30.32 c 0,2.723 -1.094,5.332 -3.035,7.239 L 40.887,58.918 c -2.746,2.703 -7.16,2.691 -9.891,-0.027 L 11.441,39.43 c -2.8,-2.789 -2.753,-7.34 0.11,-10.071 z m 7.012,1.879 c -1.407,0 -2.758,0.542 -3.778,1.511 L 14.785,32.75 c -0.953,0.91 -0.969,2.43 -0.035,3.359 l 19.551,19.457 c 0.91,0.907 2.383,0.911 3.297,0.008 L 59.305,34.219 c 1.043,-1.028 1.633,-2.434 1.633,-3.899 V 14.844 c 0,-2.156 -1.75,-3.906 -3.907,-3.906 z m 24.937,28.851 -4.609,4.535 c -0.125,0.168 -0.266,0.332 -0.422,0.481 L 43.09,61.145 c -0.656,0.644 -1.375,1.179 -2.141,1.609 -3.867,2.184 -8.859,1.633 -12.156,-1.649 L 22.758,55.098 15.223,47.641 C 15.102,47.52 14.988,47.395 14.887,47.266 l -5.09,-5.067 c -0.973,2.992 -0.262,6.41 2.129,8.774 l 13.613,13.472 c 5.762,5.703 15.039,5.727 20.832,0.047 l 16.664,-16.34 c 2.418,-2.367 3.129,-5.797 2.16,-8.789 -0.133,0.145 -0.269,0.285 -0.41,0.426 z" style="fill:currentColor;fill-opacity:1;fill-rule:nonzero;stroke:none" transform="scale(1.3333333)" /> </g>
</svg>

