<?xml version="1.0" encoding="UTF-8" standalone="no"?> <svg version="1.1" id="Iae3cd3eb96964cadbf5b9cb7c656cc7f20251110130509" width="100" height="100" viewBox="0 0 100 100" xmlns="http://www.w3.org/2000/svg" xmlns:svg="http://www.w3.org/2000/svg"> <defs id="Ie7e851e5c9e44c3c8f77834469f15fb820251110130509" /> <g id="Id38013771e4c44b1b436a4840d39aee020251110130509"> <path id="Ie6ff8de18d9746c68184f03638a3dd4f20251110130509" d="m 18.082,8.035 h 17.41 V 35.492 H 8.035 v -17.41 c 0,-5.551 4.496,-10.047 10.047,-10.047 z M 8.035,39.508 h 27.457 v 27.457 h -17.41 c -5.551,0 -10.047,-4.496 -10.047,-10.047 z m 31.473,0 v 27.457 h 17.41 c 5.551,0 10.047,-4.496 10.047,-10.047 v -17.41 z m 0,-31.473 v 27.457 h 27.457 v -17.41 c 0,-5.551 -4.496,-10.047 -10.047,-10.047 z m 21.504,42.27 -8.035,8.035 c -0.786,0.785 -2.055,0.785 -2.84,0 l -4.012,-4.012 c -0.785,-0.785 -0.785,-2.055 0,-2.84 0.785,-0.785 2.055,-0.785 2.84,0 l 2.59,2.59 6.617,-6.613 c 0.785,-0.785 2.055,-0.785 2.84,0 0.785,0.781 0.785,2.055 0,2.84 z" style="fill:currentColor;fill-opacity:1;fill-rule:nonzero;stroke:none" transform="scale(1.3333333)" /> </g>
</svg>

