<?xml version="1.0" encoding="UTF-8" standalone="no"?> <svg version="1.1" id="I7e00decb1dd946369a58592b06f675c520251106143238" width="100" height="100" viewBox="0 0 100 100" xmlns="http://www.w3.org/2000/svg" xmlns:svg="http://www.w3.org/2000/svg"> <defs id="I7672e500fa284e40b3e11c1da600efc520251106143238" /> <g id="I36f29f8ca1024b39ae662e77acdddb0220251106143238"> <path id="Ic6973c5e52db47fe97df44f9eb261eb620251106143238" d="M 63.75,26.25 V 36 c -2.812,-1.438 -6,-2.25 -9.375,-2.25 -11.391,0 -20.625,9.234 -20.625,20.625 0,3.375 0.812,6.563 2.25,9.375 H 20.625 c -5.176,0 -9.375,-4.199 -9.375,-9.375 V 26.25 Z m -9.375,-15 c 5.176,0 9.375,4.199 9.375,9.375 V 22.5 h -52.5 v -1.875 c 0,-5.176 4.199,-9.375 9.375,-9.375 z m -2.344,35.625 c 0,-1.293 1.051,-2.344 2.344,-2.344 1.293,0 2.344,1.051 2.344,2.344 0,1.293 -1.051,2.344 -2.344,2.344 -1.293,0 -2.344,-1.051 -2.344,-2.344 z m 4.219,15 c 0,1.035 -0.84,1.875 -1.875,1.875 -1.035,0 -1.875,-0.84 -1.875,-1.875 v -7.5 c 0,-1.035 0.84,-1.875 1.875,-1.875 1.035,0 1.875,0.84 1.875,1.875 z m -18.75,-7.5 c 0,-9.32 7.555,-16.875 16.875,-16.875 9.32,0 16.875,7.555 16.875,16.875 0,9.32 -7.555,16.875 -16.875,16.875 -9.32,0 -16.875,-7.555 -16.875,-16.875 z m 3.75,0 c 0,7.25 5.875,13.125 13.125,13.125 7.25,0 13.125,-5.875 13.125,-13.125 0,-7.25 -5.875,-13.125 -13.125,-13.125 -7.25,0 -13.125,5.875 -13.125,13.125 z" style="fill:currentColor;fill-opacity:1;fill-rule:nonzero;stroke:none" transform="scale(1.3333333)" /> </g>
</svg>

