<?xml version="1.0" encoding="UTF-8" standalone="no"?>
<!-- Created with Inkscape (http://www.inkscape.org/) -->

<svg
   version="1.1"
   id="Ic86f012cea914befb6664548e581479520251031115229"
   width="100"
   height="100"
   viewBox="0 0 100 100"
   sodipodi:docname="output.ai"
   xmlns:inkscape="http://www.inkscape.org/namespaces/inkscape"
   xmlns:sodipodi="http://sodipodi.sourceforge.net/DTD/sodipodi-0.dtd"
   xmlns="http://www.w3.org/2000/svg"
   xmlns:svg="http://www.w3.org/2000/svg">
  <defs
     id="Idc9342d478b84eccbe31a1040e71399820251031115229" />
  <sodipodi:namedview
     id="Iee8fe81e74814056a87470199dd404ac20251031115229"
     pagecolor="#ffffff"
     bordercolor="#000000"
     borderopacity="0.25"
     inkscape:showpageshadow="2"
     inkscape:pageopacity="0.0"
     inkscape:pagecheckerboard="0"
     inkscape:deskcolor="#d1d1d1">
    <inkscape:page
       x="0"
       y="0"
       inkscape:label="1"
       id="I75345dfb9d624673b26ca295320da00f20251031115229"
       width="100"
       height="100"
       margin="0"
       bleed="0" />
  </sodipodi:namedview>
  <g
     id="I9586b9ef722a4b54a710233f57883e8220251031115229"
     inkscape:groupmode="layer"
     inkscape:label="1">
    <path
       id="I017d3d8620c74bdc82212b0fcb4f0d6a20251031115229"
       d="m 19.531,10.938 c -1.293,0 -2.343,1.05 -2.343,2.343 v 48.438 c 0,1.293 1.05,2.343 2.343,2.343 H 31.34 c -0.332,1.715 0.027,3.356 0.851,4.688 H 19.531 C 15.648,68.75 12.5,65.602 12.5,61.719 V 13.281 c 0,-3.883 3.148,-7.031 7.031,-7.031 h 19.02 c 1.449,0 2.84,0.574 3.867,1.602 l 18.48,18.48 c 1.024,1.027 1.602,2.418 1.602,3.867 v 1.051 h -0.406 c -0.348,-0.016 -0.692,-0.016 -1.039,0 H 43.75 C 40.297,31.25 37.5,28.453 37.5,25 V 10.938 Z m 22.657,3.316 V 25 c 0,0.863 0.699,1.562 1.562,1.562 h 10.746 z m 19.417,20.121 h 0.004 c 1.829,0 3.657,0.699 5.047,2.094 2.789,2.789 2.789,7.308 0,10.101 L 48.211,65.012 c -1.074,1.078 -2.422,1.84 -3.899,2.207 l -5.718,1.433 c -2.489,0.621 -4.742,-1.632 -4.121,-4.121 l 1.433,-5.719 c 0.367,-1.476 1.129,-2.824 2.207,-3.898 L 56.555,36.469 c 1.394,-1.395 3.222,-2.094 5.05,-2.094 z"
       style="fill:#212121;fill-opacity:1;fill-rule:nonzero;stroke:none"
       transform="scale(1.3333333)" />
  </g>
</svg>



