<?xml version="1.0" encoding="UTF-8" standalone="no"?> <svg version="1.1" id="Id278026dbae348a1af90e9fe73b6359920251106164749" width="100" height="100" viewBox="0 0 100 100" xmlns="http://www.w3.org/2000/svg" xmlns:svg="http://www.w3.org/2000/svg"> <defs id="I83ad4cc9818644869884876051413b7e20251106164749" /> <g id="Idd145f788d0c4994b0d480627120f69f20251106164749"> <path id="Ic52f15719bdc4aee8e231bf9f4bf2b4420251106164749" d="m 24.965,20.09 c -0.879,0 -1.723,0.348 -2.352,0.965 l -7.164,7.07 h 12.008 c 3.609,0 6.613,2.598 7.242,6.027 h 5.602 c 0.629,-3.429 3.633,-6.027 7.242,-6.027 h 12.008 l -7.164,-7.07 C 51.758,20.438 50.914,20.09 50.035,20.09 h -3.828 c -1.113,0 -2.012,-0.899 -2.012,-2.008 0,-1.109 0.899,-2.012 2.012,-2.012 h 3.828 c 1.934,0 3.793,0.766 5.172,2.125 l 11.84,11.684 c 0.277,0.234 0.539,0.492 0.781,0.769 l 0.067,0.067 -0.008,0.004 c 1.093,1.285 1.758,2.953 1.758,4.773 v 10.715 c 0,5.547 -4.5,10.043 -10.047,10.043 H 50.223 C 44.676,56.25 40.18,51.754 40.18,46.207 v -8.039 h -5.36 v 8.039 c 0,5.547 -4.496,10.043 -10.043,10.043 H 15.402 C 9.855,56.25 5.355,51.754 5.355,46.207 V 35.492 c 0,-1.82 0.665,-3.488 1.758,-4.773 L 7.105,30.715 7.176,30.645 C 7.414,30.371 7.672,30.117 7.949,29.883 L 19.793,18.195 c 1.379,-1.359 3.234,-2.125 5.172,-2.125 h 3.828 c 1.109,0 2.012,0.903 2.012,2.012 0,1.109 -0.903,2.008 -2.012,2.008 z" style="fill:currentColor;fill-opacity:1;fill-rule:nonzero;stroke:none" transform="scale(1.3333333)" /> </g>
</svg>

