<?xml version="1.0" encoding="UTF-8" standalone="no"?> <svg version="1.1" id="I433e8ec2847b4bb9b99af5f7d0d1c1e220251110124421" width="100" height="100" viewBox="0 0 100 100" xmlns="http://www.w3.org/2000/svg" xmlns:svg="http://www.w3.org/2000/svg"> <defs id="I7b0506f8c6ff44fcb29b8de1cbe041be20251110124421" /> <g id="I83d9b3ec232245578a4487933996bec320251110124421"> <path id="I64a5d29a11a64eaeb74044820c2173cd20251110124421" d="m 36.32,5.738 c 0.703,-0.508 1.653,-0.508 2.356,0 1.719,1.242 5.59,3.512 10.437,5.465 4.848,1.957 10.508,3.527 15.836,3.527 1.11,0 2.008,0.903 2.008,2.008 v 20.766 c 0,8.109 -4.559,15.648 -10.277,21.297 -5.715,5.64 -12.93,9.746 -18.836,10.777 l -0.348,0.059 -0.344,-0.059 C 31.246,68.547 24.027,64.445 18.312,58.801 12.598,53.152 8.035,45.613 8.035,37.504 V 16.738 c 0,-1.105 0.899,-2.008 2.008,-2.008 5.336,0 10.992,-1.57 15.84,-3.527 C 30.727,9.25 34.598,6.98 36.32,5.738 Z m 1.18,44.485 c -1.848,0 -3.348,1.5 -3.348,3.347 0,1.848 1.5,3.348 3.348,3.348 1.848,0 3.348,-1.5 3.348,-3.348 0,-1.847 -1.5,-3.347 -3.348,-3.347 z m 0,-31.473 c -1.109,0 -2.008,0.898 -2.008,2.008 v 24.105 c 0,1.11 0.899,2.012 2.008,2.012 1.109,0 2.008,-0.902 2.008,-2.012 V 20.758 c 0,-1.11 -0.899,-2.008 -2.008,-2.008 z" style="fill:currentColor;fill-opacity:1;fill-rule:nonzero;stroke:none" transform="scale(1.3333333)" /> </g>
</svg>

