<?xml version="1.0" encoding="UTF-8" standalone="no"?> <svg version="1.1" id="I8a81bdc5d86642b9b79fe56acc97897d20251106152729" width="100" height="100" viewBox="0 0 100 100" xmlns="http://www.w3.org/2000/svg" xmlns:svg="http://www.w3.org/2000/svg"> <defs id="I20d3e06faf874860bdb1fb19b3c8c93920251106152729" /> <g id="Ia201bd90ce9745ba8955eabd4f44ffc220251106152729"> <path id="I9eda29b86ef54651ac6177c2e5ddcf7e20251106152729" d="m 37.5,25 c 1.188,0 2.168,0.883 2.324,2.027 l 0.02,0.317 v 33.453 l 6.937,-6.934 c 0.832,-0.832 2.133,-0.906 3.051,-0.226 l 0.262,0.226 c 0.832,0.832 0.91,2.137 0.226,3.051 L 50.094,57.18 39.156,68.117 c -0.832,0.832 -2.133,0.906 -3.051,0.227 L 35.844,68.117 24.906,57.18 c -0.918,-0.918 -0.918,-2.399 0,-3.317 0.832,-0.832 2.133,-0.906 3.051,-0.226 l 0.262,0.226 6.937,6.934 V 27.344 C 35.156,26.051 36.207,25 37.5,25 Z m 0,-18.75 c 12.082,0 21.875,9.793 21.875,21.875 0,10.191 -6.969,18.754 -16.402,21.184 v -4.887 c 6.808,-2.285 11.715,-8.719 11.715,-16.297 0,-9.492 -7.696,-17.187 -17.188,-17.187 -9.492,0 -17.188,7.695 -17.188,17.187 0,7.582 4.907,14.016 11.719,16.301 v 4.886 C 22.598,46.883 15.625,38.316 15.625,28.125 15.625,16.043 25.418,6.25 37.5,6.25 Z m 0,7.812 c 7.766,0 14.062,6.297 14.062,14.063 0,5.824 -3.542,10.824 -8.589,12.957 l -0.004,-5.34 c 2.367,-1.703 3.906,-4.48 3.906,-7.617 0,-5.176 -4.195,-9.375 -9.375,-9.375 -5.18,0 -9.375,4.199 -9.375,9.375 0,3.137 1.543,5.914 3.91,7.617 l -0.004,5.344 c -5.051,-2.137 -8.593,-7.133 -8.593,-12.961 0,-7.766 6.296,-14.063 14.062,-14.063 z" style="fill:currentColor;fill-opacity:1;fill-rule:nonzero;stroke:none" transform="scale(1.3333333)" /> </g>
</svg>

