<?xml version="1.0" encoding="UTF-8" standalone="no"?> <svg version="1.1" id="I6557d880c46e4b42b87eee5b2b57f38f20251106151526" width="100" height="100" viewBox="0 0 100 100" xmlns="http://www.w3.org/2000/svg" xmlns:svg="http://www.w3.org/2000/svg"> <defs id="I5517d1bd5c22474faadf180ea3229b9420251106151526" /> <g id="I43382bad5f294c4f8bdece7e69eb666620251106151526"> <path id="Iafbc4a8b4382486bbf4120cd6bb8dc1220251106151526" d="m 37.5,8.035 c -9.461,0 -17.285,7.008 -18.566,16.117 -7.598,0.59 -13.579,6.938 -13.579,14.688 0,8.137 6.598,14.73 14.735,14.73 h 12.098 c -0.032,-0.441 -0.043,-0.886 -0.043,-1.34 0,-11.093 8.992,-20.085 20.085,-20.085 7.247,0 13.594,3.832 17.129,9.582 0.188,-0.934 0.286,-1.899 0.286,-2.887 0,-7.75 -5.981,-14.098 -13.579,-14.688 C 54.785,15.043 46.961,8.035 37.5,8.035 Z M 69.645,52.23 c 0,9.618 -7.797,17.415 -17.415,17.415 -9.613,0 -17.41,-7.797 -17.41,-17.415 0,-9.613 7.797,-17.41 17.41,-17.41 9.618,0 17.415,7.797 17.415,17.41 z m -18.75,10.715 c 0,0.743 0.597,1.34 1.335,1.34 0.743,0 1.34,-0.597 1.34,-1.34 V 44.75 l 5.75,5.75 c 0.524,0.523 1.371,0.523 1.895,0 0.523,-0.523 0.523,-1.371 0,-1.895 L 53.18,40.57 c -0.262,-0.258 -0.598,-0.39 -0.942,-0.39 h -0.015 c -0.176,0 -0.348,0.035 -0.504,0.101 -0.157,0.063 -0.305,0.16 -0.434,0.289 l -8.035,8.035 c -0.523,0.524 -0.523,1.372 0,1.895 0.523,0.523 1.371,0.523 1.895,0 l 5.75,-5.75 z" style="fill:currentColor;fill-opacity:1;fill-rule:nonzero;stroke:none" transform="scale(1.3333333)" /> </g>
</svg>

