<?xml version="1.0" encoding="UTF-8" standalone="no"?> <svg version="1.1" id="I2b0accf3b437477caee44d2998c898c620251106142135" width="100" height="100" viewBox="0 0 100 100" xmlns="http://www.w3.org/2000/svg" xmlns:svg="http://www.w3.org/2000/svg"> <defs id="Ic14ef0d1149e4fe7855f600de6fa6c2a20251106142135" /> <g id="I944a6396844147f1a4c53a78d8305be320251106142135"> <path id="I04342af2c774489888b6e931467d1d9520251106142135" d="M 12.5,14.062 C 12.5,9.746 15.996,6.25 20.312,6.25 H 56.25 c 4.316,0 7.812,3.496 7.812,7.812 v 44.532 c 0,1.293 -1.05,2.344 -2.343,2.344 H 17.188 c 0,1.726 1.398,3.124 3.124,3.124 h 41.407 c 1.293,0 2.343,1.051 2.343,2.344 0,1.293 -1.05,2.344 -2.343,2.344 H 20.312 c -4.316,0 -7.812,-3.496 -7.812,-7.812 z m 24.035,9.243 c -0.359,-0.84 -1.172,-1.399 -2.086,-1.43 -0.914,-0.027 -1.761,0.477 -2.172,1.297 l -4.82,9.64 h -3.238 c -1.293,0 -2.344,1.051 -2.344,2.344 0,1.293 1.051,2.344 2.344,2.344 h 4.687 c 0.887,0 1.699,-0.5 2.098,-1.297 l 3.195,-6.387 6.61,15.629 c 0.347,0.817 1.125,1.367 2.011,1.426 0.883,0.055 1.727,-0.391 2.172,-1.16 L 49.785,37.5 h 2.559 c 1.293,0 2.344,-1.051 2.344,-2.344 0,-1.293 -1.051,-2.344 -2.344,-2.344 h -3.906 c -0.833,0 -1.606,0.442 -2.024,1.165 l -3.109,5.328 z" style="fill:currentColor;fill-opacity:1;fill-rule:nonzero;stroke:none" transform="scale(1.3333333)" /> </g>
</svg>

