<?xml version="1.0" encoding="UTF-8" standalone="no"?> <svg version="1.1" id="I46b93d9dc3b047479ff76cca5948fcbd20251106154012" width="100" height="100" viewBox="0 0 100 100" xmlns="http://www.w3.org/2000/svg" xmlns:svg="http://www.w3.org/2000/svg"> <defs id="Ife65aa60a5c34fda87041a4de39ace8420251106154012" /> <g id="I917f03cea8f44035be70ed060d6e310720251106154012"> <path id="Ibdd632e8c9dd49258cbf36d2337b1dda20251106154012" d="m 11.719,16.406 c 0,-6.472 11.543,-11.718 25.781,-11.718 14.238,0 25.781,5.246 25.781,11.718 0,6.473 -11.543,11.719 -25.781,11.719 -14.238,0 -25.781,-5.246 -25.781,-11.719 z m 0,14.656 v -5.57 c 1.703,1.442 3.683,2.59 5.613,3.469 1.313,0.598 2.73,1.133 4.234,1.601 -0.921,-0.062 -1.863,-0.093 -2.816,-0.093 -2.434,0 -4.809,0.203 -7.031,0.593 z m 45.949,-2.101 c -5.402,2.457 -12.535,3.851 -20.168,3.851 -2.172,0 -4.305,-0.113 -6.371,-0.332 0.973,0.36 1.894,0.774 2.75,1.239 2.5,1.359 5.68,3.914 5.945,7.922 l 0.02,-0.016 v 24 c 0,1.84 -0.637,3.41 -1.516,4.684 13.856,-0.2 24.953,-5.368 24.953,-11.715 V 25.492 c -1.703,1.442 -3.683,2.59 -5.613,3.469 z M 2.344,65.625 c 0,1.281 0.801,2.48 2.195,3.516 2.836,2.101 8.137,3.515 14.211,3.515 9.062,0 16.406,-3.148 16.406,-7.031 V 48.453 c -1.023,0.774 -2.195,1.414 -3.422,1.938 l -0.093,0.039 c -1.407,0.597 -2.985,1.086 -4.688,1.457 -2.519,0.554 -5.308,0.847 -8.203,0.847 -4.891,0 -9.484,-0.843 -12.984,-2.343 C 4.539,49.867 3.367,49.227 2.344,48.453 Z M 26.953,48.277 c 1.809,-0.449 3.399,-1.039 4.688,-1.738 2.203,-1.199 3.515,-2.711 3.515,-4.351 0,-1.641 -1.312,-3.153 -3.515,-4.352 -1.289,-0.699 -2.879,-1.289 -4.688,-1.738 -2.414,-0.598 -5.215,-0.942 -8.203,-0.942 -9.062,0 -16.406,3.149 -16.406,7.032 0,3.882 7.344,7.031 16.406,7.031 2.988,0 5.789,-0.344 8.203,-0.942 z" style="fill:currentColor;fill-opacity:1;fill-rule:nonzero;stroke:none" transform="scale(1.3333333)" /> </g>
</svg>

