<?xml version="1.0" encoding="UTF-8" standalone="no"?> <svg version="1.1" id="Ic439a3b2fad84243b79e2381b3d6252320251106170955" width="100" height="100" viewBox="0 0 100 100" xmlns="http://www.w3.org/2000/svg" xmlns:svg="http://www.w3.org/2000/svg"> <defs id="I8d2ad3fb4f334db9a001237c43d33f8f20251106170955" /> <g id="Idbb86a0d640e408593041cb4cfb2dd7820251106170955"> <path id="I7a583f1fb21c4814ba35f11580f2f68820251106170955" d="m 39.242,26.383 c -0.762,-0.766 -0.762,-2 0,-2.766 0.766,-0.762 2,-0.762 2.766,0 l 7.812,7.813 c 0.762,0.765 0.762,2 0,2.765 l -7.812,7.813 c -0.766,0.762 -2,0.762 -2.766,0 -0.762,-0.766 -0.762,-2 0,-2.766 l 4.481,-4.476 H 26.562 c -1.078,0 -1.953,-0.875 -1.953,-1.954 0,-1.078 0.875,-1.953 1.953,-1.953 H 43.723 Z M 57.812,50 42.051,66.734 c -2.469,2.618 -6.633,2.618 -9.102,0 L 17.188,50 h 0.058 L 17.219,49.969 17.188,49.93 C 16.18,48.738 15.277,47.453 14.492,46.094 12.23,42.188 10.938,37.652 10.938,32.812 10.938,18.141 22.828,6.25 37.5,6.25 c 14.672,0 26.562,11.891 26.562,26.562 0,4.84 -1.292,9.376 -3.554,13.282 -0.785,1.359 -1.688,2.644 -2.696,3.836 L 57.781,49.969 57.754,50 Z m -3.035,-2.527 c 3.356,-3.953 5.379,-9.067 5.379,-14.661 0,-12.511 -10.144,-22.656 -22.656,-22.656 -12.512,0 -22.656,10.145 -22.656,22.656 0,5.594 2.023,10.708 5.379,14.661 l 0.48,0.566 15.09,16.016 c 0.926,0.98 2.488,0.98 3.414,0 l 15.09,-16.016 z" style="fill:currentColor;fill-opacity:1;fill-rule:nonzero;stroke:none" transform="scale(1.3333333)" /> </g>
</svg>

