<?xml version="1.0" encoding="UTF-8" standalone="no"?> <svg version="1.1" id="I3ab667b0a74145eaadf024f2716863a020251110130509" width="100" height="100" viewBox="0 0 100 100" xmlns="http://www.w3.org/2000/svg" xmlns:svg="http://www.w3.org/2000/svg"> <defs id="Ib60e78998d794f69a1261e69621c5c5720251110130509" /> <g id="I95e3c0cc838b4240af78e1b2acc89e5e20251110130509"> <path id="I56fe9af125a5414aa0acf4fb23acd05e20251110130509" d="m 54.688,37.5 c 9.492,0 17.187,7.695 17.187,17.188 0,9.492 -7.695,17.187 -17.187,17.187 C 45.195,71.875 37.5,64.18 37.5,54.688 37.5,45.195 45.195,37.5 54.688,37.5 Z M 55.469,9.375 c 5.609,0 10.156,4.547 10.156,10.156 v 18.047 c -1.449,-0.93 -3.02,-1.68 -4.687,-2.219 V 31.25 h -12.5 v 4.109 c -1.668,0.539 -3.239,1.289 -4.688,2.219 V 31.25 h -12.5 v 12.5 h 6.328 c -0.93,1.449 -1.68,3.02 -2.219,4.688 H 31.25 v 12.5 h 4.109 c 0.539,1.667 1.289,3.238 2.219,4.687 H 19.531 C 13.922,65.625 9.375,61.078 9.375,55.469 V 19.531 c 0,-5.609 4.547,-10.156 10.156,-10.156 z m 6.574,37.957 c -0.609,-0.609 -1.602,-0.609 -2.211,0 l -5.144,5.145 -5.145,-5.145 c -0.609,-0.609 -1.602,-0.609 -2.211,0 -0.609,0.609 -0.609,1.602 0,2.211 l 5.145,5.145 -5.145,5.144 c -0.609,0.609 -0.609,1.602 0,2.211 0.609,0.609 1.602,0.609 2.211,0 l 5.145,-5.145 5.144,5.145 c 0.609,0.609 1.602,0.609 2.211,0 0.609,-0.609 0.609,-1.602 0,-2.211 l -5.145,-5.144 5.145,-5.145 c 0.609,-0.609 0.609,-1.602 0,-2.211 z M 19.531,14.062 c -3.019,0 -5.469,2.45 -5.469,5.469 v 35.938 c 0,3.019 2.45,5.469 5.469,5.469 h 7.031 V 28.906 c 0,-1.293 1.051,-2.344 2.344,-2.344 h 32.032 v -7.031 c 0,-3.019 -2.45,-5.469 -5.469,-5.469 z" style="fill:currentColor;fill-opacity:1;fill-rule:nonzero;stroke:none" transform="scale(1.3333333)" /> </g>
</svg>

