<?xml version="1.0" encoding="UTF-8" standalone="no"?> <svg version="1.1" id="Iccc982d0a7794f9d90aa203d71d1d88020251110130510" width="100" height="100" viewBox="0 0 100 100" xmlns="http://www.w3.org/2000/svg" xmlns:svg="http://www.w3.org/2000/svg"> <defs id="I9078cc9e6902460dbb7fe9ca7efd1ad820251110130510" /> <g id="If91d76d29f404510bab1e2cb5fb2e85020251110130510"> <path id="I28601d7471cf4c3baa484e566dddb82820251110130510" d="m 17.969,9.375 c -4.746,0 -8.594,3.848 -8.594,8.594 v 39.062 c 0,4.746 3.848,8.594 8.594,8.594 h 39.062 c 4.746,0 8.594,-3.848 8.594,-8.594 V 17.969 c 0,-4.746 -3.848,-8.594 -8.594,-8.594 z m 4.687,18.75 h 29.688 c 1.293,0 2.344,1.051 2.344,2.344 0,1.293 -1.051,2.343 -2.344,2.343 H 22.656 c -1.293,0 -2.344,-1.05 -2.344,-2.343 0,-1.293 1.051,-2.344 2.344,-2.344 z m 0,12.5 h 29.688 c 1.293,0 2.344,1.051 2.344,2.344 0,1.293 -1.051,2.343 -2.344,2.343 H 22.656 c -1.293,0 -2.344,-1.05 -2.344,-2.343 0,-1.293 1.051,-2.344 2.344,-2.344 z" style="fill:currentColor;fill-opacity:1;fill-rule:nonzero;stroke:none" transform="scale(1.3333333)" /> </g>
</svg>

