<?xml version="1.0" encoding="UTF-8" standalone="no"?> <svg version="1.1" id="If28cdcaf61824d878c5ea226b6e3a2ae20251106154012" width="100" height="100" viewBox="0 0 100 100" xmlns="http://www.w3.org/2000/svg" xmlns:svg="http://www.w3.org/2000/svg"> <defs id="I9dbf5bf623b14fcda267b7b5e18326ab20251106154012" /> <g id="Ic25b2d7157e043b29fbfd7998b3b1fae20251106154012"> <path id="Ie0a62f16b3214f878f3866b07b0cec4c20251106154012" d="m 11.719,9.375 c 0,-1.293 -1.051,-2.344 -2.344,-2.344 -1.293,0 -2.344,1.051 -2.344,2.344 v 48.047 c 0,5.824 4.723,10.547 10.547,10.547 h 48.047 c 1.293,0 2.344,-1.051 2.344,-2.344 0,-1.293 -1.051,-2.344 -2.344,-2.344 H 17.578 c -3.234,0 -5.859,-2.625 -5.859,-5.859 z m 16.406,9.375 c -5.176,0 -9.375,4.199 -9.375,9.375 0,5.176 4.199,9.375 9.375,9.375 5.176,0 9.375,-4.199 9.375,-9.375 0,-5.176 -4.199,-9.375 -9.375,-9.375 z m -4.687,9.375 c 0,-2.59 2.097,-4.687 4.687,-4.687 2.59,0 4.687,2.097 4.687,4.687 0,2.59 -2.097,4.687 -4.687,4.687 -2.59,0 -4.687,-2.097 -4.687,-4.687 z m 21.093,-7.031 c 0,-5.176 4.199,-9.375 9.375,-9.375 5.176,0 9.375,4.199 9.375,9.375 0,5.176 -4.199,9.375 -9.375,9.375 -5.176,0 -9.375,-4.199 -9.375,-9.375 z m 9.375,-4.688 c -2.59,0 -4.687,2.098 -4.687,4.688 0,2.59 2.097,4.687 4.687,4.687 2.59,0 4.688,-2.097 4.688,-4.687 0,-2.59 -2.098,-4.688 -4.688,-4.688 z M 46.875,37.5 c -5.176,0 -9.375,4.199 -9.375,9.375 0,5.176 4.199,9.375 9.375,9.375 5.176,0 9.375,-4.199 9.375,-9.375 0,-5.176 -4.199,-9.375 -9.375,-9.375 z m -4.687,9.375 c 0,-2.59 2.097,-4.687 4.687,-4.687 2.59,0 4.687,2.097 4.687,4.687 0,2.59 -2.097,4.687 -4.687,4.687 -2.59,0 -4.687,-2.097 -4.687,-4.687 z" style="fill:currentColor;fill-opacity:1;fill-rule:nonzero;stroke:none" transform="scale(1.3333333)" /> </g>
</svg>

