<?xml version="1.0" encoding="UTF-8" standalone="no"?> <svg version="1.1" id="I477892ba2edf4f6ab2b68559d866331b20251110123030" width="100" height="100" viewBox="0 0 100 100" xmlns="http://www.w3.org/2000/svg" xmlns:svg="http://www.w3.org/2000/svg"> <defs id="I375567c810d64ef290d7a61b814ecb1720251110123030" /> <g id="I1aba6b77ba2a488e8b09d24b2ed26c2620251110123030"> <path id="I50e1c53574d5491d921016627897bae720251110123030" d="M 37.5,6.25 C 20.242,6.25 6.25,20.242 6.25,37.5 6.25,54.758 20.242,68.75 37.5,68.75 54.758,68.75 68.75,54.758 68.75,37.5 68.75,20.242 54.758,6.25 37.5,6.25 Z m -4.688,19.531 v 23.438 c 0,1.293 -1.05,2.343 -2.343,2.343 -1.293,0 -2.344,-1.05 -2.344,-2.343 V 25.781 c 0,-1.293 1.051,-2.343 2.344,-2.343 1.293,0 2.343,1.05 2.343,2.343 z m 14.063,0 v 23.438 c 0,1.293 -1.051,2.343 -2.344,2.343 -1.293,0 -2.343,-1.05 -2.343,-2.343 V 25.781 c 0,-1.293 1.05,-2.343 2.343,-2.343 1.293,0 2.344,1.05 2.344,2.343 z" style="fill:currentColor;fill-opacity:1;fill-rule:nonzero;stroke:none" transform="scale(1.3333333)" /> </g>
</svg>

