<?xml version="1.0" encoding="UTF-8" standalone="no"?> <svg version="1.1" id="If30c3c86088a427c926a710883c5d41020251106102215" width="100" height="100" viewBox="0 0 100 100" xmlns="http://www.w3.org/2000/svg" xmlns:svg="http://www.w3.org/2000/svg"> <defs id="I8786add546674044bbe67b4d51258c8220251106102215" /> <g id="Ic08caac674d0411e93dd66bb71a9bd5620251106102215"> <path id="I0863993110014178b2e654d6995157cd20251106102215" d="m 40.941,37.258 -6.511,8.304 -3.442,-4.386 c -0.269,-0.344 -0.789,-0.344 -1.054,0 L 21.578,51.82 c -0.344,0.442 -0.027,1.082 0.527,1.082 h 30.797 c 0.559,0 0.871,-0.644 0.528,-1.082 L 42.004,37.258 c -0.274,-0.344 -0.793,-0.344 -1.063,0 z M 24.777,31.641 c 0,4.464 6.696,4.464 6.696,0 0,-4.465 -6.696,-4.465 -6.696,0 z M 66.176,18.801 48.164,0.785 C 47.66,0.285 46.984,0 46.273,0 H 10.715 C 9.234,0 8.035,1.195 8.035,2.68 v 69.64 c 0,1.485 1.199,2.68 2.68,2.68 h 53.57 c 1.481,0 2.68,-1.195 2.68,-2.68 V 20.699 c 0,-0.711 -0.285,-1.398 -0.789,-1.898 z M 60.785,21.93 H 45.035 V 6.176 Z m 0.153,47.043 H 14.062 V 6.027 H 39.34 v 18.078 c 0,1.942 1.574,3.516 3.515,3.516 h 18.083 z" style="fill:currentColor;fill-opacity:1;fill-rule:nonzero;stroke:none" transform="scale(1.3333333)" /> </g>
</svg>

