<?xml version="1.0" encoding="UTF-8" standalone="no"?> <svg version="1.1" id="I7807fe0896d84f94b7c6b4250b88df9f20251106143238" width="100" height="100" viewBox="0 0 100 100" xmlns="http://www.w3.org/2000/svg" xmlns:svg="http://www.w3.org/2000/svg"> <defs id="Ib6306e18154f47f2b257042cdd58323a20251106143238" /> <g id="Ibf29081ce77d46fb8c8ae993b32f69dd20251106143238"> <path id="Id3c5f4f53b394fc6ab3307f9cfec6fe820251106143238" d="m 58.258,8.035 c 4.808,0 8.707,3.899 8.707,8.707 v 41.516 c 0,4.808 -3.899,8.707 -8.707,8.707 H 16.742 c -4.808,0 -8.707,-3.899 -8.707,-8.707 V 16.742 c 0,-4.808 3.899,-8.707 8.707,-8.707 z m 4.687,17.418 h -50.89 v 32.805 c 0,2.59 2.097,4.687 4.687,4.687 h 41.516 c 2.59,0 4.687,-2.097 4.687,-4.687 z M 23.434,46.879 c 1.851,0 3.347,1.5 3.347,3.348 0,1.851 -1.496,3.347 -3.347,3.347 -1.848,0 -3.348,-1.496 -3.348,-3.347 0,-1.848 1.5,-3.348 3.348,-3.348 z m 14.074,0 c 1.851,0 3.347,1.5 3.347,3.348 0,1.851 -1.496,3.347 -3.347,3.347 -1.848,0 -3.348,-1.496 -3.348,-3.347 0,-1.848 1.5,-3.348 3.348,-3.348 z M 23.434,33.484 c 1.851,0 3.347,1.5 3.347,3.352 0,1.848 -1.496,3.348 -3.347,3.348 -1.848,0 -3.348,-1.5 -3.348,-3.348 0,-1.852 1.5,-3.352 3.348,-3.352 z m 14.074,0 c 1.851,0 3.347,1.5 3.347,3.352 0,1.848 -1.496,3.348 -3.347,3.348 -1.848,0 -3.348,-1.5 -3.348,-3.348 0,-1.852 1.5,-3.352 3.348,-3.352 z m 14.074,0 c 1.852,0 3.348,1.5 3.348,3.352 0,1.848 -1.496,3.348 -3.348,3.348 -1.848,0 -3.348,-1.5 -3.348,-3.348 0,-1.852 1.5,-3.352 3.348,-3.352 z M 58.258,12.055 H 16.742 c -2.59,0 -4.687,2.097 -4.687,4.687 v 4.696 h 50.89 v -4.696 c 0,-2.59 -2.097,-4.687 -4.687,-4.687 z" style="fill:currentColor;fill-opacity:1;fill-rule:nonzero;stroke:none" transform="scale(1.3333333)" /> </g>
</svg>

