<?xml version="1.0" encoding="UTF-8" standalone="no"?> <svg version="1.1" id="I0b26f293102c4c8f9806b87a2ee1c41120251110133655" width="100" height="100" viewBox="0 0 100 100" xmlns="http://www.w3.org/2000/svg" xmlns:svg="http://www.w3.org/2000/svg"> <defs id="I1f430a2c913248fdb43165af3ee414fa20251110133655" /> <g id="Ia9352ce119484e689c593797e0fc074220251110133655"> <path id="Ibea5b113e98c4f9b8f1f88a58021035620251110133655" d="m 61.344,22.77 h -5.246 l 2.769,-3.305 c 0.238,-0.281 0.203,-0.703 -0.082,-0.942 l -6.851,-5.75 -8.387,9.997 h -5.246 l 10.554,-12.579 -2.382,-2 C 46.191,7.953 45.77,7.992 45.531,8.273 L 33.371,22.77 H 28.125 L 42.453,5.691 c 1.664,-1.98 4.621,-2.242 6.606,-0.578 l 12.308,10.332 c 1.985,1.664 2.242,4.621 0.578,6.606 z M 14.73,16.07 h 15.512 l -3.375,4.02 H 14.73 c -1.476,0 -2.675,1.199 -2.675,2.68 0,1.476 1.199,2.675 2.675,2.675 h 42.188 c 5.551,0 10.047,4.5 10.047,10.047 v 21.426 c 0,5.551 -4.496,10.047 -10.047,10.047 H 18.082 C 12.531,66.965 8.035,62.469 8.035,56.918 V 22.77 c 0,-3.7 3,-6.7 6.695,-6.7 z m 33.485,30.137 c 0,1.109 0.898,2.008 2.008,2.008 h 6.695 c 1.109,0 2.012,-0.899 2.012,-2.008 0,-1.109 -0.903,-2.012 -2.012,-2.012 h -6.695 c -1.11,0 -2.008,0.903 -2.008,2.012 z" style="fill:currentColor;fill-opacity:1;fill-rule:nonzero;stroke:none" transform="scale(1.3333333)" /> </g>
</svg>

