<?xml version="1.0" encoding="UTF-8" standalone="no"?> <svg version="1.1" id="Ie6e69929905d4bba9b45bad5070e5e7f20251110124420" width="100" height="100" viewBox="0 0 100 100" xmlns="http://www.w3.org/2000/svg" xmlns:svg="http://www.w3.org/2000/svg"> <defs id="Ia9b6522966ff4a4b9a84b6eff4a7dfc020251110124420" /> <g id="I5474b00765c04a8585e82c23f63007ff20251110124420"> <path id="I78a3a723c0e14c768315283c109c32b720251110124420" d="m 7.02,9.863 c -1.051,1.586 -1.665,3.492 -1.665,5.539 v 8.036 c 0,1.109 0.903,2.007 2.012,2.007 1.11,0 2.008,-0.898 2.008,-2.007 v -8.036 c 0,-0.929 0.211,-1.812 0.586,-2.597 l 19.32,19.32 c -0.07,0.082 -0.136,0.16 -0.199,0.23 -0.402,0.45 -0.715,0.731 -0.894,0.883 -0.055,0.047 -0.098,0.082 -0.129,0.102 l -4.981,2.91 c -3.101,1.812 -4.457,5.59 -3.18,8.953 l 1.407,3.711 c 0.808,2.125 2.554,3.758 4.73,4.434 l 14.5,4.511 c 4.067,1.262 8.375,-0.558 10.336,-4.144 l 11.324,11.324 c -0.785,0.375 -1.668,0.586 -2.597,0.586 h -8.036 c -1.109,0 -2.007,0.898 -2.007,2.008 0,1.109 0.898,2.012 2.007,2.012 h 8.036 c 2.047,0 3.953,-0.614 5.539,-1.665 l 1.074,1.075 c 0.785,0.785 2.059,0.785 2.844,0 0.785,-0.785 0.785,-2.055 0,-2.84 L 8.785,5.945 C 8.004,5.16 6.73,5.16 5.945,5.945 5.16,6.73 5.16,8.004 5.945,8.785 Z m 40.777,40.774 -0.067,0.226 c -0.746,2.508 -3.441,3.953 -6,3.16 L 27.227,49.512 c -1.004,-0.313 -1.801,-1.063 -2.165,-2.024 l -1.41,-3.711 c -0.57,-1.511 0.028,-3.226 1.453,-4.058 l 4.985,-2.91 c 0.062,-0.032 0.121,-0.067 0.18,-0.106 l 0.003,-0.004 0.024,-0.015 0.031,-0.024 0.043,-0.031 0.02,-0.012 c 0.089,-0.066 0.218,-0.168 0.382,-0.301 0.321,-0.273 0.77,-0.687 1.301,-1.281 0.02,-0.019 0.039,-0.043 0.055,-0.062 z M 13.98,5.457 17.898,9.375 h 5.54 c 1.109,0 2.007,-0.898 2.007,-2.008 0,-1.109 -0.898,-2.012 -2.007,-2.012 h -8.036 c -0.484,0 -0.957,0.036 -1.422,0.102 z m 19.473,19.473 2.996,2.996 c 0.309,-0.633 0.594,-1.192 0.863,-1.723 l 0.008,-0.019 c 0.684,-1.344 1.289,-2.536 1.973,-4.223 0.148,-0.359 0.441,-0.75 0.793,-0.984 0.309,-0.204 0.617,-0.274 0.996,-0.168 1.023,0.281 1.594,0.832 1.941,1.582 0.372,0.789 0.504,1.836 0.528,3.109 0.023,1.176 -0.231,2.699 -0.574,4.156 -0.157,0.664 -0.332,1.305 -0.5,1.883 -0.18,0.606 -0.063,1.262 0.32,1.77 0.379,0.507 0.973,0.804 1.605,0.804 h 3.75 c 2.301,0 3.899,2.172 3.27,4.293 l -1.027,3.465 3.234,3.234 1.644,-5.558 c 1.411,-4.746 -2.191,-9.453 -7.121,-9.453 h -1.156 c 0.324,-1.453 0.602,-3.153 0.574,-4.672 -0.027,-1.395 -0.164,-3.145 -0.902,-4.727 -0.84,-1.804 -2.344,-3.164 -4.52,-3.761 -3.425,-0.942 -5.812,1.632 -6.578,3.519 -0.617,1.52 -1.156,2.582 -1.84,3.93 z m 32.172,32.172 3.918,3.918 c 0.066,-0.465 0.102,-0.938 0.102,-1.422 v -8.036 c 0,-1.109 -0.903,-2.007 -2.012,-2.007 -1.11,0 -2.008,0.898 -2.008,2.007 z m -50.223,8.523 c -3.328,0 -6.027,-2.699 -6.027,-6.027 v -8.036 c 0,-1.109 -0.898,-2.007 -2.008,-2.007 -1.109,0 -2.012,0.898 -2.012,2.007 v 8.036 c 0,5.547 4.5,10.047 10.047,10.047 h 8.036 c 1.109,0 2.007,-0.903 2.007,-2.012 0,-1.11 -0.898,-2.008 -2.007,-2.008 z M 65.625,15.402 c 0,-3.328 -2.699,-6.027 -6.027,-6.027 h -8.036 c -1.109,0 -2.007,-0.898 -2.007,-2.008 0,-1.109 0.898,-2.012 2.007,-2.012 h 8.036 c 5.547,0 10.047,4.5 10.047,10.047 v 8.036 c 0,1.109 -0.903,2.007 -2.012,2.007 -1.11,0 -2.008,-0.898 -2.008,-2.007 z" style="fill:currentColor;fill-opacity:1;fill-rule:nonzero;stroke:none" transform="scale(1.3333333)" /> </g>
</svg>

