<?xml version="1.0" encoding="UTF-8" standalone="no"?> <svg version="1.1" id="I0cbdb45bf20a4c25908abe060599e75520251106155157" width="100" height="100" viewBox="0 0 100 100" xmlns="http://www.w3.org/2000/svg" xmlns:svg="http://www.w3.org/2000/svg"> <defs id="I3a455860d60f4260affe1d76662abd8220251106155157" /> <g id="I478d65893c344fa981813970332a767d20251106155157"> <path id="I50a6467c5fba4e73a3fcba8bb645c44d20251106155157" d="M 22.5,7.5 C 18.359,7.5 15,10.859 15,15 v 45 c 0,4.141 3.359,7.5 7.5,7.5 H 33.75 V 63.75 H 22.5 c -2.07,0 -3.75,-1.68 -3.75,-3.75 V 15 c 0,-2.07 1.68,-3.75 3.75,-3.75 h 15 V 24.375 C 37.5,27.48 40.02,30 43.125,30 H 56.25 v 4.254 c 1.184,-0.305 2.406,-0.469 3.652,-0.504 H 60 v -5.945 c 0,-1.493 -0.594,-2.926 -1.648,-3.981 L 43.676,9.148 C 42.617,8.094 41.188,7.5 39.695,7.5 Z M 55.473,26.25 H 43.125 c -1.035,0 -1.875,-0.84 -1.875,-1.875 V 12.027 Z M 38.055,70.695 c 0.375,0.367 0.812,0.555 1.32,0.555 h 7.5 c 0.43,-0.02 0.77,-0.105 1.023,-0.262 0.254,-0.16 0.442,-0.375 0.559,-0.648 0.117,-0.27 0.195,-0.563 0.234,-0.879 0.039,-0.313 0.059,-0.633 0.059,-0.965 V 67.5 c 0.898,-0.02 1.602,-0.047 2.109,-0.086 0.508,-0.043 0.891,-0.187 1.145,-0.441 0.254,-0.254 0.398,-0.625 0.437,-1.114 0.039,-0.488 0.059,-1.191 0.059,-2.109 1.875,0 2.379,0.078 2.871,-0.262 0.254,-0.179 0.449,-0.394 0.586,-0.648 0.137,-0.254 0.227,-0.543 0.266,-0.879 0.097,-0.856 0.027,-1.742 0.027,-2.606 0.645,0.235 1.301,0.403 1.961,0.497 0.664,0.101 1.34,0.148 2.023,0.148 1.563,-0.02 3,-0.32 4.305,-0.91 1.313,-0.582 2.473,-1.406 3.488,-2.457 1.016,-1.059 1.809,-2.258 2.371,-3.606 0.571,-1.347 0.852,-2.773 0.852,-4.277 0,-1.562 -0.293,-3.027 -0.879,-4.395 C 69.785,42.988 68.984,41.797 67.969,40.781 66.953,39.766 65.762,38.965 64.395,38.379 63.027,37.793 61.562,37.5 60,37.5 c -1.523,0.039 -2.961,0.332 -4.305,0.879 -1.347,0.547 -2.539,1.328 -3.578,2.344 -1.031,1.015 -1.855,2.187 -2.457,3.515 -0.609,1.328 -0.91,2.754 -0.91,4.278 0,0.918 0.105,1.882 0.32,2.898 L 38.055,62.43 C 37.688,62.805 37.5,63.242 37.5,63.75 v 5.625 c 0,0.508 0.188,0.945 0.555,1.32 z m 27.57,-24.757 c 0,1.546 -1.266,2.812 -2.813,2.812 -1.546,0 -2.812,-1.266 -2.812,-2.812 0,-1.547 1.266,-2.813 2.812,-2.813 1.547,0 2.813,1.266 2.813,2.813 z" style="fill:currentColor;fill-opacity:1;fill-rule:nonzero;stroke:none" transform="scale(1.3333333)" /> </g>
</svg>

