<?xml version="1.0" encoding="UTF-8" standalone="no"?> <svg version="1.1" id="I2c17ab7177f145ffa00c2fc5ab0b35cf20251106123559" width="100" height="100" viewBox="0 0 100 100" xmlns="http://www.w3.org/2000/svg" xmlns:svg="http://www.w3.org/2000/svg"> <defs id="I7a257b9fdc8c4e1c929a4e044347e59520251106123559" /> <g id="I581eac8c53e542fa854507c0bea8208620251106123559"> <path id="I9b60c8311a6b40788be30017b14d629520251106123559" d="m 29.559,10.457 c -0.332,-2.711 1.785,-5.102 4.511,-5.102 2.789,0 5.321,1.641 6.461,4.184 l 9.094,20.25 c 3.988,-0.109 7.992,-0.324 11.98,-0.324 4.442,0 8.04,3.597 8.04,8.035 0,4.438 -3.598,8.035 -8.04,8.035 -3.988,0 -7.992,-0.215 -11.98,-0.324 l -9.094,20.25 c -1.14,2.543 -3.672,4.184 -6.461,4.184 -2.726,0 -4.843,-2.391 -4.511,-5.102 l 2.425,-19.809 -7.574,-0.203 -3.156,5.531 c -1.242,2.168 -3.551,3.508 -6.051,3.508 -2.48,0 -4.488,-2.008 -4.488,-4.488 v -5.02 C 7.656,43.441 5.355,40.738 5.355,37.5 c 0,-3.238 2.301,-5.941 5.36,-6.562 v -5.02 c 0,-2.48 2.008,-4.488 4.488,-4.488 2.5,0 4.809,1.34 6.051,3.508 l 3.156,5.531 7.574,-0.203 z M 34.07,9.375 c -0.316,0 -0.562,0.277 -0.523,0.594 l 2.965,24.191 -14.395,0.391 -4.351,-7.617 c -0.528,-0.922 -1.504,-1.489 -2.563,-1.489 -0.262,0 -0.473,0.211 -0.473,0.473 v 8.832 l -2.648,0.07 h -0.027 c -1.481,0 -2.68,1.2 -2.68,2.68 0,1.48 1.199,2.68 2.68,2.68 h 0.027 l 2.648,0.07 v 8.832 c 0,0.262 0.211,0.473 0.473,0.473 1.059,0 2.035,-0.571 2.563,-1.489 l 4.351,-7.617 14.395,0.391 -2.965,24.191 c -0.039,0.317 0.207,0.594 0.523,0.594 1.207,0 2.305,-0.707 2.797,-1.809 l 10.188,-22.691 14.328,0.387 c 0.074,0.004 0.148,0.008 0.222,0.008 2.219,0 4.02,-1.801 4.02,-4.02 0,-2.219 -1.801,-4.02 -4.02,-4.02 -0.074,0 -0.148,0.004 -0.222,0.008 L 47.055,33.875 36.867,11.184 C 36.375,10.082 35.277,9.375 34.07,9.375 Z" style="fill:currentColor;fill-opacity:1;fill-rule:nonzero;stroke:none" transform="scale(1.3333333)" /> </g>
</svg>

