<?xml version="1.0" encoding="UTF-8" standalone="no"?> <svg version="1.1" id="Ie27165d0d7fa4764922ad0730f3792eb20251110130509" width="100" height="100" viewBox="0 0 100 100" xmlns="http://www.w3.org/2000/svg" xmlns:svg="http://www.w3.org/2000/svg"> <defs id="Ia168011c657c481fbbddc8ac6429be3720251110130509" /> <g id="I18e4cf8af75b45eeb114ad130dd3202220251110130509"> <path id="Ie34f0b023d154b6895876407578cd9f820251110130509" d="m 19.531,9.375 c -5.609,0 -10.156,4.547 -10.156,10.156 v 35.938 c 0,5.609 4.547,10.156 10.156,10.156 h 18.035 c -0.925,-1.449 -1.671,-3.02 -2.211,-4.687 H 19.531 c -3.019,0 -5.469,-2.45 -5.469,-5.469 v -7.031 h 21.293 c 0.54,-1.668 1.286,-3.239 2.211,-4.688 H 31.25 v -12.5 h 29.688 v 4.105 c 1.667,0.54 3.238,1.286 4.687,2.211 V 19.531 c 0,-5.609 -4.547,-10.156 -10.156,-10.156 z m -5.469,10.156 c 0,-3.019 2.45,-5.469 5.469,-5.469 H 43.75 v 12.5 H 14.062 Z m 0,11.719 h 12.5 v 12.5 h -12.5 z m 46.876,-4.688 h -12.5 v -12.5 h 7.031 c 3.019,0 5.469,2.45 5.469,5.469 z m -6.25,45.313 c 9.492,0 17.187,-7.695 17.187,-17.187 C 71.875,45.195 64.18,37.5 54.688,37.5 45.195,37.5 37.5,45.195 37.5,54.688 c 0,9.492 7.695,17.187 17.188,17.187 z M 48.438,62.5 h 12.5 c 0.863,0 1.562,0.699 1.562,1.562 0,0.864 -0.699,1.563 -1.562,1.563 h -12.5 c -0.864,0 -1.563,-0.699 -1.563,-1.563 0,-0.863 0.699,-1.562 1.563,-1.562 z M 59.031,44.336 c 0.539,0.676 0.43,1.656 -0.242,2.195 l -6.289,5.031 6.289,5.032 c 0.672,0.539 0.781,1.519 0.242,2.195 -0.539,0.672 -1.519,0.781 -2.195,0.242 l -7.813,-6.25 c -0.371,-0.297 -0.585,-0.742 -0.585,-1.219 0,-0.476 0.214,-0.921 0.585,-1.218 l 7.813,-6.25 c 0.676,-0.539 1.656,-0.43 2.195,0.242 z" style="fill:currentColor;fill-opacity:1;fill-rule:nonzero;stroke:none" transform="scale(1.3333333)" /> </g>
</svg>

