<?xml version="1.0" encoding="UTF-8" standalone="no"?> <svg version="1.1" id="I8aad33921f91457399b0bfa6b846410c20251110123030" width="100" height="100" viewBox="0 0 100 100" xmlns="http://www.w3.org/2000/svg" xmlns:svg="http://www.w3.org/2000/svg"> <defs id="I6c4efd4bba894290b01841b48513df8a20251110123030"> <linearGradient x1="5.56706" y1="16.063499" x2="8.2905102" y2="24.2174" gradientUnits="userSpaceOnUse" gradientTransform="scale(2.678571)" spreadMethod="pad" id="I255ac9a7c21e4be2a836e9b65e0c2c8520251110123030"> <stop style="stop-opacity:1;stop-color:#bd96ff" offset="0" id="I2af4b4273d51468c8398997aa320a27d20251110123030" /> <stop style="stop-opacity:1;stop-color:#bd96ff" offset="0.125321" id="Ie23042fa94d74e1cb7fdf33dab3444c820251110123030" /> <stop style="stop-opacity:1;stop-color:#9c6cfe" offset="1" id="I80c508cc5af94f778cd5131fbeb0467920251110123030" /> </linearGradient> <linearGradient x1="9.5" y1="14.0476" x2="13.3251" y2="27.448" gradientUnits="userSpaceOnUse" gradientTransform="scale(2.678571)" spreadMethod="pad" id="If6618ae5997d45739fe18e12fc70650620251110123030"> <stop style="stop-opacity:0;stop-color:#885edb" offset="0" id="I9fcff56d469549769bf7aa5dccfacd6820251110123030" /> <stop style="stop-opacity:1;stop-color:#e362f8" offset="1" id="I3f95fb8aa07f4c57a06aeca32601067720251110123030" /> </linearGradient> <radialGradient fx="0" fy="0" cx="0" cy="0" r="1" gradientUnits="userSpaceOnUse" gradientTransform="matrix(8.035723,16.071412,-16.829631,8.414833,48.214286,54.910714)" spreadMethod="pad" id="Ie9e54fd929d14302b938dee674889bfd20251110123030"> <stop style="stop-opacity:0.50000763;stop-color:#30116e" offset="0" id="I543e28dbbd864d5881101bba5a20dad420251110123030" /> <stop style="stop-opacity:0.50000763;stop-color:#30116e" offset="0" id="I79b77c21eec44de999ecaa5120e1677f20251110123030" /> <stop style="stop-opacity:0.40581369;stop-color:#30116e" offset="0.268231" id="I7da881b5a9aa41da890ef2e08967805920251110123030" /> <stop style="stop-opacity:0;stop-color:#30116e" offset="1" id="I6966be5469704ab2a0ee5c04e64695c420251110123030" /> </radialGradient> <linearGradient x1="18.1646" y1="6.9305501" x2="21.7321" y2="12.627" gradientUnits="userSpaceOnUse" gradientTransform="scale(2.678571)" spreadMethod="pad" id="I4d67c553ca1e417f9c4d42ee02f47dc020251110123030"> <stop style="stop-opacity:1;stop-color:#9c6cfe" offset="0" id="I5acd4e8c3343405dbca74c590b2fd19720251110123030" /> <stop style="stop-opacity:1;stop-color:#9c6cfe" offset="0.125321" id="I3e93c1240d804429ba034a7d30a070e720251110123030" /> <stop style="stop-opacity:1;stop-color:#7a41dc" offset="1" id="I8427fa10848b4e1f9cb2f03d739ecdfd20251110123030" /> </linearGradient> <linearGradient x1="7.1402302" y1="5.1964202" x2="11.727" y2="12.5204" gradientUnits="userSpaceOnUse" gradientTransform="scale(2.678571)" spreadMethod="pad" id="Ib38267171db145de8b83a25dccb6b49a20251110123030"> <stop style="stop-opacity:1;stop-color:#bd96ff" offset="0" id="Icc9942bfd3ad44a7aa964a04c154329a20251110123030" /> <stop style="stop-opacity:1;stop-color:#bd96ff" offset="0.125321" id="I980467fdc96b4427bf89e16b967dca2f20251110123030" /> <stop style="stop-opacity:1;stop-color:#9c6cfe" offset="1" id="Idd2e677ad21f4fe79069f2ffada8093220251110123030" /> </linearGradient> <linearGradient x1="14.4643" y1="16.4375" x2="23.4359" y2="25.7586" gradientUnits="userSpaceOnUse" gradientTransform="scale(2.678571)" spreadMethod="pad" id="I41073ddda98243dca0af4020afaf216820251110123030"> <stop style="stop-opacity:1;stop-color:#52d17c" offset="0" id="I43a815a8762c40d2babf0c705bcdd0ac20251110123030" /> <stop style="stop-opacity:1;stop-color:#22918b" offset="1" id="I27902da6731448598f47ba3628f48abb20251110123030" /> </linearGradient> </defs> <g id="Iaacc7a47c56a44998de3ca3e93bae22620251110123030"> <path id="I815eb1e9f2454fdea5db7a89a00b605a20251110123030" d="m 5.355,46.207 c 0,-3.328 2.7,-6.027 6.028,-6.027 h 28.125 c 3.328,0 6.027,2.699 6.027,6.027 v 1.336 c 0,0 0,14.062 -20.09,14.062 -20.09,0 -20.09,-14.062 -20.09,-14.062 z" transform="scale(1.3333333)" style="fill:url(#I255ac9a7c21e4be2a836e9b65e0c2c8520251110123030);stroke:none" /> <path d="m 5.355,46.207 c 0,-3.328 2.7,-6.027 6.028,-6.027 h 28.125 c 3.328,0 6.027,2.699 6.027,6.027 v 1.336 c 0,0 0,14.062 -20.09,14.062 -20.09,0 -20.09,-14.062 -20.09,-14.062 z" transform="scale(1.3333333)" style="fill:url(#If6618ae5997d45739fe18e12fc70650620251110123030);stroke:none" opacity="1" id="I7e76d2003d0a4f17939ec24a15ac7dc420251110123030" /> <path d="m 5.355,46.207 c 0,-3.328 2.7,-6.027 6.028,-6.027 h 28.125 c 3.328,0 6.027,2.699 6.027,6.027 v 1.336 c 0,0 0,14.062 -20.09,14.062 -20.09,0 -20.09,-14.062 -20.09,-14.062 z" transform="scale(1.3333333)" style="fill:url(#Ie9e54fd929d14302b938dee674889bfd20251110123030);stroke:none" opacity="1" id="I9f3b14677cf44dcbae6be01fbaedc3e020251110123030" /> <path id="I844c40dca4fd429f805d8643a7fe5fa720251110123030" d="m 62.945,25.445 c 0,5.18 -4.195,9.375 -9.375,9.375 -5.175,0 -9.375,-4.195 -9.375,-9.375 0,-5.175 4.2,-9.375 9.375,-9.375 5.18,0 9.375,4.2 9.375,9.375 z" transform="scale(1.3333333)" style="fill:url(#I4d67c553ca1e417f9c4d42ee02f47dc020251110123030);stroke:none" /> <path id="Ifed6c9164ae044d6a93a203b4be578a020251110123030" d="m 25.445,34.82 c 6.657,0 12.055,-5.394 12.055,-12.05 0,-6.661 -5.398,-12.055 -12.055,-12.055 -6.656,0 -12.05,5.394 -12.05,12.055 0,6.656 5.394,12.05 12.05,12.05 z" transform="scale(1.3333333)" style="fill:url(#Ib38267171db145de8b83a25dccb6b49a20251110123030);stroke:none" /> <path id="I92a5a0eed7614e319f8a6d2a82b216df20251110123030" d="m 72.32,54.91 c 0,9.617 -7.793,17.41 -17.41,17.41 -9.617,0 -17.41,-7.793 -17.41,-17.41 0,-9.617 7.793,-17.41 17.41,-17.41 9.617,0 17.41,7.793 17.41,17.41 z" transform="scale(1.3333333)" style="fill:url(#I41073ddda98243dca0af4020afaf216820251110123030);stroke:none" /> <path id="Icbe60335ad9048e9b8a6df50364b94ef20251110123030" d="m 54.91,42.855 c 0.738,0 1.34,0.602 1.34,1.34 v 9.375 h 9.375 c 0.738,0 1.34,0.602 1.34,1.34 0,0.738 -0.602,1.34 -1.34,1.34 H 56.25 v 9.375 c 0,0.738 -0.602,1.34 -1.34,1.34 -0.738,0 -1.34,-0.602 -1.34,-1.34 V 56.25 h -9.375 c -0.738,0 -1.34,-0.602 -1.34,-1.34 0,-0.738 0.602,-1.34 1.34,-1.34 h 9.375 v -9.375 c 0,-0.738 0.602,-1.34 1.34,-1.34 z" style="fill:#ffffff;fill-opacity:1;fill-rule:evenodd;stroke:none" transform="scale(1.3333333)" /> </g>
</svg>

