<?xml version="1.0" encoding="UTF-8" standalone="no"?> <svg version="1.1" id="Iee8d47c0f7884be3aebb0071a855da8920251106125937" width="100" height="100" viewBox="0 0 100 100" xmlns="http://www.w3.org/2000/svg" xmlns:svg="http://www.w3.org/2000/svg"> <defs id="I586b2cc38f9d4a92b347c9af0dc88f6420251106125937" /> <g id="I1b01dfffca45436a8e7107a82454b6fe20251106125937"> <path id="If42d8f77f01d468f9179b3431eef3d1920251106125937" d="m 18.082,8.035 c -5.551,0 -10.047,4.496 -10.047,10.047 v 38.836 c 0,5.551 4.496,10.047 10.047,10.047 h 28.125 c 1.109,0 2.008,-0.899 2.008,-2.008 0,-1.109 -0.899,-2.012 -2.008,-2.012 H 18.082 c -3.332,0 -6.027,-2.699 -6.027,-6.027 V 18.082 c 0,-3.332 2.695,-6.027 6.027,-6.027 h 28.125 c 1.109,0 2.008,-0.903 2.008,-2.012 0,-1.109 -0.899,-2.008 -2.008,-2.008 z M 54.32,21.348 c -0.781,-0.786 -2.054,-0.786 -2.84,0 -0.785,0.785 -0.785,2.054 0,2.84 L 62.785,35.492 H 26.117 c -1.109,0 -2.012,0.899 -2.012,2.008 0,1.109 0.903,2.008 2.012,2.008 H 62.785 L 51.48,50.812 c -0.785,0.786 -0.785,2.055 0,2.84 0.786,0.786 2.059,0.786 2.84,0 l 14.735,-14.73 c 0.785,-0.785 0.785,-2.059 0,-2.844 z" style="fill:currentColor;fill-opacity:1;fill-rule:nonzero;stroke:none" transform="scale(1.3333333)" /> </g>
</svg>

