<?xml version="1.0" encoding="UTF-8" standalone="no"?> <svg version="1.1" id="If69294cd5e9a4609a19b68165dc7204f20251106170956" width="100" height="100" viewBox="0 0 100 100" xmlns="http://www.w3.org/2000/svg" xmlns:svg="http://www.w3.org/2000/svg"> <defs id="I630c7510f65f4503842ca4efac338cdc20251106170956" /> <g id="I873c8495504f4695a1c21f0926cd376420251106170956"> <path id="I5da0bfba7f0e455699c71778a2bbac0d20251106170956" d="m 34.336,13.062 c -0.875,-0.75 -2.172,-0.75 -3.047,0 L 25.82,17.75 c -0.984,0.844 -1.097,2.324 -0.258,3.305 0.844,0.984 2.325,1.097 3.305,0.257 l 3.945,-3.382 3.946,3.382 c 0.98,0.84 2.461,0.727 3.304,-0.257 0.84,-0.981 0.727,-2.461 -0.257,-3.305 z m 8.039,16.762 c 1.145,-0.98 2.898,-0.644 3.602,0.688 l 3.73,7.09 -11.519,11.523 c -0.918,0.914 -0.918,2.398 0,3.313 0.914,0.917 2.398,0.917 3.312,0 l 10.492,-10.493 4.133,7.852 c 2.105,3.996 7.371,5.004 10.801,2.066 L 67.93,51 c 0.984,-0.844 1.097,-2.324 0.258,-3.305 -0.844,-0.984 -2.325,-1.097 -3.305,-0.257 l -1.008,0.863 c -1.145,0.98 -2.898,0.644 -3.602,-0.688 L 55.465,38.477 64.938,29 c 0.917,-0.914 0.917,-2.398 0,-3.312 -0.915,-0.918 -2.399,-0.918 -3.313,0 L 53.18,34.133 50.125,28.328 C 48.02,24.332 42.754,23.324 39.324,26.262 l -1.004,0.863 c -0.984,0.844 -1.097,2.324 -0.258,3.305 0.844,0.984 2.325,1.097 3.305,0.258 z M 11.207,42.09 c 2.895,-0.039 5.91,-0.199 8.625,-0.785 3.277,-0.711 6.52,-2.121 8.492,-5.098 1.762,-2.664 1.813,-5.848 0.176,-8.227 -1.664,-2.418 -4.723,-3.503 -8.125,-2.734 -1.43,0.324 -3.922,1.074 -6.484,3.156 -2.579,2.094 -5.09,5.414 -6.731,10.653 -1.215,3.886 -1.207,7.285 -0.019,10 1.211,2.757 3.504,4.488 6.148,5.218 5.156,1.422 11.649,-0.855 15.797,-6.093 0.801,-1.016 0.633,-2.489 -0.383,-3.293 -1.015,-0.801 -2.488,-0.633 -3.293,0.383 -3.183,4.019 -7.832,5.324 -10.871,4.484 -1.453,-0.399 -2.527,-1.266 -3.101,-2.582 -0.493,-1.117 -0.715,-2.774 -0.231,-5.082 z M 24.641,30.637 c 0.433,0.633 0.597,1.734 -0.227,2.984 -0.992,1.496 -2.812,2.504 -5.57,3.102 -1.809,0.39 -3.848,0.566 -6.008,0.64 1.226,-2.586 2.676,-4.238 4.008,-5.32 1.812,-1.473 3.554,-1.996 4.566,-2.223 1.848,-0.422 2.824,0.227 3.231,0.817 z" style="fill:currentColor;fill-opacity:1;fill-rule:nonzero;stroke:none" transform="scale(1.3333333)" /> </g>
</svg>

