<?xml version="1.0" encoding="UTF-8" standalone="no"?> <svg version="1.1" id="I770309cd76bf4c8384f64ad511c4654320251110135155" width="100" height="100" viewBox="0 0 100 100" xmlns="http://www.w3.org/2000/svg" xmlns:svg="http://www.w3.org/2000/svg"> <defs id="Ibc38a0ae96ef4970bfef3e95312740d420251110135155" /> <g id="I975e9f44b4ee4096876f9a4a4bb6682f20251110135155"> <path id="I78f597e0df57436badb4d9105a029bcf20251110135155" d="M 44.684,12.547 C 43.453,9.676 40.625,7.812 37.5,7.812 c -3.125,0 -5.949,1.864 -7.18,4.735 L 16.996,43.641 c -0.047,0.105 -0.094,0.214 -0.141,0.324 L 11.57,56.297 c -1.699,3.969 0.137,8.558 4.106,10.258 3.965,1.699 8.558,-0.137 10.258,-4.102 l 3.328,-7.765 h 16.48 l 3.328,7.765 c 1.7,3.965 6.293,5.801 10.258,4.102 3.969,-1.7 5.805,-6.293 4.106,-10.258 L 58.148,43.965 c -0.046,-0.11 -0.093,-0.219 -0.14,-0.324 z M 39.047,39.062 37.5,35.457 35.957,39.062 Z m 1.328,-24.667 13.363,31.187 c 0.02,0.043 0.039,0.086 0.059,0.129 l 5.328,12.434 c 0.68,1.585 -0.055,3.421 -1.641,4.101 -1.586,0.68 -3.425,-0.055 -4.105,-1.641 L 48.836,50 H 26.168 l -4.543,10.605 c -0.68,1.586 -2.52,2.321 -4.105,1.641 -1.586,-0.68 -2.321,-2.516 -1.641,-4.101 l 5.328,-12.434 c 0.02,-0.043 0.039,-0.086 0.059,-0.129 L 34.629,14.395 C 35.121,13.246 36.25,12.5 37.5,12.5 c 1.25,0 2.383,0.746 2.875,1.895 z M 46.156,43.75 H 28.848 L 37.5,23.559 Z" style="fill:currentColor;fill-opacity:1;fill-rule:nonzero;stroke:none" transform="scale(1.3333333)" /> </g>
</svg>

