<?xml version="1.0" encoding="UTF-8" standalone="no"?> <svg version="1.1" id="Ie1cc748209134b70ac9412e9fece277f20251106163937" width="100" height="100" viewBox="0 0 100 100" xmlns="http://www.w3.org/2000/svg" xmlns:svg="http://www.w3.org/2000/svg"> <defs id="I4dd7826934d044649914200c93fda9cf20251106163937" /> <g id="I6a49606dc18347cbbf88d6d814d9e5d520251106163937"> <path id="I2313188fe29a4a0784a507022e5d139a20251106163937" d="m 10.699,8.051 c -0.73,-0.735 -1.918,-0.735 -2.648,0 -0.735,0.73 -0.735,1.918 0,2.648 l 13.672,13.676 h -7.661 c -1.554,0 -2.812,1.258 -2.812,2.813 0,1.554 1.258,2.812 2.812,2.812 H 27.348 L 40.473,43.125 H 14.062 c -1.554,0 -2.812,1.258 -2.812,2.813 0,1.554 1.258,2.812 2.812,2.812 h 32.036 l 18.203,18.199 c 0.73,0.735 1.918,0.735 2.648,0 0.735,-0.73 0.735,-1.918 0,-2.648 z m 40.379,35.074 5.625,5.625 h 4.235 c 1.554,0 2.812,-1.258 2.812,-2.812 0,-1.555 -1.258,-2.813 -2.812,-2.813 z M 32.328,24.375 37.953,30 h 22.985 c 1.554,0 2.812,-1.258 2.812,-2.812 0,-1.555 -1.258,-2.813 -2.812,-2.813 z" style="fill:currentColor;fill-opacity:1;fill-rule:nonzero;stroke:none" transform="scale(1.3333333)" /> </g>
</svg>

