<?xml version="1.0" encoding="UTF-8" standalone="no"?> <svg version="1.1" id="I4da146439f1b4071ac3f9a1ce503a96820251110133655" width="100" height="100" viewBox="0 0 100 100" xmlns="http://www.w3.org/2000/svg" xmlns:svg="http://www.w3.org/2000/svg"> <defs id="Ieff5784f292a4e55ade32a2244f192a220251110133655" /> <g id="I9b2b114b701e432893c3bcee7c36391820251110133655"> <path id="I0b43a07125c6428c90f90e2fc14924ba20251110133655" d="m 9.375,19.531 c 0,-5.609 4.547,-10.156 10.156,-10.156 h 12.5 c 1.293,0 2.344,1.051 2.344,2.344 0,1.293 -1.051,2.343 -2.344,2.343 h -12.5 c -3.019,0 -5.469,2.45 -5.469,5.469 v 12.5 c 0,1.293 -1.05,2.344 -2.343,2.344 -1.293,0 -2.344,-1.051 -2.344,-2.344 z m 31.25,-7.812 c 0,-1.293 1.051,-2.344 2.344,-2.344 h 12.5 c 5.609,0 10.156,4.547 10.156,10.156 v 12.5 c 0,1.293 -1.051,2.344 -2.344,2.344 -1.293,0 -2.343,-1.051 -2.343,-2.344 v -12.5 c 0,-3.019 -2.45,-5.469 -5.469,-5.469 h -12.5 c -1.293,0 -2.344,-1.05 -2.344,-2.343 z M 11.719,40.625 c 1.293,0 2.343,1.051 2.343,2.344 v 12.5 c 0,0.644 0.114,1.261 0.317,1.836 L 31.977,39.711 c 3.05,-3.051 7.996,-3.051 11.046,0 l 17.598,17.594 c 0.203,-0.575 0.317,-1.192 0.317,-1.836 v -12.5 c 0,-1.293 1.05,-2.344 2.343,-2.344 1.293,0 2.344,1.051 2.344,2.344 v 12.5 c 0,5.609 -4.547,10.156 -10.156,10.156 h -12.5 c -1.293,0 -2.344,-1.051 -2.344,-2.344 0,-1.293 1.051,-2.343 2.344,-2.343 h 12.5 c 0.644,0 1.261,-0.114 1.836,-0.317 L 39.711,43.023 c -1.223,-1.218 -3.199,-1.218 -4.422,0 L 17.695,60.621 c 0.575,0.203 1.192,0.317 1.836,0.317 h 12.5 c 1.293,0 2.344,1.05 2.344,2.343 0,1.293 -1.051,2.344 -2.344,2.344 h -12.5 c -5.609,0 -10.156,-4.547 -10.156,-10.156 v -12.5 c 0,-1.293 1.051,-2.344 2.344,-2.344 z M 47.656,25 c -1.293,0 -2.344,1.051 -2.344,2.344 0,1.293 1.051,2.344 2.344,2.344 C 48.949,29.688 50,28.637 50,27.344 50,26.051 48.949,25 47.656,25 Z m -7.031,2.344 c 0,-3.883 3.148,-7.032 7.031,-7.032 3.883,0 7.032,3.149 7.032,7.032 0,3.883 -3.149,7.031 -7.032,7.031 -3.883,0 -7.031,-3.148 -7.031,-7.031 z" style="fill:currentColor;fill-opacity:1;fill-rule:nonzero;stroke:none" transform="scale(1.3333333)" /> </g>
</svg>

