<?xml version="1.0" encoding="UTF-8" standalone="no"?> <svg version="1.1" id="I33fbf726881e43cf8402e3595a42382620251106132945" width="100" height="100" viewBox="0 0 100 100" xmlns="http://www.w3.org/2000/svg" xmlns:svg="http://www.w3.org/2000/svg"> <defs id="I70b8029db56f451abc61f7ed78be7eb320251106132945" /> <g id="I2b31e9f4b3124752a90bf6202530aa7b20251106132945"> <path id="I0078cef3a37340efa06b4d4ea646a22420251106132945" d="m 18.75,11.25 c -4.141,0 -7.5,3.359 -7.5,7.5 v 37.5 c 0,4.141 3.359,7.5 7.5,7.5 h 37.5 c 4.141,0 7.5,-3.359 7.5,-7.5 v -37.5 c 0,-4.141 -3.359,-7.5 -7.5,-7.5 z M 60,48.449 C 56.871,47.914 54.664,46.691 53.016,45.152 50.715,43.004 49.316,40.07 48.172,36.867 47.781,35.773 47.438,34.695 47.09,33.621 46.93,33.113 46.766,32.605 46.598,32.094 46.09,30.547 45.543,29 44.859,27.637 44.18,26.277 43.309,24.98 42.094,24.027 40.832,23.039 39.309,22.5 37.5,22.5 c -1.809,0 -3.332,0.539 -4.594,1.527 -1.215,0.953 -2.086,2.25 -2.765,3.61 -0.684,1.363 -1.231,2.91 -1.739,4.457 -0.168,0.511 -0.332,1.019 -0.492,1.527 -0.348,1.074 -0.691,2.152 -1.082,3.246 -1.144,3.203 -2.543,6.137 -4.848,8.285 -1.644,1.539 -3.851,2.762 -6.98,3.297 L 15,18.75 C 15,16.68 16.68,15 18.75,15 h 37.5 c 2.07,0 3.75,1.68 3.75,3.75 z m -45,3.797 c 4.094,-0.586 7.18,-2.148 9.543,-4.351 2.969,-2.774 4.617,-6.407 5.816,-9.766 0.414,-1.152 0.789,-2.332 1.145,-3.438 0.156,-0.492 0.312,-0.968 0.461,-1.425 0.5,-1.528 0.98,-2.852 1.527,-3.95 0.551,-1.101 1.117,-1.859 1.731,-2.339 0.57,-0.446 1.273,-0.727 2.277,-0.727 1.004,0 1.707,0.281 2.277,0.727 0.614,0.48 1.18,1.238 1.731,2.339 0.547,1.098 1.027,2.422 1.527,3.95 0.149,0.457 0.305,0.933 0.461,1.425 0.356,1.106 0.731,2.286 1.145,3.438 1.199,3.359 2.847,6.992 5.816,9.766 2.363,2.203 5.449,3.765 9.543,4.351 V 56.25 C 60,58.32 58.32,60 56.25,60 H 18.75 C 16.68,60 15,58.32 15,56.25 Z" style="fill:currentColor;fill-opacity:1;fill-rule:nonzero;stroke:none" transform="scale(1.3333333)" /> </g>
</svg>

