<?xml version="1.0" encoding="UTF-8" standalone="no"?> <svg version="1.1" id="Ic9bd9bb24ffe4356bb65393fe706dc1120251106155157" width="100" height="100" viewBox="0 0 100 100" xmlns="http://www.w3.org/2000/svg" xmlns:svg="http://www.w3.org/2000/svg"> <defs id="I46f1c854cff84770a549a926808c420220251106155157" /> <g id="I43261611b7b14b49b38dcb2a0204b10420251106155157"> <path id="I070d83b79caf4aaeb3b6a9a9846ee37f20251106155157" d="m 7.812,37.5 c 0,-1.293 1.051,-2.344 2.344,-2.344 h 4.688 c 1.293,0 2.344,1.051 2.344,2.344 0,1.293 -1.051,2.344 -2.344,2.344 h -4.688 c -1.293,0 -2.344,-1.051 -2.344,-2.344 z m 12.5,0 c 0,-1.293 1.051,-2.344 2.344,-2.344 h 4.688 c 1.293,0 2.344,1.051 2.344,2.344 0,1.293 -1.051,2.344 -2.344,2.344 h -4.688 c -1.293,0 -2.344,-1.051 -2.344,-2.344 z m 12.5,0 c 0,-1.293 1.051,-2.344 2.344,-2.344 h 4.688 c 1.293,0 2.344,1.051 2.344,2.344 0,1.293 -1.051,2.344 -2.344,2.344 h -4.688 c -1.293,0 -2.344,-1.051 -2.344,-2.344 z m 12.5,0 c 0,-1.293 1.051,-2.344 2.344,-2.344 h 4.688 c 1.293,0 2.344,1.051 2.344,2.344 0,1.293 -1.051,2.344 -2.344,2.344 h -4.688 c -1.293,0 -2.344,-1.051 -2.344,-2.344 z m 12.5,0 c 0,-1.293 1.051,-2.344 2.344,-2.344 h 4.688 c 1.293,0 2.344,1.051 2.344,2.344 0,1.293 -1.051,2.344 -2.344,2.344 h -4.688 c -1.293,0 -2.344,-1.051 -2.344,-2.344 z M 15.625,6.25 C 13.898,6.25 12.5,7.648 12.5,9.375 v 12.5 c 0,3.449 2.801,6.25 6.25,6.25 h 37.5 c 3.449,0 6.25,-2.801 6.25,-6.25 V 9.375 C 62.5,7.648 61.102,6.25 59.375,6.25 Z m 43.75,62.5 c 1.727,0 3.125,-1.398 3.125,-3.125 v -12.5 c 0,-3.449 -2.801,-6.25 -6.25,-6.25 h -37.5 c -3.449,0 -6.25,2.801 -6.25,6.25 v 12.5 c 0,1.727 1.398,3.125 3.125,3.125 z" style="fill:currentColor;fill-opacity:1;fill-rule:nonzero;stroke:none" transform="scale(1.3333333)" /> </g>
</svg>

