<?xml version="1.0" encoding="UTF-8" standalone="no"?> <svg version="1.1" id="Ia02a5e8333844a0697e61289eb5ad81120251106152729" width="100" height="100" viewBox="0 0 100 100" xmlns="http://www.w3.org/2000/svg" xmlns:svg="http://www.w3.org/2000/svg"> <defs id="Idebf715116a14bef882da137376269d920251106152729" /> <g id="I7b3b59a34d97434bb3bba5445d9bfe3e20251106152729"> <path id="I9031f66b7d68487d98435fb88d31ef7320251106152729" d="m 18.082,8.035 c -5.551,0 -10.047,4.496 -10.047,10.047 v 38.836 c 0,5.551 4.496,10.047 10.047,10.047 h 38.836 c 5.551,0 10.047,-4.496 10.047,-10.047 V 18.082 c 0,-5.551 -4.496,-10.047 -10.047,-10.047 z m -2.012,16.07 c 0,-2.957 2.399,-5.355 5.36,-5.355 h 32.14 c 2.961,0 5.36,2.398 5.36,5.355 v 5.36 c 0,2.957 -2.399,5.355 -5.36,5.355 H 21.43 c -2.961,0 -5.36,-2.398 -5.36,-5.355 z m 5.36,-1.335 c -0.742,0 -1.34,0.597 -1.34,1.335 v 5.36 c 0,0.738 0.598,1.34 1.34,1.34 h 32.14 c 0.742,0 1.34,-0.602 1.34,-1.34 v -5.36 c 0,-0.738 -0.598,-1.335 -1.34,-1.335 z m -3.348,17.41 h 14.73 c 1.11,0 2.008,0.898 2.008,2.008 0,1.109 -0.898,2.007 -2.008,2.007 h -14.73 c -1.109,0 -2.012,-0.898 -2.012,-2.007 0,-1.11 0.903,-2.008 2.012,-2.008 z M 16.07,52.23 c 0,-1.109 0.903,-2.007 2.012,-2.007 h 14.73 c 1.11,0 2.008,0.898 2.008,2.007 0,1.11 -0.898,2.012 -2.008,2.012 h -14.73 c -1.109,0 -2.012,-0.902 -2.012,-2.012 z M 46.207,38.84 h 8.035 c 2.586,0 4.688,2.098 4.688,4.687 v 8.035 c 0,2.59 -2.102,4.688 -4.688,4.688 h -8.035 c -2.59,0 -4.687,-2.098 -4.687,-4.688 v -8.035 c 0,-2.589 2.097,-4.687 4.687,-4.687 z m -0.672,4.687 c 0,-0.371 0.301,-0.672 0.672,-0.672 h 8.035 c 0.367,0 0.668,0.301 0.668,0.672 v 8.035 c 0,0.372 -0.301,0.668 -0.668,0.668 h -8.035 c -0.371,0 -0.672,-0.296 -0.672,-0.668 z" style="fill:currentColor;fill-opacity:1;fill-rule:nonzero;stroke:none" transform="scale(1.3333333)" /> </g>
</svg>

