<?xml version="1.0" encoding="UTF-8" standalone="no"?> <svg version="1.1" id="I7c9b48a2696046169c8161d030024e1a20251106155156" width="100" height="100" viewBox="0 0 100 100" xmlns="http://www.w3.org/2000/svg" xmlns:svg="http://www.w3.org/2000/svg"> <defs id="I4fb85553d5ac495e94c177a5217cac8720251106155156"> <linearGradient x1="18" y1="2" x2="19.388201" y2="20.597799" gradientUnits="userSpaceOnUse" gradientTransform="scale(2.678571)" spreadMethod="pad" id="I5b729a8c0bd94554bde3ef742bcc4fe120251106155156"> <stop style="stop-opacity:1;stop-color:#6ce0ff" offset="0" id="Icd51e0c8e6d04c66a9d226d97afd134720251106155156" /> <stop style="stop-opacity:1;stop-color:#4894fe" offset="1" id="Ia1724ee3f6e7413c9eceeb99617d873720251106155156" /> </linearGradient> <radialGradient fx="0" fy="0" cx="0" cy="0" r="1" gradientUnits="userSpaceOnUse" gradientTransform="matrix(-30.357127,31.473079,-18.603626,-17.943991,66.517768,7.366071)" spreadMethod="pad" id="I7d1c860d2ccf414cb7a66bdd8a54990120251106155156"> <stop style="stop-opacity:0.50000763;stop-color:#4a43cb" offset="0" id="I235a3334d8f547d4b4e97a3fcdb8023b20251106155156" /> <stop style="stop-opacity:0.50000763;stop-color:#4a43cb" offset="0.362364" id="I56b3dd72f8434329ad445d8f96a55ce720251106155156" /> <stop style="stop-opacity:0;stop-color:#4a43cb" offset="1" id="I8250e948b8a44fe78d6656229d4e1aff20251106155156" /> </radialGradient> <radialGradient fx="0" fy="0" cx="0" cy="0" r="1" gradientUnits="userSpaceOnUse" gradientTransform="matrix(-30.357127,31.473079,-18.603626,-17.943991,66.517768,7.366071)" spreadMethod="pad" id="Ib0023aa4518a404388656a6f90f95ac220251106155156"> <stop style="stop-opacity:0.29999237;stop-color:#4a43cb" offset="0" id="Icb2b56c13e0b460fa981c8e25670227920251106155156" /> <stop style="stop-opacity:0.29999237;stop-color:#4a43cb" offset="0.362364" id="Idf92f257a1cf4e2da95a518e7a32160520251106155156" /> <stop style="stop-opacity:0;stop-color:#4a43cb" offset="1" id="I78cc1fb0c347449e9ee418dd1079030220251106155156" /> </radialGradient> <radialGradient fx="0" fy="0" cx="0" cy="0" r="1" gradientUnits="userSpaceOnUse" gradientTransform="matrix(1.33931,29.464398,-30.115422,1.368903,18.75,65.625)" spreadMethod="pad" id="Id22571e047fc4221aa69fc63251681d220251106155156"> <stop style="stop-opacity:0.50000763;stop-color:#4a43cb" offset="0" id="Ie8f9f4ce0fc5415c9f3b894f99c9f79420251106155156" /> <stop style="stop-opacity:0.50000763;stop-color:#4a43cb" offset="0.535" id="I32d9884e05ad4e42ae524ec40e111d9120251106155156" /> <stop style="stop-opacity:0;stop-color:#4a43cb" offset="1" id="Ie3a978a58e904076a780ff2d5252f00220251106155156" /> </radialGradient> <linearGradient x1="19.485001" y1="5.75" x2="17.235001" y2="9.5" gradientUnits="userSpaceOnUse" gradientTransform="scale(2.678571)" spreadMethod="pad" id="I184eeac01054416f9f02bf7a22f1a58020251106155156"> <stop style="stop-opacity:1;stop-color:#9ff0f9" offset="0" id="I8011dae89489474e93bbee2ac52db4bb20251106155156" /> <stop style="stop-opacity:1;stop-color:#b3e0ff" offset="1" id="Ib120fc5e04ab4445963acf014961f86f20251106155156" /> </linearGradient> <linearGradient x1="1.46429" y1="16.4375" x2="10.4359" y2="25.7586" gradientUnits="userSpaceOnUse" gradientTransform="scale(2.678571)" spreadMethod="pad" id="I4dfb2b5e5dda46749c001699276dd8fb20251106155156"> <stop style="stop-opacity:1;stop-color:#52d17c" offset="0" id="I12b337980a2e41a287850cf187ccdb4f20251106155156" /> <stop style="stop-opacity:1;stop-color:#22918b" offset="1" id="I1bb21f1be8f54989b9e7227d01fb9b7820251106155156" /> </linearGradient> </defs> <g id="Iaaac8941c6a7465e99abddf53e5f73f020251106155156"> <path id="I6d9b96e93a9c4a9b8076bcbedd9c5a8c20251106155156" d="M 40.18,5.355 H 17.41 c -3.699,0 -6.695,3 -6.695,6.7 v 50.89 c 0,3.7 2.996,6.7 6.695,6.7 h 40.18 c 3.699,0 6.695,-3 6.695,-6.7 V 29.465 L 46.875,22.77 Z" transform="scale(1.3333333)" style="fill:url(#I5b729a8c0bd94554bde3ef742bcc4fe120251106155156);stroke:none" /> <path d="M 40.18,5.355 H 17.41 c -3.699,0 -6.695,3 -6.695,6.7 v 50.89 c 0,3.7 2.996,6.7 6.695,6.7 h 40.18 c 3.699,0 6.695,-3 6.695,-6.7 V 29.465 L 46.875,22.77 Z" transform="scale(1.3333333)" style="fill:url(#I7d1c860d2ccf414cb7a66bdd8a54990120251106155156);stroke:none" opacity="1" id="I185f936ee0554c9c97df89ac5a1a2a1720251106155156" /> <path d="M 40.18,5.355 H 17.41 c -3.699,0 -6.695,3 -6.695,6.7 v 50.89 c 0,3.7 2.996,6.7 6.695,6.7 h 40.18 c 3.699,0 6.695,-3 6.695,-6.7 V 29.465 L 46.875,22.77 Z" transform="scale(1.3333333)" style="fill:url(#Ib0023aa4518a404388656a6f90f95ac220251106155156);stroke:none" opacity="1" id="I4ba2da6f9bfe427a9875e59430191e6920251106155156" /> <path d="M 40.18,5.355 H 17.41 c -3.699,0 -6.695,3 -6.695,6.7 v 50.89 c 0,3.7 2.996,6.7 6.695,6.7 h 40.18 c 3.699,0 6.695,-3 6.695,-6.7 V 29.465 L 46.875,22.77 Z" transform="scale(1.3333333)" style="fill:url(#Id22571e047fc4221aa69fc63251681d220251106155156);stroke:none" opacity="1" id="Id767415ad0a847d5bc2b2ad8aadf851e20251106155156" /> <path id="Ib4f3b5c521c64b1aa72ec319e8c9410820251106155156" d="M 40.18,25.445 V 5.355 l 24.105,24.11 h -20.09 c -2.218,0 -4.015,-1.801 -4.015,-4.02 z" transform="scale(1.3333333)" style="fill:url(#I184eeac01054416f9f02bf7a22f1a58020251106155156);stroke:none" /> <path id="Ice6991e4d0934456adcc0e9b8c86ec1d20251106155156" d="m 37.5,54.91 c 0,9.617 -7.793,17.41 -17.41,17.41 -9.617,0 -17.41,-7.793 -17.41,-17.41 0,-9.617 7.793,-17.41 17.41,-17.41 9.617,0 17.41,7.793 17.41,17.41 z" transform="scale(1.3333333)" style="fill:url(#I4dfb2b5e5dda46749c001699276dd8fb20251106155156);stroke:none" /> <path id="I5b95b9d022d64cc3a1e35d3baeeddf8b20251106155156" d="m 20.09,42.855 c 0.738,0 1.34,0.602 1.34,1.34 v 9.375 h 9.375 c 0.738,0 1.34,0.602 1.34,1.34 0,0.738 -0.602,1.34 -1.34,1.34 H 21.43 v 9.375 c 0,0.738 -0.602,1.34 -1.34,1.34 -0.738,0 -1.34,-0.602 -1.34,-1.34 V 56.25 H 9.375 c -0.738,0 -1.34,-0.602 -1.34,-1.34 0,-0.738 0.602,-1.34 1.34,-1.34 h 9.375 v -9.375 c 0,-0.738 0.602,-1.34 1.34,-1.34 z" style="fill:#ffffff;fill-opacity:1;fill-rule:evenodd;stroke:none" transform="scale(1.3333333)" /> </g>
</svg>

