<?xml version="1.0" encoding="UTF-8" standalone="no"?> <svg version="1.1" id="I5547bff374064ae89ac3273726785d2e20251106123559" width="100" height="100" viewBox="0 0 100 100" xmlns="http://www.w3.org/2000/svg" xmlns:svg="http://www.w3.org/2000/svg"> <defs id="Ic8ffe30923a84c8789fd35aad08acafa20251106123559" /> <g id="I27c5de7d7e674364b86660e85146064f20251106123559"> <path id="I07e6a9c7cc7f445e93b0211cfb199f5020251106123559" d="m 41.402,6.25 h 9.957 c 1.59,0 3.149,0.441 4.5,1.273 l 8.649,5.325 c 0.695,0.425 1.117,1.183 1.117,1.996 v 4.687 c 0,3.883 -3.148,7.031 -7.031,7.031 h -0.782 v 28.274 c 3.118,0.418 5.297,1.73 6.547,3.984 0.696,1.258 0.993,2.625 1.133,3.883 0.133,1.223 0.133,2.496 0.133,3.625 v 0.078 c 0,1.293 -1.051,2.344 -2.344,2.344 H 18.23 c -6.617,0 -11.98,-5.363 -11.98,-11.98 0,-4.368 2.34,-8.188 5.824,-10.278 1.11,-0.664 2.551,-0.304 3.215,0.805 0.668,1.109 0.305,2.551 -0.805,3.215 -2.129,1.277 -3.546,3.605 -3.546,6.258 0,4.027 3.265,7.292 7.292,7.292 0.997,0 1.614,-0.261 2.024,-0.55 0.437,-0.305 0.777,-0.742 1.039,-1.274 0.262,-0.531 0.414,-1.09 0.5,-1.539 0.039,-0.215 0.062,-0.394 0.074,-0.508 0.004,-0.046 0.008,-0.086 0.008,-0.105 v -0.109 c 0.004,-0.106 0.008,-0.258 0.012,-0.45 0.015,-0.379 0.043,-0.922 0.093,-1.589 0.102,-1.333 0.309,-3.18 0.723,-5.243 0.809,-4.035 2.485,-9.273 6.098,-12.933 2.648,-2.688 4.09,-6.621 4.836,-10.516 0.734,-3.844 0.738,-7.348 0.738,-8.934 v -7.031 c 0,-3.883 3.145,-7.031 7.027,-7.031 z M 24.219,60.156 c 2.343,0.078 2.343,0.082 2.343,0.082 v 0.004 l -0.003,0.016 v 0.031 l -0.004,0.086 c -0.004,0.074 -0.012,0.168 -0.024,0.281 -0.023,0.227 -0.062,0.539 -0.133,0.91 -0.125,0.664 -0.351,1.559 -0.781,2.496 H 48.273 C 47.988,62.52 47.211,60.918 45.105,59.938 45.07,59.922 45.035,59.906 45.004,59.887 44.84,59.801 44.375,59.648 43.598,59.523 42.879,59.41 42.086,59.352 41.406,59.352 c -0.168,0 -0.535,0.007 -0.883,0.011 l -0.445,0.008 -0.183,0.004 h -0.004 c -1.293,0.023 -2.36,-1.008 -2.383,-2.301 -0.028,-1.293 1.004,-2.363 2.297,-2.386 L 40,54.684 40.449,54.676 c 0.336,-0.004 0.746,-0.012 0.957,-0.012 0.735,0 1.547,0.051 2.344,0.148 v -7.148 c 0,-1.293 1.051,-2.344 2.344,-2.344 1.293,0 2.344,1.051 2.344,2.344 v 8.766 c 3.328,2.129 4.292,5.32 4.574,7.632 h 7.886 c -0.015,-0.289 -0.039,-0.57 -0.066,-0.843 -0.105,-0.942 -0.293,-1.625 -0.574,-2.125 -0.406,-0.731 -1.352,-1.719 -4.789,-1.719 -1.293,0 -2.344,-1.051 -2.344,-2.344 V 24.219 c 0,-1.293 1.051,-2.344 2.344,-2.344 h 3.125 c 1.293,0 2.344,-1.051 2.344,-2.344 v -3.379 l -7.536,-4.636 c -0.617,-0.379 -1.32,-0.578 -2.043,-0.578 h -9.957 c -1.293,0 -2.34,1.046 -2.34,2.343 v 6.973 c 0.04,0.715 0.29,1.332 0.641,1.734 0.317,0.356 0.817,0.668 1.703,0.668 0.895,0 1.414,-0.316 1.739,-0.683 0.355,-0.411 0.605,-1.047 0.605,-1.817 0,-1.293 1.051,-2.344 2.344,-2.344 1.293,0 2.344,1.051 2.344,2.344 0,1.731 -0.555,3.516 -1.77,4.903 -1.25,1.429 -3.074,2.285 -5.262,2.285 -0.976,0 -1.871,-0.168 -2.672,-0.481 -0.121,1.035 -0.277,2.137 -0.496,3.266 -0.816,4.269 -2.5,9.273 -6.101,12.922 -2.637,2.676 -4.086,6.812 -4.84,10.566 -0.367,1.836 -0.551,3.488 -0.645,4.68 -0.047,0.598 -0.066,1.074 -0.078,1.394 -0.008,0.161 -0.008,0.286 -0.012,0.364 v 0.101 c 0,0.028 0,0.055 0,0.082 z m 26.566,8.594 -0.004,-2.344 z" style="fill:currentColor;fill-opacity:1;fill-rule:nonzero;stroke:none" transform="scale(1.3333333)" /> </g>
</svg>

