<?xml version="1.0" encoding="UTF-8" standalone="no"?> <svg version="1.1" id="I6f020ea0cc2d48bc9fe3cc1514c09c6d20251110130510" width="100" height="100" viewBox="0 0 100 100" xmlns="http://www.w3.org/2000/svg" xmlns:svg="http://www.w3.org/2000/svg"> <defs id="Id412d3a5245c4d52af19f1f17d0ae27220251110130510" /> <g id="I037cb3dbdbad45a7a7b606c718e2052a20251110130510"> <path id="I85ec8bb48df1490597bdfad87f97864820251110130510" d="m 18.082,8.035 c -5.551,0 -10.047,4.496 -10.047,10.047 v 38.836 c 0,5.551 4.496,10.047 10.047,10.047 h 38.836 c 5.551,0 10.047,-4.496 10.047,-10.047 V 18.082 c 0,-5.551 -4.496,-10.047 -10.047,-10.047 z m -6.027,10.047 c 0,-3.332 2.695,-6.027 6.027,-6.027 h 38.836 c 3.328,0 6.027,2.695 6.027,6.027 v 38.836 c 0,3.328 -2.699,6.027 -6.027,6.027 H 18.082 c -3.332,0 -6.027,-2.699 -6.027,-6.027 z M 23.438,34.82 c -1.11,0 -2.008,0.903 -2.008,2.012 0,1.109 0.898,2.008 2.008,2.008 h 17.41 c 1.109,0 2.007,-0.899 2.007,-2.008 0,-1.109 -0.898,-2.012 -2.007,-2.012 z M 21.43,23.438 c 0,-1.11 0.898,-2.008 2.008,-2.008 h 28.124 c 1.11,0 2.008,0.898 2.008,2.008 0,1.109 -0.898,2.007 -2.008,2.007 H 23.438 c -1.11,0 -2.008,-0.898 -2.008,-2.007 z m 2.008,24.777 c -1.11,0 -2.008,0.898 -2.008,2.008 0,1.109 0.898,2.007 2.008,2.007 h 28.124 c 1.11,0 2.008,-0.898 2.008,-2.007 0,-1.11 -0.898,-2.008 -2.008,-2.008 z" style="fill:currentColor;fill-opacity:1;fill-rule:nonzero;stroke:none" transform="scale(1.3333333)" /> </g>
</svg>

