<?xml version="1.0" encoding="UTF-8" standalone="no"?> <svg version="1.1" id="I3cc842ae64054179bd99a335192a7db220251106125938" width="100" height="100" viewBox="0 0 100 100" xmlns="http://www.w3.org/2000/svg" xmlns:svg="http://www.w3.org/2000/svg"> <defs id="I44051572671141c896eaf1859157295820251106125938" /> <g id="Icc9d98d4c7c5432083c5b668fe750f0420251106125938"> <path id="I4bc008dae5a74549bf1f139611185f7720251106125938" d="m 22.5,18.75 c -0.922,0 -1.688,0.664 -1.844,1.539 l -0.031,0.336 v 33.75 c 0,1.035 0.84,1.875 1.875,1.875 0.922,0 1.688,-0.664 1.844,-1.539 l 0.031,-0.336 v -33.75 c 0,-1.035 -0.84,-1.875 -1.875,-1.875 z m 29.449,0.551 c -0.648,-0.653 -1.66,-0.727 -2.39,-0.219 l -0.258,0.219 -16.875,16.875 c -0.653,0.648 -0.727,1.66 -0.219,2.39 l 0.219,0.258 16.875,16.875 c 0.73,0.735 1.918,0.735 2.648,0 0.653,-0.648 0.727,-1.66 0.219,-2.39 L 51.949,53.051 36.402,37.5 51.949,21.949 c 0.735,-0.73 0.735,-1.918 0,-2.648 z" style="fill:currentColor;fill-opacity:1;fill-rule:nonzero;stroke:none" transform="scale(1.3333333)" /> </g>
</svg>

