<?xml version="1.0" encoding="UTF-8" standalone="no"?> <svg version="1.1" id="I4c0f7cca1335414fa9ab8e7946fea31920251110130508" width="100" height="100" viewBox="0 0 100 100" xmlns="http://www.w3.org/2000/svg" xmlns:svg="http://www.w3.org/2000/svg"> <defs id="If51780c24c904f8bbc465f8ab48ab67020251110130508" /> <g id="I50eddcab782142449c0f29fa8279f9df20251110130508"> <path id="Ie17781bc5dd04bbe8886ea20f1872cb120251110130508" d="m 33.711,9.695 c 1.547,-3.136 6.019,-3.136 7.566,0 l 7.371,14.93 16.477,2.395 c 3.457,0.503 4.84,4.753 2.336,7.195 l -2.828,2.758 c -2.942,-1.657 -6.336,-2.598 -9.953,-2.598 -11.215,0 -20.313,9.094 -20.313,20.313 0,1.906 0.266,3.753 0.758,5.503 L 22.758,66.695 C 19.664,68.32 16.047,65.691 16.637,62.246 L 19.453,45.836 7.527,34.215 C 5.023,31.773 6.406,27.523 9.867,27.02 l 16.477,-2.395 z m 38.156,44.993 c 0,9.492 -7.695,17.187 -17.187,17.187 -9.492,0 -17.188,-7.695 -17.188,-17.187 0,-9.493 7.696,-17.188 17.188,-17.188 9.492,0 17.187,7.695 17.187,17.188 z M 45.305,53.125 c -0.86,0 -1.563,0.699 -1.563,1.563 0,0.863 0.703,1.562 1.563,1.562 h 14.98 l -5.144,5.145 c -0.614,0.609 -0.614,1.597 0,2.207 0.609,0.613 1.597,0.613 2.207,0 l 7.812,-7.813 c 0.613,-0.609 0.613,-1.598 0,-2.207 L 57.348,45.77 c -0.61,-0.61 -1.598,-0.61 -2.207,0 -0.614,0.609 -0.614,1.597 0,2.207 l 5.144,5.148 z" style="fill:currentColor;fill-opacity:1;fill-rule:nonzero;stroke:none" transform="scale(1.3333333)" /> </g>
</svg>

