<?xml version="1.0" encoding="UTF-8" standalone="no"?> <svg version="1.1" id="I37817ad733e04cc4ae75644e34d1d6ce20251110133656" width="100" height="100" viewBox="0 0 100 100" xmlns="http://www.w3.org/2000/svg" xmlns:svg="http://www.w3.org/2000/svg"> <defs id="I791071d5e50840ab89169e3f2df48b7a20251110133656" /> <g id="I61ccd730f631410f85a4021689973b3020251110133656"> <path id="Iac6781edccf3457a88354e954fcb88dc20251110133656" d="m 19.531,9.375 c -5.609,0 -10.156,4.547 -10.156,10.156 v 35.938 c 0,5.609 4.547,10.156 10.156,10.156 h 23.762 c -1.426,-1.43 -2.598,-3 -3.504,-4.687 H 19.531 c -3.019,0 -5.469,-2.45 -5.469,-5.469 V 26.562 h 46.876 v 8.391 c 1.312,0.973 2.914,1.914 4.687,2.473 V 19.531 c 0,-5.609 -4.547,-10.156 -10.156,-10.156 z m 41.407,12.5 H 14.062 v -2.344 c 0,-3.019 2.45,-5.469 5.469,-5.469 h 35.938 c 3.019,0 5.469,2.45 5.469,5.469 z m -4.719,13.109 c 2.039,2.032 5.957,5.266 10.777,5.93 0.961,0.133 1.754,0.891 1.754,1.84 v 8.871 c 0,11.926 -11.188,16.254 -13.605,17.051 -0.301,0.097 -0.61,0.097 -0.915,0 C 51.812,67.879 40.625,63.551 40.625,51.625 v -8.871 c 0,-0.949 0.793,-1.707 1.754,-1.84 4.82,-0.664 8.738,-3.898 10.777,-5.93 0.813,-0.812 2.25,-0.812 3.063,0 z" style="fill:currentColor;fill-opacity:1;fill-rule:nonzero;stroke:none" transform="scale(1.3333333)" /> </g>
</svg>

