<?xml version="1.0" encoding="UTF-8" standalone="no"?> <svg version="1.1" id="I8a88bd4b81954e1b872d8cf7a94f735120251110123029" width="100" height="100" viewBox="0 0 100 100" xmlns="http://www.w3.org/2000/svg" xmlns:svg="http://www.w3.org/2000/svg"> <defs id="I6dbc4df5bd754c8890d02bbd5dddc65420251110123029" /> <g id="I35a5fe91d59244e19a2c5948912b343e20251110123029"> <path id="I96ef05f503ba41408f66b9b8e8db293b20251110123029" d="m 15.414,10.715 c -5.551,0 -10.047,4.496 -10.047,10.043 v 30.804 c 0,5.547 4.496,10.043 10.047,10.043 h 44.184 c 5.55,0 10.047,-4.496 10.047,-10.043 V 20.758 c 0,-5.547 -4.497,-10.043 -10.047,-10.043 z M 9.387,20.758 c 0,-3.328 2.695,-6.028 6.027,-6.028 h 8.691 v 42.86 h -8.691 c -3.332,0 -6.027,-2.699 -6.027,-6.028 z M 28.125,57.59 V 14.73 h 31.473 c 3.332,0 6.027,2.7 6.027,6.028 v 30.804 c 0,3.329 -2.695,6.028 -6.027,6.028 z" style="fill:currentColor;fill-opacity:1;fill-rule:nonzero;stroke:none" transform="scale(1.3333333)" /> </g>
</svg>

