<?xml version="1.0" encoding="UTF-8" standalone="no"?> <svg version="1.1" id="Ib7b6104557ab45dba626f7498e441a2820251110130508" width="100" height="100" viewBox="0 0 100 100" xmlns="http://www.w3.org/2000/svg" xmlns:svg="http://www.w3.org/2000/svg"> <defs id="If63fc38c0b8f4d5a94f9e9e259a59cae20251110130508" /> <g id="I560e62dfd09c4975826aa73a1c36175120251110130508"> <path id="I24062ce5efce482a9f7333ea361456bc20251110130508" d="m 41.277,9.695 c -1.547,-3.136 -6.019,-3.136 -7.566,0 L 26.344,24.625 9.867,27.02 c -3.461,0.503 -4.844,4.753 -2.34,7.195 l 11.926,11.621 -2.816,16.41 c -0.59,3.445 3.027,6.074 6.121,4.449 l 9.195,-4.836 0.949,-3.808 C 33.41,56.027 34.453,54.18 35.93,52.703 L 54.355,34.258 c 3.743,-3.746 9.661,-3.996 13.688,-0.742 1.656,-2.477 0.23,-6.039 -2.918,-6.496 L 48.648,24.625 Z M 56.562,36.465 38.137,54.91 c -1.075,1.074 -1.836,2.422 -2.203,3.899 l -1.43,5.722 c -0.621,2.489 1.629,4.742 4.113,4.117 l 5.715,-1.429 c 1.477,-0.367 2.82,-1.133 3.895,-2.207 L 66.652,46.566 c 2.786,-2.789 2.786,-7.312 0,-10.101 -2.785,-2.789 -7.304,-2.789 -10.09,0 z" style="fill:currentColor;fill-opacity:1;fill-rule:nonzero;stroke:none" transform="scale(1.3333333)" /> </g>
</svg>

