<?xml version="1.0" encoding="UTF-8" standalone="no"?> <svg version="1.1" id="I787fdc3c8de04e9ba84c09c7fe19ca3720251106123600" width="100" height="100" viewBox="0 0 100 100" xmlns="http://www.w3.org/2000/svg" xmlns:svg="http://www.w3.org/2000/svg"> <defs id="Ida9370efa063490da057f0bbc27c0c7d20251106123600" /> <g id="I646f89458c66437eade7f3b1f02c364620251106123600"> <path id="I78c5078058f14142bdc532b27888cc6b20251106123600" d="m 55.492,12.5 c 3.883,0 7.031,3.148 7.031,7.031 v 12.5 c 0,1.293 -1.046,2.344 -2.343,2.344 -1.293,0 -2.344,-1.051 -2.344,-2.344 v -12.5 c 0,-1.293 -1.047,-2.343 -2.344,-2.343 H 19.555 c -1.293,0 -2.344,1.05 -2.344,2.343 v 12.5 c 0,1.293 -1.047,2.344 -2.344,2.344 -1.293,0 -2.344,-1.051 -2.344,-2.344 v -12.5 c 0,-3.883 3.149,-7.031 7.032,-7.031 z m 1.633,47.75 7.813,-7.812 c 0.917,-0.915 0.917,-2.399 0,-3.313 l -7.813,-7.813 c -0.914,-0.917 -2.398,-0.917 -3.313,0 -0.917,0.915 -0.917,2.399 0,3.313 l 6.153,6.156 -6.153,6.157 c -0.917,0.914 -0.917,2.398 0,3.312 0.915,0.918 2.399,0.918 3.313,0 z M 10.062,49.125 c -0.917,0.914 -0.917,2.398 0,3.313 l 7.813,7.812 c 0.914,0.918 2.398,0.918 3.313,0 0.917,-0.914 0.917,-2.398 0,-3.312 l -6.153,-6.157 6.153,-6.156 c 0.917,-0.914 0.917,-2.398 0,-3.313 -0.915,-0.917 -2.399,-0.917 -3.313,0 z m 30.563,1.656 c 0,-1.293 -1.051,-2.343 -2.344,-2.343 h -1.562 c -1.293,0 -2.344,1.05 -2.344,2.343 0,1.293 1.051,2.344 2.344,2.344 h 1.562 c 1.293,0 2.344,-1.051 2.344,-2.344 z m -9.375,0 c 0,1.293 -1.051,2.344 -2.344,2.344 h -4.687 c -1.293,0 -2.344,-1.051 -2.344,-2.344 0,-1.293 1.051,-2.343 2.344,-2.343 h 4.687 c 1.293,0 2.344,1.05 2.344,2.343 z m 21.875,0 c 0,-1.293 -1.051,-2.343 -2.344,-2.343 h -4.687 c -1.293,0 -2.344,1.05 -2.344,2.343 0,1.293 1.051,2.344 2.344,2.344 h 4.687 c 1.293,0 2.344,-1.051 2.344,-2.344 z" style="fill:currentColor;fill-opacity:1;fill-rule:nonzero;stroke:none" transform="scale(1.3333333)" /> </g>
</svg>

