<?xml version="1.0" encoding="UTF-8" standalone="no"?> <svg version="1.1" id="I1d3bd2ee5661405aaab6c42eb92fc49020251110130508" width="100" height="100" viewBox="0 0 100 100" xmlns="http://www.w3.org/2000/svg" xmlns:svg="http://www.w3.org/2000/svg"> <defs id="Ib17849ea799848e588a0784dd13e2db120251110130508" /> <g id="I38f03b140d7547ad8b7e56932450674320251110130508"> <path id="I7185cc672e654a9f8c4a70ee4f19de3e20251110130508" d="m 33.711,9.695 c 1.547,-3.136 6.019,-3.136 7.566,0 l 7.371,14.93 16.477,2.395 c 3.457,0.503 4.84,4.757 2.336,7.195 l -2.828,2.758 C 63.156,36.141 61.566,35.492 59.891,35.047 L 63.508,31.523 47.73,29.23 C 46.355,29.031 45.168,28.168 44.551,26.922 L 37.496,12.621 30.438,26.922 c -0.614,1.246 -1.801,2.109 -3.176,2.308 L 11.48,31.523 22.898,42.652 c 0.997,0.969 1.45,2.368 1.215,3.735 l -2.695,15.718 12.965,-6.816 c 0.051,1.691 0.308,3.336 0.746,4.902 l -12.371,6.504 c -3.094,1.629 -6.711,-1 -6.121,-4.449 L 19.453,45.836 7.527,34.215 C 5.023,31.777 6.406,27.523 9.867,27.02 l 16.477,-2.395 z m 38.164,44.993 c 0,9.492 -7.695,17.187 -17.187,17.187 C 45.195,71.875 37.5,64.18 37.5,54.688 37.5,45.195 45.195,37.5 54.688,37.5 c 9.492,0 17.187,7.695 17.187,17.188 z M 51.105,47.98 c 0.61,-0.609 0.61,-1.601 0,-2.21 -0.609,-0.61 -1.601,-0.61 -2.21,0 l -4.688,4.687 c -0.609,0.609 -0.609,1.602 0,2.211 l 4.688,4.687 c 0.609,0.61 1.601,0.61 2.21,0 0.61,-0.609 0.61,-1.601 0,-2.21 l -2.019,-2.02 h 6.383 c 3.883,0 7.031,3.148 7.031,7.031 v 0.782 c 0,0.863 0.699,1.562 1.562,1.562 0.864,0 1.563,-0.699 1.563,-1.562 V 60.156 C 65.625,54.547 61.078,50 55.469,50 h -6.383 z" style="fill:currentColor;fill-opacity:1;fill-rule:nonzero;stroke:none" transform="scale(1.3333333)" /> </g>
</svg>

