<?xml version="1.0" encoding="UTF-8" standalone="no"?> <svg version="1.1" id="If3887efffaa24f94950232a70ca36da020251106152729" width="100" height="100" viewBox="0 0 100 100" xmlns="http://www.w3.org/2000/svg" xmlns:svg="http://www.w3.org/2000/svg"> <defs id="I2a233a60f9cf4aaf948d9250e7d8443c20251106152729" /> <g id="I25d32716a0e6440ca096e3746ef1908220251106152729"> <path id="Ic8458971e67a41338b1ea158c665654820251106152729" d="m 5.367,20.758 v 33.484 c 0,5.547 4.496,10.043 10.047,10.043 h 44.184 c 5.55,0 10.047,-4.496 10.047,-10.043 V 20.758 c 0,-5.547 -4.497,-10.043 -10.047,-10.043 H 15.414 c -5.551,0 -10.047,4.496 -10.047,10.043 z m 40.168,12.054 c 0,-1.109 0.899,-2.007 2.008,-2.007 h 9.375 c 1.109,0 2.012,0.898 2.012,2.007 0,1.11 -0.903,2.008 -2.012,2.008 h -9.375 c -1.109,0 -2.008,-0.898 -2.008,-2.008 z m 2.008,7.368 h 9.375 c 1.109,0 2.012,0.898 2.012,2.008 0,1.109 -0.903,2.007 -2.012,2.007 h -9.375 c -1.109,0 -2.008,-0.898 -2.008,-2.007 0,-1.11 0.899,-2.008 2.008,-2.008 z M 40.18,32.145 c 0,2.218 -1.801,4.015 -4.02,4.015 -2.219,0 -4.019,-1.797 -4.019,-4.015 0,-2.219 1.8,-4.02 4.019,-4.02 2.219,0 4.02,1.801 4.02,4.02 z M 18.75,38.84 h 9.375 c 1.48,0 2.68,1.199 2.68,2.68 v 2.675 c 0,0 0,5.36 -7.367,5.36 -7.368,0 -7.368,-5.36 -7.368,-5.36 V 41.52 c 0,-1.481 1.2,-2.68 2.68,-2.68 z m 9.375,-7.367 c 0,2.589 -2.098,4.687 -4.687,4.687 -2.59,0 -4.688,-2.098 -4.688,-4.687 0,-2.59 2.098,-4.688 4.688,-4.688 2.589,0 4.687,2.098 4.687,4.688 z m 8.035,15.402 h -3.254 c 0.184,-0.457 0.309,-0.879 0.391,-1.242 0.09,-0.379 0.133,-0.699 0.156,-0.945 0.012,-0.122 0.02,-0.227 0.024,-0.309 0,-0.035 0.003,-0.063 0.003,-0.09 V 41.52 c 0,-0.977 -0.261,-1.891 -0.714,-2.68 h 6.074 c 1.476,0 2.676,1.199 2.676,2.68 0,2.957 -2.399,5.355 -5.356,5.355 z" style="fill:currentColor;fill-opacity:1;fill-rule:nonzero;stroke:none" transform="scale(1.3333333)" /> </g>
</svg>

