<?xml version="1.0" encoding="UTF-8" standalone="no"?> <svg version="1.1" id="I30a5f182f8724402bfce1bb7d386183220251106132945" width="100" height="100" viewBox="0 0 100 100" xmlns="http://www.w3.org/2000/svg" xmlns:svg="http://www.w3.org/2000/svg"> <defs id="I955355854c7b48d0a728d7b5b118f04520251106132945" /> <g id="I2f94ca3630874f4bb36bc39d6bcfaacb20251106132945"> <path id="I0c1c98b4a416421ebce5de2dbc289a5d20251106132945" d="m 27.016,13.629 c 4.89,8.914 7.371,16.078 7.371,21 0,4.922 -2.325,9.047 -4.582,11 -0.18,0.156 -0.383,0.297 -0.61,0.426 l -0.359,0.179 c -0.711,0.325 -1.555,0.008 -1.875,-0.703 -0.121,-0.265 -0.156,-0.558 -0.106,-0.843 l 0.083,-0.274 c 1.91,-4.734 2.835,-9.391 2.765,-13.953 -0.023,-1.293 -1.09,-2.328 -2.383,-2.305 -1.246,0.02 -2.25,1.008 -2.304,2.235 l 0.011,0.074 c 0.02,1.152 -0.039,2.32 -0.172,3.5 l -0.21,1.488 -0.129,0.742 -0.215,1.032 -0.317,1.289 -0.136,0.488 C 23.316,40.883 22.605,42.797 21.711,44.73 19.328,49.91 15.215,53.715 9.488,56.086 8.293,56.582 6.922,56.012 6.426,54.816 5.93,53.621 6.5,52.25 7.695,51.754 10.711,50.508 13.121,48.82 14.957,46.688 9.758,45.047 6.734,41.465 6.324,36.469 5.855,30.812 7.984,26.984 13.387,22.68 l 1.531,-1.18 1.109,-0.84 1.157,-0.902 c 2.601,-2.106 4.554,-4.172 5.863,-6.188 0.941,-1.453 3.129,-1.468 3.969,0.059 z m 26.109,5.121 c 4.992,0 9.074,3.906 9.359,8.824 l 0.016,0.551 v 3.125 l 3.129,0.059 c 0.566,0 1.101,0.152 1.562,0.418 0.829,0.48 1.418,1.332 1.539,2.328 l 0.024,0.379 v 6.25 c 0,1.156 -0.629,2.164 -1.563,2.707 -0.347,0.199 -0.734,0.332 -1.144,0.39 L 65.629,43.809 62.5,43.75 v 3.125 c 0,4.996 -3.902,9.074 -8.824,9.359 L 53.125,56.25 H 25.758 c -1.727,0 -3.125,-1.398 -3.125,-3.125 0,-1.602 1.207,-2.922 2.762,-3.102 L 25.758,50 h 1.969 l 0.238,-0.016 0.324,-0.058 c 2.324,-0.508 9.211,-3.758 9.211,-15.492 0,-3.805 -0.941,-8.028 -2.828,-12.672 -0.11,-0.262 -0.164,-0.539 -0.164,-0.824 0,-1.106 0.824,-2.02 1.89,-2.165 l 0.297,-0.023 z" style="fill:currentColor;fill-opacity:1;fill-rule:nonzero;stroke:none" transform="scale(1.3333333)" /> </g>
</svg>

