<?xml version="1.0" encoding="UTF-8" standalone="no"?> <svg version="1.1" id="I6f013058fe354c1fb795d9466416a34d20251110123031" width="100" height="100" viewBox="0 0 100 100" xmlns="http://www.w3.org/2000/svg" xmlns:svg="http://www.w3.org/2000/svg"> <defs id="I845b0f636782488cbf80d4b6a915ffcd20251110123031" /> <g id="Ib54a300e8de5409ea5bca21424e4110020251110123031"> <path id="If22d8ed15d6d4903b863b619f6d45d5f20251110123031" d="m 40.625,50 c 0,-2.223 0.465,-4.336 1.301,-6.25 H 19.539 c -3.879,0 -7.027,3.148 -7.027,7.027 v 2.875 c 0,1.789 0.558,3.532 1.593,4.989 4.821,6.761 12.707,10.113 23.395,10.113 3.672,0 7.016,-0.395 10.016,-1.188 l -1.082,-5.41 C 42.895,59.293 40.625,54.914 40.625,50 Z m 12.5,-28.109 c 0,-8.629 -6.996,-15.625 -15.625,-15.625 -8.629,0 -15.625,6.996 -15.625,15.625 0,8.629 6.996,15.625 15.625,15.625 8.629,0 15.625,-6.996 15.625,-15.625 z M 68.75,50 c 0,4.312 -2.184,8.117 -5.508,10.363 L 62.812,62.5 H 49.688 L 49.262,60.363 C 45.938,58.117 43.75,54.312 43.75,50 c 0,-6.902 5.598,-12.5 12.5,-12.5 6.906,0 12.5,5.598 12.5,12.5 z m -18.438,15.625 0.497,2.48 c 0.441,2.192 2.363,3.77 4.597,3.77 h 1.692 c 2.234,0 4.156,-1.578 4.593,-3.77 l 0.497,-2.48 z" style="fill:currentColor;fill-opacity:1;fill-rule:nonzero;stroke:none" transform="scale(1.3333333)" /> </g>
</svg>

