<?xml version="1.0" encoding="UTF-8" standalone="no"?> <svg version="1.1" id="I17b0905abc424e2293673afb76c3ebd720251106125937" width="100" height="100" viewBox="0 0 100 100" xmlns="http://www.w3.org/2000/svg" xmlns:svg="http://www.w3.org/2000/svg"> <defs id="I7f028e3f54a1431b97682c8b1a4092d220251106125937" /> <g id="I61b6fb00ef0849b8af16e4ec8609e86820251106125937"> <path id="I9cb41f9100774410ad6ecffc77f0a33820251106125937" d="m 52.715,10.168 c 0.855,1.5 0.336,3.41 -1.164,4.266 -5.86,3.347 -8.473,7.382 -9.731,11.546 -1.215,4.028 -1.207,8.262 -1.195,12.696 0,0.386 0,0.777 0,1.168 V 55.738 L 50.914,45.445 c 1.223,-1.218 3.199,-1.218 4.422,0 1.219,1.223 1.219,3.2 0,4.422 L 39.711,65.492 c -1.223,1.219 -3.199,1.219 -4.422,0 L 19.664,49.867 c -1.219,-1.222 -1.219,-3.199 0,-4.422 1.223,-1.218 3.199,-1.218 4.422,0 L 34.375,55.738 V 39.844 c 0,-0.406 0,-0.824 -0.004,-1.25 -0.016,-4.289 -0.035,-9.449 1.465,-14.418 1.711,-5.676 5.348,-11.02 12.613,-15.168 1.5,-0.86 3.406,-0.336 4.266,1.16 z" style="fill:currentColor;fill-opacity:1;fill-rule:nonzero;stroke:none" transform="scale(1.3333333)" /> </g>
</svg>

