<?xml version="1.0" encoding="UTF-8" standalone="no"?> <svg version="1.1" id="I5eb4ffad53354d8693ae5c23cb956de720251106142135" width="100" height="100" viewBox="0 0 100 100" xmlns="http://www.w3.org/2000/svg" xmlns:svg="http://www.w3.org/2000/svg"> <defs id="Icc3b244a3bc2496aa63b3d56e972c8a020251106142135" /> <g id="I2b75a4b1d0954e09aaed54d107c5251c20251106142135"> <path id="I2b7fa0f76b304857be11f7ba28d272e820251106142135" d="m 69.055,8.785 c 0.785,-0.781 0.785,-2.055 0,-2.84 -0.785,-0.785 -2.059,-0.785 -2.84,0 L 44.098,28.059 C 37,22.375 26.613,22.82 20.035,29.395 L 18.176,31.219 6.32,38.465 c -0.527,0.32 -0.875,0.863 -0.949,1.476 -0.074,0.614 0.141,1.223 0.574,1.657 l 27.457,27.457 c 0.434,0.433 1.043,0.648 1.657,0.574 0.613,-0.074 1.156,-0.422 1.476,-0.949 l 7.246,-11.856 1.824,-1.859 c 6.571,-6.582 7.016,-16.969 1.333,-24.063 z m -58.465,31.777 8.527,-5.21 20.531,20.531 -5.21,8.527 z m 32.164,11.571 -0.582,0.594 -19.899,-19.899 0.582,-0.57 0.012,-0.016 c 5.492,-5.488 14.395,-5.488 19.887,0 5.492,5.492 5.492,14.399 0,19.891 z" style="fill:currentColor;fill-opacity:1;fill-rule:nonzero;stroke:none" transform="scale(1.3333333)" /> </g>
</svg>

