<?xml version="1.0" encoding="UTF-8" standalone="no"?> <svg version="1.1" id="I71338e0aef134714b953c14b4174b70420251106142136" width="100" height="100" viewBox="0 0 100 100" xmlns="http://www.w3.org/2000/svg" xmlns:svg="http://www.w3.org/2000/svg"> <defs id="I649a4288c8874d27885638a66a77270e20251106142136" /> <g id="If7e9d8d3be544038b2dbe943f6a1df3720251106142136"> <path id="I7920bdb873d44b55a930729cd17d839120251106142136" d="m 32.637,5.898 c -1.117,-0.73 -2.563,-0.73 -3.676,0 l -12.41,8.153 c -3.332,2.187 -1.785,7.371 2.199,7.375 v 8.457 c -2.594,0.914 -4.543,3.242 -4.867,6.113 l -3.074,26.938 c -0.407,3.574 2.39,6.707 5.988,6.707 H 44.91 c 3.598,0 6.395,-3.133 5.988,-6.707 L 47.824,35.996 C 47.496,33.09 45.5,30.738 42.859,29.848 v -8.422 c 3.973,-0.016 5.516,-5.188 2.184,-7.375 z M 38.84,29.465 H 22.77 V 21.426 H 38.84 Z M 18.758,17.41 30.797,9.5 42.84,17.41 Z m -3.301,40.223 1.086,-9.528 27.769,-7.472 1.02,8.957 z m 1.574,-13.817 0.84,-7.367 c 0.195,-1.691 1.625,-2.969 3.328,-2.969 h 19.309 c 1.703,0 3.133,1.278 3.328,2.969 l 0.016,0.145 z m -2.062,18.11 30.824,-8.301 1.113,9.762 c 0.137,1.191 -0.797,2.238 -1.996,2.238 H 16.797 c -1.199,0 -2.133,-1.047 -1.996,-2.238 z M 51.48,13.98 c -0.781,0.786 -0.781,2.059 0,2.844 0.786,0.781 2.059,0.781 2.844,0 l 4.016,-4.019 c 0.785,-0.785 0.785,-2.059 0,-2.84 -0.781,-0.785 -2.055,-0.785 -2.84,0 z m 0,16.075 c -0.781,0.781 -0.781,2.054 0,2.84 l 4.02,4.015 c 0.785,0.785 2.059,0.785 2.84,0 0.785,-0.781 0.785,-2.055 0,-2.84 l -4.016,-4.015 c -0.785,-0.785 -2.058,-0.785 -2.844,0 z M 62.277,21.43 h -9.375 c -1.109,0 -2.007,0.898 -2.007,2.008 0,1.109 0.898,2.007 2.007,2.007 h 9.375 c 1.11,0 2.008,-0.898 2.008,-2.007 0,-1.11 -0.898,-2.008 -2.008,-2.008 z" style="fill:currentColor;fill-opacity:1;fill-rule:nonzero;stroke:none" transform="scale(1.3333333)" /> </g>
</svg>

