<?xml version="1.0" encoding="UTF-8" standalone="no"?> <svg version="1.1" id="I1b08f00f7d174afe8eecc95d687dc8a220251110130508" width="100" height="100" viewBox="0 0 100 100" xmlns="http://www.w3.org/2000/svg" xmlns:svg="http://www.w3.org/2000/svg"> <defs id="Ib73caec7abee486a854ab2871694441e20251110130508" /> <g id="I9b920c74317e451394de624afa7c540320251110130508"> <path id="I46cbeffabecf49bfbfbad3abeb8736f820251110130508" d="m 9.375,19.531 c 0,-5.609 4.547,-10.156 10.156,-10.156 h 35.938 c 5.609,0 10.156,4.547 10.156,10.156 v 35.938 c 0,5.609 -4.547,10.156 -10.156,10.156 H 19.531 c -5.609,0 -10.156,-4.547 -10.156,-10.156 z m 10.156,-5.469 c -3.019,0 -5.469,2.45 -5.469,5.469 v 7.031 h 12.5 v -12.5 z M 14.062,31.25 v 12.5 h 12.5 v -12.5 z m 17.188,0 v 12.5 h 12.5 v -12.5 z m 17.188,0 v 12.5 h 12.5 v -12.5 z m 0,29.688 h 7.031 c 3.019,0 5.469,-2.45 5.469,-5.469 v -7.031 h -12.5 z m 0,-34.376 h 12.5 v -7.031 c 0,-3.019 -2.45,-5.469 -5.469,-5.469 H 48.438 Z M 14.062,48.438 v 7.031 c 0,3.019 2.45,5.469 5.469,5.469 h 7.031 v -12.5 z" style="fill:currentColor;fill-opacity:1;fill-rule:nonzero;stroke:none" transform="scale(1.3333333)" /> </g>
</svg>

