<?xml version="1.0" encoding="UTF-8" standalone="no"?> <svg version="1.1" id="I6bd25365ccb1462eb2f1cf3dacf064ca20251110130509" width="100" height="100" viewBox="0 0 100 100" xmlns="http://www.w3.org/2000/svg" xmlns:svg="http://www.w3.org/2000/svg"> <defs id="I7d63f430b3ec40458bc2b3d35719ce8b20251110130509" /> <g id="I97fb2dbacf4842b4a410c016df11413020251110130509"> <path id="I43abf0d6059f4c8a811aaeefd00940e520251110130509" d="M 15.004,22.5 V 45 c 0,8.285 6.715,15 15,15 h 22.5 c 0.305,0 0.605,-0.012 0.906,-0.027 -2.062,2.316 -5.062,3.777 -8.406,3.777 h -15 C 19.648,63.75 11.254,55.355 11.254,45 V 30 c 0,-3.344 1.461,-6.344 3.777,-8.406 -0.015,0.301 -0.027,0.601 -0.027,0.906 z M 52.5,11.25 c 6.215,0 11.25,5.035 11.25,11.25 V 45 l -0.016,0.578 C 63.434,51.523 58.52,56.25 52.5,56.25 H 30 C 23.785,56.25 18.75,51.215 18.75,45 V 22.5 c 0,-6.02 4.727,-10.934 10.672,-11.234 L 30,11.25 Z m -30,30 V 45 c 0,4.141 3.359,7.5 7.5,7.5 h 3.75 V 41.25 Z m 15,0 V 52.5 H 45 V 41.25 Z m 11.25,0 V 52.5 h 3.75 c 3.883,0 7.078,-2.953 7.461,-6.734 L 60,45 V 41.25 Z M 22.5,30 v 7.5 H 33.75 V 30 Z m 15,0 v 7.5 H 45 V 30 Z m 11.25,0 v 7.5 H 60 V 30 Z M 30,15 29.234,15.039 C 25.453,15.422 22.5,18.617 22.5,22.5 v 3.75 H 33.75 V 15 Z m 7.5,0 V 26.25 H 45 V 15 Z m 11.25,0 V 26.25 H 60 V 22.5 C 60,18.359 56.641,15 52.5,15 Z" style="fill:currentColor;fill-opacity:1;fill-rule:nonzero;stroke:none" transform="scale(1.3333333)" /> </g>
</svg>

