<?xml version="1.0" encoding="UTF-8" standalone="no"?> <svg version="1.1" id="I3c31a2d9fb9a4321ae9a2ac98a69e62f20251106102215" width="100" height="100" viewBox="0 0 100 100" xmlns="http://www.w3.org/2000/svg" xmlns:svg="http://www.w3.org/2000/svg"> <defs id="I8c52fd63624443c4aa3bd0b8e6b4759020251106102215" /> <g id="I60a0b524c3004ebc8eb31a057fc8487020251106102215"> <path id="I3181f7a5613740a7962c0db1bd7e959d20251106102215" d="M 48.609,50.66 C 48.48,50.484 48.277,50.379 48.062,50.383 H 44.363 C 43.82,50.383 43.5,51 43.82,51.445 l 6.176,8.547 c 0.27,0.367 0.813,0.367 1.082,0 l 9.559,-13.226 c 0.316,-0.442 0,-1.063 -0.543,-1.063 h -3.711 c -0.215,0 -0.418,0.102 -0.543,0.277 l -5.317,7.348 z M 52.23,20.258 v -4.02 c 0,-0.367 -0.3,-0.668 -0.668,-0.668 H 19.418 c -0.367,0 -0.668,0.301 -0.668,0.668 v 4.02 c 0,0.367 0.301,0.668 0.668,0.668 h 32.144 c 0.368,0 0.668,-0.301 0.668,-0.668 z m -32.812,7.363 c -0.367,0 -0.668,0.305 -0.668,0.672 v 4.016 c 0,0.371 0.301,0.671 0.668,0.671 H 34.82 c 0.371,0 0.672,-0.3 0.672,-0.671 v -4.016 c 0,-0.367 -0.301,-0.672 -0.672,-0.672 z M 34.82,65.961 H 12.055 V 7.031 H 58.93 v 24.778 c 0,0.367 0.3,0.668 0.668,0.668 h 4.687 c 0.367,0 0.672,-0.301 0.672,-0.668 V 3.684 c 0,-1.481 -1.199,-2.68 -2.68,-2.68 H 8.707 c -1.484,0 -2.68,1.199 -2.68,2.68 v 65.625 c 0,1.48 1.196,2.679 2.68,2.679 H 34.82 c 0.371,0 0.672,-0.304 0.672,-0.672 v -4.687 c 0,-0.367 -0.301,-0.668 -0.672,-0.668 z M 68.52,39.105 52.449,33.523 c -0.074,-0.023 -0.14,-0.031 -0.219,-0.031 -0.074,0 -0.148,0.008 -0.214,0.031 l -16.075,5.582 c -0.265,0.094 -0.449,0.344 -0.449,0.629 v 21.02 c 0,0.207 0.09,0.402 0.258,0.527 l 16.07,12.571 c 0.118,0.093 0.27,0.144 0.41,0.144 0.145,0 0.293,-0.051 0.411,-0.144 L 68.715,61.281 c 0.156,-0.125 0.258,-0.32 0.258,-0.527 v -21.02 c 0,-0.285 -0.184,-0.535 -0.453,-0.629 z M 63.785,58.57 52.23,67.602 40.68,58.57 V 42.941 l 11.55,-4.019 11.555,4.019 z" style="fill:currentColor;fill-opacity:1;fill-rule:nonzero;stroke:none" transform="scale(1.3333333)" /> </g>
</svg>

