<?xml version="1.0" encoding="UTF-8" standalone="no"?> <svg version="1.1" id="I895535c354684da1b4c06c11f3047e0320251106161452" width="100" height="100" viewBox="0 0 100 100" xmlns="http://www.w3.org/2000/svg" xmlns:svg="http://www.w3.org/2000/svg"> <defs id="Ic3c8d65a09bb4b3a887143a1e902d43420251106161452" /> <g id="I9c5024e8cf66400788094081580cb4b220251106161452"> <path id="Ie3de12174d9c4f9aaf2bde33eab049c920251106161452" d="m 54.227,19.238 c 0.078,0.078 0.148,0.16 0.207,0.25 l 4.941,4.942 v -4.086 c 0,-1.66 -0.66,-3.254 -1.836,-4.426 L 52.188,10.582 C 49.402,7.809 45.633,6.25 41.707,6.25 H 21.875 c -3.453,0 -6.25,2.797 -6.25,6.25 v 0.398 c 1.773,-1.234 3.926,-1.96 6.25,-1.96 h 19.832 c 2.688,0 5.266,1.066 7.168,2.964 z M 8.594,46.875 c 1.293,0 2.344,1.051 2.344,2.344 v 5.469 c 0,5.179 4.199,9.374 9.374,9.374 h 34.376 c 5.179,0 9.374,-4.195 9.374,-9.374 v -5.469 c 0,-1.293 1.051,-2.344 2.344,-2.344 1.293,0 2.344,1.051 2.344,2.344 v 5.469 c 0,7.765 -6.297,14.062 -14.062,14.062 H 20.312 C 12.547,68.75 6.25,62.453 6.25,54.688 v -5.469 c 0,-1.293 1.051,-2.344 2.344,-2.344 z m 30.468,-31.25 v 14.844 c 0,3.019 2.45,5.469 5.469,5.469 h 14.844 v 17.187 c 0,3.453 -2.797,6.25 -6.25,6.25 h -31.25 c -3.453,0 -6.25,-2.797 -6.25,-6.25 v -31.25 c 0,-3.453 2.797,-6.25 6.25,-6.25 z M 25,27.344 c 0,1.293 1.051,2.344 2.344,2.344 h 4.687 c 1.293,0 2.344,-1.051 2.344,-2.344 C 34.375,26.051 33.324,25 32.031,25 H 27.344 C 26.051,25 25,26.051 25,27.344 Z m 2.344,7.031 c -1.293,0 -2.344,1.051 -2.344,2.344 0,1.293 1.051,2.343 2.344,2.343 h 4.687 c 1.293,0 2.344,-1.05 2.344,-2.343 0,-1.293 -1.051,-2.344 -2.344,-2.344 z M 25,46.094 c 0,1.293 1.051,2.344 2.344,2.344 h 4.687 c 1.293,0 2.344,-1.051 2.344,-2.344 0,-1.293 -1.051,-2.344 -2.344,-2.344 H 27.344 C 26.051,43.75 25,44.801 25,46.094 Z M 43.75,15.629 v 14.84 c 0,0.429 0.352,0.781 0.781,0.781 h 14.844 z" style="fill:currentColor;fill-opacity:1;fill-rule:nonzero;stroke:none" transform="scale(1.3333333)" /> </g>
</svg>

