<?xml version="1.0" encoding="UTF-8" standalone="no"?> <svg version="1.1" id="If6f504fdc1424a8aa7b1bda2202afad120251110130509" width="100" height="100" viewBox="0 0 100 100" xmlns="http://www.w3.org/2000/svg" xmlns:svg="http://www.w3.org/2000/svg"> <defs id="I3e88aa77f2b04a0cb6820c9023b3d9f620251110130509" /> <g id="I51fe132f7a6c4bcc9c4a1afd94f388a720251110130509"> <path id="Ia7371ec0e598422998971e194737566c20251110130509" d="m 7.031,17.578 c 0,-5.824 4.723,-10.547 10.547,-10.547 h 39.844 c 5.824,0 10.547,4.723 10.547,10.547 v 39.844 c 0,5.824 -4.723,10.547 -10.547,10.547 H 17.578 c -5.824,0 -10.547,-4.723 -10.547,-10.547 z m 10.547,-5.859 c -3.234,0 -5.859,2.625 -5.859,5.859 v 8.203 H 25.781 V 11.719 Z m -5.859,18.75 V 44.531 H 25.781 V 30.469 Z m 18.75,0 V 44.531 H 44.531 V 30.469 Z m 18.75,0 V 44.531 H 63.281 V 30.469 Z m -4.688,18.75 H 30.469 v 14.062 h 14.062 z m 4.688,14.062 h 8.203 c 3.234,0 5.859,-2.625 5.859,-5.859 V 49.219 H 49.219 Z m 0,-37.5 h 14.062 v -8.203 c 0,-3.234 -2.625,-5.859 -5.859,-5.859 H 49.219 Z M 44.531,11.719 H 30.469 v 14.062 h 14.062 z m -32.812,37.5 v 8.203 c 0,3.234 2.625,5.859 5.859,5.859 h 8.203 V 49.219 Z" style="fill:currentColor;fill-opacity:1;fill-rule:nonzero;stroke:none" transform="scale(1.3333333)" /> </g>
</svg>

