<?xml version="1.0" encoding="UTF-8" standalone="no"?> <svg version="1.1" id="I0d2e628cb5714092ba1630da47415cde20251106123600" width="100" height="100" viewBox="0 0 100 100" xmlns="http://www.w3.org/2000/svg" xmlns:svg="http://www.w3.org/2000/svg"> <defs id="I61272435f89443179405e9fa0ed7b95420251106123600" /> <g id="I760f19bf0f51486f9eea6763fb64fc2420251106123600"> <path id="I67cdad4eb91b47c8b0685c4153354e6620251106123600" d="m 41.312,53.809 c -0.832,0.832 -0.91,2.132 -0.226,3.05 l 0.226,0.266 7.399,7.406 c 0.391,0.649 1.172,1.094 2.074,1.094 0.785,0 1.485,-0.34 1.91,-0.863 l 0.164,-0.235 7.399,-7.402 0.226,-0.266 c 0.606,-0.812 0.61,-1.933 0.02,-2.757 L 60.258,53.809 59.992,53.582 C 59.18,52.977 58.059,52.969 57.234,53.559 l -0.293,0.25 -3.816,3.816 V 11.426 l -0.023,-0.278 c -0.153,-1.003 -1.133,-1.773 -2.321,-1.773 -1.187,0 -2.168,0.773 -2.324,1.773 l -0.019,0.278 v 46.199 l -3.813,-3.816 -0.262,-0.227 c -0.918,-0.68 -2.218,-0.605 -3.051,0.227 z m -21.781,8.714 c -3.883,0 -7.031,-3.148 -7.031,-7.031 V 19.555 c 0,-3.883 3.148,-7.032 7.031,-7.032 h 18.75 c 1.293,0 2.344,1.051 2.344,2.344 0,1.297 -1.051,2.344 -2.344,2.344 h -18.75 c -1.293,0 -2.343,1.051 -2.343,2.344 v 35.937 c 0,1.297 1.05,2.344 2.343,2.344 h 12.5 c 1.293,0 2.344,1.051 2.344,2.344 0,1.297 -1.051,2.343 -2.344,2.343 z" style="fill:currentColor;fill-opacity:1;fill-rule:nonzero;stroke:none" transform="scale(1.3333333)" /> </g>
</svg>

