<?xml version="1.0" encoding="UTF-8" standalone="no"?> <svg version="1.1" id="I31a40b3b7e724434a90f719474e278c620251110130508" width="100" height="100" viewBox="0 0 100 100" xmlns="http://www.w3.org/2000/svg" xmlns:svg="http://www.w3.org/2000/svg"> <defs id="I9e4306d4105f48e2a22d94be1bbbfd4620251110130508" /> <g id="Ie9ead3a47a4546ae93951204e7e1335320251110130508"> <path id="I81cf6024afe44ae6a3b067a70b70d7f720251110130508" d="m 33.711,9.695 c 1.547,-3.136 6.019,-3.136 7.566,0 l 7.371,14.93 16.477,2.395 c 3.457,0.503 4.84,4.753 2.336,7.195 l -2.828,2.758 C 63.156,36.141 61.566,35.488 59.891,35.047 L 63.508,31.52 47.73,29.227 c -1.375,-0.2 -2.562,-1.063 -3.179,-2.305 L 37.496,12.621 30.438,26.922 c -0.614,1.242 -1.801,2.105 -3.176,2.305 L 11.48,31.52 22.898,42.652 c 0.997,0.969 1.45,2.364 1.215,3.735 l -2.695,15.715 12.965,-6.817 c 0.051,1.695 0.308,3.34 0.746,4.906 L 22.758,66.695 C 19.664,68.32 16.047,65.691 16.637,62.246 L 19.453,45.836 7.527,34.215 C 5.023,31.773 6.406,27.523 9.867,27.02 l 16.477,-2.395 z m 38.164,44.993 c 0,9.492 -7.695,17.187 -17.187,17.187 C 45.195,71.875 37.5,64.18 37.5,54.688 37.5,45.195 45.195,37.5 54.688,37.5 c 9.492,0 17.187,7.695 17.187,17.188 z m -29.687,0 c 0,2.601 0.796,5.023 2.16,7.023 L 61.715,44.344 c -2.004,-1.36 -4.422,-2.156 -7.027,-2.156 -6.903,0 -12.5,5.593 -12.5,12.5 z m 12.5,12.5 c 6.902,0 12.5,-5.598 12.5,-12.5 0,-2.606 -0.797,-5.024 -2.161,-7.028 L 47.66,65.027 c 2.004,1.364 4.422,2.161 7.028,2.161 z" style="fill:currentColor;fill-opacity:1;fill-rule:nonzero;stroke:none" transform="scale(1.3333333)" /> </g>
</svg>

