<?xml version="1.0" encoding="UTF-8" standalone="no"?> <svg version="1.1" id="If443958682d94032a767528ec2a08d2c20251110124420" width="100" height="100" viewBox="0 0 100 100" xmlns="http://www.w3.org/2000/svg" xmlns:svg="http://www.w3.org/2000/svg"> <defs id="I9e6fb391bcf44df5a38367eb316c2c5620251110124420" /> <g id="I4a0511a76dbb418f8e00857b709ba0f220251110124420"> <path id="Ib4232649597d4c3c8b36ff408559803520251110124420" d="m 8.035,15.402 c 0,-4.07 3.297,-7.367 7.367,-7.367 h 30.805 c 4.066,0 7.363,3.297 7.363,7.367 v 30.133 h 13.395 v 11.383 c 0,5.551 -4.496,10.047 -10.047,10.047 H 18.082 C 12.531,66.965 8.035,62.469 8.035,56.918 Z M 53.57,62.945 h 3.348 c 3.328,0 6.027,-2.699 6.027,-6.027 V 49.555 H 53.57 Z M 15.402,12.055 c -1.851,0 -3.347,1.496 -3.347,3.347 v 41.516 c 0,3.328 2.695,6.027 6.027,6.027 H 49.555 V 15.402 c 0,-1.851 -1.5,-3.347 -3.348,-3.347 z m 5.356,9.375 c -1.11,0 -2.008,0.898 -2.008,2.008 0,1.109 0.898,2.007 2.008,2.007 h 20.09 c 1.109,0 2.007,-0.898 2.007,-2.007 0,-1.11 -0.898,-2.008 -2.007,-2.008 z M 18.75,36.832 c 0,-1.109 0.898,-2.012 2.008,-2.012 h 20.09 c 1.109,0 2.007,0.903 2.007,2.012 0,1.109 -0.898,2.008 -2.007,2.008 h -20.09 c -1.11,0 -2.008,-0.899 -2.008,-2.008 z m 2.008,11.383 c -1.11,0 -2.008,0.898 -2.008,2.008 0,1.109 0.898,2.007 2.008,2.007 h 9.375 c 1.109,0 2.012,-0.898 2.012,-2.007 0,-1.11 -0.903,-2.008 -2.012,-2.008 z" style="fill:currentColor;fill-opacity:1;fill-rule:nonzero;stroke:none" transform="scale(1.3333333)" /> </g>
</svg>

