<?xml version="1.0" encoding="UTF-8" standalone="no"?> <svg version="1.1" id="I4f03b0532dd847429d24aff1328e058a20251106161453" width="100" height="100" viewBox="0 0 100 100" xmlns="http://www.w3.org/2000/svg" xmlns:svg="http://www.w3.org/2000/svg"> <defs id="I46d6786d7692467aa7657c4b5affe06e20251106161453" /> <g id="I75ba1101dc38489395c9ed13452ad71c20251106161453"> <path id="Icc997e1c067c4e9e8ef7e27a0ecc743320251106161453" d="m 51.559,6.25 h 0.007 c 3.313,0.008 6.485,1.328 8.825,3.672 2.343,2.34 3.664,5.512 3.671,8.824 v 7.875 l 4.325,5.191 c 0.39,0.465 0.472,1.114 0.215,1.665 -0.258,0.546 -0.809,0.898 -1.414,0.898 h -31.25 c -0.606,0 -1.157,-0.352 -1.415,-0.898 -0.257,-0.551 -0.175,-1.2 0.215,-1.665 l 4.324,-5.191 v -7.875 c 0.008,-3.312 1.329,-6.484 3.672,-8.824 2.34,-2.344 5.512,-3.664 8.825,-3.672 z m -33.59,9.375 h 18.289 c -0.207,1.016 -0.317,2.059 -0.32,3.113 v 1.574 H 20.312 v 40.626 h 25.782 c 1.293,0 2.344,-1.051 2.344,-2.344 V 43.215 c 0.976,0.347 2.031,0.535 3.124,0.535 0.532,0 1.055,-0.043 1.563,-0.129 v 14.973 c 0,3.883 -3.148,7.031 -7.031,7.031 H 17.969 c -1.293,0 -2.344,-1.051 -2.344,-2.344 V 17.969 c 0,-1.293 1.051,-2.344 2.344,-2.344 z m 30.48,24.164 C 47.504,39.238 46.723,38.449 46.18,37.5 h 10.765 c -0.543,0.949 -1.324,1.738 -2.269,2.289 -0.946,0.547 -2.02,0.836 -3.114,0.836 -1.093,0 -2.167,-0.289 -3.113,-0.836 z" style="fill:currentColor;fill-opacity:1;fill-rule:nonzero;stroke:none" transform="scale(1.3333333)" /> </g>
</svg>

