<?xml version="1.0" encoding="UTF-8" standalone="no"?> <svg version="1.1" id="I364830017f1545e698933f731a52545f20251106143238" width="100" height="100" viewBox="0 0 100 100" xmlns="http://www.w3.org/2000/svg" xmlns:svg="http://www.w3.org/2000/svg"> <defs id="I9adaef7761df473581c99a6db6a58f0920251106143238" /> <g id="I3978b4b080ac40f0be26c20f4bff0c6a20251106143238"> <path id="Ia8cdaaff6f0f4ce084f35a11a1de96b120251106143238" d="m 55.469,9.375 c 5.609,0 10.156,4.547 10.156,10.156 V 37.5 H 60.938 V 26.562 H 14.062 v 28.907 c 0,3.019 2.45,5.469 5.469,5.469 h 14.844 v 4.687 H 19.531 C 13.922,65.625 9.375,61.078 9.375,55.469 V 19.531 c 0,-5.609 4.547,-10.156 10.156,-10.156 z m 0,4.687 H 19.531 c -3.019,0 -5.469,2.45 -5.469,5.469 v 2.344 h 46.876 v -2.344 c 0,-3.019 -2.45,-5.469 -5.469,-5.469 z M 43.75,40.625 c -3.453,0 -6.25,2.797 -6.25,6.25 v 18.75 c 0,3.453 2.797,6.25 6.25,6.25 h 21.875 c 3.453,0 6.25,-2.797 6.25,-6.25 v -18.75 c 0,-3.453 -2.797,-6.25 -6.25,-6.25 z m 0,10.937 C 43.75,50.699 44.449,50 45.312,50 h 18.75 c 0.864,0 1.563,0.699 1.563,1.562 0,0.864 -0.699,1.563 -1.563,1.563 h -18.75 c -0.863,0 -1.562,-0.699 -1.562,-1.563 z m 0,9.376 c 0,-0.864 0.699,-1.563 1.562,-1.563 h 18.75 c 0.864,0 1.563,0.699 1.563,1.563 0,0.863 -0.699,1.562 -1.563,1.562 h -18.75 c -0.863,0 -1.562,-0.699 -1.562,-1.562 z" style="fill:currentColor;fill-opacity:1;fill-rule:nonzero;stroke:none" transform="scale(1.3333333)" /> </g>
</svg>

