<?xml version="1.0" encoding="UTF-8" standalone="no"?> <svg version="1.1" id="Ideaefd7f45264c79a6c5833b6c11560020251106132945" width="100" height="100" viewBox="0 0 100 100" xmlns="http://www.w3.org/2000/svg" xmlns:svg="http://www.w3.org/2000/svg"> <defs id="I28cd941810ff4bbb9938a65ab4943d7d20251106132945" /> <g id="I82b6d85ef8f64a64a038d3f3c4db19cd20251106132945"> <path id="I7f682b59fdac4358ad09b17ea735c1f320251106132945" d="m 57.035,7.805 c 5.418,0 9.844,4.238 10.141,9.582 l 0.015,0.574 v 37.512 c -0.003,5.609 -4.55,10.156 -10.156,10.156 H 19.531 c -5.414,0 -9.84,-4.238 -10.14,-9.578 L 9.375,55.473 V 17.961 C 9.379,12.355 13.926,7.805 19.535,7.805 Z M 35.938,29.68 14.062,29.684 v 25.789 l 0.024,0.504 c 0.254,2.785 2.594,4.964 5.445,4.964 H 35.938 Z M 62.5,48.43 40.625,48.434 v 12.507 h 16.406 c 3.024,0 5.473,-2.449 5.473,-5.468 z M 57.035,12.492 H 40.625 V 43.746 L 62.5,43.742 62.504,17.961 62.48,17.461 c -0.253,-2.785 -2.593,-4.969 -5.445,-4.969 z m -21.097,0 H 19.535 l -0.449,0.02 c -2.813,0.23 -5.02,2.582 -5.024,5.449 v 7.035 l 21.876,-0.004 z" style="fill:currentColor;fill-opacity:1;fill-rule:nonzero;stroke:none" transform="scale(1.3333333)" /> </g>
</svg>

