<?xml version="1.0" encoding="UTF-8" standalone="no"?> <svg version="1.1" id="I55df8c5255e94dd4aca3dc6461e3704f20251110130510" width="100" height="100" viewBox="0 0 100 100" xmlns="http://www.w3.org/2000/svg" xmlns:svg="http://www.w3.org/2000/svg"> <defs id="Ie0576d2294684ca4b06055e22cd8255720251110130510" /> <g id="I7738407e0f4445c6907aef26a4e7d53b20251110130510"> <path id="Id510be85d9ae4aefaa74db4283f61c3c20251110130510" d="m 17.969,9.375 c -4.746,0 -8.594,3.848 -8.594,8.594 v 39.062 c 0,4.746 3.848,8.594 8.594,8.594 h 39.062 c 4.746,0 8.594,-3.848 8.594,-8.594 V 17.969 c 0,-4.746 -3.848,-8.594 -8.594,-8.594 z m -3.907,8.594 c 0,-2.157 1.75,-3.907 3.907,-3.907 h 39.062 c 2.157,0 3.907,1.75 3.907,3.907 v 39.062 c 0,2.157 -1.75,3.907 -3.907,3.907 H 17.969 c -2.157,0 -3.907,-1.75 -3.907,-3.907 z m 8.594,17.969 c -1.293,0 -2.344,1.05 -2.344,2.343 0,1.293 1.051,2.344 2.344,2.344 h 29.688 c 1.293,0 2.344,-1.051 2.344,-2.344 0,-1.293 -1.051,-2.343 -2.344,-2.343 z m 0,12.5 c -1.293,0 -2.344,1.05 -2.344,2.343 0,1.293 1.051,2.344 2.344,2.344 h 20.313 c 1.293,0 2.343,-1.051 2.343,-2.344 0,-1.293 -1.05,-2.343 -2.343,-2.343 z" style="fill:currentColor;fill-opacity:1;fill-rule:nonzero;stroke:none" transform="scale(1.3333333)" /> </g>
</svg>

