<?xml version="1.0" encoding="UTF-8" standalone="no"?> <svg version="1.1" id="I3ee5bbafb9b84bfaa630801234ca8eac20251106123559" width="100" height="100" viewBox="0 0 100 100" xmlns="http://www.w3.org/2000/svg" xmlns:svg="http://www.w3.org/2000/svg"> <defs id="I9cc8ceb8b62546b78c0fde5f16f96c4f20251106123559"> <linearGradient x1="3.3610799" y1="3.3013" x2="10.6708" y2="30.134399" gradientUnits="userSpaceOnUse" gradientTransform="scale(2.678571)" spreadMethod="pad" id="I1bbad34598c748caa9e339a87d3b9aa020251106123559"> <stop style="stop-opacity:1;stop-color:#0fafff" offset="0" id="I92a5b10a3a5f4605a4d6c0e17b94bbc520251106123559" /> <stop style="stop-opacity:1;stop-color:#0067bf" offset="1" id="Ia404ce88d9654968b7f1961882e5b3dd20251106123559" /> </linearGradient> <linearGradient x1="18.335899" y1="12.2249" x2="6.7431402" y2="17.765699" gradientUnits="userSpaceOnUse" gradientTransform="scale(2.678571)" spreadMethod="pad" id="I3f31169ca984452da78e186bccd38a0520251106123559"> <stop style="stop-opacity:1;stop-color:#42b870" offset="0" id="Ie90a3e59f90a4b70a45d1e5da530e58220251106123559" /> <stop style="stop-opacity:1;stop-color:#309c61" offset="1" id="I66e421eb5b5245218e31a11f26fe0fb820251106123559" /> </linearGradient> </defs> <g id="Ice2b50c1928a46be834522694860738120251106123559"> <path id="I5a51c7fcaf3d43d6aef94700d2465f3520251106123559" d="m 35.809,5.707 c -0.914,-0.914 -2.399,-0.918 -3.313,0 -0.918,0.914 -0.918,2.398 0,3.313 l 4.02,4.023 C 21.23,13.559 9.004,26.109 9.004,41.52 c 0,15.734 12.758,28.492 28.492,28.492 15.492,0 28.098,-12.364 28.484,-27.766 0.032,-1.293 -0.988,-2.367 -2.285,-2.402 -1.293,-0.032 -2.367,0.992 -2.402,2.285 -0.32,12.863 -10.852,23.195 -23.797,23.195 -13.148,0 -23.805,-10.656 -23.805,-23.804 0,-12.829 10.145,-23.29 22.852,-23.79 l -4.047,4.051 c -0.918,0.914 -0.918,2.399 0,3.313 0.914,0.918 2.399,0.918 3.313,0 l 8.035,-8.035 c 0.918,-0.914 0.918,-2.399 0,-3.313 z" transform="scale(1.3333333)" style="fill:url(#I1bbad34598c748caa9e339a87d3b9aa020251106123559);stroke:none" /> <path id="Ia1147f1bcab849deaccbc0b9407b752c20251106123559" d="m 49.203,32.496 c -0.914,-0.918 -2.398,-0.918 -3.316,0 L 33.48,44.898 29.105,40.527 c -0.914,-0.914 -2.398,-0.914 -3.312,0 -0.914,0.918 -0.914,2.403 0,3.317 l 6.031,6.023 c 0.918,0.918 2.399,0.914 3.317,0 L 49.203,35.809 c 0.914,-0.914 0.914,-2.399 0,-3.313 z" transform="scale(1.3333333)" style="fill:url(#I3f31169ca984452da78e186bccd38a0520251106123559);stroke:none" /> </g>
</svg>

