<?xml version="1.0" encoding="UTF-8" standalone="no"?> <svg version="1.1" id="Ie64013899eed455e906ff6f7a64d714820251106103256" width="100" height="100" viewBox="0 0 100 100" xmlns="http://www.w3.org/2000/svg" xmlns:svg="http://www.w3.org/2000/svg"> <defs id="Ice95c197594546088f05ff51b1cb1e7320251106103256" /> <g id="I47cd10a10eea4a0d8125410d69f3a4ef20251106103256"> <path id="Ia17a9634155943de8c1ef93aed331a0520251106103256" d="m 52.633,29.188 0.019,-0.016 -2.898,-3.707 c -0.227,-0.293 -0.645,-0.348 -0.938,-0.117 l -4.218,3.289 -5.903,-7.543 C 38.473,20.801 38.051,20.75 37.758,20.977 l -3.172,2.484 c -0.289,0.227 -0.344,0.648 -0.117,0.937 l 5.902,7.551 -0.016,0.008 2.895,3.711 c 0.227,0.293 0.645,0.344 0.938,0.117 l 4.218,-3.289 5.367,6.863 c 0.227,0.293 0.645,0.344 0.938,0.118 l 3.172,-2.481 C 58.176,36.773 58.227,36.352 58,36.059 Z M 45.535,4.02 C 31.48,4.02 20.09,15.41 20.09,29.465 c 0,5.883 2,11.301 5.348,15.609 L 4.211,66.305 c -0.262,0.261 -0.262,0.683 0,0.945 l 3.539,3.539 c 0.262,0.262 0.688,0.262 0.945,0 L 29.926,49.562 C 34.234,52.91 39.652,54.91 45.535,54.91 59.59,54.91 70.98,43.52 70.98,29.465 70.98,15.41 59.59,4.02 45.535,4.02 Z m 13.492,38.937 c -3.597,3.609 -8.394,5.594 -13.492,5.594 -5.097,0 -9.894,-1.985 -13.492,-5.594 -3.609,-3.598 -5.594,-8.395 -5.594,-13.492 0,-5.098 1.985,-9.895 5.594,-13.492 3.598,-3.61 8.395,-5.594 13.492,-5.594 5.098,0 9.895,1.984 13.492,5.594 3.61,3.597 5.594,8.394 5.594,13.492 0,5.097 -1.984,9.894 -5.594,13.492 z" style="fill:currentColor;fill-opacity:1;fill-rule:nonzero;stroke:none" transform="scale(1.3333333)" /> </g>
</svg>

