<?xml version="1.0" encoding="UTF-8" standalone="no"?> <svg version="1.1" id="I4fa8318a45264fcfa578a28106b61fb020251110133655" width="100" height="100" viewBox="0 0 100 100" xmlns="http://www.w3.org/2000/svg" xmlns:svg="http://www.w3.org/2000/svg"> <defs id="Iccc9b330b668463bb9dc2d00f1899e8720251110133655" /> <g id="I55e805a4fec44744be0c1122e58b674920251110133655"> <path id="I8cc836dae4064540aec110283eebbba120251110133655" d="m 55.574,33.465 c 1.864,1.863 3.473,4.117 4.699,6.512 0.786,1.539 0.18,3.421 -1.359,4.207 -1.535,0.785 -3.418,0.175 -4.203,-1.36 -0.938,-1.832 -2.168,-3.554 -3.555,-4.941 -5.945,-5.945 -14.824,-7.164 -21.972,-3.66 -1.356,-1.871 -3.289,-3.301 -5.539,-4.02 9.859,-6.504 23.253,-5.418 31.929,3.262 z M 15.57,30.352 c -0.269,0.269 -0.539,0.554 -0.808,0.847 -1.871,1.102 -3.383,2.746 -4.324,4.715 -0.918,0.332 -1.981,0.231 -2.844,-0.371 -1.418,-0.984 -1.77,-2.93 -0.785,-4.348 1.336,-1.929 2.812,-3.734 4.339,-5.261 14.543,-14.543 38.122,-14.543 52.661,0 1.589,1.586 3.086,3.398 4.386,5.285 0.981,1.422 0.625,3.367 -0.797,4.347 C 65.98,36.547 64.035,36.191 63.055,34.77 61.961,33.188 60.703,31.668 59.391,30.352 47.289,18.25 27.672,18.25 15.57,30.352 Z m 33.602,12.46 c 1.441,1.438 2.621,3.2 3.441,5.075 0.692,1.582 -0.027,3.425 -1.605,4.117 -1.582,0.695 -3.426,-0.027 -4.117,-1.606 -0.52,-1.179 -1.262,-2.293 -2.137,-3.168 -2.297,-2.292 -5.418,-3.253 -8.406,-2.878 -1.114,-1.813 -2.946,-3.133 -5.098,-3.571 v -0.156 c 0,-0.437 -0.027,-0.867 -0.074,-1.289 5.961,-2.547 13.133,-1.391 17.996,3.476 z m -8.356,8.567 c 1.832,1.832 1.832,4.801 0,6.633 -0.914,0.918 -2.117,1.375 -3.316,1.375 v -9.383 c 1.199,0 2.402,0.457 3.316,1.375 z M 12.5,43.75 v -3.125 c 0,-4.316 3.496,-7.813 7.812,-7.813 4.317,0 7.813,3.497 7.813,7.813 v 3.125 h 1.563 c 2.589,0 4.687,2.098 4.687,4.688 v 15.624 c 0,2.59 -2.098,4.688 -4.687,4.688 H 10.938 C 8.348,68.75 6.25,66.652 6.25,64.062 V 48.438 c 0,-2.59 2.098,-4.688 4.688,-4.688 z m 4.688,-3.125 v 3.125 h 6.25 v -3.125 c 0,-1.727 -1.399,-3.125 -3.126,-3.125 -1.726,0 -3.124,1.398 -3.124,3.125 z m 6.25,15.625 c 0,-1.727 -1.399,-3.125 -3.126,-3.125 -1.726,0 -3.124,1.398 -3.124,3.125 0,1.727 1.398,3.125 3.124,3.125 1.727,0 3.126,-1.398 3.126,-3.125 z" style="fill:currentColor;fill-opacity:1;fill-rule:nonzero;stroke:none" transform="scale(1.3333333)" /> </g>
</svg>

