<?xml version="1.0" encoding="UTF-8" standalone="no"?> <svg version="1.1" id="Iabafc84660504948bb8d704724afccc020251110130508" width="100" height="100" viewBox="0 0 100 100" xmlns="http://www.w3.org/2000/svg" xmlns:svg="http://www.w3.org/2000/svg"> <defs id="I84390215ef504e089554f166f369ceed20251110130508" /> <g id="I898fffbda643402080a328e20a14380420251110130508"> <path id="I65f620911f774005b9a29d0e6590862820251110130508" d="M 48.688,35.156 H 26.312 l 2.782,-3.129 c 0.863,-0.968 0.773,-2.449 -0.192,-3.308 -0.968,-0.864 -2.449,-0.774 -3.308,0.191 l -6.25,7.031 c -0.793,0.891 -0.793,2.227 0,3.118 l 6.25,7.031 c 0.859,0.965 2.34,1.055 3.308,0.191 0.965,-0.859 1.055,-2.34 0.192,-3.308 l -2.782,-3.129 h 22.376 l -2.782,3.129 c -0.863,0.968 -0.773,2.449 0.192,3.308 0.968,0.864 2.449,0.774 3.308,-0.191 l 6.25,-7.031 0.035,-0.039 c 0.329,-0.387 0.536,-0.879 0.559,-1.422 0,-0.063 0,-0.125 0,-0.188 -0.023,-0.566 -0.246,-1.082 -0.598,-1.476 L 49.406,28.91 c -0.859,-0.965 -2.34,-1.055 -3.308,-0.191 -0.965,0.859 -1.055,2.34 -0.192,3.308 z M 19.531,9.375 c -5.609,0 -10.156,4.547 -10.156,10.156 v 35.938 c 0,5.609 4.547,10.156 10.156,10.156 h 35.938 c 5.609,0 10.156,-4.547 10.156,-10.156 V 19.531 c 0,-5.609 -4.547,-10.156 -10.156,-10.156 z m -5.469,10.156 c 0,-3.019 2.45,-5.469 5.469,-5.469 h 35.938 c 3.019,0 5.469,2.45 5.469,5.469 v 0.781 H 14.062 Z m 0,5.469 H 60.938 V 50 H 14.062 Z m 46.876,29.688 v 0.781 c 0,3.019 -2.45,5.469 -5.469,5.469 H 19.531 c -3.019,0 -5.469,-2.45 -5.469,-5.469 v -0.781 z" style="fill:currentColor;fill-opacity:1;fill-rule:nonzero;stroke:none" transform="scale(1.3333333)" /> </g>
</svg>

