<?xml version="1.0" encoding="UTF-8" standalone="no"?> <svg version="1.1" id="I4b1ab7ec82d34b119d16fe8552bfa6ca20251106123600" width="100" height="100" viewBox="0 0 100 100" xmlns="http://www.w3.org/2000/svg" xmlns:svg="http://www.w3.org/2000/svg"> <defs id="I37181e753a1f479ca7c28a4a3d30eb7420251106123600" /> <g id="I103cbc8d7e3a497592ffc5113dc55bf220251106123600"> <path id="I3d2993381f4b404293adfbae736ab36120251106123600" d="m 30.469,32.812 c -1.293,0 -2.344,1.051 -2.344,2.344 0,1.293 1.051,2.344 2.344,2.344 h 10.867 c 1.293,0 2.344,-1.051 2.344,-2.344 0,-1.293 -1.051,-2.344 -2.344,-2.344 z M 14.844,6.25 c -3.02,0 -5.469,2.449 -5.469,5.469 v 7.812 c 0,2.18 1.277,4.067 3.125,4.942 v 24.746 c 0,6.472 5.246,11.719 11.719,11.719 h 23.437 c 6.473,0 11.719,-5.247 11.719,-11.719 V 24.473 C 61.223,23.598 62.5,21.711 62.5,19.531 V 11.719 C 62.5,8.699 60.051,6.25 57.031,6.25 Z m 2.344,42.969 V 25 h 37.5 v 24.219 c 0,3.883 -3.149,7.031 -7.032,7.031 H 24.219 c -3.883,0 -7.031,-3.148 -7.031,-7.031 z m -3.126,-37.5 c 0,-0.43 0.352,-0.781 0.782,-0.781 h 42.187 c 0.43,0 0.781,0.351 0.781,0.781 v 7.812 c 0,0.43 -0.351,0.781 -0.781,0.781 H 14.844 c -0.43,0 -0.782,-0.351 -0.782,-0.781 z m 53.126,25 c 0,-3.832 -1.84,-7.239 -4.688,-9.375 v 23.437 c 0,7.336 -5.945,13.281 -13.281,13.281 H 22.656 c 2.137,2.848 5.543,4.688 9.375,4.688 h 17.188 c 9.926,0 17.969,-8.043 17.969,-17.969 z" style="fill:currentColor;fill-opacity:1;fill-rule:nonzero;stroke:none" transform="scale(1.3333333)" /> </g>
</svg>

