<?xml version="1.0" encoding="UTF-8" standalone="no"?> <svg version="1.1" id="I3dd456cb125a46e7800df8d48a3c674b20251106151527" width="100" height="100" viewBox="0 0 100 100" xmlns="http://www.w3.org/2000/svg" xmlns:svg="http://www.w3.org/2000/svg"> <defs id="I5251bf8dea5b40ec9ca3f77148c16d3220251106151527" /> <g id="Ifcde73deeb3749e18780722907ab434e20251106151527"> <path id="I0ab8377a94b14a4a97dc692fa3e6e86120251106151527" d="m 66.797,42.188 h -5.859 v -9.376 h 5.859 c 0.621,0 1.219,-0.246 1.656,-0.687 0.442,-0.437 0.688,-1.035 0.688,-1.656 0,-0.621 -0.246,-1.219 -0.688,-1.657 -0.437,-0.441 -1.035,-0.687 -1.656,-0.687 h -5.859 v -4.687 c 0,-0.622 -0.247,-1.219 -0.688,-1.657 -0.438,-0.441 -1.035,-0.687 -1.656,-0.687 -0.621,0 -1.219,0.246 -1.656,0.687 -0.442,0.438 -0.688,1.035 -0.688,1.657 v 4.687 h -9.375 v -4.687 c 0,-0.622 -0.246,-1.219 -0.687,-1.657 -0.438,-0.441 -1.036,-0.687 -1.657,-0.687 -0.621,0 -1.219,0.246 -1.656,0.687 -0.441,0.438 -0.687,1.035 -0.687,1.657 v 4.687 H 37.5 c -0.621,0 -1.219,0.246 -1.656,0.687 -0.442,0.438 -0.688,1.036 -0.688,1.657 0,0.621 0.246,1.219 0.688,1.656 0.437,0.441 1.035,0.687 1.656,0.687 h 4.688 v 9.376 H 37.5 c -0.621,0 -1.219,0.246 -1.656,0.687 -0.442,0.437 -0.688,1.035 -0.688,1.656 0,0.621 0.246,1.219 0.688,1.657 0.437,0.441 1.035,0.687 1.656,0.687 h 4.688 v 4.687 c 0,0.622 0.246,1.219 0.687,1.657 0.437,0.441 1.035,0.687 1.656,0.687 0.621,0 1.219,-0.246 1.657,-0.687 0.441,-0.438 0.687,-1.035 0.687,-1.657 v -4.687 h 9.375 v 4.687 c 0,0.622 0.246,1.219 0.688,1.657 0.437,0.441 1.035,0.687 1.656,0.687 0.621,0 1.218,-0.246 1.656,-0.687 0.441,-0.438 0.688,-1.035 0.688,-1.657 v -4.687 h 5.859 c 0.621,0 1.219,-0.246 1.656,-0.687 0.442,-0.438 0.688,-1.036 0.688,-1.657 0,-0.621 -0.246,-1.219 -0.688,-1.656 -0.437,-0.441 -1.035,-0.687 -1.656,-0.687 z m -19.922,0 v -9.376 h 9.375 v 9.376 z M 30.469,21.094 c 0,0.621 -0.246,1.218 -0.688,1.656 -0.437,0.441 -1.035,0.688 -1.656,0.688 H 14.062 v 11.718 h 11.719 c 0.621,0 1.219,0.246 1.657,0.688 0.441,0.437 0.687,1.035 0.687,1.656 0,0.621 -0.246,1.219 -0.687,1.656 -0.438,0.442 -1.036,0.688 -1.657,0.688 H 14.062 v 14.062 c 0,0.621 -0.246,1.219 -0.687,1.656 -0.437,0.442 -1.035,0.688 -1.656,0.688 -0.621,0 -1.219,-0.246 -1.657,-0.688 C 9.621,55.125 9.375,54.527 9.375,53.906 V 21.094 c 0,-0.621 0.246,-1.219 0.687,-1.656 0.438,-0.442 1.036,-0.688 1.657,-0.688 h 16.406 c 0.621,0 1.219,0.246 1.656,0.688 0.442,0.437 0.688,1.035 0.688,1.656 z" style="fill:currentColor;fill-opacity:1;fill-rule:nonzero;stroke:none" transform="scale(1.3333333)" /> </g>
</svg>

