<?xml version="1.0" encoding="UTF-8" standalone="no"?> <svg version="1.1" id="I1489bd297c2641ddb834ce215aed185b20251106164749" width="100" height="100" viewBox="0 0 100 100" xmlns="http://www.w3.org/2000/svg" xmlns:svg="http://www.w3.org/2000/svg"> <defs id="I667c468aacff4e02a4d5d484c823289120251106164749" /> <g id="I19e2d9e2fd1d4da186e68d87148a066620251106164749"> <path id="Ib4b62abd699746ac8c83e44b1b959a5f20251106164749" d="M 33.527,8.473 C 36.582,5.418 41.645,5.816 44.184,9.312 L 45.188,10.688 24.957,30.914 23.77,30.125 C 20.078,27.664 19.562,22.441 22.699,19.301 Z m -4.593,25.093 8.007,5.336 c 0.27,0.184 0.5,0.418 0.676,0.692 l 3.856,6.058 18.785,-18.785 -6.719,-4.887 c -0.195,-0.144 -0.371,-0.32 -0.516,-0.515 l -5.046,-6.942 z m 15.953,17.454 -0.836,-1.317 20.043,-20.047 1.597,1.16 c 3.497,2.543 3.891,7.606 0.836,10.661 L 55.789,52.215 c -3.18,3.18 -8.488,2.597 -10.902,-1.195 z M 29.191,38.434 10.215,57.055 c -2.184,2.14 -2.199,5.648 -0.039,7.812 2.148,2.145 5.629,2.145 7.773,-0.004 L 36.965,45.852 34.496,41.973 Z m 16.903,20.945 c -1.293,0 -2.344,1.047 -2.344,2.344 0,1.293 1.051,2.343 2.344,2.343 h -6.25 c -1.293,0 -2.344,1.047 -2.344,2.344 0,1.293 1.051,2.344 2.344,2.344 h 26.562 c 1.293,0 2.344,-1.051 2.344,-2.344 0,-1.297 -1.051,-2.344 -2.344,-2.344 h -6.25 c 1.293,0 2.344,-1.05 2.344,-2.343 0,-1.297 -1.051,-2.344 -2.344,-2.344 z" style="fill:currentColor;fill-opacity:1;fill-rule:nonzero;stroke:none" transform="scale(1.3333333)" /> </g>
</svg>

