<?xml version="1.0" encoding="UTF-8" standalone="no"?> <svg version="1.1" id="I627584cddfc246609bbae1c7c10d381d20251110135155" width="100" height="100" viewBox="0 0 100 100" xmlns="http://www.w3.org/2000/svg" xmlns:svg="http://www.w3.org/2000/svg"> <defs id="I31b85d07cefe4d2e9c922d81c06e040920251110135155" /> <g id="I4f72ecb6599143e28912640b619d35c120251110135155"> <path id="Iccc845f9713d4b7bbaf8abdebb8f8b3a20251110135155" d="M 46.117,11.934 C 44.641,8.484 41.254,6.25 37.504,6.25 c -3.754,0 -7.141,2.234 -8.617,5.684 L 15.574,42.992 c -0.058,0.129 -0.113,0.258 -0.168,0.391 l -5.269,12.301 c -2.039,4.757 0.164,10.269 4.922,12.308 4.761,2.039 10.269,-0.164 12.312,-4.926 l 2.922,-6.816 h 14.422 l 2.922,6.816 c 2.039,4.762 7.551,6.965 12.308,4.926 4.758,-2.039 6.965,-7.551 4.926,-12.308 L 59.598,43.379 C 59.543,43.25 59.488,43.121 59.43,42.992 Z m -5.742,2.461 13.367,31.187 c 0.016,0.043 0.035,0.086 0.055,0.129 l 5.328,12.434 c 0.68,1.585 -0.055,3.421 -1.641,4.101 -1.586,0.68 -3.425,-0.055 -4.105,-1.641 L 48.836,50 H 26.172 l -4.547,10.605 c -0.68,1.586 -2.516,2.321 -4.105,1.641 -1.586,-0.68 -2.321,-2.516 -1.641,-4.101 l 5.328,-12.434 c 0.02,-0.043 0.039,-0.086 0.059,-0.129 L 34.629,14.395 c 0.492,-1.149 1.625,-1.895 2.875,-1.895 1.25,0 2.379,0.746 2.871,1.895 z M 46.156,43.75 H 28.848 l 8.656,-20.191 z" style="fill:currentColor;fill-opacity:1;fill-rule:nonzero;stroke:none" transform="scale(1.3333333)" /> </g>
</svg>

