<?xml version="1.0" encoding="UTF-8" standalone="no"?> <svg version="1.1" id="Ic8a075160cc14d0f8b5500602871d10020251106102216" width="100" height="100" viewBox="0 0 100 100" xmlns="http://www.w3.org/2000/svg" xmlns:svg="http://www.w3.org/2000/svg"> <defs id="I55c7c4f80222438d92dfab0d97543efd20251106102216" /> <g id="I765809c41df4453f83945e0dcb9b615f20251106102216"> <path id="Icdde726dc3e24c0890071cde740efd0320251106102216" d="M 27.371,14.809 C 27.305,14.254 26.625,14.02 26.234,14.414 L 22.574,18.07 11.383,6.891 c -0.262,-0.262 -0.684,-0.262 -0.945,0 L 6.891,10.43 c -0.262,0.261 -0.262,0.683 0,0.945 l 11.191,11.191 -3.676,3.676 c -0.394,0.395 -0.16,1.07 0.395,1.137 l 13.406,1.582 c 0.43,0.051 0.797,-0.309 0.746,-0.742 z m 0.848,31.238 -13.418,1.582 c -0.555,0.066 -0.789,0.746 -0.395,1.137 l 3.676,3.675 -11.191,11.176 c -0.262,0.262 -0.262,0.684 0,0.945 l 3.547,3.54 c 0.261,0.261 0.687,0.261 0.945,0 l 11.191,-11.184 3.66,3.66 c 0.395,0.395 1.071,0.16 1.137,-0.394 l 1.582,-13.403 c 0.051,-0.426 -0.308,-0.785 -0.734,-0.734 z M 46.781,28.953 60.199,27.371 c 0.555,-0.066 0.789,-0.746 0.395,-1.137 L 56.918,22.566 68.109,11.383 c 0.262,-0.258 0.262,-0.684 0,-0.945 l -3.547,-3.54 c -0.261,-0.261 -0.683,-0.261 -0.945,0 L 52.426,18.07 48.766,14.414 c -0.395,-0.394 -1.071,-0.16 -1.137,0.395 l -1.582,13.398 c -0.051,0.438 0.308,0.797 0.734,0.746 z m 10.137,23.481 3.676,-3.676 c 0.394,-0.395 0.16,-1.07 -0.395,-1.137 L 46.793,46.039 c -0.43,-0.051 -0.797,0.309 -0.746,0.742 l 1.582,13.41 c 0.066,0.555 0.746,0.789 1.137,0.395 l 3.66,-3.656 11.191,11.179 c 0.258,0.262 0.684,0.262 0.945,0 l 3.547,-3.539 c 0.262,-0.258 0.262,-0.687 0,-0.945 z" style="fill:currentColor;fill-opacity:1;fill-rule:nonzero;stroke:none" transform="scale(1.3333333)" /> </g>
</svg>

