<?xml version="1.0" encoding="UTF-8" standalone="no"?> <svg version="1.1" id="I24e801140ec3489eaaedb5d90f8a3b9320251110130508" width="100" height="100" viewBox="0 0 100 100" xmlns="http://www.w3.org/2000/svg" xmlns:svg="http://www.w3.org/2000/svg"> <defs id="I2967cf27eb1d4c6cb066b4e897477bad20251110130508" /> <g id="Ibb656e1af74943b191490118f8a8a03920251110130508"> <path id="I593fae58b43a495eafed77a30683685a20251110130508" d="m 18.781,59.375 c 0.399,5.242 4.778,9.375 10.125,9.375 h 25 c 8.199,0 14.844,-6.645 14.844,-14.844 V 43.551 c -0.473,0.226 -1.027,0.355 -1.688,0.355 -1.398,0 -2.332,-0.586 -3,-1.445 v 11.445 c 0,5.61 -4.546,10.156 -10.156,10.156 h -25 c -2.754,0 -5.035,-2.039 -5.414,-4.687 z M 56.25,31.957 v -0.859 c -0.535,0.207 -1.109,0.312 -1.688,0.304 -1.113,-0.004 -2.164,-0.394 -3,-1.062 v 15.754 c 0,3.019 -2.449,5.468 -5.468,5.468 H 16.406 c -3.019,0 -5.468,-2.449 -5.468,-5.468 V 16.406 c 0,-3.019 2.449,-5.468 5.468,-5.468 h 10.156 v 5.468 c 0,3.883 3.149,7.032 7.032,7.032 h 15.07 C 48.07,21.879 46.562,20.715 45,20.184 L 40.633,18.75 h -7.039 c -1.293,0 -2.344,-1.051 -2.344,-2.344 v -5.468 h 7.32 c 0.563,-0.7 1.321,-1.25 2.211,-1.567 L 44.969,7.996 C 45.926,7.676 46.785,7.094 47.449,6.34 47.004,6.281 46.555,6.25 46.094,6.25 H 16.406 C 10.797,6.25 6.25,10.797 6.25,16.406 v 29.688 c 0,5.609 4.547,10.156 10.156,10.156 h 29.688 c 5.609,0 10.156,-4.547 10.156,-10.156 V 33.957 c -0.086,-0.32 -0.129,-0.652 -0.125,-0.992 0,-0.34 0.039,-0.68 0.125,-1.008 z M 50.277,20.039 c -0.226,-0.293 -0.472,-0.57 -0.734,-0.832 -0.977,-0.98 -2.168,-1.719 -3.477,-2.156 l -4.304,-1.395 c -0.332,-0.117 -0.621,-0.336 -0.824,-0.621 -0.204,-0.289 -0.313,-0.633 -0.313,-0.984 0,-0.352 0.109,-0.696 0.313,-0.981 0.203,-0.289 0.492,-0.504 0.824,-0.621 l 4.304,-1.398 c 1.293,-0.446 2.465,-1.184 3.426,-2.16 0.934,-0.946 1.641,-2.09 2.07,-3.348 L 51.598,5.438 52.996,1.133 C 53.113,0.801 53.332,0.516 53.617,0.312 53.906,0.109 54.25,0 54.602,0 c 0.351,0 0.695,0.109 0.98,0.312 0.289,0.204 0.508,0.489 0.625,0.821 l 1.398,4.305 c 0.434,1.308 1.168,2.496 2.145,3.468 0.977,0.977 2.164,1.711 3.473,2.145 l 4.304,1.398 0.086,0.02 c 0.332,0.117 0.621,0.336 0.825,0.621 0.203,0.289 0.312,0.633 0.312,0.984 0,0.352 -0.109,0.696 -0.312,0.981 -0.204,0.289 -0.493,0.504 -0.825,0.621 l -4.304,1.398 c -1.309,0.434 -2.497,1.168 -3.473,2.145 -0.977,0.972 -1.711,2.16 -2.145,3.469 l -1.398,4.304 c -0.016,0.035 -0.027,0.07 -0.043,0.106 -0.125,0.285 -0.324,0.535 -0.578,0.714 -0.289,0.204 -0.633,0.313 -0.984,0.313 -0.352,0 -0.696,-0.109 -0.985,-0.313 -0.285,-0.203 -0.504,-0.488 -0.621,-0.82 L 51.684,22.688 C 51.367,21.73 50.891,20.832 50.277,20.039 Z M 74.32,31.918 71.93,31.141 C 71.203,30.898 70.543,30.488 70,29.949 69.457,29.406 69.051,28.746 68.809,28.02 L 68.031,25.629 C 67.965,25.445 67.844,25.285 67.684,25.172 67.527,25.062 67.336,25 67.141,25 c -0.196,0 -0.387,0.062 -0.547,0.172 -0.16,0.113 -0.282,0.273 -0.344,0.457 l -0.777,2.391 c -0.239,0.722 -0.641,1.378 -1.172,1.921 -0.535,0.539 -1.184,0.95 -1.903,1.2 l -2.394,0.777 c -0.184,0.062 -0.344,0.184 -0.457,0.344 -0.109,0.16 -0.172,0.347 -0.172,0.543 0,0.195 0.063,0.386 0.172,0.547 0.113,0.16 0.273,0.281 0.457,0.343 l 2.394,0.778 c 0.727,0.242 1.391,0.652 1.93,1.195 0.543,0.547 0.949,1.207 1.192,1.937 l 0.777,2.391 c 0.066,0.184 0.183,0.344 0.344,0.457 0.16,0.109 0.351,0.172 0.547,0.172 0.195,0 0.386,-0.063 0.546,-0.172 0.161,-0.113 0.278,-0.273 0.344,-0.457 l 0.777,-2.391 c 0.243,-0.726 0.649,-1.386 1.192,-1.929 0.543,-0.539 1.203,-0.949 1.93,-1.192 l 2.394,-0.777 c 0.184,-0.062 0.344,-0.184 0.457,-0.344 C 74.938,33.203 75,33.016 75,32.82 75,32.625 74.938,32.434 74.828,32.273 74.715,32.113 74.555,31.992 74.371,31.93 Z" style="fill:currentColor;fill-opacity:1;fill-rule:nonzero;stroke:none" transform="scale(1.3333333)" /> </g>
</svg>

