<?xml version="1.0" encoding="UTF-8" standalone="no"?> <svg version="1.1" id="Ieca390cf1d1d4cea8b09af51cf7f7ef920251106155156" width="100" height="100" viewBox="0 0 100 100" xmlns="http://www.w3.org/2000/svg" xmlns:svg="http://www.w3.org/2000/svg"> <defs id="I3205d486f8db4306807d790a20588cf020251106155156" /> <g id="I0196c9196df447b595ee6e8b8774b2f820251106155156"> <path id="I36306bfb7a82495cbb4c529706ae23d620251106155156" d="m 27.344,34.375 c 1.293,0 2.344,1.051 2.344,2.344 v 20.312 c 0,1.293 -1.051,2.344 -2.344,2.344 C 26.051,59.375 25,58.324 25,57.031 V 36.719 c 0,-1.293 1.051,-2.344 2.344,-2.344 z m 12.5,14.844 c 0,-1.293 -1.051,-2.344 -2.344,-2.344 -1.293,0 -2.344,1.051 -2.344,2.344 v 7.812 c 0,1.293 1.051,2.344 2.344,2.344 1.293,0 2.344,-1.051 2.344,-2.344 z m 7.812,-8.594 c 1.293,0 2.344,1.051 2.344,2.344 v 14.062 c 0,1.293 -1.051,2.344 -2.344,2.344 -1.293,0 -2.344,-1.051 -2.344,-2.344 V 42.969 c 0,-1.293 1.051,-2.344 2.344,-2.344 z M 39.008,6.25 c 1.039,0 2.031,0.41 2.762,1.145 l 8.918,8.917 c 0.027,0.024 0.05,0.051 0.078,0.079 l 9.902,9.902 c 1.172,1.172 1.832,2.762 1.832,4.418 V 62.5 c 0,3.449 -2.801,6.25 -6.25,6.25 h -37.5 c -3.449,0 -6.25,-2.801 -6.25,-6.25 v -50 c 0,-3.449 2.801,-6.25 6.25,-6.25 z M 18.75,10.938 c -0.863,0 -1.562,0.703 -1.562,1.562 v 50 c 0,0.859 0.699,1.562 1.562,1.562 h 37.5 c 0.863,0 1.562,-0.703 1.562,-1.562 V 31.25 H 43.75 C 40.301,31.25 37.5,28.449 37.5,25 V 10.938 Z m 23.438,3.503 V 25 c 0,0.859 0.699,1.562 1.562,1.562 h 10.555 z" style="fill:currentColor;fill-opacity:1;fill-rule:nonzero;stroke:none" transform="scale(1.3333333)" /> </g>
</svg>

