<?xml version="1.0" encoding="UTF-8" standalone="no"?> <svg version="1.1" id="I2716b6497cbd42dca703e037ab12069220251106152729" width="100" height="100" viewBox="0 0 100 100" xmlns="http://www.w3.org/2000/svg" xmlns:svg="http://www.w3.org/2000/svg"> <defs id="Iec6134775a524f69b8f6163512e5442b20251106152729" /> <g id="I31a3b19ca2204fa9995897a47cbebed520251106152729"> <path id="I1dd77048d5c84b5fb38f7dab156227b320251106152729" d="m 3.766,20.605 c 0,-9.308 7.554,-16.855 16.875,-16.855 9.32,0 16.875,7.547 16.875,16.855 0,9.309 -7.555,16.856 -16.875,16.856 -9.321,0 -16.875,-7.547 -16.875,-16.856 z m 23.984,3.36 -3.359,3.355 v -5.777 c 0,-5.691 -4.618,-10.301 -10.313,-10.301 h -0.937 c -1.036,0 -1.875,0.84 -1.875,1.871 0,1.035 0.839,1.875 1.875,1.875 h 0.937 c 3.625,0 6.563,2.934 6.563,6.555 v 5.777 l -3.364,-3.355 c -0.73,-0.731 -1.918,-0.731 -2.652,0 -0.73,0.73 -0.73,1.918 0,2.648 l 6.57,6.563 c 0.18,0.176 0.383,0.308 0.602,0.398 0.223,0.09 0.465,0.141 0.719,0.141 0.254,0 0.496,-0.051 0.714,-0.141 0.223,-0.09 0.43,-0.226 0.61,-0.406 l 6.562,-6.555 c 0.735,-0.73 0.735,-1.918 0,-2.648 -0.73,-0.731 -1.918,-0.731 -2.652,0 z M 7.504,36.5 c 1.152,0.949 2.406,1.777 3.75,2.461 v 12.82 c 0,0.766 0.465,1.457 1.18,1.739 l 21.589,8.628 c 2.235,0.891 4.727,0.891 6.961,0 l 21.59,-8.628 c 0.711,-0.282 1.18,-0.973 1.18,-1.739 v -28.64 c 0,-0.766 -0.469,-1.453 -1.18,-1.739 L 40.984,12.777 C 40.508,12.586 40.016,12.438 39.52,12.328 38.898,10.914 38.125,9.59 37.219,8.363 c 1.75,-0.035 3.504,0.274 5.16,0.938 l 21.59,8.625 c 2.133,0.851 3.535,2.918 3.535,5.215 v 28.64 c 0,2.297 -1.402,4.364 -3.535,5.219 l -21.59,8.625 c -3.129,1.25 -6.621,1.25 -9.75,0 L 11.039,57 C 8.902,56.145 7.504,54.078 7.504,51.781 Z m 32.012,-7.598 c -0.957,2.168 -2.282,4.145 -3.887,5.844 V 50.57 c 0,1.035 0.84,1.875 1.875,1.875 1.035,0 1.875,-0.84 1.875,-1.875 V 33.059 l 15.762,-6.997 c 0.945,-0.417 1.371,-1.527 0.949,-2.472 -0.418,-0.945 -1.528,-1.371 -2.473,-0.949 z" style="fill:currentColor;fill-opacity:1;fill-rule:nonzero;stroke:none" transform="scale(1.3333333)" /> </g>
</svg>

