<?xml version="1.0" encoding="UTF-8" standalone="no"?> <svg version="1.1" id="I6eddd8cc9b064a658225849b15bdd49420251106161453" width="100" height="100" viewBox="0 0 100 100" xmlns="http://www.w3.org/2000/svg" xmlns:svg="http://www.w3.org/2000/svg"> <defs id="I076554328b0b4786a2ea483b0ce99d3820251106161453" /> <g id="Id67e62f7bcea4cb2883b803f118248f720251106161453"> <path id="I7169ab2ebc9b450da862c2963083a1c820251106161453" d="M 47.23,53.906 V 50 h -7.695 l 0.305,0.613 c 0.515,1.032 0.785,2.168 0.785,3.317 v 0.758 h 5.824 c 0.43,0 0.781,-0.352 0.781,-0.782 z m 0,-8.594 H 37.191 l -0.55,-1.105 C 36.168,43.266 35.512,42.453 34.73,41.805 v -1.18 h 11.719 c 0.43,0 0.781,0.352 0.781,0.781 z m -6.605,17.969 v -3.906 h 5.824 c 3.02,0 5.469,-2.449 5.469,-5.469 v -12.5 c 0,-3.019 -2.449,-5.468 -5.469,-5.468 H 28.688 c -1.344,-0.985 -3,-1.563 -4.793,-1.563 H 11.293 V 12.5 c 0,-3.453 2.797,-6.25 6.25,-6.25 h 18.75 V 25 c 0,3.453 2.797,6.25 6.25,6.25 h 18.75 V 62.5 c 0,3.453 -2.801,6.25 -6.25,6.25 h -16.82 c 1.476,-1.355 2.402,-3.305 2.402,-5.469 z M 40.98,25 V 7.812 l 18.75,18.75 H 42.543 C 41.68,26.562 40.98,25.863 40.98,25 Z M 3.125,42.512 c 0,-2.766 2.246,-5.012 5.012,-5.012 h 15.758 c 2.769,0 5.011,2.246 5.011,5.012 V 43.23 H 30 c 1.629,0 3.117,0.918 3.844,2.375 l 3.203,6.403 c 0.297,0.597 0.453,1.258 0.453,1.922 v 9.351 c 0,2.375 -1.922,4.297 -4.297,4.297 H 31.59 c -0.637,2.473 -2.879,4.297 -5.547,4.297 -2.672,0 -4.914,-1.824 -5.551,-4.297 h -3.226 c -0.633,2.473 -2.879,4.297 -5.547,4.297 -2.828,0 -5.176,-2.047 -5.645,-4.738 C 4.336,66.348 3.125,64.598 3.125,62.566 Z m 25.781,3.582 v 5.73 H 33.75 L 31.281,46.887 C 31.039,46.398 30.543,46.094 30,46.094 Z M 11.719,63.281 c -1.582,0 -2.864,1.281 -2.864,2.864 0,1.582 1.282,2.867 2.864,2.867 1.582,0 2.863,-1.285 2.863,-2.867 0,-1.583 -1.281,-2.864 -2.863,-2.864 z m 11.457,2.864 c 0,1.582 1.285,2.867 2.867,2.867 1.582,0 2.863,-1.285 2.863,-2.867 0,-1.583 -1.281,-2.864 -2.863,-2.864 -1.582,0 -2.867,1.281 -2.867,2.864 z" style="fill:currentColor;fill-opacity:1;fill-rule:nonzero;stroke:none" transform="scale(1.3333333)" /> </g>
</svg>

