<?xml version="1.0" encoding="UTF-8" standalone="no"?> <svg version="1.1" id="I012f958d3dd846efb9bd541c3b2ae77920251110123030" width="100" height="100" viewBox="0 0 100 100" xmlns="http://www.w3.org/2000/svg" xmlns:svg="http://www.w3.org/2000/svg"> <defs id="Ieb3aece814004012bb160bb3ddb5e0fe20251110123030" /> <g id="Ie1ab41b1c9324bee8a67c5ea31255b6720251110123030"> <path id="I2330005e184c4af39ecd0d7621c84ed420251110123030" d="m 54.688,37.5 c 9.492,0 17.187,7.695 17.187,17.188 0,9.492 -7.695,17.187 -17.187,17.187 C 45.195,71.875 37.5,64.18 37.5,54.688 37.5,45.195 45.195,37.5 54.688,37.5 Z M 37.57,43.75 c -0.925,1.445 -1.675,3.02 -2.215,4.688 H 13.293 c -1.293,0 -2.344,1.05 -2.344,2.343 v 2.836 c 0,2.051 0.895,3.996 2.449,5.332 3.93,3.379 9.856,5.117 17.852,5.117 1.871,0 3.629,-0.093 5.277,-0.285 0.778,1.563 1.758,3.012 2.903,4.317 -2.508,0.437 -5.235,0.656 -8.18,0.656 -9.027,0 -16.023,-2.051 -20.91,-6.25 C 7.75,60.277 6.262,57.031 6.262,53.617 v -2.836 c 0,-3.883 3.148,-7.031 7.031,-7.031 z m 9.598,3.02 -0.219,0.183 -0.179,0.215 c -0.368,0.531 -0.368,1.242 0,1.777 l 0.179,0.215 5.531,5.531 -5.523,5.52 -0.18,0.219 c -0.367,0.531 -0.367,1.242 0,1.773 l 0.18,0.219 0.219,0.18 c 0.531,0.371 1.242,0.371 1.777,0 l 0.215,-0.18 5.523,-5.524 5.528,5.532 0.215,0.179 c 0.535,0.368 1.246,0.368 1.777,0 l 0.219,-0.179 0.179,-0.219 c 0.368,-0.531 0.368,-1.242 0,-1.777 l -0.179,-0.215 -5.532,-5.528 5.54,-5.531 0.179,-0.215 c 0.367,-0.535 0.367,-1.246 0,-1.777 L 62.438,46.953 62.219,46.77 c -0.531,-0.368 -1.242,-0.368 -1.778,0 L 60.227,46.953 54.691,52.48 49.16,46.953 48.945,46.77 C 48.488,46.453 47.898,46.41 47.406,46.633 Z M 31.25,6.266 c 8.629,0 15.625,6.996 15.625,15.625 0,8.629 -6.996,15.625 -15.625,15.625 -8.629,0 -15.625,-6.996 -15.625,-15.625 0,-8.629 6.996,-15.625 15.625,-15.625 z m 0,4.687 c -6.039,0 -10.938,4.899 -10.938,10.938 0,6.039 4.899,10.937 10.938,10.937 6.043,0 10.938,-4.898 10.938,-10.937 0,-6.039 -4.895,-10.938 -10.938,-10.938 z" style="fill:currentColor;fill-opacity:1;fill-rule:nonzero;stroke:none" transform="scale(1.3333333)" /> </g>
</svg>

