<?xml version="1.0" encoding="UTF-8" standalone="no"?> <svg version="1.1" id="Ifc52758d506542f79b56e8a24664104920251106171633" width="100" height="100" viewBox="0 0 100 100" xmlns="http://www.w3.org/2000/svg" xmlns:svg="http://www.w3.org/2000/svg"> <defs id="Id1446f39c6734e2fa40f29172094b53120251106171633" /> <g id="Idf336ebbae724e7bb9bbfdbc777ac33820251106171633"> <path id="Ica7ce3346b004ac0b84474ef8e210ec720251106171633" d="m 30.469,23.438 c 0,-1 -0.633,-1.891 -1.578,-2.215 -0.946,-0.328 -1.993,-0.016 -2.61,0.769 l -0.015,0.02 c -0.02,0.023 -0.047,0.058 -0.086,0.105 -0.082,0.098 -0.207,0.246 -0.379,0.438 -0.336,0.383 -0.848,0.933 -1.508,1.574 -1.324,1.293 -3.234,2.926 -5.578,4.332 -1.11,0.664 -1.469,2.105 -0.801,3.215 0.664,1.109 2.106,1.469 3.215,0.804 1.801,-1.082 3.363,-2.265 4.652,-3.367 v 22.449 c 0,1.293 1.051,2.344 2.344,2.344 1.297,0 2.344,-1.051 2.344,-2.344 z M 41.5,38.188 c -0.914,-0.918 -2.398,-0.918 -3.312,0 -0.915,0.914 -0.915,2.398 0,3.312 l 4.203,4.203 -4.203,4.203 c -0.915,0.914 -0.915,2.399 0,3.313 0.914,0.918 2.398,0.918 3.312,0 l 4.203,-4.199 4.203,4.199 c 0.914,0.918 2.399,0.918 3.313,0 0.918,-0.914 0.918,-2.399 0,-3.313 L 49.02,45.703 53.219,41.5 c 0.918,-0.914 0.918,-2.398 0,-3.312 -0.914,-0.918 -2.399,-0.918 -3.313,0 l -4.203,4.199 z" style="fill:currentColor;fill-opacity:1;fill-rule:nonzero;stroke:none" transform="scale(1.3333333)" /> </g>
</svg>

