<?xml version="1.0" encoding="UTF-8" standalone="no"?> <svg version="1.1" id="I0a2a63d87fab4b648000a4dcc5978aa420251106144521" width="100" height="100" viewBox="0 0 100 100" xmlns="http://www.w3.org/2000/svg" xmlns:svg="http://www.w3.org/2000/svg"> <defs id="Ic524cf24b26040ae82680467fa2399eb20251106144521" /> <g id="I7f47af5cde9e4d4ea60266440a38b94220251106144521"> <path id="I52f5ddfca70c491c80f22a1207e5825220251106144521" d="m 45.312,26.562 c 0,-10.355 -8.394,-18.75 -18.75,-18.75 -10.355,0 -18.75,8.395 -18.75,18.75 0,10.356 8.395,18.75 18.75,18.75 10.356,0 18.75,-8.394 18.75,-18.75 z m 4.688,0 C 50,39.508 39.508,50 26.562,50 13.617,50 3.125,39.508 3.125,26.562 3.125,13.617 13.617,3.125 26.562,3.125 39.508,3.125 50,13.617 50,26.562 Z m 13.375,19.626 c 0.918,-0.915 0.918,-2.399 0,-3.313 -0.914,-0.918 -2.398,-0.918 -3.313,0 l -10.843,10.84 -4.594,-4.59 c -0.914,-0.918 -2.398,-0.918 -3.313,0 -0.917,0.914 -0.917,2.398 0,3.313 l 6.25,6.25 c 0.915,0.917 2.399,0.917 3.313,0 z m -25,-28.313 c 0.918,0.914 0.918,2.398 0,3.313 l -12.5,12.5 c -0.914,0.917 -2.398,0.917 -3.313,0 l -6.25,-6.25 c -0.917,-0.915 -0.917,-2.399 0,-3.313 0.915,-0.918 2.399,-0.918 3.313,0 l 4.594,4.59 10.843,-10.84 c 0.915,-0.918 2.399,-0.918 3.313,0 z M 30.469,62.5 v -9.66 c 1.613,-0.238 3.179,-0.621 4.687,-1.137 V 62.5 c 0,3.02 2.449,5.469 5.469,5.469 H 62.5 c 3.02,0 5.469,-2.449 5.469,-5.469 V 40.625 c 0,-3.02 -2.449,-5.469 -5.469,-5.469 H 51.703 c 0.516,-1.508 0.899,-3.074 1.137,-4.687 h 9.66 c 5.609,0 10.156,4.547 10.156,10.156 V 62.5 c 0,5.609 -4.547,10.156 -10.156,10.156 H 40.625 c -5.609,0 -10.156,-4.547 -10.156,-10.156 z" style="fill:currentColor;fill-opacity:1;fill-rule:nonzero;stroke:none" transform="scale(1.3333333)" /> </g>
</svg>

