<?xml version="1.0" encoding="UTF-8" standalone="no"?> <svg version="1.1" id="I4c7e1c3af1144c078f5d4983c537d52820251110124422" width="100" height="100" viewBox="0 0 100 100" xmlns="http://www.w3.org/2000/svg" xmlns:svg="http://www.w3.org/2000/svg"> <defs id="If2a160d02d32459699e01ddbdd14b08520251110124422"> <linearGradient x1="35.6875" y1="28.125" x2="11.4536" y2="9.6996899" gradientUnits="userSpaceOnUse" gradientTransform="scale(2.678571)" spreadMethod="pad" id="I2b366b44df21490c8e4e96d23ceb36ed20251110124422"> <stop style="stop-opacity:1;stop-color:#fee5ff" offset="0" id="Ic7535324f85b4421a98c4e02133ed29a20251110124422" /> <stop style="stop-opacity:1;stop-color:#f0b6f2" offset="0.963558" id="Ia217ba46276341c8b91bdcfe26a1991420251110124422" /> <stop style="stop-opacity:1;stop-color:#f0b6f2" offset="1" id="Ieff2aff8d4c842afad95b3207d37127a20251110124422" /> </linearGradient> <linearGradient x1="24.818001" y1="11.1116" x2="16.863899" y2="4.71874" gradientUnits="userSpaceOnUse" gradientTransform="scale(2.678571)" spreadMethod="pad" id="I687147752c914b718cd237be9abc702220251110124422"> <stop style="stop-opacity:1;stop-color:#fee5ff" offset="0" id="I845d2e07049b400e9adaf51d0cb3cc3320251110124422" /> <stop style="stop-opacity:1;stop-color:#f0b6f2" offset="0.963558" id="I2ebf382eb88d4f0b9c6dcb93b54c0abd20251110124422" /> <stop style="stop-opacity:1;stop-color:#f0b6f2" offset="1" id="I7725ea41b3da476e8826a3bdacd06ea620251110124422" /> </linearGradient> </defs> <g id="I95d57ea6f15947d6b4d7cdb63e5ee06c20251110124422"> <path id="I306d35c1b4e9461f8edba3d81f63ba3c20251110124422" d="m 71.852,27.742 2.46,0.801 0.051,0.012 c 0.188,0.066 0.352,0.191 0.469,0.355 0.117,0.164 0.18,0.36 0.18,0.559 0,0.203 -0.063,0.398 -0.18,0.562 -0.117,0.164 -0.281,0.289 -0.469,0.356 l -2.461,0.797 c -0.75,0.25 -1.429,0.668 -1.984,1.226 -0.559,0.559 -0.977,1.235 -1.227,1.985 l -0.8,2.457 c -0.067,0.191 -0.192,0.355 -0.356,0.468 -0.164,0.118 -0.359,0.18 -0.558,0.18 -0.204,0 -0.399,-0.062 -0.563,-0.18 -0.164,-0.113 -0.289,-0.277 -0.355,-0.468 l -0.801,-2.457 c -0.246,-0.75 -0.664,-1.434 -1.223,-1.993 -0.558,-0.558 -1.238,-0.98 -1.988,-1.23 L 59.586,30.375 C 59.398,30.309 59.234,30.184 59.117,30.02 59,29.855 58.938,29.66 58.938,29.457 c 0,-0.199 0.062,-0.395 0.179,-0.559 0.117,-0.164 0.281,-0.289 0.469,-0.355 l 2.461,-0.801 c 0.738,-0.254 1.41,-0.676 1.957,-1.234 0.551,-0.555 0.961,-1.231 1.207,-1.973 l 0.797,-2.457 c 0.066,-0.191 0.191,-0.355 0.355,-0.473 0.164,-0.113 0.36,-0.175 0.563,-0.175 0.199,0 0.398,0.062 0.562,0.175 0.164,0.118 0.285,0.282 0.356,0.473 l 0.797,2.457 c 0.25,0.746 0.668,1.426 1.226,1.985 0.559,0.554 1.238,0.976 1.985,1.222 z" transform="scale(1.3333333)" style="fill:url(#I2b366b44df21490c8e4e96d23ceb36ed20251110124422);stroke:none" /> <path id="I6341242376b943a7a560f9348f30e39d20251110124422" d="m 48.684,18.289 c 0.25,0.254 0.48,0.516 0.695,0.797 0.586,0.754 1.043,1.609 1.344,2.523 l 1.332,4.098 c 0.109,0.316 0.316,0.59 0.59,0.781 0.273,0.196 0.601,0.297 0.937,0.297 0.336,0 0.66,-0.101 0.934,-0.297 0.246,-0.172 0.437,-0.41 0.554,-0.683 0.016,-0.032 0.028,-0.067 0.039,-0.098 l 1.332,-4.098 c 0.414,-1.246 1.114,-2.379 2.043,-3.308 0.93,-0.926 2.063,-1.625 3.309,-2.039 l 4.102,-1.332 c 0.316,-0.114 0.589,-0.317 0.781,-0.59 0.195,-0.274 0.301,-0.602 0.301,-0.938 0,-0.336 -0.106,-0.66 -0.301,-0.933 -0.192,-0.274 -0.465,-0.481 -0.781,-0.594 l -0.083,-0.02 -4.101,-1.332 C 60.465,10.109 59.332,9.41 58.402,8.484 57.473,7.555 56.773,6.422 56.359,5.176 L 55.027,1.078 C 54.914,0.766 54.711,0.492 54.434,0.297 54.16,0.105 53.836,0 53.5,0 53.164,0 52.836,0.105 52.562,0.297 52.289,0.492 52.086,0.766 51.973,1.078 l -1.332,4.098 -0.036,0.101 c -0.41,1.2 -1.085,2.289 -1.972,3.192 -0.914,0.926 -2.031,1.633 -3.262,2.054 l -4.101,1.332 c -0.317,0.114 -0.59,0.321 -0.782,0.594 -0.195,0.274 -0.3,0.598 -0.3,0.934 0,0.336 0.105,0.66 0.3,0.933 0.192,0.274 0.465,0.481 0.782,0.594 l 4.101,1.332 c 1.25,0.414 2.383,1.117 3.313,2.047 z" transform="scale(1.3333333)" style="fill:url(#I687147752c914b718cd237be9abc702220251110124422);stroke:none" /> </g>
</svg>

