<?xml version="1.0" encoding="UTF-8" standalone="no"?> <svg version="1.1" id="I28ab6786349d4f798004f3e7a3c860f020251106125938" width="100" height="100" viewBox="0 0 100 100" xmlns="http://www.w3.org/2000/svg" xmlns:svg="http://www.w3.org/2000/svg"> <defs id="I9f376e3e244148d1b0a954776d3bcbfd20251106125938" /> <g id="Iaca625cb05f34d79b0f856acdc02e4b420251106125938"> <path id="Iccd96ba5f94245f194ba8522b0995c1320251106125938" d="m 42.805,13.633 c 0.73,-0.735 0.73,-1.922 0,-2.653 L 34.848,3.023 c -0.731,-0.73 -1.918,-0.73 -2.653,0 -0.73,0.735 -0.73,1.922 0,2.653 l 3.739,3.738 c -6.664,0.371 -13.227,3.102 -18.321,8.195 -10.984,10.985 -10.984,28.789 0,39.774 0.961,0.965 1.981,1.844 3.039,2.64 0.828,0.622 2.004,0.454 2.625,-0.378 0.621,-0.829 0.453,-2.004 -0.375,-2.625 -0.918,-0.688 -1.8,-1.45 -2.636,-2.29 -9.52,-9.515 -9.52,-24.949 0,-34.468 4.82,-4.824 11.16,-7.203 17.484,-7.141 0.094,0.004 0.188,-0.004 0.277,-0.016 l -5.832,5.829 c -0.73,0.734 -0.73,1.921 0,2.652 0.735,0.734 1.922,0.734 2.653,0 z m -10.61,47.726 c -0.73,0.735 -0.73,1.922 0,2.653 l 7.957,7.957 c 0.731,0.73 1.918,0.73 2.653,0 0.73,-0.735 0.73,-1.922 0,-2.653 l -3.739,-3.738 c 6.664,-0.371 13.227,-3.101 18.321,-8.195 10.984,-10.985 10.984,-28.789 0,-39.774 -0.961,-0.964 -1.981,-1.843 -3.039,-2.636 -0.828,-0.625 -2.004,-0.453 -2.625,0.375 -0.621,0.828 -0.453,2.004 0.375,2.625 0.918,0.687 1.8,1.449 2.636,2.289 9.52,9.519 9.52,24.953 0,34.468 -4.82,4.825 -11.16,7.204 -17.484,7.141 -0.094,-0.004 -0.188,0.004 -0.277,0.016 l 5.832,-5.828 c 0.73,-0.735 0.73,-1.922 0,-2.653 -0.735,-0.73 -1.922,-0.73 -2.653,0 z" style="fill:currentColor;fill-opacity:1;fill-rule:nonzero;stroke:none" transform="scale(1.3333333)" /> </g>
</svg>

