<?xml version="1.0" encoding="UTF-8" standalone="no"?> <svg version="1.1" id="I8b15bb2a9716438a88363c68e28a0a7a20251110124421" width="100" height="100" viewBox="0 0 100 100" xmlns="http://www.w3.org/2000/svg" xmlns:svg="http://www.w3.org/2000/svg"> <defs id="I02c20db1682b4eabae2d6bedcbcabb7220251110124421" /> <g id="I369f962facad43689c224ce9fd5c990420251110124421"> <path id="I00706154cc624d8994fa7d40094bd8dc20251110124421" d="m 9.375,19.531 c 0,-5.609 4.547,-10.156 10.156,-10.156 h 35.938 c 5.609,0 10.156,4.547 10.156,10.156 v 17.586 c -2.141,-1.715 -4.855,-2.742 -7.813,-2.742 -4.183,0 -7.886,2.055 -10.156,5.211 -2.269,-3.156 -5.972,-5.211 -10.156,-5.211 -4.184,0 -7.887,2.055 -10.156,5.211 -2.27,-3.156 -5.973,-5.211 -10.156,-5.211 -2.958,0 -5.672,1.027 -7.813,2.742 z m 35.937,27.344 c 0,-4.316 -3.496,-7.813 -7.812,-7.813 -4.316,0 -7.812,3.497 -7.812,7.813 v 18.75 H 45.312 Z M 50,65.625 h 8.594 c 3.883,0 7.031,-3.148 7.031,-7.031 V 46.875 c 0,-4.316 -3.496,-7.813 -7.813,-7.813 -4.316,0 -7.812,3.497 -7.812,7.813 z m -25,0 h -8.594 c -3.883,0 -7.031,-3.148 -7.031,-7.031 V 46.875 c 0,-4.316 3.496,-7.813 7.813,-7.813 4.316,0 7.812,3.497 7.812,7.813 z" style="fill:currentColor;fill-opacity:1;fill-rule:nonzero;stroke:none" transform="scale(1.3333333)" /> </g>
</svg>

