<?xml version="1.0" encoding="UTF-8" standalone="no"?> <svg version="1.1" id="Ief89515749c342448d325c53101e3b6820251105191527" width="100" height="100" viewBox="0 0 100 100" xmlns="http://www.w3.org/2000/svg" xmlns:svg="http://www.w3.org/2000/svg"> <defs id="I4f7f445d888a4b1d988fbd0d555a753520251105191527" /> <g id="I01ed1a3d2b9f4a51962bcbc135b6795620251105191527"> <path id="Idc609a37f8b845c5a25a292e451c2b5520251105191527" d="M 67.633,34.32 H 18.656 L 47.973,8.871 c 0.468,-0.41 0.183,-1.172 -0.438,-1.172 h -7.406 c -0.328,0 -0.637,0.117 -0.879,0.328 L 7.617,35.473 c -1.23,1.07 -1.23,2.976 0,4.043 l 31.817,27.617 c 0.125,0.109 0.277,0.168 0.433,0.168 h 7.66 c 0.621,0 0.907,-0.774 0.438,-1.172 L 18.656,40.68 h 48.977 c 0.371,0 0.672,-0.301 0.672,-0.668 v -5.024 c 0,-0.367 -0.301,-0.668 -0.672,-0.668 z" style="fill:currentColor;fill-opacity:1;fill-rule:nonzero;stroke:none" transform="scale(1.3333333)" /> </g>
</svg>

