<?xml version="1.0" encoding="UTF-8" standalone="no"?> <svg version="1.1" id="I46c95aa224b04f60baf26c07542033a020251106132946" width="100" height="100" viewBox="0 0 100 100" xmlns="http://www.w3.org/2000/svg" xmlns:svg="http://www.w3.org/2000/svg"> <defs id="I4d18f196243f428896fc248d9b636eb720251106132946" /> <g id="I1769614cf7034675b411a0c32c51d46420251106132946"> <path id="If6e5c6c6d67e4ec5b2b262236442354420251106132946" d="m 15,15 c 0,-4.141 3.359,-7.5 7.5,-7.5 h 30 c 4.141,0 7.5,3.359 7.5,7.5 V 34.527 C 58.211,34.02 56.324,33.75 54.375,33.75 c -11.391,0 -20.625,9.234 -20.625,20.625 0,1.949 0.27,3.836 0.777,5.625 H 18.75 c 0,2.07 1.68,3.75 3.75,3.75 H 36 c 0.684,1.34 1.512,2.598 2.465,3.75 H 22.5 C 18.359,67.5 15,64.141 15,60 Z m 10.312,0 C 23.758,15 22.5,16.258 22.5,17.812 v 1.876 c 0,1.554 1.258,2.812 2.812,2.812 h 24.376 c 1.554,0 2.812,-1.258 2.812,-2.812 V 17.812 C 52.5,16.258 51.242,15 49.688,15 Z M 71.25,54.375 c 0,9.32 -7.555,16.875 -16.875,16.875 -9.32,0 -16.875,-7.555 -16.875,-16.875 0,-9.32 7.555,-16.875 16.875,-16.875 9.32,0 16.875,7.555 16.875,16.875 z m -9.926,-4.301 c 0.735,-0.73 0.735,-1.918 0,-2.648 -0.73,-0.735 -1.918,-0.735 -2.648,0 l -4.301,4.297 -4.301,-4.297 c -0.73,-0.735 -1.918,-0.735 -2.648,0 -0.735,0.73 -0.735,1.918 0,2.648 l 4.297,4.301 -4.297,4.301 c -0.735,0.73 -0.735,1.918 0,2.648 0.73,0.735 1.918,0.735 2.648,0 l 4.301,-4.297 4.301,4.297 c 0.73,0.735 1.918,0.735 2.648,0 0.735,-0.73 0.735,-1.918 0,-2.648 l -4.297,-4.301 z" style="fill:currentColor;fill-opacity:1;fill-rule:nonzero;stroke:none" transform="scale(1.3333333)" /> </g>
</svg>

