<?xml version="1.0" encoding="UTF-8" standalone="no"?> <svg version="1.1" id="I571319fda724403ba7df4e1c050722db20251110124420" width="100" height="100" viewBox="0 0 100 100" xmlns="http://www.w3.org/2000/svg" xmlns:svg="http://www.w3.org/2000/svg"> <defs id="I44fac76431d64040a9e059e388e0317b20251110124420" /> <g id="I0c4d3bf97d0048cb83591791c9948eb720251110124420"> <path id="Idcf07b457ab14f6280321dc06c28aee820251110124420" d="m 16.406,10.938 c -3.019,0 -5.468,2.449 -5.468,5.468 v 9.375 c 0,1.293 -1.051,2.344 -2.344,2.344 -1.293,0 -2.344,-1.051 -2.344,-2.344 V 16.406 C 6.25,10.797 10.797,6.25 16.406,6.25 h 9.375 c 1.293,0 2.344,1.051 2.344,2.344 0,1.293 -1.051,2.344 -2.344,2.344 z m 0,53.124 c -3.019,0 -5.468,-2.449 -5.468,-5.468 v -9.375 c 0,-1.293 -1.051,-2.344 -2.344,-2.344 -1.293,0 -2.344,1.051 -2.344,2.344 v 9.375 c 0,5.609 4.547,10.156 10.156,10.156 h 9.375 c 1.293,0 2.344,-1.051 2.344,-2.344 0,-1.293 -1.051,-2.344 -2.344,-2.344 z M 64.062,16.406 c 0,-3.019 -2.449,-5.468 -5.468,-5.468 h -9.375 c -1.293,0 -2.344,-1.051 -2.344,-2.344 0,-1.293 1.051,-2.344 2.344,-2.344 h 9.375 c 5.609,0 10.156,4.547 10.156,10.156 v 9.375 c 0,1.293 -1.051,2.344 -2.344,2.344 -1.293,0 -2.344,-1.051 -2.344,-2.344 z m -5.468,47.656 c 3.019,0 5.468,-2.449 5.468,-5.468 v -9.375 c 0,-1.293 1.051,-2.344 2.344,-2.344 1.293,0 2.344,1.051 2.344,2.344 v 9.375 c 0,5.609 -4.547,10.156 -10.156,10.156 h -9.375 c -1.293,0 -2.344,-1.051 -2.344,-2.344 0,-1.293 1.051,-2.344 2.344,-2.344 z M 56.23,26.82 C 55.961,22.316 52.223,18.75 47.652,18.75 H 27.34 l -0.524,0.016 c -4.5,0.269 -8.07,4.007 -8.07,8.578 v 20.312 l 0.016,0.524 c 0.269,4.504 4.008,8.07 8.578,8.07 h 20.312 l 0.524,-0.016 c 4.504,-0.269 8.07,-4.007 8.07,-8.578 V 27.344 Z m -32.796,7.539 h 28.125 v 13.297 l -0.02,0.399 c -0.199,1.968 -1.863,3.507 -3.887,3.507 H 27.34 L 26.941,51.543 C 24.973,51.344 23.434,49.68 23.434,47.656 Z M 27.34,23.438 h 20.312 l 0.399,0.019 c 1.972,0.199 3.508,1.863 3.508,3.887 v 2.328 H 23.434 v -2.328 l 0.019,-0.399 c 0.203,-1.972 1.863,-3.507 3.887,-3.507 z" style="fill:currentColor;fill-opacity:1;fill-rule:nonzero;stroke:none" transform="scale(1.3333333)" /> </g>
</svg>

