<?xml version="1.0" encoding="UTF-8" standalone="no"?> <svg version="1.1" id="Id30202ad8e764c7fb6b47b4ffb1c520820251106152728" width="100" height="100" viewBox="0 0 100 100" xmlns="http://www.w3.org/2000/svg" xmlns:svg="http://www.w3.org/2000/svg"> <defs id="Idc11a6821a164eb987b50dff4b56c68a20251106152728" /> <g id="I1bbea857c0c24642a5ab75b803462fe620251106152728"> <path id="I6ed4efa9e9ec42a2babcf8b8ebc3278720251106152728" d="M 20.797,9.789 C 25.164,7.012 31.074,5.355 37.5,5.355 c 6.426,0 12.336,1.657 16.703,4.434 4.344,2.766 7.402,6.832 7.402,11.641 0,4.808 -3.058,8.875 -7.402,11.636 C 49.836,35.848 43.926,37.5 37.5,37.5 31.074,37.5 25.164,35.848 20.797,33.066 16.453,30.305 13.395,26.238 13.395,21.43 c 0,-4.809 3.058,-8.875 7.402,-11.641 z m 39.226,21.914 c -1.281,1.391 -2.777,2.606 -4.382,3.625 -4.86,3.09 -11.286,4.852 -18.141,4.852 -6.855,0 -13.281,-1.762 -18.141,-4.852 -1.605,-1.019 -3.101,-2.234 -4.382,-3.625 -1.008,1.762 -1.582,3.711 -1.582,5.797 0,4.809 3.058,8.875 7.402,11.641 4.367,2.777 10.277,4.433 16.703,4.433 6.426,0 12.336,-1.656 16.703,-4.433 4.344,-2.766 7.402,-6.832 7.402,-11.641 0,-2.086 -0.574,-4.035 -1.582,-5.797 z m 0,16.07 c -1.281,1.391 -2.777,2.606 -4.382,3.625 -4.86,3.094 -11.286,4.852 -18.141,4.852 -6.855,0 -13.281,-1.758 -18.141,-4.852 -1.605,-1.019 -3.101,-2.234 -4.382,-3.625 -1.008,1.762 -1.582,3.711 -1.582,5.797 0,4.809 3.058,8.875 7.402,11.641 4.367,2.777 10.277,4.434 16.703,4.434 6.426,0 12.336,-1.657 16.703,-4.434 4.344,-2.766 7.402,-6.832 7.402,-11.641 0,-2.086 -0.574,-4.035 -1.582,-5.797 z" style="fill:currentColor;fill-opacity:1;fill-rule:nonzero;stroke:none" transform="scale(1.3333333)" /> </g>
</svg>

