<?xml version="1.0" encoding="UTF-8" standalone="no"?> <svg version="1.1" id="I2da9ec8861cd41c3b230220eb1f2dfa420251106142135" width="100" height="100" viewBox="0 0 100 100" xmlns="http://www.w3.org/2000/svg" xmlns:svg="http://www.w3.org/2000/svg"> <defs id="Ib4207b67c88540838559efa3d432537d20251106142135" /> <g id="I2cdd4bc1ade746eab353c808267ff19320251106142135"> <path id="I742635630fb04c97ba5e901d3d275c9020251106142135" d="m 63.75,13.125 c 0,-0.496 -0.199,-0.973 -0.551,-1.324 -0.351,-0.352 -0.828,-0.551 -1.324,-0.551 -0.496,0 -0.973,0.199 -1.324,0.551 C 60.199,12.152 60,12.629 60,13.125 v 7.5 c 0,1.492 -0.594,2.922 -1.648,3.977 -1.055,1.054 -2.485,1.648 -3.977,1.648 H 52.5 c 0,-2.539 -0.855,-5 -2.434,-6.992 C 48.492,17.27 46.289,15.871 43.82,15.293 44.59,14.086 45,12.684 45,11.25 V 9.375 C 45,8.879 44.801,8.402 44.449,8.051 44.098,7.699 43.621,7.5 43.125,7.5 42.629,7.5 42.152,7.699 41.801,8.051 41.449,8.402 41.25,8.879 41.25,9.375 v 1.875 c 0,0.996 -0.395,1.949 -1.098,2.652 C 39.449,14.605 38.496,15 37.5,15 36.504,15 35.551,14.605 34.848,13.902 34.145,13.199 33.75,12.246 33.75,11.25 V 9.375 C 33.75,8.879 33.551,8.402 33.199,8.051 32.848,7.699 32.371,7.5 31.875,7.5 31.379,7.5 30.902,7.699 30.551,8.051 30.199,8.402 30,8.879 30,9.375 v 1.875 c 0,1.434 0.41,2.836 1.18,4.043 -2.469,0.578 -4.672,1.977 -6.246,3.965 C 23.355,21.25 22.5,23.711 22.5,26.25 h -1.875 c -1.492,0 -2.922,-0.594 -3.977,-1.648 C 15.594,23.547 15,22.117 15,20.625 v -7.5 c 0,-0.496 -0.199,-0.973 -0.551,-1.324 -0.351,-0.352 -0.828,-0.551 -1.324,-0.551 -0.496,0 -0.973,0.199 -1.324,0.551 -0.352,0.351 -0.551,0.828 -0.551,1.324 v 7.5 c 0,2.488 0.988,4.871 2.746,6.629 C 15.754,29.012 18.137,30 20.625,30 H 22.5 v 5.625 H 9.375 c -0.496,0 -0.973,0.199 -1.324,0.551 C 7.699,36.527 7.5,37.004 7.5,37.5 c 0,0.496 0.199,0.973 0.551,1.324 0.351,0.352 0.828,0.551 1.324,0.551 H 22.5 V 45 h -1.875 c -2.488,0 -4.871,0.988 -6.629,2.746 -1.758,1.758 -2.746,4.145 -2.746,6.629 v 7.5 c 0,0.496 0.199,0.973 0.551,1.324 0.351,0.352 0.828,0.551 1.324,0.551 0.496,0 0.973,-0.199 1.324,-0.551 C 14.801,62.848 15,62.371 15,61.875 v -7.5 c 0,-1.492 0.594,-2.922 1.648,-3.977 1.055,-1.054 2.485,-1.648 3.977,-1.648 H 22.5 c 0.008,3.699 1.387,7.266 3.871,10.008 2.484,2.742 5.899,4.465 9.582,4.836 -1.512,-3 -2.265,-6.321 -2.199,-9.68 0.07,-3.355 0.961,-6.644 2.59,-9.578 1.633,-2.938 3.961,-5.426 6.773,-7.254 2.817,-1.828 6.039,-2.941 9.383,-3.238 V 30 h 1.875 c 2.484,0 4.871,-0.988 6.629,-2.746 1.758,-1.758 2.746,-4.141 2.746,-6.629 z M 54.375,37.5 c -3.336,0 -6.602,0.988 -9.375,2.844 -2.773,1.855 -4.938,4.488 -6.215,7.574 -1.277,3.082 -1.613,6.477 -0.961,9.75 0.653,3.273 2.258,6.277 4.617,8.641 2.364,2.359 5.368,3.964 8.641,4.617 3.273,0.652 6.668,0.316 9.75,-0.961 3.086,-1.277 5.719,-3.442 7.574,-6.215 1.856,-2.773 2.844,-6.039 2.844,-9.375 0,-2.215 -0.438,-4.41 -1.285,-6.457 -0.848,-2.047 -2.09,-3.91 -3.656,-5.477 -1.567,-1.566 -3.43,-2.808 -5.477,-3.656 C 58.785,37.938 56.59,37.5 54.375,37.5 Z m 0,27.188 c -1.453,0 -2.887,-0.305 -4.211,-0.899 -1.324,-0.59 -2.512,-1.457 -3.476,-2.539 -0.176,-0.184 -0.313,-0.398 -0.403,-0.633 -0.09,-0.234 -0.133,-0.488 -0.121,-0.738 0.008,-0.254 0.07,-0.5 0.176,-0.731 0.109,-0.226 0.262,-0.429 0.449,-0.597 0.188,-0.168 0.406,-0.297 0.645,-0.379 0.238,-0.082 0.492,-0.113 0.742,-0.094 0.254,0.02 0.5,0.086 0.722,0.203 0.223,0.117 0.422,0.278 0.582,0.469 0.832,0.93 1.907,1.602 3.106,1.941 1.199,0.34 2.469,0.332 3.66,-0.023 1.195,-0.356 2.262,-1.043 3.078,-1.98 0.817,-0.942 1.352,-2.094 1.539,-3.325 0.188,-1.23 0.02,-2.488 -0.48,-3.629 C 59.879,50.594 59.062,49.621 58.031,48.93 56.996,48.234 55.785,47.852 54.539,47.816 53.297,47.785 52.066,48.109 51,48.75 h 1.5 c 0.496,0 0.973,0.199 1.324,0.551 0.352,0.351 0.551,0.828 0.551,1.324 0,0.496 -0.199,0.973 -0.551,1.324 C 53.473,52.301 52.996,52.5 52.5,52.5 h -5.625 c -0.293,0.008 -0.582,-0.051 -0.848,-0.172 -0.265,-0.121 -0.5,-0.305 -0.683,-0.535 -0.18,-0.227 -0.305,-0.496 -0.367,-0.781 C 44.918,50.723 44.926,50.43 45,50.145 V 45 c 0,-0.496 0.199,-0.973 0.551,-1.324 0.351,-0.352 0.828,-0.551 1.324,-0.551 0.496,0 0.973,0.199 1.324,0.551 0.352,0.351 0.551,0.828 0.551,1.324 v 0.727 c 1.344,-0.875 2.875,-1.422 4.473,-1.602 1.593,-0.176 3.207,0.02 4.711,0.574 1.507,0.555 2.863,1.453 3.961,2.625 1.093,1.168 1.902,2.578 2.359,4.117 0.457,1.539 0.547,3.161 0.266,4.743 -0.282,1.578 -0.926,3.07 -1.887,4.355 -0.957,1.289 -2.203,2.332 -3.637,3.051 -1.434,0.722 -3.016,1.098 -4.621,1.098 z" style="fill:currentColor;fill-opacity:1;fill-rule:nonzero;stroke:none" transform="scale(1.3333333)" /> </g>
</svg>

