<?xml version="1.0" encoding="UTF-8" standalone="no"?> <svg version="1.1" id="Ia928464d23124312aab43fb53fc913aa20251106132945" width="100" height="100" viewBox="0 0 100 100" xmlns="http://www.w3.org/2000/svg" xmlns:svg="http://www.w3.org/2000/svg"> <defs id="I9ba60292b89040daa0eb84ada5e1e87620251106132945" /> <g id="Ic74c4a3913704611af9277fd682cfafb20251106132945"> <path id="I66950c9fc2d942a08740cc263414210f20251106132945" d="m 17.969,12.5 c -4.746,0 -8.594,3.848 -8.594,8.594 v 16.562 c -3.566,0.723 -6.25,3.875 -6.25,7.656 0,3.782 2.684,6.934 6.25,7.657 v 7.187 c 0,1.293 1.051,2.344 2.344,2.344 1.293,0 2.343,-1.051 2.343,-2.344 v -7.031 h 46.876 v 7.031 c 0,1.293 1.05,2.344 2.343,2.344 1.293,0 2.344,-1.051 2.344,-2.344 v -7.187 c 3.566,-0.723 6.25,-3.875 6.25,-7.657 0,-3.781 -2.684,-6.933 -6.25,-7.656 V 21.094 c 0,-4.746 -3.848,-8.594 -8.594,-8.594 z m 42.969,25 H 14.062 V 21.094 c 0,-2.156 1.75,-3.906 3.907,-3.906 h 39.062 c 2.157,0 3.907,1.75 3.907,3.906 z m 3.124,10.938 H 10.938 c -1.727,0 -3.126,-1.399 -3.126,-3.126 0,-1.726 1.399,-3.124 3.126,-3.124 h 53.124 c 1.727,0 3.126,1.398 3.126,3.124 0,1.727 -1.399,3.126 -3.126,3.126 z" style="fill:currentColor;fill-opacity:1;fill-rule:nonzero;stroke:none" transform="scale(1.3333333)" /> </g>
</svg>

