<?xml version="1.0" encoding="UTF-8" standalone="no"?> <svg version="1.1" id="I38acbe632fa04c8bab524ca2e6f8f67a20251106151526" width="100" height="100" viewBox="0 0 100 100" xmlns="http://www.w3.org/2000/svg" xmlns:svg="http://www.w3.org/2000/svg"> <defs id="If5558f4330b3406898b2b402af45b57f20251106151526" /> <g id="Ia475e5b8f58843ddb1b2748103b3aa3120251106151526"> <path id="Ief9091f4caee4e279fe95596eec3aad920251106151526" d="m 59.121,5.355 c 5.813,0.004 10.524,4.715 10.524,10.524 0,3.734 -1.981,7.191 -5.204,9.082 l -13.671,8.012 7.906,7.906 c 3.922,3.922 3.922,10.281 0,14.203 l -8.238,8.242 c -1.305,1.305 -3.426,1.305 -4.735,0 l -1.652,-1.656 -5.824,5.824 c -2.875,2.879 -7.539,2.875 -10.415,0 L 7.516,47.195 c -2.875,-2.875 -2.875,-7.539 0,-10.414 l 5.82,-5.824 -1.641,-1.641 c -1.304,-1.308 -1.304,-3.429 0,-4.734 l 8.239,-8.242 c 3.921,-3.918 10.285,-3.922 14.207,0 l 7.886,7.887 8.016,-13.668 C 51.93,7.34 55.387,5.355 59.121,5.355 Z M 10.355,39.621 c -1.304,1.309 -1.304,3.426 0,4.734 l 20.297,20.297 c 1.309,1.309 3.43,1.309 4.735,0 L 41.211,58.828 16.18,33.797 Z M 59.121,9.375 c -2.309,0 -4.445,1.223 -5.613,3.215 l -8.543,14.574 2.867,2.871 14.578,-8.543 c 1.992,-1.164 3.215,-3.304 3.215,-5.613 0,-3.59 -2.914,-6.504 -6.504,-6.504 z" style="fill:currentColor;fill-opacity:1;fill-rule:nonzero;stroke:none" transform="scale(1.3333333)" /> </g>
</svg>

