<?xml version="1.0" encoding="UTF-8" standalone="no"?> <svg version="1.1" id="I16691300a85940d8ba4bd774dce239c520251110124421" width="100" height="100" viewBox="0 0 100 100" xmlns="http://www.w3.org/2000/svg" xmlns:svg="http://www.w3.org/2000/svg"> <defs id="I9090fde3e3f5467db67e2c085f7a3b4f20251110124421" /> <g id="I54f04e3f9c1444ad98e849a96905fd4a20251110124421"> <path id="I5c2aa7dedb3a4257addc988077b5f14b20251110124421" d="m 33.48,8.035 c 0.899,0 1.786,0.047 2.657,0.137 L 32.383,9.41 c -0.86,0.285 -1.602,0.84 -2.117,1.582 -0.313,0.43 -0.536,0.91 -0.668,1.418 -9.981,1.828 -17.543,10.563 -17.543,21.07 0,11.836 9.593,21.43 21.425,21.43 11.098,0 20.227,-8.433 21.321,-19.242 l 0.668,2.055 c 0.238,0.734 0.711,1.375 1.34,1.82 0.379,0.266 0.8,0.457 1.242,0.566 -0.992,3.696 -2.797,7.059 -5.211,9.891 l 16.215,16.215 c 0.785,0.781 0.785,2.055 0,2.84 -0.785,0.785 -2.059,0.785 -2.84,0 L 50,52.84 C 45.555,56.637 39.785,58.93 33.48,58.93 19.43,58.93 8.035,47.535 8.035,33.48 8.035,19.43 19.43,8.035 33.48,8.035 Z M 58.879,21.43 c 0.199,0 0.398,0.062 0.562,0.175 0.164,0.118 0.289,0.282 0.356,0.473 l 0.797,2.457 c 0.25,0.75 0.672,1.426 1.226,1.985 0.559,0.554 1.239,0.976 1.989,1.222 l 2.457,0.801 0.05,0.012 c 0.188,0.066 0.356,0.191 0.469,0.355 0.117,0.164 0.18,0.36 0.18,0.559 0,0.203 -0.063,0.398 -0.18,0.562 -0.113,0.164 -0.281,0.285 -0.469,0.356 l -2.461,0.797 c -0.75,0.25 -1.425,0.668 -1.984,1.226 -0.559,0.555 -0.976,1.235 -1.226,1.981 l -0.801,2.461 c -0.067,0.187 -0.188,0.355 -0.352,0.468 -0.164,0.118 -0.363,0.18 -0.562,0.18 -0.203,0 -0.399,-0.062 -0.563,-0.18 -0.164,-0.113 -0.289,-0.281 -0.355,-0.468 L 57.211,34.391 C 56.965,33.645 56.547,32.961 55.988,32.402 55.43,31.844 54.75,31.422 54,31.172 l -2.457,-0.797 c -0.191,-0.066 -0.355,-0.191 -0.473,-0.355 -0.117,-0.165 -0.175,-0.36 -0.175,-0.563 0,-0.199 0.058,-0.395 0.175,-0.559 0.118,-0.164 0.282,-0.289 0.473,-0.355 L 54,27.742 c 0.738,-0.254 1.41,-0.676 1.961,-1.234 0.547,-0.555 0.957,-1.231 1.203,-1.973 l 0.801,-2.457 c 0.066,-0.191 0.191,-0.355 0.355,-0.473 0.164,-0.113 0.36,-0.175 0.559,-0.175 z M 45.453,0 c 0.336,0 0.66,0.105 0.934,0.297 0.273,0.195 0.484,0.469 0.593,0.785 l 1.332,4.094 c 0.415,1.246 1.114,2.379 2.043,3.308 0.93,0.926 2.063,1.629 3.309,2.043 l 4.102,1.328 0.082,0.02 c 0.316,0.113 0.59,0.32 0.781,0.594 0.195,0.273 0.301,0.601 0.301,0.933 0,0.336 -0.106,0.66 -0.301,0.934 -0.191,0.273 -0.465,0.48 -0.781,0.594 l -4.102,1.328 c -1.246,0.418 -2.379,1.117 -3.308,2.043 -0.93,0.929 -1.629,2.062 -2.043,3.308 l -1.333,4.098 c -0.011,0.031 -0.023,0.066 -0.039,0.102 -0.117,0.269 -0.308,0.507 -0.55,0.679 -0.274,0.192 -0.602,0.297 -0.938,0.297 -0.336,0 -0.664,-0.105 -0.937,-0.297 -0.274,-0.195 -0.477,-0.468 -0.59,-0.781 l -1.332,-4.098 c -0.301,-0.914 -0.754,-1.769 -1.34,-2.523 -0.215,-0.277 -0.449,-0.547 -0.699,-0.797 -0.93,-0.93 -2.063,-1.633 -3.313,-2.047 L 33.223,14.91 c -0.317,-0.113 -0.59,-0.32 -0.782,-0.594 -0.195,-0.273 -0.296,-0.597 -0.296,-0.933 0,-0.336 0.101,-0.66 0.296,-0.934 0.192,-0.273 0.465,-0.48 0.782,-0.594 l 4.101,-1.328 c 1.231,-0.425 2.348,-1.132 3.262,-2.058 0.891,-0.903 1.562,-1.992 1.973,-3.192 L 42.594,5.176 43.926,1.082 C 44.039,0.766 44.246,0.492 44.52,0.297 44.793,0.105 45.121,0 45.453,0 Z" style="fill:currentColor;fill-opacity:1;fill-rule:nonzero;stroke:none" transform="scale(1.3333333)" /> </g>
</svg>

