<?xml version="1.0" encoding="UTF-8" standalone="no"?> <svg version="1.1" id="I873b5fd9e2c34cc9a161a69e8b37844520251106171633" width="100" height="100" viewBox="0 0 100 100" xmlns="http://www.w3.org/2000/svg" xmlns:svg="http://www.w3.org/2000/svg"> <defs id="I39e2ee3a10754f6abc8d84e5155eb9e720251106171633" /> <g id="I0105b101c892482687a8a91f6314f4f920251106171633"> <path id="I35360cd563cf42deb7023bc7f5ffedc220251106171633" d="M 9.375,18.75 C 8.34,18.75 7.5,19.59 7.5,20.625 7.5,21.66 8.34,22.5 9.375,22.5 h 56.25 c 1.035,0 1.875,-0.84 1.875,-1.875 0,-1.035 -0.84,-1.875 -1.875,-1.875 z m 0,18.75 C 8.34,37.5 7.5,38.34 7.5,39.375 c 0,1.035 0.84,1.875 1.875,1.875 h 38.234 c 1.481,-1.188 3.157,-2.117 4.961,-2.746 0.051,-0.344 0.137,-0.68 0.25,-1.004 z M 38.852,58.031 C 38.398,57.504 38.051,56.898 37.82,56.25 H 9.375 C 8.34,56.25 7.5,57.09 7.5,58.125 7.5,59.16 8.34,60 9.375,60 H 42.281 L 42.258,59.934 C 40.93,59.727 39.723,59.051 38.852,58.031 Z m 19.273,0.094 c 0.742,0 1.465,-0.219 2.082,-0.633 0.617,-0.41 1.098,-0.996 1.383,-1.683 0.285,-0.684 0.359,-1.438 0.215,-2.164 -0.145,-0.731 -0.504,-1.399 -1.028,-1.922 -0.523,-0.524 -1.191,-0.883 -1.922,-1.028 -0.726,-0.144 -1.48,-0.07 -2.164,0.215 -0.687,0.285 -1.273,0.766 -1.683,1.383 -0.414,0.617 -0.633,1.34 -0.633,2.082 0,0.996 0.395,1.949 1.098,2.652 0.703,0.703 1.656,1.098 2.652,1.098 z m 15,-5.625 H 71.059 C 70.652,49.711 69.359,47.129 67.363,45.137 65.371,43.141 62.789,41.848 60,41.441 V 39.375 C 60,38.879 59.801,38.402 59.449,38.051 59.098,37.699 58.621,37.5 58.125,37.5 c -0.496,0 -0.973,0.199 -1.324,0.551 -0.352,0.351 -0.551,0.828 -0.551,1.324 v 2.066 c -2.789,0.407 -5.371,1.7 -7.363,3.696 -1.996,1.992 -3.289,4.574 -3.696,7.363 h -2.066 c -0.496,0 -0.973,0.199 -1.324,0.551 -0.352,0.351 -0.551,0.828 -0.551,1.324 0,0.496 0.199,0.973 0.551,1.324 0.351,0.352 0.828,0.551 1.324,0.551 h 2.066 c 0.407,2.789 1.7,5.371 3.696,7.363 1.992,1.996 4.574,3.289 7.363,3.696 v 2.066 c 0,0.496 0.199,0.973 0.551,1.324 0.351,0.352 0.828,0.551 1.324,0.551 0.496,0 0.973,-0.199 1.324,-0.551 C 59.801,70.348 60,69.871 60,69.375 v -2.066 c 2.789,-0.407 5.371,-1.7 7.363,-3.696 1.996,-1.992 3.289,-4.574 3.696,-7.363 h 2.066 c 0.496,0 0.973,-0.199 1.324,-0.551 C 74.801,55.348 75,54.871 75,54.375 75,53.879 74.801,53.402 74.449,53.051 74.098,52.699 73.621,52.5 73.125,52.5 Z m -8.371,8.504 c -1.531,1.535 -3.551,2.488 -5.707,2.703 -2.16,0.211 -4.324,-0.328 -6.129,-1.535 -1.805,-1.203 -3.133,-2.996 -3.766,-5.074 -0.629,-2.075 -0.519,-4.305 0.309,-6.309 0.832,-2.004 2.332,-3.656 4.242,-4.68 1.914,-1.023 4.121,-1.351 6.25,-0.929 2.125,0.425 4.043,1.57 5.418,3.25 1.375,1.675 2.129,3.777 2.129,5.945 0,1.23 -0.242,2.449 -0.711,3.59 -0.473,1.137 -1.164,2.168 -2.035,3.039 z" style="fill:currentColor;fill-opacity:1;fill-rule:nonzero;stroke:none" transform="scale(1.3333333)" /> </g>
</svg>

