<?xml version="1.0" encoding="UTF-8" standalone="no"?> <svg version="1.1" id="I256d49678c12401d903613e6a832837120251110130510" width="100" height="100" viewBox="0 0 100 100" xmlns="http://www.w3.org/2000/svg" xmlns:svg="http://www.w3.org/2000/svg"> <defs id="Ibc59fd8f24284941928480ec2834aa2320251110130510" /> <g id="I01e4e89c85204dae83e19ebce5cd655720251110130510"> <path id="I601360a820d549f38c4440f5fb6e26c920251110130510" d="m 21.562,11.25 c -5.695,0 -10.312,4.617 -10.312,10.312 v 31.876 c 0,5.695 4.617,10.312 10.312,10.312 H 36 c -1.438,-2.812 -2.25,-6 -2.25,-9.375 0,-4.984 1.77,-9.559 4.715,-13.125 h -2.84 c -1.035,0 -1.875,-0.84 -1.875,-1.875 0,-1.035 0.84,-1.875 1.875,-1.875 h 6.887 c 3.355,-2.363 7.449,-3.75 11.863,-3.75 3.375,0 6.563,0.812 9.375,2.25 V 21.562 C 63.75,15.867 59.133,11.25 53.438,11.25 Z m 6.563,15.938 C 28.125,28.742 26.867,30 25.312,30 23.758,30 22.5,28.742 22.5,27.188 c 0,-1.555 1.258,-2.813 2.812,-2.813 1.555,0 2.813,1.258 2.813,2.813 z m -2.813,8.437 c 1.555,0 2.813,1.258 2.813,2.813 0,1.554 -1.258,2.812 -2.813,2.812 -1.554,0 -2.812,-1.258 -2.812,-2.812 0,-1.555 1.258,-2.813 2.812,-2.813 z m 2.813,14.063 c 0,1.554 -1.258,2.812 -2.813,2.812 -1.554,0 -2.812,-1.258 -2.812,-2.812 0,-1.555 1.258,-2.813 2.812,-2.813 1.555,0 2.813,1.258 2.813,2.813 z M 35.625,30 c -1.035,0 -1.875,-0.84 -1.875,-1.875 0,-1.035 0.84,-1.875 1.875,-1.875 h 15 c 1.035,0 1.875,0.84 1.875,1.875 C 52.5,29.16 51.66,30 50.625,30 Z m 18.75,41.25 c 9.32,0 16.875,-7.555 16.875,-16.875 0,-9.32 -7.555,-16.875 -16.875,-16.875 -9.32,0 -16.875,7.555 -16.875,16.875 0,9.32 7.555,16.875 16.875,16.875 z M 52.5,46.875 C 52.5,45.84 53.34,45 54.375,45 c 1.035,0 1.875,0.84 1.875,1.875 V 52.5 H 60 c 1.035,0 1.875,0.84 1.875,1.875 0,1.035 -0.84,1.875 -1.875,1.875 H 54.375 C 53.34,56.25 52.5,55.41 52.5,54.375 Z" style="fill:currentColor;fill-opacity:1;fill-rule:nonzero;stroke:none" transform="scale(1.3333333)" /> </g>
</svg>

