<?xml version="1.0" encoding="UTF-8" standalone="no"?> <svg version="1.1" id="Icfd90ec106104f50b0a83bba443ad39320251110135155" width="100" height="100" viewBox="0 0 100 100" xmlns="http://www.w3.org/2000/svg" xmlns:svg="http://www.w3.org/2000/svg"> <defs id="Ia565789b6a784a218587c9365173c0aa20251110135155" /> <g id="I45626bc0fd3749d088d865a55e09bd0220251110135155"> <path id="Id0d51e4dd25b4e3592ec15d2ad8fac1e20251110135155" d="m 56.25,9.375 h -9.375 c -1.727,0 -3.125,1.398 -3.125,3.125 v 47.656 c 0,1.727 1.398,3.125 3.125,3.125 h 12.109 c 8.414,0 15.235,-6.82 15.235,-15.234 0,-5.637 -3.063,-10.559 -7.614,-13.195 2.77,-2.696 4.489,-6.465 4.489,-10.633 0,-8.199 -6.645,-14.844 -14.844,-14.844 z m 0,23.437 H 50 V 15.625 h 6.25 c 4.746,0 8.594,3.848 8.594,8.594 0,4.746 -3.848,8.593 -8.594,8.593 z M 50,57.031 V 39.062 h 8.984 c 4.961,0 8.985,4.024 8.985,8.985 0,4.961 -4.024,8.984 -8.985,8.984 z M 22.68,9.375 c 1.308,0.008 2.472,0.832 2.918,2.066 l 17.187,47.657 c 0.586,1.621 -0.258,3.414 -1.879,4 -1.625,0.582 -3.414,-0.258 -4,-1.883 L 32.859,50 h -21 L 7.613,61.258 C 7.004,62.875 5.199,63.688 3.586,63.082 1.973,62.473 1.156,60.668 1.766,59.055 L 19.734,11.398 C 20.195,10.172 21.371,9.367 22.68,9.375 Z M 14.215,43.75 h 16.39 L 22.594,21.531 Z" style="fill:currentColor;fill-opacity:1;fill-rule:nonzero;stroke:none" transform="scale(1.3333333)" /> </g>
</svg>

