<?xml version="1.0" encoding="UTF-8" standalone="no"?> <svg version="1.1" id="I1d63551126a84774b9f83bb7badc926420251110133655" width="100" height="100" viewBox="0 0 100 100" xmlns="http://www.w3.org/2000/svg" xmlns:svg="http://www.w3.org/2000/svg"> <defs id="If4f1f3d109c24694aee605764ef5f3d520251110133655" /> <g id="I5869cd4811d6453ea7fae175adc1a26420251110133655"> <path id="I996acc6f25a54aab9eb6b28d69fbad8820251110133655" d="M 16.875,15 C 11.699,15 7.5,19.199 7.5,24.375 v 10.637 c 1.164,-0.551 2.426,-0.938 3.75,-1.129 v -9.508 c 0,-3.105 2.52,-5.625 5.625,-5.625 h 26.25 c 3.105,0 5.625,2.52 5.625,5.625 v 26.25 c 0,3.105 -2.52,5.625 -5.625,5.625 H 41.25 V 60 h 1.875 c 5.176,0 9.375,-4.199 9.375,-9.375 v -3.75 l 9,6.75 c 2.473,1.855 6,0.09 6,-3 v -26.25 c 0,-3.09 -3.527,-4.855 -6,-3 l -9,6.75 v -3.75 C 52.5,19.199 48.301,15 43.125,15 Z M 52.5,32.812 63.75,24.375 v 26.25 L 52.5,42.188 Z M 3.75,46.875 c 0,-5.176 4.199,-9.375 9.375,-9.375 h 15 c 5.176,0 9.375,4.199 9.375,9.375 v 15 c 0,5.176 -4.199,9.375 -9.375,9.375 h -15 C 7.949,71.25 3.75,67.051 3.75,61.875 Z m 15.074,0.129 c -0.293,-0.199 -0.617,-0.301 -0.972,-0.301 -0.247,0 -0.481,0.055 -0.704,0.16 -0.222,0.098 -0.418,0.235 -0.582,0.407 -0.168,0.171 -0.3,0.375 -0.402,0.605 -0.094,0.23 -0.141,0.477 -0.141,0.734 v 11.532 c 0,0.25 0.047,0.492 0.141,0.722 0.102,0.235 0.234,0.438 0.402,0.617 0.172,0.172 0.368,0.309 0.59,0.418 0.223,0.098 0.453,0.149 0.696,0.149 0.183,0 0.355,-0.027 0.515,-0.082 0.164,-0.051 0.328,-0.133 0.488,-0.238 l 8.61,-5.872 c 0.262,-0.171 0.465,-0.406 0.609,-0.695 0.149,-0.293 0.219,-0.598 0.219,-0.914 0,-0.332 -0.074,-0.637 -0.227,-0.914 -0.152,-0.285 -0.363,-0.512 -0.628,-0.684 z" style="fill:currentColor;fill-opacity:1;fill-rule:nonzero;stroke:none" transform="scale(1.3333333)" /> </g>
</svg>

