<?xml version="1.0" encoding="UTF-8" standalone="no"?> <svg version="1.1" id="Ie2522337dc1a4333bae5b13e707dd6aa20251110124421" width="100" height="100" viewBox="0 0 100 100" xmlns="http://www.w3.org/2000/svg" xmlns:svg="http://www.w3.org/2000/svg"> <defs id="If054468c06184f4398c85ee9c75298a820251110124421" /> <g id="I9cb1cf24427b4fc49f2751557590338120251110124421"> <path id="I4e1606991df04dbfbc165b542e615c3020251110124421" d="m 50.316,53.633 c -4.324,3.586 -9.882,5.742 -15.941,5.742 -13.809,0 -25,-11.191 -25,-25 0,-13.809 11.191,-25 25,-25 13.809,0 25,11.191 25,25 0,6.059 -2.156,11.617 -5.742,15.941 L 68.062,64.75 c 0.918,0.914 0.918,2.398 0,3.312 -0.914,0.918 -2.398,0.918 -3.312,0 z m 4.372,-19.258 c 0,-11.219 -9.094,-20.313 -20.313,-20.313 -11.219,0 -20.313,9.094 -20.313,20.313 0,11.219 9.094,20.313 20.313,20.313 11.219,0 20.313,-9.094 20.313,-20.313 z M 34.375,31.25 c 1.293,0 2.344,1.051 2.344,2.344 v 10.937 c 0,1.293 -1.051,2.344 -2.344,2.344 -1.293,0 -2.344,-1.051 -2.344,-2.344 V 33.594 c 0,-1.293 1.051,-2.344 2.344,-2.344 z m 0,-4.688 c 1.727,0 3.125,-1.398 3.125,-3.124 0,-1.727 -1.398,-3.126 -3.125,-3.126 -1.727,0 -3.125,1.399 -3.125,3.126 0,1.726 1.398,3.124 3.125,3.124 z" style="fill:currentColor;fill-opacity:1;fill-rule:nonzero;stroke:none" transform="scale(1.3333333)" /> </g>
</svg>

