<?xml version="1.0" encoding="UTF-8" standalone="no"?> <svg version="1.1" id="Id223998dba924e18b1b974c651a42bcc20251106151527" width="100" height="100" viewBox="0 0 100 100" xmlns="http://www.w3.org/2000/svg" xmlns:svg="http://www.w3.org/2000/svg"> <defs id="I986968c9c10d4fd8acc8b275e76e094e20251106151527" /> <g id="I411622f4188344048c2047762508b59c20251106151527"> <path id="Ib8e6a9fd40ea4569a2e1eccce395025920251106151527" d="m 42.188,42.188 h 4.687 V 37.5 H 42.188 Z M 57.422,14.062 H 12.891 c -4.524,0 -8.203,3.68 -8.203,8.204 v 35.156 c 0,4.523 3.679,8.203 8.203,8.203 h 44.531 c 4.523,0 8.203,-3.68 8.203,-8.203 V 22.266 c 0,-4.524 -3.68,-8.204 -8.203,-8.204 z M 27.953,31.363 c -0.18,0.426 -0.48,0.797 -0.867,1.055 -0.391,0.258 -0.84,0.394 -1.305,0.394 H 18.75 V 37.5 h 4.688 c 0.624,0 1.218,0.25 1.66,0.684 0.441,0.441 0.683,1.035 0.683,1.66 0,0.625 -0.25,1.218 -0.683,1.66 -0.438,0.441 -1.036,0.684 -1.66,0.684 H 18.75 v 7.031 c 0,0.625 -0.25,1.219 -0.684,1.66 -0.441,0.441 -1.035,0.683 -1.66,0.683 -0.625,0 -1.218,-0.25 -1.66,-0.683 -0.441,-0.441 -0.684,-1.035 -0.684,-1.66 v -18.75 c 0,-0.625 0.25,-1.219 0.684,-1.66 0.442,-0.442 1.035,-0.684 1.66,-0.684 h 9.375 c 0.309,0 0.614,0.063 0.899,0.18 0.289,0.117 0.547,0.289 0.761,0.504 0.329,0.328 0.551,0.746 0.641,1.199 0.09,0.457 0.043,0.93 -0.129,1.355 z m 25.953,10.825 c 0.625,0 1.219,0.25 1.66,0.683 0.442,0.441 0.684,1.035 0.684,1.66 0,0.625 -0.25,1.219 -0.684,1.66 -0.441,0.442 -1.035,0.684 -1.66,0.684 h -2.344 v 2.344 c 0,0.625 -0.25,1.219 -0.683,1.66 -0.441,0.441 -1.035,0.683 -1.66,0.683 -0.625,0 -1.219,-0.25 -1.66,-0.683 -0.442,-0.441 -0.684,-1.035 -0.684,-1.66 v -2.344 h -4.687 v 2.344 c 0,0.625 -0.25,1.219 -0.684,1.66 -0.442,0.441 -1.035,0.683 -1.66,0.683 -0.625,0 -1.219,-0.25 -1.66,-0.683 C 37.742,50.438 37.5,49.844 37.5,49.219 v -2.344 h -2.344 c -0.625,0 -1.218,-0.25 -1.66,-0.684 -0.441,-0.437 -0.684,-1.035 -0.684,-1.66 0,-0.625 0.25,-1.219 0.684,-1.66 0.442,-0.441 1.035,-0.683 1.66,-0.683 H 37.5 V 37.5 h -2.344 c -0.625,0 -1.218,-0.25 -1.66,-0.684 -0.441,-0.437 -0.684,-1.035 -0.684,-1.66 0,-0.625 0.25,-1.218 0.684,-1.66 0.442,-0.441 1.035,-0.684 1.66,-0.684 H 37.5 v -2.343 c 0,-0.625 0.25,-1.219 0.684,-1.66 0.441,-0.442 1.035,-0.684 1.66,-0.684 0.625,0 1.218,0.25 1.66,0.684 0.441,0.441 0.684,1.035 0.684,1.66 v 2.343 h 4.687 v -2.343 c 0,-0.625 0.25,-1.219 0.684,-1.66 0.441,-0.442 1.035,-0.684 1.66,-0.684 0.625,0 1.219,0.25 1.66,0.684 0.441,0.441 0.683,1.035 0.683,1.66 v 2.343 h 2.344 c 0.625,0 1.219,0.25 1.66,0.684 0.442,0.442 0.684,1.035 0.684,1.66 0,0.625 -0.25,1.219 -0.684,1.66 -0.441,0.442 -1.035,0.684 -1.66,0.684 h -2.344 v 4.688 z" style="fill:currentColor;fill-opacity:1;fill-rule:nonzero;stroke:none" transform="scale(1.3333333)" /> </g>
</svg>

