<?xml version="1.0" encoding="UTF-8" standalone="no"?> <svg version="1.1" id="Ifc027fb37deb46c1a8099bc98419240f20251106143238" width="100" height="100" viewBox="0 0 100 100" xmlns="http://www.w3.org/2000/svg" xmlns:svg="http://www.w3.org/2000/svg"> <defs id="I93bc958e405c42ec9bda7289d37d849420251106143238" /> <g id="I6a32f36107f340a694a218b913a7b44620251106143238"> <path id="I28346beb960c49f193d52ade51312b8e20251106143238" d="m 55.469,9.375 c 5.609,0 10.156,4.547 10.156,10.156 v 18.035 c -1.449,-0.925 -3.02,-1.671 -4.687,-2.211 V 26.562 H 14.062 v 28.907 c 0,3.019 2.45,5.469 5.469,5.469 h 15.824 c 0.54,1.667 1.286,3.238 2.211,4.687 H 19.531 C 13.922,65.625 9.375,61.078 9.375,55.469 V 19.531 c 0,-5.609 4.547,-10.156 10.156,-10.156 z m 0,4.687 H 19.531 c -3.019,0 -5.469,2.45 -5.469,5.469 v 2.344 h 46.876 v -2.344 c 0,-3.019 -2.45,-5.469 -5.469,-5.469 z m 16.406,40.626 c 0,9.492 -7.695,17.187 -17.187,17.187 C 45.195,71.875 37.5,64.18 37.5,54.688 37.5,45.195 45.195,37.5 54.688,37.5 c 9.492,0 17.187,7.695 17.187,17.188 z M 51.105,47.98 c 0.61,-0.609 0.61,-1.601 0,-2.21 -0.609,-0.61 -1.601,-0.61 -2.21,0 l -4.688,4.687 c -0.609,0.609 -0.609,1.602 0,2.211 l 4.688,4.687 c 0.609,0.61 1.601,0.61 2.21,0 0.61,-0.609 0.61,-1.601 0,-2.21 l -2.019,-2.02 h 6.383 c 3.883,0 7.031,3.148 7.031,7.031 v 0.782 c 0,0.863 0.699,1.562 1.562,1.562 0.864,0 1.563,-0.699 1.563,-1.562 V 60.156 C 65.625,54.547 61.078,50 55.469,50 h -6.383 z" style="fill:currentColor;fill-opacity:1;fill-rule:nonzero;stroke:none" transform="scale(1.3333333)" /> </g>
</svg>

