<?xml version="1.0" encoding="UTF-8" standalone="no"?>
<!-- Created with Inkscape (http://www.inkscape.org/) -->

<svg
   version="1.1"
   id="Idcbe32ebb1fe4f389ddca6c4a5a1481f20251030195519"
   width="100"
   height="100"
   viewBox="0 0 100 100"
   sodipodi:docname="output.ai"
   xmlns:inkscape="http://www.inkscape.org/namespaces/inkscape"
   xmlns:sodipodi="http://sodipodi.sourceforge.net/DTD/sodipodi-0.dtd"
   xmlns="http://www.w3.org/2000/svg"
   xmlns:svg="http://www.w3.org/2000/svg">
  <defs
     id="I76891b101fa54ebfb1c1c15061b1b09520251030195519" />
  <sodipodi:namedview
     id="Ib5327a9148514d3a98b1db21c12b371320251030195519"
     pagecolor="#ffffff"
     bordercolor="#000000"
     borderopacity="0.25"
     inkscape:showpageshadow="2"
     inkscape:pageopacity="0.0"
     inkscape:pagecheckerboard="0"
     inkscape:deskcolor="#d1d1d1">
    <inkscape:page
       x="0"
       y="0"
       inkscape:label="1"
       id="I111ad4f2faac4d2f8b8ccf82a805aa2920251030195519"
       width="100"
       height="100"
       margin="0"
       bleed="0" />
  </sodipodi:namedview>
  <g
     id="I225cf9c51c40488b840837d964fe469c20251030195519"
     inkscape:groupmode="layer"
     inkscape:label="1">
    <path
       id="I0ae5144e39f24cf2a51f7c924731050720251030195519"
       d="m 53.219,34.469 c 0.918,-0.914 0.918,-2.399 0,-3.313 -0.914,-0.918 -2.399,-0.918 -3.313,0 L 34.375,46.684 28.219,40.531 c -0.914,-0.918 -2.399,-0.918 -3.313,0 -0.918,0.914 -0.918,2.399 0,3.313 l 7.813,7.812 c 0.914,0.918 2.398,0.918 3.312,0 z M 49.98,12.766 C 49.715,9.121 46.68,6.25 42.969,6.25 H 32.031 c -3.617,0 -6.597,2.734 -6.988,6.25 h -5.512 c -3.883,0 -7.031,3.148 -7.031,7.031 v 42.188 c 0,3.883 3.148,7.031 7.031,7.031 h 35.938 c 3.883,0 7.031,-3.148 7.031,-7.031 V 19.531 C 62.5,15.648 59.352,12.5 55.469,12.5 h -5.512 c 0.008,0.086 0.02,0.176 0.023,0.266 z m 0.004,0.035 0.016,0.48 c 0,-0.16 -0.004,-0.324 -0.016,-0.48 z m -17.953,7.511 h 10.938 c 2.437,0 4.586,-1.242 5.847,-3.124 h 6.653 c 1.293,0 2.343,1.05 2.343,2.343 v 42.188 c 0,1.293 -1.05,2.343 -2.343,2.343 H 19.531 c -1.293,0 -2.343,-1.05 -2.343,-2.343 V 19.531 c 0,-1.293 1.05,-2.343 2.343,-2.343 h 6.653 c 1.261,1.882 3.41,3.124 5.847,3.124 z m 0,-9.374 h 10.938 c 1.293,0 2.343,1.05 2.343,2.343 0,1.293 -1.05,2.344 -2.343,2.344 H 32.031 c -1.293,0 -2.343,-1.051 -2.343,-2.344 0,-1.293 1.05,-2.343 2.343,-2.343 z"
       style="fill:#212121;fill-opacity:1;fill-rule:nonzero;stroke:none"
       transform="scale(1.3333333)" />
  </g>
</svg>

