<?xml version="1.0" encoding="UTF-8" standalone="no"?> <svg version="1.1" id="If64027bb6e5d4f95bdbbc1236707a12920251106165301" width="100" height="100" viewBox="0 0 100 100" xmlns="http://www.w3.org/2000/svg" xmlns:svg="http://www.w3.org/2000/svg"> <defs id="I8a84a8b7a97847e9a1fc8a099648b67920251106165301" /> <g id="I5c11ce6a297d498f9dba920a6355407c20251106165301"> <path id="Ia0f8bded9a744d58b268bb7d8b6af0d320251106165301" d="m 53.445,29.988 c 0.696,-0.808 1.309,-1.695 1.817,-2.644 h 7.246 c 3.453,0 6.25,-2.797 6.25,-6.25 0,-1.727 -1.399,-3.125 -3.125,-3.125 h -8.785 c -1.125,-7.086 -7.258,-12.5 -14.66,-12.5 -8.2,0 -14.844,6.644 -14.844,14.843 0,2.868 0.812,5.543 2.218,7.813 h -15.5 c -2.589,0 -4.687,2.098 -4.687,4.687 v 2.344 c 0,12.082 9.793,21.875 21.875,21.875 h 3.023 c 0.055,-0.129 0.114,-0.261 0.172,-0.39 -0.886,-1.696 -1.633,-3.934 -1.633,-6.641 0,-3.859 1.915,-7.703 4.618,-10.582 2.804,-2.996 6.859,-5.406 11.851,-6.066 2.731,-0.364 5.168,-0.528 7.34,-0.555 -0.891,-1.106 -1.965,-2.059 -3.176,-2.809 z M 38.25,56.105 c -2.309,3.465 -3.668,7.145 -3.852,10.161 -0.082,1.293 0.903,2.402 2.196,2.48 1.293,0.082 2.402,-0.902 2.48,-2.195 0.098,-1.606 0.758,-3.785 2.02,-6.098 1.851,1.938 4.754,3.621 8.906,3.621 4.074,0 7.125,-1.426 9.371,-3.719 2.164,-2.207 3.453,-5.078 4.367,-7.773 0.461,-1.363 0.844,-2.738 1.192,-4.02 l 0.179,-0.66 c 0.282,-1.043 0.543,-2.004 0.817,-2.894 0.332,-1.074 0.656,-1.93 1,-2.578 0.347,-0.657 0.633,-0.942 0.812,-1.063 0.762,-0.508 1.16,-1.41 1.02,-2.316 -0.141,-0.906 -0.801,-1.645 -1.68,-1.895 -3.203,-0.898 -8.633,-1.867 -17.387,-0.707 -4.211,0.559 -7.625,2.59 -9.984,5.106 -2.312,2.465 -3.769,5.578 -3.769,8.445 0,1.18 0.179,2.242 0.46,3.184 0.676,-1.004 1.434,-1.993 2.27,-2.946 3.703,-4.215 9.051,-7.918 15.641,-9.566 0.836,-0.211 1.683,0.301 1.894,1.137 0.211,0.836 -0.301,1.683 -1.137,1.894 -5.91,1.477 -10.718,4.805 -14.046,8.598 -1.102,1.25 -2.024,2.535 -2.77,3.804 z" style="fill:currentColor;fill-opacity:1;fill-rule:nonzero;stroke:none" transform="scale(1.3333333)" /> </g>
</svg>

