<?xml version="1.0" encoding="UTF-8" standalone="no"?> <svg version="1.1" id="I6efb7795f595454e9ae3c63ec139412f20251106105802" width="100" height="100" viewBox="0 0 100 100" xmlns="http://www.w3.org/2000/svg" xmlns:svg="http://www.w3.org/2000/svg"> <defs id="I8d3c2c3697f04f3b9583af416e94be0120251106105802" /> <g id="Ie709883527ac4e8f8d50d92c41ed9fef20251106105802"> <path id="I7fd4eb10748a41c8a4096a6d26fb783c20251106105802" d="m 25.219,38.043 20.593,14.902 c 0.442,0.317 1.063,0 1.063,-0.547 v -3.925 c 0,-0.852 -0.41,-1.664 -1.105,-2.168 L 33.598,37.5 45.77,28.695 c 0.695,-0.504 1.105,-1.308 1.105,-2.168 v -3.925 c 0,-0.547 -0.621,-0.864 -1.063,-0.547 L 25.219,36.957 c -0.367,0.27 -0.367,0.816 0,1.086 z" style="fill:currentColor;fill-opacity:1;fill-rule:nonzero;stroke:none" transform="scale(1.3333333)" /> <path id="I7d9a42ec328f4eafb4d3c88cfd58ac5520251106105802" d="M 68.305,4.02 H 6.695 C 5.215,4.02 4.02,5.215 4.02,6.695 v 61.61 c 0,1.48 1.195,2.675 2.675,2.675 h 61.61 c 1.48,0 2.675,-1.195 2.675,-2.675 V 6.695 C 70.98,5.215 69.785,4.02 68.305,4.02 Z M 64.957,64.957 H 10.043 V 10.043 h 54.914 z" style="fill:currentColor;fill-opacity:1;fill-rule:nonzero;stroke:none" transform="scale(1.3333333)" /> </g>
</svg>

