<?xml version="1.0" encoding="UTF-8" standalone="no"?> <svg version="1.1" id="I7f4446bf6dd1480c9a03281d5d68dc2220251106170956" width="100" height="100" viewBox="0 0 100 100" xmlns="http://www.w3.org/2000/svg" xmlns:svg="http://www.w3.org/2000/svg"> <defs id="Id17adaf863484fdbad6e0c9fb5d8d0e220251106170956" /> <g id="I8d17d6068fcc437f878dc34457e8249220251106170956"> <path id="Ia287b1cfdb5942fd8329a59fd99c510320251106170956" d="M 71.875,20.312 C 71.875,29.805 64.18,37.5 54.688,37.5 45.195,37.5 37.5,29.805 37.5,20.312 37.5,10.82 45.195,3.125 54.688,3.125 c 9.492,0 17.187,7.695 17.187,17.187 z m -29.687,0 c 0,2.606 0.796,5.024 2.16,7.028 L 61.715,9.973 C 59.711,8.609 57.293,7.812 54.688,7.812 c -6.903,0 -12.5,5.598 -12.5,12.5 z m 12.5,12.5 c 6.902,0 12.5,-5.597 12.5,-12.5 0,-2.605 -0.797,-5.023 -2.161,-7.027 L 47.66,30.652 c 2.004,1.364 4.422,2.16 7.028,2.16 z m 9.374,19.532 V 38.336 c 1.723,-0.898 3.301,-2.035 4.688,-3.367 v 17.375 c 0,5.414 -4.238,9.84 -9.578,10.14 L 58.594,62.5 H 16.406 c -5.414,0 -9.84,-4.238 -10.14,-9.578 L 6.25,52.344 V 22.656 c 0,-5.414 4.238,-9.84 9.578,-10.14 L 16.406,12.5 h 19.528 c -0.622,1.48 -1.067,3.051 -1.321,4.688 H 16.406 c -2.871,0 -5.222,2.21 -5.449,5.019 l -0.019,0.449 v 1.34 L 37.5,37.977 41.578,35.828 c 1.371,1.16 2.899,2.141 4.543,2.906 l -7.531,3.965 c -0.582,0.309 -1.27,0.352 -1.883,0.133 L 36.41,42.699 10.938,29.293 v 23.051 c 0,2.871 2.21,5.222 5.019,5.449 l 0.449,0.019 h 42.188 c 2.871,0 5.222,-2.21 5.449,-5.019 z" style="fill:currentColor;fill-opacity:1;fill-rule:nonzero;stroke:none" transform="scale(1.3333333)" /> </g>
</svg>

