<?xml version="1.0" encoding="UTF-8" standalone="no"?> <svg version="1.1" id="I3536a5bf54214136affa0b1da3e506d920251106155157" width="100" height="100" viewBox="0 0 100 100" xmlns="http://www.w3.org/2000/svg" xmlns:svg="http://www.w3.org/2000/svg"> <defs id="I2ed1e69f18db4be5a7ddbf673c56196720251106155157" /> <g id="Ic6dce9c01f30469dac7e36db87960ba020251106155157"> <path id="I367228435b2e47e0924ae26c9d537d9620251106155157" d="m 15,15 c 0,-4.141 3.359,-7.5 7.5,-7.5 h 13.445 c 1.493,0 2.922,0.594 3.981,1.648 l 14.676,14.676 c 1.054,1.055 1.648,2.488 1.648,3.981 V 52.5 c 0,4.141 -3.359,7.5 -7.5,7.5 h -8.277 c 0.343,-1.207 0.578,-2.461 0.691,-3.75 h 7.586 c 2.07,0 3.75,-1.68 3.75,-3.75 L 52.5,30 H 39.375 C 36.27,30 33.75,27.48 33.75,24.375 V 11.25 H 22.5 c -2.07,0 -3.75,1.68 -3.75,3.75 v 18.836 c -1.289,0.113 -2.543,0.348 -3.75,0.691 z m 22.5,-2.973 v 12.348 c 0,1.035 0.84,1.875 1.875,1.875 H 51.723 Z M 39,63.75 c -0.684,1.34 -1.512,2.598 -2.465,3.75 h 12.442 c 8.16,0 14.773,-6.613 14.773,-14.773 V 33.75 C 63.75,31.68 62.07,30 60,30 v 22.5 c 0,6.215 -5.035,11.25 -11.25,11.25 z M 3.75,54.375 c 0,9.32 7.555,16.875 16.875,16.875 9.32,0 16.875,-7.555 16.875,-16.875 C 37.5,45.055 29.945,37.5 20.625,37.5 11.305,37.5 3.75,45.055 3.75,54.375 Z M 28.125,43.125 C 29.16,43.125 30,43.965 30,45 v 5.625 C 30,51.66 29.16,52.5 28.125,52.5 H 22.5 c -1.035,0 -1.875,-0.84 -1.875,-1.875 0,-1.035 0.84,-1.875 1.875,-1.875 h 1.754 c -0.188,-0.105 -0.379,-0.199 -0.578,-0.289 -0.918,-0.41 -1.914,-0.629 -2.918,-0.649 -1.008,-0.015 -2.008,0.168 -2.942,0.547 -0.933,0.375 -1.781,0.938 -2.496,1.649 -0.73,0.734 -1.918,0.734 -2.652,0 -0.73,-0.731 -0.73,-1.918 0,-2.649 1.07,-1.07 2.344,-1.91 3.742,-2.476 1.402,-0.567 2.902,-0.844 4.41,-0.821 1.512,0.028 3,0.36 4.383,0.973 0.359,0.16 0.707,0.34 1.047,0.535 V 45 c 0,-1.035 0.84,-1.875 1.875,-1.875 z M 24.84,63.867 c -1.402,0.567 -2.902,0.844 -4.41,0.821 -1.512,-0.028 -3,-0.36 -4.383,-0.973 C 15.688,63.555 15.34,63.375 15,63.18 v 0.57 c 0,1.035 -0.84,1.875 -1.875,1.875 -1.035,0 -1.875,-0.84 -1.875,-1.875 v -5.625 c 0,-1.035 0.84,-1.875 1.875,-1.875 h 5.625 c 1.035,0 1.875,0.84 1.875,1.875 0,1.035 -0.84,1.875 -1.875,1.875 h -1.754 c 0.188,0.105 0.379,0.199 0.578,0.289 0.918,0.41 1.914,0.629 2.918,0.649 1.008,0.015 2.008,-0.168 2.942,-0.547 0.933,-0.375 1.781,-0.938 2.496,-1.649 0.73,-0.734 1.918,-0.734 2.652,0 0.73,0.731 0.73,1.918 0,2.649 -1.07,1.07 -2.344,1.91 -3.742,2.476 z" style="fill:currentColor;fill-opacity:1;fill-rule:nonzero;stroke:none" transform="scale(1.3333333)" /> </g>
</svg>

