<?xml version="1.0" encoding="UTF-8" standalone="no"?> <svg version="1.1" id="Ic8cab551489946279c20dcea4deab22a20251106154012" width="100" height="100" viewBox="0 0 100 100" xmlns="http://www.w3.org/2000/svg" xmlns:svg="http://www.w3.org/2000/svg"> <defs id="I01c511df3f32468f9f66872f02ece30a20251106154012" /> <g id="I0c4449f9aba646b99932321e90f0dfef20251106154012"> <path id="I242c98bc82d24dc4835349fda4705c7520251106154012" d="m 46.875,4.688 c -0.574,0 -1.145,0.019 -1.711,0.054 -1.293,0.082 -2.273,1.196 -2.191,2.488 0.082,1.293 1.195,2.274 2.488,2.188 0.469,-0.027 0.937,-0.043 1.414,-0.043 12.082,0 21.875,9.793 21.875,21.875 0,0.477 -0.016,0.945 -0.047,1.414 -0.082,1.293 0.899,2.406 2.192,2.488 1.293,0.082 2.406,-0.898 2.488,-2.191 0.035,-0.566 0.055,-1.137 0.055,-1.711 0,-14.672 -11.891,-26.562 -26.563,-26.562 z m 0,7.812 c -0.602,0 -1.195,0.027 -1.781,0.082 -1.289,0.125 -2.235,1.266 -2.114,2.555 0.122,1.289 1.266,2.234 2.551,2.113 0.442,-0.043 0.891,-0.062 1.344,-0.062 7.766,0 14.063,6.296 14.063,14.062 0,0.453 -0.02,0.902 -0.063,1.344 -0.121,1.285 0.824,2.429 2.113,2.551 1.289,0.121 2.43,-0.825 2.555,-2.114 0.055,-0.586 0.082,-1.179 0.082,-1.781 0,-10.355 -8.395,-18.75 -18.75,-18.75 z m 0,7.812 c -0.676,0 -1.34,0.063 -1.984,0.18 -1.274,0.235 -2.118,1.457 -1.883,2.731 0.234,1.273 1.453,2.113 2.726,1.879 0.368,-0.067 0.75,-0.102 1.141,-0.102 3.453,0 6.25,2.797 6.25,6.25 0,0.391 -0.035,0.773 -0.102,1.141 -0.234,1.273 0.606,2.492 1.879,2.726 1.274,0.235 2.496,-0.609 2.731,-1.883 0.117,-0.644 0.179,-1.308 0.179,-1.984 0,-6.039 -4.898,-10.938 -10.937,-10.938 z M 40.348,9.375 H 13.281 l -0.48,0.016 C 9.141,9.637 6.25,12.684 6.25,16.406 v 32.821 l 0.016,0.48 c 0.246,3.66 3.293,6.551 7.015,6.551 h 13.278 v 7.804 h -5.465 l -0.317,0.024 c -1.144,0.156 -2.027,1.137 -2.027,2.32 0,1.297 1.051,2.344 2.344,2.344 h 32.812 l 0.317,-0.02 c 1.144,-0.156 2.027,-1.136 2.027,-2.324 0,-1.293 -1.051,-2.344 -2.344,-2.344 h -5.472 v -7.804 h 13.281 l 0.48,-0.016 c 3.66,-0.25 6.551,-3.297 6.551,-7.015 v -11.45 c -0.609,-0.281 -1.16,-0.675 -1.621,-1.148 -0.813,0.832 -1.883,1.402 -3.066,1.59 v 11.008 l -0.02,0.316 c -0.156,1.145 -1.137,2.027 -2.324,2.027 H 13.281 L 12.965,51.547 C 11.82,51.395 10.938,50.414 10.938,49.227 V 16.406 l 0.019,-0.316 c 0.156,-1.145 1.137,-2.028 2.324,-2.028 H 39.91 C 40.098,12.879 40.664,11.812 41.496,11 41.023,10.539 40.629,9.988 40.348,9.375 Z m 3.394,46.883 0.004,7.804 h -12.5 L 31.242,56.258 Z M 50,31.25 c 0,1.727 -1.398,3.125 -3.125,3.125 -1.727,0 -3.125,-1.398 -3.125,-3.125 0,-1.727 1.398,-3.125 3.125,-3.125 1.727,0 3.125,1.398 3.125,3.125 z" style="fill:currentColor;fill-opacity:1;fill-rule:nonzero;stroke:none" transform="scale(1.3333333)" /> </g>
</svg>

