<?xml version="1.0" encoding="UTF-8" standalone="no"?> <svg version="1.1" id="Ib52a990a024e41999cace0635be23e7b20251110135155" width="100" height="100" viewBox="0 0 100 100" xmlns="http://www.w3.org/2000/svg" xmlns:svg="http://www.w3.org/2000/svg"> <defs id="I65b551531b27432ab965f575f253822a20251110135155" /> <g id="Iafa9983259cd4962965780b8340bc3c820251110135155"> <path id="I7542ae5be00c4fe495dcca7a6ef5adad20251110135155" d="m 8.594,15.625 h 57.812 c 1.293,0 2.344,1.051 2.344,2.344 0,1.187 -0.883,2.168 -2.027,2.324 l -0.317,0.019 H 8.594 c -1.293,0 -2.344,-1.05 -2.344,-2.343 0,-1.188 0.883,-2.168 2.027,-2.324 z m 57.812,12.5 H 8.594 l -0.317,0.02 c -1.144,0.156 -2.027,1.136 -2.027,2.324 0,1.293 1.051,2.343 2.344,2.343 h 57.812 l 0.317,-0.019 c 1.144,-0.156 2.027,-1.137 2.027,-2.324 0,-1.293 -1.051,-2.344 -2.344,-2.344 z M 8.594,45.312 h 28.07 c 0.898,-1.722 2.035,-3.3 3.367,-4.687 H 8.594 l -0.317,0.02 c -1.144,0.156 -2.027,1.136 -2.027,2.324 0,1.293 1.051,2.343 2.344,2.343 z m 0,7.813 h 25.84 c -0.039,0.516 -0.059,1.035 -0.059,1.563 0,1.062 0.082,2.105 0.238,3.124 H 8.594 c -1.293,0 -2.344,-1.05 -2.344,-2.343 0,-1.188 0.883,-2.168 2.027,-2.324 z M 37.5,54.688 c 0,9.492 7.695,17.187 17.188,17.187 9.492,0 17.187,-7.695 17.187,-17.187 C 71.875,45.195 64.18,37.5 54.688,37.5 45.195,37.5 37.5,45.195 37.5,54.688 Z m 19.844,8.917 -0.215,0.18 c -0.609,0.422 -1.453,0.363 -1.996,-0.18 l -0.18,-0.218 c -0.422,-0.606 -0.359,-1.449 0.18,-1.992 L 60.277,56.25 H 45.312 L 45.031,56.227 C 44.305,56.094 43.75,55.453 43.75,54.688 l 0.023,-0.282 c 0.133,-0.726 0.774,-1.281 1.539,-1.281 h 14.965 l -5.144,-5.145 -0.18,-0.218 c -0.422,-0.606 -0.359,-1.45 0.18,-1.992 0.613,-0.61 1.601,-0.61 2.211,0 l 7.863,7.863 0.156,0.207 0.106,0.191 0.093,0.25 0.047,0.27 -0.007,0.344 -0.059,0.265 -0.074,0.184 -0.137,0.238 -0.129,0.16 z" style="fill:currentColor;fill-opacity:1;fill-rule:nonzero;stroke:none" transform="scale(1.3333333)" /> </g>
</svg>

