<?xml version="1.0" encoding="UTF-8" standalone="no"?> <svg version="1.1" id="I4766d7da7b3e4f6fae558c793b0eb1f020251106161453" width="100" height="100" viewBox="0 0 100 100" xmlns="http://www.w3.org/2000/svg" xmlns:svg="http://www.w3.org/2000/svg"> <defs id="I3312561670d44892a90cb17dd08cfce720251106161453" /> <g id="Ic8a49fd3e0144b329b8ec65b7550705d20251106161453"> <path id="Ie9d1474ea45c460ab35dd2877c804a2720251106161453" d="m 68.75,20.312 c 0,9.493 -7.695,17.188 -17.188,17.188 -9.492,0 -17.187,-7.695 -17.187,-17.188 0,-9.492 7.695,-17.187 17.187,-17.187 9.493,0 17.188,7.695 17.188,17.187 z M 46.418,12.957 c -0.609,-0.609 -1.602,-0.609 -2.211,0 -0.609,0.609 -0.609,1.602 0,2.211 l 5.145,5.144 -5.145,5.145 c -0.609,0.609 -0.609,1.602 0,2.211 0.609,0.609 1.602,0.609 2.211,0 l 5.144,-5.145 5.145,5.145 c 0.609,0.609 1.602,0.609 2.211,0 0.609,-0.609 0.609,-1.602 0,-2.211 l -5.145,-5.145 5.145,-5.144 c 0.609,-0.609 0.609,-1.602 0,-2.211 -0.609,-0.609 -1.602,-0.609 -2.211,0 l -5.145,5.145 z m 19.207,22.012 c -1.387,1.332 -2.965,2.469 -4.687,3.367 V 43.75 H 46.695 c -1.195,0 -2.164,0.969 -2.164,2.164 v 0.18 c 0,3.883 -3.148,7.031 -7.031,7.031 -3.883,0 -7.031,-3.148 -7.031,-7.031 v -0.18 c 0,-1.195 -0.969,-2.164 -2.164,-2.164 H 14.062 V 29.688 H 33.539 C 32.773,28.223 32.184,26.648 31.793,25 H 14.062 v -2.344 c 0,-3.019 2.45,-5.468 5.469,-5.468 h 11.957 c 0.254,-1.637 0.7,-3.208 1.321,-4.688 H 19.531 c -5.609,0 -10.156,4.547 -10.156,10.156 v 35.938 c 0,5.609 4.547,10.156 10.156,10.156 h 35.938 c 5.609,0 10.156,-4.547 10.156,-10.156 z m -4.687,13.469 v 10.156 c 0,3.019 -2.45,5.468 -5.469,5.468 H 19.531 c -3.019,0 -5.469,-2.449 -5.469,-5.468 V 48.438 h 11.954 c 1.086,5.347 5.816,9.374 11.484,9.374 5.668,0 10.398,-4.027 11.484,-9.374 z" style="fill:currentColor;fill-opacity:1;fill-rule:nonzero;stroke:none" transform="scale(1.3333333)" /> </g>
</svg>

