<?xml version="1.0" encoding="UTF-8" standalone="no"?> <svg version="1.1" id="I6602aa696a4f47dcb044ed6d3448ec4c20251106144520" width="100" height="100" viewBox="0 0 100 100" xmlns="http://www.w3.org/2000/svg" xmlns:svg="http://www.w3.org/2000/svg"> <defs id="I4011073a7fcc4fe5a1b0a00e466f86b020251106144520" /> <g id="Ie21a988072a84458bf72bc74e37ac8fc20251106144520"> <path id="I51c234bcb2d343b5b024609c6e256fcb20251106144520" d="m 29,25.688 c -0.914,-0.918 -2.398,-0.918 -3.312,0 -0.918,0.914 -0.918,2.398 0,3.312 l 8.496,8.5 -8.496,8.5 c -0.918,0.914 -0.918,2.398 0,3.312 0.914,0.918 2.398,0.918 3.312,0 l 8.5,-8.496 8.5,8.496 c 0.914,0.918 2.398,0.918 3.312,0 0.918,-0.914 0.918,-2.398 0,-3.312 L 40.816,37.5 49.312,29 c 0.918,-0.914 0.918,-2.398 0,-3.312 -0.914,-0.918 -2.398,-0.918 -3.312,0 l -8.5,8.496 z M 68.75,37.5 C 68.75,20.242 54.758,6.25 37.5,6.25 20.242,6.25 6.25,20.242 6.25,37.5 c 0,5.062 1.207,9.957 3.484,14.352 L 6.398,63.797 c -0.195,0.687 -0.195,1.414 0,2.101 0.579,2.079 2.735,3.293 4.813,2.711 l 11.953,-3.336 c 4.391,2.274 9.277,3.477 14.336,3.477 17.258,0 31.25,-13.992 31.25,-31.25 z m -57.812,0 c 0,-14.672 11.89,-26.562 26.562,-26.562 14.672,0 26.562,11.89 26.562,26.562 0,14.672 -11.89,26.562 -26.562,26.562 -4.586,0 -9,-1.164 -12.914,-3.343 L 23.742,60.246 11.285,63.723 14.762,51.273 14.289,50.43 C 12.102,46.512 10.938,42.094 10.938,37.5 Z" style="fill:currentColor;fill-opacity:1;fill-rule:nonzero;stroke:none" transform="scale(1.3333333)" /> </g>
</svg>

