<?xml version="1.0" encoding="UTF-8" standalone="no"?> <svg version="1.1" id="I892d559810cb45c79b090dceb948681c20251110135156" width="100" height="100" viewBox="0 0 100 100" xmlns="http://www.w3.org/2000/svg" xmlns:svg="http://www.w3.org/2000/svg"> <defs id="Iab9cef4a58b1465181a67d586c92c07c20251110135156" /> <g id="Id3113f9342b344a2895a4724331fa05020251110135156"> <path id="I3ae18c4e6b77487893c84a93a1e90b6820251110135156" d="m 8.594,56.25 c -1.106,0 -2.063,0.773 -2.293,1.855 -0.231,1.083 0.328,2.176 1.332,2.625 l 0.012,0.008 c 0.015,0.004 0.039,0.016 0.074,0.035 0.074,0.036 0.191,0.094 0.34,0.172 0.296,0.164 0.722,0.41 1.199,0.743 0.976,0.683 2.07,1.64 2.816,2.835 0.688,1.098 2.133,1.43 3.231,0.747 1.097,-0.688 1.429,-2.133 0.746,-3.231 -0.242,-0.391 -0.504,-0.758 -0.778,-1.101 h 7.383 C 23.949,60.938 25,59.887 25,58.594 25,57.301 23.949,56.25 22.656,56.25 Z m 50,-45.312 c -1.293,0 -2.344,1.05 -2.344,2.343 v 28.125 c 0,1.297 1.051,2.344 2.344,2.344 1.293,0 2.344,-1.047 2.344,-2.344 V 13.281 c 0,-1.293 -1.051,-2.343 -2.344,-2.343 z m -20.332,0 c -1.293,0 -2.344,1.05 -2.344,2.343 v 28.125 c 0,1.297 1.051,2.344 2.344,2.344 1.293,0 2.343,-1.047 2.343,-2.344 V 13.281 c 0,-1.293 -1.05,-2.343 -2.343,-2.343 z m -20.293,0 c -1.293,0 -2.344,1.05 -2.344,2.343 v 28.125 c 0,1.297 1.051,2.344 2.344,2.344 1.293,0 2.343,-1.047 2.343,-2.344 V 13.281 c 0,-1.293 -1.05,-2.343 -2.343,-2.343 z m 14.906,47.964 c -0.168,0.942 0.207,2.114 0.813,2.723 0.917,0.914 0.917,2.398 0,3.313 -0.915,0.917 -2.399,0.917 -3.313,0 -1.738,-1.735 -2.535,-4.469 -2.117,-6.848 0.219,-1.242 0.797,-2.52 1.894,-3.488 1.118,-0.985 2.575,-1.477 4.223,-1.477 1.937,0 3.375,0.848 4.437,1.895 0.883,0.867 1.598,1.972 2.153,2.828 l 0.16,0.25 c 0.398,0.609 0.742,1.109 1.063,1.504 v -4.133 c 0,-1.293 1.05,-2.344 2.343,-2.344 1.293,0 2.344,1.051 2.344,2.344 v 7.812 c 0,1.293 -1.051,2.344 -2.344,2.344 -4.105,0 -6.101,-3.074 -7.304,-4.922 l -0.122,-0.187 c -0.644,-0.993 -1.082,-1.668 -1.578,-2.157 -0.425,-0.418 -0.742,-0.547 -1.152,-0.547 -0.695,0 -0.992,0.192 -1.121,0.305 -0.149,0.129 -0.305,0.367 -0.379,0.785 z M 66.5,65.719 c 0,0 0.262,-0.289 0.016,-0.012 l 0.015,-0.019 0.039,-0.04 c 0.032,-0.031 0.067,-0.07 0.106,-0.117 0.078,-0.09 0.176,-0.207 0.289,-0.355 0.219,-0.293 0.492,-0.707 0.758,-1.238 0.531,-1.067 1.027,-2.594 1.027,-4.563 0,-1.996 -0.566,-3.738 -1.688,-5.004 -1.124,-1.273 -2.675,-1.906 -4.246,-1.855 -1.3,0.039 -2.488,0.519 -3.441,1.328 -0.953,-0.809 -2.141,-1.289 -3.441,-1.328 -1.567,-0.051 -3.122,0.582 -4.246,1.855 C 50.566,55.637 50,57.379 50,59.375 c 0,1.969 0.496,3.496 1.027,4.563 0.266,0.531 0.539,0.945 0.762,1.238 0.109,0.148 0.207,0.265 0.285,0.355 0.039,0.047 0.074,0.086 0.106,0.117 l 0.039,0.04 0.015,0.019 0.008,0.004 0.008,0.008 c 0.914,0.918 2.398,0.918 3.312,0 0.903,-0.903 0.918,-2.36 0.04,-3.278 -0.012,-0.007 -0.032,-0.035 -0.063,-0.078 -0.074,-0.097 -0.191,-0.269 -0.316,-0.519 -0.25,-0.496 -0.535,-1.313 -0.535,-2.469 0,-1.129 0.312,-1.676 0.511,-1.898 0.192,-0.219 0.399,-0.286 0.586,-0.278 0.199,0.008 0.473,0.102 0.723,0.387 0.238,0.273 0.523,0.82 0.523,1.789 0,1.293 1.051,2.344 2.344,2.344 1.293,0 2.344,-1.051 2.344,-2.344 0,-0.969 0.285,-1.516 0.527,-1.789 0.246,-0.285 0.52,-0.379 0.719,-0.387 0.191,-0.008 0.394,0.059 0.586,0.278 0.199,0.222 0.511,0.769 0.511,1.898 0,1.156 -0.285,1.973 -0.535,2.469 -0.125,0.25 -0.242,0.422 -0.312,0.519 -0.035,0.043 -0.055,0.071 -0.067,0.078 -0.875,0.918 -0.863,2.375 0.04,3.278 0.914,0.918 2.398,0.918 3.312,0 z m -14.258,-0.008 0.004,0.004 c -0.019,-0.02 -0.523,-0.625 -0.004,-0.004 z" style="fill:currentColor;fill-opacity:1;fill-rule:nonzero;stroke:none" transform="scale(1.3333333)" /> </g>
</svg>

