<?xml version="1.0" encoding="UTF-8" standalone="no"?> <svg version="1.1" id="I61e3cb48ef9b4b8188ca4ea0488c955620251110130508" width="100" height="100" viewBox="0 0 100 100" xmlns="http://www.w3.org/2000/svg" xmlns:svg="http://www.w3.org/2000/svg"> <defs id="I6036650ad7274822853542bd4503f94c20251110130508" /> <g id="Ia6436aabf9054899a5491d676626ebfb20251110130508"> <path id="I6ff2e7ba57b74277bc8033f3e4f1ccf220251110130508" d="m 65.488,46.43 c 0.043,-0.024 0.09,-0.047 0.137,-0.067 V 19.531 C 65.625,13.922 61.078,9.375 55.469,9.375 H 19.531 c -5.609,0 -10.156,4.547 -10.156,10.156 v 35.938 c 0,5.609 4.547,10.156 10.156,10.156 H 38.199 C 37.723,65.281 37.293,64.852 36.934,64.34 36.203,63.301 35.609,62.156 35.176,60.938 H 19.531 c -3.019,0 -5.469,-2.45 -5.469,-5.469 V 19.531 c 0,-3.019 2.45,-5.469 5.469,-5.469 h 35.938 c 3.019,0 5.469,2.45 5.469,5.469 v 21.172 l 3.085,3.086 c 0.754,0.754 1.243,1.672 1.465,2.641 z m -30.765,6.695 c 0.386,-1.699 1.082,-3.281 2.019,-4.687 H 24.219 l -0.317,0.019 c -1.144,0.156 -2.027,1.137 -2.027,2.324 0,1.293 1.051,2.344 2.344,2.344 z M 51.602,39.102 c 0.437,-0.438 0.929,-0.786 1.457,-1.043 0.043,-0.18 0.066,-0.368 0.066,-0.559 0,-1.293 -1.051,-2.344 -2.344,-2.344 H 24.219 l -0.317,0.02 c -1.144,0.156 -2.027,1.136 -2.027,2.324 0,1.293 1.051,2.344 2.344,2.344 h 26.562 l 0.207,-0.016 c 0.18,-0.254 0.387,-0.496 0.614,-0.726 z m 1.523,-14.883 c 0,1.187 -0.883,2.168 -2.027,2.324 l -0.317,0.019 H 24.219 c -1.293,0 -2.344,-1.05 -2.344,-2.343 0,-1.188 0.883,-2.168 2.027,-2.324 l 0.317,-0.02 h 26.562 c 1.293,0 2.344,1.051 2.344,2.344 z M 61.812,46 57.125,41.312 c -0.914,-0.917 -2.398,-0.917 -3.313,0 -0.917,0.915 -0.917,2.399 0,3.313 l 0.684,0.687 h -6.058 c -6.04,0 -10.938,4.899 -10.938,10.938 0,2.34 0.738,4.512 1.988,6.293 0.746,1.059 2.211,1.312 3.266,0.566 1.058,-0.746 1.312,-2.207 0.57,-3.265 -0.719,-1.016 -1.136,-2.254 -1.136,-3.594 0,-3.453 2.796,-6.25 6.25,-6.25 h 6.058 l -0.684,0.688 c -0.917,0.914 -0.917,2.398 0,3.312 0.915,0.918 2.399,0.918 3.313,0 l 4.687,-4.688 c 0.918,-0.914 0.918,-2.398 0,-3.312 z m 8.071,3.953 c -0.746,-1.055 -2.207,-1.308 -3.266,-0.562 -1.058,0.746 -1.312,2.207 -0.566,3.265 0.715,1.016 1.137,2.25 1.137,3.594 0,3.453 -2.797,6.25 -6.25,6.25 h -6.059 l 0.683,-0.688 c 0.918,-0.914 0.918,-2.398 0,-3.312 -0.914,-0.918 -2.398,-0.918 -3.312,0 l -4.688,4.688 c -0.917,0.914 -0.917,2.398 0,3.312 l 4.688,4.688 c 0.914,0.917 2.398,0.917 3.312,0 0.918,-0.915 0.918,-2.399 0,-3.313 l -0.683,-0.687 h 6.059 c 6.039,0 10.937,-4.899 10.937,-10.938 0,-2.34 -0.738,-4.516 -1.992,-6.297 z" style="fill:currentColor;fill-opacity:1;fill-rule:nonzero;stroke:none" transform="scale(1.3333333)" /> </g>
</svg>

