<?xml version="1.0" encoding="UTF-8" standalone="no"?> <svg version="1.1" id="Ie7d9835098a448ce8d0748a0dd7d87b820251110130509" width="100" height="100" viewBox="0 0 100 100" xmlns="http://www.w3.org/2000/svg" xmlns:svg="http://www.w3.org/2000/svg"> <defs id="I862d62511fbc4cb5b4c8c301e5bcd35220251110130509" /> <g id="Icbfee432d4ff45afa21e613452082d3f20251110130509"> <path id="I86204e250fb64b50882af72b978197ef20251110130509" d="m 37.648,9.375 c -1.949,0.699 -3.265,2.512 -3.273,4.59 0,0.031 0.004,0.066 0.004,0.097 H 19.531 c -3.019,0 -5.469,2.45 -5.469,5.469 v 35.938 c 0,3.019 2.45,5.469 5.469,5.469 h 35.938 c 3.019,0 5.469,-2.45 5.469,-5.469 v -13.02 c 0.667,0.863 1.597,1.457 3,1.457 0.664,0 1.214,-0.14 1.687,-0.367 v 11.93 c 0,5.609 -4.547,10.156 -10.156,10.156 H 19.531 C 13.922,65.625 9.375,61.078 9.375,55.469 V 19.531 c 0,-5.609 4.547,-10.156 10.156,-10.156 z m -7.273,31.937 c 0.914,-0.917 2.398,-0.917 3.313,0 0.917,0.915 0.917,2.399 0,3.313 l -6.25,6.25 c -0.915,0.918 -2.399,0.918 -3.313,0 L 21,47.75 c -0.918,-0.914 -0.918,-2.398 0,-3.312 0.914,-0.918 2.398,-0.918 3.312,0 l 1.469,1.468 z m 21.969,2.438 c 1.293,0 2.344,1.051 2.344,2.344 0,1.293 -1.051,2.344 -2.344,2.344 H 41.406 c -1.293,0 -2.344,-1.051 -2.344,-2.344 0,-1.293 1.051,-2.344 2.344,-2.344 z M 64.016,25 c 0.195,0 0.382,0.062 0.543,0.176 0.16,0.109 0.281,0.269 0.347,0.453 l 0.778,2.391 c 0.242,0.726 0.652,1.39 1.191,1.929 0.543,0.543 1.203,0.949 1.93,1.192 l 2.394,0.773 0.043,0.012 c 0.184,0.066 0.348,0.187 0.457,0.347 0.113,0.161 0.176,0.352 0.176,0.547 0,0.196 -0.063,0.387 -0.176,0.543 -0.109,0.16 -0.273,0.282 -0.457,0.348 l -2.387,0.773 c -0.73,0.243 -1.39,0.649 -1.933,1.192 -0.543,0.539 -0.949,1.203 -1.192,1.929 l -0.777,2.391 c -0.066,0.184 -0.183,0.344 -0.344,0.453 -0.16,0.113 -0.351,0.176 -0.547,0.176 -0.195,0 -0.386,-0.063 -0.546,-0.176 C 63.355,40.34 63.238,40.18 63.172,39.996 L 62.395,37.605 C 62.152,36.875 61.746,36.211 61.207,35.668 60.664,35.125 60,34.715 59.27,34.473 L 56.883,33.699 C 56.699,33.633 56.535,33.512 56.426,33.352 56.312,33.191 56.25,33 56.25,32.805 c 0,-0.196 0.062,-0.387 0.176,-0.543 0.109,-0.16 0.273,-0.282 0.457,-0.348 l 2.387,-0.773 c 0.718,-0.25 1.371,-0.661 1.906,-1.2 0.531,-0.543 0.933,-1.199 1.172,-1.921 l 0.773,-2.391 c 0.067,-0.184 0.188,-0.344 0.348,-0.453 C 63.625,25.062 63.82,25 64.016,25 Z M 30.375,24.125 c 0.914,-0.918 2.398,-0.918 3.313,0 0.917,0.914 0.917,2.398 0,3.313 l -6.25,6.25 c -0.915,0.917 -2.399,0.917 -3.313,0 L 21,30.562 c -0.918,-0.914 -0.918,-2.398 0,-3.312 0.914,-0.918 2.398,-0.918 3.312,0 l 1.469,1.469 z m 16.5,3.996 c 0.535,1.563 1.828,2.727 3.383,3.129 h -8.852 c -1.293,0 -2.344,-1.051 -2.344,-2.344 0,-1.293 1.051,-2.344 2.344,-2.344 h 5.028 z M 51.477,0 c 0.351,0 0.695,0.109 0.984,0.312 0.285,0.204 0.5,0.493 0.617,0.825 l 1.402,4.297 c 0.434,1.308 1.168,2.5 2.145,3.472 0.977,0.977 2.164,1.711 3.473,2.145 l 4.308,1.398 0.082,0.02 c 0.332,0.117 0.621,0.336 0.824,0.625 0.204,0.285 0.313,0.629 0.313,0.98 0,0.352 -0.109,0.696 -0.313,0.981 -0.203,0.285 -0.492,0.504 -0.824,0.621 l -4.304,1.398 c -1.309,0.434 -2.496,1.168 -3.473,2.145 -0.977,0.972 -1.711,2.164 -2.145,3.472 l -1.398,4.297 c -0.012,0.039 -0.027,0.074 -0.043,0.11 -0.125,0.285 -0.324,0.535 -0.578,0.714 -0.289,0.204 -0.633,0.313 -0.985,0.313 -0.351,0 -0.695,-0.109 -0.984,-0.313 -0.285,-0.203 -0.504,-0.492 -0.621,-0.824 L 48.559,22.691 C 48.242,21.73 47.766,20.832 47.148,20.039 46.926,19.746 46.68,19.469 46.418,19.203 45.441,18.227 44.25,17.488 42.941,17.055 L 38.637,15.656 C 38.305,15.539 38.016,15.32 37.812,15.031 37.609,14.746 37.5,14.402 37.5,14.051 c 0,-0.352 0.109,-0.696 0.312,-0.981 0.204,-0.285 0.493,-0.504 0.825,-0.621 l 4.304,-1.398 c 1.293,-0.446 2.465,-1.184 3.426,-2.156 0.93,-0.95 1.641,-2.094 2.071,-3.352 L 48.473,5.434 49.871,1.137 C 49.988,0.805 50.207,0.516 50.496,0.312 50.781,0.109 51.125,0 51.477,0 Z" style="fill:currentColor;fill-opacity:1;fill-rule:nonzero;stroke:none" transform="scale(1.3333333)" /> </g>
</svg>

