<?xml version="1.0" encoding="UTF-8" standalone="no"?> <svg version="1.1" id="Ie452f2652be447aaba56ea66a71eb7fe20251106171634" width="100" height="100" viewBox="0 0 100 100" xmlns="http://www.w3.org/2000/svg" xmlns:svg="http://www.w3.org/2000/svg"> <defs id="Ib2ae2d069c9641b6a23685fbff66911020251106171634" /> <g id="I42943a6f07164aef8ca9e40fc0605bf920251106171634"> <path id="I1244b37d7bac4124822e16768f3811f420251106171634" d="m 8.785,5.945 60.27,60.27 c 0.785,0.785 0.785,2.055 0,2.84 -0.785,0.785 -2.059,0.785 -2.844,0 L 62.27,65.113 c -1.715,1.168 -3.79,1.852 -6.02,1.852 H 18.75 C 12.832,66.965 8.035,62.168 8.035,56.25 v -37.5 c 0,-2.234 0.684,-4.305 1.852,-6.023 L 5.945,8.785 C 5.16,8.004 5.16,6.73 5.945,5.945 6.73,5.16 8.004,5.16 8.785,5.945 Z M 58.34,61.184 13.816,16.656 c -0.273,0.645 -0.421,1.352 -0.421,2.094 v 37.5 c 0,2.957 2.398,5.355 5.355,5.355 h 37.5 c 0.742,0 1.449,-0.148 2.09,-0.421 z M 16.746,8.223 l 5.168,5.172 h 8.891 c 1.476,0 2.675,-1.2 2.675,-2.68 0,-1.481 -1.199,-2.68 -2.675,-2.68 H 18.75 c -0.684,0 -1.355,0.067 -2.004,0.188 z m 50.031,50.031 -5.172,-5.168 v -8.891 c 0,-1.476 1.2,-2.675 2.68,-2.675 1.481,0 2.68,1.199 2.68,2.675 V 56.25 c 0,0.684 -0.067,1.355 -0.188,2.004 z M 41.52,10.715 c 0,-1.481 1.199,-2.68 2.675,-2.68 h 20.09 c 1.481,0 2.68,1.199 2.68,2.68 v 20.09 c 0,1.476 -1.199,2.675 -2.68,2.675 -1.48,0 -2.68,-1.199 -2.68,-2.675 V 17.18 L 46.09,32.699 c -1.047,1.043 -2.742,1.043 -3.789,0 -1.043,-1.047 -1.043,-2.742 0,-3.789 L 57.82,13.395 H 44.195 c -1.476,0 -2.675,-1.2 -2.675,-2.68 z" style="fill:currentColor;fill-opacity:1;fill-rule:nonzero;stroke:none" transform="scale(1.3333333)" /> </g>
</svg>

