<?xml version="1.0" encoding="UTF-8" standalone="no"?> <svg version="1.1" id="I68b1a9f67a344d0783078037f4899ea720251106125938" width="100" height="100" viewBox="0 0 100 100" xmlns="http://www.w3.org/2000/svg" xmlns:svg="http://www.w3.org/2000/svg"> <defs id="Icf2aaac874f6438086de0fc5df870eef20251106125938" /> <g id="Ic15988457d3d4f038ebad612d23648f520251106125938"> <path id="I56a931acbaea4a54b90ae6616c87603120251106125938" d="M 18.75,9.375 C 18.75,8.34 17.91,7.5 16.875,7.5 15.84,7.5 15,8.34 15,9.375 15,21.426 22.379,31.582 32.914,35.625 22.379,39.668 15,49.824 15,61.875 c 0,1.035 0.84,1.875 1.875,1.875 1.035,0 1.875,-0.84 1.875,-1.875 0,-13.59 10.785,-24.375 24.375,-24.375 h 2.973 l -4.297,4.301 c -0.735,0.73 -0.735,1.918 0,2.648 0.73,0.735 1.918,0.735 2.648,0 l 7.5,-7.5 c 0.735,-0.73 0.735,-1.918 0,-2.648 l -7.5,-7.5 c -0.73,-0.735 -1.918,-0.735 -2.648,0 -0.735,0.73 -0.735,1.918 0,2.648 l 4.297,4.301 H 43.125 C 29.535,33.75 18.75,22.965 18.75,9.375 Z M 31.875,15 C 30.84,15 30,15.84 30,16.875 c 0,1.035 0.84,1.875 1.875,1.875 H 56.25 c 1.965,0 3.75,1.785 3.75,3.75 v 26.25 c 0,1.965 -1.785,3.75 -3.75,3.75 H 31.875 C 30.84,52.5 30,53.34 30,54.375 c 0,1.035 0.84,1.875 1.875,1.875 H 56.25 c 4.035,0 7.5,-3.465 7.5,-7.5 V 22.5 c 0,-4.035 -3.465,-7.5 -7.5,-7.5 z" style="fill:currentColor;fill-opacity:1;fill-rule:nonzero;stroke:none" transform="scale(1.3333333)" /> </g>
</svg>

