<?xml version="1.0" encoding="UTF-8" standalone="no"?> <svg version="1.1" id="Id002ae8011da4afc927739e8994cd97420251110133656" width="100" height="100" viewBox="0 0 100 100" xmlns="http://www.w3.org/2000/svg" xmlns:svg="http://www.w3.org/2000/svg"> <defs id="I501b2d7750604f0ea872a28343e3330b20251110133656" /> <g id="I18f2f0327f5c469096aa5a6b46dd6fb720251110133656"> <path id="I7c672cfdf34c4c289102eb9ef96f1cab20251110133656" d="m 30.805,5.355 c 14.05,0 25.445,11.395 25.445,25.45 0,6.3 -2.297,12.066 -6.094,16.511 l 16.219,16.219 c 0.785,0.785 0.785,2.055 0,2.84 -0.785,0.785 -2.055,0.785 -2.84,0 L 47.316,50.156 C 42.871,53.953 37.105,56.25 30.805,56.25 16.75,56.25 5.355,44.855 5.355,30.805 5.355,16.75 16.75,5.355 30.805,5.355 Z m 0,13.395 c -1.11,0 -2.012,0.898 -2.012,2.008 v 8.035 h -8.035 c -1.11,0 -2.008,0.902 -2.008,2.012 0,1.109 0.898,2.007 2.008,2.007 h 8.035 v 8.036 c 0,1.109 0.902,2.007 2.012,2.007 1.109,0 2.007,-0.898 2.007,-2.007 v -8.036 h 8.036 c 1.109,0 2.007,-0.898 2.007,-2.007 0,-1.11 -0.898,-2.012 -2.007,-2.012 h -8.036 v -8.035 c 0,-1.11 -0.898,-2.008 -2.007,-2.008 z" style="fill:currentColor;fill-opacity:1;fill-rule:nonzero;stroke:none" transform="scale(1.3333333)" /> </g>
</svg>

