<?xml version="1.0" encoding="UTF-8" standalone="no"?> <svg version="1.1" id="I68969910db6b4509b0e90557bd6a5f7820251110135155" width="100" height="100" viewBox="0 0 100 100" xmlns="http://www.w3.org/2000/svg" xmlns:svg="http://www.w3.org/2000/svg"> <defs id="Ib455291662824804851676280ce30f7320251110135155" /> <g id="Ic9089dc61e74420fb0f0d5af60aab4ba20251110135155"> <path id="If425961495a6446698be2e8922120e7a20251110135155" d="m 12.5,15.625 c -1.727,0 -3.125,1.398 -3.125,3.125 0,1.727 1.398,3.125 3.125,3.125 h 50 c 1.727,0 3.125,-1.398 3.125,-3.125 0,-1.727 -1.398,-3.125 -3.125,-3.125 z m 0,12.5 c -1.727,0 -3.125,1.398 -3.125,3.125 0,1.727 1.398,3.125 3.125,3.125 h 50 c 1.727,0 3.125,-1.398 3.125,-3.125 0,-1.727 -1.398,-3.125 -3.125,-3.125 z M 9.375,43.75 c 0,-1.727 1.398,-3.125 3.125,-3.125 h 50 c 1.727,0 3.125,1.398 3.125,3.125 0,1.727 -1.398,3.125 -3.125,3.125 h -50 c -1.727,0 -3.125,-1.398 -3.125,-3.125 z m 3.125,9.375 c -1.727,0 -3.125,1.398 -3.125,3.125 0,1.727 1.398,3.125 3.125,3.125 h 50 c 1.727,0 3.125,-1.398 3.125,-3.125 0,-1.727 -1.398,-3.125 -3.125,-3.125 z" style="fill:currentColor;fill-opacity:1;fill-rule:nonzero;stroke:none" transform="scale(1.3333333)" /> </g>
</svg>

