<?xml version="1.0" encoding="UTF-8" standalone="no"?> <svg version="1.1" id="I79f75cb69e034503a375d904641c02d220251110130508" width="100" height="100" viewBox="0 0 100 100" xmlns="http://www.w3.org/2000/svg" xmlns:svg="http://www.w3.org/2000/svg"> <defs id="I96036310cfbc48659d4a3c9ec11b3e5320251110130508" /> <g id="Ie2943582309b4016849ab419c37e81e020251110130508"> <path id="Ia41cbd54dc164bb781e1914bc9d261e620251110130508" d="m 9.375,27.344 c 0,-3.883 3.148,-7.032 7.031,-7.032 h 42.188 c 3.066,0 5.672,1.961 6.636,4.7 C 65.062,25.004 64.898,25 64.734,25 h -0.007 c -1.454,0 -2.915,0.309 -4.266,0.93 C 60.035,25.363 59.355,25 58.594,25 H 48.438 V 37.039 L 43.75,41.727 V 25 h -12.5 v 18.75 h 10.477 l -2.7,2.703 c -0.605,0.602 -1.136,1.27 -1.589,1.985 H 16.406 c -3.883,0 -7.031,-3.149 -7.031,-7.032 z M 16.406,25 c -1.293,0 -2.344,1.051 -2.344,2.344 v 14.062 c 0,1.293 1.051,2.344 2.344,2.344 H 26.562 V 25 Z" style="fill:currentColor;fill-opacity:1;fill-rule:nonzero;stroke:none" transform="scale(1.3333333)" /> <path id="I7fcbd491a0454c40bd9f9325e237d31e20251110130508" d="m 64.734,28.125 h -0.007 c -1.825,0 -3.653,0.699 -5.047,2.094 L 41.234,48.664 c -1.074,1.074 -1.836,2.422 -2.207,3.898 l -1.429,5.719 c -0.621,2.489 1.632,4.742 4.121,4.121 l 5.719,-1.433 c 1.476,-0.367 2.824,-1.129 3.898,-2.207 L 69.781,40.32 c 2.789,-2.793 2.789,-7.312 0,-10.101 -1.394,-1.395 -3.219,-2.094 -5.047,-2.094 z" style="fill:currentColor;fill-opacity:1;fill-rule:nonzero;stroke:none" transform="scale(1.3333333)" /> </g>
</svg>

