<?xml version="1.0" encoding="UTF-8" standalone="no"?> <svg version="1.1" id="I1579ff3907594a61a80d2b85fb4b453e20251110130507" width="100" height="100" viewBox="0 0 100 100" xmlns="http://www.w3.org/2000/svg" xmlns:svg="http://www.w3.org/2000/svg"> <defs id="I008a2c06f9ba4f4f952ffd80cd29304120251110130507" /> <g id="Icd44b1db5d054c0e99941183df9212e320251110130507"> <path id="I4b9e561725e34a4c8e47c6ed0d10785120251110130507" d="m 38.559,10.453 c 2.136,-2.004 5.636,-0.488 5.636,2.442 v 49.207 c 0,2.929 -3.496,4.445 -5.636,2.441 L 25.336,52.152 C 24.465,51.34 23.32,50.887 22.129,50.887 h -8.067 c -4.808,0 -8.707,-3.899 -8.707,-8.707 v -9.352 c 0,-4.808 3.899,-8.707 8.707,-8.707 h 8.067 c 1.191,0 2.336,-0.453 3.207,-1.269 z m 16.253,5.77 c 0.75,-0.309 1.614,-0.137 2.188,0.437 l 10.715,10.715 c 0.398,0.398 0.613,0.945 0.586,1.512 -0.024,0.562 -0.285,1.09 -0.719,1.449 l -8.594,7.164 8.594,7.16 c 0.434,0.363 0.695,0.891 0.719,1.453 0.027,0.563 -0.188,1.114 -0.586,1.512 L 57,58.34 c -0.574,0.574 -1.438,0.746 -2.188,0.433 C 54.062,58.465 53.57,57.73 53.57,56.918 V 42.016 l -2.062,1.718 c -0.852,0.711 -2.117,0.594 -2.828,-0.257 -0.711,-0.852 -0.594,-2.118 0.258,-2.829 L 52.711,37.5 48.938,34.355 c -0.852,-0.71 -0.969,-1.976 -0.258,-2.828 0.711,-0.855 1.976,-0.968 2.828,-0.257 l 2.062,1.718 v -14.91 c 0,-0.812 0.492,-1.543 1.242,-1.855 z m 2.778,35.847 5.73,-5.73 -5.73,-4.774 z m 5.73,-23.41 -5.73,-5.73 v 10.504 z" style="fill:currentColor;fill-opacity:1;fill-rule:nonzero;stroke:none" transform="scale(1.3333333)" /> </g>
</svg>

