<?xml version="1.0" encoding="UTF-8" standalone="no"?> <svg version="1.1" id="I6cf4ee7ada4e48c4ad4331fae2d343f820251106165302" width="100" height="100" viewBox="0 0 100 100" xmlns="http://www.w3.org/2000/svg" xmlns:svg="http://www.w3.org/2000/svg"> <defs id="Ieff357081590423c9affd6283c9929ed20251106165302" /> <g id="I78fb9d052b4e41b595a10baf016bceef20251106165302"> <path id="I89af5cb7e8414bb4a1d8304e7177075d20251106165302" d="m 12.5,21.875 h 50.781 c 0.371,0 0.68,-0.258 0.762,-0.602 l 0.019,-0.179 V 9.375 H 11.719 v 11.719 c 0,0.371 0.258,0.679 0.601,0.761 z m 24.926,21.707 8.254,-18.586 2.758,-1.558 2.371,1.558 -9.102,20.488 c -0.375,0.844 -1.215,1.391 -2.141,1.391 -1.695,0 -2.832,-1.746 -2.14,-3.293 z m 3.199,15.793 c 0,3.453 -1.398,6.25 -3.125,6.25 -1.727,0 -3.125,-2.797 -3.125,-6.25 0,-3.453 1.398,-6.25 3.125,-6.25 1.727,0 3.125,2.797 3.125,6.25 z" style="fill:currentColor;fill-opacity:1;fill-rule:nonzero;stroke:none" transform="scale(1.3333333)" /> </g>
</svg>

