<?xml version="1.0" encoding="UTF-8" standalone="no"?> <svg version="1.1" id="I8ddbbb54469746639bbced2709eb3f3320251110123031" width="100" height="100" viewBox="0 0 100 100" xmlns="http://www.w3.org/2000/svg" xmlns:svg="http://www.w3.org/2000/svg"> <defs id="Id4b48058994849d2a0006f2a8b52f19620251110123031" /> <g id="Ie08918965da64e69bcc396ef4953f17420251110123031"> <path id="Ibef43f80782f4e0095916697cec0529d20251110123031" d="m 49.219,6.25 c 3.883,0 7.031,3.148 7.031,7.031 v 48.438 c 0,3.883 -3.148,7.031 -7.031,7.031 H 25.781 c -3.883,0 -7.031,-3.148 -7.031,-7.031 V 13.281 c 0,-3.883 3.148,-7.031 7.031,-7.031 z m -3.125,7.812 H 28.906 c -1.293,0 -2.344,1.051 -2.344,2.344 0,1.188 0.883,2.168 2.028,2.324 l 0.316,0.02 h 17.188 c 1.293,0 2.344,-1.051 2.344,-2.344 0,-1.187 -0.883,-2.168 -2.028,-2.324 z" style="fill:currentColor;fill-opacity:1;fill-rule:nonzero;stroke:none" transform="scale(1.3333333)" /> </g>
</svg>

