<?xml version="1.0" encoding="UTF-8" standalone="no"?> <svg version="1.1" id="I9dad11bbfb69461a812e3d9dddaf848e20251110124420" width="100" height="100" viewBox="0 0 100 100" xmlns="http://www.w3.org/2000/svg" xmlns:svg="http://www.w3.org/2000/svg"> <defs id="Ia1b5c064875d46228c424c5a27c6661920251110124420" /> <g id="Ibde2fa3a3ba5494c97b689dca120abc820251110124420"> <path id="I413d51b4bf7244cb82395dbfc724d3b520251110124420" d="m 62.5,56.25 c 1.727,0 3.125,1.398 3.125,3.125 0,1.602 -1.207,2.922 -2.762,3.105 L 62.5,62.5 H 21.875 c -1.727,0 -3.125,-1.398 -3.125,-3.125 0,-1.602 1.207,-2.922 2.762,-3.105 l 0.363,-0.02 z m -9.375,-9.375 c 1.727,0 3.125,1.398 3.125,3.125 0,1.602 -1.207,2.922 -2.762,3.105 l -0.363,0.02 H 12.5 c -1.727,0 -3.125,-1.398 -3.125,-3.125 0,-1.602 1.207,-2.922 2.762,-3.105 L 12.5,46.875 Z M 62.5,37.5 c 1.727,0 3.125,1.398 3.125,3.125 0,1.602 -1.207,2.922 -2.762,3.105 L 62.5,43.75 H 21.875 c -1.727,0 -3.125,-1.398 -3.125,-3.125 0,-1.602 1.207,-2.922 2.762,-3.105 L 21.875,37.5 Z M 18.75,15.625 c 3.852,0 7.266,2.344 8.691,5.852 0.649,1.601 -0.125,3.421 -1.722,4.07 -1.485,0.601 -3.164,-0.02 -3.914,-1.391 l -0.157,-0.328 c -0.476,-1.172 -1.613,-1.953 -2.898,-1.953 -1.727,0 -3.125,1.398 -3.125,3.125 0,1.727 1.398,3.125 3.125,3.125 h 35.938 c 1.726,0 3.124,1.398 3.124,3.125 0,1.602 -1.207,2.922 -2.761,3.105 l -0.363,0.02 H 18.75 c -5.176,0 -9.375,-4.199 -9.375,-9.375 0,-5.176 4.199,-9.375 9.375,-9.375 z M 62.5,18.75 c 1.727,0 3.125,1.398 3.125,3.125 0,1.602 -1.207,2.922 -2.762,3.105 L 62.5,25 H 34.375 c -1.727,0 -3.125,-1.398 -3.125,-3.125 0,-1.602 1.207,-2.922 2.762,-3.105 l 0.363,-0.02 z" style="fill:currentColor;fill-opacity:1;fill-rule:nonzero;stroke:none" transform="scale(1.3333333)" /> </g>
</svg>

