<?xml version="1.0" encoding="UTF-8" standalone="no"?> <svg version="1.1" id="Ie5874d05d39347eba9ed71ebc58f164020251106163937" width="100" height="100" viewBox="0 0 100 100" xmlns="http://www.w3.org/2000/svg" xmlns:svg="http://www.w3.org/2000/svg"> <defs id="I2bd4afed76a24bc59e6b7c8dd834ec9e20251106163937" /> <g id="I2dd686d784d24cf4a4506409fef7655a20251106163937"> <path id="I56a4640c792e499b9eb4d104c48e656a20251106163937" d="m 46.875,34.82 c 2.219,0 4.02,-1.797 4.02,-4.015 0,-2.219 -1.801,-4.02 -4.02,-4.02 -2.219,0 -4.02,1.801 -4.02,4.02 0,2.218 1.801,4.015 4.02,4.015 z m -14.73,-4.015 c 0,2.218 -1.801,4.015 -4.02,4.015 -2.219,0 -4.02,-1.797 -4.02,-4.015 0,-2.219 1.801,-4.02 4.02,-4.02 2.219,0 4.02,1.801 4.02,4.02 z m -9.836,15.078 c 0.914,-0.621 2.16,-0.387 2.785,0.523 l 0.023,0.032 c 0.02,0.031 0.063,0.085 0.117,0.156 0.114,0.148 0.297,0.367 0.543,0.64 0.5,0.543 1.266,1.286 2.301,2.028 2.055,1.48 5.172,2.968 9.422,2.968 4.254,0 7.367,-1.488 9.422,-2.968 1.035,-0.742 1.801,-1.485 2.301,-2.028 0.25,-0.273 0.429,-0.492 0.543,-0.64 0.054,-0.071 0.097,-0.125 0.117,-0.156 l 0.023,-0.028 c 0.625,-0.914 1.871,-1.148 2.785,-0.527 0.918,0.625 1.157,1.875 0.532,2.793 v 0.004 l -0.012,0.011 -0.02,0.028 c -0.015,0.023 -0.035,0.051 -0.058,0.082 -0.047,0.066 -0.117,0.156 -0.203,0.269 -0.172,0.219 -0.422,0.524 -0.746,0.879 -0.653,0.711 -1.622,1.645 -2.914,2.574 -2.598,1.868 -6.516,3.727 -11.77,3.727 -5.254,0 -9.172,-1.859 -11.77,-3.727 C 24.438,51.594 23.469,50.66 22.816,49.949 22.492,49.594 22.242,49.289 22.07,49.07 21.984,48.957 21.914,48.867 21.867,48.801 21.844,48.77 21.824,48.742 21.809,48.719 l -0.02,-0.028 -0.012,-0.011 v -0.004 c -0.625,-0.918 -0.386,-2.168 0.532,-2.793 z M 37.5,5.355 C 19.746,5.355 5.355,19.746 5.355,37.5 5.355,55.254 19.746,69.645 37.5,69.645 55.254,69.645 69.645,55.254 69.645,37.5 69.645,19.746 55.254,5.355 37.5,5.355 Z M 9.375,37.5 C 9.375,21.969 21.969,9.375 37.5,9.375 53.031,9.375 65.625,21.969 65.625,37.5 65.625,53.031 53.031,65.625 37.5,65.625 21.969,65.625 9.375,53.031 9.375,37.5 Z" style="fill:currentColor;fill-opacity:1;fill-rule:nonzero;stroke:none" transform="scale(1.3333333)" /> </g>
</svg>

