<?xml version="1.0" encoding="UTF-8" standalone="no"?> <svg version="1.1" id="I51b2dc73d6a14fbabd9bbd6591a41f8320251110124420" width="100" height="100" viewBox="0 0 100 100" xmlns="http://www.w3.org/2000/svg" xmlns:svg="http://www.w3.org/2000/svg"> <defs id="If22d66783e81426ba1961280a5638bdb20251110124420" /> <g id="I85ff560923554b5db876072bd25b653220251110124420"> <path id="I498a5532be9146b9aac59b787ca8bb1920251110124420" d="m 9.375,11.719 c 0,-1.293 1.051,-2.344 2.344,-2.344 h 51.562 c 1.293,0 2.344,1.051 2.344,2.344 0,1.293 -1.051,2.343 -2.344,2.343 h -3.363 l 7.906,21.458 c 0.094,0.257 0.145,0.531 0.145,0.808 0,6.039 -4.508,10.547 -10.547,10.547 -6.039,0 -10.547,-4.508 -10.547,-10.547 0,-0.277 0.051,-0.551 0.145,-0.808 L 54.926,14.062 H 39.844 v 37.5 h 14.062 c 3.883,0 7.032,3.149 7.032,7.032 0,3.883 -3.149,7.031 -7.032,7.031 H 21.094 c -3.883,0 -7.032,-3.148 -7.032,-7.031 0,-3.883 3.149,-7.032 7.032,-7.032 h 14.062 v -37.5 H 19.789 l 8.184,21.43 c 0.101,0.266 0.152,0.551 0.152,0.836 0,6.039 -4.508,10.547 -10.547,10.547 -6.039,0 -10.547,-4.508 -10.547,-10.547 0,-0.285 0.051,-0.57 0.153,-0.836 l 8.183,-21.43 h -3.648 c -1.293,0 -2.344,-1.05 -2.344,-2.343 z m 9.375,46.875 c 0,1.293 1.051,2.344 2.344,2.344 h 32.812 c 1.293,0 2.344,-1.051 2.344,-2.344 0,-1.293 -1.051,-2.344 -2.344,-2.344 H 21.094 c -1.293,0 -2.344,1.051 -2.344,2.344 z m -1.172,-37.18 -4.801,12.57 h 9.602 z M 23.02,38.672 H 12.137 c 0.832,2.148 2.84,3.516 5.441,3.516 2.602,0 4.61,-1.368 5.442,-3.516 z m 34.402,3.516 c 2.601,0 4.609,-1.368 5.441,-3.516 H 51.98 c 0.832,2.148 2.84,3.516 5.442,3.516 z m -4.844,-8.204 h 9.688 l -4.844,-13.14 z" style="fill:currentColor;fill-opacity:1;fill-rule:nonzero;stroke:none" transform="scale(1.3333333)" /> </g>
</svg>

