<?xml version="1.0" encoding="UTF-8" standalone="no"?> <svg version="1.1" id="I961b7ad70aea408191ac8bbba4719fb620251106165301" width="100" height="100" viewBox="0 0 100 100" xmlns="http://www.w3.org/2000/svg" xmlns:svg="http://www.w3.org/2000/svg"> <defs id="I238c03f4ec6b4029bb7babf977209d3020251106165301" /> <g id="Ic37c604281174a6f9420b7e9aebf4d1120251106165301"> <path id="Ifa2b730b5be148f0a5716fc388b5db5220251106165301" d="m 42.441,6.508 c -2.847,-2.426 -7.035,-2.426 -9.882,0 L 9.707,25.984 C 8.008,27.43 7.031,29.551 7.031,31.781 v 30.328 c 0,3.235 2.625,5.86 5.86,5.86 h 49.218 c 3.235,0 5.86,-2.625 5.86,-5.86 V 31.781 c 0,-2.23 -0.977,-4.351 -2.676,-5.797 z M 39.844,18.75 v 4.688 c 0,1.292 -1.051,2.343 -2.344,2.343 -1.293,0 -2.344,-1.051 -2.344,-2.343 V 18.75 c 0,-1.293 1.051,-2.344 2.344,-2.344 1.293,0 2.344,1.051 2.344,2.344 z M 37.5,32.812 c 1.293,0 2.344,1.051 2.344,2.344 v 4.688 c 0,1.293 -1.051,2.344 -2.344,2.344 -1.293,0 -2.344,-1.051 -2.344,-2.344 v -4.688 c 0,-1.293 1.051,-2.344 2.344,-2.344 z m 2.344,18.75 v 4.688 c 0,1.293 -1.051,2.344 -2.344,2.344 -1.293,0 -2.344,-1.051 -2.344,-2.344 v -4.688 c 0,-1.292 1.051,-2.343 2.344,-2.343 1.293,0 2.344,1.051 2.344,2.343 z" style="fill:currentColor;fill-opacity:1;fill-rule:nonzero;stroke:none" transform="scale(1.3333333)" /> </g>
</svg>

