<?xml version="1.0" encoding="UTF-8" standalone="no"?> <svg version="1.1" id="I2160d688c70449cc84844c26f966324b20251106164750" width="100" height="100" viewBox="0 0 100 100" xmlns="http://www.w3.org/2000/svg" xmlns:svg="http://www.w3.org/2000/svg"> <defs id="If06f0739567448d788c994e0648d2c8920251106164750" /> <g id="I90dab952dc934ffd96668d4bfa9d878520251106164750"> <path id="I9c364ae69a8b495099a1d82aa51c81f220251106164750" d="m 58.23,7.258 c 0.739,-1.063 2.2,-1.328 3.262,-0.59 2.528,1.754 4.621,4.824 5.934,8.211 1.324,3.418 1.965,7.449 1.289,11.309 -0.223,1.273 -1.438,2.124 -2.711,1.902 -1.277,-0.223 -2.129,-1.438 -1.906,-2.711 0.5,-2.856 0.039,-6.012 -1.043,-8.809 C 61.957,13.742 60.34,11.574 58.82,10.52 57.758,9.781 57.492,8.32 58.23,7.258 Z M 29.965,8.977 c -1.5,-2.125 -4.199,-3.188 -6.836,-2.508 -2.848,0.738 -4.731,3.269 -4.797,6.043 -0.422,-0.004 -0.852,0.035 -1.281,0.121 -3.711,0.742 -5.934,4.562 -4.742,8.156 l 6.121,18.504 c -2.121,-0.141 -3.977,0.105 -5.586,0.621 -2.555,0.82 -4.336,2.262 -5.512,3.606 -1.172,1.339 -1.352,3.015 -0.848,4.441 0.481,1.351 1.543,2.437 2.848,3.027 4.422,2.008 13.356,6.621 21.098,14.024 3.203,3.062 7.882,4.601 12.382,3.254 l 8.09,-2.418 c 3.094,-0.926 5.461,-3.536 5.91,-6.825 0.45,-3.281 1.004,-8.253 1.004,-12.929 0,-5.512 -1.429,-11.59 -3.128,-16.906 -1.711,-5.352 -3.75,-10.09 -5.079,-12.973 -1.269,-2.754 -4.246,-4.145 -7.117,-3.57 -0.902,0.183 -1.722,0.535 -2.43,1.023 l -0.484,-1.52 C 38.609,9.117 35.516,7.297 32.395,7.922 c -0.911,0.18 -1.731,0.551 -2.43,1.055 z m -3.617,3.128 1.265,3.672 c 0.032,0.106 0.063,0.207 0.102,0.313 l 5.226,15.144 c 0.422,1.223 1.754,1.871 2.981,1.45 0.246,-0.086 0.469,-0.207 0.664,-0.356 l 0.051,-0.043 c 0.738,-0.601 1.066,-1.625 0.734,-2.582 L 32.098,14.402 c -0.2,-0.847 0.343,-1.711 1.218,-1.886 0.782,-0.157 1.555,0.3 1.797,1.058 l 2.262,7.086 c 0.039,0.156 0.082,0.313 0.133,0.473 l 2.715,8.445 0.511,1.606 c 0.317,0.988 1.227,1.621 2.211,1.628 0.246,0.004 0.496,-0.031 0.743,-0.113 1.234,-0.394 1.91,-1.715 1.515,-2.949 l -0.515,-1.602 -2.782,-8.703 c -0.179,-1.004 0.477,-1.996 1.504,-2.203 0.848,-0.168 1.621,0.246 1.942,0.934 1.281,2.781 3.238,7.332 4.871,12.437 1.64,5.137 2.906,10.68 2.906,15.481 0,4.363 -0.52,9.09 -0.957,12.297 -0.192,1.379 -1.195,2.539 -2.613,2.964 l -8.09,2.422 C 38.832,64.566 35.855,63.715 33.672,61.625 25.387,53.703 15.918,48.832 11.27,46.719 11.152,46.668 11.062,46.602 10.996,46.531 10.984,46.52 10.973,46.504 10.961,46.492 c 0.727,-0.797 1.789,-1.625 3.312,-2.113 1.59,-0.508 3.852,-0.699 7.012,0.121 0.828,0.215 1.711,-0.043 2.297,-0.668 0.586,-0.625 0.785,-1.523 0.516,-2.336 l -7.34,-22.18 c -0.305,-0.918 0.265,-1.898 1.211,-2.086 0.801,-0.16 1.59,0.301 1.847,1.075 l 4.496,13.578 0.805,2.453 c 0.403,1.23 1.727,1.902 2.957,1.496 0.836,-0.273 1.414,-0.973 1.571,-1.777 0.078,-0.387 0.058,-0.797 -0.075,-1.196 L 28.762,30.414 23.105,13.195 c -0.308,-0.937 0.243,-1.941 1.2,-2.187 0.863,-0.223 1.754,0.254 2.043,1.097 z m 30.836,1.141 c -0.883,-0.945 -2.368,-1 -3.313,-0.117 -0.949,0.883 -1,2.367 -0.117,3.312 1.305,1.403 2.496,3.094 2.496,6.215 0,1.293 1.051,2.344 2.344,2.344 1.293,0 2.344,-1.051 2.344,-2.344 0,-4.691 -1.946,-7.468 -3.754,-9.41 z" style="fill:currentColor;fill-opacity:1;fill-rule:nonzero;stroke:none" transform="scale(1.3333333)" /> </g>
</svg>

