<?xml version="1.0" encoding="UTF-8" standalone="no"?> <svg version="1.1" id="Ie48e47d134c94a1c9119ba9d251adf7620251110124422" width="100" height="100" viewBox="0 0 100 100" xmlns="http://www.w3.org/2000/svg" xmlns:svg="http://www.w3.org/2000/svg"> <defs id="If694f9089df941a79a08b33a8ba9cfe120251110124422" /> <g id="Ia7e41336d3804a6ba84b01fd6e89b50820251110124422"> <path id="I9b2af16f08f34096ab2201761f64227b20251110124422" d="m 21.875,15.625 v 6.25 h -4.687 c -2.59,0 -4.688,2.098 -4.688,4.687 V 56.25 c 0,6.902 5.598,12.5 12.5,12.5 H 40.031 C 38.699,67.363 37.562,65.785 36.664,64.062 H 25 c -4.316,0 -7.812,-3.496 -7.812,-7.812 V 26.562 h 23.437 v 13.469 c 1.387,-1.332 2.965,-2.469 4.687,-3.367 V 26.562 h 12.5 v 8.051 c 1.637,0.254 3.208,0.699 4.688,1.321 v -9.372 c 0,-2.589 -2.098,-4.687 -4.688,-4.687 h -4.687 v -6.25 C 53.125,10.449 48.93,6.25 43.75,6.25 41.348,6.25 39.16,7.152 37.5,8.637 35.84,7.152 33.652,6.25 31.25,6.25 c -5.176,0 -9.375,4.199 -9.375,9.375 z m 9.375,-4.687 c 2.59,0 4.688,2.097 4.688,4.687 v 6.25 h -9.376 v -6.25 c 0,-2.59 2.098,-4.687 4.688,-4.687 z m 17.188,10.937 h -7.813 v -6.25 c 0,-1.043 -0.172,-2.051 -0.484,-2.988 0.859,-1.039 2.156,-1.699 3.609,-1.699 2.59,0 4.688,2.097 4.688,4.687 z m 23.437,32.813 c 0,9.492 -7.695,17.187 -17.187,17.187 C 45.195,71.875 37.5,64.18 37.5,54.688 37.5,45.195 45.195,37.5 54.688,37.5 c 9.492,0 17.187,7.695 17.187,17.188 z M 52.855,47.18 c -0.3,-0.203 -0.628,-0.305 -0.992,-0.305 -0.254,0 -0.492,0.055 -0.718,0.16 -0.227,0.102 -0.422,0.242 -0.594,0.418 -0.168,0.172 -0.301,0.379 -0.406,0.613 C 50.047,48.305 50,48.555 50,48.816 v 11.743 c 0,0.257 0.047,0.503 0.145,0.738 0.105,0.234 0.238,0.445 0.406,0.629 0.176,0.172 0.379,0.316 0.605,0.422 0.227,0.101 0.461,0.152 0.707,0.152 0.188,0 0.364,-0.027 0.524,-0.082 0.047,-0.012 0.093,-0.031 0.14,-0.051 0.121,-0.047 0.239,-0.113 0.356,-0.191 l 8.769,-5.981 c 0.2,-0.133 0.364,-0.297 0.496,-0.492 0.047,-0.07 0.09,-0.141 0.129,-0.219 0.149,-0.296 0.223,-0.605 0.223,-0.929 0,-0.336 -0.078,-0.645 -0.234,-0.93 -0.157,-0.289 -0.368,-0.52 -0.641,-0.695 z" style="fill:currentColor;fill-opacity:1;fill-rule:nonzero;stroke:none" transform="scale(1.3333333)" /> </g>
</svg>

