<?xml version="1.0" encoding="UTF-8" standalone="no"?> <svg version="1.1" id="Idb42d99f46d448e0ab9718252b8c4f9f20251106154012" width="100" height="100" viewBox="0 0 100 100" xmlns="http://www.w3.org/2000/svg" xmlns:svg="http://www.w3.org/2000/svg"> <defs id="I62912cd289c14b56bf5837c931ecb8bb20251106154012" /> <g id="Icae0b4e7568444488db716553425df5f20251106154012"> <path id="Ib2f934daaf5d41d48012fca450a3989120251106154012" d="m 13.609,13.711 c 3.125,-2.609 7.153,-4.336 10.61,-4.336 2.715,0 4.847,0.43 6.586,1.156 1.75,0.735 2.976,1.715 3.918,2.637 0.414,0.402 0.781,0.805 1.086,1.137 l 0.093,0.101 c 0.344,0.375 0.586,0.633 0.817,0.836 0.386,0.344 0.558,0.383 0.781,0.383 0.223,0 0.395,-0.039 0.781,-0.383 0.231,-0.203 0.473,-0.461 0.817,-0.836 l 0.093,-0.101 c 0.305,-0.332 0.672,-0.735 1.086,-1.137 0.942,-0.922 2.168,-1.902 3.918,-2.637 1.739,-0.726 3.871,-1.156 6.586,-1.156 3.457,0 7.485,1.727 10.61,4.336 3.144,2.621 5.797,6.504 5.797,11.125 0,2.434 -0.008,7.207 -4.29,12.309 -1.156,1.828 -1.949,3.984 -1.96,5.835 -0.032,6.02 -1.368,11.106 -3.383,14.77 -1.926,3.496 -4.864,6.312 -8.336,6.312 -1.117,0 -2.16,-0.312 -3.047,-0.972 -0.856,-0.633 -1.422,-1.477 -1.813,-2.313 -0.75,-1.597 -1.074,-3.664 -1.308,-5.629 -0.098,-0.82 -0.184,-1.656 -0.27,-2.496 -0.359,-3.464 -0.73,-7.058 -1.961,-10.297 -0.578,-1.121 -1.582,-1.73 -2.539,-1.73 h -1.562 c -0.981,0 -2.008,0.641 -2.582,1.813 -1.699,3.468 -1.91,7.382 -2.114,11.14 -0.023,0.492 -0.05,0.981 -0.082,1.465 -0.113,1.918 -0.296,4.047 -1.031,5.703 -0.394,0.891 -1,1.766 -1.937,2.402 -0.95,0.645 -2.043,0.914 -3.192,0.914 -3.871,0 -6.84,-2.722 -8.719,-6.371 C 15.164,54 14.094,48.918 14.062,42.98 14.055,41.32 13.414,39.402 12.426,37.676 12.25,37.375 12.008,37.07 11.605,36.598 7.812,32.094 7.812,27.125 7.812,24.895 v -0.059 c 0,-4.621 2.653,-8.504 5.797,-11.125 z m 35.61,5.039 c -1.293,0 -2.344,1.051 -2.344,2.344 0,1.293 1.051,2.344 2.344,2.344 2.234,0 3.906,1.675 3.906,3.906 0,1.293 1.051,2.344 2.344,2.344 1.293,0 2.343,-1.051 2.343,-2.344 0,-4.821 -3.773,-8.594 -8.593,-8.594 z" style="fill:currentColor;fill-opacity:1;fill-rule:nonzero;stroke:none" transform="scale(1.3333333)" /> </g>
</svg>

