<?xml version="1.0" encoding="UTF-8" standalone="no"?> <svg version="1.1" id="Icf7f27aab872451a801e393cf153b09320251110124419" width="100" height="100" viewBox="0 0 100 100" xmlns="http://www.w3.org/2000/svg" xmlns:svg="http://www.w3.org/2000/svg"> <defs id="Ic4277824b1364ec8981796a41ecfbff820251110124419" /> <g id="If2c59f29255c4e0eafa2a0f64e9e89da20251110124419"> <path id="I1fea49892315422a8c2ca2cf5465ca6420251110124419" d="m 27.582,25.844 c -0.633,-0.758 -1.672,-1.039 -2.598,-0.703 -0.929,0.336 -1.546,1.214 -1.546,2.203 v 20.312 c 0,1.293 1.05,2.344 2.343,2.344 1.293,0 2.344,-1.051 2.344,-2.344 v -13.84 l 7.574,9.09 c 0.446,0.535 1.106,0.844 1.801,0.844 0.695,0 1.355,-0.309 1.801,-0.844 l 7.574,-9.09 v 13.84 c 0,1.293 1.051,2.344 2.344,2.344 1.293,0 2.343,-1.051 2.343,-2.344 V 27.344 c 0,-0.989 -0.617,-1.867 -1.546,-2.203 -0.926,-0.336 -1.965,-0.055 -2.598,0.703 L 37.5,37.746 Z M 19.531,9.375 c -5.609,0 -10.156,4.547 -10.156,10.156 v 35.938 c 0,5.609 4.547,10.156 10.156,10.156 h 35.938 c 5.609,0 10.156,-4.547 10.156,-10.156 V 19.531 c 0,-5.609 -4.547,-10.156 -10.156,-10.156 z m -5.469,10.156 c 0,-3.019 2.45,-5.469 5.469,-5.469 h 35.938 c 3.019,0 5.469,2.45 5.469,5.469 v 35.938 c 0,3.019 -2.45,5.469 -5.469,5.469 H 19.531 c -3.019,0 -5.469,-2.45 -5.469,-5.469 z" style="fill:currentColor;fill-opacity:1;fill-rule:nonzero;stroke:none" transform="scale(1.3333333)" /> </g>
</svg>

