<?xml version="1.0" encoding="UTF-8" standalone="no"?> <svg version="1.1" id="I147c838a17b842c0a86065dc0d936a6c20251106171633" width="100" height="100" viewBox="0 0 100 100" xmlns="http://www.w3.org/2000/svg" xmlns:svg="http://www.w3.org/2000/svg"> <defs id="I4f9a196347b144a88af2d7773ec8ff0e20251106171633" /> <g id="Ibbeed7db7433417aa40f2eec5d46e3ff20251106171633"> <path id="If0873e9892734ed09f634daa5548e4ef20251106171633" d="m 66.84,56.25 c 3.027,0 5.48,2.453 5.48,5.477 v 0.55 c 0,5.004 -4.207,10.043 -14.73,10.043 -10.524,0 -14.735,-5.019 -14.735,-10.043 v -0.55 c 0,-3.024 2.457,-5.477 5.481,-5.477 z M 51.562,5.355 c 1.11,0 2.008,0.903 2.008,2.012 v 3.348 h 0.672 c 4.067,0 7.363,3.297 7.363,7.367 V 35.605 C 60.367,35.102 59.012,34.82 57.59,34.82 V 18.082 c 0,-1.852 -1.5,-3.352 -3.348,-3.352 H 20.758 c -1.848,0 -3.348,1.5 -3.348,3.352 v 41.516 c 0,1.851 1.5,3.347 3.348,3.347 h 19.441 c 0.078,1.375 0.406,2.735 0.996,4.02 H 20.758 c -4.067,0 -7.363,-3.297 -7.363,-7.367 V 18.082 c 0,-4.07 3.296,-7.367 7.363,-7.367 H 21.43 V 7.367 c 0,-1.109 0.898,-2.012 2.008,-2.012 1.109,0 2.007,0.903 2.007,2.012 v 3.348 H 35.492 V 7.367 c 0,-1.109 0.899,-2.012 2.008,-2.012 1.109,0 2.008,0.903 2.008,2.012 v 3.348 H 49.555 V 7.367 c 0,-1.109 0.898,-2.012 2.007,-2.012 z M 57.59,37.5 c 4.437,0 8.035,3.598 8.035,8.035 0,4.438 -3.598,8.035 -8.035,8.035 -4.438,0 -8.035,-3.597 -8.035,-8.035 0,-4.437 3.597,-8.035 8.035,-8.035 z M 35.699,48.227 c 1.012,0.101 1.801,0.957 1.801,1.996 0,1.039 -0.789,1.894 -1.801,2 l -0.207,0.007 h -9.375 c -1.109,0 -2.012,-0.898 -2.012,-2.007 0,-1.11 0.903,-2.008 2.012,-2.008 h 9.375 z m 8.035,-12.055 c 1.012,0.101 1.801,0.957 1.801,1.996 0,1.043 -0.789,1.898 -1.801,2 l -0.207,0.012 h -17.41 c -1.109,0 -2.012,-0.903 -2.012,-2.012 0,-1.109 0.903,-2.008 2.012,-2.008 h 17.41 z M 49.09,24.117 c 1.012,0.106 1.805,0.961 1.805,2 0,1.039 -0.793,1.895 -1.805,1.996 l -0.207,0.012 H 26.117 c -1.109,0 -2.012,-0.898 -2.012,-2.008 0,-1.109 0.903,-2.012 2.012,-2.012 h 22.766 z" style="fill:currentColor;fill-opacity:1;fill-rule:nonzero;stroke:none" transform="scale(1.3333333)" /> </g>
</svg>

