<?xml version="1.0" encoding="UTF-8" standalone="no"?> <svg version="1.1" id="Ib5e720a621344874ac75a2cdf948662c20251110130508" width="100" height="100" viewBox="0 0 100 100" xmlns="http://www.w3.org/2000/svg" xmlns:svg="http://www.w3.org/2000/svg"> <defs id="I2ba0f8834ec04a5c87f202b51dfff41120251110130508" /> <g id="I20a91aa1d2c343e2946728d83c1ff2db20251110130508"> <path id="Ife88a951cd674036a2b8e4f6d6033e8e20251110130508" d="m 41.277,9.695 c -1.547,-3.136 -6.019,-3.136 -7.566,0 L 26.344,24.625 9.867,27.02 c -3.461,0.503 -4.844,4.753 -2.34,7.195 l 11.926,11.621 -2.816,16.41 c -0.59,3.445 3.027,6.074 6.121,4.449 l 9.203,-4.84 0.949,-3.804 c 0.215,-0.863 0.531,-1.696 0.934,-2.481 l -12.426,6.532 2.695,-15.715 c 0.235,-1.371 -0.218,-2.766 -1.215,-3.735 L 11.48,31.52 27.262,29.227 c 1.375,-0.2 2.562,-1.063 3.176,-2.305 l 7.058,-14.301 7.055,14.301 c 0.617,1.242 1.804,2.105 3.179,2.305 l 13.903,2.023 c 2.273,0.004 4.547,0.758 6.414,2.262 1.652,-2.477 0.223,-6.035 -2.922,-6.492 L 48.648,24.625 Z M 56.562,36.465 38.137,54.91 c -1.075,1.074 -1.836,2.422 -2.203,3.899 l -1.43,5.722 c -0.621,2.489 1.629,4.742 4.113,4.117 l 5.715,-1.429 c 1.477,-0.367 2.82,-1.133 3.895,-2.207 L 66.652,46.566 c 2.786,-2.789 2.786,-7.312 0,-10.101 -2.785,-2.789 -7.304,-2.789 -10.09,0 z" style="fill:currentColor;fill-opacity:1;fill-rule:nonzero;stroke:none" transform="scale(1.3333333)" /> </g>
</svg>

