<?xml version="1.0" encoding="UTF-8" standalone="no"?> <svg version="1.1" id="Ib6e027ca0f174243af6fa388f5ba8e0a20251106165301" width="100" height="100" viewBox="0 0 100 100" xmlns="http://www.w3.org/2000/svg" xmlns:svg="http://www.w3.org/2000/svg"> <defs id="Ie4eb0755b99e42a590c9286b97b29b4220251106165301" /> <g id="Ie5fa4cb8557b4864bb90b9a912dcc0a020251106165301"> <path id="Iba3c0e9c413142c5bb6e3499622d2a9120251106165301" d="M 45.312,45.312 V 29.688 h 0.782 c 3.019,0 5.468,2.449 5.468,5.468 v 4.688 c 0,3.019 -2.449,5.468 -5.468,5.468 z M 19.531,9.375 c -5.609,0 -10.156,4.547 -10.156,10.156 v 35.938 c 0,5.609 4.547,10.156 10.156,10.156 h 35.938 c 5.609,0 10.156,-4.547 10.156,-10.156 V 19.531 C 65.625,13.922 61.078,9.375 55.469,9.375 Z M 22.656,25 C 23.949,25 25,26.051 25,27.344 v 8.594 h 6.25 v -8.594 c 0,-1.293 1.051,-2.344 2.344,-2.344 1.293,0 2.344,1.051 2.344,2.344 V 47.656 C 35.938,48.949 34.887,50 33.594,50 32.301,50 31.25,48.949 31.25,47.656 V 40.625 H 25 v 7.031 C 25,48.949 23.949,50 22.656,50 21.363,50 20.312,48.949 20.312,47.656 V 27.344 C 20.312,26.051 21.363,25 22.656,25 Z m 20.313,0 h 3.125 c 5.609,0 10.156,4.547 10.156,10.156 v 4.688 C 56.25,45.453 51.703,50 46.094,50 h -3.125 c -1.293,0 -2.344,-1.051 -2.344,-2.344 V 27.344 C 40.625,26.051 41.676,25 42.969,25 Z" style="fill:currentColor;fill-opacity:1;fill-rule:nonzero;stroke:none" transform="scale(1.3333333)" /> </g>
</svg>

