<?xml version="1.0" encoding="UTF-8" standalone="no"?> <svg version="1.1" id="I054756bacda94f128cadc4bb7dd575f420251110123031" width="100" height="100" viewBox="0 0 100 100" xmlns="http://www.w3.org/2000/svg" xmlns:svg="http://www.w3.org/2000/svg"> <defs id="Ia3196d4541f240f7a9b351ffff1aa44920251110123031" /> <g id="I85b09d0e26ac4c088b23735b13d928ba20251110123031"> <path id="I091715d961aa4de4b0a38074b136a68f20251110123031" d="m 46.875,48.453 c 0,-1.644 0.281,-3.223 0.801,-4.691 H 19.539 c -3.879,0 -7.027,3.148 -7.027,7.031 v 2.875 c 0,1.789 0.558,3.531 1.593,4.988 4.821,6.766 12.707,10.117 23.395,10.117 4.719,0 8.895,-0.652 12.5,-1.964 v -9.516 c -1.953,-2.414 -3.125,-5.492 -3.125,-8.84 z M 37.5,6.266 c 8.629,0 15.625,6.996 15.625,15.629 0,8.632 -6.996,15.628 -15.625,15.628 -8.629,0 -15.625,-6.996 -15.625,-15.628 0,-8.633 6.996,-15.629 15.625,-15.629 z m 34.375,42.187 c 0,6.043 -4.898,10.942 -10.937,10.942 C 54.898,59.395 50,54.496 50,48.453 50,42.41 54.898,37.512 60.938,37.512 c 6.039,0 10.937,4.898 10.937,10.941 z M 68.75,60.148 c -2.234,1.5 -4.922,2.372 -7.812,2.372 -2.891,0 -5.579,-0.872 -7.813,-2.372 v 10.957 c 0,0.629 0.707,1 1.227,0.645 l 6.586,-4.543 6.589,4.543 c 0.516,0.355 1.223,-0.016 1.223,-0.645 z" style="fill:currentColor;fill-opacity:1;fill-rule:nonzero;stroke:none" transform="scale(1.3333333)" /> </g>
</svg>

