<?xml version="1.0" encoding="UTF-8" standalone="no"?> <svg version="1.1" id="Ib37805d654d54f0b8d5c908f64c80ac520251106161453" width="100" height="100" viewBox="0 0 100 100" xmlns="http://www.w3.org/2000/svg" xmlns:svg="http://www.w3.org/2000/svg"> <defs id="Ie5f68b961e224dc99fe9a3642ce8d78c20251106161453" /> <g id="Ie62e95cfe84040a0a88e8687d195cdba20251106161453"> <path id="Ic49042931f99448baaab3128d31f6cc220251106161453" d="m 51.562,71.875 c 9.493,0 17.188,-7.695 17.188,-17.187 0,-9.493 -7.695,-17.188 -17.188,-17.188 -9.492,0 -17.187,7.695 -17.187,17.188 0,9.492 7.695,17.187 17.187,17.187 z M 47.98,45.77 c 0.61,0.609 0.61,1.601 0,2.21 L 45.961,50 h 6.383 C 57.953,50 62.5,54.547 62.5,60.156 v 0.782 c 0,0.863 -0.699,1.562 -1.562,1.562 -0.864,0 -1.563,-0.699 -1.563,-1.562 v -0.782 c 0,-3.883 -3.148,-7.031 -7.031,-7.031 h -6.383 l 2.019,2.02 c 0.61,0.609 0.61,1.601 0,2.21 -0.609,0.61 -1.601,0.61 -2.21,0 l -4.688,-4.687 c -0.609,-0.609 -0.609,-1.602 0,-2.211 L 45.77,45.77 c 0.609,-0.61 1.601,-0.61 2.21,0 z M 49.66,9.523 c 4.367,-4.367 11.445,-4.367 15.817,0 4.363,4.368 4.363,11.446 0,15.813 L 62.688,28.125 46.875,12.309 Z m -6.101,6.102 -31.243,31.246 c -1.269,1.27 -2.164,2.867 -2.578,4.613 L 6.312,65.867 c -0.187,0.789 0.047,1.625 0.626,2.199 0.574,0.575 1.406,0.813 2.199,0.622 l 14.379,-3.422 c 1.746,-0.418 3.343,-1.309 4.617,-2.578 l 3.594,-3.598 c -0.313,-1.418 -0.477,-2.891 -0.477,-4.402 0,-11.219 9.094,-20.313 20.312,-20.313 1.512,0 2.981,0.164 4.399,0.477 l 3.414,-3.411 z" style="fill:currentColor;fill-opacity:1;fill-rule:nonzero;stroke:none" transform="scale(1.3333333)" /> </g>
</svg>

