<?xml version="1.0" encoding="UTF-8" standalone="no"?> <svg version="1.1" id="I44ba98a34ba64cfebdc7d77f8d1dd48320251106170956" width="100" height="100" viewBox="0 0 100 100" xmlns="http://www.w3.org/2000/svg" xmlns:svg="http://www.w3.org/2000/svg"> <defs id="I7ec65a4dcd6f416391b9c6c19fc68dce20251106170956" /> <g id="I60e370264b8e4c978599c64585e72ddd20251106170956"> <path id="I98bbd1f7aebe4de7b5d922feb12f895d20251106170956" d="M 4.688,19.922 C 4.688,14.098 9.41,9.375 15.234,9.375 h 44.532 c 5.824,0 10.546,4.723 10.546,10.547 v 3.469 c 0,0.031 0,0.058 0,0.089 V 34.969 C 68.836,34.27 67.227,33.938 65.625,33.984 V 27.363 L 38.613,41.906 c -0.695,0.375 -1.531,0.375 -2.222,0 L 9.375,27.363 v 23.028 c 0,3.234 2.625,5.859 5.859,5.859 h 24.317 l -1.008,1.016 c -1.031,1.039 -1.809,2.296 -2.289,3.672 H 15.234 C 9.41,60.938 4.688,56.215 4.688,50.391 V 23.48 c 0,-0.031 0,-0.058 0,-0.089 z M 37.5,37.184 65.625,22.039 v -2.117 c 0,-3.234 -2.621,-5.86 -5.859,-5.86 H 15.234 c -3.234,0 -5.859,2.626 -5.859,5.86 v 2.117 z M 70.652,49.039 50.473,69.062 c -0.825,0.821 -1.852,1.403 -2.977,1.692 l -7.074,1.824 c -1.731,0.445 -3.301,-1.129 -2.856,-2.859 l 1.856,-7.153 c 0.273,-1.066 0.828,-2.043 1.605,-2.824 l 20.078,-20.25 c 2.692,-2.715 7.098,-2.656 9.715,0.133 2.5,2.668 2.426,6.84 -0.168,9.414 z" style="fill:currentColor;fill-opacity:1;fill-rule:nonzero;stroke:none" transform="scale(1.3333333)" /> </g>
</svg>

