<?xml version="1.0" encoding="UTF-8" standalone="no"?> <svg version="1.1" id="Ia156470247944208aad5dff7324fbbe220251106123559" width="100" height="100" viewBox="0 0 100 100" xmlns="http://www.w3.org/2000/svg" xmlns:svg="http://www.w3.org/2000/svg"> <defs id="I720c9bb149f547968a5936297128066420251106123559" /> <g id="I683d708244b54cdb8efa650a2125c82020251106123559"> <path id="I5340effc88db47b2b0d85b17b442030420251106123559" d="m 55.254,58.57 11.058,11.055 c 0.915,0.914 2.399,0.914 3.313,0 0.918,-0.914 0.914,-2.398 0,-3.313 L 8.688,5.375 c -0.915,-0.918 -2.399,-0.918 -3.317,0 -0.914,0.914 -0.914,2.398 0,3.313 l 15.731,15.73 c -1.438,-0.629 -3.028,-0.98 -4.696,-0.98 -6.472,0 -11.718,5.246 -11.718,11.718 0,5.668 4.027,10.399 9.374,11.485 v 4.921 c 0,6.473 5.247,11.719 11.719,11.719 h 21.34 c 3.481,0 6.516,-1.894 8.133,-4.711 z M 51.68,54.996 c -0.489,2.063 -2.344,3.598 -4.559,3.598 h -4.933 v -1.172 c 0,-5.824 -4.723,-10.547 -10.547,-10.547 h -3.516 c -1.293,0 -2.344,1.047 -2.344,2.344 0,1.293 1.051,2.343 2.344,2.343 h 3.516 c 3.234,0 5.859,2.622 5.859,5.86 v 1.172 H 25.781 c -3.883,0 -7.031,-3.149 -7.031,-7.032 v -9.378 c 0,-5.071 4.023,-9.2 9.051,-9.372 h 1.695 z M 14.066,41.789 c -2.734,-0.965 -4.691,-3.57 -4.691,-6.633 0,-3.883 3.148,-7.031 7.031,-7.031 1.828,0 3.492,0.695 4.746,1.844 -4.129,2.359 -6.945,6.758 -7.086,11.82 z m 51.559,-1.945 c 0,4.777 -3.57,8.718 -8.191,9.301 l 3.839,3.835 c 5.286,-2.019 9.039,-7.14 9.039,-13.136 0,-4.352 -1.98,-8.246 -5.082,-10.821 L 48.418,11.539 C 45.656,8.664 41.059,8.66 38.289,11.523 c -2.473,2.559 -2.648,6.559 -0.41,9.321 l 4.465,5.508 c -0.41,0.558 -0.778,1.152 -1.094,1.773 h -4.832 l 4.687,4.687 h 3.34 l 0.551,-1.562 c 0.426,-1.207 1.129,-2.285 2.035,-3.164 l 1.539,-1.492 -7.047,-8.699 c -0.75,-0.922 -0.691,-2.258 0.137,-3.114 0.926,-0.957 2.457,-0.953 3.383,0.008 l 17.004,17.684 0.113,0.089 c 2.117,1.723 3.465,4.344 3.465,7.282 z" style="fill:currentColor;fill-opacity:1;fill-rule:nonzero;stroke:none" transform="scale(1.3333333)" /> </g>
</svg>

