<?xml version="1.0" encoding="UTF-8" standalone="no"?> <svg version="1.1" id="I2e2bb4ffae814ff8803ef742c9ae149f20251110123030" width="100" height="100" viewBox="0 0 100 100" xmlns="http://www.w3.org/2000/svg" xmlns:svg="http://www.w3.org/2000/svg"> <defs id="I8d3f382953a9456abf0b64022b71802420251110123030"> <radialGradient fx="0" fy="0" cx="0" cy="0" r="1" gradientUnits="userSpaceOnUse" gradientTransform="matrix(10.372019,11.348225,-11.348225,10.372019,10.785723,21.755946)" spreadMethod="pad" id="I6d1fa8e2343549ebab7af0d6bc38fe0c20251110123030"> <stop style="stop-opacity:1;stop-color:#008ce2" offset="0" id="I87dfaf0e1a234c35958fdc66a36cb80520251110123030" /> <stop style="stop-opacity:1;stop-color:#0068c6" offset="1" id="I0ceb1aded3dc48e5b7022984eb35001a20251110123030" /> </radialGradient> <radialGradient fx="0" fy="0" cx="0" cy="0" r="1" gradientUnits="userSpaceOnUse" gradientTransform="matrix(2.662695,13.49307,-13.49307,2.662695,57.257946,21.328366)" spreadMethod="pad" id="I8cdcb9dd6ee947078ec6657e2547c39120251110123030"> <stop style="stop-opacity:1;stop-color:#0078d4" offset="0" id="I370621ee60e54c36add431ca3263365e20251110123030" /> <stop style="stop-opacity:1;stop-color:#004695" offset="1" id="I2950073c54854e57a63746e7b0cd25df20251110123030" /> </radialGradient> <radialGradient fx="0" fy="0" cx="0" cy="0" r="1" gradientUnits="userSpaceOnUse" gradientTransform="matrix(6.706137,11.583319,-11.583319,6.706137,35.436429,15.559661)" spreadMethod="pad" id="Idceb40b1dd004e2681419e4fdc6109a220251110123030"> <stop style="stop-opacity:1;stop-color:#3dcbff" offset="0" id="I419065c0f16d4ab1b16ccf35129cf47b20251110123030" /> <stop style="stop-opacity:1;stop-color:#3dcbff" offset="0.338691" id="Id97550e9fb0a460594dec6dba64303ae20251110123030" /> <stop style="stop-opacity:1;stop-color:#14b1ff" offset="1" id="I4c9d1d6c3d9747759c0464058da3a3a920251110123030" /> </radialGradient> <radialGradient fx="0" fy="0" cx="0" cy="0" r="1" gradientUnits="userSpaceOnUse" gradientTransform="matrix(4.082326,20.686977,-20.686977,4.082326,50.664375,46.283571)" spreadMethod="pad" id="If497d7d97a9a44d38f226036ff11608220251110123030"> <stop style="stop-opacity:1;stop-color:#0078d4" offset="0" id="I2c30b4e5449b4135880a1e656e1f203620251110123030" /> <stop style="stop-opacity:1;stop-color:#004695" offset="1" id="I65a98e08669f4a789ec71122ad28787420251110123030" /> </radialGradient> <radialGradient fx="0" fy="0" cx="0" cy="0" r="1" gradientUnits="userSpaceOnUse" gradientTransform="matrix(15.153581,27.400571,-19.723034,10.907605,12.402375,39.569732)" spreadMethod="pad" id="I16117a24583243338514d93af8f1aad220251110123030"> <stop style="stop-opacity:1;stop-color:#008ce2" offset="0" id="Ibae9f959891f48f2b42c0e5cd4dd34fd20251110123030" /> <stop style="stop-opacity:1;stop-color:#0068c6" offset="1" id="Ib2beab406974434780538f213e8fa49920251110123030" /> </radialGradient> <radialGradient fx="0" fy="0" cx="0" cy="0" r="1" gradientUnits="userSpaceOnUse" gradientTransform="matrix(8.382673,17.374972,-15.682065,7.565918,34.920536,46.107321)" spreadMethod="pad" id="Ic3f24b79c74142838e432ef3672b409a20251110123030"> <stop style="stop-opacity:1;stop-color:#3dcbff" offset="0" id="I950e4f47c3d44da08fd0a81a7a7ae48920251110123030" /> <stop style="stop-opacity:1;stop-color:#3dcbff" offset="0.338691" id="I7133546b594a412b9228ed0d432dd28820251110123030" /> <stop style="stop-opacity:1;stop-color:#14b1ff" offset="1" id="Ia6a390c1cb544216bb9ce31c11bb5a1a20251110123030" /> </radialGradient> </defs> <g id="I2074d1f497ef4d37b7b63351bbfb4a9c20251110123030"> <path id="I5b39313f07ca444196f75ee3e91f0fae20251110123030" d="m 14.73,16.07 c -5.175,0 -9.375,4.2 -9.375,9.375 0,5.18 4.2,9.375 9.375,9.375 5.18,0 9.375,-4.195 9.375,-9.375 0,-5.175 -4.195,-9.375 -9.375,-9.375 z" transform="scale(1.3333333)" style="fill:url(#I6d1fa8e2343549ebab7af0d6bc38fe0c20251110123030);stroke:none" /> <path id="If138648104054c9ba368558d371d78fc20251110123030" d="m 60.27,16.07 c -5.18,0 -9.375,4.2 -9.375,9.375 0,5.18 4.195,9.375 9.375,9.375 5.175,0 9.375,-4.195 9.375,-9.375 0,-5.175 -4.2,-9.375 -9.375,-9.375 z" transform="scale(1.3333333)" style="fill:url(#I8cdcb9dd6ee947078ec6657e2547c39120251110123030);stroke:none" /> <path id="I1cdf67802543411aa1a41e958d9c35f820251110123030" d="m 37.5,8.035 c -5.918,0 -10.715,4.797 -10.715,10.715 0,5.918 4.797,10.715 10.715,10.715 5.918,0 10.715,-4.797 10.715,-10.715 0,-5.918 -4.797,-10.715 -10.715,-10.715 z" transform="scale(1.3333333)" style="fill:url(#Idceb40b1dd004e2681419e4fdc6109a220251110123030);stroke:none" /> <path id="Iba2d00785e3b4250bbd144dec78443a420251110123030" d="m 49.359,38.383 c -2.5,-0.668 -5.07,0.816 -5.742,3.316 l -2.25,8.41 c -1.918,7.145 2.324,14.489 9.469,16.403 7.144,1.914 14.488,-2.328 16.402,-9.473 l 2.254,-8.406 c 0.668,-2.5 -0.816,-5.071 -3.316,-5.742 z" transform="scale(1.3333333)" style="fill:url(#If497d7d97a9a44d38f226036ff11608220251110123030);stroke:none" /> <path id="I1869fcb0bd0846dc867c32c5e42661e520251110123030" d="m 25.648,38.383 c 2.504,-0.668 5.075,0.816 5.743,3.316 l 2.254,8.41 C 35.559,57.254 31.32,64.598 24.176,66.512 17.031,68.426 9.688,64.184 7.77,57.039 L 5.52,48.633 c -0.672,-2.5 0.812,-5.071 3.312,-5.742 z" transform="scale(1.3333333)" style="fill:url(#I16117a24583243338514d93af8f1aad220251110123030);stroke:none" /> <path id="I2cf5cd5f07544c35a0290ae65d6e4e6520251110123030" d="m 28.793,34.82 c -2.586,0 -4.688,2.102 -4.688,4.688 V 53.57 c 0,7.399 5.997,13.395 13.395,13.395 7.398,0 13.395,-5.996 13.395,-13.395 V 39.508 c 0,-2.586 -2.102,-4.688 -4.688,-4.688 z" transform="scale(1.3333333)" style="fill:url(#Ic3f24b79c74142838e432ef3672b409a20251110123030);stroke:none" /> </g>
</svg>

