<?xml version="1.0" encoding="UTF-8" standalone="no"?> <svg version="1.1" id="I906aefc74a3e4b658731f785c35418bd20251106132945" width="100" height="100" viewBox="0 0 100 100" xmlns="http://www.w3.org/2000/svg" xmlns:svg="http://www.w3.org/2000/svg"> <defs id="I059f83b9a90240f7b9b2688f142a5e8020251106132945" /> <g id="Ib000a45e2a5147ea99a183217ce58ff120251106132945"> <path id="I943e3d07146c4336b785bb94a926b12120251106132945" d="m 61.605,40.18 c 0,1.476 1.2,2.675 2.68,2.675 1.481,0 2.68,-1.199 2.68,-2.675 V 10.715 c 0,-1.481 -1.199,-2.68 -2.68,-2.68 H 34.82 c -1.476,0 -2.675,1.199 -2.675,2.68 0,1.48 1.199,2.68 2.675,2.68 h 23 l -11.5,11.496 c -1.047,1.047 -1.047,2.742 0,3.789 1.047,1.047 2.742,1.047 3.789,0 L 61.605,17.18 Z M 23.324,55.465 c 1.043,-1.047 1.043,-2.742 0,-3.789 -1.047,-1.043 -2.742,-1.043 -3.789,0 L 8.82,62.391 c -1.047,1.047 -1.047,2.742 0,3.789 1.047,1.047 2.742,1.047 3.789,0 z m 18.75,-22.539 c 1.043,1.047 1.043,2.742 0,3.789 L 31.359,47.43 c -1.047,1.047 -2.742,1.047 -3.789,0 -1.047,-1.047 -1.047,-2.742 0,-3.789 L 38.285,32.926 c 1.047,-1.043 2.742,-1.043 3.789,0 z" style="fill:currentColor;fill-opacity:1;fill-rule:nonzero;stroke:none" transform="scale(1.3333333)" /> </g>
</svg>

