<?xml version="1.0" encoding="UTF-8" standalone="no"?> <svg version="1.1" id="Ic1c2074c43d34c9fa9342a0821cee97f20251110124419" width="100" height="100" viewBox="0 0 100 100" xmlns="http://www.w3.org/2000/svg" xmlns:svg="http://www.w3.org/2000/svg"> <defs id="I06f28ff3decb4f4cb1d3e82c667931ba20251110124419" /> <g id="I367b4a3242444454b18bdd63597b602420251110124419"> <path id="I2aac5d36cad74627a56b7f248615772920251110124419" d="m 60.148,15 c 0.977,0 1.903,0.195 2.782,0.586 0.879,0.391 1.66,0.93 2.343,1.613 0.684,0.684 1.223,1.461 1.61,2.344 0.39,0.875 0.597,1.812 0.617,2.812 V 41.25 c 0,1.328 -0.332,2.578 -0.996,3.75 -0.664,1.172 -1.582,2.09 -2.754,2.754 v 6.621 c 0,0.762 -0.148,1.484 -0.441,2.168 -0.289,0.684 -0.692,1.281 -1.2,1.789 -0.507,0.504 -1.113,0.918 -1.816,1.227 C 59.59,59.871 58.867,60.02 58.125,60 h -15 c -0.508,0 -0.945,-0.188 -1.32,-0.555 L 37.5,55.137 33.191,59.445 C 32.82,59.812 32.383,60 31.875,60 h -15 C 16.113,60 15.391,59.852 14.707,59.559 14.023,59.27 13.43,58.867 12.918,58.359 12.414,57.852 12,57.246 11.691,56.543 11.375,55.84 11.23,55.117 11.25,54.375 V 47.754 C 10.098,47.09 9.188,46.172 8.527,45 7.859,43.828 7.52,42.578 7.5,41.25 V 22.355 c 0,-0.98 0.195,-1.906 0.586,-2.785 0.391,-0.879 0.93,-1.66 1.613,-2.343 0.684,-0.684 1.461,-1.219 2.344,-1.614 0.875,-0.386 1.812,-0.593 2.812,-0.613 z m 3.602,7.5 c 0,-0.508 -0.098,-0.984 -0.293,-1.434 C 63.262,20.617 63,20.215 62.664,19.863 62.336,19.512 61.934,19.238 61.465,19.043 60.996,18.848 60.508,18.75 60,18.75 H 15 c -0.527,0 -1.016,0.098 -1.465,0.293 -0.449,0.195 -0.84,0.457 -1.172,0.789 -0.332,0.332 -0.605,0.734 -0.82,1.203 -0.215,0.469 -0.313,0.957 -0.293,1.465 v 18.75 c 0,0.527 0.098,1.016 0.293,1.465 0.195,0.449 0.457,0.851 0.789,1.199 0.332,0.356 0.723,0.617 1.172,0.793 C 13.953,44.883 14.453,44.98 15,45 h 45 c 0.527,0 1.016,-0.098 1.465,-0.293 0.449,-0.195 0.84,-0.457 1.172,-0.793 0.332,-0.328 0.605,-0.73 0.82,-1.199 0.215,-0.469 0.313,-0.957 0.293,-1.465 z m -7.5,0 c 0.508,0 0.984,0.098 1.434,0.293 0.449,0.195 0.851,0.457 1.203,0.789 0.351,0.332 0.625,0.734 0.82,1.203 C 59.902,25.254 60,25.742 60,26.25 V 37.5 c 0,0.527 -0.098,1.016 -0.293,1.465 -0.195,0.449 -0.457,0.84 -0.793,1.172 -0.328,0.332 -0.73,0.605 -1.199,0.82 -0.469,0.215 -0.957,0.313 -1.465,0.293 h -37.5 c -0.527,0 -1.016,-0.098 -1.465,-0.293 C 16.836,40.762 16.434,40.5 16.082,40.164 15.73,39.836 15.469,39.441 15.293,38.992 15.117,38.543 15.02,38.047 15,37.5 V 26.25 c 0,-0.527 0.098,-1.016 0.293,-1.465 0.195,-0.449 0.457,-0.84 0.789,-1.172 0.332,-0.332 0.734,-0.605 1.203,-0.82 0.469,-0.215 0.957,-0.313 1.465,-0.293 z M 28.125,26.25 H 18.75 V 37.5 h 9.375 z m 15,11.25 V 26.25 H 31.875 V 37.5 Z m 3.75,0 H 56.25 V 26.25 H 46.875 Z M 60,48.75 H 15 v 5.625 c 0,0.508 0.188,0.945 0.559,1.32 0.371,0.367 0.808,0.555 1.316,0.555 h 14.238 l 5.071,-5.07 c 0.371,-0.368 0.808,-0.555 1.316,-0.555 0.508,0 0.945,0.187 1.32,0.555 l 5.094,5.07 h 14.211 c 0.508,0 0.945,-0.188 1.32,-0.555 C 59.812,55.32 60,54.883 60,54.375 Z" style="fill:currentColor;fill-opacity:1;fill-rule:nonzero;stroke:none" transform="scale(1.3333333)" /> </g>
</svg>

