<?xml version="1.0" encoding="UTF-8" standalone="no"?> <svg version="1.1" id="Ic5a8b76cdf404aaea809f30e46c75eb020251110123031" width="100" height="100" viewBox="0 0 100 100" xmlns="http://www.w3.org/2000/svg" xmlns:svg="http://www.w3.org/2000/svg"> <defs id="I40dbefc13ef1405c895ce5d81ee6cae920251110123031" /> <g id="Idf66657b54e2451ea3eb2d4c7ca8fedc20251110123031"> <path id="I4cdaf37837d84189a72ef594392a35dd20251110123031" d="M 42.969,6.25 C 46.852,6.25 50,9.398 50,13.281 v 21.637 c -8.957,2.117 -15.625,10.164 -15.625,19.77 h -7.031 c -1.293,0 -2.344,1.05 -2.344,2.343 0,1.293 1.051,2.344 2.344,2.344 l 7.574,0.004 c 0.848,3.586 2.648,6.805 5.113,9.375 L 19.531,68.75 C 15.648,68.75 12.5,65.602 12.5,61.719 V 13.281 C 12.5,9.398 15.648,6.25 19.531,6.25 Z M 54.688,37.5 c 9.492,0 17.187,7.695 17.187,17.188 0,9.492 -7.695,17.187 -17.187,17.187 C 45.195,71.875 37.5,64.18 37.5,54.688 37.5,45.195 45.195,37.5 54.688,37.5 Z m -9.665,15.648 c -0.636,0.118 -1.14,0.622 -1.253,1.258 l -0.028,0.282 0.028,0.281 c 0.113,0.636 0.617,1.14 1.253,1.258 l 0.282,0.023 h 18.773 l 0.281,-0.023 c 0.637,-0.118 1.141,-0.622 1.254,-1.258 l 0.028,-0.281 -0.028,-0.282 C 65.5,53.77 64.996,53.266 64.359,53.148 L 64.078,53.125 H 45.305 Z" style="fill:currentColor;fill-opacity:1;fill-rule:nonzero;stroke:none" transform="scale(1.3333333)" /> </g>
</svg>

