<?xml version="1.0" encoding="UTF-8" standalone="no"?> <svg version="1.1" id="I2593d509e08d41bcb6ad6f0d50b15dd620251110123030" width="100" height="100" viewBox="0 0 100 100" xmlns="http://www.w3.org/2000/svg" xmlns:svg="http://www.w3.org/2000/svg"> <defs id="I9abc733350e948d5beeac42da88ad59d20251110123030" /> <g id="I632200a12b42473daf856924d527619f20251110123030"> <path id="Ia4feb9cde74f41f69cf9d9373e83173b20251110123030" d="m 39.141,48.438 c 0.164,-1.653 0.586,-3.227 1.226,-4.688 H 13.289 c -3.879,0 -7.027,3.145 -7.027,7.027 v 1.805 c 0,2.789 0.996,5.488 2.808,7.609 4.895,5.735 12.352,8.563 22.18,8.563 2.094,0 4.078,-0.129 5.957,-0.387 -0.047,-0.019 -0.098,-0.039 -0.145,-0.062 -1.73,-0.813 -2.734,-2.551 -2.691,-4.352 -1.004,0.074 -2.043,0.113 -3.121,0.113 -8.555,0 -14.699,-2.332 -18.617,-6.918 -1.086,-1.273 -1.684,-2.89 -1.684,-4.566 v -1.805 c 0,-1.293 1.047,-2.339 2.34,-2.339 z M 31.25,6.266 c 8.629,0 15.625,6.996 15.625,15.625 0,8.629 -6.996,15.625 -15.625,15.625 -8.629,0 -15.625,-6.996 -15.625,-15.625 0,-8.629 6.996,-15.625 15.625,-15.625 z m 0,4.687 c -6.039,0 -10.938,4.895 -10.938,10.938 0,6.039 4.899,10.937 10.938,10.937 6.043,0 10.938,-4.898 10.938,-10.937 0,-6.043 -4.895,-10.938 -10.938,-10.938 z M 54.695,37.5 c -6.902,0 -12.5,5.598 -12.5,12.5 v 9.375 l -2.965,2.5 c -0.96,0.813 -1.441,1.219 -1.585,1.535 -0.36,0.781 -0.024,1.703 0.753,2.067 0.317,0.148 0.946,0.148 2.204,0.148 h 28.187 c 1.258,0 1.887,0 2.203,-0.148 0.774,-0.364 1.113,-1.286 0.754,-2.067 -0.144,-0.316 -0.625,-0.722 -1.586,-1.535 l -2.965,-2.5 V 50 c 0,-6.902 -5.597,-12.5 -12.5,-12.5 z m 4.688,31.25 c -0.684,1.82 -2.524,3.125 -4.688,3.125 -2.164,0 -4.004,-1.305 -4.687,-3.125 z" style="fill:currentColor;fill-opacity:1;fill-rule:nonzero;stroke:none" transform="scale(1.3333333)" /> </g>
</svg>

