<?xml version="1.0" encoding="UTF-8" standalone="no"?> <svg version="1.1" id="I72b1a85ece084c989406e78496356e4220251110123030" width="100" height="100" viewBox="0 0 100 100" xmlns="http://www.w3.org/2000/svg" xmlns:svg="http://www.w3.org/2000/svg"> <defs id="Ie16ba711a7704a2b85472e3d29b891f320251110123030" /> <g id="I2fe2bc5d979f48f1ae95f0e943cabc4e20251110123030"> <path id="I4775719a6c504e4392a3a123a3adf45320251110123030" d="m 17.188,21.875 c 0,-4.316 3.496,-7.813 7.812,-7.813 4.316,0 7.812,3.497 7.812,7.813 0,4.316 -3.496,7.813 -7.812,7.813 -4.316,0 -7.812,-3.497 -7.812,-7.813 z M 25,9.375 c -6.902,0 -12.5,5.598 -12.5,12.5 0,6.902 5.598,12.5 12.5,12.5 6.902,0 12.5,-5.598 12.5,-12.5 0,-6.902 -5.598,-12.5 -12.5,-12.5 z M 48.438,25 c 0,-2.59 2.097,-4.688 4.687,-4.688 2.59,0 4.687,2.098 4.687,4.688 0,2.59 -2.097,4.688 -4.687,4.688 -2.59,0 -4.687,-2.098 -4.687,-4.688 z m 4.687,-9.375 c -5.18,0 -9.375,4.199 -9.375,9.375 0,5.176 4.195,9.375 9.375,9.375 5.18,0 9.375,-4.199 9.375,-9.375 0,-5.176 -4.195,-9.375 -9.375,-9.375 z m -39.844,25 c -3.883,0 -7.031,3.148 -7.031,7.031 v 0.867 c 0.004,0.039 0.004,0.094 0.008,0.157 0.004,0.125 0.015,0.289 0.035,0.496 0.043,0.406 0.121,0.965 0.273,1.625 0.309,1.316 0.922,3.074 2.157,4.84 2.562,3.656 7.437,6.859 16.277,6.859 4.277,0 7.629,-0.75 10.238,-1.941 -0.468,-1.543 -0.754,-3.164 -0.836,-4.84 -2.015,1.191 -4.988,2.093 -9.402,2.093 -7.566,0 -10.895,-2.656 -12.434,-4.859 C 11.75,51.789 11.34,50.617 11.133,49.734 11.031,49.297 10.98,48.941 10.957,48.707 10.945,48.59 10.941,48.508 10.938,48.461 v -0.805 c 0,-1.293 1.05,-2.344 2.343,-2.344 h 23.383 c 0.777,-1.488 1.731,-2.871 2.836,-4.117 -0.852,-0.367 -1.793,-0.57 -2.781,-0.57 z m 58.594,14.063 c 0,9.492 -7.695,17.187 -17.187,17.187 C 45.195,71.875 37.5,64.18 37.5,54.688 37.5,45.195 45.195,37.5 54.688,37.5 c 9.492,0 17.187,7.695 17.187,17.188 z m -29.687,0 c 0,2.605 0.796,5.023 2.16,7.027 L 61.715,44.348 c -2.004,-1.364 -4.422,-2.16 -7.027,-2.16 -6.903,0 -12.5,5.597 -12.5,12.5 z m 12.5,12.5 c 6.902,0 12.5,-5.598 12.5,-12.5 0,-2.606 -0.797,-5.024 -2.161,-7.028 L 47.66,65.027 c 2.004,1.364 4.422,2.161 7.028,2.161 z" style="fill:currentColor;fill-opacity:1;fill-rule:nonzero;stroke:none" transform="scale(1.3333333)" /> </g>
</svg>

