<?xml version="1.0" encoding="UTF-8" standalone="no"?> <svg version="1.1" id="I6c539a333c4d4a29b55314183d1a75d920251106112458" width="100" height="100" viewBox="0 0 100 100" xmlns="http://www.w3.org/2000/svg" xmlns:svg="http://www.w3.org/2000/svg"> <defs id="I15d2b391e49447de853e06e8dc98f5b020251106112458" /> <g id="Id1428f871a8547008ea3d3d5ac05459020251106112458"> <path id="I3c0288c64e0447d6a364da6124c260d620251106112458" d="M 66.621,59.934 H 8.379 c -0.375,0 -0.68,0.3 -0.68,0.668 v 5.023 c 0,0.367 0.305,0.668 0.68,0.668 h 58.242 c 0.375,0 0.68,-0.301 0.68,-0.668 v -5.023 c 0,-0.368 -0.305,-0.668 -0.68,-0.668 z M 36.973,50.641 c 0.269,0.343 0.785,0.343 1.054,0 l 9.375,-11.86 c 0.344,-0.437 0.036,-1.082 -0.527,-1.082 H 40.672 V 9.375 c 0,-0.367 -0.301,-0.668 -0.668,-0.668 H 34.98 c -0.367,0 -0.668,0.301 -0.668,0.668 v 28.316 h -6.187 c -0.563,0 -0.871,0.645 -0.527,1.082 z" style="fill:currentColor;fill-opacity:1;fill-rule:nonzero;stroke:none" transform="scale(1.3333333)" /> </g>
</svg>

