<?xml version="1.0" encoding="UTF-8" standalone="no"?> <svg version="1.1" id="I3cb759d17f4745299a875d7228c2849920251106143238" width="100" height="100" viewBox="0 0 100 100" xmlns="http://www.w3.org/2000/svg" xmlns:svg="http://www.w3.org/2000/svg"> <defs id="Ia0789d0da0ae44a7af24ce8aa91bb8fd20251106143238" /> <g id="Ia6a67f86806e4e0c934be89a2b3726f820251106143238"> <path id="I827bc7c605044b8daae4224fc9b3734420251106143238" d="m 66.965,58.258 c 0,4.808 -3.899,8.707 -8.707,8.707 H 16.742 c -4.808,0 -8.707,-3.899 -8.707,-8.707 V 25.445 h 58.93 z M 50.973,35.41 c -0.782,-0.785 -2.055,-0.785 -2.84,0 L 33.48,50.062 26.867,43.445 26.715,43.309 c -0.789,-0.645 -1.953,-0.598 -2.688,0.136 -0.785,0.785 -0.785,2.059 0,2.84 l 8.035,8.035 c 0.786,0.785 2.055,0.785 2.84,0 L 50.973,38.25 c 0.785,-0.785 0.785,-2.055 0,-2.84 z M 58.258,8.035 c 4.808,0 8.707,3.899 8.707,8.707 V 21.43 H 8.035 v -4.688 c 0,-4.808 3.899,-8.707 8.707,-8.707 z" style="fill:currentColor;fill-opacity:1;fill-rule:nonzero;stroke:none" transform="scale(1.3333333)" /> </g>
</svg>

