<?xml version="1.0" encoding="UTF-8" standalone="no"?> <svg version="1.1" id="I37c5b50085144a86a0d87353fda8ad2a20251106112235" width="100" height="100" viewBox="0 0 100 100" xmlns="http://www.w3.org/2000/svg" xmlns:svg="http://www.w3.org/2000/svg"> <defs id="I36c6bc388fc749e78facf9e38d2830a720251106112235" /> <g id="I77b0b64190ef4b9784b8cc3e88e6f2bc20251106112235"> <path id="I1bfa8afc9ed4437cbf1818fe36ccd51420251106112235" d="m 6.84,57.59 c 0.168,0 0.336,-0.016 0.5,-0.043 l 14.082,-2.469 c 0.164,-0.035 0.324,-0.109 0.441,-0.234 L 57.348,19.363 c 0.324,-0.324 0.324,-0.851 0,-1.175 L 43.434,4.262 C 43.277,4.102 43.066,4.02 42.844,4.02 42.617,4.02 42.41,4.102 42.25,4.262 L 6.766,39.738 C 6.641,39.867 6.562,40.016 6.531,40.184 L 4.062,54.258 c -0.167,0.91 0.129,1.844 0.786,2.496 0.55,0.543 1.25,0.836 1.992,0.836 m 4.332,-7.152 1.308,-7.442 30.36,-30.359 6.137,6.133 -30.36,30.359 z M 44.77,42.18 c 2.316,-1.239 4.792,-1.742 7.16,-1.297 2.707,0.508 4.996,2.219 6.609,4.972 2.508,4.286 1.809,8.567 -1.547,12.075 -1.472,1.535 -3.437,2.929 -5.859,4.211 l -0.028,0.011 0.075,0.024 c 1.129,0.336 2.297,0.512 3.476,0.515 l 0.098,0.004 c 5.113,0 8.453,-1.851 10.484,-5.683 1.887,-3.547 7.211,-0.723 5.324,2.828 -3.121,5.879 -8.546,8.883 -15.808,8.883 -3.992,0 -7.695,-1.258 -10.731,-3.461 l -0.089,-0.067 -0.114,0.039 c -3.863,1.34 -8.265,2.508 -13.004,3.512 l -0.187,0.039 c -3.856,0.809 -7.742,1.477 -11.649,2.004 -3.984,0.531 -4.777,-5.445 -0.796,-5.973 3.757,-0.507 7.496,-1.152 11.203,-1.929 3.586,-0.754 6.949,-1.602 9.992,-2.539 l 0.019,-0.008 -0.035,-0.059 c -1.379,-2.215 -2.168,-4.64 -2.191,-6.965 v -0.109 c 0,-4.18 3.312,-8.734 7.598,-11.023 m 6.039,4.621 c -0.899,-0.168 -2.016,0.058 -3.2,0.691 -2.472,1.324 -4.41,3.988 -4.41,5.711 0,1.523 0.746,3.359 2.067,5 l 0.023,0.023 0.102,-0.042 c 3.277,-1.387 5.73,-2.868 7.191,-4.368 l 0.055,-0.058 c 1.566,-1.637 1.789,-3 0.699,-4.864 -0.758,-1.293 -1.594,-1.918 -2.527,-2.093" style="fill:currentColor;fill-opacity:1;fill-rule:evenodd;stroke:none" transform="scale(1.3333333)" /> </g>
</svg>

