<?xml version="1.0" encoding="UTF-8" standalone="no"?> <svg version="1.1" id="Ib34f54780bcd4312b392f37cddb6587720251106103256" width="100" height="100" viewBox="0 0 100 100" xmlns="http://www.w3.org/2000/svg" xmlns:svg="http://www.w3.org/2000/svg"> <defs id="I04d0a0304b8b45a49fc96b9fa39ac6d720251106103256" /> <g id="I878e99207f2640b4963361948b9e6fee20251106103256"> <path id="I2156662386de4d2c814038d9e7acdb7620251106103256" d="m 21.762,50.391 c 0,5.355 8.039,5.355 8.039,0 0,-5.356 -8.039,-5.356 -8.039,0 z M 73.383,24.477 50.523,1.605 C 49.488,0.578 48.105,0 46.633,0 45.16,0 43.777,0.57 42.738,1.605 L 1.617,42.73 c -2.152,2.153 -2.152,5.641 0,7.793 L 24.484,73.395 C 25.512,74.422 26.902,75 28.375,75 29.848,75 31.23,74.43 32.27,73.395 L 73.395,32.27 c 2.14,-2.153 2.14,-5.653 -0.012,-7.793 z M 28.375,68.312 6.688,46.625 46.633,6.68 68.312,28.375 Z M 7.434,25.922 c 0.257,0.262 0.679,0.262 0.937,0 L 25.922,8.371 c 0.262,-0.258 0.262,-0.68 0,-0.937 L 22.711,4.219 c -0.262,-0.262 -0.68,-0.262 -0.938,0 L 4.211,21.754 c -0.262,0.258 -0.262,0.68 0,0.937 z m 60.148,23.156 c -0.258,-0.262 -0.676,-0.262 -0.937,0 L 49.078,66.637 c -0.262,0.258 -0.262,0.679 0,0.937 l 3.211,3.215 c 0.262,0.262 0.68,0.262 0.938,0 L 70.789,53.238 c 0.262,-0.261 0.262,-0.679 0,-0.937 z" style="fill:currentColor;fill-opacity:1;fill-rule:nonzero;stroke:none" transform="scale(1.3333333)" /> </g>
</svg>

