<?xml version="1.0" encoding="UTF-8" standalone="no"?> <svg version="1.1" id="I089aa2ef1a7542f2babc7cb6c1e3f5f220251106163937" width="100" height="100" viewBox="0 0 100 100" xmlns="http://www.w3.org/2000/svg" xmlns:svg="http://www.w3.org/2000/svg"> <defs id="I39bd7259ca094c0b9be82d1c5241a5ea20251106163937" /> <g id="Ie7477222c1bd4636a10b09d7c09178b620251106163937"> <path id="I5356c8915c3140018864884e54b41c9120251106163937" d="M 4.688,19.922 C 4.688,14.098 9.41,9.375 15.234,9.375 h 44.532 c 5.824,0 10.546,4.723 10.546,10.547 v 35.156 c 0,5.824 -4.722,10.547 -10.546,10.547 H 15.234 C 9.41,65.625 4.688,60.902 4.688,55.078 Z m 53.906,1.172 v 4.687 c 0,1.293 1.051,2.344 2.344,2.344 1.292,0 2.343,-1.051 2.343,-2.344 v -4.687 c 0,-1.293 -1.051,-2.344 -2.343,-2.344 -1.293,0 -2.344,1.051 -2.344,2.344 z m 2.344,11.718 c -1.293,0 -2.344,1.051 -2.344,2.344 v 4.688 c 0,1.293 1.051,2.344 2.344,2.344 1.292,0 2.343,-1.051 2.343,-2.344 v -4.688 c 0,-1.293 -1.051,-2.344 -2.343,-2.344 z m -2.344,16.407 v 4.687 c 0,1.293 1.051,2.344 2.344,2.344 1.292,0 2.343,-1.051 2.343,-2.344 v -4.687 c 0,-1.293 -1.051,-2.344 -2.343,-2.344 -1.293,0 -2.344,1.051 -2.344,2.344 z M 14.062,18.75 c -1.292,0 -2.343,1.051 -2.343,2.344 v 4.687 c 0,1.293 1.051,2.344 2.343,2.344 1.293,0 2.344,-1.051 2.344,-2.344 v -4.687 c 0,-1.293 -1.051,-2.344 -2.344,-2.344 z m -2.343,16.406 v 4.688 c 0,1.293 1.051,2.344 2.343,2.344 1.293,0 2.344,-1.051 2.344,-2.344 v -4.688 c 0,-1.293 -1.051,-2.344 -2.344,-2.344 -1.292,0 -2.343,1.051 -2.343,2.344 z m 2.343,11.719 c -1.292,0 -2.343,1.051 -2.343,2.344 v 4.687 c 0,1.293 1.051,2.344 2.343,2.344 1.293,0 2.344,-1.051 2.344,-2.344 v -4.687 c 0,-1.293 -1.051,-2.344 -2.344,-2.344 z" style="fill:currentColor;fill-opacity:1;fill-rule:nonzero;stroke:none" transform="scale(1.3333333)" /> </g>
</svg>

