<?xml version="1.0" encoding="UTF-8" standalone="no"?> <svg version="1.1" id="Id6fe11147f534898872c30255dbd2c0720251106165302" width="100" height="100" viewBox="0 0 100 100" xmlns="http://www.w3.org/2000/svg" xmlns:svg="http://www.w3.org/2000/svg"> <defs id="If7de7a17a5d24ee89ff3a444cb3a4d7220251106165302" /> <g id="Ic74dd971f4e74906a36751161089b0e420251106165302"> <path id="If95c7c21334a468fbd3d82c0d047d01b20251106165302" d="M 37.5,20.312 C 37.5,10.82 29.805,3.125 20.312,3.125 10.82,3.125 3.125,10.82 3.125,20.312 3.125,29.805 10.82,37.5 20.312,37.5 29.805,37.5 37.5,29.805 37.5,20.312 Z m -25,-9.374 v 1.722 c 1.984,-2.027 4.754,-3.285 7.816,-3.285 6.039,0 10.938,4.898 10.938,10.937 0,6.04 -4.899,10.938 -10.938,10.938 -3.375,0 -6.394,-1.527 -8.398,-3.93 C 11.094,26.336 11.91,25 13.191,25 c 0.551,0 1.059,0.266 1.434,0.668 1.426,1.512 3.445,2.457 5.691,2.457 4.313,0 7.813,-3.496 7.813,-7.813 0,-4.316 -3.5,-7.812 -7.813,-7.812 -2.558,0 -4.828,1.227 -6.254,3.125 h 3.126 c 0.863,0 1.562,0.699 1.562,1.563 0,0.863 -0.699,1.562 -1.562,1.562 h -6.25 c -0.864,0 -1.563,-0.699 -1.563,-1.562 v -6.25 c 0,-0.864 0.699,-1.563 1.563,-1.563 0.863,0 1.562,0.699 1.562,1.563 z m 42.199,17.976 c 0,-1.301 -1.051,-2.352 -2.347,-2.352 -1.301,0 -2.352,1.051 -2.352,2.352 0,1.297 1.051,2.348 2.352,2.348 1.296,0 2.347,-1.051 2.347,-2.348 z M 40.625,20.312 c 0,11.219 -9.094,20.313 -20.313,20.313 -2.769,0 -5.406,-0.555 -7.812,-1.559 v 19.528 c 0,1.961 0.555,3.789 1.516,5.34 l 21.683,-21.286 0.422,-0.382 c 2.609,-2.18 6.426,-2.176 9.027,0.015 l 0.403,0.367 21.683,21.286 c 0.961,-1.551 1.516,-3.379 1.516,-5.34 V 22.656 C 68.75,17.047 64.203,12.5 58.594,12.5 H 39.066 c 1.004,2.406 1.559,5.043 1.559,7.812 z m 4.687,8.602 c 0,-3.887 3.153,-7.039 7.04,-7.039 3.886,0 7.035,3.152 7.035,7.039 0,3.887 -3.149,7.035 -7.035,7.035 -3.887,0 -7.04,-3.148 -7.04,-7.035 z m -6.328,17.078 0.262,-0.219 c 0.809,-0.593 1.91,-0.601 2.731,-0.023 l 0.289,0.242 21.648,21.254 c -1.547,0.953 -3.367,1.504 -5.32,1.504 H 22.656 c -1.953,0 -3.773,-0.551 -5.32,-1.504 z" style="fill:currentColor;fill-opacity:1;fill-rule:nonzero;stroke:none" transform="scale(1.3333333)" /> </g>
</svg>

