<?xml version="1.0" encoding="UTF-8" standalone="no"?> <svg version="1.1" id="I4e22a7e1e8334a2ea58411bb18e1cc3920251110130510" width="100" height="100" viewBox="0 0 100 100" xmlns="http://www.w3.org/2000/svg" xmlns:svg="http://www.w3.org/2000/svg"> <defs id="I1ae0ea93ecb84addb86860399d5391f320251110130510" /> <g id="I89faba3172334ca99f49ccba5c07c61520251110130510"> <path id="I7d019d6f353b4389a608c392df0d46bd20251110130510" d="m 17.969,9.375 c -4.746,0 -8.594,3.848 -8.594,8.594 v 39.062 c 0,4.746 3.848,8.594 8.594,8.594 h 39.062 c 4.746,0 8.594,-3.848 8.594,-8.594 V 17.969 c 0,-4.746 -3.848,-8.594 -8.594,-8.594 z m -3.907,8.594 c 0,-2.157 1.75,-3.907 3.907,-3.907 h 39.062 c 2.157,0 3.907,1.75 3.907,3.907 v 39.062 c 0,2.157 -1.75,3.907 -3.907,3.907 H 17.969 c -2.157,0 -3.907,-1.75 -3.907,-3.907 z m 8.594,3.906 c -1.293,0 -2.344,1.051 -2.344,2.344 0,1.293 1.051,2.343 2.344,2.343 h 29.688 c 1.293,0 2.344,-1.05 2.344,-2.343 0,-1.293 -1.051,-2.344 -2.344,-2.344 z m 6.25,12.5 c -1.293,0 -2.344,1.051 -2.344,2.344 0,1.293 1.051,2.343 2.344,2.343 h 17.188 c 1.293,0 2.344,-1.05 2.344,-2.343 0,-1.293 -1.051,-2.344 -2.344,-2.344 z" style="fill:currentColor;fill-opacity:1;fill-rule:nonzero;stroke:none" transform="scale(1.3333333)" /> </g>
</svg>

