<?xml version="1.0" encoding="UTF-8" standalone="no"?> <svg version="1.1" id="Ic155530fecf747fda6813923c267afdb20251106165302" width="100" height="100" viewBox="0 0 100 100" xmlns="http://www.w3.org/2000/svg" xmlns:svg="http://www.w3.org/2000/svg"> <defs id="I1d51a79d88be425c8d2e7ea12bf5333c20251106165302" /> <g id="I018592671e874f99b49452c4d248cb9920251106165302"> <path id="Ibd711ed7d1e849cf99900f028e50069220251106165302" d="M 17.41,8.059 C 12.398,8.387 8.387,12.398 8.059,17.41 H 17.41 Z M 8.035,21.43 V 53.57 H 17.41 V 21.43 Z M 21.43,17.41 H 53.57 V 8.035 H 21.43 Z M 57.59,8.059 v 9.351 h 9.351 C 66.613,12.398 62.602,8.387 57.59,8.059 Z M 66.965,21.43 H 57.59 v 32.14 h 9.375 z M 66.941,57.59 H 57.59 v 9.351 c 5.012,-0.328 9.023,-4.339 9.351,-9.351 z M 53.57,66.965 V 57.59 H 21.43 v 9.375 z M 17.41,66.941 V 57.59 H 8.059 c 0.328,5.012 4.339,9.023 9.351,9.351 z M 21.43,51.352 33.711,39.07 c 2.094,-2.093 5.484,-2.093 7.578,0 L 53.57,51.352 V 21.43 H 21.43 Z M 41.52,29.465 c 0,-2.219 1.796,-4.02 4.015,-4.02 2.219,0 4.02,1.801 4.02,4.02 0,2.219 -1.801,4.015 -4.02,4.015 -2.219,0 -4.015,-1.796 -4.015,-4.015 z M 50.109,53.57 38.445,41.91 c -0.519,-0.523 -1.371,-0.523 -1.89,0 L 24.891,53.57 Z" style="fill:currentColor;fill-opacity:1;fill-rule:nonzero;stroke:none" transform="scale(1.3333333)" /> </g>
</svg>

