<?xml version="1.0" encoding="UTF-8" standalone="no"?> <svg version="1.1" id="Ib787f629346447cbb057a85108c231e120251110124420" width="100" height="100" viewBox="0 0 100 100" xmlns="http://www.w3.org/2000/svg" xmlns:svg="http://www.w3.org/2000/svg"> <defs id="I4a49e96ab2a24a4c84659d9570e6681520251110124420" /> <g id="I61cdab05501f4ec8a6de17e00c05339020251110124420"> <path id="Ic6b608a7e71d40b8a5585ac69e0b21b420251110124420" d="m 41.43,23.273 -3.141,-6.378 c -0.324,-0.653 -1.254,-0.653 -1.578,0 l -3.141,6.378 -7.035,1.016 c -0.723,0.106 -1.008,0.992 -0.488,1.5 l 5.098,4.957 -1.211,7.008 c -0.122,0.719 0.632,1.266 1.277,0.926 l 6.289,-3.313 6.289,3.313 c 0.645,0.34 1.399,-0.207 1.277,-0.926 l -1.203,-7.008 5.09,-4.957 c 0.52,-0.508 0.235,-1.394 -0.488,-1.5 z M 14.062,28.125 C 14.062,15.18 24.555,4.688 37.5,4.688 c 12.945,0 23.438,10.492 23.438,23.437 0,7.668 -3.684,14.477 -9.376,18.75 v 21.094 c 0,0.843 -0.453,1.625 -1.187,2.039 -0.734,0.418 -1.637,0.406 -2.363,-0.028 L 37.5,63.672 26.988,69.98 c -0.726,0.434 -1.629,0.446 -2.363,0.028 -0.734,-0.414 -1.187,-1.196 -1.187,-2.039 V 46.875 C 17.746,42.602 14.062,35.793 14.062,28.125 Z M 37.5,9.375 c -10.355,0 -18.75,8.395 -18.75,18.75 0,10.355 8.395,18.75 18.75,18.75 10.355,0 18.75,-8.395 18.75,-18.75 0,-10.355 -8.395,-18.75 -18.75,-18.75 z m 9.375,54.453 V 49.613 c -2.871,1.254 -6.043,1.949 -9.375,1.949 -3.332,0 -6.504,-0.695 -9.375,-1.949 v 14.215 l 8.168,-4.898 c 0.742,-0.446 1.672,-0.446 2.414,0 z" style="fill:currentColor;fill-opacity:1;fill-rule:nonzero;stroke:none" transform="scale(1.3333333)" /> </g>
</svg>

