<?xml version="1.0" encoding="UTF-8" standalone="no"?> <svg version="1.1" id="If8ca49bf651142a5857393099fa6926520251110135155" width="100" height="100" viewBox="0 0 100 100" xmlns="http://www.w3.org/2000/svg" xmlns:svg="http://www.w3.org/2000/svg"> <defs id="I770d5f2c25fb4894b934fa742f84562220251110135155" /> <g id="Ia7f8b3d741c6481eaddee11516ee8bcf20251110135155"> <path id="Ic7b17c20f9904ba58abb7d9d6fb0b91620251110135155" d="m 46.418,19.207 c 0.262,0.262 0.508,0.539 0.734,0.832 0.614,0.793 1.09,1.691 1.407,2.649 l 1.398,4.304 c 0.117,0.332 0.336,0.617 0.621,0.82 0.289,0.204 0.633,0.313 0.984,0.313 0.352,0 0.696,-0.109 0.985,-0.313 0.254,-0.179 0.453,-0.429 0.578,-0.714 0.016,-0.036 0.027,-0.071 0.043,-0.106 l 1.398,-4.304 c 0.434,-1.309 1.168,-2.497 2.145,-3.469 0.977,-0.977 2.164,-1.711 3.473,-2.145 l 4.304,-1.398 c 0.332,-0.117 0.621,-0.332 0.824,-0.621 0.204,-0.285 0.313,-0.629 0.313,-0.981 0,-0.351 -0.109,-0.695 -0.313,-0.984 -0.203,-0.285 -0.492,-0.504 -0.824,-0.621 l -0.086,-0.02 -4.304,-1.398 C 58.789,10.617 57.602,9.883 56.625,8.906 55.648,7.934 54.914,6.746 54.48,5.438 L 53.082,1.133 C 52.965,0.801 52.746,0.516 52.457,0.312 52.172,0.109 51.828,0 51.477,0 51.125,0 50.781,0.109 50.492,0.312 50.207,0.516 49.988,0.801 49.871,1.133 l -1.398,4.305 -0.035,0.105 c -0.43,1.258 -1.137,2.402 -2.071,3.348 -0.961,0.976 -2.133,1.714 -3.426,2.16 l -4.304,1.398 c -0.332,0.117 -0.621,0.332 -0.825,0.621 -0.203,0.285 -0.312,0.629 -0.312,0.981 0,0.351 0.109,0.695 0.312,0.984 0.204,0.285 0.493,0.504 0.825,0.621 l 4.304,1.395 c 1.309,0.437 2.5,1.176 3.477,2.156 z m 22.387,11.934 2.39,0.777 0.051,0.012 c 0.184,0.062 0.344,0.183 0.457,0.343 0.109,0.161 0.172,0.352 0.172,0.547 0,0.196 -0.063,0.383 -0.172,0.543 -0.113,0.16 -0.273,0.282 -0.457,0.344 l -2.394,0.777 c -0.727,0.243 -1.387,0.653 -1.93,1.192 -0.543,0.543 -0.949,1.203 -1.192,1.929 l -0.777,2.391 c -0.066,0.184 -0.183,0.344 -0.344,0.457 -0.16,0.109 -0.351,0.172 -0.547,0.172 -0.195,0 -0.386,-0.063 -0.546,-0.172 C 63.355,40.34 63.238,40.18 63.172,39.996 L 62.395,37.605 C 62.152,36.875 61.746,36.215 61.203,35.668 60.664,35.125 60,34.715 59.273,34.473 L 56.879,33.695 C 56.695,33.633 56.535,33.512 56.422,33.352 56.312,33.191 56.25,33 56.25,32.805 c 0,-0.196 0.062,-0.383 0.172,-0.543 0.113,-0.16 0.273,-0.282 0.457,-0.344 l 2.394,-0.777 c 0.719,-0.25 1.368,-0.661 1.903,-1.2 0.531,-0.543 0.933,-1.199 1.172,-1.921 l 0.777,-2.391 c 0.063,-0.184 0.184,-0.344 0.344,-0.457 0.16,-0.11 0.351,-0.172 0.547,-0.172 0.195,0 0.386,0.062 0.543,0.172 0.16,0.113 0.281,0.273 0.347,0.457 l 0.778,2.391 c 0.242,0.726 0.648,1.386 1.191,1.929 0.543,0.539 1.203,0.949 1.93,1.192 z M 37.5,7.812 c 1.066,0 2.094,0.215 3.039,0.614 l -2.883,0.945 c -1.953,0.699 -3.277,2.512 -3.281,4.594 0,0.281 0.027,0.562 0.078,0.84 L 21.266,45.582 c -0.02,0.043 -0.039,0.086 -0.059,0.129 l -5.328,12.434 c -0.68,1.585 0.055,3.421 1.641,4.101 1.585,0.68 3.425,-0.055 4.105,-1.641 L 26.168,50 h 22.668 l 4.543,10.605 c 0.68,1.586 2.519,2.321 4.105,1.641 1.586,-0.68 2.321,-2.516 1.641,-4.101 L 53.797,45.711 c -0.02,-0.043 -0.039,-0.086 -0.059,-0.129 L 46.75,29.266 c 0.797,0.73 1.656,1.3 2.586,1.644 0.641,0.317 1.355,0.492 2.102,0.492 0.425,0.008 0.847,-0.05 1.257,-0.16 l 0.387,0.903 C 53.027,32.414 53,32.688 53,32.965 c -0.012,1.383 0.758,2.699 1.91,3.445 l 3.098,7.231 c 0.047,0.105 0.094,0.214 0.14,0.324 l 5.286,12.332 c 1.699,3.965 -0.137,8.558 -4.106,10.258 -3.965,1.699 -8.558,-0.137 -10.258,-4.102 l -3.328,-7.765 h -16.48 l -3.328,7.765 c -1.7,3.965 -6.293,5.801 -10.258,4.102 -3.969,-1.7 -5.805,-6.289 -4.106,-10.258 l 5.285,-12.332 c 0.047,-0.11 0.094,-0.219 0.141,-0.324 L 30.32,12.547 C 31.551,9.676 34.375,7.812 37.5,7.812 Z M 46.156,43.75 H 28.848 L 37.5,23.559 Z" style="fill:currentColor;fill-opacity:1;fill-rule:nonzero;stroke:none" transform="scale(1.3333333)" /> </g>
</svg>

