<?xml version="1.0" encoding="UTF-8" standalone="no"?> <svg version="1.1" id="Ib48df8bb34ff4e659d2331b9b153982220251106154012" width="100" height="100" viewBox="0 0 100 100" xmlns="http://www.w3.org/2000/svg" xmlns:svg="http://www.w3.org/2000/svg"> <defs id="I7d507d9a009e432fa416f9290fc4ef5c20251106154012" /> <g id="Iba7c34e68a8d4873aa6fe3ec1ef2d52e20251106154012"> <path id="Ia7fca962f7a34536ac06e9bbb034103b20251106154012" d="M 63.281,16.406 C 63.281,9.934 51.738,4.688 37.5,4.688 23.262,4.688 11.719,9.934 11.719,16.406 v 42.188 c 0,6.472 11.543,11.718 25.781,11.718 14.238,0 25.781,-5.246 25.781,-11.718 z m -4.687,0 c 0,0.266 -0.453,2.043 -4.805,4.02 -3.926,1.785 -9.68,3.012 -16.289,3.012 -6.609,0 -12.363,-1.227 -16.289,-3.012 -4.352,-1.977 -4.805,-3.754 -4.805,-4.02 0,-0.265 0.453,-2.043 4.805,-4.019 3.926,-1.785 9.68,-3.012 16.289,-3.012 6.609,0 12.363,1.227 16.289,3.012 4.352,1.976 4.805,3.754 4.805,4.019 z m 0,6.739 v 35.449 c 0,0.269 -0.453,2.043 -4.805,4.019 -3.926,1.785 -9.68,3.012 -16.289,3.012 -6.609,0 -12.363,-1.227 -16.289,-3.012 -4.352,-1.976 -4.805,-3.75 -4.805,-4.019 V 23.145 c 4.664,3.011 12.375,4.98 21.094,4.98 8.719,0 16.43,-1.969 21.094,-4.98 z" style="fill:currentColor;fill-opacity:1;fill-rule:nonzero;stroke:none" transform="scale(1.3333333)" /> </g>
</svg>

