<?xml version="1.0" encoding="UTF-8" standalone="no"?> <svg version="1.1" id="I57cd7d35c67145f28997ced427683bfb20251106144521" width="100" height="100" viewBox="0 0 100 100" xmlns="http://www.w3.org/2000/svg" xmlns:svg="http://www.w3.org/2000/svg"> <defs id="I1af078f9a51242b4bbc9c09bd9bbcabf20251106144521" /> <g id="Ib24dbdf946734203a229c5b87f43b33d20251106144521"> <path id="I3050f0850a7d4fc2b83efbed603a1e6320251106144521" d="m 9.375,37.5 c 0,15.531 12.594,28.125 28.125,28.125 15.531,0 28.125,-12.594 28.125,-28.125 C 65.625,21.969 53.031,9.375 37.5,9.375 21.969,9.375 9.375,21.969 9.375,37.5 Z M 37.5,69.645 C 19.746,69.645 5.355,55.254 5.355,37.5 5.355,19.746 19.746,5.355 37.5,5.355 c 17.754,0 32.145,14.391 32.145,32.145 0,17.754 -14.391,32.145 -32.145,32.145 z m -13.312,-24.7 c -0.786,0.785 -2.055,0.785 -2.84,0 -0.786,-0.781 -0.786,-2.054 0,-2.84 l 14.73,-14.73 c 0.785,-0.785 2.059,-0.785 2.844,0 l 14.73,14.73 c 0.786,0.786 0.786,2.059 0,2.84 -0.785,0.785 -2.054,0.785 -2.84,0 L 37.5,31.637 Z" style="fill:currentColor;fill-opacity:1;fill-rule:nonzero;stroke:none" transform="scale(1.3333333)" /> </g>
</svg>

