<?xml version="1.0" encoding="UTF-8" standalone="no"?> <svg version="1.1" id="I20eaae363686457a947c50591220c8eb20251106152728" width="100" height="100" viewBox="0 0 100 100" xmlns="http://www.w3.org/2000/svg" xmlns:svg="http://www.w3.org/2000/svg"> <defs id="I5378544380884ec6934cd15040bde48820251106152728" /> <g id="I11b4039012f241189bfd8538b3dc1bca20251106152728"> <path id="Ia708cac4cffd496fa66dcf4a0abb64db20251106152728" d="M 9.375,18.75 C 8.34,18.75 7.5,19.59 7.5,20.625 7.5,21.66 8.34,22.5 9.375,22.5 H 30 c 1.035,0 1.875,-0.84 1.875,-1.875 0,-1.035 -0.84,-1.875 -1.875,-1.875 z M 20.625,30 c -1.035,0 -1.875,0.84 -1.875,1.875 0,1.035 0.84,1.875 1.875,1.875 h 18.75 c 1.035,0 1.875,-0.84 1.875,-1.875 C 41.25,30.84 40.41,30 39.375,30 Z M 15,43.125 c 0,-1.035 0.84,-1.875 1.875,-1.875 h 37.5 c 1.035,0 1.875,0.84 1.875,1.875 0,1.035 -0.84,1.875 -1.875,1.875 h -37.5 C 15.84,45 15,44.16 15,43.125 Z M 9.375,52.5 C 8.34,52.5 7.5,53.34 7.5,54.375 7.5,55.41 8.34,56.25 9.375,56.25 H 41.25 c 1.035,0 1.875,-0.84 1.875,-1.875 0,-1.035 -0.84,-1.875 -1.875,-1.875 z m 37.5,-20.625 C 46.875,30.84 47.715,30 48.75,30 h 13.125 c 1.035,0 1.875,0.84 1.875,1.875 0,1.035 -0.84,1.875 -1.875,1.875 H 48.75 c -1.035,0 -1.875,-0.84 -1.875,-1.875 z m -7.5,-13.125 c -1.035,0 -1.875,0.84 -1.875,1.875 0,1.035 0.84,1.875 1.875,1.875 h 26.25 c 1.035,0 1.875,-0.84 1.875,-1.875 0,-1.035 -0.84,-1.875 -1.875,-1.875 z" style="fill:currentColor;fill-opacity:1;fill-rule:nonzero;stroke:none" transform="scale(1.3333333)" /> </g>
</svg>

