<?xml version="1.0" encoding="UTF-8" standalone="no"?> <svg version="1.1" id="I593fa38f5f8246a09686341d6a63c1e420251106132946" width="100" height="100" viewBox="0 0 100 100" xmlns="http://www.w3.org/2000/svg" xmlns:svg="http://www.w3.org/2000/svg"> <defs id="If790e3f3f6ca4858a28809e20292b8cb20251106132946" /> <g id="I24ba2ea6eca6414cad5e9a6cdfbd0aae20251106132946"> <path id="I7d0abe5cbd374269b2622b8e8d2d314c20251106132946" d="m 12.055,15.402 c 0,-4.808 3.894,-8.707 8.703,-8.707 h 33.484 c 4.809,0 8.703,3.899 8.703,8.707 v 42.856 c 0,1.109 -0.898,2.012 -2.007,2.012 H 16.117 c 0.328,2.269 2.281,4.015 4.641,4.015 h 40.18 c 1.109,0 2.007,0.899 2.007,2.008 0,1.109 -0.898,2.012 -2.007,2.012 h -40.18 c -4.809,0 -8.703,-3.899 -8.703,-8.707 z m 9.375,4.016 v 2.68 c 0,1.851 1.496,3.347 3.347,3.347 h 25.446 c 1.851,0 3.347,-1.496 3.347,-3.347 v -2.68 c 0,-1.848 -1.496,-3.348 -3.347,-3.348 H 24.777 c -1.851,0 -3.347,1.5 -3.347,3.348 z" style="fill:currentColor;fill-opacity:1;fill-rule:nonzero;stroke:none" transform="scale(1.3333333)" /> </g>
</svg>

