<?xml version="1.0" encoding="UTF-8" standalone="no"?> <svg version="1.1" id="Ife4d8b298a8f4f988c27a1d5a8bb411720251106170412" width="100" height="100" viewBox="0 0 100 100" xmlns="http://www.w3.org/2000/svg" xmlns:svg="http://www.w3.org/2000/svg"> <defs id="I226b2870ecd5484eb8b833656ea5b05d20251106170412" /> <g id="If86927cf045444b2b30fffce836af27b20251106170412"> <path id="I6d0b922c727e42929aebc83a2a531ac920251106170412" d="m 34.492,9.523 c 2.121,-1.398 5.008,-1.164 6.875,0.704 l 11.598,11.597 c 8.543,8.539 8.543,22.391 0,30.93 -0.457,0.461 -0.934,0.894 -1.422,1.305 -1.219,1.023 -2.527,1.894 -3.891,2.609 -2.461,1.289 -5.113,2.078 -7.808,2.367 v 7.371 c 0,1.293 -1.051,2.344 -2.344,2.344 -1.293,0 -2.344,-1.051 -2.344,-2.344 V 59.035 C 30.363,58.52 25.707,56.43 22.035,52.754 c -8.543,-8.539 -8.543,-22.387 0,-30.93 L 33.633,10.227 c 0.265,-0.27 0.555,-0.5 0.859,-0.704 z M 37.5,34.375 c -1.293,0 -2.344,1.047 -2.344,2.344 v 17.593 c 1.555,0.215 3.133,0.215 4.688,0 V 36.719 c 0,-1.297 -1.051,-2.344 -2.344,-2.344 z" style="fill:currentColor;fill-opacity:1;fill-rule:nonzero;stroke:none" transform="scale(1.3333333)" /> </g>
</svg>

