<?xml version="1.0" encoding="UTF-8" standalone="no"?> <svg version="1.1" id="I7ecade59de64490ab6466ae0222a660620251106170412" width="100" height="100" viewBox="0 0 100 100" xmlns="http://www.w3.org/2000/svg" xmlns:svg="http://www.w3.org/2000/svg"> <defs id="I02475f095a68471987ea49caa8169e0b20251106170412" /> <g id="I0d095ab2a7c840ab87116f985d5455d020251106170412"> <path id="I44962d5d03374f8dbcfecd06ac29053f20251106170412" d="m 8.594,21.875 c -1.293,0 -2.344,1.051 -2.344,2.344 0,1.293 1.051,2.343 2.344,2.343 h 10.937 c 1.293,0 2.344,-1.05 2.344,-2.343 0,-1.293 -1.051,-2.344 -2.344,-2.344 z m 23.437,0 c -1.293,0 -2.343,1.051 -2.343,2.344 0,1.293 1.05,2.343 2.343,2.343 h 10.938 c 1.293,0 2.343,-1.05 2.343,-2.343 0,-1.293 -1.05,-2.344 -2.343,-2.344 z m 23.438,0 c -1.293,0 -2.344,1.051 -2.344,2.344 0,1.293 1.051,2.343 2.344,2.343 h 10.937 c 1.293,0 2.344,-1.05 2.344,-2.343 0,-1.293 -1.051,-2.344 -2.344,-2.344 z m -46.875,25 c -1.293,0 -2.344,1.051 -2.344,2.344 0,1.293 1.051,2.343 2.344,2.343 h 57.812 c 1.293,0 2.344,-1.05 2.344,-2.343 0,-1.293 -1.051,-2.344 -2.344,-2.344 z" style="fill:currentColor;fill-opacity:1;fill-rule:nonzero;stroke:none" transform="scale(1.3333333)" /> </g>
</svg>

