<?xml version="1.0" encoding="UTF-8" standalone="no"?> <svg version="1.1" id="Iff47ab0e65534310898d4e540e032ece20251106152729" width="100" height="100" viewBox="0 0 100 100" xmlns="http://www.w3.org/2000/svg" xmlns:svg="http://www.w3.org/2000/svg"> <defs id="I14da6e4b0e8445fb8395288fc6e2e75620251106152729" /> <g id="I2789f72114d64cda9696c77d4c65b59e20251106152729"> <path id="I8db81a8652714b129495bde3bbca2fc420251106152729" d="m 23.438,25 c 4.316,0 7.812,3.496 7.812,7.812 v 9.376 C 31.25,46.504 27.754,50 23.438,50 19.121,50 15.625,46.504 15.625,42.188 V 32.812 C 15.625,28.496 19.121,25 23.438,25 Z m 0,4.688 c -1.727,0 -3.126,1.398 -3.126,3.124 v 9.376 c 0,1.726 1.399,3.124 3.126,3.124 1.726,0 3.124,-1.398 3.124,-3.124 v -9.376 c 0,-1.726 -1.398,-3.124 -3.124,-3.124 z M 59.375,12.5 c 5.18,0 9.375,4.199 9.375,9.375 v 31.25 c 0,5.016 -3.938,9.113 -8.895,9.363 l -0.48,0.012 h -43.75 l -0.48,-0.012 C 10.188,62.238 6.25,58.141 6.25,53.125 v -31.25 c 0,-5.176 4.199,-9.375 9.375,-9.375 z m -43.75,4.688 c -2.59,0 -4.687,2.097 -4.687,4.687 v 31.25 c 0,2.59 2.097,4.687 4.687,4.687 H 35.156 V 17.188 Z M 39.844,57.812 H 51.562 V 47.746 c -0.539,0.242 -1.128,0.461 -1.777,0.621 -1.254,0.313 -2.527,-0.449 -2.84,-1.707 -0.312,-1.254 0.45,-2.527 1.707,-2.84 1.11,-0.277 1.957,-0.84 2.539,-1.347 0.286,-0.25 0.5,-0.481 0.629,-0.637 0.067,-0.074 0.11,-0.133 0.133,-0.164 l 0.024,-0.035 c 0.011,-0.016 0.027,-0.032 0.039,-0.047 0.586,-0.801 1.613,-1.152 2.57,-0.863 0.988,0.296 1.664,1.211 1.664,2.242 v 14.843 h 3.125 c 2.59,0 4.687,-2.097 4.687,-4.687 v -31.25 c 0,-2.59 -2.097,-4.687 -4.687,-4.687 v 6.25 c 0,4.316 -3.496,7.812 -7.813,7.812 -4.316,0 -7.812,-3.496 -7.812,-7.812 v -6.25 h -3.906 z m 8.594,-34.374 c 0,1.726 1.398,3.124 3.124,3.124 1.727,0 3.126,-1.398 3.126,-3.124 v -6.25 h -6.25 z" style="fill:currentColor;fill-opacity:1;fill-rule:nonzero;stroke:none" transform="scale(1.3333333)" /> </g>
</svg>

