<?xml version="1.0" encoding="UTF-8" standalone="no"?> <svg version="1.1" id="I0a96f6758b154ffd970d85d5e3610de420251106165301" width="100" height="100" viewBox="0 0 100 100" xmlns="http://www.w3.org/2000/svg" xmlns:svg="http://www.w3.org/2000/svg"> <defs id="I65206f5aad4547ccb2ce2b7f140369e920251106165301"> <linearGradient x1="10.25" y1="22.8333" x2="8.3772001" y2="16.771601" gradientUnits="userSpaceOnUse" gradientTransform="scale(2.678571)" spreadMethod="pad" id="Iaa78817fb25841e4a5b85ce77a8799dc20251106165301"> <stop style="stop-opacity:1;stop-color:#9ca5ad" offset="0" id="I9925bd3dd09243eeade9b129750b170220251106165301" /> <stop style="stop-opacity:1;stop-color:#70777d" offset="1" id="I88333f988778473ba98dec35e4f2472120251106165301" /> </linearGradient> <linearGradient x1="16.25" y1="25.25" x2="11.1675" y2="22.280899" gradientUnits="userSpaceOnUse" gradientTransform="scale(2.678571)" spreadMethod="pad" id="I6c3007a345ea4b40be881a5bf2686a2020251106165301"> <stop style="stop-opacity:1;stop-color:#383b3d" offset="0" id="I64b2de4e0769418aa8ec5a98ce8be94320251106165301" /> <stop style="stop-opacity:1;stop-color:#70777d" offset="1" id="I196f87a410ed48a599b3435169ee306e20251106165301" /> </linearGradient> <linearGradient x1="-1.42857" y1="2" x2="1.07292" y2="11.9217" gradientUnits="userSpaceOnUse" gradientTransform="scale(2.678571)" spreadMethod="pad" id="I0406c9c7a8944d7592149c18ac4d2d1c20251106165301"> <stop style="stop-opacity:1;stop-color:#b9c0c7" offset="0" id="I344020a7d06f425494a11ea4de68c95520251106165301" /> <stop style="stop-opacity:1;stop-color:#70777d" offset="1" id="I04c0bb9c46594e95ad5211aab394bec220251106165301" /> </linearGradient> <linearGradient x1="20.375" y1="11" x2="20.375" y2="19" gradientUnits="userSpaceOnUse" gradientTransform="scale(2.678571)" spreadMethod="pad" id="I95d66e3c248543b8aaf892efd9325dd320251106165301"> <stop style="stop-opacity:1;stop-color:#0fafff" offset="0" id="I158068e808334480a75c487ea4a25b2e20251106165301" /> <stop style="stop-opacity:1;stop-color:#0067bf" offset="1" id="Iec27e9432c6c4ae8a13ab2108064252420251106165301" /> </linearGradient> <linearGradient x1="20.375" y1="11" x2="20.375" y2="19" gradientUnits="userSpaceOnUse" gradientTransform="scale(2.678571)" spreadMethod="pad" id="Ida9f52c9251c41939a6e9215573394d120251106165301"> <stop style="stop-opacity:1;stop-color:#0fafff" offset="0" id="Ib530f904bedf4f498dd5fb8a44ee3ef020251106165301" /> <stop style="stop-opacity:1;stop-color:#0067bf" offset="1" id="I51c96c2bb7f04fbb8bda7ab156e661c220251106165301" /> </linearGradient> <linearGradient x1="21.5" y1="12" x2="20.617701" y2="18.886999" gradientUnits="userSpaceOnUse" gradientTransform="scale(2.678571)" spreadMethod="pad" id="I2a9a323ea6854ce786476816175424fc20251106165301"> <stop style="stop-opacity:1;stop-color:#0078d4" offset="0" id="Ic4a673083edc493b8a044883dc98a09720251106165301" /> <stop style="stop-opacity:1;stop-color:#2052cb" offset="1" id="I9d38444089ff4ec9b3b464f8d6298c6f20251106165301" /> </linearGradient> <linearGradient x1="21.5" y1="12" x2="20.617701" y2="18.886999" gradientUnits="userSpaceOnUse" gradientTransform="scale(2.678571)" spreadMethod="pad" id="I63bea49726624573af54d4eec2c309d820251106165301"> <stop style="stop-opacity:1;stop-color:#0078d4" offset="0" id="Ic989cb0f0f3245f29038855ca2aaa55920251106165301" /> <stop style="stop-opacity:1;stop-color:#2052cb" offset="1" id="I453dc1351adb4028aec3646fb19a4edd20251106165301" /> </linearGradient> </defs> <g id="Ia28a23185cbe4886818376d52e35972220251106165301"> <path id="Ib7698e6da3db46cfaf39972861a0cfe020251106165301" d="m 13.395,53.57 v -2.675 l 2.675,-2.68 2.68,2.68 v 2.675 c 0,2.961 2.398,5.36 5.355,5.36 H 37.5 v 5.355 H 24.105 c -5.914,0 -10.71,-4.797 -10.71,-10.715 z" transform="scale(1.3333333)" style="fill:url(#Iaa78817fb25841e4a5b85ce77a8799dc20251106165301);fill-rule:evenodd;stroke:none" /> <path id="I1edf45ae60a84fe0bf3dc949130747d820251106165301" d="m 45.535,61.605 c 0,4.442 -3.597,8.04 -8.035,8.04 -4.438,0 -8.035,-3.598 -8.035,-8.04 0,-4.437 3.597,-8.035 8.035,-8.035 4.438,0 8.035,3.598 8.035,8.035 z" transform="scale(1.3333333)" style="fill:url(#I6c3007a345ea4b40be881a5bf2686a2020251106165301);stroke:none" /> <path id="I7b0b5fdbb4864cbe91e82f15497b486820251106165301" d="m 37.5,10.715 c -10.355,0 -18.75,8.394 -18.75,18.75 v 4.015 l -2.68,2.68 -2.675,-2.68 v -4.015 c 0,-13.317 10.793,-24.11 24.105,-24.11 13.312,0 24.105,10.793 24.105,24.11 v 4.015 l -2.675,2.68 -2.68,-2.68 v -4.015 c 0,-10.356 -8.395,-18.75 -18.75,-18.75 z" transform="scale(1.3333333)" style="fill:url(#I0406c9c7a8944d7592149c18ac4d2d1c20251106165301);fill-rule:evenodd;stroke:none" /> <path id="Ie208e33c806949abbb37b17886f251e820251106165301" d="m 28.125,32.145 h -14.73 v 18.75 h 14.73 c 2.219,0 4.02,-1.801 4.02,-4.02 V 36.16 c 0,-2.219 -1.801,-4.015 -4.02,-4.015 z" transform="scale(1.3333333)" style="fill:url(#I95d66e3c248543b8aaf892efd9325dd320251106165301);stroke:none" /> <path id="Ie322f2798bbb486bb2aa1f6c282c591320251106165301" d="m 46.875,32.145 h 14.73 v 12.05 c 0,3.7 -2.996,6.7 -6.695,6.7 h -8.035 c -2.219,0 -4.02,-1.801 -4.02,-4.02 V 36.16 c 0,-2.219 1.801,-4.015 4.02,-4.015 z" transform="scale(1.3333333)" style="fill:url(#Ida9f52c9251c41939a6e9215573394d120251106165301);stroke:none" /> <path id="Iff97f6d574fc40d688ec6dfe3cc5f2b420251106165301" d="m 13.395,32.145 h 5.355 v 18.75 h -5.355 z" transform="scale(1.3333333)" style="fill:url(#I2a9a323ea6854ce786476816175424fc20251106165301);stroke:none" /> <path id="If81b0fc5e36644bbb145e5c1d4e4131320251106165301" d="m 56.25,32.145 v 18.613 c 3.055,-0.621 5.355,-3.32 5.355,-6.563 v -12.05 z" transform="scale(1.3333333)" style="fill:url(#I63bea49726624573af54d4eec2c309d820251106165301);stroke:none" /> </g>
</svg>

