<?xml version="1.0" encoding="UTF-8" standalone="no"?> <svg version="1.1" id="I53a6a99bdc0340c491488093a3b40e9a20251106125938" width="100" height="100" viewBox="0 0 100 100" xmlns="http://www.w3.org/2000/svg" xmlns:svg="http://www.w3.org/2000/svg"> <defs id="I49eeca7de193433587bac36494dfde6d20251106125938" /> <g id="I8399961d90ea4a19bec9b47f2d1a9bd920251106125938"> <path id="If1cbc833d92247fa9eb42f72e0733a0b20251106125938" d="M 8.785,5.945 C 8.004,5.16 6.73,5.16 5.945,5.945 5.16,6.73 5.16,8.004 5.945,8.785 L 22.73,25.57 c -3.566,-1.711 -7.691,-2.8 -12.687,-2.8 -1.109,0 -2.008,0.898 -2.008,2.007 0,1.11 0.899,2.008 2.008,2.008 8.922,0 14.566,3.918 19.945,8.871 0.473,-0.453 0.95,-0.918 1.438,-1.39 l 1.89,1.894 c -6.511,6.344 -12.504,12.055 -23.273,12.055 -1.109,0 -2.008,0.898 -2.008,2.008 0,1.109 0.899,2.007 2.008,2.007 12.539,0 19.586,-6.867 26.059,-13.175 L 36.16,39 l 1.895,1.895 -0.215,0.207 c -0.352,0.347 -0.711,0.695 -1.074,1.046 2.816,2.61 5.867,5.106 9.504,6.961 l 19.941,19.946 c 0.785,0.785 2.059,0.785 2.844,0 0.785,-0.785 0.785,-2.055 0,-2.84 z M 42.062,33.543 39.207,30.688 C 44.383,26.332 50.566,22.77 59.598,22.77 h 0.507 L 55.5,18.16 c -0.785,-0.781 -0.785,-2.055 0,-2.84 0.785,-0.785 2.055,-0.785 2.84,0 l 8.035,8.035 c 0.785,0.786 0.785,2.059 0,2.844 l -8.035,8.035 c -0.785,0.782 -2.055,0.782 -2.84,0 -0.785,-0.785 -0.785,-2.058 0,-2.843 l 4.605,-4.606 h -0.507 c -7.606,0 -12.828,2.848 -17.536,6.758 z M 63.27,54.75 56.578,48.055 c 0.965,0.105 1.969,0.16 3.02,0.16 h 0.507 L 55.5,43.609 c -0.785,-0.785 -0.785,-2.058 0,-2.843 0.785,-0.782 2.055,-0.782 2.84,0 l 8.035,8.039 c 0.785,0.781 0.785,2.054 0,2.84 z" style="fill:currentColor;fill-opacity:1;fill-rule:nonzero;stroke:none" transform="scale(1.3333333)" /> </g>
</svg>

