<?xml version="1.0" encoding="UTF-8" standalone="no"?> <svg version="1.1" id="Ib4a03ce238a9494ca750a9c5de43307b20251106144521" width="100" height="100" viewBox="0 0 100 100" xmlns="http://www.w3.org/2000/svg" xmlns:svg="http://www.w3.org/2000/svg"> <defs id="I89e7c0b0dbe64838911a97ce9601f39320251106144521" /> <g id="I5f59697837ee42bf8adbe6cc0096b94c20251106144521"> <path id="I9a92233e2a89436b8c0587cd5029224320251106144521" d="M 32.746,64.398 C 32.344,63.992 31.984,63.547 31.664,63.074 25.871,61.746 20.699,58.496 16.992,53.852 13.285,49.207 11.262,43.441 11.25,37.5 11.258,30.539 14.027,23.867 18.945,18.945 23.867,14.027 30.539,11.258 37.5,11.25 c 5.941,0.012 11.703,2.035 16.348,5.738 4.644,3.707 7.894,8.875 9.222,14.664 0.477,0.325 0.918,0.688 1.328,1.09 l 3,3 C 66.949,28.109 63.605,20.938 58.051,15.691 52.492,10.441 45.145,7.512 37.5,7.5 29.547,7.508 21.922,10.672 16.297,16.297 10.672,21.922 7.508,29.547 7.5,37.5 c 0.012,7.648 2.941,15.004 8.191,20.562 5.254,5.559 12.43,8.903 20.067,9.348 z m 2.649,-2.652 c -0.52,-0.519 -0.938,-1.141 -1.219,-1.824 -0.281,-0.684 -0.43,-1.414 -0.43,-2.152 0,-0.739 0.149,-1.473 0.43,-2.153 0.281,-0.683 0.699,-1.305 1.219,-1.828 L 53.77,35.414 c 0.523,-0.523 1.144,-0.937 1.828,-1.219 0.679,-0.285 1.414,-0.429 2.152,-0.429 0.738,0 1.473,0.144 2.152,0.429 0.684,0.282 1.305,0.696 1.828,1.219 l 7.856,7.856 c 0.523,0.523 0.937,1.144 1.219,1.828 0.285,0.679 0.429,1.414 0.429,2.152 0,0.738 -0.144,1.473 -0.429,2.152 -0.282,0.684 -0.696,1.305 -1.219,1.828 L 53.309,67.5 h 9.492 c 0.496,0 0.976,0.199 1.328,0.551 0.351,0.351 0.547,0.828 0.547,1.324 0,0.496 -0.196,0.973 -0.547,1.324 -0.352,0.352 -0.832,0.551 -1.328,0.551 H 47.457 c -0.777,0.031 -1.551,-0.098 -2.273,-0.383 -0.727,-0.281 -1.383,-0.711 -1.93,-1.258 z m 21.046,-23.695 -13.5,13.5 10.5,10.5 13.5,-13.5 c 0.176,-0.172 0.313,-0.379 0.407,-0.61 0.097,-0.226 0.144,-0.472 0.144,-0.718 0,-0.246 -0.047,-0.489 -0.144,-0.719 -0.094,-0.227 -0.231,-0.434 -0.407,-0.609 L 59.086,38.039 C 58.73,37.691 58.258,37.5 57.762,37.5 c -0.496,0.004 -0.969,0.199 -1.321,0.551 z m -5.625,26.656 -10.5,-10.5 -2.25,2.25 c -0.175,0.172 -0.312,0.379 -0.406,0.609 -0.098,0.227 -0.144,0.469 -0.144,0.719 0,0.246 0.046,0.488 0.144,0.719 0.094,0.226 0.231,0.434 0.406,0.605 l 7.856,7.86 c 0.176,0.172 0.383,0.312 0.609,0.406 0.227,0.094 0.473,0.145 0.719,0.145 0.246,0 0.492,-0.051 0.719,-0.145 0.226,-0.094 0.433,-0.234 0.609,-0.406 z" style="fill:currentColor;fill-opacity:1;fill-rule:nonzero;stroke:none" transform="scale(1.3333333)" /> </g>
</svg>

