<?xml version="1.0" encoding="UTF-8" standalone="no"?> <svg version="1.1" id="I1a763929aee54aaf8d95bc31dcd5dcc020251110133655" width="100" height="100" viewBox="0 0 100 100" xmlns="http://www.w3.org/2000/svg" xmlns:svg="http://www.w3.org/2000/svg"> <defs id="Ic692c82caa55408b9e07314cf038e4c220251110133655" /> <g id="I42243902087948dd84a818088f7435a420251110133655"> <path id="Ibff05b05028647e794fac393e6d9417220251110133655" d="m 20.758,10.715 c -5.547,0 -10.043,4.496 -10.043,10.043 v 3.347 h 4.015 v -3.347 c 0,-3.328 2.7,-6.028 6.028,-6.028 h 22.769 c 3.328,0 6.028,2.7 6.028,6.028 v 22.769 c 0,3.328 -2.7,6.028 -6.028,6.028 H 26.785 v 0.636 c 0,0.918 -0.238,1.825 -0.687,2.625 l -0.426,0.754 h 17.855 c 5.547,0 10.043,-4.496 10.043,-10.043 V 42.18 l 11.391,7.863 c 3.109,2.148 7.348,-0.078 7.348,-3.855 V 18.09 c 0,-3.781 -4.239,-6.004 -7.348,-3.86 L 53.57,22.094 v -1.336 c 0,-5.547 -4.496,-10.043 -10.043,-10.043 z M 53.57,26.977 67.242,17.539 c 0.446,-0.309 1.051,0.008 1.051,0.551 v 28.098 c 0,0.539 -0.605,0.855 -1.051,0.55 L 53.57,37.297 Z M 6.695,58.035 v 6.25 c 0,1.481 1.2,2.68 2.68,2.68 h 8.035 c 1.481,0 2.68,-1.199 2.68,-2.68 v -6.25 l 3.672,-6.531 c 0.226,-0.402 0.343,-0.852 0.343,-1.313 v -11.16 c 0,-1.48 -1.199,-2.679 -2.675,-2.679 v -6.887 c 0,-0.074 -0.004,-0.149 -0.012,-0.223 -0.113,-1.375 -1.262,-2.457 -2.668,-2.457 H 8.035 c -1.48,0 -2.68,1.199 -2.68,2.68 v 6.887 c -1.476,0 -2.675,1.199 -2.675,2.679 v 11.16 c 0,0.239 0.031,0.473 0.093,0.704 0.055,0.21 0.141,0.417 0.25,0.609 z m 2.68,-27.23 h 8.035 v 5.547 H 9.375 Z" style="fill:currentColor;fill-opacity:1;fill-rule:nonzero;stroke:none" transform="scale(1.3333333)" /> </g>
</svg>

