<?xml version="1.0" encoding="UTF-8" standalone="no"?> <svg version="1.1" id="I679b6d883b2d40bf804ac5916dfe05f120251106170956" width="100" height="100" viewBox="0 0 100 100" xmlns="http://www.w3.org/2000/svg" xmlns:svg="http://www.w3.org/2000/svg"> <defs id="Ia676ec5a8e8640f2a8cc494f859d348b20251106170956" /> <g id="Ibbe0e851c0d740bd9b7512c3cd8198c120251106170956"> <path id="I9e0c6f8dbadd48d5bcac99f742a713fb20251106170956" d="m 68.75,20.312 c 0,9.493 -7.695,17.188 -17.188,17.188 -9.492,0 -17.187,-7.695 -17.187,-17.188 0,-9.492 7.695,-17.187 17.187,-17.187 9.493,0 17.188,7.695 17.188,17.187 z M 46.418,12.957 c -0.609,-0.609 -1.602,-0.609 -2.211,0 -0.609,0.609 -0.609,1.602 0,2.211 l 5.145,5.144 -5.145,5.145 c -0.609,0.609 -0.609,1.602 0,2.211 0.609,0.609 1.602,0.609 2.211,0 l 5.144,-5.145 5.145,5.145 c 0.609,0.609 1.602,0.609 2.211,0 0.609,-0.609 0.609,-1.602 0,-2.211 l -5.145,-5.145 5.145,-5.144 c 0.609,-0.609 0.609,-1.602 0,-2.211 -0.609,-0.609 -1.602,-0.609 -2.211,0 l -5.145,5.145 z m 14.52,30.793 v -5.414 c 1.722,-0.898 3.3,-2.035 4.687,-3.367 v 23.625 c 0,5.609 -4.547,10.156 -10.156,10.156 H 19.531 C 13.922,68.75 9.375,64.203 9.375,58.594 V 22.656 C 9.375,17.047 13.922,12.5 19.531,12.5 h 13.278 c -0.621,1.48 -1.067,3.051 -1.321,4.688 H 19.531 c -3.019,0 -5.469,2.449 -5.469,5.468 V 43.75 h 14.063 c 1.187,0 2.168,0.883 2.324,2.027 l 0.02,0.317 c 0,3.883 3.148,7.031 7.031,7.031 3.883,0 7.031,-3.148 7.031,-7.031 0,-1.293 1.051,-2.344 2.344,-2.344 z" style="fill:currentColor;fill-opacity:1;fill-rule:nonzero;stroke:none" transform="scale(1.3333333)" /> </g>
</svg>

