<?xml version="1.0" encoding="UTF-8" standalone="no"?> <svg version="1.1" id="I738696c4fc084577932b6622e377177320251106152729" width="100" height="100" viewBox="0 0 100 100" xmlns="http://www.w3.org/2000/svg" xmlns:svg="http://www.w3.org/2000/svg"> <defs id="Idfbfc4b0d47345279ac469a09b0c3b5320251106152729" /> <g id="I97bcd0f1088e42a7bf8b154066684a2320251106152729"> <path id="Idccb6cf85f6d4e9daf6bdee44699611920251106152729" d="M 6.25,22.656 C 6.25,17.047 10.797,12.5 16.406,12.5 h 42.188 c 5.609,0 10.156,4.547 10.156,10.156 V 52.344 C 68.75,57.953 64.203,62.5 58.594,62.5 H 16.406 C 10.797,62.5 6.25,57.953 6.25,52.344 Z M 24.219,25 c -4.746,0 -8.594,3.848 -8.594,8.594 v 7.812 c 0,4.746 3.848,8.594 8.594,8.594 h 1.562 c 1.293,0 2.344,-1.051 2.344,-2.344 0,-1.293 -1.051,-2.344 -2.344,-2.344 h -1.562 c -2.157,0 -3.907,-1.75 -3.907,-3.906 v -7.812 c 0,-2.156 1.75,-3.906 3.907,-3.906 h 1.562 c 1.293,0 2.344,-1.051 2.344,-2.344 C 28.125,26.051 27.074,25 25.781,25 Z m 11.719,2.344 C 35.938,26.051 34.887,25 33.594,25 32.301,25 31.25,26.051 31.25,27.344 v 7.031 h -0.781 c -1.293,0 -2.344,1.051 -2.344,2.344 0,1.293 1.051,2.343 2.344,2.343 h 0.781 v 4.688 c 0,3.453 2.797,6.25 6.25,6.25 h 0.781 c 1.293,0 2.344,-1.051 2.344,-2.344 0,-1.293 -1.051,-2.344 -2.344,-2.344 H 37.5 c -0.863,0 -1.562,-0.699 -1.562,-1.562 v -4.688 h 2.343 c 1.293,0 2.344,-1.05 2.344,-2.343 0,-1.293 -1.051,-2.344 -2.344,-2.344 h -2.343 z m 25,0 C 60.938,26.051 59.887,25 58.594,25 57.301,25 56.25,26.051 56.25,27.344 v 20.312 c 0,1.293 1.051,2.344 2.344,2.344 1.293,0 2.344,-1.051 2.344,-2.344 z m -12.5,13.281 c 0,-0.863 0.699,-1.563 1.562,-1.563 h 0.781 c 1.293,0 2.344,-1.05 2.344,-2.343 0,-1.293 -1.051,-2.344 -2.344,-2.344 H 50 c -3.453,0 -6.25,2.797 -6.25,6.25 v 7.031 c 0,1.293 1.051,2.344 2.344,2.344 1.293,0 2.344,-1.051 2.344,-2.344 z" style="fill:currentColor;fill-opacity:1;fill-rule:nonzero;stroke:none" transform="scale(1.3333333)" /> </g>
</svg>

