<?xml version="1.0" encoding="UTF-8" standalone="no"?> <svg version="1.1" id="I64759ec2cc9e475380648e87d699eb1c20251110124421" width="100" height="100" viewBox="0 0 100 100" xmlns="http://www.w3.org/2000/svg" xmlns:svg="http://www.w3.org/2000/svg"> <defs id="Ic5a1a8e12c694e2297216df19465d64520251110124421" /> <g id="Iec34ba27ce24410c8b6c6bd6bc1dd39820251110124421"> <path id="I6f444d0a161240c796971fbee6eae25820251110124421" d="m 18.75,15.625 c 0,-5.176 4.199,-9.375 9.375,-9.375 h 18.75 c 5.18,0 9.375,4.199 9.375,9.375 V 43.75 H 28.906 c -1.293,0 -2.344,1.051 -2.344,2.344 0,1.293 1.051,2.344 2.344,2.344 h 9.489 c -1.27,1.351 -2.286,2.937 -2.981,4.687 h -6.508 c -1.293,0 -2.344,1.051 -2.344,2.344 0,1.293 1.051,2.343 2.344,2.343 h 5.489 c -0.012,0.258 -0.02,0.52 -0.02,0.782 0,3.929 1.527,7.5 4.02,10.156 h -10.27 c -5.176,0 -9.375,-4.195 -9.375,-9.375 z m 10.156,3.125 c -1.293,0 -2.344,1.051 -2.344,2.344 0,1.293 1.051,2.344 2.344,2.344 h 17.188 c 1.293,0 2.344,-1.051 2.344,-2.344 0,-1.293 -1.051,-2.344 -2.344,-2.344 z m 42.969,39.844 c 0,-6.473 -5.246,-11.719 -11.719,-11.719 l -0.316,0.02 c -1.145,0.156 -2.028,1.136 -2.028,2.324 0,1.293 1.051,2.343 2.344,2.343 l 0.481,0.016 c 3.66,0.25 6.551,3.293 6.551,7.016 0,3.883 -3.149,7.031 -7.032,7.031 l -0.011,0.016 -0.317,0.023 c -1.144,0.16 -2.019,1.145 -2.016,2.328 0.008,1.297 1.059,2.34 2.356,2.336 v -0.016 l 0.621,-0.015 C 66.961,69.973 71.875,64.855 71.875,58.594 Z M 51.562,49.219 c 0,-1.293 -1.05,-2.344 -2.343,-2.344 l -0.621,0.016 C 42.414,47.215 37.5,52.332 37.5,58.594 c 0,6.472 5.246,11.718 11.719,11.718 l 0.316,-0.019 c 1.145,-0.156 2.027,-1.137 2.027,-2.324 0,-1.293 -1.05,-2.344 -2.343,-2.344 l -0.481,-0.016 c -3.66,-0.25 -6.55,-3.293 -6.55,-7.015 0,-3.883 3.148,-7.032 7.031,-7.032 l 0.316,-0.019 c 1.145,-0.156 2.027,-1.137 2.027,-2.324 z M 62.5,58.594 c 0,-1.293 -1.051,-2.344 -2.344,-2.344 H 49.219 l -0.317,0.02 c -1.144,0.156 -2.027,1.136 -2.027,2.324 0,1.293 1.051,2.344 2.344,2.344 h 10.937 l 0.317,-0.02 C 61.617,60.762 62.5,59.781 62.5,58.594 Z" style="fill:currentColor;fill-opacity:1;fill-rule:nonzero;stroke:none" transform="scale(1.3333333)" /> </g>
</svg>

