<?xml version="1.0" encoding="UTF-8" standalone="no"?> <svg version="1.1" id="Ifb5da03880df4d0490e8c80366bb0f4220251110130508" width="100" height="100" viewBox="0 0 100 100" xmlns="http://www.w3.org/2000/svg" xmlns:svg="http://www.w3.org/2000/svg"> <defs id="Ie11c482e41844a10bb7109f3331ba30d20251110130508" /> <g id="Ib0b4325f957d4971a184ef1b8661334f20251110130508"> <path id="If71a649dad104916a8c1ac4c18c8e8f120251110130508" d="m 31.594,53.875 c 1.156,6.473 5.16,11.957 10.668,15.117 l -7.727,2.563 c -2.73,0.906 -5.726,-0.168 -7.258,-2.602 L 25.93,66.82 c -1.508,-2.394 -1.219,-5.5 0.699,-7.578 z M 53.125,31.25 c 10.355,0 18.75,8.395 18.75,18.75 0,10.355 -8.395,18.75 -18.75,18.75 -10.355,0 -18.75,-8.395 -18.75,-18.75 0,-10.355 8.395,-18.75 18.75,-18.75 z M 21.875,3.125 c 0.668,0 1.328,0.035 1.98,0.102 L 22.758,3.59 c -1.207,0.332 -2.5,0.91 -3.699,1.676 -6.575,4.203 -8.539,12.925 -4.371,19.488 4.167,6.57 12.89,8.473 19.472,4.262 1.074,-0.684 2.051,-1.508 2.918,-2.446 l 3.524,-3.781 c -0.477,9.93 -8.68,17.836 -18.727,17.836 -10.355,0 -18.75,-8.395 -18.75,-18.75 0,-10.355 8.395,-18.75 18.75,-18.75 z m 18.113,2.027 0.336,0.407 0.285,0.414 2.028,3.191 c 1.425,2.25 1.261,5.137 -0.36,7.203 l -0.343,0.403 -7.153,7.679 c -0.664,0.723 -1.433,1.379 -2.304,1.934 -5.125,3.281 -11.911,1.801 -15.153,-3.305 -3.238,-5.105 -1.711,-11.902 3.418,-15.18 0.953,-0.609 1.961,-1.054 2.992,-1.339 l 9.645,-3.176 c 2.387,-0.785 4.976,-0.059 6.609,1.769 z m -7.64,4.407 c -0.981,0.656 -1.305,1.918 -0.817,2.949 l 0.172,0.304 0.817,1.219 0.214,0.274 c 0.766,0.843 2.059,1.023 3.036,0.371 0.98,-0.656 1.304,-1.918 0.816,-2.949 L 36.414,11.422 35.598,10.203 35.383,9.93 C 34.617,9.086 33.324,8.906 32.348,9.559 Z" style="fill:currentColor;fill-opacity:1;fill-rule:nonzero;stroke:none" transform="scale(1.3333333)" /> </g>
</svg>

