<?xml version="1.0" encoding="UTF-8" standalone="no"?> <svg version="1.1" id="Ie40f1951d3604dc09702a3511e1a741220251110133655" width="100" height="100" viewBox="0 0 100 100" xmlns="http://www.w3.org/2000/svg" xmlns:svg="http://www.w3.org/2000/svg"> <defs id="Ie00a1a53a45a47aa81eaca59375f35ea20251110133655" /> <g id="Ica30c7c6039049f3bf6cbd124c978a7020251110133655"> <path id="I4d8c270f725a4ae7a05a7246350f9b8b20251110133655" d="m 30.473,56.25 c 1.293,0 2.343,1.051 2.343,2.344 0,1.293 -1.05,2.344 -2.343,2.344 -1.297,0 -2.344,-1.051 -2.344,-2.344 0,-1.293 1.047,-2.344 2.344,-2.344 z m 14.062,0 c 1.293,0 2.344,1.051 2.344,2.344 0,1.293 -1.051,2.344 -2.344,2.344 -1.297,0 -2.344,-1.051 -2.344,-2.344 0,-1.293 1.047,-2.344 2.344,-2.344 z M 23.441,53.125 c 1.293,0 2.344,1.051 2.344,2.344 0,1.293 -1.051,2.343 -2.344,2.343 -1.296,0 -2.343,-1.05 -2.343,-2.343 0,-1.293 1.047,-2.344 2.343,-2.344 z m 14.063,0 c 1.293,0 2.344,1.051 2.344,2.344 0,1.293 -1.051,2.343 -2.344,2.343 -1.297,0 -2.344,-1.05 -2.344,-2.343 0,-1.293 1.047,-2.344 2.344,-2.344 z m 14.062,0 c 1.293,0 2.344,1.051 2.344,2.344 0,1.293 -1.051,2.343 -2.344,2.343 -1.296,0 -2.343,-1.05 -2.343,-2.343 0,-1.293 1.047,-2.344 2.343,-2.344 z M 37.504,12.5 c 9.902,0 15.519,6.555 16.336,14.469 h 0.25 c 6.371,0 11.539,5.152 11.539,11.508 0,6.355 -5.168,11.507 -11.539,11.507 H 20.918 c -6.371,0 -11.535,-5.152 -11.535,-11.507 0,-6.356 5.164,-11.508 11.535,-11.508 h 0.25 C 21.992,19.004 27.602,12.5 37.504,12.5 Z" style="fill:currentColor;fill-opacity:1;fill-rule:nonzero;stroke:none" transform="scale(1.3333333)" /> </g>
</svg>

