<?xml version="1.0" encoding="UTF-8" standalone="no"?> <svg version="1.1" id="I9cf0f7bc06b348dda4e90e7bd57af9b420251106105458" width="100" height="100" viewBox="0 0 100 100" xmlns="http://www.w3.org/2000/svg" xmlns:svg="http://www.w3.org/2000/svg"> <defs id="Icb7b2813fb2c415c9121148560a7c85120251106105458" /> <g id="I74b246faad0a4f26bd27859e4a67db1920251106105458"> <path id="Ia31f92980f8547a0bfcc38e78f663d0720251106105458" d="M 47.711,19.277 H 64.41 v 4.051 H 47.711 Z M 30.98,35.309 c 3.692,-1.77 5.625,-4.454 5.625,-8.606 C 36.605,18.492 30.492,16.5 23.438,16.5 H 4.02 v 41.215 h 19.96 c 7.485,0 14.508,-3.598 14.508,-11.969 0,-5.176 -2.445,-9 -7.508,-10.437 z M 13.074,23.531 h 8.496 c 3.274,0 6.211,0.91 6.211,4.711 0,3.5 -2.285,4.906 -5.523,4.906 h -9.184 z m 9.668,27.188 H 13.066 V 39.367 h 9.868 c 3.984,0 6.504,1.664 6.504,5.883 0,4.152 -3.004,5.469 -6.696,5.469 z m 48.199,-7.492 c 0,-8.832 -5.164,-16.192 -14.507,-16.192 -9.082,0 -15.258,6.84 -15.258,15.805 0,9.293 5.851,15.672 15.258,15.672 7.125,0 11.734,-3.207 13.953,-10.047 h -7.223 c -0.785,2.555 -3.984,3.894 -6.469,3.894 -4.804,0 -7.316,-2.812 -7.316,-7.593 h 21.504 c 0.023,-0.493 0.058,-1.012 0.058,-1.539 z M 49.379,39.594 c 0.258,-3.926 2.879,-6.379 6.797,-6.379 4.117,0 6.176,2.418 6.535,6.379 z" style="fill:currentColor;fill-opacity:1;fill-rule:nonzero;stroke:none" transform="scale(1.3333333)" /> </g>
</svg>

