<?xml version="1.0" encoding="UTF-8" standalone="no"?> <svg version="1.1" id="I9d69d1d7f3a9455ea4535224015c716f20251106163937" width="100" height="100" viewBox="0 0 100 100" xmlns="http://www.w3.org/2000/svg" xmlns:svg="http://www.w3.org/2000/svg"> <defs id="I39214e9f26164a14ac1fba1c307708a020251106163937" /> <g id="I1ccfc54b8ccc4b9b9e4bb2207a12abdc20251106163937"> <path id="I4a740e55f8e14c2fa0eb4908e2be225620251106163937" d="m 26.562,6.25 c 9.543,0 17.547,6.578 19.727,15.445 -1.613,0.032 -3.187,0.215 -4.711,0.535 -1.875,-6.519 -7.89,-11.292 -15.016,-11.292 -8.628,0 -15.624,6.996 -15.624,15.624 0,7.126 4.769,13.141 11.292,15.016 -0.32,1.524 -0.503,3.098 -0.535,4.711 C 12.828,44.109 6.25,36.102 6.25,26.562 6.25,15.344 15.344,6.25 26.562,6.25 Z m 0.5,25.02 c 1.11,-1.411 2.372,-2.7 3.758,-3.844 -1.351,-0.571 -2.8,-0.864 -4.269,-0.864 -1.578,0 -3.137,0.344 -4.571,1.004 -1.433,0.664 -2.707,1.625 -3.73,2.825 -0.844,0.984 -0.727,2.464 0.258,3.304 0.984,0.844 2.465,0.727 3.304,-0.257 0.586,-0.684 1.313,-1.235 2.133,-1.614 0.817,-0.379 1.711,-0.574 2.61,-0.574 0.172,0 0.34,0.008 0.507,0.02 z M 23.438,20.312 c 0,1.727 -1.399,3.126 -3.126,3.126 -1.726,0 -3.124,-1.399 -3.124,-3.126 0,-1.726 1.398,-3.124 3.124,-3.124 1.727,0 3.126,1.398 3.126,3.124 z m 12.5,0 c 0,1.727 -1.399,3.126 -3.126,3.126 -1.726,0 -3.124,-1.399 -3.124,-3.126 0,-1.726 1.398,-3.124 3.124,-3.124 1.727,0 3.126,1.398 3.126,3.124 z m 3.124,25 c 1.727,0 3.126,-1.398 3.126,-3.124 0,-1.727 -1.399,-3.126 -3.126,-3.126 -1.726,0 -3.124,1.399 -3.124,3.126 0,1.726 1.398,3.124 3.124,3.124 z m 17.055,6.383 c 0.985,0.84 1.102,2.321 0.258,3.305 -1.172,1.371 -2.625,2.473 -4.266,3.227 -1.636,0.753 -3.418,1.148 -5.222,1.148 -1.805,0.004 -3.586,-0.387 -5.227,-1.137 -1.637,-0.754 -3.094,-1.851 -4.269,-3.222 -0.844,-0.981 -0.731,-2.461 0.25,-3.305 0.984,-0.84 2.464,-0.731 3.304,0.254 0.735,0.855 1.649,1.543 2.672,2.012 1.024,0.468 2.137,0.711 3.266,0.711 1.129,0 2.242,-0.247 3.265,-0.719 1.024,-0.473 1.934,-1.16 2.664,-2.016 0.844,-0.984 2.321,-1.101 3.305,-0.258 z m -1.429,-6.383 c 1.726,0 3.124,-1.398 3.124,-3.124 0,-1.727 -1.398,-3.126 -3.124,-3.126 -1.727,0 -3.126,1.399 -3.126,3.126 0,1.726 1.399,3.124 3.126,3.124 z M 46.875,68.75 C 58.957,68.75 68.75,58.957 68.75,46.875 68.75,34.793 58.957,25 46.875,25 34.793,25 25,34.793 25,46.875 25,58.957 34.793,68.75 46.875,68.75 Z m 0,-4.688 c -9.492,0 -17.187,-7.695 -17.187,-17.187 0,-9.492 7.695,-17.187 17.187,-17.187 9.492,0 17.187,7.695 17.187,17.187 0,9.492 -7.695,17.187 -17.187,17.187 z" style="fill:currentColor;fill-opacity:1;fill-rule:nonzero;stroke:none" transform="scale(1.3333333)" /> </g>
</svg>

