<?xml version="1.0" encoding="UTF-8" standalone="no"?> <svg version="1.1" id="I24d432892c9646f6a7c572a02d85531c20251106163938" width="100" height="100" viewBox="0 0 100 100" xmlns="http://www.w3.org/2000/svg" xmlns:svg="http://www.w3.org/2000/svg"> <defs id="If902b4e525c74b60ba164f4bded0241720251106163938" /> <g id="I6ab7ff7e05e34b5aa411e399c1dc7da120251106163938"> <path id="I8f713a998d0b44608d016f83895ef63820251106163938" d="M 23.219,10.391 C 23.707,8.68 25.27,7.5 27.051,7.5 h 19.683 c 2.719,0 4.637,2.664 3.778,5.242 l -0.008,0.031 -4.731,13.477 h 9.614 c 3.551,0 5.277,4.289 2.875,6.793 l -0.016,0.012 -0.887,0.91 c -0.976,-0.141 -1.972,-0.215 -2.984,-0.215 -0.73,0 -1.453,0.039 -2.164,0.113 l 3.348,-3.422 c 0.046,-0.046 0.058,-0.086 0.062,-0.117 0.008,-0.043 0.004,-0.101 -0.023,-0.168 C 55.57,30.094 55.531,30.051 55.504,30.031 55.484,30.016 55.453,30 55.387,30 H 43.129 c -0.609,0 -1.18,-0.293 -1.531,-0.789 -0.352,-0.496 -0.442,-1.133 -0.239,-1.707 L 46.957,11.551 C 47,11.402 46.891,11.25 46.734,11.25 H 27.051 c -0.106,0 -0.199,0.07 -0.227,0.168 l -8.437,29.527 c -0.043,0.149 0.07,0.297 0.226,0.297 h 7.153 c 0.578,0 1.125,0.27 1.48,0.723 0.356,0.457 0.481,1.047 0.34,1.609 l -4.969,19.875 c -0.015,0.059 -0.015,0.094 -0.012,0.11 0,0.015 0.004,0.031 0.012,0.043 0.012,0.027 0.047,0.074 0.113,0.109 0.067,0.035 0.125,0.043 0.157,0.039 0.011,-0.004 0.023,-0.008 0.039,-0.012 0.015,-0.008 0.043,-0.027 0.086,-0.07 l 0.015,-0.012 10.797,-11.023 c -0.051,0.574 -0.074,1.156 -0.074,1.742 0,1.16 0.098,2.297 0.281,3.406 l -8.32,8.492 C 22.883,69.207 17.988,66.5 18.98,62.539 l 4.383,-17.547 h -4.75 c -2.648,0 -4.558,-2.531 -3.832,-5.078 z M 63.75,68.406 c -2.773,1.856 -6.039,2.844 -9.375,2.844 -4.477,0 -8.77,-1.777 -11.934,-4.941 C 39.277,63.145 37.5,58.852 37.5,54.375 c 0,-3.336 0.988,-6.602 2.844,-9.375 1.855,-2.773 4.488,-4.938 7.574,-6.215 3.082,-1.277 6.477,-1.613 9.75,-0.961 3.273,0.653 6.277,2.258 8.641,4.617 2.359,2.364 3.964,5.368 4.617,8.641 0.652,3.273 0.316,6.668 -0.961,9.75 -1.277,3.086 -3.442,5.719 -6.215,7.574 z M 55.699,45.551 C 55.348,45.199 54.871,45 54.375,45 53.879,45 53.402,45.199 53.051,45.551 52.699,45.902 52.5,46.379 52.5,46.875 V 52.5 h -5.625 c -0.496,0 -0.973,0.199 -1.324,0.551 C 45.199,53.402 45,53.879 45,54.375 c 0,0.496 0.199,0.973 0.551,1.324 0.351,0.352 0.828,0.551 1.324,0.551 H 52.5 v 5.625 c 0,0.496 0.199,0.973 0.551,1.324 0.351,0.352 0.828,0.551 1.324,0.551 0.496,0 0.973,-0.199 1.324,-0.551 0.352,-0.351 0.551,-0.828 0.551,-1.324 V 56.25 h 5.625 c 0.496,0 0.973,-0.199 1.324,-0.551 0.352,-0.351 0.551,-0.828 0.551,-1.324 0,-0.496 -0.199,-0.973 -0.551,-1.324 C 62.848,52.699 62.371,52.5 61.875,52.5 H 56.25 v -5.625 c 0,-0.496 -0.199,-0.973 -0.551,-1.324 z" style="fill:currentColor;fill-opacity:1;fill-rule:nonzero;stroke:none" transform="scale(1.3333333)" /> </g>
</svg>

