<?xml version="1.0" encoding="UTF-8" standalone="no"?> <svg version="1.1" id="I9f4d873aa1a54b80a33ed8bf202978b620251110123031" width="100" height="100" viewBox="0 0 100 100" xmlns="http://www.w3.org/2000/svg" xmlns:svg="http://www.w3.org/2000/svg"> <defs id="I63dda5d85e694692b3bd863d34ff011320251110123031" /> <g id="I8d8680259f9d48ecbaa17340ed66176120251110123031"> <path id="I99d4a2fe60074781a843c1540abb3fa320251110123031" d="m 40.703,48.438 c 0.164,-1.653 0.586,-3.227 1.223,-4.688 H 19.539 c -3.879,0 -7.027,3.148 -7.027,7.027 v 1.805 c 0,2.793 0.996,5.488 2.808,7.613 4.895,5.731 12.352,8.559 22.18,8.559 3.672,0 7.016,-0.395 10.016,-1.188 l -0.922,-4.605 c -2.656,0.734 -5.684,1.105 -9.094,1.105 -8.555,0 -14.699,-2.332 -18.617,-6.918 -1.086,-1.273 -1.684,-2.89 -1.684,-4.566 v -1.805 c 0,-1.293 1.047,-2.339 2.34,-2.339 z M 53.125,21.891 c 0,-8.629 -6.996,-15.625 -15.625,-15.625 -8.629,0 -15.625,6.996 -15.625,15.625 0,8.629 6.996,15.625 15.625,15.625 8.629,0 15.625,-6.996 15.625,-15.625 z m -26.563,0 c 0,-6.039 4.899,-10.938 10.938,-10.938 6.043,0 10.938,4.899 10.938,10.938 0,6.039 -4.895,10.937 -10.938,10.937 -6.039,0 -10.938,-4.898 -10.938,-10.937 z M 68.75,50 c 0,4.312 -2.184,8.117 -5.508,10.363 L 62.812,62.5 H 49.688 L 49.262,60.363 C 45.938,58.117 43.75,54.312 43.75,50 c 0,-6.902 5.598,-12.5 12.5,-12.5 6.906,0 12.5,5.598 12.5,12.5 z m -18.438,15.625 0.497,2.48 c 0.441,2.192 2.363,3.77 4.597,3.77 h 1.692 c 2.234,0 4.156,-1.578 4.593,-3.77 l 0.497,-2.48 z" style="fill:currentColor;fill-opacity:1;fill-rule:nonzero;stroke:none" transform="scale(1.3333333)" /> </g>
</svg>

