<?xml version="1.0" encoding="UTF-8" standalone="no"?> <svg version="1.1" id="I17a6aeab125e42759f8a9d48390dbf7020251106154012" width="100" height="100" viewBox="0 0 100 100" xmlns="http://www.w3.org/2000/svg" xmlns:svg="http://www.w3.org/2000/svg"> <defs id="I168fd01ace7142b1ba14e48e893a547c20251106154012" /> <g id="I1cfa0784827d4999a7e609a4b630cfaa20251106154012"> <path id="I8fbdd04e11494a5eaf3d0c06d84944cc20251106154012" d="m 51.562,11.719 c 0,-0.836 0.188,-1.633 0.528,-2.344 H 13.281 l -0.48,0.016 C 9.141,9.637 6.25,12.684 6.25,16.406 v 32.821 l 0.016,0.48 c 0.246,3.66 3.293,6.551 7.015,6.551 h 13.278 v 7.804 h -5.465 l -0.317,0.024 c -1.144,0.156 -2.027,1.137 -2.027,2.32 0,1.297 1.051,2.344 2.344,2.344 h 32.812 l 0.317,-0.02 c 1.144,-0.156 2.027,-1.136 2.027,-2.324 0,-1.293 -1.051,-2.344 -2.344,-2.344 h -5.472 v -7.804 h 13.281 l 0.48,-0.016 c 3.66,-0.25 6.551,-3.297 6.551,-7.015 V 29.688 H 57.031 c -1.312,0 -2.515,-0.461 -3.461,-1.231 l -1.371,4.121 c -1.234,3.699 -4.594,6.246 -8.449,6.469 v 2.359 c 0,3.024 -2.449,5.469 -5.469,5.469 h -12.5 c -3.019,0 -5.469,-2.445 -5.469,-5.469 v -12.5 c 0,-3.019 2.45,-5.468 5.469,-5.468 h 12.5 c 1.93,0 3.625,1 4.598,2.507 l 1.797,-5.394 c 1.062,-3.188 3.707,-5.524 6.886,-6.25 z m -7.82,44.539 0.004,7.804 h -12.5 L 31.242,56.258 Z M 57.031,9.375 c -1.297,0 -2.343,1.051 -2.343,2.344 v 5.469 h -1.012 c -2.738,0 -5.168,1.753 -6.035,4.351 l -2.856,8.566 c -0.226,0.684 -0.867,1.145 -1.586,1.145 h -2.574 v -2.344 c 0,-1.293 -1.051,-2.344 -2.344,-2.344 h -12.5 c -1.293,0 -2.343,1.051 -2.343,2.344 v 12.5 c 0,1.293 1.05,2.344 2.343,2.344 h 12.5 c 1.293,0 2.344,-1.051 2.344,-2.344 v -5.468 h 2.574 c 2.739,0 5.168,-1.754 6.035,-4.352 L 52.09,23.02 c 0.226,-0.684 0.867,-1.145 1.586,-1.145 h 1.012 v 2.344 c 0,1.293 1.046,2.343 2.343,2.343 h 12.5 c 1.293,0 2.344,-1.05 2.344,-2.343 v -12.5 c 0,-1.293 -1.051,-2.344 -2.344,-2.344 z" style="fill:currentColor;fill-opacity:1;fill-rule:nonzero;stroke:none" transform="scale(1.3333333)" /> </g>
</svg>

