<?xml version="1.0" encoding="UTF-8" standalone="no"?> <svg version="1.1" id="If0288a28a623416faf140e0e81cc41a620251110123031" width="100" height="100" viewBox="0 0 100 100" xmlns="http://www.w3.org/2000/svg" xmlns:svg="http://www.w3.org/2000/svg"> <defs id="Iced4bf6288cc4d3a992413ff652f2db920251110123031" /> <g id="I39af9eb28b8341b9bd802a9a853d854d20251110123031"> <path id="I33923852e8294ef38c82517faaaeefb920251110123031" d="m 4.688,21.094 c 0,-3.883 3.148,-7.032 7.031,-7.032 3.883,0 7.031,3.149 7.031,7.032 h 37.5 c 0,-3.883 3.148,-7.032 7.031,-7.032 3.883,0 7.031,3.149 7.031,7.032 V 40.648 C 68.977,38.996 67.395,37.551 65.625,36.363 V 21.094 c 0,-1.293 -1.051,-2.344 -2.344,-2.344 -1.293,0 -2.343,1.051 -2.343,2.344 V 34.012 C 59.445,33.484 57.875,33.121 56.25,32.941 v -7.16 h -37.5 v 23.438 h 14.586 c -0.344,1.508 -0.524,3.078 -0.524,4.687 H 18.75 c 0,3.883 -3.148,7.032 -7.031,7.032 -3.883,0 -7.031,-3.149 -7.031,-7.032 z m 9.374,0 c 0,-1.293 -1.05,-2.344 -2.343,-2.344 -1.293,0 -2.344,1.051 -2.344,2.344 v 32.812 c 0,1.293 1.051,2.344 2.344,2.344 1.293,0 2.343,-1.051 2.343,-2.344 z m 39.844,50.39 c 9.707,0 17.578,-7.871 17.578,-17.578 0,-9.707 -7.871,-17.578 -17.578,-17.578 -9.707,0 -17.578,7.871 -17.578,17.578 0,9.707 7.871,17.578 17.578,17.578 z M 56.25,42.773 v 8.789 h 8.789 c 0.973,0 1.758,0.786 1.758,1.758 0,0.973 -0.785,1.758 -1.758,1.758 H 56.25 v 8.789 c 0,0.973 -0.785,1.758 -1.758,1.758 -0.972,0 -1.758,-0.785 -1.758,-1.758 v -8.789 h -8.789 c -0.972,0 -1.757,-0.785 -1.757,-1.758 0,-0.972 0.785,-1.758 1.757,-1.758 h 8.789 v -8.789 c 0,-0.972 0.786,-1.757 1.758,-1.757 0.973,0 1.758,0.785 1.758,1.757 z" style="fill:currentColor;fill-opacity:1;fill-rule:nonzero;stroke:none" transform="scale(1.3333333)" /> </g>
</svg>

