<?xml version="1.0" encoding="UTF-8" standalone="no"?> <svg version="1.1" id="Iada02bf01374450187645963417d4c0520251106123559" width="100" height="100" viewBox="0 0 100 100" xmlns="http://www.w3.org/2000/svg" xmlns:svg="http://www.w3.org/2000/svg"> <defs id="I1dc0ac0cae804d3cb69f73cc058b9f5520251106123559" /> <g id="I8d4a3b0c92504b5695687dd38fba3a5720251106123559"> <path id="Ica1d58a6c87047839e17f259b0a8b0d120251106123559" d="m 37.5,5.355 c 17.754,0 32.145,14.391 32.145,32.145 0,17.754 -14.391,32.145 -32.145,32.145 C 19.746,69.645 5.355,55.254 5.355,37.5 5.355,19.746 19.746,5.355 37.5,5.355 Z m 0,16.075 c -1.016,0 -1.859,0.754 -1.992,1.734 l -0.016,0.274 V 35.492 H 23.438 c -1.11,0 -2.008,0.899 -2.008,2.008 0,1.016 0.754,1.859 1.734,1.992 l 0.274,0.016 h 12.054 v 12.054 c 0,1.11 0.899,2.008 2.008,2.008 1.016,0 1.859,-0.754 1.992,-1.734 l 0.016,-0.274 V 39.508 h 12.054 c 1.11,0 2.008,-0.899 2.008,-2.008 0,-1.016 -0.754,-1.859 -1.734,-1.992 L 51.562,35.492 H 39.508 V 23.438 c 0,-1.11 -0.899,-2.008 -2.008,-2.008 z" style="fill:currentColor;fill-opacity:1;fill-rule:nonzero;stroke:none" transform="scale(1.3333333)" /> </g>
</svg>

