<?xml version="1.0" encoding="UTF-8" standalone="no"?> <svg version="1.1" id="I46c23dbe27914dcf9c5d5b71731ab03820251106163938" width="100" height="100" viewBox="0 0 100 100" xmlns="http://www.w3.org/2000/svg" xmlns:svg="http://www.w3.org/2000/svg"> <defs id="I7082946b7a1e45fca31981f0bccf073d20251106163938" /> <g id="I8a758792bb304504b5a32d4a492fcb0a20251106163938"> <path id="I6eb8d8101daa408ab3ea84a2943b76c520251106163938" d="m 63.062,5.785 c 0.762,0.496 1.223,1.34 1.223,2.25 v 24.11 c 0,1.476 -1.199,2.675 -2.68,2.675 H 8.035 c -1.262,0 -2.351,-0.879 -2.617,-2.113 -0.266,-1.238 0.367,-2.488 1.52,-3.008 L 60.508,5.594 c 0.828,-0.375 1.789,-0.301 2.554,0.191 z M 20.516,29.465 H 58.93 V 12.18 Z m 43.769,38.168 c 0,0.687 -0.347,1.324 -0.926,1.695 -0.578,0.367 -1.304,0.418 -1.925,0.129 L 6.523,44.012 C 5.668,43.613 5.203,42.676 5.406,41.754 5.609,40.836 6.426,40.18 7.367,40.18 h 54.91 c 1.11,0 2.008,0.898 2.008,2.008 z" style="fill:currentColor;fill-opacity:1;fill-rule:nonzero;stroke:none" transform="scale(1.3333333)" /> </g>
</svg>

