<?xml version="1.0" encoding="UTF-8" standalone="no"?> <svg version="1.1" id="I490ce9dceb4445a59da0b13056290db820251110123030" width="100" height="100" viewBox="0 0 100 100" xmlns="http://www.w3.org/2000/svg" xmlns:svg="http://www.w3.org/2000/svg"> <defs id="I2f1367322f7b4a80ab967c0f23860e8520251110123030" /> <g id="I204a221042f64a50942675caa6b53c2b20251110123030"> <path id="Id6aba5f9988a421ebe7cea216eb1733420251110123030" d="m 37.215,43.746 24.512,0.004 c 3.886,0 7.031,3.148 7.031,7.031 v 2.828 c 0,3.418 -1.492,6.664 -4.082,8.891 -4.895,4.203 -11.895,6.254 -20.926,6.254 L 43.191,68.75 c 0.731,-1.469 0.758,-3.199 0.082,-4.691 l 0.477,0.007 c 8,0 13.93,-1.738 17.871,-5.121 1.555,-1.336 2.449,-3.285 2.449,-5.336 v -2.828 c 0,-1.293 -1.047,-2.343 -2.343,-2.343 H 37.43 c 0.047,-0.516 0.07,-1.036 0.07,-1.563 0,-1.066 -0.098,-2.113 -0.285,-3.129 z M 20.312,32.812 c 7.766,0 14.063,6.297 14.063,14.063 0,3.418 -1.219,6.551 -3.246,8.988 l 8.816,8.797 c 0.918,0.914 0.918,2.399 0.004,3.313 -0.832,0.832 -2.133,0.91 -3.051,0.23 l -0.261,-0.226 -9.075,-9.051 c -2.117,1.277 -4.597,2.012 -7.25,2.012 -7.765,0 -14.062,-6.297 -14.062,-14.063 0,-7.766 6.297,-14.063 14.062,-14.063 z m 0,4.688 c -5.175,0 -9.374,4.199 -9.374,9.375 0,5.18 4.199,9.375 9.374,9.375 5.176,0 9.376,-4.195 9.376,-9.375 0,-5.176 -4.2,-9.375 -9.376,-9.375 z M 43.75,6.266 c 8.629,0 15.625,6.996 15.625,15.625 0,8.629 -6.996,15.625 -15.625,15.625 -8.629,0 -15.625,-6.996 -15.625,-15.625 0,-8.629 6.996,-15.625 15.625,-15.625 z m 0,4.687 c -6.039,0 -10.938,4.899 -10.938,10.938 0,6.039 4.899,10.937 10.938,10.937 6.039,0 10.938,-4.898 10.938,-10.937 0,-6.039 -4.899,-10.938 -10.938,-10.938 z" style="fill:currentColor;fill-opacity:1;fill-rule:nonzero;stroke:none" transform="scale(1.3333333)" /> </g>
</svg>

