<?xml version="1.0" encoding="UTF-8" standalone="no"?> <svg version="1.1" id="If47305a333e446368b03a39805f9180d20251110123030" width="100" height="100" viewBox="0 0 100 100" xmlns="http://www.w3.org/2000/svg" xmlns:svg="http://www.w3.org/2000/svg"> <defs id="I4babb341663843a09b926377f1185d1720251110123030" /> <g id="I4dabad28ca9b42648676ecd7a1ddcaed20251110123030"> <path id="I6762b7290e7649eebdd8aa16eba2bd1d20251110123030" d="m 34.375,54.688 c 0,-4.028 1.172,-7.782 3.195,-10.938 H 16.414 c -3.879,0 -7.027,3.145 -7.027,7.027 v 2.875 c 0,1.789 0.558,3.532 1.593,4.989 4.821,6.761 12.708,10.113 23.395,10.113 1.875,0 3.664,-0.106 5.367,-0.309 -3.332,-3.621 -5.367,-8.453 -5.367,-13.757 z m 0,-48.422 C 43.004,6.266 50,13.262 50,21.891 50,30.52 43.004,37.516 34.375,37.516 25.746,37.516 18.75,30.52 18.75,21.891 18.75,13.262 25.746,6.266 34.375,6.266 Z m 37.5,48.422 c 0,9.492 -7.695,17.187 -17.187,17.187 C 45.195,71.875 37.5,64.18 37.5,54.688 37.5,45.195 45.195,37.5 54.688,37.5 c 9.492,0 17.187,7.695 17.187,17.188 z m -29.687,0 c 0,6.902 5.597,12.5 12.5,12.5 6.902,0 12.5,-5.598 12.5,-12.5 0,-6.903 -5.598,-12.5 -12.5,-12.5 -6.903,0 -12.5,5.597 -12.5,12.5 z m 15.624,-6.25 c 0,1.726 -1.398,3.124 -3.124,3.124 -1.727,0 -3.126,-1.398 -3.126,-3.124 0,-1.727 1.399,-3.126 3.126,-3.126 1.726,0 3.124,1.399 3.124,3.126 z m -0.781,7.812 c 0,-1.293 -1.051,-2.344 -2.343,-2.344 -1.293,0 -2.344,1.051 -2.344,2.344 v 5.469 c 0,1.293 1.051,2.343 2.344,2.343 1.292,0 2.343,-1.05 2.343,-2.343 z" style="fill:currentColor;fill-opacity:1;fill-rule:nonzero;stroke:none" transform="scale(1.3333333)" /> </g>
</svg>

