<?xml version="1.0" encoding="UTF-8" standalone="no"?> <svg version="1.1" id="Id377339c522b47e3ad56aa68883b771720251106161453" width="100" height="100" viewBox="0 0 100 100" xmlns="http://www.w3.org/2000/svg" xmlns:svg="http://www.w3.org/2000/svg"> <defs id="I6625a16364634c649ea36cef60bead8920251106161453" /> <g id="I1604549b71e747c68b5fb3e06cd1deb520251106161453"> <path id="Ic4bb4bca54db437ea3ffd983e761f97a20251106161453" d="M 49.66,9.527 C 54.027,5.16 61.105,5.156 65.477,9.523 c 4.363,4.368 4.363,11.45 0,15.817 L 62.688,28.125 46.875,12.312 Z m -6.101,6.102 -31.243,31.246 c -1.269,1.27 -2.164,2.867 -2.578,4.613 L 6.312,65.867 c -0.187,0.793 0.047,1.625 0.626,2.199 0.574,0.579 1.406,0.813 2.199,0.625 l 14.379,-3.425 c 1.746,-0.414 3.343,-1.309 4.617,-2.578 l 3.594,-3.598 c -0.313,-1.418 -0.477,-2.891 -0.477,-4.402 0,-11.215 9.094,-20.313 20.312,-20.313 1.512,0 2.981,0.168 4.399,0.48 l 3.414,-3.414 z m -2.067,28.047 c 0.985,3.406 -1.062,6.949 -4.504,7.801 L 35.16,51.93 c -0.137,0.898 -0.211,1.82 -0.211,2.761 0,0.981 0.078,1.946 0.235,2.887 l 1.683,0.402 c 3.477,0.84 5.543,4.418 4.531,7.848 l -0.582,1.973 c 1.372,1.203 2.938,2.183 4.637,2.879 l 1.543,-1.621 c 2.465,-2.59 6.598,-2.59 9.059,0 l 1.558,1.64 c 1.699,-0.687 3.262,-1.656 4.637,-2.851 l -0.621,-2.145 c -0.984,-3.406 1.062,-6.949 4.504,-7.801 l 1.824,-0.449 c 0.141,-0.898 0.215,-1.824 0.215,-2.762 0,-0.984 -0.082,-1.949 -0.234,-2.886 l -1.684,-0.407 c -3.477,-0.836 -5.543,-4.414 -4.531,-7.843 l 0.582,-1.973 C 60.93,40.375 59.367,39.398 57.664,38.703 l -1.539,1.617 c -2.465,2.594 -6.598,2.594 -9.059,0 l -1.558,-1.64 c -1.699,0.687 -3.262,1.656 -4.637,2.851 z m 10.067,15.703 c -2.5,0 -4.528,-2.098 -4.528,-4.688 0,-2.589 2.028,-4.687 4.528,-4.687 2.503,0 4.531,2.098 4.531,4.687 0,2.59 -2.028,4.688 -4.531,4.688 z" style="fill:currentColor;fill-opacity:1;fill-rule:nonzero;stroke:none" transform="scale(1.3333333)" /> </g>
</svg>

