<?xml version="1.0" encoding="UTF-8" standalone="no"?> <svg version="1.1" id="Ie070244f698048b3b508798918519ca420251106123600" width="100" height="100" viewBox="0 0 100 100" xmlns="http://www.w3.org/2000/svg" xmlns:svg="http://www.w3.org/2000/svg"> <defs id="Ica46741c0f2b4901bdf0097ae2692c8e20251106123600" /> <g id="Ie62c42edd807491bb0e5c52dad3f9c3520251106123600"> <path id="I893f96eae9cf4bf3a183a275f4cce9d720251106123600" d="M 37.5,69.645 C 19.746,69.645 5.355,55.254 5.355,37.5 5.355,19.746 19.746,5.355 37.5,5.355 c 17.754,0 32.145,14.391 32.145,32.145 0,17.754 -14.391,32.145 -32.145,32.145 z M 24.027,36.91 c 0.782,0.785 2.055,0.785 2.84,0 l 8.625,-8.621 v 23.273 c 0,1.11 0.899,2.008 2.008,2.008 1.109,0 2.008,-0.898 2.008,-2.008 V 28.289 l 8.625,8.621 c 0.785,0.785 2.058,0.785 2.84,0 0.785,-0.781 0.785,-2.055 0,-2.84 L 38.922,22.016 c -0.785,-0.782 -2.059,-0.782 -2.844,0 L 24.027,34.07 c -0.785,0.785 -0.785,2.059 0,2.84 z" style="fill:currentColor;fill-opacity:1;fill-rule:nonzero;stroke:none" transform="scale(1.3333333)" /> </g>
</svg>

