<?xml version="1.0" encoding="UTF-8" standalone="no"?> <svg version="1.1" id="I08528dbd2ed445b9b21d13a98ef36a4f20251110124420" width="100" height="100" viewBox="0 0 100 100" xmlns="http://www.w3.org/2000/svg" xmlns:svg="http://www.w3.org/2000/svg"> <defs id="Iec89a1dd9663454fb1bfa25b9bd1dadf20251110124420" /> <g id="Ifcc4537b70f04cf1b3c079a07f617a1d20251110124420"> <path id="I2681d91529ca42d0b39ed025a2fe9f1620251110124420" d="m 50,53.125 c 3.453,0 6.25,2.797 6.25,6.25 0,3.453 -2.797,6.25 -6.25,6.25 -3.453,0 -6.25,-2.797 -6.25,-6.25 0,-3.453 2.797,-6.25 6.25,-6.25 z m -25,0 c 3.453,0 6.25,2.797 6.25,6.25 0,3.453 -2.797,6.25 -6.25,6.25 -3.453,0 -6.25,-2.797 -6.25,-6.25 0,-3.453 2.797,-6.25 6.25,-6.25 z M 50,31.25 c 3.453,0 6.25,2.797 6.25,6.25 0,3.453 -2.797,6.25 -6.25,6.25 -3.453,0 -6.25,-2.797 -6.25,-6.25 0,-3.453 2.797,-6.25 6.25,-6.25 z m -25,0 c 3.453,0 6.25,2.797 6.25,6.25 0,3.453 -2.797,6.25 -6.25,6.25 -3.453,0 -6.25,-2.797 -6.25,-6.25 0,-3.453 2.797,-6.25 6.25,-6.25 z M 50,9.375 c 3.453,0 6.25,2.797 6.25,6.25 0,3.453 -2.797,6.25 -6.25,6.25 -3.453,0 -6.25,-2.797 -6.25,-6.25 0,-3.453 2.797,-6.25 6.25,-6.25 z m -25,0 c 3.453,0 6.25,2.797 6.25,6.25 0,3.453 -2.797,6.25 -6.25,6.25 -3.453,0 -6.25,-2.797 -6.25,-6.25 0,-3.453 2.797,-6.25 6.25,-6.25 z" style="fill:currentColor;fill-opacity:1;fill-rule:nonzero;stroke:none" transform="scale(1.3333333)" /> </g>
</svg>

