<?xml version="1.0" encoding="UTF-8" standalone="no"?> <svg version="1.1" id="Ia33e47244570482dbe1432048a580efd20251106171633" width="100" height="100" viewBox="0 0 100 100" xmlns="http://www.w3.org/2000/svg" xmlns:svg="http://www.w3.org/2000/svg"> <defs id="I3e3cc243c65d4ce8bff4b5c87accd19320251106171633" /> <g id="If184bc0116fe456cbb4927a07b7e143420251106171633"> <path id="I54aa650927264b50827bf5abed492e6d20251106171633" d="m 20.312,37.5 c 9.493,0 17.188,7.695 17.188,17.188 0,9.492 -7.695,17.187 -17.188,17.187 C 10.82,71.875 3.125,64.18 3.125,54.688 3.125,45.195 10.82,37.5 20.312,37.5 Z M 52.34,6.25 c 3.883,0 7.031,3.148 7.031,7.031 v 48.438 c 0,3.883 -3.148,7.031 -7.031,7.031 l -17.371,0.004 c 3.504,-3.652 5.656,-8.606 5.656,-14.066 0,-11.219 -9.094,-20.313 -20.313,-20.313 -2.769,0 -5.406,0.555 -7.812,1.555 V 13.281 C 12.5,9.398 15.648,6.25 19.531,6.25 Z M 20.312,62.125 c -1.078,0 -1.953,0.875 -1.953,1.953 0,1.078 0.875,1.949 1.953,1.949 1.079,0 1.954,-0.871 1.954,-1.949 0,-1.078 -0.875,-1.953 -1.954,-1.953 z m 0,-18.367 c -0.765,0 -1.406,0.554 -1.539,1.285 L 18.75,45.32 v 12.492 l 0.023,0.282 c 0.133,0.73 0.774,1.281 1.539,1.281 0.766,0 1.407,-0.551 1.54,-1.281 l 0.023,-0.282 V 45.32 l -0.023,-0.277 c -0.133,-0.731 -0.774,-1.285 -1.54,-1.285 z m 44.532,3.125 c 1.187,0 2.168,0.879 2.324,2.023 l 0.02,0.321 v 4.679 c 0,1.188 -0.883,2.168 -2.028,2.324 l -0.316,0.02 H 62.5 v -9.367 z m 0,-12.5 c 1.187,0 2.168,0.879 2.324,2.023 l 0.02,0.321 v 4.679 c 0,1.188 -0.883,2.168 -2.028,2.324 l -0.316,0.02 H 62.5 v -9.367 z m 0,-12.5 c 1.187,0 2.168,0.879 2.324,2.023 l 0.02,0.321 v 4.679 c 0,1.188 -0.883,2.168 -2.028,2.324 l -0.316,0.02 H 62.5 V 21.883 Z M 46.086,17.188 H 25.773 c -1.183,0 -2.164,0.882 -2.32,2.027 l -0.023,0.316 v 4.692 c 0,1.187 0.882,2.168 2.027,2.32 l 0.316,0.023 h 20.313 c 1.187,0 2.168,-0.882 2.324,-2.027 l 0.02,-0.316 v -4.692 c 0,-1.293 -1.047,-2.343 -2.344,-2.343 z" style="fill:currentColor;fill-opacity:1;fill-rule:nonzero;stroke:none" transform="scale(1.3333333)" /> </g>
</svg>

