<svg version="1.2" xmlns="http://www.w3.org/2000/svg" viewBox="0 0 100 100" width="100" height="100">
	<style>
		.C689e6e537f53405991e126a585c78d2320251031115229 { fill: none;stroke: #000000;stroke-linecap: round;stroke-linejoin: round;stroke-width: 10 } 
	</style>
	<g id="I4d6c85cdadf84c4d809c9371495e478c20251031115229">
	</g>
	<path id="I58c621f8ab03418ea6fa37f14eb9ee4c20251031115229" fill-rule="evenodd" class="C689e6e537f53405991e126a585c78d2320251031115229" d="m5 77v-54c0-6.3 0-9.45 1.22-11.86 1.08-2.12 2.8-3.84 4.92-4.92 2.41-1.22 5.56-1.22 11.86-1.22h54c6.31 0 9.46 0 11.86 1.22 2.12 1.08 3.84 2.8 4.92 4.92 1.23 2.41 1.23 5.56 1.23 11.86v54c0 6.3 0 9.45-1.23 11.86-1.08 2.12-2.8 3.84-4.92 4.92-2.4 1.22-5.55 1.22-11.84 1.22h-54.04c-6.29 0-9.44 0-11.84-1.22-2.12-1.08-3.84-2.8-4.92-4.92-1.22-2.41-1.22-5.56-1.22-11.86zm45-27h22.5m-22.5 0v22.5m0-22.5v-22.5m-22.5 22.5h22.5"/>
</svg>





