<?xml version="1.0" encoding="UTF-8" standalone="no"?> <svg version="1.1" id="Ie9386398264e4d55b061b7a2e358533820251106163938" width="100" height="100" viewBox="0 0 100 100" xmlns="http://www.w3.org/2000/svg" xmlns:svg="http://www.w3.org/2000/svg"> <defs id="I705544b5dc3a42849fc153d0909ddff520251106163938" /> <g id="Ia11cdc75378e466c8ace9f40578becb820251106163938"> <path id="Ia065fa833afd47a68608b6909d889bec20251106163938" d="m 17.188,7.812 c 3.203,0 5.949,1.93 7.156,4.688 h 27.218 c 7.766,0 14.063,6.297 14.063,14.062 0,7.766 -6.297,14.063 -14.063,14.063 H 23.438 c -4.317,0 -7.813,3.496 -7.813,7.813 0,4.316 3.496,7.812 7.813,7.812 h 27.218 c 1.207,-2.758 3.953,-4.688 7.156,-4.688 4.317,0 7.813,3.497 7.813,7.813 0,4.316 -3.496,7.813 -7.813,7.813 -3.203,0 -5.949,-1.93 -7.156,-4.688 H 23.438 c -7.766,0 -14.063,-6.297 -14.063,-14.062 0,-7.766 6.297,-14.063 14.063,-14.063 h 28.124 c 4.317,0 7.813,-3.496 7.813,-7.813 0,-4.316 -3.496,-7.812 -7.813,-7.812 H 24.344 c -1.207,2.758 -3.953,4.688 -7.156,4.688 -4.317,0 -7.813,-3.497 -7.813,-7.813 0,-4.316 3.496,-7.813 7.813,-7.813 z" style="fill:currentColor;fill-opacity:1;fill-rule:nonzero;stroke:none" transform="scale(1.3333333)" /> </g>
</svg>

