<?xml version="1.0" encoding="UTF-8" standalone="no"?> <svg version="1.1" id="I4ac3941f777a405b812bd87f180d92ca20251106154012" width="100" height="100" viewBox="0 0 100 100" xmlns="http://www.w3.org/2000/svg" xmlns:svg="http://www.w3.org/2000/svg"> <defs id="I2718f7fbffc441b6b0471f75403ea4ed20251106154012" /> <g id="Ie6b237334b4e4d0eb74cdb9f8060c05d20251106154012"> <path id="I5b84f7a120204b7aa6a2d21419c7837a20251106154012" d="M 6.25,16.406 C 6.25,10.797 10.797,6.25 16.406,6.25 h 32.813 c 5.609,0 10.156,4.547 10.156,10.156 V 35.258 C 58.207,34.684 56.91,34.375 55.578,34.375 h -0.89 V 16.406 c 0,-3.019 -2.45,-5.468 -5.469,-5.468 H 16.406 c -3.019,0 -5.468,2.449 -5.468,5.468 v 35.938 c 0,3.019 2.449,5.468 5.468,5.468 H 26.938 L 22.992,62.5 H 16.406 C 10.797,62.5 6.25,57.953 6.25,52.344 Z m 14.844,2.344 c -1.293,0 -2.344,1.051 -2.344,2.344 0,1.293 1.051,2.344 2.344,2.344 h 23.437 c 1.293,0 2.344,-1.051 2.344,-2.344 0,-1.293 -1.051,-2.344 -2.344,-2.344 z m 1,20.105 C 22.477,38.027 23.309,37.5 24.219,37.5 h 31.359 c 1.613,0 3.145,0.711 4.184,1.945 L 71.324,53.18 c 0.735,0.871 0.735,2.144 0,3.015 L 59.762,69.93 c -1.039,1.234 -2.571,1.945 -4.184,1.945 H 24.219 c -0.91,0 -1.742,-0.527 -2.125,-1.355 -0.383,-0.825 -0.254,-1.801 0.332,-2.497 L 33.656,54.688 22.426,41.352 C 21.84,40.656 21.711,39.68 22.094,38.855 Z m 7.164,3.333 9.254,10.992 c 0.734,0.871 0.734,2.144 0,3.015 l -9.254,10.993 h 26.32 c 0.231,0 0.449,-0.102 0.598,-0.278 L 66.469,54.688 56.176,42.465 C 56.027,42.289 55.809,42.188 55.578,42.188 Z M 21.094,28.125 c -1.293,0 -2.344,1.051 -2.344,2.344 0,1.293 1.051,2.343 2.344,2.343 h 14.062 c 1.293,0 2.344,-1.05 2.344,-2.343 0,-1.293 -1.051,-2.344 -2.344,-2.344 z" style="fill:currentColor;fill-opacity:1;fill-rule:nonzero;stroke:none" transform="scale(1.3333333)" /> </g>
</svg>

