<?xml version="1.0" encoding="UTF-8" standalone="no"?> <svg version="1.1" id="I0d6dda099fb44b55bf06a69025b5078d20251110124420" width="100" height="100" viewBox="0 0 100 100" xmlns="http://www.w3.org/2000/svg" xmlns:svg="http://www.w3.org/2000/svg"> <defs id="I283a0c35ef2a4ca7893a99435e6fb36720251110124420"> <radialGradient fx="0" fy="0" cx="0" cy="0" r="1" gradientUnits="userSpaceOnUse" gradientTransform="matrix(0,43.107188,-68.987188,0,37.504375,37.121875)" spreadMethod="pad" id="I5ca3db27024d4458915e74a0f66257f920251110124420"> <stop style="stop-opacity:1;stop-color:#163697" offset="0" id="If5c29af951694dc9a778d5bc2f53e48420251110124420" /> <stop style="stop-opacity:1;stop-color:#29c3ff" offset="1" id="I0eb3a50e4c9c484789f78f094bb311b520251110124420" /> </radialGradient> <radialGradient fx="0" fy="0" cx="0" cy="0" r="1" gradientUnits="userSpaceOnUse" gradientTransform="matrix(134.37488,203.90634,-174.63622,115.08578,-78.90625,-146.875)" spreadMethod="pad" id="Ied699a3429994c038581c20c6fb7cc7c20251110124420"> <stop style="stop-opacity:1;stop-color:#ffcd0f" offset="0" id="Ia72529ca01c4493a89f63034a15a338020251110124420" /> <stop style="stop-opacity:1;stop-color:#ffcd0f" offset="0.771547" id="I6beb17404a484bb4b5c55e17ff16878520251110124420" /> <stop style="stop-opacity:1;stop-color:#e67505" offset="0.990707" id="I0519ff0586044465929070fd2db5783020251110124420" /> <stop style="stop-opacity:1;stop-color:#e67505" offset="1" id="I53612ecedd35433e94f1eae17bf970ca20251110124420" /> </radialGradient> </defs> <g id="I265bfe28e52b4fd5b39ead3ccaae95b220251110124420"> <path id="Ib8510a0037424dc1be9af596fcad940720251110124420" d="m 53.133,41.387 -0.004,25.004 c 0,1.898 -2.141,3.011 -3.691,1.918 L 37.504,59.906 25.578,68.309 c -1.555,1.093 -3.695,-0.02 -3.695,-1.918 L 21.879,41.395 c 4.277,3.429 9.711,5.48 15.621,5.48 5.914,0 11.352,-2.055 15.633,-5.488 z" transform="scale(1.3333333)" style="fill:url(#I5ca3db27024d4458915e74a0f66257f920251110124420);stroke:none" /> <path id="I36b38891a8784f888e6eaf6316f1489c20251110124420" d="m 37.5,6.25 c 12.082,0 21.875,9.793 21.875,21.875 C 59.375,40.207 49.582,50 37.5,50 25.418,50 15.625,40.207 15.625,28.125 15.625,16.043 25.418,6.25 37.5,6.25 Z" transform="scale(1.3333333)" style="fill:url(#Ied699a3429994c038581c20c6fb7cc7c20251110124420);stroke:none" /> </g>
</svg>

