<?xml version="1.0" encoding="UTF-8" standalone="no"?> <svg version="1.1" id="I3452ad68d5c343a09ddb71bbe38cdf1020251110124419" width="100" height="100" viewBox="0 0 100 100" xmlns="http://www.w3.org/2000/svg" xmlns:svg="http://www.w3.org/2000/svg"> <defs id="Ifcb82ef06d6c41c895624fb10693fe4120251110124419" /> <g id="Ie2b52a010a3048f8a8695f517830e90c20251110124419"> <path id="I7a24441198494e85a2244da8391cd6ea20251110124419" d="M 67.492,38.137 C 67.496,37.926 67.5,37.715 67.5,37.5 c 0,-16.57 -13.43,-30 -30,-30 -16.57,0 -30,13.43 -30,30 C 7.5,53 19.254,65.754 34.332,67.336 33.953,66.207 33.75,65.004 33.75,63.75 V 61.59 C 29.492,60.93 25.598,59.172 22.367,56.609 L 56.609,22.367 c 3.297,4.156 5.266,9.414 5.266,15.133 h 1.875 c 1.312,0 2.574,0.227 3.742,0.637 z M 52.633,18.391 18.391,52.633 C 15.094,48.477 13.125,43.219 13.125,37.5 c 0,-13.461 10.914,-24.375 24.375,-24.375 5.719,0 10.977,1.969 15.133,5.266 z M 37.5,48.75 c 0,-4.141 3.359,-7.5 7.5,-7.5 h 18.75 c 4.141,0 7.5,3.359 7.5,7.5 v 15 c 0,4.141 -3.359,7.5 -7.5,7.5 H 45 c -4.141,0 -7.5,-3.359 -7.5,-7.5 z M 61.875,60 h -15 C 45.84,60 45,60.84 45,61.875 c 0,1.035 0.84,1.875 1.875,1.875 h 15 c 1.035,0 1.875,-0.84 1.875,-1.875 C 63.75,60.84 62.91,60 61.875,60 Z m -15,-11.25 C 45.84,48.75 45,49.59 45,50.625 45,51.66 45.84,52.5 46.875,52.5 h 15 c 1.035,0 1.875,-0.84 1.875,-1.875 0,-1.035 -0.84,-1.875 -1.875,-1.875 z" style="fill:currentColor;fill-opacity:1;fill-rule:nonzero;stroke:none" transform="scale(1.3333333)" /> </g>
</svg>

