<?xml version="1.0" encoding="UTF-8" standalone="no"?> <svg version="1.1" id="I51f9c599d4b043779ebf4b0f1197791b20251110123029" width="100" height="100" viewBox="0 0 100 100" xmlns="http://www.w3.org/2000/svg" xmlns:svg="http://www.w3.org/2000/svg"> <defs id="Ibef0c2fc80bc4f4daff2c98f3b9139a620251110123029" /> <g id="Ia7ec3db8ee654614a60c708ecaebf89020251110123029"> <path id="I053c1a029ebe4d6a87d6339541a8e6ca20251110123029" d="m 67.5,22.5 c 0,-4.141 -3.359,-7.57 -7.504,-7.5 H 15.004 C 10.859,15 7.5,18.359 7.5,22.5 v 30 c 0,4.145 3.359,7.5 7.504,7.5 H 34.527 C 34.184,58.793 33.949,57.539 33.836,56.25 H 15.004 c -2.074,0 -3.754,-1.68 -3.754,-3.75 v -30 c 0,-2.07 1.68,-3.75 3.754,-3.75 H 45.02 v 17.238 c 1.187,-0.605 2.441,-1.097 3.75,-1.468 V 18.75 h 11.226 c 2.074,0 3.754,1.68 3.754,3.75 V 36 c 1.34,0.684 2.598,1.512 3.75,2.465 z M 54.375,71.25 c 9.32,0 16.875,-7.555 16.875,-16.875 0,-9.32 -7.555,-16.875 -16.875,-16.875 -9.32,0 -16.875,7.555 -16.875,16.875 0,9.32 7.555,16.875 16.875,16.875 z m 0,-26.25 c 1.035,0 1.875,0.84 1.875,1.875 V 52.5 h 5.625 c 1.035,0 1.875,0.84 1.875,1.875 0,1.035 -0.84,1.875 -1.875,1.875 H 56.25 v 5.625 c 0,1.035 -0.84,1.875 -1.875,1.875 -1.035,0 -1.875,-0.84 -1.875,-1.875 V 56.25 H 46.875 C 45.84,56.25 45,55.41 45,54.375 45,53.34 45.84,52.5 46.875,52.5 H 52.5 V 46.875 C 52.5,45.84 53.34,45 54.375,45 Z" style="fill:currentColor;fill-opacity:1;fill-rule:nonzero;stroke:none" transform="scale(1.3333333)" /> </g>
</svg>

