<?xml version="1.0" encoding="UTF-8" standalone="no"?> <svg version="1.1" id="Ib81503c3f55d4f038750e202f5423fca20251106163937" width="100" height="100" viewBox="0 0 100 100" xmlns="http://www.w3.org/2000/svg" xmlns:svg="http://www.w3.org/2000/svg"> <defs id="I8349ffb4a2184f02a1827674d7f12ee420251106163937" /> <g id="I7d6a4c78127c49a2a9f06719cad688ae20251106163937"> <path id="I351b800b515d4a24811d26d7da33d66020251106163937" d="m 42.188,50 c 1.292,0 2.343,1.051 2.343,2.344 0,1.293 -1.051,2.344 -2.343,2.344 h -9.376 c -1.292,0 -2.343,-1.051 -2.343,-2.344 0,-1.293 1.051,-2.344 2.343,-2.344 z m 9.374,-15.625 c 1.293,0 2.344,1.051 2.344,2.344 0,1.293 -1.051,2.343 -2.344,2.343 H 23.438 c -1.293,0 -2.344,-1.05 -2.344,-2.343 0,-1.293 1.051,-2.344 2.344,-2.344 z M 60.938,18.75 c 1.292,0 2.343,1.051 2.343,2.344 0,1.293 -1.051,2.344 -2.343,2.344 H 14.062 c -1.292,0 -2.343,-1.051 -2.343,-2.344 0,-1.293 1.051,-2.344 2.343,-2.344 z" style="fill:currentColor;fill-opacity:1;fill-rule:nonzero;stroke:none" transform="scale(1.3333333)" /> </g>
</svg>

