<?xml version="1.0" encoding="UTF-8" standalone="no"?> <svg version="1.1" id="I705515cb42214462a158aa138050a48420251106112458" width="100" height="100" viewBox="0 0 100 100" xmlns="http://www.w3.org/2000/svg" xmlns:svg="http://www.w3.org/2000/svg"> <defs id="I5321a0c03d464c7295bc4f6e25e43c5e20251106112458" /> <g id="Id1800caaf9d64006ac6e50ee2f58769d20251106112458"> <path id="Iaec311ea4c114869b2bc60db24d06fc420251106112458" d="m 75,37.266 c 0,-0.184 0,-0.395 -0.008,-0.637 -0.008,-0.676 -0.027,-1.438 -0.043,-2.25 C 74.883,32.043 74.766,29.715 74.582,27.523 74.332,24.5 73.961,21.98 73.461,20.09 72.383,16.07 69.246,12.93 65.23,11.844 62.863,11.207 58.227,10.816 51.695,10.57 48.59,10.453 45.27,10.379 41.945,10.336 40.781,10.32 39.703,10.312 38.73,10.305 h -2.46 c -0.973,0.007 -2.051,0.015 -3.215,0.031 -3.325,0.043 -6.645,0.117 -9.75,0.234 C 16.773,10.824 12.129,11.215 9.77,11.844 5.75,12.93 2.617,16.07 1.539,20.09 1.031,21.98 0.668,24.5 0.418,27.523 0.234,29.715 0.117,32.043 0.051,34.379 0.023,35.191 0.016,35.953 0.008,36.629 0.008,36.871 0,37.082 0,37.266 v 0.468 c 0,0.184 0,0.395 0.008,0.637 0.008,0.676 0.027,1.438 0.043,2.25 0.066,2.336 0.183,4.664 0.367,6.856 0.25,3.023 0.621,5.543 1.121,7.433 1.074,4.012 4.219,7.176 8.231,8.246 2.359,0.637 7.003,1.028 13.535,1.274 3.105,0.117 6.425,0.191 9.75,0.234 1.164,0.016 2.242,0.024 3.215,0.031 h 2.46 c 0.973,-0.007 2.051,-0.015 3.215,-0.031 3.325,-0.043 6.645,-0.117 9.75,-0.234 6.532,-0.254 11.176,-0.645 13.535,-1.274 4.012,-1.07 7.157,-4.226 8.231,-8.246 0.508,-1.89 0.871,-4.41 1.121,-7.433 0.184,-2.192 0.301,-4.52 0.367,-6.856 0.028,-0.812 0.035,-1.574 0.043,-2.25 0,-0.242 0.008,-0.453 0.008,-0.637 z m -6.027,0.433 c 0,0.176 0,0.371 -0.008,0.598 -0.008,0.652 -0.024,1.371 -0.043,2.148 -0.059,2.227 -0.176,4.453 -0.352,6.524 -0.226,2.695 -0.543,4.902 -0.937,6.386 -0.52,1.934 -2.043,3.465 -3.965,3.973 -1.758,0.469 -6.188,0.848 -12.207,1.074 -3.047,0.118 -6.328,0.192 -9.602,0.235 -1.144,0.015 -2.207,0.023 -3.164,0.023 h -2.39 L 33.141,58.637 C 29.867,58.594 26.594,58.52 23.539,58.402 17.52,58.168 13.082,57.797 11.332,57.328 9.41,56.812 7.887,55.289 7.367,53.355 6.973,51.871 6.656,49.664 6.43,46.969 6.254,44.898 6.145,42.672 6.078,40.445 6.051,39.668 6.043,38.941 6.035,38.297 c 0,-0.227 -0.008,-0.43 -0.008,-0.598 v -0.398 c 0,-0.176 0,-0.371 0.008,-0.598 0.008,-0.652 0.024,-1.371 0.043,-2.148 0.059,-2.227 0.176,-4.453 0.352,-6.524 0.226,-2.695 0.543,-4.902 0.937,-6.386 0.52,-1.934 2.043,-3.465 3.965,-3.973 1.758,-0.469 6.188,-0.848 12.207,-1.074 3.047,-0.118 6.328,-0.192 9.602,-0.235 1.144,-0.015 2.207,-0.023 3.164,-0.023 h 2.39 l 3.164,0.023 c 3.274,0.043 6.547,0.117 9.602,0.235 6.019,0.234 10.457,0.605 12.207,1.074 1.922,0.516 3.445,2.039 3.965,3.973 0.394,1.484 0.711,3.691 0.937,6.386 0.176,2.071 0.285,4.297 0.352,6.524 0.027,0.777 0.035,1.504 0.043,2.148 0,0.227 0.008,0.43 0.008,0.598 z M 30.051,48.715 49.469,37.418 30.051,26.285 Z" style="fill:currentColor;fill-opacity:1;fill-rule:nonzero;stroke:none" transform="scale(1.3333333)" /> </g>
</svg>

