<?xml version="1.0" encoding="UTF-8" standalone="no"?> <svg version="1.1" id="I23189eb61104477f825b940484b0d24020251106102215" width="100" height="100" viewBox="0 0 100 100" xmlns="http://www.w3.org/2000/svg" xmlns:svg="http://www.w3.org/2000/svg"> <defs id="I1a3f844c367b4e38b23e8b8fa955f27020251106102215" /> <g id="Ifc8170ac0648464cad307c597dda706120251106102215"> <path id="Ib1cc1ee19dc74fc3ad59db65780218fb20251106102215" d="m 52.23,20.758 v -4.016 c 0,-0.371 -0.3,-0.672 -0.668,-0.672 H 19.418 c -0.367,0 -0.668,0.301 -0.668,0.672 v 4.016 c 0,0.371 0.301,0.672 0.668,0.672 h 32.144 c 0.368,0 0.668,-0.301 0.668,-0.672 z m -32.812,7.367 c -0.367,0 -0.668,0.301 -0.668,0.668 v 4.019 c 0,0.368 0.301,0.668 0.668,0.668 H 34.82 c 0.371,0 0.672,-0.3 0.672,-0.668 v -4.019 c 0,-0.367 -0.301,-0.668 -0.672,-0.668 z m 31.477,9.711 c -9.989,0 -18.083,8.094 -18.083,18.078 0,9.988 8.094,18.082 18.083,18.082 9.984,0 18.078,-8.094 18.078,-18.082 0,-9.984 -8.094,-18.078 -18.078,-18.078 z m 8.996,27.078 c -2.403,2.402 -5.598,3.723 -8.996,3.723 -3.399,0 -6.598,-1.321 -9,-3.723 -2.403,-2.402 -3.727,-5.602 -3.727,-9 0,-3.398 1.324,-6.594 3.727,-8.996 2.402,-2.402 5.601,-3.727 9,-3.727 3.398,0 6.593,1.325 8.996,3.727 2.402,2.402 3.726,5.598 3.726,8.996 0,3.398 -1.324,6.598 -3.726,9 z M 48.215,62.613 c 0,3.571 5.355,3.571 5.355,0 0,-3.574 -5.355,-3.574 -5.355,0 z m 1.004,-5.359 h 3.347 c 0.368,0 0.672,-0.301 0.672,-0.668 v -9.375 c 0,-0.371 -0.304,-0.672 -0.672,-0.672 h -3.347 c -0.367,0 -0.668,0.301 -0.668,0.672 v 9.375 c 0,0.367 0.301,0.668 0.668,0.668 z M 31.473,65.961 H 12.055 V 7.031 H 58.93 v 28.793 c 0,0.371 0.3,0.672 0.668,0.672 h 4.687 c 0.367,0 0.672,-0.301 0.672,-0.672 V 3.684 c 0,-1.481 -1.199,-2.68 -2.68,-2.68 H 8.707 c -1.484,0 -2.68,1.199 -2.68,2.68 v 65.625 c 0,1.48 1.196,2.679 2.68,2.679 h 22.766 c 0.367,0 0.672,-0.304 0.672,-0.672 v -4.687 c 0,-0.367 -0.305,-0.668 -0.672,-0.668 z" style="fill:currentColor;fill-opacity:1;fill-rule:nonzero;stroke:none" transform="scale(1.3333333)" /> </g>
</svg>

