<?xml version="1.0" encoding="UTF-8" standalone="no"?> <svg version="1.1" id="I1fc404adcb0945889ef31b2218bac71e20251106105132" width="100" height="100" viewBox="0 0 100 100" xmlns="http://www.w3.org/2000/svg" xmlns:svg="http://www.w3.org/2000/svg"> <defs id="I5b29783e3741475a927ce0c86d79c9f320251106105132" /> <g id="I46b2c23689634a98bc61baf3a9979b7820251106105132"> <path id="Icbe0d0edd2144dea9da9bd1fb49351b620251106105132" d="m 68.305,4.02 c 1.48,0 2.675,1.195 2.675,2.675 v 61.61 c 0,1.48 -1.195,2.675 -2.675,2.675 H 6.695 C 5.215,70.98 4.02,69.785 4.02,68.305 V 6.695 C 4.02,5.215 5.215,4.02 6.695,4.02 Z m -3.348,6.023 H 10.043 V 64.957 H 64.957 Z M 48.215,23.004 c 0.004,0 0.004,0 0.008,0.008 l 3.769,3.765 c 0,0.004 0.004,0.004 0.004,0.008 0,0 0,0.004 0,0.004 0,0.004 0,0.004 -0.004,0.008 L 41.289,37.5 51.992,48.203 c 0,0 0,0.004 0.004,0.004 v 0.004 c 0,0 0,0.004 0,0.004 0,0.004 0,0.004 -0.004,0.008 l -3.769,3.769 c -0.004,0 -0.004,0.004 -0.008,0.004 0,0 -0.004,0 -0.004,0 -0.004,0 -0.004,0 -0.008,-0.004 L 37.5,41.289 26.797,51.992 c -0.004,0.004 -0.004,0.004 -0.008,0.004 0,0 -0.004,0 -0.004,0 -0.004,0 -0.004,0 -0.008,-0.004 l -3.769,-3.769 c 0,-0.004 -0.004,-0.004 -0.004,-0.008 0,0 0,-0.004 0,-0.004 0,-0.004 0,-0.004 0.008,-0.008 L 33.711,37.5 23.008,26.797 c 0,0 0,-0.004 -0.004,-0.004 v -0.004 c 0,0 0,-0.004 0,-0.004 0,-0.004 0,-0.004 0.004,-0.008 l 3.769,-3.769 c 0,0 0.004,-0.004 0.008,-0.004 0,0 0.004,0 0.004,0 0.004,0 0.004,0 0.008,0.008 L 37.5,33.711 48.203,23.012 c 0.004,-0.008 0.004,-0.008 0.008,-0.008 z" style="fill:currentColor;fill-opacity:1;fill-rule:evenodd;stroke:none" transform="scale(1.3333333)" /> </g>
</svg>

