<?xml version="1.0" encoding="UTF-8" standalone="no"?> <svg version="1.1" id="Ic7f0adcb42c34a5490d993f536808d6d20251106152729" width="100" height="100" viewBox="0 0 100 100" xmlns="http://www.w3.org/2000/svg" xmlns:svg="http://www.w3.org/2000/svg"> <defs id="Ie9d54217b7314bab9bf4798a3de9fb8020251106152729" /> <g id="I5269268d32d844a598077a13f234401120251106152729"> <path id="Iab378b316e064d57ace046eccb37a81820251106152729" d="m 56.918,66.965 c 5.551,0 10.047,-4.496 10.047,-10.047 V 44.867 c 0,-1.109 -0.899,-2.012 -2.008,-2.012 -1.109,0 -2.012,0.903 -2.012,2.012 v 12.051 c 0,3.328 -2.699,6.027 -6.027,6.027 H 37.5 V 44.867 C 37.5,40.797 34.203,37.5 30.133,37.5 H 12.055 V 18.082 c 0,-3.332 2.695,-6.027 6.027,-6.027 h 12.051 c 1.109,0 2.012,-0.903 2.012,-2.012 0,-1.109 -0.903,-2.008 -2.012,-2.008 H 18.082 c -5.551,0 -10.047,4.496 -10.047,10.047 v 38.836 c 0,5.551 4.496,10.047 10.047,10.047 z M 33.48,44.867 V 62.945 H 18.082 c -3.332,0 -6.027,-2.699 -6.027,-6.027 V 41.52 h 18.078 c 1.851,0 3.347,1.496 3.347,3.347 z M 66.965,32.812 c 0,-1.109 -0.899,-2.007 -2.008,-2.007 H 47.039 l 19.336,-19.34 c 0.785,-0.785 0.785,-2.055 0,-2.84 -0.785,-0.785 -2.055,-0.785 -2.84,0 L 44.195,27.961 V 10.043 c 0,-1.109 -0.898,-2.008 -2.007,-2.008 -1.11,0 -2.008,0.899 -2.008,2.008 v 22.769 c 0,1.11 0.898,2.008 2.008,2.008 h 22.769 c 1.109,0 2.008,-0.898 2.008,-2.008 z" style="fill:currentColor;fill-opacity:1;fill-rule:nonzero;stroke:none" transform="scale(1.3333333)" /> </g>
</svg>

