<svg version="1.2" xmlns="http://www.w3.org/2000/svg" viewBox="0 0 100 100" width="100" height="100">
	<title>New Project</title>
	<defs>
		<linearGradient id="Ibda3bcef9e514a22b3f83ab794ed055e20251030155105" x2="1" gradientUnits="userSpaceOnUse" gradientTransform="matrix(93.884,0,0,93.884,3.058,50)">
			<stop offset="0" stop-color="#ff0000"/>
			<stop offset="1" stop-color="#ff4545"/>
		</linearGradient>
		<linearGradient id="I4f5edf39dfd24722b609d008196f34ab20251030155105" x2="1" gradientUnits="userSpaceOnUse" gradientTransform="matrix(93.884,0,0,93.884,3.058,50)">
			<stop offset="0" stop-color="#ff0000"/>
			<stop offset="1" stop-color="#ff4545"/>
		</linearGradient>
	</defs>
	<style>
		.C6f30cac48b0a4ddf83ca24edd11574ab20251030155105 { fill: url(#Ibda3bcef9e514a22b3f83ab794ed055e20251030155105) } 
		.C311328ddc7fa46b7a9db02a0fee1870920251030155105 { fill: url(#I4f5edf39dfd24722b609d008196f34ab20251030155105) } 
	</style>
	<path id="I38ef1a96977844bfa29ef6502a81a46d20251030155105" fill-rule="evenodd" class="C6f30cac48b0a4ddf83ca24edd11574ab20251030155105" d="m25 5.1l69.9 69.9c2.7 2.7 2.7 7.1 0 9.9l-10 10c-2.8 2.7-7.2 2.7-9.9 0l-69.9-69.9c-2.7-2.7-2.7-7.1 0-9.9l10-10c2.8-2.7 7.2-2.7 9.9 0z"/>
	<path id="I480305480b894e2ca9635f1af3e5574420251030155105" fill-rule="evenodd" class="C311328ddc7fa46b7a9db02a0fee1870920251030155105" d="m5.1 75l69.9-69.9c2.7-2.7 7.1-2.7 9.9 0l10 10c2.7 2.8 2.7 7.2 0 9.9l-69.9 69.9c-2.7 2.7-7.1 2.7-9.9 0l-10-10c-2.7-2.8-2.7-7.2 0-9.9z"/>
</svg>









