<svg version="1.2" xmlns="http://www.w3.org/2000/svg" viewBox="0 0 100 100" width="100" height="100">
	<title>New Project</title>
	<defs>
		<linearGradient id="Ia5896695a9e84d3391fd2adab559827820251030142523" x2="1" gradientUnits="userSpaceOnUse" gradientTransform="matrix(93.884,0,0,93.884,3.058,50)">
			<stop offset="0" stop-color="#ff0000"/>
			<stop offset="1" stop-color="#ff4545"/>
		</linearGradient>
		<linearGradient id="I011d701db7ae497ba259bc16dab8986920251030142523" x2="1" gradientUnits="userSpaceOnUse" gradientTransform="matrix(93.884,0,0,93.884,3.058,50)">
			<stop offset="0" stop-color="#ff0000"/>
			<stop offset="1" stop-color="#ff4545"/>
		</linearGradient>
	</defs>
	<style>
		.C48b3fcc82ec24574829710df0144dd5520251030142523 { fill: url(#Ia5896695a9e84d3391fd2adab559827820251030142523) } 
		.Cdd1b64e55ea14f2493b9a75feacbe28220251030142523 { fill: url(#I011d701db7ae497ba259bc16dab8986920251030142523) } 
	</style>
	<path id="I93d22d5fd62a42da80eb92ae7e512fcc20251030142523" fill-rule="evenodd" class="C48b3fcc82ec24574829710df0144dd5520251030142523" d="m25 5.1l69.9 69.9c2.7 2.7 2.7 7.1 0 9.9l-10 10c-2.8 2.7-7.2 2.7-9.9 0l-69.9-69.9c-2.7-2.7-2.7-7.1 0-9.9l10-10c2.8-2.7 7.2-2.7 9.9 0z"/>
	<path id="I9938b1bf4b0749a8a31dec1b60e589ac20251030142523" fill-rule="evenodd" class="Cdd1b64e55ea14f2493b9a75feacbe28220251030142523" d="m5.1 75l69.9-69.9c2.7-2.7 7.1-2.7 9.9 0l10 10c2.7 2.8 2.7 7.2 0 9.9l-69.9 69.9c-2.7 2.7-7.1 2.7-9.9 0l-10-10c-2.7-2.8-2.7-7.2 0-9.9z"/>
</svg>







