<?xml version="1.0" encoding="UTF-8" standalone="no"?> <svg version="1.1" id="I2a811d00098f4513bbeb04216e8e213020251106170956" width="100" height="100" viewBox="0 0 100 100" xmlns="http://www.w3.org/2000/svg" xmlns:svg="http://www.w3.org/2000/svg"> <defs id="Ia77e141c8250493e8d88ca317c6661f720251106170956" /> <g id="Ib6b9cdabe21b48e5812ffd0b2abf213020251106170956"> <path id="I114b8b6fe8b543f78b56c3e745ec854d20251106170956" d="m 16.742,13.395 h 36.16 c 4.641,0 8.434,3.632 8.692,8.21 l 0.011,0.493 v 25.445 c 0,4.645 -3.632,8.437 -8.21,8.695 l -0.493,0.012 h -36.16 c -4.644,0 -8.437,-3.633 -8.691,-8.211 L 8.035,47.543 V 22.098 c 0,-4.641 3.633,-8.434 8.211,-8.692 z M 57.59,27.785 35.758,39.277 c -0.504,0.266 -1.09,0.301 -1.613,0.114 L 33.887,39.277 12.055,27.789 v 19.754 c 0,2.461 1.894,4.477 4.3,4.672 l 0.387,0.015 h 36.16 c 2.457,0 4.477,-1.89 4.672,-4.3 L 57.59,47.543 Z M 52.902,17.41 h -36.16 c -2.461,0 -4.476,1.895 -4.672,4.305 l -0.015,0.383 v 1.148 L 34.82,35.23 57.59,23.246 v -1.148 c 0,-2.457 -1.895,-4.477 -4.305,-4.672 z m -36.8,41.52 c 1.546,2.414 4.257,4.015 7.339,4.015 h 30.801 c 7.766,0 14.063,-6.293 14.063,-14.062 v -20.09 c 0,-3.082 -1.602,-5.789 -4.016,-7.336 v 27.426 c 0,5.547 -4.5,10.047 -10.047,10.047 z" style="fill:currentColor;fill-opacity:1;fill-rule:nonzero;stroke:none" transform="scale(1.3333333)" /> </g>
</svg>

