<?xml version="1.0" encoding="UTF-8" standalone="no"?> <svg version="1.1" id="Ia618abd4e0624ddc87c7cb5d6f2c2ea420251110133655" width="100" height="100" viewBox="0 0 100 100" xmlns="http://www.w3.org/2000/svg" xmlns:svg="http://www.w3.org/2000/svg"> <defs id="I70e972e6c4694446ab2f67ee0bd3f48320251110133655" /> <g id="Ic6bb4232234d40cca678e8c554294b7320251110133655"> <path id="I78468b2ba91f4c7d864e8d79970e2e3920251110133655" d="m 18.297,25.594 c 0.676,-0.785 0.586,-1.969 -0.203,-2.641 -0.785,-0.676 -1.969,-0.586 -2.641,0.203 L 4.203,36.281 c -0.605,0.699 -0.605,1.739 0,2.438 l 11.25,13.125 c 0.672,0.789 1.856,0.879 2.641,0.203 0.789,-0.672 0.879,-1.856 0.203,-2.641 L 8.094,37.5 Z M 67.344,41.406 C 67.141,40.305 66.742,39.27 66.188,38.336 L 66.906,37.5 56.703,25.594 c -0.676,-0.785 -0.586,-1.969 0.203,-2.641 0.785,-0.676 1.969,-0.586 2.641,0.203 l 11.25,13.125 c 0.601,0.699 0.601,1.739 0,2.438 l -2.5,2.918 C 67.988,41.543 67.668,41.469 67.344,41.406 Z M 26.25,37.5 c 0,2.07 -1.68,3.75 -3.75,3.75 -2.07,0 -3.75,-1.68 -3.75,-3.75 0,-2.07 1.68,-3.75 3.75,-3.75 2.07,0 3.75,1.68 3.75,3.75 z m 11.25,3.75 c 2.07,0 3.75,-1.68 3.75,-3.75 0,-2.07 -1.68,-3.75 -3.75,-3.75 -2.07,0 -3.75,1.68 -3.75,3.75 0,2.07 1.68,3.75 3.75,3.75 z M 45,45 V 43.125 C 45,40.02 47.52,37.5 50.625,37.5 h 7.5 c 3.105,0 5.625,2.52 5.625,5.625 V 45 h 1.875 c 3.105,0 5.625,2.52 5.625,5.625 v 5.625 h -7.5 V 54.375 C 63.75,53.34 62.91,52.5 61.875,52.5 60.84,52.5 60,53.34 60,54.375 V 56.25 H 48.75 V 54.375 C 48.75,53.34 47.91,52.5 46.875,52.5 45.84,52.5 45,53.34 45,54.375 V 56.25 H 37.5 V 50.625 C 37.5,47.52 40.02,45 43.125,45 Z m 3.75,-1.875 V 45 H 60 V 43.125 C 60,42.09 59.16,41.25 58.125,41.25 h -7.5 c -1.035,0 -1.875,0.84 -1.875,1.875 z M 63.75,60 h 7.5 v 5.625 c 0,3.105 -2.52,5.625 -5.625,5.625 h -22.5 C 40.02,71.25 37.5,68.73 37.5,65.625 V 60 H 45 v 1.875 c 0,1.035 0.84,1.875 1.875,1.875 1.035,0 1.875,-0.84 1.875,-1.875 V 60 H 60 v 1.875 c 0,1.035 0.84,1.875 1.875,1.875 1.035,0 1.875,-0.84 1.875,-1.875 z" style="fill:currentColor;fill-opacity:1;fill-rule:nonzero;stroke:none" transform="scale(1.3333333)" /> </g>
</svg>

