<?xml version="1.0" encoding="UTF-8" standalone="no"?> <svg version="1.1" id="I16bb615b24524ef594e8d82f5795682820251106163937" width="100" height="100" viewBox="0 0 100 100" xmlns="http://www.w3.org/2000/svg" xmlns:svg="http://www.w3.org/2000/svg"> <defs id="Ifbae1ad4f4044392b9087594bcd37d6720251106163937" /> <g id="I93817ddccd634a76b8d086ec03739eda20251106163937"> <path id="I29315a6ba4094edc9395a2a2fc560fea20251106163937" d="m 49.594,8.34 15.527,15.527 c 2.746,2.746 2.746,7.195 0,9.942 L 37.988,60.938 h 19.055 c 1.187,0 2.168,0.882 2.324,2.027 l 0.02,0.316 c 0,1.188 -0.879,2.168 -2.024,2.321 l -0.32,0.023 -26.281,0.004 c -1.926,0.105 -3.883,-0.578 -5.356,-2.051 L 9.879,48.055 c -2.746,-2.746 -2.746,-7.2 0,-9.946 L 39.648,8.34 c 2.747,-2.746 7.2,-2.746 9.946,0 z M 17.84,36.773 13.195,41.426 c -0.918,0.914 -0.918,2.398 0,3.312 l 15.528,15.528 c 0.457,0.457 1.054,0.687 1.656,0.687 l 0.09,-0.015 0.121,0.003 c 0.527,-0.046 1.043,-0.273 1.445,-0.675 L 36.68,55.617 Z M 42.965,11.656 21.156,33.457 39.996,52.301 61.805,30.496 c 0.914,-0.914 0.914,-2.398 0,-3.316 L 46.277,11.656 c -0.914,-0.918 -2.398,-0.918 -3.312,0 z" style="fill:currentColor;fill-opacity:1;fill-rule:nonzero;stroke:none" transform="scale(1.3333333)" /> </g>
</svg>

