<?xml version="1.0" encoding="UTF-8" standalone="no"?> <svg version="1.1" id="I26b7ff1b20a14db3b3308fb035a9611a20251106155157" width="100" height="100" viewBox="0 0 100 100" xmlns="http://www.w3.org/2000/svg" xmlns:svg="http://www.w3.org/2000/svg"> <defs id="I64934baa57394c6c9100e2eb3c3f72f120251106155157" /> <g id="I957f8ec10eb443d8a0f543ac66ef411120251106155157"> <path id="I2246175a06794a2b871ffca15b5addf920251106155157" d="m 56.25,64.062 c 0.863,0 1.562,-0.703 1.562,-1.562 V 31.25 H 43.75 C 40.301,31.25 37.5,28.449 37.5,25 V 10.938 H 18.75 c -0.863,0 -1.562,0.703 -1.562,1.562 V 35.348 C 15.648,35.004 14.062,34.926 12.5,35.109 V 12.5 c 0,-3.449 2.801,-6.25 6.25,-6.25 h 19.289 c 0.086,0 0.172,0.012 0.258,0.023 0.058,0.008 0.121,0.016 0.183,0.02 0.672,0.047 1.332,0.176 1.95,0.434 0.179,0.074 0.347,0.171 0.519,0.269 0.051,0.031 0.102,0.063 0.156,0.09 0.047,0.027 0.098,0.051 0.149,0.078 0.086,0.039 0.172,0.082 0.25,0.137 0.242,0.164 0.461,0.363 0.684,0.562 0.035,0.032 0.074,0.063 0.113,0.09 0.054,0.039 0.105,0.082 0.152,0.129 l 18.215,18.211 c 1.172,1.172 1.832,2.762 1.832,4.418 V 62.5 c 0,3.449 -2.801,6.25 -6.25,6.25 H 29.656 l 4.688,-4.688 z M 54.309,26.562 42.188,14.441 V 25 c 0,0.859 0.699,1.562 1.562,1.562 z M 20.262,70.406 c 0.461,0.457 1.058,0.688 1.66,0.688 0.598,0 1.199,-0.231 1.656,-0.688 L 37.355,56.633 c 4.231,-4.231 4.231,-11.09 0,-15.321 -4.23,-4.234 -11.089,-4.234 -15.324,0 l -0.109,0.11 -0.113,-0.11 c -4.231,-4.234 -11.09,-4.234 -15.321,0 -4.23,4.231 -4.23,11.09 0,15.321 z" style="fill:currentColor;fill-opacity:1;fill-rule:nonzero;stroke:none" transform="scale(1.3333333)" /> </g>
</svg>

