<?xml version="1.0" encoding="UTF-8" standalone="no"?> <svg version="1.1" id="If66c938effd5411b8a43d77cc3ec424c20251106125938" width="100" height="100" viewBox="0 0 100 100" xmlns="http://www.w3.org/2000/svg" xmlns:svg="http://www.w3.org/2000/svg"> <defs id="I7e0b140f65bd43a5905531c21f7fe9a720251106125938" /> <g id="I1b56de53dbd84f1eb39304c1a084e3af20251106125938"> <path id="Ib6540b119d064a2591457ba6da78b5ea20251106125938" d="m 61.812,13.375 c 0.918,-0.914 0.918,-2.398 0,-3.313 -0.914,-0.917 -2.398,-0.917 -3.312,0 L 32.812,35.746 V 17.969 c 0,-1.293 -1.05,-2.344 -2.343,-2.344 -1.293,0 -2.344,1.051 -2.344,2.344 v 23.437 c 0,1.293 1.051,2.344 2.344,2.344 h 23.437 c 1.293,0 2.344,-1.051 2.344,-2.344 0,-1.293 -1.051,-2.344 -2.344,-2.344 H 36.129 Z M 18.75,65.625 c 5.176,0 9.375,-4.195 9.375,-9.375 0,-5.18 -4.199,-9.375 -9.375,-9.375 -5.176,0 -9.375,4.195 -9.375,9.375 0,5.18 4.199,9.375 9.375,9.375 z m 0,-4.687 c -2.59,0 -4.688,-2.098 -4.688,-4.688 0,-2.59 2.098,-4.688 4.688,-4.688 2.59,0 4.688,2.098 4.688,4.688 0,2.59 -2.098,4.688 -4.688,4.688 z" style="fill:currentColor;fill-opacity:1;fill-rule:nonzero;stroke:none" transform="scale(1.3333333)" /> </g>
</svg>

