<?xml version="1.0" encoding="UTF-8" standalone="no"?> <svg version="1.1" id="Id9a2a429c59848c7956f2619c348178020251110124421" width="100" height="100" viewBox="0 0 100 100" xmlns="http://www.w3.org/2000/svg" xmlns:svg="http://www.w3.org/2000/svg"> <defs id="Ic4206d18e8fc4917b038ed551a63f65920251110124421" /> <g id="I6d7e068247d9423abcb99ffde3300f5220251110124421"> <path id="I94dc0b039b84484ca9477ca3f8e3dfd620251110124421" d="m 36.32,5.738 c 0.703,-0.508 1.653,-0.508 2.352,0 1.723,1.242 5.594,3.512 10.441,5.465 4.848,1.957 10.504,3.527 15.836,3.527 1.11,0 2.008,0.903 2.008,2.012 v 20.762 c 0,8.109 -4.559,15.648 -10.277,21.297 -5.715,5.644 -12.93,9.746 -18.84,10.777 l -0.344,0.059 -0.344,-0.059 C 31.246,68.547 24.027,64.445 18.312,58.801 12.598,53.152 8.035,45.613 8.035,37.504 V 16.742 c 0,-1.109 0.899,-2.012 2.008,-2.012 5.336,0 10.992,-1.57 15.84,-3.527 C 30.73,9.25 34.598,6.98 36.32,5.738 Z" style="fill:currentColor;fill-opacity:1;fill-rule:nonzero;stroke:none" transform="scale(1.3333333)" /> </g>
</svg>

