<?xml version="1.0" encoding="UTF-8" standalone="no"?> <svg version="1.1" id="Ieae25ae5e74041c5b0e814baaa04109b20251106163937" width="100" height="100" viewBox="0 0 100 100" xmlns="http://www.w3.org/2000/svg" xmlns:svg="http://www.w3.org/2000/svg"> <defs id="I42c6069ee47f4fc490896592547cf71d20251106163937" /> <g id="I3b64500f76e348749a1a5717c206a10820251106163937"> <path id="Ica1cb5526ac841d4be075aac3ba03e5c20251106163937" d="M 10.25,6.938 C 9.336,6.02 7.852,6.02 6.938,6.938 6.02,7.852 6.02,9.336 6.938,10.25 l 0.394,0.398 c -0.695,1.243 -1.09,2.672 -1.09,4.196 v 10.945 l 0.02,0.316 c 0.156,1.145 1.136,2.028 2.324,2.028 1.293,0 2.344,-1.051 2.344,-2.344 V 14.844 l 0.019,-0.399 c 0.004,-0.054 0.012,-0.109 0.02,-0.164 L 22.453,25.77 c -0.984,0.726 -1.855,1.492 -2.625,2.261 -1.734,1.731 -2.926,3.465 -3.687,4.774 -0.383,0.652 -0.661,1.207 -0.848,1.609 -0.094,0.199 -0.164,0.363 -0.211,0.481 -0.027,0.058 -0.047,0.109 -0.059,0.144 l -0.019,0.047 c -0.008,0.019 -0.504,2.348 1.359,3.047 1.211,0.453 2.559,-0.156 3.016,-1.363 l 0.004,-0.008 0.023,-0.063 c 0.028,-0.066 0.074,-0.172 0.141,-0.312 0.129,-0.282 0.34,-0.703 0.641,-1.223 0.605,-1.035 1.562,-2.426 2.953,-3.82 0.754,-0.754 1.64,-1.512 2.671,-2.215 l 4.672,4.668 c -2.398,2.008 -3.922,5.019 -3.922,8.391 0,6.039 4.899,10.937 10.938,10.937 3.371,0 6.383,-1.523 8.391,-3.922 L 60.715,64.027 C 60.527,64.055 60.34,64.07 60.148,64.07 H 49.211 l -0.32,0.02 c -1.145,0.156 -2.024,1.137 -2.024,2.324 0,1.293 1.047,2.344 2.344,2.344 h 10.937 l 0.524,-0.016 C 62,68.66 63.25,68.281 64.348,67.664 l 0.402,0.398 c 0.914,0.918 2.398,0.918 3.312,0 0.915,-0.914 0.915,-2.398 0,-3.312 z m 32.301,38.929 c -1.137,1.559 -2.977,2.571 -5.051,2.571 -3.453,0 -6.25,-2.797 -6.25,-6.25 0,-2.075 1.012,-3.915 2.57,-5.051 z M 35.781,25.84 31.629,21.688 c 1.785,-0.379 3.738,-0.594 5.871,-0.594 8.52,0 14.172,3.433 17.672,6.937 1.734,1.731 2.926,3.465 3.687,4.774 0.383,0.652 0.661,1.207 0.848,1.609 0.094,0.199 0.164,0.363 0.211,0.481 0.027,0.058 0.047,0.109 0.059,0.144 l 0.019,0.047 0.008,0.016 v 0.007 l 0.004,0.004 c 0.453,1.215 -0.16,2.563 -1.371,3.02 -1.207,0.453 -2.551,-0.184 -3.02,-1.371 l -0.023,-0.063 c 0,0 -0.074,-0.172 -0.141,-0.312 -0.129,-0.282 -0.34,-0.703 -0.641,-1.223 -0.605,-1.035 -1.562,-2.426 -2.953,-3.82 -2.75,-2.746 -7.254,-5.563 -14.359,-5.563 -0.59,0 -1.164,0.02 -1.719,0.059 z m 32.961,32.957 -4.687,-4.688 v -4.89 c 0,-1.293 1.047,-2.344 2.343,-2.344 1.184,0 2.164,0.883 2.321,2.027 l 0.023,0.317 z M 20.883,10.938 16.195,6.25 h 9.578 c 1.293,0 2.344,1.051 2.344,2.344 0,1.187 -0.883,2.168 -2.027,2.324 l -0.317,0.02 z M 8.586,46.875 c 1.184,0 2.164,0.883 2.32,2.027 l 0.024,0.317 v 10.945 l 0.019,0.398 c 0.188,1.84 1.649,3.301 3.485,3.489 l 0.402,0.019 h 10.937 l 0.317,0.02 c 1.144,0.156 2.027,1.137 2.027,2.324 0,1.188 -0.883,2.168 -2.027,2.32 l -0.317,0.024 H 14.836 L 14.312,68.742 C 9.988,68.48 6.527,65.027 6.258,60.707 L 6.242,60.164 V 49.219 l 0.02,-0.317 C 6.418,47.758 7.398,46.875 8.586,46.875 Z M 60.148,6.25 60.672,6.266 c 4.32,0.261 7.781,3.714 8.051,8.035 l 0.019,0.543 v 10.945 l -0.023,0.316 c -0.157,1.145 -1.137,2.028 -2.321,2.028 -1.187,0 -2.168,-0.883 -2.324,-2.028 L 64.055,25.789 V 14.844 l -0.024,-0.399 c -0.183,-1.84 -1.644,-3.3 -3.484,-3.488 L 60.148,10.938 H 49.211 l -0.32,-0.02 c -1.145,-0.156 -2.024,-1.137 -2.024,-2.324 0,-1.188 0.879,-2.168 2.024,-2.324 l 0.32,-0.02 z" style="fill:currentColor;fill-opacity:1;fill-rule:nonzero;stroke:none" transform="scale(1.3333333)" /> </g>
</svg>

