<?xml version="1.0" encoding="UTF-8" standalone="no"?> <svg version="1.1" id="I18e66a048c3548608439b7e6579ddc3220251110123029" width="100" height="100" viewBox="0 0 100 100" xmlns="http://www.w3.org/2000/svg" xmlns:svg="http://www.w3.org/2000/svg"> <defs id="Ibc77e0e885de4ab2929694e91cce15a320251110123029" /> <g id="If772281d26a64d2ea52069ab021ce30020251110123029"> <path id="I8b4d1a9e16df4730a80ccb80f3ea2a0b20251110123029" d="m 15.414,10.715 c -5.551,0 -10.047,4.496 -10.047,10.043 v 30.804 c 0,5.547 4.496,10.043 10.047,10.043 h 44.184 c 5.55,0 10.047,-4.496 10.047,-10.043 V 20.758 c 0,-5.547 -4.497,-10.043 -10.047,-10.043 z M 29.465,57.59 V 14.73 h 30.133 c 3.332,0 6.027,2.7 6.027,6.028 v 30.804 c 0,3.329 -2.695,6.028 -6.027,6.028 z M 13.395,22.77 c 0,-1.11 0.898,-2.012 2.007,-2.012 h 4.016 c 1.109,0 2.012,0.902 2.012,2.012 0,1.109 -0.903,2.007 -2.012,2.007 h -4.016 c -1.109,0 -2.007,-0.898 -2.007,-2.007 z m 0,13.39 c 0,-1.109 0.898,-2.008 2.007,-2.008 h 4.016 c 1.109,0 2.012,0.899 2.012,2.008 0,1.11 -0.903,2.008 -2.012,2.008 h -4.016 c -1.109,0 -2.007,-0.898 -2.007,-2.008 z m 2.007,11.383 h 4.016 c 1.109,0 2.012,0.902 2.012,2.012 0,1.109 -0.903,2.007 -2.012,2.007 h -4.016 c -1.109,0 -2.007,-0.898 -2.007,-2.007 0,-1.11 0.898,-2.012 2.007,-2.012 z" style="fill:currentColor;fill-opacity:1;fill-rule:nonzero;stroke:none" transform="scale(1.3333333)" /> </g>
</svg>

