<?xml version="1.0" encoding="UTF-8" standalone="no"?> <svg version="1.1" id="I15fc8d2b7ecf4c07bf738436d8685b0a20251110135155" width="100" height="100" viewBox="0 0 100 100" xmlns="http://www.w3.org/2000/svg" xmlns:svg="http://www.w3.org/2000/svg"> <defs id="I23c84166872e4953a052bd53f6fc2bc920251110135155" /> <g id="I192675b1366248dcae39ca0aba0f733a20251110135155"> <path id="I017d45d37a714a3c8d946dce5ccaa27f20251110135155" d="m 8.594,53.125 h 24.297 l -4.688,4.687 H 8.594 c -1.293,0 -2.344,-1.05 -2.344,-2.343 0,-1.188 0.883,-2.168 2.027,-2.324 z m 0,-7.813 H 32.23 c -0.621,-0.89 -0.98,-1.968 -0.98,-3.124 0,-0.543 0.078,-1.067 0.227,-1.563 H 8.594 l -0.317,0.02 c -1.144,0.156 -2.027,1.136 -2.027,2.324 0,1.293 1.051,2.343 2.344,2.343 z m 31.156,5.376 c 0.914,-0.918 2.398,-0.918 3.312,0 0.918,0.914 0.918,2.398 0,3.312 L 29,68.062 c -0.914,0.918 -2.398,0.918 -3.312,0 -0.918,-0.914 -0.918,-2.398 0,-3.312 z M 8.594,28.125 h 32.812 c 1.293,0 2.344,1.051 2.344,2.344 0,1.187 -0.883,2.168 -2.027,2.324 l -0.317,0.019 H 8.594 c -1.293,0 -2.344,-1.05 -2.344,-2.343 0,-1.188 0.883,-2.168 2.027,-2.324 z m 0,-12.5 h 57.812 c 1.293,0 2.344,1.051 2.344,2.344 0,1.187 -0.883,2.168 -2.027,2.324 l -0.317,0.019 H 8.594 c -1.293,0 -2.344,-1.05 -2.344,-2.343 0,-1.188 0.883,-2.168 2.027,-2.324 z M 51.562,25 c 1.184,0 2.18,0.883 2.329,2.059 l 0.433,3.527 c 0.567,4.629 4.211,8.273 8.84,8.84 l 3.527,0.433 c 1.176,0.149 2.059,1.145 2.059,2.329 0,1.183 -0.883,2.179 -2.059,2.328 l -3.527,0.433 c -4.629,0.567 -8.273,4.211 -8.84,8.84 l -0.433,3.527 c -0.149,1.176 -1.145,2.059 -2.329,2.059 -1.183,0 -2.179,-0.883 -2.328,-2.059 l -0.433,-3.527 c -0.567,-4.629 -4.211,-8.273 -8.84,-8.84 l -3.527,-0.433 c -1.176,-0.149 -2.059,-1.145 -2.059,-2.328 0,-1.184 0.883,-2.18 2.059,-2.329 l 3.527,-0.433 c 4.629,-0.567 8.273,-4.211 8.84,-8.84 l 0.433,-3.527 C 49.383,25.883 50.379,25 51.562,25 Z m 0,11.797 c -1.296,2.23 -3.16,4.094 -5.39,5.391 2.23,1.296 4.094,3.16 5.39,5.39 1.297,-2.23 3.161,-4.094 5.391,-5.39 -2.23,-1.297 -4.094,-3.161 -5.391,-5.391 z" style="fill:currentColor;fill-opacity:1;fill-rule:nonzero;stroke:none" transform="scale(1.3333333)" /> </g>
</svg>

