<?xml version="1.0" encoding="UTF-8" standalone="no"?> <svg version="1.1" id="I6f78a743d8c245b9bba13be40773f69d20251106163938" width="100" height="100" viewBox="0 0 100 100" xmlns="http://www.w3.org/2000/svg" xmlns:svg="http://www.w3.org/2000/svg"> <defs id="Id6a4437507874c709a67f0ab77ebf37f20251106163938" /> <g id="I88784167a6284f7fbc98aeacb4259e6820251106163938"> <path id="I804e166b919b4634abfc07d3ef87b1d720251106163938" d="m 5.355,18.082 c 0,-5.551 4.5,-10.047 10.047,-10.047 h 9.836 c 1.953,0 3.824,0.777 5.207,2.156 l 5.047,5.047 -7.887,7.887 c -0.628,0.629 -1.48,0.98 -2.367,0.98 H 5.355 Z m 0.012,10.043 v 26.117 c 0,5.547 4.496,10.043 10.047,10.043 H 38.84 C 36.316,60.93 34.82,56.754 34.82,52.23 c 0,-11.093 8.996,-20.085 20.09,-20.085 5.82,0 11.067,2.472 14.735,6.429 V 26.117 C 69.645,20.57 65.148,16.07 59.598,16.07 H 40.34 l -9.895,9.899 c -1.383,1.379 -3.254,2.156 -5.207,2.156 z m 49.543,41.52 c 9.617,0 17.41,-7.797 17.41,-17.415 0,-9.613 -7.793,-17.41 -17.41,-17.41 -9.617,0 -17.41,7.797 -17.41,17.41 0,9.618 7.793,17.415 17.41,17.415 z m 0,-4.02 c -2.972,0 -5.719,-0.969 -7.941,-2.609 L 65.695,44.289 c 1.641,2.223 2.61,4.969 2.61,7.941 0,7.399 -5.996,13.395 -13.395,13.395 z M 62.855,41.449 44.125,60.176 C 42.488,57.953 41.52,55.207 41.52,52.23 c 0,-7.394 5.996,-13.39 13.39,-13.39 2.973,0 5.723,0.969 7.945,2.609 z" style="fill:currentColor;fill-opacity:1;fill-rule:nonzero;stroke:none" transform="scale(1.3333333)" /> </g>
</svg>

