<?xml version="1.0" encoding="UTF-8" standalone="no"?> <svg version="1.1" id="I976cb494b5ce4abd8fe8f9350fcce61d20251106170412" width="100" height="100" viewBox="0 0 100 100" xmlns="http://www.w3.org/2000/svg" xmlns:svg="http://www.w3.org/2000/svg"> <defs id="I8e870e6c1b024e82b3710a08f79951a020251106170412" /> <g id="I5368a5ffb76147588f59684c19b420bb20251106170412"> <path id="Ice7aa6c00164455dbf12639d1ec7f33820251106170412" d="m 18.75,12.5 h -3.125 c -5.176,0 -9.375,4.199 -9.375,9.375 v 13.281 h 12.5 z M 6.25,39.844 v 13.281 c 0,5.18 4.199,9.375 9.375,9.375 H 18.75 V 39.844 Z M 23.438,62.5 h 35.937 c 5.18,0 9.375,-4.195 9.375,-9.375 V 39.844 H 23.438 Z M 35.156,50.781 c 0,1.727 -1.398,3.125 -3.125,3.125 -1.726,0 -3.125,-1.398 -3.125,-3.125 0,-1.726 1.399,-3.125 3.125,-3.125 1.727,0 3.125,1.399 3.125,3.125 z m 8.594,0 c 0,1.727 -1.398,3.125 -3.125,3.125 -1.727,0 -3.125,-1.398 -3.125,-3.125 0,-1.726 1.398,-3.125 3.125,-3.125 1.727,0 3.125,1.399 3.125,3.125 z m 9.375,0 c 0,1.727 -1.398,3.125 -3.125,3.125 -1.727,0 -3.125,-1.398 -3.125,-3.125 0,-1.726 1.398,-3.125 3.125,-3.125 1.727,0 3.125,1.399 3.125,3.125 z m 9.375,0 c 0,1.727 -1.398,3.125 -3.125,3.125 -1.727,0 -3.125,-1.398 -3.125,-3.125 0,-1.726 1.398,-3.125 3.125,-3.125 1.727,0 3.125,1.399 3.125,3.125 z M 68.75,35.156 H 23.438 V 12.5 h 35.937 c 5.18,0 9.375,4.199 9.375,9.375 z M 32.031,27.344 c 1.727,0 3.125,-1.399 3.125,-3.125 0,-1.727 -1.398,-3.125 -3.125,-3.125 -1.726,0 -3.125,1.398 -3.125,3.125 0,1.726 1.399,3.125 3.125,3.125 z M 43.75,24.219 c 0,-1.727 -1.398,-3.125 -3.125,-3.125 -1.727,0 -3.125,1.398 -3.125,3.125 0,1.726 1.398,3.125 3.125,3.125 1.727,0 3.125,-1.399 3.125,-3.125 z m 9.375,0 c 0,-1.727 -1.398,-3.125 -3.125,-3.125 -1.727,0 -3.125,1.398 -3.125,3.125 0,1.726 1.398,3.125 3.125,3.125 1.727,0 3.125,-1.399 3.125,-3.125 z m 9.375,0 c 0,-1.727 -1.398,-3.125 -3.125,-3.125 -1.727,0 -3.125,1.398 -3.125,3.125 0,1.726 1.398,3.125 3.125,3.125 1.727,0 3.125,-1.399 3.125,-3.125 z" style="fill:currentColor;fill-opacity:1;fill-rule:nonzero;stroke:none" transform="scale(1.3333333)" /> </g>
</svg>

