<?xml version="1.0" encoding="UTF-8" standalone="no"?> <svg version="1.1" id="If248a7e08a7e46169b9f8bb1c3bfd39020251106155156" width="100" height="100" viewBox="0 0 100 100" xmlns="http://www.w3.org/2000/svg" xmlns:svg="http://www.w3.org/2000/svg"> <defs id="Ib66e72eced2a4b9aa5bc476ddb6ef77620251106155156" /> <g id="Iaba4e11b446c497e8f89f87dcb51730320251106155156"> <path id="Ifbbbafa35f0f43728dadcb06e9ebd40c20251106155156" d="M 37.5,6.25 V 25 c 0,3.453 2.797,6.25 6.25,6.25 H 62.5 V 62.5 c 0,3.453 -2.797,6.25 -6.25,6.25 H 34.969 c 3.504,-3.648 5.656,-8.605 5.656,-14.062 0,-11.219 -9.094,-20.313 -20.313,-20.313 -2.769,0 -5.406,0.555 -7.812,1.559 V 12.5 c 0,-3.453 2.797,-6.25 6.25,-6.25 z m 4.688,1.562 V 25 c 0,0.863 0.699,1.562 1.562,1.562 H 60.938 Z M 20.312,71.875 C 10.82,71.875 3.125,64.18 3.125,54.688 3.125,45.195 10.82,37.5 20.312,37.5 c 9.493,0 17.188,7.695 17.188,17.188 0,9.492 -7.695,17.187 -17.188,17.187 z M 16.73,47.98 c 0.61,-0.609 0.61,-1.601 0,-2.21 -0.609,-0.61 -1.601,-0.61 -2.21,0 l -7.813,7.812 c -0.609,0.609 -0.609,1.602 0,2.211 l 7.813,7.812 c 0.609,0.61 1.601,0.61 2.21,0 0.61,-0.609 0.61,-1.601 0,-2.21 l -6.707,-6.707 z m 7.165,-2.21 c -0.61,0.609 -0.61,1.601 0,2.21 l 6.707,6.708 -6.707,6.707 c -0.61,0.609 -0.61,1.601 0,2.21 0.609,0.61 1.601,0.61 2.21,0 l 7.813,-7.812 c 0.609,-0.609 0.609,-1.602 0,-2.211 L 26.105,45.77 c -0.609,-0.61 -1.601,-0.61 -2.21,0 z" style="fill:currentColor;fill-opacity:1;fill-rule:nonzero;stroke:none" transform="scale(1.3333333)" /> </g>
</svg>

