<?xml version="1.0" encoding="UTF-8" standalone="no"?> <svg version="1.1" id="I2b161679e43349e0a67d3836d821a2a220251106144520" width="100" height="100" viewBox="0 0 100 100" xmlns="http://www.w3.org/2000/svg" xmlns:svg="http://www.w3.org/2000/svg"> <defs id="Iac45d44cf19344d8aee51f5194c0f1ae20251106144520" /> <g id="I897c56ea3b6f4533adcc1c83a3fb3c0220251106144520"> <path id="I5945556a8d0c4fc6b2db96289518986720251106144520" d="M 40.301,11.312 V 11.309 L 40.293,11.301 40.285,11.285 40.27,11.258 C 40.254,11.234 40.242,11.211 40.223,11.188 40.188,11.133 40.145,11.07 40.094,11.004 39.992,10.863 39.855,10.691 39.676,10.5 39.316,10.117 38.789,9.664 38.066,9.258 36.582,8.43 34.461,7.93 31.609,8.453 c -3.414,0.629 -5.097,3.031 -5.863,4.988 -0.379,0.973 -0.562,1.883 -0.652,2.547 -0.043,0.332 -0.067,0.614 -0.082,0.821 -0.004,0.101 -0.008,0.187 -0.008,0.25 L 25,17.141 v 3.953 c 0,4.316 3.496,7.812 7.812,7.812 h 0.782 c 4.316,0 7.812,-3.496 7.812,-7.812 v -1.563 c 0,-1.293 -1.051,-2.343 -2.344,-2.343 h -3.906 c -1.293,0 -2.344,1.05 -2.344,2.343 0,1.293 1.051,2.344 2.344,2.344 h 1.465 c -0.348,1.348 -1.57,2.344 -3.027,2.344 h -0.782 c -1.726,0 -3.124,-1.399 -3.124,-3.125 v -3.903 c 0,-0.019 0.003,-0.054 0.003,-0.105 0.008,-0.102 0.02,-0.262 0.047,-0.465 0.059,-0.41 0.168,-0.941 0.375,-1.473 0.407,-1.039 1.067,-1.851 2.34,-2.082 1.867,-0.343 2.871,0.028 3.328,0.286 0.25,0.14 0.407,0.281 0.481,0.363 0.023,0.023 0.039,0.043 0.047,0.055 0.675,1.05 2.07,1.39 3.16,0.75 1.117,-0.657 1.488,-2.09 0.832,-3.208 z" style="fill:currentColor;fill-opacity:1;fill-rule:nonzero;stroke:none" transform="scale(1.3333333)" /> <path id="Iae1ed103eea8478595793727daef89f320251106144520" d="m 12.5,8.594 c -1.195,0 -2.199,0.898 -2.328,2.086 l -0.781,7.031 c -0.082,0.734 0.187,1.465 0.73,1.973 0.539,0.504 1.289,0.722 2.016,0.589 l 3.148,-0.57 c 1.399,-0.254 2.684,0.82 2.684,2.238 0,1.258 -1.02,2.278 -2.278,2.278 h -0.683 c -0.781,0 -1.516,-0.391 -1.949,-1.043 L 12.887,22.918 C 12.168,21.84 10.715,21.551 9.637,22.27 8.562,22.988 8.27,24.441 8.988,25.52 l 0.172,0.253 c 1.301,1.957 3.496,3.133 5.848,3.133 h 0.683 c 3.848,0 6.965,-3.117 6.965,-6.965 0,-4.343 -3.933,-7.629 -8.211,-6.851 l -0.05,0.012 0.203,-1.821 h 5.714 c 1.293,0 2.344,-1.051 2.344,-2.343 0,-1.293 -1.051,-2.344 -2.344,-2.344 z" style="fill:currentColor;fill-opacity:1;fill-rule:nonzero;stroke:none" transform="scale(1.3333333)" /> <path id="I9837adeb56144ae2940f87932145275120251106144520" d="m 65.625,21.871 c 0,-1.723 -1.398,-3.121 -3.125,-3.121 -1.727,0 -3.125,1.398 -3.125,3.121 v 40.633 c 0,1.723 1.398,3.121 3.125,3.121 1.727,0 3.125,-1.398 3.125,-3.121 z" style="fill:currentColor;fill-opacity:1;fill-rule:nonzero;stroke:none" transform="scale(1.3333333)" /> <path id="If224456aaf3249c9af37632925b2decb20251106144520" d="m 53.125,31.234 c 0,-1.714 -1.398,-3.109 -3.125,-3.109 -1.727,0 -3.125,1.395 -3.125,3.109 v 31.282 c 0,1.714 1.398,3.109 3.125,3.109 1.727,0 3.125,-1.395 3.125,-3.109 z" style="fill:currentColor;fill-opacity:1;fill-rule:nonzero;stroke:none" transform="scale(1.3333333)" /> <path id="I1f98b652ae0e4f97a6ee5a1b4c70c86d20251106144520" d="m 40.625,40.625 c 0,-1.727 -1.398,-3.125 -3.125,-3.125 -1.727,0 -3.125,1.398 -3.125,3.125 V 62.5 c 0,1.727 1.398,3.125 3.125,3.125 1.727,0 3.125,-1.398 3.125,-3.125 z" style="fill:currentColor;fill-opacity:1;fill-rule:nonzero;stroke:none" transform="scale(1.3333333)" /> <path id="I0a01b7de46c748c1a7363d9bf57d636a20251106144520" d="m 28.125,49.98 c 0,-1.714 -1.398,-3.105 -3.125,-3.105 -1.727,0 -3.125,1.391 -3.125,3.105 v 12.54 c 0,1.714 1.398,3.105 3.125,3.105 1.727,0 3.125,-1.391 3.125,-3.105 z" style="fill:currentColor;fill-opacity:1;fill-rule:nonzero;stroke:none" transform="scale(1.3333333)" /> <path id="Ifb2c282eb0124316af4a2849cee4091720251106144520" d="m 15.625,59.324 c 0,-1.699 -1.398,-3.074 -3.125,-3.074 -1.727,0 -3.125,1.375 -3.125,3.074 v 3.227 c 0,1.699 1.398,3.074 3.125,3.074 1.727,0 3.125,-1.375 3.125,-3.074 z" style="fill:currentColor;fill-opacity:1;fill-rule:nonzero;stroke:none" transform="scale(1.3333333)" /> </g>
</svg>

