<?xml version="1.0" encoding="UTF-8" standalone="no"?> <svg version="1.1" id="Ie895ad23e98845548d4a679e664615c920251106143238" width="100" height="100" viewBox="0 0 100 100" xmlns="http://www.w3.org/2000/svg" xmlns:svg="http://www.w3.org/2000/svg"> <defs id="Ie5a71623bd3e466d9e5586de944e514020251106143238" /> <g id="I19899361f9b049b6953217076120becf20251106143238"> <path id="I86880ce3bd234d7ba9adf39640516b0520251106143238" d="M 66.965,25.445 V 38.84 c -3.36,-2.524 -7.531,-4.02 -12.055,-4.02 -11.094,0 -20.09,8.996 -20.09,20.09 0,4.524 1.496,8.695 4.02,12.055 H 16.742 c -4.808,0 -8.707,-3.899 -8.707,-8.707 V 25.445 Z M 58.258,8.035 c 4.808,0 8.707,3.899 8.707,8.707 V 21.43 H 8.035 v -4.688 c 0,-4.808 3.899,-8.707 8.707,-8.707 z M 54.91,41.52 c 7.399,0 13.395,5.996 13.395,13.39 0,7.399 -5.996,13.395 -13.395,13.395 -7.394,0 -13.39,-5.996 -13.39,-13.395 0,-7.394 5.996,-13.39 13.39,-13.39 z m 0,30.8 c 9.617,0 17.41,-7.793 17.41,-17.41 0,-9.617 -7.793,-17.41 -17.41,-17.41 -9.617,0 -17.41,7.793 -17.41,17.41 0,9.617 7.793,17.41 17.41,17.41 z m 9.375,-17.41 c 0,5.18 -4.195,9.375 -9.375,9.375 -5.176,0 -9.375,-4.195 -9.375,-9.375 0,-5.176 4.199,-9.375 9.375,-9.375 5.18,0 9.375,4.199 9.375,9.375 z" style="fill:currentColor;fill-opacity:1;fill-rule:nonzero;stroke:none" transform="scale(1.3333333)" /> </g>
</svg>

