<?xml version="1.0" encoding="UTF-8" standalone="no"?> <svg version="1.1" id="I18293f39d9a74c56bb82ea93b4d40dfb20251106171633" width="100" height="100" viewBox="0 0 100 100" xmlns="http://www.w3.org/2000/svg" xmlns:svg="http://www.w3.org/2000/svg"> <defs id="I208be55a2323404890bf5757cb446aab20251106171633" /> <g id="I2be5b7064e4648bc8587b4d329dc42f020251106171633"> <path id="Ie64b428ff9a745fca634f7f404b960fc20251106171633" d="m 51.562,6.027 c 0,-1.109 -0.898,-2.007 -2.007,-2.007 -1.11,0 -2.012,0.898 -2.012,2.007 v 4.84 c -3.004,0.442 -5.898,1.817 -8.215,4.129 l -4.719,4.719 -4.394,-4.395 c -0.785,-0.785 -2.055,-0.785 -2.84,0 -0.785,0.785 -0.785,2.059 0,2.84 l 4.395,4.399 -9.211,9.211 -4.399,-4.395 c -0.781,-0.785 -2.055,-0.785 -2.84,0 -0.785,0.785 -0.785,2.055 0,2.84 L 19.715,34.609 15,39.324 c -2.312,2.317 -3.688,5.211 -4.129,8.219 H 6.027 c -1.109,0 -2.007,0.902 -2.007,2.012 0,1.109 0.898,2.007 2.007,2.007 h 4.813 c 0.32,2.458 1.265,4.852 2.836,6.922 l -5.051,5.051 c -0.785,0.785 -0.785,2.055 0,2.84 0.785,0.785 2.055,0.785 2.84,0 l 5.051,-5.047 c 2.07,1.57 4.461,2.516 6.922,2.84 v 4.805 c 0,1.109 0.898,2.007 2.007,2.007 1.11,0 2.012,-0.898 2.012,-2.007 v -4.836 c 3.008,-0.438 5.91,-1.813 8.227,-4.129 l 4.714,-4.715 4.387,4.387 c 0.785,0.785 2.055,0.785 2.84,0 0.785,-0.785 0.785,-2.059 0,-2.84 l -4.387,-4.387 9.215,-9.215 4.387,4.387 c 0.781,0.785 2.055,0.785 2.84,0 0.785,-0.785 0.785,-2.055 0,-2.84 l -4.387,-4.387 4.719,-4.718 c 2.316,-2.317 3.691,-5.215 4.129,-8.223 h 4.832 c 1.109,0 2.007,-0.902 2.007,-2.012 0,-1.109 -0.898,-2.007 -2.007,-2.007 h -4.801 c -0.32,-2.461 -1.27,-4.856 -2.84,-6.93 l 5.043,-5.043 c 0.785,-0.785 0.785,-2.055 0,-2.84 -0.785,-0.785 -2.055,-0.785 -2.84,0 l -5.047,5.043 c -2.07,-1.566 -4.465,-2.512 -6.926,-2.832 z M 25.441,52.23 c -1.48,0 -2.679,-1.195 -2.679,-2.675 0,-1.481 1.199,-2.68 2.679,-2.68 1.481,0 2.68,1.199 2.68,2.68 0,1.48 -1.199,2.675 -2.68,2.675 z M 52.227,25.445 c 0,1.481 -1.2,2.68 -2.676,2.68 -1.481,0 -2.68,-1.199 -2.68,-2.68 0,-1.476 1.199,-2.675 2.68,-2.675 1.476,0 2.676,1.199 2.676,2.675 z" style="fill:currentColor;fill-opacity:1;fill-rule:nonzero;stroke:none" transform="scale(1.3333333)" /> </g>
</svg>

