<?xml version="1.0" encoding="UTF-8" standalone="no"?> <svg version="1.1" id="I2ae5c279c4214963ad01dc85c79c193a20251106151526" width="100" height="100" viewBox="0 0 100 100" xmlns="http://www.w3.org/2000/svg" xmlns:svg="http://www.w3.org/2000/svg"> <defs id="I82abffa3be9a40e88b4032a87f7c03ce20251106151526" /> <g id="If09d47a3b6da4b89a56f95d64256044720251106151526"> <path id="I5e8f74d2edde42c79911c79a01d4777020251106151526" d="M 49.957,12.5 C 49.566,8.984 46.586,6.25 42.969,6.25 H 32.031 c -3.617,0 -6.597,2.734 -6.988,6.25 h -5.512 c -3.883,0 -7.031,3.148 -7.031,7.031 v 42.188 c 0,3.883 3.148,7.031 7.031,7.031 h 7.031 C 25.582,67.445 25,65.82 25,64.062 h -5.469 c -1.293,0 -2.343,-1.05 -2.343,-2.343 V 19.531 c 0,-1.293 1.05,-2.343 2.343,-2.343 h 6.653 c 1.261,1.882 3.41,3.124 5.847,3.124 h 10.938 c 2.437,0 4.586,-1.242 5.847,-3.124 h 6.653 c 1.293,0 2.343,1.05 2.343,2.343 v 39.844 c 1.126,-1.5 2.782,-2.582 4.688,-2.969 V 19.531 C 62.5,15.648 59.352,12.5 55.469,12.5 Z m 0.027,0.301 0.016,0.48 c 0,-0.16 -0.004,-0.324 -0.016,-0.48 z M 32.031,10.938 h 10.938 c 1.293,0 2.343,1.05 2.343,2.343 0,1.293 -1.05,2.344 -2.343,2.344 H 32.031 c -1.293,0 -2.343,-1.051 -2.343,-2.344 0,-1.293 1.05,-2.343 2.343,-2.343 z M 37.5,64.062 c 0,2.59 -2.098,4.688 -4.688,4.688 -2.589,0 -4.687,-2.098 -4.687,-4.688 0,-2.589 2.098,-4.687 4.687,-4.687 2.59,0 4.688,2.098 4.688,4.687 z m 10.938,4.688 c 2.589,0 4.687,-2.098 4.687,-4.688 0,-2.589 -2.098,-4.687 -4.687,-4.687 -2.59,0 -4.688,2.098 -4.688,4.687 0,2.59 2.098,4.688 4.688,4.688 z m 15.624,0 c 2.59,0 4.688,-2.098 4.688,-4.688 0,-2.589 -2.098,-4.687 -4.688,-4.687 -2.589,0 -4.687,2.098 -4.687,4.687 0,2.59 2.098,4.688 4.687,4.688 z" style="fill:currentColor;fill-opacity:1;fill-rule:nonzero;stroke:none" transform="scale(1.3333333)" /> </g>
</svg>

