<?xml version="1.0" encoding="UTF-8" standalone="no"?> <svg version="1.1" id="Idcdb3cb4d3c94d2094cc07637a8a2c0e20251106132945" width="100" height="100" viewBox="0 0 100 100" xmlns="http://www.w3.org/2000/svg" xmlns:svg="http://www.w3.org/2000/svg"> <defs id="I88bae4db2c694f96a59f44afd4bdbb7420251106132945" /> <g id="I41ac6cd5d2f04d59a86b7c32b8dfa85120251106132945"> <path id="Iccfcc3a7d0f64656aaae12b52047917c20251106132945" d="m 52.5,11.25 c 1.035,0 1.875,0.84 1.875,1.875 0,1.035 -0.84,1.875 -1.875,1.875 h -3.734 v 17.566 c 0,0.641 0.046,1.282 0.14,1.918 -1.238,0.34 -2.433,0.793 -3.57,1.348 -0.211,-1.074 -0.32,-2.168 -0.32,-3.266 V 15 H 29.98 v 17.574 c 0,2.793 -0.695,5.543 -2.019,8.004 L 25.578,45 H 36 c -0.609,1.188 -1.105,2.441 -1.473,3.75 H 23.559 l -4.579,8.492 c -0.671,1.25 0.235,2.766 1.649,2.766 h 13.898 c 0.371,1.304 0.868,2.558 1.477,3.75 H 20.629 c -4.258,0 -6.965,-4.547 -4.949,-8.297 l 8.98,-16.66 c 1.031,-1.914 1.57,-4.055 1.57,-6.227 L 26.23,15 H 22.5 c -1.035,0 -1.875,-0.84 -1.875,-1.875 0,-1.035 0.84,-1.875 1.875,-1.875 z m -7.254,31.656 c 1.137,4.055 -1.285,8.25 -5.367,9.293 l -1.727,0.442 c -0.058,0.57 -0.086,1.148 -0.086,1.734 0,0.703 0.043,1.398 0.122,2.078 l 1.312,0.309 c 4.199,0.992 6.695,5.312 5.461,9.445 l -0.477,1.586 c 0.965,0.762 2.016,1.418 3.133,1.945 l 1.219,-1.293 c 2.961,-3.136 7.949,-3.133 10.91,0.008 l 1.266,1.34 c 1.093,-0.504 2.129,-1.133 3.082,-1.863 l -0.586,-2.09 c -1.137,-4.055 1.285,-8.25 5.363,-9.293 l 1.727,-0.442 c 0.058,-0.566 0.086,-1.144 0.086,-1.73 0,-0.703 -0.043,-1.398 -0.122,-2.082 l -1.308,-0.309 c -4.199,-0.992 -6.695,-5.312 -5.461,-9.445 l 0.473,-1.582 C 63.301,40.191 62.25,39.539 61.133,39.012 l -1.215,1.289 c -2.961,3.137 -7.953,3.133 -10.91,-0.004 l -1.266,-1.344 c -1.097,0.508 -2.129,1.133 -3.082,1.867 z m 9.129,15.219 c -2.07,0 -3.75,-1.68 -3.75,-3.75 0,-2.07 1.68,-3.75 3.75,-3.75 2.07,0 3.75,1.68 3.75,3.75 0,2.07 -1.68,3.75 -3.75,3.75 z" style="fill:currentColor;fill-opacity:1;fill-rule:nonzero;stroke:none" transform="scale(1.3333333)" /> </g>
</svg>

