<?xml version="1.0" encoding="UTF-8" standalone="no"?> <svg version="1.1" id="I6a80c5053a0648e6b7bd013e7082f18120251106164750" width="100" height="100" viewBox="0 0 100 100" xmlns="http://www.w3.org/2000/svg" xmlns:svg="http://www.w3.org/2000/svg"> <defs id="I70ad1bcbb1ca43128e7511b5afe1cd7120251106164750" /> <g id="Ia63402b6630f4963b8baa1d9a4d5411220251106164750"> <path id="Ia7dbb443c5664d17b034d156d5a22e1320251106164750" d="m 43.75,13.289 c 0,-1.727 1.398,-3.125 3.125,-3.125 1.727,0 3.125,1.398 3.125,3.125 v 21.082 c 0,0.188 0.031,0.363 0.09,0.527 -9.004,2.082 -15.715,10.157 -15.715,19.793 0,3.082 0.687,6.012 1.922,8.633 L 34.84,68.098 C 32.488,67.211 30.5,65.461 29.34,63.137 L 28.922,62.301 C 27.605,59.672 25.969,57.219 24.043,54.996 L 17.129,47.023 10.281,41.695 C 9.707,41.25 9.375,40.57 9.375,39.848 c 0,-1.516 0.809,-2.641 1.848,-3.313 0.925,-0.597 2.031,-0.851 3.007,-0.969 1.989,-0.234 4.407,0.004 6.528,0.418 1.605,0.313 3.047,0.918 4.242,1.575 v -24.27 c 0,-1.727 1.398,-3.125 3.125,-3.125 1.727,0 3.125,1.398 3.125,3.125 v 19.527 c 0,0.864 0.699,1.563 1.562,1.563 0.864,0 1.563,-0.699 1.563,-1.563 V 9.375 c 0,-1.727 1.398,-3.125 3.125,-3.125 1.727,0 3.125,1.398 3.125,3.125 v 23.441 c 0,0.864 0.699,1.563 1.563,1.563 0.863,0 1.562,-0.699 1.562,-1.563 z m 10.941,21.086 c -0.527,0 -1.05,0.02 -1.566,0.059 0,-0.02 0,-0.039 0,-0.063 V 18.746 c 0,-1.723 1.398,-3.125 3.125,-3.125 1.727,0 3.125,1.402 3.125,3.125 v 16.172 c -1.504,-0.356 -3.074,-0.543 -4.684,-0.543 z m 1.469,3.187 c 3.578,0.301 6.848,1.704 9.465,3.864 3.82,3.152 6.258,7.926 6.258,13.265 0,9.497 -7.699,17.192 -17.192,17.192 -3.023,0 -5.867,-0.781 -8.336,-2.153 l -6.832,2.082 c -1.195,0.364 -2.316,-0.757 -1.953,-1.953 l 2.082,-6.832 C 38.281,60.559 37.5,57.715 37.5,54.691 37.5,45.195 45.195,37.5 54.691,37.5 c 0.493,0 0.985,0.02 1.469,0.062 z m -9.281,14.004 c 0,0.864 0.699,1.563 1.562,1.563 h 12.5 c 0.864,0 1.563,-0.699 1.563,-1.563 0,-0.863 -0.699,-1.562 -1.563,-1.562 h -12.5 c -0.863,0 -1.562,0.699 -1.562,1.562 z m 1.562,7.813 h 6.25 c 0.864,0 1.563,-0.699 1.563,-1.563 0,-0.863 -0.699,-1.562 -1.563,-1.562 h -6.25 c -0.863,0 -1.562,0.699 -1.562,1.562 0,0.864 0.699,1.563 1.562,1.563 z" style="fill:currentColor;fill-opacity:1;fill-rule:nonzero;stroke:none" transform="scale(1.3333333)" /> </g>
</svg>

