<?xml version="1.0" encoding="UTF-8" standalone="no"?> <svg version="1.1" id="I3c3b9b0b89fd42afa09c087eab2c773220251106165302" width="100" height="100" viewBox="0 0 100 100" xmlns="http://www.w3.org/2000/svg" xmlns:svg="http://www.w3.org/2000/svg"> <defs id="I664b470184324215b5ca7f5b75d48b6020251106165302" /> <g id="I867c34a43ebb432c987ab5e6985ec27f20251106165302"> <path id="Icafdb910486444a88158386113efdf6020251106165302" d="m 9.391,9.086 c 0.16,-1.719 1.683,-2.984 3.398,-2.82 L 24.5,7.359 c 8.297,0.821 16.258,1.813 22.797,2.942 6.383,1.097 11.867,2.394 14.883,3.984 0.777,0.41 1.629,0.961 2.289,1.715 0.703,0.797 1.371,2.066 1.09,3.641 -0.25,1.433 -1.176,2.398 -1.911,2.976 -0.773,0.606 -1.726,1.098 -2.738,1.52 -3.969,1.644 -11.441,3.195 -23.101,4.718 -5.258,0.688 -9.133,1.36 -11.879,1.989 0.66,0.144 1.371,0.285 2.129,0.426 3.8,0.699 8.593,1.296 13.691,1.753 3.895,0.348 8.07,0.899 11.633,1.606 l 0.023,0.004 -4.699,4.699 c -0.23,0.23 -0.441,0.473 -0.629,0.727 -2.242,-0.332 -4.605,-0.61 -6.887,-0.813 C 35.984,38.781 30.984,38.16 26.93,37.418 24.906,37.043 23.062,36.633 21.527,36.176 20.07,35.746 18.594,35.191 17.512,34.422 16.977,34.043 16.23,33.398 15.805,32.398 c -0.508,-1.195 -0.375,-2.468 0.23,-3.511 0.512,-0.883 1.274,-1.461 1.879,-1.836 0.645,-0.399 1.398,-0.739 2.203,-1.035 C 23.258,24.848 28.738,23.742 37,22.66 47.102,21.34 53.469,20.059 57.02,18.906 54.594,18.105 50.934,17.266 46.238,16.457 39.902,15.367 32.105,14.395 23.891,13.578 l -11.68,-1.09 C 10.492,12.324 9.227,10.805 9.391,9.086 Z m 39.316,39.082 c 0.055,0.059 0.113,0.113 0.172,0.168 -1.672,0.246 -3.504,0.492 -5.512,0.73 -8.16,0.977 -13.058,2.207 -15.738,3.426 -1.07,0.485 -1.606,0.887 -1.848,1.125 0.094,0.145 0.266,0.36 0.567,0.649 0.562,0.535 1.386,1.14 2.457,1.773 2.129,1.258 4.883,2.43 7.55,3.344 l 10.141,3.265 c 1.641,0.532 2.543,2.293 2.016,3.934 -0.532,1.645 -2.289,2.547 -3.934,2.016 L 34.387,65.312 34.359,65.305 c -2.914,-0.996 -6.105,-2.332 -8.734,-3.887 -1.313,-0.773 -2.574,-1.656 -3.602,-2.641 -0.996,-0.953 -1.996,-2.218 -2.406,-3.793 -0.461,-1.761 -0.074,-3.527 1.059,-5.011 1.031,-1.348 2.582,-2.364 4.371,-3.172 3.586,-1.629 9.269,-2.949 17.578,-3.938 1.609,-0.195 3.082,-0.386 4.422,-0.578 -0.488,2.043 0.062,4.289 1.66,5.883 z M 63.148,33.727 c -1.222,-1.219 -3.199,-1.219 -4.421,0 l -7.813,7.812 c -1.219,1.223 -1.219,3.199 0,4.422 1.223,1.219 3.199,1.219 4.422,0 l 2.476,-2.481 v 17.727 l -2.476,-2.48 c -1.223,-1.219 -3.199,-1.219 -4.422,0 -1.219,1.222 -1.219,3.199 0,4.421 l 7.813,7.813 c 1.222,1.219 3.199,1.219 4.421,0 l 7.813,-7.813 c 1.219,-1.222 1.219,-3.199 0,-4.421 -1.223,-1.219 -3.199,-1.219 -4.422,0 l -2.477,2.48 V 43.48 l 2.477,2.481 c 1.223,1.219 3.199,1.219 4.422,0 1.219,-1.223 1.219,-3.199 0,-4.422 z" style="fill:currentColor;fill-opacity:1;fill-rule:nonzero;stroke:none" transform="scale(1.3333333)" /> </g>
</svg>

