<?xml version="1.0" encoding="UTF-8" standalone="no"?> <svg version="1.1" id="I35239aa0caac488981615aaa74ee111720251110123031" width="100" height="100" viewBox="0 0 100 100" xmlns="http://www.w3.org/2000/svg" xmlns:svg="http://www.w3.org/2000/svg"> <defs id="I80d60e1a14b9481cb8a0e4d10ac2677f20251110123031" /> <g id="I78d6da0f2a2a417c895c11d2855c9b8d20251110123031"> <path id="Iafc4f3bc037f42298bf485dc2358130020251110123031" d="m 65.625,40.18 c 3.699,0 6.695,2.996 6.695,6.695 v 16.07 c 0,3.7 -2.996,6.7 -6.695,6.7 h -21.43 c -3.695,0 -6.695,-3 -6.695,-6.7 v -16.07 c 0,-3.699 3,-6.695 6.695,-6.695 z M 59.602,8.035 c 5.546,0 10.043,4.5 10.043,10.047 V 37.5 H 65.629 V 18.082 c 0,-3.328 -2.699,-6.027 -6.027,-6.027 H 15.414 c -3.328,0 -6.027,2.699 -6.027,6.027 v 33.48 c 0,3.329 2.699,6.028 6.027,6.028 H 34.82 v 4.015 H 15.414 C 9.863,61.605 5.367,57.109 5.367,51.562 v -33.48 c 0,-5.551 4.496,-10.047 10.047,-10.047 z" style="fill:currentColor;fill-opacity:1;fill-rule:nonzero;stroke:none" transform="scale(1.3333333)" /> </g>
</svg>

