<?xml version="1.0" encoding="UTF-8" standalone="no"?> <svg version="1.1" id="Iecc0cdebe6da40dd92751978d270a4f820251106132945" width="100" height="100" viewBox="0 0 100 100" xmlns="http://www.w3.org/2000/svg" xmlns:svg="http://www.w3.org/2000/svg"> <defs id="Ida9c53f4db5f48c584551eba0515dd2e20251106132945" /> <g id="Ibd2c34eec1804490a1fb25876eff42d020251106132945"> <path id="Ib9273a93978f4ad6ac4ab600c69a9a4920251106132945" d="m 23.438,5.355 c -5.547,0 -10.043,4.5 -10.043,10.047 v 44.196 c 0,5.547 4.496,10.043 10.043,10.043 H 41.25 C 39.973,68.457 38.848,67.105 37.914,65.625 H 23.438 c -3.102,0 -5.657,-2.344 -5.989,-5.355 h 18.094 c -0.469,-1.708 -0.723,-3.504 -0.723,-5.36 0,-11.094 8.996,-20.09 20.09,-20.09 2.348,0 4.602,0.403 6.695,1.145 V 15.402 C 61.605,9.855 57.109,5.355 51.562,5.355 Z M 22.77,18.082 c 0,-1.852 1.496,-3.352 3.347,-3.352 h 22.766 c 1.851,0 3.347,1.5 3.347,3.352 v 4.016 c 0,1.851 -1.496,3.347 -3.347,3.347 H 26.117 c -1.851,0 -3.347,-1.496 -3.347,-3.347 z M 72.32,54.91 c 0,9.617 -7.793,17.41 -17.41,17.41 -9.617,0 -17.41,-7.793 -17.41,-17.41 0,-9.617 7.793,-17.41 17.41,-17.41 9.617,0 17.41,7.793 17.41,17.41 z M 56.25,44.195 c 0,-0.738 -0.602,-1.34 -1.34,-1.34 -0.738,0 -1.34,0.602 -1.34,1.34 v 9.375 h -9.375 c -0.738,0 -1.34,0.602 -1.34,1.34 0,0.738 0.602,1.34 1.34,1.34 h 9.375 v 9.375 c 0,0.738 0.602,1.34 1.34,1.34 0.738,0 1.34,-0.602 1.34,-1.34 V 56.25 h 9.375 c 0.738,0 1.34,-0.602 1.34,-1.34 0,-0.738 -0.602,-1.34 -1.34,-1.34 H 56.25 Z" style="fill:currentColor;fill-opacity:1;fill-rule:nonzero;stroke:none" transform="scale(1.3333333)" /> </g>
</svg>

