<?xml version="1.0" encoding="UTF-8" standalone="no"?> <svg version="1.1" id="I351f6a99389e4ab3bc05b0c8fb8424cf20251106125938" width="100" height="100" viewBox="0 0 100 100" xmlns="http://www.w3.org/2000/svg" xmlns:svg="http://www.w3.org/2000/svg"> <defs id="I6cf5cf5d7ae24b94b93395c057c672d120251106125938" /> <g id="Id7842ff0303e431b8ca26d38ea98ad4420251106125938"> <path id="I952a7e0bbc8f44de85cefbb9ce8a0d9b20251106125938" d="m 27.203,50.73 c -0.887,0.942 -0.848,2.426 0.09,3.317 0.941,0.887 2.426,0.848 3.316,-0.09 L 44.672,39.113 c 0.855,-0.906 0.855,-2.32 0,-3.226 L 30.609,21.043 c -0.89,-0.938 -2.375,-0.977 -3.316,-0.09 -0.938,0.891 -0.977,2.375 -0.09,3.317 L 37.52,35.156 H 8.594 c -1.293,0 -2.344,1.051 -2.344,2.344 0,1.293 1.051,2.344 2.344,2.344 H 37.52 Z M 68.75,37.5 c 0,-5.18 -4.195,-9.375 -9.375,-9.375 -5.18,0 -9.375,4.195 -9.375,9.375 0,5.18 4.195,9.375 9.375,9.375 5.18,0 9.375,-4.195 9.375,-9.375 z m -4.688,0 c 0,2.59 -2.097,4.688 -4.687,4.688 -2.59,0 -4.687,-2.098 -4.687,-4.688 0,-2.59 2.097,-4.688 4.687,-4.688 2.59,0 4.687,2.098 4.687,4.688 z" style="fill:currentColor;fill-opacity:1;fill-rule:nonzero;stroke:none" transform="scale(1.3333333)" /> </g>
</svg>

