<?xml version="1.0" encoding="UTF-8" standalone="no"?> <svg version="1.1" id="I5d83050097c64f66b0f4b3bee72cc45e20251106144520" width="100" height="100" viewBox="0 0 100 100" xmlns="http://www.w3.org/2000/svg" xmlns:svg="http://www.w3.org/2000/svg"> <defs id="I790cd4251e1348e68b39ea585ad94f2d20251106144520" /> <g id="Ia7f15007c5234a63bcf1924d1da9a72220251106144520"> <path id="I3f2ded6de02248cea14c2f55473bee3c20251106144520" d="m 11.719,56.258 c 1.187,0 2.168,0.883 2.324,2.027 l 0.019,0.317 v 4.687 c 0,1.297 -1.05,2.344 -2.343,2.344 -1.188,0 -2.168,-0.879 -2.324,-2.024 l -0.02,-0.32 v -4.687 c 0,-1.293 1.051,-2.344 2.344,-2.344 z m 25,-18.754 c 1.187,0 2.168,0.883 2.324,2.027 l 0.019,0.317 v 16.125 l -3.851,7.715 c -0.16,0.316 -0.293,0.636 -0.406,0.957 -0.211,-0.301 -0.356,-0.653 -0.41,-1.036 l -0.02,-0.32 V 39.848 c 0,-1.293 1.051,-2.344 2.344,-2.344 z m 10.976,1.187 c 0.887,-1.777 2.282,-3.003 3.867,-3.687 v -4.535 l -0.019,-0.317 c -0.156,-1.144 -1.137,-2.027 -2.324,-2.027 -1.293,0 -2.344,1.051 -2.344,2.344 v 9.863 z m 13.985,0 2.363,4.731 -0.035,-22.352 -0.024,-0.316 c -0.164,-1.141 -1.14,-2.016 -2.316,-2.004 -1.277,0.012 -2.305,1.074 -2.293,2.367 l 0.023,14.809 c 0.918,0.691 1.707,1.613 2.282,2.765 z m -37.461,8.176 c 1.187,0 2.168,0.883 2.324,2.028 l 0.019,0.32 v 14.058 c 0,1.297 -1.05,2.344 -2.343,2.344 -1.188,0 -2.168,-0.879 -2.324,-2.023 l -0.02,-0.321 V 49.215 c 0,-1.297 1.051,-2.348 2.344,-2.348 z M 50.492,40.086 38,65.086 c -1.559,3.121 0.711,6.789 4.195,6.789 H 67.18 c 3.484,0 5.754,-3.668 4.195,-6.789 l -12.492,-25 c -1.727,-3.457 -6.664,-3.457 -8.391,0 z m 5.758,8.332 v 9.383 c 0,0.863 -0.699,1.562 -1.562,1.562 -0.864,0 -1.563,-0.699 -1.563,-1.562 v -9.383 c 0,-0.863 0.699,-1.563 1.563,-1.563 0.863,0 1.562,0.7 1.562,1.563 z m -1.562,17.203 c -0.864,0 -1.563,-0.703 -1.563,-1.566 0,-0.864 0.699,-1.563 1.563,-1.563 0.863,0 1.562,0.699 1.562,1.563 0,0.863 -0.699,1.566 -1.562,1.566 z" style="fill:currentColor;fill-opacity:1;fill-rule:nonzero;stroke:none" transform="scale(1.3333333)" /> </g>
</svg>

