<?xml version="1.0" encoding="UTF-8" standalone="no"?> <svg version="1.1" id="I161b1004a9cd418c87e437708a2bb18c20251106125938" width="100" height="100" viewBox="0 0 100 100" xmlns="http://www.w3.org/2000/svg" xmlns:svg="http://www.w3.org/2000/svg"> <defs id="I4ed65f2afdd447ada1c6188440b036d320251106125938" /> <g id="Ia8281d9a0ccf4565b57ba77338de674620251106125938"> <path id="I9099c77345944355a975ba251d9a3e4b20251106125938" d="m 50.625,18.75 c 0.922,0 1.687,0.664 1.844,1.539 l 0.031,0.336 v 33.75 c 0,1.035 -0.84,1.875 -1.875,1.875 -0.922,0 -1.687,-0.664 -1.844,-1.539 L 48.75,54.375 v -33.75 c 0,-1.035 0.84,-1.875 1.875,-1.875 z m -29.449,0.551 c 0.648,-0.653 1.66,-0.727 2.39,-0.219 l 0.258,0.219 16.875,16.875 c 0.653,0.648 0.727,1.66 0.219,2.39 l -0.219,0.258 -16.875,16.875 c -0.73,0.735 -1.918,0.735 -2.648,0 -0.653,-0.648 -0.727,-1.66 -0.219,-2.39 L 21.176,53.051 36.723,37.5 21.176,21.949 c -0.735,-0.73 -0.735,-1.918 0,-2.648 z" style="fill:currentColor;fill-opacity:1;fill-rule:nonzero;stroke:none" transform="scale(1.3333333)" /> </g>
</svg>

