<?xml version="1.0" encoding="UTF-8" standalone="no"?> <svg version="1.1" id="Ibba1233f847f42a9a452e0c92987352720251106152729" width="100" height="100" viewBox="0 0 100 100" xmlns="http://www.w3.org/2000/svg" xmlns:svg="http://www.w3.org/2000/svg"> <defs id="Ib54dde646a0b41c0a275c9de4fe1f24f20251106152729" /> <g id="Ibe99f1ac7a0c4946864a975dffec49fe20251106152729"> <path id="I768d782ae16a436eababffb61b192ab420251106152729" d="M 56.047,9.391 55.469,9.375 H 19.531 l -0.578,0.016 c -5.34,0.3 -9.578,4.726 -9.578,10.14 v 35.938 l 0.016,0.578 c 0.3,5.34 4.726,9.578 10.14,9.578 H 37.57 c -1.211,-1.891 -2.117,-4 -2.648,-6.25 H 19.531 l -0.398,-0.02 C 17.16,59.156 15.625,57.492 15.625,55.469 L 15.629,25 h 43.746 v 9.918 c 2.254,0.531 4.359,1.437 6.254,2.652 V 19.531 L 65.613,18.953 C 65.324,13.805 61.199,9.68 56.047,9.391 Z M 34.355,31.715 C 34.199,30.57 33.219,29.688 32.031,29.688 H 21.094 l -0.317,0.019 c -1.144,0.156 -2.027,1.137 -2.027,2.324 v 21.875 l 0.02,0.317 c 0.156,1.144 1.136,2.027 2.324,2.027 h 10.937 l 0.317,-0.02 c 1.144,-0.156 2.027,-1.136 2.027,-2.324 V 32.031 Z m -10.917,2.66 h 6.25 v 17.187 h -6.25 z M 56.25,32.031 c 0,-1.293 -1.051,-2.343 -2.344,-2.343 H 39.859 l -0.32,0.019 c -1.144,0.156 -2.023,1.137 -2.023,2.324 0,1.293 1.046,2.344 2.343,2.344 h 14.047 l 0.317,-0.02 c 1.144,-0.156 2.027,-1.136 2.027,-2.324 z M 44.621,43.672 c 0.984,3.406 -1.062,6.949 -4.504,7.801 l -1.824,0.453 c -0.141,0.898 -0.215,1.82 -0.215,2.762 0,0.984 0.078,1.945 0.234,2.886 l 1.684,0.406 c 3.477,0.836 5.543,4.415 4.531,7.844 l -0.582,1.973 c 1.375,1.203 2.938,2.183 4.641,2.879 l 1.539,-1.621 c 2.465,-2.59 6.598,-2.59 9.059,0.004 l 1.558,1.636 c 1.699,-0.687 3.262,-1.656 4.637,-2.851 l -0.621,-2.145 c -0.985,-3.406 1.062,-6.949 4.504,-7.801 l 1.824,-0.449 c 0.141,-0.898 0.215,-1.824 0.215,-2.761 0,-0.985 -0.082,-1.95 -0.235,-2.887 L 69.383,51.395 C 65.906,50.559 63.84,46.98 64.852,43.551 l 0.582,-1.973 c -1.372,-1.207 -2.938,-2.183 -4.637,-2.879 l -1.543,1.617 c -2.465,2.594 -6.598,2.594 -9.059,0 l -1.558,-1.64 C 46.938,39.363 45.375,40.332 44,41.527 Z m 10.067,15.703 c -2.5,0 -4.528,-2.098 -4.528,-4.687 0,-2.59 2.028,-4.688 4.528,-4.688 2.503,0 4.531,2.098 4.531,4.688 0,2.589 -2.028,4.687 -4.531,4.687 z" style="fill:currentColor;fill-opacity:1;fill-rule:nonzero;stroke:none" transform="scale(1.3333333)" /> </g>
</svg>

