<?xml version="1.0" encoding="UTF-8" standalone="no"?> <svg version="1.1" id="Iee8a3e66c38742ce94ac55fc1786710720251106103256" width="100" height="100" viewBox="0 0 100 100" xmlns="http://www.w3.org/2000/svg" xmlns:svg="http://www.w3.org/2000/svg"> <defs id="Ia23498126df841d9b84fe7914353314d20251106103256" /> <g id="Ife4de9aa62ba4f8da6c2254d9211f42420251106103256"> <path id="I7d2c2e328b7c4bc2a40c8e00f2ceec1920251106103256" d="m 33.48,6.695 c 0.743,0 1.34,0.602 1.34,1.34 V 33.48 c 0,0.743 -0.597,1.34 -1.34,1.34 H 8.035 c -0.738,0 -1.34,-0.597 -1.34,-1.34 V 8.035 c 0,-0.738 0.602,-1.34 1.34,-1.34 z m -4.351,5.692 H 12.387 v 16.742 h 16.742 z m 41.297,7.343 c 0.519,0.52 0.519,1.368 0,1.891 L 55.273,36.773 c -0.523,0.524 -1.371,0.524 -1.894,0 L 38.227,21.621 c -0.524,-0.523 -0.524,-1.371 0,-1.891 L 53.379,4.578 c 0.523,-0.523 1.371,-0.523 1.894,0 z m -7.106,0.946 -8.996,-8.996 -8.996,8.996 8.996,8.996 z M 33.48,40.18 c 0.743,0 1.34,0.597 1.34,1.34 v 25.445 c 0,0.738 -0.597,1.34 -1.34,1.34 H 8.035 c -0.738,0 -1.34,-0.602 -1.34,-1.34 V 41.52 c 0,-0.743 0.602,-1.34 1.34,-1.34 z m -4.351,5.691 H 12.387 V 62.613 H 29.129 Z M 66.965,40.18 c 0.738,0 1.34,0.597 1.34,1.34 v 25.445 c 0,0.738 -0.602,1.34 -1.34,1.34 H 41.52 c -0.743,0 -1.34,-0.602 -1.34,-1.34 V 41.52 c 0,-0.743 0.597,-1.34 1.34,-1.34 z m -4.352,5.691 H 45.871 v 16.742 h 16.742 z" style="fill:currentColor;fill-opacity:1;fill-rule:evenodd;stroke:none" transform="scale(1.3333333)" /> </g>
</svg>

