<?xml version="1.0" encoding="UTF-8" standalone="no"?> <svg version="1.1" id="Id7ffd1e20ba64554909e7168c6e3f83b20251110124421" width="100" height="100" viewBox="0 0 100 100" xmlns="http://www.w3.org/2000/svg" xmlns:svg="http://www.w3.org/2000/svg"> <defs id="I7d6ffd8401044bb8bd6f7768ed70000e20251110124421" /> <g id="I800f411058fe4f08ac1d274ef94748b520251110124421"> <path id="Ie49ff2a84505493b8d8a83b87c90d8f420251110124421" d="m 58.609,29.617 c 1.215,0.403 2.84,1.098 4.477,2.278 3.352,2.41 6.559,6.73 6.559,14.085 0,8.024 -3.688,14.043 -9.547,17.977 -5.778,3.879 -13.575,5.688 -21.926,5.688 -9.082,0 -17.352,-1.641 -23.356,-6.653 C 7.18,56.625 5.258,45.742 5.359,36.289 5.371,35.414 5.418,34.172 5.562,32.691 5.852,29.734 6.543,25.75 8.164,21.738 c 1.621,-4.019 4.207,-8.136 8.316,-11.25 4.844,-3.664 11,-5.144 17,-5.133 0.883,0.004 1.77,0.09 2.645,0.204 1.539,0.195 3.629,0.593 5.746,1.402 2.109,0.809 4.352,2.07 6.074,4.051 1.762,2.023 2.895,4.703 2.895,8.125 0,5.441 1.68,7.789 2.945,8.832 1.348,1.105 3.219,1.117 4.824,1.648 z M 17.391,59.91 c 4.933,4.113 12.058,5.715 20.781,5.715 7.848,0 14.781,-1.711 19.683,-5.004 7.805,-5.238 11.641,-19.16 2.883,-25.465 -1.226,-0.883 -2.461,-1.414 -3.394,-1.722 -0.934,-0.313 -1.918,-0.368 -2.864,-0.641 -0.898,-0.262 -2.078,-0.762 -3.246,-1.723 -2.41,-1.98 -4.41,-5.601 -4.41,-11.933 0,-2.461 -0.789,-4.199 -1.91,-5.485 -1.152,-1.328 -2.75,-2.277 -4.48,-2.937 -1.723,-0.66 -3.477,-1 -4.817,-1.172 -0.711,-0.09 -1.429,-0.16 -2.144,-0.168 -6.547,0 -11.207,1.777 -14.567,4.32 -3.383,2.559 -5.586,6.004 -7.015,9.547 -1.434,3.547 -2.063,7.125 -2.329,9.84 -0.132,1.352 -0.175,2.473 -0.183,3.25 -0.09,8.313 1.25,17.938 8.012,23.578 z" style="fill:currentColor;fill-opacity:1;fill-rule:nonzero;stroke:none" transform="scale(1.3333333)" /> </g>
</svg>

