<?xml version="1.0" encoding="UTF-8" standalone="no"?> <svg version="1.1" id="Id737189d3bb34dd6b7858e0c9c7f733b20251110123031" width="100" height="100" viewBox="0 0 100 100" xmlns="http://www.w3.org/2000/svg" xmlns:svg="http://www.w3.org/2000/svg"> <defs id="I4b64245c70a14b41aa08023a1d116a1220251110123031" /> <g id="I3d3e139109114b9a8ae0574938f4047120251110123031"> <path id="I37a7d44b2a774dc187cbda513b85005520251110123031" d="m 40.484,68.891 c -1.062,-1.094 -1.996,-2.309 -2.789,-3.618 -1.754,0.231 -3.609,0.352 -5.55,0.352 -13.692,0 -22.77,-5.656 -22.77,-12.816 v -1.914 l 0.02,-0.391 c 0.195,-2.035 1.91,-3.629 4,-3.629 h 23.097 c 0.629,-1.434 1.418,-2.781 2.348,-4.02 H 13.395 c -4.442,0 -8.04,3.598 -8.04,8.04 v 1.914 c 0,9.961 11.282,16.836 26.79,16.836 2.949,0 5.742,-0.266 8.339,-0.754 z M 48.215,21.43 c 0,-8.879 -7.195,-16.075 -16.07,-16.075 -8.879,0 -16.075,7.196 -16.075,16.075 0,8.875 7.196,16.07 16.075,16.07 8.875,0 16.07,-7.195 16.07,-16.07 z m -28.125,0 c 0,-6.657 5.394,-12.055 12.055,-12.055 6.656,0 12.05,5.398 12.05,12.055 0,6.656 -5.394,12.05 -12.05,12.05 -6.661,0 -12.055,-5.394 -12.055,-12.05 z m 52.23,33.48 c 0,9.617 -7.793,17.41 -17.41,17.41 -9.617,0 -17.41,-7.793 -17.41,-17.41 0,-9.617 7.793,-17.41 17.41,-17.41 9.617,0 17.41,7.793 17.41,17.41 z m -4.015,0 c 0,-2.972 -0.969,-5.719 -2.61,-7.941 L 46.969,65.695 c 2.222,1.641 4.969,2.61 7.941,2.61 7.399,0 13.395,-5.996 13.395,-13.395 z m -24.18,7.945 18.73,-18.73 C 60.633,42.488 57.883,41.52 54.91,41.52 c -7.394,0 -13.39,5.996 -13.39,13.39 0,2.973 0.968,5.723 2.605,7.945 z" style="fill:currentColor;fill-opacity:1;fill-rule:nonzero;stroke:none" transform="scale(1.3333333)" /> </g>
</svg>

