<?xml version="1.0" encoding="UTF-8" standalone="no"?> <svg version="1.1" id="Id228b51a65184705a05bdc080ae22c6220251105191527" width="100" height="100" viewBox="0 0 100 100" xmlns="http://www.w3.org/2000/svg" xmlns:svg="http://www.w3.org/2000/svg"> <defs id="I017a2c80e42446088a865342ae2f513920251105191527" /> <g id="I80ca279ef0194f2d8bd10622a029a43120251105191527"> <path id="I48e88e526a6f42679b3a52204c1069c120251105191527" d="M 68.305,10.043 H 54.242 V 4.688 C 54.242,4.32 53.941,4.02 53.57,4.02 h -4.687 c -0.367,0 -0.668,0.3 -0.668,0.668 v 5.355 H 26.785 V 4.688 C 26.785,4.32 26.484,4.02 26.117,4.02 H 21.43 c -0.371,0 -0.672,0.3 -0.672,0.668 v 5.355 H 6.695 c -1.48,0 -2.675,1.199 -2.675,2.68 v 55.582 c 0,1.48 1.195,2.675 2.675,2.675 h 61.61 c 1.48,0 2.675,-1.195 2.675,-2.675 V 12.723 c 0,-1.481 -1.195,-2.68 -2.675,-2.68 z M 64.957,64.957 H 10.043 V 16.07 h 10.715 v 4.02 c 0,0.367 0.301,0.668 0.672,0.668 h 4.687 c 0.367,0 0.668,-0.301 0.668,-0.668 v -4.02 h 21.43 v 4.02 c 0,0.367 0.301,0.668 0.668,0.668 h 4.687 c 0.371,0 0.672,-0.301 0.672,-0.668 V 16.07 H 64.957 Z M 48.172,29.297 h -3.766 c -0.25,0 -0.484,0.141 -0.594,0.367 L 37.668,41.836 H 37.434 L 31.289,29.664 c -0.113,-0.223 -0.344,-0.367 -0.594,-0.367 h -3.851 c -0.11,0 -0.227,0.023 -0.317,0.082 -0.328,0.176 -0.445,0.586 -0.269,0.914 l 7.476,13.727 h -4.07 c -0.367,0 -0.668,0.3 -0.668,0.671 v 1.782 c 0,0.367 0.301,0.672 0.668,0.672 h 5.449 v 2.82 h -5.449 c -0.367,0 -0.668,0.301 -0.668,0.668 v 1.785 c 0,0.367 0.301,0.668 0.668,0.668 h 5.449 v 4.504 c 0,0.367 0.301,0.668 0.672,0.668 h 3.457 c 0.367,0 0.668,-0.301 0.668,-0.668 v -4.504 h 5.477 c 0.367,0 0.668,-0.301 0.668,-0.668 v -1.785 c 0,-0.367 -0.301,-0.668 -0.668,-0.668 H 39.91 v -2.82 h 5.477 c 0.367,0 0.668,-0.305 0.668,-0.672 v -1.782 c 0,-0.371 -0.301,-0.671 -0.668,-0.671 H 41.273 L 48.75,30.285 c 0.051,-0.101 0.082,-0.211 0.082,-0.32 0.012,-0.367 -0.281,-0.668 -0.66,-0.668 z" style="fill:currentColor;fill-opacity:1;fill-rule:nonzero;stroke:none" transform="scale(1.3333333)" /> </g>
</svg>

