<?xml version="1.0" encoding="UTF-8" standalone="no"?> <svg version="1.1" id="Ie9c2a5ea52d24d988edaa6827b68207020251106142135" width="100" height="100" viewBox="0 0 100 100" xmlns="http://www.w3.org/2000/svg" xmlns:svg="http://www.w3.org/2000/svg"> <defs id="I8d1fbf58867a4da0bc6c36e4dcacdfb720251106142135" /> <g id="Ideb2fb39f2cd4c239c885bf6a3b88ef820251106142135"> <path id="I1f0cd32588d648e2a8a064e4cde743b020251106142135" d="m 40.723,7.301 c -1.918,-1.403 -4.528,-1.403 -6.446,0 L 11.082,24.215 c -3.051,2.226 -1.477,7.051 2.297,7.055 H 50 v -0.02 h 9.375 v 0.02 h 2.246 c 3.774,-0.004 5.348,-4.829 2.297,-7.055 z M 37.5,16.438 c 1.727,0 3.125,1.398 3.125,3.121 0,1.726 -1.398,3.125 -3.125,3.125 -1.727,0 -3.125,-1.399 -3.125,-3.125 0,-1.723 1.398,-3.121 3.125,-3.121 z m -2.344,31.714 c -0.281,0.582 -0.496,1.207 -0.625,1.856 H 28.906 V 34.395 h 6.25 z m 10.938,-12.41 c -3.199,1.25 -5.469,4.363 -5.469,8.008 v 0.156 c -0.266,0.055 -0.527,0.121 -0.781,0.203 v -9.714 h 6.25 z M 34.375,53.133 V 64.062 H 11.719 c -1.293,0 -2.344,-1.046 -2.344,-2.343 V 60.16 c 0,-3.883 3.148,-7.027 7.031,-7.027 z M 17.188,50.008 h 7.031 V 34.395 H 17.188 Z M 43.75,46.875 h -1.562 c -2.59,0 -4.688,2.098 -4.688,4.687 v 4.688 h 7.812 v -0.781 c 0,-1.293 1.051,-2.344 2.344,-2.344 1.293,0 2.344,1.051 2.344,2.344 v 0.781 h 9.375 v -0.781 c 0,-1.293 1.051,-2.344 2.344,-2.344 1.293,0 2.343,1.051 2.343,2.344 v 0.781 h 7.813 v -4.688 c 0,-2.589 -2.098,-4.687 -4.687,-4.687 H 65.625 V 43.75 c 0,-3.02 -2.449,-5.469 -5.469,-5.469 H 49.219 c -3.02,0 -5.469,2.449 -5.469,5.469 z m 4.688,-3.125 c 0,-0.43 0.351,-0.781 0.781,-0.781 h 10.937 c 0.43,0 0.782,0.351 0.782,0.781 v 3.125 h -12.5 z m -6.25,28.125 c -2.59,0 -4.688,-2.098 -4.688,-4.687 v -6.25 h 7.812 v 2.343 c 0,1.293 1.051,2.344 2.344,2.344 1.293,0 2.344,-1.051 2.344,-2.344 v -2.343 h 9.375 v 2.343 c 0,1.293 1.051,2.344 2.344,2.344 1.293,0 2.343,-1.051 2.343,-2.344 v -2.343 h 7.813 v 6.25 c 0,2.589 -2.098,4.687 -4.687,4.687 z" style="fill:currentColor;fill-opacity:1;fill-rule:nonzero;stroke:none" transform="scale(1.3333333)" /> </g>
</svg>

