<?xml version="1.0" encoding="UTF-8" standalone="no"?> <svg version="1.1" id="Idb668d4688aa45c48f2df56d0bae46fa20251106144520" width="100" height="100" viewBox="0 0 100 100" xmlns="http://www.w3.org/2000/svg" xmlns:svg="http://www.w3.org/2000/svg"> <defs id="If883d0178e77400796dc62c96dee75ce20251106144520" /> <g id="Id8958d656bd449659c500cea10e8256b20251106144520"> <path id="I9bf0eaff7a37499991ebc854070cad8d20251106144520" d="m 9.375,32.145 c 0,-11.098 8.996,-20.09 20.09,-20.09 11.094,0 20.09,8.992 20.09,20.09 0,11.093 -8.996,20.085 -20.09,20.085 -3.488,0 -6.766,-0.886 -9.617,-2.445 -0.457,-0.25 -0.989,-0.312 -1.485,-0.18 l -8.707,2.336 2.336,-8.714 c 0.133,-0.497 0.07,-1.028 -0.18,-1.481 -1.554,-2.851 -2.437,-6.121 -2.437,-9.601 z m 20.09,-24.11 c -13.317,0 -24.11,10.793 -24.11,24.11 0,3.878 0.918,7.546 2.551,10.8 L 5.477,52.02 c -0.668,2.492 1.609,4.769 4.097,4.101 l 9.071,-2.43 c 3.253,1.637 6.933,2.559 10.82,2.559 13.312,0 24.105,-10.793 24.105,-24.105 0,-13.317 -10.793,-24.11 -24.105,-24.11 z m 16.07,58.93 c -7.172,0 -13.617,-3.133 -18.031,-8.106 0.648,0.047 1.301,0.071 1.961,0.071 1.25,0 2.48,-0.086 3.687,-0.254 3.41,2.676 7.711,4.269 12.383,4.269 3.488,0 6.766,-0.886 9.617,-2.445 0.453,-0.25 0.985,-0.312 1.485,-0.18 l 8.707,2.332 -2.336,-8.711 c -0.133,-0.496 -0.07,-1.027 0.18,-1.48 1.554,-2.852 2.437,-6.121 2.437,-9.606 0,-7.515 -4.129,-14.07 -10.246,-17.515 -0.484,-1.848 -1.16,-3.617 -2.008,-5.289 9.469,3.254 16.274,12.234 16.274,22.804 0,3.883 -0.918,7.551 -2.551,10.805 l 2.429,9.074 c 0.668,2.489 -1.609,4.77 -4.097,4.102 l -9.071,-2.43 c -3.253,1.637 -6.933,2.559 -10.82,2.559 z" style="fill:currentColor;fill-opacity:1;fill-rule:nonzero;stroke:none" transform="scale(1.3333333)" /> </g>
</svg>

