<?xml version="1.0" encoding="UTF-8" standalone="no"?> <svg version="1.1" id="Iaed6b942991c43bb89d0c92c6f60d34c20251106112458" width="100" height="100" viewBox="0 0 100 100" xmlns="http://www.w3.org/2000/svg" xmlns:svg="http://www.w3.org/2000/svg"> <defs id="I57028085c583484fbda1ff58f8bb76af20251106112458" /> <g id="Ibf1806dc89934818a9ff09e30ff88db920251106112458"> <path id="I2adea866e9c340cc8ca5c6dd829780f320251106112458" d="M 32.125,43.93 31.516,41.207 C 31.5,41.125 31.465,41.051 31.422,40.98 31.219,40.672 30.801,40.59 30.492,40.797 l -1.949,1.308 V 29.047 c 0,-0.371 -0.301,-0.672 -0.668,-0.672 h -6.781 c -0.367,0 -0.668,0.301 -0.668,0.672 v 3.012 c 0,0.367 0.301,0.671 0.668,0.671 h 3.097 v 16.102 c -0.003,0.551 0.618,0.867 1.063,0.547 l 6.613,-4.754 c 0.219,-0.16 0.317,-0.43 0.258,-0.695 z m -4.746,-18.133 0.019,0.019 c 0.266,0.25 0.692,0.235 0.946,-0.043 l 2.015,-2.195 c 0.246,-0.266 0.235,-0.68 -0.023,-0.937 l -4.496,-4.36 c -0.262,-0.254 -0.68,-0.25 -0.938,0.008 l -2.066,2.066 c -0.262,0.262 -0.262,0.688 0.008,0.95 z" style="fill:currentColor;fill-opacity:1;fill-rule:nonzero;stroke:none" transform="scale(1.3333333)" /> <path id="I8c22899faca34ee5a25da4b2fbaacf7f20251106112458" d="M 67.207,8.863 38.766,-0.828 c -0.344,-0.117 -0.805,-0.176 -1.266,-0.176 -0.461,0 -0.922,0.059 -1.266,0.176 L 7.793,8.863 C 7.098,9.098 6.527,9.902 6.527,10.641 V 51.02 c 0,0.734 0.481,1.707 1.055,2.168 l 28.856,22.48 c 0.292,0.227 0.667,0.344 1.054,0.344 0.383,0 0.77,-0.117 1.055,-0.344 l 28.851,-22.48 c 0.579,-0.454 1.055,-1.426 1.055,-2.168 V 10.641 C 68.473,9.902 67.902,9.105 67.207,8.863 Z M 62.445,49.41 37.5,68.848 12.555,49.41 V 13.617 L 37.5,5.113 62.445,13.617 Z" style="fill:currentColor;fill-opacity:1;fill-rule:nonzero;stroke:none" transform="scale(1.3333333)" /> <path id="Ic69099b9f7da47db8c58f1c757909d2620251106112458" d="m 32.477,19.504 v 3.012 c 0,0.371 0.3,0.672 0.671,0.672 h 9.04 v 22.933 h -3.18 V 28.543 c 0,-0.367 -0.301,-0.668 -0.672,-0.668 h -2.93 c -0.367,0 -0.668,0.301 -0.668,0.668 v 17.578 h -2.593 c -0.372,0 -0.672,0.301 -0.672,0.672 v 3.094 c 0,0.371 0.3,0.672 0.672,0.672 h 20.421 c 0.368,0 0.672,-0.301 0.672,-0.672 v -3.094 c 0,-0.371 -0.304,-0.672 -0.672,-0.672 H 46.539 V 35.91 h 4.856 c 0.367,0 0.671,-0.301 0.671,-0.672 v -2.929 c 0,-0.368 -0.304,-0.668 -0.671,-0.668 h -4.856 v -8.453 h 5.273 c 0.372,0 0.672,-0.301 0.672,-0.672 v -3.012 c 0,-0.367 -0.3,-0.672 -0.672,-0.672 H 33.148 c -0.371,0 -0.671,0.305 -0.671,0.672 z" style="fill:currentColor;fill-opacity:1;fill-rule:nonzero;stroke:none" transform="scale(1.3333333)" /> </g>
</svg>

