<?xml version="1.0" encoding="UTF-8" standalone="no"?> <svg version="1.1" id="Ia9dcb1c7731d437dbd373d3e3f3d3eb520251106163937" width="100" height="100" viewBox="0 0 100 100" xmlns="http://www.w3.org/2000/svg" xmlns:svg="http://www.w3.org/2000/svg"> <defs id="I57901f6ba65740f183242c2adf96de7220251106163937" /> <g id="I8ffe60bbe1564ad89c35a8a6fd0ba83420251106163937"> <path id="If9b4bef1133447eb85812afd2ddcd9f420251106163937" d="m 46.875,56.25 c 1.035,0 1.875,0.84 1.875,1.875 0,0.922 -0.664,1.687 -1.539,1.848 L 46.875,60 h -18.75 c -1.035,0 -1.875,-0.84 -1.875,-1.875 0,-0.922 0.664,-1.687 1.539,-1.848 l 0.336,-0.027 z m 7.5,-15 c 1.035,0 1.875,0.84 1.875,1.875 0,0.922 -0.664,1.687 -1.539,1.848 L 54.375,45 h -33.75 c -1.035,0 -1.875,-0.84 -1.875,-1.875 0,-0.922 0.664,-1.687 1.539,-1.848 l 0.336,-0.027 z m 0,-37.5 c 9.32,0 16.875,7.555 16.875,16.875 0,9.32 -7.555,16.875 -16.875,16.875 C 45.055,37.5 37.5,29.945 37.5,20.625 37.5,11.305 45.055,3.75 54.375,3.75 Z m -19.844,22.5 c 0.367,1.309 0.867,2.562 1.473,3.75 H 13.125 c -1.035,0 -1.875,-0.84 -1.875,-1.875 0,-0.922 0.664,-1.687 1.539,-1.848 l 0.336,-0.027 z m 19.844,-15 c -1.035,0 -1.875,0.84 -1.875,1.875 V 18.75 H 46.875 C 45.84,18.75 45,19.59 45,20.625 45,21.66 45.84,22.5 46.875,22.5 H 52.5 v 5.625 C 52.5,29.16 53.34,30 54.375,30 55.41,30 56.25,29.16 56.25,28.125 V 22.5 h 5.625 c 1.035,0 1.875,-0.84 1.875,-1.875 0,-1.035 -0.84,-1.875 -1.875,-1.875 H 56.25 v -5.625 c 0,-1.035 -0.84,-1.875 -1.875,-1.875 z" style="fill:currentColor;fill-opacity:1;fill-rule:nonzero;stroke:none" transform="scale(1.3333333)" /> </g>
</svg>

