<?xml version="1.0" encoding="UTF-8" standalone="no"?> <svg version="1.1" id="I5b113ef0dc864406ad5453849c29fcff20251106170956" width="100" height="100" viewBox="0 0 100 100" xmlns="http://www.w3.org/2000/svg" xmlns:svg="http://www.w3.org/2000/svg"> <defs id="Icf0da366b4dc426da34d3418ab74824420251106170956" /> <g id="I5904759768224958a0892bb113e8c40520251106170956"> <path id="I16d0998bd033412dbfead22ff1ccc33720251106170956" d="m 24.609,11.719 c -4.961,0 -9.125,3.426 -10.246,8.043 L 42.188,34.836 70.016,19.762 C 68.891,15.145 64.727,11.719 59.766,11.719 Z M 14.062,45.703 V 24.93 L 41.07,39.562 c 0.696,0.376 1.535,0.376 2.231,0 L 70.312,24.93 v 20.773 c 0,5.824 -4.722,10.547 -10.546,10.547 H 24.609 c -5.824,0 -10.547,-4.723 -10.547,-10.547 z M 9.375,22.871 c -2.828,1.891 -4.687,5.113 -4.687,8.77 v 14.062 c 0,11.004 8.917,19.922 19.921,19.922 h 25.782 c 3.656,0 6.879,-1.859 8.769,-4.687 H 24.609 c -8.414,0 -15.234,-6.821 -15.234,-15.235 z" style="fill:currentColor;fill-opacity:1;fill-rule:nonzero;stroke:none" transform="scale(1.3333333)" /> </g>
</svg>

