<?xml version="1.0" encoding="UTF-8" standalone="no"?> <svg version="1.1" id="I64d3383e1c9942d7a76e9c285d774b0b20251106105458" width="100" height="100" viewBox="0 0 100 100" xmlns="http://www.w3.org/2000/svg" xmlns:svg="http://www.w3.org/2000/svg"> <defs id="Iaa16cc680ddc4c4082e8efde957d450c20251106105458" /> <g id="I9b6b23eb81264d2f94c5382193b85cb820251106105458"> <path id="I8604e751621240bc893866bfc17b17c420251106105458" d="M 67.633,34.488 H 7.367 c -0.371,0 -0.672,0.301 -0.672,0.668 v 4.688 c 0,0.367 0.301,0.668 0.672,0.668 h 60.266 c 0.371,0 0.672,-0.301 0.672,-0.668 v -4.688 c 0,-0.367 -0.301,-0.668 -0.672,-0.668 z m 0,-13.898 h -4.688 c -0.367,0 -0.668,0.305 -0.668,0.672 v 4.687 c 0,0.367 0.301,0.668 0.668,0.668 h 4.688 c 0.371,0 0.672,-0.301 0.672,-0.668 v -4.687 c 0,-0.367 -0.301,-0.672 -0.672,-0.672 z m 0,41.687 h -4.688 c -0.367,0 -0.668,0.301 -0.668,0.668 v 4.688 c 0,0.371 0.301,0.672 0.668,0.672 h 4.688 c 0.371,0 0.672,-0.301 0.672,-0.672 v -4.688 c 0,-0.367 -0.301,-0.668 -0.672,-0.668 z m 0,-55.582 h -4.688 c -0.367,0 -0.668,0.301 -0.668,0.672 v 4.688 c 0,0.367 0.301,0.668 0.668,0.668 h 4.688 c 0.371,0 0.672,-0.301 0.672,-0.668 V 7.367 c 0,-0.371 -0.301,-0.672 -0.672,-0.672 z m 0,41.688 h -4.688 c -0.367,0 -0.668,0.301 -0.668,0.668 v 4.687 c 0,0.367 0.301,0.672 0.668,0.672 h 4.688 c 0.371,0 0.672,-0.305 0.672,-0.672 v -4.687 c 0,-0.367 -0.301,-0.668 -0.672,-0.668 z M 49.051,12.723 h 4.687 c 0.367,0 0.672,-0.301 0.672,-0.668 V 7.367 c 0,-0.371 -0.305,-0.672 -0.672,-0.672 h -4.687 c -0.367,0 -0.668,0.301 -0.668,0.672 v 4.688 c 0,0.367 0.301,0.668 0.668,0.668 z m 4.687,49.554 h -4.687 c -0.367,0 -0.668,0.301 -0.668,0.668 v 4.688 c 0,0.371 0.301,0.672 0.668,0.672 h 4.687 c 0.367,0 0.672,-0.301 0.672,-0.672 v -4.688 c 0,-0.367 -0.305,-0.668 -0.672,-0.668 z m -27.789,0 h -4.687 c -0.367,0 -0.672,0.301 -0.672,0.668 v 4.688 c 0,0.371 0.305,0.672 0.672,0.672 h 4.687 c 0.367,0 0.668,-0.301 0.668,-0.672 v -4.688 c 0,-0.367 -0.301,-0.668 -0.668,-0.668 z M 21.262,12.723 h 4.687 c 0.367,0 0.668,-0.301 0.668,-0.668 V 7.367 c 0,-0.371 -0.301,-0.672 -0.668,-0.672 h -4.687 c -0.367,0 -0.672,0.301 -0.672,0.672 v 4.688 c 0,0.367 0.305,0.668 0.672,0.668 z m -13.895,0 h 4.688 c 0.367,0 0.668,-0.301 0.668,-0.668 V 7.367 c 0,-0.371 -0.301,-0.672 -0.668,-0.672 H 7.367 c -0.371,0 -0.672,0.301 -0.672,0.672 v 4.688 c 0,0.367 0.301,0.668 0.672,0.668 z m 27.789,0 h 4.688 c 0.367,0 0.668,-0.301 0.668,-0.668 V 7.367 c 0,-0.371 -0.301,-0.672 -0.668,-0.672 h -4.688 c -0.367,0 -0.668,0.301 -0.668,0.672 v 4.688 c 0,0.367 0.301,0.668 0.668,0.668 z M 12.055,62.277 H 7.367 c -0.371,0 -0.672,0.301 -0.672,0.668 v 4.688 c 0,0.371 0.301,0.672 0.672,0.672 h 4.688 c 0.367,0 0.668,-0.301 0.668,-0.672 v -4.688 c 0,-0.367 -0.301,-0.668 -0.668,-0.668 z m 27.789,0 h -4.688 c -0.367,0 -0.668,0.301 -0.668,0.668 v 4.688 c 0,0.371 0.301,0.672 0.668,0.672 h 4.688 c 0.367,0 0.668,-0.301 0.668,-0.672 v -4.688 c 0,-0.367 -0.301,-0.668 -0.668,-0.668 z M 7.367,26.617 h 4.688 c 0.367,0 0.668,-0.301 0.668,-0.668 v -4.687 c 0,-0.367 -0.301,-0.672 -0.668,-0.672 H 7.367 c -0.371,0 -0.672,0.305 -0.672,0.672 v 4.687 c 0,0.367 0.301,0.668 0.672,0.668 z m 27.789,0 h 4.688 c 0.367,0 0.668,-0.301 0.668,-0.668 v -4.687 c 0,-0.367 -0.301,-0.672 -0.668,-0.672 h -4.688 c -0.367,0 -0.668,0.305 -0.668,0.672 v 4.687 c 0,0.367 0.301,0.668 0.668,0.668 z M 12.055,48.383 H 7.367 c -0.371,0 -0.672,0.301 -0.672,0.668 v 4.687 c 0,0.367 0.301,0.672 0.672,0.672 h 4.688 c 0.367,0 0.668,-0.305 0.668,-0.672 v -4.687 c 0,-0.367 -0.301,-0.668 -0.668,-0.668 z m 27.789,0 h -4.688 c -0.367,0 -0.668,0.301 -0.668,0.668 v 4.687 c 0,0.367 0.301,0.672 0.668,0.672 h 4.688 c 0.367,0 0.668,-0.305 0.668,-0.672 v -4.687 c 0,-0.367 -0.301,-0.668 -0.668,-0.668 z" style="fill:currentColor;fill-opacity:1;fill-rule:nonzero;stroke:none" transform="scale(1.3333333)" /> </g>
</svg>

