<?xml version="1.0" encoding="UTF-8" standalone="no"?>
<!-- Created with Inkscape (http://www.inkscape.org/) -->

<svg
   version="1.1"
   id="If807ad4fec06423fa3b652fb61f5b8fc20251103104211"
   width="100"
   height="100"
   viewBox="0 0 100 100"
   sodipodi:docname="output.ai"
   xmlns:inkscape="http://www.inkscape.org/namespaces/inkscape"
   xmlns:sodipodi="http://sodipodi.sourceforge.net/DTD/sodipodi-0.dtd"
   xmlns="http://www.w3.org/2000/svg"
   xmlns:svg="http://www.w3.org/2000/svg">
  <defs
     id="I283eff7d4b7e4f72a09437984f0c5a9320251103104211" />
  <sodipodi:namedview
     id="Ib8924b8c79ec473bbca9d25c9991042220251103104211"
     pagecolor="#ffffff"
     bordercolor="#000000"
     borderopacity="0.25"
     inkscape:showpageshadow="2"
     inkscape:pageopacity="0.0"
     inkscape:pagecheckerboard="0"
     inkscape:deskcolor="#d1d1d1">
    <inkscape:page
       x="0"
       y="0"
       inkscape:label="1"
       id="Ibb2e7e6a373f448082b7f3a4c04b09c420251103104211"
       width="100"
       height="100"
       margin="0"
       bleed="0" />
  </sodipodi:namedview>
  <g
     id="I5ced1dc188da409c9dd32e8157abe61720251103104211"
     inkscape:groupmode="layer"
     inkscape:label="1">
    <path
       id="Ia813e31d1a7940eea600ef14e015263d20251103104211"
       d="m 6.25,18.75 c 0,-3.453 2.797,-6.25 6.25,-6.25 h 50 c 3.453,0 6.25,2.797 6.25,6.25 v 37.5 c 0,3.453 -2.797,6.25 -6.25,6.25 H 39.066 c 0.622,-1.48 1.067,-3.051 1.321,-4.688 H 62.5 c 0.863,0 1.562,-0.699 1.562,-1.562 v -37.5 c 0,-0.863 -0.699,-1.562 -1.562,-1.562 H 23.438 v 17.425 c -1.02,-0.156 -2.063,-0.238 -3.126,-0.238 -0.527,0 -1.046,0.02 -1.562,0.059 V 17.188 H 12.5 c -0.863,0 -1.562,0.699 -1.562,1.562 V 36.664 C 9.215,37.562 7.637,38.699 6.25,40.031 Z m 31.25,3.125 c -3.453,0 -6.25,2.797 -6.25,6.25 v 3.125 c 0,3.453 2.797,6.25 6.25,6.25 H 50 c 3.453,0 6.25,-2.797 6.25,-6.25 v -3.125 c 0,-3.453 -2.797,-6.25 -6.25,-6.25 z M 50,26.562 c 0.863,0 1.562,0.7 1.562,1.563 v 3.125 c 0,0.863 -0.699,1.562 -1.562,1.562 H 37.5 c -0.863,0 -1.562,-0.699 -1.562,-1.562 v -3.125 c 0,-0.863 0.699,-1.563 1.562,-1.563 z M 20.312,37.5 c 9.493,0 17.188,7.695 17.188,17.188 0,9.492 -7.695,17.187 -17.188,17.187 C 10.82,71.875 3.125,64.18 3.125,54.688 3.125,45.195 10.82,37.5 20.312,37.5 Z m 1.567,26.574 V 56.25 h 7.797 c 0.863,0 1.562,-0.699 1.562,-1.562 0,-0.864 -0.699,-1.563 -1.562,-1.563 h -7.801 v -7.816 c 0,-0.864 -0.699,-1.563 -1.563,-1.563 -0.863,0 -1.562,0.699 -1.562,1.563 v 7.816 h -7.828 c -0.86,0 -1.559,0.699 -1.559,1.563 0,0.863 0.699,1.562 1.559,1.562 h 7.832 v 7.824 c 0,0.864 0.699,1.563 1.562,1.563 0.864,0 1.563,-0.699 1.563,-1.563 z"
       style="fill:#212121;fill-opacity:1;fill-rule:nonzero;stroke:none"
       transform="scale(1.3333333)" />
  </g>
</svg>





