<?xml version="1.0" encoding="UTF-8" standalone="no"?> <svg version="1.1" id="I8ca3e53d439f4ed8927e01f2c100dd2320251110123031" width="100" height="100" viewBox="0 0 100 100" xmlns="http://www.w3.org/2000/svg" xmlns:svg="http://www.w3.org/2000/svg"> <defs id="Ic8265798d4b04a2f9ad38c3c3c55328320251110123031" /> <g id="I35902555a55d4797a62d0e048911c3f020251110123031"> <path id="I4fec4f02bf234a18be52cb7333a4d88920251110123031" d="M 32.887,6.438 C 27.398,3.656 20.719,6.422 18.801,12.273 l -0.656,2.012 c -0.598,1.824 -2.028,3.254 -3.852,3.852 l -2.012,0.656 C 6.43,20.711 3.664,27.391 6.445,32.879 l 0.957,1.891 c 0.868,1.71 0.868,3.734 0,5.445 l -0.957,1.89 C 3.664,47.594 6.43,54.273 12.281,56.191 l 2.012,0.657 c 1.824,0.597 3.254,2.027 3.852,3.851 l 0.656,2.012 c 1.918,5.851 8.597,8.617 14.086,5.836 l 1.89,-0.957 c 1.711,-0.867 3.735,-0.867 5.446,0 l 1.89,0.957 c 5.492,2.781 12.168,0.015 14.086,-5.836 l 0.656,-2.012 c 0.598,-1.824 2.028,-3.254 3.852,-3.851 l 2.012,-0.657 c 5.851,-1.918 8.617,-8.597 5.836,-14.086 l -0.957,-1.89 c -0.868,-1.711 -0.868,-3.735 0,-5.445 l 0.957,-1.891 C 71.336,27.391 68.57,20.711 62.719,18.793 L 60.707,18.137 C 58.883,17.539 57.453,16.109 56.855,14.285 L 56.199,12.273 C 54.281,6.422 47.605,3.656 42.113,6.438 l -1.89,0.957 c -1.711,0.867 -3.735,0.867 -5.446,0 z M 37.5,33.48 c -4.809,0 -8.707,-3.894 -8.707,-8.703 0,-4.808 3.898,-8.707 8.707,-8.707 4.809,0 8.707,3.899 8.707,8.707 0,4.809 -3.898,8.703 -8.707,8.703 z m 16.07,9.758 c 0,8.61 -7.195,14.352 -16.07,14.352 -8.875,0 -16.07,-5.742 -16.07,-14.352 0,-3.168 2.57,-5.738 5.738,-5.738 h 20.664 c 3.168,0 5.738,2.57 5.738,5.738 z" style="fill:currentColor;fill-opacity:1;fill-rule:nonzero;stroke:none" transform="scale(1.3333333)" /> </g>
</svg>

