<?xml version="1.0" encoding="UTF-8" standalone="no"?> <svg version="1.1" id="I9a184a38fd8244eca396105a83f9066120251106170956" width="100" height="100" viewBox="0 0 100 100" xmlns="http://www.w3.org/2000/svg" xmlns:svg="http://www.w3.org/2000/svg"> <defs id="Iae279b2ba91b4558b8dd10bd15d5af0c20251106170956" /> <g id="I844f8d29d8c540d8a306173a492de41120251106170956"> <path id="I4cbc72a0ef4c451090e5d00c68ad399c20251106170956" d="m 6.25,16.406 c 0,-3.883 3.148,-7.031 7.031,-7.031 h 48.438 c 3.883,0 7.031,3.148 7.031,7.031 v 15.625 c 0,1.293 -1.051,2.344 -2.344,2.344 H 39.844 v 6.254 h 3.125 c 1.293,0 2.343,1.047 2.343,2.344 v 7.043 h 5.465 c 1.297,0 2.344,1.046 2.344,2.343 v 2.329 h 13.285 c 1.293,0 2.344,1.05 2.344,2.343 0,1.293 -1.051,2.344 -2.344,2.344 H 53.121 v 3.918 c 0,1.293 -1.047,2.344 -2.344,2.344 H 24.223 c -1.297,0 -2.344,-1.051 -2.344,-2.344 V 59.375 H 8.594 c -1.293,0 -2.344,-1.051 -2.344,-2.344 0,-1.293 1.051,-2.343 2.344,-2.343 h 13.285 v -2.329 c 0,-1.297 1.047,-2.343 2.344,-2.343 h 5.465 v -7.043 c 0,-1.297 1.05,-2.344 2.343,-2.344 h 3.125 V 34.375 H 8.594 c -1.293,0 -2.344,-1.051 -2.344,-2.344 z m 49.992,8.602 c 1.731,0 3.133,-1.403 3.133,-3.133 0,-1.73 -1.402,-3.133 -3.133,-3.133 -1.73,0 -3.133,1.403 -3.133,3.133 0,1.73 1.403,3.133 3.133,3.133 z" style="fill:currentColor;fill-opacity:1;fill-rule:nonzero;stroke:none" transform="scale(1.3333333)" /> </g>
</svg>

