<?xml version="1.0" encoding="UTF-8" standalone="no"?> <svg version="1.1" id="I03aeb49b46a9451b80fef8c1d4c76b2c20251106125937" width="100" height="100" viewBox="0 0 100 100" xmlns="http://www.w3.org/2000/svg" xmlns:svg="http://www.w3.org/2000/svg"> <defs id="If9b1ee5e97a441c98ae3e9822a82bdc320251106125937" /> <g id="I789bdb288f6340bb922df3de1dabdabb20251106125937"> <path id="I9561bf216d074e52a2cb9bd0ffffe88420251106125937" d="M 28.125,63.75 C 27.09,63.75 26.25,62.91 26.25,61.875 26.25,60.84 27.09,60 28.125,60 H 52.5 c 4.141,0 7.5,-3.359 7.5,-7.5 v -30 C 60,18.359 56.641,15 52.5,15 H 28.125 c -1.035,0 -1.875,-0.84 -1.875,-1.875 0,-1.035 0.84,-1.875 1.875,-1.875 H 52.5 c 6.215,0 11.25,5.035 11.25,11.25 v 30 c 0,6.215 -5.035,11.25 -11.25,11.25 z m 0.551,-40.699 c 0.73,-0.735 1.918,-0.735 2.648,0 l 13.125,13.125 c 0.735,0.73 0.735,1.918 0,2.648 L 31.324,51.949 c -0.73,0.735 -1.918,0.735 -2.648,0 -0.735,-0.73 -0.735,-1.918 0,-2.648 l 9.922,-9.926 H 5.625 c -1.035,0 -1.875,-0.84 -1.875,-1.875 0,-1.035 0.84,-1.875 1.875,-1.875 h 32.973 l -9.922,-9.926 c -0.735,-0.73 -0.735,-1.918 0,-2.648 z" style="fill:currentColor;fill-opacity:1;fill-rule:nonzero;stroke:none" transform="scale(1.3333333)" /> </g>
</svg>

