<?xml version="1.0" encoding="UTF-8" standalone="no"?> <svg version="1.1" id="Ib8796a08aa7449c8bc8acbdec5d52db820251106165301" width="100" height="100" viewBox="0 0 100 100" xmlns="http://www.w3.org/2000/svg" xmlns:svg="http://www.w3.org/2000/svg"> <defs id="I56ce554b3af541059373a13d0de4276a20251106165301" /> <g id="Ie36a99b3248844549881aa53c9ae1b2920251106165301"> <path id="Ief61824e010f4f99a01e8a299aa2b60820251106165301" d="m 63.309,6.262 c 1.187,0 2.164,0.883 2.32,2.027 l 0.019,0.32 -0.011,14.055 c -0.008,3.613 -2.739,6.586 -6.254,6.981 v 7.062 c 0,3.723 -2.891,6.766 -6.551,7.016 l -0.48,0.015 h -0.786 v 8.723 c 0,2.547 -1.375,4.879 -3.566,6.121 l -0.48,0.246 -20.735,9.707 c -1.457,0.684 -3.117,-0.269 -3.316,-1.808 L 23.445,66.414 V 43.738 h -0.789 c -3.722,0 -6.769,-2.89 -7.015,-6.55 L 15.625,36.707 V 29.645 C 12.277,29.277 9.637,26.555 9.395,23.172 L 9.375,22.656 V 8.605 c 0,-1.293 1.051,-2.343 2.344,-2.343 1.187,0 2.168,0.883 2.324,2.027 l 0.019,0.316 v 14.051 c 0,1.188 0.883,2.168 2.028,2.324 L 16.406,25 h 42.192 c 1.187,0 2.172,-0.883 2.328,-2.027 L 60.949,22.656 60.961,8.605 C 60.965,7.309 62.016,6.262 63.309,6.262 Z M 46.879,43.738 H 28.133 v 18.989 l 17.398,-8.141 c 0.719,-0.34 1.215,-1.016 1.324,-1.789 l 0.024,-0.336 z m 7.816,-14.05 H 20.312 v 7.019 c 0,1.188 0.883,2.168 2.028,2.32 l 0.316,0.024 h 29.696 c 1.187,0 2.168,-0.883 2.32,-2.028 l 0.023,-0.316 z" style="fill:currentColor;fill-opacity:1;fill-rule:nonzero;stroke:none" transform="scale(1.3333333)" /> </g>
</svg>

