<?xml version="1.0" encoding="UTF-8" standalone="no"?> <svg version="1.1" id="I2b4572a5771a4046bacc4069acac1e0a20251110123029" width="100" height="100" viewBox="0 0 100 100" xmlns="http://www.w3.org/2000/svg" xmlns:svg="http://www.w3.org/2000/svg"> <defs id="Ic5f0b533d0b042fe9cdf38b5c73f0a3720251110123029" /> <g id="Iacc158bfee5c47c5b47d2c63283bdd2820251110123029"> <path id="Iaeab727f9fa34afbbf406486f89173a020251110123029" d="m 59.598,10.715 c 5.547,0 10.047,4.496 10.047,10.043 v 33.484 c 0,5.547 -4.5,10.043 -10.047,10.043 H 15.41 C 9.863,64.285 5.363,59.789 5.363,54.242 V 20.758 c 0,-5.547 4.5,-10.043 10.047,-10.043 z M 15.41,14.73 c -3.328,0.004 -6.027,2.7 -6.027,6.028 v 33.484 c 0,3.328 2.699,6.024 6.027,6.028 H 45.531 V 14.73 Z m 34.141,0 v 45.54 h 10.047 c 3.328,0 6.027,-2.7 6.027,-6.028 V 20.758 c 0,-3.328 -2.699,-6.028 -6.027,-6.028 z M 24.707,28.043 c 0.785,-0.785 2.055,-0.785 2.84,0 0.785,0.785 0.785,2.059 0,2.84 l -4.606,4.609 H 38.18 c 1.109,0 2.008,0.899 2.008,2.008 0,1.109 -0.899,2.008 -2.008,2.008 H 22.941 l 4.606,4.609 c 0.785,0.781 0.785,2.055 0,2.84 -0.785,0.785 -2.055,0.785 -2.84,0 l -8.035,-8.035 c -0.785,-0.785 -0.785,-2.059 0,-2.844 z" style="fill:currentColor;fill-opacity:1;fill-rule:nonzero;stroke:none" transform="scale(1.3333333)" /> </g>
</svg>

