<?xml version="1.0" encoding="UTF-8" standalone="no"?> <svg version="1.1" id="Iac7fbcb0d8414846bdfa1c6c40f2066e20251106170956" width="100" height="100" viewBox="0 0 100 100" xmlns="http://www.w3.org/2000/svg" xmlns:svg="http://www.w3.org/2000/svg"> <defs id="Ic107e5bc37184e7bb2e7f1a97d573eb220251106170956" /> <g id="I11a6b193b92d4cd299becbc313b3151020251106170956"> <path id="Id509c510112a4f7bbc39911655f8f6bd20251106170956" d="m 68.75,20.312 c 0,9.493 -7.695,17.188 -17.188,17.188 -9.492,0 -17.187,-7.695 -17.187,-17.188 0,-9.492 7.695,-17.187 17.187,-17.187 9.493,0 17.188,7.695 17.188,17.187 z m -6.707,-7.355 c -0.609,-0.609 -1.602,-0.609 -2.211,0 L 48.438,24.352 43.293,19.207 c -0.609,-0.609 -1.602,-0.609 -2.211,0 -0.609,0.609 -0.609,1.602 0,2.211 l 6.25,6.25 c 0.609,0.609 1.602,0.609 2.211,0 l 12.5,-12.5 c 0.609,-0.609 0.609,-1.602 0,-2.211 z M 60.938,38.336 V 43.75 H 46.875 l -0.316,0.02 c -1.145,0.156 -2.028,1.136 -2.028,2.324 l -0.015,0.48 c -0.25,3.66 -3.293,6.551 -7.016,6.551 -3.883,0 -7.031,-3.148 -7.031,-7.031 l -0.02,-0.317 C 30.293,44.633 29.312,43.75 28.125,43.75 H 14.062 V 22.656 l 0.02,-0.449 c 0.227,-2.809 2.578,-5.019 5.449,-5.019 h 11.957 c 0.254,-1.637 0.7,-3.208 1.321,-4.688 H 19.531 l -0.578,0.016 c -5.34,0.3 -9.578,4.726 -9.578,10.14 v 35.938 l 0.016,0.578 c 0.3,5.34 4.726,9.578 10.14,9.578 h 35.938 l 0.578,-0.016 c 5.34,-0.3 9.578,-4.726 9.578,-10.14 V 34.969 c -1.387,1.332 -2.965,2.469 -4.687,3.367 z M 14.062,58.594 V 48.438 h 11.954 l 0.136,0.589 c 1.301,5.051 5.887,8.785 11.348,8.785 l 0.625,-0.015 c 5.391,-0.285 9.813,-4.207 10.859,-9.359 h 11.954 v 10.156 l -0.02,0.449 c -0.227,2.809 -2.578,5.019 -5.449,5.019 H 19.531 l -0.449,-0.019 c -2.809,-0.227 -5.02,-2.578 -5.02,-5.449 z" style="fill:currentColor;fill-opacity:1;fill-rule:nonzero;stroke:none" transform="scale(1.3333333)" /> </g>
</svg>

