<?xml version="1.0" encoding="UTF-8" standalone="no"?> <svg version="1.1" id="Ic3ad294a94904c5497fc61d9a795337620251106125938" width="100" height="100" viewBox="0 0 100 100" xmlns="http://www.w3.org/2000/svg" xmlns:svg="http://www.w3.org/2000/svg"> <defs id="I0084d00b25f147f9a47b88038c74211a20251106125938" /> <g id="I2c8bda2f1e08473ebd3a5897294b67b320251106125938"> <path id="I28a2b3521f5442f1a0ea1ba520cb466620251106125938" d="m 65.625,6.25 c 1.727,0 3.125,1.398 3.125,3.125 v 12.5 c 0,5.176 -4.195,9.375 -9.375,9.375 H 45.043 l 7.168,7.164 c 1.219,1.223 1.219,3.199 0,4.422 -1.223,1.219 -3.199,1.219 -4.422,0 l -12.5,-12.5 c -1.219,-1.223 -1.219,-3.199 0,-4.422 l 12.5,-12.5 c 1.223,-1.219 3.199,-1.219 4.422,0 1.219,1.223 1.219,3.199 0,4.422 L 45.043,25 H 59.375 C 61.102,25 62.5,23.602 62.5,21.875 V 9.375 C 62.5,7.648 63.898,6.25 65.625,6.25 Z M 22.789,35.289 c -1.219,1.223 -1.219,3.199 0,4.422 l 7.168,7.164 H 9.375 c -1.727,0 -3.125,1.398 -3.125,3.125 0,1.727 1.398,3.125 3.125,3.125 h 20.582 l -7.168,7.164 c -1.219,1.223 -1.219,3.199 0,4.422 1.223,1.219 3.199,1.219 4.422,0 l 12.5,-12.5 c 0.301,-0.305 0.527,-0.652 0.68,-1.023 0.148,-0.364 0.234,-0.762 0.234,-1.18 V 50 c 0,-0.832 -0.324,-1.586 -0.855,-2.148 -0.02,-0.024 -0.043,-0.047 -0.067,-0.071 L 27.211,35.289 c -1.223,-1.219 -3.199,-1.219 -4.422,0 z" style="fill:currentColor;fill-opacity:1;fill-rule:nonzero;stroke:none" transform="scale(1.3333333)" /> </g>
</svg>

