<?xml version="1.0" encoding="UTF-8" standalone="no"?> <svg version="1.1" id="If9d4133dfc3741a4b8f47926e5f1c98d20251106104833" width="100" height="100" viewBox="0 0 100 100" xmlns="http://www.w3.org/2000/svg" xmlns:svg="http://www.w3.org/2000/svg"> <defs id="I27fdf1ef08344c3782042718ba02253e20251106104833" /> <g id="I0a86b97ef1d04ca5b46059eb1cf4e8cf20251106104833"> <path id="I240779f0fa874dc38334327f7758967520251106104833" d="M 35.09,60.797 66.746,29.129 c 0.145,-0.141 0.211,-0.336 0.192,-0.527 L 64.805,3.375 C 64.746,2.719 64.234,2.211 63.582,2.152 L 38.355,0.023 C 38.16,0.008 37.961,0.074 37.828,0.219 L 6.168,31.875 c -0.258,0.262 -0.258,0.684 0,0.945 l 27.977,27.977 c 0.257,0.265 0.683,0.265 0.945,0 z m 5.238,-54.551 18.801,1.59 1.59,18.801 -26.106,26.097 -20.39,-20.382 z m 5.035,15.586 c 1.571,1.57 4.114,1.57 5.684,0 1.57,-1.57 1.57,-4.113 0,-5.684 -3.789,-3.785 -9.469,1.899 -5.684,5.684 z M 69.117,39.828 65.801,36.52 c -0.262,-0.258 -0.684,-0.258 -0.946,0 L 34.555,66.762 14.664,46.926 c -0.262,-0.262 -0.684,-0.262 -0.945,0 l -3.313,3.304 c -0.261,0.262 -0.261,0.684 0,0.946 l 20.356,20.324 3.316,3.309 c 0.258,0.257 0.684,0.257 0.945,0 L 69.117,40.773 c 0.258,-0.261 0.258,-0.687 0,-0.945 z" style="fill:currentColor;fill-opacity:1;fill-rule:nonzero;stroke:none" transform="scale(1.3333333)" /> </g>
</svg>

