<?xml version="1.0" encoding="UTF-8" standalone="no"?> <svg version="1.1" id="Id27b97de797a4562bf9ab9690eeaa33420251106132945" width="100" height="100" viewBox="0 0 100 100" xmlns="http://www.w3.org/2000/svg" xmlns:svg="http://www.w3.org/2000/svg"> <defs id="I64155179bcb94dc1bbd29fddf046a88620251106132945" /> <g id="If83fd82ad7354a64a476846da01cf9e420251106132945"> <path id="I6800be2c60614ac9a53b47918e88d5b120251106132945" d="m 55.469,11.328 c 0,-1.078 0.875,-1.953 1.953,-1.953 1.078,0 1.953,0.875 1.953,1.953 v 28.906 c 0,6.258 -5.07,11.328 -11.328,11.328 H 19.66 l 11,10.711 c 0.774,0.75 0.789,1.989 0.035,2.762 -0.75,0.774 -1.988,0.789 -2.761,0.035 L 13.09,50.617 C 12.715,50.25 12.5,49.746 12.5,49.219 c 0,-0.528 0.215,-1.031 0.59,-1.399 L 27.934,33.367 c 0.773,-0.754 2.011,-0.738 2.761,0.035 0.754,0.774 0.739,2.012 -0.035,2.762 L 18.859,47.656 h 29.188 c 4.098,0 7.422,-3.324 7.422,-7.422 z" style="fill:currentColor;fill-opacity:1;fill-rule:nonzero;stroke:none" transform="scale(1.3333333)" /> </g>
</svg>

