<?xml version="1.0" encoding="UTF-8" standalone="no"?> <svg version="1.1" id="Ie3429cf77a6e46a29a93db41df9cb2f120251106154012" width="100" height="100" viewBox="0 0 100 100" xmlns="http://www.w3.org/2000/svg" xmlns:svg="http://www.w3.org/2000/svg"> <defs id="I686995d3720947cd95a97161d4da88b120251106154012" /> <g id="I1fb39938c9b94c2ca684aa8f11e79fe920251106154012"> <path id="Ib4416047daa141699eb3612edd5185a220251106154012" d="m 21.012,68.75 c 0.027,0 0.054,0 0.082,0 h 7.808 c -0.5,-1.203 -0.777,-2.523 -0.777,-3.906 V 51.57 H 13.281 L 12.965,51.547 C 11.82,51.395 10.938,50.414 10.938,49.227 V 16.406 l 0.019,-0.316 c 0.156,-1.145 1.137,-2.028 2.324,-2.028 h 48.434 l 0.316,0.02 c 1.145,0.156 2.028,1.137 2.028,2.324 V 37.5 h 0.785 c 1.383,0 2.699,0.277 3.902,0.777 V 16.406 L 68.73,15.926 C 68.484,12.266 65.438,9.375 61.715,9.375 H 13.281 l -0.48,0.016 C 9.141,9.637 6.25,12.684 6.25,16.406 v 32.821 l 0.016,0.48 c 0.242,3.555 3.121,6.383 6.695,6.543 H 12.5 v 0.008 h 10.934 v 7.804 h -5.465 l -0.317,0.024 c -1.144,0.156 -2.027,1.137 -2.027,2.32 0,1.27 1.004,2.301 2.262,2.344 z M 31.25,47.656 c 0,-3.883 3.148,-7.031 7.031,-7.031 h 26.563 c 3.883,0 7.031,3.148 7.031,7.031 v 17.188 c 0,3.883 -3.148,7.031 -7.031,7.031 H 38.281 c -3.883,0 -7.031,-3.148 -7.031,-7.031 z m 12.5,0.782 c 0,-1.293 -1.051,-2.344 -2.344,-2.344 -1.293,0 -2.344,1.051 -2.344,2.344 0,1.292 1.051,2.343 2.344,2.343 1.293,0 2.344,-1.051 2.344,-2.343 z m 10.938,0 c 0,-1.293 -1.051,-2.344 -2.344,-2.344 -1.293,0 -2.344,1.051 -2.344,2.344 0,1.292 1.051,2.343 2.344,2.343 1.293,0 2.344,-1.051 2.344,-2.343 z m 7.812,2.343 c 1.293,0 2.344,-1.051 2.344,-2.343 0,-1.293 -1.051,-2.344 -2.344,-2.344 -1.293,0 -2.344,1.051 -2.344,2.344 0,1.292 1.051,2.343 2.344,2.343 z m -2.344,5.469 c 0,-1.293 -1.051,-2.344 -2.344,-2.344 -1.292,0 -2.343,1.051 -2.343,2.344 0,1.293 1.051,2.344 2.343,2.344 1.293,0 2.344,-1.051 2.344,-2.344 z m -13.281,2.344 c 1.293,0 2.344,-1.051 2.344,-2.344 0,-1.293 -1.051,-2.344 -2.344,-2.344 -1.293,0 -2.344,1.051 -2.344,2.344 0,1.293 1.051,2.344 2.344,2.344 z m -6.25,6.25 c 0,1.293 1.051,2.344 2.344,2.344 h 17.187 c 1.293,0 2.344,-1.051 2.344,-2.344 0,-1.293 -1.051,-2.344 -2.344,-2.344 H 42.969 c -1.293,0 -2.344,1.051 -2.344,2.344 z" style="fill:currentColor;fill-opacity:1;fill-rule:nonzero;stroke:none" transform="scale(1.3333333)" /> </g>
</svg>

