<?xml version="1.0" encoding="UTF-8" standalone="no"?> <svg version="1.1" id="Ibc8110bea64b4f998bea25f7deac502520251110124421" width="100" height="100" viewBox="0 0 100 100" xmlns="http://www.w3.org/2000/svg" xmlns:svg="http://www.w3.org/2000/svg"> <defs id="Id394ba04afd14597a64703a6e16a91e220251110124421" /> <g id="I7614a3e5e36e42c6a2ba7985ecbccfb120251110124421"> <path id="If501da3e29e74740b71571afdf82d6ff20251110124421" d="m 54.91,37.5 c 9.613,0 17.41,7.797 17.41,17.41 0,9.617 -7.797,17.414 -17.41,17.414 C 45.293,72.32 37.5,64.527 37.5,54.91 37.5,45.297 45.293,37.5 54.91,37.5 Z M 5.477,10.918 C 4.738,8.16 7.574,5.801 10.152,7.031 L 67.73,34.484 c 2.278,1.082 2.512,4.09 0.715,5.582 -2.043,-1.867 -4.476,-3.308 -7.16,-4.207 L 9.73,11.281 16.207,35.496 h 30 c 0.59,0 1.117,0.262 1.484,0.664 -2.086,0.805 -4,1.945 -5.683,3.356 H 16.207 L 9.73,63.73 35.09,51.641 c -0.176,1.062 -0.27,2.156 -0.27,3.269 0,0.434 0.02,0.863 0.043,1.285 L 10.152,67.98 C 7.574,69.207 4.738,66.852 5.477,64.094 L 12.59,37.508 Z M 54.91,44.199 c -0.738,0 -1.34,0.598 -1.34,1.336 v 9.375 c 0,0.742 0.602,1.34 1.34,1.34 h 8.035 c 0.739,0 1.34,-0.598 1.34,-1.34 0,-0.738 -0.601,-1.336 -1.34,-1.336 H 56.25 v -8.039 c 0,-0.738 -0.602,-1.336 -1.34,-1.336 z" style="fill:currentColor;fill-opacity:1;fill-rule:nonzero;stroke:none" transform="scale(1.3333333)" /> </g>
</svg>

