<?xml version="1.0" encoding="UTF-8" standalone="no"?> <svg version="1.1" id="Id65edf24f34144aead9dff543686467620251106144520" width="100" height="100" viewBox="0 0 100 100" xmlns="http://www.w3.org/2000/svg" xmlns:svg="http://www.w3.org/2000/svg"> <defs id="Icd0a2eac91ac4b9eb703d4d82c5c4c0e20251106144520" /> <g id="I8ebf7728b4644650a2ebad95b5e8241c20251106144520"> <path id="I48df666205fa4904b4c0294778b73fc720251106144520" d="m 40.812,28.121 c 0.864,-0.969 0.774,-2.449 -0.191,-3.309 -0.969,-0.863 -2.449,-0.773 -3.309,0.192 L 26.379,37.301 21.883,33.238 c -0.961,-0.867 -2.442,-0.793 -3.309,0.168 -0.867,0.957 -0.793,2.442 0.168,3.309 l 6.25,5.648 c 0.461,0.418 1.074,0.637 1.699,0.602 0.625,-0.035 1.207,-0.317 1.621,-0.781 z M 6.441,32.812 c 0,-12.945 10.497,-23.437 23.438,-23.437 12.945,0 23.437,10.492 23.437,23.437 0,12.946 -10.492,23.438 -23.437,23.438 -3.434,0 -6.703,-0.742 -9.645,-2.07 -3.211,0.765 -6.816,1.629 -9.16,2.191 C 8.219,57.059 5.648,54.461 6.375,51.609 6.957,49.324 7.844,45.848 8.637,42.73 7.23,39.715 6.441,36.352 6.441,32.812 Z m 23.438,-18.75 c -10.356,0 -18.75,8.395 -18.75,18.75 0,3.098 0.75,6.016 2.078,8.583 l 0.406,0.793 -0.218,0.863 c -0.715,2.801 -1.536,6.027 -2.157,8.461 2.496,-0.598 5.828,-1.399 8.711,-2.086 l 0.828,-0.196 0.758,0.379 c 2.512,1.25 5.344,1.953 8.344,1.953 10.355,0 18.75,-8.394 18.75,-18.75 0,-10.355 -8.395,-18.75 -18.75,-18.75 z M 29.57,59.375 c 4.18,3.879 9.782,6.25 15.934,6.25 3.437,0 6.707,-0.742 9.652,-2.074 3.262,0.765 6.832,1.527 9.102,2 2.789,0.586 5.226,-1.918 4.586,-4.684 -0.508,-2.199 -1.309,-5.609 -2.098,-8.762 1.41,-3.011 2.195,-6.375 2.195,-9.917 0,-10.258 -6.589,-18.981 -15.769,-22.157 1.094,1.992 1.941,4.137 2.5,6.399 5.164,3.34 8.582,9.148 8.582,15.758 0,3.097 -0.75,6.015 -2.074,8.585 l -0.407,0.789 0.219,0.864 c 0.711,2.797 1.457,5.937 2.004,8.281 -2.418,-0.512 -5.68,-1.219 -8.558,-1.906 l -0.829,-0.196 -0.761,0.379 c -2.508,1.25 -5.34,1.954 -8.344,1.954 -3.309,0 -6.422,-0.86 -9.121,-2.364 -2.082,0.524 -4.258,0.801 -6.504,0.801 -0.102,0 -0.207,0 -0.309,0 z" style="fill:currentColor;fill-opacity:1;fill-rule:nonzero;stroke:none" transform="scale(1.3333333)" /> </g>
</svg>

