<?xml version="1.0" encoding="UTF-8" standalone="no"?> <svg version="1.1" id="I6c7700676e734b3fba34992790a468a520251106170956" width="100" height="100" viewBox="0 0 100 100" xmlns="http://www.w3.org/2000/svg" xmlns:svg="http://www.w3.org/2000/svg"> <defs id="Ib91be91f017a46f9a84936db7e74e5ac20251106170956" /> <g id="Ic0a71edad4a9463faf269440a880abab20251106170956"> <path id="I0cb5dc98a5b647fdb7b3a6243d6e23a220251106170956" d="M 71.875,20.312 C 71.875,10.82 64.18,3.125 54.688,3.125 45.195,3.125 37.5,10.82 37.5,20.312 c 0,9.493 7.695,17.188 17.188,17.188 9.492,0 17.187,-7.695 17.187,-17.188 z M 54.688,9.375 c 0.863,0 1.562,0.699 1.562,1.563 v 7.812 h 6.25 c 0.863,0 1.562,0.699 1.562,1.562 0,0.864 -0.699,1.563 -1.562,1.563 h -7.812 c -0.864,0 -1.563,-0.699 -1.563,-1.563 v -9.374 c 0,-0.864 0.699,-1.563 1.563,-1.563 z m 9.374,28.961 v 14.008 l -0.019,0.449 c -0.227,2.809 -2.578,5.019 -5.449,5.019 H 16.406 L 15.957,57.793 C 13.148,57.566 10.938,55.215 10.938,52.344 V 29.293 l 25.472,13.406 0.297,0.133 c 0.613,0.219 1.301,0.176 1.883,-0.133 l 7.531,-3.965 C 44.477,37.969 42.949,36.988 41.578,35.828 L 37.5,37.977 10.938,23.996 v -1.34 l 0.019,-0.449 c 0.227,-2.809 2.578,-5.019 5.449,-5.019 H 34.613 C 34.867,15.551 35.312,13.98 35.934,12.5 H 16.406 l -0.578,0.016 c -5.34,0.3 -9.578,4.726 -9.578,10.14 v 29.688 l 0.016,0.578 c 0.3,5.34 4.726,9.578 10.14,9.578 h 42.188 l 0.578,-0.016 c 5.34,-0.3 9.578,-4.726 9.578,-10.14 V 34.969 c -1.387,1.332 -2.965,2.469 -4.688,3.367 z" style="fill:currentColor;fill-opacity:1;fill-rule:nonzero;stroke:none" transform="scale(1.3333333)" /> </g>
</svg>

