<?xml version="1.0" encoding="UTF-8" standalone="no"?> <svg version="1.1" id="I9dfa48a3b2d143b8bd62f4be7159ed2e20251110124422" width="100" height="100" viewBox="0 0 100 100" xmlns="http://www.w3.org/2000/svg" xmlns:svg="http://www.w3.org/2000/svg"> <defs id="Iaa1620856dc741ab82c5322e57820f6a20251110124422" /> <g id="I415442280eb84b7b95ee8a6ab9bed5b620251110124422"> <path id="Ie1b8b14cf0154da38c8feae0b281c70420251110124422" d="m 6.25,21.094 c 0,-4.746 3.848,-8.594 8.594,-8.594 h 45.312 c 4.746,0 8.594,3.848 8.594,8.594 v 32.812 c 0,4.746 -3.848,8.594 -8.594,8.594 H 14.844 C 10.098,62.5 6.25,58.652 6.25,53.906 Z M 19.531,25 c -2.156,0 -3.906,1.75 -3.906,3.906 v 17.188 c 0,2.156 1.75,3.906 3.906,3.906 h 17.188 c 2.156,0 3.906,-1.75 3.906,-3.906 V 28.906 C 40.625,26.75 38.875,25 36.719,25 Z m 24.219,2.344 c 0,1.293 1.051,2.344 2.344,2.344 h 10.937 c 1.293,0 2.344,-1.051 2.344,-2.344 C 59.375,26.051 58.324,25 57.031,25 H 46.094 c -1.293,0 -2.344,1.051 -2.344,2.344 z m 2.344,7.031 c -1.293,0 -2.344,1.051 -2.344,2.344 0,1.293 1.051,2.343 2.344,2.343 h 10.937 c 1.293,0 2.344,-1.05 2.344,-2.343 0,-1.293 -1.051,-2.344 -2.344,-2.344 z M 43.75,46.094 c 0,1.293 1.051,2.344 2.344,2.344 h 10.937 c 1.293,0 2.344,-1.051 2.344,-2.344 0,-1.293 -1.051,-2.344 -2.344,-2.344 H 46.094 c -1.293,0 -2.344,1.051 -2.344,2.344 z" style="fill:currentColor;fill-opacity:1;fill-rule:nonzero;stroke:none" transform="scale(1.3333333)" /> </g>
</svg>

