<?xml version="1.0" encoding="UTF-8" standalone="no"?> <svg version="1.1" id="I6cf76021153543e4be42ddf1a784df4120251106163937" width="100" height="100" viewBox="0 0 100 100" xmlns="http://www.w3.org/2000/svg" xmlns:svg="http://www.w3.org/2000/svg"> <defs id="Ie16307e3fd4e4c3c9a652c5c59bc948e20251106163937" /> <g id="I21fb8fef831a494096fc88d874c2fd1f20251106163937"> <path id="I9bf99c15cc624945858219080e5a393620251106163937" d="m 39.535,8.242 c 2.77,-2.742 7.242,-2.711 9.969,0.074 l 15.344,15.653 c 2.691,2.742 2.679,7.136 -0.024,9.867 l -26.82,27.102 h 12.355 c 0.993,-3.172 3.953,-5.469 7.453,-5.469 4.317,0 7.813,3.496 7.813,7.812 0,4.313 -3.496,7.813 -7.813,7.813 -3.5,0 -6.46,-2.301 -7.453,-5.469 H 30.777 c -1.894,0.094 -3.82,-0.574 -5.281,-2.008 L 9.562,47.969 C 6.766,45.223 6.754,40.719 9.539,37.957 Z m -8.91,52.696 C 31.16,60.891 31.684,60.66 32.09,60.25 L 36.676,55.613 17.617,36.555 12.84,41.289 c -0.93,0.918 -0.926,2.422 0.008,3.336 l 15.933,15.648 c 0.469,0.461 1.078,0.684 1.688,0.672 v -0.007 z" style="fill:currentColor;fill-opacity:1;fill-rule:nonzero;stroke:none" transform="scale(1.3333333)" /> </g>
</svg>

