<?xml version="1.0" encoding="UTF-8" standalone="no"?> <svg version="1.1" id="Ieac9639858c9494aba0698086beb02dd20251106170956" width="100" height="100" viewBox="0 0 100 100" xmlns="http://www.w3.org/2000/svg" xmlns:svg="http://www.w3.org/2000/svg"> <defs id="I030894479f5541cca06e01ff96693bde20251106170956" /> <g id="Ib1aca8999593478abf0f82dcdaa392f320251106170956"> <path id="Idfea5c922a294e19b7ab80671ac6f85120251106170956" d="M 40.402,16.828 C 40.254,16.375 40.18,15.895 40.18,15.402 40.18,14.684 40.34,14 40.629,13.395 H 16.742 l -0.496,0.011 c -4.578,0.258 -8.211,4.051 -8.211,8.692 V 22.59 L 37.5,37.914 56.324,28.125 H 44.867 c -2.59,0 -4.687,-2.098 -4.687,-4.687 0,-1.708 0.91,-3.2 2.269,-4.02 -0.965,-0.578 -1.699,-1.5 -2.047,-2.59 z M 65.031,28.125 38.426,41.961 c -0.578,0.301 -1.27,0.301 -1.852,0 L 8.035,27.117 v 25.785 l 0.016,0.493 c 0.254,4.578 4.047,8.21 8.691,8.21 h 41.516 l 0.496,-0.011 c 4.578,-0.258 8.211,-4.051 8.211,-8.692 V 28.125 Z M 42.855,7.367 c 0,-1.109 0.903,-2.012 2.012,-2.012 h 22.766 c 0.875,0 1.621,0.563 1.894,1.34 0.075,0.211 0.118,0.438 0.118,0.672 0,1.11 -0.903,2.008 -2.012,2.008 H 44.867 c -1.109,0 -2.012,-0.898 -2.012,-2.008 z m 2.012,6.028 c -0.133,0 -0.262,0.011 -0.387,0.035 -0.925,0.179 -1.625,0.996 -1.625,1.972 0,0.215 0.036,0.418 0.098,0.614 0.258,0.808 1.016,1.394 1.914,1.394 h 22.766 c 1.109,0 2.012,-0.898 2.012,-2.008 0,-1.109 -0.903,-2.007 -2.012,-2.007 z m -2.012,10.043 c 0,-1.11 0.903,-2.008 2.012,-2.008 h 22.766 c 1.109,0 2.012,0.898 2.012,2.008 0,1.109 -0.903,2.007 -2.012,2.007 H 44.867 c -1.109,0 -2.012,-0.898 -2.012,-2.007 z" style="fill:currentColor;fill-opacity:1;fill-rule:nonzero;stroke:none" transform="scale(1.3333333)" /> </g>
</svg>

