<?xml version="1.0" encoding="UTF-8" standalone="no"?> <svg version="1.1" id="Ib6e8118e265a4b5d9270ce6e95b51e8420251110124421" width="100" height="100" viewBox="0 0 100 100" xmlns="http://www.w3.org/2000/svg" xmlns:svg="http://www.w3.org/2000/svg"> <defs id="I918e1094d9a54f1685377e96e88d5be820251110124421" /> <g id="I7023757bd1e645c79c6bbbf833196a2d20251110124421"> <path id="I10bfc68ea36743cb971cc8974c2a00a720251110124421" d="M 48.438,17.188 C 48.438,11.148 43.539,6.25 37.5,6.25 c -6.039,0 -10.938,4.898 -10.938,10.938 0,6.039 4.899,10.937 10.938,10.937 6.039,0 10.938,-4.898 10.938,-10.937 z m -17.188,0 c 0,-3.454 2.797,-6.25 6.25,-6.25 3.453,0 6.25,2.796 6.25,6.25 0,3.453 -2.797,6.25 -6.25,6.25 -3.453,0 -6.25,-2.797 -6.25,-6.25 z M 27.344,31.25 c -3.883,0 -7.032,3.148 -7.032,7.031 v 1.563 c 0,1.293 1.051,2.344 2.344,2.344 1.293,0 2.344,-1.051 2.344,-2.344 v -1.563 c 0,-1.293 1.051,-2.343 2.344,-2.343 h 20.312 c 1.293,0 2.344,1.05 2.344,2.343 v 1.563 c 0,1.293 1.051,2.344 2.344,2.344 1.293,0 2.344,-1.051 2.344,-2.344 v -1.563 c 0,-3.883 -3.149,-7.031 -7.032,-7.031 z m -7.039,21.871 c 0,1.723 -1.399,3.121 -3.121,3.121 -1.723,0 -3.122,-1.398 -3.122,-3.121 0,-1.723 1.399,-3.121 3.122,-3.121 1.722,0 3.121,1.398 3.121,3.121 z M 17.184,67.18 c 1.722,0 3.121,-1.399 3.121,-3.121 0,-1.723 -1.399,-3.121 -3.121,-3.121 -1.723,0 -3.122,1.398 -3.122,3.121 0,1.722 1.399,3.121 3.122,3.121 z M 31.598,51.648 c -0.84,0.2 -1.618,0.661 -2.086,1.028 -1.02,0.797 -2.492,0.617 -3.289,-0.403 -0.797,-1.019 -0.618,-2.492 0.402,-3.289 0.836,-0.656 2.219,-1.5 3.895,-1.898 1.73,-0.406 3.875,-0.352 5.898,1.023 2.441,1.657 3.262,4.59 2.867,6.989 -0.137,0.847 -0.449,1.707 -0.933,2.468 0.543,0.622 0.953,1.34 1.222,2.102 0.778,2.199 0.418,4.937 -1.484,6.832 -1.86,1.848 -4.352,2.395 -6.5,2.281 -2.121,-0.113 -4.301,-0.879 -5.785,-2.183 -0.969,-0.856 -1.063,-2.34 -0.207,-3.309 0.855,-0.973 2.336,-1.066 3.308,-0.211 0.535,0.473 1.641,0.953 2.93,1.02 1.262,0.066 2.301,-0.278 2.949,-0.922 0.453,-0.449 0.625,-1.223 0.367,-1.949 -0.218,-0.629 -0.703,-1.071 -1.558,-1.071 h -1.567 c -1.293,0 -2.343,-1.051 -2.343,-2.344 0,-1.292 1.05,-2.343 2.343,-2.343 h 1.567 c 0.363,0 0.543,-0.114 0.664,-0.235 0.156,-0.156 0.328,-0.449 0.402,-0.894 0.156,-0.961 -0.226,-1.91 -0.875,-2.352 -0.68,-0.465 -1.398,-0.523 -2.187,-0.34 z m 19.964,-4.773 c -2.714,0 -4.874,1.16 -6.21,3.383 -1.207,2.015 -1.606,4.68 -1.606,7.554 0,2.876 0.399,5.543 1.606,7.555 1.336,2.223 3.496,3.383 6.21,3.383 2.704,0 4.868,-1.141 6.208,-3.363 1.21,-2.012 1.605,-4.68 1.605,-7.575 0,-2.89 -0.395,-5.562 -1.605,-7.574 -1.34,-2.222 -3.504,-3.363 -6.208,-3.363 z m -3.128,10.937 c 0,-2.593 0.386,-4.222 0.937,-5.14 0.426,-0.707 1,-1.11 2.191,-1.11 1.204,0 1.774,0.403 2.192,1.094 0.547,0.91 0.934,2.535 0.934,5.156 0,2.622 -0.387,4.25 -0.934,5.157 -0.418,0.695 -0.988,1.093 -2.192,1.093 -1.191,0 -1.765,-0.402 -2.191,-1.109 -0.551,-0.914 -0.937,-2.547 -0.937,-5.141 z" style="fill:currentColor;fill-opacity:1;fill-rule:nonzero;stroke:none" transform="scale(1.3333333)" /> </g>
</svg>

