<?xml version="1.0" encoding="UTF-8" standalone="no"?> <svg version="1.1" id="I18d3c637d29e44d684f9d62939be8e0520251106123559" width="100" height="100" viewBox="0 0 100 100" xmlns="http://www.w3.org/2000/svg" xmlns:svg="http://www.w3.org/2000/svg"> <defs id="If01f5fd0345647188c6aa5f8db559daa20251106123559" /> <g id="Id9ffb255c54545bb94859054adbfe8e720251106123559"> <path id="I81bd580b3fd34b8689ec9dc3212765a220251106123559" d="m 25.984,26.277 -2.41,-3.523 C 20.594,18.406 23.707,12.5 28.98,12.5 c 1.5,0 2.954,0.516 4.122,1.461 l 8.066,6.527 c 0.965,-1.023 2.121,-2.121 3.406,-3.113 2.059,-1.59 4.688,-3.082 7.59,-3.305 6.992,-0.539 12.215,3.887 15.172,7.27 1.527,1.75 1.832,3.965 1.18,5.887 -0.641,1.878 -2.168,3.425 -4.196,4.125 l -16.781,5.785 -9.883,13.179 c -1.328,1.77 -3.41,2.809 -5.625,2.809 -4.422,0 -7.746,-4.035 -6.894,-8.375 l 0.785,-4.012 -7.906,1.707 C 13.57,43.406 9.375,40.02 9.375,35.469 V 24.035 c 0,-2.918 2.367,-5.285 5.285,-5.285 1.934,0 3.715,1.059 4.641,2.754 l 3.019,5.535 z m 1.457,-6.172 3.516,5.133 5.934,-1.234 c 0.281,-0.059 0.562,-0.149 0.832,-0.274 l -7.571,-6.128 c -0.332,-0.266 -0.746,-0.414 -1.172,-0.414 -1.5,0 -2.386,1.679 -1.539,2.917 z m 25.082,-1.359 c -1.582,0.121 -3.335,0.988 -5.089,2.34 -1.715,1.324 -3.211,2.937 -4.25,4.191 -1.313,1.582 -3.145,2.86 -5.336,3.317 l -16.278,3.39 c -1.008,0.211 -2.039,-0.265 -2.535,-1.172 L 15.184,23.75 c -0.102,-0.191 -0.305,-0.312 -0.524,-0.312 -0.332,0 -0.598,0.269 -0.598,0.597 v 11.434 c 0,1.562 1.442,2.722 2.965,2.394 L 28.41,35.406 c 0.774,-0.168 1.574,0.067 2.137,0.617 0.562,0.551 0.812,1.352 0.66,2.125 l -1.469,7.5 c -0.285,1.446 0.824,2.79 2.293,2.79 0.739,0 1.434,-0.344 1.875,-0.934 L 44.219,33.75 c 0.281,-0.375 0.668,-0.656 1.109,-0.809 l 17.465,-6.023 c 0.699,-0.238 1.125,-0.734 1.285,-1.203 0.145,-0.426 0.094,-0.871 -0.277,-1.293 -2.664,-3.051 -6.555,-6.043 -11.278,-5.676 z M 11.719,60.938 c -1.293,0 -2.344,1.05 -2.344,2.343 0,1.293 1.051,2.344 2.344,2.344 h 51.562 c 1.293,0 2.344,-1.051 2.344,-2.344 0,-1.293 -1.051,-2.343 -2.344,-2.343 z" style="fill:currentColor;fill-opacity:1;fill-rule:nonzero;stroke:none" transform="scale(1.3333333)" /> </g>
</svg>

