<?xml version="1.0" encoding="UTF-8" standalone="no"?> <svg version="1.1" id="Ic991f5d5055e4445bf8759c0a5cd2b4b20251106132945" width="100" height="100" viewBox="0 0 100 100" xmlns="http://www.w3.org/2000/svg" xmlns:svg="http://www.w3.org/2000/svg"> <defs id="I581b4fc612fa459fa40d7553e41c4dc320251106132945"> <linearGradient x1="7.6663899" y1="11.4539" x2="12.7211" y2="23.5634" gradientUnits="userSpaceOnUse" gradientTransform="scale(3.125)" spreadMethod="pad" id="I4e8920880f7e4cb0b83df284c0c2d4a820251106132945"> <stop style="stop-opacity:1;stop-color:#b0f098" offset="0" id="I2acebf9c01204d70989f4fd3d14871fa20251106132945" /> <stop style="stop-opacity:1;stop-color:#52d17c" offset="1" id="I456171f6aba541d3827023df2626617820251106132945" /> </linearGradient> <linearGradient x1="13.0003" y1="4.3333302" x2="20.103399" y2="13.3225" gradientUnits="userSpaceOnUse" gradientTransform="scale(3.125)" spreadMethod="pad" id="I4df3918aa86f48d5b192b117afd71dfe20251106132945"> <stop style="stop-opacity:1;stop-color:#52d17c" offset="0" id="Ic8408c0e738a4add9571fcdfeeecdac420251106132945" /> <stop style="stop-opacity:1;stop-color:#309c61" offset="1" id="Icd24c3919ff84f03b108717e16b7f0d320251106132945" /> </linearGradient> <linearGradient x1="4.2857099" y1="10.0529" x2="11.7475" y2="17.1987" gradientUnits="userSpaceOnUse" gradientTransform="scale(3.125)" spreadMethod="pad" id="Ie50e4aaae9a74949893307cf82c52bd320251106132945"> <stop style="stop-opacity:1;stop-color:#42b870" offset="0" id="I45e6c68dbf1b441a8a014fd3b21dc24320251106132945" /> <stop style="stop-opacity:1;stop-color:#1a7f7c" offset="1" id="I600817af506342ba8f3598e6716f332620251106132945" /> </linearGradient> <linearGradient x1="4.2858601" y1="4.1999998" x2="6.6497998" y2="10.3216" gradientUnits="userSpaceOnUse" gradientTransform="scale(3.125)" spreadMethod="pad" id="Ib83ed69b8fe34e5e8959c1d67ae4e58f20251106132945"> <stop style="stop-opacity:1;stop-color:#b0f098" offset="0" id="I78d886509004420d9876b8b6754c969020251106132945" /> <stop style="stop-opacity:1;stop-color:#64de89" offset="1" id="Ic3a386de6f4749a381dc90c397a201e920251106132945" /> </linearGradient> </defs> <g id="Icd22d4fac7e644adb169ab6491b7bce420251106132945"> <path id="I9e0b06891ca6431aac3614fd08e721a720251106132945" d="m 37.496,46.875 14.066,-3.125 14.063,3.125 0.004,8.602 C 65.625,61.082 61.078,65.629 55.473,65.629 H 37.5 L 34.375,56.25 Z" transform="scale(1.3333333)" style="fill:url(#I4e8920880f7e4cb0b83df284c0c2d4a820251106132945);stroke:none" /> <path id="Ic79efc3950d844539f16b744819b79e420251106132945" d="m 55.473,9.375 c 5.418,0 9.839,4.238 10.14,9.578 l 0.016,0.578 -0.004,27.344 H 37.5 l -3.125,-18.75 3.129,-18.75 z" transform="scale(1.3333333)" style="fill:url(#I4df3918aa86f48d5b192b117afd71dfe20251106132945);stroke:none" /> <path id="I37140ecf0cb44845bf9c51296154ed9a20251106132945" d="M 37.496,28.125 37.5,65.629 H 19.531 c -5.414,0 -9.84,-4.238 -10.14,-9.578 L 9.375,55.477 V 28.125 L 23.438,25 Z" transform="scale(1.3333333)" style="fill:url(#Ie50e4aaae9a74949893307cf82c52bd320251106132945);stroke:none" /> <path id="Id3c1f5dcef464e5495a9b36954a6c5f620251106132945" d="M 37.504,9.375 37.5,28.125 H 9.375 V 19.531 C 9.379,13.922 13.926,9.375 19.535,9.375 Z" transform="scale(1.3333333)" style="fill:url(#Ib83ed69b8fe34e5e8959c1d67ae4e58f20251106132945);stroke:none" /> </g>
</svg>

