<?xml version="1.0" encoding="UTF-8" standalone="no"?> <svg version="1.1" id="I3a6f6bd309bc43a8b7d2650a86eff20d20251110133655" width="100" height="100" viewBox="0 0 100 100" xmlns="http://www.w3.org/2000/svg" xmlns:svg="http://www.w3.org/2000/svg"> <defs id="I92e3388b47d8430d85e807888dd42d2820251110133655" /> <g id="I4e65a01725a74653a8c2cf2f2dc3232220251110133655"> <path id="I397c521b957644b681a9e897ab748be620251110133655" d="m 49.965,12.5 -9.582,9.57 c -1.055,1.055 -1.883,2.309 -2.434,3.688 l -0.25,0.699 -2.308,7.172 c -0.438,1.355 -0.453,2.812 -0.043,4.18 1.066,3.554 4.699,5.64 8.269,4.839 l 0.485,-0.128 7.273,-2.184 c 1.484,-0.445 2.852,-1.199 4.02,-2.207 l 0.566,-0.527 12.789,-12.77 v 27.527 c 0,5.61 -4.547,10.157 -10.156,10.157 H 16.406 C 10.797,62.516 6.25,57.969 6.25,52.359 V 39.234 l 0.238,-0.097 0.227,-0.129 11.75,-7.383 0.305,-0.164 c 1.046,-0.457 2.3,-0.094 2.925,0.902 0.383,0.606 0.461,1.348 0.231,2.016 l -0.141,0.324 -3.773,7.145 -0.223,0.449 c -1.477,3.348 -0.133,7.316 3.152,9.051 1.938,1.023 4.231,1.082 6.204,0.179 l 0.531,-0.269 5.515,-3.113 0.266,-0.176 C 34.375,47.27 34.656,45.98 34.07,44.949 33.48,43.918 32.23,43.5 31.16,43.934 l -0.289,0.136 -5.496,3.106 -0.305,0.144 c -0.629,0.239 -1.336,0.203 -1.937,-0.117 -1.051,-0.555 -1.504,-1.793 -1.11,-2.875 l 0.129,-0.293 3.778,-7.14 0.246,-0.52 c 0.902,-2.109 0.722,-4.543 -0.512,-6.508 -1.973,-3.137 -6.016,-4.183 -9.238,-2.472 l -0.457,0.261 -9.719,6.11 v -11.11 c 0,-5.414 4.238,-9.84 9.582,-10.14 L 16.406,12.5 Z m 16.207,-1.422 0.41,0.375 0.375,0.41 c 2.387,2.785 2.258,6.981 -0.379,9.617 L 53.199,34.836 c -0.82,0.82 -1.832,1.426 -2.945,1.758 l -7.274,2.183 c -1.652,0.496 -3.394,-0.441 -3.89,-2.093 -0.184,-0.606 -0.176,-1.254 0.015,-1.856 l 2.309,-7.172 c 0.344,-1.062 0.938,-2.031 1.727,-2.82 l 13.41,-13.387 c 2.637,-2.637 6.836,-2.758 9.621,-0.371 z" style="fill:currentColor;fill-opacity:1;fill-rule:nonzero;stroke:none" transform="scale(1.3333333)" /> </g>
</svg>

