<?xml version="1.0" encoding="UTF-8" standalone="no"?> <svg version="1.1" id="I8930ca0dae9d4f1d83b4dabfaede168820251106151526" width="100" height="100" viewBox="0 0 100 100" xmlns="http://www.w3.org/2000/svg" xmlns:svg="http://www.w3.org/2000/svg"> <defs id="I1d0ede4ecf6f4eefa651f512efdc5a5420251106151526" /> <g id="I4a9c0e78163e4ce89897d90656e3a94820251106151526"> <path id="I4a075394521c4e0c8d5a99728efd25bb20251106151526" d="m 30.469,4.688 c -3.063,0 -5.668,1.953 -6.633,4.687 h -2.742 c -3.883,0 -7.032,3.148 -7.032,7.031 v 37.5 c 0,3.883 3.149,7.032 7.032,7.032 h 28.125 c 3.883,0 7.031,-3.149 7.031,-7.032 v -37.5 c 0,-3.883 -3.148,-7.031 -7.031,-7.031 H 46.477 C 45.512,6.641 42.906,4.688 39.844,4.688 Z m -2.344,7.031 c 0,-1.293 1.051,-2.344 2.344,-2.344 h 9.375 c 1.293,0 2.344,1.051 2.344,2.344 0,1.293 -1.051,2.343 -2.344,2.343 h -9.375 c -1.293,0 -2.344,-1.05 -2.344,-2.343 z m -7.031,2.343 h 2.742 c 0.965,2.735 3.57,4.688 6.633,4.688 h 9.375 c 3.062,0 5.668,-1.953 6.633,-4.688 h 2.742 c 1.293,0 2.343,1.051 2.343,2.344 v 37.5 c 0,1.293 -1.05,2.344 -2.343,2.344 H 21.094 c -1.293,0 -2.344,-1.051 -2.344,-2.344 v -37.5 c 0,-1.293 1.051,-2.344 2.344,-2.344 z M 60.938,53.906 V 15.328 c 2.812,1.641 4.687,4.641 4.687,8.11 v 30.468 c 0,9.047 -7.359,16.406 -16.406,16.406 H 28.125 c -3.469,0 -6.469,-1.874 -8.109,-4.687 h 29.203 c 6.469,0 11.719,-5.25 11.719,-11.719 z" style="fill:currentColor;fill-opacity:1;fill-rule:nonzero;stroke:none" transform="scale(1.3333333)" /> </g>
</svg>

