<?xml version="1.0" encoding="UTF-8" standalone="no"?> <svg version="1.1" id="Ib8be5324a33d4ef4a452e954ba07403920251110130507" width="100" height="100" viewBox="0 0 100 100" xmlns="http://www.w3.org/2000/svg" xmlns:svg="http://www.w3.org/2000/svg"> <defs id="I27c1f50976b14761864e692d5cd46d5c20251110130507" /> <g id="Iebdf6ad7a71c45b199688f0b6e4dc7d420251110130507"> <path id="If6c6eec675b542fd8d8169d0e8b159b720251110130507" d="m 31.039,52.188 c 0,0 -2.34,0.308 -2.844,-1.708 -0.308,-1.238 0.469,-2.535 1.711,-2.843 h 0.008 l 0.024,-0.008 0.074,-0.016 c 0.062,-0.015 0.144,-0.035 0.254,-0.058 0.214,-0.043 0.519,-0.106 0.902,-0.172 0.773,-0.133 1.871,-0.289 3.223,-0.391 2.695,-0.211 6.433,-0.211 10.601,0.621 1.27,0.254 2.09,1.489 1.836,2.758 -0.25,1.27 -1.488,2.094 -2.758,1.84 -3.644,-0.731 -6.937,-0.731 -9.32,-0.547 -1.188,0.09 -2.141,0.227 -2.785,0.34 -0.32,0.055 -0.567,0.105 -0.723,0.137 -0.07,0.015 -0.203,0.047 -0.203,0.047 z m -2.844,-27.52 c 0.504,-2.016 2.84,-1.707 2.84,-1.707 0,0 0.137,0.031 0.207,0.047 0.156,0.035 0.403,0.082 0.723,0.137 0.644,0.113 1.597,0.25 2.785,0.339 2.383,0.184 5.676,0.184 9.32,-0.546 1.27,-0.254 2.504,0.57 2.758,1.839 0.254,1.27 -0.566,2.504 -1.836,2.758 -4.168,0.832 -7.906,0.832 -10.601,0.625 -1.352,-0.105 -2.45,-0.262 -3.223,-0.394 -0.387,-0.067 -0.691,-0.129 -0.902,-0.172 -0.11,-0.024 -0.196,-0.043 -0.254,-0.059 L 29.938,27.52 29.914,27.512 H 29.906 C 28.664,27.203 27.883,25.906 28.195,24.668 Z M 37.5,68.75 c 8.668,0 16.508,-3.527 22.172,-9.227 1.101,-1.109 2.121,-2.304 3.051,-3.57 C 66.512,50.781 68.75,44.402 68.75,37.5 68.75,20.242 54.758,6.25 37.5,6.25 20.242,6.25 6.25,20.242 6.25,37.5 6.25,54.758 20.242,68.75 37.5,68.75 Z M 15.855,22.098 c 1.68,1.14 3.707,2.234 6.059,3.019 1.231,0.406 2.555,-0.258 2.965,-1.484 0.41,-1.227 -0.254,-2.555 -1.481,-2.965 -1.691,-0.563 -3.183,-1.332 -4.468,-2.16 4.789,-4.684 11.343,-7.57 18.57,-7.57 7.227,0 13.781,2.886 18.57,7.57 -1.285,0.828 -2.781,1.597 -4.468,2.16 -1.227,0.41 -1.891,1.738 -1.481,2.965 0.406,1.226 1.734,1.89 2.965,1.484 2.352,-0.785 4.375,-1.879 6.059,-3.019 3.097,4.343 4.917,9.66 4.917,15.402 0,5.785 -1.851,11.141 -4.992,15.504 -1.664,-1.125 -3.668,-2.199 -5.984,-2.969 -1.231,-0.41 -2.555,0.254 -2.965,1.481 -0.41,1.226 0.254,2.554 1.481,2.964 1.648,0.551 3.113,1.297 4.378,2.102 -4.781,4.629 -11.296,7.48 -18.48,7.48 -7.184,0 -13.699,-2.851 -18.48,-7.48 1.265,-0.805 2.73,-1.551 4.378,-2.102 1.227,-0.41 1.891,-1.738 1.481,-2.964 -0.406,-1.227 -1.734,-1.891 -2.965,-1.481 -2.316,0.77 -4.32,1.844 -5.984,2.969 -3.141,-4.363 -4.992,-9.719 -4.992,-15.504 0,-5.742 1.82,-11.059 4.917,-15.402 z" style="fill:currentColor;fill-opacity:1;fill-rule:nonzero;stroke:none" transform="scale(1.3333333)" /> </g>
</svg>

