<?xml version="1.0" encoding="UTF-8" standalone="no"?> <svg version="1.1" id="I1787c0cafb904035b3f5672799cfcb6020251110124419" width="100" height="100" viewBox="0 0 100 100" xmlns="http://www.w3.org/2000/svg" xmlns:svg="http://www.w3.org/2000/svg"> <defs id="I5415cf08d1ad4c6d8640286c8701c0b220251110124419" /> <g id="I12048df970d64398a405e4b0c45b16da20251110124419"> <path id="If470492c1bb64f78b9d73d2802d783b020251110124419" d="m 56.246,9.375 c 0.754,0 1.453,0.359 1.891,0.957 l 0.172,0.27 10.199,18.839 0.117,0.289 0.039,0.125 0.063,0.321 0.015,0.293 c 0,0.215 -0.027,0.426 -0.082,0.625 l -0.148,0.39 -0.117,0.215 c -0.071,0.113 -0.149,0.219 -0.235,0.321 l 0.184,-0.243 -0.074,0.106 -28.907,32.828 c -0.25,0.336 -0.574,0.574 -0.929,0.727 l -0.305,0.101 -0.242,0.055 -0.391,0.031 -0.312,-0.02 -0.368,-0.078 c -0.187,-0.054 -0.371,-0.136 -0.543,-0.238 l -0.027,-0.023 c -0.148,-0.09 -0.285,-0.2 -0.41,-0.325 L 6.805,31.984 6.723,31.883 6.598,31.699 C 6.426,31.422 6.309,31.102 6.27,30.758 L 6.25,30.469 6.258,30.262 6.301,29.984 C 6.32,29.891 6.344,29.801 6.375,29.715 l 0.07,-0.184 0.086,-0.179 10.157,-18.75 C 17.043,9.941 17.695,9.496 18.43,9.398 l 0.316,-0.023 z m -9.379,23.437 h -18.75 l 9.379,24.024 z m -23.777,0 H 13.777 L 30.5,51.793 Z m 38.121,0 H 51.898 L 44.5,51.781 Z M 28.035,14.062 h -7.894 l -7.618,14.063 h 11.012 z m 14,0 h -9.078 l -4.504,14.063 h 18.078 z m 12.817,0 h -7.895 l 4.5,14.063 h 11.004 z" style="fill:currentColor;fill-opacity:1;fill-rule:nonzero;stroke:none" transform="scale(1.3333333)" /> </g>
</svg>

