<?xml version="1.0" encoding="UTF-8" standalone="no"?> <svg version="1.1" id="Iba24dd18f41c42b5aaa57b5e26a09fb520251106132945" width="100" height="100" viewBox="0 0 100 100" xmlns="http://www.w3.org/2000/svg" xmlns:svg="http://www.w3.org/2000/svg"> <defs id="I27cc6273c56c4b3ea12dfb551df4f6b820251106132945" /> <g id="I037e7095da764bbbb3770aeeee43605620251106132945"> <path id="Ia3db58902960414e9d619e1e6638f1e120251106132945" d="m 28.125,14.062 v 19.497 c 0,1.171 -0.293,2.324 -0.852,3.351 l -3.711,6.84 H 51.438 L 47.727,36.91 C 47.168,35.883 46.875,34.73 46.875,33.559 V 14.062 H 50 c 1.293,0 2.344,-1.05 2.344,-2.343 0,-1.293 -1.051,-2.344 -2.344,-2.344 H 25 c -1.293,0 -2.344,1.051 -2.344,2.344 0,1.293 1.051,2.343 2.344,2.343 z M 53.984,48.438 H 21.016 l -4.946,9.109 c -1.976,3.644 0.66,8.078 4.809,8.078 h 33.242 c 4.149,0 6.785,-4.434 4.809,-8.078 z" style="fill:currentColor;fill-opacity:1;fill-rule:nonzero;stroke:none" transform="scale(1.3333333)" /> </g>
</svg>

