<?xml version="1.0" encoding="UTF-8" standalone="no"?> <svg version="1.1" id="I9c3ec079cc104abf88f77053eda4eccf20251106143238" width="100" height="100" viewBox="0 0 100 100" xmlns="http://www.w3.org/2000/svg" xmlns:svg="http://www.w3.org/2000/svg"> <defs id="I1b5b14410d794160b5d18211340d969120251106143238" /> <g id="If9f4e4a893be41c7948c96c73ee00e4a20251106143238"> <path id="Ide93744aea4546bebe32109c716c434720251106143238" d="m 55.469,9.375 c 5.609,0 10.156,4.547 10.156,10.156 v 18.035 c -1.449,-0.925 -3.02,-1.675 -4.687,-2.214 v -8.79 H 14.062 v 28.907 c 0,3.019 2.45,5.469 5.469,5.469 h 15.824 c 0.266,0.82 0.579,1.617 0.942,2.386 l -0.699,2.301 H 19.531 C 13.922,65.625 9.375,61.078 9.375,55.469 V 19.531 c 0,-5.609 4.547,-10.156 10.156,-10.156 z m 0,4.687 H 19.531 c -3.019,0 -5.469,2.45 -5.469,5.469 v 2.344 h 46.876 v -2.344 c 0,-3.019 -2.45,-5.469 -5.469,-5.469 z m 5.469,24.606 c 1.714,0.672 3.292,1.605 4.687,2.758 3.82,3.152 6.258,7.926 6.258,13.265 0,9.497 -7.699,17.192 -17.192,17.192 -3.023,0 -5.867,-0.781 -8.336,-2.153 l -6.832,2.082 c -1.195,0.364 -2.316,-0.757 -1.953,-1.953 l 2.082,-6.832 C 38.281,60.559 37.5,57.715 37.5,54.691 c 0,-9.312 7.402,-16.894 16.645,-17.183 0.152,-0.004 0.308,-0.008 0.464,-0.008 0.028,0 0.055,0 0.082,0 2.204,0 4.309,0.414 6.247,1.168 z m 0.003,14.461 c 0.864,0 1.563,-0.699 1.563,-1.563 0,-0.863 -0.699,-1.562 -1.563,-1.562 h -12.5 c -0.863,0 -1.566,0.699 -1.566,1.562 0,0.864 0.703,1.563 1.566,1.563 z m -12.5,6.25 h 6.25 c 0.864,0 1.563,-0.699 1.563,-1.563 0,-0.863 -0.699,-1.562 -1.563,-1.562 h -6.25 c -0.863,0 -1.566,0.699 -1.566,1.562 0,0.864 0.703,1.563 1.566,1.563 z" style="fill:currentColor;fill-opacity:1;fill-rule:nonzero;stroke:none" transform="scale(1.3333333)" /> </g>
</svg>

