<?xml version="1.0" encoding="UTF-8" standalone="no"?> <svg version="1.1" id="I69efe13358144104aef8ebb070b22eda20251106152728" width="100" height="100" viewBox="0 0 100 100" xmlns="http://www.w3.org/2000/svg" xmlns:svg="http://www.w3.org/2000/svg"> <defs id="I1e4330bca26f4ec88c8be68d6c5ca7ac20251106152728" /> <g id="I3557106af02a40d29078c3717cb99c5920251106152728"> <path id="If381359e97764cdea3f37d47c01eb36720251106152728" d="M 11.996,18.305 C 21.188,6.07 40.215,2.508 53.758,10.93 67.133,19.246 72.051,35.234 66.574,50.234 61.402,64.398 47.773,70.012 37.949,62.887 34.27,60.215 32.844,56.871 32.156,51.438 l -0.332,-3.09 -0.14,-1.243 c -0.383,-2.917 -0.973,-4.226 -2.204,-4.91 -1.671,-0.933 -2.785,-0.953 -4.984,-0.101 l -1.098,0.453 -0.558,0.242 c -3.168,1.379 -5.274,1.859 -7.942,1.301 L 14.273,43.945 13.762,43.797 C 5.047,41.098 3.758,29.277 11.996,18.305 Z m 3.074,20.988 0.387,0.113 0.418,0.098 c 1.371,0.273 2.543,0.047 4.492,-0.754 l 1.879,-0.805 c 3.758,-1.539 6.203,-1.691 9.52,0.157 2.867,1.597 3.984,4.054 4.554,8.308 l 0.164,1.438 0.172,1.66 0.145,1.32 c 0.539,4.254 1.515,6.531 3.902,8.262 7.109,5.16 17.293,0.965 21.469,-10.465 C 66.91,35.652 62.715,22.02 51.285,14.91 39.801,7.773 23.477,10.828 15.746,21.121 9.262,29.754 10.055,37.617 15.07,39.293 Z m 35.078,-6.231 c -0.558,-2.085 0.68,-4.226 2.762,-4.785 2.086,-0.558 4.227,0.68 4.785,2.762 0.559,2.086 -0.679,4.227 -2.761,4.785 -2.086,0.559 -4.227,-0.679 -4.786,-2.762 z m 1.547,10.903 c -0.558,-2.086 0.676,-4.227 2.762,-4.785 2.082,-0.559 4.227,0.679 4.785,2.761 0.555,2.086 -0.68,4.227 -2.765,4.786 -2.082,0.558 -4.223,-0.68 -4.782,-2.762 z M 43.965,23.68 c -0.559,-2.086 0.68,-4.227 2.762,-4.785 2.085,-0.559 4.226,0.679 4.785,2.761 0.558,2.082 -0.68,4.227 -2.762,4.785 C 46.664,27 44.523,25.762 43.965,23.68 Z m -0.09,28.117 c -0.555,-2.082 0.68,-4.223 2.766,-4.781 2.082,-0.559 4.222,0.675 4.781,2.761 0.558,2.082 -0.676,4.223 -2.762,4.782 -2.082,0.558 -4.226,-0.676 -4.785,-2.762 z M 32.949,20.641 c -0.558,-2.082 0.68,-4.223 2.762,-4.782 2.086,-0.558 4.227,0.676 4.785,2.762 0.559,2.082 -0.68,4.227 -2.762,4.781 -2.086,0.559 -4.226,-0.675 -4.785,-2.761 z" style="fill:currentColor;fill-opacity:1;fill-rule:nonzero;stroke:none" transform="scale(1.3333333)" /> </g>
</svg>

