<?xml version="1.0" encoding="UTF-8" standalone="no"?> <svg version="1.1" id="I401fc0c40fe04626adfe7b1e2dc3908420251106164749" width="100" height="100" viewBox="0 0 100 100" xmlns="http://www.w3.org/2000/svg" xmlns:svg="http://www.w3.org/2000/svg"> <defs id="Iaceb9e53e27b49269e238f357607c73620251106164749" /> <g id="Icc54036f935347c6a4fa6b6634c90a3420251106164749"> <path id="If8f8bac876fe46669e5a5e38ccef82d220251106164749" d="m 37.5,6.242 c 17.262,0 31.254,13.996 31.254,31.258 0,1.223 -0.07,2.43 -0.207,3.613 -1.297,-1.328 -2.809,-2.449 -4.481,-3.304 0,-0.102 0,-0.207 0,-0.309 0,-2.156 -0.254,-4.25 -0.738,-6.258 l -10.496,0.004 c 0.156,1.617 0.254,3.281 0.285,4.973 -1.652,0.304 -3.222,0.847 -4.676,1.586 V 37.5 c 0,-2.16 -0.113,-4.254 -0.324,-6.254 h -21.23 c -0.215,2 -0.328,4.094 -0.328,6.254 0,3.309 0.269,6.469 0.75,9.375 h 12.925 c -0.578,1.473 -0.953,3.047 -1.101,4.684 H 28.316 c 2.039,7.546 5.579,12.507 9.184,12.507 1.422,0 2.832,-0.773 4.148,-2.168 1.125,1.922 2.602,3.817 4.372,5.68 -2.708,0.766 -5.567,1.176 -8.52,1.176 C 20.238,68.754 6.246,54.762 6.246,37.5 6.246,20.238 20.238,6.242 37.5,6.242 Z m -14.035,45.32 h -8.508 c 2.992,4.79 7.473,8.559 12.793,10.657 -1.633,-2.563 -2.98,-5.77 -3.969,-9.422 z M 22.168,31.246 H 11.676 l -0.016,0.055 c -0.476,1.988 -0.726,4.062 -0.726,6.199 0,3.301 0.601,6.461 1.699,9.375 h 9.918 c -0.446,-2.969 -0.68,-6.117 -0.68,-9.375 0,-2.141 0.102,-4.23 0.297,-6.254 z m 5.586,-18.469 -0.07,0.028 c -6.399,2.547 -11.575,7.507 -14.403,13.754 l 9.528,0.003 c 0.976,-5.476 2.687,-10.246 4.945,-13.785 z M 37.5,10.93 37.141,10.949 c -3.957,0.36 -7.778,6.617 -9.551,15.61 H 47.41 C 45.641,17.59 41.836,11.344 37.895,10.949 Z m 9.75,1.847 0.336,0.543 c 2.09,3.477 3.676,8.039 4.605,13.242 l 9.528,-0.003 C 59.016,20.586 54.168,15.793 48.16,13.156 Z m 23.062,40.344 c 0,-7.766 -6.296,-14.062 -14.062,-14.062 -7.766,0 -14.062,6.296 -14.062,14.062 0,5.82 4.437,11.922 13.124,18.438 0.555,0.418 1.321,0.418 1.876,0 8.687,-6.516 13.124,-12.618 13.124,-18.438 z m -18.75,0 c 0,-2.586 2.098,-4.687 4.688,-4.687 2.59,0 4.688,2.101 4.688,4.687 0,2.59 -2.098,4.688 -4.688,4.688 -2.59,0 -4.688,-2.098 -4.688,-4.688 z" style="fill:currentColor;fill-opacity:1;fill-rule:nonzero;stroke:none" transform="scale(1.3333333)" /> </g>
</svg>

