<?xml version="1.0" encoding="UTF-8" standalone="no"?> <svg version="1.1" id="I1758cbb3078c466997989750220a17a420251106161453" width="100" height="100" viewBox="0 0 100 100" xmlns="http://www.w3.org/2000/svg" xmlns:svg="http://www.w3.org/2000/svg"> <defs id="I873315007a7148279b32e2d133041adc20251106161453" /> <g id="If6a89323abfd493e896577dedcc96d4920251106161453"> <path id="Ic59e64ff701b4f90959796b07b29536e20251106161453" d="m 39.844,65.625 h 19.922 c 5.824,0 10.546,-4.723 10.546,-10.547 V 19.922 C 70.312,14.098 65.59,9.375 59.766,9.375 H 39.844 Z m 17.578,-37.5 v 14.262 l 3.031,-3.028 c 0.914,-0.918 2.399,-0.918 3.313,0 0.918,0.914 0.918,2.399 0,3.313 l -7.032,7.031 c -0.914,0.918 -2.398,0.918 -3.312,0 l -7.031,-7.031 c -0.918,-0.914 -0.918,-2.399 0,-3.313 0.914,-0.918 2.398,-0.918 3.312,0 l 3.031,3.028 V 28.125 c 0,-1.293 1.051,-2.344 2.344,-2.344 1.293,0 2.344,1.051 2.344,2.344 z M 35.156,9.375 H 15.234 C 9.41,9.375 4.688,14.098 4.688,19.922 v 35.156 c 0,5.824 4.722,10.547 10.546,10.547 H 35.156 Z M 19.922,50.391 c -1.293,0 -2.344,-1.051 -2.344,-2.344 V 33.785 l -3.031,3.027 c -0.914,0.918 -2.399,0.918 -3.313,0 -0.918,-0.914 -0.918,-2.398 0,-3.312 l 7.032,-7.031 c 0.914,-0.918 2.398,-0.918 3.312,0 l 7.031,7.031 c 0.918,0.914 0.918,2.398 0,3.312 -0.914,0.918 -2.398,0.918 -3.312,0 l -3.031,-3.027 v 14.262 c 0,1.293 -1.051,2.344 -2.344,2.344 z" style="fill:currentColor;fill-opacity:1;fill-rule:nonzero;stroke:none" transform="scale(1.3333333)" /> </g>
</svg>

