<?xml version="1.0" encoding="UTF-8" standalone="no"?> <svg version="1.1" id="I6a50f1c608704c0badd15804ca5cfba720251106155157" width="100" height="100" viewBox="0 0 100 100" xmlns="http://www.w3.org/2000/svg" xmlns:svg="http://www.w3.org/2000/svg"> <defs id="I8192b32fd69a46d69440465ad7f44ca320251106155157" /> <g id="Icedd6aef23904baa84402d158c7ca54320251106155157"> <path id="Ib35d415e66a346c6a34a02b31d99b4c620251106155157" d="m 19.531,6.25 c -3.883,0 -7.031,3.148 -7.031,7.031 v 48.438 c 0,3.883 3.148,7.031 7.031,7.031 h 35.938 c 3.883,0 7.031,-3.148 7.031,-7.031 V 13.281 C 62.5,9.398 59.352,6.25 55.469,6.25 Z m -2.343,7.031 c 0,-1.293 1.05,-2.343 2.343,-2.343 h 35.938 c 1.293,0 2.343,1.05 2.343,2.343 v 48.438 c 0,1.293 -1.05,2.343 -2.343,2.343 H 19.531 c -1.293,0 -2.343,-1.05 -2.343,-2.343 z m 7.031,7.031 c -1.293,0 -2.344,1.051 -2.344,2.344 0,1.293 1.051,2.344 2.344,2.344 h 26.562 c 1.293,0 2.344,-1.051 2.344,-2.344 0,-1.293 -1.051,-2.344 -2.344,-2.344 z m -2.344,30.469 c 0,-1.293 1.051,-2.343 2.344,-2.343 h 26.562 c 1.293,0 2.344,1.05 2.344,2.343 0,1.293 -1.051,2.344 -2.344,2.344 H 24.219 c -1.293,0 -2.344,-1.051 -2.344,-2.344 z m 2.344,-16.406 c -1.293,0 -2.344,1.051 -2.344,2.344 0,1.293 1.051,2.343 2.344,2.343 h 26.562 c 1.293,0 2.344,-1.05 2.344,-2.343 0,-1.293 -1.051,-2.344 -2.344,-2.344 z" style="fill:currentColor;fill-opacity:1;fill-rule:nonzero;stroke:none" transform="scale(1.3333333)" /> </g>
</svg>

