<?xml version="1.0" encoding="UTF-8" standalone="no"?> <svg version="1.1" id="I5c860463035141618b583177cc8b88db20251106123559" width="100" height="100" viewBox="0 0 100 100" xmlns="http://www.w3.org/2000/svg" xmlns:svg="http://www.w3.org/2000/svg"> <defs id="I9caedd25ad3b4335a68c4152b0567a3e20251106123559" /> <g id="Iaf6b6a4c99b84a4abe58a9c641f8134c20251106123559"> <path id="Ifae20ef7759244b8b87b345f86de4f0120251106123559" d="M 9.375,11.25 C 8.34,11.25 7.5,12.09 7.5,13.125 7.5,14.16 8.34,15 9.375,15 h 56.25 C 66.66,15 67.5,14.16 67.5,13.125 67.5,12.09 66.66,11.25 65.625,11.25 Z" style="fill:currentColor;fill-opacity:1;fill-rule:nonzero;stroke:none" transform="scale(1.3333333)" /> <path id="I33f66d4c8b754d7db9db1b8e62c2445820251106123559" d="M 9.375,60 C 8.34,60 7.5,60.84 7.5,61.875 c 0,1.035 0.84,1.875 1.875,1.875 h 56.25 C 66.66,63.75 67.5,62.91 67.5,61.875 67.5,60.84 66.66,60 65.625,60 Z" style="fill:currentColor;fill-opacity:1;fill-rule:nonzero;stroke:none" transform="scale(1.3333333)" /> <path id="I9a3c15068d024d71b79b7e008d5e63db20251106123559" d="m 15,48.75 c 0,4.141 3.359,7.5 7.5,7.5 h 3.75 c 4.141,0 7.5,-3.359 7.5,-7.5 v -22.5 c 0,-4.141 -3.359,-7.5 -7.5,-7.5 H 22.5 c -4.141,0 -7.5,3.359 -7.5,7.5 z m 7.5,3.75 c -2.07,0 -3.75,-1.68 -3.75,-3.75 v -22.5 c 0,-2.07 1.68,-3.75 3.75,-3.75 h 3.75 c 2.07,0 3.75,1.68 3.75,3.75 v 22.5 c 0,2.07 -1.68,3.75 -3.75,3.75 z" style="fill:currentColor;fill-opacity:1;fill-rule:nonzero;stroke:none" transform="scale(1.3333333)" /> <path id="Idc2901a8988f46bb99c1a1e09ea024de20251106123559" d="m 48.75,56.25 h 3.75 c 4.141,0 7.5,-3.359 7.5,-7.5 v -22.5 c 0,-4.141 -3.359,-7.5 -7.5,-7.5 h -3.75 c -4.141,0 -7.5,3.359 -7.5,7.5 v 22.5 c 0,4.141 3.359,7.5 7.5,7.5 z M 45,48.75 v -22.5 c 0,-2.07 1.68,-3.75 3.75,-3.75 h 3.75 c 2.07,0 3.75,1.68 3.75,3.75 v 22.5 c 0,2.07 -1.68,3.75 -3.75,3.75 H 48.75 C 46.68,52.5 45,50.82 45,48.75 Z" style="fill:currentColor;fill-opacity:1;fill-rule:nonzero;stroke:none" transform="scale(1.3333333)" /> </g>
</svg>

