<?xml version="1.0" encoding="UTF-8" standalone="no"?> <svg version="1.1" id="Id553ef43466042cd972eda2d02ba3c9d20251106154012" width="100" height="100" viewBox="0 0 100 100" xmlns="http://www.w3.org/2000/svg" xmlns:svg="http://www.w3.org/2000/svg"> <defs id="I992e0c6d3dc04746a32d68a0149c447720251106154012" /> <g id="I71a3efe1434f4d8bafe7d22014207f3a20251106154012"> <path id="If8b02540aedb4212bf23740c63b4690220251106154012" d="M 37.5,30 C 49.926,30 60,24.965 60,18.75 60,12.535 49.926,7.5 37.5,7.5 25.074,7.5 15,12.535 15,18.75 15,24.965 25.074,30 37.5,30 Z m 17.586,0.059 c 1.762,-0.879 3.48,-2 4.914,-3.36 V 33.75 H 43.125 c -5.176,0 -9.375,4.199 -9.375,9.375 v 22.5 c 0,0.59 0.055,1.172 0.16,1.734 C 23.191,66.496 15,61.852 15,56.25 V 26.699 c 1.434,1.36 3.152,2.481 4.914,3.36 4.695,2.347 10.918,3.691 17.586,3.691 6.668,0 12.891,-1.344 17.586,-3.691 z M 37.5,43.125 c 0,-3.105 2.52,-5.625 5.625,-5.625 h 22.5 c 3.105,0 5.625,2.52 5.625,5.625 V 45 H 37.5 Z m 0,5.625 h 33.75 v 16.875 c 0,3.105 -2.52,5.625 -5.625,5.625 h -22.5 C 40.02,71.25 37.5,68.73 37.5,65.625 Z" style="fill:currentColor;fill-opacity:1;fill-rule:nonzero;stroke:none" transform="scale(1.3333333)" /> </g>
</svg>

