<?xml version="1.0" encoding="UTF-8" standalone="no"?> <svg version="1.1" id="Iec59623d652d4d79aaa4bca1524b3ce320251106143239" width="100" height="100" viewBox="0 0 100 100" xmlns="http://www.w3.org/2000/svg" xmlns:svg="http://www.w3.org/2000/svg"> <defs id="I16264e4534ac4efa8d43d210757bf0e920251106143239" /> <g id="I0a97bca38ab343b49ea1eec26814663820251106143239"> <path id="I73e411ac402849f1b46db3c683a8ac3720251106143239" d="m 61.504,30.754 c 3.191,1.527 4.676,5.226 3.789,9.078 l -1.16,5.031 c -0.399,1.723 -2.071,2.84 -3.813,2.551 l -8.429,-1.406 c -0.809,-0.133 -1.453,-0.746 -1.633,-1.543 l -2.09,-9.41 C 48.016,34.367 47.512,33.809 46.84,33.586 l -0.633,1.906 c 0.633,-1.906 0.633,-1.906 0.633,-1.906 l -0.008,-0.004 -0.059,-0.02 c -0.039,-0.011 -0.089,-0.027 -0.16,-0.046 -0.133,-0.043 -0.324,-0.102 -0.566,-0.168 -0.488,-0.137 -1.18,-0.313 -2.024,-0.493 -1.675,-0.351 -4,-0.71 -6.523,-0.71 -2.523,0 -4.844,0.359 -6.523,0.71 -0.844,0.18 -1.536,0.356 -2.02,0.493 -0.242,0.066 -0.437,0.125 -0.57,0.168 -0.067,0.019 -0.121,0.035 -0.16,0.046 l -0.043,0.016 -0.016,0.004 -0.008,0.004 c 0,0 0,0 0.637,1.906 L 28.16,33.586 c -0.668,0.223 -1.172,0.781 -1.324,1.469 l -2.094,9.41 c -0.176,0.797 -0.82,1.41 -1.629,1.543 l -8.429,1.406 C 12.938,47.703 11.27,46.586 10.871,44.863 L 9.723,39.887 c -0.895,-3.875 0.613,-7.598 3.836,-9.117 5.234,-2.477 13.48,-5.29 23.949,-5.325 10.504,-0.031 18.765,2.809 23.996,5.309 z m -17,6.34 1.832,8.242 c 0.531,2.398 2.469,4.23 4.891,4.637 l 8.429,1.406 c 3.84,0.637 7.516,-1.82 8.391,-5.609 l 1.16,-5.032 C 70.422,35.473 68.484,29.641 63.234,27.129 57.598,24.434 48.738,21.391 37.496,21.43 26.309,21.465 17.477,24.473 11.844,27.137 6.551,29.637 4.586,35.492 5.809,40.793 l 1.148,4.977 c 0.875,3.789 4.547,6.246 8.387,5.609 l 8.429,-1.406 c 2.422,-0.407 4.36,-2.239 4.895,-4.637 l 1.828,-8.242 c 0.363,-0.094 0.805,-0.199 1.309,-0.305 1.504,-0.316 3.531,-0.629 5.695,-0.629 2.164,0 4.195,0.313 5.699,0.629 0.504,0.106 0.946,0.211 1.305,0.305 z" style="fill:currentColor;fill-opacity:1;fill-rule:nonzero;stroke:none" transform="scale(1.3333333)" /> </g>
</svg>

