<?xml version="1.0" encoding="UTF-8" standalone="no"?> <svg version="1.1" id="I0e67ec578f1945f2a5439960185f289220251106171633" width="100" height="100" viewBox="0 0 100 100" xmlns="http://www.w3.org/2000/svg" xmlns:svg="http://www.w3.org/2000/svg"> <defs id="I3169b76f6dff48878123fabd83a7054620251106171633" /> <g id="Ie9356045fee24153814097d5e1c05b8f20251106171633"> <path id="Icc5c2fcb139e4d07964a1729d8acc3e320251106171633" d="M 31.402,48.188 50.957,21.703 c 0.648,-0.879 1.844,-1.141 2.797,-0.609 0.859,0.472 1.277,1.457 1.062,2.386 L 54.719,23.789 42.625,54.41 c -1.313,3.324 -5.07,4.953 -8.391,3.641 -0.261,-0.102 -0.515,-0.223 -0.761,-0.36 -3.125,-1.73 -4.254,-5.671 -2.524,-8.796 l 0.215,-0.36 0.238,-0.347 19.555,-26.485 z m 11.879,-8.196 -8.105,10.981 -0.125,0.195 c -0.477,0.859 -0.168,1.945 0.695,2.426 l 0.207,0.097 c 0.824,0.325 1.746,-0.007 2.188,-0.742 l 0.125,-0.261 z M 37.812,33.973 33.98,39.16 c -0.949,0.313 -1.871,0.766 -2.734,1.367 -2.684,1.883 -4.285,4.868 -4.422,8.086 -0.054,1.293 -1.148,2.297 -2.441,2.239 -1.293,-0.055 -2.297,-1.149 -2.242,-2.442 0.199,-4.656 2.523,-8.992 6.418,-11.722 2.816,-1.969 6.07,-2.844 9.253,-2.715 z m 13.024,8.597 c 0.871,1.832 1.363,3.813 1.445,5.832 0.055,1.293 -0.949,2.387 -2.242,2.442 -0.851,0.035 -1.617,-0.391 -2.055,-1.055 z m -6.981,-16.777 -3.027,4.094 c -4.98,-0.938 -10.32,0.051 -14.801,3.187 -3.711,2.602 -6.336,6.328 -7.558,10.594 -0.356,1.246 -1.653,1.965 -2.899,1.609 -1.242,-0.355 -1.961,-1.652 -1.605,-2.898 1.512,-5.289 4.773,-9.922 9.375,-13.145 6.211,-4.347 13.754,-5.371 20.515,-3.441 z m 10.969,6.68 c 0.785,0.832 1.52,1.734 2.196,2.703 1.542,2.203 2.695,4.613 3.429,7.152 0.36,1.242 -0.359,2.543 -1.601,2.902 -1.243,0.36 -2.543,-0.359 -2.903,-1.601 -0.59,-2.043 -1.519,-3.984 -2.765,-5.766 l -0.317,-0.429 z m -4.883,-14.184 -0.277,0.168 c -0.383,0.258 -0.734,0.563 -1.051,0.922 l -0.301,0.371 -1.691,2.289 C 38.242,19.129 28.633,20.145 20.809,25.621 16.113,28.91 12.598,33.434 10.566,38.656 10.098,39.863 8.738,40.461 7.531,39.992 6.324,39.523 5.727,38.164 6.195,36.961 8.562,30.875 12.66,25.605 18.121,21.781 c 9.66,-6.765 21.668,-7.683 31.82,-3.492 z m 8.215,4.879 c 2.36,1.91 4.492,4.18 6.317,6.785 1.535,2.195 2.789,4.535 3.75,6.985 0.468,1.207 -0.125,2.566 -1.332,3.035 -1.203,0.472 -2.563,-0.121 -3.036,-1.328 -0.824,-2.102 -1.898,-4.114 -3.222,-6 -1.203,-1.723 -2.563,-3.27 -4.047,-4.641 l 1.191,-3.008 c 0.235,-0.598 0.36,-1.215 0.379,-1.828 z" style="fill:currentColor;fill-opacity:1;fill-rule:nonzero;stroke:none" transform="scale(1.3333333)" /> </g>
</svg>

