<?xml version="1.0" encoding="UTF-8" standalone="no"?> <svg version="1.1" id="I628f961eeb9d4e3f91923ae185306ef720251106155156" width="100" height="100" viewBox="0 0 100 100" xmlns="http://www.w3.org/2000/svg" xmlns:svg="http://www.w3.org/2000/svg"> <defs id="Ied2e45d636944ab993bd56db1ebe7a9a20251106155156"> <linearGradient x1="5.75" y1="3.5" x2="21.5" y2="26.75" gradientUnits="userSpaceOnUse" gradientTransform="scale(2.678571)" spreadMethod="pad" id="Icf26645d9dca4b59a2d08e14863e31e420251106155156"> <stop style="stop-opacity:1;stop-color:#f83f54" offset="0" id="I57d833c1c08c4eafb1bdf9b8a8b8c2a720251106155156" /> <stop style="stop-opacity:1;stop-color:#ca2134" offset="1" id="I791f30aa00294dbfb641db562b98237820251106155156" /> </linearGradient> <linearGradient x1="10.0225" y1="14.3977" x2="14.7088" y2="19.2708" gradientUnits="userSpaceOnUse" gradientTransform="scale(2.678571)" spreadMethod="pad" id="Id3615e09d3fc4fd6bc1525de68b1d9c020251106155156"> <stop style="stop-opacity:1;stop-color:#fdfdfd" offset="0" id="I2ff1966f37cf417b99caa0a8745b655620251106155156" /> <stop style="stop-opacity:1;stop-color:#fecbe6" offset="1" id="I97d2800300f842469ea044b0cdbd2aff20251106155156" /> </linearGradient> </defs> <g id="I002231b7bd144627b208ee4f2aa2d1d520251106155156"> <path id="I119d0b0eb5144b8980d2755016ac1f6120251106155156" d="M 69.645,37.5 C 69.645,19.746 55.254,5.355 37.5,5.355 19.746,5.355 5.355,19.746 5.355,37.5 c 0,17.754 14.391,32.145 32.145,32.145 17.754,0 32.145,-14.391 32.145,-32.145 z" transform="scale(1.3333333)" style="fill:url(#Icf26645d9dca4b59a2d08e14863e31e420251106155156);stroke:none" /> <path id="I9177c2a1d91b4ac2bb4bf7abc1fdfac020251106155156" d="m 48.965,26.035 c 0.785,0.785 0.785,2.055 0,2.84 l -8.625,8.625 8.625,8.625 c 0.785,0.785 0.785,2.055 0,2.84 -0.785,0.785 -2.055,0.785 -2.84,0 L 37.5,40.34 28.875,48.965 c -0.785,0.785 -2.055,0.785 -2.84,0 -0.785,-0.785 -0.785,-2.055 0,-2.84 L 34.66,37.5 26.035,28.875 c -0.785,-0.785 -0.785,-2.055 0,-2.84 0.785,-0.785 2.055,-0.785 2.84,0 l 8.625,8.625 8.625,-8.625 c 0.785,-0.785 2.055,-0.785 2.84,0 z" transform="scale(1.3333333)" style="fill:url(#Id3615e09d3fc4fd6bc1525de68b1d9c020251106155156);stroke:none" /> </g>
</svg>

