<?xml version="1.0" encoding="UTF-8" standalone="no"?> <svg version="1.1" id="If48afb6a9d7f45fda56b55d84c3ca5ab20251110130508" width="100" height="100" viewBox="0 0 100 100" xmlns="http://www.w3.org/2000/svg" xmlns:svg="http://www.w3.org/2000/svg"> <defs id="Ic8014e86d15240e186c8cea909bc6e8020251110130508" /> <g id="I02c33c95b34541fcb8768610c0d4fcdb20251110130508"> <path id="I238620d39c4943cbb1015aaa9e1a5ea320251110130508" d="m 63.75,20.625 c 0,-5.176 -4.199,-9.375 -9.375,-9.375 h -33.75 c -5.176,0 -9.375,4.199 -9.375,9.375 v 33.75 c 0,5.176 4.199,9.375 9.375,9.375 H 41.25 V 60 H 30 V 48.75 H 41.25 V 45 H 30 V 30 h 15 v 1.875 c 1.09,-0.82 2.363,-1.406 3.75,-1.687 V 30 h 15 z M 15,54.375 V 48.75 H 26.25 V 60 H 20.625 L 20.082,59.973 C 17.23,59.703 15,57.301 15,54.375 Z M 45,26.25 H 30 V 15 H 45 Z M 48.75,15 h 5.625 l 0.543,0.027 C 57.77,15.297 60,17.699 60,20.625 V 26.25 H 48.75 Z M 15,26.25 v -5.625 l 0.027,-0.543 C 15.297,17.23 17.699,15 20.625,15 H 26.25 V 26.25 Z M 26.25,30 V 45 H 15 V 30 Z M 45,39.375 c 0,-3.105 2.52,-5.625 5.625,-5.625 h 15 c 3.105,0 5.625,2.52 5.625,5.625 v 26.25 c 0,3.105 -2.52,5.625 -5.625,5.625 h -15 C 47.52,71.25 45,68.73 45,65.625 Z m 9.375,9.375 h -3.75 c -1.035,0 -1.875,0.84 -1.875,1.875 0,1.035 0.84,1.875 1.875,1.875 h 3.75 c 1.035,0 1.875,-0.84 1.875,-1.875 0,-1.035 -0.84,-1.875 -1.875,-1.875 z M 67.5,50.625 c 0,-1.035 -0.84,-1.875 -1.875,-1.875 h -3.75 C 60.84,48.75 60,49.59 60,50.625 60,51.66 60.84,52.5 61.875,52.5 h 3.75 c 1.035,0 1.875,-0.84 1.875,-1.875 z M 54.375,56.25 h -3.75 c -1.035,0 -1.875,0.84 -1.875,1.875 0,1.035 0.84,1.875 1.875,1.875 h 3.75 c 1.035,0 1.875,-0.84 1.875,-1.875 0,-1.035 -0.84,-1.875 -1.875,-1.875 z M 67.5,58.125 c 0,-1.035 -0.84,-1.875 -1.875,-1.875 h -3.75 C 60.84,56.25 60,57.09 60,58.125 60,59.16 60.84,60 61.875,60 h 3.75 C 66.66,60 67.5,59.16 67.5,58.125 Z M 54.375,63.75 h -3.75 c -1.035,0 -1.875,0.84 -1.875,1.875 0,1.035 0.84,1.875 1.875,1.875 h 3.75 c 1.035,0 1.875,-0.84 1.875,-1.875 0,-1.035 -0.84,-1.875 -1.875,-1.875 z M 67.5,65.625 c 0,-1.035 -0.84,-1.875 -1.875,-1.875 h -3.75 C 60.84,63.75 60,64.59 60,65.625 60,66.66 60.84,67.5 61.875,67.5 h 3.75 c 1.035,0 1.875,-0.84 1.875,-1.875 z M 50.625,37.5 c -1.035,0 -1.875,0.84 -1.875,1.875 v 3.75 c 0,1.035 0.84,1.875 1.875,1.875 h 15 C 66.66,45 67.5,44.16 67.5,43.125 v -3.75 C 67.5,38.34 66.66,37.5 65.625,37.5 Z" style="fill:currentColor;fill-opacity:1;fill-rule:nonzero;stroke:none" transform="scale(1.3333333)" /> </g>
</svg>

