<?xml version="1.0" encoding="UTF-8" standalone="no"?> <svg version="1.1" id="Ia76796788ac147fb8bfced39b1fcbc4120251106161453" width="100" height="100" viewBox="0 0 100 100" xmlns="http://www.w3.org/2000/svg" xmlns:svg="http://www.w3.org/2000/svg"> <defs id="I2b83a5fcb7ae44a4b736ae46079a97cb20251106161453" /> <g id="Icac79561df6d4b9fbb999ddb7cc0cef920251106161453"> <path id="I4ae4b48a05ab4db39b39454a3abe2c0f20251106161453" d="m 17.188,13.281 c 0,-1.293 1.05,-2.343 2.343,-2.343 H 37.5 V 25 c 0,3.453 2.797,6.25 6.25,6.25 h 14.062 v 30.469 c 0,1.293 -1.05,2.343 -2.343,2.343 H 40.625 v 4.688 h 14.844 c 3.883,0 7.031,-3.148 7.031,-7.031 v -31.52 c 0,-1.449 -0.578,-2.84 -1.602,-3.867 L 42.418,7.852 C 41.391,6.824 40,6.25 38.551,6.25 H 19.531 C 15.648,6.25 12.5,9.398 12.5,13.281 V 38.336 C 13.418,37.805 14.488,37.5 15.625,37.5 h 1.563 z M 54.496,26.562 H 43.75 c -0.863,0 -1.562,-0.699 -1.562,-1.562 V 14.254 Z M 12.5,50 v -4.688 c 0,-2.589 2.098,-4.687 4.688,-4.687 h 6.25 c 2.589,0 4.687,2.098 4.687,4.687 V 50 h 4.687 c 2.59,0 4.688,2.098 4.688,4.688 v 4.687 h -9.375 v -1.563 c 0,-0.863 -0.699,-1.562 -1.563,-1.562 -0.863,0 -1.562,0.699 -1.562,1.562 v 1.563 h -9.375 v -1.563 c 0,-0.863 -0.699,-1.562 -1.563,-1.562 -0.863,0 -1.562,0.699 -1.562,1.562 v 1.563 H 3.125 V 54.688 C 3.125,52.098 5.223,50 7.812,50 Z m 3.125,-4.688 V 50 H 25 V 45.312 C 25,44.449 24.301,43.75 23.438,43.75 h -6.25 c -0.864,0 -1.563,0.699 -1.563,1.562 z M 28.125,62.5 H 37.5 v 4.688 c 0,2.589 -2.098,4.687 -4.688,4.687 h -25 c -2.589,0 -4.687,-2.098 -4.687,-4.687 V 62.5 H 12.5 v 1.562 c 0,0.864 0.699,1.563 1.562,1.563 0.864,0 1.563,-0.699 1.563,-1.563 V 62.5 H 25 v 1.562 c 0,0.864 0.699,1.563 1.562,1.563 0.864,0 1.563,-0.699 1.563,-1.563 z" style="fill:currentColor;fill-opacity:1;fill-rule:nonzero;stroke:none" transform="scale(1.3333333)" /> </g>
</svg>

