<?xml version="1.0" encoding="UTF-8" standalone="no"?> <svg version="1.1" id="Idd0dd654e68f4b5eb5c6989f1b58411820251106152728" width="100" height="100" viewBox="0 0 100 100" xmlns="http://www.w3.org/2000/svg" xmlns:svg="http://www.w3.org/2000/svg"> <defs id="I6df4654157874abd9e6529d18de070e720251106152728" /> <g id="I50c353cec4b24768a8ff164013890b5f20251106152728"> <path id="Ifd6a0b5c54f348568e27953c02aa8fb920251106152728" d="m 35.441,40.605 c -0.586,1.278 -1.066,2.774 -1.066,4.317 0,2.297 0.898,4.457 2.422,5.98 1.359,1.364 3.223,2.223 5.391,2.223 4.597,0 7.812,-3.855 7.812,-8.203 0,-1.543 -0.48,-3.039 -1.066,-4.317 -0.598,-1.296 -1.372,-2.515 -2.11,-3.543 -0.738,-1.035 -1.476,-1.914 -2.027,-2.535 L 43.844,33.5 43.84,33.492 c -0.918,-0.91 -2.399,-0.906 -3.309,0.008 l -0.019,0.016 c -0.18,0.191 -0.668,0.707 -0.934,1.007 -0.551,0.625 -1.289,1.504 -2.031,2.539 -0.735,1.024 -1.508,2.247 -2.106,3.543 z m 7.575,-0.812 c 0.632,0.879 1.226,1.832 1.656,2.769 0.437,0.954 0.64,1.754 0.64,2.36 0,2.16 -1.503,3.516 -3.124,3.516 -0.782,0 -1.54,-0.317 -2.11,-0.883 -0.613,-0.614 -1.016,-1.516 -1.016,-2.633 0,-0.606 0.204,-1.406 0.641,-2.36 0.43,-0.937 1.024,-1.89 1.652,-2.765 0.282,-0.391 0.563,-0.758 0.833,-1.094 0.269,0.332 0.55,0.699 0.828,1.09 z M 21.094,3.125 c -1.297,0 -2.344,1.051 -2.344,2.344 v 5.488 c -0.102,0.086 -0.195,0.176 -0.293,0.273 L 5.199,24.488 c -2.441,2.438 -2.441,6.399 0,8.836 L 16.25,44.375 c 2.438,2.441 6.395,2.441 8.836,0 L 38.344,31.117 c 2.441,-2.441 2.441,-6.398 0,-8.84 L 27.297,11.23 C 26.219,10.152 24.844,9.547 23.438,9.422 V 5.469 c 0,-1.293 -1.051,-2.344 -2.344,-2.344 z M 18.75,17.566 v 1.965 c 0,1.293 1.047,2.344 2.344,2.344 1.293,0 2.344,-1.051 2.344,-2.344 v -5.343 c 0.199,0.078 0.382,0.195 0.542,0.355 L 35.031,25.59 c 0.27,0.273 0.422,0.617 0.453,0.972 H 9.754 Z m 0.812,23.493 -9.777,-9.774 h 21.762 l -9.774,9.774 c -0.609,0.609 -1.601,0.609 -2.211,0 z M 6.25,54.688 V 38.785 l 4.688,4.688 v 11.215 c 0,1.726 1.398,3.124 3.124,3.124 h 46.876 c 1.726,0 3.124,-1.398 3.124,-3.124 V 20.312 c 0,-1.726 -1.398,-3.124 -3.124,-3.124 H 37.684 L 32.996,12.5 h 27.942 c 4.316,0 7.812,3.496 7.812,7.812 v 34.376 c 0,4.316 -3.496,7.812 -7.812,7.812 H 14.062 C 9.746,62.5 6.25,59.004 6.25,54.688 Z" style="fill:currentColor;fill-opacity:1;fill-rule:nonzero;stroke:none" transform="scale(1.3333333)" /> </g>
</svg>

