<?xml version="1.0" encoding="UTF-8" standalone="no"?> <svg version="1.1" id="I49691fee50e143ad9917f3088aebe82d20251106142135" width="100" height="100" viewBox="0 0 100 100" xmlns="http://www.w3.org/2000/svg" xmlns:svg="http://www.w3.org/2000/svg"> <defs id="Iedd32ca0c69b4224b06b264f5b89f9f120251106142135" /> <g id="Ia30603849884452482ceaaa9f2dea61720251106142135"> <path id="I2e1e90e4ca5f4f3f957581b2a1165fa120251106142135" d="M 71.25,16.875 C 71.25,24.125 65.375,30 58.125,30 50.875,30 45,24.125 45,16.875 45,9.625 50.875,3.75 58.125,3.75 c 7.25,0 13.125,5.875 13.125,13.125 z M 34.395,58.48 c 1.722,5.239 6.656,9.024 12.472,9.024 7.246,0 13.125,-5.879 13.125,-13.125 0,-6.723 -5.054,-12.266 -11.57,-13.035 -1.356,7.855 -6.781,14.32 -14.027,17.136 z M 45,37.5 C 45,47.855 36.605,56.25 26.25,56.25 15.895,56.25 7.5,47.855 7.5,37.5 7.5,27.145 15.895,18.75 26.25,18.75 36.605,18.75 45,27.145 45,37.5 Z M 26.355,28.145 c -0.343,0.976 0.168,2.046 1.145,2.394 2.66,0.938 4.773,3.051 5.715,5.711 0.347,0.977 1.418,1.488 2.394,1.145 0.977,-0.348 1.489,-1.418 1.141,-2.395 -1.316,-3.727 -4.27,-6.68 -8,-8 -0.977,-0.344 -2.047,0.168 -2.395,1.145 z" style="fill:currentColor;fill-opacity:1;fill-rule:nonzero;stroke:none" transform="scale(1.3333333)" /> </g>
</svg>

