<?xml version="1.0" encoding="UTF-8" standalone="no"?> <svg version="1.1" id="I3038e25d50e04823bffc575dfd95d3ec20251106171633" width="100" height="100" viewBox="0 0 100 100" xmlns="http://www.w3.org/2000/svg" xmlns:svg="http://www.w3.org/2000/svg"> <defs id="Ie381b4de2a5640a3ab74d13e968cad7120251106171633" /> <g id="I2ac0a81d88c840b8a0d23f698cde246c20251106171633"> <path id="I6cfe4a55cf9a4898bfc92cde4722896020251106171633" d="m 66.406,12.508 c 1.188,0 2.168,0.879 2.324,2.023 l 0.02,0.321 v 45.312 c 0,1.184 -0.883,2.164 -2.027,2.32 l -0.317,0.024 H 8.594 C 7.406,62.508 6.426,61.625 6.27,60.48 L 6.25,60.164 V 14.852 c 0,-1.188 0.883,-2.168 2.027,-2.325 L 8.594,12.508 Z M 18.75,39.066 H 10.938 V 57.82 H 64.062 V 39.066 H 56.25 v 11.715 c 0,1.293 -1.051,2.344 -2.344,2.344 -1.187,0 -2.168,-0.883 -2.324,-2.027 l -0.02,-0.317 V 39.066 h -6.25 v 11.715 c 0,1.293 -1.05,2.344 -2.343,2.344 -1.188,0 -2.168,-0.883 -2.324,-2.027 l -0.02,-0.317 V 39.066 h -6.25 v 11.715 c 0,1.293 -1.051,2.344 -2.344,2.344 -1.187,0 -2.168,-0.883 -2.324,-2.027 L 29.688,50.781 V 39.066 h -6.25 v 11.715 c 0,1.293 -1.051,2.344 -2.344,2.344 -1.188,0 -2.168,-0.883 -2.324,-2.027 L 18.75,50.781 Z M 64.062,17.195 H 10.938 v 17.184 h 53.124 z m -35.156,6.246 c 1.293,0 2.344,1.051 2.344,2.344 0,1.297 -1.051,2.344 -2.344,2.344 -1.293,0 -2.344,-1.047 -2.344,-2.344 0,-1.293 1.051,-2.344 2.344,-2.344 z m 25,0 c 1.293,0 2.344,1.047 2.344,2.344 0,1.184 -0.883,2.164 -2.027,2.32 l -0.317,0.024 h -7.812 c -1.293,0 -2.344,-1.051 -2.344,-2.344 0,-1.187 0.883,-2.168 2.027,-2.324 l 0.317,-0.02 z M 19.531,23.438 c 1.293,0 2.344,1.05 2.344,2.343 0,1.293 -1.051,2.344 -2.344,2.344 -1.293,0 -2.343,-1.051 -2.343,-2.344 0,-1.293 1.05,-2.343 2.343,-2.343 z" style="fill:currentColor;fill-opacity:1;fill-rule:nonzero;stroke:none" transform="scale(1.3333333)" /> </g>
</svg>

