<?xml version="1.0" encoding="UTF-8" standalone="no"?> <svg version="1.1" id="I1ef06762a24c4e238ba543cc7ffb928e20251106164749" width="100" height="100" viewBox="0 0 100 100" xmlns="http://www.w3.org/2000/svg" xmlns:svg="http://www.w3.org/2000/svg"> <defs id="I24542874ee0e4cd5bd6e6152d9bcd9ec20251106164749" /> <g id="Ia7bd34c32f6448fab2e026ebdf89724820251106164749"> <path id="Icaa0899d28e14565889f453e27827a7920251106164749" d="m 25.688,31.938 c 0.914,-0.918 2.398,-0.918 3.312,0 l 8.5,8.496 8.5,-8.496 c 0.914,-0.918 2.398,-0.918 3.312,0 0.918,0.914 0.918,2.398 0,3.312 l -8.496,8.5 1.465,1.465 6.25,6.254 c 0.004,0 0.004,0 0.004,0 l 0.777,0.781 c 0.918,0.914 0.918,2.398 0,3.312 -0.914,0.918 -2.398,0.918 -3.312,0 l -0.781,-0.777 c 0,0 0,0 0,-0.004 L 38.969,48.531 37.5,47.066 29,55.562 c -0.914,0.918 -2.398,0.918 -3.312,0 -0.918,-0.914 -0.918,-2.398 0,-3.312 l 8.496,-8.5 -8.496,-8.5 c -0.918,-0.914 -0.918,-2.398 0,-3.312 z M 42.969,6.25 c -0.746,0 -1.449,0.355 -1.891,0.957 L 32.613,18.75 h -4.488 v -0.781 c 0,-5.61 -4.547,-10.157 -10.156,-10.157 h -3.125 c -1.293,0 -2.344,1.051 -2.344,2.344 0,1.293 1.051,2.344 2.344,2.344 h 3.125 c 3.019,0 5.469,2.449 5.469,5.469 v 0.781 h -2.344 c -4.746,0 -8.594,3.848 -8.594,8.594 v 32.812 c 0,4.746 3.848,8.594 8.594,8.594 h 32.812 c 4.746,0 8.594,-3.848 8.594,-8.594 V 27.344 c 0,-2.684 -1.23,-5.078 -3.156,-6.653 0.019,-0.125 0.031,-0.25 0.031,-0.379 V 8.594 C 59.375,7.301 58.324,6.25 57.031,6.25 Z M 54.688,18.785 C 54.43,18.762 54.168,18.75 53.906,18.75 h -15.48 l 5.73,-7.812 h 10.532 z m -33.594,4.653 h 32.812 c 2.156,0 3.906,1.75 3.906,3.906 v 32.812 c 0,2.156 -1.75,3.906 -3.906,3.906 H 21.094 c -2.156,0 -3.906,-1.75 -3.906,-3.906 V 27.344 c 0,-2.156 1.75,-3.906 3.906,-3.906 z" style="fill:currentColor;fill-opacity:1;fill-rule:nonzero;stroke:none" transform="scale(1.3333333)" /> </g>
</svg>

