<?xml version="1.0" encoding="UTF-8" standalone="no"?> <svg version="1.1" id="If79f078786914b74a4d3a61c8d929d1a20251106154012" width="100" height="100" viewBox="0 0 100 100" xmlns="http://www.w3.org/2000/svg" xmlns:svg="http://www.w3.org/2000/svg"> <defs id="If498597771514263bf3fe868c541bb4620251106154012" /> <g id="Iae23cafabecb434b8da55142dddb7edb20251106154012"> <path id="I44ad7d9524b34de3b7a8f52763c6942420251106154012" d="M 53.125,50.844 V 32.805 c 0,0.843 0.262,1.664 0.75,2.351 0.484,0.688 1.172,1.207 1.965,1.489 l 0.039,0.011 2.414,0.785 c 0.262,0.09 0.504,0.239 0.699,0.434 0.196,0.199 0.344,0.437 0.434,0.703 v 0.004 l 0.785,2.418 0.016,0.035 c 0.277,0.793 0.796,1.481 1.484,1.969 0.687,0.484 1.512,0.746 2.351,0.746 0.54,0 1.071,-0.105 1.563,-0.312 V 57.02 c 0,4.746 -3.848,8.593 -8.594,8.593 H 17.969 c -4.746,0 -8.594,-3.847 -8.594,-8.593 V 17.957 c 0,-4.746 3.848,-8.594 8.594,-8.594 H 38.02 L 37.633,9.488 37.598,9.5 c -0.942,0.332 -1.758,0.949 -2.336,1.766 -0.578,0.812 -0.887,1.789 -0.887,2.785 0,1 0.309,1.972 0.887,2.789 0.578,0.812 1.394,1.43 2.336,1.762 l 0.035,0.011 4.328,1.407 c 0.848,0.285 1.613,0.761 2.246,1.39 0.168,0.172 0.324,0.352 0.473,0.539 0.398,0.516 0.707,1.094 0.91,1.711 v 0.008 l 1.41,4.328 0.012,0.035 c 0.285,0.805 0.777,1.52 1.426,2.071 v 20.742 c 0,1.258 1.05,2.281 2.343,2.281 1.293,0 2.344,-1.023 2.344,-2.281 z M 21.875,30.457 v 20.332 c 0,1.289 1.051,2.336 2.344,2.336 1.293,0 2.343,-1.047 2.343,-2.336 V 30.457 c 0,-1.289 -1.05,-2.332 -2.343,-2.332 -1.293,0 -2.344,1.043 -2.344,2.332 z m 13.281,9.324 v 11.086 c 0.012,1.25 1.078,2.258 2.344,2.246 1.266,-0.011 2.355,-1.039 2.344,-2.293 V 39.734 C 39.832,38.48 38.766,37.477 37.5,37.488 36.234,37.5 35.145,38.527 35.156,39.781 Z M 47.152,20.039 C 46.926,19.746 46.68,19.469 46.418,19.207 45.441,18.227 44.25,17.488 42.941,17.051 L 38.637,15.656 C 38.305,15.539 38.016,15.32 37.812,15.035 37.609,14.746 37.5,14.402 37.5,14.051 c 0,-0.352 0.109,-0.696 0.312,-0.981 0.204,-0.289 0.493,-0.504 0.825,-0.621 l 4.304,-1.398 c 1.293,-0.446 2.465,-1.184 3.426,-2.16 0.934,-0.946 1.641,-2.09 2.071,-3.348 L 48.473,5.438 49.871,1.133 C 49.988,0.801 50.207,0.516 50.492,0.312 50.781,0.109 51.125,0 51.477,0 c 0.351,0 0.695,0.109 0.98,0.312 0.289,0.204 0.508,0.489 0.625,0.821 l 1.398,4.305 c 0.434,1.308 1.168,2.496 2.145,3.468 0.977,0.977 2.164,1.711 3.473,2.145 l 4.304,1.398 0.086,0.02 c 0.332,0.117 0.621,0.336 0.824,0.621 0.204,0.289 0.313,0.633 0.313,0.984 0,0.352 -0.109,0.696 -0.313,0.981 -0.203,0.289 -0.492,0.504 -0.824,0.621 l -4.304,1.398 c -1.309,0.434 -2.496,1.168 -3.473,2.145 -0.977,0.972 -1.711,2.16 -2.145,3.469 l -1.398,4.304 c -0.016,0.035 -0.027,0.07 -0.043,0.106 -0.125,0.285 -0.324,0.535 -0.578,0.714 -0.289,0.204 -0.633,0.313 -0.985,0.313 -0.351,0 -0.695,-0.109 -0.984,-0.313 -0.285,-0.203 -0.504,-0.488 -0.621,-0.82 L 48.559,22.688 C 48.242,21.73 47.766,20.832 47.152,20.039 Z m 24.043,11.879 -2.39,-0.777 C 68.078,30.898 67.418,30.488 66.875,29.949 66.332,29.406 65.926,28.746 65.684,28.02 L 64.906,25.629 C 64.84,25.445 64.719,25.285 64.559,25.172 64.402,25.062 64.211,25 64.016,25 c -0.196,0 -0.387,0.062 -0.547,0.172 -0.16,0.113 -0.281,0.273 -0.344,0.457 l -0.777,2.391 c -0.239,0.722 -0.641,1.378 -1.172,1.921 -0.535,0.539 -1.184,0.95 -1.903,1.2 l -2.394,0.777 c -0.184,0.062 -0.344,0.184 -0.457,0.344 -0.11,0.16 -0.172,0.347 -0.172,0.543 0,0.195 0.062,0.386 0.172,0.547 0.113,0.16 0.273,0.281 0.457,0.343 l 2.394,0.778 c 0.727,0.242 1.391,0.652 1.93,1.195 0.543,0.547 0.949,1.207 1.192,1.937 l 0.777,2.391 c 0.066,0.184 0.183,0.344 0.344,0.457 0.16,0.109 0.351,0.172 0.546,0.172 0.196,0 0.387,-0.063 0.547,-0.172 0.161,-0.113 0.278,-0.273 0.344,-0.457 l 0.777,-2.391 c 0.243,-0.726 0.649,-1.386 1.192,-1.929 0.543,-0.539 1.203,-0.949 1.93,-1.192 l 2.394,-0.777 c 0.184,-0.062 0.344,-0.184 0.457,-0.344 0.109,-0.16 0.172,-0.347 0.172,-0.543 0,-0.195 -0.063,-0.386 -0.172,-0.547 -0.113,-0.16 -0.273,-0.281 -0.457,-0.343 z" style="fill:currentColor;fill-opacity:1;fill-rule:nonzero;stroke:none" transform="scale(1.3333333)" /> </g>
</svg>

