<?xml version="1.0" encoding="UTF-8" standalone="no"?> <svg version="1.1" id="I733215c5b91b406b8b7aa09a3822e37920251110135155" width="100" height="100" viewBox="0 0 100 100" xmlns="http://www.w3.org/2000/svg" xmlns:svg="http://www.w3.org/2000/svg"> <defs id="I3f5bd0fb23de4bd8b864f60cccf4b3ef20251110135155" /> <g id="I57ca392799b44897afe63c99172dc04120251110135155"> <path id="I6540758cf1c24ece9e7b550dcc80e60220251110135155" d="M 24.086,10.934 C 23.758,10.012 22.891,9.391 21.91,9.375 20.93,9.363 20.043,9.957 19.691,10.871 L 0.941,59.309 c -0.468,1.207 0.133,2.566 1.34,3.035 1.207,0.465 2.563,-0.133 3.031,-1.34 l 4.864,-12.566 h 22.242 l 4.437,12.503 c 0.434,1.219 1.77,1.856 2.993,1.422 1.218,-0.429 1.855,-1.769 1.425,-2.992 z M 11.988,43.75 21.781,18.457 30.754,43.75 Z M 46.094,10.156 c -1.293,0 -2.344,1.051 -2.344,2.344 v 47.656 c 0,1.293 1.051,2.344 2.344,2.344 h 12.89 c 7.981,0 14.454,-6.473 14.454,-14.453 0,-5.735 -3.34,-10.692 -8.184,-13.027 3.09,-2.579 5.058,-6.461 5.058,-10.801 0,-7.766 -6.296,-14.063 -14.062,-14.063 z m 19.531,14.063 c 0,5.176 -4.195,9.375 -9.375,9.375 h -7.812 v -18.75 h 7.812 c 5.18,0 9.375,4.199 9.375,9.375 z M 58.984,57.812 H 48.438 V 38.281 h 10.546 c 5.395,0 9.766,4.371 9.766,9.766 0,5.394 -4.371,9.765 -9.766,9.765 z" style="fill:currentColor;fill-opacity:1;fill-rule:nonzero;stroke:none" transform="scale(1.3333333)" /> </g>
</svg>

