<?xml version="1.0" encoding="UTF-8" standalone="no"?> <svg version="1.1" id="I9f4ac91fc2ff40d2bfea7ec0ac8014b520251106154012" width="100" height="100" viewBox="0 0 100 100" xmlns="http://www.w3.org/2000/svg" xmlns:svg="http://www.w3.org/2000/svg"> <defs id="I95c3e69ff36f43cf8d9d027d777ca2b820251106154012" /> <g id="I1424db740f5348c5bb81d7281924aad320251106154012"> <path id="I5138fa90ad8c405881d4cce5adc0fb3020251106154012" d="m 47.66,57.812 c 1.293,0 2.344,1.051 2.344,2.344 0,1.293 -1.051,2.344 -2.344,2.344 H 27.355 c -1.293,0 -2.343,-1.051 -2.343,-2.344 0,-1.293 1.05,-2.344 2.343,-2.344 z M 48.441,12.5 c 11.215,0 20.313,9.094 20.313,20.312 0,11.219 -9.098,20.313 -20.313,20.313 H 26.574 C 15.355,53.125 6.262,44.031 6.262,32.812 6.262,21.594 15.355,12.5 26.574,12.5 Z M 37.5,23.438 c -5.18,0 -9.375,4.199 -9.375,9.374 0,5.18 4.195,9.376 9.375,9.376 5.18,0 9.375,-4.196 9.375,-9.376 0,-5.175 -4.195,-9.374 -9.375,-9.374 z m 0,4.687 c 2.59,0 4.688,2.098 4.688,4.687 0,2.59 -2.098,4.688 -4.688,4.688 -2.59,0 -4.688,-2.098 -4.688,-4.688 0,-2.589 2.098,-4.687 4.688,-4.687 z m -18.75,1.563 c -1.727,0 -3.125,1.398 -3.125,3.124 0,1.727 1.398,3.126 3.125,3.126 1.727,0 3.125,-1.399 3.125,-3.126 0,-1.726 -1.398,-3.124 -3.125,-3.124 z" style="fill:currentColor;fill-opacity:1;fill-rule:nonzero;stroke:none" transform="scale(1.3333333)" /> </g>
</svg>

