<?xml version="1.0" encoding="UTF-8" standalone="no"?> <svg version="1.1" id="Ia73dea589d164274a4bbe45cc9a519cd20251110133655" width="100" height="100" viewBox="0 0 100 100" xmlns="http://www.w3.org/2000/svg" xmlns:svg="http://www.w3.org/2000/svg"> <defs id="Icef1b496b61643ceb26cb9dcba0ad45620251110133655" /> <g id="I250d91fa2e9e4208a69a1bfafee41a8b20251110133655"> <path id="I2e71cd79521d46dea99e3e32eddc7cf320251110133655" d="m 49.543,19.207 c 0.262,0.262 0.508,0.539 0.734,0.832 0.614,0.793 1.09,1.691 1.407,2.649 l 1.398,4.304 c 0.117,0.332 0.336,0.617 0.621,0.82 0.289,0.204 0.633,0.313 0.985,0.313 0.351,0 0.695,-0.109 0.984,-0.313 0.254,-0.179 0.453,-0.429 0.578,-0.714 0.016,-0.036 0.027,-0.071 0.043,-0.106 l 1.398,-4.304 c 0.434,-1.309 1.168,-2.497 2.145,-3.469 0.976,-0.977 2.164,-1.711 3.473,-2.145 l 4.304,-1.398 c 0.332,-0.117 0.621,-0.332 0.825,-0.621 0.203,-0.285 0.312,-0.629 0.312,-0.981 0,-0.351 -0.109,-0.695 -0.312,-0.984 -0.204,-0.285 -0.493,-0.504 -0.825,-0.621 l -0.086,-0.02 -4.304,-1.398 C 61.914,10.617 60.727,9.883 59.75,8.906 58.773,7.934 58.039,6.746 57.605,5.438 L 56.207,1.133 C 56.09,0.801 55.871,0.516 55.582,0.312 55.297,0.109 54.953,0 54.602,0 54.25,0 53.906,0.109 53.617,0.312 53.332,0.516 53.113,0.801 52.996,1.133 l -1.398,4.305 -0.036,0.105 c -0.429,1.258 -1.136,2.402 -2.07,3.348 -0.961,0.976 -2.133,1.714 -3.426,2.16 l -4.304,1.398 c -0.332,0.117 -0.621,0.332 -0.824,0.621 -0.204,0.285 -0.313,0.629 -0.313,0.981 0,0.351 0.109,0.695 0.313,0.984 0.203,0.285 0.492,0.504 0.824,0.621 l 4.304,1.395 c 1.309,0.437 2.5,1.176 3.477,2.156 z m 22.387,11.934 2.39,0.777 0.051,0.012 c 0.184,0.062 0.344,0.183 0.457,0.343 0.11,0.161 0.172,0.352 0.172,0.547 0,0.196 -0.062,0.383 -0.172,0.543 -0.113,0.16 -0.273,0.282 -0.457,0.344 l -2.394,0.777 c -0.727,0.243 -1.387,0.653 -1.93,1.192 -0.543,0.543 -0.949,1.203 -1.192,1.929 l -0.777,2.391 c -0.066,0.184 -0.183,0.344 -0.344,0.457 -0.16,0.109 -0.351,0.172 -0.546,0.172 -0.196,0 -0.387,-0.063 -0.547,-0.172 C 66.48,40.34 66.363,40.18 66.297,39.996 L 65.52,37.605 c -0.243,-0.73 -0.649,-1.39 -1.192,-1.937 -0.539,-0.543 -1.203,-0.953 -1.93,-1.195 L 60.004,33.695 C 59.82,33.633 59.66,33.512 59.547,33.352 59.438,33.191 59.375,33 59.375,32.805 c 0,-0.196 0.063,-0.383 0.172,-0.543 0.113,-0.16 0.273,-0.282 0.457,-0.344 l 2.394,-0.777 c 0.719,-0.25 1.368,-0.661 1.903,-1.2 0.531,-0.543 0.933,-1.199 1.172,-1.921 l 0.777,-2.391 c 0.062,-0.184 0.184,-0.344 0.344,-0.457 0.16,-0.11 0.351,-0.172 0.547,-0.172 0.195,0 0.386,0.062 0.543,0.172 0.16,0.113 0.281,0.273 0.347,0.457 l 0.778,2.391 c 0.242,0.726 0.648,1.386 1.191,1.929 0.543,0.539 1.203,0.949 1.93,1.192 z M 27.133,17.188 22.445,12.5 h 15.278 c -0.145,0.473 -0.223,0.965 -0.223,1.465 0.004,0.996 0.309,1.965 0.875,2.781 0.09,0.152 0.184,0.301 0.289,0.442 z m 0.992,14.253 c 0.102,5.028 4.156,9.082 9.184,9.184 l 3.125,3.125 h -13.09 l -0.449,0.02 c -2.809,0.226 -5.02,2.578 -5.02,5.449 l -0.004,8.605 -8.59,0.004 c -1.293,0 -2.343,-1.051 -2.343,-2.344 V 19.531 c 0,-1.293 1.05,-2.343 2.343,-2.343 h 0.59 z m 31.074,31.075 5.551,5.546 c 0.914,0.918 2.398,0.918 3.312,0 0.915,-0.914 0.915,-2.398 0,-3.312 L 10.25,6.938 C 9.336,6.02 7.852,6.02 6.938,6.938 6.02,7.852 6.02,9.336 6.938,10.25 l 3.058,3.062 C 7.77,14.492 6.25,16.836 6.25,19.531 v 35.953 c 0,3.883 3.148,7.032 7.031,7.032 z m -14.078,-14.078 3.301,3.296 -0.004,6.09 H 26.559 l 0.003,-8.605 0.02,-0.18 c 0.082,-0.344 0.391,-0.601 0.762,-0.601 z M 42.188,31.25 c 0,0.312 -0.032,0.613 -0.086,0.906 l 3.613,3.617 c 0.738,-1.343 1.16,-2.882 1.16,-4.523 0,-5.176 -4.195,-9.375 -9.375,-9.375 -1.641,0 -3.18,0.422 -4.52,1.16 l 3.614,3.617 c 0.293,-0.058 0.597,-0.09 0.906,-0.09 2.59,0 4.688,2.102 4.688,4.688 z m 21.859,22.855 4.129,4.129 c 0.359,-0.843 0.558,-1.773 0.558,-2.75 V 43.539 c -0.519,0.242 -1.089,0.367 -1.672,0.367 -0.839,0 -1.66,-0.265 -2.343,-0.754 -0.246,-0.175 -0.469,-0.375 -0.672,-0.593 z" style="fill:currentColor;fill-opacity:1;fill-rule:nonzero;stroke:none" transform="scale(1.3333333)" /> </g>
</svg>

