<?xml version="1.0" encoding="UTF-8" standalone="no"?> <svg version="1.1" id="Ib0deff78d8544f3c989f40eb01f05b0120251106152729" width="100" height="100" viewBox="0 0 100 100" xmlns="http://www.w3.org/2000/svg" xmlns:svg="http://www.w3.org/2000/svg"> <defs id="I4ce1ee573bb14fbbb910051395bb7d1620251106152729" /> <g id="I36817acd313d474fbf3b217f23e7c7da20251106152729"> <path id="I0b18d7457e1d4f8dacf685bdbe1fea0320251106152729" d="m 32.871,13.285 c 2.996,-1.047 6.262,-1.047 9.258,0 0.113,0.035 0.223,0.074 0.336,0.113 l 18.484,6.559 c 1.172,0.418 2.223,1.051 3.113,1.848 v -1.297 c 0,-2.649 -1.667,-5.008 -4.16,-5.891 L 43.77,8.891 c -4.055,-1.438 -8.485,-1.438 -12.54,0 l -16.132,5.726 c -2.493,0.883 -4.16,3.242 -4.16,5.891 v 1.297 c 0.89,-0.797 1.941,-1.43 3.113,-1.848 l 18.484,-6.559 c 0.113,-0.039 0.223,-0.078 0.336,-0.113 z M 20.156,31.598 c 0.43,-1.219 1.77,-1.86 2.992,-1.426 L 37.5,35.266 51.852,30.172 c 1.222,-0.434 2.562,0.207 2.992,1.426 0.433,1.218 -0.203,2.558 -1.422,2.992 L 39.844,39.406 V 54.16 c 0,1.293 -1.051,2.344 -2.344,2.344 -1.293,0 -2.344,-1.051 -2.344,-2.344 V 39.406 L 21.578,34.59 C 20.359,34.156 19.723,32.816 20.156,31.598 Z M 33.582,16.344 c 2.535,-0.903 5.301,-0.903 7.836,0 l 18.484,6.558 c 2.493,0.883 4.16,3.243 4.16,5.891 v 25.73 c 0,2.645 -1.667,5.004 -4.16,5.891 l -18.484,6.559 c -2.535,0.898 -5.301,0.898 -7.836,0 L 15.098,60.414 c -2.493,-0.887 -4.16,-3.246 -4.16,-5.891 v -25.73 c 0,-2.648 1.667,-5.008 4.16,-5.891 z m 6.27,4.418 c -1.52,-0.543 -3.184,-0.543 -4.704,0 L 16.664,27.32 c -0.621,0.219 -1.039,0.809 -1.039,1.473 v 25.73 c 0,0.661 0.418,1.25 1.039,1.473 l 18.484,6.559 c 1.52,0.539 3.184,0.539 4.704,0 l 18.484,-6.559 c 0.621,-0.223 1.039,-0.812 1.039,-1.473 v -25.73 c 0,-0.664 -0.418,-1.254 -1.039,-1.473 z" style="fill:currentColor;fill-opacity:1;fill-rule:nonzero;stroke:none" transform="scale(1.3333333)" /> </g>
</svg>

