<?xml version="1.0" encoding="UTF-8" standalone="no"?> <svg version="1.1" id="I3d3dcaa7010146b19b9232eda5386bf920251106151526" width="100" height="100" viewBox="0 0 100 100" xmlns="http://www.w3.org/2000/svg" xmlns:svg="http://www.w3.org/2000/svg"> <defs id="I21db0b379a4e4c55b315e19fadf4310720251106151526" /> <g id="I06f133fbb5b744378756f2525dc6a3e120251106151526"> <path id="Ib9228a98bd2a4487b8f3d1f2dcad8e6c20251106151526" d="m 32.031,10.938 h 10.938 c 1.293,0 2.343,1.05 2.343,2.343 0,1.293 -1.05,2.344 -2.343,2.344 H 32.031 c -1.293,0 -2.343,-1.051 -2.343,-2.344 0,-1.293 1.05,-2.343 2.343,-2.343 z M 42.969,6.25 H 32.031 c -3.617,0 -6.597,2.734 -6.988,6.25 h -5.512 c -3.883,0 -7.031,3.148 -7.031,7.031 v 42.188 c 0,3.883 3.148,7.031 7.031,7.031 h 7.031 C 25.582,67.445 25,65.82 25,64.062 c 0,-4.316 3.496,-7.812 7.812,-7.812 4.317,0 7.813,3.496 7.813,7.812 0,-4.316 3.496,-7.812 7.813,-7.812 4.316,0 7.812,3.496 7.812,7.812 0,-3.781 2.684,-6.933 6.25,-7.656 V 19.531 C 62.5,15.648 59.352,12.5 55.469,12.5 H 49.957 C 49.566,8.984 46.586,6.25 42.969,6.25 Z M 37.5,64.062 c 0,2.59 -2.098,4.688 -4.688,4.688 -2.589,0 -4.687,-2.098 -4.687,-4.688 0,-2.589 2.098,-4.687 4.687,-4.687 2.59,0 4.688,2.098 4.688,4.687 z m 10.938,4.688 c 2.589,0 4.687,-2.098 4.687,-4.688 0,-2.589 -2.098,-4.687 -4.687,-4.687 -2.59,0 -4.688,2.098 -4.688,4.687 0,2.59 2.098,4.688 4.688,4.688 z m 15.624,0 c 2.59,0 4.688,-2.098 4.688,-4.688 0,-2.589 -2.098,-4.687 -4.688,-4.687 -2.589,0 -4.687,2.098 -4.687,4.687 0,2.59 2.098,4.688 4.687,4.688 z" style="fill:currentColor;fill-opacity:1;fill-rule:nonzero;stroke:none" transform="scale(1.3333333)" /> </g>
</svg>

