<?xml version="1.0" encoding="UTF-8" standalone="no"?> <svg version="1.1" id="I7b80c86187294d58b310965722f613ef20251106143239" width="100" height="100" viewBox="0 0 100 100" xmlns="http://www.w3.org/2000/svg" xmlns:svg="http://www.w3.org/2000/svg"> <defs id="I9a8cb16f3e224487a3dc6ac4cb8033f020251106143239" /> <g id="I0a4716816a384c729350511a3c0af23b20251106143239"> <path id="I32546760841e4645aaebb5848a624ffd20251106143239" d="M 13.395,3.348 C 7.844,3.348 3.348,7.844 3.348,13.395 V 40.18 c 0,5.547 4.496,10.043 10.047,10.043 h 5.355 v -4.016 h -5.355 c -3.333,0 -6.028,-2.699 -6.028,-6.027 V 20.09 h 38.84 v 12.055 h 4.016 V 13.395 C 50.223,7.844 45.727,3.348 40.18,3.348 Z M 46.207,16.07 H 7.367 v -2.675 c 0,-3.333 2.695,-6.028 6.028,-6.028 H 40.18 c 3.328,0 6.027,2.695 6.027,6.028 z M 21.43,44.867 c 0,-5.547 4.496,-10.047 10.043,-10.047 h 17.41 c 5.539,0 10.027,4.481 10.047,10.016 l 8.707,-6.059 C 70.742,36.617 75,38.84 75,42.625 v 21.891 c 0,3.785 -4.258,6.011 -7.363,3.847 L 58.93,62.309 C 58.91,67.84 54.422,72.32 48.883,72.32 H 31.473 C 25.926,72.32 21.43,67.824 21.43,62.277 Z m 37.5,12.547 11,7.652 c 0.445,0.309 1.05,-0.007 1.05,-0.55 V 42.625 c 0,-0.539 -0.605,-0.855 -1.05,-0.547 l -11,7.652 z M 31.473,38.84 c -3.328,0 -6.028,2.699 -6.028,6.027 v 17.41 c 0,3.328 2.7,6.028 6.028,6.028 h 17.41 c 3.328,0 6.027,-2.7 6.027,-6.028 v -17.41 c 0,-3.328 -2.699,-6.027 -6.027,-6.027 z" style="fill:currentColor;fill-opacity:1;fill-rule:nonzero;stroke:none" transform="scale(1.3333333)" /> </g>
</svg>

