<?xml version="1.0" encoding="UTF-8" standalone="no"?> <svg version="1.1" id="I48ea7b46989b453d9151d9e8d5c2c97320251110135155" width="100" height="100" viewBox="0 0 100 100" xmlns="http://www.w3.org/2000/svg" xmlns:svg="http://www.w3.org/2000/svg"> <defs id="I170d00eaf8d84acbbc052fd274e13e6720251110135155" /> <g id="Iaa26b4970d424f68bca51089d6720b6b20251110135155"> <path id="I863785284ec040b3b00eaa09b84279ae20251110135155" d="m 61.031,10.062 6.25,6.25 c 0.918,0.915 0.918,2.399 0,3.313 -0.914,0.918 -2.398,0.918 -3.312,0 l -2.25,-2.246 v 14.652 c 0,1.293 -1.051,2.344 -2.344,2.344 -1.293,0 -2.344,-1.051 -2.344,-2.344 V 17.379 l -2.25,2.246 c -0.914,0.918 -2.398,0.918 -3.312,0 -0.918,-0.914 -0.918,-2.398 0,-3.313 l 6.25,-6.25 C 58.172,9.605 58.77,9.375 59.367,9.375 h 0.016 c 0.312,0 0.613,0.063 0.89,0.18 0.274,0.113 0.536,0.281 0.758,0.507 z M 6.25,17.969 c 0,-1.293 1.051,-2.344 2.344,-2.344 h 26.562 c 1.293,0 2.344,1.051 2.344,2.344 0,1.293 -1.051,2.343 -2.344,2.343 H 8.594 c -1.293,0 -2.344,-1.05 -2.344,-2.343 z m 0,20.312 c 0,-1.293 1.051,-2.343 2.344,-2.343 h 35.937 c 1.293,0 2.344,1.05 2.344,2.343 0,1.293 -1.051,2.344 -2.344,2.344 H 8.594 C 7.301,40.625 6.25,39.574 6.25,38.281 Z M 8.594,56.25 c -1.293,0 -2.344,1.051 -2.344,2.344 0,1.293 1.051,2.344 2.344,2.344 h 26.562 c 1.293,0 2.344,-1.051 2.344,-2.344 0,-1.293 -1.051,-2.344 -2.344,-2.344 z m 48.437,1.371 V 42.969 c 0,-1.293 1.051,-2.344 2.344,-2.344 1.293,0 2.344,1.051 2.344,2.344 v 14.652 l 2.25,-2.246 c 0.914,-0.918 2.398,-0.918 3.312,0 0.918,0.914 0.918,2.398 0,3.313 l -6.25,6.25 c -0.222,0.226 -0.484,0.394 -0.758,0.507 -0.242,0.102 -0.503,0.164 -0.777,0.176 -0.039,0.004 -0.082,0.004 -0.121,0.004 -0.316,0 -0.621,-0.063 -0.898,-0.18 -0.274,-0.113 -0.536,-0.281 -0.758,-0.507 l -6.25,-6.25 c -0.918,-0.915 -0.918,-2.399 0,-3.313 0.914,-0.918 2.398,-0.918 3.312,0 z" style="fill:currentColor;fill-opacity:1;fill-rule:nonzero;stroke:none" transform="scale(1.3333333)" /> </g>
</svg>

