<?xml version="1.0" encoding="UTF-8" standalone="no"?> <svg version="1.1" id="Iad7e12bcfdf1413687364424853ccb5420251106142135" width="100" height="100" viewBox="0 0 100 100" xmlns="http://www.w3.org/2000/svg" xmlns:svg="http://www.w3.org/2000/svg"> <defs id="I8fb91bdcd94a4804b76cb9e8f6de426420251106142135" /> <g id="I2a4e7c880b1b4e78a855710f28f89f6120251106142135"> <path id="I6325d9aa4ccf4587aeebf736c192d83920251106142135" d="m 20.703,9.375 c -5.394,0 -9.765,4.371 -9.765,9.766 v 11.976 c 0,2.141 -1.477,4 -3.563,4.481 -1.051,0.242 -1.707,1.289 -1.465,2.34 0.176,0.765 0.778,1.32 1.5,1.472 2.067,0.496 3.528,2.344 3.528,4.473 v 11.976 c 0,5.391 4.371,9.766 9.765,9.766 1.078,0 1.953,-0.875 1.953,-1.953 0,-1.082 -0.875,-1.953 -1.953,-1.953 -3.234,0 -5.859,-2.625 -5.859,-5.86 V 43.883 c 0,-2.508 -1.098,-4.809 -2.883,-6.383 1.785,-1.574 2.883,-3.875 2.883,-6.383 V 19.141 c 0,-3.235 2.625,-5.86 5.859,-5.86 1.078,0 1.953,-0.875 1.953,-1.953 0,-1.078 -0.875,-1.953 -1.953,-1.953 z m 7.008,12.469 c -0.668,-0.852 -1.895,-1 -2.742,-0.336 -0.852,0.668 -1,1.894 -0.332,2.742 L 35.02,37.5 24.637,50.75 c -0.668,0.848 -0.52,2.074 0.332,2.742 0.847,0.664 2.074,0.516 2.742,-0.336 L 37.5,40.668 47.293,53.156 c 0.664,0.852 1.891,1 2.742,0.336 0.848,-0.668 0.996,-1.894 0.332,-2.742 L 39.98,37.5 50.367,24.25 c 0.664,-0.848 0.516,-2.074 -0.332,-2.742 -0.851,-0.664 -2.078,-0.516 -2.742,0.336 L 37.5,34.332 Z M 54.297,9.375 c 5.394,0 9.765,4.371 9.765,9.766 v 11.976 c 0,2.141 1.477,4 3.567,4.481 1.051,0.242 1.703,1.289 1.461,2.34 -0.176,0.765 -0.778,1.32 -1.496,1.472 -2.071,0.496 -3.532,2.344 -3.532,4.473 v 11.976 c 0,5.391 -4.371,9.766 -9.765,9.766 -1.078,0 -1.953,-0.875 -1.953,-1.953 0,-1.082 0.875,-1.953 1.953,-1.953 3.238,0 5.859,-2.625 5.859,-5.86 V 43.883 c 0,-2.508 1.098,-4.809 2.887,-6.383 -1.789,-1.574 -2.887,-3.875 -2.887,-6.383 V 19.141 c 0,-3.235 -2.621,-5.86 -5.859,-5.86 -1.078,0 -1.953,-0.875 -1.953,-1.953 0,-1.078 0.875,-1.953 1.953,-1.953 z" style="fill:currentColor;fill-opacity:1;fill-rule:nonzero;stroke:none" transform="scale(1.3333333)" /> </g>
</svg>

