<?xml version="1.0" encoding="UTF-8" standalone="no"?>
<!-- Created with Inkscape (http://www.inkscape.org/) -->

<svg
   version="1.1"
   id="I08c716adc14b4661bbca2f60580da81920251030195519"
   width="100"
   height="100"
   viewBox="0 0 100 100"
   sodipodi:docname="output.ai"
   xmlns:inkscape="http://www.inkscape.org/namespaces/inkscape"
   xmlns:sodipodi="http://sodipodi.sourceforge.net/DTD/sodipodi-0.dtd"
   xmlns="http://www.w3.org/2000/svg"
   xmlns:svg="http://www.w3.org/2000/svg">
  <defs
     id="Ib24e005881524360b57f5a534b4fd86320251030195519" />
  <sodipodi:namedview
     id="I19134da2475d47108daa71065eefdfe120251030195519"
     pagecolor="#ffffff"
     bordercolor="#000000"
     borderopacity="0.25"
     inkscape:showpageshadow="2"
     inkscape:pageopacity="0.0"
     inkscape:pagecheckerboard="0"
     inkscape:deskcolor="#d1d1d1">
    <inkscape:page
       x="0"
       y="0"
       inkscape:label="1"
       id="I79921bc5d9314f2482c31ba9483b729b20251030195519"
       width="100"
       height="100"
       margin="0"
       bleed="0" />
  </sodipodi:namedview>
  <g
     id="I57f68af502fd48b9a173ada07712716a20251030195519"
     inkscape:groupmode="layer"
     inkscape:label="1">
    <path
       id="I899c72af20ef466c996f477efd2c03ef20251030195519"
       d="m 4.688,18.75 c 0.003,-4.383 2.046,-8.512 5.531,-11.172 3.48,-2.656 8.004,-3.539 12.234,-2.387 4.227,1.153 7.676,4.211 9.324,8.27 1.649,4.059 1.313,8.656 -0.91,12.434 L 37.5,32.531 60.016,10.016 c 3.308,-3.082 8.05,1.66 4.968,4.968 L 40.027,39.953 c -0.023,0.024 -0.05,0.051 -0.074,0.074 l -9.082,9.082 c 3.598,6.102 2.098,13.926 -3.5,18.262 C 21.773,71.707 13.824,71.207 8.816,66.199 3.809,61.191 3.305,53.242 7.641,47.641 11.98,42.043 19.805,40.543 25.902,44.141 L 32.523,37.5 25.895,30.867 C 21.547,33.43 16.156,33.469 11.773,30.965 7.391,28.461 4.688,23.797 4.688,18.75 Z M 18.75,11.719 c -3.883,0 -7.031,3.148 -7.031,7.031 0,3.883 3.148,7.031 7.031,7.031 3.883,0 7.031,-3.148 7.031,-7.031 0,-3.883 -3.148,-7.031 -7.031,-7.031 z m 0,37.5 c -3.883,0 -7.031,3.148 -7.031,7.031 0,3.883 3.148,7.031 7.031,7.031 3.883,0 7.031,-3.148 7.031,-7.031 0,-3.883 -3.148,-7.031 -7.031,-7.031 z"
       style="fill:#000000;fill-opacity:1;fill-rule:evenodd;stroke:none"
       transform="scale(1.3333333)" />
    <path
       id="I1d8e3f476b3045a281f0a232135b7a5b20251030195519"
       d="m 42.73,42.766 c 1.375,-1.371 3.598,-1.371 4.969,0 l 17.285,17.25 c 1.414,1.363 1.434,3.621 0.043,5.011 -1.386,1.391 -3.648,1.375 -5.011,-0.039 L 42.734,47.738 C 41.363,46.367 41.363,44.145 42.73,42.77 Z"
       style="fill:#000000;fill-opacity:1;fill-rule:nonzero;stroke:none"
       transform="scale(1.3333333)" />
  </g>
</svg>


