<?xml version="1.0" encoding="UTF-8" standalone="no"?> <svg version="1.1" id="I856210cfe0764984b5adad2ff048d1a220251106112235" width="100" height="100" viewBox="0 0 100 100" xmlns="http://www.w3.org/2000/svg" xmlns:svg="http://www.w3.org/2000/svg"> <defs id="I6bd6b95c064b4e258224810ef9aab20720251106112235" /> <g id="Ief92161eefa64d028fb21398ac0d887720251106112235"> <path id="I7b27cccc4cda46728a4ffca535ae527c20251106112235" d="M 70.656,24.199 49.402,21.109 39.902,1.852 C 39.645,1.324 39.215,0.895 38.688,0.637 c -1.321,-0.653 -2.93,-0.11 -3.59,1.215 l -9.5,19.257 -21.254,3.09 c -0.586,0.082 -1.121,0.36 -1.532,0.778 -1.031,1.062 -1.011,2.757 0.051,3.793 L 18.238,43.762 14.605,64.93 c -0.378,2.187 1.922,3.859 3.887,2.82 L 37.5,57.758 56.508,67.75 c 0.519,0.277 1.125,0.371 1.699,0.27 1.457,-0.25 2.438,-1.633 2.188,-3.09 L 56.762,43.762 72.137,28.77 c 0.418,-0.411 0.695,-0.946 0.777,-1.532 0.227,-1.465 -0.793,-2.82 -2.258,-3.039 z M 50.289,41.652 53.312,59.254 37.5,50.953 21.688,59.262 24.711,41.66 11.918,29.188 29.598,26.617 37.5,10.605 l 7.902,16.012 17.68,2.571 z" style="fill:currentColor;fill-opacity:1;fill-rule:nonzero;stroke:none" transform="scale(1.3333333)" /> </g>
</svg>

