<?xml version="1.0" encoding="UTF-8" standalone="no"?> <svg version="1.1" id="I98900e6ce13d4258a44fe7b46f45fc7620251110123030" width="100" height="100" viewBox="0 0 100 100" xmlns="http://www.w3.org/2000/svg" xmlns:svg="http://www.w3.org/2000/svg"> <defs id="Iaf8153c0b6d349eba24c09dc6ad4ad5420251110123030" /> <g id="I8c81ecb56d514b47bc59da040a36fd6e20251110123030"> <path id="I550edbec32fc49c3b6890e1942b3d46f20251110123030" d="m 25.445,10.715 c -6.656,0 -12.05,5.394 -12.05,12.055 0,6.656 5.394,12.05 12.05,12.05 6.657,0 12.055,-5.394 12.055,-12.05 0,-6.661 -5.398,-12.055 -12.055,-12.055 z M 17.41,22.77 c 0,-4.442 3.598,-8.04 8.035,-8.04 4.438,0 8.035,3.598 8.035,8.04 0,4.437 -3.597,8.035 -8.035,8.035 -4.437,0 -8.035,-3.598 -8.035,-8.035 z m 36.16,-6.7 c -5.175,0 -9.375,4.2 -9.375,9.375 0,5.18 4.2,9.375 9.375,9.375 5.18,0 9.375,-4.195 9.375,-9.375 0,-5.175 -4.195,-9.375 -9.375,-9.375 z m -5.355,9.375 c 0,-2.957 2.398,-5.355 5.355,-5.355 2.961,0 5.36,2.398 5.36,5.355 0,2.961 -2.399,5.36 -5.36,5.36 -2.957,0 -5.355,-2.399 -5.355,-5.36 z M 11.383,40.18 c -3.328,0 -6.028,2.699 -6.028,6.027 v 1.371 l 0.004,0.051 c 0,0.039 0,0.09 0.004,0.152 0.008,0.121 0.02,0.289 0.039,0.496 0.047,0.411 0.129,0.973 0.297,1.637 0.332,1.332 0.996,3.098 2.321,4.863 2.714,3.621 7.898,6.828 17.425,6.828 4.102,0 7.399,-0.593 10.039,-1.558 -0.343,-1.309 -0.562,-2.668 -0.636,-4.067 -2.235,0.954 -5.274,1.61 -9.403,1.61 -8.55,0 -12.41,-2.82 -14.211,-5.223 C 10.297,51.117 9.828,49.871 9.598,48.941 9.48,48.477 9.426,48.098 9.398,47.848 9.387,47.723 9.379,47.633 9.375,47.578 v -1.371 c 0,-1.109 0.898,-2.012 2.008,-2.012 h 26.531 c 0.883,-1.398 1.938,-2.683 3.129,-3.82 C 40.555,40.246 40.039,40.18 39.508,40.18 Z M 72.32,54.91 c 0,9.617 -7.793,17.41 -17.41,17.41 -9.617,0 -17.41,-7.793 -17.41,-17.41 0,-9.617 7.793,-17.41 17.41,-17.41 9.617,0 17.41,7.793 17.41,17.41 z M 56.25,44.195 c 0,-0.738 -0.602,-1.34 -1.34,-1.34 -0.738,0 -1.34,0.602 -1.34,1.34 v 9.375 h -9.375 c -0.738,0 -1.34,0.602 -1.34,1.34 0,0.738 0.602,1.34 1.34,1.34 h 9.375 v 9.375 c 0,0.738 0.602,1.34 1.34,1.34 0.738,0 1.34,-0.602 1.34,-1.34 V 56.25 h 9.375 c 0.738,0 1.34,-0.602 1.34,-1.34 0,-0.738 -0.602,-1.34 -1.34,-1.34 H 56.25 Z" style="fill:currentColor;fill-opacity:1;fill-rule:nonzero;stroke:none" transform="scale(1.3333333)" /> </g>
</svg>

