<?xml version="1.0" encoding="UTF-8" standalone="no"?> <svg version="1.1" id="I740cb3485a514376ab04c87132b5248120251110135155" width="100" height="100" viewBox="0 0 100 100" xmlns="http://www.w3.org/2000/svg" xmlns:svg="http://www.w3.org/2000/svg"> <defs id="I87f8ea9e83514036982be04e701723e820251110135155" /> <g id="Iff66c3c0000741c7879de150f7562f9320251110135155"> <path id="Ia758670d3aae435eaa980ef497b02e3c20251110135155" d="m 28.125,50 h 26.563 c 1.726,0 3.124,1.398 3.124,3.125 0,1.602 -1.207,2.922 -2.761,3.105 l -0.363,0.02 H 28.125 C 26.398,56.25 25,54.852 25,53.125 25,51.523 26.207,50.203 27.762,50.02 L 28.125,50 H 54.688 Z M 7.164,29.039 c 1.129,-1.125 2.898,-1.211 4.125,-0.258 l 0.297,0.258 6.25,6.25 c 1.125,1.129 1.211,2.899 0.258,4.125 l -0.258,0.297 -6.25,6.25 c -1.223,1.219 -3.199,1.219 -4.422,0 C 6.039,44.832 5.953,43.062 6.906,41.836 L 7.164,41.539 11.207,37.5 7.164,33.461 c -1.219,-1.223 -1.219,-3.199 0,-4.422 z m 20.961,5.336 35.937,-0.004 c 1.727,0 3.126,1.399 3.126,3.125 0,1.602 -1.208,2.926 -2.762,3.106 l -0.364,0.019 -35.937,0.004 C 26.398,40.625 25,39.227 25,37.5 c 0,-1.602 1.207,-2.922 2.762,-3.105 l 0.363,-0.02 35.937,-0.004 z m 0,-15.625 h 26.563 c 1.726,0 3.124,1.398 3.124,3.125 0,1.602 -1.207,2.922 -2.761,3.105 L 54.688,25 H 28.125 C 26.398,25 25,23.602 25,21.875 c 0,-1.602 1.207,-2.922 2.762,-3.105 l 0.363,-0.02 h 26.563 z" style="fill:currentColor;fill-opacity:1;fill-rule:nonzero;stroke:none" transform="scale(1.3333333)" /> </g>
</svg>

