<?xml version="1.0" encoding="UTF-8" standalone="no"?> <svg version="1.1" id="Icdf977999e3d45ba820d13e0809841ef20251106123559" width="100" height="100" viewBox="0 0 100 100" xmlns="http://www.w3.org/2000/svg" xmlns:svg="http://www.w3.org/2000/svg"> <defs id="Ia80ce0199ff44d74aa4c50c953ff31c320251106123559" /> <g id="Ic14ae392d7284e2da69ce137d3e9b51920251106123559"> <path id="Ibf295f0d95f446d1b05917464faa308420251106123559" d="M 18.75,43.125 V 30.203 c 0.008,-0.066 0.012,-0.133 0.012,-0.203 0,-10.355 8.394,-18.75 18.75,-18.75 1.769,0 3.48,0.246 5.101,0.703 0.996,0.281 2.032,-0.301 2.313,-1.297 C 45.207,9.66 44.625,8.625 43.629,8.344 41.684,7.793 39.629,7.5 37.512,7.5 25.16,7.5 15.133,17.453 15.012,29.777 15.004,29.848 15,29.918 15,29.992 V 42.75 l -3.461,8.309 C 10.508,53.527 12.324,56.25 15,56.25 h 13.125 c 0,5.18 4.199,9.375 9.375,9.375 5.176,0 9.375,-4.195 9.375,-9.375 H 60 c 2.676,0 4.492,-2.723 3.461,-5.191 L 60,42.75 v -5.258 c 0,-1.035 -0.84,-1.875 -1.875,-1.875 -1.035,0 -1.875,0.84 -1.875,1.875 v 5.633 c 0,0.246 0.051,0.492 0.145,0.723 L 60,52.5 H 15 l 3.605,-8.652 c 0.098,-0.231 0.145,-0.477 0.145,-0.723 z M 31.875,56.25 h 11.25 c 0,3.105 -2.52,5.625 -5.625,5.625 -3.105,0 -5.625,-2.52 -5.625,-5.625 z M 52.5,7.5 h 13.125 c 1.406,0 2.277,1.473 1.695,2.68 L 67.16,10.449 56.102,26.25 h 9.523 c 1.035,0 1.875,0.84 1.875,1.875 0,0.922 -0.664,1.687 -1.539,1.844 L 65.625,30 H 52.5 c -1.41,0 -2.277,-1.473 -1.695,-2.676 L 50.965,27.051 62.023,11.25 H 52.5 c -1.035,0 -1.875,-0.84 -1.875,-1.875 0,-0.922 0.664,-1.687 1.539,-1.844 z m -16.871,15 h 9.375 c 1.484,0 2.34,1.617 1.617,2.824 l -0.176,0.25 -6.812,8.176 h 5.371 c 1.035,0 1.875,0.84 1.875,1.875 0,0.922 -0.664,1.687 -1.539,1.844 L 45.004,37.5 h -9.375 c -1.484,0 -2.34,-1.613 -1.621,-2.824 l 0.18,-0.25 L 41,26.25 h -5.371 c -1.035,0 -1.875,-0.84 -1.875,-1.875 0,-0.922 0.664,-1.687 1.539,-1.844 z" style="fill:currentColor;fill-opacity:1;fill-rule:nonzero;stroke:none" transform="scale(1.3333333)" /> </g>
</svg>

