<?xml version="1.0" encoding="UTF-8" standalone="no"?> <svg version="1.1" id="I936a80ac54794919879fddfd706ae38820251106151526" width="100" height="100" viewBox="0 0 100 100" xmlns="http://www.w3.org/2000/svg" xmlns:svg="http://www.w3.org/2000/svg"> <defs id="I284c4895a6aa4599a67349fd77f1707820251106151526" /> <g id="Ic460d9983a9e49f5860faa0e2eeb17f520251106151526"> <path id="I010a4753584744d3abaaa5661f0e3c1c20251106151526" d="m 32.031,6.25 h 10.938 c 3.617,0 6.597,2.734 6.988,6.25 h 5.512 c 3.883,0 7.031,3.148 7.031,7.031 v 23.317 c -0.051,-2.321 -1.582,-4.438 -3.926,-5.125 -2.898,-0.852 -5.937,0.804 -6.789,3.703 l -1.601,5.449 H 47.91 c -0.305,-0.645 -0.742,-1.238 -1.308,-1.742 -2.258,-2.008 -5.715,-1.805 -7.719,0.453 l -6.25,7.031 c -1.844,2.071 -1.844,5.195 0,7.266 l 6.25,7.031 c 1.07,1.207 2.555,1.824 4.051,1.836 H 19.531 C 15.648,68.75 12.5,65.602 12.5,61.719 V 19.531 c 0,-3.883 3.148,-7.031 7.031,-7.031 h 5.512 c 0.391,-3.516 3.371,-6.25 6.988,-6.25 z m 10.938,4.688 H 32.031 c -1.293,0 -2.343,1.05 -2.343,2.343 0,1.293 1.05,2.344 2.343,2.344 h 10.938 c 1.293,0 2.343,-1.051 2.343,-2.344 0,-1.293 -1.05,-2.343 -2.343,-2.343 z m -8,46.871 6.25,7.031 c 0.461,0.519 1.105,0.785 1.75,0.785 0.554,0 1.109,-0.195 1.558,-0.594 0.965,-0.859 1.055,-2.34 0.192,-3.308 l -4.864,-5.473 4.864,-5.473 c 0.863,-0.968 0.773,-2.449 -0.192,-3.308 -0.945,-0.84 -2.375,-0.778 -3.246,0.121 -0.011,0.015 -0.027,0.031 -0.043,0.047 -0.008,0.008 -0.015,0.015 -0.019,0.023 l -6.25,7.031 c -0.789,0.891 -0.789,2.227 0,3.118 z m 19.812,-15.5 c 0.367,-1.243 1.668,-1.954 2.91,-1.59 0.133,0.039 0.258,0.09 0.375,0.148 0.344,0.168 0.633,0.414 0.852,0.711 0.293,0.399 0.457,0.883 0.457,1.391 0,0.219 -0.031,0.441 -0.094,0.66 l -7.812,26.562 c -0.367,1.243 -1.668,1.954 -2.91,1.59 -1.243,-0.367 -1.954,-1.668 -1.59,-2.91 z m 6.942,22.722 c -0.965,-0.859 -1.055,-2.34 -0.192,-3.308 l 4.864,-5.473 -4.864,-5.473 c -0.863,-0.968 -0.773,-2.449 0.192,-3.308 0.968,-0.864 2.449,-0.774 3.308,0.191 l 6.25,7.031 c 0.789,0.891 0.789,2.227 0,3.118 l -6.25,7.031 c -0.859,0.965 -2.34,1.055 -3.308,0.191 z" style="fill:currentColor;fill-opacity:1;fill-rule:nonzero;stroke:none" transform="scale(1.3333333)" /> </g>
</svg>

