<?xml version="1.0" encoding="UTF-8" standalone="no"?> <svg version="1.1" id="Ic58fb236d04c4b0586892e1fbc95c8f020251106171633" width="100" height="100" viewBox="0 0 100 100" xmlns="http://www.w3.org/2000/svg" xmlns:svg="http://www.w3.org/2000/svg"> <defs id="I06b1a0152e2e4cd1bf67d88d9620aecb20251106171633" /> <g id="Iaeaa9b6b1d4e49db8817b0d64edaf3c520251106171633"> <path id="Ic05a165addb149bca48b21a4b4c3cd1320251106171633" d="m 20.625,18.75 c -1.035,0 -1.875,0.84 -1.875,1.875 v 7.5 c 0,1.035 0.84,1.875 1.875,1.875 h 26.25 c 1.035,0 1.875,-0.84 1.875,-1.875 v -7.5 c 0,-1.035 -0.84,-1.875 -1.875,-1.875 z m 1.875,7.5 V 22.5 H 45 v 3.75 z M 11.25,15 c 0,-4.141 3.359,-7.5 7.5,-7.5 h 30 c 4.141,0 7.5,3.359 7.5,7.5 v 45 c 0,4.141 -3.359,7.5 -7.5,7.5 H 37.047 c 1.043,-1.188 1.906,-2.434 2.574,-3.68 l 0.039,-0.07 h 9.09 c 2.07,0 3.75,-1.68 3.75,-3.75 V 15 c 0,-2.07 -1.68,-3.75 -3.75,-3.75 h -30 C 16.68,11.25 15,12.93 15,15 v 26.988 c -1.328,0.36 -2.582,0.832 -3.75,1.399 z M 60,22.5 h 1.875 c 1.035,0 1.875,0.84 1.875,1.875 V 30 c 0,1.035 -0.84,1.875 -1.875,1.875 H 60 Z m 1.875,13.125 H 60 V 45 h 1.875 c 1.035,0 1.875,-0.84 1.875,-1.875 V 37.5 c 0,-1.035 -0.84,-1.875 -1.875,-1.875 z M 60,48.75 h 1.875 c 1.035,0 1.875,0.84 1.875,1.875 v 5.625 c 0,1.035 -0.84,1.875 -1.875,1.875 H 60 Z M 3.75,58.125 C 3.75,53.691 10.262,45 20.625,45 30.98,45 37.5,53.625 37.5,58.125 37.5,62.559 30.98,71.25 20.625,71.25 10.27,71.25 3.75,62.625 3.75,58.125 Z m 11.668,7.797 c 1.539,1.027 3.352,1.578 5.207,1.578 2.488,0 4.871,-0.988 6.629,-2.746 C 29.012,62.996 30,60.609 30,58.125 30,56.27 29.449,54.457 28.422,52.918 27.391,51.375 25.926,50.172 24.211,49.465 22.5,48.754 20.613,48.57 18.797,48.93 c -1.82,0.363 -3.488,1.254 -4.801,2.566 -1.312,1.313 -2.203,2.981 -2.566,4.801 -0.36,1.816 -0.176,3.703 0.535,5.414 0.707,1.715 1.91,3.18 3.453,4.211 z m 9.883,-4.672 c 0.621,-0.926 0.949,-2.012 0.949,-3.125 0,-1.492 -0.594,-2.922 -1.648,-3.977 -1.055,-1.054 -2.485,-1.648 -3.977,-1.648 -1.113,0 -2.199,0.328 -3.125,0.949 -0.926,0.617 -1.645,1.496 -2.07,2.524 -0.426,1.027 -0.539,2.16 -0.321,3.25 0.215,1.089 0.75,2.093 1.539,2.879 0.786,0.789 1.79,1.324 2.879,1.539 1.09,0.218 2.223,0.105 3.25,-0.321 1.028,-0.425 1.907,-1.144 2.524,-2.07 z" style="fill:currentColor;fill-opacity:1;fill-rule:nonzero;stroke:none" transform="scale(1.3333333)" /> </g>
</svg>

