<?xml version="1.0" encoding="UTF-8" standalone="no"?> <svg version="1.1" id="I55169926aade4926914157161b0f417220251106154012" width="100" height="100" viewBox="0 0 100 100" xmlns="http://www.w3.org/2000/svg" xmlns:svg="http://www.w3.org/2000/svg"> <defs id="I3b171cdf02164f6ca0158e6c15a3928520251106154012" /> <g id="I8f5995643553462299317b10567d36a220251106154012"> <path id="I614cef849e324e58941e9d8373cc802320251106154012" d="m 30.805,16.07 h 13.39 c 0,-3.695 -2.996,-6.695 -6.695,-6.695 -3.699,0 -6.695,3 -6.695,6.695 z m -4.02,0 c 0,-5.918 4.797,-10.715 10.715,-10.715 5.918,0 10.715,4.797 10.715,10.715 h 16.742 c 1.109,0 2.008,0.903 2.008,2.012 0,1.109 -0.899,2.008 -2.008,2.008 H 61.445 L 58.188,59.203 C 57.695,65.105 52.762,69.645 46.844,69.645 H 28.156 c -5.918,0 -10.851,-4.54 -11.344,-10.442 L 13.555,20.09 h -3.512 c -1.109,0 -2.008,-0.899 -2.008,-2.008 0,-1.109 0.899,-2.012 2.008,-2.012 z m 6.695,15.403 c 0,-1.11 -0.898,-2.008 -2.007,-2.008 -1.11,0 -2.008,0.898 -2.008,2.008 v 22.769 c 0,1.11 0.898,2.008 2.008,2.008 1.109,0 2.007,-0.898 2.007,-2.008 z m 10.047,-2.008 c -1.109,0 -2.007,0.898 -2.007,2.008 v 22.769 c 0,1.11 0.898,2.008 2.007,2.008 1.11,0 2.008,-0.898 2.008,-2.008 V 31.473 c 0,-1.11 -0.898,-2.008 -2.008,-2.008 z" style="fill:currentColor;fill-opacity:1;fill-rule:nonzero;stroke:none" transform="scale(1.3333333)" /> </g>
</svg>

