<?xml version="1.0" encoding="UTF-8" standalone="no"?> <svg version="1.1" id="Ibe276845f7a245f0abd4520afd8f269520251106142135" width="100" height="100" viewBox="0 0 100 100" xmlns="http://www.w3.org/2000/svg" xmlns:svg="http://www.w3.org/2000/svg"> <defs id="I45b9e97edee44374acc6cfce35091fc720251106142135" /> <g id="Iff26cf795124491ea86bdf2141b9f17120251106142135"> <path id="Iaa461c81c661473ba79f4a309791523320251106142135" d="m 18.75,9.375 c -5.176,0 -9.375,4.199 -9.375,9.375 v 14.062 c 0,1.293 -1.051,2.344 -2.344,2.344 -1.293,0 -2.343,1.051 -2.343,2.344 0,1.293 1.05,2.344 2.343,2.344 1.293,0 2.344,1.051 2.344,2.344 V 56.25 c 0,5.18 4.199,9.375 9.375,9.375 1.293,0 2.344,-1.051 2.344,-2.344 0,-1.293 -1.051,-2.343 -2.344,-2.343 -2.59,0 -4.688,-2.098 -4.688,-4.688 V 42.188 c 0,-1.801 -0.675,-3.446 -1.789,-4.688 1.114,-1.242 1.789,-2.887 1.789,-4.688 V 18.75 c 0,-2.59 2.098,-4.688 4.688,-4.688 1.293,0 2.344,-1.05 2.344,-2.343 0,-1.293 -1.051,-2.344 -2.344,-2.344 z m 37.5,0 c 5.18,0 9.375,4.199 9.375,9.375 v 14.062 c 0,1.293 1.051,2.344 2.344,2.344 1.293,0 2.343,1.051 2.343,2.344 0,1.293 -1.05,2.344 -2.343,2.344 -1.293,0 -2.344,1.051 -2.344,2.344 V 56.25 c 0,5.18 -4.195,9.375 -9.375,9.375 -1.293,0 -2.344,-1.051 -2.344,-2.344 0,-1.293 1.051,-2.343 2.344,-2.343 2.59,0 4.688,-2.098 4.688,-4.688 V 42.188 c 0,-1.801 0.675,-3.446 1.789,-4.688 -1.114,-1.242 -1.789,-2.887 -1.789,-4.688 V 18.75 c 0,-2.59 -2.098,-4.688 -4.688,-4.688 -1.293,0 -2.344,-1.05 -2.344,-2.343 0,-1.293 1.051,-2.344 2.344,-2.344 z M 37.5,56.25 c 10.355,0 18.75,-8.395 18.75,-18.75 0,-10.355 -8.395,-18.75 -18.75,-18.75 -10.355,0 -18.75,8.395 -18.75,18.75 0,10.355 8.395,18.75 18.75,18.75 z m 5.375,-25.094 c 0.914,-0.918 2.398,-0.918 3.313,0 0.917,0.914 0.917,2.399 0,3.313 l -9.376,9.375 c -0.437,0.441 -1.035,0.687 -1.656,0.687 -0.621,0 -1.218,-0.246 -1.656,-0.687 l -4.688,-4.688 c -0.917,-0.914 -0.917,-2.398 0,-3.312 0.915,-0.918 2.399,-0.918 3.313,0 l 3.031,3.027 z" style="fill:currentColor;fill-opacity:1;fill-rule:nonzero;stroke:none" transform="scale(1.3333333)" /> </g>
</svg>

