<?xml version="1.0" encoding="UTF-8" standalone="no"?> <svg version="1.1" id="I66c662530e654a8289df5695d105ba1b20251110124421" width="100" height="100" viewBox="0 0 100 100" xmlns="http://www.w3.org/2000/svg" xmlns:svg="http://www.w3.org/2000/svg"> <defs id="I16625a670eae436bb97e1f9164e6468920251110124421" /> <g id="Ie4d53c6ab7fc4e838d7d6dfd7340661d20251110124421"> <path id="Ieb570269393c4718ab160d1f1cbc5c8220251110124421" d="m 20.312,37.5 c 9.493,0 17.188,7.695 17.188,17.188 0,9.492 -7.695,17.187 -17.188,17.187 C 10.82,71.875 3.125,64.18 3.125,54.688 3.125,45.195 10.82,37.5 20.312,37.5 Z m 0,24.625 c -1.078,0 -1.953,0.875 -1.953,1.953 0,1.078 0.875,1.949 1.953,1.949 1.079,0 1.954,-0.871 1.954,-1.949 0,-1.078 -0.875,-1.953 -1.954,-1.953 z M 55.469,9.375 c 5.609,0 10.156,4.547 10.156,10.156 v 35.938 c 0,5.609 -4.547,10.156 -10.156,10.156 L 37.43,65.629 c 2.023,-3.156 3.195,-6.914 3.195,-10.941 0,-4.735 -1.621,-9.094 -4.34,-12.54 l 0.215,0.028 0.219,0.012 h 14.058 l 0.317,-0.02 c 1.144,-0.156 2.027,-1.137 2.027,-2.324 0,-1.188 -0.883,-2.168 -2.027,-2.324 L 50.777,37.5 H 39.062 V 21.094 l -0.019,-0.317 c -0.156,-1.144 -1.137,-2.027 -2.324,-2.027 -1.188,0 -2.168,0.883 -2.324,2.027 l -0.02,0.317 v 18.75 l 0.016,0.199 c -3.653,-3.508 -8.614,-5.668 -14.079,-5.668 -4.027,0 -7.785,1.172 -10.941,3.195 L 9.375,19.531 c 0,-5.609 4.547,-10.156 10.156,-10.156 z M 20.312,43.758 c -3.273,0 -5.824,2.554 -5.792,6.109 0.007,0.863 0.714,1.555 1.578,1.547 0.863,-0.008 1.554,-0.715 1.547,-1.578 -0.016,-1.809 1.125,-2.953 2.667,-2.953 1.477,0 2.668,1.226 2.668,2.969 0,0.703 -0.234,1.222 -0.996,2.117 l -0.308,0.355 -0.828,0.906 c -1.516,1.692 -2.098,2.786 -2.098,4.582 0,0.864 0.699,1.563 1.562,1.563 0.864,0 1.563,-0.699 1.563,-1.563 0,-0.722 0.238,-1.257 1.012,-2.167 l 0.316,-0.36 0.828,-0.91 c 1.496,-1.668 2.074,-2.754 2.074,-4.523 0,-3.45 -2.57,-6.094 -5.793,-6.094 z" style="fill:currentColor;fill-opacity:1;fill-rule:nonzero;stroke:none" transform="scale(1.3333333)" /> </g>
</svg>

