<?xml version="1.0" encoding="UTF-8" standalone="no"?> <svg version="1.1" id="I03fdee57033e47ca97530220f6ad633120251106105802" width="100" height="100" viewBox="0 0 100 100" xmlns="http://www.w3.org/2000/svg" xmlns:svg="http://www.w3.org/2000/svg"> <defs id="Ieae52b805a2b40e38f040af68025a0f520251106105802" /> <g id="I8de6eee2d69a49b8adefadad88cfa88a20251106105802"> <path id="Ib604f41150254c99b66ce53978cdae0920251106105802" d="m 66.293,4.02 h -6.695 c -0.368,0 -0.668,0.3 -0.668,0.668 v 65.624 c 0,0.368 0.3,0.668 0.668,0.668 h 6.695 c 0.371,0 0.672,-0.3 0.672,-0.668 V 4.688 C 66.965,4.32 66.664,4.02 66.293,4.02 Z m -16.738,0 h -38.84 c -1.481,0 -2.68,1.246 -2.68,2.785 v 61.383 c 0,1.539 1.199,2.785 2.68,2.785 h 38.84 c 1.48,0 2.675,-1.246 2.675,-2.785 V 6.805 C 52.23,5.266 51.035,4.02 49.555,4.02 Z M 27.457,64.957 H 14.062 V 50.223 h 13.395 z m 0,-20.09 H 14.062 V 30.133 h 13.395 z m 0,-20.09 H 14.062 V 10.043 h 13.395 z m 18.75,40.18 H 32.812 V 50.223 h 13.395 z m 0,-20.09 H 32.812 V 30.133 h 13.395 z m 0,-20.09 H 32.812 V 10.043 h 13.395 z" style="fill:currentColor;fill-opacity:1;fill-rule:nonzero;stroke:none" transform="scale(1.3333333)" /> </g>
</svg>

