<?xml version="1.0" encoding="UTF-8" standalone="no"?> <svg version="1.1" id="Iccccca6a921d4d56bb4a96584881958320251106152728" width="100" height="100" viewBox="0 0 100 100" xmlns="http://www.w3.org/2000/svg" xmlns:svg="http://www.w3.org/2000/svg"> <defs id="Id1682a4a731d45819b0ca558f30e083c20251106152728" /> <g id="I9a7b2aea131c470e96a6faabe9ab8c9b20251106152728"> <path id="Idfb36e87c4534ca99f2ab6906c5fe08f20251106152728" d="M 54.688,37.5 C 45.195,37.5 37.5,29.805 37.5,20.312 37.5,10.82 45.195,3.125 54.688,3.125 c 9.492,0 17.187,7.695 17.187,17.187 0,9.493 -7.695,17.188 -17.187,17.188 z m 9.374,-15.625 c 0.864,0 1.563,-0.699 1.563,-1.563 0,-0.863 -0.699,-1.562 -1.563,-1.562 H 49.086 l 5.144,-5.145 c 0.61,-0.609 0.61,-1.601 0,-2.21 -0.609,-0.61 -1.601,-0.61 -2.21,0 l -7.813,7.812 c -0.609,0.609 -0.609,1.602 0,2.211 l 7.813,7.812 c 0.609,0.61 1.601,0.61 2.21,0 0.61,-0.609 0.61,-1.601 0,-2.21 l -5.144,-5.145 z m -9.374,18.75 c 5.457,0 10.414,-2.152 14.062,-5.656 v 11.125 c 0,5.609 -4.547,10.156 -10.156,10.156 H 40.625 L 25,67.969 c -2.574,1.929 -6.25,0.093 -6.25,-3.125 V 56.25 H 16.406 C 10.797,56.25 6.25,51.703 6.25,46.094 V 19.531 c 0,-5.609 4.547,-10.156 10.156,-10.156 h 21.16 c -2.019,3.156 -3.191,6.91 -3.191,10.937 0,11.219 9.094,20.313 20.313,20.313 z" style="fill:currentColor;fill-opacity:1;fill-rule:nonzero;stroke:none" transform="scale(1.3333333)" /> </g>
</svg>

