<?xml version="1.0" encoding="UTF-8" standalone="no"?> <svg version="1.1" id="I3abf37c4e4a243689b9b3f00267b7a7320251110133655" width="100" height="100" viewBox="0 0 100 100" xmlns="http://www.w3.org/2000/svg" xmlns:svg="http://www.w3.org/2000/svg"> <defs id="Ic1ac708659ec4405aa142c0e63910e9a20251110133655" /> <g id="I3683ec5e03ee4431b260bbe9159731fb20251110133655"> <path id="I0f5505871e7d431790d927675db87c6720251110133655" d="m 12.5,17.969 c 0,-4.746 3.848,-8.594 8.594,-8.594 h 20.312 c 4.746,0 8.594,3.848 8.594,8.594 v 1.691 l 6.223,-4.758 c 2.57,-1.964 6.277,-0.132 6.277,3.102 v 20.242 c 0,3.234 -3.707,5.066 -6.277,3.102 L 50,36.59 v 1.691 c 0,4.746 -3.848,8.594 -8.594,8.594 H 21.094 c -4.746,0 -8.594,-3.848 -8.594,-8.594 z m 8.594,-3.907 c -2.156,0 -3.906,1.75 -3.906,3.907 v 20.312 c 0,2.157 1.75,3.907 3.906,3.907 h 20.312 c 2.156,0 3.906,-1.75 3.906,-3.907 V 17.969 c 0,-2.157 -1.75,-3.907 -3.906,-3.907 z M 50,30.691 57.812,36.664 V 19.586 L 50,25.559 Z m 7.387,19.739 c -2.973,-0.723 -6.66,-1.289 -10.809,-1.629 1.93,-0.953 3.559,-2.418 4.711,-4.219 2.649,0.34 5.078,0.777 7.203,1.293 2.715,0.66 5.074,1.48 6.813,2.48 1.562,0.899 3.445,2.426 3.445,4.77 0,1.469 -0.766,2.621 -1.617,3.434 -0.844,0.808 -1.961,1.468 -3.176,2.019 -2.445,1.11 -5.793,2 -9.664,2.649 -1.277,0.214 -2.484,-0.649 -2.699,-1.922 -0.215,-1.278 0.644,-2.489 1.922,-2.7 3.683,-0.621 6.586,-1.425 8.504,-2.296 0.964,-0.438 1.558,-0.836 1.875,-1.137 l 0.046,-0.047 C 63.797,52.977 63.512,52.734 62.965,52.422 61.777,51.738 59.906,51.043 57.387,50.43 Z m 6.703,2.515 c 0.004,-0.007 0.008,-0.011 0.008,-0.011 z M 9.695,48.355 c 0.965,-0.55 2.117,-1.05 3.41,-1.496 1.817,1.688 4.168,2.809 6.77,3.079 -0.793,0.156 -1.547,0.32 -2.262,0.492 -2.519,0.613 -4.39,1.308 -5.578,1.992 -0.551,0.312 -0.836,0.555 -0.98,0.703 0.144,0.148 0.429,0.391 0.98,0.707 1.188,0.68 3.059,1.375 5.578,1.988 4.965,1.207 11.926,1.981 19.703,1.992 l -2.246,-2.25 c -0.914,-0.917 -0.914,-2.398 0,-3.316 0.918,-0.914 2.403,-0.91 3.317,0.004 l 6.242,6.25 c 0.914,0.914 0.91,2.398 -0.004,3.312 l -6.238,6.243 c -0.918,0.914 -2.403,0.914 -3.317,0 -0.914,-0.914 -0.914,-2.399 0,-3.317 L 37.312,62.5 C 29.273,62.488 21.922,61.691 16.508,60.375 13.793,59.715 11.434,58.895 9.695,57.895 8.133,56.996 6.25,55.469 6.25,53.125 c 0,-2.344 1.883,-3.871 3.445,-4.77 z" style="fill:currentColor;fill-opacity:1;fill-rule:nonzero;stroke:none" transform="scale(1.3333333)" /> </g>
</svg>

