<?xml version="1.0" encoding="UTF-8" standalone="no"?> <svg version="1.1" id="I879a11f3b92e46f286abb4926f8fd24d20251106143238" width="100" height="100" viewBox="0 0 100 100" xmlns="http://www.w3.org/2000/svg" xmlns:svg="http://www.w3.org/2000/svg"> <defs id="I9e8638e92bb74ade9bfc01d8f6186c6d20251106143238" /> <g id="I3354fc3e51084c52ba8f8db8cca1762f20251106143238"> <path id="Ifbda52c590974189ac447fded9f528a720251106143238" d="m 58.258,8.035 c 4.808,0 8.707,3.899 8.707,8.707 v 41.516 c 0,4.808 -3.899,8.707 -8.707,8.707 H 16.742 c -4.808,0 -8.707,-3.899 -8.707,-8.707 V 16.742 c 0,-4.808 3.899,-8.707 8.707,-8.707 z M 37.5,22.098 c -1.016,0 -1.859,0.757 -1.992,1.738 l -0.016,0.269 v 26.79 l 0.016,0.269 c 0.133,0.981 0.976,1.738 1.992,1.738 1.016,0 1.859,-0.757 1.992,-1.738 l 0.016,-0.269 V 24.105 L 39.492,23.836 C 39.359,22.855 38.516,22.098 37.5,22.098 Z m 14.062,0 c -1.015,0 -1.859,0.757 -1.992,1.738 l -0.015,0.269 v 26.79 l 0.015,0.269 c 0.133,0.981 0.977,1.738 1.992,1.738 1.016,0 1.86,-0.757 1.993,-1.738 l 0.015,-0.269 v -26.79 l -0.015,-0.269 c -0.133,-0.981 -0.977,-1.738 -1.993,-1.738 z m -28.124,0 c -1.016,0 -1.86,0.757 -1.993,1.738 l -0.015,0.269 v 26.79 l 0.015,0.269 c 0.133,0.981 0.977,1.738 1.993,1.738 1.015,0 1.859,-0.757 1.992,-1.738 l 0.015,-0.269 V 24.105 L 25.43,23.836 c -0.133,-0.981 -0.977,-1.738 -1.992,-1.738 z" style="fill:currentColor;fill-opacity:1;fill-rule:nonzero;stroke:none" transform="scale(1.3333333)" /> </g>
</svg>

