<?xml version="1.0" encoding="UTF-8" standalone="no"?> <svg version="1.1" id="I5a3fa39f46854f9682190e90ba11b3a020251106170956" width="100" height="100" viewBox="0 0 100 100" xmlns="http://www.w3.org/2000/svg" xmlns:svg="http://www.w3.org/2000/svg"> <defs id="I59a78f9e1a2e48b99fce0995f74bccbf20251106170956"> <linearGradient x1="10.9286" y1="0.75820899" x2="18.321899" y2="12.3803" gradientUnits="userSpaceOnUse" gradientTransform="scale(2.678571)" spreadMethod="pad" id="I7c9aebade4a14e25a783eae39afb794920251106170956"> <stop style="stop-opacity:1;stop-color:#ffc205" offset="0" id="I312911d8437445bfa96fa4f4120e468420251106170956" /> <stop style="stop-opacity:1;stop-color:#fb5937" offset="1" id="I7f4867b931474e85ad55cc65bceb03bc20251106170956" /> </linearGradient> <linearGradient x1="24.3571" y1="26.0625" x2="6.6600099" y2="9.9454002" gradientUnits="userSpaceOnUse" gradientTransform="scale(2.678571)" spreadMethod="pad" id="I4b2b542c7bbf4c5fba19ffcd2c22c87e20251106170956"> <stop style="stop-opacity:1;stop-color:#ff6f47" offset="0" id="I9a999e8c137446128717da7b7e62f1e620251106170956" /> <stop style="stop-opacity:1;stop-color:#ffcd0f" offset="1" id="I49475861efdb47019ccd7c6f7447524b20251106170956" /> </linearGradient> <radialGradient fx="0" fy="0" cx="0" cy="0" r="1" gradientUnits="userSpaceOnUse" gradientTransform="matrix(-4.017758,-14.062522,19.511746,-5.574639,38.169643,48.214286)" spreadMethod="pad" id="If044c62db7f745e3917b97771a3be59120251106170956"> <stop style="stop-opacity:1;stop-color:#944600" offset="0" id="I49a8ed85c1064ae79d4af8e39caffcbf20251106170956" /> <stop style="stop-opacity:1;stop-color:#cd8e02" offset="1" id="If913f956bfc54a91b55bca6af6d8cf2620251106170956" /> </radialGradient> </defs> <g id="I02c7b0a7316b4b3fb09aa0662860753420251106170956"> <path id="Ib14ee05405654aa3aad5d42fe1bfc18b20251106170956" d="m 36.16,5.355 c -6.656,0 -12.055,5.399 -12.055,12.055 v 5.36 h 4.02 v -5.36 c 0,-4.437 3.598,-8.035 8.035,-8.035 4.438,0 8.035,3.598 8.035,8.035 v 5.36 h 4.02 V 17.41 C 48.215,10.754 42.816,5.355 36.16,5.355 Z" transform="scale(1.3333333)" style="fill:url(#I7c9aebade4a14e25a783eae39afb794920251106170956);stroke:none" /> <path id="I0fabd323750b431dab56f2a0164257a320251106170956" d="M 61.605,31.473 C 61.605,25.926 57.109,21.43 51.562,21.43 H 20.758 c -5.547,0 -10.043,4.496 -10.043,10.043 v 25.445 c 0,5.551 4.496,10.047 10.043,10.047 h 30.804 c 5.547,0 10.043,-4.496 10.043,-10.047 z" transform="scale(1.3333333)" style="fill:url(#I4b2b542c7bbf4c5fba19ffcd2c22c87e20251106170956);stroke:none" /> <path id="I0a3c1799135541ccba799eab29591e8020251106170956" d="m 36.16,48.215 c 2.219,0 4.02,-1.801 4.02,-4.02 0,-2.218 -1.801,-4.015 -4.02,-4.015 -2.219,0 -4.015,1.797 -4.015,4.015 0,2.219 1.796,4.02 4.015,4.02 z" transform="scale(1.3333333)" style="fill:url(#If044c62db7f745e3917b97771a3be59120251106170956);stroke:none" /> </g>
</svg>

