<?xml version="1.0" encoding="UTF-8" standalone="no"?> <svg version="1.1" id="I95f08dc75bc147a9b2db42c3e75554db20251110135155" width="100" height="100" viewBox="0 0 100 100" xmlns="http://www.w3.org/2000/svg" xmlns:svg="http://www.w3.org/2000/svg"> <defs id="I0fef9fc04a4b46fd88a19b5fb6f8b5b820251110135155" /> <g id="Id439d67825854427876a6ccc0b2a83ee20251110135155"> <path id="I83190dfaa548452e9b9d716fd429b22120251110135155" d="m 8.629,43.754 c -0.688,0 -1.258,-0.188 -1.719,-0.563 -0.441,-0.39 -0.66,-0.875 -0.66,-1.453 0,-0.34 0.098,-0.765 0.289,-1.273 L 18.809,8.473 c 0.562,-1.481 1.601,-2.219 3.121,-2.219 1.425,0 2.422,0.73 2.984,2.191 l 12.297,32.02 c 0.191,0.508 0.289,0.933 0.289,1.273 0,0.578 -0.23,1.063 -0.688,1.453 -0.441,0.375 -1.003,0.563 -1.691,0.563 -1.129,0 -1.902,-0.586 -2.328,-1.762 L 29.41,32.867 H 14.312 l -3.355,9.125 c -0.426,1.176 -1.199,1.762 -2.328,1.762 z M 15.688,28.969 H 28.062 L 21.953,12.191 H 21.797 Z M 39.969,46.031 57.098,63.16 70.09,50.168 c 2.379,-2.379 2.383,-6.242 0.004,-8.621 l -8.512,-8.512 c -0.441,-0.437 -0.93,-0.797 -1.449,-1.074 -2.305,-1.223 -5.231,-0.863 -7.172,1.082 z M 46.09,35.492 40.625,40.957 V 8.609 c 0,-0.691 0.203,-1.257 0.609,-1.695 0.422,-0.441 0.954,-0.66 1.598,-0.66 0.641,0 1.164,0.219 1.57,0.66 0.422,0.438 0.633,1.004 0.633,1.695 V 21.34 h 0.102 c 0.847,-1.524 2.004,-2.715 3.476,-3.574 1.485,-0.864 3.153,-1.293 4.992,-1.293 3.333,0 6.02,1.242 8.063,3.726 2.047,2.485 3.07,5.789 3.07,9.914 0,0.551 -0.019,1.086 -0.054,1.606 L 63.789,30.828 C 62.734,29.77 61.488,29.027 60.16,28.59 59.965,26.305 59.309,24.438 58.195,22.988 56.844,21.23 55,20.352 52.668,20.352 c -2.246,0 -4.09,0.902 -5.527,2.71 -1.418,1.793 -2.129,4.141 -2.129,7.051 0,2.078 0.359,3.871 1.078,5.379 z m 7.695,30.981 -17.129,-17.129 -3.617,3.617 c -2.383,2.383 -2.383,6.242 -0.004,8.621 l 8.512,8.512 c 1.055,1.054 2.398,1.64 3.773,1.761 l -0.008,0.024 h 17.196 c 1.293,0 2.344,-1.051 2.344,-2.344 0,-1.297 -1.051,-2.344 -2.344,-2.344 h -9.442 z" style="fill:currentColor;fill-opacity:1;fill-rule:nonzero;stroke:none" transform="scale(1.3333333)" /> </g>
</svg>

