<?xml version="1.0" encoding="UTF-8" standalone="no"?> <svg version="1.1" id="I537a61ca36fe4ef49e6607aec5ef20eb20251106105458" width="100" height="100" viewBox="0 0 100 100" xmlns="http://www.w3.org/2000/svg" xmlns:svg="http://www.w3.org/2000/svg"> <defs id="I14c91da1ffe2483da7e53de63128bde220251106105458" /> <g id="I6b2f3efe288d4597b4a8a5bbe314bbd420251106105458"> <path id="If4eeff814030424fb171ddfd84bf4a6620251106105458" d="m 58.793,56.945 c 3.66,0 6.648,-3.031 6.648,-6.738 0,-4.48 -6.648,-11.785 -6.648,-11.785 0,0 -6.645,7.305 -6.645,11.785 0,3.707 2.989,6.738 6.645,6.738 z M 27.23,53.254 c 0.594,0.594 1.555,0.594 2.141,0 l 21.438,-21.43 c 0.593,-0.594 0.593,-1.554 0,-2.14 L 29.379,8.254 C 29.332,8.203 29.273,8.152 29.215,8.109 L 22.668,1.566 c -0.297,-0.293 -0.773,-0.293 -1.07,0 l -4.02,4.016 c -0.293,0.297 -0.293,0.777 0,1.074 l 5.625,5.625 -17.394,17.403 c -0.594,0.593 -0.594,1.554 0,2.14 z M 28.309,15.703 43.285,30.68 H 13.344 Z M 70.312,62.945 H 4.688 c -0.368,0 -0.668,0.301 -0.668,0.672 v 6.695 c 0,0.368 0.3,0.668 0.668,0.668 h 65.624 c 0.368,0 0.668,-0.3 0.668,-0.668 v -6.695 c 0,-0.371 -0.3,-0.672 -0.668,-0.672 z" style="fill:currentColor;fill-opacity:1;fill-rule:nonzero;stroke:none" transform="scale(1.3333333)" /> </g>
</svg>

