<?xml version="1.0" encoding="UTF-8" standalone="no"?> <svg version="1.1" id="I6cb3c78d79f444c48c75b3d238b9b54820251106132945" width="100" height="100" viewBox="0 0 100 100" xmlns="http://www.w3.org/2000/svg" xmlns:svg="http://www.w3.org/2000/svg"> <defs id="I1c83c43c21f344d3aecb65aca992a0e820251106132945" /> <g id="I5990b54d759345a18b691cb5a57c601d20251106132945"> <path id="I5cf59b8d5b4f4813b501f299bd2b3f6b20251106132945" d="m 15.168,25.457 c 0.262,0.262 0.508,0.539 0.734,0.832 0.614,0.793 1.09,1.691 1.407,2.649 l 1.398,4.304 c 0.117,0.332 0.336,0.617 0.625,0.82 0.285,0.204 0.629,0.313 0.98,0.313 0.352,0 0.696,-0.109 0.981,-0.313 0.258,-0.179 0.457,-0.429 0.582,-0.714 0.016,-0.036 0.027,-0.071 0.043,-0.106 l 1.398,-4.304 c 0.434,-1.309 1.168,-2.497 2.145,-3.469 0.977,-0.977 2.164,-1.711 3.473,-2.145 l 4.304,-1.398 c 0.332,-0.117 0.621,-0.332 0.824,-0.621 0.204,-0.285 0.313,-0.629 0.313,-0.981 0,-0.351 -0.109,-0.695 -0.313,-0.984 -0.203,-0.285 -0.492,-0.504 -0.824,-0.621 l -0.086,-0.02 -4.304,-1.398 C 27.539,16.867 26.352,16.133 25.375,15.156 24.398,14.184 23.664,12.996 23.23,11.688 L 21.832,7.383 C 21.715,7.051 21.496,6.766 21.207,6.562 20.922,6.359 20.578,6.25 20.227,6.25 c -0.352,0 -0.696,0.109 -0.985,0.312 -0.285,0.204 -0.504,0.489 -0.621,0.821 l -1.398,4.305 -0.035,0.105 c -0.43,1.258 -1.137,2.402 -2.071,3.348 -0.961,0.976 -2.133,1.714 -3.426,2.16 L 7.387,18.699 C 7.055,18.816 6.766,19.031 6.562,19.32 6.359,19.605 6.25,19.949 6.25,20.301 c 0,0.351 0.109,0.695 0.312,0.984 0.204,0.285 0.493,0.504 0.825,0.621 l 4.304,1.395 c 1.309,0.437 2.5,1.176 3.477,2.156 z M 62.5,21.875 c 1.727,0 3.125,1.398 3.125,3.125 v 15.625 c 0,1.727 -1.398,3.125 -3.125,3.125 -1.727,0 -3.125,-1.398 -3.125,-3.125 V 32.543 L 41.273,50.648 c -0.585,0.586 -1.382,0.914 -2.211,0.914 -0.828,0 -1.624,-0.328 -2.21,-0.914 L 31.25,45.043 14.711,61.586 c -1.223,1.219 -3.199,1.219 -4.422,0 -1.219,-1.223 -1.219,-3.199 0,-4.422 l 18.75,-18.75 c 0.586,-0.586 1.383,-0.914 2.211,-0.914 0.828,0 1.625,0.328 2.211,0.914 l 5.601,5.606 15.895,-15.895 h -8.082 c -1.727,0 -3.125,-1.398 -3.125,-3.125 0,-1.727 1.398,-3.125 3.125,-3.125 z m 0.055,34.266 2.39,0.777 0.051,0.012 c 0.184,0.062 0.344,0.183 0.457,0.343 0.109,0.161 0.172,0.352 0.172,0.547 0,0.196 -0.063,0.383 -0.172,0.543 -0.113,0.16 -0.273,0.282 -0.457,0.344 l -2.394,0.777 c -0.727,0.243 -1.387,0.653 -1.93,1.192 -0.543,0.543 -0.949,1.203 -1.192,1.929 l -0.777,2.391 c -0.066,0.184 -0.183,0.344 -0.344,0.457 -0.16,0.109 -0.351,0.172 -0.547,0.172 -0.195,0 -0.386,-0.063 -0.546,-0.172 -0.161,-0.113 -0.278,-0.273 -0.344,-0.457 l -0.777,-2.391 c -0.243,-0.73 -0.649,-1.39 -1.192,-1.937 -0.539,-0.543 -1.203,-0.953 -1.93,-1.195 L 50.629,58.695 C 50.445,58.633 50.285,58.512 50.172,58.352 50.062,58.191 50,58 50,57.805 c 0,-0.196 0.062,-0.383 0.172,-0.543 0.113,-0.16 0.273,-0.282 0.457,-0.344 l 2.394,-0.777 c 0.719,-0.25 1.368,-0.661 1.903,-1.2 0.531,-0.543 0.933,-1.199 1.172,-1.921 l 0.777,-2.391 c 0.063,-0.184 0.184,-0.344 0.344,-0.457 0.16,-0.11 0.351,-0.172 0.547,-0.172 0.195,0 0.386,0.062 0.543,0.172 0.16,0.113 0.281,0.273 0.347,0.457 l 0.778,2.391 c 0.242,0.726 0.648,1.386 1.191,1.929 0.543,0.539 1.203,0.949 1.93,1.192 z" style="fill:currentColor;fill-opacity:1;fill-rule:nonzero;stroke:none" transform="scale(1.3333333)" /> </g>
</svg>

