<?xml version="1.0" encoding="UTF-8" standalone="no"?> <svg version="1.1" id="I1f1d0057721a402083e8299bfa96bbe420251110123031" width="100" height="100" viewBox="0 0 100 100" xmlns="http://www.w3.org/2000/svg" xmlns:svg="http://www.w3.org/2000/svg"> <defs id="I8350f6e84f254e9c9d07ad31485c4e2420251110123031" /> <g id="I8d5b6d99a63d4ea58fcd920c4f84a55120251110123031"> <path id="I4f613c85b2ac435492ba1064a45b0b8220251110123031" d="m 35.398,65.578 c -0.586,1.328 -0.703,2.715 -0.449,4 C 20.77,68.867 10.715,62.211 10.715,52.809 v -1.914 c 0,-4.442 3.597,-8.04 8.035,-8.04 h 28.02 l -2.012,4.02 H 18.75 c -2.09,0 -3.805,1.594 -4,3.629 l -0.02,0.391 v 1.914 c 0,6.789 8.157,12.222 20.668,12.769 z M 37.5,5.355 c 8.875,0 16.07,7.196 16.07,16.075 0,8.875 -7.195,16.07 -16.07,16.07 -8.875,0 -16.07,-7.195 -16.07,-16.07 0,-8.879 7.195,-16.075 16.07,-16.075 z m 0,4.02 c -6.656,0 -12.055,5.398 -12.055,12.055 0,6.656 5.399,12.05 12.055,12.05 6.656,0 12.055,-5.394 12.055,-12.05 C 49.555,14.773 44.156,9.375 37.5,9.375 Z M 51.332,39.719 37.934,66.48 c -1.344,2.68 0.593,5.84 3.578,5.84 h 26.797 c 2.984,0 4.921,-3.16 3.578,-5.84 L 58.488,39.719 c -1.48,-2.957 -5.676,-2.957 -7.156,0 z m 4.918,7.156 V 60.27 c 0,0.738 -0.602,1.335 -1.34,1.335 -0.738,0 -1.34,-0.597 -1.34,-1.335 V 46.875 c 0,-0.738 0.602,-1.34 1.34,-1.34 0.738,0 1.34,0.602 1.34,1.34 z m -1.34,20.09 c -0.738,0 -1.34,-0.602 -1.34,-1.34 0,-0.738 0.602,-1.34 1.34,-1.34 0.738,0 1.34,0.602 1.34,1.34 0,0.738 -0.602,1.34 -1.34,1.34 z" style="fill:currentColor;fill-opacity:1;fill-rule:nonzero;stroke:none" transform="scale(1.3333333)" /> </g>
</svg>

