<?xml version="1.0" encoding="UTF-8" standalone="no"?> <svg version="1.1" id="I878eb8be588d45e3bc87aace8004019220251106132945" width="100" height="100" viewBox="0 0 100 100" xmlns="http://www.w3.org/2000/svg" xmlns:svg="http://www.w3.org/2000/svg"> <defs id="I0b21084dfe134eccb9c9ccdeab41c3f020251106132945" /> <g id="I66d27753e6c84dac877cf586ad88956e20251106132945"> <path id="I304ae28c99c54f6d9c4746f19bcf822e20251106132945" d="m 61.707,65.023 4.605,4.602 c 0.915,0.914 2.399,0.914 3.313,0 0.918,-0.914 0.918,-2.398 0,-3.313 L 8.688,5.375 c -0.915,-0.918 -2.399,-0.918 -3.313,0 -0.918,0.914 -0.918,2.398 0,3.313 l 22.746,22.746 v 0.062 c 0,1.906 -0.582,3.766 -1.668,5.336 L 13.07,56.164 c -3.457,4.988 0.118,11.805 6.184,11.805 h 36.48 c 2.539,0 4.641,-1.196 5.973,-2.946 z m -3.395,-3.398 c -0.433,0.945 -1.378,1.656 -2.578,1.656 h -36.48 c -2.285,0 -3.633,-2.57 -2.332,-4.449 l 8.32,-12.02 c 0.172,0.04 0.352,0.063 0.535,0.063 H 43.559 Z M 38.871,42.188 H 28.445 l 1.86,-2.688 c 0.847,-1.223 1.488,-2.562 1.91,-3.969 z m 3.313,-10.692 c 0,0.891 0.082,1.777 0.25,2.645 l 13.781,13.785 -7.68,-11.094 c -1.086,-1.57 -1.664,-3.43 -1.664,-5.336 V 11.719 h 2.344 c 1.293,0 2.344,-1.051 2.344,-2.344 0,-1.297 -1.051,-2.344 -2.344,-2.344 H 25.777 c -1.297,0 -2.343,1.047 -2.343,2.344 0,1.293 1.046,2.344 2.343,2.344 h 2.344 v 8.109 l 4.688,4.688 V 11.719 h 9.375 z" style="fill:currentColor;fill-opacity:1;fill-rule:nonzero;stroke:none" transform="scale(1.3333333)" /> </g>
</svg>

