<?xml version="1.0" encoding="UTF-8" standalone="no"?> <svg version="1.1" id="I9a0c66d54450403ab23f14014ee2969220251106155156" width="100" height="100" viewBox="0 0 100 100" xmlns="http://www.w3.org/2000/svg" xmlns:svg="http://www.w3.org/2000/svg"> <defs id="I95140020801d4f9495084339a0ccb19c20251106155156" /> <g id="I7726c494e45445c2af55a915d75984d020251106155156"> <path id="Ieed4243c39ce4cc4905db1ca262b1f0d20251106155156" d="m 24.219,35.938 c -1.293,0 -2.344,1.05 -2.344,2.343 0,1.293 1.051,2.344 2.344,2.344 1.293,0 2.343,-1.051 2.343,-2.344 0,-1.293 -1.05,-2.343 -2.343,-2.343 z m -2.344,11.718 c 0,-1.293 1.051,-2.344 2.344,-2.344 1.293,0 2.343,1.051 2.343,2.344 0,1.293 -1.05,2.344 -2.343,2.344 -1.293,0 -2.344,-1.051 -2.344,-2.344 z m 9.375,-9.375 c 0,-1.293 1.051,-2.343 2.344,-2.343 h 9.543 c 1.293,0 2.343,1.05 2.343,2.343 0,1.293 -1.05,2.344 -2.343,2.344 h -9.543 c -1.293,0 -2.344,-1.051 -2.344,-2.344 z m 2.344,7.031 c -1.293,0 -2.344,1.051 -2.344,2.344 0,1.293 1.051,2.344 2.344,2.344 h 9.543 c 1.293,0 2.343,-1.051 2.343,-2.344 0,-1.293 -1.05,-2.344 -2.343,-2.344 z M 19.531,6.25 c -3.883,0 -7.031,3.148 -7.031,7.031 v 40.625 c 0,3.883 3.148,7.032 7.031,7.032 h 28.125 c 3.883,0 7.032,-3.149 7.032,-7.032 V 27.715 c 0,-1.863 -0.743,-3.653 -2.059,-4.973 L 38.195,8.309 C 36.875,6.992 35.086,6.25 33.223,6.25 Z m -2.343,7.031 c 0,-1.293 1.05,-2.343 2.343,-2.343 h 13.293 v 10.148 c 0,3.883 3.149,7.031 7.031,7.031 H 50 v 25.789 c 0,1.293 -1.051,2.344 -2.344,2.344 H 19.531 c -1.293,0 -2.343,-1.051 -2.343,-2.344 z m 20.324,7.805 v -6.828 l 9.172,9.172 h -6.829 c -1.293,0 -2.343,-1.051 -2.343,-2.344 z M 27.348,68.75 c -3.063,0 -5.668,-1.957 -6.633,-4.688 H 47.66 c 5.61,0 10.156,-4.546 10.156,-10.156 V 27.93 l 2.629,2.625 c 1.317,1.32 2.059,3.109 2.059,4.972 v 18.379 c 0,8.199 -6.649,14.844 -14.844,14.844 z" style="fill:currentColor;fill-opacity:1;fill-rule:nonzero;stroke:none" transform="scale(1.3333333)" /> </g>
</svg>

