<?xml version="1.0" encoding="UTF-8" standalone="no"?> <svg version="1.1" id="I20598d053bb340a6bc4a3ffbf7c1d59120251106155157" width="100" height="100" viewBox="0 0 100 100" xmlns="http://www.w3.org/2000/svg" xmlns:svg="http://www.w3.org/2000/svg"> <defs id="I526b94096a894767bdf88a181bc4dfbc20251106155157" /> <g id="Ide194d844a8a47368987bc07a5d3887c20251106155157"> <path id="Ibf15b55a2f50492a96f5ac63ce23f23c20251106155157" d="M 49.219,23.438 H 64.453 L 46.875,5.859 v 15.235 c 0,1.293 1.051,2.344 2.344,2.344 z m 0,4.687 c -3.883,0 -7.031,-3.148 -7.031,-7.031 V 4.688 H 25.781 c -3.883,0 -7.031,3.148 -7.031,7.031 v 30.894 c 0.977,0.348 1.875,0.883 2.629,1.633 0.351,0.352 0.656,0.734 0.918,1.145 0.078,-0.075 0.148,-0.149 0.223,-0.223 0.179,-0.176 0.355,-0.356 0.55,-0.512 1.989,-1.578 4.485,-2.453 7.028,-2.468 h 0.714 c 2.993,0 5.93,1.218 8.043,3.335 2.118,2.118 3.333,5.047 3.333,8.039 0.019,1.59 -0.512,3.149 -1.5,4.422 0.156,0.266 0.296,0.539 0.425,0.821 1.078,2.304 1.356,4.949 0.77,7.429 -0.348,1.485 -1.028,2.86 -1.922,4.078 h 18.633 c 3.883,0 7.031,-3.148 7.031,-7.031 V 28.125 Z M 30.812,70.312 h -0.687 c -1.77,0 -3.473,-0.707 -4.727,-1.96 -1.257,-1.254 -1.96,-2.954 -1.96,-4.727 -0.004,-0.645 0.234,-1.258 0.671,-1.727 0.434,-0.468 1.036,-0.75 1.672,-0.793 0.301,-0.019 0.594,0.024 0.883,0.129 0.281,0.098 0.539,0.258 0.758,0.457 0.219,0.204 0.394,0.45 0.516,0.723 0.121,0.274 0.187,0.566 0.187,0.867 -0.031,0.285 -0.004,0.578 0.078,0.852 0.086,0.277 0.227,0.535 0.414,0.758 0.188,0.218 0.418,0.398 0.68,0.523 0.258,0.125 0.543,0.195 0.836,0.211 h 0.683 c 0.528,0 1.039,-0.211 1.414,-0.586 0.375,-0.375 0.586,-0.887 0.586,-1.414 0,-0.371 -0.097,-0.738 -0.293,-1.051 C 32.324,62.258 32.047,62 31.715,61.836 L 27.141,59.531 C 25.801,58.852 24.73,57.746 24.098,56.383 23.465,55.023 23.312,53.484 23.652,52.027 24,50.562 24.824,49.266 26,48.328 c 1.18,-0.933 2.633,-1.449 4.133,-1.453 h 0.683 c 1.77,0 3.473,0.707 4.731,1.961 1.254,1.254 1.957,2.953 1.957,4.726 0.004,0.645 -0.234,1.258 -0.668,1.727 -0.438,0.469 -1.039,0.75 -1.676,0.793 -0.301,0.02 -0.594,-0.023 -0.879,-0.129 C 34,55.855 33.742,55.695 33.52,55.496 33.301,55.293 33.125,55.047 33.004,54.773 32.883,54.5 32.816,54.207 32.816,53.906 v -0.344 c 0,-0.527 -0.211,-1.039 -0.586,-1.414 -0.375,-0.375 -0.886,-0.586 -1.414,-0.586 h -0.683 c -0.531,0 -1.043,0.211 -1.418,0.586 -0.375,0.375 -0.586,0.887 -0.586,1.414 0,0.372 0.098,0.739 0.297,1.051 0.195,0.317 0.472,0.575 0.804,0.739 l 4.575,2.289 c 1.347,0.675 2.429,1.781 3.066,3.152 0.637,1.363 0.797,2.906 0.449,4.367 -0.343,1.469 -1.175,2.77 -2.355,3.707 -1.184,0.934 -2.649,1.445 -4.153,1.445 z M 6.746,68.254 c 1.32,1.316 3.106,2.058 4.973,2.058 1.867,0 3.656,-0.742 4.972,-2.058 1.317,-1.32 2.059,-3.106 2.059,-4.973 V 49.219 c 0,-0.625 -0.242,-1.219 -0.684,-1.66 -0.441,-0.434 -1.035,-0.684 -1.66,-0.684 -0.625,0 -1.218,0.242 -1.66,0.684 -0.434,0.441 -0.684,1.035 -0.684,1.66 v 14.062 c 0,0.625 -0.242,1.219 -0.683,1.66 -0.441,0.434 -1.035,0.684 -1.66,0.684 -0.625,0 -1.219,-0.242 -1.66,-0.684 C 9.625,64.5 9.375,63.906 9.375,63.281 v -2.343 c 0,-0.626 -0.242,-1.219 -0.684,-1.661 -0.441,-0.433 -1.035,-0.683 -1.66,-0.683 -0.625,0 -1.219,0.242 -1.66,0.683 -0.433,0.442 -0.683,1.035 -0.683,1.661 v 2.343 c 0,1.867 0.742,3.657 2.058,4.973 z" style="fill:currentColor;fill-opacity:1;fill-rule:nonzero;stroke:none" transform="scale(1.3333333)" /> </g>
</svg>

