<?xml version="1.0" encoding="UTF-8" standalone="no"?> <svg version="1.1" id="Ideef6f14cfbc41668d71f7148a29d17120251106151526" width="100" height="100" viewBox="0 0 100 100" xmlns="http://www.w3.org/2000/svg" xmlns:svg="http://www.w3.org/2000/svg"> <defs id="I2434ed16d3ef460a8a385767e763c4ca20251106151526" /> <g id="Iad3ccb9ddb674dca8161114f632e770320251106151526"> <path id="I88cc53c0ea6e46ea814acaee8fe7d14220251106151526" d="M 19,28.184 C 20.461,19.289 28.188,12.5 37.5,12.5 c 9.312,0 17.039,6.789 18.5,15.684 2.871,0.269 5.496,1.398 7.605,3.128 -2.238,0.247 -4.414,1.231 -6.128,2.946 L 39.031,52.703 c -1.023,1.024 -1.843,2.227 -2.414,3.547 H 20.312 C 12.547,56.25 6.25,49.953 6.25,42.188 6.25,34.863 11.848,28.848 19,28.184 Z m 40.688,8.285 -18.446,18.445 c -1.074,1.074 -1.84,2.422 -2.207,3.898 l -1.43,5.719 c -0.621,2.489 1.629,4.742 4.118,4.121 l 5.722,-1.433 c 1.477,-0.367 2.825,-1.129 3.899,-2.207 L 69.789,46.57 c 2.789,-2.793 2.789,-7.312 0,-10.101 -2.789,-2.793 -7.312,-2.793 -10.101,0 z" style="fill:currentColor;fill-opacity:1;fill-rule:nonzero;stroke:none" transform="scale(1.3333333)" /> </g>
</svg>

