<?xml version="1.0" encoding="UTF-8" standalone="no"?> <svg version="1.1" id="I3583bb46ab3e44459f4dcd589bbb545e20251106152728" width="100" height="100" viewBox="0 0 100 100" xmlns="http://www.w3.org/2000/svg" xmlns:svg="http://www.w3.org/2000/svg"> <defs id="Ida56de2210de41aa81f40d645b338cce20251106152728" /> <g id="I5efcf5e0617d460a926884e8b7d183fa20251106152728"> <path id="I92f54d9b99a447ba89107838abcfb6d020251106152728" d="m 50.281,39.195 c 0.742,-1.05 1.176,-2.289 1.262,-3.57 0.086,-1.285 -0.18,-2.566 -0.773,-3.711 -0.594,-1.141 -1.489,-2.098 -2.59,-2.766 -1.098,-0.668 -2.364,-1.023 -3.649,-1.023 h -4.687 c -0.621,0 -1.219,0.246 -1.656,0.687 -0.442,0.438 -0.688,1.036 -0.688,1.657 v 18.75 c 0,0.621 0.246,1.219 0.688,1.656 0.437,0.441 1.035,0.687 1.656,0.687 h 5.859 c 1.438,0 2.836,-0.441 4.016,-1.261 1.179,-0.821 2.078,-1.981 2.578,-3.328 0.496,-1.348 0.57,-2.813 0.211,-4.203 -0.36,-1.391 -1.137,-2.637 -2.227,-3.575 z m -8.093,-6.383 h 2.343 c 0.621,0 1.219,0.247 1.657,0.688 0.441,0.438 0.687,1.035 0.687,1.656 0,0.621 -0.246,1.219 -0.687,1.656 -0.438,0.442 -1.036,0.688 -1.657,0.688 h -2.343 z m 3.515,14.063 h -3.515 v -4.687 h 3.515 c 0.621,0 1.219,0.246 1.656,0.687 0.442,0.437 0.688,1.035 0.688,1.656 0,0.621 -0.246,1.219 -0.688,1.657 -0.437,0.441 -1.035,0.687 -1.656,0.687 z M 35.008,31.293 27.977,50.043 c -0.168,0.445 -0.469,0.832 -0.86,1.102 -0.394,0.273 -0.859,0.417 -1.336,0.417 -0.476,0 -0.941,-0.144 -1.336,-0.417 -0.39,-0.27 -0.691,-0.657 -0.859,-1.102 l -7.031,-18.75 c -0.106,-0.289 -0.157,-0.594 -0.149,-0.902 0.012,-0.309 0.082,-0.61 0.211,-0.891 0.254,-0.566 0.727,-1.008 1.309,-1.227 0.582,-0.218 1.226,-0.195 1.793,0.063 0.566,0.254 1.008,0.726 1.226,1.309 l 4.836,12.898 4.836,-12.898 c 0.219,-0.583 0.66,-1.055 1.227,-1.309 0.566,-0.258 1.211,-0.281 1.793,-0.063 0.582,0.219 1.054,0.661 1.308,1.227 0.258,0.566 0.282,1.211 0.063,1.793 z M 12.891,14.062 c -4.532,0 -8.203,3.672 -8.203,8.204 v 35.156 c 0,4.531 3.671,8.203 8.203,8.203 h 44.531 c 4.531,0 8.203,-3.672 8.203,-8.203 V 22.266 c 0,-4.532 -3.672,-8.204 -8.203,-8.204 z m -3.516,8.204 c 0,-1.942 1.574,-3.516 3.516,-3.516 h 44.531 c 1.941,0 3.516,1.574 3.516,3.516 v 35.156 c 0,1.941 -1.575,3.516 -3.516,3.516 H 12.891 c -1.942,0 -3.516,-1.575 -3.516,-3.516 z" style="fill:currentColor;fill-opacity:1;fill-rule:nonzero;stroke:none" transform="scale(1.3333333)" /> </g>
</svg>

