<?xml version="1.0" encoding="UTF-8" standalone="no"?> <svg version="1.1" id="I82ae89eea69f4a0c9c44d6a8b04aa20320251110124421" width="100" height="100" viewBox="0 0 100 100" xmlns="http://www.w3.org/2000/svg" xmlns:svg="http://www.w3.org/2000/svg"> <defs id="Ib805967f5fb643cda2a3eb12ff9a715520251110124421" /> <g id="Ieb0a10d9b9934d828246194e41eaa28e20251110124421"> <path id="Ib987337a8aad4a57a9b43783f92c44ab20251110124421" d="M 6.25,22.656 C 6.25,17.047 10.797,12.5 16.406,12.5 h 42.188 c 5.609,0 10.156,4.547 10.156,10.156 v 22.656 c 0,-6.039 -4.898,-10.937 -10.938,-10.937 -6.039,0 -10.937,4.898 -10.937,10.937 0,3.059 1.258,5.829 3.281,7.813 h -0.867 c -4.781,0 -8.664,3.875 -8.664,8.664 v 0.32 c 0,0.129 0.004,0.262 0.008,0.391 H 16.406 C 10.797,62.5 6.25,57.953 6.25,52.344 Z m 15.625,4.688 v 20.312 c 0,1.293 1.051,2.344 2.344,2.344 1.293,0 2.343,-1.051 2.343,-2.344 v -5.468 h 3.907 c 4.746,0 8.593,-3.848 8.593,-8.594 C 39.062,28.848 35.215,25 30.469,25 h -6.25 c -1.293,0 -2.344,1.051 -2.344,2.344 z M 26.562,37.5 h 3.907 c 2.156,0 3.906,-1.75 3.906,-3.906 0,-2.156 -1.75,-3.906 -3.906,-3.906 h -3.907 z m 39.063,7.812 c 0,4.317 -3.496,7.813 -7.813,7.813 -4.316,0 -7.812,-3.496 -7.812,-7.813 0,-4.316 3.496,-7.812 7.812,-7.812 4.317,0 7.813,3.496 7.813,7.812 z m 6.25,16.797 c 0,4.864 -4.02,9.766 -14.063,9.766 -10.042,0 -14.062,-4.883 -14.062,-9.766 v -0.32 c 0,-3.062 2.48,-5.539 5.539,-5.539 h 17.047 c 3.059,0 5.539,2.477 5.539,5.539 z" style="fill:currentColor;fill-opacity:1;fill-rule:nonzero;stroke:none" transform="scale(1.3333333)" /> </g>
</svg>

