<?xml version="1.0" encoding="UTF-8" standalone="no"?> <svg version="1.1" id="I16d18335dfe24a21b9b7bb871faed5c120251110130510" width="100" height="100" viewBox="0 0 100 100" xmlns="http://www.w3.org/2000/svg" xmlns:svg="http://www.w3.org/2000/svg"> <defs id="I40554c4700a64bf5b6c86ba025ba7b2920251110130510" /> <g id="Ieadff2ed13854965a5bd5d25e1ec9af020251110130510"> <path id="Id989de60c4f74d87aaa22c9201be373a20251110130510" d="m 9.375,21.094 c 0,-1.293 1.051,-2.344 2.344,-2.344 h 51.562 c 1.293,0 2.344,1.051 2.344,2.344 0,1.293 -1.051,2.344 -2.344,2.344 H 11.719 c -1.293,0 -2.344,-1.051 -2.344,-2.344 z m 0,18.75 c 0,-1.293 1.051,-2.344 2.344,-2.344 h 51.562 c 1.293,0 2.344,1.051 2.344,2.344 0,1.293 -1.051,2.344 -2.344,2.344 H 11.719 c -1.293,0 -2.344,-1.051 -2.344,-2.344 z m 20.219,17.094 c -0.918,0.914 -0.918,2.398 0,3.312 0.914,0.918 2.398,0.918 3.312,0 l 4.594,-4.59 4.594,4.59 c 0.914,0.918 2.398,0.918 3.312,0 0.918,-0.914 0.918,-2.398 0,-3.312 l -6.25,-6.25 c -0.914,-0.918 -2.398,-0.918 -3.312,0 z" style="fill:currentColor;fill-opacity:1;fill-rule:nonzero;stroke:none" transform="scale(1.3333333)" /> </g>
</svg>

