<?xml version="1.0" encoding="UTF-8" standalone="no"?> <svg version="1.1" id="I08b0233e702f4c6887eb53dac31a860c20251106164749" width="100" height="100" viewBox="0 0 100 100" xmlns="http://www.w3.org/2000/svg" xmlns:svg="http://www.w3.org/2000/svg"> <defs id="If1ec85fd7dc44142a6bedf0151beb7ca20251106164749" /> <g id="I50ea275e08c64e3db08e7a91b65b214a20251106164749"> <path id="Iadfbbcebee514cb3a5ff5d8225bcfe6220251106164749" d="m 18.75,25 c -1.727,0 -3.125,1.398 -3.125,3.125 0,1.727 1.398,3.125 3.125,3.125 h 12.5 c 1.727,0 3.125,-1.398 3.125,-3.125 C 34.375,26.398 32.977,25 31.25,25 Z m 15.625,12.5 c 0,-1.727 1.398,-3.125 3.125,-3.125 H 50 c 1.727,0 3.125,1.398 3.125,3.125 0,1.727 -1.398,3.125 -3.125,3.125 H 37.5 c -1.727,0 -3.125,-1.398 -3.125,-3.125 z m 12.5,6.25 c -1.727,0 -3.125,1.398 -3.125,3.125 0,1.727 1.398,3.125 3.125,3.125 h 9.375 c 1.727,0 3.125,-1.398 3.125,-3.125 0,-1.727 -1.398,-3.125 -3.125,-3.125 z M 16.406,12.5 C 10.797,12.5 6.25,17.047 6.25,22.656 v 29.688 c 0,5.609 4.547,10.156 10.156,10.156 h 42.188 c 5.609,0 10.156,-4.547 10.156,-10.156 V 22.656 C 68.75,17.047 64.203,12.5 58.594,12.5 Z M 25,17.188 v 4.687 h 4.688 V 17.188 H 45.312 V 31.25 H 50 V 17.188 h 8.594 c 3.019,0 5.468,2.449 5.468,5.468 v 29.688 c 0,3.019 -2.449,5.468 -5.468,5.468 H 50 v -4.687 h -3.125 c -0.539,0 -1.063,-0.07 -1.563,-0.195 v 4.882 H 29.688 V 34.375 H 25 v 23.437 h -8.594 c -3.019,0 -5.468,-2.449 -5.468,-5.468 V 22.656 c 0,-3.019 2.449,-5.468 5.468,-5.468 z" style="fill:currentColor;fill-opacity:1;fill-rule:nonzero;stroke:none" transform="scale(1.3333333)" /> </g>
</svg>

