<?xml version="1.0" encoding="UTF-8" standalone="no"?> <svg version="1.1" id="I543d6727c50d43e8873f7d59bebd540320251106171633" width="100" height="100" viewBox="0 0 100 100" xmlns="http://www.w3.org/2000/svg" xmlns:svg="http://www.w3.org/2000/svg"> <defs id="I80c5c60623f742ea95f368776bba21a720251106171633" /> <g id="Icbe5c128a14b45c7bf308d1aca552e3220251106171633"> <path id="I6b4032ff52624b50a84c55fdeffdc53620251106171633" d="m 52.34,6.25 c 3.883,0 7.031,3.148 7.031,7.031 v 48.438 c 0,3.883 -3.148,7.031 -7.031,7.031 H 34.969 c 3.504,-3.648 5.656,-8.605 5.656,-14.062 0,-11.219 -9.094,-20.313 -20.313,-20.313 -2.769,0 -5.406,0.555 -7.812,1.559 V 13.281 c 0,-3.883 3.148,-7.031 7.031,-7.031 z m -6.235,10.93 h -20.32 c -1.187,0 -2.168,0.882 -2.32,2.023 l -0.024,0.32 v 4.7 c 0,1.187 0.883,2.168 2.028,2.32 l 0.316,0.023 h 20.32 c 1.188,0 2.168,-0.882 2.321,-2.027 l 0.023,-0.316 v -4.7 c 0,-1.293 -1.051,-2.343 -2.344,-2.343 z" style="fill:currentColor;fill-opacity:1;fill-rule:nonzero;stroke:none" transform="scale(1.3333333)" /> <path id="I667f25c434fb4e98b9f7ad36569b8a8720251106171633" d="m 62.5,46.883 h 2.344 c 1.187,0 2.168,0.879 2.324,2.023 l 0.02,0.321 v 4.679 c 0,1.188 -0.883,2.168 -2.028,2.324 l -0.316,0.02 H 62.5 Z" style="fill:currentColor;fill-opacity:1;fill-rule:nonzero;stroke:none" transform="scale(1.3333333)" /> <path id="I2604860cfd3f4572a5436641f6fdd3b820251106171633" d="m 62.5,34.383 h 2.344 c 1.187,0 2.168,0.879 2.324,2.023 l 0.02,0.321 v 4.679 c 0,1.188 -0.883,2.168 -2.028,2.324 l -0.316,0.02 H 62.5 Z" style="fill:currentColor;fill-opacity:1;fill-rule:nonzero;stroke:none" transform="scale(1.3333333)" /> <path id="I8834d1076ed44b57940bfa13e7e7a98920251106171633" d="m 62.5,21.883 h 2.344 c 1.187,0 2.168,0.879 2.324,2.023 l 0.02,0.321 v 4.679 c 0,1.188 -0.883,2.168 -2.028,2.324 l -0.316,0.02 H 62.5 Z" style="fill:currentColor;fill-opacity:1;fill-rule:nonzero;stroke:none" transform="scale(1.3333333)" /> <path id="Ia247c69ad437417ab7d8d0d3ca35e29020251106171633" d="M 37.5,54.688 C 37.5,45.195 29.805,37.5 20.312,37.5 10.82,37.5 3.125,45.195 3.125,54.688 c 0,9.492 7.695,17.187 17.187,17.187 9.493,0 17.188,-7.695 17.188,-17.187 z M 21.879,56.25 v 7.824 c 0,0.864 -0.699,1.563 -1.563,1.563 -0.863,0 -1.562,-0.699 -1.562,-1.563 V 56.25 h -7.832 c -0.86,0 -1.559,-0.699 -1.559,-1.562 0,-0.864 0.699,-1.563 1.559,-1.563 h 7.828 v -7.816 c 0,-0.864 0.699,-1.563 1.562,-1.563 0.864,0 1.563,0.699 1.563,1.563 v 7.816 h 7.801 c 0.863,0 1.562,0.699 1.562,1.563 0,0.863 -0.699,1.562 -1.562,1.562 z" style="fill:currentColor;fill-opacity:1;fill-rule:nonzero;stroke:none" transform="scale(1.3333333)" /> </g>
</svg>

