<?xml version="1.0" encoding="UTF-8" standalone="no"?> <svg version="1.1" id="Id0ff834062e14d79900c582b14a75c8120251106151526" width="100" height="100" viewBox="0 0 100 100" xmlns="http://www.w3.org/2000/svg" xmlns:svg="http://www.w3.org/2000/svg"> <defs id="I30e5ac2d20d74102bca05fdd92b507fc20251106151526" /> <g id="I057d6a47bdd14fbcb0bab93877f2eafd20251106151526"> <path id="I791baa853c93436485cfb9856fb9f6de20251106151526" d="m 14.062,34.375 c 0,-14.672 11.891,-26.563 26.563,-26.563 14.672,0 26.563,11.891 26.563,26.563 0,14.672 -11.891,26.563 -26.563,26.563 -0.324,0 -0.652,-0.008 -0.973,-0.016 -0.523,1.613 -1.238,3.14 -2.125,4.551 1.02,0.101 2.051,0.152 3.098,0.152 17.258,0 31.25,-13.992 31.25,-31.25 0,-17.258 -13.992,-31.25 -31.25,-31.25 -17.258,0 -31.25,13.992 -31.25,31.25 0,1.047 0.051,2.078 0.152,3.098 1.411,-0.887 2.938,-1.602 4.551,-2.125 -0.008,-0.321 -0.016,-0.649 -0.016,-0.973 z m 26.54,-16.723 c -0.153,-1.144 -1.133,-2.027 -2.321,-2.027 -1.293,0 -2.343,1.051 -2.343,2.344 v 18.75 l 0.023,0.316 c 0.152,1.145 1.133,2.027 2.32,2.027 h 12.5 l 0.317,-0.023 c 1.144,-0.152 2.027,-1.133 2.027,-2.32 0,-1.293 -1.051,-2.344 -2.344,-2.344 H 40.625 V 17.969 Z M 37.5,54.688 C 37.5,64.18 29.805,71.875 20.312,71.875 10.82,71.875 3.125,64.18 3.125,54.688 3.125,45.195 10.82,37.5 20.312,37.5 29.805,37.5 37.5,45.195 37.5,54.688 Z M 20.312,52.477 15.168,47.332 c -0.609,-0.609 -1.602,-0.609 -2.211,0 -0.609,0.609 -0.609,1.602 0,2.211 l 5.145,5.145 -5.145,5.144 c -0.609,0.609 -0.609,1.602 0,2.211 0.609,0.609 1.602,0.609 2.211,0 l 5.144,-5.145 5.145,5.145 c 0.609,0.609 1.602,0.609 2.211,0 0.609,-0.609 0.609,-1.602 0,-2.211 l -5.145,-5.144 5.145,-5.145 c 0.609,-0.609 0.609,-1.602 0,-2.211 -0.609,-0.609 -1.602,-0.609 -2.211,0 z" style="fill:currentColor;fill-opacity:1;fill-rule:nonzero;stroke:none" transform="scale(1.3333333)" /> </g>
</svg>

