<?xml version="1.0" encoding="UTF-8" standalone="no"?> <svg version="1.1" id="I16f724c0cc1340edaac81f7126c9bd9b20251106163938" width="100" height="100" viewBox="0 0 100 100" xmlns="http://www.w3.org/2000/svg" xmlns:svg="http://www.w3.org/2000/svg"> <defs id="I71c8e526c7154810b6628b533f6850a420251106163938" /> <g id="I0a38df7903164a47bb67fd52e92f6bea20251106163938"> <path id="I6cb92db1ce5d4793880286b0048c393920251106163938" d="m 9.379,17.902 c 0.004,0.059 0.008,0.118 0.008,0.18 v 6.023 h 15.851 c 0.887,0 1.739,-0.351 2.367,-0.98 l 5.043,-5.043 -5.043,-5.047 c -0.628,-0.629 -1.48,-0.98 -2.367,-0.98 h -9.836 c -3.269,0 -5.929,2.601 -6.023,5.847 z M 5.367,26.32 C 5.359,26.254 5.355,26.184 5.355,26.117 v -8.035 c 0,-5.551 4.5,-10.047 10.047,-10.047 h 9.836 c 1.953,0 3.824,0.777 5.207,2.156 l 5.879,5.879 h 23.274 c 5.55,0 10.047,4.5 10.047,10.047 v 12.457 c -1.188,-1.277 -2.536,-2.402 -4.02,-3.336 v -9.121 c 0,-3.328 -2.695,-6.027 -6.027,-6.027 H 36.324 l -5.879,5.879 c -1.383,1.379 -3.254,2.156 -5.207,2.156 H 9.387 v 26.117 c 0,3.328 2.695,6.028 6.027,6.028 h 21.078 c 0.629,1.433 1.418,2.781 2.348,4.015 H 15.414 C 9.863,64.285 5.367,59.789 5.367,54.242 Z m 49.543,8.5 c 9.617,0 17.41,7.797 17.41,17.41 0,9.618 -7.793,17.415 -17.41,17.415 -9.617,0 -17.41,-7.797 -17.41,-17.415 0,-9.613 7.797,-17.41 17.41,-17.41 z M 44.195,50.895 c -0.738,0 -1.34,0.597 -1.34,1.335 0,0.743 0.602,1.34 1.34,1.34 h 18.196 l -5.75,5.75 c -0.52,0.524 -0.52,1.371 0,1.895 0.523,0.523 1.371,0.523 1.894,0 L 66.57,53.18 c 0.129,-0.129 0.227,-0.278 0.293,-0.434 0.063,-0.156 0.102,-0.328 0.102,-0.508 v -0.015 c -0.004,-0.34 -0.133,-0.68 -0.395,-0.938 L 58.535,43.25 c -0.523,-0.523 -1.371,-0.523 -1.894,0 -0.52,0.523 -0.52,1.371 0,1.895 l 5.75,5.75 z" style="fill:currentColor;fill-opacity:1;fill-rule:nonzero;stroke:none" transform="scale(1.3333333)" /> </g>
</svg>

