<?xml version="1.0" encoding="UTF-8" standalone="no"?> <svg version="1.1" id="I3db8348a991a4e86b700937086c9aae720251106151526" width="100" height="100" viewBox="0 0 100 100" xmlns="http://www.w3.org/2000/svg" xmlns:svg="http://www.w3.org/2000/svg"> <defs id="If74b0865ae2a45b788f7a25005be4f6b20251106151526" /> <g id="Ib74863a82db045f6a119f79e55f2ec9b20251106151526"> <path id="I41af9f76ed3744e3b09ebcbed72da9ad20251106151526" d="m 49.418,10.715 h 4.824 c 4.067,0 7.363,3.297 7.363,7.367 V 38.84 c -0.25,0.187 -0.488,0.394 -0.714,0.621 l -9.09,9.09 c -4.145,-0.973 -8.68,0.16 -11.914,3.39 -1.285,1.289 -2.032,2.598 -2.555,3.645 -0.227,0.453 -0.379,0.781 -0.508,1.055 -0.215,0.449 -0.347,0.734 -0.594,1.132 -0.429,0.692 -1.339,1.946 -5.183,3.508 -1.574,0.641 -2.676,2.082 -2.887,3.766 -0.211,1.683 0.508,3.348 1.875,4.355 0.11,0.082 0.223,0.16 0.332,0.243 h -9.609 c -4.067,0 -7.363,-3.301 -7.363,-7.368 V 18.082 c 0,-4.07 3.296,-7.367 7.363,-7.367 h 4.824 c 0.617,-3.059 3.32,-5.36 6.563,-5.36 h 10.71 c 3.243,0 5.946,2.301 6.563,5.36 z m -19.953,1.34 c 0,1.476 1.199,2.675 2.68,2.675 h 10.71 c 1.481,0 2.68,-1.199 2.68,-2.675 0,-1.481 -1.199,-2.68 -2.68,-2.68 h -10.71 c -1.481,0 -2.68,1.199 -2.68,2.68 z m 39,29.3 c 1.57,1.571 1.57,4.114 0,5.684 L 58.238,57.266 c 1.414,3.605 0.664,7.859 -2.25,10.773 -2.133,2.133 -5.414,4.047 -9.644,4.332 -4.25,0.285 -9.227,-1.086 -14.723,-5.129 -0.586,-0.43 -0.891,-1.144 -0.801,-1.867 0.09,-0.719 0.563,-1.336 1.235,-1.609 4.23,-1.723 5.656,-3.293 6.453,-4.582 0.324,-0.524 0.539,-0.985 0.801,-1.532 0.125,-0.265 0.261,-0.547 0.418,-0.867 0.464,-0.926 1.054,-1.949 2.054,-2.949 2.914,-2.914 7.168,-3.664 10.774,-2.254 l 10.23,-10.227 c 1.567,-1.57 4.113,-1.57 5.68,0 z M 36.898,65.898 c 3.622,2.055 6.7,2.629 9.176,2.465 3.129,-0.211 5.531,-1.621 7.074,-3.164 2.352,-2.355 2.352,-6.172 0,-8.523 -2.355,-2.356 -6.171,-2.356 -8.523,0 -0.57,0.566 -0.934,1.164 -1.301,1.906 -0.09,0.172 -0.183,0.371 -0.285,0.59 -0.301,0.629 -0.668,1.402 -1.113,2.125 -0.992,1.601 -2.438,3.129 -5.028,4.601 z" style="fill:currentColor;fill-opacity:1;fill-rule:nonzero;stroke:none" transform="scale(1.3333333)" /> </g>
</svg>

