<?xml version="1.0" encoding="UTF-8" standalone="no"?> <svg version="1.1" id="Iae59c40055d148ca8c37893f7b28686c20251110130510" width="100" height="100" viewBox="0 0 100 100" xmlns="http://www.w3.org/2000/svg" xmlns:svg="http://www.w3.org/2000/svg"> <defs id="I8f5ba044d6e74eeb95f603623e00c32920251110130510" /> <g id="If8e1fa41f00743a58deb83d814be175920251110130510"> <path id="Idd0f356b614d41e4b6c6d5b3a27c209520251110130510" d="m 12.188,22.5 c 2.589,0 4.687,-2.098 4.687,-4.688 0,-2.589 -2.098,-4.687 -4.687,-4.687 -2.59,0 -4.688,2.098 -4.688,4.687 0,2.59 2.098,4.688 4.688,4.688 z M 26.25,17.812 C 26.25,16.258 27.508,15 29.062,15 h 35.626 c 1.554,0 2.812,1.258 2.812,2.812 0,1.555 -1.258,2.813 -2.812,2.813 H 29.062 c -1.554,0 -2.812,-1.258 -2.812,-2.813 z m 2.812,15.938 c -1.554,0 -2.812,1.258 -2.812,2.812 0,1.555 1.258,2.813 2.812,2.813 H 49.52 c 2.621,-1.203 5.535,-1.875 8.605,-1.875 2.785,0 5.445,0.551 7.867,1.555 0.899,-0.473 1.508,-1.41 1.508,-2.493 0,-1.554 -1.258,-2.812 -2.812,-2.812 z m 0,18.75 h 9.215 C 37.77,54.289 37.5,56.176 37.5,58.125 h -8.438 c -1.554,0 -2.812,-1.258 -2.812,-2.813 0,-1.554 1.258,-2.812 2.812,-2.812 z M 16.875,36.562 c 0,2.59 -2.098,4.688 -4.687,4.688 -2.59,0 -4.688,-2.098 -4.688,-4.688 0,-2.589 2.098,-4.687 4.688,-4.687 2.589,0 4.687,2.098 4.687,4.687 z M 12.188,60 c 2.589,0 4.687,-2.098 4.687,-4.688 0,-2.589 -2.098,-4.687 -4.687,-4.687 -2.59,0 -4.688,2.098 -4.688,4.687 0,2.59 2.098,4.688 4.688,4.688 z M 75,58.125 C 75,67.445 67.445,75 58.125,75 48.805,75 41.25,67.445 41.25,58.125 41.25,48.805 48.805,41.25 58.125,41.25 67.445,41.25 75,48.805 75,58.125 Z m -14.223,0 4.297,-4.301 c 0.735,-0.73 0.735,-1.918 0,-2.648 -0.73,-0.735 -1.918,-0.735 -2.648,0 l -4.301,4.297 -4.301,-4.297 c -0.73,-0.735 -1.918,-0.735 -2.648,0 -0.735,0.73 -0.735,1.918 0,2.648 l 4.297,4.301 -4.297,4.301 c -0.735,0.73 -0.735,1.918 0,2.648 0.73,0.735 1.918,0.735 2.648,0 l 4.301,-4.297 4.301,4.297 c 0.73,0.735 1.918,0.735 2.648,0 0.735,-0.73 0.735,-1.918 0,-2.648 z" style="fill:currentColor;fill-opacity:1;fill-rule:nonzero;stroke:none" transform="scale(1.3333333)" /> </g>
</svg>

