<?xml version="1.0" encoding="UTF-8" standalone="no"?> <svg version="1.1" id="Ie882434ae336404ab06884e0dc5f75fa20251106132945" width="100" height="100" viewBox="0 0 100 100" xmlns="http://www.w3.org/2000/svg" xmlns:svg="http://www.w3.org/2000/svg"> <defs id="Id181e77d796347118875239bd42329f620251106132945"> <linearGradient x1="14.6802" y1="15.3238" x2="21.358299" y2="8.3586798" gradientUnits="userSpaceOnUse" gradientTransform="scale(2.678571)" spreadMethod="pad" id="I8c91c690d08142b593b0464895013fbc20251106132945"> <stop style="stop-opacity:1;stop-color:#cd3e1d" offset="0" id="Iee1a2234d60c47b9a51b6c1dabd65c6f20251106132945" /> <stop style="stop-opacity:1;stop-color:#592a00" offset="1" id="I886ece0b6c7d45cb9603fe799f8bde3620251106132945" /> </linearGradient> <linearGradient x1="13.75" y1="22.666599" x2="13.75" y2="16" gradientUnits="userSpaceOnUse" gradientTransform="scale(2.678571)" spreadMethod="pad" id="If74ed2525d2b46b69cd73923c8267dfa20251106132945"> <stop style="stop-opacity:1;stop-color:#ffc7a3" offset="0" id="I78c50fd0f4e14a989a6969b30828574f20251106132945" /> <stop style="stop-opacity:1;stop-color:#ffa43d" offset="1" id="Ia5678dd6e2054ea9969abd80cb7117b220251106132945" /> </linearGradient> <linearGradient x1="14.0482" y1="25.4347" x2="14.0482" y2="21.708" gradientUnits="userSpaceOnUse" gradientTransform="scale(2.678571)" spreadMethod="pad" id="I2dfaef9242fa4a8aa7713a9a0d87d28420251106132945"> <stop style="stop-opacity:1;stop-color:#0fafff" offset="0" id="Ic89d6194cab844a6910e4677391c9e9120251106132945" /> <stop style="stop-opacity:1;stop-color:#0fafff" offset="0.0606792" id="I2e82b8d0afbf483bae9040df5298e70720251106132945" /> <stop style="stop-opacity:1;stop-color:#0078d4" offset="1" id="Iee37dacc6cae4472ba0e987a7b04430e20251106132945" /> </linearGradient> <linearGradient x1="24.4548" y1="16.7087" x2="13.3925" y2="1.95895" gradientUnits="userSpaceOnUse" gradientTransform="scale(2.678571)" spreadMethod="pad" id="I6bb37684d4b54e778bd3efffba6d19f720251106132945"> <stop style="stop-opacity:1;stop-color:#aa1d2d" offset="0" id="Ib6e387ed42bd4370982b56354e62bca720251106132945" /> <stop style="stop-opacity:1;stop-color:#fb6f7b" offset="1" id="I31297fd67f8d42b7a2bb7c449f58117b20251106132945" /> </linearGradient> <linearGradient x1="22.2792" y1="8.84688" x2="16.050699" y2="6.7719598" gradientUnits="userSpaceOnUse" gradientTransform="scale(2.678571)" spreadMethod="pad" id="Id2b7148c8ab246e3a8ff3729d90644e320251106132945"> <stop style="stop-opacity:1;stop-color:#fecbe6" offset="0" id="I5c5b35f55fd941729614d917ad86f64c20251106132945" /> <stop style="stop-opacity:1;stop-color:#fdafd9" offset="1" id="I39f61141ea2642ba8cb585329914dae520251106132945" /> </linearGradient> </defs> <g id="I84fbddf8e217473195eed4748ff8d19620251106132945"> <path id="Ief675cf98f6e4fe0b575ff279a131cca20251106132945" d="m 52.703,23.812 -3.496,-1.98 -13.277,23.406 3.492,1.981 z" transform="scale(1.3333333)" style="fill:url(#I8c91c690d08142b593b0464895013fbc20251106132945);stroke:none" /> <path id="I4be1db177fa54ae9961508f472ea09d620251106132945" d="m 18.984,59.93 9.141,7.73 8.035,-5.355 11.578,4.418 8.512,-5.758 2.68,1.68 C 58.812,55.77 54.809,49.105 47.738,45.473 37.129,40.004 23.609,43.391 17.586,53.02 15.488,56.367 14.594,60 14.75,63.562 l 4.234,-3.667 z" transform="scale(1.3333333)" style="fill:url(#If74ed2525d2b46b69cd73923c8267dfa20251106132945);stroke:none" /> <path id="Ic60177102dca450a8d126b2b175d8bea20251106132945" d="m 56.34,57.457 c -1.164,0 -2.168,0.742 -2.531,1.84 -2.329,7.098 -11.418,6.996 -13.731,0.344 -0.371,-1.051 -1.371,-1.789 -2.527,-1.789 -1.176,0 -2.125,0.75 -2.489,1.789 v 0.004 c -2.277,6.648 -11.367,6.789 -13.734,-0.27 -0.367,-1.109 -1.422,-1.848 -2.621,-1.801 -1.215,0.008 -2.184,0.926 -2.484,1.985 l -0.008,0.027 c -0.633,2.609 -1.801,3.949 -3.086,4.715 h -0.004 c -1.352,0.82 -3.187,1.168 -5.266,1.207 -1.48,0.004 -2.636,1.219 -2.636,2.644 0,1.434 1.207,2.641 2.644,2.641 2.594,0 5.492,-0.441 8,-1.949 1.235,-0.739 2.321,-1.715 3.227,-2.946 4.957,5.43 13.691,5.387 18.496,-0.156 4.902,5.629 13.887,5.512 18.746,-0.254 2.723,3.266 6.863,5.149 10.976,5.149 1.485,0 2.645,-1.215 2.645,-2.645 0,-1.433 -1.211,-2.64 -2.645,-2.64 -3.64,0 -7.234,-2.36 -8.441,-6.051 l -0.004,-0.004 c -0.363,-1.098 -1.363,-1.84 -2.527,-1.84 z" transform="scale(1.3333333)" style="fill:url(#I2dfaef9242fa4a8aa7713a9a0d87d28420251106132945);stroke:none" /> <path id="I823641ed0b5147948e17eb58a1dee39f20251106132945" d="m 62.871,37.91 c 1.281,0.727 2.91,0.281 3.645,-1 l 0.371,-0.648 C 72.535,26.305 69.258,13.781 59.262,8.094 49.266,2.402 36.547,5.879 30.895,15.836 l -0.696,1.211 c -0.551,0.965 -0.215,2.199 0.754,2.746 z" transform="scale(1.3333333)" style="fill:url(#I6bb37684d4b54e778bd3efffba6d19f720251106132945);stroke:none" /> <path id="Id594ca94a3a64288a87059e66c7bf37420251106132945" d="m 60.078,8.609 c -4.644,1.516 -13.633,7.856 -18.629,17.18 l 13.485,7.637 c 5.421,-9.082 6.238,-20.051 5.144,-24.817 z" transform="scale(1.3333333)" style="fill:url(#Id2b7148c8ab246e3a8ff3729d90644e320251106132945);stroke:none" /> </g>
</svg>

