<?xml version="1.0" encoding="UTF-8" standalone="no"?> <svg version="1.1" id="Idc82408ff2d144ab9d2184533b7bc3e620251110123031" width="100" height="100" viewBox="0 0 100 100" xmlns="http://www.w3.org/2000/svg" xmlns:svg="http://www.w3.org/2000/svg"> <defs id="I84877a51da7e448191d55617913a44d620251110123031" /> <g id="I90ecbf93836f48fea43a4f3535b7b46620251110123031"> <path id="Ic7be52e37d2c42eb96067afb4240308f20251110123031" d="m 54.688,37.5 c 9.492,0 17.187,7.695 17.187,17.188 0,9.492 -7.695,17.187 -17.187,17.187 C 45.195,71.875 37.5,64.18 37.5,54.688 37.5,45.195 45.195,37.5 54.688,37.5 Z M 42.969,6.25 C 46.852,6.25 50,9.398 50,13.281 v 21.637 c -1.648,0.391 -3.223,0.98 -4.688,1.746 V 13.281 c 0,-1.293 -1.05,-2.343 -2.343,-2.343 H 19.531 c -1.293,0 -2.343,1.05 -2.343,2.343 v 48.438 c 0,1.293 1.05,2.343 2.343,2.343 l 17.133,0.004 c 0.898,1.723 2.035,3.297 3.367,4.688 L 19.531,68.75 C 15.648,68.75 12.5,65.602 12.5,61.719 V 13.281 c 0,-3.883 3.148,-7.031 7.031,-7.031 z m 4.195,40.52 -0.215,0.179 -0.179,0.219 c -0.372,0.531 -0.372,1.242 0,1.777 l 0.179,0.215 5.531,5.531 -5.523,5.52 -0.18,0.215 c -0.371,0.535 -0.371,1.246 0,1.777 l 0.18,0.219 0.215,0.18 c 0.535,0.367 1.246,0.367 1.777,0 l 0.219,-0.18 5.52,-5.524 5.531,5.528 0.215,0.183 c 0.531,0.368 1.242,0.368 1.777,0 l 0.215,-0.183 0.183,-0.215 c 0.368,-0.531 0.368,-1.242 0,-1.777 l -0.183,-0.215 -5.528,-5.528 5.536,-5.531 0.183,-0.215 c 0.367,-0.535 0.367,-1.246 0,-1.777 L 62.434,46.949 62.219,46.77 c -0.531,-0.368 -1.242,-0.368 -1.778,0 L 60.227,46.949 54.688,52.48 49.16,46.949 48.941,46.77 c -0.457,-0.317 -1.043,-0.364 -1.539,-0.137 z m -19.824,7.929 7.035,-0.015 c 0,1.617 0.187,3.187 0.543,4.691 l -7.57,0.012 C 26.055,59.391 25,58.34 25,57.047 c 0,-1.293 1.047,-2.344 2.34,-2.348 z" style="fill:currentColor;fill-opacity:1;fill-rule:nonzero;stroke:none" transform="scale(1.3333333)" /> </g>
</svg>

