<?xml version="1.0" encoding="UTF-8" standalone="no"?> <svg version="1.1" id="I968010ac61774aea8c4f85e9e304db4b20251110124420" width="100" height="100" viewBox="0 0 100 100" xmlns="http://www.w3.org/2000/svg" xmlns:svg="http://www.w3.org/2000/svg"> <defs id="I7cce78d405234dac9b8483e9c71f693720251110124420" /> <g id="Ic9a95c38a23345dda02074b22824cda620251110124420"> <path id="I6611bcbb97944f4cac8332da2569454f20251110124420" d="M 6.25,67.188 V 9.375 c 0,-1.727 1.398,-3.125 3.125,-3.125 1.727,0 3.125,1.398 3.125,3.125 v 2.984 h 53.055 c 1.765,0 3.195,1.43 3.195,3.196 0,1.765 -1.43,3.195 -3.195,3.195 H 12.5 v 48.438 c 0,0.863 -0.699,1.562 -1.562,1.562 H 7.812 C 6.949,68.75 6.25,68.051 6.25,67.188 Z m 9.375,-43.75 c 0,-0.864 0.699,-1.563 1.563,-1.563 h 43.75 c 0.863,0 1.562,0.699 1.562,1.563 v 24.218 c 0,6.473 -5.246,11.719 -11.719,11.719 H 27.344 c -6.473,0 -11.719,-5.246 -11.719,-11.719 z m 13.59,13.128 c -0.692,0.594 -1.09,1.461 -1.09,2.372 v 9.5 c 0,0.863 0.699,1.562 1.563,1.562 h 5.468 c 0.43,0 0.782,-0.348 0.782,-0.781 v -3.907 c 0,-0.863 0.699,-1.562 1.562,-1.562 h 3.125 c 0.863,0 1.563,0.699 1.563,1.562 v 3.907 c 0,0.433 0.351,0.781 0.781,0.781 h 5.469 C 49.301,50 50,49.301 50,48.438 v -9.5 c 0,-0.911 -0.398,-1.778 -1.09,-2.372 l -8.832,-7.57 c -0.582,-0.5 -1.449,-0.5 -2.031,0 z" style="fill:currentColor;fill-opacity:1;fill-rule:nonzero;stroke:none" transform="scale(1.3333333)" /> </g>
</svg>

