<?xml version="1.0" encoding="UTF-8" standalone="no"?> <svg version="1.1" id="Iad4ce858fa144363b5ccd518623ca54b20251105191527" width="100" height="100" viewBox="0 0 100 100" xmlns="http://www.w3.org/2000/svg" xmlns:svg="http://www.w3.org/2000/svg"> <defs id="Ieb0d86402a55400dbfd4f3417fa467bf20251105191527" /> <g id="Ic65383ae7a444a72ab86605eb9017c8820251105191527"> <path id="I67aa6656bbf044959ec39c5fe52cd4ef20251105191527" d="m 16.742,13.895 h 41.516 c 0.371,0 0.672,-0.301 0.672,-0.668 V 8.539 c 0,-0.371 -0.301,-0.672 -0.672,-0.672 H 16.742 c -0.371,0 -0.672,0.301 -0.672,0.672 v 4.688 c 0,0.367 0.301,0.668 0.672,0.668 z m 41.516,35.492 c 0.371,0 0.672,-0.301 0.672,-0.672 v -4.688 c 0,-0.367 -0.301,-0.668 -0.672,-0.668 H 16.742 c -0.371,0 -0.672,0.301 -0.672,0.668 v 4.688 c 0,0.371 0.301,0.672 0.672,0.672 z M 70.312,61.105 H 4.688 c -0.368,0 -0.668,0.301 -0.668,0.668 v 4.688 c 0,0.371 0.3,0.672 0.668,0.672 h 65.624 c 0.368,0 0.668,-0.301 0.668,-0.672 v -4.688 c 0,-0.367 -0.3,-0.668 -0.668,-0.668 z m 0,-35.492 H 4.688 c -0.368,0 -0.668,0.301 -0.668,0.672 v 4.688 c 0,0.367 0.3,0.668 0.668,0.668 h 65.624 c 0.368,0 0.668,-0.301 0.668,-0.668 v -4.688 c 0,-0.371 -0.3,-0.672 -0.668,-0.672 z" style="fill:currentColor;fill-opacity:1;fill-rule:nonzero;stroke:none" transform="scale(1.3333333)" /> </g>
</svg>

