<?xml version="1.0" encoding="UTF-8" standalone="no"?> <svg version="1.1" id="I4d0cb85fc9fe49cb996aa6b4e4c7a49320251106102215" width="100" height="100" viewBox="0 0 100 100" xmlns="http://www.w3.org/2000/svg" xmlns:svg="http://www.w3.org/2000/svg"> <defs id="I06b717fa56d848edbfd41debfd5227cf20251106102215" /> <g id="I7902bf0e7d0a402dad7229cf06f3db4720251106102215"> <path id="Ib1b53b3557904ad2bf82d078ef68d2b120251106102215" d="M 66.176,18.801 48.164,0.785 C 47.66,0.285 46.984,0 46.273,0 H 10.715 C 9.234,0 8.035,1.195 8.035,2.68 v 69.64 c 0,1.485 1.199,2.68 2.68,2.68 h 53.57 c 1.481,0 2.68,-1.195 2.68,-2.68 V 20.699 c 0,-0.711 -0.285,-1.398 -0.789,-1.898 z M 60.785,21.93 H 45.035 V 6.176 Z m 0.153,47.043 H 14.062 V 6.027 H 39.34 v 18.078 c 0,1.942 1.574,3.516 3.515,3.516 H 60.938 Z M 37.676,43.199 32.504,34.629 C 32.32,34.328 31.992,34.145 31.641,34.145 h -3.215 c -0.192,0 -0.375,0.05 -0.535,0.156 -0.469,0.293 -0.61,0.914 -0.309,1.39 l 6.887,10.914 -6.981,11.118 c -0.418,0.672 0.067,1.539 0.856,1.539 h 2.886 c 0.352,0 0.668,-0.184 0.856,-0.477 l 5.246,-8.496 5.215,8.488 c 0.183,0.301 0.512,0.477 0.855,0.477 h 3.137 c 0.195,0 0.379,-0.059 0.547,-0.156 0.469,-0.305 0.602,-0.922 0.301,-1.391 L 40.355,46.793 47.496,35.699 c 0.422,-0.668 -0.055,-1.543 -0.848,-1.547 H 43.66 c -0.351,0 -0.676,0.184 -0.863,0.485 z" style="fill:currentColor;fill-opacity:1;fill-rule:nonzero;stroke:none" transform="scale(1.3333333)" /> </g>
</svg>

