<?xml version="1.0" encoding="UTF-8" standalone="no"?> <svg version="1.1" id="Idf684326cc4c4c67b34f967082a2fee220251106103256" width="100" height="100" viewBox="0 0 100 100" xmlns="http://www.w3.org/2000/svg" xmlns:svg="http://www.w3.org/2000/svg"> <defs id="Idb9828875eb24b1cb6d414859c562f5020251106103256" /> <g id="I87a1dbd7d9124e06afb40bebef110d9d20251106103256"> <path id="I5dfc053e54824994b405ac0abe73485620251106103256" d="M 31.523,33.363 C 31.402,33.129 31.16,32.98 30.895,32.98 h -4.083 c -0.109,0 -0.218,0.032 -0.328,0.082 -0.343,0.188 -0.468,0.614 -0.285,0.958 l 7.317,13.484 h -3.801 c -0.383,0 -0.703,0.316 -0.703,0.703 v 2.102 c 0,0.382 0.32,0.703 0.703,0.703 h 5.273 v 2.39 h -5.273 c -0.383,0 -0.703,0.321 -0.703,0.703 v 2.102 c 0,0.387 0.32,0.703 0.703,0.703 h 5.273 v 4.18 c 0,0.383 0.321,0.703 0.703,0.703 h 3.661 c 0.382,0 0.703,-0.32 0.703,-0.703 v -4.18 h 5.297 c 0.394,0 0.703,-0.316 0.687,-0.711 v -2.094 c 0,-0.382 -0.32,-0.703 -0.703,-0.703 h -5.301 v -2.39 h 5.301 c 0.383,0 0.703,-0.321 0.703,-0.703 v -2.102 c 0,-0.387 -0.32,-0.703 -0.703,-0.703 h -3.844 l 7.301,-13.477 c 0.246,-0.468 -0.09,-1.035 -0.621,-1.039 h -4 c -0.262,0 -0.504,0.153 -0.629,0.387 L 37.523,45.25 Z M 64.285,0 H 10.715 C 9.234,0 8.035,1.195 8.035,2.68 v 69.64 c 0,1.485 1.199,2.68 2.68,2.68 h 53.57 c 1.481,0 2.68,-1.195 2.68,-2.68 V 2.68 C 66.965,1.195 65.766,0 64.285,0 Z M 60.938,68.973 H 14.062 V 10.805 l 21.79,17.086 c 0.968,0.761 2.336,0.761 3.304,0 L 60.938,10.805 Z m 0,-62.887 H 58.285 L 37.5,22.375 16.715,6.086 H 14.062 V 6.027 h 46.876 z" style="fill:currentColor;fill-opacity:1;fill-rule:nonzero;stroke:none" transform="scale(1.3333333)" /> </g>
</svg>

