<?xml version="1.0" encoding="UTF-8" standalone="no"?> <svg version="1.1" id="I40176bc7e71848778409489fb533452620251106143238" width="100" height="100" viewBox="0 0 100 100" xmlns="http://www.w3.org/2000/svg" xmlns:svg="http://www.w3.org/2000/svg"> <defs id="Ia77aaea781114935a70e10c73e8b046520251106143238" /> <g id="I7ca4894799ab408683bee1078270309e20251106143238"> <path id="I62a5683c4f9143a1ac322b0296d452f320251106143238" d="m 21.875,21.875 c 0,-3.453 2.797,-6.25 6.25,-6.25 h 18.75 c 3.453,0 6.25,2.797 6.25,6.25 V 25 c 0,3.453 -2.797,6.25 -6.25,6.25 h -18.75 c -3.453,0 -6.25,-2.797 -6.25,-6.25 z m 6.25,-1.563 c -0.863,0 -1.563,0.7 -1.563,1.563 V 25 c 0,0.863 0.7,1.562 1.563,1.562 h 18.75 c 0.863,0 1.563,-0.699 1.563,-1.562 v -3.125 c 0,-0.863 -0.7,-1.563 -1.563,-1.563 z m -2.344,25 c 2.157,0 3.907,-1.75 3.907,-3.906 0,-2.156 -1.75,-3.906 -3.907,-3.906 -2.156,0 -3.906,1.75 -3.906,3.906 0,2.156 1.75,3.906 3.906,3.906 z m 3.907,8.594 c 0,2.156 -1.75,3.906 -3.907,3.906 -2.156,0 -3.906,-1.75 -3.906,-3.906 0,-2.156 1.75,-3.906 3.906,-3.906 2.157,0 3.907,1.75 3.907,3.906 z M 22.656,68.75 h 15.16 c -1.414,-1.387 -2.64,-2.961 -3.64,-4.688 h -11.52 c -3.019,0 -5.468,-2.449 -5.468,-5.468 V 16.406 c 0,-3.019 2.449,-5.468 5.468,-5.468 h 29.688 c 3.019,0 5.468,2.449 5.468,5.468 v 15.348 c 1.376,0.301 2.7,0.73 3.961,1.273 0.11,-0.172 0.227,-0.336 0.352,-0.492 0.117,-0.148 0.242,-0.289 0.375,-0.426 V 16.406 C 62.5,10.797 57.953,6.25 52.344,6.25 H 22.656 C 17.047,6.25 12.5,10.797 12.5,16.406 v 42.188 c 0,5.609 4.547,10.156 10.156,10.156 z m 43.75,-21.875 c 1.293,0 2.344,-1.051 2.344,-2.344 v -8.593 c 0,-1.293 -1.051,-2.344 -2.344,-2.344 -0.742,0 -1.406,0.347 -1.836,0.886 -0.316,0.399 -0.508,0.907 -0.508,1.458 v 1.957 c -3.078,-2.215 -6.859,-3.52 -10.937,-3.52 -10.355,0 -18.75,8.395 -18.75,18.75 0,10.355 8.395,18.75 18.75,18.75 10.355,0 18.75,-8.395 18.75,-18.75 0,-1.293 -1.051,-2.344 -2.344,-2.344 -1.293,0 -2.343,1.051 -2.343,2.344 0,7.766 -6.297,14.063 -14.063,14.063 -7.766,0 -14.063,-6.297 -14.063,-14.063 0,-7.766 6.297,-14.063 14.063,-14.063 3.328,0 6.379,1.153 8.789,3.083 0.008,0.007 0.016,0.011 0.024,0.019 0.007,0.008 0.019,0.016 0.027,0.024 h -4.153 c -1.292,0 -2.343,1.05 -2.343,2.343 0,1.293 1.051,2.344 2.343,2.344 z" style="fill:currentColor;fill-opacity:1;fill-rule:nonzero;stroke:none" transform="scale(1.3333333)" /> </g>
</svg>

