<?xml version="1.0" encoding="UTF-8" standalone="no"?> <svg version="1.1" id="Iff620f08eae748aab4f54ce95b69360f20251106105458" width="100" height="100" viewBox="0 0 100 100" xmlns="http://www.w3.org/2000/svg" xmlns:svg="http://www.w3.org/2000/svg"> <defs id="I61b107bf94ce42f5bff3751cd07aeb2720251106105458" /> <g id="I7a2570d249664c359cc5384f103cfc1720251106105458"> <path id="I54b73ae5d5594806b245e9f65b9b65a020251106105458" d="M 67.633,6.695 H 7.367 c -0.371,0 -0.672,0.301 -0.672,0.672 v 4.688 c 0,0.367 0.301,0.668 0.672,0.668 h 60.266 c 0.371,0 0.672,-0.301 0.672,-0.668 V 7.367 c 0,-0.371 -0.301,-0.672 -0.672,-0.672 z M 12.055,20.59 H 7.367 c -0.371,0 -0.672,0.305 -0.672,0.672 v 4.687 c 0,0.367 0.301,0.668 0.672,0.668 h 4.688 c 0.367,0 0.668,-0.301 0.668,-0.668 v -4.687 c 0,-0.367 -0.301,-0.672 -0.668,-0.672 z m 0,41.687 H 7.367 c -0.371,0 -0.672,0.301 -0.672,0.668 v 4.688 c 0,0.371 0.301,0.672 0.672,0.672 h 4.688 c 0.367,0 0.668,-0.301 0.668,-0.672 v -4.688 c 0,-0.367 -0.301,-0.668 -0.668,-0.668 z m 0,-27.789 H 7.367 c -0.371,0 -0.672,0.301 -0.672,0.668 v 4.688 c 0,0.367 0.301,0.668 0.672,0.668 h 4.688 c 0.367,0 0.668,-0.301 0.668,-0.668 v -4.688 c 0,-0.367 -0.301,-0.668 -0.668,-0.668 z m 0,13.895 H 7.367 c -0.371,0 -0.672,0.301 -0.672,0.668 v 4.687 c 0,0.367 0.301,0.672 0.672,0.672 h 4.688 c 0.367,0 0.668,-0.305 0.668,-0.672 v -4.687 c 0,-0.367 -0.301,-0.668 -0.668,-0.668 z M 25.949,34.488 h -4.687 c -0.367,0 -0.672,0.301 -0.672,0.668 v 4.688 c 0,0.367 0.305,0.668 0.672,0.668 h 4.687 c 0.367,0 0.668,-0.301 0.668,-0.668 v -4.688 c 0,-0.367 -0.301,-0.668 -0.668,-0.668 z m 0,27.789 h -4.687 c -0.367,0 -0.672,0.301 -0.672,0.668 v 4.688 c 0,0.371 0.305,0.672 0.672,0.672 h 4.687 c 0.367,0 0.668,-0.301 0.668,-0.672 v -4.688 c 0,-0.367 -0.301,-0.668 -0.668,-0.668 z m 27.789,0 h -4.687 c -0.367,0 -0.668,0.301 -0.668,0.668 v 4.688 c 0,0.371 0.301,0.672 0.668,0.672 h 4.687 c 0.367,0 0.672,-0.301 0.672,-0.672 v -4.688 c 0,-0.367 -0.305,-0.668 -0.672,-0.668 z m 0,-27.789 h -4.687 c -0.367,0 -0.668,0.301 -0.668,0.668 v 4.688 c 0,0.367 0.301,0.668 0.668,0.668 h 4.687 c 0.367,0 0.672,-0.301 0.672,-0.668 v -4.688 c 0,-0.367 -0.305,-0.668 -0.672,-0.668 z m 13.895,0 h -4.688 c -0.367,0 -0.668,0.301 -0.668,0.668 v 4.688 c 0,0.367 0.301,0.668 0.668,0.668 h 4.688 c 0.371,0 0.672,-0.301 0.672,-0.668 v -4.688 c 0,-0.367 -0.301,-0.668 -0.672,-0.668 z m -27.789,0 h -4.688 c -0.367,0 -0.668,0.301 -0.668,0.668 v 4.688 c 0,0.367 0.301,0.668 0.668,0.668 h 4.688 c 0.367,0 0.668,-0.301 0.668,-0.668 v -4.688 c 0,-0.367 -0.301,-0.668 -0.668,-0.668 z m 27.789,27.789 h -4.688 c -0.367,0 -0.668,0.301 -0.668,0.668 v 4.688 c 0,0.371 0.301,0.672 0.668,0.672 h 4.688 c 0.371,0 0.672,-0.301 0.672,-0.672 v -4.688 c 0,-0.367 -0.301,-0.668 -0.672,-0.668 z m -27.789,0 h -4.688 c -0.367,0 -0.668,0.301 -0.668,0.668 v 4.688 c 0,0.371 0.301,0.672 0.668,0.672 h 4.688 c 0.367,0 0.668,-0.301 0.668,-0.672 v -4.688 c 0,-0.367 -0.301,-0.668 -0.668,-0.668 z M 67.633,20.59 h -4.688 c -0.367,0 -0.668,0.305 -0.668,0.672 v 4.687 c 0,0.367 0.301,0.668 0.668,0.668 h 4.688 c 0.371,0 0.672,-0.301 0.672,-0.668 v -4.687 c 0,-0.367 -0.301,-0.672 -0.672,-0.672 z m -27.789,0 h -4.688 c -0.367,0 -0.668,0.305 -0.668,0.672 v 4.687 c 0,0.367 0.301,0.668 0.668,0.668 h 4.688 c 0.367,0 0.668,-0.301 0.668,-0.668 v -4.687 c 0,-0.367 -0.301,-0.672 -0.668,-0.672 z m 27.789,27.793 h -4.688 c -0.367,0 -0.668,0.301 -0.668,0.668 v 4.687 c 0,0.367 0.301,0.672 0.668,0.672 h 4.688 c 0.371,0 0.672,-0.305 0.672,-0.672 v -4.687 c 0,-0.367 -0.301,-0.668 -0.672,-0.668 z m -27.789,0 h -4.688 c -0.367,0 -0.668,0.301 -0.668,0.668 v 4.687 c 0,0.367 0.301,0.672 0.668,0.672 h 4.688 c 0.367,0 0.668,-0.305 0.668,-0.672 v -4.687 c 0,-0.367 -0.301,-0.668 -0.668,-0.668 z" style="fill:currentColor;fill-opacity:1;fill-rule:nonzero;stroke:none" transform="scale(1.3333333)" /> </g>
</svg>

