<?xml version="1.0" encoding="UTF-8" standalone="no"?> <svg version="1.1" id="I339d240c2ddb480eb785ce81a557be0a20251106102216" width="100" height="100" viewBox="0 0 100 100" xmlns="http://www.w3.org/2000/svg" xmlns:svg="http://www.w3.org/2000/svg"> <defs id="Iad1e5f41ba5d4b789f8836bfbc9f369820251106102216" /> <g id="Ifd41b8a8f2ad48bd98ea349d4a42ace720251106102216"> <path id="I767c4888b59242bb8b557a128faf563520251106102216" d="m 72.32,31.809 h -9.039 v -9.508 c 0,-1.485 -1.195,-2.68 -2.679,-2.68 H 34.234 L 24.418,10.23 C 24.293,10.113 24.129,10.047 23.957,10.043 H 2.68 C 1.195,10.043 0,11.242 0,12.723 v 49.554 c 0,1.481 1.195,2.68 2.68,2.68 h 58.425 c 1.086,0 2.075,-0.664 2.485,-1.676 L 74.809,35.492 C 74.934,35.172 75,34.828 75,34.488 75,33.004 73.805,31.809 72.32,31.809 Z M 6.027,16.07 h 15.778 l 10.011,9.578 h 25.438 v 6.161 H 14.566 c -1.089,0 -2.078,0.66 -2.488,1.671 l -6.051,15 z M 59.203,58.93 H 7.953 L 16.598,37.5 h 51.261 z" style="fill:currentColor;fill-opacity:1;fill-rule:nonzero;stroke:none" transform="scale(1.3333333)" /> </g>
</svg>

