<?xml version="1.0" encoding="UTF-8" standalone="no"?> <svg version="1.1" id="I44462a1814884dd6aeb3dc59bfec622820251106164750" width="100" height="100" viewBox="0 0 100 100" xmlns="http://www.w3.org/2000/svg" xmlns:svg="http://www.w3.org/2000/svg"> <defs id="I78c82664f9204a80a2d600563a30fbe420251106164750" /> <g id="Ic1c3c420bc4b47799afa10f688ebda6520251106164750"> <path id="I542e0ef5dff14c629a2dbb5bb6e499ff20251106164750" d="M 7.5,11.25 C 7.5,9.18 9.18,7.5 11.25,7.5 H 30 c 2.07,0 3.75,1.68 3.75,3.75 v 7.5 c 0,2.07 -1.68,3.75 -3.75,3.75 H 11.25 C 9.18,22.5 7.5,20.82 7.5,18.75 Z m 22.5,0 H 11.25 v 7.5 H 30 Z M 7.5,33.75 C 7.5,31.68 9.18,30 11.25,30 H 30 c 2.07,0 3.75,1.68 3.75,3.75 v 7.5 C 33.75,43.32 32.07,45 30,45 H 11.25 C 9.18,45 7.5,43.32 7.5,41.25 Z m 22.5,0 H 11.25 v 7.5 H 30 Z M 11.25,52.5 c -2.07,0 -3.75,1.68 -3.75,3.75 v 7.5 c 0,2.07 1.68,3.75 3.75,3.75 H 30 c 2.07,0 3.75,-1.68 3.75,-3.75 v -7.5 C 33.75,54.18 32.07,52.5 30,52.5 Z m 0,3.75 H 30 v 7.5 H 11.25 Z m 30,-45 C 41.25,9.18 42.93,7.5 45,7.5 h 18.75 c 2.07,0 3.75,1.68 3.75,3.75 v 7.5 c 0,2.07 -1.68,3.75 -3.75,3.75 H 45 c -2.07,0 -3.75,-1.68 -3.75,-3.75 z m 22.5,0 H 45 v 7.5 H 63.75 Z M 45,30 c -2.07,0 -3.75,1.68 -3.75,3.75 v 7.5 c 0,2.07 1.68,3.75 3.75,3.75 h 18.75 c 2.07,0 3.75,-1.68 3.75,-3.75 v -7.5 C 67.5,31.68 65.82,30 63.75,30 Z m 0,3.75 h 18.75 v 7.5 H 45 Z" style="fill:currentColor;fill-opacity:1;fill-rule:nonzero;stroke:none" transform="scale(1.3333333)" /> </g>
</svg>

