<?xml version="1.0" encoding="UTF-8" standalone="no"?> <svg version="1.1" id="Ia60c6f4d2a33488ea2c97a3a58e347a520251106125937" width="100" height="100" viewBox="0 0 100 100" xmlns="http://www.w3.org/2000/svg" xmlns:svg="http://www.w3.org/2000/svg"> <defs id="I4388da00c7504840adf4e517e792bb5f20251106125937" /> <g id="Iae5557fe760249d8b82f19ea7fe7e98c20251106125937"> <path id="I7fd5c660e77749f28c7577d56af8a77620251106125937" d="m 23.965,46.633 c 1.219,-1.219 3.199,-1.219 4.418,0 1.222,1.222 1.222,3.199 0,4.422 l -8.336,8.332 H 25 c 1.602,0 2.922,1.207 3.105,2.761 l 0.02,0.364 c 0,1.726 -1.398,3.125 -3.125,3.125 H 12.5 c -1.727,0 -3.125,-1.399 -3.125,-3.125 v -12.5 c 0,-1.723 1.398,-3.125 3.125,-3.125 1.727,0 3.125,1.402 3.125,3.125 v 4.961 z m 26.051,19.004 c -1.727,0 -3.125,-1.399 -3.125,-3.125 0,-1.723 1.398,-3.125 3.125,-3.125 h 4.945 l -8.328,-8.336 c -1.125,-1.125 -1.211,-2.899 -0.258,-4.125 l 0.262,-0.293 c 1.218,-1.219 3.199,-1.219 4.418,0.004 l 8.336,8.343 v -4.968 c 0,-1.602 1.207,-2.922 2.761,-3.102 l 0.364,-0.023 c 1.726,0 3.125,1.402 3.125,3.125 v 12.5 c 0,1.726 -1.399,3.125 -3.125,3.125 z M 25,9.375 c 1.727,0 3.125,1.398 3.125,3.125 0,1.727 -1.398,3.125 -3.125,3.125 h -4.945 l 8.328,8.34 c 1.125,1.125 1.211,2.898 0.258,4.125 l -0.262,0.293 c -1.219,1.219 -3.199,1.219 -4.418,-0.004 l -8.336,-8.34 V 25 c 0,1.602 -1.207,2.922 -2.762,3.105 L 12.5,28.125 C 10.773,28.125 9.375,26.727 9.375,25 V 12.5 c 0,-1.727 1.398,-3.125 3.125,-3.125 z m 37.516,0 c 1.726,0 3.125,1.398 3.125,3.125 V 25 c 0,1.727 -1.399,3.125 -3.125,3.125 -1.727,0 -3.125,-1.398 -3.125,-3.125 v -4.961 l -8.336,8.344 c -1.129,1.125 -2.899,1.211 -4.125,0.258 l -0.297,-0.258 c -1.219,-1.223 -1.219,-3.199 0,-4.422 l 8.332,-8.336 h -4.949 c -1.602,0 -2.922,-1.207 -3.106,-2.762 L 46.891,12.5 c 0,-1.727 1.398,-3.125 3.125,-3.125 z" style="fill:currentColor;fill-opacity:1;fill-rule:nonzero;stroke:none" transform="scale(1.3333333)" /> </g>
</svg>

