<?xml version="1.0" encoding="UTF-8" standalone="no"?> <svg version="1.1" id="I5024e729ae6b4632b217363dadf00e6f20251106125938" width="100" height="100" viewBox="0 0 100 100" xmlns="http://www.w3.org/2000/svg" xmlns:svg="http://www.w3.org/2000/svg"> <defs id="I1fcf4b80988d455bbf17e7ebcd86ab1220251106125938" /> <g id="Ic5f50b37a39144c4bd27d826d551c1c920251106125938"> <path id="I861b67e363c243c0bd2a97cecf1135de20251106125938" d="m 37.5,10.938 c 1.727,0 3.125,1.398 3.125,3.124 0,1.727 -1.398,3.126 -3.125,3.126 H 21.605 L 57.812,53.395 V 37.5 c 0,-1.727 1.399,-3.125 3.126,-3.125 1.726,0 3.124,1.398 3.124,3.125 v 23.438 c 0,1.726 -1.398,3.124 -3.124,3.124 H 37.5 c -1.727,0 -3.125,-1.398 -3.125,-3.124 0,-1.727 1.398,-3.126 3.125,-3.126 H 53.395 L 17.188,21.605 V 37.5 c 0,1.727 -1.399,3.125 -3.126,3.125 -1.726,0 -3.124,-1.398 -3.124,-3.125 V 14.062 c 0,-1.726 1.398,-3.124 3.124,-3.124 z" style="fill:currentColor;fill-opacity:1;fill-rule:nonzero;stroke:none" transform="scale(1.3333333)" /> </g>
</svg>

