<?xml version="1.0" encoding="UTF-8" standalone="no"?> <svg version="1.1" id="I9969e45b0f194ce3b2356ef452c386d520251106143239" width="100" height="100" viewBox="0 0 100 100" xmlns="http://www.w3.org/2000/svg" xmlns:svg="http://www.w3.org/2000/svg"> <defs id="I12cb43eb787343a7b87f89a860863b2f20251106143239" /> <g id="Ib170bc653e2d4ec080d9b524deb6419820251106143239"> <path id="I444a6ba3685f46018340d9810ea316fd20251106143239" d="m 43.516,7.82 c 2.492,0 4.8,1.321 6.062,3.473 l 2.543,4.332 h 6.473 c 5.609,0 10.156,4.547 10.156,10.156 v 14.25 C 67.363,38.699 65.785,37.562 64.062,36.664 V 25.781 c 0,-3.019 -2.449,-5.469 -5.468,-5.469 h -7.813 c -0.832,0 -1.601,-0.441 -2.019,-1.156 L 45.535,13.664 C 45.113,12.949 44.344,12.508 43.516,12.508 H 31.633 c -0.699,0 -1.356,0.312 -1.797,0.84 l -0.199,0.277 -3.422,5.57 c -0.426,0.696 -1.18,1.117 -1.996,1.117 h -7.813 c -3.019,0 -5.468,2.45 -5.468,5.469 v 29.688 c 0,3.019 2.449,5.469 5.468,5.469 h 18.949 c 0.54,1.667 1.286,3.238 2.211,4.687 H 16.406 C 10.797,65.625 6.25,61.078 6.25,55.469 V 25.781 c 0,-5.609 4.547,-10.156 10.156,-10.156 h 6.5 l 2.735,-4.453 C 26.918,9.09 29.188,7.82 31.633,7.82 Z M 37.5,25 c 6.254,0 11.555,4.082 13.383,9.73 -1.563,0.297 -3.063,0.77 -4.473,1.403 -1.23,-3.742 -4.754,-6.445 -8.91,-6.445 -5.18,0 -9.375,4.195 -9.375,9.374 0,4.465 3.125,8.204 7.305,9.145 -0.492,1.465 -0.821,3 -0.969,4.59 C 28.156,51.406 23.438,45.785 23.438,39.062 23.438,31.297 29.734,25 37.5,25 Z m 34.375,29.688 c 0,9.492 -7.695,17.187 -17.187,17.187 C 45.195,71.875 37.5,64.18 37.5,54.688 37.5,45.195 45.195,37.5 54.688,37.5 c 9.492,0 17.187,7.695 17.187,17.188 z m -18.75,9.374 c 0,0.864 0.699,1.563 1.563,1.563 0.863,0 1.562,-0.699 1.562,-1.563 V 49.086 l 5.145,5.144 c 0.609,0.61 1.601,0.61 2.21,0 0.61,-0.609 0.61,-1.601 0,-2.21 l -7.812,-7.813 c -0.609,-0.609 -1.602,-0.609 -2.211,0 L 45.77,52.02 c -0.61,0.609 -0.61,1.601 0,2.21 0.609,0.61 1.601,0.61 2.21,0 l 5.145,-5.144 z" style="fill:currentColor;fill-opacity:1;fill-rule:nonzero;stroke:none" transform="scale(1.3333333)" /> </g>
</svg>

