<?xml version="1.0" encoding="UTF-8" standalone="no"?> <svg version="1.1" id="I97e72dea04a8446ba4608f98c4955bf020251106152729" width="100" height="100" viewBox="0 0 100 100" xmlns="http://www.w3.org/2000/svg" xmlns:svg="http://www.w3.org/2000/svg"> <defs id="Ida932f587350425ba875be5b1278317e20251106152729" /> <g id="I05e50db415644b15b254831ebcda89be20251106152729"> <path id="I455cc0647aa04afc957f0d311c72033520251106152729" d="m 16.406,15.625 c -5.609,0 -10.156,4.547 -10.156,10.156 v 23.438 c 0,5.609 4.547,10.156 10.156,10.156 H 34.375 V 54.688 H 16.406 c -3.019,0 -5.468,-2.45 -5.468,-5.469 V 34.375 H 68.75 v -8.594 c 0,-5.609 -4.547,-10.156 -10.156,-10.156 z m 47.656,10.156 v 3.907 H 10.938 v -3.907 c 0,-3.019 2.449,-5.469 5.468,-5.469 h 42.188 c 3.019,0 5.468,2.45 5.468,5.469 z M 42.188,46.094 h 1.562 v -3.125 c 0,-3.02 2.449,-5.469 5.469,-5.469 h 10.937 c 3.02,0 5.469,2.449 5.469,5.469 v 3.125 h 1.563 c 2.589,0 4.687,2.097 4.687,4.687 V 56.25 H 62.5 v -1.562 c 0,-0.864 -0.699,-1.563 -1.562,-1.563 -0.864,0 -1.563,0.699 -1.563,1.563 V 56.25 H 50 v -1.562 c 0,-0.864 -0.699,-1.563 -1.562,-1.563 -0.864,0 -1.563,0.699 -1.563,1.563 V 56.25 H 37.5 v -5.469 c 0,-2.59 2.098,-4.687 4.688,-4.687 z m 7.031,-3.906 c -0.43,0 -0.781,0.351 -0.781,0.781 v 3.125 h 12.5 v -3.125 c 0,-0.43 -0.352,-0.781 -0.782,-0.781 z m 10.156,18.75 V 59.375 H 50 v 1.563 c 0,0.863 -0.699,1.562 -1.562,1.562 -0.864,0 -1.563,-0.699 -1.563,-1.562 V 59.375 H 37.5 v 7.813 c 0,2.589 2.098,4.687 4.688,4.687 h 25 c 2.589,0 4.687,-2.098 4.687,-4.687 V 59.375 H 62.5 v 1.563 c 0,0.863 -0.699,1.562 -1.562,1.562 -0.864,0 -1.563,-0.699 -1.563,-1.562 z" style="fill:currentColor;fill-opacity:1;fill-rule:nonzero;stroke:none" transform="scale(1.3333333)" /> </g>
</svg>

