<?xml version="1.0" encoding="UTF-8" standalone="no"?> <svg version="1.1" id="I0804db4538824b0296d6fcf03e5b296620251110124422" width="100" height="100" viewBox="0 0 100 100" xmlns="http://www.w3.org/2000/svg" xmlns:svg="http://www.w3.org/2000/svg"> <defs id="I40933e2f89564abd903e492d7a827ae020251110124422" /> <g id="Ia575295e187f4ee99238794a52805c8420251110124422"> <path id="I2ca8a24f60bf456cb4ae3296abb1539420251110124422" d="m 14.844,12.5 c -4.746,0 -8.594,3.848 -8.594,8.594 v 32.812 c 0,4.746 3.848,8.594 8.594,8.594 h 21.09 C 35.312,61.02 34.867,59.449 34.613,57.812 H 14.844 c -2.156,0 -3.906,-1.75 -3.906,-3.906 V 21.094 c 0,-2.156 1.75,-3.906 3.906,-3.906 h 45.312 c 2.156,0 3.906,1.75 3.906,3.906 v 15.57 c 1.723,0.898 3.301,2.035 4.688,3.367 V 21.094 C 68.75,16.348 64.902,12.5 60.156,12.5 Z M 23.438,25 c -2.59,0 -4.688,2.098 -4.688,4.688 0,2.589 2.098,4.687 4.688,4.687 h 28.124 c 2.59,0 4.688,-2.098 4.688,-4.687 C 56.25,27.098 54.152,25 51.562,25 Z M 71.875,54.688 C 71.875,45.195 64.18,37.5 54.688,37.5 45.195,37.5 37.5,45.195 37.5,54.688 c 0,9.492 7.695,17.187 17.188,17.187 9.492,0 17.187,-7.695 17.187,-17.187 z m -15.625,1.562 0.004,7.824 c 0,0.864 -0.699,1.563 -1.563,1.563 -0.863,0 -1.562,-0.699 -1.562,-1.563 L 53.125,56.25 h -7.828 c -0.859,0 -1.559,-0.699 -1.559,-1.562 0,-0.864 0.7,-1.563 1.559,-1.563 h 7.828 v -7.816 c 0,-0.864 0.699,-1.563 1.563,-1.563 0.863,0 1.562,0.699 1.562,1.563 v 7.816 h 7.801 c 0.863,0 1.562,0.699 1.562,1.563 0,0.863 -0.699,1.562 -1.562,1.562 z" style="fill:currentColor;fill-opacity:1;fill-rule:nonzero;stroke:none" transform="scale(1.3333333)" /> </g>
</svg>

