<?xml version="1.0" encoding="UTF-8" standalone="no"?> <svg version="1.1" id="I0d0846c368ef46169a5e1a7ea564f89d20251110123029" width="100" height="100" viewBox="0 0 100 100" xmlns="http://www.w3.org/2000/svg" xmlns:svg="http://www.w3.org/2000/svg"> <defs id="I8b8215672e59437ca58c37928752068d20251110123029" /> <g id="I2c2eda5d12c044e498c0414747c4330620251110123029"> <path id="I138da8a4090343d4b60ebb1f05df529220251110123029" d="m 57.812,40.625 c 7.766,0 14.063,6.297 14.063,14.063 0,7.765 -6.297,14.062 -14.063,14.062 -7.765,0 -14.062,-6.297 -14.062,-14.062 0,-7.766 6.297,-14.063 14.062,-14.063 z m 0,6.25 c -0.863,0 -1.562,0.699 -1.562,1.563 v 6.25 c 0,0.863 0.699,1.562 1.562,1.562 H 62.5 c 0.863,0 1.562,-0.699 1.562,-1.562 0,-0.864 -0.699,-1.563 -1.562,-1.563 h -3.125 v -4.687 c 0,-0.864 -0.699,-1.563 -1.563,-1.563 z m 0.786,-31.25 c 5.609,0 10.152,4.547 10.152,10.156 V 41.426 C 67.355,40.277 65.773,39.348 64.062,38.68 V 25.781 c 0,-3.019 -2.445,-5.469 -5.464,-5.469 H 16.402 c -3.019,0 -5.464,2.45 -5.464,5.469 v 23.438 c 0,3.019 2.449,5.469 5.468,5.469 h 24.219 c 0,1.624 0.227,3.195 0.648,4.687 H 16.406 C 10.797,59.375 6.25,54.828 6.25,49.219 V 25.781 c 0,-5.609 4.543,-10.156 10.152,-10.156 z M 24.125,31.938 c 0.914,-0.918 2.398,-0.918 3.313,0 0.917,0.914 0.917,2.398 0,3.312 l -2.247,2.25 2.247,2.246 c 0.914,0.914 0.914,2.399 0,3.313 -0.915,0.918 -2.399,0.918 -3.313,0 l -2.25,-2.247 -2.25,2.25 c -0.914,0.918 -2.398,0.918 -3.313,0 -0.917,-0.914 -0.917,-2.398 0,-3.312 l 2.25,-2.25 -2.25,-2.25 c -0.914,-0.914 -0.914,-2.398 0,-3.312 0.915,-0.915 2.399,-0.915 3.313,0 l 2.25,2.25 z m 17.187,0 c 0.915,-0.918 2.399,-0.918 3.313,0 0.918,0.914 0.918,2.398 0,3.312 l -2.246,2.25 2.246,2.246 c 0.914,0.914 0.914,2.399 0,3.313 -0.914,0.918 -2.398,0.918 -3.313,0 l -2.25,-2.247 -2.25,2.25 c -0.914,0.918 -2.398,0.918 -3.312,0 -0.918,-0.914 -0.918,-2.398 0,-3.312 L 35.75,37.5 33.5,35.25 c -0.914,-0.914 -0.914,-2.398 0,-3.312 0.914,-0.915 2.398,-0.915 3.312,0 l 2.25,2.25 z" style="fill:currentColor;fill-opacity:1;fill-rule:nonzero;stroke:none" transform="scale(1.3333333)" /> </g>
</svg>

