<?xml version="1.0" encoding="UTF-8" standalone="no"?> <svg version="1.1" id="I61adeedaad8a483aabbf25a2d47f90c620251106155156" width="100" height="100" viewBox="0 0 100 100" xmlns="http://www.w3.org/2000/svg" xmlns:svg="http://www.w3.org/2000/svg"> <defs id="I9d17907a9afe461ea8d3f4c89d2e845120251106155156" /> <g id="Ic62b2d5dc3b44bbc9d7f7ee2d801c4d020251106155156"> <path id="I8f5c11c432d241119cd1f39c7d6d20ea20251106155156" d="m 57.812,62.5 c 0,0.859 -0.699,1.562 -1.562,1.562 H 40.625 v 3.126 c 0,0.535 -0.055,1.058 -0.156,1.562 H 56.25 c 3.449,0 6.25,-2.801 6.25,-6.25 V 30.711 c 0,-1.656 -0.66,-3.246 -1.832,-4.418 L 42.453,8.082 C 42.406,8.035 42.352,7.992 42.301,7.953 42.262,7.926 42.223,7.895 42.188,7.863 41.965,7.664 41.746,7.465 41.504,7.301 41.426,7.246 41.336,7.203 41.25,7.164 41.203,7.137 41.152,7.113 41.102,7.086 41.051,7.059 41,7.027 40.945,6.996 40.777,6.898 40.609,6.801 40.43,6.727 39.812,6.469 39.148,6.34 38.477,6.293 38.418,6.289 38.355,6.281 38.293,6.273 38.211,6.262 38.125,6.25 38.039,6.25 H 18.75 c -3.449,0 -6.25,2.801 -6.25,6.25 v 22.199 c 0.746,-0.211 1.531,-0.324 2.344,-0.324 h 2.344 V 12.5 c 0,-0.859 0.699,-1.562 1.562,-1.562 H 37.5 V 25 c 0,3.449 2.801,6.25 6.25,6.25 H 57.812 Z M 42.188,14.441 54.305,26.562 H 43.75 c -0.863,0 -1.562,-0.703 -1.562,-1.562 z M 9.375,46.875 H 7.812 c -2.589,0 -4.687,2.098 -4.687,4.687 v 15.626 c 0,2.589 2.098,4.687 4.687,4.687 h 25 c 2.59,0 4.688,-2.098 4.688,-4.687 V 51.562 c 0,-2.589 -2.098,-4.687 -4.688,-4.687 H 31.25 v -3.906 c 0,-3.02 -2.449,-5.469 -5.469,-5.469 H 14.844 c -3.02,0 -5.469,2.449 -5.469,5.469 z m 4.687,-3.906 c 0,-0.43 0.352,-0.781 0.782,-0.781 h 10.937 c 0.43,0 0.781,0.351 0.781,0.781 v 3.906 h -12.5 z" style="fill:currentColor;fill-opacity:1;fill-rule:nonzero;stroke:none" transform="scale(1.3333333)" /> </g>
</svg>

