<?xml version="1.0" encoding="UTF-8" standalone="no"?> <svg version="1.1" id="I7450ea8e381946349c76ebdcc55bfebc20251106155157" width="100" height="100" viewBox="0 0 100 100" xmlns="http://www.w3.org/2000/svg" xmlns:svg="http://www.w3.org/2000/svg"> <defs id="I91943d20d3784a18a67dcb48c4ca923120251106155157" /> <g id="I3966cfbd72d1451f98ebe5e1042e832220251106155157"> <path id="I59fa5bd703ce460bb88e6ba529d10bbf20251106155157" d="M 37.5,25 V 6.25 H 17.188 c -2.59,0 -4.688,2.098 -4.688,4.688 v 53.124 c 0,2.59 2.098,4.688 4.688,4.688 h 18.648 c 0.219,0 0.434,-0.016 0.648,-0.047 C 33.707,64.059 34.316,57.949 38.32,53.945 L 53.945,38.32 c 2.364,-2.359 5.457,-3.543 8.555,-3.543 V 31.25 H 43.75 C 40.297,31.25 37.5,28.453 37.5,25 Z m 4.688,0 V 7.812 l 18.75,18.75 H 43.75 c -0.863,0 -1.562,-0.699 -1.562,-1.562 z m 26.656,15.531 c -3.504,-3.504 -9.184,-3.504 -12.688,0 L 40.531,56.156 c -3.504,3.504 -3.504,9.184 0,12.688 3.504,3.508 9.184,3.508 12.688,0 L 68.844,53.219 c 3.504,-3.504 3.504,-9.184 0,-12.688 z m -9.375,3.313 c 1.676,-1.672 4.386,-1.672 6.062,0 1.672,1.676 1.672,4.39 0,6.062 L 59.375,56.062 53.312,50 Z m -6.25,15.437 c 0.918,0.914 0.918,2.399 0,3.313 l -3.125,3.125 c -0.914,0.918 -2.399,0.918 -3.313,0 -0.918,-0.914 -0.918,-2.399 0,-3.313 l 3.125,-3.125 c 0.914,-0.918 2.399,-0.918 3.313,0 z" style="fill:currentColor;fill-opacity:1;fill-rule:nonzero;stroke:none" transform="scale(1.3333333)" /> </g>
</svg>

