<?xml version="1.0" encoding="UTF-8" standalone="no"?> <svg version="1.1" id="Id352e40df2384f949d13bb1cc48c711520251110123030" width="100" height="100" viewBox="0 0 100 100" xmlns="http://www.w3.org/2000/svg" xmlns:svg="http://www.w3.org/2000/svg"> <defs id="Idc039eaebd1f4c698a708d44a504729020251110123030" /> <g id="I58c25b6b8afc49f8b11d5c761bfb6a2020251110123030"> <path id="I08ba0376de30459c828155bfb1c7aadb20251110123030" d="m 25,34.375 c 6.902,0 12.5,-5.598 12.5,-12.5 0,-6.902 -5.598,-12.5 -12.5,-12.5 -6.902,0 -12.5,5.598 -12.5,12.5 0,6.902 5.598,12.5 12.5,12.5 z m 28.125,0 c 5.18,0 9.375,-4.199 9.375,-9.375 0,-5.176 -4.195,-9.375 -9.375,-9.375 -5.18,0 -9.375,4.199 -9.375,9.375 0,5.176 4.195,9.375 9.375,9.375 z m -39.844,6.25 c -3.883,0 -7.031,3.148 -7.031,7.031 v 0.782 c 0,0 0,14.062 18.75,14.062 4.344,0 7.68,-0.754 10.246,-1.914 -0.566,-1.867 -0.871,-3.848 -0.871,-5.898 0,-5.18 1.937,-9.903 5.125,-13.493 -0.852,-0.367 -1.793,-0.57 -2.781,-0.57 z m 58.594,14.063 c 0,9.492 -7.695,17.187 -17.187,17.187 C 45.195,71.875 37.5,64.18 37.5,54.688 37.5,45.195 45.195,37.5 54.688,37.5 c 9.492,0 17.187,7.695 17.187,17.188 z M 62.957,47.332 51.562,58.727 46.418,53.582 c -0.609,-0.609 -1.602,-0.609 -2.211,0 -0.609,0.609 -0.609,1.602 0,2.211 l 6.25,6.25 c 0.609,0.609 1.602,0.609 2.211,0 l 12.5,-12.5 c 0.609,-0.609 0.609,-1.602 0,-2.211 -0.609,-0.609 -1.602,-0.609 -2.211,0 z" style="fill:currentColor;fill-opacity:1;fill-rule:nonzero;stroke:none" transform="scale(1.3333333)" /> </g>
</svg>

