<?xml version="1.0" encoding="UTF-8" standalone="no"?> <svg version="1.1" id="I05261ae46ac443dcad4a82138d3f536f20251110130509" width="100" height="100" viewBox="0 0 100 100" xmlns="http://www.w3.org/2000/svg" xmlns:svg="http://www.w3.org/2000/svg"> <defs id="Ibc74b15b7b5b47448f36f93a3892079620251110130509" /> <g id="Ie316491422c44da09ca6ec7e6315c37d20251110130509"> <path id="I8f1b9388396f43a6829eb76bc4bf42d720251110130509" d="m 18.082,8.035 c -5.551,0 -10.047,4.496 -10.047,10.047 v 38.836 c 0,5.551 4.496,10.047 10.047,10.047 h 38.836 c 5.551,0 10.047,-4.496 10.047,-10.047 V 18.082 c 0,-5.551 -4.496,-10.047 -10.047,-10.047 z m -6.027,10.047 c 0,-3.332 2.695,-6.027 6.027,-6.027 h 17.41 V 35.492 H 12.055 Z m 27.453,17.41 V 12.055 h 17.41 c 3.328,0 6.027,2.695 6.027,6.027 v 17.41 z m -27.453,4.016 h 23.437 v 23.437 h -17.41 c -3.332,0 -6.027,-2.699 -6.027,-6.027 z m 46.281,6.617 c 0.781,0.785 0.781,2.055 0,2.84 L 50.297,57 c -0.781,0.785 -2.055,0.785 -2.84,0 l -4.012,-4.012 c -0.785,-0.785 -0.785,-2.054 0,-2.84 0.785,-0.785 2.059,-0.785 2.84,0 l 2.594,2.59 6.613,-6.613 c 0.785,-0.785 2.059,-0.785 2.844,0 z" style="fill:currentColor;fill-opacity:1;fill-rule:nonzero;stroke:none" transform="scale(1.3333333)" /> </g>
</svg>

