<?xml version="1.0" encoding="UTF-8" standalone="no"?> <svg version="1.1" id="I43efca082d3d450c854110e90538056e20251106154012" width="100" height="100" viewBox="0 0 100 100" xmlns="http://www.w3.org/2000/svg" xmlns:svg="http://www.w3.org/2000/svg"> <defs id="Ie3a5133d97e74dba907d7ffc935db31f20251106154012" /> <g id="Ie2ea47e658de4a4e9d775878ad66341220251106154012"> <path id="I1f4aa3ca5d1d44469ddd20747a6a396120251106154012" d="M 10.25,6.938 C 9.336,6.02 7.852,6.02 6.938,6.938 6.02,7.852 6.02,9.336 6.938,10.25 l 14.066,14.07 c -1.731,0.399 -3.024,1.95 -3.024,3.805 0,2.156 1.75,3.906 3.907,3.906 1.855,0 3.406,-1.289 3.808,-3.023 l 10.93,10.933 c -1.734,0.399 -3.031,1.954 -3.031,3.809 0,2.156 1.75,3.906 3.906,3.906 1.855,0 3.41,-1.297 3.809,-3.031 L 64.75,68.062 c 0.914,0.918 2.398,0.918 3.312,0 0.915,-0.914 0.915,-2.398 0,-3.312 z M 57.02,43.75 c 0,0.93 -0.329,1.785 -0.872,2.457 l -5.492,-5.496 c 0.672,-0.543 1.524,-0.867 2.457,-0.867 2.157,0 3.907,1.75 3.907,3.906 z M 41.406,28.125 c 0,0.934 -0.328,1.793 -0.875,2.465 l -5.496,-5.496 c 0.672,-0.547 1.531,-0.875 2.465,-0.875 2.156,0 3.906,1.75 3.906,3.906 z M 25.793,12.5 c 0,0.938 -0.328,1.797 -0.879,2.469 L 19.418,9.473 c 0.672,-0.551 1.531,-0.879 2.469,-0.879 2.16,0 3.906,1.75 3.906,3.906 z M 37.5,55.469 c 2.156,0 3.906,1.75 3.906,3.906 0,2.156 -1.75,3.906 -3.906,3.906 -2.156,0 -3.906,-1.75 -3.906,-3.906 0,-2.156 1.75,-3.906 3.906,-3.906 z M 21.887,39.844 c 2.16,0 3.906,1.75 3.906,3.906 0,2.156 -1.746,3.906 -3.906,3.906 -2.157,0 -3.907,-1.75 -3.907,-3.906 0,-2.156 1.75,-3.906 3.907,-3.906 z M 53.113,24.219 c 2.157,0 3.907,1.75 3.907,3.906 0,2.156 -1.75,3.906 -3.907,3.906 -2.16,0 -3.906,-1.75 -3.906,-3.906 0,-2.156 1.746,-3.906 3.906,-3.906 z M 37.5,8.594 c 2.156,0 3.906,1.75 3.906,3.906 0,2.156 -1.75,3.906 -3.906,3.906 -2.156,0 -3.906,-1.75 -3.906,-3.906 0,-2.156 1.75,-3.906 3.906,-3.906 z m 15.613,0 c 2.157,0 3.907,1.75 3.907,3.906 0,2.156 -1.75,3.906 -3.907,3.906 -2.16,0 -3.906,-1.75 -3.906,-3.906 0,-2.156 1.746,-3.906 3.906,-3.906 z" style="fill:currentColor;fill-opacity:1;fill-rule:nonzero;stroke:none" transform="scale(1.3333333)" /> </g>
</svg>

