<?xml version="1.0" encoding="UTF-8" standalone="no"?> <svg version="1.1" id="I3463be78bdb24124b6622a25380bc31920251106170955" width="100" height="100" viewBox="0 0 100 100" xmlns="http://www.w3.org/2000/svg" xmlns:svg="http://www.w3.org/2000/svg"> <defs id="Iece0420cb06c45c4b5ffc26b61ebe67d20251106170955" /> <g id="I6aa63a4f615a48e794cd0bde52c5ccbf20251106170955"> <path id="I16f53966912c43adb3e97ed415e1df9820251106170955" d="M 22.5,17.812 C 22.5,16.258 23.758,15 25.312,15 h 39.376 c 1.554,0 2.812,1.258 2.812,2.812 0,1.555 -1.258,2.813 -2.812,2.813 H 25.312 c -1.554,0 -2.812,-1.258 -2.812,-2.813 z m 3.75,37.5 c 0,-1.554 1.258,-2.812 2.812,-2.812 h 35.626 c 1.554,0 2.812,1.258 2.812,2.812 0,1.555 -1.258,2.813 -2.812,2.813 H 29.062 c -1.554,0 -2.812,-1.258 -2.812,-2.813 z M 10.312,33.75 c -1.554,0 -2.812,1.258 -2.812,2.812 0,1.555 1.258,2.813 2.812,2.813 h 54.376 c 1.554,0 2.812,-1.258 2.812,-2.813 0,-1.554 -1.258,-2.812 -2.812,-2.812 z" style="fill:currentColor;fill-opacity:1;fill-rule:nonzero;stroke:none" transform="scale(1.3333333)" /> </g>
</svg>

