<?xml version="1.0" encoding="UTF-8" standalone="no"?> <svg version="1.1" id="I8d30da4b2df14f5b9bec48d1388816f620251106125938" width="100" height="100" viewBox="0 0 100 100" xmlns="http://www.w3.org/2000/svg" xmlns:svg="http://www.w3.org/2000/svg"> <defs id="I37c8315e84ae4c788d0ea29ef6cf243820251106125938" /> <g id="I55b29287a38144f197811528270c74a720251106125938"> <path id="Id753b4352f8e43ce9b2e5939b5a6c36820251106125938" d="m 16.875,7.5 c 1.035,0 1.875,0.84 1.875,1.875 0,13.59 10.785,24.375 24.375,24.375 h 2.973 l -4.297,-4.301 c -0.735,-0.73 -0.735,-1.918 0,-2.648 0.73,-0.735 1.918,-0.735 2.648,0 l 7.5,7.5 c 0.735,0.73 0.735,1.918 0,2.648 l -7.5,7.5 c -0.73,0.735 -1.918,0.735 -2.648,0 -0.735,-0.73 -0.735,-1.918 0,-2.648 L 46.098,37.5 h -2.973 c -13.59,0 -24.375,10.785 -24.375,24.375 0,1.035 -0.84,1.875 -1.875,1.875 C 15.84,63.75 15,62.91 15,61.875 15,49.824 22.379,39.668 32.914,35.625 22.379,31.582 15,21.426 15,9.375 15,8.34 15.84,7.5 16.875,7.5 Z m 20.742,34.473 c -4.679,1.261 -8.664,4.101 -11.367,7.933 V 52.5 c 0,4.141 3.359,7.5 7.5,7.5 h 22.5 c 4.141,0 7.5,-3.359 7.5,-7.5 V 18.75 c 0,-4.141 -3.359,-7.5 -7.5,-7.5 h -22.5 c -4.141,0 -7.5,3.359 -7.5,7.5 v 2.594 c 2.703,3.832 6.688,6.672 11.367,7.933 -0.371,-1.793 0.137,-3.738 1.531,-5.129 2.196,-2.199 5.758,-2.199 7.954,0 l 7.5,7.5 c 2.199,2.196 2.199,5.758 0,7.954 l -7.5,7.5 c -2.196,2.199 -5.758,2.199 -7.954,0 -1.394,-1.391 -1.902,-3.336 -1.531,-5.129 z" style="fill:currentColor;fill-opacity:1;fill-rule:nonzero;stroke:none" transform="scale(1.3333333)" /> </g>
</svg>

