<?xml version="1.0" encoding="UTF-8" standalone="no"?> <svg version="1.1" id="I8a61df53ed114f1d97d53c82910ec90720251110130509" width="100" height="100" viewBox="0 0 100 100" xmlns="http://www.w3.org/2000/svg" xmlns:svg="http://www.w3.org/2000/svg"> <defs id="I2915df3730294e2fb072fe9b6b30918820251110130509" /> <g id="I6c79198671d244ca92814b2af75f600520251110130509"> <path id="Ie9ca0472b04b48f28faf07212c795a7620251110130509" d="m 61.715,12.5 c 3.883,0 7.031,3.148 7.031,7.031 v 35.946 c 0,3.882 -3.148,7.031 -7.031,7.031 H 13.281 C 9.398,62.508 6.25,59.359 6.25,55.477 V 19.531 c 0,-3.883 3.148,-7.031 7.031,-7.031 z m 0,4.688 H 13.281 c -1.293,0 -2.343,1.05 -2.343,2.343 v 35.946 c 0,1.293 1.05,2.343 2.343,2.343 h 48.434 c 1.293,0 2.344,-1.05 2.344,-2.343 V 19.531 c 0,-1.293 -1.051,-2.343 -2.344,-2.343 z m -29.684,31.25 h 10.938 c 1.293,0 2.343,1.05 2.343,2.343 0,1.188 -0.882,2.168 -2.027,2.324 l -0.316,0.02 H 32.031 c -1.293,0 -2.343,-1.047 -2.343,-2.344 0,-1.183 0.882,-2.164 2.027,-2.32 l 0.316,-0.023 h 10.938 z" style="fill:currentColor;fill-opacity:1;fill-rule:nonzero;stroke:none" transform="scale(1.3333333)" /> </g>
</svg>

