<?xml version="1.0" encoding="UTF-8" standalone="no"?> <svg version="1.1" id="I5fc158d8813947fb94914c8949fe2f1d20251106142135" width="100" height="100" viewBox="0 0 100 100" xmlns="http://www.w3.org/2000/svg" xmlns:svg="http://www.w3.org/2000/svg"> <defs id="I4b5bb22682294c4fb64ff0768defd9d320251106142135" /> <g id="Id3382419fc574e88bf83ce7d4f372d1020251106142135"> <path id="Ib4b752d06c754359901606ac1b151b2320251106142135" d="m 29.004,4.688 c 2.285,0 4.406,0.71 6.152,1.917 v 61.36 c -1.957,1.473 -4.39,2.347 -7.031,2.347 h -0.727 c -5.125,0 -9.656,-3.332 -11.183,-8.222 L 15.816,60.812 C 9.531,59.957 4.688,54.57 4.688,48.047 v -1.172 c 0,-5.066 2.679,-9.508 6.699,-11.98 C 8.73,32.746 7.031,29.461 7.031,25.781 7.031,19.473 12.02,14.328 18.266,14.074 18.977,8.773 23.512,4.688 29.004,4.688 Z m 16.992,0 c 5.492,0 10.027,4.085 10.738,9.386 6.246,0.254 11.235,5.399 11.235,11.707 0,3.68 -1.699,6.965 -4.356,9.114 4.02,2.472 6.699,6.914 6.699,11.98 v 1.172 c 0,6.523 -4.843,11.91 -11.128,12.765 l -0.399,1.278 c -1.527,4.89 -6.058,8.222 -11.183,8.222 h -0.727 c -2.641,0 -5.074,-0.874 -7.031,-2.347 V 6.605 C 41.59,5.398 43.711,4.688 45.996,4.688 Z" style="fill:currentColor;fill-opacity:1;fill-rule:nonzero;stroke:none" transform="scale(1.3333333)" /> </g>
</svg>

