<?xml version="1.0" encoding="UTF-8" standalone="no"?> <svg version="1.1" id="I7a88b5f8147f4391b52395e92b5a003120251110124422" width="100" height="100" viewBox="0 0 100 100" xmlns="http://www.w3.org/2000/svg" xmlns:svg="http://www.w3.org/2000/svg"> <defs id="I0f1e57409e104a5e92dd2fb9627006fb20251110124422" /> <g id="Ibda6686cb3dc4890acf8c8ad74bbcdb320251110124422"> <path id="I7e1825a42fc948c3a66c8dbe74fcfe9f20251110124422" d="m 5.367,20.758 c 0,-5.547 4.496,-10.043 10.047,-10.043 h 44.184 c 5.55,0 10.047,4.496 10.047,10.043 v 20.496 c -1.188,-1.277 -2.536,-2.402 -4.02,-3.34 V 20.758 c 0,-3.328 -2.695,-6.028 -6.027,-6.028 H 15.414 c -3.332,0 -6.027,2.7 -6.027,6.028 v 33.484 c 0,3.328 2.695,6.028 6.027,6.028 h 20.129 c 0.391,1.406 0.926,2.75 1.594,4.015 H 15.414 C 9.863,64.285 5.367,59.789 5.367,54.242 Z M 72.32,54.91 c 0,9.617 -7.793,17.41 -17.41,17.41 -9.617,0 -17.41,-7.793 -17.41,-17.41 0,-9.617 7.793,-17.41 17.41,-17.41 9.617,0 17.41,7.793 17.41,17.41 z M 56.25,44.195 c 0,-0.738 -0.602,-1.34 -1.34,-1.34 -0.738,0 -1.34,0.602 -1.34,1.34 v 9.375 h -9.375 c -0.738,0 -1.34,0.602 -1.34,1.34 0,0.738 0.602,1.34 1.34,1.34 h 9.375 v 9.375 c 0,0.738 0.602,1.34 1.34,1.34 0.738,0 1.34,-0.602 1.34,-1.34 V 56.25 h 9.375 c 0.738,0 1.34,-0.602 1.34,-1.34 0,-0.738 -0.602,-1.34 -1.34,-1.34 H 56.25 Z" style="fill:currentColor;fill-opacity:1;fill-rule:nonzero;stroke:none" transform="scale(1.3333333)" /> </g>
</svg>

