<?xml version="1.0" encoding="UTF-8" standalone="no"?> <svg version="1.1" id="I281b620d9a8240cc9ed292e8e271893620251106164749" width="100" height="100" viewBox="0 0 100 100" xmlns="http://www.w3.org/2000/svg" xmlns:svg="http://www.w3.org/2000/svg"> <defs id="Ia251d3e207c74fd7aeece5e5cd69328120251106164749" /> <g id="I428aaa1c276748df90bfb16987c1ad4420251106164749"> <path id="I37356f73ad924a05b7cd960a6ef40a2120251106164749" d="m 54.688,37.5 c 9.492,0 17.187,7.695 17.187,17.188 0,9.492 -7.695,17.187 -17.187,17.187 C 45.195,71.875 37.5,64.18 37.5,54.688 37.5,45.195 45.195,37.5 54.688,37.5 Z M 34.613,51.555 c -0.156,1.023 -0.238,2.066 -0.238,3.133 0,5.164 1.926,9.874 5.098,13.457 -0.649,0.394 -1.309,0.597 -1.969,0.597 -3.738,0 -7.5,-6.543 -9.492,-16.262 l -0.18,-0.921 z m -11.574,0.004 c 1.141,6.507 3.074,12.043 5.602,15.918 C 20.312,65.016 13.434,59.184 9.586,51.559 Z m 31.649,-7.813 -0.282,0.027 c -0.636,0.114 -1.14,0.618 -1.258,1.258 l -0.023,0.278 v 7.812 l -7.82,0.004 -0.282,0.023 c -0.636,0.118 -1.14,0.622 -1.253,1.258 l -0.028,0.282 0.028,0.281 c 0.113,0.636 0.617,1.14 1.253,1.258 l 0.282,0.023 7.824,-0.004 v 7.828 l 0.023,0.281 c 0.118,0.637 0.621,1.141 1.258,1.254 l 0.281,0.028 0.282,-0.028 c 0.636,-0.113 1.14,-0.617 1.254,-1.254 l 0.027,-0.281 v -7.828 l 7.824,0.004 0.281,-0.023 c 0.637,-0.118 1.141,-0.622 1.254,-1.258 l 0.028,-0.281 -0.028,-0.282 C 65.5,53.77 64.996,53.266 64.359,53.148 L 64.078,53.125 56.25,53.121 v -7.812 l -0.023,-0.278 c -0.118,-0.64 -0.622,-1.144 -1.258,-1.258 z m -32.594,-12.5 c -0.145,2.031 -0.219,4.121 -0.219,6.25 0,2.59 0.109,5.121 0.324,7.563 l 0.176,1.812 H 7.68 C 6.75,43.91 6.25,40.762 6.25,37.496 c 0,-2.141 0.215,-4.23 0.625,-6.25 z m 26.113,0 c 0.105,1.34 0.176,2.711 0.211,4.113 -5.648,1.832 -10.215,6.075 -12.484,11.512 h -8.825 c -0.351,-2.953 -0.547,-6.105 -0.547,-9.375 0,-1.609 0.047,-3.184 0.137,-4.726 l 0.106,-1.524 z m 19.926,0 c 0.41,2.02 0.625,4.109 0.625,6.25 0,0.824 -0.031,1.641 -0.094,2.453 -3.641,-3.457 -8.562,-5.574 -13.976,-5.574 -0.543,0 -1.079,0.02 -1.61,0.063 -0.008,-0.383 -0.023,-0.762 -0.043,-1.141 L 52.914,31.246 Z M 46.367,7.516 c 9.434,2.785 17.008,9.898 20.426,19.043 H 52.445 C 51.52,19.477 49.703,13.332 47.211,8.91 L 46.707,8.047 Z m -17.726,0 c -2.754,4.218 -4.797,10.402 -5.883,17.668 l -0.196,1.375 H 8.219 C 11.473,17.848 18.5,10.98 27.309,7.941 L 28.262,7.629 Z M 37.504,6.25 c 4.121,0 8.269,7.941 10.043,19.324 l 0.148,0.985 H 27.316 C 29,14.652 33.266,6.25 37.504,6.25 Z" style="fill:currentColor;fill-opacity:1;fill-rule:nonzero;stroke:none" transform="scale(1.3333333)" /> </g>
</svg>

