<?xml version="1.0" encoding="UTF-8" standalone="no"?> <svg version="1.1" id="I434bc0cd784543f79f68192a0474ce1720251106164750" width="100" height="100" viewBox="0 0 100 100" xmlns="http://www.w3.org/2000/svg" xmlns:svg="http://www.w3.org/2000/svg"> <defs id="I0c11a3422612495799b655246612ac6d20251106164750" /> <g id="I98e609e806e74b92b3586aa80734f9b220251106164750"> <path id="I3a01e66d97114fbfa5bf46eee849fbe320251106164750" d="m 43.754,63.223 c -0.566,-0.805 -1.059,-1.645 -1.473,-2.52 -1.101,-2.328 -1.656,-4.91 -1.656,-7.734 v -9.024 c 0,-0.711 0.582,-1.289 1.301,-1.289 2.433,0 4.828,-0.449 7.199,-1.347 1.336,-0.508 2.66,-1.161 3.98,-1.957 0.79,-0.481 1.579,-1.012 2.364,-1.594 0.465,-0.344 1.097,-0.344 1.562,0 1.18,0.875 2.367,1.633 3.559,2.273 1.437,0.77 2.883,1.371 4.34,1.801 1.132,0.336 2.273,0.566 3.418,0.699 0.738,0.082 1.48,0.125 2.226,0.125 0.719,0 1.301,0.578 1.301,1.289 v 9.024 c 0,8.597 -5.133,14.91 -15.148,18.816 -0.305,0.121 -0.649,0.121 -0.954,0 -3.308,-1.289 -6.082,-2.844 -8.316,-4.656 -0.34,-0.274 -0.668,-0.555 -0.984,-0.844 C 46.02,65.871 45.59,65.441 45.188,65 c -0.524,-0.57 -1,-1.164 -1.434,-1.777 z M 53.605,35.25 c -0.167,0.125 -0.335,0.246 -0.503,0.363 -0.051,-2.301 -0.207,-4.543 -0.446,-6.707 h 14.899 c 0.777,2.731 1.195,5.614 1.195,8.594 0,0.645 -0.02,1.289 -0.059,1.926 -0.961,-0.114 -1.918,-0.309 -2.875,-0.59 -1.238,-0.367 -2.488,-0.883 -3.75,-1.559 -1.046,-0.562 -2.105,-1.234 -3.171,-2.027 -1.571,-1.168 -3.719,-1.168 -5.29,0 z M 40.891,67.062 c 0.336,-0.32 0.675,-0.687 1.015,-1.097 C 40.934,64.742 40.113,63.434 39.457,62.039 38.141,59.258 37.5,56.215 37.5,52.969 V 50.781 H 27.004 c 0.734,3.809 1.773,7.192 3.016,9.992 1.281,2.883 2.707,4.973 4.089,6.289 1.368,1.301 2.504,1.688 3.391,1.688 0.887,0 2.023,-0.387 3.391,-1.688 z m 1.035,-27.531 c 2.414,0 4.836,-0.527 7.293,-1.648 0,-0.129 0,-0.254 0,-0.383 0,-2.992 -0.176,-5.871 -0.496,-8.594 H 26.277 c -0.32,2.723 -0.496,5.602 -0.496,8.594 0,3.277 0.211,6.426 0.594,9.375 H 37.5 v -2.93 c 0,-2.468 2.012,-4.414 4.426,-4.414 z M 22.438,46.875 C 22.07,43.891 21.875,40.746 21.875,37.5 c 0,-2.965 0.164,-5.844 0.469,-8.594 H 7.445 C 6.668,31.637 6.25,34.52 6.25,37.5 c 0,3.266 0.5,6.414 1.43,9.375 z M 9.203,50.781 c 3.891,8.274 11.305,14.563 20.309,16.938 -2.903,-3.891 -5.196,-9.832 -6.485,-16.938 z M 44.98,14.227 c 1.329,2.992 2.418,6.648 3.165,10.773 h -21.29 c 0.747,-4.125 1.836,-7.781 3.165,-10.773 1.281,-2.883 2.707,-4.973 4.089,-6.289 1.368,-1.301 2.504,-1.688 3.391,-1.688 0.887,0 2.023,0.387 3.391,1.688 1.382,1.316 2.808,3.406 4.089,6.289 z M 52.109,25 H 66.148 C 62.367,16.34 54.773,9.727 45.488,7.281 48.496,11.312 50.848,17.551 52.109,25 Z M 8.852,25 H 22.891 C 24.152,17.551 26.504,11.312 29.512,7.281 20.227,9.727 12.633,16.34 8.852,25 Z M 55.469,37.758 53.605,35.25 Z" style="fill:currentColor;fill-opacity:1;fill-rule:nonzero;stroke:none" transform="scale(1.3333333)" /> </g>
</svg>

