<?xml version="1.0" encoding="UTF-8" standalone="no"?> <svg version="1.1" id="I724865126520413eb0e7a7d588a1dc0920251106170956" width="100" height="100" viewBox="0 0 100 100" xmlns="http://www.w3.org/2000/svg" xmlns:svg="http://www.w3.org/2000/svg"> <defs id="I79034d4245b442af8e2b7cb6a8c3dc8d20251106170956" /> <g id="Idcda69b49f934217b80037649faef2d420251106170956"> <path id="Icaa73973b2854644acadf60fc3060ae820251106170956" d="m 24.105,6.027 c 0,-1.109 0.903,-2.007 2.012,-2.007 h 22.766 c 1.109,0 2.012,0.898 2.012,2.007 0,1.11 -0.903,2.008 -2.012,2.008 h -0.668 v 2.68 h 4.015 c 5.18,0 9.375,4.195 9.375,9.375 v 36.16 c 0,4.723 -3.492,8.629 -8.035,9.281 v 2.102 c 0,1.109 -0.898,2.012 -2.008,2.012 -1.109,0 -2.007,-0.903 -2.007,-2.012 v -2.008 h -24.11 v 2.008 c 0,1.109 -0.898,2.012 -2.007,2.012 -1.11,0 -2.008,-0.903 -2.008,-2.012 V 65.531 C 16.887,64.879 13.395,60.973 13.395,56.25 V 20.09 c 0,-5.18 4.195,-9.375 9.375,-9.375 h 4.015 v -2.68 h -0.668 c -1.109,0 -2.012,-0.898 -2.012,-2.008 z m 6.7,2.008 v 2.68 h 13.39 v -2.68 z m -4.688,16.07 c -1.109,0 -2.012,0.903 -2.012,2.012 0,1.11 0.903,2.008 2.012,2.008 h 22.766 c 1.109,0 2.012,-0.898 2.012,-2.008 0,-1.109 -0.903,-2.012 -2.012,-2.012 z" style="fill:currentColor;fill-opacity:1;fill-rule:nonzero;stroke:none" transform="scale(1.3333333)" /> </g>
</svg>

