<?xml version="1.0" encoding="UTF-8" standalone="no"?>
<!-- Created with Inkscape (http://www.inkscape.org/) -->

<svg
   version="1.1"
   id="I8cb260b074284752bb8f84dd99a5a5a720251103104211"
   width="100"
   height="100"
   viewBox="0 0 100 100"
   sodipodi:docname="output.ai"
   xmlns:inkscape="http://www.inkscape.org/namespaces/inkscape"
   xmlns:sodipodi="http://sodipodi.sourceforge.net/DTD/sodipodi-0.dtd"
   xmlns="http://www.w3.org/2000/svg"
   xmlns:svg="http://www.w3.org/2000/svg">
  <defs
     id="I8728434528134348b290c1a33d88ae2020251103104211" />
  <sodipodi:namedview
     id="I6f0eb376725c4e0c85908dd75c482de620251103104211"
     pagecolor="#ffffff"
     bordercolor="#000000"
     borderopacity="0.25"
     inkscape:showpageshadow="2"
     inkscape:pageopacity="0.0"
     inkscape:pagecheckerboard="0"
     inkscape:deskcolor="#d1d1d1">
    <inkscape:page
       x="0"
       y="0"
       inkscape:label="1"
       id="Iae9f93d7d0cd45dba8867c3362f7e69520251103104211"
       width="100"
       height="100"
       margin="0"
       bleed="0" />
  </sodipodi:namedview>
  <g
     id="Iffd50667f15d426d9744d7750af7df7620251103104211"
     inkscape:groupmode="layer"
     inkscape:label="1">
    <path
       id="Ibc355bf033d449f4bc46e065755e3c7220251103104211"
       d="m 35.652,34.207 c 5.383,5.383 5.946,13.758 1.692,19.77 l -0.446,0.589 13.18,13.184 0.234,0.27 c 0.704,0.949 0.626,2.289 -0.234,3.148 -0.855,0.855 -2.199,0.934 -3.144,0.234 L 46.664,71.168 33.359,57.867 c -5.984,4.035 -14.179,3.406 -19.476,-1.89 -6.012,-6.012 -6.012,-15.758 0,-21.77 6.012,-6.012 15.758,-6.012 21.769,0 z M 41.027,6.25 c 1.864,0 3.653,0.742 4.973,2.059 l 8.785,8.781 8.774,8.789 c 1.316,1.316 2.054,3.105 2.054,4.969 v 30.871 c 0,3.883 -3.144,7.031 -7.031,7.031 H 53.867 C 53.75,67.836 53.402,66.941 52.824,66.16 l -0.379,-0.453 -1.648,-1.648 7.785,0.003 c 1.297,0 2.344,-1.05 2.344,-2.343 V 31.258 l -13.27,0.004 c -3.722,0 -6.765,-2.891 -7.015,-6.551 L 40.625,24.23 V 10.938 H 22.656 c -1.293,0 -2.344,1.05 -2.344,2.343 v 13.817 c -1.621,0.382 -3.203,0.992 -4.691,1.816 l 0.004,-15.633 c 0,-3.883 3.148,-7.031 7.031,-7.031 z M 17.301,37.625 c -4.125,4.121 -4.125,10.809 0,14.934 4.125,4.125 10.808,4.125 14.933,0 4.125,-4.125 4.125,-10.813 0,-14.934 -4.125,-4.125 -10.808,-4.125 -14.933,0 z M 45.312,14.25 v 9.98 c 0,1.188 0.883,2.168 2.028,2.325 l 0.316,0.019 9.973,-0.004 z"
       style="fill:#212121;fill-opacity:1;fill-rule:nonzero;stroke:none"
       transform="scale(1.3333333)" />
  </g>
</svg>





