<?xml version="1.0" encoding="UTF-8" standalone="no"?> <svg version="1.1" id="I0a9615e7b4c243d889b562caf6b2c2be20251110130509" width="100" height="100" viewBox="0 0 100 100" xmlns="http://www.w3.org/2000/svg" xmlns:svg="http://www.w3.org/2000/svg"> <defs id="I4b3fd8151fbb44c98e7514a6a2b32bf420251110130509" /> <g id="I10d0d75e43284858987980abc404165e20251110130509"> <path id="I7a7c173a5c66499ca053f023c4be266020251110130509" d="m 21.949,16.324 c 0.735,-0.73 0.735,-1.918 0,-2.648 -0.73,-0.735 -1.918,-0.735 -2.648,0 l -6.176,6.172 -2.426,-2.422 c -0.73,-0.735 -1.918,-0.735 -2.648,0 -0.735,0.73 -0.735,1.918 0,2.648 l 3.75,3.75 c 0.73,0.735 1.918,0.735 2.648,0 z m 9.926,2.426 C 30.84,18.75 30,19.59 30,20.625 30,21.66 30.84,22.5 31.875,22.5 h 33.75 c 1.035,0 1.875,-0.84 1.875,-1.875 0,-1.035 -0.84,-1.875 -1.875,-1.875 z m 0,18.75 C 30.84,37.5 30,38.34 30,39.375 c 0,1.035 0.84,1.875 1.875,1.875 h 33.75 C 66.66,41.25 67.5,40.41 67.5,39.375 67.5,38.34 66.66,37.5 65.625,37.5 Z M 30,58.125 c 0,-1.035 0.84,-1.875 1.875,-1.875 h 33.75 c 1.035,0 1.875,0.84 1.875,1.875 C 67.5,59.16 66.66,60 65.625,60 H 31.875 C 30.84,60 30,59.16 30,58.125 Z M 21.949,36.949 c 0.735,-0.73 0.735,-1.918 0,-2.648 -0.73,-0.735 -1.918,-0.735 -2.648,0 l -6.176,6.172 -2.426,-2.422 c -0.73,-0.735 -1.918,-0.735 -2.648,0 -0.735,0.73 -0.735,1.918 0,2.648 l 3.75,3.75 c 0.73,0.735 1.918,0.735 2.648,0 z m 0,16.102 c 0.735,0.73 0.735,1.918 0,2.648 l -7.5,7.5 c -0.73,0.735 -1.918,0.735 -2.648,0 l -3.75,-3.75 c -0.735,-0.73 -0.735,-1.918 0,-2.648 0.73,-0.735 1.918,-0.735 2.648,0 l 2.426,2.422 6.176,-6.172 c 0.73,-0.735 1.918,-0.735 2.648,0 z" style="fill:currentColor;fill-opacity:1;fill-rule:nonzero;stroke:none" transform="scale(1.3333333)" /> </g>
</svg>

