<?xml version="1.0" encoding="UTF-8" standalone="no"?> <svg version="1.1" id="Idb2453f1df0a47aa8c6f6c103913e38020251110124420" width="100" height="100" viewBox="0 0 100 100" xmlns="http://www.w3.org/2000/svg" xmlns:svg="http://www.w3.org/2000/svg"> <defs id="Id08d3944a1f24e0a911a0a23db0426a520251110124420" /> <g id="I7d5c81174502486ba43f5183b9a75bec20251110124420"> <path id="If2bde8c3f30f4deeaa8cfc9074d1a5ef20251110124420" d="m 11.719,9.375 c -1.293,0 -2.344,1.051 -2.344,2.344 0,1.293 1.051,2.343 2.344,2.343 h 3.648 l -8.183,21.43 c -0.102,0.266 -0.153,0.551 -0.153,0.836 0,6.039 4.508,10.547 10.547,10.547 6.039,0 10.547,-4.508 10.547,-10.547 0,-0.285 -0.051,-0.57 -0.152,-0.836 l -8.184,-21.43 h 15.367 v 37.5 H 21.094 c -3.883,0 -7.032,3.149 -7.032,7.032 0,3.883 3.149,7.031 7.032,7.031 h 32.812 c 3.883,0 7.032,-3.148 7.032,-7.031 0,-3.883 -3.149,-7.032 -7.032,-7.032 H 39.844 v -37.5 H 54.926 L 47.02,35.52 c -0.094,0.257 -0.145,0.531 -0.145,0.808 0,6.039 4.508,10.547 10.547,10.547 6.039,0 10.547,-4.508 10.547,-10.547 0,-0.277 -0.051,-0.551 -0.145,-0.808 L 59.918,14.062 h 3.363 c 1.293,0 2.344,-1.05 2.344,-2.343 0,-1.293 -1.051,-2.344 -2.344,-2.344 z m 5.859,12.039 4.801,12.57 h -9.602 z m 35,12.57 4.844,-13.14 4.844,13.14 z" style="fill:currentColor;fill-opacity:1;fill-rule:nonzero;stroke:none" transform="scale(1.3333333)" /> </g>
</svg>

