<?xml version="1.0" encoding="UTF-8" standalone="no"?> <svg version="1.1" id="I8db5e9b18b9643b6b7294077647aa64120251106113050" width="100" height="100" viewBox="0 0 100 100" xmlns="http://www.w3.org/2000/svg" xmlns:svg="http://www.w3.org/2000/svg"> <defs id="I0dbcf1fae594401b90e87b703702cca220251106113050" /> <g id="I9b50dcd1d5dc4875a1e011f51f370b5c20251106113050"> <path id="I06dd846cf4454319912f21b369c572d420251106113050" d="M 9.711,9.375 H 4.688 C 4.32,9.375 4.02,9.676 4.02,10.043 v 54.914 c 0,0.367 0.3,0.668 0.668,0.668 h 5.023 c 0.367,0 0.668,-0.301 0.668,-0.668 V 10.043 c 0,-0.367 -0.301,-0.668 -0.668,-0.668 z m 60.601,0 h -5.023 c -0.367,0 -0.668,0.301 -0.668,0.668 v 54.914 c 0,0.367 0.301,0.668 0.668,0.668 h 5.023 c 0.368,0 0.668,-0.301 0.668,-0.668 V 10.043 c 0,-0.367 -0.3,-0.668 -0.668,-0.668 z m -9.937,27.48 -10.68,-8.429 c -0.398,-0.313 -0.98,-0.028 -0.98,0.476 v 5.586 H 26.285 V 29.23 c 0,-0.503 -0.586,-0.789 -0.98,-0.476 l -10.68,8.437 c -0.313,0.239 -0.313,0.707 0,0.946 l 10.672,8.437 c 0.391,0.309 0.976,0.031 0.976,-0.476 v -5.586 h 22.434 v 5.258 c 0,0.503 0.586,0.789 0.981,0.476 l 10.671,-8.437 c 0.321,-0.243 0.321,-0.711 0.016,-0.954 z" style="fill:currentColor;fill-opacity:1;fill-rule:nonzero;stroke:none" transform="scale(1.3333333)" /> </g>
</svg>

