<?xml version="1.0" encoding="UTF-8" standalone="no"?> <svg version="1.1" id="Id74890230a944d02922388cd80aba7e420251110124419" width="100" height="100" viewBox="0 0 100 100" xmlns="http://www.w3.org/2000/svg" xmlns:svg="http://www.w3.org/2000/svg"> <defs id="I9b959b259d7a4f42bc2b28207309c18120251110124419" /> <g id="Ia84eca2c55544a1cadf9c34e4bd0f66d20251110124419"> <path id="I47c4c4c867714a4daca11da69ce33a4320251110124419" d="m 20.809,58.879 c 1.32,1.316 3.109,2.059 4.972,2.059 1.207,-0.008 2.391,-0.325 3.446,-0.915 l 37.5,-21.093 c 1.082,-0.614 1.984,-1.504 2.613,-2.578 0.625,-1.075 0.957,-2.297 0.957,-3.543 0,-1.243 -0.332,-2.465 -0.957,-3.539 -0.629,-1.079 -1.531,-1.965 -2.613,-2.579 L 29.18,5.566 C 28.105,5.004 26.906,4.723 25.695,4.754 24.48,4.785 23.297,5.121 22.254,5.738 21.207,6.355 20.336,7.227 19.723,8.273 19.113,9.32 18.777,10.504 18.75,11.719 v 42.187 c 0,1.864 0.742,3.653 2.059,4.973 z m 34.316,-8.067 5.719,-3.187 c 0.054,0.387 0.086,0.781 0.094,1.172 0,1.246 -0.333,2.469 -0.958,3.547 -0.625,1.078 -1.523,1.972 -2.605,2.594 L 33.562,68.344 c -2.398,1.269 -5.066,1.945 -7.781,1.968 -1.445,0.012 -2.883,-0.195 -4.265,-0.609 C 18.672,68.98 16.086,67.469 14.062,65.344 11.055,62.297 9.367,58.188 9.375,53.906 V 27.703 c 0.012,-1.437 0.469,-2.836 1.309,-4.004 0.839,-1.164 2.019,-2.043 3.378,-2.511 v 32.718 c 0.02,2.028 0.563,4.012 1.575,5.77 1.011,1.754 2.461,3.219 4.203,4.25 1.746,1.031 3.726,1.597 5.75,1.64 2.027,0.043 4.031,-0.437 5.816,-1.394 L 55.078,50.859 c 0.012,0 0.024,-0.004 0.035,-0.011 0.008,-0.012 0.012,-0.024 0.012,-0.036 z" style="fill:currentColor;fill-opacity:1;fill-rule:nonzero;stroke:none" transform="scale(1.3333333)" /> </g>
</svg>

