<?xml version="1.0" encoding="UTF-8" standalone="no"?> <svg version="1.1" id="I1170186d4f084530856567f34a8ab00e20251110123031" width="100" height="100" viewBox="0 0 100 100" xmlns="http://www.w3.org/2000/svg" xmlns:svg="http://www.w3.org/2000/svg"> <defs id="I720914b910b4490e99dbd78c36d3bce020251110123031" /> <g id="I3b2c0811dbb24505a4bf3bfb37fd27b820251110123031"> <path id="I82e90fc6a2334574ae6f080a9ace319220251110123031" d="m 34.82,54.91 c 0,5.434 2.157,10.363 5.664,13.981 -2.597,0.488 -5.39,0.754 -8.339,0.754 -15.508,0 -26.79,-6.875 -26.79,-16.836 v -1.914 c 0,-4.442 3.598,-8.04 8.04,-8.04 H 38.84 c -2.524,3.36 -4.02,7.532 -4.02,12.055 z M 32.145,5.355 c 8.875,0 16.07,7.196 16.07,16.075 0,8.875 -7.195,16.07 -16.07,16.07 -8.879,0 -16.075,-7.195 -16.075,-16.07 0,-8.879 7.196,-16.075 16.075,-16.075 z M 37.5,54.91 c 0,9.617 7.793,17.41 17.41,17.41 9.617,0 17.41,-7.793 17.41,-17.41 0,-9.617 -7.793,-17.41 -17.41,-17.41 -9.617,0 -17.41,7.793 -17.41,17.41 z M 51.828,43.98 c 1.695,-0.511 3.492,-0.589 5.227,-0.238 1.738,0.356 3.359,1.137 4.718,2.27 1.02,0.851 1.872,1.886 2.512,3.043 v -2.18 c 0,-0.738 0.602,-1.34 1.34,-1.34 0.738,0 1.34,0.602 1.34,1.34 v 5.355 c 0,0.743 -0.602,1.34 -1.34,1.34 H 60.27 c -0.743,0 -1.34,-0.597 -1.34,-1.34 0,-0.738 0.597,-1.335 1.34,-1.335 h 1.945 c -0.5,-1.09 -1.235,-2.055 -2.156,-2.825 -1.02,-0.851 -2.239,-1.437 -3.539,-1.703 -1.301,-0.265 -2.649,-0.203 -3.922,0.18 -1.274,0.379 -2.43,1.074 -3.371,2.012 -0.52,0.523 -1.368,0.523 -1.891,0 -0.524,-0.524 -0.524,-1.371 0,-1.895 1.25,-1.25 2.793,-2.176 4.492,-2.684 z m 6.164,21.86 c -1.695,0.512 -3.492,0.594 -5.226,0.238 -1.739,-0.355 -3.356,-1.137 -4.719,-2.269 -1.02,-0.852 -1.871,-1.883 -2.512,-3.043 v 2.179 c 0,0.743 -0.597,1.34 -1.34,1.34 -0.738,0 -1.34,-0.597 -1.34,-1.34 V 57.59 c 0,-0.738 0.602,-1.34 1.34,-1.34 h 5.36 c 0.738,0 1.34,0.602 1.34,1.34 0,0.738 -0.602,1.34 -1.34,1.34 h -1.95 c 0.5,1.086 1.235,2.05 2.161,2.82 1.019,0.852 2.234,1.438 3.535,1.703 1.301,0.266 2.648,0.207 3.922,-0.176 1.273,-0.382 2.429,-1.074 3.371,-2.015 0.523,-0.524 1.371,-0.524 1.894,0 0.524,0.523 0.524,1.371 0,1.894 -1.254,1.254 -2.797,2.176 -4.496,2.684 z" style="fill:currentColor;fill-opacity:1;fill-rule:nonzero;stroke:none" transform="scale(1.3333333)" /> </g>
</svg>

