<?xml version="1.0" encoding="UTF-8" standalone="no"?> <svg version="1.1" id="I0890f11f9baf46e994b3ccf83f650b9520251110135155" width="100" height="100" viewBox="0 0 100 100" xmlns="http://www.w3.org/2000/svg" xmlns:svg="http://www.w3.org/2000/svg"> <defs id="I7280c3cd58b243eab00c42a659e806dc20251110135155" /> <g id="Idbd9244d070b4178aab801963441898d20251110135155"> <path id="Ib79a4843901e46d7863132b5c6ff5b5e20251110135155" d="m 9.375,53.125 h 23.504 l -6.25,6.25 H 9.375 c -1.727,0 -3.125,-1.398 -3.125,-3.125 0,-1.602 1.207,-2.922 2.762,-3.105 z m 0,-6.25 H 33.898 C 32.301,45.914 31.25,44.16 31.25,42.188 c 0,-0.543 0.078,-1.067 0.227,-1.563 H 9.375 l -0.363,0.02 C 7.457,40.828 6.25,42.148 6.25,43.75 c 0,1.727 1.398,3.125 3.125,3.125 z m 0,-25 h 56.25 l 0.363,-0.02 c 1.555,-0.183 2.762,-1.503 2.762,-3.105 0,-1.727 -1.398,-3.125 -3.125,-3.125 H 9.375 l -0.363,0.02 C 7.457,15.828 6.25,17.148 6.25,18.75 c 0,1.727 1.398,3.125 3.125,3.125 z M 39.75,50.676 c 0.914,-0.914 2.398,-0.914 3.312,0 0.918,0.914 0.918,2.398 0,3.312 L 29,68.051 c -0.914,0.918 -2.398,0.918 -3.312,0 -0.918,-0.914 -0.918,-2.399 0,-3.313 z M 9.375,28.125 h 31.25 c 1.727,0 3.125,1.398 3.125,3.125 0,1.602 -1.207,2.922 -2.762,3.105 l -0.363,0.02 H 9.375 c -1.727,0 -3.125,-1.398 -3.125,-3.125 0,-1.602 1.207,-2.922 2.762,-3.105 z M 51.562,25 c 1.184,0 2.18,0.883 2.329,2.059 l 0.433,3.527 c 0.567,4.629 4.211,8.273 8.84,8.84 l 3.527,0.433 c 1.176,0.149 2.059,1.145 2.059,2.329 0,1.183 -0.883,2.179 -2.059,2.328 l -3.527,0.433 c -4.629,0.567 -8.273,4.211 -8.84,8.84 l -0.433,3.527 c -0.149,1.176 -1.145,2.059 -2.329,2.059 -1.183,0 -2.179,-0.883 -2.328,-2.059 l -0.433,-3.527 c -0.567,-4.629 -4.211,-8.273 -8.84,-8.84 l -3.527,-0.433 c -1.176,-0.149 -2.059,-1.145 -2.059,-2.328 0,-1.184 0.883,-2.18 2.059,-2.329 l 3.527,-0.433 c 4.629,-0.567 8.273,-4.211 8.84,-8.84 l 0.433,-3.527 C 49.383,25.883 50.379,25 51.562,25 Z" style="fill:currentColor;fill-opacity:1;fill-rule:nonzero;stroke:none" transform="scale(1.3333333)" /> </g>
</svg>

