<?xml version="1.0" encoding="UTF-8" standalone="no"?> <svg version="1.1" id="Iffd15e9aa0634619a4207b560450d80320251106105458" width="100" height="100" viewBox="0 0 100 100" xmlns="http://www.w3.org/2000/svg" xmlns:svg="http://www.w3.org/2000/svg"> <defs id="I0f98fc87f2fc4b24a78e3a6129e5ec3b20251106105458" /> <g id="I5f248e151d334e6084e07d3f1cb4200b20251106105458"> <path id="I909fdfbd4af54ddd91dfcad37b958f3a20251106105458" d="M 47.543,68.973 H 27.457 c -0.371,0 -0.672,0.3 -0.672,0.672 v 2.675 c 0,1.485 1.199,2.68 2.68,2.68 h 16.07 c 1.481,0 2.68,-1.195 2.68,-2.68 v -2.675 c 0,-0.372 -0.301,-0.672 -0.672,-0.672 z M 37.5,0 C 22.34,0 10.043,12.297 10.043,27.457 c 0,10.16 5.527,19.031 13.73,23.777 v 9.704 c 0,1.48 1.196,2.679 2.676,2.679 h 22.102 c 1.48,0 2.676,-1.199 2.676,-2.679 V 51.234 C 59.43,46.488 64.957,37.617 64.957,27.457 64.957,12.297 52.66,0 37.5,0 Z m 10.707,46.02 -3.008,1.742 V 57.59 H 29.801 V 47.762 L 26.793,46.02 C 20.207,42.211 16.07,35.199 16.07,27.457 c 0,-11.836 9.594,-21.43 21.43,-21.43 11.836,0 21.43,9.594 21.43,21.43 0,7.742 -4.137,14.754 -10.723,18.563 z" style="fill:currentColor;fill-opacity:1;fill-rule:nonzero;stroke:none" transform="scale(1.3333333)" /> </g>
</svg>

