<?xml version="1.0" encoding="UTF-8" standalone="no"?> <svg version="1.1" id="I880171f822604da9ad0f99f0a978e9c920251110124419" width="100" height="100" viewBox="0 0 100 100" xmlns="http://www.w3.org/2000/svg" xmlns:svg="http://www.w3.org/2000/svg"> <defs id="I04bc242bc6bb4c70b64b244c278b358720251110124419" /> <g id="I35e2db124cd749fc9fbe452b29d5638920251110124419"> <path id="I7210a44b605346288c1bd69014d4519120251110124419" d="m 37.5,10.715 c -8.879,0 -16.07,7.195 -16.07,16.07 0,1.11 0.898,2.008 2.008,2.008 1.109,0 2.007,-0.898 2.007,-2.008 0,-6.656 5.395,-12.055 12.055,-12.055 6.66,0 12.055,5.399 12.055,12.055 0,3.703 -0.805,5.981 -1.867,7.606 -1.106,1.679 -2.586,2.828 -4.376,4.191 l -0.089,0.066 c -1.703,1.301 -3.696,2.817 -5.203,5.118 -1.575,2.394 -2.528,5.472 -2.528,9.804 v 0.672 c 0,1.11 0.899,2.008 2.008,2.008 1.109,0 2.008,-0.898 2.008,-2.008 V 53.57 c 0,-3.703 0.804,-5.98 1.867,-7.601 1.105,-1.68 2.586,-2.828 4.375,-4.192 l 0.09,-0.07 c 1.703,-1.297 3.695,-2.816 5.203,-5.113 1.574,-2.395 2.527,-5.477 2.527,-9.809 0,-8.875 -7.191,-16.07 -16.07,-16.07 z m 0,56.25 c 1.48,0 2.68,-1.199 2.68,-2.68 0,-1.48 -1.2,-2.68 -2.68,-2.68 -1.48,0 -2.68,1.2 -2.68,2.68 0,1.481 1.2,2.68 2.68,2.68 z" style="fill:currentColor;fill-opacity:1;fill-rule:nonzero;stroke:none" transform="scale(1.3333333)" /> </g>
</svg>

