<?xml version="1.0" encoding="UTF-8" standalone="no"?> <svg version="1.1" id="Ib24b6542ddfa4678ba45c3225c65acfc20251110124419" width="100" height="100" viewBox="0 0 100 100" xmlns="http://www.w3.org/2000/svg" xmlns:svg="http://www.w3.org/2000/svg"> <defs id="I69edb1e460a94843b8720a3ddce1648620251110124419" /> <g id="I5ca69259ecdc40f6afb0770b105705e720251110124419"> <path id="Id272543b61244fe085a46d7cd2d7663720251110124419" d="m 37.5,14.062 c -12.945,0 -23.438,10.493 -23.438,23.438 0,0.809 0.043,1.609 0.122,2.398 -2.25,0.204 -3.758,0.024 -4.727,-0.23 C 9.402,38.953 9.375,38.23 9.375,37.5 c 0,-0.754 0.031,-1.5 0.086,-2.238 -2.16,0.328 -3.496,1.367 -4.117,2.371 -0.727,1.179 -0.641,2.476 0.359,3.508 0.652,0.668 1.836,1.363 3.75,1.722 1.332,0.25 3.012,0.336 5.109,0.137 5.075,-0.473 12.239,-2.586 21.844,-7.582 9.918,-5.16 17.684,-7.539 23.567,-8.09 2.359,-0.223 4.476,-0.148 6.324,0.184 l 0.125,0.023 c 2.66,0.5 4.758,1.547 6.226,3.059 2.606,2.679 2.766,6.363 0.989,9.238 -1.66,2.691 -4.856,4.504 -8.895,4.684 -3.117,12.14 -14.133,21.109 -27.242,21.109 -10.672,0 -19.957,-5.945 -24.723,-14.707 0.821,-0.012 1.661,-0.055 2.512,-0.137 0.859,-0.078 1.746,-0.195 2.664,-0.347 4.195,6.332 11.383,10.504 19.547,10.504 12.945,0 23.438,-10.493 23.438,-23.438 0,-0.812 -0.043,-1.613 -0.122,-2.402 2.258,-0.2 3.762,-0.016 4.727,0.242 0.055,0.715 0.082,1.433 0.082,2.16 0,0.754 -0.031,1.5 -0.086,2.234 2.152,-0.328 3.484,-1.363 4.106,-2.367 0.726,-1.179 0.64,-2.476 -0.364,-3.508 -0.652,-0.671 -1.84,-1.367 -3.754,-1.722 -0.136,-0.028 -0.281,-0.051 -0.425,-0.075 -0.774,-0.117 -1.653,-0.179 -2.653,-0.171 -0.629,0.004 -1.304,0.039 -2.031,0.105 -5.074,0.477 -12.238,2.586 -21.844,7.582 -9.918,5.16 -17.683,7.543 -23.566,8.094 -0.844,0.078 -1.656,0.117 -2.434,0.125 -0.433,0.004 -0.851,-0.004 -1.262,-0.024 -0.003,0 0,0 0,0 C 10.34,47.73 9.426,47.625 8.57,47.465 5.906,46.965 3.805,45.918 2.336,44.406 -0.27,41.727 -0.426,38.043 1.352,35.168 3.016,32.477 6.215,30.66 10.258,30.48 13.375,18.344 24.391,9.375 37.5,9.375 c 10.672,0 19.957,5.945 24.723,14.707 -0.828,0.008 -1.68,0.055 -2.543,0.137 -0.848,0.078 -1.727,0.191 -2.637,0.34 C 52.848,18.234 45.66,14.062 37.5,14.062 Z" style="fill:currentColor;fill-opacity:1;fill-rule:nonzero;stroke:none" transform="scale(1.3333333)" /> </g>
</svg>

