<?xml version="1.0" encoding="UTF-8" standalone="no"?> <svg version="1.1" id="I191acf020252453bbdc7a943eef8aca020251106123559" width="100" height="100" viewBox="0 0 100 100" xmlns="http://www.w3.org/2000/svg" xmlns:svg="http://www.w3.org/2000/svg"> <defs id="I0a423e482e2e4597b8eea1d399eed11f20251106123559" /> <g id="Ia036d767867a4f45b04c2809df7a634820251106123559"> <path id="I92630cf2ad17471ba80f6d86a82e9db720251106123559" d="m 11.25,65.625 c 0,1.035 0.84,1.875 1.875,1.875 C 14.16,67.5 15,66.66 15,65.625 V 9.375 C 15,8.34 14.16,7.5 13.125,7.5 12.09,7.5 11.25,8.34 11.25,9.375 Z" style="fill:currentColor;fill-opacity:1;fill-rule:nonzero;stroke:none" transform="scale(1.3333333)" /> <path id="I0c6535f6c29547aca88aa5308e4e7f4d20251106123559" d="m 60,65.625 c 0,1.035 0.84,1.875 1.875,1.875 1.035,0 1.875,-0.84 1.875,-1.875 V 9.375 C 63.75,8.34 62.91,7.5 61.875,7.5 60.84,7.5 60,8.34 60,9.375 Z" style="fill:currentColor;fill-opacity:1;fill-rule:nonzero;stroke:none" transform="scale(1.3333333)" /> <path id="I58ab680f19864dc18bb93a014b56ce2820251106123559" d="m 48.75,60 c 4.141,0 7.5,-3.359 7.5,-7.5 v -3.75 c 0,-4.141 -3.359,-7.5 -7.5,-7.5 h -22.5 c -4.141,0 -7.5,3.359 -7.5,7.5 v 3.75 c 0,4.141 3.359,7.5 7.5,7.5 z" style="fill:currentColor;fill-opacity:1;fill-rule:nonzero;stroke:none" transform="scale(1.3333333)" /> <path id="I1f76b5bc085e4dae82ef13e540dfb12a20251106123559" d="m 56.25,26.25 c 0,4.141 -3.359,7.5 -7.5,7.5 h -22.5 c -4.141,0 -7.5,-3.359 -7.5,-7.5 V 22.5 c 0,-4.141 3.359,-7.5 7.5,-7.5 h 22.5 c 4.141,0 7.5,3.359 7.5,7.5 z" style="fill:currentColor;fill-opacity:1;fill-rule:nonzero;stroke:none" transform="scale(1.3333333)" /> </g>
</svg>

