<?xml version="1.0" encoding="UTF-8" standalone="no"?> <svg version="1.1" id="If224a5facee247d297c532edf39de0fa20251110124421" width="100" height="100" viewBox="0 0 100 100" xmlns="http://www.w3.org/2000/svg" xmlns:svg="http://www.w3.org/2000/svg"> <defs id="Id73af43edb484ca088c3489ba1790a4920251110124421" /> <g id="Idda8087e3eea4371acde412e8860897c20251110124421"> <path id="Ib13eb00fa63340298153e50572ac1aac20251110124421" d="M 26.562,6.25 C 15.344,6.25 6.25,15.344 6.25,26.562 6.25,37.273 14.539,46.047 25.055,46.82 25.848,35.164 35.164,25.848 46.82,25.055 46.047,14.539 37.273,6.25 26.562,6.25 Z m 8.688,18.062 -9.375,9.376 c -0.437,0.441 -1.035,0.687 -1.656,0.687 -0.621,0 -1.219,-0.246 -1.66,-0.687 l -4.684,-4.696 c -0.918,-0.914 -0.914,-2.398 0,-3.312 0.918,-0.914 2.402,-0.914 3.316,0.004 L 24.219,28.715 31.938,21 c 0.914,-0.918 2.398,-0.918 3.312,0 0.918,0.914 0.918,2.398 0,3.312 z m -7.125,24.126 c 0,-11.219 9.094,-20.313 20.313,-20.313 11.218,0 20.312,9.094 20.312,20.313 0,11.218 -9.094,20.312 -20.312,20.312 -11.219,0 -20.313,-9.094 -20.313,-20.312 z m 13.18,-7.067 c -0.914,0.922 -0.907,2.406 0.015,3.317 l 3.793,3.757 -3.801,3.805 c -0.917,0.914 -0.917,2.398 0,3.312 0.915,0.918 2.399,0.918 3.313,0 l 3.813,-3.808 3.796,3.808 c 0.914,0.915 2.399,0.918 3.313,0.004 0.918,-0.914 0.918,-2.398 0.004,-3.316 l -3.793,-3.805 3.785,-3.761 c 0.918,-0.911 0.926,-2.395 0.012,-3.313 -0.91,-0.918 -2.395,-0.926 -3.313,-0.012 l -3.804,3.778 -3.821,-3.782 c -0.918,-0.91 -2.402,-0.902 -3.312,0.016 z" style="fill:currentColor;fill-opacity:1;fill-rule:nonzero;stroke:none" transform="scale(1.3333333)" /> </g>
</svg>

