<?xml version="1.0" encoding="UTF-8" standalone="no"?> <svg version="1.1" id="I529fd8d16c3c4468b03746696e19fb9c20251106151527" width="100" height="100" viewBox="0 0 100 100" xmlns="http://www.w3.org/2000/svg" xmlns:svg="http://www.w3.org/2000/svg"> <defs id="I267203cca38b472cb01f3d74e115f1ad20251106151527" /> <g id="I04ad3ed68fba445bbc789b9f86986bda20251106151527"> <path id="Idfb030af08f14b0d85cbd9bb5726585b20251106151527" d="m 21.094,28.125 h 4.687 c 1.864,0 3.653,0.742 4.973,2.059 1.316,1.32 2.058,3.109 2.058,4.972 0,1.864 -0.742,3.653 -2.058,4.973 -1.32,1.316 -3.109,2.059 -4.973,2.059 h -2.343 v 7.031 c 0,0.621 -0.247,1.219 -0.688,1.656 -0.438,0.441 -1.035,0.687 -1.656,0.687 -0.621,0 -1.219,-0.246 -1.656,-0.687 C 18.996,50.438 18.75,49.84 18.75,49.219 v -18.75 c 0,-0.621 0.246,-1.219 0.688,-1.657 0.437,-0.441 1.035,-0.687 1.656,-0.687 z m 2.344,9.375 h 2.343 c 0.621,0 1.219,-0.246 1.657,-0.688 0.441,-0.437 0.687,-1.035 0.687,-1.656 0,-0.621 -0.246,-1.218 -0.687,-1.656 C 27,33.059 26.402,32.812 25.781,32.812 h -2.343 z m 23.437,3.121 6.563,-8.746 c 0.374,-0.496 0.531,-1.121 0.445,-1.738 -0.09,-0.614 -0.418,-1.172 -0.914,-1.543 -0.496,-0.371 -1.121,-0.532 -1.739,-0.446 -0.613,0.09 -1.168,0.418 -1.542,0.914 l -5.157,6.876 -5.156,-6.876 c -0.371,-0.496 -0.93,-0.824 -1.543,-0.914 -0.617,-0.086 -1.242,0.075 -1.738,0.446 -0.246,0.183 -0.453,0.418 -0.61,0.679 -0.156,0.266 -0.261,0.559 -0.304,0.864 -0.043,0.304 -0.028,0.617 0.05,0.914 0.075,0.297 0.211,0.578 0.395,0.824 l 6.563,8.746 v 8.598 c 0,0.621 0.246,1.219 0.687,1.656 0.437,0.441 1.035,0.687 1.656,0.687 0.621,0 1.219,-0.246 1.657,-0.687 0.441,-0.437 0.687,-1.035 0.687,-1.656 z M 12.891,14.062 c -4.532,0 -8.203,3.672 -8.203,8.204 v 35.156 c 0,4.531 3.671,8.203 8.203,8.203 h 44.531 c 4.531,0 8.203,-3.672 8.203,-8.203 V 22.266 c 0,-4.532 -3.672,-8.204 -8.203,-8.204 z m -3.516,8.204 c 0,-1.942 1.574,-3.516 3.516,-3.516 h 44.531 c 1.941,0 3.516,1.574 3.516,3.516 v 35.156 c 0,1.941 -1.575,3.516 -3.516,3.516 H 12.891 c -1.942,0 -3.516,-1.575 -3.516,-3.516 z" style="fill:currentColor;fill-opacity:1;fill-rule:nonzero;stroke:none" transform="scale(1.3333333)" /> </g>
</svg>

