<?xml version="1.0" encoding="UTF-8" standalone="no"?> <svg version="1.1" id="I59158fea9d444dd38c2d31a971c1196120251106170411" width="100" height="100" viewBox="0 0 100 100" xmlns="http://www.w3.org/2000/svg" xmlns:svg="http://www.w3.org/2000/svg"> <defs id="I21920d5ad2ac48c0bfb57fe7fe66887920251106170411" /> <g id="I0e9bc8ac5a03431a8853ea3ce3047fdc20251106170411"> <path id="I3bbf6479c57a41a8a05300f769e5583720251106170411" d="M 15,9.375 C 15,8.34 14.16,7.5 13.125,7.5 12.09,7.5 11.25,8.34 11.25,9.375 v 9.375 c 0,2.777 1.508,5.199 3.75,6.496 v 2.879 c 0,3.105 2.52,5.625 5.625,5.625 h 15 v 13.125 c 0,1.035 0.84,1.875 1.875,1.875 1.035,0 1.875,-0.84 1.875,-1.875 V 33.75 h 15 C 57.48,33.75 60,31.23 60,28.125 v -2.879 c 2.242,-1.297 3.75,-3.719 3.75,-6.496 V 9.375 C 63.75,8.34 62.91,7.5 61.875,7.5 60.84,7.5 60,8.34 60,9.375 v 9.375 c 0,2.07 -1.68,3.75 -3.75,3.75 H 18.75 C 16.68,22.5 15,20.82 15,18.75 Z m 3.75,16.875 h 37.5 v 1.875 C 56.25,29.16 55.41,30 54.375,30 H 20.625 C 19.59,30 18.75,29.16 18.75,28.125 Z" style="fill:currentColor;fill-opacity:1;fill-rule:nonzero;stroke:none" transform="scale(1.3333333)" /> <path id="I7022319f5ac14d94bd15555d8d55127820251106170411" d="m 20.625,52.5 c -1.035,0 -1.875,0.84 -1.875,1.875 0,1.035 0.84,1.875 1.875,1.875 h 5.625 c 1.035,0 1.875,-0.84 1.875,-1.875 0,-1.035 -0.84,-1.875 -1.875,-1.875 z" style="fill:currentColor;fill-opacity:1;fill-rule:nonzero;stroke:none" transform="scale(1.3333333)" /> <path id="Ic2040f4e080a43f8816f6be6160bdaae20251106170411" d="m 46.875,54.375 c 0,-1.035 0.84,-1.875 1.875,-1.875 h 5.625 c 1.035,0 1.875,0.84 1.875,1.875 0,1.035 -0.84,1.875 -1.875,1.875 H 48.75 c -1.035,0 -1.875,-0.84 -1.875,-1.875 z" style="fill:currentColor;fill-opacity:1;fill-rule:nonzero;stroke:none" transform="scale(1.3333333)" /> <path id="Ia028cd2e9d8a497c950e5cdcc46aeb4e20251106170411" d="m 37.5,56.25 c 1.035,0 1.875,-0.84 1.875,-1.875 0,-1.035 -0.84,-1.875 -1.875,-1.875 -1.035,0 -1.875,0.84 -1.875,1.875 0,1.035 0.84,1.875 1.875,1.875 z" style="fill:currentColor;fill-opacity:1;fill-rule:nonzero;stroke:none" transform="scale(1.3333333)" /> <path id="I6c247739ee9f4b518841a0377a310de220251106170411" d="m 37.5,60 c 1.035,0 1.875,0.84 1.875,1.875 v 7.5 c 0,1.035 -0.84,1.875 -1.875,1.875 -1.035,0 -1.875,-0.84 -1.875,-1.875 v -7.5 C 35.625,60.84 36.465,60 37.5,60 Z" style="fill:currentColor;fill-opacity:1;fill-rule:nonzero;stroke:none" transform="scale(1.3333333)" /> <path id="I0153b31642094f40a90a399733c7fdcf20251106170411" d="m 33.199,59.449 c 0.735,-0.73 0.735,-1.918 0,-2.648 -0.73,-0.735 -1.918,-0.735 -2.648,0 l -5.625,5.625 c -0.735,0.73 -0.735,1.918 0,2.648 0.73,0.735 1.918,0.735 2.648,0 z" style="fill:currentColor;fill-opacity:1;fill-rule:nonzero;stroke:none" transform="scale(1.3333333)" /> <path id="I97d1fda1a3784022aaa03f4a5cc691ee20251106170411" d="m 41.801,56.801 c -0.735,0.73 -0.735,1.918 0,2.648 l 5.625,5.625 c 0.73,0.735 1.918,0.735 2.648,0 0.735,-0.73 0.735,-1.918 0,-2.648 l -5.625,-5.625 c -0.73,-0.735 -1.918,-0.735 -2.648,0 z" style="fill:currentColor;fill-opacity:1;fill-rule:nonzero;stroke:none" transform="scale(1.3333333)" /> </g>
</svg>

