<?xml version="1.0" encoding="UTF-8" standalone="no"?> <svg version="1.1" id="I93ec6b52637b4bb5bf03c654e8f7244020251106161453" width="100" height="100" viewBox="0 0 100 100" xmlns="http://www.w3.org/2000/svg" xmlns:svg="http://www.w3.org/2000/svg"> <defs id="I1137045acb7c47f8a9b2c821b77a84d920251106161453" /> <g id="I91f3ac162df24dd19e85bf9fdbd55d8b20251106161453"> <path id="I91b61a9cbae7438385b774ee31d4e03c20251106161453" d="M 37.5,25 V 6.25 H 18.75 c -3.453,0 -6.25,2.797 -6.25,6.25 v 22.98 c 0.746,-0.21 1.531,-0.324 2.344,-0.324 h 10.937 c 1.281,0 2.492,0.282 3.586,0.782 h 19.852 c 1.293,0 2.343,1.05 2.343,2.343 0,1.293 -1.05,2.344 -2.343,2.344 h -15.43 c 0.379,0.969 0.586,2.023 0.586,3.125 v 0.156 c 0.648,0.133 1.27,0.344 1.848,0.625 h 12.996 c 1.293,0 2.343,1.051 2.343,2.344 0,1.293 -1.05,2.344 -2.343,2.344 h -8.953 c 0.234,0.738 0.359,1.527 0.359,2.343 v 1.563 h 8.594 c 1.293,0 2.343,1.051 2.343,2.344 0,1.293 -1.05,2.343 -2.343,2.343 h -8.594 v 9.376 c 0,0.535 -0.055,1.058 -0.156,1.562 H 56.25 c 3.453,0 6.25,-2.797 6.25,-6.25 V 31.25 H 43.75 C 40.297,31.25 37.5,28.453 37.5,25 Z m 4.688,0 V 7.812 l 18.75,18.75 H 43.75 c -0.863,0 -1.562,-0.699 -1.562,-1.562 z M 9.375,46.875 H 7.812 c -2.589,0 -4.687,2.098 -4.687,4.687 v 4.688 h 7.813 v -0.781 c 0,-1.293 1.05,-2.344 2.343,-2.344 1.293,0 2.344,1.051 2.344,2.344 V 56.25 H 25 v -0.781 c 0,-1.293 1.051,-2.344 2.344,-2.344 1.293,0 2.344,1.051 2.344,2.344 V 56.25 H 37.5 v -4.688 c 0,-2.589 -2.098,-4.687 -4.688,-4.687 H 31.25 V 43.75 c 0,-3.02 -2.449,-5.469 -5.469,-5.469 H 14.844 c -3.02,0 -5.469,2.449 -5.469,5.469 z m 4.687,-3.125 c 0,-0.43 0.352,-0.781 0.782,-0.781 h 10.937 c 0.43,0 0.781,0.351 0.781,0.781 v 3.125 h -12.5 z M 3.125,67.188 v -6.25 h 7.813 v 2.343 c 0,1.293 1.05,2.344 2.343,2.344 1.293,0 2.344,-1.051 2.344,-2.344 V 60.938 H 25 v 2.343 c 0,1.293 1.051,2.344 2.344,2.344 1.293,0 2.344,-1.051 2.344,-2.344 V 60.938 H 37.5 v 6.25 c 0,2.589 -2.098,4.687 -4.688,4.687 h -25 c -2.589,0 -4.687,-2.098 -4.687,-4.687 z" style="fill:currentColor;fill-opacity:1;fill-rule:nonzero;stroke:none" transform="scale(1.3333333)" /> </g>
</svg>

