<?xml version="1.0" encoding="UTF-8" standalone="no"?> <svg version="1.1" id="Icbf2d983cd3e40a18ef5c28882404c5f20251110124421" width="100" height="100" viewBox="0 0 100 100" xmlns="http://www.w3.org/2000/svg" xmlns:svg="http://www.w3.org/2000/svg"> <defs id="I7da2743689124d3ba937a98d6a95256e20251110124421" /> <g id="I181a5cc50e4c4534b7ae82cb4f3f723320251110124421"> <path id="Ia80d5cf3d13b4ed9b55299d055815c8120251110124421" d="m 47.75,28.219 c 0.918,-0.914 0.918,-2.399 0,-3.313 -0.914,-0.918 -2.398,-0.918 -3.312,0 L 31.25,38.09 25.094,31.938 c -0.914,-0.918 -2.399,-0.918 -3.313,0 -0.918,0.914 -0.918,2.398 0,3.312 l 7.813,7.812 c 0.914,0.918 2.398,0.918 3.312,0 z M 9.375,19.531 c 0,-5.609 4.547,-10.156 10.156,-10.156 h 29.688 c 5.609,0 10.156,4.547 10.156,10.156 v 29.688 c 0,5.609 -4.547,10.156 -10.156,10.156 H 19.531 c -5.609,0 -10.156,-4.547 -10.156,-10.156 z m 10.156,-5.469 c -3.019,0 -5.469,2.45 -5.469,5.469 v 29.688 c 0,3.019 2.45,5.469 5.469,5.469 h 29.688 c 3.019,0 5.469,-2.45 5.469,-5.469 V 19.531 c 0,-3.019 -2.45,-5.469 -5.469,-5.469 z m 9.348,53.126 c -3.598,0 -6.762,-1.872 -8.567,-4.692 H 50.77 c 6.476,0 11.726,-5.25 11.726,-11.726 V 20.312 c 2.82,1.805 4.692,4.969 4.692,8.567 V 50.77 c 0,9.066 -7.352,16.418 -16.418,16.418 z" style="fill:currentColor;fill-opacity:1;fill-rule:nonzero;stroke:none" transform="scale(1.3333333)" /> </g>
</svg>

