<?xml version="1.0" encoding="UTF-8" standalone="no"?> <svg version="1.1" id="I9f06294ce1fa4549992ac9c3cb57123f20251106142135" width="100" height="100" viewBox="0 0 100 100" xmlns="http://www.w3.org/2000/svg" xmlns:svg="http://www.w3.org/2000/svg"> <defs id="Ibe94ed5c0b8e482ba5a42b660538d27b20251106142135" /> <g id="Ieeb9d21fd6c34ea58e52716a6dc3d23120251106142135"> <path id="Ifd8209d439114bf6a0af5da95bca6f1820251106142135" d="m 23.438,5.355 c -5.547,0 -10.043,4.5 -10.043,10.047 v 44.196 c 0,5.547 4.496,10.043 10.043,10.043 h 36.16 c 1.109,0 2.007,-0.899 2.007,-2.008 0,-1.11 -0.898,-2.008 -2.007,-2.008 h -36.16 c -3.102,0 -5.657,-2.344 -5.989,-5.355 H 57.59 c 2.219,0 4.015,-1.801 4.015,-4.02 V 15.402 C 61.605,9.855 57.109,5.355 51.562,5.355 Z M 57.59,56.25 H 17.41 V 15.402 c 0,-3.328 2.699,-6.027 6.028,-6.027 h 28.124 c 3.329,0 6.028,2.699 6.028,6.027 z M 26.117,14.73 c -1.851,0 -3.347,1.5 -3.347,3.352 v 6.695 c 0,1.848 1.496,3.348 3.347,3.348 h 22.766 c 1.851,0 3.347,-1.5 3.347,-3.348 v -6.695 c 0,-1.852 -1.496,-3.352 -3.347,-3.352 z m 0.668,9.375 V 18.75 h 21.43 v 5.355 z" style="fill:currentColor;fill-opacity:1;fill-rule:nonzero;stroke:none" transform="scale(1.3333333)" /> </g>
</svg>

