<?xml version="1.0" encoding="UTF-8" standalone="no"?> <svg version="1.1" id="Icf9f699cbf99499c9815f44326e322b920251106161453" width="100" height="100" viewBox="0 0 100 100" xmlns="http://www.w3.org/2000/svg" xmlns:svg="http://www.w3.org/2000/svg"> <defs id="I08bd4f1918584b78a1cbf3e9950af06f20251106161453" /> <g id="I773777afb0df4d498c6a40ff7320aa0520251106161453"> <path id="Ia6a5c66a501e4960854b749e909aec1a20251106161453" d="M 28.633,31.473 5.945,8.785 C 5.16,8.004 5.16,6.73 5.945,5.945 6.73,5.16 8.004,5.16 8.785,5.945 l 60.27,60.27 c 0.785,0.785 0.785,2.055 0,2.84 -0.785,0.785 -2.059,0.785 -2.844,0 L 43.527,46.367 26.957,62.941 c -1.184,1.18 -2.645,2.036 -4.254,2.485 l -14.797,4.14 c -0.699,0.2 -1.449,0 -1.961,-0.511 C 5.434,68.539 5.234,67.789 5.43,67.094 L 9.574,52.293 c 0.449,-1.605 1.305,-3.07 2.485,-4.25 z M 40.684,43.527 31.473,34.312 14.902,50.887 c -0.691,0.691 -1.195,1.551 -1.457,2.492 l -3.183,11.355 11.359,-3.179 c 0.941,-0.262 1.801,-0.766 2.492,-1.457 z M 34.316,25.789 51.668,8.438 c 4.113,-4.114 10.781,-4.114 14.894,0 4.114,4.113 4.114,10.781 0,14.894 L 49.211,40.684 46.367,37.844 56.758,27.453 47.543,18.242 37.156,28.629 Z m 20.192,-14.512 -4.125,4.125 9.215,9.211 4.121,-4.121 c 2.547,-2.547 2.547,-6.672 0,-9.215 -2.543,-2.543 -6.668,-2.543 -9.211,0 z" style="fill:currentColor;fill-opacity:1;fill-rule:nonzero;stroke:none" transform="scale(1.3333333)" /> </g>
</svg>

