<?xml version="1.0" encoding="UTF-8" standalone="no"?> <svg version="1.1" id="Ie9484465fe0041fdab39228d1b49cedb20251106112235" width="100" height="100" viewBox="0 0 100 100" xmlns="http://www.w3.org/2000/svg" xmlns:svg="http://www.w3.org/2000/svg"> <defs id="I20d97f2972c04a1299dc4d21e7843d1720251106112235" /> <g id="Ia504fe540132499b842ee09a2ab9bdd120251106112235"> <path id="Icf14557873954d1b97b9ab3ede9e558f20251106112235" d="M 70.312,57.172 H 4.688 c -0.368,0 -0.668,0.301 -0.668,0.668 v 4.687 c 0,0.368 0.3,0.672 0.668,0.672 h 65.624 c 0.368,0 0.668,-0.304 0.668,-0.672 V 57.84 c 0,-0.367 -0.3,-0.668 -0.668,-0.668 z m -61.8,-10.481 3.324,3.305 c 0.258,0.262 0.687,0.262 0.945,0 l 19.645,-19.578 8.172,8.144 c 1.047,1.04 2.734,1.04 3.781,0 L 66.496,16.531 c 0.258,-0.258 0.258,-0.687 0,-0.945 L 63.172,12.27 c -0.262,-0.258 -0.684,-0.258 -0.945,0 L 42.496,31.941 34.32,23.797 c -1.047,-1.039 -2.738,-1.039 -3.785,0 L 8.512,45.746 c -0.262,0.258 -0.262,0.684 0,0.945 z" style="fill:currentColor;fill-opacity:1;fill-rule:nonzero;stroke:none" transform="scale(1.3333333)" /> </g>
</svg>

