<?xml version="1.0" encoding="UTF-8" standalone="no"?> <svg version="1.1" id="Ib99c356c96854bfd911b761253a6099220251106165302" width="100" height="100" viewBox="0 0 100 100" xmlns="http://www.w3.org/2000/svg" xmlns:svg="http://www.w3.org/2000/svg"> <defs id="Id61dcf4d76604402852d0454b8a6f9f920251106165302" /> <g id="I565f0bb3bffb47508f9a13e2f0d66a6820251106165302"> <path id="I4d267b3174ed4d37888b924e4e49019d20251106165302" d="m 37.5,9.375 c 15.531,0 28.125,12.594 28.125,28.125 0,7.082 -2.617,13.555 -6.941,18.5 L 41.238,38.992 c -2.078,-2.031 -5.398,-2.031 -7.48,0 L 16.316,56 C 11.992,51.055 9.375,44.582 9.375,37.5 9.375,21.969 21.969,9.375 37.5,9.375 Z M 60.473,59.98 C 66.145,54.188 69.645,46.25 69.645,37.5 69.645,19.746 55.254,5.355 37.5,5.355 19.746,5.355 5.355,19.746 5.355,37.5 c 0,8.75 3.5,16.684 9.172,22.48 0.071,0.114 0.157,0.223 0.254,0.321 0.114,0.117 0.239,0.215 0.367,0.297 5.786,5.601 13.664,9.047 22.352,9.047 8.688,0 16.566,-3.446 22.352,-9.047 0.128,-0.082 0.253,-0.18 0.367,-0.297 0.097,-0.098 0.179,-0.207 0.254,-0.321 z m -4.641,-1.148 c -4.926,4.234 -11.328,6.793 -18.332,6.793 -7.004,0 -13.41,-2.559 -18.332,-6.793 L 36.566,41.867 c 0.52,-0.508 1.348,-0.508 1.868,0 z M 48.215,29.465 c -1.481,0 -2.68,-1.199 -2.68,-2.68 0,-1.48 1.199,-2.68 2.68,-2.68 1.48,0 2.68,1.2 2.68,2.68 0,1.481 -1.2,2.68 -2.68,2.68 z m 0,4.015 c 3.699,0 6.695,-2.996 6.695,-6.695 0,-3.699 -2.996,-6.695 -6.695,-6.695 -3.699,0 -6.695,2.996 -6.695,6.695 0,3.699 2.996,6.695 6.695,6.695 z" style="fill:currentColor;fill-opacity:1;fill-rule:nonzero;stroke:none" transform="scale(1.3333333)" /> </g>
</svg>

