<?xml version="1.0" encoding="UTF-8" standalone="no"?> <svg version="1.1" id="I6bfc9f8bcf50453282aa303493f2c40220251110130510" width="100" height="100" viewBox="0 0 100 100" xmlns="http://www.w3.org/2000/svg" xmlns:svg="http://www.w3.org/2000/svg"> <defs id="I208c3d2c94614ef9b0b0ad78b15d3dd520251110130510" /> <g id="I4472fe7c12d549e7a0b8b2968c91082920251110130510"> <path id="I5e71e73a3b3845919fd0ab2be23c738f20251110130510" d="m 17.969,9.375 c -4.746,0 -8.594,3.848 -8.594,8.594 v 39.062 c 0,4.746 3.848,8.594 8.594,8.594 h 39.062 c 4.746,0 8.594,-3.848 8.594,-8.594 V 17.969 c 0,-4.746 -3.848,-8.594 -8.594,-8.594 z m -3.907,8.594 c 0,-2.157 1.75,-3.907 3.907,-3.907 h 39.062 c 2.157,0 3.907,1.75 3.907,3.907 v 39.062 c 0,2.157 -1.75,3.907 -3.907,3.907 H 17.969 c -2.157,0 -3.907,-1.75 -3.907,-3.907 z m 8.594,10.156 c -1.293,0 -2.344,1.051 -2.344,2.344 0,1.293 1.051,2.343 2.344,2.343 h 29.688 c 1.293,0 2.344,-1.05 2.344,-2.343 0,-1.293 -1.051,-2.344 -2.344,-2.344 z m 6.25,12.5 c -1.293,0 -2.344,1.051 -2.344,2.344 0,1.293 1.051,2.343 2.344,2.343 h 17.188 c 1.293,0 2.344,-1.05 2.344,-2.343 0,-1.293 -1.051,-2.344 -2.344,-2.344 z" style="fill:currentColor;fill-opacity:1;fill-rule:nonzero;stroke:none" transform="scale(1.3333333)" /> </g>
</svg>

