<?xml version="1.0" encoding="UTF-8" standalone="no"?> <svg version="1.1" id="I63e596e595784c97b3149f886d162c1820251106154012" width="100" height="100" viewBox="0 0 100 100" xmlns="http://www.w3.org/2000/svg" xmlns:svg="http://www.w3.org/2000/svg"> <defs id="I086f71e5169e492ab8c7d700cf7669ee20251106154012"> <linearGradient x1="9" y1="8.3333302" x2="17.605" y2="18.5126" gradientUnits="userSpaceOnUse" gradientTransform="scale(2.34375)" spreadMethod="pad" id="Iba758734290e4d25802dcfcaf697409920251106154012"> <stop style="stop-opacity:1;stop-color:#36dff1" offset="0" id="Ib5dec739b75144c8b05a2b6aac592f2320251106154012" /> <stop style="stop-opacity:1;stop-color:#0078d4" offset="1" id="If3fa02c947f84f48a63384640fe8a3ab20251106154012" /> </linearGradient> <linearGradient x1="24" y1="24" x2="11.2" y2="11.2" gradientUnits="userSpaceOnUse" gradientTransform="scale(2.34375)" spreadMethod="pad" id="Ia55bb30f450d473d8afc6efae26db18d20251106154012"> <stop style="stop-opacity:1;stop-color:#6d37cd" offset="0" id="I4ba137f157e143cbad4c7d70968701ea20251106154012" /> <stop style="stop-opacity:1;stop-color:#ea71ef" offset="0.640625" id="I6a8c4ca3c95143309d061d68512b62fc20251106154012" /> <stop style="stop-opacity:1;stop-color:#ea71ef" offset="1" id="Ie5d26e87bdb7463ca214372e9daf7d0620251106154012" /> </linearGradient> <linearGradient x1="26.3333" y1="11.5333" x2="20.6" y2="5" gradientUnits="userSpaceOnUse" gradientTransform="scale(2.34375)" spreadMethod="pad" id="I1c40dedac6e24b9cb2b3bbda1477bccf20251106154012"> <stop style="stop-opacity:1;stop-color:#e23cb4" offset="0" id="I61da4fa037cb42a7a8efe4d8d497eb2020251106154012" /> <stop style="stop-opacity:1;stop-color:#ea71ef" offset="1" id="I75eaa7788b5947d0b46d72c675873bdf20251106154012" /> </linearGradient> <linearGradient x1="26.5625" y1="4.625" x2="3.80949" y2="38.5051" gradientUnits="userSpaceOnUse" gradientTransform="scale(2.34375)" spreadMethod="pad" id="Iba17ccc08e9741af92a7a89726f56ada20251106154012"> <stop style="stop-opacity:1;stop-color:#70777d" offset="0" id="I01a2bfa731a74622867d16d28930df9920251106154012" /> <stop style="stop-opacity:1;stop-color:#b9c0c7" offset="1" id="I42b9f105c98c466a86a48b0f511af6e720251106154012" /> </linearGradient> </defs> <g id="I9b05879f1a414c62a53dbba616018f4520251106154012"> <path id="I5a730beb698049409e1007c6c1768ea820251106154012" d="m 28.125,18.75 c -5.176,0 -9.375,4.199 -9.375,9.375 0,5.176 4.199,9.375 9.375,9.375 5.176,0 9.375,-4.199 9.375,-9.375 0,-5.176 -4.199,-9.375 -9.375,-9.375 z" transform="scale(1.3333333)" style="fill:url(#Iba758734290e4d25802dcfcaf697409920251106154012);stroke:none" /> <path id="I422c0dde0b8049689fa7955533af15c520251106154012" d="m 46.875,37.5 c -5.176,0 -9.375,4.199 -9.375,9.375 0,5.176 4.199,9.375 9.375,9.375 5.176,0 9.375,-4.199 9.375,-9.375 0,-5.176 -4.199,-9.375 -9.375,-9.375 z" transform="scale(1.3333333)" style="fill:url(#Ia55bb30f450d473d8afc6efae26db18d20251106154012);stroke:none" /> <path id="Ie5000ba69da14aefbe37599dedf02a8720251106154012" d="m 53.906,11.719 c -5.176,0 -9.375,4.199 -9.375,9.375 0,5.176 4.199,9.375 9.375,9.375 5.176,0 9.375,-4.199 9.375,-9.375 0,-5.176 -4.199,-9.375 -9.375,-9.375 z" transform="scale(1.3333333)" style="fill:url(#I1c40dedac6e24b9cb2b3bbda1477bccf20251106154012);stroke:none" /> <path id="I72fa04d9a61c41ee83ce458d6c20611d20251106154012" d="m 9.961,7.031 c 1.617,0 2.93,1.313 2.93,2.93 v 48.047 c 0,2.265 1.836,4.101 4.101,4.101 h 48.047 c 1.617,0 2.93,1.313 2.93,2.93 0,1.617 -1.313,2.93 -2.93,2.93 H 16.992 c -5.5,0 -9.961,-4.461 -9.961,-9.961 V 9.961 c 0,-1.617 1.313,-2.93 2.93,-2.93 z" transform="scale(1.3333333)" style="fill:url(#Iba17ccc08e9741af92a7a89726f56ada20251106154012);stroke:none" /> </g>
</svg>

