<?xml version="1.0" encoding="UTF-8" standalone="no"?> <svg version="1.1" id="I1b8291fca9b04e0281a7295b0a4ad18120251110124421" width="100" height="100" viewBox="0 0 100 100" xmlns="http://www.w3.org/2000/svg" xmlns:svg="http://www.w3.org/2000/svg"> <defs id="Ia814e05e5a8a4d879d24ba0d1206ccc520251110124421" /> <g id="I9617664468ce433f98c4696185120c3d20251110124421"> <path id="I08870c8a14694c0898b5c3fbc336cf4220251110124421" d="M 6.25,22.656 C 6.25,17.047 10.797,12.5 16.406,12.5 h 42.188 c 5.609,0 10.156,4.547 10.156,10.156 v 22.656 c 0,-3.718 -1.855,-7 -4.688,-8.976 v -13.68 c 0,-3.019 -2.449,-5.468 -5.468,-5.468 H 16.406 c -3.019,0 -5.468,2.449 -5.468,5.468 v 29.688 c 0,3.019 2.449,5.468 5.468,5.468 H 41.59 c -0.617,1.192 -0.965,2.543 -0.965,3.977 v 0.32 c 0,0.129 0.004,0.262 0.008,0.391 H 16.406 C 10.797,62.5 6.25,57.953 6.25,52.344 Z m 51.562,30.469 c 4.317,0 7.813,-3.496 7.813,-7.813 0,-4.316 -3.496,-7.812 -7.813,-7.812 -4.316,0 -7.812,3.496 -7.812,7.812 0,4.317 3.496,7.813 7.812,7.813 z m 0,18.75 c 10.043,0 14.063,-4.902 14.063,-9.766 v -0.32 c 0,-3.062 -2.48,-5.539 -5.539,-5.539 H 49.289 c -3.059,0 -5.539,2.477 -5.539,5.539 v 0.32 c 0,4.883 4.02,9.766 14.062,9.766 z m -39.062,-50 c -1.727,0 -3.125,1.398 -3.125,3.125 v 12.5 c 0,1.727 1.398,3.125 3.125,3.125 h 15.625 c 1.727,0 3.125,-1.398 3.125,-3.125 V 25 c 0,-1.727 -1.398,-3.125 -3.125,-3.125 z" style="fill:currentColor;fill-opacity:1;fill-rule:nonzero;stroke:none" transform="scale(1.3333333)" /> </g>
</svg>

