<?xml version="1.0" encoding="UTF-8" standalone="no"?> <svg version="1.1" id="I53d17465b4204347a3d84dae8be0510820251106132946" width="100" height="100" viewBox="0 0 100 100" xmlns="http://www.w3.org/2000/svg" xmlns:svg="http://www.w3.org/2000/svg"> <defs id="I3959c40a9acc4c25b1baa27644b1972120251106132946" /> <g id="I15e8b4e98a12422ab42da9c2e7cd7c0420251106132946"> <path id="Iebbd2bfe2a714cd294deacee2d0c875d20251106132946" d="m 12.5,14.062 v 46.876 c 0,4.316 3.496,7.812 7.812,7.812 h 41.407 c 1.293,0 2.343,-1.051 2.343,-2.344 0,-1.293 -1.05,-2.344 -2.343,-2.344 H 20.312 c -1.726,0 -3.124,-1.398 -3.124,-3.124 h 44.531 c 1.293,0 2.343,-1.051 2.343,-2.344 V 14.062 C 64.062,9.746 60.566,6.25 56.25,6.25 H 20.312 C 15.996,6.25 12.5,9.746 12.5,14.062 Z M 35.938,36.719 V 21.094 c 0,-1.293 1.05,-2.344 2.343,-2.344 1.293,0 2.344,1.051 2.344,2.344 v 15.625 c 0,1.293 -1.051,2.343 -2.344,2.343 -1.293,0 -2.343,-1.05 -2.343,-2.343 z m 5.468,8.593 c 0,1.727 -1.398,3.126 -3.125,3.126 -1.726,0 -3.125,-1.399 -3.125,-3.126 0,-1.726 1.399,-3.124 3.125,-3.124 1.727,0 3.125,1.398 3.125,3.124 z" style="fill:currentColor;fill-opacity:1;fill-rule:nonzero;stroke:none" transform="scale(1.3333333)" /> </g>
</svg>

