<?xml version="1.0" encoding="UTF-8" standalone="no"?> <svg version="1.1" id="I6cb257e386c940e5bd781d40d64f58a420251106164750" width="100" height="100" viewBox="0 0 100 100" xmlns="http://www.w3.org/2000/svg" xmlns:svg="http://www.w3.org/2000/svg"> <defs id="I07fb82681e7242fc9e4a9561e2a1174c20251106164750" /> <g id="I20d60d0feeff4d1481aa7697fb91ba3820251106164750"> <path id="I1a7c70105cef41c8a243d353d39923b420251106164750" d="m 37.504,6.246 c 17.262,0 31.254,13.992 31.254,31.254 0,3.949 -0.731,7.727 -2.067,11.207 l -3.089,-6.191 c 0.308,-1.625 0.468,-3.301 0.468,-5.016 0,-2.152 -0.254,-4.246 -0.738,-6.254 L 52.836,31.25 c 0.105,1.078 0.184,2.18 0.234,3.293 -1.777,0.371 -3.441,1.352 -4.625,2.949 0,-2.156 -0.113,-4.246 -0.324,-6.242 h -21.23 c -0.215,2 -0.329,4.094 -0.329,6.25 0,3.312 0.27,6.469 0.75,9.379 h 16.309 l -2.34,4.683 H 28.32 c 1.625,6.012 4.203,10.387 7.008,11.915 l -0.105,0.214 c -0.813,1.621 -1,3.336 -0.7,4.926 C 18.66,67.113 6.25,53.758 6.25,37.5 6.25,20.238 20.242,6.246 37.504,6.246 Z m -14.035,45.32 h -8.508 c 2.996,4.789 7.473,8.559 12.793,10.657 -1.633,-2.563 -2.977,-5.77 -3.969,-9.422 z M 22.172,31.25 H 11.68 l -0.016,0.055 c -0.476,1.988 -0.726,4.062 -0.726,6.195 0,3.301 0.601,6.461 1.703,9.379 l 9.914,-0.004 c -0.446,-2.965 -0.68,-6.113 -0.68,-9.375 0,-2.137 0.102,-4.227 0.297,-6.25 z m 5.586,-18.469 -0.07,0.028 c -6.399,2.546 -11.575,7.503 -14.403,13.753 l 9.527,0.004 C 23.793,21.086 25.5,16.32 27.758,12.781 Z m 9.746,-1.847 -0.359,0.015 c -3.957,0.363 -7.778,6.621 -9.551,15.613 h 19.82 C 45.645,17.594 41.844,11.348 37.898,10.953 Z m 9.75,1.847 0.336,0.543 c 2.09,3.477 3.68,8.039 4.609,13.242 l 9.524,-0.004 C 59.02,20.59 54.176,15.797 48.164,13.16 Z m 3.25,27.313 -12.492,24.996 c -1.559,3.117 0.711,6.785 4.199,6.785 h 24.98 c 3.485,0 5.754,-3.668 4.196,-6.785 L 58.895,40.094 c -1.727,-3.457 -6.665,-3.457 -8.391,0 z m 5.758,8.328 v 9.383 c 0,0.863 -0.7,1.562 -1.563,1.562 -0.863,0 -1.562,-0.699 -1.562,-1.562 v -9.383 c 0,-0.863 0.699,-1.563 1.562,-1.563 0.863,0 1.563,0.7 1.563,1.563 z m -1.563,17.199 c -0.863,0 -1.562,-0.699 -1.562,-1.562 0,-0.864 0.699,-1.563 1.562,-1.563 0.863,0 1.563,0.699 1.563,1.563 0,0.863 -0.7,1.562 -1.563,1.562 z" style="fill:currentColor;fill-opacity:1;fill-rule:nonzero;stroke:none" transform="scale(1.3333333)" /> </g>
</svg>

