<?xml version="1.0" encoding="UTF-8" standalone="no"?> <svg version="1.1" id="I7a5fb5f9e2054df98f2b52294ca7263b20251106171633" width="100" height="100" viewBox="0 0 100 100" xmlns="http://www.w3.org/2000/svg" xmlns:svg="http://www.w3.org/2000/svg"> <defs id="Id7f0515a119d4acc86511d04d6f5060720251106171633" /> <g id="I23332a00a4d9427fb5ee254e41c9397520251106171633"> <path id="I0c541ce354014655b0bea6c66f67e8b920251106171633" d="M 25.445,28.289 5.945,8.785 C 5.16,8.004 5.16,6.73 5.945,5.945 6.73,5.16 8.004,5.16 8.785,5.945 l 60.27,60.27 c 0.785,0.785 0.785,2.055 0,2.84 -0.785,0.785 -2.059,0.785 -2.844,0 L 51.883,54.723 c -3.336,3.023 -7.633,5.011 -12.375,5.453 v 7.457 c 0,1.109 -0.899,2.012 -2.008,2.012 -1.109,0 -2.008,-0.903 -2.008,-2.012 V 60.176 C 24.598,59.16 16.07,49.996 16.07,38.84 v -2.008 c 0,-1.109 0.903,-2.008 2.012,-2.008 1.109,0 2.008,0.899 2.008,2.008 v 2.008 c 0,9.613 7.793,17.41 17.41,17.41 4.426,0 8.465,-1.652 11.535,-4.371 l -3.797,-3.797 c -2.093,1.754 -4.793,2.813 -7.738,2.813 -6.656,0 -12.055,-5.399 -12.055,-12.055 z M 42.383,45.223 29.465,32.305 v 6.535 c 0,4.437 3.597,8.035 8.035,8.035 1.836,0 3.527,-0.617 4.883,-1.652 z M 25.457,16.934 29.465,20.941 V 17.41 c 0,-4.437 3.597,-8.035 8.035,-8.035 4.438,0 8.035,3.598 8.035,8.035 v 19.602 l 3.848,3.851 c 0.113,-0.66 0.172,-1.336 0.172,-2.023 V 17.41 c 0,-6.656 -5.399,-12.055 -12.055,-12.055 -6.496,0 -11.793,5.141 -12.043,11.579 z m 28.258,28.257 3.047,3.047 c 1.386,-2.836 2.168,-6.027 2.168,-9.398 v -2.008 c 0,-1.109 -0.903,-2.008 -2.012,-2.008 -1.109,0 -2.008,0.899 -2.008,2.008 v 2.008 c 0,2.242 -0.422,4.383 -1.195,6.351 z" style="fill:currentColor;fill-opacity:1;fill-rule:nonzero;stroke:none" transform="scale(1.3333333)" /> </g>
</svg>

