<?xml version="1.0" encoding="UTF-8" standalone="no"?> <svg version="1.1" id="I453c813f094749f0bf4413a4de98459520251110124420" width="100" height="100" viewBox="0 0 100 100" xmlns="http://www.w3.org/2000/svg" xmlns:svg="http://www.w3.org/2000/svg"> <defs id="Ie8616a9f850441f5942376dd0b3ff8c920251110124420" /> <g id="Idf80adf5387949dea213d46ea917a23420251110124420"> <path id="I54d0a6da06cf4ff8a5e5867b1336e69d20251110124420" d="m 27.586,9.664 c -0.203,-1.09 -1.25,-1.812 -2.34,-1.613 -1.09,0.203 -1.812,1.25 -1.613,2.34 0.039,0.207 0.078,0.41 0.125,0.613 -6.543,2.031 -10.254,5.336 -12.254,9.113 -1.859,3.516 -2.102,7.203 -2.129,9.988 l -2.766,3.536 c -2.156,2.75 -1.527,6.75 1.368,8.707 l 31.132,21.054 c 3.434,2.325 7.485,3.563 11.629,3.563 h 9.016 c 5.465,0 9.894,-4.43 9.894,-9.891 0,-0.062 -0.003,-0.121 -0.003,-0.183 -0.102,-5.465 -4.637,-9.329 -8.95,-11.075 -1.722,-0.695 -3.191,-1.679 -4.105,-3.031 l -10.168,-17.347 0.113,-0.02 c 1.094,-0.184 1.832,-1.223 1.649,-2.316 -0.188,-1.094 -1.223,-1.829 -2.317,-1.645 -0.941,0.16 -1.879,0.238 -2.797,0.246 -6.75,0.059 -12.672,-3.805 -14.84,-9.676 -0.277,-0.75 -0.496,-1.539 -0.644,-2.363 z m -7.359,7.188 6.023,10.433 c 1.109,1.922 0.453,4.379 -1.469,5.488 l -5.113,2.954 -6.277,-4.235 v -0.687 c 0,-2.801 0.144,-5.938 1.664,-8.809 0.953,-1.801 2.515,-3.613 5.172,-5.144 z m 3.937,21.91 10.531,-6.078 c 1.922,-1.11 4.379,-0.454 5.489,1.468 l 2.144,3.719 c 1.11,1.922 0.453,4.379 -1.469,5.488 l -5.324,3.071 z m 26.617,20.176 h 14.547 c -0.781,2.332 -2.98,4.011 -5.574,4.011 h -9.016 c -3.343,0 -6.609,-1.004 -9.379,-2.875 L 10.227,39.02 C 9.262,38.367 9.055,37.035 9.77,36.117 l 1.14,-1.453 32.754,22.098 c 2.106,1.418 4.582,2.176 7.117,2.176 z M 9.77,36.117 8.191,34.879 Z" style="fill:currentColor;fill-opacity:1;fill-rule:nonzero;stroke:none" transform="scale(1.3333333)" /> </g>
</svg>

