<?xml version="1.0" encoding="UTF-8" standalone="no"?> <svg version="1.1" id="I41099a38d7704588b48b44d948cd03be20251106142135" width="100" height="100" viewBox="0 0 100 100" xmlns="http://www.w3.org/2000/svg" xmlns:svg="http://www.w3.org/2000/svg"> <defs id="I523c03a1033a47378ec124e4707e980d20251106142135" /> <g id="Ie95005c1aa3d4e2898290a0b37a4ee7320251106142135"> <path id="I6dc2cf4517084a80a01919ee5a738f5620251106142135" d="m 41.902,7.852 c -2.824,-1.145 -5.98,-1.145 -8.804,0 l -23.434,9.5 C 7.602,18.188 6.25,20.191 6.25,22.418 V 36.25 c 1.453,-0.746 3.031,-1.289 4.688,-1.59 V 24.215 l 24.218,9.418 v 31.289 l 0.742,0.742 c 0.676,0.676 1.137,1.484 1.387,2.344 1.567,0.027 3.137,-0.258 4.617,-0.856 l 23.434,-9.5 c 2.062,-0.84 3.414,-2.843 3.414,-5.07 V 22.418 c 0,-2.227 -1.352,-4.23 -3.414,-5.066 z m -7.043,4.343 c 1.692,-0.687 3.59,-0.687 5.282,0 l 20.601,8.352 -8.344,3.219 -23.519,-9.149 z m -12.312,4.993 23.363,9.085 -8.406,3.243 -23.16,-9.004 z m 41.027,36.121 -23.433,9.5 c -0.098,0.039 -0.196,0.074 -0.297,0.109 V 33.637 l 24.218,-9.348 v 28.293 c 0,0.32 -0.191,0.606 -0.488,0.727 z M 14.062,65.625 c 3.036,0 5.848,-0.961 8.149,-2.602 l 8.164,8.165 c 0.914,0.917 2.398,0.917 3.313,0 0.917,-0.915 0.917,-2.399 0,-3.313 L 25.523,59.711 C 27.164,57.41 28.125,54.602 28.125,51.562 28.125,43.797 21.828,37.5 14.062,37.5 6.297,37.5 0,43.797 0,51.562 0,59.328 6.297,65.625 14.062,65.625 Z m 0,-4.687 c -5.175,0 -9.374,-4.196 -9.374,-9.376 0,-5.179 4.199,-9.374 9.374,-9.374 5.176,0 9.376,4.195 9.376,9.374 0,5.18 -4.2,9.376 -9.376,9.376 z" style="fill:currentColor;fill-opacity:1;fill-rule:nonzero;stroke:none" transform="scale(1.3333333)" /> </g>
</svg>

