<?xml version="1.0" encoding="UTF-8" standalone="no"?> <svg version="1.1" id="I5cb58359d67b47e7ba4737d3077a42f320251110123030" width="100" height="100" viewBox="0 0 100 100" xmlns="http://www.w3.org/2000/svg" xmlns:svg="http://www.w3.org/2000/svg"> <defs id="Ief1e7ec9e93c418082d366603e39f40d20251110123030" /> <g id="I7461b5863f53437db4bea104e3d5431f20251110123030"> <path id="Ic02f69f0d70f46b89e5eee9c0f11516220251110123030" d="m 53.57,37.5 c 4.438,0 8.035,3.598 8.035,8.035 v 2.68 h 1.34 c 2.961,0 5.36,2.398 5.36,5.355 v 13.395 c 0,2.957 -2.399,5.355 -5.36,5.355 h -18.75 c -2.957,0 -5.355,-2.398 -5.355,-5.355 V 53.57 c 0,-2.957 2.398,-5.355 5.355,-5.355 h 1.34 v -2.68 c 0,-4.437 3.598,-8.035 8.035,-8.035 z m 0,18.75 c -2.218,0 -4.015,1.801 -4.015,4.02 0,2.218 1.797,4.015 4.015,4.015 2.219,0 4.02,-1.797 4.02,-4.015 0,-2.219 -1.801,-4.02 -4.02,-4.02 z M 39.508,40.18 c 1.558,0 2.972,0.593 4.043,1.562 -0.446,1.18 -0.696,2.457 -0.696,3.793 v 0.11 c -0.464,0.078 -0.914,0.195 -1.351,0.351 -0.106,-1.012 -0.957,-1.801 -1.996,-1.801 H 11.383 c -1.11,0 -2.008,0.903 -2.008,2.012 v 1.324 l 0.004,0.047 c 0,0.055 0.008,0.145 0.019,0.27 0.028,0.25 0.082,0.629 0.2,1.093 0.23,0.93 0.699,2.176 1.632,3.426 1.805,2.403 5.665,5.223 14.215,5.223 5.004,0 8.399,-0.973 10.715,-2.254 v 4.441 c -2.746,1.118 -6.254,1.828 -10.715,1.828 -9.527,0 -14.707,-3.207 -17.425,-6.828 C 6.695,53.012 6.031,51.246 5.699,49.914 5.535,49.25 5.449,48.688 5.402,48.277 5.383,48.07 5.371,47.902 5.363,47.781 c 0,-0.062 -0.004,-0.113 -0.008,-0.152 v -1.422 c 0,-3.328 2.7,-6.027 6.028,-6.027 z m 14.062,1.34 c -2.218,0 -4.015,1.796 -4.015,4.015 v 2.68 h 8.035 v -2.68 c 0,-2.219 -1.801,-4.015 -4.02,-4.015 z M 25.445,10.715 c 6.657,0 12.055,5.394 12.055,12.055 0,6.656 -5.398,12.05 -12.055,12.05 -6.656,0 -12.05,-5.394 -12.05,-12.05 0,-6.661 5.394,-12.055 12.05,-12.055 z M 53.57,16.07 c 5.18,0 9.375,4.2 9.375,9.375 0,5.18 -4.195,9.375 -9.375,9.375 -5.175,0 -9.375,-4.195 -9.375,-9.375 0,-5.175 4.2,-9.375 9.375,-9.375 z M 25.445,14.73 c -4.437,0 -8.035,3.598 -8.035,8.04 0,4.437 3.598,8.035 8.035,8.035 4.438,0 8.035,-3.598 8.035,-8.035 0,-4.442 -3.597,-8.04 -8.035,-8.04 z m 28.125,5.36 c -2.957,0 -5.355,2.398 -5.355,5.355 0,2.961 2.398,5.36 5.355,5.36 2.961,0 5.36,-2.399 5.36,-5.36 0,-2.957 -2.399,-5.355 -5.36,-5.355 z" style="fill:currentColor;fill-opacity:1;fill-rule:nonzero;stroke:none" transform="scale(1.3333333)" /> </g>
</svg>

