<?xml version="1.0" encoding="UTF-8" standalone="no"?> <svg version="1.1" id="Ic8e8be053ff6463aba48a60129b94d5920251106143238" width="100" height="100" viewBox="0 0 100 100" xmlns="http://www.w3.org/2000/svg" xmlns:svg="http://www.w3.org/2000/svg"> <defs id="I7969ed914bba43999d7ec938fbc094a220251106143238" /> <g id="Ibe304f8640054d8485b51a2bc4f81b4c20251106143238"> <path id="I5331d06adf7e4851a9ab95a4400e688120251106143238" d="m 58.258,8.035 c 4.808,0 8.707,3.899 8.707,8.707 V 47.766 C 65.711,47.27 64.359,46.965 62.945,46.891 V 25.453 h -50.89 v 32.805 c 0,2.59 2.097,4.687 4.687,4.687 h 18.524 c 0.398,1.461 1.05,2.817 1.902,4.02 H 16.742 c -4.808,0 -8.707,-3.899 -8.707,-8.707 V 16.742 c 0,-4.808 3.899,-8.707 8.707,-8.707 z m 0,4.02 H 16.742 c -2.59,0 -4.687,2.097 -4.687,4.687 v 4.696 h 50.89 v -4.696 c 0,-2.59 -2.097,-4.687 -4.687,-4.687 z M 47.543,53.57 c -3.328,0 -6.023,2.7 -6.023,6.028 0,3.328 2.695,6.027 6.023,6.027 h 1.34 c 1.109,0 2.012,0.898 2.012,2.008 0,1.109 -0.903,2.012 -2.012,2.012 h -1.34 c -5.547,0 -10.043,-4.5 -10.043,-10.047 0,-5.547 4.496,-10.043 10.043,-10.043 h 1.34 c 1.109,0 2.012,0.898 2.012,2.007 0,1.11 -0.903,2.008 -2.012,2.008 z m -2.008,6.028 c 0,-1.11 0.899,-2.008 2.008,-2.008 h 14.734 c 1.11,0 2.008,0.898 2.008,2.008 0,1.109 -0.898,2.007 -2.008,2.007 H 47.543 c -1.109,0 -2.008,-0.898 -2.008,-2.007 z m 16.742,6.027 c 3.328,0 6.028,-2.699 6.028,-6.027 0,-3.328 -2.7,-6.028 -6.028,-6.028 h -1.339 c -1.11,0 -2.008,-0.898 -2.008,-2.008 0,-1.109 0.898,-2.007 2.008,-2.007 h 1.339 c 5.547,0 10.043,4.496 10.043,10.043 0,5.547 -4.496,10.047 -10.043,10.047 h -1.339 c -1.11,0 -2.008,-0.903 -2.008,-2.012 0,-1.11 0.898,-2.008 2.008,-2.008 z" style="fill:currentColor;fill-opacity:1;fill-rule:nonzero;stroke:none" transform="scale(1.3333333)" /> </g>
</svg>

