<?xml version="1.0" encoding="UTF-8" standalone="no"?> <svg version="1.1" id="I8f48b756e61c45cc8c3a76fe685d8b7220251106123559" width="100" height="100" viewBox="0 0 100 100" xmlns="http://www.w3.org/2000/svg" xmlns:svg="http://www.w3.org/2000/svg"> <defs id="Ia2d86069cefe40a3911d7fbee87a38d920251106123559"> <linearGradient x1="14" y1="20.5" x2="14.0227" y2="24.9993" gradientUnits="userSpaceOnUse" gradientTransform="scale(2.678571)" spreadMethod="pad" id="If522c47d142f45a3b71031183e6c967f20251106123559"> <stop style="stop-opacity:1;stop-color:#eb4824" offset="0" id="Icea02b6148784e0682ff9eca3d50f01420251106123559" /> <stop style="stop-opacity:0.98823529;stop-color:#ffcd0f" offset="1" id="I1ddd77a7a7d2472f91e1603a949503b820251106123559" /> </linearGradient> <linearGradient x1="21.4937" y1="19" x2="6.5985198" y2="5.29035" gradientUnits="userSpaceOnUse" gradientTransform="scale(2.678571)" spreadMethod="pad" id="If309ef2e3c4147eb940fb4cca27d32bd20251106123559"> <stop style="stop-opacity:1;stop-color:#ff6f47" offset="0" id="I40ee49256f814e2bb00e2829baff0cf120251106123559" /> <stop style="stop-opacity:1;stop-color:#ffcd0f" offset="1" id="I0ade83e0af504459a611677d6cbbb61f20251106123559" /> </linearGradient> </defs> <g id="I3e25d9d051c04116939c08075dfa965b20251106123559"> <path d="m 46.875,57.59 c 0,5.176 -4.199,9.375 -9.375,9.375 -5.176,0 -9.375,-4.199 -9.375,-9.375 0,-5.18 4.199,-9.375 9.375,-9.375 5.176,0 9.375,4.195 9.375,9.375 z" transform="scale(1.3333333)" style="fill:url(#If522c47d142f45a3b71031183e6c967f20251106123559);stroke:none" opacity="1" id="I471f9819e1e8436c933859eec2ce92e920251106123559" /> <path id="I45929e771c9444cb9387a5ce158bcab920251106123559" d="m 37.504,8.035 c 12.344,0 22.394,9.828 22.754,22.09 v 0.684 H 60.27 V 41.82 l 3.785,9.762 c 0.101,0.262 0.172,0.539 0.203,0.816 l 0.027,0.422 c 0,1.778 -1.347,3.239 -3.078,3.414 L 60.859,56.25 H 14.141 c -0.422,0 -0.844,-0.078 -1.243,-0.23 -1.652,-0.645 -2.523,-2.434 -2.062,-4.106 l 0.113,-0.336 3.789,-9.762 0.004,-11.007 C 14.742,18.23 24.934,8.035 37.504,8.035 Z" transform="scale(1.3333333)" style="fill:url(#If309ef2e3c4147eb940fb4cca27d32bd20251106123559);stroke:none" /> </g>
</svg>

