<?xml version="1.0" encoding="UTF-8" standalone="no"?> <svg version="1.1" id="Ic8acdfb5c9bc4da2b9a56c28aa70efc820251106123559" width="100" height="100" viewBox="0 0 100 100" xmlns="http://www.w3.org/2000/svg" xmlns:svg="http://www.w3.org/2000/svg"> <defs id="I9085af2c453c4f94a42334c27bfa613220251106123559" /> <g id="I79e437345577400f922dce6c6be7ca3720251106123559"> <path id="I88450c432f86492fafacac6e994c4a2020251106123559" d="m 38.168,69.645 c -1.109,0 -2.008,-0.903 -2.008,-2.012 v -6.028 h -9.375 c -4.066,0 -7.367,-3.296 -7.367,-7.363 v -6.699 c 0,-4.066 3.301,-7.363 7.367,-7.363 H 36.16 V 34.82 H 19.418 c -4.066,0 -7.363,-3.297 -7.363,-7.363 v -6.699 c 0,-4.067 3.297,-7.363 7.363,-7.363 H 36.16 V 7.367 c 0,-1.109 0.899,-2.012 2.008,-2.012 1.109,0 2.012,0.903 2.012,2.012 v 6.028 h 15.402 c 4.066,0 7.363,3.296 7.363,7.363 v 6.699 c 0,4.066 -3.297,7.363 -7.363,7.363 H 40.18 v 5.36 h 8.035 c 4.066,0 7.367,3.297 7.367,7.363 v 6.699 c 0,4.067 -3.301,7.363 -7.367,7.363 H 40.18 v 6.028 c 0,1.109 -0.903,2.012 -2.012,2.012 z" style="fill:currentColor;fill-opacity:1;fill-rule:nonzero;stroke:none" transform="scale(1.3333333)" /> </g>
</svg>

