<?xml version="1.0" encoding="UTF-8" standalone="no"?> <svg version="1.1" id="I50d41bd31f324cc8a825dca491b178cb20251106125937" width="100" height="100" viewBox="0 0 100 100" xmlns="http://www.w3.org/2000/svg" xmlns:svg="http://www.w3.org/2000/svg"> <defs id="I1da383e1c71042a48ac915522cde42fb20251106125937" /> <g id="I8c479291bcc043069e0d12fbc1385e5020251106125937"> <path id="Ia78ab4a3afd941a89839cc91cceab8d520251106125937" d="m 29.062,65.625 c -1.554,0 -2.812,-1.258 -2.812,-2.813 C 26.25,61.258 27.508,60 29.062,60 H 52.5 c 4.141,0 7.5,-3.359 7.5,-7.5 v -30 C 60,18.359 56.641,15 52.5,15 H 29.062 c -1.554,0 -2.812,-1.258 -2.812,-2.812 0,-1.555 1.258,-2.813 2.812,-2.813 H 52.5 c 7.25,0 13.125,5.875 13.125,13.125 v 30 c 0,7.25 -5.875,13.125 -13.125,13.125 z M 29.031,23.246 c 1.141,-1.055 2.918,-0.984 3.973,0.16 l 11.25,12.188 c 0.996,1.074 0.996,2.738 0,3.812 l -11.25,12.188 c -1.055,1.144 -2.832,1.215 -3.973,0.16 -1.144,-1.055 -1.215,-2.832 -0.16,-3.973 l 6.895,-7.469 H 6.562 c -1.554,0 -2.812,-1.257 -2.812,-2.812 0,-1.555 1.258,-2.812 2.812,-2.812 h 29.204 l -6.895,-7.469 c -1.055,-1.141 -0.984,-2.918 0.16,-3.973 z" style="fill:currentColor;fill-opacity:1;fill-rule:nonzero;stroke:none" transform="scale(1.3333333)" /> </g>
</svg>

