<?xml version="1.0" encoding="UTF-8" standalone="no"?> <svg version="1.1" id="Id5d9e1be6f87432a90915bc2a596d82d20251106171634" width="100" height="100" viewBox="0 0 100 100" xmlns="http://www.w3.org/2000/svg" xmlns:svg="http://www.w3.org/2000/svg"> <defs id="Ib83ee17d7f584b059dc6e5a1e4e0239b20251106171634" /> <g id="I005284fabbf24f1a82718cf4c7a0f60c20251106171634"> <path id="I72f97a2d7d5243c2b3b7f3af9c305f3b20251106171634" d="m 14.062,8.594 c 0,-1.293 1.051,-2.344 2.344,-2.344 h 2.707 c 1.297,0 2.344,1.051 2.344,2.344 0,1.293 -1.047,2.344 -2.344,2.344 h -2.707 c -1.293,0 -2.344,-1.051 -2.344,-2.344 z m 10.833,0 c 0,-1.293 1.05,-2.344 2.343,-2.344 h 5.418 c 1.293,0 2.344,1.051 2.344,2.344 0,1.293 -1.051,2.344 -2.344,2.344 h -5.418 c -1.293,0 -2.343,-1.051 -2.343,-2.344 z m 13.543,0 c 0,-1.293 1.05,-2.344 2.343,-2.344 h 5.418 c 1.293,0 2.344,1.051 2.344,2.344 0,1.293 -1.051,2.344 -2.344,2.344 h -5.418 c -1.293,0 -2.343,-1.051 -2.343,-2.344 z m 13.542,0 c 0,-1.293 1.047,-2.344 2.344,-2.344 h 2.707 c 1.293,0 2.344,1.051 2.344,2.344 0,1.293 -1.051,2.344 -2.344,2.344 h -2.707 c -1.297,0 -2.344,-1.051 -2.344,-2.344 z M 14.062,66.406 c 0,-1.293 1.051,-2.344 2.344,-2.344 h 40.625 c 1.293,0 2.344,1.051 2.344,2.344 0,1.293 -1.051,2.344 -2.344,2.344 H 16.406 c -1.293,0 -2.344,-1.051 -2.344,-2.344 z M 38.375,16.312 c -0.914,-0.917 -2.398,-0.917 -3.313,0 L 19.438,31.938 c -0.918,0.914 -0.918,2.398 0,3.312 0.914,0.918 2.398,0.918 3.312,0 L 34.375,23.629 v 33.402 c 0,1.293 1.051,2.344 2.344,2.344 1.293,0 2.343,-1.051 2.343,-2.344 V 23.629 L 50.688,35.25 c 0.914,0.918 2.398,0.918 3.312,0 0.918,-0.914 0.918,-2.398 0,-3.312 z" style="fill:currentColor;fill-opacity:1;fill-rule:nonzero;stroke:none" transform="scale(1.3333333)" /> </g>
</svg>

