<?xml version="1.0" encoding="UTF-8" standalone="no"?> <svg version="1.1" id="Iae3d59bf71c2401fb7c179f071e51a0020251106170956" width="100" height="100" viewBox="0 0 100 100" xmlns="http://www.w3.org/2000/svg" xmlns:svg="http://www.w3.org/2000/svg"> <defs id="I1fb5b1e037674875a11ef6ae11d56c5520251106170956" /> <g id="I3feb302a2efc4e30ae09f9abafffdc7e20251106170956"> <path id="I6ac83aedbafc4950af96aca08b55d62320251106170956" d="M 71.875,20.312 C 71.875,10.82 64.18,3.125 54.688,3.125 45.195,3.125 37.5,10.82 37.5,20.312 c 0,9.493 7.695,17.188 17.188,17.188 9.492,0 17.187,-7.695 17.187,-17.188 z M 54.688,9.375 c 0.863,0 1.562,0.699 1.562,1.563 v 7.812 h 6.25 c 0.863,0 1.562,0.699 1.562,1.562 0,0.864 -0.699,1.563 -1.562,1.563 h -7.812 c -0.864,0 -1.563,-0.699 -1.563,-1.563 v -9.374 c 0,-0.864 0.699,-1.563 1.563,-1.563 z M 68.75,34.969 c -3.648,3.504 -8.605,5.656 -14.062,5.656 -3.055,0 -5.95,-0.672 -8.547,-1.879 l -7.555,3.957 c -0.68,0.356 -1.492,0.356 -2.172,0 L 6.25,26.898 v 25.446 l 0.016,0.578 c 0.3,5.34 4.726,9.578 10.14,9.578 h 42.188 l 0.578,-0.016 c 5.34,-0.3 9.578,-4.726 9.578,-10.14 z M 35.934,12.5 H 16.406 l -0.582,0.016 c -5,0.281 -9.031,4.179 -9.523,9.121 L 37.5,37.98 41.59,35.836 c -4.414,-3.723 -7.215,-9.297 -7.215,-15.524 0,-2.769 0.555,-5.406 1.559,-7.812 z" style="fill:currentColor;fill-opacity:1;fill-rule:nonzero;stroke:none" transform="scale(1.3333333)" /> </g>
</svg>

