<?xml version="1.0" encoding="UTF-8" standalone="no"?> <svg version="1.1" id="I7317e750f8834e2cbf8a5e1b69c6d1ed20251106142135" width="100" height="100" viewBox="0 0 100 100" xmlns="http://www.w3.org/2000/svg" xmlns:svg="http://www.w3.org/2000/svg"> <defs id="I0060d4f69560463faed2cc7da9e7eb3320251106142135" /> <g id="I7416b924dc92446992a3e338cbb58b0220251106142135"> <path id="Ib21183d65a6a41bc93eb177d3f6f963320251106142135" d="m 41.902,7.852 c -2.824,-1.145 -5.98,-1.145 -8.804,0 L 26.25,10.629 56.227,22.285 66.773,18.211 C 66.348,17.859 65.867,17.566 65.336,17.352 Z M 68.75,22.473 39.844,33.641 v 7.183 c 3.707,-3.965 8.984,-6.445 14.844,-6.445 5.457,0 10.414,2.152 14.062,5.652 z M 35.156,33.641 v 15.453 c -0.508,1.777 -0.781,3.656 -0.781,5.597 0,1.942 0.273,3.817 0.781,5.594 v 7.492 c -0.699,-0.144 -1.39,-0.351 -2.058,-0.625 L 9.664,57.652 C 7.602,56.816 6.25,54.812 6.25,52.586 V 22.473 Z M 8.227,18.211 37.5,29.52 49.738,24.793 19.918,13.195 9.664,17.352 c -0.531,0.214 -1.012,0.507 -1.437,0.859 z m 63.648,36.48 c 0,-9.492 -7.695,-17.187 -17.187,-17.187 -9.493,0 -17.188,7.695 -17.188,17.187 0,9.493 7.695,17.188 17.188,17.188 9.492,0 17.187,-7.695 17.187,-17.188 z M 54.82,43.758 l 0.266,0.047 0.199,0.066 0.211,0.106 0.149,0.101 7.96,7.945 0.18,0.215 c 0.422,0.61 0.363,1.453 -0.18,1.996 -0.543,0.539 -1.386,0.602 -1.992,0.18 l -0.218,-0.18 -5.149,-5.148 0.004,16.543 -0.023,0.281 c -0.118,0.637 -0.622,1.141 -1.258,1.254 l -0.281,0.027 -0.282,-0.027 C 53.77,67.051 53.266,66.547 53.148,65.91 l -0.023,-0.281 -0.004,-16.539 -5.141,5.144 -0.218,0.18 c -0.532,0.367 -1.242,0.367 -1.774,0 l -0.218,-0.18 -0.18,-0.218 c -0.371,-0.532 -0.371,-1.243 0,-1.778 l 0.18,-0.215 7.851,-7.851 0.176,-0.141 0.23,-0.133 0.262,-0.093 0.188,-0.035 0.171,-0.016 z" style="fill:currentColor;fill-opacity:1;fill-rule:nonzero;stroke:none" transform="scale(1.3333333)" /> </g>
</svg>

