<?xml version="1.0" encoding="UTF-8" standalone="no"?> <svg version="1.1" id="Icd73f65482f24777861c12e6f927842120251106132946" width="100" height="100" viewBox="0 0 100 100" xmlns="http://www.w3.org/2000/svg" xmlns:svg="http://www.w3.org/2000/svg"> <defs id="I6dff1464f58b461fa284ffb2bea145d220251106132946" /> <g id="I4082e3a6942c47fb9211e3d45cfd928e20251106132946"> <path id="I51ad0feb18bf4cee8fd5c42d0c0c157d20251106132946" d="m 23.438,5.355 c -5.547,0 -10.043,4.5 -10.043,10.047 v 44.196 c 0,5.547 4.496,10.043 10.043,10.043 h 36.16 c 1.109,0 2.007,-0.899 2.007,-2.008 0,-1.11 -0.898,-2.008 -2.007,-2.008 h -36.16 c -3.102,0 -5.657,-2.344 -5.989,-5.355 H 57.59 c 2.219,0 4.015,-1.801 4.015,-4.02 V 15.402 C 61.605,9.855 57.109,5.355 51.562,5.355 Z M 57.59,15.402 V 56.25 H 17.41 V 15.402 c 0,-3.328 2.699,-6.027 6.028,-6.027 h 28.124 c 3.329,0 6.028,2.699 6.028,6.027 z M 44.195,25.445 c 0,3.7 -2.996,6.7 -6.695,6.7 -3.699,0 -6.695,-3 -6.695,-6.7 0,-3.695 2.996,-6.695 6.695,-6.695 3.699,0 6.695,3 6.695,6.695 z m 5.36,14.399 c 0,4.168 -3.446,8.371 -12.055,8.371 -8.609,0 -12.055,-4.188 -12.055,-8.371 v -0.278 c 0,-2.621 2.129,-4.746 4.75,-4.746 h 14.61 c 2.621,0 4.75,2.125 4.75,4.746 z" style="fill:currentColor;fill-opacity:1;fill-rule:nonzero;stroke:none" transform="scale(1.3333333)" /> </g>
</svg>

