<svg version="1.2" xmlns="http://www.w3.org/2000/svg" viewBox="0 0 100 100" width="100" height="100">
	<style>
		.C300b0ee8a2534d44829ae4642e5fbd5c20251030142522 { fill: #000000 } 
	</style>
	<g id="I9b97be8bd3a745ffbd3f274a2d305cdc20251030142522">
		<path id="Ib2c64048e68141228558204f1d7c3d1620251030142522" fill-rule="evenodd" class="C300b0ee8a2534d44829ae4642e5fbd5c20251030142522" d="m49.94 99.52c-27.41 0-49.58-22.16-49.58-49.58 0-27.41 22.17-49.58 49.58-49.58 27.42 0 49.58 22.17 49.58 49.58 0 27.42-22.16 49.58-49.58 49.58zm0-6.2c-23.99 0-43.38-19.39-43.38-43.38 0-23.99 19.39-43.38 43.38-43.38 23.99 0 43.38 19.39 43.38 43.38 0 23.99-19.39 43.38-43.38 43.38zm18.59-46.48h-37.18c-1.71 0-3.1 1.4-3.1 3.1 0 1.7 1.39 3.1 3.1 3.1h37.18c1.72 0 3.1-1.4 3.1-3.1 0-1.7-1.38-3.1-3.1-3.1z"/>
	</g>
</svg>
