<svg version="1.2" xmlns="http://www.w3.org/2000/svg" viewBox="0 0 100 100" width="100" height="100">
	<style>
		.C79729ae036d24128b6ff41a0a9193f5a20251103104211 { fill: #000000 } 
	</style>
	<g id="Id1c8d313fd834d48873dfaa12134503f20251103104211">
		<path id="Id9c26c58f6db4284acaf9be8dffdb6ef20251103104211" fill-rule="evenodd" class="C79729ae036d24128b6ff41a0a9193f5a20251103104211" d="m49.94 99.52c-27.41 0-49.58-22.16-49.58-49.58 0-27.41 22.17-49.58 49.58-49.58 27.42 0 49.58 22.17 49.58 49.58 0 27.42-22.16 49.58-49.58 49.58zm0-6.2c-23.99 0-43.38-19.39-43.38-43.38 0-23.99 19.39-43.38 43.38-43.38 23.99 0 43.38 19.39 43.38 43.38 0 23.99-19.39 43.38-43.38 43.38zm18.59-46.48h-37.18c-1.71 0-3.1 1.4-3.1 3.1 0 1.7 1.39 3.1 3.1 3.1h37.18c1.72 0 3.1-1.4 3.1-3.1 0-1.7-1.38-3.1-3.1-3.1z"/>
	</g>
</svg>







