<?xml version="1.0" encoding="UTF-8" standalone="no"?> <svg version="1.1" id="Id733886323e740b7b8ad27c8a7a9854520251110123031" width="100" height="100" viewBox="0 0 100 100" xmlns="http://www.w3.org/2000/svg" xmlns:svg="http://www.w3.org/2000/svg"> <defs id="I07a9eadb351043558f07fdef4e9f6d0820251110123031" /> <g id="I61bace80acc84591b821e5a629b3aead20251110123031"> <path id="I7b25765d2f294bfd80063bfffb41980f20251110123031" d="m 54.688,37.5 c 9.492,0 17.187,7.695 17.187,17.188 0,9.492 -7.695,17.187 -17.187,17.187 C 45.195,71.875 37.5,64.18 37.5,54.688 37.5,45.195 45.195,37.5 54.688,37.5 Z M 42.969,6.25 C 46.852,6.25 50,9.398 50,13.281 v 21.637 c -1.648,0.391 -3.223,0.98 -4.688,1.746 V 13.281 c 0,-1.293 -1.05,-2.343 -2.343,-2.343 H 19.531 c -1.293,0 -2.343,1.05 -2.343,2.343 v 48.438 c 0,1.293 1.05,2.343 2.343,2.343 l 17.133,0.004 c 0.898,1.723 2.035,3.297 3.367,4.688 L 19.531,68.75 C 15.648,68.75 12.5,65.602 12.5,61.719 V 13.281 C 12.5,9.398 15.648,6.25 19.531,6.25 Z M 27.34,54.699 34.375,54.684 c 0,1.617 0.187,3.187 0.543,4.691 l -7.57,0.012 C 26.055,59.391 25,58.34 25,57.047 c 0,-1.293 1.047,-2.344 2.34,-2.348 z M 51.562,43.75 C 50.699,43.75 50,44.449 50,45.312 v 12.5 c 0,0.864 0.699,1.563 1.562,1.563 h 9.379 c 0.864,0 1.563,-0.699 1.563,-1.563 0,-0.863 -0.699,-1.562 -1.563,-1.562 H 53.125 V 45.312 c 0,-0.863 -0.699,-1.562 -1.563,-1.562 z" style="fill:currentColor;fill-opacity:1;fill-rule:nonzero;stroke:none" transform="scale(1.3333333)" /> </g>
</svg>

