<?xml version="1.0" encoding="UTF-8" standalone="no"?> <svg version="1.1" id="I3308d55806a64187b8daff9c8cdd0bdc20251110124419" width="100" height="100" viewBox="0 0 100 100" xmlns="http://www.w3.org/2000/svg" xmlns:svg="http://www.w3.org/2000/svg"> <defs id="I47e8d20c980c4846813436d1d8be879220251110124419" /> <g id="Ic9fc9193aa9c47c09f6fee2c711c5dbc20251110124419"> <path id="I730d9683812e4dc997efdd5cd4cac07f20251110124419" d="m 28.125,24.219 c 0,-1.293 1.051,-2.344 2.344,-2.344 h 12.5 c 1.293,0 2.343,1.051 2.343,2.344 0,1.293 -1.05,2.343 -2.343,2.343 h -12.5 c -1.293,0 -2.344,-1.05 -2.344,-2.343 z m 2.344,16.406 c -1.293,0 -2.344,1.051 -2.344,2.344 0,1.293 1.051,2.343 2.344,2.343 h 12.5 c 1.293,0 2.343,-1.05 2.343,-2.343 0,-1.293 -1.05,-2.344 -2.343,-2.344 z M 27.344,31.25 c -1.293,0 -2.344,1.051 -2.344,2.344 0,1.293 1.051,2.344 2.344,2.344 H 47.656 C 48.949,35.938 50,34.887 50,33.594 50,32.301 48.949,31.25 47.656,31.25 Z M 6.25,14.062 c 0,-2.589 2.098,-4.687 4.688,-4.687 h 53.124 c 2.59,0 4.688,2.098 4.688,4.687 0,2.04 -1.305,3.778 -3.125,4.422 v 22.922 c 0,6.473 -5.246,11.719 -11.719,11.719 H 39.844 v 7.813 h 10.937 c 1.293,0 2.344,1.05 2.344,2.343 0,1.293 -1.051,2.344 -2.344,2.344 H 24.219 c -1.293,0 -2.344,-1.051 -2.344,-2.344 0,-1.293 1.051,-2.343 2.344,-2.343 H 35.156 V 53.125 H 21.094 C 14.621,53.125 9.375,47.879 9.375,41.406 V 18.484 C 7.555,17.84 6.25,16.102 6.25,14.062 Z M 60.938,18.75 H 14.062 v 22.656 c 0,3.883 3.149,7.032 7.032,7.032 h 32.812 c 3.883,0 7.032,-3.149 7.032,-7.032 z" style="fill:currentColor;fill-opacity:1;fill-rule:nonzero;stroke:none" transform="scale(1.3333333)" /> </g>
</svg>

