<?xml version="1.0" encoding="UTF-8" standalone="no"?> <svg version="1.1" id="Ie31425a9bbf445568ce501a8b8dfaa0820251110130509" width="100" height="100" viewBox="0 0 100 100" xmlns="http://www.w3.org/2000/svg" xmlns:svg="http://www.w3.org/2000/svg"> <defs id="Ib88bba80c20240978b847ac273d1ac2f20251110130509" /> <g id="I592ffba56d59403ab2411ab530e4dfc920251110130509"> <path id="Ic120facbabc94b73947ce6aaae3e73a720251110130509" d="m 21.188,14.938 c 0.917,-0.915 0.917,-2.399 0,-3.313 -0.915,-0.918 -2.399,-0.918 -3.313,0 l -6.156,6.152 -1.469,-1.465 c -0.914,-0.917 -2.398,-0.917 -3.312,0 -0.918,0.915 -0.918,2.399 0,3.313 l 3.124,3.125 c 0.915,0.918 2.399,0.918 3.313,0 z M 66.406,56.27 H 30.469 l -0.317,0.023 c -1.144,0.156 -2.027,1.137 -2.027,2.32 0,1.297 1.051,2.344 2.344,2.344 h 35.937 l 0.317,-0.019 c 1.144,-0.157 2.027,-1.137 2.027,-2.325 0,-1.293 -1.051,-2.343 -2.344,-2.343 z m 0,-20.332 H 30.469 l -0.317,0.019 c -1.144,0.156 -2.027,1.137 -2.027,2.324 0,1.293 1.051,2.344 2.344,2.344 h 35.937 l 0.317,-0.02 c 1.144,-0.156 2.027,-1.136 2.027,-2.324 0,-1.293 -1.051,-2.343 -2.344,-2.343 z m 0,-20.313 H 30.469 l -0.317,0.02 c -1.144,0.156 -2.027,1.136 -2.027,2.324 0,1.293 1.051,2.343 2.344,2.343 h 35.937 l 0.317,-0.019 c 1.144,-0.156 2.027,-1.137 2.027,-2.324 0,-1.293 -1.051,-2.344 -2.344,-2.344 z M 21.188,55.562 c 0.917,-0.914 0.917,-2.398 0,-3.312 -0.915,-0.918 -2.399,-0.918 -3.313,0 l -6.156,6.152 -1.469,-1.464 c -0.914,-0.918 -2.398,-0.918 -3.312,0 -0.918,0.914 -0.918,2.398 0,3.312 l 3.124,3.125 c 0.915,0.918 2.399,0.918 3.313,0 z m 0,-23.624 c 0.917,0.914 0.917,2.398 0,3.312 l -7.813,7.812 c -0.914,0.918 -2.398,0.918 -3.313,0 L 6.938,39.938 c -0.918,-0.915 -0.918,-2.399 0,-3.313 0.914,-0.918 2.398,-0.918 3.312,0 l 1.469,1.465 6.156,-6.152 c 0.914,-0.918 2.398,-0.918 3.313,0 z" style="fill:currentColor;fill-opacity:1;fill-rule:nonzero;stroke:none" transform="scale(1.3333333)" /> </g>
</svg>

