<?xml version="1.0" encoding="UTF-8" standalone="no"?> <svg version="1.1" id="I9b2903a76b024ff8aa05c4b8c2eec13f20251110124422" width="100" height="100" viewBox="0 0 100 100" xmlns="http://www.w3.org/2000/svg" xmlns:svg="http://www.w3.org/2000/svg"> <defs id="Id8ad1f10045e406c9c78d95213c83c3320251110124422" /> <g id="I616a18e90477463090bd4df7901cc32020251110124422"> <path id="I269acef21b8b491c94248a7feb87183320251110124422" d="m 21.43,14.73 c 0,-5.175 4.195,-9.375 9.375,-9.375 2.621,0 4.996,1.079 6.695,2.817 1.703,-1.738 4.074,-2.817 6.695,-2.817 5.18,0 9.375,4.2 9.375,9.375 v 6.7 h 6.7 c 2.218,0 4.015,1.797 4.015,4.015 V 58.93 c 0,5.914 -4.797,10.711 -10.715,10.711 H 21.43 c -5.918,0 -10.715,-4.797 -10.715,-10.711 V 25.445 c 0,-2.218 1.797,-4.015 4.015,-4.015 h 6.7 z m 28.125,6.7 v -6.7 c 0,-2.957 -2.399,-5.355 -5.36,-5.355 -1.875,0 -3.527,0.965 -4.484,2.426 0.305,0.922 0.469,1.906 0.469,2.929 v 6.7 z M 36.16,14.73 c 0,-2.957 -2.398,-5.355 -5.355,-5.355 -2.961,0 -5.36,2.398 -5.36,5.355 v 6.7 H 36.16 Z m 6.695,10.715 H 14.73 V 58.93 c 0,3.695 3,6.695 6.7,6.695 H 45.207 C 43.738,63.789 42.855,61.461 42.855,58.93 Z m 10.715,40.18 c 3.7,0 6.7,-3 6.7,-6.695 V 25.445 H 46.875 V 58.93 c 0,3.695 3,6.695 6.695,6.695 z" style="fill:currentColor;fill-opacity:1;fill-rule:nonzero;stroke:none" transform="scale(1.3333333)" /> </g>
</svg>

