<?xml version="1.0" encoding="UTF-8" standalone="no"?> <svg version="1.1" id="Id081e8a73a484c2d8bfac6c5090544d420251106144521" width="100" height="100" viewBox="0 0 100 100" xmlns="http://www.w3.org/2000/svg" xmlns:svg="http://www.w3.org/2000/svg"> <defs id="Ic8baaa45ef5c452685a906bd23033b9920251106144521" /> <g id="Ia3795e3372914597ac9b5d629656338120251106144521"> <path id="Ia1c4d93fdc044487ad0dc22acc44922920251106144521" d="M 37.5,65.625 C 21.969,65.625 9.375,53.031 9.375,37.5 9.375,21.969 21.969,9.375 37.5,9.375 c 15.531,0 28.125,12.594 28.125,28.125 0,15.531 -12.594,28.125 -28.125,28.125 z M 5.355,37.5 c 0,17.754 14.391,32.145 32.145,32.145 17.754,0 32.145,-14.391 32.145,-32.145 C 69.645,19.746 55.254,5.355 37.5,5.355 19.746,5.355 5.355,19.746 5.355,37.5 Z m 24.7,13.312 c -0.785,0.786 -0.785,2.055 0,2.84 0.781,0.786 2.054,0.786 2.84,0 l 14.73,-14.73 c 0.785,-0.785 0.785,-2.059 0,-2.844 l -14.73,-14.73 c -0.786,-0.786 -2.059,-0.786 -2.84,0 -0.785,0.785 -0.785,2.054 0,2.84 L 43.363,37.5 Z" style="fill:currentColor;fill-opacity:1;fill-rule:nonzero;stroke:none" transform="scale(1.3333333)" /> </g>
</svg>

