<?xml version="1.0" encoding="UTF-8" standalone="no"?> <svg version="1.1" id="Ideb990d115e34fcdab20fe77d5dce51d20251106164749" width="100" height="100" viewBox="0 0 100 100" xmlns="http://www.w3.org/2000/svg" xmlns:svg="http://www.w3.org/2000/svg"> <defs id="Ib45486b1af834a87b2e363b7f1a45b9b20251106164749" /> <g id="I46d367d09ae649039f746a273bfb808420251106164749"> <path id="Ieaa0b0c0c73d4bc69566bb6bfa09aa0f20251106164749" d="m 26.395,50.461 0.261,0.227 7.032,7.031 c 0.832,0.832 0.91,2.133 0.226,3.051 l -0.226,0.261 -7.032,7.031 c -0.914,0.915 -2.398,0.915 -3.312,0 -0.832,-0.832 -0.906,-2.132 -0.227,-3.05 l 0.227,-0.262 3.027,-3.035 -14.652,0.004 c -1.293,0 -2.344,-1.051 -2.344,-2.344 0,-1.187 0.883,-2.168 2.027,-2.324 L 11.719,57.031 26.371,57.027 23.344,54 c -0.832,-0.832 -0.906,-2.133 -0.227,-3.051 l 0.227,-0.261 c 0.832,-0.833 2.133,-0.911 3.051,-0.227 z m 22.21,0 c 0.817,-0.606 1.938,-0.613 2.758,-0.023 l 0.293,0.25 0.231,0.261 c 0.601,0.817 0.609,1.934 0.019,2.758 l -0.25,0.293 -3.027,3.027 14.652,0.004 c 1.297,0 2.344,1.051 2.344,2.344 0,1.187 -0.883,2.168 -2.023,2.32 l -0.321,0.024 -14.652,-0.004 3.027,3.035 0.231,0.262 c 0.679,0.918 0.601,2.218 -0.231,3.05 -0.832,0.833 -2.133,0.911 -3.051,0.227 L 48.344,68.062 41.312,61.031 41.086,60.77 C 40.48,59.953 40.473,58.836 41.062,58.012 l 0.25,-0.293 7.032,-7.031 z M 27.613,7.121 27.809,7.41 27.965,7.738 42.027,43.676 c 0.473,1.207 -0.125,2.566 -1.328,3.039 -1.105,0.43 -2.34,-0.031 -2.902,-1.043 L 37.66,45.387 33.801,35.523 H 17.762 l -3.86,9.864 c -0.433,1.105 -1.609,1.695 -2.734,1.422 L 10.867,46.715 C 9.762,46.281 9.168,45.102 9.441,43.98 L 9.535,43.676 23.598,7.738 c 0.687,-1.75 2.957,-1.957 4.015,-0.617 z m 33.621,0.332 c 0.563,-1.012 1.797,-1.473 2.903,-1.043 1.105,0.434 1.695,1.613 1.422,2.735 l -0.094,0.304 -14.063,35.938 -0.156,0.328 c -0.887,1.547 -3.168,1.547 -4.051,0 L 47.035,45.387 32.973,9.449 32.879,9.145 C 32.633,8.137 33.09,7.078 33.988,6.562 l 0.317,-0.152 0.3,-0.094 c 1.012,-0.246 2.067,0.211 2.583,1.11 l 0.152,0.316 11.879,30.36 11.879,-30.36 z m -35.453,7.57 -6.187,15.813 h 12.371 z" style="fill:currentColor;fill-opacity:1;fill-rule:nonzero;stroke:none" transform="scale(1.3333333)" /> </g>
</svg>

