<?xml version="1.0" encoding="UTF-8" standalone="no"?> <svg version="1.1" id="I3654791b22eb40678ab35ea5ce72878f20251110123030" width="100" height="100" viewBox="0 0 100 100" xmlns="http://www.w3.org/2000/svg" xmlns:svg="http://www.w3.org/2000/svg"> <defs id="I938811347efc44f3a8abe304d26bf09d20251110123030" /> <g id="I8e84764cff98432796499189533c9bee20251110123030"> <path id="I86da323702764cf6becd695ac9cd514e20251110123030" d="m 37.57,43.75 c -2.023,3.156 -3.195,6.91 -3.195,10.938 0,5.097 1.875,9.753 4.977,13.32 -2.489,0.496 -5.192,0.746 -8.102,0.746 -9.828,0 -17.285,-2.828 -22.18,-8.563 C 7.258,58.07 6.262,55.371 6.262,52.582 v -1.805 c 0,-3.882 3.148,-7.027 7.027,-7.027 z m 9.305,-21.859 c 0,-8.629 -6.996,-15.625 -15.625,-15.625 -8.629,0 -15.625,6.996 -15.625,15.625 0,8.629 6.996,15.625 15.625,15.625 8.629,0 15.625,-6.996 15.625,-15.625 z m 25,32.797 C 71.875,45.195 64.18,37.5 54.688,37.5 45.195,37.5 37.5,45.195 37.5,54.688 c 0,9.492 7.695,17.187 17.188,17.187 9.492,0 17.187,-7.695 17.187,-17.187 z M 54.688,43.75 c 0.863,0 1.562,0.699 1.562,1.562 v 7.813 h 6.25 c 0.863,0 1.562,0.699 1.562,1.563 0,0.863 -0.699,1.562 -1.562,1.562 h -7.812 c -0.864,0 -1.563,-0.699 -1.563,-1.562 v -9.376 c 0,-0.863 0.699,-1.562 1.563,-1.562 z" style="fill:currentColor;fill-opacity:1;fill-rule:nonzero;stroke:none" transform="scale(1.3333333)" /> </g>
</svg>

