<?xml version="1.0" encoding="UTF-8" standalone="no"?> <svg version="1.1" id="Ic4fa2948a7a3494cbca1ab4004ca0cf520251106125938" width="100" height="100" viewBox="0 0 100 100" xmlns="http://www.w3.org/2000/svg" xmlns:svg="http://www.w3.org/2000/svg"> <defs id="I5e8920c000ea4ffe80f0c290b268cf4320251106125938" /> <g id="I430123f0af3d4e33a03120628227463220251106125938"> <path id="I1cdaf2cc702640829dd684fa6610c97320251106125938" d="m 40.965,6.141 c 1.047,-1.047 2.742,-1.047 3.789,0 l 10.711,10.714 c 1.047,1.047 1.047,2.743 0,3.79 L 44.754,31.359 c -1.047,1.043 -2.742,1.043 -3.789,0 -1.047,-1.047 -1.047,-2.742 0,-3.789 l 6.14,-6.14 H 27.457 c -9.023,0 -16.375,7.136 -16.727,16.07 h -0.011 c 0.14,3.594 1.414,6.895 3.472,9.559 h -0.007 c 0.339,0.449 0.539,1.007 0.539,1.609 0,1.48 -1.2,2.68 -2.68,2.68 -0.93,0 -1.75,-0.477 -2.231,-1.196 C 7.137,46.613 5.5,42.242 5.355,37.5 H 5.367 C 5.723,25.605 15.477,16.07 27.457,16.07 h 19.648 l -6.14,-6.14 c -1.047,-1.047 -1.047,-2.742 0,-3.789 z M 69.633,37.5 H 69.621 C 69.27,49.395 59.516,58.93 47.535,58.93 h -19.66 l 6.141,6.14 c 1.046,1.047 1.046,2.742 0,3.789 -1.043,1.043 -2.743,1.043 -3.786,0 L 19.516,58.145 c -1.047,-1.047 -1.047,-2.743 0,-3.79 L 30.23,43.641 c 1.043,-1.043 2.743,-1.043 3.786,0 1.046,1.047 1.046,2.742 0,3.789 l -6.141,6.14 h 19.66 c 9.02,0 16.375,-7.136 16.727,-16.07 h 0.011 c -0.14,-3.594 -1.414,-6.895 -3.472,-9.559 h 0.008 c -0.34,-0.449 -0.539,-1.007 -0.539,-1.609 0,-1.48 1.199,-2.68 2.679,-2.68 0.93,0 1.75,0.477 2.231,1.196 2.675,3.539 4.312,7.91 4.453,12.652 z" style="fill:currentColor;fill-opacity:1;fill-rule:nonzero;stroke:none" transform="scale(1.3333333)" /> </g>
</svg>

