<?xml version="1.0" encoding="UTF-8" standalone="no"?> <svg version="1.1" id="I4de82ad17e7a4085b42930325b4501ab20251106144521" width="100" height="100" viewBox="0 0 100 100" xmlns="http://www.w3.org/2000/svg" xmlns:svg="http://www.w3.org/2000/svg"> <defs id="I81f1e52da9a04da18e8329b0e45940ce20251106144521" /> <g id="I15f8fa5fd15f47f3b5d268fba0fc134120251106144521"> <path id="Ib424b534be9246779bfe02fd837aaaef20251106144521" d="m 37.5,6.25 c 17.258,0 31.25,13.992 31.25,31.25 0,3.258 -0.5,6.398 -1.422,9.348 l -2.512,-5.024 c -0.261,-0.527 -0.566,-1 -0.91,-1.429 0.102,-0.954 0.156,-1.918 0.156,-2.895 0,-14.672 -11.89,-26.562 -26.562,-26.562 -14.672,0 -26.562,11.89 -26.562,26.562 0,14.672 11.89,26.562 26.562,26.562 0.766,0 1.52,-0.031 2.27,-0.093 l -1.422,2.847 c -0.321,0.633 -0.539,1.286 -0.676,1.934 H 37.5 C 20.242,68.75 6.25,54.758 6.25,37.5 6.25,20.242 20.242,6.25 37.5,6.25 Z M 33.594,41.996 47.562,28.031 c 0.915,-0.918 2.399,-0.918 3.313,0 0.832,0.832 0.91,2.133 0.227,3.051 L 50.875,31.344 35.25,46.969 c -0.832,0.832 -2.133,0.91 -3.051,0.226 l -0.261,-0.226 -7.813,-7.813 c -0.918,-0.914 -0.918,-2.398 0,-3.312 0.832,-0.832 2.133,-0.91 3.051,-0.227 l 0.262,0.227 z m 20.035,1.223 c 1.726,-3.457 6.664,-3.457 8.391,0 L 74.512,68.215 C 76.07,71.332 73.801,75 70.316,75 h -24.98 c -3.488,0 -5.758,-3.668 -4.199,-6.785 z m 5.758,8.328 c 0,-0.863 -0.699,-1.563 -1.563,-1.563 -0.863,0 -1.562,0.7 -1.562,1.563 v 9.383 c 0,0.863 0.699,1.562 1.562,1.562 0.864,0 1.563,-0.699 1.563,-1.562 z m -1.563,17.199 c 0.864,0 1.563,-0.699 1.563,-1.562 0,-0.864 -0.699,-1.563 -1.563,-1.563 -0.863,0 -1.562,0.699 -1.562,1.563 0,0.863 0.699,1.562 1.562,1.562 z" style="fill:currentColor;fill-opacity:1;fill-rule:nonzero;stroke:none" transform="scale(1.3333333)" /> </g>
</svg>

