<?xml version="1.0" encoding="UTF-8" standalone="no"?> <svg version="1.1" id="I68ae95f6b81d41ac80c5141dfb872aa520251106161453" width="100" height="100" viewBox="0 0 100 100" xmlns="http://www.w3.org/2000/svg" xmlns:svg="http://www.w3.org/2000/svg"> <defs id="Ic647e5753ae9442082381eb01033f52020251106161453"> <linearGradient x1="-0.40000001" y1="1.57143" x2="5.3555298" y2="17.0949" gradientUnits="userSpaceOnUse" gradientTransform="scale(3.125)" spreadMethod="pad" id="I0b6fb5e4eb90429bb90fc25a52f3666e20251106161453"> <stop style="stop-opacity:1;stop-color:#36dff1" offset="0" id="I42d296c667f94ff68c045941b66aadbd20251106161453" /> <stop style="stop-opacity:1;stop-color:#0094f0" offset="1" id="I6819a3921d1046d1bbfd81a07edffb3a20251106161453" /> </linearGradient> <radialGradient fx="0" fy="0" cx="0" cy="0" r="1" gradientUnits="userSpaceOnUse" gradientTransform="matrix(-35.714521,37.108989,-16.359761,-15.745,34.821563,44.53125)" spreadMethod="pad" id="I193fdaf180e9431a9d92d616e8cc544b20251106161453"> <stop style="stop-opacity:0.70000763;stop-color:#4a43cb" offset="0" id="I8afdd39a259e4603a808d8bd60b2cc3120251106161453" /> <stop style="stop-opacity:0;stop-color:#4a43cb" offset="1" id="I7cd7a5aaab074b2cadf638fddee1514a20251106161453" /> </radialGradient> <linearGradient x1="-0.40000001" y1="1.57143" x2="5.3555298" y2="17.0949" gradientUnits="userSpaceOnUse" gradientTransform="scale(3.125)" spreadMethod="pad" id="Ia12f37d4596d43f6bad10d1a9124583b20251106161453"> <stop style="stop-opacity:1;stop-color:#36dff1" offset="0" id="I32adfd7f7bb04d09a63bbd657b10853b20251106161453" /> <stop style="stop-opacity:1;stop-color:#0094f0" offset="1" id="I057b3f8c200141bf81e845cda318834f20251106161453" /> </linearGradient> <radialGradient fx="0" fy="0" cx="0" cy="0" r="1" gradientUnits="userSpaceOnUse" gradientTransform="matrix(-35.714521,37.108989,-16.359761,-15.745,34.821563,44.53125)" spreadMethod="pad" id="I622c87fa8cc543fea05f502e8298847b20251106161453"> <stop style="stop-opacity:0.70000763;stop-color:#4a43cb" offset="0" id="I43272a5c4750488d837b5fea480fb7bc20251106161453" /> <stop style="stop-opacity:0;stop-color:#4a43cb" offset="1" id="I007335d6d2f94ef18d5932556a93a28d20251106161453" /> </radialGradient> <linearGradient x1="-0.40000001" y1="1.57143" x2="5.3555298" y2="17.0949" gradientUnits="userSpaceOnUse" gradientTransform="scale(3.125)" spreadMethod="pad" id="Idcf21fed780f4e6eb3fd59ced831c1e220251106161453"> <stop style="stop-opacity:1;stop-color:#36dff1" offset="0" id="Ia6d9fa9b74354e50b533631d6005ac2d20251106161453" /> <stop style="stop-opacity:1;stop-color:#0094f0" offset="1" id="I194bcc945f81462288ba52c65b805ff020251106161453" /> </linearGradient> <radialGradient fx="0" fy="0" cx="0" cy="0" r="1" gradientUnits="userSpaceOnUse" gradientTransform="matrix(-35.714521,37.108989,-16.359761,-15.745,34.821563,44.53125)" spreadMethod="pad" id="I0ad8c49594e244e1a04ac6f308e08d7020251106161453"> <stop style="stop-opacity:0.70000763;stop-color:#4a43cb" offset="0" id="I4e3bcf87191d426fb19bd40e3ce70bc520251106161453" /> <stop style="stop-opacity:0;stop-color:#4a43cb" offset="1" id="Ib3721d36e4ee4318ac33cb16811779a620251106161453" /> </radialGradient> <linearGradient x1="13.1371" y1="8.4678898" x2="15.4437" y2="14.7088" gradientUnits="userSpaceOnUse" gradientTransform="scale(3.125)" spreadMethod="pad" id="I2a483ef2bc2e4741a9bd5a08c418410f20251106161453"> <stop style="stop-opacity:1;stop-color:#ffa43d" offset="0" id="I4fc2b976452746eb8ffc7dd02353afc020251106161453" /> <stop style="stop-opacity:1;stop-color:#fb5937" offset="1" id="Id40c428ec6ff4efc8c6b358b73df490020251106161453" /> </linearGradient> <linearGradient x1="0.99665397" y1="16.9505" x2="6.0436602" y2="21.9671" gradientUnits="userSpaceOnUse" gradientTransform="scale(3.125)" spreadMethod="pad" id="I52de3240cda1465f8024e85447490d0c20251106161453"> <stop style="stop-opacity:1;stop-color:#ffd394" offset="0" id="I5dfee2ffc8ce4a79a8b8195101ec3d5020251106161453" /> <stop style="stop-opacity:1;stop-color:#ffd394" offset="0.255" id="Iad25a326fbf142fc999c141585a080dd20251106161453" /> <stop style="stop-opacity:1;stop-color:#ff921f" offset="1" id="I3754d164e6d249f589b96161d34bbf0620251106161453" /> </linearGradient> <linearGradient x1="20.239799" y1="3.7506001" x2="17.137501" y2="6.66781" gradientUnits="userSpaceOnUse" gradientTransform="scale(3.125)" spreadMethod="pad" id="Ieb6f824229074044855355bdb4adda0720251106161453"> <stop style="stop-opacity:1;stop-color:#f97dbd" offset="0" id="I1c345ba412994c3db6f45d0fc5072ae620251106161453" /> <stop style="stop-opacity:1;stop-color:#dd3ce2" offset="1" id="I293f2d2b4733428b993cefd0bb6a95e520251106161453" /> </linearGradient> <linearGradient x1="16.4946" y1="8.9545898" x2="11.4203" y2="6.73594" gradientUnits="userSpaceOnUse" gradientTransform="scale(3.125)" spreadMethod="pad" id="Ie3b3b33063cf4193be05a0af7e80d01820251106161453"> <stop style="stop-opacity:1;stop-color:#ff921f" offset="0" id="If95764bf3e3d480c9767726af00778de20251106161453" /> <stop style="stop-opacity:1;stop-color:#ffe994" offset="1" id="I1586444d2b704531b2910df81208a73520251106161453" /> </linearGradient> </defs> <g id="I8d611a5fa100468598add14ae742629620251106161453"> <path id="If2a5d04698ee4f48bd411d56da156f0720251106161453" d="m 6.25,12.5 c 0,-1.727 1.398,-3.125 3.125,-3.125 h 43.75 c 1.727,0 3.125,1.398 3.125,3.125 0,1.727 -1.398,3.125 -3.125,3.125 H 9.375 C 7.648,15.625 6.25,14.227 6.25,12.5 Z" transform="scale(1.3333333)" style="fill:url(#I0b6fb5e4eb90429bb90fc25a52f3666e20251106161453);stroke:none" /> <path d="m 6.25,12.5 c 0,-1.727 1.398,-3.125 3.125,-3.125 h 43.75 c 1.727,0 3.125,1.398 3.125,3.125 0,1.727 -1.398,3.125 -3.125,3.125 H 9.375 C 7.648,15.625 6.25,14.227 6.25,12.5 Z" transform="scale(1.3333333)" style="fill:url(#I193fdaf180e9431a9d92d616e8cc544b20251106161453);stroke:none" opacity="1" id="I9c0dcf6f9da34b9090298bc316e328da20251106161453" /> <path id="I476eef5b0f8143bca1c81c7d648e4b3020251106161453" d="m 6.25,25 c 0,-1.727 1.398,-3.125 3.125,-3.125 H 43.75 c 1.727,0 3.125,1.398 3.125,3.125 0,1.727 -1.398,3.125 -3.125,3.125 H 9.375 C 7.648,28.125 6.25,26.727 6.25,25 Z" transform="scale(1.3333333)" style="fill:url(#Ia12f37d4596d43f6bad10d1a9124583b20251106161453);stroke:none" /> <path d="m 6.25,25 c 0,-1.727 1.398,-3.125 3.125,-3.125 H 43.75 c 1.727,0 3.125,1.398 3.125,3.125 0,1.727 -1.398,3.125 -3.125,3.125 H 9.375 C 7.648,28.125 6.25,26.727 6.25,25 Z" transform="scale(1.3333333)" style="fill:url(#I622c87fa8cc543fea05f502e8298847b20251106161453);stroke:none" opacity="1" id="Ibc1fa260d281460e9ddc94edd934121020251106161453" /> <path id="I383fc2debff94b099b8bca385c11ba1420251106161453" d="m 6.25,37.5 c 0,-1.727 1.398,-3.125 3.125,-3.125 h 25 c 1.727,0 3.125,1.398 3.125,3.125 0,1.727 -1.398,3.125 -3.125,3.125 h -25 C 7.648,40.625 6.25,39.227 6.25,37.5 Z" transform="scale(1.3333333)" style="fill:url(#Idcf21fed780f4e6eb3fd59ced831c1e220251106161453);stroke:none" /> <path d="m 6.25,37.5 c 0,-1.727 1.398,-3.125 3.125,-3.125 h 25 c 1.727,0 3.125,1.398 3.125,3.125 0,1.727 -1.398,3.125 -3.125,3.125 h -25 C 7.648,40.625 6.25,39.227 6.25,37.5 Z" transform="scale(1.3333333)" style="fill:url(#I0ad8c49594e244e1a04ac6f308e08d7020251106161453);stroke:none" opacity="1" id="Ie9694365fe264704aca744897ee6a05a20251106161453" /> <path id="I187612c717614210b1c59b4e96781e7920251106161453" d="M 11.211,47.98 45.77,13.418 61.582,29.23 27.027,63.793 14.699,60.305 Z" transform="scale(1.3333333)" style="fill:url(#I2a483ef2bc2e4741a9bd5a08c418410f20251106161453);stroke:none" /> <path id="I5d8408d4c65846fda609fa15cef4514a20251106161453" d="m 12.316,46.875 c -1.269,1.27 -2.164,2.867 -2.578,4.613 L 6.312,65.867 c -0.187,0.793 0.047,1.625 0.626,2.199 0.574,0.579 1.406,0.813 2.199,0.625 l 14.379,-3.425 c 1.746,-0.414 3.343,-1.309 4.617,-2.578 0,0 -5.703,-1.282 -10.121,-5.696 C 13.594,52.57 12.316,46.875 12.316,46.875 Z" transform="scale(1.3333333)" style="fill:url(#I0b6fb5e4eb90429bb90fc25a52f3666e202511061614533);stroke:none" /> <path id="I7adabd836a9e49d8a15866ad6f31dca320251106161453" d="M 65.473,9.523 C 61.105,5.156 54.027,5.16 49.66,9.527 L 42.453,16.73 58.27,32.547 65.477,25.34 C 69.84,20.973 69.84,13.891 65.473,9.523 Z" transform="scale(1.3333333)" style="fill:url(#I0b6fb5e4eb90429bb90fc25a52f3666e202511061614535);stroke:none" /> <path id="Ie7fb202404f24a39b88432a01ab1099e20251106161453" d="m 39.938,19.254 6.628,-6.633 c 0,0 1.278,5.699 5.696,10.117 4.418,4.418 10.117,5.7 10.117,5.7 l -6.625,6.628 c 0,0 -5.703,-1.281 -10.121,-5.695 -4.418,-4.422 -5.695,-10.117 -5.695,-10.117 z" transform="scale(1.3333333)" style="fill:url(#I0b6fb5e4eb90429bb90fc25a52f3666e202511061614537);stroke:none" /> </g>
</svg>

