<?xml version="1.0" encoding="UTF-8" standalone="no"?> <svg version="1.1" id="Iff97f0c7788c41679fb0020236fe553820251106143238" width="100" height="100" viewBox="0 0 100 100" xmlns="http://www.w3.org/2000/svg" xmlns:svg="http://www.w3.org/2000/svg"> <defs id="Icb573054a6254be59a7ca7f02028f25420251106143238" /> <g id="I7f85a0d2a8924caba4d5d5671257232720251106143238"> <path id="I983f94b7e0db44da8a037bc5ffb7746220251106143238" d="M 12.5,16.406 C 12.5,10.797 17.047,6.25 22.656,6.25 h 29.688 c 5.609,0 10.156,4.547 10.156,10.156 v 42.188 c 0,5.609 -4.547,10.156 -10.156,10.156 H 22.656 C 17.047,68.75 12.5,64.203 12.5,58.594 Z m 15.625,-0.781 c -3.453,0 -6.25,2.797 -6.25,6.25 V 25 c 0,3.453 2.797,6.25 6.25,6.25 h 18.75 c 3.453,0 6.25,-2.797 6.25,-6.25 v -3.125 c 0,-3.453 -2.797,-6.25 -6.25,-6.25 z m 1.563,25.781 c 0,-2.156 -1.75,-3.906 -3.907,-3.906 -2.156,0 -3.906,1.75 -3.906,3.906 0,2.156 1.75,3.906 3.906,3.906 2.157,0 3.907,-1.75 3.907,-3.906 z m -3.907,16.406 c 2.157,0 3.907,-1.75 3.907,-3.906 0,-2.156 -1.75,-3.906 -3.907,-3.906 -2.156,0 -3.906,1.75 -3.906,3.906 0,2.156 1.75,3.906 3.906,3.906 z M 53.125,41.406 c 0,-2.156 -1.75,-3.906 -3.906,-3.906 -2.157,0 -3.907,1.75 -3.907,3.906 0,2.156 1.75,3.906 3.907,3.906 2.156,0 3.906,-1.75 3.906,-3.906 z m -3.906,16.406 c 2.156,0 3.906,-1.75 3.906,-3.906 0,-2.156 -1.75,-3.906 -3.906,-3.906 -2.157,0 -3.907,1.75 -3.907,3.906 0,2.156 1.75,3.906 3.907,3.906 z M 41.406,41.406 c 0,-2.156 -1.75,-3.906 -3.906,-3.906 -2.156,0 -3.906,1.75 -3.906,3.906 0,2.156 1.75,3.906 3.906,3.906 2.156,0 3.906,-1.75 3.906,-3.906 z M 37.5,57.812 c 2.156,0 3.906,-1.75 3.906,-3.906 C 41.406,51.75 39.656,50 37.5,50 c -2.156,0 -3.906,1.75 -3.906,3.906 0,2.156 1.75,3.906 3.906,3.906 z" style="fill:currentColor;fill-opacity:1;fill-rule:nonzero;stroke:none" transform="scale(1.3333333)" /> </g>
</svg>

