<?xml version="1.0" encoding="UTF-8" standalone="no"?> <svg version="1.1" id="If65d1251e5fc44c2b87c9e33b03d030220251106165301" width="100" height="100" viewBox="0 0 100 100" xmlns="http://www.w3.org/2000/svg" xmlns:svg="http://www.w3.org/2000/svg"> <defs id="Ia128565b69cc41b1821ebfac2f67cffd20251106165301" /> <g id="I9d4750283347482d8ec898c0e9fa6e5d20251106165301"> <path id="Ibe358c380c72461da143cc30b5c1019820251106165301" d="m 37.5,34.82 c 1.109,0 2.008,0.903 2.008,2.012 v 33.48 c 0,1.11 -0.899,2.008 -2.008,2.008 -1.109,0 -2.008,-0.898 -2.008,-2.008 v -33.48 c 0,-1.109 0.899,-2.012 2.008,-2.012 z m 0,-29.465 c 17.754,0 32.145,14.391 32.145,32.145 v 21.43 c 0,5.738 -4.512,10.422 -10.184,10.699 l -0.531,0.016 h -1.34 c -1.375,0 -2.508,-1.036 -2.66,-2.368 l -0.02,-0.312 v -21.43 c 0,-1.371 1.035,-2.504 2.367,-2.66 l 0.313,-0.02 h 8.035 V 37.5 C 65.625,21.969 53.031,9.375 37.5,9.375 21.969,9.375 9.375,21.969 9.375,37.5 v 5.355 h 8.035 c 1.481,0 2.68,1.2 2.68,2.68 v 21.43 c 0,1.48 -1.199,2.68 -2.68,2.68 H 16.07 C 10.152,69.645 5.355,64.848 5.355,58.93 V 37.5 C 5.355,19.746 19.746,5.355 37.5,5.355 Z m -10.043,37.5 c 1.109,0 2.008,0.903 2.008,2.012 v 17.41 c 0,1.11 -0.899,2.008 -2.008,2.008 -1.109,0 -2.012,-0.898 -2.012,-2.008 v -17.41 c 0,-1.109 0.903,-2.012 2.012,-2.012 z m 20.086,0 c 1.109,0 2.012,0.903 2.012,2.012 v 17.41 c 0,1.11 -0.903,2.008 -2.012,2.008 -1.109,0 -2.008,-0.898 -2.008,-2.008 v -17.41 c 0,-1.109 0.899,-2.012 2.008,-2.012 z" style="fill:currentColor;fill-opacity:1;fill-rule:nonzero;stroke:none" transform="scale(1.3333333)" /> </g>
</svg>

