<?xml version="1.0" encoding="UTF-8" standalone="no"?> <svg version="1.1" id="Ifc4152cfcded4b33b4a07af44894b8fb20251110130507" width="100" height="100" viewBox="0 0 100 100" xmlns="http://www.w3.org/2000/svg" xmlns:svg="http://www.w3.org/2000/svg"> <defs id="Id2cde03a2fc1422ebad6a9dc455a9ef420251110130507" /> <g id="Ifb10b5682a414c7b83d23f40797829b220251110130507"> <path id="I4843062331dc4c3fb6d58f1a9b4660bb20251110130507" d="m 30.805,10.043 c 0,-1.109 0.898,-2.008 2.007,-2.008 h 9.376 c 1.109,0 2.007,0.899 2.007,2.008 0,1.109 -0.898,2.012 -2.007,2.012 h -9.376 c -1.109,0 -2.007,-0.903 -2.007,-2.012 z m 0,54.914 c 0,-1.109 0.898,-2.012 2.007,-2.012 h 9.376 c 1.109,0 2.007,0.903 2.007,2.012 0,1.109 -0.898,2.008 -2.007,2.008 h -9.376 c -1.109,0 -2.007,-0.899 -2.007,-2.008 z M 8.035,42.188 c 0,1.109 0.899,2.007 2.008,2.007 1.109,0 2.012,-0.898 2.012,-2.007 v -9.376 c 0,-1.109 -0.903,-2.007 -2.012,-2.007 -1.109,0 -2.008,0.898 -2.008,2.007 z m 56.922,2.007 c -1.109,0 -2.012,-0.898 -2.012,-2.007 v -9.376 c 0,-1.109 0.903,-2.007 2.012,-2.007 1.109,0 2.008,0.898 2.008,2.007 v 9.376 c 0,1.109 -0.899,2.007 -2.008,2.007 z M 55.582,8.035 c -1.109,0 -2.012,0.899 -2.012,2.008 0,1.109 0.903,2.012 2.012,2.012 h 1.336 c 3.328,0 6.027,2.695 6.027,6.027 v 1.336 c 0,1.109 0.903,2.012 2.012,2.012 1.109,0 2.008,-0.903 2.008,-2.012 V 18.082 C 66.965,12.531 62.469,8.035 56.918,8.035 Z M 53.57,64.957 c 0,1.109 0.903,2.008 2.012,2.008 h 1.336 c 5.551,0 10.047,-4.496 10.047,-10.047 v -1.336 c 0,-1.109 -0.899,-2.012 -2.008,-2.012 -1.109,0 -2.012,0.903 -2.012,2.012 v 1.336 c 0,3.328 -2.699,6.027 -6.027,6.027 h -1.336 c -1.109,0 -2.012,0.903 -2.012,2.012 z M 19.418,8.035 c 1.109,0 2.012,0.899 2.012,2.008 0,1.109 -0.903,2.012 -2.012,2.012 h -1.336 c -3.332,0 -6.027,2.695 -6.027,6.027 v 1.336 c 0,1.109 -0.903,2.012 -2.012,2.012 -1.109,0 -2.008,-0.903 -2.008,-2.012 v -1.336 c 0,-5.551 4.496,-10.047 10.047,-10.047 z m 2.012,56.922 c 0,1.109 -0.903,2.008 -2.012,2.008 h -1.336 c -5.551,0 -10.047,-4.496 -10.047,-10.047 v -1.336 c 0,-1.109 0.899,-2.012 2.008,-2.012 1.109,0 2.012,0.903 2.012,2.012 v 1.336 c 0,3.328 2.695,6.027 6.027,6.027 h 1.336 c 1.109,0 2.012,0.903 2.012,2.012 z m 5.441,-41.184 c 0.836,-1.449 2.383,-2.343 4.059,-2.343 h 13.144 c 1.676,0 3.223,0.894 4.059,2.343 l 6.574,11.387 c 0.836,1.449 0.836,3.238 0,4.688 l -6.574,11.386 c -0.836,1.454 -2.383,2.348 -4.059,2.348 H 30.93 c -1.676,0 -3.223,-0.894 -4.059,-2.348 L 20.297,39.848 c -0.836,-1.45 -0.836,-3.239 0,-4.688 z" style="fill:currentColor;fill-opacity:1;fill-rule:nonzero;stroke:none" transform="scale(1.3333333)" /> </g>
</svg>

