<?xml version="1.0" encoding="UTF-8" standalone="no"?> <svg version="1.1" id="I015520f6bb1f41c8a6f2e466a74a644220251110133655" width="100" height="100" viewBox="0 0 100 100" xmlns="http://www.w3.org/2000/svg" xmlns:svg="http://www.w3.org/2000/svg"> <defs id="I97301a8b25cd40ebba4dd2e5a354a02420251110133655" /> <g id="I4aa4c8c05cf14aa9895b13dca22f12e820251110133655"> <path id="I32ada992abe54a89a713d870c4c5f2e120251110133655" d="m 37.504,10.938 c 9.902,0 15.519,6.554 16.336,14.468 h 0.25 c 6.371,0 11.539,5.153 11.539,11.508 0,6.356 -5.168,11.508 -11.539,11.508 h -4.227 c 0.09,0.25 0.141,0.516 0.141,0.797 0,1.293 -1.051,2.343 -2.344,2.343 -1.297,0 -2.344,-1.05 -2.344,-2.343 0,-0.281 0.047,-0.547 0.137,-0.797 H 28.992 l -6.726,11.203 c -0.778,1.297 -2.457,1.715 -3.754,0.937 -1.223,-0.734 -1.664,-2.273 -1.055,-3.531 l 0.121,-0.219 5.035,-8.39 h -1.695 c -6.371,0 -11.535,-5.152 -11.535,-11.508 0,-6.355 5.164,-11.508 11.535,-11.508 h 0.25 c 0.824,-7.965 6.434,-14.468 16.336,-14.468 z m -0.649,42.609 c 1.211,0.75 1.637,2.293 1.012,3.547 l -0.121,0.218 -1.434,2.325 c -0.792,1.285 -2.48,1.687 -3.765,0.894 -1.211,-0.75 -1.637,-2.293 -1.012,-3.547 l 0.121,-0.214 1.434,-2.329 c 0.793,-1.285 2.48,-1.687 3.765,-0.894 z m 7.68,1.141 c 1.293,0 2.344,1.05 2.344,2.343 0,1.293 -1.051,2.344 -2.344,2.344 -1.297,0 -2.344,-1.051 -2.344,-2.344 0,-1.293 1.047,-2.343 2.344,-2.343 z m 7.813,-1.563 c 1.293,0 2.343,1.051 2.343,2.344 0,1.293 -1.05,2.343 -2.343,2.343 -1.297,0 -2.344,-1.05 -2.344,-2.343 0,-1.293 1.047,-2.344 2.344,-2.344 z" style="fill:currentColor;fill-opacity:1;fill-rule:nonzero;stroke:none" transform="scale(1.3333333)" /> </g>
</svg>

