<?xml version="1.0" encoding="UTF-8" standalone="no"?> <svg version="1.1" id="Ie13b5d828e1940fdad7c008aa70fa30d20251106170412" width="100" height="100" viewBox="0 0 100 100" xmlns="http://www.w3.org/2000/svg" xmlns:svg="http://www.w3.org/2000/svg"> <defs id="I4c7b139adc254f7392c48aefe142ad7920251106170412" /> <g id="Icf66b141f1c84d4ab4c0becd2567a63620251106170412"> <path id="I5a69feb8080346e689126a67ee67d5f720251106170412" d="m 18.75,11.25 c -4.141,0 -7.5,3.359 -7.5,7.5 v 3.75 c 0,4.141 3.359,7.5 7.5,7.5 h 1.004 c -0.641,1.102 -1.004,2.383 -1.004,3.75 v 7.5 c 0,4.141 3.359,7.5 7.5,7.5 h 1.004 c -0.641,1.102 -1.004,2.383 -1.004,3.75 v 3.75 c 0,4.141 3.359,7.5 7.5,7.5 h 22.5 c 4.141,0 7.5,-3.359 7.5,-7.5 V 52.5 c 0,-2.238 -0.98,-4.25 -2.539,-5.625 C 62.77,45.5 63.75,43.488 63.75,41.25 v -7.5 c 0,-2.238 -0.98,-4.25 -2.539,-5.625 C 62.77,26.75 63.75,24.738 63.75,22.5 v -3.75 c 0,-4.141 -3.359,-7.5 -7.5,-7.5 z M 56.25,45 H 37.5 V 30 h 18.75 c 2.07,0 3.75,1.68 3.75,3.75 v 7.5 C 60,43.32 58.32,45 56.25,45 Z M 33.75,30 v 15 h -7.5 C 24.18,45 22.5,43.32 22.5,41.25 v -7.5 C 22.5,31.68 24.18,30 26.25,30 Z M 30,52.5 c 0,-2.07 1.68,-3.75 3.75,-3.75 h 7.5 V 60 h -7.5 C 31.68,60 30,58.32 30,56.25 Z M 45,60 V 48.75 h 11.25 c 2.07,0 3.75,1.68 3.75,3.75 v 3.75 C 60,58.32 58.32,60 56.25,60 Z M 30,26.25 V 15 h 26.25 c 2.07,0 3.75,1.68 3.75,3.75 v 3.75 c 0,2.07 -1.68,3.75 -3.75,3.75 z m -3.75,0 h -7.5 C 16.68,26.25 15,24.57 15,22.5 V 18.75 C 15,16.68 16.68,15 18.75,15 h 7.5 z" style="fill:currentColor;fill-opacity:1;fill-rule:nonzero;stroke:none" transform="scale(1.3333333)" /> </g>
</svg>

