<?xml version="1.0" encoding="UTF-8" standalone="no"?> <svg version="1.1" id="I69d85459ad3a449c8012e1c97ebf97ad20251106164749" width="100" height="100" viewBox="0 0 100 100" xmlns="http://www.w3.org/2000/svg" xmlns:svg="http://www.w3.org/2000/svg"> <defs id="Ie54ad54fe0c84791a7c46db6295a781620251106164749"> <linearGradient x1="12" y1="2" x2="22.7276" y2="28.490499" gradientUnits="userSpaceOnUse" gradientTransform="scale(2.34375)" spreadMethod="pad" id="I54e85aac0d9e4955bd24a0f4b893336c20251106164749"> <stop style="stop-opacity:1;stop-color:#f4f4f4" offset="0" id="I743494689a3f4c10a52ae245b2dbc86620251106164749" /> <stop style="stop-opacity:1;stop-color:#cbcbcb" offset="1" id="I5e5af717936a434e8ed9b1a49b75b23420251106164749" /> </linearGradient> <radialGradient fx="0" fy="0" cx="0" cy="0" r="1" gradientUnits="userSpaceOnUse" gradientTransform="matrix(50.627109,0,0,70.636406,13.120383,51.550547)" spreadMethod="pad" id="Ief42cf1c65ce4656bd4867baedb4aeca20251106164749"> <stop style="stop-opacity:1;stop-color:#42b870" offset="0" id="Icc7130e5facf45879253a2bf8ddf541320251106164749" /> <stop style="stop-opacity:1;stop-color:#ff921f" offset="0.493126" id="If954f2df3ea24dbfa070cefa966a64b720251106164749" /> <stop style="stop-opacity:1;stop-color:#e82c41" offset="1" id="I1e0564bafc5d40228b124ec46735748820251106164749" /> </radialGradient> <linearGradient x1="11.5" y1="18.5" x2="8.2117996" y2="21.4862" gradientUnits="userSpaceOnUse" gradientTransform="scale(2.34375)" spreadMethod="pad" id="I8150cdc5c3f040739549857c53e82df220251106164749"> <stop style="stop-opacity:0;stop-color:#42b870" offset="0" id="I2816338db96347b4b50b923b80c4ae9c20251106164749" /> <stop style="stop-opacity:1;stop-color:#42b870" offset="0.716189" id="Ib90025eba32d4adcb7ed0cea2607748720251106164749" /> <stop style="stop-opacity:1;stop-color:#42b870" offset="1" id="I3fffb52ea5ff4535818440db56abf72620251106164749" /> </linearGradient> <linearGradient x1="20.7987" y1="18.275101" x2="23.7666" y2="21.466801" gradientUnits="userSpaceOnUse" gradientTransform="scale(2.34375)" spreadMethod="pad" id="I99ef096353794962b33d99b3a951b6c420251106164749"> <stop style="stop-opacity:0;stop-color:#e82c41" offset="0" id="I3540c8e0d37643a69e6fdb00bdce5c5320251106164749" /> <stop style="stop-opacity:1;stop-color:#e82c41" offset="0.5625" id="I1f7f147d853c4fc29543e0d35e16cc7220251106164749" /> <stop style="stop-opacity:1;stop-color:#e82c41" offset="1" id="Idce3dc0620d340658f4d37b92bfb3c0e20251106164749" /> </linearGradient> <linearGradient x1="13.0098" y1="7.8754902" x2="19.5411" y2="16.709999" gradientUnits="userSpaceOnUse" gradientTransform="scale(2.34375)" spreadMethod="pad" id="I1313f800877f4c7bac840cca27d805d920251106164749"> <stop style="stop-opacity:1;stop-color:#0fafff" offset="0" id="I832e56e063d44d92823c7f5d052a876820251106164749" /> <stop style="stop-opacity:1;stop-color:#2764e7" offset="1" id="Idc03c125ca644651bdcf92254261bc8020251106164749" /> </linearGradient> </defs> <g id="Ifdf05ba7b4d64202bee87b9a3cbac92220251106164749"> <path id="Ib7af8893ddf74756a6428e41d2ce66ce20251106164749" d="M 37.5,4.688 C 19.379,4.688 4.688,19.379 4.688,37.5 4.688,55.621 19.379,70.312 37.5,70.312 55.621,70.312 70.312,55.621 70.312,37.5 70.312,19.379 55.621,4.688 37.5,4.688 Z" transform="scale(1.3333333)" style="fill:url(#I54e85aac0d9e4955bd24a0f4b893336c20251106164749);stroke:none" /> <path id="I7151c8610614464b9cff007c8aa9054b20251106164749" d="m 53.816,51.254 c 0.364,0.219 0.782,0.336 1.207,0.336 0.383,0 0.762,-0.098 1.102,-0.278 0.34,-0.179 0.629,-0.441 0.84,-0.761 2.465,-3.676 3.836,-7.973 3.961,-12.395 0.125,-4.422 -1.004,-8.793 -3.258,-12.597 -0.316,-0.536 -0.832,-0.922 -1.434,-1.079 -0.605,-0.152 -1.242,-0.058 -1.777,0.258 -0.535,0.317 -0.922,0.832 -1.074,1.438 -0.153,0.601 -0.063,1.238 0.254,1.773 1.801,3.047 2.703,6.539 2.605,10.074 -0.097,3.539 -1.195,6.973 -3.164,9.915 -0.238,0.351 -0.375,0.761 -0.394,1.187 -0.024,0.426 0.07,0.848 0.269,1.223 0.203,0.375 0.5,0.687 0.863,0.906 z m -33.804,0.383 c -0.387,0 -0.762,-0.094 -1.102,-0.274 -0.34,-0.179 -0.629,-0.437 -0.844,-0.758 -2.378,-3.523 -3.754,-7.632 -3.976,-11.878 -0.223,-4.25 0.715,-8.477 2.711,-12.231 2,-3.758 4.98,-6.898 8.625,-9.086 3.648,-2.191 7.82,-3.348 12.074,-3.348 1.531,0 3.062,0.149 4.566,0.446 0.305,0.058 0.59,0.176 0.848,0.347 0.258,0.172 0.477,0.391 0.648,0.645 0.172,0.258 0.293,0.543 0.352,0.848 0.063,0.3 0.063,0.613 0,0.914 -0.059,0.304 -0.176,0.59 -0.348,0.847 -0.171,0.254 -0.39,0.477 -0.648,0.649 -0.254,0.168 -0.543,0.289 -0.844,0.347 -0.304,0.063 -0.613,0.063 -0.918,0 -2.718,-0.535 -5.523,-0.464 -8.211,0.211 -2.687,0.676 -5.191,1.938 -7.336,3.696 -2.14,1.758 -3.867,3.968 -5.054,6.472 -1.188,2.508 -1.801,5.243 -1.805,8.016 -0.008,3.738 1.109,7.391 3.199,10.484 0.239,0.352 0.375,0.762 0.399,1.188 0.023,0.422 -0.071,0.848 -0.27,1.223 -0.199,0.375 -0.496,0.687 -0.863,0.906 -0.363,0.219 -0.781,0.336 -1.203,0.336 z" transform="scale(1.3333333)" style="fill:url(#Ief42cf1c65ce4656bd4867baedb4aeca20251106164749);stroke:none" /> <path d="m 53.816,51.254 c 0.364,0.219 0.782,0.336 1.207,0.336 0.383,0 0.762,-0.098 1.102,-0.278 0.34,-0.179 0.629,-0.441 0.84,-0.761 2.465,-3.676 3.836,-7.973 3.961,-12.395 0.125,-4.422 -1.004,-8.793 -3.258,-12.597 -0.316,-0.536 -0.832,-0.922 -1.434,-1.079 -0.605,-0.152 -1.242,-0.058 -1.777,0.258 -0.535,0.317 -0.922,0.832 -1.074,1.438 -0.153,0.601 -0.063,1.238 0.254,1.773 1.801,3.047 2.703,6.539 2.605,10.074 -0.097,3.539 -1.195,6.973 -3.164,9.915 -0.238,0.351 -0.375,0.761 -0.394,1.187 -0.024,0.426 0.07,0.848 0.269,1.223 0.203,0.375 0.5,0.687 0.863,0.906 z m -33.804,0.383 c -0.387,0 -0.762,-0.094 -1.102,-0.274 -0.34,-0.179 -0.629,-0.437 -0.844,-0.758 -2.378,-3.523 -3.754,-7.632 -3.976,-11.878 -0.223,-4.25 0.715,-8.477 2.711,-12.231 2,-3.758 4.98,-6.898 8.625,-9.086 3.648,-2.191 7.82,-3.348 12.074,-3.348 1.531,0 3.062,0.149 4.566,0.446 0.305,0.058 0.59,0.176 0.848,0.347 0.258,0.172 0.477,0.391 0.648,0.645 0.172,0.258 0.293,0.543 0.352,0.848 0.063,0.3 0.063,0.613 0,0.914 -0.059,0.304 -0.176,0.59 -0.348,0.847 -0.171,0.254 -0.39,0.477 -0.648,0.649 -0.254,0.168 -0.543,0.289 -0.844,0.347 -0.304,0.063 -0.613,0.063 -0.918,0 -2.718,-0.535 -5.523,-0.464 -8.211,0.211 -2.687,0.676 -5.191,1.938 -7.336,3.696 -2.14,1.758 -3.867,3.968 -5.054,6.472 -1.188,2.508 -1.801,5.243 -1.805,8.016 -0.008,3.738 1.109,7.391 3.199,10.484 0.239,0.352 0.375,0.762 0.399,1.188 0.023,0.422 -0.071,0.848 -0.27,1.223 -0.199,0.375 -0.496,0.687 -0.863,0.906 -0.363,0.219 -0.781,0.336 -1.203,0.336 z" transform="scale(1.3333333)" style="fill:url(#I8150cdc5c3f040739549857c53e82df220251106164749);stroke:none" opacity="1" id="I857f75af2f8e4be58581b97a28218c9f20251106164749" /> <path d="m 53.816,51.254 c 0.364,0.219 0.782,0.336 1.207,0.336 0.383,0 0.762,-0.098 1.102,-0.278 0.34,-0.179 0.629,-0.441 0.84,-0.761 2.465,-3.676 3.836,-7.973 3.961,-12.395 0.125,-4.422 -1.004,-8.793 -3.258,-12.597 -0.316,-0.536 -0.832,-0.922 -1.434,-1.079 -0.605,-0.152 -1.242,-0.058 -1.777,0.258 -0.535,0.317 -0.922,0.832 -1.074,1.438 -0.153,0.601 -0.063,1.238 0.254,1.773 1.801,3.047 2.703,6.539 2.605,10.074 -0.097,3.539 -1.195,6.973 -3.164,9.915 -0.238,0.351 -0.375,0.761 -0.394,1.187 -0.024,0.426 0.07,0.848 0.269,1.223 0.203,0.375 0.5,0.687 0.863,0.906 z m -33.804,0.383 c -0.387,0 -0.762,-0.094 -1.102,-0.274 -0.34,-0.179 -0.629,-0.437 -0.844,-0.758 -2.378,-3.523 -3.754,-7.632 -3.976,-11.878 -0.223,-4.25 0.715,-8.477 2.711,-12.231 2,-3.758 4.98,-6.898 8.625,-9.086 3.648,-2.191 7.82,-3.348 12.074,-3.348 1.531,0 3.062,0.149 4.566,0.446 0.305,0.058 0.59,0.176 0.848,0.347 0.258,0.172 0.477,0.391 0.648,0.645 0.172,0.258 0.293,0.543 0.352,0.848 0.063,0.3 0.063,0.613 0,0.914 -0.059,0.304 -0.176,0.59 -0.348,0.847 -0.171,0.254 -0.39,0.477 -0.648,0.649 -0.254,0.168 -0.543,0.289 -0.844,0.347 -0.304,0.063 -0.613,0.063 -0.918,0 -2.718,-0.535 -5.523,-0.464 -8.211,0.211 -2.687,0.676 -5.191,1.938 -7.336,3.696 -2.14,1.758 -3.867,3.968 -5.054,6.472 -1.188,2.508 -1.801,5.243 -1.805,8.016 -0.008,3.738 1.109,7.391 3.199,10.484 0.239,0.352 0.375,0.762 0.399,1.188 0.023,0.422 -0.071,0.848 -0.27,1.223 -0.199,0.375 -0.496,0.687 -0.863,0.906 -0.363,0.219 -0.781,0.336 -1.203,0.336 z" transform="scale(1.3333333)" style="fill:url(#I99ef096353794962b33d99b3a951b6c420251106164749);stroke:none" opacity="1" id="Id45f666f85f645bd942276486360173720251106164749" /> <path id="I85dc0c8f2b384152b20e20009278d92a20251106164749" d="m 50.434,18.457 c -0.45,-0.008 -0.883,0.141 -1.235,0.418 l -2.472,1.973 c -1.497,1.187 -3.504,2.793 -5.551,4.453 -2.047,1.66 -4.149,3.367 -5.824,4.773 -0.836,0.703 -1.579,1.332 -2.157,1.844 -0.465,0.394 -0.902,0.816 -1.32,1.262 -0.992,1.164 -1.484,2.675 -1.367,4.199 0.121,1.527 0.844,2.945 2.008,3.937 1.164,0.996 2.675,1.489 4.199,1.368 1.527,-0.122 2.945,-0.84 3.937,-2.004 0.375,-0.481 0.723,-0.981 1.039,-1.5 0.414,-0.653 0.922,-1.481 1.481,-2.418 1.125,-1.875 2.488,-4.215 3.805,-6.5 1.316,-2.285 2.597,-4.516 3.535,-6.18 l 1.133,-2 0.425,-0.754 c 0.223,-0.387 0.297,-0.84 0.223,-1.281 -0.078,-0.438 -0.309,-0.836 -0.648,-1.129 -0.336,-0.289 -0.766,-0.453 -1.211,-0.461 z" transform="scale(1.3333333)" style="fill:url(#I1313f800877f4c7bac840cca27d805d920251106164749);stroke:none" /> </g>
</svg>

