<?xml version="1.0" encoding="UTF-8" standalone="no"?> <svg version="1.1" id="Id7f59fbefe504b88b835a2991b294eea20251106155156" width="100" height="100" viewBox="0 0 100 100" xmlns="http://www.w3.org/2000/svg" xmlns:svg="http://www.w3.org/2000/svg"> <defs id="I9606d7ffd9da48e1b2218c27333b4e3b20251106155156" /> <g id="I4158341e975b468ca9779a751c4d139e20251106155156"> <path id="I77e84b6b4d78449ab66e955df7613e4720251106155156" d="M 37.5,6.25 V 25 c 0,3.453 2.797,6.25 6.25,6.25 H 62.5 V 62.5 c 0,3.453 -2.797,6.25 -6.25,6.25 H 33.113 l 0.067,-0.035 c 2.648,-1.324 4.32,-4.027 4.32,-6.988 V 47.656 c 0,-2.961 -1.672,-5.664 -4.32,-6.988 L 22.242,35.199 c -2.199,-1.097 -4.785,-1.097 -6.984,0 L 12.5,36.578 V 12.5 c 0,-3.453 2.797,-6.25 6.25,-6.25 z m 4.688,1.562 V 25 c 0,0.863 0.699,1.562 1.562,1.562 h 17.188 z m -21.34,30.184 10.937,5.469 c 1.586,0.793 2.59,2.414 2.59,4.191 v 14.071 c 0,1.777 -1.004,3.398 -2.59,4.195 l -10.937,5.469 c -1.321,0.66 -2.875,0.66 -4.196,0 L 5.715,65.922 C 4.129,65.125 3.125,63.504 3.125,61.727 V 47.656 c 0,-1.777 1.004,-3.398 2.59,-4.191 l 10.937,-5.469 c 1.321,-0.66 2.875,-0.66 4.196,0 z M 10.074,47.039 C 9.301,46.652 8.363,46.969 7.977,47.738 7.59,48.512 7.906,49.449 8.676,49.836 l 8.512,4.254 v 9.972 c 0,0.864 0.699,1.563 1.562,1.563 0.863,0 1.562,-0.699 1.562,-1.563 V 54.09 l 8.512,-4.254 c 0.77,-0.387 1.086,-1.324 0.699,-2.098 -0.386,-0.769 -1.324,-1.086 -2.097,-0.699 l -8.676,4.34 z" style="fill:currentColor;fill-opacity:1;fill-rule:nonzero;stroke:none" transform="scale(1.3333333)" /> </g>
</svg>

