<?xml version="1.0" encoding="UTF-8" standalone="no"?> <svg version="1.1" id="Ie7c7611452ae498287ca0674078bf7eb20251106144520" width="100" height="100" viewBox="0 0 100 100" xmlns="http://www.w3.org/2000/svg" xmlns:svg="http://www.w3.org/2000/svg"> <defs id="I2e1b77abdb4046f7bdc40729b91c0c7220251106144520" /> <g id="Ib99fa82b8d084d25913eeafcdd938ab920251106144520"> <path id="Ibe8933bb79534216816bb741064f2f7320251106144520" d="m 7.812,13.281 c 0,-1.293 1.051,-2.343 2.344,-2.343 h 1.746 c 2.969,0 4.746,1.996 5.766,3.851 0.676,1.238 1.168,2.676 1.551,3.973 0.101,-0.008 0.207,-0.012 0.316,-0.012 h 39.051 c 2.598,0 4.469,2.484 3.758,4.977 l -5.711,20.031 c -1.055,3.691 -4.426,6.234 -8.266,6.234 H 29.781 c -3.871,0 -7.265,-2.586 -8.289,-6.32 L 19.117,35.016 15.184,21.738 15.176,21.715 c -0.485,-1.777 -0.942,-3.434 -1.621,-4.672 -0.66,-1.203 -1.184,-1.418 -1.653,-1.418 h -1.746 c -1.293,0 -2.344,-1.051 -2.344,-2.344 z m 20.313,52.344 c 3.453,0 6.25,-2.797 6.25,-6.25 0,-3.453 -2.797,-6.25 -6.25,-6.25 -3.453,0 -6.25,2.797 -6.25,6.25 0,3.453 2.797,6.25 6.25,6.25 z m 21.875,0 c 3.453,0 6.25,-2.797 6.25,-6.25 0,-3.453 -2.797,-6.25 -6.25,-6.25 -3.453,0 -6.25,2.797 -6.25,6.25 0,3.453 2.797,6.25 6.25,6.25 z" style="fill:currentColor;fill-opacity:1;fill-rule:nonzero;stroke:none" transform="scale(1.3333333)" /> </g>
</svg>

