<?xml version="1.0" encoding="UTF-8" standalone="no"?> <svg version="1.1" id="I78862fba039048ca9d09e8ffd328c47b20251110124420" width="100" height="100" viewBox="0 0 100 100" xmlns="http://www.w3.org/2000/svg" xmlns:svg="http://www.w3.org/2000/svg"> <defs id="I79f1b2af52e34855bb5f321de6243c2620251110124420" /> <g id="Id4e13561637c482daa0fd3071ceaf94c20251110124420"> <path id="I3e1a7e54059541ef95c6f3c47b1a705d20251110124420" d="m 13.281,12.5 c -3.883,0 -7.031,3.148 -7.031,7.031 v 35.938 c 0,3.883 3.148,7.031 7.031,7.031 h 48.438 c 3.883,0 7.031,-3.148 7.031,-7.031 V 19.531 C 68.75,15.648 65.602,12.5 61.719,12.5 Z M 24.98,29.484 c 0.973,0.856 1.075,2.336 0.223,3.309 l -2.07,2.363 h 8.945 c 1.293,0 2.344,1.051 2.344,2.344 0,1.293 -1.051,2.344 -2.344,2.344 h -8.945 l 2.07,2.363 c 0.852,0.973 0.75,2.453 -0.223,3.309 -0.972,0.851 -2.453,0.75 -3.308,-0.223 l -5.469,-6.25 c -0.769,-0.883 -0.769,-2.203 0,-3.086 l 5.469,-6.25 c 0.855,-0.973 2.336,-1.074 3.308,-0.223 z m 24.864,3.309 c -0.852,-0.973 -0.754,-2.453 0.222,-3.309 0.973,-0.851 2.454,-0.75 3.305,0.223 l 5.469,6.25 c 0.773,0.883 0.773,2.203 0,3.086 l -5.469,6.25 C 52.52,46.266 51.039,46.367 50.066,45.516 49.09,44.66 48.992,43.18 49.844,42.207 l 2.066,-2.363 h -8.941 c -1.293,0 -2.344,-1.051 -2.344,-2.344 0,-1.293 1.051,-2.344 2.344,-2.344 h 8.941 z" style="fill:currentColor;fill-opacity:1;fill-rule:nonzero;stroke:none" transform="scale(1.3333333)" /> </g>
</svg>

