<?xml version="1.0" encoding="UTF-8" standalone="no"?> <svg version="1.1" id="I6847b6ce5dff4b449b21ee3592fc5b1920251106155156" width="100" height="100" viewBox="0 0 100 100" xmlns="http://www.w3.org/2000/svg" xmlns:svg="http://www.w3.org/2000/svg"> <defs id="I7b4036d852064bf799f20a781e67cce120251106155156" /> <g id="Ia883280816f9442fbccbf63a1d04402b20251106155156"> <path id="I44cd8578ab174ab5a02537d30a4bb44d20251106155156" d="m 57.812,62.5 c 0,0.859 -0.699,1.562 -1.562,1.562 H 37.5 c 0,1.817 -0.652,3.376 -1.664,4.688 H 56.25 c 3.449,0 6.25,-2.801 6.25,-6.25 V 30.711 c 0,-1.656 -0.66,-3.246 -1.832,-4.418 L 42.453,8.082 C 42.406,8.035 42.352,7.992 42.301,7.953 42.262,7.926 42.223,7.895 42.188,7.863 41.965,7.664 41.746,7.465 41.504,7.301 41.426,7.246 41.336,7.203 41.25,7.164 41.203,7.137 41.152,7.113 41.102,7.086 41.051,7.059 41,7.027 40.945,6.996 40.777,6.898 40.609,6.801 40.43,6.727 39.812,6.469 39.148,6.34 38.477,6.293 38.418,6.289 38.355,6.281 38.293,6.273 38.211,6.262 38.125,6.25 38.039,6.25 H 18.75 c -3.449,0 -6.25,2.801 -6.25,6.25 v 22.461 c 1.496,-0.293 3.066,-0.477 4.688,-0.551 V 12.5 c 0,-0.859 0.699,-1.562 1.562,-1.562 H 37.5 V 25 c 0,3.449 2.801,6.25 6.25,6.25 H 57.812 Z M 42.188,14.441 54.305,26.562 H 43.75 c -0.863,0 -1.562,-0.703 -1.562,-1.562 z m -9.665,53.313 c -2.636,2.453 -7.816,4.121 -13.773,4.121 -6.406,0 -11.914,-1.93 -14.324,-4.687 C 3.59,66.23 3.125,65.172 3.125,64.062 V 51.535 c 0.969,0.848 2.074,1.543 3.18,2.098 3.347,1.672 7.75,2.617 12.445,2.617 1.605,0 3.18,-0.109 4.688,-0.324 1.652,-0.231 3.23,-0.59 4.687,-1.055 1.098,-0.351 2.125,-0.766 3.07,-1.238 1.106,-0.555 2.211,-1.25 3.18,-2.098 v 12.527 c 0,1.336 -0.672,2.594 -1.852,3.692 z M 17.188,37.539 c 0.515,-0.027 1.035,-0.039 1.562,-0.039 1.633,0 3.207,0.125 4.688,0.359 1.707,0.266 3.289,0.676 4.687,1.203 3.797,1.426 6.25,3.696 6.25,6.25 0,2.555 -2.453,4.825 -6.25,6.25 -1.398,0.528 -2.98,0.938 -4.687,1.204 -1.481,0.234 -3.055,0.359 -4.688,0.359 -8.629,0 -15.625,-3.496 -15.625,-7.813 0,-3.203 3.855,-5.957 9.375,-7.164 1.461,-0.316 3.035,-0.527 4.688,-0.609 z" style="fill:currentColor;fill-opacity:1;fill-rule:nonzero;stroke:none" transform="scale(1.3333333)" /> </g>
</svg>

