<?xml version="1.0" encoding="UTF-8" standalone="no"?> <svg version="1.1" id="I94fff2861ef74e95be8c9cbdee2e324920251106170412" width="100" height="100" viewBox="0 0 100 100" xmlns="http://www.w3.org/2000/svg" xmlns:svg="http://www.w3.org/2000/svg"> <defs id="I5345cf66a730461e997e28a2a622732520251106170412" /> <g id="Ie2c2d2667c8c40dd9d595200051dea1a20251106170412"> <path id="Ia6066b055bcc4e7e94e845a1ab846e6620251106170412" d="m 9.375,19.531 c 0,-5.609 4.547,-10.156 10.156,-10.156 h 35.938 c 5.609,0 10.156,4.547 10.156,10.156 v 35.938 c 0,5.609 -4.547,10.156 -10.156,10.156 H 19.531 c -5.609,0 -10.156,-4.547 -10.156,-10.156 z m 10.156,-5.469 c -3.019,0 -5.469,2.45 -5.469,5.469 V 35.156 H 35.156 V 14.062 Z M 39.844,35.156 H 60.938 V 19.531 c 0,-3.019 -2.45,-5.469 -5.469,-5.469 H 39.844 Z m 21.094,4.688 H 14.062 v 15.625 c 0,3.019 2.45,5.469 5.469,5.469 h 35.938 c 3.019,0 5.469,-2.45 5.469,-5.469 z" style="fill:currentColor;fill-opacity:1;fill-rule:nonzero;stroke:none" transform="scale(1.3333333)" /> </g>
</svg>

