<?xml version="1.0" encoding="UTF-8" standalone="no"?> <svg version="1.1" id="I1a34c1e7f0a849a09362a44e499df35f20251110124421" width="100" height="100" viewBox="0 0 100 100" xmlns="http://www.w3.org/2000/svg" xmlns:svg="http://www.w3.org/2000/svg"> <defs id="I9a102cb018574581a0edcf6b41fc8d3d20251110124421" /> <g id="I4fd41f4de2754ff0b47185964fd3a73620251110124421"> <path id="I349ddfbf1c414ed0a89862eaed12521a20251110124421" d="m 28.125,6.25 c -1.469,0 -2.91,0.145 -4.301,0.422 -0.933,0.187 -1.66,0.918 -1.844,1.855 l -1.125,5.805 c -0.089,0.469 -0.57,0.746 -1.019,0.59 l -5.598,-1.93 c -0.898,-0.308 -1.894,-0.047 -2.519,0.664 -1.903,2.156 -3.387,4.688 -4.324,7.473 -0.305,0.902 -0.036,1.894 0.683,2.519 l 4.477,3.887 c 0.359,0.313 0.359,0.867 0,1.18 l -4.477,3.887 c -0.719,0.621 -0.988,1.617 -0.687,2.519 0.941,2.785 2.425,5.317 4.324,7.469 0.629,0.715 1.625,0.976 2.523,0.668 l 5.598,-1.934 c 0.449,-0.156 0.93,0.125 1.019,0.59 l 1.125,5.809 c 0.184,0.937 0.911,1.668 1.844,1.855 1.395,0.277 2.832,0.422 4.301,0.422 1.48,0 2.93,-0.148 4.332,-0.43 0.93,-0.187 1.656,-0.918 1.836,-1.851 l 1.125,-5.805 c 0.09,-0.465 0.574,-0.746 1.023,-0.59 l 5.579,1.926 c 0.898,0.309 1.894,0.047 2.523,-0.664 1.898,-2.16 3.383,-4.695 4.32,-7.484 0.305,-0.903 0.035,-1.895 -0.683,-2.52 l -4.457,-3.867 c -0.36,-0.313 -0.36,-0.867 0,-1.18 l 4.457,-3.871 c 0.715,-0.621 0.988,-1.617 0.683,-2.516 C 47.926,18.359 46.441,15.82 44.539,13.664 43.91,12.953 42.914,12.688 42.016,13 l -5.575,1.922 c -0.449,0.156 -0.933,-0.121 -1.023,-0.59 L 34.297,8.531 C 34.113,7.598 33.387,6.867 32.457,6.68 31.055,6.398 29.605,6.25 28.125,6.25 Z M 22.66,28.125 c 0,-3.02 2.449,-5.469 5.469,-5.469 3.019,0 5.469,2.449 5.469,5.469 0,3.02 -2.45,5.469 -5.469,5.469 -3.02,0 -5.469,-2.449 -5.469,-5.469 z m 19.254,18.074 c 0.379,-0.504 1.051,-0.676 1.648,-0.469 l 3.938,1.36 c 0.816,0.281 1.695,-0.227 1.859,-1.074 l 0.789,-4.086 c 0.122,-0.625 0.606,-1.121 1.235,-1.2 0.57,-0.07 1.152,-0.105 1.742,-0.105 0.59,0 1.172,0.035 1.742,0.105 0.629,0.079 1.113,0.575 1.235,1.2 l 0.789,4.086 c 0.164,0.847 1.043,1.355 1.859,1.074 l 3.938,-1.36 c 0.597,-0.207 1.265,-0.035 1.648,0.469 0.703,0.922 1.289,1.938 1.746,3.02 0.25,0.582 0.059,1.25 -0.418,1.664 l -3.148,2.73 c -0.653,0.567 -0.653,1.578 0,2.145 l 3.148,2.734 c 0.481,0.414 0.668,1.082 0.422,1.664 -0.461,1.082 -1.047,2.094 -1.746,3.02 -0.383,0.504 -1.055,0.676 -1.652,0.469 l -3.938,-1.36 c -0.816,-0.281 -1.695,0.223 -1.859,1.07 l -0.789,4.09 c -0.122,0.625 -0.606,1.121 -1.235,1.2 -0.57,0.07 -1.152,0.105 -1.742,0.105 -0.59,0 -1.172,-0.035 -1.742,-0.105 -0.629,-0.079 -1.113,-0.575 -1.235,-1.2 l -0.789,-4.09 C 49.195,62.508 48.316,62.004 47.5,62.285 l -3.938,1.36 c -0.597,0.207 -1.269,0.035 -1.652,-0.469 -0.699,-0.926 -1.289,-1.938 -1.746,-3.02 -0.246,-0.582 -0.059,-1.25 0.422,-1.664 l 3.148,-2.734 c 0.653,-0.567 0.653,-1.578 0,-2.145 l -3.148,-2.73 c -0.477,-0.414 -0.668,-1.082 -0.418,-1.664 0.457,-1.082 1.043,-2.098 1.746,-3.02 z m 15.117,8.489 c 0,-2.157 -1.75,-3.907 -3.906,-3.907 -2.16,0 -3.91,1.75 -3.91,3.907 0,2.16 1.75,3.906 3.91,3.906 2.156,0 3.906,-1.746 3.906,-3.906 z" style="fill:currentColor;fill-opacity:1;fill-rule:nonzero;stroke:none" transform="scale(1.3333333)" /> </g>
</svg>

