<?xml version="1.0" encoding="UTF-8" standalone="no"?> <svg version="1.1" id="Ia2bf9e628359432786d25718e71f99cb20251106102216" width="100" height="100" viewBox="0 0 100 100" xmlns="http://www.w3.org/2000/svg" xmlns:svg="http://www.w3.org/2000/svg"> <defs id="I35d9c0c677f1451381332d4ab1737d6820251106102216" /> <g id="Ib27d3dfce8464cfb931faf3c3748a55820251106102216"> <path id="Id8b134ab65cc452b907dac3c53076a5420251106102216" d="M 64.461,33.918 C 62.836,30.262 60.473,26.977 57.523,24.273 L 55.086,22.039 C 54.727,21.719 54.16,21.863 54,22.316 l -1.09,3.122 c -0.68,1.96 -1.926,3.96 -3.691,5.925 -0.117,0.125 -0.25,0.16 -0.344,0.168 -0.09,0.008 -0.234,-0.008 -0.359,-0.125 C 48.398,31.305 48.34,31.156 48.348,31.004 48.656,25.965 47.152,20.281 43.852,14.098 41.125,8.957 37.332,4.945 32.594,2.152 L 29.137,0.117 c -0.449,-0.269 -1.028,0.082 -1.004,0.61 l 0.183,4.019 c 0.125,2.746 -0.191,5.172 -0.945,7.192 -0.922,2.468 -2.242,4.761 -3.933,6.82 -1.176,1.43 -2.512,2.726 -3.977,3.859 -3.527,2.715 -6.399,6.192 -8.395,10.172 -1.992,4.012 -3.027,8.434 -3.031,12.914 0,3.949 0.777,7.777 2.32,11.383 1.485,3.473 3.633,6.629 6.321,9.285 2.711,2.676 5.859,4.785 9.363,6.25 3.633,1.524 7.484,2.297 11.461,2.297 3.977,0 7.828,-0.773 11.461,-2.285 3.496,-1.457 6.68,-3.582 9.363,-6.254 2.715,-2.68 4.84,-5.809 6.321,-9.285 1.539,-3.598 2.328,-7.469 2.32,-11.383 0,-4.086 -0.836,-8.051 -2.504,-11.793 z M 54.324,62.32 c -4.496,4.453 -10.461,6.895 -16.824,6.895 -6.363,0 -12.328,-2.442 -16.824,-6.895 -4.481,-4.445 -6.949,-10.34 -6.949,-16.609 0,-3.641 0.82,-7.133 2.437,-10.379 1.574,-3.172 3.918,-6.012 6.762,-8.195 1.816,-1.387 3.461,-2.985 4.906,-4.754 2.094,-2.555 3.734,-5.399 4.871,-8.453 0.469,-1.262 0.809,-2.567 1.012,-3.895 2.019,1.86 3.711,4.102 5.125,6.731 2.797,5.242 4.086,9.902 3.832,13.871 -0.121,1.894 0.633,3.738 2.043,5.004 1.219,1.101 2.828,1.668 4.469,1.574 1.652,-0.082 3.164,-0.813 4.269,-2.043 1.113,-1.246 2.078,-2.52 2.879,-3.817 1.172,1.5 2.152,3.133 2.93,4.891 1.332,2.996 2.011,6.184 2.011,9.465 0,6.269 -2.468,12.172 -6.949,16.609 z" style="fill:currentColor;fill-opacity:1;fill-rule:nonzero;stroke:none" transform="scale(1.3333333)" /> </g>
</svg>

