<?xml version="1.0" encoding="UTF-8" standalone="no"?> <svg version="1.1" id="I56bc3ab40e27429eb92807ad7961ba7120251106152729" width="100" height="100" viewBox="0 0 100 100" xmlns="http://www.w3.org/2000/svg" xmlns:svg="http://www.w3.org/2000/svg"> <defs id="I2e6b12ad00a44da09170f21f4eaa0a9620251106152729" /> <g id="I85af68894e004f40aa8cc6d7982a10d520251106152729"> <path id="I6fef153582a346b1b559f09abe00e42b20251106152729" d="m 19.531,9.375 h 25.781 v 56.25 H 19.531 C 13.922,65.625 9.375,61.078 9.375,55.469 V 19.531 c 0,-5.609 4.547,-10.156 10.156,-10.156 z m 35.938,56.25 H 50 V 50 h 15.625 v 5.469 c 0,5.609 -4.547,10.156 -10.156,10.156 z M 65.625,45.312 H 50 V 29.688 H 65.625 Z M 50,25 V 9.375 h 5.469 c 5.609,0 10.156,4.547 10.156,10.156 V 25 Z M 18.75,42.969 c 0,1.293 1.051,2.343 2.344,2.343 h 14.062 c 1.293,0 2.344,-1.05 2.344,-2.343 0,-1.293 -1.051,-2.344 -2.344,-2.344 H 21.094 c -1.293,0 -2.344,1.051 -2.344,2.344 z m 3.906,-22.657 c -2.156,0 -3.906,1.75 -3.906,3.907 v 7.812 c 0,2.157 1.75,3.907 3.906,3.907 h 10.938 c 2.156,0 3.906,-1.75 3.906,-3.907 v -7.812 c 0,-2.157 -1.75,-3.907 -3.906,-3.907 z M 23.438,31.25 V 25 h 9.374 v 6.25 z M 18.75,52.344 c 0,1.293 1.051,2.344 2.344,2.344 h 14.062 c 1.293,0 2.344,-1.051 2.344,-2.344 C 37.5,51.051 36.449,50 35.156,50 H 21.094 c -1.293,0 -2.344,1.051 -2.344,2.344 z" style="fill:currentColor;fill-opacity:1;fill-rule:nonzero;stroke:none" transform="scale(1.3333333)" /> </g>
</svg>

