<?xml version="1.0" encoding="UTF-8" standalone="no"?> <svg version="1.1" id="Ie6e0477ead84407b987aafa3bdf89bf920251106154011" width="100" height="100" viewBox="0 0 100 100" xmlns="http://www.w3.org/2000/svg" xmlns:svg="http://www.w3.org/2000/svg"> <defs id="I97ea09428881414b80870bdffec8e50820251106154011" /> <g id="I34b3bbac68c94958890e6ec35570ce3f20251106154011"> <path id="I39313d27638545fbb14ba07bf5dc79ef20251106154011" d="m 41.902,7.852 c -2.824,-1.145 -5.98,-1.145 -8.804,0 l -23.434,9.5 C 7.602,18.191 6.25,20.195 6.25,22.422 v 30.164 c 0,2.226 1.352,4.23 3.414,5.066 l 23.434,9.5 c 1.961,0.797 4.082,1.039 6.144,0.731 -3.035,-3.551 -4.867,-8.156 -4.867,-13.192 0,-1.941 0.273,-3.82 0.781,-5.597 V 33.625 L 20.262,27.977 c -1.211,-0.461 -1.821,-1.813 -1.36,-3.024 0.461,-1.211 1.813,-1.82 3.024,-1.359 l 15.574,5.91 15.574,-5.91 c 1.211,-0.461 2.563,0.148 3.024,1.359 0.457,1.211 -0.149,2.563 -1.36,3.024 l -14.894,5.648 v 7.199 c 3.707,-3.965 8.984,-6.445 14.844,-6.445 5.457,0 10.414,2.152 14.062,5.652 V 22.422 c 0,-2.227 -1.352,-4.231 -3.414,-5.07 z M 37.5,54.691 c 0,9.493 7.695,17.188 17.188,17.188 9.492,0 17.187,-7.695 17.187,-17.188 0,-9.492 -7.695,-17.187 -17.187,-17.187 -9.493,0 -17.188,7.695 -17.188,17.187 z M 64.062,43.754 c 0.864,0 1.563,0.699 1.563,1.562 v 6.25 c 0,0.864 -0.699,1.563 -1.563,1.563 h -6.25 c -0.863,0 -1.562,-0.699 -1.562,-1.563 0,-0.863 0.699,-1.562 1.562,-1.562 h 3.126 c -1.426,-1.902 -3.696,-3.125 -6.25,-3.125 -2.606,0 -4.911,1.273 -6.333,3.238 -0.507,0.699 -1.484,0.856 -2.183,0.348 -0.699,-0.504 -0.856,-1.485 -0.348,-2.184 1.985,-2.738 5.215,-4.527 8.864,-4.527 3.062,0 5.828,1.258 7.812,3.281 v -1.719 c 0,-0.863 0.699,-1.562 1.562,-1.562 z m -17.187,18.59 v 1.722 c 0,0.864 -0.699,1.563 -1.563,1.563 -0.863,0 -1.562,-0.699 -1.562,-1.563 v -6.25 c 0,-0.863 0.699,-1.562 1.562,-1.562 h 6.25 c 0.864,0 1.563,0.699 1.563,1.562 0,0.864 -0.699,1.563 -1.563,1.563 h -3.124 c 1.425,1.898 3.695,3.125 6.25,3.125 2.394,0 4.535,-1.078 5.972,-2.777 0.555,-0.661 1.543,-0.743 2.203,-0.184 0.657,0.555 0.742,1.543 0.184,2.199 -2.004,2.375 -5.004,3.887 -8.359,3.887 -3.063,0 -5.829,-1.258 -7.813,-3.285 z" style="fill:currentColor;fill-opacity:1;fill-rule:nonzero;stroke:none" transform="scale(1.3333333)" /> </g>
</svg>

