<?xml version="1.0" encoding="UTF-8" standalone="no"?> <svg version="1.1" id="Iefd43d61232f48d0a1e4ed849d020da220251110124420" width="100" height="100" viewBox="0 0 100 100" xmlns="http://www.w3.org/2000/svg" xmlns:svg="http://www.w3.org/2000/svg"> <defs id="Ie3754379a0494ec9aaff1f50e83f22c720251110124420" /> <g id="I3c7529d274f24298aaf25e03d821924a20251110124420"> <path id="I7b53b528367c4a158d2d503e5dbeb74220251110124420" d="m 48.438,53.125 c 2.589,0 4.687,2.098 4.687,4.687 0,2.59 -2.098,4.688 -4.687,4.688 -2.59,0 -4.688,-2.098 -4.688,-4.688 0,-2.589 2.098,-4.687 4.688,-4.687 z m -21.876,0 c 2.59,0 4.688,2.098 4.688,4.687 0,2.59 -2.098,4.688 -4.688,4.688 -2.589,0 -4.687,-2.098 -4.687,-4.688 0,-2.589 2.098,-4.687 4.687,-4.687 z M 48.438,31.25 c 2.589,0 4.687,2.098 4.687,4.688 0,2.589 -2.098,4.687 -4.687,4.687 -2.59,0 -4.688,-2.098 -4.688,-4.687 0,-2.59 2.098,-4.688 4.688,-4.688 z m -21.876,0 c 2.59,0 4.688,2.098 4.688,4.688 0,2.589 -2.098,4.687 -4.688,4.687 -2.589,0 -4.687,-2.098 -4.687,-4.687 0,-2.59 2.098,-4.688 4.687,-4.688 z M 48.438,9.375 c 2.589,0 4.687,2.098 4.687,4.687 0,2.59 -2.098,4.688 -4.687,4.688 -2.59,0 -4.688,-2.098 -4.688,-4.688 0,-2.589 2.098,-4.687 4.688,-4.687 z m -21.876,0 c 2.59,0 4.688,2.098 4.688,4.687 0,2.59 -2.098,4.688 -4.688,4.688 -2.589,0 -4.687,-2.098 -4.687,-4.688 0,-2.589 2.098,-4.687 4.687,-4.687 z" style="fill:currentColor;fill-opacity:1;fill-rule:nonzero;stroke:none" transform="scale(1.3333333)" /> </g>
</svg>

