<?xml version="1.0" encoding="UTF-8" standalone="no"?> <svg version="1.1" id="I7ddd160b60e54cd9a7b5915ef2747c4820251110130509" width="100" height="100" viewBox="0 0 100 100" xmlns="http://www.w3.org/2000/svg" xmlns:svg="http://www.w3.org/2000/svg"> <defs id="I154f0d5bd51f459da16439b533ab1f4b20251110130509" /> <g id="Ia80662cad02a4f32a8a29c6ba16faca420251110130509"> <path id="Ifa5356e3712846e597c4c3411cc3da5120251110130509" d="M 5.355,36.832 C 5.355,19.449 19.449,5.355 36.832,5.355 h 1.336 c 17.383,0 31.477,14.094 31.477,31.477 v 25.445 c 0,4.067 -3.301,7.368 -7.368,7.368 H 36.832 C 19.449,69.645 5.355,55.551 5.355,38.168 Z M 36.832,9.375 C 21.668,9.375 9.375,21.668 9.375,36.832 v 1.336 c 0,15.164 12.293,27.457 27.457,27.457 h 25.445 c 1.848,0 3.348,-1.5 3.348,-3.348 V 36.832 C 65.625,21.668 53.332,9.375 38.168,9.375 Z" style="fill:currentColor;fill-opacity:1;fill-rule:nonzero;stroke:none" transform="scale(1.3333333)" /> </g>
</svg>

