<?xml version="1.0" encoding="UTF-8" standalone="no"?> <svg version="1.1" id="Ib01379a0a9c943928c81b5e19bdb1dd720251106170955" width="100" height="100" viewBox="0 0 100 100" xmlns="http://www.w3.org/2000/svg" xmlns:svg="http://www.w3.org/2000/svg"> <defs id="I8326533f9abe45bcafc69c14def3cec320251106170955" /> <g id="I6731bd931cc34405b1760038e664a32e20251106170955"> <path id="I5b2b9ad965794b7080ad61773b98af5e20251106170955" d="m 19.82,15.434 c 1.223,1.218 1.223,3.199 0,4.418 -9.765,9.765 -9.765,25.601 0,35.367 1.223,1.219 1.223,3.199 0,4.418 -1.218,1.222 -3.199,1.222 -4.418,0 -12.207,-12.207 -12.207,-31.996 0,-44.203 1.219,-1.223 3.2,-1.223 4.418,0 z m 39.789,0 c 12.207,12.207 12.207,31.996 0,44.203 -1.222,1.222 -3.199,1.222 -4.421,0 -1.219,-1.219 -1.219,-3.199 0,-4.418 9.765,-9.766 9.765,-25.602 0,-35.367 -1.219,-1.219 -1.219,-3.2 0,-4.418 1.222,-1.223 3.199,-1.223 4.421,0 z M 29.094,24.41 c 1.218,1.223 1.218,3.199 0,4.422 -4.785,4.785 -4.785,12.539 0,17.324 1.218,1.219 1.218,3.199 0,4.418 -1.223,1.223 -3.199,1.223 -4.422,0 -7.223,-7.222 -7.223,-18.937 0,-26.164 1.223,-1.219 3.199,-1.219 4.422,0 z m 21.742,0 c 7.226,7.227 7.226,18.942 0,26.164 -1.219,1.223 -3.199,1.223 -4.418,0 -1.219,-1.219 -1.219,-3.199 0,-4.418 4.785,-4.785 4.785,-12.539 0,-17.324 -1.219,-1.223 -1.219,-3.199 0,-4.422 1.219,-1.219 3.199,-1.219 4.418,0 z m -13.082,8.656 c 2.59,0 4.687,2.098 4.687,4.688 0,2.59 -2.097,4.687 -4.687,4.687 -2.586,0 -4.688,-2.097 -4.688,-4.687 0,-2.59 2.102,-4.688 4.688,-4.688 z" style="fill:currentColor;fill-opacity:1;fill-rule:nonzero;stroke:none" transform="scale(1.3333333)" /> </g>
</svg>

