<?xml version="1.0" encoding="UTF-8" standalone="no"?> <svg version="1.1" id="I2b7c70710bb347728262600cbf65954f20251110135155" width="100" height="100" viewBox="0 0 100 100" xmlns="http://www.w3.org/2000/svg" xmlns:svg="http://www.w3.org/2000/svg"> <defs id="Icbd42f7c7ff14ef18b54864a6a9d9dbd20251110135155" /> <g id="If98f3a63bcb649c18511a1a5c4d91dcc20251110135155"> <path id="Ibcbd49f388f248708bf94f79f27fb5d620251110135155" d="m 18.75,11.719 c 0,-1.293 1.051,-2.344 2.344,-2.344 1.293,0 2.344,1.051 2.344,2.344 v 45.902 l 2.25,-2.246 c 0.914,-0.918 2.398,-0.918 3.312,0 0.918,0.914 0.918,2.398 0,3.313 l -6.25,6.25 c -0.914,0.917 -2.398,0.917 -3.312,0 l -6.25,-6.25 c -0.918,-0.915 -0.918,-2.399 0,-3.313 0.914,-0.918 2.398,-0.918 3.312,0 l 2.25,2.246 z m 17.352,28.812 11.73,-29.676 c 0.734,-1.859 3.258,-1.968 4.203,-0.324 l 0.156,0.328 11.707,29.688 c 0.477,1.207 -0.113,2.566 -1.32,3.043 -1.101,0.433 -2.34,-0.028 -2.902,-1.035 L 59.539,42.266 56.426,34.375 H 43.574 l -3.113,7.879 c -0.438,1.101 -1.617,1.691 -2.738,1.414 L 37.422,43.57 C 36.316,43.133 35.73,41.953 36.004,40.832 Z M 50.008,18.102 45.426,29.688 h 9.148 z m 0.773,25.648 c -1.293,0 -2.343,1.051 -2.343,2.344 v 11.527 l -2.25,-2.246 c -0.915,-0.918 -2.399,-0.918 -3.313,0 -0.918,0.914 -0.918,2.398 0,3.313 l 6.25,6.25 c 0.914,0.917 2.398,0.917 3.313,0 l 6.25,-6.25 c 0.917,-0.915 0.917,-2.399 0,-3.313 -0.915,-0.918 -2.399,-0.918 -3.313,0 l -2.25,2.246 V 46.094 c 0,-1.293 -1.051,-2.344 -2.344,-2.344 z" style="fill:currentColor;fill-opacity:1;fill-rule:nonzero;stroke:none" transform="scale(1.3333333)" /> </g>
</svg>

