<?xml version="1.0" encoding="UTF-8" standalone="no"?> <svg version="1.1" id="Ib136355c959c4c7d973dbd80321a2d3b20251106152729" width="100" height="100" viewBox="0 0 100 100" xmlns="http://www.w3.org/2000/svg" xmlns:svg="http://www.w3.org/2000/svg"> <defs id="Ie77767afb7bc4f759b15a5edb557191420251106152729" /> <g id="I64f2986ae19a46f5a5a05c9a8b771b2220251106152729"> <path id="I1d2d5ad67d4f4e469c451bb257f11c8920251106152729" d="m 60.27,5.355 c 5.175,0 9.375,4.2 9.375,9.375 0,5.18 -4.2,9.375 -9.375,9.375 -1.864,0 -3.598,-0.546 -5.055,-1.48 l -9.82,9.82 c 0.937,1.461 1.48,3.192 1.48,5.055 0,1.863 -0.547,3.594 -1.484,5.051 l 9.824,9.824 c 1.457,-0.937 3.191,-1.48 5.055,-1.48 5.175,0 9.375,4.195 9.375,9.375 0,5.175 -4.2,9.375 -9.375,9.375 -5.18,0 -9.375,-4.2 -9.375,-9.375 0,-1.864 0.543,-3.598 1.48,-5.055 l -9.824,-9.824 c -1.457,0.937 -3.188,1.484 -5.051,1.484 -1.863,0 -3.594,-0.543 -5.055,-1.48 l -9.82,9.82 c 0.934,1.457 1.48,3.191 1.48,5.055 0,5.175 -4.195,9.375 -9.375,9.375 -5.175,0 -9.375,-4.2 -9.375,-9.375 0,-5.18 4.2,-9.375 9.375,-9.375 1.864,0 3.594,0.543 5.055,1.48 l 9.82,-9.824 c -0.933,-1.457 -1.48,-3.192 -1.48,-5.051 0,-1.863 0.543,-3.594 1.48,-5.055 l -9.82,-9.82 c -1.461,0.934 -3.191,1.48 -5.055,1.48 -5.175,0 -9.375,-4.195 -9.375,-9.375 0,-5.175 4.2,-9.375 9.375,-9.375 5.18,0 9.375,4.2 9.375,9.375 0,1.864 -0.546,3.594 -1.48,5.055 l 9.82,9.82 c 1.461,-0.937 3.192,-1.48 5.055,-1.48 1.859,0 3.594,0.547 5.051,1.48 l 9.824,-9.82 c -0.937,-1.461 -1.48,-3.191 -1.48,-5.055 0,-5.175 4.195,-9.375 9.375,-9.375 z" style="fill:currentColor;fill-opacity:1;fill-rule:nonzero;stroke:none" transform="scale(1.3333333)" /> </g>
</svg>

