<?xml version="1.0" encoding="UTF-8" standalone="no"?> <svg version="1.1" id="Id7564cf3d8d34cbdb9cacc48656f301920251106125937" width="100" height="100" viewBox="0 0 100 100" xmlns="http://www.w3.org/2000/svg" xmlns:svg="http://www.w3.org/2000/svg"> <defs id="I5db2e8ae35f74957854e38647fa8db6520251106125937" /> <g id="Ief08d4a226544b5a9a1b2564c4916f3e20251106125937"> <path id="I9721483d672248609c78ec008570b4ed20251106125937" d="m 35.992,19.5 c 0.75,-1 2.254,-1 3.004,0 l 16.867,22.504 c 0.926,1.238 0.043,3 -1.5,3 H 20.637 c -1.547,0 -2.43,-1.762 -1.504,-3 z m 6.004,-2.25 c -2.25,-3 -6.754,-3 -9.004,0.004 L 16.133,39.758 c -2.778,3.707 -0.133,8.996 4.504,8.996 h 33.726 c 4.633,0 7.282,-5.289 4.5,-8.996 z M 15,56.25 c -1.035,0 -1.875,0.84 -1.875,1.875 0,1.035 0.84,1.875 1.875,1.875 h 45 c 1.035,0 1.875,-0.84 1.875,-1.875 0,-1.035 -0.84,-1.875 -1.875,-1.875 z" style="fill:currentColor;fill-opacity:1;fill-rule:nonzero;stroke:none" transform="scale(1.3333333)" /> </g>
</svg>

