<?xml version="1.0" encoding="UTF-8" standalone="no"?> <svg version="1.1" id="Icc33c4955cc84d679f55511c055bbf2920251106164750" width="100" height="100" viewBox="0 0 100 100" xmlns="http://www.w3.org/2000/svg" xmlns:svg="http://www.w3.org/2000/svg"> <defs id="I93f9f817edcb43739b35af1d42b084a020251106164750" /> <g id="Ic4af4293a66c4a6bb6322336220b31ef20251106164750"> <path id="I14f67277717f403eb7c416dedeca818b20251106164750" d="m 19.531,6.25 c -3.883,0 -7.031,3.148 -7.031,7.031 v 48.438 c 0,3.883 3.148,7.031 7.031,7.031 h 20.5 C 36.812,65.395 34.734,60.941 34.418,56.004 32.191,55.633 30.219,54.836 28.641,53.609 26.305,51.793 25,49.156 25,46.094 c 0,-3.02 2.449,-5.469 5.469,-5.469 h 9.562 c 3.696,-3.852 8.895,-6.25 14.657,-6.25 2.769,0 5.406,0.555 7.812,1.559 V 13.281 C 62.5,9.398 59.352,6.25 55.469,6.25 Z M 37.5,20.312 c 4.316,0 7.812,3.497 7.812,7.813 0,4.316 -3.496,7.813 -7.812,7.813 -4.316,0 -7.812,-3.497 -7.812,-7.813 0,-4.316 3.496,-7.813 7.812,-7.813 z m -5.469,-9.374 h 10.938 c 1.293,0 2.343,1.05 2.343,2.343 0,1.293 -1.05,2.344 -2.343,2.344 H 32.031 c -1.293,0 -2.343,-1.051 -2.343,-2.344 0,-1.293 1.05,-2.343 2.343,-2.343 z m 39.844,43.75 C 71.875,45.195 64.18,37.5 54.688,37.5 45.195,37.5 37.5,45.195 37.5,54.688 c 0,9.492 7.695,17.187 17.188,17.187 9.492,0 17.187,-7.695 17.187,-17.187 z m -15.625,1.562 0.004,7.824 c 0,0.864 -0.699,1.563 -1.563,1.563 -0.863,0 -1.562,-0.699 -1.562,-1.563 L 53.125,56.25 h -7.828 c -0.859,0 -1.559,-0.699 -1.559,-1.562 0,-0.864 0.7,-1.563 1.559,-1.563 h 7.828 v -7.816 c 0,-0.864 0.699,-1.563 1.563,-1.563 0.863,0 1.562,0.699 1.562,1.563 v 7.816 h 7.801 c 0.863,0 1.562,0.699 1.562,1.563 0,0.863 -0.699,1.562 -1.562,1.562 z" style="fill:currentColor;fill-opacity:1;fill-rule:nonzero;stroke:none" transform="scale(1.3333333)" /> </g>
</svg>

