<?xml version="1.0" encoding="UTF-8" standalone="no"?> <svg version="1.1" id="I1c20d8e61b3a4772839102abe0d1edbb20251106170412" width="100" height="100" viewBox="0 0 100 100" xmlns="http://www.w3.org/2000/svg" xmlns:svg="http://www.w3.org/2000/svg"> <defs id="I5e9d1ab8e8ff493cb21ccd62810d028c20251106170412" /> <g id="I583907e03c2740198e31ab60997f564e20251106170412"> <path id="Iabecaf455bd24a828aad9d1dfb96d5d820251106170412" d="M 41.367,10.227 C 39.23,8.09 35.77,8.09 33.633,10.227 L 22.035,21.824 c -8.543,8.539 -8.543,22.391 0,30.93 3.672,3.676 8.328,5.766 13.121,6.281 v 7.371 c 0,1.293 1.051,2.344 2.344,2.344 1.293,0 2.344,-1.051 2.344,-2.344 v -7.371 c 4.793,-0.515 9.449,-2.605 13.121,-6.281 8.543,-8.539 8.543,-22.391 0,-30.93 z M 39.844,54.312 V 36.719 c 0,-1.297 -1.051,-2.344 -2.344,-2.344 -1.293,0 -2.344,1.047 -2.344,2.344 V 54.312 C 31.57,53.82 28.105,52.195 25.348,49.441 18.641,42.73 18.641,31.848 25.348,25.137 L 36.949,13.539 c 0.305,-0.305 0.797,-0.305 1.102,0 l 11.601,11.598 c 6.707,6.711 6.707,17.593 0,24.304 -2.757,2.754 -6.222,4.379 -9.808,4.871 z" style="fill:currentColor;fill-opacity:1;fill-rule:nonzero;stroke:none" transform="scale(1.3333333)" /> </g>
</svg>

