<?xml version="1.0" encoding="UTF-8" standalone="no"?> <svg version="1.1" id="Iac926de4355947fda9bd204f0fd61d9a20251106104833" width="100" height="100" viewBox="0 0 100 100" xmlns="http://www.w3.org/2000/svg" xmlns:svg="http://www.w3.org/2000/svg"> <defs id="I620e7d1a49a54fb2b1707f1b4e1a161720251106104833" /> <g id="Icd5b889b2d80485ebe7587ce8f0e009120251106104833"> <path id="I2b56b42666cd465696b631095aff1c3020251106104833" d="m 63.633,53.227 c -2.094,-2.094 -4.543,-3.805 -7.231,-5.055 3.789,-3.07 6.211,-7.758 6.211,-13.016 0,-9.273 -7.734,-16.883 -17.011,-16.742 -9.133,0.145 -16.489,7.586 -16.489,16.742 0,5.258 2.426,9.946 6.211,13.016 -2.691,1.246 -5.136,2.957 -7.234,5.055 -4.57,4.582 -7.164,10.625 -7.332,17.07 -0.008,0.375 0.293,0.683 0.672,0.683 h 4.687 c 0.36,0 0.66,-0.281 0.668,-0.644 0.16,-4.852 2.125,-9.398 5.582,-12.848 3.574,-3.59 8.438,-5.605 13.504,-5.59 5.098,0 9.895,1.985 13.5,5.59 3.449,3.45 5.418,7.996 5.586,12.848 0.008,0.363 0.309,0.644 0.668,0.644 h 4.687 c 0.376,0 0.68,-0.308 0.668,-0.683 -0.164,-6.445 -2.761,-12.488 -7.347,-17.07 z M 45.871,45.871 c -2.863,0 -5.559,-1.113 -7.574,-3.141 -2.047,-2.027 -3.18,-4.8 -3.141,-7.683 0.024,-2.746 1.121,-5.399 3.039,-7.367 2.008,-2.059 4.696,-3.203 7.567,-3.239 2.836,-0.023 5.59,1.082 7.617,3.063 2.074,2.035 3.215,4.758 3.215,7.652 0,2.864 -1.114,5.551 -3.141,7.574 -2.008,2.02 -4.738,3.149 -7.582,3.141 z M 24.902,37.367 c -0.074,-0.73 -0.117,-1.465 -0.117,-2.211 0,-1.332 0.125,-2.629 0.36,-3.89 0.058,-0.305 -0.102,-0.614 -0.375,-0.739 -1.141,-0.511 -2.188,-1.215 -3.09,-2.101 -2.153,-2.086 -3.328,-4.985 -3.239,-7.985 0.075,-2.687 1.153,-5.242 3.039,-7.164 2.067,-2.121 4.844,-3.273 7.801,-3.242 2.668,0.027 5.246,1.055 7.199,2.879 0.661,0.621 1.231,1.309 1.708,2.043 0.167,0.262 0.492,0.371 0.777,0.27 1.473,-0.512 3.031,-0.872 4.629,-1.039 0.468,-0.051 0.738,-0.551 0.527,-0.969 C 41.402,7.836 35.844,4.117 29.414,4.02 20.133,3.875 12.398,11.484 12.398,20.75 c 0,5.258 2.418,9.945 6.211,13.016 -2.664,1.23 -5.117,2.929 -7.242,5.058 -4.586,4.578 -7.183,10.621 -7.347,17.074 -0.012,0.375 0.292,0.688 0.668,0.688 h 4.695 c 0.359,0 0.66,-0.285 0.672,-0.645 0.156,-4.855 2.125,-9.402 5.582,-12.851 2.461,-2.461 5.472,-4.168 8.761,-4.996 0.329,-0.082 0.547,-0.395 0.504,-0.727 z" style="fill:currentColor;fill-opacity:1;fill-rule:nonzero;stroke:none" transform="scale(1.3333333)" /> </g>
</svg>

