<?xml version="1.0" encoding="UTF-8" standalone="no"?> <svg version="1.1" id="Icfe1ea9f4ab840bca6261a27d028ed6720251106132945" width="100" height="100" viewBox="0 0 100 100" xmlns="http://www.w3.org/2000/svg" xmlns:svg="http://www.w3.org/2000/svg"> <defs id="I466eba9be045402d99bdbb729a91946d20251106132945" /> <g id="Ifeffc1605519481198107e95950a10d620251106132945"> <path id="I11f65faa7a2d4674b13c7f8052b0488120251106132945" d="m 36.062,5.512 c 0.75,-0.313 1.614,-0.141 2.188,0.433 l 16.07,16.071 c 0.395,0.394 0.61,0.933 0.59,1.488 -0.019,0.555 -0.265,1.078 -0.683,1.445 L 39.883,37.5 54.227,50.051 c 0.418,0.367 0.664,0.89 0.683,1.445 0.02,0.555 -0.195,1.094 -0.59,1.488 L 38.25,69.055 c -0.574,0.574 -1.438,0.746 -2.188,0.433 C 35.312,69.18 34.82,68.445 34.82,67.633 V 41.926 L 22.082,53.074 c -0.836,0.731 -2.105,0.645 -2.836,-0.187 -0.73,-0.836 -0.644,-2.106 0.192,-2.836 L 33.781,37.5 19.438,24.949 c -0.836,-0.73 -0.922,-2 -0.192,-2.836 0.731,-0.832 2,-0.918 2.836,-0.187 L 34.82,33.074 V 7.367 c 0,-0.812 0.492,-1.547 1.242,-1.855 z M 38.84,41.926 V 62.785 L 49.961,51.66 Z m 0,-8.852 L 49.961,23.34 38.84,12.215 Z" style="fill:currentColor;fill-opacity:1;fill-rule:nonzero;stroke:none" transform="scale(1.3333333)" /> </g>
</svg>

