<?xml version="1.0" encoding="UTF-8" standalone="no"?> <svg version="1.1" id="I37d937c4cd0e4a2baf3c24e878856eaa20251106152728" width="100" height="100" viewBox="0 0 100 100" xmlns="http://www.w3.org/2000/svg" xmlns:svg="http://www.w3.org/2000/svg"> <defs id="I86005ce1cd0143348c06f3dfdef9f32920251106152728" /> <g id="I9bd703db8a474318bddfe83ba1f0da5620251106152728"> <path id="I5a117516d8704750a550674bb217721220251106152728" d="M 14.062,65.625 C 9.746,65.625 6.25,62.129 6.25,57.812 V 17.188 c 0,-4.317 3.496,-7.813 7.812,-7.813 h 3.126 c 4.316,0 7.812,3.496 7.812,7.813 v 40.624 c 0,4.317 -3.496,7.813 -7.812,7.813 z m 21.876,0 c -4.317,0 -7.813,-3.496 -7.813,-7.813 V 17.188 c 0,-4.317 3.496,-7.813 7.813,-7.813 h 3.124 c 4.317,0 7.813,3.496 7.813,7.813 v 40.624 c 0,4.317 -3.496,7.813 -7.813,7.813 z M 50,57.812 c 0,4.317 3.496,7.813 7.812,7.813 h 3.126 c 4.316,0 7.812,-3.496 7.812,-7.813 V 17.188 c 0,-4.317 -3.496,-7.813 -7.812,-7.813 H 57.812 C 53.496,9.375 50,12.871 50,17.188 Z" style="fill:currentColor;fill-opacity:1;fill-rule:nonzero;stroke:none" transform="scale(1.3333333)" /> </g>
</svg>

