<?xml version="1.0" encoding="UTF-8" standalone="no"?> <svg version="1.1" id="I2a580ba0fd664519ba050a14e8cb9c7720251110135155" width="100" height="100" viewBox="0 0 100 100" xmlns="http://www.w3.org/2000/svg" xmlns:svg="http://www.w3.org/2000/svg"> <defs id="Ice10af5820c04258a217b0856e5c660a20251110135155" /> <g id="I7d531b81d8d1430494572c3fd8fba52a20251110135155"> <path id="Ie3bdefedba314775986748e7f2ce0d0320251110135155" d="m 5.355,18.75 c 0,-1.48 1.2,-2.68 2.68,-2.68 h 58.922 c 1.477,0 2.676,1.2 2.676,2.68 0,1.48 -1.199,2.68 -2.676,2.68 H 8.035 c -1.48,0 -2.68,-1.2 -2.68,-2.68 z m 0,40.18 c 0,-1.481 1.2,-2.68 2.68,-2.68 h 29.692 c -0.918,2.57 0.98,5.355 3.793,5.355 H 8.035 c -1.48,0 -2.68,-1.199 -2.68,-2.675 z M 44.051,42.855 H 8.035 c -1.48,0 -2.68,1.2 -2.68,2.68 0,1.481 1.2,2.68 2.68,2.68 H 41.512 Z M 66.957,34.82 c 1.477,0 2.676,-1.199 2.676,-2.675 0,-1.481 -1.199,-2.68 -2.676,-2.68 H 8.035 c -1.48,0 -2.68,1.199 -2.68,2.68 0,1.476 1.2,2.675 2.68,2.675 z M 50.402,37.5 h 16.953 c 1.024,0 1.668,1.102 1.165,1.996 l -4.903,8.719 h 4.059 c 1.719,0 2.64,2.015 1.519,3.32 L 52.012,71.496 c -1.399,1.625 -4.016,0.141 -3.336,-1.894 L 52.234,58.93 H 41.52 c -0.985,0 -1.633,-1.024 -1.211,-1.914 l 8.882,-18.75 C 49.414,37.797 49.883,37.5 50.402,37.5 Z" style="fill:currentColor;fill-opacity:1;fill-rule:nonzero;stroke:none" transform="scale(1.3333333)" /> </g>
</svg>

