<?xml version="1.0" encoding="UTF-8" standalone="no"?> <svg version="1.1" id="I9a078f1444e04cb887347514d566d89220251110124421" width="100" height="100" viewBox="0 0 100 100" xmlns="http://www.w3.org/2000/svg" xmlns:svg="http://www.w3.org/2000/svg"> <defs id="I6555c93940184551a849c12510727a1320251110124421"> <linearGradient x1="15.75" y1="5.8333302" x2="3" y2="20" gradientUnits="userSpaceOnUse" gradientTransform="scale(2.678571)" spreadMethod="pad" id="Idaaa4adfe87c49f6a6172edafc0fff3e20251110124421"> <stop style="stop-opacity:1;stop-color:#fdfdfd" offset="0" id="I7e82e38158334e69a3abe150cc2c882f20251110124421" /> <stop style="stop-opacity:1;stop-color:#b3e0ff" offset="1" id="I92fd314747544821ad0bb79aad12a16a20251110124421" /> </linearGradient> <linearGradient x1="3.21053" y1="22.578899" x2="22.578899" y2="6.8421001" gradientUnits="userSpaceOnUse" gradientTransform="scale(2.678571)" spreadMethod="pad" id="Ia1efd0978e1043af9ccda11e669653c120251110124421"> <stop style="stop-opacity:1;stop-color:#0094f0" offset="0" id="I5f67689a2f0f4e35857459aee8137de620251110124421" /> <stop style="stop-opacity:1;stop-color:#29c3ff" offset="1" id="Ifcbb1295ed7f44fbb2b23c0e0693baaf20251110124421" /> </linearGradient> <radialGradient fx="0" fy="0" cx="0" cy="0" r="1" gradientUnits="userSpaceOnUse" gradientTransform="matrix(41.211662,82.222501,-64.024855,32.090615,23.169643,-39.040179)" spreadMethod="pad" id="Ie070cac1fa77465289627f034a7c29f220251110124421"> <stop style="stop-opacity:1;stop-color:#ffcd0f" offset="0" id="If32de0bdf68d4dcabe55777af7c0958020251110124421" /> <stop style="stop-opacity:1;stop-color:#ffcd0f" offset="0.718021" id="Ie38eb364f1274c4fa437457e6b8a3d5820251110124421" /> <stop style="stop-opacity:1;stop-color:#e67505" offset="0.990707" id="I859dc58c0555487ebe83eb4a07cd1b7d20251110124421" /> <stop style="stop-opacity:1;stop-color:#e67505" offset="1" id="I3a98d9ed531e461992f70531a1c0f8c120251110124421" /> </radialGradient> <radialGradient fx="0" fy="0" cx="0" cy="0" r="1" gradientUnits="userSpaceOnUse" gradientTransform="matrix(55.484662,100.92456,-78.587742,43.204691,-1.100127,-67.442411)" spreadMethod="pad" id="I323acfcacb97447bb7363ded19fc989620251110124421"> <stop style="stop-opacity:1;stop-color:#ffcd0f" offset="0" id="I880688e9f0ab402da710d94ed8e1e84a20251110124421" /> <stop style="stop-opacity:1;stop-color:#ffcd0f" offset="0.698225" id="Id06cf9568a9c4e16b7ec3b33d8fc8c4a20251110124421" /> <stop style="stop-opacity:1;stop-color:#e67505" offset="0.990707" id="Ib7468814d768471b939e37df8ab7365e20251110124421" /> <stop style="stop-opacity:1;stop-color:#e67505" offset="1" id="I8dbc50b139ad4709bbe90ddb630fb57b20251110124421" /> </radialGradient> </defs> <g id="Ie1b68bb3413c41fb81824c794aea4e2320251110124421"> <path id="I02a4e1d23047442dabd55765ec7836f020251110124421" d="M 53.57,30.805 C 53.57,43.379 43.379,53.57 30.805,53.57 18.23,53.57 8.035,43.379 8.035,30.805 8.035,18.23 18.23,8.035 30.805,8.035 43.379,8.035 53.57,18.23 53.57,30.805 Z" transform="scale(1.3333333)" style="fill:url(#Idaaa4adfe87c49f6a6172edafc0fff3e20251110124421);stroke:none" /> <path id="Id739f0b960104bedade6c1e42c5c8a3d20251110124421" d="m 46.805,50.59 c -4.371,3.539 -9.938,5.66 -16,5.66 -14.055,0 -25.45,-11.395 -25.45,-25.445 0,-14.055 11.395,-25.45 25.45,-25.45 14.05,0 25.445,11.395 25.445,25.45 0,6.062 -2.121,11.629 -5.66,16 l 15.59,15.586 c 1.047,1.047 1.047,2.742 0,3.789 -1.047,1.047 -2.742,1.047 -3.789,0 z m 4.09,-19.785 c 0,-11.098 -8.997,-20.09 -20.09,-20.09 -11.098,0 -20.09,8.992 -20.09,20.09 0,11.093 8.992,20.09 20.09,20.09 11.093,0 20.09,-8.997 20.09,-20.09 z" transform="scale(1.3333333)" style="fill:url(#Ia1efd0978e1043af9ccda11e669653c120251110124421);stroke:none" /> <path id="I30de94a65cca4ea6b6c368bd29e28fe120251110124421" d="M 66.266,28.543 63.805,27.742 C 63.059,27.496 62.379,27.074 61.82,26.52 61.266,25.961 60.844,25.281 60.594,24.535 L 59.797,22.078 C 59.73,21.887 59.605,21.723 59.441,21.605 59.277,21.492 59.082,21.43 58.879,21.43 c -0.199,0 -0.399,0.062 -0.563,0.175 -0.164,0.118 -0.285,0.282 -0.351,0.473 l -0.801,2.457 c -0.246,0.742 -0.656,1.418 -1.207,1.973 -0.547,0.558 -1.215,0.98 -1.957,1.234 l -2.457,0.801 c -0.191,0.066 -0.355,0.191 -0.473,0.355 -0.113,0.164 -0.175,0.36 -0.175,0.559 0,0.203 0.062,0.398 0.175,0.563 0.118,0.164 0.282,0.289 0.473,0.355 L 54,31.172 c 0.75,0.25 1.434,0.672 1.988,1.23 0.559,0.559 0.977,1.243 1.223,1.993 l 0.801,2.457 c 0.066,0.191 0.191,0.355 0.355,0.468 0.164,0.118 0.36,0.18 0.563,0.18 0.199,0 0.394,-0.062 0.558,-0.18 0.164,-0.113 0.289,-0.277 0.356,-0.468 l 0.801,-2.457 c 0.25,-0.75 0.667,-1.426 1.226,-1.985 0.559,-0.558 1.234,-0.976 1.984,-1.226 l 2.461,-0.797 c 0.188,-0.067 0.352,-0.192 0.469,-0.356 0.117,-0.164 0.18,-0.359 0.18,-0.562 0,-0.199 -0.063,-0.395 -0.18,-0.559 -0.117,-0.164 -0.281,-0.289 -0.469,-0.355 z" transform="scale(1.3333333)" style="fill:url(#Ie070cac1fa77465289627f034a7c29f220251110124421);stroke:none" /> <path id="I494c57f8e9f2451fbb22adfc5b7340d220251110124421" d="m 41.336,19.086 c -0.219,-0.281 -0.449,-0.543 -0.699,-0.797 -0.93,-0.93 -2.063,-1.633 -3.313,-2.047 L 33.223,14.91 c -0.317,-0.113 -0.59,-0.32 -0.782,-0.594 -0.195,-0.273 -0.296,-0.597 -0.296,-0.933 0,-0.336 0.101,-0.66 0.296,-0.934 0.192,-0.273 0.465,-0.48 0.782,-0.594 l 4.101,-1.332 c 1.231,-0.421 2.348,-1.128 3.262,-2.054 0.891,-0.903 1.562,-1.992 1.973,-3.192 L 42.594,5.176 43.926,1.078 C 44.039,0.766 44.246,0.492 44.52,0.297 44.793,0.105 45.117,0 45.453,0 c 0.336,0 0.664,0.105 0.938,0.297 0.273,0.195 0.48,0.469 0.589,0.781 l 1.332,4.098 c 0.415,1.246 1.114,2.379 2.043,3.308 0.93,0.926 2.063,1.625 3.309,2.039 l 4.102,1.332 0.082,0.02 c 0.316,0.113 0.59,0.32 0.785,0.594 0.191,0.273 0.297,0.597 0.297,0.933 0,0.336 -0.106,0.664 -0.297,0.938 -0.195,0.273 -0.469,0.476 -0.785,0.59 l -4.102,1.332 c -1.246,0.414 -2.379,1.113 -3.308,2.039 -0.93,0.929 -1.629,2.062 -2.043,3.308 l -1.333,4.098 c -0.011,0.031 -0.023,0.066 -0.039,0.098 -0.117,0.273 -0.308,0.511 -0.55,0.683 -0.274,0.196 -0.602,0.297 -0.938,0.297 -0.336,0 -0.66,-0.101 -0.933,-0.297 -0.274,-0.191 -0.481,-0.465 -0.594,-0.781 l -1.332,-4.098 c -0.301,-0.914 -0.754,-1.769 -1.34,-2.523 z" transform="scale(1.3333333)" style="fill:url(#I323acfcacb97447bb7363ded19fc989620251110124421);stroke:none" /> </g>
</svg>

