<?xml version="1.0" encoding="UTF-8" standalone="no"?> <svg version="1.1" id="I2425f9435e6d43ffa88137c9471bb39520251106170412" width="100" height="100" viewBox="0 0 100 100" xmlns="http://www.w3.org/2000/svg" xmlns:svg="http://www.w3.org/2000/svg"> <defs id="Ia1248294e1204d0198d539797c1cbc3b20251106170412" /> <g id="Iaf66ba8d7dac4f68a5c1958055fa689b20251106170412"> <path id="I170686bb3a294697968fc38c307578d220251106170412" d="m 19.531,9.375 c -5.609,0 -10.156,4.547 -10.156,10.156 v 35.938 c 0,5.609 4.547,10.156 10.156,10.156 h 35.938 c 5.609,0 10.156,-4.547 10.156,-10.156 V 19.531 c 0,-5.609 -4.547,-10.156 -10.156,-10.156 z m -5.469,10.156 c 0,-3.019 2.45,-5.469 5.469,-5.469 h 35.938 c 3.019,0 5.469,2.45 5.469,5.469 V 35.156 H 14.062 Z M 37.5,39.844 h 23.438 v 15.625 c 0,3.019 -2.45,5.469 -5.469,5.469 H 37.5 Z" style="fill:currentColor;fill-opacity:1;fill-rule:nonzero;stroke:none" transform="scale(1.3333333)" /> </g>
</svg>

