<?xml version="1.0" encoding="UTF-8" standalone="no"?> <svg version="1.1" id="If2d03dcee0b44b8d85d324b2598defb920251106154011" width="100" height="100" viewBox="0 0 100 100" xmlns="http://www.w3.org/2000/svg" xmlns:svg="http://www.w3.org/2000/svg"> <defs id="Id1615f0916de46a695f04da216b5be7920251106154011" /> <g id="I045d7be1c3624ceaac76fa3f57d398d520251106154011"> <path id="I3cadbc544b6c4e49bb29290aa954536f20251106154011" d="m 19.539,6.258 c -1.297,0 -2.344,1.047 -2.344,2.344 V 9.578 C 10.973,10.684 6.25,16.117 6.25,22.656 v 1.692 c 0,5.675 3.238,10.855 8.34,13.34 l 2.605,1.273 v 21.586 c -3.609,-1.016 -6.257,-4.332 -6.257,-8.274 v -3.062 c 0,-1.297 -1.051,-2.344 -2.344,-2.344 -1.293,0 -2.344,1.047 -2.344,2.344 v 3.062 c 0,6.543 4.727,11.973 10.945,13.079 v 1.046 c 0,1.293 1.047,2.344 2.344,2.344 1.293,0 2.344,-1.051 2.344,-2.344 v -1.05 c 6.215,-1.11 10.929,-6.543 10.929,-13.075 v -1.636 c 0,-5.676 -3.238,-10.856 -8.339,-13.344 l -2.59,-1.262 V 14.387 c 3.601,1.023 6.242,4.336 6.242,8.269 v 3.129 c 0,1.293 1.051,2.344 2.344,2.344 1.293,0 2.343,-1.051 2.343,-2.344 v -3.129 c 0,-6.535 -4.718,-11.965 -10.929,-13.074 v -0.98 c 0,-1.297 -1.051,-2.344 -2.344,-2.344 z m -8.601,16.398 c 0,-3.937 2.644,-7.254 6.257,-8.273 v 19.363 l -0.55,-0.269 C 13.152,31.773 10.938,28.23 10.938,24.348 Z M 21.883,60.543 V 41.246 l 0.535,0.262 c 3.492,1.703 5.707,5.246 5.707,9.129 v 1.636 c 0,3.93 -2.637,7.247 -6.242,8.27 z M 45.312,37.5 c 0,-0.527 0.012,-1.051 0.036,-1.566 l 5.429,0.004 c 1.293,0 2.344,-1.051 2.344,-2.344 0,-1.293 -1.047,-2.344 -2.344,-2.344 l -4.894,-0.004 c 0.769,-4.133 2.281,-7.781 4.273,-10.637 2.949,-4.234 6.797,-6.547 10.782,-6.547 1.457,0 3.039,0.426 4.179,1.176 1.082,0.711 2.535,0.41 3.246,-0.668 0.711,-1.082 0.414,-2.535 -0.668,-3.246 -2.011,-1.328 -4.519,-1.949 -6.757,-1.949 -5.942,0 -11.079,3.457 -14.629,8.555 -2.547,3.652 -4.36,8.238 -5.184,13.312 h -4.406 c -1.293,-0.004 -2.344,1.047 -2.344,2.34 0,1.297 1.047,2.344 2.344,2.348 h 3.937 c -0.019,0.519 -0.031,1.043 -0.031,1.57 0,0.523 0.012,1.043 0.031,1.562 h -3.937 c -1.293,0 -2.344,1.047 -2.344,2.344 0,1.293 1.051,2.344 2.344,2.344 h 4.406 c 0.824,5.078 2.637,9.664 5.184,13.32 3.55,5.094 8.687,8.555 14.629,8.555 2.171,0 4.742,-0.527 6.82,-1.973 1.062,-0.738 1.324,-2.199 0.586,-3.261 -0.742,-1.063 -2.203,-1.325 -3.266,-0.586 -1.07,0.746 -2.617,1.133 -4.14,1.133 -3.985,0 -7.833,-2.317 -10.782,-6.551 -1.992,-2.856 -3.504,-6.504 -4.273,-10.637 h 4.894 c 1.293,0 2.344,-1.051 2.344,-2.344 0,-1.297 -1.051,-2.344 -2.344,-2.344 H 45.348 C 45.324,38.547 45.312,38.023 45.312,37.5 Z" style="fill:currentColor;fill-opacity:1;fill-rule:nonzero;stroke:none" transform="scale(1.3333333)" /> </g>
</svg>

