<?xml version="1.0" encoding="UTF-8" standalone="no"?> <svg version="1.1" id="If209de0a56f6472da3c5ee262f88e58320251106161453" width="100" height="100" viewBox="0 0 100 100" xmlns="http://www.w3.org/2000/svg" xmlns:svg="http://www.w3.org/2000/svg"> <defs id="I2bdb3b9cdf254091a0eb9029d196199120251106161453" /> <g id="I57e80e624c01492994f744c74b6e740a20251106161453"> <path id="I051e7c9b618942a4b2522676ab222e7820251106161453" d="m 39.836,12.508 v 0.004 l 23.43,0.004 c 3.019,0 5.468,2.445 5.468,5.468 v 39.047 c 0,3.02 -2.449,5.469 -5.468,5.469 H 35.148 V 62.492 H 11.719 c -3.02,0 -5.469,-2.449 -5.469,-5.469 V 17.977 c 0,-3.024 2.449,-5.469 5.469,-5.469 z m 23.43,4.695 h -23.43 v 40.609 h 23.43 c 0.433,0 0.781,-0.351 0.781,-0.781 V 17.984 c 0,-0.433 -0.348,-0.781 -0.781,-0.781 z M 35.148,17.195 H 11.719 c -0.43,0 -0.781,0.348 -0.781,0.782 v 39.046 c 0,0.43 0.351,0.782 0.781,0.782 h 23.429 z m 16.414,4.684 c 1.192,0 2.172,0.879 2.329,2.019 l 0.023,0.317 -0.004,20.93 3.016,-2.997 c 0.832,-0.832 2.14,-0.906 3.058,-0.226 l 0.266,0.226 c 0.832,0.829 0.91,2.129 0.227,3.047 l -0.227,0.262 -7.027,6.988 -0.118,0.114 -0.195,0.152 -0.211,0.129 -0.187,0.094 -0.317,0.113 L 52,53.09 51.711,53.129 h -0.297 l -0.285,-0.035 -0.301,-0.078 -0.351,-0.149 -0.243,-0.144 -0.332,-0.278 -7.027,-6.988 c -0.918,-0.914 -0.918,-2.395 0,-3.309 0.836,-0.832 2.141,-0.906 3.063,-0.226 l 0.261,0.226 3.012,2.997 v -20.93 c 0,-1.074 0.73,-1.981 1.727,-2.254 l 0.304,-0.063 z" style="fill:currentColor;fill-opacity:1;fill-rule:nonzero;stroke:none" transform="scale(1.3333333)" /> </g>
</svg>

