<?xml version="1.0" encoding="UTF-8" standalone="no"?> <svg version="1.1" id="Ia4793aec550a434d9227ed1d2f6f1d5120251106144520" width="100" height="100" viewBox="0 0 100 100" xmlns="http://www.w3.org/2000/svg" xmlns:svg="http://www.w3.org/2000/svg"> <defs id="Ia6021b7c743a4c189dfaf4971b82d88020251106144520" /> <g id="Iaafe4568e4df4ecab5a6e9aab2ed732120251106144520"> <path id="I1056794c411242529feff425246755f920251106144520" d="M 7.5,26.25 C 7.5,13.824 17.574,3.75 30,3.75 c 12.426,0 22.5,10.074 22.5,22.5 0,12.426 -10.074,22.5 -22.5,22.5 -4.102,0 -7.949,-1.098 -11.266,-3.02 L 9.969,48.652 C 9.309,48.875 8.582,48.711 8.078,48.23 7.574,47.75 7.383,47.027 7.57,46.359 L 10.242,37.02 C 8.492,33.82 7.5,30.148 7.5,26.25 Z m 16.875,-5.625 c -1.035,0 -1.875,0.84 -1.875,1.875 0,1.035 0.84,1.875 1.875,1.875 h 11.25 c 1.035,0 1.875,-0.84 1.875,-1.875 0,-1.035 -0.84,-1.875 -1.875,-1.875 z m 7.5,7.5 h -7.5 c -1.035,0 -1.875,0.84 -1.875,1.875 0,1.035 0.84,1.875 1.875,1.875 h 7.5 c 1.035,0 1.875,-0.84 1.875,-1.875 0,-1.035 -0.84,-1.875 -1.875,-1.875 z" style="fill:currentColor;fill-opacity:1;fill-rule:nonzero;stroke:none" transform="scale(1.3333333)" /> <path id="I256978fe168d4e64888c60f871df5a9720251106144520" d="m 46.035,56.051 -9.008,-4.504 c 1.653,-0.457 3.235,-1.07 4.739,-1.824 L 46.875,52.277 63.75,43.84 V 41.25 C 63.75,39.18 62.07,37.5 60,37.5 h -6.277 c 0.574,-1.203 1.054,-2.457 1.441,-3.75 H 60 c 4.141,0 7.5,3.359 7.5,7.5 V 60 c 0,4.141 -3.359,7.5 -7.5,7.5 H 33.75 c -4.141,0 -7.5,-3.359 -7.5,-7.5 V 52.234 C 27.477,52.41 28.727,52.5 30,52.5 V 60 c 0,2.07 1.68,3.75 3.75,3.75 H 60 c 2.07,0 3.75,-1.68 3.75,-3.75 V 48.035 l -16.035,8.016 c -0.531,0.265 -1.153,0.265 -1.68,0 z" style="fill:currentColor;fill-opacity:1;fill-rule:nonzero;stroke:none" transform="scale(1.3333333)" /> </g>
</svg>

