<?xml version="1.0" encoding="UTF-8" standalone="no"?> <svg version="1.1" id="I07efba21a7394e5fad2180f361bfd6c020251106170956" width="100" height="100" viewBox="0 0 100 100" xmlns="http://www.w3.org/2000/svg" xmlns:svg="http://www.w3.org/2000/svg"> <defs id="Ib8b5c8b6b75b4ed0a95ac57b6bfb53d420251106170956" /> <g id="Ieb2e06986dd34bc2865cf8ad523fbbba20251106170956"> <path id="Ied763d986a3c47dba7bfad113d62ef1920251106170956" d="M 10.25,6.938 C 9.336,6.02 7.852,6.02 6.938,6.938 6.02,7.852 6.02,9.336 6.938,10.25 l 14.078,14.082 -9.739,2.895 C 8.297,28.113 6.25,30.855 6.25,33.965 v 7.07 c 0,3.11 2.047,5.852 5.027,6.738 l 7.469,2.223 0.004,1.563 0.016,0.625 c 0.324,6.613 5.789,11.875 12.484,11.875 4.871,0 9.18,-2.809 11.234,-7.012 l 16.008,4.762 6.258,6.253 c 0.914,0.918 2.398,0.918 3.312,0 0.915,-0.914 0.915,-2.398 0,-3.312 z m 13.184,44.453 14.453,4.297 c -1.391,2.234 -3.871,3.683 -6.637,3.683 -4.316,0 -7.812,-3.496 -7.812,-7.812 z m 45.316,4.043 c 0,0.992 -0.207,1.937 -0.578,2.796 L 31.238,21.293 59.715,12.832 c 3.723,-1.105 7.637,1.016 8.742,4.738 0.195,0.649 0.293,1.325 0.293,2 z" style="fill:currentColor;fill-opacity:1;fill-rule:nonzero;stroke:none" transform="scale(1.3333333)" /> </g>
</svg>

