<?xml version="1.0" encoding="UTF-8" standalone="no"?> <svg version="1.1" id="I1cbd21f79c04437c9834835b26732a7b20251110133655" width="100" height="100" viewBox="0 0 100 100" xmlns="http://www.w3.org/2000/svg" xmlns:svg="http://www.w3.org/2000/svg"> <defs id="I66ae1069797d45c08318aa3daafb60d920251110133655" /> <g id="Ifbf0ca4203b44cd6bf5788871c88ca5220251110133655"> <path id="Iad75b47f3e8a4ec095a7119f9c0b64a820251110133655" d="m 61.719,9.375 c 3.722,0 6.765,2.891 7.015,6.551 l 0.016,0.48 v 32.821 c 0,3.718 -2.891,6.765 -6.551,7.015 l -0.48,0.016 H 48.438 v 7.804 h 5.472 c 1.293,0 2.344,1.051 2.344,2.344 0,1.188 -0.883,2.168 -2.027,2.324 L 53.91,68.75 H 21.098 c -1.297,0 -2.344,-1.047 -2.344,-2.344 0,-1.183 0.883,-2.164 2.023,-2.32 l 0.321,-0.024 h 5.464 V 56.258 H 13.285 c -3.723,0 -6.769,-2.891 -7.015,-6.551 L 6.254,49.227 V 16.406 c 0,-3.722 2.891,-6.769 6.551,-7.015 l 0.48,-0.016 z M 43.746,56.258 h -12.5 l 0.004,7.804 h 12.5 z M 61.719,14.062 H 13.285 c -1.187,0 -2.168,0.883 -2.324,2.028 l -0.02,0.316 v 32.821 c 0,1.187 0.883,2.168 2.024,2.32 l 0.32,0.023 h 48.434 c 1.187,0 2.168,-0.882 2.32,-2.027 l 0.023,-0.316 V 16.406 c 0,-1.187 -0.882,-2.168 -2.027,-2.324 z m -3.895,4.688 c 0.77,0 1.406,0.555 1.539,1.281 l 0.024,0.281 V 45.32 c 0,0.766 -0.551,1.407 -1.282,1.539 l -0.281,0.024 H 29.688 c -0.77,0 -1.407,-0.555 -1.54,-1.281 L 28.125,45.32 V 20.312 c 0,-0.765 0.551,-1.406 1.281,-1.539 l 0.282,-0.023 z m -34.39,0 c 0.769,0 1.406,0.555 1.539,1.281 l 0.023,0.281 V 45.32 c 0,0.766 -0.551,1.407 -1.281,1.539 l -0.281,0.024 h -6.25 c -0.766,0 -1.403,-0.555 -1.536,-1.281 L 15.621,45.32 V 20.312 c 0,-0.765 0.555,-1.406 1.281,-1.539 l 0.282,-0.023 z" style="fill:currentColor;fill-opacity:1;fill-rule:nonzero;stroke:none" transform="scale(1.3333333)" /> </g>
</svg>

