<?xml version="1.0" encoding="UTF-8" standalone="no"?> <svg version="1.1" id="I06cdf68ef87a42ccb2dca932c27debed20251106165302" width="100" height="100" viewBox="0 0 100 100" xmlns="http://www.w3.org/2000/svg" xmlns:svg="http://www.w3.org/2000/svg"> <defs id="Ib468ee0715734f5d81f2a88de9b4e91420251106165302" /> <g id="I9bfd3b85aa35414d95f11889724208dd20251106165302"> <path id="I08c7149f1e4b4c2f8441faa9d0fecb4720251106165302" d="m 22.5,11.25 c -6.215,0 -11.25,5.035 -11.25,11.25 v 11.25 h 12.348 l 9.261,-9.262 c 2.563,-2.562 6.719,-2.562 9.282,0 l 9.261,9.262 H 63.75 V 22.5 C 63.75,16.285 58.715,11.25 52.5,11.25 Z M 63.75,37.5 v 15 c 0,5.391 -3.793,9.895 -8.855,10.996 L 42.141,50.738 c -2.563,-2.562 -6.719,-2.562 -9.282,0 L 20.105,63.496 C 15.043,62.395 11.25,57.891 11.25,52.5 v -15 z M 25.152,63.75 H 49.848 L 39.488,53.391 c -1.097,-1.098 -2.879,-1.098 -3.976,0 z m 3.75,-30 h 17.196 l -6.61,-6.609 c -1.097,-1.098 -2.879,-1.098 -3.976,0 z M 58.125,20.625 c 0,2.07 -1.68,3.75 -3.75,3.75 -2.07,0 -3.75,-1.68 -3.75,-3.75 0,-2.07 1.68,-3.75 3.75,-3.75 2.07,0 3.75,1.68 3.75,3.75 z m -3.75,30 c 2.07,0 3.75,-1.68 3.75,-3.75 0,-2.07 -1.68,-3.75 -3.75,-3.75 -2.07,0 -3.75,1.68 -3.75,3.75 0,2.07 1.68,3.75 3.75,3.75 z" style="fill:currentColor;fill-opacity:1;fill-rule:nonzero;stroke:none" transform="scale(1.3333333)" /> </g>
</svg>

