<?xml version="1.0" encoding="UTF-8" standalone="no"?> <svg version="1.1" id="Id9d0e29a592c4cf18ce57d5e0e4a87cf20251106143238" width="100" height="100" viewBox="0 0 100 100" xmlns="http://www.w3.org/2000/svg" xmlns:svg="http://www.w3.org/2000/svg"> <defs id="I1882a20da9614d03988978dfe37c82fd20251106143238" /> <g id="I3b98f3ec390846d8991252e64dcc90a020251106143238"> <path id="I1e4ed4f18e894039bd55632ef6e864cf20251106143238" d="m 66.965,25.445 v 32.813 c 0,4.808 -3.899,8.707 -8.707,8.707 H 16.742 c -4.808,0 -8.707,-3.899 -8.707,-8.707 V 25.445 Z M 23.414,46.879 c -1.848,0 -3.348,1.5 -3.348,3.348 0,1.851 1.5,3.347 3.348,3.347 1.848,0 3.348,-1.496 3.348,-3.347 0,-1.848 -1.5,-3.348 -3.348,-3.348 z m 14.074,0 c -1.847,0 -3.347,1.5 -3.347,3.348 0,1.851 1.5,3.347 3.347,3.347 1.848,0 3.348,-1.496 3.348,-3.347 0,-1.848 -1.5,-3.348 -3.348,-3.348 z M 23.414,33.484 c -1.848,0 -3.348,1.5 -3.348,3.352 0,1.848 1.5,3.348 3.348,3.348 1.848,0 3.348,-1.5 3.348,-3.348 0,-1.852 -1.5,-3.352 -3.348,-3.352 z m 14.074,0 c -1.847,0 -3.347,1.5 -3.347,3.352 0,1.848 1.5,3.348 3.347,3.348 1.848,0 3.348,-1.5 3.348,-3.348 0,-1.852 -1.5,-3.352 -3.348,-3.352 z m 14.074,0 c -1.847,0 -3.347,1.5 -3.347,3.352 0,1.848 1.5,3.348 3.347,3.348 1.852,0 3.348,-1.5 3.348,-3.348 0,-1.852 -1.496,-3.352 -3.348,-3.352 z M 58.258,8.035 c 4.808,0 8.707,3.899 8.707,8.707 V 21.43 H 8.035 v -4.688 c 0,-4.808 3.899,-8.707 8.707,-8.707 z" style="fill:currentColor;fill-opacity:1;fill-rule:nonzero;stroke:none" transform="scale(1.3333333)" /> </g>
</svg>

