<?xml version="1.0" encoding="UTF-8" standalone="no"?> <svg version="1.1" id="Ia1d0d738f3d3447b98b5fc86b10671df20251106142135" width="100" height="100" viewBox="0 0 100 100" xmlns="http://www.w3.org/2000/svg" xmlns:svg="http://www.w3.org/2000/svg"> <defs id="I3f2794232d05497894154af36a2963da20251106142135" /> <g id="Ia8ab637489cb4ce4a4062dcd0d0d9c6920251106142135"> <path id="I207bb10243534ea48da983ca20ecba5720251106142135" d="m 6.25,18.016 c 0,-5.996 6.48,-9.758 11.688,-6.782 l 10.937,6.25 c 0.559,0.321 1.066,0.7 1.52,1.133 1.082,-0.894 2.468,-1.429 3.98,-1.429 h 6.25 c 1.512,0 2.898,0.535 3.98,1.429 0.454,-0.433 0.961,-0.812 1.52,-1.133 l 10.937,-6.25 C 62.27,8.258 68.75,12.02 68.75,18.016 v 18.597 c 0,5.989 -6.461,9.75 -11.668,6.797 L 46.145,37.203 c -0.95,-0.539 -1.758,-1.258 -2.391,-2.101 -0.922,0.531 -1.988,0.836 -3.129,0.836 h -6.25 c -1.141,0 -2.207,-0.305 -3.129,-0.836 -0.633,0.843 -1.441,1.562 -2.391,2.101 L 17.918,43.41 C 12.711,46.363 6.25,42.602 6.25,36.613 Z M 25,25 c -1.293,0 -2.344,1.051 -2.344,2.344 0,1.293 1.051,2.344 2.344,2.344 h 5.469 V 25 Z m 27.344,2.344 C 52.344,26.051 51.293,25 50,25 h -5.469 v 4.688 H 50 c 1.293,0 2.344,-1.051 2.344,-2.344 z M 30.395,39.922 c 0.593,-0.336 1.144,-0.723 1.652,-1.149 0.859,0.219 1.547,0.938 1.547,1.825 v 19.558 c 0,3.02 -2.449,5.469 -5.469,5.469 H 20.59 c -3.656,0 -6.281,-3.516 -5.242,-7.023 l 3.617,-12.211 c 0.164,-0.082 0.332,-0.172 0.492,-0.266 z m 12.554,-1.149 c -0.855,0.219 -1.543,0.938 -1.543,1.825 v 19.558 c 0,3.02 2.449,5.469 5.469,5.469 h 7.535 c 3.652,0 6.281,-3.516 5.242,-7.023 L 56.035,46.391 C 55.867,46.309 55.703,46.219 55.539,46.125 L 44.602,39.922 c -0.59,-0.336 -1.141,-0.723 -1.653,-1.149 z" style="fill:currentColor;fill-opacity:1;fill-rule:nonzero;stroke:none" transform="scale(1.3333333)" /> </g>
</svg>

