<?xml version="1.0" encoding="UTF-8" standalone="no"?> <svg version="1.1" id="I79bf444a4c9a4495adde6e5172b45bbe20251110124420" width="100" height="100" viewBox="0 0 100 100" xmlns="http://www.w3.org/2000/svg" xmlns:svg="http://www.w3.org/2000/svg"> <defs id="I6e0f692bfca54f3384cde0e0b76b48e220251110124420" /> <g id="I7cda3bf5c9ec4a669dc001ddecc3e64220251110124420"> <path id="I1333d0e28d724e788f7defec5849b7cc20251110124420" d="m 19.531,9.375 c -5.609,0 -10.156,4.547 -10.156,10.156 v 35.938 c 0,5.609 4.547,10.156 10.156,10.156 h 18.035 c -0.925,-1.449 -1.671,-3.02 -2.211,-4.687 H 19.531 c -3.019,0 -5.469,-2.45 -5.469,-5.469 V 19.531 c 0,-3.019 2.45,-5.469 5.469,-5.469 h 35.938 c 3.019,0 5.469,2.45 5.469,5.469 v 15.824 c 1.667,0.54 3.238,1.286 4.687,2.211 V 19.531 C 65.625,13.922 61.078,9.375 55.469,9.375 Z M 25,23.438 c -0.863,0 -1.562,0.699 -1.562,1.562 v 7.031 c 0,1.293 -1.051,2.344 -2.344,2.344 -1.293,0 -2.344,-1.051 -2.344,-2.344 V 25 c 0,-3.453 2.797,-6.25 6.25,-6.25 h 7.031 c 1.293,0 2.344,1.051 2.344,2.344 0,1.293 -1.051,2.344 -2.344,2.344 z m 0,28.124 c -0.863,0 -1.562,-0.699 -1.562,-1.562 v -7.031 c 0,-1.293 -1.051,-2.344 -2.344,-2.344 -1.293,0 -2.344,1.051 -2.344,2.344 V 50 c 0,3.453 2.797,6.25 6.25,6.25 h 7.031 c 1.293,0 2.344,-1.051 2.344,-2.344 0,-1.293 -1.051,-2.344 -2.344,-2.344 z M 51.562,25 c 0,-0.863 -0.699,-1.562 -1.562,-1.562 h -7.031 c -1.293,0 -2.344,-1.051 -2.344,-2.344 0,-1.293 1.051,-2.344 2.344,-2.344 H 50 c 3.453,0 6.25,2.797 6.25,6.25 v 7.031 c 0,1.293 -1.051,2.344 -2.344,2.344 -1.293,0 -2.344,-1.051 -2.344,-2.344 z m 3.126,17.188 c 6.902,0 12.5,5.597 12.5,12.5 0,6.902 -5.598,12.5 -12.5,12.5 -6.903,0 -12.5,-5.598 -12.5,-12.5 0,-6.903 5.597,-12.5 12.5,-12.5 z m 0,29.687 c 9.492,0 17.187,-7.695 17.187,-17.187 C 71.875,45.195 64.18,37.5 54.688,37.5 45.195,37.5 37.5,45.195 37.5,54.688 c 0,9.492 7.695,17.187 17.188,17.187 z M 62.5,54.688 c 0,4.316 -3.496,7.812 -7.812,7.812 -4.317,0 -7.813,-3.496 -7.813,-7.812 0,-4.317 3.496,-7.813 7.813,-7.813 4.316,0 7.812,3.496 7.812,7.813 z" style="fill:currentColor;fill-opacity:1;fill-rule:nonzero;stroke:none" transform="scale(1.3333333)" /> </g>
</svg>

