<?xml version="1.0" encoding="UTF-8" standalone="no"?> <svg version="1.1" id="Ia87a598167014929aa8227b93ecb45a420251106170412" width="100" height="100" viewBox="0 0 100 100" xmlns="http://www.w3.org/2000/svg" xmlns:svg="http://www.w3.org/2000/svg"> <defs id="I3d9f6c1e22494259bc0f302de020340420251106170412" /> <g id="I6be0161c6bd347369166bae7cff8914520251106170412"> <path id="Ie1f9ff16b5624d118d92d72d9f88df9d20251106170412" d="m 28.906,15.625 c 1.293,0 2.344,1.051 2.344,2.344 0,1.176 -0.867,2.152 -1.996,2.316 l -0.348,0.027 h -7.031 c -6.039,0 -10.937,4.899 -10.937,10.938 0,5.824 4.554,10.586 10.292,10.918 l 0.645,0.02 h 7.031 c 1.293,0 2.344,1.05 2.344,2.343 0,1.176 -0.867,2.153 -1.996,2.321 l -0.348,0.023 H 21.875 C 13.246,46.875 6.25,39.879 6.25,31.25 c 0,-8.367 6.578,-15.199 14.844,-15.605 l 0.781,-0.02 z m 24.219,0 c 8.629,0 15.625,6.996 15.625,15.625 0,2.617 -0.645,5.086 -1.781,7.254 -1.246,-0.942 -2.602,-1.75 -4.043,-2.391 0.726,-1.465 1.136,-3.117 1.136,-4.863 0,-5.824 -4.554,-10.586 -10.292,-10.918 l -0.645,-0.02 h -7.031 c -1.293,0 -2.344,-1.05 -2.344,-2.343 0,-1.176 0.867,-2.153 1.996,-2.317 l 0.348,-0.027 z m -31.25,13.281 h 31.25 c 1.293,0 2.344,1.051 2.344,2.344 0,1.188 -0.883,2.168 -2.028,2.324 l -0.316,0.02 h -31.25 c -1.293,0 -2.344,-1.051 -2.344,-2.344 0,-1.188 0.883,-2.168 2.028,-2.324 z m 22.746,14.766 c 0.981,3.41 -1.062,6.949 -4.504,7.801 l -1.828,0.453 c -0.141,0.898 -0.211,1.82 -0.211,2.762 0,0.984 0.078,1.949 0.231,2.886 l 1.687,0.406 c 3.477,0.836 5.543,4.415 4.531,7.844 l -0.582,1.973 c 1.371,1.207 2.938,2.183 4.637,2.879 l 1.543,-1.621 c 2.465,-2.59 6.594,-2.59 9.059,0.004 l 1.558,1.64 c 1.699,-0.691 3.262,-1.66 4.633,-2.855 l -0.617,-2.141 c -0.985,-3.41 1.062,-6.949 4.504,-7.801 l 1.824,-0.453 c 0.141,-0.898 0.211,-1.82 0.211,-2.761 0,-0.985 -0.078,-1.95 -0.231,-2.887 L 69.383,51.395 C 65.906,50.559 63.836,46.98 64.852,43.551 l 0.578,-1.973 c -1.371,-1.203 -2.934,-2.183 -4.637,-2.879 l -1.539,1.621 c -2.465,2.59 -6.598,2.59 -9.063,-0.004 l -1.558,-1.64 c -1.699,0.691 -3.258,1.66 -4.633,2.855 z m 10.067,15.703 c -2.5,0 -4.532,-2.098 -4.532,-4.687 0,-2.59 2.032,-4.688 4.532,-4.688 2.503,0 4.531,2.098 4.531,4.688 0,2.589 -2.028,4.687 -4.531,4.687 z" style="fill:currentColor;fill-opacity:1;fill-rule:nonzero;stroke:none" transform="scale(1.3333333)" /> </g>
</svg>

