<?xml version="1.0" encoding="UTF-8" standalone="no"?> <svg version="1.1" id="I2a79f96cebdd42cda7e4f7f8285a922920251106151526" width="100" height="100" viewBox="0 0 100 100" xmlns="http://www.w3.org/2000/svg" xmlns:svg="http://www.w3.org/2000/svg"> <defs id="I6e1e829dba244021990f7f9f9686f97d20251106151526" /> <g id="I0f4c8a7b6887441e9f7a852a9d7aa05920251106151526"> <path id="Ic18461f308d74ef79f8fb554e2ab80d720251106151526" d="M 8.785,5.945 C 8.004,5.16 6.73,5.16 5.945,5.945 5.16,6.73 5.16,8.004 5.945,8.785 l 14.844,14.844 c -0.922,1.812 -1.562,3.789 -1.855,5.879 -7.598,0.59 -13.579,6.941 -13.579,14.687 0,8.137 6.598,14.735 14.735,14.735 h 34.82 c 0.383,0 0.758,-0.016 1.133,-0.043 l 10.168,10.168 c 0.785,0.785 2.059,0.785 2.844,0 0.785,-0.785 0.785,-2.055 0,-2.84 z m 17.133,11.45 38.258,38.257 c 3.336,-2.699 5.469,-6.828 5.469,-11.457 0,-7.746 -5.981,-14.097 -13.579,-14.687 -1.281,-9.11 -9.105,-16.113 -18.566,-16.113 -4.371,0 -8.395,1.492 -11.582,4 z" style="fill:currentColor;fill-opacity:1;fill-rule:nonzero;stroke:none" transform="scale(1.3333333)" /> </g>
</svg>

