<?xml version="1.0" encoding="UTF-8" standalone="no"?> <svg version="1.1" id="I1f13e10401d345a2bbd9c3c6285bfce720251110135155" width="100" height="100" viewBox="0 0 100 100" xmlns="http://www.w3.org/2000/svg" xmlns:svg="http://www.w3.org/2000/svg"> <defs id="I33079cadcf92426097ca8b95c6d2513320251110135155" /> <g id="I4ebe1b4c176f495bb981f063c90ecd4820251110135155"> <path id="Ic4da8f46845c4c09af5df2b58c3b392620251110135155" d="m 55.469,50 c 1.293,0 2.343,1.051 2.343,2.344 0,1.293 -1.05,2.344 -2.343,2.344 H 27.344 C 26.051,54.688 25,53.637 25,52.344 25,51.051 26.051,50 27.344,50 Z M 8.5,28.812 c 0.832,-0.832 2.133,-0.91 3.051,-0.226 l 0.261,0.226 6.25,6.25 c 0.833,0.833 0.911,2.133 0.227,3.051 l -0.227,0.262 -6.25,6.25 c -0.914,0.918 -2.398,0.918 -3.312,0 C 7.668,43.793 7.59,42.492 8.273,41.574 L 8.5,41.312 13.09,36.719 8.5,32.125 c -0.918,-0.914 -0.918,-2.398 0,-3.313 z m 56.344,5.563 c 1.293,0 2.344,1.051 2.344,2.344 0,1.293 -1.051,2.343 -2.344,2.343 h -37.5 c -1.293,0 -2.344,-1.05 -2.344,-2.343 0,-1.293 1.051,-2.344 2.344,-2.344 z M 55.469,18.75 c 1.293,0 2.343,1.051 2.343,2.344 0,1.293 -1.05,2.344 -2.343,2.344 H 27.344 C 26.051,23.438 25,22.387 25,21.094 25,19.801 26.051,18.75 27.344,18.75 Z" style="fill:currentColor;fill-opacity:1;fill-rule:nonzero;stroke:none" transform="scale(1.3333333)" /> </g>
</svg>

