<?xml version="1.0" encoding="UTF-8" standalone="no"?> <svg version="1.1" id="Icc1ce7610ebb4de193c719d227e955fe20251110130509" width="100" height="100" viewBox="0 0 100 100" xmlns="http://www.w3.org/2000/svg" xmlns:svg="http://www.w3.org/2000/svg"> <defs id="Ic4ccc3a2789c4c47a4bc81894e64018420251110130509" /> <g id="I63ef50832c394d69b1717e00b06c8d3520251110130509"> <path id="Ic83347cecfe748eb97c85887eb3dc10420251110130509" d="m 37.5,12.891 c -4.207,0 -7.617,3.41 -7.617,7.617 v 22.859 l -0.735,0.832 c -1.734,1.965 -2.781,4.539 -2.781,7.363 0,6.149 4.985,11.133 11.133,11.133 6.148,0 11.133,-4.984 11.133,-11.133 0,-2.824 -1.047,-5.398 -2.781,-7.363 L 45.117,43.367 V 20.508 c 0,-4.207 -3.41,-7.617 -7.617,-7.617 z m -13.477,7.617 c 0,-7.442 6.036,-13.477 13.477,-13.477 7.441,0 13.477,6.035 13.477,13.477 v 20.703 c 2.203,2.867 3.515,6.457 3.515,10.351 0,9.383 -7.609,16.993 -16.992,16.993 -9.383,0 -16.992,-7.61 -16.992,-16.993 0,-3.894 1.312,-7.484 3.515,-10.351 z m 10.547,8.203 c 0,-1.617 1.313,-2.93 2.93,-2.93 1.617,0 2.93,1.313 2.93,2.93 v 16.457 c 2.422,1.113 4.101,3.559 4.101,6.394 0,3.883 -3.148,7.032 -7.031,7.032 -3.883,0 -7.031,-3.149 -7.031,-7.032 0,-2.835 1.679,-5.281 4.101,-6.394 z" style="fill:currentColor;fill-opacity:1;fill-rule:nonzero;stroke:none" transform="scale(1.3333333)" /> </g>
</svg>

