<?xml version="1.0" encoding="UTF-8" standalone="no"?> <svg version="1.1" id="I5bef656678fe406f88d7ce424eb3dc9920251106161453" width="100" height="100" viewBox="0 0 100 100" xmlns="http://www.w3.org/2000/svg" xmlns:svg="http://www.w3.org/2000/svg"> <defs id="I8bf95683b25c4483bd34b6b4b59fec7a20251106161453" /> <g id="I13259d4bd6b642caaabcb4ce9a02bbf620251106161453"> <path id="Ib05b0479e960408ba98489e5d9dd9dba20251106161453" d="M 34.375,20.316 C 34.375,11.352 41.238,3.988 50,3.199 V 21.23 l -5.145,-5.144 c -0.609,-0.609 -1.601,-0.609 -2.21,0 -0.61,0.609 -0.61,1.598 0,2.211 l 7.812,7.812 c 0.609,0.61 1.602,0.61 2.211,0 l 7.812,-7.812 c 0.61,-0.613 0.61,-1.602 0,-2.211 -0.609,-0.609 -1.601,-0.609 -2.21,0 L 53.125,21.23 V 3.199 c 8.762,0.789 15.625,8.153 15.625,17.117 0,9.493 -7.695,17.188 -17.188,17.188 -9.492,0 -17.187,-7.695 -17.187,-17.188 z m 26.563,9.375 c 0,-0.863 -0.7,-1.562 -1.563,-1.562 H 43.75 c -0.863,0 -1.562,0.699 -1.562,1.562 0,0.864 0.699,1.563 1.562,1.563 h 15.625 c 0.863,0 1.563,-0.699 1.563,-1.563 z M 19.531,12.504 h 13.278 c -0.621,1.48 -1.067,3.051 -1.321,4.687 H 19.531 c -3.019,0 -5.469,2.45 -5.469,5.469 v 2.344 h 17.731 c 0.391,1.648 0.98,3.219 1.746,4.687 H 14.062 v 14.063 h 14.243 c 1.195,0 2.164,0.969 2.164,2.164 v 0.18 c 0,3.882 3.148,7.031 7.031,7.031 3.883,0 7.031,-3.149 7.031,-7.031 v -0.18 c 0,-1.195 0.969,-2.164 2.164,-2.164 H 60.938 V 38.34 c 1.722,-0.899 3.3,-2.035 4.687,-3.367 v 23.625 c 0,5.609 -4.547,10.156 -10.156,10.156 H 19.531 C 13.922,68.754 9.375,64.207 9.375,58.598 V 22.66 c 0,-5.609 4.547,-10.156 10.156,-10.156 z" style="fill:currentColor;fill-opacity:1;fill-rule:nonzero;stroke:none" transform="scale(1.3333333)" /> </g>
</svg>

