<?xml version="1.0" encoding="UTF-8" standalone="no"?> <svg version="1.1" id="Ib81d2dc4c49042ca9fc61792bd41703220251110123030" width="100" height="100" viewBox="0 0 100 100" xmlns="http://www.w3.org/2000/svg" xmlns:svg="http://www.w3.org/2000/svg"> <defs id="I91804650a425412b8a89053e98b6d0e020251110123030"> <linearGradient x1="9.7072897" y1="19.5952" x2="13.5843" y2="31.976601" gradientUnits="userSpaceOnUse" gradientTransform="scale(2.34375)" spreadMethod="pad" id="Ife2ef3c3b75c44e2b86b242c5c7ab61520251110123030"> <stop style="stop-opacity:1;stop-color:#9c6cfe" offset="0" id="Ib9311d8cd3b6477f8628744acae4411320251110123030" /> <stop style="stop-opacity:1;stop-color:#9c6cfe" offset="0.125321" id="If55ab849d69f4588942632f479ce685d20251110123030" /> <stop style="stop-opacity:1;stop-color:#7a41dc" offset="1" id="I01efbaa15f44454e89994cda9eeab85920251110123030" /> </linearGradient> <linearGradient x1="16" y1="16.5714" x2="21.4286" y2="36.857201" gradientUnits="userSpaceOnUse" gradientTransform="scale(2.34375)" spreadMethod="pad" id="Ib7e68d72ae934331b740f14e754793d820251110123030"> <stop style="stop-opacity:0;stop-color:#885edb" offset="0" id="Ib1be4734e4144d489097642b2653ce6620251110123030" /> <stop style="stop-opacity:1;stop-color:#e362f8" offset="1" id="I330055cf305d48fca939acddc18bf03020251110123030" /> </linearGradient> <radialGradient fx="0" fy="0" cx="0" cy="0" r="1" gradientUnits="userSpaceOnUse" gradientTransform="matrix(0,35.15625,-35.15625,0,56.25,53.90625)" spreadMethod="pad" id="Ia324392fc9b34537a032ab0e1115213820251110123030"> <stop style="stop-opacity:0.50000763;stop-color:#30116e" offset="0" id="I15861cb8aba84f14bda05ef4b98e817120251110123030" /> <stop style="stop-opacity:0.50000763;stop-color:#30116e" offset="0.492647" id="I372f918e64e74195a7f92c9fdef723ad20251110123030" /> <stop style="stop-opacity:0;stop-color:#30116e" offset="0.911765" id="I683f1dd53ed1460088d8082e15e9065720251110123030" /> <stop style="stop-opacity:0;stop-color:#30116e" offset="1" id="I50e6f2c216d44a37b4d1663f4ae0661520251110123030" /> </radialGradient> <linearGradient x1="12.3293" y1="3.8611" x2="19.4641" y2="15.2539" gradientUnits="userSpaceOnUse" gradientTransform="scale(2.34375)" spreadMethod="pad" id="If5fc1a99bfe543a7878601427c958e6120251110123030"> <stop style="stop-opacity:1;stop-color:#9c6cfe" offset="0" id="Ib4ad903a19754ab8b3b11b054b8a9a4c20251110123030" /> <stop style="stop-opacity:1;stop-color:#9c6cfe" offset="0.125321" id="I16b7ffdad10e40e7938424029738c34520251110123030" /> <stop style="stop-opacity:1;stop-color:#7a41dc" offset="1" id="I40ff1bdc42d04d5cb83790f6a91805e720251110123030" /> </linearGradient> <linearGradient x1="16.5357" y1="18.8125" x2="26.887501" y2="29.5676" gradientUnits="userSpaceOnUse" gradientTransform="scale(2.34375)" spreadMethod="pad" id="I05ef300ca801405ba7662eb4399d6a7a20251110123030"> <stop style="stop-opacity:1;stop-color:#52d17c" offset="0" id="I9750270c0ce642baa225ba586d8fc15520251110123030" /> <stop style="stop-opacity:1;stop-color:#22918b" offset="1" id="I35d23a196d744311a70b6332eae856e420251110123030" /> </linearGradient> </defs> <g id="I22521779f77b4c189f4047c3ddac1cb720251110123030"> <path id="Ie34970fc3a324ec2898c6a803dfd250120251110123030" d="m 17.578,42.188 c -4.531,0 -8.203,3.671 -8.203,8.203 v 1.171 c 0,5.61 3.57,10.352 8.637,13.579 5.093,3.242 11.992,5.171 19.488,5.171 7.496,0 14.391,-1.929 19.488,-5.171 5.067,-3.223 8.637,-7.969 8.637,-13.579 v -1.171 c 0,-4.532 -3.672,-8.203 -8.203,-8.203 z" transform="scale(1.3333333)" style="fill:url(#Ife2ef3c3b75c44e2b86b242c5c7ab61520251110123030);stroke:none" /> <path d="m 17.578,42.188 c -4.531,0 -8.203,3.671 -8.203,8.203 v 1.171 c 0,5.61 3.57,10.352 8.637,13.579 5.093,3.242 11.992,5.171 19.488,5.171 7.496,0 14.391,-1.929 19.488,-5.171 5.067,-3.223 8.637,-7.969 8.637,-13.579 v -1.171 c 0,-4.532 -3.672,-8.203 -8.203,-8.203 z" transform="scale(1.3333333)" style="fill:url(#Ib7e68d72ae934331b740f14e754793d820251110123030);stroke:none" opacity="1" id="I81ee42753f41468887d5b69b57ebea0320251110123030" /> <path d="m 17.578,42.188 c -4.531,0 -8.203,3.671 -8.203,8.203 v 1.171 c 0,5.61 3.57,10.352 8.637,13.579 5.093,3.242 11.992,5.171 19.488,5.171 7.496,0 14.391,-1.929 19.488,-5.171 5.067,-3.223 8.637,-7.969 8.637,-13.579 v -1.171 c 0,-4.532 -3.672,-8.203 -8.203,-8.203 z" transform="scale(1.3333333)" style="fill:url(#Ia324392fc9b34537a032ab0e1115213820251110123030);stroke:none" opacity="1" id="Ib02cb51013bf46bc8b3a5bcc77b1a7b520251110123030" /> <path id="Ic05a71c7197a45d2beabd22c148f53c020251110123030" d="m 37.5,37.5 c 9.062,0 16.406,-7.344 16.406,-16.406 0,-9.063 -7.344,-16.406 -16.406,-16.406 -9.062,0 -16.406,7.343 -16.406,16.406 0,9.062 7.344,16.406 16.406,16.406 z" style="fill:#212121;fill-opacity:1;fill-rule:nonzero;stroke:none" transform="scale(1.3333333)" /> <path id="I21bb1d80f8824863b163312ffd5d159b20251110123030" d="m 37.5,37.5 c 9.062,0 16.406,-7.344 16.406,-16.406 0,-9.063 -7.344,-16.406 -16.406,-16.406 -9.062,0 -16.406,7.343 -16.406,16.406 0,9.062 7.344,16.406 16.406,16.406 z" transform="scale(1.3333333)" style="fill:url(#If5fc1a99bfe543a7878601427c958e6120251110123030);stroke:none" /> <path id="Icb36a2528dcb46c080c5b7e2446d5e0520251110123030" d="m 72.656,55.078 c 0,9.707 -7.871,17.578 -17.578,17.578 -9.707,0 -17.578,-7.871 -17.578,-17.578 0,-9.707 7.871,-17.578 17.578,-17.578 9.707,0 17.578,7.871 17.578,17.578 z" transform="scale(1.3333333)" style="fill:url(#I05ef300ca801405ba7662eb4399d6a7a20251110123030);fill-rule:evenodd;stroke:none" /> <path id="Id6606213f14e4c23bd20829284028a1f20251110123030" d="m 55.664,42.188 c 0.973,0 1.758,0.785 1.758,1.757 v 8.789 h 8.789 c 0.973,0 1.758,0.786 1.758,1.758 0,0.973 -0.785,1.758 -1.758,1.758 h -8.789 v 8.789 c 0,0.973 -0.785,1.758 -1.758,1.758 -0.973,0 -1.758,-0.785 -1.758,-1.758 V 56.25 h -8.789 c -0.972,0 -1.758,-0.785 -1.758,-1.758 0,-0.972 0.786,-1.758 1.758,-1.758 h 8.789 v -8.789 c 0,-0.972 0.785,-1.757 1.758,-1.757 z" style="fill:#ffffff;fill-opacity:1;fill-rule:evenodd;stroke:none" transform="scale(1.3333333)" /> </g>
</svg>

