<?xml version="1.0" encoding="UTF-8" standalone="no"?> <svg version="1.1" id="Ifb77df9a3a4a47529b3915221ebb2bd920251106151526" width="100" height="100" viewBox="0 0 100 100" xmlns="http://www.w3.org/2000/svg" xmlns:svg="http://www.w3.org/2000/svg"> <defs id="I894bfda3a1854a0b80d6dc101c03753320251106151526" /> <g id="Ia2227b1cfb264bc5adcb113755d6374220251106151526"> <path id="Id097c78ed5fa4941b615f72889b6998e20251106151526" d="M 55.078,9.375 H 51.164 C 50.199,6.645 47.594,4.688 44.531,4.688 H 30.469 c -3.063,0 -5.664,1.957 -6.633,4.687 h -3.914 c -4.531,0 -8.203,3.672 -8.203,8.203 v 44.531 c 0,4.532 3.672,8.203 8.203,8.203 h 35.156 c 4.531,0 8.203,-3.671 8.203,-8.203 V 17.578 c 0,-4.531 -3.672,-8.203 -8.203,-8.203 z m -24.609,0 h 14.062 c 1.293,0 2.344,1.051 2.344,2.344 0,1.293 -1.051,2.343 -2.344,2.343 H 30.469 c -1.293,0 -2.344,-1.05 -2.344,-2.343 0,-1.293 1.051,-2.344 2.344,-2.344 z m -5.86,18.75 c 1.942,0 3.516,1.574 3.516,3.516 v 21.093 c 0,1.942 -1.574,3.516 -3.516,3.516 -1.941,0 -3.515,-1.574 -3.515,-3.516 V 31.641 c 0,-1.942 1.574,-3.516 3.515,-3.516 z m 9.375,8.203 c 0,-1.941 1.575,-3.516 3.516,-3.516 1.941,0 3.516,1.575 3.516,3.516 v 16.406 c 0,1.942 -1.575,3.516 -3.516,3.516 -1.941,0 -3.516,-1.574 -3.516,-3.516 z m 16.407,5.86 c 1.941,0 3.515,1.574 3.515,3.515 v 7.031 c 0,1.942 -1.574,3.516 -3.515,3.516 -1.942,0 -3.516,-1.574 -3.516,-3.516 v -7.031 c 0,-1.941 1.574,-3.515 3.516,-3.515 z" style="fill:currentColor;fill-opacity:1;fill-rule:nonzero;stroke:none" transform="scale(1.3333333)" /> </g>
</svg>

