<?xml version="1.0" encoding="UTF-8" standalone="no"?> <svg version="1.1" id="I660fcaa859a0464680d5bed624f2bad420251106132945" width="100" height="100" viewBox="0 0 100 100" xmlns="http://www.w3.org/2000/svg" xmlns:svg="http://www.w3.org/2000/svg"> <defs id="Ifd26f3befca94fa38ee59e86286bf02e20251106132945" /> <g id="If7e2c0435e784ef7b2a08ce88da57afd20251106132945"> <path id="Ieb4adce1501f4645941e175d801c4f4f20251106132945" d="m 62.59,15.457 c 1.199,-0.477 1.785,-1.844 1.305,-3.043 -0.477,-1.203 -1.844,-1.789 -3.043,-1.309 l -49.301,19.68 c -3.246,1.297 -3.289,5.875 -0.067,7.231 l 45.715,19.207 -12.074,5.488 c -1.18,0.535 -1.699,1.926 -1.164,3.101 0.535,1.18 1.926,1.704 3.101,1.165 L 64.25,59.164 c 1.152,-0.523 1.684,-1.867 1.195,-3.035 l -7.812,-18.75 c -0.496,-1.191 -1.871,-1.758 -3.067,-1.262 -1.191,0.5 -1.757,1.871 -1.261,3.067 L 59.023,52.902 15.059,34.43 Z" style="fill:currentColor;fill-opacity:1;fill-rule:nonzero;stroke:none" transform="scale(1.3333333)" /> </g>
</svg>

