<?xml version="1.0" encoding="UTF-8" standalone="no"?> <svg version="1.1" id="Iae74e1dd81ec4506838e9662d4cc617e20251106123559" width="100" height="100" viewBox="0 0 100 100" xmlns="http://www.w3.org/2000/svg" xmlns:svg="http://www.w3.org/2000/svg"> <defs id="Ib5e532cae0f442049e41532aae3a78ba20251106123559" /> <g id="I58100cfd918245e5b315a246ce4145af20251106123559"> <path id="I765e3081e1b34fab9f2191ec19914dea20251106123559" d="m 34.363,18.742 c 8.199,0 15.457,5.203 18.125,12.895 l 0.239,0.726 0.132,0.453 h 7.286 c 4.57,0 8.304,3.567 8.574,8.067 l 0.015,0.523 v 3.125 c 0,2.867 -2.207,5.219 -5.019,5.446 l -0.445,0.019 -5.082,-0.004 0.753,1.828 c 1.09,2.645 -0.046,5.649 -2.543,6.938 l -0.425,0.199 c -0.496,0.203 -1.02,0.332 -1.551,0.387 l -0.535,0.023 h -5.582 c -1.953,0 -3.746,-1.039 -4.723,-2.707 l -0.223,-0.43 -1.683,-3.57 0.168,-0.023 c -4.375,0.582 -8.805,0.652 -13.192,0.207 l -1.554,-0.18 -1.672,3.555 c -0.899,1.914 -2.828,3.136 -4.946,3.136 h -5.636 c -0.715,0 -1.422,-0.14 -2.082,-0.41 C 9.969,57.797 8.637,54.602 9.785,51.809 l 1.356,-3.282 c -2.942,-1.777 -4.907,-5 -4.907,-8.683 0,-1.188 0.883,-2.168 2.024,-2.324 l 0.32,-0.02 5.875,-0.004 1.555,-5.129 c 2.449,-8.09 9.902,-13.625 18.355,-13.625 z m 21.18,30.293 c -2.41,0.969 -4.871,1.766 -7.363,2.391 l -1.715,0.402 1.133,2.406 c 0.078,0.164 0.207,0.293 0.363,0.371 l 0.168,0.059 0.176,0.02 h 5.582 c 0.101,0 0.203,-0.02 0.297,-0.059 0.332,-0.137 0.519,-0.477 0.48,-0.816 l -0.055,-0.204 -1.492,-3.613 -0.137,0.004 1.286,-0.465 z m -42.348,0 1.219,0.477 1.211,0.437 -1.504,3.645 c -0.164,0.398 0.024,0.855 0.422,1.019 0.098,0.039 0.195,0.059 0.301,0.059 h 5.636 l 0.18,-0.02 c 0.227,-0.054 0.426,-0.211 0.528,-0.429 l 1.124,-2.387 0.137,0.031 c -3.14,-0.676 -6.238,-1.617 -9.254,-2.832 z m -0.633,-5.297 0.473,-1.558 -1.582,0.004 0.074,0.164 c 0.27,0.519 0.621,0.988 1.035,1.39 z m 41.719,-6.238 2.364,7.805 6.625,0.004 c 0.367,0 0.679,-0.254 0.757,-0.602 l 0.024,-0.176 v -3.125 c 0,-2.019 -1.539,-3.683 -3.508,-3.883 l -0.398,-0.019 z" style="fill:currentColor;fill-opacity:1;fill-rule:nonzero;stroke:none" transform="scale(1.3333333)" /> </g>
</svg>

