<?xml version="1.0" encoding="UTF-8" standalone="no"?> <svg version="1.1" id="I5a257fa09ab04d9ead4656a8613097be20251106170955" width="100" height="100" viewBox="0 0 100 100" xmlns="http://www.w3.org/2000/svg" xmlns:svg="http://www.w3.org/2000/svg"> <defs id="Ifec81a8193a3423e88c20efd6db6de7120251106170955" /> <g id="I77c57c453b2f43cfa7380ea0565e4f4520251106170955"> <path id="I9945f2954d4c49da9fb47b9df5638a9920251106170955" d="m 28.129,8.516 c 0.082,-1.289 1.199,-2.27 2.492,-2.184 18.727,1.23 33.695,16.203 34.922,34.934 0.086,1.289 -0.895,2.406 -2.184,2.492 C 62.066,43.84 60.949,42.863 60.867,41.57 59.793,25.188 46.691,12.086 30.312,11.008 29.02,10.926 28.043,9.809 28.129,8.516 Z m -4.418,58.316 1.215,1.207 c 0.914,0.906 2.39,0.906 3.304,-0.004 l 4.204,-4.176 c 2.273,-2.261 4.898,-4.871 6.289,-6.261 6.707,-6.707 6.707,-17.582 0,-24.289 -6.707,-6.707 -17.582,-6.707 -24.293,0 -6.707,6.707 -6.707,17.582 0,24.289 1.515,1.515 4.14,4.125 6.382,6.355 1.126,1.117 2.153,2.137 2.899,2.879 z m 2.851,-17.613 c -2.156,0 -3.906,-1.75 -3.906,-3.907 0,-2.156 1.75,-3.906 3.906,-3.906 2.157,0 3.907,1.75 3.907,3.906 0,2.157 -1.75,3.907 -3.907,3.907 z m 4.122,-32.024 c -1.289,-0.117 -2.43,0.836 -2.547,2.125 -0.117,1.289 0.836,2.426 2.125,2.543 10.461,0.946 18.8,9.282 19.746,19.742 0.117,1.29 1.258,2.239 2.547,2.122 1.289,-0.118 2.238,-1.254 2.125,-2.543 C 53.527,28.465 43.402,18.344 30.684,17.195 Z" style="fill:currentColor;fill-opacity:1;fill-rule:nonzero;stroke:none" transform="scale(1.3333333)" /> </g>
</svg>

