<?xml version="1.0" encoding="UTF-8" standalone="no"?> <svg version="1.1" id="I38cbe1f9455c41cd9d8a610ea71eb15b20251110133655" width="100" height="100" viewBox="0 0 100 100" xmlns="http://www.w3.org/2000/svg" xmlns:svg="http://www.w3.org/2000/svg"> <defs id="Ib33b53f03d8c49afa4c6c77932a8dd5e20251110133655" /> <g id="I1cd69afddf0c4f8d91d59c6570feb95820251110133655"> <path id="Iebaefb0b337541ff87886540eec8cff920251110133655" d="m 38.086,5.859 c 1.617,0 2.93,1.313 2.93,2.93 v 9.828 l 6.265,-6.265 c 1.145,-1.145 3,-1.145 4.145,0 1.144,1.144 1.144,3 0,4.144 l -10.41,10.41 v 8.25 h 8.25 l 10.41,-10.41 c 1.144,-1.144 3,-1.144 4.144,0 1.145,1.145 1.145,3 0,4.145 l -6.265,6.265 h 9.828 c 1.617,0 2.929,1.313 2.929,2.93 0,1.617 -1.312,2.93 -2.929,2.93 h -9.828 l 6.265,6.265 c 1.145,1.145 1.145,3 0,4.145 -1.144,1.144 -3,1.144 -4.144,0 l -10.41,-10.41 h -8.25 v 8.25 l 10.41,10.41 c 1.144,1.144 1.144,3 0,4.144 -1.145,1.145 -3,1.145 -4.145,0 l -6.265,-6.265 v 9.828 c 0,1.617 -1.313,2.929 -2.93,2.929 -1.617,0 -2.93,-1.312 -2.93,-2.929 v -9.828 l -6.265,6.265 c -1.145,1.145 -3,1.145 -4.145,0 -1.144,-1.144 -1.144,-3 0,-4.144 l 10.41,-10.41 v -8.25 h -8.25 l -10.41,10.41 c -1.144,1.144 -3,1.144 -4.144,0 -1.145,-1.145 -1.145,-3 0,-4.145 l 6.265,-6.265 H 8.789 c -1.617,0 -2.93,-1.313 -2.93,-2.93 0,-1.617 1.313,-2.93 2.93,-2.93 h 9.828 l -6.265,-6.265 c -1.145,-1.145 -1.145,-3 0,-4.145 1.144,-1.144 3,-1.144 4.144,0 l 10.41,10.41 h 8.25 v -8.25 l -10.41,-10.41 c -1.144,-1.144 -1.144,-3 0,-4.144 1.145,-1.145 3,-1.145 4.145,0 l 6.265,6.265 V 8.789 c 0,-1.617 1.313,-2.93 2.93,-2.93 z" style="fill:currentColor;fill-opacity:1;fill-rule:nonzero;stroke:none" transform="scale(1.3333333)" /> </g>
</svg>

