<?xml version="1.0" encoding="UTF-8" standalone="no"?> <svg version="1.1" id="Id3b3f89d81034b3c9283b3663a59797520251106170412" width="100" height="100" viewBox="0 0 100 100" xmlns="http://www.w3.org/2000/svg" xmlns:svg="http://www.w3.org/2000/svg"> <defs id="I83fcfeb83d2b45da8123e97ca4d854c220251106170412" /> <g id="I7ad5f21bbbca4b5b99d89a8dfbb0e38b20251106170412"> <path id="I2737e51d45194689a500a32f97a349c920251106170412" d="m 9.375,19.531 c 0,-5.609 4.547,-10.156 10.156,-10.156 h 35.938 c 5.609,0 10.156,4.547 10.156,10.156 v 35.938 c 0,5.609 -4.547,10.156 -10.156,10.156 H 19.531 c -5.609,0 -10.156,-4.547 -10.156,-10.156 z m 10.156,-5.469 c -3.019,0 -5.469,2.45 -5.469,5.469 v 7.031 h 46.876 v -7.031 c 0,-3.019 -2.45,-5.469 -5.469,-5.469 z M 14.062,43.75 H 60.938 V 31.25 H 14.062 Z m 0,4.688 v 7.031 c 0,3.019 2.45,5.469 5.469,5.469 h 35.938 c 3.019,0 5.469,-2.45 5.469,-5.469 v -7.031 z" style="fill:currentColor;fill-opacity:1;fill-rule:nonzero;stroke:none" transform="scale(1.3333333)" /> </g>
</svg>

