<?xml version="1.0" encoding="UTF-8" standalone="no"?> <svg version="1.1" id="Id7ef3084c9e141bbaa00ea9235cce47220251106152729" width="100" height="100" viewBox="0 0 100 100" xmlns="http://www.w3.org/2000/svg" xmlns:svg="http://www.w3.org/2000/svg"> <defs id="I590f52d7ca44432d8321b6cdb66f92b420251106152729" /> <g id="Ib84fd75e379b4c8da2336a4854c5657520251106152729"> <path id="Ib218618156ed48e8a6dfca7cb8034e1520251106152729" d="m 32.625,9.305 c 3.129,-1.254 6.621,-1.254 9.75,0 l 21.59,8.633 c 2.137,0.855 3.535,2.925 3.535,5.222 v 21.969 c -0.613,-0.086 -1.238,-0.133 -1.875,-0.133 h -15 c -7.25,0 -13.125,5.879 -13.125,13.125 0,3.102 1.074,5.949 2.867,8.191 -2.566,0.579 -5.265,0.372 -7.742,-0.621 L 11.035,57.055 C 8.898,56.203 7.5,54.133 7.5,51.832 V 23.16 c 0,-2.297 1.398,-4.367 3.535,-5.222 z M 21.387,22.66 c -0.946,-0.422 -2.055,0.004 -2.477,0.949 -0.418,0.95 0.008,2.055 0.953,2.477 l 15.762,7.004 v 17.531 c 0,1.035 0.84,1.875 1.875,1.875 1.035,0 1.875,-0.84 1.875,-1.875 V 33.09 l 15.762,-7.004 c 0.945,-0.422 1.371,-1.527 0.953,-2.477 -0.422,-0.945 -1.531,-1.371 -2.477,-0.949 L 37.5,29.82 Z m 29.238,26.086 c -5.176,0 -9.375,4.199 -9.375,9.375 0,5.18 4.199,9.375 9.375,9.375 H 52.5 c 1.035,0 1.875,-0.84 1.875,-1.875 0,-1.035 -0.84,-1.875 -1.875,-1.875 H 50.625 C 47.52,63.746 45,61.23 45,58.121 c 0,-3.105 2.52,-5.625 5.625,-5.625 H 52.5 c 1.035,0 1.875,-0.84 1.875,-1.875 0,-1.035 -0.84,-1.875 -1.875,-1.875 z m 13.125,0 c -1.035,0 -1.875,0.84 -1.875,1.875 0,1.035 0.84,1.875 1.875,1.875 h 1.875 c 3.105,0 5.625,2.52 5.625,5.625 0,3.109 -2.52,5.625 -5.625,5.625 H 63.75 c -1.035,0 -1.875,0.84 -1.875,1.875 0,1.035 0.84,1.875 1.875,1.875 h 1.875 c 5.176,0 9.375,-4.195 9.375,-9.375 0,-5.176 -4.199,-9.375 -9.375,-9.375 z m -15,9.375 c 0,-1.035 0.84,-1.875 1.875,-1.875 h 15 c 1.035,0 1.875,0.84 1.875,1.875 0,1.035 -0.84,1.875 -1.875,1.875 h -15 c -1.035,0 -1.875,-0.84 -1.875,-1.875 z" style="fill:currentColor;fill-opacity:1;fill-rule:nonzero;stroke:none" transform="scale(1.3333333)" /> </g>
</svg>

