<?xml version="1.0" encoding="UTF-8" standalone="no"?> <svg version="1.1" id="I55f6928bee634c59b7dce0fa324fe93020251110133655" width="100" height="100" viewBox="0 0 100 100" xmlns="http://www.w3.org/2000/svg" xmlns:svg="http://www.w3.org/2000/svg"> <defs id="Ib313da6981b54aafae5e0ce4111fc73a20251110133655" /> <g id="I8575096b145c45f795a4a3557ef5e7ab20251110133655"> <path id="Icb2436cc34c54a3da05a5600e6d9c7ab20251110133655" d="m 39.375,15 c 5.176,0 9.375,4.199 9.375,9.375 v 26.25 c 0,4.535 -3.223,8.32 -7.5,9.187 V 46.875 c 0,-7.25 -5.875,-13.125 -13.125,-13.125 h -15 c -2.012,0 -3.922,0.453 -5.625,1.262 V 24.375 C 7.5,19.199 11.699,15 16.875,15 Z M 52.5,45.305 V 29.742 L 62.883,21.066 C 64.715,19.535 67.5,20.84 67.5,23.223 v 28.754 c 0,2.398 -2.809,3.695 -4.633,2.144 z m -48.75,1.57 c 0,-5.176 4.199,-9.375 9.375,-9.375 h 15 c 5.176,0 9.375,4.199 9.375,9.375 v 15 c 0,5.176 -4.199,9.375 -9.375,9.375 h -15 C 7.949,71.25 3.75,67.051 3.75,61.875 Z m 15.074,0.129 c -0.293,-0.199 -0.617,-0.301 -0.972,-0.301 -0.247,0 -0.481,0.055 -0.704,0.16 -0.222,0.098 -0.418,0.235 -0.582,0.407 -0.168,0.171 -0.3,0.375 -0.402,0.605 -0.094,0.23 -0.141,0.477 -0.141,0.734 v 11.532 c 0,0.25 0.047,0.492 0.141,0.722 0.102,0.235 0.234,0.438 0.402,0.617 0.172,0.172 0.368,0.309 0.59,0.418 0.223,0.098 0.453,0.149 0.696,0.149 0.183,0 0.355,-0.027 0.515,-0.082 0.164,-0.051 0.328,-0.133 0.488,-0.238 l 8.61,-5.872 c 0.262,-0.171 0.465,-0.406 0.609,-0.695 0.149,-0.293 0.219,-0.598 0.219,-0.914 0,-0.332 -0.074,-0.637 -0.227,-0.914 -0.152,-0.285 -0.363,-0.512 -0.628,-0.684 z" style="fill:currentColor;fill-opacity:1;fill-rule:nonzero;stroke:none" transform="scale(1.3333333)" /> </g>
</svg>

