<?xml version="1.0" encoding="UTF-8" standalone="no"?> <svg version="1.1" id="I007db7e134e1463d81115128da82befb20251110135155" width="100" height="100" viewBox="0 0 100 100" xmlns="http://www.w3.org/2000/svg" xmlns:svg="http://www.w3.org/2000/svg"> <defs id="Ibee33adf83be4b449d6190f930e4170820251110135155" /> <g id="Ie6c39b594c1e4d3caafa330dcfa04fcf20251110135155"> <path id="I5e9eef8ccf8f4528bb8c423e4d58d9d120251110135155" d="m 64.062,22.699 c -0.601,0.543 -1.238,1.043 -1.898,1.481 -1.078,0.718 -2.531,0.429 -3.25,-0.649 -0.719,-1.078 -0.426,-2.531 0.648,-3.25 2.391,-1.593 4.157,-4.129 4.551,-5.937 0.254,-1.149 1.305,-1.914 2.442,-1.84 1.226,0.078 2.195,1.098 2.195,2.34 v 20.312 c 0,1.293 -1.051,2.344 -2.344,2.344 -1.293,0 -2.344,-1.051 -2.344,-2.344 z M 38.195,55.488 C 37.715,54.965 37.5,54.305 37.5,53.582 V 24.719 c 0,-0.77 0.23,-1.465 0.738,-2.016 l 0.012,-0.012 c 0.527,-0.546 1.199,-0.816 1.961,-0.816 0.758,0 1.43,0.27 1.945,0.824 0.524,0.547 0.766,1.246 0.766,2.02 v 8.879 c 0.57,-0.598 1.223,-1.114 1.953,-1.543 h 0.004 c 1.43,-0.828 3.023,-1.239 4.762,-1.239 3.136,0 5.714,1.184 7.656,3.547 1.937,2.348 2.863,5.434 2.863,9.168 0,3.754 -0.926,6.844 -2.863,9.196 -1.945,2.347 -4.547,3.523 -7.723,3.523 -1.781,0 -3.398,-0.406 -4.828,-1.234 l -0.004,-0.004 c -0.746,-0.438 -1.414,-0.969 -1.996,-1.586 v 0.156 c 0,0.734 -0.246,1.391 -0.762,1.906 -0.515,0.516 -1.172,0.762 -1.906,0.762 -0.723,0 -1.375,-0.23 -1.875,-0.75 z m 14.844,-6.176 c 1.043,-1.359 1.609,-3.257 1.609,-5.781 0,-2.504 -0.566,-4.394 -1.613,-5.758 -1.023,-1.332 -2.402,-2 -4.215,-2 -1.722,0 -3.113,0.676 -4.226,2.079 -1.106,1.394 -1.692,3.265 -1.692,5.679 0,2.434 0.586,4.309 1.692,5.703 1.113,1.387 2.504,2.059 4.226,2.059 1.813,0 3.192,-0.66 4.219,-1.981 z M 6.25,53.707 c 0,0.734 0.293,1.367 0.84,1.855 l 0.027,0.02 c 0.563,0.461 1.246,0.668 1.996,0.668 0.637,0 1.223,-0.168 1.719,-0.543 0.492,-0.371 0.828,-0.898 1.051,-1.512 l 2.75,-7.468 h 12.121 l 2.769,7.468 v 0.004 c 0.223,0.613 0.559,1.137 1.051,1.508 0.496,0.375 1.082,0.543 1.719,0.543 0.75,0 1.434,-0.207 1.988,-0.676 0.567,-0.484 0.875,-1.121 0.875,-1.867 0,-0.434 -0.121,-0.906 -0.304,-1.395 L 24.094,24.293 c -0.289,-0.742 -0.707,-1.359 -1.293,-1.785 -0.59,-0.434 -1.289,-0.633 -2.051,-0.633 -0.793,0 -1.52,0.195 -2.129,0.629 -0.609,0.434 -1.043,1.058 -1.332,1.816 L 6.555,52.312 C 6.371,52.801 6.25,53.273 6.25,53.707 Z M 20.703,29.945 25,41.75 h -8.594 z" style="fill:currentColor;fill-opacity:1;fill-rule:nonzero;stroke:none" transform="scale(1.3333333)" /> </g>
</svg>

