<?xml version="1.0" encoding="UTF-8" standalone="no"?> <svg version="1.1" id="I9fffb3bda1004f0586ec780344eeb76d20251106123559" width="100" height="100" viewBox="0 0 100 100" xmlns="http://www.w3.org/2000/svg" xmlns:svg="http://www.w3.org/2000/svg"> <defs id="I6daa76c293334f2897b258ecbbd3ca0020251106123559" /> <g id="I38f5e60d8b674437b819a9cdf5a5410820251106123559"> <path id="I316cc00a53a44e4b8d990bcdf10a852f20251106123559" d="m 34.586,43.344 -4.637,13.465 c 0.887,-0.348 1.848,-0.559 2.86,-0.559 0.757,0 1.476,0.145 2.171,0.344 l 2.516,-7.309 3.926,11.395 c 0.777,-1.606 2.078,-2.903 3.691,-3.668 L 40.406,43.34 c -0.953,-2.762 -4.871,-2.774 -5.824,0 z M 65.035,16.758 c -1.543,-3.563 -5.68,-5.219 -9.254,-3.703 l -8.984,3.816 c 0.051,-0.406 0.078,-0.824 0.078,-1.246 0,-5.18 -4.195,-9.375 -9.375,-9.375 -5.176,0 -9.375,4.195 -9.375,9.375 0,0.422 0.031,0.836 0.082,1.246 l -8.988,-3.816 c -3.571,-1.516 -7.711,0.14 -9.25,3.703 -1.547,3.57 0.105,7.707 3.687,9.23 l 11.356,4.817 v 11.566 l -5.871,17.055 c -1.266,3.672 0.687,7.672 4.359,8.937 1.016,0.348 2.051,0.43 3.051,0.321 -0.957,-1.297 -1.547,-2.887 -1.547,-4.622 0,-0.046 0.012,-0.089 0.012,-0.132 -1.219,-0.426 -1.864,-1.754 -1.446,-2.977 l 5.914,-17.18 c 0.141,-0.406 0.215,-0.835 0.215,-1.269 V 30.289 c 0,-1.57 -0.937,-2.984 -2.383,-3.598 L 15.488,21.668 c -1.191,-0.504 -1.734,-1.867 -1.222,-3.051 0.519,-1.199 1.922,-1.762 3.125,-1.25 l 15.531,6.594 c 0.5,0.215 1.008,0.391 1.523,0.527 0.961,0.332 1.985,0.508 3.055,0.508 1.074,0 2.098,-0.176 3.055,-0.508 0.515,-0.14 1.023,-0.316 1.523,-0.527 l 15.535,-6.594 c 1.203,-0.512 2.606,0.047 3.121,1.246 0.516,1.184 -0.031,2.551 -1.218,3.051 L 47.703,26.68 c -1.445,0.613 -2.383,2.031 -2.383,3.597 v 12.262 c 0,0.438 0.071,0.863 0.211,1.273 l 4.332,12.575 c 3.231,0.601 5.746,3.183 6.262,6.445 0.184,-1.109 0.133,-2.273 -0.262,-3.41 L 50.008,42.414 V 30.797 l 11.336,-4.813 c 3.586,-1.523 5.238,-5.656 3.691,-9.226 z m -25.879,3.25 c -1.09,0.265 -2.23,0.265 -3.32,0 -1.77,-0.672 -3.024,-2.379 -3.024,-4.383 0,-2.586 2.098,-4.687 4.688,-4.687 2.586,0 4.688,2.101 4.688,4.687 0,2.004 -1.258,3.715 -3.028,4.383 z M 37.5,64.062 c 0,2.586 -2.102,4.688 -4.688,4.688 -2.589,0 -4.687,-2.102 -4.687,-4.688 0,-2.585 2.098,-4.687 4.687,-4.687 2.586,0 4.688,2.102 4.688,4.687 z m 10.938,4.688 c 2.585,0 4.687,-2.102 4.687,-4.688 0,-2.585 -2.102,-4.687 -4.687,-4.687 -2.59,0 -4.688,2.102 -4.688,4.687 0,2.586 2.098,4.688 4.688,4.688 z m 15.624,0 c 2.586,0 4.688,-2.102 4.688,-4.688 0,-2.585 -2.102,-4.687 -4.688,-4.687 -2.589,0 -4.687,2.102 -4.687,4.687 0,2.586 2.098,4.688 4.687,4.688 z" style="fill:currentColor;fill-opacity:1;fill-rule:nonzero;stroke:none" transform="scale(1.3333333)" /> </g>
</svg>

