<?xml version="1.0" encoding="UTF-8" standalone="no"?> <svg version="1.1" id="Idc92901ed0064735a23a760ee5fc627220251110130508" width="100" height="100" viewBox="0 0 100 100" xmlns="http://www.w3.org/2000/svg" xmlns:svg="http://www.w3.org/2000/svg"> <defs id="I9cb6863ac8d14c4885ed78a68fb57d7c20251110130508" /> <g id="I7610f5b7cad64a0facc46519c5c49d5a20251110130508"> <path id="I39b7ac28d9224232a635c03a91bc6b0520251110130508" d="m 60.551,8.051 c 0.73,-0.735 1.918,-0.735 2.648,0 L 74.41,19.258 c 0.363,0.34 0.59,0.828 0.59,1.367 0,0.539 -0.227,1.027 -0.59,1.367 L 63.199,33.199 c -0.73,0.735 -1.918,0.735 -2.648,0 -0.735,-0.73 -0.735,-1.918 0,-2.648 L 68.598,22.5 H 50.625 C 43.5,22.5 37.5,28.5 37.5,35.625 v 3.75 C 37.5,48.75 30,56.25 20.625,56.25 H 9.375 C 8.25,56.25 7.5,55.5 7.5,54.375 7.5,53.25 8.25,52.5 9.375,52.5 h 11.25 c 7.125,0 13.125,-6 13.125,-13.125 v -3.75 c 0,-9.375 7.5,-16.875 16.875,-16.875 h 17.973 l -8.047,-8.051 c -0.735,-0.73 -0.735,-1.918 0,-2.648 z M 9.375,45 h 9.375 c 4.125,0 7.5,-3.375 7.5,-7.5 v -3.75 c 0,-12.375 10.125,-22.5 22.5,-22.5 h 1.875 C 51.75,11.25 52.5,10.5 52.5,9.375 52.5,8.25 51.75,7.5 50.625,7.5 H 48.75 C 34.125,7.5 22.5,19.125 22.5,33.75 v 3.75 c 0,2.25 -1.5,3.75 -3.75,3.75 H 9.375 C 8.25,41.25 7.5,42 7.5,43.125 7.5,44.25 8.25,45 9.375,45 Z M 56.625,30 H 52.5 C 48.375,30 45,33.375 45,37.5 v 3.75 c 0,12.375 -10.125,22.5 -22.5,22.5 h -1.875 c -1.125,0 -1.875,0.75 -1.875,1.875 0,1.125 0.75,1.875 1.875,1.875 H 22.5 c 14.625,0 26.25,-11.625 26.25,-26.25 V 37.5 c 0,-2.25 1.5,-3.75 3.75,-3.75 h 4.125 c -0.375,-1.125 -0.375,-2.625 0,-3.75 z" style="fill:currentColor;fill-opacity:1;fill-rule:nonzero;stroke:none" transform="scale(1.3333333)" /> </g>
</svg>

