<?xml version="1.0" encoding="UTF-8" standalone="no"?> <svg version="1.1" id="Iefce83cb7fb146e597791a0f5b69670920251106125937" width="100" height="100" viewBox="0 0 100 100" xmlns="http://www.w3.org/2000/svg" xmlns:svg="http://www.w3.org/2000/svg"> <defs id="Ie1c5e470c09b465da625d52bd237749220251106125937" /> <g id="I1e08aab722f3489e8bff1b1f35aabdff20251106125937"> <path id="Ic62c494c97be4d38b91c542a2923fb4920251106125937" d="M 6.25,14.844 C 6.25,13.551 7.301,12.5 8.594,12.5 h 57.812 c 1.293,0 2.344,1.051 2.344,2.344 0,1.293 -1.051,2.344 -2.344,2.344 H 8.594 c -1.293,0 -2.344,-1.051 -2.344,-2.344 z m 31.25,12.5 C 37.5,26.051 38.551,25 39.844,25 h 26.562 c 1.293,0 2.344,1.051 2.344,2.344 0,1.293 -1.051,2.344 -2.344,2.344 H 39.844 c -1.293,0 -2.344,-1.051 -2.344,-2.344 z M 22.75,61.812 c -0.438,0.442 -1.035,0.688 -1.656,0.688 -0.621,0 -1.219,-0.246 -1.656,-0.688 l -9.376,-9.374 c -0.917,-0.915 -0.917,-2.399 0,-3.313 0.915,-0.918 2.399,-0.918 3.313,0 l 5.375,5.371 V 27.344 c 0,-1.293 1.051,-2.344 2.344,-2.344 1.293,0 2.344,1.051 2.344,2.344 v 27.152 l 5.374,-5.371 c 0.915,-0.918 2.399,-0.918 3.313,0 0.918,0.914 0.918,2.398 0,3.313 z" style="fill:currentColor;fill-opacity:1;fill-rule:nonzero;stroke:none" transform="scale(1.3333333)" /> </g>
</svg>

