<?xml version="1.0" encoding="UTF-8" standalone="no"?> <svg version="1.1" id="If9292dee970446268b4ebdd39078d55320251110133655" width="100" height="100" viewBox="0 0 100 100" xmlns="http://www.w3.org/2000/svg" xmlns:svg="http://www.w3.org/2000/svg"> <defs id="I7c837db3019b4d93b03925c58bcf31c520251110133655" /> <g id="I763b306e457c4550b5943845b72b9fdd20251110133655"> <path id="Id061d344316340d490645989c9a40da920251110133655" d="M 10.25,6.938 C 9.336,6.02 7.852,6.02 6.938,6.938 6.02,7.852 6.02,9.336 6.938,10.25 l 3.058,3.062 C 7.77,14.492 6.25,16.836 6.25,19.531 v 35.953 c 0,3.883 3.148,7.032 7.031,7.032 h 22.657 c -1.008,-2.411 -1.563,-5.055 -1.563,-7.828 0,-4.028 1.172,-7.782 3.191,-10.938 H 27.344 l -0.449,0.02 c -2.809,0.226 -5.02,2.578 -5.02,5.449 l -0.004,8.605 -8.59,0.004 c -1.293,0 -2.343,-1.051 -2.343,-2.344 V 19.531 c 0,-1.293 1.05,-2.343 2.343,-2.343 h 0.59 l 14.254,14.253 c 0.102,5.028 4.156,9.082 9.184,9.184 l 3.679,3.68 c -2.187,2.883 -3.488,6.48 -3.488,10.383 0,9.492 7.695,17.187 17.188,17.187 3.917,0 7.527,-1.309 10.417,-3.516 0.911,0.606 2.153,0.508 2.957,-0.297 0.915,-0.914 0.915,-2.398 0,-3.312 z m 51.422,58.05 c -0.578,0.66 -1.59,0.903 -2.426,0.266 l -4.558,-3.453 -4.559,3.453 c -1.43,1.082 -3.352,-0.375 -2.809,-2.129 l 1.742,-5.582 -4.558,-3.453 c -1.43,-1.082 -0.692,-3.442 1.074,-3.442 h 1.754 z M 32.98,23.035 45.715,35.773 c 0.738,-1.343 1.16,-2.882 1.16,-4.523 0,-5.176 -4.195,-9.375 -9.375,-9.375 -1.641,0 -3.18,0.422 -4.52,1.16 z m 15.586,15.586 5.317,5.317 c 0.918,-0.458 2.164,-0.083 2.539,1.124 l 0.64,2.059 3.532,3.527 h 3.203 c 1.765,0 2.504,2.36 1.074,3.442 l -0.476,0.359 6.359,6.36 c 0.723,-1.903 1.121,-3.965 1.121,-6.121 0,-9.493 -7.695,-17.188 -17.187,-17.188 -2.157,0 -4.219,0.398 -6.122,1.121 z M 22.445,12.5 l 4.688,4.688 h 34.57 c 1.297,0 2.344,1.05 2.344,2.343 v 17.125 c 1.723,0.895 3.301,2.032 4.687,3.36 V 19.531 c 0,-3.883 -3.148,-7.031 -7.031,-7.031 z" style="fill:currentColor;fill-opacity:1;fill-rule:nonzero;stroke:none" transform="scale(1.3333333)" /> </g>
</svg>

