<?xml version="1.0" encoding="UTF-8" standalone="no"?> <svg version="1.1" id="Ic2e7eca0970942d5b2f337e8a0798c2c20251106104833" width="100" height="100" viewBox="0 0 100 100" xmlns="http://www.w3.org/2000/svg" xmlns:svg="http://www.w3.org/2000/svg"> <defs id="I5de038c14ef74090a023f9cd2cfc20f520251106104833" /> <g id="Ie47042c2ce77408da9dcd4bdcff7f9b220251106104833"> <path id="Ibd761437de9c4835aa6eb3acc8bec9a520251106104833" d="m 39.008,4.074 c 3.656,-0.054 7.281,-0.027 10.91,-0.054 0.223,4.265 1.758,8.621 4.883,11.632 3.125,3.098 7.531,4.52 11.828,4.996 V 31.891 C 62.613,31.754 58.566,30.914 54.91,29.184 53.32,28.461 51.844,27.539 50.391,26.59 50.363,34.738 50.418,42.887 50.336,51.004 50.113,54.91 48.828,58.789 46.57,61.996 42.914,67.355 36.582,70.84 30.078,70.953 26.09,71.176 22.102,70.09 18.695,68.078 13.062,64.758 9.098,58.676 8.512,52.148 8.457,50.754 8.43,49.359 8.484,47.992 c 0.504,-5.301 3.125,-10.379 7.2,-13.84 4.632,-4.019 11.105,-5.945 17.16,-4.8 0.054,4.132 -0.114,8.261 -0.114,12.39 -2.761,-0.894 -6,-0.644 -8.425,1.031 -1.758,1.145 -3.098,2.903 -3.797,4.883 -0.586,1.422 -0.418,2.985 -0.387,4.492 0.668,4.579 5.074,8.426 9.762,8.008 3.125,-0.027 6.113,-1.84 7.73,-4.492 0.532,-0.922 1.117,-1.867 1.145,-2.957 0.277,-4.996 0.168,-9.961 0.195,-14.953 0.027,-11.246 -0.027,-22.461 0.055,-33.68" style="fill:currentColor;fill-opacity:1;fill-rule:evenodd;stroke:none" transform="scale(1.3333333)" /> </g>
</svg>

