<?xml version="1.0" encoding="UTF-8" standalone="no"?> <svg version="1.1" id="Ie85260ca88e0412ca8bf1d018b7864f420251106113050" width="100" height="100" viewBox="0 0 100 100" xmlns="http://www.w3.org/2000/svg" xmlns:svg="http://www.w3.org/2000/svg"> <defs id="Id3ed87201c3542dab6ddba03efb3bd3b20251106113050" /> <g id="I6020647e34364d5d90dde944b0a9595520251106113050"> <path id="I0541e65227284ed2b1edbae32179c44120251106113050" d="m 42.605,29.883 c -1.933,0 -3.429,1.5 -3.429,3.347 0,1.852 1.496,3.348 3.429,3.348 1.766,0 3.266,-1.496 3.266,-3.348 0,-1.847 -1.5,-3.347 -3.266,-3.347 z m -23.437,0 c -1.934,0 -3.43,1.5 -3.43,3.347 0,1.852 1.496,3.348 3.43,3.348 1.766,0 3.266,-1.496 3.266,-3.348 0,-1.847 -1.5,-3.347 -3.266,-3.347 z" style="fill:currentColor;fill-opacity:1;fill-rule:nonzero;stroke:none" transform="scale(1.3333333)" /> <path id="I226afd8cdf274afc8bc07b2ace38290520251106113050" d="M 69.477,23.52 C 65.602,18.191 60.02,14.348 53.656,12.641 v 0.007 C 52.223,11.059 50.609,9.594 48.801,8.285 35.098,-1.676 15.863,1.363 5.859,15.066 -2.203,26.199 -1.859,41.176 6.363,51.812 L 6.43,62.914 c 0,0.266 0.039,0.535 0.125,0.785 0.441,1.41 1.945,2.196 3.355,1.75 l 10.598,-3.34 c 2.804,0.996 5.699,1.567 8.578,1.723 l -0.039,0.035 c 7.457,5.434 17.234,7.067 26.199,4.102 l 10.637,3.465 c 0.269,0.086 0.547,0.132 0.832,0.132 1.48,0 2.676,-1.195 2.676,-2.675 V 57.672 C 76.766,47.66 76.957,33.824 69.477,23.52 Z M 21.68,56.168 20.676,55.746 12.387,58.344 12.305,49.637 11.637,48.883 C 4.555,40.246 4.086,27.797 10.715,18.668 18.785,7.602 34.254,5.156 45.285,13.141 c 11.067,8.047 13.52,23.488 5.524,34.488 -6.704,9.199 -18.707,12.598 -29.129,8.539 z m 42.269,-1.426 -0.668,0.84 0.082,8.703 -8.203,-2.762 -1.004,0.418 c -4.687,1.743 -9.683,1.883 -14.312,0.586 L 39.828,62.52 c 6.36,-1.95 11.918,-5.915 15.836,-11.293 6.395,-8.813 7.434,-19.887 3.715,-29.329 l 0.051,0.032 c 1.925,1.382 3.691,3.105 5.191,5.191 6.078,8.336 5.734,19.688 -0.672,27.621 z" style="fill:currentColor;fill-opacity:1;fill-rule:nonzero;stroke:none" transform="scale(1.3333333)" /> <path id="Id38f297d352248bb97c6562268ee1cb120251106113050" d="m 30.887,29.883 c -1.934,0 -3.43,1.5 -3.43,3.347 0,1.852 1.496,3.348 3.43,3.348 1.765,0 3.265,-1.496 3.265,-3.348 0,-1.847 -1.5,-3.347 -3.265,-3.347 z" style="fill:currentColor;fill-opacity:1;fill-rule:nonzero;stroke:none" transform="scale(1.3333333)" /> </g>
</svg>

