<?xml version="1.0" encoding="UTF-8" standalone="no"?> <svg version="1.1" id="Ie5daefb363144cbb8972d84f6932bf8620251106123559" width="100" height="100" viewBox="0 0 100 100" xmlns="http://www.w3.org/2000/svg" xmlns:svg="http://www.w3.org/2000/svg"> <defs id="Id5a525e0ccbd4b578ae638818c987ac620251106123559" /> <g id="I5bb9462ce77144089c578a214240b0a320251106123559"> <path id="I52a0cd0ab5404691bc0981957a996e7520251106123559" d="m 32.59,62.266 11.133,-4.727 c 0.418,2.75 -1.059,5.539 -3.735,6.676 -2.679,1.137 -5.711,0.258 -7.398,-1.949 z M 49.566,6.543 c 6.52,3.562 11.411,8.133 14.629,13.711 3.223,5.574 4.735,12.098 4.559,19.523 -0.031,1.297 -1.106,2.321 -2.399,2.289 C 65.062,42.035 64.039,40.961 64.07,39.668 64.223,33.07 62.906,27.395 60.137,22.598 57.367,17.801 53.109,13.82 47.32,10.656 46.184,10.035 45.766,8.613 46.387,7.477 47.008,6.34 48.43,5.922 49.566,6.543 Z M 20.973,20.359 c 8.945,-3.98 19.386,-0.214 23.75,8.582 l 0.304,0.653 4.024,9.039 5.308,4.594 c 0.289,0.25 0.539,0.543 0.832,1.011 l 0.184,0.36 c 0.871,1.972 -0.02,4.281 -1.992,5.152 l -32.27,14.281 c -0.5,0.223 -1.039,0.336 -1.582,0.336 -2.156,0 -3.906,-1.75 -3.906,-3.906 l -0.004,-7.32 -3.883,-8.723 C 7.633,35.195 11.77,24.461 20.973,20.359 Z m 27.851,-2.562 c 3.024,1.644 5.446,4.043 7.238,7.152 1.793,3.11 2.661,6.406 2.579,9.848 -0.036,1.293 -1.11,2.316 -2.403,2.285 -1.293,-0.031 -2.316,-1.105 -2.285,-2.402 0.063,-2.567 -0.582,-5.016 -1.949,-7.387 -1.371,-2.371 -3.168,-4.152 -5.426,-5.383 -1.133,-0.617 -1.555,-2.043 -0.933,-3.18 0.621,-1.136 2.043,-1.554 3.179,-0.933 z" style="fill:currentColor;fill-opacity:1;fill-rule:nonzero;stroke:none" transform="scale(1.3333333)" /> </g>
</svg>

