<?xml version="1.0" encoding="UTF-8" standalone="no"?> <svg version="1.1" id="I5a38db39763145838edcc18762a334cf20251106143238" width="100" height="100" viewBox="0 0 100 100" xmlns="http://www.w3.org/2000/svg" xmlns:svg="http://www.w3.org/2000/svg"> <defs id="Ib48730ceb0fe4420a1094cddbfa026ef20251106143238" /> <g id="Ia94cafcf5dd54c98888597e1a4822e4620251106143238"> <path id="I09765ff0857e44b58e9ebaa7a98946d720251106143238" d="m 54.91,40.18 c 9.617,0 17.41,9.82 17.41,14.73 0,4.91 -7.793,14.735 -17.41,14.735 C 45.293,69.645 37.5,59.82 37.5,54.91 37.5,50 45.293,40.18 54.91,40.18 Z M 58.258,8.035 c 4.808,0 8.707,3.899 8.707,8.707 V 41.93 c -1.219,-0.946 -2.567,-1.801 -4.02,-2.508 V 25.453 h -50.89 v 32.805 c 0,2.59 2.097,4.687 4.687,4.687 h 21.301 c 0.781,1.067 1.68,2.114 2.687,3.094 0.325,0.313 0.665,0.621 1.012,0.926 h -25 c -4.808,0 -8.707,-3.899 -8.707,-8.707 V 16.742 c 0,-4.808 3.899,-8.707 8.707,-8.707 z m -3.348,37.5 c -5.176,0 -9.375,4.199 -9.375,9.375 0,5.18 4.199,9.375 9.375,9.375 5.18,0 9.375,-4.195 9.375,-9.375 0,-5.176 -4.195,-9.375 -9.375,-9.375 z m 0,4.02 c 2.961,0 5.36,2.398 5.36,5.355 0,2.961 -2.399,5.36 -5.36,5.36 -2.957,0 -5.355,-2.399 -5.355,-5.36 0,-2.957 2.398,-5.355 5.355,-5.355 z m -38.168,-37.5 c -2.59,0 -4.687,2.097 -4.687,4.687 v 4.696 h 50.89 v -4.696 c 0,-2.59 -2.097,-4.687 -4.687,-4.687 z" style="fill:currentColor;fill-opacity:1;fill-rule:nonzero;stroke:none" transform="scale(1.3333333)" /> </g>
</svg>

