<?xml version="1.0" encoding="UTF-8" standalone="no"?> <svg version="1.1" id="I5268a3c7098e4cd6a20964d65890056f20251106123559" width="100" height="100" viewBox="0 0 100 100" xmlns="http://www.w3.org/2000/svg" xmlns:svg="http://www.w3.org/2000/svg"> <defs id="I65d46df899d441c7a2f61c9355a9509620251106123559" /> <g id="I8387e1bd8ecb45c3a377bd0d0c49741320251106123559"> <path id="If8fea92d33014f9d82000b02d3996d5920251106123559" d="m 37.5,20.312 c 3.883,0 7.031,-3.148 7.031,-7.031 0,-3.883 -3.148,-7.031 -7.031,-7.031 -3.883,0 -7.031,3.148 -7.031,7.031 0,3.883 3.148,7.031 7.031,7.031 z M 19.219,13.055 c -3.571,-1.516 -7.711,0.14 -9.254,3.703 -1.547,3.57 0.105,7.707 3.691,9.23 L 23.105,30 c 1.153,0.488 1.903,1.621 1.903,2.875 v 9.5 l -5.871,17.051 c -1.266,3.672 0.687,7.676 4.359,8.937 3.672,1.266 7.672,-0.687 8.938,-4.359 l 0.453,-1.316 c -1.051,-2.458 -1.637,-5.161 -1.637,-8 0,-10.696 8.266,-19.461 18.758,-20.254 v -1.567 c 0,-1.254 0.75,-2.383 1.906,-2.875 l 9.434,-4.004 c 3.582,-1.523 5.238,-5.66 3.687,-9.23 -1.539,-3.563 -5.68,-5.219 -9.254,-3.703 l -5.015,2.133 c -1.067,0.449 -1.809,1.32 -2.172,2.285 -1.696,4.48 -6.024,7.66 -11.094,7.66 -5.066,0 -9.398,-3.18 -11.09,-7.66 -0.363,-0.965 -1.105,-1.832 -2.172,-2.285 z M 68.75,54.688 c 0,9.492 -7.695,17.187 -17.188,17.187 -9.492,0 -17.187,-7.695 -17.187,-17.187 0,-9.493 7.695,-17.188 17.187,-17.188 9.493,0 17.188,7.695 17.188,17.188 z M 51.562,43.75 C 50.699,43.75 50,44.449 50,45.312 v 12.5 c 0,0.864 0.699,1.563 1.562,1.563 0.864,0 1.563,-0.699 1.563,-1.563 v -12.5 c 0,-0.863 -0.699,-1.562 -1.563,-1.562 z m 0,22.266 c 1.079,0 1.954,-0.875 1.954,-1.954 0,-1.078 -0.875,-1.953 -1.954,-1.953 -1.078,0 -1.953,0.875 -1.953,1.953 0,1.079 0.875,1.954 1.953,1.954 z" style="fill:currentColor;fill-opacity:1;fill-rule:nonzero;stroke:none" transform="scale(1.3333333)" /> </g>
</svg>

