<?xml version="1.0" encoding="UTF-8" standalone="no"?> <svg version="1.1" id="If481f2128cb94364904e309f8371cd3a20251106171634" width="100" height="100" viewBox="0 0 100 100" xmlns="http://www.w3.org/2000/svg" xmlns:svg="http://www.w3.org/2000/svg"> <defs id="I5d09109247c14cf2a093407fa4468f3220251106171634" /> <g id="Ie803978471fd4d0c9e3b6ed37bb5d94520251106171634"> <path id="I305bbdbe373f4d469109804c5d2304dc20251106171634" d="m 12.5,9.375 c 0,1.727 1.398,3.125 3.125,3.125 h 43.75 C 61.102,12.5 62.5,11.102 62.5,9.375 62.5,7.648 61.102,6.25 59.375,6.25 H 15.625 C 13.898,6.25 12.5,7.648 12.5,9.375 Z m 0,56.25 c 0,1.727 1.398,3.125 3.125,3.125 h 5.469 c 1.726,0 3.125,-1.398 3.125,-3.125 0,-1.727 -1.399,-3.125 -3.125,-3.125 h -5.469 c -1.727,0 -3.125,1.398 -3.125,3.125 z m 16.406,0 c 0,1.727 1.399,3.125 3.125,3.125 h 10.938 c 1.726,0 3.125,-1.398 3.125,-3.125 0,-1.727 -1.399,-3.125 -3.125,-3.125 H 32.031 c -1.726,0 -3.125,1.398 -3.125,3.125 z m 21.875,0 c 0,1.727 1.399,3.125 3.125,3.125 h 5.469 c 1.727,0 3.125,-1.398 3.125,-3.125 0,-1.727 -1.398,-3.125 -3.125,-3.125 h -5.469 c -1.726,0 -3.125,1.398 -3.125,3.125 z M 55.336,42.836 39.711,58.461 c -1.223,1.219 -3.199,1.219 -4.422,0 L 19.664,42.836 c -1.219,-1.223 -1.219,-3.199 0,-4.422 1.223,-1.219 3.199,-1.219 4.422,0 L 34.375,48.707 V 18.75 c 0,-1.727 1.398,-3.125 3.125,-3.125 1.727,0 3.125,1.398 3.125,3.125 V 48.707 L 50.914,38.414 c 1.223,-1.219 3.199,-1.219 4.422,0 1.219,1.223 1.219,3.199 0,4.422 z" style="fill:currentColor;fill-opacity:1;fill-rule:nonzero;stroke:none" transform="scale(1.3333333)" /> </g>
</svg>

