<?xml version="1.0" encoding="UTF-8" standalone="no"?> <svg version="1.1" id="Id046923f08bd40b0bebcde3a8db2d56220251110123030" width="100" height="100" viewBox="0 0 100 100" xmlns="http://www.w3.org/2000/svg" xmlns:svg="http://www.w3.org/2000/svg"> <defs id="I2a19b1cb13f545a89b94c23acd4d68ba20251110123030" /> <g id="Ie67efbe804034886ba823fc37ec9bde120251110123030"> <path id="Icacc63f299df4cb185d7fa3b00ead04420251110123030" d="m 32.582,25.656 c 1.453,0.824 3.133,1.297 4.922,1.297 5.5,0 9.961,-4.461 9.961,-9.961 0,-5.5 -4.461,-9.961 -9.961,-9.961 -1.789,0 -3.469,0.473 -4.922,1.297 1.004,1.195 1.805,2.567 2.348,4.063 0.761,-0.43 1.64,-0.672 2.574,-0.672 2.914,0 5.273,2.359 5.273,5.273 0,2.914 -2.359,5.274 -5.273,5.274 -0.934,0 -1.813,-0.243 -2.574,-0.672 -0.543,1.496 -1.344,2.867 -2.348,4.062 z m 1.223,41.86 c 1.183,0.296 2.425,0.453 3.699,0.453 8.414,0 15.234,-6.821 15.234,-15.235 V 36.328 c 0,-3.234 -2.621,-5.859 -5.859,-5.859 h -7.914 c 1.055,1.316 1.762,2.926 1.98,4.687 h 5.934 c 0.648,0 1.172,0.524 1.172,1.172 v 16.406 c 0,5.735 -4.574,10.399 -10.274,10.543 -1.097,1.61 -2.437,3.043 -3.972,4.239 z m 14.011,-41.86 c 1.454,0.824 3.133,1.297 4.922,1.297 5.5,0 9.961,-4.461 9.961,-9.961 0,-5.5 -4.461,-9.961 -9.961,-9.961 -1.789,0 -3.468,0.473 -4.922,1.297 1.004,1.195 1.805,2.567 2.348,4.063 0.762,-0.43 1.641,-0.672 2.574,-0.672 2.914,0 5.274,2.359 5.274,5.273 0,2.914 -2.36,5.274 -5.274,5.274 -0.933,0 -1.812,-0.243 -2.574,-0.672 -0.543,1.496 -1.344,2.867 -2.348,4.062 z m 1.223,41.86 c 1.184,0.296 2.426,0.453 3.699,0.453 8.414,0 15.235,-6.821 15.235,-15.235 V 36.328 c 0,-3.234 -2.621,-5.859 -5.86,-5.859 h -7.914 c 1.055,1.316 1.762,2.926 1.981,4.687 h 5.933 c 0.649,0 1.172,0.524 1.172,1.172 v 16.406 c 0,5.735 -4.574,10.399 -10.273,10.543 -1.098,1.61 -2.438,3.043 -3.973,4.239 z M 7.031,36.328 c 0,-3.234 2.625,-5.859 5.86,-5.859 h 18.75 c 3.234,0 5.859,2.625 5.859,5.859 v 16.406 c 0,8.414 -6.82,15.235 -15.234,15.235 -8.414,0 -15.235,-6.821 -15.235,-15.235 z m 5.86,-1.172 c -0.649,0 -1.172,0.524 -1.172,1.172 v 16.406 c 0,5.825 4.722,10.547 10.547,10.547 5.824,0 10.546,-4.722 10.546,-10.547 V 36.328 c 0,-0.648 -0.523,-1.172 -1.171,-1.172 z m 4.101,-18.164 c 0,-2.914 2.36,-5.273 5.274,-5.273 2.914,0 5.273,2.359 5.273,5.273 0,2.914 -2.359,5.274 -5.273,5.274 -2.914,0 -5.274,-2.36 -5.274,-5.274 z m 5.274,-9.961 c -5.5,0 -9.961,4.461 -9.961,9.961 0,5.5 4.461,9.961 9.961,9.961 5.5,0 9.961,-4.461 9.961,-9.961 0,-5.5 -4.461,-9.961 -9.961,-9.961 z" style="fill:currentColor;fill-opacity:1;fill-rule:nonzero;stroke:none" transform="scale(1.3333333)" /> </g>
</svg>

