<?xml version="1.0" encoding="UTF-8" standalone="no"?> <svg version="1.1" id="I57efe662475e4042a7a81b6a8e1c1e0320251110124420" width="100" height="100" viewBox="0 0 100 100" xmlns="http://www.w3.org/2000/svg" xmlns:svg="http://www.w3.org/2000/svg"> <defs id="Ibba7405bca4540b6a6b67e9f2628001b20251110124420" /> <g id="Ic43dd1f3c04b4a72a899718f3fcb844920251110124420"> <path id="I6d7e11b883e546beb7bd45a8d3ede7aa20251110124420" d="m 19.531,14.062 c -3.019,0 -5.469,2.45 -5.469,5.469 v 4.688 c 0,1.293 -1.05,2.343 -2.343,2.343 -1.293,0 -2.344,-1.05 -2.344,-2.343 v -4.688 c 0,-5.609 4.547,-10.156 10.156,-10.156 h 4.688 c 1.293,0 2.343,1.051 2.343,2.344 0,1.293 -1.05,2.343 -2.343,2.343 z m 41.407,5.469 c 0,-3.019 -2.45,-5.469 -5.469,-5.469 h -4.688 c -1.293,0 -2.343,-1.05 -2.343,-2.343 0,-1.293 1.05,-2.344 2.343,-2.344 h 4.688 c 5.609,0 10.156,4.547 10.156,10.156 v 4.688 c 0,1.293 -1.051,2.343 -2.344,2.343 -1.293,0 -2.343,-1.05 -2.343,-2.343 z m 0,35.938 c 0,3.019 -2.45,5.469 -5.469,5.469 h -4.688 c -1.293,0 -2.343,1.05 -2.343,2.343 0,1.293 1.05,2.344 2.343,2.344 h 4.688 c 5.609,0 10.156,-4.547 10.156,-10.156 v -4.688 c 0,-1.293 -1.051,-2.343 -2.344,-2.343 -1.293,0 -2.343,1.05 -2.343,2.343 z m -46.876,0 c 0,3.019 2.45,5.469 5.469,5.469 h 4.688 c 1.293,0 2.343,1.05 2.343,2.343 0,1.293 -1.05,2.344 -2.343,2.344 h -4.688 c -5.609,0 -10.156,-4.547 -10.156,-10.156 v -4.688 c 0,-1.293 1.051,-2.343 2.344,-2.343 1.293,0 2.343,1.05 2.343,2.343 z M 25.781,18.75 c -3.883,0 -7.031,3.148 -7.031,7.031 v 23.438 c 0,3.883 3.148,7.031 7.031,7.031 h 23.438 c 3.883,0 7.031,-3.148 7.031,-7.031 V 25.781 c 0,-3.883 -3.148,-7.031 -7.031,-7.031 z m -2.343,7.031 c 0,-1.293 1.05,-2.343 2.343,-2.343 h 23.438 c 1.293,0 2.343,1.05 2.343,2.343 v 23.438 c 0,1.293 -1.05,2.343 -2.343,2.343 H 25.781 c -1.293,0 -2.343,-1.05 -2.343,-2.343 z" style="fill:currentColor;fill-opacity:1;fill-rule:nonzero;stroke:none" transform="scale(1.3333333)" /> </g>
</svg>

