<?xml version="1.0" encoding="UTF-8" standalone="no"?> <svg version="1.1" id="Id6325df97af243049652de8c0017dd5f20251106171633" width="100" height="100" viewBox="0 0 100 100" xmlns="http://www.w3.org/2000/svg" xmlns:svg="http://www.w3.org/2000/svg"> <defs id="I78b2a7ee7ac043d2b7c4143c36589c1e20251106171633" /> <g id="I3f68a1a46be9430ebfc2685be18b922720251106171633"> <path id="I11914237d746408f8391535c4637dfd120251106171633" d="m 69.625,13.375 c 0.918,-0.914 0.918,-2.398 0,-3.313 -0.914,-0.917 -2.398,-0.917 -3.313,0 l -7.718,7.715 -3.032,-3.027 c -0.914,-0.918 -2.398,-0.918 -3.312,0 -0.918,0.914 -0.918,2.398 0,3.312 l 4.688,4.688 c 0.914,0.918 2.398,0.918 3.312,0 z m 0,42.187 c 0.918,-0.914 0.918,-2.398 0,-3.312 -0.914,-0.918 -2.398,-0.918 -3.313,0 l -7.718,7.715 -3.032,-3.027 c -0.914,-0.918 -2.398,-0.918 -3.312,0 -0.918,0.914 -0.918,2.398 0,3.312 l 4.688,4.688 c 0.914,0.917 2.398,0.917 3.312,0 z M 7.031,14.062 c -1.293,0 -2.343,1.051 -2.343,2.344 0,1.293 1.05,2.344 2.343,2.344 h 37.5 c 1.293,0 2.344,-1.051 2.344,-2.344 0,-1.293 -1.051,-2.344 -2.344,-2.344 z m 0,21.094 c -1.293,0 -2.343,1.051 -2.343,2.344 0,1.293 1.05,2.344 2.343,2.344 h 37.5 c 1.293,0 2.344,-1.051 2.344,-2.344 0,-1.293 -1.051,-2.344 -2.344,-2.344 z m 0,21.094 c -1.293,0 -2.343,1.051 -2.343,2.344 0,1.293 1.05,2.344 2.343,2.344 h 37.5 c 1.293,0 2.344,-1.051 2.344,-2.344 0,-1.293 -1.051,-2.344 -2.344,-2.344 z" style="fill:currentColor;fill-opacity:1;fill-rule:nonzero;stroke:none" transform="scale(1.3333333)" /> </g>
</svg>

