<?xml version="1.0" encoding="UTF-8" standalone="no"?> <svg version="1.1" id="Ib13f5bddc2554b3e81afc0def2edcdf120251106102215" width="100" height="100" viewBox="0 0 100 100" xmlns="http://www.w3.org/2000/svg" xmlns:svg="http://www.w3.org/2000/svg"> <defs id="I7634e3ac14e2433780353ef52ee2416a20251106102215" /> <g id="Icf9532afbf0241d489d2393b46c03b9020251106102215"> <path id="I0d91841a52de4bd4bd7d2fec4e976f0620251106102215" d="M 68.305,70.98 H 6.695 C 5.215,70.98 4.02,69.785 4.02,68.305 V 6.695 C 4.02,5.215 5.215,4.02 6.695,4.02 h 30.137 c 0.367,0 0.668,0.3 0.668,0.668 v 4.687 c 0,0.367 -0.301,0.668 -0.668,0.668 H 10.043 V 64.957 H 64.957 V 38.168 c 0,-0.367 0.301,-0.668 0.668,-0.668 h 4.687 c 0.368,0 0.668,0.301 0.668,0.668 v 30.137 c 0,1.48 -1.195,2.675 -2.675,2.675 z M 59.168,11.312 54.801,6.941 c -0.395,-0.394 -0.16,-1.07 0.39,-1.136 l 15.02,-1.758 c 0.426,-0.051 0.793,0.308 0.742,0.742 l -1.758,15.02 c -0.066,0.55 -0.742,0.785 -1.136,0.39 L 63.672,15.816 42.227,37.262 c -0.262,0.258 -0.684,0.258 -0.946,0 L 37.73,33.711 c -0.257,-0.262 -0.257,-0.684 0,-0.945 z" style="fill:currentColor;fill-opacity:1;fill-rule:evenodd;stroke:none" transform="scale(1.3333333)" /> </g>
</svg>

