<?xml version="1.0" encoding="UTF-8" standalone="no"?>
<!-- Created with Inkscape (http://www.inkscape.org/) -->

<svg
   version="1.1"
   id="Ia5280e3f452d48f7a5bbf00b0aefcd3020251103104212"
   width="100"
   height="100"
   viewBox="0 0 100 100"
   sodipodi:docname="output.ai"
   xmlns:inkscape="http://www.inkscape.org/namespaces/inkscape"
   xmlns:sodipodi="http://sodipodi.sourceforge.net/DTD/sodipodi-0.dtd"
   xmlns="http://www.w3.org/2000/svg"
   xmlns:svg="http://www.w3.org/2000/svg">
  <defs
     id="I5c2a1f2fedda4bc6858775313e4d9c4c20251103104212" />
  <sodipodi:namedview
     id="Ib28429252612445aaa97d7dff533336320251103104212"
     pagecolor="#ffffff"
     bordercolor="#000000"
     borderopacity="0.25"
     inkscape:showpageshadow="2"
     inkscape:pageopacity="0.0"
     inkscape:pagecheckerboard="0"
     inkscape:deskcolor="#d1d1d1">
    <inkscape:page
       x="0"
       y="0"
       inkscape:label="1"
       id="I3797f44138914a73b4c4132014e1e9a920251103104212"
       width="100"
       height="100"
       margin="0"
       bleed="0" />
  </sodipodi:namedview>
  <g
     id="I5a43bcf2d484416bbb25c74872705c3420251103104212"
     inkscape:groupmode="layer"
     inkscape:label="1">
    <path
       id="Ibec453e78faa4c1faacbf8da5c07086c20251103104212"
       d="m 53.906,24.609 c 0,1.942 -1.574,3.516 -3.515,3.516 -1.942,0 -3.516,-1.574 -3.516,-3.516 0,-1.941 1.574,-3.515 3.516,-3.515 1.941,0 3.515,1.574 3.515,3.515 z"
       style="fill:#ffffff;fill-opacity:1;fill-rule:nonzero;stroke:none"
       transform="scale(1.3333333)" />
    <path
       id="Ie4aa055f1fe94ea4b55fad78ea43b1ab20251103104212"
       d="m 37.5,49.219 c 6.473,0 11.719,-5.246 11.719,-11.719 0,-6.473 -5.246,-11.719 -11.719,-11.719 -6.473,0 -11.719,5.246 -11.719,11.719 0,6.473 5.246,11.719 11.719,11.719 z m 0,-4.688 c 3.883,0 7.031,-3.148 7.031,-7.031 0,-3.883 -3.148,-7.031 -7.031,-7.031 -3.883,0 -7.031,3.148 -7.031,7.031 0,3.883 3.148,7.031 7.031,7.031 z"
       style="fill:#ffffff;fill-opacity:1;fill-rule:evenodd;stroke:none"
       transform="scale(1.3333333)" />
    <path
       id="I6fad3edc22bb4ae1907c7731c78edcc520251103104212"
       d="m 14.062,36.562 c 0,-7.874 0,-11.812 1.532,-14.82 1.351,-2.648 3.5,-4.797 6.148,-6.148 3.008,-1.532 6.946,-1.532 14.82,-1.532 h 1.876 c 7.874,0 11.812,0 14.82,1.532 2.648,1.351 4.797,3.5 6.148,6.148 1.532,3.008 1.532,6.946 1.532,14.82 v 1.876 c 0,7.874 0,11.812 -1.532,14.82 -1.351,2.648 -3.5,4.797 -6.148,6.148 -3.008,1.532 -6.946,1.532 -14.82,1.532 h -1.876 c -7.874,0 -11.812,0 -14.82,-1.532 -2.648,-1.351 -4.797,-3.5 -6.148,-6.148 -1.532,-3.008 -1.532,-6.946 -1.532,-14.82 z m 22.5,-17.812 h 1.876 c 4.015,0 6.746,0.004 8.855,0.176 2.055,0.168 3.105,0.472 3.84,0.847 1.762,0.899 3.195,2.332 4.094,4.094 0.375,0.735 0.679,1.785 0.847,3.84 0.172,2.109 0.176,4.84 0.176,8.855 v 1.876 c 0,4.015 -0.004,6.746 -0.176,8.855 -0.168,2.055 -0.472,3.105 -0.847,3.84 -0.899,1.762 -2.332,3.195 -4.094,4.094 -0.735,0.375 -1.785,0.679 -3.84,0.847 -2.109,0.172 -4.84,0.176 -8.855,0.176 h -1.876 c -4.015,0 -6.746,-0.004 -8.855,-0.176 -2.055,-0.168 -3.105,-0.472 -3.84,-0.847 -1.762,-0.899 -3.195,-2.332 -4.094,-4.094 -0.375,-0.735 -0.679,-1.785 -0.847,-3.84 -0.172,-2.109 -0.176,-4.84 -0.176,-8.855 v -1.876 c 0,-4.015 0.004,-6.746 0.176,-8.855 0.168,-2.055 0.472,-3.105 0.847,-3.84 0.899,-1.762 2.332,-3.195 4.094,-4.094 0.735,-0.375 1.785,-0.679 3.84,-0.847 2.109,-0.172 4.84,-0.176 8.855,-0.176 z"
       style="fill:#ffffff;fill-opacity:1;fill-rule:evenodd;stroke:none"
       transform="scale(1.3333333)" />
  </g>
</svg>



