<?xml version="1.0" encoding="UTF-8" standalone="no"?> <svg version="1.1" id="I5acab897244f48d08f7a075e7ad0647220251110124419" width="100" height="100" viewBox="0 0 100 100" xmlns="http://www.w3.org/2000/svg" xmlns:svg="http://www.w3.org/2000/svg"> <defs id="Ifd432e12541a4ebb9e51ffa858f9b21e20251110124419" /> <g id="Iba5fd03e6f0a4c368fad62665bbc4b8220251110124419"> <path id="I6c8ed17242bd4750814a5f3ab3f24c3420251110124419" d="m 54.363,12.68 -2.707,2.707 c -10.16,-6.52 -23.832,-5.336 -32.718,3.551 -10.25,10.253 -10.25,26.871 0,37.124 10.253,10.25 26.871,10.25 37.124,0 0.731,-0.734 1.918,-0.734 2.653,0 0.73,0.731 0.73,1.918 0,2.653 -11.719,11.715 -30.711,11.715 -42.43,0 C 4.57,46.996 4.57,28.004 16.285,16.285 26.645,5.93 42.688,4.73 54.363,12.68 Z m -11.004,11.008 2.813,-2.817 c -7.067,-3.687 -15.992,-2.566 -21.93,3.371 -7.324,7.32 -7.324,19.196 0,26.516 7.32,7.324 19.196,7.324 26.516,0 0.734,-0.731 0.734,-1.918 0,-2.653 -0.731,-0.73 -1.918,-0.73 -2.653,0 -5.855,5.86 -15.355,5.86 -21.21,0 -5.86,-5.855 -5.86,-15.355 0,-21.21 4.449,-4.454 11.003,-5.52 16.464,-3.207 z m 16.09,-8.137 c 0.735,0.73 0.735,1.918 0,2.648 L 41.121,36.527 c 0.086,0.313 0.129,0.637 0.129,0.973 0,2.07 -1.68,3.75 -3.75,3.75 -2.07,0 -3.75,-1.68 -3.75,-3.75 0,-2.07 1.68,-3.75 3.75,-3.75 0.336,0 0.66,0.043 0.973,0.129 L 56.801,15.551 c 0.73,-0.735 1.918,-0.735 2.648,0 z M 63.75,50.625 C 63.75,51.66 62.91,52.5 61.875,52.5 60.84,52.5 60,51.66 60,50.625 c 0,-1.035 0.84,-1.875 1.875,-1.875 1.035,0 1.875,0.84 1.875,1.875 z M 61.875,26.25 c 1.035,0 1.875,-0.84 1.875,-1.875 C 63.75,23.34 62.91,22.5 61.875,22.5 60.84,22.5 60,23.34 60,24.375 c 0,1.035 0.84,1.875 1.875,1.875 z M 67.5,42.188 c 0,1.035 -0.84,1.874 -1.875,1.874 -1.035,0 -1.875,-0.839 -1.875,-1.874 0,-1.036 0.84,-1.876 1.875,-1.876 1.035,0 1.875,0.84 1.875,1.876 z m -1.875,-7.5 c 1.035,0 1.875,-0.84 1.875,-1.876 0,-1.035 -0.84,-1.874 -1.875,-1.874 -1.035,0 -1.875,0.839 -1.875,1.874 0,1.036 0.84,1.876 1.875,1.876 z m -9.375,7.5 c 0,1.035 -0.84,1.874 -1.875,1.874 -1.035,0 -1.875,-0.839 -1.875,-1.874 0,-1.036 0.84,-1.876 1.875,-1.876 1.035,0 1.875,0.84 1.875,1.876 z m -1.875,-7.5 c 1.035,0 1.875,-0.84 1.875,-1.876 0,-1.035 -0.84,-1.874 -1.875,-1.874 -1.035,0 -1.875,0.839 -1.875,1.874 0,1.036 0.84,1.876 1.875,1.876 z" style="fill:currentColor;fill-opacity:1;fill-rule:nonzero;stroke:none" transform="scale(1.3333333)" /> </g>
</svg>

