<?xml version="1.0" encoding="UTF-8" standalone="no"?> <svg version="1.1" id="Ia36e1044f1514ccf8ce2a663855cc7dc20251110124419" width="100" height="100" viewBox="0 0 100 100" xmlns="http://www.w3.org/2000/svg" xmlns:svg="http://www.w3.org/2000/svg"> <defs id="Ie046a9cb55fb4bc5994defcb288cd1d120251110124419" /> <g id="Icacc038e0a004ac7a6070f297856ed9320251110124419"> <path id="I50225ab7622b43e481e490a78d527de120251110124419" d="m 18.75,34.375 h 3.906 c 6.473,0 11.719,-5.246 11.719,-11.719 V 18.75 h 11.719 c 5.609,0 10.156,4.547 10.156,10.156 v 11.719 h -3.906 c -6.473,0 -11.719,5.246 -11.719,11.719 V 56.25 H 28.906 C 23.297,56.25 18.75,51.703 18.75,46.094 Z M 3.125,11.719 c 0,-4.746 3.848,-8.594 8.594,-8.594 h 10.937 c 4.746,0 8.594,3.848 8.594,8.594 v 10.937 c 0,4.746 -3.848,8.594 -8.594,8.594 H 11.719 c -4.746,0 -8.594,-3.848 -8.594,-8.594 z m 8.594,-3.907 c -2.157,0 -3.907,1.75 -3.907,3.907 v 10.937 c 0,2.156 1.75,3.906 3.907,3.906 h 10.937 c 2.156,0 3.906,-1.75 3.906,-3.906 V 11.719 c 0,-2.157 -1.75,-3.907 -3.906,-3.907 z M 43.75,52.344 c 0,-4.746 3.848,-8.594 8.594,-8.594 h 10.937 c 4.746,0 8.594,3.848 8.594,8.594 v 10.937 c 0,4.746 -3.848,8.594 -8.594,8.594 H 52.344 c -4.746,0 -8.594,-3.848 -8.594,-8.594 z m 8.594,-3.906 c -2.156,0 -3.906,1.75 -3.906,3.906 v 10.937 c 0,2.157 1.75,3.907 3.906,3.907 h 10.937 c 2.157,0 3.907,-1.75 3.907,-3.907 V 52.344 c 0,-2.156 -1.75,-3.906 -3.907,-3.906 z" style="fill:currentColor;fill-opacity:1;fill-rule:nonzero;stroke:none" transform="scale(1.3333333)" /> </g>
</svg>

