<?xml version="1.0" encoding="UTF-8" standalone="no"?> <svg version="1.1" id="I93ecbe5db2e64d5685d8d45ec8a0ce8e20251106165301" width="100" height="100" viewBox="0 0 100 100" xmlns="http://www.w3.org/2000/svg" xmlns:svg="http://www.w3.org/2000/svg"> <defs id="I0c1148347c7642c5a312807fba50cce820251106165301" /> <g id="I4382a2b37a3e4bb7ada4900ae71bebce20251106165301"> <path id="I907e1af1dab34a17be2660438b21a08720251106165301" d="M 36.551,52.676 23.719,37.699 c -2.422,-2.828 -2.473,-6.984 -0.114,-9.871 2.852,-3.488 8.079,-3.789 11.309,-0.648 l 2.586,2.508 2.586,-2.508 c 3.23,-3.141 8.457,-2.84 11.309,0.648 2.359,2.887 2.308,7.047 -0.114,9.875 L 38.449,52.676 c -0.5,0.582 -1.398,0.582 -1.898,0 z M 68.75,37.5 C 68.75,54.758 54.758,68.75 37.5,68.75 20.242,68.75 6.25,54.758 6.25,37.5 6.25,20.242 20.242,6.25 37.5,6.25 c 17.258,0 31.25,13.992 31.25,31.25 z m -4.688,0 c 0,-14.672 -11.89,-26.562 -26.562,-26.562 -14.672,0 -26.562,11.89 -26.562,26.562 0,14.672 11.89,26.562 26.562,26.562 14.672,0 26.562,-11.89 26.562,-26.562 z" style="fill:currentColor;fill-opacity:1;fill-rule:nonzero;stroke:none" transform="scale(1.3333333)" /> </g>
</svg>

