<?xml version="1.0" encoding="UTF-8" standalone="no"?>
<!-- Created with Inkscape (http://www.inkscape.org/) -->

<svg
   version="1.1"
   id="I2be6d7df6c4b44909afbac22ec63dcd220251103104211"
   width="100"
   height="100"
   viewBox="0 0 100 100"
   sodipodi:docname="output.ai"
   xmlns:inkscape="http://www.inkscape.org/namespaces/inkscape"
   xmlns:sodipodi="http://sodipodi.sourceforge.net/DTD/sodipodi-0.dtd"
   xmlns="http://www.w3.org/2000/svg"
   xmlns:svg="http://www.w3.org/2000/svg">
  <defs
     id="I22cb6a615587483782fda3b7b3ea9ed420251103104211" />
  <sodipodi:namedview
     id="I52b79fff34554666a9fd60ab24fbbf8c20251103104211"
     pagecolor="#ffffff"
     bordercolor="#000000"
     borderopacity="0.25"
     inkscape:showpageshadow="2"
     inkscape:pageopacity="0.0"
     inkscape:pagecheckerboard="0"
     inkscape:deskcolor="#d1d1d1">
    <inkscape:page
       x="0"
       y="0"
       inkscape:label="1"
       id="I5231737705b0435bb6305d824e4542c720251103104211"
       width="100"
       height="100"
       margin="0"
       bleed="0" />
  </sodipodi:namedview>
  <g
     id="I1ad2fd3bc2c74c84849f1588f2ddeeab20251103104211"
     inkscape:groupmode="layer"
     inkscape:label="1">
    <path
       id="Ib623ec5f8389468eb3c86a8350870ef120251103104211"
       d="m 17.195,14.461 -0.007,6.633 v 32.824 c 0,5.609 4.546,10.156 10.156,10.156 l 26.926,0.004 c -0.965,2.731 -3.571,4.684 -6.629,4.684 H 27.344 C 19.145,68.762 12.5,62.117 12.5,53.918 V 21.094 c 0,-3.067 1.961,-5.672 4.695,-6.633 z M 55.469,6.25 c 3.883,0 7.031,3.148 7.031,7.031 v 40.625 c 0,3.883 -3.148,7.032 -7.031,7.032 H 27.344 c -3.883,0 -7.032,-3.149 -7.032,-7.032 V 13.281 c 0,-3.883 3.149,-7.031 7.032,-7.031 z"
       style="fill:#212121;fill-opacity:1;fill-rule:nonzero;stroke:none"
       transform="scale(1.3333333)" />
  </g>
</svg>





