<?xml version="1.0" encoding="UTF-8" standalone="no"?> <svg version="1.1" id="I91a8ec76b99143d99b6678d1f98af39c20251106171633" width="100" height="100" viewBox="0 0 100 100" xmlns="http://www.w3.org/2000/svg" xmlns:svg="http://www.w3.org/2000/svg"> <defs id="I0f1b454d56de4435b5e43c40b8f193c220251106171633" /> <g id="I9133547a30794895823fccf7f48ab3ed20251106171633"> <path id="If83150619c8d479f8cb61c594f52dda820251106171633" d="M 10.25,6.938 C 9.336,6.02 7.852,6.02 6.938,6.938 6.02,7.852 6.02,9.336 6.938,10.25 l 5.371,5.375 h -0.59 c -3.02,0 -5.469,2.449 -5.469,5.469 v 26.562 c 0,3.02 2.449,5.469 5.469,5.469 h 38.09 l 4.671,4.672 c -0.187,0.012 -0.382,0.015 -0.574,0.015 H 13.754 c 1.621,2.801 4.652,4.688 8.121,4.688 h 32.031 c 1.594,0 3.125,-0.25 4.563,-0.715 l 6.281,6.277 c 0.914,0.918 2.398,0.918 3.312,0 0.918,-0.914 0.918,-2.398 0,-3.312 z M 37.273,40.59 c -1.211,1 -2.765,1.598 -4.461,1.598 -3.882,0 -7.031,-3.149 -7.031,-7.032 0,-1.695 0.598,-3.25 1.598,-4.461 z M 16.215,19.531 20.254,23.57 c -0.445,3.45 -3.399,6.118 -6.973,6.118 H 10.156 V 25 h 3.125 c 1.293,0 2.344,-1.051 2.344,-2.344 V 19.531 Z M 13.281,43.75 h -3.125 v -4.688 h 3.125 c 3.883,0 7.031,3.149 7.031,7.032 v 3.125 h -4.687 v -3.125 c 0,-1.293 -1.051,-2.344 -2.344,-2.344 z m 42.188,0 h -1.778 l 5.461,5.461 c 0.145,-0.492 0.223,-1.016 0.223,-1.555 V 21.094 c 0,-3.02 -2.449,-5.469 -5.469,-5.469 H 25.566 L 49.57,39.629 c 0.852,-0.363 1.789,-0.567 2.774,-0.567 h 3.125 z M 50,19.531 v 3.125 C 50,23.949 51.051,25 52.344,25 h 3.125 v 4.688 h -3.125 c -3.883,0 -7.032,-3.149 -7.032,-7.032 v -3.125 z m 12.691,33.223 3.395,3.391 c 1.68,-2.407 2.664,-5.333 2.664,-8.489 V 31.25 c 0,-3.469 -1.887,-6.5 -4.688,-8.121 v 24.527 c 0,1.86 -0.5,3.598 -1.371,5.098 z" style="fill:currentColor;fill-opacity:1;fill-rule:nonzero;stroke:none" transform="scale(1.3333333)" /> </g>
</svg>

