<?xml version="1.0" encoding="UTF-8" standalone="no"?> <svg version="1.1" id="I993314a3a9bb48d689389249c518b82120251106154012" width="100" height="100" viewBox="0 0 100 100" xmlns="http://www.w3.org/2000/svg" xmlns:svg="http://www.w3.org/2000/svg"> <defs id="I65088951600946bc8a082e7cc0c6192120251106154012" /> <g id="Ice51743844234b6eb1a1df09a1c5c07f20251106154012"> <path id="I98c5287bc45742d4805a7edb9eee9ae320251106154012" d="m 9.961,7.031 c 1.617,0 2.93,1.313 2.93,2.93 v 48.047 c 0,2.265 1.836,4.101 4.101,4.101 h 48.047 c 1.617,0 2.93,1.313 2.93,2.93 0,1.617 -1.313,2.93 -2.93,2.93 H 16.992 c -5.5,0 -9.961,-4.461 -9.961,-9.961 V 9.961 c 0,-1.617 1.313,-2.93 2.93,-2.93 z M 28.125,18.75 c -5.176,0 -9.375,4.199 -9.375,9.375 0,5.176 4.199,9.375 9.375,9.375 5.176,0 9.375,-4.199 9.375,-9.375 0,-5.176 -4.199,-9.375 -9.375,-9.375 z m 16.406,2.344 c 0,-5.176 4.199,-9.375 9.375,-9.375 5.176,0 9.375,4.199 9.375,9.375 0,5.176 -4.199,9.375 -9.375,9.375 -5.176,0 -9.375,-4.199 -9.375,-9.375 z M 46.875,37.5 c -5.176,0 -9.375,4.199 -9.375,9.375 0,5.176 4.199,9.375 9.375,9.375 5.176,0 9.375,-4.199 9.375,-9.375 0,-5.176 -4.199,-9.375 -9.375,-9.375 z" style="fill:currentColor;fill-opacity:1;fill-rule:nonzero;stroke:none" transform="scale(1.3333333)" /> </g>
</svg>

