<?xml version="1.0" encoding="UTF-8" standalone="no"?> <svg version="1.1" id="I81c5fd2ef8d44e6dba6974dee276dd0620251106142135" width="100" height="100" viewBox="0 0 100 100" xmlns="http://www.w3.org/2000/svg" xmlns:svg="http://www.w3.org/2000/svg"> <defs id="I48d7eca22e2f4a4abb4c9f1eaa67899d20251106142135" /> <g id="I7fbe0e9dde7a4d3991b281bcf8a79fa820251106142135"> <path id="I0eabc3f39487443c8302ca3204ebaa4b20251106142135" d="m 40.625,15.625 c 1.727,0 3.125,-1.398 3.125,-3.125 0,-1.727 -1.398,-3.125 -3.125,-3.125 h -6.25 c -1.727,0 -3.125,1.398 -3.125,3.125 0,1.727 1.398,3.125 3.125,3.125 z m -25,18.75 c 0,-1.727 -1.398,-3.125 -3.125,-3.125 -1.727,0 -3.125,1.398 -3.125,3.125 v 6.25 c 0,1.727 1.398,3.125 3.125,3.125 1.727,0 3.125,-1.398 3.125,-3.125 z M 43.75,62.5 c 0,1.727 -1.398,3.125 -3.125,3.125 h -6.25 c -1.727,0 -3.125,-1.398 -3.125,-3.125 0,-1.727 1.398,-3.125 3.125,-3.125 h 6.25 c 1.727,0 3.125,1.398 3.125,3.125 z m -25,-53.125 c 1.727,0 3.125,1.398 3.125,3.125 0,1.727 -1.398,3.125 -3.125,3.125 -1.727,0 -3.125,1.398 -3.125,3.125 0,1.727 -1.398,3.125 -3.125,3.125 -1.727,0 -3.125,-1.398 -3.125,-3.125 0,-5.176 4.199,-9.375 9.375,-9.375 z M 21.875,62.5 c 0,1.727 -1.398,3.125 -3.125,3.125 -5.176,0 -9.375,-4.195 -9.375,-9.375 0,-1.727 1.398,-3.125 3.125,-3.125 1.727,0 3.125,1.398 3.125,3.125 0,1.727 1.398,3.125 3.125,3.125 1.727,0 3.125,1.398 3.125,3.125 z m 34.375,3.125 c -1.727,0 -3.125,-1.398 -3.125,-3.125 0,-1.727 1.398,-3.125 3.125,-3.125 1.727,0 3.125,-1.398 3.125,-3.125 v -37.5 c 0,-1.727 -1.398,-3.125 -3.125,-3.125 -1.727,0 -3.125,-1.398 -3.125,-3.125 0,-1.727 1.398,-3.125 3.125,-3.125 5.18,0 9.375,4.199 9.375,9.375 v 37.5 c 0,5.18 -4.195,9.375 -9.375,9.375 z" style="fill:currentColor;fill-opacity:1;fill-rule:nonzero;stroke:none" transform="scale(1.3333333)" /> </g>
</svg>

