<?xml version="1.0" encoding="UTF-8" standalone="no"?> <svg version="1.1" id="Ib8b8634141c84f0e89c055d75b42f15720251106142135" width="100" height="100" viewBox="0 0 100 100" xmlns="http://www.w3.org/2000/svg" xmlns:svg="http://www.w3.org/2000/svg"> <defs id="Ia437ad03938c4074a723e20f0635b0ef20251106142135" /> <g id="I8ce19f1596c44aa8b4ebaf4405108d0220251106142135"> <path id="I4807d609e20245a5b9104501df92b09820251106142135" d="M 42.969,6.25 C 46.852,6.25 50,9.398 50,13.281 v 5.469 h 8.594 c 5.609,0 10.156,4.547 10.156,10.156 v 26.563 c 0,5.609 -4.547,10.156 -10.156,10.156 H 16.406 C 10.797,65.625 6.25,61.078 6.25,55.469 V 28.906 C 6.25,23.297 10.797,18.75 16.406,18.75 H 25 V 13.281 C 25,9.398 28.148,6.25 32.031,6.25 Z M 37.5,30.469 c -1.215,0 -2.211,0.922 -2.332,2.101 l -0.012,0.242 v 6.25 h -6.25 c -1.293,0 -2.344,1.051 -2.344,2.344 0,1.293 1.051,2.344 2.344,2.344 h 6.25 V 50 c 0,1.293 1.051,2.344 2.344,2.344 1.293,0 2.344,-1.051 2.344,-2.344 v -6.25 h 6.25 l 0.242,-0.012 c 1.18,-0.121 2.102,-1.117 2.102,-2.332 0,-1.215 -0.922,-2.211 -2.102,-2.332 l -0.242,-0.012 h -6.25 v -6.25 L 39.832,32.57 C 39.711,31.391 38.715,30.469 37.5,30.469 Z M 32.031,10.938 c -1.293,0 -2.343,1.05 -2.343,2.343 v 5.469 h 15.624 v -5.469 c 0,-1.293 -1.05,-2.343 -2.343,-2.343 z" style="fill:currentColor;fill-opacity:1;fill-rule:nonzero;stroke:none" transform="scale(1.3333333)" /> </g>
</svg>

