<?xml version="1.0" encoding="UTF-8" standalone="no"?> <svg version="1.1" id="I81a9c741805d487fa01460f92a71bcde20251106144521" width="100" height="100" viewBox="0 0 100 100" xmlns="http://www.w3.org/2000/svg" xmlns:svg="http://www.w3.org/2000/svg"> <defs id="I5f1a94cb78274cdb9fd9251dcd0531ab20251106144521" /> <g id="Ic1339e8d41bb494dbdf3f89bbf27186020251106144521"> <path id="I8fc47e09f6334e6bbe37a4d3c1bb6fa120251106144521" d="m 5.355,37.5 c 0,17.754 14.391,32.145 32.145,32.145 17.754,0 32.145,-14.391 32.145,-32.145 C 69.645,19.746 55.254,5.355 37.5,5.355 19.746,5.355 5.355,19.746 5.355,37.5 Z m 18.833,7.445 c -0.786,0.785 -2.055,0.785 -2.84,0 -0.786,-0.781 -0.786,-2.054 0,-2.84 l 14.73,-14.73 c 0.785,-0.785 2.059,-0.785 2.844,0 l 14.73,14.73 c 0.786,0.786 0.786,2.059 0,2.84 -0.785,0.785 -2.054,0.785 -2.84,0 L 37.5,31.637 Z" style="fill:currentColor;fill-opacity:1;fill-rule:nonzero;stroke:none" transform="scale(1.3333333)" /> </g>
</svg>

