<?xml version="1.0" encoding="UTF-8" standalone="no"?> <svg version="1.1" id="If8f0faede7cb4b28b7d03e3db035076a20251106161453" width="100" height="100" viewBox="0 0 100 100" xmlns="http://www.w3.org/2000/svg" xmlns:svg="http://www.w3.org/2000/svg"> <defs id="I04adc674219d4299936f7841d09dba0b20251106161453" /> <g id="Ide018b67e5d04310ae9cc346855aea8f20251106161453"> <path id="If3864dd0201c4000b1ef7aa008fe16c920251106161453" d="m 68.738,31.164 -0.004,32.113 c 0,3.02 -2.449,5.469 -5.468,5.469 H 40.617 c -0.269,0 -0.539,-0.019 -0.797,-0.058 V 36.891 c 3.317,2.351 7.368,3.734 11.742,3.734 7.227,0 13.575,-3.777 17.176,-9.461 z M 31.309,18.754 c -0.039,0.516 -0.059,1.035 -0.059,1.558 0,4.465 1.441,8.594 3.883,11.946 v 36.426 c -0.25,0.035 -0.504,0.054 -0.766,0.054 H 11.719 C 8.699,68.738 6.25,66.289 6.25,63.27 V 24.223 c 0,-3.02 2.449,-5.469 5.469,-5.469 z m -2.426,35.934 h -4.692 l -0.316,0.019 c -1.145,0.156 -2.027,1.137 -2.027,2.324 0,1.188 0.882,2.168 2.027,2.324 l 0.316,0.02 h 4.692 l 0.32,-0.02 c 1.145,-0.156 2.024,-1.136 2.024,-2.324 0,-1.187 -0.879,-2.168 -2.024,-2.324 z m 21.863,0 h -4.687 l -0.317,0.019 c -1.144,0.156 -2.027,1.137 -2.027,2.324 0,1.188 0.883,2.168 2.027,2.324 l 0.317,0.02 h 4.687 l 0.316,-0.02 c 1.145,-0.156 2.028,-1.136 2.028,-2.324 0,-1.187 -0.883,-2.168 -2.028,-2.324 z M 51.555,3.125 c 9.492,0 17.187,7.695 17.187,17.187 0,9.493 -7.695,17.188 -17.187,17.188 -9.493,0 -17.188,-7.695 -17.188,-17.188 0,-9.492 7.695,-17.187 17.188,-17.187 z m -3.125,6.25 c -0.864,0 -1.563,0.699 -1.563,1.563 v 12.5 c 0,0.863 0.699,1.562 1.563,1.562 h 9.379 c 0.863,0 1.562,-0.699 1.562,-1.562 0,-0.864 -0.699,-1.563 -1.562,-1.563 H 49.992 V 10.938 c 0,-0.864 -0.699,-1.563 -1.562,-1.563 z" style="fill:currentColor;fill-opacity:1;fill-rule:nonzero;stroke:none" transform="scale(1.3333333)" /> </g>
</svg>

