<?xml version="1.0" encoding="UTF-8" standalone="no"?>
<!-- Created with Inkscape (http://www.inkscape.org/) -->

<svg
   version="1.1"
   id="I9fc68031cafe415cbd9f19323d1e7c2f20251103104211"
   width="100"
   height="100"
   viewBox="0 0 100 100"
   sodipodi:docname="output.ai"
   xmlns:inkscape="http://www.inkscape.org/namespaces/inkscape"
   xmlns:sodipodi="http://sodipodi.sourceforge.net/DTD/sodipodi-0.dtd"
   xmlns="http://www.w3.org/2000/svg"
   xmlns:svg="http://www.w3.org/2000/svg">
  <defs
     id="I4d243b28200a4ac8a2fac37ba9e0349020251103104211" />
  <sodipodi:namedview
     id="Ia6fd3b2087334a6a95eedafb36ed256a20251103104211"
     pagecolor="#ffffff"
     bordercolor="#000000"
     borderopacity="0.25"
     inkscape:showpageshadow="2"
     inkscape:pageopacity="0.0"
     inkscape:pagecheckerboard="0"
     inkscape:deskcolor="#d1d1d1">
    <inkscape:page
       x="0"
       y="0"
       inkscape:label="1"
       id="I37e606cc73be41c9978dc8282809512b20251103104211"
       width="100"
       height="100"
       margin="0"
       bleed="0" />
  </sodipodi:namedview>
  <g
     id="I4a2860a65e534c0d8736e53441270bdf20251103104211"
     inkscape:groupmode="layer"
     inkscape:label="1">
    <path
       id="Id803238a06f945ce9942313556e9405420251103104211"
       d="M 71.875,20.312 C 71.875,10.82 64.18,3.125 54.688,3.125 45.195,3.125 37.5,10.82 37.5,20.312 c 0,9.493 7.695,17.188 17.188,17.188 9.492,0 17.187,-7.695 17.187,-17.188 z m -15.625,1.563 0.004,7.824 c 0,0.863 -0.699,1.563 -1.563,1.563 -0.863,0 -1.562,-0.7 -1.562,-1.563 l -0.004,-7.824 h -7.828 c -0.859,0 -1.559,-0.699 -1.559,-1.563 0,-0.863 0.7,-1.562 1.559,-1.562 h 7.828 v -7.816 c 0,-0.86 0.699,-1.563 1.563,-1.563 0.863,0 1.562,0.703 1.562,1.563 v 7.816 h 7.801 c 0.863,0 1.562,0.699 1.562,1.562 0,0.864 -0.699,1.563 -1.562,1.563 z m 7.812,30.469 V 38.336 c 1.723,-0.898 3.301,-2.035 4.688,-3.367 v 17.375 c 0,5.414 -4.238,9.84 -9.578,10.14 L 58.594,62.5 H 16.406 c -5.414,0 -9.84,-4.238 -10.14,-9.578 L 6.25,52.344 V 22.656 c 0,-5.414 4.238,-9.84 9.578,-10.14 L 16.406,12.5 h 19.528 c -0.622,1.48 -1.067,3.051 -1.321,4.688 H 16.406 c -2.871,0 -5.222,2.21 -5.449,5.019 l -0.019,0.449 v 1.34 L 37.5,37.977 41.578,35.828 c 1.371,1.16 2.899,2.141 4.543,2.906 l -7.531,3.965 c -0.582,0.309 -1.27,0.352 -1.883,0.133 L 36.41,42.699 10.938,29.293 v 23.051 c 0,2.871 2.21,5.222 5.019,5.449 l 0.449,0.019 h 42.188 c 2.871,0 5.222,-2.21 5.449,-5.019 z"
       style="fill:#212121;fill-opacity:1;fill-rule:nonzero;stroke:none"
       transform="scale(1.3333333)" />
  </g>
</svg>





