<?xml version="1.0" encoding="UTF-8" standalone="no"?> <svg version="1.1" id="I55ee453ec137400fa991d1383d581aef20251106170412" width="100" height="100" viewBox="0 0 100 100" xmlns="http://www.w3.org/2000/svg" xmlns:svg="http://www.w3.org/2000/svg"> <defs id="I5329a3cbf2364de18b404a588a38747520251106170412" /> <g id="I00339f0c1c0b4071ba455e56cdc3bb8f20251106170412"> <path id="I68073176845e4c24b2fc99ca5deda01720251106170412" d="m 55.469,9.375 c 5.609,0 10.156,4.547 10.156,10.156 v 35.938 c 0,5.609 -4.547,10.156 -10.156,10.156 H 19.531 C 13.922,65.625 9.375,61.078 9.375,55.469 V 19.531 c 0,-5.609 4.547,-10.156 10.156,-10.156 z m 5.469,10.156 c 0,-3.019 -2.45,-5.469 -5.469,-5.469 H 19.531 c -3.019,0 -5.469,2.45 -5.469,5.469 v 3.907 h 46.876 z m 0,17.969 H 14.062 v 9.375 H 60.938 Z M 14.062,55.469 c 0,3.019 2.45,5.469 5.469,5.469 h 35.938 c 3.019,0 5.469,-2.45 5.469,-5.469 V 51.562 H 14.062 Z" style="fill:currentColor;fill-opacity:1;fill-rule:nonzero;stroke:none" transform="scale(1.3333333)" /> </g>
</svg>

