<?xml version="1.0" encoding="UTF-8" standalone="no"?> <svg version="1.1" id="If6d04644b35241708701c4a3b5faea5420251106144520" width="100" height="100" viewBox="0 0 100 100" xmlns="http://www.w3.org/2000/svg" xmlns:svg="http://www.w3.org/2000/svg"> <defs id="I4f73c60fd5e24635a22ef86a38142d1520251106144520" /> <g id="Ie86904c492704928a4b45ee67f4bef4020251106144520"> <path id="I291f501eefff4582a83bd9e66182c80b20251106144520" d="m 37.5,20.312 c 1.293,0 2.344,1.051 2.344,2.344 v 19.532 c 0,1.292 -1.051,2.343 -2.344,2.343 -1.293,0 -2.344,-1.051 -2.344,-2.343 V 22.656 c 0,-1.293 1.051,-2.344 2.344,-2.344 z m 0,34.368 c 1.727,0 3.125,-1.399 3.125,-3.125 0,-1.727 -1.398,-3.125 -3.125,-3.125 -1.727,0 -3.125,1.398 -3.125,3.125 0,1.726 1.398,3.125 3.125,3.125 z m 0,-48.43 c 17.258,0 31.25,13.992 31.25,31.25 0,17.258 -13.992,31.25 -31.25,31.25 -5.059,0 -9.945,-1.203 -14.336,-3.477 L 11.211,68.609 C 9.133,69.191 6.977,67.977 6.398,65.898 6.203,65.211 6.203,64.484 6.398,63.797 L 9.734,51.852 C 7.457,47.457 6.25,42.562 6.25,37.5 6.25,20.242 20.242,6.25 37.5,6.25 Z m 0,4.688 c -14.672,0 -26.562,11.89 -26.562,26.562 0,4.594 1.164,9.012 3.351,12.93 l 0.473,0.843 -3.477,12.45 12.457,-3.477 0.844,0.473 c 3.914,2.179 8.328,3.343 12.914,3.343 14.672,0 26.562,-11.89 26.562,-26.562 0,-14.672 -11.89,-26.562 -26.562,-26.562 z" style="fill:currentColor;fill-opacity:1;fill-rule:nonzero;stroke:none" transform="scale(1.3333333)" /> </g>
</svg>

