<?xml version="1.0" encoding="UTF-8" standalone="no"?> <svg version="1.1" id="I49548988d0524d73a74069d568db000720251110133655" width="100" height="100" viewBox="0 0 100 100" xmlns="http://www.w3.org/2000/svg" xmlns:svg="http://www.w3.org/2000/svg"> <defs id="Ibca278f150da45c4bc16eb538e2912ee20251110133655" /> <g id="I6936edbcdef34683a56af8c44ead2cb320251110133655"> <path id="Ie56b5b9045d84fc0aa5b5d20fe59d60520251110133655" d="M 16.406,9.375 C 10.797,9.375 6.25,13.922 6.25,19.531 V 39.844 C 6.25,45.453 10.797,50 16.406,50 h 7.008 c -0.246,2.629 -2.457,4.688 -5.152,4.688 h -8.106 c -1.293,0 -2.344,1.05 -2.344,2.343 v 9.375 c 0,1.293 1.051,2.344 2.344,2.344 h 9.375 C 29.457,68.75 37.5,60.703 37.5,50.781 V 50 h 5.469 c 5.277,0 9.613,-4.023 10.109,-9.172 l 12.121,7.274 c 0.727,0.437 1.629,0.449 2.363,0.031 0.735,-0.414 1.188,-1.195 1.188,-2.039 V 13.281 c 0,-0.843 -0.453,-1.625 -1.188,-2.039 -0.734,-0.418 -1.636,-0.406 -2.363,0.031 L 53.078,18.547 C 52.582,13.398 48.246,9.375 42.969,9.375 Z M 53.125,23.984 64.062,17.422 V 41.953 L 53.125,35.391 Z M 19.531,64.062 H 12.5 v -4.687 h 5.762 c 5.285,0 9.597,-4.156 9.851,-9.375 h 4.699 v 0.781 c 0,7.336 -5.945,13.281 -13.281,13.281 z M 10.938,19.531 c 0,-3.019 2.449,-5.469 5.468,-5.469 h 26.563 c 3.019,0 5.469,2.45 5.469,5.469 v 20.313 c 0,3.019 -2.45,5.468 -5.469,5.468 H 16.406 c -3.019,0 -5.468,-2.449 -5.468,-5.468 z" style="fill:currentColor;fill-opacity:1;fill-rule:nonzero;stroke:none" transform="scale(1.3333333)" /> </g>
</svg>

