<?xml version="1.0" encoding="UTF-8" standalone="no"?> <svg version="1.1" id="I2f6af6a833394642ace5a34f5f1af48720251106164749" width="100" height="100" viewBox="0 0 100 100" xmlns="http://www.w3.org/2000/svg" xmlns:svg="http://www.w3.org/2000/svg"> <defs id="I9a6f3a904b5941f4bfb5d92bda091b3b20251106164749" /> <g id="Ib673bdcddcf942a29bd7b5aeebbac5a520251106164749"> <path id="Ia11ebe59eccd4778be394ff9438d3ba820251106164749" d="m 24.777,8.035 c 1.11,0 2.008,0.899 2.008,2.008 v 9.375 c 0,4.07 -3.297,7.367 -7.363,7.367 h -9.367 c -1.11,0 -2.008,-0.898 -2.008,-2.008 0,-1.109 0.898,-2.007 2.008,-2.007 h 9.367 c 1.848,0 3.348,-1.5 3.348,-3.352 v -9.375 c 0,-1.109 0.898,-2.008 2.007,-2.008 z m 25.446,0 c 1.109,0 2.011,0.899 2.011,2.008 v 9.375 c 0,1.852 1.496,3.352 3.348,3.352 h 9.375 c 1.109,0 2.008,0.898 2.008,2.007 0,1.11 -0.899,2.008 -2.008,2.008 h -9.375 c -4.07,0 -7.367,-3.297 -7.367,-7.367 v -9.375 c 0,-1.109 0.898,-2.008 2.008,-2.008 z M 8.047,50.223 c 0,-1.11 0.898,-2.008 2.008,-2.008 h 9.367 c 4.066,0 7.363,3.297 7.363,7.367 v 9.375 c 0,1.109 -0.898,2.008 -2.008,2.008 -1.109,0 -2.007,-0.899 -2.007,-2.008 v -9.375 c 0,-1.852 -1.5,-3.352 -3.348,-3.352 h -9.367 c -1.11,0 -2.008,-0.898 -2.008,-2.007 z m 40.168,5.359 c 0,-4.07 3.297,-7.367 7.367,-7.367 h 9.375 c 1.109,0 2.008,0.898 2.008,2.008 0,1.109 -0.899,2.007 -2.008,2.007 h -9.375 c -1.852,0 -3.348,1.5 -3.348,3.352 v 9.375 c 0,1.109 -0.902,2.008 -2.011,2.008 -1.11,0 -2.008,-0.899 -2.008,-2.008 z" style="fill:currentColor;fill-opacity:1;fill-rule:nonzero;stroke:none" transform="scale(1.3333333)" /> </g>
</svg>

