<?xml version="1.0" encoding="UTF-8" standalone="no"?> <svg version="1.1" id="I4206c0a4c9fd458b960d6155a1846df720251106143239" width="100" height="100" viewBox="0 0 100 100" xmlns="http://www.w3.org/2000/svg" xmlns:svg="http://www.w3.org/2000/svg"> <defs id="Ie3d851febac143308f58ed818c0481e220251106143239" /> <g id="I86611f993a4f4419abbcdcc1aedc217420251106143239"> <path id="Ic63d8be3b0c246f5a4f9775807256b0320251106143239" d="m 43.516,7.824 c 2.492,0 4.8,1.321 6.062,3.469 l 2.543,4.336 h 6.473 c 5.609,0 10.156,4.547 10.156,10.156 v 29.688 c 0,5.609 -4.547,10.156 -10.156,10.156 H 16.406 C 10.797,65.629 6.25,61.082 6.25,55.473 V 25.785 c 0,-5.609 4.547,-10.156 10.156,-10.156 h 6.5 l 2.735,-4.453 C 26.918,9.094 29.188,7.824 31.633,7.824 Z M 37.5,25.004 c -7.766,0 -14.062,6.293 -14.062,14.062 0,7.766 6.296,14.063 14.062,14.063 7.766,0 14.062,-6.297 14.062,-14.063 0,-7.769 -6.296,-14.062 -14.062,-14.062 z m 0,4.687 c 5.18,0 9.375,4.196 9.375,9.375 0,5.176 -4.195,9.375 -9.375,9.375 -5.18,0 -9.375,-4.199 -9.375,-9.375 0,-5.179 4.195,-9.375 9.375,-9.375 z" style="fill:currentColor;fill-opacity:1;fill-rule:nonzero;stroke:none" transform="scale(1.3333333)" /> </g>
</svg>

