<?xml version="1.0" encoding="UTF-8" standalone="no"?> <svg version="1.1" id="I4099401f48214630b01530d199e0b43c20251106123600" width="100" height="100" viewBox="0 0 100 100" xmlns="http://www.w3.org/2000/svg" xmlns:svg="http://www.w3.org/2000/svg"> <defs id="Ia8819b71dec0499b832c1c9bcd10ca7e20251106123600" /> <g id="If1b73eaf438748c69783bab5bed8b0ad20251106123600"> <path id="I785eba57d0e3417ab6e217a8951cc76c20251106123600" d="M 58.125,63.75 H 31.594 c 0.582,-1.145 1.074,-2.395 1.441,-3.75 h 2.59 V 39.375 h -9.43 C 24.156,38.43 22.371,36.91 21.129,35.625 h 14.496 v -18.75 c 0,-0.805 -0.508,-1.492 -1.223,-1.758 L 34.086,15.031 33.75,15 H 16.875 c -0.922,0 -1.687,0.664 -1.844,1.539 L 15,16.875 v 17.184 c -0.836,0.285 -1.617,0.769 -2.266,1.449 -0.429,0.453 -0.929,0.933 -1.484,1.414 V 16.875 c 0,-2.926 2.23,-5.328 5.082,-5.598 L 16.875,11.25 H 33.75 c 2.926,0 5.328,2.23 5.598,5.082 l 0.027,0.543 v 0.953 L 47.582,9.32 c 2.02,-2.097 5.277,-2.285 7.527,-0.519 l 0.434,0.379 10.344,10.218 c 2.07,2.047 2.218,5.305 0.414,7.543 l -0.387,0.434 -8.668,8.246 0.879,0.004 c 2.926,0 5.328,2.23 5.598,5.082 l 0.027,0.543 v 16.875 c 0,2.922 -2.23,5.328 -5.082,5.598 z m 0,-24.375 H 39.375 V 60 h 18.75 c 0.922,0 1.687,-0.664 1.844,-1.539 L 60,58.125 V 41.25 c 0,-0.922 -0.664,-1.688 -1.539,-1.844 z M 39.375,28.91 v 6.711 h 6.711 z M 52.957,11.898 c -0.684,-0.66 -1.699,-0.718 -2.418,-0.199 l -0.258,0.223 -9.808,10.18 c -0.621,0.64 -0.692,1.617 -0.215,2.336 l 0.238,0.289 9.809,9.808 c 0.629,0.629 1.597,0.719 2.324,0.262 l 0.297,-0.231 10.34,-9.847 c 0.648,-0.657 0.714,-1.668 0.203,-2.395 L 63.25,22.066 Z m -34.652,26.2 c 1.902,1.996 5.558,5.172 10.058,5.824 0.899,0.129 1.637,0.875 1.637,1.805 v 8.711 c 0,11.707 -10.441,15.957 -12.695,16.738 -0.285,0.097 -0.575,0.097 -0.856,0 C 14.191,70.395 3.75,66.145 3.75,54.438 v -8.711 c 0,-0.93 0.738,-1.676 1.637,-1.805 4.496,-0.652 8.156,-3.828 10.058,-5.824 0.762,-0.797 2.098,-0.797 2.86,0 z" style="fill:currentColor;fill-opacity:1;fill-rule:nonzero;stroke:none" transform="scale(1.3333333)" /> </g>
</svg>

