<?xml version="1.0" encoding="UTF-8" standalone="no"?> <svg version="1.1" id="I4580be9673f5457a9ac6d787b1a4318020251110124422" width="100" height="100" viewBox="0 0 100 100" xmlns="http://www.w3.org/2000/svg" xmlns:svg="http://www.w3.org/2000/svg"> <defs id="Id43705374bbd4c059aafb3db24602b4920251110124422" /> <g id="Ic7d949988d084ff1a0ea133d885f73ce20251110124422"> <path id="I9ae9383dfda14370b154ebe246d4f2e320251110124422" d="M 21.094,9.375 C 12.895,9.375 6.25,16.02 6.25,24.219 v 21.875 c 0,3.883 3.148,7.031 7.031,7.031 h 0.781 V 27.344 c 0,-5.61 4.547,-10.156 10.157,-10.156 h 35.156 v -0.782 c 0,-3.883 -3.148,-7.031 -7.031,-7.031 z m 39.074,10.937 h 1.551 c 3.722,0 6.765,2.891 7.015,6.551 l 0.016,0.481 v 3.136 c 0,1.293 -1.051,2.344 -2.344,2.344 -1.187,0 -2.168,-0.883 -2.324,-2.027 l -0.02,-0.317 v -3.136 c 0,-1.188 -0.882,-2.168 -2.027,-2.324 L 61.719,25 h -1.551 c -1.293,0 -2.344,-1.051 -2.344,-2.344 0,-1.187 0.883,-2.168 2.028,-2.324 z M 19.531,35.941 c 1.188,0 2.168,0.879 2.324,2.024 l 0.02,0.32 v 7.793 c 0,1.297 -1.051,2.344 -2.344,2.344 -1.187,0 -2.168,-0.883 -2.324,-2.024 l -0.019,-0.32 v -7.793 c 0,-1.297 1.05,-2.344 2.343,-2.344 z m 2.324,17.633 c -0.156,-1.144 -1.136,-2.027 -2.324,-2.027 -1.293,0 -2.343,1.051 -2.343,2.344 v 3.14 l 0.015,0.481 c 0.246,3.66 3.293,6.55 7.016,6.55 h 1.562 l 0.317,-0.019 c 1.144,-0.156 2.027,-1.137 2.027,-2.324 0,-1.293 -1.051,-2.344 -2.344,-2.344 h -1.562 l -0.317,-0.02 c -1.144,-0.156 -2.027,-1.136 -2.027,-2.324 v -3.14 z m 46.895,0.317 c 0,-1.293 -1.051,-2.344 -2.344,-2.344 -1.293,0 -2.344,1.051 -2.344,2.344 v 3.14 c 0,1.293 -1.05,2.344 -2.343,2.344 h -3.133 c -1.297,0 -2.344,1.051 -2.344,2.344 0,1.293 1.047,2.343 2.344,2.343 h 3.133 c 3.883,0 7.031,-3.148 7.031,-7.031 z m -22.648,5.484 h 4.671 c 1.297,0 2.344,1.051 2.344,2.344 0,1.187 -0.879,2.168 -2.023,2.324 l -0.321,0.019 h -4.671 c -1.293,0 -2.344,-1.05 -2.344,-2.343 0,-1.188 0.883,-2.168 2.027,-2.324 z m -7.832,0 h -4.672 l -0.321,0.02 c -1.144,0.156 -2.023,1.136 -2.023,2.324 0,1.293 1.047,2.343 2.344,2.343 h 4.672 l 0.316,-0.019 c 1.144,-0.156 2.027,-1.137 2.027,-2.324 0,-1.293 -1.051,-2.344 -2.343,-2.344 z m 30.46,-21.41 c -0.156,-1.145 -1.136,-2.024 -2.324,-2.024 -1.293,0 -2.344,1.047 -2.344,2.344 v 7.793 l 0.02,0.32 c 0.156,1.141 1.137,2.024 2.324,2.024 1.293,0 2.344,-1.047 2.344,-2.344 V 38.285 Z M 29.695,22.656 c 0,-1.293 -1.047,-2.344 -2.343,-2.344 h -3.133 c -3.883,0 -7.031,3.149 -7.031,7.032 v 3.136 c 0,1.293 1.05,2.344 2.343,2.344 1.293,0 2.344,-1.051 2.344,-2.344 V 27.344 C 21.875,26.051 22.926,25 24.219,25 h 3.133 c 1.296,0 2.343,-1.051 2.343,-2.344 z m 17.957,-2.344 h 4.7 c 1.293,0 2.343,1.051 2.343,2.344 0,1.188 -0.883,2.168 -2.027,2.324 L 52.352,25 h -4.7 c -1.293,0 -2.343,-1.051 -2.343,-2.344 0,-1.187 0.882,-2.168 2.027,-2.324 z m -7.824,0 h -4.672 l -0.316,0.02 c -1.145,0.156 -2.028,1.137 -2.028,2.324 0,1.293 1.051,2.344 2.344,2.344 h 4.672 l 0.32,-0.02 c 1.141,-0.156 2.024,-1.136 2.024,-2.324 0,-1.293 -1.051,-2.344 -2.344,-2.344 z" style="fill:currentColor;fill-opacity:1;fill-rule:nonzero;stroke:none" transform="scale(1.3333333)" /> </g>
</svg>

