<?xml version="1.0" encoding="UTF-8" standalone="no"?> <svg version="1.1" id="I9337a2e3ae714fbca5a6aa76762546a620251106103256" width="100" height="100" viewBox="0 0 100 100" xmlns="http://www.w3.org/2000/svg" xmlns:svg="http://www.w3.org/2000/svg"> <defs id="I26aea1e6aabf464f9f20d7b746f8c6c020251106103256" /> <g id="Iec689265b2dd44f1bbb492187a23d5ed20251106103256"> <path id="I83c6a531d23845eb844cc8792c2867e020251106103256" d="m 54.242,63.617 h -4.687 c -0.371,0 -0.672,0.301 -0.672,0.668 v 4.688 c 0,0.367 0.301,0.672 0.672,0.672 h 4.687 c 0.367,0 0.668,-0.305 0.668,-0.672 v -4.688 c 0,-0.367 -0.301,-0.668 -0.668,-0.668 z M 54.41,5.355 h -4.687 c -0.371,0 -0.672,0.305 -0.672,0.672 v 4.688 c 0,0.367 0.301,0.668 0.672,0.668 h 4.687 c 0.367,0 0.668,-0.301 0.668,-0.668 V 6.027 C 55.078,5.66 54.777,5.355 54.41,5.355 Z M 6.027,25.949 h 4.688 c 0.367,0 0.668,-0.301 0.668,-0.672 V 20.59 c 0,-0.367 -0.301,-0.668 -0.668,-0.668 H 6.027 c -0.367,0 -0.672,0.301 -0.672,0.668 v 4.687 c 0,0.371 0.305,0.672 0.672,0.672 z m 0,-14.566 h 4.688 c 0.367,0 0.668,-0.301 0.668,-0.668 V 6.027 c 0,-0.367 -0.301,-0.672 -0.668,-0.672 H 6.027 C 5.66,5.355 5.355,5.66 5.355,6.027 v 4.688 c 0,0.367 0.305,0.668 0.672,0.668 z m 62.946,52.234 h -4.688 c -0.367,0 -0.668,0.301 -0.668,0.668 v 4.688 c 0,0.367 0.301,0.672 0.668,0.672 h 4.688 c 0.367,0 0.672,-0.305 0.672,-0.672 v -4.688 c 0,-0.367 -0.305,-0.668 -0.672,-0.668 z m 0,-14.566 h -4.688 c -0.367,0 -0.668,0.301 -0.668,0.672 v 4.687 c 0,0.367 0.301,0.668 0.668,0.668 h 4.688 c 0.367,0 0.672,-0.301 0.672,-0.668 v -4.687 c 0,-0.371 -0.305,-0.672 -0.672,-0.672 z m 0,-14.563 h -4.688 c -0.367,0 -0.668,0.301 -0.668,0.668 v 4.688 c 0,0.367 0.301,0.668 0.668,0.668 h 4.688 c 0.367,0 0.672,-0.301 0.672,-0.668 v -4.688 c 0,-0.367 -0.305,-0.668 -0.672,-0.668 z m 0,-14.566 h -4.688 c -0.367,0 -0.668,0.301 -0.668,0.668 v 4.687 c 0,0.371 0.301,0.672 0.668,0.672 h 4.688 c 0.367,0 0.672,-0.301 0.672,-0.672 V 20.59 c 0,-0.367 -0.305,-0.668 -0.672,-0.668 z m 0,-14.567 h -4.688 c -0.367,0 -0.668,0.305 -0.668,0.672 v 4.688 c 0,0.367 0.301,0.668 0.668,0.668 h 4.688 c 0.367,0 0.672,-0.301 0.672,-0.668 V 6.027 c 0,-0.367 -0.305,-0.672 -0.672,-0.672 z m -29.129,0 h -4.688 c -0.367,0 -0.668,0.305 -0.668,0.672 v 4.688 c 0,0.367 0.301,0.668 0.668,0.668 h 4.688 c 0.367,0 0.668,-0.301 0.668,-0.668 V 6.027 c 0,-0.367 -0.301,-0.672 -0.668,-0.672 z M 20.59,11.383 h 4.687 c 0.371,0 0.672,-0.301 0.672,-0.668 V 6.027 c 0,-0.367 -0.301,-0.672 -0.672,-0.672 H 20.59 c -0.367,0 -0.668,0.305 -0.668,0.672 v 4.688 c 0,0.367 0.301,0.668 0.668,0.668 z M 39.844,63.617 H 24.609 c -7.308,0 -13.226,-5.918 -13.226,-13.226 V 35.156 c 0,-0.367 -0.301,-0.668 -0.668,-0.668 H 6.027 c -0.367,0 -0.672,0.301 -0.672,0.668 v 15.235 c 0,10.629 8.625,19.254 19.254,19.254 h 15.235 c 0.367,0 0.668,-0.305 0.668,-0.672 v -4.688 c 0,-0.367 -0.301,-0.668 -0.668,-0.668 z" style="fill:currentColor;fill-opacity:1;fill-rule:nonzero;stroke:none" transform="scale(1.3333333)" /> </g>
</svg>

