<?xml version="1.0" encoding="UTF-8" standalone="no"?> <svg version="1.1" id="Ia51d13295adb48e4bac479aee85e2dc020251106105458" width="100" height="100" viewBox="0 0 100 100" xmlns="http://www.w3.org/2000/svg" xmlns:svg="http://www.w3.org/2000/svg"> <defs id="If1ebde4d83904ce5988462002ce2526320251106105458" /> <g id="Ic079fd6e85ac4f98aa38a580afeab00620251106105458"> <path id="If57f3970e7204c81bd7312d7fcc79d1b20251106105458" d="m 53.051,34.938 c 2.812,-2.93 4.539,-6.887 4.539,-11.243 V 22.844 C 57.59,13.836 50.215,6.527 41.125,6.527 h -24.77 c -1.261,0 -2.293,1.032 -2.293,2.297 v 56.844 c 0,1.363 1.106,2.469 2.469,2.469 h 26.676 c 9.797,0 17.731,-7.887 17.731,-17.621 v -0.922 c 0,-6.11 -3.129,-11.492 -7.887,-14.656 z M 22.098,14.566 h 18.808 c 4.782,0 8.649,3.715 8.649,8.309 v 0.797 c 0,4.586 -3.875,8.312 -8.649,8.312 H 22.098 Z m 30.687,35.942 c 0,5.265 -4.328,9.535 -9.668,9.535 H 22.098 V 40.07 h 21.019 c 5.34,0 9.668,4.27 9.668,9.535 z" style="fill:currentColor;fill-opacity:1;fill-rule:nonzero;stroke:none" transform="scale(1.3333333)" /> </g>
</svg>

