<?xml version="1.0" encoding="UTF-8" standalone="no"?> <svg version="1.1" id="I71910d0ce1ff43b08dcdd7e88667b61d20251110123030" width="100" height="100" viewBox="0 0 100 100" xmlns="http://www.w3.org/2000/svg" xmlns:svg="http://www.w3.org/2000/svg"> <defs id="If823d5d553b243f8840fb9091dfcb02d20251110123030" /> <g id="Iedf4412a5ac646f5b48a74b8757f4f8e20251110123030"> <path id="If7223ad7b87e4ce4ae18b85073fc997420251110123030" d="m 37.215,43.75 h 24.512 c 3.886,0 7.031,3.148 7.031,7.031 v 2.828 c 0,3.418 -1.492,6.664 -4.082,8.891 -4.895,4.203 -11.895,6.254 -20.926,6.254 L 43.191,68.75 c 0.942,-1.902 0.711,-4.238 -0.691,-5.926 l -0.348,-0.379 -6.968,-6.949 c 1.504,-2.582 2.316,-5.543 2.316,-8.621 0,-1.066 -0.098,-2.113 -0.285,-3.125 z M 20.312,32.812 c 7.766,0 14.063,6.297 14.063,14.063 0,3.418 -1.219,6.551 -3.246,8.988 l 8.816,8.797 c 0.918,0.914 0.918,2.399 0.004,3.313 -0.832,0.832 -2.133,0.91 -3.051,0.23 l -0.261,-0.226 -9.075,-9.051 c -2.117,1.277 -4.597,2.012 -7.25,2.012 -7.765,0 -14.062,-6.297 -14.062,-14.063 0,-7.766 6.297,-14.063 14.062,-14.063 z m 0,4.688 c -5.175,0 -9.374,4.199 -9.374,9.375 0,5.18 4.199,9.375 9.374,9.375 5.176,0 9.376,-4.195 9.376,-9.375 0,-5.176 -4.2,-9.375 -9.376,-9.375 z M 43.75,6.266 c 8.629,0 15.625,6.996 15.625,15.625 0,8.629 -6.996,15.625 -15.625,15.625 -8.629,0 -15.625,-6.996 -15.625,-15.625 0,-8.629 6.996,-15.625 15.625,-15.625 z" style="fill:currentColor;fill-opacity:1;fill-rule:nonzero;stroke:none" transform="scale(1.3333333)" /> </g>
</svg>

