<?xml version="1.0" encoding="UTF-8" standalone="no"?> <svg version="1.1" id="Idc0f7ae69a41450bb9518577238b048920251106125938" width="100" height="100" viewBox="0 0 100 100" xmlns="http://www.w3.org/2000/svg" xmlns:svg="http://www.w3.org/2000/svg"> <defs id="I4ee44aa811634fedbf627aaae6a76c9020251106125938" /> <g id="I6d7af9357208455198f1fe0c8a44531d20251106125938"> <path id="Ie9e4b62b02184888a5888c2e575e04e420251106125938" d="m 62.277,10.715 c 1.016,0 1.856,0.754 1.989,1.738 l 0.019,0.27 v 21.429 c 0,1.11 -0.898,2.008 -2.008,2.008 -1.019,0 -1.859,-0.758 -1.992,-1.734 L 60.27,34.152 V 17.57 l -42.7,42.7 h 16.582 c 1.016,0 1.856,0.753 1.989,1.734 l 0.019,0.273 c 0,1.016 -0.758,1.856 -1.734,1.989 l -0.274,0.019 H 12.723 c -1.016,0 -1.856,-0.758 -1.989,-1.734 L 10.715,62.277 V 40.848 c 0,-1.11 0.898,-2.008 2.008,-2.008 1.019,0 1.859,0.758 1.992,1.734 l 0.015,0.274 V 57.426 L 57.426,14.73 H 40.848 c -1.016,0 -1.856,-0.753 -1.989,-1.734 L 38.84,12.723 c 0,-1.016 0.758,-1.856 1.734,-1.989 l 0.274,-0.019 z" style="fill:currentColor;fill-opacity:1;fill-rule:nonzero;stroke:none" transform="scale(1.3333333)" /> </g>
</svg>

