<?xml version="1.0" encoding="UTF-8" standalone="no"?> <svg version="1.1" id="If636eb37281a4de6b7335981d6ce0c1d20251106125938" width="100" height="100" viewBox="0 0 100 100" xmlns="http://www.w3.org/2000/svg" xmlns:svg="http://www.w3.org/2000/svg"> <defs id="I6c870a84619f4a77a90d16db73fb7e9520251106125938" /> <g id="I8a5b4d92aec5455097459815a04b07eb20251106125938"> <path id="I8cb120eeddda40f5b55c5b44ac139a6720251106125938" d="m 20.406,7.719 c 0.918,0.914 0.918,2.398 0,3.312 l -7.715,7.719 h 28.325 c 13.589,0 24.609,11.02 24.609,24.609 0,13.59 -11.02,24.61 -24.609,24.61 -13.59,0 -24.61,-11.02 -24.61,-24.61 0,-1.293 1.051,-2.343 2.344,-2.343 1.293,0 2.344,1.05 2.344,2.343 0,11.004 8.918,19.922 19.922,19.922 11.004,0 19.922,-8.918 19.922,-19.922 0,-11.004 -8.918,-19.921 -19.922,-19.921 H 12.691 l 7.715,7.718 c 0.918,0.914 0.918,2.399 0,3.313 -0.914,0.918 -2.398,0.918 -3.312,0 L 5.375,22.75 c -0.918,-0.914 -0.918,-2.398 0,-3.312 L 17.094,7.719 c 0.914,-0.918 2.398,-0.918 3.312,0 z" style="fill:currentColor;fill-opacity:1;fill-rule:nonzero;stroke:none" transform="scale(1.3333333)" /> </g>
</svg>

