<?xml version="1.0" encoding="UTF-8" standalone="no"?> <svg version="1.1" id="Ieda683e19cdb4ce88419c10223b73e7820251110124420" width="100" height="100" viewBox="0 0 100 100" xmlns="http://www.w3.org/2000/svg" xmlns:svg="http://www.w3.org/2000/svg"> <defs id="I70e8126937104c5c8b2281ba09e87f4820251110124420" /> <g id="I018668d837ec43a19ed7b521d714620020251110124420"> <path id="I38096493e2304c9cbdf252cefa93d0d820251110124420" d="m 16.406,10.938 c -3.019,0 -5.468,2.449 -5.468,5.468 v 9.375 c 0,1.293 -1.051,2.344 -2.344,2.344 -1.293,0 -2.344,-1.051 -2.344,-2.344 V 16.406 C 6.25,10.797 10.797,6.25 16.406,6.25 h 9.375 c 1.293,0 2.344,1.051 2.344,2.344 0,1.293 -1.051,2.344 -2.344,2.344 z m 0,53.124 c -3.019,0 -5.468,-2.449 -5.468,-5.468 v -9.375 c 0,-1.293 -1.051,-2.344 -2.344,-2.344 -1.293,0 -2.344,1.051 -2.344,2.344 v 9.375 c 0,5.609 4.547,10.156 10.156,10.156 h 9.375 c 1.293,0 2.344,-1.051 2.344,-2.344 0,-1.293 -1.051,-2.344 -2.344,-2.344 z M 64.062,16.406 c 0,-3.019 -2.449,-5.468 -5.468,-5.468 h -9.375 c -1.293,0 -2.344,-1.051 -2.344,-2.344 0,-1.293 1.051,-2.344 2.344,-2.344 h 9.375 c 5.609,0 10.156,4.547 10.156,10.156 v 9.375 c 0,1.293 -1.051,2.344 -2.344,2.344 -1.293,0 -2.344,-1.051 -2.344,-2.344 z m -5.468,47.656 c 3.019,0 5.468,-2.449 5.468,-5.468 v -9.375 c 0,-1.293 1.051,-2.344 2.344,-2.344 1.293,0 2.344,1.051 2.344,2.344 v 9.375 c 0,5.609 -4.547,10.156 -10.156,10.156 h -9.375 c -1.293,0 -2.344,-1.051 -2.344,-2.344 0,-1.293 1.051,-2.344 2.344,-2.344 z M 21.875,21.875 H 31.25 V 31.25 H 21.875 Z M 43.75,31.25 h -12.5 v 12.5 h -9.375 v 9.375 H 31.25 V 43.75 h 12.5 v 9.375 h 9.375 V 43.75 H 43.75 Z m 0,0 v -9.375 h 9.375 v 9.375 z" style="fill:currentColor;fill-opacity:1;fill-rule:nonzero;stroke:none" transform="scale(1.3333333)" /> </g>
</svg>

