<?xml version="1.0" encoding="UTF-8" standalone="no"?> <svg version="1.1" id="If88415d1cee84afdb353bd21baa9658020251106164749" width="100" height="100" viewBox="0 0 100 100" xmlns="http://www.w3.org/2000/svg" xmlns:svg="http://www.w3.org/2000/svg"> <defs id="Ie2d68a340cbf428c98fe01c3af37e19520251106164749" /> <g id="I4a5e5f5b403d42fe9e1c0f4fff176e5720251106164749"> <path id="Ie4685b5f621d4d41ab2f8d54b4019e2020251106164749" d="M 24.996,28.461 C 22.055,26.488 21.645,22.316 24.152,19.812 L 34.805,9.156 c 2.449,-2.449 6.515,-2.121 8.539,0.692 l 1.773,2.461 -17.746,17.746 z m 5.551,3.723 16.793,-16.793 4.957,6.886 c 0.117,0.164 0.262,0.309 0.426,0.426 l 6.886,4.961 -6.105,6.106 c -5.379,0.222 -10.223,2.503 -13.77,6.078 L 38.102,37.414 C 37.965,37.211 37.789,37.035 37.59,36.898 Z m 27.883,1.964 c 3.242,0.645 6.211,2.051 8.711,4.028 0.843,-2.285 0.136,-4.988 -1.989,-6.52 L 62.691,29.883 Z M 34.887,47.602 c 0.586,-1.684 1.383,-3.27 2.363,-4.723 L 35.191,39.809 30.707,36.805 9.051,58.461 c -2.067,2.066 -2.067,5.422 0,7.488 2.066,2.067 5.422,2.067 7.488,0 z m 2.613,6.773 c 0,9.32 7.555,16.875 16.875,16.875 9.32,0 16.875,-7.555 16.875,-16.875 C 71.25,45.055 63.695,37.5 54.375,37.5 45.055,37.5 37.5,45.055 37.5,54.375 Z m 3.75,0 c 0,-7.25 5.875,-13.125 13.125,-13.125 2.949,0 5.668,0.973 7.859,2.613 L 43.863,62.234 C 42.223,60.043 41.25,57.324 41.25,54.375 Z M 54.375,67.5 c -2.949,0 -5.668,-0.973 -7.859,-2.613 L 64.887,46.516 c 1.64,2.191 2.613,4.91 2.613,7.859 0,7.25 -5.875,13.125 -13.125,13.125 z" style="fill:currentColor;fill-opacity:1;fill-rule:nonzero;stroke:none" transform="scale(1.3333333)" /> </g>
</svg>

