<?xml version="1.0" encoding="UTF-8" standalone="no"?> <svg version="1.1" id="Ia57387e710be4c7084fa73ee34ff222f20251106170956" width="100" height="100" viewBox="0 0 100 100" xmlns="http://www.w3.org/2000/svg" xmlns:svg="http://www.w3.org/2000/svg"> <defs id="I8633224b501f4ae9bf42506b5e2461f020251106170956" /> <g id="Ia137f18671664053bf9319d49146990520251106170956"> <path id="I3faf8ac649a343628df7c84f206edad120251106170956" d="M 67.566,21.496 C 65.809,19.738 63.422,18.75 60.938,18.75 v -7.031 c 0,-0.621 -0.247,-1.219 -0.688,-1.657 -0.438,-0.441 -1.035,-0.687 -1.656,-0.687 -0.621,0 -1.219,0.246 -1.656,0.687 -0.442,0.438 -0.688,1.036 -0.688,1.657 v 7.031 h -9.375 v -7.031 c 0,-0.621 -0.246,-1.219 -0.687,-1.657 -0.438,-0.441 -1.036,-0.687 -1.657,-0.687 -0.621,0 -1.219,0.246 -1.656,0.687 -0.441,0.438 -0.687,1.036 -0.687,1.657 v 7.031 h -9.376 v -7.031 c 0,-0.621 -0.246,-1.219 -0.687,-1.657 -0.437,-0.441 -1.035,-0.687 -1.656,-0.687 -0.621,0 -1.219,0.246 -1.657,0.687 -0.441,0.438 -0.687,1.036 -0.687,1.657 V 18.75 H 18.75 v -7.031 c 0,-0.621 -0.246,-1.219 -0.688,-1.657 -0.437,-0.441 -1.035,-0.687 -1.656,-0.687 -0.621,0 -1.218,0.246 -1.656,0.687 -0.441,0.438 -0.688,1.036 -0.688,1.657 v 7.031 c -2.488,0 -4.871,0.988 -6.628,2.746 -1.758,1.758 -2.746,4.141 -2.746,6.629 v 18.75 c 0,2.484 0.988,4.871 2.746,6.629 1.757,1.758 4.14,2.746 6.628,2.746 v 7.031 c 0,0.621 0.247,1.219 0.688,1.657 0.438,0.441 1.035,0.687 1.656,0.687 0.621,0 1.219,-0.246 1.656,-0.687 0.442,-0.438 0.688,-1.036 0.688,-1.657 V 56.25 h 9.375 v 7.031 c 0,0.621 0.246,1.219 0.687,1.657 0.438,0.441 1.036,0.687 1.657,0.687 0.621,0 1.219,-0.246 1.656,-0.687 0.441,-0.438 0.687,-1.036 0.687,-1.657 V 56.25 h 9.376 v 7.031 c 0,0.621 0.246,1.219 0.687,1.657 0.437,0.441 1.035,0.687 1.656,0.687 0.621,0 1.219,-0.246 1.657,-0.687 0.441,-0.438 0.687,-1.036 0.687,-1.657 V 56.25 h 9.375 v 7.031 c 0,0.621 0.246,1.219 0.688,1.657 0.437,0.441 1.035,0.687 1.656,0.687 0.621,0 1.218,-0.246 1.656,-0.687 0.441,-0.438 0.688,-1.036 0.688,-1.657 V 56.25 c 2.484,0 4.871,-0.988 6.628,-2.746 1.758,-1.758 2.746,-4.145 2.746,-6.629 v -18.75 c 0,-2.484 -0.988,-4.871 -2.746,-6.629 z m -1.941,25.379 c 0,1.242 -0.492,2.437 -1.371,3.316 -0.879,0.879 -2.074,1.371 -3.316,1.371 H 14.062 c -1.242,0 -2.433,-0.492 -3.316,-1.371 C 9.867,49.312 9.375,48.117 9.375,46.875 v -18.75 c 0,-1.242 0.492,-2.434 1.371,-3.316 0.883,-0.879 2.074,-1.371 3.316,-1.371 h 46.876 c 1.242,0 2.437,0.492 3.316,1.371 0.879,0.882 1.371,2.074 1.371,3.316 z M 58.594,28.125 H 16.406 c -0.621,0 -1.218,0.246 -1.656,0.687 -0.441,0.438 -0.688,1.036 -0.688,1.657 v 14.062 c 0,0.621 0.247,1.219 0.688,1.657 0.438,0.441 1.035,0.687 1.656,0.687 h 42.188 c 0.621,0 1.218,-0.246 1.656,-0.687 0.441,-0.438 0.688,-1.036 0.688,-1.657 V 30.469 c 0,-0.621 -0.247,-1.219 -0.688,-1.657 -0.438,-0.441 -1.035,-0.687 -1.656,-0.687 z M 56.25,42.188 h -37.5 v -9.376 h 37.5 z" style="fill:currentColor;fill-opacity:1;fill-rule:nonzero;stroke:none" transform="scale(1.3333333)" /> </g>
</svg>

