<?xml version="1.0" encoding="UTF-8" standalone="no"?> <svg version="1.1" id="Iac49f124e6f3453bbb43dd8800495d0d20251106170411" width="100" height="100" viewBox="0 0 100 100" xmlns="http://www.w3.org/2000/svg" xmlns:svg="http://www.w3.org/2000/svg"> <defs id="I434734b0e5cf4159a1f9889204ebd67320251106170411" /> <g id="Ib870e8f89c464748871927d9a7ec1d0420251106170411"> <path id="Ia8042ee8b2dd4f8497e711e955f5279a20251106170411" d="m 37.531,7.031 c 2.297,0.028 4.582,0.293 6.821,0.789 0.976,0.219 1.707,1.035 1.816,2.032 l 0.535,4.769 c 0.238,2.191 2.09,3.852 4.293,3.852 0.594,0.004 1.18,-0.121 1.727,-0.364 l 4.379,-1.921 c 0.91,-0.403 1.972,-0.184 2.652,0.542 3.164,3.379 5.519,7.43 6.891,11.848 0.296,0.953 -0.043,1.992 -0.848,2.582 l -3.879,2.86 c -1.109,0.812 -1.762,2.105 -1.762,3.48 0,1.371 0.653,2.664 1.762,3.477 l 3.883,2.863 c 0.804,0.59 1.144,1.625 0.851,2.578 -1.371,4.422 -3.726,8.473 -6.886,11.852 -0.68,0.726 -1.743,0.945 -2.653,0.542 l -4.394,-1.921 c -1.258,-0.551 -2.703,-0.473 -3.891,0.214 -1.187,0.688 -1.98,1.899 -2.129,3.262 l -0.531,4.774 c -0.106,0.98 -0.824,1.793 -1.785,2.019 -4.528,1.078 -9.242,1.078 -13.77,0 -0.961,-0.226 -1.675,-1.039 -1.785,-2.019 l -0.527,-4.766 c -0.156,-1.363 -0.949,-2.57 -2.137,-3.254 -1.187,-0.683 -2.629,-0.766 -3.879,-0.215 l -4.398,1.922 C 16.977,59.23 15.914,59.012 15.234,58.285 12.07,54.902 9.719,50.844 8.348,46.422 8.055,45.469 8.395,44.434 9.199,43.84 l 3.883,-2.86 c 1.109,-0.816 1.762,-2.105 1.762,-3.48 0,-1.371 -0.653,-2.664 -1.762,-3.477 L 9.199,31.164 c -0.804,-0.59 -1.144,-1.629 -0.851,-2.582 1.371,-4.418 3.73,-8.469 6.89,-11.848 0.68,-0.726 1.746,-0.945 2.657,-0.546 l 4.375,1.925 c 1.257,0.551 2.707,0.469 3.898,-0.23 1.191,-0.688 1.98,-1.903 2.133,-3.266 L 28.832,9.852 C 28.945,8.855 29.676,8.039 30.652,7.82 32.895,7.324 35.184,7.059 37.531,7.031 Z M 42.422,25 H 32.195 l 9.703,12.5 -8.664,10.98 c -0.32,0.407 -0.25,0.997 0.157,1.317 C 33.555,49.93 33.762,50 33.973,50 h 8.449 c 0.289,0 0.562,-0.133 0.742,-0.363 l 8.68,-11.18 c 0.437,-0.562 0.437,-1.352 0,-1.914 l -8.68,-11.18 C 42.984,25.133 42.711,25 42.422,25 Z m -12.18,2.508 -7.074,9.027 c -0.383,0.485 -0.438,1.141 -0.164,1.672 l 0.164,0.258 6.254,7.984 0.156,0.156 c 0.344,0.274 0.828,0.266 1.164,0 l 0.153,-0.152 4.175,-5.25 c 0.215,-0.269 0.258,-0.633 0.133,-0.941 L 35.074,40.043 33.078,37.5 35.52,34.387 Z" style="fill:currentColor;fill-opacity:1;fill-rule:nonzero;stroke:none" transform="scale(1.3333333)" /> </g>
</svg>

