<?xml version="1.0" encoding="UTF-8" standalone="no"?> <svg version="1.1" id="I428b97508ff74c77bb0bb14a81510c7b20251106170956" width="100" height="100" viewBox="0 0 100 100" xmlns="http://www.w3.org/2000/svg" xmlns:svg="http://www.w3.org/2000/svg"> <defs id="If7536dba2dc448538951ff7d7f6b1fb320251106170956" /> <g id="If98c302fb15f41e38918f31d76f315db20251106170956"> <path id="Ifb2e6a673a6841b1a48880322ad139be20251106170956" d="m 54.375,41.25 c 4.988,0 9.559,-1.77 13.125,-4.715 v 17.84 c 0,5.176 -4.195,9.375 -9.375,9.375 H 16.875 C 11.699,63.75 7.5,59.551 7.5,54.375 V 27.648 l 29.051,17.094 c 0.586,0.344 1.312,0.344 1.898,0 l 8.363,-4.922 c 2.344,0.922 4.895,1.43 7.563,1.43 z M 16.875,15 h 17.652 c -0.507,1.789 -0.777,3.676 -0.777,5.625 0,7.145 3.633,13.445 9.156,17.145 L 37.5,40.949 7.559,23.336 C 8.074,18.648 12.047,15 16.875,15 Z m 37.5,22.5 c 9.32,0 16.875,-7.555 16.875,-16.875 0,-9.32 -7.555,-16.875 -16.875,-16.875 -9.32,0 -16.875,7.555 -16.875,16.875 0,9.32 7.555,16.875 16.875,16.875 z m -3.75,-24.375 v 15 c 0,1.035 -0.84,1.875 -1.875,1.875 -1.035,0 -1.875,-0.84 -1.875,-1.875 v -15 c 0,-1.035 0.84,-1.875 1.875,-1.875 1.035,0 1.875,0.84 1.875,1.875 z m 11.25,0 v 15 C 61.875,29.16 61.035,30 60,30 58.965,30 58.125,29.16 58.125,28.125 v -15 c 0,-1.035 0.84,-1.875 1.875,-1.875 1.035,0 1.875,0.84 1.875,1.875 z" style="fill:currentColor;fill-opacity:1;fill-rule:nonzero;stroke:none" transform="scale(1.3333333)" /> </g>
</svg>

