<?xml version="1.0" encoding="UTF-8" standalone="no"?> <svg version="1.1" id="Iefd560ef722047b884edc3dbc0c4697a20251106102215" width="100" height="100" viewBox="0 0 100 100" xmlns="http://www.w3.org/2000/svg" xmlns:svg="http://www.w3.org/2000/svg"> <defs id="I0c1bff117c024ab888f4d6c2b9d90aff20251106102215" /> <g id="Iea022cfc968a4aecbf841870323bbbfd20251106102215"> <path id="Id41790e56569423a8d8aca915bf9af2320251106102215" d="M 68.305,4.02 H 6.695 C 5.215,4.02 4.02,5.215 4.02,6.695 v 61.61 c 0,1.48 1.195,2.675 2.675,2.675 h 61.61 c 1.48,0 2.675,-1.195 2.675,-2.675 V 6.695 c 0,-1.48 -1.195,-2.675 -2.675,-2.675 z m -2.68,61.605 H 50.215 V 45.051 h 8.707 L 60.227,34.945 H 50.215 v -6.453 c 0,-2.93 0.812,-4.922 5.004,-4.922 h 5.351 v -9.039 c -0.929,-0.125 -4.101,-0.402 -7.8,-0.402 -7.719,0 -13,4.715 -13,13.359 v 7.45 h -8.723 v 10.105 h 8.73 V 65.625 H 9.375 V 9.375 h 56.25 z" style="fill:currentColor;fill-opacity:1;fill-rule:nonzero;stroke:none" transform="scale(1.3333333)" /> </g>
</svg>

