<?xml version="1.0" encoding="UTF-8" standalone="no"?> <svg version="1.1" id="I433ecd2ff4494e719ae0a45faead9a5020251110133655" width="100" height="100" viewBox="0 0 100 100" xmlns="http://www.w3.org/2000/svg" xmlns:svg="http://www.w3.org/2000/svg"> <defs id="I425786467cc647f1a6a622ccfc10664320251110133655" /> <g id="Ia2645c25a6a24c209150a58bca74c8e820251110133655"> <path id="Ieb3c10605f044ac6b53988b2fa5662a420251110133655" d="m 24.609,43.359 c 0,-7.121 5.77,-12.89 12.891,-12.89 6.137,0 11.273,4.289 12.574,10.035 -0.621,0.648 -1.32,1.289 -2.461,1.781 -1.629,0.703 -4.308,1.121 -8.937,-0.035 -5.168,-1.293 -8.649,-0.523 -11.082,0.984 -1.188,0.739 -2.059,1.61 -2.715,2.364 l -0.063,0.074 C 24.68,44.922 24.609,44.148 24.609,43.359 Z M 17.578,7.031 c -5.824,0 -10.547,4.723 -10.547,10.547 v 39.844 c 0,5.824 4.723,10.547 10.547,10.547 h 39.844 c 5.824,0 10.547,-4.723 10.547,-10.547 V 17.578 C 67.969,11.754 63.246,7.031 57.422,7.031 Z M 37.5,25.781 c 9.707,0 17.578,7.871 17.578,17.578 0,9.707 -7.871,17.579 -17.578,17.579 -9.707,0 -17.578,-7.872 -17.578,-17.579 0,-9.707 7.871,-17.578 17.578,-17.578 z M 26.953,18.75 c 0,1.941 -1.574,3.516 -3.515,3.516 -1.942,0 -3.516,-1.575 -3.516,-3.516 0,-1.941 1.574,-3.516 3.516,-3.516 1.941,0 3.515,1.575 3.515,3.516 z m 12.891,-2.344 h 11.718 c 1.293,0 2.344,1.051 2.344,2.344 0,1.293 -1.051,2.344 -2.344,2.344 H 39.844 c -1.293,0 -2.344,-1.051 -2.344,-2.344 0,-1.293 1.051,-2.344 2.344,-2.344 z" style="fill:currentColor;fill-opacity:1;fill-rule:nonzero;stroke:none" transform="scale(1.3333333)" /> </g>
</svg>

