<?xml version="1.0" encoding="UTF-8" standalone="no"?> <svg version="1.1" id="I8e45b52ea48d480382a080c5abb4524020251110133655" width="100" height="100" viewBox="0 0 100 100" xmlns="http://www.w3.org/2000/svg" xmlns:svg="http://www.w3.org/2000/svg"> <defs id="Ib6700435cd874f1b9a2ec62c48bdf4d120251110133655" /> <g id="Ia88ca5e1ffd7481bb127523b872c2d7020251110133655"> <path id="If51e59969a3549a992adb14fafa52fae20251110133655" d="m 35.156,9.375 c -7.336,0 -13.281,5.945 -13.281,13.281 0,1.293 1.051,2.344 2.344,2.344 1.293,0 2.343,-1.051 2.343,-2.344 0,-4.746 3.848,-8.594 8.594,-8.594 4.746,0 8.594,3.848 8.594,8.594 0,4.746 -3.848,8.594 -8.594,8.594 H 8.594 c -1.293,0 -2.344,1.051 -2.344,2.344 0,1.293 1.051,2.344 2.344,2.344 h 26.562 c 7.336,0 13.282,-5.946 13.282,-13.282 0,-7.336 -5.946,-13.281 -13.282,-13.281 z m 23.289,18.75 c -4.664,0 -8.722,3.172 -9.855,7.691 l -0.082,0.332 c -0.313,1.258 0.449,2.532 1.703,2.844 1.258,0.313 2.531,-0.449 2.844,-1.703 l 0.082,-0.336 c 0.609,-2.433 2.797,-4.141 5.308,-4.141 h 0.149 c 3.019,0 5.468,2.45 5.468,5.469 0,3.02 -2.449,5.469 -5.468,5.469 h -50 c -1.293,0 -2.344,1.051 -2.344,2.344 0,1.293 1.051,2.344 2.344,2.344 h 38.281 c 2.59,0 4.687,2.097 4.687,4.687 0,2.59 -2.097,4.687 -4.687,4.687 -1.891,0 -3.598,-1.136 -4.328,-2.882 l -0.149,-0.364 c -0.5,-1.195 -1.871,-1.757 -3.066,-1.261 -1.195,0.5 -1.758,1.871 -1.262,3.066 l 0.153,0.359 c 1.453,3.493 4.867,5.77 8.652,5.77 5.176,0 9.375,-4.199 9.375,-9.375 0,-1.707 -0.457,-3.309 -1.254,-4.687 h 3.598 c 5.609,0 10.156,-4.547 10.156,-10.157 0,-5.609 -4.547,-10.156 -10.156,-10.156 z m -31.101,37.5 c 2.156,0 3.906,-1.75 3.906,-3.906 0,-2.157 -1.75,-3.907 -3.906,-3.907 -2.156,0 -3.906,1.75 -3.906,3.907 0,2.156 1.75,3.906 3.906,3.906 z M 15.625,14.844 c 0,2.156 -1.75,3.906 -3.906,3.906 -2.157,0 -3.907,-1.75 -3.907,-3.906 0,-2.156 1.75,-3.906 3.907,-3.906 2.156,0 3.906,1.75 3.906,3.906 z m 44.531,7.031 c 2.156,0 3.906,-1.75 3.906,-3.906 0,-2.157 -1.75,-3.907 -3.906,-3.907 -2.156,0 -3.906,1.75 -3.906,3.907 0,2.156 1.75,3.906 3.906,3.906 z" style="fill:currentColor;fill-opacity:1;fill-rule:nonzero;stroke:none" transform="scale(1.3333333)" /> </g>
</svg>

