<?xml version="1.0" encoding="UTF-8" standalone="no"?> <svg version="1.1" id="Ic3153e7eb82e48048245e98951f47cb720251106171633" width="100" height="100" viewBox="0 0 100 100" xmlns="http://www.w3.org/2000/svg" xmlns:svg="http://www.w3.org/2000/svg"> <defs id="I426719ebc19d4811a723bc405fcf637420251106171633" /> <g id="I514b5fa5a2f141fa85d3c2a8fee0a86f20251106171633"> <path id="I2e745803e13d444499b3770aed5335eb20251106171633" d="m 23.438,37.5 c 0,4.066 -3.297,7.367 -7.368,7.367 -4.066,0 -7.363,-3.301 -7.363,-7.367 0,-4.066 3.297,-7.367 7.363,-7.367 4.071,0 7.368,3.301 7.368,7.367 z m 21.429,0 c 0,4.066 -3.301,7.367 -7.367,7.367 -4.066,0 -7.367,-3.301 -7.367,-7.367 0,-4.066 3.301,-7.367 7.367,-7.367 4.066,0 7.367,3.301 7.367,7.367 z m 14.063,7.367 c 4.066,0 7.363,-3.301 7.363,-7.367 0,-4.066 -3.297,-7.367 -7.363,-7.367 -4.071,0 -7.368,3.301 -7.368,7.367 0,4.066 3.297,7.367 7.368,7.367 z" style="fill:currentColor;fill-opacity:1;fill-rule:nonzero;stroke:none" transform="scale(1.3333333)" /> </g>
</svg>

