<?xml version="1.0" encoding="UTF-8" standalone="no"?> <svg version="1.1" id="I1f3daa5541cb48259d99acf485ba839f20251110130507" width="100" height="100" viewBox="0 0 100 100" xmlns="http://www.w3.org/2000/svg" xmlns:svg="http://www.w3.org/2000/svg"> <defs id="Ieee9ba8c7e1945039c9109abc125a80720251110130507" /> <g id="Idcedda84319a47a5a20d7ab6df155dbc20251110130507"> <path id="I291e24e6fdcd4a149353357d9ad5092e20251110130507" d="m 45.312,6.25 c 2.446,0 4.563,1.406 5.59,3.453 C 50.32,11.039 50,12.512 50,14.062 c 0,0.684 0.062,1.356 0.184,2.004 -1.055,-0.289 -2.164,-0.441 -3.309,-0.441 h -18.75 c -1.656,0 -3.238,0.324 -4.687,0.91 V 12.5 c 0,-3.453 2.796,-6.25 6.25,-6.25 z m 1.563,12.5 c 1.84,0 3.559,0.531 5.008,1.445 0.777,1.153 1.769,2.145 2.922,2.922 0.914,1.449 1.445,3.168 1.445,5.008 v 3.125 c 1.727,0 3.125,1.398 3.125,3.125 V 37.5 c 0,1.727 -1.398,3.125 -3.125,3.125 v 6.25 c 0,5.18 -4.195,9.375 -9.375,9.375 h -18.75 c -5.176,0 -9.375,-4.195 -9.375,-9.375 v -18.75 c 0,-5.176 4.199,-9.375 9.375,-9.375 z m -18.75,40.625 c -1.656,0 -3.238,-0.324 -4.687,-0.91 V 62.5 c 0,3.453 2.796,6.25 6.25,6.25 h 15.624 c 3.454,0 6.25,-2.797 6.25,-6.25 v -4.035 c -1.449,0.586 -3.031,0.91 -4.687,0.91 z M 68.75,14.062 c 0,-4.316 -3.496,-7.812 -7.812,-7.812 -4.317,0 -7.813,3.496 -7.813,7.812 0,4.317 3.496,7.813 7.813,7.813 4.316,0 7.812,-3.496 7.812,-7.813 z" style="fill:currentColor;fill-opacity:1;fill-rule:nonzero;stroke:none" transform="scale(1.3333333)" /> </g>
</svg>

