<?xml version="1.0" encoding="UTF-8" standalone="no"?> <svg version="1.1" id="Ic34d865f84944ef0babf33cc5edbd07920251106170955" width="100" height="100" viewBox="0 0 100 100" xmlns="http://www.w3.org/2000/svg" xmlns:svg="http://www.w3.org/2000/svg"> <defs id="I77caa544387c482c9cb01be15495b23d20251106170955" /> <g id="I56808501b6b64e6bbaa1e3c56c17cb9d20251106170955"> <path id="I99fce702026f439aa1976f50f48af3bc20251106170955" d="m 18.262,14.273 c 10.625,-10.625 27.855,-10.625 38.48,0 10.625,10.629 10.625,27.86 0,38.485 l -3.711,3.668 C 50.297,59.109 46.75,62.559 42.387,66.777 39.66,69.41 35.336,69.41 32.613,66.773 L 21.703,56.164 C 20.332,54.816 19.184,53.684 18.262,52.758 7.633,42.133 7.633,24.902 18.262,14.273 Z m 35.164,3.321 c -8.797,-8.797 -23.055,-8.797 -31.852,0 -8.793,8.793 -8.797,23.054 0,31.851 l 4.649,4.582 c 2.558,2.504 5.777,5.633 9.648,9.379 0.91,0.879 2.352,0.879 3.262,0 L 49.738,53.09 c 1.465,-1.438 2.696,-2.652 3.688,-3.645 8.797,-8.797 8.797,-23.058 0,-31.851 z M 37.5,23.438 c 6.039,0 10.938,4.898 10.938,10.937 0,6.039 -4.895,10.937 -10.938,10.937 -6.039,0 -10.938,-4.898 -10.938,-10.937 0.004,-6.043 4.899,-10.937 10.938,-10.937 z m 0,4.687 c -3.449,0 -6.246,2.797 -6.25,6.25 0,3.449 2.801,6.25 6.25,6.25 3.453,0 6.25,-2.801 6.25,-6.25 0,-3.453 -2.797,-6.25 -6.25,-6.25 z" style="fill:currentColor;fill-opacity:1;fill-rule:nonzero;stroke:none" transform="scale(1.3333333)" /> </g>
</svg>

