<?xml version="1.0" encoding="UTF-8" standalone="no"?> <svg version="1.1" id="I63779d8771b64d69ae85aa523d33909d20251110130510" width="100" height="100" viewBox="0 0 100 100" xmlns="http://www.w3.org/2000/svg" xmlns:svg="http://www.w3.org/2000/svg"> <defs id="Id7dedb812973494aa28495491cad623920251110130510" /> <g id="Ie69d02e8e6fb4f60b45afdd84ff5579f20251110130510"> <path id="I828818cfd2d34b49a7ed5b2a977649e520251110130510" d="m 57.031,9.375 c 4.746,0 8.594,3.848 8.594,8.594 v 19.597 c -1.449,-0.925 -3.02,-1.671 -4.687,-2.211 V 17.969 c 0,-2.157 -1.75,-3.907 -3.907,-3.907 H 17.969 c -2.157,0 -3.907,1.75 -3.907,3.907 v 39.062 c 0,2.157 1.75,3.907 3.907,3.907 h 17.386 c 0.54,1.667 1.286,3.238 2.211,4.687 H 17.969 c -4.746,0 -8.594,-3.848 -8.594,-8.594 V 17.969 c 0,-4.746 3.848,-8.594 8.594,-8.594 z m -12.5,26.563 c 0.508,0 0.977,0.16 1.36,0.433 -2.203,1.063 -4.188,2.508 -5.86,4.254 H 21.094 c -1.293,0 -2.344,-1.051 -2.344,-2.344 0,-1.187 0.883,-2.168 2.027,-2.324 l 0.317,-0.019 z m -23.437,12.5 h 14.261 c -0.484,1.496 -0.796,3.062 -0.921,4.687 h -13.34 c -1.293,0 -2.344,-1.051 -2.344,-2.344 0,-1.187 0.883,-2.168 2.027,-2.324 z m 32.812,-25 H 21.094 l -0.317,0.019 c -1.144,0.156 -2.027,1.137 -2.027,2.324 0,1.293 1.051,2.344 2.344,2.344 h 32.812 l 0.317,-0.02 c 1.144,-0.156 2.027,-1.136 2.027,-2.324 0,-1.293 -1.051,-2.343 -2.344,-2.343 z m -14.844,25.402 1.399,1.344 c 2.555,2.457 2.555,6.55 0,9.007 l -1.399,1.344 c 0.629,1.793 1.536,3.445 2.665,4.906 l 1.882,-0.558 c 3.43,-1.012 7.008,1.055 7.848,4.531 l 0.539,2.234 c 0.875,0.149 1.774,0.227 2.692,0.227 0.917,0 1.816,-0.078 2.691,-0.227 l 0.539,-2.234 c 0.84,-3.476 4.418,-5.543 7.848,-4.531 l 1.882,0.558 c 1.129,-1.461 2.036,-3.113 2.664,-4.906 l -1.398,-1.344 c -2.555,-2.457 -2.555,-6.55 0,-9.007 l 1.398,-1.344 c -0.628,-1.793 -1.535,-3.445 -2.664,-4.906 l -1.882,0.558 c -3.43,1.012 -7.008,-1.054 -7.848,-4.531 L 57.379,37.727 C 56.504,37.578 55.605,37.5 54.688,37.5 c -0.918,0 -1.817,0.078 -2.692,0.227 l -0.539,2.234 c -0.84,3.477 -4.418,5.543 -7.848,4.531 l -1.882,-0.558 c -1.129,1.461 -2.036,3.113 -2.665,4.906 z m 15.626,10.535 c -2.5,0 -4.532,-2.098 -4.532,-4.687 0,-2.59 2.032,-4.688 4.532,-4.688 2.5,0 4.531,2.098 4.531,4.688 0,2.589 -2.031,4.687 -4.531,4.687 z" style="fill:currentColor;fill-opacity:1;fill-rule:nonzero;stroke:none" transform="scale(1.3333333)" /> </g>
</svg>

