<?xml version="1.0" encoding="UTF-8" standalone="no"?>
<!-- Created with Inkscape (http://www.inkscape.org/) -->

<svg
   version="1.1"
   id="Id2eba3a959984054b5867d0731460e6320251030195519"
   width="100"
   height="100"
   viewBox="0 0 100 100"
   sodipodi:docname="output.ai"
   xmlns:inkscape="http://www.inkscape.org/namespaces/inkscape"
   xmlns:sodipodi="http://sodipodi.sourceforge.net/DTD/sodipodi-0.dtd"
   xmlns="http://www.w3.org/2000/svg"
   xmlns:svg="http://www.w3.org/2000/svg">
  <defs
     id="Iead87e32e1de495bb763c0bb9d51c36420251030195519" />
  <sodipodi:namedview
     id="I0545b53f93344d63831d3587175d5ebe20251030195519"
     pagecolor="#ffffff"
     bordercolor="#000000"
     borderopacity="0.25"
     inkscape:showpageshadow="2"
     inkscape:pageopacity="0.0"
     inkscape:pagecheckerboard="0"
     inkscape:deskcolor="#d1d1d1">
    <inkscape:page
       x="0"
       y="0"
       inkscape:label="1"
       id="I0d4dfa339a874c8da5a2ad74fd62044420251030195519"
       width="100"
       height="100"
       margin="0"
       bleed="0" />
  </sodipodi:namedview>
  <g
     id="I1a3778a298f3468d9919fd4b90ee788820251030195519"
     inkscape:groupmode="layer"
     inkscape:label="1">
    <path
       id="I0c6bd799c97b43bca1b4b0e96de145a520251030195519"
       d="m 22.5,11.25 c -2.07,0 -3.75,1.68 -3.75,3.75 v 7.5 c 0,2.07 1.68,3.75 3.75,3.75 h 30 c 2.07,0 3.75,-1.68 3.75,-3.75 V 15 c 0,-2.07 -1.68,-3.75 -3.75,-3.75 z M 15,15 c 0,-4.141 3.359,-7.5 7.5,-7.5 h 30 c 4.141,0 7.5,3.359 7.5,7.5 v 7.5 c 0,4.141 -3.359,7.5 -7.5,7.5 h -30 C 18.359,30 15,26.641 15,22.5 Z m 7.5,48.75 c -2.07,0 -3.75,-1.68 -3.75,-3.75 v -7.5 c 0,-2.07 1.68,-3.75 3.75,-3.75 h 30 c 2.07,0 3.75,1.68 3.75,3.75 V 60 c 0,2.07 -1.68,3.75 -3.75,3.75 z M 15,60 c 0,4.141 3.359,7.5 7.5,7.5 h 30 C 56.641,67.5 60,64.141 60,60 V 52.5 C 60,48.359 56.641,45 52.5,45 h -30 C 18.359,45 15,48.359 15,52.5 Z M 7.5,37.5 c 0,-1.035 0.84,-1.875 1.875,-1.875 h 56.25 c 1.035,0 1.875,0.84 1.875,1.875 0,1.035 -0.84,1.875 -1.875,1.875 H 9.375 C 8.34,39.375 7.5,38.535 7.5,37.5 Z"
       style="fill:#212121;fill-opacity:1;fill-rule:nonzero;stroke:none"
       transform="scale(1.3333333)" />
  </g>
</svg>

