<?xml version="1.0" encoding="UTF-8" standalone="no"?> <svg version="1.1" id="I7886623375de44eda6e6b2f192fa0e0020251110124420" width="100" height="100" viewBox="0 0 100 100" xmlns="http://www.w3.org/2000/svg" xmlns:svg="http://www.w3.org/2000/svg"> <defs id="I75ba5d5320b0489c9a3a6232ff4572a520251110124420" /> <g id="Iff07da35f1434f4aa530675c3e4f56e720251110124420"> <path id="Ib7ff7255bbc8475bb40f33dbd24e6bbc20251110124420" d="m 34.77,5.355 c -1.508,0 -2.829,1.012 -3.227,2.465 L 15.695,65.625 H 8.258 c -1.11,0 -2.008,0.898 -2.008,2.008 0,1.109 0.898,2.012 2.008,2.012 h 58.48 c 1.114,0 2.012,-0.903 2.012,-2.012 0,-1.11 -0.898,-2.008 -2.012,-2.008 H 59.305 L 43.457,7.82 C 43.059,6.367 41.734,5.355 40.227,5.355 Z M 20.043,64.957 23.348,52.898 c 0.031,0.004 0.058,0.004 0.09,0.004 h 20.089 c 1.11,0 2.008,-0.898 2.008,-2.007 0,-1.11 -0.898,-2.012 -2.008,-2.012 H 24.449 l 1.836,-6.695 h 14.563 c 1.109,0 2.007,-0.899 2.007,-2.008 0,-1.11 -0.898,-2.012 -2.007,-2.012 H 27.387 L 35.281,9.375 h 4.434 l 15.238,55.582 z" style="fill:currentColor;fill-opacity:1;fill-rule:nonzero;stroke:none" transform="scale(1.3333333)" /> </g>
</svg>

