<?xml version="1.0" encoding="UTF-8" standalone="no"?> <svg version="1.1" id="I16afe891883b4b97b71b361a430a985f20251106154011" width="100" height="100" viewBox="0 0 100 100" xmlns="http://www.w3.org/2000/svg" xmlns:svg="http://www.w3.org/2000/svg"> <defs id="I4a101ebfd10d43df8b3d89ba7f2988da20251106154011" /> <g id="I4c6f3c61b4d14892af8dd27364a8d2f320251106154011"> <path id="I2d7796055e854da68043ed926008034d20251106154011" d="m 65.625,57.035 c 0,-3.883 -3.148,-7.027 -7.027,-7.027 H 16.402 c -3.879,0 -7.027,3.144 -7.027,7.027 0,3.883 3.148,7.027 7.027,7.027 h 42.196 c 3.879,0 7.027,-3.144 7.027,-7.027 z m -12.5,-20.312 c 0,-3.883 -3.148,-7.028 -7.027,-7.028 H 16.402 c -3.879,0 -7.027,3.145 -7.027,7.028 0,3.882 3.148,7.027 7.027,7.027 h 29.696 c 3.879,0 7.027,-3.145 7.027,-7.027 z M 40.625,16.41 c 0,-3.883 -3.148,-7.027 -7.027,-7.027 H 16.402 c -3.879,0 -7.027,3.144 -7.027,7.027 0,3.883 3.148,7.028 7.027,7.028 h 17.196 c 3.879,0 7.027,-3.145 7.027,-7.028 z m 20.313,40.625 c 0,1.293 -1.047,2.34 -2.34,2.34 H 16.402 c -1.293,0 -2.34,-1.047 -2.34,-2.34 0,-1.293 1.047,-2.34 2.34,-2.34 h 42.196 c 1.293,0 2.34,1.047 2.34,2.34 z m -12.5,-20.312 c 0,1.293 -1.047,2.339 -2.34,2.339 H 16.402 c -1.293,0 -2.34,-1.046 -2.34,-2.339 0,-1.293 1.047,-2.34 2.34,-2.34 h 29.696 c 1.293,0 2.34,1.047 2.34,2.34 z M 35.938,16.41 c 0,1.293 -1.047,2.34 -2.34,2.34 H 16.402 c -1.293,0 -2.34,-1.047 -2.34,-2.34 0,-1.293 1.047,-2.34 2.34,-2.34 h 17.196 c 1.293,0 2.34,1.047 2.34,2.34 z" style="fill:currentColor;fill-opacity:1;fill-rule:nonzero;stroke:none" transform="scale(1.3333333)" /> </g>
</svg>

