<?xml version="1.0" encoding="UTF-8" standalone="no"?> <svg version="1.1" id="I6c7a621fc8b246f88cacc7257cd5f7ab20251110123029" width="100" height="100" viewBox="0 0 100 100" xmlns="http://www.w3.org/2000/svg" xmlns:svg="http://www.w3.org/2000/svg"> <defs id="Iaab02c836237443798a8443e0b6a3b6820251110123029" /> <g id="Ie1d0caa2d13c44928a365ff725a20ab020251110123029"> <path id="I17b15c8b192145d6929b581d92d998be20251110123029" d="m 59.602,10.715 c 5.546,0 10.043,4.496 10.043,10.043 v 33.484 c 0,5.547 -4.497,10.043 -10.043,10.043 H 15.414 C 9.863,64.285 5.367,59.789 5.367,54.242 V 20.758 c 0,-5.547 4.496,-10.043 10.047,-10.043 z M 15.414,14.73 c -3.332,0 -6.027,2.7 -6.027,6.028 v 33.484 c 0,3.328 2.695,6.028 6.027,6.028 H 45.551 V 14.73 Z m 34.152,45.54 h 10.036 c 3.328,-0.004 6.027,-2.7 6.027,-6.028 V 20.758 c 0,-3.328 -2.699,-6.024 -6.027,-6.028 H 49.566 Z" style="fill:currentColor;fill-opacity:1;fill-rule:nonzero;stroke:none" transform="scale(1.3333333)" /> </g>
</svg>

