<?xml version="1.0" encoding="UTF-8" standalone="no"?> <svg version="1.1" id="I85fac29f000a49028e29d493acac438620251106142135" width="100" height="100" viewBox="0 0 100 100" xmlns="http://www.w3.org/2000/svg" xmlns:svg="http://www.w3.org/2000/svg"> <defs id="Id969efd97f1a4d189bf0767d9cd18e5020251106142135" /> <g id="I3173a3aeec284f87a09493ccf867fcee20251106142135"> <path id="I3e248d78976642de8c666d85a9fa3a7420251106142135" d="m 37.504,24.102 c 2.219,0 4.016,-1.797 4.016,-4.016 0,-2.219 -1.797,-4.02 -4.016,-4.02 -2.219,0 -4.02,1.801 -4.02,4.02 0,2.219 1.801,4.016 4.02,4.016 z M 39.887,6.141 c -1.418,-1.043 -3.352,-1.043 -4.77,0 L 9.676,24.906 c -3.121,2.301 -1.492,7.25 2.386,7.25 h 1.336 v 19.403 c -3.144,1.312 -5.359,4.418 -5.359,8.039 v 4.019 c 0,1.11 0.902,2.008 2.012,2.008 H 35.715 C 35.219,64.371 34.914,63.02 34.84,61.605 H 12.059 v -2.007 c 0,-2.59 2.097,-4.688 4.687,-4.688 H 36.34 c 0.844,-1.566 2.004,-2.933 3.398,-4.019 H 39.512 V 32.156 h 7.367 V 48.23 c 0.219,-0.011 0.441,-0.019 0.668,-0.019 h 3.348 V 32.156 h 6.695 v 16.055 h 4.019 V 32.156 h 1.336 c 3.875,0 5.504,-4.949 2.383,-7.25 z M 17.414,50.891 V 32.156 h 6.695 V 50.891 Z M 35.492,32.156 V 50.891 H 28.129 V 32.156 Z M 12.062,28.141 37.504,9.375 62.945,28.141 Z M 47.547,54.91 c -3.328,0 -6.027,2.699 -6.027,6.028 0,3.328 2.699,6.027 6.027,6.027 h 1.34 c 1.109,0 2.008,0.898 2.008,2.008 0,1.109 -0.899,2.007 -2.008,2.007 h -1.34 C 42,70.98 37.504,66.484 37.504,60.938 37.504,55.391 42,50.891 47.547,50.891 h 1.34 c 1.109,0 2.008,0.898 2.008,2.011 0,1.11 -0.899,2.008 -2.008,2.008 z m -2.008,6.028 c 0,-1.11 0.899,-2.012 2.008,-2.012 h 14.73 c 1.11,0 2.008,0.902 2.008,2.012 0,1.109 -0.898,2.007 -2.008,2.007 h -14.73 c -1.109,0 -2.008,-0.898 -2.008,-2.007 z m 16.738,6.027 c 3.328,0 6.028,-2.699 6.028,-6.027 0,-3.329 -2.7,-6.028 -6.028,-6.028 h -1.339 c -1.11,0 -2.008,-0.898 -2.008,-2.008 0,-1.113 0.898,-2.011 2.008,-2.011 h 1.339 c 5.547,0 10.043,4.5 10.043,10.047 0,5.546 -4.496,10.042 -10.043,10.042 h -1.339 c -1.11,0 -2.008,-0.898 -2.008,-2.007 0,-1.11 0.898,-2.008 2.008,-2.008 z" style="fill:currentColor;fill-opacity:1;fill-rule:nonzero;stroke:none" transform="scale(1.3333333)" /> </g>
</svg>

