<?xml version="1.0" encoding="UTF-8" standalone="no"?> <svg version="1.1" id="I38c0d22b6b714c82b0fbd83114d28bc820251106103256" width="100" height="100" viewBox="0 0 100 100" xmlns="http://www.w3.org/2000/svg" xmlns:svg="http://www.w3.org/2000/svg"> <defs id="I137f5fe84642452a82d884366ad3d49720251106103256" /> <g id="I3b56c1fc3a3a4ff1b195ca59690e995620251106103256"> <path id="Ifb03043b85bd4683b6f5f44ff22b706120251106103256" d="M 37.5,0 C 16.809,0 0,16.809 0,37.5 0,58.191 16.809,75 37.5,75 58.191,75 75,58.191 75,37.5 75,16.809 58.191,0 37.5,0 m 0,3.262 c 18.93,0 34.238,15.308 34.238,34.238 0,18.93 -15.308,34.238 -34.238,34.238 -3.461,0 -6.801,-0.515 -9.953,-1.468 1.406,-2.348 3.215,-5.7 3.933,-8.465 0.43,-1.641 2.188,-8.336 2.188,-8.336 1.141,2.179 4.477,4.027 8.027,4.027 10.575,0 18.196,-9.723 18.196,-21.805 0,-11.582 -9.453,-20.246 -21.614,-20.246 -15.129,0 -23.16,10.157 -23.16,21.211 0,5.141 2.735,11.543 7.113,13.582 0.665,0.309 1.02,0.176 1.172,-0.468 0.118,-0.489 0.711,-2.868 0.973,-3.973 0.086,-0.356 0.047,-0.66 -0.238,-1.008 -1.449,-1.758 -2.614,-4.988 -2.614,-8 0,-7.73 5.856,-15.215 15.829,-15.215 8.609,0 14.64,5.871 14.64,14.262 0,9.484 -4.789,16.055 -11.015,16.055 -3.442,0 -6.02,-2.848 -5.192,-6.336 0.988,-4.168 2.903,-8.664 2.903,-11.672 0,-2.692 -1.446,-4.938 -4.438,-4.938 -3.516,0 -6.34,3.637 -6.34,8.516 0,3.101 1.051,5.203 1.051,5.203 0,0 -3.477,14.688 -4.113,17.422 C 24.211,62.82 24.383,66.5 24.645,69.238 12.102,64.16 3.262,51.879 3.262,37.5 3.262,18.57 18.57,3.262 37.5,3.262" style="fill:currentColor;fill-opacity:1;fill-rule:evenodd;stroke:none" transform="scale(1.3333333)" /> </g>
</svg>

