<?xml version="1.0" encoding="UTF-8" standalone="no"?> <svg version="1.1" id="I7ddd69f830854650a58c10a47c96f88f20251110130510" width="100" height="100" viewBox="0 0 100 100" xmlns="http://www.w3.org/2000/svg" xmlns:svg="http://www.w3.org/2000/svg"> <defs id="I8baa06cffda8460385c9b46551339bd720251110130510" /> <g id="I1248207fa52d405690d12e97e6d4830c20251110130510"> <path id="I55a5d0f7555b4533959fd420ca6f558020251110130510" d="m 18.082,8.035 c -5.551,0 -10.047,4.496 -10.047,10.047 v 38.836 c 0,5.551 4.496,10.047 10.047,10.047 h 38.836 c 5.551,0 10.047,-4.496 10.047,-10.047 V 18.082 c 0,-5.551 -4.496,-10.047 -10.047,-10.047 z m 14.063,16.742 c 0,-1.109 0.898,-2.007 2.007,-2.007 h 20.09 c 1.11,0 2.008,0.898 2.008,2.007 0,1.11 -0.898,2.008 -2.008,2.008 h -20.09 c -1.109,0 -2.007,-0.898 -2.007,-2.008 z m 2.007,11.383 h 20.09 c 1.11,0 2.008,0.899 2.008,2.008 0,1.109 -0.898,2.012 -2.008,2.012 h -20.09 c -1.109,0 -2.007,-0.903 -2.007,-2.012 0,-1.109 0.898,-2.008 2.007,-2.008 z m -2.007,15.402 c 0,-1.109 0.898,-2.007 2.007,-2.007 h 20.09 c 1.11,0 2.008,0.898 2.008,2.007 0,1.11 -0.898,2.008 -2.008,2.008 h -20.09 c -1.109,0 -2.007,-0.898 -2.007,-2.008 z M 23.438,28.125 c -1.848,0 -3.348,-1.5 -3.348,-3.348 0,-1.851 1.5,-3.347 3.348,-3.347 1.847,0 3.347,1.496 3.347,3.347 0,1.848 -1.5,3.348 -3.347,3.348 z m 3.347,10.043 c 0,1.852 -1.5,3.352 -3.347,3.352 -1.848,0 -3.348,-1.5 -3.348,-3.352 0,-1.848 1.5,-3.348 3.348,-3.348 1.847,0 3.347,1.5 3.347,3.348 z M 23.438,54.91 c -1.848,0 -3.348,-1.5 -3.348,-3.348 0,-1.847 1.5,-3.347 3.348,-3.347 1.847,0 3.347,1.5 3.347,3.347 0,1.848 -1.5,3.348 -3.347,3.348 z" style="fill:currentColor;fill-opacity:1;fill-rule:nonzero;stroke:none" transform="scale(1.3333333)" /> </g>
</svg>

