<?xml version="1.0" encoding="UTF-8" standalone="no"?> <svg version="1.1" id="I2126c96166a1413883d5c0be63c3c1ce20251106144521" width="100" height="100" viewBox="0 0 100 100" xmlns="http://www.w3.org/2000/svg" xmlns:svg="http://www.w3.org/2000/svg"> <defs id="Iccdc314b53fd43a79305467739a98cf220251106144521" /> <g id="I05240eb3d1384b2eb1b46238793738e320251106144521"> <path id="I8368e341c51a4930a6271a5bd1e58a9320251106144521" d="m 19.531,9.375 c -5.609,0 -10.156,4.547 -10.156,10.156 v 35.938 c 0,5.609 4.547,10.156 10.156,10.156 h 35.938 c 5.609,0 10.156,-4.547 10.156,-10.156 V 19.531 c 0,-5.609 -4.547,-10.156 -10.156,-10.156 z m -3.906,10.156 c 0,-2.156 1.75,-3.906 3.906,-3.906 h 35.938 c 2.156,0 3.906,1.75 3.906,3.906 v 35.938 c 0,2.156 -1.75,3.906 -3.906,3.906 H 19.531 c -2.156,0 -3.906,-1.75 -3.906,-3.906 z m 7.813,0.781 c -1.727,0 -3.126,1.399 -3.126,3.126 v 28.124 c 0,1.727 1.399,3.126 3.126,3.126 h 28.124 c 1.727,0 3.126,-1.399 3.126,-3.126 V 23.438 c 0,-1.727 -1.399,-3.126 -3.126,-3.126 z" style="fill:currentColor;fill-opacity:1;fill-rule:nonzero;stroke:none" transform="scale(1.3333333)" /> </g>
</svg>

