<?xml version="1.0" encoding="UTF-8" standalone="no"?> <svg version="1.1" id="I57fdfdd64a4f449abfe8c7a53dc0972120251110133655" width="100" height="100" viewBox="0 0 100 100" xmlns="http://www.w3.org/2000/svg" xmlns:svg="http://www.w3.org/2000/svg"> <defs id="I0f9e0ac1aa3c46b586e14f674530438c20251110133655" /> <g id="Ie41421a370ca4527b8c53d6560e53aff20251110133655"> <path id="I9d8fa88ae853479dbb1b4ce3c5bc190a20251110133655" d="m 12.5,17.969 c 0,-4.746 3.848,-8.594 8.594,-8.594 h 17.187 c 4.746,0 8.594,3.848 8.594,8.594 v 20.312 c 0,4.746 -3.848,8.594 -8.594,8.594 H 21.094 c -4.746,0 -8.594,-3.848 -8.594,-8.594 z m 0.605,28.89 c -1.293,0.446 -2.445,0.946 -3.41,1.496 -1.562,0.899 -3.445,2.426 -3.445,4.77 0,2.344 1.883,3.871 3.445,4.77 1.739,1 4.098,1.82 6.813,2.48 5.414,1.316 12.765,2.113 20.804,2.125 l -2.242,2.238 c -0.914,0.918 -0.914,2.403 0,3.317 0.914,0.914 2.399,0.914 3.317,0 l 6.238,-6.243 c 0.914,-0.914 0.918,-2.398 0.004,-3.312 l -6.242,-6.25 c -0.914,-0.914 -2.399,-0.918 -3.317,-0.004 -0.914,0.918 -0.914,2.399 0,3.316 l 2.246,2.25 C 29.539,57.801 22.578,57.027 17.613,55.82 c -2.519,-0.613 -4.39,-1.308 -5.578,-1.992 -0.551,-0.312 -0.836,-0.555 -0.98,-0.703 0.144,-0.148 0.429,-0.391 0.98,-0.707 1.188,-0.68 3.059,-1.375 5.578,-1.988 0.715,-0.172 1.469,-0.336 2.262,-0.492 -2.602,-0.27 -4.953,-1.391 -6.77,-3.079 z m 30.715,1.75 c 5.278,0.293 9.953,0.942 13.567,1.821 2.519,0.613 4.39,1.308 5.578,1.988 0.547,0.316 0.832,0.559 0.976,0.707 -0.011,0.012 -0.027,0.027 -0.046,0.047 -0.317,0.301 -0.911,0.699 -1.875,1.137 -1.918,0.871 -4.821,1.675 -8.504,2.296 -1.278,0.211 -2.137,1.422 -1.922,2.7 0.215,1.273 1.422,2.136 2.699,1.922 3.871,-0.649 7.219,-1.539 9.664,-2.649 1.215,-0.551 2.332,-1.211 3.176,-2.019 0.851,-0.813 1.617,-1.965 1.617,-3.434 0,-2.344 -1.883,-3.871 -3.445,-4.77 -1.739,-1 -4.098,-1.82 -6.813,-2.48 -2.887,-0.703 -6.328,-1.258 -10.129,-1.621 -1.086,1.832 -2.66,3.344 -4.543,4.355 z m 20.27,4.336 c 0.004,-0.007 0.008,-0.011 0.008,-0.011 z M 62.5,16.395 c 0,-0.903 -0.516,-1.723 -1.328,-2.114 -0.813,-0.39 -1.777,-0.281 -2.481,0.281 l -8.695,6.958 v 13.203 l 8.699,6.941 c 0.703,0.563 1.668,0.668 2.477,0.277 0.812,-0.39 1.328,-1.211 1.328,-2.109 z" style="fill:currentColor;fill-opacity:1;fill-rule:nonzero;stroke:none" transform="scale(1.3333333)" /> </g>
</svg>

