<?xml version="1.0" encoding="UTF-8" standalone="no"?> <svg version="1.1" id="I149582f3fcfa490fa1ce6974facfbb2020251106143239" width="100" height="100" viewBox="0 0 100 100" xmlns="http://www.w3.org/2000/svg" xmlns:svg="http://www.w3.org/2000/svg"> <defs id="Idc264635ffda41acbd3ca7828bc232ef20251106143239" /> <g id="I15826cf9099f4973a7558f17d4a35a1220251106143239"> <path id="I787156181711452e9926344061853a6220251106143239" d="M 71.25,20.625 C 71.25,29.945 63.695,37.5 54.375,37.5 45.055,37.5 37.5,29.945 37.5,20.625 37.5,11.305 45.055,3.75 54.375,3.75 c 9.32,0 16.875,7.555 16.875,16.875 z m -8.051,-6.949 c -0.73,-0.735 -1.918,-0.735 -2.648,0 l -9.926,9.922 -2.426,-2.422 c -0.73,-0.735 -1.918,-0.735 -2.648,0 -0.735,0.73 -0.735,1.918 0,2.648 l 3.75,3.75 c 0.73,0.735 1.918,0.735 2.648,0 l 11.25,-11.25 c 0.735,-0.73 0.735,-1.918 0,-2.648 z" style="fill:currentColor;fill-opacity:1;fill-rule:nonzero;stroke:none" transform="scale(1.3333333)" /> <path id="I8fc8bb36ab3b455694bb7956873f6d0620251106143239" d="m 54.375,41.25 c 0.422,0 0.84,-0.012 1.254,-0.039 -0.195,0.551 -0.441,1.082 -0.742,1.594 L 41.902,64.957 c -0.586,1 -1.484,1.758 -2.527,2.176 V 40.75 c 1.121,-0.648 1.875,-1.863 1.875,-3.25 0,-0.383 -0.059,-0.754 -0.164,-1.102 3.59,3.028 8.226,4.852 13.289,4.852 z" style="fill:currentColor;fill-opacity:1;fill-rule:nonzero;stroke:none" transform="scale(1.3333333)" /> <path id="I7ada737ac5bc4b09b5a38f89dde69da220251106143239" d="m 33.75,20.625 c 0,5.063 1.824,9.699 4.852,13.289 -0.348,-0.105 -0.719,-0.164 -1.102,-0.164 -2.07,0 -3.75,1.68 -3.75,3.75 0,1.387 0.754,2.602 1.875,3.25 V 67.16 C 34.547,66.75 33.621,65.98 33.02,64.957 L 20.039,42.805 c -1.57,-2.672 -1.715,-5.95 -0.387,-8.754 L 25.125,22.5 h -0.75 c -3.105,0 -5.625,-2.52 -5.625,-5.625 v -7.5 C 18.75,8.34 19.59,7.5 20.625,7.5 21.66,7.5 22.5,8.34 22.5,9.375 v 7.5 c 0,1.035 0.84,1.875 1.875,1.875 h 9.461 c -0.059,0.617 -0.086,1.242 -0.086,1.875 z" style="fill:currentColor;fill-opacity:1;fill-rule:nonzero;stroke:none" transform="scale(1.3333333)" /> </g>
</svg>

