<?xml version="1.0" encoding="UTF-8" standalone="no"?> <svg version="1.1" id="Ic071d959387e40708e82a3d0ac67a4de20251106125938" width="100" height="100" viewBox="0 0 100 100" xmlns="http://www.w3.org/2000/svg" xmlns:svg="http://www.w3.org/2000/svg"> <defs id="I8a6ce87878f24a2e84b05811a528db6e20251106125938" /> <g id="Iad7253073b194b1c9d13f3fa8dd22f4920251106125938"> <path id="I7e78da171a3544ebb56709333f233a4920251106125938" d="m 37.5,22.5 c -5.527,0 -10.254,3.414 -12.191,8.25 -0.602,1.508 -0.934,3.152 -0.934,4.875 0,7.25 5.875,13.125 13.125,13.125 h 27.348 l -4.297,-4.301 c -0.735,-0.73 -0.735,-1.918 0,-2.648 0.73,-0.735 1.918,-0.735 2.648,0 l 7.5,7.5 c 0.735,0.73 0.735,1.918 0,2.648 l -7.5,7.5 c -0.73,0.735 -1.918,0.735 -2.648,0 -0.735,-0.73 -0.735,-1.918 0,-2.648 L 64.848,52.5 H 37.5 c -9.32,0 -16.875,-7.555 -16.875,-16.875 0,-1.941 0.328,-3.809 0.934,-5.547 2.293,-6.594 8.566,-11.328 15.941,-11.328 9.32,0 16.875,7.555 16.875,16.875 0,3.469 -1.047,6.695 -2.84,9.375 h -4.847 c 2.429,-2.383 3.937,-5.703 3.937,-9.375 C 50.625,28.375 44.75,22.5 37.5,22.5 Z M 9.375,48.75 H 21.59 c 1.176,1.422 2.535,2.684 4.047,3.75 H 9.375 C 8.34,52.5 7.5,51.66 7.5,50.625 7.5,49.59 8.34,48.75 9.375,48.75 Z" style="fill:currentColor;fill-opacity:1;fill-rule:nonzero;stroke:none" transform="scale(1.3333333)" /> </g>
</svg>

