<?xml version="1.0" encoding="UTF-8" standalone="no"?> <svg version="1.1" id="I000a68f5cf334b038f0567c39520f6ab20251110133655" width="100" height="100" viewBox="0 0 100 100" xmlns="http://www.w3.org/2000/svg" xmlns:svg="http://www.w3.org/2000/svg"> <defs id="I3aa10905e0f54b4fab8dd3e9dd691f8720251110133655" /> <g id="I0cd0cbe54ca7417fb2d3bf0c242c1a1220251110133655"> <path id="I34f43348c1634da8a88ab03be88b39f620251110133655" d="m 40.625,62.551 c 1.727,0 3.125,1.398 3.125,3.125 0,1.722 -1.398,3.125 -3.125,3.125 -1.727,0 -3.125,-1.403 -3.125,-3.125 0,-1.727 1.398,-3.125 3.125,-3.125 z M 29.688,59.426 c 1.726,0 3.124,1.398 3.124,3.125 0,1.722 -1.398,3.125 -3.124,3.125 -1.727,0 -3.126,-1.403 -3.126,-3.125 0,-1.727 1.399,-3.125 3.126,-3.125 z m 21.874,0 c 1.727,0 3.126,1.398 3.126,3.125 0,1.722 -1.399,3.125 -3.126,3.125 -1.726,0 -3.124,-1.403 -3.124,-3.125 0,-1.727 1.398,-3.125 3.124,-3.125 z M 40.625,18.766 c 9.898,0 15.516,6.554 16.332,14.468 h 0.25 c 6.375,0 11.539,5.153 11.539,11.508 0,6.356 -5.164,11.508 -11.539,11.508 H 24.039 C 17.664,56.25 12.5,51.098 12.5,44.742 c 0,-6.355 5.164,-11.508 11.539,-11.508 h 0.25 c 0.82,-7.968 6.434,-14.468 16.336,-14.468 z m 0,3.898 c -6.66,0 -12.461,5.387 -12.461,12.828 0,1.18 -1.027,2.106 -2.199,2.106 h -2.223 c -4.051,0 -7.336,3.3 -7.336,7.375 0,4.074 3.285,7.379 7.336,7.379 h 33.762 c 4.051,0 7.34,-3.305 7.34,-7.379 0,-4.075 -3.289,-7.375 -7.34,-7.375 h -2.219 c -1.176,0 -2.199,-0.926 -2.199,-2.106 0,-7.535 -5.805,-12.828 -12.461,-12.828 z M 20.59,6.254 c 2.484,0.133 4.898,0.848 7.074,2.105 3.297,1.903 5.652,4.813 6.902,8.114 -1.211,0.343 -2.351,0.793 -3.421,1.336 -1,-2.719 -3.219,-4.93 -6.235,-6.657 -0.703,-0.402 -1.469,-0.711 -2.23,-0.925 0.57,4.753 0.386,7.984 -1.653,11.839 l -0.418,0.75 c -2.023,3.434 -5.007,5.465 -9.57,7.563 0.504,0.496 1.27,1.082 1.895,1.523 0.707,0.5 1.441,0.926 2.195,1.278 -1.082,0.836 -2.043,1.824 -2.852,2.929 L 11.797,35.84 C 9.742,34.652 7.996,33.043 6.664,31.105 5.793,29.84 6.355,28.086 7.805,27.566 12.938,25.73 15.703,23.664 17.285,20.645 19.012,17.348 19.332,13.852 18.188,9.152 17.812,7.625 19.02,6.168 20.59,6.254 Z" style="fill:currentColor;fill-opacity:1;fill-rule:nonzero;stroke:none" transform="scale(1.3333333)" /> </g>
</svg>

