<?xml version="1.0" encoding="UTF-8" standalone="no"?> <svg version="1.1" id="Ia3467a24f89849fb889eb98649db5ddf20251106155156" width="100" height="100" viewBox="0 0 100 100" xmlns="http://www.w3.org/2000/svg" xmlns:svg="http://www.w3.org/2000/svg"> <defs id="I9aae9806b1c84698975fbf347eed324720251106155156" /> <g id="I8eebd508cc3b4dc5a9a3af4588461b2420251106155156"> <path id="I6886735882fa490686c69066aac1aa8820251106155156" d="M 37.5,25 V 6.25 H 18.75 c -3.453,0 -6.25,2.797 -6.25,6.25 v 31.961 c 1.055,0.617 2.121,1.609 2.695,3.039 2.004,-2.297 4.953,-3.75 8.243,-3.75 3.98,0 7.46,2.125 9.374,5.301 1.915,-3.176 5.399,-5.301 9.376,-5.301 6.039,0 10.937,4.898 10.937,10.938 v 6.25 c 0,3.058 -1.258,5.828 -3.281,7.812 h 6.406 c 3.453,0 6.25,-2.797 6.25,-6.25 V 31.25 H 43.75 C 40.297,31.25 37.5,28.453 37.5,25 Z m 4.688,0 V 7.812 l 18.75,18.75 H 43.75 c -0.863,0 -1.562,-0.699 -1.562,-1.562 z m -18.75,21.875 c -4.313,0 -7.813,3.496 -7.813,7.813 v 6.25 c 0,4.316 3.5,7.812 7.813,7.812 4.316,0 7.812,-3.496 7.812,-7.812 v -6.25 c 0,-4.317 -3.496,-7.813 -7.812,-7.813 z m -3.126,7.813 c 0,-1.727 1.399,-3.126 3.126,-3.126 1.726,0 3.124,1.399 3.124,3.126 v 6.25 c 0,1.726 -1.398,3.124 -3.124,3.124 -1.727,0 -3.126,-1.398 -3.126,-3.124 z m 14.063,0 c 0,-4.317 3.5,-7.813 7.813,-7.813 4.316,0 7.812,3.496 7.812,7.813 v 6.25 c 0,4.316 -3.496,7.812 -7.812,7.812 -4.313,0 -7.813,-3.496 -7.813,-7.812 z m 7.813,-3.126 c -1.727,0 -3.126,1.399 -3.126,3.126 v 6.25 c 0,1.726 1.399,3.124 3.126,3.124 1.726,0 3.124,-1.398 3.124,-3.124 v -6.25 c 0,-1.727 -1.398,-3.126 -3.124,-3.126 z M 12.5,49.805 c 0,-1.758 -1.352,-2.7 -2.32,-2.969 -0.965,-0.274 -2.512,-0.176 -3.469,1.16 -0.992,1.383 -2.375,2.934 -3.996,3.895 -1.117,0.656 -1.485,2.093 -0.824,3.211 0.656,1.113 2.093,1.48 3.211,0.82 1.007,-0.594 1.914,-1.317 2.71,-2.067 v 12.551 c 0,1.293 1.051,2.344 2.344,2.344 1.293,0 2.344,-1.051 2.344,-2.344 z" style="fill:currentColor;fill-opacity:1;fill-rule:nonzero;stroke:none" transform="scale(1.3333333)" /> </g>
</svg>

