<?xml version="1.0" encoding="UTF-8" standalone="no"?> <svg version="1.1" id="I60148df666ca4f9688dbdf3296fe76c220251106123600" width="100" height="100" viewBox="0 0 100 100" xmlns="http://www.w3.org/2000/svg" xmlns:svg="http://www.w3.org/2000/svg"> <defs id="I1b1023f22d7145789b189386360d111f20251106123600" /> <g id="Ibc9928e85344400ab37f5c49ffc9276a20251106123600"> <path id="Iac9052e8b98d4bcc8a9b2494a235673120251106123600" d="M 37.5,5.355 C 19.746,5.355 5.355,19.746 5.355,37.5 5.355,55.254 19.746,69.645 37.5,69.645 55.254,69.645 69.645,55.254 69.645,37.5 69.645,19.746 55.254,5.355 37.5,5.355 Z M 24.027,38.09 c 0.782,-0.785 2.055,-0.785 2.84,0 l 8.625,8.621 V 23.438 c 0,-1.11 0.899,-2.008 2.008,-2.008 1.109,0 2.008,0.898 2.008,2.008 v 23.273 l 8.625,-8.621 c 0.785,-0.785 2.058,-0.785 2.84,0 0.785,0.781 0.785,2.055 0,2.84 L 38.922,52.984 c -0.785,0.782 -2.059,0.782 -2.844,0 L 24.027,40.93 c -0.785,-0.785 -0.785,-2.059 0,-2.84 z" style="fill:currentColor;fill-opacity:1;fill-rule:nonzero;stroke:none" transform="scale(1.3333333)" /> </g>
</svg>

