<?xml version="1.0" encoding="UTF-8" standalone="no"?> <svg version="1.1" id="I1a9b8c0ef5834c76a0c29bdaee46796420251106170956" width="100" height="100" viewBox="0 0 100 100" xmlns="http://www.w3.org/2000/svg" xmlns:svg="http://www.w3.org/2000/svg"> <defs id="I4b927bcbba6145069840f0151602ea3020251106170956" /> <g id="If4573c8989f6455eb98c3e2327a3160320251106170956"> <path id="Id2ce4783367a4e2d950af4021a0e4b9020251106170956" d="m 68.75,20.312 c 0,9.493 -7.695,17.188 -17.188,17.188 -9.492,0 -17.187,-7.695 -17.187,-17.188 0,-9.492 7.695,-17.187 17.187,-17.187 9.493,0 17.188,7.695 17.188,17.187 z m -6.707,-7.355 c -0.609,-0.609 -1.602,-0.609 -2.211,0 L 48.438,24.352 43.293,19.207 c -0.609,-0.609 -1.602,-0.609 -2.211,0 -0.609,0.609 -0.609,1.602 0,2.211 l 6.25,6.25 c 0.609,0.609 1.602,0.609 2.211,0 l 12.5,-12.5 c 0.609,-0.609 0.609,-1.602 0,-2.211 z M 60.938,38.336 V 43.75 H 46.875 c -1.293,0 -2.344,1.051 -2.344,2.344 0,3.883 -3.148,7.031 -7.031,7.031 -3.883,0 -7.031,-3.148 -7.031,-7.031 l -0.02,-0.317 C 30.293,44.633 29.312,43.75 28.125,43.75 H 14.062 V 22.656 c 0,-3.019 2.45,-5.468 5.469,-5.468 h 11.957 c 0.254,-1.637 0.7,-3.208 1.321,-4.688 H 19.531 c -5.609,0 -10.156,4.547 -10.156,10.156 v 35.938 c 0,5.609 4.547,10.156 10.156,10.156 h 35.938 c 5.609,0 10.156,-4.547 10.156,-10.156 V 34.969 c -1.387,1.332 -2.965,2.469 -4.687,3.367 z" style="fill:currentColor;fill-opacity:1;fill-rule:nonzero;stroke:none" transform="scale(1.3333333)" /> </g>
</svg>

