<?xml version="1.0" encoding="UTF-8" standalone="no"?> <svg version="1.1" id="Ia7ccc9b1cbff4fa692a5e52d17c5e1a920251110124420" width="100" height="100" viewBox="0 0 100 100" xmlns="http://www.w3.org/2000/svg" xmlns:svg="http://www.w3.org/2000/svg"> <defs id="I8c2ab7983a5147379ebfa9d434eb83ca20251110124420" /> <g id="I630ca286f448446cabea649d75f4293720251110124420"> <path id="I802a5d659c854cef9c64f33de4ba702220251110124420" d="M 6.25,9.375 C 6.25,7.648 7.648,6.25 9.375,6.25 H 37.5 c 17.258,0 31.25,13.992 31.25,31.25 0,8.516 -3.406,16.238 -8.934,21.875 H 49.613 C 57.297,55.109 62.5,46.914 62.5,37.5 62.5,25.434 53.953,15.363 42.578,13.016 40.941,12.68 39.242,12.5 37.5,12.5 H 9.375 C 7.648,12.5 6.25,11.102 6.25,9.375 Z m 25.57,58.859 c 1.84,0.34 3.739,0.516 5.68,0.516 h 28.125 c 1.727,0 3.125,-1.398 3.125,-3.125 0,-1.727 -1.398,-3.125 -3.125,-3.125 L 37.5,62.5 C 29.156,62.5 21.766,58.414 17.227,52.133 17.172,52.055 17.117,51.98 17.062,51.902 14.188,47.832 12.5,42.863 12.5,37.5 12.5,28.09 17.703,19.891 25.387,15.625 H 15.184 C 9.656,21.262 6.25,28.984 6.25,37.5 c 0,15.32 11.023,28.062 25.57,30.734 z M 37.5,25 c 1.727,0 3.125,1.398 3.125,3.125 v 6.25 h 6.25 c 1.727,0 3.125,1.398 3.125,3.125 0,1.727 -1.398,3.125 -3.125,3.125 h -6.25 v 6.25 C 40.625,48.602 39.227,50 37.5,50 35.773,50 34.375,48.602 34.375,46.875 v -6.25 h -6.25 C 26.398,40.625 25,39.227 25,37.5 c 0,-1.727 1.398,-3.125 3.125,-3.125 h 6.25 v -6.25 C 34.375,26.398 35.773,25 37.5,25 Z" style="fill:currentColor;fill-opacity:1;fill-rule:nonzero;stroke:none" transform="scale(1.3333333)" /> </g>
</svg>

