<?xml version="1.0" encoding="UTF-8" standalone="no"?> <svg version="1.1" id="Ie768185070bf48ed869cbbe95d8beb1520251106170956" width="100" height="100" viewBox="0 0 100 100" xmlns="http://www.w3.org/2000/svg" xmlns:svg="http://www.w3.org/2000/svg"> <defs id="I49d4fb537c5e47fe9ca1248c2081fd7c20251106170956" /> <g id="I68ceab6a48c14ec2ae17a8f5238b88de20251106170956"> <path id="I73a473f10d0d4ab5a1593dadcc39d9e620251106170956" d="m 9.375,21.094 c 0,-1.293 1.051,-2.344 2.344,-2.344 h 10.179 c 3.11,0 6.09,1.234 8.286,3.434 l 9.218,9.214 c 1.907,1.907 4.489,2.977 7.184,2.977 H 60.742 L 49.125,22.75 c -0.918,-0.914 -0.918,-2.398 0,-3.312 0.914,-0.918 2.398,-0.918 3.313,0 l 15.621,15.624 c 0.914,0.915 0.914,2.399 0,3.313 L 52.438,54 c -0.915,0.918 -2.399,0.918 -3.313,0 -0.918,-0.914 -0.918,-2.398 0,-3.312 L 60.742,39.062 H 46.773 c -2.785,0 -5.445,1.145 -7.363,3.161 l -8.375,8.816 c -2.215,2.328 -5.285,3.649 -8.496,3.649 h -10.82 c -1.293,0 -2.344,-1.051 -2.344,-2.344 0,-1.293 1.051,-2.344 2.344,-2.344 h 10.82 c 1.926,0 3.77,-0.793 5.098,-2.188 l 8.375,-8.816 c 0.804,-0.848 1.699,-1.59 2.66,-2.219 -0.926,-0.582 -1.797,-1.273 -2.586,-2.062 L 26.871,25.496 C 25.551,24.18 23.762,23.438 21.898,23.438 H 11.719 c -1.293,0 -2.344,-1.051 -2.344,-2.344 z" style="fill:currentColor;fill-opacity:1;fill-rule:nonzero;stroke:none" transform="scale(1.3333333)" /> </g>
</svg>

