<?xml version="1.0" encoding="UTF-8" standalone="no"?> <svg version="1.1" id="I7398b695da8e4ea88a6dd1db8b5eb7b720251106151526" width="100" height="100" viewBox="0 0 100 100" xmlns="http://www.w3.org/2000/svg" xmlns:svg="http://www.w3.org/2000/svg"> <defs id="If593fb7dbcbc4c209600aa39c24e263b20251106151526" /> <g id="I46aa8c652bec4c11a9236dfaac359f6320251106151526"> <path id="Ifa5b91853bcc4c40a62c485070030d4b20251106151526" d="m 42.004,63.684 -9.871,-9.872 c -0.918,-0.917 -2.399,-0.917 -3.317,0 -0.914,0.915 -0.914,2.399 0,3.313 l 6.879,6.879 c -2.617,-0.176 -5.129,-0.731 -7.48,-1.609 L 20.414,54.594 C 19.512,53.688 18.055,53.676 17.137,54.555 13.266,49.941 10.938,43.992 10.938,37.5 c 0,-14.672 11.89,-26.562 26.562,-26.562 6.492,0 12.441,2.328 17.055,6.199 -0.871,0.918 -0.856,2.371 0.043,3.269 l 7.789,7.789 c 0.883,2.356 1.437,4.867 1.613,7.485 l -6.867,-6.868 c -0.918,-0.917 -2.399,-0.917 -3.317,0 -0.914,0.915 -0.914,2.399 0,3.313 l 9.868,9.867 c -0.274,1.602 -0.688,3.149 -1.231,4.641 l -8.445,-8.445 c -0.918,-0.918 -2.399,-0.918 -3.317,0 -0.914,0.914 -0.914,2.398 0,3.312 l 9.618,9.617 c -0.723,1.211 -1.539,2.36 -2.438,3.434 L 49.32,46 c -0.918,-0.918 -2.398,-0.918 -3.316,0 -0.914,0.914 -0.914,2.398 0,3.312 l 8.551,8.551 c -1.075,0.903 -2.219,1.719 -3.43,2.442 l -9.617,-9.617 c -0.918,-0.918 -2.399,-0.918 -3.317,0 -0.914,0.914 -0.914,2.398 0,3.312 l 8.45,8.449 c -1.489,0.543 -3.039,0.961 -4.637,1.235 z M 37.5,68.75 C 54.758,68.75 68.75,54.758 68.75,37.5 68.75,20.242 54.758,6.25 37.5,6.25 20.242,6.25 6.25,20.242 6.25,37.5 c 0,17.258 13.992,31.25 31.25,31.25 z" style="fill:currentColor;fill-opacity:1;fill-rule:nonzero;stroke:none" transform="scale(1.3333333)" /> </g>
</svg>

