<?xml version="1.0" encoding="UTF-8" standalone="no"?> <svg version="1.1" id="I3e421cf62cdc477d96941f001ff95df620251106170955" width="100" height="100" viewBox="0 0 100 100" xmlns="http://www.w3.org/2000/svg" xmlns:svg="http://www.w3.org/2000/svg"> <defs id="I1f277f3dc80c4fac800d9d94aed6adeb20251106170955" /> <g id="I7a4f382d2b294104a16550693e08dff320251106170955"> <path id="I4208c08e9f7749e1b1fc6bd62f5d30a520251106170955" d="m 56.062,52.332 c 10.25,-10.258 10.25,-26.883 0,-37.141 -10.253,-10.253 -26.871,-10.253 -37.124,0 -10.25,10.258 -10.25,26.883 0,37.141 l 5.703,5.621 7.664,7.442 0.496,0.441 c 2.906,2.355 7.16,2.211 9.898,-0.438 l 9.133,-8.89 z M 36.949,23.824 30.777,30 H 48.75 c 1.035,0 1.875,0.84 1.875,1.875 0,1.035 -0.84,1.875 -1.875,1.875 H 30.777 l 6.172,6.176 c 0.735,0.73 0.735,1.918 0,2.648 -0.73,0.735 -1.918,0.735 -2.648,0 l -9.375,-9.375 c -0.352,-0.351 -0.551,-0.828 -0.551,-1.324 0,-0.496 0.199,-0.973 0.551,-1.324 l 9.375,-9.375 c 0.73,-0.735 1.918,-0.735 2.648,0 0.735,0.73 0.735,1.918 0,2.648 z" style="fill:currentColor;fill-opacity:1;fill-rule:nonzero;stroke:none" transform="scale(1.3333333)" /> </g>
</svg>

