<?xml version="1.0" encoding="UTF-8" standalone="no"?> <svg version="1.1" id="Ide2b0085b6ba4d399cecf4c8c885bed620251106151526" width="100" height="100" viewBox="0 0 100 100" xmlns="http://www.w3.org/2000/svg" xmlns:svg="http://www.w3.org/2000/svg"> <defs id="Iee7fe060549b495897e66b9944a10f6a20251106151526" /> <g id="I1a13ff1e20dd43d99c7877d4827e7bcb20251106151526"> <path id="I871c6f891c634be8a2231eef64de43bd20251106151526" d="m 25.781,28.125 c -1.293,0 -2.343,1.051 -2.343,2.344 0,1.293 1.05,2.343 2.343,2.343 h 23.438 c 1.293,0 2.343,-1.05 2.343,-2.343 0,-1.293 -1.05,-2.344 -2.343,-2.344 z m -2.343,14.063 c 0,-1.293 1.05,-2.344 2.343,-2.344 H 37.5 c 1.293,0 2.344,1.051 2.344,2.344 0,1.292 -1.051,2.343 -2.344,2.343 H 25.781 c -1.293,0 -2.343,-1.051 -2.343,-2.343 z m 2.343,9.374 c -1.293,0 -2.343,1.051 -2.343,2.344 0,1.293 1.05,2.344 2.343,2.344 h 18.75 c 1.293,0 2.344,-1.051 2.344,-2.344 0,-1.293 -1.051,-2.344 -2.344,-2.344 z M 51.164,9.375 C 50.199,6.645 47.594,4.688 44.531,4.688 H 30.469 c -3.063,0 -5.664,1.957 -6.633,4.687 h -3.914 c -4.531,0 -8.203,3.672 -8.203,8.203 v 44.531 c 0,4.532 3.672,8.203 8.203,8.203 h 35.156 c 4.531,0 8.203,-3.671 8.203,-8.203 V 17.578 c 0,-4.531 -3.672,-8.203 -8.203,-8.203 z m -23.039,2.344 c 0,-1.293 1.051,-2.344 2.344,-2.344 h 14.062 c 1.293,0 2.344,1.051 2.344,2.344 0,1.293 -1.051,2.343 -2.344,2.343 H 30.469 c -1.293,0 -2.344,-1.05 -2.344,-2.343 z m -11.719,5.859 c 0,-1.941 1.574,-3.516 3.516,-3.516 h 3.914 c 0.969,2.731 3.57,4.688 6.633,4.688 h 14.062 c 3.063,0 5.668,-1.957 6.633,-4.688 h 3.914 c 1.942,0 3.516,1.575 3.516,3.516 v 44.531 c 0,1.942 -1.574,3.516 -3.516,3.516 H 19.922 c -1.942,0 -3.516,-1.574 -3.516,-3.516 z" style="fill:currentColor;fill-opacity:1;fill-rule:nonzero;stroke:none" transform="scale(1.3333333)" /> </g>
</svg>

