<?xml version="1.0" encoding="UTF-8" standalone="no"?> <svg version="1.1" id="Ic7c791cb44cf482988a542f7f81637c220251110130508" width="100" height="100" viewBox="0 0 100 100" xmlns="http://www.w3.org/2000/svg" xmlns:svg="http://www.w3.org/2000/svg"> <defs id="Ie68b06a1ccea4d73867b150d738c02a720251110130508" /> <g id="I42518558d32c4feb803b39db5f10cf7b20251110130508"> <path id="I5abde5162ecc42ea86ec83dbafcb43f720251110130508" d="m 9.375,17.969 c 0,-4.746 3.848,-8.594 8.594,-8.594 h 39.062 c 4.746,0 8.594,3.848 8.594,8.594 v 19.597 c -1.891,-1.211 -4,-2.117 -6.25,-2.648 V 17.969 c 0,-1.293 -1.051,-2.344 -2.344,-2.344 H 17.969 c -1.293,0 -2.344,1.051 -2.344,2.344 v 39.062 c 0,1.293 1.051,2.344 2.344,2.344 h 16.949 c 0.531,2.25 1.437,4.359 2.648,6.25 H 17.969 c -4.746,0 -8.594,-3.848 -8.594,-8.594 z M 54.688,71.875 C 45.195,71.875 37.5,64.18 37.5,54.688 37.5,45.195 45.195,37.5 54.688,37.5 c 9.492,0 17.187,7.695 17.187,17.188 0,9.492 -7.695,17.187 -17.187,17.187 z M 64.062,56.25 c 0.864,0 1.563,-0.699 1.563,-1.562 0,-0.864 -0.699,-1.563 -1.563,-1.563 H 49.086 L 54.23,47.98 c 0.61,-0.609 0.61,-1.601 0,-2.21 -0.609,-0.61 -1.601,-0.61 -2.21,0 l -7.813,7.812 c -0.609,0.609 -0.609,1.602 0,2.211 l 7.813,7.812 c 0.609,0.61 1.601,0.61 2.21,0 0.61,-0.609 0.61,-1.601 0,-2.21 L 49.086,56.25 Z" style="fill:currentColor;fill-opacity:1;fill-rule:nonzero;stroke:none" transform="scale(1.3333333)" /> </g>
</svg>

