<?xml version="1.0" encoding="UTF-8" standalone="no"?> <svg version="1.1" id="Icf2c2960e4c140b6b7d9e1c64f758fd520251106143239" width="100" height="100" viewBox="0 0 100 100" xmlns="http://www.w3.org/2000/svg" xmlns:svg="http://www.w3.org/2000/svg"> <defs id="I1ba7ac016dfb496c85701e106fa72ff020251106143239" /> <g id="I85d29764fff944968a7caaf9bf8ccec720251106143239"> <path id="I94f1374d872a48b6991129843083ab3220251106143239" d="m 29.273,10.348 2.688,6.336 c 1.168,2.761 0.519,6.007 -1.606,8.027 l -5.921,5.617 c 0.367,3.363 1.496,6.672 3.39,9.93 1.895,3.258 4.258,5.961 7.098,8.109 l 7.109,-2.371 c 2.696,-0.902 5.629,0.133 7.281,2.563 l 3.852,5.656 c 1.922,2.824 1.578,6.719 -0.809,9.113 l -2.554,2.563 c -2.543,2.554 -6.176,3.48 -9.539,2.433 C 32.328,65.848 25.035,58.5 18.379,46.281 11.715,34.043 9.363,23.66 11.32,15.133 c 0.828,-3.59 3.383,-6.445 6.719,-7.512 l 3.363,-1.078 c 3.153,-1.004 6.52,0.621 7.871,3.805 z m 24.317,-4.09 0.316,-0.02 c 1.188,0 2.168,0.883 2.324,2.024 l 0.02,0.32 V 18.75 l 10.164,0.004 c 1.188,0 2.168,0.879 2.32,2.023 l 0.024,0.321 c 0,1.183 -0.883,2.164 -2.028,2.32 L 66.414,23.441 56.25,23.438 V 33.59 c 0,1.187 -0.879,2.168 -2.023,2.324 l -0.321,0.02 c -1.183,0 -2.164,-0.879 -2.32,-2.024 L 51.562,33.59 V 23.438 l -10.16,0.003 c -1.187,0 -2.168,-0.882 -2.32,-2.027 l -0.023,-0.316 c 0,-1.188 0.882,-2.168 2.027,-2.325 l 0.316,-0.019 10.16,-0.004 V 8.582 c 0,-1.187 0.883,-2.168 2.028,-2.324 l 0.316,-0.02 z" style="fill:currentColor;fill-opacity:1;fill-rule:nonzero;stroke:none" transform="scale(1.3333333)" /> </g>
</svg>

