<?xml version="1.0" encoding="UTF-8" standalone="no"?> <svg version="1.1" id="I8d66a0190e8341df877ef540e902318920251110124419" width="100" height="100" viewBox="0 0 100 100" xmlns="http://www.w3.org/2000/svg" xmlns:svg="http://www.w3.org/2000/svg"> <defs id="I388d5da39058409c86c56bff0044f90e20251110124419" /> <g id="I7b024b7c976946378c1a1cf4a957ee2a20251110124419"> <path id="Ic0356864b07f46e2bcf2a1bf87e5fe3520251110124419" d="m 18.824,21.875 v 6.25 h 37.364 v -6.25 z m 27.988,20.246 v 9.375 h 9.376 V 42.121 Z M 6.25,17.969 c 0,-4.746 3.848,-8.594 8.594,-8.594 h 45.312 c 4.746,0 8.594,3.848 8.594,8.594 v 39.062 c 0,4.746 -3.848,8.594 -8.594,8.594 H 14.844 c -4.746,0 -8.594,-3.848 -8.594,-8.594 z m 7.887,1.562 v 10.938 c 0,1.293 1.051,2.343 2.343,2.343 h 42.051 c 1.293,0 2.344,-1.05 2.344,-2.343 V 19.531 c 0,-1.293 -1.051,-2.343 -2.344,-2.343 H 16.48 c -1.292,0 -2.343,1.05 -2.343,2.343 z M 42.125,39.777 V 53.84 c 0,1.297 1.047,2.344 2.344,2.344 h 14.062 c 1.293,0 2.344,-1.047 2.344,-2.344 V 39.777 c 0,-1.293 -1.051,-2.343 -2.344,-2.343 H 44.469 c -1.297,0 -2.344,1.05 -2.344,2.343 z M 16.48,39.062 c -1.292,0 -2.343,1.051 -2.343,2.344 0,1.293 1.051,2.344 2.343,2.344 h 18.676 c 1.293,0 2.344,-1.051 2.344,-2.344 0,-1.293 -1.051,-2.344 -2.344,-2.344 z m -2.343,13.282 c 0,1.293 1.051,2.344 2.343,2.344 h 18.676 c 1.293,0 2.344,-1.051 2.344,-2.344 C 37.5,51.051 36.449,50 35.156,50 H 16.48 c -1.292,0 -2.343,1.051 -2.343,2.344 z" style="fill:currentColor;fill-opacity:1;fill-rule:nonzero;stroke:none" transform="scale(1.3333333)" /> </g>
</svg>

