<?xml version="1.0" encoding="UTF-8" standalone="no"?> <svg version="1.1" id="Ia79564a0a6cf46d38a8bc42c23b4cab620251106170955" width="100" height="100" viewBox="0 0 100 100" xmlns="http://www.w3.org/2000/svg" xmlns:svg="http://www.w3.org/2000/svg"> <defs id="I3345e40e575c499b95a9a21996f8cdbe20251106170955" /> <g id="Ib77cc031fa464ca4afde2e8a658e5e2820251106170955"> <path id="Ib57f63361f7c4c659d88f09659694a9d20251106170955" d="m 35.758,26.383 c 0.762,-0.766 0.762,-2 0,-2.766 -0.766,-0.762 -2,-0.762 -2.766,0 L 25.18,31.43 c -0.762,0.765 -0.762,2 0,2.765 l 7.812,7.813 c 0.766,0.762 2,0.762 2.766,0 0.762,-0.766 0.762,-2 0,-2.766 l -4.481,-4.476 h 17.161 c 1.078,0 1.953,-0.875 1.953,-1.954 0,-1.078 -0.875,-1.953 -1.953,-1.953 H 31.277 Z M 42.051,66.734 57.812,50 h -0.058 l 0.027,-0.031 0.031,-0.039 c 1.008,-1.192 1.911,-2.477 2.696,-3.836 2.262,-3.906 3.554,-8.442 3.554,-13.282 C 64.062,18.141 52.172,6.25 37.5,6.25 c -14.672,0 -26.562,11.891 -26.562,26.562 0,4.84 1.292,9.376 3.554,13.282 0.785,1.359 1.688,2.644 2.696,3.836 l 0.031,0.039 0.027,0.031 h -0.058 l 15.761,16.734 c 2.469,2.618 6.633,2.618 9.102,0 z M 60.156,32.812 c 0,5.594 -2.023,10.708 -5.379,14.661 l -0.48,0.566 -15.09,16.016 c -0.926,0.98 -2.488,0.98 -3.414,0 l -15.09,-16.016 -0.48,-0.566 c -3.356,-3.953 -5.379,-9.067 -5.379,-14.661 0,-12.511 10.144,-22.656 22.656,-22.656 12.512,0 22.656,10.145 22.656,22.656 z" style="fill:currentColor;fill-opacity:1;fill-rule:nonzero;stroke:none" transform="scale(1.3333333)" /> </g>
</svg>

