<?xml version="1.0" encoding="UTF-8" standalone="no"?> <svg version="1.1" id="I815380ad89fb4a4f932684e07f04f3fc20251106144520" width="100" height="100" viewBox="0 0 100 100" xmlns="http://www.w3.org/2000/svg" xmlns:svg="http://www.w3.org/2000/svg"> <defs id="Ie7a422f7ad0e48f09cdae3f042ef628920251106144520" /> <g id="I3e2532b5290943fabe5a0f824f07d63220251106144520"> <path id="I9283f395133349b88e0b8fcaf79e214f20251106144520" d="m 68.75,37.492 c 0,-17.258 -13.992,-31.25 -31.25,-31.25 -17.258,0 -31.25,13.992 -31.25,31.25 0,5.137 1.242,10.094 3.578,14.535 L 6.34,65.426 c -0.113,0.441 -0.113,0.902 0,1.34 0.371,1.422 1.82,2.269 3.238,1.902 l 13.41,-3.492 c 4.434,2.332 9.387,3.566 14.512,3.566 17.258,0 31.25,-13.988 31.25,-31.25 z M 37.5,20.312 c 1.293,0 2.344,1.047 2.344,2.344 v 19.532 c 0,1.292 -1.051,2.343 -2.344,2.343 -1.293,0 -2.344,-1.051 -2.344,-2.343 V 22.656 c 0,-1.297 1.051,-2.344 2.344,-2.344 z m 3.125,31.243 c 0,1.726 -1.398,3.125 -3.125,3.125 -1.727,0 -3.125,-1.399 -3.125,-3.125 0,-1.727 1.398,-3.125 3.125,-3.125 1.727,0 3.125,1.398 3.125,3.125 z" style="fill:currentColor;fill-opacity:1;fill-rule:nonzero;stroke:none" transform="scale(1.3333333)" /> </g>
</svg>

