<?xml version="1.0" encoding="UTF-8" standalone="no"?> <svg version="1.1" id="I0271e1e2b91e4240a0308f97e744696720251106105458" width="100" height="100" viewBox="0 0 100 100" xmlns="http://www.w3.org/2000/svg" xmlns:svg="http://www.w3.org/2000/svg"> <defs id="I11edd9ea9b8247659bf758617e16f62820251106105458" /> <g id="I7ce13a43bcfe470eb71ac0db26634a5320251106105458"> <path id="I55e5aa60720843b8a40d9b51a90dd2dc20251106105458" d="m 74.332,13.395 h -4.355 c -0.368,0 -0.668,0.3 -0.668,0.667 V 34.82 H 61.605 V 20.09 c 0,-0.367 -0.3,-0.672 -0.667,-0.672 H 14.062 c -0.367,0 -0.667,0.305 -0.667,0.672 V 34.82 H 5.691 V 14.062 c 0,-0.367 -0.3,-0.667 -0.668,-0.667 H 0.668 C 0.301,13.395 0,13.695 0,14.062 v 46.876 c 0,0.367 0.301,0.667 0.668,0.667 h 4.355 c 0.368,0 0.668,-0.3 0.668,-0.667 V 40.512 h 7.704 V 54.91 c 0,0.367 0.3,0.672 0.667,0.672 h 46.876 c 0.367,0 0.667,-0.305 0.667,-0.672 V 40.512 h 7.704 v 20.426 c 0,0.367 0.3,0.667 0.668,0.667 h 4.355 c 0.367,0 0.668,-0.3 0.668,-0.667 V 14.062 c 0,-0.367 -0.301,-0.667 -0.668,-0.667 z m -54.914,12.05 h 7.367 v 24.11 h -7.367 z m 36.164,24.11 H 32.145 v -24.11 h 23.437 z" style="fill:currentColor;fill-opacity:1;fill-rule:nonzero;stroke:none" transform="scale(1.3333333)" /> </g>
</svg>

