<?xml version="1.0" encoding="UTF-8" standalone="no"?> <svg version="1.1" id="I48af9846e85e48759f21def11d0f8aa020251106165301" width="100" height="100" viewBox="0 0 100 100" xmlns="http://www.w3.org/2000/svg" xmlns:svg="http://www.w3.org/2000/svg"> <defs id="Ia35fe3cbcf994cdda33ed9de46a6720720251106165301" /> <g id="Id914bf02be034bb68a19d3f52f02c37420251106165301"> <path id="I65335cb671c44263859784e2e3c995ed20251106165301" d="m 21.781,21.875 c 0.754,1.242 1.766,2.309 2.969,3.125 l 6.5,4.625 c 1.312,0.867 2.406,2.035 3.188,3.402 1.636,2.864 1.636,6.082 0,8.946 -0.782,1.367 -1.876,2.535 -3.188,3.402 L 24.75,50 c -1.355,0.918 -2.465,2.152 -3.238,3.594 -0.774,1.441 -1.184,3.051 -1.2,4.687 v 1.875 c 0,0.207 0.083,0.406 0.231,0.551 0.145,0.148 0.344,0.231 0.551,0.231 h 32.812 c 0.207,0 0.406,-0.083 0.551,-0.231 0.148,-0.145 0.231,-0.344 0.231,-0.551 V 58.281 C 54.672,56.645 54.262,55.035 53.488,53.594 52.715,52.152 51.605,50.918 50.25,50 l -6.5,-4.625 c -1.312,-0.867 -2.406,-2.035 -3.188,-3.402 -1.636,-2.864 -1.636,-6.082 0,-8.946 0.782,-1.367 1.876,-2.535 3.188,-3.402 L 50.25,25 c 1.203,-0.816 2.215,-1.883 2.969,-3.125 z" style="fill:currentColor;fill-opacity:1;fill-rule:nonzero;stroke:none" transform="scale(1.3333333)" /> </g>
</svg>

