<?xml version="1.0" encoding="UTF-8" standalone="no"?> <svg version="1.1" id="Ia10049bf3cde4d38834ca00db40bafd020251106132946" width="100" height="100" viewBox="0 0 100 100" xmlns="http://www.w3.org/2000/svg" xmlns:svg="http://www.w3.org/2000/svg"> <defs id="I02137cfa7b52403bba3bb9f176bc08bd20251106132946"> <linearGradient x1="13.6522" y1="24.4" x2="13.6522" y2="22" gradientUnits="userSpaceOnUse" gradientTransform="scale(2.678571)" spreadMethod="pad" id="I86f2b235a49e4595ae2433cc4d6f44d220251106132946"> <stop style="stop-opacity:1;stop-color:#9deaff" offset="0" id="I8fda57105bdf43d0a10187f7787421a020251106132946" /> <stop style="stop-opacity:1;stop-color:#58aafe" offset="0.715705" id="I8a270732af534e4fa5c16781174e4d8a20251106132946" /> <stop style="stop-opacity:1;stop-color:#58aafe" offset="1" id="Ie6fea8c052564a888c5b3c9a8a94e4c620251106132946" /> </linearGradient> <linearGradient x1="11.2105" y1="6.4904699" x2="15.1385" y2="32.2673" gradientUnits="userSpaceOnUse" gradientTransform="scale(2.678571)" spreadMethod="pad" id="I2bb35917273b480e8e7db60aa501fe1420251106132946"> <stop style="stop-opacity:1;stop-color:#20ac9d" offset="0" id="I46d5a5371a38470f98bb2eb03f5dd1e620251106132946" /> <stop style="stop-opacity:1;stop-color:#2052cb" offset="1" id="I934c9777fa234a16adb9f15b23b842de20251106132946" /> </linearGradient> <linearGradient x1="12.2936" y1="4.64219" x2="18.320999" y2="12.8942" gradientUnits="userSpaceOnUse" gradientTransform="scale(2.678571)" spreadMethod="pad" id="I990dda66c82b41b9af359c9f66ac159c20251106132946"> <stop style="stop-opacity:1;stop-color:#9ff0f9" offset="0" id="Icc939908a10f4a2e8405e078dd24756520251106132946" /> <stop style="stop-opacity:1;stop-color:#6ce0ff" offset="1" id="Ic0577f6627124b80ad2c3ccd192991f420251106132946" /> </linearGradient> </defs> <g id="I8fff3da1f6cf402988ad7a0c3503babd20251106132946"> <path id="I8f8b1a0d09cf4538b770e815d532d30a20251106132946" d="m 16.07,57.59 h 44.887 c 0,0 -0.687,2.176 -0.687,5.355 0,3.184 0.687,5.36 0.687,5.36 H 23.438 c -4.067,0 -7.368,-3.301 -7.368,-7.367 z" transform="scale(1.3333333)" style="fill:url(#I86f2b235a49e4595ae2433cc4d6f44d220251106132946);stroke:none" /> <path id="I057c10b0a9414f65a24fa440ff85048a20251106132946" d="m 23.438,5.355 c -5.547,0 -10.043,4.5 -10.043,10.047 v 44.196 c 0,5.547 4.496,10.043 10.043,10.043 h 36.16 c 1.109,0 2.007,-0.899 2.007,-2.008 0,-1.11 -0.898,-2.008 -2.007,-2.008 h -36.16 c -3.102,0 -5.657,-2.344 -5.989,-5.355 H 57.59 c 2.219,0 4.015,-1.801 4.015,-4.02 V 15.402 C 61.605,9.855 57.109,5.355 51.562,5.355 Z" transform="scale(1.3333333)" style="fill:url(#I2bb35917273b480e8e7db60aa501fe1420251106132946);stroke:none" /> <path id="I5aaa7d371b2c484e9a09bd61af1eb30920251106132946" d="m 26.117,14.73 c -1.851,0 -3.347,1.5 -3.347,3.352 v 6.695 c 0,1.848 1.496,3.348 3.347,3.348 h 22.766 c 1.851,0 3.347,-1.5 3.347,-3.348 v -6.695 c 0,-1.852 -1.496,-3.352 -3.347,-3.352 z" transform="scale(1.3333333)" style="fill:url(#I990dda66c82b41b9af359c9f66ac159c20251106132946);stroke:none" /> </g>
</svg>

