<?xml version="1.0" encoding="UTF-8" standalone="no"?> <svg version="1.1" id="Ib1aadaa34f6e4720a2030b92d5d2781020251106151527" width="100" height="100" viewBox="0 0 100 100" xmlns="http://www.w3.org/2000/svg" xmlns:svg="http://www.w3.org/2000/svg"> <defs id="I600d625b30594de99d33cdff9e5ca2bc20251106151527" /> <g id="Ib4cbb80fa7434c45b3e1bae0a407bf1d20251106151527"> <path id="I73dfbce8a9ba44e589877b267ff3079420251106151527" d="m 67.691,18.25 c 0.368,0.266 0.68,0.602 0.93,1.004 l -0.012,0.004 c 0.246,0.387 0.414,0.832 0.485,1.297 0.07,0.433 0.054,0.894 -0.043,1.347 -0.117,0.469 -0.305,0.887 -0.571,1.254 L 57.418,38.641 v 15.281 c 0,0.93 -0.375,1.836 -1.031,2.492 -0.657,0.66 -1.543,1.024 -2.485,1.024 -0.945,0 -1.824,-0.364 -2.484,-1.024 -0.656,-0.652 -1.031,-1.562 -1.031,-2.492 V 38.641 L 39.324,23.156 c -0.273,-0.375 -0.476,-0.812 -0.574,-1.258 -0.102,-0.46 -0.121,-0.918 -0.047,-1.367 0.082,-0.441 0.246,-0.886 0.488,-1.281 0.25,-0.398 0.567,-0.734 0.954,-1.012 0.375,-0.273 0.796,-0.465 1.253,-0.566 0.426,-0.106 0.903,-0.125 1.372,-0.047 0.457,0.074 0.898,0.238 1.292,0.492 0.399,0.25 0.731,0.567 0.997,0.938 l 8.847,12.406 8.86,-12.402 c 0.254,-0.368 0.589,-0.684 0.992,-0.938 0.394,-0.25 0.832,-0.414 1.301,-0.492 0.476,-0.074 0.929,-0.059 1.382,0.051 0.438,0.097 0.868,0.289 1.25,0.57 z M 16.406,17.59 h 10.547 c 3.133,0.008 6.074,1.226 8.289,3.437 2.207,2.207 3.43,5.153 3.43,8.282 -0.004,3.136 -1.219,6.082 -3.43,8.289 -2.219,2.211 -5.156,3.429 -8.289,3.429 h -7.031 v 12.891 c 0,0.93 -0.375,1.832 -1.031,2.488 -0.657,0.664 -1.543,1.028 -2.485,1.028 -0.941,0 -1.824,-0.364 -2.484,-1.028 -0.656,-0.648 -1.031,-1.558 -1.031,-2.488 V 21.105 c 0,-0.921 0.375,-1.828 1.031,-2.484 0.66,-0.664 1.547,-1.031 2.484,-1.031 z m 3.516,16.406 h 7.031 c 1.238,0 2.438,-0.496 3.309,-1.371 0.886,-0.883 1.379,-2.063 1.379,-3.32 C 31.637,28.059 31.145,26.883 30.262,26 29.391,25.125 28.188,24.621 26.949,24.621 h -7.027 z" style="fill:currentColor;fill-opacity:1;fill-rule:nonzero;stroke:none" transform="scale(1.3333333)" /> </g>
</svg>

