<?xml version="1.0" encoding="UTF-8" standalone="no"?> <svg version="1.1" id="I34bc6b1965ed4dd4a4465b5ff9192a9f20251106170411" width="100" height="100" viewBox="0 0 100 100" xmlns="http://www.w3.org/2000/svg" xmlns:svg="http://www.w3.org/2000/svg"> <defs id="I14f649ee654949de8e7c8fceae527cde20251106170411" /> <g id="Ia03224943be540938648650d65fbd3c020251106170411"> <path id="Ib8ef50ab4e12497cb4bd9e5bce44474020251106170411" d="m 19.141,12.5 c -3.668,0 -6.641,2.973 -6.641,6.641 V 43.359 C 12.5,47.027 15.473,50 19.141,50 H 50.156 C 49.043,48.906 48.16,47.578 47.594,46.094 H 19.141 c -1.512,0 -2.735,-1.223 -2.735,-2.735 V 19.141 c 0,-1.512 1.223,-2.735 2.735,-2.735 h 36.718 c 1.512,0 2.735,1.223 2.735,2.735 v 12.136 c 1.39,0.098 2.707,0.457 3.906,1.024 V 19.141 C 62.5,15.473 59.527,12.5 55.859,12.5 Z M 8.203,55.469 H 40.98 c -0.23,0.738 -0.355,1.523 -0.355,2.34 v 0.785 c 0,0.261 0.008,0.523 0.023,0.781 H 8.203 c -1.078,0 -1.953,-0.875 -1.953,-1.953 0,-1.078 0.875,-1.953 1.953,-1.953 z M 65.625,42.188 C 65.625,46.504 62.129,50 57.812,50 53.496,50 50,46.504 50,42.188 c 0,-4.317 3.496,-7.813 7.812,-7.813 4.317,0 7.813,3.496 7.813,7.813 z m 6.25,16.406 c 0,5.468 -4.922,10.156 -14.063,10.156 -9.14,0 -14.062,-4.688 -14.062,-10.156 v -0.785 c 0,-2.59 2.098,-4.684 4.688,-4.684 h 18.75 c 2.589,0 4.687,2.094 4.687,4.684 z" style="fill:currentColor;fill-opacity:1;fill-rule:nonzero;stroke:none" transform="scale(1.3333333)" /> </g>
</svg>

