<?xml version="1.0" encoding="UTF-8" standalone="no"?> <svg version="1.1" id="I8ad8c34e2c4646eb99cb1c0d5189f85220251106102215" width="100" height="100" viewBox="0 0 100 100" xmlns="http://www.w3.org/2000/svg" xmlns:svg="http://www.w3.org/2000/svg"> <defs id="I9c7d033fbca64f849019f09f02cfde7920251106102215" /> <g id="Ie12ad20d9d6b49818c136f8c3966d9b220251106102215"> <path id="I68d7ed269a5d4b7599749ca6b07ba73c20251106102215" d="M 66.176,18.801 48.164,0.785 C 47.66,0.285 46.984,0 46.273,0 H 10.715 C 9.234,0 8.035,1.195 8.035,2.68 v 69.64 c 0,1.485 1.199,2.68 2.68,2.68 h 53.57 c 1.481,0 2.68,-1.195 2.68,-2.68 V 20.699 c 0,-0.711 -0.285,-1.398 -0.789,-1.898 z M 60.785,21.93 H 45.035 V 6.176 Z m 0.153,47.043 H 14.062 V 6.027 H 39.34 v 18.078 c 0,1.942 1.574,3.516 3.515,3.516 H 60.938 Z M 38.848,34.152 h -2.696 c -0.461,0 -0.863,0.309 -0.972,0.762 L 31.02,51.562 27.164,34.93 c -0.109,-0.453 -0.512,-0.778 -0.98,-0.778 h -2.965 c -0.66,0 -1.141,0.625 -0.969,1.262 l 6.211,23.106 c 0.117,0.433 0.519,0.742 0.969,0.742 h 2.679 c 0.453,0 0.856,-0.301 0.973,-0.742 L 37.5,42.027 41.918,58.52 c 0.117,0.433 0.52,0.742 0.973,0.742 h 2.66 c 0.453,0 0.855,-0.301 0.972,-0.742 L 52.75,35.414 c 0.168,-0.637 -0.312,-1.262 -0.969,-1.262 h -2.98 c -0.469,0 -0.871,0.325 -0.981,0.778 L 43.988,51.598 39.82,34.914 c -0.109,-0.453 -0.511,-0.762 -0.972,-0.762 z" style="fill:currentColor;fill-opacity:1;fill-rule:nonzero;stroke:none" transform="scale(1.3333333)" /> </g>
</svg>

