<?xml version="1.0" encoding="UTF-8" standalone="no"?> <svg version="1.1" id="I8af114a577584e41b64c7a7bbbe6fd6820251106125937" width="100" height="100" viewBox="0 0 100 100" xmlns="http://www.w3.org/2000/svg" xmlns:svg="http://www.w3.org/2000/svg"> <defs id="Ibb5d35eefe5d4dd490fd5e7d149d2fcd20251106125937" /> <g id="I46a43a5d7f2e4ba3a5c7fd13cd73aaac20251106125937"> <path id="I4623275dc5ae4f4388a62ab249bfc4ea20251106125937" d="M 67.961,38.176 C 66.523,36.891 64.906,35.801 63.156,34.945 61.871,21.906 50.875,11.719 37.5,11.719 c -6.852,0 -13.078,2.672 -17.695,7.031 h 5.976 c 1.293,0 2.344,1.051 2.344,2.344 0,1.293 -1.051,2.344 -2.344,2.344 H 14.062 c -1.292,0 -2.343,-1.051 -2.343,-2.344 V 9.375 c 0,-1.293 1.051,-2.344 2.343,-2.344 1.293,0 2.344,1.051 2.344,2.344 v 6.141 C 21.879,10.262 29.312,7.031 37.5,7.031 c 16.828,0 30.469,13.641 30.469,30.469 0,0.227 -0.004,0.453 -0.008,0.676 z M 37.5,67.969 c 0.227,0 0.453,-0.004 0.676,-0.008 C 36.891,66.523 35.801,64.906 34.945,63.156 21.906,61.871 11.719,50.875 11.719,37.5 c 0,-0.727 0.031,-1.441 0.09,-2.152 0.105,-1.289 -0.856,-2.422 -2.145,-2.528 -1.289,-0.105 -2.422,0.852 -2.527,2.145 -0.071,0.836 -0.106,1.68 -0.106,2.535 0,16.828 13.641,30.469 30.469,30.469 z M 36.328,53.906 c 0,9.707 7.871,17.578 17.578,17.578 9.707,0 17.578,-7.871 17.578,-17.578 0,-9.707 -7.871,-17.578 -17.578,-17.578 -9.707,0 -17.578,7.871 -17.578,17.578 z m 15.82,9.961 v -12.89 c 0,-0.973 0.786,-1.758 1.758,-1.758 0.973,0 1.758,0.785 1.758,1.758 v 12.89 c 0,0.973 -0.785,1.758 -1.758,1.758 -0.972,0 -1.758,-0.785 -1.758,-1.758 z M 51.562,44.531 c 0,-1.293 1.051,-2.343 2.344,-2.343 1.293,0 2.344,1.05 2.344,2.343 0,1.293 -1.051,2.344 -2.344,2.344 -1.293,0 -2.344,-1.051 -2.344,-2.344 z" style="fill:currentColor;fill-opacity:1;fill-rule:nonzero;stroke:none" transform="scale(1.3333333)" /> </g>
</svg>

