<?xml version="1.0" encoding="UTF-8" standalone="no"?> <svg version="1.1" id="I5f60e8b4b5624482b06ef2986738c7e020251106171634" width="100" height="100" viewBox="0 0 100 100" xmlns="http://www.w3.org/2000/svg" xmlns:svg="http://www.w3.org/2000/svg"> <defs id="I14c305e315ac4d84afd6e824c92615ad20251106171634" /> <g id="I1d0c8664ff4646af95d91293b42f853d20251106171634"> <path id="I0f427c9a75764559a1d3d4d05f92aed220251106171634" d="m 12.5,9.375 c 0,-1.727 1.398,-3.125 3.125,-3.125 h 5.469 c 1.726,0 3.125,1.398 3.125,3.125 0,1.727 -1.399,3.125 -3.125,3.125 H 15.625 C 13.898,12.5 12.5,11.102 12.5,9.375 Z m 16.406,0 c 0,-1.727 1.399,-3.125 3.125,-3.125 h 10.938 c 1.726,0 3.125,1.398 3.125,3.125 0,1.727 -1.399,3.125 -3.125,3.125 H 32.031 c -1.726,0 -3.125,-1.398 -3.125,-3.125 z m 21.875,0 c 0,-1.727 1.399,-3.125 3.125,-3.125 h 5.469 c 1.727,0 3.125,1.398 3.125,3.125 0,1.727 -1.398,3.125 -3.125,3.125 h -5.469 c -1.726,0 -3.125,-1.398 -3.125,-3.125 z M 12.5,65.625 c 0,-1.727 1.398,-3.125 3.125,-3.125 h 43.75 c 1.727,0 3.125,1.398 3.125,3.125 0,1.727 -1.398,3.125 -3.125,3.125 H 15.625 C 13.898,68.75 12.5,67.352 12.5,65.625 Z M 39.711,16.539 c -1.223,-1.219 -3.199,-1.219 -4.422,0 L 19.664,32.164 c -1.219,1.223 -1.219,3.199 0,4.422 1.223,1.219 3.199,1.219 4.422,0 L 34.375,26.293 V 56.25 c 0,1.727 1.398,3.125 3.125,3.125 1.727,0 3.125,-1.398 3.125,-3.125 V 26.293 l 10.289,10.293 c 1.223,1.219 3.199,1.219 4.422,0 1.219,-1.223 1.219,-3.199 0,-4.422 z" style="fill:currentColor;fill-opacity:1;fill-rule:nonzero;stroke:none" transform="scale(1.3333333)" /> </g>
</svg>

