<?xml version="1.0" encoding="UTF-8" standalone="no"?> <svg version="1.1" id="Ia189e1dab22e4376b925e92c04fc384b20251110124419" width="100" height="100" viewBox="0 0 100 100" xmlns="http://www.w3.org/2000/svg" xmlns:svg="http://www.w3.org/2000/svg"> <defs id="Ib1c76302b9404e1dac393cce999987b220251110124419" /> <g id="I25bf4b56e2cb4a32ba896eff7dcdd73920251110124419"> <path id="I8a9e09b50af54fe9b2c3cec1596eb05220251110124419" d="M 37.5,75 C 58.211,75 75,58.211 75,37.5 75,16.789 58.211,0 37.5,0 16.789,0 0,16.789 0,37.5 0,58.211 16.789,75 37.5,75 Z M 53.277,30.777 36.402,47.652 c -1.464,1.465 -3.84,1.465 -5.304,0 l -7.5,-7.5 c -1.465,-1.464 -1.465,-3.84 0,-5.304 1.464,-1.465 3.84,-1.465 5.304,0 l 4.848,4.847 14.223,-14.222 c 1.465,-1.465 3.839,-1.465 5.304,0 1.465,1.465 1.465,3.839 0,5.304 z" style="fill:currentColor;fill-opacity:1;fill-rule:nonzero;stroke:none" transform="scale(1.3333333)" /> </g>
</svg>

