<?xml version="1.0" encoding="UTF-8" standalone="no"?> <svg version="1.1" id="Iaaff928ee11a491983254b0486eed8d120251110123030" width="100" height="100" viewBox="0 0 100 100" xmlns="http://www.w3.org/2000/svg" xmlns:svg="http://www.w3.org/2000/svg"> <defs id="I25ebfcf716f543bcaa5cee7b80a914cd20251110123030" /> <g id="I83e41df20ace41369da1df2d2013320d20251110123030"> <path id="I07c8baeefb1d42acab6b3910d7dd9eb020251110123030" d="m 30.805,18.75 c 0,-3.699 2.996,-6.695 6.695,-6.695 3.699,0 6.695,2.996 6.695,6.695 0,3.699 -2.996,6.695 -6.695,6.695 -3.699,0 -6.695,-2.996 -6.695,-6.695 z M 37.5,8.035 c -5.918,0 -10.715,4.797 -10.715,10.715 0,5.918 4.797,10.715 10.715,10.715 5.918,0 10.715,-4.797 10.715,-10.715 C 48.215,12.832 43.418,8.035 37.5,8.035 Z M 14.73,20.09 c -2.957,0 -5.355,2.398 -5.355,5.355 0,2.961 2.398,5.36 5.355,5.36 2.961,0 5.36,-2.399 5.36,-5.36 0,-2.957 -2.399,-5.355 -5.36,-5.355 z m -9.375,5.355 c 0,-5.175 4.2,-9.375 9.375,-9.375 5.18,0 9.375,4.2 9.375,9.375 0,5.18 -4.195,9.375 -9.375,9.375 -5.175,0 -9.375,-4.195 -9.375,-9.375 z M 60.27,20.09 c -2.961,0 -5.36,2.398 -5.36,5.355 0,2.961 2.399,5.36 5.36,5.36 2.957,0 5.355,-2.399 5.355,-5.36 0,-2.957 -2.398,-5.355 -5.355,-5.355 z m -9.375,5.355 c 0,-5.175 4.195,-9.375 9.375,-9.375 5.175,0 9.375,4.2 9.375,9.375 0,5.18 -4.2,9.375 -9.375,9.375 -5.18,0 -9.375,-4.195 -9.375,-9.375 z m -26.79,14.063 c 0,-2.586 2.102,-4.688 4.688,-4.688 h 17.414 c 2.586,0 4.688,2.102 4.688,4.688 V 53.57 c 0,7.399 -5.997,13.395 -13.395,13.395 -7.398,0 -13.395,-5.996 -13.395,-13.395 z m 4.688,-0.668 c -0.367,0 -0.668,0.301 -0.668,0.668 V 53.57 c 0,5.18 4.199,9.375 9.375,9.375 5.176,0 9.375,-4.195 9.375,-9.375 V 39.508 c 0,-0.367 -0.301,-0.668 -0.668,-0.668 z M 21.43,39.516 8.832,42.891 c -2.5,0.668 -3.984,3.238 -3.312,5.742 l 2.25,8.406 c 1.918,7.145 9.261,11.387 16.406,9.473 0.91,-0.246 1.773,-0.578 2.582,-0.989 -1.043,-0.933 -1.961,-2.003 -2.727,-3.183 -0.293,0.109 -0.59,0.207 -0.898,0.289 C 18.133,63.969 12.992,61 11.652,56 L 9.398,47.59 C 9.305,47.234 9.516,46.867 9.871,46.77 L 21.43,43.676 Z m 26.816,26.007 c 0.813,0.411 1.676,0.743 2.59,0.989 7.144,1.914 14.488,-2.328 16.402,-9.473 l 2.254,-8.406 C 70.16,46.129 68.676,43.559 66.176,42.891 L 53.57,39.512 v 4.16 l 11.567,3.098 c 0.355,0.097 0.57,0.464 0.472,0.82 L 63.355,56 c -1.339,5 -6.48,7.969 -11.48,6.629 -0.309,-0.082 -0.609,-0.18 -0.902,-0.289 -0.77,1.176 -1.688,2.246 -2.727,3.183 z" style="fill:currentColor;fill-opacity:1;fill-rule:nonzero;stroke:none" transform="scale(1.3333333)" /> </g>
</svg>

