<?xml version="1.0" encoding="UTF-8" standalone="no"?> <svg version="1.1" id="Ib2d88fe40eed4af98a3323b1fd07fe4820251106154012" width="100" height="100" viewBox="0 0 100 100" xmlns="http://www.w3.org/2000/svg" xmlns:svg="http://www.w3.org/2000/svg"> <defs id="Ic3d1031e940344a0b93c00dab4c7d79420251106154012" /> <g id="I28e5e8a51796409da6c9b261e965b84d20251106154012"> <path id="Ibc7cff4dac2e4b10bcf506b88c47325b20251106154012" d="m 22.363,8.035 c -4.226,0 -7.933,2.832 -9.047,6.91 L 5.742,42.715 C 3.883,49.531 9.012,56.25 16.078,56.25 h 42.844 c 7.066,0 12.195,-6.719 10.336,-13.535 L 61.684,14.945 C 60.57,10.867 56.863,8.035 52.637,8.035 Z M 17.195,16 c 0.633,-2.328 2.754,-3.945 5.168,-3.945 h 30.274 c 2.414,0 4.535,1.617 5.168,3.945 l 7.578,27.773 c 1.16,4.262 -2.047,8.457 -6.461,8.457 H 16.078 c -4.414,0 -7.621,-4.195 -6.461,-8.457 z m 3.559,44.27 c -1.109,0 -2.008,0.898 -2.008,2.007 0,1.11 0.899,2.008 2.008,2.008 h 33.492 c 1.109,0 2.008,-0.898 2.008,-2.008 0,-1.109 -0.899,-2.007 -2.008,-2.007 z" style="fill:currentColor;fill-opacity:1;fill-rule:nonzero;stroke:none" transform="scale(1.3333333)" /> </g>
</svg>

