<?xml version="1.0" encoding="UTF-8" standalone="no"?> <svg version="1.1" id="I689a58ff4c934daa80a6a2f76172f62b20251106103256" width="100" height="100" viewBox="0 0 100 100" xmlns="http://www.w3.org/2000/svg" xmlns:svg="http://www.w3.org/2000/svg"> <defs id="Idc9cca85213c473ea950cc21ab0259a620251106103256" /> <g id="I266fcdc7812c43d984b2ce96907206ce20251106103256"> <path id="Ie0c2a9918a91435c92b39ba9ee744f7f20251106103256" d="m 18.082,57.59 h 6.695 c 0.368,0 0.668,-0.301 0.668,-0.672 V 18.082 c 0,-0.371 -0.3,-0.672 -0.668,-0.672 h -6.695 c -0.371,0 -0.672,0.301 -0.672,0.672 v 38.836 c 0,0.371 0.301,0.672 0.672,0.672 z m 16.07,-23.438 h 6.696 c 0.367,0 0.672,-0.3 0.672,-0.672 V 18.082 c 0,-0.371 -0.305,-0.672 -0.672,-0.672 h -6.696 c -0.367,0 -0.672,0.301 -0.672,0.672 V 33.48 c 0,0.372 0.305,0.672 0.672,0.672 z m 16.071,6.028 h 6.695 c 0.371,0 0.672,-0.301 0.672,-0.672 V 18.082 c 0,-0.371 -0.301,-0.672 -0.672,-0.672 h -6.695 c -0.368,0 -0.668,0.301 -0.668,0.672 v 21.426 c 0,0.371 0.3,0.672 0.668,0.672 z M 68.305,4.02 H 6.695 C 5.215,4.02 4.02,5.215 4.02,6.695 v 61.61 c 0,1.48 1.195,2.675 2.675,2.675 h 61.61 c 1.48,0 2.675,-1.195 2.675,-2.675 V 6.695 C 70.98,5.215 69.785,4.02 68.305,4.02 Z M 64.957,64.957 H 10.043 V 10.043 h 54.914 z" style="fill:currentColor;fill-opacity:1;fill-rule:nonzero;stroke:none" transform="scale(1.3333333)" /> </g>
</svg>

