<?xml version="1.0" encoding="UTF-8" standalone="no"?> <svg version="1.1" id="I17411e2f8acb40e69ee87343910afe0220251110124421" width="100" height="100" viewBox="0 0 100 100" xmlns="http://www.w3.org/2000/svg" xmlns:svg="http://www.w3.org/2000/svg"> <defs id="I5cdbf90eebfc4de9a2eab4843000225020251110124421" /> <g id="I781c61f25d2d4a03ac1e5e5d7d97986a20251110124421"> <path id="Ib87c79c4f9fd43328dca3c52deb9e5fb20251110124421" d="m 11.719,15.625 c -1.293,0 -2.344,1.051 -2.344,2.344 v 16.406 c 0,15.629 9.242,27.113 27.266,34.211 0.55,0.219 1.168,0.219 1.718,0 0.45,-0.176 0.895,-0.356 1.332,-0.539 C 37.633,66.562 35.863,64.699 34.48,62.562 20.75,56.129 14.062,46.797 14.062,34.375 V 20.242 c 8.055,-0.472 15.879,-3.402 23.438,-8.75 7.559,5.348 15.383,8.278 23.438,8.75 v 13.297 c 1.691,0.879 3.238,1.992 4.609,3.293 0.051,-0.809 0.078,-1.629 0.078,-2.457 V 17.969 c 0,-1.293 -1.051,-2.344 -2.344,-2.344 -8.324,0 -16.429,-2.949 -24.375,-8.906 -0.832,-0.625 -1.98,-0.625 -2.812,0 -7.946,5.957 -16.051,8.906 -24.375,8.906 z M 51.562,68.75 c 9.493,0 17.188,-7.695 17.188,-17.188 0,-9.492 -7.695,-17.187 -17.188,-17.187 -9.492,0 -17.187,7.695 -17.187,17.187 0,9.493 7.695,17.188 17.187,17.188 z M 41.223,58.59 c -1.364,-2.004 -2.161,-4.422 -2.161,-7.028 0,-6.902 5.598,-12.5 12.5,-12.5 2.606,0 5.024,0.797 7.028,2.161 z m 3.312,3.312 17.367,-17.367 c 1.364,2.004 2.16,4.422 2.16,7.027 0,6.903 -5.597,12.5 -12.5,12.5 -2.605,0 -5.023,-0.796 -7.027,-2.16 z" style="fill:currentColor;fill-opacity:1;fill-rule:nonzero;stroke:none" transform="scale(1.3333333)" /> </g>
</svg>

