<?xml version="1.0" encoding="UTF-8" standalone="no"?> <svg version="1.1" id="I95248a7a0d9d49dd90b6638be5bc2cb620251106163937" width="100" height="100" viewBox="0 0 100 100" xmlns="http://www.w3.org/2000/svg" xmlns:svg="http://www.w3.org/2000/svg"> <defs id="Ia70dec6d59b640f0a2a10a66f600b8b720251106163937" /> <g id="Ib521e384fe1c4271b7711ed0b5879b5f20251106163937"> <path id="I37a054b75046442caddaed6f234c6a8b20251106163937" d="M 16.406,12.5 C 10.797,12.5 6.25,17.047 6.25,22.656 v 29.688 c 0,5.609 4.547,10.156 10.156,10.156 h 42.188 c 5.609,0 10.156,-4.547 10.156,-10.156 V 22.656 C 68.75,17.047 64.203,12.5 58.594,12.5 Z m -5.468,10.156 c 0,-3.019 2.449,-5.468 5.468,-5.468 h 42.188 c 3.019,0 5.468,2.449 5.468,5.468 v 29.688 c 0,3.019 -2.449,5.468 -5.468,5.468 H 16.406 c -3.019,0 -5.468,-2.449 -5.468,-5.468 z m 46.093,-0.781 c -1.293,0 -2.343,1.051 -2.343,2.344 v 1.562 c 0,1.293 1.05,2.344 2.343,2.344 1.293,0 2.344,-1.051 2.344,-2.344 v -1.562 c 0,-1.293 -1.051,-2.344 -2.344,-2.344 z m -2.343,27.344 c 0,-1.293 1.05,-2.344 2.343,-2.344 1.293,0 2.344,1.051 2.344,2.344 v 1.562 c 0,1.293 -1.051,2.344 -2.344,2.344 -1.293,0 -2.343,-1.051 -2.343,-2.344 z m 2.343,-14.844 c -1.293,0 -2.343,1.051 -2.343,2.344 v 1.562 c 0,1.293 1.05,2.344 2.343,2.344 1.293,0 2.344,-1.051 2.344,-2.344 v -1.562 c 0,-1.293 -1.051,-2.344 -2.344,-2.344 z M 15.625,24.219 c 0,-1.293 1.051,-2.344 2.344,-2.344 1.293,0 2.343,1.051 2.343,2.344 v 1.562 c 0,1.293 -1.05,2.344 -2.343,2.344 -1.293,0 -2.344,-1.051 -2.344,-2.344 z m 2.344,22.656 c -1.293,0 -2.344,1.051 -2.344,2.344 v 1.562 c 0,1.293 1.051,2.344 2.344,2.344 1.293,0 2.343,-1.051 2.343,-2.344 v -1.562 c 0,-1.293 -1.05,-2.344 -2.343,-2.344 z M 15.625,36.719 c 0,-1.293 1.051,-2.344 2.344,-2.344 1.293,0 2.343,1.051 2.343,2.344 v 1.562 c 0,1.293 -1.05,2.344 -2.343,2.344 -1.293,0 -2.344,-1.051 -2.344,-2.344 z M 31.25,30.473 c 0,-1.809 1.801,-2.938 3.234,-2.024 l 11.481,7.321 c 1.215,0.773 1.215,2.687 0,3.46 L 34.484,46.551 C 33.051,47.465 31.25,46.336 31.25,44.527 Z" style="fill:currentColor;fill-opacity:1;fill-rule:nonzero;stroke:none" transform="scale(1.3333333)" /> </g>
</svg>

