<?xml version="1.0" encoding="UTF-8" standalone="no"?> <svg version="1.1" id="I9600ef6a7f8b4422b7e8bb09d8e1a80920251110123030" width="100" height="100" viewBox="0 0 100 100" xmlns="http://www.w3.org/2000/svg" xmlns:svg="http://www.w3.org/2000/svg"> <defs id="I6ff9ca229ea04af98f559b10cd22529e20251110123030"> <linearGradient x1="9.7072897" y1="19.5952" x2="13.5843" y2="31.976601" gradientUnits="userSpaceOnUse" gradientTransform="scale(2.34375)" spreadMethod="pad" id="I5cf2aeecf7a946b4b1741a48d085b85320251110123030"> <stop style="stop-opacity:1;stop-color:#9c6cfe" offset="0" id="I2e00941e904a49da9bebb61a3a3645f920251110123030" /> <stop style="stop-opacity:1;stop-color:#9c6cfe" offset="0.125321" id="I7c77296342ea47b1807f74a87b3a635520251110123030" /> <stop style="stop-opacity:1;stop-color:#7a41dc" offset="1" id="I399686e8abcf477bac228a31109378c420251110123030" /> </linearGradient> <linearGradient x1="16" y1="16.5714" x2="21.4286" y2="36.857201" gradientUnits="userSpaceOnUse" gradientTransform="scale(2.34375)" spreadMethod="pad" id="I329d4592e06c4faaba04fa4728ba377d20251110123030"> <stop style="stop-opacity:0;stop-color:#885edb" offset="0" id="Iabfb1be07d2747b9ac67bb60a39c47b320251110123030" /> <stop style="stop-opacity:1;stop-color:#e362f8" offset="1" id="I7239216957b54137b25786aefafb6a6920251110123030" /> </linearGradient> <radialGradient fx="0" fy="0" cx="0" cy="0" r="1" gradientUnits="userSpaceOnUse" gradientTransform="matrix(22.692871,-38.169815,19.749403,11.741494,48.571875,80.357344)" spreadMethod="pad" id="I7db3982d136a4c25bc494aa24dd8093c20251110123030"> <stop style="stop-opacity:0.56250858;stop-color:#0a1852" offset="0" id="Ifb9251f022884e1387ee489d08883e5d20251110123030" /> <stop style="stop-opacity:0;stop-color:#0a1852" offset="1" id="I5b284b0b0c434c7cbe58e70fbe1ba91c20251110123030" /> </radialGradient> <radialGradient fx="0" fy="0" cx="0" cy="0" r="1" gradientUnits="userSpaceOnUse" gradientTransform="matrix(0,-12.890625,16.992188,0,60.9375,50.390625)" spreadMethod="pad" id="I1ecb11ba064f413592e732f416474e6620251110123030"> <stop style="stop-opacity:0.56250858;stop-color:#0a1852" offset="0" id="I23f4f024f3124983886afb945f6ff44a20251110123030" /> <stop style="stop-opacity:0;stop-color:#0a1852" offset="1" id="Ie398a0a7a9624acf9e1fc07129d878de20251110123030" /> </radialGradient> <linearGradient x1="12.3293" y1="3.8611" x2="19.4641" y2="15.2539" gradientUnits="userSpaceOnUse" gradientTransform="scale(2.34375)" spreadMethod="pad" id="If879792d1001467dae5b965574cd045a20251110123030"> <stop style="stop-opacity:1;stop-color:#9c6cfe" offset="0" id="I74c1bd87fb8e41f9bcd63b0f56781e3520251110123030" /> <stop style="stop-opacity:1;stop-color:#9c6cfe" offset="0.125321" id="I7bd369a2b18643b2880ef06b857fcc3b20251110123030" /> <stop style="stop-opacity:1;stop-color:#7a41dc" offset="1" id="I609e75e91d644487b1702361aa369cb620251110123030" /> </linearGradient> <linearGradient x1="20.861401" y1="19.947901" x2="27.0445" y2="26.1486" gradientUnits="userSpaceOnUse" gradientTransform="scale(2.34375)" spreadMethod="pad" id="Ide0c11adf7cb419aa2d2d3698cb9d06920251110123030"> <stop style="stop-opacity:1;stop-color:#ffa43d" offset="0" id="I8f120a5b5f8948e38479fdeadc7ab14820251110123030" /> <stop style="stop-opacity:1;stop-color:#fb5937" offset="1" id="I1031a0749a9644cc9e182419a1ecb08720251110123030" /> </linearGradient> <linearGradient x1="15.1744" y1="26.847" x2="19.325001" y2="30.9751" gradientUnits="userSpaceOnUse" gradientTransform="scale(2.34375)" spreadMethod="pad" id="Ifa3dad178b7043f4ba402fbbfb7f5c5620251110123030"> <stop style="stop-opacity:1;stop-color:#ffd394" offset="0" id="I2e2f7f3f00664ba1984d2005b29dc15c20251110123030" /> <stop style="stop-opacity:1;stop-color:#ffd394" offset="0.255" id="I6b649cd2a51c475681eacc3bd678244120251110123030" /> <stop style="stop-opacity:1;stop-color:#ff921f" offset="1" id="Ifa79e72f34bb4300bb3da9445bd74a9e20251110123030" /> </linearGradient> <linearGradient x1="29.5019" y1="17.4855" x2="26.868999" y2="19.9687" gradientUnits="userSpaceOnUse" gradientTransform="scale(2.34375)" spreadMethod="pad" id="Iaf2c54193fb74de1b9978fae82f7435120251110123030"> <stop style="stop-opacity:1;stop-color:#f97dbd" offset="0" id="Ie3167c62013f479ebeebc7ab882c29cd20251110123030" /> <stop style="stop-opacity:1;stop-color:#dd3ce2" offset="1" id="I039e8a6680b14fc6b31e04ca712381f020251110123030" /> </linearGradient> <linearGradient x1="26.4694" y1="21.663601" x2="22.4888" y2="19.902201" gradientUnits="userSpaceOnUse" gradientTransform="scale(2.34375)" spreadMethod="pad" id="Ide2921bb6a134a14b4f0956c4c52eea320251110123030"> <stop style="stop-opacity:1;stop-color:#ff921f" offset="0" id="I8ef98ffcf82441eebabd5a54a62a5e3b20251110123030" /> <stop style="stop-opacity:1;stop-color:#ffe994" offset="1" id="Iada3ed834105428ba6d84a96df9de00320251110123030" /> </linearGradient> </defs> <g id="I2446ae4d12f44a10868c9a8ea54c501420251110123030"> <path id="Ib71f692519cb4d16a81f6805af52c28220251110123030" d="m 58.887,42.316 v 9.766 L 39.914,70.246 c -0.797,0.043 -1.602,0.066 -2.414,0.066 -7.496,0 -14.395,-1.929 -19.488,-5.171 C 12.945,61.914 9.375,57.172 9.375,51.562 v -1.171 c 0,-4.532 3.672,-8.203 8.203,-8.203 h 39.844 c 0.5,0 0.988,0.042 1.465,0.128 z" transform="scale(1.3333333)" style="fill:url(#I5cf2aeecf7a946b4b1741a48d085b85320251110123030);stroke:none" /> <path d="m 58.887,42.316 v 9.766 L 39.914,70.246 c -0.797,0.043 -1.602,0.066 -2.414,0.066 -7.496,0 -14.395,-1.929 -19.488,-5.171 C 12.945,61.914 9.375,57.172 9.375,51.562 v -1.171 c 0,-4.532 3.672,-8.203 8.203,-8.203 h 39.844 c 0.5,0 0.988,0.042 1.465,0.128 z" transform="scale(1.3333333)" style="fill:url(#I329d4592e06c4faaba04fa4728ba377d20251110123030);stroke:none" opacity="1" id="I6f00f7f8967a4cadb76f6d021157c2ae20251110123030" /> <path d="m 58.887,42.316 v 9.766 L 39.914,70.246 c -0.797,0.043 -1.602,0.066 -2.414,0.066 -7.496,0 -14.395,-1.929 -19.488,-5.171 C 12.945,61.914 9.375,57.172 9.375,51.562 v -1.171 c 0,-4.532 3.672,-8.203 8.203,-8.203 h 39.844 c 0.5,0 0.988,0.042 1.465,0.128 z" transform="scale(1.3333333)" style="fill:url(#I7db3982d136a4c25bc494aa24dd8093c20251110123030);stroke:none" opacity="1" id="I82f6c75e580e47e2ada6841e083f784920251110123030" /> <path d="m 58.887,42.316 v 9.766 L 39.914,70.246 c -0.797,0.043 -1.602,0.066 -2.414,0.066 -7.496,0 -14.395,-1.929 -19.488,-5.171 C 12.945,61.914 9.375,57.172 9.375,51.562 v -1.171 c 0,-4.532 3.672,-8.203 8.203,-8.203 h 39.844 c 0.5,0 0.988,0.042 1.465,0.128 z" transform="scale(1.3333333)" style="fill:url(#I1ecb11ba064f413592e732f416474e6620251110123030);stroke:none" opacity="1" id="I516d0932735e44b484a45f6df3839e4420251110123030" /> <path id="Ia6ae327118854953b1b2a2a414542ac320251110123030" d="m 37.5,37.5 c 9.062,0 16.406,-7.344 16.406,-16.406 0,-9.063 -7.344,-16.406 -16.406,-16.406 -9.062,0 -16.406,7.343 -16.406,16.406 0,9.062 7.344,16.406 16.406,16.406 z" transform="scale(1.3333333)" style="fill:url(#If879792d1001467dae5b965574cd045a20251110123030);stroke:none" /> <path id="I97f20ca41aa847bc8f91112e4e6db78320251110123030" d="M 50.48,69.066 68.316,51.387 V 41.84 H 58.77 l -17.735,17.906 0.723,8.66 z" transform="scale(1.3333333)" style="fill:url(#Ide0c11adf7cb419aa2d2d3698cb9d06920251110123030);stroke:none" /> <path id="I7a9cc503d5ef434c98b90e85f7a2f60a20251110123030" d="m 50.48,69.07 c 0.176,-0.175 0.352,-0.347 0.524,-0.523 0,0 -4.043,-1.547 -5.942,-3.445 -1.894,-1.895 -3.445,-5.938 -3.445,-5.938 0,0 -0.387,0.387 -0.582,0.582 -0.773,0.785 -1.328,1.758 -1.605,2.828 l -1.852,7.149 c -0.449,1.73 1.121,3.304 2.852,2.859 l 7.078,-1.824 c 1.121,-0.289 2.148,-0.871 2.972,-1.688 z" transform="scale(1.3333333)" style="fill:url(#Ifa3dad178b7043f4ba402fbbfb7f5c5620251110123030);stroke:none" /> <path id="I5134422bafd849419220bfe62dd14bd020251110123030" d="m 65.477,54.234 5.183,-5.187 c 2.594,-2.574 2.668,-6.75 0.168,-9.414 -2.617,-2.789 -7.023,-2.852 -9.715,-0.137 l -5.242,5.254 z" transform="scale(1.3333333)" style="fill:url(#Iaf2c54193fb74de1b9978fae82f7435120251110123030);stroke:none" /> <path id="Ibabc1266505b456ca7071d2fbf95019f20251110123030" d="m 58.816,41.809 c 1.125,4.718 4.875,8.418 9.622,9.461 l -3.633,3.64 c -4.746,-1.047 -8.5,-4.75 -9.625,-9.472 z" transform="scale(1.3333333)" style="fill:url(#Ide2921bb6a134a14b4f0956c4c52eea320251110123030);stroke:none" /> </g>
</svg>

