<?xml version="1.0" encoding="UTF-8" standalone="no"?> <svg version="1.1" id="Ia8132f808ae8439faf323d30fb19cdcc20251110124420" width="100" height="100" viewBox="0 0 100 100" xmlns="http://www.w3.org/2000/svg" xmlns:svg="http://www.w3.org/2000/svg"> <defs id="I688a3ed63a0f4bc599acc8ce0b0e30da20251110124420" /> <g id="Ibf405b25fc30466eb03e799c57490a9b20251110124420"> <path id="Ie5fdbb5675da46e9a37397db246c2f8820251110124420" d="m 16.406,6.25 h 15.625 c 1.293,0 2.344,1.051 2.344,2.344 0,1.293 -1.051,2.344 -2.344,2.344 H 16.406 c -3.019,0 -5.468,2.449 -5.468,5.468 v 9.262 C 9.129,26.305 7.527,27.375 6.25,28.75 V 16.406 C 6.25,10.797 10.797,6.25 16.406,6.25 Z m 32.926,57.812 c -0.637,1.809 -1.707,3.411 -3.082,4.688 h 12.344 c 5.609,0 10.156,-4.547 10.156,-10.156 V 42.969 c 0,-1.293 -1.051,-2.344 -2.344,-2.344 -1.293,0 -2.344,1.051 -2.344,2.344 v 15.625 c 0,3.019 -2.449,5.468 -5.468,5.468 z M 66.406,34.375 c 1.293,0 2.344,-1.051 2.344,-2.344 V 16.406 C 68.75,10.797 64.203,6.25 58.594,6.25 H 42.969 c -1.293,0 -2.344,1.051 -2.344,2.344 0,1.293 1.051,2.344 2.344,2.344 h 15.625 c 3.019,0 5.468,2.449 5.468,5.468 v 15.625 c 0,1.293 1.051,2.344 2.344,2.344 z m -44.531,-6.25 h 9.375 v 10.937 h -9.375 z m 0,15.625 h 9.375 v 10.938 h -9.375 z m 14.063,0 V 54.688 H 46.875 V 43.75 Z M 21.875,59.375 h 9.375 v 9.375 h -9.375 z m 14.063,0 v 9.375 h 2.343 c 4.746,0 8.594,-3.848 8.594,-8.594 v -0.781 z m 0,-31.25 v 10.937 h 10.937 v -2.343 c 0,-4.746 -3.848,-8.594 -8.594,-8.594 z m -18.75,0 h -2.344 c -4.746,0 -8.594,3.848 -8.594,8.594 v 2.343 h 10.938 z m 0,15.625 H 6.25 v 10.938 h 10.938 z m 0,15.625 H 6.25 v 0.781 c 0,4.746 3.848,8.594 8.594,8.594 h 2.344 z" style="fill:currentColor;fill-opacity:1;fill-rule:nonzero;stroke:none" transform="scale(1.3333333)" /> </g>
</svg>

