<?xml version="1.0" encoding="UTF-8" standalone="no"?> <svg version="1.1" id="I30c4bd894a4c4de4a9674ab332ce4e3c20251105191527" width="100" height="100" viewBox="0 0 100 100" xmlns="http://www.w3.org/2000/svg" xmlns:svg="http://www.w3.org/2000/svg"> <defs id="Ib93d62c628544a7693a8fd77b0c20ef220251105191527" /> <g id="I0e8184f5f4fd4c17b0aee563a675c71420251105191527"> <path id="If8bfaf6865f3488b8dfecebdc4a56fb220251105191527" d="m 54.602,20.91 c 1.589,-1.582 1.589,-4.16 0,-5.742 L 48.75,9.316 48.758,9.324 C 47.211,7.777 44.547,5.113 40.781,1.355 39.008,-0.375 36.137,-0.359 34.379,1.398 L 1.414,34.336 c -1.773,1.762 -1.773,4.633 0,6.394 l 32.957,32.93 c 1.766,1.766 4.633,1.766 6.402,0 L 54.594,59.848 c 1.59,-1.582 1.59,-4.16 0,-5.743 -1.59,-1.582 -4.16,-1.582 -5.75,0 L 38.379,64.586 c -0.434,0.437 -1.113,0.437 -1.547,0 L 10.504,38.285 c -0.434,-0.433 -0.434,-1.113 0,-1.547 l 26.316,-26.3 c 0.035,-0.032 0.078,-0.059 0.11,-0.09 0.437,-0.344 1.039,-0.313 1.441,0.09 L 48.852,20.91 c 1.589,1.59 4.168,1.59 5.75,0 z M 28.844,37.699 c 0,2.36 0.937,4.621 2.605,6.289 1.672,1.664 3.934,2.602 6.293,2.602 2.36,0 4.625,-0.938 6.293,-2.602 1.668,-1.668 2.606,-3.929 2.606,-6.289 0,-2.355 -0.938,-4.617 -2.606,-6.285 -1.668,-1.668 -3.933,-2.602 -6.293,-2.602 -2.359,0 -4.621,0.934 -6.293,2.602 -1.668,1.668 -2.605,3.93 -2.605,6.285 z M 73.727,34.469 63.441,24.234 c -1.589,-1.582 -4.168,-1.582 -5.75,0.008 -1.593,1.582 -1.593,4.156 0,5.742 l 6.946,6.938 c 0.437,0.437 0.437,1.113 0,1.551 l -6.848,6.836 c -1.59,1.586 -1.59,4.16 0,5.742 1.59,1.582 4.16,1.582 5.75,0 L 73.734,40.863 c 1.77,-1.765 1.766,-4.633 -0.007,-6.394 z" style="fill:currentColor;fill-opacity:1;fill-rule:nonzero;stroke:none" transform="scale(1.3333333)" /> </g>
</svg>

