<?xml version="1.0" encoding="UTF-8" standalone="no"?> <svg version="1.1" id="Ia831868077334b9fb42cfb3f3964fd4020251110124422" width="100" height="100" viewBox="0 0 100 100" xmlns="http://www.w3.org/2000/svg" xmlns:svg="http://www.w3.org/2000/svg"> <defs id="I52694c3d00374082a2ece8b0220208ee20251110124422" /> <g id="I6cc36945dd03472391a24815996b1e9b20251110124422"> <path id="Ib4674613d4ee426a8bf5a2608cebe8df20251110124422" d="m 11.25,20.625 c 0,-5.176 4.199,-9.375 9.375,-9.375 h 33.75 c 5.176,0 9.375,4.199 9.375,9.375 v 26.25 c 0,-4.02 -1.406,-7.711 -3.75,-10.609 V 20.625 C 60,17.52 57.48,15 54.375,15 H 20.625 C 17.52,15 15,17.52 15,20.625 v 33.75 C 15,57.48 17.52,60 20.625,60 h 15.641 c 2.898,2.344 6.589,3.75 10.609,3.75 h -26.25 c -5.176,0 -9.375,-4.199 -9.375,-9.375 z m 11.25,3.75 c 0,-1.035 0.84,-1.875 1.875,-1.875 1.035,0 1.875,0.84 1.875,1.875 v 26.25 c 0,1.035 -0.84,1.875 -1.875,1.875 -1.035,0 -1.875,-0.84 -1.875,-1.875 z m 37.5,22.5 c 0,2.949 -0.973,5.668 -2.613,7.859 l 9.562,9.567 c 0.735,0.73 0.735,1.918 0,2.648 -0.73,0.735 -1.918,0.735 -2.648,0 L 54.734,57.387 C 52.543,59.027 49.824,60 46.875,60 39.625,60 33.75,54.125 33.75,46.875 33.75,39.625 39.625,33.75 46.875,33.75 54.125,33.75 60,39.625 60,46.875 Z m -3.75,0 c 0,-5.176 -4.199,-9.375 -9.375,-9.375 -5.176,0 -9.375,4.199 -9.375,9.375 0,5.176 4.199,9.375 9.375,9.375 5.176,0 9.375,-4.199 9.375,-9.375 z" style="fill:currentColor;fill-opacity:1;fill-rule:nonzero;stroke:none" transform="scale(1.3333333)" /> </g>
</svg>

