<?xml version="1.0" encoding="UTF-8" standalone="no"?> <svg version="1.1" id="I28cd83dbbef74c78bc9e1797b62d624b20251110130508" width="100" height="100" viewBox="0 0 100 100" xmlns="http://www.w3.org/2000/svg" xmlns:svg="http://www.w3.org/2000/svg"> <defs id="Ib79efadf39cd4b939fb3dde78e2ae8cf20251110130508" /> <g id="Ia89cedf6dcfa46ae9faf0f209cab306020251110130508"> <path id="I1039f7394d174e17b2352dcd5b13662720251110130508" d="m 8.035,18.082 c 0,-5.551 4.496,-10.047 10.047,-10.047 h 7.363 v 17.41 H 8.035 Z m 0,11.383 v 16.07 h 17.41 v -16.07 z m 0,20.09 v 7.363 c 0,5.551 4.496,10.047 10.047,10.047 h 7.363 v -17.41 z m 21.43,17.41 h 6.871 c -0.664,-1.231 -1.129,-2.586 -1.356,-4.02 h -5.515 z m 37.5,-21.43 v -16.07 h -17.41 v 16.07 z m 0,-20.09 v -7.363 c 0,-5.551 -4.496,-10.047 -10.047,-10.047 h -7.363 v 17.41 z M 45.535,8.035 h -16.07 v 4.02 h 16.07 z m 0,21.43 v 16.07 h -16.07 v -16.07 z m 2.008,25.445 c -3.328,0 -6.023,2.699 -6.023,6.028 0,3.328 2.695,6.027 6.023,6.027 h 1.34 c 1.109,0 2.012,0.898 2.012,2.008 0,1.109 -0.903,2.007 -2.012,2.007 h -1.34 C 41.996,70.98 37.5,66.484 37.5,60.938 c 0,-5.547 4.496,-10.043 10.043,-10.043 h 1.34 c 1.109,0 2.012,0.898 2.012,2.007 0,1.11 -0.903,2.008 -2.012,2.008 z m -2.008,6.028 c 0,-1.11 0.899,-2.008 2.008,-2.008 h 14.734 c 1.11,0 2.008,0.898 2.008,2.008 0,1.109 -0.898,2.007 -2.008,2.007 H 47.543 c -1.109,0 -2.008,-0.898 -2.008,-2.007 z m 16.742,6.027 c 3.328,0 6.028,-2.699 6.028,-6.027 0,-3.329 -2.7,-6.028 -6.028,-6.028 h -1.339 c -1.11,0 -2.008,-0.898 -2.008,-2.008 0,-1.109 0.898,-2.007 2.008,-2.007 h 1.339 c 5.547,0 10.043,4.496 10.043,10.043 0,5.546 -4.496,10.042 -10.043,10.042 h -1.339 c -1.11,0 -2.008,-0.898 -2.008,-2.007 0,-1.11 0.898,-2.008 2.008,-2.008 z" style="fill:currentColor;fill-opacity:1;fill-rule:nonzero;stroke:none" transform="scale(1.3333333)" /> </g>
</svg>

