<?xml version="1.0" encoding="UTF-8" standalone="no"?> <svg version="1.1" id="Id7841cf32b77421fba219dd85c6d647520251110123031" width="100" height="100" viewBox="0 0 100 100" xmlns="http://www.w3.org/2000/svg" xmlns:svg="http://www.w3.org/2000/svg"> <defs id="Ie8a58595650b4d9685a5dfd528fd9ca820251110123031" /> <g id="I2ed4d987b33842d4819756df8d131aec20251110123031"> <path id="I86a85a61c9ff46ecbad554ee5e55306520251110123031" d="m 26.105,26.785 c 3.192,0 5.801,2.481 6.016,5.613 l 0.012,0.414 v 30.805 c 0,3.188 -2.477,5.801 -5.613,6.012 l -0.415,0.016 H 11.383 c -3.188,0 -5.801,-2.481 -6.012,-5.618 L 5.355,63.617 V 32.812 c 0,-3.191 2.481,-5.8 5.618,-6.011 l 0.41,-0.016 z m 0,4.02 H 11.383 c -1.016,0 -1.856,0.754 -1.988,1.734 l -0.02,0.273 v 30.805 c 0,1.016 0.754,1.856 1.738,1.988 l 0.27,0.02 h 14.722 c 1.02,0 1.86,-0.758 1.993,-1.734 l 0.019,-0.274 V 32.812 c 0,-1.015 -0.758,-1.859 -1.738,-1.992 z M 20.758,57.59 c 1.109,0 2.012,0.898 2.012,2.008 0,1.019 -0.758,1.859 -1.739,1.992 l -0.273,0.015 h -4.02 c -1.109,0 -2.008,-0.898 -2.008,-2.007 0,-1.016 0.754,-1.856 1.735,-1.989 L 16.738,57.59 Z M 63.621,5.355 c 3.191,0 5.805,2.481 6.016,5.618 l 0.011,0.41 V 41.52 c 0,3.187 -2.476,5.8 -5.613,6.011 l -0.414,0.012 H 50.887 v 7.367 h 3.355 c 1.11,0 2.008,0.899 2.008,2.008 0,1.02 -0.758,1.859 -1.734,1.992 l -0.274,0.02 H 34.82 V 54.91 H 46.871 V 47.543 H 34.82 v -4.016 h 28.801 c 1.02,0 1.859,-0.757 1.992,-1.738 l 0.02,-0.269 V 11.383 c 0,-1.016 -0.758,-1.856 -1.738,-1.988 L 63.621,9.375 H 19.418 c -1.016,0 -1.856,0.754 -1.988,1.738 l -0.02,0.27 V 24.105 H 13.395 V 11.383 c 0,-3.188 2.476,-5.801 5.613,-6.012 l 0.41,-0.016 z" style="fill:currentColor;fill-opacity:1;fill-rule:nonzero;stroke:none" transform="scale(1.3333333)" /> </g>
</svg>

