<svg version="1.2" xmlns="http://www.w3.org/2000/svg" viewBox="0 0 100 100" width="100" height="100">
	<style>
		.Cdd40639adac944f2b17c2399f60f1ffa20251030150142 { fill: #000000 } 
	</style>
	<g id="Ib52fbd92789749e18f1955919b687b7e20251030150142">
		<path id="Ie5b3e04277224fda821a21c39167ffba20251030150142" fill-rule="evenodd" class="Cdd40639adac944f2b17c2399f60f1ffa20251030150142" d="m49.96 99.65c-27.47 0-49.68-22.21-49.68-49.69 0-27.47 22.21-49.68 49.68-49.68 27.48 0 49.69 22.21 49.69 49.68 0 27.48-22.21 49.69-49.69 49.69zm0-6.21c-24.04 0-43.47-19.43-43.47-43.48 0-24.04 19.43-43.47 43.47-43.47 24.05 0 43.48 19.43 43.48 43.47 0 24.05-19.43 43.48-43.48 43.48zm18.64-46.58h-15.53v-15.53c0-1.7-1.39-3.1-3.11-3.1-1.71 0-3.1 1.4-3.1 3.1v15.53h-15.53c-1.71 0-3.1 1.4-3.1 3.1 0 1.71 1.39 3.11 3.1 3.11h15.53v15.53c0 1.7 1.39 3.1 3.1 3.1 1.72 0 3.11-1.4 3.11-3.1v-15.53h15.53c1.71 0 3.1-1.4 3.1-3.11 0-1.7-1.39-3.1-3.1-3.1z"/>
	</g>
</svg>

