<?xml version="1.0" encoding="UTF-8" standalone="no"?> <svg version="1.1" id="I7fd56ce54e2a4a7d8cf30b61628ea03720251106170956" width="100" height="100" viewBox="0 0 100 100" xmlns="http://www.w3.org/2000/svg" xmlns:svg="http://www.w3.org/2000/svg"> <defs id="Ifeb2f9bba3c642619dcf0f29dc738d9e20251106170956" /> <g id="I7fe85d9ea843400e81bf719dfd3f160220251106170956"> <path id="Ia1d10b5e90f04865be503da23da216d720251106170956" d="m 54.906,2.68 c -6.656,0 -12.054,5.394 -12.054,12.05 v 6.7 l -4.336,5.023 c -0.582,0.672 -0.871,1.008 -0.957,1.274 -0.2,0.652 0.121,1.351 0.746,1.625 0.254,0.113 0.699,0.113 1.59,0.113 h 30.023 c 0.887,0 1.332,0 1.59,-0.113 0.625,-0.274 0.945,-0.973 0.742,-1.625 -0.082,-0.266 -0.371,-0.602 -0.953,-1.274 L 66.961,21.43 v -6.7 C 66.961,8.074 61.562,2.68 54.906,2.68 Z m 0,34.82 c 2.957,0 5.356,-2.398 5.356,-5.355 H 49.547 c 0,2.957 2.398,5.355 5.359,5.355 z M 35.012,26.934 c 0.195,-0.618 0.543,-1.086 0.73,-1.329 0.199,-0.261 0.461,-0.562 0.719,-0.859 l 3.723,-4.312 V 14.73 c 0,-0.449 0.019,-0.898 0.062,-1.335 H 16.742 l -0.496,0.011 c -4.578,0.258 -8.211,4.051 -8.211,8.692 V 22.59 L 37.5,37.914 46.926,33.012 c -0.028,-0.285 -0.043,-0.574 -0.043,-0.867 h -7.035 c -0.395,0 -0.793,0 -1.121,-0.02 -0.305,-0.016 -0.887,-0.059 -1.481,-0.316 -1.879,-0.821 -2.84,-2.918 -2.234,-4.875 z M 54.918,40.18 c -2.707,0 -5.098,-1.336 -6.555,-3.387 l -9.937,5.168 c -0.578,0.301 -1.27,0.301 -1.852,0 L 8.035,27.117 v 25.785 l 0.016,0.493 c 0.254,4.578 4.047,8.21 8.691,8.21 h 41.516 l 0.496,-0.011 c 4.578,-0.258 8.211,-4.051 8.211,-8.692 V 32.145 h -4.012 c 0,4.437 -3.598,8.035 -8.035,8.035 z" style="fill:currentColor;fill-opacity:1;fill-rule:nonzero;stroke:none" transform="scale(1.3333333)" /> </g>
</svg>

