<?xml version="1.0" encoding="UTF-8" standalone="no"?> <svg version="1.1" id="Ie501c53ba07c4f609b50f4a6bb8e00e220251106105458" width="100" height="100" viewBox="0 0 100 100" xmlns="http://www.w3.org/2000/svg" xmlns:svg="http://www.w3.org/2000/svg"> <defs id="I6bf3c9a919a7440badfd078e1df1b17520251106105458" /> <g id="I25709a0161374c4e9012b650a6be722e20251106105458"> <path id="I911e3f032dbc46ff9a8d4daf812522af20251106105458" d="M 12.055,6.695 H 7.367 c -0.371,0 -0.672,0.301 -0.672,0.672 v 60.266 c 0,0.371 0.301,0.672 0.672,0.672 h 4.688 c 0.367,0 0.668,-0.301 0.668,-0.672 V 7.367 c 0,-0.371 -0.301,-0.672 -0.668,-0.672 z m 13.894,0 h -4.687 c -0.367,0 -0.672,0.301 -0.672,0.672 v 4.688 c 0,0.367 0.305,0.668 0.672,0.668 h 4.687 c 0.367,0 0.668,-0.301 0.668,-0.668 V 7.367 c 0,-0.371 -0.301,-0.672 -0.668,-0.672 z m 41.684,0 h -4.688 c -0.367,0 -0.668,0.301 -0.668,0.672 v 4.688 c 0,0.367 0.301,0.668 0.668,0.668 h 4.688 c 0.371,0 0.672,-0.301 0.672,-0.668 V 7.367 c 0,-0.371 -0.301,-0.672 -0.672,-0.672 z m -27.789,0 h -4.688 c -0.367,0 -0.668,0.301 -0.668,0.672 v 4.688 c 0,0.367 0.301,0.668 0.668,0.668 h 4.688 c 0.367,0 0.668,-0.301 0.668,-0.668 V 7.367 c 0,-0.371 -0.301,-0.672 -0.668,-0.672 z m 13.894,0 h -4.687 c -0.367,0 -0.668,0.301 -0.668,0.672 v 4.688 c 0,0.367 0.301,0.668 0.668,0.668 h 4.687 c 0.367,0 0.672,-0.301 0.672,-0.668 V 7.367 c 0,-0.371 -0.305,-0.672 -0.672,-0.672 z M 39.844,20.59 h -4.688 c -0.367,0 -0.668,0.305 -0.668,0.672 v 4.687 c 0,0.367 0.301,0.668 0.668,0.668 h 4.688 c 0.367,0 0.668,-0.301 0.668,-0.668 v -4.687 c 0,-0.367 -0.301,-0.672 -0.668,-0.672 z m 27.789,0 h -4.688 c -0.367,0 -0.668,0.305 -0.668,0.672 v 4.687 c 0,0.367 0.301,0.668 0.668,0.668 h 4.688 c 0.371,0 0.672,-0.301 0.672,-0.668 v -4.687 c 0,-0.367 -0.301,-0.672 -0.672,-0.672 z m 0,27.793 h -4.688 c -0.367,0 -0.668,0.301 -0.668,0.668 v 4.687 c 0,0.367 0.301,0.672 0.668,0.672 h 4.688 c 0.371,0 0.672,-0.305 0.672,-0.672 v -4.687 c 0,-0.367 -0.301,-0.668 -0.672,-0.668 z m -27.789,0 h -4.688 c -0.367,0 -0.668,0.301 -0.668,0.668 v 4.687 c 0,0.367 0.301,0.672 0.668,0.672 h 4.688 c 0.367,0 0.668,-0.305 0.668,-0.672 v -4.687 c 0,-0.367 -0.301,-0.668 -0.668,-0.668 z m 0,13.894 h -4.688 c -0.367,0 -0.668,0.301 -0.668,0.668 v 4.688 c 0,0.371 0.301,0.672 0.668,0.672 h 4.688 c 0.367,0 0.668,-0.301 0.668,-0.672 v -4.688 c 0,-0.367 -0.301,-0.668 -0.668,-0.668 z m 0,-27.789 h -4.688 c -0.367,0 -0.668,0.301 -0.668,0.668 v 4.688 c 0,0.367 0.301,0.668 0.668,0.668 h 4.688 c 0.367,0 0.668,-0.301 0.668,-0.668 v -4.688 c 0,-0.367 -0.301,-0.668 -0.668,-0.668 z m 27.789,27.789 h -4.688 c -0.367,0 -0.668,0.301 -0.668,0.668 v 4.688 c 0,0.371 0.301,0.672 0.668,0.672 h 4.688 c 0.371,0 0.672,-0.301 0.672,-0.672 v -4.688 c 0,-0.367 -0.301,-0.668 -0.672,-0.668 z m 0,-27.789 h -4.688 c -0.367,0 -0.668,0.301 -0.668,0.668 v 4.688 c 0,0.367 0.301,0.668 0.668,0.668 h 4.688 c 0.371,0 0.672,-0.301 0.672,-0.668 v -4.688 c 0,-0.367 -0.301,-0.668 -0.672,-0.668 z M 25.949,62.277 h -4.687 c -0.367,0 -0.672,0.301 -0.672,0.668 v 4.688 c 0,0.371 0.305,0.672 0.672,0.672 h 4.687 c 0.367,0 0.668,-0.301 0.668,-0.672 v -4.688 c 0,-0.367 -0.301,-0.668 -0.668,-0.668 z m 0,-27.789 h -4.687 c -0.367,0 -0.672,0.301 -0.672,0.668 v 4.688 c 0,0.367 0.305,0.668 0.672,0.668 h 4.687 c 0.367,0 0.668,-0.301 0.668,-0.668 v -4.688 c 0,-0.367 -0.301,-0.668 -0.668,-0.668 z m 27.789,27.789 h -4.687 c -0.367,0 -0.668,0.301 -0.668,0.668 v 4.688 c 0,0.371 0.301,0.672 0.668,0.672 h 4.687 c 0.367,0 0.672,-0.301 0.672,-0.672 v -4.688 c 0,-0.367 -0.305,-0.668 -0.672,-0.668 z m 0,-27.789 h -4.687 c -0.367,0 -0.668,0.301 -0.668,0.668 v 4.688 c 0,0.367 0.301,0.668 0.668,0.668 h 4.687 c 0.367,0 0.672,-0.301 0.672,-0.668 v -4.688 c 0,-0.367 -0.305,-0.668 -0.672,-0.668 z" style="fill:currentColor;fill-opacity:1;fill-rule:nonzero;stroke:none" transform="scale(1.3333333)" /> </g>
</svg>

