<?xml version="1.0" encoding="UTF-8" standalone="no"?> <svg version="1.1" id="Ief86f891a56244f68d093b8e35c9b7a720251110123030" width="100" height="100" viewBox="0 0 100 100" xmlns="http://www.w3.org/2000/svg" xmlns:svg="http://www.w3.org/2000/svg"> <defs id="Ic05a2806d90c4d9a9e811eee8e019e9120251110123030" /> <g id="I928f5e4bbaeb431eba8b25d3572d09d220251110123030"> <path id="I61bd0779853a4643bdeed4521e349ad820251110123030" d="m 54.688,37.5 c 9.492,0 17.187,7.695 17.187,17.188 0,9.492 -7.695,17.187 -17.187,17.187 C 45.195,71.875 37.5,64.18 37.5,54.688 37.5,45.195 45.195,37.5 54.688,37.5 Z M 37.57,43.75 c -2.023,3.156 -3.195,6.91 -3.195,10.938 0,5.14 1.91,9.832 5.055,13.41 -2.508,0.437 -5.235,0.656 -8.18,0.656 -9.027,0 -16.023,-2.051 -20.91,-6.25 C 7.75,60.277 6.262,57.031 6.262,53.617 v -2.836 c 0,-3.883 3.148,-7.031 7.031,-7.031 z m 14.68,1.84 -0.219,0.18 -7.859,7.863 -0.129,0.16 -0.105,0.18 -0.102,0.242 -0.039,0.137 -0.031,0.269 0.011,0.274 0.059,0.265 0.098,0.242 0.078,0.133 0.16,0.207 7.859,7.863 c 0.61,0.61 1.602,0.61 2.211,0 0.543,-0.543 0.602,-1.382 0.18,-1.992 l -0.18,-0.218 -5.144,-5.145 h 14.964 c 0.77,0 1.407,-0.551 1.54,-1.281 l 0.023,-0.281 c 0,-0.766 -0.551,-1.403 -1.281,-1.536 L 64.062,53.125 H 49.098 l 5.144,-5.145 c 0.543,-0.542 0.602,-1.382 0.18,-1.992 L 54.242,45.77 C 53.699,45.227 52.859,45.168 52.25,45.59 Z m -21,-39.324 c 8.629,0 15.625,6.996 15.625,15.625 0,8.629 -6.996,15.625 -15.625,15.625 -8.629,0 -15.625,-6.996 -15.625,-15.625 0,-8.629 6.996,-15.625 15.625,-15.625 z" style="fill:currentColor;fill-opacity:1;fill-rule:nonzero;stroke:none" transform="scale(1.3333333)" /> </g>
</svg>

