<?xml version="1.0" encoding="UTF-8" standalone="no"?> <svg version="1.1" id="I2251d010cb65430aaeff935e17874e3c20251106104833" width="100" height="100" viewBox="0 0 100 100" xmlns="http://www.w3.org/2000/svg" xmlns:svg="http://www.w3.org/2000/svg"> <defs id="I76b1ab796c054531a9d588ebb475e9da20251106104833" /> <g id="Ie8c62e44adf143668d7c5eb2fe1ecf3120251106104833"> <path id="I05a21f4255c24bcc86adfdf073f6225820251106104833" d="M 73.16,33.047 70.68,6.879 C 70.555,5.523 69.477,4.453 68.121,4.32 L 41.953,1.84 h -0.035 c -0.266,0 -0.477,0.086 -0.633,0.246 L 2.086,41.285 c -0.328,0.324 -0.328,0.852 0,1.18 l 30.449,30.449 c 0.16,0.16 0.371,0.246 0.594,0.246 0.226,0 0.437,-0.086 0.598,-0.246 L 72.926,33.715 c 0.164,-0.176 0.25,-0.418 0.234,-0.668 z M 33.121,64.512 10.488,41.879 43.945,8.422 64.621,10.379 66.578,31.055 Z M 51.562,16.07 c -4.058,0 -7.367,3.309 -7.367,7.368 0,4.058 3.309,7.367 7.367,7.367 4.059,0 7.368,-3.309 7.368,-7.367 0,-4.059 -3.309,-7.368 -7.368,-7.368 z m 0,10.047 c -1.48,0 -2.679,-1.199 -2.679,-2.679 0,-1.481 1.199,-2.68 2.679,-2.68 1.481,0 2.68,1.199 2.68,2.68 0,1.48 -1.199,2.679 -2.68,2.679 z" style="fill:currentColor;fill-opacity:1;fill-rule:nonzero;stroke:none" transform="scale(1.3333333)" /> </g>
</svg>

