<?xml version="1.0" encoding="UTF-8" standalone="no"?> <svg version="1.1" id="Ia25a2e1dee7949dab8cd91ccd5741aa020251110124420" width="100" height="100" viewBox="0 0 100 100" xmlns="http://www.w3.org/2000/svg" xmlns:svg="http://www.w3.org/2000/svg"> <defs id="Ie9dd76c0107642c3b44ed64a00584f3f20251110124420" /> <g id="I7cb68fb5b8794f2d91d23dc23eef6f3520251110124420"> <path id="I30bce5bd039b4cba89bd5752d6d653aa20251110124420" d="m 7.02,9.863 c -1.051,1.586 -1.665,3.492 -1.665,5.539 v 8.036 c 0,1.109 0.903,2.007 2.012,2.007 1.11,0 2.008,-0.898 2.008,-2.007 v -8.036 c 0,-0.929 0.211,-1.812 0.586,-2.597 l 19.32,19.32 c -0.07,0.082 -0.136,0.16 -0.199,0.23 -0.402,0.45 -0.715,0.731 -0.894,0.883 -0.055,0.047 -0.098,0.082 -0.129,0.102 l -4.981,2.91 c -3.101,1.812 -4.457,5.59 -3.18,8.953 l 1.407,3.711 c 0.808,2.125 2.554,3.758 4.73,4.434 l 14.5,4.511 c 4.067,1.262 8.375,-0.558 10.336,-4.144 l 11.324,11.324 c -0.785,0.375 -1.668,0.586 -2.597,0.586 h -8.036 c -1.109,0 -2.007,0.898 -2.007,2.008 0,1.109 0.898,2.012 2.007,2.012 h 8.036 c 2.047,0 3.953,-0.614 5.539,-1.665 l 1.074,1.075 c 0.785,0.785 2.059,0.785 2.844,0 0.785,-0.785 0.785,-2.055 0,-2.84 L 8.785,5.945 C 8.004,5.16 6.73,5.16 5.945,5.945 5.16,6.73 5.16,8.004 5.945,8.785 Z m 6.96,-4.406 3.918,3.918 h 5.54 c 1.109,0 2.007,-0.898 2.007,-2.008 0,-1.109 -0.898,-2.012 -2.007,-2.012 h -8.036 c -0.484,0 -0.957,0.036 -1.422,0.102 z m 19.473,19.473 20.176,20.175 1.644,-5.558 c 1.411,-4.746 -2.191,-9.453 -7.121,-9.453 h -1.156 c 0.324,-1.453 0.602,-3.153 0.574,-4.672 -0.027,-1.395 -0.164,-3.145 -0.902,-4.727 -0.84,-1.804 -2.344,-3.164 -4.52,-3.761 -3.425,-0.942 -5.812,1.632 -6.578,3.519 -0.617,1.52 -1.156,2.582 -1.84,3.93 z m 32.172,32.172 3.918,3.918 c 0.066,-0.465 0.102,-0.938 0.102,-1.422 v -8.036 c 0,-1.109 -0.903,-2.007 -2.012,-2.007 -1.11,0 -2.008,0.898 -2.008,2.007 z m -50.223,8.523 c -3.328,0 -6.027,-2.699 -6.027,-6.027 v -8.036 c 0,-1.109 -0.898,-2.007 -2.008,-2.007 -1.109,0 -2.012,0.898 -2.012,2.007 v 8.036 c 0,5.547 4.5,10.047 10.047,10.047 h 8.036 c 1.109,0 2.007,-0.903 2.007,-2.012 0,-1.11 -0.898,-2.008 -2.007,-2.008 z M 65.625,15.402 c 0,-3.328 -2.699,-6.027 -6.027,-6.027 h -8.036 c -1.109,0 -2.007,-0.898 -2.007,-2.008 0,-1.109 0.898,-2.012 2.007,-2.012 h 8.036 c 5.547,0 10.047,4.5 10.047,10.047 v 8.036 c 0,1.109 -0.903,2.007 -2.012,2.007 -1.11,0 -2.008,-0.898 -2.008,-2.007 z" style="fill:currentColor;fill-opacity:1;fill-rule:nonzero;stroke:none" transform="scale(1.3333333)" /> </g>
</svg>

