<?xml version="1.0" encoding="UTF-8" standalone="no"?> <svg version="1.1" id="I7b29d244434e492680fcb1bc1466c8ec20251106123600" width="100" height="100" viewBox="0 0 100 100" xmlns="http://www.w3.org/2000/svg" xmlns:svg="http://www.w3.org/2000/svg"> <defs id="I89ac6e14be4b45c284904f793fc8d83f20251106123600" /> <g id="I0f216b761b2f48cc8ca2f85240a5c29c20251106123600"> <path id="I31ef9ae602314b0c9b855836e8ac2d2420251106123600" d="m 8.035,12.055 c 0,-2.219 1.801,-4.02 4.02,-4.02 h 50.89 c 2.219,0 4.02,1.801 4.02,4.02 v 5.355 c 0,2.219 -1.801,4.02 -4.02,4.02 h -50.89 c -2.219,0 -4.02,-1.801 -4.02,-4.02 z m 2.68,13.39 h 53.57 v 28.797 c 0,7.028 -5.695,12.723 -12.723,12.723 H 23.438 c -7.028,0 -12.723,-5.695 -12.723,-12.723 z m 20.758,8.035 c -1.11,0 -2.008,0.903 -2.008,2.012 0,1.11 0.898,2.008 2.008,2.008 h 12.054 c 1.11,0 2.008,-0.898 2.008,-2.008 0,-1.109 -0.898,-2.012 -2.008,-2.012 z" style="fill:currentColor;fill-opacity:1;fill-rule:nonzero;stroke:none" transform="scale(1.3333333)" /> </g>
</svg>

