<?xml version="1.0" encoding="UTF-8" standalone="no"?> <svg version="1.1" id="I0db25a7d0f27419bad403d1b65fbcc7920251106155156" width="100" height="100" viewBox="0 0 100 100" xmlns="http://www.w3.org/2000/svg" xmlns:svg="http://www.w3.org/2000/svg"> <defs id="Id173e6b160704bd4b5f49f4d548f1edd20251106155156" /> <g id="I4ed256663aa3413c9cd4a6b9758c380920251106155156"> <path id="I5b71f8bee3a74cf582c69cfc478e6f3420251106155156" d="M 37.5,6.25 V 25 c 0,3.453 2.797,6.25 6.25,6.25 H 62.5 v 32.812 c 0,2.59 -2.098,4.688 -4.688,4.688 H 40.625 v -25 c 0,-3.453 -2.797,-6.25 -6.25,-6.25 H 12.5 V 10.938 c 0,-2.59 2.098,-4.688 4.688,-4.688 z m 4.688,1.562 V 25 c 0,0.863 0.699,1.562 1.562,1.562 H 60.938 Z M 22.656,54.688 c 0,-1.293 -1.051,-2.344 -2.344,-2.344 -1.292,0 -2.343,1.051 -2.343,2.344 v 10.937 c 0,1.293 1.051,2.344 2.343,2.344 1.293,0 2.344,-1.051 2.344,-2.344 z m 0,-7.032 c 0,1.293 -1.051,2.344 -2.344,2.344 -1.292,0 -2.343,-1.051 -2.343,-2.344 0,-1.293 1.051,-2.344 2.343,-2.344 1.293,0 2.344,1.051 2.344,2.344 z m -8.594,-4.687 c 0,1.293 -1.05,2.343 -2.343,2.343 H 7.812 v 21.876 h 3.907 c 1.293,0 2.343,1.05 2.343,2.343 0,1.293 -1.05,2.344 -2.343,2.344 H 7.812 c -2.589,0 -4.687,-2.098 -4.687,-4.687 V 45.312 c 0,-2.589 2.098,-4.687 4.687,-4.687 h 3.907 c 1.293,0 2.343,1.051 2.343,2.344 z m 14.844,2.343 c -1.293,0 -2.344,-1.05 -2.344,-2.343 0,-1.293 1.051,-2.344 2.344,-2.344 h 3.906 c 2.59,0 4.688,2.098 4.688,4.687 v 21.876 c 0,2.589 -2.098,4.687 -4.688,4.687 h -3.906 c -1.293,0 -2.344,-1.051 -2.344,-2.344 0,-1.293 1.051,-2.343 2.344,-2.343 h 3.906 V 45.312 Z" style="fill:currentColor;fill-opacity:1;fill-rule:nonzero;stroke:none" transform="scale(1.3333333)" /> </g>
</svg>

