<?xml version="1.0" encoding="UTF-8" standalone="no"?> <svg version="1.1" id="Ib6f603862269403d8c1d232566c6ea5920251110124422" width="100" height="100" viewBox="0 0 100 100" xmlns="http://www.w3.org/2000/svg" xmlns:svg="http://www.w3.org/2000/svg"> <defs id="I3e4700873e5b45aca4a0b188b7e852f520251110124422" /> <g id="I07361fff37b44d0285c0726b870e7cb820251110124422"> <path id="I6fc0be56d133411e8b8ae120bb26e99120251110124422" d="M 6.25,24.219 C 6.25,16.02 12.895,9.375 21.094,9.375 h 31.25 c 3.883,0 7.031,3.148 7.031,7.031 v 0.782 H 24.219 c -5.61,0 -10.157,4.546 -10.157,10.156 v 25.781 h -0.781 c -3.883,0 -7.031,-3.148 -7.031,-7.031 z m 17.969,-3.907 c -3.883,0 -7.031,3.149 -7.031,7.032 v 29.687 c 0,3.883 3.148,7.031 7.031,7.031 h 12.445 c -1.461,-2.804 -2.289,-5.992 -2.289,-9.374 0,-11.219 9.094,-20.313 20.313,-20.313 5.457,0 10.414,2.152 14.062,5.656 V 27.344 c 0,-3.883 -3.148,-7.032 -7.031,-7.032 z M 54.688,37.5 c 9.492,0 17.187,7.695 17.187,17.188 0,9.492 -7.695,17.187 -17.187,17.187 C 45.195,71.875 37.5,64.18 37.5,54.688 37.5,45.195 45.195,37.5 54.688,37.5 Z m -9.376,15.625 c -0.863,0 -1.562,0.699 -1.562,1.563 0,0.863 0.699,1.562 1.562,1.562 h 14.977 l -5.144,5.145 c -0.61,0.609 -0.61,1.601 0,2.21 0.609,0.61 1.601,0.61 2.21,0 l 7.813,-7.812 c 0.609,-0.609 0.609,-1.602 0,-2.211 L 57.355,45.77 c -0.609,-0.61 -1.601,-0.61 -2.21,0 -0.61,0.609 -0.61,1.601 0,2.21 l 5.144,5.145 z" style="fill:currentColor;fill-opacity:1;fill-rule:nonzero;stroke:none" transform="scale(1.3333333)" /> </g>
</svg>

