<?xml version="1.0" encoding="UTF-8" standalone="no"?> <svg version="1.1" id="Ia97f66dac14447d3aecee5cd0a06c65a20251110124420" width="100" height="100" viewBox="0 0 100 100" xmlns="http://www.w3.org/2000/svg" xmlns:svg="http://www.w3.org/2000/svg"> <defs id="I6391d37bd1a6473298751c5f60d99ba120251110124420" /> <g id="Ie68a56e99e81431fb81aab18cd063b4a20251110124420"> <path id="Ie404d74076f34c54b04e9ab3484f6f0620251110124420" d="M 17.188,8.594 C 17.188,7.301 16.137,6.25 14.844,6.25 13.551,6.25 12.5,7.301 12.5,8.594 v 57.812 c 0,1.293 1.051,2.344 2.344,2.344 1.293,0 2.344,-1.051 2.344,-2.344 z m 45.312,0 c 0,-1.293 -1.051,-2.344 -2.344,-2.344 -1.293,0 -2.344,1.051 -2.344,2.344 v 57.812 c 0,1.293 1.051,2.344 2.344,2.344 1.293,0 2.344,-1.051 2.344,-2.344 z m -22.656,0 c 0,-1.293 -1.051,-2.344 -2.344,-2.344 -1.293,0 -2.344,1.051 -2.344,2.344 v 10.937 c 0,1.293 1.051,2.344 2.344,2.344 1.293,0 2.344,-1.051 2.344,-2.344 z m -4.688,34.375 c 0,1.293 1.051,2.343 2.344,2.343 1.293,0 2.344,-1.05 2.344,-2.343 V 32.031 c 0,-1.293 -1.051,-2.343 -2.344,-2.343 -1.293,0 -2.344,1.05 -2.344,2.343 z m 0,12.5 c 0,-1.293 1.051,-2.344 2.344,-2.344 1.293,0 2.344,1.051 2.344,2.344 v 10.937 c 0,1.293 -1.051,2.344 -2.344,2.344 -1.293,0 -2.344,-1.051 -2.344,-2.344 z" style="fill:currentColor;fill-opacity:1;fill-rule:nonzero;stroke:none" transform="scale(1.3333333)" /> </g>
</svg>

