<?xml version="1.0" encoding="UTF-8" standalone="no"?> <svg version="1.1" id="I9fa4aad18ad54773a195159ce5420c6320251110130507" width="100" height="100" viewBox="0 0 100 100" xmlns="http://www.w3.org/2000/svg" xmlns:svg="http://www.w3.org/2000/svg"> <defs id="I9349b802e0dd4645943714b783143d8620251110130507" /> <g id="I8c8cf521bf9f4cabaa599ef7872e357920251110130507"> <path id="Id72b91612a83486cb658a064ab3c00b720251110130507" d="m 31.508,37.738 c -2.063,-1.367 -4.387,-2.363 -6.883,-2.902 l -0.043,-0.047 c -0.988,-0.992 -2.199,-1.742 -3.527,-2.187 l -5.481,-1.778 c -0.906,-0.304 -1.687,-0.89 -2.242,-1.668 -0.406,-0.57 -0.672,-1.226 -0.781,-1.918 -0.11,-0.691 -0.055,-1.398 0.16,-2.066 0.211,-0.668 0.574,-1.274 1.062,-1.777 0.489,-0.5 1.086,-0.883 1.747,-1.114 l 5.554,-1.785 c 1.281,-0.449 2.449,-1.187 3.406,-2.152 0.958,-0.969 1.684,-2.141 2.125,-3.43 l 1.821,-5.598 c 0.301,-0.89 0.871,-1.664 1.633,-2.214 0.757,-0.551 1.671,-0.852 2.613,-0.86 0.937,-0.004 1.855,0.281 2.625,0.817 0.769,0.539 1.351,1.304 1.668,2.187 l 1.805,5.555 c 0.441,1.324 1.183,2.531 2.171,3.519 0.989,0.989 2.196,1.735 3.524,2.176 l 5.484,1.781 c 0.906,0.282 1.699,0.84 2.27,1.598 0.57,0.758 0.886,1.676 0.906,2.625 0.016,0.949 -0.266,1.879 -0.805,2.656 -0.543,0.782 -1.316,1.371 -2.211,1.684 l -5.554,1.808 c -1.321,0.438 -2.524,1.176 -3.508,2.161 -0.985,0.98 -1.727,2.179 -2.172,3.5 l -1.672,5.089 c -1.008,-1.503 -2.211,-2.867 -3.574,-4.05 l 0.809,-2.493 c 0.671,-2.019 1.804,-3.855 3.308,-5.359 1.504,-1.508 3.34,-2.641 5.359,-3.312 l 4.969,-1.61 -5.062,-1.629 c -2.024,-0.668 -3.864,-1.8 -5.371,-3.304 -1.508,-1.504 -2.645,-3.34 -3.317,-5.364 l -1.613,-4.957 -1.609,4.942 c -0.664,2.004 -1.778,3.828 -3.254,5.34 -1.481,1.496 -3.289,2.636 -5.282,3.328 l -5.035,1.636 5,1.586 c 2.028,0.676 3.867,1.813 5.375,3.325 h -0.008 c 0.407,0.402 0.786,0.832 1.133,1.289 0.957,1.226 1.696,2.605 2.188,4.082 z M 54.16,61.82 c -0.598,-0.425 -1.043,-1.027 -1.281,-1.718 l -1.027,-3.145 c -0.2,-0.598 -0.532,-1.145 -0.977,-1.59 -0.445,-0.449 -0.988,-0.785 -1.586,-0.984 l -3.098,-1.008 c -0.722,-0.242 -1.343,-0.707 -1.785,-1.324 -0.429,-0.602 -0.66,-1.324 -0.656,-2.059 0,-0.746 0.234,-1.469 0.664,-2.074 0.43,-0.606 1.039,-1.063 1.746,-1.301 l 3.145,-1.019 c 0.582,-0.207 1.113,-0.547 1.547,-0.993 0.433,-0.441 0.757,-0.98 0.953,-1.566 l 1.011,-3.101 c 0.239,-0.7 0.688,-1.313 1.286,-1.747 0.601,-0.433 1.32,-0.668 2.062,-0.675 0.738,-0.008 1.461,0.214 2.07,0.636 0.61,0.422 1.071,1.024 1.321,1.719 l 1.031,3.168 c 0.199,0.594 0.535,1.133 0.98,1.578 0.446,0.442 0.985,0.774 1.582,0.973 l 3.098,1.012 c 0.715,0.222 1.34,0.664 1.789,1.265 0.449,0.598 0.699,1.324 0.711,2.071 0.016,0.75 -0.207,1.484 -0.633,2.097 -0.429,0.617 -1.039,1.082 -1.746,1.332 l -3.168,1.028 c -0.594,0.203 -1.133,0.535 -1.578,0.98 -0.445,0.445 -0.777,0.988 -0.976,1.586 l -1.008,3.094 c -0.242,0.718 -0.707,1.343 -1.328,1.781 -0.598,0.43 -1.321,0.66 -2.059,0.66 -0.75,0 -1.484,-0.238 -2.09,-0.676 z M 50.938,49.996 c 1.23,0.438 2.343,1.145 3.261,2.066 0.922,0.926 1.621,2.043 2.051,3.274 0.434,-1.223 1.137,-2.336 2.055,-3.258 0.918,-0.918 2.031,-1.621 3.257,-2.055 -1.246,-0.433 -2.374,-1.144 -3.308,-2.078 -0.922,-0.918 -1.625,-2.031 -2.059,-3.257 -0.433,1.218 -1.129,2.328 -2.039,3.246 -0.906,0.914 -2.008,1.621 -3.218,2.062 z m -30.626,1.566 c 1.727,0 3.126,-1.398 3.126,-3.124 0,-1.727 -1.399,-3.126 -3.126,-3.126 -1.726,0 -3.124,1.399 -3.124,3.126 0,1.726 1.398,3.124 3.124,3.124 z m 0,2.344 c 1.293,0 2.344,1.051 2.344,2.344 v 5.469 c 0,1.293 -1.051,2.343 -2.344,2.343 -1.292,0 -2.343,-1.05 -2.343,-2.343 V 56.25 c 0,-1.293 1.051,-2.344 2.343,-2.344 z m 0,17.969 C 29.805,71.875 37.5,64.18 37.5,54.688 37.5,45.195 29.805,37.5 20.312,37.5 10.82,37.5 3.125,45.195 3.125,54.688 c 0,9.492 7.695,17.187 17.187,17.187 z m 0,-4.687 c -6.902,0 -12.5,-5.598 -12.5,-12.5 0,-6.903 5.598,-12.5 12.5,-12.5 6.903,0 12.5,5.597 12.5,12.5 0,6.902 -5.597,12.5 -12.5,12.5 z" style="fill:currentColor;fill-opacity:1;fill-rule:nonzero;stroke:none" transform="scale(1.3333333)" /> </g>
</svg>

