<?xml version="1.0" encoding="UTF-8" standalone="no"?> <svg version="1.1" id="If9ae5734e30e4276bf46ec251081853b20251106154012" width="100" height="100" viewBox="0 0 100 100" xmlns="http://www.w3.org/2000/svg" xmlns:svg="http://www.w3.org/2000/svg"> <defs id="I1a84444d184f4e3b8154483a16a4418820251106154012" /> <g id="I78ee2feaba854962a9a233d020d9db0720251106154012"> <path id="I8b4dd912ed564872a5d4efa32dea8b5d20251106154012" d="M 63.281,16.406 C 63.281,9.934 51.738,4.688 37.5,4.688 23.262,4.688 11.719,9.934 11.719,16.406 v 42.188 c 0,6.472 11.543,11.718 25.781,11.718 4.273,0 8.305,-0.472 11.855,-1.308 -3.167,-0.399 -6.074,-1.637 -8.484,-3.488 -1.094,0.07 -2.219,0.109 -3.371,0.109 -6.609,0 -12.363,-1.227 -16.289,-3.012 -4.352,-1.976 -4.805,-3.75 -4.805,-4.019 V 23.145 c 4.664,3.011 12.375,4.98 21.094,4.98 8.719,0 16.43,-1.969 21.094,-4.98 v 12.3 c 1.722,0.754 3.304,1.778 4.687,3.016 z m -4.687,0 c 0,0.266 -0.453,2.043 -4.805,4.02 -3.926,1.785 -9.68,3.012 -16.289,3.012 -6.609,0 -12.363,-1.227 -16.289,-3.012 -4.352,-1.977 -4.805,-3.754 -4.805,-4.02 0,-0.265 0.453,-2.043 4.805,-4.019 3.926,-1.785 9.68,-3.012 16.289,-3.012 6.609,0 12.363,1.227 16.289,3.012 4.352,1.976 4.805,3.754 4.805,4.019 z m -7.032,49.219 c 3.036,0 5.848,-0.961 8.149,-2.602 l 7.773,7.774 c 0.914,0.918 2.399,0.918 3.313,0 0.918,-0.914 0.918,-2.399 0,-3.313 l -7.774,-7.773 c 1.641,-2.301 2.602,-5.113 2.602,-8.149 0,-7.765 -6.297,-14.062 -14.063,-14.062 -7.765,0 -14.062,6.297 -14.062,14.062 0,7.766 6.297,14.063 14.062,14.063 z m 0,-4.687 c -5.175,0 -9.374,-4.2 -9.374,-9.376 0,-5.175 4.199,-9.374 9.374,-9.374 5.176,0 9.376,4.199 9.376,9.374 0,5.176 -4.2,9.376 -9.376,9.376 z" style="fill:currentColor;fill-opacity:1;fill-rule:nonzero;stroke:none" transform="scale(1.3333333)" /> </g>
</svg>

