<?xml version="1.0" encoding="UTF-8" standalone="no"?> <svg version="1.1" id="I695bd5af83f8498d9411afd1e716fb7120251106163938" width="100" height="100" viewBox="0 0 100 100" xmlns="http://www.w3.org/2000/svg" xmlns:svg="http://www.w3.org/2000/svg"> <defs id="I2ae28362012c4313bbdcefb7a7b538f020251106163938" /> <g id="I961c5b6e666b48ebac6d90c56b502def20251106163938"> <path id="Ibdeb5d978e8f4dc2b7d620ded1e9a3f120251106163938" d="m 40.891,4.934 c -0.661,-0.329 -1.434,-0.329 -2.094,0 l -18.75,9.375 C 19.25,14.707 18.75,15.52 18.75,16.406 v 41.016 c 0,0.848 0.457,1.629 1.195,2.043 l 18.75,10.547 c 0.727,0.406 1.614,0.402 2.332,-0.02 0.719,-0.422 1.161,-1.191 1.161,-2.023 V 45.98 l 17.453,-8.726 c 0.797,-0.399 1.297,-1.211 1.297,-2.098 0,-0.886 -0.5,-1.699 -1.297,-2.097 L 45.086,25.781 59.641,18.504 c 0.797,-0.399 1.297,-1.211 1.297,-2.098 0,-0.886 -0.5,-1.699 -1.297,-2.097 z" style="fill:currentColor;fill-opacity:1;fill-rule:nonzero;stroke:none" transform="scale(1.3333333)" /> </g>
</svg>

