<?xml version="1.0" encoding="UTF-8" standalone="no"?> <svg version="1.1" id="I9c9cc7c4e98b466f84c8389d8bbec1bc20251110124420" width="100" height="100" viewBox="0 0 100 100" xmlns="http://www.w3.org/2000/svg" xmlns:svg="http://www.w3.org/2000/svg"> <defs id="Id5ee2183697f4bd6953d4a3082a91ad220251110124420" /> <g id="If97993ddf13145b9a1910233189557e620251110124420"> <path id="I4d8d5a00909a465989f1e0487a5c908420251110124420" d="m 37.5,6.25 c 12.082,0 21.875,9.793 21.875,21.875 0,5.961 -2.383,11.363 -6.25,15.309 l -0.004,22.972 c 0,1.789 -1.894,2.875 -3.41,2.086 L 49.43,68.324 37.496,59.926 25.57,68.324 c -1.461,1.028 -3.441,0.106 -3.672,-1.59 L 21.879,66.406 21.871,43.434 C 18.008,39.488 15.625,34.086 15.625,28.125 15.625,16.043 25.418,6.25 37.5,6.25 Z M 48.434,61.891 48.438,47.074 C 45.219,48.934 41.484,50 37.5,50 33.516,50 29.781,48.934 26.562,47.074 l 0.004,14.817 9.582,-6.75 c 0.707,-0.496 1.622,-0.559 2.383,-0.188 l 0.313,0.188 9.59,6.75 0.004,-14.817 z M 37.5,10.938 c -9.492,0 -17.188,7.695 -17.188,17.187 0,9.492 7.696,17.187 17.188,17.187 9.492,0 17.188,-7.695 17.188,-17.187 0,-9.492 -7.696,-17.187 -17.188,-17.187 z" style="fill:currentColor;fill-opacity:1;fill-rule:nonzero;stroke:none" transform="scale(1.3333333)" /> </g>
</svg>

