<?xml version="1.0" encoding="UTF-8" standalone="no"?> <svg version="1.1" id="I451cfa2d4dd94938ae0926576839996a20251110130510" width="100" height="100" viewBox="0 0 100 100" xmlns="http://www.w3.org/2000/svg" xmlns:svg="http://www.w3.org/2000/svg"> <defs id="Idbab0a6062e74d3780a945f94361094b20251110130510" /> <g id="I331762d0d9c74b6ca6b374ccc6735bdd20251110130510"> <path id="I96aa5e579b5b41eba7c131896b426a8b20251110130510" d="m 15.625,17.969 c 0,-1.293 1.051,-2.344 2.344,-2.344 h 48.437 c 1.293,0 2.344,1.051 2.344,2.344 0,1.293 -1.051,2.343 -2.344,2.343 H 17.969 c -1.293,0 -2.344,-1.05 -2.344,-2.343 z M 31.25,58.594 c 0,-1.293 1.051,-2.344 2.344,-2.344 h 32.812 c 1.293,0 2.344,1.051 2.344,2.344 0,1.293 -1.051,2.344 -2.344,2.344 H 33.594 c -1.293,0 -2.344,-1.051 -2.344,-2.344 z M 8.594,35.938 c -1.293,0 -2.344,1.05 -2.344,2.343 0,1.293 1.051,2.344 2.344,2.344 h 57.812 c 1.293,0 2.344,-1.051 2.344,-2.344 0,-1.293 -1.051,-2.343 -2.344,-2.343 z" style="fill:currentColor;fill-opacity:1;fill-rule:nonzero;stroke:none" transform="scale(1.3333333)" /> </g>
</svg>

