<?xml version="1.0" encoding="UTF-8" standalone="no"?> <svg version="1.1" id="Ic39d4a1c5d7047d380a7ede6148297f820251106164749" width="100" height="100" viewBox="0 0 100 100" xmlns="http://www.w3.org/2000/svg" xmlns:svg="http://www.w3.org/2000/svg"> <defs id="I006913086f9546218b95ad0d8ce78cfa20251106164749" /> <g id="I1a4e88f6d82449e5ab5b192b971e25b320251106164749"> <path id="I2167fd6e565342ac9523a5c4e9b3028820251106164749" d="m 25.781,28.125 c -1.293,0 -2.343,1.051 -2.343,2.344 v 14.062 c 0,1.293 1.05,2.344 2.343,2.344 h 14.063 c 1.293,0 2.344,-1.051 2.344,-2.344 V 30.469 c 0,-1.293 -1.051,-2.344 -2.344,-2.344 z m 2.344,14.063 V 32.812 H 37.5 v 9.376 z M 6.25,24.219 C 6.25,16.02 12.895,9.375 21.094,9.375 h 32.812 c 8.199,0 14.844,6.645 14.844,14.844 0,3.867 -1.484,7.394 -3.906,10.035 v 24.34 c 0,3.883 -3.149,7.031 -7.032,7.031 H 17.188 c -3.883,0 -7.032,-3.148 -7.032,-7.031 V 34.254 C 7.734,31.613 6.25,28.086 6.25,24.219 Z M 21.094,14.062 c -5.61,0 -10.156,4.547 -10.156,10.157 0,2.906 1.214,5.523 3.175,7.375 0.465,0.441 0.731,1.058 0.731,1.703 v 25.297 c 0,1.293 1.051,2.344 2.344,2.344 h 31.25 c 1.292,0 2.343,-1.051 2.343,-2.344 V 34.555 c 0,-0.774 0.383,-1.5 1.024,-1.938 2.687,-1.832 4.445,-4.91 4.445,-8.398 0,-5.61 -4.547,-10.157 -10.156,-10.157 z" style="fill:currentColor;fill-opacity:1;fill-rule:nonzero;stroke:none" transform="scale(1.3333333)" /> </g>
</svg>

