<?xml version="1.0" encoding="UTF-8" standalone="no"?> <svg version="1.1" id="I93ed50977cb1465fa70785662aedb2f620251106132945" width="100" height="100" viewBox="0 0 100 100" xmlns="http://www.w3.org/2000/svg" xmlns:svg="http://www.w3.org/2000/svg"> <defs id="I26629e0c81494e619988c499f0691a8620251106132945" /> <g id="Ib88b7f965c9c40df815c83924cd9fb3a20251106132945"> <path id="I33b149d56c394119ba98ecad9344a29120251106132945" d="m 17.188,6.25 c -1.727,0 -3.126,1.398 -3.126,3.125 0,1.727 1.399,3.125 3.126,3.125 h 40.624 c 1.727,0 3.126,-1.398 3.126,-3.125 0,-1.727 -1.399,-3.125 -3.126,-3.125 z m 22.523,11.852 c -1.223,-1.219 -3.199,-1.219 -4.422,0 L 19.664,33.727 c -1.219,1.222 -1.219,3.199 0,4.421 1.223,1.219 3.199,1.219 4.422,0 L 34.375,27.855 v 37.77 c 0,1.727 1.398,3.125 3.125,3.125 1.727,0 3.125,-1.398 3.125,-3.125 v -37.77 l 10.289,10.293 c 1.223,1.219 3.199,1.219 4.422,0 1.219,-1.222 1.219,-3.199 0,-4.421 z" style="fill:currentColor;fill-opacity:1;fill-rule:nonzero;stroke:none" transform="scale(1.3333333)" /> </g>
</svg>

