<?xml version="1.0" encoding="UTF-8" standalone="no"?> <svg version="1.1" id="I377ac435ebe54e579e8a98b32732a8e520251106144520" width="100" height="100" viewBox="0 0 100 100" xmlns="http://www.w3.org/2000/svg" xmlns:svg="http://www.w3.org/2000/svg"> <defs id="I12f53bb07e1046a188b6aae58517f4f920251106144520" /> <g id="Ia3d8d11501914ce99f0f86315005c26220251106144520"> <path id="I6974606246da4e4d882dcc3272bc91f820251106144520" d="M 68.75,37.5 C 68.75,20.242 54.758,6.25 37.5,6.25 20.242,6.25 6.25,20.242 6.25,37.5 c 0,5.062 1.207,9.957 3.484,14.352 L 6.398,63.797 c -0.195,0.687 -0.195,1.414 0,2.101 0.579,2.079 2.735,3.293 4.813,2.711 l 11.953,-3.336 c 4.391,2.274 9.277,3.477 14.336,3.477 17.258,0 31.25,-13.992 31.25,-31.25 z M 29,25.688 37.5,34.184 46,25.688 c 0.914,-0.918 2.398,-0.918 3.312,0 0.918,0.914 0.918,2.398 0,3.312 l -8.496,8.5 8.496,8.5 c 0.918,0.914 0.918,2.398 0,3.312 -0.914,0.918 -2.398,0.918 -3.312,0 L 37.5,40.816 29,49.312 c -0.914,0.918 -2.398,0.918 -3.312,0 -0.918,-0.914 -0.918,-2.398 0,-3.312 L 34.184,37.5 25.688,29 c -0.918,-0.914 -0.918,-2.398 0,-3.312 0.914,-0.918 2.398,-0.918 3.312,0 z" style="fill:currentColor;fill-opacity:1;fill-rule:nonzero;stroke:none" transform="scale(1.3333333)" /> </g>
</svg>

