<?xml version="1.0" encoding="UTF-8" standalone="no"?> <svg version="1.1" id="Iedd9346708a9413fb9dfed3d78c5151920251106105802" width="100" height="100" viewBox="0 0 100 100" xmlns="http://www.w3.org/2000/svg" xmlns:svg="http://www.w3.org/2000/svg"> <defs id="Ibe30fe6ac74a4b6ea24f15ef6c4a8de520251106105802" /> <g id="If1e45d65bfa7422b88738e67b383e07520251106105802"> <path id="I93f947314ceb455aa6cdb55b0996b40c20251106105802" d="m 37.883,43.254 c 0,0.258 0,0.32 0.176,0.48 l 0.98,0.969 v 0.043 h -4.363 v -1.867 c -0.43,1.226 -1.594,2.039 -2.891,2.027 -2.242,0 -3.871,-1.777 -3.871,-5.047 0,-3.058 1.758,-5.101 4.223,-5.101 1.097,-0.067 2.113,0.57 2.535,1.586 v -4.117 c 0.031,-0.188 -0.043,-0.379 -0.199,-0.497 l -0.938,-0.91 v -0.043 l 4.348,-0.515 z M 34.676,42.66 v -6.14 c -0.313,-0.395 -0.793,-0.622 -1.297,-0.614 -1.063,0 -2.086,0.969 -2.086,3.852 0,2.703 0.883,3.656 1.984,3.656 0.559,-0.016 1.082,-0.293 1.399,-0.754 z m 6.097,2.086 v -8.289 c 0.028,-0.187 -0.039,-0.371 -0.175,-0.5 L 39.633,34.953 V 34.91 h 4.359 v 8.41 c 0,0.258 0,0.317 0.176,0.477 l 0.961,0.914 v 0.039 z m -0.16,-12.867 c 0,-0.981 0.789,-1.777 1.758,-1.777 0.973,0 1.758,0.796 1.758,1.777 0,0.98 -0.785,1.777 -1.758,1.777 -0.969,0 -1.758,-0.797 -1.758,-1.777 z m 15.153,11.355 c 0,0.262 0,0.34 0.175,0.5 l 0.981,0.969 v 0.043 h -4.383 v -2.125 c -0.394,1.336 -1.613,2.262 -3.004,2.285 -1.945,0 -2.988,-1.433 -2.988,-4.144 0,-1.309 0,-2.742 0.043,-4.352 0.031,-0.18 -0.035,-0.363 -0.176,-0.48 L 45.445,34.953 V 34.91 h 4.328 v 5.406 c 0,1.774 0.258,2.961 1.36,2.961 0.594,-0.039 1.125,-0.375 1.418,-0.894 V 36.461 C 52.578,36.277 52.512,36.09 52.375,35.965 L 51.402,34.953 V 34.91 h 4.364 z m 14.847,1.512 c 0,-0.32 0.059,-4.394 0.059,-5.328 0,-1.777 -0.274,-3.004 -1.512,-3.004 -0.621,0.02 -1.199,0.336 -1.551,0.852 0.125,0.554 0.184,1.121 0.176,1.687 0,1.235 -0.039,2.801 -0.058,4.371 -0.032,0.18 0.035,0.364 0.175,0.481 l 0.985,0.91 v 0.043 h -4.403 c 0,-0.297 0.059,-4.395 0.059,-5.328 0,-1.809 -0.277,-3.004 -1.496,-3.004 -0.598,0.023 -1.149,0.351 -1.449,0.875 v 6.043 c 0,0.258 0,0.316 0.175,0.476 l 0.957,0.914 v 0.039 h -4.355 v -8.289 c 0.027,-0.183 -0.039,-0.371 -0.176,-0.496 L 57.234,34.953 V 34.91 h 4.364 v 2.11 c 0.402,-1.395 1.691,-2.329 3.125,-2.27 1.453,0 2.437,0.816 2.851,2.371 0.453,-1.426 1.785,-2.387 3.281,-2.371 1.946,0 3.043,1.449 3.043,4.191 0,1.309 -0.039,2.801 -0.058,4.371 -0.031,0.184 0.047,0.372 0.199,0.481 L 75,44.703 v 0.043 z m -54.801,-1.293 1.293,1.25 v 0.043 h -6.566 v -0.043 l 1.32,-1.25 C 12,43.34 12.066,43.156 12.035,42.977 v -7.989 c 0,-0.34 0,-0.793 0.059,-1.183 L 7.664,44.906 H 7.613 L 3.027,34.691 C 2.926,34.438 2.898,34.418 2.832,34.246 v 6.699 c -0.055,0.446 0.023,0.903 0.219,1.309 l 1.844,2.449 v 0.043 H 0 V 44.703 L 1.844,42.246 C 2.039,41.84 2.113,41.391 2.062,40.945 V 33.543 C 2.09,33.18 1.984,32.816 1.758,32.531 L 0.453,30.82 v -0.043 h 4.684 l 3.922,8.653 3.453,-8.653 h 4.586 v 0.043 l -1.286,1.45 c -0.156,0.113 -0.234,0.308 -0.199,0.496 v 10.211 c -0.035,0.183 0.043,0.371 0.199,0.476 z m 5.133,-4 v 0.039 c 0,2.535 1.293,3.555 2.813,3.555 1.269,0.039 2.445,-0.68 2.984,-1.832 h 0.043 c -0.527,2.508 -2.062,3.691 -4.359,3.691 -2.477,0 -4.813,-1.511 -4.813,-5.011 0,-3.676 2.344,-5.145 4.93,-5.145 2.086,0 4.305,0.996 4.305,4.191 v 0.512 z m 0,-0.512 h 2.887 v -0.515 c 0,-2.606 -0.531,-3.297 -1.336,-3.297 -0.969,0 -1.562,1.035 -1.562,3.812 z" style="fill:currentColor;fill-opacity:1;fill-rule:nonzero;stroke:none" transform="scale(1.3333333)" /> </g>
</svg>

