<?xml version="1.0" encoding="UTF-8" standalone="no"?> <svg version="1.1" id="I528b9b8e0b2d41b8ad9e712ad6570cac20251110135155" width="100" height="100" viewBox="0 0 100 100" xmlns="http://www.w3.org/2000/svg" xmlns:svg="http://www.w3.org/2000/svg"> <defs id="I76b26a6470a14394ab5f92f2d37e088020251110135155" /> <g id="I59b854f6479f4217ad6c555e887cda5f20251110135155"> <path id="I99fe30ff9f9342ac8c63650b2f4b9fc320251110135155" d="m 21.094,9.375 c -1.293,0 -2.344,1.051 -2.344,2.344 V 57.621 L 16.5,55.375 c -0.914,-0.918 -2.398,-0.918 -3.312,0 -0.918,0.914 -0.918,2.398 0,3.313 l 6.25,6.25 c 0.914,0.917 2.398,0.917 3.312,0 L 29,58.688 c 0.918,-0.915 0.918,-2.399 0,-3.313 -0.914,-0.918 -2.398,-0.918 -3.312,0 l -2.25,2.246 V 11.719 c 0,-1.293 -1.051,-2.344 -2.344,-2.344 z M 34.469,9.539 64.145,21.27 c 1.859,0.734 1.968,3.257 0.324,4.203 l -0.328,0.156 -29.688,11.707 c -1.207,0.476 -2.566,-0.113 -3.043,-1.32 -0.433,-1.102 0.028,-2.34 1.035,-2.903 l 0.289,-0.136 7.891,-3.114 V 17.012 L 32.746,13.898 C 31.645,13.465 31.055,12.281 31.332,11.16 L 31.43,10.859 C 31.867,9.754 33.047,9.168 34.168,9.441 Z M 56.898,23.445 45.312,18.863 v 9.149 z m -8.46,16.399 c 0,-1.293 1.05,-2.344 2.343,-2.344 1.293,0 2.344,1.051 2.344,2.344 v 17.777 l 2.25,-2.246 c 0.914,-0.918 2.398,-0.918 3.313,0 0.917,0.914 0.917,2.398 0,3.313 l -6.25,6.25 c -0.915,0.917 -2.399,0.917 -3.313,0 l -6.25,-6.25 c -0.918,-0.915 -0.918,-2.399 0,-3.313 0.914,-0.918 2.398,-0.918 3.313,0 l 2.25,2.246 z" style="fill:currentColor;fill-opacity:1;fill-rule:nonzero;stroke:none" transform="scale(1.3333333)" /> </g>
</svg>

