<?xml version="1.0" encoding="UTF-8" standalone="no"?> <svg version="1.1" id="I17cb91cff3494e8580ed1f917357f08b20251106165301" width="100" height="100" viewBox="0 0 100 100" xmlns="http://www.w3.org/2000/svg" xmlns:svg="http://www.w3.org/2000/svg"> <defs id="I5f150631ec074b168c74a0e7415b436420251106165301" /> <g id="I0b3ac65fafa743abbc9371885345348620251106165301"> <path id="Id4ccc62d63fd41dc91b18281c72414ff20251106165301" d="M 13.125,7.5 C 14.16,7.5 15,8.34 15,9.375 v 15 c 0,1.035 0.84,1.875 1.875,1.875 h 41.25 C 59.16,26.25 60,25.41 60,24.375 v -15 C 60,8.34 60.84,7.5 61.875,7.5 c 1.035,0 1.875,0.84 1.875,1.875 v 15 c 0,2.449 -1.566,4.531 -3.75,5.305 v 4.07 c 0,4.141 -3.359,7.5 -7.5,7.5 V 45 h -3.75 v -3.75 h -22.5 v 21.34 l 7.52,-3.758 c 0.07,1.328 0.339,2.609 0.777,3.805 l -9.332,4.664 C 24.633,67.594 23.941,67.562 23.391,67.219 22.836,66.879 22.5,66.273 22.5,65.625 V 41.25 c -4.141,0 -7.5,-3.359 -7.5,-7.5 v -4.07 c -2.184,-0.774 -3.75,-2.856 -3.75,-5.305 v -15 C 11.25,8.34 12.09,7.5 13.125,7.5 Z M 18.75,30 v 3.75 c 0,2.07 1.68,3.75 3.75,3.75 h 30 c 2.07,0 3.75,-1.68 3.75,-3.75 V 30 Z m 28.125,18.75 c -5.176,0 -9.375,4.199 -9.375,9.375 0,5.176 4.199,9.375 9.375,9.375 h 1.875 c 1.035,0 1.875,-0.84 1.875,-1.875 0,-1.035 -0.84,-1.875 -1.875,-1.875 h -1.875 c -3.105,0 -5.625,-2.52 -5.625,-5.625 0,-3.105 2.52,-5.625 5.625,-5.625 h 1.875 c 1.035,0 1.875,-0.84 1.875,-1.875 0,-1.035 -0.84,-1.875 -1.875,-1.875 z m 13.125,0 c -1.035,0 -1.875,0.84 -1.875,1.875 0,1.035 0.84,1.875 1.875,1.875 h 1.875 c 3.105,0 5.625,2.52 5.625,5.625 0,3.105 -2.52,5.625 -5.625,5.625 H 60 c -1.035,0 -1.875,0.84 -1.875,1.875 0,1.035 0.84,1.875 1.875,1.875 h 1.875 c 5.176,0 9.375,-4.199 9.375,-9.375 0,-5.176 -4.199,-9.375 -9.375,-9.375 z m -15,9.375 c 0,-1.035 0.84,-1.875 1.875,-1.875 h 15 c 1.035,0 1.875,0.84 1.875,1.875 0,1.035 -0.84,1.875 -1.875,1.875 h -15 C 45.84,60 45,59.16 45,58.125 Z" style="fill:currentColor;fill-opacity:1;fill-rule:nonzero;stroke:none" transform="scale(1.3333333)" /> </g>
</svg>

