<?xml version="1.0" encoding="UTF-8" standalone="no"?> <svg version="1.1" id="I4fadd7a2a31045a3994921515325209c20251106132945" width="100" height="100" viewBox="0 0 100 100" xmlns="http://www.w3.org/2000/svg" xmlns:svg="http://www.w3.org/2000/svg"> <defs id="I1abb6bdef374416aacd6c80caecfdb3220251106132945" /> <g id="If6f1af886d7f4478bf65fbfda197efe220251106132945"> <path id="Ic9615b92e3fd4d0f9198e6154dfecac620251106132945" d="M 53.125,12.5 C 51.398,12.5 50,11.102 50,9.375 50,7.648 51.398,6.25 53.125,6.25 h 12.5 c 1.727,0 3.125,1.398 3.125,3.125 v 12.5 C 68.75,23.602 67.352,25 65.625,25 63.898,25 62.5,23.602 62.5,21.875 V 16.918 L 44.398,35.023 c -1.222,1.219 -3.199,1.219 -4.421,0 L 31.25,26.293 14.711,42.836 c -1.223,1.219 -3.199,1.219 -4.422,0 -1.219,-1.223 -1.219,-3.199 0,-4.422 l 18.75,-18.75 c 0.586,-0.586 1.383,-0.914 2.211,-0.914 0.828,0 1.625,0.328 2.211,0.914 L 42.188,28.395 58.082,12.5 Z m -37.5,43.75 v 9.375 c 0,1.727 -1.398,3.125 -3.125,3.125 -1.727,0 -3.125,-1.398 -3.125,-3.125 V 56.25 c 0,-1.727 1.398,-3.125 3.125,-3.125 1.727,0 3.125,1.398 3.125,3.125 z M 31.25,43.75 c 0,-1.727 -1.398,-3.125 -3.125,-3.125 -1.727,0 -3.125,1.398 -3.125,3.125 v 21.875 c 0,1.727 1.398,3.125 3.125,3.125 1.727,0 3.125,-1.398 3.125,-3.125 z m 12.5,3.125 c 1.727,0 3.125,1.398 3.125,3.125 v 15.625 c 0,1.727 -1.398,3.125 -3.125,3.125 -1.727,0 -3.125,-1.398 -3.125,-3.125 V 50 c 0,-1.727 1.398,-3.125 3.125,-3.125 z m 18.75,-12.5 c 0,-1.727 -1.398,-3.125 -3.125,-3.125 -1.727,0 -3.125,1.398 -3.125,3.125 v 31.25 c 0,1.727 1.398,3.125 3.125,3.125 1.727,0 3.125,-1.398 3.125,-3.125 z" style="fill:currentColor;fill-opacity:1;fill-rule:nonzero;stroke:none" transform="scale(1.3333333)" /> </g>
</svg>

