<?xml version="1.0" encoding="UTF-8" standalone="no"?> <svg version="1.1" id="I5b53fb91ab0a4849a12cddc361dcd17e20251106104833" width="100" height="100" viewBox="0 0 100 100" xmlns="http://www.w3.org/2000/svg" xmlns:svg="http://www.w3.org/2000/svg"> <defs id="Idee1a41a2cf74e9793e785190d9a842920251106104833" /> <g id="If368e69b83b04d8aa662ce75769c360020251106104833"> <path id="If65a9e908a9b4388b6a92c1e4addffa320251106104833" d="M 68.723,59.934 H 8.453 c -0.367,0 -0.668,0.3 -0.668,0.668 v 5.023 c 0,0.367 0.301,0.668 0.668,0.668 h 60.27 c 0.367,0 0.668,-0.301 0.668,-0.668 v -5.023 c 0,-0.368 -0.301,-0.668 -0.668,-0.668 z M 28.125,21.906 h 6.187 v 28.317 c 0,0.367 0.301,0.672 0.668,0.672 h 5.024 c 0.367,0 0.668,-0.305 0.668,-0.672 V 21.906 h 6.203 c 0.563,0 0.871,-0.644 0.527,-1.082 L 38.027,8.957 c -0.269,-0.344 -0.785,-0.344 -1.054,0 l -9.375,11.859 c -0.344,0.446 -0.036,1.09 0.527,1.09 z" style="fill:currentColor;fill-opacity:1;fill-rule:nonzero;stroke:none" transform="scale(1.3333333)" /> </g>
</svg>

