<?xml version="1.0" encoding="UTF-8" standalone="no"?> <svg version="1.1" id="Ifa626cb41e9e4c85ae579aa88d4361cb20251106132945" width="100" height="100" viewBox="0 0 100 100" xmlns="http://www.w3.org/2000/svg" xmlns:svg="http://www.w3.org/2000/svg"> <defs id="Ib30162c67b9c449f8026230aab0af59f20251106132945" /> <g id="I51016dc5a71e45c3929db2aefeaeddef20251106132945"> <path id="I5f631610cf7745b69f98b8a29e6ace4120251106132945" d="m 21.875,9.375 c 8.402,0 15.254,6.633 15.609,14.945 L 37.5,25 v 34.375 c 0,5.18 -4.195,9.375 -9.375,9.375 -4.992,0 -9.074,-3.902 -9.359,-8.824 L 18.75,59.375 v -31.25 c 0,-1.727 1.398,-3.125 3.125,-3.125 1.602,0 2.922,1.207 3.105,2.762 L 25,28.125 v 31.25 c 0,1.727 1.398,3.125 3.125,3.125 1.602,0 2.922,-1.207 3.105,-2.762 l 0.02,-0.363 V 25 c 0,-5.176 -4.199,-9.375 -9.375,-9.375 -4.992,0 -9.074,3.902 -9.359,8.824 L 12.5,25 v 28.125 c 0,1.727 -1.398,3.125 -3.125,3.125 -1.602,0 -2.922,-1.207 -3.105,-2.762 L 6.25,53.125 V 25 c 0,-8.629 6.996,-15.625 15.625,-15.625 z m 25,43.75 h 6.25 c 1.727,0 3.125,1.398 3.125,3.125 0,1.602 -1.207,2.922 -2.762,3.105 l -0.363,0.02 h -6.25 c -1.727,0 -3.125,-1.398 -3.125,-3.125 0,-1.602 1.207,-2.922 2.762,-3.105 l 0.363,-0.02 h 6.25 z m 0,-12.5 h 17.187 c 1.727,0 3.126,1.398 3.126,3.125 0,1.602 -1.208,2.922 -2.762,3.105 l -0.364,0.02 H 46.875 c -1.727,0 -3.125,-1.398 -3.125,-3.125 0,-1.602 1.207,-2.922 2.762,-3.105 l 0.363,-0.02 h 17.187 z m 0,-12.5 h 17.187 c 1.727,0 3.126,1.398 3.126,3.125 0,1.602 -1.208,2.922 -2.762,3.105 l -0.364,0.02 H 46.875 c -1.727,0 -3.125,-1.398 -3.125,-3.125 0,-1.602 1.207,-2.922 2.762,-3.105 l 0.363,-0.02 h 17.187 z m 0,-12.5 h 17.187 c 1.727,0 3.126,1.398 3.126,3.125 0,1.602 -1.208,2.922 -2.762,3.105 l -0.364,0.02 H 46.875 c -1.727,0 -3.125,-1.398 -3.125,-3.125 0,-1.602 1.207,-2.922 2.762,-3.105 l 0.363,-0.02 h 17.187 z" style="fill:currentColor;fill-opacity:1;fill-rule:nonzero;stroke:none" transform="scale(1.3333333)" /> </g>
</svg>

