<?xml version="1.0" encoding="UTF-8" standalone="no"?> <svg version="1.1" id="I328c53cd56264d96bb47f22e7a39c49920251106143238" width="100" height="100" viewBox="0 0 100 100" xmlns="http://www.w3.org/2000/svg" xmlns:svg="http://www.w3.org/2000/svg"> <defs id="I547fe076d727432d8d52a1a2cbd7e15320251106143238" /> <g id="Ie4cf29d557694e59882fcf4319be5ef020251106143238"> <path id="I9cd83ba6ede74d82ac5203fc6b73b26d20251106143238" d="M 65.625,26.562 V 37.5 H 43.75 c -5.18,0 -9.375,4.195 -9.375,9.375 v 18.75 H 19.531 C 13.922,65.625 9.375,61.078 9.375,55.469 V 26.562 Z M 55.469,9.375 c 5.609,0 10.156,4.547 10.156,10.156 v 2.344 H 9.375 v -2.344 c 0,-5.609 4.547,-10.156 10.156,-10.156 z M 43.75,40.625 c -3.453,0 -6.25,2.797 -6.25,6.25 v 18.75 c 0,3.453 2.797,6.25 6.25,6.25 h 21.875 c 3.453,0 6.25,-2.797 6.25,-6.25 v -18.75 c 0,-3.453 -2.797,-6.25 -6.25,-6.25 z m 0,10.937 C 43.75,50.699 44.449,50 45.312,50 h 18.75 c 0.864,0 1.563,0.699 1.563,1.562 0,0.864 -0.699,1.563 -1.563,1.563 h -18.75 c -0.863,0 -1.562,-0.699 -1.562,-1.563 z m 0,9.376 c 0,-0.864 0.699,-1.563 1.562,-1.563 h 18.75 c 0.864,0 1.563,0.699 1.563,1.563 0,0.863 -0.699,1.562 -1.563,1.562 h -18.75 c -0.863,0 -1.562,-0.699 -1.562,-1.562 z" style="fill:currentColor;fill-opacity:1;fill-rule:nonzero;stroke:none" transform="scale(1.3333333)" /> </g>
</svg>

