<?xml version="1.0" encoding="UTF-8" standalone="no"?> <svg version="1.1" id="Ic1ec97309a264aa18158aea465518b2220251110135155" width="100" height="100" viewBox="0 0 100 100" xmlns="http://www.w3.org/2000/svg" xmlns:svg="http://www.w3.org/2000/svg"> <defs id="Ia057870be3c446aaa51f04fc3dad5b2220251110135155" /> <g id="I41f0ef5c004f4c539f9bc2d45c6017eb20251110135155"> <path id="Iff6154dfc00b43ce8cb5bc3c2d6f1d5c20251110135155" d="m 9.375,18.75 c 0,-1.727 1.398,-3.125 3.125,-3.125 h 28.125 c 1.727,0 3.125,1.398 3.125,3.125 0,1.727 -1.398,3.125 -3.125,3.125 H 12.5 c -1.727,0 -3.125,-1.398 -3.125,-3.125 z m 40.625,0 c 0,-1.727 1.398,-3.125 3.125,-3.125 H 62.5 c 1.727,0 3.125,1.398 3.125,3.125 0,1.727 -1.398,3.125 -3.125,3.125 H 53.125 C 51.398,21.875 50,20.477 50,18.75 Z M 9.375,31.25 c 0,-1.727 1.398,-3.125 3.125,-3.125 h 28.125 c 1.727,0 3.125,1.398 3.125,3.125 0,1.727 -1.398,3.125 -3.125,3.125 H 12.5 c -1.727,0 -3.125,-1.398 -3.125,-3.125 z m 40.625,0 c 0,-1.727 1.398,-3.125 3.125,-3.125 H 62.5 c 1.727,0 3.125,1.398 3.125,3.125 0,1.727 -1.398,3.125 -3.125,3.125 H 53.125 C 51.398,34.375 50,32.977 50,31.25 Z M 9.375,43.75 c 0,-1.727 1.398,-3.125 3.125,-3.125 h 28.125 c 1.727,0 3.125,1.398 3.125,3.125 0,1.727 -1.398,3.125 -3.125,3.125 H 12.5 c -1.727,0 -3.125,-1.398 -3.125,-3.125 z m 40.625,0 c 0,-1.727 1.398,-3.125 3.125,-3.125 H 62.5 c 1.727,0 3.125,1.398 3.125,3.125 0,1.727 -1.398,3.125 -3.125,3.125 H 53.125 C 51.398,46.875 50,45.477 50,43.75 Z M 9.375,56.25 c 0,-1.727 1.398,-3.125 3.125,-3.125 h 28.125 c 1.727,0 3.125,1.398 3.125,3.125 0,1.727 -1.398,3.125 -3.125,3.125 H 12.5 c -1.727,0 -3.125,-1.398 -3.125,-3.125 z m 40.625,0 c 0,-1.727 1.398,-3.125 3.125,-3.125 H 62.5 c 1.727,0 3.125,1.398 3.125,3.125 0,1.727 -1.398,3.125 -3.125,3.125 H 53.125 C 51.398,59.375 50,57.977 50,56.25 Z" style="fill:currentColor;fill-opacity:1;fill-rule:nonzero;stroke:none" transform="scale(1.3333333)" /> </g>
</svg>

