<?xml version="1.0" encoding="UTF-8" standalone="no"?> <svg version="1.1" id="I5aa151843f4b4f068057b789e6d8bb2220251106143238" width="100" height="100" viewBox="0 0 100 100" xmlns="http://www.w3.org/2000/svg" xmlns:svg="http://www.w3.org/2000/svg"> <defs id="I4378771c1b4341f3bd28608647b2d9fa20251106143238" /> <g id="Iee455d6cd6b0458298b14d8146c1676f20251106143238"> <path id="Iebfc1efc4f544800a5b64b44128f7de620251106143238" d="m 16.742,8.035 c -4.808,0 -8.707,3.899 -8.707,8.707 v 9.883 l -1.926,-1.93 c -0.785,-0.785 -2.058,-0.785 -2.843,0 -0.782,0.785 -0.782,2.059 0,2.84 l 5.359,5.36 c 0.785,0.785 2.055,0.785 2.84,0 l 5.359,-5.36 c 0.781,-0.781 0.781,-2.055 0,-2.84 -0.785,-0.785 -2.058,-0.785 -2.844,0 l -1.925,1.93 v -9.883 c 0,-2.59 2.097,-4.687 4.687,-4.687 h 41.516 c 2.59,0 4.687,2.097 4.687,4.687 V 21.43 H 16.07 c -0.09,0 -0.179,0.004 -0.265,0.015 1.062,0.09 2.097,0.543 2.91,1.356 0.746,0.746 1.187,1.679 1.328,2.644 h 42.902 v 32.813 c 0,2.59 -2.097,4.687 -4.687,4.687 H 16.742 c -2.59,0 -4.687,-2.097 -4.687,-4.687 v -18.75 c 0,-1.11 -0.903,-2.008 -2.012,-2.008 -1.109,0 -2.008,0.898 -2.008,2.008 v 18.75 c 0,4.808 3.899,8.707 8.707,8.707 h 41.516 c 4.808,0 8.707,-3.899 8.707,-8.707 V 16.742 c 0,-4.808 -3.899,-8.707 -8.707,-8.707 z m 10.039,42.192 c 0,-1.848 -1.5,-3.348 -3.347,-3.348 -1.852,0 -3.348,1.5 -3.348,3.348 0,1.851 1.496,3.347 3.348,3.347 1.847,0 3.347,-1.496 3.347,-3.347 z m 14.074,0 c 0,-1.848 -1.5,-3.348 -3.347,-3.348 -1.852,0 -3.348,1.5 -3.348,3.348 0,1.851 1.496,3.347 3.348,3.347 1.847,0 3.347,-1.496 3.347,-3.347 z M 26.781,36.836 c 0,-1.852 -1.5,-3.352 -3.347,-3.352 -1.852,0 -3.348,1.5 -3.348,3.352 0,1.848 1.496,3.348 3.348,3.348 1.847,0 3.347,-1.5 3.347,-3.348 z m 14.074,0 c 0,-1.852 -1.5,-3.352 -3.347,-3.352 -1.852,0 -3.348,1.5 -3.348,3.352 0,1.848 1.496,3.348 3.348,3.348 1.847,0 3.347,-1.5 3.347,-3.348 z m 14.075,0 c 0,-1.852 -1.5,-3.352 -3.348,-3.352 -1.852,0 -3.348,1.5 -3.348,3.352 0,1.848 1.496,3.348 3.348,3.348 1.848,0 3.348,-1.5 3.348,-3.348 z" style="fill:currentColor;fill-opacity:1;fill-rule:nonzero;stroke:none" transform="scale(1.3333333)" /> </g>
</svg>

