<?xml version="1.0" encoding="UTF-8" standalone="no"?> <svg version="1.1" id="I3b2c1723f41446e9813d025811a5b9ff20251106123600" width="100" height="100" viewBox="0 0 100 100" xmlns="http://www.w3.org/2000/svg" xmlns:svg="http://www.w3.org/2000/svg"> <defs id="Id8095e8c5aab4db5be8580a451490d6f20251106123600" /> <g id="I60c140ddc1b54184b708de3ab0acd4ad20251106123600"> <path id="Ic10d58337509417fbe67be082c54d8f520251106123600" d="m 40.473,18.434 0.265,-0.309 7.356,-7.363 c 0.562,-0.856 1.578,-1.387 2.691,-1.387 1.008,0 1.934,0.437 2.516,1.148 l 0.015,0.024 0.141,0.199 7.371,7.379 0.266,0.309 0.015,0.023 c 0.809,1.086 0.821,2.578 0.032,3.676 l -0.02,0.027 -0.309,0.363 -0.332,0.286 -0.023,0.019 c -1.086,0.805 -2.578,0.817 -3.676,0.027 L 56.754,22.84 56.41,22.547 53.906,20.043 v 9.969 l -0.027,0.336 -0.004,0.031 c -0.223,1.449 -1.598,2.433 -3.094,2.433 -1.5,0 -2.871,-0.984 -3.093,-2.433 l -0.004,-0.031 -0.028,-0.336 v -9.969 l -2.496,2.5 -0.308,0.266 -0.024,0.019 c -1.223,0.906 -2.961,0.805 -4.07,-0.305 -1.11,-1.109 -1.207,-2.843 -0.301,-4.066 z M 12.5,20.289 c 0,-4.316 3.496,-7.812 7.812,-7.812 h 12.5 c 1.727,0 3.126,1.398 3.126,3.125 0,1.726 -1.399,3.125 -3.126,3.125 h -12.5 c -0.863,0 -1.562,0.699 -1.562,1.562 v 34.375 c 0,0.863 0.699,1.563 1.562,1.563 h 12.5 c 1.727,0 3.126,1.398 3.126,3.125 0,1.726 -1.399,3.125 -3.126,3.125 h -12.5 c -4.316,0 -7.812,-3.5 -7.812,-7.813 z m 32.664,32.164 -0.305,-0.262 -0.023,-0.019 c -1.227,-0.906 -2.961,-0.805 -4.07,0.305 -1.223,1.218 -1.219,3.199 0,4.418 l 7.336,7.343 c 0.558,0.856 1.574,1.387 2.687,1.387 1.113,0 2.129,-0.531 2.691,-1.387 l 7.356,-7.363 0.262,-0.309 0.019,-0.019 c 0.906,-1.227 0.809,-2.961 -0.301,-4.07 l -0.023,-0.024 -0.305,-0.262 -0.023,-0.019 c -1.223,-0.906 -2.961,-0.805 -4.07,0.305 l -2.481,2.48 v -9.969 l -0.027,-0.336 -0.004,-0.031 c -0.227,-1.449 -1.598,-2.433 -3.098,-2.433 -1.621,0 -3.121,1.171 -3.121,2.832 v 9.937 z" style="fill:currentColor;fill-opacity:1;fill-rule:nonzero;stroke:none" transform="scale(1.3333333)" /> </g>
</svg>

