<?xml version="1.0" encoding="UTF-8" standalone="no"?> <svg version="1.1" id="I78f6a3564e0e4a4682d072e6905ff47920251110133656" width="100" height="100" viewBox="0 0 100 100" xmlns="http://www.w3.org/2000/svg" xmlns:svg="http://www.w3.org/2000/svg"> <defs id="I1d56c562bddd4822b8486197ffda8a6220251110133656" /> <g id="Id07c0358d27449cf88cbda35c1ca564320251110133656"> <path id="Iaa2ba676d0764a27b1d9efdea8910bac20251110133656" d="m 9.375,19.531 c 0,-5.609 4.547,-10.156 10.156,-10.156 h 35.938 c 5.609,0 10.156,4.547 10.156,10.156 v 35.938 c 0,5.609 -4.547,10.156 -10.156,10.156 H 19.531 c -5.609,0 -10.156,-4.547 -10.156,-10.156 z m 4.687,2.344 h 46.876 v -2.344 c 0,-3.019 -2.45,-5.469 -5.469,-5.469 H 19.531 c -3.019,0 -5.469,2.45 -5.469,5.469 z m 46.876,4.687 H 14.062 v 28.907 c 0,3.019 2.45,5.469 5.469,5.469 h 35.938 c 3.019,0 5.469,-2.45 5.469,-5.469 z m -39.844,6.25 c -1.293,0 -2.344,1.051 -2.344,2.344 0,1.293 1.051,2.344 2.344,2.344 h 32.812 c 1.293,0 2.344,-1.051 2.344,-2.344 0,-1.293 -1.051,-2.344 -2.344,-2.344 z m 0,8.594 c -1.293,0 -2.344,1.051 -2.344,2.344 0,1.293 1.051,2.344 2.344,2.344 h 18.75 c 1.293,0 2.344,-1.051 2.344,-2.344 0,-1.293 -1.051,-2.344 -2.344,-2.344 z m 28.125,0 c -1.293,0 -2.344,1.051 -2.344,2.344 0,1.293 1.051,2.344 2.344,2.344 h 4.687 c 1.293,0 2.344,-1.051 2.344,-2.344 0,-1.293 -1.051,-2.344 -2.344,-2.344 z M 21.094,50 c -1.293,0 -2.344,1.051 -2.344,2.344 0,1.293 1.051,2.344 2.344,2.344 h 4.687 c 1.293,0 2.344,-1.051 2.344,-2.344 C 28.125,51.051 27.074,50 25.781,50 Z m 14.062,0 c -1.293,0 -2.344,1.051 -2.344,2.344 0,1.293 1.051,2.344 2.344,2.344 h 18.75 c 1.293,0 2.344,-1.051 2.344,-2.344 C 56.25,51.051 55.199,50 53.906,50 Z" style="fill:currentColor;fill-opacity:1;fill-rule:nonzero;stroke:none" transform="scale(1.3333333)" /> </g>
</svg>

