<?xml version="1.0" encoding="UTF-8" standalone="no"?> <svg version="1.1" id="I35ea14e63e96492d87f3c431789d32dd20251110124420" width="100" height="100" viewBox="0 0 100 100" xmlns="http://www.w3.org/2000/svg" xmlns:svg="http://www.w3.org/2000/svg"> <defs id="Ib9bfc937988f420eab623e7a25fb42e620251110124420" /> <g id="Ib83c99bf062141378418e07462ace94420251110124420"> <path id="I962e4a7b0cbe48e2a7852a759119a61320251110124420" d="m 55.469,6.254 c 3.722,0 6.765,2.891 7.015,6.551 l 0.016,0.48 v 48.43 c 0,3.723 -2.891,6.769 -6.551,7.015 l -0.48,0.016 H 19.531 c -3.722,0 -6.769,-2.891 -7.015,-6.551 L 12.5,61.715 v -48.43 c 0,-3.723 2.891,-6.769 6.551,-7.015 l 0.48,-0.016 z M 38.273,40.617 H 24.219 l -0.317,0.02 c -1.144,0.156 -2.027,1.136 -2.027,2.324 0,1.187 0.883,2.168 2.027,2.32 l 0.317,0.024 h 14.054 l 0.321,-0.024 c 1.144,-0.152 2.023,-1.133 2.023,-2.32 0,-1.188 -0.879,-2.168 -2.023,-2.324 z M 50.781,31.246 H 24.219 l -0.317,0.02 c -1.144,0.156 -2.027,1.136 -2.027,2.324 0,1.187 0.883,2.168 2.027,2.32 l 0.317,0.024 h 26.562 l 0.317,-0.024 c 1.144,-0.152 2.027,-1.133 2.027,-2.32 0,-1.188 -0.883,-2.168 -2.027,-2.324 z m 0,-9.371 H 24.219 l -0.317,0.02 c -1.144,0.156 -2.027,1.136 -2.027,2.324 0,1.187 0.883,2.168 2.027,2.324 l 0.317,0.019 h 26.562 l 0.317,-0.019 c 1.144,-0.156 2.027,-1.137 2.027,-2.324 0,-1.188 -0.883,-2.168 -2.027,-2.324 z" style="fill:currentColor;fill-opacity:1;fill-rule:nonzero;stroke:none" transform="scale(1.3333333)" /> </g>
</svg>

