<?xml version="1.0" encoding="UTF-8" standalone="no"?> <svg version="1.1" id="Icec44285d6a54a1ca4fcaada69d59ff720251106165301" width="100" height="100" viewBox="0 0 100 100" xmlns="http://www.w3.org/2000/svg" xmlns:svg="http://www.w3.org/2000/svg"> <defs id="I04a1a30a1b5642c88a83ad23ef0ae70120251106165301"> <linearGradient x1="11.9875" y1="22.266899" x2="26.7363" y2="16.667" gradientUnits="userSpaceOnUse" gradientTransform="scale(2.678571)" spreadMethod="pad" id="I8501ec938251427781b4dccae6a59db020251106165301"> <stop style="stop-opacity:1;stop-color:#d373fc" offset="0" id="Ida1ecf21c4c54cb8a02752e4efe3f95b20251106165301" /> <stop style="stop-opacity:1;stop-color:#6d37cd" offset="1" id="I49d3d8c144a643a5af7813a4b0d831fe20251106165301" /> </linearGradient> <linearGradient x1="3" y1="4.2941198" x2="8.9049397" y2="29.018999" gradientUnits="userSpaceOnUse" gradientTransform="scale(2.678571)" spreadMethod="pad" id="I3671d25c2b6d4e40b6748459a18501ef20251106165301"> <stop style="stop-opacity:1;stop-color:#0fafff" offset="0" id="I291de16611ae4b44bf9100e81cbf101f20251106165301" /> <stop style="stop-opacity:1;stop-color:#0067bf" offset="1" id="Idb10e8324fcd4fc1ac73c1fd5a4a110020251106165301" /> </linearGradient> </defs> <g id="I3f3c4c81fa914d3f978ef5e866afaf6720251106165301"> <path id="I407156372b0a404e8cb43b9199088dc820251106165301" d="m 37.5,18.75 c 1.48,0 2.68,1.199 2.68,2.68 v 13.39 h 8.035 c 1.48,0 2.68,1.2 2.68,2.68 0,1.48 -1.2,2.68 -2.68,2.68 H 37.5 c -1.48,0 -2.68,-1.2 -2.68,-2.68 V 21.43 c 0,-1.481 1.2,-2.68 2.68,-2.68 z" transform="scale(1.3333333)" style="fill:url(#I8501ec938251427781b4dccae6a59db020251106165301);stroke:none" /> <path id="I984be1ca9040411dbf5f14caeae556ac20251106165301" d="m 37.5,13.395 c -5.742,0 -11.012,2.003 -15.152,5.355 h 4.437 c 1.481,0 2.68,1.199 2.68,2.68 0,1.476 -1.199,2.675 -2.68,2.675 H 16.07 c -1.453,0 -2.636,-1.156 -2.675,-2.597 0,-0.039 -0.004,-0.074 0,-0.113 v -10.68 c 0,-1.481 1.199,-2.68 2.675,-2.68 1.481,0 2.68,1.199 2.68,2.68 V 14.77 C 23.844,10.566 30.375,8.035 37.5,8.035 53.773,8.035 66.965,21.227 66.965,37.5 66.965,53.773 53.773,66.965 37.5,66.965 21.227,66.965 8.035,53.773 8.035,37.5 c 0,-0.992 0.051,-1.973 0.145,-2.941 0.148,-1.473 1.461,-2.551 2.929,-2.403 1.473,0.145 2.547,1.457 2.403,2.93 -0.078,0.793 -0.117,1.598 -0.117,2.414 0,13.312 10.793,24.105 24.105,24.105 13.312,0 24.105,-10.793 24.105,-24.105 0,-13.312 -10.793,-24.105 -24.105,-24.105 z" transform="scale(1.3333333)" style="fill:url(#I3671d25c2b6d4e40b6748459a18501ef20251106165301);stroke:none" /> </g>
</svg>

