<?xml version="1.0" encoding="UTF-8" standalone="no"?> <svg version="1.1" id="I45542c2684fa45ba9097cddeec54763120251106151526" width="100" height="100" viewBox="0 0 100 100" xmlns="http://www.w3.org/2000/svg" xmlns:svg="http://www.w3.org/2000/svg"> <defs id="Ic0daf8dc96ab4864b66ce00dadc2fc7720251106151526" /> <g id="Idbc03e114d4c402cbd3260274c0e1f5320251106151526"> <path id="Icbb7cbdeef8a4032b6a6f5b32cbccf9020251106151526" d="m 8.035,18.082 c 0,-5.551 4.496,-10.047 10.047,-10.047 h 38.836 c 5.551,0 10.047,4.496 10.047,10.047 v 38.836 c 0,5.551 -4.496,10.047 -10.047,10.047 H 18.082 c -5.551,0 -10.047,-4.496 -10.047,-10.047 z m 24.188,6.613 c -0.782,-0.785 -2.055,-0.785 -2.84,0 L 18,36.078 c -0.785,0.785 -0.785,2.059 0,2.844 l 11.383,11.383 c 0.785,0.785 2.058,0.785 2.84,0 0.785,-0.785 0.785,-2.059 0,-2.84 L 22.262,37.5 32.223,27.535 c 0.785,-0.781 0.785,-2.055 0,-2.84 z m 13.394,0 c -0.785,-0.785 -2.058,-0.785 -2.84,0 -0.785,0.785 -0.785,2.059 0,2.84 l 9.961,9.965 -9.961,9.965 c -0.785,0.781 -0.785,2.055 0,2.84 0.782,0.785 2.055,0.785 2.84,0 L 57,38.922 c 0.785,-0.785 0.785,-2.059 0,-2.844 z" style="fill:currentColor;fill-opacity:1;fill-rule:nonzero;stroke:none" transform="scale(1.3333333)" /> </g>
</svg>

