<?xml version="1.0" encoding="UTF-8" standalone="no"?> <svg version="1.1" id="I3b3f2b74da2a462080a7a0f3226c9eef20251106155156" width="100" height="100" viewBox="0 0 100 100" xmlns="http://www.w3.org/2000/svg" xmlns:svg="http://www.w3.org/2000/svg"> <defs id="I7e27fc01667940159333501359bcd41020251106155156" /> <g id="I47116e702bc2421a899159125a0ea1ee20251106155156"> <path id="Iaa6ed8e3094d417ba03aed7c16c2d80220251106155156" d="m 49.922,6.75 13.64,13.641 c 1.313,1.32 2.051,3.105 2.063,4.968 v 35.579 c -0.008,2.484 -0.996,4.863 -2.754,6.621 -1.758,1.757 -4.137,2.746 -6.621,2.753 h -7.5 c 1.754,-1.058 3.055,-2.726 3.656,-4.687 h 3.844 c 1.242,0 2.438,-0.492 3.316,-1.371 0.879,-0.879 1.372,-2.074 1.372,-3.316 V 28.125 H 49.219 c -1.864,0 -3.653,-0.742 -4.973,-2.059 -1.316,-1.32 -2.058,-3.109 -2.058,-4.972 V 9.375 H 28.125 c -1.242,0 -2.434,0.492 -3.316,1.371 -0.879,0.883 -1.371,2.074 -1.371,3.316 v 30.985 c -0.231,0.391 -0.434,0.801 -0.61,1.219 -0.195,0.074 -0.387,0.168 -0.562,0.281 C 21.848,45.918 21.359,45.336 20.812,44.812 20.191,44.172 19.5,43.605 18.75,43.125 V 14.062 c 0.008,-2.484 0.996,-4.863 2.754,-6.621 1.758,-1.757 4.137,-2.746 6.621,-2.753 h 16.828 c 1.863,0.007 3.649,0.75 4.969,2.062 z m -2.36,16 c 0.438,0.441 1.036,0.688 1.657,0.688 H 59.953 L 46.875,10.359 v 10.735 c 0,0.621 0.246,1.218 0.687,1.656 z M 11.719,70.312 C 9.855,70.312 8.066,69.57 6.746,68.254 5.43,66.934 4.688,65.145 4.688,63.281 v -9.375 c 0,-1.863 0.742,-3.652 2.058,-4.972 1.32,-1.317 3.109,-2.059 4.973,-2.059 1.863,0 3.652,0.742 4.972,2.059 1.317,1.32 2.059,3.109 2.059,4.972 0,0.621 -0.246,1.219 -0.688,1.656 -0.437,0.442 -1.035,0.688 -1.656,0.688 -0.621,0 -1.218,-0.246 -1.656,-0.688 -0.441,-0.437 -0.688,-1.035 -0.688,-1.656 0,-0.621 -0.246,-1.218 -0.687,-1.656 -0.437,-0.441 -1.035,-0.688 -1.656,-0.688 -0.621,0 -1.219,0.247 -1.657,0.688 -0.441,0.438 -0.687,1.035 -0.687,1.656 v 9.375 c 0,0.621 0.246,1.219 0.687,1.657 0.438,0.441 1.036,0.687 1.657,0.687 0.621,0 1.219,-0.246 1.656,-0.687 0.441,-0.438 0.687,-1.036 0.687,-1.657 0,-0.621 0.247,-1.219 0.688,-1.656 0.438,-0.441 1.035,-0.687 1.656,-0.687 0.621,0 1.219,0.246 1.656,0.687 0.442,0.437 0.688,1.035 0.688,1.656 0,1.864 -0.742,3.653 -2.059,4.973 -1.32,1.316 -3.109,2.058 -4.972,2.058 z M 44.531,60.938 H 42.188 V 56.25 h 2.343 c 0.621,0 1.219,-0.246 1.657,-0.688 0.441,-0.437 0.687,-1.035 0.687,-1.656 0,-0.621 -0.246,-1.218 -0.687,-1.656 -0.438,-0.441 -1.036,-0.688 -1.657,-0.688 h -2.343 v -2.343 c 0,-0.621 -0.247,-1.219 -0.688,-1.657 -0.438,-0.441 -1.035,-0.687 -1.656,-0.687 -0.621,0 -1.219,0.246 -1.656,0.687 C 37.746,48 37.5,48.598 37.5,49.219 v 2.343 h -4.688 v -2.343 c 0,-0.621 -0.246,-1.219 -0.687,-1.657 -0.437,-0.441 -1.035,-0.687 -1.656,-0.687 -0.621,0 -1.219,0.246 -1.657,0.687 -0.441,0.438 -0.687,1.036 -0.687,1.657 v 2.343 h -2.344 c -0.621,0 -1.219,0.247 -1.656,0.688 -0.441,0.438 -0.687,1.035 -0.687,1.656 0,0.621 0.246,1.219 0.687,1.656 0.437,0.442 1.035,0.688 1.656,0.688 h 2.387 l 0.027,4.688 h -2.414 c -0.621,0 -1.219,0.246 -1.656,0.687 -0.441,0.437 -0.687,1.035 -0.687,1.656 0,0.621 0.246,1.219 0.687,1.657 0.437,0.441 1.035,0.687 1.656,0.687 h 2.442 v 2.344 c 0,0.621 0.246,1.219 0.687,1.656 0.438,0.441 1.035,0.687 1.656,0.687 0.622,0 1.219,-0.246 1.657,-0.687 0.441,-0.437 0.687,-1.035 0.687,-1.656 v -2.344 h 4.59 v 2.344 c 0,0.621 0.246,1.219 0.688,1.656 0.437,0.441 1.035,0.687 1.656,0.687 0.621,0 1.218,-0.246 1.656,-0.687 0.441,-0.437 0.688,-1.035 0.688,-1.656 v -2.344 h 2.343 c 0.621,0 1.219,-0.246 1.657,-0.687 0.441,-0.438 0.687,-1.036 0.687,-1.657 0,-0.621 -0.246,-1.219 -0.687,-1.656 -0.438,-0.441 -1.036,-0.687 -1.657,-0.687 z m -7.031,0 H 32.883 L 32.855,56.25 H 37.5 Z" style="fill:currentColor;fill-opacity:1;fill-rule:nonzero;stroke:none" transform="scale(1.3333333)" /> </g>
</svg>

