<?xml version="1.0" encoding="UTF-8" standalone="no"?> <svg version="1.1" id="I3862452714bb466d973575ce4138f6d320251106170956" width="100" height="100" viewBox="0 0 100 100" xmlns="http://www.w3.org/2000/svg" xmlns:svg="http://www.w3.org/2000/svg"> <defs id="I27c90a8c2db2425cbfc57744302715b920251106170956" /> <g id="I568439bb81cd44a693b35f3f8a75b14420251106170956"> <path id="I87cba8dc79da40e395072c071beefaf920251106170956" d="m 33.047,7.328 c 2.797,-1.43 6.109,-1.43 8.906,0 l 21.485,11.004 c 1.746,0.895 3.144,2.27 4.066,3.922 l -30,15.793 L 7.555,22.148 c 0.922,-1.601 2.3,-2.941 4.007,-3.816 z M 6.312,25.914 C 6.27,26.277 6.25,26.648 6.25,27.023 v 25.711 c 0,5.395 4.371,9.766 9.766,9.766 H 35.938 V 50 c 0,-4.316 3.496,-7.812 7.812,-7.812 h 0.035 c 0.121,-1.333 0.547,-2.579 1.203,-3.668 l -6.578,3.464 c -0.57,0.301 -1.254,0.297 -1.824,-0.004 z M 68.75,27.023 V 42.188 H 68.715 C 68.32,37.809 64.641,34.375 60.156,34.375 h -7.293 l 15.836,-8.336 c 0.035,0.324 0.051,0.652 0.051,0.984 z M 46.875,42.969 v 2.343 H 43.75 c -2.59,0 -4.688,2.098 -4.688,4.688 v 17.188 c 0,2.589 2.098,4.687 4.688,4.687 h 25 c 2.59,0 4.688,-2.098 4.688,-4.687 V 50 c 0,-2.59 -2.098,-4.688 -4.688,-4.688 h -3.125 v -2.343 c 0,-3.02 -2.449,-5.469 -5.469,-5.469 h -7.812 c -3.02,0 -5.469,2.449 -5.469,5.469 z m 5.469,-2.344 h 7.812 c 1.293,0 2.344,1.051 2.344,2.344 v 2.343 H 50 v -2.343 c 0,-1.293 1.051,-2.344 2.344,-2.344 z" style="fill:currentColor;fill-opacity:1;fill-rule:nonzero;stroke:none" transform="scale(1.3333333)" /> </g>
</svg>

