<?xml version="1.0" encoding="UTF-8" standalone="no"?> <svg version="1.1" id="I71969d7d85334db887654edf370ff02720251110133655" width="100" height="100" viewBox="0 0 100 100" xmlns="http://www.w3.org/2000/svg" xmlns:svg="http://www.w3.org/2000/svg"> <defs id="Iea102846e18e48de8b0960925322795220251110133655" /> <g id="Icbcfb7a344d543c1bdf420990f798b0320251110133655"> <path id="I74e99e130da94ca08b8250e9637fd44b20251110133655" d="m 11.25,20.625 c 0,-5.176 4.199,-9.375 9.375,-9.375 h 33.75 c 5.176,0 9.375,4.199 9.375,9.375 v 33.75 c 0,5.176 -4.199,9.375 -9.375,9.375 h -33.75 c -5.176,0 -9.375,-4.199 -9.375,-9.375 z M 20.625,15 C 17.52,15 15,17.52 15,20.625 V 22.5 H 60 V 20.625 C 60,17.52 57.48,15 54.375,15 Z M 60,26.25 H 26.25 V 60 H 54.375 C 57.48,60 60,57.48 60,54.375 Z M 22.5,60 V 26.25 H 15 V 54.375 C 15,57.48 17.52,60 20.625,60 Z" style="fill:currentColor;fill-opacity:1;fill-rule:nonzero;stroke:none" transform="scale(1.3333333)" /> </g>
</svg>

