<?xml version="1.0" encoding="UTF-8" standalone="no"?> <svg version="1.1" id="I72c32c02f91e4ba1b90153c47201f65420251110133655" width="100" height="100" viewBox="0 0 100 100" xmlns="http://www.w3.org/2000/svg" xmlns:svg="http://www.w3.org/2000/svg"> <defs id="I033ff426ecad49e0b0579c97a450aafc20251110133655" /> <g id="Ic97b2b9ac9114af5b71fc28f5e9b6eb720251110133655"> <path id="I6d27e7ad4731420eabfc024b28728d5520251110133655" d="m 17.652,23.082 c 1.231,0.949 1.461,2.715 0.516,3.945 L 10.109,37.5 18.168,47.973 c 0.945,1.23 0.715,2.996 -0.516,3.945 -1.23,0.945 -2.996,0.715 -3.945,-0.516 L 4.332,39.215 c -0.777,-1.012 -0.777,-2.418 0,-3.43 l 9.375,-12.187 c 0.949,-1.231 2.715,-1.461 3.945,-0.516 z m 39.18,24.891 c -0.945,1.23 -0.715,2.996 0.516,3.945 1.23,0.945 2.996,0.715 3.945,-0.516 l 9.375,-12.187 c 0.777,-1.012 0.777,-2.418 0,-3.43 L 61.293,23.598 c -0.949,-1.231 -2.715,-1.461 -3.945,-0.516 -1.231,0.949 -1.461,2.715 -0.516,3.945 L 64.891,37.5 Z M 22.5,41.25 c 2.07,0 3.75,-1.68 3.75,-3.75 0,-2.07 -1.68,-3.75 -3.75,-3.75 -2.07,0 -3.75,1.68 -3.75,3.75 0,2.07 1.68,3.75 3.75,3.75 z M 41.25,37.5 c 0,2.07 -1.68,3.75 -3.75,3.75 -2.07,0 -3.75,-1.68 -3.75,-3.75 0,-2.07 1.68,-3.75 3.75,-3.75 2.07,0 3.75,1.68 3.75,3.75 z m 11.25,3.75 c 2.07,0 3.75,-1.68 3.75,-3.75 0,-2.07 -1.68,-3.75 -3.75,-3.75 -2.07,0 -3.75,1.68 -3.75,3.75 0,2.07 1.68,3.75 3.75,3.75 z" style="fill:currentColor;fill-opacity:1;fill-rule:nonzero;stroke:none" transform="scale(1.3333333)" /> </g>
</svg>

