<?xml version="1.0" encoding="UTF-8" standalone="no"?> <svg version="1.1" id="I8f90a869439b418c96e68b163f1d721720251106123559" width="100" height="100" viewBox="0 0 100 100" xmlns="http://www.w3.org/2000/svg" xmlns:svg="http://www.w3.org/2000/svg"> <defs id="I5d0e3100e70f4e8a995de08bd0edd32720251106123559" /> <g id="I64b225dfc90d4ce6885e9ac7abffda4c20251106123559"> <path id="I2c07ba553f8d41409a43ed64e81a044920251106123559" d="m 8.035,7.367 c 0,-1.109 0.899,-2.012 2.008,-2.012 1.109,0 2.012,0.903 2.012,2.012 v 60.266 c 0,1.109 -0.903,2.012 -2.012,2.012 -1.109,0 -2.008,-0.903 -2.008,-2.012 z m 15.403,6.028 c -4.067,0 -7.368,3.296 -7.368,7.363 v 6.699 c 0,4.066 3.301,7.363 7.368,7.363 h 36.16 c 4.07,0 7.367,-3.297 7.367,-7.363 v -6.699 c 0,-4.067 -3.297,-7.363 -7.367,-7.363 z m -3.348,7.363 c 0,-1.848 1.5,-3.348 3.348,-3.348 h 36.16 c 1.851,0 3.347,1.5 3.347,3.348 v 6.699 c 0,1.848 -1.496,3.348 -3.347,3.348 h -36.16 c -1.848,0 -3.348,-1.5 -3.348,-3.348 z m 3.348,19.422 c -4.067,0 -7.368,3.297 -7.368,7.363 v 6.699 c 0,4.067 3.301,7.363 7.368,7.363 h 21.429 c 4.067,0 7.363,-3.296 7.363,-7.363 v -6.699 c 0,-4.066 -3.296,-7.363 -7.363,-7.363 z m -3.348,7.363 c 0,-1.848 1.5,-3.348 3.348,-3.348 h 21.429 c 1.848,0 3.348,1.5 3.348,3.348 v 6.699 c 0,1.848 -1.5,3.348 -3.348,3.348 H 23.438 c -1.848,0 -3.348,-1.5 -3.348,-3.348 z" style="fill:currentColor;fill-opacity:1;fill-rule:nonzero;stroke:none" transform="scale(1.3333333)" /> </g>
</svg>

