<?xml version="1.0" encoding="UTF-8" standalone="no"?> <svg version="1.1" id="I293513ebbe7d4a4ba25d459053df48a920251106123559" width="100" height="100" viewBox="0 0 100 100" xmlns="http://www.w3.org/2000/svg" xmlns:svg="http://www.w3.org/2000/svg"> <defs id="I9d972f72407c4a198d51433c9284d62220251106123559" /> <g id="I703c6f863a6a4f9282d6f8e67e1a8f8720251106123559"> <path id="I19d5371d30ec454ab59eaf055921444320251106123559" d="m 66.965,7.367 c 0,-1.109 -0.899,-2.012 -2.008,-2.012 -1.109,0 -2.012,0.903 -2.012,2.012 v 60.266 c 0,1.109 0.903,2.012 2.012,2.012 1.109,0 2.008,-0.903 2.008,-2.012 z m -15.403,6.028 c 4.067,0 7.368,3.296 7.368,7.363 v 6.699 c 0,4.066 -3.301,7.363 -7.368,7.363 h -36.16 c -4.07,0 -7.367,-3.297 -7.367,-7.363 v -6.699 c 0,-4.067 3.297,-7.363 7.367,-7.363 z m 0,26.785 c 4.067,0 7.368,3.297 7.368,7.363 v 6.699 c 0,4.067 -3.301,7.363 -7.368,7.363 H 30.133 c -4.067,0 -7.363,-3.296 -7.363,-7.363 v -6.699 c 0,-4.066 3.296,-7.363 7.363,-7.363 z" style="fill:currentColor;fill-opacity:1;fill-rule:nonzero;stroke:none" transform="scale(1.3333333)" /> </g>
</svg>

