<?xml version="1.0" encoding="UTF-8" standalone="no"?> <svg version="1.1" id="Id1dc3d1fa69046388ea593a10d31fe0620251110133655" width="100" height="100" viewBox="0 0 100 100" xmlns="http://www.w3.org/2000/svg" xmlns:svg="http://www.w3.org/2000/svg"> <defs id="If488a846f8b94e3f8002b8853197d25120251110133655" /> <g id="If4fbb93db2ef481baf4e8216960297d520251110133655"> <path id="I6b9e9bdccb9e4b8a89e5de2dd4ae33aa20251110133655" d="m 21.094,21.094 c -1.293,0 -2.344,1.051 -2.344,2.344 0,1.292 1.051,2.343 2.344,2.343 h 32.812 c 1.293,0 2.344,-1.051 2.344,-2.343 0,-1.293 -1.051,-2.344 -2.344,-2.344 z M 19.531,9.375 c -5.609,0 -10.156,4.547 -10.156,10.156 v 35.938 c 0,5.609 4.547,10.156 10.156,10.156 h 35.938 c 5.609,0 10.156,-4.547 10.156,-10.156 V 19.531 c 0,-5.609 -4.547,-10.156 -10.156,-10.156 z m -5.469,10.156 c 0,-3.019 2.45,-5.469 5.469,-5.469 h 35.938 c 3.019,0 5.469,2.45 5.469,5.469 v 35.938 c 0,3.019 -2.45,5.469 -5.469,5.469 H 19.531 c -3.019,0 -5.469,-2.45 -5.469,-5.469 z" style="fill:currentColor;fill-opacity:1;fill-rule:nonzero;stroke:none" transform="scale(1.3333333)" /> </g>
</svg>

