<?xml version="1.0" encoding="UTF-8" standalone="no"?> <svg version="1.1" id="I812cdacb17ee4869916004e3fa842b0620251106163938" width="100" height="100" viewBox="0 0 100 100" xmlns="http://www.w3.org/2000/svg" xmlns:svg="http://www.w3.org/2000/svg"> <defs id="Ib907666ab820424c870cf0187aa08e6220251106163938" /> <g id="Ied7abbc1fcb14bbf968c2bff580ec66d20251106163938"> <path id="I1da9f16eee5b450e897624b22d09a4c620251106163938" d="M 18.559,21.875 6.938,10.25 C 6.02,9.336 6.02,7.852 6.938,6.938 7.852,6.02 9.336,6.02 10.25,6.938 L 68.062,64.75 c 0.915,0.914 0.915,2.398 0,3.312 -0.914,0.918 -2.398,0.918 -3.312,0 L 45.113,48.43 26.828,67.301 c -3.293,3.398 -8.976,0.332 -7.941,-4.285 l 3.968,-17.715 -4.902,-0.02 C 14.18,45.27 11.555,41.531 12.82,37.98 Z m 23.238,23.238 -19.57,-19.57 -4.989,14.008 c -0.183,0.508 0.192,1.043 0.731,1.043 l 7.816,0.031 c 0.711,0.004 1.383,0.328 1.824,0.883 0.446,0.554 0.61,1.281 0.457,1.972 l -4.605,20.559 z m 14.945,-15.425 -8.422,8.691 3.317,3.316 9.758,-10.07 C 63.793,29.145 62.039,25 58.59,25 H 46.219 L 50.754,11.391 C 51.598,8.863 49.715,6.25 47.047,6.25 H 26.879 c -1.652,0 -3.125,1.039 -3.68,2.594 l -1.156,3.254 3.668,3.672 1.719,-4.832 h 18.535 l -5.223,15.664 c -0.238,0.714 -0.117,1.5 0.32,2.113 0.442,0.609 1.149,0.973 1.903,0.973 z" style="fill:currentColor;fill-opacity:1;fill-rule:nonzero;stroke:none" transform="scale(1.3333333)" /> </g>
</svg>

