<?xml version="1.0" encoding="UTF-8" standalone="no"?> <svg version="1.1" id="I03ad6a8499e242269e175c0f101fe78420251110130508" width="100" height="100" viewBox="0 0 100 100" xmlns="http://www.w3.org/2000/svg" xmlns:svg="http://www.w3.org/2000/svg"> <defs id="Ic3e67d1c268a4293858cc6564d3b261920251110130508" /> <g id="Idcd30a3b556b484eb68325819d36611120251110130508"> <path id="Ie8e60174f36f4845bcaab4ef8b9b240120251110130508" d="m 29.688,18.281 c 0.886,0 1.699,0.5 2.097,1.297 l 2.563,5.125 5.004,0.629 c 0.929,0.113 1.699,0.77 1.96,1.664 0.262,0.899 -0.031,1.863 -0.75,2.461 l -3.589,2.992 1.254,5.637 c 0.203,0.922 -0.165,1.875 -0.938,2.422 -0.769,0.547 -1.793,0.574 -2.594,0.074 l -5.007,-3.129 -5.008,3.129 c -0.801,0.5 -1.825,0.473 -2.594,-0.074 -0.774,-0.547 -1.141,-1.5 -0.938,-2.422 l 1.254,-5.637 -3.59,-2.992 c -0.718,-0.598 -1.011,-1.562 -0.75,-2.461 0.262,-0.894 1.032,-1.551 1.961,-1.664 l 5.004,-0.629 2.563,-5.125 c 0.398,-0.797 1.211,-1.297 2.098,-1.297 z M 12.5,12.5 h 34.375 c 3.453,0 6.25,2.797 6.25,6.25 v 21.875 c 0,3.453 -2.797,6.25 -6.25,6.25 H 12.5 c -3.453,0 -6.25,-2.797 -6.25,-6.25 V 18.75 c 0,-3.453 2.797,-6.25 6.25,-6.25 z m 34.375,4.688 H 12.5 c -0.863,0 -1.562,0.699 -1.562,1.562 v 21.875 c 0,0.863 0.699,1.563 1.562,1.563 h 34.375 c 0.863,0 1.563,-0.7 1.563,-1.563 V 18.75 c 0,-0.863 -0.7,-1.562 -1.563,-1.562 z M 14.258,50 c 0.695,2.695 3.14,4.688 6.054,4.688 h 28.126 c 6.902,0 12.5,-5.598 12.5,-12.5 V 26.562 c 0,-2.914 -1.993,-5.359 -4.688,-6.054 v 21.68 C 56.25,46.504 52.754,50 48.438,50 Z m 7.812,7.812 c 0.696,2.696 3.141,4.688 6.055,4.688 h 22.656 c 9.922,0 17.969,-8.047 17.969,-17.969 V 34.375 c 0,-2.914 -1.992,-5.359 -4.688,-6.055 v 16.211 c 0,7.336 -5.945,13.281 -13.281,13.281 z" style="fill:currentColor;fill-opacity:1;fill-rule:nonzero;stroke:none" transform="scale(1.3333333)" /> </g>
</svg>

