<?xml version="1.0" encoding="UTF-8" standalone="no"?> <svg version="1.1" id="I7dfdaf7cad274990852db1ee2e84377d20251106163937" width="100" height="100" viewBox="0 0 100 100" xmlns="http://www.w3.org/2000/svg" xmlns:svg="http://www.w3.org/2000/svg"> <defs id="I0cac24d18b344690930e5ad262a880a120251106163937" /> <g id="I3ed3ab4c795347ca887f20f74f0b447220251106163937"> <path id="Iaf39734ffcb9418194e24925f37a8f8320251106163937" d="m 25.773,6.25 c 1.293,0 2.344,1.051 2.344,2.344 0,1.187 -0.883,2.168 -2.027,2.324 l -0.317,0.02 H 14.836 c -2.024,0 -3.688,1.535 -3.887,3.507 l -0.019,0.399 v 10.945 c 0,1.293 -1.051,2.344 -2.344,2.344 -1.188,0 -2.168,-0.883 -2.324,-2.028 L 6.242,25.789 V 14.844 c 0,-4.571 3.567,-8.309 8.07,-8.578 L 14.836,6.25 Z M 10.906,48.902 C 10.75,47.758 9.77,46.875 8.586,46.875 c -1.188,0 -2.168,0.883 -2.324,2.027 l -0.02,0.317 v 10.945 l 0.016,0.543 c 0.269,4.32 3.73,7.773 8.054,8.035 l 0.524,0.016 h 10.937 l 0.317,-0.024 c 1.144,-0.152 2.027,-1.132 2.027,-2.32 0,-1.187 -0.883,-2.168 -2.027,-2.324 L 25.773,64.07 H 14.836 L 14.434,64.051 C 12.598,63.863 11.137,62.402 10.949,60.562 L 10.93,60.164 V 49.219 Z m 57.813,0 c -0.157,-1.144 -1.137,-2.027 -2.321,-2.027 -1.296,0 -2.343,1.051 -2.343,2.344 v 10.945 l -0.024,0.398 c -0.199,1.969 -1.863,3.508 -3.883,3.508 H 49.211 l -0.32,0.02 c -1.145,0.156 -2.024,1.137 -2.024,2.324 0,1.293 1.047,2.344 2.344,2.344 h 10.937 l 0.524,-0.016 c 4.5,-0.269 8.07,-4.008 8.07,-8.578 V 49.219 Z M 60.672,6.266 60.148,6.25 H 49.211 l -0.32,0.02 c -1.145,0.156 -2.024,1.136 -2.024,2.324 0,1.187 0.879,2.168 2.024,2.324 l 0.32,0.02 h 10.937 l 0.399,0.019 c 1.84,0.188 3.301,1.648 3.484,3.488 l 0.024,0.399 v 10.945 l 0.019,0.316 c 0.156,1.145 1.137,2.028 2.324,2.028 1.184,0 2.164,-0.883 2.321,-2.028 l 0.023,-0.316 V 14.844 L 68.723,14.301 C 68.453,9.98 64.992,6.527 60.672,6.266 Z m -41.289,30.496 0.023,-0.063 c 0.028,-0.066 0.074,-0.172 0.141,-0.312 0.129,-0.282 0.34,-0.703 0.641,-1.223 0.605,-1.035 1.562,-2.426 2.953,-3.82 2.75,-2.746 7.254,-5.563 14.359,-5.563 7.105,0 11.609,2.817 14.359,5.563 1.391,1.394 2.348,2.785 2.953,3.82 0.301,0.52 0.512,0.941 0.641,1.223 0.067,0.14 0.141,0.312 0.141,0.312 l 0.023,0.063 c 0.469,1.187 1.813,1.824 3.02,1.371 1.211,-0.457 1.824,-1.805 1.371,-3.02 L 60.004,35.109 V 35.102 L 59.996,35.086 59.977,35.039 C 59.965,35.004 59.945,34.953 59.918,34.895 59.871,34.777 59.801,34.613 59.707,34.414 59.52,34.012 59.242,33.457 58.859,32.805 58.098,31.496 56.906,29.762 55.172,28.031 51.672,24.527 46.02,21.094 37.5,21.094 c -8.52,0 -14.172,3.433 -17.672,6.937 -1.734,1.731 -2.926,3.465 -3.687,4.774 -0.383,0.652 -0.661,1.207 -0.848,1.609 -0.094,0.199 -0.164,0.363 -0.211,0.481 -0.027,0.058 -0.047,0.109 -0.059,0.144 l -0.019,0.047 c -0.008,0.019 -0.504,2.348 1.359,3.047 1.211,0.453 2.559,-0.156 3.016,-1.363 z M 37.5,31.25 c -6.039,0 -10.938,4.898 -10.938,10.938 0,6.039 4.899,10.937 10.938,10.937 6.039,0 10.938,-4.898 10.938,-10.937 0,-6.04 -4.899,-10.938 -10.938,-10.938 z m -6.25,10.938 c 0,-3.454 2.797,-6.25 6.25,-6.25 3.453,0 6.25,2.796 6.25,6.25 0,3.453 -2.797,6.25 -6.25,6.25 -3.453,0 -6.25,-2.797 -6.25,-6.25 z" style="fill:currentColor;fill-opacity:1;fill-rule:nonzero;stroke:none" transform="scale(1.3333333)" /> </g>
</svg>

