<?xml version="1.0" encoding="UTF-8" standalone="no"?> <svg version="1.1" id="Id0d78c3a70a948f7afb31e95a8528e7920251110124420" width="100" height="100" viewBox="0 0 100 100" xmlns="http://www.w3.org/2000/svg" xmlns:svg="http://www.w3.org/2000/svg"> <defs id="I3f7f645eb6d84187b4dd4b10ebaa00da20251110124420" /> <g id="I5f58bf32e0604e26b69f6700a68d5c8e20251110124420"> <path id="I738b1ca0a77044eab7cde13d52eeb6b620251110124420" d="m 21.094,9.375 h -3.125 c -4.746,0 -8.594,3.848 -8.594,8.594 v 39.062 c 0,4.746 3.848,8.594 8.594,8.594 h 0.781 v -18.75 c 0,-3.883 3.148,-7.031 7.031,-7.031 h 22.977 l 5.59,-5.586 c 2,-2.004 4.632,-3.008 7.254,-3.008 h 0.007 c 1.368,0 2.735,0.273 4.016,0.816 v -6.175 c 0,-2.692 -1.07,-5.274 -2.977,-7.18 L 56.289,12.352 C 54.41,10.473 51.871,9.406 49.219,9.375 v 14.063 c 0,3.882 -3.149,7.031 -7.031,7.031 H 28.125 c -3.883,0 -7.031,-3.149 -7.031,-7.031 z m 22.976,35.156 -8.168,8.172 c -1.476,1.477 -2.523,3.324 -3.031,5.348 l -1.43,5.722 c -0.156,0.629 -0.218,1.25 -0.195,1.852 h -7.808 v -18.75 c 0,-1.293 1.05,-2.344 2.343,-2.344 z M 44.531,9.375 v 14.063 c 0,1.292 -1.051,2.343 -2.343,2.343 H 28.125 c -1.293,0 -2.344,-1.051 -2.344,-2.343 V 9.375 Z m 17.078,25 h -0.007 c -1.825,0 -3.653,0.699 -5.047,2.094 L 38.109,54.914 c -1.074,1.074 -1.836,2.422 -2.207,3.898 l -1.429,5.719 c -0.621,2.489 1.632,4.742 4.121,4.121 l 5.718,-1.433 c 1.477,-0.367 2.825,-1.129 3.899,-2.207 L 66.656,46.57 c 2.789,-2.793 2.789,-7.312 0,-10.101 -1.394,-1.395 -3.218,-2.094 -5.047,-2.094 z" style="fill:currentColor;fill-opacity:1;fill-rule:nonzero;stroke:none" transform="scale(1.3333333)" /> </g>
</svg>

