<?xml version="1.0" encoding="UTF-8" standalone="no"?> <svg version="1.1" id="Ibcedbeafc27c4961a5c779e9423bc37720251106125937" width="100" height="100" viewBox="0 0 100 100" xmlns="http://www.w3.org/2000/svg" xmlns:svg="http://www.w3.org/2000/svg"> <defs id="I085d3e51c8a142fa92e3cb5d1163c08520251106125937" /> <g id="I8de0a5d297754bb6860a78999ad86c1420251106125937"> <path id="Iacd2df37a2ac40349faae003a9352efe20251106125937" d="m 48.133,17.492 c -0.785,-0.785 -0.785,-2.058 0,-2.84 0.785,-0.785 2.058,-0.785 2.84,0 l 15.402,15.403 c 0.785,0.781 0.785,2.054 0,2.84 L 50.973,48.297 c -0.782,0.781 -2.055,0.781 -2.84,0 -0.785,-0.785 -0.785,-2.059 0,-2.844 L 60.105,33.48 H 36.832 c -13.684,0 -24.777,11.094 -24.777,24.778 0,1.109 -0.903,2.012 -2.012,2.012 -1.109,0 -2.008,-0.903 -2.008,-2.012 0,-15.903 12.891,-28.793 28.797,-28.793 h 23.273 z" style="fill:currentColor;fill-opacity:1;fill-rule:nonzero;stroke:none" transform="scale(1.3333333)" /> </g>
</svg>

