<?xml version="1.0" encoding="UTF-8" standalone="no"?> <svg version="1.1" id="I8046a18da3c24ebda71d47290afd465720251106164749" width="100" height="100" viewBox="0 0 100 100" xmlns="http://www.w3.org/2000/svg" xmlns:svg="http://www.w3.org/2000/svg"> <defs id="Ibb167037bc744a43bcfe518090d23fd420251106164749" /> <g id="Ib62f8410a9984fe7b5c828078ef4f38320251106164749"> <path id="Icbede25662144e79a600ccfe8ede1c2620251106164749" d="m 8.035,18.082 c 0,-5.551 4.496,-10.047 10.047,-10.047 h 38.836 c 5.551,0 10.047,4.496 10.047,10.047 V 38.84 c -1.238,-0.93 -2.586,-1.719 -4.02,-2.348 v -18.41 c 0,-3.332 -2.699,-6.027 -6.027,-6.027 H 18.082 c -3.332,0 -6.027,2.695 -6.027,6.027 v 38.836 c 0,3.328 2.695,6.027 6.027,6.027 h 18.41 c 0.629,1.434 1.418,2.782 2.348,4.02 H 18.082 C 12.531,66.965 8.035,62.469 8.035,56.918 Z M 56.918,34.82 c 1.109,0 2.012,-0.898 2.012,-2.008 0,-1.109 -0.903,-2.007 -2.012,-2.007 H 36.832 c -1.109,0 -2.012,0.898 -2.012,2.007 0,1.11 0.903,2.008 2.012,2.008 z M 16.07,19.418 c 0,-1.109 0.903,-2.008 2.012,-2.008 h 38.836 c 1.109,0 2.012,0.899 2.012,2.008 0,1.109 -0.903,2.012 -2.012,2.012 H 18.082 c -1.109,0 -2.012,-0.903 -2.012,-2.012 z m 6.7,7.367 c -3.7,0 -6.7,3 -6.7,6.695 0,3.7 3,6.7 6.7,6.7 3.695,0 6.695,-3 6.695,-6.7 0,-3.695 -3,-6.695 -6.695,-6.695 z m -2.68,6.695 c 0,-1.476 1.199,-2.675 2.68,-2.675 1.476,0 2.675,1.199 2.675,2.675 0,1.481 -1.199,2.68 -2.675,2.68 -1.481,0 -2.68,-1.199 -2.68,-2.68 z m -4.02,18.75 c 0,-3.695 3,-6.695 6.7,-6.695 3.695,0 6.695,3 6.695,6.695 0,3.7 -3,6.7 -6.695,6.7 -3.7,0 -6.7,-3 -6.7,-6.7 z m 6.7,-2.675 c -1.481,0 -2.68,1.199 -2.68,2.675 0,1.481 1.199,2.68 2.68,2.68 1.476,0 2.675,-1.199 2.675,-2.68 0,-1.476 -1.199,-2.675 -2.675,-2.675 z m 49.55,5.355 c 0,9.617 -7.793,17.41 -17.41,17.41 -9.617,0 -17.41,-7.793 -17.41,-17.41 0,-9.617 7.793,-17.41 17.41,-17.41 9.617,0 17.41,7.793 17.41,17.41 z M 56.25,44.195 c 0,-0.738 -0.602,-1.34 -1.34,-1.34 -0.738,0 -1.34,0.602 -1.34,1.34 v 9.375 h -9.375 c -0.738,0 -1.34,0.602 -1.34,1.34 0,0.738 0.602,1.34 1.34,1.34 h 9.375 v 9.375 c 0,0.738 0.602,1.34 1.34,1.34 0.738,0 1.34,-0.602 1.34,-1.34 V 56.25 h 9.375 c 0.738,0 1.34,-0.602 1.34,-1.34 0,-0.738 -0.602,-1.34 -1.34,-1.34 H 56.25 Z" style="fill:currentColor;fill-opacity:1;fill-rule:nonzero;stroke:none" transform="scale(1.3333333)" /> </g>
</svg>

