<?xml version="1.0" encoding="UTF-8" standalone="no"?> <svg version="1.1" id="I16b2cc43b6ac41dc83e5c0093a1e5e9520251106103256" width="100" height="100" viewBox="0 0 100 100" xmlns="http://www.w3.org/2000/svg" xmlns:svg="http://www.w3.org/2000/svg"> <defs id="I09db63ff0ba243fc84f2752c2acd474420251106103256" /> <g id="Id04e20ada1ef4bdeb49d9964178290b420251106103256"> <path id="I8b066f4425254ed3981cddf908fc4f6320251106103256" d="M 74.332,45.871 C 74.699,45.871 75,45.57 75,45.199 v -4.687 c 0,-0.367 -0.301,-0.668 -0.668,-0.668 H 19.586 c -1.227,-3.035 -4.172,-5.024 -7.449,-5.024 -4.438,0 -8.035,3.602 -8.035,8.035 0,4.438 3.597,8.04 8.035,8.04 3.375,0 6.261,-2.079 7.449,-5.024 h 12.582 v 12.723 c 0,4.621 3.75,8.371 8.371,8.371 h 33.793 c 0.367,0 0.668,-0.301 0.668,-0.672 v -4.688 c 0,-0.367 -0.301,-0.667 -0.668,-0.667 H 40.539 c -1.297,0 -2.344,-1.047 -2.344,-2.344 V 45.871 Z M 32.453,20.902 46.891,32.301 c 0.527,0.429 1.324,0.043 1.324,-0.645 v -8.218 h 22.097 c 0.368,0 0.668,-0.301 0.668,-0.668 v -5.024 c 0,-0.367 -0.3,-0.672 -0.668,-0.672 H 48.215 V 8.855 c 0,-0.675 -0.789,-1.07 -1.324,-0.644 L 32.453,19.613 c -0.41,0.332 -0.41,0.957 0,1.289 z" style="fill:currentColor;fill-opacity:1;fill-rule:nonzero;stroke:none" transform="scale(1.3333333)" /> </g>
</svg>

