<?xml version="1.0" encoding="UTF-8" standalone="no"?> <svg version="1.1" id="I660c6cb396514d9eb4dd9a740a7ba2d720251106144521" width="100" height="100" viewBox="0 0 100 100" xmlns="http://www.w3.org/2000/svg" xmlns:svg="http://www.w3.org/2000/svg"> <defs id="I7cde5b2192c34e06bbf48a1eae85d06520251106144521" /> <g id="Id8f9279017814e6ab9231397fd0f4bf120251106144521"> <path id="I78268d0d99474db2baba37af3d6eb32420251106144521" d="M 34.203,4.43 C 32.961,3.91 31.695,3.512 30.422,3.227 29.34,2.98 28.266,3.66 28.02,4.746 c -0.243,1.082 0.437,2.156 1.519,2.399 1.047,0.234 2.09,0.566 3.117,0.992 1.032,0.429 1.996,0.937 2.903,1.515 0.933,0.598 2.175,0.325 2.773,-0.613 C 38.93,8.105 38.656,6.863 37.723,6.266 36.621,5.562 35.445,4.949 34.203,4.43 Z M 21.43,7.129 C 22.512,6.891 23.195,5.82 22.957,4.734 22.719,3.652 21.648,2.969 20.562,3.207 c -2.589,0.57 -5.066,1.59 -7.308,3.008 -0.938,0.594 -1.215,1.836 -0.625,2.773 0.594,0.938 1.836,1.215 2.773,0.625 1.848,-1.172 3.891,-2.011 6.028,-2.484 z m 23.246,6.125 c -0.594,-0.938 -1.832,-1.219 -2.77,-0.625 -0.937,0.594 -1.218,1.836 -0.625,2.773 1.172,1.848 2.012,3.891 2.481,6.024 0.008,0.035 0.015,0.066 0.023,0.097 l 0.004,0.02 c 0.215,1.016 0.348,2.062 0.391,3.133 1.3,-0.281 2.636,-0.461 4,-0.531 -0.067,-1.168 -0.223,-2.317 -0.457,-3.43 -0.008,-0.039 -0.016,-0.074 -0.028,-0.113 l -0.007,-0.04 c -0.571,-2.589 -1.59,-5.066 -3.012,-7.308 z M 21.547,43.789 c 1.012,0.215 2.058,0.348 3.129,0.391 -0.278,1.3 -0.457,2.632 -0.531,3.996 -1.168,-0.063 -2.313,-0.219 -3.43,-0.453 -0.043,-0.012 -0.086,-0.02 -0.129,-0.032 -0.039,-0.007 -0.074,-0.015 -0.113,-0.023 -1.274,-0.285 -2.539,-0.688 -3.782,-1.203 -1.242,-0.52 -2.418,-1.137 -3.519,-1.84 -0.934,-0.594 -1.207,-1.836 -0.61,-2.773 0.594,-0.934 1.836,-1.207 2.774,-0.61 0.902,0.574 1.871,1.086 2.898,1.512 1.032,0.43 2.071,0.758 3.121,0.992 0.032,0.008 0.067,0.02 0.102,0.027 0.027,0.004 0.059,0.012 0.09,0.016 z M 9.652,15.336 c 0.598,-0.938 0.325,-2.18 -0.613,-2.777 -0.934,-0.594 -2.176,-0.321 -2.773,0.613 -0.7,1.101 -1.317,2.273 -1.836,3.519 -0.516,1.243 -0.918,2.508 -1.203,3.782 -0.247,1.082 0.437,2.156 1.519,2.398 1.082,0.246 2.156,-0.433 2.399,-1.519 0.238,-1.047 0.566,-2.09 0.996,-3.118 0.425,-1.027 0.933,-1.996 1.511,-2.898 z M 7.133,29.465 C 6.891,28.383 5.82,27.695 4.738,27.938 c -1.086,0.238 -1.769,1.308 -1.531,2.394 0.57,2.59 1.59,5.066 3.012,7.309 0.593,0.937 1.832,1.214 2.769,0.621 0.938,-0.594 1.219,-1.832 0.625,-2.77 -1.172,-1.847 -2.011,-3.89 -2.48,-6.027 z m 42.422,-2.68 c -12.575,0 -22.77,10.195 -22.77,22.77 0,12.574 10.195,22.765 22.77,22.765 12.574,0 22.765,-10.191 22.765,-22.765 0,-12.575 -10.191,-22.77 -22.765,-22.77 z m 11.465,15.32 c 0.785,0.786 0.785,2.059 0,2.84 L 48.297,57.672 c -0.785,0.781 -2.059,0.781 -2.844,0 L 38.09,50.305 c -0.785,-0.785 -0.785,-2.059 0,-2.84 0.781,-0.785 2.055,-0.785 2.84,0 L 46.875,53.41 58.18,42.105 c 0.781,-0.785 2.054,-0.785 2.84,0 z" style="fill:currentColor;fill-opacity:1;fill-rule:nonzero;stroke:none" transform="scale(1.3333333)" /> </g>
</svg>

