<?xml version="1.0" encoding="UTF-8" standalone="no"?> <svg version="1.1" id="I02e174adea6f4f71b0fb265df2efb89320251110124422" width="100" height="100" viewBox="0 0 100 100" xmlns="http://www.w3.org/2000/svg" xmlns:svg="http://www.w3.org/2000/svg"> <defs id="Ia4e5ce4dbe934270b667dc404b663fcf20251110124422" /> <g id="Icae1b25382434b648c974d51081a0aa020251110124422"> <path id="Id194cf10d423457281acd1e5b3ae101420251110124422" d="m 28.012,10.938 h -1.45 v 6.25 h 1.45 c 1.297,0 2.343,1.05 2.343,2.343 0,1.293 -1.046,2.344 -2.343,2.344 h -2.231 c -2.156,0 -3.906,-1.75 -3.906,-3.906 V 10.156 C 21.875,8 23.625,6.25 25.781,6.25 h 2.231 c 1.297,0 2.343,1.051 2.343,2.344 0,1.293 -1.046,2.344 -2.343,2.344 z M 35.938,6.25 c -1.293,0 -2.344,1.051 -2.344,2.344 0,1.293 1.051,2.344 2.344,2.344 h 3.124 c 1.293,0 2.344,-1.051 2.344,-2.344 0,-1.293 -1.051,-2.344 -2.344,-2.344 z m 11.05,0 c -1.297,0 -2.343,1.051 -2.343,2.344 0,1.293 1.046,2.344 2.343,2.344 h 1.45 v 6.25 h -1.45 c -1.297,0 -2.343,1.05 -2.343,2.343 0,1.293 1.046,2.344 2.343,2.344 h 2.231 c 2.156,0 3.906,-1.75 3.906,-3.906 V 10.156 C 53.125,8 51.375,6.25 49.219,6.25 Z m -11.05,10.938 c -1.293,0 -2.344,1.05 -2.344,2.343 0,1.293 1.051,2.344 2.344,2.344 h 3.124 c 1.293,0 2.344,-1.051 2.344,-2.344 0,-1.293 -1.051,-2.343 -2.344,-2.343 z M 17.188,27.344 C 17.188,26.051 16.137,25 14.844,25 13.551,25 12.5,26.051 12.5,27.344 v 31.25 c 0,5.609 4.547,10.156 10.156,10.156 H 52.344 C 57.953,68.75 62.5,64.203 62.5,58.594 V 27.344 C 62.5,26.051 61.449,25 60.156,25 c -1.293,0 -2.344,1.051 -2.344,2.344 v 31.25 c 0,3.019 -2.449,5.468 -5.468,5.468 H 22.656 c -3.019,0 -5.468,-2.449 -5.468,-5.468 z m 8.593,16.406 c -2.156,0 -3.906,1.75 -3.906,3.906 v 7.813 c 0,2.156 1.75,3.906 3.906,3.906 h 23.438 c 2.156,0 3.906,-1.75 3.906,-3.906 v -7.813 c 0,-2.156 -1.75,-3.906 -3.906,-3.906 z m 0.781,10.938 v -6.25 h 21.876 v 6.25 z m 0,-25 h 1.45 c 1.297,0 2.343,-1.051 2.343,-2.344 C 30.355,26.051 29.309,25 28.012,25 h -2.231 c -2.156,0 -3.906,1.75 -3.906,3.906 v 7.813 c 0,2.156 1.75,3.906 3.906,3.906 h 2.231 c 1.297,0 2.343,-1.051 2.343,-2.344 0,-1.293 -1.046,-2.343 -2.343,-2.343 h -1.45 z m 7.032,-2.344 C 33.594,26.051 34.645,25 35.938,25 h 3.124 c 1.293,0 2.344,1.051 2.344,2.344 0,1.293 -1.051,2.344 -2.344,2.344 h -3.124 c -1.293,0 -2.344,-1.051 -2.344,-2.344 z m 11.051,0 C 44.645,26.051 45.691,25 46.988,25 h 2.231 c 2.156,0 3.906,1.75 3.906,3.906 v 7.813 c 0,2.156 -1.75,3.906 -3.906,3.906 h -2.231 c -1.297,0 -2.343,-1.051 -2.343,-2.344 0,-1.293 1.046,-2.343 2.343,-2.343 h 1.45 v -6.25 h -1.45 c -1.297,0 -2.343,-1.051 -2.343,-2.344 z M 33.594,38.281 c 0,-1.293 1.051,-2.343 2.344,-2.343 h 3.124 c 1.293,0 2.344,1.05 2.344,2.343 0,1.293 -1.051,2.344 -2.344,2.344 h -3.124 c -1.293,0 -2.344,-1.051 -2.344,-2.344 z" style="fill:currentColor;fill-opacity:1;fill-rule:nonzero;stroke:none" transform="scale(1.3333333)" /> </g>
</svg>

