<?xml version="1.0" encoding="UTF-8" standalone="no"?> <svg version="1.1" id="I043747c7a5914eabb65c8414066eaad820251106154011" width="100" height="100" viewBox="0 0 100 100" xmlns="http://www.w3.org/2000/svg" xmlns:svg="http://www.w3.org/2000/svg"> <defs id="Id3d125fe679c441c9dd4aefb4e59593320251106154011" /> <g id="I8ba65f42fab44017bfd638b92b99996c20251106154011"> <path id="Ic9f3324f038a42e0b4e50ca46dcbc19420251106154011" d="m 57.035,9.375 c -3.883,0 -7.027,3.148 -7.027,7.027 v 42.196 c 0,3.879 3.144,7.027 7.027,7.027 3.883,0 7.027,-3.148 7.027,-7.027 V 16.402 c 0,-3.879 -3.144,-7.027 -7.027,-7.027 z m -20.312,12.5 c -3.883,0 -7.028,3.148 -7.028,7.027 v 29.696 c 0,3.879 3.145,7.027 7.028,7.027 3.882,0 7.027,-3.148 7.027,-7.027 V 28.902 c 0,-3.879 -3.145,-7.027 -7.027,-7.027 z m -20.313,12.5 c -3.883,0 -7.027,3.148 -7.027,7.027 v 17.196 c 0,3.879 3.144,7.027 7.027,7.027 3.883,0 7.028,-3.148 7.028,-7.027 V 41.402 c 0,-3.879 -3.145,-7.027 -7.028,-7.027 z" style="fill:currentColor;fill-opacity:1;fill-rule:nonzero;stroke:none" transform="scale(1.3333333)" /> </g>
</svg>

