<?xml version="1.0" encoding="UTF-8" standalone="no"?> <svg version="1.1" id="Ic63ac43984924a3b8fc758cbd2ebac4020251110133655" width="100" height="100" viewBox="0 0 100 100" xmlns="http://www.w3.org/2000/svg" xmlns:svg="http://www.w3.org/2000/svg"> <defs id="I76bbf64b2c334e5399a01d3af3bf8f1120251110133655" /> <g id="I852467fd315f479bae70648d6e99e8d120251110133655"> <path id="Ia420bf2c2f33421588d3a1c513946e5220251110133655" d="m 37.5,4.688 c 1.293,0 2.344,1.05 2.344,2.343 v 11.918 l 7.718,-7.715 c 0.915,-0.918 2.399,-0.918 3.313,0 0.918,0.914 0.918,2.399 0,3.313 L 39.844,25.582 v 9.574 h 9.574 L 60.453,24.125 c 0.914,-0.918 2.399,-0.918 3.313,0 0.918,0.914 0.918,2.398 0,3.313 l -7.715,7.718 h 11.918 c 1.293,0 2.343,1.051 2.343,2.344 0,1.293 -1.05,2.344 -2.343,2.344 H 56.051 l 7.715,7.718 c 0.918,0.915 0.918,2.399 0,3.313 -0.914,0.918 -2.399,0.918 -3.313,0 L 49.418,39.844 h -9.574 v 9.574 l 11.031,11.035 c 0.918,0.914 0.918,2.399 0,3.313 -0.914,0.918 -2.398,0.918 -3.313,0 l -7.718,-7.715 v 11.918 c 0,1.293 -1.051,2.343 -2.344,2.343 -1.293,0 -2.344,-1.05 -2.344,-2.343 V 56.051 l -7.718,7.715 c -0.915,0.918 -2.399,0.918 -3.313,0 -0.918,-0.914 -0.918,-2.399 0,-3.313 L 35.156,49.418 V 39.844 H 25.582 L 14.547,50.875 c -0.914,0.918 -2.399,0.918 -3.313,0 -0.918,-0.914 -0.918,-2.398 0,-3.313 l 7.715,-7.718 H 7.031 c -1.293,0 -2.343,-1.051 -2.343,-2.344 0,-1.293 1.05,-2.344 2.343,-2.344 h 11.918 l -7.715,-7.718 c -0.918,-0.915 -0.918,-2.399 0,-3.313 0.914,-0.918 2.399,-0.918 3.313,0 l 11.035,11.031 h 9.574 V 25.582 L 24.125,14.547 c -0.918,-0.914 -0.918,-2.399 0,-3.313 0.914,-0.918 2.398,-0.918 3.313,0 l 7.718,7.715 V 7.031 c 0,-1.293 1.051,-2.343 2.344,-2.343 z" style="fill:currentColor;fill-opacity:1;fill-rule:nonzero;stroke:none" transform="scale(1.3333333)" /> </g>
</svg>

