<?xml version="1.0" encoding="UTF-8" standalone="no"?> <svg version="1.1" id="I27b2a6398d3748b1b0503d1f5c1dfd3520251106163937" width="100" height="100" viewBox="0 0 100 100" xmlns="http://www.w3.org/2000/svg" xmlns:svg="http://www.w3.org/2000/svg"> <defs id="I82a6fa1607aa46c5b8cc3108a703b13220251106163937" /> <g id="Ib333771ed60f42b29d782ad127de37ae20251106163937"> <path id="If0017192221046f886e14ca47bf61dfa20251106163937" d="M 5.355,37.5 C 5.355,19.746 19.746,5.355 37.5,5.355 c 17.078,0 31.047,13.321 32.082,30.137 -3.191,-1.324 -7.008,-0.687 -9.602,1.906 l -8.152,8.157 c -0.726,-0.098 -1.48,0.211 -1.922,0.855 l -0.023,0.028 c -0.02,0.031 -0.063,0.085 -0.117,0.156 -0.114,0.148 -0.293,0.367 -0.543,0.64 -0.5,0.543 -1.266,1.286 -2.301,2.028 -2.055,1.48 -5.168,2.968 -9.422,2.968 -4.25,0 -7.367,-1.488 -9.422,-2.968 -1.035,-0.742 -1.801,-1.485 -2.301,-2.028 -0.246,-0.273 -0.429,-0.492 -0.543,-0.64 -0.054,-0.071 -0.097,-0.125 -0.117,-0.156 l -0.023,-0.032 c -0.625,-0.91 -1.871,-1.144 -2.785,-0.523 -0.918,0.625 -1.157,1.875 -0.532,2.793 v 0.004 l 0.012,0.011 0.02,0.028 c 0.015,0.023 0.035,0.051 0.058,0.082 0.047,0.066 0.117,0.156 0.203,0.269 0.172,0.219 0.422,0.524 0.746,0.879 0.653,0.711 1.622,1.645 2.914,2.574 2.598,1.868 6.516,3.727 11.77,3.727 1.438,0 2.773,-0.141 4.008,-0.379 l -2.696,2.695 c -1.265,1.266 -2.16,2.852 -2.597,4.586 l -1.223,4.903 c -0.125,0.504 -0.18,0.996 -0.172,1.476 C 18.32,68.172 5.355,54.348 5.355,37.5 Z m 41.52,-2.68 c 2.219,0 4.02,-1.797 4.02,-4.015 0,-2.219 -1.801,-4.02 -4.02,-4.02 -2.219,0 -4.02,1.801 -4.02,4.02 0,2.218 1.801,4.015 4.02,4.015 z m -14.73,-4.015 c 0,-2.219 -1.801,-4.02 -4.02,-4.02 -2.219,0 -4.02,1.801 -4.02,4.02 0,2.218 1.801,4.015 4.02,4.015 2.219,0 4.02,-1.797 4.02,-4.015 z m 29.73,8.488 -21.168,21.168 c -0.922,0.922 -1.574,2.078 -1.891,3.34 l -1.226,4.906 c -0.535,2.133 1.398,4.063 3.531,3.531 l 4.902,-1.226 c 1.266,-0.317 2.422,-0.973 3.344,-1.895 L 70.531,47.953 c 2.395,-2.391 2.395,-6.269 0,-8.66 -2.39,-2.391 -6.265,-2.391 -8.656,0 z" style="fill:currentColor;fill-opacity:1;fill-rule:nonzero;stroke:none" transform="scale(1.3333333)" /> </g>
</svg>

