<?xml version="1.0" encoding="UTF-8" standalone="no"?> <svg version="1.1" id="Ib2d4e0bdf90243cc8617f286ff95407120251106155156" width="100" height="100" viewBox="0 0 100 100" xmlns="http://www.w3.org/2000/svg" xmlns:svg="http://www.w3.org/2000/svg"> <defs id="If5ae17902b254fcf97a6e730f85c374c20251106155156" /> <g id="I6ce6ac058403468b8393c1d86fdcd7ad20251106155156"> <path id="Ibe54416541d54e5cbff3e10c05e0e5eb20251106155156" d="m 37.5,5.355 v 21.43 c 0,2.961 2.398,5.36 5.355,5.36 h 21.43 v 32.14 c 0,2.961 -2.398,5.36 -5.355,5.36 H 33.746 c 3.957,-3.672 6.434,-8.915 6.434,-14.735 0,-11.094 -8.996,-20.09 -20.09,-20.09 -3.387,0 -6.578,0.84 -9.375,2.317 V 10.715 c 0,-2.961 2.398,-5.36 5.355,-5.36 z m 4.02,1.34 v 20.09 c 0,0.738 0.597,1.34 1.335,1.34 h 20.09 z M 37.5,54.91 c 0,9.617 -7.793,17.41 -17.41,17.41 -9.617,0 -17.41,-7.793 -17.41,-17.41 0,-9.617 7.793,-17.41 17.41,-17.41 9.617,0 17.41,7.793 17.41,17.41 z M 21.43,44.195 c 0,-0.738 -0.602,-1.34 -1.34,-1.34 -0.738,0 -1.34,0.602 -1.34,1.34 V 53.57 H 9.375 c -0.738,0 -1.34,0.602 -1.34,1.34 0,0.738 0.602,1.34 1.34,1.34 h 9.375 v 9.375 c 0,0.738 0.602,1.34 1.34,1.34 0.738,0 1.34,-0.602 1.34,-1.34 V 56.25 h 9.375 c 0.738,0 1.34,-0.602 1.34,-1.34 0,-0.738 -0.602,-1.34 -1.34,-1.34 H 21.43 Z" style="fill:currentColor;fill-opacity:1;fill-rule:nonzero;stroke:none" transform="scale(1.3333333)" /> </g>
</svg>

