<?xml version="1.0" encoding="UTF-8" standalone="no"?> <svg version="1.1" id="Iff7aa01f88eb45a5ae8b35446d80662c20251106170956" width="100" height="100" viewBox="0 0 100 100" xmlns="http://www.w3.org/2000/svg" xmlns:svg="http://www.w3.org/2000/svg"> <defs id="I460040c7c2b441be8be23f4e238487c020251106170956" /> <g id="I7f9d967e7267455496a309cfaf64c06520251106170956"> <path id="If577c0a11fcb4d16a477e5ba8e38383d20251106170956" d="m 46.941,11.961 c -0.285,1.074 0.352,2.176 1.422,2.461 1.071,0.289 2.172,-0.348 2.461,-1.418 L 52.559,6.535 C 52.844,5.461 52.207,4.359 51.137,4.074 50.066,3.785 48.965,4.422 48.676,5.496 Z M 66.375,8.625 c 0.785,0.785 0.785,2.055 0,2.84 L 59.68,18.16 c -0.785,0.785 -2.059,0.785 -2.84,0 -0.785,-0.781 -0.785,-2.055 0,-2.84 l 6.695,-6.695 c 0.785,-0.785 2.055,-0.785 2.84,0 z M 60.27,26.121 c 0,-1.109 0.898,-2.008 2.007,-2.008 h 6.696 c 1.109,0 2.007,0.899 2.007,2.008 0,1.109 -0.898,2.012 -2.007,2.012 h -6.696 c -1.109,0 -2.007,-0.903 -2.007,-2.012 z M 38.164,69.645 c -4.621,0 -8.664,-2.465 -10.894,-6.149 l -5.383,2.692 c -2.836,1.417 -6.262,0.859 -8.504,-1.383 L 10.195,61.617 C 7.953,59.379 7.398,55.953 8.816,53.117 L 27.98,14.789 c 2.25,-4.5 8.243,-5.473 11.797,-1.914 l 22.352,22.352 c 3.555,3.554 2.582,9.546 -1.914,11.796 l -10.25,5.125 c 0.594,1.473 0.926,3.082 0.926,4.774 0,7.023 -5.7,12.723 -12.727,12.723 z m 8.188,-15.692 -15.469,7.735 c 1.555,2.371 4.234,3.937 7.281,3.937 4.809,0 8.707,-3.898 8.707,-8.703 0,-1.043 -0.183,-2.043 -0.519,-2.969 z" style="fill:currentColor;fill-opacity:1;fill-rule:nonzero;stroke:none" transform="scale(1.3333333)" /> </g>
</svg>

