<?xml version="1.0" encoding="UTF-8" standalone="no"?> <svg version="1.1" id="Ia47c66f7540244099721908caf8f8bdf20251106170411" width="100" height="100" viewBox="0 0 100 100" xmlns="http://www.w3.org/2000/svg" xmlns:svg="http://www.w3.org/2000/svg"> <defs id="I2822a49ab4604582b98ffb83eaa4689d20251106170411" /> <g id="Ie78bc306cc1b4757a164d0b93ed7db9d20251106170411"> <path id="I830fc7956b214b8787970f42846be30520251106170411" d="m 27.965,26.875 c 0,-11.297 9.176,-20.469 20.469,-20.469 11.242,0 20.468,8.809 20.468,20.156 0,11.293 -9.172,20.469 -20.468,20.469 -1.657,0 -3.293,-0.238 -4.844,-0.636 -0.078,2.089 -1.797,3.761 -3.906,3.761 h -5.469 v 5.469 c 0,2.156 -1.746,3.906 -3.906,3.906 H 24.84 v 3.907 c 0,3.019 -2.445,5.468 -5.469,5.468 h -7.812 c -3.02,0 -5.469,-2.449 -5.469,-5.468 v -6.786 c 0,-2.281 0.906,-4.464 2.519,-6.078 L 28.094,31.086 c 0.172,-0.168 0.273,-0.445 0.218,-0.762 -0.187,-1.074 -0.347,-2.238 -0.347,-3.449 z m 29.062,-5 c 0,-2.156 -1.746,-3.906 -3.906,-3.906 -2.156,0 -3.906,1.75 -3.906,3.906 0,2.156 1.75,3.906 3.906,3.906 2.16,0 3.906,-1.75 3.906,-3.906 z" style="fill:currentColor;fill-opacity:1;fill-rule:nonzero;stroke:none" transform="scale(1.3333333)" /> </g>
</svg>

