<?xml version="1.0" encoding="UTF-8" standalone="no"?> <svg version="1.1" id="I7981d05c240545c4851e73e3681b2f9420251106154012" width="100" height="100" viewBox="0 0 100 100" xmlns="http://www.w3.org/2000/svg" xmlns:svg="http://www.w3.org/2000/svg"> <defs id="I0eac18c19ba54505b0954785a5cbae5720251106154012" /> <g id="I74ded1ad124646329242e2a3373479cc20251106154012"> <path id="Idd664125d7684536a39be12dff7b7f1e20251106154012" d="m 68.758,14.848 c 0,4.75 -3.852,8.601 -8.602,8.601 H 14.848 c -4.75,0 -8.598,-3.851 -8.598,-8.601 0,-4.746 3.848,-8.598 8.598,-8.598 h 45.308 c 4.75,0 8.602,3.852 8.602,8.598 z m -6.25,21.879 c 0,4.746 -3.852,8.597 -8.602,8.597 H 21.098 c -4.75,0 -8.598,-3.851 -8.598,-8.597 0,-4.75 3.848,-8.602 8.598,-8.602 h 32.808 c 4.75,0 8.602,3.852 8.602,8.602 z m -9.375,21.875 c 0,4.746 -3.852,8.597 -8.602,8.597 H 30.473 c -4.75,0 -8.598,-3.851 -8.598,-8.597 0,-4.75 3.848,-8.602 8.598,-8.602 h 14.058 c 4.75,0 8.602,3.852 8.602,8.602 z M 64.07,14.848 c 0,-2.16 -1.754,-3.91 -3.914,-3.91 H 14.848 c -2.16,0 -3.91,1.75 -3.91,3.91 0,2.164 1.75,3.914 3.91,3.914 h 45.308 c 2.16,0 3.914,-1.75 3.914,-3.914 z m -6.25,21.879 c 0,-2.165 -1.754,-3.915 -3.914,-3.915 H 21.098 c -2.16,0 -3.91,1.75 -3.91,3.915 0,2.16 1.75,3.91 3.91,3.91 h 32.808 c 2.16,0 3.914,-1.75 3.914,-3.91 z m -9.375,21.875 c 0,-2.164 -1.754,-3.914 -3.914,-3.914 H 30.473 c -2.161,0 -3.911,1.75 -3.911,3.914 0,2.16 1.75,3.91 3.911,3.91 h 14.058 c 2.16,0 3.914,-1.75 3.914,-3.91 z" style="fill:currentColor;fill-opacity:1;fill-rule:nonzero;stroke:none" transform="scale(1.3333333)" /> </g>
</svg>

