<?xml version="1.0" encoding="UTF-8" standalone="no"?> <svg version="1.1" id="I174822d453864d58b9b3b935e7e3872120251106123559" width="100" height="100" viewBox="0 0 100 100" xmlns="http://www.w3.org/2000/svg" xmlns:svg="http://www.w3.org/2000/svg"> <defs id="I836566790418421cbd26cd67a2120d7920251106123559" /> <g id="I3c51c291e6844b558beff6ff6ea25f1520251106123559"> <path id="Iaa031b7a1b094615be4590964a5143b820251106123559" d="m 11.25,15 c -4.141,0 -7.5,3.359 -7.5,7.5 v 30 c 0,4.141 3.359,7.5 7.5,7.5 H 15 c 4.141,0 7.5,-3.359 7.5,-7.5 v -30 C 22.5,18.359 19.141,15 15,15 Z M 7.5,22.5 c 0,-2.07 1.68,-3.75 3.75,-3.75 H 15 c 2.07,0 3.75,1.68 3.75,3.75 v 30 c 0,2.07 -1.68,3.75 -3.75,3.75 H 11.25 C 9.18,56.25 7.5,54.57 7.5,52.5 Z" style="fill:currentColor;fill-opacity:1;fill-rule:nonzero;stroke:none" transform="scale(1.3333333)" /> <path id="I1461f75af5b74d9dbad4465ce5d272d020251106123559" d="m 60,15 c -4.141,0 -7.5,3.359 -7.5,7.5 v 30 c 0,4.141 3.359,7.5 7.5,7.5 h 3.75 c 4.141,0 7.5,-3.359 7.5,-7.5 v -30 c 0,-4.141 -3.359,-7.5 -7.5,-7.5 z m -3.75,7.5 c 0,-2.07 1.68,-3.75 3.75,-3.75 h 3.75 c 2.07,0 3.75,1.68 3.75,3.75 v 30 c 0,2.07 -1.68,3.75 -3.75,3.75 H 60 c -2.07,0 -3.75,-1.68 -3.75,-3.75 z" style="fill:currentColor;fill-opacity:1;fill-rule:nonzero;stroke:none" transform="scale(1.3333333)" /> </g>
</svg>

