<?xml version="1.0" encoding="UTF-8" standalone="no"?> <svg version="1.1" id="Ib8a5725f153d4c0db4ca488f6ead281720251106102215" width="100" height="100" viewBox="0 0 100 100" xmlns="http://www.w3.org/2000/svg" xmlns:svg="http://www.w3.org/2000/svg"> <defs id="I3b101809b1ec4216b165195972170c6b20251106102215" /> <g id="I58a2d52e93644cfb9bd2450aa3c9c6cb20251106102215"> <path id="Ifaceee0e8c794c8b9f70d9f6fe086ac120251106102215" d="m 44.867,27.738 h 7.617 v 21.231 h 6.614 V 16.992 c 0,-0.367 -0.305,-0.668 -0.672,-0.668 h -4.035 c -0.309,0 -0.586,0.215 -0.645,0.528 -0.215,1.011 -0.578,1.863 -1.078,2.586 -0.582,0.828 -1.332,1.523 -2.203,2.042 -0.86,0.516 -1.84,0.879 -2.93,1.079 -0.871,0.16 -1.758,0.25 -2.676,0.257 -0.367,0.008 -0.664,0.305 -0.664,0.672 v 3.582 c 0,0.368 0.301,0.668 0.672,0.668 z M 67.551,53.402 H 42.105 c -0.371,0 -0.671,0.305 -0.671,0.672 v 4.016 c 0,0.371 0.3,0.672 0.671,0.672 h 25.446 c 0.367,0 0.668,-0.301 0.668,-0.672 v -4.016 c 0,-0.367 -0.301,-0.672 -0.668,-0.672 z M 31.801,20.816 c -1.348,-1.589 -2.879,-2.711 -4.621,-3.378 -1.785,-0.688 -3.692,-1.032 -5.727,-1.032 -2,0 -3.883,0.344 -5.668,1.032 -1.738,0.667 -3.262,1.789 -4.586,3.371 -1.332,1.597 -2.402,3.742 -3.207,6.445 -0.801,2.723 -1.211,6.109 -1.211,10.172 0,4.176 0.41,7.648 1.211,10.41 0.805,2.746 1.875,4.914 3.207,6.504 1.324,1.582 2.848,2.707 4.586,3.375 1.785,0.687 3.668,1.031 5.668,1.031 2.043,0 3.953,-0.344 5.727,-1.031 1.742,-0.668 3.281,-1.793 4.621,-3.383 1.347,-1.59 2.426,-3.758 3.23,-6.504 0.805,-2.762 1.215,-6.234 1.215,-10.41 0,-4.055 -0.41,-7.441 -1.215,-10.172 -0.797,-2.687 -1.875,-4.828 -3.23,-6.43 z m -2.469,21.071 c -0.086,1.789 -0.352,3.515 -0.797,5.179 -0.461,1.735 -1.215,3.223 -2.262,4.473 -1.136,1.363 -2.777,2.031 -4.82,2.031 -2.008,0 -3.617,-0.675 -4.746,-2.043 -1.019,-1.238 -1.766,-2.726 -2.227,-4.461 -0.441,-1.664 -0.71,-3.398 -0.792,-5.179 -0.086,-1.742 -0.129,-3.223 -0.129,-4.453 0,-0.739 0.011,-1.625 0.035,-2.664 0.015,-1.063 0.094,-2.157 0.218,-3.282 0.126,-1.136 0.333,-2.265 0.637,-3.386 0.309,-1.157 0.735,-2.204 1.289,-3.133 0.574,-0.969 1.321,-1.766 2.235,-2.367 0.953,-0.637 2.117,-0.946 3.472,-0.946 1.348,0 2.52,0.309 3.493,0.938 0.929,0.601 1.714,1.41 2.292,2.359 0.579,0.938 1.012,1.992 1.305,3.156 0.277,1.106 0.485,2.227 0.629,3.356 0.148,1.129 0.234,2.226 0.25,3.297 0.016,1.039 0.035,1.926 0.035,2.664 0.008,1.238 -0.035,2.719 -0.117,4.461 z" style="fill:currentColor;fill-opacity:1;fill-rule:nonzero;stroke:none" transform="scale(1.3333333)" /> </g>
</svg>

