<?xml version="1.0" encoding="UTF-8" standalone="no"?> <svg version="1.1" id="Ic04e56ca558143a5a78817dbf67ec58020251106125937" width="100" height="100" viewBox="0 0 100 100" xmlns="http://www.w3.org/2000/svg" xmlns:svg="http://www.w3.org/2000/svg"> <defs id="Ia9a40e7b8acc463c8db09d66e45eb83520251106125937" /> <g id="If07506b11be34540a6f918a0379de3f520251106125937"> <path id="I704e1366497b4dc5b749a58de77c23a220251106125937" d="m 60.27,35.492 c 0,1.11 0.898,2.008 2.007,2.008 1.11,0 2.008,-0.898 2.008,-2.008 V 12.723 c 0,-1.11 -0.898,-2.008 -2.008,-2.008 H 39.508 c -1.11,0 -2.008,0.898 -2.008,2.008 0,1.109 0.898,2.007 2.008,2.007 H 57.426 L 29.465,42.691 c -2.035,-1.574 -4.59,-2.511 -7.367,-2.511 -6.657,0 -12.055,5.394 -12.055,12.05 0,6.661 5.398,12.055 12.055,12.055 6.656,0 12.054,-5.394 12.054,-12.055 0,-2.429 -0.718,-4.691 -1.957,-6.585 L 60.27,17.574 Z" style="fill:currentColor;fill-opacity:1;fill-rule:nonzero;stroke:none" transform="scale(1.3333333)" /> </g>
</svg>

