<?xml version="1.0" encoding="UTF-8" standalone="no"?> <svg version="1.1" id="Id65c1a4512c34c59b7814486b2be695c20251110124420" width="100" height="100" viewBox="0 0 100 100" xmlns="http://www.w3.org/2000/svg" xmlns:svg="http://www.w3.org/2000/svg"> <defs id="I14080578f3fe47909e77efd3cd49137220251110124420" /> <g id="Ib3de0f9d4490451c873336108582296920251110124420"> <path id="I0a8e6bfe3a1b4b6d993d7d2bf1ad4c4220251110124420" d="m 15.402,10.715 c -2.59,0 -4.687,2.097 -4.687,4.687 v 8.703 c 0,1.481 -1.199,2.68 -2.68,2.68 -1.48,0 -2.68,-1.199 -2.68,-2.68 v -8.703 c 0,-5.547 4.5,-10.047 10.047,-10.047 h 8.703 c 1.481,0 2.68,1.2 2.68,2.68 0,1.481 -1.199,2.68 -2.68,2.68 z m 0,53.57 c -2.59,0 -4.687,-2.097 -4.687,-4.687 v -8.703 c 0,-1.481 -1.199,-2.68 -2.68,-2.68 -1.48,0 -2.68,1.199 -2.68,2.68 v 8.703 c 0,5.547 4.5,10.047 10.047,10.047 h 8.703 c 1.481,0 2.68,-1.2 2.68,-2.68 0,-1.481 -1.199,-2.68 -2.68,-2.68 z M 64.285,15.402 c 0,-2.59 -2.097,-4.687 -4.687,-4.687 h -8.703 c -1.481,0 -2.68,-1.199 -2.68,-2.68 0,-1.48 1.199,-2.68 2.68,-2.68 h 8.703 c 5.547,0 10.047,4.5 10.047,10.047 v 8.703 c 0,1.481 -1.2,2.68 -2.68,2.68 -1.481,0 -2.68,-1.199 -2.68,-2.68 z m -4.687,48.883 c 2.59,0 4.687,-2.097 4.687,-4.687 v -8.703 c 0,-1.481 1.199,-2.68 2.68,-2.68 1.48,0 2.68,1.199 2.68,2.68 v 8.703 c 0,5.547 -4.5,10.047 -10.047,10.047 h -8.703 c -1.481,0 -2.68,-1.2 -2.68,-2.68 0,-1.481 1.199,-2.68 2.68,-2.68 z M 20.758,37.5 c 0,-1.48 1.199,-2.68 2.68,-2.68 h 28.124 c 1.481,0 2.68,1.2 2.68,2.68 0,1.48 -1.199,2.68 -2.68,2.68 H 23.438 c -1.481,0 -2.68,-1.2 -2.68,-2.68 z" style="fill:currentColor;fill-opacity:1;fill-rule:nonzero;stroke:none" transform="scale(1.3333333)" /> </g>
</svg>

