<?xml version="1.0" encoding="UTF-8" standalone="no"?> <svg version="1.1" id="Ia8bf9366e415474ab563bca0847dc66520251106154012" width="100" height="100" viewBox="0 0 100 100" xmlns="http://www.w3.org/2000/svg" xmlns:svg="http://www.w3.org/2000/svg"> <defs id="Iaaaa667cca9e490b9f18d80b827733d020251106154012" /> <g id="Ic7bc6a91d42e49bfa3cecc177425df0520251106154012"> <path id="I3a979ce2795749eeaad82a0f6d3ba22820251106154012" d="M 8.301,44.602 C 4.375,40.68 4.375,34.32 8.301,30.398 L 30.398,8.301 c 3.922,-3.926 10.282,-3.926 14.204,0 l 22.097,22.097 c 3.922,3.922 3.922,10.282 0,14.204 L 44.602,66.699 c -3.922,3.922 -10.282,3.922 -14.204,0 z M 28.875,26.035 c -0.785,-0.785 -2.055,-0.785 -2.84,0 -0.785,0.785 -0.785,2.055 0,2.84 l 8.625,8.625 -8.625,8.625 c -0.785,0.785 -0.785,2.055 0,2.84 0.785,0.785 2.055,0.785 2.84,0 l 8.625,-8.625 8.625,8.625 c 0.785,0.785 2.055,0.785 2.84,0 0.785,-0.785 0.785,-2.055 0,-2.84 L 40.34,37.5 48.965,28.875 c 0.785,-0.785 0.785,-2.055 0,-2.84 -0.785,-0.785 -2.055,-0.785 -2.84,0 L 37.5,34.66 Z" style="fill:currentColor;fill-opacity:1;fill-rule:nonzero;stroke:none" transform="scale(1.3333333)" /> </g>
</svg>

