<?xml version="1.0" encoding="UTF-8" standalone="no"?> <svg version="1.1" id="Ic5d0f91cdb4440e88f1c5a5a7a11106e20251106170956" width="100" height="100" viewBox="0 0 100 100" xmlns="http://www.w3.org/2000/svg" xmlns:svg="http://www.w3.org/2000/svg"> <defs id="I3641d6305f134080ba21f1fc1a58acc320251106170956" /> <g id="Ib7994fce5daa471d9559101192779c7020251106170956"> <path id="Ibba1b5fca15f49398cbc725733c959cb20251106170956" d="m 32.809,12.496 c -0.618,1.484 -1.067,3.055 -1.321,4.688 l -11.957,0.004 c -2.871,0 -5.222,2.21 -5.449,5.019 l -0.02,0.449 v 21.09 l 14.063,0.004 c 1.187,0 2.168,0.883 2.324,2.027 l 0.02,0.317 c 0,3.883 3.148,7.031 7.031,7.031 3.723,0 6.766,-2.891 7.016,-6.551 l 0.015,-0.48 c 0,-1.188 0.883,-2.168 2.028,-2.324 l 0.316,-0.02 14.063,-0.004 0.003,-5.41 c 1.723,-0.898 3.297,-2.035 4.688,-3.367 l -0.004,23.625 c 0,5.414 -4.238,9.84 -9.578,10.14 L 55.469,68.75 H 19.531 c -5.414,0 -9.84,-4.238 -10.14,-9.578 L 9.375,58.594 V 22.656 c 0,-5.414 4.238,-9.84 9.578,-10.14 L 19.531,12.5 Z m 28.129,35.938 -11.954,0.004 c -1.046,5.152 -5.468,9.074 -10.859,9.359 L 37.5,57.812 c -5.668,0 -10.398,-4.027 -11.484,-9.374 L 14.062,48.434 v 10.16 c 0,2.871 2.211,5.222 5.02,5.449 l 0.449,0.019 h 35.938 c 2.871,0 5.222,-2.21 5.449,-5.019 l 0.02,-0.449 z M 51.562,3.125 c 9.493,0 17.188,7.695 17.188,17.187 0,9.493 -7.695,17.188 -17.188,17.188 -9.492,0 -17.187,-7.695 -17.187,-17.188 0,-9.492 7.695,-17.187 17.187,-17.187 z m 0.676,8.09 -0.218,0.18 -0.18,0.218 c -0.371,0.532 -0.371,1.242 0,1.774 l 0.18,0.218 5.144,5.145 H 40.625 l -0.281,0.023 c -0.637,0.118 -1.141,0.622 -1.258,1.258 l -0.024,0.281 0.024,0.282 c 0.117,0.636 0.621,1.14 1.258,1.258 l 0.281,0.023 h 16.539 l -5.144,5.145 -0.18,0.218 c -0.422,0.606 -0.363,1.45 0.18,1.992 0.542,0.543 1.386,0.602 1.992,0.18 l 0.218,-0.18 7.942,-7.96 0.101,-0.149 0.11,-0.211 0.066,-0.195 0.043,-0.258 0.008,-0.145 -0.008,-0.167 -0.043,-0.235 -0.094,-0.258 -0.132,-0.23 -0.145,-0.176 -7.848,-7.851 -0.218,-0.18 c -0.532,-0.371 -1.242,-0.371 -1.774,0 z" style="fill:currentColor;fill-opacity:1;fill-rule:nonzero;stroke:none" transform="scale(1.3333333)" /> </g>
</svg>

