<?xml version="1.0" encoding="UTF-8" standalone="no"?> <svg version="1.1" id="I829da20258084875a33bc0eda037125520251106155157" width="100" height="100" viewBox="0 0 100 100" xmlns="http://www.w3.org/2000/svg" xmlns:svg="http://www.w3.org/2000/svg"> <defs id="Iddda0e1d7fa8479b83844deca2cfa19820251106155157" /> <g id="Ie051a86130494c3da9018415ab42244620251106155157"> <path id="I008105ce306447568f3ba891646b543220251106155157" d="M 50.781,34.375 H 24.219 c -1.281,0 -2.344,1.063 -2.344,2.344 0,1.281 1.063,2.343 2.344,2.343 h 26.562 c 1.281,0 2.344,-1.062 2.344,-2.343 0,-1.281 -1.063,-2.344 -2.344,-2.344 z m 0,14.063 H 24.219 c -1.281,0 -2.344,1.062 -2.344,2.343 0,1.281 1.063,2.344 2.344,2.344 h 26.562 c 1.281,0 2.344,-1.063 2.344,-2.344 0,-1.281 -1.063,-2.343 -2.344,-2.343 z M 21.875,22.656 c 0,1.282 1.063,2.344 2.344,2.344 H 47.5 L 47.219,24.125 C 47.062,23.688 46.844,23.281 46.562,22.906 46.438,22.75 46.344,22.625 46.219,22.5 45.75,22.031 45.188,21.688 44.594,21.5 L 40.938,20.312 H 24.219 c -1.281,0 -2.344,1.063 -2.344,2.344 z m 40,18.875 -0.813,-2.469 -2.5,-0.906 c -0.281,-0.094 -0.5,-0.25 -0.75,-0.375 v 23.938 c 0,1.281 -1.062,2.343 -2.343,2.343 H 19.531 C 18.25,64.062 17.188,63 17.188,61.719 V 13.281 c 0,-1.281 1.062,-2.343 2.343,-2.343 h 17.281 c 0.094,-0.188 0.157,-0.407 0.282,-0.594 0.75,-1.063 1.812,-1.875 3.094,-2.313 L 44.594,6.594 C 44.812,6.5 45.062,6.375 45.281,6.25 h -25.75 c -3.875,0 -7.031,3.156 -7.031,7.031 v 48.438 c 0,3.875 3.156,7.031 7.031,7.031 h 35.938 c 3.875,0 7.031,-3.156 7.031,-7.031 v -19 c -0.25,-0.375 -0.469,-0.75 -0.625,-1.188 z M 49.531,19.219 c 0.25,0.25 0.5,0.531 0.719,0.843 0.625,0.782 1.094,1.688 1.406,2.657 l 1.406,4.312 c 0.126,0.344 0.344,0.625 0.626,0.813 0.281,0.218 0.624,0.312 0.968,0.312 0.344,0 0.688,-0.094 0.969,-0.312 0.25,-0.188 0.469,-0.438 0.594,-0.719 v -0.094 l 1.437,-4.312 c 0.438,-1.313 1.156,-2.5 2.156,-3.469 0.969,-0.969 2.157,-1.719 3.469,-2.156 l 4.313,-1.406 c 0.344,-0.126 0.625,-0.344 0.812,-0.626 0.219,-0.281 0.313,-0.624 0.313,-0.968 0,-0.344 -0.094,-0.688 -0.313,-0.969 -0.218,-0.281 -0.5,-0.5 -0.812,-0.625 H 67.5 L 63.188,11.094 C 61.875,10.656 60.688,9.938 59.719,8.938 58.75,7.969 58,6.781 57.562,5.469 L 56.156,1.156 C 56.031,0.812 55.812,0.531 55.531,0.344 55.25,0.156 54.906,0.031 54.562,0.031 c -0.343,0 -0.687,0.094 -0.968,0.313 -0.282,0.187 -0.5,0.5 -0.625,0.812 l -1.407,4.313 v 0.093 c -0.468,1.25 -1.187,2.407 -2.093,3.344 -0.969,0.969 -2.125,1.719 -3.438,2.156 l -4.312,1.407 c -0.344,0.125 -0.625,0.343 -0.813,0.625 -0.218,0.281 -0.312,0.625 -0.312,0.968 0,0.344 0.094,0.688 0.312,0.969 0.188,0.281 0.5,0.5 0.813,0.625 l 4.312,1.406 c 1.313,0.438 2.5,1.188 3.469,2.157 z m 24.781,12.719 c 0.2,0 0.407,0.187 0.532,0.343 0.125,0.157 0.156,0.344 0.156,0.531 0,0.188 -0.031,0.376 -0.156,0.532 -0.125,0.156 -0.282,0.281 -0.469,0.344 l -2.406,0.781 c -0.719,0.25 -1.375,0.656 -1.938,1.187 -0.531,0.532 -0.937,1.188 -1.187,1.938 l -0.782,2.375 c -0.062,0.187 -0.187,0.343 -0.343,0.469 -0.157,0.124 -0.344,0.187 -0.531,0.187 -0.188,0 -0.376,-0.063 -0.532,-0.187 -0.156,-0.126 -0.281,-0.282 -0.344,-0.469 l -0.781,-2.375 c -0.25,-0.719 -0.656,-1.406 -1.187,-1.938 -0.532,-0.531 -1.219,-0.968 -1.938,-1.187 L 60,33.688 C 59.812,33.625 59.656,33.5 59.531,33.344 59.406,33.188 59.344,33 59.344,32.812 c 0,-0.187 0.062,-0.374 0.187,-0.531 C 59.656,32.125 59.812,32 60,31.938 l 2.406,-0.782 c 0.719,-0.25 1.375,-0.656 1.906,-1.187 0.532,-0.531 0.938,-1.188 1.157,-1.907 l 0.781,-2.374 c 0.062,-0.188 0.188,-0.344 0.344,-0.469 0.156,-0.125 0.344,-0.188 0.531,-0.188 0.187,0 0.375,0.063 0.531,0.188 0.156,0.125 0.282,0.281 0.344,0.469 l 0.781,2.374 c 0.25,0.719 0.657,1.376 1.188,1.938 0.531,0.531 1.187,0.938 1.937,1.188 z" style="fill:currentColor;fill-opacity:1;fill-rule:nonzero;stroke:none" transform="scale(1.3333333)" /> </g>
</svg>

