<?xml version="1.0" encoding="UTF-8" standalone="no"?> <svg version="1.1" id="I9cb7c1f3960e450a9d646ba689d53dc920251106102216" width="100" height="100" viewBox="0 0 100 100" xmlns="http://www.w3.org/2000/svg" xmlns:svg="http://www.w3.org/2000/svg"> <defs id="I2380540635854c47bb2438678defb49020251106102216" /> <g id="Ic8b4640070494ea788e001b6f0d33e7520251106102216"> <path id="I48df404d9325431394502b3a716806f720251106102216" d="M 74.664,52.105 74.648,52.09 c -3.691,-7.809 -9.41,-11.828 -17.015,-11.828 -7.61,0 -13.328,4.027 -17.028,11.828 v 0.008 c -0.453,0.964 -0.453,2.082 0,3.047 3.7,7.8 9.418,11.82 17.028,11.82 7.605,0 13.324,-4.027 17.023,-11.828 0.453,-0.961 0.453,-2.075 0.008,-3.032 z m -17.031,9.5 c -5.199,0 -8.992,-2.507 -11.813,-7.992 2.813,-5.484 6.614,-7.992 11.813,-7.992 5.195,0 8.988,2.508 11.808,7.992 -2.812,5.485 -6.613,7.992 -11.808,7.992 z" style="fill:currentColor;fill-opacity:1;fill-rule:nonzero;stroke:none" transform="scale(1.3333333)" /> <path id="I18199982e4f446d8b9c3ac68e7e7641220251106102216" d="m 52.984,53.656 c 0,6.25 9.375,6.25 9.375,0 0,-6.25 -9.375,-6.25 -9.375,0 z M 6.027,14.062 h 58.93 V 35.238 H 70.98 V 10.715 c 0,-1.481 -1.195,-2.68 -2.675,-2.68 H 2.68 C 1.195,8.035 0,9.234 0,10.715 v 43.527 c 0,1.481 1.195,2.676 2.68,2.676 H 32.145 V 50.895 H 6.027 Z" style="fill:currentColor;fill-opacity:1;fill-rule:nonzero;stroke:none" transform="scale(1.3333333)" /> <path id="I68d79a77c29c45b5988c93b290e7532120251106102216" d="m 55.32,22.945 -3.078,-3.082 c -0.262,-0.258 -0.687,-0.258 -0.949,0 L 35.91,35.266 28.703,28.051 c -0.262,-0.262 -0.683,-0.262 -0.945,0 L 15.68,40.129 c -0.262,0.262 -0.262,0.683 0,0.945 l 3.078,3.082 c 0.262,0.258 0.687,0.258 0.945,0 l 8.524,-8.523 7.207,7.215 c 0.257,0.261 0.683,0.261 0.945,0 L 55.32,23.891 c 0.27,-0.262 0.27,-0.688 0,-0.946 z" style="fill:currentColor;fill-opacity:1;fill-rule:nonzero;stroke:none" transform="scale(1.3333333)" /> </g>
</svg>

