<?xml version="1.0" encoding="UTF-8" standalone="no"?> <svg version="1.1" id="I3b1d3f68420b40bb8c0a1a830a72f84120251110123030" width="100" height="100" viewBox="0 0 100 100" xmlns="http://www.w3.org/2000/svg" xmlns:svg="http://www.w3.org/2000/svg"> <defs id="Ia8ac5f1b014345fcb6fde7f26c9cbddc20251110123030" /> <g id="Ibbe454a28fc74e7e9708dee94c81960620251110123030"> <path id="I5cee0e132d5c4f5e92b9d39a36ccf81920251110123030" d="m 46.105,31.25 c 2.477,0 4.571,1.648 5.243,3.906 h -2.129 c -1.281,0 -2.492,0.282 -3.586,0.782 H 28.914 c -0.434,0 -0.781,0.351 -0.781,0.781 v 14.84 c 0,4.082 2.605,7.55 6.242,8.843 v 4.871 C 28.117,63.852 23.445,58.25 23.445,51.559 v -14.84 c 0,-3.02 2.446,-5.469 5.469,-5.469 z m 14.051,3.906 c 4.735,0 8.574,3.828 8.594,8.559 v -6.996 c 0,-3.02 -2.449,-5.469 -5.469,-5.469 L 52.734,31.246 c 0.914,1.106 1.555,2.442 1.825,3.91 z M 11.719,31.25 22.285,31.246 c -1.074,1.301 -1.773,2.918 -1.933,4.692 h -8.633 c -0.43,0 -0.781,0.351 -0.781,0.781 v 10.152 c 0,4.317 3.5,7.817 7.816,7.817 0.625,0 1.234,-0.075 1.816,-0.211 0.262,1.574 0.746,3.074 1.414,4.472 -1.027,0.278 -2.113,0.426 -3.23,0.426 C 11.848,59.375 6.25,53.777 6.25,46.871 V 36.719 c 0,-3.02 2.449,-5.469 5.469,-5.469 z M 37.5,9.375 c 5.18,0 9.375,4.199 9.375,9.375 0,5.176 -4.195,9.375 -9.375,9.375 -5.18,0 -9.375,-4.199 -9.375,-9.375 0,-5.176 4.195,-9.375 9.375,-9.375 z m 0,4.687 c -2.59,0 -4.688,2.098 -4.688,4.688 0,2.59 2.098,4.688 4.688,4.688 2.59,0 4.688,-2.098 4.688,-4.688 0,-2.59 -2.098,-4.688 -4.688,-4.688 z M 57.812,12.5 c 4.317,0 7.813,3.496 7.813,7.812 0,4.317 -3.496,7.813 -7.813,7.813 C 53.496,28.125 50,24.629 50,20.312 50,15.996 53.496,12.5 57.812,12.5 Z m 0,4.688 c -1.726,0 -3.124,1.398 -3.124,3.124 0,1.727 1.398,3.126 3.124,3.126 1.727,0 3.126,-1.399 3.126,-3.126 0,-1.726 -1.399,-3.124 -3.126,-3.124 z M 17.188,12.5 c 4.316,0 7.812,3.496 7.812,7.812 0,4.317 -3.496,7.813 -7.812,7.813 -4.317,0 -7.813,-3.496 -7.813,-7.813 0,-4.316 3.496,-7.812 7.813,-7.812 z m 0,4.688 c -1.727,0 -3.126,1.398 -3.126,3.124 0,1.727 1.399,3.126 3.126,3.126 1.726,0 3.124,-1.399 3.124,-3.126 0,-1.726 -1.398,-3.124 -3.124,-3.124 z M 43.75,46.875 h -1.562 c -2.59,0 -4.688,2.098 -4.688,4.687 v 4.688 h 7.812 v -0.781 c 0,-1.293 1.051,-2.344 2.344,-2.344 1.293,0 2.344,1.051 2.344,2.344 v 0.781 h 9.375 v -0.781 c 0,-1.293 1.051,-2.344 2.344,-2.344 1.293,0 2.343,1.051 2.343,2.344 v 0.781 h 7.813 v -4.688 c 0,-2.589 -2.098,-4.687 -4.687,-4.687 H 65.625 V 43.75 c 0,-3.02 -2.449,-5.469 -5.469,-5.469 H 49.219 c -3.02,0 -5.469,2.449 -5.469,5.469 z m 4.688,-3.125 c 0,-0.43 0.351,-0.781 0.781,-0.781 h 10.937 c 0.43,0 0.782,0.351 0.782,0.781 v 3.125 h -12.5 z M 37.5,67.188 v -6.25 h 7.812 v 2.343 c 0,1.293 1.051,2.344 2.344,2.344 1.293,0 2.344,-1.051 2.344,-2.344 v -2.343 h 9.375 v 2.343 c 0,1.293 1.051,2.344 2.344,2.344 1.293,0 2.343,-1.051 2.343,-2.344 v -2.343 h 7.813 v 6.25 c 0,2.589 -2.098,4.687 -4.687,4.687 h -25 c -2.59,0 -4.688,-2.098 -4.688,-4.687 z" style="fill:currentColor;fill-opacity:1;fill-rule:nonzero;stroke:none" transform="scale(1.3333333)" /> </g>
</svg>

