<?xml version="1.0" encoding="UTF-8" standalone="no"?> <svg version="1.1" id="Ic599e46b1fcb4b21b9046e5f79021f9d20251106163937" width="100" height="100" viewBox="0 0 100 100" xmlns="http://www.w3.org/2000/svg" xmlns:svg="http://www.w3.org/2000/svg"> <defs id="I10aa8ee777a3400e9bf13d3d6b472cec20251106163937" /> <g id="I6b7d4dbf185745279af1979c571f0a9120251106163937"> <path id="Icca1e2b162534e3c96b11d340200d2af20251106163937" d="m 71.875,23.438 c 0,9.492 -7.695,17.187 -17.187,17.187 C 45.195,40.625 37.5,32.93 37.5,23.438 37.5,13.945 45.195,6.25 54.688,6.25 c 9.492,0 17.187,7.695 17.187,17.188 z M 49.543,16.082 c -0.609,-0.609 -1.602,-0.609 -2.211,0 -0.609,0.609 -0.609,1.602 0,2.211 l 5.145,5.145 -5.145,5.144 c -0.609,0.609 -0.609,1.602 0,2.211 0.609,0.609 1.602,0.609 2.211,0 l 5.145,-5.145 5.144,5.145 c 0.609,0.609 1.602,0.609 2.211,0 0.609,-0.609 0.609,-1.602 0,-2.211 l -5.145,-5.144 5.145,-5.145 c 0.609,-0.609 0.609,-1.602 0,-2.211 -0.609,-0.609 -1.602,-0.609 -2.211,0 l -5.144,5.145 z" style="fill:currentColor;fill-opacity:1;fill-rule:nonzero;stroke:none" transform="scale(1.3333333)" /> <path id="I181b967fa70e412c8e0b49b05d67115920251106163937" d="m 25,34.375 h 12.566 c 1.614,2.516 3.762,4.656 6.289,6.25 H 25 c -1.727,0 -3.125,-1.398 -3.125,-3.125 0,-1.602 1.207,-2.922 2.762,-3.105 z" style="fill:currentColor;fill-opacity:1;fill-rule:nonzero;stroke:none" transform="scale(1.3333333)" /> <path id="I6bc3e0c1d5cb482a8443612be829bd8f20251106163937" d="m 15.625,18.75 h 19.293 c -0.356,1.504 -0.543,3.074 -0.543,4.688 0,0.527 0.02,1.046 0.059,1.562 H 15.625 C 13.898,25 12.5,23.602 12.5,21.875 c 0,-1.602 1.207,-2.922 2.762,-3.105 z" style="fill:currentColor;fill-opacity:1;fill-rule:nonzero;stroke:none" transform="scale(1.3333333)" /> <path id="I76c6b69c699c45d0a17697ca15767c6d20251106163937" d="M 30.887,50.02 31.25,50 h 12.5 c 1.727,0 3.125,1.398 3.125,3.125 0,1.602 -1.207,2.922 -2.762,3.105 l -0.363,0.02 h -12.5 c -1.727,0 -3.125,-1.398 -3.125,-3.125 0,-1.602 1.207,-2.922 2.762,-3.105 z" style="fill:currentColor;fill-opacity:1;fill-rule:nonzero;stroke:none" transform="scale(1.3333333)" /> </g>
</svg>

