<?xml version="1.0" encoding="UTF-8" standalone="no"?> <svg version="1.1" id="I66d03fd2990141a6a6440ca8c79e90f520251110130507" width="100" height="100" viewBox="0 0 100 100" xmlns="http://www.w3.org/2000/svg" xmlns:svg="http://www.w3.org/2000/svg"> <defs id="Ide750fb617b14430ab81ac29f2deb57720251110130507" /> <g id="I5f120a84631e40169b91df2e31d1ff1f20251110130507"> <path id="I08c986e905d94a03a573ac4553e9cb6520251110130507" d="m 56.359,47.176 c -1.976,1.566 -4.254,2.777 -6.73,3.523 C 49.871,52.25 50,53.844 50,55.461 60.781,52.688 68.75,42.898 68.75,31.25 c 0,-2.023 -0.242,-3.988 -0.695,-5.875 -0.539,-2.25 -1.387,-4.383 -2.493,-6.352 C 63.309,15.016 59.984,11.691 55.977,9.438 54.008,8.332 51.875,7.484 49.625,6.945 47.738,6.488 45.773,6.25 43.75,6.25 32.102,6.25 22.312,14.219 19.539,25 c 1.617,0 3.211,0.129 4.762,0.371 0.746,-2.476 1.957,-4.754 3.523,-6.73 z M 59.676,43.859 47.062,31.25 49.445,28.871 c 2.149,1.5 4.766,2.379 7.586,2.379 2.543,0 4.918,-0.715 6.938,-1.953 0.062,0.641 0.093,1.293 0.093,1.953 0,4.766 -1.64,9.145 -4.386,12.609 z M 50.699,12.156 c 2.063,0.754 3.973,1.828 5.66,3.168 l -6.832,6.836 c -0.695,-1.242 -1.089,-2.672 -1.089,-4.191 0,-2.242 0.855,-4.281 2.261,-5.813 z m -4.57,13.399 -2.379,2.379 -12.609,-12.61 c 3.464,-2.746 7.843,-4.386 12.609,-4.386 0.66,0 1.312,0.031 1.953,0.093 -1.238,2.02 -1.953,4.395 -1.953,6.938 0,2.82 0.879,5.437 2.379,7.586 z m 16.715,-1.254 c -1.532,1.402 -3.571,2.261 -5.813,2.261 -1.523,0 -2.949,-0.394 -4.191,-1.089 l 6.836,-6.832 c 1.34,1.687 2.414,3.593 3.168,5.66 z m -49.563,8.511 c -1.293,0 -2.343,1.051 -2.343,2.344 v 6.25 c 0,12.512 10.144,22.656 22.656,22.656 h 6.25 c 1.293,0 2.344,-1.05 2.344,-2.343 v -6.25 C 42.188,42.957 32.043,32.812 19.531,32.812 Z M 6.25,35.156 c 0,-3.883 3.148,-7.031 7.031,-7.031 h 6.25 c 15.102,0 27.344,12.242 27.344,27.344 v 6.25 c 0,3.883 -3.148,7.031 -7.031,7.031 h -6.25 C 18.492,68.75 6.25,56.508 6.25,41.406 Z m 18.062,7.719 c -0.914,-0.918 -2.398,-0.918 -3.312,0 -0.918,0.914 -0.918,2.398 0,3.313 L 28.812,54 c 0.915,0.918 2.399,0.918 3.313,0 0.918,-0.914 0.918,-2.398 0,-3.312 z" style="fill:currentColor;fill-opacity:1;fill-rule:nonzero;stroke:none" transform="scale(1.3333333)" /> </g>
</svg>

