<?xml version="1.0" encoding="UTF-8" standalone="no"?> <svg version="1.1" id="I5fb312e842fd440d9ece15acebda494f20251110124421" width="100" height="100" viewBox="0 0 100 100" xmlns="http://www.w3.org/2000/svg" xmlns:svg="http://www.w3.org/2000/svg"> <defs id="Ia528305913dc40afbf7c7cfe8db3480720251110124421"> <radialGradient fx="0" fy="0" cx="0" cy="0" r="1" gradientUnits="userSpaceOnUse" gradientTransform="matrix(32.774766,0,0,4.245188,0.0372366,37.502813)" spreadMethod="pad" id="Ifcaa7246e9c347a2bfa27b822b3339a020251110124421"> <stop style="stop-opacity:1;stop-color:#0094f0" offset="0" id="I68dcfd10b53941bf8fb8ec5f6bbac88c20251110124421" /> <stop style="stop-opacity:1;stop-color:#2052cb" offset="1" id="I11ed0541ec26471cac3418e1f9d47a7020251110124421" /> </radialGradient> <linearGradient x1="2.00195" y1="-9.3738403" x2="25.9825" y2="22.4879" gradientUnits="userSpaceOnUse" gradientTransform="scale(2.34375)" spreadMethod="pad" id="I8a2f67613cc94365bab37586ea333fe720251110124421"> <stop style="stop-opacity:1;stop-color:#3bd5ff" offset="0" id="Ic3b1ec9c02f940f3b61cfbed5ce0259120251110124421" /> <stop style="stop-opacity:1;stop-color:#0094f0" offset="1" id="I021a7832dcbc4df98251556ee18f91cf20251110124421" /> </linearGradient> <linearGradient x1="16.000799" y1="9.5477304" x2="23.283001" y2="29.249201" gradientUnits="userSpaceOnUse" gradientTransform="scale(2.34375)" spreadMethod="pad" id="Ia9c6c51312334625bdd645822e4c54c320251110124421"> <stop style="stop-opacity:0;stop-color:#dcf8ff" offset="0" id="I720836a7eeaa40b0ba8650df569792da20251110124421" /> <stop style="stop-opacity:0;stop-color:#dcf8ff" offset="0.125345" id="I1107c50d3cd240bfa5ef4ec4cc2c719120251110124421" /> <stop style="stop-opacity:0.70000763;stop-color:#ff6ce8" offset="0.768599" id="I683436f0071847869e6dc385b89e867420251110124421" /> <stop style="stop-opacity:0.70000763;stop-color:#ff6ce8" offset="1" id="I5f6c03b7f09a45249d465e15cfc6d63f20251110124421" /> </linearGradient> <radialGradient fx="0" fy="0" cx="0" cy="0" r="1" gradientUnits="userSpaceOnUse" gradientTransform="matrix(0,23.4375,-22.25168,0,53.90625,57.421875)" spreadMethod="pad" id="I79cc6a70c3804c558cad6953c7a36c1520251110124421"> <stop style="stop-opacity:0.29999237;stop-color:#1b44b1" offset="0" id="Icde59738931d4642b57a0108831b392420251110124421" /> <stop style="stop-opacity:0.29999237;stop-color:#1b44b1" offset="0.710959" id="I16d9b30fb41a468db5ac9097294c26fa20251110124421" /> <stop style="stop-opacity:0;stop-color:#1b44b1" offset="1" id="I57a0c9e392414882b9b51b33f6db5a4420251110124421" /> </radialGradient> <linearGradient x1="18" y1="14.6667" x2="25.5" y2="31.3333" gradientUnits="userSpaceOnUse" gradientTransform="scale(2.34375)" spreadMethod="pad" id="Iec82b379a636483193f7927af17d23cc20251110124421"> <stop style="stop-opacity:1;stop-color:#43e5ca" offset="0" id="I00be966973834b9e8449e1f59d4509d320251110124421" /> <stop style="stop-opacity:1;stop-color:#2764e7" offset="1" id="I4e89dc6d26db4b5b885785e19ef60f7120251110124421" /> </linearGradient> <linearGradient x1="22.4375" y1="18.9184" x2="21.0179" y2="23.784" gradientUnits="userSpaceOnUse" gradientTransform="scale(2.34375)" spreadMethod="pad" id="Ice8f1756f3df408abc65fcfdfdf9ea3320251110124421"> <stop style="stop-opacity:1;stop-color:#fdfdfd" offset="0" id="I8cea1c2685e64825b5621f179da726d020251110124421" /> <stop style="stop-opacity:1;stop-color:#d1d1ff" offset="1" id="I5ba28d4927ec4027881f095bc6aaf13a20251110124421" /> </linearGradient> </defs> <g id="I56697ea463914abcb97fe3719b7ac62b20251110124421"> <path id="I574ae7591e9b49b6bf4449f38062799f20251110124421" d="m 10.93,46.875 3.015,-9.371 -3.015,-9.375 37.715,7.07 c 2.55,0.477 2.55,4.129 0,4.606 z" transform="scale(1.3333333)" style="fill:url(#Ifcaa7246e9c347a2bfa27b822b3339a020251110124421);stroke:none" /> <path id="Ie2f5f535d05d47d384b9e13200c950df20251110124421" d="M 9.789,5.07 C 7.004,3.68 3.914,6.328 4.867,9.293 l 6.699,20.82 c 0.27,0.836 0.981,1.449 1.844,1.594 l 27.817,4.637 c 1.308,0.218 1.308,2.094 0,2.312 l -27.813,4.637 c -0.867,0.141 -1.578,0.758 -1.848,1.594 L 4.867,65.711 c -0.953,2.965 2.137,5.613 4.922,4.223 L 68.367,40.645 c 2.594,-1.293 2.594,-4.993 0,-6.29 z" transform="scale(1.3333333)" style="fill:url(#I8a2f67613cc94365bab37586ea333fe720251110124421);stroke:none" /> <path d="M 9.789,5.07 C 7.004,3.68 3.914,6.328 4.867,9.293 l 6.699,20.82 c 0.27,0.836 0.981,1.449 1.844,1.594 l 27.817,4.637 c 1.308,0.218 1.308,2.094 0,2.312 l -27.813,4.637 c -0.867,0.141 -1.578,0.758 -1.848,1.594 L 4.867,65.711 c -0.953,2.965 2.137,5.613 4.922,4.223 L 68.367,40.645 c 2.594,-1.293 2.594,-4.993 0,-6.29 z" transform="scale(1.3333333)" style="fill:url(#Ia9c6c51312334625bdd645822e4c54c320251110124421);stroke:none" opacity="1" id="Ie9f130291e114f56af2bf19fe090720e20251110124421" /> <path d="M 9.789,5.07 C 7.004,3.68 3.914,6.328 4.867,9.293 l 6.699,20.82 c 0.27,0.836 0.981,1.449 1.844,1.594 l 27.817,4.637 c 1.308,0.218 1.308,2.094 0,2.312 l -27.813,4.637 c -0.867,0.141 -1.578,0.758 -1.848,1.594 L 4.867,65.711 c -0.953,2.965 2.137,5.613 4.922,4.223 L 68.367,40.645 c 2.594,-1.293 2.594,-4.993 0,-6.29 z" transform="scale(1.3333333)" style="fill:url(#I79cc6a70c3804c558cad6953c7a36c1520251110124421);stroke:none" opacity="1" id="I49bd036a223648f0a1bd1c1af8787bcd20251110124421" /> <path id="I11c60a472cf74049abd8e2161512934820251110124421" d="m 36.328,53.906 c 0,9.707 7.871,17.578 17.578,17.578 9.707,0 17.578,-7.871 17.578,-17.578 0,-9.707 -7.871,-17.578 -17.578,-17.578 -9.707,0 -17.578,7.871 -17.578,17.578 z" transform="scale(1.3333333)" style="fill:url(#Iec82b379a636483193f7927af17d23cc20251110124421);fill-rule:evenodd;stroke:none" /> <path id="I082313247a084d96adca069331ec2f9520251110124421" d="m 55.078,43.945 c 0,-0.972 -0.785,-1.757 -1.758,-1.757 -0.972,0 -1.758,0.785 -1.758,1.757 v 10.547 c 0,0.973 0.786,1.758 1.758,1.758 h 8.203 c 0.973,0 1.758,-0.785 1.758,-1.758 0,-0.972 -0.785,-1.758 -1.758,-1.758 h -6.445 z" transform="scale(1.3333333)" style="fill:url(#Ice8f1756f3df408abc65fcfdfdf9ea3320251110124421);fill-rule:evenodd;stroke:none" /> </g>
</svg>

