<?xml version="1.0" encoding="UTF-8" standalone="no"?>
<!-- Created with Inkscape (http://www.inkscape.org/) -->

<svg
   version="1.1"
   id="Ie78c7dcaa9214f5d9f99a255afc3c97420251103104211"
   width="100"
   height="100"
   viewBox="0 0 100 100"
   sodipodi:docname="output.ai"
   xmlns:inkscape="http://www.inkscape.org/namespaces/inkscape"
   xmlns:sodipodi="http://sodipodi.sourceforge.net/DTD/sodipodi-0.dtd"
   xmlns="http://www.w3.org/2000/svg"
   xmlns:svg="http://www.w3.org/2000/svg">
  <defs
     id="Ib0b24c86f4954789830df8f1fd449bfa20251103104211" />
  <sodipodi:namedview
     id="I271f82f990224b42b295cd90930bf9ea20251103104211"
     pagecolor="#ffffff"
     bordercolor="#000000"
     borderopacity="0.25"
     inkscape:showpageshadow="2"
     inkscape:pageopacity="0.0"
     inkscape:pagecheckerboard="0"
     inkscape:deskcolor="#d1d1d1">
    <inkscape:page
       x="0"
       y="0"
       inkscape:label="1"
       id="I6026400a96a94100990e2360c8f7249e20251103104211"
       width="100"
       height="100"
       margin="0"
       bleed="0" />
  </sodipodi:namedview>
  <g
     id="Ib95294d3ed10481bb738df5e7222445020251103104211"
     inkscape:groupmode="layer"
     inkscape:label="1">
    <path
       id="I106a6164350d48299daefe2e2279733820251103104211"
       d="m 16.742,12.055 c -2.59,0 -4.687,2.097 -4.687,4.687 v 41.516 c 0,2.363 1.746,4.316 4.015,4.64 V 43.527 c 0,-3.328 2.7,-6.027 6.028,-6.027 h 30.804 c 3.328,0 6.028,2.699 6.028,6.027 v 19.371 c 2.269,-0.324 4.015,-2.277 4.015,-4.64 V 23.531 c 0,-1.242 -0.492,-2.433 -1.371,-3.312 l -6.793,-6.793 c -0.879,-0.879 -2.07,-1.371 -3.312,-1.371 h -0.574 v 11.383 c 0,3.328 -2.7,6.027 -6.028,6.027 h -17.41 c -3.332,0 -6.027,-2.699 -6.027,-6.027 V 12.055 Z m 8.703,0 v 11.383 c 0,1.109 0.903,2.007 2.012,2.007 h 17.41 c 1.11,0 2.008,-0.898 2.008,-2.007 V 12.055 Z M 54.91,62.945 V 43.527 c 0,-1.109 -0.898,-2.007 -2.008,-2.007 H 22.098 c -1.11,0 -2.008,0.898 -2.008,2.007 V 62.945 Z M 8.035,16.742 c 0,-4.808 3.899,-8.707 8.707,-8.707 h 34.727 c 2.308,0 4.523,0.918 6.152,2.551 l 6.793,6.793 c 1.633,1.629 2.551,3.844 2.551,6.152 v 34.727 c 0,4.808 -3.899,8.707 -8.707,8.707 H 16.742 c -4.808,0 -8.707,-3.899 -8.707,-8.707 z"
       style="fill:#212121;fill-opacity:1;fill-rule:nonzero;stroke:none"
       transform="scale(1.3333333)" />
  </g>
</svg>





