<?xml version="1.0" encoding="UTF-8" standalone="no"?> <svg version="1.1" id="Iacf6c3439ade4780a6ef8c09d6fc87dd20251106163938" width="100" height="100" viewBox="0 0 100 100" xmlns="http://www.w3.org/2000/svg" xmlns:svg="http://www.w3.org/2000/svg"> <defs id="If807dd73371a46329fd78ab282ba082420251106163938" /> <g id="Ic228deee9fb64375898c179cfce8c37820251106163938"> <path id="If09411af79c8479ba379ed8e91eb7c0d20251106163938" d="M 23.203,8.844 C 23.758,7.289 25.23,6.25 26.883,6.25 h 20.168 c 2.668,0 4.547,2.613 3.707,5.141 L 46.219,25 H 58.59 c 3.453,0 5.207,4.145 2.808,6.625 l -2.101,2.168 C 57.008,30.137 51.285,30.414 49.59,34.711 L 43.523,50.074 26.832,67.301 c -3.293,3.398 -8.977,0.332 -7.941,-4.285 l 3.964,-17.715 -4.898,-0.02 C 14.184,45.27 11.559,41.531 12.824,37.98 Z m 33.652,27.015 11.719,29.672 c 0.473,1.207 -0.117,2.567 -1.32,3.043 -1.106,0.434 -2.34,-0.023 -2.906,-1.031 L 64.211,67.254 61.094,59.363 H 48.25 l -3.113,7.891 c -0.434,1.105 -1.617,1.691 -2.739,1.418 l -0.3,-0.098 C 40.992,68.137 40.406,66.957 40.68,65.836 l 0.097,-0.305 11.719,-29.672 c 0.274,-0.699 0.801,-1.152 1.402,-1.355 0.555,-0.192 1.168,-0.168 1.711,0.058 0.438,0.188 0.825,0.508 1.086,0.969 z m -6.753,18.817 h 9.14 l -4.57,-11.578 z" style="fill:currentColor;fill-opacity:1;fill-rule:nonzero;stroke:none" transform="scale(1.3333333)" /> </g>
</svg>

