<?xml version="1.0" encoding="UTF-8" standalone="no"?> <svg version="1.1" id="I520e7cfe210444ba93d274210c8cce9120251106171633" width="100" height="100" viewBox="0 0 100 100" xmlns="http://www.w3.org/2000/svg" xmlns:svg="http://www.w3.org/2000/svg"> <defs id="Ifedcde2e72a74c3f85a7688c05744cc720251106171633" /> <g id="I98ec0edf0f904bc99e0eeba355721c6f20251106171633"> <path id="I44c9491b0afc44a9b1e7cf321cdb8feb20251106171633" d="M 5.945,5.945 C 6.73,5.16 8,5.16 8.785,5.945 l 60.27,60.27 0.136,0.152 c 0.645,0.785 0.598,1.953 -0.136,2.688 -0.117,0.117 -0.25,0.207 -0.387,0.289 -2.375,1.789 -5.984,2.976 -11.078,2.976 -10.524,0 -14.735,-5.019 -14.735,-10.043 v -0.55 c 0,-3.024 2.457,-5.477 5.481,-5.477 h 5.074 l -2.68,-2.68 h -2.394 c -4.504,0 -8.156,3.653 -8.156,8.157 v 0.55 c 0,1.598 0.332,3.192 1.011,4.688 H 20.758 c -4.067,0 -7.363,-3.297 -7.363,-7.367 V 18.082 c 0,-0.57 0.066,-1.125 0.187,-1.656 L 5.945,8.785 C 5.16,8 5.16,6.73 5.945,5.945 Z M 66.84,56.25 c 3.027,0 5.48,2.453 5.48,5.477 v 0.55 c 0,0.481 -0.039,0.961 -0.121,1.434 -0.097,-0.113 -0.195,-0.231 -0.304,-0.34 L 64.773,56.25 Z M 57.59,37.5 c 4.437,0 8.035,3.598 8.035,8.035 0,3.133 -1.797,5.832 -4.406,7.16 L 50.426,41.906 C 51.754,39.293 54.461,37.5 57.59,37.5 Z M 26.117,48.215 c -1.109,0 -2.012,0.898 -2.012,2.008 0,1.109 0.903,2.007 2.012,2.007 h 9.375 l 0.207,-0.007 c 1.012,-0.106 1.801,-0.961 1.801,-2 0,-1.039 -0.789,-1.895 -1.801,-1.996 l -0.207,-0.012 z m 0,-12.055 c -1.109,0 -2.012,0.899 -2.012,2.008 0,1.109 0.903,2.012 2.012,2.012 H 37.336 L 33.32,36.16 Z M 51.562,5.355 c 1.11,0 2.008,0.903 2.008,2.012 v 3.348 h 0.672 c 4.067,0 7.363,3.297 7.363,7.367 V 35.605 C 60.367,35.102 59.012,34.82 57.59,34.82 c -3.863,0 -7.25,2.047 -9.137,5.114 L 36.648,28.125 h 12.235 l 0.207,-0.012 c 1.012,-0.101 1.805,-0.957 1.805,-1.996 0,-1.039 -0.793,-1.894 -1.805,-2 L 48.883,24.105 H 32.629 L 19.371,10.848 c 0.449,-0.086 0.914,-0.133 1.387,-0.133 H 21.43 V 7.367 c 0,-1.109 0.898,-2.012 2.008,-2.012 1.109,0 2.007,0.903 2.007,2.012 v 3.348 H 35.492 V 7.367 c 0,-1.109 0.899,-2.012 2.008,-2.012 1.109,0 2.008,0.903 2.008,2.012 v 3.348 H 49.555 V 7.367 c 0,-1.109 0.898,-2.012 2.007,-2.012 z" style="fill:currentColor;fill-opacity:1;fill-rule:nonzero;stroke:none" transform="scale(1.3333333)" /> </g>
</svg>

