<?xml version="1.0" encoding="UTF-8" standalone="no"?> <svg version="1.1" id="Ie01d2ee9ccde4e80a9eef8f02d66385a20251110130509" width="100" height="100" viewBox="0 0 100 100" xmlns="http://www.w3.org/2000/svg" xmlns:svg="http://www.w3.org/2000/svg"> <defs id="Ib90336ca484c4a339a984cfe55b6591f20251110130509" /> <g id="I1ec6f6910d4f4699b7bd9b7833292bf920251110130509"> <path id="I10006bab3a434ce58c63e8c9ac16694720251110130509" d="m 37.496,43.75 c 3.449,0 6.25,-2.797 6.25,-6.25 0,-3.453 -2.801,-6.25 -6.25,-6.25 -3.453,0 -6.25,2.797 -6.25,6.25 0,3.453 2.797,6.25 6.25,6.25 z M 18.746,37.5 c 0,-10.355 8.395,-18.75 18.75,-18.75 10.356,0 18.75,8.395 18.75,18.75 0,10.355 -8.394,18.75 -18.75,18.75 -10.355,0 -18.75,-8.395 -18.75,-18.75 z m 18.75,-14.062 c -7.769,0 -14.062,6.296 -14.062,14.062 0,7.766 6.293,14.062 14.062,14.062 7.766,0 14.063,-6.296 14.063,-14.062 0,-7.766 -6.297,-14.062 -14.063,-14.062 z M 6.238,37.5 C 6.238,20.238 20.23,6.242 37.496,6.242 54.758,6.242 68.75,20.238 68.75,37.5 68.75,54.762 54.758,68.758 37.496,68.758 20.23,68.758 6.238,54.762 6.238,37.5 Z M 37.496,10.93 c -14.676,0 -26.57,11.898 -26.57,26.57 0,14.676 11.894,26.57 26.57,26.57 14.672,0 26.566,-11.894 26.566,-26.57 0,-14.672 -11.894,-26.57 -26.566,-26.57 z" style="fill:currentColor;fill-opacity:1;fill-rule:nonzero;stroke:none" transform="scale(1.3333333)" /> </g>
</svg>

