<?xml version="1.0" encoding="UTF-8" standalone="no"?> <svg version="1.1" id="Ie94fc69476944d8fa7b1b7d78187219120251106132945" width="100" height="100" viewBox="0 0 100 100" xmlns="http://www.w3.org/2000/svg" xmlns:svg="http://www.w3.org/2000/svg"> <defs id="I67ab63271898448384a3b59fdfd65bd820251106132945" /> <g id="I386c41a3736d4629834d378de58d5d4320251106132945"> <path id="I28f1b8d4d6d74d8e9a3bc0df33605aea20251106132945" d="m 60.156,34.375 c 4.571,0 8.309,3.566 8.578,8.07 l 0.016,0.524 v 20.312 c 0,1.293 -1.051,2.344 -2.344,2.344 -1.187,0 -2.168,-0.883 -2.324,-2.027 l -0.02,-0.317 V 56.25 H 10.938 v 7.031 c 0,1.188 -0.883,2.168 -2.028,2.324 l -0.316,0.02 c -1.188,0 -2.168,-0.883 -2.324,-2.027 L 6.25,63.281 V 42.969 c 0,-4.571 3.566,-8.309 8.07,-8.578 l 0.524,-0.016 z M 21.094,12.5 h 32.812 c 4.571,0 8.309,3.566 8.578,8.07 L 62.5,21.094 V 31.25 h -9.375 l -0.02,-0.363 C 52.938,29.449 51.801,28.312 50.363,28.145 L 50,28.125 h -6.25 c -1.602,0 -2.922,1.207 -3.105,2.762 l -0.02,0.363 h -6.25 l -0.02,-0.363 C 34.188,29.449 33.051,28.312 31.613,28.145 L 31.25,28.125 H 25 c -1.602,0 -2.922,1.207 -3.105,2.762 l -0.02,0.363 H 12.5 V 21.094 c 0,-4.571 3.566,-8.309 8.07,-8.578 z" style="fill:currentColor;fill-opacity:1;fill-rule:nonzero;stroke:none" transform="scale(1.3333333)" /> </g>
</svg>

