<?xml version="1.0" encoding="UTF-8" standalone="no"?> <svg version="1.1" id="If7d0f9e9b9034ffeb85f7f41bd82a30e20251106155157" width="100" height="100" viewBox="0 0 100 100" xmlns="http://www.w3.org/2000/svg" xmlns:svg="http://www.w3.org/2000/svg"> <defs id="I0dc9875561cf42788d3890756526834320251106155157" /> <g id="Id257d095fed64ec785062a9f86a5ce3b20251106155157"> <path id="I3440873f68264ef9b4d805b93e9ad0d520251106155157" d="m 55.449,6.238 c 3.723,0 6.77,2.891 7.016,6.551 l 0.015,0.481 v 48.429 c 0,3.723 -2.89,6.77 -6.55,7.016 L 55.449,68.73 H 19.512 c -3.719,0 -6.766,-2.89 -7.016,-6.546 L 12.48,61.699 V 13.27 c 0,-3.723 2.891,-6.77 6.551,-7.016 l 0.481,-0.016 z m 0,4.688 H 19.512 c -1.184,0 -2.164,0.883 -2.321,2.023 l -0.023,0.321 v 48.429 c 0,1.188 0.883,2.168 2.027,2.324 l 0.317,0.02 h 35.937 c 1.188,0 2.168,-0.879 2.324,-2.023 l 0.02,-0.321 V 13.27 c 0,-1.188 -0.879,-2.168 -2.023,-2.325 z M 34.434,37.559 c -1.282,-0.2 -2.153,-1.403 -1.95,-2.68 l 0.325,-2.067 H 28.18 l -0.442,2.801 c -0.203,1.278 -1.402,2.149 -2.679,1.946 -1.282,-0.2 -2.153,-1.403 -1.95,-2.68 l 0.325,-2.067 H 21.09 c -1.293,0 -2.344,-1.046 -2.344,-2.343 0,-1.293 1.051,-2.344 2.344,-2.344 h 3.086 l 0.742,-4.687 h -2.266 c -1.293,0 -2.343,-1.047 -2.343,-2.344 0,-1.293 1.05,-2.344 2.343,-2.344 h 3.008 l 0.625,-3.934 c 0.203,-1.277 1.403,-2.152 2.68,-1.949 1.281,0.203 2.152,1.403 1.949,2.684 l -0.508,3.199 h 4.629 l 0.625,-3.934 c 0.203,-1.277 1.402,-2.152 2.68,-1.949 1.281,0.203 2.152,1.403 1.949,2.684 l -0.508,3.199 h 1.621 c 1.297,0 2.344,1.051 2.344,2.344 0,1.297 -1.047,2.344 -2.344,2.344 h -2.363 l -0.742,4.687 h 1.543 c 1.297,0 2.344,1.051 2.344,2.344 0,1.297 -1.047,2.343 -2.344,2.343 h -2.285 l -0.442,2.801 c -0.203,1.278 -1.402,2.149 -2.679,1.946 z m -4.77,-14.121 -0.742,4.687 h 4.629 l 0.742,-4.687 z" style="fill:currentColor;fill-opacity:1;fill-rule:nonzero;stroke:none" transform="scale(1.3333333)" /> </g>
</svg>

