<?xml version="1.0" encoding="UTF-8" standalone="no"?> <svg version="1.1" id="I2ae15c60fc854eebb3d0993cfb977fc020251110123031" width="100" height="100" viewBox="0 0 100 100" xmlns="http://www.w3.org/2000/svg" xmlns:svg="http://www.w3.org/2000/svg"> <defs id="I83fc490d352a443a84d7f7ad01f4bedc20251110123031" /> <g id="Id80a3b5feb6f43acb91d914c1327f25f20251110123031"> <path id="Idb7e0d9b3d124d018580f75c7dcf3e5f20251110123031" d="m 31.25,34.375 c 3.453,0 6.25,-2.797 6.25,-6.25 V 12.5 C 37.5,9.047 34.703,6.25 31.25,6.25 H 9.375 c -3.453,0 -6.25,2.797 -6.25,6.25 v 15.625 c 0,2.375 1.324,4.437 3.27,5.496 0.886,0.481 1.902,0.754 2.98,0.754 z m 0,3.125 H 9.375 C 8.277,37.5 7.227,37.312 6.25,36.965 v 18.504 c 0,5.609 4.547,10.156 10.156,10.156 h 42.188 c 5.609,0 10.156,-4.547 10.156,-10.156 V 25.781 c 0,-5.609 -4.547,-10.156 -10.156,-10.156 H 40.625 v 12.5 c 0,5.18 -4.195,9.375 -9.375,9.375 z M 44.531,50 h 5.278 l -8.497,-8.5 c -0.917,-0.914 -0.917,-2.398 0,-3.312 0.915,-0.918 2.399,-0.918 3.313,0 l 8.5,8.496 v -5.278 c 0,-1.293 1.051,-2.344 2.344,-2.344 1.293,0 2.343,1.051 2.343,2.344 v 10.938 c 0,1.293 -1.05,2.344 -2.343,2.344 H 44.531 c -1.293,0 -2.343,-1.051 -2.343,-2.344 0,-1.293 1.05,-2.344 2.343,-2.344 z" style="fill:currentColor;fill-opacity:1;fill-rule:nonzero;stroke:none" transform="scale(1.3333333)" /> </g>
</svg>

