<?xml version="1.0" encoding="UTF-8" standalone="no"?> <svg version="1.1" id="Ia43085420de043c8b8e1200855a23dba20251106154011" width="100" height="100" viewBox="0 0 100 100" xmlns="http://www.w3.org/2000/svg" xmlns:svg="http://www.w3.org/2000/svg"> <defs id="I4572622591f24dc69ab6f7ad52c30c2920251106154011" /> <g id="I34d87cf1f4824791bfcee2a9920381be20251106154011"> <path id="I8215a4ce9d1a42ac98e3d426cb8490f720251106154011" d="m 17.965,9.375 c 3.883,0 7.031,3.148 7.031,7.027 v 42.196 c 0,3.879 -3.148,7.027 -7.031,7.027 -3.879,0 -7.027,-3.148 -7.027,-7.027 V 16.402 c 0,-3.879 3.148,-7.027 7.027,-7.027 z m 20.312,12.5 c 3.883,0 7.032,3.148 7.032,7.027 v 29.696 c 0,3.879 -3.149,7.027 -7.032,7.027 -3.879,0 -7.027,-3.148 -7.027,-7.027 V 28.902 c 0,-3.879 3.148,-7.027 7.027,-7.027 z m 20.313,12.5 c 3.883,0 7.031,3.148 7.031,7.027 v 17.196 c 0,3.879 -3.148,7.027 -7.031,7.027 -3.879,0 -7.028,-3.148 -7.028,-7.027 V 41.402 c 0,-3.879 3.149,-7.027 7.028,-7.027 z" style="fill:currentColor;fill-opacity:1;fill-rule:nonzero;stroke:none" transform="scale(1.3333333)" /> </g>
</svg>

