<?xml version="1.0" encoding="UTF-8" standalone="no"?> <svg version="1.1" id="I1d3f9086e87149b3b40976c3e6a2aa6620251106143238" width="100" height="100" viewBox="0 0 100 100" xmlns="http://www.w3.org/2000/svg" xmlns:svg="http://www.w3.org/2000/svg"> <defs id="Ie8d55bc667ec4a66a6a2eacd5426bef420251106143238" /> <g id="Ibd076a601a6c486a81826d7a8fa5efbf20251106143238"> <path id="I9882ada805054e5e9e59cc67131e290320251106143238" d="m 65.625,26.562 v 11.004 c -3.156,-2.019 -6.91,-3.191 -10.937,-3.191 -11.219,0 -20.313,9.094 -20.313,20.313 0,4.027 1.172,7.781 3.191,10.937 H 19.531 C 13.922,65.625 9.375,61.078 9.375,55.469 V 26.562 Z M 55.469,9.375 c 5.609,0 10.156,4.547 10.156,10.156 v 2.344 H 9.375 v -2.344 c 0,-5.609 4.547,-10.156 10.156,-10.156 z m -0.781,62.5 c 9.492,0 17.187,-7.695 17.187,-17.187 C 71.875,45.195 64.18,37.5 54.688,37.5 45.195,37.5 37.5,45.195 37.5,54.688 c 0,9.492 7.695,17.187 17.188,17.187 z m -2.825,-25 c 0.364,0 0.692,0.102 0.992,0.305 l 8.77,5.75 c 0.273,0.175 0.484,0.406 0.641,0.695 0.156,0.285 0.234,0.594 0.234,0.93 0,0.324 -0.074,0.633 -0.223,0.929 -0.039,0.078 -0.082,0.149 -0.129,0.219 -0.132,0.195 -0.296,0.359 -0.496,0.492 l -8.769,5.981 c -0.117,0.078 -0.235,0.144 -0.356,0.191 -0.047,0.02 -0.093,0.039 -0.14,0.051 -0.16,0.055 -0.336,0.082 -0.524,0.082 -0.246,0 -0.48,-0.051 -0.707,-0.152 C 50.93,62.242 50.727,62.098 50.551,61.926 50.383,61.742 50.25,61.531 50.145,61.297 50.047,61.062 50,60.816 50,60.559 V 48.816 c 0,-0.261 0.047,-0.511 0.145,-0.75 0.105,-0.234 0.238,-0.441 0.406,-0.613 0.172,-0.176 0.367,-0.316 0.594,-0.418 0.226,-0.105 0.464,-0.16 0.718,-0.16 z" style="fill:currentColor;fill-opacity:1;fill-rule:nonzero;stroke:none" transform="scale(1.3333333)" /> </g>
</svg>

