<?xml version="1.0" encoding="UTF-8" standalone="no"?> <svg version="1.1" id="Ice2ba5f9d2074c0ca191a30c41d0855d20251106123600" width="100" height="100" viewBox="0 0 100 100" xmlns="http://www.w3.org/2000/svg" xmlns:svg="http://www.w3.org/2000/svg"> <defs id="I69ffcd9f7a644cf28c857fb200e6814e20251106123600" /> <g id="I435a086dd9474f4dabd9f94edf3617ac20251106123600"> <path id="Ia220235f1dd54a6bb8377db46a9d2c0f20251106123600" d="m 20.312,7.031 c 0,-1.726 -1.398,-3.125 -3.124,-3.125 -1.727,0 -3.126,1.399 -3.126,3.125 v 0.781 c 0,4.317 3.497,7.813 7.813,7.813 h 31.25 c 4.316,0 7.813,-3.496 7.813,-7.813 V 7.031 c 0,-1.726 -1.399,-3.125 -3.126,-3.125 -1.726,0 -3.124,1.399 -3.124,3.125 v 0.781 c 0,0.864 -0.7,1.563 -1.563,1.563 h -31.25 c -0.863,0 -1.563,-0.699 -1.563,-1.563 z m 17.188,12.5 c 1.727,0 3.125,1.399 3.125,3.125 v 22.145 l 8.727,-8.731 c 1.222,-1.218 3.199,-1.218 4.421,0 1.219,1.223 1.219,3.2 0,4.422 L 39.711,54.555 c -1.223,1.218 -3.199,1.218 -4.422,0 L 21.227,40.492 c -1.219,-1.222 -1.219,-3.199 0,-4.422 1.222,-1.218 3.199,-1.218 4.421,0 l 8.727,8.731 V 22.656 c 0,-1.726 1.398,-3.125 3.125,-3.125 z M 14.062,67.188 c 0,-4.317 3.497,-7.813 7.813,-7.813 h 31.25 c 4.316,0 7.813,3.496 7.813,7.813 v 0.781 c 0,1.726 -1.399,3.125 -3.126,3.125 -1.726,0 -3.124,-1.399 -3.124,-3.125 v -0.781 c 0,-0.864 -0.7,-1.563 -1.563,-1.563 h -31.25 c -0.863,0 -1.563,0.699 -1.563,1.563 v 0.781 c 0,1.726 -1.398,3.125 -3.124,3.125 -1.727,0 -3.126,-1.399 -3.126,-3.125 z" style="fill:currentColor;fill-opacity:1;fill-rule:nonzero;stroke:none" transform="scale(1.3333333)" /> </g>
</svg>

