<?xml version="1.0" encoding="UTF-8" standalone="no"?> <svg version="1.1" id="Icf4f0d38eb0c4e808a10f17771ef75a820251106151526" width="100" height="100" viewBox="0 0 100 100" xmlns="http://www.w3.org/2000/svg" xmlns:svg="http://www.w3.org/2000/svg"> <defs id="Ib7cf58b440db47b084144ff7f257c76820251106151526" /> <g id="Ib850294e721049ad9645de12c1896e1920251106151526"> <path id="I3c09cdf5235b43f2ab24d71182ce92b320251106151526" d="m 14.062,34.375 c 0,-14.672 11.891,-26.563 26.563,-26.563 14.672,0 26.563,11.891 26.563,26.563 0,14.672 -11.891,26.563 -26.563,26.563 -2.152,0 -4.242,-0.254 -6.246,-0.739 v 3.863 c 0,0.313 -0.012,0.626 -0.039,0.93 2.031,0.414 4.133,0.633 6.285,0.633 17.258,0 31.25,-13.992 31.25,-31.25 0,-17.258 -13.992,-31.25 -31.25,-31.25 -17.258,0 -31.25,13.992 -31.25,31.25 v 0.109 c 0.512,-0.07 1.035,-0.109 1.566,-0.109 z m 26.54,-16.723 c -0.153,-1.144 -1.133,-2.027 -2.321,-2.027 -1.293,0 -2.343,1.051 -2.343,2.344 v 18.75 l 0.023,0.316 c 0.152,1.145 1.133,2.027 2.32,2.027 h 12.5 l 0.317,-0.023 c 1.144,-0.152 2.027,-1.133 2.027,-2.32 0,-1.293 -1.051,-2.344 -2.344,-2.344 H 40.625 V 17.969 Z M 3.125,45.312 c 0,-4.316 3.496,-7.812 7.813,-7.812 h 12.5 c 4.316,0 7.812,3.496 7.812,7.812 v 18.75 c 0,4.317 -3.496,7.813 -7.812,7.813 h -12.5 c -4.317,0 -7.813,-3.496 -7.813,-7.813 z M 23.438,43.75 h -12.5 c -0.864,0 -1.563,0.699 -1.563,1.562 0,0.864 0.699,1.563 1.563,1.563 h 12.5 C 24.301,46.875 25,46.176 25,45.312 25,44.449 24.301,43.75 23.438,43.75 Z m 0,9.375 h -12.5 c -0.864,0 -1.563,0.699 -1.563,1.563 0,0.863 0.699,1.562 1.563,1.562 h 12.5 c 0.863,0 1.562,-0.699 1.562,-1.562 0,-0.864 -0.699,-1.563 -1.562,-1.563 z m 0,9.375 h -12.5 c -0.864,0 -1.563,0.699 -1.563,1.562 0,0.864 0.699,1.563 1.563,1.563 h 12.5 C 24.301,65.625 25,64.926 25,64.062 25,63.199 24.301,62.5 23.438,62.5 Z" style="fill:currentColor;fill-opacity:1;fill-rule:nonzero;stroke:none" transform="scale(1.3333333)" /> </g>
</svg>

