<?xml version="1.0" encoding="UTF-8" standalone="no"?> <svg version="1.1" id="Ia519b54642584fab85fb975b238f527020251106165301" width="100" height="100" viewBox="0 0 100 100" xmlns="http://www.w3.org/2000/svg" xmlns:svg="http://www.w3.org/2000/svg"> <defs id="Ieb286678b2d74193a25e80b98b53655c20251106165301" /> <g id="Ie149ed376eea4d4395b751fdac07c87320251106165301"> <path id="I997142efcfa74a0ab76022f18394fb2720251106165301" d="M 42.434,6.512 C 39.59,4.094 35.41,4.094 32.566,6.512 L 9.715,25.934 c -1.703,1.449 -2.684,3.57 -2.684,5.804 v 30.375 c 0,3.235 2.625,5.86 5.86,5.86 h 23.254 c -0.598,-1.012 -0.989,-2.188 -0.989,-3.516 v -21.68 h 0.028 c 0.164,-1.894 1.125,-3.457 2.277,-4.621 1.25,-1.269 2.887,-2.25 4.633,-3 3.5,-1.5 8.094,-2.34 12.984,-2.34 4.844,0 9.399,0.825 12.891,2.301 v -3.379 c 0,-2.234 -0.981,-4.355 -2.684,-5.804 z m 25.535,45.093 c -3.492,1.477 -8.047,2.305 -12.891,2.305 -4.89,0 -9.484,-0.844 -12.984,-2.344 -1.227,-0.527 -2.399,-1.168 -3.422,-1.941 v 14.832 c 0,1.277 0.801,2.481 2.195,3.516 2.836,2.101 8.137,3.515 14.211,3.515 9.063,0 16.406,-3.148 16.406,-7.031 V 49.625 c -1.023,0.773 -2.195,1.414 -3.422,1.941 -0.031,0.012 -0.062,0.028 -0.093,0.039 z M 40.16,46.293 c -0.07,-0.066 -0.137,-0.129 -0.199,-0.195 -0.828,-0.84 -1.289,-1.766 -1.289,-2.735 0,-0.199 0.019,-0.394 0.055,-0.586 0.695,-3.609 7.75,-6.445 16.351,-6.445 5.231,0 9.887,1.047 12.891,2.68 2.203,1.195 3.515,2.707 3.515,4.351 0,1.043 -0.531,2.035 -1.488,2.93 -0.543,0.508 -1.226,0.984 -2.027,1.418 -3.004,1.633 -7.66,2.684 -12.891,2.684 -6.621,0 -12.328,-1.684 -14.918,-4.102 z" style="fill:currentColor;fill-opacity:1;fill-rule:nonzero;stroke:none" transform="scale(1.3333333)" /> </g>
</svg>

