<?xml version="1.0" encoding="UTF-8" standalone="no"?> <svg version="1.1" id="I4f17efeb49264c68ba3a3b015a5327e920251110124419" width="100" height="100" viewBox="0 0 100 100" xmlns="http://www.w3.org/2000/svg" xmlns:svg="http://www.w3.org/2000/svg"> <defs id="Ic3f391e2121a45118ed64be2e58b1b2720251110124419" /> <g id="Ia35f86c38ec34c92ad31492f7a7e4e6120251110124419"> <path id="I71968c33161d4801a9eb73d017ceff9320251110124419" d="M 67.363,8.656 C 67.27,8.43 67.129,8.223 66.957,8.051 66.781,7.875 66.57,7.734 66.344,7.641 66.113,7.547 65.867,7.5 65.621,7.5 c -0.25,0 -0.496,0.051 -0.723,0.148 -0.23,0.098 -0.433,0.239 -0.609,0.414 L 54.164,18.188 c -2.91,-2.262 -6.551,-3.387 -10.234,-3.157 -3.68,0.227 -7.153,1.793 -9.762,4.403 l -2.289,2.293 c -0.367,0.363 -0.656,0.796 -0.856,1.277 -0.195,0.476 -0.296,0.988 -0.296,1.504 0,0.519 0.101,1.031 0.296,1.508 0.2,0.48 0.489,0.914 0.856,1.277 l 10.402,10.375 c 1.035,-0.75 2.145,-1.41 3.313,-1.961 l -9.899,-9.898 c -0.343,-0.344 -0.535,-0.813 -0.535,-1.301 0,-0.485 0.192,-0.953 0.535,-1.297 l 1.125,-1.125 c 2.129,-2.137 5.02,-3.336 8.035,-3.34 3.012,-0.004 5.907,1.188 8.043,3.316 l 0.02,0.043 0.023,0.02 c 2.118,2.137 3.305,5.027 3.301,8.035 0,1.246 -0.207,2.473 -0.601,3.629 1.297,0.078 2.558,0.277 3.777,0.582 0.312,-1.07 0.508,-2.18 0.578,-3.309 0.231,-3.683 -0.894,-7.324 -3.164,-10.234 L 66.957,10.703 c 0.172,-0.172 0.313,-0.379 0.406,-0.609 0.094,-0.227 0.145,-0.469 0.145,-0.719 0,-0.246 -0.051,-0.488 -0.145,-0.719 z M 27.297,31.875 37.68,42.262 c -0.754,1.039 -1.41,2.148 -1.965,3.316 l -9.887,-9.883 c -0.344,-0.343 -0.808,-0.539 -1.297,-0.539 -0.484,0 -0.953,0.196 -1.297,0.539 l -1.125,1.125 c -2.129,2.129 -3.328,5.02 -3.332,8.032 -0.004,3.015 1.184,5.906 3.309,8.043 l 0.023,0.023 0.02,0.023 c 1.055,1.055 2.309,1.891 3.691,2.461 1.379,0.571 2.86,0.864 4.352,0.86 1.23,0 2.453,-0.203 3.617,-0.598 0.078,1.281 0.273,2.527 0.578,3.734 -1.066,0.313 -2.168,0.504 -3.293,0.575 -3.679,0.23 -7.32,-0.895 -10.23,-3.161 L 10.719,66.938 c -0.176,0.179 -0.383,0.32 -0.61,0.417 -0.23,0.098 -0.472,0.145 -0.722,0.149 -0.246,0 -0.492,-0.047 -0.723,-0.141 C 8.434,67.27 8.227,67.129 8.051,66.953 7.875,66.781 7.738,66.574 7.645,66.344 7.547,66.117 7.5,65.875 7.5,65.625 7.5,65.379 7.547,65.137 7.645,64.906 7.738,64.68 7.875,64.473 8.051,64.301 L 18.176,54.176 c -2.27,-2.91 -3.395,-6.551 -3.168,-10.235 0.23,-3.683 1.801,-7.156 4.414,-9.761 l 2.305,-2.305 c 0.367,-0.363 0.8,-0.652 1.277,-0.852 0.476,-0.199 0.992,-0.3 1.508,-0.3 0.515,0 1.027,0.101 1.508,0.3 0.476,0.2 0.91,0.489 1.277,0.852 z M 63.75,68.406 c -2.773,1.856 -6.039,2.844 -9.375,2.844 -4.477,0 -8.77,-1.777 -11.934,-4.941 C 39.277,63.145 37.5,58.852 37.5,54.375 c 0,-3.336 0.988,-6.598 2.844,-9.375 1.855,-2.773 4.488,-4.938 7.574,-6.215 3.082,-1.277 6.477,-1.609 9.75,-0.957 3.273,0.649 6.277,2.258 8.641,4.617 2.359,2.36 3.964,5.367 4.617,8.641 0.652,3.273 0.316,6.664 -0.961,9.75 -1.277,3.082 -3.442,5.719 -6.215,7.57 z M 55.699,45.551 C 55.348,45.199 54.871,45 54.375,45 53.879,45 53.402,45.199 53.051,45.551 52.699,45.902 52.5,46.379 52.5,46.875 V 52.5 h -5.625 c -0.496,0 -0.973,0.199 -1.324,0.551 C 45.199,53.402 45,53.879 45,54.375 c 0,0.5 0.199,0.977 0.551,1.328 0.351,0.352 0.828,0.547 1.324,0.547 H 52.5 v 5.625 c 0,0.5 0.199,0.977 0.551,1.328 0.351,0.352 0.828,0.547 1.324,0.547 0.496,0 0.973,-0.195 1.324,-0.547 0.352,-0.351 0.551,-0.828 0.551,-1.328 V 56.25 h 5.625 c 0.496,0 0.973,-0.195 1.324,-0.547 0.352,-0.351 0.551,-0.828 0.551,-1.328 0,-0.496 -0.199,-0.973 -0.551,-1.324 C 62.848,52.699 62.371,52.5 61.875,52.5 H 56.25 v -5.625 c 0,-0.496 -0.199,-0.973 -0.551,-1.324 z" style="fill:currentColor;fill-opacity:1;fill-rule:nonzero;stroke:none" transform="scale(1.3333333)" /> </g>
</svg>

