<?xml version="1.0" encoding="UTF-8" standalone="no"?> <svg version="1.1" id="I7f2ec7817ef54c5286cedd7e1f98d1e820251106154012" width="100" height="100" viewBox="0 0 100 100" xmlns="http://www.w3.org/2000/svg" xmlns:svg="http://www.w3.org/2000/svg"> <defs id="Ib84126c219084290a9fda17d252687dd20251106154012" /> <g id="I8fd576689c764ed79acd55f6213696d820251106154012"> <path id="Ie4d310c42f86431f81dbfb42591cfa8e20251106154012" d="m 15,18.75 c 0,-3.777 3.281,-6.582 7.125,-8.336 C 26.992,8.391 32.23,7.398 37.5,7.5 42.77,7.398 48.008,8.391 52.875,10.414 56.719,12.168 60,14.973 60,18.75 v 11.48 c -1.227,-0.308 -2.523,-0.308 -3.75,0.004 v -5.109 c -1.051,0.773 -2.184,1.434 -3.375,1.969 C 48.004,29.113 42.77,30.102 37.5,30 32.23,30.102 26.992,29.109 22.125,27.086 20.934,26.555 19.801,25.895 18.75,25.125 V 56.25 c 0,1.402 1.336,3.281 4.941,4.922 4.379,1.797 9.079,2.676 13.809,2.578 h 0.016 c 0,1.336 0.367,2.629 1.019,3.754 C 38.191,67.508 37.844,67.508 37.5,67.5 32.23,67.602 26.992,66.609 22.125,64.586 18.281,62.832 15,60.027 15,56.25 Z m 3.75,0 c 0,1.402 1.336,3.281 4.941,4.922 4.379,1.797 9.079,2.676 13.809,2.578 4.73,0.098 9.43,-0.781 13.809,-2.578 3.605,-1.641 4.941,-3.52 4.941,-4.922 0,-1.402 -1.336,-3.281 -4.941,-4.926 C 46.93,12.031 42.23,11.152 37.5,11.25 32.77,11.152 28.07,12.031 23.691,13.824 20.086,15.469 18.75,17.348 18.75,18.75 Z M 54.762,35.824 41.652,62.07 c -1.25,2.496 0.567,5.43 3.356,5.43 h 26.234 c 2.789,0 4.606,-2.938 3.356,-5.43 L 61.477,35.824 c -1.383,-2.765 -5.332,-2.765 -6.715,0 z m 5.23,7.281 v 11.262 c 0,1.035 -0.84,1.875 -1.875,1.875 -1.035,0 -1.875,-0.84 -1.875,-1.875 V 43.105 c 0,-1.035 0.84,-1.875 1.875,-1.875 1.035,0 1.875,0.84 1.875,1.875 z m -1.875,20.641 c -1.035,0 -1.875,-0.84 -1.875,-1.875 0,-1.035 0.84,-1.875 1.875,-1.875 1.035,0 1.875,0.84 1.875,1.875 0,1.035 -0.84,1.875 -1.875,1.875 z" style="fill:currentColor;fill-opacity:1;fill-rule:nonzero;stroke:none" transform="scale(1.3333333)" /> </g>
</svg>

