<?xml version="1.0" encoding="UTF-8" standalone="no"?> <svg version="1.1" id="I32c5d6bcf4954d59bcdabea2c2bb5bea20251106132945" width="100" height="100" viewBox="0 0 100 100" xmlns="http://www.w3.org/2000/svg" xmlns:svg="http://www.w3.org/2000/svg"> <defs id="I298fbe0e1f284bcb89e1e14dfdc56c6820251106132945" /> <g id="Ieee61390a2434fb5a0ed1315cc0b29be20251106132945"> <path id="I83291e2fe9524952ab8f430e28753bb820251106132945" d="m 62.5,9.375 c 1.727,0 3.125,1.398 3.125,3.125 v 15.625 c 0,1.727 -1.398,3.125 -3.125,3.125 -1.727,0 -3.125,-1.398 -3.125,-3.125 V 20.043 L 41.273,38.148 c -0.585,0.586 -1.382,0.914 -2.211,0.914 -0.828,0 -1.624,-0.328 -2.21,-0.914 L 31.25,32.543 14.711,49.086 c -1.223,1.219 -3.199,1.219 -4.422,0 -1.219,-1.223 -1.219,-3.199 0,-4.422 l 18.75,-18.75 C 29.625,25.328 30.422,25 31.25,25 c 0.828,0 1.625,0.328 2.211,0.914 l 5.601,5.606 15.895,-15.895 h -8.082 c -1.727,0 -3.125,-1.398 -3.125,-3.125 0,-1.727 1.398,-3.125 3.125,-3.125 z m 9.375,45.313 c 0,9.492 -7.695,17.187 -17.187,17.187 C 45.195,71.875 37.5,64.18 37.5,54.688 37.5,45.195 45.195,37.5 54.688,37.5 c 9.492,0 17.187,7.695 17.187,17.188 z m -6.707,-7.356 c -0.609,-0.609 -1.602,-0.609 -2.211,0 L 51.562,58.727 46.418,53.582 c -0.609,-0.609 -1.602,-0.609 -2.211,0 -0.609,0.609 -0.609,1.602 0,2.211 l 6.25,6.25 c 0.609,0.609 1.602,0.609 2.211,0 l 12.5,-12.5 c 0.609,-0.609 0.609,-1.602 0,-2.211 z" style="fill:currentColor;fill-opacity:1;fill-rule:nonzero;stroke:none" transform="scale(1.3333333)" /> </g>
</svg>

