<?xml version="1.0" encoding="UTF-8" standalone="no"?> <svg version="1.1" id="I5d5562d95b0f459eaedc49e3dcb4637420251106123559" width="100" height="100" viewBox="0 0 100 100" xmlns="http://www.w3.org/2000/svg" xmlns:svg="http://www.w3.org/2000/svg"> <defs id="Id4afecdddb9b4791aa49fb15647da8d520251106123559" /> <g id="I3f5bf703b9bd40219b6a5bbe990f5ac820251106123559"> <path id="I24ef31c938504e6aa14a5db199dcb09920251106123559" d="m 31.25,28.125 c 0,-3.453 2.797,-6.25 6.25,-6.25 H 50 c 3.453,0 6.25,2.797 6.25,6.25 v 3.125 c 0,3.453 -2.797,6.25 -6.25,6.25 H 37.5 c -3.453,0 -6.25,-2.797 -6.25,-6.25 z m 6.25,-1.563 c -0.863,0 -1.562,0.7 -1.562,1.563 v 3.125 c 0,0.863 0.699,1.562 1.562,1.562 H 50 c 0.863,0 1.562,-0.699 1.562,-1.562 v -3.125 c 0,-0.863 -0.699,-1.563 -1.562,-1.563 z M 12.5,12.5 c -3.453,0 -6.25,2.797 -6.25,6.25 v 37.5 c 0,3.453 2.797,6.25 6.25,6.25 h 50 c 3.453,0 6.25,-2.797 6.25,-6.25 v -37.5 c 0,-3.453 -2.797,-6.25 -6.25,-6.25 z m 50,4.688 c 0.863,0 1.562,0.699 1.562,1.562 v 37.5 c 0,0.863 -0.699,1.562 -1.562,1.562 H 23.438 V 17.188 Z m -50,0 h 6.25 V 57.812 H 12.5 c -0.863,0 -1.562,-0.699 -1.562,-1.562 v -37.5 c 0,-0.863 0.699,-1.562 1.562,-1.562 z" style="fill:currentColor;fill-opacity:1;fill-rule:nonzero;stroke:none" transform="scale(1.3333333)" /> </g>
</svg>

