<?xml version="1.0" encoding="UTF-8" standalone="no"?> <svg version="1.1" id="Ib961aa649a064f3ca334a70bc407ba1020251110123029" width="100" height="100" viewBox="0 0 100 100" xmlns="http://www.w3.org/2000/svg" xmlns:svg="http://www.w3.org/2000/svg"> <defs id="I6aeefcf0521344e2844fdffce08f2fa520251110123029" /> <g id="Id3718b4948a14a31be8e802fd33c203020251110123029"> <path id="I08e684e117f246deb910fc4fa1811b1620251110123029" d="m 5.367,20.758 c 0,-5.547 4.496,-10.043 10.047,-10.043 h 44.184 c 5.55,0 10.047,4.496 10.047,10.043 v 30.804 c 0,5.547 -4.497,10.043 -10.047,10.043 H 15.414 C 9.863,61.605 5.367,57.109 5.367,51.562 Z M 15.414,14.73 c -3.332,0 -6.027,2.7 -6.027,6.028 v 30.804 c 0,3.329 2.695,6.028 6.027,6.028 h 8.691 V 14.73 Z M 28.125,30.805 V 57.59 h 31.473 c 3.332,0 6.027,-2.699 6.027,-6.028 V 30.805 Z m 37.5,-4.02 v -6.027 c 0,-3.328 -2.695,-6.028 -6.027,-6.028 H 28.125 v 12.055 z" style="fill:currentColor;fill-opacity:1;fill-rule:nonzero;stroke:none" transform="scale(1.3333333)" /> </g>
</svg>

