<?xml version="1.0" encoding="UTF-8" standalone="no"?> <svg version="1.1" id="I182be222ff234230bdbb4fc4c7d3fa8420251110133654" width="100" height="100" viewBox="0 0 100 100" xmlns="http://www.w3.org/2000/svg" xmlns:svg="http://www.w3.org/2000/svg"> <defs id="I4fb7a190b54f471b9d08256ddd47fc5c20251110133654"> <radialGradient fx="0" fy="0" cx="0" cy="0" r="1" gradientUnits="userSpaceOnUse" gradientTransform="matrix(15.827859,55.421659,-97.552216,27.859915,53.814911,10.538063)" spreadMethod="pad" id="Id682752921bc4cddbb89f88573e4613a20251110133654"> <stop style="stop-opacity:1;stop-color:#f08af4" offset="0" id="I572572852e7a47cca4c341b9b6aa876420251110133654" /> <stop style="stop-opacity:1;stop-color:#f08af4" offset="0.0810009" id="Ib4d2c233b5824956b6ef4cde0cd2eb0d20251110133654" /> <stop style="stop-opacity:1;stop-color:#9c6cfe" offset="0.393858" id="I441ed85d3d034307bc477ec4420aec7520251110133654" /> <stop style="stop-opacity:1;stop-color:#4e44db" offset="1" id="I49205f76528841428da75fbd4ab7efda20251110133654" /> </radialGradient> <linearGradient x1="16.611099" y1="14" x2="25.990999" y2="13.7087" gradientUnits="userSpaceOnUse" gradientTransform="scale(2.678571)" spreadMethod="pad" id="Ie378cf502e5b48f48e186350fdc17a7820251110133654"> <stop style="stop-opacity:0.75001144;stop-color:#312a9a" offset="0" id="Ic02aab02546540c58f86ed67458d7a4920251110133654" /> <stop style="stop-opacity:0;stop-color:#312a9a" offset="1" id="Ia5e7eaa95544420cb0284622c6756aa420251110133654" /> </linearGradient> <radialGradient fx="0" fy="0" cx="0" cy="0" r="1" gradientUnits="userSpaceOnUse" gradientTransform="matrix(49.308907,45.357432,-94.973267,103.2472,-2.433903,17.856884)" spreadMethod="pad" id="If866279b78024f1f862f5f46c8760ec020251110133654"> <stop style="stop-opacity:1;stop-color:#f08af4" offset="0" id="I6769980cba8f41478d65687221a02f5520251110133654" /> <stop style="stop-opacity:1;stop-color:#9c6cfe" offset="0.341244" id="Ie44e62ea6465412fb39ed4bf066d5f3620251110133654" /> <stop style="stop-opacity:1;stop-color:#4e44db" offset="1" id="I7798831fc8bc4b1e97d8b1e11098015520251110133654" /> </radialGradient> <linearGradient x1="4.7727799" y1="16" x2="6.0096798" y2="21.4065" gradientUnits="userSpaceOnUse" gradientTransform="scale(2.678571)" spreadMethod="pad" id="Iaaf77a090a8d490e85e021dcb536b54f20251110133654"> <stop style="stop-opacity:1;stop-color:#3b148a" offset="0" id="I08a584c8ab9c4dd3811f24e23ba0e41d20251110133654" /> <stop style="stop-opacity:1;stop-color:#4b20a0" offset="1" id="I7a718c0086a54bbf8ada00107509df4c20251110133654" /> </linearGradient> <clipPath clipPathUnits="userSpaceOnUse" id="I2001dee706dd4b7a81722c81525885cb20251110133654"> <path d="M 0,0 H 76 V 76 H 0 Z" id="Iaeface2b2a5a426c9ef2a4137d01993920251110133654" /> </clipPath> </defs> <g id="Iab02ac4ca13b41beb14b6112978226f520251110133654"> <path id="Ic7d2520922a948079df9e50455700b0020251110133654" d="M 36.16,37.5 62.527,19.57 c 3.024,-2.054 7.118,0.11 7.118,3.766 v 28.328 c 0,3.656 -4.094,5.82 -7.118,3.766 z" transform="scale(1.3333333)" style="fill:url(#Id682752921bc4cddbb89f88573e4613a20251110133654);stroke:none" /> <path d="M 36.16,37.5 62.527,19.57 c 3.024,-2.054 7.118,0.11 7.118,3.766 v 28.328 c 0,3.656 -4.094,5.82 -7.118,3.766 z" transform="scale(1.3333333)" style="fill:url(#Ie378cf502e5b48f48e186350fdc17a7820251110133654);stroke:none" opacity="1" id="I97cf206a003f4dee8054eafcb45e919e20251110133654" /> <path id="Ib7c1927e2eff492fa7b901df4a22671620251110133654" d="m 5.355,26.117 c 0,-5.547 4.5,-10.047 10.047,-10.047 h 22.766 c 5.551,0 10.047,4.5 10.047,10.047 v 22.766 c 0,5.547 -4.496,10.047 -10.047,10.047 H 15.402 C 9.855,58.93 5.355,54.43 5.355,48.883 Z" transform="scale(1.3333333)" style="fill:url(#If866279b78024f1f862f5f46c8760ec020251110133654);stroke:none" /> <g opacity="0.5" id="I1dd064688e244d59aa98234b526fbd9d20251110133654"> <path d="m 13.395,48.215 c 0,-2.961 2.398,-5.36 5.355,-5.36 h 16.07 c 2.961,0 5.36,2.399 5.36,5.36 0,2.957 -2.399,5.355 -5.36,5.355 H 18.75 c -2.957,0 -5.355,-2.398 -5.355,-5.355 z" transform="scale(1.3333333)" style="fill:url(#Iaaf77a090a8d490e85e021dcb536b54f20251110133654);stroke:none" opacity="1" clip-path="url(#I2001dee706dd4b7a81722c81525885cb20251110133654)" id="I972033e92fb74e13bc9e96efbba2207620251110133654" /> </g> <path id="I9d65cc7cd0e049979f4cf43d0e17957220251110133654" d="m 18.75,45.535 c -1.48,0 -2.68,1.199 -2.68,2.68 0,1.48 1.2,2.68 2.68,2.68 h 8.035 c 1.481,0 2.68,-1.2 2.68,-2.68 0,-1.481 -1.199,-2.68 -2.68,-2.68 z" style="fill:#babaff;fill-opacity:1;fill-rule:nonzero;stroke:none" transform="scale(1.3333333)" /> <path id="I11ac02e924e247f58181a490d5b81c5520251110133654" d="m 34.82,50.895 c 1.481,0 2.68,-1.2 2.68,-2.68 0,-1.481 -1.199,-2.68 -2.68,-2.68 -1.476,0 -2.675,1.199 -2.675,2.68 0,1.48 1.199,2.68 2.675,2.68 z" style="fill:#babaff;fill-opacity:1;fill-rule:nonzero;stroke:none" transform="scale(1.3333333)" /> </g>
</svg>

