<?xml version="1.0" encoding="UTF-8" standalone="no"?> <svg version="1.1" id="I6bc1a845774045e5ac41406d4cd6d0a520251106165301" width="100" height="100" viewBox="0 0 100 100" xmlns="http://www.w3.org/2000/svg" xmlns:svg="http://www.w3.org/2000/svg"> <defs id="Ie3e0689a4a2f46e18524f453b86b1bb420251106165301" /> <g id="I5fed6e00dac94c46ad47a23c6037672c20251106165301"> <path id="I9d9963eb532f428bacba9de12a00d57f20251106165301" d="M 42.434,6.512 C 39.59,4.094 35.41,4.094 32.566,6.512 L 9.715,25.934 c -1.703,1.449 -2.684,3.57 -2.684,5.804 v 28.629 c 0,4.199 3.407,7.606 7.606,7.606 h 45.726 c 4.199,0 7.606,-3.407 7.606,-7.606 V 31.738 c 0,-2.234 -0.981,-4.355 -2.684,-5.804 z M 28.125,38.676 c 0,1.941 -1.574,3.515 -3.516,3.515 -1.941,0 -3.515,-1.574 -3.515,-3.515 0,-1.942 1.574,-3.516 3.515,-3.516 1.942,0 3.516,1.574 3.516,3.516 z M 24.609,53.91 c -1.941,0 -3.515,-1.574 -3.515,-3.515 0,-1.942 1.574,-3.516 3.515,-3.516 1.942,0 3.516,1.574 3.516,3.516 0,1.941 -1.574,3.515 -3.516,3.515 z m 12.891,0 c -1.941,0 -3.516,-1.574 -3.516,-3.515 0,-1.942 1.575,-3.516 3.516,-3.516 1.941,0 3.516,1.574 3.516,3.516 0,1.941 -1.575,3.515 -3.516,3.515 z m 0,-11.719 c -1.941,0 -3.516,-1.574 -3.516,-3.515 0,-1.942 1.575,-3.516 3.516,-3.516 1.941,0 3.516,1.574 3.516,3.516 0,1.941 -1.575,3.515 -3.516,3.515 z m 12.891,0 c -1.942,0 -3.516,-1.574 -3.516,-3.515 0,-1.942 1.574,-3.516 3.516,-3.516 1.941,0 3.515,1.574 3.515,3.516 0,1.941 -1.574,3.515 -3.515,3.515 z m 0,11.719 c -1.942,0 -3.516,-1.574 -3.516,-3.515 0,-1.942 1.574,-3.516 3.516,-3.516 1.941,0 3.515,1.574 3.515,3.516 0,1.941 -1.574,3.515 -3.515,3.515 z" style="fill:currentColor;fill-opacity:1;fill-rule:nonzero;stroke:none" transform="scale(1.3333333)" /> </g>
</svg>

