<?xml version="1.0" encoding="UTF-8" standalone="no"?> <svg version="1.1" id="I88d12758e8b3466b9564ce47994bc20620251106170956" width="100" height="100" viewBox="0 0 100 100" xmlns="http://www.w3.org/2000/svg" xmlns:svg="http://www.w3.org/2000/svg"> <defs id="I705200bc235d4a4b840e78b1bf2f685f20251106170956" /> <g id="Ib411617f20364e329f9e13d2c695847820251106170956"> <path id="If0a9124182024d66ab13011b113e1a0d20251106170956" d="m 57.008,28.492 v -6.504 l 10.023,8.762 c 1.942,1.695 4.977,0.32 4.977,-2.258 V 7.508 c 0,-2.578 -3.035,-3.957 -4.977,-2.262 L 57.008,14.008 V 7.504 c 0,-2.574 -3.035,-3.953 -4.977,-2.258 L 40.027,15.738 c -1.371,1.196 -1.371,3.324 0,4.52 L 52.031,30.75 c 1.942,1.695 4.977,0.32 4.977,-2.258 z M 38.051,22.523 C 35.32,20.137 35.316,15.895 38.035,13.5 H 15.75 l -0.559,0.016 C 10.395,13.785 6.523,17.527 6.047,22.27 L 36,37.961 48.328,31.504 Z m 27.008,10.493 -3.719,-3.25 -1.727,0.902 c -1.07,2.809 -4.152,4.371 -7.019,3.68 l -15.551,8.144 c -0.652,0.344 -1.434,0.344 -2.086,0 L 6,27.324 V 51.75 l 0.016,0.555 C 6.301,57.43 10.551,61.5 15.75,61.5 h 40.5 l 0.555,-0.016 C 61.93,61.199 66,56.949 66,51.75 V 33.699 c -0.324,-0.191 -0.641,-0.418 -0.941,-0.683 z" style="fill:currentColor;fill-opacity:1;fill-rule:nonzero;stroke:none" transform="scale(1.3333333)" /> </g>
</svg>

