<?xml version="1.0" encoding="UTF-8" standalone="no"?> <svg version="1.1" id="Idf4cd6a4961149ae85d1d5834a5836cf20251106104833" width="100" height="100" viewBox="0 0 100 100" xmlns="http://www.w3.org/2000/svg" xmlns:svg="http://www.w3.org/2000/svg"> <defs id="I3c4c796e51e3473ba1e7c2a541764fc820251106104833" /> <g id="Ibeeee310d59c48f490a0680d034d62c820251106104833"> <path id="Ife8b4cec903a42f7b9cb743312a7945820251106104833" d="m 68.02,14.691 c -0.043,-0.078 -0.102,-0.152 -0.168,-0.211 -0.418,-0.418 -1.098,-0.418 -1.516,0 L 51.914,28.902 46.23,23.219 60.66,8.789 C 60.727,8.723 60.777,8.656 60.828,8.578 61.129,8.07 60.961,7.418 60.453,7.113 52.23,2.262 41.469,3.375 34.395,10.438 28.785,16.047 26.93,24 28.828,31.148 L 4.301,55.672 c -0.25,0.25 -0.235,0.66 0.027,0.922 l 14.203,14.203 c 0.262,0.262 0.68,0.277 0.922,0.027 L 43.969,46.305 c 7.16,1.91 15.109,0.058 20.726,-5.559 7.067,-7.07 8.18,-17.836 3.325,-26.055 z M 60.434,36.48 C 55.57,41.344 48.273,42.281 42.473,39.293 L 41.734,40.027 41.727,40.02 18.793,62.965 12.164,56.332 31.422,37.074 c 0,0 0,0.008 0.008,0.008 l 4.422,-4.422 c -2.989,-5.801 -2.051,-13.098 2.812,-17.961 3.172,-3.176 7.574,-4.812 12.055,-4.48 L 39.594,21.336 c -1.047,1.047 -1.047,2.746 0,3.793 l 10.422,10.422 c 1.046,1.047 2.742,1.047 3.789,0 L 64.922,24.434 c 0.308,4.336 -1.207,8.773 -4.488,12.046 z" style="fill:currentColor;fill-opacity:1;fill-rule:nonzero;stroke:none" transform="scale(1.3333333)" /> </g>
</svg>

