<?xml version="1.0" encoding="UTF-8" standalone="no"?> <svg version="1.1" id="I39f81abd15be445f9b6cd6950950cb2120251106143239" width="100" height="100" viewBox="0 0 100 100" xmlns="http://www.w3.org/2000/svg" xmlns:svg="http://www.w3.org/2000/svg"> <defs id="I9302434d402841e1a0c9e75f4c7ffcfd20251106143239" /> <g id="I63998623f1a34a48b2c05e004fc62e5920251106143239"> <path id="Id1ae3edef5f84126b78aa8d7f8e5f8eb20251106143239" d="M 47.262,5.824 34.152,32.07 c -1.25,2.496 0.567,5.43 3.356,5.43 h 26.234 c 2.789,0 4.606,-2.938 3.356,-5.43 L 53.977,5.824 c -1.383,-2.765 -5.332,-2.765 -6.715,0 z m 5.23,7.281 v 11.262 c 0,1.035 -0.84,1.875 -1.875,1.875 -1.035,0 -1.875,-0.84 -1.875,-1.875 V 13.105 c 0,-1.035 0.84,-1.875 1.875,-1.875 1.035,0 1.875,0.84 1.875,1.875 z m -1.875,20.641 c -1.035,0 -1.875,-0.84 -1.875,-1.875 0,-1.035 0.84,-1.875 1.875,-1.875 1.035,0 1.875,0.84 1.875,1.875 0,1.035 -0.84,1.875 -1.875,1.875 z M 24.508,7.938 C 20.602,6.949 16.52,7.367 13.316,9.16 c -3.257,1.824 -5.546,5.055 -5.66,9.379 -0.176,6.758 1.391,15.824 7.598,26.469 6.133,10.508 12.902,16.808 18.516,20.554 3.55,2.368 7.468,2.43 10.82,0.887 3.297,-1.519 5.972,-4.554 7.367,-8.312 0.699,-1.895 0.535,-4 -0.453,-5.762 L 47.93,45.992 C 45.656,41.93 40.746,40.152 36.398,41.816 l -2.496,0.954 c -1.207,0.464 -2.32,0.25 -2.953,-0.372 -2.121,-2.082 -3.633,-4.91 -4.32,-7.953 -0.215,-0.957 0.223,-2.09 1.281,-2.89 l 2.254,-1.7 c 3.77,-2.847 4.836,-8.05 2.488,-12.148 l -3.644,-6.355 c -0.977,-1.7 -2.602,-2.934 -4.5,-3.414 z" style="fill:currentColor;fill-opacity:1;fill-rule:nonzero;stroke:none" transform="scale(1.3333333)" /> </g>
</svg>

