<?xml version="1.0" encoding="UTF-8" standalone="no"?> <svg version="1.1" id="I6c103d1bebdd49bf9adf6d22f419a5fd20251106125938" width="100" height="100" viewBox="0 0 100 100" xmlns="http://www.w3.org/2000/svg" xmlns:svg="http://www.w3.org/2000/svg"> <defs id="I1dc0884fcbd94f9395b8075698d5a33420251106125938" /> <g id="I1e180964a80d47de9ee2582b1b64627b20251106125938"> <path id="Ia3a4988ece9a4b44abf82e1bce6f9c4820251106125938" d="m 45.559,11.801 c -0.731,0.73 -0.735,1.918 0,2.648 L 57.352,26.25 H 37.5 c -10.996,0 -20.973,6.148 -26.012,15.16 -0.504,0.902 -0.183,2.047 0.723,2.551 0.902,0.508 2.047,0.184 2.551,-0.723 C 19.148,35.395 27.887,30 37.5,30 H 57.348 L 45.559,41.797 c -0.735,0.73 -0.731,1.918 0,2.648 0.734,0.735 1.918,0.735 2.652,0 L 63.148,29.5 c 0.372,-0.34 0.602,-0.832 0.602,-1.375 0,-0.48 -0.184,-0.961 -0.547,-1.328 L 48.211,11.801 c -0.734,-0.735 -1.918,-0.735 -2.652,0 z M 30,56.25 c 0,4.141 3.359,7.5 7.5,7.5 4.145,0 7.5,-3.359 7.5,-7.5 0,-4.141 -3.355,-7.5 -7.5,-7.5 -4.141,0 -7.5,3.359 -7.5,7.5 z" style="fill:currentColor;fill-opacity:1;fill-rule:nonzero;stroke:none" transform="scale(1.3333333)" /> </g>
</svg>

