<?xml version="1.0" encoding="UTF-8" standalone="no"?> <svg version="1.1" id="Ic7e5326d068f4a258e7c2383b84b830420251106170956" width="100" height="100" viewBox="0 0 100 100" xmlns="http://www.w3.org/2000/svg" xmlns:svg="http://www.w3.org/2000/svg"> <defs id="Ia0ccd024d1054f3b89bdddf012218d8a20251106170956" /> <g id="I6d1aaca02b0c482990d9ec735adfe71720251106170956"> <path id="I56b192ae46474e13ad85d0289962c07c20251106170956" d="m 9.375,21.875 c 0,-1.727 1.398,-3.125 3.125,-3.125 h 8.617 c 3.317,0 6.496,1.316 8.84,3.66 l 9.215,9.219 c 1.758,1.758 4.144,2.746 6.633,2.746 H 58.074 L 47.789,24.098 c -1.219,-1.219 -1.219,-3.2 0,-4.418 1.219,-1.223 3.199,-1.223 4.418,-0.004 l 15.625,15.613 c 0.59,0.586 0.918,1.383 0.918,2.211 0,0.828 -0.328,1.625 -0.914,2.211 L 52.211,55.336 c -1.223,1.219 -3.199,1.219 -4.422,0 -1.219,-1.223 -1.219,-3.199 0,-4.418 L 58.082,40.625 H 45.68 c -2.442,0.031 -4.778,1.016 -6.508,2.746 l -9.215,9.219 c -2.344,2.344 -5.523,3.66 -8.84,3.66 H 12.5 C 10.773,56.25 9.375,54.852 9.375,53.125 9.375,51.398 10.773,50 12.5,50 h 8.617 c 1.656,0 3.246,-0.66 4.418,-1.832 l 9.219,-9.215 C 35.281,38.426 35.84,37.941 36.426,37.5 35.84,37.059 35.281,36.574 34.754,36.047 L 25.535,26.832 C 24.363,25.66 22.773,25 21.117,25 H 12.5 C 10.773,25 9.375,23.602 9.375,21.875 Z" style="fill:currentColor;fill-opacity:1;fill-rule:nonzero;stroke:none" transform="scale(1.3333333)" /> </g>
</svg>

