<?xml version="1.0" encoding="UTF-8" standalone="no"?> <svg version="1.1" id="I658b30d4f21b4eca94ce263b908119d320251106144520" width="100" height="100" viewBox="0 0 100 100" xmlns="http://www.w3.org/2000/svg" xmlns:svg="http://www.w3.org/2000/svg"> <defs id="I711c2bcd16374fd88292a7e2fe9faf3220251106144520"> <radialGradient fx="0" fy="0" cx="0" cy="0" r="1" gradientUnits="userSpaceOnUse" gradientTransform="matrix(21.571188,25.029383,-25.049741,21.588733,34.458125,31.264688)" spreadMethod="pad" id="I09abb7dee5864376a6a6871b2f83f11320251106144520"> <stop style="stop-opacity:1;stop-color:#3d35b1" offset="0" id="I87ccdbcb799241ab95797fc35d503fda20251106144520" /> <stop style="stop-opacity:1;stop-color:#3d35b1" offset="0.63" id="I1e70d01be06e43bcbbe402e12b5eca6720251106144520" /> <stop style="stop-opacity:1;stop-color:#6553c9" offset="0.85" id="I6704cb62a2244b1a86d2a576bf43e35720251106144520" /> <stop style="stop-opacity:1;stop-color:#7660d3" offset="1" id="I7b43e4c72e944390add10a9a457cc69720251106144520" /> </radialGradient> <linearGradient x1="2" y1="3" x2="17.003401" y2="18" gradientUnits="userSpaceOnUse" gradientTransform="scale(3.125)" spreadMethod="pad" id="Icac2a0f123a44a5483f8ddac12ed0a3720251106144520"> <stop style="stop-opacity:1;stop-color:#0fafff" offset="0" id="Ic424d96c873a4ab48cdb8a07fb7dc1a920251106144520" /> <stop style="stop-opacity:1;stop-color:#2764e7" offset="1" id="I604ac98f65214a82ab8cbf022084a66120251106144520" /> </linearGradient> </defs> <g id="Ic39d1ae43b1748cfba49923902d09a0520251106144520"> <path id="I1379d8b87a6c470db872b3b8e11d7fca20251106144520" d="M 68.75,42.188 C 68.75,29.242 58.258,18.75 45.312,18.75 c -12.945,0 -23.437,10.492 -23.437,23.438 0,12.945 10.492,23.437 23.437,23.437 3.438,0 6.708,-0.742 9.653,-2.074 3.93,0.906 8.164,1.687 10.113,2.035 2.149,0.383 4.02,-1.504 3.606,-3.656 -0.372,-1.903 -1.188,-5.992 -2.133,-9.821 1.41,-3.015 2.199,-6.379 2.199,-9.921 z M 45.367,56.25 h -0.109 c 0.019,0 0.035,0 0.054,0 0.016,0 0.036,0 0.055,0 z" transform="scale(1.3333333)" style="fill:url(#I09abb7dee5864376a6a6871b2f83f11320251106144520);fill-rule:evenodd;stroke:none" /> <path id="I9de86469a81446c0ac0fc4af6fb8c97420251106144520" d="m 6.25,32.812 c 0,-12.945 10.492,-23.437 23.438,-23.437 12.945,0 23.437,10.492 23.437,23.437 0,12.946 -10.492,23.438 -23.437,23.438 -3.438,0 -6.708,-0.742 -9.653,-2.074 -3.93,0.906 -8.164,1.687 -10.113,2.035 C 7.773,56.594 5.902,54.707 6.316,52.555 6.688,50.652 7.504,46.562 8.449,42.734 7.039,39.719 6.25,36.355 6.25,32.812 Z m 23.383,14.063 h 0.109 c -0.019,0 -0.035,0 -0.054,0 -0.016,0 -0.036,0 -0.055,0 z" transform="scale(1.3333333)" style="fill:url(#Icac2a0f123a44a5483f8ddac12ed0a3720251106144520);fill-rule:evenodd;stroke:none" /> </g>
</svg>

