<?xml version="1.0" encoding="UTF-8" standalone="no"?> <svg version="1.1" id="I4946f9134aae4651b2859bda9bb6f60a20251106125937" width="100" height="100" viewBox="0 0 100 100" xmlns="http://www.w3.org/2000/svg" xmlns:svg="http://www.w3.org/2000/svg"> <defs id="Iabb7dcc0bb3b410ea42bb402ac969f2220251106125937" /> <g id="I77cb9d3444174595a059e843dac553e420251106125937"> <path id="I4a5bf9ad28b54277a597c4cd8ba71eda20251106125937" d="M 67.961,38.176 C 66.188,36.594 64.148,35.305 61.914,34.387 60.383,22.266 50.035,12.891 37.5,12.891 c -6.078,0 -11.645,2.203 -15.941,5.859 h 4.808 c 1.617,0 2.93,1.312 2.93,2.93 0,1.617 -1.313,2.929 -2.93,2.929 H 14.648 c -1.617,0 -2.929,-1.312 -2.929,-2.929 V 9.961 c 0,-1.617 1.312,-2.93 2.929,-2.93 1.618,0 2.93,1.313 2.93,2.93 v 4.484 C 22.918,9.828 29.883,7.031 37.5,7.031 c 16.828,0 30.469,13.641 30.469,30.469 0,0.227 -0.004,0.453 -0.008,0.676 z M 37.5,67.969 c 0.227,0 0.453,-0.004 0.676,-0.008 C 36.594,66.188 35.305,64.148 34.387,61.914 22.266,60.383 12.891,50.035 12.891,37.5 c 0,-0.531 0.015,-1.059 0.05,-1.578 0.102,-1.613 -1.125,-3.008 -2.738,-3.11 -1.617,-0.101 -3.008,1.126 -3.109,2.739 -0.043,0.644 -0.063,1.297 -0.063,1.949 0,16.828 13.641,30.469 30.469,30.469 z M 36.328,53.906 c 0,9.707 7.871,17.578 17.578,17.578 9.707,0 17.578,-7.871 17.578,-17.578 0,-9.707 -7.871,-17.578 -17.578,-17.578 -9.707,0 -17.578,7.871 -17.578,17.578 z m 15.82,9.961 v -12.89 c 0,-0.973 0.786,-1.758 1.758,-1.758 0.973,0 1.758,0.785 1.758,1.758 v 12.89 c 0,0.973 -0.785,1.758 -1.758,1.758 -0.972,0 -1.758,-0.785 -1.758,-1.758 z M 51.562,44.531 c 0,-1.293 1.051,-2.343 2.344,-2.343 1.293,0 2.344,1.05 2.344,2.343 0,1.293 -1.051,2.344 -2.344,2.344 -1.293,0 -2.344,-1.051 -2.344,-2.344 z" style="fill:currentColor;fill-opacity:1;fill-rule:nonzero;stroke:none" transform="scale(1.3333333)" /> </g>
</svg>

