<?xml version="1.0" encoding="UTF-8" standalone="no"?> <svg version="1.1" id="I13c6a36bd4194a808beb54dbd0e2384620251106161453" width="100" height="100" viewBox="0 0 100 100" xmlns="http://www.w3.org/2000/svg" xmlns:svg="http://www.w3.org/2000/svg"> <defs id="I8b7563208b2948d49e3ec57b0951d3b520251106161453" /> <g id="Icfece33e06ea4d969000ed699652d0af20251106161453"> <path id="Ia59a4225f73d44a9b090d95d76bda50420251106161453" d="m 25.785,10.547 c 0,-3.235 2.625,-5.859 5.86,-5.859 h 11.718 c 3.239,0 5.86,2.624 5.86,5.859 0,2.515 -1.582,4.66 -3.809,5.488 0.469,2.379 2.063,4.344 4.473,6.731 5.273,3.832 8.707,10.054 8.707,17.078 0,0.094 0,0.183 0,0.277 v 0.067 c 0,0.039 0,0.082 0,0.124 v 20.626 c 0,5.175 -4.199,9.374 -9.375,9.374 -2.219,0 -4.254,-0.773 -5.86,-2.058 -1.605,1.285 -3.64,2.058 -5.859,2.058 -2.219,0 -4.254,-0.773 -5.859,-2.058 -1.606,1.285 -3.641,2.058 -5.86,2.058 -5.176,0 -9.375,-4.199 -9.375,-9.374 V 40.312 c 0,-0.062 0,-0.128 0,-0.191 0,-0.094 0,-0.183 0,-0.277 0,-5.192 1.875,-9.946 4.985,-13.621 0.047,-0.059 0.097,-0.118 0.148,-0.172 0.797,-0.922 1.676,-1.774 2.621,-2.547 2.848,-2.758 4.742,-4.875 5.238,-7.543 -2.121,-0.883 -3.613,-2.973 -3.613,-5.414 z m 5.86,-1.172 c -0.649,0 -1.172,0.523 -1.172,1.172 0,0.648 0.523,1.172 1.172,1.172 h 11.718 c 0.649,0 1.172,-0.524 1.172,-1.172 0,-0.649 -0.523,-1.172 -1.172,-1.172 z M 28.531,25.781 H 46.27 c -2.391,-2.394 -4.75,-5.16 -5.465,-8.906 h -6.809 c -0.715,3.73 -3.062,6.504 -5.465,8.906 z m -7.437,35.157 c 0,2.589 2.097,4.687 4.687,4.687 1.629,0 3.063,-0.828 3.907,-2.098 0.437,-0.652 1.167,-1.047 1.953,-1.047 0.785,0 1.515,0.395 1.953,1.047 0.844,1.27 2.277,2.098 3.906,2.098 1.629,0 3.062,-0.828 3.906,-2.098 0.438,-0.652 1.168,-1.047 1.953,-1.047 0.786,0 1.516,0.395 1.953,1.047 0.844,1.27 2.278,2.098 3.907,2.098 2.59,0 4.687,-2.098 4.687,-4.687 V 56.25 H 21.094 Z" style="fill:currentColor;fill-opacity:1;fill-rule:nonzero;stroke:none" transform="scale(1.3333333)" /> </g>
</svg>

