<?xml version="1.0" encoding="UTF-8" standalone="no"?> <svg version="1.1" id="I7ee35d1a299f41deb90d0e3f5902a7ec20251110130508" width="100" height="100" viewBox="0 0 100 100" xmlns="http://www.w3.org/2000/svg" xmlns:svg="http://www.w3.org/2000/svg"> <defs id="I45ab0700edac4ab2900567c933a8eab920251110130508" /> <g id="Ic3cbe8ffa95549d0a65886e9c7af705b20251110130508"> <path id="If4f62b78a7254c1ab2035565e8e7cd7620251110130508" d="m 60.156,14.062 c 0.43,0 0.782,0.352 0.782,0.782 v 45.312 c 0,0.43 -0.352,0.782 -0.782,0.782 H 14.844 c -0.43,0 -0.782,-0.352 -0.782,-0.782 V 14.844 c 0,-0.43 0.352,-0.782 0.782,-0.782 z M 14.844,9.375 c -3.02,0 -5.469,2.449 -5.469,5.469 v 45.312 c 0,3.02 2.449,5.469 5.469,5.469 h 45.312 c 3.02,0 5.469,-2.449 5.469,-5.469 V 14.844 c 0,-3.02 -2.449,-5.469 -5.469,-5.469 z" style="fill:currentColor;fill-opacity:1;fill-rule:nonzero;stroke:none" transform="scale(1.3333333)" /> </g>
</svg>

