<?xml version="1.0" encoding="UTF-8" standalone="no"?> <svg version="1.1" id="Ie9508654bcc3445f9315833e59b3ff6820251106102216" width="100" height="100" viewBox="0 0 100 100" xmlns="http://www.w3.org/2000/svg" xmlns:svg="http://www.w3.org/2000/svg"> <defs id="If692ee3cbf184040bf6eef9dec19198820251106102216" /> <g id="Iddabd506929d406c8b071cba8feab48320251106102216"> <path id="I1263c4237c7840288cd803019be5280320251106102216" d="M 74.641,66.293 39.82,6.027 C 39.301,5.133 38.402,4.688 37.5,4.688 c -0.902,0 -1.809,0.445 -2.32,1.339 L 0.359,66.293 c -1.027,1.793 0.262,4.019 2.321,4.019 h 69.64 c 2.059,0 3.348,-2.226 2.321,-4.019 z M 8.48,64.293 37.5,14.055 66.52,64.285 H 8.48 Z M 35.18,24.609 16.098,57.59 c -1.032,1.781 0.257,4.015 2.316,4.015 h 38.152 c 2.071,0 3.36,-2.234 2.321,-4.015 L 39.82,24.609 C 39.301,23.715 38.395,23.27 37.5,23.27 c -0.902,0 -1.809,0.445 -2.32,1.339 z M 53.094,56.918 H 21.906 L 37.5,29.965 Z M 35.18,40.672 30.41,48.91 c -1.031,1.774 0.258,3.992 2.32,3.992 h 9.54 c 2.062,0 3.339,-2.218 2.32,-3.992 L 39.82,40.672 C 39.309,39.785 38.402,39.34 37.5,39.34 c -0.902,0 -1.801,0.445 -2.32,1.332 z m 4.781,8.238 h -4.914 l 2.461,-4.246 z" style="fill:currentColor;fill-opacity:1;fill-rule:nonzero;stroke:none" transform="scale(1.3333333)" /> </g>
</svg>

