<?xml version="1.0" encoding="UTF-8" standalone="no"?> <svg version="1.1" id="I6f7ea858c55f4255ba1b661420201b5320251106152728" width="100" height="100" viewBox="0 0 100 100" xmlns="http://www.w3.org/2000/svg" xmlns:svg="http://www.w3.org/2000/svg"> <defs id="I48d343c1b46c4e8cbef5c1b9fd6b506520251106152728" /> <g id="I0e29f7e0a3564670be7f9e58b1f4123820251106152728"> <path id="I40e5a6c63fda41db948dc9e85af10f2c20251106152728" d="m 37.5,9.375 c 0,-3.453 2.797,-6.25 6.25,-6.25 h 21.875 c 3.453,0 6.25,2.797 6.25,6.25 v 18.75 c 0,3.453 -2.797,6.25 -6.25,6.25 H 43.75 c -3.453,0 -6.25,-2.797 -6.25,-6.25 z m 7.812,3.125 c -0.863,0 -1.562,0.699 -1.562,1.562 0,0.864 0.699,1.563 1.562,1.563 h 18.75 c 0.864,0 1.563,-0.699 1.563,-1.563 0,-0.863 -0.699,-1.562 -1.563,-1.562 z m 0,9.375 c -0.863,0 -1.562,0.699 -1.562,1.563 0,0.863 0.699,1.562 1.562,1.562 h 18.75 c 0.864,0 1.563,-0.699 1.563,-1.562 0,-0.864 -0.699,-1.563 -1.563,-1.563 z M 16.406,9.375 h 17.969 v 18.75 c 0,5.18 4.195,9.375 9.375,9.375 h 21.875 c 1.094,0 2.148,-0.188 3.125,-0.535 v 9.129 c 0,5.609 -4.547,10.156 -10.156,10.156 H 40.516 L 23.684,68.18 c -1.411,0.996 -3.36,0.664 -4.36,-0.742 C 18.949,66.906 18.75,66.277 18.75,65.629 L 18.746,56.25 h -2.34 C 10.797,56.25 6.25,51.703 6.25,46.094 V 19.531 c 0,-5.609 4.547,-10.156 10.156,-10.156 z" style="fill:currentColor;fill-opacity:1;fill-rule:nonzero;stroke:none" transform="scale(1.3333333)" /> </g>
</svg>

