<?xml version="1.0" encoding="UTF-8" standalone="no"?> <svg version="1.1" id="I823feefc746541f1af8bcf3d55d011d520251106164750" width="100" height="100" viewBox="0 0 100 100" xmlns="http://www.w3.org/2000/svg" xmlns:svg="http://www.w3.org/2000/svg"> <defs id="I8a214e31efa8452a9b3ab259240ed4c720251106164750" /> <g id="I070e31fb520141e5a7f03ca27e00047120251106164750"> <path id="I40c73aadfc6c4486a1be9da165f2ec0c20251106164750" d="m 23.18,11.719 c -2.883,0 -5.52,1.629 -6.813,4.211 L 7.422,33.82 c 1.496,-0.648 3.148,-1.008 4.883,-1.008 H 58.496 C 60.438,30.902 63.262,30.043 66,30.668 L 58.633,15.93 C 57.34,13.348 54.703,11.719 51.82,11.719 Z M 12.305,37.5 h 43.672 l -0.586,1.691 c -0.875,2.524 -0.254,5.332 1.601,7.25 l 2.289,2.364 c -0.355,1.992 -1.258,3.59 -2.758,4.89 l -3.101,-0.812 c -2.606,-0.684 -5.363,0.191 -7.102,2.25 l -2.195,2.597 c -0.816,0.969 -1.367,2.063 -1.668,3.208 H 12.305 c -4.207,0 -7.617,-3.411 -7.617,-7.618 v -8.203 c 0,-0.195 0.007,-0.39 0.023,-0.586 C 5.008,40.598 8.297,37.5 12.305,37.5 Z m 46.406,2.844 1.121,-3.231 c 0.902,-2.601 3.82,-3.847 6.313,-2.699 l 1.207,0.555 c 1.968,0.91 3.617,2.535 3.941,4.695 1.57,10.586 -6.754,25.219 -16.574,29.129 -2.004,0.797 -4.215,0.16 -5.977,-1.113 L 47.664,66.895 C 45.438,65.281 45.043,62.094 46.812,60 l 2.196,-2.602 c 0.863,-1.023 2.23,-1.453 3.523,-1.117 l 4.739,1.242 c 3.578,-2.339 5.472,-5.668 5.679,-9.984 L 59.52,43.996 c -0.934,-0.969 -1.25,-2.383 -0.809,-3.652 z" style="fill:currentColor;fill-opacity:1;fill-rule:nonzero;stroke:none" transform="scale(1.3333333)" /> </g>
</svg>

