<?xml version="1.0" encoding="UTF-8" standalone="no"?> <svg version="1.1" id="Id5e9ff48a67145acb315709f9ae1e65420251110124421" width="100" height="100" viewBox="0 0 100 100" xmlns="http://www.w3.org/2000/svg" xmlns:svg="http://www.w3.org/2000/svg"> <defs id="Ib3f640e198624262a5328172a249a10e20251110124421" /> <g id="Id570c53a752748709fc18cf448ad34aa20251110124421"> <path id="Icc7c0fc2092d4a24a37fbb3370ce0fb820251110124421" d="M 16.406,12.5 C 10.797,12.5 6.25,17.047 6.25,22.656 v 29.688 c 0,5.609 4.547,10.156 10.156,10.156 h 24.227 c -0.004,-0.129 -0.008,-0.262 -0.008,-0.391 v -0.32 c 0,-4.789 3.883,-8.664 8.664,-8.664 h 0.867 c -2.023,-1.984 -3.281,-4.754 -3.281,-7.813 0,-6.039 4.898,-10.937 10.937,-10.937 6.04,0 10.938,4.898 10.938,10.937 V 22.656 C 68.75,17.047 64.203,12.5 58.594,12.5 Z m 49.219,32.812 c 0,4.317 -3.496,7.813 -7.813,7.813 -4.316,0 -7.812,-3.496 -7.812,-7.813 0,-4.316 3.496,-7.812 7.812,-7.812 4.317,0 7.813,3.496 7.813,7.812 z m 6.25,16.797 c 0,4.864 -4.02,9.766 -14.063,9.766 -10.042,0 -14.062,-4.883 -14.062,-9.766 v -0.32 c 0,-3.062 2.48,-5.539 5.539,-5.539 h 17.047 c 3.059,0 5.539,2.477 5.539,5.539 z" style="fill:currentColor;fill-opacity:1;fill-rule:nonzero;stroke:none" transform="scale(1.3333333)" /> </g>
</svg>

