<?xml version="1.0" encoding="UTF-8" standalone="no"?> <svg version="1.1" id="Ic8e7c5a29f44413b921ef6ad4ae04ca820251110130509" width="100" height="100" viewBox="0 0 100 100" xmlns="http://www.w3.org/2000/svg" xmlns:svg="http://www.w3.org/2000/svg"> <defs id="I90959bb050f14dcb94c7cce894e31e8f20251110130509" /> <g id="I97faf5620fa745e080e9c98621b6c29c20251110130509"> <path id="I0979c88b7ced4eecb83ff3e9c7a2ae8f20251110130509" d="m 39.062,28.906 c 0,-1.293 1.051,-2.344 2.344,-2.344 h 10.938 c 1.293,0 2.344,1.051 2.344,2.344 0,1.293 -1.051,2.344 -2.344,2.344 H 41.406 c -1.293,0 -2.344,-1.051 -2.344,-2.344 z m -5.374,-1.468 c 0.917,-0.915 0.917,-2.399 0,-3.313 -0.915,-0.918 -2.399,-0.918 -3.313,0 l -4.594,4.59 -1.469,-1.465 c -0.914,-0.918 -2.398,-0.918 -3.312,0 -0.918,0.914 -0.918,2.398 0,3.312 l 3.125,3.126 c 0.914,0.917 2.398,0.917 3.313,0 z m 0,13.874 c 0.917,0.915 0.917,2.399 0,3.313 l -6.25,6.25 c -0.915,0.918 -2.399,0.918 -3.313,0 L 21,47.75 c -0.918,-0.914 -0.918,-2.398 0,-3.312 0.914,-0.918 2.398,-0.918 3.312,0 l 1.469,1.464 4.594,-4.59 c 0.914,-0.917 2.398,-0.917 3.313,0 z M 19.531,9.375 c -5.609,0 -10.156,4.547 -10.156,10.156 v 35.938 c 0,5.609 4.547,10.156 10.156,10.156 H 37.672 C 37.562,65.125 37.5,64.602 37.5,64.062 V 60.938 H 19.531 c -3.019,0 -5.469,-2.45 -5.469,-5.469 V 19.531 c 0,-3.019 2.45,-5.469 5.469,-5.469 h 35.938 c 3.019,0 5.469,2.45 5.469,5.469 v 15.168 c 0.164,0.024 0.324,0.047 0.484,0.071 1.476,0.234 2.887,0.562 4.203,0.984 V 19.531 C 65.625,13.922 61.078,9.375 55.469,9.375 Z M 65.625,39.062 C 64.227,38.535 62.645,38.125 60.938,37.859 59.457,37.625 57.883,37.5 56.25,37.5 c -8.629,0 -15.625,3.496 -15.625,7.812 0,4.317 6.996,7.813 15.625,7.813 1.633,0 3.207,-0.125 4.688,-0.359 1.707,-0.266 3.289,-0.676 4.687,-1.204 3.797,-1.425 6.25,-3.695 6.25,-6.25 0,-2.554 -2.453,-4.824 -6.25,-6.25 z m 0,15.809 c -1.457,0.465 -3.035,0.824 -4.687,1.055 -1.508,0.215 -3.083,0.324 -4.688,0.324 -4.695,0 -9.098,-0.945 -12.445,-2.617 -1.106,-0.555 -2.211,-1.25 -3.18,-2.098 v 12.527 c 0,1.11 0.465,2.168 1.301,3.126 2.41,2.757 7.918,4.687 14.324,4.687 8.629,0 15.625,-3.496 15.625,-7.813 V 51.535 c -0.969,0.848 -2.074,1.543 -3.18,2.098 -0.945,0.472 -1.972,0.887 -3.07,1.238 z" style="fill:currentColor;fill-opacity:1;fill-rule:nonzero;stroke:none" transform="scale(1.3333333)" /> </g>
</svg>

