<?xml version="1.0" encoding="UTF-8" standalone="no"?> <svg version="1.1" id="Ib8896a4f41ac4f7c8a87d386fa2d340820251106112235" width="100" height="100" viewBox="0 0 100 100" xmlns="http://www.w3.org/2000/svg" xmlns:svg="http://www.w3.org/2000/svg"> <defs id="I4ed2205098934c73a85d7b53326ce6ed20251106112235" /> <g id="I7e04caf6f47a41e2a409e07dd0e3203820251106112235"> <path id="Id6e422c1e1784bb8ad6924eff0fd860420251106112235" d="M 67.594,51.41 H 23.98 l 2.188,-4.461 36.387,-0.066 c 1.23,0 2.285,-0.879 2.507,-2.094 l 5.04,-28.207 c 0.128,-0.738 -0.067,-1.5 -0.551,-2.078 -0.485,-0.578 -1.196,-0.914 -1.949,-0.918 l -46.29,-0.152 -0.394,-1.86 C 20.668,10.387 19.602,9.523 18.383,9.523 H 7.066 c -3.445,0 -3.445,5.168 0,5.168 h 9.223 l 1.731,8.219 4.253,20.602 -5.48,8.945 c -0.578,0.781 -0.664,1.828 -0.219,2.695 0.442,0.871 1.328,1.422 2.309,1.422 h 4.597 c -0.98,1.301 -1.507,2.887 -1.507,4.516 0,4.148 3.371,7.515 7.515,7.515 4.145,0 7.516,-3.367 7.516,-7.515 0,-1.633 -0.543,-3.223 -1.512,-4.516 h 11.801 c -0.981,1.301 -1.512,2.887 -1.508,4.516 0,4.148 3.367,7.515 7.512,7.515 4.148,0 7.515,-3.367 7.515,-7.515 0,-1.633 -0.542,-3.223 -1.507,-4.516 h 8.297 c 1.421,0 2.586,-1.16 2.586,-2.586 C 70.18,52.562 69.02,51.41 67.594,51.41 Z M 22.391,18.531 64.562,18.668 60.434,41.801 27.305,41.859 Z m 7.097,44.875 c -1.273,0 -2.316,-1.039 -2.316,-2.316 0,-1.274 1.043,-2.313 2.316,-2.313 1.274,0 2.313,1.039 2.313,2.313 0,1.281 -1.035,2.316 -2.313,2.316 z m 23.809,0 c -1.274,0 -2.313,-1.039 -2.313,-2.316 0,-1.274 1.039,-2.313 2.313,-2.313 1.277,0 2.316,1.039 2.316,2.313 0,1.281 -1.035,2.316 -2.316,2.316 z" style="fill:currentColor;fill-opacity:1;fill-rule:nonzero;stroke:none" transform="scale(1.3333333)" /> </g>
</svg>

