<?xml version="1.0" encoding="UTF-8" standalone="no"?> <svg version="1.1" id="I5f60b58e50a5403aa74b4bae9b80c5f920251110130508" width="100" height="100" viewBox="0 0 100 100" xmlns="http://www.w3.org/2000/svg" xmlns:svg="http://www.w3.org/2000/svg"> <defs id="I4f8cbf49d1e74d33a393da753f2e56b220251110130508" /> <g id="Ia241f1f9300741268d0c669fa90c0d3720251110130508"> <path id="I228ef4a36224491da7973fa8a63ce1d720251110130508" d="m 65.488,46.43 c 0.043,-0.024 0.09,-0.047 0.137,-0.067 V 19.531 C 65.625,13.922 61.078,9.375 55.469,9.375 H 19.531 c -5.609,0 -10.156,4.547 -10.156,10.156 v 35.938 c 0,5.609 4.547,10.156 10.156,10.156 h 18.668 c -0.476,-0.344 -0.906,-0.773 -1.265,-1.285 -1.61,-2.289 -2.559,-5.086 -2.559,-8.09 0,-1.074 0.121,-2.121 0.348,-3.125 H 24.219 l -0.317,-0.02 c -1.144,-0.156 -2.027,-1.136 -2.027,-2.324 0,-1.187 0.883,-2.168 2.027,-2.324 l 0.317,-0.019 h 12.523 c 2.524,-3.77 6.82,-6.25 11.696,-6.25 h 1.617 c 0.121,-0.833 0.433,-1.641 0.933,-2.36 l -0.207,0.016 H 24.219 l -0.317,-0.02 c -1.144,-0.156 -2.027,-1.136 -2.027,-2.324 0,-1.188 0.883,-2.168 2.027,-2.324 l 0.317,-0.02 h 26.562 l 0.317,0.02 c 1.144,0.156 2.027,1.136 2.027,2.324 0,0.191 -0.023,0.379 -0.066,0.559 2.043,-1.004 4.578,-0.657 6.277,1.043 l 4.687,4.687 c 0.754,0.754 1.243,1.672 1.465,2.641 z M 53.125,24.219 c 0,1.187 -0.883,2.168 -2.027,2.324 l -0.317,0.019 H 24.219 l -0.317,-0.019 c -1.144,-0.156 -2.027,-1.137 -2.027,-2.324 0,-1.188 0.883,-2.168 2.027,-2.324 l 0.317,-0.02 h 26.562 l 0.317,0.02 c 1.144,0.156 2.027,1.136 2.027,2.324 z M 61.812,46 57.125,41.312 c -0.914,-0.917 -2.398,-0.917 -3.313,0 -0.917,0.915 -0.917,2.399 0,3.313 l 0.684,0.687 h -6.058 c -6.04,0 -10.938,4.899 -10.938,10.938 0,2.34 0.738,4.512 1.988,6.293 0.746,1.059 2.211,1.312 3.266,0.566 1.058,-0.746 1.312,-2.207 0.57,-3.265 -0.719,-1.016 -1.136,-2.254 -1.136,-3.594 0,-3.453 2.796,-6.25 6.25,-6.25 h 6.058 l -0.684,0.688 c -0.917,0.914 -0.917,2.398 0,3.312 0.915,0.918 2.399,0.918 3.313,0 l 4.687,-4.688 c 0.918,-0.914 0.918,-2.398 0,-3.312 z m 8.071,3.953 c -0.746,-1.055 -2.207,-1.308 -3.266,-0.562 -1.058,0.746 -1.312,2.207 -0.566,3.265 0.715,1.016 1.137,2.25 1.137,3.594 0,3.453 -2.797,6.25 -6.25,6.25 h -6.059 l 0.683,-0.688 c 0.918,-0.914 0.918,-2.398 0,-3.312 -0.914,-0.918 -2.398,-0.918 -3.312,0 l -4.688,4.688 c -0.917,0.914 -0.917,2.398 0,3.312 l 4.688,4.688 c 0.914,0.917 2.398,0.917 3.312,0 0.918,-0.915 0.918,-2.399 0,-3.313 l -0.683,-0.687 h 6.059 c 6.039,0 10.937,-4.899 10.937,-10.938 0,-2.34 -0.738,-4.516 -1.992,-6.297 z" style="fill:currentColor;fill-opacity:1;fill-rule:nonzero;stroke:none" transform="scale(1.3333333)" /> </g>
</svg>

