<?xml version="1.0" encoding="UTF-8" standalone="no"?> <svg version="1.1" id="Iad0f9424baaa40ac852fa356a9f5f40520251110130508" width="100" height="100" viewBox="0 0 100 100" xmlns="http://www.w3.org/2000/svg" xmlns:svg="http://www.w3.org/2000/svg"> <defs id="Ib29f8ceb9897481aa2ec390b043ecee620251110130508" /> <g id="I4c6312c350244a3386615da090a66be820251110130508"> <path id="Ia7f177ab82a14ea38d900e6b480c0a4620251110130508" d="m 7.031,17.578 c 0,-5.824 4.723,-10.547 10.547,-10.547 h 39.844 c 5.824,0 10.547,4.723 10.547,10.547 V 38.184 C 66.246,36.641 64.27,35.379 62.109,34.469 V 17.578 c 0,-2.59 -2.097,-4.687 -4.687,-4.687 H 17.578 c -2.59,0 -4.687,2.097 -4.687,4.687 v 39.844 c 0,2.59 2.097,4.687 4.687,4.687 h 16.891 c 0.91,2.161 2.172,4.137 3.715,5.86 H 17.578 c -5.824,0 -10.547,-4.723 -10.547,-10.547 z m 46.875,53.906 c 9.707,0 17.578,-7.871 17.578,-17.578 0,-9.707 -7.871,-17.578 -17.578,-17.578 -9.707,0 -17.578,7.871 -17.578,17.578 0,9.707 7.871,17.578 17.578,17.578 z M 56.25,42.773 v 8.789 h 8.789 c 0.973,0 1.758,0.786 1.758,1.758 0,0.973 -0.785,1.758 -1.758,1.758 H 56.25 v 8.789 c 0,0.973 -0.785,1.758 -1.758,1.758 -0.972,0 -1.758,-0.785 -1.758,-1.758 v -8.789 h -8.789 c -0.972,0 -1.757,-0.785 -1.757,-1.758 0,-0.972 0.785,-1.758 1.757,-1.758 h 8.789 v -8.789 c 0,-0.972 0.786,-1.757 1.758,-1.757 0.973,0 1.758,0.785 1.758,1.757 z" style="fill:currentColor;fill-opacity:1;fill-rule:nonzero;stroke:none" transform="scale(1.3333333)" /> </g>
</svg>

