<?xml version="1.0" encoding="UTF-8" standalone="no"?> <svg version="1.1" id="I4888e1cc62fc476ebcc113127578180120251106170956" width="100" height="100" viewBox="0 0 100 100" xmlns="http://www.w3.org/2000/svg" xmlns:svg="http://www.w3.org/2000/svg"> <defs id="I50161380f3f44c1f98778e2f3fe48edb20251106170956" /> <g id="I284d95e3b8cd475ba76156998064b4a620251106170956"> <path id="I2d3a8cb3b2cc4d29940ebc4ab9670a4d20251106170956" d="m 36.586,41.297 c 0.574,0.293 1.254,0.297 1.828,0 l 6.922,-3.543 c 2.844,1.547 6.105,2.426 9.574,2.426 5.824,0 11.067,-2.481 14.735,-6.442 v 17.824 c 0,5.547 -4.497,10.043 -10.043,10.043 H 15.414 C 9.863,61.605 5.367,57.109 5.367,51.562 V 25.309 Z m 0.555,-30.582 c -1.481,2.797 -2.321,5.988 -2.321,9.375 0,5.996 2.629,11.371 6.793,15.055 L 37.5,37.25 5.367,20.797 v -0.039 c 0,-5.547 4.496,-10.043 10.047,-10.043 z M 51.059,6.277 c 2.113,2.223 5.656,2.223 7.769,0 l 2.258,-2.375 c 1.723,0.711 3.309,1.715 4.695,2.946 L 64.91,9.789 c -0.867,2.941 0.906,6.008 3.887,6.727 l 2.617,0.632 c 0.156,0.954 0.238,1.938 0.238,2.942 0,0.961 -0.074,1.902 -0.218,2.82 l -2.746,0.68 c -2.95,0.73 -4.704,3.765 -3.86,6.683 l 0.895,3.11 c -1.387,1.222 -2.969,2.215 -4.692,2.918 l -2.277,-2.395 c -2.109,-2.222 -5.649,-2.222 -7.762,-0.004 l -2.258,2.375 c -1.722,-0.711 -3.308,-1.715 -4.699,-2.945 l 0.871,-2.941 C 45.773,27.449 44,24.383 41.02,23.664 l -2.614,-0.629 c -0.156,-0.957 -0.238,-1.941 -0.238,-2.945 0,-0.961 0.074,-1.902 0.219,-2.817 l 2.742,-0.679 c 2.953,-0.731 4.703,-3.77 3.859,-6.688 L 44.094,6.801 C 45.48,5.578 47.062,4.586 48.785,3.883 Z m 3.851,9.793 c -2.219,0 -4.015,1.801 -4.015,4.02 0,2.219 1.796,4.015 4.015,4.015 2.219,0 4.02,-1.796 4.02,-4.015 0,-2.219 -1.801,-4.02 -4.02,-4.02 z" style="fill:currentColor;fill-opacity:1;fill-rule:nonzero;stroke:none" transform="scale(1.3333333)" /> </g>
</svg>

