<?xml version="1.0" encoding="UTF-8" standalone="no"?> <svg version="1.1" id="Ic5a2e9f764dd47b5810101c0cc7a68d320251110130507" width="100" height="100" viewBox="0 0 100 100" xmlns="http://www.w3.org/2000/svg" xmlns:svg="http://www.w3.org/2000/svg"> <defs id="Ifb6f6befcfd44bd082920f413938363220251110130507" /> <g id="I76c4cdcd4c9141b8a157d646d358a0d320251110130507"> <path id="Ieb78f7c02de646df94c45edc1c676faf20251110130507" d="m 38.559,10.281 c 2.136,-1.992 5.636,-0.484 5.636,2.426 v 25.188 c -5.633,3.554 -9.375,9.832 -9.375,16.984 0,2.359 0.41,4.625 1.157,6.726 L 25.336,51.699 C 24.465,50.891 23.32,50.441 22.129,50.441 h -8.067 c -4.808,0 -8.707,-3.871 -8.707,-8.644 v -9.293 c 0,-4.774 3.899,-8.645 8.707,-8.645 h 8.067 c 1.191,0 2.336,-0.453 3.207,-1.261 z m 6.429,34.446 c 0.844,2.921 -0.906,5.957 -3.859,6.687 l -2.742,0.68 c -0.141,0.914 -0.219,1.855 -0.219,2.816 0,1.004 0.082,1.988 0.242,2.945 l 2.613,0.629 c 2.977,0.719 4.75,3.786 3.883,6.727 l -0.867,2.937 c 1.387,1.235 2.969,2.239 4.695,2.95 l 2.258,-2.375 c 2.11,-2.219 5.653,-2.219 7.766,0.004 l 2.273,2.394 c 1.723,-0.703 3.305,-1.695 4.696,-2.918 l -0.899,-3.105 c -0.844,-2.922 0.91,-5.957 3.86,-6.688 l 2.746,-0.68 c 0.144,-0.918 0.218,-1.859 0.218,-2.82 0,-1.004 -0.082,-1.984 -0.238,-2.941 l -2.617,-0.633 c -2.981,-0.715 -4.754,-3.785 -3.883,-6.723 l 0.867,-2.945 c -1.386,-1.23 -2.972,-2.234 -4.695,-2.945 l -2.262,2.375 c -2.109,2.222 -5.652,2.222 -7.765,0 l -2.274,-2.395 c -1.723,0.703 -3.305,1.695 -4.691,2.918 z M 54.91,58.93 c -2.219,0 -4.015,-1.801 -4.015,-4.02 0,-2.219 1.796,-4.015 4.015,-4.015 2.219,0 4.02,1.796 4.02,4.015 0,2.219 -1.801,4.02 -4.02,4.02 z" style="fill:currentColor;fill-opacity:1;fill-rule:nonzero;stroke:none" transform="scale(1.3333333)" /> </g>
</svg>

