<?xml version="1.0" encoding="UTF-8" standalone="no"?> <svg version="1.1" id="I84192b431d7d4cfc827fd9f121bd6b2c20251106164749" width="100" height="100" viewBox="0 0 100 100" xmlns="http://www.w3.org/2000/svg" xmlns:svg="http://www.w3.org/2000/svg"> <defs id="I2ef0dd22752649ccb15c91600772ba5120251106164749" /> <g id="I65716e89609d4052b332ce6f1705d33f20251106164749"> <path id="I4f2b1bcb2bb14ec4a2dbcf959dc7e68e20251106164749" d="M 68.75,25 C 68.75,14.645 60.355,6.25 50,6.25 c -9.176,0 -16.809,6.59 -18.434,15.293 -1.773,5.754 -3.382,8.883 -4.265,10.34 l -7.863,7.867 c -0.672,0.668 -0.872,1.676 -0.508,2.555 0.258,0.629 0.773,1.097 1.394,1.316 L 13.941,50 c -4.257,0.066 -7.691,3.539 -7.691,7.812 0,2.618 1.289,4.938 3.262,6.352 0.504,0.363 0.961,0.82 1.324,1.324 1.414,1.973 3.734,3.262 6.352,3.262 4.281,0 7.757,-3.441 7.812,-7.707 l 6.375,-6.379 c 0.215,0.625 0.687,1.145 1.32,1.406 0.879,0.364 1.887,0.164 2.555,-0.508 l 7.887,-7.886 c 1.476,-0.887 4.621,-2.485 10.359,-4.25 C 62.18,41.785 68.75,34.164 68.75,25 Z M 26.824,43.75 h 4.426 v 4.41 l -9.738,9.738 c -0.918,0.918 -1.2,2.102 -1.2,3.04 0,1.726 -1.398,3.124 -3.124,3.124 -1.047,0 -1.969,-0.511 -2.543,-1.304 -0.661,-0.922 -1.481,-1.742 -2.403,-2.403 -0.793,-0.57 -1.304,-1.496 -1.304,-2.543 0,-1.726 1.398,-3.124 3.124,-3.124 0.934,0 2.102,-0.282 3.016,-1.192 z" style="fill:currentColor;fill-opacity:1;fill-rule:nonzero;stroke:none" transform="scale(1.3333333)" /> </g>
</svg>

