<?xml version="1.0" encoding="UTF-8" standalone="no"?> <svg version="1.1" id="Ia694504e3fbf4a85aaf7ac3c8465b0d420251110130507" width="100" height="100" viewBox="0 0 100 100" xmlns="http://www.w3.org/2000/svg" xmlns:svg="http://www.w3.org/2000/svg"> <defs id="Iaab1dd1086f34b6aaf8fd2485d3efcd520251110130507" /> <g id="I4a84cb7d5a20452daafad125ac5d2a8d20251110130507"> <path id="If6e5516dc3ab4801bed7bf52387e8cae20251110130507" d="m 34.816,67.633 c 0,1.109 0.899,2.012 2.008,2.012 1.11,0 2.008,-0.903 2.008,-2.012 V 7.367 c 0,-1.109 -0.898,-2.012 -2.008,-2.012 -1.109,0 -2.008,0.903 -2.008,2.012 z M 5.355,18.082 c 0,-4.07 3.301,-7.367 7.368,-7.367 h 19.414 v 53.57 H 12.723 c -4.067,0 -7.368,-3.297 -7.368,-7.367 z M 60.938,64.285 H 41.512 v -53.57 h 19.426 c 4.066,0 7.367,3.297 7.367,7.367 v 38.836 c 0,4.07 -3.301,7.367 -7.367,7.367 z" style="fill:currentColor;fill-opacity:1;fill-rule:nonzero;stroke:none" transform="scale(1.3333333)" /> </g>
</svg>

