<?xml version="1.0" encoding="UTF-8" standalone="no"?> <svg version="1.1" id="I9b69f55310014ad39792e6f97177ba2a20251106155156" width="100" height="100" viewBox="0 0 100 100" xmlns="http://www.w3.org/2000/svg" xmlns:svg="http://www.w3.org/2000/svg"> <defs id="I792f1cf9741c4d1a87e543e7de62980020251106155156" /> <g id="I7a56ecd0e5474d548127819f93c3f81c20251106155156"> <path id="I36b7cdfe81d44b81b2a9252e4e5f7fd920251106155156" d="m 17.188,13.281 c 0,-1.293 1.05,-2.343 2.343,-2.343 H 37.5 V 25 c 0,3.453 2.797,6.25 6.25,6.25 h 14.062 v 30.469 c 0,1.293 -1.05,2.343 -2.343,2.343 H 40.625 v 4.688 h 14.844 c 3.883,0 7.031,-3.148 7.031,-7.031 v -31.52 c 0,-1.449 -0.578,-2.84 -1.602,-3.867 L 42.418,7.852 C 41.391,6.824 40,6.25 38.551,6.25 H 19.531 C 15.648,6.25 12.5,9.398 12.5,13.281 V 37.5 h 4.688 z M 42.188,25 V 14.254 L 54.496,26.562 H 43.75 c -0.863,0 -1.562,-0.699 -1.562,-1.562 z M 14.062,42.969 c 0,1.293 -1.05,2.343 -2.343,2.343 H 7.812 v 21.876 h 3.907 c 1.293,0 2.343,1.05 2.343,2.343 0,1.293 -1.05,2.344 -2.343,2.344 H 7.812 c -2.589,0 -4.687,-2.098 -4.687,-4.687 V 45.312 c 0,-2.589 2.098,-4.687 4.687,-4.687 h 3.907 c 1.293,0 2.343,1.051 2.343,2.344 z m 14.844,2.343 c -1.293,0 -2.344,-1.05 -2.344,-2.343 0,-1.293 1.051,-2.344 2.344,-2.344 h 3.906 c 2.59,0 4.688,2.098 4.688,4.687 v 21.876 c 0,2.589 -2.098,4.687 -4.688,4.687 h -3.906 c -1.293,0 -2.344,-1.051 -2.344,-2.344 0,-1.293 1.051,-2.343 2.344,-2.343 h 3.906 V 45.312 Z m -8.594,7.032 c 1.293,0 2.344,1.051 2.344,2.344 v 10.937 c 0,1.293 -1.051,2.344 -2.344,2.344 -1.292,0 -2.343,-1.051 -2.343,-2.344 V 54.688 c 0,-1.293 1.051,-2.344 2.343,-2.344 z m 0,-2.344 c 1.293,0 2.344,-1.051 2.344,-2.344 0,-1.293 -1.051,-2.344 -2.344,-2.344 -1.292,0 -2.343,1.051 -2.343,2.344 0,1.293 1.051,2.344 2.343,2.344 z" style="fill:currentColor;fill-opacity:1;fill-rule:nonzero;stroke:none" transform="scale(1.3333333)" /> </g>
</svg>

