<?xml version="1.0" encoding="UTF-8" standalone="no"?> <svg version="1.1" id="I766f29a3013c4f548cae6b2de532dac920251106151526" width="100" height="100" viewBox="0 0 100 100" xmlns="http://www.w3.org/2000/svg" xmlns:svg="http://www.w3.org/2000/svg"> <defs id="I209fc52b0b42446b94011d871335b3b720251106151526" /> <g id="Icba7f3bede4e44a3b1aab150715399fb20251106151526"> <path id="I2e66354beb4e4fa2bd7a583df2f5586e20251106151526" d="m 53.906,6.25 c 4.746,0 8.594,3.848 8.594,8.594 v 45.308 c 0,4.746 -3.848,8.594 -8.594,8.594 H 21.094 c -4.746,0 -8.594,-3.848 -8.594,-8.594 V 14.844 c 0,-4.746 3.848,-8.594 8.594,-8.594 h 0.91 v 25.523 c 0,2.336 2.469,3.168 4.121,2.309 l 0.281,-0.168 6.543,-3.742 6.688,3.844 c 1.39,0.961 3.937,0.312 4.218,-1.848 l 0.024,-0.395 V 6.25 Z m -14.715,0 v 22.113 l -5.066,-2.914 c -0.711,-0.34 -1.672,-0.332 -2.477,0.071 l -0.336,0.195 -4.621,2.644 V 6.25 Z" style="fill:currentColor;fill-opacity:1;fill-rule:nonzero;stroke:none" transform="scale(1.3333333)" /> </g>
</svg>

