<?xml version="1.0" encoding="UTF-8" standalone="no"?> <svg version="1.1" id="I97abc21e51f346108395ac46c022787d20251110135156" width="100" height="100" viewBox="0 0 100 100" xmlns="http://www.w3.org/2000/svg" xmlns:svg="http://www.w3.org/2000/svg"> <defs id="Id5c4d5568a5c4a9d806c9a05dccda50d20251110135156" /> <g id="I2db9c456bae54277bc7a0b84bec5298720251110135156"> <path id="I528f71b6021f4c35b77e35e72b2988ed20251110135156" d="m 30.469,6.25 c 0.941,0 1.789,0.562 2.156,1.43 L 54.41,59.027 c -1.433,-1.699 -3.574,-2.777 -5.972,-2.777 -0.098,0 -0.196,0 -0.293,0.004 L 43.5,45.312 H 17.438 L 10.754,61.07 C 10.246,62.262 8.871,62.82 7.68,62.312 6.488,61.809 5.93,60.434 6.438,59.242 L 28.312,7.68 C 28.68,6.812 29.527,6.25 30.469,6.25 Z M 41.512,40.625 30.469,14.594 19.426,40.625 Z M 37.5,64.062 c 0,2.59 -2.098,4.688 -4.688,4.688 -2.589,0 -4.687,-2.098 -4.687,-4.688 0,-2.589 2.098,-4.687 4.687,-4.687 2.59,0 4.688,2.098 4.688,4.687 z m 10.938,4.688 c 2.589,0 4.687,-2.098 4.687,-4.688 0,-2.589 -2.098,-4.687 -4.687,-4.687 -2.59,0 -4.688,2.098 -4.688,4.687 0,2.59 2.098,4.688 4.688,4.688 z m 15.624,0 c 2.59,0 4.688,-2.098 4.688,-4.688 0,-2.589 -2.098,-4.687 -4.688,-4.687 -2.589,0 -4.687,2.098 -4.687,4.687 0,2.59 2.098,4.688 4.687,4.688 z" style="fill:currentColor;fill-opacity:1;fill-rule:nonzero;stroke:none" transform="scale(1.3333333)" /> </g>
</svg>

