<?xml version="1.0" encoding="UTF-8" standalone="no"?> <svg version="1.1" id="I751a1b47802944d6a9a007395653af4620251110124420" width="100" height="100" viewBox="0 0 100 100" xmlns="http://www.w3.org/2000/svg" xmlns:svg="http://www.w3.org/2000/svg"> <defs id="I13901dde117a44509b42f8457fae28cd20251110124420"> <linearGradient x1="25" y1="20.200001" x2="18.419701" y2="21.861799" gradientUnits="userSpaceOnUse" gradientTransform="scale(2.678571)" spreadMethod="pad" id="I3c68cabde3f349428e148aad0b08a74720251110124420"> <stop style="stop-opacity:1;stop-color:#fe8401" offset="0" id="I0bc049cb055f4cf9baf66dde1f8dc71e20251110124420" /> <stop style="stop-opacity:1;stop-color:#ca6407" offset="1" id="I29bae23b1f534e86bf94542b31ff9e2f20251110124420" /> </linearGradient> <linearGradient x1="6.09091" y1="3.7857101" x2="13.2569" y2="24.928301" gradientUnits="userSpaceOnUse" gradientTransform="scale(2.678571)" spreadMethod="pad" id="Ic15e7d0c9289432682449c4f3d6ff56620251110124420"> <stop style="stop-opacity:1;stop-color:#ffe06b" offset="0" id="I813091b1d2c0452580853d6f68f2660520251110124420" /> <stop style="stop-opacity:1;stop-color:#ffb357" offset="0.644682" id="Ib9dc23509f6a4f39b936c6a960a6dce520251110124420" /> <stop style="stop-opacity:1;stop-color:#ff921f" offset="1" id="Ie1ceb24fea3043e9b6d88a7d69d929c520251110124420" /> </linearGradient> <linearGradient x1="5.1999998" y1="8" x2="16.813999" y2="18.907101" gradientUnits="userSpaceOnUse" gradientTransform="scale(2.678571)" spreadMethod="pad" id="Iad87198d11084a729da2412fb7b1d73820251110124420"> <stop style="stop-opacity:1;stop-color:#ff921f" offset="0" id="I15b01279ef224a12be5cf7f0d612a68120251110124420" /> <stop style="stop-opacity:1;stop-color:#ca6407" offset="1" id="Ia9f4108731ec4d439c831b76c1478ce420251110124420" /> </linearGradient> <linearGradient x1="5.1999998" y1="8" x2="16.813999" y2="18.907101" gradientUnits="userSpaceOnUse" gradientTransform="scale(2.678571)" spreadMethod="pad" id="Ic137d52f8f9541c7884a92ae64d9aa2e20251110124420"> <stop style="stop-opacity:1;stop-color:#ff921f" offset="0" id="I2480057f966749dcbd0ea13e56f434b320251110124420" /> <stop style="stop-opacity:1;stop-color:#ca6407" offset="1" id="I5dbdc262e9224b2b85742a6ba1bb144920251110124420" /> </linearGradient> <linearGradient x1="5.1999998" y1="8" x2="16.813999" y2="18.907101" gradientUnits="userSpaceOnUse" gradientTransform="scale(2.678571)" spreadMethod="pad" id="I845afcaf6f6c4b19ab756251c3331d0a20251110124420"> <stop style="stop-opacity:1;stop-color:#ff921f" offset="0" id="I3b84dd3b943245c7962cbd231f7f277120251110124420" /> <stop style="stop-opacity:1;stop-color:#ca6407" offset="1" id="I285c2b2702834115a56b7dc4360deade20251110124420" /> </linearGradient> </defs> <g id="Ie77838f6e3144070ba1e4445eee2501d20251110124420"> <path id="I5caea99d003d4e679f30be4de372e5df20251110124420" d="m 48.215,45.535 h 18.75 v 11.383 c 0,5.551 -4.496,10.047 -10.047,10.047 h -8.703 z" transform="scale(1.3333333)" style="fill:url(#I3c68cabde3f349428e148aad0b08a74720251110124420);stroke:none" /> <path id="I5c24d22f440d442bb62defbc359b344320251110124420" d="m 8.035,15.402 c 0,-4.07 3.297,-7.367 7.367,-7.367 h 30.805 c 4.066,0 7.363,3.297 7.363,7.367 V 66.965 H 18.082 c -5.551,0 -10.047,-4.496 -10.047,-10.047 z" transform="scale(1.3333333)" style="fill:url(#Ic15e7d0c9289432682449c4f3d6ff56620251110124420);stroke:none" /> <path id="Ic737bd0bf89040839f65bffd97b3808520251110124420" d="m 18.75,23.438 c 0,-1.11 0.898,-2.008 2.008,-2.008 h 20.09 c 1.109,0 2.007,0.898 2.007,2.008 0,1.109 -0.898,2.007 -2.007,2.007 h -20.09 c -1.11,0 -2.008,-0.898 -2.008,-2.007 z" transform="scale(1.3333333)" style="fill:url(#Iad87198d11084a729da2412fb7b1d73820251110124420);stroke:none" /> <path id="I67d775274dd44102a6d591df98102d4820251110124420" d="m 18.75,36.832 c 0,-1.109 0.898,-2.012 2.008,-2.012 h 20.09 c 1.109,0 2.007,0.903 2.007,2.012 0,1.109 -0.898,2.008 -2.007,2.008 h -20.09 c -1.11,0 -2.008,-0.899 -2.008,-2.008 z" transform="scale(1.3333333)" style="fill:url(#Ic137d52f8f9541c7884a92ae64d9aa2e20251110124420);stroke:none" /> <path id="Ia22c36fae0144ba9a0b10fbf1c80bbb120251110124420" d="m 20.758,48.215 c -1.11,0 -2.008,0.898 -2.008,2.008 0,1.109 0.898,2.007 2.008,2.007 h 9.375 c 1.109,0 2.012,-0.898 2.012,-2.007 0,-1.11 -0.903,-2.008 -2.012,-2.008 z" transform="scale(1.3333333)" style="fill:url(#I845afcaf6f6c4b19ab756251c3331d0a20251110124420);stroke:none" /> </g>
</svg>

