<?xml version="1.0" encoding="UTF-8" standalone="no"?> <svg version="1.1" id="I4d155dff2a5541d79d0c76960632d5eb20251106103256" width="100" height="100" viewBox="0 0 100 100" xmlns="http://www.w3.org/2000/svg" xmlns:svg="http://www.w3.org/2000/svg"> <defs id="I9819a50d571a428f8b8f1507f13b703c20251106103256" /> <g id="I1e72d0c1009b43219ac4bcd35ef811d220251106103256"> <path id="Ia726161025714217ac94bc21a8bde0ee20251106103256" d="m 66.965,56.25 c 0,-9.34 -5.477,-17.41 -13.395,-21.168 V 21.203 c 0,-1.265 -0.441,-2.488 -1.261,-3.449 L 39.551,2.629 C 39.016,1.992 38.254,1.676 37.5,1.676 c -0.754,0 -1.516,0.316 -2.051,0.953 L 22.691,17.754 c -0.812,0.965 -1.261,2.187 -1.261,3.449 V 35.082 C 13.512,38.84 8.035,46.91 8.035,56.25 h 13.102 c -0.196,0.602 -0.293,1.254 -0.293,1.992 0,1.852 0.636,3.656 1.789,5.09 0.945,1.172 2.191,2.059 3.609,2.563 1.934,4.519 6.328,7.429 11.258,7.429 2.438,0 4.797,-0.719 6.812,-2.074 1.977,-1.324 3.508,-3.172 4.438,-5.355 1.414,-0.504 2.664,-1.387 3.609,-2.555 1.157,-1.445 1.786,-3.238 1.789,-5.09 0,-0.703 -0.089,-1.371 -0.257,-1.992 h 13.074 z m -8.512,-9.594 c 0.785,1.223 1.422,2.539 1.883,3.903 H 53.238 V 41.41 c 2.086,1.363 3.864,3.149 5.215,5.246 z M 27.121,35.082 V 21.328 L 37.5,9.023 47.879,21.328 V 50.559 H 27.121 Z M 14.664,50.559 c 0.461,-1.364 1.098,-2.68 1.883,-3.903 1.367,-2.109 3.141,-3.89 5.215,-5.246 v 9.149 z m 32.555,9.726 c -0.438,0.25 -0.938,0.352 -1.434,0.285 l -1.629,-0.203 -0.234,1.625 c -0.453,3.172 -3.215,5.567 -6.422,5.567 -3.207,0 -5.969,-2.395 -6.422,-5.567 l -0.234,-1.633 -1.629,0.211 c -0.496,0.059 -1,-0.043 -1.434,-0.293 -0.726,-0.418 -1.179,-1.199 -1.179,-2.043 0,-0.886 0.492,-1.625 1.222,-1.992 h 19.36 c 0.738,0.375 1.222,1.113 1.222,1.992 -0.008,0.852 -0.461,1.641 -1.187,2.051 z M 33.48,28.125 c 0,5.355 8.04,5.355 8.04,0 0,-5.355 -8.04,-5.355 -8.04,0 z" style="fill:currentColor;fill-opacity:1;fill-rule:nonzero;stroke:none" transform="scale(1.3333333)" /> </g>
</svg>

