<?xml version="1.0" encoding="UTF-8" standalone="no"?> <svg version="1.1" id="I9b4dde1818bb4199a0981d80af72546220251106164750" width="100" height="100" viewBox="0 0 100 100" xmlns="http://www.w3.org/2000/svg" xmlns:svg="http://www.w3.org/2000/svg"> <defs id="I17c8a875c91340759ec42cf1529a9a6320251106164750" /> <g id="I490d045e718545dea940ceda382272a020251106164750"> <path id="I6aae7ffeccff4848a5e772c42295580c20251106164750" d="m 37.508,12.496 v 19.539 c 0,1.293 -1.051,2.344 -2.344,2.344 -1.297,0 -2.344,-1.051 -2.344,-2.344 V 16.332 c 0,-0.75 -0.64,-1.488 -1.558,-1.492 -0.821,-0.008 -1.574,0.762 -1.574,1.574 v 23.43 c 0,0.965 -0.586,1.828 -1.481,2.179 -0.891,0.356 -1.91,0.129 -2.566,-0.57 h -0.004 l -0.008,-0.008 c -0.012,-0.015 -0.035,-0.039 -0.07,-0.07 -0.067,-0.066 -0.172,-0.172 -0.317,-0.301 -0.289,-0.262 -0.719,-0.621 -1.254,-1 -1.101,-0.777 -2.531,-1.551 -4.07,-1.82 -1.68,-0.293 -3.273,-0.113 -4.332,0.434 -0.652,0.335 -1.16,0.828 -1.391,1.648 l 5.184,3.898 c 0.086,0.063 0.168,0.137 0.246,0.215 l 6.797,6.789 c 2.922,2.914 5.351,6.285 7.195,9.977 0.875,1.746 2.66,2.847 4.61,2.847 h 8.523 c 1.789,0 3.344,-0.851 4.145,-2.226 2.3,-3.938 5.355,-10.274 5.355,-15.731 V 21.879 c 0,-0.836 -0.672,-1.559 -1.566,-1.559 -0.903,0 -1.571,0.719 -1.571,1.559 v 10.937 c 0,1.293 -1.051,2.344 -2.343,2.344 -1.297,0 -2.344,-1.051 -2.344,-2.344 V 16.414 c 0,-0.871 -0.672,-1.574 -1.551,-1.574 -0.898,0 -1.563,0.703 -1.563,1.574 v 15.621 c 0,1.293 -1.05,2.344 -2.343,2.344 -1.293,0 -2.344,-1.051 -2.344,-2.344 V 12.496 c 0,-0.851 -0.664,-1.558 -1.559,-1.558 -0.906,0 -1.558,0.695 -1.558,1.558 z m -6.215,-2.344 c 0.66,0.004 1.285,0.106 1.871,0.289 z m 1.871,0.289 c 0.82,-2.367 3.031,-4.195 5.906,-4.191 2.864,0.004 5.071,1.832 5.891,4.191 0.594,-0.187 1.234,-0.289 1.914,-0.289 3.465,0 5.926,2.672 6.211,5.68 0.504,-0.129 1.039,-0.199 1.598,-0.199 3.656,0 6.254,2.996 6.254,6.246 v 24.226 c 0,6.813 -3.661,14.098 -5.997,18.094 -1.738,2.977 -4.933,4.551 -8.191,4.551 h -8.523 c -3.727,0 -7.133,-2.105 -8.801,-5.441 -1.621,-3.239 -3.754,-6.196 -6.317,-8.758 L 16.43,47.879 10.309,43.281 C 9.723,42.84 9.375,42.145 9.375,41.406 c 0,-3.316 1.66,-5.644 4.059,-6.883 2.238,-1.156 4.945,-1.296 7.293,-0.886 1.621,0.285 3.07,0.886 4.273,1.547 v -18.77 c 0,-3.312 2.777,-6.285 6.293,-6.262" style="fill:currentColor;fill-opacity:1;fill-rule:nonzero;stroke:none" transform="scale(1.3333333)" /> </g>
</svg>

