<?xml version="1.0" encoding="UTF-8" standalone="no"?> <svg version="1.1" id="I1319a6ed2fbb46cd88bb4cc29c3c9a0c20251106143238" width="100" height="100" viewBox="0 0 100 100" xmlns="http://www.w3.org/2000/svg" xmlns:svg="http://www.w3.org/2000/svg"> <defs id="Icfa0abde23094d9fb4a3efd816b6852e20251106143238" /> <g id="I4e664531b2e643cd88ceed881b96282920251106143238"> <path id="Ie301e070456b4e0ba905041295da076120251106143238" d="m 24.43,8.699 c -1.836,-1.863 -4.836,-1.863 -6.672,0 L 9.055,17.52 c -1.297,1.316 -2.024,3.089 -2.024,4.937 v 38.481 c 0,3.882 3.149,7.031 7.031,7.031 h 9.376 V 51.562 c 0,-1.292 1.05,-2.343 2.343,-2.343 h 9.375 V 22.457 c 0,-1.848 -0.726,-3.621 -2.023,-4.937 z m 15.414,13.758 v 26.762 h 9.375 c 1.293,0 2.343,1.051 2.343,2.343 v 16.407 h 9.376 c 3.882,0 7.031,-3.149 7.031,-7.031 V 22.457 c 0,-1.848 -0.727,-3.621 -2.024,-4.937 L 57.242,8.699 c -1.836,-1.863 -4.836,-1.863 -6.672,0 l -8.703,8.821 c -1.297,1.316 -2.023,3.089 -2.023,4.937 z m 0,31.449 v 14.063 h 7.031 V 53.906 Z M 35.156,67.969 V 53.906 H 28.125 V 67.969 Z M 21.094,31.055 c -1.617,0 -2.93,-1.313 -2.93,-2.93 0,-1.617 1.313,-2.93 2.93,-2.93 1.617,0 2.929,1.313 2.929,2.93 0,1.617 -1.312,2.93 -2.929,2.93 z m 29.883,-2.93 c 0,-1.617 1.312,-2.93 2.929,-2.93 1.617,0 2.93,1.313 2.93,2.93 0,1.617 -1.313,2.93 -2.93,2.93 -1.617,0 -2.929,-1.313 -2.929,-2.93 z M 21.094,42.773 c -1.617,0 -2.93,-1.312 -2.93,-2.929 0,-1.617 1.313,-2.93 2.93,-2.93 1.617,0 2.929,1.313 2.929,2.93 0,1.617 -1.312,2.929 -2.929,2.929 z m 29.883,-2.929 c 0,-1.617 1.312,-2.93 2.929,-2.93 1.617,0 2.93,1.313 2.93,2.93 0,1.617 -1.313,2.929 -2.93,2.929 -1.617,0 -2.929,-1.312 -2.929,-2.929 z" style="fill:currentColor;fill-opacity:1;fill-rule:nonzero;stroke:none" transform="scale(1.3333333)" /> </g>
</svg>

