<?xml version="1.0" encoding="UTF-8" standalone="no"?> <svg version="1.1" id="Ic877602e82f6426e83930ae65921230f20251110124422" width="100" height="100" viewBox="0 0 100 100" xmlns="http://www.w3.org/2000/svg" xmlns:svg="http://www.w3.org/2000/svg"> <defs id="I34d9a3a9e3d948a5976ff2206b112b5020251110124422" /> <g id="Ic6a7dec8cd8b4f0faeeccd043f8ae45f20251110124422"> <path id="I999498a0c0c045238450e284125b5c4220251110124422" d="m 6.25,21.094 c 0,-4.746 3.848,-8.594 8.594,-8.594 h 45.312 c 4.746,0 8.594,3.848 8.594,8.594 v 18.937 c -3.648,-3.504 -8.605,-5.656 -14.062,-5.656 -1.852,0 -3.645,0.246 -5.348,0.711 -0.426,-0.438 -1.024,-0.711 -1.684,-0.711 H 21.094 c -1.293,0 -2.344,1.051 -2.344,2.344 0,1.293 1.051,2.343 2.344,2.343 h 20.613 c -1.609,1.336 -3.008,2.918 -4.141,4.688 H 21.094 c -1.293,0 -2.344,1.051 -2.344,2.344 0,1.293 1.051,2.344 2.344,2.344 h 14.261 c -0.636,1.968 -0.98,4.07 -0.98,6.25 0,2.769 0.555,5.406 1.559,7.812 H 14.844 C 10.098,62.5 6.25,58.652 6.25,53.906 Z M 21.094,25 c -1.293,0 -2.344,1.051 -2.344,2.344 0,1.293 1.051,2.344 2.344,2.344 h 14.062 c 1.293,0 2.344,-1.051 2.344,-2.344 C 37.5,26.051 36.449,25 35.156,25 Z m 50.781,29.688 c 0,9.492 -7.695,17.187 -17.187,17.187 C 45.195,71.875 37.5,64.18 37.5,54.688 37.5,45.195 45.195,37.5 54.688,37.5 c 9.492,0 17.187,7.695 17.187,17.188 z M 45.312,53.125 c -0.863,0 -1.562,0.699 -1.562,1.563 0,0.863 0.699,1.562 1.562,1.562 h 14.977 l -5.144,5.145 c -0.61,0.609 -0.61,1.601 0,2.21 0.609,0.61 1.601,0.61 2.21,0 l 7.813,-7.812 c 0.609,-0.609 0.609,-1.602 0,-2.211 L 57.355,45.77 c -0.609,-0.61 -1.601,-0.61 -2.21,0 -0.61,0.609 -0.61,1.601 0,2.21 l 5.144,5.145 z" style="fill:currentColor;fill-opacity:1;fill-rule:nonzero;stroke:none" transform="scale(1.3333333)" /> </g>
</svg>

