<?xml version="1.0" encoding="UTF-8" standalone="no"?> <svg version="1.1" id="I356abf92c9e24a678c6eb70fc7305e3420251110123031" width="100" height="100" viewBox="0 0 100 100" xmlns="http://www.w3.org/2000/svg" xmlns:svg="http://www.w3.org/2000/svg"> <defs id="Ib3f7e2ca2a564e669aa77f2d79eb229620251110123031" /> <g id="I1f5f3d983ab543e3a2138559df43959520251110123031"> <path id="I1009f0f7b46d45fe8f9e775c6c4f9f7720251110123031" d="m 10.246,9.297 c 0.981,3.41 -1.062,6.949 -4.504,7.801 l -1.828,0.453 c -0.141,0.898 -0.211,1.82 -0.211,2.761 0,0.985 0.078,1.95 0.231,2.887 l 1.687,0.406 c 3.477,0.836 5.543,4.415 4.531,7.844 L 9.57,33.422 c 1.371,1.207 2.938,2.183 4.637,2.879 L 15.75,34.68 c 2.465,-2.59 6.594,-2.59 9.059,0.004 l 1.558,1.64 c 1.699,-0.691 3.262,-1.66 4.633,-2.855 l -0.617,-2.141 c -0.985,-3.41 1.062,-6.949 4.504,-7.801 l 1.824,-0.453 c 0.141,-0.898 0.211,-1.82 0.211,-2.762 0,-0.984 -0.078,-1.949 -0.231,-2.886 L 35.008,17.02 C 31.531,16.184 29.461,12.605 30.477,9.176 L 31.055,7.203 C 29.684,6 28.121,5.02 26.418,4.324 l -1.539,1.621 c -2.465,2.59 -6.598,2.59 -9.063,-0.004 L 14.258,4.301 C 12.559,4.992 11,5.961 9.625,7.156 Z M 20.312,25 c -2.5,0 -4.531,-2.098 -4.531,-4.688 0,-2.589 2.031,-4.687 4.531,-4.687 2.504,0 4.532,2.098 4.532,4.687 0,2.59 -2.028,4.688 -4.532,4.688 z m 3.126,15.387 c -1.02,0.156 -2.063,0.238 -3.126,0.238 -0.527,0 -1.046,-0.02 -1.562,-0.059 v 13.34 c 0,3.883 3.148,7.032 7.031,7.032 H 42.969 C 46.852,60.938 50,57.789 50,53.906 V 13.281 C 50,9.398 46.852,6.25 42.969,6.25 h -8 c 1.332,1.387 2.469,2.965 3.367,4.688 h 4.633 c 1.293,0 2.343,1.05 2.343,2.343 v 40.625 c 0,1.293 -1.05,2.344 -2.343,2.344 H 25.781 c -1.293,0 -2.343,-1.051 -2.343,-2.344 z m 7.031,8.051 c -1.293,0 -2.344,1.05 -2.344,2.343 0,1.293 1.051,2.344 2.344,2.344 h 7.812 c 1.293,0 2.344,-1.051 2.344,-2.344 0,-1.293 -1.051,-2.343 -2.344,-2.343 z m -3.508,15.624 c 0.965,2.731 3.57,4.688 6.633,4.688 h 10.937 c 7.336,0 13.281,-5.945 13.281,-13.281 V 21.094 c 0,-3.063 -1.957,-5.664 -4.687,-6.633 v 41.008 c 0,4.746 -3.848,8.593 -8.594,8.593 z" style="fill:currentColor;fill-opacity:1;fill-rule:nonzero;stroke:none" transform="scale(1.3333333)" /> </g>
</svg>

