<?xml version="1.0" encoding="UTF-8" standalone="no"?> <svg version="1.1" id="I1844f7d2ca114d49bc8b3d2a5a8f629d20251106152729" width="100" height="100" viewBox="0 0 100 100" xmlns="http://www.w3.org/2000/svg" xmlns:svg="http://www.w3.org/2000/svg"> <defs id="Ibff64b7161594d79a7a7c4d5b05f4a3120251106152729" /> <g id="Iabf4221a63d74e8790d3a42e60f68e6c20251106152729"> <path id="Ibaabf1e7c9e7405e9423600b753867a820251106152729" d="m 12.734,10.715 c -4.07,0 -7.367,3.297 -7.367,7.367 v 38.836 c 0,4.07 3.297,7.367 7.367,7.367 h 35.481 v -6.258 c -1.688,-2.398 -2.68,-5.32 -2.68,-8.472 0,-1.891 0.356,-3.7 1.004,-5.36 h -4.351 c -1.11,0 -2.008,-0.898 -2.008,-2.007 0,-1.11 0.898,-2.008 2.008,-2.008 h 6.714 c 2.703,-3.274 6.789,-5.36 11.368,-5.36 3.562,0 6.828,1.266 9.375,3.371 V 18.082 c 0,-4.07 -3.297,-7.367 -7.368,-7.367 z M 40.18,31.473 c 0,-1.11 0.898,-2.008 2.008,-2.008 h 14.73 c 1.109,0 2.012,0.898 2.012,2.008 0,1.109 -0.903,2.007 -2.012,2.007 h -14.73 c -1.11,0 -2.008,-0.898 -2.008,-2.007 z m -10.047,0 c 0,2.589 -2.098,4.687 -4.688,4.687 -2.586,0 -4.687,-2.098 -4.687,-4.687 0,-2.59 2.101,-4.688 4.687,-4.688 2.59,0 4.688,2.098 4.688,4.688 z M 18.75,38.84 h 13.395 c 1.476,0 2.675,1.199 2.675,2.68 v 1.335 c 0,0 -1.34,6.7 -9.375,6.7 -8.035,0 -9.375,-6.7 -9.375,-6.7 V 41.52 c 0,-1.481 1.2,-2.68 2.68,-2.68 z m 50.895,3.14 c 1.675,2.067 2.675,4.704 2.675,7.575 0,2.871 -1.004,5.507 -2.679,7.578 -2.211,2.73 -5.586,4.472 -9.371,4.472 -6.661,0 -12.055,-5.394 -12.055,-12.05 0,-1.926 0.449,-3.746 1.254,-5.36 0.773,-1.558 1.879,-2.929 3.222,-4.015 2.071,-1.676 4.707,-2.68 7.579,-2.68 3.785,0 7.164,1.746 9.375,4.48 z m -2.946,20.832 c -1.691,0.821 -3.562,1.329 -5.539,1.45 -0.254,0.011 -0.508,0.023 -0.762,0.023 -0.043,0 -0.086,0 -0.128,0 -0.043,0 -0.09,0 -0.133,0 -0.254,0 -0.508,-0.012 -0.762,-0.023 -2.078,-0.125 -4.043,-0.684 -5.805,-1.582 -0.957,-0.489 -1.855,-1.082 -2.675,-1.762 v 9.535 c 0,1.563 1.796,2.442 3.027,1.477 l 6.348,-4.965 6.343,4.965 c 1.231,0.965 3.032,0.086 3.032,-1.477 v -9.535 c -0.899,0.742 -1.887,1.379 -2.946,1.894 z" style="fill:currentColor;fill-opacity:1;fill-rule:nonzero;stroke:none" transform="scale(1.3333333)" /> </g>
</svg>

