<?xml version="1.0" encoding="UTF-8" standalone="no"?> <svg version="1.1" id="I39119b4247764e67bb9d0f6cf813c14a20251106105458" width="100" height="100" viewBox="0 0 100 100" xmlns="http://www.w3.org/2000/svg" xmlns:svg="http://www.w3.org/2000/svg"> <defs id="Ib7c4a62233da4aa0b14a1a6c8bc9b4c420251106105458" /> <g id="I38eb654af7bd4221a0f583c57b9c1cf520251106105458"> <path id="I7c9ab84510a24d69a2b6456c4abf3cc320251106105458" d="M 64.285,0 H 10.715 C 9.234,0 8.035,1.195 8.035,2.68 v 69.64 c 0,1.485 1.199,2.68 2.68,2.68 h 53.57 c 1.481,0 2.68,-1.195 2.68,-2.68 V 2.68 C 66.965,1.195 65.766,0 64.285,0 Z M 42.523,6.027 h 8.036 v 17.571 l -3.895,-2.84 -4.141,2.965 z M 60.938,68.973 H 14.062 V 6.027 H 37.5 v 24.852 c 0,0.277 0.082,0.551 0.25,0.777 0.43,0.606 1.27,0.746 1.867,0.313 l 7.016,-5.016 6.812,4.973 c 0.227,0.168 0.504,0.258 0.789,0.258 0.735,0 1.336,-0.602 1.336,-1.34 V 6.027 h 5.36 v 62.946 z" style="fill:currentColor;fill-opacity:1;fill-rule:nonzero;stroke:none" transform="scale(1.3333333)" /> </g>
</svg>

