<?xml version="1.0" encoding="UTF-8" standalone="no"?> <svg version="1.1" id="Ie060a8aeaa8c42b68abd0f3c5bd13e5520251106125937" width="100" height="100" viewBox="0 0 100 100" xmlns="http://www.w3.org/2000/svg" xmlns:svg="http://www.w3.org/2000/svg"> <defs id="I1f8c479ea9604e6b8a1438b6bfa3715120251106125937"> <linearGradient x1="5.5355301" y1="3" x2="21.0305" y2="26.625" gradientUnits="userSpaceOnUse" gradientTransform="scale(3.125)" spreadMethod="pad" id="Ib4ccfbd45cbd4048a83f3d735d2ff5f620251106125937"> <stop style="stop-opacity:1;stop-color:#0fafff" offset="0" id="Ieffdfd4a1dc647389c278fe75b43a5dc20251106125937" /> <stop style="stop-opacity:1;stop-color:#0067bf" offset="0.923415" id="Icaa3c630f27e48e5a8a6eff5d8b074f320251106125937" /> <stop style="stop-opacity:1;stop-color:#0067bf" offset="1" id="Ie09d9b2819e74a6080ef0ed6b8e4380820251106125937" /> </linearGradient> <linearGradient x1="11.9754" y1="0.85714501" x2="16.035601" y2="31.2857" gradientUnits="userSpaceOnUse" gradientTransform="scale(3.125)" spreadMethod="pad" id="I55d08d14ecf740cc946a838c2b2f4a3c20251106125937"> <stop style="stop-opacity:0;stop-color:#885edb" offset="0" id="I3ad2d5d4bdcb4796befefe5786d907c120251106125937" /> <stop style="stop-opacity:1;stop-color:#e362f8" offset="1" id="I54c20cab37c44bc79cca08d6421f613820251106125937" /> </linearGradient> </defs> <g id="Ic2077098e24e40f2a16ce715a3d121b920251106125937"> <path id="I6d59d10a467b4a6999741d8b892321c120251106125937" d="m 41.379,9.641 c 1.398,0.191 2.371,1.433 2.371,2.843 0,2.016 -1.957,3.469 -3.965,3.258 -0.75,-0.078 -1.512,-0.117 -2.285,-0.117 -0.773,0 -1.535,0.039 -2.285,0.117 -2.008,0.211 -3.965,-1.238 -3.965,-3.258 0,-1.41 0.973,-2.652 2.371,-2.843 1.27,-0.176 2.563,-0.266 3.879,-0.266 1.316,0 2.609,0.09 3.879,0.266 z m -1.594,49.617 c 2.008,-0.211 3.965,1.238 3.965,3.258 0,1.41 -0.973,2.652 -2.371,2.843 -1.27,0.176 -2.563,0.266 -3.879,0.266 -1.316,0 -2.609,-0.09 -3.879,-0.266 -1.398,-0.191 -2.371,-1.433 -2.371,-2.843 0,-2.02 1.957,-3.469 3.965,-3.258 0.75,0.078 1.512,0.117 2.285,0.117 0.773,0 1.535,-0.039 2.285,-0.117 z m 8.653,-0.883 c 0,2.395 2.441,3.984 4.445,2.676 3.254,-2.129 6.039,-4.914 8.168,-8.168 1.308,-2.004 -0.281,-4.445 -2.676,-4.445 -1.191,0 -2.277,0.648 -2.965,1.624 -1.461,2.079 -3.269,3.887 -5.348,5.348 -0.976,0.688 -1.624,1.774 -1.624,2.965 z M 59.375,20.977 v 0.898 C 59.375,23.602 57.977,25 56.25,25 h -9.375 c -1.727,0 -3.125,-1.398 -3.125,-3.125 0,-1.727 1.398,-3.125 3.125,-3.125 h 2.309 c -0.469,-0.609 -0.746,-1.344 -0.746,-2.129 0,-2.391 2.441,-3.98 4.441,-2.672 0.082,0.055 0.164,0.11 0.246,0.164 V 12.5 c 0,-1.727 1.398,-3.125 3.125,-3.125 1.727,0 3.125,1.398 3.125,3.125 v 8.449 c 0,0.008 0,0.02 0,0.028 z M 22.117,13.949 c 2.004,-1.308 4.445,0.281 4.445,2.676 0,1.191 -0.648,2.277 -1.624,2.965 -2.079,1.461 -3.887,3.269 -5.348,5.348 -0.688,0.976 -1.774,1.624 -2.965,1.624 -2.395,0 -3.984,-2.441 -2.676,-4.445 2.129,-3.254 4.914,-6.039 8.168,-8.168 z M 9.641,33.621 c -0.176,1.27 -0.266,2.563 -0.266,3.879 0,1.316 0.09,2.609 0.266,3.879 0.191,1.398 1.433,2.371 2.843,2.371 2.02,0 3.469,-1.957 3.258,-3.965 -0.078,-0.75 -0.117,-1.512 -0.117,-2.285 0,-0.773 0.039,-1.535 0.117,-2.285 0.211,-2.008 -1.238,-3.965 -3.258,-3.965 -1.41,0 -2.652,0.973 -2.843,2.371 z m 12.476,27.43 c 2.004,1.308 4.445,-0.281 4.445,-2.676 0,-1.191 -0.648,-2.277 -1.624,-2.965 -2.079,-1.461 -3.887,-3.269 -5.348,-5.348 -0.688,-0.976 -1.774,-1.624 -2.965,-1.624 -2.395,0 -3.984,2.441 -2.676,4.445 2.129,3.254 4.914,6.039 8.168,8.168 z M 65.453,40.617 C 65.645,38.902 64.227,37.5 62.5,37.5 h -0.418 c -1.496,0 -2.691,1.254 -2.879,2.738 -0.223,1.797 1.086,3.512 2.895,3.512 h 0.418 c 1.41,0 2.652,-0.973 2.843,-2.371 0.036,-0.254 0.067,-0.504 0.094,-0.762 z" transform="scale(1.3333333)" style="fill:url(#Ib4ccfbd45cbd4048a83f3d735d2ff5f620251106125937);stroke:none" /> <path d="m 41.379,9.641 c 1.398,0.191 2.371,1.433 2.371,2.843 0,2.016 -1.957,3.469 -3.965,3.258 -0.75,-0.078 -1.512,-0.117 -2.285,-0.117 -0.773,0 -1.535,0.039 -2.285,0.117 -2.008,0.211 -3.965,-1.238 -3.965,-3.258 0,-1.41 0.973,-2.652 2.371,-2.843 1.27,-0.176 2.563,-0.266 3.879,-0.266 1.316,0 2.609,0.09 3.879,0.266 z m -1.594,49.617 c 2.008,-0.211 3.965,1.238 3.965,3.258 0,1.41 -0.973,2.652 -2.371,2.843 -1.27,0.176 -2.563,0.266 -3.879,0.266 -1.316,0 -2.609,-0.09 -3.879,-0.266 -1.398,-0.191 -2.371,-1.433 -2.371,-2.843 0,-2.02 1.957,-3.469 3.965,-3.258 0.75,0.078 1.512,0.117 2.285,0.117 0.773,0 1.535,-0.039 2.285,-0.117 z m 8.653,-0.883 c 0,2.395 2.441,3.984 4.445,2.676 3.254,-2.129 6.039,-4.914 8.168,-8.168 1.308,-2.004 -0.281,-4.445 -2.676,-4.445 -1.191,0 -2.277,0.648 -2.965,1.624 -1.461,2.079 -3.269,3.887 -5.348,5.348 -0.976,0.688 -1.624,1.774 -1.624,2.965 z M 59.375,20.977 v 0.898 C 59.375,23.602 57.977,25 56.25,25 h -9.375 c -1.727,0 -3.125,-1.398 -3.125,-3.125 0,-1.727 1.398,-3.125 3.125,-3.125 h 2.309 c -0.469,-0.609 -0.746,-1.344 -0.746,-2.129 0,-2.391 2.441,-3.98 4.441,-2.672 0.082,0.055 0.164,0.11 0.246,0.164 V 12.5 c 0,-1.727 1.398,-3.125 3.125,-3.125 1.727,0 3.125,1.398 3.125,3.125 v 8.449 c 0,0.008 0,0.02 0,0.028 z M 22.117,13.949 c 2.004,-1.308 4.445,0.281 4.445,2.676 0,1.191 -0.648,2.277 -1.624,2.965 -2.079,1.461 -3.887,3.269 -5.348,5.348 -0.688,0.976 -1.774,1.624 -2.965,1.624 -2.395,0 -3.984,-2.441 -2.676,-4.445 2.129,-3.254 4.914,-6.039 8.168,-8.168 z M 9.641,33.621 c -0.176,1.27 -0.266,2.563 -0.266,3.879 0,1.316 0.09,2.609 0.266,3.879 0.191,1.398 1.433,2.371 2.843,2.371 2.02,0 3.469,-1.957 3.258,-3.965 -0.078,-0.75 -0.117,-1.512 -0.117,-2.285 0,-0.773 0.039,-1.535 0.117,-2.285 0.211,-2.008 -1.238,-3.965 -3.258,-3.965 -1.41,0 -2.652,0.973 -2.843,2.371 z m 12.476,27.43 c 2.004,1.308 4.445,-0.281 4.445,-2.676 0,-1.191 -0.648,-2.277 -1.624,-2.965 -2.079,-1.461 -3.887,-3.269 -5.348,-5.348 -0.688,-0.976 -1.774,-1.624 -2.965,-1.624 -2.395,0 -3.984,2.441 -2.676,4.445 2.129,3.254 4.914,6.039 8.168,8.168 z M 65.453,40.617 C 65.645,38.902 64.227,37.5 62.5,37.5 h -0.418 c -1.496,0 -2.691,1.254 -2.879,2.738 -0.223,1.797 1.086,3.512 2.895,3.512 h 0.418 c 1.41,0 2.652,-0.973 2.843,-2.371 0.036,-0.254 0.067,-0.504 0.094,-0.762 z" transform="scale(1.3333333)" style="fill:url(#I55d08d14ecf740cc946a838c2b2f4a3c20251106125937);stroke:none" opacity="1" id="Ib436813d4e7247e1a9f1aafceeb2ba1020251106125937" /> </g>
</svg>

