<?xml version="1.0" encoding="UTF-8" standalone="no"?> <svg version="1.1" id="I78c27e9597c14b119d5612a4ae8e8da620251106170412" width="100" height="100" viewBox="0 0 100 100" xmlns="http://www.w3.org/2000/svg" xmlns:svg="http://www.w3.org/2000/svg"> <defs id="I9394c5cba1f54340a160868753e8492420251106170412" /> <g id="Icc6ef7fb1e6c495c853ee0565ef0df6d20251106170412"> <path id="Ieb5fb2be59c44f8ba1d922237d073d1e20251106170412" d="m 5.355,16.07 c 0,-1.476 1.2,-2.675 2.68,-2.675 h 58.922 c 1.477,0 2.676,1.199 2.676,2.675 0,1.481 -1.199,2.68 -2.676,2.68 H 8.035 c -1.48,0 -2.68,-1.199 -2.68,-2.68 z m 30.696,21.215 c 2.804,1.332 6.082,2.895 10.746,2.895 4.078,0 7.199,-1.219 9.781,-2.227 0.356,-0.141 0.699,-0.277 1.039,-0.402 2.75,-1.043 5.207,-1.742 8.805,-1 1.449,0.301 2.867,-0.633 3.164,-2.082 0.301,-1.446 -0.629,-2.864 -2.078,-3.164 -5.047,-1.043 -8.637,0.043 -11.785,1.234 -0.391,0.149 -0.766,0.293 -1.133,0.434 -2.598,1.004 -4.781,1.847 -7.793,1.847 -3.402,0 -5.735,-1.082 -8.539,-2.418 l -0.094,-0.047 c -2.805,-1.332 -6.082,-2.89 -10.746,-2.89 -4.668,0 -7.945,1.558 -10.746,2.89 l -0.098,0.047 c -2.804,1.336 -5.136,2.418 -8.539,2.418 -1.48,0 -2.68,1.2 -2.68,2.68 0,1.48 1.2,2.68 2.68,2.68 4.668,0 7.945,-1.563 10.746,-2.895 l 0.098,-0.047 c 2.805,-1.332 5.137,-2.418 8.539,-2.418 3.402,0 5.73,1.086 8.539,2.418 z M 6.41,61.055 c 1.172,0.898 2.852,0.675 3.75,-0.496 0.039,-0.047 0.078,-0.094 0.117,-0.141 0.094,-0.113 0.243,-0.285 0.442,-0.496 0.398,-0.43 0.98,-1 1.703,-1.567 1.492,-1.171 3.305,-2.105 5.172,-2.105 0.879,0 1.269,0.199 1.5,0.359 0.328,0.227 0.597,0.551 1.148,1.27 l 0.063,0.082 c 0.476,0.625 1.211,1.586 2.289,2.332 1.222,0.844 2.703,1.312 4.554,1.312 3.536,0 6.168,-1.726 8.114,-3.003 l 0.168,-0.114 c 2.125,-1.39 3.527,-2.238 5.343,-2.238 1.778,0 3.039,0.809 5.012,2.191 l 0.149,0.11 c 1.836,1.289 4.355,3.054 7.937,3.054 3.418,0 7.188,-1.613 9.82,-2.976 1.379,-0.711 2.571,-1.422 3.418,-1.949 0.422,-0.27 0.766,-0.492 1.004,-0.649 0.129,-0.09 0.258,-0.176 0.387,-0.265 1.211,-0.848 1.508,-2.52 0.656,-3.731 -0.847,-1.211 -2.519,-1.508 -3.73,-0.656 -0.094,0.066 -0.192,0.129 -0.285,0.195 -0.203,0.133 -0.5,0.328 -0.879,0.567 -0.754,0.472 -1.813,1.101 -3.028,1.73 -2.55,1.317 -5.328,2.379 -7.363,2.379 -1.777,0 -3.039,-0.809 -5.012,-2.191 l -0.152,-0.11 c -1.832,-1.289 -4.352,-3.054 -7.934,-3.054 -3.535,0 -6.168,1.726 -8.113,3.003 l -0.168,0.114 c -2.125,1.39 -3.527,2.238 -5.344,2.238 -0.878,0 -1.273,-0.199 -1.503,-0.359 -0.325,-0.227 -0.598,-0.551 -1.149,-1.27 l -0.062,-0.082 c -0.477,-0.625 -1.211,-1.586 -2.289,-2.332 -1.219,-0.844 -2.704,-1.312 -4.551,-1.312 -3.594,0 -6.563,1.742 -8.481,3.25 -0.984,0.773 -1.769,1.539 -2.308,2.117 -0.27,0.289 -0.485,0.535 -0.637,0.715 -0.086,0.105 -0.172,0.211 -0.254,0.316 L 5.91,57.297 c -0.004,0.004 0,0.004 0,0.004 -0.902,1.176 -0.676,2.855 0.5,3.754 z" style="fill:currentColor;fill-opacity:1;fill-rule:nonzero;stroke:none" transform="scale(1.3333333)" /> </g>
</svg>

