<?xml version="1.0" encoding="UTF-8" standalone="no"?> <svg version="1.1" id="I05ae1cb95c1047488e6981f26535cc5b20251110130507" width="100" height="100" viewBox="0 0 100 100" xmlns="http://www.w3.org/2000/svg" xmlns:svg="http://www.w3.org/2000/svg"> <defs id="I54fae32f3c674b77bc83a199b182eca820251110130507" /> <g id="I9fcfd9e12baf4ca2962e8beda48ce71020251110130507"> <path id="Ibbaf3b63e6b54a84906ac070e0f16dd820251110130507" d="m 33.48,8.035 c -1.476,0 -2.675,1.199 -2.675,2.68 0,1.48 1.199,2.68 2.675,2.68 h 8.04 c 1.476,0 2.675,-1.2 2.675,-2.68 0,-1.481 -1.199,-2.68 -2.675,-2.68 z m 0,53.57 c -1.476,0 -2.675,1.2 -2.675,2.68 0,1.481 1.199,2.68 2.675,2.68 h 8.04 c 1.476,0 2.675,-1.199 2.675,-2.68 0,-1.48 -1.199,-2.68 -2.675,-2.68 z M 10.715,44.195 c -1.481,0 -2.68,-1.199 -2.68,-2.675 v -8.04 c 0,-1.476 1.199,-2.675 2.68,-2.675 1.48,0 2.68,1.199 2.68,2.675 v 8.04 c 0,1.476 -1.2,2.675 -2.68,2.675 z m 50.89,-2.675 c 0,1.476 1.2,2.675 2.68,2.675 1.481,0 2.68,-1.199 2.68,-2.675 v -8.04 c 0,-1.476 -1.199,-2.675 -2.68,-2.675 -1.48,0 -2.68,1.199 -2.68,2.675 z M 21.43,10.715 c 0,-1.481 -1.2,-2.68 -2.68,-2.68 h -0.668 c -5.551,0 -10.047,4.496 -10.047,10.047 v 0.668 c 0,1.48 1.199,2.68 2.68,2.68 1.48,0 2.68,-1.2 2.68,-2.68 v -0.668 c 0,-2.59 2.097,-4.687 4.687,-4.687 h 0.668 c 1.48,0 2.68,-1.2 2.68,-2.68 z m -2.68,56.25 c 1.48,0 2.68,-1.199 2.68,-2.68 0,-1.48 -1.2,-2.68 -2.68,-2.68 h -0.668 c -2.59,0 -4.687,-2.097 -4.687,-4.687 V 56.25 c 0,-1.48 -1.2,-2.68 -2.68,-2.68 -1.481,0 -2.68,1.2 -2.68,2.68 v 0.668 c 0,5.551 4.496,10.047 10.047,10.047 z m 34.82,-56.25 c 0,-1.481 1.2,-2.68 2.68,-2.68 h 0.668 c 5.551,0 10.047,4.496 10.047,10.047 v 0.668 c 0,1.48 -1.199,2.68 -2.68,2.68 -1.48,0 -2.68,-1.2 -2.68,-2.68 v -0.668 c 0,-2.59 -2.097,-4.687 -4.687,-4.687 H 56.25 c -1.48,0 -2.68,-1.2 -2.68,-2.68 z m 2.68,56.25 c -1.48,0 -2.68,-1.199 -2.68,-2.68 0,-1.48 1.2,-2.68 2.68,-2.68 h 0.668 c 2.59,0 4.687,-2.097 4.687,-4.687 V 56.25 c 0,-1.48 1.2,-2.68 2.68,-2.68 1.481,0 2.68,1.2 2.68,2.68 v 0.668 c 0,5.551 -4.496,10.047 -10.047,10.047 z" style="fill:currentColor;fill-opacity:1;fill-rule:nonzero;stroke:none" transform="scale(1.3333333)" /> </g>
</svg>

