<?xml version="1.0" encoding="UTF-8" standalone="no"?> <svg version="1.1" id="Ide94a16e59fb4084bf7539db56c4917f20251106152729" width="100" height="100" viewBox="0 0 100 100" xmlns="http://www.w3.org/2000/svg" xmlns:svg="http://www.w3.org/2000/svg"> <defs id="I610eda23cb154c80aeacb8313ca3f90420251106152729" /> <g id="I973df8894843496294b0c9fa6db9077b20251106152729"> <path id="I29284ffa231842e4b342c4dfb3e065ad20251106152729" d="m 6.25,25.781 c 0,-5.609 4.547,-10.156 10.156,-10.156 h 42.188 c 5.609,0 10.156,4.547 10.156,10.156 v 3.907 H 6.25 Z m 42.969,8.594 H 6.25 v 14.844 c 0,5.609 4.547,10.156 10.156,10.156 h 17.969 v -8.594 c 0,-3.781 2.684,-6.933 6.25,-7.656 v -0.156 c 0,-4.746 3.848,-8.594 8.594,-8.594 z m -7.031,11.719 h 1.562 v -3.125 c 0,-3.02 2.449,-5.469 5.469,-5.469 h 10.937 c 3.02,0 5.469,2.449 5.469,5.469 v 3.125 h 1.563 c 2.589,0 4.687,2.097 4.687,4.687 V 56.25 H 62.5 v -1.562 c 0,-0.864 -0.699,-1.563 -1.562,-1.563 -0.864,0 -1.563,0.699 -1.563,1.563 V 56.25 H 50 v -1.562 c 0,-0.864 -0.699,-1.563 -1.562,-1.563 -0.864,0 -1.563,0.699 -1.563,1.563 V 56.25 H 37.5 v -5.469 c 0,-2.59 2.098,-4.687 4.688,-4.687 z m 7.031,-3.906 c -0.43,0 -0.781,0.351 -0.781,0.781 v 3.125 h 12.5 v -3.125 c 0,-0.43 -0.352,-0.781 -0.782,-0.781 z m 10.156,18.75 V 59.375 H 50 v 1.563 c 0,0.863 -0.699,1.562 -1.562,1.562 -0.864,0 -1.563,-0.699 -1.563,-1.562 V 59.375 H 37.5 v 7.813 c 0,2.589 2.098,4.687 4.688,4.687 h 25 c 2.589,0 4.687,-2.098 4.687,-4.687 V 59.375 H 62.5 v 1.563 c 0,0.863 -0.699,1.562 -1.562,1.562 -0.864,0 -1.563,-0.699 -1.563,-1.562 z" style="fill:currentColor;fill-opacity:1;fill-rule:nonzero;stroke:none" transform="scale(1.3333333)" /> </g>
</svg>

