<?xml version="1.0" encoding="UTF-8" standalone="no"?> <svg version="1.1" id="I5bce70f4ef7a4da88d60b18f9f3dfa8420251106112235" width="100" height="100" viewBox="0 0 100 100" xmlns="http://www.w3.org/2000/svg" xmlns:svg="http://www.w3.org/2000/svg"> <defs id="I4bafc304125c427d8bcc717556a8180d20251106112235" /> <g id="If964352e58e44f79b134193e92f4db6a20251106112235"> <path id="Ie5215203244a457b8182d5b46987f1dd20251106112235" d="M 72.121,28.551 55.129,7.316 C 55.027,7.191 54.871,7.117 54.711,7.113 H 20.289 c -0.156,0 -0.316,0.078 -0.418,0.203 L 2.879,28.551 c -0.16,0.207 -0.156,0.5 0.016,0.695 l 34.203,38.465 c 0.101,0.117 0.25,0.176 0.402,0.176 0.152,0 0.293,-0.071 0.402,-0.176 L 72.105,29.246 c 0.172,-0.195 0.176,-0.488 0.016,-0.695 z M 48.648,11.918 51.527,23.129 40.438,11.918 Z m 0.688,14.941 H 25.664 L 37.5,14.898 Z M 26.352,11.918 h 8.21 L 23.461,23.129 Z m -4.473,0.586 -3.691,14.355 H 10.395 Z M 10.934,31.047 h 7.898 L 29.363,51.781 Z M 37.5,58.543 23.531,31.047 h 27.93 z m 8.129,-6.762 10.539,-20.734 h 7.898 z M 56.812,26.859 53.121,12.504 64.605,26.859 Z" style="fill:currentColor;fill-opacity:1;fill-rule:nonzero;stroke:none" transform="scale(1.3333333)" /> </g>
</svg>

