<?xml version="1.0" encoding="UTF-8" standalone="no"?> <svg version="1.1" id="I25efcd82b44a45359c473b09a44d5b1c20251110133655" width="100" height="100" viewBox="0 0 100 100" xmlns="http://www.w3.org/2000/svg" xmlns:svg="http://www.w3.org/2000/svg"> <defs id="I28796e86f7624f1b94f05ea01c46ef0020251110133655" /> <g id="I1d43c89b72d24b619540a2b298ac0bab20251110133655"> <path id="I176928cdf9924e1fb3031ddbfa57d9a820251110133655" d="m 49.219,6.25 c 3.883,0 7.031,3.148 7.031,7.031 v 48.438 c 0,3.883 -3.148,7.031 -7.031,7.031 H 25.781 c -3.883,0 -7.031,-3.148 -7.031,-7.031 V 13.281 c 0,-3.883 3.148,-7.031 7.031,-7.031 z m 0,4.688 H 25.781 c -1.293,0 -2.343,1.05 -2.343,2.343 v 48.438 c 0,1.293 1.05,2.343 2.343,2.343 h 23.438 c 1.293,0 2.343,-1.05 2.343,-2.343 V 13.281 c 0,-1.293 -1.05,-2.343 -2.343,-2.343 z m -7.817,43.75 c 1.293,0 2.348,1.046 2.348,2.339 0,1.293 -1.047,2.348 -2.34,2.348 l -7.812,0.012 c -1.293,0.004 -2.348,-1.047 -2.348,-2.34 0,-1.293 1.047,-2.344 2.34,-2.348 z m 3.91,-26.567 c 0.766,0 1.407,0.551 1.54,1.281 l 0.023,0.282 v 18.757 c 0,0.766 -0.555,1.407 -1.281,1.539 l -0.282,0.024 H 29.688 c -0.766,0 -1.407,-0.551 -1.54,-1.281 L 28.125,48.441 V 29.684 c 0,-0.766 0.555,-1.407 1.281,-1.539 l 0.282,-0.024 z m 0,-12.496 c 0.766,0 1.407,0.555 1.54,1.281 l 0.023,0.282 v 6.265 c 0,0.766 -0.555,1.402 -1.281,1.535 l -0.282,0.028 H 29.688 c -0.766,0 -1.407,-0.555 -1.54,-1.282 l -0.023,-0.281 v -6.265 c 0,-0.766 0.555,-1.407 1.281,-1.54 l 0.282,-0.023 z" style="fill:currentColor;fill-opacity:1;fill-rule:nonzero;stroke:none" transform="scale(1.3333333)" /> </g>
</svg>

