<?xml version="1.0" encoding="UTF-8" standalone="no"?> <svg version="1.1" id="I073171b31c344e63ad716f5bb865223320251110133655" width="100" height="100" viewBox="0 0 100 100" xmlns="http://www.w3.org/2000/svg" xmlns:svg="http://www.w3.org/2000/svg"> <defs id="I1cfbf282f4e94f1486b8991e4e40630e20251110133655"> <radialGradient fx="0" fy="0" cx="0" cy="0" r="1" gradientUnits="userSpaceOnUse" gradientTransform="matrix(0,-39.036563,55.000938,0,37.499063,54.063438)" spreadMethod="pad" id="I6a38dfe394cd46e4b5eacf3618a476d220251110133655"> <stop style="stop-opacity:1;stop-color:#8b52f4" offset="0" id="I826757f370174a779b97ef2c8c98d87e20251110133655" /> <stop style="stop-opacity:1;stop-color:#8b52f4" offset="0.113636" id="I419a984c749b483e9f53c138f887eafd20251110133655" /> <stop style="stop-opacity:1;stop-color:#ea71ef" offset="1" id="I01b60ecceeb9458bafaa7028b05f77b820251110133655" /> </radialGradient> </defs> <g id="I9e235719e1fc49849677389ad5c8e6fd20251110133655"> <path id="Id02c94dee27e4472ba579402b5a2cd8120251110133655" d="m 55.574,33.465 c 1.864,1.863 3.473,4.117 4.699,6.512 0.786,1.539 0.18,3.421 -1.359,4.207 -1.535,0.785 -3.418,0.175 -4.203,-1.36 -0.938,-1.832 -2.168,-3.554 -3.555,-4.941 -7.48,-7.481 -19.605,-7.481 -27.082,0 -1.453,1.453 -2.633,3.086 -3.543,4.883 -0.777,1.539 -2.656,2.156 -4.199,1.379 -1.539,-0.782 -2.156,-2.661 -1.375,-4.2 1.203,-2.386 2.773,-4.558 4.699,-6.48 9.918,-9.922 26,-9.922 35.918,0 z m -6.402,9.347 c 1.441,1.438 2.621,3.2 3.441,5.075 0.692,1.582 -0.027,3.425 -1.605,4.117 -1.582,0.695 -3.426,-0.027 -4.117,-1.606 -0.52,-1.179 -1.262,-2.293 -2.137,-3.168 -3.945,-3.945 -10.344,-3.945 -14.285,0 -0.871,0.872 -1.582,1.934 -2.102,3.125 -0.691,1.583 -2.535,2.305 -4.117,1.614 -1.582,-0.696 -2.301,-2.535 -1.609,-4.117 0.824,-1.887 1.968,-3.602 3.406,-5.04 6.387,-6.386 16.738,-6.386 23.125,0 z M 63.809,25.934 c 1.589,1.586 3.086,3.398 4.386,5.285 0.981,1.422 0.625,3.367 -0.797,4.347 -1.418,0.981 -3.363,0.625 -4.343,-0.796 -1.094,-1.582 -2.352,-3.102 -3.664,-4.418 -12.102,-12.102 -31.719,-12.102 -43.821,0 -1.25,1.25 -2.492,2.769 -3.629,4.406 -0.98,1.418 -2.929,1.769 -4.347,0.785 -1.418,-0.984 -1.77,-2.93 -0.785,-4.348 1.336,-1.929 2.812,-3.734 4.339,-5.261 14.543,-14.543 38.122,-14.543 52.661,0 z M 40.816,51.379 c 1.832,1.832 1.832,4.801 0,6.633 -1.832,1.832 -4.8,1.832 -6.632,0 -1.832,-1.832 -1.832,-4.801 0,-6.633 1.832,-1.832 4.8,-1.832 6.632,0 z" transform="scale(1.3333333)" style="fill:url(#I6a38dfe394cd46e4b5eacf3618a476d220251110133655);stroke:none" /> </g>
</svg>

