<?xml version="1.0" encoding="UTF-8" standalone="no"?> <svg version="1.1" id="Ic3772f28cac943428ff27f77614955d820251110123029" width="100" height="100" viewBox="0 0 100 100" xmlns="http://www.w3.org/2000/svg" xmlns:svg="http://www.w3.org/2000/svg"> <defs id="I4db12034d1954cb6909620076ccc231320251110123029" /> <g id="I453c7657463942f298e8a14f592aef3420251110123029"> <path id="I31bd4cd7b92542899cd99d217f830d8220251110123029" d="m 37.5,7.031 c 0,-1.293 -1.051,-2.343 -2.344,-2.343 -1.293,0 -2.344,1.05 -2.344,2.343 v 3.907 c -0.96,0.335 -1.859,0.89 -2.628,1.656 L 8.688,34.09 c -2.747,2.746 -2.747,7.199 0,9.945 l 15.246,15.246 c 2.746,2.746 7.199,2.746 9.945,0 L 55.375,37.785 c 2.746,-2.746 2.746,-7.199 0,-9.945 L 40.129,12.594 C 39.359,11.828 38.461,11.273 37.5,10.938 Z m -4.688,9.567 v 4.496 c 0,1.293 1.051,2.344 2.344,2.344 1.293,0 2.344,-1.051 2.344,-2.344 v -4.496 l 14.559,14.558 c 0.918,0.914 0.918,2.399 0,3.313 L 49.031,37.5 H 11.914 c 0.027,-0.031 0.059,-0.062 0.09,-0.094 z m 28.192,25.91 c -1.027,-1.93 -3.793,-1.93 -4.82,0 l -6.278,11.765 c -3.496,6.559 1.258,14.477 8.688,14.477 7.429,0 12.183,-7.918 8.687,-14.477 z" style="fill:currentColor;fill-opacity:1;fill-rule:nonzero;stroke:none" transform="scale(1.3333333)" /> </g>
</svg>

