<?xml version="1.0" encoding="UTF-8" standalone="no"?> <svg version="1.1" id="If933d01bc12f4c1783ab683a30955a9a20251106165302" width="100" height="100" viewBox="0 0 100 100" xmlns="http://www.w3.org/2000/svg" xmlns:svg="http://www.w3.org/2000/svg"> <defs id="Icdb27bdb456e4aef8090cc8ae870a63f20251106165302" /> <g id="I97c12fdd66174be8abfecb483672e62920251106165302"> <path id="Ieb6d95a3c50c423993e9e73eb7b5f8bd20251106165302" d="m 61.703,15.625 c 3.883,0 7.031,3.148 7.031,7.031 v 29.703 c 0,3.883 -3.148,7.032 -7.031,7.032 H 13.281 C 9.398,59.391 6.25,56.242 6.25,52.359 V 22.656 c 0,-3.883 3.148,-7.031 7.031,-7.031 z M 20.312,50 H 31.25 c 1.293,0 2.344,-1.051 2.344,-2.344 0,-1.293 -1.051,-2.344 -2.344,-2.344 H 20.312 c -1.292,0 -2.343,1.051 -2.343,2.344 0,1.293 1.051,2.344 2.343,2.344 z m 9.391,-15.625 c -1.726,0 -3.125,1.398 -3.125,3.125 0,1.727 1.399,3.125 3.125,3.125 1.727,0 3.125,-1.398 3.125,-3.125 0,-1.727 -1.398,-3.125 -3.125,-3.125 z m -9.375,0 c -1.726,0 -3.125,1.398 -3.125,3.125 0,1.727 1.399,3.125 3.125,3.125 1.727,0 3.125,-1.398 3.125,-3.125 0,-1.727 -1.398,-3.125 -3.125,-3.125 z M 18.75,25 c -1.727,0 -3.125,1.398 -3.125,3.125 0,1.727 1.398,3.125 3.125,3.125 1.727,0 3.125,-1.398 3.125,-3.125 C 21.875,26.398 20.477,25 18.75,25 Z m 9.359,0 c -1.726,0 -3.125,1.398 -3.125,3.125 0,1.727 1.399,3.125 3.125,3.125 1.727,0 3.125,-1.398 3.125,-3.125 C 31.234,26.398 29.836,25 28.109,25 Z" style="fill:currentColor;fill-opacity:1;fill-rule:nonzero;stroke:none" transform="scale(1.3333333)" /> </g>
</svg>

