<?xml version="1.0" encoding="UTF-8" standalone="no"?> <svg version="1.1" id="I34768f4862ee450db9471ddd3e52ea0120251106123559" width="100" height="100" viewBox="0 0 100 100" xmlns="http://www.w3.org/2000/svg" xmlns:svg="http://www.w3.org/2000/svg"> <defs id="I6afa4d70608b411fbceb30408a84573b20251106123559" /> <g id="I6511d117185b4a268fa5a9cbaca9f7f920251106123559"> <path id="I19773e01ac4845d3b7cc2820c102174a20251106123559" d="M 64.285,34.82 H 40.18 V 10.715 c 0,-1.481 -1.2,-2.68 -2.68,-2.68 -1.48,0 -2.68,1.199 -2.68,2.68 V 34.82 H 10.715 c -1.481,0 -2.68,1.2 -2.68,2.68 0,1.48 1.199,2.68 2.68,2.68 H 34.82 v 24.105 c 0,1.481 1.2,2.68 2.68,2.68 1.48,0 2.68,-1.199 2.68,-2.68 V 40.18 h 24.105 c 1.481,0 2.68,-1.2 2.68,-2.68 0,-1.48 -1.199,-2.68 -2.68,-2.68 z" style="fill:currentColor;fill-opacity:1;fill-rule:nonzero;stroke:none" transform="scale(1.3333333)" /> </g>
</svg>

