<?xml version="1.0" encoding="UTF-8" standalone="no"?> <svg version="1.1" id="Ibb44bb53389d44e3932af9b7a5ebe21920251106170412" width="100" height="100" viewBox="0 0 100 100" xmlns="http://www.w3.org/2000/svg" xmlns:svg="http://www.w3.org/2000/svg"> <defs id="I1ce0e308e0964aec8ac42ad7076b2ae720251106170412" /> <g id="Ic547c8324a9d40e6827127a547f2906720251106170412"> <path id="I505b4c1a13384834a8358fa32eeaebaa20251106170412" d="m 49.508,60.465 -0.985,4.133 c -0.757,3.16 -3.55,5.449 -6.851,5.691 l -0.59,0.023 h -7.168 c -3.359,0 -6.297,-2.117 -7.285,-5.171 L 26.473,64.59 25.488,60.465 Z M 37.5,4.688 c 13.59,0 24.609,10.652 24.609,23.789 0,7.011 -3.175,13.433 -9.386,19.168 -0.121,0.109 -0.203,0.253 -0.243,0.41 l -1.789,7.488 H 40.047 V 33.398 c 0,-1.359 -1.141,-2.46 -2.547,-2.46 -1.406,0 -2.547,1.101 -2.547,2.46 V 55.543 H 24.309 L 22.523,48.055 C 22.488,47.898 22.402,47.754 22.281,47.645 16.066,41.91 12.891,35.488 12.891,28.477 12.891,15.34 23.91,4.688 37.5,4.688 Z m -2.547,15.585 v 4.922 c 0,1.36 1.141,2.461 2.547,2.461 1.406,0 2.547,-1.101 2.547,-2.461 v -4.922 c 0,-1.359 -1.141,-2.461 -2.547,-2.461 -1.406,0 -2.547,1.102 -2.547,2.461 z m 17.074,4.809 c -0.992,-0.961 -2.605,-0.961 -3.597,0 l -3.602,3.48 c -0.992,0.961 -0.992,2.52 0,3.481 0.996,0.961 2.606,0.961 3.602,0 l 3.597,-3.481 c 0.996,-0.96 0.996,-2.519 0,-3.48 z m -25.457,0 c -0.992,-0.961 -2.605,-0.961 -3.597,0 -0.996,0.961 -0.996,2.52 0,3.48 l 3.597,3.481 c 0.996,0.961 2.606,0.961 3.602,0 0.992,-0.961 0.992,-2.52 0,-3.481 z" style="fill:currentColor;fill-opacity:1;fill-rule:nonzero;stroke:none" transform="scale(1.3333333)" /> </g>
</svg>

