<?xml version="1.0" encoding="UTF-8" standalone="no"?>
<!-- Created with Inkscape (http://www.inkscape.org/) -->

<svg
   version="1.1"
   id="Ife7c7b1fd3b744088f86447a7a73912a20251030195519"
   width="100"
   height="100"
   viewBox="0 0 100 100"
   sodipodi:docname="output.ai"
   xmlns:inkscape="http://www.inkscape.org/namespaces/inkscape"
   xmlns:sodipodi="http://sodipodi.sourceforge.net/DTD/sodipodi-0.dtd"
   xmlns="http://www.w3.org/2000/svg"
   xmlns:svg="http://www.w3.org/2000/svg">
  <defs
     id="I93f35f5223e440819475afe839c849b220251030195519" />
  <sodipodi:namedview
     id="Ib51b48b32de24719a64ba4189cabb7ba20251030195519"
     pagecolor="#ffffff"
     bordercolor="#000000"
     borderopacity="0.25"
     inkscape:showpageshadow="2"
     inkscape:pageopacity="0.0"
     inkscape:pagecheckerboard="0"
     inkscape:deskcolor="#d1d1d1">
    <inkscape:page
       x="0"
       y="0"
       inkscape:label="1"
       id="Id3ff9e36507f4344a7dc50d7536f943b20251030195519"
       width="100"
       height="100"
       margin="0"
       bleed="0" />
  </sodipodi:namedview>
  <g
     id="I5f12222083844926b5df08f3d1d9bc6220251030195519"
     inkscape:groupmode="layer"
     inkscape:label="1">
    <path
       id="I7a1f16806f3643b995ae2bf2bddf548020251030195519"
       d="m 37.504,24.609 c -2.805,0 -5.078,-2.273 -5.078,-5.078 0,-2.804 2.273,-5.078 5.078,-5.078 2.805,0 5.078,2.274 5.078,5.078 0,2.805 -2.273,5.078 -5.078,5.078 z m 0,17.969 c -2.805,0 -5.078,-2.273 -5.078,-5.078 0,-2.805 2.273,-5.078 5.078,-5.078 2.805,0 5.078,2.273 5.078,5.078 0,2.805 -2.273,5.078 -5.078,5.078 z m -5.078,12.891 c 0,2.804 2.273,5.078 5.078,5.078 2.805,0 5.078,-2.274 5.078,-5.078 0,-2.805 -2.273,-5.078 -5.078,-5.078 -2.805,0 -5.078,2.273 -5.078,5.078 z"
       style="fill:#212121;fill-opacity:1;fill-rule:nonzero;stroke:none"
       transform="scale(1.3333333)" />
  </g>
</svg>

