<?xml version="1.0" encoding="UTF-8" standalone="no"?> <svg version="1.1" id="I237d95aaf3a4488bbae5c01d6ab5bb3e20251106154012" width="100" height="100" viewBox="0 0 100 100" xmlns="http://www.w3.org/2000/svg" xmlns:svg="http://www.w3.org/2000/svg"> <defs id="I0ffbd0a7f5ab4a35875217b17a2feeaf20251106154012" /> <g id="Ib5c2f1658099409cb9cf282b156bb37320251106154012"> <path id="I1d54b17371974a50b044eb23333a2ec020251106154012" d="m 21.094,17.578 c 3.234,0 5.859,-2.625 5.859,-5.859 0,-3.235 -2.625,-5.86 -5.859,-5.86 -3.235,0 -5.86,2.625 -5.86,5.86 0,3.234 2.625,5.859 5.86,5.859 z m 0,16.406 c 3.234,0 5.859,-2.625 5.859,-5.859 0,-3.234 -2.625,-5.859 -5.859,-5.859 -3.235,0 -5.86,2.625 -5.86,5.859 0,3.234 2.625,5.859 5.86,5.859 z m 0,16.407 c 3.234,0 5.859,-2.625 5.859,-5.86 0,-3.234 -2.625,-5.859 -5.859,-5.859 -3.235,0 -5.86,2.625 -5.86,5.859 0,3.235 2.625,5.86 5.86,5.86 z M 37.5,17.578 c 3.234,0 5.859,-2.625 5.859,-5.859 0,-3.235 -2.625,-5.86 -5.859,-5.86 -3.234,0 -5.859,2.625 -5.859,5.86 0,3.234 2.625,5.859 5.859,5.859 z m 0,16.406 c 3.234,0 5.859,-2.625 5.859,-5.859 0,-3.234 -2.625,-5.859 -5.859,-5.859 -3.234,0 -5.859,2.625 -5.859,5.859 0,3.234 2.625,5.859 5.859,5.859 z m 0,16.407 c 3.234,0 5.859,-2.625 5.859,-5.86 0,-3.234 -2.625,-5.859 -5.859,-5.859 -3.234,0 -5.859,2.625 -5.859,5.859 0,3.235 2.625,5.86 5.859,5.86 z m 0,16.406 c 3.234,0 5.859,-2.625 5.859,-5.859 0,-3.235 -2.625,-5.86 -5.859,-5.86 -3.234,0 -5.859,2.625 -5.859,5.86 0,3.234 2.625,5.859 5.859,5.859 z M 53.906,17.578 c 3.235,0 5.86,-2.625 5.86,-5.859 0,-3.235 -2.625,-5.86 -5.86,-5.86 -3.234,0 -5.859,2.625 -5.859,5.86 0,3.234 2.625,5.859 5.859,5.859 z m 0,16.406 c 3.235,0 5.86,-2.625 5.86,-5.859 0,-3.234 -2.625,-5.859 -5.86,-5.859 -3.234,0 -5.859,2.625 -5.859,5.859 0,3.234 2.625,5.859 5.859,5.859 z m 0,16.407 c 3.235,0 5.86,-2.625 5.86,-5.86 0,-3.234 -2.625,-5.859 -5.86,-5.859 -3.234,0 -5.859,2.625 -5.859,5.859 0,3.235 2.625,5.86 5.859,5.86 z" style="fill:currentColor;fill-opacity:1;fill-rule:nonzero;stroke:none" transform="scale(1.3333333)" /> </g>
</svg>

