<?xml version="1.0" encoding="UTF-8" standalone="no"?> <svg version="1.1" id="I6113657e42d9484f926e6669f9c3194120251106144520" width="100" height="100" viewBox="0 0 100 100" xmlns="http://www.w3.org/2000/svg" xmlns:svg="http://www.w3.org/2000/svg"> <defs id="I378ba05a17554bea8742c7213c2887a420251106144520"> <linearGradient x1="2.7142899" y1="5.8125" x2="12.5469" y2="19.433399" gradientUnits="userSpaceOnUse" gradientTransform="scale(3.125)" spreadMethod="pad" id="I18dd7e1d19b641d9a02a741ba2f5533920251106144520"> <stop style="stop-opacity:1;stop-color:#0fafff" offset="0" id="Icc6f5be5098840acb65296a48e787abd20251106144520" /> <stop style="stop-opacity:1;stop-color:#2764e7" offset="1" id="I6db77a4c50414b35afefa2a07821fcbe20251106144520" /> </linearGradient> <linearGradient x1="23.4" y1="21.950001" x2="15.8241" y2="0.86943299" gradientUnits="userSpaceOnUse" gradientTransform="scale(3.125)" spreadMethod="pad" id="Idbfefe1fd7184a98a3cfd92dbe76fb9320251106144520"> <stop style="stop-opacity:0.90000763;stop-color:#9deaff" offset="0" id="I4006fcfe48744e77888fa088d4e5657020251106144520" /> <stop style="stop-opacity:0.90000763;stop-color:#ffffff" offset="1" id="I6eaa0f8ceef348dfa6e9ab52603bee8c20251106144520" /> </linearGradient> <radialGradient fx="0" fy="0" cx="0" cy="0" r="1" gradientUnits="userSpaceOnUse" gradientTransform="matrix(0,29.552625,-41.393125,0,18.751406,47.074688)" spreadMethod="pad" id="I680b15724e7e4fa5a31c0b38df5e9e0f20251106144520"> <stop style="stop-opacity:1;stop-color:#163697" offset="0" id="Ib88a2f845c1f4871933f99d495c400e520251106144520" /> <stop style="stop-opacity:1;stop-color:#29c3ff" offset="1" id="Id8e59069ec1240ffb3ab558c5c5af6cc20251106144520" /> </radialGradient> <radialGradient fx="0" fy="0" cx="0" cy="0" r="1" gradientUnits="userSpaceOnUse" gradientTransform="matrix(76.798026,116.5367,-99.808153,65.773868,-47.779688,-56.264063)" spreadMethod="pad" id="I0adb5e40847f4ceeaebaa9fc4bf27f9220251106144520"> <stop style="stop-opacity:1;stop-color:#ffcd0f" offset="0" id="Icd907882563244c4a101c072d8c9907820251106144520" /> <stop style="stop-opacity:1;stop-color:#ffcd0f" offset="0.771547" id="Ibdc34eca64ec4bce88bc759fc977eb3020251106144520" /> <stop style="stop-opacity:1;stop-color:#e67505" offset="0.990707" id="I7ed7076942774e5ca4b952a1c58014b320251106144520" /> <stop style="stop-opacity:1;stop-color:#e67505" offset="1" id="I30dfe12b21fa452faca9029e76bec76620251106144520" /> </radialGradient> </defs> <g id="Icb9b06fd1551492e863e6aed7e83884320251106144520"> <path id="I298a869eace54b8ab808ac9b639b28da20251106144520" d="m 14.844,9.375 c -4.746,0 -8.594,3.848 -8.594,8.594 V 43.75 h 1.562 c 0,2.98 1.192,5.684 3.126,7.656 v 4.844 h 49.218 c 4.746,0 8.594,-3.848 8.594,-8.594 V 17.969 c 0,-4.746 -3.848,-8.594 -8.594,-8.594 z" transform="scale(1.3333333)" style="fill:url(#I18dd7e1d19b641d9a02a741ba2f5533920251106144520);stroke:none" /> <path d="m 21.094,21.875 c -1.293,0 -2.344,1.051 -2.344,2.344 0,1.293 1.051,2.343 2.344,2.343 h 32.812 c 1.293,0 2.344,-1.05 2.344,-2.343 0,-1.293 -1.051,-2.344 -2.344,-2.344 z M 39.844,37.5 c -1.293,0 -2.344,1.051 -2.344,2.344 0,1.293 1.051,2.344 2.344,2.344 h 14.062 c 1.293,0 2.344,-1.051 2.344,-2.344 0,-1.293 -1.051,-2.344 -2.344,-2.344 z" transform="scale(1.3333333)" style="fill:url(#Idbfefe1fd7184a98a3cfd92dbe76fb9320251106144520);stroke:none" opacity="1" id="Ia1a0fcb4e631410bbec3a856074f307e20251106144520" /> <path id="I23114563ecc34fd0b59220edf74b075a20251106144520" d="m 28.129,50 c -2.613,1.961 -5.859,3.125 -9.379,3.125 -3.516,0 -6.762,-1.16 -9.375,-3.121 v 16.398 c 0,1.786 1.891,2.875 3.406,2.09 l 0.281,-0.168 5.688,-3.976 5.688,3.976 c 1.46,1.02 3.437,0.098 3.664,-1.597 l 0.019,-0.325 z" transform="scale(1.3333333)" style="fill:url(#I680b15724e7e4fa5a31c0b38df5e9e0f20251106144520);stroke:none" /> <path id="Ie22934b6e1a540e7a5f8d417fac6e38820251106144520" d="m 18.75,31.25 c -6.906,0 -12.504,5.598 -12.504,12.5 0,6.906 5.598,12.504 12.504,12.504 6.902,0 12.5,-5.598 12.5,-12.504 0,-6.902 -5.598,-12.5 -12.5,-12.5 z" transform="scale(1.3333333)" style="fill:url(#I0adb5e40847f4ceeaebaa9fc4bf27f9220251106144520);stroke:none" /> </g>
</svg>

