<?xml version="1.0" encoding="UTF-8" standalone="no"?> <svg version="1.1" id="I442fd57cfbf04434a4897cd9582dce8c20251110130508" width="100" height="100" viewBox="0 0 100 100" xmlns="http://www.w3.org/2000/svg" xmlns:svg="http://www.w3.org/2000/svg"> <defs id="Icbfff9e58819460b9db648c48745418d20251110130508" /> <g id="Id477a3d6260c4ba1885496cb1d44191b20251110130508"> <path id="Ib290156060314e6ebc4a029a257c81d520251110130508" d="M 60,19.754 V 48.75 C 60,54.965 54.965,60 48.75,60 H 19.754 c 1.297,2.242 3.719,3.75 6.496,3.75 h 22.5 c 8.285,0 15,-6.715 15,-15 v -22.5 c 0,-2.777 -1.508,-5.199 -3.75,-6.496 z M 43.125,35.625 c 1.035,0 1.875,-0.84 1.875,-1.875 0,-1.035 -0.84,-1.875 -1.875,-1.875 h -18.75 c -1.035,0 -1.875,0.84 -1.875,1.875 0,1.035 0.84,1.875 1.875,1.875 z M 48.75,11.25 c 4.141,0 7.5,3.359 7.5,7.5 v 30 c 0,4.141 -3.359,7.5 -7.5,7.5 h -30 c -4.141,0 -7.5,-3.359 -7.5,-7.5 v -30 c 0,-4.141 3.359,-7.5 7.5,-7.5 z m 3.75,7.5 C 52.5,16.68 50.82,15 48.75,15 h -30 C 16.68,15 15,16.68 15,18.75 v 30 c 0,2.07 1.68,3.75 3.75,3.75 h 30 c 2.07,0 3.75,-1.68 3.75,-3.75 z" style="fill:currentColor;fill-opacity:1;fill-rule:nonzero;stroke:none" transform="scale(1.3333333)" /> </g>
</svg>

