<?xml version="1.0" encoding="UTF-8" standalone="no"?> <svg version="1.1" id="I15589ef34ae44b1abc5c5c8c2afa860320251106163938" width="100" height="100" viewBox="0 0 100 100" xmlns="http://www.w3.org/2000/svg" xmlns:svg="http://www.w3.org/2000/svg"> <defs id="I0eef94deca0040559ceb9de8c379d7f020251106163938" /> <g id="Iad5d427444d742f193101e9417481e0520251106163938"> <path id="If6b3bc62f67d42b39ceb846c425adbfb20251106163938" d="m 28.812,11.434 4,4 -7.316,7.316 c -0.437,0.441 -1.035,0.688 -1.656,0.688 H 4.688 v -2.344 c 0,-6.473 5.246,-11.719 11.718,-11.719 h 7.434 c 1.863,0 3.652,0.742 4.972,2.059 z M 4.688,44.531 V 28.125 H 23.84 c 1.863,0 3.652,-0.742 4.972,-2.059 l 9.661,-9.66 h 10.746 c 6.472,0 11.719,5.246 11.719,11.719 v 16.406 c 0,6.473 -5.247,11.719 -11.719,11.719 H 16.406 C 9.934,56.25 4.688,51.004 4.688,44.531 Z M 65.625,28.125 v 16.406 c 0,9.063 -7.344,16.407 -16.406,16.407 H 16.406 c 2.141,2.847 5.543,4.687 9.375,4.687 h 23.438 c 11.652,0 21.093,-9.441 21.093,-21.094 V 37.5 c 0,-3.832 -1.839,-7.234 -4.687,-9.375 z" style="fill:currentColor;fill-opacity:1;fill-rule:nonzero;stroke:none" transform="scale(1.3333333)" /> </g>
</svg>

