<?xml version="1.0" encoding="UTF-8" standalone="no"?> <svg version="1.1" id="Ic913e22a5ff742f1a9401dbddf9ad2ff20251106103256" width="100" height="100" viewBox="0 0 100 100" xmlns="http://www.w3.org/2000/svg" xmlns:svg="http://www.w3.org/2000/svg"> <defs id="I31a884df8e0949988388f05714bb590320251106103256" /> <g id="Ia5c93c57e3004d16a56e41db2506ae9a20251106103256"> <path id="Ibf8006ad4de5426f85121c74e437007920251106103256" d="M 37.316,4.02 C 37.254,4.023 37.195,4.031 37.133,4.039 H 36.77 L 36.488,4.18 C 36.223,4.27 35.973,4.391 35.742,4.547 L 23.527,10.66 10.66,23.527 4.578,35.684 c -0.176,0.25 -0.316,0.531 -0.41,0.824 L 4.039,36.77 v 0.332 c -0.027,0.23 -0.027,0.464 0,0.695 v 24.965 l 0.574,0.793 c 0.52,0.726 1.094,1.41 1.723,2.047 3.168,3.168 7.34,4.781 11.937,5.187 0.313,0.102 0.641,0.152 0.969,0.149 h 48.196 c 0.261,0.046 0.531,0.054 0.796,0.031 0.071,-0.008 0.141,-0.016 0.211,-0.028 h 2.496 v -2.507 c 0.055,-0.332 0.055,-0.668 0,-1 V 19.242 C 70.945,18.914 70.895,18.586 70.793,18.273 70.387,13.676 68.77,9.504 65.602,6.336 H 65.598 V 6.328 C 64.965,5.707 64.285,5.137 63.562,4.621 l -0.8,-0.582 h -25 C 37.613,4.02 37.465,4.016 37.316,4.02 m 11.149,6.101 h 12.219 c 0.207,0.172 0.437,0.34 0.625,0.52 2.222,2.23 3.425,5.421 3.539,9.308 z m -11.106,0.426 5.5,3.297 L 40.727,26.91 26.91,40.727 13.844,42.855 10.547,37.359 15.664,27.125 27.125,15.66 Z m 11.114,6.664 10.308,6.187 -11.558,1.446 z M 63.441,28.945 C 61.664,34.66 58.195,40.883 53.195,46.684 l -5.511,-15.77 z m -21.14,4.993 4.492,12.851 -12.855,-4.488 z m 22.558,6.781 v 19.84 l -8.406,-8.407 c 3.359,-3.66 6.172,-7.519 8.406,-11.433 M 24.844,47.223 23.402,58.781 17.211,48.469 Z m 6.07,0.457 15.762,5.511 c -5.797,5 -12.016,8.473 -17.727,10.247 z m -20.793,0.785 9.828,16.383 c -3.89,-0.114 -7.082,-1.321 -9.312,-3.547 -0.18,-0.18 -0.344,-0.414 -0.516,-0.617 z m 42.035,7.988 8.403,8.406 h -19.84 c 3.918,-2.234 7.773,-5.05 11.437,-8.406" style="fill:currentColor;fill-opacity:1;fill-rule:evenodd;stroke:none" transform="scale(1.3333333)" /> </g>
</svg>

