<?xml version="1.0" encoding="UTF-8" standalone="no"?> <svg version="1.1" id="Ifa38557930c24352bcf3e51dec59177520251106125937" width="100" height="100" viewBox="0 0 100 100" xmlns="http://www.w3.org/2000/svg" xmlns:svg="http://www.w3.org/2000/svg"> <defs id="I5607f1e6a3bd4ed38498a4013a39221620251106125937" /> <g id="I8279d4920a344f809a60d20cbcd4732520251106125937"> <path id="I3ffec2b4a737447984f3e08851e8cc3020251106125937" d="m 15.637,12.5 c 0,-1.727 1.398,-3.125 3.125,-3.125 1.726,0 3.125,1.398 3.125,3.125 v 1.598 c 2.703,-1.805 5.734,-3.157 8.992,-3.942 1.836,-0.441 3.488,1.043 3.488,2.938 0,1.578 -1.168,2.894 -2.691,3.312 -1.942,0.535 -3.774,1.328 -5.457,2.344 h 1.918 c 1.726,0 3.125,1.398 3.125,3.125 0,1.727 -1.399,3.125 -3.125,3.125 h -9.375 c -1.727,0 -3.125,-1.398 -3.125,-3.125 z m 28.472,-2.344 c -1.839,-0.441 -3.492,1.043 -3.492,2.938 0,1.578 1.172,2.894 2.695,3.312 1.758,0.485 3.43,1.184 4.981,2.067 1.371,0.781 3.129,0.675 4.246,-0.442 1.336,-1.336 1.219,-3.554 -0.394,-4.543 -2.457,-1.504 -5.161,-2.636 -8.036,-3.332 z M 13.086,40.621 c 1.578,0 2.894,1.172 3.312,2.695 0.485,1.758 1.184,3.43 2.067,4.981 0.781,1.375 0.68,3.133 -0.438,4.246 -1.339,1.34 -3.558,1.223 -4.547,-0.391 -1.5,-2.457 -2.636,-5.164 -3.332,-8.043 -0.441,-1.839 1.043,-3.488 2.938,-3.488 z m 18.59,17.973 c 1.523,0.418 2.691,1.734 2.691,3.312 0,1.895 -1.648,3.379 -3.488,2.938 C 28,64.148 25.293,63.012 22.84,61.508 c -1.617,-0.985 -1.735,-3.203 -0.395,-4.543 1.117,-1.117 2.875,-1.219 4.246,-0.438 1.551,0.883 3.223,1.582 4.985,2.067 z m 16.621,-2.071 c 1.371,-0.781 3.129,-0.675 4.246,0.442 1.34,1.336 1.223,3.555 -0.395,4.543 -2.453,1.504 -5.16,2.64 -8.039,3.336 -1.839,0.441 -3.492,-1.043 -3.492,-2.938 0,-1.578 1.172,-2.894 2.695,-3.312 1.762,-0.485 3.43,-1.184 4.985,-2.071 z M 58.586,43.316 c 0.422,-1.523 1.734,-2.695 3.316,-2.695 1.891,0 3.379,1.649 2.934,3.488 -0.691,2.879 -1.828,5.582 -3.328,8.039 -0.988,1.614 -3.207,1.735 -4.547,0.395 -1.117,-1.117 -1.219,-2.875 -0.438,-4.246 0.883,-1.551 1.579,-3.223 2.063,-4.981 z M 56.52,26.699 c -0.782,-1.375 -0.68,-3.133 0.437,-4.246 1.34,-1.34 3.559,-1.223 4.547,0.391 1.5,2.457 2.637,5.16 3.332,8.035 0.441,1.84 -1.043,3.492 -2.938,3.492 -1.578,0 -2.894,-1.172 -3.312,-2.695 -0.484,-1.758 -1.184,-3.426 -2.066,-4.977 z" style="fill:currentColor;fill-opacity:1;fill-rule:nonzero;stroke:none" transform="scale(1.3333333)" /> </g>
</svg>

