<?xml version="1.0" encoding="UTF-8" standalone="no"?> <svg version="1.1" id="Ied1e6d8633b74704ba5b93977788b94120251110133656" width="100" height="100" viewBox="0 0 100 100" xmlns="http://www.w3.org/2000/svg" xmlns:svg="http://www.w3.org/2000/svg"> <defs id="I232a09f806a944309761c588f5765e0420251110133656" /> <g id="I7cc9cebc36ca47e9a43667ced8ef436a20251110133656"> <path id="Iea3e83aab0d649d0a7a544957008c62120251110133656" d="m 30.805,5.355 c 14.05,0 25.445,11.395 25.445,25.45 0,6.3 -2.297,12.066 -6.094,16.511 l 16.219,16.219 c 0.785,0.785 0.785,2.055 0,2.84 -0.785,0.785 -2.055,0.785 -2.84,0 L 47.316,50.156 C 42.871,53.953 37.105,56.25 30.805,56.25 16.75,56.25 5.355,44.855 5.355,30.805 5.355,16.75 16.75,5.355 30.805,5.355 Z m 0,4.02 c -11.836,0 -21.43,9.594 -21.43,21.43 0,11.832 9.594,21.425 21.43,21.425 11.832,0 21.425,-9.593 21.425,-21.425 0,-11.836 -9.593,-21.43 -21.425,-21.43 z m 10.043,19.418 c 1.109,0 2.007,0.902 2.007,2.012 0,1.109 -0.898,2.007 -2.007,2.007 h -20.09 c -1.11,0 -2.008,-0.898 -2.008,-2.007 0,-1.11 0.898,-2.012 2.008,-2.012 z" style="fill:currentColor;fill-opacity:1;fill-rule:nonzero;stroke:none" transform="scale(1.3333333)" /> </g>
</svg>

