<?xml version="1.0" encoding="UTF-8" standalone="no"?> <svg version="1.1" id="Ia646095f2b8d4299bf71170336dc4dc920251110130509" width="100" height="100" viewBox="0 0 100 100" xmlns="http://www.w3.org/2000/svg" xmlns:svg="http://www.w3.org/2000/svg"> <defs id="I55704c11971f45b58d6e0b50ec50924f20251110130509" /> <g id="I8330f3fb084b4c35ac622e141bf74ae320251110130509"> <path id="If1c054f6f09346e6a6db563f5e77997d20251110130509" d="m 61.719,6.25 c 3.883,0 7.031,3.148 7.031,7.031 v 17.071 c 0,2.691 -1.07,5.273 -2.973,7.179 l -0.082,0.082 c -3.172,-2.051 -6.953,-3.238 -11.007,-3.238 -11.219,0 -20.313,9.094 -20.313,20.313 0,3.968 1.137,7.671 3.105,10.8 -3.925,2.504 -9.199,2.043 -12.632,-1.383 L 10.902,50.184 C 6.934,46.223 6.93,39.793 10.891,35.824 L 37.453,9.23 c 1.906,-1.91 4.488,-2.98 7.188,-2.98 z m -8.594,10.945 c -2.59,0 -4.687,2.098 -4.687,4.688 0,2.586 2.097,4.687 4.687,4.687 2.59,0 4.687,-2.101 4.687,-4.687 0,-2.59 -2.097,-4.688 -4.687,-4.688 z m 18.75,37.493 c 0,9.492 -7.695,17.187 -17.187,17.187 C 45.195,71.875 37.5,64.18 37.5,54.688 37.5,45.195 45.195,37.5 54.688,37.5 c 9.492,0 17.187,7.695 17.187,17.188 z M 54.688,43.75 c -0.864,0 -1.563,0.699 -1.563,1.562 v 12.5 c 0,0.864 0.699,1.563 1.563,1.563 0.863,0 1.562,-0.699 1.562,-1.563 v -12.5 c 0,-0.863 -0.699,-1.562 -1.562,-1.562 z m 0,22.266 c 1.078,0 1.953,-0.875 1.953,-1.954 0,-1.078 -0.875,-1.953 -1.953,-1.953 -1.079,0 -1.954,0.875 -1.954,1.953 0,1.079 0.875,1.954 1.954,1.954 z" style="fill:currentColor;fill-opacity:1;fill-rule:nonzero;stroke:none" transform="scale(1.3333333)" /> </g>
</svg>

