<?xml version="1.0" encoding="UTF-8" standalone="no"?> <svg version="1.1" id="I17e8e9dadda24e03820d36fbdf8c41d720251106152728" width="100" height="100" viewBox="0 0 100 100" xmlns="http://www.w3.org/2000/svg" xmlns:svg="http://www.w3.org/2000/svg"> <defs id="If9e466fb9f774d02b3960feefd1d328520251106152728" /> <g id="Ieffecd00e79946d1933f3600ac9c9d1d20251106152728"> <path id="I9a0c1ebc523e4ebdb5bd28c58203454e20251106152728" d="m 54.688,3.125 c 9.492,0 17.187,7.695 17.187,17.187 C 71.875,29.805 64.18,37.5 54.688,37.5 45.195,37.5 37.5,29.805 37.5,20.312 37.5,10.82 45.195,3.125 54.688,3.125 Z M 45.312,18.75 c -0.863,0 -1.562,0.699 -1.562,1.562 0,0.864 0.699,1.563 1.562,1.563 h 14.977 l -5.144,5.145 c -0.61,0.609 -0.61,1.601 0,2.21 0.609,0.61 1.601,0.61 2.21,0 l 7.813,-7.812 c 0.609,-0.609 0.609,-1.602 0,-2.211 l -7.813,-7.812 c -0.609,-0.61 -1.601,-0.61 -2.21,0 -0.61,0.609 -0.61,1.601 0,2.21 l 5.144,5.145 z m 18.75,27.344 v -7.758 c 1.723,-0.898 3.301,-2.035 4.688,-3.367 v 11.125 c 0,5.609 -4.547,10.156 -10.156,10.156 H 40.664 L 24.996,67.973 C 23.27,69.262 20.82,68.91 19.527,67.184 19.023,66.508 18.75,65.688 18.75,64.844 L 18.746,56.25 h -2.34 C 10.797,56.25 6.25,51.703 6.25,46.094 V 19.531 c 0,-5.609 4.547,-10.156 10.156,-10.156 h 21.16 c -0.925,1.449 -1.671,3.02 -2.211,4.687 H 16.406 c -3.019,0 -5.468,2.45 -5.468,5.469 v 26.563 c 0,3.019 2.449,5.468 5.468,5.468 h 7.028 l 0.004,11.719 15.667,-11.719 h 19.489 c 3.019,0 5.468,-2.449 5.468,-5.468 z" style="fill:currentColor;fill-opacity:1;fill-rule:nonzero;stroke:none" transform="scale(1.3333333)" /> </g>
</svg>

