<?xml version="1.0" encoding="UTF-8" standalone="no"?> <svg version="1.1" id="I1df5534f7a9a471a9c633ecc993fc1ab20251106105802" width="100" height="100" viewBox="0 0 100 100" xmlns="http://www.w3.org/2000/svg" xmlns:svg="http://www.w3.org/2000/svg"> <defs id="Iefcf601603ce4f72a8f3eda13069cb4c20251106105802" /> <g id="I663dbc0bcf8a41649a2ef47fc10a466b20251106105802"> <path id="Idf781e2c5e274ef381fbe06cf1dc468c20251106105802" d="m 33.48,37.5 c 0,5.355 8.04,5.355 8.04,0 0,-5.355 -8.04,-5.355 -8.04,0 z m 16.743,0 c 0,5.355 8.035,5.355 8.035,0 0,-5.355 -8.035,-5.355 -8.035,0 z m -33.481,0 c 0,5.355 8.035,5.355 8.035,0 0,-5.355 -8.035,-5.355 -8.035,0 z M 72.086,22.969 C 70.195,18.473 67.484,14.438 64.027,10.973 60.594,7.527 56.52,4.789 52.031,2.914 47.426,0.98 42.539,0 37.5,0 H 37.332 C 32.262,0.023 27.348,1.031 22.727,3.004 18.277,4.902 14.242,7.645 10.84,11.082 7.418,14.539 4.73,18.559 2.871,23.035 0.945,27.672 -0.023,32.602 0,37.676 0.027,43.488 1.402,49.215 4.02,54.41 v 12.723 c 0,2.125 1.722,3.847 3.847,3.847 h 12.735 c 5.191,2.618 10.918,3.993 16.73,4.02 h 0.176 c 5.015,0 9.879,-0.973 14.457,-2.871 4.465,-1.856 8.523,-4.563 11.953,-7.969 3.457,-3.422 6.176,-7.426 8.078,-11.887 C 73.969,47.652 74.977,42.738 75,37.668 75.023,32.57 74.039,27.621 72.086,22.969 Z M 59.438,59.633 C 53.57,65.441 45.785,68.637 37.5,68.637 H 37.359 C 32.309,68.613 27.297,67.359 22.867,64.996 L 22.164,64.621 H 10.379 V 52.836 L 10.004,52.133 C 7.641,47.703 6.387,42.691 6.363,37.641 6.328,29.297 9.516,21.461 15.367,15.562 21.211,9.66 29.02,6.395 37.367,6.363 h 0.141 c 4.187,0 8.246,0.809 12.07,2.418 3.734,1.567 7.082,3.817 9.961,6.696 2.871,2.871 5.133,6.226 6.695,9.961 1.625,3.867 2.438,7.968 2.422,12.203 -0.051,8.339 -3.324,16.148 -9.218,21.992 z" style="fill:currentColor;fill-opacity:1;fill-rule:nonzero;stroke:none" transform="scale(1.3333333)" /> </g>
</svg>

