<?xml version="1.0" encoding="UTF-8" standalone="no"?> <svg version="1.1" id="I593c3a0561834534a897213115b6321920251106155157" width="100" height="100" viewBox="0 0 100 100" xmlns="http://www.w3.org/2000/svg" xmlns:svg="http://www.w3.org/2000/svg"> <defs id="I0418260ed67c4698885084b2c3af282a20251106155157" /> <g id="Ie29cfa60f7f04d09a1d6a2d5a5861b9120251106155157"> <path id="Iaf2c0ea6ef594075b97f1f8321b5ae6320251106155157" d="M 37.5,6.25 V 25 c 0,3.453 2.797,6.25 6.25,6.25 H 62.5 V 62.5 c 0,3.453 -2.797,6.25 -6.25,6.25 H 40.625 C 42.586,66.137 43.75,62.891 43.75,59.375 43.75,50.746 36.754,43.75 28.125,43.75 H 12.5 V 12.5 c 0,-3.453 2.797,-6.25 6.25,-6.25 z m 4.688,1.562 V 25 c 0,0.863 0.699,1.562 1.562,1.562 H 60.938 Z M 17.969,49.219 c 0,-1.293 -1.051,-2.344 -2.344,-2.344 L 15,46.891 C 8.387,47.215 3.125,52.68 3.125,59.375 c 0,6.902 5.598,12.5 12.5,12.5 l 0.316,-0.02 c 1.145,-0.156 2.028,-1.136 2.028,-2.324 0,-1.293 -1.051,-2.343 -2.344,-2.343 l -0.516,-0.016 c -4.074,-0.266 -7.297,-3.656 -7.297,-7.797 0,-4.316 3.497,-7.813 7.813,-7.813 l 0.316,-0.019 c 1.145,-0.156 2.028,-1.137 2.028,-2.324 z m 22.656,10.156 c 0,-6.902 -5.598,-12.5 -12.5,-12.5 l -0.316,0.02 c -1.145,0.156 -2.028,1.136 -2.028,2.324 0,1.293 1.051,2.343 2.344,2.343 l 0.516,0.016 c 4.074,0.266 7.297,3.656 7.297,7.797 0,4.316 -3.497,7.813 -7.813,7.813 l -0.316,0.019 c -1.145,0.156 -2.028,1.137 -2.028,2.324 0,1.293 1.051,2.344 2.344,2.344 L 28.75,71.859 C 35.363,71.535 40.625,66.07 40.625,59.375 Z M 27.344,57.031 H 16.406 l -0.316,0.02 c -1.145,0.156 -2.028,1.137 -2.028,2.324 0,1.293 1.051,2.344 2.344,2.344 h 10.938 l 0.316,-0.02 c 1.145,-0.156 2.028,-1.137 2.028,-2.324 0,-1.293 -1.051,-2.344 -2.344,-2.344 z" style="fill:currentColor;fill-opacity:1;fill-rule:nonzero;stroke:none" transform="scale(1.3333333)" /> </g>
</svg>

