<?xml version="1.0" encoding="UTF-8" standalone="no"?> <svg version="1.1" id="I1ddb58bd55c04fbd9f2590f0e06ec65a20251110124420" width="100" height="100" viewBox="0 0 100 100" xmlns="http://www.w3.org/2000/svg" xmlns:svg="http://www.w3.org/2000/svg"> <defs id="Iffc9fb50d63b48a39700896f462d503220251110124420" /> <g id="I6c0318e8bce0473087b89709de2da0fa20251110124420"> <path id="Ic60b58feca434b6e98cafd38b590a3d020251110124420" d="m 63.281,6.246 c 3.02,0 5.469,2.449 5.469,5.469 v 9.508 c 0,3.203 -1.777,6.136 -4.617,7.617 L 44.504,39.094 c 5.113,2.566 8.621,7.859 8.621,13.968 0,8.629 -6.996,15.626 -15.625,15.626 -8.629,0 -15.625,-6.997 -15.625,-15.626 0,-6.109 3.508,-11.402 8.621,-13.968 L 10.867,28.84 C 8.027,27.359 6.25,24.426 6.25,21.223 v -9.508 c 0,-3.02 2.449,-5.469 5.469,-5.469 z M 37.5,42.125 c -6.039,0 -10.938,4.898 -10.938,10.937 C 26.562,59.105 31.461,64 37.5,64 43.539,64 48.438,59.105 48.438,53.062 48.438,47.023 43.539,42.125 37.5,42.125 Z M 48.438,10.93 H 26.562 v 20.82 l 10.575,5.523 c 0.226,0.122 0.5,0.122 0.726,0 l 10.575,-5.527 z m -26.563,0 -10.156,0.004 c -0.43,0 -0.781,0.351 -0.781,0.781 v 9.508 c 0,1.457 0.808,2.789 2.097,3.465 l 8.84,4.613 z M 63.281,10.934 53.125,10.93 v 18.371 l 8.84,-4.613 c 1.289,-0.676 2.097,-2.008 2.097,-3.465 v -9.508 c 0,-0.43 -0.351,-0.781 -0.781,-0.781 z" style="fill:currentColor;fill-opacity:1;fill-rule:nonzero;stroke:none" transform="scale(1.3333333)" /> </g>
</svg>

