<?xml version="1.0" encoding="UTF-8" standalone="no"?> <svg version="1.1" id="I41c3ab8b90434eacaf4a0b859bf9b26f20251106155156" width="100" height="100" viewBox="0 0 100 100" xmlns="http://www.w3.org/2000/svg" xmlns:svg="http://www.w3.org/2000/svg"> <defs id="If3c9e42a08a949c9a17f55363ee79fa320251106155156" /> <g id="I7b70e2f0c03641cfad8d5edf1fc2e00d20251106155156"> <path id="I805f51dcb1134ae2bdeb53a94bf2bd9220251106155156" d="m 55.457,6.238 c 3.719,0 6.766,2.891 7.016,6.551 l 0.015,0.481 v 48.429 c 0,3.723 -2.89,6.77 -6.55,7.016 L 55.457,68.73 H 19.52 c -3.723,0 -6.77,-2.89 -7.016,-6.546 L 12.488,61.699 V 13.27 c 0,-3.723 2.891,-6.77 6.551,-7.016 L 19.52,6.238 Z M 26.566,50 c -2.589,0 -4.687,2.102 -4.687,4.688 0,2.589 2.098,4.687 4.687,4.687 h 21.875 c 2.59,0 4.688,-2.098 4.688,-4.687 C 53.129,52.102 51.031,50 48.441,50 Z" style="fill:currentColor;fill-opacity:1;fill-rule:nonzero;stroke:none" transform="scale(1.3333333)" /> </g>
</svg>

