<?xml version="1.0" encoding="UTF-8" standalone="no"?> <svg version="1.1" id="I69d5522884c445019d2cd7044117ed1620251110133655" width="100" height="100" viewBox="0 0 100 100" xmlns="http://www.w3.org/2000/svg" xmlns:svg="http://www.w3.org/2000/svg"> <defs id="I36f0251faa774b92bfa563825c78178120251110133655" /> <g id="I277be68690984fcd82bd67d745185aa420251110133655"> <path id="I525044f8a0e744dcb0eb0f3b02eda6dc20251110133655" d="m 20.617,11.254 c -5.176,0 -9.375,4.195 -9.375,9.375 v 33.75 c 0,5.176 4.199,9.375 9.375,9.375 h 33.75 c 5.18,0 9.375,-4.199 9.375,-9.375 V 30 h 0.012 v -5.625 h -0.012 v -3.746 c 0,-5.18 -4.195,-9.375 -9.375,-9.375 z M 58.125,22.5 v 1.875 h -4.84 l 4.297,-4.297 c 0.348,0.734 0.543,1.555 0.543,2.422 z M 54.934,17.426 47.98,24.375 H 37.375 l 7.5,-7.5 H 52.5 c 0.871,0 1.695,0.199 2.434,0.551 z m -15.36,-0.551 -7.5,7.5 H 21.465 l 7.5,-7.5 z m -15.91,0 -6.789,6.785 V 22.5 c 0,-3.105 2.52,-5.625 5.625,-5.625 z M 26.449,30 16.875,39.57 V 30 Z M 16.875,44.875 31.75,30 H 42.355 L 17.426,54.93 C 17.074,54.195 16.875,53.371 16.875,52.5 Z M 47.66,30 h 10.465 v 0.141 L 30.141,58.125 H 22.5 c -0.863,0 -1.684,-0.195 -2.418,-0.547 z m 10.465,5.445 V 46.051 L 46.051,58.125 H 35.445 Z m 0,15.91 V 52.5 c 0,3.105 -2.516,5.625 -5.625,5.625 h -1.145 z" style="fill:currentColor;fill-opacity:1;fill-rule:nonzero;stroke:none" transform="scale(1.3333333)" /> </g>
</svg>

