<?xml version="1.0" encoding="UTF-8" standalone="no"?> <svg version="1.1" id="I567f1279a2c34184aa3110160719570920251106151526" width="100" height="100" viewBox="0 0 100 100" xmlns="http://www.w3.org/2000/svg" xmlns:svg="http://www.w3.org/2000/svg"> <defs id="I99b13ea0f37344bd8d67437bfaae104d20251106151526" /> <g id="Ib93682b28eb24beab8a1acb21cf430a320251106151526"> <path id="I34ce55a14992410c822bad2c0da08ed220251106151526" d="m 37.5,8.035 c -9.461,0 -17.285,7.008 -18.566,16.117 -7.598,0.59 -13.579,6.938 -13.579,14.688 0,8.137 6.598,14.73 14.735,14.73 h 12.098 c -0.032,-0.441 -0.043,-0.886 -0.043,-1.34 0,-11.093 8.992,-20.085 20.085,-20.085 7.247,0 13.594,3.832 17.129,9.582 0.188,-0.934 0.286,-1.899 0.286,-2.887 0,-7.75 -5.981,-14.098 -13.579,-14.688 C 54.785,15.043 46.961,8.035 37.5,8.035 Z M 69.645,52.23 c 0,9.618 -7.797,17.415 -17.415,17.415 -9.613,0 -17.41,-7.797 -17.41,-17.415 0,-9.613 7.797,-17.41 17.41,-17.41 9.618,0 17.415,7.797 17.415,17.41 z M 52.23,42.855 c -0.738,0 -1.335,0.602 -1.335,1.34 V 54.91 c 0,0.738 0.597,1.34 1.335,1.34 0.743,0 1.34,-0.602 1.34,-1.34 V 44.195 c 0,-0.738 -0.597,-1.34 -1.34,-1.34 z m 0,19.086 c 0.926,0 1.676,-0.75 1.676,-1.671 0,-0.926 -0.75,-1.676 -1.676,-1.676 -0.921,0 -1.671,0.75 -1.671,1.676 0,0.921 0.75,1.671 1.671,1.671 z" style="fill:currentColor;fill-opacity:1;fill-rule:nonzero;stroke:none" transform="scale(1.3333333)" /> </g>
</svg>

