<?xml version="1.0" encoding="UTF-8" standalone="no"?> <svg version="1.1" id="Ib9a2d47a546945d49962aa21c6615ca820251106170411" width="100" height="100" viewBox="0 0 100 100" xmlns="http://www.w3.org/2000/svg" xmlns:svg="http://www.w3.org/2000/svg"> <defs id="I4c03c2acd28e4320b6826d33b50e8c0f20251106170411" /> <g id="If4d93c8eb0684de3a95bcdb2d72f356b20251106170411"> <path id="I4844936e9f1e4268942e0830f345393820251106170411" d="m 19.531,9.375 c -5.609,0 -10.156,4.547 -10.156,10.156 v 35.938 c 0,5.609 4.547,10.156 10.156,10.156 h 35.938 c 5.609,0 10.156,-4.547 10.156,-10.156 V 19.531 C 65.625,13.922 61.078,9.375 55.469,9.375 Z M 14.062,39.844 H 35.156 V 60.938 H 19.531 c -3.019,0 -5.469,-2.45 -5.469,-5.469 z m 46.876,0 v 15.625 c 0,3.019 -2.45,5.469 -5.469,5.469 H 39.844 V 39.844 Z M 39.844,35.156 V 14.062 h 15.625 c 3.019,0 5.469,2.45 5.469,5.469 v 15.625 z" style="fill:currentColor;fill-opacity:1;fill-rule:nonzero;stroke:none" transform="scale(1.3333333)" /> </g>
</svg>

