<?xml version="1.0" encoding="UTF-8" standalone="no"?> <svg version="1.1" id="I606783f6afdb4b35bf758ad1ea5bd85520251106155156" width="100" height="100" viewBox="0 0 100 100" xmlns="http://www.w3.org/2000/svg" xmlns:svg="http://www.w3.org/2000/svg"> <defs id="I7ef70169754b4f7d9151a3ceaff232f520251106155156" /> <g id="Ib4f7a5a8451846779b62e4665d33fcfc20251106155156"> <path id="I2798f86c08ff41dbbc968a13ccf405dd20251106155156" d="M 44.531,23.438 H 59.766 L 42.188,5.859 v 15.235 c 0,1.293 1.05,2.344 2.343,2.344 z m 0,4.687 c -3.883,0 -7.031,-3.148 -7.031,-7.031 V 4.688 H 21.094 c -3.883,0 -7.032,3.148 -7.032,7.031 v 51.562 c 0,3.883 3.149,7.031 7.032,7.031 h 32.812 c 3.883,0 7.032,-3.148 7.032,-7.031 V 28.125 Z m -7.734,24.141 c 0.234,0.187 0.422,0.468 0.515,0.75 0.141,0.281 0.188,0.562 0.188,0.89 0,0.328 -0.047,0.61 -0.188,0.891 -0.093,0.281 -0.281,0.562 -0.515,0.75 -0.188,0.234 -0.469,0.422 -0.75,0.515 -0.281,0.141 -0.563,0.188 -0.891,0.188 -0.328,0 -0.609,-0.047 -0.89,-0.188 -0.282,-0.093 -0.563,-0.281 -0.75,-0.515 l -3.047,-3 -3.047,3 c -0.188,0.234 -0.469,0.422 -0.75,0.515 -0.281,0.141 -0.563,0.188 -0.891,0.188 -0.328,0 -0.609,-0.047 -0.89,-0.188 -0.282,-0.093 -0.563,-0.281 -0.75,-0.515 -0.235,-0.188 -0.422,-0.469 -0.516,-0.75 -0.141,-0.281 -0.187,-0.563 -0.187,-0.891 0,-0.328 0.046,-0.609 0.187,-0.89 0.094,-0.282 0.281,-0.563 0.516,-0.75 l 3,-3.047 -3,-3.047 c -0.469,-0.422 -0.703,-1.031 -0.703,-1.641 0,-0.609 0.234,-1.219 0.703,-1.64 0.421,-0.469 1.031,-0.703 1.64,-0.703 0.61,0 1.219,0.234 1.641,0.703 l 3.047,3 3.047,-3 c 0.422,-0.469 1.031,-0.703 1.64,-0.703 0.61,0 1.219,0.234 1.641,0.703 0.469,0.421 0.703,1.031 0.703,1.64 0,0.61 -0.234,1.219 -0.703,1.641 l -3,3.047 z M 56.25,56.25 H 44.531 c -0.609,0 -1.219,-0.234 -1.64,-0.703 -0.469,-0.422 -0.703,-1.031 -0.703,-1.641 0,-0.609 0.234,-1.218 0.703,-1.64 0.421,-0.469 1.031,-0.704 1.64,-0.704 H 56.25 Z" style="fill:currentColor;fill-opacity:1;fill-rule:nonzero;stroke:none" transform="scale(1.3333333)" /> </g>
</svg>

