<?xml version="1.0" encoding="UTF-8" standalone="no"?> <svg version="1.1" id="Idb2bf9266d0249938fa93ab6fe5eecc420251110135155" width="100" height="100" viewBox="0 0 100 100" xmlns="http://www.w3.org/2000/svg" xmlns:svg="http://www.w3.org/2000/svg"> <defs id="I690a48fbaa414b4fb656bea74b5204ad20251110135155" /> <g id="Ia86f9081341248ce929448f53e89ffe120251110135155"> <path id="I45b7401815a94c3f84f151f15e491b7b20251110135155" d="m 62.695,26.391 c 3.926,3.929 3.922,10.297 -0.004,14.222 L 40.43,62.836 c -0.821,0.82 -1.832,1.426 -2.946,1.758 L 24.07,68.621 C 22.414,69.117 20.672,68.18 20.176,66.527 19.996,65.922 20,65.273 20.195,64.672 l 4.254,-13.215 c 0.344,-1.062 0.934,-2.031 1.727,-2.82 L 48.465,26.383 c 3.933,-3.926 10.301,-3.922 14.23,0.008 z M 51.777,29.699 29.488,51.953 c -0.265,0.266 -0.461,0.586 -0.578,0.942 l -3.34,10.382 10.567,-3.172 c 0.371,-0.113 0.707,-0.312 0.98,-0.585 L 59.375,37.301 c 2.098,-2.098 2.102,-5.5 0.004,-7.594 -2.098,-2.102 -5.5,-2.105 -7.602,-0.008 z M 25.473,7.406 25.629,7.734 35.793,33.512 32.176,37.121 29.863,31.25 H 17.008 l -3.11,7.879 C 13.461,40.23 12.281,40.82 11.16,40.543 L 10.855,40.445 C 9.754,40.008 9.164,38.828 9.441,37.707 L 9.539,37.406 21.27,7.73 c 0.734,-1.859 3.257,-1.968 4.203,-0.324 z m -2.028,7.571 -4.582,11.585 h 9.149 z" style="fill:currentColor;fill-opacity:1;fill-rule:nonzero;stroke:none" transform="scale(1.3333333)" /> </g>
</svg>

