<?xml version="1.0" encoding="UTF-8" standalone="no"?> <svg version="1.1" id="I429f23bedcb74c509077eb6a357ec32420251106151527" width="100" height="100" viewBox="0 0 100 100" xmlns="http://www.w3.org/2000/svg" xmlns:svg="http://www.w3.org/2000/svg"> <defs id="I2a1699cb20c845e7aa016e36c3aa6e7720251106151527" /> <g id="I5db1572908104fb886d0d65799807bd520251106151527"> <path id="Id2185afbb6b64f60a087779ae57b2dea20251106151527" d="m 42.188,42.188 h 4.687 V 37.5 H 42.188 Z M 57.422,14.062 H 12.891 c -4.528,0 -8.203,3.676 -8.203,8.204 v 35.156 c 0,4.527 3.675,8.203 8.203,8.203 h 44.531 c 4.527,0 8.203,-3.676 8.203,-8.203 V 22.266 c 0,-4.528 -3.676,-8.204 -8.203,-8.204 z M 19.434,46.191 c 0.441,0.442 1.035,0.684 1.66,0.684 0.625,0 1.218,-0.25 1.66,-0.684 0.441,-0.437 0.684,-1.035 0.684,-1.66 0,-0.625 0.25,-1.219 0.683,-1.66 0.441,-0.441 1.035,-0.683 1.66,-0.683 0.625,0 1.219,0.25 1.66,0.683 0.442,0.441 0.684,1.035 0.684,1.66 0,1.867 -0.742,3.653 -2.059,4.973 -1.316,1.316 -3.105,2.058 -4.972,2.058 -1.867,0 -3.653,-0.742 -4.973,-2.058 -1.316,-1.316 -2.059,-3.106 -2.059,-4.973 v -9.375 c 0,-1.867 0.743,-3.652 2.059,-4.972 1.317,-1.325 3.106,-2.059 4.973,-2.059 1.867,0 3.652,0.742 4.972,2.059 1.325,1.316 2.059,3.105 2.059,4.972 0,0.625 -0.25,1.219 -0.684,1.66 -0.437,0.442 -1.035,0.684 -1.66,0.684 -0.625,0 -1.219,-0.25 -1.66,-0.684 -0.441,-0.437 -0.683,-1.035 -0.683,-1.66 0,-0.625 -0.25,-1.218 -0.684,-1.66 -0.442,-0.441 -1.035,-0.684 -1.66,-0.684 -0.625,0 -1.219,0.25 -1.66,0.684 -0.442,0.442 -0.684,1.035 -0.684,1.66 v 9.375 c 0,0.625 0.25,1.219 0.684,1.66 z m 34.472,-4.003 c 0.625,0 1.219,0.25 1.66,0.683 0.442,0.438 0.684,1.035 0.684,1.66 0,0.625 -0.25,1.219 -0.684,1.66 -0.441,0.442 -1.035,0.684 -1.66,0.684 h -2.344 v 2.344 c 0,0.625 -0.25,1.219 -0.683,1.66 -0.438,0.441 -1.035,0.683 -1.66,0.683 -0.625,0 -1.219,-0.25 -1.66,-0.683 -0.442,-0.438 -0.684,-1.035 -0.684,-1.66 v -2.344 h -4.687 v 2.344 c 0,0.625 -0.25,1.219 -0.684,1.66 -0.438,0.441 -1.035,0.683 -1.66,0.683 -0.625,0 -1.219,-0.25 -1.66,-0.683 C 37.742,50.441 37.5,49.844 37.5,49.219 v -2.344 h -2.344 c -0.625,0 -1.218,-0.25 -1.66,-0.684 -0.441,-0.437 -0.684,-1.035 -0.684,-1.66 0,-0.625 0.25,-1.219 0.684,-1.66 0.442,-0.441 1.035,-0.683 1.66,-0.683 H 37.5 V 37.5 h -2.344 c -0.625,0 -1.218,-0.25 -1.66,-0.684 -0.441,-0.437 -0.684,-1.035 -0.684,-1.66 0,-0.625 0.25,-1.218 0.684,-1.66 0.442,-0.441 1.035,-0.684 1.66,-0.684 H 37.5 v -2.343 c 0,-0.625 0.25,-1.219 0.684,-1.66 0.441,-0.442 1.035,-0.684 1.66,-0.684 0.625,0 1.218,0.25 1.66,0.684 0.441,0.441 0.684,1.035 0.684,1.66 v 2.343 h 4.687 v -2.343 c 0,-0.625 0.25,-1.219 0.684,-1.66 0.441,-0.442 1.035,-0.684 1.66,-0.684 0.625,0 1.219,0.25 1.66,0.684 0.441,0.441 0.683,1.035 0.683,1.66 v 2.343 h 2.344 c 0.625,0 1.219,0.25 1.66,0.684 0.442,0.438 0.684,1.035 0.684,1.66 0,0.625 -0.25,1.219 -0.684,1.66 -0.441,0.442 -1.035,0.684 -1.66,0.684 h -2.344 v 4.688 z" style="fill:currentColor;fill-opacity:1;fill-rule:nonzero;stroke:none" transform="scale(1.3333333)" /> </g>
</svg>

