<?xml version="1.0" encoding="UTF-8" standalone="no"?> <svg version="1.1" id="I3cd1f0a955ed4cf1943bfb246f1d848320251106151526" width="100" height="100" viewBox="0 0 100 100" xmlns="http://www.w3.org/2000/svg" xmlns:svg="http://www.w3.org/2000/svg"> <defs id="I1bb8f5b80298455f9e1f2ecc34e22eee20251106151526" /> <g id="I605bf733d4ef413c9afa2be7849bb3ea20251106151526"> <path id="I72f909e0bbfa49a99fc35b4122ef6bc720251106151526" d="M 36.719,6.25 H 25.781 c -3.617,0 -6.597,2.734 -6.988,6.25 h -5.512 c -3.883,0 -7.031,3.148 -7.031,7.031 v 42.188 c 0,3.883 3.148,7.031 7.031,7.031 h 26.75 c -3.504,-3.648 -5.656,-8.605 -5.656,-14.062 0,-3.891 1.094,-7.524 2.988,-10.614 l -7.582,7.582 c -0.914,0.918 -2.398,0.918 -3.312,0 l -7.813,-7.812 c -0.918,-0.914 -0.918,-2.399 0,-3.313 0.914,-0.918 2.399,-0.918 3.313,0 l 6.156,6.153 15.531,-15.528 c 0.914,-0.918 2.399,-0.918 3.313,0 0.918,0.914 0.918,2.399 0,3.313 l -2.895,2.894 c 3.09,-1.894 6.723,-2.988 10.614,-2.988 0.527,0 1.046,0.02 1.562,0.059 V 19.531 C 56.25,15.648 53.102,12.5 49.219,12.5 H 43.707 C 43.316,8.984 40.336,6.25 36.719,6.25 Z m -10.938,4.688 h 10.938 c 1.293,0 2.343,1.05 2.343,2.343 0,1.293 -1.05,2.344 -2.343,2.344 H 25.781 c -1.293,0 -2.343,-1.051 -2.343,-2.344 0,-1.293 1.05,-2.343 2.343,-2.343 z m 46.094,43.75 C 71.875,45.195 64.18,37.5 54.688,37.5 45.195,37.5 37.5,45.195 37.5,54.688 c 0,9.492 7.695,17.187 17.188,17.187 9.492,0 17.187,-7.695 17.187,-17.187 z m -15.625,1.562 0.004,7.824 c 0,0.864 -0.699,1.563 -1.563,1.563 -0.863,0 -1.562,-0.699 -1.562,-1.563 L 53.125,56.25 h -7.828 c -0.859,0 -1.559,-0.699 -1.559,-1.562 0,-0.864 0.7,-1.563 1.559,-1.563 h 7.828 v -7.816 c 0,-0.864 0.699,-1.563 1.563,-1.563 0.863,0 1.562,0.699 1.562,1.563 v 7.816 h 7.801 c 0.863,0 1.562,0.699 1.562,1.563 0,0.863 -0.699,1.562 -1.562,1.562 z" style="fill:currentColor;fill-opacity:1;fill-rule:nonzero;stroke:none" transform="scale(1.3333333)" /> </g>
</svg>

