<?xml version="1.0" encoding="UTF-8" standalone="no"?> <svg version="1.1" id="I906f69d4a0a24fb58693c483a13e4f7120251110123030" width="100" height="100" viewBox="0 0 100 100" xmlns="http://www.w3.org/2000/svg" xmlns:svg="http://www.w3.org/2000/svg"> <defs id="I31d213b278134c7b95e6f7d6c81ca05f20251110123030" /> <g id="I5d1c0e72e981478f840358f5ea33ad1520251110123030"> <path id="Idcdbdde899a44940b7f8e14419ceaca620251110123030" d="m 56.398,28.125 c 1.454,0 2.582,1.297 2.196,2.699 -0.485,1.754 -1.18,3.422 -2.063,4.969 -0.719,1.266 -2.429,1.387 -3.461,0.355 -0.812,-0.816 -0.914,-2.089 -0.375,-3.109 0.504,-0.941 0.918,-1.941 1.239,-2.98 0.339,-1.102 1.308,-1.934 2.464,-1.934 z m 0,-6.25 c 1.454,0 2.582,-1.293 2.196,-2.695 -0.485,-1.758 -1.18,-3.422 -2.063,-4.973 -0.719,-1.262 -2.429,-1.383 -3.461,-0.355 -0.812,0.816 -0.914,2.089 -0.375,3.109 0.504,0.945 0.918,1.941 1.239,2.98 0.336,1.106 1.308,1.934 2.464,1.934 z M 40.625,6.105 c 0,-1.457 1.297,-2.582 2.699,-2.195 1.758,0.485 3.426,1.18 4.973,2.063 1.265,0.718 1.387,2.429 0.355,3.461 -0.816,0.816 -2.09,0.914 -3.109,0.375 C 44.598,9.305 43.602,8.891 42.559,8.57 41.457,8.23 40.625,7.258 40.625,6.105 Z m -6.25,0 c 0,1.153 -0.828,2.125 -1.934,2.465 -1.039,0.321 -2.035,0.735 -2.98,1.235 -1.02,0.543 -2.293,0.441 -3.106,-0.375 -1.031,-1.028 -0.91,-2.742 0.356,-3.461 1.547,-0.879 3.215,-1.574 4.969,-2.059 1.402,-0.387 2.695,0.738 2.695,2.195 z m -15.902,8.098 c 0.718,-1.265 2.429,-1.383 3.461,-0.355 0.816,0.816 0.914,2.09 0.375,3.109 -0.504,0.945 -0.918,1.945 -1.239,2.984 -0.34,1.106 -1.312,1.934 -2.465,1.934 -1.457,0 -2.582,-1.293 -2.195,-2.695 0.485,-1.758 1.18,-3.426 2.063,-4.977 z m 0.132,13.922 c -1.457,0 -2.582,1.297 -2.195,2.699 0.485,1.758 1.18,3.426 2.063,4.973 0.718,1.265 2.429,1.387 3.461,0.355 0.816,-0.816 0.914,-2.09 0.375,-3.109 -0.504,-0.945 -0.918,-1.941 -1.239,-2.984 -0.34,-1.102 -1.312,-1.934 -2.465,-1.934 z M 55.484,43.75 c 3.879,0 7.028,3.148 7.028,7.027 v 1.797 c 0,2.797 -1,5.5 -2.817,7.621 -4.906,5.731 -12.363,8.559 -22.195,8.559 -9.828,0 -17.285,-2.828 -22.18,-8.563 -1.812,-2.121 -2.808,-4.82 -2.808,-7.609 v -1.805 c 0,-3.879 3.148,-7.027 7.027,-7.027 z m 0,4.688 H 19.539 c -1.293,0 -2.34,1.046 -2.34,2.339 v 1.805 c 0,1.676 0.598,3.293 1.684,4.566 3.918,4.586 10.062,6.918 18.617,6.918 8.559,0 14.707,-2.332 18.633,-6.918 1.09,-1.273 1.691,-2.894 1.691,-4.574 v -1.797 c 0,-1.293 -1.051,-2.339 -2.34,-2.339 z M 29.688,25 c 0,-4.316 3.496,-7.812 7.812,-7.812 4.316,0 7.812,3.496 7.812,7.812 0,4.316 -3.496,7.812 -7.812,7.812 -4.316,0 -7.812,-3.496 -7.812,-7.812 z M 37.5,12.5 C 30.598,12.5 25,18.098 25,25 25,31.902 30.598,37.5 37.5,37.5 44.402,37.5 50,31.902 50,25 50,18.098 44.402,12.5 37.5,12.5 Z" style="fill:currentColor;fill-opacity:1;fill-rule:nonzero;stroke:none" transform="scale(1.3333333)" /> </g>
</svg>

