<?xml version="1.0" encoding="UTF-8" standalone="no"?> <svg version="1.1" id="I5a0d6e28188a4effa8898ba3db05cd9c20251106104833" width="100" height="100" viewBox="0 0 100 100" xmlns="http://www.w3.org/2000/svg" xmlns:svg="http://www.w3.org/2000/svg"> <defs id="I7910204404904613ad4bcaa2229e4eed20251106104833" /> <g id="I69ae3c6da0e84d478b044560e2759f9b20251106104833"> <path id="I97c6e9e1fe284641ac4720e4e3eb7b6020251106104833" d="M 37.5,0 C 16.793,0 0,16.793 0,37.5 0,58.207 16.793,75 37.5,75 58.207,75 75,58.207 75,37.5 75,16.793 58.207,0 37.5,0 Z M 21.07,19.043 c 2.285,0 4.141,1.852 4.141,4.137 0,2.285 -1.848,4.132 -4.141,4.132 -2.285,0 -4.136,-1.851 -4.136,-4.132 0,-2.285 1.851,-4.137 4.136,-4.137 z m 4.285,23.98 c -1.14,3.543 -0.855,2.235 -5.39,12.098 l -6.57,-4.101 c 0,0 7.339,-6.68 8.835,-9.727 1.61,-3.215 -1.765,-4.93 -1.765,-4.93 l -5.039,-3.14 2.738,-4.203 c 3.801,2.82 4.078,3.066 6.629,5.625 1.992,2 1.734,4.753 0.562,8.378 z m 35.758,4.606 c -1.281,12.035 -16.941,7.559 -16.941,7.559 l 0.851,-3.442 3.625,0.777 c 6.7,0.422 6.055,-5.429 6.055,-5.429 V 30.051 C 54.75,23.578 48.625,22.902 37.609,26.844 l 2.563,0.695 c -0.211,0.754 -1.047,1.941 -2.11,3.231 h 14.731 v 2.98 h -8.297 v 3.727 h 8.262 v 2.988 h -8.262 v 6.242 c 1.25,-0.402 2.395,-0.961 3.391,-1.715 l -0.727,-2.722 3.891,-1.204 3.25,7.942 -4.797,2.004 -0.856,-3.164 c -2.14,1.629 -6.593,4.015 -14.378,3.797 -8.305,0.218 -6.168,-9.375 -6.168,-9.375 l 0.207,-0.106 h 5.843 c -0.043,1.231 -0.554,3.238 0.141,4.336 0.57,0.902 2.027,1.055 2.957,1.094 0.109,0.008 0.215,0.008 0.324,0.008 v -7.137 h -8.453 v -2.988 h 8.453 V 33.75 h -2.168 c -1.898,2.016 -3.64,3.691 -3.64,3.691 l -2.563,-2.234 c 1.817,-1.918 3.625,-4.949 4.758,-6.965 -0.914,0.367 -1.844,0.77 -2.813,1.188 -0.937,1.199 -2.027,2.429 -3.242,3.64 0.043,0.071 -4.183,-2.375 -4.183,-2.375 4.367,-3.718 6.812,-11.711 6.812,-11.711 l 6.07,1.707 c 0,0 -0.496,1.172 -1.543,2.981 24.301,-6.891 25.735,4.226 25.735,4.226 0,0 1.598,7.684 0.316,19.731 z" style="fill:currentColor;fill-opacity:1;fill-rule:nonzero;stroke:none" transform="scale(1.3333333)" /> </g>
</svg>

