<?xml version="1.0" encoding="UTF-8" standalone="no"?> <svg version="1.1" id="I76f490cd210644099f1e784d79581f7d20251106170956" width="100" height="100" viewBox="0 0 100 100" xmlns="http://www.w3.org/2000/svg" xmlns:svg="http://www.w3.org/2000/svg"> <defs id="I7d7f50d78dcb486d81f1583ee612258d20251106170956" /> <g id="I8fdd8de59a2f450e88edf5e62fb14d8e20251106170956"> <path id="I053e68c4dad84594b6007ecf478b684220251106170956" d="m 22.656,17.188 c 0,-6.04 4.899,-10.938 10.938,-10.938 6.039,0 10.937,4.898 10.937,10.938 v 3.124 h 3.125 c 3.883,0 7.032,3.149 7.032,7.032 v 23.437 c 0,3.883 -3.149,7.031 -7.032,7.031 H 19.531 c -3.883,0 -7.031,-3.148 -7.031,-7.031 V 27.344 c 0,-3.883 3.148,-7.032 7.031,-7.032 h 3.125 z m 17.188,0 c 0,-3.454 -2.797,-6.25 -6.25,-6.25 -3.453,0 -6.25,2.796 -6.25,6.25 v 3.124 h 12.5 z m -6.25,25.781 c 2.156,0 3.906,-1.75 3.906,-3.907 0,-2.156 -1.75,-3.906 -3.906,-3.906 -2.156,0 -3.906,1.75 -3.906,3.906 0,2.157 1.75,3.907 3.906,3.907 z m -9.758,17.969 c 0.965,2.73 3.57,4.687 6.633,4.687 h 18.75 C 56.555,65.625 62.5,59.68 62.5,52.344 V 38.281 c 0,-3.062 -1.957,-5.664 -4.688,-6.633 v 20.696 c 0,4.746 -3.847,8.594 -8.593,8.594 z" style="fill:currentColor;fill-opacity:1;fill-rule:nonzero;stroke:none" transform="scale(1.3333333)" /> </g>
</svg>

