<?xml version="1.0" encoding="UTF-8" standalone="no"?> <svg version="1.1" id="I584531958d634f07811edc8d6842e77c20251106170956" width="100" height="100" viewBox="0 0 100 100" xmlns="http://www.w3.org/2000/svg" xmlns:svg="http://www.w3.org/2000/svg"> <defs id="I5de0dd848a61433dbde88e6ec81b1d2820251106170956" /> <g id="Ia4d528e3114041ba8d4bda05ff764d3b20251106170956"> <path id="I24e786bc383b4ceb8d175d7f82c9f2ca20251106170956" d="M 68.75,26.898 V 37.656 C 68.246,37.555 67.723,37.5 67.188,37.5 c -1.758,0 -3.383,0.582 -4.688,1.562 0,-2.921 -1.602,-5.464 -3.973,-6.804 z M 16.406,62.5 H 34.375 V 51.562 c 0,-4.316 3.496,-7.812 7.813,-7.812 1.757,0 3.382,0.582 4.687,1.562 v -6.25 c 0,-0.242 0.012,-0.484 0.031,-0.718 l -8.32,4.359 c -0.68,0.356 -1.492,0.356 -2.172,0 L 6.25,26.898 v 25.446 l 0.016,0.578 c 0.3,5.34 4.726,9.578 10.14,9.578 z m 0,-50 h 42.188 c 5.265,0 9.594,4.008 10.105,9.137 L 37.5,37.98 6.301,21.637 c 0.492,-4.942 4.523,-8.84 9.523,-9.121 z m 38.282,21.875 c -2.59,0 -4.688,2.098 -4.688,4.687 v 25 c 0,2.59 2.098,4.688 4.688,4.688 2.589,0 4.687,-2.098 4.687,-4.688 v -25 c 0,-2.589 -2.098,-4.687 -4.687,-4.687 z m 12.5,6.25 c -2.59,0 -4.688,2.098 -4.688,4.687 v 18.75 c 0,2.59 2.098,4.688 4.688,4.688 2.589,0 4.687,-2.098 4.687,-4.688 v -18.75 c 0,-2.589 -2.098,-4.687 -4.687,-4.687 z M 37.5,51.562 c 0,-2.589 2.098,-4.687 4.688,-4.687 2.589,0 4.687,2.098 4.687,4.687 v 12.5 c 0,2.59 -2.098,4.688 -4.687,4.688 -2.59,0 -4.688,-2.098 -4.688,-4.688 z" style="fill:currentColor;fill-opacity:1;fill-rule:nonzero;stroke:none" transform="scale(1.3333333)" /> </g>
</svg>

