<?xml version="1.0" encoding="UTF-8" standalone="no"?> <svg version="1.1" id="Ie7a3defdee8b408baf804fa3316fc4c420251110135155" width="100" height="100" viewBox="0 0 100 100" xmlns="http://www.w3.org/2000/svg" xmlns:svg="http://www.w3.org/2000/svg"> <defs id="I2a3a9da471b94f94adc18923d6b827f220251110135155" /> <g id="I3fa6097d60a44dada0e43c4a1b37980720251110135155"> <path id="I8013abacd4c74d088695fde56f94cb9620251110135155" d="m 49.219,9.375 c -1.293,0 -2.344,1.051 -2.344,2.344 v 48.437 c 0,1.293 1.051,2.344 2.344,2.344 1.293,0 2.343,-1.051 2.343,-2.344 v -0.742 c 2.141,1.93 4.856,3.086 7.813,3.086 6.902,0 12.5,-6.297 12.5,-14.062 0,-7.766 -5.598,-14.063 -12.5,-14.063 -2.957,0 -5.672,1.156 -7.813,3.086 V 11.719 c 0,-1.293 -1.05,-2.344 -2.343,-2.344 z m 2.343,39.063 c 0,-5.711 4,-9.376 7.813,-9.376 3.813,0 7.813,3.665 7.813,9.376 0,5.71 -4,9.374 -7.813,9.374 -3.813,0 -7.813,-3.664 -7.813,-9.374 z M 24.254,9.375 c 0.98,0.016 1.848,0.637 2.176,1.559 l 17.187,48.437 c 0.43,1.223 -0.207,2.563 -1.426,2.992 -1.222,0.434 -2.558,-0.203 -2.992,-1.422 L 34.762,48.438 H 12.52 L 7.656,61.004 C 7.188,62.211 5.832,62.809 4.625,62.344 3.418,61.875 2.816,60.516 3.285,59.309 l 18.75,-48.438 c 0.352,-0.914 1.238,-1.508 2.219,-1.496 z m -0.129,9.082 -9.793,25.293 h 18.766 z" style="fill:currentColor;fill-opacity:1;fill-rule:nonzero;stroke:none" transform="scale(1.3333333)" /> </g>
</svg>

