<?xml version="1.0" encoding="UTF-8" standalone="no"?> <svg version="1.1" id="I02fbe7b7b43b400ebac2dd2892ca318b20251106151526" width="100" height="100" viewBox="0 0 100 100" xmlns="http://www.w3.org/2000/svg" xmlns:svg="http://www.w3.org/2000/svg"> <defs id="Ia4d465e9b8af43eabf55ea14033886aa20251106151526" /> <g id="I6018c79d689e4e1da43bbfc6bc5c1f2f20251106151526"> <path id="I72caa17b029a4b7588ab62a528af266720251106151526" d="M 8.785,5.945 C 8.004,5.16 6.73,5.16 5.945,5.945 5.16,6.73 5.16,8.004 5.945,8.785 l 4.102,4.106 c -2.844,2.066 -4.692,5.421 -4.692,9.207 v 30.804 c 0,6.286 5.098,11.383 11.387,11.383 h 41.516 c 0.976,0 1.926,-0.121 2.832,-0.355 l 5.121,5.125 c 0.785,0.785 2.059,0.785 2.844,0 0.785,-0.785 0.785,-2.059 0,-2.84 z M 57.426,60.27 H 16.742 c -4.07,0 -7.367,-3.301 -7.367,-7.368 V 22.098 c 0,-2.68 1.43,-5.024 3.57,-6.313 l 10.903,10.906 c -1.692,0.653 -3.286,1.786 -4.469,3.528 -1.262,1.863 -1.969,4.285 -1.969,7.281 0,2.996 0.707,5.418 1.969,7.281 1.266,1.867 3.004,3.031 4.828,3.66 1.809,0.618 3.707,0.711 5.395,0.461 1.664,-0.246 3.281,-0.851 4.464,-1.797 0.868,-0.695 1.008,-1.957 0.317,-2.824 -0.695,-0.867 -1.957,-1.008 -2.824,-0.312 -0.493,0.39 -1.387,0.789 -2.547,0.961 -1.137,0.168 -2.379,0.093 -3.5,-0.289 C 24.41,44.262 23.426,43.586 22.703,42.523 21.98,41.457 21.43,39.863 21.43,37.5 c 0,-2.363 0.55,-3.957 1.273,-5.023 0.723,-1.063 1.707,-1.739 2.809,-2.118 0.535,-0.183 1.097,-0.297 1.66,-0.343 L 42.84,45.68 c 0.289,0.336 0.601,0.644 0.926,0.925 z M 19.238,10.715 23.254,14.73 h 35.004 c 4.07,0 7.367,3.301 7.367,7.368 v 30.804 c 0,1.219 -0.297,2.368 -0.82,3.379 l 2.929,2.93 c 1.207,-1.805 1.911,-3.977 1.911,-6.309 V 22.098 c 0,-6.286 -5.098,-11.383 -11.387,-11.383 z m 37.598,36.39 c -0.223,0.176 -0.461,0.344 -0.711,0.497 l -3.004,-3.004 c 0.516,-0.184 0.926,-0.407 1.203,-0.629 0.867,-0.696 2.133,-0.555 2.824,0.312 0.696,0.867 0.555,2.129 -0.312,2.824 z m -15.84,-14.632 3.309,3.308 c 0.195,-1.449 0.633,-2.519 1.168,-3.304 0.718,-1.063 1.703,-1.739 2.808,-2.118 1.121,-0.382 2.364,-0.457 3.5,-0.289 1.16,0.172 2.055,0.571 2.543,0.961 0.867,0.696 2.133,0.555 2.824,-0.312 0.696,-0.867 0.555,-2.129 -0.312,-2.824 -1.184,-0.946 -2.801,-1.551 -4.465,-1.797 -1.687,-0.25 -3.586,-0.157 -5.394,0.461 -1.825,0.625 -3.563,1.793 -4.829,3.66 -0.46,0.679 -0.847,1.429 -1.152,2.254 z" style="fill:currentColor;fill-opacity:1;fill-rule:nonzero;stroke:none" transform="scale(1.3333333)" /> </g>
</svg>

