<?xml version="1.0" encoding="UTF-8" standalone="no"?> <svg version="1.1" id="I26ef4205c9b34848bdc5f0abe8e9489a20251110124420" width="100" height="100" viewBox="0 0 100 100" xmlns="http://www.w3.org/2000/svg" xmlns:svg="http://www.w3.org/2000/svg"> <defs id="I06401c96f97648418cf0c472b272bd5a20251110124420"> <radialGradient fx="0" fy="0" cx="0" cy="0" r="1" gradientUnits="userSpaceOnUse" gradientTransform="matrix(0,39.479063,-62.082656,0,37.5,41.357109)" spreadMethod="pad" id="Ie50b1db7a55f40688b1e0d338f262d6620251110124420"> <stop style="stop-opacity:1;stop-color:#163697" offset="0" id="I446e206ec4d547a3899c6479a3a640fb20251110124420" /> <stop style="stop-opacity:1;stop-color:#29c3ff" offset="1" id="I732d25b6ad864c9ca9425090e34694c320251110124420" /> </radialGradient> <radialGradient fx="0" fy="0" cx="0" cy="0" r="1" gradientUnits="userSpaceOnUse" gradientTransform="matrix(143.97308,218.47108,-187.11034,123.30627,-87.221016,-159.375)" spreadMethod="pad" id="I08087df498194ab29c79c0633595c99320251110124420"> <stop style="stop-opacity:1;stop-color:#ffcd0f" offset="0" id="I9a89f450f3d442e1bc491d94466c798f20251110124420" /> <stop style="stop-opacity:1;stop-color:#ffcd0f" offset="0.771547" id="I06af85de3f65483a9dadc9db97e4d8d220251110124420" /> <stop style="stop-opacity:1;stop-color:#e67505" offset="0.990707" id="If632082f23f241e2abcb0accd615ab8920251110124420" /> <stop style="stop-opacity:1;stop-color:#e67505" offset="1" id="I4461c3ec92af41349ea5af742a87e2a820251110124420" /> </radialGradient> <radialGradient fx="0" fy="0" cx="0" cy="0" r="1" gradientUnits="userSpaceOnUse" gradientTransform="matrix(-11.718459,-39.158961,56.495432,-16.90646,43.359375,38.782734)" spreadMethod="pad" id="Icd4fa84ad90a44029cc460d382734e2620251110124420"> <stop style="stop-opacity:1;stop-color:#b03111" offset="0" id="If6ad94b1f095457eab17cde9f32d4ea020251110124420" /> <stop style="stop-opacity:1;stop-color:#e67505" offset="1" id="Ib515a4bca73b412b87470281f3eced6920251110124420" /> </radialGradient> </defs> <g id="I336931cf5b704764b83bd9dce1fdfa0a20251110124420"> <path id="Ibe7ee50d84d24fab8963a2886d735b9720251110124420" d="m 23.438,45.266 v 22.703 c 0,0.843 0.453,1.625 1.187,2.039 0.734,0.418 1.637,0.406 2.363,-0.028 L 37.5,63.672 48.012,69.98 c 0.726,0.434 1.629,0.446 2.363,0.028 0.734,-0.414 1.187,-1.196 1.187,-2.039 V 45.266 c -4.093,2.507 -8.91,3.953 -14.062,3.953 -5.152,0 -9.969,-1.446 -14.062,-3.953 z" transform="scale(1.3333333)" style="fill:url(#Ie50b1db7a55f40688b1e0d338f262d6620251110124420);stroke:none" /> <path id="I3a485c6a0198474399d5ee5e10b35ade20251110124420" d="M 51.562,46.875 C 47.645,49.82 42.777,51.562 37.5,51.562 32.223,51.562 27.355,49.82 23.438,46.875 23.148,46.66 22.867,46.438 22.59,46.211 17.383,41.91 14.062,35.406 14.062,28.125 14.062,15.18 24.555,4.688 37.5,4.688 c 12.945,0 23.438,10.492 23.438,23.437 0,7.668 -3.684,14.477 -9.376,18.75 z" transform="scale(1.3333333)" style="fill:url(#I08087df498194ab29c79c0633595c99320251110124420);stroke:none" /> <path id="Ib5246f11da4d48eabd947e48f11245ed20251110124420" d="m 38.289,16.895 3.141,6.378 7.035,1.016 c 0.723,0.106 1.008,0.992 0.488,1.5 l -5.09,4.957 1.203,7.008 c 0.122,0.719 -0.632,1.266 -1.277,0.926 L 37.5,35.367 31.211,38.68 c -0.645,0.34 -1.399,-0.207 -1.277,-0.926 l 1.211,-7.008 -5.098,-4.957 c -0.52,-0.508 -0.235,-1.394 0.488,-1.5 l 7.035,-1.016 3.141,-6.378 c 0.324,-0.653 1.254,-0.653 1.578,0 z" transform="scale(1.3333333)" style="fill:url(#Icd4fa84ad90a44029cc460d382734e2620251110124420);stroke:none" /> </g>
</svg>

