<?xml version="1.0" encoding="UTF-8" standalone="no"?> <svg version="1.1" id="I6a95dee392ba45d2be2340fefc7c5aad20251106151526" width="100" height="100" viewBox="0 0 100 100" xmlns="http://www.w3.org/2000/svg" xmlns:svg="http://www.w3.org/2000/svg"> <defs id="I547d902c9fd4432db7073856623e2d1220251106151526" /> <g id="If02d2d3968454eb39d8485147974a50120251106151526"> <path id="Ifc5cf6c8e98347ca8f95a8177a05824720251106151526" d="m 37.5,17.41 c -7.938,0 -14.41,6.281 -14.719,14.141 -0.043,1.078 -0.929,1.929 -2.008,1.929 H 20.09 c -5.918,0 -10.715,4.797 -10.715,10.715 0,5.918 4.797,10.715 10.715,10.715 h 22.512 l -2.29,4.02 H 20.09 c -8.137,0 -14.735,-6.598 -14.735,-14.735 0,-7.746 5.981,-14.097 13.579,-14.687 1.281,-9.11 9.105,-16.113 18.566,-16.113 h 0.039 c 4.992,0.007 9.527,1.968 12.883,5.16 3.59,3.418 5.828,8.242 5.828,13.59 H 52.23 C 52.23,24.008 45.637,17.41 37.5,17.41 Z m 5.355,19.422 c 0,-1.109 0.903,-2.012 2.012,-2.012 h 20.09 c 1.109,0 2.008,0.903 2.008,2.012 0,1.109 -0.899,2.008 -2.008,2.008 h -3.352 v 10.183 c 0,0.93 0.243,1.844 0.704,2.653 l 1.843,3.234 H 45.684 l 1.828,-3.211 c 0.461,-0.808 0.703,-1.722 0.703,-2.652 V 38.84 h -3.348 c -1.109,0 -2.012,-0.899 -2.012,-2.008 z m 0.543,22.098 -2.683,4.707 c -1.524,2.679 0.41,6.008 3.492,6.008 h 21.418 c 3.086,0 5.02,-3.329 3.492,-6.008 L 66.438,58.93 Z" style="fill:currentColor;fill-opacity:1;fill-rule:nonzero;stroke:none" transform="scale(1.3333333)" /> </g>
</svg>

