<?xml version="1.0" encoding="UTF-8" standalone="no"?> <svg version="1.1" id="I9386c54302dd4283a7c6e9c4be56ee3720251106105802" width="100" height="100" viewBox="0 0 100 100" xmlns="http://www.w3.org/2000/svg" xmlns:svg="http://www.w3.org/2000/svg"> <defs id="I3c60ff7ad9f04019b47c2e1e57020bd120251106105802" /> <g id="I84abc63758fe4406af6c517e664f572e20251106105802"> <path id="I79fe630711d2466ea854b10e37e22f5220251106105802" d="m 18.75,29.883 c 0,5.355 8.035,5.355 8.035,0 0,-5.356 -8.035,-5.356 -8.035,0 z m 29.465,0 c 0,5.355 8.035,5.355 8.035,0 0,-5.356 -8.035,-5.356 -8.035,0 z M 37.5,0 C 16.793,0 0,16.793 0,37.5 0,58.207 16.793,75 37.5,75 58.207,75 75,58.207 75,37.5 75,16.793 58.207,0 37.5,0 Z m 22.016,59.516 c -2.864,2.863 -6.196,5.105 -9.903,6.679 -3.828,1.621 -7.902,2.442 -12.113,2.442 -4.211,0 -8.285,-0.821 -12.121,-2.442 C 21.676,64.629 18.312,62.363 15.477,59.516 12.613,56.652 10.371,53.32 8.797,49.613 7.184,45.785 6.363,41.711 6.363,37.5 c 0,-4.211 0.821,-8.285 2.442,-12.121 1.566,-3.703 3.832,-7.067 6.679,-9.902 2.864,-2.864 6.196,-5.106 9.903,-6.68 3.828,-1.613 7.902,-2.434 12.113,-2.434 4.211,0 8.285,0.821 12.121,2.442 3.703,1.566 7.067,3.832 9.902,6.679 2.864,2.864 5.106,6.196 6.68,9.903 1.613,3.828 2.434,7.902 2.434,12.113 0,4.211 -0.821,8.285 -2.442,12.121 -1.562,3.699 -3.832,7.063 -6.679,9.895 z M 50.223,41.938 H 24.777 c -0.367,0 -0.672,0.3 -0.672,0.667 v 4.02 c 0,0.367 0.305,0.668 0.672,0.668 h 25.446 c 0.367,0 0.672,-0.301 0.672,-0.668 v -4.02 c 0,-0.367 -0.305,-0.667 -0.672,-0.667 z" style="fill:currentColor;fill-opacity:1;fill-rule:nonzero;stroke:none" transform="scale(1.3333333)" /> </g>
</svg>

