<?xml version="1.0" encoding="UTF-8" standalone="no"?> <svg version="1.1" id="I63e753b475934a679726ed53ab64a99020251106163938" width="100" height="100" viewBox="0 0 100 100" xmlns="http://www.w3.org/2000/svg" xmlns:svg="http://www.w3.org/2000/svg"> <defs id="I373d3eeadb374c6c975f7b53ef0e20f320251106163938" /> <g id="I5d6cea7d6ca44fd9ba3f124c3c71940520251106163938"> <path id="I59a598501e004d4fab99a7a53b1662d820251106163938" d="m 28.125,4.688 c -2.016,0 -3.809,1.292 -4.445,3.207 L 14.305,36.02 c -0.477,1.425 -0.239,3 0.644,4.222 0.879,1.223 2.293,1.946 3.801,1.946 h 5.66 l -5.363,20.683 c -1.57,6.063 6.187,10.031 10.187,5.207 l 5.137,-6.199 c -1.004,-2.461 -1.559,-5.152 -1.559,-7.973 0,-11.648 9.446,-21.094 21.094,-21.094 1.438,0 2.844,0.145 4.199,0.418 l 1.754,-2.113 c 1.161,-1.398 1.407,-3.344 0.633,-4.988 -0.773,-1.641 -2.426,-2.691 -4.242,-2.691 H 48.953 L 53.609,11.02 C 54.148,9.582 53.949,7.969 53.07,6.703 52.195,5.441 50.758,4.688 49.219,4.688 Z m 43.359,49.218 c 0,9.707 -7.871,17.578 -17.578,17.578 -9.707,0 -17.578,-7.871 -17.578,-17.578 0,-9.707 7.871,-17.578 17.578,-17.578 9.707,0 17.578,7.871 17.578,17.578 z m -22.265,7.168 c 0,0.934 1.043,1.492 1.82,0.973 l 10.777,-7.176 c 0.696,-0.465 0.696,-1.488 0,-1.949 L 51.039,45.746 c -0.777,-0.519 -1.82,0.039 -1.82,0.973 z" style="fill:currentColor;fill-opacity:1;fill-rule:nonzero;stroke:none" transform="scale(1.3333333)" /> </g>
</svg>

