<?xml version="1.0" encoding="UTF-8" standalone="no"?> <svg version="1.1" id="I4e2dc64bea644f7c85ec621686cc369120251106161453" width="100" height="100" viewBox="0 0 100 100" xmlns="http://www.w3.org/2000/svg" xmlns:svg="http://www.w3.org/2000/svg"> <defs id="I32adfccc599d441b9cb226ef9b831af320251106161453" /> <g id="I3201bc52bb7d42c08ab7ee63b18bc96520251106161453"> <path id="Ia9522e10d8a34aae92e7db5a22313ea020251106161453" d="m 63.266,12.516 c 3.019,0 5.468,2.445 5.468,5.468 v 39.047 c 0,3.02 -2.449,5.469 -5.468,5.469 H 40.617 c -0.269,0 -0.539,-0.02 -0.797,-0.059 V 12.57 c 0.258,-0.035 0.528,-0.054 0.797,-0.054 z M 34.367,12.508 c 0.262,0 0.516,0.015 0.766,0.051 v 49.879 c -0.25,0.035 -0.504,0.054 -0.766,0.054 H 11.719 c -3.02,0 -5.469,-2.449 -5.469,-5.469 V 17.977 c 0,-3.024 2.449,-5.469 5.469,-5.469 z m 20.711,39.058 c -1.293,0 -2.344,1.047 -2.344,2.344 0,1.293 1.051,2.344 2.344,2.344 1.297,0 2.344,-1.051 2.344,-2.344 0,-1.297 -1.047,-2.344 -2.344,-2.344 z m 7.813,0 c -1.293,0 -2.344,1.047 -2.344,2.344 0,1.293 1.051,2.344 2.344,2.344 1.297,0 2.343,-1.051 2.343,-2.344 0,-1.297 -1.046,-2.344 -2.343,-2.344 z m -15.625,0 c -1.293,0 -2.344,1.047 -2.344,2.344 0,1.293 1.051,2.344 2.344,2.344 1.296,0 2.343,-1.051 2.343,-2.344 0,-1.297 -1.047,-2.344 -2.343,-2.344 z" style="fill:currentColor;fill-opacity:1;fill-rule:nonzero;stroke:none" transform="scale(1.3333333)" /> </g>
</svg>

