<?xml version="1.0" encoding="UTF-8" standalone="no"?> <svg version="1.1" id="I1922f9a37b88469597c6dafb8a68677820251110123030" width="100" height="100" viewBox="0 0 100 100" xmlns="http://www.w3.org/2000/svg" xmlns:svg="http://www.w3.org/2000/svg"> <defs id="I38086ae471e84a1a97e6d8c2d4416f2220251110123030" /> <g id="Ifd09cd66170a4286b375aac7675a577a20251110123030"> <path id="I8acffefdf0dc48ae9ac774b6bc0535ae20251110123030" d="M 40.625,43.906 V 43.75 H 13.289 c -3.879,0 -7.027,3.148 -7.027,7.027 v 1.805 c 0,2.793 0.996,5.488 2.808,7.613 4.895,5.731 12.352,8.559 22.18,8.559 1.117,0 2.203,-0.035 3.262,-0.109 -0.09,-0.473 -0.137,-0.957 -0.137,-1.457 v -3.231 c -1.004,0.074 -2.043,0.109 -3.125,0.109 -8.555,0 -14.699,-2.332 -18.617,-6.918 -1.086,-1.273 -1.684,-2.89 -1.684,-4.566 v -1.805 c 0,-1.293 1.047,-2.339 2.34,-2.339 h 21.734 c 1.008,-2.297 3.086,-4.02 5.602,-4.532 z M 31.25,6.266 c 8.629,0 15.625,6.996 15.625,15.625 0,8.629 -6.996,15.625 -15.625,15.625 -8.629,0 -15.625,-6.996 -15.625,-15.625 0,-8.629 6.996,-15.625 15.625,-15.625 z m 0,4.687 c -6.039,0 -10.938,4.899 -10.938,10.938 0,6.039 4.899,10.937 10.938,10.937 6.043,0 10.938,-4.898 10.938,-10.937 0,-6.039 -4.895,-10.938 -10.938,-10.938 z m 12.5,35.922 h -1.562 c -2.59,0 -4.688,2.102 -4.688,4.687 v 15.626 c 0,2.589 2.098,4.687 4.688,4.687 h 25 c 2.589,0 4.687,-2.098 4.687,-4.687 V 51.562 c 0,-2.585 -2.098,-4.687 -4.687,-4.687 h -1.563 v -3.906 c 0,-3.02 -2.449,-5.469 -5.469,-5.469 H 49.219 c -3.02,0 -5.469,2.449 -5.469,5.469 z m 4.688,-3.906 c 0,-0.43 0.351,-0.781 0.781,-0.781 h 10.937 c 0.43,0 0.782,0.351 0.782,0.781 v 3.906 h -12.5 z" style="fill:currentColor;fill-opacity:1;fill-rule:nonzero;stroke:none" transform="scale(1.3333333)" /> </g>
</svg>

