<?xml version="1.0" encoding="UTF-8" standalone="no"?> <svg version="1.1" id="I1444a01d296b43679042d8665a57479220251106161453" width="100" height="100" viewBox="0 0 100 100" xmlns="http://www.w3.org/2000/svg" xmlns:svg="http://www.w3.org/2000/svg"> <defs id="Ibc17a8def9f9401b8ddf5403cdb5be2820251106161453" /> <g id="If52a4672d77240669826171fdcaabb6d20251106161453"> <path id="Icec441e890734c53b965ab84fe6489ca20251106161453" d="m 37.5,4.688 c -6.488,0 -12.832,1.925 -18.23,5.531 -5.395,3.605 -9.602,8.73 -12.086,14.722 -2.481,5.997 -3.133,12.594 -1.868,18.961 1.27,6.364 4.395,12.211 8.981,16.801 4.59,4.586 10.437,7.711 16.801,8.981 0.976,0.191 1.961,0.343 2.945,0.445 0.164,-1.434 0.519,-2.996 1.062,-4.621 L 35.008,65.5 c -6.141,-0.543 -11.934,-3.102 -16.469,-7.281 -0.375,-2.649 -0.961,-7.43 0.914,-9.938 0.43,-0.668 1.02,-1.215 1.715,-1.59 0.695,-0.379 1.477,-0.574 2.27,-0.566 0.929,-0.055 1.835,-0.324 2.648,-0.781 0.812,-0.461 1.512,-1.098 2.039,-1.867 0.598,-1.114 0.941,-2.344 1.008,-3.602 0.062,-1.262 -0.153,-2.52 -0.633,-3.687 -0.609,-2.344 -0.938,-3.915 0.234,-5.485 0.895,-0.558 1.864,-0.976 2.883,-1.242 l 0.082,-0.027 c 2.969,-1.004 6.957,-2.356 7.981,-6.629 1.281,-5.336 -0.836,-9.196 -2.793,-12.758 L 36.75,9.797 36.633,9.375 H 37.5 c 5.305,0 10.5,1.516 14.977,4.359 -2.465,3.817 -5.43,7.282 -8.813,10.313 -3.234,2.93 -0.867,6.305 0.703,8.531 0.856,0.918 1.52,2 1.949,3.18 0.34,0.93 0.532,1.902 0.567,2.887 1.504,-0.649 3.055,-1.141 4.613,-1.5 -0.402,-2.653 -1.531,-5.153 -3.285,-7.215 -0.586,-0.703 -1.063,-1.496 -1.406,-2.344 3.593,-3.219 6.746,-6.898 9.375,-10.945 2.929,2.605 5.281,5.8 6.898,9.371 1.535,3.39 2.379,7.05 2.484,10.765 1.665,0.235 3.258,0.539 4.75,0.879 V 37.5 c 0,-8.703 -3.457,-17.047 -9.609,-23.203 C 54.547,8.145 46.203,4.688 37.5,4.688 Z m -5.883,5.32 c 0.375,0.726 0.75,1.406 1.149,2.109 l 0.066,0.117 c 1.754,3.137 3.273,5.856 2.277,9.493 -0.398,1.593 -2.343,2.343 -5.015,3.281 -1.918,0.453 -3.66,1.453 -5.016,2.883 -0.918,1.363 -1.488,2.929 -1.664,4.562 -0.176,1.633 0.051,3.285 0.656,4.813 0.446,1.734 0.703,2.812 0.235,3.515 -0.332,0.5 -0.371,0.504 -0.813,0.52 -0.18,0.008 -0.422,0.019 -0.781,0.066 -1.399,0.086 -2.758,0.492 -3.977,1.184 -1.214,0.687 -2.261,1.648 -3.054,2.801 -1.352,1.96 -2.11,4.273 -2.18,6.656 C 10.812,47.645 9.387,42.625 9.375,37.5 c 0.004,-6.438 2.211,-12.676 6.262,-17.68 4.047,-5.004 9.687,-8.465 15.98,-9.812 z M 43.07,63.996 c 1.813,1.895 5.11,3.969 10.836,3.969 10.063,0 13.215,-12.961 14.645,-18.848 0.234,-0.969 0.426,-1.746 0.59,-2.242 0.355,-1.066 1.273,-1.855 2.3,-2.449 1.618,-0.93 1.657,-2.442 -0.148,-2.91 -8.504,-2.231 -21.164,-3.473 -29.105,4.464 -3.29,3.29 -3.239,7.602 -2.563,10.75 0.137,-0.191 0.277,-0.382 0.418,-0.574 3.687,-4.996 9.09,-9.633 16.219,-12.113 0.918,-0.32 1.918,0.164 2.238,1.082 0.316,0.918 -0.168,1.918 -1.082,2.238 -6.352,2.207 -11.203,6.356 -14.547,10.883 -3.34,4.52 -5.09,9.301 -5.371,12.711 0.027,0.883 0.719,1.621 1.621,1.691 0.969,0.075 1.813,-0.648 1.887,-1.617 0.164,-2.125 0.847,-4.57 2.062,-7.035 z" style="fill:currentColor;fill-opacity:1;fill-rule:nonzero;stroke:none" transform="scale(1.3333333)" /> </g>
</svg>

