<?xml version="1.0" encoding="UTF-8" standalone="no"?> <svg version="1.1" id="Ibfabfc999f694774b4fd29c02440657a20251106123559" width="100" height="100" viewBox="0 0 100 100" xmlns="http://www.w3.org/2000/svg" xmlns:svg="http://www.w3.org/2000/svg"> <defs id="If84a021c2eac4637830a3f2f2fc2fb4e20251106123559" /> <g id="I912e516237e2494d9fb7e1ba1a4934b420251106123559"> <path id="I78c798e42e7d4af49f57c0caea2b1c6c20251106123559" d="m 49.219,6.25 c 3.722,0 6.765,2.891 7.015,6.551 l 0.016,0.48 v 2.34 l 5.469,0.004 c 3.722,0 6.765,2.891 7.015,6.551 l 0.016,0.48 v 29.688 c 0,3.722 -2.891,6.769 -6.551,7.015 l -0.48,0.016 H 56.25 v 2.344 c 0,3.722 -2.891,6.765 -6.551,7.015 l -0.48,0.016 H 25.781 c -3.722,0 -6.769,-2.891 -7.015,-6.551 l -0.016,-0.48 v -2.344 h -5.469 c -3.722,0 -6.769,-2.891 -7.015,-6.551 L 6.25,52.344 V 22.656 c 0,-3.722 2.891,-6.769 6.551,-7.015 l 0.48,-0.016 5.469,-0.004 v -2.34 c 0,-3.722 2.891,-6.769 6.551,-7.015 l 0.48,-0.016 z m 0,4.688 H 25.781 c -1.187,0 -2.168,0.882 -2.324,2.027 l -0.019,0.316 v 48.438 c 0,1.187 0.882,2.168 2.027,2.324 l 0.316,0.019 h 23.438 c 1.187,0 2.168,-0.882 2.324,-2.027 l 0.019,-0.316 V 13.281 c 0,-1.187 -0.882,-2.168 -2.027,-2.324 z m -30.469,9.371 -5.469,0.003 c -1.187,0 -2.168,0.883 -2.324,2.028 l -0.019,0.316 v 29.688 c 0,1.187 0.882,2.168 2.027,2.324 l 0.316,0.02 h 5.469 z m 42.969,0.003 -5.469,-0.003 v 34.379 h 5.469 c 1.187,0 2.168,-0.883 2.324,-2.028 l 0.019,-0.316 V 22.656 c 0,-1.293 -1.05,-2.344 -2.343,-2.344 z" style="fill:currentColor;fill-opacity:1;fill-rule:nonzero;stroke:none" transform="scale(1.3333333)" /> </g>
</svg>

