<?xml version="1.0" encoding="UTF-8" standalone="no"?> <svg version="1.1" id="I3a36c968e4ac434a9808ee320a29cfed20251106123600" width="100" height="100" viewBox="0 0 100 100" xmlns="http://www.w3.org/2000/svg" xmlns:svg="http://www.w3.org/2000/svg"> <defs id="I60b77253dfb44bec92936c9e0d6aa94c20251106123600" /> <g id="I15784b461dce40668e4660f98599beb120251106123600"> <path id="Ief79e917ef2b4c3788656a0b3e52c02520251106123600" d="m 25.426,29.176 c -1.098,1.097 -2.879,1.097 -3.977,0 -1.097,-1.098 -1.097,-2.879 0,-3.977 L 34.574,12.074 c 1.098,-1.097 2.879,-1.097 3.977,0 l 13.125,13.125 c 1.097,1.098 1.097,2.879 0,3.977 -1.098,1.097 -2.879,1.097 -3.977,0 l -8.324,-8.324 v 33.296 l 8.324,-8.324 c 1.098,-1.097 2.879,-1.097 3.977,0 1.097,1.098 1.097,2.879 0,3.977 L 38.551,62.926 c -1.098,1.097 -2.879,1.097 -3.977,0 L 21.449,49.801 c -1.097,-1.098 -1.097,-2.879 0,-3.977 1.098,-1.097 2.879,-1.097 3.977,0 l 8.324,8.324 V 20.852 Z" style="fill:currentColor;fill-opacity:1;fill-rule:nonzero;stroke:none" transform="scale(1.3333333)" /> </g>
</svg>

