<?xml version="1.0" encoding="UTF-8" standalone="no"?> <svg version="1.1" id="I5b2de4e62d5f435cafd6ae74baa1da2020251106132946" width="100" height="100" viewBox="0 0 100 100" xmlns="http://www.w3.org/2000/svg" xmlns:svg="http://www.w3.org/2000/svg"> <defs id="I61630eb5226b47a0b4e8c5dc6beda84620251106132946" /> <g id="Ia8b20688de3244dcb4bbe31601d603e620251106132946"> <path id="I7ebc966260d048648bf7f9f22b7cad3420251106132946" d="M 12.5,14.062 C 12.5,9.746 15.996,6.25 20.312,6.25 H 56.25 c 4.316,0 7.812,3.496 7.812,7.812 v 44.532 c 0,1.293 -1.05,2.344 -2.343,2.344 H 17.188 c 0,1.726 1.398,3.124 3.124,3.124 h 41.407 c 1.293,0 2.343,1.051 2.343,2.344 0,1.293 -1.05,2.344 -2.343,2.344 H 20.312 c -4.316,0 -7.812,-3.496 -7.812,-7.812 z m 20.473,5.836 c -4.907,2.043 -8.481,6.641 -9.063,12.133 h 6.586 c 0.129,-3.906 0.738,-7.488 1.707,-10.261 0.227,-0.653 0.485,-1.282 0.77,-1.872 z M 43.41,19.535 c 0.36,0.695 0.676,1.449 0.949,2.235 0.969,2.773 1.579,6.355 1.707,10.261 h 7.368 C 52.816,26.188 48.805,21.352 43.41,19.535 Z m -2.031,12.496 c -0.129,-3.476 -0.676,-6.515 -1.441,-8.711 -0.446,-1.269 -0.922,-2.132 -1.333,-2.629 -0.144,-0.171 -0.25,-0.273 -0.324,-0.328 -0.074,0.055 -0.179,0.157 -0.324,0.328 -0.41,0.497 -0.887,1.36 -1.332,2.629 -0.766,2.196 -1.313,5.235 -1.441,8.711 z m -6.106,4.688 c 0.211,2.824 0.704,5.289 1.352,7.148 0.445,1.27 0.922,2.133 1.332,2.629 0.145,0.172 0.25,0.274 0.324,0.328 0.074,-0.054 0.18,-0.156 0.324,-0.328 0.411,-0.496 0.887,-1.359 1.333,-2.629 0.648,-1.859 1.14,-4.324 1.351,-7.148 z m -4.699,0 h -6.418 c 1.024,4.812 4.383,8.761 8.836,10.609 -0.297,-0.601 -0.558,-1.246 -0.789,-1.91 -0.84,-2.398 -1.41,-5.402 -1.629,-8.699 z m 12.817,10.969 c 4.925,-1.649 8.699,-5.813 9.797,-10.969 h -7.2 c -0.218,3.297 -0.789,6.301 -1.629,8.699 -0.281,0.801 -0.601,1.566 -0.968,2.27 z m -5.012,-0.801 c 0.008,0 0.012,0.004 0.012,0.004 z" style="fill:currentColor;fill-opacity:1;fill-rule:nonzero;stroke:none" transform="scale(1.3333333)" /> </g>
</svg>

