<?xml version="1.0" encoding="UTF-8" standalone="no"?> <svg version="1.1" id="Ib1c553692028410786e6a4b9a605d0fa20251106132945" width="100" height="100" viewBox="0 0 100 100" xmlns="http://www.w3.org/2000/svg" xmlns:svg="http://www.w3.org/2000/svg"> <defs id="Icf10d348a21e45a78a8d4ce13ca2f4f920251106132945" /> <g id="If331ff175dd3498ea9d5037fce4e108a20251106132945"> <path id="I19bfd8ef6d7a4e51ba8c5492a30dad6e20251106132945" d="m 8.82,66.18 c -1.047,-1.047 -1.047,-2.742 0,-3.789 l 49,-48.996 h -23 c -1.476,0 -2.675,-1.2 -2.675,-2.68 0,-1.481 1.199,-2.68 2.675,-2.68 h 29.465 c 0.711,0 1.391,0.281 1.895,0.785 0.504,0.504 0.785,1.184 0.785,1.895 V 40.18 c 0,1.476 -1.199,2.675 -2.68,2.675 -1.48,0 -2.68,-1.199 -2.68,-2.675 v -23 l -48.996,49 c -1.047,1.047 -2.742,1.047 -3.789,0 z" style="fill:currentColor;fill-opacity:1;fill-rule:nonzero;stroke:none" transform="scale(1.3333333)" /> </g>
</svg>

