<?xml version="1.0" encoding="UTF-8" standalone="no"?> <svg version="1.1" id="Ib148ef178fb148ef91e178eb280713ab20251105191527" width="100" height="100" viewBox="0 0 100 100" xmlns="http://www.w3.org/2000/svg" xmlns:svg="http://www.w3.org/2000/svg"> <defs id="I78a874dc682045eab1bd0eaebc0831d620251105191527" /> <g id="I1bd339a63f844578bcce379a657adfc520251105191527"> <path id="Ie87ec5a026c641608f9362909dbb266d20251105191527" d="m 66.211,8.043 -15.836,1.969 c -0.555,0.066 -0.781,0.734 -0.395,1.129 l 4.579,4.578 -12.848,12.851 c -0.262,0.262 -0.262,0.684 0,0.946 l 3.773,3.773 c 0.262,0.262 0.688,0.262 0.946,0 l 12.859,-12.855 4.578,4.578 c 0.395,0.39 1.067,0.156 1.129,-0.395 L 66.957,8.789 C 67.016,8.355 66.645,7.984 66.211,8.043 Z M 29.516,41.711 c -0.262,-0.262 -0.684,-0.262 -0.946,0 L 15.719,54.566 11.141,49.988 c -0.391,-0.39 -1.067,-0.156 -1.129,0.395 L 8.043,66.211 c -0.051,0.434 0.312,0.797 0.746,0.746 l 15.836,-1.969 c 0.555,-0.066 0.781,-0.734 0.395,-1.129 L 20.441,59.281 33.297,46.422 c 0.262,-0.258 0.262,-0.684 0,-0.945 z" style="fill:currentColor;fill-opacity:1;fill-rule:nonzero;stroke:none" transform="scale(1.3333333)" /> </g>
</svg>

