<?xml version="1.0" encoding="UTF-8" standalone="no"?> <svg version="1.1" id="Ib39ce5b5b706449cb8c18e1bc8eda6cb20251110135155" width="100" height="100" viewBox="0 0 100 100" xmlns="http://www.w3.org/2000/svg" xmlns:svg="http://www.w3.org/2000/svg"> <defs id="I602c05c44917475bacdaeeb972bf917320251110135155" /> <g id="I237dc10c84244b64be531832d72484af20251110135155"> <path id="I2795bd29932a4b32ac5f7c5acaec2bea20251110135155" d="m 15.625,17.969 c 0,-1.293 1.051,-2.344 2.344,-2.344 h 39.062 c 1.293,0 2.344,1.051 2.344,2.344 0,1.293 -1.051,2.343 -2.344,2.343 H 17.969 c -1.293,0 -2.344,-1.05 -2.344,-2.343 z m 0,12.5 c 0,-1.293 1.051,-2.344 2.344,-2.344 h 39.062 c 1.293,0 2.344,1.051 2.344,2.344 0,1.293 -1.051,2.343 -2.344,2.343 H 17.969 c -1.293,0 -2.344,-1.05 -2.344,-2.343 z m 0,12.5 c 0,-1.293 1.051,-2.344 2.344,-2.344 h 39.062 c 1.293,0 2.344,1.051 2.344,2.344 0,1.293 -1.051,2.343 -2.344,2.343 H 17.969 c -1.293,0 -2.344,-1.05 -2.344,-2.343 z m 0,12.5 c 0,-1.293 1.051,-2.344 2.344,-2.344 h 39.062 c 1.293,0 2.344,1.051 2.344,2.344 0,1.293 -1.051,2.343 -2.344,2.343 H 17.969 c -1.293,0 -2.344,-1.05 -2.344,-2.343 z" style="fill:currentColor;fill-opacity:1;fill-rule:nonzero;stroke:none" transform="scale(1.3333333)" /> </g>
</svg>

