<?xml version="1.0" encoding="UTF-8" standalone="no"?> <svg version="1.1" id="I04a8570ae6de4636a0c627d55972d57120251106112458" width="100" height="100" viewBox="0 0 100 100" xmlns="http://www.w3.org/2000/svg" xmlns:svg="http://www.w3.org/2000/svg"> <defs id="I07800593b23045148f8b2db4a9dc529a20251106112458" /> <g id="I9d5f28becfab43b38efdcc194fb7334120251106112458"> <path id="Id801cc0b54174cddb12211a2bfec4f4720251106112458" d="m 30.938,44.457 c -1.188,-0.496 -2.711,0.016 -3.45,1.164 -0.734,1.152 -0.394,2.527 0.778,3.063 1.199,0.543 2.781,0.023 3.515,-1.157 0.739,-1.195 0.352,-2.562 -0.843,-3.07 z M 68.305,4.02 H 6.695 C 5.215,4.02 4.02,5.215 4.02,6.695 v 61.61 c 0,1.48 1.195,2.675 2.675,2.675 h 61.61 c 1.48,0 2.675,-1.195 2.675,-2.675 V 6.695 c 0,-1.48 -1.195,-2.675 -2.675,-2.675 z m -34.52,52.23 c -9.586,0 -19.387,-4.652 -19.387,-12.312 0,-4 2.528,-8.629 6.887,-13 5.82,-5.825 12.606,-8.489 15.16,-5.926 1.129,1.129 1.239,3.078 0.512,5.406 -0.379,1.172 1.094,0.527 1.094,0.527 4.707,-1.976 8.808,-2.093 10.304,0.059 0.805,1.148 0.723,2.746 -0.015,4.613 -0.344,0.852 0.109,0.988 0.754,1.18 2.652,0.82 5.597,2.812 5.597,6.32 0.02,5.817 -8.343,13.133 -20.906,13.133 z M 51.137,31.91 c 0.32,-0.992 0.09,-2.082 -0.606,-2.855 -0.695,-0.774 -1.75,-1.117 -2.769,-0.895 -1.992,0.422 -2.629,-2.566 -0.637,-2.988 2.02,-0.43 4.195,0.191 5.668,1.832 1.48,1.641 1.875,3.875 1.246,5.844 -0.254,0.8 -1.117,1.238 -1.914,0.976 C 51.32,33.57 50.879,32.711 51.137,31.91 Z m 8.871,2.871 c 0,0 0,0.008 0,0 -0.297,0.934 -1.293,1.446 -2.227,1.145 -0.929,-0.301 -1.441,-1.305 -1.136,-2.235 0.917,-2.863 0.332,-6.129 -1.817,-8.519 -2.082,-2.313 -5.238,-3.336 -8.281,-2.688 -0.957,0.204 -1.899,-0.406 -2.098,-1.367 -0.211,-0.953 0.399,-1.894 1.356,-2.097 4.133,-0.879 8.605,0.398 11.64,3.773 3.039,3.363 3.86,7.961 2.563,11.988 z m -28,0.508 c -7.649,0.754 -13.449,5.449 -12.949,10.481 0.496,5.031 7.097,8.496 14.75,7.742 7.652,-0.762 13.453,-5.45 12.949,-10.489 -0.492,-5.031 -7.098,-8.496 -14.75,-7.734 z m 6.715,11.863 c -1.567,3.539 -6.051,5.422 -9.86,4.192 -3.675,-1.188 -5.234,-4.828 -3.625,-8.102 1.582,-3.215 5.692,-5.031 9.332,-4.086 3.766,0.981 5.692,4.539 4.153,7.996 z m -4.864,-3.91 c -0.453,-0.183 -1.023,0.043 -1.289,0.485 -0.261,0.453 -0.117,0.964 0.344,1.156 0.461,0.191 1.055,-0.024 1.32,-0.485 0.254,-0.468 0.086,-0.988 -0.375,-1.156 z" style="fill:currentColor;fill-opacity:1;fill-rule:nonzero;stroke:none" transform="scale(1.3333333)" /> </g>
</svg>

