<?xml version="1.0" encoding="UTF-8" standalone="no"?> <svg version="1.1" id="If5fe4c4df6e04918b897c39c9d94028a20251106132946" width="100" height="100" viewBox="0 0 100 100" xmlns="http://www.w3.org/2000/svg" xmlns:svg="http://www.w3.org/2000/svg"> <defs id="I2742c09800754163a83277d2ef2c988020251106132946" /> <g id="I5cb4ec02b724488eb5515ef592490d1c20251106132946"> <path id="Ife52cb357c2f4d298fb79bcafc2bed8420251106132946" d="M 59.711,28.648 C 57.41,30.289 54.598,31.25 51.562,31.25 43.793,31.25 37.5,24.953 37.5,17.188 37.5,9.422 43.793,3.125 51.562,3.125 c 7.766,0 14.063,6.297 14.063,14.063 0,3.035 -0.965,5.847 -2.602,8.148 l 8.165,8.164 c 0.914,0.914 0.914,2.398 0,3.312 -0.915,0.918 -2.399,0.918 -3.317,0 z m 1.227,-11.46 c 0,-5.176 -4.2,-9.376 -9.376,-9.376 -5.179,0 -9.374,4.2 -9.374,9.376 0,5.175 4.195,9.374 9.374,9.374 5.176,0 9.376,-4.199 9.376,-9.374 z m -1.563,15.55 v 33.653 c 0,1.91 -2.16,3.019 -3.711,1.902 L 37.504,55.227 19.344,68.293 c -1.551,1.117 -3.711,0.008 -3.711,-1.902 V 19.527 c 0,-5.609 4.547,-10.156 10.156,-10.156 H 36.25 c -0.746,1.457 -1.289,3.031 -1.594,4.688 h -8.867 c -3.023,0 -5.469,2.449 -5.469,5.468 V 61.816 L 36.133,50.438 c 0.82,-0.59 1.922,-0.59 2.738,0 L 54.688,61.816 V 34.09 c 1.597,-0.293 3.121,-0.809 4.531,-1.512 z" style="fill:currentColor;fill-opacity:1;fill-rule:nonzero;stroke:none" transform="scale(1.3333333)" /> </g>
</svg>

