<?xml version="1.0" encoding="UTF-8" standalone="no"?> <svg version="1.1" id="Ie6c8a2b020564197b30be4562f60f32820251110135156" width="100" height="100" viewBox="0 0 100 100" xmlns="http://www.w3.org/2000/svg" xmlns:svg="http://www.w3.org/2000/svg"> <defs id="Ic1125cbf6fa8435c88cea438e6d2889a20251110135156" /> <g id="I1aa07e7f5e77452684701201405de7a920251110135156"> <path id="Ib848ea0615eb43929c96ea1dcfe655df20251110135156" d="M 25,26.562 C 25,17.07 32.695,9.375 42.188,9.375 h 20.453 c 1.648,0 2.984,1.051 2.984,2.344 0,1.187 -1.121,2.168 -2.578,2.324 l -0.406,0.019 h -1.703 v 52.211 c 0,1.368 -1.051,2.477 -2.344,2.477 -1.293,0 -2.344,-1.109 -2.344,-2.477 V 14.062 h -4.688 v 52.211 c 0,1.368 -1.05,2.477 -2.343,2.477 -1.293,0 -2.344,-1.109 -2.344,-2.477 V 43.75 H 42.188 C 32.695,43.75 25,36.055 25,26.562 Z m 21.875,-12.5 h -4.687 c -6.903,0 -12.5,5.598 -12.5,12.5 0,6.903 5.597,12.5 12.5,12.5 h 4.687 z M 12.75,46.43 C 11.949,47.059 10.789,47.023 10.027,46.305 9.191,45.516 9.152,44.195 9.945,43.359 L 15.297,37.5 9.945,31.641 9.75,31.402 c -0.582,-0.832 -0.484,-1.988 0.277,-2.707 0.84,-0.793 2.161,-0.754 2.95,0.082 l 6.707,7.289 0.203,0.254 c 0.547,0.797 0.48,1.887 -0.203,2.614 l -6.707,7.289 z" style="fill:currentColor;fill-opacity:1;fill-rule:nonzero;stroke:none" transform="scale(1.3333333)" /> </g>
</svg>

