<?xml version="1.0" encoding="UTF-8" standalone="no"?> <svg version="1.1" id="Id60c8733022944fab22b0c1a74cb898020251110130510" width="100" height="100" viewBox="0 0 100 100" xmlns="http://www.w3.org/2000/svg" xmlns:svg="http://www.w3.org/2000/svg"> <defs id="I9af9ee46c8f34a2d807271a3ec3f9ead20251110130510" /> <g id="Ia9d8dd4373f64e49b5b47ac5be6d7c8120251110130510"> <path id="I8744ee2660044728b86d1b11d918046720251110130510" d="m 18.75,59.375 c -1.727,0 -3.125,-1.398 -3.125,-3.125 V 9.375 c 0,-1.727 1.398,-3.125 3.125,-3.125 1.727,0 3.125,1.398 3.125,3.125 V 56.25 c 0,1.727 -1.398,3.125 -3.125,3.125 z m 37.5,-12.5 c -1.727,0 -3.125,-1.398 -3.125,-3.125 V 9.375 c 0,-1.727 1.398,-3.125 3.125,-3.125 1.727,0 3.125,1.398 3.125,3.125 V 43.75 c 0,1.727 -1.398,3.125 -3.125,3.125 z m -21.875,18.75 c 0,1.727 1.398,3.125 3.125,3.125 1.727,0 3.125,-1.398 3.125,-3.125 V 9.375 c 0,-1.727 -1.398,-3.125 -3.125,-3.125 -1.727,0 -3.125,1.398 -3.125,3.125 z" style="fill:currentColor;fill-opacity:1;fill-rule:nonzero;stroke:none" transform="scale(1.3333333)" /> </g>
</svg>

