<?xml version="1.0" encoding="UTF-8" standalone="no"?> <svg version="1.1" id="Idcf8b6d0cbce4583a4ccaf5f8691cdd020251106164749" width="100" height="100" viewBox="0 0 100 100" xmlns="http://www.w3.org/2000/svg" xmlns:svg="http://www.w3.org/2000/svg"> <defs id="If4c1672f6a5544b69d11a0bff75b430120251106164749" /> <g id="Id5ddb0e0d154424f950a128c82bd532120251106164749"> <path id="Iff2472d696f14efea8b377c1545f0c3f20251106164749" d="m 54.688,70.312 c 0,0.864 -0.7,1.563 -1.563,1.563 h -6.25 c -0.863,0 -1.563,-0.699 -1.563,-1.563 V 56.25 c 0,-2.59 2.098,-4.688 4.688,-4.688 2.59,0 4.688,2.098 4.688,4.688 z m 3.906,-53.124 c 5.609,0 10.156,4.546 10.156,10.156 v 28.125 c 0,5.347 -4.133,9.722 -9.375,10.121 V 56.25 C 59.375,51.07 55.18,46.875 50,46.875 V 43.75 h -7.031 c -1.293,0 -2.344,1.051 -2.344,2.344 0,1.293 1.051,2.344 2.344,2.344 h 1.851 c -2.527,1.679 -4.195,4.55 -4.195,7.812 v 9.375 H 16.406 C 10.797,65.625 6.25,61.078 6.25,55.469 V 29.688 h 19.152 c 1.864,0 3.653,-0.743 4.973,-2.059 L 40.812,17.188 Z M 50,43.75 h 7.031 c 1.293,0 2.344,-1.051 2.344,-2.344 0,-1.293 -1.051,-2.344 -2.344,-2.344 H 50 Z m -7.031,-9.375 c -1.293,0 -2.344,1.051 -2.344,2.344 0,1.293 1.051,2.343 2.344,2.343 H 50 v -4.687 z m 7.031,0 h 7.031 c 1.293,0 2.344,-1.051 2.344,-2.344 0,-1.293 -1.051,-2.343 -2.344,-2.343 H 50 Z M 42.969,25 c -1.293,0 -2.344,1.051 -2.344,2.344 0,1.293 1.051,2.344 2.344,2.344 l 7.031,0 V 25 Z M 25.402,9.375 c 1.864,0 3.653,0.742 4.973,2.059 l 4.781,4.785 -8.097,8.093 C 26.621,24.754 26.023,25 25.402,25 H 6.25 v -5.469 c 0,-5.609 4.547,-10.156 10.156,-10.156 z" style="fill:currentColor;fill-opacity:1;fill-rule:nonzero;stroke:none" transform="scale(1.3333333)" /> </g>
</svg>

