<?xml version="1.0" encoding="UTF-8" standalone="no"?> <svg version="1.1" id="I937863d3c9894a65a5ffb38139f475ba20251106164750" width="100" height="100" viewBox="0 0 100 100" xmlns="http://www.w3.org/2000/svg" xmlns:svg="http://www.w3.org/2000/svg"> <defs id="If5e615a5758c42fd84cc953c6f443d5220251106164750" /> <g id="I46cafbb37e624bf49e8647104570fbcf20251106164750"> <path id="I70a8f3a5820e4526bfd33b6f0f6b23af20251106164750" d="m 43.75,13.289 c 0,-1.727 1.398,-3.125 3.125,-3.125 1.727,0 3.125,1.398 3.125,3.125 v 21.082 c 0,0.863 0.699,1.563 1.562,1.563 0.864,0 1.563,-0.7 1.563,-1.563 V 18.746 c 0,-1.723 1.398,-3.125 3.125,-3.125 1.727,0 3.125,1.402 3.125,3.125 v 27.359 c 0,6.809 -3.652,14.09 -5.98,18.086 -1.739,2.981 -4.938,4.559 -8.196,4.559 h -6.777 c -3.848,0 -7.363,-2.172 -9.082,-5.613 L 28.922,62.301 C 27.605,59.672 25.969,57.219 24.043,54.996 L 17.129,47.023 10.281,41.695 C 9.707,41.25 9.375,40.57 9.375,39.848 c 0,-1.516 0.809,-2.641 1.848,-3.313 0.925,-0.597 2.031,-0.851 3.007,-0.969 1.989,-0.234 4.407,0.004 6.528,0.418 1.605,0.313 3.047,0.918 4.242,1.575 v -24.27 c 0,-1.727 1.398,-3.125 3.125,-3.125 1.727,0 3.125,1.398 3.125,3.125 v 19.527 c 0,0.864 0.699,1.563 1.562,1.563 0.864,0 1.563,-0.699 1.563,-1.563 V 9.375 c 0,-1.727 1.398,-3.125 3.125,-3.125 1.727,0 3.125,1.398 3.125,3.125 v 23.441 c 0,0.864 0.699,1.563 1.563,1.563 0.863,0 1.562,-0.699 1.562,-1.563 z" style="fill:currentColor;fill-opacity:1;fill-rule:nonzero;stroke:none" transform="scale(1.3333333)" /> </g>
</svg>

