<?xml version="1.0" encoding="UTF-8" standalone="no"?> <svg version="1.1" id="Id522c73071b64f5b9f769ed7ccb5c78620251106154012" width="100" height="100" viewBox="0 0 100 100" xmlns="http://www.w3.org/2000/svg" xmlns:svg="http://www.w3.org/2000/svg"> <defs id="I8d65b57f6bb6435c8b065a42690934a520251106154012" /> <g id="If46f85871840427e914498d8ed6c597320251106154012"> <path id="Ia2cedb3147c94f83a57c69d0d056b79a20251106154012" d="m 22.098,66.965 h 30.804 l 0.274,-0.02 c 0.98,-0.133 1.734,-0.972 1.734,-1.988 l -0.019,-0.273 c -0.133,-0.981 -0.973,-1.739 -1.989,-1.739 h -4.695 v -6.691 h 15.406 c 3.328,0 6.028,-2.695 6.028,-6.024 V 38.84 H 52.902 c -1.777,0 -3.398,-1.004 -4.191,-2.59 l -0.352,-0.699 -5.273,11.297 c -0.789,1.695 -2.512,2.757 -4.379,2.703 C 36.84,49.5 35.18,48.344 34.488,46.605 l -6.543,-16.347 -2.5,5.762 c -0.742,1.71 -2.433,2.82 -4.3,2.82 H 5.355 v 11.39 c 0,3.329 2.7,6.024 6.028,6.024 h 15.402 v 6.691 h -4.687 l -0.274,0.02 c -0.98,0.133 -1.734,0.973 -1.734,1.992 0,1.109 0.898,2.008 2.008,2.008 z m 8.707,-10.711 h 13.386 v 6.691 H 30.805 Z M 55.801,29.465 h 13.84 V 14.062 c 0,-3.328 -2.7,-6.027 -6.028,-6.027 h -52.23 c -3.328,0 -6.028,2.699 -6.028,6.027 V 29.465 H 18.07 l 5.754,-13.25 c 0.754,-1.735 2.477,-2.848 4.367,-2.82 1.895,0.027 3.582,1.191 4.286,2.945 l 6.695,16.734 4.793,-10.277 c 0.762,-1.633 2.387,-2.684 4.187,-2.707 1.797,-0.024 3.45,0.984 4.254,2.59 z M 29.992,17.336 c -0.304,-0.754 -1.027,-1.25 -1.84,-1.262 -0.808,-0.012 -1.547,0.465 -1.871,1.207 L 19.828,32.145 H 7.367 c -1.109,0 -2.012,0.898 -2.012,2.007 0,1.11 0.903,2.008 2.012,2.008 h 13.778 c 0.8,0 1.523,-0.472 1.843,-1.207 l 5.063,-11.652 8.922,22.312 c 0.3,0.742 1.007,1.239 1.808,1.262 0.801,0.023 1.539,-0.434 1.879,-1.16 l 7.617,-16.32 2.828,5.656 c 0.34,0.679 1.036,1.109 1.797,1.109 h 14.731 c 1.109,0 2.012,-0.898 2.012,-2.008 0,-1.109 -0.903,-2.007 -2.012,-2.007 H 54.145 l -4.133,-8.266 c -0.344,-0.688 -1.055,-1.121 -1.824,-1.109 -0.77,0.011 -1.469,0.46 -1.793,1.16 L 38.98,39.812 Z" style="fill:currentColor;fill-opacity:1;fill-rule:nonzero;stroke:none" transform="scale(1.3333333)" /> </g>
</svg>

