<?xml version="1.0" encoding="UTF-8" standalone="no"?> <svg version="1.1" id="Icce66f517361429bb52339b0535d70ff20251110123031" width="100" height="100" viewBox="0 0 100 100" xmlns="http://www.w3.org/2000/svg" xmlns:svg="http://www.w3.org/2000/svg"> <defs id="Iec70c1b726c240b8bc245455a81fdda920251110123031" /> <g id="If3386795c93641589993cc218478cc0a20251110123031"> <path id="I08305b6f4e4448a78666590a830d73dc20251110123031" d="m 49.219,6.25 c 3.883,0 7.031,3.148 7.031,7.031 v 48.438 c 0,3.883 -3.148,7.031 -7.031,7.031 H 25.781 c -3.883,0 -7.031,-3.148 -7.031,-7.031 V 13.281 c 0,-3.883 3.148,-7.031 7.031,-7.031 z m 0,4.688 H 25.781 c -1.293,0 -2.343,1.05 -2.343,2.343 v 48.438 c 0,1.293 1.05,2.343 2.343,2.343 h 23.438 c 1.293,0 2.343,-1.05 2.343,-2.343 V 13.281 c 0,-1.293 -1.05,-2.343 -2.343,-2.343 z m -3.047,31.14 c 0.84,0.82 0.93,2.121 0.258,3.047 l -0.227,0.266 -7.031,7.175 c -0.832,0.852 -2.156,0.93 -3.082,0.231 l -0.262,-0.231 -7.043,-7.175 c -0.906,-0.922 -0.89,-2.407 0.031,-3.313 0.84,-0.824 2.145,-0.887 3.055,-0.199 l 0.262,0.23 5.367,5.469 5.359,-5.469 c 0.903,-0.925 2.387,-0.937 3.313,-0.031 z m -7,-19.5 7.031,7.176 c 0.906,0.922 0.895,2.406 -0.031,3.312 -0.926,0.907 -2.41,0.891 -3.313,-0.031 L 37.5,27.566 32.133,33.035 c -0.906,0.922 -2.391,0.938 -3.317,0.031 -0.921,-0.906 -0.937,-2.39 -0.031,-3.316 l 7.043,-7.172 c 0.918,-0.937 2.426,-0.937 3.344,0 z" style="fill:currentColor;fill-opacity:1;fill-rule:nonzero;stroke:none" transform="scale(1.3333333)" /> </g>
</svg>

