<?xml version="1.0" encoding="UTF-8" standalone="no"?> <svg version="1.1" id="I6ede27bf82a54c6db445ceac3ed3a60120251110130508" width="100" height="100" viewBox="0 0 100 100" xmlns="http://www.w3.org/2000/svg" xmlns:svg="http://www.w3.org/2000/svg"> <defs id="Ieb74ab7014c8470abbbe7c87bd20359820251110130508" /> <g id="I00313904005d45018ee20d49797e647820251110130508"> <path id="I629379ca7d3b4515b2316d4d961c2aa720251110130508" d="M 6.25,22.656 C 6.25,17.047 10.797,12.5 16.406,12.5 h 42.188 c 5.609,0 10.156,4.547 10.156,10.156 V 52.344 C 68.75,57.953 64.203,62.5 58.594,62.5 H 16.406 C 10.797,62.5 6.25,57.953 6.25,52.344 Z m 10.156,-5.468 c -3.019,0 -5.468,2.449 -5.468,5.468 v 29.688 c 0,3.019 2.449,5.468 5.468,5.468 h 42.188 c 3.019,0 5.468,-2.449 5.468,-5.468 V 22.656 c 0,-3.019 -2.449,-5.468 -5.468,-5.468 z m -0.781,24.218 c 0,-1.293 1.051,-2.344 2.344,-2.344 h 23.437 c 1.293,0 2.344,1.051 2.344,2.344 0,1.293 -1.051,2.344 -2.344,2.344 H 17.969 c -1.293,0 -2.344,-1.051 -2.344,-2.344 z m 33.594,-2.344 c -1.293,0 -2.344,1.051 -2.344,2.344 0,1.293 1.051,2.344 2.344,2.344 h 7.812 c 1.293,0 2.344,-1.051 2.344,-2.344 0,-1.293 -1.051,-2.344 -2.344,-2.344 z M 15.625,50.781 c 0,-1.293 1.051,-2.343 2.344,-2.343 h 10.937 c 1.293,0 2.344,1.05 2.344,2.343 0,1.293 -1.051,2.344 -2.344,2.344 H 17.969 c -1.293,0 -2.344,-1.051 -2.344,-2.344 z m 21.094,-2.343 c -1.293,0 -2.344,1.05 -2.344,2.343 0,1.293 1.051,2.344 2.344,2.344 h 20.312 c 1.293,0 2.344,-1.051 2.344,-2.344 0,-1.293 -1.051,-2.343 -2.344,-2.343 z" style="fill:currentColor;fill-opacity:1;fill-rule:nonzero;stroke:none" transform="scale(1.3333333)" /> </g>
</svg>

