<?xml version="1.0" encoding="UTF-8" standalone="no"?> <svg version="1.1" id="I45c0b2c8197b49fabf37a02517bde66e20251110124422" width="100" height="100" viewBox="0 0 100 100" xmlns="http://www.w3.org/2000/svg" xmlns:svg="http://www.w3.org/2000/svg"> <defs id="Ifdda21a6b300451699844781f227c19420251110124422" /> <g id="If1d61d4b7f2d405385925b28db40e3e920251110124422"> <path id="I1ef5d89af2c24103ad1eb25b3b4c4f6b20251110124422" d="m 20.312,27.344 c 0,-0.43 0.352,-0.782 0.782,-0.782 h 32.812 c 0.43,0 0.782,0.352 0.782,0.782 v 5.468 H 20.312 Z m 0,10.156 v 10.156 c 0,0.43 0.352,0.782 0.782,0.782 h 7.031 V 37.5 Z M 53.906,48.438 H 32.812 V 37.5 h 21.876 v 10.156 c 0,0.43 -0.352,0.782 -0.782,0.782 z M 6.25,21.094 c 0,-4.746 3.848,-8.594 8.594,-8.594 h 45.312 c 4.746,0 8.594,3.848 8.594,8.594 v 32.812 c 0,4.746 -3.848,8.594 -8.594,8.594 H 14.844 C 10.098,62.5 6.25,58.652 6.25,53.906 Z m 14.844,0.781 c -3.02,0 -5.469,2.449 -5.469,5.469 v 20.312 c 0,3.02 2.449,5.469 5.469,5.469 h 32.812 c 3.02,0 5.469,-2.449 5.469,-5.469 V 27.344 c 0,-3.02 -2.449,-5.469 -5.469,-5.469 z" style="fill:currentColor;fill-opacity:1;fill-rule:nonzero;stroke:none" transform="scale(1.3333333)" /> </g>
</svg>

