<?xml version="1.0" encoding="UTF-8" standalone="no"?> <svg version="1.1" id="I1cb33b9ec1c34dacbdd22058bfd2adb620251110135155" width="100" height="100" viewBox="0 0 100 100" xmlns="http://www.w3.org/2000/svg" xmlns:svg="http://www.w3.org/2000/svg"> <defs id="I62058e0ea45f441ea6d3e1e6c4ae2d0b20251110135155" /> <g id="I6637465d88a4464f86bad3ac8251a3a820251110135155"> <path id="I0a57338d7e844714a217fd5481709ea820251110135155" d="M 65.461,40.531 53.73,10.855 C 52.996,8.996 50.473,8.887 49.527,10.531 l -0.156,0.328 -11.707,29.688 c -0.476,1.207 0.113,2.566 1.32,3.043 1.102,0.433 2.34,-0.028 2.903,-1.035 l 0.136,-0.289 3.114,-7.891 h 12.851 l 3.114,7.879 c 0.437,1.101 1.617,1.691 2.738,1.414 l 0.301,-0.098 c 1.105,-0.437 1.691,-1.617 1.418,-2.738 z M 51.555,18.102 56.137,29.688 H 46.988 Z M 37.5,24.219 c 0,1.293 -1.051,2.343 -2.344,2.343 H 17.379 l 2.246,2.25 c 0.918,0.915 0.918,2.399 0,3.313 -0.914,0.918 -2.398,0.918 -3.313,0 l -6.25,-6.25 c -0.917,-0.914 -0.917,-2.398 0,-3.313 l 6.25,-6.25 c 0.915,-0.917 2.399,-0.917 3.313,0 0.918,0.915 0.918,2.399 0,3.313 l -2.246,2.25 h 17.777 c 1.293,0 2.344,1.051 2.344,2.344 z m 28.125,29.687 c 0,1.293 -1.051,2.344 -2.344,2.344 H 17.379 l 2.246,2.25 c 0.918,0.914 0.918,2.398 0,3.312 -0.914,0.918 -2.398,0.918 -3.313,0 l -6.25,-6.25 c -0.917,-0.914 -0.917,-2.398 0,-3.312 L 16.312,46 c 0.915,-0.918 2.399,-0.918 3.313,0 0.918,0.914 0.918,2.398 0,3.312 l -2.246,2.25 h 45.902 c 1.293,0 2.344,1.051 2.344,2.344 z" style="fill:currentColor;fill-opacity:1;fill-rule:nonzero;stroke:none" transform="scale(1.3333333)" /> </g>
</svg>

