<?xml version="1.0" encoding="UTF-8" standalone="no"?> <svg version="1.1" id="I7723c567082a4fac9ac73100f36857cb20251106170411" width="100" height="100" viewBox="0 0 100 100" xmlns="http://www.w3.org/2000/svg" xmlns:svg="http://www.w3.org/2000/svg"> <defs id="Ib9ae9d1448a64e6a98814c659f34e5c420251106170411" /> <g id="I289a9dfbbe8b427a88610634cbb9a20720251106170411"> <path id="I03d4ccb908cc4d2e8a6f544b7318061e20251106170411" d="m 41.629,8.137 c -2.18,-2.516 -6.082,-2.516 -8.262,0 L 7.602,37.836 c -3.075,3.539 -0.559,9.051 4.128,9.051 h 10.145 v 7.019 c 0,3.02 2.449,5.469 5.469,5.469 h 20.312 c 3.02,0 5.469,-2.449 5.469,-5.469 v -7.019 h 10.141 c 4.687,0 7.203,-5.512 4.129,-9.051 z m -4.723,3.07 c 0.313,-0.359 0.871,-0.359 1.18,0 l 25.769,29.699 c 0.438,0.504 0.079,1.293 -0.589,1.293 H 50.781 c -1.293,0 -2.343,1.051 -2.343,2.344 v 9.363 c 0,0.43 -0.352,0.782 -0.782,0.782 H 27.344 c -0.434,0 -0.782,-0.352 -0.782,-0.782 v -9.363 c 0,-1.293 -1.05,-2.344 -2.343,-2.344 H 11.73 c -0.668,0 -1.027,-0.789 -0.589,-1.293 z M 24.219,64.062 c -1.293,0 -2.344,1.051 -2.344,2.344 0,1.293 1.051,2.344 2.344,2.344 h 26.562 c 1.293,0 2.344,-1.051 2.344,-2.344 0,-1.293 -1.051,-2.344 -2.344,-2.344 z" style="fill:currentColor;fill-opacity:1;fill-rule:nonzero;stroke:none" transform="scale(1.3333333)" /> </g>
</svg>

