<?xml version="1.0" encoding="UTF-8" standalone="no"?> <svg version="1.1" id="Ic1f16e742a0a43338d6f6f96050718a820251106164749" width="100" height="100" viewBox="0 0 100 100" xmlns="http://www.w3.org/2000/svg" xmlns:svg="http://www.w3.org/2000/svg"> <defs id="I485d4da89c6e4c47967c92c65510f73720251106164749" /> <g id="Id41e2f35bd4d464f897d74be1199c2eb20251106164749"> <path id="I9d9d79a2ba3449fb8fd335f7210c43d920251106164749" d="m 8.035,15.402 c 0,-4.07 3.297,-7.367 7.367,-7.367 h 9.375 c 1.11,0 2.008,0.899 2.008,2.008 0,1.109 -0.898,2.012 -2.008,2.012 h -9.375 c -1.851,0 -3.347,1.496 -3.347,3.347 v 9.375 c 0,1.11 -0.903,2.008 -2.012,2.008 -1.109,0 -2.008,-0.898 -2.008,-2.008 z m 40.18,-5.359 c 0,-1.109 0.898,-2.008 2.008,-2.008 h 9.375 c 4.07,0 7.367,3.297 7.367,7.367 v 9.375 c 0,1.11 -0.899,2.008 -2.008,2.008 -1.109,0 -2.012,-0.898 -2.012,-2.008 v -9.375 c 0,-1.851 -1.496,-3.347 -3.347,-3.347 h -9.375 c -1.11,0 -2.008,-0.903 -2.008,-2.012 z M 10.043,48.215 c 1.109,0 2.012,0.898 2.012,2.008 v 9.375 c 0,1.851 1.496,3.347 3.347,3.347 h 9.375 c 1.11,0 2.008,0.903 2.008,2.012 0,1.109 -0.898,2.008 -2.008,2.008 h -9.375 c -4.07,0 -7.367,-3.297 -7.367,-7.367 v -9.375 c 0,-1.11 0.899,-2.008 2.008,-2.008 z m 54.914,0 c 1.109,0 2.008,0.898 2.008,2.008 v 9.375 c 0,4.07 -3.297,7.367 -7.367,7.367 h -9.375 c -1.11,0 -2.008,-0.899 -2.008,-2.008 0,-1.109 0.898,-2.012 2.008,-2.012 h 9.375 c 1.851,0 3.347,-1.496 3.347,-3.347 v -9.375 c 0,-1.11 0.903,-2.008 2.012,-2.008 z" style="fill:currentColor;fill-opacity:1;fill-rule:nonzero;stroke:none" transform="scale(1.3333333)" /> </g>
</svg>

