<?xml version="1.0" encoding="UTF-8" standalone="no"?> <svg version="1.1" id="Ibfb5e24b8c5648a39da1ac1cc709f2d920251106164750" width="100" height="100" viewBox="0 0 100 100" xmlns="http://www.w3.org/2000/svg" xmlns:svg="http://www.w3.org/2000/svg"> <defs id="I27ea025954164aa2b79a97ca8aec21b920251106164750" /> <g id="Iea9b5b25c3ba4d9c956cbbe857217f8320251106164750"> <path id="Iebfc8d629a4c46a0b6ed828d7a067e2620251106164750" d="M 15.625,18.941 6.938,10.25 C 6.02,9.336 6.02,7.852 6.938,6.938 7.852,6.02 9.336,6.02 10.25,6.938 L 68.062,64.75 c 0.915,0.914 0.915,2.398 0,3.312 -0.914,0.918 -2.398,0.918 -3.312,0 L 51.293,54.609 50.957,54.996 c -1.926,2.223 -3.562,4.68 -4.879,7.309 l -0.418,0.832 c -1.719,3.441 -5.234,5.617 -9.082,5.617 h -6.777 c -3.258,0 -6.457,-1.574 -8.196,-4.559 -2.328,-4 -5.98,-11.281 -5.98,-18.09 z M 25,28.316 21.875,25.191 v 9.18 c 0,0.859 0.699,1.563 1.563,1.563 0.863,0 1.562,-0.704 1.562,-1.563 z M 31.25,21.305 25,15.055 v -1.774 c 0,-1.726 1.398,-3.125 3.125,-3.125 1.727,0 3.125,1.399 3.125,3.125 z m 9.375,9.379 -6.25,-6.25 V 9.363 c 0,-1.722 1.398,-3.125 3.125,-3.125 1.727,0 3.125,1.403 3.125,3.125 z m 16.824,16.824 -13.91,-13.91 c 0.133,-0.231 0.211,-0.5 0.211,-0.786 V 13.281 c 0,-1.726 1.398,-3.125 3.125,-3.125 1.727,0 3.125,1.399 3.125,3.125 v 24.278 c 1.195,-0.661 2.637,-1.266 4.242,-1.579 2.121,-0.414 4.539,-0.652 6.528,-0.418 0.976,0.118 2.082,0.372 3.007,0.969 1.039,0.672 1.848,1.797 1.848,3.313 0,0.722 -0.336,1.406 -0.906,1.851 l -6.848,5.325 z" style="fill:currentColor;fill-opacity:1;fill-rule:nonzero;stroke:none" transform="scale(1.3333333)" /> </g>
</svg>

