<?xml version="1.0" encoding="UTF-8" standalone="no"?> <svg version="1.1" id="Ia16cda64394d4a45a29d1c5c32d0975c20251106165302" width="100" height="100" viewBox="0 0 100 100" xmlns="http://www.w3.org/2000/svg" xmlns:svg="http://www.w3.org/2000/svg"> <defs id="I317fbdc432b849448d2240b3da4bc49a20251106165302" /> <g id="I8601b463de1c4b4093a6429d8aa14e4820251106165302"> <path id="I0dbd136dcb8f41bc9ee6c97b847d05d520251106165302" d="m 22.5,11.25 c -2.07,0 -3.75,1.68 -3.75,3.75 v 7.5 c 0,2.07 1.68,3.75 3.75,3.75 h 30 c 2.07,0 3.75,-1.68 3.75,-3.75 V 15 c 0,-2.07 -1.68,-3.75 -3.75,-3.75 z M 15,15 c 0,-4.141 3.359,-7.5 7.5,-7.5 h 30 c 4.141,0 7.5,3.359 7.5,7.5 v 7.5 c 0,4.141 -3.359,7.5 -7.5,7.5 h -30 C 18.359,30 15,26.641 15,22.5 Z m 7.5,48.75 c -2.07,0 -3.75,-1.68 -3.75,-3.75 v -7.5 c 0,-2.07 1.68,-3.75 3.75,-3.75 h 30 c 2.07,0 3.75,1.68 3.75,3.75 V 60 c 0,2.07 -1.68,3.75 -3.75,3.75 z M 15,60 c 0,4.141 3.359,7.5 7.5,7.5 h 30 C 56.641,67.5 60,64.141 60,60 V 52.5 C 60,48.359 56.641,45 52.5,45 h -30 C 18.359,45 15,48.359 15,52.5 Z M 7.5,37.5 c 0,-1.035 0.84,-1.875 1.875,-1.875 h 56.25 c 1.035,0 1.875,0.84 1.875,1.875 0,1.035 -0.84,1.875 -1.875,1.875 H 9.375 C 8.34,39.375 7.5,38.535 7.5,37.5 Z" style="fill:currentColor;fill-opacity:1;fill-rule:nonzero;stroke:none" transform="scale(1.3333333)" /> </g>
</svg>

