<?xml version="1.0" encoding="UTF-8" standalone="no"?> <svg version="1.1" id="Ia1285e027d694c1b8e78b8376f44642e20251106171633" width="100" height="100" viewBox="0 0 100 100" xmlns="http://www.w3.org/2000/svg" xmlns:svg="http://www.w3.org/2000/svg"> <defs id="I0d8b12bc73b54a5bb1cd6116528a5d2a20251106171633" /> <g id="If3d237460b764bb89d9b7594d33a5e8620251106171633"> <path id="I93a3c869a5954a6ab132e65b8cc926f920251106171633" d="M 11.25,33.816 V 52.5 l 0.02,0.66 c 0.339,5.906 5.238,10.59 11.23,10.59 h 15 v -15 l 0.02,-0.66 c 0.328,-5.688 4.882,-10.242 10.57,-10.57 l 0.66,-0.02 h 15 v -15 L 63.73,21.84 C 63.391,15.934 58.492,11.25 52.5,11.25 H 35.484 c 3.555,4.18 2.27,10.707 -2.777,13.164 l -7.09,3.453 -1.66,4.801 c -1.645,4.758 -7.703,6.152 -11.262,2.594 z m 50.781,9.883 c 0.602,-0.726 1.055,-1.558 1.348,-2.445 L 48.75,41.25 48.164,41.273 c -3.684,0.286 -6.621,3.231 -6.894,6.918 l -0.02,0.559 0.004,14.629 c 1.109,-0.363 2.129,-0.984 2.969,-1.824 L 61.555,44.223 Z M 32.02,12.703 24.793,5.477 C 22.059,2.742 17.449,3.516 15.758,6.988 l -3.008,6.176 c -0.438,0.895 -1.207,1.578 -2.148,1.902 l -4.133,1.43 c -2.617,0.902 -3.383,4.238 -1.426,6.195 l 3.555,3.555 -4.848,4.848 v 2.648 h 2.652 l 4.848,-4.844 3.551,3.551 c 1.961,1.961 5.293,1.192 6.199,-1.426 l 1.426,-4.132 c 0.324,-0.938 1.008,-1.711 1.902,-2.145 l 6.176,-3.012 c 3.473,-1.691 4.246,-6.3 1.516,-9.031 z" style="fill:currentColor;fill-opacity:1;fill-rule:nonzero;stroke:none" transform="scale(1.3333333)" /> </g>
</svg>

