<?xml version="1.0" encoding="UTF-8" standalone="no"?> <svg version="1.1" id="I0a6cfd97699e45e781ea4e5977ad372420251110124420" width="100" height="100" viewBox="0 0 100 100" xmlns="http://www.w3.org/2000/svg" xmlns:svg="http://www.w3.org/2000/svg"> <defs id="I1ec877c172a24871b956f2cf7dcb8e8120251110124420" /> <g id="I7c15456cd8c346e39ca05849857e079520251110124420"> <path id="I1a100f4e534248cc9ab456329420bfd020251110124420" d="m 15.402,10.715 c -2.59,0 -4.687,2.097 -4.687,4.687 v 8.703 c 0,1.481 -1.199,2.68 -2.68,2.68 -1.48,0 -2.68,-1.199 -2.68,-2.68 v -8.703 c 0,-5.547 4.5,-10.047 10.047,-10.047 h 8.703 c 1.481,0 2.68,1.2 2.68,2.68 0,1.481 -1.199,2.68 -2.68,2.68 z m 0,53.57 c -2.59,0 -4.687,-2.097 -4.687,-4.687 v -8.703 c 0,-1.481 -1.199,-2.68 -2.68,-2.68 -1.48,0 -2.68,1.199 -2.68,2.68 v 8.703 c 0,5.547 4.5,10.047 10.047,10.047 h 8.703 c 1.481,0 2.68,-1.2 2.68,-2.68 0,-1.481 -1.199,-2.68 -2.68,-2.68 z M 64.285,15.402 c 0,-2.59 -2.097,-4.687 -4.687,-4.687 h -8.703 c -1.481,0 -2.68,-1.199 -2.68,-2.68 0,-1.48 1.199,-2.68 2.68,-2.68 h 8.703 c 5.547,0 10.047,4.5 10.047,10.047 v 8.703 c 0,1.481 -1.2,2.68 -2.68,2.68 -1.481,0 -2.68,-1.199 -2.68,-2.68 z m -4.687,48.883 c 2.59,0 4.687,-2.097 4.687,-4.687 v -8.703 c 0,-1.481 1.199,-2.68 2.68,-2.68 1.48,0 2.68,1.199 2.68,2.68 v 8.703 c 0,5.547 -4.5,10.047 -10.047,10.047 h -8.703 c -1.481,0 -2.68,-1.2 -2.68,-2.68 0,-1.481 1.199,-2.68 2.68,-2.68 z M 43.75,37.742 c 0,3.496 -2.797,6.332 -6.25,6.332 -3.453,0 -6.25,-2.836 -6.25,-6.332 0,-3.496 2.797,-6.328 6.25,-6.328 3.453,0 6.25,2.832 6.25,6.328 z M 28.988,21.375 c 0.793,-1.609 2.418,-2.625 4.192,-2.625 h 8.64 c 1.774,0 3.399,1.016 4.192,2.625 l 1.828,3.707 H 50 c 3.453,0 6.25,2.832 6.25,6.332 v 15.828 c 0,3.496 -2.797,6.328 -6.25,6.328 H 25 c -3.453,0 -6.25,-2.832 -6.25,-6.328 V 31.414 c 0,-3.5 2.797,-6.332 6.25,-6.332 h 2.16 z m 17.887,16.367 c 0,-5.242 -4.199,-9.496 -9.375,-9.496 -5.176,0 -9.375,4.254 -9.375,9.496 0,5.246 4.199,9.5 9.375,9.5 5.176,0 9.375,-4.254 9.375,-9.5 z" style="fill:currentColor;fill-opacity:1;fill-rule:nonzero;stroke:none" transform="scale(1.3333333)" /> </g>
</svg>

