<?xml version="1.0" encoding="UTF-8" standalone="no"?> <svg version="1.1" id="I717884f0d56a49768fb79dc37f24df8520251110123031" width="100" height="100" viewBox="0 0 100 100" xmlns="http://www.w3.org/2000/svg" xmlns:svg="http://www.w3.org/2000/svg"> <defs id="I57884efc113d436d91e098b7d685384520251110123031" /> <g id="Ie425487f0917469396187568ab1fc0ce20251110123031"> <path id="I0f240a8bb0254e0690d82a22d265c90020251110123031" d="m 9.375,19.531 v 35.938 c 0,5.609 4.547,10.156 10.156,10.156 H 37.566 C 35.773,62.82 34.648,59.547 34.418,56.031 26.48,54.863 21.875,49.234 21.875,43.75 v -1.562 c 0,-2.59 2.098,-4.688 4.687,-4.688 h 17.293 c 3.137,-1.98 6.852,-3.125 10.833,-3.125 4.027,0 7.781,1.172 10.937,3.191 V 19.531 C 65.625,13.922 61.078,9.375 55.469,9.375 H 19.531 c -5.609,0 -10.156,4.547 -10.156,10.156 z M 37.5,17.188 c 4.746,0 8.594,3.847 8.594,8.593 0,4.746 -3.848,8.594 -8.594,8.594 -4.746,0 -8.594,-3.848 -8.594,-8.594 0,-4.746 3.848,-8.593 8.594,-8.593 z m 34.375,37.5 c 0,9.492 -7.695,17.187 -17.187,17.187 C 45.195,71.875 37.5,64.18 37.5,54.688 37.5,45.195 45.195,37.5 54.688,37.5 c 9.492,0 17.187,7.695 17.187,17.188 z m -6.707,-7.356 c -0.609,-0.609 -1.602,-0.609 -2.211,0 L 51.562,58.727 46.418,53.582 c -0.609,-0.609 -1.602,-0.609 -2.211,0 -0.609,0.609 -0.609,1.602 0,2.211 l 6.25,6.25 c 0.609,0.609 1.602,0.609 2.211,0 l 12.5,-12.5 c 0.609,-0.609 0.609,-1.602 0,-2.211 z" style="fill:currentColor;fill-opacity:1;fill-rule:nonzero;stroke:none" transform="scale(1.3333333)" /> </g>
</svg>

