<?xml version="1.0" encoding="UTF-8" standalone="no"?> <svg version="1.1" id="Ib7241b2b5c0840be8c924c201b3a1c4d20251106151527" width="100" height="100" viewBox="0 0 100 100" xmlns="http://www.w3.org/2000/svg" xmlns:svg="http://www.w3.org/2000/svg"> <defs id="I761c2f66b6d24637a71a93d57e936e4e20251106151527" /> <g id="Id1ddebdd375a43feafc808c56fd9073e20251106151527"> <path id="I2dedcb7728e34c909e1906e3106e91c920251106151527" d="m 37.777,48.996 c 0.196,0.652 0.457,1.52 0.676,2.098 l 0.004,-0.004 c 0.375,0.285 0.691,0.637 0.934,1.051 0.312,0.523 0.476,1.136 0.476,1.765 0,0.938 -0.371,1.821 -1.031,2.485 -0.66,0.664 -1.547,1.031 -2.484,1.031 -3.422,0 -4.403,-3.285 -5.344,-6.465 -1.942,-6.445 -3.727,-9.941 -7.567,-9.941 h -3.515 v 12.89 c 0,0.938 -0.364,1.821 -1.031,2.485 -1.333,1.328 -3.645,1.328 -4.973,0 -0.664,-0.661 -1.031,-1.547 -1.031,-2.485 V 21.094 c 0,-0.938 0.371,-1.821 1.031,-2.485 0.66,-0.664 1.547,-1.031 2.484,-1.031 h 10.547 c 3.137,0.004 6.078,1.219 8.289,3.43 2.207,2.211 3.43,5.152 3.43,8.289 -0.004,2.211 -0.633,4.363 -1.82,6.23 -0.926,1.461 -2.157,2.696 -3.61,3.614 2.129,2.957 3.649,6.257 4.531,9.836 z M 30.262,32.609 c 0.879,-0.871 1.379,-2.074 1.379,-3.312 -0.004,-1.227 -0.5,-2.434 -1.379,-3.305 -0.871,-0.875 -2.074,-1.379 -3.313,-1.379 h -7.027 v 9.375 h 7.031 c 1.235,-0.004 2.438,-0.5 3.309,-1.379 z m 33.726,4.305 c 1.074,0.945 1.973,2.086 2.641,3.356 h 0.004 c 0.875,1.668 1.34,3.554 1.34,5.437 -0.004,3.133 -1.219,6.07 -3.43,8.289 -2.219,2.207 -5.156,3.43 -8.289,3.43 H 44.535 c -0.937,0 -1.816,-0.371 -2.484,-1.031 C 41.387,55.734 41.02,54.848 41.02,53.91 V 21.098 c 0,-0.938 0.371,-1.817 1.031,-2.485 0.66,-0.664 1.547,-1.031 2.484,-1.031 h 10.547 c 3.137,0.004 6.082,1.219 8.289,3.434 2.207,2.214 3.43,5.156 3.43,8.285 0,1.629 -0.328,3.207 -0.973,4.687 -0.469,1.071 -1.086,2.051 -1.84,2.926 z M 48.047,24.613 v 9.375 h 7.031 c 1.234,-0.004 2.438,-0.5 3.309,-1.379 0.871,-0.867 1.379,-2.07 1.379,-3.308 -0.004,-1.239 -0.508,-2.438 -1.379,-3.309 -0.871,-0.875 -2.075,-1.379 -3.313,-1.379 z m 11.512,24.403 c 0.879,-0.871 1.379,-2.075 1.379,-3.313 -0.004,-1.226 -0.5,-2.433 -1.379,-3.305 -0.871,-0.875 -2.075,-1.378 -3.313,-1.378 h -8.199 v 9.375 h 8.199 c 1.238,-0.004 2.442,-0.5 3.313,-1.379 z" style="fill:currentColor;fill-opacity:1;fill-rule:nonzero;stroke:none" transform="scale(1.3333333)" /> </g>
</svg>

