<?xml version="1.0" encoding="UTF-8" standalone="no"?> <svg version="1.1" id="I2f80d0823e0e4148b72e7a5cfdf86d6220251110124420" width="100" height="100" viewBox="0 0 100 100" xmlns="http://www.w3.org/2000/svg" xmlns:svg="http://www.w3.org/2000/svg"> <defs id="I06f0ddb781a54f6289ec2440be43cc6820251110124420" /> <g id="I40beecda125042799b1aadb83407ec2120251110124420"> <path id="If45a417adec44a52bd189069a267b9f620251110124420" d="m 42.617,12.367 c -2.238,-4.004 -7.996,-4.004 -10.23,0 l -6.789,12.153 -4.196,-2.098 6.891,-12.34 c 4.023,-7.207 14.391,-7.203 18.414,0 l 6.422,11.496 0.848,-3.394 c 0.312,-1.258 1.585,-2.02 2.843,-1.707 1.254,0.312 2.016,1.585 1.703,2.839 l -2.343,9.379 c -0.149,0.602 -0.535,1.121 -1.067,1.442 -0.535,0.32 -1.172,0.414 -1.777,0.265 l -9.375,-2.347 c -1.254,-0.313 -2.02,-1.586 -1.703,-2.844 0.312,-1.254 1.586,-2.016 2.844,-1.703 l 4.343,1.086 z m 12.668,22.688 4.195,-2.102 9.485,16.981 c 3.926,7.031 -1.156,15.691 -9.207,15.691 H 43.156 l 3.032,3.031 c 0.917,0.914 0.917,2.399 0,3.313 -0.915,0.918 -2.399,0.918 -3.313,0 l -7.031,-7.028 c -0.442,-0.441 -0.688,-1.035 -0.688,-1.656 0,-0.625 0.246,-1.219 0.688,-1.66 l 7.031,-7.031 c 0.914,-0.918 2.398,-0.918 3.313,0 0.917,0.914 0.917,2.398 0,3.312 l -3.028,3.032 h 16.598 c 4.472,0 7.297,-4.813 5.113,-8.719 z M 30.469,60.938 H 15.242 c -4.476,0 -7.297,-4.813 -5.117,-8.719 l 9.066,-16.231 2.098,4.793 c 0.52,1.188 1.902,1.731 3.086,1.211 1.187,-0.519 1.73,-1.902 1.211,-3.086 L 21.484,29.531 C 21.031,28.492 19.902,27.93 18.801,28.188 L 8.84,30.531 c -1.262,0.297 -2.043,1.559 -1.746,2.817 0.297,1.261 1.558,2.043 2.816,1.746 l 5.078,-1.196 -8.957,16.036 c -3.926,7.031 1.157,15.691 9.211,15.691 h 15.227 z" style="fill:currentColor;fill-opacity:1;fill-rule:nonzero;stroke:none" transform="scale(1.3333333)" /> </g>
</svg>

