<?xml version="1.0" encoding="UTF-8" standalone="no"?> <svg version="1.1" id="Ib758ef34622b415495710567e3b31ec920251106170956" width="100" height="100" viewBox="0 0 100 100" xmlns="http://www.w3.org/2000/svg" xmlns:svg="http://www.w3.org/2000/svg"> <defs id="I1358938559534b8fbd527812850ff8d120251106170956" /> <g id="I8f734d4ba6614aaabdb9a45cd151760d20251106170956"> <path id="If4cc82ac66ce468187365403071642ae20251106170956" d="m 8.035,16.742 c 0,-4.808 3.899,-8.707 8.707,-8.707 h 41.516 c 4.808,0 8.707,3.899 8.707,8.707 v 41.516 c 0,4.808 -3.899,8.707 -8.707,8.707 H 16.742 c -4.808,0 -8.707,-3.899 -8.707,-8.707 z m 8.707,-4.687 c -2.59,0 -4.687,2.097 -4.687,4.687 v 41.516 c 0,2.59 2.097,4.687 4.687,4.687 h 41.516 c 2.59,0 4.687,-2.097 4.687,-4.687 V 16.742 c 0,-2.59 -2.097,-4.687 -4.687,-4.687 z" style="fill:currentColor;fill-opacity:1;fill-rule:nonzero;stroke:none" transform="scale(1.3333333)" /> </g>
</svg>

