<?xml version="1.0" encoding="UTF-8" standalone="no"?> <svg version="1.1" id="I8995869c7bcd43ecab3370b502a9b43e20251106103256" width="100" height="100" viewBox="0 0 100 100" xmlns="http://www.w3.org/2000/svg" xmlns:svg="http://www.w3.org/2000/svg"> <defs id="I03652a52ab194e368f68a42c1bc74e6e20251106103256" /> <g id="I6b21892d53364b2bb0a8bb69a3a18a8b20251106103256"> <path id="I0707da0815224c278b5140b756fea11420251106103256" d="M 72.32,13.395 H 58.93 V 8.707 c 0,-0.371 -0.301,-0.672 -0.672,-0.672 H 53.57 c -0.367,0 -0.668,0.301 -0.668,0.672 v 4.688 H 40.512 V 8.707 c 0,-0.371 -0.301,-0.672 -0.668,-0.672 h -4.688 c -0.367,0 -0.668,0.301 -0.668,0.672 v 4.688 H 22.098 V 8.707 c 0,-0.371 -0.301,-0.672 -0.668,-0.672 h -4.688 c -0.371,0 -0.672,0.301 -0.672,0.672 v 4.688 H 2.68 C 1.195,13.395 0,14.59 0,16.07 v 48.215 c 0,1.481 1.195,2.68 2.68,2.68 h 69.64 c 1.485,0 2.68,-1.199 2.68,-2.68 L 75,16.07 c 0,-1.48 -1.195,-2.675 -2.68,-2.675 z M 68.973,60.938 H 6.027 V 19.418 H 16.07 v 4.687 c 0,0.372 0.301,0.672 0.672,0.672 h 4.688 c 0.367,0 0.668,-0.3 0.668,-0.672 v -4.687 h 12.39 v 4.687 c 0,0.372 0.301,0.672 0.668,0.672 h 4.688 c 0.367,0 0.668,-0.3 0.668,-0.672 v -4.687 h 12.39 v 4.687 c 0,0.372 0.301,0.672 0.668,0.672 h 4.688 c 0.371,0 0.672,-0.3 0.672,-0.672 V 19.418 H 68.973 Z M 29.465,36.16 H 14.062 c -0.367,0 -0.667,0.301 -0.667,0.672 v 4.016 c 0,0.367 0.3,0.672 0.667,0.672 h 15.403 c 0.367,0 0.668,-0.305 0.668,-0.672 v -4.016 c 0,-0.371 -0.301,-0.672 -0.668,-0.672 z m 0,11.383 H 14.062 c -0.367,0 -0.667,0.305 -0.667,0.672 v 4.015 c 0,0.372 0.3,0.672 0.667,0.672 h 15.403 c 0.367,0 0.668,-0.3 0.668,-0.672 v -4.015 c 0,-0.367 -0.301,-0.672 -0.668,-0.672 z M 55.262,32.695 46.59,44.723 42.172,38.605 C 41.918,38.254 41.52,38.051 41.09,38.051 h -4.594 c -0.543,0 -0.863,0.621 -0.543,1.066 l 9.551,13.242 c 0.531,0.735 1.625,0.735 2.156,0 L 61.473,33.215 c 0.32,-0.445 0,-1.063 -0.543,-1.063 h -4.598 c -0.418,-0.007 -0.82,0.2 -1.07,0.543 z" style="fill:currentColor;fill-opacity:1;fill-rule:nonzero;stroke:none" transform="scale(1.3333333)" /> </g>
</svg>

