<?xml version="1.0" encoding="UTF-8" standalone="no"?> <svg version="1.1" id="Ifd66f49ce7b543aebb90ba140b936ea220251110123029" width="100" height="100" viewBox="0 0 100 100" xmlns="http://www.w3.org/2000/svg" xmlns:svg="http://www.w3.org/2000/svg"> <defs id="Iaa451338b8ed46008f46fcb6dfa0a76e20251110123029" /> <g id="Ie0e18811342a431fb7e6ffb9a1f8e1b320251110123029"> <path id="I84028a5633f5453ebdad1272e53d4c8720251110123029" d="m 5.367,20.758 c 0,-5.547 4.496,-10.043 10.047,-10.043 h 44.184 c 5.55,0 10.047,4.496 10.047,10.043 v 20.496 c -1.188,-1.277 -2.536,-2.402 -4.02,-3.34 V 20.758 c 0,-3.328 -2.695,-6.028 -6.027,-6.028 H 28.125 V 57.59 H 35 c 0.184,1.39 0.512,2.734 0.965,4.015 H 15.414 C 9.863,61.605 5.367,57.109 5.367,51.562 Z M 72.32,54.91 c 0,9.617 -7.793,17.41 -17.41,17.41 -9.617,0 -17.41,-7.793 -17.41,-17.41 0,-9.617 7.793,-17.41 17.41,-17.41 9.617,0 17.41,7.793 17.41,17.41 z M 56.25,44.195 c 0,-0.738 -0.602,-1.34 -1.34,-1.34 -0.738,0 -1.34,0.602 -1.34,1.34 v 9.375 h -9.375 c -0.738,0 -1.34,0.602 -1.34,1.34 0,0.738 0.602,1.34 1.34,1.34 h 9.375 v 9.375 c 0,0.738 0.602,1.34 1.34,1.34 0.738,0 1.34,-0.602 1.34,-1.34 V 56.25 h 9.375 c 0.738,0 1.34,-0.602 1.34,-1.34 0,-0.738 -0.602,-1.34 -1.34,-1.34 H 56.25 Z" style="fill:currentColor;fill-opacity:1;fill-rule:nonzero;stroke:none" transform="scale(1.3333333)" /> </g>
</svg>

