<?xml version="1.0" encoding="UTF-8" standalone="no"?> <svg version="1.1" id="I69a6e5db110c42e0839d91a50fd1592520251110124421" width="100" height="100" viewBox="0 0 100 100" xmlns="http://www.w3.org/2000/svg" xmlns:svg="http://www.w3.org/2000/svg"> <defs id="Ie2af1c79e2544303b5461df7eceac56720251110124421" /> <g id="Ic32a17e8250242858ecada4328792ddb20251110124421"> <path id="I32c906ef74ad418a9ff201d8d01fa1b720251110124421" d="m 26.785,5.355 c 11.836,0 21.43,9.594 21.43,21.43 h -8.707 c -7.028,0 -12.723,5.695 -12.723,12.723 v 8.707 c -11.836,0 -21.43,-9.594 -21.43,-21.43 0,-11.836 9.594,-21.43 21.43,-21.43 z m 2.68,34.153 c 0,-5.547 4.496,-10.043 10.043,-10.043 h 20.09 c 5.547,0 10.047,4.496 10.047,10.043 v 20.09 c 0,5.547 -4.5,10.047 -10.047,10.047 h -20.09 c -5.547,0 -10.043,-4.5 -10.043,-10.047 z" style="fill:currentColor;fill-opacity:1;fill-rule:nonzero;stroke:none" transform="scale(1.3333333)" /> </g>
</svg>

