<?xml version="1.0" encoding="UTF-8" standalone="no"?> <svg version="1.1" id="Ib7159c9e08ad42aa8e32b1fa723eaf9520251106125937" width="100" height="100" viewBox="0 0 100 100" xmlns="http://www.w3.org/2000/svg" xmlns:svg="http://www.w3.org/2000/svg"> <defs id="Ic122df2b95e446f5bea75abe59da12f820251106125937" /> <g id="I47cc33f781ac48cbb31501f5f765ef3e20251106125937"> <path id="If5f3b26163924ba58ef4ee88980c8cd020251106125937" d="M 8.785,5.945 C 8.004,5.16 6.73,5.16 5.945,5.945 5.16,6.73 5.16,8.004 5.945,8.785 L 34.82,37.664 v 9.441 l -11.496,-11.5 c -1.047,-1.046 -2.742,-1.046 -3.789,0 -1.047,1.047 -1.047,2.743 0,3.79 l 16.07,16.07 c 1.047,1.047 2.743,1.047 3.79,0 l 6.613,-6.613 12.758,12.753 H 16.07 c -1.476,0 -2.675,1.2 -2.675,2.68 0,1.481 1.199,2.68 2.675,2.68 h 42.86 c 1.425,0 2.59,-1.113 2.672,-2.52 l 4.609,4.61 c 0.785,0.785 2.059,0.785 2.844,0 0.785,-0.785 0.785,-2.055 0,-2.84 z M 42.223,45.062 40.18,47.105 V 43.02 Z M 34.82,26.297 40.18,31.656 V 10.715 c 0,-1.481 -1.2,-2.68 -2.68,-2.68 -1.48,0 -2.68,1.199 -2.68,2.68 z m 16.871,16.871 -3.789,-3.789 3.774,-3.774 c 1.047,-1.046 2.742,-1.046 3.789,0 1.047,1.047 1.047,2.743 0,3.79 z" style="fill:currentColor;fill-opacity:1;fill-rule:nonzero;stroke:none" transform="scale(1.3333333)" /> </g>
</svg>

