<?xml version="1.0" encoding="UTF-8" standalone="no"?> <svg version="1.1" id="I291d0d36d05940ff83979b3d34f6b04320251106151527" width="100" height="100" viewBox="0 0 100 100" xmlns="http://www.w3.org/2000/svg" xmlns:svg="http://www.w3.org/2000/svg"> <defs id="I86cd75b224704b918a11c60bb9f1f0ce20251106151527" /> <g id="I93e8d117a9564a8abb8316e146edc86920251106151527"> <path id="Ie2afdce332c94cfcb50c65f6f22e7fa120251106151527" d="M 28.082,30.012 C 27.992,29.555 27.77,29.137 27.441,28.809 27.223,28.594 26.965,28.418 26.68,28.301 26.395,28.184 26.09,28.125 25.781,28.125 h -9.375 c -0.621,0 -1.218,0.246 -1.656,0.687 -0.441,0.438 -0.688,1.036 -0.688,1.657 v 18.75 c 0,0.621 0.247,1.219 0.688,1.656 0.438,0.441 1.035,0.687 1.656,0.687 0.621,0 1.219,-0.246 1.656,-0.687 0.442,-0.437 0.688,-1.035 0.688,-1.656 v -7.031 h 4.688 c 0.621,0 1.218,-0.247 1.656,-0.688 0.441,-0.438 0.687,-1.035 0.687,-1.656 0,-0.621 -0.246,-1.219 -0.687,-1.656 C 24.656,37.746 24.059,37.5 23.438,37.5 H 18.75 v -4.688 h 7.031 c 0.465,0 0.918,-0.136 1.305,-0.394 0.387,-0.258 0.687,-0.621 0.863,-1.051 0.18,-0.429 0.227,-0.902 0.133,-1.355 z m 27.48,16.176 c 0.442,-0.438 0.688,-1.036 0.688,-1.657 0,-0.621 -0.246,-1.219 -0.688,-1.656 -0.437,-0.441 -1.035,-0.687 -1.656,-0.687 H 51.562 V 37.5 h 2.344 c 0.621,0 1.219,-0.246 1.656,-0.688 0.442,-0.437 0.688,-1.035 0.688,-1.656 0,-0.621 -0.246,-1.218 -0.688,-1.656 -0.437,-0.441 -1.035,-0.688 -1.656,-0.688 h -2.344 v -2.343 c 0,-0.621 -0.246,-1.219 -0.687,-1.657 -0.437,-0.441 -1.035,-0.687 -1.656,-0.687 -0.621,0 -1.219,0.246 -1.657,0.687 -0.441,0.438 -0.687,1.036 -0.687,1.657 v 2.343 h -4.687 v -2.343 c 0,-0.621 -0.247,-1.219 -0.688,-1.657 -0.438,-0.441 -1.035,-0.687 -1.656,-0.687 -0.621,0 -1.219,0.246 -1.656,0.687 -0.442,0.438 -0.688,1.036 -0.688,1.657 v 2.343 h -2.344 c -0.621,0 -1.218,0.247 -1.656,0.688 -0.441,0.438 -0.688,1.035 -0.688,1.656 0,0.621 0.247,1.219 0.688,1.656 0.438,0.442 1.035,0.688 1.656,0.688 H 37.5 v 4.688 h -2.344 c -0.621,0 -1.218,0.246 -1.656,0.687 -0.441,0.437 -0.688,1.035 -0.688,1.656 0,0.621 0.247,1.219 0.688,1.657 0.438,0.441 1.035,0.687 1.656,0.687 H 37.5 v 2.344 c 0,0.621 0.246,1.219 0.688,1.656 0.437,0.441 1.035,0.687 1.656,0.687 0.621,0 1.218,-0.246 1.656,-0.687 0.441,-0.437 0.688,-1.035 0.688,-1.656 v -2.344 h 4.687 v 2.344 c 0,0.621 0.246,1.219 0.687,1.656 0.438,0.441 1.036,0.687 1.657,0.687 0.621,0 1.219,-0.246 1.656,-0.687 0.441,-0.437 0.687,-1.035 0.687,-1.656 v -2.344 h 2.344 c 0.621,0 1.219,-0.246 1.656,-0.687 z M 42.188,37.5 h 4.687 v 4.688 H 42.188 Z M 12.891,14.062 c -4.532,0 -8.203,3.672 -8.203,8.204 v 35.156 c 0,4.531 3.671,8.203 8.203,8.203 h 44.531 c 4.531,0 8.203,-3.672 8.203,-8.203 V 22.266 c 0,-4.532 -3.672,-8.204 -8.203,-8.204 z m -3.516,8.204 c 0,-1.942 1.574,-3.516 3.516,-3.516 h 44.531 c 1.941,0 3.516,1.574 3.516,3.516 v 35.156 c 0,1.941 -1.575,3.516 -3.516,3.516 H 12.891 c -1.942,0 -3.516,-1.575 -3.516,-3.516 z" style="fill:currentColor;fill-opacity:1;fill-rule:nonzero;stroke:none" transform="scale(1.3333333)" /> </g>
</svg>

