<?xml version="1.0" encoding="UTF-8" standalone="no"?> <svg version="1.1" id="I5d691d82424941e79811ad2b68a6ce9220251106171633" width="100" height="100" viewBox="0 0 100 100" xmlns="http://www.w3.org/2000/svg" xmlns:svg="http://www.w3.org/2000/svg"> <defs id="I30a6a9e454364011b881db65dc986aa920251106171633" /> <g id="Icfc43e75db5e4135ab7c86093fa2904320251106171633"> <path id="Idbe880e36c784070a493836afdb22b3a20251106171633" d="m 22.77,17.41 c 0,-6.656 5.394,-12.055 12.05,-12.055 6.657,0 12.055,5.399 12.055,12.055 v 19.082 c -5.906,2.582 -10.336,7.922 -11.652,14.395 -0.133,0.004 -0.266,0.008 -0.403,0.008 -6.656,0 -12.05,-5.399 -12.05,-12.055 z M 34.867,56.25 H 34.82 c -9.613,0 -17.41,-7.797 -17.41,-17.41 v -2.008 c 0,-1.109 -0.898,-2.008 -2.008,-2.008 -1.109,0 -2.007,0.899 -2.007,2.008 v 2.008 c 0,11.156 8.523,20.32 19.417,21.336 v 7.457 c 0,1.109 0.899,2.012 2.008,2.012 1.11,0 2.012,-0.903 2.012,-2.012 V 63.68 C 35.727,61.406 35.039,58.898 34.867,56.25 Z M 54.91,72.32 c 9.617,0 17.41,-7.793 17.41,-17.41 0,-9.617 -7.793,-17.41 -17.41,-17.41 -9.617,0 -17.41,7.793 -17.41,17.41 0,9.617 7.793,17.41 17.41,17.41 z m 0,-4.015 c -2.972,0 -5.719,-0.969 -7.941,-2.61 L 65.695,46.969 c 1.641,2.222 2.61,4.969 2.61,7.941 0,7.399 -5.996,13.395 -13.395,13.395 z m 7.945,-24.18 -18.73,18.73 C 42.488,60.633 41.52,57.883 41.52,54.91 c 0,-7.394 5.996,-13.39 13.39,-13.39 2.973,0 5.723,0.968 7.945,2.605 z" style="fill:currentColor;fill-opacity:1;fill-rule:nonzero;stroke:none" transform="scale(1.3333333)" /> </g>
</svg>

