<?xml version="1.0" encoding="UTF-8" standalone="no"?> <svg version="1.1" id="I0cf7cf50eafc4459b8f799c56a69ef4720251106170411" width="100" height="100" viewBox="0 0 100 100" xmlns="http://www.w3.org/2000/svg" xmlns:svg="http://www.w3.org/2000/svg"> <defs id="I389f45a2d45444f28dc1bca4f475e13f20251106170411" /> <g id="I70d355af06d449e8832785aeef8df0d420251106170411"> <path id="Ie375f355a3d74f0e988d934b77c7da8e20251106170411" d="m 41.832,10.703 19.895,13.262 c 1.433,0.957 1.82,2.894 0.863,4.332 -0.227,0.344 -0.524,0.637 -0.863,0.867 L 41.832,42.426 c -2.621,1.746 -6.043,1.746 -8.664,0 L 13.273,29.164 c -1.433,-0.957 -1.824,-2.898 -0.863,-4.336 0.227,-0.34 0.524,-0.637 0.863,-0.863 L 33.168,10.703 c 2.621,-1.75 6.043,-1.75 8.664,0 z M 62.578,38.102 C 62.117,38.844 61.5,39.48 60.777,39.969 L 41.871,52.73 c -2.641,1.782 -6.101,1.782 -8.742,0 L 14.223,39.969 c -2.379,-1.606 -3.301,-4.563 -2.434,-7.157 l 21.379,14.25 c 2.457,1.641 5.617,1.743 8.164,0.309 l 0.5,-0.309 21.379,-14.25 c 0.566,1.708 0.398,3.645 -0.633,5.29 z m 0,10.156 C 62.117,49 61.5,49.637 60.777,50.125 L 41.871,62.887 c -2.641,1.781 -6.101,1.781 -8.742,0 L 14.223,50.125 C 11.844,48.52 10.922,45.562 11.789,42.969 l 21.379,14.25 c 2.457,1.64 5.617,1.742 8.164,0.308 l 0.5,-0.308 21.379,-14.25 c 0.566,1.707 0.398,3.644 -0.633,5.289 z" style="fill:currentColor;fill-opacity:1;fill-rule:nonzero;stroke:none" transform="scale(1.3333333)" /> </g>
</svg>

