<?xml version="1.0" encoding="UTF-8" standalone="no"?> <svg version="1.1" id="Id0bdaaf147914c888f128d7077833f3320251106151526" width="100" height="100" viewBox="0 0 100 100" xmlns="http://www.w3.org/2000/svg" xmlns:svg="http://www.w3.org/2000/svg"> <defs id="I15ba74deac6c48d0a65d7f2f2bbcd30e20251106151526" /> <g id="Ib1d9623f7c8b4210b42b60734cd5bc8f20251106151526"> <path id="Ic5b3c3cf82974950b62c302557c19b7c20251106151526" d="m 68.75,40.625 c 1.727,0 3.125,1.398 3.125,3.125 v 15.625 c 0,1.727 -1.398,3.125 -3.125,3.125 h -9.375 v 4.688 h 0.781 c 1.293,0 2.344,1.05 2.344,2.343 0,0.078 -0.004,0.157 -0.012,0.231 0.008,0.054 0.012,0.109 0.012,0.16 0,0.863 -1.09,1.953 -1.953,1.953 H 48.828 c -0.863,0 -1.953,-1.09 -1.953,-1.953 0,-0.051 0.004,-0.106 0.012,-0.16 -0.008,-0.074 -0.012,-0.153 -0.012,-0.231 0,-1.293 1.051,-2.343 2.344,-2.343 H 50 V 62.5 H 40.625 C 38.898,62.5 37.5,61.102 37.5,59.375 V 43.75 c 0,-1.727 1.398,-3.125 3.125,-3.125 z M 37.5,12.5 c 9.312,0 17.035,6.789 18.5,15.688 5.547,0.511 10.16,4.246 11.949,9.312 H 40.625 c -3.453,0 -6.25,2.797 -6.25,6.25 v 12.5 H 20.312 C 12.547,56.25 6.25,49.953 6.25,42.188 6.25,34.863 11.848,28.848 19,28.188 20.465,19.289 28.188,12.5 37.5,12.5 Z" style="fill:currentColor;fill-opacity:1;fill-rule:nonzero;stroke:none" transform="scale(1.3333333)" /> </g>
</svg>

