<?xml version="1.0" encoding="UTF-8" standalone="no"?> <svg version="1.1" id="I058b7ae9816642d483bf95d9a0edd48620251106170412" width="100" height="100" viewBox="0 0 100 100" xmlns="http://www.w3.org/2000/svg" xmlns:svg="http://www.w3.org/2000/svg"> <defs id="I349033b387cf4beeadc807f2c94d675d20251106170412" /> <g id="I7ea0a1dc8ee549dfaa414d74919ffb0a20251106170412"> <path id="Ie9b84da3f9e341edb51b5da63bb1a15120251106170412" d="m 11.719,7.031 c -3.883,0 -7.031,3.149 -7.031,7.031 v 14.063 c 0,9.426 6.183,17.41 14.714,20.113 -0.425,-1.949 -0.652,-3.972 -0.652,-6.05 0,-5.11 1.363,-9.903 3.746,-14.036 L 17.094,22.75 c -0.918,-0.914 -0.918,-2.398 0,-3.312 0.914,-0.918 2.398,-0.918 3.312,0 l 4.809,4.808 C 29.367,19.238 35.219,15.695 41.887,14.504 38.02,9.934 32.238,7.031 25.781,7.031 Z M 44.73,18.848 c -6.542,0.593 -12.308,3.875 -16.183,8.73 -0.996,1.246 -1.867,2.598 -2.594,4.035 -1.609,3.176 -2.515,6.77 -2.515,10.575 0,2.437 0.371,4.785 1.062,6.992 0.902,2.894 2.352,5.55 4.227,7.84 l -6.946,6.949 c -0.918,0.914 -0.918,2.398 0,3.312 0.914,0.918 2.399,0.918 3.313,0 l 6.949,-6.945 c 4.039,3.305 9.203,5.289 14.832,5.289 12.945,0 23.437,-10.492 23.437,-23.437 V 25.781 c 0,-3.883 -3.148,-7.031 -7.031,-7.031 H 46.875 c -0.723,0 -1.437,0.031 -2.145,0.098 z m 6.145,19.34 c 0.918,0.914 0.918,2.398 0,3.312 L 35.379,57 c -1.238,-0.961 -2.356,-2.078 -3.317,-3.316 l 15.5,-15.496 c 0.915,-0.918 2.399,-0.918 3.313,0 z" style="fill:currentColor;fill-opacity:1;fill-rule:nonzero;stroke:none" transform="scale(1.3333333)" /> </g>
</svg>

