<?xml version="1.0" encoding="UTF-8" standalone="no"?> <svg version="1.1" id="I6a3defa4b4ba4ba79ae67bb63449ad3220251106123600" width="100" height="100" viewBox="0 0 100 100" xmlns="http://www.w3.org/2000/svg" xmlns:svg="http://www.w3.org/2000/svg"> <defs id="I0dd6a0769c1845ddb81e2e91582f367020251106123600" /> <g id="I0a0319db32814c22adbfe217f5640d8b20251106123600"> <path id="I91887487f7494ca68b8fa852349ba7be20251106123600" d="M 69.645,37.5 C 69.645,55.254 55.254,69.645 37.5,69.645 19.746,69.645 5.355,55.254 5.355,37.5 5.355,19.746 19.746,5.355 37.5,5.355 55.254,5.355 69.645,19.746 69.645,37.5 Z M 36.91,50.973 c 0.785,-0.782 0.785,-2.055 0,-2.84 l -8.621,-8.625 h 23.273 c 1.11,0 2.008,-0.899 2.008,-2.008 0,-1.109 -0.898,-2.008 -2.008,-2.008 H 28.289 l 8.621,-8.625 c 0.785,-0.785 0.785,-2.058 0,-2.84 -0.781,-0.785 -2.055,-0.785 -2.84,0 L 22.016,36.078 c -0.782,0.785 -0.782,2.059 0,2.844 L 34.07,50.973 c 0.785,0.785 2.059,0.785 2.84,0 z" style="fill:currentColor;fill-opacity:1;fill-rule:nonzero;stroke:none" transform="scale(1.3333333)" /> </g>
</svg>

