<?xml version="1.0" encoding="UTF-8" standalone="no"?> <svg version="1.1" id="Ib1120c9d2f9740739df8e8333b831ebd20251110123029" width="100" height="100" viewBox="0 0 100 100" xmlns="http://www.w3.org/2000/svg" xmlns:svg="http://www.w3.org/2000/svg"> <defs id="Ieca0471dc73f4f9dbaaf0325ce9f0aa820251110123029" /> <g id="I0387071556af4d3681d567b111856a8520251110123029"> <path id="Ice341ba733494f8190f6daa30b277dd320251110123029" d="M 6.25,22.656 C 6.25,17.047 10.797,12.5 16.406,12.5 h 42.188 c 5.609,0 10.156,4.547 10.156,10.156 V 36.742 C 67.344,35.805 65.762,35.109 64.062,34.723 V 32.812 H 29.688 v 25 h 9.644 l -3.355,3.356 C 35.582,61.562 35.25,62.012 34.996,62.5 H 16.406 C 10.797,62.5 6.25,57.953 6.25,52.344 Z m 23.438,5.469 h 34.374 v -5.469 c 0,-3.019 -2.449,-5.468 -5.468,-5.468 H 29.688 Z m 31.25,31.25 c 6.039,0 10.937,-4.898 10.937,-10.937 C 71.875,42.398 66.977,37.5 60.938,37.5 54.898,37.5 50,42.398 50,48.438 c 0,0.988 0.133,1.945 0.375,2.855 -0.168,0.098 -0.324,0.219 -0.469,0.363 L 38.188,63.375 C 37.746,63.816 37.5,64.41 37.5,65.035 v 4.496 c 0,1.293 1.051,2.344 2.344,2.344 h 5.468 c 0.864,0 1.563,-0.699 1.563,-1.563 V 68.75 H 50 c 0.863,0 1.562,-0.699 1.562,-1.562 v -3.126 h 3.126 c 0.863,0 1.562,-0.699 1.562,-1.562 v -3.125 z m 4.687,-12.5 c 0,1.727 -1.398,3.125 -3.125,3.125 -1.727,0 -3.125,-1.398 -3.125,-3.125 0,-1.727 1.398,-3.125 3.125,-3.125 1.727,0 3.125,1.398 3.125,3.125 z" style="fill:currentColor;fill-opacity:1;fill-rule:nonzero;stroke:none" transform="scale(1.3333333)" /> </g>
</svg>

