<?xml version="1.0" encoding="UTF-8" standalone="no"?> <svg version="1.1" id="I9f9385b0b3c74b259f7bc0079aa410b520251106163938" width="100" height="100" viewBox="0 0 100 100" xmlns="http://www.w3.org/2000/svg" xmlns:svg="http://www.w3.org/2000/svg"> <defs id="I98204882f30b4422a61c8142e1e9fabc20251106163938" /> <g id="I0e80bf3dc1814d0599d407858a23e07620251106163938"> <path id="I2047bcba1561429388b7cf9e916f68c420251106163938" d="m 26.883,6.25 c -1.653,0 -3.125,1.039 -3.68,2.594 L 12.824,37.98 c -1.265,3.551 1.36,7.29 5.133,7.301 l 4.898,0.02 -3.964,17.715 c -1.036,4.617 4.648,7.683 7.941,4.285 L 39.203,54.531 C 39.082,54.484 38.961,54.438 38.836,54.395 L 34.508,52.988 34.473,52.977 C 34.398,52.953 34.328,52.926 34.258,52.898 L 23.465,64.039 28.066,43.48 C 28.223,42.789 28.055,42.062 27.613,41.508 27.172,40.953 26.5,40.629 25.789,40.625 l -7.816,-0.031 c -0.539,0 -0.914,-0.535 -0.731,-1.043 L 27.434,10.938 h 18.531 l -5.219,15.664 c -0.238,0.714 -0.121,1.5 0.32,2.113 0.442,0.609 1.149,0.973 1.903,0.973 h 13.777 l -4.086,4.214 c 0.094,0.184 0.172,0.371 0.242,0.567 l 0.012,0.035 1.41,4.328 0.024,0.07 7.05,-7.277 C 63.797,29.145 62.043,25 58.59,25 H 46.219 L 50.758,11.391 C 51.598,8.863 49.719,6.25 47.051,6.25 Z m 16.41,47.332 c 0.262,0.262 0.508,0.539 0.734,0.832 0.614,0.793 1.09,1.691 1.407,2.648 l 1.398,4.305 c 0.117,0.332 0.336,0.617 0.621,0.821 0.289,0.203 0.633,0.312 0.985,0.312 0.351,0 0.695,-0.109 0.984,-0.312 0.254,-0.18 0.453,-0.43 0.578,-0.715 0.016,-0.035 0.027,-0.071 0.043,-0.106 l 1.398,-4.305 c 0.434,-1.308 1.168,-2.496 2.145,-3.468 0.976,-0.977 2.164,-1.711 3.473,-2.145 l 4.304,-1.398 c 0.332,-0.117 0.621,-0.332 0.825,-0.621 0.203,-0.285 0.312,-0.629 0.312,-0.981 0,-0.351 -0.109,-0.695 -0.312,-0.984 -0.204,-0.285 -0.493,-0.504 -0.825,-0.621 l -0.086,-0.02 -4.304,-1.398 C 55.664,44.992 54.477,44.258 53.5,43.281 52.523,42.309 51.789,41.121 51.355,39.812 l -1.398,-4.304 c -0.117,-0.332 -0.336,-0.617 -0.625,-0.82 -0.285,-0.204 -0.629,-0.313 -0.98,-0.313 -0.352,0 -0.696,0.109 -0.985,0.313 -0.285,0.203 -0.504,0.488 -0.621,0.82 l -1.398,4.304 -0.036,0.106 c -0.429,1.258 -1.136,2.402 -2.07,3.348 -0.961,0.976 -2.133,1.714 -3.426,2.16 l -4.304,1.398 c -0.332,0.117 -0.621,0.332 -0.824,0.621 -0.204,0.285 -0.313,0.629 -0.313,0.981 0,0.351 0.109,0.695 0.313,0.984 0.203,0.285 0.492,0.504 0.824,0.621 l 4.304,1.395 c 1.309,0.437 2.5,1.176 3.477,2.156 z M 68.07,66.293 65.68,65.516 c -0.727,-0.243 -1.387,-0.653 -1.93,-1.192 -0.543,-0.543 -0.949,-1.203 -1.191,-1.929 l -0.778,-2.391 c -0.066,-0.184 -0.187,-0.344 -0.347,-0.457 -0.157,-0.109 -0.348,-0.172 -0.543,-0.172 -0.196,0 -0.387,0.063 -0.547,0.172 -0.16,0.113 -0.282,0.273 -0.344,0.457 l -0.777,2.391 c -0.239,0.722 -0.641,1.378 -1.172,1.921 -0.535,0.539 -1.184,0.95 -1.903,1.2 l -2.394,0.777 c -0.184,0.062 -0.344,0.184 -0.457,0.344 -0.109,0.16 -0.172,0.347 -0.172,0.543 0,0.195 0.063,0.386 0.172,0.547 0.113,0.16 0.273,0.281 0.457,0.343 l 2.394,0.778 c 0.727,0.242 1.391,0.652 1.93,1.195 0.543,0.547 0.949,1.207 1.192,1.937 l 0.777,2.391 c 0.066,0.184 0.183,0.344 0.344,0.457 0.16,0.11 0.351,0.172 0.547,0.172 0.195,0 0.386,-0.062 0.546,-0.172 0.161,-0.113 0.278,-0.273 0.344,-0.457 l 0.777,-2.391 c 0.243,-0.726 0.649,-1.386 1.192,-1.929 0.543,-0.539 1.203,-0.949 1.93,-1.192 l 2.394,-0.777 c 0.184,-0.062 0.344,-0.184 0.457,-0.344 0.11,-0.16 0.172,-0.347 0.172,-0.543 0,-0.195 -0.062,-0.386 -0.172,-0.547 -0.113,-0.16 -0.273,-0.281 -0.457,-0.343 z" style="fill:currentColor;fill-opacity:1;fill-rule:nonzero;stroke:none" transform="scale(1.3333333)" /> </g>
</svg>

