<?xml version="1.0" encoding="UTF-8" standalone="no"?> <svg version="1.1" id="I1876b479ca7f4cb5bd333a2fedc69ed920251110123030" width="100" height="100" viewBox="0 0 100 100" xmlns="http://www.w3.org/2000/svg" xmlns:svg="http://www.w3.org/2000/svg"> <defs id="I5fe99c3506b74ecf9afba6854d927b7320251110123030" /> <g id="I2196898a9a8a4dc7b6b239c85d754aa420251110123030"> <path id="Ifecda0dbfb6a49599bde7d6ead56b03120251110123030" d="M 37.5,5.355 C 19.746,5.355 5.355,19.746 5.355,37.5 5.355,55.254 19.746,69.645 37.5,69.645 55.254,69.645 69.645,55.254 69.645,37.5 69.645,19.746 55.254,5.355 37.5,5.355 Z m 0,52.235 C 28.625,57.59 21.43,51.848 21.43,43.238 21.43,40.07 24,37.5 27.168,37.5 h 20.664 c 3.168,0 5.738,2.57 5.738,5.738 0,8.61 -7.195,14.352 -16.07,14.352 z m 0,-24.11 c -4.809,0 -8.707,-3.894 -8.707,-8.703 0,-4.808 3.898,-8.707 8.707,-8.707 4.809,0 8.707,3.899 8.707,8.707 0,4.809 -3.898,8.703 -8.707,8.703 z" style="fill:currentColor;fill-opacity:1;fill-rule:nonzero;stroke:none" transform="scale(1.3333333)" /> </g>
</svg>

