<?xml version="1.0" encoding="UTF-8" standalone="no"?> <svg version="1.1" id="Ic051b43e687f4b88addba6935d229fc120251106163937" width="100" height="100" viewBox="0 0 100 100" xmlns="http://www.w3.org/2000/svg" xmlns:svg="http://www.w3.org/2000/svg"> <defs id="I278b1f3a73d54c33b641cb398d27306820251106163937" /> <g id="I3945eb3fa7114aa29767748b27965e8320251106163937"> <path id="I7fdc22fc499d46e98a83a6fd61fbbe1220251106163937" d="m 65.719,9.281 c -4.367,-4.367 -11.446,-4.367 -15.813,0 l -6.156,6.157 -0.039,-0.04 c -2.137,-2.136 -5.598,-2.136 -7.734,0 l -1.832,1.829 c -2.133,2.136 -2.133,5.597 0,7.734 L 34.188,25 12.996,46.188 c -1.316,1.32 -2.058,3.109 -2.058,4.972 v 2.149 l -4,7.336 c -2.614,4.789 2.628,10.031 7.417,7.417 l 7.336,-4 h 2.149 c 1.863,0 3.652,-0.738 4.972,-2.058 L 50,40.816 l 0.039,0.039 c 2.137,2.137 5.598,2.137 7.734,0 l 1.832,-1.832 c 2.133,-2.136 2.133,-5.597 0,-7.734 l -0.043,-0.039 6.157,-6.152 c 4.367,-4.368 4.367,-11.45 0,-15.817 z M 37.5,28.316 46.688,37.5 25.496,58.688 c -0.437,0.441 -1.035,0.687 -1.656,0.687 h -2.746 c -0.391,0 -0.778,0.098 -1.121,0.289 l -7.86,4.285 c -0.218,0.117 -0.379,0.125 -0.496,0.102 -0.14,-0.024 -0.297,-0.102 -0.433,-0.235 -0.133,-0.136 -0.207,-0.289 -0.235,-0.429 -0.019,-0.121 -0.015,-0.282 0.102,-0.496 l 4.289,-7.86 c 0.187,-0.347 0.285,-0.73 0.285,-1.125 V 51.16 c 0,-0.621 0.246,-1.215 0.687,-1.656 z" style="fill:currentColor;fill-opacity:1;fill-rule:nonzero;stroke:none" transform="scale(1.3333333)" /> </g>
</svg>

