<?xml version="1.0" encoding="UTF-8" standalone="no"?> <svg version="1.1" id="Ic5b037cc2a7946c38102934c6c69177020251110124419" width="100" height="100" viewBox="0 0 100 100" xmlns="http://www.w3.org/2000/svg" xmlns:svg="http://www.w3.org/2000/svg"> <defs id="If223706fe57c4a32acf9c31dd1bcabbe20251110124419" /> <g id="I777dfae1fb69498bb6baf8c9701c311520251110124419"> <path id="I153282db9ead4de0ad61fba6dabc380320251110124419" d="M 37.5,75 C 58.211,75 75,58.211 75,37.5 75,16.789 58.211,0 37.5,0 16.789,0 0,16.789 0,37.5 0,58.211 16.789,75 37.5,75 Z m 0,-52.469 v 13.418 l 10.152,10.153 c 1.465,1.46 1.465,3.836 0,5.3 -1.464,1.465 -3.84,1.465 -5.304,0 L 31.098,40.152 C 30.395,39.449 30,38.496 30,37.5 V 22.531 c 0,-2.07 1.68,-3.75 3.75,-3.75 2.07,0 3.75,1.68 3.75,3.75 z" style="fill:currentColor;fill-opacity:1;fill-rule:nonzero;stroke:none" transform="scale(1.3333333)" /> </g>
</svg>

