<?xml version="1.0" encoding="UTF-8" standalone="no"?> <svg version="1.1" id="I6628493e867d471c911a29764d5e885920251106103256" width="100" height="100" viewBox="0 0 100 100" xmlns="http://www.w3.org/2000/svg" xmlns:svg="http://www.w3.org/2000/svg"> <defs id="I51ec7f5ea3cb4fb9bc60d402d2e419a020251106103256" /> <g id="I63388aa819af49ff8d02b74753cf759020251106103256"> <path id="I8917a020a9df48208748c7e0ae7306ca20251106103256" d="m 6.027,26.785 h 4.688 c 0.367,0 0.668,-0.301 0.668,-0.668 V 11.383 h 14.734 c 0.367,0 0.668,-0.301 0.668,-0.668 V 6.027 c 0,-0.367 -0.301,-0.672 -0.668,-0.672 H 11.051 c -3.149,0 -5.696,2.547 -5.696,5.696 v 15.066 c 0,0.367 0.305,0.668 0.672,0.668 z M 48.883,11.383 h 14.734 v 14.734 c 0,0.367 0.301,0.668 0.668,0.668 h 4.688 c 0.367,0 0.672,-0.301 0.672,-0.668 V 11.051 c 0,-3.149 -2.547,-5.696 -5.696,-5.696 H 48.883 c -0.367,0 -0.668,0.305 -0.668,0.672 v 4.688 c 0,0.367 0.301,0.668 0.668,0.668 z M 26.117,63.617 H 11.383 V 48.883 c 0,-0.367 -0.301,-0.668 -0.668,-0.668 H 6.027 c -0.367,0 -0.672,0.301 -0.672,0.668 v 15.066 c 0,3.149 2.547,5.696 5.696,5.696 h 15.066 c 0.367,0 0.668,-0.305 0.668,-0.672 v -4.688 c 0,-0.367 -0.301,-0.668 -0.668,-0.668 z M 68.973,48.215 h -4.688 c -0.367,0 -0.668,0.301 -0.668,0.668 V 63.617 H 48.883 c -0.367,0 -0.668,0.301 -0.668,0.668 v 4.688 c 0,0.367 0.301,0.672 0.668,0.672 h 15.066 c 3.149,0 5.696,-2.547 5.696,-5.696 V 48.883 c 0,-0.367 -0.305,-0.668 -0.672,-0.668 z M 70.312,34.488 H 4.688 c -0.368,0 -0.668,0.301 -0.668,0.668 v 4.688 c 0,0.367 0.3,0.668 0.668,0.668 h 65.624 c 0.368,0 0.668,-0.301 0.668,-0.668 v -4.688 c 0,-0.367 -0.3,-0.668 -0.668,-0.668 z" style="fill:currentColor;fill-opacity:1;fill-rule:nonzero;stroke:none" transform="scale(1.3333333)" /> </g>
</svg>

