<?xml version="1.0" encoding="UTF-8" standalone="no"?> <svg version="1.1" id="I7b79ecce490b472f9e74074a71fb954320251106164749" width="100" height="100" viewBox="0 0 100 100" xmlns="http://www.w3.org/2000/svg" xmlns:svg="http://www.w3.org/2000/svg"> <defs id="I312f1fc8b6e5466394258ef08394af9b20251106164749" /> <g id="I5ffcffa74cca427a8533f4cdda4d931020251106164749"> <path id="Ie357480cb5bc41ad87235179322642e820251106164749" d="m 24.965,20.09 c -0.879,0 -1.723,0.348 -2.352,0.965 l -7.164,7.07 h 12.008 c 3.609,0 6.613,2.598 7.242,6.027 h 5.602 c 0.629,-3.429 3.633,-6.027 7.242,-6.027 h 12.008 l -7.164,-7.07 C 51.758,20.438 50.914,20.09 50.035,20.09 h -3.828 c -1.109,0 -2.012,-0.899 -2.012,-2.008 0,-1.109 0.903,-2.012 2.012,-2.012 h 3.828 c 1.938,0 3.793,0.766 5.172,2.125 l 11.844,11.688 c 0.273,0.234 0.535,0.488 0.773,0.762 l 0.071,0.07 -0.008,0.004 c 1.093,1.285 1.758,2.953 1.758,4.773 v 10.715 c 0,5.547 -4.5,10.043 -10.047,10.043 H 50.223 C 44.676,56.25 40.18,51.754 40.18,46.207 v -8.039 h -5.36 v 8.039 c 0,5.547 -4.496,10.043 -10.043,10.043 H 15.402 C 9.855,56.25 5.355,51.754 5.355,46.207 V 35.492 c 0,-1.82 0.665,-3.488 1.758,-4.773 L 7.105,30.715 7.176,30.645 C 7.414,30.371 7.672,30.117 7.949,29.883 L 19.793,18.195 c 1.379,-1.359 3.234,-2.125 5.172,-2.125 h 3.828 c 1.109,0 2.012,0.903 2.012,2.012 0,1.109 -0.903,2.008 -2.012,2.008 z m 39.39,12.777 c -0.57,-0.453 -1.293,-0.722 -2.078,-0.722 H 47.543 c -1.848,0 -3.348,1.496 -3.348,3.347 v 10.715 c 0,3.328 2.7,6.023 6.028,6.023 h 9.375 c 3.328,0 6.027,-2.695 6.027,-6.023 V 35.492 c 0,-0.801 -0.281,-1.539 -0.75,-2.113 z m -53.71,0 -0.52,0.512 c -0.469,0.574 -0.75,1.312 -0.75,2.113 v 10.715 c 0,3.328 2.699,6.023 6.027,6.023 h 9.375 c 3.328,0 6.028,-2.695 6.028,-6.023 V 35.492 c 0,-1.851 -1.5,-3.347 -3.348,-3.347 H 12.723 c -0.785,0 -1.508,0.269 -2.078,0.722 z" style="fill:currentColor;fill-opacity:1;fill-rule:nonzero;stroke:none" transform="scale(1.3333333)" /> </g>
</svg>

