<?xml version="1.0" encoding="UTF-8" standalone="no"?> <svg version="1.1" id="Ie697e21aa7114923bd0b1147900fd36620251106165301" width="100" height="100" viewBox="0 0 100 100" xmlns="http://www.w3.org/2000/svg" xmlns:svg="http://www.w3.org/2000/svg"> <defs id="I1b8daf31c3094cfcba1a26312e6a03bc20251106165301" /> <g id="I7ad2d0c4e3f64ec8b4f3d4e1a4e8039c20251106165301"> <path id="I212339d931f347199badf6522e980c6b20251106165301" d="m 43.352,65.016 c 1.003,-0.211 2.039,0.285 2.429,1.23 0.461,1.113 -0.14,2.383 -1.316,2.641 -2.242,0.496 -4.574,0.758 -6.965,0.758 -2.391,0 -4.719,-0.262 -6.961,-0.758 -1.172,-0.258 -1.777,-1.528 -1.316,-2.641 0.394,-0.945 1.429,-1.441 2.429,-1.23 1.887,0.398 3.844,0.609 5.848,0.609 2.008,0 3.965,-0.211 5.852,-0.609 z M 11.316,51.965 c 0.946,-0.391 2.032,-0.012 2.59,0.847 2.149,3.305 4.977,6.133 8.282,8.282 0.859,0.558 1.242,1.644 0.851,2.59 -0.461,1.109 -1.789,1.582 -2.801,0.937 -3.961,-2.527 -7.328,-5.898 -9.855,-9.859 -0.649,-1.012 -0.176,-2.336 0.933,-2.797 z m 49.782,0.844 c 0.558,-0.856 1.64,-1.239 2.586,-0.848 1.109,0.461 1.582,1.785 0.937,2.797 -2.527,3.961 -5.898,7.332 -9.855,9.859 -1.016,0.645 -2.336,0.176 -2.797,-0.937 -0.395,-0.946 -0.012,-2.028 0.847,-2.586 3.305,-2.149 6.133,-4.977 8.282,-8.285 z M 39.156,27.086 c 3.258,-3.961 9.321,-3.961 12.578,0 2.469,3.004 2.469,7.336 0,10.34 L 39.059,52.84 c -0.383,0.465 -0.954,0.73 -1.555,0.73 -0.598,0 -1.168,-0.265 -1.551,-0.73 L 23.281,37.426 c -2.469,-3.004 -2.469,-7.336 0,-10.34 3.254,-3.961 9.321,-3.961 12.574,0 l 1.649,2.008 z M 6.117,30.523 c 0.258,-1.171 1.528,-1.773 2.637,-1.316 0.949,0.395 1.445,1.43 1.234,2.434 -0.402,1.89 -0.613,3.851 -0.613,5.859 0,2.004 0.211,3.961 0.609,5.848 0.211,1.004 -0.285,2.039 -1.23,2.429 C 7.641,46.238 6.371,45.633 6.113,44.461 5.617,42.219 5.355,39.891 5.355,37.5 c 0,-2.395 0.262,-4.73 0.762,-6.977 z m 60.129,-1.308 c 1.109,-0.461 2.379,0.14 2.637,1.312 0.496,2.246 0.762,4.578 0.762,6.973 0,2.391 -0.262,4.719 -0.758,6.957 -0.258,1.176 -1.528,1.777 -2.641,1.316 -0.945,-0.39 -1.441,-1.429 -1.226,-2.429 0.398,-1.887 0.605,-3.84 0.605,-5.844 0,-2.008 -0.211,-3.969 -0.609,-5.855 -0.211,-1.004 0.281,-2.04 1.23,-2.43 z M 51.973,11.324 c 0.461,-1.109 1.785,-1.582 2.8,-0.937 3.954,2.523 7.317,5.886 9.84,9.84 0.645,1.015 0.176,2.339 -0.933,2.8 -0.946,0.391 -2.032,0.012 -2.59,-0.847 -2.149,-3.301 -4.969,-6.121 -8.27,-8.27 -0.859,-0.558 -1.238,-1.64 -0.847,-2.586 z M 20.234,10.383 c 1.012,-0.645 2.336,-0.172 2.797,0.937 0.391,0.946 0.008,2.032 -0.847,2.586 -3.301,2.149 -6.125,4.969 -8.274,8.27 -0.558,0.859 -1.64,1.242 -2.586,0.847 -1.109,-0.461 -1.582,-1.785 -0.933,-2.796 2.523,-3.954 5.89,-7.321 9.843,-9.844 z M 37.5,5.355 c 2.395,0 4.73,0.266 6.973,0.762 1.172,0.258 1.777,1.528 1.316,2.637 -0.391,0.949 -1.43,1.445 -2.434,1.234 C 41.469,9.586 39.508,9.375 37.5,9.375 c -2.008,0 -3.965,0.211 -5.855,0.609 -1,0.211 -2.036,-0.285 -2.43,-1.23 C 28.754,7.645 29.359,6.375 30.531,6.117 32.773,5.621 35.105,5.355 37.5,5.355 Z" style="fill:currentColor;fill-opacity:1;fill-rule:nonzero;stroke:none" transform="scale(1.3333333)" /> </g>
</svg>

