<?xml version="1.0" encoding="UTF-8" standalone="no"?> <svg version="1.1" id="If432fe9da5204b3fa8b9c9099b20d4a020251110130509" width="100" height="100" viewBox="0 0 100 100" xmlns="http://www.w3.org/2000/svg" xmlns:svg="http://www.w3.org/2000/svg"> <defs id="Ie040d2028fc74753bc11e561523d190020251110130509" /> <g id="I2485628898c741a0b78c385594107ae420251110130509"> <path id="Icadeb5e060eb40829b654ac0a43a595920251110130509" d="m 19.531,9.375 c -5.609,0 -10.156,4.547 -10.156,10.156 v 35.938 c 0,5.609 4.547,10.156 10.156,10.156 h 18.035 c -0.925,-1.449 -1.671,-3.02 -2.211,-4.687 H 19.531 c -3.019,0 -5.469,-2.45 -5.469,-5.469 v -7.031 h 21.293 c 0.54,-1.668 1.286,-3.239 2.211,-4.688 H 31.25 v -12.5 h 29.688 v 4.105 c 1.667,0.54 3.238,1.286 4.687,2.211 V 19.531 c 0,-5.609 -4.547,-10.156 -10.156,-10.156 z m -5.469,10.156 c 0,-3.019 2.45,-5.469 5.469,-5.469 H 43.75 v 12.5 H 14.062 Z m 0,11.719 h 12.5 v 12.5 h -12.5 z m 46.876,-4.688 h -12.5 v -12.5 h 7.031 c 3.019,0 5.469,2.45 5.469,5.469 z M 71.875,54.688 C 71.875,45.195 64.18,37.5 54.688,37.5 45.195,37.5 37.5,45.195 37.5,54.688 c 0,9.492 7.695,17.187 17.188,17.187 9.492,0 17.187,-7.695 17.187,-17.187 z m -15.625,1.562 0.004,7.824 c 0,0.864 -0.699,1.563 -1.563,1.563 -0.863,0 -1.562,-0.699 -1.562,-1.563 L 53.125,56.25 h -7.828 c -0.859,0 -1.559,-0.699 -1.559,-1.562 0,-0.864 0.7,-1.563 1.559,-1.563 h 7.828 v -7.816 c 0,-0.864 0.699,-1.563 1.563,-1.563 0.863,0 1.562,0.699 1.562,1.563 v 7.816 h 7.801 c 0.863,0 1.562,0.699 1.562,1.563 0,0.863 -0.699,1.562 -1.562,1.562 z" style="fill:currentColor;fill-opacity:1;fill-rule:nonzero;stroke:none" transform="scale(1.3333333)" /> </g>
</svg>

