<?xml version="1.0" encoding="UTF-8" standalone="no"?> <svg version="1.1" id="I6f50553b03f7430ab45f79c5417e496420251106170956" width="100" height="100" viewBox="0 0 100 100" xmlns="http://www.w3.org/2000/svg" xmlns:svg="http://www.w3.org/2000/svg"> <defs id="I479e9ec73f66482c8cd9975b3afe296020251106170956" /> <g id="Ie726fd633f4d4f358991d0e1f4aa584220251106170956"> <path id="I49370c8c6245409c8eb5fbccfabd895f20251106170956" d="m 56.105,12.812 c 2.536,-2.535 6.649,-2.535 9.184,0 2.535,2.536 2.535,6.645 0,9.18 -0.086,0.082 -0.16,0.172 -0.227,0.262 L 51.996,35.316 c -0.82,0.821 -2.148,0.821 -2.969,0 -0.82,-0.82 -0.82,-2.148 0,-2.968 L 61.008,20.402 c 0.918,-0.914 0.918,-2.394 0.004,-3.312 -0.914,-0.914 -2.395,-0.918 -3.313,-0.004 L 45.715,29.035 c -2.649,2.649 -2.649,6.945 0,9.594 2.648,2.648 6.945,2.648 9.594,0 L 68.824,25.117 C 68.945,25 69.051,24.867 69.137,24.73 72.957,20.34 72.781,13.676 68.602,9.5 64.234,5.133 57.16,5.133 52.793,9.5 L 41.301,20.992 c -0.918,0.914 -0.918,2.399 0,3.313 0.914,0.914 2.398,0.914 3.312,0 z M 40.883,36.176 37.488,37.961 10.938,23.988 v -1.34 l 0.015,-0.449 c 0.231,-2.808 2.582,-5.015 5.449,-5.015 h 24.289 l 4.684,-4.688 H 16.402 l -0.574,0.016 c -5.34,0.3 -9.578,4.722 -9.578,10.136 v 29.676 l 0.016,0.574 c 0.3,5.34 4.722,9.579 10.136,9.579 h 42.172 l 0.574,-0.016 c 5.34,-0.301 9.579,-4.723 9.579,-10.137 V 29.633 l -4.688,4.683 v 18.008 l -0.016,0.449 c -0.23,2.809 -2.582,5.016 -5.449,5.016 H 16.402 l -0.449,-0.016 c -2.808,-0.23 -5.015,-2.582 -5.015,-5.449 V 29.285 l 25.46,13.399 0.297,0.132 c 0.617,0.219 1.297,0.176 1.883,-0.132 l 4.457,-2.348 c -1.07,-1.231 -1.789,-2.66 -2.152,-4.16 z" style="fill:currentColor;fill-opacity:1;fill-rule:nonzero;stroke:none" transform="scale(1.3333333)" /> </g>
</svg>

