<?xml version="1.0" encoding="UTF-8" standalone="no"?> <svg version="1.1" id="I36504b64db6c4be4b7c6661b54ae2ec520251106143238" width="100" height="100" viewBox="0 0 100 100" xmlns="http://www.w3.org/2000/svg" xmlns:svg="http://www.w3.org/2000/svg"> <defs id="If2fa3e0cb17d481c88d967870b245fa320251106143238" /> <g id="I8b264c65073a4b9fb24758312dc2f85020251106143238"> <path id="I2e280c30d72b4e35a578030157a2ff8c20251106143238" d="M 27.344,6.258 C 26.051,6.258 25,7.305 25,8.602 V 12.5 h 9.375 V 8.602 c 0,-1.297 -1.051,-2.344 -2.344,-2.344 z m 7.031,9.367 H 25 v 0.008 h -3.906 c -1.293,0 -2.344,1.047 -2.344,2.344 v 3.898 h 21.875 v -3.898 c 0,-1.297 -1.051,-2.344 -2.344,-2.344 H 34.375 Z M 53.125,50 c 1.727,0 3.125,-1.398 3.125,-3.125 0,-1.727 -1.398,-3.125 -3.125,-3.125 C 51.398,43.75 50,45.148 50,46.875 50,48.602 51.398,50 53.125,50 Z m 3.125,6.25 c 0,1.727 -1.398,3.125 -3.125,3.125 -1.727,0 -3.125,-1.398 -3.125,-3.125 0,-1.727 1.398,-3.125 3.125,-3.125 1.727,0 3.125,1.398 3.125,3.125 z m -43.75,-25 c 0,-3.414 2.738,-6.188 6.141,-6.25 h 22.093 c 3.403,0.062 6.141,2.836 6.141,6.25 v 0.016 c 9.563,0.41 17.187,8.293 17.187,17.953 v 15.625 c 0,1.297 -1.05,2.344 -2.343,2.344 H 35.156 v -9.376 c 0,-0.863 -0.699,-1.562 -1.562,-1.562 h -7.813 c -0.863,0 -1.562,0.699 -1.562,1.562 v 9.376 h -9.375 c -1.293,0 -2.344,-1.047 -2.344,-2.344 z m 46.875,17.969 c 0,-7.071 -5.527,-12.852 -12.5,-13.258 V 62.5 h 12.5 z M 38.281,34.375 c 0,-1.727 -1.398,-3.125 -3.125,-3.125 -1.726,0 -3.125,1.398 -3.125,3.125 0,1.727 1.399,3.125 3.125,3.125 1.727,0 3.125,-1.398 3.125,-3.125 z m -3.125,13.281 c 1.727,0 3.125,-1.398 3.125,-3.125 0,-1.726 -1.398,-3.125 -3.125,-3.125 -1.726,0 -3.125,1.399 -3.125,3.125 0,1.727 1.399,3.125 3.125,3.125 z M 27.344,34.375 c 0,-1.727 -1.399,-3.125 -3.125,-3.125 -1.727,0 -3.125,1.398 -3.125,3.125 0,1.727 1.398,3.125 3.125,3.125 1.726,0 3.125,-1.398 3.125,-3.125 z m -3.125,13.281 c 1.726,0 3.125,-1.398 3.125,-3.125 0,-1.726 -1.399,-3.125 -3.125,-3.125 -1.727,0 -3.125,1.399 -3.125,3.125 0,1.727 1.398,3.125 3.125,3.125 z" style="fill:currentColor;fill-opacity:1;fill-rule:nonzero;stroke:none" transform="scale(1.3333333)" /> </g>
</svg>

