<?xml version="1.0" encoding="UTF-8" standalone="no"?> <svg version="1.1" id="I84011fd79ff849e38bd90481f0c31bd520251106144521" width="100" height="100" viewBox="0 0 100 100" xmlns="http://www.w3.org/2000/svg" xmlns:svg="http://www.w3.org/2000/svg"> <defs id="I710c443169ea419bb1fc874cd80a2b8820251106144521" /> <g id="I873d6aa3048741fbb5f9448fa306820320251106144521"> <path id="Ibfeb44a3b4bc46c3abd164f34093f0af20251106144521" d="M 23.031,11.32 C 22.57,10.211 21.246,9.738 20.23,10.383 c -3.953,2.523 -7.316,5.89 -9.839,9.844 -0.649,1.011 -0.176,2.335 0.933,2.796 0.946,0.395 2.028,0.012 2.586,-0.847 2.149,-3.301 4.973,-6.121 8.274,-8.27 0.859,-0.558 1.238,-1.64 0.847,-2.586 z m 8.614,-1.336 c -1,0.211 -2.036,-0.285 -2.43,-1.23 -0.461,-1.109 0.144,-2.379 1.316,-2.641 2.246,-0.496 4.574,-0.758 6.969,-0.758 2.395,0 4.727,0.262 6.973,0.762 1.172,0.258 1.777,1.528 1.316,2.637 -0.391,0.949 -1.43,1.445 -2.43,1.23 -1.89,-0.398 -3.851,-0.609 -5.859,-0.609 -2.008,0 -3.965,0.211 -5.855,0.609 z M 63.68,23.027 c -0.95,0.391 -2.032,0.012 -2.59,-0.847 -2.149,-3.301 -4.969,-6.121 -8.27,-8.27 -0.859,-0.558 -1.238,-1.64 -0.847,-2.586 0.461,-1.113 1.785,-1.586 2.8,-0.937 3.954,2.523 7.317,5.89 9.84,9.843 0.649,1.012 0.176,2.336 -0.933,2.797 z m 2.566,22.746 c -0.945,-0.39 -1.441,-1.425 -1.23,-2.429 0.398,-1.883 0.609,-3.84 0.609,-5.844 0,-2.008 -0.211,-3.969 -0.609,-5.855 -0.215,-1.004 0.281,-2.04 1.23,-2.434 1.109,-0.457 2.379,0.144 2.641,1.316 0.496,2.246 0.758,4.578 0.758,6.973 0,2.391 -0.262,4.719 -0.758,6.957 -0.258,1.176 -1.528,1.777 -2.641,1.316 z M 51.969,63.68 c -0.395,-0.946 -0.012,-2.028 0.847,-2.586 3.305,-2.153 6.133,-4.977 8.282,-8.285 0.558,-0.86 1.64,-1.239 2.586,-0.848 1.113,0.461 1.582,1.785 0.937,2.797 -2.527,3.961 -5.894,7.332 -9.855,9.859 -1.016,0.645 -2.34,0.176 -2.797,-0.937 z m -22.746,2.566 c 0.39,-0.945 1.429,-1.441 2.429,-1.23 1.887,0.398 3.844,0.609 5.848,0.609 2.008,0 3.965,-0.211 5.852,-0.609 1,-0.211 2.039,0.285 2.429,1.23 0.461,1.109 -0.14,2.379 -1.316,2.641 -2.242,0.496 -4.574,0.758 -6.965,0.758 -2.391,0 -4.719,-0.262 -6.961,-0.758 -1.172,-0.258 -1.777,-1.528 -1.316,-2.641 z M 11.316,51.965 c 0.946,-0.391 2.032,-0.012 2.59,0.847 2.149,3.305 4.977,6.133 8.282,8.282 0.859,0.558 1.242,1.644 0.847,2.59 -0.457,1.109 -1.781,1.582 -2.797,0.937 -3.961,-2.527 -7.332,-5.898 -9.855,-9.859 -0.649,-1.012 -0.176,-2.336 0.933,-2.797 z M 8.754,29.207 c 0.949,0.395 1.445,1.43 1.234,2.434 -0.402,1.89 -0.613,3.851 -0.613,5.859 0,2.004 0.211,3.961 0.609,5.848 0.211,1.004 -0.285,2.039 -1.23,2.429 C 7.641,46.238 6.371,45.637 6.113,44.461 5.617,42.219 5.355,39.891 5.355,37.5 c 0,-2.395 0.266,-4.73 0.762,-6.977 0.258,-1.171 1.528,-1.773 2.637,-1.316 z" style="fill:currentColor;fill-opacity:1;fill-rule:nonzero;stroke:none" transform="scale(1.3333333)" /> </g>
</svg>

