<?xml version="1.0" encoding="UTF-8" standalone="no"?> <svg version="1.1" id="I1695b3f8446f45e7bab9d65141a3e5ee20251106144521" width="100" height="100" viewBox="0 0 100 100" xmlns="http://www.w3.org/2000/svg" xmlns:svg="http://www.w3.org/2000/svg"> <defs id="I7a9b8a829fc343b6bac1e5b86442704120251106144521" /> <g id="Icf9ac60ee72d48329e123273e397f1e320251106144521"> <path id="I246022ab171c411f99ce14613475959a20251106144521" d="m 32.742,64.402 c -0.871,-0.871 -1.562,-1.906 -2.035,-3.043 -0.469,-1.136 -0.711,-2.355 -0.711,-3.586 0,-1.234 0.242,-2.453 0.711,-3.589 0.473,-1.137 1.164,-2.172 2.035,-3.043 L 51.117,32.766 c 0.871,-0.871 1.903,-1.563 3.043,-2.032 1.137,-0.472 2.356,-0.714 3.586,-0.714 1.231,0 2.449,0.242 3.59,0.714 1.137,0.469 2.172,1.161 3.039,2.032 l 3,3 C 67.043,29.992 65.051,24.438 61.633,19.773 58.215,15.109 53.523,11.531 48.117,9.473 42.715,7.414 36.828,6.961 31.172,8.172 c -5.652,1.207 -10.84,4.027 -14.926,8.117 -4.09,4.09 -6.91,9.273 -8.121,14.93 -1.207,5.652 -0.758,11.539 1.301,16.941 2.058,5.406 5.636,10.098 10.304,13.516 4.665,3.418 10.219,5.414 15.993,5.746 z m 29.012,-29.004 7.855,7.875 c 0.524,0.524 0.938,1.145 1.223,1.825 0.281,0.683 0.43,1.418 0.43,2.156 0,0.738 -0.149,1.469 -0.43,2.152 -0.285,0.684 -0.699,1.305 -1.223,1.824 l -13.5,13.5 -15.808,-15.812 13.5,-13.5 c 0.523,-0.523 1.144,-0.938 1.824,-1.219 0.684,-0.285 1.418,-0.429 2.156,-0.429 0.739,0 1.469,0.144 2.153,0.429 0.683,0.281 1.304,0.696 1.824,1.219 z m -8.293,31.961 -15.813,-15.812 -2.25,2.25 c -0.519,0.523 -0.937,1.141 -1.218,1.824 -0.282,0.684 -0.43,1.414 -0.43,2.156 0,0.739 0.148,1.469 0.43,2.153 0.281,0.683 0.699,1.3 1.218,1.824 l 7.875,7.855 c 0.551,0.547 1.204,0.977 1.926,1.258 0.719,0.285 1.492,0.414 2.266,0.387 h 15.344 c 0.496,0 0.972,-0.199 1.324,-0.551 0.355,-0.351 0.551,-0.828 0.551,-1.324 0,-0.5 -0.196,-0.977 -0.551,-1.328 -0.352,-0.352 -0.828,-0.547 -1.324,-0.547 h -9.493 z" style="fill:currentColor;fill-opacity:1;fill-rule:nonzero;stroke:none" transform="scale(1.3333333)" /> </g>
</svg>

