<?xml version="1.0" encoding="UTF-8" standalone="no"?> <svg version="1.1" id="I3658e17d888c4bd3b2c229fa8738e79120251106132945" width="100" height="100" viewBox="0 0 100 100" xmlns="http://www.w3.org/2000/svg" xmlns:svg="http://www.w3.org/2000/svg"> <defs id="Ic198e5e3f1614d17919965b19f75063820251106132945" /> <g id="I6dc9f5b76aad40359c7eb641973bb65f20251106132945"> <path id="Iac7bf998d6ff4dfca0a820983744a19720251106132945" d="M 67.285,20.484 C 67.152,20.156 66.949,19.848 66.684,19.578 L 66.676,19.574 66.672,19.566 C 66.16,19.062 65.461,18.75 64.688,18.75 H 44.062 c -1.554,0 -2.812,1.258 -2.812,2.812 0,1.555 1.258,2.813 2.812,2.813 H 57.898 L 39.375,42.898 31.988,35.512 c -1.097,-1.098 -2.879,-1.098 -3.976,0 L 8.324,55.199 c -1.097,1.098 -1.097,2.879 0,3.977 1.098,1.097 2.879,1.097 3.977,0 L 30,41.477 l 7.387,7.386 c 1.097,1.098 2.879,1.098 3.976,0 L 61.875,28.352 v 13.836 c 0,1.554 1.258,2.812 2.813,2.812 1.554,0 2.812,-1.258 2.812,-2.812 V 21.562 c 0,-0.382 -0.074,-0.746 -0.215,-1.078 z" style="fill:currentColor;fill-opacity:1;fill-rule:nonzero;stroke:none" transform="scale(1.3333333)" /> </g>
</svg>

