<?xml version="1.0" encoding="UTF-8" standalone="no"?>
<!-- Created with Inkscape (http://www.inkscape.org/) -->

<svg
   version="1.1"
   id="I16e89ceb96f74fd6bdbe2ca18b0aeb6220251030155105"
   width="100"
   height="100"
   viewBox="0 0 100 100"
   sodipodi:docname="output.ai"
   xmlns:inkscape="http://www.inkscape.org/namespaces/inkscape"
   xmlns:sodipodi="http://sodipodi.sourceforge.net/DTD/sodipodi-0.dtd"
   xmlns="http://www.w3.org/2000/svg"
   xmlns:svg="http://www.w3.org/2000/svg">
  <defs
     id="I4f603e5674904d49a5d6d5b735b1b68f20251030155105" />
  <sodipodi:namedview
     id="I54cb3c55f19d43f99ddf4f22ecefad7520251030155105"
     pagecolor="#ffffff"
     bordercolor="#000000"
     borderopacity="0.25"
     inkscape:showpageshadow="2"
     inkscape:pageopacity="0.0"
     inkscape:pagecheckerboard="0"
     inkscape:deskcolor="#d1d1d1">
    <inkscape:page
       x="0"
       y="0"
       inkscape:label="1"
       id="I2459ec53b2dc4061925131cb05144b0420251030155105"
       width="100"
       height="100"
       margin="0"
       bleed="0" />
  </sodipodi:namedview>
  <g
     id="Ib0616979189b43c292a375525d73de4620251030155105"
     inkscape:groupmode="layer"
     inkscape:label="1">
    <path
       id="I4f08f59d6f244afcad772a7d3e37aa4b20251030155105"
       d="m 50,6.25 c 10.355,0 18.75,8.395 18.75,18.75 0,4.805 -1.82,9.324 -5.012,12.762 l -0.593,0.609 -27.274,27.27 -0.164,0.156 -0.176,0.141 c -2.09,1.8 -4.761,2.812 -7.586,2.812 -6.422,0 -11.629,-5.207 -11.629,-11.629 0,-2.816 1.012,-5.48 2.801,-7.566 l 0.465,-0.508 0.047,-0.039 22.781,-22.824 c 1.223,-1.223 3.199,-1.223 4.422,-0.004 1.223,1.218 1.223,3.199 0.004,4.418 l -22.785,22.824 -0.035,0.027 c -0.926,0.992 -1.45,2.285 -1.45,3.672 0,2.973 2.411,5.379 5.379,5.379 1.188,0 2.305,-0.383 3.223,-1.07 l 0.383,-0.317 0.004,0.004 L 58.75,33.93 59.242,33.414 C 61.324,31.133 62.5,28.164 62.5,25 62.5,18.098 56.902,12.5 50,12.5 c -3.316,0 -6.422,1.297 -8.734,3.559 l -0.485,0.5 -0.058,0.039 -29.141,29.152 c -1.219,1.223 -3.199,1.223 -4.418,0 C 5.941,44.531 5.941,42.555 7.16,41.332 L 36.254,12.23 36.398,12.094 C 39.91,8.395 44.785,6.25 50,6.25 Z"
       style="fill:#212121;fill-opacity:1;fill-rule:nonzero;stroke:none"
       transform="scale(1.3333333)" />
  </g>
</svg>

