<?xml version="1.0" encoding="UTF-8" standalone="no"?> <svg version="1.1" id="I5dc42dafe36c4c6cb9ee5e4f1231b35f20251110130510" width="100" height="100" viewBox="0 0 100 100" xmlns="http://www.w3.org/2000/svg" xmlns:svg="http://www.w3.org/2000/svg"> <defs id="Icaceea4164bb4c09ab4b82e3e9557a7920251110130510" /> <g id="I079decab9a5d4c0880b21866a0b61d6f20251110130510"> <path id="I2b786b4dfc9c4848ae56a963210fd32920251110130510" d="m 6.25,18.75 c 0,-1.727 1.398,-3.125 3.125,-3.125 H 56.25 c 1.727,0 3.125,1.398 3.125,3.125 0,1.727 -1.398,3.125 -3.125,3.125 H 9.375 C 7.648,21.875 6.25,20.477 6.25,18.75 Z m 0,37.5 c 0,-1.727 1.398,-3.125 3.125,-3.125 H 43.75 c 1.727,0 3.125,1.398 3.125,3.125 0,1.727 -1.398,3.125 -3.125,3.125 H 9.375 C 7.648,59.375 6.25,57.977 6.25,56.25 Z M 9.375,34.375 c -1.727,0 -3.125,1.398 -3.125,3.125 0,1.727 1.398,3.125 3.125,3.125 h 56.25 c 1.727,0 3.125,-1.398 3.125,-3.125 0,-1.727 -1.398,-3.125 -3.125,-3.125 z" style="fill:currentColor;fill-opacity:1;fill-rule:nonzero;stroke:none" transform="scale(1.3333333)" /> </g>
</svg>

