<?xml version="1.0" encoding="UTF-8" standalone="no"?> <svg version="1.1" id="I70ce099d788848bcaf2faef6209dac2c20251106170955" width="100" height="100" viewBox="0 0 100 100" xmlns="http://www.w3.org/2000/svg" xmlns:svg="http://www.w3.org/2000/svg"> <defs id="I5b04335186b947fa9f6669086f93dd2220251106170955" /> <g id="I0152c7ea9d3c4cbd9a6dd5d4f13efb7320251106170955"> <path id="Ic1c5f3bc58654d55a5875964064cf47220251106170955" d="m 6.25,17.969 c 0,-1.293 1.051,-2.344 2.344,-2.344 h 48.437 c 1.293,0 2.344,1.051 2.344,2.344 0,1.293 -1.051,2.343 -2.344,2.343 H 8.594 c -1.293,0 -2.344,-1.05 -2.344,-2.343 z m 0,37.5 c 0,-1.293 1.051,-2.344 2.344,-2.344 h 39.062 c 1.293,0 2.344,1.051 2.344,2.344 0,1.293 -1.051,2.343 -2.344,2.343 H 8.594 c -1.293,0 -2.344,-1.05 -2.344,-2.343 z M 8.594,34.375 c -1.293,0 -2.344,1.051 -2.344,2.344 0,1.293 1.051,2.343 2.344,2.343 h 57.812 c 1.293,0 2.344,-1.05 2.344,-2.343 0,-1.293 -1.051,-2.344 -2.344,-2.344 z" style="fill:currentColor;fill-opacity:1;fill-rule:nonzero;stroke:none" transform="scale(1.3333333)" /> </g>
</svg>

