<?xml version="1.0" encoding="UTF-8" standalone="no"?> <svg version="1.1" id="I022af152ab5a4f2c94573d7bbad1874c20251110123030" width="100" height="100" viewBox="0 0 100 100" xmlns="http://www.w3.org/2000/svg" xmlns:svg="http://www.w3.org/2000/svg"> <defs id="I8ba039642f8c49b29bfdb5392329d4a620251110123030" /> <g id="I2450e51684d64e1aa3e7909c733a74cd20251110123030"> <path id="I9ec1c6cee01c41dc87afbc8fd93eb92820251110123030" d="m 11.172,20.969 c 0.25,0.25 0.484,0.515 0.699,0.793 0.586,0.758 1.039,1.609 1.34,2.523 l 1.332,4.098 c 0.113,0.316 0.32,0.59 0.594,0.785 0.273,0.191 0.597,0.297 0.933,0.297 0.336,0 0.664,-0.106 0.938,-0.297 0.242,-0.172 0.433,-0.41 0.551,-0.684 0.015,-0.031 0.027,-0.066 0.039,-0.101 l 1.332,-4.098 c 0.418,-1.242 1.117,-2.375 2.043,-3.305 0.929,-0.929 2.062,-1.625 3.308,-2.039 l 4.102,-1.332 c 0.316,-0.113 0.59,-0.32 0.785,-0.593 0.191,-0.274 0.297,-0.598 0.297,-0.934 0,-0.336 -0.106,-0.66 -0.297,-0.934 -0.195,-0.273 -0.469,-0.48 -0.785,-0.593 l -0.082,-0.02 -4.102,-1.332 C 22.953,12.789 21.82,12.09 20.891,11.16 19.965,10.234 19.266,9.102 18.848,7.855 L 17.516,3.758 C 17.406,3.441 17.199,3.168 16.926,2.977 16.652,2.781 16.324,2.68 15.988,2.68 c -0.336,0 -0.66,0.101 -0.933,0.297 -0.274,0.191 -0.481,0.464 -0.594,0.781 l -1.332,4.097 -0.035,0.102 c -0.41,1.199 -1.082,2.289 -1.973,3.191 -0.914,0.926 -2.031,1.629 -3.262,2.055 l -4.101,1.332 c -0.313,0.11 -0.59,0.317 -0.781,0.59 -0.196,0.273 -0.297,0.602 -0.297,0.937 0,0.333 0.101,0.661 0.297,0.934 0.191,0.274 0.468,0.481 0.781,0.59 l 4.101,1.332 c 1.25,0.418 2.383,1.121 3.313,2.051 z m 23.172,9.453 2.457,0.801 0.051,0.011 c 0.191,0.067 0.355,0.192 0.468,0.356 0.118,0.164 0.18,0.359 0.18,0.558 0,0.204 -0.062,0.399 -0.18,0.563 -0.113,0.164 -0.277,0.285 -0.468,0.355 l -2.461,0.797 c -0.746,0.25 -1.426,0.668 -1.985,1.227 -0.558,0.555 -0.976,1.234 -1.226,1.98 l -0.797,2.461 c -0.071,0.188 -0.192,0.352 -0.356,0.469 -0.164,0.117 -0.363,0.18 -0.562,0.18 -0.203,0 -0.399,-0.063 -0.563,-0.18 -0.164,-0.117 -0.289,-0.281 -0.355,-0.469 L 27.75,37.07 c -0.25,-0.746 -0.668,-1.429 -1.227,-1.988 -0.554,-0.559 -1.238,-0.98 -1.984,-1.23 l -2.461,-0.801 c -0.191,-0.067 -0.355,-0.188 -0.473,-0.352 -0.113,-0.164 -0.175,-0.363 -0.175,-0.562 0,-0.199 0.062,-0.399 0.175,-0.563 0.118,-0.164 0.282,-0.285 0.473,-0.351 l 2.461,-0.801 c 0.738,-0.254 1.406,-0.676 1.957,-1.234 0.547,-0.555 0.961,-1.231 1.203,-1.973 L 28.5,24.754 c 0.066,-0.188 0.191,-0.352 0.355,-0.469 0.165,-0.117 0.36,-0.18 0.559,-0.18 0.203,0 0.398,0.063 0.563,0.18 0.164,0.117 0.289,0.281 0.355,0.469 l 0.801,2.461 c 0.246,0.746 0.668,1.426 1.222,1.98 0.559,0.559 1.239,0.977 1.989,1.227 z M 54.508,11.277 37.234,28.555 35.355,27.965 c -0.339,-0.133 -0.652,-0.336 -0.91,-0.59 -0.277,-0.258 -0.48,-0.582 -0.59,-0.937 L 33.809,26.297 51.668,8.438 c 4.113,-4.114 10.781,-4.114 14.894,0 4.114,4.113 4.114,10.781 0,14.894 l -4.124,4.125 c 3.273,3.406 3.23,8.824 -0.129,12.18 L 57,44.945 c -0.785,0.785 -2.055,0.785 -2.84,0 -0.785,-0.781 -0.785,-2.054 0,-2.84 l 5.309,-5.308 c 1.789,-1.789 1.832,-4.66 0.125,-6.5 L 26.957,62.941 c -1.184,1.18 -2.645,2.036 -4.254,2.485 l -14.797,4.14 c -0.699,0.2 -1.449,0 -1.961,-0.511 C 5.434,68.539 5.234,67.789 5.43,67.094 L 9.574,52.293 c 0.449,-1.605 1.305,-3.07 2.485,-4.25 L 23.703,36.402 c 0.344,0.11 0.656,0.305 0.91,0.563 0.27,0.258 0.473,0.582 0.59,0.937 l 0.66,2.024 -10.961,10.961 c -0.691,0.691 -1.195,1.551 -1.457,2.492 l -3.183,11.355 11.359,-3.179 c 0.941,-0.262 1.801,-0.766 2.492,-1.457 L 63.719,20.492 c 2.547,-2.547 2.547,-6.672 0,-9.215 -2.543,-2.543 -6.668,-2.543 -9.211,0 z" style="fill:currentColor;fill-opacity:1;fill-rule:nonzero;stroke:none" transform="scale(1.3333333)" /> </g>
</svg>

