<?xml version="1.0" encoding="UTF-8" standalone="no"?> <svg version="1.1" id="I09466427fb8e4dddbbf2f73c5b6f5d0020251106142136" width="100" height="100" viewBox="0 0 100 100" xmlns="http://www.w3.org/2000/svg" xmlns:svg="http://www.w3.org/2000/svg"> <defs id="Iee123ec456964275a77ba4f256ea2bc320251106142136" /> <g id="Ia0db3d49bf084b999c83c00e1239c5c520251106142136"> <path id="Ib28c1b9558e94bc5a64e13d7964c63fb20251106142136" d="m 16.406,9.375 h 27.539 c 1.617,0 2.93,1.313 2.93,2.93 v 20.507 c 0,1.293 1.051,2.344 2.344,2.344 h 8.789 c 1.617,0 2.93,1.313 2.93,2.93 v 27.539 h -7.032 v -8.203 c 0,-1.942 -1.574,-3.516 -3.515,-3.516 H 24.609 c -1.941,0 -3.515,1.574 -3.515,3.516 v 8.203 H 14.062 V 11.719 c 0,-1.293 1.051,-2.344 2.344,-2.344 z m 32.813,56.25 h -9.375 v -7.031 h 9.375 z m -14.063,0 h -9.375 v -7.031 h 9.375 z m 28.125,4.687 c 1.293,0 2.344,-1.05 2.344,-2.343 V 38.086 c 0,-4.207 -3.41,-7.617 -7.617,-7.617 H 51.562 V 12.305 c 0,-4.207 -3.41,-7.617 -7.617,-7.617 H 16.406 c -3.883,0 -7.031,3.148 -7.031,7.031 v 56.25 c 0,1.293 1.051,2.343 2.344,2.343 z M 24.609,23.438 c 1.942,0 3.516,-1.575 3.516,-3.516 0,-1.942 -1.574,-3.516 -3.516,-3.516 -1.941,0 -3.515,1.574 -3.515,3.516 0,1.941 1.574,3.516 3.515,3.516 z m 0,11.718 c 1.942,0 3.516,-1.574 3.516,-3.515 0,-1.942 -1.574,-3.516 -3.516,-3.516 -1.941,0 -3.515,1.574 -3.515,3.516 0,1.941 1.574,3.515 3.515,3.515 z m 3.516,8.203 c 0,1.942 -1.574,3.516 -3.516,3.516 -1.941,0 -3.515,-1.574 -3.515,-3.516 0,-1.941 1.574,-3.515 3.515,-3.515 1.942,0 3.516,1.574 3.516,3.515 z m 8.203,-19.921 c 1.942,0 3.516,-1.575 3.516,-3.516 0,-1.942 -1.574,-3.516 -3.516,-3.516 -1.941,0 -3.516,1.574 -3.516,3.516 0,1.941 1.575,3.516 3.516,3.516 z m 3.516,8.203 c 0,1.941 -1.574,3.515 -3.516,3.515 -1.941,0 -3.516,-1.574 -3.516,-3.515 0,-1.942 1.575,-3.516 3.516,-3.516 1.942,0 3.516,1.574 3.516,3.516 z m -3.516,15.234 c 1.942,0 3.516,-1.574 3.516,-3.516 0,-1.941 -1.574,-3.515 -3.516,-3.515 -1.941,0 -3.516,1.574 -3.516,3.515 0,1.942 1.575,3.516 3.516,3.516 z m 15.234,-3.516 c 0,1.942 -1.574,3.516 -3.515,3.516 -1.942,0 -3.516,-1.574 -3.516,-3.516 0,-1.941 1.574,-3.515 3.516,-3.515 1.941,0 3.515,1.574 3.515,3.515 z" style="fill:currentColor;fill-opacity:1;fill-rule:nonzero;stroke:none" transform="scale(1.3333333)" /> </g>
</svg>

