<?xml version="1.0" encoding="UTF-8" standalone="no"?> <svg version="1.1" id="I26150b1b2dc44d70adec271cf2917d1520251106144521" width="100" height="100" viewBox="0 0 100 100" xmlns="http://www.w3.org/2000/svg" xmlns:svg="http://www.w3.org/2000/svg"> <defs id="If73908055d82482aacb0b9097ed28b5220251106144521" /> <g id="I213633a09c404552a6f95ee1d089b2d920251106144521"> <path id="Ica4f46a972ff47fda6e0078cfeda4bde20251106144521" d="m 11.25,22.5 c 0,-6.215 5.035,-11.25 11.25,-11.25 h 30 c 6.215,0 11.25,5.035 11.25,11.25 v 30 c 0,6.215 -5.035,11.25 -11.25,11.25 h -30 C 16.285,63.75 11.25,58.715 11.25,52.5 Z M 22.5,15 C 18.359,15 15,18.359 15,22.5 v 30 c 0,4.141 3.359,7.5 7.5,7.5 h 30 c 4.141,0 7.5,-3.359 7.5,-7.5 v -30 C 60,18.359 56.641,15 52.5,15 Z" style="fill:currentColor;fill-opacity:1;fill-rule:nonzero;stroke:none" transform="scale(1.3333333)" /> </g>
</svg>

