<?xml version="1.0" encoding="UTF-8" standalone="no"?> <svg version="1.1" id="I303c0315bd73466a90fb81493ec289c320251106171633" width="100" height="100" viewBox="0 0 100 100" xmlns="http://www.w3.org/2000/svg" xmlns:svg="http://www.w3.org/2000/svg"> <defs id="Idc733bd055854cf3bd332a79c4979e2f20251106171633" /> <g id="Ic00120920e5d4aea82b70b5e0d241e1720251106171633"> <path id="Ib580cd7fd1fe46e6abb9dbb825e5d2c920251106171633" d="m 37.5,40.816 27.25,27.246 c 0.914,0.918 2.398,0.918 3.312,0 0.915,-0.914 0.915,-2.398 0,-3.312 L 10.25,6.938 C 9.336,6.02 7.852,6.02 6.938,6.938 6.02,7.852 6.02,9.336 6.938,10.25 L 32.812,36.129 V 46.492 C 30.672,44.777 27.957,43.75 25,43.75 c -6.902,0 -12.5,5.598 -12.5,12.5 0,6.902 5.598,12.5 12.5,12.5 6.441,0 11.746,-4.871 12.426,-11.133 C 37.473,57.43 37.5,57.234 37.5,57.031 Z M 32.812,56.25 c 0,4.316 -3.496,7.812 -7.812,7.812 -4.316,0 -7.812,-3.496 -7.812,-7.812 0,-4.316 3.496,-7.812 7.812,-7.812 4.316,0 7.812,3.496 7.812,7.812 z M 59.332,35.789 37.57,27.629 32.812,22.867 V 8.594 c 0,-0.77 0.376,-1.489 1.008,-1.926 0.633,-0.438 1.438,-0.539 2.16,-0.27 l 19.93,7.477 c 3.965,1.484 6.59,5.273 6.59,9.508 v 10.211 c 0,0.769 -0.375,1.488 -1.008,1.926 -0.633,0.437 -1.437,0.539 -2.16,0.269 z m -1.52,-5.578 v -6.828 c 0,-2.281 -1.414,-4.321 -3.546,-5.121 L 37.5,11.977 v 10.617 z" style="fill:currentColor;fill-opacity:1;fill-rule:nonzero;stroke:none" transform="scale(1.3333333)" /> </g>
</svg>

