<?xml version="1.0" encoding="UTF-8" standalone="no"?> <svg version="1.1" id="I2eba2960ca594cda9e8e3b3f19a2640d20251106125938" width="100" height="100" viewBox="0 0 100 100" xmlns="http://www.w3.org/2000/svg" xmlns:svg="http://www.w3.org/2000/svg"> <defs id="I2c3903ef2a6a427fb303fed9fa9d833c20251106125938" /> <g id="I3cb43bbc4d6d4b798683def3fa5c860b20251106125938"> <path id="Id0b6373d24a04e9fb358c96a4994390e20251106125938" d="m 56.25,66.406 c 0,1.293 -1.051,2.344 -2.344,2.344 -1.293,0 -2.344,-1.051 -2.344,-2.344 V 14.254 l -6.937,6.934 c -0.914,0.917 -2.398,0.917 -3.313,0 -0.917,-0.915 -0.917,-2.399 0,-3.313 L 52.25,6.938 c 0.914,-0.918 2.398,-0.918 3.312,0 L 66.5,17.875 c 0.918,0.914 0.918,2.398 0,3.313 -0.914,0.917 -2.398,0.917 -3.312,0 L 56.25,14.254 Z M 8.594,60.938 c -1.293,0 -2.344,-1.051 -2.344,-2.344 0,-1.293 1.051,-2.344 2.344,-2.344 h 32.812 c 1.293,0 2.344,1.051 2.344,2.344 0,1.293 -1.051,2.344 -2.344,2.344 z M 18.75,46.094 c 0,1.293 1.051,2.344 2.344,2.344 h 20.312 c 1.293,0 2.344,-1.051 2.344,-2.344 0,-1.293 -1.051,-2.344 -2.344,-2.344 H 21.094 c -1.293,0 -2.344,1.051 -2.344,2.344 z M 33.594,35.938 c -1.293,0 -2.344,-1.051 -2.344,-2.344 0,-1.293 1.051,-2.344 2.344,-2.344 h 7.812 c 1.293,0 2.344,1.051 2.344,2.344 0,1.293 -1.051,2.344 -2.344,2.344 z" style="fill:currentColor;fill-opacity:1;fill-rule:nonzero;stroke:none" transform="scale(1.3333333)" /> </g>
</svg>

