<?xml version="1.0" encoding="UTF-8" standalone="no"?> <svg version="1.1" id="I67bfe3a22de943f78284d3cd02e97d8620251106165302" width="100" height="100" viewBox="0 0 100 100" xmlns="http://www.w3.org/2000/svg" xmlns:svg="http://www.w3.org/2000/svg"> <defs id="Ibc10390b6e0942799ec98b68a565cfa120251106165302" /> <g id="I26e550748c2948678c62571f25fddd8f20251106165302"> <path id="I289a0f1c77234da0b1c7c7ea33495b5220251106165302" d="m 43.188,62.629 c -0.383,1.422 -0.969,2.75 -1.762,3.98 -0.383,0.594 -0.895,1.094 -1.496,1.461 -2.078,1.27 -4.758,0.731 -6.211,-1.215 l -0.258,-0.382 -0.387,-0.68 c -0.519,-0.981 -0.929,-2.035 -1.23,-3.168 -0.551,-2.082 -0.711,-4.211 -0.485,-6.379 l 12.282,0.004 c 0.23,2.254 0.082,4.383 -0.453,6.379 z M 57.742,28.121 46.914,50.266 c -0.695,1.418 -1.953,2.445 -3.426,2.859 L 31.805,53.121 31.473,53.027 c -1.161,-0.398 -2.168,-1.187 -2.84,-2.25 L 28.371,50.305 17.301,28.121 Z M 63.281,6.242 c 1.188,0 2.168,0.883 2.321,2.028 l 0.023,0.316 v 10.937 c 0,2.872 -2.211,5.223 -5.02,5.454 l -0.449,0.015 H 14.852 c -2.872,0 -5.223,-2.207 -5.454,-5.019 L 9.383,19.523 V 8.586 c 0,-1.184 0.879,-2.164 2.023,-2.32 l 0.321,-0.024 z" style="fill:currentColor;fill-opacity:1;fill-rule:nonzero;stroke:none" transform="scale(1.3333333)" /> </g>
</svg>

