<?xml version="1.0" encoding="UTF-8" standalone="no"?> <svg version="1.1" id="I5fdafabf04084d1e877e6ff91875e50020251106171633" width="100" height="100" viewBox="0 0 100 100" xmlns="http://www.w3.org/2000/svg" xmlns:svg="http://www.w3.org/2000/svg"> <defs id="I82a26e637f6e49bda0ed1cf8bf38845620251106171633" /> <g id="I9fe1735dba2d45d4a817da9a43cddf0620251106171633"> <path id="If6bb91fffd5d452dbb24b87e4c9a223720251106171633" d="m 9.375,55.469 c 0,5.609 4.547,10.156 10.156,10.156 h 15.36 l 1.113,-4.449 c 0.019,-0.078 0.039,-0.16 0.062,-0.238 H 19.531 c -3.019,0 -5.469,-2.45 -5.469,-5.469 V 34.375 h 10.157 l 0.578,-0.016 c 5.34,-0.3 9.578,-4.726 9.578,-10.14 V 14.062 h 21.094 c 3.019,0 5.469,2.45 5.469,5.469 v 15.571 c 1.496,-0.594 3.105,-0.825 4.687,-0.688 V 19.531 C 65.625,13.922 61.078,9.375 55.469,9.375 H 33.973 c -1.864,0 -3.653,0.742 -4.973,2.059 L 11.434,29 c -1.317,1.32 -2.059,3.109 -2.059,4.973 z M 24.219,29.688 h -6.84 L 29.688,17.379 v 6.84 l -0.02,0.449 c -0.227,2.809 -2.578,5.02 -5.449,5.02 z m 35.469,9.906 -18.446,18.445 c -1.074,1.074 -1.84,2.422 -2.207,3.899 l -1.43,5.718 c -0.621,2.489 1.629,4.742 4.118,4.121 l 5.722,-1.433 c 1.477,-0.367 2.825,-1.129 3.899,-2.207 L 69.789,49.695 c 2.789,-2.793 2.789,-7.312 0,-10.101 -2.789,-2.793 -7.312,-2.793 -10.101,0 z" style="fill:currentColor;fill-opacity:1;fill-rule:nonzero;stroke:none" transform="scale(1.3333333)" /> </g>
</svg>

