<?xml version="1.0" encoding="UTF-8" standalone="no"?> <svg version="1.1" id="Ic713310bfc64454587b82b8558ba9a0420251106123559" width="100" height="100" viewBox="0 0 100 100" xmlns="http://www.w3.org/2000/svg" xmlns:svg="http://www.w3.org/2000/svg"> <defs id="I70af54a4ce16455db9e88bd3adf7f33320251106123559"> <linearGradient x1="2" y1="4" x2="12.9891" y2="15.4886" gradientUnits="userSpaceOnUse" gradientTransform="scale(2.678571)" spreadMethod="pad" id="Ifafdf2f1c80947f4a1b2f19f3f3cc97d20251106123559"> <stop style="stop-opacity:1;stop-color:#b9c0c7" offset="0" id="I6d210e665c8b4f1b9213d332147f718020251106123559" /> <stop style="stop-opacity:1;stop-color:#889096" offset="1" id="Ied627efff0b24aa297225a1b7f4df5a120251106123559" /> </linearGradient> <linearGradient x1="24" y1="25.1786" x2="13.3214" y2="14.5" gradientUnits="userSpaceOnUse" gradientTransform="scale(2.678571)" spreadMethod="pad" id="If6ed806f91e94f52864a026bb6f3d54720251106123559"> <stop style="stop-opacity:1;stop-color:#63686e" offset="0" id="I13c8188b0c224bebacf42b2bb32a450a20251106123559" /> <stop style="stop-opacity:1;stop-color:#889096" offset="1" id="I7e111a20cc7b4fe1aec5e80e2b40860b20251106123559" /> </linearGradient> <linearGradient x1="2" y1="14.5" x2="13.5" y2="21.8929" gradientUnits="userSpaceOnUse" gradientTransform="scale(2.678571)" spreadMethod="pad" id="I318e0d6092d64173a890c9ad99ea10a520251106123559"> <stop style="stop-opacity:1;stop-color:#55595e" offset="0" id="I92e6f7167762408f8e24b2c453a47f6020251106123559" /> <stop style="stop-opacity:1;stop-color:#383b3d" offset="1" id="I74fb5967ff49483c989ec1ee390324dc20251106123559" /> </linearGradient> <linearGradient x1="23.507099" y1="12.333" x2="16.124599" y2="3.2334099" gradientUnits="userSpaceOnUse" gradientTransform="scale(2.678571)" spreadMethod="pad" id="I66cb811b982643c4b0b35dff4d9e554e20251106123559"> <stop style="stop-opacity:1;stop-color:#2764e7" offset="0" id="I6fd832067a1943c7b56c6a5e828582d720251106123559" /> <stop style="stop-opacity:1;stop-color:#36dff1" offset="1" id="I2e78e7965f814eaf9948254e51fd42d220251106123559" /> </linearGradient> </defs> <g id="I50398e626f124ba6be5b41285d01590820251106123559"> <path id="I7f77e9ed9dfd4dbc866aae32fd7f60a420251106123559" d="m 5.355,16.742 c 0,-3.328 2.7,-6.027 6.028,-6.027 h 18.75 c 3.328,0 6.027,2.699 6.027,6.027 V 37.5 c 0,1.48 -1.199,2.68 -2.68,2.68 H 8.035 c -1.48,0 -2.68,-1.2 -2.68,-2.68 z" transform="scale(1.3333333)" style="fill:url(#Ifafdf2f1c80947f4a1b2f19f3f3cc97d20251106123559);stroke:none" /> <path id="I56361fdd664f452894fd247ed206a1c120251106123559" d="m 58.258,38.84 c 3.328,0 6.027,2.699 6.027,6.027 v 18.75 c 0,3.328 -2.699,6.028 -6.027,6.028 H 36.16 c -1.48,0 -2.68,-1.2 -2.68,-2.68 V 41.52 c 0,-1.481 1.2,-2.68 2.68,-2.68 z" transform="scale(1.3333333)" style="fill:url(#If6ed806f91e94f52864a026bb6f3d54720251106123559);stroke:none" /> <path id="I87653b26806048d8988257964d74500d20251106123559" d="m 36.16,66.965 c 0,1.48 -1.199,2.68 -2.68,2.68 H 10.043 c -2.586,0 -4.688,-2.102 -4.688,-4.688 V 41.52 c 0,-1.481 1.2,-2.68 2.68,-2.68 H 33.48 c 1.481,0 2.68,1.199 2.68,2.68 z" transform="scale(1.3333333)" style="fill:url(#I318e0d6092d64173a890c9ad99ea10a520251106123559);stroke:none" /> <path id="I0cb18baf35d848d29a9be63ec4d431da20251106123559" d="m 47.305,7.117 c 2.351,-2.351 6.168,-2.351 8.519,0 l 12.059,12.055 c 2.351,2.355 2.351,6.172 0,8.527 L 55.832,39.758 c -2.355,2.351 -6.172,2.351 -8.523,0 L 35.254,27.703 C 32.898,25.348 32.898,21.531 35.25,19.176 Z" transform="scale(1.3333333)" style="fill:url(#I66cb811b982643c4b0b35dff4d9e554e20251106123559);stroke:none" /> </g>
</svg>

