<?xml version="1.0" encoding="UTF-8" standalone="no"?> <svg version="1.1" id="Id0de5679f0834553a63603ff9cc9e54920251106171633" width="100" height="100" viewBox="0 0 100 100" xmlns="http://www.w3.org/2000/svg" xmlns:svg="http://www.w3.org/2000/svg"> <defs id="Ifc48676444dd40099388982864034eb920251106171633" /> <g id="I257ad9921e9a497e84e3df9a0736a17d20251106171633"> <path id="I4d6cffcec6d44b20b8a6468cfafbfda920251106171633" d="m 25.445,37.5 c 0,2.219 -1.797,4.02 -4.015,4.02 -2.219,0 -4.02,-1.801 -4.02,-4.02 0,-2.219 1.801,-4.02 4.02,-4.02 2.218,0 4.015,1.801 4.015,4.02 z m 16.075,0 c 0,2.219 -1.801,4.02 -4.02,4.02 -2.219,0 -4.02,-1.801 -4.02,-4.02 0,-2.219 1.801,-4.02 4.02,-4.02 2.219,0 4.02,1.801 4.02,4.02 z m 16.07,0 c 0,2.219 -1.801,4.02 -4.02,4.02 -2.218,0 -4.015,-1.801 -4.015,-4.02 0,-2.219 1.797,-4.02 4.015,-4.02 2.219,0 4.02,1.801 4.02,4.02 z M 37.5,5.355 C 19.746,5.355 5.355,19.746 5.355,37.5 5.355,55.254 19.746,69.645 37.5,69.645 55.254,69.645 69.645,55.254 69.645,37.5 69.645,19.746 55.254,5.355 37.5,5.355 Z M 9.375,37.5 C 9.375,21.969 21.969,9.375 37.5,9.375 53.031,9.375 65.625,21.969 65.625,37.5 65.625,53.031 53.031,65.625 37.5,65.625 21.969,65.625 9.375,53.031 9.375,37.5 Z" style="fill:currentColor;fill-opacity:1;fill-rule:nonzero;stroke:none" transform="scale(1.3333333)" /> </g>
</svg>

