<?xml version="1.0" encoding="UTF-8" standalone="no"?> <svg version="1.1" id="Ie8493bdf164c4653ac57966496de918520251110130508" width="100" height="100" viewBox="0 0 100 100" xmlns="http://www.w3.org/2000/svg" xmlns:svg="http://www.w3.org/2000/svg"> <defs id="I2169662643ec4efea2e4a880fc4836a420251110130508" /> <g id="Ice79953de6bf400aa14567479472471c20251110130508"> <path id="Icf91ee0d838b405f9d7cd653768c29db20251110130508" d="m 16.406,20.312 c -3.883,0 -7.031,3.149 -7.031,7.032 v 14.062 c 0,3.883 3.148,7.032 7.031,7.032 H 25 V 20.312 Z" style="fill:currentColor;fill-opacity:1;fill-rule:nonzero;stroke:none" transform="scale(1.3333333)" /> <path id="I88790a3749a149b5b729d768ca61b35120251110130508" d="m 39.027,46.453 c -0.605,0.602 -1.136,1.27 -1.589,1.985 h -7.75 V 20.312 h 15.624 v 19.852 z" style="fill:currentColor;fill-opacity:1;fill-rule:nonzero;stroke:none" transform="scale(1.3333333)" /> <path id="I52eb4cd906ab45808bbf8300498f950520251110130508" d="m 64.734,25 c 0.164,0 0.328,0.004 0.496,0.012 -0.964,-2.739 -3.57,-4.7 -6.636,-4.7 H 50 v 15.165 l 7.473,-7.469 C 59.473,26.004 62.105,25 64.727,25 Z" style="fill:currentColor;fill-opacity:1;fill-rule:nonzero;stroke:none" transform="scale(1.3333333)" /> <path id="Idd5a2489119a491dac066f87b97d128420251110130508" d="m 64.734,28.125 h -0.007 c -1.825,0 -3.653,0.699 -5.047,2.094 L 41.234,48.664 c -1.074,1.074 -1.836,2.422 -2.207,3.898 l -1.429,5.719 c -0.621,2.489 1.632,4.742 4.121,4.121 l 5.719,-1.433 c 1.476,-0.367 2.824,-1.129 3.898,-2.207 L 69.781,40.32 c 2.789,-2.793 2.789,-7.312 0,-10.101 -1.394,-1.395 -3.219,-2.094 -5.047,-2.094 z" style="fill:currentColor;fill-opacity:1;fill-rule:nonzero;stroke:none" transform="scale(1.3333333)" /> </g>
</svg>

