<?xml version="1.0" encoding="UTF-8" standalone="no"?> <svg version="1.1" id="I5c93e6772b374ad68dd594557dfd57ca20251110124422" width="100" height="100" viewBox="0 0 100 100" xmlns="http://www.w3.org/2000/svg" xmlns:svg="http://www.w3.org/2000/svg"> <defs id="I4c5769c01e554b57a168a334262e0bf020251110124422" /> <g id="I301593c2a5ec49519ab89171a3f8278220251110124422"> <path id="I5b24490e10cb471186679781653ad9a420251110124422" d="m 14.844,12.5 c -4.746,0 -8.594,3.848 -8.594,8.594 v 32.812 c 0,4.746 3.848,8.594 8.594,8.594 h 21.09 c -1.004,-2.406 -1.559,-5.043 -1.559,-7.812 0,-11.219 9.094,-20.313 20.313,-20.313 5.457,0 10.414,2.152 14.062,5.656 V 21.094 C 68.75,16.348 64.902,12.5 60.156,12.5 Z M 23.438,25 h 28.124 c 2.59,0 4.688,2.098 4.688,4.688 0,2.589 -2.098,4.687 -4.688,4.687 H 23.438 c -2.59,0 -4.688,-2.098 -4.688,-4.687 0,-2.59 2.098,-4.688 4.688,-4.688 z m 48.437,29.688 c 0,9.492 -7.695,17.187 -17.187,17.187 C 45.195,71.875 37.5,64.18 37.5,54.688 37.5,45.195 45.195,37.5 54.688,37.5 c 9.492,0 17.187,7.695 17.187,17.188 z m -19.207,7.355 12.5,-12.5 c 0.609,-0.609 0.609,-1.602 0,-2.211 -0.609,-0.609 -1.602,-0.609 -2.211,0 L 51.562,58.727 46.418,53.582 c -0.609,-0.609 -1.602,-0.609 -2.211,0 -0.609,0.609 -0.609,1.602 0,2.211 l 6.25,6.25 c 0.609,0.609 1.602,0.609 2.211,0 z" style="fill:currentColor;fill-opacity:1;fill-rule:nonzero;stroke:none" transform="scale(1.3333333)" /> </g>
</svg>

