<?xml version="1.0" encoding="UTF-8" standalone="no"?> <svg version="1.1" id="I4e8e97eb1b274e59a95aac3d9c86975020251110130510" width="100" height="100" viewBox="0 0 100 100" xmlns="http://www.w3.org/2000/svg" xmlns:svg="http://www.w3.org/2000/svg"> <defs id="I94911f71435a40aea304d7fbd11bab1120251110130510" /> <g id="I964061e7c905443ea38ea0e5b790bbaf20251110130510"> <path id="Ia6d6746e3f1b463da675f2a80a0d114f20251110130510" d="m 18.75,68.75 c -1.727,0 -3.125,-1.398 -3.125,-3.125 V 9.375 c 0,-1.727 1.398,-3.125 3.125,-3.125 1.727,0 3.125,1.398 3.125,3.125 v 56.25 c 0,1.727 -1.398,3.125 -3.125,3.125 z m 37.5,0 c -1.727,0 -3.125,-1.398 -3.125,-3.125 V 9.375 c 0,-1.727 1.398,-3.125 3.125,-3.125 1.727,0 3.125,1.398 3.125,3.125 v 56.25 c 0,1.727 -1.398,3.125 -3.125,3.125 z M 34.375,65.625 c 0,1.727 1.398,3.125 3.125,3.125 1.727,0 3.125,-1.398 3.125,-3.125 V 9.375 c 0,-1.727 -1.398,-3.125 -3.125,-3.125 -1.727,0 -3.125,1.398 -3.125,3.125 z" style="fill:currentColor;fill-opacity:1;fill-rule:nonzero;stroke:none" transform="scale(1.3333333)" /> </g>
</svg>

