<?xml version="1.0" encoding="UTF-8" standalone="no"?> <svg version="1.1" id="Id0272c0f17c1437184d801de89a6846820251106142135" width="100" height="100" viewBox="0 0 100 100" xmlns="http://www.w3.org/2000/svg" xmlns:svg="http://www.w3.org/2000/svg"> <defs id="Iafc1f0006ac64c08afe3293ccf61bf4d20251106142135" /> <g id="Ie23805935d24439b92814ea426ee677d20251106142135"> <path id="I4eeb0b01bf284759b3a51eb2de40625120251106142135" d="m 42.812,7.281 c 2.622,-0.969 5.504,-0.969 8.126,0 l 13.457,4.973 c 2.148,0.797 3.574,2.844 3.574,5.133 V 46.422 C 65.785,39.438 59.266,34.371 51.562,34.371 c -0.398,0 -0.792,0.016 -1.183,0.043 C 49.434,33.266 48.188,32.359 46.73,31.82 L 33.27,26.848 c -2.407,-0.891 -4.985,-1.133 -7.489,-0.735 v -8.726 c 0,-2.289 1.426,-4.336 3.574,-5.133 z m -7.484,12.262 c -0.422,1.227 0.227,2.559 1.449,2.98 l 8.309,2.875 c 1.16,0.399 2.418,0.399 3.578,-0.003 l 8.281,-2.868 c 1.223,-0.425 1.871,-1.761 1.45,-2.984 -0.426,-1.223 -1.758,-1.871 -2.985,-1.445 l -8.281,2.867 c -0.164,0.058 -0.344,0.058 -0.512,0 l -8.308,-2.871 c -1.223,-0.422 -2.555,0.226 -2.981,1.449 z M 46.473,35.141 C 46.211,34.988 45.934,34.859 45.645,34.754 L 32.188,29.781 c -2.622,-0.972 -5.504,-0.972 -8.126,0 l -13.457,4.973 c -2.148,0.793 -3.574,2.84 -3.574,5.129 v 17.719 c 0,2.289 1.426,4.336 3.574,5.128 l 13.457,4.973 c 2.622,0.969 5.504,0.969 8.126,0 l 8.246,-3.047 c -3.707,-3.152 -6.059,-7.847 -6.059,-13.097 0,-1.598 0.219,-3.149 0.629,-4.618 l -4.535,1.571 v 8.437 c 0,1.293 -1.051,2.344 -2.344,2.344 -1.293,0 -2.344,-1.051 -2.344,-2.344 v -8.433 l -7.754,-2.68 c -1.222,-0.426 -1.871,-1.758 -1.449,-2.981 0.426,-1.226 1.758,-1.875 2.981,-1.449 l 8.566,2.957 8.535,-2.957 c 0.371,-0.129 0.75,-0.16 1.11,-0.105 2.152,-2.887 5.183,-5.074 8.703,-6.16 z m 16.55,24.566 c 1.641,-2.297 2.602,-5.109 2.602,-8.148 0,-7.766 -6.297,-14.063 -14.063,-14.063 -7.765,0 -14.062,6.297 -14.062,14.063 0,7.765 6.297,14.062 14.062,14.062 3.04,0 5.848,-0.961 8.149,-2.598 l 8.164,8.165 c 0.914,0.914 2.398,0.914 3.313,0 0.917,-0.918 0.917,-2.403 0,-3.317 z m -2.085,-8.148 c 0,5.179 -4.196,9.375 -9.376,9.375 -5.179,0 -9.374,-4.196 -9.374,-9.375 0,-5.176 4.195,-9.375 9.374,-9.375 5.18,0 9.376,4.199 9.376,9.375 z" style="fill:currentColor;fill-opacity:1;fill-rule:nonzero;stroke:none" transform="scale(1.3333333)" /> </g>
</svg>

