<?xml version="1.0" encoding="UTF-8" standalone="no"?> <svg version="1.1" id="Icc127ba0ffd946d798392e5e63463bf620251106170956" width="100" height="100" viewBox="0 0 100 100" xmlns="http://www.w3.org/2000/svg" xmlns:svg="http://www.w3.org/2000/svg"> <defs id="Ibadfda04505e4fcbb581cff6bcdfa2e920251106170956" /> <g id="I293d5ebba7244e3da0d94a586292d02220251106170956"> <path id="I143e6ee57cc74d9294fe5d8ee0e515d220251106170956" d="m 17.578,7.031 c -5.824,0 -10.547,4.723 -10.547,10.547 v 39.844 c 0,5.824 4.723,10.547 10.547,10.547 H 42.68 c -1.121,-1.86 -1.664,-3.926 -1.664,-6.004 0,-5.035 4.074,-9.231 9.179,-9.231 h 0.032 c -2.075,-2.113 -3.352,-5.007 -3.352,-8.203 0,-2.636 0.871,-5.074 2.344,-7.031 h -2.344 c -1.293,0 -2.344,1.051 -2.344,2.344 v 2.344 c 0,3.882 -3.148,7.031 -7.031,7.031 -3.883,0 -7.031,-3.149 -7.031,-7.031 v -2.344 c 0,-1.293 -1.051,-2.344 -2.344,-2.344 H 11.719 V 17.578 c 0,-3.234 2.625,-5.859 5.859,-5.859 h 39.844 c 3.234,0 5.859,2.625 5.859,5.859 v 16.211 c 1.867,0.813 3.481,2.102 4.688,3.711 V 17.578 c 0,-5.824 -4.723,-10.547 -10.547,-10.547 z m 49.219,37.5 c 0,4.531 -3.672,8.203 -8.203,8.203 -4.532,0 -8.203,-3.672 -8.203,-8.203 0,-4.531 3.671,-8.203 8.203,-8.203 4.531,0 8.203,3.672 8.203,8.203 z m 5.859,17.434 c 0,4.742 -4.019,9.519 -14.062,9.519 -10.043,0 -14.063,-4.761 -14.063,-9.519 0,-3.133 2.535,-5.715 5.664,-5.715 h 16.797 c 3.129,0 5.664,2.582 5.664,5.715 z" style="fill:currentColor;fill-opacity:1;fill-rule:nonzero;stroke:none" transform="scale(1.3333333)" /> </g>
</svg>

