<?xml version="1.0" encoding="UTF-8" standalone="no"?> <svg version="1.1" id="I3c0db5c988b94c07939445e9c5213d8120251110133655" width="100" height="100" viewBox="0 0 100 100" xmlns="http://www.w3.org/2000/svg" xmlns:svg="http://www.w3.org/2000/svg"> <defs id="Ib4ef6b0e542f44a5baef20954c6e27c720251110133655" /> <g id="I37e42c7e192241b68656ab07819d9f6a20251110133655"> <path id="I0fdafd0852064b63a386395ef5d6f76620251110133655" d="m 4.691,23.133 c 0.141,1.523 1.43,2.648 2.93,2.648 L 7.598,25.758 h 0.257 c 0.282,-0.024 5.157,-0.516 8.7,-5.063 2.672,3.211 6.281,5.063 10.386,5.063 4.102,0 7.852,-1.946 10.551,-5.274 2.696,3.328 6.516,5.274 10.551,5.274 4.031,0 7.711,-1.852 10.387,-5.063 3.539,4.547 8.437,5.063 8.695,5.063 1.617,0.117 3.004,-1.031 3.168,-2.625 0.164,-1.594 -1.012,-3.024 -2.605,-3.211 -0.469,-0.047 -4.618,-0.703 -6.282,-6.141 -0.351,-1.195 -1.453,-2.015 -2.695,-2.062 -1.34,-0.094 -2.395,0.703 -2.84,1.875 -1.523,3.937 -4.43,6.304 -7.805,6.304 -3.378,0 -6.285,-2.343 -7.808,-6.304 -0.446,-1.125 -1.524,-1.875 -2.742,-1.875 -1.223,0 -2.301,0.75 -2.746,1.875 -1.524,3.937 -4.454,6.304 -7.805,6.304 -3.356,0 -6.285,-2.343 -7.809,-6.304 -0.445,-1.172 -1.617,-1.899 -2.836,-1.875 -1.265,0.047 -2.347,0.89 -2.722,2.086 -1.688,5.437 -5.836,6.093 -6.258,6.14 -1.617,0.141 -2.789,1.571 -2.649,3.188 z m 2.93,21.398 c -1.5,0 -2.789,-1.125 -2.93,-2.648 -0.14,-1.617 1.032,-3.047 2.649,-3.188 0.422,-0.047 4.57,-0.703 6.258,-6.14 0.375,-1.196 1.457,-2.039 2.722,-2.086 1.219,-0.024 2.391,0.703 2.836,1.875 1.524,3.961 4.453,6.304 7.809,6.304 3.351,0 6.281,-2.367 7.805,-6.304 0.445,-1.125 1.523,-1.875 2.746,-1.875 1.218,0 2.296,0.75 2.742,1.875 1.523,3.961 4.43,6.304 7.808,6.304 3.375,0 6.282,-2.367 7.805,-6.304 0.445,-1.172 1.5,-1.969 2.84,-1.875 1.242,0.047 2.344,0.867 2.695,2.062 1.664,5.438 5.813,6.094 6.282,6.141 1.593,0.187 2.769,1.617 2.605,3.211 -0.164,1.594 -1.551,2.742 -3.168,2.625 -0.258,0 -5.156,-0.516 -8.695,-5.063 -2.676,3.211 -6.356,5.063 -10.387,5.063 -4.035,0 -7.855,-1.946 -10.551,-5.274 -2.699,3.328 -6.449,5.274 -10.551,5.274 -4.105,0 -7.714,-1.852 -10.386,-5.063 -3.543,4.547 -8.418,5.039 -8.7,5.063 H 7.598 Z m 0,18.75 c -1.5,0 -2.789,-1.125 -2.93,-2.648 -0.14,-1.617 1.032,-3.047 2.649,-3.188 0.422,-0.047 4.57,-0.703 6.258,-6.14 0.375,-1.196 1.457,-2.039 2.722,-2.086 1.219,-0.024 2.391,0.703 2.836,1.875 1.524,3.961 4.453,6.304 7.809,6.304 3.351,0 6.281,-2.367 7.805,-6.304 0.445,-1.125 1.523,-1.875 2.746,-1.875 1.218,0 2.296,0.75 2.742,1.875 1.523,3.961 4.43,6.304 7.808,6.304 3.375,0 6.282,-2.367 7.805,-6.304 0.445,-1.172 1.5,-1.969 2.84,-1.875 1.242,0.047 2.344,0.867 2.695,2.062 1.664,5.438 5.813,6.094 6.282,6.141 1.593,0.187 2.769,1.617 2.605,3.211 -0.164,1.594 -1.551,2.742 -3.168,2.625 -0.258,0 -5.156,-0.516 -8.695,-5.063 -2.676,3.211 -6.356,5.063 -10.387,5.063 -4.035,0 -7.855,-1.946 -10.551,-5.274 -2.699,3.328 -6.449,5.274 -10.551,5.274 -4.105,0 -7.714,-1.852 -10.386,-5.063 -3.543,4.547 -8.418,5.039 -8.7,5.063 H 7.598 Z" style="fill:currentColor;fill-opacity:1;fill-rule:nonzero;stroke:none" transform="scale(1.3333333)" /> </g>
</svg>

