<?xml version="1.0" encoding="UTF-8" standalone="no"?> <svg version="1.1" id="Ie75b359b88a34fd1bd575394f954e49a20251106144521" width="100" height="100" viewBox="0 0 100 100" xmlns="http://www.w3.org/2000/svg" xmlns:svg="http://www.w3.org/2000/svg"> <defs id="I2eeb3592cce3455183ac92cb9c4301a520251106144521" /> <g id="Id9b96a592dbb47baad3d8b977499636620251106144521"> <path id="I4ae56dcff6b646f5bd3f4b8c6d99ab6320251106144521" d="M 22.621,48.402 9.602,33.758 C 8.57,32.594 6.793,32.492 5.633,33.523 4.469,34.555 4.367,36.332 5.398,37.492 l 15,16.875 c 1.075,1.211 2.946,1.266 4.09,0.121 L 63.863,15.113 c 1.098,-1.097 1.098,-2.879 0,-3.976 -1.097,-1.098 -2.879,-1.098 -3.976,0 z M 41.25,48.75 c 0,-4.141 3.359,-7.5 7.5,-7.5 H 67.5 c 4.141,0 7.5,3.359 7.5,7.5 v 15 c 0,4.141 -3.359,7.5 -7.5,7.5 H 48.75 c -4.141,0 -7.5,-3.359 -7.5,-7.5 z M 65.625,60 h -15 c -1.035,0 -1.875,0.84 -1.875,1.875 0,1.035 0.84,1.875 1.875,1.875 h 15 C 66.66,63.75 67.5,62.91 67.5,61.875 67.5,60.84 66.66,60 65.625,60 Z m -15,-11.25 c -1.035,0 -1.875,0.84 -1.875,1.875 0,1.035 0.84,1.875 1.875,1.875 h 15 c 1.035,0 1.875,-0.84 1.875,-1.875 0,-1.035 -0.84,-1.875 -1.875,-1.875 z" style="fill:currentColor;fill-opacity:1;fill-rule:nonzero;stroke:none" transform="scale(1.3333333)" /> </g>
</svg>

