<?xml version="1.0" encoding="UTF-8" standalone="no"?> <svg version="1.1" id="I9c577f82bcae4c8f9a3219b07f622adf20251106143238" width="100" height="100" viewBox="0 0 100 100" xmlns="http://www.w3.org/2000/svg" xmlns:svg="http://www.w3.org/2000/svg"> <defs id="I95d12d6d7ddc46b081eddfb5a9f21ebd20251106143238"> <linearGradient x1="16.3571" y1="14.9545" x2="19.401699" y2="28.885099" gradientUnits="userSpaceOnUse" gradientTransform="scale(2.678571)" spreadMethod="pad" id="Iaaa141d4c8f642e9b0470fb9ab854ee420251106143238"> <stop style="stop-opacity:0;stop-color:#dcf8ff" offset="0" id="Id5e2ba18f7854f53b746c416953a5fd220251106143238" /> <stop style="stop-opacity:0.70000763;stop-color:#ff6ce8" offset="1" id="I21c4a328f86649d0ab3b7842c77662b420251106143238" /> </linearGradient> <linearGradient x1="3" y1="3" x2="21.7216" y2="-3.1566401" gradientUnits="userSpaceOnUse" gradientTransform="scale(2.678571)" spreadMethod="pad" id="I3981dd3f07b5490cacc4001b0077781f20251106143238"> <stop style="stop-opacity:1;stop-color:#0094f0" offset="0" id="I1436c885c65747e588f96824ba93bf8820251106143238" /> <stop style="stop-opacity:1;stop-color:#2764e7" offset="1" id="Ifd622f348e9c44449dc4fc1ecbb6ed7e20251106143238" /> </linearGradient> </defs> <g id="I68292b7567804650bee9a0b66e49cbbf20251106143238"> <path id="Ib82544a63d3b498784d5ae889ffdebdc20251106143238" d="m 66.965,58.258 c 0,4.808 -3.899,8.707 -8.707,8.707 H 16.742 c -4.808,0 -8.707,-3.899 -8.707,-8.707 V 24.105 L 37.5,21.43 66.965,24.105 Z" style="fill:#b3e0ff;fill-opacity:1;fill-rule:nonzero;stroke:none" transform="scale(1.3333333)" /> <path d="m 66.965,58.258 c 0,4.808 -3.899,8.707 -8.707,8.707 H 16.742 c -4.808,0 -8.707,-3.899 -8.707,-8.707 V 24.105 L 37.5,21.43 66.965,24.105 Z" transform="scale(1.3333333)" style="fill:url(#Iaaa141d4c8f642e9b0470fb9ab854ee420251106143238);stroke:none" opacity="1" id="I5db8743142994fa89876daef62d151c520251106143238" /> <path id="I003c32edb92c433dbed7a0ef1836f60920251106143238" d="m 58.258,8.035 c 4.808,0 8.707,3.899 8.707,8.707 v 7.363 H 8.035 v -7.363 c 0,-4.808 3.899,-8.707 8.707,-8.707 z" transform="scale(1.3333333)" style="fill:url(#I3981dd3f07b5490cacc4001b0077781f20251106143238);stroke:none" /> </g>
</svg>

