<?xml version="1.0" encoding="UTF-8" standalone="no"?> <svg version="1.1" id="Ia11fa4a2206547458dc372bc40dfe2c520251106155156" width="100" height="100" viewBox="0 0 100 100" xmlns="http://www.w3.org/2000/svg" xmlns:svg="http://www.w3.org/2000/svg"> <defs id="I33f147c852004c609cfe4dbf39f4a5fd20251106155156" /> <g id="I978396a32c5b440d80b5bfbe9bb46abf20251106155156"> <path id="Ie7c4bccb43bb4b378b9bb813b5d0dcab20251106155156" d="m 20.312,25.781 c 0,-1.293 1.051,-2.343 2.344,-2.343 h 7.813 c 1.293,0 2.343,1.05 2.343,2.343 v 7.813 c 0,1.293 -1.05,2.344 -2.343,2.344 h -1.563 v 8.402 l 4.879,4.879 h 8.403 v -1.563 c 0,-1.293 1.05,-2.344 2.343,-2.344 h 7.813 c 1.293,0 2.344,1.051 2.344,2.344 v 7.813 c 0,1.293 -1.051,2.343 -2.344,2.343 h -7.813 c -1.293,0 -2.343,-1.05 -2.343,-2.343 v -1.563 h -8.403 l -5.566,5.563 c -0.914,0.918 -2.399,0.918 -3.313,0 l -6.25,-6.25 c -0.918,-0.914 -0.918,-2.399 0,-3.313 l 5.563,-5.566 v -8.402 h -1.563 c -1.293,0 -2.344,-1.051 -2.344,-2.344 z M 60.668,26.293 42.453,8.082 C 42.406,8.035 42.352,7.992 42.301,7.953 42.262,7.926 42.223,7.895 42.188,7.863 41.965,7.664 41.746,7.465 41.504,7.301 41.426,7.246 41.336,7.203 41.25,7.164 41.203,7.137 41.152,7.113 41.102,7.086 41.051,7.059 41,7.027 40.945,6.996 40.777,6.898 40.609,6.801 40.43,6.727 39.812,6.469 39.148,6.34 38.477,6.293 38.418,6.289 38.355,6.281 38.293,6.273 38.211,6.262 38.125,6.25 38.039,6.25 H 18.75 c -3.449,0 -6.25,2.801 -6.25,6.25 v 50 c 0,3.449 2.801,6.25 6.25,6.25 h 37.5 c 3.449,0 6.25,-2.801 6.25,-6.25 V 30.711 c 0,-1.656 -0.66,-3.246 -1.832,-4.418 z M 57.812,62.5 c 0,0.859 -0.699,1.562 -1.562,1.562 h -37.5 c -0.863,0 -1.562,-0.703 -1.562,-1.562 v -50 c 0,-0.859 0.699,-1.562 1.562,-1.562 H 37.5 V 25 c 0,3.449 2.801,6.25 6.25,6.25 H 57.812 Z M 42.188,14.441 54.305,26.562 H 43.75 c -0.863,0 -1.562,-0.703 -1.562,-1.562 z" style="fill:currentColor;fill-opacity:1;fill-rule:nonzero;stroke:none" transform="scale(1.3333333)" /> </g>
</svg>

