<?xml version="1.0" encoding="UTF-8" standalone="no"?> <svg version="1.1" id="I1ad8ffa0d0e942c1848f89ee6b9391bb20251110124421" width="100" height="100" viewBox="0 0 100 100" xmlns="http://www.w3.org/2000/svg" xmlns:svg="http://www.w3.org/2000/svg"> <defs id="I87ca5e46425f420dac9153dcb2fed6a620251110124421" /> <g id="I9b9ffc2e1a15422a8f1fc70e37f72dae20251110124421"> <path id="I391413933fcc418dafb96464cef9d02120251110124421" d="m 53.125,7.805 c 6.043,0 10.941,4.902 10.941,10.945 0,6.043 -4.898,10.941 -10.941,10.941 -3.219,0 -6.113,-1.386 -8.113,-3.601 l -14.246,8.14 c 0.32,1.032 0.496,2.129 0.496,3.27 0,1.137 -0.176,2.238 -0.496,3.27 l 14.242,8.14 c 2,-2.215 4.898,-3.605 8.117,-3.605 6.043,0 10.941,4.902 10.941,10.945 0,6.043 -4.898,10.941 -10.941,10.941 -6.043,0 -10.941,-4.898 -10.941,-10.941 0,-1.141 0.171,-2.238 0.496,-3.27 L 28.438,44.836 c -2.004,2.215 -4.899,3.605 -8.122,3.605 -6.043,0 -10.941,-4.898 -10.941,-10.941 0,-6.043 4.898,-10.945 10.941,-10.945 3.219,0 6.114,1.39 8.118,3.601 L 42.68,22.02 c -0.325,-1.032 -0.496,-2.133 -0.496,-3.27 0,-6.043 4.898,-10.945 10.941,-10.945 z m 0,42.187 c -3.453,0 -6.254,2.801 -6.254,6.258 0,3.453 2.801,6.254 6.254,6.254 3.453,0 6.254,-2.801 6.254,-6.254 0,-3.457 -2.801,-6.258 -6.254,-6.258 z M 20.316,31.242 c -3.453,0 -6.254,2.801 -6.254,6.258 0,3.453 2.801,6.254 6.254,6.254 3.457,0 6.258,-2.801 6.258,-6.254 0,-3.457 -2.801,-6.258 -6.258,-6.258 z m 32.809,-18.75 c -3.453,0 -6.254,2.801 -6.254,6.258 0,3.453 2.801,6.254 6.254,6.254 3.453,0 6.254,-2.801 6.254,-6.254 0,-3.457 -2.801,-6.258 -6.254,-6.258 z" style="fill:currentColor;fill-opacity:1;fill-rule:nonzero;stroke:none" transform="scale(1.3333333)" /> </g>
</svg>

