<?xml version="1.0" encoding="UTF-8" standalone="no"?> <svg version="1.1" id="I917c9f4716e9425484a4490efd66501320251106154012" width="100" height="100" viewBox="0 0 100 100" xmlns="http://www.w3.org/2000/svg" xmlns:svg="http://www.w3.org/2000/svg"> <defs id="I30160e5b6e7e414bbb8079c264cc220b20251106154012" /> <g id="Ic89d2e2221f24dbd911c111a4cf9f14620251106154012"> <path id="I6720f7d0f3864826932dbe220bb7e39d20251106154012" d="m 17.969,6.25 c -1.293,0 -2.344,1.051 -2.344,2.344 0,1.293 1.051,2.344 2.344,2.344 h 3.125 v 4.687 h -1.563 c -3.883,0 -7.031,3.148 -7.031,7.031 V 34.375 H 34.375 V 22.656 c 0,-3.883 -3.148,-7.031 -7.031,-7.031 h -1.563 v -4.687 h 3.125 c 1.293,0 2.344,-1.051 2.344,-2.344 0,-1.293 -1.051,-2.344 -2.344,-2.344 z m 0,50 c -1.293,0 -2.344,1.051 -2.344,2.344 0,1.293 1.051,2.344 2.344,2.344 h 10.937 c 1.293,0 2.344,-1.051 2.344,-2.344 0,-1.293 -1.051,-2.344 -2.344,-2.344 h -3.125 v -4.688 h 1.563 c 3.883,0 7.031,-3.148 7.031,-7.031 V 39.062 H 12.5 v 5.469 c 0,3.883 3.148,7.031 7.031,7.031 h 1.563 V 56.25 Z M 43.75,14.844 c 0,-1.293 1.051,-2.344 2.344,-2.344 h 10.937 c 1.293,0 2.344,1.051 2.344,2.344 0,1.293 -1.051,2.344 -2.344,2.344 h -3.125 v 4.687 h 1.563 c 3.883,0 7.031,3.148 7.031,7.031 v 5.469 H 40.625 v -5.469 c 0,-3.883 3.148,-7.031 7.031,-7.031 h 1.563 v -4.687 h -3.125 c -1.293,0 -2.344,-1.051 -2.344,-2.344 z M 40.625,50.781 V 39.062 H 62.5 v 11.719 c 0,3.883 -3.148,7.031 -7.031,7.031 H 53.906 V 62.5 h 3.125 c 1.293,0 2.344,1.051 2.344,2.344 0,1.293 -1.051,2.344 -2.344,2.344 H 46.094 c -1.293,0 -2.344,-1.051 -2.344,-2.344 0,-1.293 1.051,-2.344 2.344,-2.344 h 3.125 v -4.688 h -1.563 c -3.883,0 -7.031,-3.148 -7.031,-7.031 z" style="fill:currentColor;fill-opacity:1;fill-rule:nonzero;stroke:none" transform="scale(1.3333333)" /> </g>
</svg>

