<?xml version="1.0" encoding="UTF-8" standalone="no"?> <svg version="1.1" id="Ia8d466f819b84a64ab1c86b01d6b777b20251106171634" width="100" height="100" viewBox="0 0 100 100" xmlns="http://www.w3.org/2000/svg" xmlns:svg="http://www.w3.org/2000/svg"> <defs id="I9b780cb70c094e0ea7b840c59c57347b20251106171634" /> <g id="Ic0289c3da31747d6b4fa5c2e6ed3b6e920251106171634"> <path id="If5e87f2fcf2b4ead887fedb86456991420251106171634" d="m 8.035,20.758 c 0,-7.395 5.996,-13.391 13.395,-13.391 h 32.14 c 7.399,0 13.395,5.996 13.395,13.391 V 34.82 c 0,1.481 -1.199,2.68 -2.68,2.68 -1.48,0 -2.68,-1.199 -2.68,-2.68 V 20.758 c 0,-4.438 -3.597,-8.035 -8.035,-8.035 H 21.43 c -4.438,0 -8.035,3.597 -8.035,8.035 V 53.57 c 0,4.438 3.597,8.035 8.035,8.035 h 13.39 c 1.481,0 2.68,1.2 2.68,2.68 0,1.481 -1.199,2.68 -2.68,2.68 H 21.43 C 14.031,66.965 8.035,60.969 8.035,53.57 Z m 18.75,8.707 c 0,-1.481 1.199,-2.68 2.68,-2.68 h 21.43 c 1.476,0 2.675,1.199 2.675,2.68 0,1.48 -1.199,2.68 -2.675,2.68 H 36.082 l 22.066,22.218 c 1.043,1.051 1.04,2.746 -0.011,3.789 -1.051,1.039 -2.746,1.036 -3.789,-0.015 L 32.145,35.781 v 15.114 c 0,1.476 -1.2,2.675 -2.68,2.675 -1.481,0 -2.68,-1.199 -2.68,-2.675 z" style="fill:currentColor;fill-opacity:1;fill-rule:nonzero;stroke:none" transform="scale(1.3333333)" /> </g>
</svg>

