<?xml version="1.0" encoding="UTF-8" standalone="no"?> <svg version="1.1" id="I36d7ba2d29ca4b2580ff9727a595010220251110130508" width="100" height="100" viewBox="0 0 100 100" xmlns="http://www.w3.org/2000/svg" xmlns:svg="http://www.w3.org/2000/svg"> <defs id="I2f7cbb84e2d241e1859b75328918c99e20251110130508"> <linearGradient x1="3" y1="3" x2="25" y2="25" gradientUnits="userSpaceOnUse" gradientTransform="scale(2.678571)" spreadMethod="pad" id="I27f5389d50e9475c929451fac370292020251110130508"> <stop style="stop-opacity:1;stop-color:#42b870" offset="0" id="I8b04f4922dff470fac6e3d151dd6e83020251110130508" /> <stop style="stop-opacity:1;stop-color:#1a7f7c" offset="1" id="I3f5f99334afd48cda87c527dd633912420251110130508" /> </linearGradient> </defs> <g id="Ic777079292b241e7861c4e9d0e11caec20251110130508"> <path id="I9ca203d5eb9d409c8c2f04e4548406f320251110130508" d="m 8.035,18.082 c 0,-5.551 4.496,-10.047 10.047,-10.047 h 7.363 v 17.41 H 8.035 Z m 0,11.383 v 16.07 h 17.41 v -16.07 z m 0,20.09 v 7.363 c 0,5.551 4.496,10.047 10.047,10.047 h 7.363 v -17.41 z m 21.43,17.41 h 16.07 v -17.41 h -16.07 z m 20.09,0 h 7.363 c 5.551,0 10.047,-4.496 10.047,-10.047 v -7.363 h -17.41 z m 17.41,-21.43 v -16.07 h -17.41 v 16.07 z m 0,-20.09 v -7.363 c 0,-5.551 -4.496,-10.047 -10.047,-10.047 h -7.363 v 17.41 z M 45.535,8.035 h -16.07 v 17.41 h 16.07 z m 0,21.43 v 16.07 h -16.07 v -16.07 z" transform="scale(1.3333333)" style="fill:url(#I27f5389d50e9475c929451fac370292020251110130508);stroke:none" /> </g>
</svg>

