<?xml version="1.0" encoding="UTF-8" standalone="no"?> <svg version="1.1" id="I8877b0d5b410436abb1a0b70380e1eb720251110123031" width="100" height="100" viewBox="0 0 100 100" xmlns="http://www.w3.org/2000/svg" xmlns:svg="http://www.w3.org/2000/svg"> <defs id="I30836b4992e64f12be26ac6c5a2538c820251110123031" /> <g id="Ic5243564b11947b0b8e1c5bd43cc970120251110123031"> <path id="If5b358833b5f44d19bb935901766ed9d20251110123031" d="M 43.75,43.75 H 13.289 c -3.879,0 -7.027,3.148 -7.027,7.027 v 1.805 c 0,2.793 0.996,5.488 2.808,7.613 4.895,5.731 12.352,8.559 22.18,8.559 2.234,0 4.344,-0.145 6.332,-0.438 C 37.527,67.949 37.5,67.57 37.5,67.188 v -3.602 c -1.918,0.32 -4,0.48 -6.25,0.48 -8.555,0 -14.699,-2.332 -18.617,-6.918 -1.086,-1.273 -1.684,-2.89 -1.684,-4.566 v -1.805 c 0,-1.293 1.047,-2.339 2.34,-2.339 h 24.859 c 1.008,-2.297 3.086,-4.02 5.602,-4.532 z M 31.25,6.266 c 8.629,0 15.625,6.996 15.625,15.625 0,8.629 -6.996,15.625 -15.625,15.625 -8.629,0 -15.625,-6.996 -15.625,-15.625 0,-8.629 6.996,-15.625 15.625,-15.625 z m 0,4.687 c -6.039,0 -10.938,4.899 -10.938,10.938 0,6.039 4.899,10.937 10.938,10.937 6.043,0 10.938,-4.898 10.938,-10.937 0,-6.039 -4.895,-10.938 -10.938,-10.938 z m 15.625,35.922 h -1.563 c -2.589,0 -4.687,2.098 -4.687,4.687 v 15.626 c 0,2.589 2.098,4.687 4.687,4.687 h 18.75 c 2.59,0 4.688,-2.098 4.688,-4.687 V 51.562 c 0,-2.589 -2.098,-4.687 -4.688,-4.687 H 62.5 V 43.75 c 0,-4.312 -3.496,-7.812 -7.812,-7.812 -4.317,0 -7.813,3.5 -7.813,7.812 z m 4.687,-3.125 c 0,-1.727 1.399,-3.125 3.126,-3.125 1.726,0 3.124,1.398 3.124,3.125 v 3.125 h -6.25 z m 6.25,15.625 c 0,1.727 -1.398,3.125 -3.124,3.125 -1.727,0 -3.126,-1.398 -3.126,-3.125 0,-1.727 1.399,-3.125 3.126,-3.125 1.726,0 3.124,1.398 3.124,3.125 z" style="fill:currentColor;fill-opacity:1;fill-rule:nonzero;stroke:none" transform="scale(1.3333333)" /> </g>
</svg>

