<?xml version="1.0" encoding="UTF-8" standalone="no"?> <svg version="1.1" id="If15a37b16e854afea1fd24fed61b94ea20251106170955" width="100" height="100" viewBox="0 0 100 100" xmlns="http://www.w3.org/2000/svg" xmlns:svg="http://www.w3.org/2000/svg"> <defs id="I10705b1ba60945fa99d9eabc89ea4d4720251106170955" /> <g id="I92abba37d01d47b588022653e0b53cc420251106170955"> <path id="I2451adb251b646e4b69876f87886a2a920251106170955" d="M 37.5,7.5 C 25.074,7.5 15,17.574 15,30 c 0,5.508 3.16,11.277 6.777,16.148 3.672,4.946 8.071,9.301 11.043,12.028 2.668,2.449 6.692,2.449 9.36,0 2.972,-2.727 7.371,-7.082 11.043,-12.028 C 56.84,41.277 60,35.508 60,30 60,17.574 49.926,7.5 37.5,7.5 Z M 45,30 c 0,4.141 -3.359,7.5 -7.5,7.5 -4.141,0 -7.5,-3.359 -7.5,-7.5 0,-4.141 3.359,-7.5 7.5,-7.5 4.141,0 7.5,3.359 7.5,7.5 z m 9.074,21.141 c -0.886,1.078 -1.789,2.117 -2.679,3.101 0.949,0.266 1.843,0.563 2.667,0.879 2.079,0.801 3.633,1.707 4.637,2.617 1,0.91 1.301,1.676 1.301,2.262 0,0.586 -0.301,1.352 -1.301,2.262 -1.004,0.91 -2.558,1.816 -4.637,2.617 C 49.918,66.473 44.062,67.5 37.5,67.5 30.938,67.5 25.082,66.473 20.938,64.879 18.859,64.078 17.305,63.172 16.301,62.262 15.301,61.352 15,60.586 15,60 c 0,-0.586 0.301,-1.352 1.301,-2.262 1.004,-0.91 2.558,-1.816 4.637,-2.617 0.824,-0.316 1.718,-0.613 2.667,-0.879 -0.89,-0.984 -1.793,-2.023 -2.679,-3.101 -0.457,0.156 -0.903,0.316 -1.336,0.48 -2.332,0.899 -4.344,2.012 -5.813,3.344 -1.465,1.332 -2.527,3.031 -2.527,5.035 0,2.004 1.062,3.703 2.527,5.035 1.469,1.332 3.481,2.449 5.813,3.344 4.676,1.801 11.008,2.871 17.91,2.871 6.902,0 13.234,-1.07 17.91,-2.871 2.332,-0.895 4.348,-2.012 5.813,-3.344 1.465,-1.332 2.527,-3.031 2.527,-5.035 0,-2.004 -1.062,-3.703 -2.527,-5.035 -1.465,-1.332 -3.481,-2.445 -5.813,-3.344 -0.433,-0.164 -0.879,-0.324 -1.336,-0.48 z" style="fill:currentColor;fill-opacity:1;fill-rule:nonzero;stroke:none" transform="scale(1.3333333)" /> </g>
</svg>

