<?xml version="1.0" encoding="UTF-8" standalone="no"?> <svg version="1.1" id="I3baee7c5c0d74604887cd049096a470e20251110130510" width="100" height="100" viewBox="0 0 100 100" xmlns="http://www.w3.org/2000/svg" xmlns:svg="http://www.w3.org/2000/svg"> <defs id="I5aff19b5fe6345129ce1a3e6a5531d8a20251110130510" /> <g id="I2ddb377d19294892ad8c5773c8d89bab20251110130510"> <path id="I17025304b2f1470ab9009243c4fdb46320251110130510" d="m 65.625,17.969 c 0,-4.746 -3.848,-8.594 -8.594,-8.594 H 17.969 c -4.746,0 -8.594,3.848 -8.594,8.594 v 39.062 c 0,4.746 3.848,8.594 8.594,8.594 h 7.187 C 25.055,65.121 25,64.598 25,64.062 c 0,-1.109 0.23,-2.167 0.648,-3.124 h -7.679 c -2.157,0 -3.907,-1.75 -3.907,-3.907 V 17.969 c 0,-2.157 1.75,-3.907 3.907,-3.907 h 39.062 c 2.157,0 3.907,1.75 3.907,3.907 v 38.929 c 0.957,-0.418 2.015,-0.648 3.124,-0.648 0.536,0 1.059,0.055 1.563,0.156 z M 21.094,35.938 h 23.437 c 1.293,0 2.344,1.05 2.344,2.343 0,1.188 -0.883,2.168 -2.027,2.324 l -0.317,0.02 H 21.094 c -1.293,0 -2.344,-1.051 -2.344,-2.344 0,-1.187 0.883,-2.168 2.027,-2.324 z m 32.812,12.5 H 21.094 l -0.317,0.019 c -1.144,0.156 -2.027,1.137 -2.027,2.324 0,1.293 1.051,2.344 2.344,2.344 h 32.812 l 0.317,-0.02 c 1.144,-0.156 2.027,-1.136 2.027,-2.324 0,-1.293 -1.051,-2.343 -2.344,-2.343 z m -32.812,-25 h 32.812 c 1.293,0 2.344,1.05 2.344,2.343 0,1.188 -0.883,2.168 -2.027,2.324 l -0.317,0.02 H 21.094 c -1.293,0 -2.344,-1.051 -2.344,-2.344 0,-1.187 0.883,-2.168 2.027,-2.324 z M 37.5,64.062 c 0,2.59 -2.098,4.688 -4.688,4.688 -2.589,0 -4.687,-2.098 -4.687,-4.688 0,-2.589 2.098,-4.687 4.687,-4.687 2.59,0 4.688,2.098 4.688,4.687 z m 10.938,4.688 c 2.589,0 4.687,-2.098 4.687,-4.688 0,-2.589 -2.098,-4.687 -4.687,-4.687 -2.59,0 -4.688,2.098 -4.688,4.687 0,2.59 2.098,4.688 4.688,4.688 z m 15.624,0 c 2.59,0 4.688,-2.098 4.688,-4.688 0,-2.589 -2.098,-4.687 -4.688,-4.687 -2.589,0 -4.687,2.098 -4.687,4.687 0,2.59 2.098,4.688 4.687,4.688 z" style="fill:currentColor;fill-opacity:1;fill-rule:nonzero;stroke:none" transform="scale(1.3333333)" /> </g>
</svg>

