<?xml version="1.0" encoding="UTF-8" standalone="no"?> <svg version="1.1" id="I95e1e253b9e344d288b23b46a3440cc920251110124422" width="100" height="100" viewBox="0 0 100 100" xmlns="http://www.w3.org/2000/svg" xmlns:svg="http://www.w3.org/2000/svg"> <defs id="I16a9f13b27824c5690ab1ddc9a5ffa8120251110124422" /> <g id="I29c47558fbe04fa5b46b69553cf126f720251110124422"> <path id="I5124eb4fba3141488c797122c3ba030b20251110124422" d="M 6.25,24.219 C 6.25,16.02 12.895,9.375 21.094,9.375 h 31.25 c 3.883,0 7.031,3.148 7.031,7.031 v 0.782 H 24.219 c -5.61,0 -10.157,4.546 -10.157,10.156 v 7.316 c -2.933,0.535 -5.605,1.82 -7.812,3.645 z m 26.328,35 4.844,4.843 h 24.297 c 3.883,0 7.031,-3.148 7.031,-7.031 V 27.344 c 0,-3.883 -3.148,-7.032 -7.031,-7.032 h -37.5 c -3.883,0 -7.031,3.149 -7.031,7.032 v 7.031 c 9.492,0 17.187,7.695 17.187,17.187 0,2.75 -0.648,5.352 -1.797,7.657 z m -15.39,6.406 c 3.035,0 5.847,-0.961 8.148,-2.602 l 8.164,8.165 c 0.914,0.917 2.398,0.917 3.312,0 0.918,-0.915 0.918,-2.399 0,-3.313 L 28.648,59.711 C 30.289,57.41 31.25,54.602 31.25,51.562 31.25,43.797 24.953,37.5 17.188,37.5 9.422,37.5 3.125,43.797 3.125,51.562 c 0,7.766 6.297,14.063 14.063,14.063 z m 0,-4.687 c -5.176,0 -9.376,-4.196 -9.376,-9.376 0,-5.179 4.2,-9.374 9.376,-9.374 5.175,0 9.374,4.195 9.374,9.374 0,5.18 -4.199,9.376 -9.374,9.376 z" style="fill:currentColor;fill-opacity:1;fill-rule:nonzero;stroke:none" transform="scale(1.3333333)" /> </g>
</svg>

