<?xml version="1.0" encoding="UTF-8" standalone="no"?> <svg version="1.1" id="Ic0acdb078a98402c9f8ae3d0ce9ff9ab20251106103256" width="100" height="100" viewBox="0 0 100 100" xmlns="http://www.w3.org/2000/svg" xmlns:svg="http://www.w3.org/2000/svg"> <defs id="I8cc1ac2024444dfdaa83ad90998c067720251106103256" /> <g id="I48b0e1dc026648e2bc814730ac7e336620251106103256"> <path id="I3007ff322b214ae9a84d5c59e0f570e620251106103256" d="m 59.258,4.27 c -0.52,0 -1.028,0.152 -1.461,0.441 L 28.125,24.105 H 14.398 c -0.742,0 -1.339,0.598 -1.339,1.34 v 24.11 c 0,0.742 0.597,1.34 1.339,1.34 h 13.727 l 29.672,19.394 c 0.433,0.289 0.941,0.441 1.461,0.441 1.394,0 2.683,-1.109 2.683,-2.683 V 6.953 c 0,-1.574 -1.293,-2.683 -2.683,-2.683 m -3.344,8.871 V 61.859 L 31.422,45.852 29.918,44.867 H 19.086 V 30.133 h 10.832 l 1.504,-0.981 z" style="fill:currentColor;fill-opacity:1;fill-rule:evenodd;stroke:none" transform="scale(1.3333333)" /> </g>
</svg>

