<?xml version="1.0" encoding="UTF-8" standalone="no"?> <svg version="1.1" id="I5a6662c63766458d8f53ed6a26bc3ecf20251106102216" width="100" height="100" viewBox="0 0 100 100" xmlns="http://www.w3.org/2000/svg" xmlns:svg="http://www.w3.org/2000/svg"> <defs id="Ic70e303dad4847538b74bea77898f79920251106102216" /> <g id="I3e3e3a0cbd734c8eb34763ef1bb69bd920251106102216"> <path id="I8f4b5878d27b4db2b73f951434afb01d20251106102216" d="m 68.262,34.02 c -0.024,-2.262 -0.035,-4.54 -0.043,-6.809 h -6.762 c -0.027,2.262 -0.043,4.531 -0.059,6.809 -2.277,0.007 -4.539,0.023 -6.796,0.046 v 6.774 c 2.257,0.023 4.535,0.043 6.796,0.066 0.024,2.262 0.024,4.528 0.043,6.789 h 6.77 c 0.008,-2.261 0.027,-4.527 0.043,-6.804 2.277,-0.028 4.535,-0.036 6.797,-0.059 V 34.059 C 72.797,34.043 70.523,34.043 68.262,34.02 Z m -44.364,0.031 c -0.007,2.703 0,5.418 0.008,8.121 4.535,0.148 9.082,0.082 13.617,0.148 -2,10.071 -15.683,13.336 -22.925,6.758 C 7.148,43.309 7.5,30.66 15.242,25.305 c 5.418,-4.321 13.11,-3.258 18.524,0.484 2.129,-1.965 4.121,-4.074 6.035,-6.254 C 35.297,15.945 29.773,13.383 23.898,13.652 11.625,13.242 0.352,23.988 0.152,36.27 -0.637,46.305 5.961,56.141 15.27,59.691 c 9.273,3.575 21.168,1.137 27.093,-7.199 3.91,-5.265 4.754,-12.047 4.293,-18.414 C 39.066,34.02 31.48,34.027 23.898,34.051 Z" style="fill:currentColor;fill-opacity:1;fill-rule:nonzero;stroke:none" transform="scale(1.3333333)" /> </g>
</svg>

