<?xml version="1.0" encoding="UTF-8" standalone="no"?> <svg version="1.1" id="I94ed7457ce684dcdb643b398d714498320251110124420" width="100" height="100" viewBox="0 0 100 100" xmlns="http://www.w3.org/2000/svg" xmlns:svg="http://www.w3.org/2000/svg"> <defs id="I979f6c1bb2c64f54b3417d60f9b06cd120251110124420" /> <g id="I71c8681e043f44a6b96bde6a8c7bb98f20251110124420"> <path id="Id7ea2fb267734934bf3e1cfa76b98f6520251110124420" d="M 6.25,8.594 C 6.25,7.301 7.301,6.25 8.594,6.25 H 37.5 c 17.258,0 31.25,13.992 31.25,31.25 0,9.332 -4.094,17.711 -10.578,23.438 h -8.16 C 58.375,56.465 64.062,47.648 64.062,37.5 64.062,24.441 54.641,13.586 42.223,11.355 40.688,11.082 39.109,10.938 37.5,10.938 H 8.594 C 7.301,10.938 6.25,9.887 6.25,8.594 Z m 26.129,59.738 c 1.668,0.273 3.379,0.418 5.121,0.418 h 28.906 c 1.293,0 2.344,-1.051 2.344,-2.344 0,-1.293 -1.051,-2.344 -2.344,-2.344 H 37.5 c -9.617,0 -18.043,-5.113 -22.707,-12.769 -2.445,-4.02 -3.855,-8.742 -3.855,-13.793 0,-10.145 5.687,-18.965 14.05,-23.438 h -8.16 C 10.344,19.789 6.25,28.168 6.25,37.5 c 0,15.516 11.305,28.391 26.129,30.832 z M 37.5,25 c 1.293,0 2.344,1.051 2.344,2.344 v 7.812 h 7.812 c 1.293,0 2.344,1.051 2.344,2.344 0,1.293 -1.051,2.344 -2.344,2.344 h -7.812 v 7.812 C 39.844,48.949 38.793,50 37.5,50 36.207,50 35.156,48.949 35.156,47.656 V 39.844 H 27.344 C 26.051,39.844 25,38.793 25,37.5 c 0,-1.293 1.051,-2.344 2.344,-2.344 h 7.812 V 27.344 C 35.156,26.051 36.207,25 37.5,25 Z" style="fill:currentColor;fill-opacity:1;fill-rule:nonzero;stroke:none" transform="scale(1.3333333)" /> </g>
</svg>

