<?xml version="1.0" encoding="UTF-8" standalone="no"?> <svg version="1.1" id="I3bcc0d36343e4ff4b50a0cc7f95ed82d20251106132945" width="100" height="100" viewBox="0 0 100 100" xmlns="http://www.w3.org/2000/svg" xmlns:svg="http://www.w3.org/2000/svg"> <defs id="I4ee9f56fe8534a9594d37b71c1b7e05b20251106132945" /> <g id="If6509417fd3c417b866a55c9eaa410b320251106132945"> <path id="I76be31bacd334f49a2c3aa43fa445a7320251106132945" d="m 65.625,12.5 c 0,-1.727 -1.398,-3.125 -3.125,-3.125 H 46.875 c -1.727,0 -3.125,1.398 -3.125,3.125 0,1.727 1.398,3.125 3.125,3.125 h 8.082 L 39.062,31.52 33.461,25.914 C 32.875,25.328 32.078,25 31.25,25 c -0.828,0 -1.625,0.328 -2.211,0.914 l -18.75,18.75 c -1.219,1.223 -1.219,3.199 0,4.422 1.223,1.219 3.199,1.219 4.422,0 l 16.539,-16.543 5.602,5.605 c 0.586,0.586 1.382,0.914 2.21,0.914 0.829,0 1.626,-0.328 2.211,-0.914 L 59.375,20.043 v 8.082 c 0,1.727 1.398,3.125 3.125,3.125 1.727,0 3.125,-1.398 3.125,-3.125 z M 64,36.977 c 0.785,-0.782 0.516,-2.102 -0.566,-2.34 -4.02,-0.875 -8.391,0.25 -11.516,3.375 -3.707,3.711 -4.598,9.172 -2.672,13.722 L 37.555,63.426 c -1.828,1.828 -1.828,4.797 0,6.629 1.832,1.828 4.8,1.828 6.629,0 L 55.879,58.363 c 4.547,1.926 10.008,1.035 13.719,-2.675 3.125,-3.126 4.25,-7.493 3.371,-11.512 -0.235,-1.086 -1.555,-1.352 -2.34,-0.571 l -5.453,5.454 c -1.828,1.832 -4.797,1.832 -6.629,0 -1.828,-1.829 -1.828,-4.797 0,-6.629 z" style="fill:currentColor;fill-opacity:1;fill-rule:nonzero;stroke:none" transform="scale(1.3333333)" /> </g>
</svg>

