<?xml version="1.0" encoding="UTF-8" standalone="no"?> <svg version="1.1" id="Idb1c5dbb15f84095aaac6e1f58fbe85520251106154012" width="100" height="100" viewBox="0 0 100 100" xmlns="http://www.w3.org/2000/svg" xmlns:svg="http://www.w3.org/2000/svg"> <defs id="Ic969a18d30a14e2f941dd2f5c37f74ee20251106154012" /> <g id="I01529c6f32a349e58adb80a6a0edc45620251106154012"> <path id="I0809d46817ae466dbd63bc2da1a2e4df20251106154012" d="m 62.5,14.832 c 0,-4.746 -3.848,-8.594 -8.594,-8.594 H 14.844 c -4.746,0 -8.594,3.848 -8.594,8.594 v 39.063 c 0,4.746 3.848,8.593 8.594,8.593 h 20.832 l 0.328,-1.312 c 0.301,-1.199 0.789,-2.34 1.445,-3.375 H 14.844 c -2.156,0 -3.906,-1.75 -3.906,-3.906 V 14.832 c 0,-2.156 1.75,-3.906 3.906,-3.906 h 39.062 c 2.156,0 3.906,1.75 3.906,3.906 v 22.227 c 1.368,-1.25 2.989,-2.063 4.688,-2.442 z M 50,44.859 V 21.027 l -0.02,-0.308 c -0.156,-1.114 -1.136,-1.969 -2.324,-1.969 -1.293,0 -2.344,1.02 -2.344,2.277 v 26.692 l 0.02,0.308 c 0.055,0.391 0.215,0.75 0.445,1.055 z M 23.418,27.016 C 23.262,25.875 22.281,25 21.094,25 19.801,25 18.75,26.043 18.75,27.332 v 20.332 l 0.02,0.316 c 0.156,1.141 1.136,2.02 2.324,2.02 1.293,0 2.344,-1.047 2.344,-2.336 V 27.332 Z m 13.168,9.285 c -0.164,-1.106 -1.129,-1.949 -2.289,-1.938 -1.262,0.012 -2.277,1.039 -2.266,2.293 l 0.11,11.086 0.023,0.305 c 0.164,1.109 1.129,1.953 2.289,1.941 1.262,-0.011 2.277,-1.039 2.266,-2.293 L 36.609,36.609 Z M 59.688,39.59 41.242,58.035 c -1.074,1.074 -1.84,2.422 -2.207,3.899 l -1.43,5.722 c -0.621,2.489 1.629,4.739 4.118,4.117 l 5.722,-1.429 c 1.477,-0.367 2.825,-1.133 3.899,-2.207 L 69.789,49.691 c 2.789,-2.789 2.789,-7.312 0,-10.101 -2.789,-2.789 -7.312,-2.789 -10.101,0 z" style="fill:currentColor;fill-opacity:1;fill-rule:nonzero;stroke:none" transform="scale(1.3333333)" /> </g>
</svg>

