<?xml version="1.0" encoding="UTF-8" standalone="no"?> <svg version="1.1" id="I332bea90b92e40138cd1a456027f43fc20251106132946" width="100" height="100" viewBox="0 0 100 100" xmlns="http://www.w3.org/2000/svg" xmlns:svg="http://www.w3.org/2000/svg"> <defs id="I7272bee969894dc59573a71b04d43c0020251106132946" /> <g id="Ica1c01164e014c3090159285fe01f6e720251106132946"> <path id="I9a08a110121f44cfadfecd2c3d4ef51f20251106132946" d="m 20.312,6.25 c -4.316,0 -7.812,3.496 -7.812,7.812 v 46.876 c 0,4.316 3.496,7.812 7.812,7.812 H 39.168 C 38.176,67.449 37.5,65.863 37.5,64.062 H 20.312 c -1.726,0 -3.124,-1.398 -3.124,-3.124 H 37.5 V 44.664 l 0.027,0.024 c 0.309,-3.645 3.285,-6.2 6.278,-7.696 3.347,-1.672 7.75,-2.617 12.445,-2.617 1.793,0 3.527,0.137 5.172,0.395 0.906,0.144 1.789,0.324 2.64,0.539 V 14.062 C 64.062,9.746 60.566,6.25 56.25,6.25 Z M 25,15.625 h 25 c 1.727,0 3.125,1.398 3.125,3.125 v 3.125 C 53.125,23.602 51.727,25 50,25 H 25 c -1.727,0 -3.125,-1.398 -3.125,-3.125 V 18.75 c 0,-1.727 1.398,-3.125 3.125,-3.125 z m 35.938,22.234 c 1.707,0.266 3.289,0.676 4.687,1.203 3.797,1.426 6.25,3.696 6.25,6.25 0,2.555 -2.453,4.825 -6.25,6.25 -1.398,0.528 -2.98,0.938 -4.687,1.204 -1.481,0.234 -3.055,0.359 -4.688,0.359 -8.629,0 -15.625,-3.496 -15.625,-7.813 0,-4.316 6.996,-7.812 15.625,-7.812 1.633,0 3.207,0.125 4.688,0.359 z m 0,18.067 c 1.652,-0.231 3.23,-0.59 4.687,-1.055 1.098,-0.351 2.125,-0.766 3.07,-1.238 1.106,-0.555 2.211,-1.25 3.18,-2.098 v 12.527 c 0,4.317 -6.996,7.813 -15.625,7.813 -6.406,0 -11.914,-1.93 -14.324,-4.687 C 41.09,66.23 40.625,65.172 40.625,64.062 V 51.535 c 0.969,0.848 2.074,1.543 3.18,2.098 3.347,1.672 7.75,2.617 12.445,2.617 1.605,0 3.18,-0.109 4.688,-0.324 z" style="fill:currentColor;fill-opacity:1;fill-rule:nonzero;stroke:none" transform="scale(1.3333333)" /> </g>
</svg>

