<?xml version="1.0" encoding="UTF-8" standalone="no"?> <svg version="1.1" id="Ic027a75544334fe581c66afae1c17b2520251110124420" width="100" height="100" viewBox="0 0 100 100" xmlns="http://www.w3.org/2000/svg" xmlns:svg="http://www.w3.org/2000/svg"> <defs id="Iad47d63c87374394befc7bf7fb929a8220251110124420" /> <g id="If1a45fcdfbec42aa87a7cc02ff76abb320251110124420"> <path id="Ie24a93928d6b413b850b21592f44526c20251110124420" d="m 54.688,37.5 c 9.492,0 17.187,7.695 17.187,17.188 0,9.492 -7.695,17.187 -17.187,17.187 C 45.195,71.875 37.5,64.18 37.5,54.688 37.5,45.195 45.195,37.5 54.688,37.5 Z m 0,6.246 -0.282,0.027 c -0.636,0.114 -1.14,0.618 -1.258,1.258 l -0.023,0.278 v 7.812 l -7.82,0.004 -0.282,0.023 c -0.636,0.118 -1.14,0.622 -1.253,1.258 l -0.028,0.282 0.028,0.281 c 0.113,0.636 0.617,1.14 1.253,1.258 l 0.282,0.023 7.824,-0.004 v 7.828 l 0.023,0.281 c 0.118,0.637 0.621,1.141 1.258,1.254 l 0.281,0.028 0.282,-0.028 c 0.636,-0.113 1.14,-0.617 1.254,-1.254 l 0.027,-0.281 v -7.828 l 7.824,0.004 0.281,-0.023 c 0.637,-0.118 1.141,-0.622 1.254,-1.258 l 0.028,-0.281 -0.028,-0.282 C 65.5,53.77 64.996,53.266 64.359,53.148 L 64.078,53.125 56.25,53.121 v -7.812 l -0.023,-0.278 c -0.118,-0.64 -0.622,-1.144 -1.258,-1.258 z M 34.434,56.25 c 0.168,2.203 0.687,4.305 1.5,6.25 H 21.875 c -1.727,0 -3.125,-1.398 -3.125,-3.125 0,-1.602 1.207,-2.922 2.762,-3.105 l 0.363,-0.02 z m 1.496,-9.375 c -0.813,1.949 -1.328,4.051 -1.496,6.254 L 12.5,53.125 c -1.727,0 -3.125,-1.398 -3.125,-3.125 0,-1.602 1.207,-2.922 2.762,-3.105 L 12.5,46.875 Z M 43.859,37.5 c -2.527,1.594 -4.679,3.734 -6.289,6.25 H 21.875 c -1.727,0 -3.125,-1.398 -3.125,-3.125 0,-1.602 1.207,-2.922 2.762,-3.105 L 21.875,37.5 Z M 18.75,15.625 c 3.852,0 7.266,2.344 8.691,5.852 0.649,1.601 -0.125,3.421 -1.722,4.07 -1.485,0.601 -3.164,-0.02 -3.914,-1.391 l -0.157,-0.328 c -0.476,-1.172 -1.613,-1.953 -2.898,-1.953 -1.727,0 -3.125,1.398 -3.125,3.125 0,1.727 1.398,3.125 3.125,3.125 h 35.938 c 1.726,0 3.124,1.398 3.124,3.125 0,1.602 -1.207,2.922 -2.761,3.105 l -0.363,0.02 H 18.75 c -5.176,0 -9.375,-4.199 -9.375,-9.375 0,-5.176 4.199,-9.375 9.375,-9.375 z M 62.5,18.75 c 1.727,0 3.125,1.398 3.125,3.125 0,1.602 -1.207,2.922 -2.762,3.105 L 62.5,25 H 34.375 c -1.727,0 -3.125,-1.398 -3.125,-3.125 0,-1.602 1.207,-2.922 2.762,-3.105 l 0.363,-0.02 z" style="fill:currentColor;fill-opacity:1;fill-rule:nonzero;stroke:none" transform="scale(1.3333333)" /> </g>
</svg>

