<?xml version="1.0" encoding="UTF-8" standalone="no"?> <svg version="1.1" id="I6bb0bb16e6c94ae58219cce50767d46c20251106123559" width="100" height="100" viewBox="0 0 100 100" xmlns="http://www.w3.org/2000/svg" xmlns:svg="http://www.w3.org/2000/svg"> <defs id="Icfef584526ed4e7fa1fb2f326e44de4c20251106123559" /> <g id="Ie9c0840a2b2045caaf9f55a97aef16c020251106123559"> <path id="I2bace8d72a154b97ab3be9e9a73698f320251106123559" d="m 18.082,8.035 c -5.551,0 -10.047,4.496 -10.047,10.047 v 38.836 c 0,5.551 4.496,10.047 10.047,10.047 h 38.836 c 5.551,0 10.047,-4.496 10.047,-10.047 V 18.082 c 0,-5.551 -4.496,-10.047 -10.047,-10.047 z m -6.027,10.047 c 0,-3.332 2.695,-6.027 6.027,-6.027 h 38.836 c 3.328,0 6.027,2.695 6.027,6.027 v 38.836 c 0,3.328 -2.699,6.027 -6.027,6.027 H 18.082 c -3.332,0 -6.027,-2.699 -6.027,-6.027 z M 37.5,20.09 c 1.109,0 2.008,0.898 2.008,2.008 v 13.394 h 13.398 c 1.11,0 2.008,0.899 2.008,2.008 0,1.109 -0.898,2.008 -2.008,2.008 H 39.508 v 13.394 c 0,1.11 -0.899,2.008 -2.008,2.008 -1.109,0 -2.008,-0.898 -2.008,-2.008 V 39.508 h -13.39 c -1.11,0 -2.008,-0.899 -2.008,-2.008 0,-1.109 0.898,-2.008 2.008,-2.008 h 13.39 V 22.098 c 0,-1.11 0.899,-2.008 2.008,-2.008 z" style="fill:currentColor;fill-opacity:1;fill-rule:nonzero;stroke:none" transform="scale(1.3333333)" /> </g>
</svg>

