<?xml version="1.0" encoding="UTF-8" standalone="no"?> <svg version="1.1" id="Ie7cfed71c41e44f09a51c3cca9a4a48b20251110123031" width="100" height="100" viewBox="0 0 100 100" xmlns="http://www.w3.org/2000/svg" xmlns:svg="http://www.w3.org/2000/svg"> <defs id="I88053dd3d92a48d997701269a8bf0e5f20251110123031" /> <g id="Ib818830a5e924ab1a0f628cfcef2f0e620251110123031"> <path id="Iba2719bba53f4fe697841fb12a681baa20251110123031" d="m 34.375,46.875 c 0,-1.094 0.191,-2.148 0.535,-3.125 H 13.289 c -3.879,0 -7.027,3.148 -7.027,7.027 v 2.875 c 0,1.789 0.558,3.532 1.593,4.989 4.821,6.761 12.707,10.113 23.395,10.113 1.242,0 2.449,-0.043 3.613,-0.137 -0.316,-0.937 -0.488,-1.945 -0.488,-2.992 z M 31.25,6.266 c 8.629,0 15.625,6.996 15.625,15.625 0,8.629 -6.996,15.625 -15.625,15.625 -8.629,0 -15.625,-6.996 -15.625,-15.625 0,-8.629 6.996,-15.625 15.625,-15.625 z m 6.25,40.609 c 0,-3.449 2.801,-6.25 6.25,-6.25 h 21.875 c 3.453,0 6.25,2.801 6.25,6.25 v 18.75 c 0,3.453 -2.797,6.25 -6.25,6.25 H 43.75 c -3.449,0 -6.25,-2.797 -6.25,-6.25 z M 45.312,50 c -0.863,0 -1.562,0.699 -1.562,1.562 0,0.864 0.699,1.563 1.562,1.563 h 18.75 c 0.864,0 1.563,-0.699 1.563,-1.563 C 65.625,50.699 64.926,50 64.062,50 Z m 0,9.375 c -0.863,0 -1.562,0.699 -1.562,1.563 0,0.863 0.699,1.562 1.562,1.562 h 18.75 c 0.864,0 1.563,-0.699 1.563,-1.562 0,-0.864 -0.699,-1.563 -1.563,-1.563 z" style="fill:currentColor;fill-opacity:1;fill-rule:nonzero;stroke:none" transform="scale(1.3333333)" /> </g>
</svg>

