<?xml version="1.0" encoding="UTF-8" standalone="no"?> <svg version="1.1" id="I98108720167041be8e257844c852d87020251106161452" width="100" height="100" viewBox="0 0 100 100" xmlns="http://www.w3.org/2000/svg" xmlns:svg="http://www.w3.org/2000/svg"> <defs id="Ie194b9f01bad498193dc117090c82da920251106161452" /> <g id="I58dcff1169664329878254062e8e896720251106161452"> <path id="I92eb79afd28741dd89e251033863ca4120251106161452" d="m 10.715,11.785 c 0,-3.551 2.879,-6.43 6.43,-6.43 h 21.871 c 1.707,0 3.343,0.68 4.546,1.883 l 18.567,18.567 c 1.379,1.383 2.156,3.254 2.156,5.207 v 32.203 c 0,3.551 -2.879,6.43 -6.43,6.43 H 36.332 c 0.184,-0.172 0.348,-0.36 0.496,-0.567 0.438,-0.617 0.672,-1.359 0.668,-2.113 -0.004,-0.461 -0.09,-0.914 -0.258,-1.34 h 20.617 c 1.333,0 2.415,-1.078 2.415,-2.41 V 32.145 H 42.855 c -2.957,0 -5.355,-2.399 -5.355,-5.36 V 9.375 H 17.145 c -1.333,0 -2.415,1.078 -2.415,2.41 v 23.254 c -0.468,-0.168 -0.968,-0.254 -1.472,-0.254 -0.914,0 -1.801,0.281 -2.543,0.809 z m 32.14,16.34 H 58.766 L 41.52,10.875 v 15.91 c 0,0.738 0.597,1.34 1.335,1.34 z M 8.492,55.789 c 0.25,0.254 0.485,0.516 0.699,0.797 0.586,0.754 1.039,1.609 1.34,2.523 l 1.336,4.098 c 0.11,0.316 0.317,0.59 0.59,0.781 0.273,0.196 0.602,0.297 0.938,0.297 0.332,0 0.66,-0.101 0.933,-0.297 0.246,-0.172 0.434,-0.41 0.555,-0.683 0.012,-0.032 0.027,-0.067 0.039,-0.098 l 1.332,-4.098 c 0.414,-1.246 1.113,-2.379 2.043,-3.308 0.93,-0.926 2.062,-1.625 3.308,-2.039 l 4.098,-1.332 c 0.317,-0.114 0.59,-0.317 0.785,-0.594 0.196,-0.27 0.297,-0.598 0.297,-0.934 0,-0.336 -0.101,-0.66 -0.297,-0.933 -0.195,-0.274 -0.468,-0.481 -0.785,-0.594 l -0.082,-0.02 -4.098,-1.332 C 20.277,47.609 19.145,46.91 18.215,45.984 17.285,45.055 16.586,43.922 16.172,42.676 L 14.84,38.578 C 14.727,38.266 14.52,37.992 14.246,37.797 13.973,37.605 13.645,37.5 13.312,37.5 c -0.335,0 -0.664,0.105 -0.937,0.297 -0.273,0.195 -0.48,0.469 -0.59,0.781 l -1.336,4.098 -0.031,0.101 c -0.41,1.2 -1.086,2.289 -1.973,3.192 -0.914,0.926 -2.031,1.633 -3.265,2.054 L 1.082,49.355 C 0.766,49.469 0.492,49.676 0.297,49.949 0.105,50.223 0,50.547 0,50.883 c 0,0.336 0.105,0.66 0.297,0.933 0.195,0.274 0.469,0.481 0.785,0.594 l 4.098,1.332 c 1.25,0.414 2.386,1.117 3.312,2.047 z m 23.172,9.453 2.461,0.801 0.047,0.012 c 0.191,0.066 0.355,0.191 0.473,0.355 0.113,0.164 0.175,0.36 0.175,0.559 0,0.203 -0.062,0.398 -0.175,0.562 -0.118,0.164 -0.282,0.289 -0.473,0.356 l -2.461,0.797 c -0.746,0.25 -1.426,0.668 -1.984,1.226 -0.555,0.559 -0.977,1.235 -1.227,1.985 l -0.797,2.457 c -0.066,0.191 -0.191,0.355 -0.355,0.468 -0.164,0.118 -0.36,0.18 -0.563,0.18 -0.199,0 -0.398,-0.062 -0.562,-0.18 -0.164,-0.113 -0.285,-0.277 -0.352,-0.468 L 25.07,71.895 c -0.246,-0.75 -0.668,-1.434 -1.222,-1.993 -0.559,-0.558 -1.239,-0.98 -1.989,-1.23 l -2.461,-0.797 c -0.191,-0.066 -0.355,-0.191 -0.468,-0.355 -0.118,-0.165 -0.18,-0.36 -0.18,-0.563 0,-0.199 0.062,-0.395 0.18,-0.559 0.113,-0.164 0.277,-0.289 0.468,-0.355 l 2.461,-0.801 c 0.739,-0.254 1.411,-0.676 1.957,-1.234 0.547,-0.555 0.961,-1.231 1.204,-1.973 l 0.8,-2.457 c 0.067,-0.191 0.192,-0.355 0.356,-0.473 0.164,-0.113 0.359,-0.175 0.562,-0.175 0.2,0 0.395,0.062 0.559,0.175 0.164,0.118 0.289,0.282 0.355,0.473 l 0.801,2.457 c 0.246,0.746 0.668,1.426 1.227,1.985 0.554,0.554 1.234,0.976 1.984,1.222 z" style="fill:currentColor;fill-opacity:1;fill-rule:nonzero;stroke:none" transform="scale(1.3333333)" /> </g>
</svg>

