<?xml version="1.0" encoding="UTF-8" standalone="no"?> <svg version="1.1" id="I46c7da908e6b49bbadbd308513f72d8120251106171634" width="100" height="100" viewBox="0 0 100 100" xmlns="http://www.w3.org/2000/svg" xmlns:svg="http://www.w3.org/2000/svg"> <defs id="Ieb5de675e7da4985885291903b902b9c20251106171634" /> <g id="I7eca4857d7124128aeaf5923667304ff20251106171634"> <path id="Ieaaff6f628f84a6692ac54c384c6d6de20251106171634" d="m 6.238,38.281 c 0,6.477 5.25,11.727 11.727,11.727 5.672,0 10.406,-4.031 11.492,-9.383 h 6.477 v 10.156 c 0,3.883 3.148,7.031 7.031,7.031 h 2.578 c 1.09,5.348 5.82,9.376 11.488,9.376 6.477,0 11.727,-5.25 11.727,-11.727 0,-6.477 -5.25,-11.727 -11.727,-11.727 -5.676,0 -10.406,4.036 -11.492,9.391 h -2.574 c -1.297,0 -2.344,-1.051 -2.344,-2.344 v -25 c 0,-1.293 1.047,-2.343 2.344,-2.343 h 2.578 c 1.09,5.347 5.82,9.374 11.488,9.374 6.477,0 11.727,-5.25 11.727,-11.726 0,-6.477 -5.25,-11.727 -11.727,-11.727 -5.676,0 -10.406,4.036 -11.492,9.391 h -2.574 c -3.883,0 -7.031,3.148 -7.031,7.031 v 10.157 h -6.477 c -1.09,-5.352 -5.82,-9.383 -11.492,-9.383 -6.477,0 -11.727,5.25 -11.727,11.726 z m 11.727,7.039 c -3.887,0 -7.039,-3.152 -7.039,-7.039 0,-3.886 3.152,-7.039 7.039,-7.039 3.887,0 7.039,3.153 7.039,7.039 0,3.887 -3.152,7.039 -7.039,7.039 z M 57.031,62.5 c -3.886,0 -7.035,-3.152 -7.035,-7.039 0,-3.887 3.149,-7.039 7.035,-7.039 3.891,0 7.039,3.152 7.039,7.039 0,3.887 -3.148,7.039 -7.039,7.039 z M 49.996,21.086 c 0,-3.887 3.149,-7.039 7.035,-7.039 3.891,0 7.039,3.152 7.039,7.039 0,3.887 -3.148,7.039 -7.039,7.039 -3.886,0 -7.035,-3.152 -7.035,-7.039 z" style="fill:currentColor;fill-opacity:1;fill-rule:nonzero;stroke:none" transform="scale(1.3333333)" /> </g>
</svg>

