<?xml version="1.0" encoding="UTF-8" standalone="no"?> <svg version="1.1" id="Ib6276a4bef9b4e8886ac5520810584b920251106142136" width="100" height="100" viewBox="0 0 100 100" xmlns="http://www.w3.org/2000/svg" xmlns:svg="http://www.w3.org/2000/svg"> <defs id="Ie4fbcf5634444230a77963861e5eae7d20251106142136" /> <g id="I51c1d1f108dc4c80b2ed27073376295b20251106142136"> <path id="Idda5b8b932fb403d86ae42fe1ce5d5ca20251106142136" d="m 25.312,24.375 c 1.555,0 2.813,-1.258 2.813,-2.813 0,-1.554 -1.258,-2.812 -2.813,-2.812 -1.554,0 -2.812,1.258 -2.812,2.812 0,1.555 1.258,2.813 2.812,2.813 z m 2.813,8.437 c 0,1.555 -1.258,2.813 -2.813,2.813 -1.554,0 -2.812,-1.258 -2.812,-2.813 0,-1.554 1.258,-2.812 2.812,-2.812 1.555,0 2.813,1.258 2.813,2.812 z m -2.813,14.063 c 1.555,0 2.813,-1.258 2.813,-2.813 0,-1.554 -1.258,-2.812 -2.813,-2.812 -1.554,0 -2.812,1.258 -2.812,2.812 0,1.555 1.258,2.813 2.812,2.813 z M 39.375,21.562 c 0,1.555 -1.258,2.813 -2.813,2.813 -1.554,0 -2.812,-1.258 -2.812,-2.813 0,-1.554 1.258,-2.812 2.812,-2.812 1.555,0 2.813,1.258 2.813,2.812 z m -2.813,14.063 c 1.555,0 2.813,-1.258 2.813,-2.813 0,-1.554 -1.258,-2.812 -2.813,-2.812 -1.554,0 -2.812,1.258 -2.812,2.812 0,1.555 1.258,2.813 2.812,2.813 z m -1.281,10.941 c 0.715,-1.754 1.668,-3.386 2.817,-4.859 -0.442,-0.289 -0.969,-0.457 -1.536,-0.457 -1.554,0 -2.812,1.258 -2.812,2.812 0,1.09 0.621,2.04 1.531,2.504 z M 28.125,52.5 h 5.711 c -0.059,0.617 -0.086,1.242 -0.086,1.875 0,0.633 0.027,1.258 0.086,1.875 H 30 v 7.5 h 5.625 v -0.77 c 0.75,1.633 1.707,3.149 2.84,4.52 H 16.875 C 15.84,67.5 15,66.66 15,65.625 v -52.5 C 15,10.02 17.52,7.5 20.625,7.5 h 22.5 c 3.105,0 5.625,2.52 5.625,5.625 V 30 h 5.625 c 2.719,0 4.988,1.93 5.512,4.496 -1.754,-0.488 -3.602,-0.746 -5.512,-0.746 h -7.5 C 45.84,33.75 45,32.91 45,31.875 V 13.125 C 45,12.09 44.16,11.25 43.125,11.25 h -22.5 c -1.035,0 -1.875,0.84 -1.875,1.875 V 63.75 h 7.5 v -9.375 c 0,-1.035 0.84,-1.875 1.875,-1.875 z m 43.125,1.875 c 0,9.32 -7.555,16.875 -16.875,16.875 -9.32,0 -16.875,-7.555 -16.875,-16.875 0,-9.32 7.555,-16.875 16.875,-16.875 9.32,0 16.875,7.555 16.875,16.875 z m -8.051,-6.949 c -0.73,-0.735 -1.918,-0.735 -2.648,0 l -9.926,9.922 -2.426,-2.422 c -0.73,-0.735 -1.918,-0.735 -2.648,0 -0.735,0.73 -0.735,1.918 0,2.648 l 3.75,3.75 c 0.73,0.735 1.918,0.735 2.648,0 l 11.25,-11.25 c 0.735,-0.73 0.735,-1.918 0,-2.648 z" style="fill:currentColor;fill-opacity:1;fill-rule:nonzero;stroke:none" transform="scale(1.3333333)" /> </g>
</svg>

