<?xml version="1.0" encoding="UTF-8" standalone="no"?> <svg version="1.1" id="I62466368024f4c4d873d8d0645c859e920251110123030" width="100" height="100" viewBox="0 0 100 100" xmlns="http://www.w3.org/2000/svg" xmlns:svg="http://www.w3.org/2000/svg"> <defs id="Ie09ff22c52104a81a42ecd4ccacf9c3420251110123030" /> <g id="Ic862bf456b494fe9a0c09fe6cd5e30ef20251110123030"> <path id="I9481d6bf63434be6b95374a73bf4192320251110123030" d="m 8.035,50.895 v 1.914 c 0,9.961 11.281,16.836 26.785,16.836 0.91,0 1.805,-0.032 2.688,-0.079 0,-0.027 -0.008,-0.054 -0.008,-0.086 v -3.941 c -0.875,0.055 -1.766,0.086 -2.68,0.086 -13.687,0 -22.765,-5.656 -22.765,-12.816 v -1.914 l 0.019,-0.391 c 0.196,-2.039 1.906,-3.629 3.996,-3.629 h 27.297 l 4.715,-4.02 H 16.07 c -4.437,0 -8.035,3.598 -8.035,8.04 z M 34.82,37.5 c 8.879,0 16.075,-7.195 16.075,-16.07 0,-8.879 -7.196,-16.075 -16.075,-16.075 -8.875,0 -16.07,7.196 -16.07,16.075 0,8.875 7.195,16.07 16.07,16.07 z m 0,-28.125 c 6.657,0 12.055,5.398 12.055,12.055 0,6.656 -5.398,12.05 -12.055,12.05 -6.656,0 -12.05,-5.394 -12.05,-12.05 0,-6.657 5.394,-12.055 12.05,-12.055 z m 17.707,33.23 c 1.375,-1.167 3.395,-1.167 4.77,0 l 11.051,9.391 c 0.82,0.699 1.297,1.727 1.297,2.809 v 14.683 c 0,1.567 -1.27,2.836 -2.836,2.836 h -3.711 c -1.563,0 -2.832,-1.269 -2.832,-2.836 v -8.289 c 0,-1.25 -1.012,-2.261 -2.254,-2.269 h -6.203 c -1.247,0.008 -2.254,1.019 -2.254,2.269 v 8.289 c 0,1.567 -1.27,2.836 -2.836,2.836 h -3.707 c -1.567,0 -2.836,-1.269 -2.836,-2.836 V 54.805 c 0,-1.082 0.472,-2.106 1.297,-2.809 L 52.52,42.605 Z" style="fill:currentColor;fill-opacity:1;fill-rule:nonzero;stroke:none" transform="scale(1.3333333)" /> </g>
</svg>

