<?xml version="1.0" encoding="UTF-8" standalone="no"?> <svg version="1.1" id="I32ffe08dc31e44d593b09b0646ecb11420251106165301" width="100" height="100" viewBox="0 0 100 100" xmlns="http://www.w3.org/2000/svg" xmlns:svg="http://www.w3.org/2000/svg"> <defs id="I49e9d13b1b6b47039e1147e6aba997bf20251106165301" /> <g id="Ib27dc844aea54276878af4851a4e167a20251106165301"> <path id="I62f40cd773634f76949bbb52cbf9b68e20251106165301" d="m 58.93,69.645 h -8.035 c -1.375,0 -2.508,-1.036 -2.665,-2.368 l -0.015,-0.312 v -21.43 c 0,-1.371 1.035,-2.504 2.367,-2.66 l 0.313,-0.02 h 14.73 V 37.5 C 65.625,21.969 53.031,9.375 37.5,9.375 21.969,9.375 9.375,21.969 9.375,37.5 v 5.355 h 14.73 c 1.481,0 2.68,1.2 2.68,2.68 v 21.43 c 0,1.48 -1.199,2.68 -2.68,2.68 H 16.07 C 10.152,69.645 5.355,64.848 5.355,58.93 V 37.5 C 5.355,19.746 19.746,5.355 37.5,5.355 c 17.754,0 32.145,14.391 32.145,32.145 v 21.43 c 0,5.738 -4.512,10.422 -10.18,10.699 L 58.93,69.645 H 50.895 Z M 22.77,46.875 H 9.375 V 58.93 c 0,3.695 3,6.695 6.695,6.695 h 6.7 z m 42.855,0 H 52.23 v 18.75 h 6.7 c 3.695,0 6.695,-3 6.695,-6.695 z" style="fill:currentColor;fill-opacity:1;fill-rule:nonzero;stroke:none" transform="scale(1.3333333)" /> </g>
</svg>

