<?xml version="1.0" encoding="UTF-8" standalone="no"?> <svg version="1.1" id="I1704af84ad464008b82d2f902bfcaf1c20251110133655" width="100" height="100" viewBox="0 0 100 100" xmlns="http://www.w3.org/2000/svg" xmlns:svg="http://www.w3.org/2000/svg"> <defs id="I4a2b408ad4974861a745bfff0b233c4520251110133655" /> <g id="Ic1771236ac864f37911ef00430d797a020251110133655"> <path id="I468eaf4173b64655941febaa64968cdb20251110133655" d="m 5.355,23.438 c 0,-5.547 4.5,-10.043 10.047,-10.043 h 22.766 c 5.551,0 10.047,4.496 10.047,10.043 v 22.769 c 0,4.867 -3.469,8.93 -8.07,9.848 0.023,-0.379 0.035,-0.762 0.035,-1.145 0,-11.094 -8.996,-20.09 -20.09,-20.09 -5.82,0 -11.063,2.477 -14.735,6.434 z M 62.281,52.723 50.895,44.859 V 24.773 L 62.281,16.91 c 3.11,-2.148 7.352,0.078 7.352,3.856 v 28.097 c 0,3.782 -4.242,6.004 -7.352,3.86 z M 10.168,44.727 c 0.844,2.921 -0.91,5.957 -3.859,6.687 l -2.743,0.68 c -0.144,0.918 -0.218,1.859 -0.218,2.816 0,1.004 0.082,1.988 0.238,2.945 l 2.613,0.633 c 2.981,0.715 4.754,3.782 3.883,6.723 l -0.867,2.941 c 1.39,1.231 2.973,2.235 4.699,2.946 l 2.258,-2.371 c 2.109,-2.223 5.652,-2.223 7.762,0 l 2.277,2.394 c 1.723,-0.703 3.305,-1.695 4.691,-2.918 l -0.894,-3.105 c -0.844,-2.922 0.906,-5.957 3.859,-6.688 l 2.746,-0.68 c 0.141,-0.918 0.219,-1.859 0.219,-2.82 0,-1 -0.082,-1.984 -0.238,-2.941 L 33.977,51.336 C 30.996,50.621 29.223,47.555 30.09,44.613 l 0.871,-2.945 c -1.391,-1.23 -2.973,-2.234 -4.695,-2.945 l -2.262,2.375 c -2.113,2.222 -5.652,2.222 -7.766,0 l -2.273,-2.395 c -1.723,0.703 -3.305,1.695 -4.692,2.922 z M 20.09,58.93 c -2.219,0 -4.02,-1.801 -4.02,-4.02 0,-2.219 1.801,-4.015 4.02,-4.015 2.219,0 4.015,1.796 4.015,4.015 0,2.219 -1.796,4.02 -4.015,4.02 z" style="fill:currentColor;fill-opacity:1;fill-rule:nonzero;stroke:none" transform="scale(1.3333333)" /> </g>
</svg>

