<?xml version="1.0" encoding="UTF-8" standalone="no"?> <svg version="1.1" id="Ibb3602238cec4f00946c00e595afbda720251106142135" width="100" height="100" viewBox="0 0 100 100" xmlns="http://www.w3.org/2000/svg" xmlns:svg="http://www.w3.org/2000/svg"> <defs id="Icf029194f9bb451dab96d04e46126ee120251106142135" /> <g id="Ibeadc2b774ec4edaa98c18f8c6342c7c20251106142135"> <path id="I666b1f0c68cc4b35866ca221a8b209ad20251106142135" d="m 21.094,63.281 c 0,1.293 -1.051,2.344 -2.344,2.344 -5.18,0 -9.375,-4.195 -9.375,-9.375 V 42.188 c 0,-1.293 -1.051,-2.344 -2.344,-2.344 -1.293,0 -2.343,-1.051 -2.343,-2.344 0,-1.293 1.05,-2.344 2.343,-2.344 1.293,0 2.344,-1.051 2.344,-2.344 V 18.75 c 0,-5.18 4.195,-9.375 9.375,-9.375 1.293,0 2.344,1.051 2.344,2.344 0,1.293 -1.051,2.343 -2.344,2.343 -2.586,0 -4.688,2.102 -4.688,4.688 v 14.062 c 0,1.801 -0.675,3.446 -1.789,4.688 1.114,1.242 1.789,2.887 1.789,4.688 V 56.25 c 0,2.586 2.102,4.688 4.688,4.688 1.293,0 2.344,1.05 2.344,2.343 z M 67.969,35.156 c -1.293,0 -2.344,-1.051 -2.344,-2.344 V 18.75 c 0,-5.18 -4.195,-9.375 -9.375,-9.375 -1.293,0 -2.344,1.051 -2.344,2.344 0,1.293 1.051,2.343 2.344,2.343 2.586,0 4.688,2.102 4.688,4.688 v 14.062 c 0,1.801 0.675,3.446 1.789,4.688 -1.11,1.242 -1.789,2.887 -1.789,4.688 V 56.25 c 0,2.586 -2.102,4.688 -4.688,4.688 -1.293,0 -2.344,1.05 -2.344,2.343 0,1.293 1.051,2.344 2.344,2.344 5.18,0 9.375,-4.195 9.375,-9.375 V 42.188 c 0,-1.293 1.051,-2.344 2.344,-2.344 1.293,0 2.343,-1.051 2.343,-2.344 0,-1.293 -1.05,-2.344 -2.343,-2.344 z M 56.25,37.5 c 0,10.355 -8.395,18.75 -18.75,18.75 -10.355,0 -18.75,-8.395 -18.75,-18.75 0,-10.355 8.395,-18.75 18.75,-18.75 10.355,0 18.75,8.395 18.75,18.75 z m -4.688,0 c 0,-7.754 -6.308,-14.062 -14.062,-14.062 -7.754,0 -14.062,6.308 -14.062,14.062 0,7.754 6.308,14.062 14.062,14.062 7.754,0 14.062,-6.308 14.062,-14.062 z m -8.691,-6.348 -7.715,7.715 -3.027,-3.027 c -0.914,-0.914 -2.402,-0.914 -3.317,0 -0.914,0.914 -0.914,2.402 0,3.316 l 4.688,4.688 c 0.441,0.437 1.039,0.683 1.66,0.683 0.625,0 1.219,-0.25 1.66,-0.683 l 9.375,-9.375 c 0.914,-0.914 0.914,-2.403 0,-3.317 -0.914,-0.914 -2.398,-0.914 -3.312,0 z" style="fill:currentColor;fill-opacity:1;fill-rule:nonzero;stroke:none" transform="scale(1.3333333)" /> </g>
</svg>

