<?xml version="1.0" encoding="UTF-8" standalone="no"?> <svg version="1.1" id="Ib2942449098a493aa1afef2a986f4ff320251106132945" width="100" height="100" viewBox="0 0 100 100" xmlns="http://www.w3.org/2000/svg" xmlns:svg="http://www.w3.org/2000/svg"> <defs id="Ie2bd8b200aac4180880d022cd94aff8720251106132945" /> <g id="Ia1fa2a8409c241578271122038b0d6d820251106132945"> <path id="Ib08da7e273e146de819c88a37dec975b20251106132945" d="m 63.281,20.312 c 1.293,0 2.344,-1.05 2.344,-2.343 0,-1.293 -1.051,-2.344 -2.344,-2.344 H 35.156 c -6.472,0 -11.718,5.246 -11.718,11.719 V 54.496 L 13.375,44.438 c -0.914,-0.918 -2.398,-0.918 -3.313,0 -0.917,0.914 -0.917,2.398 0,3.312 l 14.063,14.062 c 0.914,0.918 2.398,0.918 3.313,0 L 41.5,47.75 c 0.918,-0.914 0.918,-2.398 0,-3.312 -0.914,-0.918 -2.398,-0.918 -3.312,0 L 28.125,54.496 V 27.344 c 0,-3.883 3.148,-7.032 7.031,-7.032 z" style="fill:currentColor;fill-opacity:1;fill-rule:nonzero;stroke:none" transform="scale(1.3333333)" /> </g>
</svg>

