<?xml version="1.0" encoding="UTF-8" standalone="no"?> <svg version="1.1" id="Id43ecc27cfda4addb3e2f4c54ea1158120251110133655" width="100" height="100" viewBox="0 0 100 100" xmlns="http://www.w3.org/2000/svg" xmlns:svg="http://www.w3.org/2000/svg"> <defs id="I41bf1342160f4ec580601d7cfff2ccfc20251110133655" /> <g id="I6207dadc1c6646e3b0695a7fe1da84fe20251110133655"> <path id="I99810e5a65384124bd920bdb1feb75ea20251110133655" d="m 18.082,8.035 h 38.836 c 5.461,0 10.047,4.606 10.047,10.047 V 29.488 C 66.742,29.473 66.52,29.465 66.293,29.465 h -3.348 v -4.02 h -50.89 v 31.473 c 0,3.328 2.695,6.027 6.027,6.027 h 11.383 v 3.348 c 0,0.227 0.008,0.449 0.023,0.672 H 18.082 C 12.531,66.965 8.035,62.469 8.035,56.918 V 18.082 c 0,-5.461 4.606,-10.047 10.047,-10.047 z m 31.473,41.52 V 38.168 c 0,-3.328 2.699,-6.023 6.027,-6.023 h 10.711 c 3.328,0 6.027,2.695 6.027,6.023 v 25.449 c 0,4.809 -3.894,8.703 -8.703,8.703 H 38.168 c -3.328,0 -6.023,-2.699 -6.023,-6.027 V 55.582 c 0,-3.328 2.695,-6.027 6.023,-6.027 z M 53.57,38.168 V 49.555 H 68.305 V 38.168 c 0,-1.109 -0.903,-2.008 -2.012,-2.008 H 55.582 c -1.109,0 -2.012,0.899 -2.012,2.008 z M 68.305,53.57 H 53.57 v 14.735 h 10.047 c 2.586,0 4.688,-2.102 4.688,-4.688 z m -30.137,0 c -1.109,0 -2.008,0.903 -2.008,2.012 v 10.711 c 0,1.109 0.899,2.012 2.008,2.012 H 49.555 V 53.57 Z" style="fill:currentColor;fill-opacity:1;fill-rule:nonzero;stroke:none" transform="scale(1.3333333)" /> </g>
</svg>

