<?xml version="1.0" encoding="UTF-8" standalone="no"?> <svg version="1.1" id="I89042bd7e46244dbb42aa675560ceeb420251106144521" width="100" height="100" viewBox="0 0 100 100" xmlns="http://www.w3.org/2000/svg" xmlns:svg="http://www.w3.org/2000/svg"> <defs id="I9153c748217d48f5a00d35f164e0afa120251106144521" /> <g id="I25174f6c388740919fd569b79dfa7d9020251106144521"> <path id="I8eb10448eeb34c5f9d68c93bb8c735de20251106144521" d="m 41.375,62.199 c 1.574,-0.242 3.184,0.524 3.793,1.996 0.719,1.731 -0.215,3.715 -2.059,4.051 -1.824,0.332 -3.703,0.504 -5.621,0.504 -1.914,0 -3.789,-0.172 -5.609,-0.5 -1.844,-0.336 -2.781,-2.32 -2.063,-4.055 0.61,-1.472 2.219,-2.238 3.797,-1.996 1.262,0.199 2.555,0.301 3.875,0.301 1.321,0 2.621,-0.102 3.887,-0.301 z M 13.188,50.945 c 1.472,-0.609 3.148,-0.015 4.089,1.274 1.532,2.101 3.387,3.957 5.493,5.492 1.285,0.941 1.882,2.617 1.273,4.09 -0.719,1.73 -2.785,2.472 -4.324,1.406 -3.102,-2.145 -5.793,-4.836 -7.938,-7.937 -1.07,-1.54 -0.324,-3.606 1.407,-4.325 z m 44.511,1.27 c 0.942,-1.289 2.621,-1.883 4.094,-1.274 1.73,0.719 2.473,2.786 1.406,4.325 -2.144,3.097 -4.836,5.789 -7.933,7.937 -1.539,1.067 -3.606,0.324 -4.325,-1.406 -0.609,-1.473 -0.015,-3.152 1.27,-4.09 2.101,-1.535 3.957,-3.391 5.488,-5.492 z M 47.008,27.477 c 1.222,-1.219 3.199,-1.219 4.422,0 1.218,1.222 1.218,3.199 0,4.421 L 35.805,47.523 c -0.586,0.586 -1.383,0.915 -2.211,0.915 -0.828,0 -1.625,-0.329 -2.211,-0.915 L 23.57,39.711 23.359,39.473 c -1.004,-1.231 -0.933,-3.039 0.211,-4.184 1.145,-1.144 2.957,-1.215 4.184,-0.215 l 0.238,0.215 5.602,5.606 z M 6.742,31.879 c 0.336,-1.844 2.32,-2.777 4.051,-2.059 1.473,0.61 2.238,2.219 1.992,3.793 -0.195,1.27 -0.297,2.567 -0.297,3.887 0,1.316 0.102,2.613 0.297,3.875 0.246,1.578 -0.519,3.187 -1.996,3.797 -1.73,0.719 -3.715,-0.219 -4.051,-2.063 -0.328,-1.82 -0.5,-3.695 -0.5,-5.609 0,-1.918 0.172,-3.797 0.504,-5.621 z M 64.18,29.82 c 1.734,-0.715 3.718,0.223 4.054,2.063 0.332,1.824 0.504,3.699 0.504,5.617 0,1.914 -0.172,3.789 -0.5,5.605 -0.336,1.844 -2.324,2.782 -4.054,2.063 -1.473,-0.609 -2.239,-2.219 -1.996,-3.797 0.199,-1.262 0.3,-2.555 0.3,-3.871 0,-1.32 -0.101,-2.617 -0.3,-3.883 -0.247,-1.574 0.519,-3.183 1.992,-3.797 z M 50.941,13.203 c 0.715,-1.734 2.782,-2.476 4.325,-1.406 3.093,2.144 5.781,4.832 7.925,7.926 1.071,1.543 0.329,3.609 -1.406,4.324 -1.473,0.609 -3.152,0.019 -4.09,-1.27 -1.535,-2.097 -3.386,-3.949 -5.484,-5.484 -1.289,-0.938 -1.883,-2.617 -1.27,-4.09 z M 19.719,11.789 c 1.543,-1.066 3.609,-0.324 4.324,1.406 0.613,1.473 0.016,3.153 -1.27,4.094 -2.101,1.531 -3.957,3.387 -5.492,5.484 -0.937,1.289 -2.621,1.883 -4.09,1.27 -1.73,-0.715 -2.472,-2.781 -1.406,-4.324 2.149,-3.094 4.836,-5.785 7.934,-7.93 z M 37.488,6.25 c 1.918,0 3.793,0.172 5.614,0.504 1.843,0.336 2.781,2.32 2.062,4.051 -0.609,1.472 -2.219,2.238 -3.793,1.996 -1.266,-0.199 -2.562,-0.301 -3.883,-0.301 -1.316,0 -2.609,0.102 -3.875,0.301 -1.574,0.242 -3.179,-0.524 -3.793,-1.996 -0.715,-1.735 0.219,-3.719 2.063,-4.055 1.82,-0.328 3.691,-0.5 5.605,-0.5 z" style="fill:currentColor;fill-opacity:1;fill-rule:nonzero;stroke:none" transform="scale(1.3333333)" /> </g>
</svg>

