<?xml version="1.0" encoding="UTF-8" standalone="no"?> <svg version="1.1" id="I16a6a58a3dbe4f34a9777442b7179ba220251106154011" width="100" height="100" viewBox="0 0 100 100" xmlns="http://www.w3.org/2000/svg" xmlns:svg="http://www.w3.org/2000/svg"> <defs id="I0b21aba443ad47dea3ff23f37779208e20251106154011" /> <g id="Ieae325bc6df346e8a2aec01cc697eda120251106154011"> <path id="Ie5f392b4a2b44e8fa33ef973e25a5c3b20251106154011" d="m 21.883,8.602 c 0,-1.297 -1.051,-2.344 -2.344,-2.344 -1.297,0 -2.344,1.047 -2.344,2.344 V 9.578 C 10.973,10.684 6.25,16.117 6.25,22.656 v 1.692 c 0,5.675 3.238,10.855 8.34,13.34 l 2.605,1.273 v 21.586 c -3.609,-1.016 -6.257,-4.332 -6.257,-8.274 v -3.062 c 0,-1.297 -1.051,-2.344 -2.344,-2.344 -1.293,0 -2.344,1.047 -2.344,2.344 v 3.062 c 0,6.543 4.727,11.973 10.945,13.079 v 1.046 c 0,1.293 1.047,2.344 2.344,2.344 1.293,0 2.344,-1.051 2.344,-2.344 v -1.05 c 6.215,-1.11 10.929,-6.543 10.929,-13.075 v -1.636 c 0,-5.676 -3.238,-10.856 -8.339,-13.344 l -2.59,-1.262 V 14.387 c 3.601,1.023 6.242,4.336 6.242,8.269 v 3.129 c 0,1.293 1.051,2.344 2.344,2.344 1.293,0 2.343,-1.051 2.343,-2.344 v -3.129 c 0,-6.535 -4.718,-11.965 -10.929,-13.074 z m -4.688,5.781 v 19.363 l -0.55,-0.269 C 13.152,31.773 10.938,28.23 10.938,24.348 v -1.692 c 0,-3.937 2.644,-7.254 6.257,-8.273 z m 4.688,26.863 0.535,0.262 c 3.492,1.703 5.707,5.246 5.707,9.129 v 1.636 c 0,3.93 -2.637,7.247 -6.242,8.27 z M 39.844,9.375 c -1.293,0 -2.344,1.047 -2.344,2.344 0,1.211 0.922,2.211 2.105,2.332 0.079,0.008 0.157,0.011 0.239,0.011 h 7.031 c 3.34,0 6.234,1.903 7.656,4.688 H 39.844 c -1.293,0 -2.344,1.047 -2.344,2.344 0,1.293 1.051,2.344 2.344,2.344 h 15.59 c -0.395,4.378 -4.075,7.812 -8.559,7.812 h -7.031 c -0.879,0 -1.684,0.488 -2.086,1.27 -0.399,0.781 -0.332,1.718 0.18,2.433 l 23.437,32.813 c 0.75,1.054 2.215,1.296 3.27,0.546 1.05,-0.753 1.296,-2.218 0.543,-3.269 L 44.398,35.938 h 2.477 c 7.074,0 12.855,-5.532 13.258,-12.5 h 6.273 c 1.293,0 2.344,-1.051 2.344,-2.344 0,-1.297 -1.051,-2.344 -2.344,-2.344 H 59.574 C 59.039,17.008 58.152,15.418 57,14.062 h 9.406 c 1.293,0 2.344,-1.05 2.344,-2.343 0,-1.297 -1.051,-2.344 -2.344,-2.344 z" style="fill:currentColor;fill-opacity:1;fill-rule:nonzero;stroke:none" transform="scale(1.3333333)" /> </g>
</svg>

