<?xml version="1.0" encoding="UTF-8" standalone="no"?> <svg version="1.1" id="I10d98b77bbe644a9a2df40ec00f9eb9720251106164749" width="100" height="100" viewBox="0 0 100 100" xmlns="http://www.w3.org/2000/svg" xmlns:svg="http://www.w3.org/2000/svg"> <defs id="I2ca665a382bc463fa280fc6ca4cb9df520251106164749" /> <g id="I683a4a18bbe04edbbda85d3da7e037be20251106164749"> <path id="Iadc8a4ee874c4bc28c3c97867e3a85f120251106164749" d="M 8.785,5.945 C 8.004,5.16 6.73,5.16 5.945,5.945 5.16,6.73 5.16,8.004 5.945,8.785 l 11.614,11.613 -9.61,9.481 c -0.273,0.238 -0.535,0.492 -0.773,0.766 l -0.071,0.07 0.008,0.004 C 6.02,32.004 5.355,33.672 5.355,35.492 v 10.715 c 0,5.547 4.5,10.043 10.047,10.043 h 9.375 c 5.547,0 10.043,-4.496 10.043,-10.043 v -8.039 h 0.508 l 4.852,4.852 v 3.187 c 0,5.547 4.496,10.043 10.043,10.043 h 3.183 l 12.805,12.805 c 0.785,0.785 2.059,0.785 2.844,0 0.785,-0.785 0.785,-2.055 0,-2.84 z m 16.5,22.18 h -9.836 l 4.949,-4.883 z m -0.683,-12.043 4.011,4.008 h 0.18 c 1.109,0 2.012,-0.899 2.012,-2.008 0,-1.109 -0.903,-2.012 -2.012,-2.012 h -3.828 c -0.121,0 -0.242,0.004 -0.363,0.012 z M 63.836,55.316 40.879,32.355 c 1.176,-2.5 3.719,-4.23 6.664,-4.23 h 12.008 l -7.164,-7.07 C 51.758,20.438 50.914,20.09 50.035,20.09 h -3.832 c -1.109,0 -2.008,-0.899 -2.008,-2.008 0,-1.109 0.899,-2.012 2.008,-2.012 h 3.832 c 1.934,0 3.793,0.766 5.172,2.125 l 11.836,11.68 c 0.281,0.238 0.543,0.496 0.785,0.773 l 0.067,0.067 -0.008,0.004 c 1.093,1.285 1.758,2.953 1.758,4.773 v 10.715 c 0,4.031 -2.379,7.508 -5.809,9.109 z" style="fill:currentColor;fill-opacity:1;fill-rule:nonzero;stroke:none" transform="scale(1.3333333)" /> </g>
</svg>

