<?xml version="1.0" encoding="UTF-8" standalone="no"?> <svg version="1.1" id="I95f525956da74bfcb023330f6f58564420251106144520" width="100" height="100" viewBox="0 0 100 100" xmlns="http://www.w3.org/2000/svg" xmlns:svg="http://www.w3.org/2000/svg"> <defs id="I003a8b3a301c4ce4ba3a28bb49131b9c20251106144520" /> <g id="I5dd2d3fe0a424d1faaad2dec5476afa820251106144520"> <path id="Ib1624eac82c14302a4994dc404bce98320251106144520" d="M 10.25,6.938 C 9.336,6.02 7.852,6.02 6.938,6.938 6.02,7.852 6.02,9.336 6.938,10.25 l 27.437,27.441 v 22.465 l 0.02,0.317 c 0.156,1.144 1.136,2.027 2.324,2.027 1.293,0 2.343,-1.051 2.343,-2.344 V 42.379 l 7.813,7.812 v 9.965 l 0.02,0.317 c 0.156,1.144 1.136,2.027 2.324,2.027 1.293,0 2.343,-1.051 2.343,-2.344 V 54.879 L 64.75,68.062 c 0.914,0.918 2.398,0.918 3.312,0 0.915,-0.914 0.915,-2.398 0,-3.312 z m 49.125,42.496 4.687,4.687 V 17.945 l -0.023,-0.32 c -0.168,-1.141 -1.156,-2.012 -2.344,-2 -1.293,0.012 -2.332,1.07 -2.32,2.363 z m -12.5,-12.5 4.687,4.687 V 27.344 L 51.543,27.027 C 51.387,25.883 50.406,25 49.219,25 c -1.293,0 -2.344,1.051 -2.344,2.344 z M 11.719,53.125 c 1.187,0 2.168,0.883 2.324,2.027 l 0.019,0.317 v 4.687 c 0,1.293 -1.05,2.344 -2.343,2.344 -1.188,0 -2.168,-0.883 -2.324,-2.027 l -0.02,-0.317 v -4.687 c 0,-1.293 1.051,-2.344 2.344,-2.344 z m 12.5,-9.375 c 1.187,0 2.168,0.883 2.324,2.027 l 0.019,0.317 v 14.058 c 0,1.293 -1.05,2.344 -2.343,2.344 -1.188,0 -2.168,-0.883 -2.324,-2.027 l -0.02,-0.317 V 46.094 c 0,-1.293 1.051,-2.344 2.344,-2.344 z" style="fill:currentColor;fill-opacity:1;fill-rule:nonzero;stroke:none" transform="scale(1.3333333)" /> </g>
</svg>

