<?xml version="1.0" encoding="UTF-8" standalone="no"?> <svg version="1.1" id="I0f27e9e1890a4f7fbf13a80436d0158d20251106105458" width="100" height="100" viewBox="0 0 100 100" xmlns="http://www.w3.org/2000/svg" xmlns:svg="http://www.w3.org/2000/svg"> <defs id="I4d3cb68981ff401b86bf59c3f14f230120251106105458" /> <g id="Id2cba16f1e4441e0bf4c2b38f48fb1fa20251106105458"> <path id="I04525fba4fde497faf0a2f9ebfc5cfbb20251106105458" d="M 62.945,58.93 H 60.938 V 30.469 C 60.938,18.656 52.207,8.898 40.848,7.273 V 4.02 c 0,-1.852 -1.496,-3.352 -3.348,-3.352 -1.852,0 -3.348,1.5 -3.348,3.352 V 7.273 C 22.793,8.898 14.062,18.656 14.062,30.469 V 58.93 h -2.007 c -1.485,0 -2.68,1.195 -2.68,2.675 v 2.68 c 0,0.367 0.301,0.672 0.668,0.672 h 18.082 c 0,5.172 4.203,9.375 9.375,9.375 5.172,0 9.375,-4.203 9.375,-9.375 h 18.082 c 0.367,0 0.668,-0.305 0.668,-0.672 v -2.68 c 0,-1.48 -1.195,-2.675 -2.68,-2.675 z M 37.5,68.973 c -2.219,0 -4.02,-1.801 -4.02,-4.016 h 8.04 c 0,2.215 -1.801,4.016 -4.02,4.016 z M 20.09,58.93 V 30.469 c 0,-4.653 1.808,-9.024 5.098,-12.313 3.289,-3.289 7.66,-5.097 12.312,-5.097 4.652,0 9.023,1.808 12.312,5.097 3.29,3.289 5.098,7.66 5.098,12.313 V 58.93 Z" style="fill:currentColor;fill-opacity:1;fill-rule:nonzero;stroke:none" transform="scale(1.3333333)" /> </g>
</svg>

