<?xml version="1.0" encoding="UTF-8" standalone="no"?> <svg version="1.1" id="If0a1a6e0c67a4302abc5eb388af14c5e20251106151526" width="100" height="100" viewBox="0 0 100 100" xmlns="http://www.w3.org/2000/svg" xmlns:svg="http://www.w3.org/2000/svg"> <defs id="I94c6f8ff13f7420e91c631316ec1e32d20251106151526" /> <g id="I350e9a9c21d2408ca0082b34b6bfb8f320251106151526"> <path id="I598695ca11ba4875be631f4b84d4468f20251106151526" d="m 57.348,59.996 6.953,6.953 c 0.73,0.735 1.918,0.735 2.648,0 0.735,-0.73 0.735,-1.918 0,-2.648 L 10.699,8.051 c -0.73,-0.735 -1.918,-0.735 -2.648,0 -0.735,0.73 -0.735,1.918 0,2.648 l 6.953,6.953 C 10.332,22.941 7.5,29.891 7.5,37.5 c 0,16.57 13.43,30 30,30 7.609,0 14.559,-2.832 19.848,-7.504 z M 67.5,37.5 c 0,6.25 -1.914,12.055 -5.184,16.863 L 20.637,12.684 C 25.445,9.414 31.25,7.5 37.5,7.5 c 16.57,0 30,13.43 30,30 z" style="fill:currentColor;fill-opacity:1;fill-rule:nonzero;stroke:none" transform="scale(1.3333333)" /> </g>
</svg>

