<?xml version="1.0" encoding="UTF-8" standalone="no"?> <svg version="1.1" id="I6b1c76ea29be4327a2ad9fda9d4af00620251110130509" width="100" height="100" viewBox="0 0 100 100" xmlns="http://www.w3.org/2000/svg" xmlns:svg="http://www.w3.org/2000/svg"> <defs id="I24fe23c29ca344fc84980603e888e18d20251110130509" /> <g id="Iebc4e23ed1dd498fa8100b5e85edc90820251110130509"> <path id="I55cabcab424e4684814883703b6b132a20251110130509" d="m 37.5,43.75 c 3.453,0 6.25,-2.797 6.25,-6.25 0,-3.453 -2.797,-6.25 -6.25,-6.25 -3.453,0 -6.25,2.797 -6.25,6.25 0,3.453 2.797,6.25 6.25,6.25 z M 18.75,37.5 c 0,-10.355 8.395,-18.75 18.75,-18.75 10.355,0 18.75,8.395 18.75,18.75 0,10.355 -8.395,18.75 -18.75,18.75 -10.355,0 -18.75,-8.395 -18.75,-18.75 z M 37.5,25 C 30.598,25 25,30.598 25,37.5 25,44.402 30.598,50 37.5,50 44.402,50 50,44.402 50,37.5 50,30.598 44.402,25 37.5,25 Z M 6.25,37.5 C 6.25,20.242 20.242,6.25 37.5,6.25 54.758,6.25 68.75,20.242 68.75,37.5 68.75,54.758 54.758,68.75 37.5,68.75 20.242,68.75 6.25,54.758 6.25,37.5 Z m 31.25,-25 c -13.809,0 -25,11.191 -25,25 0,13.809 11.191,25 25,25 13.809,0 25,-11.191 25,-25 0,-13.809 -11.191,-25 -25,-25 z" style="fill:currentColor;fill-opacity:1;fill-rule:nonzero;stroke:none" transform="scale(1.3333333)" /> </g>
</svg>

