<?xml version="1.0" encoding="UTF-8" standalone="no"?> <svg version="1.1" id="I553eb5fd019c4a0ea5ce0fc0707b75b620251106123559" width="100" height="100" viewBox="0 0 100 100" xmlns="http://www.w3.org/2000/svg" xmlns:svg="http://www.w3.org/2000/svg"> <defs id="I718ad21c4dcc47e580a2eb991c28572220251106123559" /> <g id="Idd873fcfb79b4ef1a96e647b3618ca9020251106123559"> <path id="Id8ef7cde52ba4c5eaefac083231a75aa20251106123559" d="m 22.5,3.75 c -4.141,0 -7.5,3.359 -7.5,7.5 V 15 c 0,4.141 3.359,7.5 7.5,7.5 h 30 c 4.141,0 7.5,-3.359 7.5,-7.5 v -3.75 c 0,-4.141 -3.359,-7.5 -7.5,-7.5 z m 0,48.75 C 18.359,52.5 15,55.859 15,60 v 3.75 c 0,4.141 3.359,7.5 7.5,7.5 h 30 c 4.141,0 7.5,-3.359 7.5,-7.5 V 60 c 0,-4.141 -3.359,-7.5 -7.5,-7.5 z" style="fill:currentColor;fill-opacity:1;fill-rule:nonzero;stroke:none" transform="scale(1.3333333)" /> </g>
</svg>

