<?xml version="1.0" encoding="UTF-8" standalone="no"?> <svg version="1.1" id="I97fe2aa40d3d4de2ac2520710589bcab20251106152728" width="100" height="100" viewBox="0 0 100 100" xmlns="http://www.w3.org/2000/svg" xmlns:svg="http://www.w3.org/2000/svg"> <defs id="I399d03a190854de8858656cf90fe218d20251106152728" /> <g id="Iffd67cb210034450b6ff4e135d91aa9220251106152728"> <path id="Id6690108b5104766a7f46e132dad707120251106152728" d="m 15,15 c 0,-4.141 3.359,-7.5 7.5,-7.5 h 30 c 4.141,0 7.5,3.359 7.5,7.5 v 45 c 0,4.141 -3.359,7.5 -7.5,7.5 h -30 C 18.359,67.5 15,64.141 15,60 Z m 7.5,-3.75 c -2.07,0 -3.75,1.68 -3.75,3.75 v 7.5 h 37.5 V 15 c 0,-2.07 -1.68,-3.75 -3.75,-3.75 z m -3.75,30 h 37.5 v -15 h -37.5 z m 0,11.25 V 60 c 0,2.07 1.68,3.75 3.75,3.75 h 30 c 2.07,0 3.75,-1.68 3.75,-3.75 v -7.5 z" style="fill:currentColor;fill-opacity:1;fill-rule:nonzero;stroke:none" transform="scale(1.3333333)" /> </g>
</svg>

