<?xml version="1.0" encoding="UTF-8" standalone="no"?> <svg version="1.1" id="I2128f59578bb4d7e9f2c25f198f2edac20251110124419" width="100" height="100" viewBox="0 0 100 100" xmlns="http://www.w3.org/2000/svg" xmlns:svg="http://www.w3.org/2000/svg"> <defs id="Iff4c811cb86149cdba4324636d81ed4520251110124419" /> <g id="Ib964cd2554ef442fb096e225d68bb6f320251110124419"> <path id="Ic9f558b3de7044a8a5448d0af9eb81e320251110124419" d="m 50,32.812 c 1.242,0 2.438,0.493 3.316,1.372 0.879,0.878 1.372,2.074 1.372,3.316 0,1.242 -0.493,2.438 -1.372,3.316 -0.878,0.879 -2.074,1.372 -3.316,1.372 H 25 c -1.242,0 -2.434,-0.493 -3.316,-1.372 -0.879,-0.878 -1.372,-2.074 -1.372,-3.316 0,-1.242 0.493,-2.438 1.372,-3.316 0.882,-0.879 2.074,-1.372 3.316,-1.372 z m 0,-4.687 H 25 c -2.488,0 -4.871,0.988 -6.629,2.746 -1.758,1.758 -2.746,4.145 -2.746,6.629 0,2.484 0.988,4.871 2.746,6.629 1.758,1.758 4.141,2.746 6.629,2.746 h 25 c 2.484,0 4.871,-0.988 6.629,-2.746 1.758,-1.758 2.746,-4.145 2.746,-6.629 0,-2.484 -0.988,-4.871 -2.746,-6.629 C 54.871,29.113 52.484,28.125 50,28.125 Z" style="fill:currentColor;fill-opacity:1;fill-rule:nonzero;stroke:none" transform="scale(1.3333333)" /> </g>
</svg>

