<?xml version="1.0" encoding="UTF-8" standalone="no"?> <svg version="1.1" id="Ia7c486663a9440a29e049a9d3612e5d520251110124422" width="100" height="100" viewBox="0 0 100 100" xmlns="http://www.w3.org/2000/svg" xmlns:svg="http://www.w3.org/2000/svg"> <defs id="Ieff5e4a217fe464c88170a738ac2d5cb20251110124422" /> <g id="I174c099165c24aab89a4d85a909696ee20251110124422"> <path id="I4639bff931154a0599b723f023e2d46520251110124422" d="m 15.625,42.969 c 0,-2.157 1.75,-3.907 3.906,-3.907 h 12.5 c 2.157,0 3.907,1.75 3.907,3.907 v 6.25 c 0,2.156 -1.75,3.906 -3.907,3.906 h -12.5 c -2.156,0 -3.906,-1.75 -3.906,-3.906 z m 4.687,0.781 v 4.688 H 31.25 V 43.75 Z m 22.657,-4.688 c -2.157,0 -3.907,1.75 -3.907,3.907 v 6.25 c 0,2.156 1.75,3.906 3.907,3.906 h 12.5 c 2.156,0 3.906,-1.75 3.906,-3.906 v -6.25 c 0,-2.157 -1.75,-3.907 -3.906,-3.907 z m 0.781,9.376 V 43.75 h 10.938 v 4.688 z M 15.625,25.781 c 0,-2.156 1.75,-3.906 3.906,-3.906 h 12.5 c 2.157,0 3.907,1.75 3.907,3.906 v 6.25 c 0,2.157 -1.75,3.907 -3.907,3.907 h -12.5 c -2.156,0 -3.906,-1.75 -3.906,-3.907 z m 4.687,0.781 V 31.25 H 31.25 v -4.688 z m 22.657,-4.687 c -2.157,0 -3.907,1.75 -3.907,3.906 v 6.25 c 0,2.157 1.75,3.907 3.907,3.907 h 12.5 c 2.156,0 3.906,-1.75 3.906,-3.907 v -6.25 c 0,-2.156 -1.75,-3.906 -3.906,-3.906 z M 43.75,31.25 V 26.562 H 54.688 V 31.25 Z M 6.25,21.094 c 0,-4.746 3.848,-8.594 8.594,-8.594 h 45.312 c 4.746,0 8.594,3.848 8.594,8.594 v 32.812 c 0,4.746 -3.848,8.594 -8.594,8.594 H 14.844 C 10.098,62.5 6.25,58.652 6.25,53.906 Z m 8.594,-3.906 c -2.156,0 -3.906,1.75 -3.906,3.906 v 32.812 c 0,2.156 1.75,3.906 3.906,3.906 h 45.312 c 2.156,0 3.906,-1.75 3.906,-3.906 V 21.094 c 0,-2.156 -1.75,-3.906 -3.906,-3.906 z" style="fill:currentColor;fill-opacity:1;fill-rule:nonzero;stroke:none" transform="scale(1.3333333)" /> </g>
</svg>

