<?xml version="1.0" encoding="UTF-8" standalone="no"?> <svg version="1.1" id="Ib731b9d1419a4947bd12dbe4bc48e09b20251106105802" width="100" height="100" viewBox="0 0 100 100" xmlns="http://www.w3.org/2000/svg" xmlns:svg="http://www.w3.org/2000/svg"> <defs id="Ieea792c32e5342dba261d8978ca88f9720251106105802" /> <g id="If8f1e86737934ce1897dd15409f3b6b520251106105802"> <path id="I3e1a2308ab494bb7bf07506236936de920251106105802" d="m 42.691,50.34 c -0.261,-0.258 -0.687,-0.258 -0.949,0 l -9.726,9.726 c -4.5,4.504 -12.102,4.981 -17.075,0 -4.98,-4.98 -4.503,-12.57 0,-17.074 l 9.727,-9.726 c 0.258,-0.262 0.258,-0.688 0,-0.946 l -3.332,-3.332 c -0.262,-0.261 -0.684,-0.261 -0.945,0 l -9.727,9.727 c -7.082,7.082 -7.082,18.539 0,25.613 7.082,7.074 18.539,7.082 25.613,0 l 9.727,-9.726 c 0.262,-0.262 0.262,-0.688 0,-0.946 z M 64.336,10.664 c -7.082,-7.082 -18.539,-7.082 -25.613,0 l -9.735,9.727 c -0.261,0.261 -0.261,0.683 0,0.945 l 3.321,3.324 c 0.261,0.258 0.687,0.258 0.949,0 l 9.726,-9.726 c 4.5,-4.504 12.102,-4.981 17.075,0 4.98,4.98 4.503,12.57 0,17.074 l -9.727,9.726 c -0.258,0.262 -0.258,0.684 0,0.946 l 3.332,3.332 c 0.258,0.261 0.688,0.261 0.945,0 l 9.727,-9.727 c 7.074,-7.082 7.074,-18.539 0,-25.621 z M 45.711,25.805 c -0.262,-0.258 -0.684,-0.258 -0.945,0 L 25.805,44.758 c -0.258,0.262 -0.258,0.683 0,0.945 l 3.316,3.317 c 0.258,0.257 0.688,0.257 0.945,0 L 49.02,30.066 c 0.257,-0.257 0.257,-0.687 0,-0.945 z" style="fill:currentColor;fill-opacity:1;fill-rule:nonzero;stroke:none" transform="scale(1.3333333)" /> </g>
</svg>

