<?xml version="1.0" encoding="UTF-8" standalone="no"?> <svg version="1.1" id="Ic955d0ebb2314acbaa4a7dea39c138b920251110123029" width="100" height="100" viewBox="0 0 100 100" xmlns="http://www.w3.org/2000/svg" xmlns:svg="http://www.w3.org/2000/svg"> <defs id="Iabbec1b0ff844813a0d73bdc70bff30f20251110123029" /> <g id="I0cb4ea3d307b42bd9d7380a9822db95b20251110123029"> <path id="I07217264892d44c2b0f117b426ef73f920251110123029" d="m 13.395,22.77 c 0,-1.11 0.898,-2.012 2.007,-2.012 h 4.016 c 1.109,0 2.012,0.902 2.012,2.012 0,1.109 -0.903,2.007 -2.012,2.007 h -4.016 c -1.109,0 -2.007,-0.898 -2.007,-2.007 z m 0,13.39 c 0,-1.109 0.898,-2.008 2.007,-2.008 h 4.016 c 1.109,0 2.012,0.899 2.012,2.008 0,1.11 -0.903,2.008 -2.012,2.008 h -4.016 c -1.109,0 -2.007,-0.898 -2.007,-2.008 z m 2.007,11.383 c -1.109,0 -2.007,0.902 -2.007,2.012 0,1.109 0.898,2.007 2.007,2.007 h 4.016 c 1.109,0 2.012,-0.898 2.012,-2.007 0,-1.11 -0.903,-2.012 -2.012,-2.012 z M 5.367,20.758 c 0,-5.547 4.496,-10.043 10.047,-10.043 h 44.184 c 5.55,0 10.047,4.496 10.047,10.043 v 20.496 c -1.188,-1.277 -2.536,-2.402 -4.02,-3.34 V 20.758 c 0,-3.328 -2.695,-6.028 -6.027,-6.028 H 29.465 V 57.59 H 35 c 0.184,1.39 0.512,2.734 0.965,4.015 H 15.414 C 9.863,61.605 5.367,57.109 5.367,51.562 Z M 15.414,14.73 c -3.332,0 -6.027,2.7 -6.027,6.028 v 30.804 c 0,3.329 2.695,6.028 6.027,6.028 H 25.445 V 14.73 Z M 72.32,54.91 c 0,9.617 -7.793,17.41 -17.41,17.41 -9.617,0 -17.41,-7.793 -17.41,-17.41 0,-9.617 7.793,-17.41 17.41,-17.41 9.617,0 17.41,7.793 17.41,17.41 z m -24.5,-8.98 c -0.519,-0.524 -1.371,-0.524 -1.89,0 -0.524,0.519 -0.524,1.371 0,1.89 L 53.016,54.91 45.93,62 c -0.524,0.523 -0.524,1.371 0,1.895 0.519,0.523 1.371,0.523 1.89,0 l 7.09,-7.09 7.09,7.09 c 0.523,0.523 1.371,0.523 1.895,0 0.523,-0.524 0.523,-1.372 0,-1.895 l -7.09,-7.09 7.09,-7.09 c 0.523,-0.519 0.523,-1.371 0,-1.89 -0.524,-0.524 -1.372,-0.524 -1.895,0 l -7.09,7.086 z" style="fill:currentColor;fill-opacity:1;fill-rule:nonzero;stroke:none" transform="scale(1.3333333)" /> </g>
</svg>

