<?xml version="1.0" encoding="UTF-8" standalone="no"?> <svg version="1.1" id="Iaeaa2b8ded8a48329f47008993c0ad2e20251110123030" width="100" height="100" viewBox="0 0 100 100" xmlns="http://www.w3.org/2000/svg" xmlns:svg="http://www.w3.org/2000/svg"> <defs id="I41e5d40c7d39451e80b5bb1eda84cfd020251110123030" /> <g id="I21e940056f7b40d685033fed29584f2220251110123030"> <path id="I79e7ccdd32324f0ea062fdff186c290e20251110123030" d="m 53.906,21.094 c 0,9.062 -7.344,16.406 -16.406,16.406 -9.062,0 -16.406,-7.344 -16.406,-16.406 0,-9.063 7.344,-16.406 16.406,-16.406 9.062,0 16.406,7.343 16.406,16.406 z m -4.687,0 c 0,-6.473 -5.246,-11.719 -11.719,-11.719 -6.473,0 -11.719,5.246 -11.719,11.719 0,6.472 5.246,11.718 11.719,11.718 6.473,0 11.719,-5.246 11.719,-11.718 z M 17.578,42.188 c -4.531,0 -8.203,3.671 -8.203,8.203 v 1.171 c 0,5.61 3.57,10.352 8.637,13.579 5.093,3.242 11.992,5.171 19.488,5.171 2.895,0 5.703,-0.289 8.352,-0.828 l -3.86,-4.121 c -1.449,0.172 -2.953,0.262 -4.492,0.262 -6.742,0 -12.738,-1.742 -16.973,-4.437 -4.261,-2.715 -6.465,-6.172 -6.465,-9.626 v -1.171 c 0,-1.942 1.575,-3.516 3.516,-3.516 h 14.977 c 0.379,-1.66 1.086,-3.258 2.117,-4.687 z m 34.899,1.339 1.421,1.793 1.426,-1.793 c 3.571,-4.492 10.129,-4.941 14.262,-0.98 3.945,3.785 4.109,10.129 0.367,14.125 L 55.699,71.871 c -0.98,1.047 -2.617,1.047 -3.597,0 L 37.855,56.656 C 34.117,52.668 34.281,46.34 38.219,42.555 42.344,38.59 48.906,39.039 52.477,43.527 Z m -3.372,25.145 -3.648,-3.895 z" style="fill:currentColor;fill-opacity:1;fill-rule:nonzero;stroke:none" transform="scale(1.3333333)" /> </g>
</svg>

