<?xml version="1.0" encoding="UTF-8" standalone="no"?> <svg version="1.1" id="I19dab541a487480490615673e54c2c4020251106125938" width="100" height="100" viewBox="0 0 100 100" xmlns="http://www.w3.org/2000/svg" xmlns:svg="http://www.w3.org/2000/svg"> <defs id="I802b876dd30641c39ce4a55126364f2a20251106125938"> <linearGradient x1="3.92857" y1="7.875" x2="24.3571" y2="24.125" gradientUnits="userSpaceOnUse" gradientTransform="scale(2.34375)" spreadMethod="pad" id="Id3612549b3e944d7bfac55a9571cd3ec20251106125938"> <stop style="stop-opacity:1;stop-color:#36dff1" offset="0" id="Iaf064ffb4ec247dba32d1aeec98a84b220251106125938" /> <stop style="stop-opacity:1;stop-color:#2764e7" offset="1" id="I24e078c5a0694e729a674b7fc3ab0f5320251106125938" /> </linearGradient> <linearGradient x1="11.6923" y1="10.0769" x2="23" y2="34.5769" gradientUnits="userSpaceOnUse" gradientTransform="scale(2.34375)" spreadMethod="pad" id="I9a4ffd891c484484967cf79abe65185f20251106125938"> <stop style="stop-opacity:1;stop-color:#ffffff" offset="0" id="I679e4450cbf34955a7bc288233558e5720251106125938" /> <stop style="stop-opacity:1;stop-color:#b3e0ff" offset="1" id="I764c62fca52c47799d588cbaee1411fd20251106125938" /> </linearGradient> </defs> <g id="I62d30a96094043eab94a50cea29486a620251106125938"> <path id="Ida147369ce7445afaae3c4b858098d2d20251106125938" d="m 7.031,17.578 c 0,-5.824 4.723,-10.547 10.547,-10.547 h 39.844 c 5.824,0 10.547,4.723 10.547,10.547 v 39.844 c 0,5.824 -4.723,10.547 -10.547,10.547 H 17.578 c -5.824,0 -10.547,-4.723 -10.547,-10.547 z" transform="scale(1.3333333)" style="fill:url(#Id3612549b3e944d7bfac55a9571cd3ec20251106125938);stroke:none" /> <path id="Ifa7d8df5f5884bdeaaf55583cc7e1c7220251106125938" d="m 53.219,35.844 c -0.914,-0.918 -2.399,-0.918 -3.313,0 L 39.844,45.902 V 23.438 c 0,-1.293 -1.051,-2.344 -2.344,-2.344 -1.293,0 -2.344,1.051 -2.344,2.344 V 45.902 L 25.094,35.844 c -0.914,-0.918 -2.399,-0.918 -3.313,0 -0.918,0.914 -0.918,2.398 0,3.312 l 14.063,14.063 c 0.914,0.918 2.398,0.918 3.312,0 L 53.219,39.156 c 0.918,-0.914 0.918,-2.398 0,-3.312 z" transform="scale(1.3333333)" style="fill:url(#I9a4ffd891c484484967cf79abe65185f20251106125938);stroke:none" /> </g>
</svg>

