<?xml version="1.0" encoding="UTF-8" standalone="no"?> <svg version="1.1" id="Ib6a793d5e86b4a2397b52e43677b486520251106164749" width="100" height="100" viewBox="0 0 100 100" xmlns="http://www.w3.org/2000/svg" xmlns:svg="http://www.w3.org/2000/svg"> <defs id="Ic316ad3050154763865c5ca1ac9ac54220251106164749" /> <g id="I676aa3ae67ca48d397bcc83c99a25a8020251106164749"> <path id="I0c720572112a4340ab1d5e2fc81e2dc520251106164749" d="M 10.938,19.531 V 25 h 14.464 c 0.621,0 1.219,-0.246 1.657,-0.688 L 31.84,19.531 27.059,14.75 c -0.438,-0.441 -1.036,-0.688 -1.657,-0.688 h -8.996 c -3.019,0 -5.468,2.45 -5.468,5.469 z m -4.688,0 c 0,-5.609 4.547,-10.156 10.156,-10.156 h 8.996 c 1.864,0 3.653,0.742 4.973,2.059 l 5.754,5.754 h 22.465 c 5.609,0 10.156,4.546 10.156,10.156 v 12.687 c -1.387,-1.332 -2.965,-2.469 -4.688,-3.367 v -9.32 c 0,-3.02 -2.449,-5.469 -5.468,-5.469 H 36.129 l -5.754,5.754 c -1.32,1.316 -3.109,2.059 -4.973,2.059 H 10.938 v 25.781 c 0,3.019 2.449,5.469 5.468,5.469 h 18.949 c 0.54,1.667 1.286,3.238 2.211,4.687 H 16.406 C 10.797,65.625 6.25,61.078 6.25,55.469 Z M 37.5,54.688 c 0,9.492 7.695,17.187 17.188,17.187 9.492,0 17.187,-7.695 17.187,-17.187 C 71.875,45.195 64.18,37.5 54.688,37.5 45.195,37.5 37.5,45.195 37.5,54.688 Z M 64.062,43.75 c 0.864,0 1.563,0.699 1.563,1.562 v 6.25 c 0,0.864 -0.699,1.563 -1.563,1.563 h -6.25 c -0.863,0 -1.562,-0.699 -1.562,-1.563 0,-0.863 0.699,-1.562 1.562,-1.562 h 3.126 c -1.426,-1.898 -3.696,-3.125 -6.25,-3.125 -2.606,0 -4.911,1.273 -6.333,3.238 -0.507,0.699 -1.484,0.856 -2.183,0.348 -0.699,-0.504 -0.856,-1.481 -0.348,-2.18 1.985,-2.742 5.215,-4.531 8.864,-4.531 3.062,0 5.828,1.258 7.812,3.281 v -1.719 c 0,-0.863 0.699,-1.562 1.562,-1.562 z M 46.875,62.344 v 1.718 c 0,0.864 -0.699,1.563 -1.563,1.563 -0.863,0 -1.562,-0.699 -1.562,-1.563 v -6.25 c 0,-0.863 0.699,-1.562 1.562,-1.562 h 6.25 c 0.864,0 1.563,0.699 1.563,1.562 0,0.864 -0.699,1.563 -1.563,1.563 h -3.124 c 1.425,1.898 3.695,3.125 6.25,3.125 2.394,0 4.535,-1.074 5.972,-2.777 0.555,-0.657 1.543,-0.743 2.203,-0.184 0.657,0.555 0.742,1.543 0.184,2.203 -2.004,2.371 -5.004,3.883 -8.359,3.883 -3.063,0 -5.829,-1.258 -7.813,-3.281 z" style="fill:currentColor;fill-opacity:1;fill-rule:nonzero;stroke:none" transform="scale(1.3333333)" /> </g>
</svg>

