<?xml version="1.0" encoding="UTF-8" standalone="no"?> <svg version="1.1" id="I3cae472113d247239ac27cc5471fd16c20251110123030" width="100" height="100" viewBox="0 0 100 100" xmlns="http://www.w3.org/2000/svg" xmlns:svg="http://www.w3.org/2000/svg"> <defs id="Id1e33bf7d83c45458cd05e71bf55998620251110123030" /> <g id="Ie48ca267691144a593dfd41ae273dae420251110123030"> <path id="Iba3a47fd098c462cb0cde1a72a87e5fb20251110123030" d="m 28.125,18.75 c 0,-5.176 4.199,-9.375 9.375,-9.375 5.176,0 9.375,4.199 9.375,9.375 0,5.176 -4.199,9.375 -9.375,9.375 -5.176,0 -9.375,-4.199 -9.375,-9.375 z M 19.922,37.5 c 0,-2.699 1.016,-5.164 2.687,-7.031 h -8.547 c -3.882,0 -7.031,3.148 -7.031,7.031 v 8.203 c 0,1.293 1.051,2.344 2.344,2.344 h 10.547 z m 35.156,0 c 0,-2.699 -1.016,-5.164 -2.683,-7.031 h 8.543 c 3.882,0 7.031,3.148 7.031,7.031 v 8.203 c 0,1.293 -1.051,2.344 -2.344,2.344 H 55.078 Z M 7.031,55.078 c 0,-1.941 1.574,-3.516 3.516,-3.516 h 53.906 c 1.942,0 3.516,1.575 3.516,3.516 0,5.824 -4.723,10.547 -10.547,10.547 H 17.578 C 11.754,65.625 7.031,60.902 7.031,55.078 Z M 9.375,19.922 c 0,-4.531 3.672,-8.203 8.203,-8.203 4.531,0 8.203,3.672 8.203,8.203 0,4.531 -3.672,8.203 -8.203,8.203 -4.531,0 -8.203,-3.672 -8.203,-8.203 z m 39.844,0 c 0,-4.531 3.672,-8.203 8.203,-8.203 4.531,0 8.203,3.672 8.203,8.203 0,4.531 -3.672,8.203 -8.203,8.203 -4.531,0 -8.203,-3.672 -8.203,-8.203 z M 23.438,37.5 c 0,-3.883 3.148,-7.031 7.031,-7.031 h 14.062 c 3.883,0 7.031,3.148 7.031,7.031 V 48.047 H 23.438 Z" style="fill:currentColor;fill-opacity:1;fill-rule:nonzero;stroke:none" transform="scale(1.3333333)" /> </g>
</svg>

