<?xml version="1.0" encoding="UTF-8" standalone="no"?> <svg version="1.1" id="Ibd2fba5f5b6d4a3b9329a56f8cdedef620251110133656" width="100" height="100" viewBox="0 0 100 100" xmlns="http://www.w3.org/2000/svg" xmlns:svg="http://www.w3.org/2000/svg"> <defs id="Ia126e0c297d944e58f7a916a724693d220251110133656" /> <g id="Ife74fedf69e34141a06f88202cb2219e20251110133656"> <path id="I3ae36bd5563c47ef83c780050c5f62f620251110133656" d="m 11.25,22.5 c 0,-6.215 5.035,-11.25 11.25,-11.25 h 30 c 6.215,0 11.25,5.035 11.25,11.25 V 36 C 62.562,35.391 61.309,34.895 60,34.527 V 26.25 H 15 V 52.5 c 0,4.141 3.359,7.5 7.5,7.5 h 12.027 c 0.368,1.309 0.864,2.562 1.473,3.75 H 22.5 c -6.215,0 -11.25,-5.035 -11.25,-11.25 z m 33.992,20.406 c 1.137,4.055 -1.285,8.25 -5.363,9.293 l -1.731,0.442 c -0.054,0.57 -0.086,1.148 -0.086,1.734 0,0.703 0.043,1.398 0.126,2.078 l 1.308,0.309 c 4.199,0.992 6.695,5.312 5.461,9.445 l -0.473,1.586 c 0.965,0.762 2.012,1.418 3.129,1.945 l 1.219,-1.293 c 2.961,-3.136 7.953,-3.133 10.91,0.008 l 1.266,1.34 c 1.097,-0.504 2.129,-1.133 3.082,-1.863 l -0.586,-2.09 c -1.137,-4.055 1.285,-8.25 5.367,-9.293 l 1.727,-0.442 c 0.054,-0.566 0.082,-1.144 0.082,-1.73 0,-0.703 -0.039,-1.398 -0.121,-2.082 L 69.25,51.984 c -4.199,-0.992 -6.695,-5.312 -5.461,-9.445 l 0.473,-1.582 C 63.297,40.191 62.25,39.539 61.133,39.012 l -1.219,1.289 c -2.961,3.137 -7.949,3.133 -10.91,-0.004 l -1.266,-1.344 c -1.097,0.508 -2.129,1.133 -3.082,1.867 z m 9.129,15.219 c -2.07,0 -3.75,-1.68 -3.75,-3.75 0,-2.07 1.68,-3.75 3.75,-3.75 2.074,0 3.75,1.68 3.75,3.75 0,2.07 -1.676,3.75 -3.75,3.75 z" style="fill:currentColor;fill-opacity:1;fill-rule:nonzero;stroke:none" transform="scale(1.3333333)" /> </g>
</svg>

