<?xml version="1.0" encoding="UTF-8" standalone="no"?> <svg version="1.1" id="Ieb069d632484424a88965f75a35e59f520251106164749" width="100" height="100" viewBox="0 0 100 100" xmlns="http://www.w3.org/2000/svg" xmlns:svg="http://www.w3.org/2000/svg"> <defs id="I649c8eef703041bfbd68a0578d415c6b20251106164749" /> <g id="I7a3a16e9187e4665bf782d02f92abf4320251106164749"> <path id="I610f3935749d49859a2556bee9abd04020251106164749" d="m 21.094,9.375 c -4.746,0 -8.594,3.848 -8.594,8.594 v 46.093 h -0.781 c -1.293,0 -2.344,1.051 -2.344,2.344 0,1.293 1.051,2.344 2.344,2.344 h 42.187 c 1.297,0 2.344,-1.051 2.344,-2.344 0,-1.293 -1.047,-2.344 -2.344,-2.344 H 53.125 V 58.43 c 1.176,0.605 2.508,0.945 3.922,0.945 4.738,0 8.578,-3.84 8.578,-8.578 V 32.551 c 0,-1.86 -0.602,-3.668 -1.719,-5.156 l -3.437,-4.583 c -0.778,-1.035 -2.246,-1.246 -3.281,-0.468 -1.036,0.777 -1.247,2.246 -0.469,3.281 l 3.437,4.582 c 0.508,0.676 0.782,1.5 0.782,2.344 v 18.246 c 0,2.148 -1.743,3.891 -3.891,3.891 -2.149,0 -3.891,-1.743 -3.891,-3.891 v -5.485 c 0,-0.128 -0.011,-0.253 -0.031,-0.378 V 17.969 c 0,-4.746 -3.848,-8.594 -8.594,-8.594 z m 0.781,11.719 c 0,-1.293 1.051,-2.344 2.344,-2.344 h 17.187 c 1.297,0 2.344,1.051 2.344,2.344 v 10.937 c 0,1.293 -1.047,2.344 -2.344,2.344 H 24.219 c -1.293,0 -2.344,-1.051 -2.344,-2.344 z" style="fill:currentColor;fill-opacity:1;fill-rule:nonzero;stroke:none" transform="scale(1.3333333)" /> </g>
</svg>

