<?xml version="1.0" encoding="UTF-8" standalone="no"?> <svg version="1.1" id="I76fb91e1bb194de0b9c49c3bb6b4cc3020251110124419" width="100" height="100" viewBox="0 0 100 100" xmlns="http://www.w3.org/2000/svg" xmlns:svg="http://www.w3.org/2000/svg"> <defs id="Ida6a31df6cda43428921b74d6557c9e720251110124419" /> <g id="Ia8d11d6f80ca413cb703a3cdb0bd2efc20251110124419"> <path id="I9ede6cca0cc3400eafb2c972458309fb20251110124419" d="M 18.762,15.441 V 18.75 H 16.07 c -5.918,0 -10.715,4.797 -10.715,10.715 v 18.75 c 0,4.437 3.598,8.035 8.04,8.035 h 5.355 v 2.68 c 0,4.437 3.598,8.035 8.035,8.035 h 21.43 c 4.437,0 8.035,-3.598 8.035,-8.035 v -2.68 h 5.355 c 4.442,0 8.04,-3.598 8.04,-8.035 V 29.465 C 69.645,23.547 64.848,18.75 58.93,18.75 h -2.68 v -3.344 c 0,-4.07 -3.305,-7.371 -7.379,-7.367 L 26.113,8.078 c -4.062,0.004 -7.351,3.301 -7.351,7.363 z M 52.23,15.406 V 18.75 H 22.777 v -3.309 c 0,-1.847 1.496,-3.343 3.344,-3.347 l 22.758,-0.035 c 1.851,-0.004 3.351,1.496 3.351,3.347 z M 26.785,41.52 h 21.43 c 2.219,0 4.015,1.796 4.015,4.015 V 58.93 c 0,2.218 -1.796,4.015 -4.015,4.015 h -21.43 c -2.219,0 -4.015,-1.797 -4.015,-4.015 V 45.535 c 0,-2.219 1.796,-4.015 4.015,-4.015 z" style="fill:currentColor;fill-opacity:1;fill-rule:nonzero;stroke:none" transform="scale(1.3333333)" /> </g>
</svg>

