<?xml version="1.0" encoding="UTF-8" standalone="no"?> <svg version="1.1" id="I0e35979944a044c081b47f94ddfd524520251106105458" width="100" height="100" viewBox="0 0 100 100" xmlns="http://www.w3.org/2000/svg" xmlns:svg="http://www.w3.org/2000/svg"> <defs id="Iedfa526f723e4388b55536c0040e86e420251106105458" /> <g id="Ic6b3a205e1d04dd092a62dc3e4969e0020251106105458"> <path id="Iee009af2e28044149e0816b9d244e17620251106105458" d="M 68.305,4.02 H 6.695 C 5.215,4.02 4.02,5.215 4.02,6.695 v 61.61 c 0,1.48 1.195,2.675 2.675,2.675 h 61.61 c 1.48,0 2.675,-1.195 2.675,-2.675 V 6.695 C 70.98,5.215 69.785,4.02 68.305,4.02 Z M 64.957,64.957 H 10.043 V 10.043 H 64.957 Z M 35.156,25.277 h 4.688 c 0.367,0 0.668,-0.3 0.668,-0.668 v -4.687 c 0,-0.367 -0.301,-0.668 -0.668,-0.668 h -4.688 c -0.367,0 -0.668,0.301 -0.668,0.668 v 4.687 c 0,0.368 0.301,0.668 0.668,0.668 z M 19.922,40.512 h 4.687 c 0.368,0 0.668,-0.301 0.668,-0.668 v -4.688 c 0,-0.367 -0.3,-0.668 -0.668,-0.668 h -4.687 c -0.367,0 -0.668,0.301 -0.668,0.668 v 4.688 c 0,0.367 0.301,0.668 0.668,0.668 z m 30.469,0 h 4.687 c 0.367,0 0.668,-0.301 0.668,-0.668 v -4.688 c 0,-0.367 -0.301,-0.668 -0.668,-0.668 h -4.687 c -0.368,0 -0.668,0.301 -0.668,0.668 v 4.688 c 0,0.367 0.3,0.668 0.668,0.668 z m -15.235,0 h 4.688 c 0.367,0 0.668,-0.301 0.668,-0.668 v -4.688 c 0,-0.367 -0.301,-0.668 -0.668,-0.668 h -4.688 c -0.367,0 -0.668,0.301 -0.668,0.668 v 4.688 c 0,0.367 0.301,0.668 0.668,0.668 z m 0,15.234 h 4.688 c 0.367,0 0.668,-0.301 0.668,-0.668 v -4.687 c 0,-0.368 -0.301,-0.668 -0.668,-0.668 h -4.688 c -0.367,0 -0.668,0.3 -0.668,0.668 v 4.687 c 0,0.367 0.301,0.668 0.668,0.668 z" style="fill:currentColor;fill-opacity:1;fill-rule:nonzero;stroke:none" transform="scale(1.3333333)" /> </g>
</svg>

