<?xml version="1.0" encoding="UTF-8" standalone="no"?> <svg version="1.1" id="I61b4d16f6c30413fb2902595a99ea33220251106104833" width="100" height="100" viewBox="0 0 100 100" xmlns="http://www.w3.org/2000/svg" xmlns:svg="http://www.w3.org/2000/svg"> <defs id="I9009f0f6d0c34685a75cf71cd0da945f20251106104833" /> <g id="I6ba78469ad1542eca73726bc5470605320251106104833"> <path id="Idf0c7ef76a7c43088ed917618f1daeae20251106104833" d="M 37.5,0 C 16.793,0 0,16.793 0,37.5 0,58.207 16.793,75 37.5,75 58.207,75 75,58.207 75,37.5 75,16.793 58.207,0 37.5,0 Z m 0,68.637 C 20.309,68.637 6.363,54.691 6.363,37.5 6.363,20.309 20.309,6.363 37.5,6.363 c 17.191,0 31.137,13.946 31.137,31.137 0,17.191 -13.946,31.137 -31.137,31.137 z m 7.324,-28.016 c 2.914,-1.07 6.563,-4.101 6.563,-9.976 0,-5.961 -3.809,-10.973 -12.071,-10.973 H 26.285 c -0.371,0 -0.672,0.301 -0.672,0.668 v 34.32 c 0,0.367 0.301,0.668 0.672,0.668 h 4.559 c 0.371,0 0.672,-0.301 0.672,-0.668 V 41.617 h 7.425 l 6.243,13.328 c 0.109,0.235 0.343,0.383 0.601,0.383 h 5.192 c 0.496,0.004 0.82,-0.519 0.593,-0.961 z m -6.488,-3.707 h -6.82 V 24.527 h 6.98 c 4.02,0 6.774,2.118 6.774,6.317 0,3.926 -2.497,6.07 -6.934,6.07 z" style="fill:currentColor;fill-opacity:1;fill-rule:nonzero;stroke:none" transform="scale(1.3333333)" /> </g>
</svg>

