<?xml version="1.0" encoding="UTF-8" standalone="no"?> <svg version="1.1" id="I9b8114e525ff478a9c6080d4c9012fb020251110130509" width="100" height="100" viewBox="0 0 100 100" xmlns="http://www.w3.org/2000/svg" xmlns:svg="http://www.w3.org/2000/svg"> <defs id="I4c53e203dcc6423eb0ea8f85468f5e4120251110130509" /> <g id="Id1280d07209b4eb1ac49ba3780100b4120251110130509"> <path id="I17bce44e5f0e49d1b659c54ed29abc4320251110130509" d="m 39.031,61.93 c 0.371,-1.473 1.133,-2.821 2.207,-3.899 L 59.684,39.59 c 0.867,-0.871 1.906,-1.469 3.004,-1.797 0.054,-0.016 0.109,-0.031 0.164,-0.043 0.386,-0.105 0.781,-0.18 1.179,-0.219 2.055,-0.203 4.18,0.485 5.75,2.059 2.789,2.789 2.789,7.312 0,10.101 L 51.34,68.133 c -1.074,1.074 -2.422,1.84 -3.899,2.207 l -5.718,1.43 c -2.489,0.621 -4.743,-1.629 -4.121,-4.118 z m -9.343,3.691 h 5.203 L 36,61.172 c 0.508,-2.024 1.555,-3.871 3.031,-5.348 l 5.824,-5.828 H 29.688 Z M 49.996,29.688 v 15.167 l 7.477,-7.476 c 2.23,-2.231 5.234,-3.219 8.148,-2.969 V 29.688 Z M 65.621,25 V 19.531 C 65.621,13.922 61.074,9.375 55.465,9.375 H 49.996 V 25 Z M 45.309,9.375 H 29.688 V 25 H 45.309 Z M 25,9.375 h -5.469 c -5.609,0 -10.156,4.547 -10.156,10.156 l 0,5.469 H 25 Z M 9.375,29.688 V 45.309 H 25 V 29.688 Z m 0,20.308 v 5.469 c 0,5.609 4.547,10.156 10.156,10.156 H 25 V 49.996 Z M 45.309,29.688 V 45.309 H 29.688 V 29.688 Z" style="fill:currentColor;fill-opacity:1;fill-rule:nonzero;stroke:none" transform="scale(1.3333333)" /> </g>
</svg>

