<?xml version="1.0" encoding="UTF-8" standalone="no"?> <svg version="1.1" id="I208c9849a75d424d9ee0e44247da005620251110133656" width="100" height="100" viewBox="0 0 100 100" xmlns="http://www.w3.org/2000/svg" xmlns:svg="http://www.w3.org/2000/svg"> <defs id="Idc33fdea0ab544139086fc6de85c393020251110133656" /> <g id="I543de7cf70724bb295ecfac943df311320251110133656"> <path id="Ib1295c64b362418f9687bfc79e334c8220251110133656" d="m 9.375,19.531 c 0,-5.609 4.547,-10.156 10.156,-10.156 h 35.938 c 5.609,0 10.156,4.547 10.156,10.156 v 17.895 c -1.773,-0.559 -3.375,-1.5 -4.687,-2.473 V 26.562 H 14.062 v 28.907 c 0,3.019 2.45,5.469 5.469,5.469 h 20.258 c 0.906,1.687 2.078,3.257 3.504,4.687 H 19.531 c -5.609,0 -10.156,-4.547 -10.156,-10.156 z m 46.844,15.453 c 2.039,2.032 5.957,5.266 10.777,5.93 0.961,0.133 1.754,0.891 1.754,1.84 v 8.871 c 0,11.926 -11.188,16.254 -13.605,17.051 -0.301,0.097 -0.61,0.097 -0.915,0 C 51.812,67.879 40.625,63.551 40.625,51.625 v -8.871 c 0,-0.949 0.793,-1.707 1.754,-1.84 4.82,-0.664 8.738,-3.898 10.777,-5.93 0.813,-0.812 2.25,-0.812 3.063,0 z" style="fill:currentColor;fill-opacity:1;fill-rule:nonzero;stroke:none" transform="scale(1.3333333)" /> </g>
</svg>

