<?xml version="1.0" encoding="UTF-8" standalone="no"?> <svg version="1.1" id="I2cf360084d7749528a3baf9ed73f376620251110123031" width="100" height="100" viewBox="0 0 100 100" xmlns="http://www.w3.org/2000/svg" xmlns:svg="http://www.w3.org/2000/svg"> <defs id="Id9e1be20bd9242e1b860cbff9af3cbb820251110123031" /> <g id="I5cd43d2e75844232b49e915cf524411120251110123031"> <path id="I0621f21c6f2746c7956231980935b7fe20251110123031" d="m 49.219,6.25 c 3.883,0 7.031,3.148 7.031,7.031 v 48.438 c 0,3.883 -3.148,7.031 -7.031,7.031 H 25.781 c -3.883,0 -7.031,-3.148 -7.031,-7.031 V 13.281 c 0,-3.883 3.148,-7.031 7.031,-7.031 z m -6.36,35.859 -5.359,5.469 -5.367,-5.469 c -0.906,-0.925 -2.391,-0.937 -3.317,-0.031 -0.921,0.906 -0.937,2.391 -0.031,3.313 l 7.043,7.175 c 0.918,0.938 2.426,0.938 3.344,0 l 7.031,-7.175 c 0.906,-0.926 0.895,-2.411 -0.031,-3.313 -0.926,-0.906 -2.41,-0.894 -3.313,0.031 z M 46.203,29.754 39.172,22.578 C 38.34,21.727 37.016,21.648 36.09,22.344 l -0.262,0.234 -7.043,7.172 c -0.906,0.926 -0.89,2.41 0.031,3.316 0.84,0.825 2.145,0.887 3.055,0.2 l 0.262,-0.231 5.367,-5.469 5.359,5.469 c 0.903,0.922 2.387,0.938 3.313,0.031 0.84,-0.824 0.93,-2.125 0.258,-3.046 l -0.227,-0.266 -7.031,-7.176 z" style="fill:currentColor;fill-opacity:1;fill-rule:nonzero;stroke:none" transform="scale(1.3333333)" /> </g>
</svg>

