<?xml version="1.0" encoding="UTF-8" standalone="no"?> <svg version="1.1" id="I03a2a20a1a9e4f47920e23f1c92c88f120251110133656" width="100" height="100" viewBox="0 0 100 100" xmlns="http://www.w3.org/2000/svg" xmlns:svg="http://www.w3.org/2000/svg"> <defs id="Idd11a77f20ab470483b65ddd0b8affde20251110133656" /> <g id="I9955da1d698349088bd5f235b2bfd71b20251110133656"> <path id="I01422fe0d2e64b20a7ea3971abc6dc1320251110133656" d="m 30.805,5.355 c 14.05,0 25.445,11.395 25.445,25.45 0,6.3 -2.297,12.066 -6.094,16.511 l 16.219,16.219 c 0.785,0.785 0.785,2.055 0,2.84 -0.785,0.785 -2.055,0.785 -2.84,0 L 47.316,50.156 C 42.871,53.953 37.105,56.25 30.805,56.25 16.75,56.25 5.355,44.855 5.355,30.805 5.355,16.75 16.75,5.355 30.805,5.355 Z M 20.758,28.793 c -1.11,0 -2.008,0.902 -2.008,2.012 0,1.109 0.898,2.007 2.008,2.007 h 20.09 c 1.109,0 2.007,-0.898 2.007,-2.007 0,-1.11 -0.898,-2.012 -2.007,-2.012 z" style="fill:currentColor;fill-opacity:1;fill-rule:nonzero;stroke:none" transform="scale(1.3333333)" /> </g>
</svg>

