<?xml version="1.0" encoding="UTF-8" standalone="no"?> <svg version="1.1" id="Icca3a2592f77432fb871cb51e7eb1af520251110130508" width="100" height="100" viewBox="0 0 100 100" xmlns="http://www.w3.org/2000/svg" xmlns:svg="http://www.w3.org/2000/svg"> <defs id="I0152560701bf4259bbb1a96d5db94bb420251110130508" /> <g id="I5a2c470e225544b2b0d870d5e507677820251110130508"> <path id="I78149582f23f4d659924eaf27649588f20251110130508" d="m 8.594,7.812 c -1.293,0 -2.344,1.051 -2.344,2.344 v 17.969 c 0,9.563 7.156,17.453 16.406,18.605 v 2.489 c 0,10.355 8.395,18.75 18.75,18.75 10.356,0 18.75,-8.395 18.75,-18.75 v -2.641 c 4.043,-1.039 7.032,-4.711 7.032,-9.078 0,-5.176 -4.196,-9.375 -9.376,-9.375 -5.179,0 -9.374,4.199 -9.374,9.375 0,4.367 2.988,8.039 7.031,9.078 v 2.641 c 0,7.765 -6.297,14.062 -14.063,14.062 -7.765,0 -14.062,-6.297 -14.062,-14.062 V 46.73 C 36.594,45.578 43.75,37.688 43.75,28.125 V 10.156 c 0,-1.293 -1.051,-2.344 -2.344,-2.344 h -7.812 c -1.293,0 -2.344,1.051 -2.344,2.344 0,1.293 1.051,2.344 2.344,2.344 h 5.468 v 15.625 c 0,7.766 -6.296,14.063 -14.062,14.063 -7.766,0 -14.062,-6.297 -14.062,-14.063 V 12.5 h 5.468 c 1.293,0 2.344,-1.051 2.344,-2.344 0,-1.293 -1.051,-2.344 -2.344,-2.344 z m 49.218,25 c 2.59,0 4.688,2.098 4.688,4.688 0,2.59 -2.098,4.688 -4.688,4.688 -2.589,0 -4.687,-2.098 -4.687,-4.688 0,-2.59 2.098,-4.688 4.687,-4.688 z" style="fill:currentColor;fill-opacity:1;fill-rule:nonzero;stroke:none" transform="scale(1.3333333)" /> </g>
</svg>

