<?xml version="1.0" encoding="UTF-8" standalone="no"?> <svg version="1.1" id="I607bdf07dd3a487e895115385eeaaeab20251106154012" width="100" height="100" viewBox="0 0 100 100" xmlns="http://www.w3.org/2000/svg" xmlns:svg="http://www.w3.org/2000/svg"> <defs id="If01a9548b4fd44b895c3228d8ca357d920251106154012" /> <g id="If4f8283db5554c4a87fb5ee75d0bd11a20251106154012"> <path id="I0fe7c058a2e94d86a35dadd646a1144620251106154012" d="m 13.281,9.375 c -3.883,0 -7.031,3.148 -7.031,7.031 v 32.813 c 0,3.883 3.148,7.031 7.031,7.031 h 16.407 v 3.906 c 0,2.156 -1.75,3.906 -3.907,3.906 h -1.562 c -1.293,0 -2.344,1.051 -2.344,2.344 0,1.293 1.051,2.344 2.344,2.344 h 26.562 c 1.293,0 2.344,-1.051 2.344,-2.344 0,-1.293 -1.051,-2.344 -2.344,-2.344 h -1.562 c -2.157,0 -3.907,-1.75 -3.907,-3.906 V 56.25 h 16.407 c 3.883,0 7.031,-3.148 7.031,-7.031 V 16.406 c 0,-3.883 -3.148,-7.031 -7.031,-7.031 z M 40.625,56.25 v 3.906 c 0,1.406 0.336,2.735 0.937,3.906 h -8.124 c 0.601,-1.171 0.937,-2.5 0.937,-3.906 V 56.25 Z M 10.938,16.406 c 0,-1.293 1.05,-2.344 2.343,-2.344 h 48.438 c 1.293,0 2.343,1.051 2.343,2.344 V 40.625 H 10.938 Z m 0,28.906 h 53.124 v 3.907 c 0,1.293 -1.05,2.343 -2.343,2.343 H 13.281 c -1.293,0 -2.343,-1.05 -2.343,-2.343 z" style="fill:currentColor;fill-opacity:1;fill-rule:nonzero;stroke:none" transform="scale(1.3333333)" /> </g>
</svg>

