<?xml version="1.0" encoding="UTF-8" standalone="no"?> <svg version="1.1" id="I3bfdcd82cd894f96a3bad9dd3b7d277020251106154012" width="100" height="100" viewBox="0 0 100 100" xmlns="http://www.w3.org/2000/svg" xmlns:svg="http://www.w3.org/2000/svg"> <defs id="Ib99096c6312d4a78ae375de2f3ebc87420251106154012" /> <g id="I1cbfb9cdb2c04728917c839bfd5e7bb020251106154012"> <path id="I6f95ddd0ae6c4affb663150d0f99d9eb20251106154012" d="m 18.082,8.035 c -5.551,0 -10.047,4.496 -10.047,10.047 v 38.836 c 0,5.551 4.496,10.047 10.047,10.047 h 38.836 c 5.551,0 10.047,-4.496 10.047,-10.047 V 18.082 c 0,-5.551 -4.496,-10.047 -10.047,-10.047 z m 7.363,23.438 v 20.089 c 0,1.11 -0.898,2.008 -2.007,2.008 -1.11,0 -2.008,-0.898 -2.008,-2.008 V 31.473 c 0,-1.11 0.898,-2.008 2.008,-2.008 1.109,0 2.007,0.898 2.007,2.008 z M 37.5,37.5 c 1.109,0 2.008,0.898 2.008,2.008 v 12.054 c 0,1.11 -0.899,2.008 -2.008,2.008 -1.109,0 -2.008,-0.898 -2.008,-2.008 V 39.508 c 0,-1.11 0.899,-2.008 2.008,-2.008 z M 53.57,23.438 v 28.124 c 0,1.11 -0.898,2.008 -2.008,2.008 -1.109,0 -2.007,-0.898 -2.007,-2.008 V 23.438 c 0,-1.11 0.898,-2.008 2.007,-2.008 1.11,0 2.008,0.898 2.008,2.008 z" style="fill:currentColor;fill-opacity:1;fill-rule:nonzero;stroke:none" transform="scale(1.3333333)" /> </g>
</svg>

