<?xml version="1.0" encoding="UTF-8" standalone="no"?> <svg version="1.1" id="I4b0a76ed3ef44206a2d6cdd50dbe92e820251110130507" width="100" height="100" viewBox="0 0 100 100" xmlns="http://www.w3.org/2000/svg" xmlns:svg="http://www.w3.org/2000/svg"> <defs id="I4d608d139f96494aa1cdadef18eea32320251110130507" /> <g id="Iee51a15a41364958b2cd8dfdf039469c20251110130507"> <path id="I31419fbd711142bda0dd3839d10d007c20251110130507" d="m 46.871,13.289 c 0,-3.371 -3.98,-5.16 -6.5,-2.918 L 26.336,22.848 c -0.43,0.379 -0.984,0.59 -1.559,0.59 H 13.281 c -3.883,0 -7.031,3.148 -7.031,7.031 V 44.52 c 0,3.882 3.148,7.031 7.031,7.031 h 11.496 c 0.575,0 1.129,0.211 1.559,0.59 l 9.758,8.679 c 0.445,-1.566 1.218,-3.019 2.261,-4.261 L 29.449,48.641 C 28.164,47.496 26.5,46.863 24.777,46.863 H 13.281 c -1.293,0 -2.343,-1.047 -2.343,-2.343 V 30.469 c 0,-1.297 1.05,-2.344 2.343,-2.344 h 11.496 c 1.723,0 3.387,-0.633 4.672,-1.777 L 42.184,15.027 v 37.645 l 4.687,-4.688 z m 15.75,5.633 c 3.41,4.605 5.586,10.18 6.035,16.234 -1.519,-0.629 -3.16,-0.879 -4.777,-0.742 -0.547,-4.726 -2.332,-9.066 -5.024,-12.703 -0.769,-1.039 -0.55,-2.504 0.489,-3.277 1.039,-0.77 2.508,-0.551 3.277,0.488 z m -5.875,8.18 c 1.438,2.66 2.34,5.648 2.566,8.82 -0.652,0.406 -1.269,0.894 -1.839,1.461 l -3.035,3.035 c 0.16,-0.945 0.246,-1.922 0.246,-2.918 0,-2.961 -0.746,-5.738 -2.063,-8.164 -0.613,-1.141 -0.191,-2.563 0.945,-3.176 1.141,-0.617 2.563,-0.195 3.18,0.942 z m 2.938,12.492 -18.446,18.441 c -1.074,1.074 -1.836,2.422 -2.207,3.899 l -1.429,5.718 c -0.622,2.489 1.632,4.739 4.121,4.118 l 5.718,-1.43 c 1.477,-0.367 2.825,-1.129 3.899,-2.207 L 69.781,49.691 c 2.789,-2.789 2.789,-7.308 0,-10.097 -2.789,-2.789 -7.308,-2.789 -10.097,0 z" style="fill:currentColor;fill-opacity:1;fill-rule:nonzero;stroke:none" transform="scale(1.3333333)" /> </g>
</svg>

