<?xml version="1.0" encoding="UTF-8" standalone="no"?> <svg version="1.1" id="Ia73853f4204f44e3a5c9af56958f7f6420251110133656" width="100" height="100" viewBox="0 0 100 100" xmlns="http://www.w3.org/2000/svg" xmlns:svg="http://www.w3.org/2000/svg"> <defs id="I17cae46fdae04fcdb53b273fbf8e7f4b20251110133656" /> <g id="I15e59fe14c29406fab695079be777a8320251110133656"> <path id="I23d5cb3e328b4fa48748c090fcef380020251110133656" d="m 18.082,8.035 h 38.836 c 5.504,0 10.047,4.684 10.047,10.047 V 38.84 H 66.82 c -0.554,-1.75 -2.574,-3.406 -3.754,-3.707 -0.039,-0.016 -0.078,-0.028 -0.121,-0.039 v -9.649 h -50.89 v 31.473 c 0,3.328 2.695,6.027 6.027,6.027 h 17.813 c -0.715,1.239 -1.075,2.629 -1.075,4.02 H 18.082 C 12.531,66.965 8.035,62.469 8.035,56.918 V 18.082 c 0,-5.461 4.606,-10.047 10.047,-10.047 z M 37.5,66.965 c 0,1.371 0.523,2.738 1.57,3.785 2.09,2.094 5.485,2.094 7.575,0 l 9.773,-9.77 c 1.207,0.407 2.504,0.625 3.852,0.625 6.656,0 12.05,-5.394 12.05,-12.05 0,-0.598 -0.043,-1.18 -0.125,-1.754 -0.144,-0.985 -1.324,-1.274 -2.027,-0.571 l -4.773,4.774 c -2.09,2.09 -5.485,2.09 -7.575,0 -2.093,-2.094 -2.093,-5.484 0,-7.578 l 4.77,-4.77 C 63.293,38.953 63.004,37.77 62.02,37.625 61.449,37.543 60.863,37.5 60.27,37.5 c -6.661,0 -12.055,5.398 -12.055,12.055 0,1.343 0.219,2.64 0.629,3.847 l -9.774,9.77 c -1.047,1.047 -1.57,2.422 -1.57,3.793 z" style="fill:currentColor;fill-opacity:1;fill-rule:nonzero;stroke:none" transform="scale(1.3333333)" /> </g>
</svg>

