<?xml version="1.0" encoding="UTF-8" standalone="no"?> <svg version="1.1" id="Ifc3caf52164a4964ad21205b2d37b2e820251106171633" width="100" height="100" viewBox="0 0 100 100" xmlns="http://www.w3.org/2000/svg" xmlns:svg="http://www.w3.org/2000/svg"> <defs id="I90e0791a63624f10a511eeda5d638aa420251106171633" /> <g id="I47d8fca6f8eb4b3ca0911e0c02a6003e20251106171633"> <path id="I8f1886e819f54995ae7d13651b512f2520251106171633" d="m 14.844,12.5 h 12.5 c 4.746,0 8.594,3.848 8.594,8.594 v 32.812 c 0,4.746 -3.848,8.594 -8.594,8.594 h -12.5 C 10.098,62.5 6.25,58.652 6.25,53.906 V 21.094 c 0,-4.746 3.848,-8.594 8.594,-8.594 z m 3.906,15.625 v 18.75 c 0,1.293 1.051,2.344 2.344,2.344 1.293,0 2.344,-1.051 2.344,-2.344 v -18.75 c 0,-1.293 -1.051,-2.344 -2.344,-2.344 -1.293,0 -2.344,1.051 -2.344,2.344 z M 47.656,12.5 h 12.5 c 4.746,0 8.594,3.848 8.594,8.594 v 32.812 c 0,4.746 -3.848,8.594 -8.594,8.594 h -12.5 c -4.746,0 -8.594,-3.848 -8.594,-8.594 V 21.094 c 0,-4.746 3.848,-8.594 8.594,-8.594 z m 7.032,17.969 v 4.687 h -3.907 c -1.293,0 -2.343,1.051 -2.343,2.344 v 9.375 c 0,1.293 1.05,2.344 2.343,2.344 h 6.25 c 1.293,0 2.344,-1.051 2.344,-2.344 0,-1.293 -1.051,-2.344 -2.344,-2.344 h -3.906 v -4.687 h 3.906 c 1.293,0 2.344,-1.051 2.344,-2.344 v -9.375 c 0,-1.293 -1.051,-2.344 -2.344,-2.344 h -6.25 c -1.293,0 -2.343,1.051 -2.343,2.344 0,1.293 1.05,2.344 2.343,2.344 z" style="fill:currentColor;fill-opacity:1;fill-rule:nonzero;stroke:none" transform="scale(1.3333333)" /> </g>
</svg>

