<?xml version="1.0" encoding="UTF-8" standalone="no"?> <svg version="1.1" id="I778dc343d55945f1a91beb04414ed98020251106165302" width="100" height="100" viewBox="0 0 100 100" xmlns="http://www.w3.org/2000/svg" xmlns:svg="http://www.w3.org/2000/svg"> <defs id="I8886c050c360431a875f48bb7365954420251106165302" /> <g id="I211168f7d352463886d32f2a0d36421b20251106165302"> <path id="Id936b8efdf5a490ba342669cab966ca420251106165302" d="m 15,15 c 0,-4.141 3.359,-7.5 7.5,-7.5 h 30 c 4.141,0 7.5,3.359 7.5,7.5 v 7.5 c 0,4.141 -3.359,7.5 -7.5,7.5 h -30 C 18.359,30 15,26.641 15,22.5 Z m 0,45 c 0,4.141 3.359,7.5 7.5,7.5 h 30 C 56.641,67.5 60,64.141 60,60 V 52.5 C 60,48.359 56.641,45 52.5,45 h -30 C 18.359,45 15,48.359 15,52.5 Z M 9.375,35.625 c -1.035,0 -1.875,0.84 -1.875,1.875 0,1.035 0.84,1.875 1.875,1.875 h 56.25 c 1.035,0 1.875,-0.84 1.875,-1.875 0,-1.035 -0.84,-1.875 -1.875,-1.875 z" style="fill:currentColor;fill-opacity:1;fill-rule:nonzero;stroke:none" transform="scale(1.3333333)" /> </g>
</svg>

