<?xml version="1.0" encoding="UTF-8" standalone="no"?> <svg version="1.1" id="I91531aeaa6cd4551b91ea3ec27ff4f7420251106125938" width="100" height="100" viewBox="0 0 100 100" xmlns="http://www.w3.org/2000/svg" xmlns:svg="http://www.w3.org/2000/svg"> <defs id="I716a57645b9f42ac89b319d976f7556920251106125938" /> <g id="I440e127314844fab8bbdb4c99e1fe49520251106125938"> <path id="I014b5da413a04b75aa702dabeed35d6120251106125938" d="M 37.5,9.375 C 21.969,9.375 9.375,21.969 9.375,37.5 c 0,9.617 4.871,18.328 12.57,23.441 l -5.539,-0.003 c -1.293,0 -2.344,1.05 -2.344,2.343 0,1.188 0.883,2.168 2.028,2.324 l 0.316,0.02 h 12.5 c 1.188,0 2.168,-0.883 2.324,-2.027 l 0.02,-0.317 v -12.5 c 0,-1.293 -1.051,-2.343 -2.344,-2.343 -1.187,0 -2.168,0.882 -2.324,2.027 l -0.02,0.316 -0.003,7.453 C 18.988,54.238 14.062,46.328 14.062,37.5 c 0,-12.945 10.493,-23.438 23.438,-23.438 12.945,0 23.438,10.493 23.438,23.438 0,1.293 1.05,2.344 2.343,2.344 1.293,0 2.344,-1.051 2.344,-2.344 C 65.625,21.969 53.031,9.375 37.5,9.375 Z m 0,19.531 c -4.746,0 -8.594,3.848 -8.594,8.594 0,4.746 3.848,8.594 8.594,8.594 4.746,0 8.594,-3.848 8.594,-8.594 0,-4.746 -3.848,-8.594 -8.594,-8.594 z m 0,4.688 c 2.156,0 3.906,1.75 3.906,3.906 0,2.156 -1.75,3.906 -3.906,3.906 -2.156,0 -3.906,-1.75 -3.906,-3.906 0,-2.156 1.75,-3.906 3.906,-3.906 z" style="fill:currentColor;fill-opacity:1;fill-rule:nonzero;stroke:none" transform="scale(1.3333333)" /> </g>
</svg>

