<?xml version="1.0" encoding="UTF-8" standalone="no"?> <svg version="1.1" id="I8931e0b1cf5c4958ae26577866ebaee420251106143238" width="100" height="100" viewBox="0 0 100 100" xmlns="http://www.w3.org/2000/svg" xmlns:svg="http://www.w3.org/2000/svg"> <defs id="I4d1bea56ff0e406c8c4eab5e395938b020251106143238"> <linearGradient x1="9.4285698" y1="6.5" x2="14.1366" y2="20.9321" gradientUnits="userSpaceOnUse" gradientTransform="scale(3.125)" spreadMethod="pad" id="Ieae78dbf0c8842d284e7112e6fb7dc8920251106143238"> <stop style="stop-opacity:1;stop-color:#b3e0ff" offset="0" id="I64708d8ba26540489bbdeb727f9918a620251106143238" /> <stop style="stop-opacity:1;stop-color:#8cd0ff" offset="1" id="I5c2ef5720a4b416babe5082ab3791b4a20251106143238" /> </linearGradient> <linearGradient x1="13.9286" y1="12.4318" x2="16.625" y2="24.267" gradientUnits="userSpaceOnUse" gradientTransform="scale(3.125)" spreadMethod="pad" id="Ida8d9ad3637140939e187fa1cf1b932d20251106143238"> <stop style="stop-opacity:0;stop-color:#dcf8ff" offset="0" id="I36d1e71293c5468eba730ac38078de4820251106143238" /> <stop style="stop-opacity:0.70000763;stop-color:#ff6ce8" offset="1" id="I134b7b98024841a7a13c262e89361ec720251106143238" /> </linearGradient> <radialGradient fx="0" fy="0" cx="0" cy="0" r="1" gradientUnits="userSpaceOnUse" gradientTransform="matrix(0,26.775563,-26.116063,0,55.580312,59.445938)" spreadMethod="pad" id="I7666242abede49deb6d444cd1953373e20251106143238"> <stop style="stop-opacity:0.29999237;stop-color:#4a43cb" offset="0" id="I6d23be4023354b86b9b48f1296794a9a20251106143238" /> <stop style="stop-opacity:0.29999237;stop-color:#4a43cb" offset="0.535" id="I969560d7267f4e58a1a908b13b96ae6320251106143238" /> <stop style="stop-opacity:0;stop-color:#4a43cb" offset="1" id="I261eb1a70fec4ab9a6d0ba62fe6e11a320251106143238" /> </radialGradient> <linearGradient x1="3.7232101" y1="3" x2="5.3563099" y2="11.5369" gradientUnits="userSpaceOnUse" gradientTransform="scale(3.125)" spreadMethod="pad" id="Ib0d8402dd1a34e48934c95a71e24953320251106143238"> <stop style="stop-opacity:1;stop-color:#0094f0" offset="0" id="Ia41c835e4af7473990d999d0c3a83da720251106143238" /> <stop style="stop-opacity:1;stop-color:#2764e7" offset="1" id="Id35125f45e824b6aa9f6b364fa09034020251106143238" /> </linearGradient> <linearGradient x1="12.3929" y1="14.0625" x2="19.9842" y2="21.9496" gradientUnits="userSpaceOnUse" gradientTransform="scale(3.125)" spreadMethod="pad" id="Ic21abe1d6a3f4bbd94c9189a5ec8675020251106143238"> <stop style="stop-opacity:1;stop-color:#52d17c" offset="0" id="I64d623d6a13549e8bd500e68075af3d620251106143238" /> <stop style="stop-opacity:1;stop-color:#22918b" offset="1" id="I2d851c86b7f343af80e2ba5a54c5317020251106143238" /> </linearGradient> <linearGradient x1="15.3125" y1="14.714" x2="17.4603" y2="22.296101" gradientUnits="userSpaceOnUse" gradientTransform="scale(3.125)" spreadMethod="pad" id="I6dcf5ea7819b413f992641137f2f085720251106143238"> <stop style="stop-opacity:1;stop-color:#ffffff" offset="0" id="I202a0aa488c3418facc611937db17d3f20251106143238" /> <stop style="stop-opacity:1;stop-color:#e3ffd9" offset="1" id="Id1604ba9786f4dd08f0c9243bead0f3a20251106143238" /> </linearGradient> </defs> <g id="I23d997e685b94522af3abdf37787b37a20251106143238"> <path id="I4dd302125dac4909887c6880eae8a02320251106143238" d="m 65.625,23.438 v 32.031 c 0,5.609 -4.547,10.156 -10.156,10.156 H 19.531 C 13.922,65.625 9.375,61.078 9.375,55.469 V 23.438 L 37.5,20.312 Z" transform="scale(1.3333333)" style="fill:url(#Ieae78dbf0c8842d284e7112e6fb7dc8920251106143238);stroke:none" /> <path d="m 65.625,23.438 v 32.031 c 0,5.609 -4.547,10.156 -10.156,10.156 H 19.531 C 13.922,65.625 9.375,61.078 9.375,55.469 V 23.438 L 37.5,20.312 Z" transform="scale(1.3333333)" style="fill:url(#Ida8d9ad3637140939e187fa1cf1b932d20251106143238);stroke:none" opacity="1" id="I53831a26a565488787c50d97cbfc7f6e20251106143238" /> <path d="m 65.625,23.438 v 32.031 c 0,5.609 -4.547,10.156 -10.156,10.156 H 19.531 C 13.922,65.625 9.375,61.078 9.375,55.469 V 23.438 L 37.5,20.312 Z" transform="scale(1.3333333)" style="fill:url(#I7666242abede49deb6d444cd1953373e20251106143238);stroke:none" opacity="1" id="I14e806609a5c4fef9b874aa4be5d6be320251106143238" /> <path id="I351012ff91fc49baaa1ccf8b867ebed420251106143238" d="m 55.469,9.375 c 5.609,0 10.156,4.547 10.156,10.156 V 25 H 9.375 v -5.469 c 0,-5.609 4.547,-10.156 10.156,-10.156 z" transform="scale(1.3333333)" style="fill:url(#Ib0d8402dd1a34e48934c95a71e24953320251106143238);stroke:none" /> <path id="I33cd5fad8a0546998b521d3ac7986ec120251106143238" d="m 54.688,37.5 c 9.492,0 17.187,7.695 17.187,17.188 0,9.492 -7.695,17.187 -17.187,17.187 C 45.195,71.875 37.5,64.18 37.5,54.688 37.5,45.195 45.195,37.5 54.688,37.5 Z" transform="scale(1.3333333)" style="fill:url(#Ic21abe1d6a3f4bbd94c9189a5ec8675020251106143238);stroke:none" /> <path id="I79e720ae14f04878b36a1c0225c231ec20251106143238" d="m 64.062,43.75 c 0.864,0 1.563,0.699 1.563,1.562 v 6.25 c 0,0.864 -0.699,1.563 -1.563,1.563 h -6.25 c -0.863,0 -1.562,-0.699 -1.562,-1.563 0,-0.863 0.699,-1.562 1.562,-1.562 h 3.126 c -1.426,-1.898 -3.696,-3.125 -6.25,-3.125 -2.606,0 -4.911,1.273 -6.333,3.238 -0.507,0.699 -1.484,0.856 -2.183,0.348 -0.699,-0.504 -0.856,-1.481 -0.348,-2.18 1.985,-2.742 5.215,-4.531 8.864,-4.531 3.062,0 5.828,1.258 7.812,3.281 v -1.719 c 0,-0.863 0.699,-1.562 1.562,-1.562 z M 46.875,62.344 v 1.718 c 0,0.864 -0.699,1.563 -1.563,1.563 -0.863,0 -1.562,-0.699 -1.562,-1.563 v -6.25 c 0,-0.863 0.699,-1.562 1.562,-1.562 h 6.25 c 0.864,0 1.563,0.699 1.563,1.562 0,0.864 -0.699,1.563 -1.563,1.563 h -3.124 c 1.425,1.898 3.695,3.125 6.25,3.125 2.394,0 4.535,-1.074 5.972,-2.777 0.555,-0.657 1.543,-0.743 2.203,-0.184 0.657,0.555 0.742,1.543 0.184,2.203 -2.004,2.371 -5.004,3.883 -8.359,3.883 -3.063,0 -5.829,-1.258 -7.813,-3.281 z" transform="scale(1.3333333)" style="fill:url(#I6dcf5ea7819b413f992641137f2f085720251106143238);stroke:none" /> </g>
</svg>

