<?xml version="1.0" encoding="UTF-8" standalone="no"?> <svg version="1.1" id="I2a1b6c227398495d88cdda52b939820520251110135155" width="100" height="100" viewBox="0 0 100 100" xmlns="http://www.w3.org/2000/svg" xmlns:svg="http://www.w3.org/2000/svg"> <defs id="I2991ba2954294c22bdf4e0719cd3592620251110135155" /> <g id="I09af63cf8b2c40feb9e676d4b87ab57520251110135155"> <path id="I9795032f6ac14606997287301875853620251110135155" d="m 33.277,57.812 h 12.024 c 1.722,0 3.121,1.399 3.121,3.126 0,1.726 -1.399,3.124 -3.121,3.124 H 15.613 c -1.722,0 -3.113,-1.398 -3.113,-3.124 0,-1.727 1.391,-3.126 3.113,-3.126 H 26.582 L 41.664,18.75 H 31.242 c -1.726,0 -3.125,-1.402 -3.125,-3.125 0,-1.727 1.399,-3.125 3.125,-3.125 h 26.57 c 1.727,0 3.126,1.398 3.126,3.125 0,1.723 -1.399,3.125 -3.126,3.125 h -9.453 z" style="fill:currentColor;fill-opacity:1;fill-rule:nonzero;stroke:none" transform="scale(1.3333333)" /> </g>
</svg>

