<?xml version="1.0" encoding="UTF-8" standalone="no"?> <svg version="1.1" id="Id264fca489fa4ef5a797a60f458d413d20251106142135" width="100" height="100" viewBox="0 0 100 100" xmlns="http://www.w3.org/2000/svg" xmlns:svg="http://www.w3.org/2000/svg"> <defs id="I0dd22e07446f43d7aec674efd9c3618220251106142135" /> <g id="I4b97e7afa37444299452cc7710ef835020251106142135"> <path id="I66cde75559774ab3ba443271fe8a718120251106142135" d="m 69.645,56.918 c 0,5.551 -4.5,10.047 -10.047,10.047 H 15.402 C 9.855,66.965 5.355,62.469 5.355,56.918 V 38.629 c 2.555,2.609 6.11,4.226 10.047,4.226 h 15.403 v 1.34 c 0,2.219 1.797,4.02 4.015,4.02 h 5.36 c 2.218,0 4.015,-1.801 4.015,-4.02 v -1.34 h 15.403 c 3.937,0 7.492,-1.617 10.047,-4.226 z M 43.527,6.695 c 3.328,0 6.028,2.7 6.028,6.028 v 6.027 h 10.043 c 5.375,0 9.761,4.219 10.031,9.527 0.008,0.172 0.016,0.344 0.016,0.516 0,5.551 -4.5,10.047 -10.047,10.047 H 44.195 c 0,-2.219 -1.797,-4.02 -4.015,-4.02 h -5.36 c -2.218,0 -4.015,1.801 -4.015,4.02 H 15.402 c -5.547,0 -10.047,-4.496 -10.047,-10.047 0,-0.172 0.008,-0.344 0.016,-0.516 0.27,-5.308 4.656,-9.527 10.031,-9.527 h 10.043 v -6.027 c 0,-3.328 2.7,-6.028 6.028,-6.028 z m -12.054,4.02 c -1.11,0 -2.008,0.898 -2.008,2.008 v 6.027 h 16.07 v -6.027 c 0,-1.11 -0.898,-2.008 -2.008,-2.008 z" style="fill:currentColor;fill-opacity:1;fill-rule:nonzero;stroke:none" transform="scale(1.3333333)" /> </g>
</svg>

