<?xml version="1.0" encoding="UTF-8" standalone="no"?> <svg version="1.1" id="Ieb002b1537d8469d9be41cec3f3be35b20251110130510" width="100" height="100" viewBox="0 0 100 100" xmlns="http://www.w3.org/2000/svg" xmlns:svg="http://www.w3.org/2000/svg"> <defs id="I4174eb71798e4a4b934f03a1d8583f4420251110130510" /> <g id="Ie8c0ff0495ed4c3580c40e3b0e52ac9120251110130510"> <path id="I0d9d746bc039405da9557447d27aef9020251110130510" d="m 19.531,9.375 c -5.609,0 -10.156,4.547 -10.156,10.156 v 35.938 c 0,5.609 4.547,10.156 10.156,10.156 h 15.36 l 1.113,-4.449 c 0.504,-2.024 1.551,-3.871 3.027,-5.348 l 4.266,-4.266 h -8.141 c -1.293,0 -2.344,-1.05 -2.344,-2.343 0,-1.293 1.051,-2.344 2.344,-2.344 h 12.828 l 9.493,-9.492 c 2.23,-2.231 5.234,-3.223 8.148,-2.969 V 19.531 c 0,-5.609 -4.547,-10.156 -10.156,-10.156 z m 7.813,16.406 c 0,1.727 -1.399,3.125 -3.125,3.125 -1.727,0 -3.125,-1.398 -3.125,-3.125 0,-1.726 1.398,-3.125 3.125,-3.125 1.726,0 3.125,1.399 3.125,3.125 z m 5.468,0 c 0,-1.293 1.051,-2.343 2.344,-2.343 h 17.188 c 1.293,0 2.344,1.05 2.344,2.343 0,1.293 -1.051,2.344 -2.344,2.344 H 35.156 c -1.293,0 -2.344,-1.051 -2.344,-2.344 z m 0,11.719 c 0,-1.293 1.051,-2.344 2.344,-2.344 h 17.188 c 1.293,0 2.344,1.051 2.344,2.344 0,1.293 -1.051,2.344 -2.344,2.344 H 35.156 c -1.293,0 -2.344,-1.051 -2.344,-2.344 z m -8.593,-3.125 c 1.726,0 3.125,1.398 3.125,3.125 0,1.727 -1.399,3.125 -3.125,3.125 -1.727,0 -3.125,-1.398 -3.125,-3.125 0,-1.727 1.398,-3.125 3.125,-3.125 z m 3.125,14.844 c 0,1.726 -1.399,3.125 -3.125,3.125 -1.727,0 -3.125,-1.399 -3.125,-3.125 0,-1.727 1.398,-3.125 3.125,-3.125 1.726,0 3.125,1.398 3.125,3.125 z M 59.688,39.594 41.242,58.039 c -1.074,1.074 -1.84,2.422 -2.207,3.899 l -1.43,5.718 c -0.621,2.489 1.629,4.742 4.118,4.121 l 5.722,-1.433 c 1.477,-0.367 2.825,-1.129 3.899,-2.207 L 69.789,49.695 c 2.789,-2.793 2.789,-7.312 0,-10.101 -2.789,-2.793 -7.312,-2.793 -10.101,0 z" style="fill:currentColor;fill-opacity:1;fill-rule:nonzero;stroke:none" transform="scale(1.3333333)" /> </g>
</svg>

