<?xml version="1.0" encoding="UTF-8" standalone="no"?> <svg version="1.1" id="Ib585982805e44ead9ed97bdf486974c720251110123030" width="100" height="100" viewBox="0 0 100 100" xmlns="http://www.w3.org/2000/svg" xmlns:svg="http://www.w3.org/2000/svg"> <defs id="Ic212a3ad349f42279ac976dd55f42d0320251110123030" /> <g id="Ib052eb6aaabb454c83437b2421efa1eb20251110123030"> <path id="I59b3584033054c51b21a12e5b44ba47620251110123030" d="m 13.395,25.445 c 0,-6.656 5.394,-12.05 12.05,-12.05 6.657,0 12.055,5.394 12.055,12.05 0,6.657 -5.398,12.055 -12.055,12.055 -6.656,0 -12.05,-5.398 -12.05,-12.055 z m 12.05,-8.035 c -4.437,0 -8.035,3.598 -8.035,8.035 0,4.438 3.598,8.035 8.035,8.035 4.438,0 8.035,-3.597 8.035,-8.035 0,-4.437 -3.597,-8.035 -8.035,-8.035 z m 18.75,10.715 c 0,-5.176 4.2,-9.375 9.375,-9.375 5.18,0 9.375,4.199 9.375,9.375 0,5.176 -4.195,9.375 -9.375,9.375 -5.175,0 -9.375,-4.199 -9.375,-9.375 z M 53.57,22.77 c -2.957,0 -5.355,2.398 -5.355,5.355 0,2.957 2.398,5.355 5.355,5.355 2.961,0 5.36,-2.398 5.36,-5.355 0,-2.957 -2.399,-5.355 -5.36,-5.355 z M 5.355,48.883 c 0,-3.328 2.7,-6.028 6.028,-6.028 h 28.125 c 0.633,0 1.242,0.098 1.816,0.282 -0.715,0.82 -1.144,1.894 -1.144,3.07 0,0.273 0.023,0.547 0.07,0.809 -0.23,-0.09 -0.48,-0.141 -0.742,-0.141 H 11.383 c -1.11,0 -2.008,0.898 -2.008,2.008 v 1.375 c 0.004,0.054 0.012,0.144 0.023,0.269 0.028,0.25 0.082,0.629 0.2,1.094 0.23,0.93 0.699,2.176 1.636,3.422 1.801,2.406 5.661,5.227 14.211,5.227 8.551,0 12.41,-2.821 14.215,-5.227 0.192,-0.254 0.363,-0.512 0.52,-0.766 0.011,1.629 0.855,3.059 2.125,3.891 -0.18,0.203 -0.364,0.41 -0.559,0.609 -0.133,0.118 -0.254,0.243 -0.371,0.375 -2.988,2.871 -7.922,5.133 -15.93,5.133 -9.527,0 -14.711,-3.207 -17.425,-6.828 C 6.695,55.691 6.031,53.926 5.699,52.594 5.531,51.926 5.449,51.363 5.402,50.957 5.383,50.75 5.371,50.582 5.363,50.457 5.359,50.398 5.359,50.348 5.359,50.305 L 5.355,50.258 Z m 39.512,-4.688 c -1.109,0 -2.012,0.903 -2.012,2.012 0,1.109 0.903,2.008 2.012,2.008 h 22.766 c 1.109,0 2.012,-0.899 2.012,-2.008 0,-1.109 -0.903,-2.012 -2.012,-2.012 z m 0,8.035 c -1.109,0 -2.012,0.903 -2.012,2.012 0,1.11 0.903,2.008 2.012,2.008 h 22.766 c 1.109,0 2.012,-0.898 2.012,-2.008 0,-1.109 -0.903,-2.012 -2.012,-2.012 z m 0,8.04 c -1.109,0 -2.012,0.898 -2.012,2.007 0,1.11 0.903,2.008 2.012,2.008 h 22.766 c 1.109,0 2.012,-0.898 2.012,-2.008 0,-1.109 -0.903,-2.007 -2.012,-2.007 z" style="fill:currentColor;fill-opacity:1;fill-rule:nonzero;stroke:none" transform="scale(1.3333333)" /> </g>
</svg>

