<?xml version="1.0" encoding="UTF-8" standalone="no"?> <svg version="1.1" id="Ifad583888d084375b8878f9fb53748e720251106151526" width="100" height="100" viewBox="0 0 100 100" xmlns="http://www.w3.org/2000/svg" xmlns:svg="http://www.w3.org/2000/svg"> <defs id="I6ad713de2f0747afb4b4f725195298df20251106151526" /> <g id="If45aad518558408183f219ac39f4c26920251106151526"> <path id="I147710164d6449149e186e482af65c8920251106151526" d="M 26.57,11.25 H 20.625 C 17.52,11.25 15,13.77 15,16.875 v 45 c 0,3.105 2.52,5.625 5.625,5.625 h 33.75 C 57.48,67.5 60,64.98 60,61.875 v -45 C 60,13.77 57.48,11.25 54.375,11.25 H 48.43 C 47.656,9.066 45.574,7.5 43.125,7.5 h -11.25 c -2.449,0 -4.531,1.566 -5.305,3.75 z m 5.305,0 h 11.25 C 44.16,11.25 45,12.09 45,13.125 45,14.16 44.16,15 43.125,15 H 31.875 C 30.84,15 30,14.16 30,13.125 30,12.09 30.84,11.25 31.875,11.25 Z M 33.75,31.875 C 33.75,30.84 34.59,30 35.625,30 H 48.75 c 1.035,0 1.875,0.84 1.875,1.875 0,1.035 -0.84,1.875 -1.875,1.875 H 35.625 c -1.035,0 -1.875,-0.84 -1.875,-1.875 z m 0,11.25 c 0,-1.035 0.84,-1.875 1.875,-1.875 H 48.75 c 1.035,0 1.875,0.84 1.875,1.875 0,1.035 -0.84,1.875 -1.875,1.875 H 35.625 C 34.59,45 33.75,44.16 33.75,43.125 Z m 0,11.25 c 0,-1.035 0.84,-1.875 1.875,-1.875 H 48.75 c 1.035,0 1.875,0.84 1.875,1.875 0,1.035 -0.84,1.875 -1.875,1.875 H 35.625 c -1.035,0 -1.875,-0.84 -1.875,-1.875 z M 30,31.875 c 0,1.555 -1.258,2.813 -2.812,2.813 -1.555,0 -2.813,-1.258 -2.813,-2.813 0,-1.555 1.258,-2.813 2.813,-2.813 1.554,0 2.812,1.258 2.812,2.813 z m 0,11.25 c 0,1.555 -1.258,2.813 -2.812,2.813 -1.555,0 -2.813,-1.258 -2.813,-2.813 0,-1.555 1.258,-2.813 2.813,-2.813 1.554,0 2.812,1.258 2.812,2.813 z m -2.812,14.063 c -1.555,0 -2.813,-1.258 -2.813,-2.813 0,-1.555 1.258,-2.813 2.813,-2.813 1.554,0 2.812,1.258 2.812,2.813 0,1.555 -1.258,2.813 -2.812,2.813 z" style="fill:currentColor;fill-opacity:1;fill-rule:nonzero;stroke:none" transform="scale(1.3333333)" /> </g>
</svg>

