<?xml version="1.0" encoding="UTF-8" standalone="no"?> <svg version="1.1" id="I8624eb44e11a443da22201301c27b76420251106155156" width="100" height="100" viewBox="0 0 100 100" xmlns="http://www.w3.org/2000/svg" xmlns:svg="http://www.w3.org/2000/svg"> <defs id="Ic2cfef654afb44cd86e529da39f4b8d520251106155156" /> <g id="Ie7360b890f014045a0ec2d3ef38c37ea20251106155156"> <path id="Ib2926c6754ab4227b34b022752ea767e20251106155156" d="m 8.301,30.398 c -3.926,3.922 -3.926,10.282 0,14.204 l 22.097,22.097 c 3.922,3.922 10.282,3.922 14.204,0 L 66.699,44.602 c 3.922,-3.922 3.922,-10.282 0,-14.204 L 44.602,8.301 C 40.68,4.375 34.32,4.375 30.398,8.301 Z m 2.84,11.364 c -2.356,-2.356 -2.356,-6.172 0,-8.524 L 33.238,11.141 c 2.352,-2.356 6.168,-2.356 8.524,0 l 22.097,22.097 c 2.352,2.352 2.352,6.168 0,8.524 L 41.762,63.859 c -2.356,2.352 -6.172,2.352 -8.524,0 z M 42.266,22.016 c -0.782,-0.782 -2.055,-0.782 -2.84,0 -0.785,0.785 -0.785,2.058 0,2.843 l 3.269,3.266 h -4.527 c -5.547,0 -10.043,4.496 -10.043,10.043 v 10.715 c 0,1.109 0.898,2.012 2.008,2.012 1.109,0 2.008,-0.903 2.008,-2.012 V 38.168 c 0,-3.328 2.699,-6.023 6.027,-6.023 h 4.527 l -3.269,3.265 c -0.785,0.785 -0.785,2.055 0,2.84 0.785,0.785 2.058,0.785 2.84,0 l 6.699,-6.695 c 0.785,-0.785 0.785,-2.059 0,-2.84 z" style="fill:currentColor;fill-opacity:1;fill-rule:nonzero;stroke:none" transform="scale(1.3333333)" /> </g>
</svg>

