<?xml version="1.0" encoding="UTF-8" standalone="no"?> <svg version="1.1" id="I3878c9a37b4d447db9396e1acec37d9020251106163938" width="100" height="100" viewBox="0 0 100 100" xmlns="http://www.w3.org/2000/svg" xmlns:svg="http://www.w3.org/2000/svg"> <defs id="Icbd88eef250f48c29da9552b054f978820251106163938" /> <g id="I32444744e40a45e2ace3e8c029f5bea520251106163938"> <path id="Ief153424a0b64d58b6674a4e04e9a02420251106163938" d="m 56.25,17.188 c -4.316,0 -7.812,3.496 -7.812,7.812 0,4.316 3.496,7.812 7.812,7.812 4.316,0 7.812,-3.496 7.812,-7.812 0,-4.316 -3.496,-7.812 -7.812,-7.812 z M 43.953,22.746 C 45.016,16.918 50.117,12.5 56.25,12.5 c 6.902,0 12.5,5.598 12.5,12.5 0,6.902 -5.598,12.5 -12.5,12.5 -6.047,0 -11.09,-4.293 -12.25,-9.996 -2.387,0.586 -4.156,2.742 -4.156,5.308 v 9.376 c 0,5.148 -3.832,9.402 -8.797,10.066 C 29.988,58.082 24.883,62.5 18.75,62.5 11.848,62.5 6.25,56.902 6.25,50 c 0,-6.902 5.598,-12.5 12.5,-12.5 6.047,0 11.09,4.293 12.25,9.996 2.387,-0.586 4.156,-2.742 4.156,-5.308 v -9.376 c 0,-5.148 3.832,-9.402 8.797,-10.066 z M 18.75,42.188 c -4.316,0 -7.812,3.496 -7.812,7.812 0,4.316 3.496,7.812 7.812,7.812 4.316,0 7.812,-3.496 7.812,-7.812 0,-4.316 -3.496,-7.812 -7.812,-7.812 z" style="fill:currentColor;fill-opacity:1;fill-rule:nonzero;stroke:none" transform="scale(1.3333333)" /> </g>
</svg>

