<?xml version="1.0" encoding="UTF-8" standalone="no"?> <svg version="1.1" id="I6dfd6ec5abb14b189bcd013644d6bddd20251106102216" width="100" height="100" viewBox="0 0 100 100" xmlns="http://www.w3.org/2000/svg" xmlns:svg="http://www.w3.org/2000/svg"> <defs id="Ia814bb94d0354c96a11fbc16f702063220251106102216" /> <g id="I62e093821166468f8c520d59d44144a520251106102216"> <path id="Ib2aae244bf75488caa23d88a1b1cf10820251106102216" d="M 70.98,63.289 V 11.711 C 73.324,10.883 75,8.648 75,6.027 75,2.695 72.305,0 68.973,0 66.352,0 64.117,1.676 63.289,4.02 H 11.711 C 10.883,1.676 8.648,0 6.027,0 2.695,0 0,2.695 0,6.027 0,8.648 1.676,10.883 4.02,11.711 V 63.289 C 1.676,64.117 0,66.352 0,68.973 0,72.305 2.695,75 6.027,75 c 2.621,0 4.856,-1.676 5.684,-4.02 H 63.289 C 64.117,73.324 66.352,75 68.973,75 72.305,75 75,72.305 75,68.973 75,66.352 73.324,64.117 70.98,63.289 Z M 68.973,4.02 c 1.113,0 2.007,0.894 2.007,2.007 0,1.114 -0.894,2.008 -2.007,2.008 -1.114,0 -2.008,-0.894 -2.008,-2.008 0,-1.113 0.894,-2.007 2.008,-2.007 z M 6.027,70.98 c -1.113,0 -2.007,-0.894 -2.007,-2.007 0,-1.114 0.894,-2.008 2.007,-2.008 1.114,0 2.008,0.894 2.008,2.008 0,1.113 -0.894,2.007 -2.008,2.007 z m 0,-62.945 C 4.914,8.035 4.02,7.141 4.02,6.027 4.02,4.914 4.914,4.02 6.027,4.02 c 1.114,0 2.008,0.894 2.008,2.007 0,1.114 -0.894,2.008 -2.008,2.008 z m 58.93,56.922 H 10.043 V 10.043 h 54.914 z m 4.016,6.023 c -1.114,0 -2.008,-0.894 -2.008,-2.007 0,-1.114 0.894,-2.008 2.008,-2.008 1.113,0 2.007,0.894 2.007,2.008 0,1.113 -0.894,2.007 -2.007,2.007 z" style="fill:currentColor;fill-opacity:1;fill-rule:nonzero;stroke:none" transform="scale(1.3333333)" /> <path id="I811421c869d14acbb96e47fbe59c56d020251106102216" d="m 18.75,34.32 h 37.5 c 0.738,0 1.34,-0.605 1.34,-1.34 V 18.246 c 0,-0.734 -0.602,-1.336 -1.34,-1.336 h -37.5 c -0.738,0 -1.34,0.602 -1.34,1.336 V 32.98 c 0,0.735 0.602,1.34 1.34,1.34 z m 4.688,-11.386 h 28.124 v 5.359 H 23.438 Z M 18.75,58.09 h 37.5 c 0.738,0 1.34,-0.602 1.34,-1.336 V 42.02 c 0,-0.735 -0.602,-1.34 -1.34,-1.34 h -37.5 c -0.738,0 -1.34,0.605 -1.34,1.34 v 14.734 c 0,0.734 0.602,1.336 1.34,1.336 z m 4.688,-11.383 h 28.124 v 5.359 H 23.438 Z" style="fill:currentColor;fill-opacity:1;fill-rule:nonzero;stroke:none" transform="scale(1.3333333)" /> </g>
</svg>

