<?xml version="1.0" encoding="UTF-8" standalone="no"?> <svg version="1.1" id="I315c720fe8694f5bab8495242240e00920251106142136" width="100" height="100" viewBox="0 0 100 100" xmlns="http://www.w3.org/2000/svg" xmlns:svg="http://www.w3.org/2000/svg"> <defs id="I2b3d499061224ee69282836cb900a2ff20251106142136" /> <g id="I47bce605e1cd40f79ec35f4ef7fdfa2220251106142136"> <path id="I5f4507d1ac1d47c49e1aaca86c4daebd20251106142136" d="M 12.5,13.281 C 12.5,9.398 15.648,6.25 19.531,6.25 H 42.969 C 46.852,6.25 50,9.398 50,13.281 v 16.407 h 5.469 c 3.883,0 7.031,3.148 7.031,7.031 v 4.062 c -2.125,0.43 -3.934,1.723 -5.051,3.496 C 56.32,40.363 52.715,37.5 48.438,37.5 c -5.18,0 -9.376,4.195 -9.376,9.375 0,2.516 0.993,4.801 2.602,6.484 -4.172,0.946 -7.289,4.68 -7.289,9.141 0,2.074 0.461,4.27 1.582,6.25 H 14.844 C 13.551,68.75 12.5,67.699 12.5,66.406 Z M 25,23.438 c 1.727,0 3.125,-1.399 3.125,-3.126 0,-1.726 -1.398,-3.124 -3.125,-3.124 -1.727,0 -3.125,1.398 -3.125,3.124 0,1.727 1.398,3.126 3.125,3.126 z m -3.125,18.75 c 0,1.726 1.398,3.124 3.125,3.124 1.727,0 3.125,-1.398 3.125,-3.124 0,-1.727 -1.398,-3.126 -3.125,-3.126 -1.727,0 -3.125,1.399 -3.125,3.126 z m 0,-10.938 c 0,1.727 1.398,3.125 3.125,3.125 1.727,0 3.125,-1.398 3.125,-3.125 0,-1.727 -1.398,-3.125 -3.125,-3.125 -1.727,0 -3.125,1.398 -3.125,3.125 z m 12.5,-10.938 c 0,1.727 1.398,3.126 3.125,3.126 1.727,0 3.125,-1.399 3.125,-3.126 0,-1.726 -1.398,-3.124 -3.125,-3.124 -1.727,0 -3.125,1.398 -3.125,3.124 z m 0,10.938 c 0,1.727 1.398,3.125 3.125,3.125 1.727,0 3.125,-1.398 3.125,-3.125 0,-1.727 -1.398,-3.125 -3.125,-3.125 -1.727,0 -3.125,1.398 -3.125,3.125 z m 14.063,21.875 c 3.453,0 6.25,-2.797 6.25,-6.25 0,-3.453 -2.797,-6.25 -6.25,-6.25 -3.454,0 -6.25,2.797 -6.25,6.25 0,3.453 2.796,6.25 6.25,6.25 z m 0,18.75 c 8.019,0 10.937,-4.754 10.937,-9.375 0,-3.453 -2.797,-6.25 -6.25,-6.25 H 43.75 c -3.453,0 -6.25,2.797 -6.25,6.25 0,4.621 2.918,9.375 10.938,9.375 z M 60.957,68.68 c 0.488,0.047 1.004,0.07 1.543,0.07 6.875,0 9.375,-3.801 9.375,-7.5 0,-2.762 -2.238,-5 -5,-5 h -6.762 c 1.485,1.66 2.387,3.848 2.387,6.25 0,2.051 -0.453,4.219 -1.543,6.18 z M 68.75,48.438 c 0,2.589 -2.098,4.687 -4.688,4.687 -2.589,0 -4.687,-2.098 -4.687,-4.687 0,-2.59 2.098,-4.688 4.687,-4.688 2.59,0 4.688,2.098 4.688,4.688 z" style="fill:currentColor;fill-opacity:1;fill-rule:nonzero;stroke:none" transform="scale(1.3333333)" /> </g>
</svg>

