<?xml version="1.0" encoding="UTF-8" standalone="no"?> <svg version="1.1" id="I429df32c211547c2aafb0c69826087c120251106155157" width="100" height="100" viewBox="0 0 100 100" xmlns="http://www.w3.org/2000/svg" xmlns:svg="http://www.w3.org/2000/svg"> <defs id="I9939d7e2857a4b8fba7d921ecd573a1320251106155157" /> <g id="I2e1c29455e124f0d8489ead4e22d855020251106155157"> <path id="Id878c9d5350b48cd9e0566d1935d507720251106155157" d="m 37.5,5.355 v 21.43 c 0,2.961 2.398,5.36 5.355,5.36 h 21.426 c 0.004,0.066 0.004,0.136 0.004,0.207 v 30.863 c 0,3.551 -2.879,6.43 -6.43,6.43 H 30.652 c 0.047,-0.715 -0.05,-1.45 -0.312,-2.165 -0.039,-0.105 -0.078,-0.207 -0.125,-0.304 6.258,-0.227 10.5,-6.086 10.5,-12.262 0,-11.391 -9.235,-20.625 -20.625,-20.625 -3.375,0 -6.563,0.809 -9.375,2.25 V 11.785 c 0,-3.551 2.879,-6.43 6.43,-6.43 z m 4.02,1.274 v 20.156 c 0,0.738 0.597,1.34 1.335,1.34 h 20.098 c -0.246,-0.348 -0.519,-0.676 -0.824,-0.98 L 42.223,7.238 C 42.004,7.02 41.766,6.816 41.52,6.629 Z M 37.5,54.91 c 0,-9.617 -7.793,-17.41 -17.41,-17.41 -9.617,0 -17.41,7.793 -17.41,17.41 0,9.617 7.793,17.41 17.41,17.41 1.805,0 3.578,-0.273 5.269,-0.812 l 0.715,-0.242 0.262,-0.118 c 0.91,-0.48 1.348,-1.57 0.984,-2.562 C 26.922,67.5 25.723,66.945 24.637,67.34 l -0.539,0.187 -0.778,0.219 c -1.047,0.262 -2.129,0.399 -3.23,0.399 -7.309,0 -13.235,-5.926 -13.235,-13.235 0,-7.308 5.926,-13.23 13.235,-13.23 7.308,0 13.23,5.922 13.23,13.23 0,2.86 -1.726,4.875 -3.48,4.875 -1.305,0 -2.09,-1.41 -2.09,-4.875 v -6.965 l -0.02,-0.281 c -0.136,-1.019 -1.011,-1.809 -2.07,-1.809 -0.777,0 -1.457,0.43 -1.816,1.059 -1.071,-0.672 -2.332,-1.059 -3.754,-1.059 -4.711,0 -7.66,4.227 -7.66,9.055 0,4.828 2.949,9.055 7.66,9.055 2.121,0 3.883,-0.856 5.176,-2.238 1.031,1.429 2.546,2.238 4.574,2.238 4.215,0 7.66,-4.02 7.66,-9.055 z m -20.895,0 c 0,-2.773 1.469,-4.875 3.485,-4.875 2.015,0 3.48,2.102 3.48,4.875 0,2.774 -1.465,4.875 -3.48,4.875 -2.016,0 -3.485,-2.101 -3.485,-4.875 z" style="fill:currentColor;fill-opacity:1;fill-rule:nonzero;stroke:none" transform="scale(1.3333333)" /> </g>
</svg>

