<?xml version="1.0" encoding="UTF-8" standalone="no"?> <svg version="1.1" id="Ia85591b8a841489fb5e08a90c5e8b64e20251106125938" width="100" height="100" viewBox="0 0 100 100" xmlns="http://www.w3.org/2000/svg" xmlns:svg="http://www.w3.org/2000/svg"> <defs id="Ief00f624a91b41509ccf03a9104307f820251106125938" /> <g id="I4faef3c8fd58469ead9ed1524d9ec7b320251106125938"> <path id="Iadcceddd91a148fe98b88c2da4bf5ba420251106125938" d="m 43.75,50 c 0,-1.727 1.398,-3.125 3.125,-3.125 H 62.5 c 1.727,0 3.125,1.398 3.125,3.125 v 12.5 c 0,1.727 -1.398,3.125 -3.125,3.125 H 46.875 c -1.727,0 -3.125,-1.398 -3.125,-3.125 z m 28.125,4.688 c 0,-0.864 -0.699,-1.563 -1.563,-1.563 -0.863,0 -1.562,0.699 -1.562,1.563 v 9.374 c 0,2.59 -2.098,4.688 -4.688,4.688 h -12.5 c -0.863,0 -1.562,0.699 -1.562,1.562 0,0.864 0.699,1.563 1.562,1.563 h 12.5 c 4.317,0 7.813,-3.496 7.813,-7.813 z M 54.781,10.062 c -0.914,-0.917 -2.398,-0.917 -3.312,0 -0.918,0.915 -0.918,2.399 0,3.313 l 9.277,9.281 H 45.312 c -5.609,0 -10.156,4.547 -10.156,10.156 v 9.376 c 0,2.566 -1.769,4.722 -4.156,5.308 C 29.84,41.793 24.797,37.5 18.75,37.5 c -6.902,0 -12.5,5.598 -12.5,12.5 0,6.902 5.598,12.5 12.5,12.5 6.133,0 11.238,-4.418 12.297,-10.246 4.965,-0.664 8.797,-4.918 8.797,-10.066 v -9.376 c 0,-3.019 2.449,-5.468 5.468,-5.468 h 15.434 l -9.277,9.281 c -0.918,0.914 -0.918,2.398 0,3.313 0.914,0.917 2.398,0.917 3.312,0 L 68.062,26.656 c 0.918,-0.914 0.918,-2.398 0,-3.312 z M 10.938,50 c 0,-4.316 3.496,-7.812 7.812,-7.812 4.316,0 7.812,3.496 7.812,7.812 0,4.316 -3.496,7.812 -7.812,7.812 -4.316,0 -7.812,-3.496 -7.812,-7.812 z" style="fill:currentColor;fill-opacity:1;fill-rule:nonzero;stroke:none" transform="scale(1.3333333)" /> </g>
</svg>

