<?xml version="1.0" encoding="UTF-8" standalone="no"?> <svg version="1.1" id="I17c9b04ff597484c8998d848c917398720251106142135" width="100" height="100" viewBox="0 0 100 100" xmlns="http://www.w3.org/2000/svg" xmlns:svg="http://www.w3.org/2000/svg"> <defs id="Ibc799ae6a01e4e5d9b9f469f7081170f20251106142135" /> <g id="If6e99457d98e4b688a6c8a713fa7644720251106142135"> <path id="I9e16bca207ae4bac8350236b4b97e36d20251106142135" d="m 43.75,12.5 h -1.562 c -2.59,0 -4.688,2.098 -4.688,4.688 v 4.687 h 7.812 v -0.781 c 0,-1.293 1.051,-2.344 2.344,-2.344 1.293,0 2.344,1.051 2.344,2.344 v 0.781 h 9.375 v -0.781 c 0,-1.293 1.051,-2.344 2.344,-2.344 1.293,0 2.343,1.051 2.343,2.344 v 0.781 h 7.813 v -4.687 c 0,-2.59 -2.098,-4.688 -4.687,-4.688 H 65.625 V 9.375 c 0,-3.02 -2.449,-5.469 -5.469,-5.469 H 49.219 c -3.02,0 -5.469,2.449 -5.469,5.469 z m 4.688,-3.125 c 0,-0.43 0.351,-0.781 0.781,-0.781 h 10.937 c 0.43,0 0.782,0.351 0.782,0.781 V 12.5 h -12.5 z M 37.5,32.812 v -6.25 h 7.812 v 2.344 c 0,1.293 1.051,2.344 2.344,2.344 1.293,0 2.344,-1.051 2.344,-2.344 v -2.344 h 9.375 v 2.344 c 0,1.293 1.051,2.344 2.344,2.344 1.293,0 2.343,-1.051 2.343,-2.344 v -2.344 h 7.813 v 6.25 c 0,2.59 -2.098,4.688 -4.687,4.688 h -25 C 39.598,37.5 37.5,35.402 37.5,32.812 Z M 40.625,9.531 c -3.566,0.723 -6.25,3.875 -6.25,7.657 v 15.624 c 0,4.317 3.496,7.813 7.813,7.813 h 21.874 v 17.969 c 0,1.293 -1.05,2.344 -2.343,2.344 H 17.188 c 0,1.726 1.398,3.124 3.124,3.124 h 41.407 c 1.293,0 2.343,1.051 2.343,2.344 0,1.293 -1.05,2.344 -2.343,2.344 H 20.312 C 15.996,68.75 12.5,65.254 12.5,60.938 V 14.062 c 0,-4.316 3.496,-7.812 7.812,-7.812 h 20.899 c -0.379,0.969 -0.586,2.023 -0.586,3.125 z" style="fill:currentColor;fill-opacity:1;fill-rule:nonzero;stroke:none" transform="scale(1.3333333)" /> </g>
</svg>

