<?xml version="1.0" encoding="UTF-8" standalone="no"?> <svg version="1.1" id="I1021a510d21c4bb1b5d360697e7b01db20251106143238" width="100" height="100" viewBox="0 0 100 100" xmlns="http://www.w3.org/2000/svg" xmlns:svg="http://www.w3.org/2000/svg"> <defs id="I6a847820c6514cbcbe6b603dc197f6d520251106143238" /> <g id="I667e3d705f4b4f5c8646b5547dd47e0b20251106143238"> <path id="I083a954d94c242308b8c2f7bdce9ac4020251106143238" d="m 65.625,26.562 v 11.004 c -3.156,-2.019 -6.91,-3.191 -10.937,-3.191 -11.219,0 -20.313,9.094 -20.313,20.313 0,4.027 1.172,7.781 3.191,10.937 H 19.531 C 13.922,65.625 9.375,61.078 9.375,55.469 V 26.562 Z M 55.469,9.375 c 5.609,0 10.156,4.547 10.156,10.156 v 2.344 H 9.375 v -2.344 c 0,-5.609 4.547,-10.156 10.156,-10.156 z M 37.5,54.688 c 0,9.492 7.695,17.187 17.188,17.187 9.492,0 17.187,-7.695 17.187,-17.187 C 71.875,45.195 64.18,37.5 54.688,37.5 45.195,37.5 37.5,45.195 37.5,54.688 Z M 64.062,43.75 c 0.864,0 1.563,0.699 1.563,1.562 v 6.25 c 0,0.864 -0.699,1.563 -1.563,1.563 h -6.25 c -0.863,0 -1.562,-0.699 -1.562,-1.563 0,-0.863 0.699,-1.562 1.562,-1.562 h 3.126 c -1.426,-1.898 -3.696,-3.125 -6.25,-3.125 -2.606,0 -4.911,1.273 -6.333,3.238 -0.507,0.699 -1.484,0.856 -2.183,0.348 -0.699,-0.504 -0.856,-1.481 -0.348,-2.18 1.985,-2.742 5.215,-4.531 8.864,-4.531 3.062,0 5.828,1.258 7.812,3.281 v -1.719 c 0,-0.863 0.699,-1.562 1.562,-1.562 z M 46.875,62.344 v 1.718 c 0,0.864 -0.699,1.563 -1.563,1.563 -0.863,0 -1.562,-0.699 -1.562,-1.563 v -6.25 c 0,-0.863 0.699,-1.562 1.562,-1.562 h 6.25 c 0.864,0 1.563,0.699 1.563,1.562 0,0.864 -0.699,1.563 -1.563,1.563 h -3.124 c 1.425,1.898 3.695,3.125 6.25,3.125 2.394,0 4.535,-1.074 5.972,-2.777 0.555,-0.657 1.543,-0.743 2.203,-0.184 0.657,0.555 0.742,1.543 0.184,2.203 -2.004,2.371 -5.004,3.883 -8.359,3.883 -3.063,0 -5.829,-1.258 -7.813,-3.281 z" style="fill:currentColor;fill-opacity:1;fill-rule:nonzero;stroke:none" transform="scale(1.3333333)" /> </g>
</svg>

