<?xml version="1.0" encoding="UTF-8" standalone="no"?> <svg version="1.1" id="I5193e83f2f14401585191d835e2000ab20251106155156" width="100" height="100" viewBox="0 0 100 100" xmlns="http://www.w3.org/2000/svg" xmlns:svg="http://www.w3.org/2000/svg"> <defs id="I20fe4273980c4b739a59cf193482a38d20251106155156" /> <g id="I85bdcf80a4f140778e28fe181600eadb20251106155156"> <path id="I3990c35d1a954ffe935435e6de1e14f420251106155156" d="M 37.5,6.25 V 25 c 0,3.453 2.797,6.25 6.25,6.25 H 62.5 V 62.5 c 0,3.453 -2.797,6.25 -6.25,6.25 H 33.113 l 0.067,-0.035 c 2.648,-1.324 4.32,-4.027 4.32,-6.988 v -2.352 h 13.281 c 1.293,0 2.344,-1.051 2.344,-2.344 0,-1.293 -1.051,-2.343 -2.344,-2.343 H 37.5 V 50 h 13.281 c 1.293,0 2.344,-1.051 2.344,-2.344 0,-1.293 -1.051,-2.344 -2.344,-2.344 H 37.141 C 36.516,43.324 35.105,41.629 33.18,40.668 l -0.321,-0.16 c 0.231,0.074 0.477,0.117 0.735,0.117 h 17.187 c 1.293,0 2.344,-1.051 2.344,-2.344 0,-1.293 -1.051,-2.343 -2.344,-2.343 H 33.594 c -1.293,0 -2.344,1.05 -2.344,2.343 0,0.797 0.398,1.5 1.004,1.926 L 22.242,35.199 c -2.199,-1.097 -4.785,-1.097 -6.984,0 L 12.5,36.578 V 12.5 c 0,-3.453 2.797,-6.25 6.25,-6.25 z m 4.688,1.562 V 25 c 0,0.863 0.699,1.562 1.562,1.562 H 60.938 Z M 31.785,43.465 20.848,37.996 c -1.321,-0.66 -2.875,-0.66 -4.196,0 L 5.715,43.465 c -1.586,0.793 -2.59,2.414 -2.59,4.191 v 14.071 c 0,1.777 1.004,3.398 2.59,4.195 l 10.937,5.469 c 1.321,0.66 2.875,0.66 4.196,0 l 10.937,-5.469 c 1.586,-0.797 2.59,-2.418 2.59,-4.195 V 47.656 c 0,-1.777 -1.004,-3.398 -2.59,-4.191 z M 7.977,47.738 c 0.386,-0.769 1.324,-1.086 2.097,-0.699 l 8.676,4.34 8.676,-4.34 c 0.773,-0.387 1.711,-0.07 2.097,0.699 0.387,0.774 0.071,1.711 -0.699,2.098 l -8.512,4.254 v 9.972 c 0,0.864 -0.699,1.563 -1.562,1.563 -0.863,0 -1.562,-0.699 -1.562,-1.563 V 54.09 L 8.676,49.836 C 7.906,49.449 7.59,48.512 7.977,47.738 Z" style="fill:currentColor;fill-opacity:1;fill-rule:nonzero;stroke:none" transform="scale(1.3333333)" /> </g>
</svg>

