<?xml version="1.0" encoding="UTF-8" standalone="no"?> <svg version="1.1" id="Iaaef81d706b14bcb97cc3c6706d994b720251110124419" width="100" height="100" viewBox="0 0 100 100" xmlns="http://www.w3.org/2000/svg" xmlns:svg="http://www.w3.org/2000/svg"> <defs id="I122f3ef060f84dd7bcee8948ecc1c62220251110124419" /> <g id="I89d7df7962e249b1928dd7aacdea516520251110124419"> <path id="Idf2bb01d391c4d17a712af783b91559520251110124419" d="M 66.918,35.668 58.082,26.832 C 56.91,25.66 55.32,25 53.66,25 H 21.34 c -1.66,0 -3.25,0.66 -4.422,1.832 L 8.082,35.668 C 7.5,36.25 7.039,36.938 6.727,37.695 6.41,38.457 6.25,39.27 6.25,40.09 v 3.66 c 0,1.656 0.66,3.246 1.832,4.418 C 9.254,49.34 10.844,50 12.5,50 h 50 c 1.656,0 3.246,-0.66 4.418,-1.832 1.172,-1.172 1.832,-2.762 1.832,-4.418 v -3.66 c 0,-0.82 -0.16,-1.633 -0.477,-2.395 C 67.961,36.938 67.5,36.25 66.918,35.668 Z m -2.856,8.082 c 0,0.414 -0.164,0.812 -0.457,1.105 -0.293,0.293 -0.691,0.457 -1.105,0.457 h -50 c -0.414,0 -0.812,-0.164 -1.105,-0.457 -0.293,-0.293 -0.457,-0.691 -0.457,-1.105 v -3.66 c 0,-0.207 0.039,-0.41 0.117,-0.598 0.078,-0.191 0.195,-0.363 0.34,-0.508 l 8.839,-8.839 c 0.145,-0.145 0.317,-0.262 0.508,-0.34 0.188,-0.078 0.391,-0.117 0.598,-0.117 h 32.32 c 0.207,0 0.41,0.039 0.598,0.117 0.191,0.078 0.363,0.195 0.508,0.34 l 8.839,8.839 c 0.145,0.145 0.262,0.317 0.34,0.508 0.078,0.188 0.117,0.391 0.117,0.598 z M 50.781,35.156 H 24.219 c -0.621,0 -1.219,0.246 -1.657,0.688 -0.441,0.437 -0.687,1.035 -0.687,1.656 0,0.621 0.246,1.219 0.687,1.656 0.438,0.442 1.036,0.688 1.657,0.688 h 26.562 c 0.621,0 1.219,-0.246 1.657,-0.688 0.441,-0.437 0.687,-1.035 0.687,-1.656 0,-0.621 -0.246,-1.219 -0.687,-1.656 C 52,35.402 51.402,35.156 50.781,35.156 Z" style="fill:currentColor;fill-opacity:1;fill-rule:nonzero;stroke:none" transform="scale(1.3333333)" /> </g>
</svg>

