<?xml version="1.0" encoding="UTF-8" standalone="no"?> <svg version="1.1" id="Ibc1fabcb30604507ba5ad5a43733666520251106154012" width="100" height="100" viewBox="0 0 100 100" xmlns="http://www.w3.org/2000/svg" xmlns:svg="http://www.w3.org/2000/svg"> <defs id="I14a705daf6d0406abac425a7bf91c0d320251106154012" /> <g id="Ic9dcaf567fb1444ba1ad1aa20d99e06120251106154012"> <path id="If533094be1a9482eaf96b74ff2a3aec720251106154012" d="m 12.734,10.715 c -4.07,0 -7.367,3.297 -7.367,7.367 v 6.023 h 60.258 v 38.172 c 0,1.11 0.902,2.008 2.012,2.008 1.109,0 2.008,-0.898 2.008,-2.008 V 18.082 c 0,-4.07 -3.297,-7.367 -7.368,-7.367 z M 37.5,28.125 H 5.367 v 26.117 c 0,5.547 4.496,10.043 10.047,10.043 h 12.043 c 5.547,0 10.043,-4.496 10.043,-10.043 z M 14.73,39.508 c 0,-1.11 0.903,-2.008 2.012,-2.008 h 9.375 c 1.11,0 2.008,0.898 2.008,2.008 0,1.109 -0.898,2.012 -2.008,2.012 h -9.375 c -1.109,0 -2.012,-0.903 -2.012,-2.012 z" style="fill:currentColor;fill-opacity:1;fill-rule:nonzero;stroke:none" transform="scale(1.3333333)" /> </g>
</svg>

