<?xml version="1.0" encoding="UTF-8" standalone="no"?> <svg version="1.1" id="Id02f4d858dd24e41a52531dca7cca92c20251110135155" width="100" height="100" viewBox="0 0 100 100" xmlns="http://www.w3.org/2000/svg" xmlns:svg="http://www.w3.org/2000/svg"> <defs id="Iddf657f42fad426f98e200776129c07e20251110135155" /> <g id="I7c71a67d97bc45d8b880b9a6bbb30f9c20251110135155"> <path id="I0d2a3bb2df1f4e1f979185741f90c09820251110135155" d="m 10.312,18.75 c -1.554,0 -2.812,1.258 -2.812,2.812 0,1.555 1.258,2.813 2.812,2.813 h 54.376 c 1.554,0 2.812,-1.258 2.812,-2.813 0,-1.554 -1.258,-2.812 -2.812,-2.812 z m 0,11.25 C 8.758,30 7.5,31.258 7.5,32.812 c 0,1.555 1.258,2.813 2.812,2.813 H 45.77 c 2.621,-1.203 5.535,-1.875 8.605,-1.875 3.07,0 5.984,0.672 8.605,1.875 h 1.708 c 1.554,0 2.812,-1.258 2.812,-2.813 C 67.5,31.258 66.242,30 64.688,30 Z m 0,11.25 h 28.153 c -1.383,1.672 -2.508,3.57 -3.309,5.625 H 10.312 C 8.758,46.875 7.5,45.617 7.5,44.062 7.5,42.508 8.758,41.25 10.312,41.25 Z m 0,11.25 h 23.524 c -0.059,0.617 -0.086,1.242 -0.086,1.875 0,1.281 0.117,2.535 0.34,3.75 H 10.312 C 8.758,58.125 7.5,56.867 7.5,55.312 7.5,53.758 8.758,52.5 10.312,52.5 Z m 60.938,1.875 c 0,9.32 -7.555,16.875 -16.875,16.875 -9.32,0 -16.875,-7.555 -16.875,-16.875 0,-9.32 7.555,-16.875 16.875,-16.875 9.32,0 16.875,7.555 16.875,16.875 z M 54.375,45 C 53.34,45 52.5,45.84 52.5,46.875 v 7.5 c 0,1.035 0.84,1.875 1.875,1.875 1.035,0 1.875,-0.84 1.875,-1.875 v -7.5 C 56.25,45.84 55.41,45 54.375,45 Z m 0,19.219 c 1.293,0 2.344,-1.051 2.344,-2.344 0,-1.293 -1.051,-2.344 -2.344,-2.344 -1.293,0 -2.344,1.051 -2.344,2.344 0,1.293 1.051,2.344 2.344,2.344 z" style="fill:currentColor;fill-opacity:1;fill-rule:nonzero;stroke:none" transform="scale(1.3333333)" /> </g>
</svg>

