<?xml version="1.0" encoding="UTF-8" standalone="no"?> <svg version="1.1" id="Ia3ffbb6b523b43ad93cbabe261229b8220251110133655" width="100" height="100" viewBox="0 0 100 100" xmlns="http://www.w3.org/2000/svg" xmlns:svg="http://www.w3.org/2000/svg"> <defs id="Ib9cdf59ce1d64b49a6f98f8bcb8b8e2620251110133655" /> <g id="I98d34775b87645938a1a23916365f03220251110133655"> <path id="I163f85ad9c3d41b299f90277447e613d20251110133655" d="m 22.5,37.5 c 0,-2.07 1.68,-3.75 3.75,-3.75 2.07,0 3.75,1.68 3.75,3.75 0,2.07 -1.68,3.75 -3.75,3.75 -2.07,0 -3.75,-1.68 -3.75,-3.75 z M 48.75,30 c 2.785,0 5.215,1.516 6.508,3.77 4.64,0.195 8.887,1.925 12.242,4.695 V 22.5 C 67.5,18.359 64.141,15 60,15 H 15 c -4.141,0 -7.5,3.359 -7.5,7.5 v 30 c 0,4.141 3.359,7.5 7.5,7.5 H 34.527 C 34.02,58.211 33.75,56.324 33.75,54.375 c 0,-6.43 2.941,-12.176 7.555,-15.957 C 41.27,38.117 41.25,37.812 41.25,37.5 c 0,-1.367 0.367,-2.648 1.004,-3.75 h -9.508 c 0.641,1.102 1.004,2.383 1.004,3.75 0,4.141 -3.359,7.5 -7.5,7.5 -4.141,0 -7.5,-3.359 -7.5,-7.5 0,-4.141 3.359,-7.5 7.5,-7.5 z m 5.625,41.25 c 9.32,0 16.875,-7.555 16.875,-16.875 0,-9.32 -7.555,-16.875 -16.875,-16.875 -9.32,0 -16.875,7.555 -16.875,16.875 0,9.32 7.555,16.875 16.875,16.875 z m -3.363,-23.988 -3.36,3.363 h 5.786 c 5.695,0 10.312,4.617 10.312,10.313 v 0.937 c 0,1.035 -0.84,1.875 -1.875,1.875 C 60.84,63.75 60,62.91 60,61.875 v -0.937 c 0,-3.626 -2.938,-6.563 -6.562,-6.563 h -5.786 l 3.36,3.363 c 0.734,0.731 0.734,1.918 0,2.649 -0.731,0.734 -1.918,0.734 -2.649,0 l -6.57,-6.571 C 41.617,53.641 41.484,53.438 41.391,53.219 41.301,52.996 41.25,52.754 41.25,52.5 c 0,-0.254 0.051,-0.496 0.141,-0.719 0.093,-0.219 0.23,-0.426 0.41,-0.605 l 6.562,-6.563 c 0.731,-0.734 1.918,-0.734 2.649,0 0.734,0.731 0.734,1.918 0,2.649 z" style="fill:currentColor;fill-opacity:1;fill-rule:nonzero;stroke:none" transform="scale(1.3333333)" /> </g>
</svg>

