<?xml version="1.0" encoding="UTF-8" standalone="no"?> <svg version="1.1" id="If223de94805c4b7989bfe12e35106f2f20251110135155" width="100" height="100" viewBox="0 0 100 100" xmlns="http://www.w3.org/2000/svg" xmlns:svg="http://www.w3.org/2000/svg"> <defs id="I100ffcd850bd472eb6059185e9358c7620251110135155" /> <g id="I00fb4b4e161f4666a20c2a8f8b33c33420251110135155"> <path id="I403c20aa7acf42c4bc073452cc982e9f20251110135155" d="m 67.633,58.93 c 1.109,0 2.012,0.898 2.012,2.008 0,1.109 -0.903,2.007 -2.012,2.007 H 20.758 c -1.11,0 -2.008,-0.898 -2.008,-2.007 0,-1.11 0.898,-2.008 2.008,-2.008 z M 22.77,18.75 c 9.613,0 17.41,7.797 17.41,17.41 0,9.617 -7.797,17.41 -17.41,17.41 -9.618,0 -17.415,-7.793 -17.415,-17.41 0,-9.613 7.797,-17.41 17.415,-17.41 z m 0,5.355 c -0.743,0 -1.34,0.602 -1.34,1.34 v 9.375 h -9.375 c -0.743,0 -1.34,0.602 -1.34,1.34 0,0.738 0.597,1.34 1.34,1.34 h 9.375 v 9.375 c 0,0.738 0.597,1.34 1.34,1.34 0.738,0 1.335,-0.602 1.335,-1.34 V 37.5 h 9.375 c 0.743,0 1.34,-0.602 1.34,-1.34 0,-0.738 -0.597,-1.34 -1.34,-1.34 h -9.375 v -9.375 c 0,-0.738 -0.597,-1.34 -1.335,-1.34 z M 67.633,41.52 c 1.109,0 2.012,0.898 2.012,2.007 0,1.11 -0.903,2.008 -2.012,2.008 h -20.09 c -1.109,0 -2.008,-0.898 -2.008,-2.008 0,-1.109 0.899,-2.007 2.008,-2.007 z m 0,-17.415 c 1.109,0 2.012,0.903 2.012,2.012 0,1.11 -0.903,2.008 -2.012,2.008 h -20.09 c -1.109,0 -2.008,-0.898 -2.008,-2.008 0,-1.109 0.899,-2.012 2.008,-2.012 z m 0,-16.07 c 1.109,0 2.012,0.899 2.012,2.008 0,1.109 -0.903,2.012 -2.012,2.012 H 20.758 c -1.11,0 -2.008,-0.903 -2.008,-2.012 0,-1.109 0.898,-2.008 2.008,-2.008 z" style="fill:currentColor;fill-opacity:1;fill-rule:nonzero;stroke:none" transform="scale(1.3333333)" /> </g>
</svg>

