<?xml version="1.0" encoding="UTF-8" standalone="no"?> <svg version="1.1" id="If96d9e5ea0584529b7920f2d9bc1449720251106103256" width="100" height="100" viewBox="0 0 100 100" xmlns="http://www.w3.org/2000/svg" xmlns:svg="http://www.w3.org/2000/svg"> <defs id="I23cb11e0e52c45f9b89e29d067b8c9b620251106103256" /> <g id="Ib5e52338b34c4c29acf67f32c6f79f6220251106103256"> <path id="If09d9bec67b74acc9349076363a088f620251106103256" d="M 69.418,19.195 55.805,5.582 C 55.18,4.957 54.41,4.496 53.57,4.242 V 4.02 H 6.695 C 5.215,4.02 4.02,5.215 4.02,6.695 v 61.61 c 0,1.48 1.195,2.675 2.675,2.675 h 61.61 c 1.48,0 2.675,-1.195 2.675,-2.675 V 22.977 c 0,-1.422 -0.558,-2.778 -1.562,-3.782 z M 26.785,10.043 h 21.43 V 18.75 H 26.785 Z M 64.957,64.957 H 10.043 V 10.043 H 21.43 V 21.43 c 0,1.48 1.195,2.675 2.675,2.675 h 26.79 c 1.48,0 2.675,-1.195 2.675,-2.675 V 11.871 L 64.957,23.254 Z M 37.5,31.641 c -6.656,0 -12.055,5.398 -12.055,12.054 0,6.653 5.399,12.051 12.055,12.051 6.656,0 12.055,-5.398 12.055,-12.051 0,-6.656 -5.399,-12.054 -12.055,-12.054 z m 0,18.75 c -3.699,0 -6.695,-2.996 -6.695,-6.696 0,-3.699 2.996,-6.699 6.695,-6.699 3.699,0 6.695,3 6.695,6.699 0,3.7 -2.996,6.696 -6.695,6.696 z" style="fill:currentColor;fill-opacity:1;fill-rule:nonzero;stroke:none" transform="scale(1.3333333)" /> </g>
</svg>

