<?xml version="1.0" encoding="UTF-8" standalone="no"?> <svg version="1.1" id="Ifd0982417cf84494845375719f91193a20251106143239" width="100" height="100" viewBox="0 0 100 100" xmlns="http://www.w3.org/2000/svg" xmlns:svg="http://www.w3.org/2000/svg"> <defs id="Ie108c40f3001473aa3f3971e07bf390a20251106143239" /> <g id="I10ecc7da5c2e4f93ab7298f1163b6e9e20251106143239"> <path id="I269331777b524c2c9dfdf5843b5c043920251106143239" d="m 46.207,5.355 c -1.113,0 -2.012,0.903 -2.012,2.012 v 28.125 c 0,1.11 0.899,2.008 2.012,2.008 1.109,0 2.008,-0.898 2.008,-2.008 v -8.707 h 8.035 c 5.918,0 10.715,-4.797 10.715,-10.715 0,-5.918 -4.797,-10.715 -10.715,-10.715 z M 56.25,22.77 H 48.215 V 9.375 h 8.035 c 3.699,0 6.695,3 6.695,6.695 0,3.7 -2.996,6.7 -6.695,6.7 z M 10.957,7.723 c 3,-1.926 6.84,-2.668 10.629,-2.149 l 0.66,0.09 c 2.41,0.328 4.504,1.828 5.594,4.004 l 3.457,6.914 c 1.961,3.926 0.695,8.703 -2.957,11.137 l -4.574,3.051 c -1.067,0.707 -1.364,1.691 -1.129,2.406 1.422,4.324 5.199,10.187 8.492,13.543 0.617,0.633 1.73,0.816 2.879,0.183 L 37.5,44.984 c 4.875,-2.679 10.996,-0.89 13.66,3.993 l 2.793,5.117 c 1.188,2.176 1.199,4.801 0.035,6.988 C 50.105,68.383 41.246,72.434 33.73,67.516 27.32,63.32 19.438,56.367 12.992,45.199 6.449,33.871 5.141,24.051 5.543,16.941 5.777,12.84 7.918,9.676 10.957,7.723 Z" style="fill:currentColor;fill-opacity:1;fill-rule:nonzero;stroke:none" transform="scale(1.3333333)" /> </g>
</svg>

