<?xml version="1.0" encoding="UTF-8" standalone="no"?> <svg version="1.1" id="I564c2f67eceb4866b4ab3ae4002f813720251106154011" width="100" height="100" viewBox="0 0 100 100" xmlns="http://www.w3.org/2000/svg" xmlns:svg="http://www.w3.org/2000/svg"> <defs id="I4c3b65b4bae74877b5f4aae0c157f85320251106154011" /> <g id="If4853ba06e164a27b1d75353190f59c120251106154011"> <path id="I3934bcbad1894176816f700e4707943b20251106154011" d="m 33.57,13.254 c 2.492,-1.149 5.368,-1.149 7.86,0 l 17.48,8.07 c 0.664,0.305 1.09,0.973 1.09,1.703 v 6.977 h 3.75 v -6.977 c 0,-2.195 -1.277,-4.187 -3.27,-5.109 L 43,9.852 c -3.488,-1.614 -7.512,-1.614 -11,0 l -17.48,8.066 c -1.993,0.922 -3.27,2.914 -3.27,5.109 v 6.977 H 15 v -6.977 c 0,-0.73 0.426,-1.398 1.09,-1.703 z m -20.824,28 c 0.684,0.558 1.434,1.109 2.254,1.637 0.191,0.125 0.387,0.25 0.586,0.371 5.43,3.316 13.168,5.492 21.91,5.492 8.746,0 16.484,-2.176 21.91,-5.492 0.203,-0.125 0.399,-0.246 0.594,-0.371 0.82,-0.532 1.566,-1.079 2.25,-1.637 0.543,-0.449 1.043,-0.906 1.5,-1.371 0.766,-0.778 1.414,-1.574 1.941,-2.379 H 60 c -1.035,-0.004 -1.875,-0.84 -1.875,-1.875 0,-1.039 0.84,-1.875 1.875,-1.875 h 9.375 c 0.496,0 0.977,0.195 1.328,0.547 0.352,0.351 0.547,0.828 0.547,1.328 v 9.375 c 0,1.035 -0.84,1.875 -1.875,1.875 -1.035,0 -1.875,-0.84 -1.875,-1.875 v -3.672 c -1.055,1.25 -2.316,2.422 -3.75,3.508 C 63,45.406 62.203,45.945 61.363,46.461 60.918,46.73 60.465,46.996 60,47.25 54.027,50.516 46.141,52.504 37.496,52.504 28.855,52.504 20.969,50.516 15,47.254 14.531,46.996 14.074,46.734 13.633,46.461 12.793,45.949 11.996,45.41 11.25,44.844 9.816,43.762 8.555,42.586 7.5,41.34 v 3.664 c 0,1.035 -0.84,1.875 -1.875,1.875 -1.035,0 -1.875,-0.84 -1.875,-1.875 v -9.375 c 0,-0.5 0.199,-0.977 0.551,-1.328 0.351,-0.352 0.828,-0.547 1.324,-0.547 H 15 c 1.035,0 1.875,0.836 1.875,1.875 0,1.035 -0.84,1.875 -1.875,1.875 H 9.301 c 0.531,0.808 1.179,1.609 1.949,2.387 0.457,0.461 0.953,0.918 1.496,1.363 z M 15,51.469 v 0.508 c 0,0.734 0.426,1.398 1.09,1.703 l 17.48,8.07 c 2.492,1.148 5.368,1.148 7.86,0 L 58.91,53.68 C 59.574,53.375 60,52.711 60,51.977 v -0.512 c 1.316,-0.633 2.57,-1.324 3.75,-2.07 v 2.582 c 0,2.195 -1.277,4.187 -3.27,5.109 L 43,65.152 c -3.488,1.614 -7.512,1.614 -11,0 L 14.52,57.086 c -1.993,-0.922 -3.27,-2.914 -3.27,-5.109 v -2.579 c 1.18,0.747 2.434,1.438 3.75,2.071 z m 7.652,-25.953 c 0.407,-0.954 1.508,-1.395 2.461,-0.989 L 37.5,29.836 49.887,24.527 c 0.949,-0.406 2.054,0.035 2.461,0.989 0.406,0.949 -0.032,2.05 -0.985,2.461 l -11.988,5.136 v 8.141 c 0,1.035 -0.84,1.875 -1.875,1.875 -1.035,0 -1.875,-0.84 -1.875,-1.875 V 33.113 L 23.637,27.977 c -0.953,-0.411 -1.395,-1.512 -0.985,-2.461 z" style="fill:currentColor;fill-opacity:1;fill-rule:nonzero;stroke:none" transform="scale(1.3333333)" /> </g>
</svg>

