<?xml version="1.0" encoding="UTF-8" standalone="no"?> <svg version="1.1" id="I8a73144b0902419a94fee3ee9c65f35e20251106170412" width="100" height="100" viewBox="0 0 100 100" xmlns="http://www.w3.org/2000/svg" xmlns:svg="http://www.w3.org/2000/svg"> <defs id="I88522c6119fd47ecb8dc2dcb09d8748b20251106170412" /> <g id="I691b93c538dc43b4a25e564a5e5cc35120251106170412"> <path id="I8a2f1b902ef245cca1e652ec77adcad820251106170412" d="m 8.594,15.625 c -1.293,0 -2.344,1.051 -2.344,2.344 0,1.293 1.051,2.343 2.344,2.343 h 10.937 c 1.293,0 2.344,-1.05 2.344,-2.343 0,-1.293 -1.051,-2.344 -2.344,-2.344 z m 23.437,0 c -1.293,0 -2.343,1.051 -2.343,2.344 0,1.293 1.05,2.343 2.343,2.343 h 10.938 c 1.293,0 2.343,-1.05 2.343,-2.343 0,-1.293 -1.05,-2.344 -2.343,-2.344 z m 23.438,0 c -1.293,0 -2.344,1.051 -2.344,2.344 0,1.293 1.051,2.343 2.344,2.343 h 10.937 c 1.293,0 2.344,-1.05 2.344,-2.343 0,-1.293 -1.051,-2.344 -2.344,-2.344 z m 10.945,20.32 H 8.602 l -0.317,0.024 c -1.144,0.156 -2.027,1.136 -2.027,2.32 0,1.297 1.051,2.344 2.344,2.344 h 57.812 l 0.316,-0.02 c 1.145,-0.156 2.028,-1.136 2.028,-2.324 0,-1.293 -1.051,-2.344 -2.344,-2.344 z m -56.258,17.18 c -2.156,0 -3.906,1.75 -3.906,3.906 0,2.157 1.75,3.907 3.906,3.907 h 54.688 c 2.156,0 3.906,-1.75 3.906,-3.907 0,-2.156 -1.75,-3.906 -3.906,-3.906 z" style="fill:currentColor;fill-opacity:1;fill-rule:nonzero;stroke:none" transform="scale(1.3333333)" /> </g>
</svg>

