<?xml version="1.0" encoding="UTF-8" standalone="no"?> <svg version="1.1" id="Ib850f746f99149c1be4066a2e50f544d20251106170956" width="100" height="100" viewBox="0 0 100 100" xmlns="http://www.w3.org/2000/svg" xmlns:svg="http://www.w3.org/2000/svg"> <defs id="I86539821b98043e39a8ad55dd90105ee20251106170956" /> <g id="I8ed506c74b094bc69869a948f43e341820251106170956"> <path id="Ibcec47d32a594df991b73c6c076b5ba420251106170956" d="M 37.5,20.625 C 37.5,29.945 29.945,37.5 20.625,37.5 11.305,37.5 3.75,29.945 3.75,20.625 3.75,11.305 11.305,3.75 20.625,3.75 c 9.32,0 16.875,7.555 16.875,16.875 z m -18.203,8.824 0.012,0.008 c 0.175,0.176 0.379,0.309 0.597,0.402 0.219,0.09 0.457,0.141 0.707,0.141 h 0.024 c 0.25,0 0.488,-0.051 0.707,-0.141 0.218,-0.093 0.426,-0.23 0.605,-0.41 l 7.5,-7.5 c 0.735,-0.73 0.735,-1.918 0,-2.648 -0.73,-0.735 -1.918,-0.735 -2.648,0 L 22.5,23.598 V 13.125 c 0,-1.035 -0.84,-1.875 -1.875,-1.875 -1.035,0 -1.875,0.84 -1.875,1.875 v 10.473 l -4.301,-4.297 c -0.73,-0.735 -1.918,-0.735 -2.648,0 -0.735,0.73 -0.735,1.918 0,2.648 z m 29.453,0.715 c -2.035,-2.238 -4.844,-3.637 -8.289,-3.875 -0.367,1.293 -0.859,2.539 -1.465,3.719 C 39.121,30.004 39.25,30 39.375,30 c 5.91,0 9.375,4.391 9.375,11.25 0,6.738 -3.621,11.25 -9.375,11.25 C 33.621,52.5 30,47.988 30,41.25 c 0,-0.809 0.047,-1.586 0.145,-2.324 -1.227,0.64 -2.528,1.16 -3.883,1.543 -0.008,0.258 -0.012,0.519 -0.012,0.781 0,8.652 5.098,15 13.125,15 4.809,0 8.563,-2.277 10.797,-5.961 1.801,4.906 5.23,7.836 9.828,7.836 6.969,0 11.25,-6.727 11.25,-16.875 0,-16.57 -13.43,-30 -30,-30 -0.742,0 -1.48,0.027 -2.207,0.078 0.59,1.168 1.07,2.402 1.434,3.684 C 40.734,15.004 40.992,15 41.25,15 55.746,15 67.5,26.754 67.5,41.25 c 0,8.336 -3.047,13.125 -7.5,13.125 -4.453,0 -7.5,-4.789 -7.5,-13.125 V 28.125 l -0.031,-0.336 c -0.157,-0.875 -0.922,-1.539 -1.844,-1.539 -1.035,0 -1.875,0.84 -1.875,1.875 z m -37.422,8.879 c 1.168,0.59 2.402,1.07 3.684,1.434 C 15.004,40.734 15,40.992 15,41.25 15,55.746 26.754,67.5 41.25,67.5 c 3.086,0 6.098,-0.531 8.938,-1.559 0.972,-0.355 2.046,0.149 2.402,1.125 0.351,0.973 -0.152,2.047 -1.125,2.399 -3.25,1.176 -6.692,1.785 -10.215,1.785 -16.57,0 -30,-13.43 -30,-30 0,-0.742 0.027,-1.48 0.078,-2.207 z" style="fill:currentColor;fill-opacity:1;fill-rule:nonzero;stroke:none" transform="scale(1.3333333)" /> </g>
</svg>

