<?xml version="1.0" encoding="UTF-8" standalone="no"?> <svg version="1.1" id="Ic00de822ea47401eb8d103618cc224d820251106102215" width="100" height="100" viewBox="0 0 100 100" xmlns="http://www.w3.org/2000/svg" xmlns:svg="http://www.w3.org/2000/svg"> <defs id="I713d731d52ce48ae94b07cecef5f7ef620251106102215" /> <g id="I36b5fc8336504c9498ebbfa1dd86ae5620251106102215"> <path id="I5c9bed9d9dba44e48601fafc21ebbd6b20251106102215" d="M 66.176,18.809 48.164,0.785 C 47.66,0.285 46.977,0 46.266,0 H 10.715 C 9.234,0 8.035,1.195 8.035,2.68 v 69.64 c 0,1.485 1.199,2.68 2.68,2.68 h 53.57 c 1.481,0 2.68,-1.195 2.68,-2.68 V 20.699 c 0,-0.711 -0.285,-1.387 -0.789,-1.89 z M 60.785,21.93 H 45.035 V 6.176 Z m 0.153,47.043 H 14.062 V 6.027 H 39.34 v 18.078 c 0,1.942 1.574,3.516 3.515,3.516 H 60.938 Z M 28.293,40.598 c 0,0.453 0.367,0.793 0.82,0.793 h 2.711 c 0.453,0 0.821,-0.352 0.821,-0.786 0,-2.359 2.16,-4.32 4.855,-4.32 2.695,0 4.855,1.961 4.855,4.313 0,2.117 -1.757,3.949 -4.128,4.261 -1.614,0.235 -2.887,1.7 -2.903,3.356 v 2.68 c 0,0.457 0.375,0.835 0.836,0.835 h 2.68 c 0.461,0 0.836,-0.378 0.836,-0.835 v -1.024 c 0,-0.5 0.336,-0.961 0.812,-1.113 3.735,-1.203 6.278,-4.52 6.219,-8.278 -0.066,-4.644 -4.117,-8.437 -9.082,-8.503 -5.141,-0.059 -9.332,3.816 -9.332,8.621 z m 6.527,16.32 c 0,3.574 5.36,3.574 5.36,0 0,-3.57 -5.36,-3.57 -5.36,0 z" style="fill:currentColor;fill-opacity:1;fill-rule:nonzero;stroke:none" transform="scale(1.3333333)" /> </g>
</svg>

