<?xml version="1.0" encoding="UTF-8" standalone="no"?> <svg version="1.1" id="I16b0a5ad2b904aa49b222ea0fa2caed920251106123600" width="100" height="100" viewBox="0 0 100 100" xmlns="http://www.w3.org/2000/svg" xmlns:svg="http://www.w3.org/2000/svg"> <defs id="Id4f89fea9974486ca924455b7500674320251106123600" /> <g id="I64ba56bac45a4ebea59c7e96bb9fa5c420251106123600"> <path id="I7f0b504b61f64056885fb3614656615a20251106123600" d="m 52.992,31.898 7.813,-7.812 c 1.218,-1.223 1.218,-3.199 0,-4.422 -1.223,-1.219 -3.2,-1.219 -4.422,0 l -2.477,2.481 V 12.5 c 0,-1.727 -1.398,-3.125 -3.125,-3.125 -1.726,0 -3.125,1.398 -3.125,3.125 v 9.645 L 45.18,19.664 c -1.223,-1.219 -3.2,-1.219 -4.422,0 -1.219,1.223 -1.219,3.199 0,4.422 l 7.812,7.812 c 1.223,1.219 3.2,1.219 4.422,0 z M 12.5,20.312 c 0,-4.316 3.496,-7.812 7.812,-7.812 h 12.5 c 1.727,0 3.126,1.398 3.126,3.125 0,1.727 -1.399,3.125 -3.126,3.125 h -12.5 c -0.863,0 -1.562,0.699 -1.562,1.562 v 34.376 c 0,0.863 0.699,1.562 1.562,1.562 h 12.5 c 1.727,0 3.126,1.398 3.126,3.125 0,1.727 -1.399,3.125 -3.126,3.125 h -12.5 C 15.996,62.5 12.5,59.004 12.5,54.688 Z m 48.305,30.602 -7.813,-7.812 c -1.222,-1.219 -3.199,-1.219 -4.422,0 l -7.812,7.812 c -1.219,1.223 -1.219,3.199 0,4.422 1.222,1.219 3.199,1.219 4.422,0 l 2.476,-2.481 V 62.5 c 0,1.727 1.399,3.125 3.125,3.125 1.727,0 3.125,-1.398 3.125,-3.125 v -9.645 l 2.477,2.481 c 1.222,1.219 3.199,1.219 4.422,0 1.218,-1.223 1.218,-3.199 0,-4.422 z" style="fill:currentColor;fill-opacity:1;fill-rule:nonzero;stroke:none" transform="scale(1.3333333)" /> </g>
</svg>

