<?xml version="1.0" encoding="UTF-8" standalone="no"?> <svg version="1.1" id="I8578b3b5425c41ae82412bf6a5f82a1520251110130507" width="100" height="100" viewBox="0 0 100 100" xmlns="http://www.w3.org/2000/svg" xmlns:svg="http://www.w3.org/2000/svg"> <defs id="Ibc21434720ca468f99c131e1f1a38a9020251110130507" /> <g id="I0e7d0d00454b4057ad8219c621c4e95e20251110130507"> <path id="Id91d8a1ab491487984fe473f6473410820251110130507" d="m 37.5,6.25 c 17.258,0 31.25,13.992 31.25,31.25 0,17.258 -13.992,31.25 -31.25,31.25 -7.254,0 -13.922,-2.477 -19.227,-6.621 C 18.129,62.035 17.996,61.934 17.875,61.812 10.785,56.086 6.25,47.324 6.25,37.5 6.25,20.242 20.242,6.25 37.5,6.25 Z m 0,4.688 c -14.672,0 -26.562,11.89 -26.562,26.562 0,8.152 3.675,15.441 9.453,20.312 h 3.828 c 1.293,0 2.343,1.051 2.343,2.344 0,0.504 -0.164,0.969 -0.437,1.352 3.449,1.637 7.305,2.554 11.375,2.554 14.672,0 26.562,-11.89 26.562,-26.562 0,-4.52 -1.132,-8.773 -3.124,-12.5 h -3.907 c -1.293,0 -2.343,-1.051 -2.343,-2.344 0,-1.293 1.05,-2.344 2.343,-2.344 h 0.715 C 52.875,14.578 45.613,10.938 37.5,10.938 Z M 19.531,43.75 c 1.293,0 2.344,1.051 2.344,2.344 v 4.687 c 0,1.293 -1.051,2.344 -2.344,2.344 -1.293,0 -2.343,-1.051 -2.343,-2.344 v -4.687 c 0,-1.293 1.05,-2.344 2.343,-2.344 z m 14.063,4.688 c 1.293,0 2.344,1.05 2.344,2.343 0,1.293 -1.051,2.344 -2.344,2.344 h -4.688 c -1.293,0 -2.344,-1.051 -2.344,-2.344 0,-1.293 1.051,-2.343 2.344,-2.343 z M 28.906,34.375 c 1.293,0 2.344,1.051 2.344,2.344 v 4.687 c 0,1.293 -1.051,2.344 -2.344,2.344 -1.293,0 -2.344,-1.051 -2.344,-2.344 v -4.687 c 0,-1.293 1.051,-2.344 2.344,-2.344 z m 14.063,4.687 c 1.293,0 2.343,1.051 2.343,2.344 0,1.293 -1.05,2.344 -2.343,2.344 h -4.688 c -1.293,0 -2.343,-1.051 -2.343,-2.344 0,-1.293 1.05,-2.344 2.343,-2.344 z M 38.281,25 c 1.293,0 2.344,1.051 2.344,2.344 v 4.687 c 0,1.293 -1.051,2.344 -2.344,2.344 -1.293,0 -2.343,-1.051 -2.343,-2.344 v -4.687 c 0,-1.293 1.05,-2.344 2.343,-2.344 z m 14.063,4.688 c 1.293,0 2.344,1.05 2.344,2.343 0,1.293 -1.051,2.344 -2.344,2.344 h -4.688 c -1.293,0 -2.344,-1.051 -2.344,-2.344 0,-1.293 1.051,-2.343 2.344,-2.343 z M 47.656,15.625 c 1.293,0 2.344,1.051 2.344,2.344 v 4.687 C 50,23.949 48.949,25 47.656,25 46.363,25 45.312,23.949 45.312,22.656 v -4.687 c 0,-1.293 1.051,-2.344 2.344,-2.344 z" style="fill:currentColor;fill-opacity:1;fill-rule:nonzero;stroke:none" transform="scale(1.3333333)" /> </g>
</svg>

