<?xml version="1.0" encoding="UTF-8" standalone="no"?> <svg version="1.1" id="I3c86f4fa99d3456db69cbab94e63941720251106125938" width="100" height="100" viewBox="0 0 100 100" xmlns="http://www.w3.org/2000/svg" xmlns:svg="http://www.w3.org/2000/svg"> <defs id="Ifc667cb9951e4d79b57561ad66debdd120251106125938" /> <g id="Ifcf2781bfd2b49bea9453117f5a81e5a20251106125938"> <path id="Ifd85cc8ed50e4c6b8cabafd46beee51f20251106125938" d="m 37.5,9.375 c 1.727,0 3.125,1.398 3.125,3.125 v 15.625 h 7.031 c 4.746,0 8.594,3.848 8.594,8.594 v 18.238 l 4.039,-4.043 c 1.223,-1.219 3.199,-1.219 4.422,0 1.219,1.223 1.219,3.199 0,4.422 l -9.375,9.375 c -1.223,1.219 -3.199,1.219 -4.422,0 l -9.375,-9.375 c -1.219,-1.223 -1.219,-3.199 0,-4.422 1.223,-1.219 3.199,-1.219 4.422,0 L 50,54.957 V 36.719 c 0,-1.293 -1.051,-2.344 -2.344,-2.344 H 27.344 C 26.051,34.375 25,35.426 25,36.719 v 18.238 l 4.039,-4.043 c 1.223,-1.219 3.199,-1.219 4.422,0 1.219,1.223 1.219,3.199 0,4.422 l -9.375,9.375 c -1.223,1.219 -3.199,1.219 -4.422,0 l -9.375,-9.375 c -1.219,-1.223 -1.219,-3.199 0,-4.422 1.223,-1.219 3.199,-1.219 4.422,0 l 4.039,4.043 V 36.719 c 0,-4.746 3.848,-8.594 8.594,-8.594 h 7.031 V 12.5 c 0,-1.727 1.398,-3.125 3.125,-3.125 z" style="fill:currentColor;fill-opacity:1;fill-rule:nonzero;stroke:none" transform="scale(1.3333333)" /> </g>
</svg>

