<?xml version="1.0" encoding="UTF-8" standalone="no"?> <svg version="1.1" id="I1c27b3a8a8b5448abdf6a312439559cf20251106171633" width="100" height="100" viewBox="0 0 100 100" xmlns="http://www.w3.org/2000/svg" xmlns:svg="http://www.w3.org/2000/svg"> <defs id="I45c2eb019476437cb5abded487ef984c20251106171633" /> <g id="I54d94a685f414d92bda313029ec3181720251106171633"> <path id="Idf96a65ac2ad4181bc904e2b57fffdee20251106171633" d="m 5.363,16.07 c 0,-1.476 1.199,-2.675 2.68,-2.675 h 58.93 c 1.48,0 2.679,1.199 2.679,2.675 0,1.481 -1.199,2.68 -2.679,2.68 H 8.043 c -1.481,0 -2.68,-1.199 -2.68,-2.68 z M 5.355,58.93 c 0,-1.481 1.2,-2.68 2.68,-2.68 h 58.93 c 1.48,0 2.68,1.199 2.68,2.68 0,1.476 -1.2,2.675 -2.68,2.675 H 8.035 c -1.48,0 -2.68,-1.199 -2.68,-2.675 z m 2.68,-24.11 c -1.48,0 -2.68,1.2 -2.68,2.68 0,1.48 1.2,2.68 2.68,2.68 h 58.93 c 1.48,0 2.68,-1.2 2.68,-2.68 0,-1.48 -1.2,-2.68 -2.68,-2.68 z" style="fill:currentColor;fill-opacity:1;fill-rule:nonzero;stroke:none" transform="scale(1.3333333)" /> </g>
</svg>

