<?xml version="1.0" encoding="UTF-8" standalone="no"?> <svg version="1.1" id="I0108b0be5f4f48bab961a45b980c766920251106102216" width="100" height="100" viewBox="0 0 100 100" xmlns="http://www.w3.org/2000/svg" xmlns:svg="http://www.w3.org/2000/svg"> <defs id="Iff844bc171d548509d622d410406ba5020251106102216" /> <g id="Ie535d86967e24f068acfc8ea4f65c78c20251106102216"> <path id="I5465c44eb0374b2f8549f752da9473b320251106102216" d="m 39.516,17.496 h -4.024 c -0.371,0 -0.672,0.301 -0.672,0.668 v 23.043 c 0,0.219 0.102,0.418 0.278,0.547 l 13.836,10.101 c 0.3,0.219 0.718,0.161 0.937,-0.14 l 2.395,-3.266 c 0.226,-0.308 0.16,-0.73 -0.141,-0.937 L 40.188,38.883 V 18.164 c 0,-0.367 -0.301,-0.668 -0.672,-0.668 z m 18.398,6.293 13.125,3.207 c 0.422,0.098 0.832,-0.219 0.832,-0.644 l 0.067,-13.52 c 0,-0.562 -0.645,-0.879 -1.083,-0.527 L 57.664,22.609 c -0.441,0.344 -0.293,1.047 0.25,1.18 z m 14.039,25.203 -4.746,-1.633 c -0.344,-0.117 -0.719,0.063 -0.844,0.403 -0.16,0.426 -0.328,0.847 -0.504,1.265 -1.488,3.524 -3.625,6.696 -6.351,9.414 -2.699,2.707 -5.899,4.868 -9.418,6.356 -3.649,1.543 -7.567,2.332 -11.528,2.328 -4,0 -7.874,-0.781 -11.527,-2.328 C 23.516,63.309 20.32,61.148 17.621,58.441 14.898,55.723 12.766,52.551 11.266,49.027 9.734,45.379 8.949,41.457 8.957,37.5 c 0,-4 0.777,-7.887 2.328,-11.535 1.488,-3.524 3.621,-6.695 6.352,-9.418 2.699,-2.707 5.898,-4.863 9.418,-6.352 3.633,-1.547 7.515,-2.328 11.515,-2.328 4.004,0 7.879,0.781 11.528,2.328 3.519,1.489 6.718,3.645 9.418,6.352 0.851,0.863 1.656,1.758 2.394,2.707 l 5.004,-3.918 C 60.328,6.914 50.074,1.5 38.555,1.508 18.5,1.516 2.395,17.805 2.594,37.867 c 0.203,19.715 16.23,35.625 35.976,35.625 15.528,0 28.754,-9.844 33.793,-23.629 0.125,-0.351 -0.058,-0.746 -0.41,-0.871 z" style="fill:currentColor;fill-opacity:1;fill-rule:nonzero;stroke:none" transform="scale(1.3333333)" /> </g>
</svg>

