<?xml version="1.0" encoding="UTF-8" standalone="no"?> <svg version="1.1" id="I31c2fd23b6364ad882a0f32eddeb9f7720251110124421" width="100" height="100" viewBox="0 0 100 100" xmlns="http://www.w3.org/2000/svg" xmlns:svg="http://www.w3.org/2000/svg"> <defs id="Ib98c32b66f4d420caa7856e3bf2dc53020251110124421" /> <g id="I57d8dcd1c55845e38663597c6ec36e8520251110124421"> <path id="I6b7e33da3404427699dc3f384a31970120251110124421" d="m 46.879,37.5 h 2.336 c 0.625,0 1.219,-0.242 1.66,-0.684 0.437,-0.441 0.684,-1.035 0.684,-1.66 0,-0.625 -0.243,-1.218 -0.684,-1.66 -0.441,-0.434 -1.035,-0.684 -1.66,-0.684 h -2.336 v -7.031 c 0,-2.586 -0.875,-5.019 -2.41,-7.047 0.019,0 0.058,0.016 0.058,0.016 h 4.688 c 0.625,0 1.219,-0.242 1.66,-0.684 0.437,-0.441 0.684,-1.035 0.684,-1.66 0,-0.625 -0.243,-1.222 -0.684,-1.66 -0.441,-0.434 -1.035,-0.684 -1.66,-0.684 h -4.688 c -0.621,0 -1.218,0.243 -1.656,0.684 -0.437,0.442 -0.687,1.035 -0.687,1.66 0,0.012 0.004,0.024 0.007,0.032 0.004,0.011 0.008,0.023 0.008,0.035 -2.023,-1.539 -4.457,-2.411 -7.039,-2.411 h -2.351 v -2.343 c 0,-1.867 0.738,-3.657 2.058,-4.973 1.324,-1.316 3.11,-2.058 4.973,-2.058 h 14.062 c 1.868,0 3.657,0.742 4.977,2.058 1.312,1.313 2.047,3.09 2.055,4.945 v 28.153 c 0,3.875 -3.153,7.031 -7.032,7.031 h -7.023 z m 18.738,1.945 4.574,13.719 c 0.118,0.352 0.149,0.727 0.09,1.094 -0.054,0.371 -0.195,0.719 -0.418,1.015 H 69.84 c -0.215,0.301 -0.496,0.547 -0.82,0.715 -0.329,0.168 -0.688,0.262 -1.055,0.262 H 52.727 L 51.203,51.68 C 51.195,51.66 51.184,51.641 51.172,51.621 51.16,51.602 51.148,51.582 51.145,51.562 h 2.753 c 6.461,0 11.719,-5.257 11.719,-11.718 z m -18.742,14.063 4.574,13.719 v 0.007 c 0.117,0.352 0.145,0.727 0.09,1.09 -0.059,0.371 -0.199,0.719 -0.418,1.02 h -0.023 c -0.215,0.297 -0.496,0.543 -0.821,0.711 -0.328,0.168 -0.691,0.261 -1.054,0.261 H 7.035 c -0.371,0 -0.738,-0.089 -1.07,-0.257 C 5.633,69.891 5.348,69.641 5.133,69.344 4.91,69.043 4.77,68.691 4.715,68.324 4.656,67.953 4.691,67.578 4.809,67.227 l 4.566,-13.7 v 0.379 c 0,6.461 5.258,11.719 11.719,11.719 h 14.062 c 6.457,0 11.719,-5.258 11.719,-11.719 z m -11.719,7.43 H 21.094 c -3.879,0 -7.032,-3.157 -7.032,-7.032 V 25.781 c 0,-1.867 0.735,-3.656 2.055,-4.972 1.324,-1.317 3.11,-2.059 4.977,-2.059 h 14.062 c 1.864,0 3.656,0.742 4.973,2.059 1.312,1.312 2.047,3.089 2.059,4.945 v 28.152 c 0,3.875 -3.157,7.032 -7.032,7.032 z M 25.785,28.125 c -0.625,0 -1.219,0.242 -1.66,0.684 -0.437,0.441 -0.684,1.035 -0.684,1.66 0,0.625 0.243,1.219 0.684,1.66 0.441,0.433 1.035,0.683 1.66,0.683 h 4.688 c 0.621,0 1.218,-0.242 1.66,-0.683 0.433,-0.441 0.683,-1.035 0.683,-1.66 0,-0.625 -0.246,-1.223 -0.683,-1.66 -0.442,-0.434 -1.039,-0.684 -1.66,-0.684 z m 0,18.75 c -0.625,0 -1.219,0.242 -1.66,0.684 -0.437,0.441 -0.684,1.035 -0.684,1.66 0,0.625 0.243,1.219 0.684,1.66 0.441,0.433 1.035,0.683 1.66,0.683 h 4.688 c 0.621,0 1.218,-0.242 1.66,-0.683 0.433,-0.441 0.683,-1.035 0.683,-1.66 0,-0.625 -0.246,-1.219 -0.683,-1.66 -0.442,-0.434 -1.039,-0.684 -1.66,-0.684 z" style="fill:currentColor;fill-opacity:1;fill-rule:nonzero;stroke:none" transform="scale(1.3333333)" /> </g>
</svg>

