<?xml version="1.0" encoding="UTF-8" standalone="no"?> <svg version="1.1" id="Iaf4313675c5b411dacbc4baadda064ef20251110133655" width="100" height="100" viewBox="0 0 100 100" xmlns="http://www.w3.org/2000/svg" xmlns:svg="http://www.w3.org/2000/svg"> <defs id="I415c099f94094cec80398b00880e5ae920251110133655" /> <g id="Idb4659876ecf4cd39cff8327de6f743420251110133655"> <path id="I19e0967340ac4dd99da44bde95df449c20251110133655" d="m 55.453,33.594 c 0.305,0.308 0.606,0.629 0.899,0.957 -1.946,-0.414 -4.028,-0.094 -5.758,0.965 -8.055,-6.582 -19.946,-6.118 -27.457,1.394 -1.555,1.555 -2.821,3.305 -3.793,5.231 -0.586,1.152 -1.996,1.617 -3.149,1.031 -1.156,-0.586 -1.617,-1.992 -1.035,-3.149 1.195,-2.367 2.754,-4.519 4.66,-6.429 9.84,-9.836 25.793,-9.836 35.633,0 z m -18.086,25.781 3.801,-7.609 c -0.109,-0.137 -0.23,-0.266 -0.356,-0.395 -1.832,-1.828 -4.796,-1.828 -6.628,0 -1.832,1.832 -1.832,4.801 0,6.633 0.882,0.879 2.027,1.336 3.183,1.371 z m 6.965,-13.945 2.117,-4.242 c -6.179,-4.126 -14.613,-3.458 -20.07,2 -1.395,1.394 -2.508,3.066 -3.313,4.902 -0.519,1.187 0.02,2.57 1.207,3.09 1.184,0.515 2.567,-0.024 3.086,-1.211 0.579,-1.317 1.364,-2.5 2.336,-3.469 3.993,-3.992 10.243,-4.348 14.637,-1.07 z M 63.898,25.871 c 1.59,1.59 3.094,3.406 4.403,5.301 0.734,1.066 0.465,2.527 -0.598,3.262 -1.066,0.734 -2.527,0.468 -3.262,-0.598 -1.148,-1.664 -2.472,-3.266 -3.855,-4.652 -12.75,-12.75 -33.426,-12.75 -46.176,0 -1.316,1.32 -2.625,2.918 -3.816,4.636 -0.739,1.067 -2.199,1.328 -3.262,0.59 -1.062,-0.734 -1.328,-2.195 -0.59,-3.262 1.344,-1.937 2.824,-3.75 4.356,-5.277 14.582,-14.582 38.218,-14.582 52.8,0 z M 50.492,40.094 38,65.09 c -1.559,3.117 0.711,6.785 4.195,6.785 H 67.18 c 3.484,0 5.754,-3.668 4.195,-6.785 L 58.883,40.094 c -1.727,-3.457 -6.664,-3.457 -8.391,0 z m 5.758,8.328 v 9.383 c 0,0.863 -0.699,1.562 -1.562,1.562 -0.864,0 -1.563,-0.699 -1.563,-1.562 v -9.383 c 0,-0.863 0.699,-1.563 1.563,-1.563 0.863,0 1.562,0.7 1.562,1.563 z m -1.562,17.199 c -0.864,0 -1.563,-0.699 -1.563,-1.562 0,-0.864 0.699,-1.563 1.563,-1.563 0.863,0 1.562,0.699 1.562,1.563 0,0.863 -0.699,1.562 -1.562,1.562 z" style="fill:currentColor;fill-opacity:1;fill-rule:nonzero;stroke:none" transform="scale(1.3333333)" /> </g>
</svg>

