<?xml version="1.0" encoding="UTF-8" standalone="no"?> <svg version="1.1" id="I44f2631256db4be1b05f7d8ef3e495fe20251106152728" width="100" height="100" viewBox="0 0 100 100" xmlns="http://www.w3.org/2000/svg" xmlns:svg="http://www.w3.org/2000/svg"> <defs id="Ie39770a06be3401f9a02a3bc6326da3b20251106152728" /> <g id="I25a6acf7f9be4b4ba27d45e1b11f1a4820251106152728"> <path id="I7ab2c679d8e3402e9c6a6fadab1eed9620251106152728" d="m 7.812,11.719 c 0,-1.293 1.051,-2.344 2.344,-2.344 h 1.563 c 4.746,0 8.593,3.848 8.593,8.594 v 39.062 c 0,4.746 -3.847,8.594 -8.593,8.594 h -1.563 c -1.293,0 -2.344,-1.051 -2.344,-2.344 0,-1.293 1.051,-2.343 2.344,-2.343 h 1.563 c 2.156,0 3.906,-1.75 3.906,-3.907 V 17.969 c 0,-2.157 -1.75,-3.907 -3.906,-3.907 h -1.563 c -1.293,0 -2.344,-1.05 -2.344,-2.343 z M 33.594,9.375 C 28.848,9.375 25,13.223 25,17.969 v 39.062 c 0,4.746 3.848,8.594 8.594,8.594 h 7.812 C 46.152,65.625 50,61.777 50,57.031 V 17.969 C 50,13.223 46.152,9.375 41.406,9.375 Z m 31.25,0 c 1.293,0 2.344,1.051 2.344,2.344 0,1.293 -1.051,2.343 -2.344,2.343 h -1.563 c -2.156,0 -3.906,1.75 -3.906,3.907 v 39.062 c 0,2.157 1.75,3.907 3.906,3.907 h 1.563 c 1.293,0 2.344,1.05 2.344,2.343 0,1.293 -1.051,2.344 -2.344,2.344 h -1.563 c -4.746,0 -8.593,-3.848 -8.593,-8.594 V 17.969 c 0,-4.746 3.847,-8.594 8.593,-8.594 z" style="fill:currentColor;fill-opacity:1;fill-rule:nonzero;stroke:none" transform="scale(1.3333333)" /> </g>
</svg>

