<?xml version="1.0" encoding="UTF-8" standalone="no"?> <svg version="1.1" id="I72031f247760431eb8d9af85b6b64c3720251110123031" width="100" height="100" viewBox="0 0 100 100" xmlns="http://www.w3.org/2000/svg" xmlns:svg="http://www.w3.org/2000/svg"> <defs id="I47ff11d7582d47ed93f1d0bedefda16920251110123031" /> <g id="Ifeb7d3cb138e47d88476bc1dac53938c20251110123031"> <path id="Id4b0a90c27314a2aa019d40304acaf0620251110123031" d="m 34.82,54.91 c 0,5.621 2.309,10.703 6.032,14.348 -1.922,0.254 -3.938,0.387 -6.032,0.387 -15.508,0 -26.785,-6.875 -26.785,-16.836 v -1.914 c 0,-4.442 3.598,-8.04 8.035,-8.04 h 22.77 c -2.524,3.36 -4.02,7.532 -4.02,12.055 z m 0,-49.555 c 8.879,0 16.075,7.196 16.075,16.075 0,8.875 -7.196,16.07 -16.075,16.07 -8.875,0 -16.07,-7.195 -16.07,-16.07 0,-8.879 7.195,-16.075 16.07,-16.075 z m 37.5,49.555 c 0,9.617 -7.793,17.41 -17.41,17.41 -9.617,0 -17.41,-7.793 -17.41,-17.41 0,-9.617 7.793,-17.41 17.41,-17.41 9.617,0 17.41,7.793 17.41,17.41 z M 56.824,44.305 c -0.601,-1.93 -3.222,-1.93 -3.824,0 l -1.922,6.156 h -6.207 c -1.945,0 -2.758,2.598 -1.18,3.793 l 5.02,3.801 -1.918,6.156 c -0.602,1.93 1.519,3.535 3.094,2.344 l 5.023,-3.805 5.024,3.805 c 1.574,1.191 3.695,-0.414 3.093,-2.344 l -1.918,-6.156 5.024,-3.801 c 1.574,-1.195 0.765,-3.793 -1.184,-3.793 h -6.207 z" style="fill:currentColor;fill-opacity:1;fill-rule:nonzero;stroke:none" transform="scale(1.3333333)" /> </g>
</svg>

