<?xml version="1.0" encoding="UTF-8" standalone="no"?> <svg version="1.1" id="I5217c6ee92a74379a215c7dcfcae70c120251106165302" width="100" height="100" viewBox="0 0 100 100" xmlns="http://www.w3.org/2000/svg" xmlns:svg="http://www.w3.org/2000/svg"> <defs id="I02807f4c126a42c5825b59c648dee4e920251106165302" /> <g id="I1c3215c3e287469893a9331e65a08d6020251106165302"> <path id="Ifaeecac87dcb497c861cdff51dd89c1020251106165302" d="m 37.5,6.258 c -6.688,0 -12.109,5.422 -12.109,12.109 0,9.121 3.773,20.473 5.664,25.621 1.007,2.742 3.625,4.45 6.453,4.45 2.824,0 5.433,-1.696 6.445,-4.434 1.891,-5.125 5.66,-16.418 5.66,-25.637 C 49.613,11.68 44.191,6.258 37.5,6.258 Z m 0.004,46.871 c -4.316,0 -7.816,3.5 -7.816,7.816 0,4.317 3.5,7.817 7.816,7.817 4.316,0 7.816,-3.5 7.816,-7.817 0,-4.316 -3.5,-7.816 -7.816,-7.816 z" style="fill:currentColor;fill-opacity:1;fill-rule:nonzero;stroke:none" transform="scale(1.3333333)" /> </g>
</svg>

