<?xml version="1.0" encoding="UTF-8" standalone="no"?> <svg version="1.1" id="Ie51e9f578a7549df8baaa136a626edf820251110133656" width="100" height="100" viewBox="0 0 100 100" xmlns="http://www.w3.org/2000/svg" xmlns:svg="http://www.w3.org/2000/svg"> <defs id="I6cfa4e1581b6457ea64af006614ca60b20251110133656" /> <g id="Ic6733293cdac41d09a424a107825542a20251110133656"> <path id="Ic6d52652dfb9468087b049b284240d3020251110133656" d="m 63.75,20.625 c 0,-5.176 -4.199,-9.375 -9.375,-9.375 h -33.75 c -5.176,0 -9.375,4.199 -9.375,9.375 v 33.75 c 0,5.176 4.199,9.375 9.375,9.375 H 36 C 35.391,62.562 34.895,61.309 34.527,60 H 20.625 C 17.52,60 15,57.48 15,54.375 V 26.25 h 45 v 8.277 c 1.309,0.368 2.562,0.864 3.75,1.473 z M 20.625,15 h 33.75 C 57.48,15 60,17.52 60,20.625 V 22.5 H 15 V 20.625 C 15,17.52 17.52,15 20.625,15 Z M 71.25,54.375 c 0,9.32 -7.555,16.875 -16.875,16.875 -9.32,0 -16.875,-7.555 -16.875,-16.875 0,-9.32 7.555,-16.875 16.875,-16.875 9.32,0 16.875,7.555 16.875,16.875 z M 62.676,52.734 51.535,46.547 c -1.25,-0.695 -2.785,0.211 -2.785,1.641 v 12.374 c 0,1.43 1.535,2.336 2.785,1.641 l 11.141,-6.187 c 1.285,-0.715 1.285,-2.567 0,-3.282 z" style="fill:currentColor;fill-opacity:1;fill-rule:nonzero;stroke:none" transform="scale(1.3333333)" /> </g>
</svg>

