<?xml version="1.0" encoding="UTF-8" standalone="no"?> <svg version="1.1" id="Idd13f3df3a3e4f019c5e18ccb2e8dfac20251110130509" width="100" height="100" viewBox="0 0 100 100" xmlns="http://www.w3.org/2000/svg" xmlns:svg="http://www.w3.org/2000/svg"> <defs id="I2ef22c3f2b714443bc6c2cd1ce54bbc220251110130509" /> <g id="Icff19049f66d4b1faa0a7e64b88d1a8020251110130509"> <path id="Iffb0125079e74097bb12b68bdebf815120251110130509" d="m 27.438,3.812 c -0.915,-0.917 -2.399,-0.917 -3.313,0 -0.918,0.915 -0.918,2.399 0,3.313 l 2.246,2.25 h -6.84 c -5.609,0 -10.156,4.547 -10.156,10.156 v 6.84 l -2.25,-2.246 c -0.914,-0.918 -2.398,-0.918 -3.313,0 -0.917,0.914 -0.917,2.398 0,3.313 l 6.25,6.25 c 0.079,0.078 0.161,0.152 0.247,0.214 0.039,0.032 0.078,0.059 0.121,0.086 0.82,0.543 1.906,0.516 2.699,-0.086 0.086,-0.062 0.168,-0.136 0.246,-0.214 l 6.25,-6.25 c 0.258,-0.254 0.441,-0.555 0.555,-0.876 0.289,-0.824 0.105,-1.777 -0.555,-2.437 -0.914,-0.918 -2.398,-0.918 -3.313,0 l -2.25,2.246 v -6.84 c 0,-3.019 2.45,-5.469 5.469,-5.469 h 6.84 l -2.246,2.25 c -0.918,0.915 -0.918,2.399 0,3.313 0.66,0.66 1.613,0.844 2.437,0.555 0.321,-0.114 0.622,-0.297 0.876,-0.555 l 6.25,-6.25 c 0.917,-0.914 0.917,-2.398 0,-3.313 z m 9.535,5.563 c 0.703,1.48 0.703,3.207 0,4.687 h 6.777 v 12.5 h -12.5 v -6.328 l -1.602,1.602 c -0.867,0.867 -1.957,1.383 -3.086,1.547 v 3.179 h -3.179 c -0.164,1.129 -0.68,2.219 -1.547,3.086 l -1.602,1.602 h 6.328 v 12.5 h -12.5 v -6.777 c -1.48,0.703 -3.207,0.703 -4.687,0 v 18.496 c 0,5.609 4.547,10.156 10.156,10.156 h 35.938 c 5.609,0 10.156,-4.547 10.156,-10.156 V 19.531 C 65.625,13.922 61.078,9.375 55.469,9.375 Z M 31.25,43.75 v -12.5 h 12.5 v 12.5 z m 17.188,0 v -12.5 h 12.5 v 12.5 z m -4.688,4.688 v 12.5 h -12.5 v -12.5 z m 4.688,12.5 v -12.5 h 12.5 v 7.031 c 0,3.019 -2.45,5.469 -5.469,5.469 z m 0,-34.376 v -12.5 h 7.031 c 3.019,0 5.469,2.45 5.469,5.469 v 7.031 z M 14.062,48.438 h 12.5 v 12.5 h -7.031 c -3.019,0 -5.469,-2.45 -5.469,-5.469 z" style="fill:currentColor;fill-opacity:1;fill-rule:nonzero;stroke:none" transform="scale(1.3333333)" /> </g>
</svg>

