<?xml version="1.0" encoding="UTF-8" standalone="no"?> <svg version="1.1" id="Ibe0bb456389d43e0822978b2850beda320251106165302" width="100" height="100" viewBox="0 0 100 100" xmlns="http://www.w3.org/2000/svg" xmlns:svg="http://www.w3.org/2000/svg"> <defs id="I709f2000d07142cf8dd43b4edcf6353e20251106165302" /> <g id="Ie3aa5bdc16cf4d2b9e8af19f4afe22cb20251106165302"> <path id="I8666f200eab745e6a42a96fa9507282320251106165302" d="m 22.5,11.25 c -6.215,0 -11.25,5.035 -11.25,11.25 v 30 c 0,6.215 5.035,11.25 11.25,11.25 h 30 c 6.215,0 11.25,-5.035 11.25,-11.25 v -30 C 63.75,16.285 58.715,11.25 52.5,11.25 Z M 51.402,60 42.141,50.738 c -2.563,-2.562 -6.719,-2.562 -9.282,0 L 23.598,60 H 22.5 C 18.359,60 15,56.641 15,52.5 v -15 h 45 v 15 c 0,4.141 -3.359,7.5 -7.5,7.5 z m -22.5,0 6.61,-6.609 c 1.097,-1.098 2.879,-1.098 3.976,0 L 46.098,60 Z M 60,33.75 H 49.527 l -7.386,-7.387 c -2.563,-2.562 -6.719,-2.562 -9.282,0 L 25.473,33.75 H 15 V 22.5 C 15,18.359 18.359,15 22.5,15 h 30 c 4.141,0 7.5,3.359 7.5,7.5 z m -29.223,0 4.735,-4.734 c 1.097,-1.098 2.879,-1.098 3.976,0 l 4.735,4.734 z M 56.25,22.5 c 0,2.07 -1.68,3.75 -3.75,3.75 -2.07,0 -3.75,-1.68 -3.75,-3.75 0,-2.07 1.68,-3.75 3.75,-3.75 2.07,0 3.75,1.68 3.75,3.75 z M 52.5,50.625 c 2.07,0 3.75,-1.68 3.75,-3.75 0,-2.07 -1.68,-3.75 -3.75,-3.75 -2.07,0 -3.75,1.68 -3.75,3.75 0,2.07 1.68,3.75 3.75,3.75 z" style="fill:currentColor;fill-opacity:1;fill-rule:nonzero;stroke:none" transform="scale(1.3333333)" /> </g>
</svg>

