<?xml version="1.0" encoding="UTF-8" standalone="no"?> <svg version="1.1" id="I90d5bf0a89e442dfb4f94b915118f6e420251106152728" width="100" height="100" viewBox="0 0 100 100" xmlns="http://www.w3.org/2000/svg" xmlns:svg="http://www.w3.org/2000/svg"> <defs id="Ic0a4a482d8c046728ce61ded973e6bf520251106152728" /> <g id="I335e10f25e334cb7a320e9e8de7a443220251106152728"> <path id="I9122ee3c0906475e84a570923483692120251106152728" d="M 57.422,14.062 H 12.891 c -4.524,0 -8.203,3.68 -8.203,8.204 v 35.156 c 0,4.523 3.679,8.203 8.203,8.203 h 44.531 c 4.523,0 8.203,-3.68 8.203,-8.203 V 22.266 c 0,-4.524 -3.68,-8.204 -8.203,-8.204 z m -22.414,17.231 -7.031,18.75 c -0.172,0.445 -0.469,0.832 -0.86,1.102 -0.394,0.273 -0.859,0.417 -1.336,0.417 -0.476,0 -0.941,-0.144 -1.336,-0.417 -0.394,-0.27 -0.695,-0.657 -0.859,-1.102 l -7.031,-18.75 c -0.106,-0.285 -0.157,-0.594 -0.149,-0.898 0.008,-0.309 0.078,-0.61 0.207,-0.891 0.258,-0.566 0.727,-1.008 1.309,-1.231 0.578,-0.218 1.226,-0.195 1.793,0.063 0.566,0.258 1.008,0.726 1.23,1.309 l 4.836,12.898 4.836,-12.898 c 0.223,-0.583 0.664,-1.055 1.231,-1.309 0.566,-0.254 1.207,-0.277 1.793,-0.063 0.582,0.223 1.054,0.665 1.308,1.231 0.254,0.566 0.278,1.207 0.063,1.789 z m 17.285,15.68 c -0.496,1.347 -1.395,2.507 -2.578,3.328 -1.18,0.82 -2.578,1.261 -4.016,1.261 H 39.84 c -0.625,0 -1.219,-0.25 -1.66,-0.683 -0.442,-0.441 -0.684,-1.035 -0.684,-1.66 v -18.75 c 0,-0.625 0.246,-1.219 0.684,-1.66 0.441,-0.442 1.035,-0.684 1.66,-0.684 h 4.687 c 1.289,0 2.551,0.355 3.645,1.023 1.101,0.668 2,1.625 2.59,2.766 0.593,1.141 0.863,2.422 0.777,3.707 -0.086,1.285 -0.519,2.52 -1.262,3.57 1.09,0.938 1.868,2.184 2.227,3.575 0.363,1.39 0.285,2.859 -0.215,4.203 z m -6.59,-4.785 h -3.515 v 4.687 h 3.515 c 0.625,0 1.219,-0.25 1.66,-0.684 0.442,-0.441 0.684,-1.035 0.684,-1.66 0,-0.625 -0.25,-1.219 -0.684,-1.66 -0.437,-0.441 -1.035,-0.683 -1.66,-0.683 z m 0.488,-5.372 c 0.442,-0.441 0.684,-1.035 0.684,-1.66 0,-0.625 -0.25,-1.218 -0.684,-1.66 -0.441,-0.441 -1.035,-0.684 -1.66,-0.684 H 42.188 V 37.5 h 2.343 c 0.625,0 1.219,-0.25 1.66,-0.684 z" style="fill:currentColor;fill-opacity:1;fill-rule:nonzero;stroke:none" transform="scale(1.3333333)" /> </g>
</svg>

