<?xml version="1.0" encoding="UTF-8" standalone="no"?> <svg version="1.1" id="I83ffefdb3bcc4a7f97b5c871e7d0350420251106151526" width="100" height="100" viewBox="0 0 100 100" xmlns="http://www.w3.org/2000/svg" xmlns:svg="http://www.w3.org/2000/svg"> <defs id="I4bbc1cf4663a423e88408add595e3b7620251106151526" /> <g id="I235463421565444f84bc099f0cb7c55820251106151526"> <path id="I8e9d86dffa5c4ec8b07ad472d66553a920251106151526" d="m 18.75,7.031 c 3.57,0 6.766,1.594 8.914,4.114 3.063,-1.145 6.375,-1.77 9.836,-1.77 3.461,0 6.773,0.625 9.836,1.77 2.148,-2.52 5.344,-4.114 8.914,-4.114 6.473,0 11.719,5.246 11.719,11.719 0,3.57 -1.594,6.766 -4.114,8.914 1.145,3.063 1.77,6.375 1.77,9.836 0,6.922 -2.5,13.262 -6.648,18.16 l 5.961,5.965 c 0.917,0.914 0.917,2.398 0,3.313 -0.915,0.917 -2.399,0.917 -3.313,0 L 55.66,58.977 c -4.898,4.148 -11.238,6.648 -18.16,6.648 -6.922,0 -13.262,-2.5 -18.16,-6.648 l -5.965,5.961 c -0.914,0.917 -2.398,0.917 -3.313,0 -0.917,-0.915 -0.917,-2.399 0,-3.313 L 16.023,55.66 C 11.875,50.762 9.375,44.422 9.375,37.5 9.375,34.039 10,30.727 11.145,27.664 8.625,25.516 7.031,22.32 7.031,18.75 7.031,12.277 12.277,7.031 18.75,7.031 Z M 13.289,23.18 c 2.41,-4.071 5.82,-7.481 9.891,-9.891 -1.211,-0.98 -2.75,-1.57 -4.43,-1.57 -3.883,0 -7.031,3.148 -7.031,7.031 0,1.68 0.59,3.219 1.57,4.43 z M 51.82,13.289 c 4.071,2.41 7.481,5.82 9.891,9.891 0.98,-1.211 1.57,-2.75 1.57,-4.43 0,-3.883 -3.148,-7.031 -7.031,-7.031 -1.68,0 -3.219,0.59 -4.43,1.57 z M 37.5,23.438 c 0,-1.293 -1.051,-2.344 -2.344,-2.344 -1.293,0 -2.344,1.051 -2.344,2.344 v 16.406 c 0,1.293 1.051,2.344 2.344,2.344 h 11.719 c 1.293,0 2.344,-1.051 2.344,-2.344 0,-1.293 -1.051,-2.344 -2.344,-2.344 H 37.5 Z" style="fill:currentColor;fill-opacity:1;fill-rule:nonzero;stroke:none" transform="scale(1.3333333)" /> </g>
</svg>

