<?xml version="1.0" encoding="UTF-8" standalone="no"?> <svg version="1.1" id="I64e88aa0eaf643b0b33d7c569e16dc6220251106171633" width="100" height="100" viewBox="0 0 100 100" xmlns="http://www.w3.org/2000/svg" xmlns:svg="http://www.w3.org/2000/svg"> <defs id="If1d742974e724db7bfd4522fd73c289820251106171633" /> <g id="I064c538357144b30aea2029a1229736520251106171633"> <path id="I7c404e9d4bf446a2a2d7bad5a683ccbf20251106171633" d="M 34.777,9.117 C 35.008,8.031 34.309,6.965 33.223,6.738 32.137,6.512 31.074,7.207 30.848,8.293 L 27.535,24.109 H 10.043 c -1.109,0 -2.008,0.899 -2.008,2.008 0,1.11 0.899,2.008 2.008,2.008 h 16.652 l -3.644,17.41 H 7.367 c -1.109,0 -2.012,0.899 -2.012,2.012 0,1.109 0.903,2.008 2.012,2.008 h 14.844 l -3.418,16.328 c -0.227,1.086 0.469,2.152 1.555,2.379 1.086,0.226 2.148,-0.469 2.379,-1.555 l 3.589,-17.152 h 17.325 l -3.418,16.328 c -0.231,1.086 0.468,2.152 1.554,2.379 1.086,0.226 2.149,-0.469 2.375,-1.555 l 3.59,-17.152 h 17.215 c 1.109,0 2.008,-0.899 2.008,-2.008 0,-1.113 -0.899,-2.012 -2.008,-2.012 H 48.586 l 3.644,-17.41 h 15.403 c 1.109,0 2.012,-0.898 2.012,-2.008 0,-1.109 -0.903,-2.008 -2.012,-2.008 H 53.07 L 56.207,9.117 C 56.434,8.031 55.738,6.965 54.652,6.738 53.566,6.512 52.504,7.207 52.273,8.293 L 48.965,24.109 H 31.641 Z M 44.48,45.535 H 27.156 l 3.645,-17.41 h 17.324 z" style="fill:currentColor;fill-opacity:1;fill-rule:nonzero;stroke:none" transform="scale(1.3333333)" /> </g>
</svg>

