<?xml version="1.0" encoding="UTF-8" standalone="no"?> <svg version="1.1" id="Ic8768885657d49d6b34c7ac54a013fbb20251106165302" width="100" height="100" viewBox="0 0 100 100" xmlns="http://www.w3.org/2000/svg" xmlns:svg="http://www.w3.org/2000/svg"> <defs id="I55469dcd3b884f1ab05115ebdfee999320251106165302" /> <g id="I1cd4bc85482b4691abcafea61648c4df20251106165302"> <path id="I9df2cba262e44580be842cb289e2b1a120251106165302" d="m 37.5,11.25 c 4.141,0 7.5,3.359 7.5,7.5 0,4.141 -3.359,7.5 -7.5,7.5 -4.141,0 -7.5,-3.359 -7.5,-7.5 0,-4.141 3.359,-7.5 7.5,-7.5 z m 1.875,18.594 C 44.695,28.953 48.75,24.324 48.75,18.75 48.75,12.535 43.715,7.5 37.5,7.5 c -6.215,0 -11.25,5.035 -11.25,11.25 0,5.574 4.055,10.203 9.375,11.094 V 41.25 h -7.5 c -3.105,0 -5.625,2.52 -5.625,5.625 v 1.875 h -3.75 c -4.141,0 -7.5,3.359 -7.5,7.5 v 9.375 c 0,1.035 0.84,1.875 1.875,1.875 h 48.75 c 1.035,0 1.875,-0.84 1.875,-1.875 V 56.25 c 0,-4.141 -3.359,-7.5 -7.5,-7.5 H 52.5 v -1.875 c 0,-3.105 -2.52,-5.625 -5.625,-5.625 h -7.5 z M 28.125,45 h 18.75 c 1.035,0 1.875,0.84 1.875,1.875 V 48.75 H 26.25 V 46.875 C 26.25,45.84 27.09,45 28.125,45 Z m -9.375,7.5 h 37.5 c 2.07,0 3.75,1.68 3.75,3.75 v 7.5 H 15 v -7.5 c 0,-2.07 1.68,-3.75 3.75,-3.75 z" style="fill:currentColor;fill-opacity:1;fill-rule:nonzero;stroke:none" transform="scale(1.3333333)" /> </g>
</svg>

