<?xml version="1.0" encoding="UTF-8" standalone="no"?> <svg version="1.1" id="Ic7f83b84149d49d7bdf9258d06453bc520251110124420" width="100" height="100" viewBox="0 0 100 100" xmlns="http://www.w3.org/2000/svg" xmlns:svg="http://www.w3.org/2000/svg"> <defs id="Ic992d3b12de94faeafc20b98d32db0b820251110124420" /> <g id="I254301dc955a4107bd4cb344f67abfda20251110124420"> <path id="I6460ce499cb64c3d81fee8e2fabf3dc520251110124420" d="m 17.559,15.879 c 1.187,-3.109 4.171,-5.164 7.503,-5.164 h 39.211 c 5.633,0 9.516,5.644 7.504,10.906 l -14.339,37.5 c -1.192,3.109 -4.176,5.164 -7.508,5.164 H 10.723 c -5.633,0 -9.52,-5.644 -7.508,-10.906 z m 7.503,-1.149 c -1.664,0 -3.156,1.028 -3.753,2.586 l -14.34,37.5 c -1.004,2.629 0.937,5.454 3.754,5.454 H 49.93 c 1.668,0 3.16,-1.028 3.754,-2.586 l 14.339,-37.5 C 69.031,17.555 67.09,14.73 64.273,14.73 Z" style="fill:currentColor;fill-opacity:1;fill-rule:nonzero;stroke:none" transform="scale(1.3333333)" /> </g>
</svg>

