<?xml version="1.0" encoding="UTF-8" standalone="no"?> <svg version="1.1" id="Ic96e6abce2b94cdfafb05e341ad746a420251106163937" width="100" height="100" viewBox="0 0 100 100" xmlns="http://www.w3.org/2000/svg" xmlns:svg="http://www.w3.org/2000/svg"> <defs id="I6b367ccb40474a8ca257dba5f777ed6520251106163937" /> <g id="I8ab23c05c809420f83d3e2dceb54458a20251106163937"> <path id="I8804b585a8a1478384e86a7a3430d8e220251106163937" d="m 14.062,66.945 h 31.75 c 3.774,0 6.508,-1.273 7.36,-5.242 l 1.769,-8.238 h 7.672 c 4.067,0 7.364,-3.297 7.364,-7.363 V 28.141 c 0,-4.493 -3.653,-6.891 -7.176,-6.743 H 43.945 v -5.996 c 0,-4.07 -3.297,-7.367 -7.367,-7.367 H 12.723 c -4.067,0 -7.368,3.297 -7.368,7.367 v 42.836 c 0,4.809 3.899,8.707 8.707,8.707 z M 43.945,25.414 h 13.028 c -0.164,0.402 -0.297,0.84 -0.399,1.305 l -7.332,34.14 C 48.566,64 43.945,63.508 43.945,60.297 Z m -25.789,0.031 c -1.109,0 -2.008,-0.898 -2.008,-2.007 0,-1.11 0.899,-2.008 2.008,-2.008 1.11,0 2.008,0.898 2.008,2.008 0,1.109 -0.898,2.007 -2.008,2.007 z m 0.008,24.149 h 13.395 c 1.109,0 2.007,0.902 2.007,2.011 0,1.11 -0.898,2.008 -2.007,2.008 H 18.164 c -1.109,0 -2.008,-0.898 -2.008,-2.008 0,-1.109 0.899,-2.011 2.008,-2.011 z m 0,-14.102 h 13.395 c 1.109,0 2.007,0.899 2.007,2.008 0,1.109 -0.898,2.008 -2.007,2.008 H 18.164 c -1.109,0 -2.008,-0.899 -2.008,-2.008 0,-1.109 0.899,-2.008 2.008,-2.008 z" style="fill:currentColor;fill-opacity:1;fill-rule:nonzero;stroke:none" transform="scale(1.3333333)" /> </g>
</svg>

