<?xml version="1.0" encoding="UTF-8" standalone="no"?> <svg version="1.1" id="Ibfae1b16677a41b784c1c7586ecd5cd820251110130509" width="100" height="100" viewBox="0 0 100 100" xmlns="http://www.w3.org/2000/svg" xmlns:svg="http://www.w3.org/2000/svg"> <defs id="If70de3368de34a45af0e45283c1a4a9820251110130509" /> <g id="I7ea119fa552e4270b2642889a9014c1420251110130509"> <path id="Ic23085186bc540e69a986a47c1b2220c20251110130509" d="m 13.395,22.77 c 0,-2.961 2.398,-5.36 5.355,-5.36 2.957,0 5.355,2.399 5.355,5.36 0,2.957 -2.398,5.355 -5.355,5.355 -2.957,0 -5.355,-2.398 -5.355,-5.355 z m 5.355,-9.375 c -5.176,0 -9.375,4.195 -9.375,9.375 0,5.175 4.199,9.375 9.375,9.375 5.176,0 9.375,-4.2 9.375,-9.375 0,-5.18 -4.199,-9.375 -9.375,-9.375 z m 18.082,0 c -1.109,0 -2.012,0.898 -2.012,2.007 v 44.196 c 0,1.109 0.903,2.007 2.012,2.007 1.109,0 2.008,-0.898 2.008,-2.007 V 38.84 h 20.758 c 1.109,0 2.007,-0.899 2.007,-2.008 0,-1.109 -0.898,-2.012 -2.007,-2.012 H 38.84 V 17.41 h 23.437 c 1.11,0 2.008,-0.898 2.008,-2.008 0,-1.109 -0.898,-2.007 -2.008,-2.007 z" style="fill:currentColor;fill-opacity:1;fill-rule:nonzero;stroke:none" transform="scale(1.3333333)" /> </g>
</svg>

