<?xml version="1.0" encoding="UTF-8" standalone="no"?> <svg version="1.1" id="I31aa85279d314fd6808eb5e45be9363120251106161453" width="100" height="100" viewBox="0 0 100 100" xmlns="http://www.w3.org/2000/svg" xmlns:svg="http://www.w3.org/2000/svg"> <defs id="Idc8e46d5540b49e0919dbb91790ea1f120251106161453" /> <g id="Ifb6ad22a2ef84182b9f2c9c722c1f34e20251106161453"> <path id="I29d9a4abcec84e02ae666ca45a0e5b5a20251106161453" d="m 35.934,18.742 v 40.625 l -13.282,0.004 c -2.867,0 -5.222,-2.207 -5.449,-5.019 l -0.019,-0.45 V 24.215 c 0,-2.867 2.211,-5.223 5.023,-5.449 l 0.445,-0.02 z m 16.414,0.004 c 2.867,0 5.222,2.211 5.449,5.02 l 0.019,0.449 v 29.687 c 0,2.871 -2.211,5.223 -5.023,5.453 L 52.348,59.371 39.059,59.367 V 18.742 Z m -4.692,29.688 h -3.125 l -0.316,0.023 c -1.145,0.152 -2.027,1.137 -2.027,2.32 0,1.188 0.882,2.168 2.027,2.325 l 0.316,0.019 h 3.125 l 0.317,-0.019 C 49.117,52.945 50,51.965 50,50.777 50,49.484 48.949,48.434 47.656,48.434 Z m -17.187,0 h -3.125 l -0.317,0.023 C 25.883,48.609 25,49.594 25,50.777 c 0,1.188 0.883,2.168 2.027,2.325 l 0.317,0.019 h 3.125 l 0.316,-0.019 c 1.145,-0.157 2.027,-1.137 2.027,-2.325 0,-1.293 -1.05,-2.343 -2.343,-2.343 z m 35.519,-23.317 0.188,0.285 0.14,0.286 1.821,4.554 c 1.039,2.598 0.742,5.528 -0.766,7.856 l -0.34,0.492 -0.472,0.629 c -0.727,0.969 -0.957,2.215 -0.645,3.367 l 0.145,0.426 1.82,4.55 c 0.48,1.204 -0.106,2.567 -1.309,3.047 -1.101,0.442 -2.34,-0.011 -2.906,-1.015 l -0.141,-0.289 -1.82,-4.551 c -1.039,-2.598 -0.742,-5.527 0.766,-7.859 l 0.34,-0.489 0.472,-0.629 c 0.727,-0.972 0.957,-2.215 0.645,-3.367 l -0.145,-0.43 -1.82,-4.55 c -0.481,-1.203 0.105,-2.567 1.309,-3.047 0.988,-0.395 2.093,-0.067 2.718,0.734 z m -54.84,0 0.188,0.285 0.141,0.286 1.82,4.554 c 1.039,2.598 0.742,5.528 -0.766,7.856 l -0.34,0.492 -0.472,0.629 c -0.727,0.969 -0.957,2.215 -0.645,3.367 l 0.145,0.426 1.82,4.55 c 0.481,1.204 -0.105,2.567 -1.309,3.047 -1.101,0.442 -2.339,-0.011 -2.906,-1.015 L 8.684,49.305 6.863,44.754 C 5.824,42.156 6.121,39.227 7.629,36.895 l 0.34,-0.489 0.472,-0.629 C 9.168,34.805 9.398,33.562 9.086,32.41 L 8.941,31.98 7.121,27.43 c -0.48,-1.203 0.106,-2.567 1.309,-3.047 0.988,-0.395 2.093,-0.067 2.718,0.734 z" style="fill:currentColor;fill-opacity:1;fill-rule:nonzero;stroke:none" transform="scale(1.3333333)" /> </g>
</svg>

