<?xml version="1.0" encoding="UTF-8" standalone="no"?> <svg version="1.1" id="Ib650a661703a42ffb7b869f84bae4baa20251110133655" width="100" height="100" viewBox="0 0 100 100" xmlns="http://www.w3.org/2000/svg" xmlns:svg="http://www.w3.org/2000/svg"> <defs id="I3c8a5b54dec7428e80572c3ab8727e3620251110133655" /> <g id="Ic7248e942a994b9bb21b92e29ea38ea320251110133655"> <path id="I31cc78d0e66b4f678b8fc647749c948b20251110133655" d="m 21.176,34.301 c 0.73,-0.735 1.918,-0.735 2.648,0 l 7.5,7.5 c 0.352,0.351 0.551,0.828 0.551,1.324 0,0.496 -0.199,0.973 -0.551,1.324 l -7.5,7.5 c -0.73,0.735 -1.918,0.735 -2.648,0 -0.735,-0.73 -0.735,-1.918 0,-2.648 l 6.172,-6.176 -6.172,-6.176 c -0.735,-0.73 -0.735,-1.918 0,-2.648 z M 54.375,48.75 h -18.75 c -1.035,0 -1.875,0.84 -1.875,1.875 0,1.035 0.84,1.875 1.875,1.875 h 18.75 c 1.035,0 1.875,-0.84 1.875,-1.875 0,-1.035 -0.84,-1.875 -1.875,-1.875 z M 11.234,20.625 c 0,-5.176 4.2,-9.375 9.375,-9.375 h 33.75 c 5.18,0 9.375,4.199 9.375,9.375 V 22.5 h 0.012 v 3.75 h -0.012 v 28.125 c 0,5.176 -4.195,9.375 -9.375,9.375 h -33.75 c -5.175,0 -9.375,-4.199 -9.375,-9.375 z m 3.75,5.625 v 28.125 c 0,3.105 2.52,5.625 5.625,5.625 h 33.75 c 3.11,0 5.625,-2.52 5.625,-5.625 V 26.25 Z" style="fill:currentColor;fill-opacity:1;fill-rule:nonzero;stroke:none" transform="scale(1.3333333)" /> </g>
</svg>

