<?xml version="1.0" encoding="UTF-8" standalone="no"?> <svg version="1.1" id="I94a4f7eb9e8a4e478bf0ff60d29dd71120251106163938" width="100" height="100" viewBox="0 0 100 100" xmlns="http://www.w3.org/2000/svg" xmlns:svg="http://www.w3.org/2000/svg"> <defs id="If009861f0ff6458d8284201d8d8045b220251106163938" /> <g id="Iba1cdc35820a4375b58bcee567cf7c3420251106163938"> <path id="I512c404a861a4197a705321e75f89fce20251106163938" d="m 15.402,8.035 c -5.547,0 -10.047,4.496 -10.047,10.047 v 6.023 h 19.883 c 0.887,0 1.739,-0.351 2.367,-0.98 l 7.887,-7.887 -5.047,-5.047 C 29.062,8.812 27.191,8.035 25.238,8.035 Z M 5.367,54.242 V 28.125 h 19.871 c 1.953,0 3.824,-0.777 5.207,-2.156 L 40.34,16.07 h 19.258 c 5.55,0 10.047,4.5 10.047,10.047 v 19.418 h -1.34 c 0,-5.918 -4.797,-10.715 -10.715,-10.715 -5.918,0 -10.715,4.797 -10.715,10.715 0,3.199 1.402,6.074 3.629,8.035 h -2.168 c -4.504,0 -8.156,3.653 -8.156,8.157 v 0.55 c 0,0.672 0.058,1.344 0.175,2.008 H 15.414 C 9.863,64.285 5.367,59.789 5.367,54.242 Z m 60.258,-8.707 c 0,4.438 -3.598,8.035 -8.035,8.035 -4.438,0 -8.035,-3.597 -8.035,-8.035 0,-4.437 3.597,-8.035 8.035,-8.035 4.437,0 8.035,3.598 8.035,8.035 z m 6.695,16.742 c 0,5.004 -4.207,10.043 -14.73,10.043 -10.524,0 -14.735,-5.019 -14.735,-10.043 v -0.55 c 0,-3.028 2.454,-5.477 5.481,-5.477 h 18.508 c 3.023,0 5.476,2.449 5.476,5.477 z" style="fill:currentColor;fill-opacity:1;fill-rule:nonzero;stroke:none" transform="scale(1.3333333)" /> </g>
</svg>

