<?xml version="1.0" encoding="UTF-8" standalone="no"?> <svg version="1.1" id="I711653c3faab4cefbaad038fa834fe5120251106165301" width="100" height="100" viewBox="0 0 100 100" xmlns="http://www.w3.org/2000/svg" xmlns:svg="http://www.w3.org/2000/svg"> <defs id="I9285cb74b5f444449fb9f40f587e409520251106165301" /> <g id="I44c5a54062e24823ae9551345da4ff5a20251106165301"> <path id="I7824746c4ef940699bde2ac4cd573d9220251106165301" d="m 28.125,11.719 c 0,-1.293 1.051,-2.344 2.344,-2.344 h 14.062 c 1.293,0 2.344,1.051 2.344,2.344 v 3.906 h 9.375 c 6.902,0 12.5,5.598 12.5,12.5 h 0.781 c 1.293,0 2.344,1.051 2.344,2.344 v 10.937 c 0,1.293 -1.051,2.344 -2.344,2.344 H 68.75 v 7.812 c 0,6.903 -5.598,12.5 -12.5,12.5 h -4.828 c -2.399,0 -4.746,-0.687 -6.762,-1.984 l -6.738,-4.332 c -0.258,-0.168 -0.586,-0.168 -0.844,0 l -6.738,4.332 c -2.016,1.297 -4.363,1.984 -6.762,1.984 H 18.75 c -6.902,0 -12.5,-5.597 -12.5,-12.5 V 43.75 H 5.469 c -1.293,0 -2.344,-1.051 -2.344,-2.344 V 30.469 c 0,-1.293 1.051,-2.344 2.344,-2.344 H 6.25 c 0,-6.902 5.598,-12.5 12.5,-12.5 h 9.375 z M 37.5,31.25 c 1.727,0 3.125,-1.398 3.125,-3.125 C 40.625,26.398 39.227,25 37.5,25 c -1.727,0 -3.125,1.398 -3.125,3.125 0,1.727 1.398,3.125 3.125,3.125 z m -18.75,7.031 c 0,1.293 1.051,2.344 2.344,2.344 h 7.812 c 1.293,0 2.344,-1.051 2.344,-2.344 0,-1.293 -1.051,-2.343 -2.344,-2.343 h -7.812 c -1.293,0 -2.344,1.05 -2.344,2.343 z m 27.344,-2.343 c -1.293,0 -2.344,1.05 -2.344,2.343 0,1.293 1.051,2.344 2.344,2.344 h 7.812 c 1.293,0 2.344,-1.051 2.344,-2.344 0,-1.293 -1.051,-2.343 -2.344,-2.343 z" style="fill:currentColor;fill-opacity:1;fill-rule:nonzero;stroke:none" transform="scale(1.3333333)" /> </g>
</svg>

