<?xml version="1.0" encoding="UTF-8" standalone="no"?> <svg version="1.1" id="I6b19ef8182eb45039edd2458e1fcc4a220251106155157" width="100" height="100" viewBox="0 0 100 100" xmlns="http://www.w3.org/2000/svg" xmlns:svg="http://www.w3.org/2000/svg"> <defs id="I4595103b70644d62a17edfd013e8b41520251106155157" /> <g id="Iab37ba89903949218d4cd2a7bd84198c20251106155157"> <path id="I998b18730d4a4162992e0f2a2572fa9d20251106155157" d="M 22.5,7.5 C 18.359,7.5 15,10.859 15,15 v 26.57 c 2.184,0.774 3.75,2.856 3.75,5.305 V 15 c 0,-2.07 1.68,-3.75 3.75,-3.75 h 15 V 24.375 C 37.5,27.48 40.02,30 43.125,30 H 56.25 v 13.766 c 0.855,-1.289 2.211,-2.18 3.75,-2.438 V 27.805 c 0,-1.493 -0.594,-2.926 -1.648,-3.981 L 43.676,9.148 C 42.617,8.094 41.188,7.5 39.695,7.5 Z M 55.473,26.25 H 43.125 c -1.035,0 -1.875,-0.84 -1.875,-1.875 V 12.027 Z M 44.062,67.5 c 0.797,0 1.508,-0.504 1.77,-1.254 l 6.563,-18.75 c 0.343,-0.976 -0.172,-2.047 -1.149,-2.391 -0.98,-0.339 -2.047,0.172 -2.391,1.153 L 44.062,59.949 39.27,46.258 c -0.344,-0.981 -1.411,-1.492 -2.391,-1.153 -0.977,0.344 -1.492,1.415 -1.149,2.391 l 6.563,18.75 c 0.262,0.75 0.973,1.254 1.769,1.254 z M 62.707,46.258 C 62.445,45.504 61.734,45 60.938,45 c -0.797,0 -1.508,0.504 -1.77,1.258 l -6.563,18.75 c -0.343,0.976 0.172,2.047 1.149,2.387 0.98,0.343 2.047,-0.172 2.391,-1.149 L 57.02,63.75 h 7.835 l 0.875,2.496 c 0.344,0.977 1.411,1.492 2.391,1.149 0.977,-0.34 1.492,-1.411 1.149,-2.387 z M 63.543,60 h -5.211 l 2.606,-7.449 z M 13.125,45 C 14.16,45 15,45.84 15,46.875 v 15 C 15,64.984 12.48,67.5 9.375,67.5 6.27,67.5 3.75,64.984 3.75,61.875 V 60 c 0,-1.035 0.84,-1.875 1.875,-1.875 1.035,0 1.875,0.84 1.875,1.875 v 1.875 c 0,1.035 0.84,1.875 1.875,1.875 1.035,0 1.875,-0.84 1.875,-1.875 v -15 C 11.25,45.84 12.09,45 13.125,45 Z m 14.063,0 c 0.796,0 1.507,0.504 1.769,1.258 l 6.563,18.75 c 0.343,0.976 -0.172,2.047 -1.149,2.387 -0.98,0.343 -2.047,-0.172 -2.391,-1.149 L 31.105,63.75 H 23.27 l -0.875,2.496 c -0.344,0.977 -1.411,1.492 -2.391,1.149 -0.977,-0.34 -1.492,-1.411 -1.149,-2.387 l 6.563,-18.75 C 25.68,45.504 26.391,45 27.188,45 Z m 0,7.551 L 24.582,60 h 5.211 z" style="fill:currentColor;fill-opacity:1;fill-rule:nonzero;stroke:none" transform="scale(1.3333333)" /> </g>
</svg>

