<?xml version="1.0" encoding="UTF-8" standalone="no"?> <svg version="1.1" id="I3fd96ae353804099a4690cc42eb01bf120251106161453" width="100" height="100" viewBox="0 0 100 100" xmlns="http://www.w3.org/2000/svg" xmlns:svg="http://www.w3.org/2000/svg"> <defs id="Ie0c68d5414424f67916f54d132ef0b3f20251106161453" /> <g id="Ia021966a34094698bcb3cb952e97c05a20251106161453"> <path id="I8adcfcc4a0884fdd988628ad17eedafa20251106161453" d="m 56.898,67.836 c -1.222,1.219 -3.199,1.219 -4.421,0 l -9.375,-9.375 c -1.219,-1.223 -1.219,-3.199 0,-4.422 1.222,-1.219 3.199,-1.219 4.421,0 l 4.039,4.043 V 21.875 c 0,-1.727 1.399,-3.125 3.126,-3.125 1.726,0 3.124,1.398 3.124,3.125 v 36.207 l 4.04,-4.043 c 1.222,-1.219 3.199,-1.219 4.421,0 1.219,1.223 1.219,3.199 0,4.422 z M 39.062,21.875 c 0,6.406 3.856,11.914 9.376,14.324 v -7.336 c -1.918,-1.718 -3.126,-4.211 -3.126,-6.988 0,-5.176 4.196,-9.375 9.376,-9.375 5.179,0 9.374,4.199 9.374,9.375 0,2.777 -1.207,5.27 -3.124,6.988 v 7.336 c 5.519,-2.41 9.374,-7.918 9.374,-14.324 0,-8.629 -6.996,-15.625 -15.624,-15.625 -8.629,0 -15.626,6.996 -15.626,15.625 z m -25,14.324 C 8.543,33.789 4.688,28.281 4.688,21.875 4.688,13.246 11.684,6.25 20.312,6.25 c 8.629,0 15.626,6.996 15.626,15.625 0,6.406 -3.856,11.914 -9.376,14.324 v -7.336 c 1.918,-1.718 3.126,-4.211 3.126,-6.988 0,-5.176 -4.2,-9.375 -9.376,-9.375 -5.175,0 -9.374,4.199 -9.374,9.375 0,2.777 1.207,5.27 3.124,6.988 z m 8.461,31.637 c -1.222,1.219 -3.199,1.219 -4.421,0 L 8.727,58.461 c -1.219,-1.223 -1.219,-3.199 0,-4.422 1.222,-1.219 3.199,-1.219 4.421,0 l 4.04,4.043 V 21.875 c 0,-1.727 1.398,-3.125 3.124,-3.125 1.727,0 3.126,1.398 3.126,3.125 v 36.207 l 4.039,-4.043 c 1.222,-1.219 3.199,-1.219 4.421,0 1.219,1.223 1.219,3.199 0,4.422 z" style="fill:currentColor;fill-opacity:1;fill-rule:nonzero;stroke:none" transform="scale(1.3333333)" /> </g>
</svg>

