<?xml version="1.0" encoding="UTF-8" standalone="no"?> <svg version="1.1" id="Iee2876946fb74615b1cf1bde6bf5effe20251106161453" width="100" height="100" viewBox="0 0 100 100" xmlns="http://www.w3.org/2000/svg" xmlns:svg="http://www.w3.org/2000/svg"> <defs id="Ib8ae90875d6c400bb8d0087a3b23263320251106161453" /> <g id="I8a35a449bc4c472e9a9db0001154b88e20251106161453"> <path id="I3cbb001568ad443fa89fbc40089f51bd20251106161453" d="m 49.777,30.48 c 0.243,-1.269 -0.589,-2.5 -1.863,-2.742 -1.269,-0.242 -2.496,0.594 -2.742,1.864 -0.141,0.753 -0.395,1.468 -0.738,2.128 -0.426,0.817 -0.996,1.555 -1.676,2.172 -0.656,0.602 -1.418,1.09 -2.25,1.434 -0.446,0.187 -0.914,0.336 -1.403,0.437 -1.265,0.262 -2.078,1.504 -1.816,2.774 0.266,1.265 1.508,2.078 2.773,1.812 0.782,-0.16 1.536,-0.394 2.254,-0.695 1.332,-0.559 2.547,-1.34 3.598,-2.297 1.082,-0.984 1.992,-2.16 2.676,-3.472 0.551,-1.059 0.957,-2.204 1.187,-3.415 z M 18.75,8.594 c 0,-1.293 1.051,-2.344 2.344,-2.344 h 32.812 c 1.293,0 2.344,1.051 2.344,2.344 v 20.312 c 0,9.992 -7.504,18.235 -17.188,19.391 V 64.09 l 8.586,-0.028 c 1.293,-0.003 2.348,1.043 2.352,2.336 0.004,1.293 -1.043,2.348 -2.336,2.352 L 36.727,68.785 H 36.711 L 27.336,68.75 C 26.039,68.746 24.996,67.691 25,66.398 c 0.004,-1.296 1.059,-2.339 2.352,-2.336 l 7.023,0.028 V 48.285 C 25.559,47.137 18.75,39.598 18.75,30.469 Z m 4.688,2.344 v 8.593 h 28.124 v -8.593 z m 0,19.531 c 0,7.336 5.945,13.281 13.281,13.281 8.199,0 14.843,-6.645 14.843,-14.844 V 24.219 H 23.438 Z" style="fill:currentColor;fill-opacity:1;fill-rule:nonzero;stroke:none" transform="scale(1.3333333)" /> </g>
</svg>

