<?xml version="1.0" encoding="UTF-8" standalone="no"?> <svg version="1.1" id="If115b5dcbc8b41f9911be03937bef16e20251106170412" width="100" height="100" viewBox="0 0 100 100" xmlns="http://www.w3.org/2000/svg" xmlns:svg="http://www.w3.org/2000/svg"> <defs id="I3951087b0ecd40939151a18b72d47cb120251106170412"> <linearGradient x1="5.4749699" y1="0.428572" x2="20.9394" y2="19.980301" gradientUnits="userSpaceOnUse" gradientTransform="scale(3.125)" spreadMethod="pad" id="I511928397c7e47389362f64c9c28caf320251106170412"> <stop style="stop-opacity:1;stop-color:#36dff1" offset="0" id="Ie30e0e0751474920907b16c30901203e20251106170412" /> <stop style="stop-opacity:1;stop-color:#0094f0" offset="1" id="Ib8f1e6b503a247cd83442f12f85b6e4a20251106170412" /> </linearGradient> <linearGradient x1="4.1890402" y1="5.3928399" x2="11.7474" y2="8.7453899" gradientUnits="userSpaceOnUse" gradientTransform="scale(3.125)" spreadMethod="pad" id="Ieaed7106e56c40ecba4fc355a92adfcd20251106170412"> <stop style="stop-opacity:1;stop-color:#9c6cfe" offset="0" id="I7f03912d89bc49bcbd86ac79f731021420251106170412" /> <stop style="stop-opacity:1;stop-color:#9c6cfe" offset="0.125321" id="I9d80385ec46f44e98cd2ee7cb78cbc7720251106170412" /> <stop style="stop-opacity:1;stop-color:#7a41dc" offset="1" id="I6abc9a62acaf41c6a5fd74fc68ae2c3320251106170412" /> </linearGradient> </defs> <g id="I7be7098081854244820069a1f12f39cd20251106170412"> <path id="I03348a7356d9427c9e889a6af6a31c3320251106170412" d="m 25,65.625 h 34.375 c 3.453,0 6.25,-2.797 6.25,-6.25 V 56.25 C 65.625,52.797 62.828,50 59.375,50 H 25 l -1.562,7.812 z m 0,-20.313 h 34.375 c 3.453,0 6.25,-2.796 6.25,-6.25 v -3.124 c 0,-3.454 -2.797,-6.25 -6.25,-6.25 L 25,29.688 23.438,37.5 Z M 25,25 h 34.375 c 3.453,0 6.25,-2.797 6.25,-6.25 v -3.125 c 0,-3.453 -2.797,-6.25 -6.25,-6.25 H 25 l -1.562,7.813 z" transform="scale(1.3333333)" style="fill:url(#I511928397c7e47389362f64c9c28caf320251106170412);stroke:none" /> <path id="I4e80a61f31574e00b2afa35a97ded07e20251106170412" d="m 25,29.688 v 15.624 h -9.375 c -3.453,0 -6.25,-2.796 -6.25,-6.25 v -3.124 c 0,-3.454 2.797,-6.25 6.25,-6.25 z M 25,9.375 V 25 h -9.375 c -3.453,0 -6.25,-2.797 -6.25,-6.25 v -3.125 c 0,-3.453 2.797,-6.25 6.25,-6.25 z M 25,50 v 15.625 h -9.375 c -3.453,0 -6.25,-2.797 -6.25,-6.25 V 56.25 c 0,-3.453 2.797,-6.25 6.25,-6.25 z" transform="scale(1.3333333)" style="fill:url(#Ieaed7106e56c40ecba4fc355a92adfcd20251106170412);stroke:none" /> </g>
</svg>

