<?xml version="1.0" encoding="UTF-8" standalone="no"?> <svg version="1.1" id="Ie64cc691529d4aaf96b960e6acf144f820251106123600" width="100" height="100" viewBox="0 0 100 100" xmlns="http://www.w3.org/2000/svg" xmlns:svg="http://www.w3.org/2000/svg"> <defs id="I50b5d88b93a2467fbd930f496909a6f420251106123600" /> <g id="Ic432d82189044a829e82ea21b03c471120251106123600"> <path id="I075693eaa20f4b4a8ef3ad60db386ed520251106123600" d="m 37.5,7.5 c -16.57,0 -30,13.43 -30,30 0,16.57 13.43,30 30,30 16.57,0 30,-13.43 30,-30 0,-16.57 -13.43,-30 -30,-30 z m 10.691,40.707 c -0.175,0.176 -0.379,0.309 -0.597,0.402 -0.223,0.09 -0.465,0.141 -0.719,0.141 H 28.125 C 27.09,48.75 26.25,47.91 26.25,46.875 26.25,45.84 27.09,45 28.125,45 H 42.348 L 26.801,29.449 c -0.735,-0.73 -0.735,-1.918 0,-2.648 0.73,-0.735 1.918,-0.735 2.648,0 L 45,42.348 V 28.125 c 0,-1.035 0.84,-1.875 1.875,-1.875 1.035,0 1.875,0.84 1.875,1.875 v 18.75 c 0,0.254 -0.051,0.496 -0.141,0.719 -0.093,0.218 -0.226,0.422 -0.402,0.597 z" style="fill:currentColor;fill-opacity:1;fill-rule:nonzero;stroke:none" transform="scale(1.3333333)" /> </g>
</svg>

