<?xml version="1.0" encoding="UTF-8" standalone="no"?> <svg version="1.1" id="I77b54b079f204eff959855fe2d51758b20251106144521" width="100" height="100" viewBox="0 0 100 100" xmlns="http://www.w3.org/2000/svg" xmlns:svg="http://www.w3.org/2000/svg"> <defs id="I7ba040b530db4feb84d8055bf6c5e84220251106144521" /> <g id="Ic9a71a82278148c3beaf407cf8fba8f220251106144521"> <path id="Ia4100067306a4246bda8e41ae310c5c620251106144521" d="m 32.746,15.777 c 1.125,-1.074 2.906,-1.031 3.977,0.094 L 55.48,35.562 c 1.032,1.086 1.032,2.793 0,3.879 L 36.723,59.129 c -1.071,1.125 -2.852,1.172 -3.977,0.098 -1.125,-1.071 -1.168,-2.852 -0.094,-3.977 L 49.559,37.5 32.652,19.754 c -1.074,-1.125 -1.031,-2.906 0.094,-3.977 z m -15,0 c 1.125,-1.074 2.906,-1.031 3.977,0.094 L 40.48,35.562 c 1.032,1.086 1.032,2.793 0,3.879 L 21.723,59.129 c -1.071,1.125 -2.852,1.172 -3.977,0.098 -1.125,-1.071 -1.168,-2.852 -0.094,-3.977 L 34.559,37.5 17.652,19.754 c -1.074,-1.125 -1.031,-2.906 0.094,-3.977 z" style="fill:currentColor;fill-opacity:1;fill-rule:nonzero;stroke:none" transform="scale(1.3333333)" /> </g>
</svg>

