<?xml version="1.0" encoding="UTF-8" standalone="no"?> <svg version="1.1" id="Ibb99f3d7237445238328e1f4ed7fb0e720251106164749" width="100" height="100" viewBox="0 0 100 100" xmlns="http://www.w3.org/2000/svg" xmlns:svg="http://www.w3.org/2000/svg"> <defs id="I1330f83499f446eba36fdc3fff43653920251106164749" /> <g id="Iae57ab2708064404b95a37306c720d4620251106164749"> <path id="Icda91cc8de564db49607f1059e81307f20251106164749" d="M 4.688,37.5 C 4.688,19.379 19.379,4.688 37.5,4.688 55.621,4.688 70.312,19.379 70.312,37.5 70.312,55.621 55.621,70.312 37.5,70.312 19.379,70.312 4.688,55.621 4.688,37.5 Z M 41.156,19.105 c 1.274,0.25 2.504,-0.574 2.754,-1.843 0.25,-1.27 -0.574,-2.504 -1.844,-2.754 -1.504,-0.297 -3.035,-0.446 -4.57,-0.446 -4.25,0 -8.426,1.157 -12.07,3.348 -3.645,2.188 -6.625,5.328 -8.625,9.086 -1.996,3.754 -2.934,7.981 -2.711,12.227 0.222,4.25 1.598,8.355 3.972,11.882 0.727,1.071 2.18,1.356 3.254,0.633 1.075,-0.726 1.356,-2.183 0.633,-3.254 -1.902,-2.82 -3,-6.105 -3.179,-9.504 -0.176,-3.398 0.574,-6.781 2.171,-9.785 1.598,-3.004 3.981,-5.515 6.899,-7.269 2.918,-1.75 6.258,-2.676 9.66,-2.676 1.227,0 2.453,0.117 3.656,0.355 z m 13.305,5.633 c -1.113,0.66 -1.484,2.098 -0.824,3.211 1.804,3.047 2.707,6.543 2.609,10.082 -0.101,3.539 -1.199,6.977 -3.168,9.918 -0.723,1.074 -0.433,2.531 0.641,3.254 1.074,0.719 2.531,0.43 3.25,-0.644 2.465,-3.676 3.84,-7.973 3.961,-12.399 0.125,-4.422 -1.004,-8.793 -3.258,-12.598 -0.66,-1.117 -2.098,-1.484 -3.211,-0.824 z m -5.262,-5.863 -2.472,1.973 c -1.497,1.187 -3.504,2.793 -5.551,4.453 -2.047,1.66 -4.149,3.367 -5.824,4.773 -0.836,0.703 -1.579,1.332 -2.157,1.844 -0.465,0.394 -0.902,0.816 -1.32,1.262 -0.992,1.164 -1.484,2.675 -1.367,4.199 0.121,1.527 0.844,2.945 2.008,3.937 1.164,0.996 2.675,1.489 4.199,1.368 1.527,-0.122 2.945,-0.84 3.937,-2.004 0.375,-0.481 0.723,-0.981 1.039,-1.5 0.414,-0.653 0.922,-1.481 1.481,-2.418 1.125,-1.875 2.488,-4.215 3.805,-6.5 1.316,-2.285 2.597,-4.516 3.535,-6.18 l 1.133,-2 0.425,-0.754 c 0.223,-0.387 0.297,-0.84 0.223,-1.281 -0.078,-0.438 -0.309,-0.836 -0.648,-1.129 -0.336,-0.289 -0.766,-0.453 -1.211,-0.461 -0.45,-0.008 -0.883,0.141 -1.235,0.418 z" style="fill:currentColor;fill-opacity:1;fill-rule:nonzero;stroke:none" transform="scale(1.3333333)" /> </g>
</svg>

