<?xml version="1.0" encoding="UTF-8" standalone="no"?> <svg version="1.1" id="I0e6b4a125c424320a01d3f36b2ddba8f20251110123029" width="100" height="100" viewBox="0 0 100 100" xmlns="http://www.w3.org/2000/svg" xmlns:svg="http://www.w3.org/2000/svg"> <defs id="Ie67b738de9394827aa62858ab4b1d39420251110123029" /> <g id="I494ceaf7e62f4276ad5800d82712837a20251110123029"> <path id="Ifab67407ad5a46bcac87d973edfc018620251110123029" d="m 4.688,24.609 c 0,-5.824 4.722,-10.547 10.546,-10.547 h 44.532 c 5.824,0 10.546,4.723 10.546,10.547 v 25.782 c 0,5.824 -4.722,10.547 -10.546,10.547 H 15.234 C 9.41,60.938 4.688,56.215 4.688,50.391 Z m 13.374,6.547 c -0.914,-0.918 -2.398,-0.918 -3.312,0 -0.918,0.914 -0.918,2.399 0,3.313 l 3.027,3.031 -3.027,3.031 c -0.918,0.914 -0.918,2.399 0,3.313 0.914,0.918 2.398,0.918 3.312,0 l 3.032,-3.028 3.031,3.028 c 0.914,0.918 2.398,0.918 3.313,0 0.917,-0.914 0.917,-2.399 0,-3.313 L 24.41,37.5 27.438,34.469 c 0.917,-0.914 0.917,-2.399 0,-3.313 -0.915,-0.918 -2.399,-0.918 -3.313,0 l -3.031,3.028 z m 14.266,0 c -0.918,0.914 -0.918,2.399 0,3.313 l 3.027,3.031 -3.027,3.031 c -0.918,0.914 -0.918,2.399 0,3.313 0.914,0.918 2.399,0.918 3.313,0 l 3.031,-3.028 3.031,3.028 c 0.914,0.918 2.399,0.918 3.313,0 0.918,-0.914 0.918,-2.399 0,-3.313 L 41.988,37.5 45.016,34.469 c 0.918,-0.914 0.918,-2.399 0,-3.313 -0.914,-0.918 -2.399,-0.918 -3.313,0 l -3.031,3.028 -3.031,-3.028 c -0.914,-0.918 -2.399,-0.918 -3.313,0 z m 19.234,8.688 c -1.292,0 -2.343,1.051 -2.343,2.344 0,1.292 1.051,2.343 2.343,2.343 h 7.032 c 1.293,0 2.344,-1.051 2.344,-2.343 0,-1.293 -1.051,-2.344 -2.344,-2.344 z" style="fill:currentColor;fill-opacity:1;fill-rule:nonzero;stroke:none" transform="scale(1.3333333)" /> </g>
</svg>

