<?xml version="1.0" encoding="UTF-8" standalone="no"?> <svg version="1.1" id="I816be323681b466c8aa83f19b7e586e120251106154012" width="100" height="100" viewBox="0 0 100 100" xmlns="http://www.w3.org/2000/svg" xmlns:svg="http://www.w3.org/2000/svg"> <defs id="I90e0d6b1817d4225b9f5a4898ed24d2720251106154012" /> <g id="I2f6957df2aaf4a498ebb3aff681d0fa720251106154012"> <path id="I90b8f5709c3f45d18c0d1d5ea2d6144320251106154012" d="m 62.5,20.312 c 0,6.903 -11.191,12.5 -25,12.5 -13.809,0 -25,-5.597 -25,-12.5 0,-6.902 11.191,-12.5 25,-12.5 13.809,0 25,5.598 25,12.5 z m -6.977,13.84 C 50.477,36.297 44.18,37.5 37.5,37.5 30.027,37.5 23.027,35.996 17.727,33.344 15.891,32.426 14.07,31.262 12.5,29.855 v 27.957 c 0,6.903 11.191,12.5 25,12.5 1.723,0 3.406,-0.085 5.031,-0.253 -1.293,-1.957 -1.906,-4.172 -1.906,-6.387 v -0.32 c 0,-4.79 3.883,-8.664 8.664,-8.664 h 0.867 c -2.023,-1.985 -3.281,-4.754 -3.281,-7.813 0,-4.277 2.457,-7.984 6.039,-9.781 1.223,-0.614 2.277,-1.614 2.609,-2.942 z m 10.102,12.723 c 0,4.316 -3.496,7.813 -7.813,7.813 -4.316,0 -7.812,-3.497 -7.812,-7.813 0,-4.316 3.496,-7.813 7.812,-7.813 4.317,0 7.813,3.497 7.813,7.813 z m 6.25,16.797 c 0,4.863 -4.02,9.766 -14.063,9.766 -10.042,0 -14.062,-4.883 -14.062,-9.766 v -0.32 c 0,-3.063 2.48,-5.54 5.539,-5.54 h 17.047 c 3.059,0 5.539,2.477 5.539,5.54 z" style="fill:currentColor;fill-opacity:1;fill-rule:nonzero;stroke:none" transform="scale(1.3333333)" /> </g>
</svg>

