<?xml version="1.0" encoding="UTF-8" standalone="no"?> <svg version="1.1" id="Ib8545b804f2f4480b9225d1d754937b820251106165301" width="100" height="100" viewBox="0 0 100 100" xmlns="http://www.w3.org/2000/svg" xmlns:svg="http://www.w3.org/2000/svg"> <defs id="Ib1c4e21b7391450e90c0b13bb01f16d820251106165301" /> <g id="Ib1d07a4c709444878e2f4da5e51e97d820251106165301"> <path id="I9cf0a271b36c465e8084ce948f5c088520251106165301" d="M 10.25,6.938 C 9.336,6.02 7.852,6.02 6.938,6.938 6.02,7.852 6.02,9.336 6.938,10.25 l 3.007,3.008 C 7.688,15.121 6.25,17.941 6.25,21.094 v 32.82 c 0,5.609 4.547,10.156 10.156,10.156 h 42.188 c 0.676,0 1.332,-0.062 1.972,-0.187 l 4.184,4.179 c 0.914,0.918 2.398,0.918 3.312,0 0.915,-0.914 0.915,-2.398 0,-3.312 z M 56.07,59.383 H 16.406 c -3.019,0 -5.468,-2.445 -5.468,-5.469 v -32.82 c 0,-1.86 0.929,-3.504 2.351,-4.492 l 11.82,11.824 c -0.531,0.347 -0.879,0.949 -0.879,1.633 l -0.003,5.523 h -4.629 v -5.473 l -0.02,-0.289 c -0.14,-0.941 -0.949,-1.664 -1.933,-1.664 -1.079,0 -1.954,0.875 -1.954,1.953 v 14.852 l 0.024,0.289 c 0.14,0.941 0.949,1.664 1.93,1.664 1.082,0 1.953,-0.875 1.953,-1.953 v -5.473 h 4.629 l 0.003,5.418 0.02,0.289 c 0.141,0.942 0.953,1.664 1.934,1.664 1.078,0 1.953,-0.875 1.953,-1.953 V 31.449 l 3.113,3.113 v 10.352 l 0.02,0.289 c 0.14,0.942 0.953,1.664 1.933,1.664 h 2.344 l 0.519,-0.015 c 2.008,-0.125 3.825,-0.973 5.184,-2.29 z m -20.918,-20.914 3.332,3.332 c -0.765,0.719 -1.8,1.16 -2.937,1.16 h -0.395 z m 15.657,2.398 -3.914,-3.914 -0.008,-6.824 c 0,-0.981 0.722,-1.793 1.664,-1.934 l 0.289,-0.019 h 4.914 c 3.113,0 5.637,2.523 5.637,5.636 0,1.93 -0.969,3.637 -2.45,4.653 l 2.309,5.726 c 0.402,1.004 -0.082,2.141 -1.082,2.543 -0.508,0.204 -1.051,0.18 -1.512,-0.023 L 55.66,45.715 55.629,45.652 53.125,39.449 h -2.316 z m -0.012,-5.324 2.957,0.004 c 0.957,0 1.73,-0.777 1.73,-1.735 0,-0.859 -0.625,-1.574 -1.449,-1.71 l -0.281,-0.02 -2.957,-0.004 z m 13.262,18.574 c 0.003,-0.066 0.003,-0.133 0.003,-0.203 v -32.82 c 0,-3.02 -2.449,-5.469 -5.468,-5.469 H 25.57 l -4.687,-4.687 h 37.711 c 5.609,0 10.156,4.546 10.156,10.156 v 32.82 c 0,1.441 -0.301,2.813 -0.84,4.055 z" style="fill:currentColor;fill-opacity:1;fill-rule:nonzero;stroke:none" transform="scale(1.3333333)" /> </g>
</svg>

