<?xml version="1.0" encoding="UTF-8" standalone="no"?> <svg version="1.1" id="I71f68855269548a6b3e169c9f11ff53620251106144521" width="100" height="100" viewBox="0 0 100 100" xmlns="http://www.w3.org/2000/svg" xmlns:svg="http://www.w3.org/2000/svg"> <defs id="Id0b6d1c6b5ce420b852bf1e05756715120251106144521" /> <g id="I6b362817785543b984a2f532a58bb80b20251106144521"> <path id="I92ec7d14f4c74b549adfa7ff307fbb3b20251106144521" d="m 50.875,30.562 c 0.914,-0.914 0.914,-2.398 0,-3.312 -0.914,-0.918 -2.398,-0.918 -3.313,0 L 33.594,41.215 28.988,36.613 c -0.914,-0.918 -2.398,-0.918 -3.312,0 -0.918,0.914 -0.918,2.399 0,3.313 l 6.262,6.262 c 0.914,0.914 2.398,0.914 3.312,0 z M 19.531,9.375 c -5.609,0 -10.156,4.547 -10.156,10.156 v 35.938 c 0,5.609 4.547,10.156 10.156,10.156 h 35.938 c 5.609,0 10.156,-4.547 10.156,-10.156 V 19.531 c 0,-5.609 -4.547,-10.156 -10.156,-10.156 z m -5.469,10.156 c 0,-3.019 2.45,-5.469 5.469,-5.469 h 35.938 c 3.019,0 5.469,2.45 5.469,5.469 v 35.938 c 0,3.019 -2.45,5.469 -5.469,5.469 H 19.531 c -3.019,0 -5.469,-2.45 -5.469,-5.469 z" style="fill:currentColor;fill-opacity:1;fill-rule:nonzero;stroke:none" transform="scale(1.3333333)" /> </g>
</svg>

