<?xml version="1.0" encoding="UTF-8" standalone="no"?> <svg version="1.1" id="I727679d2a97e471ea912ce614a20b27420251106161453" width="100" height="100" viewBox="0 0 100 100" xmlns="http://www.w3.org/2000/svg" xmlns:svg="http://www.w3.org/2000/svg"> <defs id="Ic6f38770532841659e62276e73d28bc620251106161453" /> <g id="Ic3b8e48e33b441c68708f47f29cc727a20251106161453"> <path id="I59777f208865497b93fd131414db2b4820251106161453" d="m 57.812,62.5 c 0,0.859 -0.699,1.562 -1.562,1.562 H 38.336 c -0.898,1.723 -2.035,3.301 -3.367,4.688 H 56.25 c 3.449,0 6.25,-2.801 6.25,-6.25 V 30.711 c 0,-1.656 -0.66,-3.246 -1.832,-4.418 L 42.453,8.082 C 42.406,8.035 42.352,7.992 42.301,7.953 42.262,7.926 42.223,7.895 42.188,7.863 41.965,7.664 41.746,7.465 41.504,7.301 41.426,7.246 41.336,7.203 41.25,7.164 41.203,7.137 41.152,7.113 41.102,7.086 41.051,7.059 41,7.027 40.945,6.996 40.777,6.898 40.609,6.801 40.43,6.727 39.812,6.469 39.148,6.34 38.477,6.293 38.418,6.289 38.355,6.281 38.293,6.273 38.211,6.262 38.125,6.25 38.039,6.25 H 18.75 c -3.449,0 -6.25,2.801 -6.25,6.25 v 23.434 c 1.48,-0.622 3.051,-1.067 4.688,-1.321 V 12.5 c 0,-0.859 0.699,-1.562 1.562,-1.562 H 37.5 V 25 c 0,3.449 2.801,6.25 6.25,6.25 H 57.812 Z M 42.188,14.441 54.305,26.562 H 43.75 c -0.863,0 -1.562,-0.703 -1.562,-1.562 z M 3.125,54.688 c 0,9.492 7.695,17.187 17.187,17.187 C 29.805,71.875 37.5,64.18 37.5,54.688 37.5,45.195 29.805,37.5 20.312,37.5 10.82,37.5 3.125,45.195 3.125,54.688 Z M 29.688,43.75 c 0.863,0 1.562,0.699 1.562,1.562 v 6.25 c 0,0.864 -0.699,1.563 -1.562,1.563 h -6.25 c -0.864,0 -1.563,-0.699 -1.563,-1.563 0,-0.863 0.699,-1.562 1.563,-1.562 h 3.124 c -1.425,-1.898 -3.695,-3.125 -6.25,-3.125 -2.605,0 -4.91,1.273 -6.332,3.238 -0.507,0.699 -1.484,0.856 -2.183,0.348 -0.699,-0.504 -0.856,-1.481 -0.348,-2.18 1.985,-2.742 5.215,-4.531 8.863,-4.531 3.063,0 5.829,1.258 7.813,3.281 v -1.719 c 0,-0.863 0.699,-1.562 1.563,-1.562 z M 12.5,62.344 v 1.718 c 0,0.864 -0.699,1.563 -1.562,1.563 -0.864,0 -1.563,-0.699 -1.563,-1.563 v -6.25 c 0,-0.863 0.699,-1.562 1.563,-1.562 h 6.25 c 0.863,0 1.562,0.699 1.562,1.562 0,0.864 -0.699,1.563 -1.562,1.563 h -3.126 c 1.426,1.898 3.696,3.125 6.25,3.125 2.395,0 4.536,-1.074 5.973,-2.777 0.555,-0.657 1.543,-0.743 2.203,-0.184 0.657,0.555 0.742,1.543 0.184,2.203 -2.004,2.371 -5.004,3.883 -8.36,3.883 -3.062,0 -5.828,-1.258 -7.812,-3.281 z" style="fill:currentColor;fill-opacity:1;fill-rule:nonzero;stroke:none" transform="scale(1.3333333)" /> </g>
</svg>

