<?xml version="1.0" encoding="UTF-8" standalone="no"?> <svg version="1.1" id="I345928a636054842b9993be44d53ae2720251110124420" width="100" height="100" viewBox="0 0 100 100" xmlns="http://www.w3.org/2000/svg" xmlns:svg="http://www.w3.org/2000/svg"> <defs id="I563fa6318179447c9f015cd807fbd0f520251110124420" /> <g id="Ief8684b954c543b9a5242529a4dcb48a20251110124420"> <path id="I96b0dbfef65f424b85c8806582f4e35620251110124420" d="M 21.875,56.25 H 62.5 c 1.293,0 2.344,1.051 2.344,2.344 0,1.187 -0.883,2.168 -2.028,2.324 L 62.5,60.938 H 21.875 c -1.293,0 -2.344,-1.051 -2.344,-2.344 0,-1.188 0.883,-2.168 2.028,-2.324 z m 31.25,-9.375 c 1.293,0 2.344,1.051 2.344,2.344 0,1.187 -0.883,2.168 -2.028,2.324 l -0.316,0.019 H 12.5 c -1.293,0 -2.344,-1.05 -2.344,-2.343 0,-1.188 0.883,-2.168 2.028,-2.324 L 12.5,46.875 Z M 62.5,37.5 c 1.293,0 2.344,1.051 2.344,2.344 0,1.187 -0.883,2.168 -2.028,2.324 L 62.5,42.188 H 21.875 c -1.293,0 -2.344,-1.051 -2.344,-2.344 0,-1.188 0.883,-2.168 2.028,-2.324 L 21.875,37.5 Z M 18.75,15.625 c 3.531,0 6.66,2.148 7.965,5.363 0.488,1.2 -0.09,2.567 -1.289,3.055 -1.102,0.445 -2.34,-0.004 -2.914,-1.004 L 22.371,22.75 c -0.594,-1.461 -2.016,-2.438 -3.621,-2.438 -2.156,0 -3.906,1.75 -3.906,3.907 0,2.156 1.75,3.906 3.906,3.906 h 35.938 c 1.292,0 2.343,1.051 2.343,2.344 0,1.187 -0.883,2.168 -2.027,2.324 l -0.316,0.019 H 18.75 c -4.746,0 -8.594,-3.847 -8.594,-8.593 0,-4.746 3.848,-8.594 8.594,-8.594 z M 62.5,18.75 c 1.293,0 2.344,1.051 2.344,2.344 0,1.187 -0.883,2.168 -2.028,2.324 L 62.5,23.438 H 34.375 c -1.293,0 -2.344,-1.051 -2.344,-2.344 0,-1.188 0.883,-2.168 2.028,-2.324 l 0.316,-0.02 z" style="fill:currentColor;fill-opacity:1;fill-rule:nonzero;stroke:none" transform="scale(1.3333333)" /> </g>
</svg>

