<?xml version="1.0" encoding="UTF-8" standalone="no"?> <svg version="1.1" id="I8c3c5d2397224f1890bf2342c50a5f4a20251110133654" width="100" height="100" viewBox="0 0 100 100" xmlns="http://www.w3.org/2000/svg" xmlns:svg="http://www.w3.org/2000/svg"> <defs id="Ic1d1c0043f954446b58c67e236725a3020251110133654" /> <g id="Id419bbdc35234217bb869eec120d3d2420251110133654"> <path id="If55466a43cc44ff293d67e9878ce228520251110133655" d="m 13.402,26.117 c 0,-5.547 4.5,-10.047 10.047,-10.047 h 20.09 c 5.102,0 9.316,3.809 9.957,8.739 l 7.856,-5.168 c 3.562,-2.344 8.304,0.211 8.304,4.476 v 21.41 c 0,4.262 -4.742,6.817 -8.304,4.473 l -7.856,-5.168 c -0.641,4.93 -4.855,8.738 -9.957,8.738 h -20.09 c -5.547,0 -10.047,-4.496 -10.047,-10.043 z m 40.18,13.961 9.98,6.567 c 0.891,0.585 2.075,-0.051 2.075,-1.118 v -21.41 c 0,-1.066 -1.184,-1.707 -2.075,-1.121 l -9.98,6.566 z M 23.449,20.09 c -3.328,0 -6.027,2.699 -6.027,6.027 v 17.41 c 0,3.328 2.699,6.028 6.027,6.028 h 20.09 c 3.328,0 6.023,-2.7 6.023,-6.028 v -17.41 c 0,-3.328 -2.695,-6.027 -6.023,-6.027 z M 6.695,32.812 c 0,-3.292 1.582,-6.21 4.032,-8.042 v 7.683 c -0.008,0.117 -0.012,0.238 -0.012,0.359 v 10.715 c 0,7.028 5.695,12.723 12.723,12.723 h 20.101 c 0.465,0 0.93,-0.027 1.383,-0.074 -1.828,2.48 -4.774,4.09 -8.09,4.09 H 23.438 c -9.247,0 -16.743,-7.493 -16.743,-16.739 z" style="fill:currentColor;fill-opacity:1;fill-rule:nonzero;stroke:none" transform="scale(1.3333333)" /> </g>
</svg>

