<?xml version="1.0" encoding="UTF-8" standalone="no"?> <svg version="1.1" id="I6894533eccc44eba9ee472eca9fb1b0920251106143239" width="100" height="100" viewBox="0 0 100 100" xmlns="http://www.w3.org/2000/svg" xmlns:svg="http://www.w3.org/2000/svg"> <defs id="I2febcf869f1f4448beb434695aacc77520251106143239" /> <g id="I976e3e55b6dc4e1ea0f62058c959e5f920251106143239"> <path id="I489a43ba309843d1ab127c8d68611b5020251106143239" d="m 55.469,9.375 c 5.609,0 10.156,4.547 10.156,10.156 v 35.938 c 0,5.609 -4.547,10.156 -10.156,10.156 H 19.531 C 13.922,65.625 9.375,61.078 9.375,55.469 V 19.531 c 0,-5.609 4.547,-10.156 10.156,-10.156 z m 0,4.687 H 19.531 c -3.019,0 -5.469,2.45 -5.469,5.469 v 35.938 c 0,3.019 2.45,5.469 5.469,5.469 h 35.938 c 3.019,0 5.469,-2.45 5.469,-5.469 V 19.531 c 0,-3.019 -2.45,-5.469 -5.469,-5.469 z m -31.25,7.813 c 1.187,0 2.168,0.883 2.324,2.027 l 0.019,0.317 v 3.125 c 0,1.293 -1.05,2.344 -2.343,2.344 -1.188,0 -2.168,-0.883 -2.324,-2.028 l -0.02,-0.316 v -3.125 c 0,-1.293 1.051,-2.344 2.344,-2.344 z m 2.324,25.465 c -0.156,-1.145 -1.137,-2.028 -2.324,-2.028 -1.293,0 -2.344,1.051 -2.344,2.344 v 3.125 l 0.02,0.317 c 0.156,1.144 1.136,2.027 2.324,2.027 1.293,0 2.343,-1.051 2.343,-2.344 v -3.125 z m 0.019,-11.961 c -0.156,-1.145 -1.136,-2.027 -2.324,-2.027 -1.293,0 -2.343,1.05 -2.343,2.343 l -0.02,3.59 0.02,0.317 c 0.156,1.144 1.136,2.027 2.324,2.027 1.293,0 2.343,-1.051 2.343,-2.344 l 0.02,-3.59 z" style="fill:currentColor;fill-opacity:1;fill-rule:nonzero;stroke:none" transform="scale(1.3333333)" /> </g>
</svg>

