<?xml version="1.0" encoding="UTF-8" standalone="no"?> <svg version="1.1" id="I166046d58c2c4a53b2720add0b9ab08820251106132945" width="100" height="100" viewBox="0 0 100 100" xmlns="http://www.w3.org/2000/svg" xmlns:svg="http://www.w3.org/2000/svg"> <defs id="I43ca4b61a6c748a9a74916c9d5e85a6920251106132945" /> <g id="I9552b732a5214826aa3d33f246170ff320251106132945"> <path id="Ife1ba932a314496daf6f6003150c0f8a20251106132945" d="M 59.344,7.977 C 49.48,2.281 36.871,5.66 31.18,15.523 l -0.778,1.344 c -0.265,0.461 -0.336,1.008 -0.199,1.524 0.137,0.515 0.473,0.953 0.934,1.218 l 14.629,8.446 -8.754,15.32 h -0.18 c -8.461,0 -15.785,4.906 -20.152,11.844 0.5,-0.176 1.027,-0.281 1.574,-0.305 1.074,-0.043 2.101,0.238 2.976,0.766 3.782,-5 9.422,-8.289 15.602,-8.289 6.438,0 12.297,3.578 16.07,8.937 0.973,-0.894 2.27,-1.426 3.657,-1.418 0.078,0 0.152,0.004 0.23,0.008 -3.57,-5.512 -9.023,-9.695 -15.422,-11.063 l 7.879,-13.789 14.125,8.153 c 0.461,0.265 1.008,0.34 1.524,0.203 0.515,-0.141 0.953,-0.477 1.218,-0.938 l 0.778,-1.343 c 5.691,-9.86 2.312,-22.473 -7.547,-28.164 z m -5.867,19.89 -8.457,-4.883 c 1.535,-2.359 2.992,-4.156 4.738,-5.746 1.699,-1.547 3.73,-2.945 6.484,-4.465 0.406,2.559 0.531,4.688 0.27,6.774 -0.313,2.496 -1.196,5.07 -3.035,8.32 z m 3.48,2.008 c 2.031,-3.582 3.148,-6.668 3.543,-9.828 0.258,-2.074 0.199,-4.121 -0.059,-6.281 5.36,5.058 6.832,13.246 3.192,19.964 z M 47.055,14.266 c -2.117,1.925 -3.817,4.07 -5.52,6.707 l -6.644,-3.836 c 3.918,-6.379 11.507,-9.211 18.449,-7.34 -2.488,1.433 -4.512,2.855 -6.285,4.469 z m -26.68,45.371 c -0.281,-0.852 -1.094,-1.41 -1.988,-1.375 -0.895,0.035 -1.657,0.66 -1.871,1.531 -0.68,2.789 -1.973,4.32 -3.45,5.211 -1.543,0.93 -3.504,1.293 -5.699,1.293 -1.109,0 -2.012,0.898 -2.012,2.008 0,1.109 0.903,2.007 2.012,2.007 2.563,0 5.356,-0.406 7.778,-1.871 1.398,-0.843 2.605,-1.996 3.554,-3.503 4.793,6.113 14.149,6.082 18.801,-0.067 4.727,6.246 14.305,6.18 19.023,-0.226 2.61,3.585 6.864,5.667 11.11,5.667 1.109,0 2.012,-0.898 2.012,-2.007 0,-1.11 -0.903,-2.008 -2.012,-2.008 -3.949,0 -7.887,-2.574 -9.188,-6.641 -0.265,-0.828 -1.031,-1.39 -1.902,-1.398 -0.871,-0.004 -1.645,0.554 -1.918,1.379 -2.582,7.789 -12.691,7.691 -15.227,0.324 -0.277,-0.813 -1.039,-1.356 -1.898,-1.356 -0.859,0 -1.621,0.543 -1.898,1.356 -2.536,7.367 -12.645,7.465 -15.227,-0.324 z" style="fill:currentColor;fill-opacity:1;fill-rule:nonzero;stroke:none" transform="scale(1.3333333)" /> </g>
</svg>

