<?xml version="1.0" encoding="UTF-8" standalone="no"?> <svg version="1.1" id="I522915e43a0d4acfaba846145ffe02b620251106123559" width="100" height="100" viewBox="0 0 100 100" xmlns="http://www.w3.org/2000/svg" xmlns:svg="http://www.w3.org/2000/svg"> <defs id="Ifbc783bae91a480885565faabc265b1f20251106123559" /> <g id="If8597afab56d41708b05a1bb63a3ed9020251106123559"> <path id="I76176594eeef4ce2adf41cdfc015b88f20251106123559" d="m 42.723,46.34 c -1.11,0 -2.008,0.898 -2.008,2.008 0,1.109 0.898,2.007 2.008,2.007 h 12.054 c 1.11,0 2.008,-0.898 2.008,-2.007 0,-1.11 -0.898,-2.008 -2.008,-2.008 z M 37.5,69.645 C 55.254,69.645 69.645,55.254 69.645,37.5 69.645,19.746 55.254,5.355 37.5,5.355 19.746,5.355 5.355,19.746 5.355,37.5 c 0,17.754 14.391,32.145 32.145,32.145 z m 0,-4.02 c -7.043,0 -13.484,-2.59 -18.418,-6.867 L 58.758,19.082 c 4.277,4.934 6.867,11.375 6.867,18.418 0,15.531 -12.594,28.125 -28.125,28.125 z M 18.75,27.457 c 0,-1.109 0.898,-2.012 2.008,-2.012 h 4.672 l -0.008,-4.816 c -0.004,-1.109 0.894,-2.012 2.004,-2.012 1.109,-0.004 2.012,0.895 2.012,2.004 l 0.011,4.824 h 4.703 c 1.11,0 2.008,0.903 2.008,2.012 0,1.109 -0.898,2.008 -2.008,2.008 h -4.695 l 0.008,4.683 c 0.004,1.11 -0.895,2.012 -2.004,2.012 -1.109,0.004 -2.012,-0.894 -2.016,-2.004 l -0.007,-4.691 h -4.68 c -1.11,0 -2.008,-0.899 -2.008,-2.008 z" style="fill:currentColor;fill-opacity:1;fill-rule:nonzero;stroke:none" transform="scale(1.3333333)" /> </g>
</svg>

