<?xml version="1.0" encoding="UTF-8" standalone="no"?> <svg version="1.1" id="I9c213798a0c846378a8f768c1533e5fe20251106164749" width="100" height="100" viewBox="0 0 100 100" xmlns="http://www.w3.org/2000/svg" xmlns:svg="http://www.w3.org/2000/svg"> <defs id="Ifa3ad8817f3047caae27e29a62395e5a20251106164749" /> <g id="I3257f39276b34fc0a3c4c877e4ebbfd720251106164749"> <path id="I9ddb1fce7c0945cbb744030677d677b020251106164749" d="M 35.156,40.625 V 68.75 h -12.5 C 17.047,68.75 12.5,64.203 12.5,58.594 V 40.625 Z m 27.344,0 v 17.969 c 0,5.609 -4.547,10.156 -10.156,10.156 h -12.5 V 40.625 Z M 45.312,6.25 c 5.61,0 10.157,4.547 10.157,10.156 0,2.016 -0.586,3.895 -1.602,5.473 l 7.852,-0.004 c 2.156,0 3.906,1.457 3.906,3.254 v 9.117 c 0,1.797 -1.75,3.254 -3.906,3.254 L 39.844,37.496 V 21.875 H 35.156 V 37.496 L 13.281,37.5 c -2.156,0 -3.906,-1.457 -3.906,-3.254 v -9.117 c 0,-1.797 1.75,-3.254 3.906,-3.254 l 7.852,0.004 c -1.016,-1.578 -1.602,-3.457 -1.602,-5.473 0,-5.609 4.547,-10.156 10.157,-10.156 3.14,0 5.953,1.426 7.812,3.668 1.859,-2.242 4.672,-3.668 7.812,-3.668 z m -15.624,4.688 c -3.02,0 -5.469,2.449 -5.469,5.468 0,2.871 2.211,5.223 5.019,5.449 l 0.45,0.02 h 5.468 V 16.406 L 35.137,15.957 C 34.91,13.148 32.559,10.938 29.688,10.938 Z m 15.624,0 c -3.019,0 -5.468,2.449 -5.468,5.468 v 5.469 h 5.468 c 3.02,0 5.469,-2.449 5.469,-5.469 0,-3.019 -2.449,-5.468 -5.469,-5.468 z" style="fill:currentColor;fill-opacity:1;fill-rule:nonzero;stroke:none" transform="scale(1.3333333)" /> </g>
</svg>

