<?xml version="1.0" encoding="UTF-8" standalone="no"?> <svg version="1.1" id="I6b0cc009ddbf49c6acfd1c167e5089b120251106103256" width="100" height="100" viewBox="0 0 100 100" xmlns="http://www.w3.org/2000/svg" xmlns:svg="http://www.w3.org/2000/svg"> <defs id="I5ad954f791644c8b8333e574ef2e1d6620251106103256" /> <g id="Ib528836e615b4bddb2c81ebb5c0ff97c20251106103256"> <path id="I111fe4c1100a4698b67726df14c4943320251106103256" d="M 74.332,60.938 H 0.668 C 0.301,60.938 0,61.238 0,61.605 v 4.688 c 0,0.371 0.301,0.672 0.668,0.672 h 73.664 c 0.367,0 0.668,-0.301 0.668,-0.672 v -4.688 c 0,-0.367 -0.301,-0.667 -0.668,-0.667 z m 0,-52.903 H 0.668 C 0.301,8.035 0,8.336 0,8.707 v 4.688 c 0,0.367 0.301,0.667 0.668,0.667 h 73.664 c 0.367,0 0.668,-0.3 0.668,-0.667 L 75,8.707 C 75,8.336 74.699,8.035 74.332,8.035 Z M 45.535,49.887 c 0.738,0 1.34,-0.602 1.34,-1.336 V 26.449 c 0,-0.734 -0.602,-1.336 -1.34,-1.336 H 2.68 c -0.739,0 -1.34,0.602 -1.34,1.336 v 22.102 c 0,0.734 0.601,1.336 1.34,1.336 z M 7.367,31.137 H 40.848 V 43.863 H 7.367 Z M 53.57,48.715 c 0,0.371 0.301,0.672 0.672,0.672 h 18.75 c 0.367,0 0.668,-0.301 0.668,-0.672 v -4.688 c 0,-0.367 -0.301,-0.668 -0.668,-0.668 h -18.75 c -0.371,0 -0.672,0.301 -0.672,0.668 z m 0.672,-17.074 h 18.75 c 0.367,0 0.668,-0.301 0.668,-0.668 v -4.688 c 0,-0.371 -0.301,-0.672 -0.668,-0.672 h -18.75 c -0.371,0 -0.672,0.301 -0.672,0.672 v 4.688 c 0,0.367 0.301,0.668 0.672,0.668 z" style="fill:currentColor;fill-opacity:1;fill-rule:nonzero;stroke:none" transform="scale(1.3333333)" /> </g>
</svg>

