<?xml version="1.0" encoding="UTF-8" standalone="no"?> <svg version="1.1" id="I60da33033a1d4ec1abe9a2f19af7a2e220251106161453" width="100" height="100" viewBox="0 0 100 100" xmlns="http://www.w3.org/2000/svg" xmlns:svg="http://www.w3.org/2000/svg"> <defs id="I823bfa4bae674d44b443f1157fb938f720251106161453" /> <g id="I3574f2a0f9544156b128ab16d861800e20251106161453"> <path id="I3bc958a89baa49ba8ebd65988199383d20251106161453" d="m 68.75,20.312 c 0,9.493 -7.695,17.188 -17.188,17.188 -9.492,0 -17.187,-7.695 -17.187,-17.188 0,-9.492 7.695,-17.187 17.187,-17.187 9.493,0 17.188,7.695 17.188,17.187 z M 50,14.711 v 14.977 c 0,0.863 0.699,1.562 1.562,1.562 0.864,0 1.563,-0.699 1.563,-1.562 V 14.711 l 5.145,5.144 c 0.609,0.61 1.601,0.61 2.21,0 0.61,-0.609 0.61,-1.601 0,-2.21 L 52.668,9.832 c -0.609,-0.609 -1.602,-0.609 -2.211,0 l -7.812,7.813 c -0.61,0.609 -0.61,1.601 0,2.21 0.609,0.61 1.601,0.61 2.21,0 z m -18.75,5.601 c 0,-0.523 0.02,-1.042 0.059,-1.558 h -19.59 c -3.02,0 -5.469,2.449 -5.469,5.469 V 63.27 c 0,3.019 2.449,5.468 5.469,5.468 h 23.429 v 0.008 h 28.118 c 3.019,0 5.468,-2.449 5.468,-5.469 l 0.004,-32.113 c -1.258,1.981 -2.843,3.731 -4.687,5.172 l -0.004,26.941 c 0,0.434 -0.348,0.782 -0.781,0.782 H 39.836 V 36.898 c -1.801,-1.273 -3.387,-2.836 -4.691,-4.621 l 0.003,31.774 H 11.719 c -0.43,0 -0.781,-0.348 -0.781,-0.781 V 24.223 c 0,-0.43 0.351,-0.782 0.781,-0.782 l 19.769,0.004 C 31.332,22.422 31.25,21.379 31.25,20.312 Z m 21.84,36.719 c 0,-1.293 -1.051,-2.343 -2.344,-2.343 h -4.687 l -0.317,0.019 c -1.144,0.156 -2.027,1.137 -2.027,2.324 0,1.293 1.051,2.344 2.344,2.344 h 4.687 l 0.316,-0.02 c 1.145,-0.156 2.028,-1.136 2.028,-2.324 z m -21.863,0 c 0,-1.293 -1.047,-2.343 -2.344,-2.343 h -4.692 l -0.316,0.019 c -1.145,0.156 -2.027,1.137 -2.027,2.324 0,1.293 1.05,2.344 2.343,2.344 h 4.692 l 0.32,-0.02 c 1.145,-0.156 2.024,-1.136 2.024,-2.324 z" style="fill:currentColor;fill-opacity:1;fill-rule:nonzero;stroke:none" transform="scale(1.3333333)" /> </g>
</svg>

