<?xml version="1.0" encoding="UTF-8" standalone="no"?> <svg version="1.1" id="I8a1d90d9ba9b47ffb3d31e69a41f5c8720251106152729" width="100" height="100" viewBox="0 0 100 100" xmlns="http://www.w3.org/2000/svg" xmlns:svg="http://www.w3.org/2000/svg"> <defs id="I14b150bd1190431388459368aa632e7720251106152729" /> <g id="I827d6a0a09034e428d971d37ebcd13e620251106152729"> <path id="Id81db9c5a630491da4e5ce1d39407a4b20251106152729" d="m 28.906,10.938 c -3.019,0 -5.468,2.449 -5.468,5.468 v 3.125 c 0,1.293 -1.051,2.344 -2.344,2.344 -1.293,0 -2.344,-1.051 -2.344,-2.344 V 16.406 C 18.75,10.797 23.297,6.25 28.906,6.25 h 3.125 c 1.293,0 2.344,1.051 2.344,2.344 0,1.293 -1.051,2.344 -2.344,2.344 z M 37.5,8.594 c 0,-1.293 1.051,-2.344 2.344,-2.344 h 7.812 c 1.293,0 2.344,1.051 2.344,2.344 0,1.293 -1.051,2.344 -2.344,2.344 H 39.844 C 38.551,10.938 37.5,9.887 37.5,8.594 Z m 2.344,42.968 c -1.293,0 -2.344,1.051 -2.344,2.344 0,1.293 1.051,2.344 2.344,2.344 h 7.812 C 48.949,56.25 50,55.199 50,53.906 50,52.613 48.949,51.562 47.656,51.562 Z M 21.094,25 c 1.293,0 2.344,1.051 2.344,2.344 v 7.812 c 0,1.293 -1.051,2.344 -2.344,2.344 -1.293,0 -2.344,-1.051 -2.344,-2.344 V 27.344 C 18.75,26.051 19.801,25 21.094,25 Z M 68.75,27.344 C 68.75,26.051 67.699,25 66.406,25 c -1.293,0 -2.344,1.051 -2.344,2.344 v 7.812 c 0,1.293 1.051,2.344 2.344,2.344 1.293,0 2.344,-1.051 2.344,-2.344 z M 58.594,51.562 c 3.019,0 5.468,-2.449 5.468,-5.468 v -3.125 c 0,-1.293 1.051,-2.344 2.344,-2.344 1.293,0 2.344,1.051 2.344,2.344 v 3.125 c 0,5.609 -4.547,10.156 -10.156,10.156 h -3.125 c -1.293,0 -2.344,-1.051 -2.344,-2.344 0,-1.293 1.051,-2.344 2.344,-2.344 z m 5.468,-35.156 c 0,-3.019 -2.449,-5.468 -5.468,-5.468 h -3.125 c -1.293,0 -2.344,-1.051 -2.344,-2.344 0,-1.293 1.051,-2.344 2.344,-2.344 h 3.125 c 5.609,0 10.156,4.547 10.156,10.156 v 3.125 c 0,1.293 -1.051,2.344 -2.344,2.344 -1.293,0 -2.344,-1.051 -2.344,-2.344 z M 28.906,51.562 c -3.019,0 -5.468,-2.449 -5.468,-5.468 v -3.125 c 0,-1.293 -1.051,-2.344 -2.344,-2.344 -1.293,0 -2.344,1.051 -2.344,2.344 v 3.125 c 0,5.609 4.547,10.156 10.156,10.156 h 3.125 c 1.293,0 2.344,-1.051 2.344,-2.344 0,-1.293 -1.051,-2.344 -2.344,-2.344 z M 6.25,28.906 c 0,-5.347 4.133,-9.726 9.375,-10.125 v 28.094 c 0,6.902 5.598,12.5 12.5,12.5 H 56.219 C 55.82,64.617 51.441,68.75 46.094,68.75 H 24.219 C 14.293,68.75 6.25,60.703 6.25,50.781 Z" style="fill:currentColor;fill-opacity:1;fill-rule:nonzero;stroke:none" transform="scale(1.3333333)" /> </g>
</svg>

