<?xml version="1.0" encoding="UTF-8" standalone="no"?> <svg version="1.1" id="I44b1450983ac4c8b93d27974f59cbe6c20251106154012" width="100" height="100" viewBox="0 0 100 100" xmlns="http://www.w3.org/2000/svg" xmlns:svg="http://www.w3.org/2000/svg"> <defs id="Ifa8dc99b3b7047cfa609b35b8c53360e20251106154012" /> <g id="I3a2ec0ae7c9848e7a405b8e12a0ce60520251106154012"> <path id="I8a47f93096074d308cfc2b197f64f1d420251106154012" d="m 47.656,6.25 c 1.188,0 2.168,0.883 2.324,2.027 L 50,8.594 v 7.265 c 4.598,0.934 8.215,4.555 9.145,9.153 l 7.261,0.004 c 1.293,0 2.344,1.05 2.344,2.343 0,1.188 -0.883,2.168 -2.027,2.321 l -0.317,0.023 -7.031,-0.004 v 5.469 l 7.031,0.004 c 1.188,0 2.168,0.883 2.324,2.027 l 0.02,0.317 c 0,1.187 -0.883,2.168 -2.027,2.32 l -0.317,0.023 -7.031,-0.004 v 5.469 l 7.031,0.004 c 1.188,0 2.168,0.883 2.324,2.027 l 0.02,0.317 c 0,1.187 -0.883,2.168 -2.027,2.32 l -0.317,0.024 H 59.137 C 58.199,54.598 54.586,58.207 50,59.141 v 7.265 c 0,1.293 -1.051,2.344 -2.344,2.344 -1.187,0 -2.168,-0.883 -2.324,-2.027 l -0.02,-0.317 V 59.371 H 39.84 l 0.004,7.035 c 0,1.188 -0.883,2.168 -2.028,2.324 L 37.5,68.75 c -1.188,0 -2.168,-0.883 -2.324,-2.027 l -0.02,-0.317 -0.004,-7.035 h -5.464 v 7.035 c 0,1.188 -0.883,2.168 -2.028,2.324 l -0.316,0.02 c -1.188,0 -2.168,-0.883 -2.324,-2.027 L 25,66.406 V 59.141 C 20.41,58.211 16.793,54.594 15.859,50 H 8.594 C 7.301,50 6.25,48.949 6.25,47.656 c 0,-1.187 0.883,-2.168 2.027,-2.324 l 0.317,-0.02 7.031,-0.003 V 39.84 l -7.031,0.004 c -1.188,0 -2.168,-0.883 -2.324,-2.028 L 6.25,37.5 c 0,-1.188 0.883,-2.168 2.027,-2.324 l 0.317,-0.02 7.031,-0.004 V 29.684 L 8.594,29.688 C 7.406,29.688 6.426,28.805 6.27,27.66 L 6.25,27.344 c 0,-1.188 0.883,-2.168 2.027,-2.324 L 8.594,25 15.859,24.996 C 16.793,20.406 20.41,16.789 25,15.859 V 8.594 c 0,-1.293 1.051,-2.344 2.344,-2.344 1.187,0 2.168,0.883 2.324,2.027 l 0.02,0.317 v 7.027 h 5.464 l 0.004,-7.027 c 0,-1.188 0.883,-2.168 2.028,-2.324 L 37.5,6.25 c 1.188,0 2.168,0.883 2.324,2.027 l 0.02,0.317 -0.004,7.027 h 5.472 V 8.594 c 0,-1.078 0.731,-1.989 1.719,-2.262 L 47.34,6.27 Z m -10.14,21.891 c -5.18,0 -9.375,4.195 -9.375,9.375 0,5.175 4.195,9.375 9.375,9.375 5.175,0 9.375,-4.2 9.375,-9.375 0,-5.18 -4.2,-9.375 -9.375,-9.375 z m 0,4.687 c 2.589,0 4.687,2.098 4.687,4.688 0,2.589 -2.098,4.687 -4.687,4.687 -2.59,0 -4.688,-2.098 -4.688,-4.687 0,-2.59 2.098,-4.688 4.688,-4.688 z" style="fill:currentColor;fill-opacity:1;fill-rule:nonzero;stroke:none" transform="scale(1.3333333)" /> </g>
</svg>

