<?xml version="1.0" encoding="UTF-8" standalone="no"?> <svg version="1.1" id="Ie9bde834946d42fba303ba6c7a3c4fd120251110130509" width="100" height="100" viewBox="0 0 100 100" xmlns="http://www.w3.org/2000/svg" xmlns:svg="http://www.w3.org/2000/svg"> <defs id="I52819bccb063460a91073411de05fa8b20251110130509" /> <g id="I7162203236f94f1d8659f100fe914e6e20251110130509"> <path id="I766e1da29d90413f897c34263052191020251110130509" d="m 63.75,20.625 c 0,-5.176 -4.199,-9.375 -9.375,-9.375 h -33.75 c -5.176,0 -9.375,4.199 -9.375,9.375 v 33.75 c 0,5.176 4.199,9.375 9.375,9.375 H 33.883 C 33.797,63.137 33.75,62.512 33.75,61.875 V 60 H 30 V 48.75 h 3.75 v -1.875 c 0,-0.637 0.047,-1.262 0.133,-1.875 H 30 V 30 h 15 v 3.883 c 0.613,-0.086 1.238,-0.133 1.875,-0.133 H 48.75 V 30 H 60 v 3.75 h 1.875 c 0.637,0 1.262,0.047 1.875,0.133 z M 15,54.375 V 48.75 H 26.25 V 60 H 20.625 L 20.082,59.973 C 17.23,59.703 15,57.301 15,54.375 Z M 45,26.25 H 30 V 15 H 45 Z M 48.75,15 h 5.625 l 0.543,0.027 C 57.77,15.297 60,17.699 60,20.625 V 26.25 H 48.75 Z M 15,26.25 v -5.625 l 0.027,-0.543 C 15.297,17.23 17.699,15 20.625,15 H 26.25 V 26.25 Z M 26.25,30 V 45 H 15 V 30 Z M 37.5,46.875 c 0,-5.176 4.199,-9.375 9.375,-9.375 h 15 c 5.176,0 9.375,4.199 9.375,9.375 v 15 c 0,1.91 -0.57,3.687 -1.555,5.172 L 58.352,55.699 c -2.196,-2.195 -5.758,-2.195 -7.954,0 L 39.055,67.047 C 38.07,65.562 37.5,63.785 37.5,61.875 Z m 26.25,0.937 C 63.75,46.258 62.492,45 60.938,45 c -1.555,0 -2.813,1.258 -2.813,2.812 0,1.555 1.258,2.813 2.813,2.813 1.554,0 2.812,-1.258 2.812,-2.813 z M 41.703,69.695 c 1.485,0.985 3.262,1.555 5.172,1.555 h 15 c 1.91,0 3.687,-0.57 5.172,-1.555 L 55.699,58.352 c -0.73,-0.731 -1.918,-0.731 -2.648,0 z" style="fill:currentColor;fill-opacity:1;fill-rule:nonzero;stroke:none" transform="scale(1.3333333)" /> </g>
</svg>

