<?xml version="1.0" encoding="UTF-8" standalone="no"?> <svg version="1.1" id="I6de1ccd1fbce4c97a70a2caa66a55c2120251106164749" width="100" height="100" viewBox="0 0 100 100" xmlns="http://www.w3.org/2000/svg" xmlns:svg="http://www.w3.org/2000/svg"> <defs id="I1ff7758e82674147bd35c88d8c244e1520251106164749" /> <g id="I5ca29dec132d4eb6bea13e41ffd1bd8e20251106164749"> <path id="Id21a2ad9697a4c2bade98e34cf7cf94420251106164749" d="m 24.148,19.812 c -2.507,2.504 -2.097,6.676 0.844,8.649 l 6.625,4.441 -21.949,21.946 c -2.895,2.894 -2.895,7.586 0,10.48 2.894,2.895 7.586,2.895 10.48,0 L 33.945,51.535 c 0.426,-3.113 1.551,-6.004 3.207,-8.512 L 17.496,62.68 c -1.43,1.429 -3.746,1.429 -5.176,0 -1.429,-1.434 -1.429,-3.75 0,-5.18 l 22.473,-22.473 2.793,1.871 c 0.203,0.137 0.375,0.313 0.512,0.516 l 1.632,2.438 c 0.887,-0.895 1.852,-1.707 2.891,-2.426 l -1.41,-2.098 c -0.406,-0.609 -0.93,-1.137 -1.539,-1.543 L 33.246,29.48 44.648,18.078 49.25,24.469 c 0.355,0.492 0.785,0.922 1.277,1.277 l 6.391,4.606 -3.414,3.418 c 0.289,-0.012 0.578,-0.02 0.871,-0.02 1.387,0 2.742,0.137 4.051,0.398 L 60,32.57 l 2.953,2.129 c 0.445,0.321 0.703,0.789 0.766,1.285 1.215,0.618 2.359,1.352 3.418,2.188 0.843,-2.285 0.136,-4.984 -1.989,-6.516 L 52.719,22.703 C 52.555,22.586 52.41,22.441 52.293,22.277 L 43.34,9.848 C 41.316,7.035 37.25,6.707 34.801,9.156 Z m 2.934,5.536 C 26.098,24.691 25.965,23.301 26.797,22.465 L 37.453,11.809 c 0.817,-0.817 2.168,-0.707 2.844,0.23 L 42.43,14.996 30.074,27.352 Z M 37.5,54.375 c 0,9.32 7.555,16.875 16.875,16.875 9.32,0 16.875,-7.555 16.875,-16.875 C 71.25,45.055 63.695,37.5 54.375,37.5 45.055,37.5 37.5,45.055 37.5,54.375 Z m 3.75,0 c 0,-7.25 5.875,-13.125 13.125,-13.125 2.949,0 5.668,0.973 7.859,2.613 L 43.863,62.234 C 42.223,60.043 41.25,57.324 41.25,54.375 Z M 54.375,67.5 c -2.949,0 -5.668,-0.973 -7.859,-2.613 L 64.887,46.516 c 1.64,2.191 2.613,4.91 2.613,7.859 0,7.25 -5.875,13.125 -13.125,13.125 z" style="fill:currentColor;fill-opacity:1;fill-rule:nonzero;stroke:none" transform="scale(1.3333333)" /> </g>
</svg>

