<?xml version="1.0" encoding="UTF-8" standalone="no"?>
<!-- Created with Inkscape (http://www.inkscape.org/) -->

<svg
   version="1.1"
   id="I94e197a9d337420c90b30b37a0cf42d520251030195520"
   width="100"
   height="100"
   viewBox="0 0 100 100"
   sodipodi:docname="output.ai"
   xmlns:inkscape="http://www.inkscape.org/namespaces/inkscape"
   xmlns:sodipodi="http://sodipodi.sourceforge.net/DTD/sodipodi-0.dtd"
   xmlns="http://www.w3.org/2000/svg"
   xmlns:svg="http://www.w3.org/2000/svg">
  <defs
     id="I2033d56abb7f41d985ad3867405493b820251030195520" />
  <sodipodi:namedview
     id="I5ed1323b85604c2ca99ecb42266cec5720251030195520"
     pagecolor="#ffffff"
     bordercolor="#000000"
     borderopacity="0.25"
     inkscape:showpageshadow="2"
     inkscape:pageopacity="0.0"
     inkscape:pagecheckerboard="0"
     inkscape:deskcolor="#d1d1d1">
    <inkscape:page
       x="0"
       y="0"
       inkscape:label="1"
       id="Id23f953aca1c49bb830d5ca3f2818b1220251030195520"
       width="100"
       height="100"
       margin="0"
       bleed="0" />
  </sodipodi:namedview>
  <g
     id="I174cb1d948e74b209380694b795ab07520251030195520"
     inkscape:groupmode="layer"
     inkscape:label="1">
    <path
       id="I3b77d02a0e3b40bcbecc809427985f8020251030195520"
       d="m 8.035,18.082 c 0,-5.551 4.496,-10.047 10.047,-10.047 h 38.836 c 5.551,0 10.047,4.496 10.047,10.047 V 38.84 c -1.238,-0.93 -2.586,-1.719 -4.02,-2.348 v -7.027 h -13.39 v 6.078 c -1.41,0.391 -2.754,0.926 -4.02,1.594 v -7.672 h -16.07 v 16.07 h 7.672 c -0.668,1.266 -1.203,2.61 -1.594,4.02 h -6.078 v 13.39 h 7.027 c 0.629,1.434 1.418,2.782 2.348,4.02 H 18.082 c -5.551,0 -10.047,-4.496 -10.047,-10.047 z m 4.02,31.473 v 7.363 c 0,3.328 2.695,6.027 6.027,6.027 h 7.363 v -13.39 z m 13.39,-4.02 v -16.07 h -13.39 v 16.07 z m 37.5,-27.453 c 0,-3.332 -2.699,-6.027 -6.027,-6.027 h -7.363 v 13.39 h 13.39 z m -17.41,-6.027 h -16.07 v 13.39 h 16.07 z m -20.09,0 h -7.363 c -3.332,0 -6.027,2.695 -6.027,6.027 v 7.363 h 13.39 z M 72.32,54.91 c 0,9.617 -7.793,17.41 -17.41,17.41 -9.617,0 -17.41,-7.793 -17.41,-17.41 0,-9.617 7.793,-17.41 17.41,-17.41 9.617,0 17.41,7.793 17.41,17.41 z m -24.5,-8.98 c -0.519,-0.524 -1.371,-0.524 -1.89,0 -0.524,0.519 -0.524,1.371 0,1.89 L 53.016,54.91 45.93,62 c -0.524,0.523 -0.524,1.371 0,1.895 0.519,0.523 1.371,0.523 1.89,0 l 7.09,-7.09 7.09,7.09 c 0.523,0.523 1.371,0.523 1.895,0 0.523,-0.524 0.523,-1.372 0,-1.895 l -7.09,-7.09 7.09,-7.09 c 0.523,-0.519 0.523,-1.371 0,-1.89 -0.524,-0.524 -1.372,-0.524 -1.895,0 l -7.09,7.086 z"
       style="fill:#212121;fill-opacity:1;fill-rule:nonzero;stroke:none"
       transform="scale(1.3333333)" />
  </g>
</svg>

