<svg version="1.2" xmlns="http://www.w3.org/2000/svg" viewBox="0 0 100 100" width="100" height="100">
	<title>New Project</title>
	<defs>
		<linearGradient id="I77e0aafd1d7f4c3da540d31d9b1de36220251030142523" x2="1" gradientUnits="userSpaceOnUse" gradientTransform="matrix(31.673,0,0,38.044,4.12,67.754)">
			<stop offset="0" stop-color="#41d400"/>
			<stop offset="1" stop-color="#2e9800"/>
		</linearGradient>
		<linearGradient id="If47743fea6834428909a83cea78d881820251030142523" x2="1" gradientUnits="userSpaceOnUse" gradientTransform="matrix(75.275,0,0,75.275,20.288,49.648)">
			<stop offset="0" stop-color="#2e9600"/>
			<stop offset="1" stop-color="#42d700"/>
		</linearGradient>
	</defs>
	<style>
		.Cec6bbe3127bd43248b275060cc382eda20251030142523 { fill: url(#I77e0aafd1d7f4c3da540d31d9b1de36220251030142523) } 
		.Cb5e7b9c0f50247708bd7e609d9dde69f20251030142523 { fill: url(#If47743fea6834428909a83cea78d881820251030142523) } 
	</style>
	<path id="I6a3a9ef5789b41e49f950aff7dcb0de220251030142523" fill-rule="evenodd" class="Cec6bbe3127bd43248b275060cc382eda20251030142523" d="m6.6 51.1l1.8-1.2c2.7-2 6.4-1.4 8.4 1.3l17.9 24.8c1.9 2.7 1.3 6.4-1.4 8.4l-1.8 1.2c-2.6 2-6.4 1.4-8.3-1.3l-17.9-24.8c-2-2.7-1.4-6.4 1.3-8.4z"/>
	<path id="I9611b222def4449f9120b99dd2f8605d20251030142523" fill-rule="evenodd" class="Cb5e7b9c0f50247708bd7e609d9dde69f20251030142523" d="m92.3 13.8l1.5 1.5c2.3 2.4 2.3 6.2 0 8.5l-61.7 61.7c-2.4 2.4-6.2 2.4-8.5 0l-1.6-1.5c-2.3-2.4-2.3-6.2 0-8.5l61.8-61.7c2.3-2.4 6.1-2.4 8.5 0z"/>
</svg>






