<svg version="1.2" xmlns="http://www.w3.org/2000/svg" viewBox="0 0 100 100" width="100" height="100">
	<title>New Project</title>
	<defs>
		<linearGradient id="I546762f167314e178a1b32a57c27e69c20250902114251" x2="1" gradientUnits="userSpaceOnUse" gradientTransform="matrix(31.673,0,0,38.044,4.12,67.754)">
			<stop offset="0" stop-color="#41d400"/>
			<stop offset="1" stop-color="#2e9800"/>
		</linearGradient>
		<linearGradient id="I0f496336a44045a38d9e6713dfe8b14b20250902114251" x2="1" gradientUnits="userSpaceOnUse" gradientTransform="matrix(75.275,0,0,75.275,20.288,49.648)">
			<stop offset="0" stop-color="#2e9600"/>
			<stop offset="1" stop-color="#42d700"/>
		</linearGradient>
	</defs>
	<style>
		.Cf1fe7179239e4dd0a3638c14d93cd14120250902114251 { fill: url(#I546762f167314e178a1b32a57c27e69c20250902114251) } 
		.C044fcb3032584e25b3a33bb13e70668d20250902114251 { fill: url(#I0f496336a44045a38d9e6713dfe8b14b20250902114251) } 
	</style>
	<path id="Id268e01413a54fc29e9af85d8e57272220250902114251" fill-rule="evenodd" class="Cf1fe7179239e4dd0a3638c14d93cd14120250902114251" d="m6.6 51.1l1.8-1.2c2.7-2 6.4-1.4 8.4 1.3l17.9 24.8c1.9 2.7 1.3 6.4-1.4 8.4l-1.8 1.2c-2.6 2-6.4 1.4-8.3-1.3l-17.9-24.8c-2-2.7-1.4-6.4 1.3-8.4z"/>
	<path id="I00d06d096ad547e8991db4eef271a82420250902114251" fill-rule="evenodd" class="C044fcb3032584e25b3a33bb13e70668d20250902114251" d="m92.3 13.8l1.5 1.5c2.3 2.4 2.3 6.2 0 8.5l-61.7 61.7c-2.4 2.4-6.2 2.4-8.5 0l-1.6-1.5c-2.3-2.4-2.3-6.2 0-8.5l61.8-61.7c2.3-2.4 6.1-2.4 8.5 0z"/>
</svg>

