<?xml version="1.0" encoding="UTF-8" standalone="no"?> <svg version="1.1" id="Ia2b46dbd220943eb8b1d4b56e0bbd85920251106154012" width="100" height="100" viewBox="0 0 100 100" xmlns="http://www.w3.org/2000/svg" xmlns:svg="http://www.w3.org/2000/svg"> <defs id="Ibb74722d9e2847448eb5209c3ca7caa720251106154012" /> <g id="I804243fe91a842e9bd53cdf84cd9701420251106154012"> <path id="Ieb56d3589d6942fea891016167a941b720251106154012" d="m 41.477,6.262 c -0.633,-0.02 -1.25,0.218 -1.704,0.66 -0.453,0.441 -0.711,1.051 -0.711,1.683 v 24.989 c 0,1.293 1.051,2.344 2.344,2.344 h 24.989 c 0.632,0 1.242,-0.258 1.683,-0.711 0.442,-0.457 0.68,-1.071 0.66,-1.704 C 68.297,18.668 56.332,6.703 41.477,6.262 Z m -7.864,6.898 c 0.485,0.442 0.762,1.07 0.762,1.731 v 18.703 c 0,3.883 3.148,7.031 7.031,7.031 h 18.641 c 0.656,0 1.285,0.277 1.73,0.766 0.446,0.484 0.664,1.136 0.602,1.793 C 61.059,57.492 49.023,68.691 34.375,68.691 18.844,68.691 6.25,56.098 6.25,40.566 c 0,-14.671 11.234,-26.718 25.57,-28.011 0.657,-0.059 1.305,0.16 1.793,0.605 z" style="fill:currentColor;fill-opacity:1;fill-rule:nonzero;stroke:none" transform="scale(1.3333333)" /> </g>
</svg>

