<?xml version="1.0" encoding="UTF-8" standalone="no"?> <svg version="1.1" id="I40e36e746b4749f1954391a5b84ac02720251106103256" width="100" height="100" viewBox="0 0 100 100" xmlns="http://www.w3.org/2000/svg" xmlns:svg="http://www.w3.org/2000/svg"> <defs id="Ic4452cee69ec491eb0176a03f81842ab20251106103256" /> <g id="Ib97d674b31bd4845aa44785eb3c71c0d20251106103256"> <path id="I43ea1b6801984e239508482b24e6ec8020251106103256" d="M 67.207,8.863 38.766,-0.828 c -0.344,-0.117 -0.805,-0.176 -1.266,-0.176 -0.461,0 -0.922,0.059 -1.266,0.176 L 7.793,8.863 C 7.098,9.098 6.527,9.902 6.527,10.641 V 51.02 c 0,0.734 0.481,1.707 1.055,2.168 l 28.856,22.48 c 0.292,0.227 0.667,0.344 1.054,0.344 0.383,0 0.77,-0.117 1.055,-0.344 l 28.851,-22.48 c 0.579,-0.454 1.055,-1.426 1.055,-2.168 V 10.641 C 68.473,9.902 67.902,9.105 67.207,8.863 Z M 62.445,49.41 37.5,68.848 12.555,49.41 V 13.617 L 37.5,5.113 62.445,13.617 Z M 28.367,38.906 21.879,45.395 c -0.258,0.261 -0.258,0.683 0,0.945 l 2.848,2.844 c 0.257,0.261 0.687,0.261 0.945,0 l 6.488,-6.485 c 4.66,2.938 10.891,2.375 14.949,-1.683 4.711,-4.711 4.711,-12.348 0,-17.059 -4.711,-4.715 -12.347,-4.715 -17.058,0 -4.059,4.059 -4.621,10.297 -1.684,14.949 z M 33.844,27.75 c 2.617,-2.621 6.863,-2.621 9.472,0 2.622,2.617 2.622,6.863 0,9.473 -2.617,2.621 -6.863,2.621 -9.472,0 -2.614,-2.618 -2.621,-6.856 0,-9.473 z" style="fill:currentColor;fill-opacity:1;fill-rule:nonzero;stroke:none" transform="scale(1.3333333)" /> </g>
</svg>

