<?xml version="1.0" encoding="UTF-8" standalone="no"?>
<!-- Created with Inkscape (http://www.inkscape.org/) -->

<svg
   version="1.1"
   id="Iebb724af81fe4877ae9671583557dc9f20251031115229"
   width="100"
   height="100"
   viewBox="0 0 100 100"
   sodipodi:docname="output.ai"
   xmlns:inkscape="http://www.inkscape.org/namespaces/inkscape"
   xmlns:sodipodi="http://sodipodi.sourceforge.net/DTD/sodipodi-0.dtd"
   xmlns="http://www.w3.org/2000/svg"
   xmlns:svg="http://www.w3.org/2000/svg">
  <defs
     id="I26e604c3e12b4e82a9eaab09fe8bd51120251031115229" />
  <sodipodi:namedview
     id="Ife09667a52a44b6f87c396f1dab0ec5e20251031115229"
     pagecolor="#ffffff"
     bordercolor="#000000"
     borderopacity="0.25"
     inkscape:showpageshadow="2"
     inkscape:pageopacity="0.0"
     inkscape:pagecheckerboard="0"
     inkscape:deskcolor="#d1d1d1">
    <inkscape:page
       x="0"
       y="0"
       inkscape:label="1"
       id="I0b00ba9a2d1e4dfd8c12a0750157279320251031115229"
       width="100"
       height="100"
       margin="0"
       bleed="0" />
  </sodipodi:namedview>
  <g
     id="Iccca64a223c3442f8bdf122bcdad077e20251031115229"
     inkscape:groupmode="layer"
     inkscape:label="1">
    <path
       id="I41da6ab12aed4d48a79e00fd2797a35320251031115229"
       d="m 56.25,6.25 c 4.316,0 7.812,3.496 7.812,7.812 v 44.532 c 0,1.293 -1.05,2.344 -2.343,2.344 H 17.188 c 0,1.726 1.398,3.124 3.124,3.124 h 41.407 c 1.293,0 2.343,1.051 2.343,2.344 0,1.293 -1.05,2.344 -2.343,2.344 H 20.312 C 15.996,68.75 12.5,65.254 12.5,60.938 V 14.062 C 12.5,9.746 15.996,6.25 20.312,6.25 Z M 36.637,18.75 C 30.211,18.75 25,23.961 25,30.387 c 0,6.425 5.211,11.636 11.637,11.636 2.394,0 4.621,-0.726 6.472,-1.964 l 7.739,7.738 0.23,0.195 c 0.887,0.66 2.145,0.586 2.945,-0.219 0.887,-0.882 0.887,-2.312 0,-3.195 l -7.714,-7.719 c 1.238,-1.851 1.964,-4.078 1.964,-6.472 0,-6.426 -5.211,-11.637 -11.636,-11.637 z m 0,4.523 c 3.929,0 7.113,3.184 7.113,7.114 0,3.929 -3.184,7.113 -7.113,7.113 -3.93,0 -7.114,-3.184 -7.114,-7.113 0,-3.93 3.184,-7.114 7.114,-7.114 z"
       style="fill:#212121;fill-opacity:1;fill-rule:nonzero;stroke:none"
       transform="scale(1.3333333)" />
  </g>
</svg>



