<?xml version="1.0" encoding="UTF-8" standalone="no"?> <svg version="1.1" id="I67a6535f9bc84d9199da5cb90db763ed20251106171633" width="100" height="100" viewBox="0 0 100 100" xmlns="http://www.w3.org/2000/svg" xmlns:svg="http://www.w3.org/2000/svg"> <defs id="I59411d8d7fe14cdabc401f3aca879ec120251106171633" /> <g id="Ida126dee0cdc4ca1bc88f7a87877a4d920251106171633"> <path id="Id292e378b420466fadc6cbb6ad5bd86020251106171633" d="m 51.562,5.355 c 1.11,0 2.008,0.903 2.008,2.012 v 3.348 h 0.672 c 4.067,0 7.363,3.297 7.363,7.367 V 48.215 H 50.223 c -4.067,0 -7.368,3.297 -7.368,7.367 V 66.965 H 20.758 c -4.067,0 -7.363,-3.297 -7.363,-7.367 V 18.082 c 0,-4.07 3.296,-7.367 7.363,-7.367 H 21.43 V 7.367 c 0,-1.109 0.898,-2.012 2.008,-2.012 1.109,0 2.007,0.903 2.007,2.012 v 3.348 H 35.492 V 7.367 c 0,-1.109 0.899,-2.012 2.008,-2.012 1.109,0 2.008,0.903 2.008,2.012 v 3.348 H 49.555 V 7.367 c 0,-1.109 0.898,-2.012 2.007,-2.012 z m 9.403,46.875 c -0.153,0.243 -0.332,0.469 -0.535,0.672 L 47.543,65.785 c -0.203,0.207 -0.43,0.383 -0.668,0.539 V 55.582 c 0,-1.852 1.5,-3.352 3.348,-3.352 z M 26.117,48.215 c -1.109,0 -2.012,0.898 -2.012,2.008 0,1.109 0.903,2.007 2.012,2.007 h 9.375 l 0.207,-0.007 c 1.012,-0.106 1.801,-0.961 1.801,-2 0,-1.039 -0.789,-1.895 -1.801,-1.996 l -0.207,-0.012 z m 0,-12.055 c -1.109,0 -2.012,0.899 -2.012,2.008 0,1.109 0.903,2.012 2.012,2.012 h 22.766 l 0.207,-0.012 c 1.012,-0.102 1.805,-0.957 1.805,-2 0,-1.039 -0.793,-1.895 -1.805,-1.996 L 48.883,36.16 Z m 0,-12.055 c -1.109,0 -2.012,0.903 -2.012,2.012 0,1.11 0.903,2.008 2.012,2.008 h 22.766 l 0.207,-0.012 c 1.012,-0.101 1.805,-0.957 1.805,-1.996 0,-1.039 -0.793,-1.894 -1.805,-2 l -0.207,-0.012 z" style="fill:currentColor;fill-opacity:1;fill-rule:nonzero;stroke:none" transform="scale(1.3333333)" /> </g>
</svg>

