<?xml version="1.0" encoding="UTF-8" standalone="no"?> <svg version="1.1" id="I26b7cb097b394966926698506800476420251106170956" width="100" height="100" viewBox="0 0 100 100" xmlns="http://www.w3.org/2000/svg" xmlns:svg="http://www.w3.org/2000/svg"> <defs id="Id68695a92c304f63932772dfb7895b2120251106170956" /> <g id="I270a4bd21f4b4ac9b2deef5da3bd748c20251106170956"> <path id="Ifd07516b5b2345a5b0c2bfea13ac00b220251106170956" d="m 68.457,17.57 c 0.195,0.649 0.293,1.325 0.293,2.004 v 35.86 c 0,3.882 -3.148,7.031 -7.031,7.031 -0.68,0 -1.352,-0.098 -2.004,-0.293 L 42.484,57.051 c -2.054,4.203 -6.363,7.011 -11.234,7.011 -6.695,0 -12.16,-5.265 -12.484,-11.878 L 18.75,51.562 18.746,49.996 11.277,47.773 C 8.297,46.887 6.25,44.148 6.25,41.035 v -7.07 c 0,-3.11 2.047,-5.852 5.027,-6.738 L 59.715,12.832 c 3.723,-1.105 7.637,1.016 8.742,4.738 z m -45.023,33.821 0.004,0.171 c 0,4.313 3.496,7.813 7.812,7.813 2.766,0 5.246,-1.453 6.637,-3.687 z M 61.051,17.324 12.613,31.719 c -0.992,0.297 -1.675,1.211 -1.675,2.246 v 7.07 c 0,1.039 0.683,1.949 1.675,2.246 L 61.051,57.68 c 0.219,0.066 0.441,0.097 0.668,0.097 1.293,0 2.343,-1.05 2.343,-2.343 v -35.86 c 0,-0.226 -0.031,-0.453 -0.097,-0.668 -0.367,-1.242 -1.672,-1.949 -2.914,-1.582 z" style="fill:currentColor;fill-opacity:1;fill-rule:nonzero;stroke:none" transform="scale(1.3333333)" /> </g>
</svg>

