<?xml version="1.0" encoding="UTF-8" standalone="no"?> <svg version="1.1" id="If6246f6f558849eda329460a22756ae920251106102216" width="100" height="100" viewBox="0 0 100 100" xmlns="http://www.w3.org/2000/svg" xmlns:svg="http://www.w3.org/2000/svg"> <defs id="Ia0d17ae1090c45ce937e028e671ffa3220251106102216" /> <g id="Ib0f9723dc890489ca22a68f11cb7adc320251106102216"> <path id="I819bcbffd6fb4e7a9c9c40b69208045520251106102216" d="M 74.801,37.113 45.133,7.887 c -0.258,-0.262 -0.68,-0.262 -0.938,0 l -19.98,19.687 c -0.262,0.258 -0.266,0.68 -0.008,0.946 l 0.008,0.007 3.347,3.297 -9.808,9.653 c -0.262,0.257 -0.266,0.679 -0.008,0.945 l 0.008,0.008 3.305,3.258 L 5.23,61.34 H 0.68 C 0.309,61.34 0,61.641 0,62.008 v 4.621 c 0,0.367 0.301,0.672 0.668,0.672 h 28.871 c 0.176,0 0.344,-0.071 0.469,-0.196 l 6.371,-6.328 3.383,3.332 c 0.258,0.262 0.676,0.262 0.937,0 l 9.801,-9.675 3.355,3.304 c 0.258,0.262 0.68,0.262 0.938,0 l 19.98,-19.687 c 0.286,-0.25 0.286,-0.668 0.028,-0.938 z M 27.27,61.289 H 13.863 l 11.25,-11.133 6.703,6.606 z M 40.23,56.09 25.883,41.953 31.625,36.293 45.973,50.434 Z M 54.332,49.723 32.336,28.051 44.664,15.902 l 22,21.68 z" style="fill:currentColor;fill-opacity:1;fill-rule:nonzero;stroke:none" transform="scale(1.3333333)" /> </g>
</svg>

