<?xml version="1.0" encoding="UTF-8" standalone="no"?> <svg version="1.1" id="I95bf1fb48a1f48449c0868bf604a168c20251110123031" width="100" height="100" viewBox="0 0 100 100" xmlns="http://www.w3.org/2000/svg" xmlns:svg="http://www.w3.org/2000/svg"> <defs id="Ieed4d562bc164fc58a89287bdea56abf20251110123031" /> <g id="If7a4ba3cadc446d09e1302f0103a6ddc20251110123031"> <path id="If8f883643b9a445b89841bf5dc18f55220251110123031" d="M 42.969,6.25 C 46.852,6.25 50,9.398 50,13.281 v 21.094 h -0.781 c -4.746,0 -8.594,3.848 -8.594,8.594 v 0.937 c -3.566,0.723 -6.25,3.875 -6.25,7.656 v 4.688 h -7.031 c -1.293,0 -2.344,1.051 -2.344,2.344 0,1.293 1.051,2.344 2.344,2.344 h 7.031 v 6.25 c 0,0.535 0.055,1.058 0.156,1.562 h -15 C 15.648,68.75 12.5,65.602 12.5,61.719 V 13.281 c 0,-3.883 3.148,-7.031 7.031,-7.031 z m 0.781,36.719 v 3.906 h -1.562 c -2.59,0 -4.688,2.098 -4.688,4.687 v 15.626 c 0,2.589 2.098,4.687 4.688,4.687 h 25 c 2.589,0 4.687,-2.098 4.687,-4.687 V 51.562 c 0,-2.589 -2.098,-4.687 -4.687,-4.687 h -1.563 v -3.906 c 0,-3.02 -2.449,-5.469 -5.469,-5.469 H 49.219 c -3.02,0 -5.469,2.449 -5.469,5.469 z m 4.688,0 c 0,-0.43 0.351,-0.781 0.781,-0.781 h 10.937 c 0.43,0 0.782,0.351 0.782,0.781 v 3.906 h -12.5 z" style="fill:currentColor;fill-opacity:1;fill-rule:nonzero;stroke:none" transform="scale(1.3333333)" /> </g>
</svg>

