<?xml version="1.0" encoding="UTF-8" standalone="no"?> <svg version="1.1" id="I84b4c21aec3a42dfb9039062cc4cf70e20251110124421" width="100" height="100" viewBox="0 0 100 100" xmlns="http://www.w3.org/2000/svg" xmlns:svg="http://www.w3.org/2000/svg"> <defs id="I1971850adf65407c8f806357d55f1b4f20251110124421" /> <g id="If9c033dd12b5469198b5c5729d6c241320251110124421"> <path id="I0e08cbd4f7a840998b6c8bccde74141520251110124421" d="m 36.719,23.438 c -1.293,0 -2.344,1.05 -2.344,2.343 0,1.293 1.051,2.344 2.344,2.344 4.133,0 8.472,2.371 10.656,5.488 0.742,1.059 2.203,1.317 3.262,0.575 1.062,-0.743 1.32,-2.204 0.578,-3.262 -3.047,-4.356 -8.817,-7.488 -14.496,-7.488 z m -7.031,-9.376 c 0,-4.316 3.496,-7.812 7.812,-7.812 4.316,0 7.812,3.496 7.812,7.812 v 2.75 c 10.438,3.293 17.969,13.067 17.969,24.594 0,1.293 -1.051,2.344 -2.343,2.344 H 14.062 c -1.292,0 -2.343,-1.051 -2.343,-2.344 0,-11.496 7.57,-21.226 17.969,-24.554 z m 10.937,0 c 0,-1.726 -1.398,-3.124 -3.125,-3.124 -1.727,0 -3.125,1.398 -3.125,3.124 v 1.758 c 1.047,-0.129 2.113,-0.195 3.191,-0.195 1.036,0 2.055,0.063 3.059,0.18 z m -24.09,25 h 41.93 c -1.156,-10.55 -10.051,-18.75 -20.899,-18.75 -10.863,0 -19.855,8.211 -21.031,18.75 z M 12.5,46.875 c -3.453,0 -6.25,2.797 -6.25,6.25 0,3.453 2.797,6.25 6.25,6.25 h 50 c 3.453,0 6.25,-2.797 6.25,-6.25 0,-3.453 -2.797,-6.25 -6.25,-6.25 z m -1.562,6.25 c 0,-0.863 0.699,-1.563 1.562,-1.563 h 50 c 0.863,0 1.562,0.7 1.562,1.563 0,0.863 -0.699,1.563 -1.562,1.563 h -50 c -0.863,0 -1.562,-0.7 -1.562,-1.563 z" style="fill:currentColor;fill-opacity:1;fill-rule:nonzero;stroke:none" transform="scale(1.3333333)" /> </g>
</svg>

