<?xml version="1.0" encoding="UTF-8" standalone="no"?> <svg version="1.1" id="I21b123cd55994d9ea2da8e0a0bf5b85820251106105802" width="100" height="100" viewBox="0 0 100 100" xmlns="http://www.w3.org/2000/svg" xmlns:svg="http://www.w3.org/2000/svg"> <defs id="Ie98dbcd85fda44f9805be39d6440ca1a20251106105802" /> <g id="I7c2ca2a6be3b43758e5a74633d887f1820251106105802"> <path id="Ib6e3da1b14d04ed9af5e07cf9ef7223220251106105802" d="M 64.285,33.48 H 58.594 V 14.73 C 58.594,8.812 53.797,4.02 47.879,4.02 H 27.121 c -5.918,0 -10.715,4.792 -10.715,10.71 v 18.75 h -5.691 c -1.481,0 -2.68,1.2 -2.68,2.68 v 32.145 c 0,1.48 1.199,2.675 2.68,2.675 h 53.57 c 1.481,0 2.68,-1.195 2.68,-2.675 V 36.16 c 0,-1.48 -1.199,-2.68 -2.68,-2.68 z M 22.434,14.73 c 0,-2.585 2.101,-4.687 4.687,-4.687 h 20.758 c 2.586,0 4.687,2.102 4.687,4.687 V 33.48 H 22.434 Z M 60.938,64.957 H 14.062 V 39.508 H 60.938 Z M 35.156,53.32 v 4.438 c 0,0.367 0.301,0.668 0.668,0.668 h 3.352 c 0.367,0 0.668,-0.301 0.668,-0.668 V 53.32 c 3.172,-2.277 1.562,-7.281 -2.344,-7.281 -3.906,0 -5.516,5.004 -2.344,7.281 z" style="fill:currentColor;fill-opacity:1;fill-rule:nonzero;stroke:none" transform="scale(1.3333333)" /> </g>
</svg>

