<?xml version="1.0" encoding="UTF-8" standalone="no"?> <svg version="1.1" id="I83907d4096c242f88c382bf68a0d1a5020251110123030" width="100" height="100" viewBox="0 0 100 100" xmlns="http://www.w3.org/2000/svg" xmlns:svg="http://www.w3.org/2000/svg"> <defs id="I2de3b0b96bad431f9b86720a5eedf71520251110123030"> <linearGradient x1="9.7072897" y1="19.5952" x2="13.5843" y2="31.976601" gradientUnits="userSpaceOnUse" gradientTransform="scale(2.34375)" spreadMethod="pad" id="If90b93cca15e4e84a34511625cbbe65620251110123030"> <stop style="stop-opacity:1;stop-color:#9c6cfe" offset="0" id="I1cc987f253aa47e4aa6c8ce7ed80e4dc20251110123030" /> <stop style="stop-opacity:1;stop-color:#9c6cfe" offset="0.125321" id="Ie04c3bed7c0841329604e50f6bf1c8c620251110123030" /> <stop style="stop-opacity:1;stop-color:#7a41dc" offset="1" id="I2eb5859cb5314c7db4dacf4a17b2c3cc20251110123030" /> </linearGradient> <linearGradient x1="16" y1="16.5714" x2="21.4286" y2="36.857201" gradientUnits="userSpaceOnUse" gradientTransform="scale(2.34375)" spreadMethod="pad" id="I1d0c0ede990e47beb40c2fdfffb6be3220251110123030"> <stop style="stop-opacity:0;stop-color:#885edb" offset="0" id="I25d883af998d452d9aef2d452ba92cc720251110123030" /> <stop style="stop-opacity:1;stop-color:#e362f8" offset="1" id="I7939367020ea41d38a7c79c606a14de920251110123030" /> </linearGradient> <radialGradient fx="0" fy="0" cx="0" cy="0" r="1" gradientUnits="userSpaceOnUse" gradientTransform="matrix(22.692871,-38.169815,19.749403,11.741494,48.571875,80.357344)" spreadMethod="pad" id="Icdfba2ead77e4f62a6d2fd0dda9029e520251110123030"> <stop style="stop-opacity:0.56250858;stop-color:#0a1852" offset="0" id="I0c876d8e9ca64d58bbbabe5bb06973bc20251110123030" /> <stop style="stop-opacity:0;stop-color:#0a1852" offset="1" id="Ib99cdae7d5694712aa332c224dcfde7820251110123030" /> </radialGradient> <radialGradient fx="0" fy="0" cx="0" cy="0" r="1" gradientUnits="userSpaceOnUse" gradientTransform="matrix(0,-12.890625,16.992188,0,60.9375,50.390625)" spreadMethod="pad" id="Ic53f180863a54aebba1d7ee92c758faf20251110123030"> <stop style="stop-opacity:0.56250858;stop-color:#0a1852" offset="0" id="Ic8f82741d04c427893110d9a56f7faf620251110123030" /> <stop style="stop-opacity:0;stop-color:#0a1852" offset="1" id="I90c5e016a153445082c5ebacface679720251110123030" /> </radialGradient> <linearGradient x1="12.3293" y1="3.8611" x2="19.4641" y2="15.2539" gradientUnits="userSpaceOnUse" gradientTransform="scale(2.34375)" spreadMethod="pad" id="I92f51ee56ac644d7afff1360955c25ac20251110123030"> <stop style="stop-opacity:1;stop-color:#9c6cfe" offset="0" id="I470c8735791943c5b415fc4b338b512620251110123030" /> <stop style="stop-opacity:1;stop-color:#9c6cfe" offset="0.125321" id="I681ef8e505924445949ecfee36a2c78420251110123030" /> <stop style="stop-opacity:1;stop-color:#7a41dc" offset="1" id="I2d26ef104a464aa6a58cd2ae22e32b3120251110123030" /> </linearGradient> <linearGradient x1="31.0215" y1="30.9942" x2="16.7743" y2="19.339399" gradientUnits="userSpaceOnUse" gradientTransform="scale(2.34375)" spreadMethod="pad" id="I972f2831466245baa247698461ebc16a20251110123031"> <stop style="stop-opacity:1;stop-color:#ff6f47" offset="0" id="Ifc5f398ff59446c69eeef3dedeee0c2b20251110123031" /> <stop style="stop-opacity:1;stop-color:#ffcd0f" offset="1" id="Ie1c9dc669b184a049a5b6b238224e98420251110123031" /> </linearGradient> </defs> <g id="Idac4094035fa459882e1505e7e63f09120251110123031"> <path id="Iffeac28510174ebca0b00975ffa6f67120251110123031" d="m 58.887,42.316 v 9.766 L 39.914,70.246 c -0.797,0.043 -1.602,0.066 -2.414,0.066 -7.496,0 -14.395,-1.929 -19.488,-5.171 C 12.945,61.914 9.375,57.172 9.375,51.562 v -1.171 c 0,-4.532 3.672,-8.203 8.203,-8.203 h 39.844 c 0.5,0 0.988,0.042 1.465,0.128 z" transform="scale(1.3333333)" style="fill:url(#If90b93cca15e4e84a34511625cbbe65620251110123030);stroke:none" /> <path d="m 58.887,42.316 v 9.766 L 39.914,70.246 c -0.797,0.043 -1.602,0.066 -2.414,0.066 -7.496,0 -14.395,-1.929 -19.488,-5.171 C 12.945,61.914 9.375,57.172 9.375,51.562 v -1.171 c 0,-4.532 3.672,-8.203 8.203,-8.203 h 39.844 c 0.5,0 0.988,0.042 1.465,0.128 z" transform="scale(1.3333333)" style="fill:url(#I1d0c0ede990e47beb40c2fdfffb6be3220251110123030);stroke:none" opacity="1" id="Id266706187b3498ea38f707972e9e55420251110123031" /> <path d="m 58.887,42.316 v 9.766 L 39.914,70.246 c -0.797,0.043 -1.602,0.066 -2.414,0.066 -7.496,0 -14.395,-1.929 -19.488,-5.171 C 12.945,61.914 9.375,57.172 9.375,51.562 v -1.171 c 0,-4.532 3.672,-8.203 8.203,-8.203 h 39.844 c 0.5,0 0.988,0.042 1.465,0.128 z" transform="scale(1.3333333)" style="fill:url(#Icdfba2ead77e4f62a6d2fd0dda9029e520251110123030);stroke:none" opacity="1" id="I6f1899b7aa0f4fd191b4939ccc073db820251110123031" /> <path d="m 58.887,42.316 v 9.766 L 39.914,70.246 c -0.797,0.043 -1.602,0.066 -2.414,0.066 -7.496,0 -14.395,-1.929 -19.488,-5.171 C 12.945,61.914 9.375,57.172 9.375,51.562 v -1.171 c 0,-4.532 3.672,-8.203 8.203,-8.203 h 39.844 c 0.5,0 0.988,0.042 1.465,0.128 z" transform="scale(1.3333333)" style="fill:url(#Ic53f180863a54aebba1d7ee92c758faf20251110123030);stroke:none" opacity="1" id="Ieecaf3eef54f419aa36a33b7eb57c10420251110123031" /> <path id="I23fca690b01c4c0fab42656f7b12e27120251110123031" d="m 37.5,37.5 c 9.062,0 16.406,-7.344 16.406,-16.406 0,-9.063 -7.344,-16.406 -16.406,-16.406 -9.062,0 -16.406,7.343 -16.406,16.406 0,9.062 7.344,16.406 16.406,16.406 z" transform="scale(1.3333333)" style="fill:url(#I92f51ee56ac644d7afff1360955c25ac20251110123030);stroke:none" /> <path id="I37b0ff9dbc37441abf6bf741ed1b656420251110123031" d="m 58.594,60.703 c 3.722,0.754 7.742,-0.308 10.629,-3.199 4.578,-4.574 4.578,-11.996 0,-16.57 -4.575,-4.579 -11.996,-4.579 -16.571,0 -3.32,3.316 -4.234,8.132 -2.734,12.277 L 37.844,65.281 C 37.625,65.5 37.5,65.801 37.5,66.109 v 5.375 c 0,0.649 0.523,1.172 1.172,1.172 h 9.375 c 0.648,0 1.172,-0.523 1.172,-1.172 v -2.343 c 0,-0.649 0.523,-1.172 1.172,-1.172 h 2.343 c 0.649,0 1.172,-0.524 1.172,-1.172 v -2.344 c 0,-0.648 0.524,-1.172 1.172,-1.172 h 2.344 c 0.648,0 1.172,-0.523 1.172,-1.172 z M 65.91,47.562 c -0.918,0.915 -2.398,0.915 -3.316,0 -0.914,-0.917 -0.914,-2.398 0,-3.316 0.918,-0.914 2.398,-0.914 3.316,0 0.914,0.918 0.914,2.399 0,3.316 z" transform="scale(1.3333333)" style="fill:url(#I972f2831466245baa247698461ebc16a20251110123031);fill-rule:evenodd;stroke:none" /> </g>
</svg>

