<?xml version="1.0" encoding="UTF-8" standalone="no"?> <svg version="1.1" id="I5fb9433691604aa5b59a9cfa563f3f7a20251110123031" width="100" height="100" viewBox="0 0 100 100" xmlns="http://www.w3.org/2000/svg" xmlns:svg="http://www.w3.org/2000/svg"> <defs id="I28072ad0c00444b7839df0596e49228420251110123031" /> <g id="I58518981e19d42a299f20c8ca0ec0a2620251110123031"> <path id="I8530f10048694358a414e8fb4a6deeee20251110123031" d="M 53.953,54.312 V 66.324 C 49.504,68.426 43.859,69.645 37.5,69.645 21.992,69.645 10.715,62.77 10.715,52.809 v -1.914 c 0,-4.442 3.597,-8.04 8.035,-8.04 h 29.082 c 0,4.782 2.434,8.989 6.121,11.457 z M 37.5,5.355 c 8.875,0 16.07,7.196 16.07,16.075 0,8.875 -7.195,16.07 -16.07,16.07 -8.875,0 -16.07,-7.195 -16.07,-16.07 0,-8.879 7.195,-16.075 16.07,-16.075 z m 27.168,47.774 c 4.426,-1.32 7.652,-5.418 7.652,-10.274 0,-5.914 -4.797,-10.71 -10.715,-10.71 -5.914,0 -10.71,4.796 -10.71,10.71 0,4.278 2.5,7.965 6.121,9.684 v 17.914 c 0,0.406 0.16,0.793 0.449,1.082 l 3.012,3.012 c 0.617,0.617 1.621,0.594 2.211,-0.047 l 5.582,-6.074 c 0.554,-0.602 0.531,-1.535 -0.047,-2.117 l -3.555,-3.555 3.512,-3.508 c 0.597,-0.598 0.597,-1.566 0,-2.164 L 64.668,53.57 Z M 64.285,40.18 c 0,1.476 -1.199,2.675 -2.68,2.675 -1.476,0 -2.675,-1.199 -2.675,-2.675 0,-1.481 1.199,-2.68 2.675,-2.68 1.481,0 2.68,1.199 2.68,2.68 z" style="fill:currentColor;fill-opacity:1;fill-rule:nonzero;stroke:none" transform="scale(1.3333333)" /> </g>
</svg>

