<?xml version="1.0" encoding="UTF-8" standalone="no"?> <svg version="1.1" id="Ic01818d2bba5464ba98e1718d33c319820251106170411" width="100" height="100" viewBox="0 0 100 100" xmlns="http://www.w3.org/2000/svg" xmlns:svg="http://www.w3.org/2000/svg"> <defs id="I8f90ca34bbe744c785894662add0def620251106170411" /> <g id="Ic64e64e4667d44a099558598e5a2114c20251106170411"> <path id="I2b20c89ae8fe447daefa5b704569c09c20251106170411" d="m 48.434,6.406 c -11.293,0 -20.469,9.172 -20.469,20.469 0,1.211 0.16,2.375 0.347,3.449 0.055,0.317 -0.046,0.594 -0.218,0.762 L 8.609,50.574 C 6.996,52.188 6.09,54.371 6.09,56.652 v 6.786 c 0,3.019 2.449,5.468 5.469,5.468 h 7.812 c 3.024,0 5.469,-2.449 5.469,-5.468 v -3.907 h 5.469 c 2.16,0 3.906,-1.75 3.906,-3.906 v -5.469 h 1.035 c 0.32,-0.496 0.719,-0.937 1.18,-1.304 l -5.141,-5.141 c -2.137,-2.137 -2.137,-5.598 0,-7.734 l 6.25,-6.25 c 2.137,-2.137 5.598,-2.137 7.734,0 1.266,1.265 1.782,3 1.547,4.648 h 6.305 c 3.707,0 7.332,1.102 10.418,3.16 0.496,0.332 0.98,0.688 1.441,1.067 2.465,-3.379 3.918,-7.543 3.918,-12.04 0,-11.347 -9.226,-20.156 -20.468,-20.156 z m 4.687,11.563 c 2.16,0 3.906,1.75 3.906,3.906 0,2.156 -1.746,3.906 -3.906,3.906 -2.156,0 -3.906,-1.75 -3.906,-3.906 0,-2.156 1.75,-3.906 3.906,-3.906 z M 43.062,35.25 c 0.918,-0.914 0.918,-2.398 0,-3.312 -0.914,-0.918 -2.398,-0.918 -3.312,0 l -6.25,6.25 c -0.918,0.914 -0.918,2.398 0,3.312 l 6.25,6.25 c 0.914,0.918 2.398,0.918 3.312,0 0.918,-0.914 0.918,-2.398 0,-3.312 l -2.246,-2.25 h 12.309 c 2.164,0 4.277,0.64 6.078,1.843 1.797,1.203 3.199,2.91 4.027,4.907 0.829,2 1.043,4.199 0.622,6.32 -0.422,2.121 -1.461,4.07 -2.993,5.601 -1.531,1.532 -3.48,2.571 -5.601,2.993 -2.121,0.421 -4.32,0.207 -6.32,-0.622 -1.997,-0.828 -3.704,-2.23 -4.907,-4.027 -1.203,-1.801 -1.843,-3.914 -1.843,-6.078 0,-1.293 -1.051,-2.344 -2.344,-2.344 -1.293,0 -2.344,1.051 -2.344,2.344 0,3.09 0.918,6.109 2.633,8.68 1.719,2.57 4.156,4.574 7.012,5.757 2.855,1.18 5.996,1.493 9.027,0.887 3.031,-0.601 5.816,-2.09 8,-4.277 2.187,-2.184 3.676,-4.969 4.277,-8 C 69.055,53.141 68.742,50 67.562,47.145 66.379,44.289 64.375,41.852 61.805,40.133 59.234,38.418 56.215,37.5 53.125,37.5 H 40.816 Z" style="fill:currentColor;fill-opacity:1;fill-rule:nonzero;stroke:none" transform="scale(1.3333333)" /> </g>
</svg>

