<?xml version="1.0" encoding="UTF-8" standalone="no"?> <svg version="1.1" id="I45490e492be04068b38760671185aa5220251106112235" width="100" height="100" viewBox="0 0 100 100" xmlns="http://www.w3.org/2000/svg" xmlns:svg="http://www.w3.org/2000/svg"> <defs id="I5b19538eb19f421b8752d5d2fe5cafd620251106112235" /> <g id="I59436b83b95a4f63b39e6d8fc938f8a220251106112235"> <path id="I9b2d64ced5504951acb8eda7717e993e20251106112235" d="M 68.445,10.328 64.672,6.555 c -0.262,-0.262 -0.684,-0.262 -0.945,0 L 50.543,19.746 45.961,15.168 c -0.391,-0.395 -1.063,-0.16 -1.129,0.394 l -1.965,15.829 c -0.051,0.433 0.309,0.793 0.742,0.742 l 15.84,-1.965 C 60,30.102 60.227,29.43 59.84,29.039 L 55.262,24.457 68.453,11.266 c 0.254,-0.25 0.254,-0.676 -0.008,-0.938 z M 31.391,42.867 15.551,44.832 C 15,44.898 14.773,45.578 15.16,45.961 l 4.578,4.582 -13.183,13.184 c -0.262,0.261 -0.262,0.683 0,0.945 l 3.773,3.773 c 0.262,0.262 0.688,0.262 0.945,0 l 13.196,-13.191 4.578,4.578 c 0.391,0.395 1.066,0.16 1.129,-0.394 l 1.957,-15.829 c 0.062,-0.433 -0.309,-0.804 -0.742,-0.742 z" style="fill:currentColor;fill-opacity:1;fill-rule:nonzero;stroke:none" transform="scale(1.3333333)" /> </g>
</svg>

