<?xml version="1.0" encoding="UTF-8" standalone="no"?> <svg version="1.1" id="I2a037cdf7ecf49708d640e5aaa9986d220251105170219" width="100" height="100" viewBox="0 0 100 100" xmlns="http://www.w3.org/2000/svg" xmlns:svg="http://www.w3.org/2000/svg"> <defs id="I8f0bb32dad124cbc841d04db6ee5926520251105170219" /> <g id="Ibc64ceede07d4ed092ba4571125c9ff020251105170219"> <path id="I270c835679874f5da5e8c2d3853c1f9a20251105170219" d="m 51.562,14.062 c 0,6.122 -3.914,11.333 -9.374,13.262 v 37.91 C 53.965,63.262 63.262,53.965 65.234,42.188 H 56.25 V 32.812 H 75 V 37.5 C 75,58.211 58.211,75 37.5,75 16.789,75 0,58.211 0,37.5 v -4.688 h 18.75 v 9.376 H 9.766 c 1.972,11.777 11.269,21.074 23.046,23.046 V 27.324 C 27.352,25.395 23.438,20.184 23.438,14.062 23.438,6.297 29.734,0 37.5,0 45.266,0 51.562,6.297 51.562,14.062 Z" style="fill:currentColor;fill-opacity:1;fill-rule:nonzero;stroke:none" transform="scale(1.3333333)" /> </g>
</svg>

