<?xml version="1.0" encoding="UTF-8" standalone="no"?> <svg version="1.1" id="Id85468cdd06b45baa6512b0983a2e4a520251106151527" width="100" height="100" viewBox="0 0 100 100" xmlns="http://www.w3.org/2000/svg" xmlns:svg="http://www.w3.org/2000/svg"> <defs id="Ic1efbe3a2fb24e3f9fd13b6afce892cb20251106151527" /> <g id="I6b64f759ba144a76a1a1e2ae56d4b01520251106151527"> <path id="Iabf6cd5889e64b3cbbdf1f489a55cce220251106151527" d="M 57.422,14.062 H 12.891 c -4.524,0 -8.203,3.68 -8.203,8.204 v 35.156 c 0,4.523 3.679,8.203 8.203,8.203 h 44.531 c 4.523,0 8.203,-3.68 8.203,-8.203 V 22.266 c 0,-4.524 -3.68,-8.204 -8.203,-8.204 z m -24.61,30.469 c 0,0.922 -0.183,1.836 -0.535,2.692 -0.351,0.851 -0.871,1.625 -1.523,2.281 -0.652,0.652 -1.43,1.172 -2.281,1.523 -0.856,0.352 -1.77,0.535 -2.692,0.535 -0.922,0 -1.836,-0.183 -2.691,-0.535 -0.852,-0.351 -1.625,-0.871 -2.281,-1.523 -0.653,-0.652 -1.172,-1.43 -1.524,-2.281 -0.351,-0.856 -0.535,-1.77 -0.535,-2.692 v -2.343 c 0,-0.309 0.062,-0.614 0.18,-0.899 0.117,-0.289 0.289,-0.547 0.504,-0.762 0.222,-0.215 0.48,-0.386 0.761,-0.504 0.285,-0.117 0.59,-0.179 0.899,-0.179 0.308,0 0.613,0.062 0.898,0.179 0.289,0.118 0.547,0.289 0.762,0.504 0.215,0.223 0.387,0.481 0.504,0.762 0.117,0.285 0.18,0.59 0.18,0.899 v 2.343 c 0,0.309 0.062,0.614 0.179,0.899 0.117,0.289 0.289,0.547 0.504,0.761 0.223,0.215 0.481,0.387 0.762,0.504 0.281,0.117 0.59,0.18 0.898,0.18 0.309,0 0.614,-0.063 0.899,-0.18 0.289,-0.117 0.547,-0.289 0.761,-0.504 0.215,-0.222 0.387,-0.48 0.504,-0.761 0.117,-0.285 0.18,-0.59 0.18,-0.899 V 30.469 c 0,-0.309 0.063,-0.614 0.18,-0.899 0.117,-0.289 0.289,-0.547 0.504,-0.761 0.222,-0.215 0.48,-0.387 0.761,-0.504 0.285,-0.117 0.59,-0.18 0.899,-0.18 0.308,0 0.613,0.063 0.898,0.18 0.289,0.117 0.547,0.289 0.762,0.504 0.215,0.222 0.387,0.48 0.504,0.761 0.117,0.285 0.179,0.59 0.179,0.899 z M 46.289,33.406 C 45.914,33.031 45.414,32.828 44.883,32.82 h -0.684 c -0.531,0 -1.031,0.211 -1.406,0.586 -0.371,0.375 -0.582,0.879 -0.586,1.406 0,0.372 0.098,0.739 0.293,1.051 0.195,0.321 0.477,0.575 0.809,0.739 l 4.574,2.289 c 1.34,0.679 2.414,1.789 3.047,3.152 0.648,1.359 0.812,2.902 0.468,4.367 -0.343,1.465 -1.168,2.77 -2.343,3.707 -1.18,0.934 -2.645,1.445 -4.149,1.445 h -0.683 c -0.887,0 -1.758,-0.179 -2.559,-0.511 -0.809,-0.332 -1.543,-0.821 -2.172,-1.449 -0.633,-0.622 -1.129,-1.364 -1.469,-2.164 -0.335,-0.805 -0.519,-1.672 -0.523,-2.563 -0.004,-0.641 0.234,-1.258 0.672,-1.727 0.433,-0.468 1.035,-0.753 1.672,-0.793 0.301,-0.019 0.601,0.024 0.883,0.129 0.281,0.098 0.539,0.258 0.753,0.469 0.219,0.199 0.399,0.449 0.52,0.719 0.117,0.273 0.184,0.562 0.188,0.859 -0.032,0.285 -0.004,0.578 0.078,0.852 0.086,0.277 0.226,0.535 0.414,0.758 0.187,0.218 0.418,0.398 0.675,0.523 0.262,0.125 0.543,0.195 0.833,0.211 h 0.687 c 0.262,0 0.52,-0.055 0.758,-0.156 0.238,-0.098 0.461,-0.242 0.648,-0.43 0.375,-0.375 0.578,-0.875 0.586,-1.406 0,-0.371 -0.101,-0.735 -0.297,-1.051 -0.191,-0.316 -0.472,-0.57 -0.804,-0.734 l -4.578,-2.309 c -1.34,-0.68 -2.407,-1.785 -3.04,-3.148 -0.632,-1.36 -0.793,-2.891 -0.445,-4.356 0.34,-1.461 1.164,-2.765 2.344,-3.699 2.691,-2.145 7.105,-1.941 9.555,0.5 1.253,1.254 1.96,2.957 1.96,4.726 0,0.641 -0.234,1.258 -0.671,1.727 -0.434,0.469 -1.036,0.754 -1.672,0.793 -0.301,0.02 -0.602,-0.023 -0.883,-0.129 -0.281,-0.098 -0.539,-0.262 -0.754,-0.469 -0.219,-0.199 -0.398,-0.445 -0.516,-0.718 -0.121,-0.274 -0.187,-0.563 -0.191,-0.86 v -0.344 c 0,-0.527 -0.215,-1.031 -0.586,-1.406 z" style="fill:currentColor;fill-opacity:1;fill-rule:nonzero;stroke:none" transform="scale(1.3333333)" /> </g>
</svg>

