<?xml version="1.0" encoding="UTF-8" standalone="no"?> <svg version="1.1" id="I29d7254ac5a44946854d24aafef111e320251106163937" width="100" height="100" viewBox="0 0 100 100" xmlns="http://www.w3.org/2000/svg" xmlns:svg="http://www.w3.org/2000/svg"> <defs id="I359b823bdcea4c57a80e0a4a352cce6f20251106163937" /> <g id="I4db17b4deeed47a2ad8b03592396c14820251106163937"> <path id="I67607baa871948c9b5ba11d2c074712d20251106163937" d="m 37.5,23.438 c 0,9.492 7.695,17.187 17.188,17.187 9.492,0 17.187,-7.695 17.187,-17.187 C 71.875,13.945 64.18,6.25 54.688,6.25 45.195,6.25 37.5,13.945 37.5,23.438 Z M 64.062,12.5 c 0.864,0 1.563,0.699 1.563,1.562 v 6.25 c 0,0.864 -0.699,1.563 -1.563,1.563 h -6.25 c -0.863,0 -1.562,-0.699 -1.562,-1.563 0,-0.863 0.699,-1.562 1.562,-1.562 h 3.126 c -1.426,-1.898 -3.696,-3.125 -6.25,-3.125 -2.606,0 -4.911,1.273 -6.333,3.238 -0.507,0.699 -1.484,0.856 -2.183,0.348 -0.699,-0.504 -0.856,-1.481 -0.348,-2.18 1.985,-2.742 5.215,-4.531 8.864,-4.531 3.062,0 5.828,1.258 7.812,3.281 v -1.719 c 0,-0.863 0.699,-1.562 1.562,-1.562 z M 46.875,31.094 v 1.718 c 0,0.864 -0.699,1.563 -1.563,1.563 -0.863,0 -1.562,-0.699 -1.562,-1.563 v -6.25 C 43.75,25.699 44.449,25 45.312,25 h 6.25 c 0.864,0 1.563,0.699 1.563,1.562 0,0.864 -0.699,1.563 -1.563,1.563 h -3.124 c 1.425,1.898 3.695,3.125 6.25,3.125 2.394,0 4.535,-1.074 5.972,-2.777 0.555,-0.657 1.543,-0.743 2.203,-0.184 0.657,0.555 0.742,1.543 0.184,2.203 -2.004,2.371 -5.004,3.883 -8.359,3.883 -3.063,0 -5.829,-1.258 -7.813,-3.281 z M 23.438,39.062 H 41.707 C 40.098,37.727 38.699,36.145 37.566,34.375 H 23.438 c -1.293,0 -2.344,1.051 -2.344,2.344 0,1.293 1.051,2.343 2.344,2.343 z M 34.375,23.438 c 0,-1.614 0.187,-3.184 0.543,-4.688 H 14.062 c -1.292,0 -2.343,1.051 -2.343,2.344 0,1.293 1.051,2.344 2.343,2.344 z M 42.188,50 c 1.292,0 2.343,1.051 2.343,2.344 0,1.293 -1.051,2.344 -2.343,2.344 h -9.376 c -1.292,0 -2.343,-1.051 -2.343,-2.344 0,-1.293 1.051,-2.344 2.343,-2.344 z" style="fill:currentColor;fill-opacity:1;fill-rule:nonzero;stroke:none" transform="scale(1.3333333)" /> </g>
</svg>

