<?xml version="1.0" encoding="UTF-8" standalone="no"?> <svg version="1.1" id="I149497fe7ef44490b0f43d6dbcbb826020251110135155" width="100" height="100" viewBox="0 0 100 100" xmlns="http://www.w3.org/2000/svg" xmlns:svg="http://www.w3.org/2000/svg"> <defs id="I5c0eca7b1f9543d7b60b624290aecfbf20251110135155" /> <g id="I32f7b75b6c1a46499b8d0799e5a3113120251110135155"> <path id="I739cb97e2baf4e48a1ccf21f3caeb04b20251110135155" d="m 61.219,15.879 c -0.203,-0.102 -0.418,-0.176 -0.649,-0.219 -0.281,-0.051 -0.562,-0.047 -0.832,0.004 -0.394,0.07 -0.75,0.238 -1.047,0.477 -0.363,0.293 -0.64,0.691 -0.777,1.148 -2.156,6.41 -6.43,10.652 -9.902,12.734 -1.11,0.665 -1.469,2.106 -0.801,3.215 0.664,1.11 2.105,1.469 3.215,0.805 2.418,-1.453 5.074,-3.688 7.386,-6.707 v 29.695 c 0,1.297 1.051,2.344 2.344,2.344 1.293,0 2.344,-1.047 2.344,-2.344 V 18.035 c 0.012,-0.449 -0.105,-0.887 -0.328,-1.265 -0.223,-0.372 -0.547,-0.684 -0.953,-0.891 z m -50.281,2.09 c 0,-1.293 -1.051,-2.344 -2.344,-2.344 -1.293,0 -2.344,1.051 -2.344,2.344 v 39.062 c 0,1.297 1.051,2.344 2.344,2.344 1.293,0 2.344,-1.047 2.344,-2.344 V 39.062 H 31.25 v 17.969 c 0,1.297 1.051,2.344 2.344,2.344 1.293,0 2.344,-1.047 2.344,-2.344 V 17.969 c 0,-1.293 -1.051,-2.344 -2.344,-2.344 -1.293,0 -2.344,1.051 -2.344,2.344 V 34.375 H 10.938 Z" style="fill:currentColor;fill-opacity:1;fill-rule:nonzero;stroke:none" transform="scale(1.3333333)" /> </g>
</svg>

