<?xml version="1.0" encoding="UTF-8" standalone="no"?> <svg version="1.1" id="I2185c5c59daa403c87a6a697a072dc3c20251106152728" width="100" height="100" viewBox="0 0 100 100" xmlns="http://www.w3.org/2000/svg" xmlns:svg="http://www.w3.org/2000/svg"> <defs id="Ie3798b29801c4b749238aa42007d00e520251106152728" /> <g id="Ibcbd4450f27a475886959187fb581d1d20251106152728"> <path id="I1b78e6ad2f20447a8e992ad7418e8a0920251106152728" d="m 28.125,5.469 c 0,-1.293 1.051,-2.344 2.344,-2.344 1.293,0 2.343,1.051 2.343,2.344 v 3.953 c 1.407,0.125 2.782,0.73 3.86,1.808 l 11.051,11.047 c 2.437,2.442 2.437,6.399 0,8.84 L 34.461,44.375 c -2.438,2.441 -6.395,2.441 -8.836,0 L 14.574,33.324 c -2.441,-2.437 -2.441,-6.398 0,-8.836 L 27.832,11.23 c 0.098,-0.097 0.195,-0.187 0.293,-0.273 z m 0,14.062 v -1.965 l -9.031,9.032 H 44.859 C 44.836,26.23 44.688,25.871 44.406,25.59 L 33.359,14.543 c -0.16,-0.16 -0.347,-0.277 -0.547,-0.355 v 5.343 c 0,1.293 -1.05,2.344 -2.343,2.344 -1.293,0 -2.344,-1.051 -2.344,-2.344 z m -8.961,11.754 9.774,9.774 c 0.609,0.613 1.601,0.613 2.21,0 l 9.778,-9.774 z m 1.418,12.465 h -6.52 c -4.316,0 -7.812,3.496 -7.812,7.812 v 9.376 c 0,4.316 3.496,7.812 7.812,7.812 h 46.876 c 4.316,0 7.812,-3.496 7.812,-7.812 v -9.376 c 0,-3.796 -2.707,-6.96 -6.297,-7.664 0.031,0.332 0.047,0.676 0.047,1.024 0,1.254 -0.203,2.496 -0.59,3.672 1.25,0.406 2.152,1.582 2.152,2.968 v 9.376 c 0,1.726 -1.398,3.124 -3.124,3.124 H 14.062 c -1.726,0 -3.124,-1.398 -3.124,-3.124 v -9.376 c 0,-1.726 1.398,-3.124 3.124,-3.124 h 11.985 c -0.953,-0.45 -1.844,-1.067 -2.633,-1.852 z m 23.168,1.172 c 0,-1.543 0.48,-3.039 1.066,-4.317 0.598,-1.296 1.372,-2.519 2.11,-3.543 0.738,-1.035 1.476,-1.914 2.027,-2.539 0.266,-0.3 0.754,-0.816 0.934,-1.007 L 49.906,33.5 c 0.914,-0.918 2.399,-0.918 3.313,0 l 0.953,1.023 c 0.551,0.625 1.289,1.504 2.027,2.539 0.739,1.024 1.512,2.247 2.11,3.543 0.586,1.278 1.066,2.774 1.066,4.317 0,4.344 -3.215,8.203 -7.813,8.203 -4.597,0 -7.812,-3.859 -7.812,-8.203 z m 8.645,-5.129 c -0.282,-0.391 -0.563,-0.758 -0.833,-1.09 -0.269,0.332 -0.55,0.699 -0.832,1.09 -0.628,0.879 -1.222,1.832 -1.652,2.769 -0.437,0.954 -0.64,1.754 -0.64,2.36 0,2.16 1.503,3.516 3.124,3.516 1.622,0 3.126,-1.356 3.126,-3.516 0,-0.606 -0.204,-1.406 -0.641,-2.36 -0.43,-0.937 -1.024,-1.89 -1.652,-2.769 z" style="fill:currentColor;fill-opacity:1;fill-rule:nonzero;stroke:none" transform="scale(1.3333333)" /> </g>
</svg>

