<?xml version="1.0" encoding="UTF-8" standalone="no"?> <svg version="1.1" id="I710813e2ef2940c39e8ab308c1ef4e3920251106142136" width="100" height="100" viewBox="0 0 100 100" xmlns="http://www.w3.org/2000/svg" xmlns:svg="http://www.w3.org/2000/svg"> <defs id="I5079aabf0432456ca9f6cac774541f6720251106142136" /> <g id="I75586ff590a74ab09b66a23bc290802e20251106142136"> <path id="I0b393ab76e0f41ea80871d04bbe2238620251106142136" d="m 11.719,10.938 c -0.43,0 -0.781,0.351 -0.781,0.781 v 39.062 c 0,0.43 0.351,0.781 0.781,0.781 H 28.125 V 56.25 H 11.719 C 8.699,56.25 6.25,53.801 6.25,50.781 V 11.719 c 0,-3.02 2.449,-5.469 5.469,-5.469 h 17.187 c 3.02,0 5.469,2.449 5.469,5.469 v 9.375 c 0,0.429 0.352,0.781 0.781,0.781 h 3.125 c 3.02,0 5.469,2.449 5.469,5.469 v 0.222 l -4.688,4.375 v -4.597 c 0,-0.43 -0.351,-0.782 -0.781,-0.782 h -3.125 c -3.019,0 -5.468,-2.449 -5.468,-5.468 v -9.375 c 0,-0.43 -0.352,-0.781 -0.782,-0.781 z m 7.031,7.031 c 0,1.293 -1.051,2.343 -2.344,2.343 -1.293,0 -2.344,-1.05 -2.344,-2.343 0,-1.293 1.051,-2.344 2.344,-2.344 1.293,0 2.344,1.051 2.344,2.344 z m -2.344,11.719 c 1.293,0 2.344,-1.051 2.344,-2.344 0,-1.293 -1.051,-2.344 -2.344,-2.344 -1.293,0 -2.344,1.051 -2.344,2.344 0,1.293 1.051,2.344 2.344,2.344 z m 2.344,7.031 c 0,1.293 -1.051,2.343 -2.344,2.343 -1.293,0 -2.344,-1.05 -2.344,-2.343 0,-1.293 1.051,-2.344 2.344,-2.344 1.293,0 2.344,1.051 2.344,2.344 z m 5.469,-16.407 c 1.293,0 2.343,-1.05 2.343,-2.343 0,-1.293 -1.05,-2.344 -2.343,-2.344 -1.293,0 -2.344,1.051 -2.344,2.344 0,1.293 1.051,2.343 2.344,2.343 z m 2.343,7.032 c 0,1.293 -1.05,2.344 -2.343,2.344 -1.293,0 -2.344,-1.051 -2.344,-2.344 0,-1.293 1.051,-2.344 2.344,-2.344 1.293,0 2.343,1.051 2.343,2.344 z m -2.343,11.718 c 1.293,0 2.343,-1.05 2.343,-2.343 0,-1.293 -1.05,-2.344 -2.343,-2.344 -1.293,0 -2.344,1.051 -2.344,2.344 0,1.293 1.051,2.343 2.344,2.343 z M 53.73,29.496 c -2.101,-1.961 -5.359,-1.961 -7.46,0 L 32.988,41.891 c -1.109,1.035 -1.738,2.484 -1.738,4 v 18.171 c 0,2.59 2.098,4.688 4.688,4.688 h 6.25 c 2.589,0 4.687,-2.098 4.687,-4.688 V 56.25 h 6.25 v 7.812 c 0,2.59 2.098,4.688 4.687,4.688 h 6.25 c 2.59,0 4.688,-2.098 4.688,-4.688 V 45.891 c 0,-1.516 -0.629,-2.965 -1.738,-4 z m -4.261,3.426 c 0.297,-0.281 0.765,-0.281 1.062,0 l 13.281,12.394 c 0.161,0.149 0.25,0.356 0.25,0.575 v 18.171 h -6.25 V 56.25 c 0,-2.586 -2.097,-4.688 -4.687,-4.688 h -6.25 c -2.59,0 -4.687,2.102 -4.687,4.688 v 7.812 h -6.25 V 45.891 c 0,-0.219 0.089,-0.426 0.25,-0.575 z" style="fill:currentColor;fill-opacity:1;fill-rule:nonzero;stroke:none" transform="scale(1.3333333)" /> </g>
</svg>

