<?xml version="1.0" encoding="UTF-8" standalone="no"?> <svg version="1.1" id="Ib4ba0273253547a5ba48c7275db5099820251110123031" width="100" height="100" viewBox="0 0 100 100" xmlns="http://www.w3.org/2000/svg" xmlns:svg="http://www.w3.org/2000/svg"> <defs id="I11f866667c154c0a8d9d71c95ff6997220251110123031" /> <g id="I1354ee55abf649339a3016b05dfcade320251110123031"> <path id="I63fb21dae19a497a8f79d8b33cacabe720251110123031" d="M 8.785,5.945 C 8.004,5.16 6.73,5.16 5.945,5.945 5.16,6.73 5.16,8.004 5.945,8.785 L 26.23,29.07 16.52,32.805 c -3.168,1.218 -4.032,5.293 -1.633,7.691 l 8.386,8.387 -15.238,15.238 v 2.844 h 2.84 l 15.242,-15.242 8.387,8.39 c 2.398,2.399 6.473,1.535 7.691,-1.633 l 3.735,-9.71 20.281,20.285 c 0.785,0.785 2.059,0.785 2.844,0 0.785,-0.785 0.785,-2.055 0,-2.84 z m 22.82,17.137 20.313,20.313 11.336,-5.372 c 5.441,-2.574 6.687,-9.765 2.43,-14.019 L 50.996,9.316 C 46.738,5.059 39.551,6.305 36.973,11.746 Z" style="fill:currentColor;fill-opacity:1;fill-rule:nonzero;stroke:none" transform="scale(1.3333333)" /> </g>
</svg>

