<?xml version="1.0" encoding="UTF-8" standalone="no"?> <svg version="1.1" id="I19ca1fa7ec0042d3972bdbd919623d6a20251106165301" width="100" height="100" viewBox="0 0 100 100" xmlns="http://www.w3.org/2000/svg" xmlns:svg="http://www.w3.org/2000/svg"> <defs id="I8f23641eda6e4548a9e4ccc1e65ef60320251106165301" /> <g id="I241c4448cc194e47b4900dc5f75ee94920251106165301"> <path id="Idd4c9c5364f34150ba9a5fb4e02ba67c20251106165301" d="M 71.875,20.312 C 71.875,10.82 64.18,3.125 54.688,3.125 45.195,3.125 37.5,10.82 37.5,20.312 c 0,9.493 7.695,17.188 17.188,17.188 9.492,0 17.187,-7.695 17.187,-17.188 z m -15.625,1.563 0.004,7.824 c 0,0.863 -0.699,1.563 -1.563,1.563 -0.863,0 -1.562,-0.7 -1.562,-1.563 l -0.004,-7.824 h -7.828 c -0.859,0 -1.559,-0.699 -1.559,-1.563 0,-0.863 0.7,-1.562 1.559,-1.562 h 7.828 v -7.816 c 0,-0.86 0.699,-1.563 1.563,-1.563 0.863,0 1.562,0.703 1.562,1.563 v 7.816 h 7.801 c 0.863,0 1.562,0.699 1.562,1.562 0,0.864 -0.699,1.563 -1.562,1.563 z m -1.562,18.75 c 1.613,0 3.183,-0.187 4.687,-0.543 v 6.793 c 0,3.453 -2.797,6.25 -6.25,6.25 h -6.25 C 45.148,53.125 43.75,51.727 43.75,50 V 37.434 c 3.156,2.019 6.91,3.191 10.938,3.191 z M 37.566,9.375 c -0.949,1.488 -1.714,3.105 -2.254,4.824 -8.46,1.078 -15,8.301 -15,17.051 v 3.125 h 7.813 c 1.727,0 3.125,1.398 3.125,3.125 V 50 c 0,1.727 -1.398,3.125 -3.125,3.125 h -6.25 c -0.539,0 -1.063,-0.07 -1.563,-0.195 v 0.976 c 0,3.723 2.891,6.766 6.551,7.016 l 0.481,0.016 3.523,0.003 c 0.965,-2.734 3.571,-4.691 6.633,-4.691 3.883,0 7.031,3.148 7.031,7.031 0,3.883 -3.148,7.031 -7.031,7.031 -3.062,0 -5.664,-1.957 -6.633,-4.687 h -3.523 c -6.262,0 -11.379,-4.914 -11.703,-11.098 L 15.625,53.906 V 31.25 C 15.625,19.168 25.418,9.375 37.5,9.375 Z" style="fill:currentColor;fill-opacity:1;fill-rule:nonzero;stroke:none" transform="scale(1.3333333)" /> </g>
</svg>

