<?xml version="1.0" encoding="UTF-8" standalone="no"?> <svg version="1.1" id="I5b562f0c3c95423fa0dd76a6d6e55eb720251106113050" width="100" height="100" viewBox="0 0 100 100" xmlns="http://www.w3.org/2000/svg" xmlns:svg="http://www.w3.org/2000/svg"> <defs id="Ibdb2f14c5c124e4685fc06019112c7d120251106113050" /> <g id="I804d55b48f2d475ebf8ad045059f660c20251106113050"> <path id="Ic3d694a2d9bb4b459431f53cec0b943320251106113050" d="M 68.305,4.02 H 6.695 C 5.215,4.02 4.02,5.215 4.02,6.695 v 61.61 c 0,1.48 1.195,2.675 2.675,2.675 h 61.61 c 1.48,0 2.675,-1.195 2.675,-2.675 V 6.695 C 70.98,5.215 69.785,4.02 68.305,4.02 Z M 64.957,64.957 H 10.043 V 10.043 H 64.957 Z M 23.102,51.812 v 6.446 c 0,0.371 0.3,0.672 0.671,0.672 h 4.016 c 0.371,0 0.672,-0.301 0.672,-0.672 v -6.446 c -0.848,0.278 -1.742,0.418 -2.68,0.418 -0.937,0 -1.832,-0.148 -2.679,-0.418 z M 28.461,35.238 V 16.742 c 0,-0.371 -0.301,-0.672 -0.672,-0.672 h -4.016 c -0.371,0 -0.671,0.301 -0.671,0.672 v 18.496 c 0.847,-0.273 1.742,-0.418 2.679,-0.418 0.938,0 1.832,0.153 2.68,0.418 z m -5.359,16.574 c 0.847,0.278 1.742,0.418 2.679,0.418 0.938,0 1.832,-0.148 2.68,-0.418 3.496,-1.128 6.027,-4.41 6.027,-8.285 0,-3.875 -2.531,-7.156 -6.027,-8.289 -0.848,-0.273 -1.742,-0.418 -2.68,-0.418 -0.937,0 -1.832,0.153 -2.679,0.418 -3.497,1.133 -6.028,4.414 -6.028,8.289 0,3.875 2.531,7.157 6.028,8.285 z m 0.007,-9.683 c 0.028,-0.051 0.059,-0.102 0.086,-0.152 v -0.008 l 0.102,-0.149 c 0.008,-0.019 0.015,-0.027 0.023,-0.043 0.024,-0.043 0.059,-0.074 0.082,-0.117 0.012,-0.008 0.02,-0.023 0.028,-0.035 0.043,-0.047 0.074,-0.09 0.117,-0.133 l 0.16,-0.16 c 0.039,-0.039 0.082,-0.074 0.133,-0.117 0.051,-0.039 0.09,-0.074 0.14,-0.106 0.02,-0.011 0.028,-0.019 0.043,-0.027 0.043,-0.023 0.075,-0.059 0.118,-0.082 0.007,-0.008 0.023,-0.02 0.035,-0.027 0.047,-0.032 0.097,-0.059 0.156,-0.09 0.008,-0.008 0.027,-0.008 0.035,-0.02 0.043,-0.023 0.082,-0.039 0.133,-0.066 l 0.051,-0.024 c 0.058,-0.027 0.109,-0.05 0.168,-0.066 0.058,-0.027 0.117,-0.043 0.176,-0.059 0.015,-0.007 0.031,-0.007 0.05,-0.019 0.051,-0.016 0.09,-0.024 0.141,-0.031 0.016,0 0.027,-0.008 0.043,-0.008 0.059,-0.02 0.125,-0.028 0.183,-0.035 0.016,0 0.024,0 0.043,-0.008 0.051,-0.008 0.098,-0.008 0.149,-0.016 h 0.051 c 0.066,0 0.125,-0.008 0.191,-0.008 0.07,0 0.129,0 0.195,0.008 h 0.051 c 0.047,0 0.098,0.008 0.149,0.016 0.015,0 0.027,0 0.043,0.008 0.058,0.007 0.125,0.015 0.183,0.035 0.016,0 0.024,0.008 0.043,0.008 0.051,0.007 0.098,0.023 0.141,0.031 0.015,0.012 0.035,0.012 0.051,0.019 0.058,0.016 0.117,0.032 0.175,0.059 0.059,0.016 0.11,0.039 0.168,0.066 l 0.051,0.024 c 0.039,0.019 0.09,0.043 0.133,0.066 0.008,0.012 0.023,0.012 0.035,0.02 0.047,0.023 0.106,0.058 0.156,0.09 0.008,0.007 0.028,0.019 0.035,0.027 0.043,0.023 0.083,0.051 0.118,0.082 0.015,0.008 0.023,0.016 0.043,0.027 0.046,0.032 0.097,0.075 0.14,0.106 0.043,0.035 0.094,0.078 0.133,0.117 l 0.16,0.16 c 0.043,0.043 0.082,0.094 0.117,0.133 0.008,0.012 0.016,0.027 0.024,0.035 0.035,0.035 0.058,0.074 0.086,0.117 0.008,0.016 0.015,0.024 0.023,0.043 l 0.102,0.149 c 0,0 0,0.008 0.008,0.008 0.281,0.468 0.425,1.003 0.425,1.55 0,0.5 -0.125,0.981 -0.339,1.399 -0.028,0.051 -0.059,0.097 -0.086,0.148 0,0 0,0.008 -0.008,0.008 l -0.102,0.152 c -0.008,0.016 -0.015,0.024 -0.023,0.043 -0.028,0.039 -0.059,0.075 -0.086,0.118 -0.008,0.007 -0.016,0.023 -0.024,0.031 -0.043,0.051 -0.074,0.094 -0.117,0.136 l -0.125,0.126 -0.035,0.031 c -0.039,0.043 -0.082,0.078 -0.133,0.117 -0.051,0.043 -0.094,0.078 -0.14,0.109 -0.02,0.008 -0.028,0.016 -0.043,0.028 -0.043,0.023 -0.075,0.058 -0.118,0.082 -0.007,0.007 -0.027,0.015 -0.035,0.023 -0.05,0.035 -0.097,0.059 -0.156,0.094 -0.012,0.008 -0.027,0.008 -0.035,0.016 -0.043,0.027 -0.082,0.042 -0.133,0.066 l -0.051,0.027 c -0.058,0.024 -0.109,0.051 -0.168,0.067 -0.058,0.023 -0.117,0.043 -0.175,0.058 -0.016,0.008 -0.036,0.008 -0.051,0.016 -0.051,0.019 -0.09,0.027 -0.141,0.035 -0.019,0 -0.027,0.008 -0.043,0.008 -0.058,0.015 -0.125,0.023 -0.183,0.035 -0.016,0 -0.028,0 -0.043,0.008 -0.051,0.008 -0.102,0.008 -0.149,0.015 h -0.051 c -0.066,0 -0.125,0.008 -0.195,0.008 -0.066,0 -0.125,0 -0.191,-0.008 h -0.051 c -0.051,0 -0.098,-0.007 -0.149,-0.015 -0.019,0 -0.027,0 -0.043,-0.008 -0.058,-0.012 -0.124,-0.02 -0.183,-0.035 -0.016,0 -0.027,-0.008 -0.043,-0.008 -0.051,-0.008 -0.102,-0.027 -0.141,-0.035 -0.019,-0.008 -0.035,-0.008 -0.05,-0.016 -0.059,-0.015 -0.118,-0.035 -0.176,-0.058 -0.059,-0.016 -0.11,-0.043 -0.168,-0.067 L 24.5,46.254 C 24.457,46.238 24.41,46.215 24.367,46.188 24.359,46.18 24.34,46.18 24.332,46.172 24.281,46.148 24.223,46.113 24.176,46.078 24.164,46.07 24.148,46.062 24.141,46.055 24.098,46.031 24.059,46.004 24.023,45.973 24.008,45.961 24,45.953 23.98,45.945 23.93,45.914 23.883,45.871 23.84,45.836 23.797,45.805 23.746,45.762 23.707,45.719 L 23.672,45.688 23.547,45.562 C 23.504,45.52 23.461,45.469 23.43,45.426 23.422,45.418 23.414,45.402 23.402,45.395 23.371,45.359 23.344,45.316 23.32,45.277 23.312,45.258 23.305,45.25 23.297,45.234 L 23.195,45.082 V 45.074 C 23.16,45.023 23.137,44.977 23.109,44.926 22.895,44.508 22.77,44.027 22.77,43.527 c 0,-0.504 0.125,-0.98 0.339,-1.398 z m 23.43,-2.367 v 18.496 c 0,0.371 0.301,0.672 0.672,0.672 h 4.016 c 0.371,0 0.671,-0.301 0.671,-0.672 V 39.762 c -0.847,0.273 -1.742,0.418 -2.679,0.418 -0.938,0 -1.832,-0.153 -2.68,-0.418 z m 5.359,-16.574 v -6.446 c 0,-0.371 -0.3,-0.672 -0.671,-0.672 h -4.016 c -0.371,0 -0.672,0.301 -0.672,0.672 v 6.446 c 0.848,-0.278 1.742,-0.418 2.68,-0.418 0.937,0 1.832,0.148 2.679,0.418 z m -5.359,16.574 c 0.848,0.273 1.742,0.418 2.68,0.418 0.937,0 1.832,-0.153 2.679,-0.418 3.497,-1.133 6.028,-4.414 6.028,-8.289 0,-3.875 -2.531,-7.157 -6.028,-8.285 -0.847,-0.278 -1.742,-0.418 -2.679,-0.418 -0.938,0 -1.832,0.148 -2.68,0.418 -3.496,1.128 -6.027,4.41 -6.027,8.285 0,3.875 2.531,7.156 6.027,8.289 z m 0.008,-9.688 c 0.027,-0.051 0.058,-0.097 0.086,-0.148 v -0.008 l 0.101,-0.152 c 0.008,-0.016 0.016,-0.024 0.024,-0.043 0.023,-0.039 0.058,-0.075 0.082,-0.118 0.012,-0.007 0.019,-0.023 0.027,-0.031 0.043,-0.051 0.074,-0.094 0.117,-0.136 l 0.125,-0.126 0.036,-0.031 c 0.039,-0.043 0.082,-0.078 0.132,-0.117 0.051,-0.043 0.09,-0.078 0.141,-0.109 0.02,-0.008 0.027,-0.016 0.043,-0.028 0.043,-0.023 0.074,-0.058 0.117,-0.082 0.008,-0.007 0.024,-0.015 0.035,-0.023 0.047,-0.035 0.098,-0.059 0.157,-0.094 0.007,-0.008 0.027,-0.008 0.035,-0.016 0.043,-0.027 0.082,-0.042 0.133,-0.066 l 0.05,-0.027 c 0.059,-0.024 0.11,-0.051 0.168,-0.067 0.059,-0.023 0.117,-0.043 0.176,-0.058 0.016,-0.008 0.031,-0.008 0.051,-0.016 0.051,-0.019 0.09,-0.027 0.14,-0.035 0.016,0 0.028,-0.008 0.043,-0.008 0.059,-0.015 0.125,-0.023 0.184,-0.035 0.016,0 0.023,0 0.043,-0.008 0.051,-0.008 0.098,-0.008 0.148,-0.015 h 0.051 c 0.067,0 0.125,-0.008 0.192,-0.008 0.07,0 0.128,0 0.195,0.008 h 0.051 c 0.047,0 0.097,0.007 0.148,0.015 0.016,0 0.027,0 0.043,0.008 0.059,0.012 0.125,0.02 0.184,0.035 0.015,0 0.023,0.008 0.043,0.008 0.05,0.008 0.097,0.027 0.14,0.035 0.016,0.008 0.035,0.008 0.051,0.016 0.059,0.015 0.117,0.035 0.176,0.058 0.058,0.016 0.109,0.043 0.168,0.067 l 0.051,0.027 c 0.039,0.016 0.089,0.039 0.132,0.066 0.008,0.008 0.024,0.008 0.036,0.016 0.046,0.024 0.105,0.059 0.156,0.094 0.008,0.008 0.027,0.016 0.035,0.023 0.043,0.024 0.082,0.051 0.117,0.082 0.016,0.012 0.024,0.02 0.043,0.028 0.047,0.031 0.098,0.074 0.141,0.109 0.043,0.031 0.094,0.074 0.133,0.117 l 0.035,0.031 0.125,0.126 c 0.043,0.042 0.082,0.093 0.117,0.136 0.008,0.008 0.016,0.024 0.023,0.031 0.035,0.036 0.059,0.079 0.086,0.118 0.008,0.019 0.016,0.027 0.024,0.043 l 0.101,0.152 v 0.008 c 0.278,0.469 0.426,1.004 0.426,1.547 0,0.504 -0.125,0.98 -0.344,1.398 -0.023,0.051 -0.058,0.102 -0.082,0.152 v 0.008 l -0.101,0.149 c -0.008,0.019 -0.016,0.027 -0.024,0.043 -0.027,0.043 -0.058,0.074 -0.086,0.117 -0.007,0.008 -0.015,0.023 -0.023,0.035 -0.043,0.047 -0.074,0.09 -0.117,0.133 l -0.16,0.16 c -0.039,0.039 -0.082,0.074 -0.133,0.117 -0.051,0.039 -0.094,0.074 -0.141,0.106 -0.019,0.011 -0.027,0.019 -0.043,0.027 -0.043,0.023 -0.074,0.059 -0.117,0.082 -0.008,0.008 -0.027,0.02 -0.035,0.027 -0.051,0.032 -0.098,0.059 -0.156,0.09 -0.012,0.008 -0.028,0.008 -0.036,0.02 -0.043,0.023 -0.082,0.039 -0.132,0.066 l -0.051,0.024 c -0.059,0.027 -0.11,0.05 -0.168,0.066 -0.059,0.027 -0.117,0.043 -0.176,0.059 -0.016,0.007 -0.035,0.007 -0.051,0.019 -0.05,0.016 -0.09,0.024 -0.14,0.031 -0.02,0 -0.028,0.008 -0.043,0.008 -0.059,0.02 -0.125,0.028 -0.184,0.035 -0.016,0 -0.027,0 -0.043,0.008 -0.051,0.008 -0.101,0.008 -0.148,0.016 h -0.051 c -0.067,0 -0.125,0.008 -0.195,0.008 -0.067,0 -0.125,0 -0.192,-0.008 h -0.051 c -0.05,0 -0.097,-0.008 -0.148,-0.016 -0.02,0 -0.027,0 -0.043,-0.008 -0.059,-0.007 -0.125,-0.015 -0.184,-0.035 -0.015,0 -0.027,-0.008 -0.043,-0.008 -0.05,-0.007 -0.101,-0.023 -0.14,-0.031 -0.02,-0.012 -0.035,-0.012 -0.051,-0.019 -0.059,-0.016 -0.117,-0.032 -0.176,-0.059 -0.058,-0.016 -0.109,-0.039 -0.168,-0.066 l -0.05,-0.024 C 47.895,34.184 47.848,34.16 47.805,34.137 47.797,34.125 47.777,34.125 47.77,34.117 47.719,34.094 47.66,34.059 47.613,34.027 47.602,34.02 47.586,34.008 47.578,34 47.535,33.977 47.496,33.949 47.461,33.918 47.445,33.91 47.438,33.902 47.418,33.891 47.367,33.859 47.32,33.816 47.277,33.785 47.234,33.75 47.184,33.707 47.145,33.668 l -0.161,-0.16 C 46.941,33.465 46.898,33.414 46.867,33.375 46.859,33.363 46.852,33.348 46.84,33.34 46.809,33.305 46.781,33.266 46.758,33.223 46.75,33.207 46.742,33.199 46.734,33.18 l -0.101,-0.149 v -0.008 c -0.035,-0.05 -0.059,-0.101 -0.086,-0.152 -0.215,-0.418 -0.34,-0.894 -0.34,-1.398 0,-0.5 0.125,-0.981 0.34,-1.399 z" style="fill:currentColor;fill-opacity:1;fill-rule:nonzero;stroke:none" transform="scale(1.3333333)" /> </g>
</svg>

