<?xml version="1.0" encoding="UTF-8" standalone="no"?> <svg version="1.1" id="I9548bfdbf4e24ccc94b691c7a9c9b4e820251110124421" width="100" height="100" viewBox="0 0 100 100" xmlns="http://www.w3.org/2000/svg" xmlns:svg="http://www.w3.org/2000/svg"> <defs id="I1480b09e38cd4e18bb716145184ab28c20251110124421" /> <g id="Ic332093186054cd596ec8fefbe2aad3e20251110124421"> <path id="Ic84546c5cd50428cac484c976f314a1320251110124421" d="m 37.5,35.625 c 4.141,0 7.5,-3.359 7.5,-7.5 0,-4.145 -3.359,-7.5 -7.5,-7.5 -4.141,0 -7.5,3.355 -7.5,7.5 0,4.141 3.359,7.5 7.5,7.5 z m 0,18.75 c 9.375,0 13.125,-4.707 13.125,-9.375 0,-3.109 -2.52,-5.625 -5.625,-5.625 H 30 c -3.105,0 -5.625,2.516 -5.625,5.625 0,4.684 3.75,9.375 13.125,9.375 z M 38.539,7.816 c -0.629,-0.421 -1.449,-0.421 -2.078,0 -7.27,4.844 -15.129,7.868 -23.602,9.079 -0.921,0.132 -1.609,0.921 -1.609,1.855 v 16.875 c 0,14.594 8.652,25.238 25.578,31.75 0.434,0.168 0.91,0.168 1.344,0 C 55.098,60.863 63.75,50.219 63.75,35.625 V 18.75 c 0,-0.934 -0.688,-1.723 -1.609,-1.855 C 53.668,15.684 45.809,12.66 38.539,7.816 Z M 15,20.355 c 7.445,-1.265 14.449,-3.871 20.996,-7.808 l 1.504,-0.934 1.504,0.934 C 45.551,16.484 52.555,19.09 60,20.355 v 15.27 C 60,48.344 52.621,57.613 37.5,63.613 22.379,57.613 15,48.344 15,35.625 Z" style="fill:currentColor;fill-opacity:1;fill-rule:nonzero;stroke:none" transform="scale(1.3333333)" /> </g>
</svg>

