<?xml version="1.0" encoding="UTF-8" standalone="no"?> <svg version="1.1" id="I1128fdbd4bf2476fbda457cb8fbaf7c220251106125938" width="100" height="100" viewBox="0 0 100 100" xmlns="http://www.w3.org/2000/svg" xmlns:svg="http://www.w3.org/2000/svg"> <defs id="Icdc6d47924e94053ad55948259eb451320251106125938" /> <g id="I91e6ea1f825c4d5292fab4cfa743c7b020251106125938"> <path id="Ic6062cbe79cd4effaf8b0e15938f60f120251106125938" d="m 47.797,50.73 c 0.887,0.942 0.848,2.426 -0.09,3.317 -0.941,0.887 -2.426,0.848 -3.316,-0.09 L 30.328,39.113 c -0.855,-0.906 -0.855,-2.32 0,-3.226 L 44.391,21.043 c 0.89,-0.938 2.375,-0.977 3.316,-0.09 0.938,0.891 0.977,2.375 0.09,3.317 L 37.48,35.156 h 28.926 c 1.293,0 2.344,1.051 2.344,2.344 0,1.293 -1.051,2.344 -2.344,2.344 H 37.48 Z M 6.25,37.5 c 0,-5.18 4.199,-9.375 9.375,-9.375 5.176,0 9.375,4.195 9.375,9.375 0,5.18 -4.199,9.375 -9.375,9.375 -5.176,0 -9.375,-4.195 -9.375,-9.375 z" style="fill:currentColor;fill-opacity:1;fill-rule:nonzero;stroke:none" transform="scale(1.3333333)" /> </g>
</svg>

