<?xml version="1.0" encoding="UTF-8" standalone="no"?> <svg version="1.1" id="I23215e0549b644e5b98cf8731955963120251110124422" width="100" height="100" viewBox="0 0 100 100" xmlns="http://www.w3.org/2000/svg" xmlns:svg="http://www.w3.org/2000/svg"> <defs id="I6b3ca3b099d44a00bcd75467b01e74ff20251110124422" /> <g id="I51571b15c99e4eab9ef3a3f3bc3f66d620251110124422"> <path id="I0a704bbb819441179cb9db31a6d5e4b220251110124422" d="m 14.844,12.5 c -4.746,0 -8.594,3.848 -8.594,8.594 v 32.812 c 0,4.746 3.848,8.594 8.594,8.594 h 21.09 C 35.312,61.02 34.867,59.449 34.613,57.812 H 14.844 c -2.156,0 -3.906,-1.75 -3.906,-3.906 V 21.094 c 0,-2.156 1.75,-3.906 3.906,-3.906 h 45.312 c 2.156,0 3.906,1.75 3.906,3.906 v 15.57 c 1.723,0.898 3.301,2.035 4.688,3.367 V 21.094 C 68.75,16.348 64.902,12.5 60.156,12.5 Z M 23.438,25 c -2.59,0 -4.688,2.098 -4.688,4.688 0,2.589 2.098,4.687 4.688,4.687 h 28.124 c 2.59,0 4.688,-2.098 4.688,-4.687 C 56.25,27.098 54.152,25 51.562,25 Z m 48.437,29.688 c 0,9.492 -7.695,17.187 -17.187,17.187 C 45.195,71.875 37.5,64.18 37.5,54.688 37.5,45.195 45.195,37.5 54.688,37.5 c 9.492,0 17.187,7.695 17.187,17.188 z m -19.207,7.355 12.5,-12.5 c 0.609,-0.609 0.609,-1.602 0,-2.211 -0.609,-0.609 -1.602,-0.609 -2.211,0 L 51.562,58.727 46.418,53.582 c -0.609,-0.609 -1.602,-0.609 -2.211,0 -0.609,0.609 -0.609,1.602 0,2.211 l 6.25,6.25 c 0.609,0.609 1.602,0.609 2.211,0 z" style="fill:currentColor;fill-opacity:1;fill-rule:nonzero;stroke:none" transform="scale(1.3333333)" /> </g>
</svg>

