<?xml version="1.0" encoding="UTF-8" standalone="no"?> <svg version="1.1" id="Iad5bdddb1fbf4787b61f0f29c1f9382020251106163938" width="100" height="100" viewBox="0 0 100 100" xmlns="http://www.w3.org/2000/svg" xmlns:svg="http://www.w3.org/2000/svg"> <defs id="I9b6996bec447480181b89a1b9f8e52c120251106163938" /> <g id="I751abd204fad46e7a05892e90fe1ff6820251106163938"> <path id="Ie0e27bde6be34a448a5c2b1c3a990efa20251106163938" d="m 34.375,15.625 h 17.953 c 3.883,0 7.031,3.148 7.031,7.031 V 34.375 H 54.672 V 22.656 c 0,-1.293 -1.051,-2.344 -2.344,-2.344 H 34.375 Z m -14.063,18.75 v 17.953 c 0,1.293 1.051,2.344 2.344,2.344 h 11.719 v 4.687 H 22.656 c -3.883,0 -7.031,-3.148 -7.031,-7.031 V 34.375 Z M 6.25,13.281 C 6.25,9.398 9.398,6.25 13.281,6.25 h 10.938 c 3.883,0 7.031,3.148 7.031,7.031 v 10.938 c 0,3.883 -3.148,7.031 -7.031,7.031 H 13.281 C 9.398,31.25 6.25,28.102 6.25,24.219 Z m 7.031,-2.343 c -1.293,0 -2.343,1.05 -2.343,2.343 v 10.938 c 0,1.293 1.05,2.343 2.343,2.343 h 10.938 c 1.293,0 2.343,-1.05 2.343,-2.343 V 13.281 c 0,-1.293 -1.05,-2.343 -2.343,-2.343 z M 37.5,44.531 c 0,-3.883 3.148,-7.031 7.031,-7.031 h 17.188 c 3.883,0 7.031,3.148 7.031,7.031 v 17.188 c 0,3.883 -3.148,7.031 -7.031,7.031 H 44.531 c -3.883,0 -7.031,-3.148 -7.031,-7.031 z m 7.031,-2.343 c -1.293,0 -2.343,1.05 -2.343,2.343 v 17.188 c 0,1.293 1.05,2.343 2.343,2.343 h 17.188 c 1.293,0 2.343,-1.05 2.343,-2.343 V 44.531 c 0,-1.293 -1.05,-2.343 -2.343,-2.343 z" style="fill:currentColor;fill-opacity:1;fill-rule:nonzero;stroke:none" transform="scale(1.3333333)" /> </g>
</svg>

