<?xml version="1.0" encoding="UTF-8" standalone="no"?> <svg version="1.1" id="Ia70a9d9f1ae5428ba7c2a253a6f210b720251110130509" width="100" height="100" viewBox="0 0 100 100" xmlns="http://www.w3.org/2000/svg" xmlns:svg="http://www.w3.org/2000/svg"> <defs id="Ia82bdaeae2a649d6bb5ddb549fb03a4820251110130509" /> <g id="I71b66f66149b449aa5db0d52251dc9bc20251110130509"> <path id="Ibcaddd465bbc428babcc5d358c978e2a20251110130509" d="m 54.688,12.109 c 7.121,0 12.89,5.77 12.89,12.891 0,3.898 -1.73,7.391 -4.461,9.754 0.867,2.34 1.336,4.84 1.336,7.434 0,7.468 -3.883,14.121 -9.937,18.48 -0.883,0.637 -1.813,1.223 -2.782,1.758 l -0.113,0.062 c -4.109,2.239 -8.945,3.528 -14.121,3.528 -5.176,0 -10.012,-1.289 -14.121,-3.528 C 22.422,61.965 21.5,61.391 20.625,60.77 l -0.141,-0.102 c -6.054,-4.359 -9.937,-11.012 -9.937,-18.48 0,-2.594 0.469,-5.094 1.336,-7.434 C 9.152,32.391 7.422,28.898 7.422,25 c 0,-7.121 5.769,-12.891 12.89,-12.891 4.918,0 9.196,2.758 11.368,6.809 1.875,-0.367 3.824,-0.559 5.82,-0.559 1.996,0 3.945,0.192 5.82,0.559 2.172,-4.051 6.45,-6.809 11.368,-6.809 z m -12.43,39.129 c -0.344,0.641 -0.938,1.172 -1.664,1.555 -0.86,0.457 -1.938,0.723 -3.094,0.723 -1.156,0 -2.234,-0.266 -3.094,-0.719 -0.726,-0.387 -1.32,-0.918 -1.664,-1.555 -3.566,1.324 -6.433,4.094 -7.883,7.602 3.618,2.058 7.957,3.265 12.641,3.265 4.684,0 9.023,-1.207 12.641,-3.265 -0.778,-1.887 -1.981,-3.59 -3.532,-4.977 -1.281,-1.148 -2.757,-2.035 -4.351,-2.629 z M 37.5,22.266 c -12.863,0 -23.047,9.062 -23.047,19.922 0,5.621 2.719,10.75 7.133,14.402 2.809,-5.973 8.879,-10.106 15.914,-10.106 4.5,0 8.605,1.692 11.715,4.473 1.75,1.566 3.187,3.481 4.199,5.633 4.414,-3.652 7.133,-8.781 7.133,-14.402 0,-10.86 -10.184,-19.922 -23.047,-19.922 z m -17.188,-6.25 c -4.96,0 -8.984,4.023 -8.984,8.984 0,2.289 0.863,4.426 2.34,6.047 3.023,-5.043 8.027,-9.004 14.09,-11.082 -1.641,-2.418 -4.399,-3.949 -7.446,-3.949 z m 34.376,0 c -3.047,0 -5.805,1.527 -7.446,3.949 6.063,2.078 11.067,6.039 14.09,11.082 1.48,-1.625 2.34,-3.762 2.34,-6.047 0,-4.961 -4.024,-8.984 -8.984,-8.984 z" style="fill:currentColor;fill-opacity:1;fill-rule:nonzero;stroke:none" transform="scale(1.3333333)" /> </g>
</svg>

