<?xml version="1.0" encoding="UTF-8" standalone="no"?> <svg version="1.1" id="I9e721b6f072042fcbf76c86d5527550120251106155156" width="100" height="100" viewBox="0 0 100 100" xmlns="http://www.w3.org/2000/svg" xmlns:svg="http://www.w3.org/2000/svg"> <defs id="Iafa6f176cc9c45e5b8587e82573d042120251106155156" /> <g id="Ic55713bf66ab461ba2bad3f51a4de00620251106155156"> <path id="Ie8a093e93ed9496dbe3f10fce611ac1020251106155156" d="m 20.312,37.5 c 9.493,0 17.188,7.695 17.188,17.188 0,9.492 -7.695,17.187 -17.188,17.187 C 10.82,71.875 3.125,64.18 3.125,54.688 3.125,45.195 10.82,37.5 20.312,37.5 Z M 37.902,6.25 c 1.864,0 3.653,0.742 4.973,2.059 l 8.785,8.781 8.774,8.789 c 1.316,1.316 2.054,3.105 2.054,4.969 v 30.871 c 0,3.883 -3.144,7.031 -7.031,7.031 l -20.488,0.004 c 1.332,-1.391 2.469,-2.965 3.367,-4.688 l 17.121,-0.004 c 1.297,0 2.344,-1.05 2.344,-2.343 V 31.258 l -13.27,0.004 c -3.722,0 -6.765,-2.891 -7.015,-6.551 L 37.5,24.23 37.496,10.938 H 19.531 c -1.293,0 -2.343,1.05 -2.343,2.343 l -0.004,21.332 c -1.633,0.254 -3.204,0.703 -4.688,1.321 L 12.5,13.281 c 0,-3.883 3.148,-7.031 7.031,-7.031 z m -25.113,40.52 -0.215,0.179 -0.179,0.219 c -0.372,0.531 -0.372,1.242 0,1.777 l 0.179,0.215 5.531,5.531 -5.523,5.52 -0.18,0.215 c -0.371,0.535 -0.371,1.246 0,1.777 l 0.18,0.219 0.219,0.18 c 0.531,0.367 1.242,0.367 1.773,0 l 0.219,-0.18 5.519,-5.524 5.532,5.528 0.215,0.183 c 0.531,0.368 1.242,0.368 1.777,0 l 0.215,-0.183 0.179,-0.215 c 0.372,-0.531 0.372,-1.242 0,-1.777 l -0.179,-0.215 -5.528,-5.528 5.536,-5.531 0.183,-0.215 c 0.367,-0.535 0.367,-1.246 0,-1.777 L 28.059,46.949 27.844,46.77 c -0.532,-0.368 -1.242,-0.368 -1.778,0 l -0.214,0.179 -5.54,5.531 -5.527,-5.531 -0.219,-0.179 c -0.531,-0.368 -1.242,-0.368 -1.777,0 z m 29.395,-32.524 0.004,9.984 c 0,1.188 0.882,2.168 2.027,2.325 l 0.316,0.019 9.973,-0.004 z" style="fill:currentColor;fill-opacity:1;fill-rule:nonzero;stroke:none" transform="scale(1.3333333)" /> </g>
</svg>

