<?xml version="1.0" encoding="UTF-8" standalone="no"?> <svg version="1.1" id="I5be3f243ec4e403fad78aa009e6f8ed320251106163938" width="100" height="100" viewBox="0 0 100 100" xmlns="http://www.w3.org/2000/svg" xmlns:svg="http://www.w3.org/2000/svg"> <defs id="If17c3ee5b05840b39c91cbba16eeb0a020251106163938" /> <g id="Ic9d7bad4d54c47efa9cd718a26ba7e2f20251106163938"> <path id="I85640eae11de4f04816f89361ae2960a20251106163938" d="m 17.188,7.031 c 3.496,0 6.457,2.301 7.453,5.469 h 27.703 l 0.683,0.02 c 7.016,0.355 12.598,6.156 12.598,13.261 0,7.336 -5.945,13.281 -13.281,13.281 H 22.656 c -4.746,0 -8.594,3.848 -8.594,8.594 0,4.746 3.848,8.594 8.594,8.594 h 27.703 c 0.996,-3.168 3.957,-5.469 7.453,-5.469 4.317,0 7.813,3.496 7.813,7.813 0,4.316 -3.496,7.812 -7.813,7.812 -3.496,0 -6.457,-2.301 -7.453,-5.468 H 22.656 c -7.336,0 -13.281,-5.946 -13.281,-13.282 0,-7.336 5.945,-13.281 13.281,-13.281 h 29.688 c 4.746,0 8.594,-3.848 8.594,-8.594 0,-4.449 -3.383,-8.109 -7.715,-8.547 L 52.344,17.188 H 24.641 c -0.996,3.167 -3.957,5.468 -7.453,5.468 -4.317,0 -7.813,-3.496 -7.813,-7.812 0,-4.317 3.496,-7.813 7.813,-7.813 z" style="fill:currentColor;fill-opacity:1;fill-rule:nonzero;stroke:none" transform="scale(1.3333333)" /> </g>
</svg>

