<?xml version="1.0" encoding="UTF-8" standalone="no"?> <svg version="1.1" id="I4a77d949329449238170e61c1c02c7f020251106132946" width="100" height="100" viewBox="0 0 100 100" xmlns="http://www.w3.org/2000/svg" xmlns:svg="http://www.w3.org/2000/svg"> <defs id="Ic4597b2d943b4682aad6eff45e4ea74320251106132946" /> <g id="I0222dfd677eb452297fea76b32efb1c420251106132946"> <path id="I49d470109d1b43c085dfef411d0cc6e420251106132946" d="M 12.5,14.062 C 12.5,9.746 15.996,6.25 20.312,6.25 H 56.25 c 4.316,0 7.812,3.496 7.812,7.812 v 44.532 c 0,1.293 -1.05,2.344 -2.343,2.344 H 17.188 c 0,1.726 1.398,3.124 3.124,3.124 h 41.407 c 1.293,0 2.343,1.051 2.343,2.344 0,1.293 -1.05,2.344 -2.343,2.344 H 20.312 c -4.316,0 -7.812,-3.496 -7.812,-7.812 z m 19.367,9.262 c -1.801,0.86 -3.742,2.43 -3.742,4.801 0,2.371 1.941,3.941 3.742,4.801 1.942,0.929 4.488,1.449 7.195,1.449 2.708,0 5.254,-0.52 7.196,-1.449 1.801,-0.86 3.742,-2.43 3.742,-4.801 0,-2.371 -1.941,-3.941 -3.742,-4.801 -1.942,-0.929 -4.488,-1.449 -7.196,-1.449 -2.707,0 -5.253,0.52 -7.195,1.449 z m 18.117,10.707 c -2.578,2.117 -6.511,3.469 -10.922,3.469 -4.41,0 -8.343,-1.352 -10.921,-3.469 -0.012,0.114 -0.016,0.231 -0.016,0.344 0,3.453 4.898,6.25 10.937,6.25 6.04,0 10.938,-2.797 10.938,-6.25 0,-0.113 -0.004,-0.23 -0.016,-0.344 z M 39.062,43.75 c -4.41,0 -8.343,-1.352 -10.921,-3.469 -0.012,0.114 -0.016,0.231 -0.016,0.344 0,3.453 4.898,6.25 10.937,6.25 6.04,0 10.938,-2.797 10.938,-6.25 0,-0.113 -0.004,-0.23 -0.016,-0.344 -2.578,2.117 -6.511,3.469 -10.922,3.469 z" style="fill:currentColor;fill-opacity:1;fill-rule:nonzero;stroke:none" transform="scale(1.3333333)" /> </g>
</svg>

