<?xml version="1.0" encoding="UTF-8" standalone="no"?> <svg version="1.1" id="Ieb3850a6a4384fef91578f8538b1b17520251110130510" width="100" height="100" viewBox="0 0 100 100" xmlns="http://www.w3.org/2000/svg" xmlns:svg="http://www.w3.org/2000/svg"> <defs id="Ia6000191663e49ffa7cc0485d83ff13a20251110130510" /> <g id="I778f2309b2f04d8e826f9b9cea6199d520251110130510"> <path id="I2b4578c4f56444c2aa256833fbe065ea20251110130510" d="m 39.23,14.273 c -0.292,-0.695 -0.972,-1.148 -1.73,-1.148 -0.754,0 -1.434,0.453 -1.727,1.148 l -15,35.625 c -0.402,0.954 0.047,2.051 1,2.454 0.954,0.402 2.055,-0.043 2.457,-1 L 30.062,37.5 h 14.879 l 5.832,13.852 c 0.403,0.957 1.5,1.402 2.454,1 0.957,-0.399 1.402,-1.5 1.003,-2.454 z M 43.359,33.75 H 31.641 L 37.5,19.832 Z" style="fill:currentColor;fill-opacity:1;fill-rule:nonzero;stroke:none" transform="scale(1.3333333)" /> <path id="I22d29a1de9e946408fe8d6a9cf4dab1220251110130510" d="M 9.375,60 C 8.34,60 7.5,60.84 7.5,61.875 c 0,1.035 0.84,1.875 1.875,1.875 h 56.25 C 66.66,63.75 67.5,62.91 67.5,61.875 67.5,60.84 66.66,60 65.625,60 Z" style="fill:currentColor;fill-opacity:1;fill-rule:nonzero;stroke:none" transform="scale(1.3333333)" /> </g>
</svg>

