<?xml version="1.0" encoding="UTF-8" standalone="no"?> <svg version="1.1" id="Idf7e05c349a14025af9a9d447df0f58d20251110135155" width="100" height="100" viewBox="0 0 100 100" xmlns="http://www.w3.org/2000/svg" xmlns:svg="http://www.w3.org/2000/svg"> <defs id="I4ec8a877c1814ce885b044d93cc1e99a20251110135155" /> <g id="Ie18665fd8dd14d459bc47dfb68e7f86420251110135155"> <path id="I987956e0c7e441b397e347decff9654d20251110135155" d="M 62.5,20.043 V 31.25 c 0,1.727 -1.398,3.125 -3.125,3.125 -1.727,0 -3.125,-1.398 -3.125,-3.125 V 20.043 l -0.914,0.918 c -1.223,1.219 -3.199,1.219 -4.422,0 -1.219,-1.223 -1.219,-3.199 0,-4.422 l 6.25,-6.25 c 0.301,-0.297 0.645,-0.523 1.016,-0.676 0.367,-0.152 0.773,-0.238 1.195,-0.238 0.422,0 0.828,0.086 1.195,0.238 0.371,0.153 0.715,0.379 1.016,0.676 l 6.25,6.25 c 1.219,1.223 1.219,3.199 0,4.422 -1.223,1.219 -3.199,1.219 -4.422,0 z M 6.25,18.75 c 0,-1.727 1.398,-3.125 3.125,-3.125 h 25 c 1.727,0 3.125,1.398 3.125,3.125 0,1.727 -1.398,3.125 -3.125,3.125 h -25 C 7.648,21.875 6.25,20.477 6.25,18.75 Z m 0,18.75 c 0,-1.727 1.398,-3.125 3.125,-3.125 H 43.75 c 1.727,0 3.125,1.398 3.125,3.125 0,1.727 -1.398,3.125 -3.125,3.125 H 9.375 C 7.648,40.625 6.25,39.227 6.25,37.5 Z m 3.125,15.625 c -1.727,0 -3.125,1.398 -3.125,3.125 0,1.727 1.398,3.125 3.125,3.125 h 25 c 1.727,0 3.125,-1.398 3.125,-3.125 0,-1.727 -1.398,-3.125 -3.125,-3.125 z M 62.5,43.75 v 11.207 l 0.914,-0.918 c 1.223,-1.219 3.199,-1.219 4.422,0 1.219,1.223 1.219,3.199 0,4.422 l -6.25,6.25 c -1.223,1.219 -3.199,1.219 -4.422,0 l -6.25,-6.25 c -1.219,-1.223 -1.219,-3.199 0,-4.422 1.223,-1.219 3.199,-1.219 4.422,0 l 0.914,0.918 V 43.75 c 0,-1.727 1.398,-3.125 3.125,-3.125 1.727,0 3.125,1.398 3.125,3.125 z" style="fill:currentColor;fill-opacity:1;fill-rule:nonzero;stroke:none" transform="scale(1.3333333)" /> </g>
</svg>

