<?xml version="1.0" encoding="UTF-8" standalone="no"?> <svg version="1.1" id="Ic541c13061e342cc92741b3fed3ad8a320251106105458" width="100" height="100" viewBox="0 0 100 100" xmlns="http://www.w3.org/2000/svg" xmlns:svg="http://www.w3.org/2000/svg"> <defs id="Ie97e54e3f3854a41be1c0a5e52ad0ea920251106105458" /> <g id="I30786e32cc054e23859097a54f91c2b020251106105458"> <path id="Id73f6834531c4ffa8a91279a81e4d3af20251106105458" d="M 66.293,26.117 H 48.883 V 8.707 c 0,-0.738 -0.602,-1.34 -1.34,-1.34 H 8.707 c -0.738,0 -1.34,0.602 -1.34,1.34 v 38.836 c 0,0.738 0.602,1.34 1.34,1.34 h 17.41 v 17.41 c 0,0.738 0.602,1.34 1.34,1.34 h 38.836 c 0.738,0 1.34,-0.602 1.34,-1.34 V 27.457 c 0,-0.738 -0.602,-1.34 -1.34,-1.34 z m -40.176,1.34 V 43.191 H 13.059 V 13.059 H 43.191 V 26.117 H 27.457 c -0.738,0 -1.34,0.602 -1.34,1.34 z m 17.074,4.352 V 43.191 H 31.809 V 31.809 Z m 18.75,30.132 H 31.809 V 48.883 h 15.734 c 0.738,0 1.34,-0.602 1.34,-1.34 V 31.809 h 13.058 z" style="fill:currentColor;fill-opacity:1;fill-rule:nonzero;stroke:none" transform="scale(1.3333333)" /> </g>
</svg>

