<?xml version="1.0" encoding="UTF-8" standalone="no"?> <svg version="1.1" id="Ia339ad9090cd43a4b27a02b68141d48920251106144520" width="100" height="100" viewBox="0 0 100 100" xmlns="http://www.w3.org/2000/svg" xmlns:svg="http://www.w3.org/2000/svg"> <defs id="Idad21597a0f34a1b860a414caf36472f20251106144520" /> <g id="Ie7123e9bcc4d4c84a5b7a38e162c209c20251106144520"> <path id="I4cb93e9e066e4c248392c2dec0f80db220251106144520" d="M 16.406,6.25 C 10.797,6.25 6.25,10.797 6.25,16.406 v 35.938 c 0,5.609 4.547,10.156 10.156,10.156 H 35.934 C 35.312,61.02 34.867,59.449 34.613,57.812 H 16.406 c -3.019,0 -5.468,-2.449 -5.468,-5.468 V 16.406 c 0,-3.019 2.449,-5.468 5.468,-5.468 h 35.938 c 3.019,0 5.468,2.449 5.468,5.468 v 18.207 c 1.637,0.254 3.208,0.699 4.688,1.321 V 16.406 C 62.5,10.797 57.953,6.25 52.344,6.25 Z m 34.469,19.629 c 0.914,-0.918 0.918,-2.402 0,-3.317 -0.914,-0.914 -2.398,-0.917 -3.313,-0.003 L 28.113,41.984 21.191,35.062 c -0.918,-0.917 -2.402,-0.917 -3.316,0 -0.914,0.915 -0.914,2.399 0,3.313 l 8.582,8.582 c 0.914,0.914 2.398,0.914 3.313,0 z M 54.688,37.5 c 9.492,0 17.187,7.695 17.187,17.188 0,9.492 -7.695,17.187 -17.187,17.187 C 45.195,71.875 37.5,64.18 37.5,54.688 37.5,45.195 45.195,37.5 54.688,37.5 Z m -9.376,15.625 c -0.863,0 -1.562,0.699 -1.562,1.563 0,0.863 0.699,1.562 1.562,1.562 h 14.977 l -5.144,5.145 c -0.61,0.609 -0.61,1.601 0,2.21 0.609,0.61 1.601,0.61 2.21,0 l 7.813,-7.812 c 0.609,-0.609 0.609,-1.602 0,-2.211 L 57.355,45.77 c -0.609,-0.61 -1.601,-0.61 -2.21,0 -0.61,0.609 -0.61,1.601 0,2.21 l 5.144,5.145 z" style="fill:currentColor;fill-opacity:1;fill-rule:nonzero;stroke:none" transform="scale(1.3333333)" /> </g>
</svg>

