<?xml version="1.0" encoding="UTF-8" standalone="no"?> <svg version="1.1" id="Ia8d9f3023d3f4ceab69d33d034c6f0b020251106151526" width="100" height="100" viewBox="0 0 100 100" xmlns="http://www.w3.org/2000/svg" xmlns:svg="http://www.w3.org/2000/svg"> <defs id="Id0ab307b5aba49cdab802b279322e6b120251106151526" /> <g id="I5ed94982a6774bfeb28d4e301286f6ca20251106151526"> <path id="Ie5389f7f45cf4a97a5366259816c60d320251106151526" d="m 37.5,17.188 c -7.543,0 -13.699,5.937 -14.047,13.39 -0.058,1.25 -1.09,2.234 -2.34,2.234 h -0.801 c -5.175,0 -9.374,4.196 -9.374,9.376 0,5.179 4.199,9.374 9.374,9.374 h 19.86 l -1.141,1.141 c -1.023,1.024 -1.843,2.227 -2.414,3.547 H 20.312 C 12.547,56.25 6.25,49.953 6.25,42.188 6.25,34.863 11.848,28.848 19,28.184 20.461,19.289 28.188,12.5 37.5,12.5 c 9.312,0 17.039,6.789 18.5,15.684 2.871,0.269 5.496,1.398 7.605,3.128 -1.902,0.211 -3.753,0.95 -5.32,2.215 -1.105,-0.461 -2.324,-0.715 -3.597,-0.715 h -0.801 c -1.25,0 -2.282,-0.984 -2.34,-2.234 C 51.199,23.125 45.043,17.188 37.5,17.188 Z M 59.688,36.469 41.242,54.914 c -1.074,1.074 -1.84,2.422 -2.207,3.898 l -1.43,5.719 c -0.621,2.489 1.629,4.742 4.118,4.121 l 5.722,-1.433 c 1.477,-0.367 2.825,-1.129 3.899,-2.207 L 69.789,46.57 c 2.789,-2.793 2.789,-7.312 0,-10.101 -2.789,-2.793 -7.312,-2.793 -10.101,0 z" style="fill:currentColor;fill-opacity:1;fill-rule:nonzero;stroke:none" transform="scale(1.3333333)" /> </g>
</svg>

