<?xml version="1.0" encoding="UTF-8" standalone="no"?> <svg version="1.1" id="Ic05618c6f9cf4b72be425372e018f65420251110130509" width="100" height="100" viewBox="0 0 100 100" xmlns="http://www.w3.org/2000/svg" xmlns:svg="http://www.w3.org/2000/svg"> <defs id="I8abbc5d07ebb46d6847117414b408d4520251110130509" /> <g id="I88bd939b9c084cec9dbb9efd267a067e20251110130509"> <path id="If1ff54df4d354b1da69253f76107b61c20251110130509" d="m 50,65.625 h 5.469 c 5.609,0 10.156,-4.547 10.156,-10.156 V 50 H 50 Z M 50,45.312 H 65.625 V 29.688 H 50 Z M 45.312,29.688 V 45.312 H 29.688 V 29.688 Z m 0,-4.688 H 29.688 V 14.062 H 19.531 c -3.019,0 -5.469,2.45 -5.469,5.469 v 35.938 c 0,3.019 2.45,5.469 5.469,5.469 H 29.688 V 50 H 45.312 V 65.625 H 19.531 C 13.922,65.625 9.375,61.078 9.375,55.469 V 19.531 c 0,-5.609 4.547,-10.156 10.156,-10.156 H 45.312 Z M 50,25 H 65.625 V 19.531 C 65.625,13.922 61.078,9.375 55.469,9.375 H 50 Z" style="fill:currentColor;fill-opacity:1;fill-rule:nonzero;stroke:none" transform="scale(1.3333333)" /> </g>
</svg>

