<?xml version="1.0" encoding="UTF-8" standalone="no"?> <svg version="1.1" id="If1a78f742ad949b4b574b4e120c5087920251110124421" width="100" height="100" viewBox="0 0 100 100" xmlns="http://www.w3.org/2000/svg" xmlns:svg="http://www.w3.org/2000/svg"> <defs id="I4020c536e828443db176206971e4b85220251110124421" /> <g id="Ibd9ef946d0e244e5b524a403fe4fc6e420251110124421"> <path id="Id11f5f5017ac40cbbda78d323ace6fe120251110124421" d="m 19.531,9.375 c -5.609,0 -10.156,4.547 -10.156,10.156 v 18.035 c 3.156,-2.019 6.91,-3.191 10.937,-3.191 5.461,0 10.422,2.156 14.071,5.664 -0.004,-0.066 -0.008,-0.129 -0.008,-0.195 v -18.75 c 0,-1.293 1.051,-2.344 2.344,-2.344 1.293,0 2.343,1.051 2.343,2.344 V 37.5 h 11.719 c 1.293,0 2.344,1.051 2.344,2.344 0,1.293 -1.051,2.344 -2.344,2.344 H 36.719 c -0.145,0 -0.285,-0.012 -0.426,-0.04 2.715,3.454 4.332,7.809 4.332,12.54 0,4.027 -1.172,7.781 -3.191,10.937 h 18.035 c 5.609,0 10.156,-4.547 10.156,-10.156 V 19.531 C 65.625,13.922 61.078,9.375 55.469,9.375 Z M 37.5,54.688 C 37.5,45.195 29.805,37.5 20.312,37.5 10.82,37.5 3.125,45.195 3.125,54.688 c 0,9.492 7.695,17.187 17.187,17.187 9.493,0 17.188,-7.695 17.188,-17.187 z M 21.879,56.25 v 7.824 c 0,0.864 -0.699,1.563 -1.563,1.563 -0.863,0 -1.562,-0.699 -1.562,-1.563 V 56.25 h -7.828 c -0.864,0 -1.563,-0.699 -1.563,-1.562 0,-0.864 0.699,-1.563 1.563,-1.563 h 7.824 v -7.816 c 0,-0.864 0.699,-1.563 1.562,-1.563 0.864,0 1.563,0.699 1.563,1.563 v 7.816 h 7.82 c 0.864,0 1.563,0.699 1.563,1.563 0,0.863 -0.699,1.562 -1.563,1.562 z" style="fill:currentColor;fill-opacity:1;fill-rule:nonzero;stroke:none" transform="scale(1.3333333)" /> </g>
</svg>

