<?xml version="1.0" encoding="UTF-8" standalone="no"?> <svg version="1.1" id="Ibe77b2d3c4e24460bd36feaba5fe400a20251110124421" width="100" height="100" viewBox="0 0 100 100" xmlns="http://www.w3.org/2000/svg" xmlns:svg="http://www.w3.org/2000/svg"> <defs id="Iadec6cfcf6574511afbca6f28beca49320251110124421" /> <g id="I4330579b3cae4300aaacaefabafb16e220251110124421"> <path id="Ie00b95c29d3947cdbf5416d8fdb3743020251110124421" d="m 58.609,29.617 c 1.215,0.403 2.84,1.098 4.477,2.278 3.352,2.41 6.559,6.73 6.559,14.085 0,8.024 -3.688,14.043 -9.547,17.977 -5.778,3.879 -13.575,5.688 -21.926,5.688 -9.082,0 -17.352,-1.641 -23.356,-6.653 C 7.18,56.625 5.258,45.742 5.359,36.289 5.371,35.414 5.418,34.172 5.562,32.691 5.852,29.734 6.543,25.75 8.164,21.738 c 1.621,-4.019 4.207,-8.136 8.316,-11.25 4.844,-3.664 11,-5.144 17,-5.133 0.883,0.004 1.77,0.09 2.645,0.204 1.539,0.195 3.629,0.593 5.746,1.402 2.109,0.809 4.352,2.07 6.074,4.051 1.762,2.023 2.895,4.703 2.895,8.125 0,5.441 1.68,7.789 2.945,8.832 1.348,1.105 3.219,1.117 4.824,1.648 z" style="fill:currentColor;fill-opacity:1;fill-rule:nonzero;stroke:none" transform="scale(1.3333333)" /> </g>
</svg>

