<?xml version="1.0" encoding="UTF-8" standalone="no"?> <svg version="1.1" id="Ic8bc08cbbbd8459ebe54eac8c11c7acd20251106152728" width="100" height="100" viewBox="0 0 100 100" xmlns="http://www.w3.org/2000/svg" xmlns:svg="http://www.w3.org/2000/svg"> <defs id="I479739b0575c4f74a65452ac545233e720251106152728" /> <g id="I55009df2817841e7be895ba0ca00ecc120251106152728"> <path id="Ie44229b3ecb34cbe87f2843150f05fa620251106152728" d="m 63.75,28.125 c 0,-6.098 -4.156,-11.223 -9.789,-12.699 -0.649,-0.168 -1.313,-0.289 -1.996,-0.36 C 51.523,15.023 51.078,15 50.625,15 h -33.75 c 1.711,-2.277 4.434,-3.75 7.5,-3.75 h 26.25 c 9.32,0 16.875,7.555 16.875,16.875 v 8.637 c -1.188,-0.688 -2.441,-1.27 -3.75,-1.731 z M 33.965,60 h 0.097 c -0.207,-1.219 -0.312,-2.473 -0.312,-3.75 0,-12.426 10.074,-22.5 22.5,-22.5 1.277,0 2.531,0.105 3.75,0.312 V 28.125 C 60,22.949 55.801,18.75 50.625,18.75 h -33.75 c -5.176,0 -9.375,4.199 -9.375,9.375 v 22.5 C 7.5,55.801 11.699,60 16.875,60 h 1.875 v 3.73 c 0,3.071 3.484,4.84 5.961,3.032 z M 56.25,41.25 c -8.285,0 -15,6.715 -15,15 0,8.285 6.715,15 15,15 1.758,0 3.438,-0.301 5,-0.852 0.977,-0.347 2.047,0.164 2.395,1.141 0.343,0.977 -0.168,2.047 -1.145,2.395 C 60.543,74.625 58.438,75 56.25,75 45.895,75 37.5,66.605 37.5,56.25 37.5,45.895 45.895,37.5 56.25,37.5 66.605,37.5 75,45.895 75,56.25 c 0,5.457 -3.379,9.141 -7.398,9.355 -1.989,0.106 -3.957,-0.683 -5.391,-2.355 -0.211,-0.242 -0.406,-0.5 -0.586,-0.777 -1.512,1.906 -3.723,3.152 -6.313,3.152 -4.886,0 -8.437,-4.441 -8.437,-9.375 0,-4.934 3.551,-9.375 8.437,-9.375 1.786,0 3.391,0.59 4.711,1.582 0.141,-0.895 0.915,-1.582 1.852,-1.582 1.035,0 1.875,0.84 1.875,1.875 v 7.5 c 0,2.324 0.617,3.754 1.305,4.559 0.675,0.785 1.519,1.093 2.343,1.05 1.606,-0.086 3.852,-1.691 3.852,-5.609 0,-8.285 -6.715,-15 -15,-15 z m -0.938,20.625 c 2.364,0 4.688,-2.277 4.688,-5.625 0,-3.348 -2.324,-5.625 -4.688,-5.625 -2.363,0 -4.687,2.277 -4.687,5.625 0,3.348 2.324,5.625 4.687,5.625 z" style="fill:currentColor;fill-opacity:1;fill-rule:nonzero;stroke:none" transform="scale(1.3333333)" /> </g>
</svg>

