<?xml version="1.0" encoding="UTF-8" standalone="no"?> <svg version="1.1" id="I7cb78f2bc5d54e788a24d425bc16673820251106143238" width="100" height="100" viewBox="0 0 100 100" xmlns="http://www.w3.org/2000/svg" xmlns:svg="http://www.w3.org/2000/svg"> <defs id="I452e2d8fd70843a3b0a5668ac2e787e220251106143238" /> <g id="I2c4606ad52d64af09864020bf6e6c91c20251106143238"> <path id="Iedb1e67eb8c94939b0fd11004d68c26020251106143238" d="m 63.75,26.25 v 3.938 C 63.145,30.066 62.516,30 61.875,30 h -11.25 c -5.176,0 -9.375,4.199 -9.375,9.375 v 22.5 c 0,0.641 0.066,1.27 0.188,1.875 H 20.625 c -5.176,0 -9.375,-4.199 -9.375,-9.375 V 26.25 Z m -9.375,-15 c 5.176,0 9.375,4.199 9.375,9.375 V 22.5 h -52.5 v -1.875 c 0,-5.176 4.199,-9.375 9.375,-9.375 z m -2.813,22.5 C 47.938,33.75 45,36.688 45,40.312 v 20.626 c 0,3.624 2.938,6.562 6.562,6.562 h 9.376 c 3.624,0 6.562,-2.938 6.562,-6.562 V 40.312 c 0,-3.624 -2.938,-6.562 -6.562,-6.562 z M 52.5,58.125 c 0,-1.035 0.84,-1.875 1.875,-1.875 h 3.75 C 59.16,56.25 60,57.09 60,58.125 60,59.16 59.16,60 58.125,60 h -3.75 C 53.34,60 52.5,59.16 52.5,58.125 Z" style="fill:currentColor;fill-opacity:1;fill-rule:nonzero;stroke:none" transform="scale(1.3333333)" /> </g>
</svg>

