<?xml version="1.0" encoding="UTF-8" standalone="no"?>
<!-- Created with Inkscape (http://www.inkscape.org/) -->

<svg
   version="1.1"
   id="I2aa2ffad72c94b9196096d6fc09ae85c20251031115229"
   width="100"
   height="100"
   viewBox="0 0 100 100"
   sodipodi:docname="output.ai"
   xmlns:inkscape="http://www.inkscape.org/namespaces/inkscape"
   xmlns:sodipodi="http://sodipodi.sourceforge.net/DTD/sodipodi-0.dtd"
   xmlns="http://www.w3.org/2000/svg"
   xmlns:svg="http://www.w3.org/2000/svg">
  <defs
     id="Ib7f1297280784f6781b23af64352052520251031115229" />
  <sodipodi:namedview
     id="I1b45365c2c404bc9aa2a9d29a04255ad20251031115229"
     pagecolor="#ffffff"
     bordercolor="#000000"
     borderopacity="0.25"
     inkscape:showpageshadow="2"
     inkscape:pageopacity="0.0"
     inkscape:pagecheckerboard="0"
     inkscape:deskcolor="#d1d1d1">
    <inkscape:page
       x="0"
       y="0"
       inkscape:label="1"
       id="I9a3cf79293794f7d924d56acaf06f53520251031115229"
       width="100"
       height="100"
       margin="0"
       bleed="0" />
  </sodipodi:namedview>
  <g
     id="Ia0b37d37683b400796a9bf821ca1eea820251031115229"
     inkscape:groupmode="layer"
     inkscape:label="1">
    <path
       id="I4fd789fafff7434894a55dc67c6aaf5c20251031115229"
       d="M 51.227,19.473 C 50.195,18.688 50,17.219 50.781,16.188 c 0.785,-1.028 2.258,-1.227 3.285,-0.442 6.743,5.141 10.778,13.113 10.778,21.754 0,14.344 -11.047,26.109 -25.094,27.254 l 2.344,2.34 0.226,0.261 c 0.68,0.918 0.606,2.219 -0.226,3.051 -0.918,0.918 -2.399,0.918 -3.317,0 l -6.25,-6.25 -0.226,-0.261 c -0.68,-0.918 -0.606,-2.219 0.226,-3.051 l 1.043,-1.043 c 1.274,0.226 2.59,0.34 3.93,0.34 0.844,0 1.676,-0.043 2.496,-0.133 L 39.98,60.023 C 51.324,58.789 60.156,49.176 60.156,37.5 c 0,-7.16 -3.344,-13.766 -8.929,-18.027 z M 32.906,7.906 c -0.914,-0.914 -0.914,-2.398 0,-3.312 0.918,-0.918 2.399,-0.918 3.317,0 l 6.25,6.25 c 0.914,0.914 0.914,2.398 0,3.312 l -1.043,1.043 c -1.278,-0.222 -2.59,-0.34 -3.93,-0.34 -0.844,0 -1.68,0.047 -2.5,0.137 l 0.02,-0.019 C 23.672,16.215 14.844,25.824 14.844,37.5 c 0,6.852 3.054,13.195 8.238,17.477 0.996,0.824 1.137,2.3 0.313,3.3 -0.825,0.996 -2.301,1.137 -3.297,0.313 -6.25,-5.16 -9.942,-12.824 -9.942,-21.09 0,-14.344 11.043,-26.109 25.094,-27.254 z m 14.063,26.563 c 0.918,-0.914 0.918,-2.399 0,-3.313 -0.914,-0.918 -2.399,-0.918 -3.313,0 l -9.281,9.278 -3.031,-3.028 c -0.914,-0.918 -2.399,-0.918 -3.313,0 -0.918,0.914 -0.918,2.399 0,3.313 l 4.688,4.687 c 0.914,0.918 2.398,0.918 3.312,0 z M 37.5,56.25 c 10.355,0 18.75,-8.395 18.75,-18.75 0,-10.355 -8.395,-18.75 -18.75,-18.75 -10.355,0 -18.75,8.395 -18.75,18.75 0,10.355 8.395,18.75 18.75,18.75 z m 0,-4.688 c -7.766,0 -14.062,-6.296 -14.062,-14.062 0,-7.766 6.296,-14.062 14.062,-14.062 7.766,0 14.062,6.296 14.062,14.062 0,7.766 -6.296,14.062 -14.062,14.062 z"
       style="fill:#212121;fill-opacity:1;fill-rule:nonzero;stroke:none"
       transform="scale(1.3333333)" />
  </g>
</svg>



