<?xml version="1.0" encoding="UTF-8" standalone="no"?> <svg version="1.1" id="I432f8c66ae0947cf98f11f87f697154720251110123030" width="100" height="100" viewBox="0 0 100 100" xmlns="http://www.w3.org/2000/svg" xmlns:svg="http://www.w3.org/2000/svg"> <defs id="I532b38fde4dc4988aff6b3604104f2b620251110123030" /> <g id="I6a2a9c4646244e2dafa9cf3afdd5ac3e20251110123030"> <path id="Iac82964be40747bcbe4f1b69af36219120251110123030" d="m 25.445,10.715 c -6.656,0 -12.05,5.394 -12.05,12.055 0,6.656 5.394,12.05 12.05,12.05 6.657,0 12.055,-5.394 12.055,-12.05 0,-6.661 -5.398,-12.055 -12.055,-12.055 z M 17.41,22.77 c 0,-4.442 3.598,-8.04 8.035,-8.04 4.438,0 8.035,3.598 8.035,8.04 0,4.437 -3.597,8.035 -8.035,8.035 -4.437,0 -8.035,-3.598 -8.035,-8.035 z m 36.16,-6.7 c -5.175,0 -9.375,4.2 -9.375,9.375 0,5.18 4.2,9.375 9.375,9.375 5.18,0 9.375,-4.195 9.375,-9.375 0,-5.175 -4.195,-9.375 -9.375,-9.375 z m -5.355,9.375 c 0,-2.957 2.398,-5.355 5.355,-5.355 2.961,0 5.36,2.398 5.36,5.355 0,2.961 -2.399,5.36 -5.36,5.36 -2.957,0 -5.355,-2.399 -5.355,-5.36 z M 11.383,40.18 c -3.328,0 -6.028,2.699 -6.028,6.027 v 1.371 l 0.004,0.051 c 0,0.039 0,0.09 0.004,0.152 0.008,0.121 0.02,0.289 0.039,0.496 0.047,0.411 0.129,0.973 0.297,1.637 0.332,1.332 0.996,3.098 2.321,4.863 2.714,3.621 7.898,6.828 17.425,6.828 4.102,0 7.399,-0.593 10.039,-1.558 -0.343,-1.309 -0.562,-2.668 -0.636,-4.067 -2.235,0.954 -5.274,1.61 -9.403,1.61 -8.55,0 -12.41,-2.82 -14.211,-5.223 C 10.297,51.117 9.828,49.871 9.598,48.941 9.48,48.477 9.426,48.098 9.398,47.848 9.387,47.723 9.379,47.633 9.375,47.578 v -1.371 c 0,-1.109 0.898,-2.012 2.008,-2.012 h 26.531 c 0.883,-1.398 1.938,-2.683 3.129,-3.82 C 40.555,40.246 40.039,40.18 39.508,40.18 Z M 37.5,54.91 c 0,9.617 7.793,17.41 17.41,17.41 9.617,0 17.41,-7.793 17.41,-17.41 0,-9.617 -7.793,-17.41 -17.41,-17.41 -9.617,0 -17.41,7.793 -17.41,17.41 z M 51.828,43.98 c 1.695,-0.511 3.492,-0.589 5.227,-0.238 1.738,0.356 3.359,1.137 4.718,2.27 1.02,0.851 1.872,1.886 2.512,3.043 v -2.18 c 0,-0.738 0.602,-1.34 1.34,-1.34 0.738,0 1.34,0.602 1.34,1.34 v 5.355 c 0,0.743 -0.602,1.34 -1.34,1.34 H 60.27 c -0.743,0 -1.34,-0.597 -1.34,-1.34 0,-0.738 0.597,-1.335 1.34,-1.335 h 1.945 c -0.5,-1.09 -1.235,-2.055 -2.156,-2.825 -1.02,-0.851 -2.239,-1.437 -3.539,-1.703 -1.301,-0.265 -2.649,-0.203 -3.922,0.18 -1.274,0.379 -2.43,1.074 -3.371,2.012 -0.52,0.523 -1.368,0.523 -1.891,0 -0.524,-0.524 -0.524,-1.371 0,-1.895 1.25,-1.25 2.793,-2.176 4.492,-2.684 z m 6.164,21.86 c -1.695,0.512 -3.492,0.594 -5.226,0.238 -1.739,-0.355 -3.356,-1.137 -4.719,-2.269 -1.02,-0.852 -1.871,-1.883 -2.512,-3.043 v 2.179 c 0,0.743 -0.597,1.34 -1.34,1.34 -0.738,0 -1.34,-0.597 -1.34,-1.34 V 57.59 c 0,-0.738 0.602,-1.34 1.34,-1.34 h 5.36 c 0.738,0 1.34,0.602 1.34,1.34 0,0.738 -0.602,1.34 -1.34,1.34 h -1.95 c 0.5,1.086 1.235,2.05 2.161,2.82 1.019,0.852 2.234,1.438 3.535,1.703 1.301,0.266 2.648,0.207 3.922,-0.176 1.273,-0.382 2.429,-1.074 3.371,-2.015 0.523,-0.524 1.371,-0.524 1.894,0 0.524,0.523 0.524,1.371 0,1.894 -1.254,1.254 -2.797,2.176 -4.496,2.684 z" style="fill:currentColor;fill-opacity:1;fill-rule:nonzero;stroke:none" transform="scale(1.3333333)" /> </g>
</svg>

