<?xml version="1.0" encoding="UTF-8" standalone="no"?> <svg version="1.1" id="If0890b65e30a4bf587bb86dc45f63cfe20251106154012" width="100" height="100" viewBox="0 0 100 100" xmlns="http://www.w3.org/2000/svg" xmlns:svg="http://www.w3.org/2000/svg"> <defs id="I91a89f7314b2428080d2b42d0959f8de20251106154012" /> <g id="I04066be18d194c55a1f152b2f1c0d25820251106154012"> <path id="I22db2720a20b47adb692b59d9960f07120251106154012" d="m 22.371,8.035 c -4.23,0 -7.933,2.832 -9.047,6.91 l -3.258,11.942 c 0.43,-0.067 0.872,-0.102 1.317,-0.102 h 12.058 c 4.805,0 8.704,3.899 8.704,8.707 V 56.25 h 26.777 c 7.066,0 12.195,-6.719 10.336,-13.535 L 61.684,14.945 C 60.57,10.867 56.867,8.035 52.637,8.035 Z m 9.75,56.25 c 0.016,-0.219 0.024,-0.445 0.024,-0.668 V 60.27 h 22.097 c 1.113,0 2.012,0.898 2.012,2.007 0,1.11 -0.899,2.008 -2.012,2.008 z M 17.41,45.535 c 2.223,0 4.02,-1.797 4.02,-4.015 0,-2.219 -1.797,-4.02 -4.02,-4.02 -2.219,0 -4.015,1.801 -4.015,4.02 0,2.218 1.796,4.015 4.015,4.015 z M 5.355,35.492 c 0,-3.328 2.7,-6.027 6.028,-6.027 h 12.055 c 3.332,0 6.027,2.699 6.027,6.027 v 28.125 c 0,3.328 -2.695,6.028 -6.027,6.028 H 11.383 c -3.328,0 -6.028,-2.7 -6.028,-6.028 z m 6.028,-2.012 c -1.11,0 -2.008,0.903 -2.008,2.012 v 28.125 c 0,1.11 0.898,2.008 2.008,2.008 h 12.055 c 1.113,0 2.011,-0.898 2.011,-2.008 V 35.492 c 0,-1.109 -0.898,-2.012 -2.011,-2.012 z" style="fill:currentColor;fill-opacity:1;fill-rule:nonzero;stroke:none" transform="scale(1.3333333)" /> </g>
</svg>

