<?xml version="1.0" encoding="UTF-8" standalone="no"?> <svg version="1.1" id="Id33649738fce458b8e4b380df2959b9820251106125937" width="100" height="100" viewBox="0 0 100 100" xmlns="http://www.w3.org/2000/svg" xmlns:svg="http://www.w3.org/2000/svg"> <defs id="Ia19d22fea09b491593b9dc1a622a354920251106125937" /> <g id="I667071b48d6d4b3ebfdf59d9f372af5e20251106125937"> <path id="I2e237e90bf8444259e5c3ce0b3b72e2c20251106125937" d="M 38.375,6.938 C 37.461,6.02 35.977,6.02 35.062,6.938 L 19.438,22.562 c -0.918,0.915 -0.918,2.399 0,3.313 0.914,0.918 2.398,0.918 3.312,0 L 34.375,14.254 v 42.777 c 0,1.293 1.051,2.344 2.344,2.344 1.293,0 2.343,-1.051 2.343,-2.344 V 14.254 l 11.626,11.621 c 0.914,0.918 2.398,0.918 3.312,0 0.918,-0.914 0.918,-2.398 0,-3.313 z M 16.406,64.062 c -1.293,0 -2.344,1.051 -2.344,2.344 0,1.293 1.051,2.344 2.344,2.344 h 40.625 c 1.293,0 2.344,-1.051 2.344,-2.344 0,-1.293 -1.051,-2.344 -2.344,-2.344 z" style="fill:currentColor;fill-opacity:1;fill-rule:nonzero;stroke:none" transform="scale(1.3333333)" /> </g>
</svg>

