<?xml version="1.0" encoding="UTF-8" standalone="no"?> <svg version="1.1" id="I75b56992f7c64f7b86033adaa958234f20251110124419" width="100" height="100" viewBox="0 0 100 100" xmlns="http://www.w3.org/2000/svg" xmlns:svg="http://www.w3.org/2000/svg"> <defs id="I903520ce03b84a958f3db3ff6a87819820251110124419" /> <g id="I2a9f4a8c143949a3b74e35afc1a287f020251110124419"> <path id="I182bc73134634f558fac498492f2f13c20251110124419" d="m 19.531,10.938 c -3.019,0 -5.469,2.449 -5.469,5.468 v 7.813 c 0,3.019 2.45,5.469 5.469,5.469 h 7.813 c 3.019,0 5.468,-2.45 5.468,-5.469 v -7.813 c 0,-3.019 -2.449,-5.468 -5.468,-5.468 z m 22.657,5.468 c 0,-3.019 2.449,-5.468 5.468,-5.468 h 7.813 c 3.019,0 5.469,2.449 5.469,5.468 v 7.813 c 0,3.019 -2.45,5.469 -5.469,5.469 h -7.813 c -3.019,0 -5.468,-2.45 -5.468,-5.469 z m 5.468,-0.781 c -0.429,0 -0.781,0.352 -0.781,0.781 v 7.813 c 0,0.429 0.352,0.781 0.781,0.781 h 7.813 c 0.429,0 0.781,-0.352 0.781,-0.781 v -7.813 c 0,-0.429 -0.352,-0.781 -0.781,-0.781 z M 21.875,54.688 c 2.59,0 4.687,-2.098 4.687,-4.688 0,-2.59 -2.097,-4.688 -4.687,-4.688 -2.59,0 -4.687,2.098 -4.687,4.688 0,2.59 2.097,4.688 4.687,4.688 z M 20.312,40.625 h 19.719 c 1.914,-1.996 4.235,-3.605 6.828,-4.687 H 20.312 C 12.547,35.938 6.25,42.234 6.25,50 c 0,7.766 6.297,14.062 14.062,14.062 H 36.664 C 35.898,62.598 35.309,61.023 34.918,59.375 H 20.312 c -5.175,0 -9.374,-4.195 -9.374,-9.375 0,-5.18 4.199,-9.375 9.374,-9.375 z M 32.812,50 c 0,1.402 0.618,2.664 1.594,3.523 0.168,-2.918 0.946,-5.668 2.215,-8.128 -2.168,0.41 -3.809,2.316 -3.809,4.605 z m 39.063,4.688 c 0,9.492 -7.695,17.187 -17.187,17.187 C 45.195,71.875 37.5,64.18 37.5,54.688 37.5,45.195 45.195,37.5 54.688,37.5 c 9.492,0 17.187,7.695 17.187,17.188 z m -6.707,-7.356 c -0.609,-0.609 -1.602,-0.609 -2.211,0 L 51.562,58.727 46.418,53.582 c -0.609,-0.609 -1.602,-0.609 -2.211,0 -0.609,0.609 -0.609,1.602 0,2.211 l 6.25,6.25 c 0.609,0.609 1.602,0.609 2.211,0 l 12.5,-12.5 c 0.609,-0.609 0.609,-1.602 0,-2.211 z" style="fill:currentColor;fill-opacity:1;fill-rule:nonzero;stroke:none" transform="scale(1.3333333)" /> </g>
</svg>

