<?xml version="1.0" encoding="UTF-8" standalone="no"?> <svg version="1.1" id="I5944ec02209a45f9b00faa2d4a6ae48c20251106155157" width="100" height="100" viewBox="0 0 100 100" xmlns="http://www.w3.org/2000/svg" xmlns:svg="http://www.w3.org/2000/svg"> <defs id="I98de2d1ccad143ec8ffa9a10c386984720251106155157" /> <g id="Ied2386235722454ab5e1fb99c8ba145520251106155157"> <path id="I56f88b690df4419ca8bbb5cfb4d57d7020251106155157" d="m 37.5,5.355 v 21.43 c 0,2.961 2.398,5.36 5.355,5.36 h 21.426 c 0.004,0.066 0.004,0.136 0.004,0.207 v 30.863 c 0,3.551 -2.879,6.43 -6.43,6.43 H 37.043 C 37.34,68.805 37.5,67.902 37.5,66.965 V 53.57 c 0,-3.98 -2.895,-7.285 -6.695,-7.922 v -0.113 c 0,-5.918 -4.797,-10.715 -10.715,-10.715 -4.035,0 -7.547,2.231 -9.375,5.524 V 11.785 c 0,-3.551 2.879,-6.43 6.43,-6.43 z m 4.02,1.274 v 20.156 c 0,0.738 0.597,1.34 1.335,1.34 h 20.098 c -0.246,-0.348 -0.519,-0.676 -0.824,-0.98 L 42.223,7.238 C 42.004,7.02 41.766,6.816 41.52,6.629 Z M 12.055,48.215 h -1.34 c -2.961,0 -5.36,2.398 -5.36,5.355 v 13.395 c 0,2.957 2.399,5.355 5.36,5.355 h 18.75 c 2.957,0 5.355,-2.398 5.355,-5.355 V 53.57 c 0,-2.957 -2.398,-5.355 -5.355,-5.355 h -1.34 v -2.68 c 0,-4.437 -3.598,-8.035 -8.035,-8.035 -4.438,0 -8.035,3.598 -8.035,8.035 z m 4.015,-2.68 c 0,-2.219 1.801,-4.015 4.02,-4.015 2.219,0 4.015,1.796 4.015,4.015 v 2.68 H 16.07 Z m 8.035,14.735 c 0,2.218 -1.796,4.015 -4.015,4.015 -2.219,0 -4.02,-1.797 -4.02,-4.015 0,-2.219 1.801,-4.02 4.02,-4.02 2.219,0 4.015,1.801 4.015,4.02 z" style="fill:currentColor;fill-opacity:1;fill-rule:nonzero;stroke:none" transform="scale(1.3333333)" /> </g>
</svg>

