<?xml version="1.0" encoding="UTF-8" standalone="no"?> <svg version="1.1" id="Ic5bf76d819304d729948fcb31756363e20251106142135" width="100" height="100" viewBox="0 0 100 100" xmlns="http://www.w3.org/2000/svg" xmlns:svg="http://www.w3.org/2000/svg"> <defs id="I3f4438f082bc41fc9f4f1c19c1faad3020251106142135" /> <g id="I7fd8a27d01b04976b97c33fa7ea8be8120251106142135"> <path id="I1dad924ac72f4959a3d1fe4074cfcc2220251106142135" d="m 28.125,17.188 c 0,5.511 -4.074,10.07 -9.375,10.828 v 18.859 c 0,5.18 4.199,9.375 9.375,9.375 h 8.402 L 33.5,53.219 c -0.918,-0.914 -0.918,-2.399 0,-3.313 0.914,-0.918 2.398,-0.918 3.312,0 l 7.032,7.032 c 0.918,0.914 0.918,2.398 0,3.312 l -7.032,7.031 c -0.914,0.918 -2.398,0.918 -3.312,0 -0.918,-0.914 -0.918,-2.398 0,-3.312 l 3.027,-3.031 h -8.402 c -7.766,0 -14.063,-6.297 -14.063,-14.063 V 27.672 C 9.547,26.328 6.25,22.141 6.25,17.188 6.25,11.148 11.148,6.25 17.188,6.25 c 6.039,0 10.937,4.898 10.937,10.938 z M 68.75,57.812 c 0,6.04 -4.898,10.938 -10.938,10.938 -6.039,0 -10.937,-4.898 -10.937,-10.938 0,-5.511 4.074,-10.07 9.375,-10.828 V 28.125 c 0,-5.176 -4.195,-9.375 -9.375,-9.375 h -6.059 l 3.028,3.031 c 0.918,0.914 0.918,2.399 0,3.313 -0.914,0.918 -2.399,0.918 -3.313,0 L 33.5,18.062 c -0.918,-0.914 -0.918,-2.398 0,-3.312 l 7.031,-7.031 c 0.914,-0.918 2.399,-0.918 3.313,0 0.918,0.914 0.918,2.398 0,3.312 l -3.028,3.031 h 6.059 c 7.766,0 14.063,6.297 14.063,14.063 v 19.203 c 4.515,1.344 7.812,5.531 7.812,10.484 z" style="fill:currentColor;fill-opacity:1;fill-rule:nonzero;stroke:none" transform="scale(1.3333333)" /> </g>
</svg>

