<?xml version="1.0" encoding="UTF-8" standalone="no"?> <svg version="1.1" id="I595890c2047e4bcb9e8afd22b31e185020251106103256" width="100" height="100" viewBox="0 0 100 100" xmlns="http://www.w3.org/2000/svg" xmlns:svg="http://www.w3.org/2000/svg"> <defs id="I1091b131a06741d89889ca9d829e296620251106103256" /> <g id="If2ba8109dab349219813063c8c9b4f3120251106103256"> <path id="Iad0b78d5e507466eb522f5fd4a668b4320251106103256" d="M 58.594,18.156 C 57.422,15.594 55.758,13.293 53.629,11.324 49.312,7.316 43.578,5.105 37.5,5.105 c -6.078,0 -11.812,2.211 -16.129,6.211 -2.129,1.977 -3.793,4.27 -4.965,6.84 -1.222,2.68 -1.84,5.516 -1.84,8.446 v 2.261 c 0,0.516 0.418,0.938 0.938,0.938 h 4.519 c 0.52,0 0.938,-0.422 0.938,-0.938 v -2.261 c 0,-8.329 7.414,-15.102 16.539,-15.102 9.125,0 16.539,6.773 16.539,15.102 0,3.414 -1.211,6.628 -3.516,9.308 -2.277,2.652 -5.488,4.555 -9.046,5.356 -2.036,0.461 -3.868,1.609 -5.165,3.25 -1.292,1.632 -2,3.656 -2,5.742 v 2.629 c 0,0.515 0.418,0.937 0.938,0.937 h 4.52 c 0.519,0 0.937,-0.422 0.937,-0.937 v -2.629 c 0,-1.317 0.91,-2.469 2.176,-2.754 4.887,-1.106 9.324,-3.742 12.496,-7.426 1.598,-1.867 2.848,-3.941 3.707,-6.195 0.898,-2.336 1.348,-4.785 1.348,-7.281 0,-2.93 -0.618,-5.778 -1.84,-8.446 z M 37.5,60.52 c -2.586,0 -4.688,2.101 -4.688,4.687 0,2.586 2.102,4.688 4.688,4.688 2.586,0 4.688,-2.102 4.688,-4.688 0,-2.586 -2.102,-4.687 -4.688,-4.687 z" style="fill:currentColor;fill-opacity:1;fill-rule:nonzero;stroke:none" transform="scale(1.3333333)" /> </g>
</svg>

