<?xml version="1.0" encoding="UTF-8" standalone="no"?> <svg version="1.1" id="Ia65d47df62004b128551bd49fa36f5af20251110124419" width="100" height="100" viewBox="0 0 100 100" xmlns="http://www.w3.org/2000/svg" xmlns:svg="http://www.w3.org/2000/svg"> <defs id="Iee43035aabe34fb68c4b224196c31d3420251110124419" /> <g id="Ia93a36ce34544d8987cd8a341596e88420251110124419"> <path id="Id2b947b60d3a471fad1dae8166567c4320251110124419" d="m 63.266,40.613 c 2.214,0 3.195,2.789 1.464,4.176 L 49.988,56.594 v 5.136 c 0,3.883 -3.148,7.032 -7.031,7.032 H 32.031 C 28.148,68.762 25,65.613 25,61.73 V 56.594 L 10.254,44.789 C 8.523,43.402 9.504,40.613 11.719,40.613 Z M 56.59,45.301 H 18.395 l 10.414,8.336 c 0.558,0.445 0.879,1.117 0.879,1.832 v 6.261 c 0,1.297 1.05,2.344 2.343,2.344 h 10.926 c 1.293,0 2.344,-1.047 2.344,-2.344 v -6.261 c 0,-0.715 0.32,-1.387 0.879,-1.832 z M 27.344,28.125 h 20.297 c 2.871,0 5.222,2.207 5.449,5.02 l 0.019,0.449 V 37.5 h -4.687 v -3.906 c 0,-0.371 -0.258,-0.68 -0.602,-0.762 l -0.179,-0.02 H 27.344 c -0.367,0 -0.68,0.254 -0.758,0.602 l -0.024,0.18 V 37.5 h -4.687 v -3.906 c 0,-2.871 2.211,-5.223 5.023,-5.453 l 0.446,-0.016 H 47.641 Z M 37.5,6.25 c 5.18,0 9.375,4.199 9.375,9.375 0,5.176 -4.195,9.375 -9.375,9.375 -5.176,0 -9.375,-4.199 -9.375,-9.375 0,-5.176 4.199,-9.375 9.375,-9.375 z m 0,4.688 c -2.586,0 -4.688,2.097 -4.688,4.687 0,2.59 2.102,4.687 4.688,4.687 2.59,0 4.688,-2.097 4.688,-4.687 0,-2.59 -2.098,-4.687 -4.688,-4.687 z" style="fill:currentColor;fill-opacity:1;fill-rule:nonzero;stroke:none" transform="scale(1.3333333)" /> </g>
</svg>

