<?xml version="1.0" encoding="UTF-8" standalone="no"?> <svg version="1.1" id="I1a497b64008f4ae98d0543d97cf96c0920251110130509" width="100" height="100" viewBox="0 0 100 100" xmlns="http://www.w3.org/2000/svg" xmlns:svg="http://www.w3.org/2000/svg"> <defs id="I7431b3321469477190e8d259180e559220251110130509" /> <g id="Iaeaf9bfc203b43b1a34b5b64a99a7d0620251110130509"> <path id="I08931154630049a1b71380c397b191a420251110130509" d="m 66.949,16.324 c 0.735,-0.73 0.735,-1.918 0,-2.648 -0.73,-0.735 -1.918,-0.735 -2.648,0 l -6.176,6.172 -2.426,-2.422 c -0.73,-0.735 -1.918,-0.735 -2.648,0 -0.735,0.73 -0.735,1.918 0,2.648 l 3.75,3.75 c 0.73,0.735 1.918,0.735 2.648,0 z M 9.375,18.75 C 8.34,18.75 7.5,19.59 7.5,20.625 7.5,21.66 8.34,22.5 9.375,22.5 h 33.75 C 44.16,22.5 45,21.66 45,20.625 45,19.59 44.16,18.75 43.125,18.75 Z m 0,18.75 C 8.34,37.5 7.5,38.34 7.5,39.375 c 0,1.035 0.84,1.875 1.875,1.875 h 33.75 C 44.16,41.25 45,40.41 45,39.375 45,38.34 44.16,37.5 43.125,37.5 Z M 7.5,58.125 C 7.5,57.09 8.34,56.25 9.375,56.25 h 33.75 C 44.16,56.25 45,57.09 45,58.125 45,59.16 44.16,60 43.125,60 H 9.375 C 8.34,60 7.5,59.16 7.5,58.125 Z M 66.949,36.949 c 0.735,-0.73 0.735,-1.918 0,-2.648 -0.73,-0.735 -1.918,-0.735 -2.648,0 l -6.176,6.172 -2.426,-2.422 c -0.73,-0.735 -1.918,-0.735 -2.648,0 -0.735,0.73 -0.735,1.918 0,2.648 l 3.75,3.75 c 0.73,0.735 1.918,0.735 2.648,0 z m 0,16.102 c 0.735,0.73 0.735,1.918 0,2.648 l -7.5,7.5 c -0.73,0.735 -1.918,0.735 -2.648,0 l -3.75,-3.75 c -0.735,-0.73 -0.735,-1.918 0,-2.648 0.73,-0.735 1.918,-0.735 2.648,0 l 2.426,2.422 6.176,-6.172 c 0.73,-0.735 1.918,-0.735 2.648,0 z" style="fill:currentColor;fill-opacity:1;fill-rule:nonzero;stroke:none" transform="scale(1.3333333)" /> </g>
</svg>

