<?xml version="1.0" encoding="UTF-8" standalone="no"?> <svg version="1.1" id="I402970a3a5a345bd8047461a85589b6a20251106125937" width="100" height="100" viewBox="0 0 100 100" xmlns="http://www.w3.org/2000/svg" xmlns:svg="http://www.w3.org/2000/svg"> <defs id="I9f52bbdac0ef43ec9e1764ce7004bdf720251106125937" /> <g id="Ib1a3717d4ca04a67879bbada7d5fdd0520251106125937"> <path id="I578b38c4d07a482da5a7273a47ae003f20251106125937" d="m 50.277,20.039 c -0.226,-0.293 -0.472,-0.57 -0.734,-0.832 -0.977,-0.98 -2.168,-1.719 -3.477,-2.156 l -4.304,-1.395 c -0.332,-0.117 -0.621,-0.336 -0.824,-0.621 -0.204,-0.289 -0.313,-0.633 -0.313,-0.984 0,-0.352 0.109,-0.696 0.313,-0.981 0.203,-0.289 0.492,-0.504 0.824,-0.621 l 4.304,-1.398 c 1.293,-0.446 2.465,-1.184 3.426,-2.16 0.934,-0.946 1.641,-2.09 2.07,-3.348 L 51.598,5.438 52.996,1.133 C 53.113,0.801 53.332,0.516 53.617,0.312 53.906,0.109 54.25,0 54.602,0 c 0.351,0 0.695,0.109 0.98,0.312 0.289,0.204 0.508,0.489 0.625,0.821 l 1.398,4.305 c 0.434,1.308 1.168,2.496 2.145,3.468 0.977,0.977 2.164,1.711 3.473,2.145 l 4.304,1.398 0.086,0.02 c 0.332,0.117 0.621,0.336 0.825,0.621 0.203,0.289 0.312,0.633 0.312,0.984 0,0.352 -0.109,0.696 -0.312,0.981 -0.204,0.289 -0.493,0.504 -0.825,0.621 l -4.304,1.398 c -1.309,0.434 -2.497,1.168 -3.473,2.145 -0.977,0.972 -1.711,2.16 -2.145,3.469 l -1.398,4.304 c -0.016,0.035 -0.027,0.07 -0.043,0.106 -0.125,0.285 -0.324,0.535 -0.578,0.714 -0.289,0.204 -0.633,0.313 -0.984,0.313 -0.352,0 -0.696,-0.109 -0.985,-0.313 -0.285,-0.203 -0.504,-0.488 -0.621,-0.82 L 51.684,22.688 C 51.367,21.73 50.891,20.832 50.277,20.039 Z M 74.32,31.918 71.93,31.141 C 71.203,30.898 70.543,30.488 70,29.949 69.457,29.406 69.051,28.746 68.809,28.02 L 68.031,25.629 C 67.965,25.445 67.844,25.285 67.684,25.172 67.527,25.062 67.336,25 67.141,25 c -0.196,0 -0.387,0.062 -0.547,0.172 -0.16,0.113 -0.282,0.273 -0.344,0.457 l -0.777,2.391 c -0.239,0.722 -0.641,1.378 -1.172,1.921 -0.535,0.539 -1.184,0.95 -1.903,1.2 l -2.394,0.777 c -0.184,0.062 -0.344,0.184 -0.457,0.344 -0.109,0.16 -0.172,0.347 -0.172,0.543 0,0.195 0.063,0.386 0.172,0.547 0.113,0.16 0.273,0.281 0.457,0.343 l 2.394,0.778 c 0.727,0.242 1.391,0.652 1.93,1.195 0.543,0.547 0.949,1.207 1.192,1.937 l 0.777,2.391 c 0.066,0.184 0.183,0.344 0.344,0.457 0.16,0.109 0.351,0.172 0.547,0.172 0.195,0 0.386,-0.063 0.546,-0.172 0.161,-0.113 0.278,-0.273 0.344,-0.457 l 0.777,-2.391 c 0.243,-0.726 0.649,-1.386 1.192,-1.929 0.543,-0.539 1.203,-0.949 1.93,-1.192 l 2.394,-0.777 c 0.184,-0.062 0.344,-0.184 0.457,-0.344 C 74.938,33.203 75,33.016 75,32.82 75,32.625 74.938,32.434 74.828,32.273 74.715,32.113 74.555,31.992 74.371,31.93 Z M 37.5,6.254 c 2.992,0 5.883,0.418 8.621,1.203 -0.359,0.223 -0.75,0.406 -1.152,0.539 l -4.188,1.375 c -0.898,0.32 -1.664,0.879 -2.226,1.59 -0.352,-0.016 -0.703,-0.02 -1.055,-0.02 -14.672,0 -26.562,11.891 -26.562,26.563 0,14.668 11.89,26.562 26.562,26.562 13.164,0 24.09,-9.578 26.195,-22.144 0.688,1.148 1.692,1.984 3.367,1.984 0.387,0 0.739,-0.047 1.059,-0.129 C 65.215,58.031 52.609,68.754 37.5,68.754 20.242,68.754 6.25,54.762 6.25,37.504 6.25,20.242 20.242,6.254 37.5,6.254 Z m -14.16,32.125 0.265,0.226 c 0.918,0.68 2.219,0.606 3.051,-0.226 l 8.496,-8.5 0.004,20.906 0.02,0.317 c 0.156,1.144 1.136,2.027 2.324,2.027 l 0.316,-0.02 c 1.145,-0.156 2.028,-1.136 2.028,-2.324 l -0.004,-20.91 8.504,8.504 0.261,0.226 c 0.918,0.684 2.223,0.606 3.055,-0.226 0.914,-0.914 0.914,-2.399 0,-3.313 l -12.5,-12.504 -0.265,-0.23 c -0.915,-0.68 -2.219,-0.605 -3.051,0.227 L 23.34,35.062 23.113,35.324 c -0.679,0.918 -0.605,2.223 0.227,3.055 z" style="fill:currentColor;fill-opacity:1;fill-rule:nonzero;stroke:none" transform="scale(1.3333333)" /> </g>
</svg>

