<?xml version="1.0" encoding="UTF-8" standalone="no"?> <svg version="1.1" id="Iee204247ca7d4169a9df82388992226520251110123030" width="100" height="100" viewBox="0 0 100 100" xmlns="http://www.w3.org/2000/svg" xmlns:svg="http://www.w3.org/2000/svg"> <defs id="I21b10e8ad9b54346ad65c130ee91c9a420251110123030" /> <g id="I9cf75aca8fcf479db428185c3d3d655020251110123030"> <path id="Ic965dcb63b9d444f9cee7da781e619f320251110123030" d="m 51.668,8.438 c 4.113,-4.114 10.781,-4.114 14.894,0 4.114,4.113 4.114,10.781 0,14.894 L 54.898,34.996 C 54.023,34.883 53.137,34.82 52.23,34.82 c -11.093,0 -20.085,8.996 -20.085,20.09 0,0.906 0.058,1.793 0.171,2.664 l -5.359,5.367 c -1.184,1.18 -2.645,2.036 -4.254,2.485 l -14.797,4.14 c -0.699,0.2 -1.449,0 -1.961,-0.511 C 5.434,68.539 5.234,67.789 5.43,67.094 L 9.574,52.293 c 0.449,-1.605 1.305,-3.07 2.485,-4.25 z M 34.82,54.91 c 0,9.617 7.797,17.41 17.41,17.41 9.618,0 17.415,-7.793 17.415,-17.41 0,-9.617 -7.797,-17.41 -17.415,-17.41 -9.613,0 -17.41,7.793 -17.41,17.41 z M 49.148,43.98 c 1.7,-0.511 3.493,-0.589 5.231,-0.238 1.734,0.356 3.355,1.137 4.715,2.27 1.023,0.851 1.875,1.886 2.511,3.043 v -2.18 c 0,-0.738 0.602,-1.34 1.34,-1.34 0.743,0 1.34,0.602 1.34,1.34 v 5.355 c 0,0.743 -0.597,1.34 -1.34,1.34 H 57.59 c -0.738,0 -1.34,-0.597 -1.34,-1.34 0,-0.738 0.602,-1.335 1.34,-1.335 h 1.945 c -0.496,-1.09 -1.234,-2.055 -2.156,-2.825 -1.02,-0.851 -2.234,-1.437 -3.539,-1.703 -1.301,-0.265 -2.649,-0.203 -3.922,0.18 -1.27,0.379 -2.43,1.074 -3.367,2.012 -0.524,0.523 -1.371,0.523 -1.895,0 -0.523,-0.524 -0.523,-1.371 0,-1.895 1.254,-1.25 2.797,-2.176 4.492,-2.684 z m 6.168,21.86 c -1.699,0.512 -3.496,0.594 -5.23,0.238 -1.734,-0.355 -3.356,-1.137 -4.715,-2.269 -1.023,-0.852 -1.875,-1.883 -2.516,-3.043 v 2.179 c 0,0.743 -0.597,1.34 -1.335,1.34 -0.743,0 -1.34,-0.597 -1.34,-1.34 V 57.59 c 0,-0.738 0.597,-1.34 1.34,-1.34 h 5.355 c 0.738,0 1.34,0.602 1.34,1.34 0,0.738 -0.602,1.34 -1.34,1.34 h -1.949 c 0.5,1.086 1.238,2.05 2.16,2.82 1.019,0.852 2.234,1.438 3.535,1.703 1.305,0.266 2.652,0.207 3.922,-0.176 1.273,-0.382 2.434,-1.074 3.371,-2.015 0.524,-0.524 1.371,-0.524 1.895,0 0.523,0.523 0.523,1.371 0,1.894 -1.254,1.254 -2.797,2.176 -4.493,2.684 z" style="fill:currentColor;fill-opacity:1;fill-rule:nonzero;stroke:none" transform="scale(1.3333333)" /> </g>
</svg>

