<?xml version="1.0" encoding="UTF-8" standalone="no"?> <svg version="1.1" id="I303e7f60014140f4aaedb6bf6502f9a820251110124422" width="100" height="100" viewBox="0 0 100 100" xmlns="http://www.w3.org/2000/svg" xmlns:svg="http://www.w3.org/2000/svg"> <defs id="I80e8adae67c442c68b8c607a9b8af37120251110124422" /> <g id="Ifb124c80d76746cbb2833ab44789b5ee20251110124422"> <path id="I75f2124857374ec08206bdf6d08bfc8e20251110124422" d="m 5.367,19.418 c 0,-4.805 3.899,-8.703 8.707,-8.703 h 46.867 c 4.805,0 8.704,3.898 8.704,8.703 v 36.164 c 0,4.805 -3.899,8.703 -8.704,8.703 H 38.773 L 34.754,60.27 h 26.187 c 2.586,0 4.688,-2.102 4.688,-4.688 V 19.418 c 0,-2.586 -2.102,-4.688 -4.688,-4.688 H 14.074 c -2.59,0 -4.687,2.102 -4.687,4.688 v 14.68 C 7.91,34.867 6.559,35.84 5.367,36.98 Z m 25.77,19.422 c -1.239,-1.582 -2.742,-2.945 -4.442,-4.02 h 27.547 c 1.11,0 2.008,0.903 2.008,2.012 0,1.109 -0.898,2.008 -2.008,2.008 z m 3.683,10.715 h 14.063 c 1.109,0 2.012,-0.903 2.012,-2.012 0,-1.109 -0.903,-2.008 -2.012,-2.008 H 34.355 c 0.305,1.289 0.465,2.637 0.465,4.02 z M 18.75,26.117 c 0,-1.109 0.898,-2.012 2.008,-2.012 h 20.09 c 1.109,0 2.007,0.903 2.007,2.012 0,1.11 -0.898,2.008 -2.007,2.008 h -20.09 c -1.11,0 -2.008,-0.898 -2.008,-2.008 z m 10.402,32.336 c 1.875,-2.473 2.993,-5.555 2.993,-8.898 0,-8.137 -6.598,-14.735 -14.735,-14.735 -8.137,0 -14.73,6.598 -14.73,14.735 0,8.136 6.593,14.73 14.73,14.73 3.344,0 6.43,-1.113 8.902,-2.992 l 7.758,7.762 c 0.785,0.785 2.059,0.785 2.84,0 0.785,-0.785 0.785,-2.059 0,-2.84 z m -1.027,-8.898 c 0,5.918 -4.797,10.715 -10.715,10.715 -5.918,0 -10.715,-4.797 -10.715,-10.715 0,-5.918 4.797,-10.715 10.715,-10.715 5.918,0 10.715,4.797 10.715,10.715 z" style="fill:currentColor;fill-opacity:1;fill-rule:nonzero;stroke:none" transform="scale(1.3333333)" /> </g>
</svg>

