<?xml version="1.0" encoding="UTF-8" standalone="no"?> <svg version="1.1" id="I467f8dfed8024019b591092f3935546c20251106123600" width="100" height="100" viewBox="0 0 100 100" xmlns="http://www.w3.org/2000/svg" xmlns:svg="http://www.w3.org/2000/svg"> <defs id="If9f93b5b2b474b1490db0958a41dd97c20251106123600" /> <g id="I46ccbb6862e64ae4a1ffd8ffe77594cb20251106123600"> <path id="I74dafd46734f4d5f971ca38158b2ac6f20251106123600" d="m 15,67.5 c 0,1.035 -0.84,1.875 -1.875,1.875 -1.035,0 -1.875,-0.84 -1.875,-1.875 V 65.625 C 11.25,62.52 13.77,60 16.875,60 h 37.5 C 57.48,60 60,62.52 60,65.625 V 67.5 c 0,1.035 -0.84,1.875 -1.875,1.875 -1.035,0 -1.875,-0.84 -1.875,-1.875 v -1.875 c 0,-1.035 -0.84,-1.875 -1.875,-1.875 h -37.5 C 15.84,63.75 15,64.59 15,65.625 Z M 35.625,56.25 c 1.035,0 1.875,-0.84 1.875,-1.875 V 25.152 l 13.676,13.672 c 0.73,0.735 1.918,0.735 2.648,0 0.735,-0.73 0.735,-1.918 0,-2.648 L 36.949,19.301 c -0.73,-0.735 -1.918,-0.735 -2.648,0 L 17.426,36.176 c -0.735,0.73 -0.735,1.918 0,2.648 0.73,0.735 1.918,0.735 2.648,0 L 33.75,25.152 v 29.223 c 0,1.035 0.84,1.875 1.875,1.875 z M 11.25,9.375 c 0,3.105 2.52,5.625 5.625,5.625 h 37.5 C 57.48,15 60,12.48 60,9.375 V 7.5 C 60,6.465 59.16,5.625 58.125,5.625 57.09,5.625 56.25,6.465 56.25,7.5 v 1.875 c 0,1.035 -0.84,1.875 -1.875,1.875 h -37.5 C 15.84,11.25 15,10.41 15,9.375 V 7.5 C 15,6.465 14.16,5.625 13.125,5.625 12.09,5.625 11.25,6.465 11.25,7.5 Z" style="fill:currentColor;fill-opacity:1;fill-rule:nonzero;stroke:none" transform="scale(1.3333333)" /> </g>
</svg>

