<?xml version="1.0" encoding="UTF-8" standalone="no"?> <svg version="1.1" id="Id2c9048a4a6f4bbb9b527908d0ced73e20251106165302" width="100" height="100" viewBox="0 0 100 100" xmlns="http://www.w3.org/2000/svg" xmlns:svg="http://www.w3.org/2000/svg"> <defs id="Iec25243f86a34f4984d16a685998845d20251106165302" /> <g id="I4592c0137fdf494d85910f2082b185d720251106165302"> <path id="I48e6385b5007482b9f0894b6cb16e49520251106165302" d="m 10.699,8.051 c -0.73,-0.735 -1.918,-0.735 -2.648,0 -0.735,0.73 -0.735,1.918 0,2.648 l 5.277,5.281 C 12.02,17.82 11.25,20.07 11.25,22.5 V 45 c 0,6.215 5.035,11.25 11.25,11.25 H 45 c 2.43,0 4.68,-0.77 6.52,-2.078 l 3.214,3.215 C 52.543,59.027 49.824,60 46.875,60 H 21.613 c 2.063,2.301 5.055,3.75 8.387,3.75 h 16.875 c 3.984,0 7.645,-1.379 10.535,-3.691 l 6.891,6.89 c 0.73,0.735 1.918,0.735 2.648,0 0.735,-0.73 0.735,-1.918 0,-2.648 z m 21.11,26.41 c -1.231,0.328 -2.395,0.977 -3.364,1.941 L 16.039,48.809 C 15.379,47.691 15,46.391 15,45 V 22.5 c 0,-1.391 0.379,-2.695 1.039,-3.809 z M 52.5,22.5 v 22.047 l 3.367,3.367 C 56.117,46.984 56.25,46.008 56.25,45 V 22.5 C 56.25,16.285 51.215,11.25 45,11.25 H 22.5 c -1.008,0 -1.984,0.133 -2.914,0.383 L 22.953,15 H 45 c 4.141,0 7.5,3.359 7.5,7.5 z m 6.742,28.785 2.863,2.863 C 63.16,51.949 63.75,49.48 63.75,46.875 V 30 c 0,-3.332 -1.449,-6.324 -3.75,-8.387 v 25.262 c 0,0.453 -0.023,0.902 -0.066,1.344 -0.11,1.062 -0.344,2.093 -0.692,3.066 z M 43.125,28.125 c 2.07,0 3.75,-1.68 3.75,-3.75 0,-2.07 -1.68,-3.75 -3.75,-3.75 -2.07,0 -3.75,1.68 -3.75,3.75 0,2.07 1.68,3.75 3.75,3.75 z m -6.723,10.93 12.407,12.406 C 47.691,52.121 46.391,52.5 45,52.5 H 22.5 c -1.391,0 -2.695,-0.379 -3.809,-1.039 L 31.098,39.055 c 1.464,-1.465 3.84,-1.465 5.304,0 z" style="fill:currentColor;fill-opacity:1;fill-rule:nonzero;stroke:none" transform="scale(1.3333333)" /> </g>
</svg>

