<?xml version="1.0" encoding="UTF-8" standalone="no"?> <svg version="1.1" id="Ib77412c1cb33459ba3e2f3da6d5f6d4620251106144521" width="100" height="100" viewBox="0 0 100 100" xmlns="http://www.w3.org/2000/svg" xmlns:svg="http://www.w3.org/2000/svg"> <defs id="I70c835633bf143d9b534c93d9c96518020251106144521" /> <g id="Ib295934a7d844bc282481042a214461120251106144521"> <path id="I5a9a96b952354f6eb3d001abbf8959b620251106144521" d="m 37.5,10.938 c -14.672,0 -26.562,11.89 -26.562,26.562 0,13.93 10.718,25.352 24.359,26.473 l -0.731,2.925 c -0.144,0.575 -0.207,1.145 -0.199,1.696 C 18.578,67.023 6.25,53.703 6.25,37.5 6.25,20.242 20.242,6.25 37.5,6.25 c 16.469,0 29.965,12.742 31.164,28.906 -1.258,-0.519 -2.594,-0.781 -3.93,-0.781 h -0.007 c -0.282,0 -0.563,0.012 -0.844,0.035 C 62.355,21.195 51.125,10.938 37.5,10.938 Z" style="fill:currentColor;fill-opacity:1;fill-rule:nonzero;stroke:none" transform="scale(1.3333333)" /> <path id="Ida5c41b8ad83438ca96c6cd1e454082620251106144521" d="m 64.734,37.5 h -0.007 c -1.825,0 -3.653,0.699 -5.047,2.094 L 41.234,58.039 c -1.074,1.074 -1.836,2.422 -2.207,3.899 l -1.429,5.718 c -0.621,2.489 1.632,4.742 4.121,4.121 l 5.719,-1.433 c 1.476,-0.367 2.824,-1.129 3.898,-2.207 L 69.781,49.695 c 2.789,-2.793 2.789,-7.312 0,-10.101 C 68.387,38.199 66.562,37.5 64.734,37.5 Z" style="fill:currentColor;fill-opacity:1;fill-rule:nonzero;stroke:none" transform="scale(1.3333333)" /> </g>
</svg>

