<?xml version="1.0" encoding="UTF-8" standalone="no"?> <svg version="1.1" id="I22432697e31948f5bb7821d71627551120251106151526" width="100" height="100" viewBox="0 0 100 100" xmlns="http://www.w3.org/2000/svg" xmlns:svg="http://www.w3.org/2000/svg"> <defs id="I6394bca0378444bb822121394836dfbe20251106151526" /> <g id="I8842f073a15c4faeb73228bd713257da20251106151526"> <path id="I124abe39254048f08931086a2dbd701520251106151526" d="m 37.5,12.055 c -7.938,0 -14.41,6.277 -14.719,14.14 -0.043,1.078 -0.929,1.93 -2.008,1.93 H 20.09 c -5.918,0 -10.715,4.797 -10.715,10.715 0,5.918 4.797,10.715 10.715,10.715 h 12.23 c -0.117,0.875 -0.175,1.769 -0.175,2.675 0,0.454 0.011,0.899 0.043,1.34 H 20.09 c -8.137,0 -14.735,-6.593 -14.735,-14.73 0,-7.75 5.981,-14.098 13.579,-14.688 1.281,-9.109 9.105,-16.117 18.566,-16.117 9.461,0 17.285,7.008 18.566,16.117 7.598,0.59 13.579,6.938 13.579,14.688 0,0.988 -0.098,1.953 -0.286,2.887 -1.054,-1.715 -2.363,-3.262 -3.867,-4.586 -0.816,-5.11 -5.242,-9.016 -10.582,-9.016 h -0.683 c -1.079,0 -1.965,-0.852 -2.008,-1.93 C 51.91,18.332 45.438,12.055 37.5,12.055 Z M 69.645,52.23 c 0,9.618 -7.797,17.415 -17.415,17.415 -9.613,0 -17.41,-7.797 -17.41,-17.415 0,-9.613 7.797,-17.41 17.41,-17.41 9.618,0 17.415,7.797 17.415,17.41 z M 52.23,42.855 c -0.738,0 -1.335,0.602 -1.335,1.34 V 54.91 c 0,0.738 0.597,1.34 1.335,1.34 0.743,0 1.34,-0.602 1.34,-1.34 V 44.195 c 0,-0.738 -0.597,-1.34 -1.34,-1.34 z m 0,19.086 c 0.926,0 1.676,-0.75 1.676,-1.671 0,-0.926 -0.75,-1.676 -1.676,-1.676 -0.921,0 -1.671,0.75 -1.671,1.676 0,0.921 0.75,1.671 1.671,1.671 z" style="fill:currentColor;fill-opacity:1;fill-rule:nonzero;stroke:none" transform="scale(1.3333333)" /> </g>
</svg>

