<?xml version="1.0" encoding="UTF-8" standalone="no"?> <svg version="1.1" id="Ie4d55e88e7f84de88c1e41e2ebd00b9920251106155157" width="100" height="100" viewBox="0 0 100 100" xmlns="http://www.w3.org/2000/svg" xmlns:svg="http://www.w3.org/2000/svg"> <defs id="Ia6f277388aa94e8095975c05a912e80920251106155157" /> <g id="I8b7b548b703b4395bbab3e76a5669bd520251106155157"> <path id="Ia68fd2e4cdf84e9bafa351f01068b80c20251106155157" d="m 35.176,52.754 0.742,-4.688 h 4.629 l -0.742,4.688 z M 55.469,6.25 c 3.722,0 6.765,2.891 7.015,6.551 l 0.016,0.48 v 48.43 c 0,3.723 -2.891,6.769 -6.551,7.016 l -0.48,0.015 H 19.531 c -3.722,0 -6.769,-2.89 -7.015,-6.547 L 12.5,61.711 v -48.43 c 0,-3.722 2.891,-6.769 6.551,-7.015 L 19.531,6.25 Z M 38.734,59.508 c -0.203,1.277 0.672,2.48 1.95,2.68 1.277,0.203 2.48,-0.668 2.683,-1.946 l 0.442,-2.801 h 2.285 c 1.293,0 2.344,-1.046 2.344,-2.343 0,-1.293 -1.051,-2.344 -2.344,-2.344 h -1.543 l 0.742,-4.688 h 2.363 C 48.949,48.066 50,47.02 50,45.723 50,44.43 48.949,43.379 47.656,43.379 h -1.621 l 0.508,-3.199 c 0.203,-1.282 -0.672,-2.481 -1.949,-2.684 -1.278,-0.203 -2.481,0.672 -2.68,1.949 l -0.625,3.934 H 36.66 l 0.508,-3.199 c 0.203,-1.282 -0.672,-2.481 -1.949,-2.684 -1.278,-0.203 -2.481,0.672 -2.68,1.949 l -0.625,3.934 h -3.008 c -1.293,0 -2.344,1.051 -2.344,2.344 0,1.297 1.051,2.343 2.344,2.343 h 2.266 l -0.742,4.688 h -3.086 c -1.293,0 -2.344,1.051 -2.344,2.344 0,1.297 1.051,2.343 2.344,2.343 h 2.344 l -0.329,2.067 c -0.203,1.277 0.672,2.48 1.95,2.68 1.277,0.203 2.48,-0.668 2.683,-1.946 l 0.442,-2.801 h 4.628 z" style="fill:currentColor;fill-opacity:1;fill-rule:nonzero;stroke:none" transform="scale(1.3333333)" /> </g>
</svg>

