<?xml version="1.0" encoding="UTF-8" standalone="no"?> <svg version="1.1" id="I50b688282be24928a58fab09c88c8d1a20251110123030" width="100" height="100" viewBox="0 0 100 100" xmlns="http://www.w3.org/2000/svg" xmlns:svg="http://www.w3.org/2000/svg"> <defs id="I59d19066a0084bc0be3c563d6216b6c020251110123030"> <radialGradient fx="0" fy="0" cx="0" cy="0" r="1" gradientUnits="userSpaceOnUse" gradientTransform="matrix(42.662147,17.223463,-12.030813,29.800067,29.650179,45.538125)" spreadMethod="pad" id="I5ee04ff1228849d3bd412fd7e68db10220251110123030"> <stop style="stop-opacity:1;stop-color:#003580" offset="0" id="Ifecfda561d724767a863a01a5a7483f520251110123030" /> <stop style="stop-opacity:1;stop-color:#003580" offset="0.13554" id="If325229ce16d4ec8b891800c74878e7020251110123030" /> <stop style="stop-opacity:1;stop-color:#0057aa" offset="0.365657" id="I2d97633ec4aa469e9c1b4045f6a65a6c20251110123030" /> <stop style="stop-opacity:1;stop-color:#0fafff" offset="1" id="I95b09f6503ce4198b39f039d8ef19b1f20251110123030" /> </radialGradient> <radialGradient fx="0" fy="0" cx="0" cy="0" r="1" gradientUnits="userSpaceOnUse" gradientTransform="matrix(18.684903,14.316768,-13.736667,17.92781,26.934911,44.365982)" spreadMethod="pad" id="I4bc6fc8d94f142daa0076aefdffc3a7620251110123030"> <stop style="stop-opacity:0.50000763;stop-color:#76eb95" offset="0" id="Iac55b94ade64421a97efe6cef2670da420251110123030" /> <stop style="stop-opacity:0.16922255;stop-color:#76eb95" offset="0.407158" id="I8cd680a641c7478eba442457d83d1b3c20251110123030" /> <stop style="stop-opacity:0;stop-color:#76eb95" offset="1" id="I8c28de4f77cc4a3cadfaf6e231506ee320251110123030" /> </radialGradient> <linearGradient x1="15.4533" y1="13" x2="9.6210804" y2="27.619499" gradientUnits="userSpaceOnUse" gradientTransform="scale(2.678571)" spreadMethod="pad" id="Ie7001817abca40d9aa1564f8a183457c20251110123030"> <stop style="stop-opacity:1;stop-color:#3bd5ff" offset="0" id="Id9a723aa5391423f8f13a748b2acfb4120251110123030" /> <stop style="stop-opacity:1;stop-color:#0095ff" offset="1" id="I4750deb58c0d4ace88549b59a423f52c20251110123030" /> </linearGradient> <radialGradient fx="0" fy="0" cx="0" cy="0" r="1" gradientUnits="userSpaceOnUse" gradientTransform="matrix(-14.681024,36.612486,-38.140472,-15.293722,44.062232,36.083839)" spreadMethod="pad" id="I781d331b70b3492e9631342725cbb6f220251110123030"> <stop style="stop-opacity:1;stop-color:#2bdabe" offset="0" id="If757ff570eb7469fa6bf0ffe5a08571120251110123030" /> <stop style="stop-opacity:1;stop-color:#13accf" offset="0.443217" id="If3a9033e084747b1967a404150f876c520251110123030" /> <stop style="stop-opacity:1;stop-color:#0078d4" offset="1" id="Ibae338146c9e488fae27e8ee983c0deb20251110123030" /> </radialGradient> <linearGradient x1="8.0003004" y1="20.490499" x2="7.5377002" y2="11.4106" gradientUnits="userSpaceOnUse" gradientTransform="scale(2.678571)" spreadMethod="pad" id="I2864cc71c73f495d9e016b7642023c9920251110123030"> <stop style="stop-opacity:0;stop-color:#16bbda" offset="0" id="I274a1c23e8054151b7aa7832414e01f320251110123030" /> <stop style="stop-opacity:1;stop-color:#76eb95" offset="1" id="I72503655f9c94d6ca9807c4b359be3ea20251110123030" /> </linearGradient> <linearGradient x1="6.75" y1="3" x2="10.1299" y2="9.6786804" gradientUnits="userSpaceOnUse" gradientTransform="scale(2.678571)" spreadMethod="pad" id="Ieafda2b3bfbb4ce591b5b8bc84cbc7be20251110123030"> <stop style="stop-opacity:1;stop-color:#3bd5ff" offset="0" id="If623ca647b464bf7910cc7bcdea0f32620251110123030" /> <stop style="stop-opacity:1;stop-color:#006ee3" offset="1" id="Ifd40b47ec5c64a96b4fbd9759b0cab7e20251110123030" /> </linearGradient> <radialGradient fx="0" fy="0" cx="0" cy="0" r="1" gradientUnits="userSpaceOnUse" gradientTransform="matrix(-7.50012,17.499934,-17.499934,-7.50012,24.017866,8.035714)" spreadMethod="pad" id="I64b7b58ea9bf40baac2a047fb59752c820251110123030"> <stop style="stop-opacity:1;stop-color:#2bdabe" offset="0" id="I22eb96395cf7493ab35076fadea660be20251110123030" /> <stop style="stop-opacity:1;stop-color:#16bbda" offset="0.518073" id="I3b0fa020ec55489e9c04b5907c84312a20251110123030" /> <stop style="stop-opacity:1;stop-color:#119fc5" offset="0.75" id="I8a291f0caeab43029f71edea4b17405620251110123030" /> <stop style="stop-opacity:1;stop-color:#0078d4" offset="1" id="I2de400537bee4bad8b214476e64ed6c020251110123030" /> </radialGradient> <radialGradient fx="0" fy="0" cx="0" cy="0" r="1" gradientUnits="userSpaceOnUse" gradientTransform="matrix(14.488619,-17.045456,17.644728,14.998,28.729554,10.592545)" spreadMethod="pad" id="I84f90153457441448e3a7ed9a38df22d20251110123030"> <stop style="stop-opacity:1;stop-color:#76eb95" offset="0" id="Ida6c7c9bc426472fbdaf89ae3233c7c420251110123030" /> <stop style="stop-opacity:0;stop-color:#16bbda" offset="1" id="Ic3cd1bc4a80d40b083e97eb833c7d15d20251110123030" /> </radialGradient> <linearGradient x1="17.7495" y1="3" x2="21.129999" y2="9.6779299" gradientUnits="userSpaceOnUse" gradientTransform="scale(2.678571)" spreadMethod="pad" id="I1c238ce28dfe4cedb788375dcd4fbc3920251110123030"> <stop style="stop-opacity:1;stop-color:#3bd5ff" offset="0" id="I09f91762288a4385b2e351aeeda928a520251110123030" /> <stop style="stop-opacity:1;stop-color:#006ee3" offset="1" id="I543133f5daef4d74bd6dae30bc49814220251110123030" /> </linearGradient> <radialGradient fx="0" fy="0" cx="0" cy="0" r="1" gradientUnits="userSpaceOnUse" gradientTransform="matrix(-7.497971,17.499981,-17.496657,-7.496547,53.479286,8.035714)" spreadMethod="pad" id="Ib11d458ef61b441bb7fa4e62da7ad5de20251110123030"> <stop style="stop-opacity:1;stop-color:#2bdabe" offset="0" id="I7a4adcf335a747d7a7f69acb15ee8ea320251110123030" /> <stop style="stop-opacity:1;stop-color:#16bbda" offset="0.518073" id="Ib62ded7838194f0ebdc9ae1a42358ba520251110123030" /> <stop style="stop-opacity:1;stop-color:#119fc5" offset="0.75" id="I96d0b79ede514661a6688b234f2ade8420251110123030" /> <stop style="stop-opacity:1;stop-color:#0078d4" offset="1" id="Ic12942f7f9914492828f18888042ba6220251110123030" /> </radialGradient> <radialGradient fx="0" fy="0" cx="0" cy="0" r="1" gradientUnits="userSpaceOnUse" gradientTransform="matrix(14.484663,-17.045443,17.643927,14.993235,58.189554,10.592545)" spreadMethod="pad" id="Ibd4222d4e37e4bce8daaad9c288ffa6620251110123030"> <stop style="stop-opacity:1;stop-color:#76eb95" offset="0" id="I91257063eb784073966efca567f73cef20251110123030" /> <stop style="stop-opacity:0;stop-color:#16bbda" offset="1" id="I8b72c645423f47ce8cfea3e60fbfaca520251110123030" /> </radialGradient> </defs> <g id="I28639d47a1a243b3b6128ce16379955a20251110123030"> <path id="I7ab401de558745d383463ca56ca4a42a20251110123030" d="m 52.406,68.227 c 8.145,0 13.824,-9.442 16.762,-14.243 0.703,-1.152 0.625,-2.601 -0.238,-3.652 L 58.172,37.273 c -2.82,-3.421 -8.422,-3.23 -10.961,0.379 l -3.285,4.68 c 0,0 -2.172,2.113 -3.446,2.113 -1.269,0 -8.156,5.625 -8.156,5.625 l -2.719,12.68 c 3.309,-4.719 5.774,-3.062 7.434,-2.191 5.031,2.636 9.281,7.668 15.367,7.668 z" transform="scale(1.3333333)" style="fill:url(#I5ee04ff1228849d3bd412fd7e68db10220251110123030);stroke:none" /> <path d="m 52.406,68.227 c 8.145,0 13.824,-9.442 16.762,-14.243 0.703,-1.152 0.625,-2.601 -0.238,-3.652 L 58.172,37.273 c -2.82,-3.421 -8.422,-3.23 -10.961,0.379 l -3.285,4.68 c 0,0 -2.172,2.113 -3.446,2.113 -1.269,0 -8.156,5.625 -8.156,5.625 l -2.719,12.68 c 3.309,-4.719 5.774,-3.062 7.434,-2.191 5.031,2.636 9.281,7.668 15.367,7.668 z" transform="scale(1.3333333)" style="fill:url(#I4bc6fc8d94f142daa0076aefdffc3a7620251110123030);stroke:none" opacity="1" id="I880476341b71484999c0798eaa8f6c3820251110123030" /> <path id="Ie455053461d542c3884fb2223a30a4f220251110123030" d="m 22.598,34.82 c -8.149,0 -13.828,9.442 -16.766,14.246 -0.703,1.149 -0.625,2.598 0.242,3.649 l 10.758,13.062 c 2.816,3.422 8.422,3.227 10.961,-0.379 L 45.398,40.301 c -3.312,4.715 -5.777,3.062 -7.437,2.191 C 32.934,39.855 28.68,34.82 22.598,34.82 Z" transform="scale(1.3333333)" style="fill:url(#Ie7001817abca40d9aa1564f8a183457c20251110123030);stroke:none" /> <path id="I47e048f101594de6955ee91a5cbc80e020251110123030" d="m 22.598,34.82 c -8.149,0 -13.828,9.442 -16.766,14.246 -0.703,1.149 -0.625,2.598 0.242,3.649 l 10.758,13.062 c 2.816,3.422 8.422,3.227 10.961,-0.379 L 45.398,40.301 c -3.312,4.715 -5.777,3.062 -7.437,2.191 C 32.934,39.855 28.68,34.82 22.598,34.82 Z" transform="scale(1.3333333)" style="fill:url(#I781d331b70b3492e9631342725cbb6f220251110123030);stroke:none" /> <path d="m 22.598,34.82 c -8.149,0 -13.828,9.442 -16.766,14.246 -0.703,1.149 -0.625,2.598 0.242,3.649 l 10.758,13.062 c 2.816,3.422 8.422,3.227 10.961,-0.379 L 45.398,40.301 c -3.312,4.715 -5.777,3.062 -7.437,2.191 C 32.934,39.855 28.68,34.82 22.598,34.82 Z" transform="scale(1.3333333)" style="fill:url(#I2864cc71c73f495d9e016b7642023c9920251110123030);stroke:none" opacity="1" id="I2d95998fde3a4d56ac668eb0d2308c2620251110123030" /> <path id="I8647704766154b4d8f64eabd0736233020251110123030" d="m 32.145,17.41 c 0,5.18 -4.2,9.375 -9.375,9.375 -5.18,0 -9.375,-4.195 -9.375,-9.375 0,-5.176 4.195,-9.375 9.375,-9.375 5.175,0 9.375,4.199 9.375,9.375 z" transform="scale(1.3333333)" style="fill:url(#Ieafda2b3bfbb4ce591b5b8bc84cbc7be20251110123030);stroke:none" /> <path id="I41fdbb6df3d648e1b994be34b89295f920251110123030" d="m 32.145,17.41 c 0,5.18 -4.2,9.375 -9.375,9.375 -5.18,0 -9.375,-4.195 -9.375,-9.375 0,-5.176 4.195,-9.375 9.375,-9.375 5.175,0 9.375,4.199 9.375,9.375 z" transform="scale(1.3333333)" style="fill:url(#I64b7b58ea9bf40baac2a047fb59752c820251110123030);stroke:none" /> <path d="m 32.145,17.41 c 0,5.18 -4.2,9.375 -9.375,9.375 -5.18,0 -9.375,-4.195 -9.375,-9.375 0,-5.176 4.195,-9.375 9.375,-9.375 5.175,0 9.375,4.199 9.375,9.375 z" transform="scale(1.3333333)" style="fill:url(#I84f90153457441448e3a7ed9a38df22d20251110123030);stroke:none" opacity="1" id="I7cec202dd65b430a90dfe040a89241d820251110123030" /> <path id="I81e3a3e461874bfb8826f4d6920b90d620251110123030" d="m 61.602,17.41 c 0,5.18 -4.196,9.375 -9.372,9.375 -5.175,0 -9.375,-4.195 -9.375,-9.375 0,-5.176 4.2,-9.375 9.375,-9.375 5.176,0 9.372,4.199 9.372,9.375 z" transform="scale(1.3333333)" style="fill:url(#I1c238ce28dfe4cedb788375dcd4fbc3920251110123030);stroke:none" /> <path id="I05aeac4c020444e089c278e5627aa4ea20251110123030" d="m 61.602,17.41 c 0,5.18 -4.196,9.375 -9.372,9.375 -5.175,0 -9.375,-4.195 -9.375,-9.375 0,-5.176 4.2,-9.375 9.375,-9.375 5.176,0 9.372,4.199 9.372,9.375 z" transform="scale(1.3333333)" style="fill:url(#Ib11d458ef61b441bb7fa4e62da7ad5de20251110123030);stroke:none" /> <path d="m 61.602,17.41 c 0,5.18 -4.196,9.375 -9.372,9.375 -5.175,0 -9.375,-4.195 -9.375,-9.375 0,-5.176 4.2,-9.375 9.375,-9.375 5.176,0 9.372,4.199 9.372,9.375 z" transform="scale(1.3333333)" style="fill:url(#Ibd4222d4e37e4bce8daaad9c288ffa6620251110123030);stroke:none" opacity="1" id="I5a832b2d9cfa4b809b550e108df7ef7520251110123030" /> </g>
</svg>

