<?xml version="1.0" encoding="UTF-8" standalone="no"?> <svg version="1.1" id="I74eaa478574b47d6ac35dfef614be54320251106105132" width="100" height="100" viewBox="0 0 100 100" xmlns="http://www.w3.org/2000/svg" xmlns:svg="http://www.w3.org/2000/svg"> <defs id="I8765ac28d9d74b22968d8a4943bf676320251106105132" /> <g id="I4127d61b993e4e36a47087d8598ccb3420251106105132"> <path id="Id0526d4491554ca59b56b750321912d620251106105132" d="M 37.5,2.68 C 18.297,2.68 2.68,18.297 2.68,37.5 2.68,56.703 18.297,72.32 37.5,72.32 56.703,72.32 72.32,56.703 72.32,37.5 72.32,18.297 56.703,2.68 37.5,2.68 Z m 23.027,16.054 c 4.145,5.063 6.657,11.508 6.715,18.532 C 66.262,37.055 56.426,35.062 46.531,36.312 46.324,35.801 46.113,35.289 45.895,34.781 45.277,33.332 44.613,31.883 43.922,30.469 54.91,25.973 59.898,19.586 60.527,18.734 Z M 37.5,7.801 c 7.559,0 14.465,2.84 19.711,7.492 -0.535,0.762 -5.012,6.781 -15.586,10.746 C 36.754,17.086 31.355,9.734 30.527,8.629 32.812,8.078 35.148,7.801 37.5,7.801 Z m -12.648,2.828 c 0.789,1.074 6.101,8.449 11.023,17.203 -13.91,3.691 -26.164,3.641 -27.496,3.625 1.933,-9.234 8.152,-16.902 16.473,-20.828 z M 7.758,37.543 c 0,-0.301 0.012,-0.613 0.019,-0.914 1.297,0.027 15.711,0.211 30.567,-4.234 0.855,1.664 1.668,3.355 2.414,5.046 -0.395,0.11 -0.789,0.227 -1.172,0.352 C 24.242,42.766 16.078,56.285 15.402,57.43 10.656,52.156 7.758,45.184 7.758,37.543 Z M 37.5,67.281 c -6.879,0 -13.219,-2.343 -18.258,-6.277 0.539,-1.098 6.555,-12.723 23.332,-18.574 l 0.192,-0.067 c 4.175,10.848 5.902,19.946 6.343,22.559 -3.668,1.566 -7.617,2.371 -11.609,2.359 z M 54.117,62.203 C 53.812,60.395 52.23,51.688 48.34,41 c 9.324,-1.492 17.512,0.953 18.523,1.27 -1.32,8.273 -6.066,15.421 -12.746,19.933 z" style="fill:currentColor;fill-opacity:1;fill-rule:nonzero;stroke:none" transform="scale(1.3333333)" /> </g>
</svg>

