<?xml version="1.0" encoding="UTF-8" standalone="no"?> <svg version="1.1" id="I28bb2ed083c14649b878860a8fb8740520251106151526" width="100" height="100" viewBox="0 0 100 100" xmlns="http://www.w3.org/2000/svg" xmlns:svg="http://www.w3.org/2000/svg"> <defs id="I695e25785642496f9a3645250a4679f320251106151526" /> <g id="I727b97f8121e464d8e20885859de41b720251106151526"> <path id="I4b4c71267f1e40738aa45160dec307f620251106151526" d="m 37.5,12.055 c -7.938,0 -14.41,6.277 -14.719,14.14 -0.043,1.078 -0.929,1.93 -2.008,1.93 H 20.09 c -5.918,0 -10.715,4.797 -10.715,10.715 0,5.918 4.797,10.715 10.715,10.715 h 12.23 c -0.117,0.875 -0.175,1.769 -0.175,2.675 0,0.454 0.011,0.899 0.043,1.34 H 20.09 c -8.137,0 -14.735,-6.593 -14.735,-14.73 0,-7.75 5.981,-14.098 13.579,-14.688 1.281,-9.109 9.105,-16.117 18.566,-16.117 9.461,0 17.285,7.008 18.566,16.117 7.598,0.59 13.579,6.938 13.579,14.688 0,0.988 -0.098,1.953 -0.286,2.887 -1.054,-1.715 -2.363,-3.262 -3.867,-4.586 -0.816,-5.11 -5.242,-9.016 -10.582,-9.016 h -0.683 c -1.079,0 -1.965,-0.852 -2.008,-1.93 C 51.91,18.332 45.438,12.055 37.5,12.055 Z M 69.645,52.23 c 0,9.618 -7.797,17.415 -17.415,17.415 -9.613,0 -17.41,-7.797 -17.41,-17.415 0,-9.613 7.797,-17.41 17.41,-17.41 9.618,0 17.415,7.797 17.415,17.41 z M 53.57,41.52 c 0,-0.743 -0.597,-1.34 -1.34,-1.34 -0.738,0 -1.335,0.597 -1.335,1.34 v 18.195 l -5.75,-5.75 c -0.524,-0.524 -1.372,-0.524 -1.895,0 -0.523,0.523 -0.523,1.371 0,1.894 l 8.035,8.036 c 0.129,0.128 0.277,0.222 0.434,0.289 0.156,0.066 0.328,0.101 0.504,0.101 h 0.015 c 0.344,0 0.68,-0.133 0.942,-0.39 l 8.035,-8.036 c 0.523,-0.523 0.523,-1.371 0,-1.894 -0.524,-0.524 -1.371,-0.524 -1.895,0 l -5.75,5.75 z" style="fill:currentColor;fill-opacity:1;fill-rule:nonzero;stroke:none" transform="scale(1.3333333)" /> </g>
</svg>

