<?xml version="1.0" encoding="UTF-8" standalone="no"?> <svg version="1.1" id="Ide59670bc7b64d1282e9d52fe71fc2c520251106163938" width="100" height="100" viewBox="0 0 100 100" xmlns="http://www.w3.org/2000/svg" xmlns:svg="http://www.w3.org/2000/svg"> <defs id="I38cf824cd5454593b7af521717125f5320251106163938" /> <g id="Ia0deb99ca9ec483dbcb457ec7c8a069620251106163938"> <path id="Id6b2f616bb0b4f5f920f8771bc6ca48220251106163938" d="M 10.25,6.938 C 9.336,6.02 7.852,6.02 6.938,6.938 6.02,7.852 6.02,9.336 6.938,10.25 L 64.75,68.062 c 0.914,0.918 2.398,0.918 3.312,0 0.915,-0.914 0.915,-2.398 0,-3.312 z m 49.312,39.937 4.407,-4.402 c 2.742,-2.746 2.742,-7.2 0,-9.946 L 42.473,11.031 c -2.746,-2.746 -7.2,-2.746 -9.946,0 l -4.402,4.407 z M 40.625,50.191 24.809,34.375 9.469,49.715 c -2.746,2.746 -2.746,7.199 0,9.945 l 5.871,5.871 c 2.746,2.746 7.199,2.746 9.945,0 z m -10.844,-1.66 -4.687,4.688 c -0.914,0.918 -2.399,0.918 -3.313,0 -0.918,-0.914 -0.918,-2.399 0,-3.313 l 4.688,-4.687 c 0.914,-0.918 2.398,-0.918 3.312,0 0.914,0.914 0.914,2.398 0,3.312 z" style="fill:currentColor;fill-opacity:1;fill-rule:nonzero;stroke:none" transform="scale(1.3333333)" /> </g>
</svg>

