<?xml version="1.0" encoding="UTF-8" standalone="no"?> <svg version="1.1" id="I50d17d9215314b07a356ac22ef48ed8c20251110130508" width="100" height="100" viewBox="0 0 100 100" xmlns="http://www.w3.org/2000/svg" xmlns:svg="http://www.w3.org/2000/svg"> <defs id="I10536880837c4dc2a89bdcc9b0c937e620251110130508" /> <g id="I66bb61c213814c6ea523d47ef624599d20251110130508"> <path id="I52b41404b6ab4bfa8fca3b0fc1c2212f20251110130508" d="m 11.25,20.625 c 0,-5.176 4.199,-9.375 9.375,-9.375 H 30 v 9.375 c 0,3.105 2.52,5.625 5.625,5.625 H 63.75 v 28.125 c 0,5.176 -4.199,9.375 -9.375,9.375 h -33.75 c -5.176,0 -9.375,-4.199 -9.375,-9.375 z M 30,41.25 c 0,-2.07 -1.68,-3.75 -3.75,-3.75 -2.07,0 -3.75,1.68 -3.75,3.75 0,2.07 1.68,3.75 3.75,3.75 C 28.32,45 30,43.32 30,41.25 Z M 37.5,45 c 2.07,0 3.75,-1.68 3.75,-3.75 0,-2.07 -1.68,-3.75 -3.75,-3.75 -2.07,0 -3.75,1.68 -3.75,3.75 0,2.07 1.68,3.75 3.75,3.75 z m 15,-3.75 c 0,-2.07 -1.68,-3.75 -3.75,-3.75 -2.07,0 -3.75,1.68 -3.75,3.75 0,2.07 1.68,3.75 3.75,3.75 2.07,0 3.75,-1.68 3.75,-3.75 z M 63.75,22.5 v -1.875 c 0,-5.176 -4.199,-9.375 -9.375,-9.375 H 33.75 v 9.375 c 0,1.035 0.84,1.875 1.875,1.875 z" style="fill:currentColor;fill-opacity:1;fill-rule:nonzero;stroke:none" transform="scale(1.3333333)" /> </g>
</svg>

