<?xml version="1.0" encoding="UTF-8" standalone="no"?> <svg version="1.1" id="I2d15e0bf7c7a45f89d8947c515136f3320251106164749" width="100" height="100" viewBox="0 0 100 100" xmlns="http://www.w3.org/2000/svg" xmlns:svg="http://www.w3.org/2000/svg"> <defs id="I50c3c7a2648f4169821a5cba4b04545920251106164749" /> <g id="I73385d6ac4124dd083a3a7dac071082320251106164749"> <path id="I693a662aed5747bb964e1d87ee9dcd4920251106164749" d="m 37.488,7.473 c -2.886,0 -4.797,2.027 -5.883,3.847 -1.101,1.852 -1.691,4.012 -1.769,5.41 -0.152,2.778 0.269,5.204 1.648,6.958 1.442,1.832 3.606,2.535 6.004,2.535 2.43,0 4.586,-0.785 6.016,-2.618 1.383,-1.769 1.832,-4.179 1.652,-6.894 C 45.07,15.391 44.473,13.234 43.379,11.379 42.301,9.562 40.395,7.473 37.488,7.473 Z m -3.906,9.465 c 0.043,-0.766 0.438,-2.344 1.246,-3.7 0.82,-1.383 1.742,-2.015 2.66,-2.015 0.895,0 1.821,0.644 2.66,2.066 0.817,1.383 1.219,2.973 1.266,3.668 0.148,2.246 -0.277,3.59 -0.863,4.336 -0.535,0.684 -1.442,1.18 -3.063,1.18 -1.687,0 -2.558,-0.473 -3.054,-1.106 -0.559,-0.707 -0.985,-2.039 -0.852,-4.429 z M 18.75,30 c -4.141,0 -7.5,3.359 -7.5,7.5 V 60 H 9.375 C 8.34,60 7.5,60.84 7.5,61.875 c 0,1.035 0.84,1.875 1.875,1.875 h 56.25 C 66.66,63.75 67.5,62.91 67.5,61.875 67.5,60.84 66.66,60 65.625,60 H 63.75 V 37.5 c 0,-4.141 -3.359,-7.5 -7.5,-7.5 z M 60,60 H 15 V 45.441 l 5.793,5.18 c 3.094,2.766 7.852,2.492 10.605,-0.613 l 3.297,-3.711 c 1.493,-1.68 4.117,-1.68 5.61,0 l 3.297,3.711 c 2.753,3.105 7.511,3.379 10.605,0.613 L 60,45.441 Z m 0,-19.59 -8.293,7.414 C 50.16,49.207 47.781,49.07 46.406,47.52 l -3.297,-3.715 c -2.984,-3.36 -8.234,-3.36 -11.218,0 l -3.297,3.715 c -1.375,1.55 -3.754,1.687 -5.301,0.304 L 15,40.41 V 37.5 c 0,-2.07 1.68,-3.75 3.75,-3.75 h 37.5 c 2.07,0 3.75,1.68 3.75,3.75 z" style="fill:currentColor;fill-opacity:1;fill-rule:nonzero;stroke:none" transform="scale(1.3333333)" /> </g>
</svg>

