<?xml version="1.0" encoding="UTF-8" standalone="no"?> <svg version="1.1" id="If45e1bd403414b2e85cc579bbdea612c20251106112235" width="100" height="100" viewBox="0 0 100 100" xmlns="http://www.w3.org/2000/svg" xmlns:svg="http://www.w3.org/2000/svg"> <defs id="Ibe99cc9b83e348de942b81f9f8bd03eb20251106112235" /> <g id="Iabbea50007cb407eb42e29e36f8bdb7c20251106112235"> <path id="Ia43dbf407ac44cab8fcdbe90b800b55720251106112235" d="m 52.23,16.742 c 0,-0.371 -0.3,-0.672 -0.668,-0.672 H 19.418 c -0.367,0 -0.668,0.301 -0.668,0.672 v 4.016 c 0,0.371 0.301,0.672 0.668,0.672 h 32.144 c 0.368,0 0.668,-0.301 0.668,-0.672 z M 51.562,28.125 H 19.418 c -0.367,0 -0.668,0.301 -0.668,0.668 v 4.019 c 0,0.368 0.301,0.668 0.668,0.668 h 32.144 c 0.368,0 0.668,-0.3 0.668,-0.668 v -4.019 c 0,-0.367 -0.3,-0.668 -0.668,-0.668 z M 34.82,40.18 H 19.418 c -0.367,0 -0.668,0.3 -0.668,0.668 v 4.019 c 0,0.367 0.301,0.668 0.668,0.668 H 34.82 c 0.371,0 0.672,-0.301 0.672,-0.668 v -4.019 c 0,-0.368 -0.301,-0.668 -0.672,-0.668 z M 30.805,65.961 H 12.055 V 7.031 H 58.93 v 28.793 c 0,0.371 0.3,0.672 0.668,0.672 h 4.687 c 0.367,0 0.672,-0.301 0.672,-0.672 V 3.684 c 0,-1.481 -1.199,-2.68 -2.68,-2.68 H 8.707 c -1.484,0 -2.68,1.199 -2.68,2.68 v 65.625 c 0,1.48 1.196,2.679 2.68,2.679 h 22.098 c 0.367,0 0.668,-0.304 0.668,-0.672 v -4.687 c 0,-0.367 -0.301,-0.668 -0.668,-0.668 z M 60.668,59.73 c 2.43,-2.199 3.953,-5.378 3.953,-8.921 0,-6.653 -5.398,-12.055 -12.055,-12.055 -6.652,0 -12.054,5.402 -12.054,12.055 0,3.543 1.523,6.722 3.953,8.921 -4.774,2.723 -8.055,7.762 -8.305,13.571 -0.015,0.375 0.293,0.695 0.672,0.695 h 4.023 c 0.352,0 0.645,-0.277 0.672,-0.637 0.325,-5.793 5.157,-10.414 11.039,-10.414 5.887,0 10.715,4.621 11.043,10.414 0.016,0.352 0.309,0.637 0.668,0.637 h 4.028 c 0.383,0 0.683,-0.32 0.668,-0.695 C 68.73,67.484 65.441,62.453 60.668,59.73 Z M 52.566,44.113 c 3.7,0 6.696,2.996 6.696,6.696 0,3.699 -2.996,6.695 -6.696,6.695 -3.699,0 -6.695,-2.996 -6.695,-6.695 0,-3.7 2.996,-6.696 6.695,-6.696 z" style="fill:currentColor;fill-opacity:1;fill-rule:nonzero;stroke:none" transform="scale(1.3333333)" /> </g>
</svg>

