<?xml version="1.0" encoding="UTF-8" standalone="no"?> <svg version="1.1" id="Iabdd94d066a744b3996d1e115b343a9420251110124421" width="100" height="100" viewBox="0 0 100 100" xmlns="http://www.w3.org/2000/svg" xmlns:svg="http://www.w3.org/2000/svg"> <defs id="I2ed8df19ad274c988ab677715d36c3b520251110124421" /> <g id="I6d3dbf55587147fcb2cdb5e5d37427b620251110124421"> <path id="Id5de71129b9c4d729b4481ac06a1d91e20251110124421" d="m 37.5,50.223 c 1.848,0 3.348,1.5 3.348,3.347 0,1.848 -1.5,3.348 -3.348,3.348 -1.848,0 -3.348,-1.5 -3.348,-3.348 0,-1.847 1.5,-3.347 3.348,-3.347 z m 0,-31.473 c 1.109,0 2.008,0.898 2.008,2.008 v 24.105 c 0,1.11 -0.899,2.012 -2.008,2.012 -1.109,0 -2.008,-0.902 -2.008,-2.012 V 20.758 c 0,-1.11 0.899,-2.008 2.008,-2.008 z M 36.32,5.738 c 0.703,-0.508 1.653,-0.508 2.356,0 1.719,1.242 5.59,3.512 10.437,5.465 4.848,1.957 10.508,3.527 15.836,3.527 1.11,0 2.008,0.903 2.008,2.008 v 20.766 c 0,8.109 -4.559,15.648 -10.277,21.297 -5.715,5.64 -12.93,9.746 -18.836,10.777 l -0.348,0.059 -0.344,-0.059 C 31.246,68.547 24.027,64.445 18.312,58.801 12.598,53.152 8.035,45.613 8.035,37.504 V 16.738 c 0,-1.105 0.899,-2.008 2.008,-2.008 5.336,0 10.992,-1.57 15.84,-3.527 C 30.727,9.25 34.598,6.98 36.32,5.738 Z m 1.176,4.059 c -2.25,1.453 -5.855,3.418 -10.109,5.133 -4.532,1.828 -9.938,3.425 -15.332,3.758 v 18.816 c 0,6.617 3.773,13.187 9.082,18.437 5.191,5.125 11.523,8.661 16.359,9.614 4.84,-0.953 11.168,-4.489 16.359,-9.614 5.313,-5.25 9.086,-11.82 9.086,-18.437 V 18.688 C 57.547,18.355 52.141,16.758 47.605,14.93 43.352,13.215 39.75,11.25 37.496,9.797 Z" style="fill:currentColor;fill-opacity:1;fill-rule:nonzero;stroke:none" transform="scale(1.3333333)" /> </g>
</svg>

