<?xml version="1.0" encoding="UTF-8" standalone="no"?> <svg version="1.1" id="I000d8033440241d1854577f783ba1e9520251110124420" width="100" height="100" viewBox="0 0 100 100" xmlns="http://www.w3.org/2000/svg" xmlns:svg="http://www.w3.org/2000/svg"> <defs id="I661c29f3c26541ec9fa237ff3d6f348f20251110124420" /> <g id="Ib402f75c5d4641378c5dd4db4cd65adc20251110124420"> <path id="I3960ec41a7e54caeaae3646433c011cb20251110124420" d="M 7.762,11.074 C 6.801,12.625 6.25,14.449 6.25,16.406 v 9.375 c 0,1.293 1.051,2.344 2.344,2.344 1.293,0 2.344,-1.051 2.344,-2.344 v -9.375 c 0,-0.644 0.113,-1.261 0.316,-1.836 l 10.621,10.621 v 2.934 c 0,1.293 1.051,2.344 2.344,2.344 0.797,0 1.504,-0.399 1.926,-1.008 l 9.011,9.012 v 9.965 h -4.687 c -1.293,0 -2.344,1.05 -2.344,2.343 0,1.293 1.051,2.344 2.344,2.344 h 14.062 c 1.293,0 2.344,-1.051 2.344,-2.344 0,-0.242 -0.035,-0.476 -0.105,-0.695 l 13.66,13.66 c -0.575,0.203 -1.192,0.316 -1.836,0.316 h -9.375 c -1.293,0 -2.344,1.051 -2.344,2.344 0,1.293 1.051,2.344 2.344,2.344 h 9.375 c 1.953,0 3.781,-0.551 5.332,-1.508 l 0.824,0.82 c 0.914,0.918 2.398,0.918 3.312,0 0.915,-0.914 0.915,-2.398 0,-3.312 L 10.25,6.938 C 9.336,6.02 7.852,6.02 6.938,6.938 6.02,7.852 6.02,9.336 6.938,10.25 Z m 37.465,37.469 c -0.219,-0.07 -0.454,-0.105 -0.696,-0.105 H 39.844 V 43.16 Z M 31.82,21.875 l 8.024,8.027 v -3.34 h 8.594 v 1.563 c 0,1.293 1.05,2.344 2.343,2.344 1.293,0 2.344,-1.051 2.344,-2.344 v -3.906 c 0,-1.293 -1.051,-2.344 -2.344,-2.344 z m 32.242,32.246 4.684,4.684 c 0.004,-0.071 0.004,-0.141 0.004,-0.211 v -9.375 c 0,-1.293 -1.051,-2.344 -2.344,-2.344 -1.293,0 -2.344,1.051 -2.344,2.344 z M 16.195,6.254 l 4.688,4.684 h 4.898 c 1.293,0 2.344,-1.051 2.344,-2.344 0,-1.293 -1.051,-2.344 -2.344,-2.344 h -9.375 c -0.07,0 -0.14,0 -0.211,0.004 z m 0.211,57.808 c -3.019,0 -5.468,-2.449 -5.468,-5.468 v -9.375 c 0,-1.293 -1.051,-2.344 -2.344,-2.344 -1.293,0 -2.344,1.051 -2.344,2.344 v 9.375 c 0,5.609 4.547,10.156 10.156,10.156 h 9.375 c 1.293,0 2.344,-1.051 2.344,-2.344 0,-1.293 -1.051,-2.344 -2.344,-2.344 z M 64.062,16.406 c 0,-3.019 -2.449,-5.468 -5.468,-5.468 h -9.375 c -1.293,0 -2.344,-1.051 -2.344,-2.344 0,-1.293 1.051,-2.344 2.344,-2.344 h 9.375 c 5.609,0 10.156,4.547 10.156,10.156 v 9.375 c 0,1.293 -1.051,2.344 -2.344,2.344 -1.293,0 -2.344,-1.051 -2.344,-2.344 z" style="fill:currentColor;fill-opacity:1;fill-rule:nonzero;stroke:none" transform="scale(1.3333333)" /> </g>
</svg>

