<?xml version="1.0" encoding="UTF-8" standalone="no"?> <svg version="1.1" id="Iaf652d6d8197427bb9105a041f14570f20251106103256" width="100" height="100" viewBox="0 0 100 100" xmlns="http://www.w3.org/2000/svg" xmlns:svg="http://www.w3.org/2000/svg"> <defs id="If58488cca1b0472b993635b2eb76678620251106103256" /> <g id="Iba10851c74634e90a26a6d8d6fb0378120251106103256"> <path id="I23ea1ede77674c778c6b908e3d3d1d0a20251106103256" d="m 34.863,15.668 c 1.09,-0.133 2.168,-0.199 3.246,-0.207 v 5.348 c 0,0.543 0.629,0.847 1.055,0.511 l 10.723,-8.465 c 0.336,-0.265 0.336,-0.769 0,-1.027 L 39.176,3.375 C 38.746,3.039 38.121,3.34 38.121,3.883 L 38.102,9.242 C 28.176,9.281 18.363,13.711 11.77,22.148 6.16,29.312 3.707,38.453 4.98,47.461 h 6.27 c -0.074,-0.445 -0.141,-0.895 -0.199,-1.348 -0.43,-3.523 -0.176,-7.039 0.742,-10.445 0.957,-3.535 2.598,-6.789 4.863,-9.695 2.278,-2.903 5.047,-5.289 8.239,-7.055 3.097,-1.727 6.437,-2.813 9.968,-3.25 z" style="fill:currentColor;fill-opacity:1;fill-rule:nonzero;stroke:none" transform="scale(1.3333333)" /> <path id="I7023763d20e64be59f02c4af0007b2d120251106103256" d="m 68.305,29.633 h -44.2 c -1.48,0 -2.675,1.195 -2.675,2.676 v 34.656 c 0,1.48 1.195,2.68 2.675,2.68 h 44.2 c 1.48,0 2.675,-1.2 2.675,-2.68 V 32.309 c 0,-1.481 -1.195,-2.676 -2.675,-2.676 z M 64.621,63.281 H 27.789 V 35.992 h 36.832 z" style="fill:currentColor;fill-opacity:1;fill-rule:nonzero;stroke:none" transform="scale(1.3333333)" /> </g>
</svg>

