<?xml version="1.0" encoding="UTF-8" standalone="no"?> <svg version="1.1" id="Ibab46ee924024c6194a0ba036cae6e2620251106170412" width="100" height="100" viewBox="0 0 100 100" xmlns="http://www.w3.org/2000/svg" xmlns:svg="http://www.w3.org/2000/svg"> <defs id="Iea7be46c46c54c89b56eb399ff71681720251106170412" /> <g id="I93af03b90390446798bb46e30f42244820251106170412"> <path id="I4043ad69edf945e2898ca1e21828ee5b20251106170412" d="m 9.375,19.531 c 0,-5.609 4.547,-10.156 10.156,-10.156 h 35.938 c 5.609,0 10.156,4.547 10.156,10.156 v 35.938 c 0,5.609 -4.547,10.156 -10.156,10.156 H 19.531 c -5.609,0 -10.156,-4.547 -10.156,-10.156 z m 10.156,-5.469 c -3.019,0 -5.469,2.45 -5.469,5.469 V 35.156 H 35.156 V 14.062 Z M 35.156,39.844 H 14.062 v 15.625 c 0,3.019 2.45,5.469 5.469,5.469 h 15.625 z m 20.313,21.094 c 3.019,0 5.469,-2.45 5.469,-5.469 V 19.531 c 0,-3.019 -2.45,-5.469 -5.469,-5.469 H 39.844 v 46.876 z" style="fill:currentColor;fill-opacity:1;fill-rule:nonzero;stroke:none" transform="scale(1.3333333)" /> </g>
</svg>

