<?xml version="1.0" encoding="UTF-8" standalone="no"?> <svg version="1.1" id="Icbed799a8aba494b935dccbef8003c7b20251106132945" width="100" height="100" viewBox="0 0 100 100" xmlns="http://www.w3.org/2000/svg" xmlns:svg="http://www.w3.org/2000/svg"> <defs id="I76ebdfb6a3b447e294888a4bc8c3fce420251106132945" /> <g id="I4d4718ced50e4d30b12a6c7055acc25c20251106132945"> <path id="I80921dc52c67445598ee450ffe4995be20251106132945" d="m 35.938,65.629 v -6.035 l -0.614,-0.633 c -5.433,-5.625 -5.433,-14.699 0,-20.324 0.199,-0.203 0.403,-0.403 0.61,-0.594 V 29.684 H 9.375 v 25.789 l 0.016,0.578 c 0.3,5.34 4.726,9.578 10.14,9.578 z M 67.191,17.961 67.188,35.867 C 62.723,33.598 57.328,33.918 53.125,36.824 49.402,34.25 44.742,33.703 40.621,35.191 L 40.625,7.805 h 16.41 c 5.418,0 9.844,4.242 10.141,9.582 z M 35.938,54.629 c -2.083,-3.574 -2.083,-8.082 0,-11.656 0.445,-0.77 0.992,-1.496 1.636,-2.164 0.91,-0.946 1.946,-1.688 3.047,-2.227 3.793,-1.855 8.406,-1.324 11.731,1.598 0.226,0.199 0.445,0.41 0.66,0.629 l 0.113,0.117 0.113,-0.117 c 0.215,-0.219 0.434,-0.43 0.66,-0.629 3.797,-3.336 9.274,-3.559 13.29,-0.66 0.523,0.375 1.023,0.808 1.488,1.289 4.265,4.414 4.265,11.57 0,15.98 L 54.797,71.16 c -0.461,0.477 -1.067,0.715 -1.672,0.715 -0.605,0 -1.211,-0.238 -1.672,-0.715 L 37.574,56.789 C 36.93,56.125 36.387,55.398 35.938,54.629 Z M 35.934,24.996 35.938,7.805 H 19.535 c -5.609,0 -10.156,4.55 -10.16,10.156 v 7.035 z" style="fill:currentColor;fill-opacity:1;fill-rule:nonzero;stroke:none" transform="scale(1.3333333)" /> </g>
</svg>

