<?xml version="1.0" encoding="UTF-8" standalone="no"?> <svg version="1.1" id="I1825222a582d4620a8106dd31e2acc6620251110124421" width="100" height="100" viewBox="0 0 100 100" xmlns="http://www.w3.org/2000/svg" xmlns:svg="http://www.w3.org/2000/svg"> <defs id="I36f731df2f63488c8e30b8dcc68b130b20251110124421" /> <g id="I9077b79266bc45dfba3a1415f366f1d620251110124421"> <path id="Ic47090e713084273b8bf56da63d013e920251110124421" d="m 36.32,5.738 c 0.703,-0.508 1.653,-0.508 2.352,0 1.723,1.242 5.594,3.512 10.441,5.465 4.848,1.957 10.504,3.527 15.836,3.527 1.11,0 2.008,0.903 2.008,2.012 v 20.762 c 0,0.437 -0.012,0.867 -0.039,1.301 -1.227,-0.918 -2.559,-1.696 -3.977,-2.317 v -17.8 C 57.547,18.355 52.141,16.758 47.609,14.93 43.352,13.215 39.75,11.246 37.496,9.793 c -2.25,1.453 -5.855,3.422 -10.109,5.137 -4.532,1.828 -9.938,3.425 -15.332,3.758 v 18.816 c 0,6.621 3.769,13.187 9.082,18.437 5.191,5.129 11.523,8.661 16.359,9.614 0.109,-0.02 0.219,-0.043 0.332,-0.067 0.77,1.242 1.676,2.399 2.692,3.442 -0.915,0.277 -1.809,0.496 -2.68,0.648 l -0.344,0.059 -0.344,-0.059 C 31.246,68.547 24.027,64.445 18.312,58.801 12.598,53.152 8.035,45.613 8.035,37.504 V 16.742 c 0,-1.109 0.899,-2.012 2.008,-2.012 5.336,0 10.992,-1.57 15.84,-3.527 C 30.73,9.25 34.598,6.98 36.32,5.738 Z m 36,49.172 c 0,9.617 -7.793,17.41 -17.41,17.41 -9.617,0 -17.41,-7.793 -17.41,-17.41 0,-9.617 7.793,-17.41 17.41,-17.41 9.617,0 17.41,7.793 17.41,17.41 z M 56.25,44.195 c 0,-0.738 -0.602,-1.34 -1.34,-1.34 -0.738,0 -1.34,0.602 -1.34,1.34 v 9.375 h -9.375 c -0.738,0 -1.34,0.602 -1.34,1.34 0,0.738 0.602,1.34 1.34,1.34 h 9.375 v 9.375 c 0,0.738 0.602,1.34 1.34,1.34 0.738,0 1.34,-0.602 1.34,-1.34 V 56.25 h 9.375 c 0.738,0 1.34,-0.602 1.34,-1.34 0,-0.738 -0.602,-1.34 -1.34,-1.34 H 56.25 Z" style="fill:currentColor;fill-opacity:1;fill-rule:nonzero;stroke:none" transform="scale(1.3333333)" /> </g>
</svg>

