<?xml version="1.0" encoding="UTF-8" standalone="no"?> <svg version="1.1" id="Id151ee6c2fa9432d8539e8b614da66a020251106152729" width="100" height="100" viewBox="0 0 100 100" xmlns="http://www.w3.org/2000/svg" xmlns:svg="http://www.w3.org/2000/svg"> <defs id="I6593ec4a1ea34db3a253e71f316c17fa20251106152729" /> <g id="I2ab08bba37284bcea14dca2d1e71942a20251106152729"> <path id="Id018f5954dbc487e846821e5a88467ad20251106152729" d="m 32.625,9.305 c 3.129,-1.254 6.621,-1.254 9.75,0 l 21.59,8.633 c 2.137,0.855 3.535,2.925 3.535,5.222 v 15.301 c -3.566,-2.945 -8.141,-4.715 -13.125,-4.715 -5.91,0 -11.242,2.488 -15,6.469 V 33.09 l 15.762,-7.004 c 0.945,-0.422 1.371,-1.527 0.953,-2.477 -0.422,-0.945 -1.531,-1.371 -2.477,-0.949 L 37.5,29.82 21.387,22.66 c -0.946,-0.422 -2.055,0.004 -2.477,0.949 -0.418,0.95 0.008,2.055 0.953,2.477 l 15.762,7.004 v 12.68 c -1.203,2.617 -1.875,5.531 -1.875,8.601 0,4.59 1.5,8.832 4.035,12.258 -1.75,0.035 -3.504,-0.274 -5.16,-0.938 L 11.035,57.055 C 8.898,56.203 7.5,54.133 7.5,51.832 V 23.16 c 0,-2.297 1.398,-4.367 3.535,-5.222 z M 63.75,68.402 c -2.773,1.856 -6.039,2.844 -9.375,2.844 -4.477,0 -8.77,-1.777 -11.934,-4.941 C 39.277,63.141 37.5,58.848 37.5,54.371 c 0,-3.336 0.988,-6.601 2.844,-9.375 1.855,-2.773 4.488,-4.937 7.574,-6.215 3.082,-1.277 6.477,-1.613 9.75,-0.961 3.273,0.653 6.277,2.258 8.641,4.618 2.359,2.363 3.964,5.367 4.617,8.64 0.652,3.274 0.316,6.668 -0.961,9.75 -1.277,3.086 -3.442,5.719 -6.215,7.574 z M 55.699,45.547 c -0.351,-0.352 -0.828,-0.551 -1.324,-0.551 -0.496,0 -0.973,0.199 -1.324,0.551 -0.352,0.351 -0.551,0.828 -0.551,1.324 v 5.625 h -5.625 c -0.496,0 -0.973,0.199 -1.324,0.551 C 45.199,53.398 45,53.875 45,54.371 c 0,0.496 0.199,0.973 0.551,1.324 0.351,0.352 0.828,0.551 1.324,0.551 H 52.5 v 5.625 c 0,0.496 0.199,0.973 0.551,1.324 0.351,0.352 0.828,0.551 1.324,0.551 0.496,0 0.973,-0.199 1.324,-0.551 0.352,-0.351 0.551,-0.828 0.551,-1.324 v -5.625 h 5.625 c 0.496,0 0.973,-0.199 1.324,-0.551 0.352,-0.351 0.551,-0.828 0.551,-1.324 0,-0.496 -0.199,-0.973 -0.551,-1.324 -0.351,-0.352 -0.828,-0.551 -1.324,-0.551 H 56.25 v -5.625 c 0,-0.496 -0.199,-0.973 -0.551,-1.324 z" style="fill:currentColor;fill-opacity:1;fill-rule:nonzero;stroke:none" transform="scale(1.3333333)" /> </g>
</svg>

