<?xml version="1.0" encoding="UTF-8" standalone="no"?> <svg version="1.1" id="I0dc5be29ceff446aa0522800688a877a20251106142135" width="100" height="100" viewBox="0 0 100 100" xmlns="http://www.w3.org/2000/svg" xmlns:svg="http://www.w3.org/2000/svg"> <defs id="I86770063a1c54a61b979c67b0466bf5720251106142135" /> <g id="I8b761072af9149159817e5566d78d50f20251106142135"> <path id="I457bfb7a91e04e64b4f2ee1f1224023620251106142135" d="m 43.75,12.5 c 0,1.727 -1.398,3.125 -3.125,3.125 h -6.25 c -1.727,0 -3.125,-1.398 -3.125,-3.125 0,-1.727 1.398,-3.125 3.125,-3.125 h 6.25 c 1.727,0 3.125,1.398 3.125,3.125 z M 15.625,34.375 c 0,-1.727 -1.398,-3.125 -3.125,-3.125 -1.727,0 -3.125,1.398 -3.125,3.125 v 6.25 c 0,1.727 1.398,3.125 3.125,3.125 1.727,0 3.125,-1.398 3.125,-3.125 z m 43.75,0 c 0,-1.727 1.398,-3.125 3.125,-3.125 1.727,0 3.125,1.398 3.125,3.125 v 6.25 c 0,1.727 -1.398,3.125 -3.125,3.125 -1.727,0 -3.125,-1.398 -3.125,-3.125 z m -40.625,-25 c 1.727,0 3.125,1.398 3.125,3.125 0,1.727 -1.398,3.125 -3.125,3.125 -1.727,0 -3.125,1.398 -3.125,3.125 0,1.727 -1.398,3.125 -3.125,3.125 -1.727,0 -3.125,-1.398 -3.125,-3.125 0,-5.176 4.199,-9.375 9.375,-9.375 z M 53.125,12.5 c 0,-1.727 1.398,-3.125 3.125,-3.125 5.18,0 9.375,4.199 9.375,9.375 0,1.727 -1.398,3.125 -3.125,3.125 -1.727,0 -3.125,-1.398 -3.125,-3.125 0,-1.727 -1.398,-3.125 -3.125,-3.125 -1.727,0 -3.125,-1.398 -3.125,-3.125 z M 17.188,53.906 v 1.563 c 0,1.293 1.05,2.343 2.343,2.343 h 35.938 c 1.293,0 2.343,-1.05 2.343,-2.343 v -1.563 c 0,-2.156 1.75,-3.906 3.907,-3.906 2.156,0 3.906,1.75 3.906,3.906 v 2.344 h -0.031 c -0.399,5.246 -4.782,9.375 -10.125,9.375 H 19.531 c -5.343,0 -9.726,-4.129 -10.125,-9.375 H 9.375 v -2.344 c 0,-2.156 1.75,-3.906 3.906,-3.906 2.157,0 3.907,1.75 3.907,3.906 z" style="fill:currentColor;fill-opacity:1;fill-rule:nonzero;stroke:none" transform="scale(1.3333333)" /> </g>
</svg>

