<?xml version="1.0" encoding="UTF-8" standalone="no"?> <svg version="1.1" id="I8cebf2cd3d56436cb014e9995415d52920251106171633" width="100" height="100" viewBox="0 0 100 100" xmlns="http://www.w3.org/2000/svg" xmlns:svg="http://www.w3.org/2000/svg"> <defs id="I8409cb30d07b413b946f3b56ca3726ed20251106171633" /> <g id="I72161e8102b448da9e87de6c82429bb020251106171633"> <path id="Ie2580c6bc3e542b99e8e638b6484ce1e20251106171633" d="m 20.961,10.289 c -1.223,-1.219 -3.199,-1.219 -4.422,0 L 12.5,14.332 11.586,13.414 c -1.223,-1.219 -3.199,-1.219 -4.422,0 -1.219,1.223 -1.219,3.199 0,4.422 l 3.125,3.125 c 1.223,1.219 3.199,1.219 4.422,0 l 6.25,-6.25 c 1.219,-1.223 1.219,-3.199 0,-4.422 z M 31.25,53.105 h 34.387 c 1.726,0 3.125,1.399 3.125,3.125 0,1.602 -1.207,2.922 -2.762,3.102 l -0.363,0.023 H 31.25 c -1.727,0 -3.125,-1.402 -3.125,-3.125 0,-1.605 1.203,-2.925 2.758,-3.105 z m 0,-18.73 h 34.387 c 1.726,0 3.125,1.398 3.125,3.125 0,1.602 -1.207,2.922 -2.762,3.105 l -0.363,0.02 H 31.25 c -1.727,0 -3.125,-1.398 -3.125,-3.125 0,-1.602 1.203,-2.922 2.758,-3.105 z m 0,-18.75 h 34.387 c 1.726,0 3.125,1.398 3.125,3.125 0,1.602 -1.207,2.922 -2.762,3.105 l -0.363,0.02 H 31.25 c -1.727,0 -3.125,-1.398 -3.125,-3.125 0,-1.602 1.203,-2.922 2.758,-3.105 z M 16.539,50.914 c 1.223,-1.219 3.199,-1.219 4.422,0 1.219,1.223 1.219,3.199 0,4.422 l -6.25,6.25 c -1.223,1.219 -3.199,1.219 -4.422,0 L 7.164,58.461 c -1.219,-1.223 -1.219,-3.199 0,-4.422 1.223,-1.219 3.199,-1.219 4.422,0 l 0.914,0.918 z" style="fill:currentColor;fill-opacity:1;fill-rule:nonzero;stroke:none" transform="scale(1.3333333)" /> </g>
</svg>

