<?xml version="1.0" encoding="UTF-8" standalone="no"?> <svg version="1.1" id="Iae0d922bdcfe4a08b6e6a55b5bc55a6620251106171634" width="100" height="100" viewBox="0 0 100 100" xmlns="http://www.w3.org/2000/svg" xmlns:svg="http://www.w3.org/2000/svg"> <defs id="Ice7dede6ff4840c19500fe2206d268f820251106171634" /> <g id="Ib26c410a162949aab6baef8383760bf020251106171634"> <path id="I7729f54b6c0b4f18bb751f898d33d0fd20251106171634" d="m 45.535,16.742 c 0,1.11 -0.898,2.008 -2.008,2.008 -1.109,0 -2.007,-0.898 -2.007,-2.008 V 5.355 H 18.082 c -1.109,0 -2.012,0.903 -2.012,2.012 V 34.82 H 58.93 V 7.367 c 0,-1.109 -0.903,-2.012 -2.012,-2.012 H 53.57 v 16.743 c 0,1.109 -0.898,2.007 -2.008,2.007 -1.109,0 -2.007,-0.898 -2.007,-2.007 V 5.355 h -4.02 z M 34.82,54.91 c 0,-6.57 3.157,-12.406 8.035,-16.07 H 16.07 v 4.687 c 0,4.067 3.297,7.364 7.368,7.364 l 6.027,0.004 v 10.71 c 0,4.438 3.597,8.036 8.035,8.036 1.102,0 2.152,-0.219 3.109,-0.621 C 37.031,65.391 34.82,60.41 34.82,54.91 Z m 20.09,17.41 c 9.617,0 17.41,-7.793 17.41,-17.41 0,-9.617 -7.793,-17.41 -17.41,-17.41 -9.617,0 -17.41,7.793 -17.41,17.41 0,9.617 7.793,17.41 17.41,17.41 z M 42.855,54.91 c 0,-0.738 0.602,-1.34 1.34,-1.34 h 21.43 c 0.738,0 1.34,0.602 1.34,1.34 0,0.738 -0.602,1.34 -1.34,1.34 h -21.43 c -0.738,0 -1.34,-0.602 -1.34,-1.34 z" style="fill:currentColor;fill-opacity:1;fill-rule:nonzero;stroke:none" transform="scale(1.3333333)" /> </g>
</svg>

