<?xml version="1.0" encoding="UTF-8" standalone="no"?> <svg version="1.1" id="I61722f1acb46404f825b6e862f4ad80020251106154012" width="100" height="100" viewBox="0 0 100 100" xmlns="http://www.w3.org/2000/svg" xmlns:svg="http://www.w3.org/2000/svg"> <defs id="I43427d8469fa4fa0a2839bfc9f051aa320251106154012" /> <g id="I0660d29b887840ec8cbc3a7cb85d77d120251106154012"> <path id="I7ef1241e98204e9688d77fee52f5123320251106154012" d="m 53.906,6.238 c 4.746,0 8.594,3.848 8.594,8.594 V 35.477 C 61.754,35.266 60.969,35.156 60.156,35.156 H 57.812 V 14.832 c 0,-2.156 -1.75,-3.906 -3.906,-3.906 H 14.844 c -2.156,0 -3.906,1.75 -3.906,3.906 v 39.063 c 0,2.156 1.75,3.906 3.906,3.906 h 19.531 v 4.687 H 14.844 c -4.746,0 -8.594,-3.847 -8.594,-8.593 V 14.832 c 0,-4.746 3.848,-8.594 8.594,-8.594 z M 50,21.027 v 14.129 h -0.781 c -1.407,0 -2.735,0.336 -3.907,0.934 V 21.027 c 0,-1.257 1.051,-2.277 2.344,-2.277 1.188,0 2.168,0.855 2.324,1.969 z M 36.609,36.609 36.703,46 c -1.082,1.062 -1.851,2.441 -2.168,3.984 -0.027,0.004 -0.055,0.004 -0.082,0.004 -1.16,0.012 -2.125,-0.832 -2.289,-1.941 l -0.023,-0.305 -0.11,-11.086 c -0.011,-1.254 1.004,-2.281 2.266,-2.293 1.16,-0.011 2.125,0.832 2.289,1.938 z M 21.094,25 c 1.187,0 2.168,0.875 2.324,2.016 l 0.02,0.316 V 47.664 C 23.438,48.953 22.387,50 21.094,50 19.906,50 18.926,49.121 18.77,47.98 L 18.75,47.664 V 27.332 C 18.75,26.043 19.801,25 21.094,25 Z M 43.75,46.875 h -1.562 c -2.59,0 -4.688,2.098 -4.688,4.687 v 4.688 h 7.812 v -0.781 c 0,-1.297 1.051,-2.344 2.344,-2.344 1.293,0 2.344,1.047 2.344,2.344 v 0.781 h 9.375 v -0.781 c 0,-1.297 1.051,-2.344 2.344,-2.344 1.293,0 2.343,1.047 2.343,2.344 v 0.781 h 7.813 v -4.688 c 0,-2.589 -2.098,-4.687 -4.687,-4.687 H 65.625 V 43.75 c 0,-3.023 -2.449,-5.469 -5.469,-5.469 H 49.219 c -3.02,0 -5.469,2.446 -5.469,5.469 z m 4.688,-3.125 c 0,-0.434 0.351,-0.781 0.781,-0.781 h 10.937 c 0.43,0 0.782,0.347 0.782,0.781 v 3.125 h -12.5 z M 37.5,67.188 v -6.25 h 7.812 v 2.343 c 0,1.293 1.051,2.344 2.344,2.344 1.293,0 2.344,-1.051 2.344,-2.344 v -2.343 h 9.375 v 2.343 c 0,1.293 1.051,2.344 2.344,2.344 1.293,0 2.343,-1.051 2.343,-2.344 v -2.343 h 7.813 v 6.25 c 0,2.585 -2.098,4.687 -4.687,4.687 h -25 c -2.59,0 -4.688,-2.102 -4.688,-4.687 z" style="fill:currentColor;fill-opacity:1;fill-rule:nonzero;stroke:none" transform="scale(1.3333333)" /> </g>
</svg>

