<?xml version="1.0" encoding="UTF-8" standalone="no"?> <svg version="1.1" id="I4ee6ee5e333a422c8c97f41a81c3639520251110124420" width="100" height="100" viewBox="0 0 100 100" xmlns="http://www.w3.org/2000/svg" xmlns:svg="http://www.w3.org/2000/svg"> <defs id="Ic738169f1603400ca11910717d11ab1020251110124420" /> <g id="I0e443479a7a14109b377c4b5d4409b8c20251110124420"> <path id="Ie1bf7660e82a41b9aad31958bdf30de020251110124420" d="m 15,15 c 0,-4.141 3.359,-7.5 7.5,-7.5 h 30 c 4.141,0 7.5,3.359 7.5,7.5 V 38.527 L 59.934,38.5 C 59.746,37.332 59.199,36.246 58.352,35.398 57.754,34.797 57.035,34.348 56.25,34.07 V 15 c 0,-2.07 -1.68,-3.75 -3.75,-3.75 h -30 c -2.07,0 -3.75,1.68 -3.75,3.75 v 45 c 0,2.07 1.68,3.75 3.75,3.75 h 17.914 c 0.602,0.898 1.297,1.742 2.07,2.516 0.438,0.437 0.899,0.851 1.375,1.234 H 22.5 C 18.359,67.5 15,64.141 15,60 Z m 41.457,42.492 c -0.617,0.414 -1.34,0.633 -2.082,0.633 -0.996,0 -1.949,-0.395 -2.652,-1.098 -0.703,-0.703 -1.098,-1.656 -1.098,-2.652 0,-0.742 0.219,-1.465 0.633,-2.082 0.41,-0.617 0.996,-1.098 1.683,-1.383 0.684,-0.285 1.438,-0.359 2.164,-0.215 0.731,0.145 1.399,0.504 1.922,1.028 0.524,0.523 0.883,1.191 1.028,1.922 0.144,0.726 0.07,1.48 -0.215,2.164 -0.285,0.687 -0.766,1.273 -1.383,1.683 z M 67.309,52.5 h 2.066 c 0.496,0 0.973,0.199 1.324,0.551 0.352,0.351 0.551,0.828 0.551,1.324 0,0.496 -0.199,0.973 -0.551,1.324 -0.351,0.352 -0.828,0.551 -1.324,0.551 h -2.066 c -0.407,2.789 -1.7,5.371 -3.696,7.363 -1.992,1.996 -4.574,3.289 -7.363,3.696 v 2.066 c 0,0.496 -0.199,0.973 -0.551,1.324 -0.351,0.352 -0.828,0.551 -1.324,0.551 -0.496,0 -0.973,-0.199 -1.324,-0.551 C 52.699,70.348 52.5,69.871 52.5,69.375 v -2.066 c -2.789,-0.407 -5.371,-1.7 -7.363,-3.696 -1.996,-1.992 -3.289,-4.574 -3.696,-7.363 h -2.066 c -0.496,0 -0.973,-0.199 -1.324,-0.551 -0.352,-0.351 -0.551,-0.828 -0.551,-1.324 0,-0.496 0.199,-0.973 0.551,-1.324 0.351,-0.352 0.828,-0.551 1.324,-0.551 h 2.066 c 0.407,-2.789 1.7,-5.371 3.696,-7.363 1.992,-1.996 4.574,-3.289 7.363,-3.696 v -2.066 c 0,-0.496 0.199,-0.973 0.551,-1.324 0.351,-0.352 0.828,-0.551 1.324,-0.551 0.496,0 0.973,0.199 1.324,0.551 0.352,0.351 0.551,0.828 0.551,1.324 v 2.066 c 2.789,0.407 5.371,1.7 7.363,3.696 1.996,1.992 3.289,4.574 3.696,7.363 z M 55.297,63.707 c 2.156,-0.215 4.176,-1.168 5.707,-2.703 0.871,-0.871 1.562,-1.902 2.035,-3.039 0.469,-1.141 0.711,-2.36 0.711,-3.59 0,-2.168 -0.754,-4.27 -2.129,-5.945 -1.375,-1.68 -3.293,-2.825 -5.418,-3.25 -2.129,-0.422 -4.336,-0.094 -6.25,0.929 -1.91,1.024 -3.41,2.676 -4.242,4.68 -0.828,2.004 -0.938,4.234 -0.309,6.309 0.633,2.078 1.961,3.871 3.766,5.074 1.805,1.207 3.969,1.746 6.129,1.535 z" style="fill:currentColor;fill-opacity:1;fill-rule:nonzero;stroke:none" transform="scale(1.3333333)" /> </g>
</svg>

