<?xml version="1.0" encoding="UTF-8" standalone="no"?> <svg version="1.1" id="I93847b2ed11541539c6d3a2bd36b54ba20251110130510" width="100" height="100" viewBox="0 0 100 100" xmlns="http://www.w3.org/2000/svg" xmlns:svg="http://www.w3.org/2000/svg"> <defs id="I1f363f85735d4e0caf1c39817ce46b9720251110130510" /> <g id="Icf3c8ddd7a144a2a960cb928ea37c69c20251110130510"> <path id="I2995103f8c774494b975ac7f19d48b0520251110130510" d="m 51.562,64.062 c 0,-2.585 2.102,-4.683 4.688,-4.683 2.586,0 4.688,2.098 4.688,4.683 0,2.59 -2.102,4.688 -4.688,4.688 -2.586,0 -4.688,-2.098 -4.688,-4.688 z M 53.125,51.559 V 9.363 c 0,-1.726 1.398,-3.125 3.125,-3.125 1.602,0 2.922,1.207 3.105,2.762 l 0.02,0.363 v 42.196 c 0,1.726 -1.398,3.125 -3.125,3.125 -1.602,0 -2.922,-1.204 -3.105,-2.758 z M 32.812,64.062 c 0,-2.585 2.102,-4.683 4.688,-4.683 2.586,0 4.688,2.098 4.688,4.683 0,2.59 -2.102,4.688 -4.688,4.688 -2.586,0 -4.688,-2.098 -4.688,-4.688 z M 34.375,51.559 V 9.363 c 0,-1.726 1.398,-3.125 3.125,-3.125 1.602,0 2.922,1.207 3.105,2.762 l 0.02,0.363 v 42.196 c 0,1.726 -1.398,3.125 -3.125,3.125 -1.602,0 -2.922,-1.204 -3.105,-2.758 z M 14.086,64.062 c 0,-2.585 2.098,-4.683 4.687,-4.683 2.586,0 4.684,2.098 4.684,4.683 0,2.59 -2.098,4.688 -4.684,4.688 -2.589,0 -4.687,-2.098 -4.687,-4.688 z M 15.629,51.559 V 9.363 c 0,-1.726 1.398,-3.125 3.125,-3.125 1.601,0 2.922,1.207 3.101,2.762 l 0.024,0.363 v 42.196 c 0,1.726 -1.402,3.125 -3.125,3.125 -1.606,0 -2.926,-1.204 -3.106,-2.758 z" style="fill:currentColor;fill-opacity:1;fill-rule:nonzero;stroke:none" transform="scale(1.3333333)" /> </g>
</svg>

