<?xml version="1.0" encoding="UTF-8" standalone="no"?> <svg version="1.1" id="I1f6894a1271c43a19b566f138578dcf720251106151526" width="100" height="100" viewBox="0 0 100 100" xmlns="http://www.w3.org/2000/svg" xmlns:svg="http://www.w3.org/2000/svg"> <defs id="I3108f20f137d453a98ac50d29d42b4ae20251106151526" /> <g id="I401b0b60b207418b8aad5c40d95a444820251106151526"> <path id="I7b5aae2b890247709a1c1b8ec7ee42e620251106151526" d="m 35.547,42.562 c 0,1.079 0.875,1.954 1.953,1.954 l 0.195,-0.008 0.196,0.008 h 3.906 c 1.078,0 1.953,-0.875 1.953,-1.954 0,-1.078 -0.875,-1.953 -1.953,-1.953 h -2.344 v -5.078 c 0,-1.078 -0.875,-1.953 -1.953,-1.953 -1.078,0 -1.953,0.875 -1.953,1.953 z M 42.969,6.25 H 32.031 c -3.617,0 -6.597,2.734 -6.988,6.25 h -5.512 c -3.883,0 -7.031,3.148 -7.031,7.031 v 42.188 c 0,3.883 3.148,7.031 7.031,7.031 h 35.938 c 3.883,0 7.031,-3.148 7.031,-7.031 V 19.531 C 62.5,15.648 59.352,12.5 55.469,12.5 H 49.957 C 49.566,8.984 46.586,6.25 42.969,6.25 Z m -10.938,4.688 h 10.938 c 1.293,0 2.343,1.05 2.343,2.343 0,1.293 -1.05,2.344 -2.343,2.344 H 32.031 c -1.293,0 -2.343,-1.051 -2.343,-2.344 0,-1.293 1.05,-2.343 2.343,-2.343 z M 37.5,25.781 c 8.199,0 14.844,6.649 14.844,14.844 0,8.195 -6.645,14.844 -14.844,14.844 -8.199,0 -14.844,-6.649 -14.844,-14.844 0,-8.195 6.645,-14.844 14.844,-14.844 z" style="fill:currentColor;fill-opacity:1;fill-rule:nonzero;stroke:none" transform="scale(1.3333333)" /> </g>
</svg>

