<?xml version="1.0" encoding="UTF-8" standalone="no"?> <svg version="1.1" id="Ie2b8c3002ffc45aab4fdd74cc94bdc5720251110124420" width="100" height="100" viewBox="0 0 100 100" xmlns="http://www.w3.org/2000/svg" xmlns:svg="http://www.w3.org/2000/svg"> <defs id="I39143f7511f64b5986298ef06cfe19bf20251110124420" /> <g id="Ia3d3c5a80c5f464b9eeffae600456c8120251110124420"> <path id="Iffc7b8946e8848b0b5c5819bef0c410220251110124420" d="m 21.875,50 c 0,3.453 -2.797,6.25 -6.25,6.25 -3.453,0 -6.25,-2.797 -6.25,-6.25 0,-3.453 2.797,-6.25 6.25,-6.25 3.453,0 6.25,2.797 6.25,6.25 z m 0,-25 c 0,3.453 -2.797,6.25 -6.25,6.25 -3.453,0 -6.25,-2.797 -6.25,-6.25 0,-3.453 2.797,-6.25 6.25,-6.25 3.453,0 6.25,2.797 6.25,6.25 z M 43.75,50 c 0,3.453 -2.797,6.25 -6.25,6.25 -3.453,0 -6.25,-2.797 -6.25,-6.25 0,-3.453 2.797,-6.25 6.25,-6.25 3.453,0 6.25,2.797 6.25,6.25 z m 0,-25 c 0,3.453 -2.797,6.25 -6.25,6.25 -3.453,0 -6.25,-2.797 -6.25,-6.25 0,-3.453 2.797,-6.25 6.25,-6.25 3.453,0 6.25,2.797 6.25,6.25 z m 21.875,25 c 0,3.453 -2.797,6.25 -6.25,6.25 -3.453,0 -6.25,-2.797 -6.25,-6.25 0,-3.453 2.797,-6.25 6.25,-6.25 3.453,0 6.25,2.797 6.25,6.25 z m 0,-25 c 0,3.453 -2.797,6.25 -6.25,6.25 -3.453,0 -6.25,-2.797 -6.25,-6.25 0,-3.453 2.797,-6.25 6.25,-6.25 3.453,0 6.25,2.797 6.25,6.25 z" style="fill:currentColor;fill-opacity:1;fill-rule:nonzero;stroke:none" transform="scale(1.3333333)" /> </g>
</svg>

