<?xml version="1.0" encoding="UTF-8" standalone="no"?> <svg version="1.1" id="Ifbe5a530e4c44443b91c5a496e3166d320251106161453" width="100" height="100" viewBox="0 0 100 100" xmlns="http://www.w3.org/2000/svg" xmlns:svg="http://www.w3.org/2000/svg"> <defs id="I2f99427d52a2487fbb072d3c56a3596520251106161453" /> <g id="Ibf66b713c061480aa2a4f9247a400fa620251106161453"> <path id="I5cc833990a6f4f419e7b3b2ac090f8eb20251106161453" d="m 27.434,20.723 c 2.062,-7.321 8.785,-12.688 16.761,-12.688 9.617,0 17.41,7.797 17.41,17.41 0,4.68 -1.843,8.93 -4.843,12.055 3,3.125 4.843,7.375 4.843,12.055 0,9.613 -7.793,17.41 -17.41,17.41 -7.976,0 -14.699,-5.367 -16.761,-12.688 -1.485,0.414 -3.051,0.633 -4.664,0.633 -9.618,0 -17.415,-7.793 -17.415,-17.41 0,-9.617 7.797,-17.41 17.415,-17.41 1.613,0 3.179,0.219 4.664,0.633 z M 21.43,13.395 c 1.476,0 2.675,-1.2 2.675,-2.68 0,-1.481 -1.199,-2.68 -2.675,-2.68 -1.481,0 -2.68,1.199 -2.68,2.68 0,1.48 1.199,2.68 2.68,2.68 z M 69.645,37.5 c 0,1.48 -1.2,2.68 -2.68,2.68 -1.481,0 -2.68,-1.2 -2.68,-2.68 0,-1.48 1.199,-2.68 2.68,-2.68 1.48,0 2.68,1.2 2.68,2.68 z m -45.54,26.785 c 0,1.481 -1.199,2.68 -2.675,2.68 -1.481,0 -2.68,-1.199 -2.68,-2.68 0,-1.48 1.199,-2.68 2.68,-2.68 1.476,0 2.675,1.2 2.675,2.68 z" style="fill:currentColor;fill-opacity:1;fill-rule:nonzero;stroke:none" transform="scale(1.3333333)" /> </g>
</svg>

