<?xml version="1.0" encoding="UTF-8" standalone="no"?> <svg version="1.1" id="I67ad1b600b834e529338ad097eda5f2a20251106144520" width="100" height="100" viewBox="0 0 100 100" xmlns="http://www.w3.org/2000/svg" xmlns:svg="http://www.w3.org/2000/svg"> <defs id="I515c6b3f7df04ddcae6bcdcfdd26ad9b20251106144520" /> <g id="I32287db5496c4a1d873944ecef5cb2c320251106144520"> <path id="Id061ce7564e243a2852529fc34699b6e20251106144520" d="M 37.5,9.375 C 21.969,9.375 9.375,21.969 9.375,37.5 c 0,5.047 1.328,9.777 3.652,13.867 0.266,0.469 0.332,1.028 0.184,1.543 L 9.684,65.324 22.098,61.793 c 0.515,-0.148 1.07,-0.082 1.539,0.184 4.09,2.324 8.82,3.648 13.863,3.648 15.531,0 28.125,-12.594 28.125,-28.125 C 65.625,21.969 53.031,9.375 37.5,9.375 Z M 5.355,37.5 C 5.355,19.746 19.75,5.355 37.5,5.355 c 17.754,0 32.145,14.391 32.145,32.145 0,17.754 -14.391,32.145 -32.145,32.145 -5.453,0 -10.594,-1.36 -15.098,-3.762 L 9.625,69.516 C 7.102,70.234 4.77,67.902 5.488,65.379 L 9.121,52.605 C 6.719,48.102 5.355,42.957 5.355,37.5 Z" style="fill:currentColor;fill-opacity:1;fill-rule:nonzero;stroke:none" transform="scale(1.3333333)" /> </g>
</svg>

