<?xml version="1.0" encoding="UTF-8" standalone="no"?> <svg version="1.1" id="Idbd64c620a5045bcbe41acba049a6a7520251106164749" width="100" height="100" viewBox="0 0 100 100" xmlns="http://www.w3.org/2000/svg" xmlns:svg="http://www.w3.org/2000/svg"> <defs id="I6d0a52d6ec5649438a5407c0aaedc9ca20251106164749" /> <g id="I48ac32b05a594de685902364bf2ad6d920251106164749"> <path id="Idc601b99aee5408aabdd744839854b2320251106164749" d="m 61.59,16.094 c 2.426,1.539 4.035,4.254 4.035,7.344 v 28.124 c 0,7.766 -6.297,14.063 -14.063,14.063 H 23.438 c -3.09,0 -5.805,-1.609 -7.352,-4.039 l 0.328,0.016 0.328,0.003 h 34.82 c 5.547,0 10.043,-4.496 10.043,-10.043 v -34.82 c 0,-0.219 -0.003,-0.433 -0.015,-0.648 z" style="fill:currentColor;fill-opacity:1;fill-rule:nonzero;stroke:none" transform="scale(1.3333333)" /> <path id="I2abdccfe33be416f858cb90490d3223320251106164749" d="m 16.07,38.84 c 0,-3.699 3,-6.695 6.7,-6.695 3.695,0 6.695,2.996 6.695,6.695 0,3.699 -3,6.695 -6.695,6.695 -3.7,0 -6.7,-2.996 -6.7,-6.695 z m 6.7,-2.68 c -1.481,0 -2.68,1.199 -2.68,2.68 0,1.48 1.199,2.68 2.68,2.68 1.476,0 2.675,-1.2 2.675,-2.68 0,-1.481 -1.199,-2.68 -2.675,-2.68 z" style="fill:currentColor;fill-opacity:1;fill-rule:nonzero;stroke:none" transform="scale(1.3333333)" /> <path id="Ie803951a06294155a04dc6000a6a5b0720251106164749" d="m 34.82,38.168 c 0,-1.109 0.903,-2.008 2.012,-2.008 h 13.391 c 1.109,0 2.007,0.899 2.007,2.008 0,1.109 -0.898,2.012 -2.007,2.012 H 36.832 c -1.109,0 -2.012,-0.903 -2.012,-2.012 z" style="fill:currentColor;fill-opacity:1;fill-rule:nonzero;stroke:none" transform="scale(1.3333333)" /> <path id="I0501f75156ee4acdbbecbd44b6bf772c20251106164749" d="m 16.07,24.777 c 0,-1.109 0.903,-2.007 2.012,-2.007 h 32.141 c 1.109,0 2.007,0.898 2.007,2.007 0,1.11 -0.898,2.008 -2.007,2.008 H 18.082 c -1.109,0 -2.012,-0.898 -2.012,-2.008 z" style="fill:currentColor;fill-opacity:1;fill-rule:nonzero;stroke:none" transform="scale(1.3333333)" /> <path id="Ia04088ad7fdf40598652a7ae2101e20020251106164749" d="m 50.223,8.035 c 4.808,0 8.707,3.899 8.707,8.707 v 33.481 c 0,4.808 -3.899,8.707 -8.707,8.707 H 16.742 c -4.808,0 -8.707,-3.899 -8.707,-8.707 V 16.742 c 0,-4.808 3.899,-8.707 8.707,-8.707 z m 0,46.875 c 0.547,0 1.07,-0.094 1.558,-0.265 1.324,-0.465 2.375,-1.512 2.852,-2.833 0.179,-0.496 0.277,-1.031 0.277,-1.589 V 16.742 c 0,-2.59 -2.098,-4.687 -4.687,-4.687 H 16.742 c -2.59,0 -4.687,2.097 -4.687,4.687 v 33.481 c 0,0.558 0.097,1.093 0.273,1.589 0.477,1.321 1.531,2.368 2.856,2.833 0.488,0.171 1.011,0.265 1.558,0.265 z" style="fill:currentColor;fill-opacity:1;fill-rule:nonzero;stroke:none" transform="scale(1.3333333)" /> </g>
</svg>

