<?xml version="1.0" encoding="UTF-8" standalone="no"?> <svg version="1.1" id="I788b1aff245d42bcb64c40e45601b11220251110123030" width="100" height="100" viewBox="0 0 100 100" xmlns="http://www.w3.org/2000/svg" xmlns:svg="http://www.w3.org/2000/svg"> <defs id="Ib944f9794f1847b7b2c8fae9117edc4120251110123030" /> <g id="If5febea7762844e5991edf45bcb7405620251110123030"> <path id="I7258ba8d1f394b61afe2a0cc31da9d1e20251110123030" d="m 18.082,8.035 c -4.07,0 -7.367,3.297 -7.367,7.367 v 44.196 c 0,4.07 3.297,7.367 7.367,7.367 h 8.035 c 4.067,0 7.363,-3.297 7.363,-7.367 V 15.402 c 0,-4.07 -3.296,-7.367 -7.363,-7.367 z m 30.801,0 c -4.067,0 -7.363,3.297 -7.363,7.367 v 44.196 c 0,4.07 3.296,7.367 7.363,7.367 h 8.035 c 4.07,0 7.367,-3.297 7.367,-7.367 V 15.402 c 0,-4.07 -3.297,-7.367 -7.367,-7.367 z" style="fill:currentColor;fill-opacity:1;fill-rule:nonzero;stroke:none" transform="scale(1.3333333)" /> </g>
</svg>

