<?xml version="1.0" encoding="UTF-8" standalone="no"?> <svg version="1.1" id="Iebd651285efc4e289e2106a6faa2ab5120251106125937" width="100" height="100" viewBox="0 0 100 100" xmlns="http://www.w3.org/2000/svg" xmlns:svg="http://www.w3.org/2000/svg"> <defs id="I96466eaf4a584d35a286000d7de4512720251106125937" /> <g id="I95e3ddeeed054bf09d9610de7818346a20251106125937"> <path id="Icd5dfc48c6164fb28721f42628c0869f20251106125937" d="m 62.5,65.625 c 0,1.602 -1.207,2.922 -2.762,3.105 l -0.363,0.02 H 39.062 c -5.839,0 -10.609,-4.574 -10.921,-10.336 L 28.125,57.812 V 16.922 L 17.836,27.211 c -1.129,1.125 -2.898,1.211 -4.125,0.258 L 13.414,27.211 C 12.289,26.082 12.203,24.312 13.156,23.086 L 13.414,22.789 29.039,7.164 C 29.152,7.055 29.27,6.953 29.391,6.863 l 0.347,-0.222 0.352,-0.168 0.328,-0.11 0.367,-0.078 0.184,-0.023 0.281,-0.012 0.234,0.008 0.395,0.054 0.348,0.094 0.347,0.137 0.305,0.164 0.285,0.199 0.297,0.258 15.625,15.625 c 1.219,1.223 1.219,3.199 0,4.422 -1.129,1.125 -2.898,1.211 -4.125,0.258 L 44.664,27.211 34.375,16.922 v 40.89 c 0,2.438 1.859,4.438 4.234,4.665 l 0.453,0.023 h 20.313 c 1.727,0 3.125,1.398 3.125,3.125 z" style="fill:currentColor;fill-opacity:1;fill-rule:nonzero;stroke:none" transform="scale(1.3333333)" /> </g>
</svg>

