<?xml version="1.0" encoding="UTF-8" standalone="no"?> <svg version="1.1" id="Ifb6376ae28324985895e2acb0e3ce60b20251110123031" width="100" height="100" viewBox="0 0 100 100" xmlns="http://www.w3.org/2000/svg" xmlns:svg="http://www.w3.org/2000/svg"> <defs id="I13418758240d4624954cbc1de18e9e6920251110123031" /> <g id="I3395dbcd90064b7f89a392481ce7fd1d20251110123031"> <path id="I33163c07d1214d9d90f3711ff7d6ef8320251110123031" d="M 36.508,68.742 C 33.703,64.09 34.309,57.957 38.32,53.945 L 48.52,43.746 H 19.539 c -3.879,0 -7.027,3.149 -7.027,7.027 v 2.875 c 0,1.79 0.558,3.532 1.593,4.989 4.672,6.554 12.215,9.902 22.403,10.105 z M 53.125,21.887 c 0,-8.629 -6.996,-15.625 -15.625,-15.625 -8.629,0 -15.625,6.996 -15.625,15.625 0,8.629 6.996,15.625 15.625,15.625 8.629,0 15.625,-6.996 15.625,-15.625 z m 3.031,18.644 c 3.504,-3.508 9.184,-3.508 12.688,0 3.508,3.504 3.508,9.184 0,12.688 L 53.219,68.844 c -3.504,3.504 -9.184,3.504 -12.688,0 -3.504,-3.504 -3.504,-9.184 0,-12.688 z m 9.375,3.313 c -1.672,-1.672 -4.386,-1.672 -6.062,0 L 53.316,50 l 6.059,6.059 6.156,-6.153 c 1.672,-1.676 1.672,-4.39 0,-6.062 z m -12.312,18.75 c 0.918,-0.914 0.918,-2.399 0,-3.317 -0.914,-0.914 -2.399,-0.914 -3.313,0 l -3.125,3.125 c -0.914,0.918 -0.914,2.403 0,3.317 0.914,0.914 2.399,0.914 3.313,0 z" style="fill:currentColor;fill-opacity:1;fill-rule:nonzero;stroke:none" transform="scale(1.3333333)" /> </g>
</svg>

