<?xml version="1.0" encoding="UTF-8" standalone="no"?> <svg version="1.1" id="Ia36cb295a1cc42428ff35558507805b220251110123032" width="100" height="100" viewBox="0 0 100 100" xmlns="http://www.w3.org/2000/svg" xmlns:svg="http://www.w3.org/2000/svg"> <defs id="Ic2e8bb40d1c84c86a30460f31e3a879020251110123032" /> <g id="I36c8191b26f54e24a37ed24676cef4da20251110123032"> <path id="I0102f064c0fc47528cf4f6cd75d9ea6d20251110123032" d="M 10.258,30.48 C 13.375,18.344 24.391,9.375 37.5,9.375 c 10.672,0 19.957,5.945 24.723,14.707 -0.832,0.008 -1.684,0.055 -2.551,0.137 -6.422,0.601 -14.59,3.16 -24.719,8.429 -9.394,4.887 -16.16,6.821 -20.691,7.243 -2.293,0.214 -3.821,0.035 -4.805,-0.223 C 9.402,38.953 9.375,38.23 9.375,37.5 c 0,-0.754 0.031,-1.5 0.086,-2.238 -2.16,0.328 -3.496,1.367 -4.117,2.371 -0.727,1.179 -0.641,2.476 0.359,3.508 0.652,0.668 1.828,1.359 3.731,1.718 1.332,0.25 3.019,0.34 5.128,0.141 0.321,-0.027 0.653,-0.062 0.989,-0.109 5,-0.645 11.851,-2.793 20.844,-7.469 9.281,-4.828 16.675,-7.223 22.41,-7.965 0.398,-0.051 0.785,-0.094 1.168,-0.129 2.371,-0.223 4.496,-0.148 6.351,0.188 0.067,0.011 0.137,0.027 0.203,0.039 2.61,0.507 4.672,1.55 6.121,3.039 2.606,2.679 2.766,6.363 0.989,9.238 -1.66,2.691 -4.856,4.504 -8.895,4.684 -3.117,12.14 -14.133,21.109 -27.242,21.109 -10.672,0 -19.957,-5.945 -24.723,-14.707 0.817,-0.012 1.653,-0.055 2.504,-0.137 6.422,-0.601 14.59,-3.16 24.719,-8.429 9.395,-4.887 16.16,-6.821 20.691,-7.243 2.329,-0.218 3.871,-0.031 4.852,0.235 0.055,0.711 0.082,1.429 0.082,2.156 0,0.754 -0.031,1.5 -0.086,2.234 2.152,-0.328 3.484,-1.363 4.106,-2.367 0.726,-1.179 0.64,-2.476 -0.364,-3.508 -0.648,-0.668 -1.828,-1.359 -3.73,-1.718 -0.149,-0.028 -0.297,-0.055 -0.449,-0.079 -0.754,-0.117 -1.61,-0.175 -2.575,-0.175 -0.652,0.004 -1.355,0.039 -2.109,0.109 -5.074,0.477 -12.238,2.586 -21.844,7.582 -9.918,5.16 -17.683,7.543 -23.566,8.094 -0.879,0.082 -1.727,0.121 -2.539,0.125 -0.395,0 -0.781,-0.008 -1.157,-0.024 C 10.332,47.73 9.406,47.625 8.543,47.461 5.891,46.961 3.801,45.91 2.336,44.406 -0.27,41.727 -0.426,38.043 1.352,35.168 3.016,32.477 6.215,30.66 10.258,30.48 Z" style="fill:currentColor;fill-opacity:1;fill-rule:nonzero;stroke:none" transform="scale(1.3333333)" /> </g>
</svg>

