<?xml version="1.0" encoding="UTF-8" standalone="no"?> <svg version="1.1" id="Iba8174d99bb941d5b88e41da4793449c20251106155156" width="100" height="100" viewBox="0 0 100 100" xmlns="http://www.w3.org/2000/svg" xmlns:svg="http://www.w3.org/2000/svg"> <defs id="I237c7ffc50534dfdacccacb7a6e9151020251106155156" /> <g id="I9a1110a18f484e9996b9c835f787a80b20251106155156"> <path id="I4d0424e4ba2e4ef4ad9adbbb5d1cb7df20251106155156" d="m 18.082,5.355 c -4.07,0 -7.367,3.301 -7.367,7.368 v 15.746 c -1.637,1.351 -2.68,3.394 -2.68,5.683 v 25.446 c 0,5.547 4.496,10.043 10.047,10.043 h 38.836 c 5.551,0 10.047,-4.496 10.047,-10.043 v -6.696 c 0,-3.371 -2.266,-6.214 -5.36,-7.09 V 19.418 c 0,-2.859 -1.632,-5.344 -4.015,-6.563 v 32.68 H 54.91 V 12.723 c 0,-4.067 -3.297,-7.368 -7.367,-7.368 z m 32.813,40.18 h -1.801 c -0.887,0 -1.739,-0.351 -2.367,-0.98 L 31.113,28.941 C 29.734,27.562 27.859,26.785 25.906,26.785 H 15.402 c -0.226,0 -0.449,0.012 -0.672,0.031 V 12.723 c 0,-1.848 1.5,-3.348 3.352,-3.348 h 29.461 c 1.852,0 3.352,1.5 3.352,3.348 z M 12.055,34.152 c 0,-1.851 1.496,-3.347 3.347,-3.347 h 10.504 c 0.887,0 1.739,0.351 2.367,0.98 l 15.614,15.61 c 1.379,1.382 3.254,2.16 5.207,2.16 h 10.504 c 1.851,0 3.347,1.496 3.347,3.347 v 6.696 c 0,3.328 -2.699,6.027 -6.027,6.027 H 18.082 c -3.332,0 -6.027,-2.699 -6.027,-6.027 z" style="fill:currentColor;fill-opacity:1;fill-rule:nonzero;stroke:none" transform="scale(1.3333333)" /> </g>
</svg>

