<?xml version="1.0" encoding="UTF-8" standalone="no"?> <svg version="1.1" id="I56a4e750068a4436836ce5a9c703e58720251106171633" width="100" height="100" viewBox="0 0 100 100" xmlns="http://www.w3.org/2000/svg" xmlns:svg="http://www.w3.org/2000/svg"> <defs id="I32e01d55538042ee8339598c9784b0b520251106171633" /> <g id="Ic1581faf838842e593abbc9a5e6913c120251106171633"> <path id="Ic050472a735045e7b9143ee5d01df53f20251106171633" d="m 32.5,10 c 2.824,-2.605 7.176,-2.605 10,0 l 21.234,19.621 c 2.059,1.899 3.231,4.574 3.231,7.379 v 22.598 c 0,4.066 -3.297,7.367 -7.367,7.367 H 42.305 c 0.945,-1.133 2.023,-2.512 3.047,-4.02 h 14.246 c 1.851,0 3.347,-1.5 3.347,-3.347 V 37 c 0,-1.684 -0.703,-3.289 -1.937,-4.43 l -7.153,-6.605 c -5.371,-0.754 -9.71,1.078 -14.351,3.039 -0.789,0.332 -1.586,0.668 -2.399,0.996 -2.82,1.137 -5.843,2.16 -9.121,2.156 -3.183,0 -6.437,-0.961 -9.894,-3.371 l -4.098,3.785 c -1.234,1.141 -1.937,2.746 -1.937,4.43 v 22.598 c 0,1.847 1.496,3.347 3.347,3.347 h 14.246 c 1.024,1.508 2.102,2.887 3.047,4.02 H 15.402 c -4.07,0 -7.367,-3.301 -7.367,-7.367 L 8.035,37 c 0,-2.805 1.172,-5.48 3.231,-7.379 z m 7.273,2.953 c -1.285,-1.183 -3.261,-1.183 -4.546,0 L 21.125,25.98 c 2.543,1.61 4.781,2.157 6.863,2.161 2.465,0 4.895,-0.766 7.614,-1.868 0.71,-0.285 1.441,-0.597 2.195,-0.918 3.391,-1.449 7.223,-3.082 11.629,-3.484 z m 7.102,39.199 c 0,4.766 -4.832,10.903 -7.559,13.985 -0.976,1.101 -2.656,1.101 -3.632,0 -2.727,-3.082 -7.559,-9.219 -7.559,-13.985 0,-5.132 4.199,-9.297 9.375,-9.297 5.176,0 9.375,4.165 9.375,9.297 z m -4.687,0 c 0,-2.566 -2.098,-4.648 -4.688,-4.648 -2.59,0 -4.688,2.082 -4.688,4.648 0,2.567 2.098,4.649 4.688,4.649 2.59,0 4.688,-2.082 4.688,-4.649 z" style="fill:currentColor;fill-opacity:1;fill-rule:nonzero;stroke:none" transform="scale(1.3333333)" /> </g>
</svg>

