<?xml version="1.0" encoding="UTF-8" standalone="no"?> <svg version="1.1" id="I2e962ed78481400f9b2242fc909d86b020251106132945" width="100" height="100" viewBox="0 0 100 100" xmlns="http://www.w3.org/2000/svg" xmlns:svg="http://www.w3.org/2000/svg"> <defs id="I18f87f7e9c90493cb035b2182fbe476020251106132945" /> <g id="I23d7267615bc453dab5ab9a6025112ed20251106132945"> <path id="I9fc9749e666e4e418a695efea077216220251106132945" d="m 51.434,10.289 c -1.223,-1.219 -3.2,-1.219 -4.422,0 -1.219,1.223 -1.219,3.199 0,4.422 l 7.164,7.164 H 32.812 c -7.765,0 -14.062,6.297 -14.062,14.063 V 62.5 c 0,1.727 1.398,3.125 3.125,3.125 C 23.602,65.625 25,64.227 25,62.5 V 35.938 c 0,-4.317 3.496,-7.813 7.812,-7.813 h 22.922 l -8.726,8.723 c -1.219,1.222 -1.219,3.199 0,4.422 1.222,1.218 3.199,1.218 4.422,0 L 64.711,27.992 c 0.586,-0.59 0.914,-1.383 0.914,-2.211 0,-0.828 -0.328,-1.625 -0.914,-2.211 z" style="fill:currentColor;fill-opacity:1;fill-rule:nonzero;stroke:none" transform="scale(1.3333333)" /> </g>
</svg>

