<?xml version="1.0" encoding="UTF-8" standalone="no"?> <svg version="1.1" id="I36a5b20df649458e84d29b744fef0c0620251106152728" width="100" height="100" viewBox="0 0 100 100" xmlns="http://www.w3.org/2000/svg" xmlns:svg="http://www.w3.org/2000/svg"> <defs id="I4283a0479ad34173a0c399a2f720a6fa20251106152728" /> <g id="I729e47ba8e544790bcb882e4adb2670120251106152728"> <path id="I3c49f4d6c938488295b4dd045d0957e520251106152728" d="m 43.75,18.75 c 0,-6.902 5.594,-12.5 12.5,-12.5 6.891,0 12.477,5.574 12.5,12.457 v 2.387 c 0,1.297 -1.047,2.344 -2.344,2.344 -1.293,0 -2.344,-1.047 -2.344,-2.344 V 12.5 c 0,-0.859 -0.699,-1.562 -1.562,-1.562 -0.859,0 -1.562,0.699 -1.562,1.562 -1.305,-0.98 -2.926,-1.562 -4.688,-1.562 -4.312,0 -7.812,3.5 -7.812,7.812 0,4.316 3.5,7.812 7.812,7.812 2.215,0 4.211,-0.917 5.633,-2.394 0.984,1.445 2.644,2.394 4.523,2.394 3.024,0 5.469,-2.445 5.469,-5.468 V 18.75 c 0,-8.629 -6.996,-15.625 -15.625,-15.625 -8.629,0 -15.625,6.996 -15.625,15.625 0,8.633 6.996,15.629 15.625,15.629 3.203,0 6.188,-0.938 8.684,-2.609 0.714,-0.481 0.906,-1.454 0.425,-2.168 -0.48,-0.719 -1.449,-0.911 -2.168,-0.43 -1.98,1.328 -4.359,2.082 -6.941,2.082 -6.906,0 -12.5,-5.598 -12.5,-12.504 z m 12.5,4.688 c -2.586,0 -4.688,-2.098 -4.688,-4.688 0,-2.586 2.102,-4.688 4.688,-4.688 2.59,0 4.688,2.102 4.688,4.688 0,2.59 -2.098,4.688 -4.688,4.688 z M 16.406,9.375 h 23.602 c -1.594,2.758 -2.508,5.961 -2.508,9.375 0,10.355 8.395,18.75 18.75,18.75 4.801,0 9.184,-1.805 12.5,-4.773 v 13.367 c 0,5.609 -4.547,10.156 -10.156,10.156 H 40.625 L 25,67.969 c -2.574,1.933 -6.25,0.093 -6.25,-3.125 V 56.25 H 16.406 C 10.797,56.25 6.25,51.703 6.25,46.094 V 19.531 c 0,-5.609 4.547,-10.156 10.156,-10.156 z" style="fill:currentColor;fill-opacity:1;fill-rule:nonzero;stroke:none" transform="scale(1.3333333)" /> </g>
</svg>

