<?xml version="1.0" encoding="UTF-8" standalone="no"?> <svg version="1.1" id="Ia8af5aa5ae1e4b95a6145d3bbacb5e1820251110130509" width="100" height="100" viewBox="0 0 100 100" xmlns="http://www.w3.org/2000/svg" xmlns:svg="http://www.w3.org/2000/svg"> <defs id="I3aa5cfd757254896a9eecfcba8b8b88920251110130509" /> <g id="I648e5d10fdba48c09ec7be01ea56656f20251110130509"> <path id="Iea973b8188eb481cbce25bd9fd2303f420251110130509" d="M 68.75,13.281 C 68.75,9.398 65.602,6.25 61.719,6.25 H 44.641 c -2.7,0 -5.282,1.07 -7.188,2.98 L 10.891,35.824 c -3.961,3.969 -3.957,10.399 0.011,14.36 l 13.946,13.921 c 3.972,3.961 10.394,3.957 14.363,-0.003 l 0.293,-0.293 c -3.168,-3.118 -5.129,-7.454 -5.129,-12.247 0,-9.492 7.695,-17.187 17.187,-17.187 4.793,0 9.126,1.961 12.243,5.125 l 1.972,-1.969 c 1.903,-1.906 2.973,-4.488 2.973,-7.179 z m -20.312,8.602 c 0,-2.59 2.097,-4.688 4.687,-4.688 2.59,0 4.687,2.098 4.687,4.688 0,2.586 -2.097,4.687 -4.687,4.687 -2.59,0 -4.687,-2.101 -4.687,-4.687 z m 14.585,37.828 c 1.641,-2.301 2.602,-5.109 2.602,-8.149 0,-7.765 -6.297,-14.062 -14.063,-14.062 -7.765,0 -14.062,6.297 -14.062,14.062 0,7.766 6.297,14.063 14.062,14.063 3.04,0 5.848,-0.961 8.149,-2.602 l 8.164,8.165 c 0.914,0.917 2.398,0.917 3.313,0 0.917,-0.915 0.917,-2.399 0,-3.313 z m -2.085,-8.149 c 0,5.18 -4.196,9.376 -9.376,9.376 -5.179,0 -9.374,-4.196 -9.374,-9.376 0,-5.179 4.195,-9.374 9.374,-9.374 5.18,0 9.376,4.195 9.376,9.374 z" style="fill:currentColor;fill-opacity:1;fill-rule:nonzero;stroke:none" transform="scale(1.3333333)" /> </g>
</svg>

