<?xml version="1.0" encoding="UTF-8" standalone="no"?> <svg version="1.1" id="I6c1ae810435a4dd8867e97a9d45c4a3d20251110123029" width="100" height="100" viewBox="0 0 100 100" xmlns="http://www.w3.org/2000/svg" xmlns:svg="http://www.w3.org/2000/svg"> <defs id="Icfd1a6048a814169a699222d6b0c72ce20251110123029" /> <g id="Ib2f407cbdbea404eb6d7a14f2f54e74620251110123029"> <path id="Ia6435d7591bb402e9c40e2705773da8d20251110123029" d="m 11.25,7.5 c -4.141,0 -7.5,3.359 -7.5,7.5 v 15 c 0,4.141 3.359,7.5 7.5,7.5 h 30 c 4.141,0 7.5,-3.359 7.5,-7.5 V 15 c 0,-4.141 -3.359,-7.5 -7.5,-7.5 z M 7.5,15 c 0,-2.07 1.68,-3.75 3.75,-3.75 h 30 c 2.07,0 3.75,1.68 3.75,3.75 v 15 c 0,2.07 -1.68,3.75 -3.75,3.75 h -30 C 9.18,33.75 7.5,32.07 7.5,30 Z m 3.75,37.5 V 41.25 H 15 V 52.5 c 0,2.07 1.68,3.75 3.75,3.75 h 45 c 2.07,0 3.75,-1.68 3.75,-3.75 v -30 c 0,-2.07 -1.68,-3.75 -3.75,-3.75 H 52.5 V 15 h 11.25 c 4.141,0 7.5,3.359 7.5,7.5 v 30 c 0,4.141 -3.359,7.5 -7.5,7.5 h -45 c -4.141,0 -7.5,-3.359 -7.5,-7.5 z" style="fill:currentColor;fill-opacity:1;fill-rule:nonzero;stroke:none" transform="scale(1.3333333)" /> </g>
</svg>

