<?xml version="1.0" encoding="UTF-8" standalone="no"?> <svg version="1.1" id="Ibcc2035b454d438fb6ff0c353370af2020251110123031" width="100" height="100" viewBox="0 0 100 100" xmlns="http://www.w3.org/2000/svg" xmlns:svg="http://www.w3.org/2000/svg"> <defs id="I20c8e4b406f24544b8b7966f50935e5020251110123031" /> <g id="I3763ef8b4e18461d924ca1e2c4d24ea520251110123031"> <path id="I4a1ffa4902044da2a41f54506f5f547820251110123031" d="m 66.07,37.055 c -0.785,0.785 -2.062,0.789 -2.781,-0.059 -3.555,-4.199 -5.699,-9.633 -5.699,-15.57 0,-5.934 2.144,-11.367 5.699,-15.567 0.719,-0.847 1.996,-0.843 2.781,-0.058 0.785,0.785 0.778,2.051 0.075,2.91 -2.836,3.465 -4.54,7.891 -4.54,12.715 0,4.828 1.704,9.254 4.54,12.719 0.703,0.859 0.71,2.125 -0.075,2.91 z m 5.684,-25.571 c -0.785,-0.785 -2.07,-0.793 -2.75,0.086 -2.117,2.719 -3.379,6.141 -3.379,9.856 0,3.719 1.262,7.14 3.379,9.859 0.68,0.879 1.965,0.871 2.75,0.086 0.785,-0.785 0.766,-2.047 0.121,-2.953 -1.406,-1.969 -2.23,-4.383 -2.23,-6.992 0,-2.606 0.824,-5.02 2.23,-6.988 0.645,-0.907 0.664,-2.168 -0.121,-2.954 z M 56.25,42.855 c 4.438,0 8.035,3.598 8.035,8.04 v 1.914 c 0,9.582 -11.277,16.836 -26.785,16.836 -15.508,0 -26.785,-6.875 -26.785,-16.836 v -1.914 c 0,-4.442 3.597,-8.04 8.035,-8.04 z M 37.5,5.355 c 8.875,0 16.07,7.196 16.07,16.075 0,8.875 -7.195,16.07 -16.07,16.07 -8.875,0 -16.07,-7.195 -16.07,-16.07 0,-8.879 7.195,-16.075 16.07,-16.075 z m -27.223,31.7 C 9.492,36.27 9.5,35.004 10.203,34.145 c 2.836,-3.465 4.539,-7.891 4.539,-12.719 0,-4.824 -1.703,-9.25 -4.539,-12.715 C 9.5,7.852 9.492,6.586 10.277,5.801 c 0.785,-0.785 2.063,-0.789 2.782,0.058 3.554,4.2 5.699,9.629 5.699,15.559 v 0.016 c 0,5.933 -2.145,11.363 -5.699,15.562 -0.719,0.848 -1.997,0.844 -2.782,0.059 z m -2.933,-5.77 c -0.68,0.879 -1.965,0.871 -2.75,0.086 -0.782,-0.785 -0.766,-2.047 -0.121,-2.953 1.406,-1.969 2.234,-4.383 2.234,-6.992 0,-2.606 -0.828,-5.02 -2.234,-6.988 -0.645,-0.907 -0.661,-2.168 0.121,-2.954 0.785,-0.785 2.07,-0.793 2.75,0.086 2.117,2.719 3.379,6.141 3.379,9.856 0,3.719 -1.262,7.14 -3.379,9.859 z" style="fill:currentColor;fill-opacity:1;fill-rule:nonzero;stroke:none" transform="scale(1.3333333)" /> </g>
</svg>

