<?xml version="1.0" encoding="UTF-8" standalone="no"?> <svg version="1.1" id="I6069c1ecf03040e9a07036105a79d4da20251106152729" width="100" height="100" viewBox="0 0 100 100" xmlns="http://www.w3.org/2000/svg" xmlns:svg="http://www.w3.org/2000/svg"> <defs id="I299907365b0b413f937d990178832d5120251106152729" /> <g id="Ieec70b6924e544b5a2b9d6f6d8a31d2e20251106152729"> <path id="Ie1adc1c610c3498d9511403ce4a78f4f20251106152729" d="m 8.035,18.082 c 0,-5.551 4.496,-10.047 10.047,-10.047 h 38.836 c 5.551,0 10.047,4.496 10.047,10.047 v 38.836 c 0,5.551 -4.496,10.047 -10.047,10.047 H 44.867 c -1.109,0 -2.012,-0.899 -2.012,-2.008 0,-1.109 0.903,-2.012 2.012,-2.012 h 12.051 c 3.328,0 6.027,-2.699 6.027,-6.027 V 37.5 H 44.867 C 40.797,37.5 37.5,34.203 37.5,30.133 V 12.055 H 18.082 c -3.332,0 -6.027,2.695 -6.027,6.027 v 12.051 c 0,1.109 -0.903,2.012 -2.012,2.012 -1.109,0 -2.008,-0.903 -2.008,-2.012 z m 2.008,26.113 c -1.109,0 -2.008,-0.898 -2.008,-2.007 0,-1.11 0.899,-2.008 2.008,-2.008 h 22.769 c 1.11,0 2.008,0.898 2.008,2.008 v 22.769 c 0,1.109 -0.898,2.008 -2.008,2.008 -1.109,0 -2.007,-0.899 -2.007,-2.008 V 47.039 l -19.34,19.336 c -0.785,0.785 -2.055,0.785 -2.84,0 -0.785,-0.785 -0.785,-2.055 0,-2.84 l 19.336,-19.34 z" style="fill:currentColor;fill-opacity:1;fill-rule:nonzero;stroke:none" transform="scale(1.3333333)" /> </g>
</svg>

