<?xml version="1.0" encoding="UTF-8" standalone="no"?> <svg version="1.1" id="Ib913f247cf0345b3ba59a2e40bcc95e320251110124420" width="100" height="100" viewBox="0 0 100 100" xmlns="http://www.w3.org/2000/svg" xmlns:svg="http://www.w3.org/2000/svg"> <defs id="Iaa328c2052814fc997913b86b547d99620251110124420" /> <g id="I27e85c8fb35842e2a678194f1c1ec25e20251110124420"> <path id="If665a0c1e0674760a8ce79d0a8391ad320251110124420" d="M 40.625,65.625 V 9.375 c 0,-1.727 1.398,-3.125 3.125,-3.125 1.602,0 2.922,1.207 3.105,2.762 l 0.02,0.363 v 56.25 c 0,1.727 -1.398,3.125 -3.125,3.125 -1.602,0 -2.922,-1.207 -3.105,-2.762 z m -12.5,0 V 9.375 c 0,-1.727 1.398,-3.125 3.125,-3.125 1.602,0 2.922,1.207 3.105,2.762 l 0.02,0.363 v 56.25 c 0,1.727 -1.398,3.125 -3.125,3.125 -1.602,0 -2.922,-1.207 -3.105,-2.762 z" style="fill:currentColor;fill-opacity:1;fill-rule:nonzero;stroke:none" transform="scale(1.3333333)" /> </g>
</svg>

