<?xml version="1.0" encoding="UTF-8" standalone="no"?> <svg version="1.1" id="I1642e4b2b6074fdca2c038e01c94bb7620251106163937" width="100" height="100" viewBox="0 0 100 100" xmlns="http://www.w3.org/2000/svg" xmlns:svg="http://www.w3.org/2000/svg"> <defs id="Ic225f67ff53f4df49fdd12b4e4a8e04f20251106163937" /> <g id="I05a7963df83d4282861b51403389a22c20251106163937"> <path id="Iae39d115afb44b5285c6f9c0865248d220251106163937" d="m 6.25,26.562 c 0,9.54 6.578,17.547 15.445,19.727 0.11,-5.664 2.098,-10.871 5.367,-15.019 -0.167,-0.012 -0.335,-0.02 -0.507,-0.02 -0.899,0 -1.789,0.195 -2.61,0.574 -0.82,0.379 -1.547,0.93 -2.133,1.614 -0.839,0.984 -2.32,1.101 -3.304,0.257 -0.985,-0.84 -1.098,-2.32 -0.258,-3.304 1.023,-1.2 2.297,-2.161 3.73,-2.825 1.434,-0.66 2.993,-1.004 4.571,-1.004 1.469,0 2.918,0.293 4.269,0.864 4.219,-3.485 9.598,-5.617 15.469,-5.731 C 44.109,12.828 36.105,6.25 26.562,6.25 15.344,6.25 6.25,15.344 6.25,26.562 Z m 17.188,-6.25 c 0,1.727 -1.399,3.126 -3.126,3.126 -1.726,0 -3.124,-1.399 -3.124,-3.126 0,-1.726 1.398,-3.124 3.124,-3.124 1.727,0 3.126,1.398 3.126,3.124 z m 12.5,0 c 0,1.727 -1.399,3.126 -3.126,3.126 -1.726,0 -3.124,-1.399 -3.124,-3.126 0,-1.726 1.398,-3.124 3.124,-3.124 1.727,0 3.126,1.398 3.126,3.124 z M 68.75,46.875 C 68.75,58.957 58.957,68.75 46.875,68.75 34.793,68.75 25,58.957 25,46.875 25,34.793 34.793,25 46.875,25 58.957,25 68.75,34.793 68.75,46.875 Z M 42.188,42.188 c 0,-1.727 -1.399,-3.126 -3.126,-3.126 -1.726,0 -3.124,1.399 -3.124,3.126 0,1.726 1.398,3.124 3.124,3.124 1.727,0 3.126,-1.398 3.126,-3.124 z M 56.16,52.246 c -0.82,-0.703 -2.051,-0.605 -2.754,0.215 -0.804,0.941 -1.804,1.699 -2.933,2.219 -1.125,0.519 -2.348,0.789 -3.59,0.789 -1.238,0 -2.465,-0.266 -3.594,-0.781 -1.125,-0.52 -2.129,-1.274 -2.934,-2.215 -0.703,-0.821 -1.937,-0.914 -2.753,-0.211 -0.821,0.703 -0.914,1.937 -0.211,2.754 1.175,1.371 2.632,2.468 4.269,3.218 1.641,0.754 3.422,1.141 5.227,1.141 1.804,0 3.586,-0.395 5.222,-1.148 1.641,-0.758 3.094,-1.856 4.266,-3.227 0.703,-0.82 0.605,-2.055 -0.215,-2.754 z m -1.472,-6.934 c 1.726,0 3.124,-1.398 3.124,-3.124 0,-1.727 -1.398,-3.126 -3.124,-3.126 -1.727,0 -3.126,1.399 -3.126,3.126 0,1.726 1.399,3.124 3.126,3.124 z" style="fill:currentColor;fill-opacity:1;fill-rule:nonzero;stroke:none" transform="scale(1.3333333)" /> </g>
</svg>

