<?xml version="1.0" encoding="UTF-8" standalone="no"?> <svg version="1.1" id="Ib77025f2d80246eab622f6fcd17390aa20251110123031" width="100" height="100" viewBox="0 0 100 100" xmlns="http://www.w3.org/2000/svg" xmlns:svg="http://www.w3.org/2000/svg"> <defs id="I868375fb69a047cba2cc45be924989fd20251110123031" /> <g id="I12260b0b794f4c109b72024aabea781f20251110123031"> <path id="Ibe2fdd48b5324885a07664fc786f124720251110123031" d="m 49.219,43.742 c 3.883,0 7.031,3.145 7.031,7.028 v 2.871 c 0,0.89 -0.141,1.773 -0.41,2.613 h -6.356 c 0.95,-2.027 0.586,-4.512 -1.086,-6.184 -2.132,-2.136 -5.597,-2.14 -7.734,-0.004 l -7.812,7.809 c -1.028,1.023 -1.602,2.418 -1.602,3.867 0,1.453 0.578,2.844 1.605,3.871 l 2.918,2.914 c -1.449,0.145 -2.961,0.219 -4.535,0.219 C 20.547,68.746 12.664,65.395 7.844,58.633 6.809,57.176 6.25,55.434 6.25,53.645 V 50.77 c 0,-3.883 3.145,-7.028 7.027,-7.028 z M 31.238,6.258 c 8.629,0 15.625,6.992 15.625,15.625 0,8.629 -6.996,15.625 -15.625,15.625 -8.629,0 -15.625,-6.996 -15.625,-15.625 0,-8.633 6.996,-15.625 15.625,-15.625 z m 14.95,49.316 c 0.914,-0.918 0.914,-2.398 0,-3.316 -0.915,-0.914 -2.399,-0.914 -3.317,0 l -7.812,7.816 c -0.438,0.442 -0.684,1.039 -0.684,1.66 0,0.621 0.246,1.215 0.687,1.657 l 7.813,7.808 c 0.914,0.914 2.398,0.914 3.313,0 0.914,-0.918 0.914,-2.398 0,-3.316 l -3.813,-3.809 h 21.5 l -3.813,3.809 c -0.917,0.914 -0.917,2.398 -0.003,3.316 0.918,0.914 2.402,0.914 3.316,0 l 7.813,-7.808 c 0.437,-0.438 0.687,-1.036 0.687,-1.657 0,-0.621 -0.246,-1.218 -0.687,-1.656 l -7.813,-7.816 c -0.914,-0.918 -2.398,-0.918 -3.313,-0.004 -0.917,0.914 -0.917,2.398 -0.003,3.316 l 3.812,3.813 H 42.379 Z" style="fill:currentColor;fill-opacity:1;fill-rule:nonzero;stroke:none" transform="scale(1.3333333)" /> </g>
</svg>

