<?xml version="1.0" encoding="UTF-8" standalone="no"?> <svg version="1.1" id="I023ab40495a84d669921e12366aec7fc20251106164749" width="100" height="100" viewBox="0 0 100 100" xmlns="http://www.w3.org/2000/svg" xmlns:svg="http://www.w3.org/2000/svg"> <defs id="Ie8529893101a482cb685abb6698926a620251106164749" /> <g id="I8574d8eb59dc413b8ea486011f8b183f20251106164749"> <path id="I06f741e40db84bc0b302193c3e00d17020251106164749" d="m 15.402,8.035 c -4.07,0 -7.367,3.297 -7.367,7.367 v 17.41 c 0,4.067 3.297,7.368 7.367,7.368 h 12.055 c 4.066,0 7.363,-3.301 7.363,-7.368 v -17.41 c 0,-4.07 -3.297,-7.367 -7.363,-7.367 z M 8.035,55.582 c 0,-4.07 3.297,-7.367 7.367,-7.367 h 12.055 c 4.066,0 7.363,3.297 7.363,7.367 v 4.016 c 0,4.07 -3.297,7.367 -7.363,7.367 H 15.402 c -4.07,0 -7.367,-3.297 -7.367,-7.367 z M 40.18,15.402 c 0,-4.07 3.297,-7.367 7.363,-7.367 h 12.055 c 4.07,0 7.367,3.297 7.367,7.367 v 4.016 c 0,4.07 -3.297,7.367 -7.367,7.367 H 47.543 c -4.066,0 -7.363,-3.297 -7.363,-7.367 z m 0,26.786 c 0,-4.067 3.297,-7.368 7.363,-7.368 h 12.055 c 4.07,0 7.367,3.301 7.367,7.368 v 17.41 c 0,4.07 -3.297,7.367 -7.367,7.367 H 47.543 c -4.066,0 -7.363,-3.297 -7.363,-7.367 z" style="fill:currentColor;fill-opacity:1;fill-rule:nonzero;stroke:none" transform="scale(1.3333333)" /> </g>
</svg>

