<?xml version="1.0" encoding="UTF-8" standalone="no"?> <svg version="1.1" id="Ie03248f8aeeb43b8a1cf4bec7817aff620251106155156" width="100" height="100" viewBox="0 0 100 100" xmlns="http://www.w3.org/2000/svg" xmlns:svg="http://www.w3.org/2000/svg"> <defs id="Ia5708526f8c149b3a6c750de4bb3bb4c20251106155156" /> <g id="I15b45215e12f4af99ab0db558fc4bb9a20251106155156"> <path id="Iccfd488bd2c4434787fbfc899e01763220251106155156" d="m 55.469,6.25 c 3.722,0 6.765,2.891 7.015,6.551 l 0.016,0.48 v 22.653 c -2.406,-1.004 -5.043,-1.559 -7.812,-1.559 -11.219,0 -20.313,9.094 -20.313,20.313 0,5.457 2.152,10.414 5.656,14.062 h -20.5 c -3.722,0 -6.769,-2.891 -7.015,-6.551 L 12.5,61.719 V 13.281 c 0,-3.722 2.891,-6.769 6.551,-7.015 l 0.48,-0.016 z m -28.891,9.391 c -2.59,0 -4.687,2.097 -4.687,4.687 0,2.59 2.097,4.688 4.687,4.688 h 21.875 c 2.59,0 4.688,-2.098 4.688,-4.688 0,-2.59 -2.098,-4.687 -4.688,-4.687 z m 45.297,39.047 c 0,9.492 -7.695,17.187 -17.187,17.187 C 45.195,71.875 37.5,64.18 37.5,54.688 37.5,45.195 45.195,37.5 54.688,37.5 c 9.492,0 17.187,7.695 17.187,17.188 z M 56.25,45.312 c 0,-0.863 -0.699,-1.562 -1.562,-1.562 -0.864,0 -1.563,0.699 -1.563,1.562 V 60.289 L 47.98,55.145 c -0.609,-0.61 -1.601,-0.61 -2.21,0 -0.61,0.609 -0.61,1.601 0,2.21 l 7.812,7.813 c 0.609,0.609 1.602,0.609 2.211,0 l 7.812,-7.813 c 0.61,-0.609 0.61,-1.601 0,-2.21 -0.609,-0.61 -1.601,-0.61 -2.21,0 l -5.145,5.144 z" style="fill:currentColor;fill-opacity:1;fill-rule:nonzero;stroke:none" transform="scale(1.3333333)" /> </g>
</svg>

