<?xml version="1.0" encoding="UTF-8" standalone="no"?> <svg version="1.1" id="Ifc19903944444ed48e8c4306a30468af20251106144521" width="100" height="100" viewBox="0 0 100 100" xmlns="http://www.w3.org/2000/svg" xmlns:svg="http://www.w3.org/2000/svg"> <defs id="Ib4df3297fccb4e8c93ff701cc49ffb8e20251106144521" /> <g id="I36ea56f0835c4c7a8644d22c4854a01d20251106144521"> <path id="I1a92fb2cb23148fc915753726be031a220251106144521" d="m 23.438,18.75 c 6.039,0 10.937,4.898 10.937,10.938 0,1.175 -0.199,2.304 -0.543,3.367 3.008,0.797 5.23,3.527 5.23,6.789 0,3.883 -3.148,7.031 -7.031,7.031 h -0.379 c 1.184,5.594 4.688,9.363 6.684,11.117 1.305,1.149 2.289,2.871 2.289,4.852 l -0.031,0.605 c -0.282,2.778 -2.492,4.989 -5.27,5.27 L 34.719,68.75 H 12.156 c -3.058,0 -5.574,-2.324 -5.875,-5.301 L 6.25,62.844 c 0,-1.981 0.984,-3.703 2.289,-4.852 1.996,-1.754 5.5,-5.523 6.684,-11.117 h -0.379 c -3.883,0 -7.032,-3.148 -7.032,-7.031 0,-3.258 2.219,-5.992 5.227,-6.789 C 12.695,31.992 12.5,30.863 12.5,29.688 12.5,23.648 17.398,18.75 23.438,18.75 Z M 42.906,6.25 c 1.699,0 3.258,0.605 4.477,1.613 1.105,-1 2.57,-1.613 4.179,-1.613 1.61,0 3.071,0.617 4.18,1.613 C 56.957,6.855 58.52,6.25 60.219,6.25 h 0.719 l 0.48,0.023 c 2.363,0.243 4.207,2.239 4.207,4.665 v 10.156 c 0,4.152 -2.945,7.613 -6.855,8.418 1.054,16.211 6.734,25.965 8.75,28.965 0.738,1.093 1.23,2.437 1.23,3.894 l -0.035,0.652 c -0.305,3.004 -2.688,5.387 -5.692,5.692 L 62.371,68.75 H 41.539 c 1.121,-1.293 1.879,-2.906 2.121,-4.688 h 18.711 l 0.34,-0.035 c 0.66,-0.132 1.184,-0.656 1.316,-1.316 l 0.035,-0.34 c 0,-0.394 -0.132,-0.836 -0.429,-1.277 C 61.148,57.406 54.656,46.051 53.969,27.43 53.945,26.793 54.184,26.176 54.625,25.719 55.066,25.258 55.676,25 56.312,25 h 0.719 c 2.157,0 3.907,-1.75 3.907,-3.906 V 10.938 h -0.719 c -1.274,0 -2.317,1.019 -2.344,2.296 l -0.063,3.219 c -0.027,1.285 -1.082,2.309 -2.367,2.297 -1.285,-0.012 -2.32,-1.059 -2.32,-2.344 V 12.5 c 0,-0.863 -0.699,-1.562 -1.563,-1.562 C 50.699,10.938 50,11.637 50,12.5 v 3.906 l -0.012,0.239 c -0.117,1.171 -1.101,2.093 -2.308,2.105 -1.285,0.012 -2.34,-1.012 -2.368,-2.297 L 45.25,13.234 c -0.027,-1.277 -1.07,-2.296 -2.344,-2.296 h -0.718 v 10.156 c 0,2.156 1.75,3.906 3.906,3.906 h 0.718 c 0.637,0 1.247,0.258 1.688,0.719 0.441,0.457 0.68,1.074 0.656,1.711 -0.523,14.195 -4.426,24.168 -7.351,29.738 -0.43,-0.566 -0.903,-1.078 -1.41,-1.523 -0.583,-0.512 -1.293,-1.211 -2.024,-2.083 2.395,-4.953 5.262,-13.003 5.984,-24.05 C 40.441,28.707 37.5,25.242 37.5,21.094 V 10.938 c 0,-2.59 2.098,-4.688 4.688,-4.688 z M 23.438,23.438 c -3.454,0 -6.25,2.796 -6.25,6.25 0,1.511 0.535,2.894 1.429,3.976 0.578,0.699 0.699,1.668 0.313,2.488 -0.387,0.825 -1.215,1.348 -2.121,1.348 h -1.965 c -1.293,0 -2.344,1.051 -2.344,2.344 0,1.293 1.051,2.344 2.344,2.344 h 3.07 c 0.652,0 1.27,0.269 1.715,0.746 0.441,0.476 0.668,1.117 0.621,1.765 -0.633,8.766 -5.93,14.457 -8.617,16.817 -0.485,0.422 -0.695,0.929 -0.695,1.328 l 0.023,0.246 c 0.113,0.555 0.605,0.972 1.195,0.972 h 22.563 l 0.246,-0.023 c 0.476,-0.098 0.851,-0.473 0.949,-0.949 l 0.024,-0.246 c 0,-0.399 -0.211,-0.906 -0.696,-1.328 -2.687,-2.36 -7.984,-8.051 -8.617,-16.817 -0.047,-0.648 0.18,-1.289 0.621,-1.765 0.445,-0.477 1.063,-0.746 1.715,-0.746 h 3.07 l 0.242,-0.012 c 1.18,-0.121 2.102,-1.117 2.102,-2.332 0,-1.293 -1.051,-2.344 -2.344,-2.344 h -1.965 c -0.906,0 -1.734,-0.523 -2.121,-1.348 -0.386,-0.82 -0.265,-1.789 0.313,-2.488 0.894,-1.082 1.43,-2.465 1.43,-3.976 0,-3.454 -2.797,-6.25 -6.25,-6.25 z" style="fill:currentColor;fill-opacity:1;fill-rule:nonzero;stroke:none" transform="scale(1.3333333)" /> </g>
</svg>

