<?xml version="1.0" encoding="UTF-8" standalone="no"?> <svg version="1.1" id="I9403449665ee48d4acdedc9a27d49a6c20251106123600" width="100" height="100" viewBox="0 0 100 100" xmlns="http://www.w3.org/2000/svg" xmlns:svg="http://www.w3.org/2000/svg"> <defs id="I38b9eaa897d14f9793ed68c149ddcc2d20251106123600" /> <g id="I389a6812117a4a3b9fef6548047a602720251106123600"> <path id="I7b528053ed6b4623bfcaf406314f429020251106123600" d="m 37.496,68.742 c -17.258,0 -31.25,-13.988 -31.25,-31.25 0,-17.258 13.992,-31.25 31.25,-31.25 17.262,0 31.25,13.992 31.25,31.25 0,17.262 -13.988,31.25 -31.25,31.25 z M 34.375,43.746 34.113,43.52 c -0.918,-0.684 -2.222,-0.606 -3.054,0.226 l -1.371,1.371 V 32.809 H 45.312 V 45.121 L 43.711,43.746 43.449,43.52 c -0.918,-0.684 -2.219,-0.606 -3.051,0.226 -0.914,0.914 -0.918,2.399 0,3.313 l 5.598,5.375 0.262,0.23 c 0.918,0.68 2.219,0.606 3.051,-0.226 l 5.375,-5.379 0.23,-0.262 c 0.68,-0.918 0.602,-2.219 -0.23,-3.051 L 54.422,43.52 c -0.918,-0.684 -2.219,-0.606 -3.051,0.226 L 50,45.117 V 30.461 L 49.977,30.145 C 49.824,29 48.844,28.117 47.656,28.117 l -0.058,0.004 H 39.844 V 17.961 L 39.82,17.645 C 39.664,16.5 38.684,15.617 37.5,15.617 l -0.32,0.02 c -1.145,0.156 -2.024,1.136 -2.024,2.324 v 10.16 H 27.48 c -0.046,-0.004 -0.089,-0.004 -0.136,-0.004 l -0.317,0.024 C 25.883,28.293 25,29.273 25,30.461 v 14.66 L 23.629,43.746 23.363,43.52 c -0.918,-0.684 -2.218,-0.606 -3.051,0.226 -0.914,0.914 -0.914,2.399 0,3.313 l 5.372,5.375 0.261,0.23 c 0.918,0.68 2.223,0.606 3.055,-0.226 l 5.375,-5.379 0.227,-0.262 c 0.679,-0.918 0.605,-2.219 -0.227,-3.051 z" style="fill:currentColor;fill-opacity:1;fill-rule:nonzero;stroke:none" transform="scale(1.3333333)" /> </g>
</svg>

