<?xml version="1.0" encoding="UTF-8" standalone="no"?> <svg version="1.1" id="Ifed5942c5c364b2eb8af7488440b65c120251106170411" width="100" height="100" viewBox="0 0 100 100" xmlns="http://www.w3.org/2000/svg" xmlns:svg="http://www.w3.org/2000/svg"> <defs id="I8afec6fc3d5a44cc91f62e9b2613fcb420251106170411" /> <g id="I4171a8707fb54cc782ff7d433be3c02220251106170411"> <path id="I084726d82ca2449c886b9d40485e3fe720251106170411" d="m 19.531,9.375 c -5.609,0 -10.156,4.547 -10.156,10.156 v 35.938 c 0,5.609 4.547,10.156 10.156,10.156 h 35.938 c 5.609,0 10.156,-4.547 10.156,-10.156 V 19.531 c 0,-5.609 -4.547,-10.156 -10.156,-10.156 z m -5.469,10.156 c 0,-3.019 2.45,-5.469 5.469,-5.469 H 35.156 V 35.156 H 14.062 Z m 0,20.313 H 35.156 V 60.938 H 19.531 c -3.019,0 -5.469,-2.45 -5.469,-5.469 z m 46.876,0 v 15.625 c 0,3.019 -2.45,5.469 -5.469,5.469 H 39.844 V 39.844 Z" style="fill:currentColor;fill-opacity:1;fill-rule:nonzero;stroke:none" transform="scale(1.3333333)" /> </g>
</svg>

