<?xml version="1.0" encoding="UTF-8" standalone="no"?> <svg version="1.1" id="I6d2fe69c19c54f6da53a9db3dd2fd1c720251106144520" width="100" height="100" viewBox="0 0 100 100" xmlns="http://www.w3.org/2000/svg" xmlns:svg="http://www.w3.org/2000/svg"> <defs id="I27c8d5a681404fbb8d968183059432a220251106144520" /> <g id="Ieea4684069124ba9b3eb6f5270af10f020251106144520"> <path id="I469ad1651e094317834ec8064e82ea4320251106144520" d="m 9.375,19.531 c 0,-5.609 4.547,-10.156 10.156,-10.156 h 18.75 c 5.61,0 10.157,4.547 10.157,10.156 0,1.293 -1.051,2.344 -2.344,2.344 -1.293,0 -2.344,-1.051 -2.344,-2.344 0,-3.019 -2.449,-5.469 -5.469,-5.469 h -18.75 c -3.019,0 -5.469,2.45 -5.469,5.469 v 18.75 c 0,3.02 2.45,5.469 5.469,5.469 h 18.293 c 1.02,-3.605 4.336,-6.25 8.27,-6.25 4.746,0 8.594,3.848 8.594,8.594 0,4.746 -3.848,8.594 -8.594,8.594 -3.934,0 -7.25,-2.645 -8.27,-6.25 H 19.531 C 13.922,48.438 9.375,43.891 9.375,38.281 Z M 42.188,46.094 C 42.188,48.25 43.938,50 46.094,50 48.25,50 50,48.25 50,46.094 c 0,-2.156 -1.75,-3.906 -3.906,-3.906 -2.156,0 -3.906,1.75 -3.906,3.906 z M 55.469,31.25 c 3.019,0 5.469,2.449 5.469,5.469 v 18.75 c 0,3.019 -2.45,5.469 -5.469,5.469 h -18.75 c -3.02,0 -5.469,-2.45 -5.469,-5.469 0,-1.293 -1.051,-2.344 -2.344,-2.344 -1.293,0 -2.344,1.051 -2.344,2.344 0,5.609 4.547,10.156 10.157,10.156 h 18.75 c 5.609,0 10.156,-4.547 10.156,-10.156 v -18.75 c 0,-5.61 -4.547,-10.157 -10.156,-10.157 H 37.176 c -1.02,-3.605 -4.336,-6.25 -8.27,-6.25 -4.746,0 -8.594,3.848 -8.594,8.594 0,4.746 3.848,8.594 8.594,8.594 3.934,0 7.25,-2.645 8.27,-6.25 z M 28.906,25 c 2.156,0 3.906,1.75 3.906,3.906 0,2.156 -1.75,3.906 -3.906,3.906 C 26.75,32.812 25,31.062 25,28.906 25,26.75 26.75,25 28.906,25 Z" style="fill:currentColor;fill-opacity:1;fill-rule:nonzero;stroke:none" transform="scale(1.3333333)" /> </g>
</svg>

