<?xml version="1.0" encoding="UTF-8" standalone="no"?> <svg version="1.1" id="Ic5397aa5f75148dca39932037e69121420251110135155" width="100" height="100" viewBox="0 0 100 100" xmlns="http://www.w3.org/2000/svg" xmlns:svg="http://www.w3.org/2000/svg"> <defs id="Idb26a96f551944079bd3bc45d7a9423320251110135155" /> <g id="I46430b230a5d43b2b8476a26788b2cea20251110135155"> <path id="Iadaf1d71331a40fcb4d8d0d796e02c0120251110135155" d="m 16.312,16.312 c -0.917,0.915 -0.917,2.399 0,3.313 0.915,0.918 2.399,0.918 3.313,0 l 2.25,-2.246 v 11.527 c 0,1.293 1.051,2.344 2.344,2.344 1.293,0 2.343,-1.051 2.343,-2.344 V 17.379 l 2.25,2.246 c 0.915,0.918 2.399,0.918 3.313,0 0.918,-0.914 0.918,-2.398 0,-3.313 l -6.25,-6.25 c -0.914,-0.917 -2.398,-0.917 -3.313,0 z M 40.531,65.461 10.855,53.73 C 8.996,52.996 8.887,50.473 10.531,49.527 l 0.328,-0.156 29.688,-11.707 c 1.207,-0.476 2.566,0.113 3.043,1.32 0.433,1.102 -0.028,2.34 -1.035,2.903 l -0.289,0.136 -7.891,3.114 v 12.851 l 7.879,3.114 c 1.101,0.433 1.691,1.617 1.414,2.738 l -0.098,0.301 c -0.437,1.105 -1.617,1.691 -2.738,1.418 z M 18.102,51.555 29.688,56.137 V 46.988 Z M 46,19.625 c -0.918,-0.914 -0.918,-2.398 0,-3.313 l 6.25,-6.25 c 0.914,-0.917 2.398,-0.917 3.312,0 l 6.25,6.25 c 0.918,0.915 0.918,2.399 0,3.313 -0.914,0.918 -2.398,0.918 -3.312,0 l -2.25,-2.246 v 45.902 c 0,1.293 -1.051,2.344 -2.344,2.344 -1.293,0 -2.344,-1.051 -2.344,-2.344 V 17.379 l -2.25,2.246 c -0.914,0.918 -2.398,0.918 -3.312,0 z" style="fill:currentColor;fill-opacity:1;fill-rule:nonzero;stroke:none" transform="scale(1.3333333)" /> </g>
</svg>

