<?xml version="1.0" encoding="UTF-8" standalone="no"?> <svg version="1.1" id="If6b1fc3d6e784829b439980d73e4105120251106103256" width="100" height="100" viewBox="0 0 100 100" xmlns="http://www.w3.org/2000/svg" xmlns:svg="http://www.w3.org/2000/svg"> <defs id="I84d7b74d80964e5a9aef595370b49dc120251106103256" /> <g id="Ib3cf75aa85574f9c8cb66812875dabb820251106103256"> <path id="Ia07a43765af84028b43e7182d4425dfd20251106103256" d="m 59.875,11.098 c -7.887,-7.883 -20.727,-7.883 -28.602,0 L 9.426,32.93 c -0.145,0.14 -0.219,0.336 -0.219,0.535 0,0.203 0.074,0.394 0.219,0.535 l 3.09,3.09 c 0.293,0.293 0.765,0.293 1.062,0 L 35.426,15.258 c 2.711,-2.711 6.316,-4.199 10.152,-4.199 3.832,0 7.442,1.488 10.145,4.199 2.711,2.715 4.203,6.32 4.203,10.148 0,3.832 -1.492,7.43 -4.203,10.145 l -22.266,22.258 -3.609,3.605 c -3.371,3.375 -8.856,3.375 -12.227,0 -1.633,-1.633 -2.527,-3.801 -2.527,-6.109 0,-2.313 0.894,-4.481 2.527,-6.11 l 22.09,-22.082 c 0.559,-0.554 1.297,-0.863 2.082,-0.863 h 0.008 c 0.789,0 1.515,0.309 2.07,0.863 0.559,0.559 0.859,1.297 0.859,2.082 0,0.782 -0.308,1.516 -0.859,2.071 L 25.816,49.301 c -0.144,0.144 -0.218,0.336 -0.218,0.539 0,0.199 0.074,0.39 0.218,0.535 l 3.086,3.086 c 0.297,0.293 0.77,0.293 1.063,0 L 48.012,35.414 c 1.668,-1.664 2.578,-3.875 2.578,-6.226 0,-2.352 -0.918,-4.571 -2.578,-6.227 -3.438,-3.441 -9.032,-3.434 -12.469,0 l -2.145,2.152 -19.937,19.93 c -2.734,2.715 -4.266,6.414 -4.254,10.269 0,3.876 1.516,7.516 4.254,10.254 2.836,2.829 6.555,4.243 10.269,4.243 3.715,0 7.434,-1.414 10.262,-4.243 L 59.875,39.703 c 3.809,-3.82 5.918,-8.898 5.918,-14.297 0.008,-5.41 -2.102,-10.488 -5.918,-14.308 z" style="fill:currentColor;fill-opacity:1;fill-rule:nonzero;stroke:none" transform="scale(1.3333333)" /> </g>
</svg>

