<?xml version="1.0" encoding="UTF-8" standalone="no"?> <svg version="1.1" id="I05952a200ef04efdb09a593e6a587e6d20251106123600" width="100" height="100" viewBox="0 0 100 100" xmlns="http://www.w3.org/2000/svg" xmlns:svg="http://www.w3.org/2000/svg"> <defs id="I2366d2eb406e440882eda8852dd13b5e20251106123600" /> <g id="I810693bec4914395b03ac3172f274ff020251106123600"> <path id="I57668d0a930144ef96ecd89507fa37bf20251106123600" d="m 37.5,67.5 c 16.57,0 30,-13.43 30,-30 0,-16.57 -13.43,-30 -30,-30 -16.57,0 -30,13.43 -30,30 0,16.57 13.43,30 30,30 z m -3.75,-21.723 -6.176,6.172 c -0.73,0.735 -1.918,0.735 -2.648,0 L 18.75,45.777 c -0.73,-0.734 -0.73,-1.922 0,-2.652 0.73,-0.73 1.918,-0.73 2.652,0 l 2.973,2.973 V 24.375 c 0,-1.035 0.84,-1.875 1.875,-1.875 1.035,0 1.875,0.84 1.875,1.875 v 21.723 l 2.973,-2.973 c 0.734,-0.73 1.922,-0.73 2.652,0 0.73,0.73 0.73,1.918 0,2.652 z m 22.5,-16.554 c 0.73,0.734 0.73,1.922 0,2.652 -0.73,0.73 -1.918,0.73 -2.652,0 l -2.973,-2.973 v 21.723 c 0,1.035 -0.84,1.875 -1.875,1.875 -1.035,0 -1.875,-0.84 -1.875,-1.875 V 28.902 l -2.973,2.973 c -0.734,0.73 -1.922,0.73 -2.652,0 -0.73,-0.73 -0.73,-1.918 0,-2.652 l 6.176,-6.172 c 0.73,-0.735 1.918,-0.735 2.648,0 z" style="fill:currentColor;fill-opacity:1;fill-rule:nonzero;stroke:none" transform="scale(1.3333333)" /> </g>
</svg>

