<?xml version="1.0" encoding="UTF-8" standalone="no"?> <svg version="1.1" id="Ifc0661e1e0ee490896614b5c4392228920251106164749" width="100" height="100" viewBox="0 0 100 100" xmlns="http://www.w3.org/2000/svg" xmlns:svg="http://www.w3.org/2000/svg"> <defs id="I86f12f165d97454d925bc0d48849b95720251106164749" /> <g id="Id5b66fe21c264d22bf789bc7a49cbd9b20251106164749"> <path id="Icfb7e1d6c76948d5b3a99a56aa8f22ff20251106164749" d="m 37.5,67.5 c 16.57,0 30,-13.43 30,-30 0,-16.57 -13.43,-30 -30,-30 -16.57,0 -30,13.43 -30,30 0,0.32 0.004,0.637 0.016,0.953 2.218,-1.832 4.832,-3.207 7.687,-3.984 0.637,-4.711 2.766,-9.258 6.387,-12.879 6.515,-6.516 16.031,-8.195 24.09,-5.055 0.965,0.375 1.441,1.461 1.066,2.426 -0.375,0.965 -1.461,1.445 -2.426,1.066 -6.726,-2.617 -14.652,-1.211 -20.078,4.215 -2.715,2.715 -4.426,6.059 -5.125,9.563 0.496,-0.035 1,-0.055 1.508,-0.055 4.43,0 8.531,1.395 11.891,3.77 0.222,-0.637 0.566,-1.247 1.031,-1.793 0.273,-0.317 0.762,-0.766 1.289,-1.231 0.562,-0.496 1.285,-1.109 2.102,-1.793 1.632,-1.371 3.679,-3.039 5.675,-4.656 2,-1.617 3.953,-3.184 5.41,-4.348 l 1.028,-0.82 1.387,-1.102 c 0.703,-0.554 1.699,-0.539 2.382,0.043 0.68,0.586 0.856,1.567 0.414,2.348 l -0.414,0.734 c -0.265,0.469 -0.644,1.141 -1.105,1.953 -0.43,0.754 -0.926,1.625 -1.465,2.571 l -0.863,1.508 -1.117,1.945 c -0.528,0.91 -1.059,1.828 -1.582,2.723 -0.75,1.293 -1.481,2.531 -2.129,3.609 -0.547,0.914 -1.039,1.723 -1.442,2.359 -0.137,0.211 -0.269,0.422 -0.398,0.618 -0.098,0.144 -0.192,0.281 -0.278,0.406 -0.125,0.172 -0.238,0.32 -0.336,0.437 -0.851,0.996 -1.972,1.621 -3.16,1.86 1.473,2.839 2.305,6.066 2.305,9.484 0,4.98 -1.766,9.547 -4.703,13.109 0.316,0.012 0.633,0.016 0.953,0.016 z M 58.465,29.32 c 3.14,8.063 1.461,17.575 -5.055,24.09 -0.73,0.731 -1.918,0.731 -2.652,0 -0.731,-0.73 -0.731,-1.918 0,-2.652 5.426,-5.426 6.832,-13.352 4.215,-20.078 -0.379,-0.965 0.101,-2.051 1.066,-2.426 0.965,-0.375 2.051,0.101 2.426,1.066 z M 30,68.406 c -2.773,1.856 -6.039,2.844 -9.375,2.844 -4.477,0 -8.77,-1.777 -11.934,-4.941 C 5.527,63.145 3.75,58.852 3.75,54.375 3.75,51.039 4.738,47.773 6.594,45 c 1.855,-2.773 4.488,-4.938 7.574,-6.215 3.082,-1.277 6.477,-1.613 9.75,-0.961 3.273,0.653 6.281,2.258 8.641,4.617 2.359,2.364 3.964,5.368 4.617,8.641 0.652,3.273 0.316,6.668 -0.961,9.75 -1.277,3.086 -3.442,5.719 -6.215,7.574 z M 21.949,45.551 C 21.598,45.199 21.121,45 20.625,45 c -0.496,0 -0.973,0.199 -1.324,0.551 -0.352,0.351 -0.551,0.828 -0.551,1.324 V 52.5 h -5.625 c -0.496,0 -0.973,0.199 -1.324,0.551 -0.352,0.351 -0.551,0.828 -0.551,1.324 0,0.496 0.199,0.973 0.551,1.324 0.351,0.352 0.828,0.551 1.324,0.551 h 5.625 v 5.625 c 0,0.496 0.199,0.973 0.551,1.324 0.351,0.352 0.828,0.551 1.324,0.551 0.496,0 0.973,-0.199 1.324,-0.551 0.352,-0.351 0.551,-0.828 0.551,-1.324 V 56.25 h 5.625 c 0.496,0 0.973,-0.199 1.324,-0.551 C 29.801,55.348 30,54.871 30,54.375 30,53.879 29.801,53.402 29.449,53.051 29.098,52.699 28.621,52.5 28.125,52.5 H 22.5 v -5.625 c 0,-0.496 -0.199,-0.973 -0.551,-1.324 z" style="fill:currentColor;fill-opacity:1;fill-rule:nonzero;stroke:none" transform="scale(1.3333333)" /> </g>
</svg>

