<?xml version="1.0" encoding="UTF-8" standalone="no"?> <svg version="1.1" id="I4164243cdaaa4e7c97f9dc41c62cb28e20251110123031" width="100" height="100" viewBox="0 0 100 100" xmlns="http://www.w3.org/2000/svg" xmlns:svg="http://www.w3.org/2000/svg"> <defs id="I58f34c5dd874453c80c29ab1a59fded520251110123031" /> <g id="Id73a766123ff491398ddcff9a744106b20251110123031"> <path id="I028850b0614d4ab79d796142f2abf99220251110123031" d="m 37.5,7.5 c -8.285,0 -15,6.715 -15,15 0,8.285 6.715,15 15,15 8.285,0 15,-6.715 15,-15 0,-8.285 -6.715,-15 -15,-15 z M 18.781,41.25 c -4.144,0 -7.531,3.324 -7.531,7.5 0,6.344 3.121,11.125 8.008,14.238 4.804,3.063 11.285,4.512 18.242,4.512 2.254,0 4.457,-0.152 6.566,-0.461 l 0.825,-3.289 h -1.758 c -4.016,0 -6.738,-4.082 -5.195,-7.789 L 44.07,41.25 Z M 47.297,60 c 1.219,0 2.113,1.145 1.816,2.328 l -1.629,6.52 c -0.453,1.812 1.735,3.097 3.098,1.824 L 68.855,53.617 c 1.868,-1.742 0.633,-4.867 -1.917,-4.867 h -1.516 c -1.277,0 -2.184,-1.254 -1.777,-2.469 L 65.75,39.969 C 66.152,38.754 65.25,37.5 63.969,37.5 H 50.945 c -0.754,0 -1.437,0.457 -1.73,1.152 l -7.813,18.75 C 40.891,58.641 41.797,60 43.133,60 Z" style="fill:currentColor;fill-opacity:1;fill-rule:nonzero;stroke:none" transform="scale(1.3333333)" /> </g>
</svg>

