<?xml version="1.0" encoding="UTF-8" standalone="no"?> <svg version="1.1" id="Ie0a7ba637f4a477490e05ff3dea13b7720251106142135" width="100" height="100" viewBox="0 0 100 100" xmlns="http://www.w3.org/2000/svg" xmlns:svg="http://www.w3.org/2000/svg"> <defs id="Id8e12422b3134ebfabd26c84346a42d620251106142135" /> <g id="Iab867e171be84604b8d486dfb28fe69f20251106142135"> <path id="I75ce4c3d3f92414fa36db36e508088a520251106142135" d="M 16.875,3.75 C 11.699,3.75 7.5,7.949 7.5,13.125 v 33.75 c 0,5.176 4.199,9.375 9.375,9.375 H 30 V 33.75 H 20.625 C 19.59,33.75 18.75,32.91 18.75,31.875 18.75,30.84 19.59,30 20.625,30 h 10.016 c 0.492,-1.398 1.254,-2.668 2.222,-3.75 H 20.625 c -1.035,0 -1.875,-0.84 -1.875,-1.875 0,-1.035 0.84,-1.875 1.875,-1.875 H 60 V 13.125 C 60,7.949 55.801,3.75 50.625,3.75 Z M 18.75,16.875 C 18.75,15.84 19.59,15 20.625,15 h 26.25 c 1.035,0 1.875,0.84 1.875,1.875 0,1.035 -0.84,1.875 -1.875,1.875 h -26.25 c -1.035,0 -1.875,-0.84 -1.875,-1.875 z M 67.5,33.75 c 0,-4.141 -3.359,-7.5 -7.5,-7.5 H 41.25 c -4.141,0 -7.5,3.359 -7.5,7.5 v 30 c 0,4.141 3.359,7.5 7.5,7.5 H 65.625 C 66.66,71.25 67.5,70.41 67.5,69.375 67.5,68.34 66.66,67.5 65.625,67.5 H 41.25 c -2.07,0 -3.75,-1.68 -3.75,-3.75 v -0.012 h 28.125 c 1.035,0 1.875,-0.84 1.875,-1.875 z m -30,26.238 V 33.75 C 37.5,31.68 39.18,30 41.25,30 H 60 c 2.07,0 3.75,1.68 3.75,3.75 v 26.238 z" style="fill:currentColor;fill-opacity:1;fill-rule:nonzero;stroke:none" transform="scale(1.3333333)" /> </g>
</svg>

