<?xml version="1.0" encoding="UTF-8" standalone="no"?> <svg version="1.1" id="Ie2a08d09018d4f6dbfe090b9ac85873720251106132945" width="100" height="100" viewBox="0 0 100 100" xmlns="http://www.w3.org/2000/svg" xmlns:svg="http://www.w3.org/2000/svg"> <defs id="Ia52d4fa6c33b4b489f0fd1c4842940d720251106132945" /> <g id="I551656b61a844d6ca4683d9a6242ebc020251106132945"> <path id="I76c46d5c8e8949698b8ab4dc680d58b620251106132945" d="m 53.125,18.75 c 5.18,0 9.375,4.199 9.375,9.375 v 3.125 h 3.125 c 0.57,0 1.105,0.152 1.563,0.418 0.937,0.539 1.562,1.551 1.562,2.707 v 6.25 c 0,1.156 -0.625,2.168 -1.562,2.707 -0.458,0.266 -0.993,0.418 -1.563,0.418 H 62.5 v 3.125 c 0,5.18 -4.195,9.375 -9.375,9.375 H 40.082 c 0.356,-1.504 0.543,-3.074 0.543,-4.688 h 12.496 c 2.434,0 4.438,-1.859 4.664,-4.234 l 0.024,-0.453 v -18.75 c 0,-2.437 -1.86,-4.437 -4.239,-4.668 L 53.121,23.438 H 15.625 c -2.437,0 -4.437,1.859 -4.668,4.234 l -0.019,0.453 v 5.414 C 9.215,34.438 7.637,35.574 6.25,36.906 v -8.781 c 0,-5.176 4.199,-9.375 9.375,-9.375 z M 37.5,51.562 c 0,9.493 -7.695,17.188 -17.188,17.188 -9.492,0 -17.187,-7.695 -17.187,-17.188 0,-9.492 7.695,-17.187 17.187,-17.187 9.493,0 17.188,7.695 17.188,17.187 z m -6.707,-7.355 c -0.609,-0.609 -1.602,-0.609 -2.211,0 L 17.188,55.602 12.043,50.457 c -0.609,-0.609 -1.602,-0.609 -2.211,0 -0.609,0.609 -0.609,1.602 0,2.211 l 6.25,6.25 c 0.609,0.609 1.602,0.609 2.211,0 l 12.5,-12.5 c 0.609,-0.609 0.609,-1.602 0,-2.211 z" style="fill:currentColor;fill-opacity:1;fill-rule:nonzero;stroke:none" transform="scale(1.3333333)" /> </g>
</svg>

