<?xml version="1.0" encoding="UTF-8" standalone="no"?> <svg version="1.1" id="Id676faed00164070b456c091b17b552320251106171633" width="100" height="100" viewBox="0 0 100 100" xmlns="http://www.w3.org/2000/svg" xmlns:svg="http://www.w3.org/2000/svg"> <defs id="Iad16b33b73504754a85b720ae4227b2120251106171633" /> <g id="I49a51756eb0749219c49a8483ddfa55820251106171633"> <path id="I67a3637839de4fa69d07813f743917a620251106171633" d="m 62.945,10.043 c 0,-1.109 0.903,-2.008 2.012,-2.008 1.109,0 2.008,0.899 2.008,2.008 v 54.914 c 0,1.109 -0.899,2.008 -2.008,2.008 -1.109,0 -2.012,-0.899 -2.012,-2.008 z m -54.91,4.031 c 0,-4.867 5.469,-7.726 9.465,-4.953 l 33.492,23.254 c 3.442,2.387 3.457,7.465 0.035,9.875 L 17.535,65.852 c -3.992,2.812 -9.5,-0.043 -9.5,-4.926 z m 7.172,-1.652 c -1.332,-0.926 -3.152,0.031 -3.152,1.652 v 46.852 c 0,1.625 1.836,2.578 3.164,1.64 L 48.715,38.965 c 1.14,-0.801 1.133,-2.496 -0.012,-3.293 z" style="fill:currentColor;fill-opacity:1;fill-rule:nonzero;stroke:none" transform="scale(1.3333333)" /> </g>
</svg>

