<?xml version="1.0" encoding="UTF-8" standalone="no"?> <svg version="1.1" id="I31558c6368ea42729aeb37dfb6a231ad20251106163938" width="100" height="100" viewBox="0 0 100 100" xmlns="http://www.w3.org/2000/svg" xmlns:svg="http://www.w3.org/2000/svg"> <defs id="Ifdf69573d77b4d188f0ee68d2dea296820251106163938" /> <g id="Icc0aeb84723a451a92540d99be066dc520251106163938"> <path id="I6f3629f20ff949efbb9a1826150a50d720251106163938" d="m 9.387,18.082 c 0,-0.062 -0.004,-0.121 -0.008,-0.18 0.094,-3.246 2.754,-5.847 6.023,-5.847 h 9.836 c 0.887,0 1.739,0.351 2.367,0.98 l 5.043,5.047 -5.043,5.043 c -0.628,0.629 -1.48,0.98 -2.367,0.98 H 9.387 Z m -4.032,8.035 c 0,0.067 0.004,0.137 0.012,0.203 v 27.922 c 0,5.547 4.496,10.043 10.047,10.043 H 40.355 C 40.238,63.621 40.18,62.949 40.18,62.277 v -0.55 c 0,-0.497 0.043,-0.985 0.129,-1.457 H 15.414 c -3.332,0 -6.027,-2.7 -6.027,-6.028 V 28.125 h 15.851 c 1.953,0 3.824,-0.777 5.207,-2.156 l 5.879,-5.879 h 23.274 c 3.332,0 6.027,2.699 6.027,6.027 v 12.332 c 1.668,1.891 2.68,4.371 2.68,7.086 h 1.34 V 26.117 C 69.645,20.57 65.148,16.07 59.598,16.07 H 36.324 L 30.445,10.191 C 29.062,8.812 27.191,8.035 25.238,8.035 h -9.836 c -5.547,0 -10.047,4.496 -10.047,10.047 z m 60.27,19.418 c 0,4.438 -3.598,8.035 -8.035,8.035 -4.438,0 -8.035,-3.597 -8.035,-8.035 0,-4.437 3.597,-8.035 8.035,-8.035 4.437,0 8.035,3.598 8.035,8.035 z m 6.695,16.742 c 0,5.004 -4.207,10.043 -14.73,10.043 -10.524,0 -14.735,-5.019 -14.735,-10.043 v -0.55 c 0,-3.028 2.454,-5.477 5.481,-5.477 h 18.508 c 3.023,0 5.476,2.449 5.476,5.477 z" style="fill:currentColor;fill-opacity:1;fill-rule:nonzero;stroke:none" transform="scale(1.3333333)" /> </g>
</svg>

