<?xml version="1.0" encoding="UTF-8" standalone="no"?> <svg version="1.1" id="I192d447bdd1f44a99d3a3dba25525f9a20251106152729" width="100" height="100" viewBox="0 0 100 100" xmlns="http://www.w3.org/2000/svg" xmlns:svg="http://www.w3.org/2000/svg"> <defs id="I9db350819d3348bfbb9c01dc78360b1b20251106152729" /> <g id="I4a77b20f3d4f434d9f753c7e7bf578be20251106152729"> <path id="I616c9e8d9999414e9f89fc3bb40df75f20251106152729" d="m 3.766,20.605 c 0,-9.308 7.554,-16.855 16.875,-16.855 9.32,0 16.875,7.547 16.875,16.855 0,9.313 -7.555,16.86 -16.875,16.86 -9.321,0 -16.875,-7.547 -16.875,-16.86 z m 23.984,3.36 -3.359,3.359 v -5.781 c 0,-5.688 -4.618,-10.301 -10.313,-10.301 h -0.937 c -1.036,0 -1.875,0.84 -1.875,1.871 0,1.035 0.839,1.875 1.875,1.875 h 0.937 c 3.625,0 6.563,2.934 6.563,6.555 v 5.781 l -3.364,-3.359 c -0.73,-0.731 -1.918,-0.731 -2.652,0 -0.73,0.73 -0.73,1.918 0,2.648 l 6.57,6.563 c 0.18,0.176 0.383,0.308 0.602,0.398 0.223,0.094 0.465,0.145 0.719,0.145 0.254,0 0.496,-0.051 0.714,-0.145 0.223,-0.09 0.43,-0.226 0.61,-0.406 l 6.562,-6.555 c 0.735,-0.73 0.735,-1.918 0,-2.648 -0.73,-0.731 -1.918,-0.731 -2.652,0 z m 13.504,-3.36 c 0,2.954 -0.621,5.758 -1.738,8.293 l 14.101,-6.257 c 0.945,-0.422 2.055,0.004 2.473,0.949 0.422,0.945 -0.004,2.051 -0.949,2.472 L 39.379,33.059 V 50.57 c 0,1.035 -0.84,1.875 -1.875,1.875 -1.035,0 -1.875,-0.84 -1.875,-1.875 V 34.75 c -3.762,3.977 -9.09,6.461 -15,6.461 -4.988,0 -9.559,-1.77 -13.125,-4.711 v 15.281 c 0,2.297 1.398,4.364 3.535,5.219 l 21.59,8.625 c 3.129,1.25 6.621,1.25 9.75,0 L 63.969,57 c 2.133,-0.855 3.535,-2.922 3.535,-5.219 v -28.64 c 0,-2.297 -1.402,-4.364 -3.535,-5.219 L 42.379,9.297 c -1.656,-0.66 -3.41,-0.973 -5.16,-0.934 2.535,3.422 4.035,7.657 4.035,12.242 z" style="fill:currentColor;fill-opacity:1;fill-rule:nonzero;stroke:none" transform="scale(1.3333333)" /> </g>
</svg>

