<?xml version="1.0" encoding="UTF-8" standalone="no"?> <svg version="1.1" id="Iaf4f598b6b1641a5b8c12ae095fdce0e20251106163938" width="100" height="100" viewBox="0 0 100 100" xmlns="http://www.w3.org/2000/svg" xmlns:svg="http://www.w3.org/2000/svg"> <defs id="I15b016c2bcc64a86ac6163c0c317058420251106163938" /> <g id="I331d16f2cb77464e8622e2f82d55443320251106163938"> <path id="I794f0cb511774ec2b5f089f6bc43fb7320251106163938" d="M 54.688,6.25 C 54.688,4.957 53.637,3.906 52.344,3.906 51.047,3.906 50,4.957 50,6.25 v 3.125 c 0,1.293 1.047,2.344 2.344,2.344 1.293,0 2.344,-1.051 2.344,-2.344 z m 12.593,1.469 c -0.914,-0.918 -2.398,-0.918 -3.312,0 l -6.25,6.25 c -0.918,0.914 -0.918,2.398 0,3.312 0.914,0.918 2.398,0.918 3.312,0 l 6.25,-6.25 c 0.914,-0.914 0.914,-2.398 0,-3.312 z m -42.187,45.5 4.687,-4.688 c 0.914,-0.914 0.914,-2.398 0,-3.312 -0.914,-0.918 -2.398,-0.918 -3.312,0 l -4.688,4.687 c -0.918,0.914 -0.918,2.399 0,3.313 0.914,0.918 2.399,0.918 3.313,0 z M 25.781,18.75 V 33.402 L 9.469,49.715 c -2.746,2.746 -2.746,7.199 0,9.945 l 5.871,5.871 c 2.746,2.746 7.199,2.746 9.945,0 L 41.594,49.219 H 56.25 c 0.621,0 1.219,-0.246 1.656,-0.688 l 6.063,-6.058 c 2.742,-2.746 2.742,-7.2 0,-9.946 L 42.473,11.031 c -2.746,-2.746 -7.2,-2.746 -9.946,0 l -6.058,6.063 c -0.442,0.437 -0.688,1.035 -0.688,1.656 z m 10.063,-4.402 c 0.914,-0.918 2.398,-0.918 3.312,0 l 21.496,21.496 c 0.914,0.914 0.914,2.398 0,3.312 L 56.25,43.559 31.438,18.75 Z M 30.469,24.41 50.59,44.531 H 41.594 L 30.469,33.402 Z m -2.344,13.281 9.184,9.184 -15.34,15.34 c -0.914,0.918 -2.399,0.918 -3.313,0 l -5.871,-5.871 c -0.918,-0.914 -0.918,-2.399 0,-3.313 z M 65.625,25 h 3.125 c 1.293,0 2.344,-1.051 2.344,-2.344 0,-1.293 -1.051,-2.344 -2.344,-2.344 h -3.125 c -1.297,0 -2.344,1.051 -2.344,2.344 0,1.293 1.047,2.344 2.344,2.344 z" style="fill:currentColor;fill-opacity:1;fill-rule:nonzero;stroke:none" transform="scale(1.3333333)" /> </g>
</svg>

