<?xml version="1.0" encoding="UTF-8" standalone="no"?> <svg version="1.1" id="I41b7f5f462f24cb8940c6b9c5fcbc9b220251106154012" width="100" height="100" viewBox="0 0 100 100" xmlns="http://www.w3.org/2000/svg" xmlns:svg="http://www.w3.org/2000/svg"> <defs id="I1e8fa812fd144c419d1f3f33354637a720251106154012"> <linearGradient x1="10.1937" y1="1.81855" x2="22.9849" y2="27.5123" gradientUnits="userSpaceOnUse" gradientTransform="scale(2.34375)" spreadMethod="pad" id="I5d40955720c04587accdc5e86e721eac20251106154012"> <stop style="stop-opacity:1;stop-color:#29c3ff" offset="0" id="Ib1d889be0f184e4ab0617d0aea106ea320251106154012" /> <stop style="stop-opacity:1;stop-color:#367af2" offset="1" id="Iefd9fc3b1c4642fda5853de129d84ce220251106154012" /> </linearGradient> <linearGradient x1="19.4048" y1="9.8245401" x2="24.153" y2="32.391998" gradientUnits="userSpaceOnUse" gradientTransform="scale(2.34375)" spreadMethod="pad" id="Ide2017c4c09743e9acfbfed9352fa08d20251106154012"> <stop style="stop-opacity:0;stop-color:#ff6ce8" offset="0" id="I3fed0b123ec745ec86500732fd173fb820251106154012" /> <stop style="stop-opacity:0;stop-color:#ff6ce8" offset="0.53288" id="Ia066a6b45d804421a72e4561675d8acd20251106154012" /> <stop style="stop-opacity:0.70000763;stop-color:#ff6ce8" offset="1" id="I94f579beda944e88a8fe83dcbbfe3ef120251106154012" /> </linearGradient> <linearGradient x1="35.25" y1="17" x2="24.303301" y2="-4.9172802" gradientUnits="userSpaceOnUse" gradientTransform="scale(2.34375)" spreadMethod="pad" id="I9a3d986b2617442889149c6154c3527520251106154012"> <stop style="stop-opacity:1;stop-color:#58aafe" offset="0" id="If65d2def03294cefbf6f5de5b00babc920251106154012" /> <stop style="stop-opacity:1;stop-color:#6ce0ff" offset="1" id="Ifb9fb52abd454b7cbf72feaea8dca54a20251106154012" /> </linearGradient> </defs> <g id="Ife83ee65af314543a3bd9c00d001928520251106154012"> <path id="I013f1c93be0a4152a9b19b31e20e55b320251106154012" d="m 37.5,23.727 c 7.633,0 14.766,-1.395 20.168,-3.852 1.93,-0.879 3.91,-2.027 5.613,-3.469 v 42.188 c 0,6.472 -11.543,11.718 -25.781,11.718 -14.238,0 -25.781,-5.246 -25.781,-11.718 V 16.406 c 1.703,1.442 3.683,2.59 5.613,3.469 5.402,2.457 12.535,3.852 20.168,3.852 z" transform="scale(1.3333333)" style="fill:url(#I5d40955720c04587accdc5e86e721eac20251106154012);stroke:none" /> <path d="m 37.5,23.727 c 7.633,0 14.766,-1.395 20.168,-3.852 1.93,-0.879 3.91,-2.027 5.613,-3.469 v 42.188 c 0,6.472 -11.543,11.718 -25.781,11.718 -14.238,0 -25.781,-5.246 -25.781,-11.718 V 16.406 c 1.703,1.442 3.683,2.59 5.613,3.469 5.402,2.457 12.535,3.852 20.168,3.852 z" transform="scale(1.3333333)" style="fill:url(#Ide2017c4c09743e9acfbfed9352fa08d20251106154012);stroke:none" opacity="1" id="I8f41666c611a4ba7b8064de45d7f44cf20251106154012" /> <path id="Id9fc7b2f88154b2b9a0b7b40edc3e50220251106154012" d="m 11.719,16.406 c 0,-6.472 11.543,-11.718 25.781,-11.718 14.238,0 25.781,5.246 25.781,11.718 0,6.473 -11.543,11.719 -25.781,11.719 -14.238,0 -25.781,-5.246 -25.781,-11.719 z" transform="scale(1.3333333)" style="fill:url(#I9a3d986b2617442889149c6154c3527520251106154012);stroke:none" /> </g>
</svg>

