<?xml version="1.0" encoding="UTF-8" standalone="no"?> <svg version="1.1" id="I9c04287ac81545528e1fa2674cd6e19120251106152728" width="100" height="100" viewBox="0 0 100 100" xmlns="http://www.w3.org/2000/svg" xmlns:svg="http://www.w3.org/2000/svg"> <defs id="I95b5d2ae0d5b424a8a92a7f7456bb8b120251106152728"> <linearGradient x1="9.7742395" y1="20.3405" x2="12.382" y2="26.6059" gradientUnits="userSpaceOnUse" gradientTransform="scale(2.678571)" spreadMethod="pad" id="I4e0d598d82e0433eb93edd3bc848cedf20251106152728"> <stop style="stop-opacity:1;stop-color:#ffa43d" offset="0" id="Ib1fe289363fd48bc91d39a02dbf92dbf20251106152728" /> <stop style="stop-opacity:1;stop-color:#fb5937" offset="1" id="I67f02bd420114c59901c2c5f9023424720251106152728" /> </linearGradient> <linearGradient x1="23.0257" y1="22.9965" x2="15.2642" y2="10.2979" gradientUnits="userSpaceOnUse" gradientTransform="scale(2.678571)" spreadMethod="pad" id="I56af7f0864e44be590e73ccfafb8e92f20251106152728"> <stop style="stop-opacity:1;stop-color:#ff8a69" offset="0" id="Ic58f27447fca48358d5b8b55cf3179dd20251106152728" /> <stop style="stop-opacity:1;stop-color:#ffcd0f" offset="1" id="I6c0f17e828a4411abcdb3a4edd973bfd20251106152728" /> </linearGradient> <linearGradient x1="9.7742395" y1="14.3405" x2="12.382" y2="20.6059" gradientUnits="userSpaceOnUse" gradientTransform="scale(2.678571)" spreadMethod="pad" id="Id3a40ce9edfb4baf8387b33a2a1ff2c020251106152728"> <stop style="stop-opacity:1;stop-color:#ffa43d" offset="0" id="Ib38edcfdbfae4ee592e7dcf895a5033020251106152728" /> <stop style="stop-opacity:1;stop-color:#fb5937" offset="1" id="I66066986c81241929494a329d43612c620251106152728" /> </linearGradient> <linearGradient x1="23.0257" y1="16.9965" x2="15.2642" y2="4.2979398" gradientUnits="userSpaceOnUse" gradientTransform="scale(2.678571)" spreadMethod="pad" id="I8660004db31f4c2a8df464b0c69588fc20251106152728"> <stop style="stop-opacity:1;stop-color:#ff8a69" offset="0" id="Ia234a8aff16240abbb4980c1315df6c220251106152728" /> <stop style="stop-opacity:1;stop-color:#ffcd0f" offset="1" id="I60d00bae43d744978c75a1e59e3e6e2c20251106152728" /> </linearGradient> <linearGradient x1="9.7742395" y1="8.3405104" x2="12.382" y2="14.6059" gradientUnits="userSpaceOnUse" gradientTransform="scale(2.678571)" spreadMethod="pad" id="I45d2d7e38bfa47bd94610c0a68cfc8f620251106152728"> <stop style="stop-opacity:1;stop-color:#ffa43d" offset="0" id="I09e28eb565444199b1708d76be56992320251106152728" /> <stop style="stop-opacity:1;stop-color:#fb5937" offset="1" id="I3dd1e505fc2843fc9fc999e400d1875a20251106152728" /> </linearGradient> <linearGradient x1="23.0257" y1="10.9965" x2="15.2642" y2="-1.70206" gradientUnits="userSpaceOnUse" gradientTransform="scale(2.678571)" spreadMethod="pad" id="I3c2a8c4578424cdd95980512d13c4be520251106152728"> <stop style="stop-opacity:1;stop-color:#ff8a69" offset="0" id="Ifec5ea2b5424481bbe28ac41f615ff2b20251106152728" /> <stop style="stop-opacity:1;stop-color:#ffcd0f" offset="1" id="I0020925dc27d43d89833b0450694f02b20251106152728" /> </linearGradient> </defs> <g id="I2b871397832a45ed9788b946fdf7581e20251106152728"> <path id="I754e514e15d4465cbd420596440b283820251106152728" d="m 37.5,69.645 c 13.312,0 24.105,-5.399 24.105,-12.055 v -8.035 h -48.21 v 8.035 c 0,6.656 10.793,12.055 24.105,12.055 z" transform="scale(1.3333333)" style="fill:url(#I4e0d598d82e0433eb93edd3bc848cedf20251106152728);stroke:none" /> <path id="If4002660de6e49deab01ce27e6e4844820251106152728" d="m 61.605,49.555 c 0,6.656 -10.793,12.05 -24.105,12.05 -13.312,0 -24.105,-5.394 -24.105,-12.05 0,-6.657 10.793,-12.055 24.105,-12.055 13.312,0 24.105,5.398 24.105,12.055 z" transform="scale(1.3333333)" style="fill:url(#I56af7f0864e44be590e73ccfafb8e92f20251106152728);stroke:none" /> <path id="I265b87ce7cd3474b81f7eaac0195552720251106152728" d="m 37.5,53.57 c 13.312,0 24.105,-5.394 24.105,-12.05 v -8.04 h -48.21 v 8.04 c 0,6.656 10.793,12.05 24.105,12.05 z" transform="scale(1.3333333)" style="fill:url(#Id3a40ce9edfb4baf8387b33a2a1ff2c020251106152728);stroke:none" /> <path id="Ib648926de1b04a64b9b419c4cd442bbb20251106152728" d="m 61.605,33.48 c 0,6.661 -10.793,12.055 -24.105,12.055 -13.312,0 -24.105,-5.394 -24.105,-12.055 0,-6.656 10.793,-12.05 24.105,-12.05 13.312,0 24.105,5.394 24.105,12.05 z" transform="scale(1.3333333)" style="fill:url(#I8660004db31f4c2a8df464b0c69588fc20251106152728);stroke:none" /> <path id="I185a9e515f6b4b02bbcb41d4b3b2551320251106152728" d="m 37.5,37.5 c 13.312,0 24.105,-5.398 24.105,-12.055 V 17.41 h -48.21 v 8.035 c 0,6.657 10.793,12.055 24.105,12.055 z" transform="scale(1.3333333)" style="fill:url(#I45d2d7e38bfa47bd94610c0a68cfc8f620251106152728);stroke:none" /> <path id="If10511faf99248c49b2f0940ada38e8020251106152728" d="m 61.605,17.41 c 0,6.656 -10.793,12.055 -24.105,12.055 -13.312,0 -24.105,-5.399 -24.105,-12.055 0,-6.656 10.793,-12.055 24.105,-12.055 13.312,0 24.105,5.399 24.105,12.055 z" transform="scale(1.3333333)" style="fill:url(#I3c2a8c4578424cdd95980512d13c4be520251106152728);stroke:none" /> </g>
</svg>

