<?xml version="1.0" encoding="UTF-8" standalone="no"?> <svg version="1.1" id="I159697f480d942a4824b29967069495620251106125937" width="100" height="100" viewBox="0 0 100 100" xmlns="http://www.w3.org/2000/svg" xmlns:svg="http://www.w3.org/2000/svg"> <defs id="I499d08c57660410a84b8613e8fb869dd20251106125937" /> <g id="I19bb069d5f6845cd9cdc92e114bbe39220251106125937"> <path id="Idd8b51c88d9c4b3b916e8e1fdcfc28fc20251106125937" d="m 65.625,12.5 c 1.602,0 2.922,1.207 3.105,2.762 l 0.02,0.363 v 20.313 c 0,5.839 -4.574,10.609 -10.336,10.921 l -0.602,0.016 h -40.89 l 10.289,10.289 c 1.125,1.129 1.211,2.898 0.258,4.125 l -0.258,0.297 c -1.129,1.125 -2.899,1.211 -4.125,0.258 L 22.789,61.586 7.164,45.961 C 7.055,45.848 6.953,45.73 6.863,45.609 L 6.641,45.262 6.473,44.91 6.363,44.582 6.285,44.215 6.262,44.031 6.25,43.75 6.258,43.516 6.312,43.121 6.406,42.773 6.543,42.426 6.707,42.121 6.906,41.836 7.164,41.539 22.789,25.914 c 1.223,-1.219 3.199,-1.219 4.422,0 1.125,1.129 1.211,2.898 0.258,4.125 l -0.258,0.297 -10.289,10.289 h 40.89 c 2.438,0 4.438,-1.859 4.665,-4.234 L 62.5,35.938 V 15.625 c 0,-1.727 1.398,-3.125 3.125,-3.125 z" style="fill:currentColor;fill-opacity:1;fill-rule:nonzero;stroke:none" transform="scale(1.3333333)" /> </g>
</svg>

