<?xml version="1.0" encoding="UTF-8" standalone="no"?> <svg version="1.1" id="I23fa7f14f74b46f5805905d5fe66e5da20251110123030" width="100" height="100" viewBox="0 0 100 100" xmlns="http://www.w3.org/2000/svg" xmlns:svg="http://www.w3.org/2000/svg"> <defs id="I1edf6c2277ce4e3cb632ab12f98d3d9d20251110123030" /> <g id="If00d91ac301f4de98a0c4e6cd92f976920251110123030"> <path id="Id3002f77520b42c8870c5427489f89ea20251110123030" d="m 37.5,37.5 c 9.062,0 16.406,-7.344 16.406,-16.406 0,-9.063 -7.344,-16.406 -16.406,-16.406 -9.062,0 -16.406,7.343 -16.406,16.406 0,9.062 7.344,16.406 16.406,16.406 z m -19.922,4.688 c -4.531,0 -8.203,3.671 -8.203,8.203 v 1.171 c 0,5.61 3.57,10.352 8.637,13.579 5.093,3.242 11.992,5.171 19.488,5.171 2.895,0 5.703,-0.289 8.352,-0.828 L 35.715,58.66 C 31.422,54.074 31.109,47.117 34.672,42.188 Z m 20.277,14.468 14.247,15.215 c 0.98,1.047 2.617,1.047 3.597,0 L 69.953,56.672 c 3.742,-3.996 3.578,-10.34 -0.367,-14.125 -4.133,-3.961 -10.691,-3.512 -14.262,0.98 L 53.898,45.32 52.477,43.527 C 48.906,39.039 42.344,38.59 38.219,42.555 c -3.09,2.968 -3.856,7.507 -2.235,11.254 0.016,0.031 0.032,0.066 0.047,0.101 0.438,0.988 1.047,1.918 1.824,2.746 z m 11.25,12.016 -11.25,-12.016 c -0.464,-0.496 -0.871,-1.031 -1.214,-1.59" style="fill:currentColor;fill-opacity:1;fill-rule:nonzero;stroke:none" transform="scale(1.3333333)" /> </g>
</svg>

