<?xml version="1.0" encoding="UTF-8" standalone="no"?> <svg version="1.1" id="I6eecdd1a76ce48aa9de1f6a30095fbfa20251106165302" width="100" height="100" viewBox="0 0 100 100" xmlns="http://www.w3.org/2000/svg" xmlns:svg="http://www.w3.org/2000/svg"> <defs id="I8d5c83820f62471a9ac6926c0b63340420251106165302" /> <g id="Ifd068a19f973448b8b67f88ddf620d9f20251106165302"> <path id="I197452dffe7443eeb3f3ac529855b8d620251106165302" d="M 37.5,5.355 C 19.746,5.355 5.355,19.746 5.355,37.5 c 0,8.176 3.055,15.637 8.083,21.309 L 33.762,38.992 c 2.078,-2.031 5.398,-2.031 7.476,0 L 61.562,58.809 C 66.59,53.137 69.645,45.676 69.645,37.5 69.645,19.746 55.254,5.355 37.5,5.355 Z M 58.719,61.645 38.434,41.867 c -0.52,-0.508 -1.348,-0.508 -1.868,0 L 16.281,61.645 c 5.66,4.98 13.09,8 21.219,8 8.129,0 15.555,-3.02 21.219,-8 z M 54.91,26.117 c 0,3.328 -2.699,6.028 -6.027,6.028 -3.328,0 -6.028,-2.7 -6.028,-6.028 0,-3.328 2.7,-6.027 6.028,-6.027 3.328,0 6.027,2.699 6.027,6.027 z" style="fill:currentColor;fill-opacity:1;fill-rule:nonzero;stroke:none" transform="scale(1.3333333)" /> </g>
</svg>

