<?xml version="1.0" encoding="UTF-8" standalone="no"?> <svg version="1.1" id="I86062384cb7c41c188deec39d07a955a20251110124421" width="100" height="100" viewBox="0 0 100 100" xmlns="http://www.w3.org/2000/svg" xmlns:svg="http://www.w3.org/2000/svg"> <defs id="I3597a0ecd7d6405d9d4845cc5353fbc220251110124421" /> <g id="Ic943f04c38084712ae73aa03afacf75720251110124421"> <path id="I7503847e57324599a22d9c29757bd1f120251110124421" d="m 53.125,9.383 c 5.176,0 9.371,4.191 9.371,9.367 0,5.176 -4.195,9.367 -9.371,9.367 -2.633,0 -5.008,-1.082 -6.711,-2.832 l -17.055,9.75 c 0.215,0.785 0.329,1.613 0.329,2.465 0,0.852 -0.114,1.68 -0.329,2.465 l 17.055,9.746 c 1.703,-1.746 4.082,-2.828 6.711,-2.828 5.176,0 9.371,4.191 9.371,9.367 0,5.176 -4.195,9.367 -9.371,9.367 -5.172,0 -9.367,-4.191 -9.367,-9.367 0,-0.852 0.113,-1.68 0.328,-2.465 l -17.055,-9.75 c -1.703,1.75 -4.082,2.832 -6.711,2.832 -5.175,0 -9.371,-4.191 -9.371,-9.367 0,-5.176 4.196,-9.367 9.371,-9.367 2.629,0 5.008,1.082 6.707,2.828 l 17.059,-9.746 c -0.215,-0.785 -0.328,-1.613 -0.328,-2.465 0,-5.176 4.195,-9.367 9.367,-9.367 z" style="fill:currentColor;fill-opacity:1;fill-rule:nonzero;stroke:none" transform="scale(1.3333333)" /> </g>
</svg>

