<?xml version="1.0" encoding="UTF-8" standalone="no"?> <svg version="1.1" id="I764b33a13f0245f6bed44bc4f73360c720251106123600" width="100" height="100" viewBox="0 0 100 100" xmlns="http://www.w3.org/2000/svg" xmlns:svg="http://www.w3.org/2000/svg"> <defs id="Ia3659e8dc6c14f439830a6a9d6d5164a20251106123600" /> <g id="I8c8c50c104fa448bbdb2137ed4264ac420251106123600"> <path id="I23a03aae57514532a5009ef9b469b98320251106123600" d="m 40.473,56.566 0.265,0.309 7.356,7.363 c 0.562,0.856 1.578,1.387 2.691,1.387 1.008,0 1.934,-0.437 2.516,-1.148 l 0.015,-0.024 0.141,-0.199 7.371,-7.379 0.266,-0.309 0.015,-0.019 c 0.809,-1.09 0.821,-2.582 0.032,-3.68 L 61.121,52.84 60.812,52.477 60.48,52.191 60.457,52.172 c -1.086,-0.805 -2.578,-0.817 -3.676,-0.027 l -0.027,0.019 -0.344,0.289 -2.504,2.504 V 12.176 L 53.879,11.84 53.875,11.809 c -0.223,-1.45 -1.598,-2.434 -3.094,-2.434 -1.5,0 -2.871,0.984 -3.093,2.434 l -0.004,0.031 -0.028,0.336 V 54.957 L 45.16,52.453 44.852,52.191 44.828,52.172 c -1.223,-0.906 -2.961,-0.805 -4.07,0.305 -1.11,1.109 -1.207,2.843 -0.301,4.07 z M 12.5,54.711 c 0,4.316 3.496,7.812 7.812,7.812 h 12.5 c 1.727,0 3.126,-1.398 3.126,-3.125 0,-1.726 -1.399,-3.125 -3.126,-3.125 h -12.5 c -0.863,0 -1.562,-0.699 -1.562,-1.562 V 20.336 c 0,-0.863 0.699,-1.563 1.562,-1.563 h 18.75 c 1.727,0 3.126,-1.398 3.126,-3.125 0,-1.726 -1.399,-3.125 -3.126,-3.125 h -18.75 c -4.316,0 -7.812,3.5 -7.812,7.813 z" style="fill:currentColor;fill-opacity:1;fill-rule:nonzero;stroke:none" transform="scale(1.3333333)" /> </g>
</svg>

