<?xml version="1.0" encoding="UTF-8" standalone="no"?> <svg version="1.1" id="I60f7bcb0c0b94aff8876f84c990aeb3220251106123559" width="100" height="100" viewBox="0 0 100 100" xmlns="http://www.w3.org/2000/svg" xmlns:svg="http://www.w3.org/2000/svg"> <defs id="I63e2944be0e548b4bff343b5c7ee0f7a20251106123559" /> <g id="I13666b4dc7c24da0a0b81ca59df8d4b920251106123559"> <path id="I2825baa5943a4ba5bb15dfcd1f2a409120251106123559" d="m 32.93,5.355 c -2.067,0 -3.664,1.809 -3.414,3.86 l 2.668,21.797 -7.246,0.379 -4.399,-7.7 c -0.801,-1.398 -2.285,-2.261 -3.898,-2.261 -1.793,0 -3.246,1.453 -3.246,3.246 V 32 l -2.739,0.145 c -2.933,0.031 -5.301,2.417 -5.301,5.355 0,2.938 2.368,5.324 5.301,5.355 L 13.395,43 v 7.324 c 0,1.793 1.453,3.246 3.246,3.246 1.613,0 3.097,-0.863 3.898,-2.261 l 4.399,-7.7 7.246,0.379 -2.668,21.797 c -0.25,2.051 1.347,3.86 3.414,3.86 1.918,0 3.66,-1.129 4.445,-2.879 l 9.871,-21.985 c 4.766,0.254 9.59,0.754 14.359,0.754 4.442,0 8.04,-3.597 8.04,-8.035 0,-4.438 -3.598,-8.035 -8.04,-8.035 -4.769,0 -9.593,0.5 -14.359,0.754 L 37.375,8.234 C 36.59,6.484 34.848,5.355 32.93,5.355 Z" style="fill:currentColor;fill-opacity:1;fill-rule:nonzero;stroke:none" transform="scale(1.3333333)" /> </g>
</svg>

