<?xml version="1.0" encoding="UTF-8" standalone="no"?> <svg version="1.1" id="I2350c856522b4d7290e6aff25b2699b720251110124421" width="100" height="100" viewBox="0 0 100 100" xmlns="http://www.w3.org/2000/svg" xmlns:svg="http://www.w3.org/2000/svg"> <defs id="If0b1cc017a5a4f3daadc97e00f482e6c20251110124421" /> <g id="I45a6d08bbc5d488fb8fcbf91898bf7d520251110124421"> <path id="I10732a18a9e84ec1873a76022ddfda2520251110124421" d="m 8.035,16.742 c 0,-4.808 3.899,-8.707 8.707,-8.707 h 41.516 c 4.808,0 8.707,3.899 8.707,8.707 v 41.516 c 0,4.808 -3.899,8.707 -8.707,8.707 H 16.742 c -4.808,0 -8.707,-3.899 -8.707,-8.707 z m 30.805,4.016 c 0,-1.11 -0.899,-2.008 -2.008,-2.008 -1.109,0 -2.012,0.898 -2.012,2.008 v 18.75 c 0,1.109 0.903,2.012 2.012,2.012 h 14.73 c 1.11,0 2.008,-0.903 2.008,-2.012 0,-1.11 -0.898,-2.008 -2.008,-2.008 H 38.84 Z" style="fill:currentColor;fill-opacity:1;fill-rule:nonzero;stroke:none" transform="scale(1.3333333)" /> </g>
</svg>

