<?xml version="1.0" encoding="UTF-8" standalone="no"?> <svg version="1.1" id="I0b815811e87a401c8fae9e99fc73552320251106151526" width="100" height="100" viewBox="0 0 100 100" xmlns="http://www.w3.org/2000/svg" xmlns:svg="http://www.w3.org/2000/svg"> <defs id="I213dc53db0964427956c20dd1a0749e920251106151526" /> <g id="I0d715c5b79154e6fab7611ebcff3d79e20251106151526"> <path id="Ia4db4ff3ad464c0f9ca417617158c48820251106151526" d="m 30.422,3.227 c 1.273,0.285 2.539,0.683 3.781,1.203 1.242,0.519 2.418,1.132 3.52,1.836 0.933,0.597 1.207,1.839 0.609,2.773 -0.598,0.938 -1.84,1.211 -2.773,0.613 C 34.652,9.074 33.688,8.566 32.656,8.137 31.629,7.711 30.586,7.379 29.539,7.145 28.457,6.902 27.777,5.828 28.02,4.746 28.266,3.66 29.34,2.98 30.422,3.227 Z m -7.465,1.507 c 0.238,1.086 -0.445,2.157 -1.527,2.395 -2.137,0.473 -4.18,1.312 -6.028,2.484 -0.937,0.59 -2.179,0.313 -2.773,-0.625 -0.59,-0.937 -0.313,-2.179 0.625,-2.773 2.242,-1.418 4.719,-2.438 7.308,-3.008 1.086,-0.238 2.157,0.445 2.395,1.527 z m 18.949,7.895 c 0.938,-0.594 2.176,-0.313 2.77,0.625 1.422,2.242 2.441,4.719 3.012,7.308 l 0.007,0.04 c 0.012,0.039 0.02,0.074 0.028,0.113 0.234,1.113 0.39,2.262 0.457,3.43 -1.364,0.07 -2.7,0.25 -4,0.531 -0.043,-1.071 -0.176,-2.117 -0.391,-3.133 l -0.004,-0.02 C 43.777,21.492 43.77,21.461 43.762,21.426 43.293,19.293 42.453,17.25 41.281,15.402 40.688,14.465 40.969,13.223 41.906,12.629 Z M 24.676,44.18 c -1.071,-0.043 -2.117,-0.176 -3.129,-0.391 -0.031,-0.004 -0.063,-0.012 -0.09,-0.016 -0.035,-0.007 -0.07,-0.019 -0.102,-0.027 -1.05,-0.234 -2.089,-0.562 -3.121,-0.992 -1.027,-0.426 -1.996,-0.938 -2.898,-1.512 -0.938,-0.597 -2.18,-0.324 -2.774,0.61 -0.597,0.937 -0.324,2.179 0.61,2.773 1.101,0.703 2.277,1.32 3.519,1.84 1.243,0.515 2.508,0.918 3.782,1.203 0.039,0.008 0.074,0.016 0.113,0.023 0.043,0.012 0.086,0.02 0.129,0.032 1.117,0.234 2.262,0.39 3.43,0.453 0.074,-1.364 0.253,-2.696 0.531,-3.996 z M 9.039,12.559 c 0.938,0.597 1.211,1.839 0.613,2.777 -0.578,0.902 -1.086,1.871 -1.511,2.898 -0.43,1.028 -0.758,2.071 -0.996,3.118 C 6.902,22.438 5.828,23.117 4.746,22.871 3.664,22.629 2.98,21.555 3.227,20.473 3.512,19.199 3.914,17.934 4.43,16.691 4.949,15.445 5.566,14.273 6.266,13.172 6.863,12.238 8.105,11.965 9.039,12.559 Z M 4.738,27.938 c 1.082,-0.243 2.153,0.445 2.395,1.527 0.469,2.137 1.308,4.18 2.48,6.027 0.594,0.938 0.313,2.176 -0.625,2.77 C 8.051,38.855 6.812,38.578 6.219,37.641 4.797,35.398 3.777,32.922 3.207,30.332 2.969,29.246 3.652,28.176 4.738,27.938 Z M 61.02,44.945 c 0.785,-0.781 0.785,-2.054 0,-2.84 -0.786,-0.785 -2.059,-0.785 -2.84,0 L 46.875,53.41 40.93,47.465 c -0.785,-0.785 -2.059,-0.785 -2.84,0 -0.785,0.781 -0.785,2.055 0,2.84 l 7.363,7.367 c 0.785,0.781 2.059,0.781 2.844,0 z m -34.235,4.61 c 0,-12.575 10.195,-22.77 22.77,-22.77 12.574,0 22.765,10.195 22.765,22.77 0,12.574 -10.191,22.765 -22.765,22.765 -12.575,0 -22.77,-10.191 -22.77,-22.765 z m 22.77,-18.75 c -10.356,0 -18.75,8.394 -18.75,18.75 0,10.355 8.394,18.75 18.75,18.75 10.355,0 18.75,-8.395 18.75,-18.75 0,-10.356 -8.395,-18.75 -18.75,-18.75 z" style="fill:currentColor;fill-opacity:1;fill-rule:nonzero;stroke:none" transform="scale(1.3333333)" /> </g>
</svg>

