<?xml version="1.0" encoding="UTF-8" standalone="no"?> <svg version="1.1" id="I6fa50eb5a6d0476997b559c59950894a20251110123031" width="100" height="100" viewBox="0 0 100 100" xmlns="http://www.w3.org/2000/svg" xmlns:svg="http://www.w3.org/2000/svg"> <defs id="I695bb876618e47a2bf64fd906192cf0620251110123031" /> <g id="I890da409f61c498eb5101c4f913d4ea020251110123031"> <path id="I0342f535522849b7988618195843bd5d20251110123031" d="m 37.5,50.895 c -2.211,0 -4.105,-1.34 -4.926,-3.25 -0.871,-0.204 -1.722,-0.461 -2.547,-0.77 -0.015,-0.004 -0.031,-0.012 -0.047,-0.016 -2.464,-0.925 -4.714,-2.293 -6.656,-4.004 -4.445,-3.925 -7.254,-9.667 -7.254,-16.07 0,-11.836 9.594,-21.43 21.43,-21.43 11.156,0 20.324,8.532 21.336,19.422 0.102,1.106 -0.809,2.008 -1.918,2.008 -1.109,0 -1.996,-0.902 -2.121,-2.004 C 53.801,16.109 46.438,9.375 37.5,9.375 c -9.617,0 -17.41,7.797 -17.41,17.41 0,7.238 4.418,13.445 10.703,16.07 0.035,0.016 0.07,0.032 0.105,0.047 0.54,0.219 1.09,0.414 1.653,0.582 0.09,-0.218 0.191,-0.425 0.308,-0.629 0.926,-1.597 2.657,-2.675 4.641,-2.675 1.984,0 3.715,1.078 4.641,2.675 0.023,0.043 0.047,0.086 0.07,0.125 0.41,0.762 0.644,1.629 0.644,2.555 0,0.461 -0.058,0.91 -0.167,1.34 -0.594,2.309 -2.692,4.02 -5.188,4.02 z m -18.75,-4.02 h 3.129 c -1.496,-1.168 -2.859,-2.496 -4.067,-3.965 -3.996,0.465 -7.097,3.86 -7.097,7.985 v 1.914 c 0,9.961 11.277,16.836 26.785,16.836 15.508,0 26.785,-7.254 26.785,-16.836 v -1.914 c 0,-4.442 -3.597,-8.04 -8.035,-8.04 h -9.762 c 0.25,0.852 0.387,1.75 0.387,2.68 0,0.457 -0.031,0.903 -0.094,1.34 h 9.469 l 0.387,0.02 c 2.039,0.195 3.633,1.91 3.633,4 v 1.914 l -0.016,0.429 c -0.375,6.75 -9.559,12.387 -22.754,12.387 -13.691,0 -22.77,-5.656 -22.77,-12.816 v -1.914 l 0.02,-0.391 c 0.195,-2.035 1.91,-3.629 4,-3.629 z m 32.145,-20.09 c 0,5.117 -2.872,9.563 -7.086,11.817 C 42.145,37.086 39.93,36.16 37.5,36.16 c 5.176,0 9.375,-4.195 9.375,-9.375 0,-5.176 -4.199,-9.375 -9.375,-9.375 -5.176,0 -9.375,4.199 -9.375,9.375 0,5.18 4.199,9.375 9.375,9.375 -2.434,0 -4.645,0.926 -6.309,2.442 -2.136,-1.145 -3.929,-2.848 -5.175,-4.922 -1.211,-2.012 -1.911,-4.375 -1.911,-6.895 0,-7.394 5.997,-13.39 13.395,-13.39 3.348,0 6.406,1.226 8.754,3.257 2.844,2.453 4.641,6.086 4.641,10.133 z" style="fill:currentColor;fill-opacity:1;fill-rule:nonzero;stroke:none" transform="scale(1.3333333)" /> </g>
</svg>

