<?xml version="1.0" encoding="UTF-8" standalone="no"?> <svg version="1.1" id="Ic44a4aa987844dc48f6d87acad9b9b7d20251106151526" width="100" height="100" viewBox="0 0 100 100" xmlns="http://www.w3.org/2000/svg" xmlns:svg="http://www.w3.org/2000/svg"> <defs id="If941f82ca3664394bc391c77345d9cda20251106151526" /> <g id="I5c1bcce9f03b45dcba6c8e697011e63d20251106151526"> <path id="Ib92631c169c14825a50df3fe5fa1b3f320251106151526" d="M 42.969,10.938 H 32.031 c -1.293,0 -2.343,1.05 -2.343,2.343 0,1.293 1.05,2.344 2.343,2.344 h 10.938 c 1.293,0 2.343,-1.051 2.343,-2.344 0,-1.293 -1.05,-2.343 -2.343,-2.343 z m 0,-4.688 c 3.558,0 6.5,2.645 6.969,6.078 l 0.039,0.422 -0.02,-0.25 h 5.512 c 3.883,0 7.031,3.148 7.031,7.031 v 42.188 c 0,3.883 -3.148,7.031 -7.031,7.031 H 19.531 C 15.648,68.75 12.5,65.602 12.5,61.719 V 19.531 c 0,-3.883 3.148,-7.031 7.031,-7.031 h 5.512 l -0.023,0.25 0.042,-0.422 C 25.531,8.895 28.473,6.25 32.031,6.25 Z M 43.75,53.125 H 25 c -1.293,0 -2.344,1.051 -2.344,2.344 0,1.293 1.051,2.343 2.344,2.343 h 18.75 c 1.293,0 2.344,-1.05 2.344,-2.343 0,-1.293 -1.051,-2.344 -2.344,-2.344 z M 37.5,40.625 H 25 c -1.293,0 -2.344,1.051 -2.344,2.344 0,1.293 1.051,2.343 2.344,2.343 h 12.5 c 1.293,0 2.344,-1.05 2.344,-2.343 0,-1.293 -1.051,-2.344 -2.344,-2.344 z M 50,28.125 H 25 c -1.293,0 -2.344,1.051 -2.344,2.344 0,1.293 1.051,2.343 2.344,2.343 h 25 c 1.293,0 2.344,-1.05 2.344,-2.343 0,-1.293 -1.051,-2.344 -2.344,-2.344 z" style="fill:currentColor;fill-opacity:1;fill-rule:nonzero;stroke:none" transform="scale(1.3333333)" /> </g>
</svg>

