<?xml version="1.0" encoding="UTF-8" standalone="no"?> <svg version="1.1" id="Iecb5a5a78fa848f08144166cca85f06820251110124420" width="100" height="100" viewBox="0 0 100 100" xmlns="http://www.w3.org/2000/svg" xmlns:svg="http://www.w3.org/2000/svg"> <defs id="I9d3fa31223cd4a4f90ca87959e2f245e20251110124420" /> <g id="I8a460faefda249239a6c42ac17c047b020251110124420"> <path id="Ib7e6bf53714446f8948174763e5cf1a020251110124420" d="M 31.473,8.035 H 18.082 c -5.551,0 -10.047,4.496 -10.047,10.047 v 5.356 c 0,1.109 0.899,2.007 2.008,2.007 1.109,0 2.012,-0.898 2.012,-2.007 v -5.356 c 0,-3.332 2.695,-6.027 6.027,-6.027 h 13.391 c 1.109,0 2.007,-0.903 2.007,-2.012 0,-1.109 -0.898,-2.008 -2.007,-2.008 z M 8.035,56.918 c 0,5.551 4.496,10.047 10.047,10.047 h 17.41 c 5.547,0 10.043,-4.496 10.043,-10.047 v -17.41 c 0,-5.547 -4.496,-10.043 -10.043,-10.043 h -17.41 c -5.551,0 -10.047,4.496 -10.047,10.043 z m 43.527,10.047 c -1.109,0 -2.007,-0.899 -2.007,-2.008 0,-1.109 0.898,-2.012 2.007,-2.012 h 5.356 c 3.328,0 6.027,-2.699 6.027,-6.027 V 43.527 c 0,-1.109 0.903,-2.007 2.012,-2.007 1.109,0 2.008,0.898 2.008,2.007 v 13.391 c 0,5.551 -4.496,10.047 -10.047,10.047 z M 66.965,31.473 c 0,1.109 -0.899,2.007 -2.008,2.007 -1.109,0 -2.012,-0.898 -2.012,-2.007 V 18.082 c 0,-3.332 -2.699,-6.027 -6.027,-6.027 H 43.527 c -1.109,0 -2.007,-0.903 -2.007,-2.012 0,-1.109 0.898,-2.008 2.007,-2.008 h 13.391 c 5.551,0 10.047,4.496 10.047,10.047 z" style="fill:currentColor;fill-opacity:1;fill-rule:nonzero;stroke:none" transform="scale(1.3333333)" /> </g>
</svg>

