<?xml version="1.0" encoding="UTF-8" standalone="no"?> <svg version="1.1" id="I219cdb3f87e441ed8fbcca4eb95211f320251106165302" width="100" height="100" viewBox="0 0 100 100" xmlns="http://www.w3.org/2000/svg" xmlns:svg="http://www.w3.org/2000/svg"> <defs id="I96d0916edae44ecaafa5d064fc0c526720251106165302" /> <g id="I910ac34f15e54794b8610f53bfb785e420251106165302"> <path id="I8b4fc4fd6f0447a99c26695dd6a90ef920251106165302" d="m 66.406,60.938 c 1.293,0 2.344,1.05 2.344,2.343 0,1.188 -0.883,2.168 -2.027,2.324 l -0.317,0.02 H 8.594 c -1.293,0 -2.344,-1.051 -2.344,-2.344 0,-1.187 0.883,-2.168 2.027,-2.324 L 8.594,60.938 Z M 61.703,9.375 c 3.883,0 7.031,3.148 7.031,7.031 v 29.703 c 0,3.883 -3.148,7.032 -7.031,7.032 H 41.324 c -0.367,1.773 -1.941,3.109 -3.824,3.109 -1.883,0 -3.457,-1.336 -3.824,-3.109 H 13.281 C 9.398,53.141 6.25,49.992 6.25,46.109 V 16.406 c 0,-3.883 3.148,-7.031 7.031,-7.031 z M 53.906,39.062 H 21.094 l -0.317,0.02 c -1.144,0.156 -2.027,1.137 -2.027,2.324 0,1.188 0.883,2.168 2.027,2.324 l 0.317,0.02 h 32.812 l 0.317,-0.02 c 1.144,-0.156 2.027,-1.136 2.027,-2.324 0,-1.187 -0.883,-2.168 -2.027,-2.324 z M 51.562,28.125 c -1.726,0 -3.124,1.398 -3.124,3.125 0,1.727 1.398,3.125 3.124,3.125 1.727,0 3.126,-1.398 3.126,-3.125 0,-1.727 -1.399,-3.125 -3.126,-3.125 z m -18.734,0 c -1.726,0 -3.125,1.398 -3.125,3.125 0,1.727 1.399,3.125 3.125,3.125 1.727,0 3.125,-1.398 3.125,-3.125 0,-1.727 -1.398,-3.125 -3.125,-3.125 z m -9.375,0 c -1.726,0 -3.125,1.398 -3.125,3.125 0,1.727 1.399,3.125 3.125,3.125 1.727,0 3.125,-1.398 3.125,-3.125 0,-1.727 -1.398,-3.125 -3.125,-3.125 z m 18.75,0 c -1.726,0 -3.125,1.398 -3.125,3.125 0,1.727 1.399,3.125 3.125,3.125 1.727,0 3.125,-1.398 3.125,-3.125 0,-1.727 -1.398,-3.125 -3.125,-3.125 z M 18.75,18.75 c -1.727,0 -3.125,1.398 -3.125,3.125 0,1.727 1.398,3.125 3.125,3.125 1.727,0 3.125,-1.398 3.125,-3.125 0,-1.727 -1.398,-3.125 -3.125,-3.125 z m 9.359,0 c -1.726,0 -3.125,1.398 -3.125,3.125 0,1.727 1.399,3.125 3.125,3.125 1.727,0 3.125,-1.398 3.125,-3.125 0,-1.727 -1.398,-3.125 -3.125,-3.125 z m 9.375,0 c -1.726,0 -3.125,1.398 -3.125,3.125 0,1.727 1.399,3.125 3.125,3.125 1.727,0 3.125,-1.398 3.125,-3.125 0,-1.727 -1.398,-3.125 -3.125,-3.125 z m 9.375,0 c -1.726,0 -3.125,1.398 -3.125,3.125 0,1.727 1.399,3.125 3.125,3.125 1.727,0 3.125,-1.398 3.125,-3.125 0,-1.727 -1.398,-3.125 -3.125,-3.125 z m 9.375,0 c -1.726,0 -3.125,1.398 -3.125,3.125 0,1.727 1.399,3.125 3.125,3.125 1.727,0 3.125,-1.398 3.125,-3.125 0,-1.727 -1.398,-3.125 -3.125,-3.125 z" style="fill:currentColor;fill-opacity:1;fill-rule:nonzero;stroke:none" transform="scale(1.3333333)" /> </g>
</svg>

