<?xml version="1.0" encoding="UTF-8" standalone="no"?> <svg version="1.1" id="I73f5d70df3404a7491b152c006c457b820251106132945" width="100" height="100" viewBox="0 0 100 100" xmlns="http://www.w3.org/2000/svg" xmlns:svg="http://www.w3.org/2000/svg"> <defs id="I7f5a4d4d78b94baa8322273eeea770f520251106132945" /> <g id="Icc780bbbb4f140acb2970b383ad4809b20251106132945"> <path id="Ice7d4342f97949c69c5340c91b504ae920251106132945" d="M 42.965,57.812 H 66.57 l 0.313,-0.042 0.308,-0.086 0.192,-0.082 c 0.246,-0.11 0.476,-0.266 0.683,-0.469 l 0.125,-0.141 0.137,-0.176 0.168,-0.281 0.121,-0.281 0.063,-0.199 0.039,-0.203 0.031,-0.293 V 32.02 c 0,-1.293 -1.047,-2.344 -2.344,-2.344 -1.183,0 -2.164,0.883 -2.32,2.027 L 64.062,32.02 V 49.816 L 39.941,25.691 c -0.832,-0.832 -2.132,-0.91 -3.05,-0.226 L 36.625,25.691 27.344,34.973 10.25,17.879 c -0.914,-0.914 -2.398,-0.914 -3.312,0 -0.833,0.832 -0.911,2.137 -0.227,3.055 l 0.227,0.261 18.75,18.75 c 0.832,0.832 2.132,0.907 3.05,0.227 L 29,39.945 38.285,30.664 60.742,53.125 H 42.965 c -1.188,0 -2.168,0.883 -2.32,2.027 l -0.024,0.317 c 0,1.187 0.883,2.168 2.027,2.324 z" style="fill:currentColor;fill-opacity:1;fill-rule:nonzero;stroke:none" transform="scale(1.3333333)" /> </g>
</svg>

