<?xml version="1.0" encoding="UTF-8" standalone="no"?> <svg version="1.1" id="If51f3a3ecbaa4c43ab96accf88ad646e20251106144520" width="100" height="100" viewBox="0 0 100 100" xmlns="http://www.w3.org/2000/svg" xmlns:svg="http://www.w3.org/2000/svg"> <defs id="I8b24528010184a31a0df5ec1ed35a15720251106144520" /> <g id="Ide2ff42e71f04678ad542df6ff955a7320251106144520"> <path id="I4ce8b9b60ed649339ccaba00b81e11ed20251106144520" d="m 14.062,11.719 c 0,-1.293 -1.05,-2.344 -2.343,-2.344 -1.293,0 -2.344,1.051 -2.344,2.344 v 51.562 c 0,1.293 1.051,2.344 2.344,2.344 1.293,0 2.343,-1.051 2.343,-2.344 z m 46.876,0 c 0,-1.293 1.05,-2.344 2.343,-2.344 1.293,0 2.344,1.051 2.344,2.344 v 51.562 c 0,1.293 -1.051,2.344 -2.344,2.344 -1.293,0 -2.343,-1.051 -2.343,-2.344 z M 32.031,15.625 C 28.148,15.625 25,18.773 25,22.656 v 29.688 c 0,3.883 3.148,7.031 7.031,7.031 H 42.969 C 46.852,59.375 50,56.227 50,52.344 V 22.656 c 0,-3.883 -3.148,-7.031 -7.031,-7.031 z m -2.343,7.031 c 0,-1.293 1.05,-2.344 2.343,-2.344 h 10.938 c 1.293,0 2.343,1.051 2.343,2.344 v 29.688 c 0,1.293 -1.05,2.344 -2.343,2.344 H 32.031 c -1.293,0 -2.343,-1.051 -2.343,-2.344 z" style="fill:currentColor;fill-opacity:1;fill-rule:nonzero;stroke:none" transform="scale(1.3333333)" /> </g>
</svg>

