<?xml version="1.0" encoding="UTF-8" standalone="no"?> <svg version="1.1" id="I89124a37b3f44207bd2b39ecc63576f520251106151527" width="100" height="100" viewBox="0 0 100 100" xmlns="http://www.w3.org/2000/svg" xmlns:svg="http://www.w3.org/2000/svg"> <defs id="I0dd0653de12c490293aa1e5707e98eb420251106151527" /> <g id="I0b8da47a1c3441e7949ebd9cb296840820251106151527"> <path id="Ie164d0437f964b28a575f816f698512520251106151527" d="M 25.781,32.812 H 23.438 V 37.5 h 2.343 c 0.625,0 1.219,-0.25 1.66,-0.684 0.442,-0.437 0.684,-1.035 0.684,-1.66 0,-0.625 -0.25,-1.218 -0.684,-1.66 C 27,33.055 26.406,32.812 25.781,32.812 Z M 57.422,14.062 H 12.891 c -4.524,0 -8.203,3.68 -8.203,8.204 v 35.156 c 0,4.523 3.679,8.203 8.203,8.203 h 44.531 c 4.523,0 8.203,-3.68 8.203,-8.203 V 22.266 c 0,-4.524 -3.68,-8.204 -8.203,-8.204 z M 30.754,40.129 c -1.316,1.316 -3.106,2.059 -4.973,2.059 h -2.343 v 7.031 c 0,0.625 -0.25,1.219 -0.684,1.66 -0.442,0.441 -1.035,0.683 -1.66,0.683 -0.625,0 -1.219,-0.25 -1.66,-0.683 -0.442,-0.441 -0.684,-1.035 -0.684,-1.66 v -18.75 c 0,-0.625 0.25,-1.219 0.684,-1.66 0.441,-0.442 1.035,-0.684 1.66,-0.684 h 4.687 c 1.867,0 3.653,0.742 4.973,2.059 1.324,1.316 2.058,3.105 2.058,4.972 0,1.867 -0.742,3.653 -2.058,4.973 z m 22.684,-8.254 -6.563,8.746 v 8.598 c 0,0.625 -0.25,1.219 -0.684,1.66 -0.441,0.441 -1.035,0.683 -1.66,0.683 -0.625,0 -1.219,-0.25 -1.66,-0.683 -0.441,-0.441 -0.683,-1.035 -0.683,-1.66 v -8.598 l -6.563,-8.746 c -0.184,-0.25 -0.32,-0.523 -0.395,-0.824 -0.074,-0.301 -0.093,-0.61 -0.05,-0.914 0.043,-0.305 0.144,-0.602 0.304,-0.864 0.161,-0.261 0.368,-0.496 0.61,-0.679 0.496,-0.375 1.121,-0.535 1.738,-0.446 0.613,0.09 1.172,0.418 1.543,0.914 l 5.156,6.876 5.157,-6.876 c 0.374,-0.496 0.929,-0.824 1.542,-0.914 0.614,-0.089 1.243,0.071 1.739,0.446 0.496,0.375 0.824,0.929 0.914,1.543 0.09,0.613 -0.071,1.242 -0.445,1.738 z" style="fill:currentColor;fill-opacity:1;fill-rule:nonzero;stroke:none" transform="scale(1.3333333)" /> </g>
</svg>

