<?xml version="1.0" encoding="UTF-8" standalone="no"?> <svg version="1.1" id="I12b476947909479ea030c80bd292359520251110133655" width="100" height="100" viewBox="0 0 100 100" xmlns="http://www.w3.org/2000/svg" xmlns:svg="http://www.w3.org/2000/svg"> <defs id="I080382838d3c4077b9848d30e16b5d5f20251110133655" /> <g id="I32eae9c453554b65a0d9e8eefb75d7fd20251110133655"> <path id="I6af79ff2a4eb49ef95a3fe564efcb05120251110133655" d="m 9.375,19.531 c 0,-5.609 4.547,-10.156 10.156,-10.156 H 31.25 c 1.727,0 3.125,1.398 3.125,3.125 0,1.727 -1.398,3.125 -3.125,3.125 H 19.531 c -2.156,0 -3.906,1.75 -3.906,3.906 V 31.25 c 0,1.727 -1.398,3.125 -3.125,3.125 -1.727,0 -3.125,-1.398 -3.125,-3.125 z M 40.625,12.5 c 0,-1.727 1.398,-3.125 3.125,-3.125 h 11.719 c 5.609,0 10.156,4.547 10.156,10.156 V 31.25 c 0,1.727 -1.398,3.125 -3.125,3.125 -1.727,0 -3.125,-1.398 -3.125,-3.125 V 19.531 c 0,-2.156 -1.75,-3.906 -3.906,-3.906 H 43.75 c -1.727,0 -3.125,-1.398 -3.125,-3.125 z M 12.5,40.625 c 1.727,0 3.125,1.398 3.125,3.125 V 54.957 L 29.766,40.816 c 4.273,-4.273 11.195,-4.273 15.468,0 L 59.375,54.957 V 43.75 c 0,-1.727 1.398,-3.125 3.125,-3.125 1.727,0 3.125,1.398 3.125,3.125 v 11.719 c 0,5.609 -4.547,10.156 -10.156,10.156 H 43.75 c -1.727,0 -3.125,-1.398 -3.125,-3.125 0,-1.727 1.398,-3.125 3.125,-3.125 H 54.957 L 40.816,45.234 c -1.832,-1.832 -4.8,-1.832 -6.632,0 L 20.043,59.375 H 31.25 c 1.727,0 3.125,1.398 3.125,3.125 0,1.727 -1.398,3.125 -3.125,3.125 H 19.531 C 13.922,65.625 9.375,61.078 9.375,55.469 V 43.75 c 0,-1.727 1.398,-3.125 3.125,-3.125 z M 54.688,27.344 c 0,3.883 -3.149,7.031 -7.032,7.031 -3.883,0 -7.031,-3.148 -7.031,-7.031 0,-3.883 3.148,-7.032 7.031,-7.032 3.883,0 7.032,3.149 7.032,7.032 z" style="fill:currentColor;fill-opacity:1;fill-rule:nonzero;stroke:none" transform="scale(1.3333333)" /> </g>
</svg>

