<?xml version="1.0" encoding="UTF-8" standalone="no"?> <svg version="1.1" id="I503ff26ad5e245579466dd4f2bdc9e9320251106164749" width="100" height="100" viewBox="0 0 100 100" xmlns="http://www.w3.org/2000/svg" xmlns:svg="http://www.w3.org/2000/svg"> <defs id="I305ce77b3a7d4502b5818908b05b78ce20251106164749" /> <g id="I5864b7a7708849a7a73acab5c7c8318920251106164749"> <path id="I67ec3af2aee54636acdc76bc038cb1c320251106164749" d="m 59.766,25.781 c 5.824,0 10.546,4.723 10.546,10.547 v 23.438 c 0,5.824 -4.722,10.546 -10.546,10.546 H 36.328 c -5.824,0 -10.547,-4.722 -10.547,-10.546 V 36.328 c 0,-5.824 4.723,-10.547 10.547,-10.547 z M 39.844,49.219 c -3.883,0 -7.032,3.148 -7.032,7.031 0,3.883 3.149,7.031 7.032,7.031 3.883,0 7.031,-3.148 7.031,-7.031 0,-3.883 -3.148,-7.031 -7.031,-7.031 z m 0,4.687 c 1.293,0 2.344,1.051 2.344,2.344 0,1.293 -1.051,2.344 -2.344,2.344 -1.293,0 -2.344,-1.051 -2.344,-2.344 0,-1.293 1.051,-2.344 2.344,-2.344 z m 14.062,0 c -1.293,0 -2.344,1.051 -2.344,2.344 0,1.293 1.051,2.344 2.344,2.344 h 7.032 c 1.292,0 2.343,-1.051 2.343,-2.344 0,-1.293 -1.051,-2.344 -2.343,-2.344 z M 35.148,5.051 c 5.625,-1.508 11.411,1.828 12.918,7.457 l 2.614,9.758 H 36.332 c -7.766,0 -14.062,6.296 -14.062,14.062 V 54.441 C 17.246,54.906 12.469,51.707 11.117,46.672 L 5.051,24.031 C 3.543,18.406 6.883,12.621 12.508,11.113 Z m 4.696,27.761 c -3.883,0 -7.032,3.149 -7.032,7.032 0,3.883 3.149,7.031 7.032,7.031 3.883,0 7.031,-3.148 7.031,-7.031 0,-3.883 -3.148,-7.032 -7.031,-7.032 z m 0,4.688 c 1.293,0 2.344,1.051 2.344,2.344 0,1.293 -1.051,2.344 -2.344,2.344 -1.293,0 -2.344,-1.051 -2.344,-2.344 0,-1.293 1.051,-2.344 2.344,-2.344 z m 14.062,0 c -1.293,0 -2.344,1.051 -2.344,2.344 0,1.293 1.051,2.344 2.344,2.344 h 7.032 c 1.292,0 2.343,-1.051 2.343,-2.344 0,-1.293 -1.051,-2.344 -2.343,-2.344 z" style="fill:currentColor;fill-opacity:1;fill-rule:nonzero;stroke:none" transform="scale(1.3333333)" /> </g>
</svg>

