<?xml version="1.0" encoding="UTF-8" standalone="no"?> <svg version="1.1" id="I76c5be3c57f9485285e2e9559c85719120251110123031" width="100" height="100" viewBox="0 0 100 100" xmlns="http://www.w3.org/2000/svg" xmlns:svg="http://www.w3.org/2000/svg"> <defs id="Ia1ebf2a69ac74eeca8e9c50da9addd7c20251110123031" /> <g id="I2a1ec97067314874a59e55ec6bd4793d20251110123031"> <path id="Ifd361fb58e654ed3813b92f75d8bc63e20251110123031" d="M 41.242,23.664 59.688,5.219 c 2.789,-2.793 7.312,-2.793 10.101,0 2.789,2.789 2.789,7.308 0,10.101 L 51.344,33.762 c -1.074,1.078 -2.422,1.84 -3.899,2.207 l -5.722,1.433 c -2.489,0.621 -4.739,-1.632 -4.118,-4.121 l 1.43,-5.722 c 0.367,-1.473 1.133,-2.821 2.207,-3.895 z M 49.219,6.25 c 1.426,0 2.754,0.426 3.863,1.152 l -3.555,3.555 C 49.426,10.945 49.324,10.938 49.219,10.938 H 25.781 c -1.293,0 -2.343,1.05 -2.343,2.343 v 48.438 c 0,1.293 1.05,2.343 2.343,2.343 h 23.438 c 1.293,0 2.343,-1.05 2.343,-2.343 V 37.566 c 0.719,-0.453 1.387,-0.988 1.993,-1.593 l 2.695,-2.696 v 28.442 c 0,3.883 -3.148,7.031 -7.031,7.031 H 25.781 c -3.883,0 -7.031,-3.148 -7.031,-7.031 V 13.281 c 0,-3.883 3.148,-7.031 7.031,-7.031 z m -7.817,48.438 c 1.293,0 2.348,1.046 2.348,2.339 0,1.293 -1.047,2.348 -2.34,2.348 l -7.812,0.012 c -1.293,0.004 -2.348,-1.047 -2.348,-2.34 0,-1.293 1.047,-2.344 2.34,-2.348 z" style="fill:currentColor;fill-opacity:1;fill-rule:nonzero;stroke:none" transform="scale(1.3333333)" /> </g>
</svg>

