<?xml version="1.0" encoding="UTF-8" standalone="no"?> <svg version="1.1" id="I949b26c67a7349739c06468f86f08d9d20251110123030" width="100" height="100" viewBox="0 0 100 100" xmlns="http://www.w3.org/2000/svg" xmlns:svg="http://www.w3.org/2000/svg"> <defs id="Id8eae4cd6bdb43cf9afc5badda05f1f520251110123030" /> <g id="I3d10965f7ac24ec1b2f904dcb0ed415e20251110123030"> <path id="Idc148326469e49068bbc0e9b31b336b720251110123030" d="m 25.445,34.82 c 6.657,0 12.055,-5.394 12.055,-12.05 0,-6.661 -5.398,-12.055 -12.055,-12.055 -6.656,0 -12.05,5.394 -12.05,12.055 0,6.656 5.394,12.05 12.05,12.05 z m 37.5,-9.375 c 0,5.18 -4.195,9.375 -9.375,9.375 -5.175,0 -9.375,-4.195 -9.375,-9.375 0,-5.175 4.2,-9.375 9.375,-9.375 5.18,0 9.375,4.2 9.375,9.375 z M 5.355,46.207 c 0,-3.328 2.7,-6.027 6.028,-6.027 h 28.125 c 0.531,0 1.047,0.066 1.535,0.195 -3.832,3.66 -6.223,8.816 -6.223,14.535 0,1.781 0.235,3.508 0.668,5.149 -2.609,0.949 -5.898,1.546 -10.043,1.546 -20.09,0 -20.09,-14.062 -20.09,-14.062 z M 72.32,54.91 c 0,9.617 -7.793,17.41 -17.41,17.41 -9.617,0 -17.41,-7.793 -17.41,-17.41 0,-9.617 7.793,-17.41 17.41,-17.41 9.617,0 17.41,7.793 17.41,17.41 z M 56.824,44.305 c -0.601,-1.93 -3.222,-1.93 -3.824,0 l -1.922,6.156 h -6.207 c -1.945,0 -2.758,2.598 -1.18,3.793 l 5.02,3.801 -1.918,6.156 c -0.602,1.93 1.519,3.535 3.094,2.344 l 5.023,-3.805 5.024,3.805 c 1.574,1.191 3.695,-0.414 3.093,-2.344 l -1.918,-6.156 5.024,-3.801 c 1.574,-1.195 0.765,-3.793 -1.184,-3.793 h -6.207 z" style="fill:currentColor;fill-opacity:1;fill-rule:nonzero;stroke:none" transform="scale(1.3333333)" /> </g>
</svg>

