<?xml version="1.0" encoding="UTF-8" standalone="no"?> <svg version="1.1" id="I0d4300556a58489eae0589ca8bf7746920251110123031" width="100" height="100" viewBox="0 0 100 100" xmlns="http://www.w3.org/2000/svg" xmlns:svg="http://www.w3.org/2000/svg"> <defs id="I77a102233a7545fab5b9c6e32da481fa20251110123031" /> <g id="Id9af94649c3b4ff88f90b228f5d89d6220251110123031"> <path id="I46b99eec761045d292d459aaff8653bd20251110123031" d="m 34.375,54.688 c 0,-4.028 1.176,-7.782 3.195,-10.942 L 13.293,43.75 c -3.883,0 -7.031,3.148 -7.031,7.031 v 2.836 c 0,3.414 1.488,6.66 4.078,8.887 4.887,4.199 11.883,6.25 20.91,6.25 2.945,0 5.672,-0.219 8.176,-0.66 -3.145,-3.578 -5.051,-8.27 -5.051,-13.406 z m 12.5,-32.797 c 0,-8.629 -6.996,-15.625 -15.625,-15.625 -8.629,0 -15.625,6.996 -15.625,15.625 0,8.629 6.996,15.625 15.625,15.625 8.629,0 15.625,-6.996 15.625,-15.625 z M 54.496,37.5 C 45.156,37.602 37.602,45.156 37.5,54.496 Z M 40.988,65.07 C 39.887,63.617 39.008,61.984 38.41,60.219 L 60.219,38.41 c 1.761,0.598 3.398,1.477 4.851,2.578 z m 3.317,3.317 c 1.453,1.101 3.09,1.98 4.851,2.578 L 70.965,49.156 C 70.367,47.395 69.488,45.758 68.383,44.305 Z M 71.871,54.879 c -0.101,9.34 -7.652,16.894 -16.992,16.996 z" style="fill:currentColor;fill-opacity:1;fill-rule:nonzero;stroke:none" transform="scale(1.3333333)" /> </g>
</svg>

