<?xml version="1.0" encoding="UTF-8" standalone="no"?> <svg version="1.1" id="Ib58dc32b3e9141adb7ca9bdd7fed37a120251106132945" width="100" height="100" viewBox="0 0 100 100" xmlns="http://www.w3.org/2000/svg" xmlns:svg="http://www.w3.org/2000/svg"> <defs id="Id9b32f35e1f44a6b9f92e57f4f9ba46720251106132945" /> <g id="If4bfc6ad76534729a2c1f0760bb27dc920251106132945"> <path id="Ic0b091b680344240b5f077665509550520251106132945" d="m 43.758,59.371 h 21.867 c 1.602,0 2.922,-1.207 3.102,-2.762 L 68.75,56.246 V 34.371 c 0,-1.726 -1.398,-3.125 -3.125,-3.125 -1.602,0 -2.926,1.207 -3.105,2.762 L 62.5,34.371 62.496,48.703 39.711,25.91 C 38.582,24.785 36.812,24.699 35.586,25.648 L 35.293,25.91 28.117,33.07 11.59,16.539 c -1.219,-1.219 -3.199,-1.219 -4.418,0 -1.125,1.129 -1.215,2.899 -0.262,4.125 l 0.262,0.297 18.73,18.738 c 1.129,1.125 2.899,1.215 4.125,0.262 l 0.293,-0.262 7.176,-7.16 20.578,20.582 H 43.758 c -1.602,0 -2.922,1.207 -3.102,2.762 l -0.023,0.363 c 0,1.602 1.207,2.922 2.762,3.102 z" style="fill:currentColor;fill-opacity:1;fill-rule:nonzero;stroke:none" transform="scale(1.3333333)" /> </g>
</svg>

