<?xml version="1.0" encoding="UTF-8" standalone="no"?> <svg version="1.1" id="I22fbc8439f2c423db73c429ef18e14d220251106164749" width="100" height="100" viewBox="0 0 100 100" xmlns="http://www.w3.org/2000/svg" xmlns:svg="http://www.w3.org/2000/svg"> <defs id="I257964e8edb749a5b2a3ccf62252dfde20251106164749" /> <g id="I5911053f92b547709daae9fd42b1d53e20251106164749"> <path id="I7481343cc9fb4aea9c65379fc6b7b02420251106164749" d="m 8.035,15.402 c 0,-4.07 3.297,-7.367 7.367,-7.367 h 17.41 c 4.067,0 7.368,3.297 7.368,7.367 v 12.055 c 0,4.066 -3.301,7.363 -7.368,7.363 h -17.41 c -4.07,0 -7.367,-3.297 -7.367,-7.363 z M 55.582,8.035 c -4.07,0 -7.367,3.297 -7.367,7.367 v 12.055 c 0,4.066 3.297,7.363 7.367,7.363 h 4.016 c 4.07,0 7.367,-3.297 7.367,-7.363 V 15.402 c 0,-4.07 -3.297,-7.367 -7.367,-7.367 z M 15.402,40.18 c -4.07,0 -7.367,3.297 -7.367,7.363 v 12.055 c 0,4.07 3.297,7.367 7.367,7.367 h 4.016 c 4.07,0 7.367,-3.297 7.367,-7.367 V 47.543 c 0,-4.066 -3.297,-7.363 -7.367,-7.363 z m 26.786,0 c -4.067,0 -7.368,3.297 -7.368,7.363 v 12.055 c 0,4.07 3.301,7.367 7.368,7.367 h 17.41 c 4.07,0 7.367,-3.297 7.367,-7.367 V 47.543 c 0,-4.066 -3.297,-7.363 -7.367,-7.363 z" style="fill:currentColor;fill-opacity:1;fill-rule:nonzero;stroke:none" transform="scale(1.3333333)" /> </g>
</svg>

