<?xml version="1.0" encoding="UTF-8" standalone="no"?> <svg version="1.1" id="Ib328f60ff7c748a6aab12f2338d9cd5920251106102216" width="100" height="100" viewBox="0 0 100 100" xmlns="http://www.w3.org/2000/svg" xmlns:svg="http://www.w3.org/2000/svg"> <defs id="I3965079e73554ce3a5b2cd3f1a39115920251106102216" /> <g id="Ifa12a177a10945a29818c9e02a7d294420251106102216"> <path id="I21d092f5e223425a935f10431183f6e620251106102216" d="M 73.871,36.914 41.527,4.586 39.359,2.418 c -1.031,-1.02 -2.687,-1.02 -3.718,0 L 1.129,36.914 c -1.02,1.02 -1.59,2.406 -1.574,3.852 0.035,2.945 2.488,5.296 5.433,5.296 H 8.547 V 73.324 H 66.453 V 46.062 h 3.633 c 1.434,0 2.781,-0.558 3.793,-1.574 1.008,-1.004 1.57,-2.367 1.566,-3.789 0,-1.426 -0.562,-2.773 -1.574,-3.785 z M 42.188,67.301 H 32.812 V 50.223 h 9.376 z M 60.426,40.035 V 67.301 H 47.543 V 48.215 c 0,-1.852 -1.496,-3.348 -3.348,-3.348 h -13.39 c -1.852,0 -3.348,1.496 -3.348,3.348 V 67.301 H 14.574 V 40.035 H 6.539 L 37.508,9.09 l 1.933,1.933 29.032,29.012 z" style="fill:currentColor;fill-opacity:1;fill-rule:nonzero;stroke:none" transform="scale(1.3333333)" /> </g>
</svg>

