<?xml version="1.0" encoding="UTF-8" standalone="no"?>
<!-- Created with Inkscape (http://www.inkscape.org/) -->

<svg
   version="1.1"
   id="Ic0cca68f6e9f4e2b950303edda73543d20251103104211"
   width="100"
   height="100"
   viewBox="0 0 100 100"
   sodipodi:docname="output.ai"
   xmlns:inkscape="http://www.inkscape.org/namespaces/inkscape"
   xmlns:sodipodi="http://sodipodi.sourceforge.net/DTD/sodipodi-0.dtd"
   xmlns="http://www.w3.org/2000/svg"
   xmlns:svg="http://www.w3.org/2000/svg">
  <defs
     id="I7765407c0e5d47a7b3e1fe24a821a4ad20251103104211" />
  <sodipodi:namedview
     id="Ie0e0f79e72994ba09b6d64145b9dad3020251103104211"
     pagecolor="#ffffff"
     bordercolor="#000000"
     borderopacity="0.25"
     inkscape:showpageshadow="2"
     inkscape:pageopacity="0.0"
     inkscape:pagecheckerboard="0"
     inkscape:deskcolor="#d1d1d1">
    <inkscape:page
       x="0"
       y="0"
       inkscape:label="1"
       id="I7b65c3a356b14d268f513c5ce173ab9b20251103104211"
       width="100"
       height="100"
       margin="0"
       bleed="0" />
  </sodipodi:namedview>
  <g
     id="I9719c778d88047e186a39b2ea2b2f68920251103104211"
     inkscape:groupmode="layer"
     inkscape:label="1">
    <path
       id="If568df8e862b4f7fbe5c6079e61db27120251103104211"
       d="M 70.312,70.031 H 67.969 L 60.258,44.367 c 0,0 0,-0.14 -0.117,-0.211 C 60.09,44.008 60.02,43.863 59.93,43.734 L 59.648,43.406 59.32,43.125 58.875,42.891 h -1.617 l -0.446,0.234 c -0.113,0.082 -0.214,0.176 -0.304,0.281 -0.121,0.102 -0.223,0.219 -0.305,0.352 -0.086,0.125 -0.156,0.258 -0.211,0.398 0,0 0,0.117 -0.117,0.211 l -7.687,25.781 h -2.344 c -3.125,0 -3.125,4.688 0,4.688 h 8.062 c 3.125,0 3.125,-4.688 0,-4.688 h -0.961 l 2.11,-7.031 h 5.883 l 2.109,7.031 h -0.938 c -3.125,0 -3.125,4.688 0,4.688 h 8.203 c 3.126,0 3.126,-4.688 0,-4.688 z m -13.851,-11.719 1.547,-5.109 1.547,5.109 z"
       style="fill:#000000;fill-opacity:1;fill-rule:nonzero;stroke:none"
       transform="scale(1.3333333)" />
    <path
       id="I8b2421bd44884fa2a3db51b8b2ca09f020251103104211"
       d="m 6.305,15.75 8.343,-7.945 v 64.851 c 0,3.125 4.688,3.125 4.688,0 V 7.805 l 8.344,7.945 c 0.433,0.418 1.015,0.652 1.617,0.656 0.644,0.004 1.265,-0.258 1.711,-0.726 0.926,-0.918 0.926,-2.41 0,-3.328 L 18.609,0.633 C 18.504,0.555 18.395,0.484 18.281,0.422 18.152,0.336 18.02,0.258 17.883,0.188 c -0.571,-0.235 -1.211,-0.235 -1.781,0 -0.133,0.062 -0.258,0.144 -0.375,0.234 -0.125,0.055 -0.243,0.129 -0.352,0.211 L 3.07,12.352 c -2.265,2.156 0.969,5.554 3.235,3.398 z"
       style="fill:#000000;fill-opacity:1;fill-rule:nonzero;stroke:none"
       transform="scale(1.3333333)" />
    <path
       id="I2f3d73e506e240db835e0d32642c802c20251103104211"
       d="m 70.312,23.719 c -1.292,0 -2.343,1.051 -2.343,2.343 v 1.571 H 50.977 L 72.07,4.195 C 72.684,3.5 72.832,2.508 72.445,1.664 72.066,0.824 71.234,0.281 70.312,0.281 H 45.703 c -1.293,0 -2.344,1.051 -2.344,2.344 v 3.914 c 0,3.125 4.688,3.125 4.688,0 V 4.969 H 65.062 L 43.969,28.406 c -0.614,0.684 -0.77,1.668 -0.399,2.508 0.371,0.848 1.207,1.398 2.133,1.406 h 24.609 c 1.293,0 2.344,-1.05 2.344,-2.343 v -3.915 c 0,-1.292 -1.051,-2.343 -2.344,-2.343 z"
       style="fill:#000000;fill-opacity:1;fill-rule:nonzero;stroke:none"
       transform="scale(1.3333333)" />
  </g>
</svg>







