<?xml version="1.0" encoding="UTF-8" standalone="no"?> <svg version="1.1" id="I4897f40e891f4ff5a3735c63bb4a519920251106132945" width="100" height="100" viewBox="0 0 100 100" xmlns="http://www.w3.org/2000/svg" xmlns:svg="http://www.w3.org/2000/svg"> <defs id="I30a80e2c9e1e4cb1a3650e2a636f520c20251106132945" /> <g id="I6560a57ea6884fc0b1e153708f79fef720251106132945"> <path id="I76a11d0c96614375ae3924f7a922f52720251106132945" d="m 37.5,5.355 c -6.664,0 -12.191,4.872 -13.223,11.247 -8.082,4.437 -13.562,13.031 -13.562,22.906 v 20.09 c 0,5.547 4.496,10.047 10.043,10.047 h 20.496 c -1.281,-1.188 -2.402,-2.54 -3.34,-4.02 H 20.758 c -3.328,0 -6.028,-2.699 -6.028,-6.027 V 46.875 h 9.375 v 4.687 c 0,1.11 0.903,2.008 2.012,2.008 1.11,0 2.008,-0.898 2.008,-2.008 v -4.687 h 8.367 c 0.629,-1.434 1.418,-2.781 2.348,-4.02 H 14.73 v -3.347 c 0,-12.203 9.895,-22.098 22.102,-22.098 h 1.336 c 10.816,0 19.82,7.77 21.727,18.035 1.5,0.383 2.933,0.934 4.281,1.633 C 63.359,28.238 58.137,20.672 50.723,16.602 49.695,10.227 44.164,5.355 37.5,5.355 Z m -0.668,8.04 c -2.687,0 -5.277,0.402 -7.715,1.156 1.539,-3.071 4.715,-5.176 8.383,-5.176 3.668,0 6.844,2.105 8.383,5.176 -2.438,-0.754 -5.028,-1.156 -7.715,-1.156 z M 44.883,37.5 c 1.617,-0.934 3.375,-1.648 5.234,-2.102 0.488,-0.742 0.778,-1.628 0.778,-2.586 0,-4.808 -3.899,-8.707 -8.707,-8.707 h -9.376 c -4.808,0 -8.707,3.899 -8.707,8.707 0,2.59 2.102,4.688 4.688,4.688 z M 32.812,28.125 h 9.376 c 2.589,0 4.687,2.098 4.687,4.687 0,0.372 -0.301,0.668 -0.668,0.668 H 28.793 c -0.367,0 -0.668,-0.296 -0.668,-0.668 0,-2.589 2.098,-4.687 4.687,-4.687 z M 72.32,54.91 c 0,9.617 -7.793,17.41 -17.41,17.41 -9.617,0 -17.41,-7.793 -17.41,-17.41 0,-9.617 7.793,-17.41 17.41,-17.41 9.617,0 17.41,7.793 17.41,17.41 z M 56.25,44.195 c 0,-0.738 -0.602,-1.34 -1.34,-1.34 -0.738,0 -1.34,0.602 -1.34,1.34 v 9.375 h -9.375 c -0.738,0 -1.34,0.602 -1.34,1.34 0,0.738 0.602,1.34 1.34,1.34 h 9.375 v 9.375 c 0,0.738 0.602,1.34 1.34,1.34 0.738,0 1.34,-0.602 1.34,-1.34 V 56.25 h 9.375 c 0.738,0 1.34,-0.602 1.34,-1.34 0,-0.738 -0.602,-1.34 -1.34,-1.34 H 56.25 Z" style="fill:currentColor;fill-opacity:1;fill-rule:nonzero;stroke:none" transform="scale(1.3333333)" /> </g>
</svg>

