<?xml version="1.0" encoding="UTF-8" standalone="no"?> <svg version="1.1" id="Ia1ec6aeff6ec4a1d804be4c62b4ab9ee20251106103256" width="100" height="100" viewBox="0 0 100 100" xmlns="http://www.w3.org/2000/svg" xmlns:svg="http://www.w3.org/2000/svg"> <defs id="I79dc52a49728473ca78b2104b89800ab20251106103256" /> <g id="I917bd77d88b14b8fbcfbfc942013f2d420251106103256"> <path id="Iac6c67f4d19f4525b08ed6940c8044a020251106103256" d="M 67.207,8.863 38.766,-0.828 c -0.344,-0.117 -0.805,-0.176 -1.266,-0.176 -0.461,0 -0.922,0.059 -1.266,0.176 L 7.793,8.863 C 7.098,9.098 6.527,9.902 6.527,10.641 V 51.02 c 0,0.734 0.481,1.707 1.055,2.168 l 28.856,22.48 c 0.292,0.227 0.667,0.344 1.054,0.344 0.383,0 0.77,-0.117 1.055,-0.344 l 28.851,-22.48 c 0.579,-0.454 1.055,-1.426 1.055,-2.168 V 10.641 C 68.473,9.902 67.902,9.105 67.207,8.863 Z M 62.445,49.41 37.5,68.848 12.555,49.41 V 13.617 L 37.5,5.113 62.445,13.617 Z M 28.477,32.586 c -0.25,-0.344 -0.653,-0.551 -1.09,-0.551 H 22.77 c -0.547,0 -0.864,0.617 -0.547,1.063 L 32.805,47.66 c 0.539,0.738 1.636,0.738 2.175,0 l 17.797,-24.5 c 0.317,-0.441 0,-1.062 -0.547,-1.062 h -4.617 c -0.429,0 -0.84,0.211 -1.09,0.554 L 33.891,40.043 Z" style="fill:currentColor;fill-opacity:1;fill-rule:nonzero;stroke:none" transform="scale(1.3333333)" /> </g>
</svg>

