<?xml version="1.0" encoding="UTF-8" standalone="no"?> <svg version="1.1" id="Ia7e51795f3ba4637bde3eeb36ed31e0620251110133654" width="100" height="100" viewBox="0 0 100 100" xmlns="http://www.w3.org/2000/svg" xmlns:svg="http://www.w3.org/2000/svg"> <defs id="I2cdc0c36eab0469bad5934143f1cd09820251110133654" /> <g id="I6b04f9b17e744f41a548c9a793036ce520251110133654"> <path id="I48a77a363d674f6796b04235c46f177b20251110133654" d="M 13.281,6.25 C 7.672,6.25 3.125,10.797 3.125,16.406 v 35.938 c 0,5.609 4.547,10.156 10.156,10.156 h 22.735 l 4.687,-4.688 H 13.281 c -3.019,0 -5.469,-2.449 -5.469,-5.468 V 16.406 c 0,-3.019 2.45,-5.468 5.469,-5.468 h 42.188 c 3.019,0 5.469,2.449 5.469,5.468 v 12.699 c 1.238,0.864 2.105,2.227 2.304,3.821 l 0.434,3.531 c 0.191,1.57 0.898,2.981 1.949,4.055 V 16.406 C 65.625,10.797 61.078,6.25 55.469,6.25 Z m 47.657,32.309 c 0.64,2.101 1.937,3.914 3.66,5.191 1.375,1.023 3.023,1.707 4.816,1.926 l 3.527,0.433 c 1.176,0.149 2.059,1.145 2.059,2.329 0,1.183 -0.883,2.179 -2.059,2.328 l -3.527,0.433 c -4.629,0.567 -8.273,4.211 -8.84,8.84 l -0.433,3.527 c -0.149,1.176 -1.145,2.059 -2.329,2.059 -1.183,0 -2.179,-0.883 -2.328,-2.059 l -0.433,-3.527 c -0.567,-4.629 -4.211,-8.273 -8.84,-8.84 l -3.527,-0.433 c -1.176,-0.149 -2.059,-1.145 -2.059,-2.328 0,-1.184 0.883,-2.18 2.059,-2.329 l 3.527,-0.433 c 4.629,-0.567 8.273,-4.211 8.84,-8.84 l 0.433,-3.527 c 0.149,-1.176 1.145,-2.059 2.328,-2.059 1.184,0 2.18,0.883 2.329,2.059 l 0.433,3.527 c 0.071,0.594 0.196,1.168 0.364,1.723 z m -8.516,9.879 c 2.23,1.296 4.094,3.16 5.39,5.39 1.297,-2.23 3.161,-4.094 5.391,-5.39 -2.23,-1.297 -4.094,-3.161 -5.391,-5.391 -1.296,2.23 -3.16,4.094 -5.39,5.391 z M 46,56.938 c 0.914,-0.918 2.398,-0.918 3.312,0 0.918,0.914 0.918,2.398 0,3.312 L 35.25,74.312 c -0.914,0.918 -2.398,0.918 -3.312,0 -0.918,-0.914 -0.918,-2.398 0,-3.312 z M 25,42.969 V 25.785 c 0,-2.379 2.547,-3.887 4.633,-2.738 l 15.621,8.59 c 2.16,1.187 2.16,4.289 0,5.476 L 29.633,45.707 C 27.547,46.852 25,45.348 25,42.969 Z" style="fill:currentColor;fill-opacity:1;fill-rule:nonzero;stroke:none" transform="scale(1.3333333)" /> </g>
</svg>

