<?xml version="1.0" encoding="UTF-8" standalone="no"?> <svg version="1.1" id="I7540905212184e02acfa1057d981ffde20251110123031" width="100" height="100" viewBox="0 0 100 100" xmlns="http://www.w3.org/2000/svg" xmlns:svg="http://www.w3.org/2000/svg"> <defs id="I81ddfdb531dc489eafd2fba49f4a44e820251110123031" /> <g id="I5dcb5c895ba845e88862c88c469b409420251110123031"> <path id="Ia71abfbe19824c0594129bfa6e54a87d20251110123031" d="m 36.973,11.746 c 2.578,-5.441 9.765,-6.687 14.023,-2.43 l 14.688,14.688 c 4.257,4.254 3.011,11.445 -2.43,14.023 l -14.438,6.836 c -1.086,0.516 -1.933,1.43 -2.367,2.555 L 42.195,58.48 c -1.218,3.168 -5.293,4.032 -7.691,1.633 L 26.117,51.723 10.875,66.965 H 8.035 V 64.121 L 23.273,48.883 14.887,40.496 c -2.399,-2.398 -1.535,-6.473 1.633,-7.691 l 11.062,-4.254 c 1.125,-0.434 2.039,-1.281 2.555,-2.367 z m 11.183,0.41 c -2.293,-2.293 -6.164,-1.621 -7.551,1.309 l -6.839,14.437 c -0.957,2.02 -2.657,3.594 -4.743,4.399 l -11.062,4.254 c -0.453,0.175 -0.574,0.757 -0.234,1.097 l 19.617,19.621 c 0.344,0.34 0.926,0.219 1.101,-0.234 l 4.254,-11.062 c 0.801,-2.09 2.379,-3.786 4.399,-4.743 l 14.437,-6.839 c 2.93,-1.387 3.598,-5.258 1.309,-7.551 z" style="fill:currentColor;fill-opacity:1;fill-rule:nonzero;stroke:none" transform="scale(1.3333333)" /> </g>
</svg>

