<?xml version="1.0" encoding="UTF-8" standalone="no"?> <svg version="1.1" id="If9dc42bbcafb4fdda23987533e73790c20251106152728" width="100" height="100" viewBox="0 0 100 100" xmlns="http://www.w3.org/2000/svg" xmlns:svg="http://www.w3.org/2000/svg"> <defs id="If216095c32ff40759175d9fccfe512d620251106152728" /> <g id="Id4cffb16a9c64845b71c4c487efcec0b20251106152728"> <path id="If3c2879f04674db49c44ee6bff6c2ecb20251106152728" d="m 28.699,18.746 -4.687,-4.687 h 8.8 c 1.297,0 2.344,1.05 2.344,2.343 0,1.293 -1.047,2.344 -2.344,2.344 z m 15.832,0 h 23.438 c 1.293,0 2.343,-1.051 2.343,-2.344 0,-1.293 -1.05,-2.343 -2.343,-2.343 H 44.531 c -1.293,0 -2.343,1.05 -2.343,2.343 0,1.293 1.05,2.344 2.343,2.344 z m 2.344,9.375 c -1.293,0 -2.344,1.051 -2.344,2.344 0,1.293 1.051,2.344 2.344,2.344 h 16.406 c 1.293,0 2.344,-1.051 2.344,-2.344 0,-1.293 -1.051,-2.344 -2.344,-2.344 z M 42.188,56.246 H 7.031 c -1.293,0 -2.343,1.051 -2.343,2.344 0,1.293 1.05,2.344 2.343,2.344 h 35.157 c 1.296,0 2.343,-1.051 2.343,-2.344 0,-1.293 -1.047,-2.344 -2.343,-2.344 z M 69.629,66.305 8.688,5.375 c -0.915,-0.914 -2.399,-0.914 -3.313,0 -0.914,0.914 -0.914,2.398 0,3.313 l 5.371,5.371 H 7.031 c -1.293,0 -2.343,1.05 -2.343,2.343 0,1.293 1.05,2.344 2.343,2.344 h 8.403 l 9.375,9.375 h -3.715 c -1.293,0 -2.344,1.051 -2.344,2.344 0,1.293 1.051,2.344 2.344,2.344 h 8.402 l 9.375,9.375 H 16.406 c -1.293,0 -2.344,1.05 -2.344,2.343 0,1.293 1.051,2.344 2.344,2.344 h 27.153 l 22.75,22.754 c 0.461,0.453 1.062,0.684 1.66,0.684 0.601,-0.004 1.199,-0.231 1.66,-0.688 0.914,-0.914 0.914,-2.402 0,-3.316 z" style="fill:currentColor;fill-opacity:1;fill-rule:nonzero;stroke:none" transform="scale(1.3333333)" /> </g>
</svg>

