<?xml version="1.0" encoding="UTF-8" standalone="no"?> <svg version="1.1" id="I99870008b16447d69b1597ea01fb75c520251110135155" width="100" height="100" viewBox="0 0 100 100" xmlns="http://www.w3.org/2000/svg" xmlns:svg="http://www.w3.org/2000/svg"> <defs id="I736d7a7d687a4560ac9592cccc3da7b120251110135155" /> <g id="I960cdad3eee342cd90901673c69056ee20251110135155"> <path id="I05ba0bcce9414d4b901335990738782320251110135155" d="m 21.879,6.25 c 0.98,0 1.855,0.609 2.195,1.531 l 9.227,24.953 c 0.011,0.032 0.023,0.067 0.035,0.102 l 0.695,1.879 -2.586,6.519 -1.957,-5.293 H 14.266 l -3.481,9.403 C 10.336,46.559 8.988,47.18 7.777,46.73 6.562,46.281 5.941,44.934 6.391,43.719 l 4.023,-10.883 c 0.012,-0.035 0.024,-0.07 0.039,-0.102 L 19.68,7.781 C 20.02,6.859 20.895,6.25 21.879,6.25 Z M 15.996,31.254 H 27.754 L 21.875,15.352 Z M 43.145,20.23 c 0.355,-0.894 1.218,-1.48 2.179,-1.48 0.961,0 1.824,0.586 2.18,1.48 l 17.359,43.844 h 1.543 c 1.293,0 2.344,1.051 2.344,2.344 0,1.297 -1.051,2.344 -2.344,2.344 h -3.094 c -0.011,0 -0.023,0 -0.035,0 -0.015,0 -0.031,0 -0.05,0 h -4.629 c -1.297,0 -2.344,-1.047 -2.344,-2.344 0,-1.293 1.047,-2.344 2.344,-2.344 H 59.82 L 56.105,54.688 H 34.512 l -3.727,9.386 h 1.246 c 1.293,0 2.344,1.051 2.344,2.344 0,1.297 -1.051,2.344 -2.344,2.344 h -4.656 c -0.012,0 -0.02,0 -0.031,0 -0.02,0 -0.039,0 -0.055,0 h -3.066 c -1.297,0 -2.344,-1.047 -2.344,-2.344 0,-1.293 1.047,-2.344 2.344,-2.344 h 1.519 z M 54.246,50 45.32,27.453 36.371,50 Z" style="fill:currentColor;fill-opacity:1;fill-rule:nonzero;stroke:none" transform="scale(1.3333333)" /> </g>
</svg>

