<?xml version="1.0" encoding="UTF-8" standalone="no"?> <svg version="1.1" id="I40956a76c3a24748946bf69025d89ee820251106165301" width="100" height="100" viewBox="0 0 100 100" xmlns="http://www.w3.org/2000/svg" xmlns:svg="http://www.w3.org/2000/svg"> <defs id="Iada0173ff33f4ffb8f996e1f3525efc020251106165301" /> <g id="I2573897de36441e28a32187186d8242e20251106165301"> <path id="Ife971e51506941a198c7dc270f204ea920251106165301" d="m 35.602,10.082 c 1.093,-0.93 2.703,-0.93 3.796,0 L 62.25,29.504 c 0.652,0.558 1.031,1.375 1.031,2.234 v 28.629 c 0,1.61 -1.304,2.918 -2.918,2.918 H 14.637 c -1.614,0 -2.918,-1.308 -2.918,-2.918 V 31.738 c 0,-0.859 0.379,-1.676 1.031,-2.234 z m 6.832,-3.57 C 39.59,4.094 35.41,4.094 32.566,6.512 L 9.715,25.934 c -1.703,1.449 -2.684,3.57 -2.684,5.804 v 28.629 c 0,4.199 3.407,7.606 7.606,7.606 h 45.726 c 4.199,0 7.606,-3.407 7.606,-7.606 V 31.738 c 0,-2.234 -0.981,-4.355 -2.684,-5.804 z M 28.125,38.676 c 0,1.941 -1.574,3.515 -3.516,3.515 -1.941,0 -3.515,-1.574 -3.515,-3.515 0,-1.946 1.574,-3.516 3.515,-3.516 1.942,0 3.516,1.57 3.516,3.516 z M 24.609,53.91 c 1.942,0 3.516,-1.574 3.516,-3.515 0,-1.946 -1.574,-3.516 -3.516,-3.516 -1.941,0 -3.515,1.57 -3.515,3.516 0,1.941 1.574,3.515 3.515,3.515 z m 12.891,0 c 1.941,0 3.516,-1.574 3.516,-3.515 0,-1.946 -1.575,-3.516 -3.516,-3.516 -1.941,0 -3.516,1.57 -3.516,3.516 0,1.941 1.575,3.515 3.516,3.515 z m 0,-11.719 c 1.941,0 3.516,-1.574 3.516,-3.515 0,-1.946 -1.575,-3.516 -3.516,-3.516 -1.941,0 -3.516,1.57 -3.516,3.516 0,1.941 1.575,3.515 3.516,3.515 z m 12.891,0 c 1.941,0 3.515,-1.574 3.515,-3.515 0,-1.946 -1.574,-3.516 -3.515,-3.516 -1.942,0 -3.516,1.57 -3.516,3.516 0,1.941 1.574,3.515 3.516,3.515 z m 0,11.719 c 1.941,0 3.515,-1.574 3.515,-3.515 0,-1.946 -1.574,-3.516 -3.515,-3.516 -1.942,0 -3.516,1.57 -3.516,3.516 0,1.941 1.574,3.515 3.516,3.515 z" style="fill:currentColor;fill-opacity:1;fill-rule:nonzero;stroke:none" transform="scale(1.3333333)" /> </g>
</svg>

