<?xml version="1.0" encoding="UTF-8" standalone="no"?> <svg version="1.1" id="I5dc98ab7e89f479b85b7f51cd0ca4e8e20251110130508" width="100" height="100" viewBox="0 0 100 100" xmlns="http://www.w3.org/2000/svg" xmlns:svg="http://www.w3.org/2000/svg"> <defs id="I12ed2115e34e4ebeb2758d1af341251020251110130508" /> <g id="I94193309203b4b4b9978fabbad8e10ef20251110130508"> <path id="I63e3092209274cf596fab4cfe129d1b120251110130508" d="m 9.375,19.531 c 0,-5.609 4.547,-10.156 10.156,-10.156 h 35.938 c 5.609,0 10.156,4.547 10.156,10.156 v 18.035 c -1.449,-0.925 -3.02,-1.671 -4.687,-2.211 V 31.25 h -12.5 v 4.105 c -1.668,0.54 -3.239,1.286 -4.688,2.211 V 31.25 h -12.5 v 12.5 h 6.316 c -0.925,1.449 -1.671,3.02 -2.211,4.688 H 31.25 v 12.5 h 4.105 c 0.54,1.667 1.286,3.238 2.211,4.687 H 19.531 c -5.609,0 -10.156,-4.547 -10.156,-10.156 z m 10.156,-5.469 c -3.019,0 -5.469,2.45 -5.469,5.469 v 7.031 h 12.5 v -12.5 z M 14.062,31.25 v 12.5 h 12.5 v -12.5 z m 34.376,-4.688 h 12.5 v -7.031 c 0,-3.019 -2.45,-5.469 -5.469,-5.469 h -7.031 z m -4.688,-12.5 h -12.5 v 12.5 h 12.5 z M 14.062,48.438 v 7.031 c 0,3.019 2.45,5.469 5.469,5.469 h 7.031 v -12.5 z m 57.813,6.25 C 71.875,45.195 64.18,37.5 54.688,37.5 45.195,37.5 37.5,45.195 37.5,54.688 c 0,9.492 7.695,17.187 17.188,17.187 9.492,0 17.187,-7.695 17.187,-17.187 z m -15.625,1.562 0.004,7.824 c 0,0.864 -0.699,1.563 -1.563,1.563 -0.863,0 -1.562,-0.699 -1.562,-1.563 L 53.125,56.25 h -7.824 c -0.863,0 -1.563,-0.699 -1.563,-1.562 0,-0.864 0.7,-1.563 1.563,-1.563 h 7.824 v -7.816 c 0,-0.86 0.699,-1.563 1.563,-1.563 0.863,0 1.562,0.703 1.562,1.563 v 7.816 h 7.82 c 0.864,0 1.563,0.699 1.563,1.563 0,0.863 -0.699,1.562 -1.563,1.562 z" style="fill:currentColor;fill-opacity:1;fill-rule:nonzero;stroke:none" transform="scale(1.3333333)" /> </g>
</svg>

