<?xml version="1.0" encoding="UTF-8" standalone="no"?> <svg version="1.1" id="I884d11711a72464e944053d86c49478c20251110124422" width="100" height="100" viewBox="0 0 100 100" xmlns="http://www.w3.org/2000/svg" xmlns:svg="http://www.w3.org/2000/svg"> <defs id="Ic942dd0dcaff490db8396b537aac558a20251110124422" /> <g id="I8562b595ece54b18a74ed71471e19c4120251110124422"> <path id="Ib48d02e6fdda44ae991e24536bc0b43320251110124422" d="m 6.25,21.094 c 0,-4.746 3.848,-8.594 8.594,-8.594 h 45.312 c 4.746,0 8.594,3.848 8.594,8.594 V 35.188 C 65.012,33.605 60.527,34.336 57.48,37.383 L 39.035,55.828 c -1.476,1.477 -2.523,3.324 -3.027,5.348 L 35.676,62.5 H 14.844 C 10.098,62.5 6.25,58.652 6.25,53.906 Z M 51.562,25 H 23.438 c -2.59,0 -4.688,2.098 -4.688,4.688 0,2.589 2.098,4.687 4.688,4.687 h 28.124 c 2.59,0 4.688,-2.098 4.688,-4.687 C 56.25,27.098 54.152,25 51.562,25 Z m 8.126,14.594 -18.446,18.445 c -1.074,1.074 -1.84,2.422 -2.207,3.899 l -1.43,5.718 c -0.621,2.489 1.629,4.742 4.118,4.121 l 5.722,-1.433 c 1.477,-0.367 2.825,-1.129 3.899,-2.207 L 69.789,49.695 c 2.789,-2.793 2.789,-7.312 0,-10.101 -2.789,-2.793 -7.312,-2.793 -10.101,0 z" style="fill:currentColor;fill-opacity:1;fill-rule:nonzero;stroke:none" transform="scale(1.3333333)" /> </g>
</svg>

