<?xml version="1.0" encoding="UTF-8" standalone="no"?> <svg version="1.1" id="I41990dc443b349bba30af7e5f16d94b520251110133655" width="100" height="100" viewBox="0 0 100 100" xmlns="http://www.w3.org/2000/svg" xmlns:svg="http://www.w3.org/2000/svg"> <defs id="I3ea7562f37e5430a97ceea8127a3954f20251110133655" /> <g id="I4113403238e342448f754152681af98e20251110133655"> <path id="I3dcac5c4235b4b43a47d52d1c176de8d20251110133655" d="m 40.625,18.75 c 9.902,0 15.52,6.555 16.336,14.469 h 0.25 c 6.375,0 11.539,5.152 11.539,11.508 0,6.355 -5.164,11.507 -11.539,11.507 h -0.106 l -6.718,11.188 c -0.778,1.293 -2.457,1.711 -3.75,0.933 -1.223,-0.734 -1.664,-2.273 -1.055,-3.531 l 0.117,-0.219 5.028,-8.371 h -6.122 l -6.718,11.188 c -0.778,1.293 -2.457,1.711 -3.75,0.933 -1.223,-0.734 -1.664,-2.273 -1.055,-3.531 l 0.117,-0.219 5.028,-8.371 h -6.122 l -6.718,11.188 c -0.778,1.293 -2.457,1.711 -3.75,0.933 -1.223,-0.734 -1.664,-2.273 -1.055,-3.531 l 0.117,-0.219 5.028,-8.371 h -1.684 c -6.375,0 -11.539,-5.152 -11.539,-11.507 0,-6.356 5.164,-11.508 11.539,-11.508 h 0.25 C 25.113,25.254 30.727,18.75 40.625,18.75 Z M 20.59,6.254 c 2.484,0.133 4.898,0.848 7.074,2.105 3.297,1.903 5.652,4.813 6.902,8.114 -6.277,1.789 -10.746,6.379 -12.543,12.578 l -0.144,0.519 -0.18,0.742 -0.644,0.122 c -3.578,0.75 -6.684,2.816 -8.778,5.675 L 11.797,35.84 C 9.742,34.652 7.996,33.043 6.664,31.105 5.793,29.84 6.355,28.086 7.805,27.566 12.938,25.73 15.703,23.664 17.285,20.645 19.012,17.348 19.332,13.852 18.188,9.152 17.812,7.625 19.02,6.168 20.59,6.254 Z" style="fill:currentColor;fill-opacity:1;fill-rule:nonzero;stroke:none" transform="scale(1.3333333)" /> </g>
</svg>

