<?xml version="1.0" encoding="UTF-8" standalone="no"?> <svg version="1.1" id="I42ee75688da64fa4b3f21b513b87e89020251110130508" width="100" height="100" viewBox="0 0 100 100" xmlns="http://www.w3.org/2000/svg" xmlns:svg="http://www.w3.org/2000/svg"> <defs id="Ic8d660ea669c4fbdbb35be8c70b8aa7a20251110130508" /> <g id="I996c4752a8db496e965367f9938dfd6c20251110130508"> <path id="I755d8f8df329460ea3479cba7b6eef2e20251110130508" d="m 47.477,28.922 14.472,2.117 -2.547,2.496 c 1.668,0.449 3.258,1.098 4.735,1.922 l 2.781,-2.727 c 2.074,-2.035 0.922,-5.57 -1.953,-5.988 L 48.156,24.285 40.66,9 C 39.371,6.375 35.633,6.375 34.348,9 L 26.852,24.285 10.043,26.742 C 7.164,27.16 6.012,30.695 8.09,32.73 l 12.176,11.942 -2.871,16.84 c -0.489,2.875 2.535,5.058 5.109,3.695 l 11.023,-5.828 c -0.422,-1.578 -0.664,-3.231 -0.707,-4.93 l -10.402,5.504 2.469,-14.492 c 0.258,-1.516 -0.242,-3.059 -1.34,-4.133 L 13.059,31.039 27.527,28.922 c 1.532,-0.223 2.852,-1.188 3.532,-2.574 l 6.445,-13.141 6.445,13.141 c 0.68,1.386 2,2.351 3.528,2.574 z m -4.485,15.695 c 0.61,1.977 -0.594,4.055 -2.621,4.516 l -3.598,0.824 c -0.293,1.27 -0.445,2.59 -0.445,3.949 0,1.207 0.121,2.387 0.352,3.524 l 3.98,0.992 c 1.961,0.488 3.125,2.5 2.567,4.437 l -1.161,4.039 c 1.832,1.672 4.024,2.961 6.446,3.743 l 2.953,-3.047 c 1.402,-1.449 3.734,-1.449 5.137,0 l 2.898,2.98 c 2.414,-0.808 4.598,-2.129 6.414,-3.832 L 64.82,63.195 c -0.609,-1.976 0.594,-4.054 2.621,-4.515 l 3.598,-0.825 c 0.293,-1.269 0.445,-2.589 0.445,-3.949 0,-1.207 -0.121,-2.386 -0.351,-3.523 l -3.981,-0.992 c -1.961,-0.493 -3.125,-2.5 -2.566,-4.438 l 1.16,-4.039 c -1.832,-1.672 -4.023,-2.961 -6.441,-3.742 l -2.957,3.047 c -1.403,1.445 -3.735,1.449 -5.137,0 l -2.899,-2.981 c -2.414,0.809 -4.597,2.129 -6.414,3.832 z m 15.602,9.289 c 0,2.59 -2.098,4.688 -4.688,4.688 -2.59,0 -4.687,-2.098 -4.687,-4.688 0,-2.59 2.097,-4.687 4.687,-4.687 2.59,0 4.688,2.097 4.688,4.687 z" style="fill:currentColor;fill-opacity:1;fill-rule:nonzero;stroke:none" transform="scale(1.3333333)" /> </g>
</svg>

