<?xml version="1.0" encoding="UTF-8" standalone="no"?> <svg version="1.1" id="If265a67b19854652be3997b7d3e65ba520251106171633" width="100" height="100" viewBox="0 0 100 100" xmlns="http://www.w3.org/2000/svg" xmlns:svg="http://www.w3.org/2000/svg"> <defs id="I87908b05ef6c4075bb697bf9beb9e71520251106171633" /> <g id="Iabbe041d515342b5a95f0ecde7844ea620251106171633"> <path id="Idf426330c12f4473ae396b898d35a01d20251106171633" d="M 34.328,9.891 C 34.609,8.188 33.461,6.578 31.758,6.293 30.055,6.008 28.445,7.16 28.164,8.863 L 25.473,24.992 12.496,25 c -1.723,0 -3.121,1.402 -3.121,3.129 0,1.723 1.402,3.121 3.125,3.121 L 24.43,31.242 22.344,43.746 9.375,43.75 C 7.648,43.75 6.25,45.152 6.25,46.875 6.25,48.602 7.652,50 9.375,50 l 11.93,-0.004 -2.524,15.117 c -0.281,1.699 0.867,3.313 2.571,3.594 1.703,0.285 3.312,-0.863 3.593,-2.566 l 2.696,-16.149 7.281,-0.004 c 0.531,-2.25 1.441,-4.359 2.656,-6.25 l -8.894,0.004 2.082,-12.504 15.546,-0.008 -0.894,5.379 c 2.051,-1.054 4.301,-1.765 6.68,-2.07 l 0.554,-3.312 12.973,-0.008 c 1.727,0 3.125,-1.403 3.125,-3.125 0,-1.727 -1.402,-3.125 -3.125,-3.125 L 53.691,24.977 56.207,9.891 C 56.492,8.188 55.34,6.578 53.641,6.293 51.938,6.008 50.328,7.16 50.043,8.863 L 47.355,24.98 31.809,24.988 Z m 37.547,44.797 c 0,9.492 -7.695,17.187 -17.187,17.187 C 45.195,71.875 37.5,64.18 37.5,54.688 37.5,45.195 45.195,37.5 54.688,37.5 c 9.492,0 17.187,7.695 17.187,17.188 z M 49.543,47.332 c -0.609,-0.609 -1.602,-0.609 -2.211,0 -0.609,0.613 -0.609,1.602 0,2.211 l 5.145,5.145 -5.145,5.144 c -0.609,0.613 -0.609,1.602 0,2.211 0.609,0.609 1.602,0.609 2.211,0 l 5.145,-5.145 5.144,5.145 c 0.609,0.609 1.602,0.609 2.211,0 0.609,-0.609 0.609,-1.598 0,-2.211 l -5.145,-5.144 5.145,-5.145 c 0.609,-0.609 0.609,-1.598 0,-2.211 -0.609,-0.609 -1.602,-0.609 -2.211,0 l -5.144,5.145 z" style="fill:currentColor;fill-opacity:1;fill-rule:nonzero;stroke:none" transform="scale(1.3333333)" /> </g>
</svg>

