<?xml version="1.0" encoding="UTF-8" standalone="no"?> <svg version="1.1" id="Ic2c683fa3c024cf8a0b3e63ee8c6b9d820251110135155" width="100" height="100" viewBox="0 0 100 100" xmlns="http://www.w3.org/2000/svg" xmlns:svg="http://www.w3.org/2000/svg"> <defs id="If6dd58380f9340c88f68a4fb313fa96920251110135155" /> <g id="Idc2f2cc8a8c44b6692db2540adad3e8820251110135155"> <path id="I012baf6921d84a90866b91eb174d8b3a20251110135155" d="m 7.031,17.578 c 0,-5.824 4.723,-10.547 10.547,-10.547 h 39.844 c 5.824,0 10.547,4.723 10.547,10.547 V 37.5 C 66.762,35.891 65.148,34.602 63.281,33.789 V 17.578 c 0,-3.234 -2.625,-5.859 -5.859,-5.859 H 17.578 c -3.234,0 -5.859,2.625 -5.859,5.859 v 39.844 c 0,3.234 2.625,5.859 5.859,5.859 H 41.09 c 0.183,1.629 0.707,3.223 1.59,4.688 H 17.578 C 11.754,67.969 7.031,63.246 7.031,57.422 Z M 50.227,52.734 C 48.949,51.43 47.973,49.832 47.41,48.047 H 35.156 c -1.293,0 -2.344,1.051 -2.344,2.344 0,1.293 1.051,2.343 2.344,2.343 z m 1.335,-17.578 c -1.609,1.207 -2.898,2.821 -3.71,4.688 H 35.156 c -1.293,0 -2.344,-1.051 -2.344,-2.344 0,-1.293 1.051,-2.344 2.344,-2.344 z M 28.125,24.609 c 0,1.942 -1.574,3.516 -3.516,3.516 -1.941,0 -3.515,-1.574 -3.515,-3.516 0,-1.941 1.574,-3.515 3.515,-3.515 1.942,0 3.516,1.574 3.516,3.515 z m 0,12.891 c 0,1.941 -1.574,3.516 -3.516,3.516 -1.941,0 -3.515,-1.575 -3.515,-3.516 0,-1.941 1.574,-3.516 3.515,-3.516 1.942,0 3.516,1.575 3.516,3.516 z m 0,12.891 c 0,1.941 -1.574,3.515 -3.516,3.515 -1.941,0 -3.515,-1.574 -3.515,-3.515 0,-1.942 1.574,-3.516 3.515,-3.516 1.942,0 3.516,1.574 3.516,3.516 z m 4.687,-25.782 c 0,-1.293 1.051,-2.343 2.344,-2.343 h 16.406 c 1.293,0 2.344,1.05 2.344,2.343 0,1.293 -1.051,2.344 -2.344,2.344 H 35.156 c -1.293,0 -2.344,-1.051 -2.344,-2.344 z m 33.985,19.922 c 0,4.531 -3.672,8.203 -8.203,8.203 -4.532,0 -8.203,-3.672 -8.203,-8.203 0,-4.531 3.671,-8.203 8.203,-8.203 4.531,0 8.203,3.672 8.203,8.203 z m 5.859,17.434 c 0,4.742 -4.019,9.519 -14.062,9.519 -10.043,0 -14.063,-4.761 -14.063,-9.519 0,-3.133 2.535,-5.715 5.664,-5.715 h 16.797 c 3.129,0 5.664,2.582 5.664,5.715 z" style="fill:currentColor;fill-opacity:1;fill-rule:nonzero;stroke:none" transform="scale(1.3333333)" /> </g>
</svg>

