<?xml version="1.0" encoding="UTF-8" standalone="no"?> <svg version="1.1" id="Ife06da4b84924a42a659f396a4b3648820251110124421" width="100" height="100" viewBox="0 0 100 100" xmlns="http://www.w3.org/2000/svg" xmlns:svg="http://www.w3.org/2000/svg"> <defs id="I513a43f008974b5e9c40d382c002e9c020251110124421" /> <g id="I8a1f936e12b64855ad074664a0acfa3120251110124421"> <path id="Ia5771078d78746679e3efd2eb6fc52ca20251110124421" d="m 32.812,8.035 c 1.11,0 2.008,0.899 2.008,2.012 0,1.109 -0.898,2.008 -2.008,2.008 H 19.418 c -4.066,0 -7.363,3.297 -7.363,7.367 v 36.16 c 0,4.066 3.297,7.363 7.363,7.363 h 36.164 c 4.066,0 7.363,-3.297 7.363,-7.363 V 42.188 c 0,-1.11 0.899,-2.008 2.012,-2.008 1.109,0 2.008,0.898 2.008,2.008 v 13.394 c 0,6.285 -5.098,11.383 -11.383,11.383 H 19.418 c -6.285,0 -11.383,-5.098 -11.383,-11.383 v -36.16 c 0,-6.289 5.098,-11.387 11.383,-11.387 z M 46.684,5.551 c 0.703,-0.332 1.531,-0.231 2.132,0.261 l 22.098,18.083 c 0.449,0.363 0.719,0.906 0.738,1.484 0.02,0.578 -0.211,1.137 -0.632,1.531 L 48.922,47.672 c -0.586,0.547 -1.442,0.695 -2.176,0.379 -0.734,-0.321 -1.211,-1.043 -1.211,-1.844 V 36.191 c -3.121,0.094 -6.597,0.504 -10.32,2.145 -4.246,1.871 -8.977,5.414 -13.824,12.258 l -0.969,1.414 c -0.492,0.734 -1.406,1.066 -2.254,0.808 -0.848,-0.257 -1.426,-1.039 -1.426,-1.921 0,-11.805 3.59,-20.254 9.403,-25.739 5.293,-4.992 12.222,-7.328 19.39,-7.691 V 7.367 c 0,-0.777 0.449,-1.484 1.149,-1.816 z m 2.871,13.871 c 0,1.109 -0.903,2.008 -2.012,2.008 -7.129,0 -13.781,2.066 -18.641,6.652 -3.785,3.57 -6.629,8.816 -7.687,16.191 4.176,-4.882 8.359,-7.843 12.379,-9.617 5.332,-2.351 10.199,-2.511 13.949,-2.511 0.535,0 1.047,0.21 1.422,0.585 0.375,0.379 0.59,0.891 0.59,1.422 v 7.407 L 66.598,25.551 49.555,11.605 Z" style="fill:currentColor;fill-opacity:1;fill-rule:nonzero;stroke:none" transform="scale(1.3333333)" /> </g>
</svg>

