<?xml version="1.0" encoding="UTF-8" standalone="no"?> <svg version="1.1" id="Ia63436562bc74c4eba9a98f1a91ee04420251110130510" width="100" height="100" viewBox="0 0 100 100" xmlns="http://www.w3.org/2000/svg" xmlns:svg="http://www.w3.org/2000/svg"> <defs id="I20b6a61f82004798b5a899572a89e1e220251110130510" /> <g id="I46af634931994ee09e6456e93694966e20251110130510"> <path id="I7b72cda55c1b4beba28208ac7474102720251110130510" d="m 17.578,11.719 c 0.934,0 1.774,0.551 2.149,1.406 l 8.203,18.75 c 0.519,1.184 -0.024,2.566 -1.207,3.086 -1.188,0.519 -2.571,-0.023 -3.09,-1.211 L 22.199,30.469 H 12.961 L 11.523,33.75 C 11.004,34.938 9.621,35.48 8.438,34.961 7.25,34.441 6.711,33.059 7.227,31.875 l 8.203,-18.75 c 0.375,-0.855 1.218,-1.406 2.148,-1.406 z m 2.57,14.062 -2.57,-5.871 -2.566,5.871 z M 9.375,44.531 c -1.293,0 -2.344,1.051 -2.344,2.344 0,1.293 1.051,2.344 2.344,2.344 h 56.25 c 1.297,0 2.344,-1.051 2.344,-2.344 0,-1.293 -1.047,-2.344 -2.344,-2.344 z m 0,14.063 c -1.293,0 -2.344,1.051 -2.344,2.344 0,1.292 1.051,2.343 2.344,2.343 h 56.25 c 1.297,0 2.344,-1.051 2.344,-2.343 0,-1.293 -1.047,-2.344 -2.344,-2.344 z M 30.469,14.062 c 0,-1.292 1.051,-2.343 2.343,-2.343 h 5.86 c 3.883,0 7.031,3.148 7.031,7.031 0,1.504 -0.473,2.898 -1.277,4.043 1.5,1.289 2.449,3.199 2.449,5.332 0,3.883 -3.148,7.031 -7.031,7.031 h -7.032 c -1.292,0 -2.343,-1.051 -2.343,-2.344 z m 4.687,11.719 v 4.688 h 4.688 c 1.297,0 2.344,-1.051 2.344,-2.344 0,-1.293 -1.047,-2.344 -2.344,-2.344 z m 0,-4.687 h 3.516 c 1.297,0 2.344,-1.051 2.344,-2.344 0,-1.293 -1.047,-2.344 -2.344,-2.344 h -3.516 z m 18.75,2.344 c 0,-2.754 0.692,-4.528 1.524,-5.559 0.8,-0.988 1.867,-1.473 3.117,-1.473 1.543,0 2.883,0.75 3.758,2.762 0.519,1.184 1.898,1.727 3.086,1.211 1.187,-0.52 1.73,-1.902 1.211,-3.086 -1.547,-3.543 -4.461,-5.574 -8.055,-5.574 -2.609,0 -5.035,1.078 -6.762,3.215 -1.691,2.093 -2.566,5.007 -2.566,8.504 0,3.496 0.875,6.41 2.566,8.503 1.727,2.137 4.153,3.215 6.762,3.215 3.594,0 6.508,-2.031 8.055,-5.574 0.519,-1.184 -0.024,-2.566 -1.211,-3.086 -1.188,-0.516 -2.567,0.027 -3.086,1.211 -0.875,2.012 -2.215,2.762 -3.758,2.762 -1.25,0 -2.317,-0.485 -3.117,-1.473 -0.832,-1.031 -1.524,-2.805 -1.524,-5.558 z" style="fill:currentColor;fill-opacity:1;fill-rule:nonzero;stroke:none" transform="scale(1.3333333)" /> </g>
</svg>

