<?xml version="1.0" encoding="UTF-8" standalone="no"?> <svg version="1.1" id="Ie3dad70ff69d4ff3867a6b1e9ef64f4f20251106170956" width="100" height="100" viewBox="0 0 100 100" xmlns="http://www.w3.org/2000/svg" xmlns:svg="http://www.w3.org/2000/svg"> <defs id="Id58406841e814604b9eddf9db2203eba20251106170956" /> <g id="Ied60ff9dfcde468d87a6962b1a25320920251106170956"> <path id="I04a0437d218e4aef800a28426a246df420251106170956" d="m 32.809,12.496 c -0.621,1.484 -1.067,3.055 -1.321,4.692 H 19.531 c -2.871,0 -5.222,2.21 -5.449,5.019 l -0.02,0.449 V 43.75 h 14.063 c 1.187,0 2.168,0.883 2.324,2.027 l 0.02,0.317 c 0,3.883 3.148,7.031 7.031,7.031 3.883,0 7.031,-3.148 7.031,-7.031 0,-1.188 0.883,-2.168 2.028,-2.324 l 0.316,-0.02 h 14.063 l 0.003,-5.414 c 1.723,-0.898 3.297,-2.035 4.688,-3.367 l -0.004,23.625 c 0,5.414 -4.238,9.84 -9.578,10.14 L 55.469,68.75 H 19.531 c -5.414,0 -9.84,-4.238 -10.14,-9.578 L 9.375,58.594 V 22.656 c 0,-5.414 4.238,-9.84 9.578,-10.14 L 19.531,12.5 Z M 26.016,48.438 H 14.062 v 10.156 c 0,2.871 2.211,5.222 5.02,5.449 l 0.449,0.019 h 35.938 c 2.871,0 5.222,-2.21 5.449,-5.019 l 0.02,-0.449 V 48.438 H 48.984 c -1.046,5.152 -5.468,9.074 -10.859,9.359 L 37.5,57.812 c -5.461,0 -10.047,-3.734 -11.348,-8.785 z M 51.562,3.125 c 9.493,0 17.188,7.695 17.188,17.187 0,9.493 -7.695,17.188 -17.188,17.188 -9.492,0 -17.187,-7.695 -17.187,-17.188 0,-9.492 7.695,-17.187 17.187,-17.187 z m 0.399,6.301 -0.266,-0.047 -0.172,-0.004 -0.171,0.016 -0.188,0.035 -0.262,0.094 -0.23,0.132 -0.176,0.145 -7.851,7.848 -0.18,0.218 c -0.371,0.532 -0.371,1.242 0,1.774 l 0.18,0.218 0.218,0.18 c 0.532,0.371 1.242,0.371 1.774,0 l 0.218,-0.18 5.141,-5.144 0.004,16.539 0.023,0.281 c 0.118,0.637 0.622,1.141 1.258,1.258 l 0.281,0.023 0.282,-0.023 c 0.636,-0.117 1.14,-0.621 1.258,-1.258 l 0.023,-0.281 -0.004,-16.543 5.149,5.148 0.218,0.18 c 0.606,0.422 1.45,0.363 1.992,-0.18 0.543,-0.543 0.602,-1.386 0.18,-1.992 L 60.48,17.645 52.52,9.699 52.371,9.602 52.16,9.492 Z" style="fill:currentColor;fill-opacity:1;fill-rule:nonzero;stroke:none" transform="scale(1.3333333)" /> </g>
</svg>

