<?xml version="1.0" encoding="UTF-8" standalone="no"?> <svg version="1.1" id="Idbe81eaaa7e340aaa2bcfeb8333c65e220251110123029" width="100" height="100" viewBox="0 0 100 100" xmlns="http://www.w3.org/2000/svg" xmlns:svg="http://www.w3.org/2000/svg"> <defs id="I46c92392bcd34e5986b7b764bded15ac20251110123029" /> <g id="I7b285aa32c5648058e84bff7bd99670b20251110123029"> <path id="I7dff40d710384967a47c510b2c6a6efe20251110123029" d="M 68.75,22.656 C 68.75,17.047 64.203,12.5 58.594,12.5 H 16.406 C 10.797,12.5 6.25,17.047 6.25,22.656 v 29.688 c 0,5.609 4.547,10.156 10.156,10.156 h 42.188 c 5.609,0 10.156,-4.547 10.156,-10.156 z M 64.062,42.188 H 48.438 v -9.376 h 15.624 z m -15.624,4.687 h 15.624 v 5.469 c 0,3.019 -2.449,5.468 -5.468,5.468 H 48.438 Z M 64.062,22.656 v 5.469 H 48.438 V 17.188 h 10.156 c 3.019,0 5.468,2.449 5.468,5.468 z M 43.75,17.188 V 57.812 H 16.406 c -3.019,0 -5.468,-2.449 -5.468,-5.468 V 22.656 c 0,-3.019 2.449,-5.468 5.468,-5.468 z" style="fill:currentColor;fill-opacity:1;fill-rule:nonzero;stroke:none" transform="scale(1.3333333)" /> </g>
</svg>

