<?xml version="1.0" encoding="UTF-8" standalone="no"?> <svg version="1.1" id="I7bfb5eb4e6a945c0adcf5b02cf66bd7c20251106152729" width="100" height="100" viewBox="0 0 100 100" xmlns="http://www.w3.org/2000/svg" xmlns:svg="http://www.w3.org/2000/svg"> <defs id="Idf0d407642c146e8a1cc0b38891a18fc20251106152729" /> <g id="I08583c05c7f7423d97074f05cf852d0e20251106152729"> <path id="I5883f76470f64173ba93890058fab45f20251106152729" d="m 42.855,10.715 c 1.481,0 2.68,1.199 2.68,2.68 0,1.476 -1.199,2.675 -2.68,2.675 H 18.75 c -2.957,0 -5.355,2.399 -5.355,5.36 v 34.82 c 0,2.957 2.398,5.355 5.355,5.355 h 34.82 c 2.961,0 5.36,-2.398 5.36,-5.355 V 32.145 c 0,-1.481 1.199,-2.68 2.675,-2.68 1.481,0 2.68,1.199 2.68,2.68 V 56.25 c 0,5.918 -4.797,10.715 -10.715,10.715 H 18.75 C 12.832,66.965 8.035,62.168 8.035,56.25 V 21.43 c 0,-5.918 4.797,-10.715 10.715,-10.715 z M 62.391,8.82 c 1.047,-1.047 2.742,-1.047 3.789,0 1.047,1.047 1.047,2.742 0,3.789 l -31.035,31.032 -5.68,1.894 1.894,-5.68 z" style="fill:currentColor;fill-opacity:1;fill-rule:nonzero;stroke:none" transform="scale(1.3333333)" /> </g>
</svg>

