<?xml version="1.0" encoding="UTF-8" standalone="no"?> <svg version="1.1" id="I5db85bffd72043d3b386c802ff442f1720251110124419" width="100" height="100" viewBox="0 0 100 100" xmlns="http://www.w3.org/2000/svg" xmlns:svg="http://www.w3.org/2000/svg"> <defs id="Ic28a4a3bb21e4f4ab1a0c7038fad51bb20251110124419" /> <g id="I6cfe3c8428554c4984893d0cea4b481f20251110124419"> <path id="I48867762f7304225a1b25c809cde7d9920251110124419" d="m 45.535,29.465 h 16.07 v 27.453 c 0,5.551 -4.496,10.047 -10.043,10.047 h -33.48 c -5.551,0 -10.047,-4.496 -10.047,-10.047 v -33.48 c 0,-5.547 4.496,-10.043 10.047,-10.043 h 27.453 z m -33.48,27.453 c 0,3.328 2.699,6.027 6.027,6.027 h 6.023 v -12.05 h -12.05 z m 16.07,6.027 H 41.52 V 50.895 H 28.125 Z m 17.41,0 h 6.027 c 3.329,0 6.028,-2.699 6.028,-6.027 V 50.895 H 45.535 Z m -33.48,-16.07 h 12.05 V 33.48 h -12.05 z m 16.07,0 H 41.52 V 33.48 H 28.125 Z m 17.41,0 H 57.59 V 33.48 H 45.535 Z M 18.082,17.41 c -3.332,0 -6.027,2.699 -6.027,6.028 v 6.027 h 12.05 V 17.41 Z M 28.125,29.465 H 41.52 V 17.41 H 28.125 Z M 59.238,2.992 c 1.305,-1.308 3.426,-1.308 4.735,0 l 8.031,8.031 c 1.308,1.309 1.308,3.426 0.004,4.735 l -8.035,8.031 c -1.309,1.309 -3.43,1.309 -4.735,0 l -8.035,-8.027 c -1.308,-1.309 -1.305,-3.43 0,-4.735 z m -4.718,10.399 7.085,7.086 7.086,-7.086 -7.086,-7.082 z" style="fill:currentColor;fill-opacity:1;fill-rule:nonzero;stroke:none" transform="scale(1.3333333)" /> </g>
</svg>

