<?xml version="1.0" encoding="UTF-8" standalone="no"?> <svg version="1.1" id="Id3a07e204ed24fbcbe784c02ae6c4f3220251110130510" width="100" height="100" viewBox="0 0 100 100" xmlns="http://www.w3.org/2000/svg" xmlns:svg="http://www.w3.org/2000/svg"> <defs id="Ife7ceed233b044f29dba60cb0378aeda20251110130510" /> <g id="I62c7dcf911504228a0108b55af3fea5e20251110130510"> <path id="I449eb348b0f140b19b1eed773289203c20251110130510" d="m 17.969,59.375 c -1.293,0 -2.344,-1.051 -2.344,-2.344 V 8.594 c 0,-1.293 1.051,-2.344 2.344,-2.344 1.293,0 2.343,1.051 2.343,2.344 v 48.437 c 0,1.293 -1.05,2.344 -2.343,2.344 z M 58.594,43.75 c -1.293,0 -2.344,-1.051 -2.344,-2.344 V 8.594 c 0,-1.293 1.051,-2.344 2.344,-2.344 1.293,0 2.344,1.051 2.344,2.344 v 32.812 c 0,1.293 -1.051,2.344 -2.344,2.344 z M 35.938,66.406 c 0,1.293 1.05,2.344 2.343,2.344 1.293,0 2.344,-1.051 2.344,-2.344 V 8.594 c 0,-1.293 -1.051,-2.344 -2.344,-2.344 -1.293,0 -2.343,1.051 -2.343,2.344 z" style="fill:currentColor;fill-opacity:1;fill-rule:nonzero;stroke:none" transform="scale(1.3333333)" /> </g>
</svg>

