<?xml version="1.0" encoding="UTF-8" standalone="no"?> <svg version="1.1" id="I26f4ed3f3a1d4cf99aefc4964db6d4ed20251106154012" width="100" height="100" viewBox="0 0 100 100" xmlns="http://www.w3.org/2000/svg" xmlns:svg="http://www.w3.org/2000/svg"> <defs id="I927d24c04a6c4fd89a6b479058f4f6c220251106154012" /> <g id="Ida6bfc3df4fb4a24b3e5f796da040e3520251106154012"> <path id="Ic6abfe95ca0d43548de913d149bf625d20251106154012" d="m 47.66,57.812 c 1.293,0 2.344,1.051 2.344,2.344 0,1.293 -1.051,2.344 -2.344,2.344 H 27.355 c -1.293,0 -2.343,-1.051 -2.343,-2.344 0,-1.293 1.05,-2.344 2.343,-2.344 z M 48.441,12.5 c 11.215,0 20.313,9.094 20.313,20.312 0,11.219 -9.098,20.313 -20.313,20.313 H 26.574 C 15.355,53.125 6.262,44.031 6.262,32.812 6.262,21.594 15.355,12.5 26.574,12.5 Z m -21.867,4.688 c -8.629,0 -15.625,6.996 -15.625,15.624 0,8.629 6.996,15.626 15.625,15.626 h 21.867 c 8.629,0 15.625,-6.997 15.625,-15.626 0,-8.628 -6.996,-15.624 -15.625,-15.624 z m 10.926,6.25 c 5.18,0 9.375,4.199 9.375,9.374 0,5.18 -4.195,9.376 -9.375,9.376 -5.18,0 -9.375,-4.196 -9.375,-9.376 0,-5.175 4.195,-9.374 9.375,-9.374 z m 0,4.687 c -2.59,0 -4.688,2.098 -4.688,4.687 0,2.59 2.098,4.688 4.688,4.688 2.59,0 4.688,-2.098 4.688,-4.688 0,-2.589 -2.098,-4.687 -4.688,-4.687 z m -18.75,1.563 c 1.727,0 3.125,1.398 3.125,3.124 0,1.727 -1.398,3.126 -3.125,3.126 -1.727,0 -3.125,-1.399 -3.125,-3.126 0,-1.726 1.398,-3.124 3.125,-3.124 z" style="fill:currentColor;fill-opacity:1;fill-rule:nonzero;stroke:none" transform="scale(1.3333333)" /> </g>
</svg>

