<?xml version="1.0" encoding="UTF-8" standalone="no"?> <svg version="1.1" id="I05569152e735411d94a1dd1bbd841c4220251106144520" width="100" height="100" viewBox="0 0 100 100" xmlns="http://www.w3.org/2000/svg" xmlns:svg="http://www.w3.org/2000/svg"> <defs id="I1dda55d83c80495ab51082e41b2ae7be20251106144520" /> <g id="I2cfa890ad526458eafe7e7994243394920251106144520"> <path id="Icc2a042afeda492e90453a9683acf92b20251106144520" d="M 68.75,37.5 C 68.75,20.242 54.758,6.25 37.5,6.25 20.242,6.25 6.25,20.242 6.25,37.5 c 0,5.062 1.207,9.957 3.484,14.352 L 6.398,63.797 c -0.195,0.687 -0.195,1.414 0,2.101 0.579,2.079 2.735,3.293 4.813,2.711 l 11.953,-3.336 c 4.391,2.274 9.277,3.477 14.336,3.477 1.098,0 2.18,-0.055 3.25,-0.168 -0.082,-0.453 -0.125,-0.918 -0.125,-1.394 V 63.879 C 39.602,64 38.559,64.062 37.5,64.062 c -4.586,0 -9,-1.164 -12.914,-3.343 l -0.844,-0.473 -12.457,3.477 3.477,-12.45 -0.473,-0.843 c -2.187,-3.918 -3.351,-8.336 -3.351,-12.93 0,-14.672 11.89,-26.562 26.562,-26.562 13.715,0 25,10.394 26.414,23.734 2.305,1.551 3.984,3.957 4.59,6.762 0.164,-1.289 0.246,-2.602 0.246,-3.934 z M 50,46.875 h -1.562 c -2.59,0 -4.688,2.098 -4.688,4.687 v 15.626 c 0,2.589 2.098,4.687 4.688,4.687 h 18.75 c 2.589,0 4.687,-2.098 4.687,-4.687 V 51.562 c 0,-2.589 -2.098,-4.687 -4.687,-4.687 H 65.625 V 43.75 c 0,-4.316 -3.496,-7.812 -7.813,-7.812 -4.316,0 -7.812,3.496 -7.812,7.812 z m 4.688,-3.125 c 0,-1.727 1.398,-3.125 3.124,-3.125 1.727,0 3.126,1.398 3.126,3.125 v 3.125 h -6.25 z m 6.25,15.625 c 0,1.727 -1.399,3.125 -3.126,3.125 -1.726,0 -3.124,-1.398 -3.124,-3.125 0,-1.727 1.398,-3.125 3.124,-3.125 1.727,0 3.126,1.398 3.126,3.125 z" style="fill:currentColor;fill-opacity:1;fill-rule:nonzero;stroke:none" transform="scale(1.3333333)" /> </g>
</svg>

