<?xml version="1.0" encoding="UTF-8" standalone="no"?> <svg version="1.1" id="I80f3788749f94de2bd822cde5715cb9820251106164749" width="100" height="100" viewBox="0 0 100 100" xmlns="http://www.w3.org/2000/svg" xmlns:svg="http://www.w3.org/2000/svg"> <defs id="I41d6f0a335984ee28877aced60a21c5620251106164749" /> <g id="Ie375c4d2dc9444979324508bdb2ea93020251106164749"> <path id="Ibdf4f87b708140bfa6c53e418000d5b920251106164749" d="m 58.594,10.938 c 5.609,0 10.156,4.546 10.156,10.156 v 32.82 c 0,5.609 -4.547,10.156 -10.156,10.156 H 16.406 C 10.797,64.07 6.25,59.523 6.25,53.914 v -32.82 c 0,-5.61 4.547,-10.156 10.156,-10.156 z M 25.047,27.723 c -5.082,0 -8.606,4.406 -8.606,9.757 0,5.356 3.524,9.77 8.606,9.77 2.773,0 5.32,-1.336 6.598,-3.793 l 0.238,-0.508 0.074,-0.219 0.055,-0.23 0.023,-0.262 v -4.75 l -0.019,-0.289 c -0.125,-0.84 -0.778,-1.504 -1.614,-1.64 l -0.32,-0.024 h -3.129 l -0.289,0.02 c -0.836,0.125 -1.5,0.777 -1.637,1.613 l -0.027,0.32 0.023,0.285 c 0.122,0.84 0.778,1.504 1.61,1.641 l 0.32,0.027 1.176,-0.003 v 2.296 l -0.02,0.043 c -0.589,1.004 -1.722,1.567 -3.062,1.567 -2.707,0 -4.699,-2.496 -4.699,-5.864 0,-3.363 1.988,-5.851 4.699,-5.851 1.316,0 2.066,0.144 3.004,0.594 0.969,0.468 2.137,0.058 2.605,-0.914 0.465,-0.973 0.055,-2.141 -0.918,-2.606 -1.508,-0.726 -2.828,-0.98 -4.691,-0.98 z m 14.418,0.382 c -0.981,0 -1.793,0.723 -1.93,1.665 l -0.023,0.289 v 14.879 l 0.023,0.289 c 0.137,0.941 0.949,1.664 1.93,1.664 0.98,0 1.793,-0.723 1.933,-1.664 l 0.02,-0.289 V 30.059 l -0.02,-0.289 c -0.14,-0.942 -0.953,-1.665 -1.933,-1.665 z m 15.605,0.02 -6.242,-0.02 c -0.98,-0.003 -1.797,0.715 -1.937,1.657 l -0.024,0.289 v 14.84 l 0.024,0.285 c 0.121,0.84 0.777,1.504 1.609,1.64 l 0.32,0.028 0.289,-0.024 c 0.836,-0.125 1.5,-0.777 1.637,-1.613 l 0.027,-0.316 v -3.485 h 3.508 l 0.289,-0.023 c 0.836,-0.121 1.5,-0.778 1.637,-1.61 l 0.027,-0.32 -0.019,-0.289 c -0.125,-0.836 -0.781,-1.5 -1.613,-1.637 L 54.281,37.5 h -3.508 v -5.484 l 4.282,0.015 0.289,-0.019 c 0.941,-0.137 1.668,-0.946 1.672,-1.926 0.004,-0.981 -0.715,-1.797 -1.657,-1.938 l -0.289,-0.023 -6.242,-0.02 z" style="fill:currentColor;fill-opacity:1;fill-rule:nonzero;stroke:none" transform="scale(1.3333333)" /> </g>
</svg>

