<?xml version="1.0" encoding="UTF-8" standalone="no"?> <svg version="1.1" id="I3803a46b2d4147d7b8684e3543fccd9920251106144521" width="100" height="100" viewBox="0 0 100 100" xmlns="http://www.w3.org/2000/svg" xmlns:svg="http://www.w3.org/2000/svg"> <defs id="I1c5c3b19f75040b6a1fc4fe1127345c520251106144521" /> <g id="I0bbfdaf344904497b9e9cde3443a0a7b20251106144521"> <path id="Ia099db333f984fc983363c5c42cc34c820251106144521" d="m 37.5,6.25 c 17.258,0 31.25,13.992 31.25,31.25 0,3.258 -0.5,6.398 -1.422,9.348 l -2.512,-5.024 c -2.878,-5.765 -11.105,-5.765 -13.984,0 L 38.348,66.816 c -0.321,0.633 -0.539,1.286 -0.676,1.934 H 37.5 C 20.242,68.75 6.25,54.758 6.25,37.5 6.25,20.242 20.242,6.25 37.5,6.25 Z M 47.562,28.031 33.594,41.996 27.438,35.844 c -0.915,-0.918 -2.399,-0.918 -3.313,0 -0.918,0.914 -0.918,2.398 0,3.312 l 7.813,7.813 c 0.914,0.918 2.398,0.918 3.312,0 L 50.875,31.344 c 0.918,-0.914 0.918,-2.399 0,-3.313 -0.914,-0.918 -2.398,-0.918 -3.313,0 z m 6.067,15.188 c 1.726,-3.457 6.664,-3.457 8.391,0 L 74.512,68.215 C 76.07,71.332 73.801,75 70.316,75 h -24.98 c -3.488,0 -5.758,-3.668 -4.199,-6.785 z m 5.758,8.328 c 0,-0.863 -0.699,-1.563 -1.563,-1.563 -0.863,0 -1.562,0.7 -1.562,1.563 v 9.383 c 0,0.863 0.699,1.562 1.562,1.562 0.864,0 1.563,-0.699 1.563,-1.562 z m -1.563,17.199 c 0.864,0 1.563,-0.699 1.563,-1.562 0,-0.864 -0.699,-1.563 -1.563,-1.563 -0.863,0 -1.562,0.699 -1.562,1.563 0,0.863 0.699,1.562 1.562,1.562 z" style="fill:currentColor;fill-opacity:1;fill-rule:nonzero;stroke:none" transform="scale(1.3333333)" /> </g>
</svg>

