<?xml version="1.0" encoding="UTF-8" standalone="no"?> <svg version="1.1" id="I91efcffa17114ba58897ec93dd79256620251106164750" width="100" height="100" viewBox="0 0 100 100" xmlns="http://www.w3.org/2000/svg" xmlns:svg="http://www.w3.org/2000/svg"> <defs id="Ic98d593f7ad8495a98f5c010d346322720251106164750" /> <g id="Ibf3c215b6634403ab230a5375745c2cc20251106164750"> <path id="Ieeedcb9b81f2491db3b262ef0339584520251106164750" d="m 37.5,53.57 c 3.699,0 6.695,3 6.695,6.7 0,3.695 -2.996,6.695 -6.695,6.695 -3.699,0 -6.695,-3 -6.695,-6.695 0,-3.7 2.996,-6.7 6.695,-6.7 z m 22.77,0 c 3.695,0 6.695,3 6.695,6.7 0,3.695 -3,6.695 -6.695,6.695 -3.7,0 -6.7,-3 -6.7,-6.695 0,-3.7 3,-6.7 6.7,-6.7 z m -45.54,0 c 3.7,0 6.7,3 6.7,6.7 0,3.695 -3,6.695 -6.7,6.695 -3.695,0 -6.695,-3 -6.695,-6.695 0,-3.7 3,-6.7 6.695,-6.7 z M 37.5,30.805 c 3.699,0 6.695,2.996 6.695,6.695 0,3.699 -2.996,6.695 -6.695,6.695 -3.699,0 -6.695,-2.996 -6.695,-6.695 0,-3.699 2.996,-6.695 6.695,-6.695 z m 22.77,0 c 3.695,0 6.695,2.996 6.695,6.695 0,3.699 -3,6.695 -6.695,6.695 -3.7,0 -6.7,-2.996 -6.7,-6.695 0,-3.699 3,-6.695 6.7,-6.695 z m -45.54,0 c 3.7,0 6.7,2.996 6.7,6.695 0,3.699 -3,6.695 -6.7,6.695 -3.695,0 -6.695,-2.996 -6.695,-6.695 0,-3.699 3,-6.695 6.695,-6.695 z M 37.5,8.035 c 3.699,0 6.695,3 6.695,6.695 0,3.7 -2.996,6.7 -6.695,6.7 -3.699,0 -6.695,-3 -6.695,-6.7 0,-3.695 2.996,-6.695 6.695,-6.695 z m 22.77,0 c 3.695,0 6.695,3 6.695,6.695 0,3.7 -3,6.7 -6.695,6.7 -3.7,0 -6.7,-3 -6.7,-6.7 0,-3.695 3,-6.695 6.7,-6.695 z m -45.54,0 c 3.7,0 6.7,3 6.7,6.695 0,3.7 -3,6.7 -6.7,6.7 -3.695,0 -6.695,-3 -6.695,-6.7 0,-3.695 3,-6.695 6.695,-6.695 z" style="fill:currentColor;fill-opacity:1;fill-rule:nonzero;stroke:none" transform="scale(1.3333333)" /> </g>
</svg>

