<?xml version="1.0" encoding="UTF-8" standalone="no"?> <svg version="1.1" id="If20e46e42ec2409f92cbe3d349a75db620251106105458" width="100" height="100" viewBox="0 0 100 100" xmlns="http://www.w3.org/2000/svg" xmlns:svg="http://www.w3.org/2000/svg"> <defs id="Ic5ccdea4ca67494194ccb64e1e348c5a20251106105458" /> <g id="I4bbcf8b9d7ee4fcf87795af61163228820251106105458"> <path id="Ibb079f8fa30b49349b88b03bf5371eda20251106105458" d="m 15.668,27.035 h 5.762 v 5.762 c 0,0.148 0.148,0.265 0.332,0.265 h 4.019 c 0.184,0 0.336,-0.117 0.336,-0.273 v -5.754 h 5.758 c 0.152,0 0.27,-0.148 0.27,-0.332 v -4.019 c 0,-0.184 -0.118,-0.336 -0.278,-0.336 h -5.75 V 16.59 c 0,-0.149 -0.152,-0.266 -0.336,-0.266 h -4.019 c -0.184,0 -0.332,0.117 -0.332,0.266 v 5.758 h -5.762 c -0.148,0 -0.266,0.152 -0.266,0.336 v 4.019 c 0,0.184 0.118,0.332 0.266,0.332 z m 27.457,0 h 16.207 c 0.148,0 0.266,-0.148 0.266,-0.332 v -4.019 c 0,-0.184 -0.118,-0.336 -0.278,-0.336 H 43.125 c -0.152,0 -0.27,0.152 -0.27,0.336 v 4.019 c 0,0.184 0.118,0.332 0.27,0.332 z m 0,22.184 h 16.207 c 0.148,0 0.266,-0.153 0.266,-0.336 v -4.016 c 0,-0.183 -0.118,-0.336 -0.278,-0.336 H 43.125 c -0.152,0 -0.27,0.153 -0.27,0.336 v 4.016 c 0,0.183 0.118,0.336 0.27,0.336 z m 0,8.707 h 16.207 c 0.148,0 0.266,-0.153 0.266,-0.336 v -4.02 c 0,-0.183 -0.118,-0.332 -0.278,-0.332 H 43.125 c -0.152,0 -0.27,0.149 -0.27,0.332 v 4.02 c 0,0.183 0.118,0.336 0.27,0.336 z m -16.383,-6.781 5.125,-6.27 c 0.36,-0.437 0.059,-1.098 -0.496,-1.098 h -4.25 c -0.191,0 -0.379,0.086 -0.496,0.243 L 23.781,47.504 20.934,44.02 C 20.812,43.871 20.633,43.781 20.441,43.777 H 16.18 c -0.551,0 -0.852,0.661 -0.492,1.098 l 5.121,6.27 -5.247,6.429 c -0.371,0.434 -0.07,1.094 0.485,1.094 h 4.25 c 0.195,0 0.379,-0.082 0.496,-0.242 l 2.973,-3.641 2.968,3.641 c 0.125,0.152 0.313,0.242 0.496,0.242 h 4.25 c 0.555,0 0.856,-0.66 0.497,-1.094 z M 68.305,4.02 H 6.695 C 5.215,4.02 4.02,5.215 4.02,6.695 v 61.61 c 0,1.48 1.195,2.675 2.675,2.675 h 61.61 c 1.48,0 2.675,-1.195 2.675,-2.675 V 6.695 C 70.98,5.215 69.785,4.02 68.305,4.02 Z M 65.289,65.289 H 9.711 V 9.711 h 55.578 z" style="fill:currentColor;fill-opacity:1;fill-rule:nonzero;stroke:none" transform="scale(1.3333333)" /> </g>
</svg>

