<?xml version="1.0" encoding="UTF-8" standalone="no"?> <svg version="1.1" id="I69b2d0a27239432186fbb0364715a5ef20251110124421" width="100" height="100" viewBox="0 0 100 100" xmlns="http://www.w3.org/2000/svg" xmlns:svg="http://www.w3.org/2000/svg"> <defs id="Ic61238ed3105460abb0297b22d0681e520251110124421" /> <g id="Ia7b238da03d2445d8d874b259e07f27620251110124421"> <path id="I6e08d8f8e8924c63b1286fb5c46735cb20251110124421" d="m 38.539,7.816 c -0.629,-0.421 -1.449,-0.421 -2.078,0 -7.27,4.844 -15.129,7.868 -23.602,9.079 -0.921,0.132 -1.609,0.921 -1.609,1.855 v 16.875 c 0,14.594 8.652,25.238 25.578,31.75 0.434,0.168 0.91,0.168 1.344,0 1.293,-0.496 2.535,-1.016 3.73,-1.563 C 41.164,64.793 40.52,63.711 39.965,62.574 39.168,62.93 38.348,63.277 37.5,63.613 22.379,57.613 15,48.344 15,35.625 v -15.27 c 7.445,-1.265 14.449,-3.871 20.996,-7.808 l 1.504,-0.934 1.504,0.934 C 45.551,16.484 52.555,19.09 60,20.355 v 11.239 l 0.02,0.019 c 0.75,0.782 1.496,1.449 2.242,2.012 0.496,0.375 0.992,0.707 1.488,0.992 V 18.75 c 0,-0.934 -0.688,-1.723 -1.609,-1.855 C 53.668,15.684 45.809,12.66 38.539,7.816 Z m -0.887,32.489 c 0.426,-1.758 1.727,-3.243 3.504,-3.809 l 7.043,-7.047 c 0.735,-0.73 0.735,-1.918 0,-2.648 -0.73,-0.735 -1.918,-0.735 -2.648,0 L 37.5,34.848 29.449,26.801 c -0.73,-0.735 -1.918,-0.735 -2.648,0 -0.735,0.73 -0.735,1.918 0,2.648 l 8.047,8.051 -8.047,8.051 c -0.735,0.73 -0.735,1.918 0,2.648 0.73,0.735 1.918,0.735 2.648,0 L 37.5,40.152 Z M 63.75,38.801 c -1.293,-0.543 -2.539,-1.27 -3.75,-2.184 -0.918,-0.695 -1.812,-1.496 -2.688,-2.41 -0.585,-0.609 -1.535,-0.609 -2.121,0 C 51.461,38.09 47.336,40 42.75,40 c -0.828,0 -1.5,0.699 -1.5,1.562 v 9.379 l 0.016,0.997 c 0.101,2.988 0.652,5.675 1.652,8.062 0.562,1.348 1.273,2.598 2.121,3.75 1.027,1.398 2.266,2.648 3.711,3.75 1.961,1.5 4.305,2.727 7.027,3.668 0.305,0.109 0.641,0.109 0.946,0 C 66.328,67.836 71.25,61 71.25,50.941 V 41.562 L 71.219,41.246 C 71.078,40.535 70.477,40 69.75,40 68.988,40 68.238,39.945 67.5,39.844 66.211,39.656 64.961,39.312 63.75,38.801 Z" style="fill:currentColor;fill-opacity:1;fill-rule:nonzero;stroke:none" transform="scale(1.3333333)" /> </g>
</svg>

