<?xml version="1.0" encoding="UTF-8" standalone="no"?> <svg version="1.1" id="I598f2313a80c4201a582786c08f2afb720251106143238" width="100" height="100" viewBox="0 0 100 100" xmlns="http://www.w3.org/2000/svg" xmlns:svg="http://www.w3.org/2000/svg"> <defs id="Ic9e5c35019e74d839b1d2a5e1ebc7fb420251106143238" /> <g id="I780c5dfe20cb48d3bf0187c3f333422320251106143238"> <path id="I43db00c93f7d45e99047196f3d83d09c20251106143238" d="M 65.625,37.566 V 26.562 H 9.375 v 28.907 c 0,5.609 4.547,10.156 10.156,10.156 h 18.035 c -2.019,-3.156 -3.191,-6.91 -3.191,-10.937 0,-11.219 9.094,-20.313 20.313,-20.313 4.027,0 7.781,1.172 10.937,3.191 z m 0,-18.035 C 65.625,13.922 61.078,9.375 55.469,9.375 H 19.531 c -5.609,0 -10.156,4.547 -10.156,10.156 v 2.344 h 56.25 z m 6.25,35.157 C 71.875,45.195 64.18,37.5 54.688,37.5 45.195,37.5 37.5,45.195 37.5,54.688 c 0,9.492 7.695,17.187 17.188,17.187 9.492,0 17.187,-7.695 17.187,-17.187 z m -18.75,-9.376 c 0,-0.863 0.699,-1.562 1.563,-1.562 0.863,0 1.562,0.699 1.562,1.562 v 12.5 c 0,0.864 -0.699,1.563 -1.562,1.563 -0.864,0 -1.563,-0.699 -1.563,-1.563 z m 3.516,18.75 c 0,1.079 -0.875,1.954 -1.953,1.954 -1.079,0 -1.954,-0.875 -1.954,-1.954 0,-1.078 0.875,-1.953 1.954,-1.953 1.078,0 1.953,0.875 1.953,1.953 z" style="fill:currentColor;fill-opacity:1;fill-rule:nonzero;stroke:none" transform="scale(1.3333333)" /> </g>
</svg>

