<?xml version="1.0" encoding="UTF-8" standalone="no"?> <svg version="1.1" id="I86eab3bbed7645f6af0e1c4b8c7a966520251110130509" width="100" height="100" viewBox="0 0 100 100" xmlns="http://www.w3.org/2000/svg" xmlns:svg="http://www.w3.org/2000/svg"> <defs id="I8be6e995c6684e878a617288105a8dec20251110130509" /> <g id="I6a728fd678ad4e90a7b1bcd2b194b87220251110130509"> <path id="I5be5652fa00e43e9ac0cbe8d5115bb0220251110130509" d="m 9.375,19.531 c 0,-5.609 4.547,-10.156 10.156,-10.156 h 35.938 c 5.609,0 10.156,4.547 10.156,10.156 v 16.223 c -1.316,-0.422 -2.727,-0.75 -4.203,-0.984 -1.645,-0.258 -3.379,-0.395 -5.172,-0.395 -4.695,0 -9.098,0.945 -12.445,2.617 -2.993,1.496 -5.969,4.051 -6.278,7.696 L 37.5,44.664 v 19.398 c 0,0.54 0.062,1.063 0.172,1.563 H 19.531 c -5.609,0 -10.156,-4.547 -10.156,-10.156 z m 29.687,9.375 c 0,1.293 1.051,2.344 2.344,2.344 h 10.938 c 1.293,0 2.344,-1.051 2.344,-2.344 0,-1.293 -1.051,-2.344 -2.344,-2.344 H 41.406 c -1.293,0 -2.344,1.051 -2.344,2.344 z m -5.374,-1.468 c 0.917,-0.915 0.917,-2.399 0,-3.313 -0.915,-0.918 -2.399,-0.918 -3.313,0 l -4.594,4.59 -1.469,-1.465 c -0.914,-0.918 -2.398,-0.918 -3.312,0 -0.918,0.914 -0.918,2.398 0,3.312 l 3.125,3.126 c 0.914,0.917 2.398,0.917 3.313,0 z m 0,13.874 c -0.915,-0.917 -2.399,-0.917 -3.313,0 l -4.594,4.59 -1.469,-1.464 c -0.914,-0.918 -2.398,-0.918 -3.312,0 -0.918,0.914 -0.918,2.398 0,3.312 l 3.125,3.125 c 0.914,0.918 2.398,0.918 3.313,0 l 6.25,-6.25 c 0.917,-0.914 0.917,-2.398 0,-3.313 z m 31.937,-2.25 C 64.227,38.535 62.645,38.125 60.938,37.859 59.457,37.625 57.883,37.5 56.25,37.5 c -8.629,0 -15.625,3.496 -15.625,7.812 0,4.317 6.996,7.813 15.625,7.813 1.633,0 3.207,-0.125 4.688,-0.359 1.707,-0.266 3.289,-0.676 4.687,-1.204 3.797,-1.425 6.25,-3.695 6.25,-6.25 0,-2.554 -2.453,-4.824 -6.25,-6.25 z m 0,15.809 c -1.457,0.465 -3.035,0.824 -4.687,1.055 -1.508,0.215 -3.083,0.324 -4.688,0.324 -4.695,0 -9.098,-0.945 -12.445,-2.617 -1.106,-0.555 -2.211,-1.25 -3.18,-2.098 v 12.527 c 0,1.11 0.465,2.168 1.301,3.126 2.41,2.757 7.918,4.687 14.324,4.687 8.629,0 15.625,-3.496 15.625,-7.813 V 51.535 c -0.969,0.848 -2.074,1.543 -3.18,2.098 -0.945,0.472 -1.972,0.887 -3.07,1.238 z" style="fill:currentColor;fill-opacity:1;fill-rule:nonzero;stroke:none" transform="scale(1.3333333)" /> </g>
</svg>

