<?xml version="1.0" encoding="UTF-8" standalone="no"?> <svg version="1.1" id="I150beb535b564e12b339cf558e78d9cc20251106132945" width="100" height="100" viewBox="0 0 100 100" xmlns="http://www.w3.org/2000/svg" xmlns:svg="http://www.w3.org/2000/svg"> <defs id="Icb384d57a7674d4e9c2e59128789bbb020251106132945" /> <g id="Ib1c427872148478abcb960ee99cffa8120251106132945"> <path id="Ie7000bb4e17742c490d8396b6a97fdb820251106132945" d="m 58.594,12.5 c 5.414,0 9.84,4.238 10.14,9.578 l 0.016,0.578 v 29.688 c 0,5.414 -4.238,9.84 -9.578,10.14 L 58.594,62.5 H 32.027 c -2.386,0 -4.691,-0.84 -6.511,-2.363 L 25.027,59.703 9.418,44.859 C 5.352,40.996 5.191,34.566 9.055,30.5 L 9.418,30.141 25.027,15.297 c 1.735,-1.645 3.981,-2.625 6.352,-2.777 L 32.027,12.5 Z M 35.77,26.242 c -0.918,-0.683 -2.219,-0.605 -3.051,0.227 -0.832,0.832 -0.91,2.133 -0.227,3.051 l 0.227,0.261 7.715,7.719 -7.715,7.719 -0.227,0.261 c -0.683,0.918 -0.605,2.219 0.227,3.051 0.832,0.832 2.133,0.91 3.051,0.227 l 0.261,-0.227 7.719,-7.715 7.719,7.715 0.261,0.227 c 0.918,0.683 2.219,0.605 3.051,-0.227 0.832,-0.832 0.91,-2.133 0.227,-3.051 L 54.781,45.219 47.066,37.5 54.781,29.781 55.008,29.52 c 0.683,-0.918 0.605,-2.219 -0.227,-3.051 -0.832,-0.832 -2.133,-0.91 -3.051,-0.227 l -0.261,0.227 -7.719,7.715 -7.719,-7.715 z" style="fill:currentColor;fill-opacity:1;fill-rule:nonzero;stroke:none" transform="scale(1.3333333)" /> </g>
</svg>

