<?xml version="1.0" encoding="UTF-8" standalone="no"?> <svg version="1.1" id="I29a1c4452abe41c497c258332b95d43f20251106132946" width="100" height="100" viewBox="0 0 100 100" xmlns="http://www.w3.org/2000/svg" xmlns:svg="http://www.w3.org/2000/svg"> <defs id="I4ed01659d4ba4f2daa182c909170efe420251106132946" /> <g id="I98a5b5a98cfd43d291f29595ab7eed6720251106132946"> <path id="I9c64f7dc59684e1d9ece7282f6ecb26e20251106132946" d="M 59.711,28.648 C 57.41,30.289 54.598,31.25 51.562,31.25 43.793,31.25 37.5,24.953 37.5,17.188 37.5,9.422 43.793,3.125 51.562,3.125 c 7.766,0 14.063,6.297 14.063,14.063 0,3.035 -0.965,5.847 -2.602,8.148 l 8.165,8.164 c 0.914,0.914 0.914,2.398 0,3.312 -0.915,0.918 -2.399,0.918 -3.317,0 z m 1.227,-11.46 c 0,-5.176 -4.2,-9.376 -9.376,-9.376 -5.179,0 -9.374,4.2 -9.374,9.376 0,5.175 4.195,9.374 9.374,9.374 5.176,0 9.376,-4.199 9.376,-9.374 z m -1.563,15.55 v 33.653 c 0,1.91 -2.16,3.019 -3.711,1.902 L 37.504,55.227 19.344,68.293 c -1.551,1.117 -3.711,0.008 -3.711,-1.902 V 19.527 c 0,-5.609 4.547,-10.156 10.156,-10.156 H 36.25 c -1.199,2.344 -1.875,5.004 -1.875,7.817 0,9.492 7.695,17.187 17.187,17.187 2.75,0 5.352,-0.648 7.657,-1.797 z" style="fill:currentColor;fill-opacity:1;fill-rule:nonzero;stroke:none" transform="scale(1.3333333)" /> </g>
</svg>

