<?xml version="1.0" encoding="UTF-8" standalone="no"?> <svg version="1.1" id="I5293da62b78146d294d01e6b622d4fd620251106170412" width="100" height="100" viewBox="0 0 100 100" xmlns="http://www.w3.org/2000/svg" xmlns:svg="http://www.w3.org/2000/svg"> <defs id="I962d698fc34a459d9f4f38ce6501ff1820251106170412" /> <g id="Ie4f001a33df54ddea7d45c059b4cdaaf20251106170412"> <path id="I8e4b65cbb46e464a8a7b3cc557612b9220251106170412" d="m 46.875,37.5 c 3.984,0 7.645,-1.379 10.535,-3.691 l 14.391,14.39 c 0.73,0.735 1.918,0.735 2.648,0 0.735,-0.73 0.735,-1.918 0,-2.648 L 60.059,31.156 C 62.371,28.27 63.75,24.609 63.75,20.625 63.75,11.305 56.195,3.75 46.875,3.75 37.555,3.75 30,11.305 30,20.625 30,29.945 37.555,37.5 46.875,37.5 Z m 0,-30 C 54.125,7.5 60,13.375 60,20.625 60,27.875 54.125,33.75 46.875,33.75 39.625,33.75 33.75,27.875 33.75,20.625 33.75,13.375 39.625,7.5 46.875,7.5 Z m 0.074,33.75 H 59.547 L 63.297,45 H 9.375 C 8.34,45 7.5,44.16 7.5,43.125 7.5,42.09 8.34,41.25 9.375,41.25 Z M 9.375,11.25 H 28.5 C 27.891,12.438 27.395,13.691 27.027,15 H 9.375 C 8.34,15 7.5,14.16 7.5,13.125 7.5,12.09 8.34,11.25 9.375,11.25 Z M 28.5,30 C 27.891,28.812 27.395,27.559 27.027,26.25 H 9.375 C 8.34,26.25 7.5,27.09 7.5,28.125 7.5,29.16 8.34,30 9.375,30 Z M 7.5,58.125 C 7.5,57.09 8.34,56.25 9.375,56.25 h 56.25 c 1.035,0 1.875,0.84 1.875,1.875 C 67.5,59.16 66.66,60 65.625,60 H 9.375 C 8.34,60 7.5,59.16 7.5,58.125 Z" style="fill:currentColor;fill-opacity:1;fill-rule:nonzero;stroke:none" transform="scale(1.3333333)" /> </g>
</svg>

