<?xml version="1.0" encoding="UTF-8" standalone="no"?> <svg version="1.1" id="I6b1450fa851a4411ad30260f5f55435620251106161452" width="100" height="100" viewBox="0 0 100 100" xmlns="http://www.w3.org/2000/svg" xmlns:svg="http://www.w3.org/2000/svg"> <defs id="Ie2d14ff3f9224c04b53b1680506e348620251106161452" /> <g id="I3cd7eeeb81844d5680e61c2581a1c4fc20251106161452"> <path id="I9b183a6e8960461b9fb91939f7f58cec20251106161452" d="M 64.453,23.438 H 49.219 c -1.293,0 -2.344,-1.051 -2.344,-2.344 V 5.859 Z M 42.188,21.094 c 0,3.883 3.148,7.031 7.031,7.031 h 16.406 v 35.148 c 0,3.879 -3.148,7.032 -7.031,7.032 H 40.988 c 0.676,-0.903 1.242,-1.887 1.649,-2.969 0.832,-2.25 0.953,-4.668 0.351,-7.004 -0.281,-1.098 -0.722,-2.137 -1.293,-3.09 0.254,-0.832 0.407,-1.695 0.469,-2.578 0.141,-2.144 -0.309,-4.281 -1.297,-6.176 -0.992,-1.89 -2.476,-3.48 -4.312,-4.605 -1.84,-1.11 -3.938,-1.695 -6.082,-1.695 h -4.688 c -1.879,0 -3.644,0.734 -4.953,2.042 -0.391,0.387 -0.723,0.801 -1.008,1.254 -0.277,-0.265 -0.582,-0.496 -0.883,-0.726 -0.066,-0.051 -0.129,-0.098 -0.191,-0.149 v -32.89 c 0,-3.883 3.148,-7.031 7.031,-7.031 H 42.188 Z M 37.48,54.375 c -0.082,1.285 -0.519,2.516 -1.261,3.57 l 0.008,0.008 c 1.089,0.93 1.863,2.18 2.226,3.57 0.356,1.391 0.281,2.86 -0.219,4.204 -0.5,1.347 -1.398,2.507 -2.578,3.328 -1.179,0.82 -2.582,1.261 -4.015,1.261 h -5.86 c -0.625,0 -1.219,-0.242 -1.66,-0.683 -0.433,-0.442 -0.683,-1.035 -0.683,-1.66 v -18.75 c 0,-0.621 0.242,-1.219 0.683,-1.661 0.441,-0.433 1.035,-0.683 1.66,-0.683 h 4.688 c 1.285,0 2.547,0.351 3.648,1.023 1.094,0.664 1.992,1.621 2.586,2.766 0.594,1.137 0.863,2.422 0.777,3.707 z m -7.011,-2.816 h -2.344 v 4.687 h 2.344 c 0.625,0 1.219,-0.246 1.66,-0.684 0.433,-0.441 0.683,-1.039 0.683,-1.66 0,-0.625 -0.242,-1.218 -0.683,-1.66 -0.441,-0.437 -1.035,-0.683 -1.66,-0.683 z m -2.344,14.062 h 3.516 c 0.625,0 1.218,-0.246 1.66,-0.683 0.433,-0.442 0.683,-1.04 0.683,-1.661 0,-0.625 -0.242,-1.218 -0.683,-1.66 -0.442,-0.437 -1.035,-0.683 -1.66,-0.683 H 28.125 Z M 16.508,59 c 1.113,1.844 1.906,3.859 2.344,5.965 0.031,0.121 0.066,0.242 0.093,0.359 0.09,0.36 0.164,0.68 0.254,0.938 0.34,0.32 0.574,0.738 0.676,1.195 0.098,0.457 0.063,0.934 -0.113,1.371 -0.172,0.434 -0.473,0.809 -0.864,1.07 -0.382,0.27 -0.843,0.411 -1.312,0.411 -2.227,0 -2.762,-2.149 -3.277,-4.215 L 14.305,66.09 14.293,66.039 C 13.867,64.355 13,60.934 11.719,60.934 H 9.375 v 7.031 c 0,0.621 -0.242,1.219 -0.684,1.66 -0.441,0.434 -1.035,0.684 -1.66,0.684 -0.625,0 -1.219,-0.247 -1.66,-0.684 -0.433,-0.441 -0.683,-1.039 -0.683,-1.66 v -18.75 c 0,-0.625 0.242,-1.219 0.683,-1.66 0.441,-0.438 1.035,-0.684 1.66,-0.684 h 4.692 c 1.402,0.008 2.765,0.441 3.925,1.231 1.157,0.793 2.047,1.914 2.563,3.218 0.512,1.301 0.629,2.731 0.324,4.102 C 18.23,56.789 17.527,58.035 16.508,59 Z M 11.719,51.559 H 9.375 v 4.687 h 2.344 c 0.625,0 1.219,-0.246 1.66,-0.684 0.433,-0.441 0.683,-1.039 0.683,-1.66 0,-0.625 -0.242,-1.218 -0.683,-1.66 -0.441,-0.437 -1.035,-0.683 -1.66,-0.683 z" style="fill:currentColor;fill-opacity:1;fill-rule:nonzero;stroke:none" transform="scale(1.3333333)" /> </g>
</svg>

