<?xml version="1.0" encoding="UTF-8" standalone="no"?> <svg version="1.1" id="Ia22fa160db234f65997f37043711088720251106155156" width="100" height="100" viewBox="0 0 100 100" xmlns="http://www.w3.org/2000/svg" xmlns:svg="http://www.w3.org/2000/svg"> <defs id="I2c4233239f19499b94d180a4597e41e420251106155156" /> <g id="I65855aa4a7ec4ca4a7cecbe6fc82c5cf20251106155156"> <path id="I3b72954e63a04327b45e80daee97256d20251106155156" d="m 57.812,62.5 c 0,0.859 -0.699,1.562 -1.562,1.562 H 37.5 v 3.126 c 0,0.535 -0.055,1.058 -0.156,1.562 H 56.25 c 3.449,0 6.25,-2.801 6.25,-6.25 V 30.711 c 0,-1.656 -0.66,-3.246 -1.832,-4.418 L 50.766,16.391 C 50.738,16.363 50.715,16.336 50.688,16.312 L 41.77,7.395 C 41.039,6.66 40.047,6.25 39.008,6.25 H 18.75 c -3.449,0 -6.25,2.801 -6.25,6.25 v 23.594 c 1.281,-1.305 2.887,-2.293 4.688,-2.828 V 12.5 c 0,-0.859 0.699,-1.562 1.562,-1.562 H 37.5 V 25 c 0,3.449 2.801,6.25 6.25,6.25 H 57.812 Z M 42.188,14.441 54.305,26.562 H 43.75 c -0.863,0 -1.562,-0.703 -1.562,-1.562 z M 20.312,35.938 c -4.316,0 -7.812,3.496 -7.812,7.812 v 3.125 h -1.562 c -2.59,0 -4.688,2.098 -4.688,4.687 v 15.626 c 0,2.589 2.098,4.687 4.688,4.687 h 18.75 c 2.589,0 4.687,-2.098 4.687,-4.687 V 51.562 c 0,-2.589 -2.098,-4.687 -4.687,-4.687 H 28.125 V 43.75 c 0,-4.316 -3.496,-7.812 -7.813,-7.812 z m -3.124,7.812 c 0,-1.727 1.398,-3.125 3.124,-3.125 1.727,0 3.126,1.398 3.126,3.125 v 3.125 h -6.25 z m 6.25,15.625 c 0,1.727 -1.399,3.125 -3.126,3.125 -1.726,0 -3.124,-1.398 -3.124,-3.125 0,-1.727 1.398,-3.125 3.124,-3.125 1.727,0 3.126,1.398 3.126,3.125 z m 17.968,-12.5 c 1.293,0 2.344,1.051 2.344,2.344 v 7.812 c 0,1.293 -1.051,2.344 -2.344,2.344 -1.293,0 -2.344,-1.051 -2.344,-2.344 v -7.812 c 0,-1.293 1.051,-2.344 2.344,-2.344 z m 11.719,-3.906 c 0,-1.293 -1.051,-2.344 -2.344,-2.344 -1.293,0 -2.343,1.051 -2.343,2.344 v 14.062 c 0,1.293 1.05,2.344 2.343,2.344 1.293,0 2.344,-1.051 2.344,-2.344 z" style="fill:currentColor;fill-opacity:1;fill-rule:nonzero;stroke:none" transform="scale(1.3333333)" /> </g>
</svg>

