<?xml version="1.0" encoding="UTF-8" standalone="no"?> <svg version="1.1" id="I316f353702da44ebb809d8e51d52293d20251110130509" width="100" height="100" viewBox="0 0 100 100" xmlns="http://www.w3.org/2000/svg" xmlns:svg="http://www.w3.org/2000/svg"> <defs id="I2da6945508034f76ac9c873c36e0a26820251110130509" /> <g id="I8d15b7cc12b34530ac24bb7ff97d6c7120251110130509"> <path id="I653890b661a04318a2cc514fc830771020251110130509" d="m 37.5,6.25 c 2.988,0 5.875,0.426 8.609,1.207 -0.359,0.223 -0.742,0.402 -1.14,0.539 l -4.188,1.375 c -1.476,0.527 -2.593,1.695 -3.051,3.133 -0.078,0 -0.152,-0.004 -0.23,-0.004 -13.809,0 -25,11.191 -25,25 0,13.809 11.191,25 25,25 13.363,0 24.273,-10.484 24.965,-23.676 0.742,2.356 1.57,5.082 4.597,5.082 0.387,0 0.739,-0.047 1.055,-0.129 C 65.211,58.027 52.609,68.75 37.5,68.75 20.242,68.75 6.25,54.758 6.25,37.5 6.25,20.242 20.242,6.25 37.5,6.25 Z m 0,12.5 c 3.586,0 6.934,1.004 9.781,2.75 0.649,0.574 1.164,1.281 1.438,2.09 L 50,28.121 c 0.664,1.945 2.504,3.274 4.562,3.281 0.219,0.004 0.438,-0.015 0.653,-0.047 0.668,1.926 1.035,3.993 1.035,6.145 0,10.355 -8.395,18.75 -18.75,18.75 -10.355,0 -18.75,-8.395 -18.75,-18.75 0,-10.355 8.395,-18.75 18.75,-18.75 z m 0,6.25 C 30.598,25 25,30.598 25,37.5 25,44.402 30.598,50 37.5,50 44.402,50 50,44.402 50,37.5 50,30.598 44.402,25 37.5,25 Z m 0,6.25 c 3.453,0 6.25,2.797 6.25,6.25 0,3.453 -2.797,6.25 -6.25,6.25 -3.453,0 -6.25,-2.797 -6.25,-6.25 0,-3.453 2.797,-6.25 6.25,-6.25 z M 67.141,25 c 0.195,0 0.382,0.062 0.543,0.176 0.16,0.109 0.281,0.269 0.347,0.453 l 0.778,2.391 c 0.242,0.726 0.652,1.39 1.191,1.929 0.543,0.543 1.203,0.949 1.93,1.192 l 2.394,0.773 0.043,0.012 c 0.184,0.066 0.348,0.187 0.457,0.347 0.114,0.161 0.176,0.352 0.176,0.547 0,0.196 -0.062,0.387 -0.176,0.543 -0.109,0.16 -0.273,0.282 -0.457,0.348 l -2.387,0.773 c -0.73,0.243 -1.39,0.649 -1.933,1.192 -0.543,0.539 -0.949,1.203 -1.192,1.929 l -0.777,2.391 c -0.066,0.184 -0.183,0.344 -0.344,0.453 -0.16,0.113 -0.351,0.176 -0.546,0.176 -0.196,0 -0.387,-0.063 -0.547,-0.176 C 66.48,40.34 66.363,40.18 66.297,39.996 L 65.52,37.605 c -0.243,-0.73 -0.649,-1.394 -1.188,-1.937 -0.543,-0.543 -1.207,-0.953 -1.937,-1.195 L 60.008,33.699 C 59.824,33.633 59.66,33.512 59.551,33.352 59.438,33.191 59.375,33 59.375,32.805 c 0,-0.196 0.063,-0.387 0.176,-0.543 0.109,-0.16 0.273,-0.282 0.457,-0.348 l 2.387,-0.773 c 0.718,-0.25 1.371,-0.661 1.906,-1.2 0.531,-0.543 0.933,-1.199 1.172,-1.921 l 0.773,-2.391 c 0.066,-0.184 0.188,-0.344 0.348,-0.453 C 66.75,25.062 66.945,25 67.141,25 Z M 54.602,0 c 0.351,0 0.695,0.109 0.984,0.312 0.285,0.204 0.5,0.493 0.617,0.825 l 1.402,4.297 c 0.434,1.308 1.168,2.5 2.145,3.472 0.977,0.977 2.164,1.711 3.473,2.145 l 4.308,1.398 0.082,0.02 c 0.332,0.117 0.621,0.336 0.825,0.625 0.203,0.285 0.312,0.629 0.312,0.98 0,0.352 -0.109,0.696 -0.312,0.981 -0.204,0.285 -0.493,0.504 -0.825,0.621 l -4.304,1.398 c -1.309,0.434 -2.497,1.168 -3.473,2.145 -0.977,0.972 -1.711,2.164 -2.145,3.472 l -1.398,4.297 c -0.012,0.039 -0.027,0.074 -0.043,0.11 -0.125,0.285 -0.324,0.535 -0.578,0.714 -0.289,0.204 -0.633,0.313 -0.984,0.313 -0.352,0 -0.696,-0.109 -0.985,-0.313 -0.285,-0.203 -0.504,-0.492 -0.621,-0.824 l -1.398,-4.297 c -0.317,-0.961 -0.793,-1.859 -1.411,-2.652 -0.222,-0.293 -0.468,-0.57 -0.73,-0.836 -0.977,-0.976 -2.168,-1.715 -3.477,-2.148 l -4.304,-1.399 c -0.332,-0.117 -0.621,-0.336 -0.824,-0.625 -0.204,-0.285 -0.313,-0.629 -0.313,-0.98 0,-0.352 0.109,-0.696 0.313,-0.981 0.203,-0.285 0.492,-0.504 0.824,-0.621 l 4.304,-1.398 c 1.293,-0.446 2.465,-1.184 3.426,-2.156 0.93,-0.95 1.641,-2.094 2.07,-3.352 L 51.598,5.434 52.996,1.137 C 53.113,0.805 53.332,0.516 53.621,0.312 53.906,0.109 54.25,0 54.602,0 Z" style="fill:currentColor;fill-opacity:1;fill-rule:nonzero;stroke:none" transform="scale(1.3333333)" /> </g>
</svg>

