<?xml version="1.0" encoding="UTF-8" standalone="no"?> <svg version="1.1" id="I5143a17022a1480084f62b5ba7d6d12620251106143239" width="100" height="100" viewBox="0 0 100 100" xmlns="http://www.w3.org/2000/svg" xmlns:svg="http://www.w3.org/2000/svg"> <defs id="I13ae73da2a6145b5897d3751048cfb3720251106143239" /> <g id="Idda304344b4a4a3f81a9c7bc9a11038220251106143239"> <path id="I9a0354baa9dd4a179b7d21628b372e1120251106143239" d="M 71.25,20.625 C 71.25,11.305 63.695,3.75 54.375,3.75 45.055,3.75 37.5,11.305 37.5,20.625 c 0,9.32 7.555,16.875 16.875,16.875 9.32,0 16.875,-7.555 16.875,-16.875 z m -16.875,7.051 c 1.293,0 2.34,1.051 2.34,2.344 0,1.292 -1.047,2.339 -2.34,2.339 -1.293,0 -2.344,-1.047 -2.344,-2.339 0,-1.293 1.051,-2.344 2.344,-2.344 z m 0,-18.289 c 3.867,0 6.949,3.172 6.949,7.312 0,2.196 -0.804,3.403 -2.726,4.946 l -1.039,0.8 c -0.922,0.731 -1.235,1.129 -1.297,1.684 l -0.043,0.586 c -0.157,0.875 -0.922,1.535 -1.844,1.535 -1.035,0 -1.875,-0.84 -1.875,-1.875 0,-2.141 0.789,-3.316 2.684,-4.832 l 1.043,-0.805 c 1.082,-0.859 1.347,-1.281 1.347,-2.039 0,-2.09 -1.429,-3.562 -3.199,-3.562 -1.852,0 -3.223,1.371 -3.199,3.543 0.008,1.035 -0.824,1.882 -1.86,1.894 -1.035,0.008 -1.882,-0.82 -1.89,-1.859 -0.043,-4.262 3.019,-7.328 6.949,-7.328 z" style="fill:currentColor;fill-opacity:1;fill-rule:nonzero;stroke:none" transform="scale(1.3333333)" /> <path id="Id11d2b5e1114413b9eb43d939d68e35720251106143239" d="m 55.668,41.211 c -0.426,0.027 -0.859,0.039 -1.293,0.039 -0.941,0 -1.867,-0.062 -2.777,-0.184 L 39.375,61.918 V 40.75 c 1.121,-0.648 1.875,-1.863 1.875,-3.25 0,-0.383 -0.059,-0.754 -0.164,-1.102 -0.363,-1.183 -1.301,-2.121 -2.484,-2.484 -0.348,-0.105 -0.719,-0.164 -1.102,-0.164 -2.07,0 -3.75,1.68 -3.75,3.75 0,1.387 0.754,2.602 1.875,3.25 V 61.918 L 23.309,40.91 C 22.371,39.305 22.281,37.34 23.078,35.656 L 29.312,22.5 h 4.524 c -0.059,-0.617 -0.086,-1.242 -0.086,-1.875 0,-0.633 0.027,-1.258 0.086,-1.875 H 24.375 C 23.34,18.75 22.5,17.91 22.5,16.875 v -7.5 C 22.5,8.34 21.66,7.5 20.625,7.5 19.59,7.5 18.75,8.34 18.75,9.375 v 7.5 c 0,3.105 2.52,5.625 5.625,5.625 h 0.785 l -5.469,11.551 c -1.328,2.804 -1.183,6.082 0.383,8.754 l 12.985,22.152 c 0.925,1.574 2.613,2.543 4.441,2.543 1.828,0 3.516,-0.969 4.441,-2.543 L 54.926,42.805 c 0.301,-0.512 0.547,-1.047 0.742,-1.594 z" style="fill:currentColor;fill-opacity:1;fill-rule:nonzero;stroke:none" transform="scale(1.3333333)" /> </g>
</svg>

