<?xml version="1.0" encoding="UTF-8" standalone="no"?> <svg version="1.1" id="I4513dbe8fa484cbe85701cb23b7e4cb120251106152729" width="100" height="100" viewBox="0 0 100 100" xmlns="http://www.w3.org/2000/svg" xmlns:svg="http://www.w3.org/2000/svg"> <defs id="Id5fe5532de434530baefcb6fb18b567a20251106152729" /> <g id="Id4c465ef6c534d6eacbfb4aa5c8545f020251106152729"> <path id="Ic944720c2246413db28b505e441a0fba20251106152729" d="m 5.367,23.438 c 0,-5.547 4.496,-10.043 10.047,-10.043 h 44.184 c 5.55,0 10.047,4.496 10.047,10.043 v 17.816 c -1.188,-1.277 -2.536,-2.402 -4.02,-3.34 V 29.465 H 9.387 v 22.097 c 0,3.329 2.695,6.028 6.027,6.028 H 35 c 0.184,1.39 0.512,2.734 0.965,4.015 H 15.414 C 9.863,61.605 5.367,57.109 5.367,51.562 Z M 15.414,17.41 c -3.332,0 -6.027,2.699 -6.027,6.028 v 2.007 h 56.238 v -2.007 c 0,-3.329 -2.695,-6.028 -6.027,-6.028 z m 56.906,37.5 c 0,9.617 -7.793,17.41 -17.41,17.41 -9.617,0 -17.41,-7.793 -17.41,-17.41 0,-9.617 7.793,-17.41 17.41,-17.41 9.617,0 17.41,7.793 17.41,17.41 z M 54.91,44.195 c -0.738,0 -1.34,0.602 -1.34,1.34 v 9.375 c 0,0.738 0.602,1.34 1.34,1.34 h 8.035 c 0.743,0 1.34,-0.602 1.34,-1.34 0,-0.738 -0.597,-1.34 -1.34,-1.34 H 56.25 v -8.035 c 0,-0.738 -0.602,-1.34 -1.34,-1.34 z" style="fill:currentColor;fill-opacity:1;fill-rule:nonzero;stroke:none" transform="scale(1.3333333)" /> </g>
</svg>

