<?xml version="1.0" encoding="UTF-8" standalone="no"?> <svg version="1.1" id="I85843cf4695f472c882552f2ecc7a28820251106170412" width="100" height="100" viewBox="0 0 100 100" xmlns="http://www.w3.org/2000/svg" xmlns:svg="http://www.w3.org/2000/svg"> <defs id="If63fcd1f0dbd40d8ae81375ff4108cae20251106170412" /> <g id="I7e5d266ca67a4cfb91e6173df7a1921920251106170412"> <path id="I0e2bc6a259ee4398911166a2789096f020251106170412" d="M 9.375,11.25 C 8.34,11.25 7.5,12.09 7.5,13.125 7.5,14.16 8.34,15 9.375,15 h 56.25 C 66.66,15 67.5,14.16 67.5,13.125 67.5,12.09 66.66,11.25 65.625,11.25 Z m 0,22.5 C 8.34,33.75 7.5,34.59 7.5,35.625 7.5,36.66 8.34,37.5 9.375,37.5 h 29.09 C 39.641,36.078 41,34.816 42.512,33.75 Z m 0,11.25 h 25.152 c -0.343,1.207 -0.578,2.461 -0.691,3.75 H 9.375 C 8.34,48.75 7.5,47.91 7.5,46.875 7.5,45.84 8.34,45 9.375,45 Z m 0,11.25 H 34.527 C 34.895,57.559 35.391,58.812 36,60 H 9.375 C 8.34,60 7.5,59.16 7.5,58.125 7.5,57.09 8.34,56.25 9.375,56.25 Z m 0,-33.75 C 8.34,22.5 7.5,23.34 7.5,24.375 c 0,1.035 0.84,1.875 1.875,1.875 h 56.25 C 66.66,26.25 67.5,25.41 67.5,24.375 67.5,23.34 66.66,22.5 65.625,22.5 Z M 71.25,50.625 c 0,9.32 -7.555,16.875 -16.875,16.875 -9.32,0 -16.875,-7.555 -16.875,-16.875 0,-9.32 7.555,-16.875 16.875,-16.875 9.32,0 16.875,7.555 16.875,16.875 z M 54.375,41.25 c -1.035,0 -1.875,0.84 -1.875,1.875 v 7.5 c 0,1.035 0.84,1.875 1.875,1.875 1.035,0 1.875,-0.84 1.875,-1.875 v -7.5 c 0,-1.035 -0.84,-1.875 -1.875,-1.875 z m 0,19.219 c 1.293,0 2.344,-1.051 2.344,-2.344 0,-1.293 -1.051,-2.344 -2.344,-2.344 -1.293,0 -2.344,1.051 -2.344,2.344 0,1.293 1.051,2.344 2.344,2.344 z" style="fill:currentColor;fill-opacity:1;fill-rule:nonzero;stroke:none" transform="scale(1.3333333)" /> </g>
</svg>

