<?xml version="1.0" encoding="UTF-8" standalone="no"?> <svg version="1.1" id="Iff212b30d99041b288b28db38e2572c920251106103256" width="100" height="100" viewBox="0 0 100 100" xmlns="http://www.w3.org/2000/svg" xmlns:svg="http://www.w3.org/2000/svg"> <defs id="I5fa255a315ad49689e67bfc5d57ade9f20251106103256" /> <g id="I13d4dccb26e0405a99443f9f4e5dd23a20251106103256"> <path id="I633b91a219c043c49b7f715438b1840020251106103256" d="M 53.707,5.098 C 53.258,4.871 52.73,5.199 52.734,5.699 v 5.375 c 0,0.461 0.243,0.887 0.629,1.137 1.887,1.191 3.633,2.59 5.207,4.172 2.735,2.742 4.887,5.933 6.387,9.48 1.547,3.676 2.344,7.625 2.332,11.614 0,4.023 -0.785,7.933 -2.332,11.609 -1.5,3.543 -3.668,6.762 -6.387,9.484 -2.715,2.727 -5.933,4.899 -9.476,6.395 -3.668,1.555 -7.574,2.344 -11.594,2.344 -4.02,0 -7.926,-0.789 -11.594,-2.344 C 22.363,63.469 19.145,61.297 16.43,58.57 13.711,55.848 11.543,52.629 10.043,49.086 8.496,45.41 7.699,41.461 7.711,37.477 c 0,-4.028 0.785,-7.938 2.332,-11.614 1.5,-3.547 3.652,-6.738 6.387,-9.48 1.593,-1.594 3.332,-2.981 5.207,-4.172 0.394,-0.242 0.629,-0.676 0.629,-1.137 V 5.691 c 0,-0.5 -0.528,-0.82 -0.973,-0.601 C 9.586,10.98 1.508,23.043 1.34,37.023 1.105,57.012 17.453,73.617 37.434,73.66 57.438,73.703 73.66,57.48 73.66,37.465 73.66,23.305 65.543,11.039 53.707,5.098 Z M 34.82,41.52 h 5.36 c 0.367,0 0.668,-0.305 0.668,-0.672 V 2.008 C 40.848,1.641 40.547,1.34 40.18,1.34 h -5.36 c -0.367,0 -0.668,0.301 -0.668,0.668 v 38.84 c 0,0.367 0.301,0.672 0.668,0.672 z" style="fill:currentColor;fill-opacity:1;fill-rule:nonzero;stroke:none" transform="scale(1.3333333)" /> </g>
</svg>

