<?xml version="1.0" encoding="UTF-8" standalone="no"?> <svg version="1.1" id="I5b39e1894b9a4d87a09afcbb7d8e8c7320251110124420" width="100" height="100" viewBox="0 0 100 100" xmlns="http://www.w3.org/2000/svg" xmlns:svg="http://www.w3.org/2000/svg"> <defs id="Id4881374e85f433f927d5654dcf719c820251110124420" /> <g id="I01a44eb32e0542d7b0f0a6e667f8aacc20251110124420"> <path id="Iac55f11fdf794ab1aaca157ac692bff320251110124420" d="m 16.406,10.938 c -3.019,0 -5.468,2.449 -5.468,5.468 v 9.375 c 0,1.293 -1.051,2.344 -2.344,2.344 -1.293,0 -2.344,-1.051 -2.344,-2.344 V 16.406 C 6.25,10.797 10.797,6.25 16.406,6.25 h 9.375 c 1.293,0 2.344,1.051 2.344,2.344 0,1.293 -1.051,2.344 -2.344,2.344 z m 0,53.124 c -3.019,0 -5.468,-2.449 -5.468,-5.468 v -9.375 c 0,-1.293 -1.051,-2.344 -2.344,-2.344 -1.293,0 -2.344,1.051 -2.344,2.344 v 9.375 c 0,5.609 4.547,10.156 10.156,10.156 h 9.375 c 1.293,0 2.344,-1.051 2.344,-2.344 0,-1.293 -1.051,-2.344 -2.344,-2.344 z M 64.062,16.406 c 0,-3.019 -2.449,-5.468 -5.468,-5.468 h -9.375 c -1.293,0 -2.344,-1.051 -2.344,-2.344 0,-1.293 1.051,-2.344 2.344,-2.344 h 9.375 c 5.609,0 10.156,4.547 10.156,10.156 v 9.375 c 0,1.293 -1.051,2.344 -2.344,2.344 -1.293,0 -2.344,-1.051 -2.344,-2.344 z m -5.468,47.656 c 3.019,0 5.468,-2.449 5.468,-5.468 v -9.375 c 0,-1.293 1.051,-2.344 2.344,-2.344 1.293,0 2.344,1.051 2.344,2.344 v 9.375 c 0,5.609 -4.547,10.156 -10.156,10.156 h -9.375 c -1.293,0 -2.344,-1.051 -2.344,-2.344 0,-1.293 1.051,-2.344 2.344,-2.344 z M 21.875,24.219 c 0,-1.293 1.051,-2.344 2.344,-2.344 h 26.562 c 1.293,0 2.344,1.051 2.344,2.344 v 3.906 c 0,1.293 -1.051,2.344 -2.344,2.344 -1.293,0 -2.343,-1.051 -2.343,-2.344 v -1.563 h -8.594 v 21.876 h 4.687 c 1.293,0 2.344,1.05 2.344,2.343 0,1.293 -1.051,2.344 -2.344,2.344 H 30.469 c -1.293,0 -2.344,-1.051 -2.344,-2.344 0,-1.293 1.051,-2.343 2.344,-2.343 h 4.687 V 26.562 h -8.594 v 1.563 c 0,1.293 -1.05,2.344 -2.343,2.344 -1.293,0 -2.344,-1.051 -2.344,-2.344 z" style="fill:currentColor;fill-opacity:1;fill-rule:nonzero;stroke:none" transform="scale(1.3333333)" /> </g>
</svg>

