<?xml version="1.0" encoding="UTF-8" standalone="no"?> <svg version="1.1" id="Ib3375672d3974164b5ff31d468c05cc520251110133655" width="100" height="100" viewBox="0 0 100 100" xmlns="http://www.w3.org/2000/svg" xmlns:svg="http://www.w3.org/2000/svg"> <defs id="Icabb117600054c7b81ba6ac59e71f9f520251110133655"> <linearGradient x1="20.620199" y1="12.2335" x2="28.1271" y2="28.503401" gradientUnits="userSpaceOnUse" gradientTransform="scale(1.5625)" spreadMethod="pad" id="Ic7679517a63a44078f023e5088530a4c20251110133655"> <stop style="stop-opacity:1;stop-color:#ffe580" offset="0" id="Icd87854862c84abfaa4311319d31f10620251110133655" /> <stop style="stop-opacity:1;stop-color:#ffbf70" offset="0.27282" id="Ifa90958523b5422c8fc6b667db5f979820251110133655" /> <stop style="stop-opacity:1;stop-color:#ffa342" offset="0.57" id="I9f53d28b4e254dfb9fa959c457227df520251110133655" /> <stop style="stop-opacity:1;stop-color:#fa6673" offset="0.96" id="I12ecac85d0c7468ab5ed717bbafba5ae20251110133655" /> <stop style="stop-opacity:1;stop-color:#fa6673" offset="1" id="I4c594516044c48629003dabfca473dbe20251110133655" /> </linearGradient> <linearGradient x1="1.06243" y1="26" x2="44" y2="26" gradientUnits="userSpaceOnUse" gradientTransform="scale(1.5625)" spreadMethod="pad" id="I4cdd944adfd04679a2788bfd31461c0c20251110133655"> <stop style="stop-opacity:1;stop-color:#0fafff" offset="0" id="I3e3eca75728a425183f70157bef6837a20251110133655" /> <stop style="stop-opacity:1;stop-color:#0fafff" offset="0.0606792" id="I66c0d70c6e604e4f9b4aa607a22b370c20251110133655" /> <stop style="stop-opacity:1;stop-color:#0094f0" offset="1" id="I7ed6a45449cb4779a8c284776086968920251110133655" /> </linearGradient> <linearGradient x1="1.06243" y1="26" x2="44" y2="26" gradientUnits="userSpaceOnUse" gradientTransform="scale(1.5625)" spreadMethod="pad" id="I858f4d90ae4c4445a7d83c27b37e9a3f20251110133655"> <stop style="stop-opacity:1;stop-color:#0fafff" offset="0" id="Ie01fcca833254100b49807c5615fd1a320251110133655" /> <stop style="stop-opacity:1;stop-color:#0fafff" offset="0.0606792" id="Id482b99af02749eaaac3d8b4d0efcbe120251110133655" /> <stop style="stop-opacity:1;stop-color:#0094f0" offset="1" id="I39fec69a30214e049efd60590d43c71920251110133655" /> </linearGradient> <linearGradient x1="1.06243" y1="26" x2="44" y2="26" gradientUnits="userSpaceOnUse" gradientTransform="scale(1.5625)" spreadMethod="pad" id="I3ea6c220415041c69049161092518caa20251110133655"> <stop style="stop-opacity:1;stop-color:#0fafff" offset="0" id="I28a1f60193594602bc4281ab0c97325320251110133655" /> <stop style="stop-opacity:1;stop-color:#0fafff" offset="0.0606792" id="Ifbaa8c123b78413f9f3eee40a90ac2d820251110133655" /> <stop style="stop-opacity:1;stop-color:#0094f0" offset="1" id="Ide0012d354424907a4653e1a231995d520251110133655" /> </linearGradient> <linearGradient x1="19.391199" y1="3.4251399" x2="25.326" y2="25.3055" gradientUnits="userSpaceOnUse" gradientTransform="scale(1.5625)" spreadMethod="pad" id="I311be7d44263445aad64fe540092057a20251110133655"> <stop style="stop-opacity:1;stop-color:#ffe580" offset="0" id="I02a4adb6d77c4c60b048dee1f6386e5f20251110133655" /> <stop style="stop-opacity:1;stop-color:#ffbf70" offset="0.27282" id="I1a967f51b2b948cc8acb1c7f30629f0a20251110133655" /> <stop style="stop-opacity:1;stop-color:#ffa342" offset="0.57" id="Iab73f4852ca94132bd1d1fcf11f1e0ed20251110133655" /> <stop style="stop-opacity:1;stop-color:#fa6673" offset="0.815371" id="Icdc0ce4dca654570998be0e8ff79493820251110133655" /> <stop style="stop-opacity:1;stop-color:#fa6673" offset="1" id="If52c4486878a45c28695ca7291fd8ce520251110133655" /> </linearGradient> <linearGradient x1="19.391199" y1="3.4251399" x2="25.326" y2="25.3055" gradientUnits="userSpaceOnUse" gradientTransform="scale(1.5625)" spreadMethod="pad" id="Icdec7e5769c34237b8d7e71bd551666220251110133655"> <stop style="stop-opacity:1;stop-color:#ffe580" offset="0" id="I3547fa3fb0a34462b497557bbc97450b20251110133655" /> <stop style="stop-opacity:1;stop-color:#ffbf70" offset="0.27282" id="I8a5be5f57c7140508b2a7424a98f63e020251110133655" /> <stop style="stop-opacity:1;stop-color:#ffa342" offset="0.57" id="I6dc3c4b59a6947c2ac6ef840fca8007020251110133655" /> <stop style="stop-opacity:1;stop-color:#fa6673" offset="0.815371" id="I5ef57486a9a44e18b58ae12ace8a10b520251110133655" /> <stop style="stop-opacity:1;stop-color:#fa6673" offset="1" id="Iaf842715974b43cf9495dd45654688db20251110133655" /> </linearGradient> <linearGradient x1="19.391199" y1="3.4251399" x2="25.326" y2="25.3055" gradientUnits="userSpaceOnUse" gradientTransform="scale(1.5625)" spreadMethod="pad" id="Ia5805e886b3940e9b6bad8ffb04df20d20251110133655"> <stop style="stop-opacity:1;stop-color:#ffe580" offset="0" id="I43464dfb6d9d4b82bf71458f157fdff720251110133655" /> <stop style="stop-opacity:1;stop-color:#ffbf70" offset="0.27282" id="Iff98eeb4d37e40d4b11773b1be8d24ab20251110133655" /> <stop style="stop-opacity:1;stop-color:#ffa342" offset="0.57" id="I50adb2ef4cc543f7a92924bfa3ba8cb120251110133655" /> <stop style="stop-opacity:1;stop-color:#fa6673" offset="0.815371" id="I724645a191f946d6b264f47aa432202420251110133655" /> <stop style="stop-opacity:1;stop-color:#fa6673" offset="1" id="Ia82d558363734d3aa1b0e51e7ad24bad20251110133655" /> </linearGradient> </defs> <g id="I7bbaec5b5fd2401a98b4d4ed95b689ae20251110133655"> <path id="Ic6f184ec21f74acfabde0b7a679102ff20251110133655" d="m 54.039,42.188 c 0.422,-1.489 0.649,-3.063 0.649,-4.688 0,-9.492 -7.696,-17.188 -17.188,-17.188 -9.492,0 -17.188,7.696 -17.188,17.188 0,1.625 0.227,3.199 0.649,4.688 z" style="fill:#d9d9d9;fill-opacity:1;fill-rule:nonzero;stroke:none" transform="scale(1.3333333)" /> <path id="I1c76a0796d5b4266990fcbf65a52270f20251110133655" d="m 54.039,42.188 c 0.422,-1.489 0.649,-3.063 0.649,-4.688 0,-9.492 -7.696,-17.188 -17.188,-17.188 -9.492,0 -17.188,7.696 -17.188,17.188 0,1.625 0.227,3.199 0.649,4.688 z" transform="scale(1.3333333)" style="fill:url(#Ic7679517a63a44078f023e5088530a4c20251110133655);stroke:none" /> <path id="I5190becb8f1e4497a097dd90e728bc5b20251110133655" d="m 6.25,42.969 c 0,-1.293 1.051,-2.344 2.344,-2.344 h 57.812 c 1.293,0 2.344,1.051 2.344,2.344 0,1.293 -1.051,2.343 -2.344,2.343 H 8.594 c -1.293,0 -2.344,-1.05 -2.344,-2.343 z" style="fill:#c55d5d;fill-opacity:1;fill-rule:nonzero;stroke:none" transform="scale(1.3333333)" /> <path id="Icd6545d5f7cf46f1ac85e1f9cb3210b220251110133655" d="m 6.25,42.969 c 0,-1.293 1.051,-2.344 2.344,-2.344 h 57.812 c 1.293,0 2.344,1.051 2.344,2.344 0,1.293 -1.051,2.343 -2.344,2.343 H 8.594 c -1.293,0 -2.344,-1.05 -2.344,-2.343 z" transform="scale(1.3333333)" style="fill:url(#I4cdd944adfd04679a2788bfd31461c0c20251110133655);stroke:none" /> <path id="I2cceeae1062d4b2ea4645388fb00858820251110133655" d="M 18.75,52.344 C 18.75,51.051 19.801,50 21.094,50 h 32.812 c 1.293,0 2.344,1.051 2.344,2.344 0,1.293 -1.051,2.344 -2.344,2.344 H 21.094 c -1.293,0 -2.344,-1.051 -2.344,-2.344 z" style="fill:#c55d5d;fill-opacity:1;fill-rule:nonzero;stroke:none" transform="scale(1.3333333)" /> <path id="Ic70c5e1f10a34702b5b844c89c6f143420251110133655" d="M 18.75,52.344 C 18.75,51.051 19.801,50 21.094,50 h 32.812 c 1.293,0 2.344,1.051 2.344,2.344 0,1.293 -1.051,2.344 -2.344,2.344 H 21.094 c -1.293,0 -2.344,-1.051 -2.344,-2.344 z" transform="scale(1.3333333)" style="fill:url(#I858f4d90ae4c4445a7d83c27b37e9a3f20251110133655);stroke:none" /> <path id="Idf1362a6d2aa41dab847a6c04275d0db20251110133655" d="m 31.25,61.719 c 0,-1.293 1.051,-2.344 2.344,-2.344 h 7.812 c 1.293,0 2.344,1.051 2.344,2.344 0,1.293 -1.051,2.343 -2.344,2.343 h -7.812 c -1.293,0 -2.344,-1.05 -2.344,-2.343 z" style="fill:#c55d5d;fill-opacity:1;fill-rule:nonzero;stroke:none" transform="scale(1.3333333)" /> <path id="I93cdbb8c49bc41358605d464733e589f20251110133655" d="m 31.25,61.719 c 0,-1.293 1.051,-2.344 2.344,-2.344 h 7.812 c 1.293,0 2.344,1.051 2.344,2.344 0,1.293 -1.051,2.343 -2.344,2.343 h -7.812 c -1.293,0 -2.344,-1.05 -2.344,-2.343 z" transform="scale(1.3333333)" style="fill:url(#I3ea6c220415041c69049161092518caa20251110133655);stroke:none" /> <path id="Ic3b5a4212f564fd3afe43a618ca2c6e620251110133655" d="m 37.5,6.25 c 1.293,0 2.344,1.051 2.344,2.344 v 5.468 c 0,1.293 -1.051,2.344 -2.344,2.344 -1.293,0 -2.344,-1.051 -2.344,-2.344 V 8.594 c 0,-1.293 1.051,-2.344 2.344,-2.344 z" style="fill:#c55d5d;fill-opacity:1;fill-rule:nonzero;stroke:none" transform="scale(1.3333333)" /> <path id="Ie838717d36ef4aeeb8c2c51ddc916e5420251110133655" d="m 37.5,6.25 c 1.293,0 2.344,1.051 2.344,2.344 v 5.468 c 0,1.293 -1.051,2.344 -2.344,2.344 -1.293,0 -2.344,-1.051 -2.344,-2.344 V 8.594 c 0,-1.293 1.051,-2.344 2.344,-2.344 z" transform="scale(1.3333333)" style="fill:url(#I311be7d44263445aad64fe540092057a20251110133655);stroke:none" /> <path id="Icb6cdfda3b604b01b80843fe8bf7177f20251110133655" d="m 14.75,14.75 c 0.914,-0.918 2.398,-0.918 3.312,0 l 3.907,3.906 c 0.918,0.914 0.918,2.399 0,3.313 -0.914,0.918 -2.399,0.918 -3.313,0 L 14.75,18.062 c -0.918,-0.914 -0.918,-2.398 0,-3.312 z" style="fill:#c55d5d;fill-opacity:1;fill-rule:nonzero;stroke:none" transform="scale(1.3333333)" /> <path id="Iaceddd535d104026a2b10a57ae6dd38a20251110133655" d="m 14.75,14.75 c 0.914,-0.918 2.398,-0.918 3.312,0 l 3.907,3.906 c 0.918,0.914 0.918,2.399 0,3.313 -0.914,0.918 -2.399,0.918 -3.313,0 L 14.75,18.062 c -0.918,-0.914 -0.918,-2.398 0,-3.312 z" transform="scale(1.3333333)" style="fill:url(#Icdec7e5769c34237b8d7e71bd551666220251110133655);stroke:none" /> <path id="I93d287553d784bb09d63dac772d1207d20251110133655" d="m 56.938,14.75 c 0.914,-0.918 2.398,-0.918 3.312,0 0.918,0.914 0.918,2.398 0,3.312 l -3.906,3.907 c -0.914,0.918 -2.399,0.918 -3.313,0 -0.918,-0.914 -0.918,-2.399 0,-3.313 z" style="fill:#c55d5d;fill-opacity:1;fill-rule:nonzero;stroke:none" transform="scale(1.3333333)" /> <path id="I1ae59a56ae674315a2d5d542c1b0c88820251110133655" d="m 56.938,14.75 c 0.914,-0.918 2.398,-0.918 3.312,0 0.918,0.914 0.918,2.398 0,3.312 l -3.906,3.907 c -0.914,0.918 -2.399,0.918 -3.313,0 -0.918,-0.914 -0.918,-2.399 0,-3.313 z" transform="scale(1.3333333)" style="fill:url(#Ia5805e886b3940e9b6bad8ffb04df20d20251110133655);stroke:none" /> </g>
</svg>

