<?xml version="1.0" encoding="UTF-8" standalone="no"?> <svg version="1.1" id="I2854e7c205964e288f80952c0793f7c620251106123559" width="100" height="100" viewBox="0 0 100 100" xmlns="http://www.w3.org/2000/svg" xmlns:svg="http://www.w3.org/2000/svg"> <defs id="Ib891cd116c7144429fd7c981b3f6c33620251106123559" /> <g id="Idcf1f018808f42f5b75d9415f66b754c20251106123559"> <path id="Ie244031365f0444aabce838ce6916d4a20251106123559" d="m 11.25,15 c -4.141,0 -7.5,3.359 -7.5,7.5 v 30 c 0,4.141 3.359,7.5 7.5,7.5 H 15 c 4.141,0 7.5,-3.359 7.5,-7.5 v -30 C 22.5,18.359 19.141,15 15,15 Z" style="fill:currentColor;fill-opacity:1;fill-rule:nonzero;stroke:none" transform="scale(1.3333333)" /> <path id="I1e748aa83eb542f9ae3a11b16fb091a220251106123559" d="m 60,15 c -4.141,0 -7.5,3.359 -7.5,7.5 v 30 c 0,4.141 3.359,7.5 7.5,7.5 h 3.75 c 4.141,0 7.5,-3.359 7.5,-7.5 v -30 c 0,-4.141 -3.359,-7.5 -7.5,-7.5 z" style="fill:currentColor;fill-opacity:1;fill-rule:nonzero;stroke:none" transform="scale(1.3333333)" /> </g>
</svg>

