<?xml version="1.0" encoding="UTF-8" standalone="no"?> <svg version="1.1" id="I903a06713db44596a19f7375b0ca594120251106105802" width="100" height="100" viewBox="0 0 100 100" xmlns="http://www.w3.org/2000/svg" xmlns:svg="http://www.w3.org/2000/svg"> <defs id="I654a00c4871f44898e37d9019df69c9d20251106105802" /> <g id="I61cc532c83a0409d9c0c964900de53c820251106105802"> <path id="I08ab23735c534ef19973d837c88028c820251106105802" d="m 37.5,3.934 c -0.777,0 -1.543,0.175 -2.242,0.515 L 12.547,15.414 c -1.414,0.684 -2.442,1.973 -2.789,3.5 L 4.145,43.57 c -0.344,1.528 0.019,3.129 0.996,4.356 l 15.718,19.769 c 0.981,1.231 2.465,1.946 4.039,1.946 h 25.2 c 1.574,0 3.062,-0.715 4.039,-1.946 L 69.859,47.93 v -0.004 c 0.973,-1.227 1.34,-2.828 0.996,-4.356 L 65.238,18.914 c -0.347,-1.531 -1.375,-2.816 -2.785,-3.5 L 39.746,4.449 C 39.746,4.445 39.742,4.445 39.742,4.445 39.043,4.109 38.277,3.934 37.5,3.934 m 0,2.937 c 0.328,0 0.656,0.074 0.965,0.223 l 22.711,10.965 c 0.609,0.293 1.051,0.847 1.203,1.507 l 5.609,24.653 c 0.153,0.66 -0.004,1.351 -0.426,1.879 L 51.84,65.867 c -0.422,0.528 -1.063,0.836 -1.742,0.836 h -25.2 c -0.675,0 -1.316,-0.308 -1.738,-0.836 L 7.441,46.098 C 7.02,45.57 6.859,44.879 7.008,44.219 L 12.625,19.57 c 0.148,-0.66 0.59,-1.215 1.199,-1.508 V 18.059 L 36.531,7.094 C 36.832,6.945 37.164,6.871 37.5,6.871 m -0.012,6.18 c -0.207,0 -0.418,0.043 -0.621,0.129 -0.805,0.351 -1.187,1.289 -0.836,2.097 0.34,0.793 0.453,1.586 0.543,2.379 0.028,0.41 0.047,0.809 0.031,1.207 0.043,0.395 -0.164,0.793 -0.457,1.188 -0.308,0.398 -0.336,0.797 -0.382,1.191 -4.032,0.395 -7.657,2.164 -10.434,4.817 l -0.023,-0.012 c -0.34,-0.223 -0.661,-0.442 -1.176,-0.457 -0.485,-0.031 -0.926,-0.117 -1.203,-0.41 -0.309,-0.235 -0.618,-0.5 -0.895,-0.778 -0.574,-0.558 -1.121,-1.164 -1.515,-1.925 -0.208,-0.383 -0.555,-0.668 -0.969,-0.797 -0.852,-0.239 -1.739,0.254 -1.985,1.101 -0.25,0.84 0.25,1.735 1.102,1.969 0.824,0.25 1.516,0.664 2.191,1.102 0.325,0.222 0.641,0.464 0.938,0.722 0.34,0.219 0.515,0.629 0.648,1.102 0.098,0.469 0.367,0.742 0.629,1.008 -2.445,3.468 -3.551,7.711 -3.101,11.933 -0.332,0.117 -0.657,0.242 -0.938,0.574 -0.32,0.368 -0.676,0.657 -1.07,0.688 -0.387,0.101 -0.777,0.176 -1.176,0.223 -0.793,0.101 -1.601,0.16 -2.437,-0.016 -0.434,-0.078 -0.875,0.023 -1.235,0.277 -0.719,0.5 -0.879,1.5 -0.383,2.219 0.512,0.723 1.512,0.895 2.235,0.383 0.703,-0.5 1.453,-0.777 2.219,-1.027 0.378,-0.122 0.761,-0.219 1.16,-0.293 0.382,-0.133 0.808,-0.02 1.261,0.171 0.379,0.196 0.715,0.184 1.047,0.149 1.289,4.191 4.117,7.703 7.809,9.922 -0.125,0.351 -0.242,0.718 -0.129,1.183 0.086,0.485 0.102,0.942 -0.106,1.282 -0.16,0.363 -0.335,0.718 -0.527,1.066 -0.41,0.676 -0.851,1.352 -1.5,1.941 -0.32,0.289 -0.512,0.696 -0.527,1.129 -0.031,0.883 0.66,1.621 1.543,1.649 0.883,0.027 1.625,-0.66 1.66,-1.543 0.016,-0.867 0.25,-1.629 0.512,-2.395 0.132,-0.367 0.297,-0.734 0.472,-1.086 0.133,-0.383 0.485,-0.664 0.91,-0.898 0.422,-0.219 0.614,-0.527 0.805,-0.856 1.899,0.688 3.902,1.043 5.922,1.047 2.113,0 4.133,-0.394 6.016,-1.082 0.199,0.34 0.402,0.664 0.828,0.891 0.426,0.25 0.777,0.515 0.91,0.898 0.176,0.367 0.324,0.735 0.457,1.102 0.262,0.762 0.484,1.527 0.512,2.39 0,0.426 0.175,0.84 0.515,1.149 0.657,0.59 1.66,0.543 2.262,-0.102 0.59,-0.656 0.543,-1.664 -0.102,-2.265 -0.648,-0.571 -1.089,-1.262 -1.484,-1.953 -0.191,-0.336 -0.367,-0.704 -0.527,-1.055 -0.207,-0.352 -0.192,-0.797 -0.09,-1.281 0.117,-0.5 -0.016,-0.864 -0.133,-1.246 l -0.012,-0.04 c 3.664,-2.238 6.453,-5.761 7.719,-9.953 l 0.047,0.004 c 0.414,0.032 0.809,0.071 1.25,-0.175 0.441,-0.208 0.883,-0.325 1.266,-0.208 0.378,0.059 0.777,0.145 1.156,0.25 0.765,0.219 1.531,0.485 2.25,0.969 0.367,0.235 0.808,0.313 1.234,0.219 0.86,-0.184 1.406,-1.031 1.219,-1.891 -0.188,-0.867 -1.047,-1.414 -1.91,-1.222 -0.852,0.191 -1.645,0.16 -2.453,0.09 -0.399,-0.047 -0.778,-0.102 -1.176,-0.192 -0.399,-0.027 -0.746,-0.293 -1.086,-0.644 -0.336,-0.399 -0.719,-0.5 -1.102,-0.618 l -0.023,-0.007 c 0.051,-0.547 0.082,-1.094 0.082,-1.653 0,-3.64 -1.113,-7.031 -3.012,-9.843 0.278,-0.293 0.559,-0.575 0.664,-1.071 0.129,-0.469 0.305,-0.883 0.645,-1.101 0.293,-0.266 0.617,-0.5 0.941,-0.735 0.66,-0.441 1.352,-0.867 2.172,-1.101 0.422,-0.121 0.774,-0.414 0.969,-0.809 0.41,-0.781 0.101,-1.75 -0.688,-2.144 -0.781,-0.415 -1.75,-0.102 -2.148,0.687 -0.395,0.766 -0.938,1.367 -1.496,1.926 -0.293,0.281 -0.586,0.547 -0.895,0.797 -0.281,0.293 -0.722,0.379 -1.207,0.41 -0.511,0.012 -0.836,0.25 -1.175,0.469 -2.872,-2.852 -6.637,-4.625 -10.665,-5.024 -0.042,-0.394 -0.07,-0.793 -0.378,-1.191 -0.297,-0.395 -0.5,-0.793 -0.457,-1.192 -0.016,-0.394 0.003,-0.793 0.031,-1.203 0.09,-0.793 0.203,-1.586 0.543,-2.379 0.16,-0.382 0.176,-0.836 0,-1.261 -0.258,-0.586 -0.84,-0.965 -1.481,-0.965 m -2.105,11.211 -0.074,0.562 c -0.204,1.59 -0.352,3.188 -0.497,4.778 -0.089,0.839 -0.164,1.683 -0.222,2.527 -0.719,-0.516 -1.442,-1.063 -2.203,-1.547 -1.321,-0.894 -2.645,-1.793 -4.012,-2.644 l -0.461,-0.286 c 2.113,-1.82 4.707,-2.996 7.469,-3.39 m 4.234,0 c 2.871,0.41 5.559,1.672 7.715,3.617 l -0.492,0.309 c -1.352,0.867 -2.656,1.765 -3.981,2.66 -0.523,0.351 -1.035,0.714 -1.543,1.086 -0.39,0.285 -0.937,0.027 -0.968,-0.457 -0.043,-0.629 -0.102,-1.247 -0.16,-1.879 -0.149,-1.586 -0.293,-3.188 -0.5,-4.774 z m -14.48,6.597 0.465,0.489 c 1.117,1.16 2.25,2.277 3.394,3.406 0.484,0.484 0.969,0.941 1.469,1.398 0.351,0.317 0.219,0.895 -0.235,1.028 -0.722,0.218 -1.441,0.425 -2.16,0.66 -1.515,0.5 -3.039,0.969 -4.554,1.515 l -0.664,0.231 c -0.016,-0.27 -0.04,-0.535 -0.04,-0.805 0,-2.926 0.86,-5.636 2.321,-7.922 m 24.906,0.289 c 1.406,2.297 2.149,4.938 2.149,7.633 0,0.242 -0.028,0.481 -0.04,0.723 L 51.629,39.34 c -1.527,-0.5 -3.055,-0.93 -4.598,-1.367 -0.992,-0.289 -1.992,-0.559 -2.996,-0.809 0.75,-0.719 1.527,-1.426 2.25,-2.16 1.129,-1.129 2.258,-2.262 3.36,-3.438 z M 36.59,35.844 h 1.789 c 0.281,0 0.547,0.133 0.691,0.336 l 1.145,1.441 c 0.16,0.203 0.226,0.465 0.18,0.719 l -0.415,1.777 c -0.042,0.278 -0.234,0.5 -0.468,0.629 l -1.645,0.766 c -0.238,0.133 -0.527,0.133 -0.765,0 l -1.645,-0.766 c -0.234,-0.129 -0.441,-0.351 -0.473,-0.629 l -0.41,-1.777 c -0.043,-0.25 0.02,-0.528 0.18,-0.719 l 1.144,-1.437 c 0.164,-0.219 0.418,-0.344 0.692,-0.34 m -5.305,7.004 c 0.457,-0.075 0.824,0.382 0.649,0.808 -0.278,0.727 -0.543,1.457 -0.797,2.192 -0.543,1.504 -1.067,3.015 -1.571,4.539 l -0.199,0.629 C 26.73,49.258 24.73,46.695 23.672,43.707 l 0.781,-0.062 c 1.602,-0.149 3.172,-0.34 4.774,-0.532 0.691,-0.074 1.367,-0.175 2.058,-0.265 m 12.692,0.207 c 0.691,0.074 1.367,0.148 2.058,0.207 1.602,0.144 3.184,0.293 4.785,0.394 l 0.512,0.032 c -1.039,2.945 -2.992,5.484 -5.574,7.246 L 45.594,50.398 C 45.105,48.871 44.578,47.359 44.066,45.859 43.836,45.191 43.594,44.527 43.348,43.863 43.184,43.441 43.527,43 43.977,43.055 m -6.372,2.898 c 0.211,0 0.422,0.106 0.54,0.317 0.324,0.617 0.664,1.222 1.015,1.824 0.793,1.379 1.582,2.777 2.434,4.129 l 0.347,0.558 c -1.437,0.457 -2.933,0.688 -4.441,0.688 -1.465,0 -2.918,-0.219 -4.32,-0.645 l 0.367,-0.59 c 0.851,-1.351 1.66,-2.734 2.469,-4.113 0.371,-0.605 0.722,-1.223 1.058,-1.848 0.106,-0.199 0.313,-0.32 0.535,-0.32" style="fill:currentColor;fill-opacity:1;fill-rule:evenodd;stroke:none" transform="scale(1.3333333)" /> </g>
</svg>

