<?xml version="1.0" encoding="UTF-8" standalone="no"?> <svg version="1.1" id="I26087146623946d0ba82b48cb421886520251106132945" width="100" height="100" viewBox="0 0 100 100" xmlns="http://www.w3.org/2000/svg" xmlns:svg="http://www.w3.org/2000/svg"> <defs id="I6486aab753d34312ad29fc10c6a6cabc20251106132945" /> <g id="Ic5f87ae8c5b14a23974ed1402b76c97120251106132945"> <path id="I825bc115332a485a8a465edb5bf6b84820251106132945" d="m 10.715,16.07 c 1.387,0 2.527,1.055 2.664,2.407 l 0.016,0.273 v 37.5 c 0,1.48 -1.2,2.68 -2.68,2.68 -1.481,0 -2.68,-1.2 -2.68,-2.68 V 18.75 L 8.047,18.477 C 8.188,17.125 9.328,16.07 10.715,16.07 Z m 53.57,0 c 1.387,0 2.527,1.055 2.664,2.407 l 0.016,0.273 v 37.5 c 0,1.48 -1.199,2.68 -2.68,2.68 -1.48,0 -2.68,-1.2 -2.68,-2.68 v -37.5 l 0.016,-0.273 c 0.137,-1.352 1.277,-2.407 2.664,-2.407 z m -20.644,11.5 c 1.047,-1.047 2.742,-1.047 3.789,0 l 8.035,8.035 c 0.98,0.981 1.043,2.532 0.183,3.586 l -0.183,0.204 -8.035,8.035 -0.203,0.183 C 46.172,48.469 44.621,48.41 43.641,47.43 42.66,46.449 42.602,44.898 43.457,43.848 l 0.184,-0.207 3.464,-3.461 h -19.21 l 3.464,3.461 c 1.043,1.047 1.043,2.742 0,3.789 -1.047,1.047 -2.742,1.047 -3.789,0 l -8.035,-8.035 -0.183,-0.204 c -0.86,-1.054 -0.797,-2.605 0.183,-3.586 l 8.035,-8.035 0.203,-0.183 c 1.055,-0.86 2.606,-0.797 3.586,0.183 0.981,0.981 1.039,2.532 0.184,3.582 l -0.184,0.207 -3.464,3.461 h 19.21 l -3.464,-3.461 c -1.043,-1.047 -1.043,-2.742 0,-3.789 z" style="fill:currentColor;fill-opacity:1;fill-rule:nonzero;stroke:none" transform="scale(1.3333333)" /> </g>
</svg>

