<?xml version="1.0" encoding="UTF-8" standalone="no"?> <svg version="1.1" id="Ib5b220270ee64185bd79979cd49931db20251106151526" width="100" height="100" viewBox="0 0 100 100" xmlns="http://www.w3.org/2000/svg" xmlns:svg="http://www.w3.org/2000/svg"> <defs id="I5f09e405a4be4961968dd0c925b440b720251106151526" /> <g id="I82c1c70446a348718f507ad13426c2eb20251106151526"> <path id="I6b5e492fd9cd4076a22eb10a958c812c20251106151526" d="M 22.781,31.551 C 23.09,23.691 29.562,17.41 37.5,17.41 c 7.938,0 14.41,6.281 14.719,14.141 0.043,1.078 0.929,1.929 2.008,1.929 h 0.683 c 5.918,0 10.715,4.797 10.715,10.715 0,5.918 -4.797,10.715 -10.715,10.715 H 20.09 C 14.172,54.91 9.375,50.113 9.375,44.195 9.375,38.277 14.172,33.48 20.09,33.48 h 0.683 c 1.079,0 1.965,-0.851 2.008,-1.929 z M 37.5,13.395 c -9.461,0 -17.285,7.003 -18.566,16.113 -7.598,0.59 -13.579,6.941 -13.579,14.687 0,8.137 6.598,14.735 14.735,14.735 h 34.82 c 8.137,0 14.735,-6.598 14.735,-14.735 0,-7.746 -5.981,-14.097 -13.579,-14.687 C 54.785,20.398 46.961,13.395 37.5,13.395 Z m -6.027,13.39 c -1.11,0 -2.008,0.899 -2.008,2.008 0,1.109 0.898,2.012 2.008,2.012 h 12.054 c 1.11,0 2.008,-0.903 2.008,-2.012 0,-1.109 -0.898,-2.008 -2.008,-2.008 z M 16.07,43.527 c 0,-1.109 0.903,-2.007 2.012,-2.007 h 14.73 c 1.11,0 2.008,0.898 2.008,2.007 0,1.11 -0.898,2.008 -2.008,2.008 h -14.73 c -1.109,0 -2.012,-0.898 -2.012,-2.008 z M 42.188,41.52 c -1.11,0 -2.008,0.898 -2.008,2.007 0,1.11 0.898,2.008 2.008,2.008 h 14.73 c 1.109,0 2.012,-0.898 2.012,-2.008 0,-1.109 -0.903,-2.007 -2.012,-2.007 z" style="fill:currentColor;fill-opacity:1;fill-rule:nonzero;stroke:none" transform="scale(1.3333333)" /> </g>
</svg>

