<?xml version="1.0" encoding="UTF-8" standalone="no"?> <svg version="1.1" id="I46e5d42c36714ca2b1fb49b7c303646d20251110124421" width="100" height="100" viewBox="0 0 100 100" xmlns="http://www.w3.org/2000/svg" xmlns:svg="http://www.w3.org/2000/svg"> <defs id="If70683fa55e74c7b9042beb51aee94c320251110124421" /> <g id="I6984652496f34067b936f696f7a0161f20251110124421"> <path id="Iceb0ee707b8f4d03a8a775c416aa60b820251110124421" d="m 19.531,9.375 c -5.609,0 -10.156,4.547 -10.156,10.156 v 39.063 c 0,3.883 3.148,7.031 7.031,7.031 h 42.188 c 3.883,0 7.031,-3.148 7.031,-7.031 V 19.531 c 0,-5.609 -4.547,-10.156 -10.156,-10.156 z m 41.407,26.961 c -1.774,-1.234 -3.926,-1.961 -6.25,-1.961 -3.485,0 -6.59,1.629 -8.594,4.172 -2.004,-2.543 -5.11,-4.172 -8.594,-4.172 -3.484,0 -6.59,1.629 -8.594,4.172 -2.004,-2.543 -5.109,-4.172 -8.594,-4.172 -2.324,0 -4.476,0.727 -6.25,1.961 V 19.531 c 0,-3.019 2.45,-5.469 5.469,-5.469 h 35.938 c 3.019,0 5.469,2.45 5.469,5.469 z M 43.75,45.312 V 60.938 H 31.25 V 45.312 c 0,-3.453 2.797,-6.25 6.25,-6.25 3.453,0 6.25,2.797 6.25,6.25 z m 4.688,15.626 V 45.312 c 0,-3.453 2.796,-6.25 6.25,-6.25 3.453,0 6.25,2.797 6.25,6.25 v 13.282 c 0,1.293 -1.051,2.344 -2.344,2.344 z m -32.032,0 c -1.293,0 -2.344,-1.051 -2.344,-2.344 V 45.312 c 0,-3.453 2.797,-6.25 6.25,-6.25 3.454,0 6.25,2.797 6.25,6.25 v 15.626 z" style="fill:currentColor;fill-opacity:1;fill-rule:nonzero;stroke:none" transform="scale(1.3333333)" /> </g>
</svg>

