<?xml version="1.0" encoding="UTF-8" standalone="no"?> <svg version="1.1" id="I5b000dd9fc3d4da6a3dfdc8912be11a320251110130507" width="100" height="100" viewBox="0 0 100 100" xmlns="http://www.w3.org/2000/svg" xmlns:svg="http://www.w3.org/2000/svg"> <defs id="I99548c7b667145b7bf587764dab4275320251110130507" /> <g id="If49d1a55aecf44e59ded62faa7d359c920251110130507"> <path id="I698c557d1e134290bac2fbfec445df6b20251110130507" d="m 26.949,50.094 c 0.735,0.519 1.613,0.801 2.516,0.801 0.847,0 1.676,-0.25 2.383,-0.711 0.711,-0.465 1.269,-1.125 1.609,-1.903 l 2.059,-6.265 c 0.504,-1.508 1.347,-2.879 2.472,-4.004 1.125,-1.125 2.492,-1.973 4,-2.473 l 5.996,-1.949 c 0.852,-0.297 1.586,-0.856 2.106,-1.594 0.398,-0.562 0.656,-1.207 0.758,-1.891 0.097,-0.679 0.035,-1.375 -0.188,-2.023 -0.222,-0.652 -0.598,-1.242 -1.09,-1.719 -0.496,-0.48 -1.097,-0.832 -1.754,-1.035 l -5.933,-1.926 c -1.508,-0.5 -2.879,-1.347 -4.004,-2.468 -1.125,-1.122 -1.973,-2.493 -2.477,-4 L 33.453,10.941 C 33.152,10.094 32.598,9.359 31.863,8.84 31.121,8.328 30.246,8.055 29.344,8.055 c -0.899,0 -1.774,0.273 -2.516,0.785 -0.746,0.527 -1.308,1.277 -1.605,2.144 l -1.977,6.067 c -0.5,1.469 -1.332,2.801 -2.426,3.902 -1.093,1.098 -2.425,1.934 -3.89,2.442 l -6,1.949 C 10.074,25.645 9.336,26.203 8.816,26.945 8.297,27.688 8.02,28.57 8.023,29.477 8.031,30.383 8.32,31.266 8.848,32 c 0.531,0.734 1.277,1.285 2.136,1.574 l 5.934,1.926 c 1.512,0.508 2.891,1.355 4.02,2.484 0.3,0.301 0.585,0.625 0.843,0.961 0.715,0.918 1.262,1.953 1.625,3.055 l 1.949,5.984 c 0.301,0.852 0.856,1.586 1.594,2.11 z m 26.098,16.285 c 0.547,0.383 1.195,0.59 1.863,0.586 0.664,0.004 1.309,-0.199 1.856,-0.578 0.554,-0.395 0.972,-0.957 1.191,-1.606 l 1,-3.062 c 0.207,-0.637 0.566,-1.215 1.039,-1.688 0.473,-0.476 1.047,-0.832 1.684,-1.047 l 3.121,-1.011 c 0.633,-0.223 1.179,-0.637 1.566,-1.184 0.387,-0.543 0.598,-1.195 0.598,-1.867 0,-0.668 -0.211,-1.32 -0.598,-1.863 -0.414,-0.571 -0.996,-0.993 -1.664,-1.204 L 61.641,50.863 C 61.004,50.652 60.426,50.297 59.953,49.82 59.477,49.348 59.121,48.773 58.906,48.137 l -1.015,-3.114 c -0.219,-0.636 -0.633,-1.191 -1.18,-1.578 -0.551,-0.39 -1.207,-0.597 -1.883,-0.593 -0.672,0.007 -1.328,0.222 -1.871,0.621 -0.543,0.394 -0.949,0.953 -1.16,1.593 l -1,3.067 c -0.207,0.629 -0.551,1.203 -1.012,1.672 -0.465,0.472 -1.027,0.836 -1.648,1.054 l -3.125,1.012 c -0.629,0.223 -1.176,0.637 -1.563,1.184 -0.39,0.547 -0.597,1.199 -0.597,1.867 0,0.668 0.207,1.32 0.597,1.863 0.399,0.555 0.961,0.969 1.606,1.184 l 3.066,1 c 0.637,0.211 1.219,0.566 1.691,1.043 0.477,0.476 0.833,1.058 1.043,1.695 l 1.012,3.113 c 0.223,0.629 0.637,1.176 1.18,1.559 z" style="fill:currentColor;fill-opacity:1;fill-rule:nonzero;stroke:none" transform="scale(1.3333333)" /> </g>
</svg>

