<?xml version="1.0" encoding="UTF-8" standalone="no"?> <svg version="1.1" id="I4fc57e867be14c04a159a7c5e31d33d920251110135155" width="100" height="100" viewBox="0 0 100 100" xmlns="http://www.w3.org/2000/svg" xmlns:svg="http://www.w3.org/2000/svg"> <defs id="I6addba39fdd94550bf6a17a0e4585fa520251110135155" /> <g id="Iec68cfe6c2464a57a9b6fa7ad82eb75a20251110135155"> <path id="I386065cfde3e4e80a7eefdcde2f3271520251110135155" d="m 28.125,15.625 c -1.727,0 -3.125,1.398 -3.125,3.125 0,1.727 1.398,3.125 3.125,3.125 h 18.75 c 1.727,0 3.125,-1.398 3.125,-3.125 0,-1.727 -1.398,-3.125 -3.125,-3.125 z m 0,12.5 c -1.727,0 -3.125,1.398 -3.125,3.125 0,1.727 1.398,3.125 3.125,3.125 h 18.75 C 48.602,34.375 50,32.977 50,31.25 50,29.523 48.602,28.125 46.875,28.125 Z M 25,43.75 c 0,-1.727 1.398,-3.125 3.125,-3.125 h 18.75 c 1.727,0 3.125,1.398 3.125,3.125 0,1.727 -1.398,3.125 -3.125,3.125 H 28.125 C 26.398,46.875 25,45.477 25,43.75 Z m 3.125,9.375 c -1.727,0 -3.125,1.398 -3.125,3.125 0,1.727 1.398,3.125 3.125,3.125 h 18.75 c 1.727,0 3.125,-1.398 3.125,-3.125 0,-1.727 -1.398,-3.125 -3.125,-3.125 z" style="fill:currentColor;fill-opacity:1;fill-rule:nonzero;stroke:none" transform="scale(1.3333333)" /> </g>
</svg>

