<?xml version="1.0" encoding="UTF-8" standalone="no"?> <svg version="1.1" id="I7dfb0a56f63e4a3b8cba1bc099eb5f1620251106164749" width="100" height="100" viewBox="0 0 100 100" xmlns="http://www.w3.org/2000/svg" xmlns:svg="http://www.w3.org/2000/svg"> <defs id="I409295fc54e44fcab0ac466ada21e91920251106164749" /> <g id="If4d9b9d1381f4769832e17efc921a62e20251106164749"> <path id="Id0a3a152318044309557a7bd5f43f48420251106164749" d="m 35.938,38.281 c 0,-1.293 1.05,-2.343 2.343,-2.343 1.293,0 2.344,-1.051 2.344,-2.344 0,-1.293 -1.051,-2.344 -2.344,-2.344 -3.883,0 -7.031,3.148 -7.031,7.031 0,1.293 1.051,2.344 2.344,2.344 1.293,0 2.344,-1.051 2.344,-2.344 z m -14.063,0.781 c 0,-9.492 7.695,-17.187 17.187,-17.187 9.493,0 17.188,7.695 17.188,17.187 0,9.493 -7.695,17.188 -17.188,17.188 -9.492,0 -17.187,-7.695 -17.187,-17.188 z m 17.187,-12.5 c -6.902,0 -12.5,5.598 -12.5,12.5 0,6.903 5.598,12.5 12.5,12.5 6.903,0 12.5,-5.597 12.5,-12.5 0,-6.902 -5.597,-12.5 -12.5,-12.5 z M 19.422,20.293 C 24.023,11.953 32.445,6.25 42.188,6.25 c 14.874,0 26.562,13.191 26.562,28.984 0,1.77 -0.145,3.504 -0.426,5.188 -0.176,1.074 -0.14,2.219 0.074,3.383 0.231,1.25 0.352,2.539 0.352,3.851 0,11.649 -9.445,21.094 -21.094,21.094 -3.336,0 -6.496,-0.777 -9.308,-2.16 -2.418,-1.192 -5.305,-1.602 -8.02,-1.192 -0.976,0.149 -1.973,0.227 -2.984,0.227 C 15.52,65.625 6.25,55.301 6.25,42.969 c 0,-8.035 3.902,-15.157 9.871,-19.188 1.399,-0.945 2.547,-2.129 3.301,-3.488 z m 22.766,-9.355 c -7.817,0 -14.774,4.574 -18.665,11.621 -1.171,2.121 -2.878,3.824 -4.777,5.105 -4.644,3.141 -7.808,8.785 -7.808,15.305 0,10.105 7.519,17.969 16.406,17.969 0.773,0 1.535,-0.059 2.277,-0.172 3.617,-0.551 7.473,-0.016 10.797,1.621 2.184,1.07 4.637,1.675 7.238,1.675 9.063,0 16.406,-7.343 16.406,-16.406 0,-1.027 -0.093,-2.027 -0.273,-3 -0.297,-1.601 -0.371,-3.297 -0.09,-5 0.239,-1.429 0.363,-2.91 0.363,-4.422 0,-13.632 -10,-24.296 -21.874,-24.296 z" style="fill:currentColor;fill-opacity:1;fill-rule:nonzero;stroke:none" transform="scale(1.3333333)" /> </g>
</svg>

