<?xml version="1.0" encoding="UTF-8" standalone="no"?> <svg version="1.1" id="I35ea813aa0754e78a2a9512b33d2e3ea20251106105458" width="100" height="100" viewBox="0 0 100 100" xmlns="http://www.w3.org/2000/svg" xmlns:svg="http://www.w3.org/2000/svg"> <defs id="Ibd454a494e6d4050aa64d0e8b6a6696f20251106105458" /> <g id="I36a09c4a16194e8f8d77ad283988292320251106105458"> <path id="I6d88e8ada0a24201b6eba39573ab158e20251106105458" d="M 71.316,12.223 H 26.117 c -1.484,0 -2.679,1.195 -2.679,2.675 V 34.652 H 3.684 c -1.481,0 -2.68,1.2 -2.68,2.68 v 22.77 c 0,1.48 1.199,2.675 2.68,2.675 h 45.199 c 1.484,0 2.679,-1.195 2.679,-2.675 V 40.348 h 19.754 c 1.481,0 2.68,-1.2 2.68,-2.68 v -22.77 c 0,-1.48 -1.199,-2.675 -2.68,-2.675 z M 29.129,17.914 H 45.871 V 34.652 H 29.129 Z M 23.438,57.086 H 6.695 V 40.348 h 16.743 z m 22.433,0 H 29.129 V 40.348 H 45.871 Z M 68.305,34.652 H 51.562 V 17.914 h 16.743 z" style="fill:currentColor;fill-opacity:1;fill-rule:nonzero;stroke:none" transform="scale(1.3333333)" /> </g>
</svg>

