<?xml version="1.0" encoding="UTF-8" standalone="no"?> <svg version="1.1" id="I6b62e4a6051e4eebba56acc623d294f620251110123030" width="100" height="100" viewBox="0 0 100 100" xmlns="http://www.w3.org/2000/svg" xmlns:svg="http://www.w3.org/2000/svg"> <defs id="I9ef69695a8c04744b04d4da85704be8d20251110123030" /> <g id="I03fc636c33c7449884fabdc8528ff5f520251110123030"> <path id="I3eab63b035234bc3ac95bbdbeefcad3e20251110123030" d="m 18.082,8.035 c -5.551,0 -10.047,4.496 -10.047,10.047 v 30.801 c 0,5.547 4.496,10.047 10.047,10.047 h 17.141 c -0.262,-1.301 -0.403,-2.645 -0.403,-4.02 0,-0.922 0.063,-1.828 0.184,-2.719 -0.504,0.028 -1.012,0.039 -1.524,0.039 -3.765,0 -7.367,-0.742 -10.097,-2.382 C 20.574,48.156 18.75,45.535 18.75,42.105 18.75,39.562 21,37.5 23.773,37.5 h 19.418 c 0.481,0 0.95,0.062 1.387,0.18 3.02,-1.817 6.555,-2.86 10.332,-2.86 1.375,0 2.719,0.141 4.02,0.403 V 18.082 c 0,-5.551 -4.5,-10.047 -10.047,-10.047 z m 0,53.57 h 17.883 c 0.5,1.422 1.156,2.766 1.949,4.02 H 24.777 c -3.32,0 -6.265,-1.609 -8.093,-4.094 0.461,0.051 0.925,0.074 1.398,0.074 z M 65.625,24.777 V 37.914 C 64.371,37.121 63.027,36.465 61.609,35.965 V 18.082 c 0,-0.473 -0.027,-0.937 -0.078,-1.398 2.485,1.832 4.094,4.773 4.094,8.093 z M 41.52,24.105 c 0,4.442 -3.598,8.04 -8.04,8.04 -4.437,0 -8.035,-3.598 -8.035,-8.04 0,-4.437 3.598,-8.035 8.035,-8.035 4.442,0 8.04,3.598 8.04,8.035 z m 30.8,30.805 c 0,9.617 -7.793,17.41 -17.41,17.41 -9.617,0 -17.41,-7.793 -17.41,-17.41 0,-9.617 7.793,-17.41 17.41,-17.41 9.617,0 17.41,7.793 17.41,17.41 z M 56.25,44.195 c 0,-0.738 -0.602,-1.34 -1.34,-1.34 -0.738,0 -1.34,0.602 -1.34,1.34 v 9.375 h -9.375 c -0.738,0 -1.34,0.602 -1.34,1.34 0,0.738 0.602,1.34 1.34,1.34 h 9.375 v 9.375 c 0,0.738 0.602,1.34 1.34,1.34 0.738,0 1.34,-0.602 1.34,-1.34 V 56.25 h 9.375 c 0.738,0 1.34,-0.602 1.34,-1.34 0,-0.738 -0.602,-1.34 -1.34,-1.34 H 56.25 Z" style="fill:currentColor;fill-opacity:1;fill-rule:nonzero;stroke:none" transform="scale(1.3333333)" /> </g>
</svg>

