<?xml version="1.0" encoding="UTF-8" standalone="no"?> <svg version="1.1" id="Ica70607123bc471c98e9a928ccc9a8e920251110130508" width="100" height="100" viewBox="0 0 100 100" xmlns="http://www.w3.org/2000/svg" xmlns:svg="http://www.w3.org/2000/svg"> <defs id="I112fa6c38728410d9464d138ed7d04ce20251110130508" /> <g id="I81e863f18a3c403a8588561b122c3ad120251110130508"> <path id="I9007e61c767d47dea25aa7c748a1740f20251110130508" d="M 8.785,5.945 C 8.004,5.16 6.73,5.16 5.945,5.945 5.16,6.73 5.16,8.004 5.945,8.785 L 8.93,11.77 c -2.133,1.292 -3.563,3.632 -3.563,6.312 v 22.766 c 0,4.07 3.297,7.367 7.367,7.367 h 32.637 l 3.668,3.664 c -0.902,0.23 -1.848,0.351 -2.82,0.351 H 14.211 c 1.219,2.387 3.699,4.02 6.562,4.02 h 25.446 c 2.121,0 4.144,-0.43 5.984,-1.207 l 3.016,3.016 c -2.692,1.41 -5.754,2.211 -9,2.211 H 22.246 c 1.219,2.382 3.699,4.015 6.563,4.015 h 17.41 c 4.367,0 8.453,-1.191 11.953,-3.273 l 8.039,8.043 c 0.785,0.785 2.059,0.785 2.844,0 0.785,-0.785 0.785,-2.055 0,-2.84 z m 10.457,4.77 33.516,33.519 c 0.527,-1.015 0.824,-2.164 0.824,-3.386 V 18.082 c 0,-4.07 -3.297,-7.367 -7.367,-7.367 z m 36.449,36.449 2.883,2.883 c 1.914,-2.567 3.047,-5.75 3.047,-9.199 V 26.117 c 0,-2.863 -1.633,-5.344 -4.019,-6.562 v 21.293 c 0,2.336 -0.704,4.511 -1.911,6.316 z m 5.747,5.746 2.855,2.86 c 3.352,-4.055 5.363,-9.254 5.363,-14.922 v -6.696 c 0,-2.863 -1.633,-5.343 -4.019,-6.562 v 13.258 c 0,4.558 -1.571,8.75 -4.199,12.062 z" style="fill:currentColor;fill-opacity:1;fill-rule:nonzero;stroke:none" transform="scale(1.3333333)" /> </g>
</svg>

