<?xml version="1.0" encoding="UTF-8" standalone="no"?> <svg version="1.1" id="I0e191ee4849746ebae4455fbdf074a9d20251106151526" width="100" height="100" viewBox="0 0 100 100" xmlns="http://www.w3.org/2000/svg" xmlns:svg="http://www.w3.org/2000/svg"> <defs id="Ic4bf7fe2ec0f47ffa42bd7a252d23cb620251106151526" /> <g id="I9b48944042ba4b5d9d7c970402dd389120251106151526"> <path id="I8c51b362413643f6a27a8a5c7765310a20251106151526" d="m 32.031,6.25 h 10.938 c 3.617,0 6.597,2.734 6.988,6.25 h 5.512 c 3.883,0 7.031,3.148 7.031,7.031 v 16.403 c -2.406,-1.004 -5.043,-1.559 -7.812,-1.559 -11.219,0 -20.313,9.094 -20.313,20.313 0,5.457 2.152,10.414 5.656,14.062 h -20.5 C 15.648,68.75 12.5,65.602 12.5,61.719 V 19.531 c 0,-3.883 3.148,-7.031 7.031,-7.031 h 5.512 c 0.391,-3.516 3.371,-6.25 6.988,-6.25 z m 10.938,4.688 H 32.031 c -1.293,0 -2.343,1.05 -2.343,2.343 0,1.293 1.05,2.344 2.343,2.344 h 10.938 c 1.293,0 2.343,-1.051 2.343,-2.344 0,-1.293 -1.05,-2.343 -2.343,-2.343 z m 28.906,43.75 c 0,9.492 -7.695,17.187 -17.187,17.187 C 45.195,71.875 37.5,64.18 37.5,54.688 37.5,45.195 45.195,37.5 54.688,37.5 c 9.492,0 17.187,7.695 17.187,17.188 z M 45.312,53.125 c -0.863,0 -1.562,0.699 -1.562,1.563 0,0.863 0.699,1.562 1.562,1.562 h 14.977 l -5.144,5.145 c -0.61,0.609 -0.61,1.601 0,2.21 0.609,0.61 1.601,0.61 2.21,0 l 7.813,-7.812 c 0.609,-0.609 0.609,-1.602 0,-2.211 L 57.355,45.77 c -0.609,-0.61 -1.601,-0.61 -2.21,0 -0.61,0.609 -0.61,1.601 0,2.21 l 5.144,5.145 z" style="fill:currentColor;fill-opacity:1;fill-rule:nonzero;stroke:none" transform="scale(1.3333333)" /> </g>
</svg>

