<?xml version="1.0" encoding="UTF-8" standalone="no"?> <svg version="1.1" id="If92a35bbdc8f45a5aee436ea0a37e27920251106144520" width="100" height="100" viewBox="0 0 100 100" xmlns="http://www.w3.org/2000/svg" xmlns:svg="http://www.w3.org/2000/svg"> <defs id="I1845cf9df5c545a393def873b030cdcf20251106144520" /> <g id="Ib8c028f091c048e9ba010897f486ff0f20251106144520"> <path id="I216dae72607041579c3a5225b22ea8eb20251106144520" d="m 37.5,5.355 c 17.754,0 32.145,14.391 32.145,32.145 0,17.754 -14.391,32.145 -32.145,32.145 -5.453,0 -10.594,-1.36 -15.098,-3.762 L 9.625,69.516 C 7.102,70.234 4.77,67.902 5.488,65.379 L 9.121,52.605 C 6.719,48.102 5.355,42.957 5.355,37.5 5.355,19.746 19.75,5.355 37.5,5.355 Z m 2.008,18.083 c 0,-1.11 -0.899,-2.008 -2.008,-2.008 -1.109,0 -2.008,0.898 -2.008,2.008 V 35.492 H 23.438 c -1.11,0 -2.008,0.899 -2.008,2.008 0,1.109 0.898,2.008 2.008,2.008 h 12.054 v 12.054 c 0,1.11 0.899,2.008 2.008,2.008 1.109,0 2.008,-0.898 2.008,-2.008 V 39.508 h 12.054 c 1.11,0 2.008,-0.899 2.008,-2.008 0,-1.109 -0.898,-2.008 -2.008,-2.008 H 39.508 Z" style="fill:currentColor;fill-opacity:1;fill-rule:nonzero;stroke:none" transform="scale(1.3333333)" /> </g>
</svg>

