<?xml version="1.0" encoding="UTF-8" standalone="no"?> <svg version="1.1" id="Icb67407230c947e89c4c1480fb32cf6620251110130507" width="100" height="100" viewBox="0 0 100 100" xmlns="http://www.w3.org/2000/svg" xmlns:svg="http://www.w3.org/2000/svg"> <defs id="Ie9faff52a49d49cfb4c8b87aa6fc854220251110130507" /> <g id="Ic2684ea89be14a24b6348ed1bda0cc5120251110130507"> <path id="I53a29be38b784439be536d60120e8fd620251110130507" d="m 46.871,13.289 v 34.695 l -7.84,7.84 c -1.39,1.391 -2.398,3.11 -2.937,4.996 l -9.758,-8.679 c -0.43,-0.379 -0.984,-0.59 -1.559,-0.59 H 13.281 C 9.398,51.551 6.25,48.402 6.25,44.52 V 30.469 c 0,-3.883 3.148,-7.031 7.031,-7.031 h 11.496 c 0.575,0 1.129,-0.211 1.559,-0.59 L 40.371,10.371 c 2.52,-2.242 6.5,-0.453 6.5,2.918 z m 10.602,24.094 c 0.57,-0.567 1.187,-1.055 1.839,-1.461 -0.226,-3.172 -1.128,-6.16 -2.566,-8.82 -0.617,-1.137 -2.039,-1.559 -3.18,-0.942 -1.136,0.613 -1.558,2.035 -0.945,3.176 1.317,2.426 2.063,5.203 2.063,8.164 0,0.996 -0.086,1.973 -0.246,2.918 z m 6.406,-2.969 c 1.617,-0.137 3.258,0.113 4.777,0.742 -0.449,-6.054 -2.625,-11.629 -6.035,-16.234 -0.769,-1.039 -2.238,-1.258 -3.277,-0.488 -1.039,0.773 -1.258,2.238 -0.489,3.277 2.692,3.637 4.477,7.977 5.024,12.703 z m -4.195,5.18 -18.446,18.441 c -1.074,1.074 -1.836,2.422 -2.207,3.899 l -1.429,5.718 c -0.622,2.489 1.632,4.739 4.121,4.118 l 5.718,-1.43 c 1.477,-0.367 2.825,-1.129 3.899,-2.207 L 69.781,49.691 c 2.789,-2.789 2.789,-7.308 0,-10.097 -2.789,-2.789 -7.308,-2.789 -10.097,0 z" style="fill:currentColor;fill-opacity:1;fill-rule:nonzero;stroke:none" transform="scale(1.3333333)" /> </g>
</svg>

