<?xml version="1.0" encoding="UTF-8" standalone="no"?> <svg version="1.1" id="Ic9471c6b2f73430a9632cc610dbe354b20251110130508" width="100" height="100" viewBox="0 0 100 100" xmlns="http://www.w3.org/2000/svg" xmlns:svg="http://www.w3.org/2000/svg"> <defs id="Iec2f56ac0a844f05b30b902c98f0fae220251110130508" /> <g id="Ifeb661954ca44d8fbaffa43ed491e34f20251110130508"> <path id="Id2052435d2014f608337870dc2eb2cb720251110130508" d="m 34.02,10.469 c 1.425,-2.887 5.542,-2.887 6.968,0 l 7.207,14.605 16.117,2.34 c 3.188,0.465 4.458,4.379 2.153,6.625 l -11.664,11.367 2.754,16.055 c 0.543,3.172 -2.785,5.59 -5.633,4.094 L 37.504,57.977 23.09,65.555 c -2.852,1.496 -6.18,-0.922 -5.637,-4.094 L 20.207,45.406 8.543,34.039 c -2.305,-2.246 -1.031,-6.16 2.152,-6.625 l 16.117,-2.34 z m 3.484,2.019 -7.117,14.426 c -0.567,1.145 -1.66,1.941 -2.926,2.125 l -15.918,2.313 11.519,11.226 c 0.915,0.895 1.333,2.18 1.118,3.442 l -2.723,15.851 14.238,-7.484 c 1.133,-0.594 2.485,-0.594 3.617,0 L 53.551,61.871 50.832,46.02 c -0.219,-1.262 0.199,-2.547 1.117,-3.442 L 63.465,31.352 47.547,29.039 c -1.266,-0.184 -2.359,-0.98 -2.922,-2.125 z" style="fill:currentColor;fill-opacity:1;fill-rule:nonzero;stroke:none" transform="scale(1.3333333)" /> </g>
</svg>

