<?xml version="1.0" encoding="UTF-8" standalone="no"?> <svg version="1.1" id="I1f3f3e9a5624484194dcb1bceebaef4d20251110133656" width="100" height="100" viewBox="0 0 100 100" xmlns="http://www.w3.org/2000/svg" xmlns:svg="http://www.w3.org/2000/svg"> <defs id="I92f41f75af3f4e86ad9d7e80a708a5f620251110133656" /> <g id="Id3d68fdbad494d84b69741303e79bb1420251110133656"> <path id="I3d9ec52b95bf427887a9772cae7ff5bc20251110133656" d="m 49.922,16.211 c -1.469,-0.281 -3.074,-0.164 -4.539,0.562 -0.582,0.286 -1.184,0.606 -1.793,0.938 -1.219,0.672 -2.539,1.039 -3.852,1.039 h -4.484 c -1.313,0 -2.633,-0.367 -3.852,-1.039 -0.593,-0.324 -1.183,-0.637 -1.75,-0.918 -1.492,-0.738 -3.129,-0.859 -4.625,-0.574 l -4.347,0.836 c -2.453,0.472 -4.555,2.07 -5.692,4.308 -4.48,8.817 -7.84,15.965 -9.09,22.028 -1.289,6.246 -0.371,11.515 3.762,16.316 2.36,2.742 6.293,2.215 8.387,-0.172 1.601,-1.82 3.422,-3.93 5.242,-6.051 1.406,-1.644 3.461,-2.589 5.617,-2.589 h 17.176 c 2.16,0 4.211,0.945 5.621,2.589 1.852,2.161 3.703,4.305 5.324,6.149 2.047,2.328 5.907,2.828 8.215,0.176 4.203,-4.817 5.145,-10.114 3.852,-16.395 -1.25,-6.102 -4.641,-13.297 -9.16,-22.187 -1.098,-2.161 -3.141,-3.692 -5.52,-4.149 z m -2.758,4.164 c 0.559,-0.277 1.25,-0.359 2,-0.215 l 4.492,0.863 c 1.164,0.223 2.164,0.973 2.696,2.024 4.562,8.976 7.683,15.695 8.808,21.176 1.09,5.293 0.285,9.242 -2.945,12.945 -0.449,0.516 -1.445,0.633 -2.168,-0.188 -1.606,-1.828 -3.449,-3.957 -5.293,-6.109 -2.168,-2.531 -5.332,-3.996 -8.672,-3.996 H 28.906 c -3.34,0 -6.5,1.465 -8.668,3.996 -1.816,2.113 -3.625,4.207 -5.207,6.012 -0.785,0.894 -1.84,0.765 -2.328,0.203 C 9.535,53.402 8.746,49.473 9.832,44.203 10.957,38.754 14.047,32.082 18.57,23.18 19.152,22.035 20.219,21.234 21.438,21 l 4.347,-0.832 c 0.777,-0.152 1.496,-0.066 2.082,0.227 0.504,0.25 1.043,0.531 1.598,0.835 1.742,0.961 3.723,1.54 5.789,1.54 h 4.484 c 2.067,0 4.047,-0.579 5.789,-1.54 0.571,-0.312 1.118,-0.601 1.637,-0.855 z M 37.5,32.812 c 1.848,0 3.348,-1.5 3.348,-3.347 0,-1.852 -1.5,-3.348 -3.348,-3.348 -1.848,0 -3.348,1.496 -3.348,3.348 0,1.847 1.5,3.347 3.348,3.347 z" style="fill:currentColor;fill-opacity:1;fill-rule:nonzero;stroke:none" transform="scale(1.3333333)" /> </g>
</svg>

