<?xml version="1.0" encoding="UTF-8" standalone="no"?> <svg version="1.1" id="Idb541a00ae9d49c4970a2910cb4cd33f20251106125937" width="100" height="100" viewBox="0 0 100 100" xmlns="http://www.w3.org/2000/svg" xmlns:svg="http://www.w3.org/2000/svg"> <defs id="If1e47d45a39044ddad078f86592a0edb20251106125937" /> <g id="I58667036ccd34014a12642748b9ac1d520251106125937"> <path id="Id5e59b2288234844a6b6c690eb88eba520251106125937" d="m 8.602,14.062 c 1.187,0 2.168,0.883 2.32,2.028 l 0.023,0.316 -0.007,40.637 c 0,1.297 -1.051,2.344 -2.344,2.344 -1.188,0 -2.168,-0.883 -2.324,-2.024 L 6.25,57.043 6.258,16.406 c 0,-1.293 1.051,-2.344 2.344,-2.344 z m 40.296,5.637 0.227,-0.261 c 0.832,-0.833 2.133,-0.911 3.051,-0.227 l 0.262,0.227 15.617,15.617 c 0.828,0.832 0.906,2.133 0.226,3.05 l -0.226,0.262 -15.614,15.637 c -0.918,0.914 -2.402,0.918 -3.316,0 -0.832,-0.828 -0.91,-2.133 -0.23,-3.051 l 0.226,-0.262 11.598,-11.617 -42.742,0.004 c -1.184,0 -2.165,-0.883 -2.321,-2.027 l -0.023,-0.317 c 0,-1.187 0.883,-2.168 2.027,-2.324 L 17.977,34.391 60.758,34.387 49.125,22.75 c -0.832,-0.832 -0.91,-2.133 -0.227,-3.051 l 0.227,-0.261 z" style="fill:currentColor;fill-opacity:1;fill-rule:nonzero;stroke:none" transform="scale(1.3333333)" /> </g>
</svg>

