<?xml version="1.0" encoding="UTF-8" standalone="no"?> <svg version="1.1" id="I279a54d7e1b241e2ad8eaa92bd67f1a720251110123029" width="100" height="100" viewBox="0 0 100 100" xmlns="http://www.w3.org/2000/svg" xmlns:svg="http://www.w3.org/2000/svg"> <defs id="I888f2cc630e7434e90122c17873631b720251110123029" /> <g id="I555b7d500e474530b5320657892bcc4020251110123029"> <path id="I201c7cb363dc4d18b1f450aa7f82abe920251110123029" d="m 15.414,10.715 c -5.551,0 -10.047,4.496 -10.047,10.043 v 30.804 c 0,5.547 4.496,10.043 10.047,10.043 H 35.965 C 35.512,60.324 35.184,58.98 35,57.59 H 29.465 V 14.73 h 30.133 c 3.332,0 6.027,2.7 6.027,6.028 v 17.156 c 1.484,0.938 2.832,2.063 4.02,3.34 V 20.758 c 0,-5.547 -4.497,-10.043 -10.047,-10.043 z M 13.395,22.77 c 0,-1.11 0.898,-2.012 2.007,-2.012 h 4.016 c 1.109,0 2.012,0.902 2.012,2.012 0,1.109 -0.903,2.007 -2.012,2.007 h -4.016 c -1.109,0 -2.007,-0.898 -2.007,-2.007 z m 0,13.39 c 0,-1.109 0.898,-2.008 2.007,-2.008 h 4.016 c 1.109,0 2.012,0.899 2.012,2.008 0,1.11 -0.903,2.008 -2.012,2.008 h -4.016 c -1.109,0 -2.007,-0.898 -2.007,-2.008 z m 2.007,11.383 h 4.016 c 1.109,0 2.012,0.902 2.012,2.012 0,1.109 -0.903,2.007 -2.012,2.007 h -4.016 c -1.109,0 -2.007,-0.898 -2.007,-2.007 0,-1.11 0.898,-2.012 2.007,-2.012 z M 72.32,54.91 c 0,9.617 -7.793,17.41 -17.41,17.41 -9.617,0 -17.41,-7.793 -17.41,-17.41 0,-9.617 7.793,-17.41 17.41,-17.41 9.617,0 17.41,7.793 17.41,17.41 z M 56.25,44.195 c 0,-0.738 -0.602,-1.34 -1.34,-1.34 -0.738,0 -1.34,0.602 -1.34,1.34 v 9.375 h -9.375 c -0.738,0 -1.34,0.602 -1.34,1.34 0,0.738 0.602,1.34 1.34,1.34 h 9.375 v 9.375 c 0,0.738 0.602,1.34 1.34,1.34 0.738,0 1.34,-0.602 1.34,-1.34 V 56.25 h 9.375 c 0.738,0 1.34,-0.602 1.34,-1.34 0,-0.738 -0.602,-1.34 -1.34,-1.34 H 56.25 Z" style="fill:currentColor;fill-opacity:1;fill-rule:nonzero;stroke:none" transform="scale(1.3333333)" /> </g>
</svg>

