<?xml version="1.0" encoding="UTF-8" standalone="no"?> <svg version="1.1" id="I29b866a8f8f242d4bfc882f5666badbf20251106144520" width="100" height="100" viewBox="0 0 100 100" xmlns="http://www.w3.org/2000/svg" xmlns:svg="http://www.w3.org/2000/svg"> <defs id="I06a5e875d87443a39bd06b68df9f946720251106144520" /> <g id="I4d5076b006ee4b8aa3c04cb27343625820251106144520"> <path id="Ic4071ad1b9c2416b8f6bb7f1ea03806d20251106144520" d="m 37.5,6.25 c 17.258,0 31.25,13.992 31.25,31.25 0,17.258 -13.992,31.25 -31.25,31.25 -5.125,0 -10.078,-1.238 -14.512,-3.566 L 9.578,68.672 C 8.16,69.043 6.711,68.191 6.34,66.773 6.227,66.332 6.227,65.871 6.34,65.434 L 9.828,52.031 C 7.492,47.594 6.25,42.633 6.25,37.5 6.25,20.242 20.242,6.25 37.5,6.25 Z m 0,42.188 c -1.727,0 -3.125,1.398 -3.125,3.124 0,1.727 1.398,3.126 3.125,3.126 1.727,0 3.125,-1.399 3.125,-3.126 0,-1.726 -1.398,-3.124 -3.125,-3.124 z m 0,-27.344 c -4.746,0 -8.594,3.847 -8.594,8.594 0,1.292 1.051,2.343 2.344,2.343 1.188,0 2.168,-0.883 2.324,-2.027 l 0.039,-0.715 c 0.199,-1.973 1.864,-3.508 3.887,-3.508 2.156,0 3.906,1.75 3.906,3.907 0,1.683 -0.422,2.515 -2.015,4.164 l -0.95,0.964 c -2.355,2.454 -3.285,4.211 -3.285,7.372 0,1.292 1.051,2.343 2.344,2.343 1.293,0 2.344,-1.051 2.344,-2.343 0,-1.684 0.422,-2.516 2.015,-4.165 l 0.95,-0.964 c 2.355,-2.454 3.285,-4.211 3.285,-7.371 0,-4.747 -3.848,-8.594 -8.594,-8.594 z" style="fill:currentColor;fill-opacity:1;fill-rule:nonzero;stroke:none" transform="scale(1.3333333)" /> </g>
</svg>

