<?xml version="1.0" encoding="UTF-8" standalone="no"?> <svg version="1.1" id="I114921f405e940eca39dcface5640bef20251110130508" width="100" height="100" viewBox="0 0 100 100" xmlns="http://www.w3.org/2000/svg" xmlns:svg="http://www.w3.org/2000/svg"> <defs id="I0799478500914264a857dc9b6a6d586c20251110130508" /> <g id="Ic8c1302db71247f3bfd231195d3f495720251110130508"> <path id="Idc7b4f9bdfd3426cbffcaa979d1dfadd20251110130508" d="M 29.688,65.625 H 45.312 V 50 H 29.688 Z m 20.312,0 h 5.469 c 5.609,0 10.156,-4.547 10.156,-10.156 V 50 H 50 Z M 65.625,45.312 V 29.688 H 50 V 45.312 Z M 65.625,25 V 19.531 C 65.625,13.922 61.078,9.375 55.469,9.375 H 50 V 25 Z M 45.312,9.375 H 29.688 V 25 H 45.312 Z M 25,9.375 h -5.469 c -5.609,0 -10.156,4.547 -10.156,10.156 l 0,5.469 H 25 Z M 9.375,29.688 V 45.312 H 25 V 29.688 Z m 0,20.312 v 5.469 c 0,5.609 4.547,10.156 10.156,10.156 H 25 V 50 Z" style="fill:currentColor;fill-opacity:1;fill-rule:nonzero;stroke:none" transform="scale(1.3333333)" /> </g>
</svg>

