<?xml version="1.0" encoding="UTF-8" standalone="no"?> <svg version="1.1" id="I005edcc5f3c64b07952e79662efecb4e20251106155157" width="100" height="100" viewBox="0 0 100 100" xmlns="http://www.w3.org/2000/svg" xmlns:svg="http://www.w3.org/2000/svg"> <defs id="I3852d156491447c7a85a60892fd407c820251106155157" /> <g id="I0fdfd1cd1ef545fc9a2fa65f5b4aadea20251106155157"> <path id="I22b8ec891991415499702ad8c9acb97620251106155157" d="m 12.5,13.281 c 0,-3.883 3.148,-7.031 7.031,-7.031 h 28.125 c 3.883,0 7.032,3.148 7.032,7.031 v 40.625 c 0,3.883 -3.149,7.032 -7.032,7.032 H 19.531 c -3.883,0 -7.031,-3.149 -7.031,-7.032 z m 11.711,3.907 c -1.289,0 -2.336,1.05 -2.336,2.343 0,1.293 1.047,2.344 2.336,2.344 h 18.766 c 1.289,0 2.335,-1.051 2.335,-2.344 0,-1.293 -1.046,-2.343 -2.335,-2.343 z M 42.977,45.312 H 24.211 c -1.289,0 -2.336,1.051 -2.336,2.344 0,1.293 1.047,2.344 2.336,2.344 h 18.766 c 1.289,0 2.335,-1.051 2.335,-2.344 0,-1.293 -1.046,-2.344 -2.335,-2.344 z M 24.211,31.25 c -1.289,0 -2.336,1.051 -2.336,2.344 0,1.293 1.047,2.344 2.336,2.344 h 18.766 c 1.289,0 2.335,-1.051 2.335,-2.344 0,-1.293 -1.046,-2.344 -2.335,-2.344 z m -3.496,32.812 c 0.965,2.731 3.57,4.688 6.633,4.688 H 47.66 c 8.195,0 14.844,-6.645 14.844,-14.844 V 35.527 c 0,-0.066 -0.004,-0.129 -0.004,-0.195 V 21.094 c 0,-3.063 -1.957,-5.668 -4.688,-6.633 l 0.004,39.445 c 0,5.61 -4.546,10.156 -10.156,10.156 z" style="fill:currentColor;fill-opacity:1;fill-rule:nonzero;stroke:none" transform="scale(1.3333333)" /> </g>
</svg>

