<?xml version="1.0" encoding="UTF-8" standalone="no"?> <svg version="1.1" id="I08eff52b30be4e6c93bf95d91e9cf4fc20251106163938" width="100" height="100" viewBox="0 0 100 100" xmlns="http://www.w3.org/2000/svg" xmlns:svg="http://www.w3.org/2000/svg"> <defs id="I5859094d2871493db9dc35433af7e98f20251106163938" /> <g id="Id0d1f856e71b4913a853d6e7ce1cb45c20251106163938"> <path id="I497144ab3c5b4eb7a31592f5a217718020251106163938" d="m 63.359,5.672 c 0.579,0.371 0.926,1.008 0.926,1.695 v 25.445 c 0,1.11 -0.898,2.008 -2.008,2.008 H 7.367 C 6.422,34.82 5.609,34.164 5.406,33.246 5.203,32.324 5.668,31.387 6.523,30.988 L 61.434,5.543 c 0.621,-0.289 1.347,-0.238 1.925,0.129 z M 16.48,30.805 H 60.27 V 10.512 Z m 47.805,36.828 c 0,0.687 -0.347,1.324 -0.926,1.695 -0.578,0.367 -1.304,0.418 -1.925,0.129 L 6.523,44.012 C 5.668,43.613 5.203,42.676 5.406,41.754 5.609,40.836 6.426,40.18 7.367,40.18 h 54.91 c 1.11,0 2.008,0.898 2.008,2.008 z" style="fill:currentColor;fill-opacity:1;fill-rule:nonzero;stroke:none" transform="scale(1.3333333)" /> </g>
</svg>

