<?xml version="1.0" encoding="UTF-8" standalone="no"?> <svg version="1.1" id="I0e86f2dfc0da4db08725738ffa60376f20251106161453" width="100" height="100" viewBox="0 0 100 100" xmlns="http://www.w3.org/2000/svg" xmlns:svg="http://www.w3.org/2000/svg"> <defs id="I68280565b8fb46208571c103fcfef9b620251106161453" /> <g id="I5c45b073396843ebb5facb229ffdb2eb20251106161453"> <path id="I8ca44a55b914491cb7477346d7ca364520251106161453" d="m 38.281,31.25 c 2.871,0 5.223,2.211 5.449,5.02 l 0.02,0.449 v 26.562 c 0,2.871 -2.211,5.223 -5.02,5.449 l -0.449,0.02 H 11.719 C 8.848,68.75 6.496,66.539 6.27,63.73 L 6.25,63.281 V 36.719 c 0,-2.871 2.211,-5.223 5.02,-5.453 l 0.449,-0.016 z m -14.843,4.684 -11.719,0.004 c -0.371,0 -0.68,0.257 -0.762,0.601 l -0.019,0.18 v 26.562 c 0,0.371 0.257,0.68 0.601,0.762 l 0.18,0.019 11.719,-0.003 z m 14.843,0.004 -11.719,-0.004 v 28.125 l 11.719,0.003 c 0.371,0 0.68,-0.257 0.762,-0.601 l 0.019,-0.18 V 36.719 c 0,-0.371 -0.257,-0.68 -0.601,-0.762 z M 33.203,56.25 c 1.293,0 2.344,1.051 2.344,2.344 0,1.187 -0.883,2.168 -2.027,2.324 l -0.317,0.02 h -1.562 c -1.293,0 -2.344,-1.051 -2.344,-2.344 0,-1.188 0.883,-2.168 2.027,-2.324 l 0.317,-0.02 z m -14.844,0 c 1.293,0 2.344,1.051 2.344,2.344 0,1.187 -0.883,2.168 -2.027,2.324 l -0.317,0.02 h -1.562 c -1.293,0 -2.344,-1.051 -2.344,-2.344 0,-1.188 0.883,-2.168 2.027,-2.324 l 0.317,-0.02 z m 43.36,-50 c 3.722,0 6.765,2.891 7.015,6.551 l 0.016,0.48 v 28.125 c 0,3.723 -2.891,6.766 -6.551,7.016 l -0.48,0.016 h -8.582 v 6.25 h 3.894 c 1.293,0 2.344,1.05 2.344,2.343 0,1.188 -0.883,2.168 -2.027,2.324 l -0.317,0.02 H 46.875 v -4.687 h 1.574 v -6.25 H 46.875 V 43.75 h 14.844 c 1.187,0 2.168,-0.883 2.324,-2.027 l 0.019,-0.317 V 13.281 c 0,-1.293 -1.05,-2.343 -2.343,-2.343 H 19.531 c -1.187,0 -2.168,0.882 -2.324,2.027 l -0.019,0.316 V 28.125 H 12.5 V 13.281 c 0,-3.722 2.891,-6.769 6.551,-7.015 l 0.48,-0.016 z" style="fill:currentColor;fill-opacity:1;fill-rule:nonzero;stroke:none" transform="scale(1.3333333)" /> </g>
</svg>

