<?xml version="1.0" encoding="UTF-8" standalone="no"?> <svg version="1.1" id="I6faec072529346b1be22a127b40226c320251110123029" width="100" height="100" viewBox="0 0 100 100" xmlns="http://www.w3.org/2000/svg" xmlns:svg="http://www.w3.org/2000/svg"> <defs id="I751f5d08c42c4595afebb75a1724b55420251110123029" /> <g id="Ic26b7e7827764abc9c1a4bcb9c25190720251110123029"> <path id="Ic1a312f5e5aa42a6860b9fa1378dade020251110123029" d="M 46.273,28.902 C 45.406,27.941 43.926,27.863 42.965,28.73 l -7.813,7.028 c -0.496,0.445 -0.777,1.078 -0.777,1.742 0,0.664 0.281,1.297 0.777,1.742 l 7.813,7.031 c 0.961,0.864 2.441,0.786 3.308,-0.175 0.868,-0.961 0.789,-2.446 -0.175,-3.309 l -3.27,-2.945 h 11.078 c 1.293,0 2.344,-1.051 2.344,-2.344 0,-1.293 -1.051,-2.344 -2.344,-2.344 H 42.828 l 3.27,-2.945 c 0.964,-0.863 1.043,-2.348 0.175,-3.309 z M 6.25,53.906 c 0,4.746 3.848,8.594 8.594,8.594 h 45.312 c 4.746,0 8.594,-3.848 8.594,-8.594 V 21.09 c 0,-4.742 -3.848,-8.59 -8.594,-8.59 H 14.844 c -4.746,0 -8.594,3.848 -8.594,8.59 z m 8.594,3.906 c -2.156,0 -3.906,-1.746 -3.906,-3.906 V 21.09 c 0,-2.156 1.75,-3.902 3.906,-3.902 h 10.168 v 40.624 z m 14.855,0 V 17.188 h 30.457 c 2.156,0 3.906,1.746 3.906,3.902 v 32.816 c 0,2.16 -1.75,3.906 -3.906,3.906 z" style="fill:currentColor;fill-opacity:1;fill-rule:nonzero;stroke:none" transform="scale(1.3333333)" /> </g>
</svg>

