<?xml version="1.0" encoding="UTF-8" standalone="no"?> <svg version="1.1" id="I8ef8ec9954c147d89a396ec0c1505ef420251106161452" width="100" height="100" viewBox="0 0 100 100" xmlns="http://www.w3.org/2000/svg" xmlns:svg="http://www.w3.org/2000/svg"> <defs id="I780985e9879f46b7bb846630033d594120251106161452" /> <g id="I2ce02930f0504ab88034a7a841fe4f4720251106161452"> <path id="Id54442ee9a7641799efe9527437831ef20251106161452" d="m 45.234,6.75 13.641,13.641 c 1.313,1.312 2.063,3.14 2.063,4.968 v 35.579 c 0,5.156 -4.219,9.374 -9.376,9.374 H 37.078 c 0.281,-0.75 0.422,-1.546 0.422,-2.343 v -2.344 h 14.062 c 2.579,0 4.688,-2.109 4.688,-4.687 V 28.125 H 44.531 c -3.89,0 -7.031,-3.141 -7.031,-7.031 V 9.375 H 23.438 c -2.579,0 -4.688,2.109 -4.688,4.687 v 29.954 c -0.141,0.093 -0.234,0.187 -0.328,0.281 -1.313,-0.891 -2.813,-1.547 -4.36,-1.828 V 14.062 c 0,-5.156 4.219,-9.374 9.376,-9.374 h 16.828 c 1.828,0 3.656,0.75 4.968,2.062 z m -3.046,14.344 c 0,1.312 1.031,2.344 2.343,2.344 H 55.266 L 42.188,10.359 Z M 7.031,46.875 h 4.688 c 1.867,0 3.656,0.742 4.972,2.059 1.317,1.32 2.059,3.105 2.059,4.972 0,1.867 -0.742,3.656 -2.059,4.973 -1.32,1.316 -3.105,2.059 -4.972,2.059 H 9.375 v 7.031 c 0,0.625 -0.242,1.219 -0.684,1.66 -0.441,0.433 -1.035,0.683 -1.66,0.683 -0.625,0 -1.219,-0.242 -1.66,-0.683 -0.433,-0.441 -0.683,-1.035 -0.683,-1.66 v -18.75 c 0,-0.625 0.242,-1.219 0.683,-1.66 0.441,-0.434 1.035,-0.684 1.66,-0.684 z m 2.344,9.375 h 2.344 c 0.625,0 1.219,-0.242 1.66,-0.684 0.433,-0.441 0.683,-1.035 0.683,-1.66 0,-0.625 -0.242,-1.218 -0.683,-1.66 -0.441,-0.434 -1.035,-0.684 -1.66,-0.684 H 9.375 Z m 23.437,3.121 6.563,-8.746 C 39.75,50.129 39.91,49.5 39.82,48.887 39.73,48.273 39.402,47.719 38.906,47.344 38.41,46.969 37.781,46.809 37.168,46.898 36.555,46.988 36,47.316 35.625,47.812 l -5.156,6.876 -5.157,-6.876 c -0.371,-0.496 -0.929,-0.824 -1.542,-0.914 -0.618,-0.089 -1.243,0.071 -1.739,0.446 -0.242,0.183 -0.453,0.418 -0.609,0.679 -0.16,0.262 -0.262,0.559 -0.305,0.864 -0.043,0.304 -0.023,0.613 0.051,0.914 0.074,0.301 0.211,0.574 0.394,0.824 l 6.563,8.746 v 8.598 c 0,0.625 0.242,1.219 0.684,1.66 0.441,0.433 1.035,0.683 1.66,0.683 0.625,0 1.219,-0.242 1.66,-0.683 0.433,-0.441 0.683,-1.035 0.683,-1.66 z" style="fill:currentColor;fill-opacity:1;fill-rule:nonzero;stroke:none" transform="scale(1.3333333)" /> </g>
</svg>

