<?xml version="1.0" encoding="UTF-8" standalone="no"?> <svg version="1.1" id="Ia30a033b3f474397bb853a6029366f0920251106105132" width="100" height="100" viewBox="0 0 100 100" xmlns="http://www.w3.org/2000/svg" xmlns:svg="http://www.w3.org/2000/svg"> <defs id="I062bcb16ab64407f9dcba38ef79bca2120251106105132" /> <g id="Ie3a3a0ac1ed34de2bf0ea4523a24ad5120251106105132"> <path id="Id2f76cdd384d46bc8550d968a219108a20251106105132" d="M 37.5,0 C 16.793,0 0,16.793 0,37.5 0,58.207 16.793,75 37.5,75 58.207,75 75,58.207 75,37.5 75,16.793 58.207,0 37.5,0 Z m 0,68.637 C 20.309,68.637 6.363,54.691 6.363,37.5 6.363,20.309 20.309,6.363 37.5,6.363 c 17.191,0 31.137,13.946 31.137,31.137 0,17.191 -13.946,31.137 -31.137,31.137 z M 55.746,20.75 h -4.219 c -0.367,0 -0.668,0.301 -0.668,0.672 v 32.156 c 0,0.371 0.301,0.672 0.668,0.672 h 4.219 c 0.371,0 0.672,-0.301 0.672,-0.672 V 21.422 c 0,-0.371 -0.301,-0.672 -0.672,-0.672 z m -23.555,4.152 c 4.145,0 6.957,2.637 7.286,6.496 0.031,0.352 0.316,0.618 0.668,0.618 h 4.402 c 0.203,0 0.371,-0.164 0.371,-0.368 0,-6.796 -5.359,-11.558 -12.75,-11.558 -8.613,0 -13.586,5.816 -13.586,15.433 v 4.102 c 0,9.543 4.973,15.285 13.586,15.285 7.367,0 12.75,-4.613 12.75,-11.09 0,-0.203 -0.168,-0.367 -0.371,-0.367 h -4.41 c -0.352,0 -0.637,0.266 -0.668,0.609 -0.352,3.598 -3.157,6.059 -7.285,6.059 -5.114,0 -8,-3.758 -8,-10.476 v -4.129 c 0.007,-6.813 2.894,-10.614 8.007,-10.614 z" style="fill:currentColor;fill-opacity:1;fill-rule:nonzero;stroke:none" transform="scale(1.3333333)" /> </g>
</svg>

