<?xml version="1.0" encoding="UTF-8" standalone="no"?> <svg version="1.1" id="I3adeb64b10aa419fad57977b1fca661c20251106170412" width="100" height="100" viewBox="0 0 100 100" xmlns="http://www.w3.org/2000/svg" xmlns:svg="http://www.w3.org/2000/svg"> <defs id="If7aba14ef3814c4f9ba50caf49e2c13b20251106170412" /> <g id="I1e929e99060440ceb62d744a86038de220251106170412"> <path id="I21073757a0e744b89d0845eb17c7dd0b20251106170412" d="m 5.367,15.402 c 0,-1.109 0.899,-2.007 2.008,-2.007 h 60.262 c 1.109,0 2.008,0.898 2.008,2.007 0,1.11 -0.899,2.008 -2.008,2.008 H 7.375 c -1.109,0 -2.008,-0.898 -2.008,-2.008 z m 30.957,21.946 c 2.867,1.332 6.086,2.832 10.684,2.832 4.015,0 7.074,-1.168 9.715,-2.176 0.367,-0.137 0.726,-0.277 1.078,-0.406 2.871,-1.063 5.547,-1.817 9.433,-1.032 1.09,0.219 2.149,-0.484 2.368,-1.57 0.222,-1.086 -0.481,-2.148 -1.571,-2.367 -4.949,-1 -8.457,0.031 -11.625,1.203 -0.39,0.141 -0.769,0.285 -1.144,0.43 -2.653,1.004 -5.02,1.898 -8.254,1.898 -3.668,0 -6.192,-1.156 -9.063,-2.492 l -0.07,-0.031 c -2.871,-1.336 -6.09,-2.832 -10.687,-2.832 -4.598,0 -7.817,1.496 -10.688,2.832 l -0.07,0.031 c -2.871,1.336 -5.395,2.492 -9.063,2.492 -1.109,0 -2.012,0.899 -2.012,2.008 0,1.109 0.903,2.012 2.012,2.012 4.598,0 7.817,-1.5 10.684,-2.832 l 0.074,-0.036 c 2.871,-1.335 5.395,-2.492 9.063,-2.492 3.667,0 6.191,1.157 9.062,2.492 z M 6.129,61.18 c 0.871,0.683 2.137,0.531 2.82,-0.344 0.043,-0.055 0.086,-0.106 0.133,-0.16 0.106,-0.121 0.266,-0.305 0.477,-0.528 0.429,-0.445 1.05,-1.043 1.824,-1.636 1.582,-1.215 3.597,-2.262 5.758,-2.262 1.039,0 1.597,0.238 1.968,0.492 0.442,0.297 0.786,0.711 1.336,1.414 l 0.051,0.071 c 0.496,0.632 1.188,1.515 2.192,2.199 1.113,0.75 2.476,1.179 4.226,1.179 3.383,0 5.906,-1.617 7.914,-2.906 l 0.137,-0.09 c 2.144,-1.375 3.762,-2.359 5.883,-2.359 2.09,0 3.566,0.957 5.562,2.328 l 0.121,0.082 c 1.891,1.297 4.293,2.945 7.711,2.945 3.297,0 7.012,-1.539 9.696,-2.894 1.386,-0.699 2.585,-1.399 3.437,-1.918 0.43,-0.266 0.773,-0.484 1.012,-0.641 0.129,-0.082 0.258,-0.168 0.383,-0.254 0.914,-0.628 1.148,-1.878 0.519,-2.793 -0.625,-0.914 -1.875,-1.148 -2.789,-0.519 -0.105,0.066 -0.207,0.137 -0.309,0.203 -0.211,0.137 -0.523,0.336 -0.914,0.574 -0.785,0.485 -1.886,1.125 -3.152,1.762 -2.617,1.324 -5.602,2.465 -7.883,2.465 -2.094,0 -3.566,-0.957 -5.562,-2.328 L 48.559,55.18 c -1.891,-1.297 -4.293,-2.95 -7.711,-2.95 -3.383,0 -5.907,1.622 -7.914,2.911 l -0.137,0.089 c -2.145,1.375 -3.762,2.36 -5.883,2.36 -1.043,0 -1.602,-0.238 -1.973,-0.492 C 24.5,56.801 24.16,56.387 23.609,55.68 L 23.555,55.613 C 23.062,54.98 22.367,54.098 21.363,53.414 20.25,52.664 18.891,52.23 17.141,52.23 c -3.426,0 -6.297,1.633 -8.203,3.094 -0.973,0.746 -1.747,1.492 -2.282,2.047 -0.269,0.281 -0.476,0.52 -0.625,0.691 -0.082,0.098 -0.168,0.196 -0.246,0.297 -0.683,0.875 -0.531,2.137 0.344,2.821 z" style="fill:currentColor;fill-opacity:1;fill-rule:nonzero;stroke:none" transform="scale(1.3333333)" /> </g>
</svg>

