<?xml version="1.0" encoding="UTF-8" standalone="no"?> <svg version="1.1" id="I9f58ecba6ac04d058f91460ccdb4c9a120251106154011" width="100" height="100" viewBox="0 0 100 100" xmlns="http://www.w3.org/2000/svg" xmlns:svg="http://www.w3.org/2000/svg"> <defs id="I3d14d26322174475886f5badf2fe38c420251106154011" /> <g id="Ic50db5e5180d474da3312d466d9fa2be20251106154011"> <path id="Iffc3773d84ea44418d37606b94c96cba20251106154011" d="m 19.641,5.695 c 0.863,-0.578 2.015,-0.398 2.664,0.387 l 0.125,0.164 25.429,37.891 c 1.735,-0.821 3.672,-1.282 5.711,-1.282 7.399,0 13.395,6 13.395,13.395 0,7.398 -5.996,13.395 -13.395,13.395 -7.394,0 -13.39,-5.997 -13.39,-13.395 0,-3.91 1.679,-7.426 4.347,-9.871 L 37.496,35.906 30.473,46.379 c 2.668,2.445 4.347,5.961 4.347,9.871 0,7.398 -5.996,13.395 -13.39,13.395 -7.399,0 -13.395,-5.997 -13.395,-13.395 0,-7.395 5.996,-13.395 13.395,-13.395 2.039,0 3.976,0.461 5.711,1.282 L 35.078,32.301 19.09,8.484 18.984,8.309 C 18.508,7.41 18.777,6.277 19.641,5.695 Z m 1.789,41.18 c -5.18,0 -9.375,4.199 -9.375,9.375 0,5.176 4.195,9.375 9.375,9.375 5.175,0 9.375,-4.199 9.375,-9.375 0,-3.039 -1.446,-5.738 -3.692,-7.453 l -0.461,-0.336 c -1.492,-1 -3.285,-1.586 -5.222,-1.586 z m 32.14,0 c -1.937,0 -3.73,0.586 -5.222,1.586 l -0.461,0.336 c -2.246,1.715 -3.692,4.414 -3.692,7.453 0,5.176 4.2,9.375 9.375,9.375 5.18,0 9.375,-4.199 9.375,-9.375 0,-5.176 -4.195,-9.375 -9.375,-9.375 z M 52.695,6.082 c 0.649,-0.785 1.801,-0.965 2.664,-0.387 0.864,0.582 1.133,1.715 0.657,2.614 L 55.91,8.484 41.531,29.902 39.113,26.297 52.574,6.246 Z" style="fill:currentColor;fill-opacity:1;fill-rule:nonzero;stroke:none" transform="scale(1.3333333)" /> </g>
</svg>

