<?xml version="1.0" encoding="UTF-8" standalone="no"?> <svg version="1.1" id="I0e57646aa8e84c038714a06396f3dbf420251110124420" width="100" height="100" viewBox="0 0 100 100" xmlns="http://www.w3.org/2000/svg" xmlns:svg="http://www.w3.org/2000/svg"> <defs id="I0add9b0e670344bf8c3d18c3cc392a0820251110124420" /> <g id="I0c4c0152e6174329a7a6ca94111ed3fb20251110124420"> <path id="Id16479f7eb444a5388ca2b1d7e5aade120251110124420" d="m 30.469,6.25 h 12.496 c 1.293,0 2.344,1.051 2.344,2.344 0,1.187 -0.883,2.168 -2.028,2.324 l -0.316,0.02 h -3.906 v 53.124 h 3.894 c 1.188,0 2.168,0.883 2.324,2.028 l 0.02,0.316 c 0,1.188 -0.883,2.168 -2.027,2.324 l -0.317,0.02 H 30.469 c -1.293,0 -2.344,-1.051 -2.344,-2.344 0,-1.187 0.883,-2.168 2.027,-2.324 l 0.317,-0.02 h 3.902 V 10.938 h -3.902 c -1.188,0 -2.168,-0.883 -2.324,-2.028 l -0.02,-0.316 c 0,-1.188 0.883,-2.168 2.027,-2.324 z m 26.551,9.367 c 5.605,0 10.152,4.547 10.156,10.153 l 0.012,23.453 c 0.003,5.414 -4.235,9.843 -9.575,10.144 l -0.582,0.012 H 42.203 V 15.617 Z m -25.778,0 -0.015,43.762 H 16.406 C 10.797,59.379 6.25,54.832 6.25,49.223 v -23.45 c 0,-5.609 4.547,-10.156 10.156,-10.156 z" style="fill:currentColor;fill-opacity:1;fill-rule:nonzero;stroke:none" transform="scale(1.3333333)" /> </g>
</svg>

