<?xml version="1.0" encoding="UTF-8" standalone="no"?> <svg version="1.1" id="Ic8d09eb6962f4c869e93077ff5d2e19b20251110130510" width="100" height="100" viewBox="0 0 100 100" xmlns="http://www.w3.org/2000/svg" xmlns:svg="http://www.w3.org/2000/svg"> <defs id="Ie401fb13f6df4b4eb2754aad415fcf6d20251110130510" /> <g id="Ib393551816984c9a91f518a35a76cec320251110130510"> <path id="Icef4eb091aae4b36bdfc2ff6d7ea562b20251110130510" d="M 39.375,9.375 C 39.375,8.34 38.535,7.5 37.5,7.5 36.465,7.5 35.625,8.34 35.625,9.375 V 32.973 L 18.938,16.285 c -0.731,-0.73 -1.918,-0.73 -2.653,0 -0.73,0.735 -0.73,1.922 0,2.653 L 32.973,35.625 H 9.375 c -1.035,0 -1.875,0.84 -1.875,1.875 0,1.035 0.84,1.875 1.875,1.875 H 32.973 L 16.285,56.062 c -0.73,0.731 -0.73,1.918 0,2.653 0.735,0.73 1.922,0.73 2.653,0 L 35.625,42.027 v 23.598 c 0,1.035 0.84,1.875 1.875,1.875 1.035,0 1.875,-0.84 1.875,-1.875 V 42.027 l 16.687,16.688 c 0.731,0.73 1.918,0.73 2.653,0 0.73,-0.735 0.73,-1.922 0,-2.653 L 42.027,39.375 h 23.598 c 1.035,0 1.875,-0.84 1.875,-1.875 0,-1.035 -0.84,-1.875 -1.875,-1.875 H 42.027 L 58.715,18.938 c 0.73,-0.731 0.73,-1.918 0,-2.653 -0.735,-0.73 -1.922,-0.73 -2.653,0 L 39.375,32.973 Z" style="fill:currentColor;fill-opacity:1;fill-rule:nonzero;stroke:none" transform="scale(1.3333333)" /> </g>
</svg>

