<?xml version="1.0" encoding="UTF-8" standalone="no"?> <svg version="1.1" id="Ibfc8bd2d747a4707997c83899c171ec120251110130508" width="100" height="100" viewBox="0 0 100 100" xmlns="http://www.w3.org/2000/svg" xmlns:svg="http://www.w3.org/2000/svg"> <defs id="Id9caf65ed69e4b67bc8a331f2225792720251110130508" /> <g id="I9d037a93c1804e788ae2d1545ead8d2220251110130508"> <path id="I3cef54a7ee2546aebf05980b90ab20a620251110130508" d="m 17.969,9.375 c -4.746,0 -8.594,3.848 -8.594,8.594 v 16.722 c 1.387,-1.414 2.961,-2.64 4.687,-3.64 V 17.969 c 0,-2.157 1.75,-3.907 3.907,-3.907 h 16.406 v 3.907 c 0,3.883 3.148,7.031 7.031,7.031 h 19.532 v 32.031 c 0,2.157 -1.75,3.907 -3.907,3.907 H 43.949 c -1,1.726 -2.226,3.3 -3.64,4.687 h 16.722 c 4.746,0 8.594,-3.848 8.594,-8.594 V 17.969 c 0,-4.746 -3.848,-8.594 -8.594,-8.594 z M 60.938,20.312 H 41.406 c -1.293,0 -2.344,-1.05 -2.344,-2.343 v -3.907 h 17.969 c 2.157,0 3.907,1.75 3.907,3.907 z M 38.281,30.469 c 1.293,0 2.344,1.051 2.344,2.343 v 8.594 c 0,1.293 -1.051,2.344 -2.344,2.344 h -8.593 c -1.293,0 -2.344,-1.051 -2.344,-2.344 0,-1.293 1.051,-2.344 2.344,-2.344 H 33.84 C 33.824,39.047 33.805,39.035 33.789,39.02 31.379,37.09 28.328,35.938 25,35.938 c -7.766,0 -14.062,6.296 -14.062,14.062 0,7.766 6.296,14.062 14.062,14.062 7.766,0 14.062,-6.296 14.062,-14.062 0,-1.293 1.051,-2.344 2.344,-2.344 1.293,0 2.344,1.051 2.344,2.344 C 43.75,60.355 35.355,68.75 25,68.75 14.645,68.75 6.25,60.355 6.25,50 6.25,39.645 14.645,31.25 25,31.25 c 4.078,0 7.859,1.305 10.938,3.52 v -1.958 c 0,-1.292 1.05,-2.343 2.343,-2.343 z" style="fill:currentColor;fill-opacity:1;fill-rule:nonzero;stroke:none" transform="scale(1.3333333)" /> </g>
</svg>

