<?xml version="1.0" encoding="UTF-8" standalone="no"?> <svg version="1.1" id="Ief22045c7e304e84bb77602c424738ce20251110123030" width="100" height="100" viewBox="0 0 100 100" xmlns="http://www.w3.org/2000/svg" xmlns:svg="http://www.w3.org/2000/svg"> <defs id="Ia47babb62299498d9db586cdf9a194dd20251110123030" /> <g id="I41165b177bc743f4a07c37f3dccfd2c620251110123030"> <path id="I54279218a9b542e8b4741e952c6fa55320251110123030" d="m 48.883,44.195 c -1.11,0 -2.008,0.903 -2.008,2.012 0,1.109 0.898,2.008 2.008,2.008 h 9.375 c 1.109,0 2.012,-0.899 2.012,-2.008 0,-1.109 -0.903,-2.012 -2.012,-2.012 z M 5.367,23.438 c 0,-5.547 4.496,-10.043 10.047,-10.043 h 44.184 c 5.55,0 10.047,4.496 10.047,10.043 v 28.124 c 0,5.547 -4.497,10.043 -10.047,10.043 H 15.414 C 9.863,61.605 5.367,57.109 5.367,51.562 Z M 15.414,17.41 c -3.332,0 -6.027,2.699 -6.027,6.028 v 2.007 h 56.238 v -2.007 c 0,-3.329 -2.695,-6.028 -6.027,-6.028 z M 9.387,51.562 c 0,3.329 2.695,6.028 6.027,6.028 h 44.184 c 3.332,0 6.027,-2.699 6.027,-6.028 V 29.465 H 9.387 Z" style="fill:currentColor;fill-opacity:1;fill-rule:nonzero;stroke:none" transform="scale(1.3333333)" /> </g>
</svg>

