<?xml version="1.0" encoding="UTF-8" standalone="no"?> <svg version="1.1" id="If0bca520ac2646b1baccadef425aac8620251106154012" width="100" height="100" viewBox="0 0 100 100" xmlns="http://www.w3.org/2000/svg" xmlns:svg="http://www.w3.org/2000/svg"> <defs id="I1ba75f8c29254d7db0f26ac511e7470720251106154012" /> <g id="Ia3a1ae79cb994835bb5097f91f42b57320251106154012"> <path id="Ie3f3faa5e275488da8ecc96e992bb7e520251106154012" d="m 21.094,68.75 c -1.293,0 -2.344,-1.047 -2.344,-2.344 0,-1.183 0.883,-2.164 2.027,-2.32 l 0.317,-0.024 h 5.465 V 56.258 H 13.281 c -3.722,0 -6.769,-2.891 -7.015,-6.551 L 6.25,49.227 V 16.406 c 0,-3.722 2.891,-6.769 6.551,-7.015 l 0.48,-0.016 h 48.434 c 3.723,0 6.769,2.891 7.015,6.551 l 0.016,0.48 v 27.09 C 68.652,40.262 66.773,37.477 64.059,36.094 V 16.406 c 0,-1.187 -0.883,-2.168 -2.028,-2.324 l -0.316,-0.02 H 13.281 c -1.187,0 -2.168,0.883 -2.324,2.028 l -0.019,0.316 v 32.821 c 0,1.187 0.882,2.168 2.027,2.32 l 0.316,0.023 h 21.094 v 4.688 h -3.133 l 0.004,7.804 h 3.129 v 3.126 c 0,0.535 0.055,1.058 0.156,1.562 z M 43.75,46.875 h -1.562 c -2.59,0 -4.688,2.102 -4.688,4.687 v 4.688 h 7.812 v -0.781 c 0,-1.293 1.051,-2.344 2.344,-2.344 1.293,0 2.344,1.051 2.344,2.344 v 0.781 h 9.375 v -0.781 c 0,-1.293 1.051,-2.344 2.344,-2.344 1.293,0 2.343,1.051 2.343,2.344 v 0.781 h 7.813 v -4.688 c 0,-2.585 -2.098,-4.687 -4.687,-4.687 H 65.625 V 43.75 c 0,-3.02 -2.449,-5.469 -5.469,-5.469 H 49.219 c -3.02,0 -5.469,2.449 -5.469,5.469 z m 4.688,-3.125 c 0,-0.43 0.351,-0.781 0.781,-0.781 h 10.937 c 0.43,0 0.782,0.351 0.782,0.781 v 3.125 h -12.5 z M 37.5,67.188 v -6.25 h 7.812 v 2.343 c 0,1.297 1.051,2.344 2.344,2.344 1.293,0 2.344,-1.047 2.344,-2.344 v -2.343 h 9.375 v 2.343 c 0,1.297 1.051,2.344 2.344,2.344 1.293,0 2.343,-1.047 2.343,-2.344 v -2.343 h 7.813 v 6.25 c 0,2.589 -2.098,4.687 -4.687,4.687 h -25 c -2.59,0 -4.688,-2.098 -4.688,-4.687 z" style="fill:currentColor;fill-opacity:1;fill-rule:nonzero;stroke:none" transform="scale(1.3333333)" /> </g>
</svg>

