<?xml version="1.0" encoding="UTF-8" standalone="no"?> <svg version="1.1" id="I4d40e0a90f5448239975d789503dfe4a20251106161453" width="100" height="100" viewBox="0 0 100 100" xmlns="http://www.w3.org/2000/svg" xmlns:svg="http://www.w3.org/2000/svg"> <defs id="I910ad91581e84474851288f81c5fc42d20251106161453" /> <g id="I8aad96db17b049c78ad59d3d51a32b7920251106161453"> <path id="I3839ef39474443b2859f1bc8296c6ade20251106161453" d="m 27.344,35.938 h 20.312 c 3.02,0 5.469,2.449 5.469,5.468 v 12.5 c 0,3.02 -2.449,5.469 -5.469,5.469 H 27.344 c -3.02,0 -5.469,-2.449 -5.469,-5.469 v -12.5 c 0,-3.019 2.449,-5.468 5.469,-5.468 z m -0.782,5.468 v 3.906 h 4.688 v -4.687 h -3.906 c -0.43,0 -0.782,0.352 -0.782,0.781 z m 0,8.594 v 3.906 c 0,0.43 0.352,0.782 0.782,0.782 H 31.25 V 50 Z m 9.376,0 v 4.688 h 11.718 c 0.43,0 0.782,-0.352 0.782,-0.782 V 50 Z m 12.5,-4.688 v -3.906 c 0,-0.429 -0.352,-0.781 -0.782,-0.781 H 35.938 v 4.687 z M 42.453,8.082 C 42.406,8.035 42.352,7.992 42.301,7.953 42.262,7.926 42.223,7.895 42.188,7.863 41.965,7.664 41.746,7.465 41.504,7.301 41.426,7.246 41.336,7.203 41.25,7.164 41.203,7.137 41.152,7.113 41.102,7.086 41.051,7.059 41,7.027 40.945,6.996 40.777,6.898 40.609,6.801 40.43,6.727 39.812,6.469 39.148,6.34 38.477,6.293 38.418,6.289 38.355,6.281 38.293,6.273 38.211,6.262 38.125,6.25 38.039,6.25 H 18.75 c -3.449,0 -6.25,2.801 -6.25,6.25 v 50 c 0,3.449 2.801,6.25 6.25,6.25 h 37.5 c 3.449,0 6.25,-2.801 6.25,-6.25 V 30.711 c 0,-1.656 -0.66,-3.246 -1.832,-4.418 z m 13.797,55.98 h -37.5 c -0.863,0 -1.562,-0.703 -1.562,-1.562 v -50 c 0,-0.859 0.699,-1.562 1.562,-1.562 H 37.5 V 25 c 0,3.449 2.801,6.25 6.25,6.25 H 57.812 V 62.5 c 0,0.859 -0.699,1.562 -1.562,1.562 z m -1.945,-37.5 H 43.75 c -0.863,0 -1.562,-0.703 -1.562,-1.562 V 14.441 Z" style="fill:currentColor;fill-opacity:1;fill-rule:nonzero;stroke:none" transform="scale(1.3333333)" /> </g>
</svg>

