<?xml version="1.0" encoding="UTF-8" standalone="no"?> <svg version="1.1" id="Ifb0db1176437404abe0747d9ba77a38420251110124420" width="100" height="100" viewBox="0 0 100 100" xmlns="http://www.w3.org/2000/svg" xmlns:svg="http://www.w3.org/2000/svg"> <defs id="Icce8cf67804049838825cba378da9b4320251110124420" /> <g id="I170026d9f82749888aed8ab3f39a56ca20251110124420"> <path id="Ie48f8ba32e5344beb425757debc953ff20251110124420" d="M 6.25,22.656 C 6.25,17.047 10.797,12.5 16.406,12.5 h 42.188 c 5.609,0 10.156,4.547 10.156,10.156 v 14.25 C 65.102,33.402 60.145,31.25 54.688,31.25 c -11.219,0 -20.313,9.094 -20.313,20.312 0,4.028 1.172,7.782 3.191,10.938 H 16.406 C 10.797,62.5 6.25,57.953 6.25,52.344 Z M 37.5,51.562 c 0,9.493 7.695,17.188 17.188,17.188 9.492,0 17.187,-7.695 17.187,-17.188 0,-9.492 -7.695,-17.187 -17.187,-17.187 -9.493,0 -17.188,7.695 -17.188,17.187 z M 64.062,40.625 c 0.864,0 1.563,0.699 1.563,1.563 v 6.25 c 0,0.863 -0.699,1.562 -1.563,1.562 h -6.25 c -0.863,0 -1.562,-0.699 -1.562,-1.562 0,-0.864 0.699,-1.563 1.562,-1.563 h 3.126 c -1.426,-1.898 -3.696,-3.125 -6.25,-3.125 -2.606,0 -4.911,1.273 -6.333,3.238 -0.507,0.7 -1.484,0.856 -2.183,0.348 -0.699,-0.504 -0.856,-1.481 -0.348,-2.18 1.985,-2.742 5.215,-4.531 8.864,-4.531 3.062,0 5.828,1.258 7.812,3.281 v -1.718 c 0,-0.864 0.699,-1.563 1.562,-1.563 z M 46.875,59.219 v 1.719 c 0,0.863 -0.699,1.562 -1.563,1.562 -0.863,0 -1.562,-0.699 -1.562,-1.562 v -6.25 c 0,-0.864 0.699,-1.563 1.562,-1.563 h 6.25 c 0.864,0 1.563,0.699 1.563,1.563 0,0.863 -0.699,1.562 -1.563,1.562 h -3.124 c 1.425,1.898 3.695,3.125 6.25,3.125 2.394,0 4.535,-1.074 5.972,-2.777 0.555,-0.657 1.543,-0.743 2.203,-0.184 0.657,0.555 0.742,1.543 0.184,2.203 -2.004,2.371 -5.004,3.883 -8.359,3.883 -3.063,0 -5.829,-1.258 -7.813,-3.281 z" style="fill:currentColor;fill-opacity:1;fill-rule:nonzero;stroke:none" transform="scale(1.3333333)" /> </g>
</svg>

