<?xml version="1.0" encoding="UTF-8" standalone="no"?> <svg version="1.1" id="Id092c2bec9a04468a45a22a4ef692b7720251106143239" width="100" height="100" viewBox="0 0 100 100" xmlns="http://www.w3.org/2000/svg" xmlns:svg="http://www.w3.org/2000/svg"> <defs id="I56d68d07a4e64427ad9a97e798ab302b20251106143239" /> <g id="I4a904c3c80dd4ed9b900d15e3896b7cf20251106143239"> <path id="Ic3e08695f50349d389d07ce86258a8f020251106143239" d="m 49.543,19.207 c 0.262,0.262 0.508,0.539 0.734,0.832 0.614,0.793 1.09,1.691 1.407,2.649 l 1.398,4.304 c 0.117,0.332 0.336,0.617 0.621,0.82 0.289,0.204 0.633,0.313 0.985,0.313 0.351,0 0.695,-0.109 0.984,-0.313 0.254,-0.179 0.453,-0.429 0.578,-0.714 0.016,-0.036 0.027,-0.071 0.043,-0.106 l 1.398,-4.304 c 0.434,-1.309 1.168,-2.497 2.145,-3.469 0.976,-0.977 2.164,-1.711 3.473,-2.145 l 4.304,-1.398 c 0.332,-0.117 0.621,-0.332 0.825,-0.621 0.203,-0.285 0.312,-0.629 0.312,-0.981 0,-0.351 -0.109,-0.695 -0.312,-0.984 -0.204,-0.285 -0.493,-0.504 -0.825,-0.621 l -0.086,-0.02 -4.304,-1.398 C 61.914,10.617 60.727,9.883 59.75,8.906 58.773,7.934 58.039,6.746 57.605,5.438 L 56.207,1.133 C 56.09,0.801 55.871,0.516 55.582,0.312 55.297,0.109 54.953,0 54.602,0 54.25,0 53.906,0.109 53.617,0.312 53.332,0.516 53.113,0.801 52.996,1.133 L 51.598,5.438 51.562,5.543 C 51.133,6.801 50.426,7.945 49.492,8.891 49.16,9.23 48.801,9.539 48.422,9.816 L 48.418,9.812 c -0.328,0.243 -0.676,0.465 -1.035,0.661 -0.422,0.226 -0.863,0.422 -1.317,0.578 l -1.878,0.609 -2.438,0.778 c -0.324,0.124 -0.605,0.339 -0.812,0.624 -0.2,0.274 -0.309,0.602 -0.313,0.942 0,0.016 0,0.031 0,0.047 0,0.023 0,0.047 0,0.07 0.008,0.297 0.094,0.582 0.258,0.832 0.015,0.027 0.035,0.055 0.055,0.082 0.148,0.211 0.347,0.387 0.574,0.508 0.078,0.043 0.156,0.082 0.238,0.113 l 4.312,1.406 c 0.809,0.266 1.567,0.645 2.262,1.122 0.434,0.304 0.844,0.644 1.219,1.023 z m 22.387,11.934 2.39,0.777 0.051,0.012 c 0.184,0.062 0.344,0.183 0.457,0.343 0.11,0.161 0.172,0.352 0.172,0.547 0,0.196 -0.062,0.383 -0.172,0.543 -0.113,0.16 -0.273,0.282 -0.457,0.344 l -2.394,0.777 c -0.727,0.243 -1.387,0.653 -1.93,1.192 -0.543,0.543 -0.949,1.203 -1.192,1.929 l -0.777,2.391 c -0.066,0.184 -0.183,0.344 -0.344,0.457 -0.16,0.109 -0.351,0.172 -0.546,0.172 -0.102,0 -0.208,-0.016 -0.305,-0.051 -0.125,-0.027 -0.246,-0.086 -0.352,-0.168 -0.168,-0.097 -0.301,-0.254 -0.375,-0.437 L 65.871,38.688 65.52,37.605 c -0.243,-0.73 -0.649,-1.39 -1.192,-1.937 -0.539,-0.543 -1.203,-0.953 -1.93,-1.195 L 60.004,33.695 C 59.82,33.633 59.66,33.512 59.547,33.352 59.438,33.191 59.375,33 59.375,32.805 c 0,-0.196 0.063,-0.383 0.172,-0.543 0.113,-0.16 0.273,-0.282 0.457,-0.344 l 2.394,-0.777 c 0.719,-0.25 1.368,-0.661 1.903,-1.2 0.531,-0.543 0.933,-1.199 1.172,-1.921 l 0.777,-2.391 c 0.062,-0.184 0.184,-0.344 0.344,-0.457 0.16,-0.11 0.351,-0.172 0.547,-0.172 0.195,0 0.386,0.062 0.543,0.172 0.16,0.113 0.281,0.273 0.347,0.457 l 0.778,2.391 c 0.242,0.726 0.648,1.386 1.191,1.929 0.543,0.539 1.203,0.949 1.93,1.192 z m -25.055,7.921 c 0,-5.179 -4.195,-9.374 -9.375,-9.374 -5.18,0 -9.375,4.195 -9.375,9.374 0,5.18 4.195,9.376 9.375,9.376 5.18,0 9.375,-4.196 9.375,-9.376 z M 68.75,55.469 V 43.414 c -0.527,0.242 -1.102,0.367 -1.688,0.367 -0.839,0 -1.66,-0.261 -2.343,-0.75 C 64.012,42.527 63.477,41.82 63.188,41 l -0.75,-2.375 C 62.352,38.355 62.199,38.109 62,37.906 61.801,37.723 61.566,37.574 61.312,37.469 l -2.468,-0.781 c -0.793,-0.286 -1.481,-0.809 -1.969,-1.5 -0.492,-0.68 -0.754,-1.504 -0.75,-2.344 0,-0.727 0.191,-1.438 0.563,-2.063 -0.657,0.336 -1.387,0.508 -2.126,0.5 C 53.57,31.277 52.602,30.973 51.781,30.406 50.953,29.809 50.332,28.969 50,28 l -1.375,-4.312 c -0.207,-0.618 -0.512,-1.2 -0.906,-1.719 L 47.25,21.438 C 46.621,20.809 45.852,20.336 45,20.062 l -4.375,-1.437 c -0.93,-0.352 -1.734,-0.973 -2.313,-1.781 -0.566,-0.817 -0.871,-1.785 -0.874,-2.782 0.003,-1.003 0.308,-1.984 0.874,-2.812 0.61,-0.82 1.446,-1.438 2.407,-1.781 l 4.25,-1.375 C 45.039,8.07 45.105,8.047 45.176,8.02 44.637,7.891 44.082,7.82 43.516,7.82 H 31.633 c -2.445,0 -4.715,1.27 -5.992,3.356 l -2.735,4.449 h -6.5 c -5.609,0 -10.156,4.547 -10.156,10.156 v 29.688 c 0,5.609 4.547,10.156 10.156,10.156 h 42.188 c 5.609,0 10.156,-4.547 10.156,-10.156 z M 23.438,39.062 C 23.438,31.297 29.734,25 37.5,25 c 7.766,0 14.062,6.297 14.062,14.062 0,7.766 -6.296,14.063 -14.062,14.063 -7.766,0 -14.062,-6.297 -14.062,-14.063 z" style="fill:currentColor;fill-opacity:1;fill-rule:nonzero;stroke:none" transform="scale(1.3333333)" /> </g>
</svg>

