<?xml version="1.0" encoding="UTF-8" standalone="no"?> <svg version="1.1" id="If4450d358d3a4283b95b545faa2ea83220251110124421" width="100" height="100" viewBox="0 0 100 100" xmlns="http://www.w3.org/2000/svg" xmlns:svg="http://www.w3.org/2000/svg"> <defs id="Iab07a772023c402594ad0324d4ab6a9020251110124421"> <linearGradient x1="6.6666698" y1="1.7777801" x2="17.6667" y2="26.2222" gradientUnits="userSpaceOnUse" gradientTransform="scale(2.678571)" spreadMethod="pad" id="Ia71c768a9bed40a597ed4820b17a4b1220251110124421"> <stop style="stop-opacity:1;stop-color:#1ec8b0" offset="0" id="Ib06edaa8ffd44af598f4fc83183ba67d20251110124421" /> <stop style="stop-opacity:1;stop-color:#2764e7" offset="1" id="I709be0cab352408db6bf4c6d1e2e247b20251110124421" /> </linearGradient> <linearGradient x1="12.8906" y1="7.6374998" x2="10.4444" y2="16.0924" gradientUnits="userSpaceOnUse" gradientTransform="scale(2.678571)" spreadMethod="pad" id="I123453c914fb49118a8f38848a36266320251110124421"> <stop style="stop-opacity:1;stop-color:#fdfdfd" offset="0" id="Ie7cc5d2532af4f5e8bc1756254245c3520251110124421" /> <stop style="stop-opacity:1;stop-color:#dedeff" offset="1" id="If74d88425c994c4bafab525a77112b6820251110124421" /> </linearGradient> </defs> <g id="Iae9993fe210e460e88fac5a608c3d9aa20251110124421"> <path id="Id99733a0485e48739d735553f51ca81d20251110124421" d="m 16.742,8.035 c -4.808,0 -8.707,3.899 -8.707,8.707 v 41.516 c 0,4.808 3.899,8.707 8.707,8.707 h 41.516 c 4.808,0 8.707,-3.899 8.707,-8.707 V 16.742 c 0,-4.808 -3.899,-8.707 -8.707,-8.707 z" style="fill:#212121;fill-opacity:1;fill-rule:nonzero;stroke:none" transform="scale(1.3333333)" /> <path id="Iefb5d7c424d04dd1991818af52091ed820251110124421" d="m 16.742,8.035 c -4.808,0 -8.707,3.899 -8.707,8.707 v 41.516 c 0,4.808 3.899,8.707 8.707,8.707 h 41.516 c 4.808,0 8.707,-3.899 8.707,-8.707 V 16.742 c 0,-4.808 -3.899,-8.707 -8.707,-8.707 z" transform="scale(1.3333333)" style="fill:url(#Ia71c768a9bed40a597ed4820b17a4b1220251110124421);stroke:none" /> <path id="I5d4b0e6dc0414774933ddf11fb15eac620251110124421" d="m 38.84,20.758 c 0,-1.11 -0.899,-2.008 -2.008,-2.008 -1.109,0 -2.012,0.898 -2.012,2.008 v 18.75 c 0,1.109 0.903,2.012 2.012,2.012 h 14.73 c 1.11,0 2.008,-0.903 2.008,-2.012 0,-1.11 -0.898,-2.008 -2.008,-2.008 H 38.84 Z" style="fill:#d9d9d9;fill-opacity:1;fill-rule:nonzero;stroke:none" transform="scale(1.3333333)" /> <path id="I395b7ce969c243b283bb7441147dc05b20251110124421" d="m 38.84,20.758 c 0,-1.11 -0.899,-2.008 -2.008,-2.008 -1.109,0 -2.012,0.898 -2.012,2.008 v 18.75 c 0,1.109 0.903,2.012 2.012,2.012 h 14.73 c 1.11,0 2.008,-0.903 2.008,-2.012 0,-1.11 -0.898,-2.008 -2.008,-2.008 H 38.84 Z" transform="scale(1.3333333)" style="fill:url(#I123453c914fb49118a8f38848a36266320251110124421);stroke:none" /> </g>
</svg>

