<?xml version="1.0" encoding="UTF-8" standalone="no"?> <svg version="1.1" id="Id70032481438456fbb9fb4d545d90b2520251110130509" width="100" height="100" viewBox="0 0 100 100" xmlns="http://www.w3.org/2000/svg" xmlns:svg="http://www.w3.org/2000/svg"> <defs id="I0732edf4a43e4d50a792e76fbbbdc3b920251110130509" /> <g id="I53721ba2fcb7463a8c2876d96a9573ce20251110130509"> <path id="I6bc62cd4ee8341098ada4051ded7ec2b20251110130509" d="m 61.875,7.5 c 1.035,0 1.875,0.84 1.875,1.875 V 15 c 0,4.141 -3.359,7.5 -7.5,7.5 h -37.5 c -4.141,0 -7.5,-3.359 -7.5,-7.5 V 9.375 C 11.25,8.34 12.09,7.5 13.125,7.5 14.16,7.5 15,8.34 15,9.375 V 15 c 0,2.07 1.68,3.75 3.75,3.75 h 7.5 V 9.375 C 26.25,8.34 27.09,7.5 28.125,7.5 29.16,7.5 30,8.34 30,9.375 V 18.75 H 45 V 9.375 C 45,8.34 45.84,7.5 46.875,7.5 c 1.035,0 1.875,0.84 1.875,1.875 v 9.375 h 7.5 C 58.32,18.75 60,17.07 60,15 V 9.375 C 60,8.34 60.84,7.5 61.875,7.5 Z m 0,60 c 1.035,0 1.875,-0.84 1.875,-1.875 V 60 c 0,-4.141 -3.359,-7.5 -7.5,-7.5 h -37.5 c -4.141,0 -7.5,3.359 -7.5,7.5 v 5.625 c 0,1.035 0.84,1.875 1.875,1.875 C 14.16,67.5 15,66.66 15,65.625 V 60 c 0,-2.07 1.68,-3.75 3.75,-3.75 h 7.5 v 9.375 c 0,1.035 0.84,1.875 1.875,1.875 C 29.16,67.5 30,66.66 30,65.625 V 56.25 h 15 v 9.375 c 0,1.035 0.84,1.875 1.875,1.875 1.035,0 1.875,-0.84 1.875,-1.875 V 56.25 h 7.5 c 2.07,0 3.75,1.68 3.75,3.75 v 5.625 c 0,1.035 0.84,1.875 1.875,1.875 z M 9.375,35.625 h 56.27 c 1.043,0 1.886,0.852 1.875,1.895 -0.012,1.027 -0.848,1.855 -1.875,1.855 H 9.375 C 8.34,39.375 7.5,38.535 7.5,37.5 c 0,-1.035 0.84,-1.875 1.875,-1.875 z" style="fill:currentColor;fill-opacity:1;fill-rule:nonzero;stroke:none" transform="scale(1.3333333)" /> </g>
</svg>

