<?xml version="1.0" encoding="UTF-8" standalone="no"?> <svg version="1.1" id="I397336274894422db1efc8bfa276c15f20251106170956" width="100" height="100" viewBox="0 0 100 100" xmlns="http://www.w3.org/2000/svg" xmlns:svg="http://www.w3.org/2000/svg"> <defs id="Ie0f92e111ad546d3821f67c4a04e192e20251106170956" /> <g id="I296c5a69b6f649d599e032e015b6071220251106170956"> <path id="Iaccfd0ebd5c34ceaac44ca2a560dc1c720251106170956" d="m 44.211,14.75 c -1.363,-2.285 -3.859,-3.812 -6.711,-3.812 -2.852,0 -5.348,1.527 -6.711,3.812 C 29.41,14.004 27.934,13.426 26.375,13.043 28.449,9.008 32.652,6.25 37.5,6.25 c 4.848,0 9.051,2.758 11.125,6.793 -1.559,0.383 -3.035,0.961 -4.414,1.707 z m -14.887,8.492 c 1.656,-0.574 3.391,-0.976 5.184,-1.191 -2.844,-3.895 -7.442,-6.426 -12.633,-6.426 -8.629,0 -15.625,6.996 -15.625,15.625 0,5.191 2.531,9.789 6.426,12.633 0.215,-1.793 0.617,-3.528 1.191,-5.184 -1.816,-1.953 -2.929,-4.57 -2.929,-7.449 0,-6.039 4.898,-10.938 10.937,-10.938 2.879,0 5.496,1.114 7.449,2.93 z m 33,20.641 c 3.895,-2.844 6.426,-7.442 6.426,-12.633 0,-8.629 -6.996,-15.625 -15.625,-15.625 -5.191,0 -9.789,2.531 -12.633,6.426 1.793,0.215 3.528,0.617 5.184,1.191 1.953,-1.816 4.57,-2.93 7.449,-2.93 6.039,0 10.937,4.899 10.937,10.938 0,2.879 -1.113,5.496 -2.929,7.449 0.574,1.656 0.976,3.391 1.191,5.184 z M 29.688,41.406 c 0,-1.293 1.05,-2.344 2.343,-2.344 h 13.281 c 0.977,0 1.852,0.606 2.196,1.52 0.34,0.914 0.082,1.941 -0.649,2.586 h -0.004 l -0.035,0.035 c -0.035,0.031 -0.093,0.086 -0.168,0.156 -0.152,0.145 -0.379,0.364 -0.664,0.661 -0.57,0.593 -1.363,1.476 -2.226,2.613 -1.739,2.285 -3.711,5.531 -4.782,9.453 -0.339,1.25 -1.628,1.984 -2.878,1.644 -1.25,-0.339 -1.985,-1.628 -1.645,-2.878 1.273,-4.672 3.598,-8.457 5.57,-11.055 l 0.035,-0.047 h -8.031 c -1.293,0 -2.343,-1.051 -2.343,-2.344 z M 37.5,68.75 c 12.082,0 21.875,-9.793 21.875,-21.875 C 59.375,34.793 49.582,25 37.5,25 25.418,25 15.625,34.793 15.625,46.875 c 0,12.082 9.793,21.875 21.875,21.875 z m 0,-4.688 c -9.492,0 -17.188,-7.695 -17.188,-17.187 0,-9.492 7.696,-17.187 17.188,-17.187 9.492,0 17.188,7.695 17.188,17.187 0,9.492 -7.696,17.187 -17.188,17.187 z" style="fill:currentColor;fill-opacity:1;fill-rule:nonzero;stroke:none" transform="scale(1.3333333)" /> </g>
</svg>

