<?xml version="1.0" encoding="UTF-8" standalone="no"?> <svg version="1.1" id="I009e3b08c1bc49dbbe1104777a932b1320251106142135" width="100" height="100" viewBox="0 0 100 100" xmlns="http://www.w3.org/2000/svg" xmlns:svg="http://www.w3.org/2000/svg"> <defs id="If62e7d90dfba468b8fdcedd124ff90cd20251106142135" /> <g id="I08062e496f4048ceace7cde773d4fef820251106142135"> <path id="I681c68b8ebf146119c481b975abe253f20251106142135" d="m 11.719,21.875 c -1.293,0 -2.344,-1.051 -2.344,-2.344 v -1.562 c 0,-4.746 3.848,-8.594 8.594,-8.594 h 39.062 c 4.746,0 8.594,3.848 8.594,8.594 v 1.562 c 0,1.293 -1.051,2.344 -2.344,2.344 -1.293,0 -2.343,-1.051 -2.343,-2.344 v -1.562 c 0,-2.157 -1.75,-3.907 -3.907,-3.907 H 17.969 c -2.157,0 -3.907,1.75 -3.907,3.907 v 1.562 c 0,1.293 -1.05,2.344 -2.343,2.344 z m 2.343,11.719 c 0,-1.293 -1.05,-2.344 -2.343,-2.344 -1.293,0 -2.344,1.051 -2.344,2.344 v 7.812 c 0,1.293 1.051,2.344 2.344,2.344 1.293,0 2.343,-1.051 2.343,-2.344 z m 46.876,0 c 0,-1.293 1.05,-2.344 2.343,-2.344 1.293,0 2.344,1.051 2.344,2.344 v 7.812 c 0,1.293 -1.051,2.344 -2.344,2.344 -1.293,0 -2.343,-1.051 -2.343,-2.344 z M 9.375,55.469 c 0,-1.293 1.051,-2.344 2.344,-2.344 1.293,0 2.343,1.051 2.343,2.344 v 1.562 c 0,2.157 1.75,3.907 3.907,3.907 h 39.062 c 2.157,0 3.907,-1.75 3.907,-3.907 v -1.562 c 0,-1.293 1.05,-2.344 2.343,-2.344 1.293,0 2.344,1.051 2.344,2.344 v 1.562 c 0,4.746 -3.848,8.594 -8.594,8.594 H 17.969 c -4.746,0 -8.594,-3.848 -8.594,-8.594 z" style="fill:currentColor;fill-opacity:1;fill-rule:nonzero;stroke:none" transform="scale(1.3333333)" /> </g>
</svg>

