<?xml version="1.0" encoding="UTF-8" standalone="no"?> <svg version="1.1" id="I4eb473dc188449cc811dacc11493e95d20251110130509" width="100" height="100" viewBox="0 0 100 100" xmlns="http://www.w3.org/2000/svg" xmlns:svg="http://www.w3.org/2000/svg"> <defs id="I447f49100ef14640b3a57c2f4d7267bc20251110130509" /> <g id="Ide24cc3838ff4132b2b369c56f19142720251110130509"> <path id="I7342f6a1e6494f5f87007fceacdde10520251110130509" d="m 61.719,7.812 c 1.453,0 2.84,0.579 3.867,1.606 1.023,1.023 1.602,2.414 1.602,3.863 v 17.071 c 0.007,1.125 -0.211,2.242 -0.641,3.285 -0.43,1.043 -1.063,1.992 -1.859,2.789 l -1.043,1.043 c -1.981,-2.817 -5.254,-4.657 -8.957,-4.657 -6.04,0 -10.938,4.899 -10.938,10.938 v 0.156 c -3.566,0.723 -6.25,3.875 -6.25,7.656 v 11.993 c -1.531,1.254 -3.457,1.949 -5.453,1.949 -2.277,0 -4.465,-0.906 -6.078,-2.516 L 12.008,49.078 c -0.797,-0.797 -1.43,-1.746 -1.863,-2.789 -0.43,-1.039 -0.653,-2.156 -0.653,-3.285 0,-1.129 0.223,-2.246 0.653,-3.289 0.433,-1.043 1.066,-1.988 1.863,-2.785 L 38.57,10.336 c 0.793,-0.805 1.742,-1.438 2.782,-1.871 1.043,-0.434 2.16,-0.656 3.289,-0.653 z" style="fill:currentColor;fill-opacity:1;fill-rule:nonzero;stroke:none" transform="scale(1.3333333)" /> </g>
</svg>

