<?xml version="1.0" encoding="UTF-8" standalone="no"?> <svg version="1.1" id="If3787e7af81147f596da745fcb855b7b20251106104833" width="100" height="100" viewBox="0 0 100 100" xmlns="http://www.w3.org/2000/svg" xmlns:svg="http://www.w3.org/2000/svg"> <defs id="Id5b10101fdb24898ae1409e7853ac11320251106104833" /> <g id="I0abe2770e50043d4a4db267bdb4479cc20251106104833"> <path id="If2bedf1dfc734b8ca1c2dc9fc48bd0a420251106104833" d="m 8.746,17.555 c 0,1.523 0.606,2.984 1.684,4.066 1.082,1.078 2.543,1.684 4.066,1.684 1.527,0 2.988,-0.606 4.066,-1.684 1.079,-1.082 1.688,-2.543 1.688,-4.066 0,-1.528 -0.609,-2.989 -1.688,-4.067 -1.078,-1.078 -2.539,-1.687 -4.066,-1.687 -1.523,0 -2.984,0.609 -4.066,1.687 -1.078,1.078 -1.684,2.539 -1.684,4.067 z m 61.106,6.629 c 0,0 -1.985,-15.438 -35.735,-5.868 1.449,-2.511 2.145,-4.144 2.145,-4.144 l -8.438,-2.371 c 0,0 -3.398,11.101 -9.461,16.273 0,0 5.871,3.399 5.813,3.297 1.679,-1.68 3.195,-3.398 4.492,-5.055 1.348,-0.586 2.637,-1.136 3.91,-1.656 -1.558,2.805 -4.078,7.016 -6.598,9.676 l 3.551,3.098 c 0,0 2.41,-2.321 5.055,-5.125 h 3.016 v 5.175 H 25.855 v 4.141 h 11.747 v 9.922 c -0.145,0 -0.301,0 -0.454,-0.02 -1.289,-0.058 -3.304,-0.273 -4.101,-1.523 -0.961,-1.512 -0.25,-4.309 -0.199,-6.016 h -8.121 l -0.286,0.149 c 0,0 -2.972,13.32 8.563,13.015 10.808,0.305 16.992,-3.011 19.973,-5.281 l 1.187,4.402 6.664,-2.777 -4.512,-11.039 -5.406,1.68 1.012,3.785 c -1.391,1.039 -2.981,1.816 -4.703,2.375 V 41.625 H 58.695 V 37.484 H 47.219 V 32.309 H 58.734 V 28.168 H 38.277 c 1.473,-1.793 2.637,-3.441 2.93,-4.488 l -3.555,-0.969 c 15.301,-5.484 23.813,-4.539 23.739,4.453 v 23.672 c 0,0 0.902,8.125 -8.407,7.539 l -5.039,-1.078 -1.187,4.777 c 0,0 21.754,6.231 23.531,-10.496 C 72.07,34.84 69.852,24.184 69.852,24.184 Z m -59.211,1.531 -3.801,5.832 6.996,4.363 c 0,0 4.687,2.387 2.461,6.856 C 14.215,47 4.02,56.273 4.02,56.273 l 9.121,5.704 c 6.312,-13.704 5.902,-11.887 7.492,-16.801 1.633,-5.031 1.984,-8.864 -0.785,-11.645 -3.551,-3.566 -3.934,-3.898 -9.207,-7.816 z" style="fill:currentColor;fill-opacity:1;fill-rule:nonzero;stroke:none" transform="scale(1.3333333)" /> </g>
</svg>

