<?xml version="1.0" encoding="UTF-8" standalone="no"?> <svg version="1.1" id="I2ee4afa4945a4fc1a7e7f5edba27d9d720251106154012" width="100" height="100" viewBox="0 0 100 100" xmlns="http://www.w3.org/2000/svg" xmlns:svg="http://www.w3.org/2000/svg"> <defs id="Ib79154ddbc544c84891ed6af87d821da20251106154012" /> <g id="I892a9f8d5e8449bba78cee001f8da64220251106154012"> <path id="Ib1a86608f971465295be1f1a34abfab920251106154012" d="m 46.875,4.688 c -0.574,0 -1.145,0.019 -1.711,0.054 -1.293,0.082 -2.273,1.196 -2.191,2.488 0.082,1.293 1.195,2.274 2.488,2.188 0.469,-0.027 0.937,-0.043 1.414,-0.043 12.082,0 21.875,9.793 21.875,21.875 0,0.477 -0.016,0.945 -0.047,1.414 -0.082,1.293 0.899,2.406 2.192,2.488 1.293,0.082 2.406,-0.898 2.488,-2.191 0.035,-0.566 0.055,-1.137 0.055,-1.711 0,-14.672 -11.891,-26.562 -26.563,-26.562 z m 0,7.812 c -0.602,0 -1.195,0.027 -1.781,0.082 -1.289,0.125 -2.235,1.266 -2.114,2.555 0.122,1.289 1.266,2.234 2.551,2.113 0.442,-0.043 0.891,-0.062 1.344,-0.062 7.766,0 14.063,6.296 14.063,14.062 0,0.453 -0.02,0.902 -0.063,1.344 -0.121,1.285 0.824,2.429 2.113,2.551 1.289,0.121 2.43,-0.825 2.555,-2.114 0.055,-0.586 0.082,-1.179 0.082,-1.781 0,-10.355 -8.395,-18.75 -18.75,-18.75 z m 0,7.812 c -0.676,0 -1.34,0.063 -1.984,0.18 -1.274,0.235 -2.118,1.457 -1.883,2.731 0.234,1.273 1.453,2.113 2.726,1.879 0.368,-0.067 0.75,-0.102 1.141,-0.102 3.453,0 6.25,2.797 6.25,6.25 0,0.391 -0.035,0.773 -0.102,1.141 -0.234,1.273 0.606,2.492 1.879,2.726 1.274,0.235 2.496,-0.609 2.731,-1.883 0.117,-0.644 0.179,-1.308 0.179,-1.984 0,-6.039 -4.898,-10.938 -10.937,-10.938 z M 40.348,9.375 H 13.281 l -0.48,0.016 C 9.141,9.637 6.25,12.684 6.25,16.406 v 32.821 l 0.016,0.48 c 0.246,3.66 3.293,6.551 7.015,6.551 h 13.278 v 7.804 h -5.465 l -0.317,0.024 c -1.144,0.156 -2.027,1.137 -2.027,2.32 0,1.297 1.051,2.344 2.344,2.344 h 32.812 l 0.317,-0.02 c 1.144,-0.156 2.027,-1.136 2.027,-2.324 0,-1.293 -1.051,-2.344 -2.344,-2.344 h -5.472 v -7.804 h 13.281 l 0.48,-0.016 c 3.66,-0.25 6.551,-3.297 6.551,-7.015 v -11.45 c -0.609,-0.281 -1.16,-0.675 -1.621,-1.148 -1.113,1.144 -2.719,1.793 -4.43,1.629 -1.359,-0.129 -2.55,-0.742 -3.425,-1.653 -1.231,1.278 -3.059,1.93 -4.93,1.586 -1.438,-0.261 -2.641,-1.066 -3.438,-2.16 -1.086,0.918 -2.492,1.469 -4.027,1.469 -3.453,0 -6.25,-2.797 -6.25,-6.25 0,-1.535 0.555,-2.938 1.473,-4.027 C 41,26.426 40.199,25.227 39.934,23.789 39.59,21.914 40.246,20.09 41.52,18.859 40.609,17.984 39.996,16.789 39.867,15.434 39.707,13.719 40.352,12.117 41.496,11 41.023,10.539 40.629,9.988 40.348,9.375 Z m -9.106,46.883 h 12.5 l 0.004,7.804 h -12.5 z M 50,31.25 c 0,1.727 -1.398,3.125 -3.125,3.125 -1.727,0 -3.125,-1.398 -3.125,-3.125 0,-1.727 1.398,-3.125 3.125,-3.125 1.727,0 3.125,1.398 3.125,3.125 z" style="fill:currentColor;fill-opacity:1;fill-rule:nonzero;stroke:none" transform="scale(1.3333333)" /> </g>
</svg>

