<?xml version="1.0" encoding="UTF-8" standalone="no"?> <svg version="1.1" id="Ib3cc665685b145e8a18a502e3355467220251110133655" width="100" height="100" viewBox="0 0 100 100" xmlns="http://www.w3.org/2000/svg" xmlns:svg="http://www.w3.org/2000/svg"> <defs id="Ibe36ba7c5f28454ca81b8503603ead5f20251110133655" /> <g id="I55a4ca7e18c049d5bdf57885a2e0452720251110133655"> <path id="I4aa3fa2a97f847708d5e4ce5fba64b6420251110133655" d="m 49.219,6.25 c 3.883,0 7.031,3.148 7.031,7.031 v 48.438 c 0,3.883 -3.148,7.031 -7.031,7.031 H 25.781 c -3.883,0 -7.031,-3.148 -7.031,-7.031 V 13.281 c 0,-3.883 3.148,-7.031 7.031,-7.031 z m -7.813,50 h -7.812 c -1.293,0 -2.344,1.051 -2.344,2.344 0,1.187 0.883,2.168 2.027,2.324 l 0.317,0.02 h 7.812 c 1.293,0 2.344,-1.051 2.344,-2.344 0,-1.293 -1.051,-2.344 -2.344,-2.344 z M 45.312,28.121 H 29.688 c -0.864,0 -1.563,0.699 -1.563,1.563 v 18.754 c 0,0.863 0.699,1.562 1.563,1.562 h 15.624 c 0.864,0 1.563,-0.699 1.563,-1.562 V 29.684 c 0,-0.864 -0.699,-1.563 -1.563,-1.563 z m 0,-12.496 H 29.688 c -0.864,0 -1.563,0.699 -1.563,1.563 v 6.238 c 0,0.863 0.699,1.562 1.563,1.562 h 15.624 c 0.864,0 1.563,-0.699 1.563,-1.562 v -6.238 c 0,-0.864 -0.699,-1.563 -1.563,-1.563 z" style="fill:currentColor;fill-opacity:1;fill-rule:nonzero;stroke:none" transform="scale(1.3333333)" /> </g>
</svg>

