<?xml version="1.0" encoding="UTF-8" standalone="no"?> <svg version="1.1" id="I2c2cab9f5df345e39486a990deccd5a520251106142134" width="100" height="100" viewBox="0 0 100 100" xmlns="http://www.w3.org/2000/svg" xmlns:svg="http://www.w3.org/2000/svg"> <defs id="Id5582a12355246b1a4a31a2937e1489920251106142134" /> <g id="Id80139a8a74f473db524749da5e1e35f20251106142134"> <path id="Ie68dcb6b8179496c9610ba206f95b35720251106142134" d="m 12.5,12.5 c -3.453,0 -6.25,2.797 -6.25,6.25 v 37.5 c 0,3.453 2.797,6.25 6.25,6.25 h 18.75 c 1.543,0 3,-0.371 4.285,-1.035 -0.75,-2.117 -1.16,-4.399 -1.16,-6.777 0,-5.762 2.398,-10.961 6.25,-14.657 V 21.875 c 0,-1.727 1.398,-3.125 3.125,-3.125 H 62.5 v 17.184 c 2.336,0.972 4.453,2.371 6.25,4.097 V 18.75 c 0,-3.453 -2.797,-6.25 -6.25,-6.25 H 43.75 c -2.402,0 -4.59,0.902 -6.25,2.387 C 35.84,13.402 33.652,12.5 31.25,12.5 Z m 21.875,9.375 v 31.25 c 0,1.727 -1.398,3.125 -3.125,3.125 H 12.5 v -37.5 h 18.75 c 1.727,0 3.125,1.398 3.125,3.125 z" style="fill:currentColor;fill-opacity:1;fill-rule:nonzero;stroke:none" transform="scale(1.3333333)" /> <path id="I8ea0105dc969409184355f2d847dd09620251106142134" d="m 50.023,53.125 c 0.125,-4.422 0.774,-8.34 1.727,-11.203 0.535,-1.606 1.137,-2.789 1.73,-3.543 0.61,-0.77 1.028,-0.879 1.208,-0.879 0.179,0 0.597,0.109 1.207,0.879 0.593,0.754 1.195,1.937 1.73,3.543 0.953,2.863 1.602,6.781 1.727,11.203 z" style="fill:currentColor;fill-opacity:1;fill-rule:nonzero;stroke:none" transform="scale(1.3333333)" /> <path id="I805e547f8da643778b5b32d39ef3c4c320251106142134" d="m 48.785,40.934 c 0.336,-1.004 0.719,-1.942 1.149,-2.77 -6.696,1.926 -11.719,7.813 -12.364,14.961 h 9.325 c 0.125,-4.687 0.812,-8.953 1.89,-12.191 z" style="fill:currentColor;fill-opacity:1;fill-rule:nonzero;stroke:none" transform="scale(1.3333333)" /> <path id="Id23673cfb30c40ee802022e0c25e4e0b20251106142134" d="m 60.59,40.934 c -0.336,-1.004 -0.719,-1.942 -1.149,-2.77 6.7,1.926 11.719,7.813 12.364,14.961 H 62.48 C 62.355,48.438 61.668,44.172 60.59,40.934 Z" style="fill:currentColor;fill-opacity:1;fill-rule:nonzero;stroke:none" transform="scale(1.3333333)" /> <path id="I9d83be3d2e054a0a98b462a5541925bb20251106142134" d="m 62.48,56.25 h 9.325 c -0.645,7.148 -5.664,13.035 -12.364,14.961 0.43,-0.828 0.813,-1.766 1.149,-2.77 1.078,-3.238 1.765,-7.503 1.89,-12.191 z" style="fill:currentColor;fill-opacity:1;fill-rule:nonzero;stroke:none" transform="scale(1.3333333)" /> <path id="I3c38c9c81fba4c56a43efc4191c4de3e20251106142134" d="m 55.895,70.996 c -0.61,0.77 -1.028,0.879 -1.207,0.879 -0.18,0 -0.598,-0.109 -1.208,-0.879 C 52.887,70.242 52.285,69.059 51.75,67.453 50.797,64.59 50.148,60.672 50.023,56.25 h 9.329 c -0.125,4.422 -0.774,8.34 -1.727,11.203 -0.535,1.606 -1.137,2.789 -1.73,3.543 z" style="fill:currentColor;fill-opacity:1;fill-rule:nonzero;stroke:none" transform="scale(1.3333333)" /> <path id="I93068b5f398d49a6a506505a00c11e5820251106142134" d="m 37.57,56.25 c 0.645,7.148 5.668,13.035 12.364,14.961 -0.43,-0.828 -0.813,-1.766 -1.149,-2.77 -1.078,-3.238 -1.765,-7.503 -1.89,-12.191 z" style="fill:currentColor;fill-opacity:1;fill-rule:nonzero;stroke:none" transform="scale(1.3333333)" /> </g>
</svg>

