<?xml version="1.0" encoding="UTF-8" standalone="no"?> <svg version="1.1" id="Ib3bc6c3403c945ef9d3e127ec7a0178a20251106170956" width="100" height="100" viewBox="0 0 100 100" xmlns="http://www.w3.org/2000/svg" xmlns:svg="http://www.w3.org/2000/svg"> <defs id="I1ca5f693e5d7402883e75b928e813ce720251106170956" /> <g id="I51a208e53de04951b127fedcfa4bf19a20251106170956"> <path id="Ie50c91b5347e4d0f85f9b5355b222c8920251106170956" d="m 16.406,12.5 h 42.188 c 5.414,0 9.84,4.238 10.14,9.578 l 0.016,0.578 v 15 C 68.246,37.555 67.723,37.5 67.188,37.5 c -1.11,0 -2.168,0.23 -3.126,0.648 V 29.289 L 58.48,32.23 c -1.125,-0.625 -2.418,-0.98 -3.792,-0.98 -4.063,0 -7.403,3.105 -7.778,7.07 l -8.32,4.379 c -0.582,0.309 -1.27,0.352 -1.883,0.133 L 36.41,42.699 10.938,29.293 v 23.051 c 0,2.871 2.21,5.222 5.019,5.449 l 0.449,0.019 H 34.375 V 62.5 H 16.406 c -5.414,0 -9.84,-4.238 -10.14,-9.578 L 6.25,52.344 V 22.656 c 0,-5.414 4.238,-9.84 9.578,-10.14 z m 42.188,4.688 H 16.406 c -2.871,0 -5.222,2.21 -5.449,5.019 l -0.019,0.449 v 1.34 L 37.5,37.977 64.062,23.992 v -1.336 c 0,-2.871 -2.21,-5.222 -5.019,-5.449 z m -3.906,17.187 c -2.59,0 -4.688,2.098 -4.688,4.687 v 25 c 0,2.59 2.098,4.688 4.688,4.688 2.589,0 4.687,-2.098 4.687,-4.688 v -25 c 0,-2.589 -2.098,-4.687 -4.687,-4.687 z m 12.5,6.25 c -2.59,0 -4.688,2.098 -4.688,4.687 v 18.75 c 0,2.59 2.098,4.688 4.688,4.688 2.589,0 4.687,-2.098 4.687,-4.688 v -18.75 c 0,-2.589 -2.098,-4.687 -4.687,-4.687 z M 37.5,51.562 c 0,-2.589 2.098,-4.687 4.688,-4.687 2.589,0 4.687,2.098 4.687,4.687 v 12.5 c 0,2.59 -2.098,4.688 -4.687,4.688 -2.59,0 -4.688,-2.098 -4.688,-4.688 z" style="fill:currentColor;fill-opacity:1;fill-rule:nonzero;stroke:none" transform="scale(1.3333333)" /> </g>
</svg>

