<?xml version="1.0" encoding="UTF-8" standalone="no"?> <svg version="1.1" id="Ib9094dec200b49f8b8c5a208c189053620251110123030" width="100" height="100" viewBox="0 0 100 100" xmlns="http://www.w3.org/2000/svg" xmlns:svg="http://www.w3.org/2000/svg"> <defs id="Ia0b014ca3edd4bf4b6c91d5a4257684920251110123030" /> <g id="I65fbabdcd13146a2af41c498d45419cf20251110123030"> <path id="I4199cb9d39c64cc68fef6cbcdeb2d9e420251110123030" d="m 45.266,34.723 c 3.273,-4.078 9.8,-4.153 13.168,-0.063 l 10.324,12.563 c 0.988,1.41 1.14,3.191 0.5,4.734 l -0.356,0.695 c -1.359,2.223 -3.484,5.746 -6.281,8.7 -2.777,2.933 -6.516,5.613 -11.148,5.613 -3.43,0 -6.254,-1.43 -8.664,-2.988 -1.192,-0.77 -2.375,-1.645 -3.454,-2.403 -1.043,-0.73 -2.105,-1.414 -3.218,-2.031 -0.969,-0.508 -1.383,-0.734 -1.864,-0.707 -0.253,0.016 -0.933,0.144 -2,1.437 l -2.23,3.184 c -3.055,4.34 -9.574,4.68 -13.137,0.859 L 6.488,51.691 C 5.117,50.023 5.008,47.73 6.102,45.941 l 1.16,-1.882 c 1.3,-2.067 3.019,-4.602 5.121,-6.817 2.777,-2.933 6.515,-5.613 11.148,-5.613 3.43,0 6.25,1.43 8.66,2.988 2.239,1.449 4.309,3.188 6.676,4.43 0.563,0.281 1.203,0.75 1.863,0.711 0.25,-0.012 0.915,-0.141 1.954,-1.387 z m 10.062,2.488 C 53.52,35.02 49.855,35.16 48.246,37.438 l 0.004,0.007 -1.73,2.461 0.027,0.02 -10.613,15.133 c 1.078,0.32 2.05,0.918 3.027,1.461 0.945,0.554 1.848,1.168 2.699,1.765 1.176,0.824 2.227,1.602 3.332,2.317 2.188,1.414 4.211,2.347 6.481,2.347 3.007,-0.004 5.754,-1.75 8.234,-4.363 2.461,-2.598 4.379,-5.758 5.773,-8.035 0.172,-0.414 0.157,-0.715 -0.062,-1.094 z M 23.531,35.648 c -3.008,0 -5.754,1.743 -8.234,4.356 -1.844,1.949 -3.383,4.215 -4.625,6.184 l -1.149,1.851 c -0.222,0.367 -0.187,0.793 0.063,1.098 l 10.445,12.629 c 1.774,1.664 4.781,1.55 6.403,-0.215 L 39.102,43.543 C 38.512,43.371 38,43.137 37.609,42.934 36.129,42.145 34.715,41.273 33.34,40.309 32.168,39.484 31.117,38.711 30.012,37.992 27.824,36.578 25.801,35.648 23.531,35.648 Z M 22.77,8.035 c 5.175,0 9.375,4.199 9.375,9.375 0,5.18 -4.2,9.375 -9.375,9.375 -5.18,0 -9.375,-4.195 -9.375,-9.375 0,-5.176 4.195,-9.375 9.375,-9.375 z m 29.46,0 c 5.18,0 9.375,4.199 9.375,9.375 0,5.18 -4.195,9.375 -9.375,9.375 -5.175,0 -9.375,-4.195 -9.375,-9.375 0,-5.176 4.2,-9.375 9.375,-9.375 z m -29.46,4.02 c -2.961,0 -5.36,2.398 -5.36,5.355 0,2.961 2.399,5.36 5.36,5.36 2.957,0 5.355,-2.399 5.355,-5.36 0,-2.957 -2.398,-5.355 -5.355,-5.355 z m 29.46,0 c -2.957,0 -5.355,2.398 -5.355,5.355 0,2.961 2.398,5.36 5.355,5.36 2.961,0 5.36,-2.399 5.36,-5.36 0,-2.957 -2.399,-5.355 -5.36,-5.355 z" style="fill:currentColor;fill-opacity:1;fill-rule:nonzero;stroke:none" transform="scale(1.3333333)" /> </g>
</svg>

