<?xml version="1.0" encoding="UTF-8" standalone="no"?> <svg version="1.1" id="I86242996ebec45eeb41eba770530299320251106165301" width="100" height="100" viewBox="0 0 100 100" xmlns="http://www.w3.org/2000/svg" xmlns:svg="http://www.w3.org/2000/svg"> <defs id="Ic6326377a021475e94d1fda552f5f02120251106165301" /> <g id="I73fa7f15567248829e43214dabcac7ab20251106165301"> <path id="Id1e8df03f0d948f687f234489b496e5020251106165301" d="m 12.5,14.844 c 0,-4.746 3.848,-8.594 8.594,-8.594 h 32.812 c 4.746,0 8.594,3.848 8.594,8.594 v 1.308 c 0,6.313 -3.312,12.16 -8.723,15.41 l -5.66,3.395 c -1.465,0.879 -1.527,2.984 -0.109,3.945 l 6.629,4.508 c 4.918,3.348 7.863,8.91 7.863,14.86 v 1.886 c 0,4.746 -3.848,8.594 -8.594,8.594 H 21.094 C 16.348,68.75 12.5,64.902 12.5,60.156 V 58.27 c 0,-5.95 2.945,-11.512 7.863,-14.86 l 6.629,-4.508 c 1.418,-0.961 1.356,-3.066 -0.109,-3.945 l -5.66,-3.395 C 15.812,28.312 12.5,22.465 12.5,16.152 Z m 8.594,-3.906 c -2.156,0 -3.906,1.75 -3.906,3.906 v 1.308 c 0,4.668 2.449,8.989 6.449,11.391 l 5.656,3.395 c 4.402,2.64 4.582,8.957 0.336,11.843 L 23,47.289 c -3.637,2.473 -5.812,6.582 -5.812,10.981 v 1.886 c 0,2.156 1.75,3.906 3.906,3.906 h 32.812 c 2.156,0 3.906,-1.75 3.906,-3.906 V 58.27 c 0,-4.399 -2.175,-8.508 -5.812,-10.981 l -6.629,-4.508 c -4.246,-2.886 -4.066,-9.203 0.336,-11.843 l 5.656,-3.395 c 4,-2.402 6.449,-6.723 6.449,-11.391 v -1.308 c 0,-2.156 -1.75,-3.906 -3.906,-3.906 z" style="fill:currentColor;fill-opacity:1;fill-rule:nonzero;stroke:none" transform="scale(1.3333333)" /> </g>
</svg>

