<?xml version="1.0" encoding="UTF-8" standalone="no"?> <svg version="1.1" id="Iea52137d74e34fc7a9cd36b30c63723620251106164749" width="100" height="100" viewBox="0 0 100 100" xmlns="http://www.w3.org/2000/svg" xmlns:svg="http://www.w3.org/2000/svg"> <defs id="Id3db8afa8a2c4c88bd5a26488c9bf27d20251106164749"> <linearGradient x1="6.4444399" y1="5.3333302" x2="20.888901" y2="18.6667" gradientUnits="userSpaceOnUse" gradientTransform="scale(3.125)" spreadMethod="pad" id="I1140cb09e55144aeaa367e9e2b6bb4b120251106164749"> <stop style="stop-opacity:1;stop-color:#29c3ff" offset="0" id="I166514f108864eaf83a59a767645235520251106164749" /> <stop style="stop-opacity:1;stop-color:#2052cb" offset="1" id="I07ea88e32ac74eb690ddf159562aa37520251106164749" /> </linearGradient> <radialGradient fx="0" fy="0" cx="0" cy="0" r="1" gradientUnits="userSpaceOnUse" gradientTransform="matrix(-35.583073,-35.165706,35.16329,-35.580628,57.264063,53.134375)" spreadMethod="pad" id="I1373bc3ea02342a5be6c2b448a55e64b20251106164749"> <stop style="stop-opacity:1;stop-color:#25a2f0" offset="0" id="Iffc5312d623e4885904cc18e10df4ad120251106164749" /> <stop style="stop-opacity:1;stop-color:#3bd5ff" offset="0.97403" id="Icb630d12e66d44c6b4d137392a530ed220251106164749" /> <stop style="stop-opacity:1;stop-color:#3bd5ff" offset="1" id="I23286d53ce7645fd819e8a4375a3afeb20251106164749" /> </radialGradient> </defs> <g id="I2697ef7846fe45b89f77f8cc0df4b9e120251106164749"> <path id="Ibf1d93cdd5524cfc8fff15b598bb5ddd20251106164749" d="M 37.5,68.75 C 54.758,68.75 68.75,54.758 68.75,37.5 68.75,20.242 54.758,6.25 37.5,6.25 20.242,6.25 6.25,20.242 6.25,37.5 c 0,17.258 13.992,31.25 31.25,31.25 z" transform="scale(1.3333333)" style="fill:url(#I1140cb09e55144aeaa367e9e2b6bb4b120251106164749);stroke:none" /> <path id="Iaa2c50fc86cf430e893619dff88b9aa920251106164749" d="m 28.484,7.57 c -1.004,1.559 -1.886,3.356 -2.652,5.325 -1.5,3.843 -2.625,8.507 -3.281,13.667 H 8.219 C 7.652,28.074 7.203,29.641 6.875,31.25 H 22.09 c -0.141,2.031 -0.215,4.121 -0.215,6.25 0,3.234 0.168,6.379 0.492,9.375 H 7.68 c 0.511,1.625 1.148,3.191 1.906,4.687 h 13.43 c 0.672,3.922 1.625,7.493 2.816,10.543 0.766,1.969 1.648,3.766 2.652,5.325 2.856,0.859 5.883,1.32 9.016,1.32 3.133,0 6.16,-0.461 9.016,-1.32 1.004,-1.559 1.886,-3.356 2.656,-5.325 1.187,-3.05 2.14,-6.621 2.812,-10.543 h 13.43 C 66.172,50.066 66.809,48.5 67.32,46.875 H 52.633 c 0.324,-2.996 0.492,-6.141 0.492,-9.375 0,-2.129 -0.074,-4.219 -0.215,-6.25 H 68.125 C 67.797,29.641 67.348,28.074 66.781,26.562 H 52.449 C 51.793,21.402 50.672,16.738 49.172,12.895 48.402,10.926 47.52,9.129 46.516,7.57 43.66,6.711 40.633,6.25 37.5,6.25 c -3.133,0 -6.16,0.461 -9.016,1.32 z M 27.277,26.562 C 27.902,21.973 28.91,17.895 30.199,14.598 31.32,11.723 32.605,9.559 33.93,8.152 35.242,6.758 36.445,6.25 37.5,6.25 c 1.055,0 2.258,0.508 3.57,1.902 1.325,1.407 2.614,3.571 3.735,6.446 1.285,3.297 2.293,7.375 2.918,11.964 z M 37.5,68.75 c 1.055,0 2.258,-0.508 3.57,-1.902 1.325,-1.407 2.614,-3.571 3.735,-6.446 0.984,-2.527 1.808,-5.515 2.422,-8.84 h -19.45 c 0.61,3.325 1.434,6.313 2.422,8.84 1.121,2.875 2.406,5.039 3.731,6.446 1.312,1.394 2.515,1.902 3.57,1.902 z M 26.562,37.5 c 0,3.273 0.184,6.422 0.52,9.375 h 20.836 c 0.34,-2.953 0.52,-6.102 0.52,-9.375 0,-2.145 -0.079,-4.234 -0.227,-6.25 H 26.789 c -0.148,2.016 -0.227,4.105 -0.227,6.25 z" transform="scale(1.3333333)" style="fill:url(#I1373bc3ea02342a5be6c2b448a55e64b20251106164749);fill-rule:evenodd;stroke:none" /> </g>
</svg>

