<?xml version="1.0" encoding="UTF-8" standalone="no"?> <svg version="1.1" id="Iaef2716c6e394c49a1e6096be6c2c6f220251106170411" width="100" height="100" viewBox="0 0 100 100" xmlns="http://www.w3.org/2000/svg" xmlns:svg="http://www.w3.org/2000/svg"> <defs id="Ic10a912602bd489a92b51bd9a5ba093b20251106170411" /> <g id="I0245ccb1121543468e2ab125d8d473e020251106170411"> <path id="If20f0091cf40487d8191e2fd8da8800e20251106170411" d="m 11.25,26.25 c 0,-4.141 3.359,-7.5 7.5,-7.5 h 37.5 c 4.141,0 7.5,3.359 7.5,7.5 v 7.152 C 63.098,32.898 62.445,32.301 61.793,31.602 61.281,31.055 60.668,30.637 60,30.367 V 26.25 C 60,24.18 58.32,22.5 56.25,22.5 H 18.75 C 16.68,22.5 15,24.18 15,26.25 V 45 c 0,2.07 1.68,3.75 3.75,3.75 h 22.508 v 0.504 l 0.015,0.953 v 0.031 c 0.024,0.766 0.079,1.52 0.161,2.262 H 18.75 c -4.141,0 -7.5,-3.359 -7.5,-7.5 z M 43.531,60 c -0.574,-1.191 -1.039,-2.445 -1.39,-3.75 H 9.375 C 8.34,56.25 7.5,57.09 7.5,58.125 7.5,59.16 8.34,60 9.375,60 Z m 14.598,7.5 c -0.141,0 -0.277,-0.023 -0.41,-0.07 -2.594,-0.93 -4.801,-2.157 -6.606,-3.676 L 51.105,63.75 c -1.3,-1.098 -2.398,-2.348 -3.285,-3.746 L 47.816,60 c -1.734,-2.73 -2.671,-6.031 -2.793,-9.883 l -0.015,-0.894 v -8.442 c 0,-0.777 0.586,-1.406 1.312,-1.406 4.016,0 7.625,-1.719 10.887,-5.215 0.254,-0.269 0.586,-0.41 0.922,-0.41 0.332,0 0.668,0.141 0.922,0.41 3.261,3.496 6.871,5.215 10.887,5.215 0.726,0 1.312,0.629 1.312,1.406 v 8.442 l -0.016,0.894 C 71.109,53.969 70.172,57.27 68.441,60 l -0.003,0.004 c -0.887,1.398 -1.985,2.648 -3.29,3.746 l -0.003,0.004 c -1.809,1.519 -4.012,2.746 -6.606,3.676 -0.133,0.047 -0.273,0.07 -0.41,0.07 z" style="fill:currentColor;fill-opacity:1;fill-rule:nonzero;stroke:none" transform="scale(1.3333333)" /> </g>
</svg>

