<?xml version="1.0" encoding="UTF-8" standalone="no"?> <svg version="1.1" id="I6f9c2bce464642dd96821a84c1fce8f820251106132945" width="100" height="100" viewBox="0 0 100 100" xmlns="http://www.w3.org/2000/svg" xmlns:svg="http://www.w3.org/2000/svg"> <defs id="Ib903e6466b1546309a15efcdef3ecc5e20251106132945" /> <g id="Ifb4276438966499397f5183e64b59b9c20251106132945"> <path id="If6c2304c49b74cad9b9ce0c24d2597e920251106132945" d="m 23.375,23.16 c -1.574,3.121 0.687,6.824 4.199,6.824 H 30 v 6.262 c 0,5.238 7.066,6.949 9.441,2.254 l 8.43,-16.676 c 0.512,-1.012 0.613,-2.086 0.402,-3.074 H 60 c 6.215,0 11.25,5.035 11.25,11.25 2.07,0 3.75,1.68 3.75,3.75 v 7.5 C 75,43.32 73.32,45 71.25,45 l -0.016,0.578 C 70.934,51.523 66.02,56.25 60,56.25 H 11.25 C 5.035,56.25 0,51.215 0,45 V 30 C 0,23.785 5.035,18.75 11.25,18.75 H 25.605 Z M 35.148,8.18 c 0.59,-1.16 2.344,-0.742 2.344,0.558 v 10.016 h 6.176 c 0.711,0 1.172,0.75 0.852,1.387 L 36.09,36.812 C 35.5,37.973 33.75,37.555 33.75,36.25 V 26.238 h -6.18 c -0.711,0 -1.172,-0.754 -0.851,-1.386 z" style="fill:currentColor;fill-opacity:1;fill-rule:nonzero;stroke:none" transform="scale(1.3333333)" /> </g>
</svg>

