<?xml version="1.0" encoding="UTF-8" standalone="no"?> <svg version="1.1" id="I923a13aef76748a1b7f06b0ec5ac299820251106170412" width="100" height="100" viewBox="0 0 100 100" xmlns="http://www.w3.org/2000/svg" xmlns:svg="http://www.w3.org/2000/svg"> <defs id="I00ebfe414476472fbc69de0c1541b6cd20251106170412" /> <g id="I7485db9998404f938501db00b7f5b66120251106170412"> <path id="I8c054efc3f644f819f1b7b7dba0bf3d720251106170412" d="m 59.375,23.438 c 0,1.624 -0.227,3.199 -0.648,4.687 h 5.066 c 2.738,0 4.957,2.219 4.957,4.957 v 15.356 c 0,11.218 -9.094,20.312 -20.312,20.312 -4.766,0 -9.145,-1.641 -12.61,-4.387 l -3.703,3.699 c -0.914,0.918 -2.398,0.918 -3.313,0 -0.914,-0.914 -0.914,-2.398 0,-3.312 l 3.7,-3.703 C 31.277,59.492 30.27,57.754 29.531,55.875 28.32,56.121 27.066,56.25 25.781,56.25 15.426,56.25 7.031,47.855 7.031,37.5 V 23.48 c 0,-2.613 2.117,-4.73 4.731,-4.73 h 13.886 c 2.04,-7.215 8.672,-12.5 16.54,-12.5 h 12.683 c 2.488,0 4.504,2.016 4.504,4.504 z M 30.383,19.32 c 5.293,1.336 9.695,4.922 12.117,9.688 1.879,-0.574 3.871,-0.883 5.938,-0.883 h 5.339 c 0.586,-1.449 0.911,-3.031 0.911,-4.687 v -12.5 h -12.5 c -5.461,0 -10.102,3.5 -11.805,8.382 z m 8.789,41.7 c 2.59,1.914 5.797,3.042 9.266,3.042 8.628,0 15.624,-6.996 15.624,-15.624 V 33.082 c 0,-0.148 -0.121,-0.27 -0.269,-0.27 H 48.438 c -8.629,0 -15.626,6.997 -15.626,15.626 0,3.468 1.129,6.675 3.043,9.265 l 13.27,-13.265 c 0.914,-0.918 2.398,-0.918 3.313,0 0.917,0.914 0.917,2.398 0,3.312 z M 28.125,48.438 c 0,-1.852 0.246,-3.645 0.711,-5.348 l -8.617,-8.621 c -0.918,-0.914 -0.918,-2.399 0,-3.313 0.914,-0.918 2.398,-0.918 3.312,0 l 7.242,7.242 c 1.774,-3.109 4.34,-5.703 7.422,-7.507 C 35.832,26.457 31.16,23.438 25.781,23.438 H 11.762 c -0.012,0 -0.016,0.003 -0.016,0.003 0,0 -0.008,0.004 -0.016,0.008 -0.003,0.008 -0.007,0.016 -0.007,0.016 0,0 -0.004,0.004 -0.004,0.015 V 37.5 c 0,7.766 6.297,14.062 14.062,14.062 0.871,0 1.723,-0.078 2.547,-0.23 -0.133,-0.945 -0.203,-1.91 -0.203,-2.894 z" style="fill:currentColor;fill-opacity:1;fill-rule:nonzero;stroke:none" transform="scale(1.3333333)" /> </g>
</svg>

