<?xml version="1.0" encoding="UTF-8" standalone="no"?> <svg version="1.1" id="Ic0a944a9bd664cc48b041fb17b3a0a3d20251106155156" width="100" height="100" viewBox="0 0 100 100" xmlns="http://www.w3.org/2000/svg" xmlns:svg="http://www.w3.org/2000/svg"> <defs id="Iefc4e2d3174941a3a4e63669a6acfa6b20251106155156" /> <g id="I480ca03704b443c1b622a779a5b12d6d20251106155156"> <path id="Ibe73841005d04dee9da36378e5a7ec9720251106155156" d="m 21.094,4.688 c -5.176,0 -9.375,4.199 -9.375,9.374 v 46.876 c 0,5.175 4.199,9.374 9.375,9.374 h 14.101 c -1.66,-1.046 -2.886,-2.718 -3.351,-4.687 h -10.75 c -2.59,0 -4.688,-2.098 -4.688,-4.687 V 14.062 c 0,-2.589 2.098,-4.687 4.688,-4.687 h 32.812 c 2.59,0 4.688,2.098 4.688,4.687 v 22.266 h 1.172 c 1.257,0 2.449,0.281 3.515,0.789 V 14.062 c 0,-5.175 -4.199,-9.374 -9.375,-9.374 z M 53.906,16.992 V 36.328 H 49.219 V 18.75 H 25.781 v 37.5 h 5.86 v 4.688 h -7.618 c -1.617,0 -2.929,-1.313 -2.929,-2.93 V 16.992 c 0,-1.617 1.312,-2.93 2.929,-2.93 h 26.954 c 1.617,0 2.929,1.313 2.929,2.93 z m -8.203,22.852 c -2.59,0 -4.687,2.097 -4.687,4.687 v 2.344 H 40.43 c -2.914,0 -5.274,2.359 -5.274,5.273 v 11.719 c 0,2.266 1.836,4.102 4.102,4.102 h 1.758 c 0,2.59 2.097,4.687 4.687,4.687 h 14.063 c 2.589,0 4.687,-2.097 4.687,-4.687 h 1.758 c 2.266,0 4.101,-1.836 4.101,-4.102 V 52.148 c 0,-2.914 -2.359,-5.273 -5.273,-5.273 h -0.586 v -2.344 c 0,-2.59 -2.098,-4.687 -4.687,-4.687 z m -1.172,7.031 v -2.344 c 0,-0.648 0.524,-1.172 1.172,-1.172 h 14.063 c 0.648,0 1.172,0.524 1.172,1.172 v 2.344 z m 0,15.234 c 0,-0.648 0.524,-1.171 1.172,-1.171 h 14.063 c 0.648,0 1.172,0.523 1.172,1.171 v 5.86 c 0,0.648 -0.524,1.172 -1.172,1.172 H 45.703 c -0.648,0 -1.172,-0.524 -1.172,-1.172 z" style="fill:currentColor;fill-opacity:1;fill-rule:nonzero;stroke:none" transform="scale(1.3333333)" /> </g>
</svg>

