<?xml version="1.0" encoding="UTF-8" standalone="no"?> <svg version="1.1" id="Ia193f0d553fc4b43af75ea7be2686f9e20251106170955" width="100" height="100" viewBox="0 0 100 100" xmlns="http://www.w3.org/2000/svg" xmlns:svg="http://www.w3.org/2000/svg"> <defs id="Ib330cab91be7412f81dca42b5e7a2f2b20251106170955" /> <g id="I01d1621c4c9441b78f7a758e8a033b9e20251106170955"> <path id="I149973fa42f54959842295c574445acb20251106170955" d="m 56.062,52.332 c 10.25,-10.258 10.25,-26.883 0,-37.141 -10.253,-10.253 -26.871,-10.253 -37.124,0 -10.25,10.258 -10.25,26.883 0,37.141 l 5.703,5.621 7.664,7.442 0.496,0.441 c 2.906,2.355 7.16,2.211 9.898,-0.438 l 9.133,-8.89 z M 45.551,31.324 39.375,25.152 V 43.125 C 39.375,44.16 38.535,45 37.5,45 36.465,45 35.625,44.16 35.625,43.125 V 25.152 l -6.176,6.172 c -0.73,0.735 -1.918,0.735 -2.648,0 -0.735,-0.73 -0.735,-1.918 0,-2.648 l 9.375,-9.375 c 0.351,-0.352 0.828,-0.551 1.324,-0.551 0.496,0 0.973,0.199 1.324,0.551 l 9.375,9.375 c 0.735,0.73 0.735,1.918 0,2.648 -0.73,0.735 -1.918,0.735 -2.648,0 z" style="fill:currentColor;fill-opacity:1;fill-rule:nonzero;stroke:none" transform="scale(1.3333333)" /> </g>
</svg>

