<?xml version="1.0" encoding="UTF-8" standalone="no"?> <svg version="1.1" id="I4892bd184cc540dca4977db3c93a2ae720251110124420" width="100" height="100" viewBox="0 0 100 100" xmlns="http://www.w3.org/2000/svg" xmlns:svg="http://www.w3.org/2000/svg"> <defs id="Ie3959757f42d4c928cad6be7cd9c3ac820251110124420" /> <g id="I84f79caa2673489898199ef59f7d9fc120251110124420"> <path id="I5bd87a8dd94e4ae1a64ed6f65a94ee6420251110124420" d="M 18.75,9.375 C 18.75,7.648 17.352,6.25 15.625,6.25 13.898,6.25 12.5,7.648 12.5,9.375 v 56.25 c 0,1.727 1.398,3.125 3.125,3.125 1.727,0 3.125,-1.398 3.125,-3.125 z m 43.75,0 C 62.5,7.648 61.102,6.25 59.375,6.25 57.648,6.25 56.25,7.648 56.25,9.375 v 56.25 c 0,1.727 1.398,3.125 3.125,3.125 1.727,0 3.125,-1.398 3.125,-3.125 z m -21.875,0 c 0,-1.727 -1.398,-3.125 -3.125,-3.125 -1.727,0 -3.125,1.398 -3.125,3.125 v 9.375 c 0,1.727 1.398,3.125 3.125,3.125 1.727,0 3.125,-1.398 3.125,-3.125 z m -6.25,32.813 c 0,1.726 1.398,3.124 3.125,3.124 1.727,0 3.125,-1.398 3.125,-3.124 v -9.376 c 0,-1.726 -1.398,-3.124 -3.125,-3.124 -1.727,0 -3.125,1.398 -3.125,3.124 z m 0,14.062 c 0,-1.727 1.398,-3.125 3.125,-3.125 1.727,0 3.125,1.398 3.125,3.125 v 9.375 c 0,1.727 -1.398,3.125 -3.125,3.125 -1.727,0 -3.125,-1.398 -3.125,-3.125 z" style="fill:currentColor;fill-opacity:1;fill-rule:nonzero;stroke:none" transform="scale(1.3333333)" /> </g>
</svg>

