<?xml version="1.0" encoding="UTF-8" standalone="no"?> <svg version="1.1" id="I5def6cbca6e145ec9fb5733c0078db3320251106161453" width="100" height="100" viewBox="0 0 100 100" xmlns="http://www.w3.org/2000/svg" xmlns:svg="http://www.w3.org/2000/svg"> <defs id="I04d942420eab40cc8c78ae62c20ecacb20251106161453" /> <g id="Ib407f52f4b7c4f8eb58484cd28f22ca420251106161453"> <path id="Idb71758e704d4d6bb01897dff6a288fd20251106161453" d="M 19.27,10.219 C 24.668,6.613 31.012,4.688 37.5,4.688 c 8.703,0 17.047,3.457 23.203,9.609 6.152,6.156 9.609,14.5 9.609,23.203 0,6.488 -1.925,12.832 -5.531,18.23 -3.605,5.395 -8.73,9.602 -14.722,12.086 -5.997,2.481 -12.594,3.133 -18.961,1.868 C 24.734,68.414 18.887,65.289 14.297,60.703 9.711,56.113 6.586,50.266 5.316,43.902 4.051,37.535 4.703,30.938 7.184,24.941 9.668,18.949 13.875,13.824 19.27,10.219 Z m 0.183,38.062 c -1.875,2.508 -1.289,7.289 -0.914,9.938 4.535,4.179 10.328,6.738 16.469,7.281 6.144,0.543 12.293,-0.965 17.492,-4.281 -1.102,-0.578 -2.066,-1.379 -2.836,-2.36 -0.766,-0.976 -1.316,-2.105 -1.617,-3.312 -0.844,-4.195 1.945,-6.82 4.055,-8.766 2.109,-1.945 2.601,-2.672 2.343,-3.562 -0.578,0.074 -1.148,0.191 -1.711,0.351 -0.777,0.36 -1.636,0.508 -2.488,0.438 -0.855,-0.07 -1.676,-0.356 -2.387,-0.836 -0.468,-0.484 -0.808,-1.082 -0.98,-1.734 -0.172,-0.653 -0.172,-1.34 -0.004,-1.993 0.063,-1.254 -0.125,-2.507 -0.559,-3.687 -0.429,-1.18 -1.093,-2.262 -1.949,-3.18 -1.57,-2.226 -3.937,-5.601 -0.703,-8.531 3.383,-3.031 6.348,-6.496 8.813,-10.313 C 48,10.891 42.805,9.375 37.5,9.375 h -0.867 l 0.117,0.422 c 0.047,0.082 0.09,0.168 0.137,0.25 1.957,3.562 4.074,7.422 2.793,12.758 -1.024,4.273 -5.012,5.625 -7.981,6.629 l -0.082,0.027 c -1.019,0.266 -1.988,0.684 -2.883,1.242 -1.172,1.57 -0.843,3.141 -0.234,5.485 0.48,1.167 0.695,2.425 0.633,3.687 -0.067,1.258 -0.41,2.488 -1.008,3.602 -0.527,0.769 -1.227,1.406 -2.039,1.867 -0.813,0.457 -1.719,0.726 -2.648,0.781 -0.793,-0.008 -1.575,0.187 -2.27,0.566 -0.695,0.375 -1.285,0.922 -1.715,1.59 z" style="fill:currentColor;fill-opacity:1;fill-rule:nonzero;stroke:none" transform="scale(1.3333333)" /> </g>
</svg>

