<?xml version="1.0" encoding="UTF-8" standalone="no"?> <svg version="1.1" id="I29227aa0ac2a47ad856be6d8a9111e6b20251106165302" width="100" height="100" viewBox="0 0 100 100" xmlns="http://www.w3.org/2000/svg" xmlns:svg="http://www.w3.org/2000/svg"> <defs id="I2797676cfe2645d6a4277e950d4a235d20251106165302" /> <g id="I332f91996cb54e10b5bdae7ef7ad1cf020251106165302"> <path id="I56a604a3c8d44d7a8690ecbd074ceb6020251106165302" d="m 61.59,16.094 c 2.426,1.539 4.035,4.254 4.035,7.344 v 28.124 c 0,7.766 -6.297,14.063 -14.063,14.063 H 23.438 c -3.09,0 -5.805,-1.609 -7.352,-4.039 l 0.328,0.016 0.328,0.003 h 34.82 c 5.547,0 10.043,-4.496 10.043,-10.043 v -34.82 c 0,-0.219 -0.003,-0.433 -0.015,-0.648 z m -26.949,21.804 0.25,0.207 19.894,19.536 c -1.328,0.816 -2.89,1.289 -4.562,1.289 H 16.742 c -1.676,0 -3.238,-0.473 -4.562,-1.289 l 19.894,-19.536 0.223,-0.191 c 0.609,-0.441 1.41,-0.504 2.07,-0.18 z M 50.223,8.035 c 4.808,0 8.707,3.899 8.707,8.707 v 33.481 c 0,1.679 -0.477,3.25 -1.301,4.578 L 37.703,35.238 37.359,34.926 c -2.23,-1.879 -5.5,-1.883 -7.738,-0.016 L 29.258,35.238 9.336,54.801 C 8.512,53.473 8.035,51.902 8.035,50.223 V 16.742 c 0,-4.808 3.899,-8.707 8.707,-8.707 z m -6.028,11.383 c -1.847,0 -3.347,1.5 -3.347,3.348 0,1.847 1.5,3.347 3.347,3.347 1.848,0 3.344,-1.5 3.344,-3.347 0,-1.848 -1.496,-3.348 -3.344,-3.348 z" style="fill:currentColor;fill-opacity:1;fill-rule:nonzero;stroke:none" transform="scale(1.3333333)" /> </g>
</svg>

