<?xml version="1.0" encoding="UTF-8" standalone="no"?> <svg version="1.1" id="Ie5208c69d7c148c7a736ce12ac67fbd820251106142136" width="100" height="100" viewBox="0 0 100 100" xmlns="http://www.w3.org/2000/svg" xmlns:svg="http://www.w3.org/2000/svg"> <defs id="Iea814c0a3ad7412ca47fb7f9c0860fb920251106142136" /> <g id="I8d23782bf6074b8c8022ba6aa1435fe820251106142136"> <path id="Icca89118a8994a50bba0254f2dc383a420251106142136" d="m 23.438,35.938 v -6.25 h 28.124 v 6.25 z M 12.5,9.375 c -3.453,0 -6.25,2.797 -6.25,6.25 0,2.313 1.258,4.332 3.125,5.414 v 42.242 c 0,1.293 1.051,2.344 2.344,2.344 H 18.75 V 49.219 c 0,-1.293 1.051,-2.344 2.344,-2.344 h 12.5 c 1.293,0 2.344,1.051 2.344,2.344 v 16.406 h 27.343 c 1.293,0 2.344,-1.051 2.344,-2.344 V 21.039 c 1.867,-1.082 3.125,-3.101 3.125,-5.414 0,-3.453 -2.797,-6.25 -6.25,-6.25 z m -1.562,6.25 c 0,-0.863 0.699,-1.563 1.562,-1.563 h 50 c 0.863,0 1.562,0.7 1.562,1.563 0,0.863 -0.699,1.563 -1.562,1.563 h -50 c -0.863,0 -1.562,-0.7 -1.562,-1.563 z M 21.094,25 h 32.812 c 1.293,0 2.344,1.051 2.344,2.344 v 10.937 c 0,1.293 -1.051,2.344 -2.344,2.344 H 21.094 c -1.293,0 -2.344,-1.051 -2.344,-2.344 V 27.344 C 18.75,26.051 19.801,25 21.094,25 Z m 25,21.875 h 7.812 c 1.293,0 2.344,1.051 2.344,2.344 v 7.812 c 0,1.293 -1.051,2.344 -2.344,2.344 h -7.812 c -1.293,0 -2.344,-1.051 -2.344,-2.344 v -7.812 c 0,-1.293 1.051,-2.344 2.344,-2.344 z M 31.25,51.562 V 65.625 H 23.438 V 51.562 Z" style="fill:currentColor;fill-opacity:1;fill-rule:nonzero;stroke:none" transform="scale(1.3333333)" /> </g>
</svg>

