<svg version="1.2" xmlns="http://www.w3.org/2000/svg" viewBox="0 0 100 100" width="100" height="100">
	<title>New Project</title>
	<style>
		.C09051a835b02496c9f628c2d4a69610820251030155105 { fill: currentcolor } 
		.Cd0b14ac95df741b387a415f830d533d520251030155105 { fill: none;stroke: currentcolor;stroke-miterlimit:100;stroke-width: 10 } 
	</style>
	<path id="I29309e1f6e40438c99fb165e4db4c66f20251030155105" fill-rule="evenodd" class="C09051a835b02496c9f628c2d4a69610820251030155105" d="m31.25 58c-2.63 0-4.75-2.12-4.75-4.75 0-2.63 2.12-4.75 4.75-4.75 2.63 0 4.75 2.12 4.75 4.75 0 2.63-2.12 4.75-4.75 4.75z"/>
	<path id="I151dc1b276854c949a67670063d650be20251030155105" fill-rule="evenodd" class="C09051a835b02496c9f628c2d4a69610820251030155105" d="m69.25 58c-2.63 0-4.75-2.12-4.75-4.75 0-2.63 2.12-4.75 4.75-4.75 2.63 0 4.75 2.12 4.75 4.75 0 2.63-2.12 4.75-4.75 4.75z"/>
	<path id="I15586a000b764dbaac765d231eee4b5d20251030155105" fill-rule="evenodd" class="C09051a835b02496c9f628c2d4a69610820251030155105" d="m69.25 74c-2.63 0-4.75-2.12-4.75-4.75 0-2.63 2.12-4.75 4.75-4.75 2.63 0 4.75 2.12 4.75 4.75 0 2.63-2.12 4.75-4.75 4.75z"/>
	<path id="I485fe42d00c341409b43527da89caa6720251030155105" fill-rule="evenodd" class="C09051a835b02496c9f628c2d4a69610820251030155105" d="m50.25 58c-2.63 0-4.75-2.12-4.75-4.75 0-2.63 2.12-4.75 4.75-4.75 2.63 0 4.75 2.12 4.75 4.75 0 2.63-2.12 4.75-4.75 4.75z"/>
	<path id="Ibbdbcdcbade84e62bfa90bbcac0e564320251030155105" fill-rule="evenodd" class="C09051a835b02496c9f628c2d4a69610820251030155105" d="m50.25 74c-2.63 0-4.75-2.12-4.75-4.75 0-2.63 2.12-4.75 4.75-4.75 2.63 0 4.75 2.12 4.75 4.75 0 2.63-2.12 4.75-4.75 4.75z"/>
	<path id="Iefaa5ce956f242b08487c78ba8799ab520251030155105" fill-rule="evenodd" class="Cd0b14ac95df741b387a415f830d533d520251030155105" d="m18 4h64c7.18 0 13 5.82 13 13v66c0 7.18-5.82 13-13 13h-64c-7.18 0-13-5.82-13-13v-66c0-7.18 5.82-13 13-13z"/>
	<path id="I152e0ce84a9f45c78ae5442bf5eee17920251030155105" fill-rule="evenodd" class="Cd0b14ac95df741b387a415f830d533d520251030155105" d="m96 30v1h-92v-1z"/>
</svg>







