<svg version="1.2" xmlns="http://www.w3.org/2000/svg" viewBox="0 0 100 100" width="100" height="100">
	<title>New Project</title>
	<style>
		.C9f5d1bc104c442b196ec6f859841509a20251030150142 { fill: currentcolor } 
		.C8f6d515684b84d7282000c1d42fc3cad20251030150142 { fill: none;stroke: currentcolor;stroke-miterlimit:100;stroke-width: 10 } 
	</style>
	<path id="Idacc7406ce28428f924687aa6be3d37420251030150142" fill-rule="evenodd" class="C9f5d1bc104c442b196ec6f859841509a20251030150142" d="m31.25 58c-2.63 0-4.75-2.12-4.75-4.75 0-2.63 2.12-4.75 4.75-4.75 2.63 0 4.75 2.12 4.75 4.75 0 2.63-2.12 4.75-4.75 4.75z"/>
	<path id="I31d7328f20434eecbaeac4fdb94538dc20251030150142" fill-rule="evenodd" class="C9f5d1bc104c442b196ec6f859841509a20251030150142" d="m69.25 58c-2.63 0-4.75-2.12-4.75-4.75 0-2.63 2.12-4.75 4.75-4.75 2.63 0 4.75 2.12 4.75 4.75 0 2.63-2.12 4.75-4.75 4.75z"/>
	<path id="I2dea17b0aa7a45e89837cd5d4b63515820251030150142" fill-rule="evenodd" class="C9f5d1bc104c442b196ec6f859841509a20251030150142" d="m69.25 74c-2.63 0-4.75-2.12-4.75-4.75 0-2.63 2.12-4.75 4.75-4.75 2.63 0 4.75 2.12 4.75 4.75 0 2.63-2.12 4.75-4.75 4.75z"/>
	<path id="Ib358491641f944a89fd106beb9ce936a20251030150142" fill-rule="evenodd" class="C9f5d1bc104c442b196ec6f859841509a20251030150142" d="m50.25 58c-2.63 0-4.75-2.12-4.75-4.75 0-2.63 2.12-4.75 4.75-4.75 2.63 0 4.75 2.12 4.75 4.75 0 2.63-2.12 4.75-4.75 4.75z"/>
	<path id="Icd34a46d70ef49578e7b72a95662a14f20251030150142" fill-rule="evenodd" class="C9f5d1bc104c442b196ec6f859841509a20251030150142" d="m50.25 74c-2.63 0-4.75-2.12-4.75-4.75 0-2.63 2.12-4.75 4.75-4.75 2.63 0 4.75 2.12 4.75 4.75 0 2.63-2.12 4.75-4.75 4.75z"/>
	<path id="I454179f82a2c47168579fa8727db4ae220251030150142" fill-rule="evenodd" class="C8f6d515684b84d7282000c1d42fc3cad20251030150142" d="m18 4h64c7.18 0 13 5.82 13 13v66c0 7.18-5.82 13-13 13h-64c-7.18 0-13-5.82-13-13v-66c0-7.18 5.82-13 13-13z"/>
	<path id="I12c66a2e8ed849a0b334325333b8201c20251030150142" fill-rule="evenodd" class="C8f6d515684b84d7282000c1d42fc3cad20251030150142" d="m96 30v1h-92v-1z"/>
</svg>






