<?xml version="1.0" encoding="UTF-8" standalone="no"?> <svg version="1.1" id="I51dd2ed1a28947b9b64f057a5d59b3d520251110124421" width="100" height="100" viewBox="0 0 100 100" xmlns="http://www.w3.org/2000/svg" xmlns:svg="http://www.w3.org/2000/svg"> <defs id="Ie1b605548e6246f1b7515bb21bf7cc6020251110124421" /> <g id="Ia7c263c6fbb14119bfd8cb4a9314818a20251110124421"> <path id="I16aee5f81db54a71944c02a9dc27872b20251110124421" d="m 19.531,9.375 c -5.609,0 -10.156,4.547 -10.156,10.156 v 28.125 c 0,5.61 4.547,10.156 10.156,10.156 h 28.125 c 5.61,0 10.156,-4.546 10.156,-10.156 V 19.531 c 0,-5.609 -4.546,-10.156 -10.156,-10.156 z m -5.469,10.156 c 0,-3.019 2.45,-5.469 5.469,-5.469 h 28.125 c 3.02,0 5.469,2.45 5.469,5.469 v 28.125 c 0,3.02 -2.449,5.469 -5.469,5.469 H 19.531 c -3.019,0 -5.469,-2.449 -5.469,-5.469 z m 4.723,41.407 c 1.805,2.82 4.961,4.687 8.559,4.687 h 21.875 c 9.062,0 16.406,-7.344 16.406,-16.406 V 27.344 c 0,-3.594 -1.867,-6.754 -4.687,-8.559 v 30.434 c 0,6.472 -5.247,11.719 -11.719,11.719 z" style="fill:currentColor;fill-opacity:1;fill-rule:nonzero;stroke:none" transform="scale(1.3333333)" /> </g>
</svg>

