<?xml version="1.0" encoding="UTF-8" standalone="no"?> <svg version="1.1" id="I9f00a04bba7a4ba4b8bb1b7c773f6fc420251106142135" width="100" height="100" viewBox="0 0 100 100" xmlns="http://www.w3.org/2000/svg" xmlns:svg="http://www.w3.org/2000/svg"> <defs id="I01494deaca3f492bb944174067021c8b20251106142135"> <linearGradient x1="12.1739" y1="20.4" x2="12.1739" y2="18" gradientUnits="userSpaceOnUse" gradientTransform="scale(3.125)" spreadMethod="pad" id="Ibefe81957e05416eabda562fd189508e20251106142135"> <stop style="stop-opacity:1;stop-color:#9deaff" offset="0" id="I0f6074bdf2d645318a789a7dcaa6a5c920251106142135" /> <stop style="stop-opacity:1;stop-color:#58aafe" offset="0.715705" id="I8efbd28f1d5a411097ce52dd5b72898f20251106142135" /> <stop style="stop-opacity:1;stop-color:#58aafe" offset="1" id="I1293ca3543ee4a09b0b6ddc232e1198120251106142135" /> </linearGradient> <linearGradient x1="9.6929502" y1="5.7421098" x2="12.6806" y2="27.308001" gradientUnits="userSpaceOnUse" gradientTransform="scale(3.125)" spreadMethod="pad" id="Ibce923bfb89c45c7b861937b78c4845d20251106142135"> <stop style="stop-opacity:1;stop-color:#20ac9d" offset="0" id="I9c3cc52d7b5649a09c1db6ede64406ef20251106142135" /> <stop style="stop-opacity:1;stop-color:#2052cb" offset="1" id="I409bda5e9f664802b8724c5c9a68596020251106142135" /> </linearGradient> <radialGradient fx="0" fy="0" cx="0" cy="0" r="1" gradientUnits="userSpaceOnUse" gradientTransform="matrix(12.499998,10.937489,-4.071306,4.652925,37.5,39.0625)" spreadMethod="pad" id="I9567bf204d464281b4437645be04484f20251106142135"> <stop style="stop-opacity:0.29999237;stop-color:#171155" offset="0" id="I4d5620806979497c95e57b44a9c25dfb20251106142135" /> <stop style="stop-opacity:0;stop-color:#4a43cb" offset="1" id="I9b1e6631ef854844b39a350d5c67080e20251106142135" /> </radialGradient> <radialGradient fx="0" fy="0" cx="0" cy="0" r="1" gradientUnits="userSpaceOnUse" gradientTransform="matrix(13.867177,-11.718756,6.556949,7.759047,43.75,37.5)" spreadMethod="pad" id="Ifbfbb67f45224841a821fe2846fd90e520251106142135"> <stop style="stop-opacity:0.29999237;stop-color:#171155" offset="0" id="I3b6fa98a21374674b29d76c43775776420251106142135" /> <stop style="stop-opacity:0;stop-color:#4a43cb" offset="1" id="I2ad103de8c864fb5bfb0771e1e50fa5e20251106142135" /> </radialGradient> <radialGradient fx="0" fy="0" cx="0" cy="0" r="1" gradientUnits="userSpaceOnUse" gradientTransform="matrix(-10.937543,9.374939,-4.268942,-4.980484,37.5,40.625)" spreadMethod="pad" id="I43e8a97dd8384c88ae87409a652032cf20251106142135"> <stop style="stop-opacity:0.29999237;stop-color:#171155" offset="0" id="I3630c964692c45aa8e4c0e24687b5ed020251106142135" /> <stop style="stop-opacity:0;stop-color:#4a43cb" offset="1" id="I42749ac054584f9eb799022d94a9d50a20251106142135" /> </radialGradient> <linearGradient x1="10.8928" y1="7.6549101" x2="13.6473" y2="17.2889" gradientUnits="userSpaceOnUse" gradientTransform="scale(3.125)" spreadMethod="pad" id="I60b4cccd007d47c0a44d8a6157a051ec20251106142135"> <stop style="stop-opacity:1;stop-color:#ffe06b" offset="0" id="I4784e42792be470f939be56f6806268520251106142135" /> <stop style="stop-opacity:1;stop-color:#ff835c" offset="1" id="If53e385b414e409481b5ad1ab6ec921720251106142135" /> </linearGradient> </defs> <g id="I9ca463ca86b44b6ead93e41a595dcb4320251106142135"> <path id="I008fb7bf17a34af2ab2bf5c565c75eb920251106142135" d="m 15.625,59.375 h 47.754 c 0,0 -0.879,1.563 -0.879,3.125 0,1.562 0.879,3.125 0.879,3.125 H 18.75 c -1.727,0 -3.125,-1.398 -3.125,-3.125 z" transform="scale(1.3333333)" style="fill:url(#Ibefe81957e05416eabda562fd189508e20251106142135);stroke:none" /> <path id="I8a66e1d7e5a14021a9f61da2af5c644420251106142135" d="M 12.5,14.062 C 12.5,9.746 15.996,6.25 20.312,6.25 H 56.25 c 4.316,0 7.812,3.496 7.812,7.812 v 44.532 c 0,1.293 -1.05,2.344 -2.343,2.344 H 17.188 c 0,1.726 1.398,3.124 3.124,3.124 h 41.407 c 1.293,0 2.343,1.051 2.343,2.344 0,1.293 -1.05,2.344 -2.343,2.344 H 20.312 c -4.316,0 -7.812,-3.496 -7.812,-7.812 z" transform="scale(1.3333333)" style="fill:url(#Ibce923bfb89c45c7b861937b78c4845d20251106142135);stroke:none" /> <path d="M 12.5,14.062 C 12.5,9.746 15.996,6.25 20.312,6.25 H 56.25 c 4.316,0 7.812,3.496 7.812,7.812 v 44.532 c 0,1.293 -1.05,2.344 -2.343,2.344 H 17.188 c 0,1.726 1.398,3.124 3.124,3.124 h 41.407 c 1.293,0 2.343,1.051 2.343,2.344 0,1.293 -1.05,2.344 -2.343,2.344 H 20.312 c -4.316,0 -7.812,-3.496 -7.812,-7.812 z" transform="scale(1.3333333)" style="fill:url(#I9567bf204d464281b4437645be04484f20251106142135);stroke:none" opacity="1" id="I8efe28a533384d41ad9d75cd3cf8259220251106142135" /> <path d="M 12.5,14.062 C 12.5,9.746 15.996,6.25 20.312,6.25 H 56.25 c 4.316,0 7.812,3.496 7.812,7.812 v 44.532 c 0,1.293 -1.05,2.344 -2.343,2.344 H 17.188 c 0,1.726 1.398,3.124 3.124,3.124 h 41.407 c 1.293,0 2.343,1.051 2.343,2.344 0,1.293 -1.05,2.344 -2.343,2.344 H 20.312 c -4.316,0 -7.812,-3.496 -7.812,-7.812 z" transform="scale(1.3333333)" style="fill:url(#Ifbfbb67f45224841a821fe2846fd90e520251106142135);stroke:none" opacity="1" id="I7a9563f9671e4c2ca34491d7bb65b68a20251106142135" /> <path d="M 12.5,14.062 C 12.5,9.746 15.996,6.25 20.312,6.25 H 56.25 c 4.316,0 7.812,3.496 7.812,7.812 v 44.532 c 0,1.293 -1.05,2.344 -2.343,2.344 H 17.188 c 0,1.726 1.398,3.124 3.124,3.124 h 41.407 c 1.293,0 2.343,1.051 2.343,2.344 0,1.293 -1.05,2.344 -2.343,2.344 H 20.312 c -4.316,0 -7.812,-3.496 -7.812,-7.812 z" transform="scale(1.3333333)" style="fill:url(#I43e8a97dd8384c88ae87409a652032cf20251106142135);stroke:none" opacity="1" id="Ib9cd48efd49d4126b80eea84126cae4020251106142135" /> <path id="I978f076cb7f74391a18e990c99205d7b20251106142135" d="m 32.941,26.898 3.442,-6.968 c 0.777,-1.575 3.023,-1.575 3.797,0 l 3.441,6.968 7.688,1.118 c 1.738,0.254 2.433,2.39 1.175,3.613 l -5.566,5.426 1.316,7.656 c 0.297,1.73 -1.519,3.051 -3.074,2.234 l -6.879,-3.617 -6.879,3.617 c -1.554,0.817 -3.371,-0.504 -3.074,-2.234 l 1.317,-7.656 -5.567,-5.426 C 22.82,30.406 23.516,28.27 25.254,28.016 Z" transform="scale(1.3333333)" style="fill:url(#I60b4cccd007d47c0a44d8a6157a051ec20251106142135);stroke:none" /> </g>
</svg>

