<?xml version="1.0" encoding="UTF-8" standalone="no"?> <svg version="1.1" id="I8e672da72be54238b0ead4fda40f56cb20251106112458" width="100" height="100" viewBox="0 0 100 100" xmlns="http://www.w3.org/2000/svg" xmlns:svg="http://www.w3.org/2000/svg"> <defs id="I557bee8d6ea44829853035b5feef553b20251106112458" /> <g id="I66f6432ee70b41d5888427f1f7738e5920251106112458"> <path id="Ic51d3b4ac67748728e4f15fc8cd86ecc20251106112458" d="M 66.176,25.664 C 65.348,22.367 67.008,17.109 72.32,15.25 l -5.683,-0.301 c 0,0 -2.149,-7.531 -12.02,-8.203 -9.859,-0.676 -16.312,-0.25 -16.32,-0.25 0.008,0 7.312,4.652 4.383,12.949 -2.141,4.395 -5.508,8 -9.106,12.114 -0.109,0.105 -0.211,0.214 -0.293,0.308 C 21.379,45.285 2.68,66.629 2.68,66.629 23.262,72.02 37.055,66.102 45.219,59.004 46.934,58.988 48.223,58.98 49.094,58.98 60.461,58.98 70.07,49.137 69.676,38.188 69.41,30.66 67.008,28.961 66.176,25.664 Z M 49.094,53.621 c -0.887,0 -2.196,0.008 -3.918,0.027 l -1.977,0.016 -1.488,1.297 c -3.941,3.434 -8.738,5.984 -14.348,7.332 -4.394,1.055 -9.207,1.355 -14.457,0.805 1.508,-1.715 3.055,-3.485 4.637,-5.282 7.703,-8.757 14.551,-16.531 19.832,-22.476 l 0.117,-0.117 0.11,-0.125 c 0.343,-0.387 1.722,-1.95 2.066,-2.352 0.812,-0.93 1.449,-1.668 2.051,-2.394 2.57,-3.071 4.371,-5.676 5.777,-8.555 l 0.133,-0.277 0.101,-0.286 c 1.145,-3.246 1.29,-6.433 0.516,-9.441 1.887,0.059 3.895,0.16 6.004,0.301 2.785,0.195 4.645,1.082 5.949,2.445 0.489,0.504 0.856,1.047 1.125,1.566 0.082,0.168 0.141,0.301 0.192,0.418 l 0.418,1.481 c -1.313,2.891 -1.664,6.137 -0.954,8.973 0.25,0.988 0.579,1.875 1.028,2.882 0.176,0.391 0.797,1.68 0.922,1.95 0.863,1.898 1.289,3.597 1.398,6.586 0.277,7.917 -6.922,15.226 -15.234,15.226 z" style="fill:currentColor;fill-opacity:1;fill-rule:nonzero;stroke:none" transform="scale(1.3333333)" /> </g>
</svg>

