<?xml version="1.0" encoding="UTF-8" standalone="no"?> <svg version="1.1" id="I1b287e505bd045a1b5b0d53bf15ae8e120251106132945" width="100" height="100" viewBox="0 0 100 100" xmlns="http://www.w3.org/2000/svg" xmlns:svg="http://www.w3.org/2000/svg"> <defs id="Ie6a6ab54e88b46e1bc66bbc823cdd75e20251106132945" /> <g id="I76ac82537cec4de9b7fac6a49015d5aa20251106132945"> <path id="I80f29e50356a4b6a99c228624afe63fe20251106132945" d="m 35.82,6.43 c 0.879,-0.364 1.887,-0.164 2.555,0.508 L 54,22.562 c 0.465,0.461 0.711,1.098 0.688,1.75 -0.028,0.657 -0.329,1.27 -0.825,1.692 L 40.336,37.5 53.863,48.996 c 0.496,0.422 0.797,1.035 0.825,1.692 0.023,0.652 -0.223,1.289 -0.688,1.75 L 38.375,68.062 c -0.668,0.672 -1.676,0.872 -2.555,0.508 -0.875,-0.363 -1.445,-1.215 -1.445,-2.164 V 42.57 l -11.762,9.996 c -0.988,0.84 -2.468,0.719 -3.304,-0.265 -0.84,-0.989 -0.719,-2.469 0.265,-3.305 L 33.102,37.5 19.574,26.004 c -0.984,-0.836 -1.105,-2.316 -0.265,-3.305 0.836,-0.984 2.316,-1.105 3.304,-0.265 l 11.762,10 V 8.594 c 0,-0.949 0.57,-1.801 1.445,-2.164 z m 3.242,36.14 v 18.18 l 9.829,-9.828 z m 0,-10.136 9.829,-8.356 -9.829,-9.824 z M 62.5,37.5 c 0,1.727 -1.398,3.125 -3.125,3.125 -1.727,0 -3.125,-1.398 -3.125,-3.125 0,-1.727 1.398,-3.125 3.125,-3.125 1.727,0 3.125,1.398 3.125,3.125 z m -46.875,3.125 c 1.727,0 3.125,-1.398 3.125,-3.125 0,-1.727 -1.398,-3.125 -3.125,-3.125 -1.727,0 -3.125,1.398 -3.125,3.125 0,1.727 1.398,3.125 3.125,3.125 z" style="fill:currentColor;fill-opacity:1;fill-rule:nonzero;stroke:none" transform="scale(1.3333333)" /> </g>
</svg>

