<?xml version="1.0" encoding="UTF-8" standalone="no"?> <svg version="1.1" id="I096c6608b2f04ee994a4788f507e626e20251110130510" width="100" height="100" viewBox="0 0 100 100" xmlns="http://www.w3.org/2000/svg" xmlns:svg="http://www.w3.org/2000/svg"> <defs id="Ic6a63195b6a148cb9b8e933495a0bf1920251110130510" /> <g id="I03986f81922a4c49bec856d19846e13820251110130510"> <path id="Ifde5343d76be495ba0b117097d874be420251110130510" d="m 18.75,68.75 c -1.727,0 -3.125,-1.398 -3.125,-3.125 V 18.75 c 0,-1.727 1.398,-3.125 3.125,-3.125 1.727,0 3.125,1.398 3.125,3.125 v 46.875 c 0,1.727 -1.398,3.125 -3.125,3.125 z m 37.5,0 c -1.727,0 -3.125,-1.398 -3.125,-3.125 V 31.25 c 0,-1.727 1.398,-3.125 3.125,-3.125 1.727,0 3.125,1.398 3.125,3.125 v 34.375 c 0,1.727 -1.398,3.125 -3.125,3.125 z M 34.375,65.625 c 0,1.727 1.398,3.125 3.125,3.125 1.727,0 3.125,-1.398 3.125,-3.125 V 9.375 c 0,-1.727 -1.398,-3.125 -3.125,-3.125 -1.727,0 -3.125,1.398 -3.125,3.125 z" style="fill:currentColor;fill-opacity:1;fill-rule:nonzero;stroke:none" transform="scale(1.3333333)" /> </g>
</svg>

