<?xml version="1.0" encoding="UTF-8" standalone="no"?> <svg version="1.1" id="I53c95362c61c444e97b222750fd4a27e20251106123559" width="100" height="100" viewBox="0 0 100 100" xmlns="http://www.w3.org/2000/svg" xmlns:svg="http://www.w3.org/2000/svg"> <defs id="I0611dd60acb246988ba16bc779b932b320251106123559" /> <g id="I5e8527dc53844c5c9bf62fc31aaa179c20251106123559"> <path id="I24b7e60f9ebc4b27bf43f05eef6924ae20251106123559" d="m 55.254,58.57 11.058,11.055 c 0.915,0.914 2.399,0.914 3.313,0 0.918,-0.914 0.914,-2.398 0,-3.313 L 8.688,5.375 c -0.915,-0.918 -2.399,-0.918 -3.317,0 -0.914,0.914 -0.914,2.398 0,3.313 l 15.731,15.73 c -1.438,-0.629 -3.028,-0.98 -4.696,-0.98 -6.472,0 -11.718,5.246 -11.718,11.718 0,5.668 4.027,10.399 9.374,11.485 v 4.921 c 0,6.473 5.247,11.719 11.719,11.719 H 37.5 v -5.859 c 0,-3.238 -2.625,-5.86 -5.859,-5.86 h -3.516 c -1.293,0 -2.344,-1.05 -2.344,-2.343 0,-1.297 1.051,-2.344 2.344,-2.344 h 3.516 c 5.824,0 10.547,4.723 10.547,10.547 v 5.859 h 4.933 c 3.481,0 6.516,-1.894 8.133,-4.711 z M 70.312,39.844 c 0,5.996 -3.753,11.117 -9.039,13.136 L 36.418,28.125 h 4.832 c 0.316,-0.621 0.684,-1.215 1.094,-1.773 l -4.465,-5.508 c -2.238,-2.762 -2.063,-6.762 0.41,-9.321 2.77,-2.863 7.367,-2.859 10.129,0.016 L 65.23,29.023 c 3.102,2.575 5.082,6.469 5.082,10.821 z" style="fill:currentColor;fill-opacity:1;fill-rule:nonzero;stroke:none" transform="scale(1.3333333)" /> </g>
</svg>

