<?xml version="1.0" encoding="UTF-8" standalone="no"?> <svg version="1.1" id="I216ab124da834ab3837d78da577bcd7820251106164749" width="100" height="100" viewBox="0 0 100 100" xmlns="http://www.w3.org/2000/svg" xmlns:svg="http://www.w3.org/2000/svg"> <defs id="Ic6631a4777374153a106a045aab6608520251106164749" /> <g id="Ib49359aaaf744b9a8117c5fdd153469020251106164749"> <path id="Id9ab6a4d27c94b73b65abc5e707860e120251106164749" d="M 7.5,26.25 C 7.5,13.824 17.574,3.75 30,3.75 c 12.426,0 22.5,10.074 22.5,22.5 0,3.02 -0.594,5.898 -1.672,8.531 -0.183,0.094 -0.359,0.192 -0.535,0.297 l -0.469,0.281 c -0.293,0.172 -0.625,0.266 -0.965,0.266 h -3.968 c -0.34,0 -0.672,-0.094 -0.965,-0.266 L 43.457,35.078 C 41.535,33.926 39.258,33.5 37.047,33.879 l -2.899,0.5 C 30.543,35 27.465,37.336 25.895,40.645 l -3.262,6.871 C 21.27,47.043 19.965,46.445 18.734,45.73 L 9.969,48.652 C 9.309,48.875 8.582,48.711 8.078,48.23 7.574,47.75 7.383,47.027 7.57,46.359 L 10.242,37.02 C 8.492,33.82 7.5,30.148 7.5,26.25 Z m 15,-3.75 c 0,1.035 0.84,1.875 1.875,1.875 h 11.25 c 1.035,0 1.875,-0.84 1.875,-1.875 0,-1.035 -0.84,-1.875 -1.875,-1.875 h -11.25 c -1.035,0 -1.875,0.84 -1.875,1.875 z m 1.875,5.625 c -1.035,0 -1.875,0.84 -1.875,1.875 0,1.035 0.84,1.875 1.875,1.875 h 7.5 c 1.035,0 1.875,-0.84 1.875,-1.875 0,-1.035 -0.84,-1.875 -1.875,-1.875 z m 31.691,9.449 c -1.328,-0.226 -2.691,0.028 -3.847,0.719 l -0.469,0.281 c -0.871,0.524 -1.871,0.801 -2.891,0.801 h -3.968 c -1.02,0 -2.02,-0.277 -2.891,-0.801 l -0.469,-0.281 c -1.156,-0.691 -2.519,-0.945 -3.847,-0.719 l -2.899,0.5 c -2.402,0.414 -4.457,1.973 -5.504,4.176 l -4.496,9.477 c -2.101,4.461 -2.578,8.195 -2.133,11.257 0.45,3.055 1.793,5.282 3.075,6.762 1.023,1.184 2.437,1.637 3.789,1.488 1.308,-0.14 2.523,-0.832 3.382,-1.851 l 3.067,-3.637 c 1.07,-1.266 2.644,-1.996 4.301,-1.996 h 13.218 c 1.657,0 3.231,0.73 4.301,1.996 l 3.067,3.637 c 0.859,1.019 2.074,1.711 3.382,1.851 1.352,0.149 2.766,-0.304 3.789,-1.488 1.282,-1.48 2.625,-3.707 3.075,-6.762 0.445,-3.062 -0.032,-6.796 -2.133,-11.257 L 64.469,42.25 C 63.422,40.047 61.367,38.488 58.965,38.074 Z M 46.875,52.5 c -1.555,0 -2.813,-1.258 -2.813,-2.812 0,-1.555 1.258,-2.813 2.813,-2.813 1.555,0 2.813,1.258 2.813,2.813 0,1.554 -1.258,2.812 -2.813,2.812 z" style="fill:currentColor;fill-opacity:1;fill-rule:nonzero;stroke:none" transform="scale(1.3333333)" /> </g>
</svg>

