<?xml version="1.0" encoding="UTF-8" standalone="no"?> <svg version="1.1" id="Id65beee086b14a42b8416bd2265d102920251110135155" width="100" height="100" viewBox="0 0 100 100" xmlns="http://www.w3.org/2000/svg" xmlns:svg="http://www.w3.org/2000/svg"> <defs id="I3d3bccdbaa65441eb7518afa6747b6d420251110135155" /> <g id="I377d414012e44a449b93a9460238982620251110135155"> <path id="I4da3f0e034f74d37b5e535f4236bad3720251110135155" d="M 9.375,18.75 C 8.34,18.75 7.5,19.59 7.5,20.625 7.5,21.66 8.34,22.5 9.375,22.5 h 56.25 c 1.035,0 1.875,-0.84 1.875,-1.875 0,-1.035 -0.84,-1.875 -1.875,-1.875 z m 0,11.25 C 8.34,30 7.5,30.84 7.5,31.875 c 0,1.035 0.84,1.875 1.875,1.875 h 56.25 C 66.66,33.75 67.5,32.91 67.5,31.875 67.5,30.84 66.66,30 65.625,30 Z M 33.75,54.375 c 0,-0.633 0.027,-1.258 0.086,-1.875 H 9.375 C 8.34,52.5 7.5,53.34 7.5,54.375 7.5,55.41 8.34,56.25 9.375,56.25 H 33.836 C 33.777,55.633 33.75,55.008 33.75,54.375 Z M 36,45 c 0.684,-1.34 1.512,-2.598 2.465,-3.75 H 9.375 C 8.34,41.25 7.5,42.09 7.5,43.125 7.5,44.16 8.34,45 9.375,45 Z m 35.25,9.375 c 0,9.32 -7.555,16.875 -16.875,16.875 -9.32,0 -16.875,-7.555 -16.875,-16.875 0,-9.32 7.555,-16.875 16.875,-16.875 9.32,0 16.875,7.555 16.875,16.875 z M 54.375,45 C 53.34,45 52.5,45.84 52.5,46.875 v 7.5 c 0,1.035 0.84,1.875 1.875,1.875 1.035,0 1.875,-0.84 1.875,-1.875 v -7.5 C 56.25,45.84 55.41,45 54.375,45 Z m 0,19.219 c 1.293,0 2.344,-1.051 2.344,-2.344 0,-1.293 -1.051,-2.344 -2.344,-2.344 -1.293,0 -2.344,1.051 -2.344,2.344 0,1.293 1.051,2.344 2.344,2.344 z" style="fill:currentColor;fill-opacity:1;fill-rule:nonzero;stroke:none" transform="scale(1.3333333)" /> </g>
</svg>

