<?xml version="1.0" encoding="UTF-8" standalone="no"?> <svg version="1.1" id="I8b1650a8569742f1b5ac06d78cb2fb4d20251110123029" width="100" height="100" viewBox="0 0 100 100" xmlns="http://www.w3.org/2000/svg" xmlns:svg="http://www.w3.org/2000/svg"> <defs id="I3c2c24a48be3468dbba903d30daddffb20251110123029" /> <g id="Iad71bc6058c84232aea009786ea4baa220251110123029"> <path id="Ic098a1921f5f434ebd185b2e4ba3e81820251110123029" d="m 39.375,33.098 3.277,3.742 c 0.68,0.781 1.868,0.859 2.645,0.18 0.781,-0.684 0.859,-1.868 0.176,-2.649 l -6.563,-7.5 C 38.555,26.465 38.039,26.23 37.5,26.23 c -0.539,0 -1.055,0.235 -1.41,0.641 l -6.563,7.5 c -0.683,0.781 -0.605,1.965 0.176,2.649 0.777,0.679 1.965,0.601 2.645,-0.18 l 3.277,-3.742 v 13.797 c 0,1.035 0.84,1.875 1.875,1.875 1.035,0 1.875,-0.84 1.875,-1.875 z M 15,60 C 10.859,60 7.5,56.641 7.5,52.5 v -30 C 7.5,18.359 10.859,15 15,15 h 45 c 4.141,0 7.5,3.359 7.5,7.5 v 30 c 0,4.141 -3.359,7.5 -7.5,7.5 z m -3.75,-7.5 c 0,2.07 1.68,3.75 3.75,3.75 h 45 c 2.07,0 3.75,-1.68 3.75,-3.75 V 33.75 H 49.375 c -0.23,-0.66 -0.59,-1.289 -1.078,-1.848 l -6.563,-7.5 C 40.664,23.184 39.121,22.48 37.5,22.48 c -1.621,0 -3.164,0.704 -4.234,1.922 l -6.563,7.5 c -0.488,0.559 -0.848,1.188 -1.078,1.848 H 11.25 Z" style="fill:currentColor;fill-opacity:1;fill-rule:nonzero;stroke:none" transform="scale(1.3333333)" /> </g>
</svg>

