<?xml version="1.0" encoding="UTF-8" standalone="no"?> <svg version="1.1" id="Ifd3a74482f4142e89c648874430c7e8b20251106152729" width="100" height="100" viewBox="0 0 100 100" xmlns="http://www.w3.org/2000/svg" xmlns:svg="http://www.w3.org/2000/svg"> <defs id="I2f16a1e54e6046dd9a2de7a2a48eab8d20251106152729" /> <g id="Iad8b2153724f462e83d08381a3840ca520251106152729"> <path id="If10681bd6eaf404d9fd920a5bc64ca8520251106152729" d="m 9.375,19.531 c 0,-5.609 4.547,-10.156 10.156,-10.156 h 35.938 c 5.609,0 10.156,4.547 10.156,10.156 V 34.375 H 60.938 V 29.688 H 46.875 v 7.132 c -0.043,0.082 -0.086,0.164 -0.125,0.25 l -4.562,9.703 V 14.062 H 19.531 c -3.019,0 -5.469,2.45 -5.469,5.469 v 35.938 c 0,3.019 2.45,5.469 5.469,5.469 h 19.153 c 0.839,0.945 2.066,1.562 3.496,1.562 h 5.382 l -0.777,3.125 H 19.531 C 13.922,65.625 9.375,61.078 9.375,55.469 Z M 60.938,25 v -5.469 c 0,-3.019 -2.45,-5.469 -5.469,-5.469 H 46.875 V 25 Z M 18.75,42.969 c 0,-1.293 1.051,-2.344 2.344,-2.344 h 14.062 c 1.293,0 2.344,1.051 2.344,2.344 0,1.293 -1.051,2.343 -2.344,2.343 H 21.094 c -1.293,0 -2.344,-1.05 -2.344,-2.343 z m 3.906,-22.657 c -2.156,0 -3.906,1.75 -3.906,3.907 v 7.812 c 0,2.157 1.75,3.907 3.906,3.907 h 10.938 c 2.156,0 3.906,-1.75 3.906,-3.907 v -7.812 c 0,-2.157 -1.75,-3.907 -3.906,-3.907 z M 23.438,31.25 V 25 h 9.374 v 6.25 z M 18.75,52.344 C 18.75,51.051 19.801,50 21.094,50 h 14.062 c 1.293,0 2.344,1.051 2.344,2.344 0,1.293 -1.051,2.344 -2.344,2.344 H 21.094 c -1.293,0 -2.344,-1.051 -2.344,-2.344 z M 50.992,37.5 h 15.086 c 1.195,0 1.949,1.285 1.363,2.328 L 61.719,50 h 4.676 c 2.011,0 3.089,2.371 1.761,3.887 L 53.082,71.102 c -1.574,1.796 -4.508,0.265 -3.93,-2.055 l 2.41,-9.672 H 42.18 c -1.145,0 -1.903,-1.191 -1.414,-2.227 l 8.812,-18.75 C 49.836,37.852 50.387,37.5 50.992,37.5 Z" style="fill:currentColor;fill-opacity:1;fill-rule:nonzero;stroke:none" transform="scale(1.3333333)" /> </g>
</svg>

