<?xml version="1.0" encoding="UTF-8" standalone="no"?> <svg version="1.1" id="Iaf6f9c67fe184bf09f95e83e0a26d93220251106123559" width="100" height="100" viewBox="0 0 100 100" xmlns="http://www.w3.org/2000/svg" xmlns:svg="http://www.w3.org/2000/svg"> <defs id="Ice30931e284f461c9c3e7c303dd4cf6f20251106123559" /> <g id="I710bf3f61b23458f97f1351c5bd7947120251106123559"> <path id="I3c81e944e34e46caace26a56ca5c8d1620251106123559" d="m 7.031,4.688 c -1.293,0 -2.343,1.05 -2.343,2.343 0,1.293 1.05,2.344 2.343,2.344 h 60.938 c 1.293,0 2.343,-1.051 2.343,-2.344 0,-1.293 -1.05,-2.343 -2.343,-2.343 z m 0,32.812 c -1.293,0 -2.343,1.051 -2.343,2.344 0,1.293 1.05,2.344 2.343,2.344 h 60.938 c 1.293,0 2.343,-1.051 2.343,-2.344 0,-1.293 -1.05,-2.344 -2.343,-2.344 z m 37.5,28.125 c 3.883,0 7.031,-3.148 7.031,-7.031 v -4.688 c 0,-3.883 -3.148,-7.031 -7.031,-7.031 H 30.469 c -3.883,0 -7.031,3.148 -7.031,7.031 v 4.688 c 0,3.883 3.148,7.031 7.031,7.031 z m 9.375,-32.813 c 3.883,0 7.032,-3.148 7.032,-7.031 v -4.687 c 0,-3.883 -3.149,-7.032 -7.032,-7.032 H 21.094 c -3.883,0 -7.032,3.149 -7.032,7.032 v 4.687 c 0,3.883 3.149,7.031 7.032,7.031 z" style="fill:currentColor;fill-opacity:1;fill-rule:nonzero;stroke:none" transform="scale(1.3333333)" /> </g>
</svg>

