<?xml version="1.0" encoding="UTF-8" standalone="no"?> <svg version="1.1" id="I1ac18420deee4428a8ac4e9239d88dbb20251106113050" width="100" height="100" viewBox="0 0 100 100" xmlns="http://www.w3.org/2000/svg" xmlns:svg="http://www.w3.org/2000/svg"> <defs id="I2d707e2429434c7a8a56c295b8b11f4020251106113050" /> <g id="I85b37128262a475fbfb3125ebb8978a520251106113050"> <path id="I542ea79bda5940e7873a3522bc2a7d9420251106113050" d="m 41.172,35.512 h -7.75 v -6.93 h 7.75 z m 0,-23.961 h -7.75 v 7.164 h 7.75 z m 9.164,17.031 h -7.754 v 6.93 h 7.75 z M 32.012,20.125 h -7.754 v 7.047 h 7.754 z m 9.16,0 h -7.75 v 7.047 h 7.75 z M 73.707,31.871 C 72.062,30.695 68.07,30.344 65.133,30.93 64.781,28.113 63.137,25.645 60.316,23.414 L 58.672,22.355 57.617,24 c -2.113,3.289 -2.703,8.691 -0.469,12.215 -1.058,0.59 -3.054,1.293 -5.64,1.293 H 0.297 c -1.055,5.988 0.707,13.742 5.168,19.027 4.347,5.168 10.926,7.75 19.383,7.75 18.437,0 32.183,-8.457 38.523,-23.961 2.469,0 7.988,0 10.691,-5.285 C 74.18,34.805 74.883,33.516 75,33.043 Z M 13.688,28.582 h -7.75 v 6.93 h 7.75 z m 9.164,0 h -7.754 v 6.93 h 7.75 z m 9.16,0 h -7.754 v 6.93 h 7.754 z m -9.16,-8.457 h -7.754 v 7.047 h 7.75 z" style="fill:currentColor;fill-opacity:1;fill-rule:evenodd;stroke:none" transform="scale(1.3333333)" /> </g>
</svg>

