<svg version="1.2" xmlns="http://www.w3.org/2000/svg" viewBox="0 0 100 100" width="100" height="100">
	<style>
		.Cdb23f3de2416470ba0aa78e6fb2dd4cd20251031115229 { fill: none;stroke: #000000;stroke-miterlimit:100;stroke-width: 10 } 
		.C8ad1555620ea4c7ab04fedfa7af8a04520251031115229 { fill: #000000 } 
	</style>
	<path id="I45568c28e4b64f8088a67904f41c1eed20251031115229" fill-rule="evenodd" class="Cdb23f3de2416470ba0aa78e6fb2dd4cd20251031115229" d="m18.15 6.15h63.7c6.63 0 12 5.37 12 12v63.7c0 6.63-5.37 12-12 12h-63.7c-6.63 0-12-5.37-12-12v-63.7c0-6.63 5.37-12 12-12z"/>
	<path id="I2d5b639469c145a4bbc2b90700d03b6720251031115229" fill-rule="evenodd" class="C8ad1555620ea4c7ab04fedfa7af8a04520251031115229" d="m25 45h50c2.76 0 5 2.24 5 5 0 2.76-2.24 5-5 5h-50c-2.76 0-5-2.24-5-5 0-2.76 2.24-5 5-5z"/>
	<path id="Id17b5e6ededc414a85919be40f6adc3d20251031115229" fill-rule="evenodd" class="C8ad1555620ea4c7ab04fedfa7af8a04520251031115229" d="m25 25h50c2.76 0 5 2.24 5 5 0 2.76-2.24 5-5 5h-50c-2.76 0-5-2.24-5-5 0-2.76 2.24-5 5-5z"/>
	<path id="I6985a8e7e58e4b4992eb5a35f5ad732f20251031115229" fill-rule="evenodd" class="C8ad1555620ea4c7ab04fedfa7af8a04520251031115229" d="m25 65h50c2.76 0 5 2.24 5 5 0 2.76-2.24 5-5 5h-50c-2.76 0-5-2.24-5-5 0-2.76 2.24-5 5-5z"/>
</svg>


