<svg version="1.2" xmlns="http://www.w3.org/2000/svg" viewBox="0 0 100 100" width="100" height="100">
	<title>New Project</title>
	<style>
		.Cfdd79e54c349482d93813b8f0eabcc6720250904151152 { fill: currentcolor;stroke: currentcolor;stroke-miterlimit:100;stroke-width: 10 } 
		.C328d783b63b7425d8628e7d20b33599820250904151152 { fill: currentcolor } 
	</style>
	<path id="I39861ccac80a4cc5a14c7468c1c4f8b520250904151152" fill-rule="evenodd" class="Cfdd79e54c349482d93813b8f0eabcc6720250904151152" d="m18.15 6.15h63.7c6.63 0 12 5.37 12 12v63.7c0 6.63-5.37 12-12 12h-63.7c-6.63 0-12-5.37-12-12v-63.7c0-6.63 5.37-12 12-12z"/>
	<path id="I770a521651d14ed6aa15f21dab89677620250904151152" fill-rule="evenodd" class="C328d783b63b7425d8628e7d20b33599820250904151152" d="m25 45h50c2.76 0 5 2.24 5 5 0 2.76-2.24 5-5 5h-50c-2.76 0-5-2.24-5-5 0-2.76 2.24-5 5-5z"/>
	<path id="I388252437fa84832acaafb34bf07575d20250904151152" fill-rule="evenodd" class="C328d783b63b7425d8628e7d20b33599820250904151152" d="m25 25h50c2.76 0 5 2.24 5 5 0 2.76-2.24 5-5 5h-50c-2.76 0-5-2.24-5-5 0-2.76 2.24-5 5-5z"/>
	<path id="Ibf070b1de0a24e079145c13f84f7c3e420250904151152" fill-rule="evenodd" class="C328d783b63b7425d8628e7d20b33599820250904151152" d="m25 65h50c2.76 0 5 2.24 5 5 0 2.76-2.24 5-5 5h-50c-2.76 0-5-2.24-5-5 0-2.76 2.24-5 5-5z"/>
</svg>
