<svg version="1.2" xmlns="http://www.w3.org/2000/svg" viewBox="0 0 100 100" width="100" height="100">
	<style>
		.C0a57b153933d4338a653247521be3c2d20251103104211 { fill: none;stroke: #000000;stroke-miterlimit:100;stroke-width: 10 } 
		.Cc30f09788f404883b8cf29bb42693fcd20251103104211 { fill: #000000 } 
	</style>
	<path id="I4a5fa9e429d24d8a925c6227b8bfaf6320251103104211" fill-rule="evenodd" class="C0a57b153933d4338a653247521be3c2d20251103104211" d="m18.15 6.15h63.7c6.63 0 12 5.37 12 12v63.7c0 6.63-5.37 12-12 12h-63.7c-6.63 0-12-5.37-12-12v-63.7c0-6.63 5.37-12 12-12z"/>
	<path id="Ibd9a76d263ec4cb8a2de673025a769e420251103104211" fill-rule="evenodd" class="Cc30f09788f404883b8cf29bb42693fcd20251103104211" d="m25 45h50c2.76 0 5 2.24 5 5 0 2.76-2.24 5-5 5h-50c-2.76 0-5-2.24-5-5 0-2.76 2.24-5 5-5z"/>
	<path id="I017f6bb7788e42f996e44bd2aa8534e320251103104211" fill-rule="evenodd" class="Cc30f09788f404883b8cf29bb42693fcd20251103104211" d="m25 25h50c2.76 0 5 2.24 5 5 0 2.76-2.24 5-5 5h-50c-2.76 0-5-2.24-5-5 0-2.76 2.24-5 5-5z"/>
	<path id="Ie5d51064e78643fb954e5a01255d3de020251103104211" fill-rule="evenodd" class="Cc30f09788f404883b8cf29bb42693fcd20251103104211" d="m25 65h50c2.76 0 5 2.24 5 5 0 2.76-2.24 5-5 5h-50c-2.76 0-5-2.24-5-5 0-2.76 2.24-5 5-5z"/>
</svg>




