<?xml version="1.0" encoding="UTF-8" standalone="no"?> <svg version="1.1" id="If431b85a495a4bdc9c5bc1ae5afa479720251106142135" width="100" height="100" viewBox="0 0 100 100" xmlns="http://www.w3.org/2000/svg" xmlns:svg="http://www.w3.org/2000/svg"> <defs id="I2427c27073904a8d845b5a625946f2f520251106142135"> <radialGradient fx="0" fy="0" cx="0" cy="0" r="1" gradientUnits="userSpaceOnUse" gradientTransform="matrix(59.974263,35.197385,-56.063818,95.52943,0.97295,36.05625)" spreadMethod="pad" id="Ifdc2fc243dec42b888fb72c17afbcd8320251106142135"> <stop style="stop-opacity:1;stop-color:#f08af4" offset="0" id="I1984df71ac624125af56eb6b1bf699db20251106142135" /> <stop style="stop-opacity:1;stop-color:#9c6cfe" offset="0.535356" id="I4c872909cc7f40a886388451bf3a406320251106142135" /> <stop style="stop-opacity:1;stop-color:#4e44db" offset="1" id="Iaac462a701d04177bb43e3a5e46d150320251106142135" /> </radialGradient> <linearGradient x1="12.0033" y1="13.0474" x2="15.6234" y2="26.5728" gradientUnits="userSpaceOnUse" gradientTransform="scale(3.125)" spreadMethod="pad" id="I93468e8d9bf04294b7ff24b7984dace920251106142135"> <stop style="stop-opacity:0;stop-color:#885edb" offset="0" id="I93c922fa8b174333afd07fdda7a11fd020251106142135" /> <stop style="stop-opacity:1;stop-color:#e362f8" offset="1" id="If7df324762b14343adc3717b4f7a5b4e20251106142135" /> </linearGradient> <linearGradient x1="11.2092" y1="2.0004599" x2="12.9843" y2="3.8713801" gradientUnits="userSpaceOnUse" gradientTransform="scale(3.125)" spreadMethod="pad" id="Id8bf07e726a94fe5a0b78d3c786d21c120251106142135"> <stop style="stop-opacity:1;stop-color:#8b52f4" offset="0" id="I2a81072408f54b7a99a6d865090fdc8b20251106142135" /> <stop style="stop-opacity:1;stop-color:#3d35b1" offset="1" id="I440ce1fcf91f4cdc800ef70032c1a73c20251106142135" /> </linearGradient> <radialGradient fx="0" fy="0" cx="0" cy="0" r="1" gradientUnits="userSpaceOnUse" gradientTransform="matrix(49.453095,38.214251,-72.190753,93.422116,5.625,1.785709)" spreadMethod="pad" id="Ib3d71bdcb54c4312aaca6d6d56071ce920251106142135"> <stop style="stop-opacity:1;stop-color:#f08af4" offset="0" id="Ibeb37b53ed3342f2ad86e194e4f516d920251106142135" /> <stop style="stop-opacity:1;stop-color:#9c6cfe" offset="0.535356" id="I0edc5dc379284c13acfb71b4b29cee1920251106142135" /> <stop style="stop-opacity:1;stop-color:#4e44db" offset="1" id="If62d0291d4e84d1b9357dd75b62d31e220251106142135" /> </radialGradient> <linearGradient x1="13.5851" y1="6.5961099" x2="15.4791" y2="9.8646297" gradientUnits="userSpaceOnUse" gradientTransform="scale(3.125)" spreadMethod="pad" id="I9505c706ad1c43208986f91cae9e864720251106142135"> <stop style="stop-opacity:1;stop-color:#fdfdfd" offset="0" id="Idf4666441f3a4233964c6dcb3ae118ce20251106142135" /> <stop style="stop-opacity:1;stop-color:#f9dcfa" offset="1" id="Ibe8bd189b5ce43bb821cd7ebb44e098120251106142135" /> </linearGradient> <linearGradient x1="9.0924101" y1="6.5961099" x2="10.9864" y2="9.8646297" gradientUnits="userSpaceOnUse" gradientTransform="scale(3.125)" spreadMethod="pad" id="I95389f528cef41c7bceef444e35067c920251106142135"> <stop style="stop-opacity:1;stop-color:#fdfdfd" offset="0" id="Id1e74670a233484e88e598de379b001420251106142135" /> <stop style="stop-opacity:1;stop-color:#f9dcfa" offset="1" id="I6e205847d3844d7a859ef553baf80c6d20251106142135" /> </linearGradient> </defs> <g id="I2d2c58fc7e4442e4bee39288ed14af8e20251106142135"> <path id="Ia0284c988c854ec6b6cd6a30830f6ab020251106142135" d="m 55.477,43.75 c 3.886,0 7.031,3.148 7.031,7.031 v 2.828 c 0,3.418 -1.492,6.664 -4.082,8.891 -4.895,4.199 -11.895,6.254 -20.926,6.254 -9.031,0 -16.027,-2.051 -20.91,-6.25 C 14,60.277 12.512,57.031 12.512,53.617 v -2.836 c 0,-3.883 3.148,-7.031 7.031,-7.031 z" transform="scale(1.3333333)" style="fill:url(#Ifdc2fc243dec42b888fb72c17afbcd8320251106142135);stroke:none" /> <path d="m 55.477,43.75 c 3.886,0 7.031,3.148 7.031,7.031 v 2.828 c 0,3.418 -1.492,6.664 -4.082,8.891 -4.895,4.199 -11.895,6.254 -20.926,6.254 -9.031,0 -16.027,-2.051 -20.91,-6.25 C 14,60.277 12.512,57.031 12.512,53.617 v -2.836 c 0,-3.883 3.148,-7.031 7.031,-7.031 z" transform="scale(1.3333333)" style="fill:url(#I93468e8d9bf04294b7ff24b7984dace920251106142135);stroke:none" opacity="1" id="Ie8ac676658cb46ec9ae7c61c80c57e4520251106142135" /> <path id="I1c1c386ca7a04ff69b84cfb5c35ee65820251106142135" d="m 37.5,7.812 -0.316,0.02 c -1.145,0.156 -2.028,1.137 -2.028,2.324 l -0.019,5.469 h 4.687 L 39.844,10.156 39.82,9.84 C 39.668,8.695 38.688,7.812 37.5,7.812 Z" transform="scale(1.3333333)" style="fill:url(#Id8bf07e726a94fe5a0b78d3c786d21c120251106142135);stroke:none" /> <path id="I0d09062bcd39450ebf6637052bb9ff5620251106142135" d="M 56.25,19.531 C 56.25,15.648 53.102,12.5 49.219,12.5 H 25.781 c -3.883,0 -7.031,3.148 -7.031,7.031 v 10.938 c 0,3.883 3.148,7.031 7.031,7.031 h 23.438 c 3.883,0 7.031,-3.148 7.031,-7.031 z" transform="scale(1.3333333)" style="fill:url(#Ib3d71bdcb54c4312aaca6d6d56071ce920251106142135);stroke:none" /> <path id="I64ed44d7f2a4494aa3a293bb24bb0e3c20251106142135" d="m 44.508,20.312 c -2.156,0 -3.906,1.747 -3.906,3.903 0,2.156 1.75,3.906 3.906,3.906 2.156,0 3.902,-1.75 3.902,-3.906 0,-2.156 -1.746,-3.903 -3.902,-3.903 z" transform="scale(1.3333333)" style="fill:url(#I9505c706ad1c43208986f91cae9e864720251106142135);stroke:none" /> <path id="Iab641b4fcae94e2b875442d47002e87220251106142135" d="m 30.465,20.312 c -2.156,0 -3.903,1.747 -3.903,3.903 0,2.156 1.747,3.906 3.903,3.906 2.156,0 3.906,-1.75 3.906,-3.906 0,-2.156 -1.75,-3.903 -3.906,-3.903 z" transform="scale(1.3333333)" style="fill:url(#I95389f528cef41c7bceef444e35067c920251106142135);stroke:none" /> </g>
</svg>

