<?xml version="1.0" encoding="UTF-8" standalone="no"?> <svg version="1.1" id="I8fd2f756ecfb4db0b63cfed75809794720251106125938" width="100" height="100" viewBox="0 0 100 100" xmlns="http://www.w3.org/2000/svg" xmlns:svg="http://www.w3.org/2000/svg"> <defs id="I5b6972d9505945dbbf08a46875aee2b320251106125938" /> <g id="Icaf237f77f714a9c927c2c6c506065f420251106125938"> <path id="I35885634507b450f9d9174795f1ee7b720251106125938" d="m 41.148,7.121 c 2.356,-2.351 6.168,-2.351 8.524,0 l 18.207,18.207 c 2.351,2.356 2.351,6.172 0,8.524 l -17.684,17.683 4.289,4.289 c 3.614,3.614 1.371,9.801 -3.714,10.266 L 11.93,69.621 C 8.184,69.961 5.043,66.82 5.383,63.07 L 8.914,24.238 c 0.461,-5.086 6.648,-7.328 10.262,-3.715 l 4.285,4.286 z m 5.684,2.844 C 46.047,9.18 44.773,9.18 43.988,9.965 L 24.883,29.07 c -0.785,0.785 -2.055,0.785 -2.84,0 L 16.336,23.363 C 15.133,22.16 13.07,22.906 12.914,24.602 L 9.383,63.434 c -0.113,1.25 0.933,2.296 2.183,2.183 l 38.84,-3.531 c 1.696,-0.152 2.442,-2.215 1.239,-3.418 l -5.711,-5.711 c -0.379,-0.375 -0.59,-0.887 -0.59,-1.422 0,-0.531 0.211,-1.043 0.59,-1.418 L 65.035,31.012 c 0.785,-0.785 0.785,-2.055 0,-2.84 z" style="fill:currentColor;fill-opacity:1;fill-rule:nonzero;stroke:none" transform="scale(1.3333333)" /> </g>
</svg>

