<?xml version="1.0" encoding="UTF-8" standalone="no"?> <svg version="1.1" id="I572e99c6cdd54931b3b0663bcf634edd20251106152728" width="100" height="100" viewBox="0 0 100 100" xmlns="http://www.w3.org/2000/svg" xmlns:svg="http://www.w3.org/2000/svg"> <defs id="I1237477cfb744c0c8f2420d12520c51420251106152728" /> <g id="I7b539fc3a0794272896c106058ffed9e20251106152728"> <path id="Id97232a20b9f40d6bc09a2e8b67ae98420251106152728" d="m 45.688,37.57 c -2.196,1.903 -5.055,3.055 -8.188,3.055 -6.902,0 -12.5,-5.598 -12.5,-12.5 0,-6.902 5.598,-12.5 12.5,-12.5 6.418,0 11.703,4.836 12.418,11.063 1.113,5.656 1.102,12.394 -1.449,18.437 -2.696,6.375 -8.129,11.746 -17.407,14.172 -1.253,0.328 -2.535,-0.418 -2.859,-1.672 -0.328,-1.254 0.418,-2.531 1.672,-2.859 7.91,-2.071 12.164,-6.469 14.273,-11.465 0.774,-1.828 1.27,-3.762 1.54,-5.731 z" style="fill:currentColor;fill-opacity:1;fill-rule:nonzero;stroke:none" transform="scale(1.3333333)" /> </g>
</svg>

