<?xml version="1.0" encoding="UTF-8" standalone="no"?> <svg version="1.1" id="Iba1f41b6a6e942709f2e5a81deb842a120251106171634" width="100" height="100" viewBox="0 0 100 100" xmlns="http://www.w3.org/2000/svg" xmlns:svg="http://www.w3.org/2000/svg"> <defs id="I5e7adf865e1d4687baf7068264a2fdb420251106171634" /> <g id="I5f7fc45cf64447159fcd707bdea2a63120251106171634"> <path id="I97ab3859b2db44e1aa378a7b3e5b641420251106171634" d="m 8.594,14.062 c 1.293,0 2.344,1.051 2.344,2.344 v 40.625 c 0,1.293 -1.051,2.344 -2.344,2.344 -1.293,0 -2.344,-1.051 -2.344,-2.344 V 16.406 c 0,-1.293 1.051,-2.344 2.344,-2.344 z m 57.812,0 c 1.293,0 2.344,1.051 2.344,2.344 v 2.707 c 0,1.297 -1.051,2.344 -2.344,2.344 -1.293,0 -2.344,-1.047 -2.344,-2.344 v -2.707 c 0,-1.293 1.051,-2.344 2.344,-2.344 z m 0,10.833 c 1.293,0 2.344,1.05 2.344,2.343 v 5.418 c 0,1.293 -1.051,2.344 -2.344,2.344 -1.293,0 -2.344,-1.051 -2.344,-2.344 v -5.418 c 0,-1.293 1.051,-2.343 2.344,-2.343 z m 0,13.543 c 1.293,0 2.344,1.05 2.344,2.343 v 5.418 c 0,1.293 -1.051,2.344 -2.344,2.344 -1.293,0 -2.344,-1.051 -2.344,-2.344 v -5.418 c 0,-1.293 1.051,-2.343 2.344,-2.343 z m 0,13.542 c 1.293,0 2.344,1.047 2.344,2.344 v 2.707 c 0,1.293 -1.051,2.344 -2.344,2.344 -1.293,0 -2.344,-1.051 -2.344,-2.344 v -2.707 c 0,-1.297 1.051,-2.344 2.344,-2.344 z M 58.688,38.375 c 0.917,-0.914 0.917,-2.398 0,-3.313 L 43.062,19.438 c -0.914,-0.918 -2.398,-0.918 -3.312,0 -0.918,0.914 -0.918,2.398 0,3.312 L 51.371,34.375 H 17.969 c -1.293,0 -2.344,1.051 -2.344,2.344 0,1.293 1.051,2.343 2.344,2.343 H 51.371 L 39.75,50.688 c -0.918,0.914 -0.918,2.398 0,3.312 0.914,0.918 2.398,0.918 3.312,0 z" style="fill:currentColor;fill-opacity:1;fill-rule:nonzero;stroke:none" transform="scale(1.3333333)" /> </g>
</svg>

