<?xml version="1.0" encoding="UTF-8" standalone="no"?> <svg version="1.1" id="If29152627e394c8790e0a8b36d4c5aeb20251106123559" width="100" height="100" viewBox="0 0 100 100" xmlns="http://www.w3.org/2000/svg" xmlns:svg="http://www.w3.org/2000/svg"> <defs id="I90d9a912303c462986007947a3fde6ec20251106123559" /> <g id="I320acc7273e44106a0928d200496e93820251106123559"> <path id="I253d2258edcf49a08cc2ed41a59760fb20251106123559" d="m 35.938,23.402 v -7.656 c 0,-1.808 2.468,-2.332 3.203,-0.68 l 4.449,9.993 h -3.094 c -0.254,0 -0.508,-0.047 -0.742,-0.141 z M 48.719,25.059 43.426,13.16 C 40.633,6.883 31.25,8.875 31.25,15.746 v 5.793 L 26.562,19.68 v -4.817 c 0,-5.429 -7.058,-7.539 -10.039,-3 l -5.968,9.086 c -2.473,3.77 -0.914,8.86 3.246,10.594 l 10.945,4.574 -6.391,5.934 c -5.085,4.722 -0.011,13.015 6.508,10.64 l 21.129,-7.699 10.82,4.52 c 4.192,1.75 8.813,-1.328 8.813,-5.871 v -3.844 c 0,-8.141 -6.598,-14.738 -14.734,-14.738 z M 21.875,21.723 c 0,0.687 0.418,1.304 1.059,1.558 l 15.089,5.992 c 0.786,0.313 1.625,0.473 2.473,0.473 h 10.395 c 5.547,0 10.047,4.5 10.047,10.051 v 3.844 c 0,1.195 -1.215,2.004 -2.321,1.543 L 47.234,40.43 c -0.722,-0.301 -1.535,-0.321 -2.273,-0.051 l -21.703,7.906 c -1.715,0.629 -3.051,-1.555 -1.711,-2.801 l 8.168,-7.582 c 1.664,-1.547 1.176,-4.297 -0.922,-5.175 L 15.605,27.219 c -1.449,-0.606 -1.996,-2.383 -1.132,-3.696 l 5.968,-9.089 c 0.426,-0.649 1.434,-0.348 1.434,0.429 z m -12.5,41.558 c 0,-1.293 1.051,-2.343 2.344,-2.343 h 51.562 c 1.293,0 2.344,1.05 2.344,2.343 0,1.293 -1.051,2.344 -2.344,2.344 H 11.719 c -1.293,0 -2.344,-1.051 -2.344,-2.344 z" style="fill:currentColor;fill-opacity:1;fill-rule:nonzero;stroke:none" transform="scale(1.3333333)" /> </g>
</svg>

