<?xml version="1.0" encoding="UTF-8" standalone="no"?> <svg version="1.1" id="I03bac6d3a61c46539b7d1f7505763d0120251106171633" width="100" height="100" viewBox="0 0 100 100" xmlns="http://www.w3.org/2000/svg" xmlns:svg="http://www.w3.org/2000/svg"> <defs id="I8b56d84448214d30a7ba439d50be134720251106171633" /> <g id="I24dd0e81f1e74ced9f6eb49c64a2a5c120251106171633"> <path id="Id596797468824c2abf9bcc1c15fcd66920251106171633" d="m 28.125,6.25 c -7.766,0 -14.063,6.297 -14.063,14.062 v 29.376 c 0,3.062 1.958,5.664 4.688,6.632 V 20.312 c 0,-5.175 4.199,-9.374 9.375,-9.374 H 43.758 C 42.789,8.207 40.188,6.25 37.125,6.25 Z" style="fill:currentColor;fill-opacity:1;fill-rule:nonzero;stroke:none" transform="scale(1.3333333)" /> <path id="I0e3394349a8a458aaa64238c80a9611e20251106171633" d="m 21.875,21.094 c 0,-3.883 3.148,-7.032 7.031,-7.032 H 46.875 V 8.594 c 0,-1.293 1.051,-2.344 2.344,-2.344 1.293,0 2.343,1.051 2.343,2.344 v 57.812 c 0,1.293 -1.05,2.344 -2.343,2.344 -1.293,0 -2.344,-1.051 -2.344,-2.344 V 62.5 H 28.906 c -3.883,0 -7.031,-3.148 -7.031,-7.031 z m 25,36.718 V 18.75 H 28.906 c -1.293,0 -2.344,1.051 -2.344,2.344 v 34.375 c 0,1.293 1.051,2.343 2.344,2.343 z" style="fill:currentColor;fill-opacity:1;fill-rule:nonzero;stroke:none" transform="scale(1.3333333)" /> </g>
</svg>

