<?xml version="1.0" encoding="UTF-8" standalone="no"?> <svg version="1.1" id="I16df740176284ac7b90abba8dd8a324020251106151526" width="100" height="100" viewBox="0 0 100 100" xmlns="http://www.w3.org/2000/svg" xmlns:svg="http://www.w3.org/2000/svg"> <defs id="I91ff9b85e0524b1ab2d5d309bbcb4cbc20251106151526" /> <g id="I7063d6709c55460a91e4edcd4b93b4aa20251106151526"> <path id="I75b070e6cae049499ee1fee4b5f84d0920251106151526" d="m 40.18,5.355 c 3.238,0 5.941,2.301 6.562,5.36 h 4.82 c 4.067,0 7.368,3.297 7.368,7.367 v 1.336 c 0,1.109 -0.903,2.012 -2.012,2.012 -1.109,0 -2.008,-0.903 -2.008,-2.012 v -1.336 c 0,-1.852 -1.5,-3.352 -3.348,-3.352 h -5.25 c -1.035,2.368 -3.39,4.02 -6.132,4.02 H 29.465 c -2.746,0 -5.102,-1.652 -6.133,-4.02 h -5.25 c -1.852,0 -3.352,1.5 -3.352,3.352 v 44.195 c 0.004,1.848 1.5,3.348 3.352,3.348 h 9.375 c 1.109,0 2.008,0.898 2.008,2.008 0,1.109 -0.899,2.012 -2.008,2.012 h -9.375 c -4.07,0 -7.367,-3.301 -7.367,-7.368 V 18.082 c 0,-4.07 3.297,-7.367 7.367,-7.367 h 4.82 c 0.621,-3.059 3.325,-5.36 6.563,-5.36 z m 19.418,18.75 c 4.07,0 7.367,3.301 7.367,7.368 v 30.804 c 0,4.067 -3.297,7.368 -7.367,7.368 h -20.09 c -4.067,0 -7.363,-3.301 -7.363,-7.368 V 31.473 c 0,-4.067 3.296,-7.368 7.363,-7.368 z m -20.09,4.02 c -1.848,0 -3.348,1.5 -3.348,3.348 v 30.804 c 0,1.848 1.5,3.348 3.348,3.348 h 20.09 c 1.847,0 3.347,-1.5 3.347,-3.348 V 31.473 c 0,-1.848 -1.496,-3.348 -3.347,-3.348 z M 29.465,9.375 c -1.481,0 -2.68,1.199 -2.68,2.68 0,1.476 1.199,2.675 2.68,2.675 H 40.18 c 1.476,0 2.675,-1.199 2.675,-2.675 0,-1.481 -1.199,-2.68 -2.675,-2.68 z" style="fill:currentColor;fill-opacity:1;fill-rule:nonzero;stroke:none" transform="scale(1.3333333)" /> </g>
</svg>

